<?xml version="1.0" encoding="UTF-8" standalone="no"?><!-- Generator: Gravit.io --><svg xmlns="http://www.w3.org/2000/svg" xmlns:xlink="http://www.w3.org/1999/xlink" style="isolation:isolate" viewBox="0 0 180 130" width="180pt" height="130pt"><defs><clipPath id="_clipPath_zNYt0EjG31Bq0WOdmGQsAI7dbIDnKGwW"><rect width="180" height="130"/></clipPath></defs><g clip-path="url(#_clipPath_zNYt0EjG31Bq0WOdmGQsAI7dbIDnKGwW)"><linearGradient id="_lgradient_10" x1="0.01067457840506858" y1="0.9878033998829365" x2="1.0025957259164735" y2="0.005537184843119047" gradientTransform="matrix(182.162,0,0,131.689,-0.945,-1.083)" gradientUnits="userSpaceOnUse"><stop offset="0%" stop-opacity="1" style="stop-color:rgb(215,215,215)"/><stop offset="98.69565217391305%" stop-opacity="1" style="stop-color:rgb(149,149,149)"/></linearGradient><rect x="-0.945" y="-1.083" width="182.162" height="131.689" transform="matrix(1,0,0,1,0,0)" fill="url(#_lgradient_10)" vector-effect="non-scaling-stroke" stroke-width="1.022" stroke="rgb(255,255,255)" stroke-linejoin="miter" stroke-linecap="butt" stroke-miterlimit="2"/><g><linearGradient id="_lgradient_11" x1="-0.003963119634430391" y1="0.5000000095955544" x2="1.0039631432137617" y2="0.5000000095955544" gradientTransform="matrix(87.8,0,0,86.301,47,21.667)" gradientUnits="userSpaceOnUse"><stop offset="0%" stop-opacity="1" style="stop-color:rgb(9,111,210)"/><stop offset="100%" stop-opacity="1" style="stop-color:rgb(14,142,233)"/></linearGradient><mask id="_mask_aBtnI19qJCOIDIcPlEQe2eYyjbdF77Y7" x="-200%" y="-200%" width="400%" height="400%"><rect x="-200%" y="-200%" width="400%" height="400%" style="fill:white;"/><path d=" M 81.802 21.667 L 99.597 21.667 C 128.732 21.667 134.8 44.95 134.8 57.444 L 134.8 72.19 C 134.8 84.527 129.135 107.967 97.435 107.967 L 82.918 107.967 C 58.696 107.967 47 92.011 47 72.19 L 47 57.444 C 47 37.623 58.459 21.667 81.802 21.667 Z " fill="black" stroke="none"/></mask><path d=" M 81.802 21.667 L 99.597 21.667 C 128.732 21.667 134.8 44.95 134.8 57.444 L 134.8 72.19 C 134.8 84.527 129.135 107.967 97.435 107.967 L 82.918 107.967 C 58.696 107.967 47 92.011 47 72.19 L 47 57.444 C 47 37.623 58.459 21.667 81.802 21.667 Z " fill="url(#_lgradient_11)" mask="url(#_mask_aBtnI19qJCOIDIcPlEQe2eYyjbdF77Y7)" vector-effect="non-scaling-stroke" stroke-width="0.672" stroke="rgb(0,0,0)" stroke-opacity="0.078125" stroke-linejoin="bevel" stroke-linecap="square" stroke-miterlimit="4"/><path d=" M 81.802 21.667 L 99.597 21.667 C 128.732 21.667 134.8 44.95 134.8 57.444 L 134.8 72.19 C 134.8 84.527 129.135 107.967 97.435 107.967 L 82.918 107.967 C 58.696 107.967 47 92.011 47 72.19 L 47 57.444 C 47 37.623 58.459 21.667 81.802 21.667 Z " fill="url(#_lgradient_11)"/><path d="M 71.478 39.379 L 110.063 39.379 C 114.546 39.379 118.186 42.418 118.186 46.161 L 118.186 46.161 C 118.186 49.904 114.546 52.943 110.063 52.943 L 71.478 52.943 C 66.995 52.943 63.355 49.904 63.355 46.161 L 63.355 46.161 C 63.355 42.418 66.995 39.379 71.478 39.379 Z" style="stroke:none;fill:#FFFFFF;stroke-miterlimit:10;"/><path d="M 70.486 56.741 L 104.358 56.741 C 108.294 56.741 111.489 59.78 111.489 63.523 L 111.489 63.523 C 111.489 67.266 108.294 70.305 104.358 70.305 L 70.486 70.305 C 66.55 70.305 63.355 67.266 63.355 63.523 L 63.355 63.523 C 63.355 59.78 66.55 56.741 70.486 56.741 Z" style="stroke:none;fill:#FFFFFF;stroke-miterlimit:10;"/><path d="M 68.12 74.469 L 90.755 74.469 C 93.385 74.469 95.52 76.604 95.52 79.234 L 95.52 82.536 C 95.52 85.166 93.385 87.301 90.755 87.301 L 68.12 87.301 C 65.49 87.301 63.355 85.166 63.355 82.536 L 63.355 79.234 C 63.355 76.604 65.49 74.469 68.12 74.469 Z" style="stroke:none;fill:#FFFFFF;stroke-miterlimit:10;"/></g></g></svg>