<?xml version="1.0" encoding="UTF-8" standalone="no"?><!-- Generator: Gravit.io --><svg xmlns="http://www.w3.org/2000/svg" xmlns:xlink="http://www.w3.org/1999/xlink" style="isolation:isolate" viewBox="0 0 180 130" width="180pt" height="130pt"><defs><clipPath id="_clipPath_53ZbqB973uVQpPQxM1ev7b10sRKcnO7W"><rect width="180" height="130"/></clipPath></defs><g clip-path="url(#_clipPath_53ZbqB973uVQpPQxM1ev7b10sRKcnO7W)"><rect x="-0.945" y="-1.083" width="182.162" height="131.689" transform="matrix(1,0,0,1,0,0)" fill="rgb(34,82,119)" vector-effect="non-scaling-stroke" stroke-width="1.022" stroke="rgb(255,255,255)" stroke-linejoin="miter" stroke-linecap="butt" stroke-miterlimit="2"/><g><linearGradient id="_lgradient_6" x1="0.5222709482318342" y1="0.9945428931470757" x2="0.5183850666282384" y2="0.5395105209189275" gradientTransform="matrix(84.023,0,0,37.991,48.793,69.976)" gradientUnits="userSpaceOnUse"><stop offset="0%" stop-opacity="0.046875" style="stop-color:rgb(0,0,0)"/><stop offset="100%" stop-opacity="0" style="stop-color:rgb(0,0,0)"/></linearGradient><path d=" M 48.793 69.976 L 48.793 73.321 C 48.793 92.515 59.986 107.967 83.165 107.967 L 97.059 107.967 C 127.395 107.967 132.816 85.268 132.816 73.321 L 132.816 69.976 C 132.816 81.923 127.395 104.622 97.059 104.622 L 83.165 104.622 C 59.986 104.622 48.793 89.17 48.793 69.976 Z " fill="url(#_lgradient_6)"/><mask id="_mask_LupuaaPGEJufFlxoJ0WNPcQUQOLSkmu5" x="-200%" y="-200%" width="400%" height="400%"><rect x="-200%" y="-200%" width="400%" height="400%" style="fill:white;"/><path d=" M 82.098 22.909 L 99.128 22.909 C 127.009 22.909 132.816 45.456 132.816 57.555 L 132.816 71.835 C 132.816 83.782 127.395 106.48 97.059 106.48 L 83.166 106.48 C 59.986 106.48 48.793 91.028 48.793 71.835 L 48.793 57.555 C 48.793 38.361 59.759 22.909 82.098 22.909 Z " fill="black" stroke="none"/></mask><path d=" M 82.098 22.909 L 99.128 22.909 C 127.009 22.909 132.816 45.456 132.816 57.555 L 132.816 71.835 C 132.816 83.782 127.395 106.48 97.059 106.48 L 83.166 106.48 C 59.986 106.48 48.793 91.028 48.793 71.835 L 48.793 57.555 C 48.793 38.361 59.759 22.909 82.098 22.909 Z " fill="rgb(13,136,230)" mask="url(#_mask_LupuaaPGEJufFlxoJ0WNPcQUQOLSkmu5)" vector-effect="non-scaling-stroke" stroke-width="0.668" stroke="rgb(0,0,0)" stroke-opacity="0.078125" stroke-linejoin="bevel" stroke-linecap="square" stroke-miterlimit="4"/><path d=" M 82.098 22.909 L 99.128 22.909 C 127.009 22.909 132.816 45.456 132.816 57.555 L 132.816 71.835 C 132.816 83.782 127.395 106.48 97.059 106.48 L 83.166 106.48 C 59.986 106.48 48.793 91.028 48.793 71.835 L 48.793 57.555 C 48.793 38.361 59.759 22.909 82.098 22.909 Z " fill="rgb(13,136,230)"/><path d=" M 90.805 37.14 C 75.571 37.14 63.25 49.463 63.25 64.695 C 63.25 79.926 75.571 92.25 90.805 92.25 C 106.038 92.25 118.36 79.926 118.36 64.695 C 118.36 49.463 106.038 37.14 90.805 37.14 Z  M 84.446 56.216 L 84.446 60.455 L 97.163 60.455 L 97.163 56.216 L 104.735 60.455 L 112.001 64.695 L 104.735 68.934 L 97.163 73.173 L 97.163 68.934 L 84.446 68.934 L 84.446 73.173 L 76.874 68.934 L 69.608 64.695 L 76.874 60.455 L 84.446 56.216 Z " fill="rgb(254,254,254)"/></g></g></svg>