<?xml version="1.0" encoding="UTF-8" standalone="no"?><!-- Generator: Gravit.io --><svg xmlns="http://www.w3.org/2000/svg" xmlns:xlink="http://www.w3.org/1999/xlink" style="isolation:isolate" viewBox="0 0 180 130" width="180pt" height="130pt"><defs><clipPath id="_clipPath_odlGmzQ2GRoHktn3pzfq9S5g7L6Yj2AJ"><rect width="180" height="130"/></clipPath></defs><g clip-path="url(#_clipPath_odlGmzQ2GRoHktn3pzfq9S5g7L6Yj2AJ)"><rect x="-0.945" y="-1.083" width="182.162" height="131.689" transform="matrix(1,0,0,1,0,0)" fill="rgb(38,62,85)" vector-effect="non-scaling-stroke" stroke-width="1.022" stroke="rgb(255,255,255)" stroke-linejoin="miter" stroke-linecap="butt" stroke-miterlimit="2"/><g><g opacity="0.2"><path d=" M 132.507 64.004 C 132.525 64.511 132.584 65.008 132.584 65.52 C 132.584 89.036 113.653 107.967 90.137 107.967 C 66.621 107.967 47.69 89.036 47.69 65.52 C 47.69 65.008 47.749 64.512 47.767 64.004 C 48.567 86.807 67.135 104.935 90.138 104.935 C 113.142 104.935 131.709 86.807 132.509 64.004 L 132.507 64.004 Z " fill="rgb(0,0,0)"/></g><path d="M 47.689 64.004 L 47.689 64.004 C 47.689 40.577 66.709 21.557 90.136 21.557 L 90.136 21.557 C 113.563 21.557 132.583 40.577 132.583 64.004 L 132.583 64.004 C 132.583 87.431 113.563 106.451 90.136 106.451 L 90.136 106.451 C 66.709 106.451 47.689 87.431 47.689 64.004 Z" style="stroke:none;fill:#3D6080;stroke-miterlimit:10;"/><g opacity="0.2"><path d=" M 65.88 38.233 C 62.448 38.243 59.057 38.982 55.932 40.4 C 51.079 47.009 48.103 55.07 47.76 63.844 C 48.346 82.534 60.86 98.097 78.008 103.171 L 78.008 95.881 L 84.593 95.798 C 87.458 95.798 90.124 93.404 90.124 90.551 L 90.124 83.73 L 93.026 83.688 C 95.76 83.652 96.965 82.143 95.69 79.715 L 90.154 70.98 L 90.124 69.298 L 90.124 64.774 C 90.124 64.698 90.118 64.625 90.118 64.549 C 90.142 64.167 90.147 63.782 90.153 63.4 C 90.153 63.252 90.124 63.111 90.118 62.962 C 90.125 62.804 90.131 62.646 90.136 62.488 C 90.136 49.092 79.276 38.233 65.88 38.233 Z " fill="rgb(0,0,0)"/></g><path d=" M 65.88 36.717 C 62.448 36.727 59.057 37.466 55.932 38.884 C 50.77 45.914 47.689 54.576 47.689 64.004 C 47.689 83.299 60.443 99.49 78.008 104.687 L 78.008 94.365 L 84.593 94.282 C 87.458 94.282 90.124 91.888 90.124 89.035 L 90.124 82.214 L 93.026 82.172 C 95.76 82.136 96.965 80.627 95.69 78.199 L 90.154 69.464 L 90.124 67.782 L 90.124 63.258 C 90.124 63.182 90.118 63.109 90.118 63.033 C 90.142 62.651 90.147 62.266 90.153 61.884 C 90.153 61.736 90.124 61.595 90.118 61.446 C 90.125 61.288 90.131 61.13 90.136 60.972 C 90.136 54.539 87.58 48.37 83.032 43.821 C 78.483 39.272 72.313 36.717 65.88 36.717 L 65.88 36.717 Z " fill="rgb(122,155,187)"/><g opacity="0.1"><path d=" M 90.136 21.556 C 66.621 21.556 47.689 40.488 47.689 64.004 C 47.689 64.176 47.706 64.343 47.715 64.513 C 48.248 41.467 66.958 23.072 90.136 23.072 C 113.314 23.072 132.025 41.467 132.557 64.513 C 132.567 64.343 132.584 64.176 132.584 64.004 C 132.584 40.488 113.652 21.556 90.136 21.556 Z " fill="rgb(255,255,255)"/></g><path d="M 61.333 36.716 L 61.333 36.716 C 63.843 36.716 65.881 38.754 65.881 41.264 L 65.881 50.36 C 65.881 52.87 63.843 54.908 61.333 54.908 L 61.333 54.908 C 58.823 54.908 56.785 52.87 56.785 50.36 L 56.785 41.264 C 56.785 38.754 58.823 36.716 61.333 36.716 Z" style="stroke:none;fill:#4C4C4C;stroke-miterlimit:10;"/><circle vector-effect="non-scaling-stroke" cx="88.6204205964912" cy="88.25936125438598" r="4.547965210526314" fill="rgb(76,76,76)"/><mask id="_mask_2Xkd6ar2o9X7pu9qzbAu2LVEbNBtbZ9N" x="-200%" y="-200%" width="400%" height="400%"><rect x="-200%" y="-200%" width="400%" height="400%" style="fill:white;"/><line x1="61.332" y1="62.488" x2="88.62" y2="88.259" fill="black" stroke="none"/></mask><line x1="61.332" y1="62.488" x2="88.62" y2="88.259" mask="url(#_mask_2Xkd6ar2o9X7pu9qzbAu2LVEbNBtbZ9N)" vector-effect="non-scaling-stroke" stroke-width="4" stroke="rgb(76,76,76)" stroke-linejoin="miter" stroke-linecap="butt" stroke-miterlimit="4"/><g opacity="0.2"><path d=" M 71.944 64.004 C 71.944 66.819 70.826 69.518 68.836 71.508 C 66.846 73.498 64.147 74.616 61.332 74.616 C 55.472 74.616 50.721 69.865 50.721 64.004 C 50.721 58.144 55.472 53.393 61.332 53.393 C 64.147 53.393 66.846 54.511 68.836 56.501 C 70.826 58.491 71.944 61.19 71.944 64.004 Z " fill="rgb(0,0,0)"/></g><path d=" M 71.944 62.488 C 71.944 65.303 70.826 68.002 68.836 69.992 C 66.846 71.982 64.147 73.1 61.332 73.1 C 55.472 73.1 50.721 68.349 50.721 62.488 C 50.721 56.628 55.472 51.876 61.332 51.876 C 64.147 51.876 66.846 52.994 68.836 54.985 C 70.826 56.975 71.944 59.674 71.944 62.488 Z " fill="rgb(76,255,131)"/></g></g></svg>