<?xml version="1.0" encoding="UTF-8" standalone="no"?><!-- Generator: Gravit.io --><svg xmlns="http://www.w3.org/2000/svg" xmlns:xlink="http://www.w3.org/1999/xlink" style="isolation:isolate" viewBox="0 0 180 130" width="180pt" height="130pt"><defs><clipPath id="_clipPath_sQS6kOiTRMUmY6T1gwKpzgRpza7e1stE"><rect width="180" height="130"/></clipPath></defs><g clip-path="url(#_clipPath_sQS6kOiTRMUmY6T1gwKpzgRpza7e1stE)"><linearGradient id="_lgradient_7" x1="0" y1="0.5" x2="1" y2="0.5" gradientTransform="matrix(182.162,0,0,131.689,-0.945,-1.083)" gradientUnits="userSpaceOnUse"><stop offset="0%" stop-opacity="1" style="stop-color:rgb(17,85,164)"/><stop offset="99.56521739130434%" stop-opacity="1" style="stop-color:rgb(32,192,248)"/><stop offset="100%" stop-opacity="1" style="stop-color:rgb(0,0,0)"/></linearGradient><rect x="-0.945" y="-1.083" width="182.162" height="131.689" transform="matrix(1,0,0,1,0,0)" fill="url(#_lgradient_7)" vector-effect="non-scaling-stroke" stroke-width="1.022" stroke="rgb(255,255,255)" stroke-linejoin="miter" stroke-linecap="butt" stroke-miterlimit="2"/><g><path d=" M 77.731 24.778 L 66.23 36.135 L 48.979 36.135 L 48.979 53.171 L 37.478 64.528 L 48.979 75.885 L 48.979 92.921 L 66.23 92.921 L 77.731 104.278 L 89.232 92.921 L 106.483 92.921 L 106.483 75.885 L 117.983 64.528 L 106.483 53.171 L 106.483 36.135 L 89.232 36.135 L 77.731 24.778 Z " fill="rgb(255,138,71)"/><ellipse vector-effect="non-scaling-stroke" cx="76.48684540877376" cy="62.93470631570685" rx="21.72026497042141" ry="21.42593249333427" fill="rgb(255,205,46)" stroke-width="1.859" stroke="rgb(255,205,46)" stroke-linejoin="miter" stroke-linecap="butt" stroke-miterlimit="10"/><path d=" M 127.287 71.477 C 125.017 59.993 114.884 51.329 102.732 51.329 C 93.084 51.329 84.721 56.804 80.531 64.8 C 70.499 65.885 62.67 74.381 62.67 84.714 C 62.67 95.781 71.634 104.745 82.701 104.745 L 126.102 104.745 C 135.316 104.745 142.794 97.267 142.794 88.053 C 142.794 79.239 135.934 72.095 127.287 71.477 Z " fill="rgb(255,255,255)"/></g></g></svg>