<?xml version="1.0" encoding="UTF-8" standalone="no"?><!-- Generator: Gravit.io --><svg xmlns="http://www.w3.org/2000/svg" xmlns:xlink="http://www.w3.org/1999/xlink" style="isolation:isolate" viewBox="0 0 180 130" width="180pt" height="130pt"><defs><clipPath id="_clipPath_QvlB6YI5h9nXoMyalCr2WCLweYix4kwz"><rect width="180" height="130"/></clipPath></defs><g clip-path="url(#_clipPath_QvlB6YI5h9nXoMyalCr2WCLweYix4kwz)"><rect x="-0.945" y="-1.083" width="182.162" height="131.689" transform="matrix(1,0,0,1,0,0)" fill="rgb(30,53,64)" vector-effect="non-scaling-stroke" stroke-width="1.022" stroke="rgb(255,255,255)" stroke-linejoin="miter" stroke-linecap="butt" stroke-miterlimit="2"/><g><path d="M 127.614 97.673 L 127.614 29.969 C 127.614 27.893 125.928 26.208 123.852 26.208 L 56.148 26.208 C 54.072 26.208 52.386 27.893 52.386 29.969 L 52.386 97.673 C 52.386 99.749 54.072 101.435 56.148 101.435 L 123.852 101.435 C 125.928 101.435 127.614 99.749 127.614 97.673 Z" style="stroke:none;fill:#345C6E;stroke-miterlimit:10;"/><g opacity="0.1"><path d=" M 52.386 31.85 L 52.386 29.969 C 52.386 27.885 54.064 26.208 56.148 26.208 L 123.852 26.208 C 125.936 26.208 127.614 27.885 127.614 29.969 L 127.614 31.85 C 127.614 29.766 125.936 28.088 123.852 28.088 L 56.148 28.088 C 54.064 28.088 52.386 29.766 52.386 31.85 Z " fill="rgb(255,255,255)"/></g><g opacity="0.2"><path d=" M 52.386 97.673 L 52.386 99.554 C 52.386 101.638 54.064 103.315 56.148 103.315 L 123.852 103.315 C 125.936 103.315 127.614 101.638 127.614 99.554 L 127.614 97.673 C 127.614 99.757 125.936 101.435 123.852 101.435 L 56.148 101.435 C 54.064 101.435 52.386 99.757 52.386 97.673 Z " fill="rgb(0,0,0)"/></g><g opacity="0.2"><path d=" M 67.432 45.014 L 67.432 53.477 L 88.119 66.092 L 67.432 77.926 L 67.432 86.389 L 76.467 92.031 L 112.568 71.269 L 112.568 60.506 L 75.821 39.372 L 67.432 45.014 Z " fill="rgb(0,0,0)"/></g><path d=" M 67.432 43.134 L 67.432 51.597 L 88.119 64.212 L 67.432 76.046 L 67.432 84.509 L 76.467 90.151 L 112.568 69.389 L 112.568 58.625 L 75.821 37.492 L 67.432 43.134 Z " fill="rgb(161,206,234)"/><g opacity="0.2"><path d=" M 75.821 37.492 L 67.432 43.134 L 67.432 45.014 L 75.821 39.372 L 112.568 60.504 L 112.568 58.624 L 75.821 37.492 Z  M 86.529 65.122 L 67.432 76.046 L 67.432 77.926 L 88.119 66.091 L 86.529 65.122 Z " fill="rgb(255,255,255)"/></g></g></g></svg>