<?xml version="1.0" encoding="UTF-8" standalone="no"?><!-- Generator: Gravit.io --><svg xmlns="http://www.w3.org/2000/svg" xmlns:xlink="http://www.w3.org/1999/xlink" style="isolation:isolate" viewBox="0 0 180 130" width="180pt" height="130pt"><defs><clipPath id="_clipPath_OlqBLTtrSZiM0eNPczMZ7dPFclCTinl2"><rect width="180" height="130"/></clipPath></defs><g clip-path="url(#_clipPath_OlqBLTtrSZiM0eNPczMZ7dPFclCTinl2)"><linearGradient id="_lgradient_0" x1="-0.02219571107222748" y1="1.0215894622375683" x2="0.998806998250237" y2="0.02847419930942452" gradientTransform="matrix(182.162,0,0,131.689,-0.945,-1.083)" gradientUnits="userSpaceOnUse"><stop offset="2.1739130434782608%" stop-opacity="1" style="stop-color:rgb(86,170,255)"/><stop offset="100%" stop-opacity="1" style="stop-color:rgb(35,52,87)"/></linearGradient><rect x="-0.945" y="-1.083" width="182.162" height="131.689" transform="matrix(1,0,0,1,0,0)" fill="url(#_lgradient_0)" vector-effect="non-scaling-stroke" stroke-width="1.022" stroke="rgb(255,255,255)" stroke-linejoin="miter" stroke-linecap="butt" stroke-miterlimit="2"/><g><g opacity="0.2"><path d=" M 81.408 22.141 C 74.567 22.324 70 28.803 67.043 34.403 C 66.504 34.689 65.963 34.963 65.426 35.261 C 59.991 38.915 55.54 43.974 52.102 49.51 C 49.078 54.848 47.245 60.786 46.564 66.871 C 46.159 73.04 46.865 79.325 49.188 85.097 C 50.988 90.169 54.158 94.641 58.216 98.114 C 63.603 101.708 68.976 105.4 74.855 105.149 C 72.67 103.886 65.645 99.254 63.933 89.858 C 65.751 93.419 74.576 99.696 77.039 100.78 C 75.815 99.638 73.056 92.59 72.734 88.565 L 55.741 83.356 C 54.356 78.976 53.532 74.446 53.028 69.814 C 52.963 68.78 52.834 67.657 53.207 67.933 C 54.602 70.144 57.142 71.128 59.564 72.383 C 57.268 68.771 57.062 64.346 57.439 60.053 C 57.818 55.745 58.789 51.568 61.458 48.474 C 61.619 48.29 61.802 48.118 61.966 47.936 C 62.062 48.869 62.182 49.798 62.29 50.701 C 62.252 51.53 63.072 53.273 62.674 53.448 C 61.871 55.874 61.108 59.002 63.028 61.119 C 63.636 58.378 66.938 57.059 69.296 55.906 C 71.961 54.749 74.119 52.996 76.758 51.78 C 80.235 49.785 83.593 52.723 88.06 52.723 C 92.33 52.723 96.842 50.255 101.068 48.354 C 102.051 49.372 103.81 51.025 104.579 52.232 L 104.571 52.232 C 106.773 55.755 109.236 59.848 109.737 63.867 C 110.363 69.124 108.558 74.951 105.45 78.932 C 105.449 78.932 105.424 78.94 105.424 78.94 C 105.424 78.94 105.445 78.94 105.445 78.94 C 105.509 78.949 110.456 78.097 114.175 74.567 C 111.521 95.082 98.955 106.653 92.33 109.518 C 101.148 110.111 107.609 105.149 107.621 105.149 C 107.633 105.149 106.397 107.639 103.252 109.518 C 109.015 107.905 112.279 107.367 115.915 104.714 C 115.914 104.714 118.87 103.106 121.952 99.59 C 122.362 99.122 123.066 98.472 123.488 97.939 C 123.751 97.608 123.995 97.269 124.252 96.936 C 124.297 96.882 124.349 96.83 124.393 96.774 C 130.881 88.837 134.039 78.97 133.804 70.028 C 133.85 59.188 129.45 49.776 122.059 41.997 C 116.714 36.371 110.643 32.929 105.176 31.067 C 99.078 29.315 91.762 28.442 85.854 28.985 C 84.909 29.012 84.257 29.049 82.872 29.168 C 82.674 28.618 83.005 26.928 83.593 26.51 C 82.281 26.633 81.073 28.316 79.953 29.518 C 79.731 29.559 79.538 29.608 79.335 29.654 C 80.354 27.888 81.402 25.906 82.616 24.326 C 78.826 25.033 77.172 28.018 75.32 30.764 C 74.74 30.955 74.178 31.184 73.609 31.399 C 74.968 27.328 77.647 25.252 81.408 22.141 Z " fill="rgb(0,0,0)"/></g><path d=" M 60.276 91.513 C 64.07 96.969 69.264 102.102 74.855 102.964 C 72.67 101.7 65.645 97.069 63.933 87.673 C 65.751 91.234 74.576 97.511 77.039 98.595 C 75.815 97.452 73.056 90.404 72.734 86.38 L 55.685 81.152 C 55.783 81.301 56.132 85.683 60.276 91.513 Z " fill="rgb(48,71,118)"/><g opacity="0.2"><path d=" M 116.359 54.907 L 87.961 44.948 L 57.528 46.976 L 49.761 56.669 C 51.143 65.629 50.285 75.328 55.098 83.156 L 105.437 98.595 L 116.313 79.516 L 116.359 54.907 Z " fill="rgb(0,0,0)"/></g><path d=" M 116.359 52.722 L 87.961 42.763 L 57.528 44.791 L 49.761 54.484 C 51.143 63.444 50.285 73.144 55.098 80.972 L 105.437 96.411 L 116.313 77.332 L 116.359 52.722 Z " fill="rgb(235,235,235)"/><g opacity="0.2"><path d=" M 114.049 60.368 L 109.836 46.528 L 58.304 46.01 L 58.011 46.37 L 57.528 46.976 L 77.039 74.566 L 114.049 60.368 Z " fill="rgb(0,0,0)"/></g><path d=" M 58.257 44.209 L 63.384 44.941 L 64.792 38.08 L 61.976 39.452 L 58.257 44.209 Z " fill-rule="evenodd" fill="rgb(63,125,167)"/><path d=" M 114.049 58.183 L 109.836 44.343 L 58.304 43.826 L 58.011 44.186 L 57.528 44.791 L 77.039 72.382 L 114.049 58.183 Z " fill="rgb(247,247,247)"/><path d=" M 87.85 26.727 C 87.845 26.728 81.371 26.758 78.545 27.665 C 73.836 28.752 69.612 30.755 65.426 33.075 C 59.991 36.729 55.54 41.789 52.102 47.325 C 49.078 52.663 47.245 58.601 46.564 64.685 C 46.159 70.854 46.865 77.14 49.188 82.911 C 50.988 87.984 54.158 92.456 58.216 95.928 C 63.603 99.523 68.976 103.214 74.855 102.964 C 69.264 102.102 64.07 96.969 60.276 91.513 C 56.132 85.683 55.784 81.303 55.686 81.154 L 55.741 81.171 C 54.356 76.791 53.532 72.261 53.028 67.629 C 52.963 66.594 52.834 65.472 53.207 65.748 C 54.602 67.958 57.142 68.942 59.564 70.197 C 57.268 66.586 57.062 62.161 57.439 57.867 C 57.818 53.56 58.789 49.383 61.458 46.288 C 68.452 38.282 78.656 31.805 87.85 26.727 Z  M 74.855 102.964 C 74.581 102.716 74.293 102.556 73.997 102.435 C 74.319 102.641 74.627 102.832 74.855 102.964 Z " fill="rgb(47,103,164)"/><path d=" M 81.408 19.956 C 74.009 20.153 69.248 27.73 66.332 33.578 C 65.282 35.437 63.881 37.643 62.963 39.398 C 61.207 42.165 61.926 45.488 62.29 48.515 C 62.251 49.344 63.072 51.086 62.674 51.261 C 61.871 53.687 61.106 56.817 63.026 58.934 C 63.634 56.193 66.938 54.872 69.296 53.719 C 71.961 52.562 74.118 50.809 76.757 49.593 C 80.235 47.598 83.593 50.538 88.06 50.538 C 92.33 50.538 96.842 48.069 101.068 46.169 C 102.051 47.186 103.811 48.839 104.58 50.046 L 104.569 50.046 C 106.772 53.569 109.234 57.664 109.736 61.684 C 110.362 66.941 108.558 72.767 105.449 76.748 C 105.449 76.748 105.424 76.753 105.424 76.753 C 105.424 76.753 105.446 76.753 105.446 76.753 C 105.51 76.762 110.456 75.911 114.174 72.382 C 111.521 92.897 98.954 104.468 92.33 107.333 C 101.148 107.926 107.609 102.964 107.621 102.964 C 107.633 102.964 106.397 105.453 103.252 107.333 C 109.015 105.719 112.279 105.182 115.915 102.529 C 115.913 102.529 118.87 100.921 121.952 97.404 C 122.362 96.937 123.067 96.288 123.489 95.755 C 123.751 95.424 123.994 95.084 124.251 94.751 C 124.296 94.697 124.347 94.645 124.391 94.589 C 130.879 86.652 134.038 76.784 133.804 67.842 C 133.85 57.002 129.45 47.592 122.059 39.813 C 116.714 34.187 110.644 30.745 105.178 28.883 C 98.095 26.849 89.356 25.982 83.105 27.164 C 82.513 27.362 82.862 24.844 83.593 24.325 C 81.84 24.489 80.272 27.44 78.852 28.304 C 80.018 26.373 81.215 23.965 82.617 22.14 C 77.405 23.113 76.231 28.399 73.027 31.437 C 74.082 25.793 77.016 23.589 81.408 19.956 L 81.408 19.956 Z " fill="rgb(74,150,225)"/><path d=" M 67.021 50.538 C 76.73 50.258 70.634 44.241 83.593 33.062 C 73.035 38.529 62.987 38.521 67.034 50.538 L 67.021 50.538 L 67.021 50.538 Z " fill="rgb(66,113,163)"/><path d=" M 72.247 46.867 C 71.549 48.142 69.919 48.656 69.018 48.176 C 68.097 47.696 68.102 46.091 68.815 44.816 C 69.503 43.54 72.544 44.112 72.559 44.112 C 72.573 44.112 72.945 45.596 72.247 46.867 L 72.247 46.867 Z " fill="rgb(255,255,255)"/><path d=" M 68.033 54.252 C 68.033 54.252 68.594 53.711 68.302 52.722 C 64.808 53.877 62.78 50.533 62.792 50.533 C 62.804 50.533 60.484 56.819 63.004 59.275 C 63.275 56.704 67.903 54.387 67.916 54.387" fill="rgb(92,95,96)"/><g opacity="0.1"><path d=" M 81.408 19.956 C 80.968 19.968 80.541 20.009 80.12 20.071 C 79.927 20.099 79.741 20.144 79.552 20.182 C 79.319 20.229 79.084 20.274 78.857 20.336 C 78.661 20.389 78.472 20.456 78.281 20.519 C 78.079 20.586 77.876 20.65 77.679 20.728 C 77.476 20.808 77.28 20.902 77.082 20.993 C 76.893 21.079 76.704 21.165 76.519 21.261 C 76.357 21.346 76.199 21.435 76.041 21.526 C 75.822 21.652 75.605 21.783 75.392 21.923 C 75.246 22.018 75.101 22.116 74.957 22.217 C 74.805 22.324 74.658 22.437 74.509 22.55 C 74.156 22.819 73.829 23.129 73.494 23.429 C 73.149 23.738 72.804 24.044 72.478 24.38 C 72.18 24.688 71.895 25.009 71.612 25.336 C 71.329 25.664 71.049 25.99 70.78 26.334 C 70.478 26.72 70.193 27.111 69.91 27.512 C 69.703 27.805 69.497 28.092 69.3 28.391 C 68.985 28.868 68.686 29.341 68.395 29.824 C 68.275 30.026 68.158 30.224 68.041 30.426 C 67.691 31.029 67.36 31.621 67.047 32.213 C 67.046 32.215 67.044 32.216 67.043 32.218 C 66.504 32.503 65.963 32.778 65.426 33.075 C 59.991 36.729 55.54 41.789 52.102 47.325 C 49.078 52.663 47.245 58.601 46.564 64.685 C 46.47 66.124 46.442 67.568 46.474 69.011 C 46.491 68.296 46.517 67.583 46.564 66.87 C 47.245 60.785 49.078 54.847 52.102 49.509 C 55.509 44.023 59.913 39.008 65.281 35.362 C 64.454 36.754 63.604 38.174 62.964 39.398 C 61.914 41.053 61.782 42.911 61.898 44.782 C 62.018 43.67 62.326 42.589 62.964 41.582 C 63.882 39.827 65.28 37.622 66.33 35.763 C 66.689 35.044 67.139 34.277 67.555 33.523 C 68.006 32.705 68.463 31.883 68.984 31.066 C 69.091 30.899 69.194 30.732 69.304 30.566 C 69.534 30.219 69.773 29.878 70.017 29.538 C 70.228 29.244 70.444 28.954 70.665 28.668 C 70.877 28.393 71.096 28.123 71.318 27.857 C 71.59 27.533 71.872 27.222 72.158 26.914 C 72.368 26.689 72.577 26.463 72.794 26.249 C 73.119 25.929 73.461 25.632 73.805 25.34 C 74.008 25.168 74.206 24.99 74.415 24.828 C 74.831 24.507 75.266 24.221 75.708 23.949 C 75.865 23.853 76.013 23.74 76.173 23.651 C 76.79 23.305 77.43 23.005 78.097 22.772 C 78.099 22.77 78.1 22.769 78.102 22.767 C 78.122 22.76 78.141 22.749 78.161 22.742 C 79.141 21.853 80.197 20.958 81.408 19.956 Z  M 82.616 22.14 C 82.221 22.214 81.853 22.322 81.506 22.447 C 81.169 22.569 80.851 22.706 80.546 22.861 C 80.536 22.87 80.531 22.879 80.521 22.887 C 80.466 22.932 80.425 22.97 80.371 23.015 C 79.299 23.902 78.276 24.758 77.415 25.592 C 76.663 26.551 75.981 27.579 75.286 28.591 C 75.13 28.644 74.979 28.706 74.825 28.762 C 74.533 29.245 74.278 29.768 74.04 30.315 C 74.03 30.327 74.02 30.341 74.01 30.353 C 73.953 30.486 73.91 30.639 73.857 30.776 C 73.775 30.984 73.683 31.178 73.609 31.398 C 73.616 31.396 73.623 31.393 73.63 31.39 C 73.394 32.076 73.183 32.798 73.029 33.621 C 73.903 32.793 74.621 31.792 75.316 30.763 C 75.316 30.762 75.32 30.763 75.32 30.763 C 75.7 30.199 76.074 29.629 76.459 29.069 C 76.832 28.528 77.219 28.002 77.632 27.503 C 77.667 27.461 77.704 27.421 77.739 27.379 C 78.114 26.937 78.518 26.523 78.955 26.146 C 79.042 26.071 79.126 25.992 79.215 25.92 C 79.407 25.768 79.602 25.622 79.808 25.485 C 79.934 25.401 80.073 25.332 80.205 25.255 C 80.397 25.144 80.584 25.026 80.79 24.93 C 80.796 24.919 80.804 24.908 80.811 24.896 C 80.814 24.895 80.817 24.893 80.82 24.892 C 81.388 23.922 81.979 22.969 82.616 22.14 Z  M 83.593 24.325 C 83.331 24.349 83.073 24.447 82.82 24.589 C 82.649 24.685 82.48 24.821 82.313 24.952 C 82.242 25.007 82.17 25.046 82.099 25.105 C 82.098 25.107 82.096 25.108 82.095 25.11 C 82.078 25.124 82.061 25.133 82.044 25.148 C 81.719 25.623 81.421 26.146 81.114 26.654 C 80.893 27.011 80.67 27.354 80.457 27.716 C 80.148 28.251 79.858 28.751 79.561 29.269 C 79.487 29.399 79.408 29.527 79.335 29.653 C 79.175 29.928 79.01 30.229 78.852 30.49 C 79.207 30.274 79.575 29.916 79.949 29.517 C 79.95 29.516 79.953 29.518 79.953 29.517 C 80.212 29.239 80.487 28.932 80.755 28.629 C 80.774 28.609 80.792 28.59 80.811 28.57 C 81.065 28.284 81.324 28.008 81.587 27.746 C 81.679 27.656 81.772 27.57 81.865 27.486 C 82.167 27.209 82.472 26.965 82.786 26.795 C 82.802 26.786 82.817 26.769 82.833 26.761 C 82.838 26.758 82.845 26.755 82.85 26.752 C 82.793 26.31 82.914 25.585 83.145 25.02 C 83.179 24.935 83.203 24.839 83.243 24.764 C 83.344 24.572 83.462 24.418 83.593 24.325 Z  M 88.196 26.65 C 87.392 26.674 86.616 26.729 85.854 26.799 C 85.765 26.807 85.669 26.807 85.581 26.816 C 84.86 26.842 84.202 26.88 83.255 26.957 C 83.226 27.012 83.219 27.093 83.191 27.153 C 83.176 27.156 83.16 27.159 83.145 27.162 C 83.021 27.449 82.942 27.778 82.884 28.1 C 82.869 28.187 82.86 28.26 82.85 28.344 C 82.833 28.484 82.816 28.614 82.816 28.736 C 82.816 28.743 82.82 28.746 82.82 28.753 C 82.823 29.14 82.901 29.419 83.106 29.351 C 83.884 29.203 84.7 29.086 85.547 29.001 C 85.551 29.001 85.556 29.001 85.56 29.001 C 85.655 28.991 85.758 28.992 85.854 28.984 C 87.172 28.863 88.568 28.825 89.997 28.839 C 90.197 28.841 90.392 28.834 90.594 28.839 C 91.073 28.849 91.562 28.878 92.049 28.903 C 92.495 28.925 92.938 28.945 93.388 28.979 C 93.766 29.008 94.144 29.046 94.523 29.082 C 94.965 29.124 95.408 29.174 95.85 29.227 C 97.283 29.396 98.715 29.615 100.125 29.884 C 100.379 29.932 100.628 29.986 100.88 30.037 C 102.278 30.322 103.653 30.643 104.968 31.014 C 105.036 31.034 105.109 31.05 105.177 31.07 C 107.227 31.768 109.363 32.686 111.512 33.86 C 112.946 34.643 114.383 35.539 115.809 36.557 C 117.947 38.084 120.055 39.887 122.059 41.996 C 129.292 49.609 133.63 58.795 133.77 69.344 C 133.778 68.844 133.817 68.337 133.805 67.842 C 133.85 57.002 129.45 47.591 122.059 39.812 C 116.714 34.186 110.643 30.744 105.176 28.881 C 103.948 28.529 102.668 28.22 101.362 27.943 C 100.83 27.829 100.29 27.744 99.75 27.644 C 98.962 27.499 98.179 27.357 97.382 27.243 C 96.769 27.154 96.165 27.091 95.551 27.021 C 94.794 26.936 94.046 26.858 93.294 26.803 C 92.678 26.758 92.076 26.725 91.468 26.701 C 91.151 26.689 90.823 26.656 90.508 26.65 C 89.919 26.638 89.346 26.649 88.772 26.658 C 88.584 26.661 88.382 26.644 88.196 26.65 L 88.196 26.65 Z " fill="rgb(255,255,255)"/></g></g></g></svg>