<?xml version="1.0" encoding="UTF-8" standalone="no"?><!-- Generator: Gravit.io --><svg xmlns="http://www.w3.org/2000/svg" xmlns:xlink="http://www.w3.org/1999/xlink" style="isolation:isolate" viewBox="0 0 180 130" width="180pt" height="130pt"><defs><clipPath id="_clipPath_BaZzVWA6zQnGoBRWRsZMmN4BIewr0SiC"><rect width="180" height="130"/></clipPath></defs><g clip-path="url(#_clipPath_BaZzVWA6zQnGoBRWRsZMmN4BIewr0SiC)"><linearGradient id="_lgradient_3" x1="0" y1="0.5" x2="1.1971244138759847" y2="0.5095708550548136" gradientTransform="matrix(182.162,0,0,131.689,-0.945,-1.083)" gradientUnits="userSpaceOnUse"><stop offset="0%" stop-opacity="1" style="stop-color:rgb(65,51,102)"/><stop offset="98.26086956521739%" stop-opacity="1" style="stop-color:rgb(31,148,132)"/></linearGradient><rect x="-0.945" y="-1.083" width="182.162" height="131.689" transform="matrix(1,0,0,1,0,0)" fill="url(#_lgradient_3)" vector-effect="non-scaling-stroke" stroke-width="1.022" stroke="rgb(255,255,255)" stroke-linejoin="miter" stroke-linecap="butt" stroke-miterlimit="2"/><g><g><path d=" M 82.521 36.838 C 80.871 41.144 80.577 44.903 76.353 47.508 C 65.521 52.75 57.152 64.576 57.136 77.454 C 57.136 95.68 71.91 110.454 90.136 110.454 L 90.136 102.838 C 76.116 102.838 64.752 91.474 64.752 77.454 C 64.752 63.434 76.116 52.069 90.136 52.069 L 90.136 39.377 C 87.05 39.141 84.755 38.146 82.521 36.838 Z " fill="rgb(253,252,223)"/><linearGradient id="_lgradient_4" x1="1.0353845384615386" y1="0.7793448965517242" x2="0.22094599019430516" y2="-0.0560163313064721" gradientTransform="matrix(33,0,0,73.615,90.136,36.838)" gradientUnits="userSpaceOnUse"><stop offset="0%" stop-opacity="1" style="stop-color:rgb(57,37,83)"/><stop offset="100%" stop-opacity="1" style="stop-color:rgb(139,108,177)"/></linearGradient><path d=" M 97.752 36.838 C 95.764 37.907 92.746 39.57 90.136 39.377 L 90.136 110.454 C 108.362 110.454 123.136 95.679 123.136 77.454 C 123.12 64.471 115.492 52.704 103.647 47.389 C 100.398 45.196 98.227 41.297 97.752 36.839" fill="url(#_lgradient_4)"/><g><path d=" M 81.069 19.069 C 81.023 19.209 80.98 19.348 80.947 19.468 Q 76.99 32.559 89.261 36.838 C 91.654 30.15 89.139 24.377 81.686 19.468 C 81.508 19.348 81.29 19.209 81.066 19.069" fill="rgb(120,175,82)"/><path d=" M 92.776 36.838 C 92.144 31.711 94.66 28.307 100.298 26.685 C 99.684 32.328 97.181 35.706 92.776 36.838 Z " fill="rgb(120,175,82)"/></g><g><path d=" M 90.136 52.069 C 76.117 52.069 64.752 63.434 64.752 77.454 C 64.752 91.473 76.117 102.838 90.136 102.838 L 90.136 95.223 C 80.323 95.223 72.367 87.268 72.367 77.454 C 72.367 67.64 80.323 59.685 90.136 59.685 L 90.136 52.069 Z " fill="rgb(234,234,206)"/><path d=" M 90.136 59.685 C 80.323 59.685 72.367 67.64 72.367 77.454 C 72.367 87.268 80.323 95.223 90.136 95.223 L 90.136 87.608 C 84.529 87.608 79.983 83.062 79.983 77.454 C 79.983 71.846 84.529 67.3 90.136 67.3 L 90.136 59.685 Z " fill="rgb(209,209,184)"/><path d=" M 90.136 67.3 C 84.529 67.3 79.983 71.846 79.983 77.454 C 79.983 83.062 84.529 87.608 90.136 87.608 L 90.136 67.3 Z " fill="rgb(191,191,169)"/></g></g></g></g></svg>