<?xml version="1.0" encoding="UTF-8" standalone="no"?><!-- Generator: Gravit.io --><svg xmlns="http://www.w3.org/2000/svg" xmlns:xlink="http://www.w3.org/1999/xlink" style="isolation:isolate" viewBox="0 0 180 130" width="180pt" height="130pt"><defs><clipPath id="_clipPath_z6jiNegPCmqUFyFFKsv238MlNBsu3BEv"><rect width="180" height="130"/></clipPath></defs><g clip-path="url(#_clipPath_z6jiNegPCmqUFyFFKsv238MlNBsu3BEv)"><rect x="-0.945" y="-1.083" width="182.162" height="131.689" transform="matrix(1,0,0,1,0,0)" fill="rgb(247,136,52)" vector-effect="non-scaling-stroke" stroke-width="1.022" stroke="rgb(255,255,255)" stroke-linejoin="miter" stroke-linecap="butt" stroke-miterlimit="2"/><g><path d=" M 128.717 60.512 C 127.548 51.352 122.894 42.995 115.724 37.177 C 114.265 37.723 112.717 38.071 111.079 38.071 C 105.433 38.071 100.577 34.506 98.588 29.534 C 96.781 29.249 94.955 29.102 93.126 29.095 C 88.341 29.095 83.605 30.052 79.195 31.909 L 86.024 43.743 C 88.311 42.969 90.709 42.568 93.124 42.558 C 103.78 42.568 112.96 50.07 115.091 60.511 L 128.713 60.511 L 128.717 60.512 Z  M 128.708 69.488 L 115.112 69.488 C 112.98 79.935 103.79 87.439 93.128 87.441 C 90.713 87.434 88.316 87.037 86.027 86.266 L 79.216 98.065 C 83.617 99.928 88.346 100.894 93.125 100.906 C 94.961 100.889 96.793 100.731 98.605 100.434 C 100.598 95.48 105.445 91.929 111.077 91.929 C 112.72 91.929 114.279 92.274 115.741 92.824 C 122.901 87.001 127.544 78.645 128.707 69.49 L 128.708 69.488 Z  M 120.055 24.607 C 120.055 19.65 116.036 15.631 111.079 15.631 C 106.121 15.631 102.102 19.65 102.102 24.607 C 102.102 29.564 106.121 33.583 111.079 33.583 C 116.036 33.583 120.055 29.564 120.055 24.607 Z  M 120.055 105.393 C 120.055 100.436 116.036 96.417 111.079 96.417 C 106.121 96.417 102.102 100.436 102.102 105.393 C 102.102 110.35 106.121 114.369 111.079 114.369 C 116.036 114.369 120.055 110.35 120.055 105.393 Z  M 78.262 48.232 L 71.449 36.432 C 64.964 41.357 60.346 48.34 58.352 56.235 C 60.412 58.603 61.71 61.649 61.71 65 C 61.71 68.348 60.416 71.391 58.361 73.758 C 60.345 81.66 64.957 88.652 71.44 93.586 L 78.262 81.778 C 73.454 77.526 70.696 71.42 70.686 65.001 C 70.698 58.586 73.456 52.483 78.262 48.234 L 78.262 48.232 Z  M 57.221 65 C 57.221 60.043 53.203 56.024 48.245 56.024 C 43.288 56.024 39.269 60.043 39.269 65 C 39.269 69.957 43.288 73.976 48.245 73.976 C 53.203 73.976 57.221 69.957 57.221 65 Z " fill="rgb(215,61,0)" fill-opacity="0.49"/></g><g><path d=" M 86.179 61.359 L 81.27 67.029 L 77.486 70.76 L 73.272 73.623 L 68.206 76.324 L 62.336 78.534 L 58.659 79.402 L 58.501 79.886 L 58.713 81.183 L 59.567 83.346 L 61.378 86.912 L 63.139 89.554 L 66.553 93.176 L 68.098 94.741 L 69.484 95.232 L 75.775 95.173 L 72.044 97.765 L 71.99 98.417 L 74.23 100.199 L 77.27 101.98 C 81.199 104.199 84.738 99.813 84.738 99.813 C 84.738 99.813 82.833 103.137 82.95 104.308 L 86.685 104.308 L 88.658 103.985 L 90.898 102.849 L 90.149 104.036 L 94.208 104.087 C 98.491 103.985 101.322 101.479 103.858 98.795 L 106.523 95.606 L 108.605 92.421 L 110.149 89.503 L 112.605 83.723 L 114.471 79.024 L 115.378 76.535 L 114.494 76.535 L 107.751 75.745 C 102.336 74.192 99.419 70.144 94.401 67.047 L 90.241 64.452 L 86.936 62.455 L 86.457 61.751 L 86.36 61.476 L 86.179 61.358 L 86.179 61.359 Z " fill="rgb(254,210,76)"/><path d=" M 116.451 25.888 L 112.53 33.376 L 109.139 41.014 L 104.99 49.346 L 102.123 56.199 L 98.937 54.842 L 94.349 52.838 L 93.226 52.838 L 92.269 53.11 L 90.724 55.165 L 86.244 61.158 L 86.455 61.752 L 86.934 62.457 L 90.24 64.455 L 94.401 67.047 C 99.419 70.144 102.335 74.191 107.75 75.744 L 114.491 76.539 L 115.625 76.539 L 115.699 76.238 L 116.68 70.124 L 117.483 65.182 L 117.563 64.125 L 116.976 63.017 L 113.027 61.181 L 110.735 60.182 L 109.333 59.27 L 109.174 59.201 L 109.362 58.895 L 111.704 53.012 L 113.813 47.816 L 116.452 40.789 L 118.492 35.818 L 120.225 31.39 L 121.648 27.099 C 122.499 23.893 118.755 22.159 116.451 25.887 L 116.451 25.888 Z " fill="rgb(194,53,42)"/><g opacity="0.2"><path d=" M 86.179 61.357 L 86.179 61.36 L 81.269 67.028 L 77.486 70.76 L 73.273 73.622 L 68.207 76.324 L 62.337 78.535 L 58.66 79.403 L 58.5 79.886 L 58.658 80.847 L 58.66 80.841 L 62.337 79.973 L 68.207 77.763 L 73.273 75.061 L 77.486 72.199 L 81.27 68.467 L 86.179 62.799 L 86.179 62.796 L 86.362 62.914 L 86.457 63.189 L 86.937 63.894 L 90.243 65.891 L 94.403 68.486 C 99.421 71.583 102.337 75.631 107.752 77.184 L 114.496 77.974 L 114.855 77.974 L 115.38 76.536 L 114.494 76.536 L 107.752 75.746 C 102.338 74.192 99.42 70.144 94.403 67.048 L 90.242 64.452 L 86.936 62.456 L 86.456 61.75 L 86.361 61.475 L 86.179 61.357 Z  M 75.775 96.611 L 73.677 96.631 L 72.046 97.766 L 71.989 98.417 L 72.543 98.858 L 75.775 96.611 Z  M 84.738 101.251 C 84.738 101.251 84.247 101.859 83.432 102.507 C 83.143 103.211 82.91 103.897 82.951 104.308 L 83.28 104.308 C 83.795 102.918 84.738 101.25 84.738 101.25 L 84.738 101.251 Z  M 119.332 23.786 C 118.381 23.858 117.314 24.489 116.45 25.887 L 116.453 25.887 L 112.529 33.374 L 109.139 41.014 L 104.991 49.344 L 102.124 56.197 L 98.939 54.84 L 94.349 52.838 L 93.226 52.838 L 92.268 53.11 L 90.724 55.163 L 86.244 61.157 L 86.457 61.752 L 86.654 62.044 L 90.724 56.601 L 92.268 54.545 L 93.226 54.276 L 94.35 54.276 L 98.939 56.278 L 102.124 57.635 L 104.991 50.782 L 109.14 42.452 L 112.53 34.812 L 116.453 27.324 L 116.45 27.324 C 118.323 24.294 121.148 24.871 121.685 26.913 C 122.092 25.008 120.868 23.667 119.333 23.784 L 119.332 23.786 Z  M 109.69 59.503 L 109.361 60.331 L 109.173 60.638 L 109.333 60.708 L 110.735 61.621 L 113.027 62.618 L 116.975 64.454 L 117.456 65.362 L 117.484 65.182 L 117.562 64.126 L 116.975 63.016 L 113.027 61.18 L 110.735 60.183 L 109.69 59.503 Z " fill="rgb(255,255,255)"/></g><g opacity="0.2"><path d=" M 114.854 77.973 L 114.469 79.024 L 112.604 83.723 L 110.149 89.503 L 108.605 92.421 L 106.523 95.606 L 103.858 98.796 C 101.322 101.48 98.491 103.985 94.208 104.088 L 90.149 104.037 L 90.896 102.849 L 88.658 103.987 L 86.684 104.307 L 83.28 104.307 C 83.069 104.876 82.918 105.405 82.952 105.746 L 86.685 105.746 L 88.659 105.423 L 90.897 104.286 L 90.15 105.474 L 94.209 105.524 C 98.492 105.422 101.323 102.917 103.859 100.233 L 106.525 97.042 L 108.606 93.857 L 110.15 90.939 L 112.605 85.159 L 114.47 80.46 L 115.38 77.972 L 114.854 77.973 Z  M 58.657 80.846 L 58.5 81.324 L 58.713 82.621 L 59.567 84.784 L 61.379 88.351 L 63.14 90.994 L 66.552 94.614 L 68.097 96.179 L 69.484 96.67 L 73.677 96.631 L 75.776 95.173 L 69.484 95.232 L 68.097 94.741 L 66.552 93.176 L 63.14 89.556 L 61.379 86.913 L 59.567 83.346 L 58.713 81.183 L 58.657 80.846 Z  M 72.542 98.857 L 72.045 99.203 L 71.989 99.854 L 74.23 101.635 L 77.269 103.419 C 79.738 104.813 82.052 103.6 83.431 102.506 C 83.963 101.204 84.737 99.812 84.737 99.812 C 84.737 99.812 81.198 104.199 77.269 101.981 L 74.231 100.199 L 72.542 98.857 Z  M 121.683 26.915 C 121.67 26.977 121.666 27.035 121.65 27.098 L 120.226 31.39 L 118.493 35.819 L 116.454 40.79 L 113.813 47.814 L 111.704 53.013 L 109.362 58.894 L 109.174 59.2 L 109.334 59.271 L 109.69 59.504 L 111.704 54.451 L 113.814 49.255 L 116.454 42.228 L 118.493 37.257 L 120.226 32.827 L 121.65 28.536 C 121.809 27.935 121.807 27.387 121.683 26.915 L 121.683 26.915 Z  M 86.655 62.046 L 86.245 62.596 L 86.458 63.192 L 86.936 63.897 L 90.241 65.894 L 94.401 68.486 C 99.419 71.583 102.336 75.631 107.75 77.184 L 114.493 77.975 L 115.625 77.975 L 115.701 77.677 L 116.681 71.563 L 117.484 66.62 L 117.563 65.564 L 117.456 65.362 L 116.681 70.122 L 115.701 76.237 L 115.625 76.537 L 114.493 76.537 L 107.749 75.745 C 102.335 74.192 99.418 70.144 94.4 67.047 L 90.24 64.455 L 86.935 62.458 L 86.655 62.046 Z " fill="rgb(0,0,0)"/></g></g></g></svg>