<?xml version="1.0" encoding="UTF-8" standalone="no"?><!-- Generator: Gravit.io --><svg xmlns="http://www.w3.org/2000/svg" xmlns:xlink="http://www.w3.org/1999/xlink" style="isolation:isolate" viewBox="0 0 180 130" width="180pt" height="130pt"><defs><clipPath id="_clipPath_tzYtQyHUsyLVhD3x9u6VqkJKmg4hWe3Y"><rect width="180" height="130"/></clipPath></defs><g clip-path="url(#_clipPath_tzYtQyHUsyLVhD3x9u6VqkJKmg4hWe3Y)"><rect x="-0.945" y="-1.083" width="182.162" height="131.689" transform="matrix(1,0,0,1,0,0)" fill="rgb(72,117,30)" vector-effect="non-scaling-stroke" stroke-width="1.022" stroke="rgb(255,255,255)" stroke-linejoin="miter" stroke-linecap="butt" stroke-miterlimit="2"/><g><path d=" M 133.409 64.829 C 133.409 88.728 114.035 108.102 90.136 108.102 C 66.237 108.102 46.863 88.728 46.863 64.829 C 46.863 40.93 66.237 21.556 90.136 21.556 C 114.035 21.556 133.409 40.93 133.409 64.829 Z " fill="rgb(126,198,57)"/><g opacity="0.2"><path d=" M 133.382 65.614 C 132.954 89.195 113.722 108.091 90.136 108.102 C 66.563 108.084 47.34 89.201 46.903 65.632 C 46.888 65.879 46.874 66.127 46.863 66.374 C 46.863 90.273 66.237 109.647 90.136 109.647 C 114.035 109.647 133.409 90.273 133.409 66.374 C 133.403 66.121 133.393 65.867 133.382 65.614 L 133.382 65.614 Z " fill="rgb(0,0,0)"/></g><path d=" M 114.647 61.738 C 113.842 55.43 110.637 49.674 105.699 45.668 C 104.695 46.043 103.628 46.283 102.5 46.283 C 98.612 46.283 95.267 43.828 93.898 40.403 C 92.654 40.207 91.396 40.106 90.136 40.101 C 86.841 40.102 83.579 40.761 80.542 42.039 L 85.245 50.189 C 86.82 49.656 88.472 49.38 90.135 49.373 C 97.474 49.38 103.796 54.547 105.263 61.737 L 114.645 61.737 L 114.647 61.738 Z  M 114.641 67.92 L 105.278 67.92 C 103.809 75.115 97.481 80.283 90.137 80.283 C 88.474 80.279 86.823 80.005 85.247 79.474 L 80.557 87.6 C 83.588 88.883 86.844 89.549 90.135 89.557 C 91.4 89.545 92.662 89.437 93.909 89.232 C 95.282 85.82 98.62 83.375 102.499 83.375 C 103.631 83.375 104.704 83.612 105.711 83.991 C 110.642 79.981 113.84 74.226 114.641 67.921 L 114.641 67.92 Z  M 108.682 37.01 C 108.682 33.596 105.914 30.829 102.5 30.829 C 99.086 30.829 96.318 33.596 96.318 37.01 C 96.318 40.425 99.086 43.192 102.5 43.192 C 105.914 43.192 108.682 40.425 108.682 37.01 Z  M 108.682 92.647 C 108.682 89.233 105.914 86.465 102.5 86.465 C 99.086 86.465 96.318 89.233 96.318 92.647 C 96.318 96.061 99.086 98.829 102.5 98.829 C 105.914 98.829 108.682 96.061 108.682 92.647 Z  M 79.899 53.281 L 75.207 45.154 C 70.741 48.546 67.561 53.355 66.188 58.792 C 67.607 60.423 68.5 62.521 68.5 64.829 C 68.5 67.135 67.609 69.23 66.194 70.86 C 67.56 76.302 70.736 81.118 75.201 84.516 L 79.899 76.384 C 76.588 73.456 74.689 69.25 74.682 64.83 C 74.691 60.412 76.59 56.209 79.899 53.282 L 79.899 53.281 Z  M 65.409 64.829 C 65.409 61.415 62.641 58.647 59.227 58.647 C 55.813 58.647 53.045 61.415 53.045 64.829 C 53.045 68.243 55.813 71.011 59.227 71.011 C 62.641 71.011 65.409 68.243 65.409 64.829 Z " fill="rgb(77,77,77)"/><path d=" M 87.039 52.465 L 86.767 55.722 C 85.735 56.104 84.775 56.659 83.929 57.364 L 80.971 55.97 L 77.881 61.324 L 80.567 63.19 C 80.472 63.731 80.422 64.279 80.419 64.829 C 80.419 65.38 80.466 65.931 80.56 66.474 L 77.881 68.334 L 80.97 73.687 L 83.922 72.297 C 84.771 72.999 85.733 73.55 86.767 73.929 L 87.039 77.192 L 93.218 77.192 L 93.491 73.936 C 94.523 73.553 95.482 72.998 96.328 72.294 L 99.287 73.687 L 102.376 68.334 L 99.69 66.467 C 99.786 65.926 99.835 65.378 99.838 64.829 C 99.838 64.277 99.791 63.727 99.697 63.183 L 102.376 61.324 L 99.287 55.97 L 96.335 57.36 C 95.487 56.659 94.525 56.107 93.491 55.728 L 93.218 52.465 L 87.039 52.465 L 87.039 52.465 Z  M 90.129 61.296 C 92.079 61.296 93.66 62.878 93.66 64.829 C 93.66 66.78 92.079 68.361 90.129 68.361 C 88.179 68.361 86.598 66.78 86.598 64.829 C 86.598 62.878 88.179 61.297 90.128 61.296 L 90.129 61.296 Z " fill="rgb(77,77,77)"/><g opacity="0.2"><path d=" M 90.135 21.556 C 66.236 21.558 46.863 40.931 46.863 64.829 C 46.87 65.082 46.879 65.336 46.891 65.589 C 47.318 42.009 66.55 23.114 90.135 23.101 L 90.138 23.101 C 113.723 23.121 132.949 42.021 133.37 65.602 C 133.385 65.344 133.399 65.086 133.409 64.829 C 133.409 40.931 114.037 21.558 90.138 21.556 L 90.135 21.556 L 90.135 21.556 Z " fill="rgb(255,255,255)"/></g></g></g></svg>