<?xml version="1.0" encoding="UTF-8" standalone="no"?><!-- Generator: Gravit.io --><svg xmlns="http://www.w3.org/2000/svg" xmlns:xlink="http://www.w3.org/1999/xlink" style="isolation:isolate" viewBox="0 0 180 130" width="180pt" height="130pt"><defs><clipPath id="_clipPath_wKxE1wR58SSpkWIcBrAmt85GT0EExDvw"><rect width="180" height="130"/></clipPath></defs><g clip-path="url(#_clipPath_wKxE1wR58SSpkWIcBrAmt85GT0EExDvw)"><rect x="-0.945" y="-1.083" width="182.162" height="131.689" transform="matrix(1,0,0,1,0,0)" fill="rgb(47,126,200)" vector-effect="non-scaling-stroke" stroke-width="1.022" stroke="rgb(255,255,255)" stroke-linejoin="miter" stroke-linecap="butt" stroke-miterlimit="2"/><g><g><g><g><g><g style="opacity:0.15;"/></g></g></g></g><g><g style="opacity:0.3;" filter="url(#45ZFaZdT2S8OuPbd2VARqdVC973eaI6A)"><g style="opacity:0.3;"><g opacity="0.3"><path d=" M 56.044 65.065 C 56.044 79.111 64.26 91.237 76.135 96.881 L 59.2 50.469 C 57.175 54.916 56.044 59.858 56.044 65.065 Z " fill="rgb(0,0,0)"/></g></g><g style="opacity:0.3;"><g opacity="0.3"><path d=" M 80.949 98.746 C 84.181 99.73 87.609 100.261 91.161 100.261 C 95.285 100.261 99.243 99.545 102.919 98.236 L 91.767 67.673 L 80.949 98.746 Z " fill="rgb(0,0,0)"/></g></g><g style="opacity:0.3;"><g opacity="0.3"><path d=" M 74.561 45.966 L 74.561 48.073 C 74.561 48.267 74.41 48.424 74.226 48.424 L 70.159 48.424 C 69.705 48.424 69.513 48.699 69.673 49.171 L 82.426 86.824 L 90.186 63.342 L 85.027 49.202 C 84.84 48.689 84.618 48.424 83.824 48.424 L 80.255 48.424 C 80.071 48.424 79.92 48.266 79.92 48.073 L 79.92 45.966 C 79.92 45.773 80.071 45.607 80.255 45.615 C 86.896 45.912 93.578 45.91 100.299 45.615 C 100.483 45.607 100.634 45.773 100.634 45.966 L 100.634 48.073 C 100.634 48.267 100.483 48.424 100.299 48.424 L 96.75 48.424 C 96.046 48.424 95.819 48.751 96.014 49.324 L 108.568 86.388 L 113.177 72.326 C 118.75 55.324 108.409 53.525 108.666 45.072 C 108.793 40.891 111.851 39.066 114.915 39.148 C 108.662 33.388 100.321 29.869 91.161 29.869 C 78.81 29.869 67.948 36.264 61.687 45.929 C 65.677 45.888 69.959 45.842 74.225 45.615 C 74.41 45.606 74.561 45.773 74.561 45.966 Z " fill="rgb(0,0,0)"/></g></g><g style="opacity:0.3;"><g opacity="0.3"><path d=" M 91.161 24.133 C 68.61 24.133 50.322 42.463 50.322 65.065 C 50.322 87.667 68.61 105.996 91.161 105.996 C 113.712 105.996 132 87.667 132 65.065 C 132 42.463 113.712 24.133 91.161 24.133 Z  M 91.161 26.567 C 112.371 26.567 129.572 43.807 129.572 65.065 C 129.572 86.323 112.371 103.563 91.161 103.563 C 69.951 103.563 52.75 86.323 52.75 65.065 C 52.75 43.807 69.951 26.567 91.161 26.567 L 91.161 26.567 Z " fill="rgb(0,0,0)"/></g></g><g style="opacity:0.3;"><g opacity="0.3"><path d=" M 122.047 48.306 C 122.239 53.542 120.664 60.044 118.969 64.857 L 108.015 95.946 C 118.897 89.966 126.277 78.378 126.277 65.065 C 126.277 58.998 124.745 53.289 122.047 48.306 Z " fill="rgb(0,0,0)"/></g></g></g><defs><filter id="45ZFaZdT2S8OuPbd2VARqdVC973eaI6A" x="-200%" y="-200%" width="400%" height="400%" filterUnits="objectBoundingBox" color-interpolation-filters="sRGB"><feGaussianBlur xmlns="http://www.w3.org/2000/svg" stdDeviation="0.19510511227481406"/></filter></defs><g><g><path d=" M 56.044 65.065 C 56.044 79.111 64.26 91.237 76.135 96.881 L 59.2 50.469 C 57.175 54.916 56.044 59.858 56.044 65.065 Z " fill="rgb(255,255,255)"/></g><g><path d=" M 80.949 98.746 C 84.181 99.73 87.609 100.261 91.161 100.261 C 95.285 100.261 99.243 99.545 102.919 98.236 L 91.767 67.673 L 80.949 98.746 Z " fill="rgb(255,255,255)"/></g><g><path d=" M 74.561 45.966 L 74.561 48.073 C 74.561 48.267 74.41 48.424 74.226 48.424 L 70.159 48.424 C 69.705 48.424 69.513 48.699 69.673 49.171 L 82.426 86.824 L 90.186 63.342 L 85.027 49.202 C 84.84 48.689 84.618 48.424 83.824 48.424 L 80.255 48.424 C 80.071 48.424 79.92 48.266 79.92 48.073 L 79.92 45.966 C 79.92 45.773 80.071 45.607 80.255 45.615 C 86.896 45.912 93.578 45.91 100.299 45.615 C 100.483 45.607 100.634 45.773 100.634 45.966 L 100.634 48.073 C 100.634 48.267 100.483 48.424 100.299 48.424 L 96.75 48.424 C 96.046 48.424 95.819 48.751 96.014 49.324 L 108.568 86.388 L 113.177 72.326 C 118.75 55.324 108.409 53.525 108.666 45.072 C 108.793 40.891 111.851 39.066 114.915 39.148 C 108.662 33.388 100.321 29.869 91.161 29.869 C 78.81 29.869 67.948 36.264 61.687 45.929 C 65.677 45.888 69.959 45.842 74.225 45.615 C 74.41 45.606 74.561 45.773 74.561 45.966 Z " fill="rgb(255,255,255)"/></g><g><path d=" M 91.161 24.133 C 68.61 24.133 50.322 42.463 50.322 65.065 C 50.322 87.667 68.61 105.996 91.161 105.996 C 113.712 105.996 132 87.667 132 65.065 C 132 42.463 113.712 24.133 91.161 24.133 Z  M 91.161 26.567 C 112.371 26.567 129.572 43.807 129.572 65.065 C 129.572 86.323 112.371 103.563 91.161 103.563 C 69.951 103.563 52.75 86.323 52.75 65.065 C 52.75 43.807 69.951 26.567 91.161 26.567 L 91.161 26.567 Z " fill="rgb(255,255,255)"/></g><g><path d=" M 122.047 48.306 C 122.239 53.542 120.664 60.044 118.969 64.857 L 108.015 95.946 C 118.897 89.966 126.277 78.378 126.277 65.065 C 126.277 58.998 124.745 53.289 122.047 48.306 Z " fill="rgb(255,255,255)"/></g></g></g></g></g></svg>