<?xml version="1.0" encoding="UTF-8" standalone="no"?><!-- Generator: Gravit.io --><svg xmlns="http://www.w3.org/2000/svg" xmlns:xlink="http://www.w3.org/1999/xlink" style="isolation:isolate" viewBox="0 0 180 130" width="180pt" height="130pt"><defs><clipPath id="_clipPath_gK0C9XiHXWkt6WqTc4Tew0KYvlrcVP2f"><rect width="180" height="130"/></clipPath></defs><g clip-path="url(#_clipPath_gK0C9XiHXWkt6WqTc4Tew0KYvlrcVP2f)"><radialGradient id="_rgradient_0" fx="0.5" fy="0.5" cx="0.5" cy="0.5" r="0.5" gradientTransform="matrix(182.162,0,0,131.689,-0.945,-1.083)" gradientUnits="userSpaceOnUse"><stop offset="1.7391304347826086%" stop-opacity="1" style="stop-color:rgb(91,89,89)"/><stop offset="97.3913043478261%" stop-opacity="1" style="stop-color:rgb(45,45,45)"/></radialGradient><rect x="-0.945" y="-1.083" width="182.162" height="131.689" transform="matrix(1,0,0,1,0,0)" fill="url(#_rgradient_0)" vector-effect="non-scaling-stroke" stroke-width="1.022" stroke="rgb(255,255,255)" stroke-linejoin="miter" stroke-linecap="butt" stroke-miterlimit="2"/><g><g opacity="0.2"><path d=" M 77.069 27.732 C 76.647 27.758 76.221 27.824 75.796 27.937 C 72.398 28.841 70.396 32.288 71.306 35.661 L 73.774 44.813 C 71.633 46.078 69.649 47.532 67.801 49.102 L 60.769 41.817 C 58.335 39.295 54.273 39.348 51.786 41.817 C 49.298 44.286 49.351 48.209 51.786 50.731 L 58.888 58.085 C 55.749 61.578 52.869 64.848 50.012 66.991 C 47.066 69.138 47.066 74.508 50.012 76.656 C 62.62 84.443 71.086 103.37 90.132 103.315 L 90.14 103.315 C 109.187 103.37 117.653 84.443 130.26 76.656 C 133.207 74.508 133.207 69.138 130.26 66.991 C 127.405 64.849 124.527 61.581 121.389 58.089 L 128.495 50.731 C 130.93 48.209 130.983 44.286 128.495 41.817 C 126.008 39.348 121.951 39.295 119.516 41.817 L 112.476 49.11 C 110.639 47.549 108.671 46.099 106.544 44.838 L 109.02 35.661 C 109.931 32.288 107.929 28.841 104.531 27.937 C 101.133 27.033 97.665 29.025 96.755 32.398 L 94.547 40.278 C 93.135 40.086 91.668 39.975 90.136 39.975 L 90.132 39.975 C 88.62 39.975 87.175 40.086 85.779 40.274 L 83.572 32.398 C 82.775 29.447 80.022 27.553 77.069 27.732 Z " fill="rgb(0,0,0)"/></g><path d=" M 77.069 26.22 C 76.647 26.246 76.221 26.312 75.796 26.425 C 72.398 27.329 70.396 30.776 71.306 34.149 L 73.774 43.301 C 71.633 44.567 69.649 46.02 67.801 47.59 L 60.769 40.305 C 58.335 37.783 54.273 37.836 51.786 40.305 C 49.298 42.774 49.351 46.698 51.786 49.219 L 58.888 56.573 C 55.749 60.067 52.869 63.336 50.012 65.479 C 47.066 67.626 47.066 72.996 50.012 75.144 C 62.62 82.932 71.086 101.858 90.132 101.803 L 90.14 101.803 C 109.187 101.858 117.653 82.932 130.26 75.144 C 133.207 72.996 133.207 67.626 130.26 65.479 C 127.405 63.337 124.527 60.069 121.389 56.577 L 128.495 49.219 C 130.93 46.698 130.983 42.774 128.495 40.305 C 126.008 37.836 121.951 37.783 119.516 40.305 L 112.476 47.598 C 110.639 46.037 108.671 44.587 106.544 43.326 L 109.02 34.149 C 109.931 30.776 107.929 27.329 104.531 26.425 C 101.133 25.522 97.665 27.513 96.755 30.886 L 94.547 38.766 C 93.135 38.574 91.668 38.463 90.136 38.463 L 90.132 38.463 C 88.62 38.463 87.175 38.574 85.779 38.762 L 83.572 30.886 C 82.775 27.935 80.022 26.041 77.069 26.22 Z " fill="rgb(239,146,2)"/><g opacity="0.2"><circle vector-effect="non-scaling-stroke" cx="90.13640969128174" cy="71.56519579418837" r="24.190625544136665" fill="rgb(0,0,0)"/></g><circle vector-effect="non-scaling-stroke" cx="90.13640969128174" cy="70.05328169767981" r="24.190625544136665" fill="rgb(255,255,255)"/><circle vector-effect="non-scaling-stroke" cx="90.13640969128174" cy="70.0532816976798" r="15.119140965085421" fill="rgb(255,90,46)"/><g opacity="0.2"><path d=" M 77.07 26.22 C 76.648 26.245 76.222 26.313 75.797 26.426 C 72.727 27.243 70.819 30.133 71.146 33.171 C 71.48 30.731 73.244 28.617 75.797 27.938 C 76.222 27.825 76.648 27.757 77.07 27.731 C 80.022 27.553 82.775 29.446 83.572 32.397 L 85.778 40.273 C 87.174 40.085 88.621 39.975 90.133 39.974 L 90.136 39.974 C 91.668 39.975 93.136 40.086 94.548 40.279 L 96.754 32.397 C 97.664 29.024 101.134 27.034 104.532 27.938 C 107.085 28.617 108.846 30.731 109.18 33.171 C 109.507 30.133 107.602 27.243 104.532 26.426 C 101.134 25.522 97.664 27.512 96.754 30.885 L 94.548 38.767 C 93.136 38.574 91.668 38.463 90.136 38.463 L 90.133 38.463 C 88.621 38.463 87.174 38.573 85.778 38.761 L 83.572 30.885 C 82.775 27.934 80.022 26.041 77.07 26.22 Z  M 56.298 38.433 C 54.668 38.44 53.03 39.07 51.786 40.305 C 50.354 41.727 49.79 43.629 50.012 45.47 C 50.175 44.138 50.746 42.85 51.786 41.817 C 54.274 39.348 58.335 39.295 60.769 41.817 L 67.8 49.102 C 69.648 47.532 71.633 46.08 73.774 44.814 L 73.426 43.521 C 71.42 44.736 69.546 46.107 67.8 47.59 L 60.769 40.305 C 59.552 39.044 57.929 38.426 56.298 38.433 Z  M 123.986 38.433 C 122.357 38.426 120.733 39.044 119.515 40.305 L 112.476 47.599 C 110.741 46.125 108.883 44.755 106.891 43.545 L 106.543 44.838 C 108.67 46.099 110.638 47.55 112.476 49.111 L 119.515 41.817 C 121.95 39.295 126.008 39.348 128.495 41.817 C 129.533 42.847 130.102 44.132 130.267 45.461 C 130.486 43.623 129.925 41.725 128.495 40.305 C 127.252 39.07 125.616 38.44 123.986 38.433 Z  M 58.182 57.356 C 55.318 60.546 52.65 63.5 50.012 65.479 C 48.339 66.698 47.65 68.949 47.877 71.066 C 48.049 69.454 48.738 67.92 50.012 66.991 C 52.868 64.848 55.749 61.578 58.888 58.085 L 58.182 57.356 Z  M 122.093 57.359 L 121.388 58.088 C 124.525 61.579 127.406 64.849 130.261 66.991 C 131.535 67.92 132.224 69.454 132.396 71.066 C 132.622 68.949 131.934 66.698 130.261 65.479 C 127.624 63.501 124.956 60.547 122.093 57.359 Z " fill="rgb(255,255,255)"/></g></g></g></svg>