<?xml version="1.0" encoding="UTF-8" standalone="no"?>
<svg
   xmlns:dc="http://purl.org/dc/elements/1.1/"
   xmlns:cc="http://creativecommons.org/ns#"
   xmlns:rdf="http://www.w3.org/1999/02/22-rdf-syntax-ns#"
   xmlns:svg="http://www.w3.org/2000/svg"
   xmlns="http://www.w3.org/2000/svg"
   xmlns:xlink="http://www.w3.org/1999/xlink"
   xmlns:sodipodi="http://sodipodi.sourceforge.net/DTD/sodipodi-0.dtd"
   xmlns:inkscape="http://www.inkscape.org/namespaces/inkscape"
   sodipodi:docname="4kstogram.svg"
   inkscape:version="1.0 (4035a4fb49, 2020-05-01)"
   width="324px"
   height="234px"
   viewBox="0 0 324 234"
   version="1.1"
   id="SVGRoot">
  <defs
     id="defs10">
    <linearGradient
       id="linearGradient853"
       inkscape:collect="always">
      <stop
         id="stop849"
         offset="0"
         style="stop-color:#f7dcd2;stop-opacity:1" />
      <stop
         id="stop851"
         offset="1"
         style="stop-color:#fffafa;stop-opacity:1" />
    </linearGradient>
    <linearGradient
       gradientUnits="userSpaceOnUse"
       y2="123.31055"
       x2="200"
       y1="-0.31054601"
       x1="3.5e-06"
       id="linearGradient855"
       xlink:href="#linearGradient853"
       inkscape:collect="always"
       gradientTransform="matrix(-1,0,0,1.1684449,200,-10.359365)" />
    <filter
       height="1.216"
       y="-0.108"
       width="1.216"
       x="-0.108"
       id="filter1042"
       style="color-interpolation-filters:sRGB"
       inkscape:collect="always">
      <feGaussianBlur
         id="feGaussianBlur1044"
         stdDeviation="4.5176688"
         inkscape:collect="always" />
    </filter>
  </defs>
  <sodipodi:namedview
     inkscape:pagecheckerboard="true"
     inkscape:window-maximized="1"
     inkscape:window-y="-8"
     inkscape:window-x="-8"
     inkscape:window-height="801"
     inkscape:window-width="1152"
     showgrid="false"
     inkscape:document-rotation="0"
     inkscape:current-layer="g1076"
     inkscape:document-units="px"
     inkscape:cy="99.449257"
     inkscape:cx="171.73647"
     inkscape:zoom="0.7"
     inkscape:pageshadow="2"
     inkscape:pageopacity="0.0"
     borderopacity="1.0"
     bordercolor="#666666"
     pagecolor="#ffffff"
     id="base">
    <sodipodi:guide
       id="guide137"
       orientation="163.80001,0"
       position="243.9,198.9" />
    <sodipodi:guide
       id="guide139"
       orientation="0,-101.49202"
       position="243.9,35.099996" />
    <sodipodi:guide
       id="guide141"
       orientation="0,-62.30799"
       position="142.40799,35.099996" />
    <sodipodi:guide
       id="guide143"
       orientation="-163.80001,0"
       position="80.099996,35.099996" />
    <sodipodi:guide
       id="guide145"
       orientation="0,62.30799"
       position="80.099996,198.9" />
    <sodipodi:guide
       id="guide147"
       orientation="0,101.49202"
       position="142.40799,198.9" />
  </sodipodi:namedview>
  <metadata
     id="metadata13">
    <rdf:RDF>
      <cc:Work
         rdf:about="">
        <dc:format>image/svg+xml</dc:format>
        <dc:type
           rdf:resource="http://purl.org/dc/dcmitype/StillImage" />
        <dc:title></dc:title>
      </cc:Work>
    </rdf:RDF>
  </metadata>
  <g
     id="layer1"
     inkscape:groupmode="layer"
     inkscape:label="Capa 1">
    <g
       transform="matrix(1.62,0,0,1.62,-3.24e-6,17.369997)"
       id="g55">
      <path
         d="M 200,-10.722221 V 133.72222 H 76.078134 4e-6 V -10.722221 h 76.07813 z"
         style="fill:url(#linearGradient855);fill-opacity:1;stroke:none;stroke-width:2.14905;stroke-miterlimit:4;stroke-dasharray:none"
         id="rect3770" />
      <ellipse
         r="50.19632"
         cy="61.5"
         cx="100"
         id="path149"
         style="fill:none;stroke:#808080;stroke-width:4.32098765;stroke-miterlimit:4;stroke-dasharray:none;stroke-opacity:1;opacity:1;filter:url(#filter1042)" />
      <g
         transform="matrix(0.61728395,0,0,0.61728395,-123.45679,-10.530526)"
         id="g1076">
        <path
           id="path928"
           d="m 355.01695,35.262997 c -14.5779,1.92328 -27.73142,5.97219 -39.98268,14.30956 -8.65625,5.89085 -16.16714,13.51885 -21.88702,22.24332 -27.01466,41.205213 -10.4609,98.997403 34.73859,119.555363 14.54328,6.61524 30.65029,8.5054 46.40847,6.39766 11.26298,-1.50674 22.64806,-5.62798 32.12894,-11.85129 47.48944,-31.17182 50.60594,-100.499483 4.99784,-135.006893 -7.92657,-5.9971 -17.54168,-10.40038 -27.13111,-13.00587 -9.25384,-2.51439 -19.70716,-3.90386 -29.27303,-2.64185 m -21.4193,39.60102 c 15.52215,-2.2767 32.85221,-0.21325 48.5504,-0.21325 6.99199,0 13.88329,-0.2044 18.71405,5.79283 4.25743,5.28581 3.41922,11.97913 3.41922,18.30379 0,14.756343 3.28501,33.960633 -0.66257,48.193233 -1.54932,5.58405 -6.40436,10.0979 -12.189,11.10641 -15.69962,2.73923 -34.02526,0.23317 -49.97836,0.23317 -7.04365,0 -13.95822,-0.10636 -18.48627,-6.4423 -3.73538,-5.22754 -2.93302,-11.59684 -2.93302,-17.65432 v -32.6013 c 0,-5.168443 -0.9196,-11.350573 0.79109,-16.300653 1.9558,-5.65923 6.83961,-9.54709 12.77446,-10.41761 m 52.19812,11.65511 c -5.76037,2.37373 -1.83849,11.37899 4.12821,8.96516 5.74108,-2.32243 1.76066,-11.39168 -4.12821,-8.96516 m -27.92292,7.59859 c -29.83471,5.55094 -20.27221,49.938393 9.28171,44.793763 28.91175,-5.03193 19.48798,-50.146553 -9.28171,-44.793763 m 0.71398,7.741253 c 18.46058,-3.990823 26.39857,24.66757 7.85376,29.11198 -19.44724,4.66057 -27.3074,-24.9067 -7.85376,-29.11198 z"
           style="fill:#fc703a;stroke:none;stroke-width:0.711345" />
      </g>
    </g>
  </g>
</svg>
