<?xml version="1.0" encoding="UTF-8"?>
<svg xmlns="http://www.w3.org/2000/svg" xmlns:xlink="http://www.w3.org/1999/xlink" width="324px" height="234px" viewBox="0 0 324 234" version="1.1">
<g id="surface1">
<rect x="0" y="0" width="324" height="234" style="fill:rgb(87.843138%,39.215687%,20%);fill-opacity:1;stroke:none;"/>
<path style="fill:none;stroke-width:1.021703;stroke-linecap:butt;stroke-linejoin:miter;stroke:rgb(100%,100%,100%);stroke-opacity:1;stroke-miterlimit:4;" d="M -0.94401 -1.082899 L 181.217448 -1.082899 L 181.217448 130.605469 L -0.94401 130.605469 Z M -0.94401 -1.082899 " transform="matrix(1.8,0,0,1.8,0,0)"/>
<path style="fill:none;stroke-width:6.70252;stroke-linecap:square;stroke-linejoin:miter;stroke:rgb(100%,100%,100%);stroke-opacity:1;stroke-miterlimit:4;" d="M 67.997574 26.457037 L 112.275877 26.457037 C 122.286291 26.457037 130.402783 35.803811 130.402783 47.331049 L 130.402783 82.191503 C 130.402783 93.720988 122.286291 103.065514 112.275877 103.065514 L 67.997574 103.065514 C 57.984915 103.065514 49.870667 93.720988 49.870667 82.191503 L 49.870667 47.331049 C 49.870667 35.803811 57.984915 26.457037 67.997574 26.457037 Z M 67.997574 26.457037 " transform="matrix(1.740765,0,0,1.737732,5.339225,4.032573)"/>
<path style="fill:none;stroke-width:6.70252;stroke-linecap:square;stroke-linejoin:miter;stroke:rgb(100%,100%,100%);stroke-opacity:1;stroke-miterlimit:4;" d="M 109.154494 65.676172 C 109.154494 75.994039 100.649793 84.358479 90.161409 84.358479 C 79.673025 84.358479 71.170568 75.994039 71.170568 65.676172 C 71.170568 55.358305 79.673025 46.996112 90.161409 46.996112 C 100.649793 46.996112 109.154494 55.358305 109.154494 65.676172 Z M 109.154494 65.676172 " transform="matrix(1.740765,0,0,1.737732,5.339225,4.032573)"/>
<path style=" stroke:none;fill-rule:nonzero;fill:rgb(100%,100%,100%);fill-opacity:1;" d="M 211.496094 77.945312 C 211.496094 82.695312 207.453125 86.546875 202.460938 86.546875 C 197.472656 86.546875 193.429688 82.695312 193.429688 77.945312 C 193.429688 73.191406 197.472656 69.339844 202.460938 69.339844 C 207.453125 69.339844 211.496094 73.191406 211.496094 77.945312 Z M 211.496094 77.945312 "/>
</g>
</svg>
