<?xml version="1.0" encoding="UTF-8"?>
<svg xmlns="http://www.w3.org/2000/svg" xmlns:xlink="http://www.w3.org/1999/xlink" width="324px" height="234px" viewBox="0 0 324 234" version="1.1">
<g id="surface1">
<rect x="0" y="0" width="324" height="234" style="fill:rgb(70.19608%,50.196081%,100%);fill-opacity:1;stroke:none;"/>
<path style="fill:none;stroke-width:1.021703;stroke-linecap:butt;stroke-linejoin:miter;stroke:rgb(100%,100%,100%);stroke-opacity:1;stroke-miterlimit:4;" d="M -0.94401 -1.082899 L 181.217448 -1.082899 L 181.217448 130.605469 L -0.94401 130.605469 Z M -0.94401 -1.082899 " transform="matrix(1.8,0,0,1.8,0,0)"/>
<path style=" stroke:none;fill-rule:nonzero;fill:rgb(100%,100%,100%);fill-opacity:0.941176;" d="M 102.480469 163.703125 L 93.507812 163.703125 C 93.253906 163.476562 91.160156 153.933594 88.832031 143.082031 C 86.417969 133.9375 84.601562 119.636719 84.601562 110.28125 C 84.601562 101.59375 85.214844 92.582031 87.984375 84.9375 C 94.503906 66.914062 110.3125 51.949219 130.289062 44.910156 C 132.722656 44.054688 137.589844 42.746094 141.082031 42.007812 C 152.003906 39.921875 173.039062 40.394531 182.859375 41.855469 C 197.90625 44.984375 208.484375 50.144531 218.875 59.441406 C 229.457031 68.886719 235.617188 79.039062 238.8125 92.28125 C 239.722656 96.074219 239.890625 103.394531 239.890625 110.28125 C 239.890625 120.90625 237.691406 133.996094 235.722656 143.082031 C 233.4375 153.707031 231.382812 163.363281 231.152344 163.703125 L 221.988281 163.703125 C 225.859375 132.480469 221.988281 163.703125 225.859375 132.480469 C 226.367188 132.023438 227.660156 117.984375 227.957031 114.246094 C 228.1875 111.195312 228.484375 110.511719 227.957031 110.207031 C 227.574219 110 224.867188 110.207031 221.902344 110.207031 C 216 110.207031 216 110.207031 216 104.855469 C 216 48.550781 108.300781 47.566406 108.492188 104.855469 C 108.492188 110.207031 108.492188 110.207031 103.351562 110.207031 L 96.535156 110.207031 L 96.621094 113.925781 C 96.707031 117.546875 98.269531 131.890625 98.925781 132.480469 Z M 102.480469 163.703125 "/>
<path style=" stroke:none;fill-rule:nonzero;fill:rgb(100%,100%,100%);fill-opacity:0.941176;" d="M 108.457031 127.96875 C 102.484375 130.480469 102.484375 130.710938 98.9375 132.441406 L 90.539062 147.667969 L 102.484375 163.730469 L 103.792969 170.925781 C 105.117188 176.945312 105.472656 177.921875 106.59375 178.789062 C 107.847656 179.753906 108.140625 179.796875 119.46875 179.796875 L 120.402344 179.796875 "/>
<path style=" stroke:none;fill-rule:nonzero;fill:rgb(100%,100%,100%);fill-opacity:0.941176;" d="M 215.964844 127.535156 L 204.019531 179.769531 L 214.839844 179.769531 C 216.65625 179.726562 217.199219 179.582031 217.828125 179.101562 C 218.949219 178.238281 219.886719 176.921875 220.628906 170.902344 L 221.9375 163.707031 L 233.882812 147.648438 L 225.855469 132.417969 C 219.566406 129.339844 221.9375 130.160156 215.964844 127.535156 "/>
<path style="fill-rule:evenodd;fill:rgb(100%,100%,100%);fill-opacity:1;stroke-width:0.381401;stroke-linecap:butt;stroke-linejoin:miter;stroke:rgb(0%,0%,0%);stroke-opacity:0.308176;stroke-miterlimit:4;" d="M 111.367188 84.186198 C 111.367188 95.744358 101.922743 105.112847 90.273438 105.112847 C 78.621962 105.112847 69.177517 95.744358 69.177517 84.186198 C 69.177517 72.630208 78.621962 63.261719 90.273438 63.261719 C 93.185764 63.261719 95.959201 63.847656 98.483073 64.906684 C 101.006944 65.965712 103.27908 67.49783 105.188802 69.390191 C 107.096354 71.284722 108.641493 73.539497 109.709201 76.041667 C 110.77691 78.546007 111.367188 81.297743 111.367188 84.186198 Z M 111.367188 84.186198 " transform="matrix(1.8,0,0,1.8,0,0)"/>
<path style=" stroke:none;fill-rule:nonzero;fill:rgb(100%,100%,100%);fill-opacity:1;" d="M 195.980469 151.535156 C 195.980469 170.070312 180.984375 185.097656 162.492188 185.097656 C 143.996094 185.097656 129 170.070312 129 151.535156 C 129 133 143.996094 117.976562 162.492188 117.976562 C 180.984375 117.976562 195.980469 133 195.980469 151.535156 Z M 195.980469 151.535156 "/>
<path style="fill:none;stroke-width:0.708234;stroke-linecap:round;stroke-linejoin:round;stroke:rgb(60.392159%,53.725493%,75.294119%);stroke-opacity:1;stroke-miterlimit:4;" d="M 92.760417 84.238281 C 92.762587 85.661892 91.586372 86.816406 90.136719 86.816406 C 88.687066 86.816406 87.510851 85.661892 87.513021 84.238281 C 87.510851 82.81467 88.687066 81.660156 90.136719 81.660156 C 91.586372 81.660156 92.762587 82.81467 92.760417 84.238281 Z M 92.760417 84.238281 " transform="matrix(1.8,0,0,1.8,0,0)"/>
<path style="fill-rule:nonzero;fill:rgb(60.392159%,53.725493%,75.294119%);fill-opacity:1;stroke-width:0.938381;stroke-linecap:round;stroke-linejoin:round;stroke:rgb(60.392159%,53.725493%,75.294119%);stroke-opacity:1;stroke-miterlimit:4;" d="M 94.550781 74.086372 C 94.550781 76.477865 92.575955 78.417969 90.138889 78.417969 C 87.701823 78.417969 85.726997 76.477865 85.726997 74.086372 C 85.726997 71.692708 87.701823 69.752604 90.138889 69.752604 C 92.575955 69.752604 94.550781 71.692708 94.550781 74.086372 Z M 94.550781 74.086372 " transform="matrix(1.8,0,0,1.8,0,0)"/>
<path style="fill-rule:nonzero;fill:rgb(60.392159%,53.725493%,75.294119%);fill-opacity:1;stroke-width:0.938381;stroke-linecap:round;stroke-linejoin:round;stroke:rgb(60.392159%,53.725493%,75.294119%);stroke-opacity:1;stroke-miterlimit:4;" d="M 84.607205 84.238281 C 84.607205 86.631944 82.632378 88.569878 80.197483 88.569878 C 77.760417 88.569878 75.78559 86.631944 75.78559 84.238281 C 75.78559 81.846788 77.760417 79.906684 80.197483 79.906684 C 82.632378 79.906684 84.607205 81.846788 84.607205 84.238281 Z M 84.607205 84.238281 " transform="matrix(1.8,0,0,1.8,0,0)"/>
<path style="fill-rule:nonzero;fill:rgb(60.392159%,53.725493%,75.294119%);fill-opacity:1;stroke-width:0.938381;stroke-linecap:round;stroke-linejoin:round;stroke:rgb(60.392159%,53.725493%,75.294119%);stroke-opacity:1;stroke-miterlimit:4;" d="M 94.550781 94.001736 C 94.550781 96.393229 92.575955 98.333333 90.138889 98.333333 C 87.701823 98.333333 85.726997 96.393229 85.726997 94.001736 C 85.726997 91.608073 87.701823 89.670139 90.138889 89.670139 C 92.575955 89.670139 94.550781 91.608073 94.550781 94.001736 Z M 94.550781 94.001736 " transform="matrix(1.8,0,0,1.8,0,0)"/>
<path style="fill-rule:nonzero;fill:rgb(60.392159%,53.725493%,75.294119%);fill-opacity:1;stroke-width:0.938381;stroke-linecap:round;stroke-linejoin:round;stroke:rgb(60.392159%,53.725493%,75.294119%);stroke-opacity:1;stroke-miterlimit:4;" d="M 104.492188 84.238281 C 104.496528 85.78776 103.656684 87.222222 102.289497 87.999132 C 100.922309 88.773872 99.238281 88.773872 97.871094 87.999132 C 96.506076 87.222222 95.666233 85.78776 95.668403 84.238281 C 95.666233 82.688802 96.506076 81.25434 97.871094 80.479601 C 99.238281 79.702691 100.922309 79.702691 102.289497 80.479601 C 103.656684 81.25434 104.496528 82.688802 104.492188 84.238281 Z M 104.492188 84.238281 " transform="matrix(1.8,0,0,1.8,0,0)"/>
<path style=" stroke:none;fill-rule:nonzero;fill:rgb(100%,100%,100%);fill-opacity:0.941176;" d="M 108.457031 127.96875 C 102.484375 130.480469 102.484375 130.710938 98.9375 132.441406 L 90.539062 147.667969 L 102.484375 163.730469 L 103.792969 170.925781 C 105.117188 176.945312 105.472656 177.921875 106.59375 178.789062 C 107.847656 179.753906 108.140625 179.796875 119.46875 179.796875 L 120.402344 179.796875 "/>
<path style=" stroke:none;fill-rule:nonzero;fill:rgb(100%,100%,100%);fill-opacity:0.941176;" d="M 215.964844 127.535156 L 204.019531 179.769531 L 214.839844 179.769531 C 216.65625 179.726562 217.199219 179.582031 217.828125 179.101562 C 218.949219 178.238281 219.886719 176.921875 220.628906 170.902344 L 221.9375 163.707031 L 233.882812 147.648438 L 225.855469 132.417969 C 219.566406 129.339844 221.9375 130.160156 215.964844 127.535156 "/>
<path style="fill-rule:evenodd;fill:rgb(100%,100%,100%);fill-opacity:1;stroke-width:0.381401;stroke-linecap:butt;stroke-linejoin:miter;stroke:rgb(0%,0%,0%);stroke-opacity:0.308176;stroke-miterlimit:4;" d="M 111.367188 84.186198 C 111.367188 95.744358 101.922743 105.112847 90.273438 105.112847 C 78.621962 105.112847 69.177517 95.744358 69.177517 84.186198 C 69.177517 72.630208 78.621962 63.261719 90.273438 63.261719 C 93.185764 63.261719 95.959201 63.847656 98.483073 64.906684 C 101.006944 65.965712 103.27908 67.49783 105.188802 69.390191 C 107.096354 71.284722 108.641493 73.539497 109.709201 76.041667 C 110.77691 78.546007 111.367188 81.297743 111.367188 84.186198 Z M 111.367188 84.186198 " transform="matrix(1.8,0,0,1.8,0,0)"/>
<path style=" stroke:none;fill-rule:nonzero;fill:rgb(100%,100%,100%);fill-opacity:1;" d="M 195.980469 151.535156 C 195.980469 170.070312 180.984375 185.097656 162.492188 185.097656 C 143.996094 185.097656 129 170.070312 129 151.535156 C 129 133 143.996094 117.976562 162.492188 117.976562 C 180.984375 117.976562 195.980469 133 195.980469 151.535156 Z M 195.980469 151.535156 "/>
<path style="fill:none;stroke-width:0.708234;stroke-linecap:round;stroke-linejoin:round;stroke:rgb(60.392159%,53.725493%,75.294119%);stroke-opacity:1;stroke-miterlimit:4;" d="M 92.760417 84.238281 C 92.762587 85.661892 91.586372 86.816406 90.136719 86.816406 C 88.687066 86.816406 87.510851 85.661892 87.513021 84.238281 C 87.510851 82.81467 88.687066 81.660156 90.136719 81.660156 C 91.586372 81.660156 92.762587 82.81467 92.760417 84.238281 Z M 92.760417 84.238281 " transform="matrix(1.8,0,0,1.8,0,0)"/>
<path style="fill-rule:nonzero;fill:rgb(60.392159%,53.725493%,75.294119%);fill-opacity:1;stroke-width:0.938381;stroke-linecap:round;stroke-linejoin:round;stroke:rgb(60.392159%,53.725493%,75.294119%);stroke-opacity:1;stroke-miterlimit:4;" d="M 94.550781 74.086372 C 94.550781 76.477865 92.575955 78.417969 90.138889 78.417969 C 87.701823 78.417969 85.726997 76.477865 85.726997 74.086372 C 85.726997 71.692708 87.701823 69.752604 90.138889 69.752604 C 92.575955 69.752604 94.550781 71.692708 94.550781 74.086372 Z M 94.550781 74.086372 " transform="matrix(1.8,0,0,1.8,0,0)"/>
<path style="fill-rule:nonzero;fill:rgb(60.392159%,53.725493%,75.294119%);fill-opacity:1;stroke-width:0.938381;stroke-linecap:round;stroke-linejoin:round;stroke:rgb(60.392159%,53.725493%,75.294119%);stroke-opacity:1;stroke-miterlimit:4;" d="M 84.607205 84.238281 C 84.607205 86.631944 82.632378 88.569878 80.197483 88.569878 C 77.760417 88.569878 75.78559 86.631944 75.78559 84.238281 C 75.78559 81.846788 77.760417 79.906684 80.197483 79.906684 C 82.632378 79.906684 84.607205 81.846788 84.607205 84.238281 Z M 84.607205 84.238281 " transform="matrix(1.8,0,0,1.8,0,0)"/>
<path style="fill-rule:nonzero;fill:rgb(60.392159%,53.725493%,75.294119%);fill-opacity:1;stroke-width:0.938381;stroke-linecap:round;stroke-linejoin:round;stroke:rgb(60.392159%,53.725493%,75.294119%);stroke-opacity:1;stroke-miterlimit:4;" d="M 94.550781 94.001736 C 94.550781 96.393229 92.575955 98.333333 90.138889 98.333333 C 87.701823 98.333333 85.726997 96.393229 85.726997 94.001736 C 85.726997 91.608073 87.701823 89.670139 90.138889 89.670139 C 92.575955 89.670139 94.550781 91.608073 94.550781 94.001736 Z M 94.550781 94.001736 " transform="matrix(1.8,0,0,1.8,0,0)"/>
<path style="fill-rule:nonzero;fill:rgb(60.392159%,53.725493%,75.294119%);fill-opacity:1;stroke-width:0.938381;stroke-linecap:round;stroke-linejoin:round;stroke:rgb(60.392159%,53.725493%,75.294119%);stroke-opacity:1;stroke-miterlimit:4;" d="M 104.492188 84.238281 C 104.496528 85.78776 103.656684 87.222222 102.289497 87.999132 C 100.922309 88.773872 99.238281 88.773872 97.871094 87.999132 C 96.506076 87.222222 95.666233 85.78776 95.668403 84.238281 C 95.666233 82.688802 96.506076 81.25434 97.871094 80.479601 C 99.238281 79.702691 100.922309 79.702691 102.289497 80.479601 C 103.656684 81.25434 104.496528 82.688802 104.492188 84.238281 Z M 104.492188 84.238281 " transform="matrix(1.8,0,0,1.8,0,0)"/>
</g>
</svg>
