<?xml version="1.0" encoding="UTF-8" standalone="no"?>
<svg
   xmlns:dc="http://purl.org/dc/elements/1.1/"
   xmlns:cc="http://creativecommons.org/ns#"
   xmlns:rdf="http://www.w3.org/1999/02/22-rdf-syntax-ns#"
   xmlns:svg="http://www.w3.org/2000/svg"
   xmlns="http://www.w3.org/2000/svg"
   xmlns:xlink="http://www.w3.org/1999/xlink"
   xmlns:sodipodi="http://sodipodi.sourceforge.net/DTD/sodipodi-0.dtd"
   xmlns:inkscape="http://www.inkscape.org/namespaces/inkscape"
   sodipodi:docname="4kvideotomp3.svg"
   inkscape:version="1.0 (4035a4fb49, 2020-05-01)"
   width="324px"
   height="234px"
   viewBox="0 0 324 234"
   version="1.1"
   id="SVGRoot">
  <defs
     id="defs10">
    <linearGradient
       inkscape:collect="always"
       id="linearGradient1291">
      <stop
         style="stop-color:#faf7ff;stop-opacity:1"
         offset="0"
         id="stop1287" />
      <stop
         style="stop-color:#e2d7f2;stop-opacity:1"
         offset="1"
         id="stop1289" />
    </linearGradient>
    <filter
       height="1.216"
       y="-0.108"
       width="1.216"
       x="-0.108"
       id="filter1042"
       style="color-interpolation-filters:sRGB"
       inkscape:collect="always">
      <feGaussianBlur
         id="feGaussianBlur1044"
         stdDeviation="4.5176688"
         inkscape:collect="always" />
    </filter>
    <linearGradient
       id="linearGradient853-2"
       inkscape:collect="always">
      <stop
         id="stop849-1"
         offset="0"
         style="stop-color:#eef7e4;stop-opacity:1" />
      <stop
         id="stop851-0"
         offset="1"
         style="stop-color:#e2f1d2;stop-opacity:1" />
    </linearGradient>
    <linearGradient
       gradientUnits="userSpaceOnUse"
       y2="123.31055"
       x2="200"
       y1="-0.31054601"
       x1="3.5e-06"
       id="linearGradient855-5"
       xlink:href="#linearGradient853-2"
       inkscape:collect="always"
       gradientTransform="matrix(-1,0,0,1,200,0)" />
    <inkscape:perspective
       id="perspective1106"
       inkscape:persp3d-origin="100 : 41 : 1"
       inkscape:vp_z="200 : 61.5 : 1"
       inkscape:vp_y="0 : 1000 : 0"
       inkscape:vp_x="0 : 61.5 : 1"
       sodipodi:type="inkscape:persp3d" />
    <inkscape:path-effect
       only_selected="false"
       apply_with_weight="true"
       apply_no_weight="true"
       helper_size="0"
       steps="2"
       weight="33.333333"
       lpeversion="1"
       is_visible="true"
       id="path-effect1092"
       effect="bspline" />
    <inkscape:path-effect
       only_selected="false"
       apply_with_weight="true"
       apply_no_weight="true"
       helper_size="0"
       steps="2"
       weight="33.333333"
       lpeversion="1"
       is_visible="true"
       id="path-effect1088"
       effect="bspline" />
    <linearGradient
       gradientUnits="userSpaceOnUse"
       y2="133.72221"
       x2="4e-06"
       y1="-10.722221"
       x1="200"
       id="linearGradient1213"
       xlink:href="#linearGradient1291"
       inkscape:collect="always" />
    <inkscape:perspective
       id="perspective1106-0"
       inkscape:persp3d-origin="100 : 41 : 1"
       inkscape:vp_z="200 : 61.5 : 1"
       inkscape:vp_y="0 : 1000 : 0"
       inkscape:vp_x="0 : 61.5 : 1"
       sodipodi:type="inkscape:persp3d" />
    <linearGradient
       id="linearGradient853"
       inkscape:collect="always">
      <stop
         id="stop849"
         offset="0"
         style="stop-color:#faf7ff;stop-opacity:1" />
      <stop
         id="stop851"
         offset="1"
         style="stop-color:#e2d7f2;stop-opacity:1" />
    </linearGradient>
    <linearGradient
       gradientUnits="userSpaceOnUse"
       y2="123.31055"
       x2="200"
       y1="-0.31054601"
       x1="3.5e-06"
       id="linearGradient855"
       xlink:href="#linearGradient853"
       inkscape:collect="always"
       gradientTransform="matrix(-1,0,0,1,200,0)" />
    <inkscape:perspective
       id="perspective1106-9"
       inkscape:persp3d-origin="100 : 41 : 1"
       inkscape:vp_z="200 : 61.5 : 1"
       inkscape:vp_y="0 : 1000 : 0"
       inkscape:vp_x="0 : 61.5 : 1"
       sodipodi:type="inkscape:persp3d" />
  </defs>
  <sodipodi:namedview
     inkscape:pagecheckerboard="true"
     inkscape:window-maximized="1"
     inkscape:window-y="-8"
     inkscape:window-x="-8"
     inkscape:window-height="801"
     inkscape:window-width="1152"
     showgrid="false"
     inkscape:document-rotation="0"
     inkscape:current-layer="g1251"
     inkscape:document-units="px"
     inkscape:cy="142.0332"
     inkscape:cx="143.74152"
     inkscape:zoom="1.4"
     inkscape:pageshadow="2"
     inkscape:pageopacity="0.0"
     borderopacity="1.0"
     bordercolor="#666666"
     pagecolor="#ffffff"
     id="base">
    <sodipodi:guide
       id="guide137"
       orientation="163.80001,0"
       position="243.9,198.9" />
    <sodipodi:guide
       id="guide139"
       orientation="0,-101.49202"
       position="243.9,35.099996" />
    <sodipodi:guide
       id="guide141"
       orientation="0,-62.30799"
       position="142.40799,35.099996" />
    <sodipodi:guide
       id="guide143"
       orientation="-163.80001,0"
       position="80.099996,35.099996" />
    <sodipodi:guide
       id="guide145"
       orientation="0,62.30799"
       position="80.099996,198.9" />
    <sodipodi:guide
       id="guide147"
       orientation="0,101.49202"
       position="142.40799,198.9" />
  </sodipodi:namedview>
  <metadata
     id="metadata13">
    <rdf:RDF>
      <cc:Work
         rdf:about="">
        <dc:format>image/svg+xml</dc:format>
        <dc:type
           rdf:resource="http://purl.org/dc/dcmitype/StillImage" />
        <dc:title></dc:title>
      </cc:Work>
    </rdf:RDF>
  </metadata>
  <g
     id="layer1"
     inkscape:groupmode="layer"
     inkscape:label="Capa 1">
    <g
       transform="matrix(1.62,0,0,1.62,-3.24e-6,17.369997)"
       id="g55">
      <path
         d="M 200,-10.722221 V 133.72222 H 76.078134 4e-6 V -10.722221 h 76.07813 z"
         style="fill:url(#linearGradient1213);fill-opacity:1;stroke:none;stroke-width:2.14905;stroke-miterlimit:4;stroke-dasharray:none"
         id="rect3770" />
      <ellipse
         r="50.19632"
         cy="61.5"
         cx="100"
         id="path149"
         style="fill:none;stroke:#9c71da;stroke-width:4.32098765;stroke-miterlimit:4;stroke-dasharray:none;stroke-opacity:1;opacity:1;filter:url(#filter1042)" />
      <g
         transform="matrix(0.61728395,0,0,0.61728395,-123.45679,-10.530526)"
         id="g1076">
        <g
           transform="translate(-39.999999,-168.9534)"
           id="g1116">
          <g
             transform="matrix(1.6438356,0,0,1.6411181,319.51644,203.57874)"
             fill="none"
             fill-rule="evenodd"
             id="g987">
            <g
               transform="matrix(0.60833334,0,0,0.60934067,-206.53917,-118.82589)"
               id="g1251">
              <path
                 sodipodi:nodetypes="scsccccccsccccscsscccccsccccsssscsscsssccsscccsccsccss"
                 d="m 422.3154,195.17167 c -1.79391,0.006 -3.57374,0.10991 -5.32041,0.33938 -16.6753,2.19102 -32.11145,6.40282 -45.56694,17.1092 -8.62817,6.86538 -15.57667,15.03085 -21.05496,24.60467 -19.42382,33.94439 -10.434,78.98103 19.631,103.63997 18.06736,14.81873 41.90093,20.46641 64.79048,17.21909 11.52559,-1.63576 23.19784,-6.20767 32.75123,-12.81695 22.70302,-15.70675 37.51009,-42.28116 36.28334,-70.29923 -1.64538,-37.58229 -28.24575,-70.41542 -65.47465,-77.90731 -5.14603,-1.03562 -10.65737,-1.90573 -16.03909,-1.88882 z m 45.8311,56.29585 c 1.24741,4.75225 0.103,11.16763 1.96492,15.51803 1.80273,4.20941 7.22216,6.25462 9.20432,10.8308 6.8735,15.86838 -0.0985,36.20754 -18.88979,37.74288 v -42.7278 c 0,-9.11171 0.57137,-18.2831 -4.4652,-26.34883 -14.33009,-22.94989 -57.61706,-22.2107 -69.49487,2.84852 -3.7305,7.87047 -2.93414,16.45875 -2.93414,24.92456 v 41.30355 c -18.83766,-1.53891 -25.70524,-21.86096 -18.8912,-37.74288 1.9865,-4.63027 7.4044,-6.62423 9.20572,-10.8308 1.48441,-3.46664 0.76246,-8.88298 1.35305,-12.66974 8.70959,-42.30337 84.8918,-42.30337 92.94719,-2.84829 z m -47.21475,6.37857 c 3.23544,-0.0591 6.48525,0.40218 9.59092,1.27404 26.72644,7.50294 32.33544,45.44619 7.83182,59.51573 -3.25234,1.86793 -6.96036,3.27854 -10.67976,3.83187 -5.57625,0.82892 -11.75199,0.63876 -17.0876,-1.27544 -3.93441,-1.41214 -7.58623,-3.65106 -10.66862,-6.46897 -20.13588,-18.40785 -9.28983,-53.11246 17.78846,-56.64077 1.0694,-0.13945 2.14631,-0.21676 3.22478,-0.23646 z m 1.13334,11.41216 c -0.90666,-0.0318 -1.88582,0.13216 -2.92025,0.54106 -7.90444,3.12483 -2.65723,15.24839 4.95887,12.27312 7.07647,-2.76415 4.30801,-12.59202 -2.03862,-12.81418 z m -14.98224,14.69742 c -0.24883,-0.002 -0.5046,0.009 -0.76762,0.0335 -9.0095,0.82963 -7.25874,14.66331 1.42397,13.41921 7.92505,-1.13556 7.05729,-13.39149 -0.65635,-13.45261 z m 29.9033,0 c -0.24884,-0.002 -0.50461,0.009 -0.76761,0.0335 -9.00944,0.82963 -7.25867,14.66331 1.42397,13.41921 7.92504,-1.13556 7.05728,-13.39149 -0.65636,-13.45261 z m -15.26593,4.34372 c -0.30422,0.0239 -0.62295,0.1172 -0.94699,0.29627 -2.64858,1.46414 -0.2848,5.68161 2.31394,4.11421 2.19728,-1.32475 0.76262,-4.57774 -1.36695,-4.41048 z m 0.3101,10.61241 c -0.2474,-0.002 -0.50216,0.007 -0.76343,0.032 -8.94536,0.82321 -7.36405,14.40357 1.42397,13.26203 7.98021,-1.03551 7.00916,-13.2319 -0.66054,-13.29403 z"
                 style="fill:#8169b5;stroke:none;stroke-width:0.712057"
                 id="path1084" />
            </g>
          </g>
        </g>
      </g>
    </g>
  </g>
</svg>
