<?xml version="1.0" encoding="UTF-8"?>
<svg xmlns="http://www.w3.org/2000/svg" xmlns:xlink="http://www.w3.org/1999/xlink" width="324px" height="234px" viewBox="0 0 324 234" version="1.1">
<defs>
<linearGradient id="linear0" gradientUnits="userSpaceOnUse" x1="-1.455352" y1="64.761543" x2="181.728165" y2="64.761543" gradientTransform="matrix(0.00000000000000011,-1.8,1.8,0.00000000000000011,-110.628565,76.666522)">
<stop offset="0" style="stop-color:rgb(49.803922%,66.274512%,20.784314%);stop-opacity:1;"/>
<stop offset="1" style="stop-color:rgb(53.725493%,72.156864%,22.745098%);stop-opacity:1;"/>
</linearGradient>
<clipPath id="clip1">
  <path d="M 73 54 L 251 54 L 251 179 L 73 179 Z M 73 54 "/>
</clipPath>
<clipPath id="clip2">
  <path d="M 319.246094 123.503906 C 319.246094 211.4375 248.925781 282.660156 162.277344 282.660156 C 75.632812 282.660156 5.3125 211.4375 5.3125 123.503906 C 5.3125 35.574219 75.632812 -35.648438 162.277344 -35.648438 C 248.925781 -35.648438 319.246094 35.574219 319.246094 123.503906 Z M 319.246094 123.503906 "/>
</clipPath>
</defs>
<g id="surface1">
<rect x="0" y="0" width="324" height="234" style="fill:url(#linear0);stroke:none;"/>
<path style="fill:none;stroke-width:1.021703;stroke-linecap:butt;stroke-linejoin:miter;stroke:rgb(100%,100%,100%);stroke-opacity:1;stroke-miterlimit:4;" d="M -0.94401 -1.082899 L 181.217448 -1.082899 L 181.217448 130.605469 L -0.94401 130.605469 Z M -0.94401 -1.082899 " transform="matrix(1.8,0,0,1.8,0,0)"/>
<g clip-path="url(#clip1)" clip-rule="nonzero">
<g clip-path="url(#clip2)" clip-rule="nonzero">
<path style=" stroke:none;fill-rule:nonzero;fill:rgb(97.647059%,97.647059%,97.647059%);fill-opacity:1;" d="M 143.101562 54.308594 C 139.238281 54.417969 135.265625 55.0625 131.371094 56.472656 C 114.710938 62.417969 102.070312 79.71875 98.339844 101.210938 C 87.386719 103.992188 77.917969 114.046875 74.636719 128.675781 C 70.078125 149.40625 79.671875 171.03125 95.9375 176.871094 C 96.203125 176.953125 96.367188 177.03125 96.632812 177.085938 C 98.871094 178.136719 101.566406 178.84375 104.070312 178.84375 L 107.695312 178.84375 C 107.695312 178.84375 114.519531 172.007812 114.519531 165.003906 L 114.519531 81.992188 C 114.519531 75.074219 121.132812 68.152344 121.132812 68.152344 L 141.578125 68.152344 C 141.578125 68.152344 134.992188 75.074219 134.992188 81.992188 L 134.992188 102.753906 L 189.726562 102.753906 L 189.726562 81.992188 C 189.726562 78.535156 191.277344 75.074219 192.929688 72.480469 C 191.992188 72.695312 191.113281 72.992188 190.15625 73.34375 C 187.039062 74.453125 184.238281 76.078125 181.625 78.320312 C 172.664062 62.9375 158.300781 53.859375 143.054688 54.316406 M 123.277344 75.074219 C 122.238281 77.183594 121.359375 79.585938 121.359375 81.992188 L 128.183594 81.992188 C 128.183594 79.585938 129.035156 77.183594 130.074219 75.074219 M 198.523438 75.074219 C 197.488281 77.183594 196.605469 79.585938 196.605469 81.992188 L 203.429688 81.992188 C 203.429688 79.585938 204.285156 77.183594 205.320312 75.074219 M 211.933594 75.722656 C 211 77.695312 210.226562 79.75 210.226562 81.992188 L 210.226562 165.003906 C 210.226562 172.0625 203.429688 178.84375 203.429688 178.84375 L 222.171875 178.84375 C 226.382812 178.84375 230.140625 177.195312 233.445312 174.519531 C 246.671875 166.519531 253.917969 147.246094 249.867188 128.703125 C 246.855469 115 238.347656 105.160156 228.355469 101.671875 C 228.199219 101.21875 228.199219 100.835938 228.144531 100.371094 C 225.664062 89.183594 219.585938 80.421875 211.933594 75.613281 M 121.371094 88.914062 L 121.371094 95.832031 L 128.195312 95.832031 L 128.195312 88.914062 M 196.578125 88.914062 L 196.578125 95.832031 L 203.402344 95.832031 L 203.402344 88.914062 M 121.371094 102.726562 L 121.371094 109.644531 L 128.195312 109.644531 L 128.195312 102.726562 M 196.578125 102.726562 L 196.578125 109.644531 L 203.402344 109.644531 L 203.402344 102.726562 M 135.019531 109.644531 L 135.019531 144.246094 L 189.753906 144.246094 L 189.753906 109.644531 M 121.371094 116.566406 L 121.371094 123.484375 L 128.195312 123.484375 L 128.195312 116.566406 M 196.578125 116.566406 L 196.578125 123.484375 L 203.402344 123.484375 L 203.402344 116.566406 M 121.371094 130.378906 L 121.371094 137.296875 L 128.195312 137.296875 L 128.195312 130.378906 M 196.578125 130.378906 L 196.578125 137.296875 L 203.402344 137.296875 L 203.402344 130.378906 M 121.371094 144.214844 L 121.371094 151.136719 L 128.195312 151.136719 L 128.195312 144.214844 M 196.578125 144.214844 L 196.578125 151.136719 L 203.402344 151.136719 L 203.402344 144.214844 M 135.019531 151.136719 L 135.019531 164.949219 C 135.019531 171.730469 128.195312 178.789062 128.195312 178.789062 L 182.929688 178.789062 C 182.929688 178.789062 189.753906 171.867188 189.753906 164.949219 L 189.753906 151.136719 M 121.371094 158.054688 L 121.371094 164.949219 L 128.195312 164.949219 L 128.195312 158.054688 M 196.578125 158.054688 L 196.578125 164.949219 L 203.402344 164.949219 L 203.402344 158.054688 M 119.425781 171.867188 C 117.398438 175.839844 114.519531 178.789062 114.519531 178.789062 L 121.34375 178.789062 C 121.34375 178.789062 124.222656 175.839844 126.25 171.867188 M 194.632812 171.867188 C 192.605469 175.839844 189.726562 178.789062 189.726562 178.789062 L 196.550781 178.789062 C 196.550781 178.789062 199.433594 175.839844 201.457031 171.867188 M 194.632812 171.867188 "/>
</g>
</g>
</g>
</svg>
