<?xml version="1.0" encoding="UTF-8"?>
<svg xmlns="http://www.w3.org/2000/svg" xmlns:xlink="http://www.w3.org/1999/xlink" width="324px" height="234px" viewBox="0 0 324 234" version="1.1">
<defs>
<linearGradient id="linear0" gradientUnits="userSpaceOnUse" x1="-1.455352" y1="64.761543" x2="181.728165" y2="64.761543" gradientTransform="matrix(0.00000000000000011,-1.8,1.8,0.00000000000000011,-0.00000343323,86.399997)">
<stop offset="0" style="stop-color:rgb(34.117648%,34.117648%,34.117648%);stop-opacity:1;"/>
<stop offset="1" style="stop-color:rgb(38.039216%,38.039216%,38.039216%);stop-opacity:1;"/>
</linearGradient>
</defs>
<g id="surface1">
<rect x="0" y="0" width="324" height="234" style="fill:url(#linear0);stroke:none;"/>
<path style="fill:none;stroke-width:1.021703;stroke-linecap:butt;stroke-linejoin:miter;stroke:rgb(100%,100%,100%);stroke-opacity:1;stroke-miterlimit:4;" d="M -0.94401 -1.082899 L 181.217448 -1.082899 L 181.217448 130.605469 L -0.94401 130.605469 Z M -0.94401 -1.082899 " transform="matrix(1.8,0,0,1.8,0,0)"/>
<path style=" stroke:none;fill-rule:nonzero;fill:rgb(8.235294%,73.725492%,72.156864%);fill-opacity:1;" d="M 143.824219 53.152344 C 120.035156 53.121094 102.648438 74.535156 91.535156 99.480469 C 77.046875 131.984375 61.761719 180.03125 91.257812 180.03125 C 122.296875 180.03125 148.089844 159.804688 166.324219 144.519531 C 172.941406 158.675781 182.570312 180.03125 196.023438 180.03125 C 209.476562 180.03125 221.738281 173.8125 227.730469 168.273438 L 250.078125 131.742188 L 247.660156 128.472656 C 219.375 144.921875 209.726562 156.234375 193.832031 120.730469 L 213.894531 99.078125 L 243.355469 56.269531 L 241.183594 53.113281 L 188.175781 107.605469 C 179.597656 86.75 161.96875 53.175781 143.804688 53.152344 M 123.960938 80.089844 C 140.804688 80.089844 150.683594 109.214844 160.59375 130.796875 C 145.980469 140.550781 126.886719 152.585938 112.890625 149.222656 C 96.304688 145.230469 92.082031 124.863281 98.761719 109.5625 C 104.6875 95.222656 111.960938 80.105469 123.9375 80.105469 "/>
</g>
</svg>
