<?xml version="1.0" encoding="UTF-8"?>
<svg xmlns="http://www.w3.org/2000/svg" xmlns:xlink="http://www.w3.org/1999/xlink" width="324px" height="234px" viewBox="0 0 324 234" version="1.1">
<defs>
<radialGradient id="radial0" gradientUnits="userSpaceOnUse" cx="90.136406" cy="64.761543" fx="90.136406" fy="64.761543" r="91.08091" gradientTransform="matrix(1.8,0,0,1.301264,0,32.298905)">
<stop offset="0" style="stop-color:rgb(16.078432%,50.196081%,72.549021%);stop-opacity:1;"/>
<stop offset="1" style="stop-color:rgb(20.392157%,28.627452%,36.862746%);stop-opacity:1;"/>
</radialGradient>
</defs>
<g id="surface1">
<rect x="0" y="0" width="324" height="234" style="fill:url(#radial0);stroke:none;"/>
<path style=" stroke:none;fill-rule:nonzero;fill:rgb(40.392157%,58.039218%,69.01961%);fill-opacity:1;" d="M 231.242188 82.71875 C 218.714844 57.449219 192.609375 40.0625 162.425781 40.0625 C 135.996094 40.0625 112.433594 53.777344 98.628906 74.046875 L 133.878906 134.234375 Z M 231.242188 82.71875 "/>
<path style=" stroke:none;fill-rule:nonzero;fill:rgb(57.254905%,71.372551%,80.000001%);fill-opacity:1;" d="M 157.300781 192.898438 C 185.507812 194.847656 213.148438 180.816406 228.367188 154.832031 C 241.6875 132.078125 241.84375 104.824219 231.246094 82.71875 L 161.949219 82.570312 Z M 157.300781 192.898438 "/>
<path style=" stroke:none;fill-rule:nonzero;fill:rgb(69.411767%,79.607844%,85.490197%);fill-opacity:1;" d="M 133.878906 134.234375 L 98.628906 74.046875 C 90.453125 86.210938 85.679688 100.835938 85.679688 116.578125 C 85.679688 157.117188 117.308594 190.269531 157.300781 192.898438 L 193.101562 131.953125 Z M 133.878906 134.234375 "/>
<path style=" stroke:none;fill-rule:nonzero;fill:rgb(100%,100%,100%);fill-opacity:1;" d="M 163.894531 152.882812 C 143.789062 152.882812 127.433594 136.535156 127.433594 116.445312 C 127.433594 96.359375 143.789062 80.019531 163.894531 80.019531 C 183.992188 80.019531 200.351562 96.359375 200.351562 116.445312 C 200.351562 136.53125 183.996094 152.882812 163.894531 152.882812 Z M 163.894531 152.882812 "/>
<path style=" stroke:none;fill-rule:nonzero;fill:rgb(65.882355%,80.784315%,89.019608%);fill-opacity:1;" d="M 193.0625 116.445312 C 193.0625 132.542969 180.003906 145.59375 163.894531 145.59375 C 147.785156 145.59375 134.722656 132.542969 134.722656 116.445312 C 134.722656 100.351562 147.785156 87.300781 163.894531 87.300781 C 180.003906 87.300781 193.0625 100.351562 193.0625 116.445312 Z M 193.0625 116.445312 "/>
</g>
</svg>
