<?xml version="1.0" encoding="UTF-8"?>
<svg xmlns="http://www.w3.org/2000/svg" xmlns:xlink="http://www.w3.org/1999/xlink" width="324px" height="234px" viewBox="0 0 324 234" version="1.1">
<defs>
<linearGradient id="linear0" gradientUnits="userSpaceOnUse" x1="-1.455352" y1="64.761543" x2="181.728165" y2="64.761543" gradientTransform="matrix(1.8,0,0,1.8,0,0)">
<stop offset="0" style="stop-color:rgb(12.156863%,57.647061%,72.549021%);stop-opacity:1;"/>
<stop offset="1" style="stop-color:rgb(10.196079%,36.078432%,60.784316%);stop-opacity:1;"/>
</linearGradient>
<clipPath id="clip1">
  <path d="M 86 40 L 239 40 L 239 193 L 86 193 Z M 86 40 "/>
</clipPath>
<clipPath id="clip2">
  <path d="M 320.808594 116.558594 C 320.808594 196.917969 249.769531 262.003906 162.242188 262.003906 C 74.714844 262.003906 3.675781 196.917969 3.675781 116.558594 C 3.675781 36.199219 74.714844 -28.886719 162.242188 -28.886719 C 249.769531 -28.886719 320.808594 36.199219 320.808594 116.558594 Z M 320.808594 116.558594 "/>
</clipPath>
</defs>
<g id="surface1">
<rect x="0" y="0" width="324" height="234" style="fill:url(#linear0);stroke:none;"/>
<path style="fill:none;stroke-width:1.021703;stroke-linecap:butt;stroke-linejoin:miter;stroke:rgb(100%,100%,100%);stroke-opacity:1;stroke-miterlimit:4;" d="M -0.94401 -1.082899 L 181.217448 -1.082899 L 181.217448 130.605469 L -0.94401 130.605469 Z M -0.94401 -1.082899 " transform="matrix(1.8,0,0,1.8,0,0)"/>
<g clip-path="url(#clip1)" clip-rule="nonzero">
<g clip-path="url(#clip2)" clip-rule="nonzero">
<path style=" stroke:none;fill-rule:evenodd;fill:rgb(100%,100%,100%);fill-opacity:1;" d="M 164.449219 120.636719 C 163.207031 115.648438 169.757812 112.734375 174.195312 113.277344 C 182.925781 114.339844 187.039062 123.308594 185.046875 130.472656 C 182.007812 141.394531 168.488281 146.304688 157.402344 143.042969 C 142.34375 138.597656 135.746094 122.59375 140.917969 109.402344 C 147.488281 92.65625 168.902344 85.414062 186.453125 91.636719 C 207.859375 99.246094 217.023438 122.636719 208.589844 141.707031 C 198.628906 164.359375 169.164062 173.949219 145.171875 164.683594 C 117.320312 153.964844 105.640625 123.160156 117.320312 98.15625 C 130.699219 69.625 168.246094 57.71875 198.648438 69.996094 C 232.878906 83.808594 247.183594 122.042969 232.121094 152.964844 C 215.394531 187.371094 169.730469 201.652344 132.90625 186.335938 C 92.292969 169.4375 75.464844 123.742188 93.777344 86.933594 C 108.128906 58.058594 140.988281 39.898438 175.375 40.710938 "/>
</g>
</g>
</g>
</svg>
