<?xml version="1.0" encoding="UTF-8"?>
<svg xmlns="http://www.w3.org/2000/svg" xmlns:xlink="http://www.w3.org/1999/xlink" width="324px" height="234px" viewBox="0 0 324 234" version="1.1">
<g id="surface1">
<rect x="0" y="0" width="324" height="234" style="fill:rgb(68.627453%,14.117648%,50.980395%);fill-opacity:1;stroke:none;"/>
<path style="fill:none;stroke-width:1.021703;stroke-linecap:butt;stroke-linejoin:miter;stroke:rgb(100%,100%,100%);stroke-opacity:1;stroke-miterlimit:4;" d="M -0.94401 -1.082899 L 181.217448 -1.082899 L 181.217448 130.605469 L -0.94401 130.605469 Z M -0.94401 -1.082899 " transform="matrix(1.8,0,0,1.8,0,0)"/>
<path style=" stroke:none;fill-rule:nonzero;fill:rgb(62.352943%,73.333335%,65.490198%);fill-opacity:1;" d="M 72.820312 188.769531 C 73.324219 189.355469 73.769531 190.007812 74.320312 190.546875 C 75.167969 191.371094 76.144531 192.070312 77.105469 192.785156 L 244.359375 192.785156 C 245.324219 192.070312 246.300781 191.371094 247.144531 190.546875 C 247.695312 190.007812 248.140625 189.355469 248.644531 188.769531 Z M 72.820312 188.769531 "/>
<path style=" stroke:none;fill-rule:nonzero;fill:rgb(18.431373%,68.235296%,91.37255%);fill-opacity:1;" d="M 72.957031 40.359375 C 72.597656 41.601562 72.324219 43.007812 72.03125 44.371094 L 252.460938 44.371094 C 252.164062 43.007812 251.890625 41.601562 251.53125 40.359375 Z M 72.957031 40.359375 "/>
<path style=" stroke:none;fill-rule:nonzero;fill:rgb(93.725491%,94.117647%,94.509804%);fill-opacity:1;" d="M 119.195312 150.628906 C 119.195312 158.390625 112.753906 164.683594 104.8125 164.683594 C 96.871094 164.683594 90.429688 158.390625 90.429688 150.628906 C 90.429688 142.871094 96.871094 136.578125 104.8125 136.578125 C 112.753906 136.578125 119.195312 142.871094 119.195312 150.628906 Z M 119.195312 150.628906 "/>
<path style=" stroke:none;fill-rule:nonzero;fill:rgb(23.921569%,68.235296%,99.215686%);fill-opacity:1;" d="M 115.085938 150.628906 C 115.085938 156.175781 110.484375 160.667969 104.8125 160.667969 C 99.140625 160.667969 94.539062 156.175781 94.539062 150.628906 C 94.539062 145.085938 99.140625 140.59375 104.8125 140.59375 C 110.484375 140.59375 115.085938 145.085938 115.085938 150.628906 Z M 115.085938 150.628906 "/>
<path style=" stroke:none;fill-rule:nonzero;fill:rgb(93.725491%,94.117647%,94.509804%);fill-opacity:1;" d="M 119.195312 114.5 C 119.195312 122.257812 112.753906 128.550781 104.8125 128.550781 C 96.871094 128.550781 90.429688 122.257812 90.429688 114.5 C 90.429688 106.738281 96.871094 100.449219 104.8125 100.449219 C 112.753906 100.449219 119.195312 106.738281 119.195312 114.5 Z M 119.195312 114.5 "/>
<path style=" stroke:none;fill-rule:nonzero;fill:rgb(23.921569%,68.235296%,99.215686%);fill-opacity:1;" d="M 115.085938 114.5 C 115.085938 120.042969 110.484375 124.535156 104.8125 124.535156 C 99.140625 124.535156 94.539062 120.042969 94.539062 114.5 C 94.539062 108.957031 99.140625 104.460938 104.8125 104.460938 C 110.484375 104.460938 115.085938 108.957031 115.085938 114.5 Z M 115.085938 114.5 "/>
<path style=" stroke:none;fill-rule:nonzero;fill:rgb(85.490197%,26.666668%,32.549021%);fill-opacity:1;" d="M 123.304688 72.347656 L 131.523438 72.347656 L 131.523438 76.359375 L 123.304688 76.359375 Z M 123.304688 72.347656 "/>
<path style=" stroke:none;fill-rule:nonzero;fill:rgb(85.490197%,26.666668%,32.549021%);fill-opacity:1;" d="M 135.632812 72.347656 L 147.957031 72.347656 L 147.957031 76.359375 L 135.632812 76.359375 Z M 135.632812 72.347656 "/>
<path style=" stroke:none;fill-rule:nonzero;fill:rgb(74.509805%,64.705884%,65.098041%);fill-opacity:1;" d="M 160.285156 72.347656 L 172.613281 72.347656 L 172.613281 76.359375 L 160.285156 76.359375 Z M 160.285156 72.347656 "/>
<path style=" stroke:none;fill-rule:nonzero;fill:rgb(74.509805%,64.705884%,65.098041%);fill-opacity:1;" d="M 180.832031 72.347656 L 205.484375 72.347656 L 205.484375 76.359375 L 180.832031 76.359375 Z M 180.832031 72.347656 "/>
<path style=" stroke:none;fill-rule:nonzero;fill:rgb(74.509805%,64.705884%,65.098041%);fill-opacity:1;" d="M 209.59375 72.347656 L 226.03125 72.347656 L 226.03125 76.359375 L 209.59375 76.359375 Z M 209.59375 72.347656 "/>
<path style=" stroke:none;fill-rule:nonzero;fill:rgb(74.117649%,76.47059%,78.039217%);fill-opacity:1;" d="M 123.304688 80.375 L 139.738281 80.375 L 139.738281 84.390625 L 123.304688 84.390625 Z M 123.304688 80.375 "/>
<path style=" stroke:none;fill-rule:nonzero;fill:rgb(74.117649%,76.47059%,78.039217%);fill-opacity:1;" d="M 143.847656 80.375 L 152.066406 80.375 L 152.066406 84.390625 L 143.847656 84.390625 Z M 143.847656 80.375 "/>
<path style=" stroke:none;fill-rule:nonzero;fill:rgb(74.509805%,64.705884%,65.098041%);fill-opacity:1;" d="M 160.285156 80.375 L 193.160156 80.375 L 193.160156 84.390625 L 160.285156 84.390625 Z M 160.285156 80.375 "/>
<path style=" stroke:none;fill-rule:nonzero;fill:rgb(23.921569%,68.235296%,99.215686%);fill-opacity:1;" d="M 123.304688 108.476562 L 131.523438 108.476562 L 131.523438 112.492188 L 123.304688 112.492188 Z M 123.304688 108.476562 "/>
<path style=" stroke:none;fill-rule:nonzero;fill:rgb(23.921569%,68.235296%,99.215686%);fill-opacity:1;" d="M 135.632812 108.476562 L 147.957031 108.476562 L 147.957031 112.492188 L 135.632812 112.492188 Z M 135.632812 108.476562 "/>
<path style=" stroke:none;fill-rule:nonzero;fill:rgb(74.509805%,64.705884%,65.098041%);fill-opacity:1;" d="M 160.285156 108.476562 L 176.722656 108.476562 L 176.722656 112.492188 L 160.285156 112.492188 Z M 160.285156 108.476562 "/>
<path style=" stroke:none;fill-rule:nonzero;fill:rgb(74.509805%,64.705884%,65.098041%);fill-opacity:1;" d="M 184.941406 108.476562 L 201.375 108.476562 L 201.375 112.492188 L 184.941406 112.492188 Z M 184.941406 108.476562 "/>
<path style=" stroke:none;fill-rule:nonzero;fill:rgb(74.509805%,64.705884%,65.098041%);fill-opacity:1;" d="M 205.484375 108.476562 L 226.03125 108.476562 L 226.03125 112.492188 L 205.484375 112.492188 Z M 205.484375 108.476562 "/>
<path style=" stroke:none;fill-rule:nonzero;fill:rgb(74.117649%,76.47059%,78.039217%);fill-opacity:1;" d="M 123.304688 116.507812 L 135.632812 116.507812 L 135.632812 120.519531 L 123.304688 120.519531 Z M 123.304688 116.507812 "/>
<path style=" stroke:none;fill-rule:nonzero;fill:rgb(74.509805%,64.705884%,65.098041%);fill-opacity:1;" d="M 160.285156 116.507812 L 172.613281 116.507812 L 172.613281 120.519531 L 160.285156 120.519531 Z M 160.285156 116.507812 "/>
<path style=" stroke:none;fill-rule:nonzero;fill:rgb(74.509805%,64.705884%,65.098041%);fill-opacity:1;" d="M 176.722656 116.507812 L 180.832031 116.507812 L 180.832031 120.519531 L 176.722656 120.519531 Z M 176.722656 116.507812 "/>
<path style=" stroke:none;fill-rule:nonzero;fill:rgb(74.509805%,64.705884%,65.098041%);fill-opacity:1;" d="M 184.941406 116.507812 L 205.484375 116.507812 L 205.484375 120.519531 L 184.941406 120.519531 Z M 184.941406 116.507812 "/>
<path style=" stroke:none;fill-rule:nonzero;fill:rgb(74.509805%,64.705884%,65.098041%);fill-opacity:1;" d="M 205.484375 152.636719 L 197.269531 152.636719 L 197.269531 156.652344 L 205.484375 156.652344 Z M 205.484375 152.636719 "/>
<path style=" stroke:none;fill-rule:nonzero;fill:rgb(74.509805%,64.705884%,65.098041%);fill-opacity:1;" d="M 193.160156 152.636719 L 160.285156 152.636719 L 160.285156 156.652344 L 193.160156 156.652344 Z M 193.160156 152.636719 "/>
<path style=" stroke:none;fill-rule:nonzero;fill:rgb(74.117649%,76.47059%,78.039217%);fill-opacity:1;" d="M 152.066406 152.636719 L 123.304688 152.636719 L 123.304688 156.652344 L 152.066406 156.652344 Z M 152.066406 152.636719 "/>
<path style=" stroke:none;fill-rule:nonzero;fill:rgb(58.431375%,64.705884%,65.098041%);fill-opacity:1;" d="M 226.03125 144.609375 L 217.8125 144.609375 L 217.8125 148.625 L 226.03125 148.625 Z M 226.03125 144.609375 "/>
<path style=" stroke:none;fill-rule:nonzero;fill:rgb(58.431375%,64.705884%,65.098041%);fill-opacity:1;" d="M 213.703125 144.609375 L 201.375 144.609375 L 201.375 148.625 L 213.703125 148.625 Z M 213.703125 144.609375 "/>
<path style=" stroke:none;fill-rule:nonzero;fill:rgb(58.431375%,64.705884%,65.098041%);fill-opacity:1;" d="M 197.269531 144.609375 L 160.285156 144.609375 L 160.285156 148.625 L 197.269531 148.625 Z M 197.269531 144.609375 "/>
<path style=" stroke:none;fill-rule:nonzero;fill:rgb(23.921569%,68.235296%,99.215686%);fill-opacity:1;" d="M 143.847656 144.609375 L 123.304688 144.609375 L 123.304688 148.625 L 143.847656 148.625 Z M 143.847656 144.609375 "/>
<path style=" stroke:none;fill-rule:evenodd;fill:rgb(93.725491%,94.117647%,94.509804%);fill-opacity:1;" d="M 104.8125 63.996094 L 90.425781 69.886719 C 90.425781 69.886719 92.136719 77.519531 93.988281 81.929688 C 94.914062 84.140625 96.042969 86.429688 97.640625 88.421875 C 99.242188 90.410156 101.605469 92.394531 104.8125 92.394531 C 108.019531 92.394531 110.375 90.410156 111.976562 88.421875 C 113.574219 86.429688 114.703125 84.140625 115.628906 81.929688 C 117.480469 77.503906 119.199219 69.886719 119.199219 69.886719 Z M 104.8125 63.996094 "/>
<path style=" stroke:none;fill-rule:evenodd;fill:rgb(85.490197%,26.666668%,32.549021%);fill-opacity:1;" d="M 94.539062 72.347656 L 104.8125 68.332031 L 115.085938 72.347656 C 115.085938 72.347656 111.273438 88.402344 104.8125 88.402344 C 98.351562 88.402344 94.539062 72.347656 94.539062 72.347656 "/>
</g>
</svg>
