<?xml version="1.0" encoding="UTF-8"?>
<svg xmlns="http://www.w3.org/2000/svg" xmlns:xlink="http://www.w3.org/1999/xlink" width="324px" height="234px" viewBox="0 0 324 234" version="1.1">
<defs>
<radialGradient id="radial0" gradientUnits="userSpaceOnUse" cx="90.136002" cy="64.761497" fx="90.136002" fy="64.761497" r="91.592003" gradientTransform="matrix(1.8,0,0,1.300043,0,32.020401)">
<stop offset="0" style="stop-color:rgb(81.960785%,10.588235%,34.509805%);stop-opacity:1;"/>
<stop offset="1" style="stop-color:rgb(50.588238%,6.666667%,22.352941%);stop-opacity:1;"/>
</radialGradient>
</defs>
<g id="surface1">
<rect x="0" y="0" width="324" height="234" style="fill:url(#radial0);stroke:none;"/>
<path style="fill:none;stroke-width:1.022;stroke-linecap:butt;stroke-linejoin:miter;stroke:rgb(100%,100%,100%);stroke-opacity:1;stroke-miterlimit:2;" d="M -0.94401 -1.084054 L 181.217448 -1.084054 L 181.217448 130.606798 L -0.94401 130.606798 Z M -0.94401 -1.084054 " transform="matrix(1.8,0,0,1.794479,0,0)"/>
<path style=" stroke:none;fill-rule:evenodd;fill:rgb(100%,100%,100%);fill-opacity:1;" d="M 165.332031 119.746094 C 163.617188 121.390625 160.871094 121.390625 159.160156 119.746094 C 143.613281 104.832031 135.839844 92.917969 135.839844 84 C 135.839844 69.769531 147.660156 58.230469 162.246094 58.230469 C 176.828125 58.230469 188.652344 69.769531 188.652344 84 C 188.652344 92.917969 180.878906 104.832031 165.332031 119.746094 Z M 167.089844 133.15625 C 166.488281 130.886719 167.863281 128.566406 170.175781 127.941406 C 191.1875 122.257812 205.648438 121.648438 213.5625 126.105469 C 226.191406 133.222656 230.519531 148.980469 223.226562 161.304688 C 215.933594 173.628906 199.785156 177.855469 187.15625 170.738281 C 179.242188 166.28125 172.554688 153.753906 167.089844 133.15625 Z M 154.3125 127.941406 C 156.625 128.566406 158 130.886719 157.398438 133.15625 C 151.933594 153.753906 145.246094 166.28125 137.335938 170.738281 C 124.703125 177.855469 108.554688 173.628906 101.261719 161.304688 C 93.972656 148.980469 98.296875 133.222656 110.929688 126.105469 C 118.839844 121.648438 133.300781 122.257812 154.3125 127.941406 Z M 154.3125 127.941406 "/>
</g>
</svg>
