<?xml version="1.0" encoding="UTF-8"?>
<svg xmlns="http://www.w3.org/2000/svg" xmlns:xlink="http://www.w3.org/1999/xlink" width="324px" height="234px" viewBox="0 0 324 234" version="1.1">
<defs>
<linearGradient id="linear0" gradientUnits="userSpaceOnUse" x1="-1.455352" y1="64.761543" x2="181.728165" y2="64.761543" gradientTransform="matrix(1.8,0,0,1.8,-108.000007,1.494914)">
<stop offset="0" style="stop-color:rgb(100%,55.686277%,0%);stop-opacity:1;"/>
<stop offset="1" style="stop-color:rgb(94.117647%,53.333336%,1.960784%);stop-opacity:1;"/>
</linearGradient>
</defs>
<g id="surface1">
<rect x="0" y="0" width="324" height="234" style="fill:url(#linear0);stroke:none;"/>
<path style="fill:none;stroke-width:1.021703;stroke-linecap:butt;stroke-linejoin:miter;stroke:rgb(100%,100%,100%);stroke-opacity:1;stroke-miterlimit:4;" d="M -0.94401 -1.082899 L 181.217448 -1.082899 L 181.217448 130.605469 L -0.94401 130.605469 Z M -0.94401 -1.082899 " transform="matrix(1.8,0,0,1.8,0,0)"/>
<path style=" stroke:none;fill-rule:evenodd;fill:rgb(100%,100%,100%);fill-opacity:1;" d="M 143.992188 49.324219 L 180.496094 49.324219 C 185.539062 49.324219 189.625 53.476562 189.625 58.597656 L 189.625 91.0625 C 189.625 96.1875 185.539062 100.339844 180.496094 100.339844 L 143.992188 100.339844 C 138.953125 100.339844 134.867188 96.1875 134.867188 91.0625 L 134.867188 58.597656 C 134.867188 53.476562 138.953125 49.324219 143.992188 49.324219 Z M 143.992188 49.324219 "/>
<path style=" stroke:none;fill-rule:evenodd;fill:rgb(100%,100%,100%);fill-opacity:1;" d="M 98.363281 132.804688 L 139.429688 132.804688 C 144.46875 132.804688 148.554688 136.957031 148.554688 142.078125 L 148.554688 174.542969 C 148.554688 179.667969 144.46875 183.820312 139.429688 183.820312 L 98.363281 183.820312 C 93.324219 183.820312 89.238281 179.667969 89.238281 174.542969 L 89.238281 142.078125 C 89.238281 136.957031 93.324219 132.804688 98.363281 132.804688 Z M 98.363281 132.804688 "/>
<path style="fill:none;stroke-width:2;stroke-linecap:square;stroke-linejoin:miter;stroke:rgb(100%,100%,100%);stroke-opacity:1;stroke-miterlimit:4;" d="M -38.499577 19.330509 L -43.499829 27.330306 " transform="matrix(4.563052,0,0,4.637813,326.515405,8.368243)"/>
<path style="fill:none;stroke-width:2;stroke-linecap:square;stroke-linejoin:miter;stroke:rgb(100%,100%,100%);stroke-opacity:1;stroke-miterlimit:4;" d="M -33.500182 19.330509 L -28.49993 27.330306 " transform="matrix(4.563052,0,0,4.637813,326.515405,8.368243)"/>
<path style=" stroke:none;fill-rule:evenodd;fill:rgb(100%,100%,100%);fill-opacity:1;" d="M 185.0625 132.804688 L 226.128906 132.804688 C 231.167969 132.804688 235.253906 136.957031 235.253906 142.078125 L 235.253906 174.542969 C 235.253906 179.667969 231.167969 183.820312 226.128906 183.820312 L 185.0625 183.820312 C 180.019531 183.820312 175.933594 179.667969 175.933594 174.542969 L 175.933594 142.078125 C 175.933594 136.957031 180.019531 132.804688 185.0625 132.804688 Z M 185.0625 132.804688 "/>
</g>
</svg>
