<?xml version="1.0" encoding="UTF-8"?>
<svg xmlns="http://www.w3.org/2000/svg" xmlns:xlink="http://www.w3.org/1999/xlink" width="324px" height="234px" viewBox="0 0 324 234" version="1.1">
<g id="surface1">
<rect x="0" y="0" width="324" height="234" style="fill:rgb(48.627451%,53.333336%,0%);fill-opacity:1;stroke:none;"/>
<path style="fill:none;stroke-width:1.021703;stroke-linecap:butt;stroke-linejoin:miter;stroke:rgb(100%,100%,100%);stroke-opacity:1;stroke-miterlimit:4;" d="M -0.94401 -1.082899 L 181.217448 -1.082899 L 181.217448 130.605469 L -0.94401 130.605469 Z M -0.94401 -1.082899 " transform="matrix(1.8,0,0,1.8,0,0)"/>
<path style=" stroke:none;fill-rule:nonzero;fill:rgb(96.470588%,89.019608%,21.176471%);fill-opacity:1;" d="M 143.351562 45.164062 C 161.34375 50.65625 161.34375 83.613281 143.351562 89.105469 C 125.355469 83.613281 125.355469 50.65625 143.351562 45.164062 Z M 143.351562 45.164062 "/>
<path style=" stroke:none;fill-rule:nonzero;fill:rgb(96.470588%,89.019608%,21.176471%);fill-opacity:1;" d="M 156.847656 113.824219 L 167.644531 113.824219 L 167.644531 176.992188 L 183.839844 187.976562 L 140.652344 187.976562 L 156.847656 176.992188 Z M 156.847656 113.824219 "/>
<path style=" stroke:none;fill-rule:nonzero;fill:rgb(96.470588%,89.019608%,21.176471%);fill-opacity:1;" d="M 181.140625 45.164062 C 199.136719 50.65625 199.136719 83.613281 181.140625 89.105469 C 163.148438 83.613281 163.148438 50.65625 181.140625 45.164062 Z M 181.140625 45.164062 "/>
<path style=" stroke:none;fill-rule:nonzero;fill:rgb(96.470588%,89.019608%,21.176471%);fill-opacity:1;" d="M 230.5625 74.527344 C 238.917969 90.320312 217.425781 112.1875 201.90625 103.683594 C 193.546875 87.894531 215.039062 66.027344 230.5625 74.527344 Z M 230.5625 74.527344 "/>
<path style=" stroke:none;fill-rule:nonzero;fill:rgb(96.470588%,89.019608%,21.176471%);fill-opacity:1;" d="M 93.929688 74.527344 C 85.574219 90.320312 107.066406 112.1875 122.585938 103.683594 C 130.945312 87.894531 109.449219 66.027344 93.929688 74.527344 Z M 93.929688 74.527344 "/>
<path style=" stroke:none;fill-rule:evenodd;fill:rgb(96.470588%,89.019608%,21.176471%);fill-opacity:1;" d="M 140.652344 78.121094 L 140.652344 95.863281 L 162.246094 120.183594 L 183.839844 95.863281 L 183.839844 78.121094 L 178.441406 78.121094 L 178.441406 93.335938 L 162.246094 112.957031 L 146.050781 93.335938 L 146.050781 78.121094 M 120.679688 97.890625 L 117.429688 102.289062 L 141.238281 120.453125 L 123.800781 124.898438 L 125.109375 130.21875 L 146.703125 124.726562 L 146.671875 124.613281 L 162.246094 136.488281 L 177.820312 124.613281 L 177.789062 124.726562 L 199.382812 130.21875 L 200.691406 124.898438 L 183.253906 120.453125 L 207.0625 102.289062 L 203.808594 97.890625 L 162.246094 129.609375 "/>
<path style=" stroke:none;fill-rule:nonzero;fill:rgb(96.470588%,89.019608%,21.176471%);fill-opacity:1;" d="M 92.0625 135.773438 C 92.5625 117.394531 120.90625 109.195312 129.851562 124.835938 C 129.351562 143.214844 101.007812 151.417969 92.0625 135.773438 Z M 92.0625 135.773438 "/>
<path style=" stroke:none;fill-rule:nonzero;fill:rgb(96.470588%,89.019608%,21.176471%);fill-opacity:1;" d="M 232.429688 135.773438 C 231.925781 117.394531 203.582031 109.195312 194.636719 124.835938 C 195.140625 143.214844 223.484375 151.417969 232.429688 135.773438 Z M 232.429688 135.773438 "/>
</g>
</svg>
