<?xml version="1.0" encoding="UTF-8"?>
<svg xmlns="http://www.w3.org/2000/svg" xmlns:xlink="http://www.w3.org/1999/xlink" width="324px" height="234px" viewBox="0 0 324 234" version="1.1">
<defs>
<linearGradient id="linear0" gradientUnits="userSpaceOnUse" x1="93.792587" y1="-0.574285" x2="94.270538" y2="145.710709" gradientTransform="matrix(1.8,0,0,1.8,0,0)">
<stop offset="0" style="stop-color:rgb(47.058824%,32.549021%,73.333335%);stop-opacity:1;"/>
<stop offset="1" style="stop-color:rgb(32.549021%,3.921569%,85.882354%);stop-opacity:1;"/>
</linearGradient>
</defs>
<g id="surface1">
<rect x="0" y="0" width="324" height="234" style="fill:url(#linear0);stroke:none;"/>
<path style="fill:none;stroke-width:1.021703;stroke-linecap:butt;stroke-linejoin:miter;stroke:rgb(100%,100%,100%);stroke-opacity:1;stroke-miterlimit:4;" d="M -0.94401 -1.082899 L 181.217448 -1.082899 L 181.217448 130.605469 L -0.94401 130.605469 Z M -0.94401 -1.082899 " transform="matrix(1.8,0,0,1.8,0,0)"/>
<path style=" stroke:none;fill-rule:evenodd;fill:rgb(100%,100%,100%);fill-opacity:1;" d="M 195.507812 38.800781 L 192.242188 49.414062 L 192.316406 98.371094 L 204.488281 98.371094 L 204.488281 104.902344 L 211.019531 104.902344 L 217.550781 98.371094 L 228.984375 98.371094 L 250.207031 77.144531 L 250.207031 38.800781 Z M 244.464844 73.90625 L 235.484375 82.890625 L 220.789062 82.890625 L 212.625 91.054688 L 212.625 82.890625 L 200.40625 82.890625 L 200.40625 44.515625 L 244.492188 44.515625 L 244.492188 73.910156 Z M 229.769531 55.128906 L 235.515625 55.128906 L 235.515625 71.457031 L 229.769531 71.457031 Z M 215.074219 55.128906 L 220.820312 55.128906 L 220.820312 71.457031 L 215.074219 71.457031 Z M 284.472656 131.054688 L 284.472656 169.425781 L 263.246094 184.121094 L 250.210938 184.121094 L 250.210938 177.597656 L 240.414062 184.128906 L 228.984375 184.128906 L 228.984375 177.597656 L 221.636719 184.128906 L 200.414062 184.128906 L 193.882812 177.597656 L 192.25 184.128906 L 173.511719 184.078125 L 166.128906 177.597656 L 165.308594 184.128906 L 144.085938 184.078125 L 143.261719 177.597656 L 137.519531 184.078125 L 104.863281 184.128906 L 98.332031 180.863281 L 98.332031 184.128906 L 80.390625 184.128906 L 60.796875 171.878906 L 48.546875 159.632812 L 48.546875 105.753906 L 73.859375 105.753906 L 86.105469 118 L 141.628906 118 L 141.628906 105.746094 L 187.347656 105.746094 L 187.347656 117.996094 L 198.78125 117.996094 L 198.78125 124.527344 L 205.3125 117.996094 L 219.191406 117.996094 L 231.4375 105.746094 L 257.5625 105.746094 L 257.5625 117.996094 L 271.445312 117.996094 Z M 80.390625 123.710938 L 68.957031 123.710938 L 68.957031 111.460938 L 54.269531 111.460938 L 54.269531 157.183594 L 63.253906 166.980469 L 80.402344 166.980469 L 80.402344 151.464844 L 68.96875 151.464844 L 68.96875 138.402344 L 80.402344 138.402344 L 80.402344 123.707031 Z M 141.621094 123.710938 L 126.925781 123.710938 L 126.925781 151.472656 L 121.183594 151.472656 L 121.183594 123.710938 L 107.304688 123.710938 L 107.304688 151.472656 L 101.558594 151.472656 L 101.558594 123.710938 L 86.105469 123.710938 L 86.105469 166.980469 L 131.824219 166.980469 L 141.621094 157.183594 L 141.621094 123.703125 Z M 161.214844 123.710938 L 147.34375 123.710938 L 147.34375 166.980469 L 161.226562 166.980469 L 161.226562 123.710938 Z M 161.214844 111.460938 L 147.34375 111.460938 L 147.34375 117.996094 L 161.226562 117.996094 L 161.226562 111.460938 Z M 193.058594 123.710938 L 181.625 123.710938 L 181.625 111.460938 L 166.929688 111.460938 L 166.929688 157.183594 L 175.910156 166.980469 L 193.0625 166.980469 L 193.0625 151.464844 L 181.628906 151.464844 L 181.628906 138.402344 L 193.0625 138.402344 L 193.0625 123.707031 Z M 230.609375 123.710938 L 207.75 123.710938 L 198.769531 132.691406 L 198.769531 157.183594 L 208.566406 166.980469 L 230.609375 166.980469 L 230.609375 151.46875 L 214.28125 151.46875 L 214.28125 138.402344 L 230.609375 138.402344 L 230.609375 123.707031 Z M 278.78125 132.691406 L 268.984375 123.710938 L 251.835938 123.710938 L 251.835938 111.460938 L 236.320312 111.460938 L 236.320312 166.980469 L 251.835938 166.980469 L 251.835938 138.402344 L 263.265625 138.402344 L 263.265625 166.980469 L 278.78125 166.980469 L 278.78125 132.6875 Z M 278.78125 132.691406 "/>
</g>
</svg>
