<?xml version="1.0" encoding="UTF-8"?>
<svg xmlns="http://www.w3.org/2000/svg" xmlns:xlink="http://www.w3.org/1999/xlink" width="324px" height="234px" viewBox="0 0 324 234" version="1.1">
<defs>
<radialGradient id="radial0" gradientUnits="userSpaceOnUse" cx="90.136406" cy="64.761543" fx="90.136406" fy="64.761543" r="91.591759" gradientTransform="matrix(1.8,0,0,1.304046,0,32.11876)">
<stop offset="0" style="stop-color:rgb(31.764707%,25.490198%,100%);stop-opacity:1;"/>
<stop offset="1" style="stop-color:rgb(0%,75.294119%,100%);stop-opacity:1;"/>
</radialGradient>
<linearGradient id="linear0" gradientUnits="userSpaceOnUse" x1="24.751699" y1="3.0398" x2="24.751699" y2="28.888399" gradientTransform="matrix(3.639255,0,0,3.639216,74.853712,29.083646)">
<stop offset="0" style="stop-color:rgb(96.470588%,31.37255%,23.137255%);stop-opacity:1;"/>
<stop offset="0.2174" style="stop-color:rgb(94.901961%,27.843139%,20.784314%);stop-opacity:1;"/>
<stop offset="0.5719" style="stop-color:rgb(90.196079%,18.431373%,14.509805%);stop-opacity:1;"/>
<stop offset="1" style="stop-color:rgb(83.137256%,3.529412%,5.098039%);stop-opacity:1;"/>
</linearGradient>
<linearGradient id="linear1" gradientUnits="userSpaceOnUse" x1="17.7449" y1="12.3679" x2="17.7449" y2="44.990501" gradientTransform="matrix(3.639255,0,0,3.639216,74.853712,29.083646)">
<stop offset="0" style="stop-color:rgb(20.784314%,75.686276%,18.82353%);stop-opacity:1;"/>
<stop offset="0.3483" style="stop-color:rgb(20.392157%,74.117649%,18.82353%);stop-opacity:1;"/>
<stop offset="0.6809" style="stop-color:rgb(19.215687%,69.803923%,19.215687%);stop-opacity:1;"/>
<stop offset="1" style="stop-color:rgb(17.254902%,62.352943%,19.607843%);stop-opacity:1;"/>
</linearGradient>
<linearGradient id="linear2" gradientUnits="userSpaceOnUse" x1="24.4657" y1="16.0054" x2="24.4657" y2="32.005402" gradientTransform="matrix(3.639255,0,0,3.639216,74.853712,29.083646)">
<stop offset="0" style="stop-color:rgb(27.843139%,72.549021%,100%);stop-opacity:1;"/>
<stop offset="1" style="stop-color:rgb(23.921569%,54.11765%,100%);stop-opacity:1;"/>
</linearGradient>
</defs>
<g id="surface1">
<rect x="0" y="0" width="324" height="234" style="fill:url(#radial0);stroke:none;"/>
<path style="fill:none;stroke-width:1.021703;stroke-linecap:butt;stroke-linejoin:miter;stroke:rgb(100%,100%,100%);stroke-opacity:1;stroke-miterlimit:4;" d="M -0.94401 -1.082899 L 181.217448 -1.082899 L 181.217448 130.605469 L -0.94401 130.605469 Z M -0.94401 -1.082899 " transform="matrix(1.8,0,0,1.8,0,0)"/>
<path style=" stroke:none;fill-rule:nonzero;fill:url(#linear0);" d="M 231.117188 82.753906 C 218.613281 57.511719 192.554688 40.148438 162.425781 40.148438 C 136.042969 40.148438 112.523438 53.84375 98.746094 74.09375 L 133.929688 134.21875 Z M 231.117188 82.753906 "/>
<path style=" stroke:none;fill-rule:nonzero;fill:rgb(100%,80.784315%,0%);fill-opacity:1;" d="M 157.308594 192.816406 C 185.460938 194.761719 213.050781 180.746094 228.242188 154.789062 C 241.539062 132.0625 241.695312 104.835938 231.117188 82.753906 L 161.949219 82.609375 Z M 157.308594 192.816406 "/>
<path style=" stroke:none;fill-rule:nonzero;fill:url(#linear1);" d="M 133.933594 134.214844 L 98.75 74.09375 C 90.585938 86.242188 85.824219 100.851562 85.824219 116.574219 C 85.824219 157.066406 117.394531 190.1875 157.3125 192.8125 L 193.046875 131.929688 Z M 133.933594 134.214844 "/>
<path style=" stroke:none;fill-rule:nonzero;fill:rgb(100%,100%,100%);fill-opacity:1;" d="M 163.890625 152.839844 C 143.824219 152.839844 127.5 136.507812 127.5 116.441406 C 127.5 96.375 143.824219 80.054688 163.890625 80.054688 C 183.953125 80.054688 200.285156 96.375 200.285156 116.441406 C 200.285156 136.507812 183.953125 152.839844 163.890625 152.839844 Z M 163.890625 152.839844 "/>
<path style=" stroke:none;fill-rule:nonzero;fill:url(#linear2);" d="M 193.003906 116.441406 C 193.003906 132.523438 179.972656 145.558594 163.890625 145.558594 C 147.8125 145.558594 134.777344 132.523438 134.777344 116.441406 C 134.777344 100.363281 147.8125 87.328125 163.890625 87.328125 C 179.972656 87.328125 193.003906 100.363281 193.003906 116.441406 Z M 193.003906 116.441406 "/>
</g>
</svg>
