<?xml version="1.0" encoding="UTF-8"?>
<svg xmlns="http://www.w3.org/2000/svg" xmlns:xlink="http://www.w3.org/1999/xlink" width="324px" height="234px" viewBox="0 0 324 234" version="1.1">
<defs>
<radialGradient id="radial0" gradientUnits="userSpaceOnUse" cx="90.136406" cy="64.761543" fx="90.136406" fy="64.761543" r="91.591759" gradientTransform="matrix(1.8,0,0,1.304046,0,32.11876)">
<stop offset="0" style="stop-color:rgb(9.803922%,48.627451%,94.509804%);stop-opacity:1;"/>
<stop offset="1" style="stop-color:rgb(1.960784%,62.7451%,92.156863%);stop-opacity:1;"/>
</radialGradient>
<clipPath id="clip1">
  <path d="M 130 72 L 201 72 L 201 133 L 130 133 Z M 130 72 "/>
</clipPath>
<clipPath id="clip2">
  <path d="M 192.628906 72.425781 C 158.265625 72.425781 130.230469 96.488281 130.230469 125.992188 L 130.230469 132.976562 L 146.507812 132.976562 L 146.507812 125.992188 C 146.507812 104.042969 167.0625 86.398438 192.628906 86.398438 L 200.769531 86.398438 L 200.769531 72.425781 Z M 192.628906 100.371094 C 176.246094 100.371094 162.785156 111.925781 162.785156 125.992188 L 162.785156 132.976562 L 179.066406 132.976562 L 179.066406 125.992188 C 179.066406 119.476562 185.042969 114.347656 192.628906 114.347656 L 200.769531 114.347656 L 200.769531 100.371094 Z M 211.621094 132.976562 C 211.621094 138.125 206.761719 142.292969 200.769531 142.292969 C 194.777344 142.292969 189.917969 138.125 189.917969 132.976562 C 189.917969 127.832031 194.777344 123.664062 200.769531 123.664062 C 206.761719 123.664062 211.621094 127.832031 211.621094 132.976562 Z M 192.628906 44.476562 C 140.28125 44.476562 97.671875 81.054688 97.671875 125.992188 L 97.671875 132.976562 L 113.953125 132.976562 L 113.953125 125.992188 C 113.953125 88.605469 149.082031 58.449219 192.628906 58.449219 L 200.769531 58.449219 L 200.769531 44.476562 Z M 194.582031 151.609375 L 206.957031 151.609375 C 209.53125 151.609375 211.621094 153.695312 211.621094 156.269531 L 211.621094 184.214844 C 211.621094 186.789062 209.53125 188.875 206.957031 188.875 L 194.582031 188.875 C 192.007812 188.875 189.917969 186.789062 189.917969 184.214844 L 189.917969 156.269531 C 189.917969 153.695312 192.007812 151.609375 194.582031 151.609375 Z M 194.582031 151.609375 "/>
</clipPath>
<clipPath id="clip3">
  <path d="M 162 100 L 201 100 L 201 133 L 162 133 Z M 162 100 "/>
</clipPath>
<clipPath id="clip4">
  <path d="M 192.628906 72.425781 C 158.265625 72.425781 130.230469 96.488281 130.230469 125.992188 L 130.230469 132.976562 L 146.507812 132.976562 L 146.507812 125.992188 C 146.507812 104.042969 167.0625 86.398438 192.628906 86.398438 L 200.769531 86.398438 L 200.769531 72.425781 Z M 192.628906 100.371094 C 176.246094 100.371094 162.785156 111.925781 162.785156 125.992188 L 162.785156 132.976562 L 179.066406 132.976562 L 179.066406 125.992188 C 179.066406 119.476562 185.042969 114.347656 192.628906 114.347656 L 200.769531 114.347656 L 200.769531 100.371094 Z M 211.621094 132.976562 C 211.621094 138.125 206.761719 142.292969 200.769531 142.292969 C 194.777344 142.292969 189.917969 138.125 189.917969 132.976562 C 189.917969 127.832031 194.777344 123.664062 200.769531 123.664062 C 206.761719 123.664062 211.621094 127.832031 211.621094 132.976562 Z M 192.628906 44.476562 C 140.28125 44.476562 97.671875 81.054688 97.671875 125.992188 L 97.671875 132.976562 L 113.953125 132.976562 L 113.953125 125.992188 C 113.953125 88.605469 149.082031 58.449219 192.628906 58.449219 L 200.769531 58.449219 L 200.769531 44.476562 Z M 194.582031 151.609375 L 206.957031 151.609375 C 209.53125 151.609375 211.621094 153.695312 211.621094 156.269531 L 211.621094 184.214844 C 211.621094 186.789062 209.53125 188.875 206.957031 188.875 L 194.582031 188.875 C 192.007812 188.875 189.917969 186.789062 189.917969 184.214844 L 189.917969 156.269531 C 189.917969 153.695312 192.007812 151.609375 194.582031 151.609375 Z M 194.582031 151.609375 "/>
</clipPath>
<clipPath id="clip5">
  <path d="M 189 123 L 212 123 L 212 143 L 189 143 Z M 189 123 "/>
</clipPath>
<clipPath id="clip6">
  <path d="M 192.628906 72.425781 C 158.265625 72.425781 130.230469 96.488281 130.230469 125.992188 L 130.230469 132.976562 L 146.507812 132.976562 L 146.507812 125.992188 C 146.507812 104.042969 167.0625 86.398438 192.628906 86.398438 L 200.769531 86.398438 L 200.769531 72.425781 Z M 192.628906 100.371094 C 176.246094 100.371094 162.785156 111.925781 162.785156 125.992188 L 162.785156 132.976562 L 179.066406 132.976562 L 179.066406 125.992188 C 179.066406 119.476562 185.042969 114.347656 192.628906 114.347656 L 200.769531 114.347656 L 200.769531 100.371094 Z M 211.621094 132.976562 C 211.621094 138.125 206.761719 142.292969 200.769531 142.292969 C 194.777344 142.292969 189.917969 138.125 189.917969 132.976562 C 189.917969 127.832031 194.777344 123.664062 200.769531 123.664062 C 206.761719 123.664062 211.621094 127.832031 211.621094 132.976562 Z M 192.628906 44.476562 C 140.28125 44.476562 97.671875 81.054688 97.671875 125.992188 L 97.671875 132.976562 L 113.953125 132.976562 L 113.953125 125.992188 C 113.953125 88.605469 149.082031 58.449219 192.628906 58.449219 L 200.769531 58.449219 L 200.769531 44.476562 Z M 194.582031 151.609375 L 206.957031 151.609375 C 209.53125 151.609375 211.621094 153.695312 211.621094 156.269531 L 211.621094 184.214844 C 211.621094 186.789062 209.53125 188.875 206.957031 188.875 L 194.582031 188.875 C 192.007812 188.875 189.917969 186.789062 189.917969 184.214844 L 189.917969 156.269531 C 189.917969 153.695312 192.007812 151.609375 194.582031 151.609375 Z M 194.582031 151.609375 "/>
</clipPath>
<clipPath id="clip7">
  <path d="M 97 44 L 201 44 L 201 133 L 97 133 Z M 97 44 "/>
</clipPath>
<clipPath id="clip8">
  <path d="M 192.628906 72.425781 C 158.265625 72.425781 130.230469 96.488281 130.230469 125.992188 L 130.230469 132.976562 L 146.507812 132.976562 L 146.507812 125.992188 C 146.507812 104.042969 167.0625 86.398438 192.628906 86.398438 L 200.769531 86.398438 L 200.769531 72.425781 Z M 192.628906 100.371094 C 176.246094 100.371094 162.785156 111.925781 162.785156 125.992188 L 162.785156 132.976562 L 179.066406 132.976562 L 179.066406 125.992188 C 179.066406 119.476562 185.042969 114.347656 192.628906 114.347656 L 200.769531 114.347656 L 200.769531 100.371094 Z M 211.621094 132.976562 C 211.621094 138.125 206.761719 142.292969 200.769531 142.292969 C 194.777344 142.292969 189.917969 138.125 189.917969 132.976562 C 189.917969 127.832031 194.777344 123.664062 200.769531 123.664062 C 206.761719 123.664062 211.621094 127.832031 211.621094 132.976562 Z M 192.628906 44.476562 C 140.28125 44.476562 97.671875 81.054688 97.671875 125.992188 L 97.671875 132.976562 L 113.953125 132.976562 L 113.953125 125.992188 C 113.953125 88.605469 149.082031 58.449219 192.628906 58.449219 L 200.769531 58.449219 L 200.769531 44.476562 Z M 194.582031 151.609375 L 206.957031 151.609375 C 209.53125 151.609375 211.621094 153.695312 211.621094 156.269531 L 211.621094 184.214844 C 211.621094 186.789062 209.53125 188.875 206.957031 188.875 L 194.582031 188.875 C 192.007812 188.875 189.917969 186.789062 189.917969 184.214844 L 189.917969 156.269531 C 189.917969 153.695312 192.007812 151.609375 194.582031 151.609375 Z M 194.582031 151.609375 "/>
</clipPath>
<clipPath id="clip9">
  <path d="M 189 151 L 212 151 L 212 189 L 189 189 Z M 189 151 "/>
</clipPath>
<clipPath id="clip10">
  <path d="M 192.628906 72.425781 C 158.265625 72.425781 130.230469 96.488281 130.230469 125.992188 L 130.230469 132.976562 L 146.507812 132.976562 L 146.507812 125.992188 C 146.507812 104.042969 167.0625 86.398438 192.628906 86.398438 L 200.769531 86.398438 L 200.769531 72.425781 Z M 192.628906 100.371094 C 176.246094 100.371094 162.785156 111.925781 162.785156 125.992188 L 162.785156 132.976562 L 179.066406 132.976562 L 179.066406 125.992188 C 179.066406 119.476562 185.042969 114.347656 192.628906 114.347656 L 200.769531 114.347656 L 200.769531 100.371094 Z M 211.621094 132.976562 C 211.621094 138.125 206.761719 142.292969 200.769531 142.292969 C 194.777344 142.292969 189.917969 138.125 189.917969 132.976562 C 189.917969 127.832031 194.777344 123.664062 200.769531 123.664062 C 206.761719 123.664062 211.621094 127.832031 211.621094 132.976562 Z M 192.628906 44.476562 C 140.28125 44.476562 97.671875 81.054688 97.671875 125.992188 L 97.671875 132.976562 L 113.953125 132.976562 L 113.953125 125.992188 C 113.953125 88.605469 149.082031 58.449219 192.628906 58.449219 L 200.769531 58.449219 L 200.769531 44.476562 Z M 194.582031 151.609375 L 206.957031 151.609375 C 209.53125 151.609375 211.621094 153.695312 211.621094 156.269531 L 211.621094 184.214844 C 211.621094 186.789062 209.53125 188.875 206.957031 188.875 L 194.582031 188.875 C 192.007812 188.875 189.917969 186.789062 189.917969 184.214844 L 189.917969 156.269531 C 189.917969 153.695312 192.007812 151.609375 194.582031 151.609375 Z M 194.582031 151.609375 "/>
</clipPath>
</defs>
<g id="surface1">
<rect x="0" y="0" width="324" height="234" style="fill:url(#radial0);stroke:none;"/>
<path style="fill:none;stroke-width:1.021703;stroke-linecap:butt;stroke-linejoin:miter;stroke:rgb(100%,100%,100%);stroke-opacity:1;stroke-miterlimit:4;" d="M -0.94401 -1.082899 L 181.217448 -1.082899 L 181.217448 130.605469 L -0.94401 130.605469 Z M -0.94401 -1.082899 " transform="matrix(1.8,0,0,1.8,0,0)"/>
<g clip-path="url(#clip1)" clip-rule="nonzero">
<g clip-path="url(#clip2)" clip-rule="nonzero">
<path style=" stroke:none;fill-rule:nonzero;fill:rgb(100%,100%,100%);fill-opacity:0.594444;" d="M 192.628906 72.425781 C 158.265625 72.425781 130.230469 96.488281 130.230469 125.992188 L 130.230469 132.976562 L 146.507812 132.976562 L 146.507812 125.992188 C 146.507812 104.042969 167.0625 86.398438 192.628906 86.398438 L 200.769531 86.398438 L 200.769531 72.425781 Z M 192.628906 72.425781 "/>
</g>
</g>
<g clip-path="url(#clip3)" clip-rule="nonzero">
<g clip-path="url(#clip4)" clip-rule="nonzero">
<path style=" stroke:none;fill-rule:nonzero;fill:rgb(97.647059%,97.647059%,97.647059%);fill-opacity:0.306878;" d="M 192.628906 100.371094 C 176.246094 100.371094 162.785156 111.925781 162.785156 125.992188 L 162.785156 132.976562 L 179.066406 132.976562 L 179.066406 125.992188 C 179.066406 119.476562 185.042969 114.347656 192.628906 114.347656 L 200.769531 114.347656 L 200.769531 100.371094 Z M 192.628906 100.371094 "/>
</g>
</g>
<g clip-path="url(#clip5)" clip-rule="nonzero">
<g clip-path="url(#clip6)" clip-rule="nonzero">
<path style=" stroke:none;fill-rule:nonzero;fill:rgb(90.196079%,90.196079%,90.196079%);fill-opacity:1;" d="M 211.621094 132.976562 C 211.621094 138.125 206.761719 142.292969 200.769531 142.292969 C 194.777344 142.292969 189.917969 138.125 189.917969 132.976562 C 189.917969 127.832031 194.777344 123.664062 200.769531 123.664062 C 206.761719 123.664062 211.621094 127.832031 211.621094 132.976562 Z M 211.621094 132.976562 "/>
</g>
</g>
<g clip-path="url(#clip7)" clip-rule="nonzero">
<g clip-path="url(#clip8)" clip-rule="nonzero">
<path style=" stroke:none;fill-rule:nonzero;fill:rgb(100%,100%,100%);fill-opacity:0.772222;" d="M 192.628906 44.476562 C 140.28125 44.476562 97.671875 81.054688 97.671875 125.992188 L 97.671875 132.976562 L 113.953125 132.976562 L 113.953125 125.992188 C 113.953125 88.605469 149.082031 58.449219 192.628906 58.449219 L 200.769531 58.449219 L 200.769531 44.476562 Z M 192.628906 44.476562 "/>
</g>
</g>
<g clip-path="url(#clip9)" clip-rule="nonzero">
<g clip-path="url(#clip10)" clip-rule="nonzero">
<path style=" stroke:none;fill-rule:nonzero;fill:rgb(90.196079%,90.196079%,90.196079%);fill-opacity:1;" d="M 194.582031 151.609375 L 206.957031 151.609375 C 209.53125 151.609375 211.621094 153.695312 211.621094 156.269531 L 211.621094 184.214844 C 211.621094 186.789062 209.53125 188.875 206.957031 188.875 L 194.582031 188.875 C 192.007812 188.875 189.917969 186.789062 189.917969 184.214844 L 189.917969 156.269531 C 189.917969 153.695312 192.007812 151.609375 194.582031 151.609375 Z M 194.582031 151.609375 "/>
</g>
</g>
</g>
</svg>
