<?xml version="1.0" encoding="UTF-8" standalone="no"?>
<svg
   xmlns:dc="http://purl.org/dc/elements/1.1/"
   xmlns:cc="http://creativecommons.org/ns#"
   xmlns:rdf="http://www.w3.org/1999/02/22-rdf-syntax-ns#"
   xmlns:svg="http://www.w3.org/2000/svg"
   xmlns="http://www.w3.org/2000/svg"
   xmlns:xlink="http://www.w3.org/1999/xlink"
   xmlns:sodipodi="http://sodipodi.sourceforge.net/DTD/sodipodi-0.dtd"
   xmlns:inkscape="http://www.inkscape.org/namespaces/inkscape"
   viewBox="0 0 324 234"
   width="324"
   height="234"
   version="1.1"
   id="svg16"
   sodipodi:docname="icons8-jdownloader.svg"
   inkscape:version="0.92.1 r15371">
  <metadata
     id="metadata22">
    <rdf:RDF>
      <cc:Work
         rdf:about="">
        <dc:format>image/svg+xml</dc:format>
        <dc:type
           rdf:resource="http://purl.org/dc/dcmitype/StillImage" />
        <dc:title></dc:title>
      </cc:Work>
    </rdf:RDF>
  </metadata>
  <defs
     id="defs20">
    <linearGradient
       inkscape:collect="always"
       id="linearGradient4599">
      <stop
         style="stop-color:#00801e;stop-opacity:1"
         offset="0"
         id="stop4595" />
      <stop
         style="stop-color:#00c99c;stop-opacity:0"
         offset="1"
         id="stop4597" />
    </linearGradient>
    <linearGradient
       inkscape:collect="always"
       id="linearGradient4593">
      <stop
         style="stop-color:#00801e;stop-opacity:1"
         offset="0"
         id="stop4589" />
      <stop
         style="stop-color:#00c99c;stop-opacity:0"
         offset="1"
         id="stop4591" />
    </linearGradient>
    <linearGradient
       id="linearGradient4575"
       inkscape:collect="always">
      <stop
         id="stop4571"
         offset="0"
         style="stop-color:#000000;stop-opacity:1;" />
      <stop
         id="stop4573"
         offset="1"
         style="stop-color:#002c00;stop-opacity:0" />
    </linearGradient>
    <linearGradient
       inkscape:collect="always"
       id="linearGradient39">
      <stop
         style="stop-color:#000000;stop-opacity:1;"
         offset="0"
         id="stop35" />
      <stop
         style="stop-color:#000000;stop-opacity:0;"
         offset="1"
         id="stop37" />
    </linearGradient>
    <radialGradient
       inkscape:collect="always"
       xlink:href="#linearGradient39"
       id="radialGradient41"
       cx="139.76646"
       cy="111.8503"
       fx="139.76646"
       fy="111.8503"
       r="19.168729"
       gradientUnits="userSpaceOnUse"
       gradientTransform="matrix(2.9657681,-0.03261649,0.02290469,1.982334,-277.31035,-105.31571)" />
    <radialGradient
       inkscape:collect="always"
       xlink:href="#linearGradient4575"
       id="radialGradient4569"
       gradientUnits="userSpaceOnUse"
       gradientTransform="matrix(1,0,0,0.72560976,0,32.103659)"
       cx="162"
       cy="117"
       fx="162"
       fy="117"
       r="164" />
    <radialGradient
       inkscape:collect="always"
       xlink:href="#linearGradient39"
       id="radialGradient4583"
       cx="162"
       cy="117"
       fx="162"
       fy="117"
       r="164"
       gradientTransform="matrix(1,0,0,0.72560976,0,32.103659)"
       gradientUnits="userSpaceOnUse" />
    <radialGradient
       inkscape:collect="always"
       xlink:href="#linearGradient4599"
       id="radialGradient4585"
       gradientUnits="userSpaceOnUse"
       gradientTransform="matrix(1,0,0,0.72560976,0,32.103659)"
       cx="162"
       cy="117"
       fx="162"
       fy="117"
       r="164" />
    <radialGradient
       inkscape:collect="always"
       xlink:href="#linearGradient4593"
       id="radialGradient4587"
       gradientUnits="userSpaceOnUse"
       gradientTransform="matrix(1,0,0,0.72560976,0,32.103659)"
       cx="162"
       cy="117"
       fx="162"
       fy="117"
       r="164" />
  </defs>
  <sodipodi:namedview
     pagecolor="#ffffff"
     bordercolor="#666666"
     borderopacity="1"
     objecttolerance="10"
     gridtolerance="10"
     guidetolerance="10"
     inkscape:pageopacity="0"
     inkscape:pageshadow="2"
     inkscape:window-width="1366"
     inkscape:window-height="692"
     id="namedview18"
     showgrid="false"
     inkscape:snap-bbox="true"
     inkscape:bbox-paths="false"
     inkscape:bbox-nodes="true"
     inkscape:snap-page="true"
     inkscape:snap-bbox-midpoints="true"
     inkscape:zoom="2.1410256"
     inkscape:cx="162"
     inkscape:cy="117"
     inkscape:window-x="0"
     inkscape:window-y="0"
     inkscape:window-maximized="1"
     inkscape:current-layer="svg16" />
  <rect
     style="opacity:1;fill:#cddc39;fill-opacity:1;fill-rule:nonzero;stroke:none;stroke-width:4;stroke-linejoin:bevel;stroke-miterlimit:4;stroke-dasharray:none;stroke-opacity:0;paint-order:normal"
     id="rect4601"
     width="324"
     height="234"
     x="0"
     y="0" />
  <rect
     style="opacity:1;fill:url(#radialGradient4585);fill-opacity:1.0;fill-rule:nonzero;stroke:url(#radialGradient4587);stroke-width:4;stroke-linejoin:bevel;stroke-miterlimit:4;stroke-dasharray:none;stroke-opacity:1;paint-order:normal"
     id="rect33"
     width="320"
     height="230"
     x="2"
     y="2" />
  <g
     id="g31"
     transform="matrix(2.9268292,0,0,2.9999999,-251.46283,-221.55089)"
     style="stroke-width:0.33747429">
    <path
       style="fill:#006064;stroke-width:0.33747429;stroke:url(#radialGradient41)"
       inkscape:connector-curvature="0"
       id="path2"
       d="m 139.76647,92.850299 a 19,19 0 1 0 0,38.000001 19,19 0 1 0 0,-38.000001 z" />
    <path
       style="fill:#004d40;stroke-width:0.33747429"
       inkscape:connector-curvature="0"
       id="path4"
       d="m 146.96647,126.8503 1.9,1.7 c 4.3,-2.4 7.6,-6.3 9.1,-11.1 -0.3,-2 -0.8,-4.4 -1.3,-6.9 0.5,-2 0.7,-3.8 0.9,-5.6 -0.5,-1.3 -1.1,-2.5 -1.9,-3.6 0,0 0,0 0,0 -1,-1.500001 -2.2,-2.800001 -3.5,-3.900001 -0.2,0 -0.5,-0.2 -0.7,-0.6 -0.3,-0.2 -0.6,-0.4 -0.9,-0.6 0,0 0,0 0,0 0,0 0,0 0,0 -0.1,-0.1 -0.3,-0.2 -0.4,-0.2 0,0 0,0 0,0 -0.4,-0.2 -0.8,-0.5 -1.1,-0.7 -0.2,-0.1 -0.5,-0.2 -0.7,-0.4 -0.1,-0.1 -0.2,-0.1 -0.3,-0.2 0,0 0,0 0,0 v 0 c -0.6,-0.3 -1.2,-0.6 -1.9,-0.8 0,0 0,0 0,0 -2.2,-0.7 -4.2,-1.1 -6.4,-1.1 -0.1,0 -0.2,0 -0.3,0 -0.2,0.1 -0.4,0.1 -0.6,0 0,0 0,0 0,0 -0.7,0 -1.4,0.1 -2,0.2 0,0 0,0 0,0 -0.7,0.1 -1.3,0.2 -2,0.4 2.2,0.8 3.5,1.4 3.5,1.4 3.7,1.1 6.9,6.100001 9.2,14.700001 -0.2,0.5 -0.4,1.1 -0.6,1.7 -1.4,3.3 -6.7,14.2 -18.2,14.2 h -2.4 c 0,0 0,0 0,0 2.5,2.5 5.7,4.3 9.3,5.1 1.1,-0.1 1.5,-0.1 0.8,0.1 0,0 0,0 0,0 0.5,0.1 1,0.2 1.6,0.2 0.6,0 1.1,0.1 1.7,0.1 0.5,0 1,0 1.4,-0.1 2.1,-1.1 4,-2.5 5.8,-4 z" />
    <path
       style="fill:#cddc39;stroke-width:0.33747429"
       inkscape:connector-curvature="0"
       id="path6"
       d="m 125.96647,115.2503 -1.8,-1.8 -1.6,-1 -0.1,-3.3 0.4,-2.5 1.7,-2.4 2.4,-2.7 0.2,-1.4 -1.2,-0.700001 2.9,-0.6 2.2,1 -0.7,0.800001 2.5,-0.5 2.3,0.2 -2.9,1.5 -0.9,0.9 0.3,1.7 1,0.2 1,-1.7 1.4,-0.9 1.4,0.7 0.5,1.3 -2.9,1.4 1,0.7 -3.1,1 -1.6,1.7 -2.4,1.4 -0.1,1.7 -1.6,-2.2 -2,0.1 -0.6,2 z m 12.6,-18.600001 -0.8,1.1 1.3,1.9 -0.3,0.900001 1,1 2.6,-2.300001 -0.6,-0.7 0.1,-1.1 -1.5,-1.1 z m -7.1,27.300001 0.5,1.4 1.1,1.6 c 4.3,-1 7.6,-3.4 10.1,-6.1 l -3.8,-0.3 -3,-1.3 -1.1,0.6 -0.4,-1.8 -6.2,-2.7 -1.9,0.2 0.3,1.3 -0.7,3.1 1.7,1.5 0.9,1 z" />
    <path
       style="fill:#7cb342;stroke-width:0.33747429"
       inkscape:connector-curvature="0"
       id="path8"
       d="m 143.16647,120.8503 -2.6,-0.2 c -2.2,2.1 -5.1,3.8 -8.7,4.5 l 0.1,0.2 1.1,1.6 c 4.3,-1.1 7.7,-3.5 10.1,-6.1 z" />
    <path
       style="fill:#ffc107;stroke-width:0.33747429"
       inkscape:connector-curvature="0"
       id="path10"
       d="m 153.46647,113.7503 c 1.6,-4 2.2,-8.5 2.1,-12.5 -1.4,-2.000001 -3.1,-3.800001 -5.1,-5.100001 1.2,3.5 1,9.400001 -1.6,15.700001 -1.5,3.6 -7.3,15.5 -20.1,15.5 2.3,1.6 4.9,2.7 7.7,3.2 7.7,-2.4 13.5,-8.2 17,-16.8 z" />
    <path
       style="fill:#ffc107;stroke-width:0.33747429"
       inkscape:connector-curvature="0"
       id="path12"
       d="m 161.76647,121.8503 -5,11 -6.1,-5.4 -3.6,-3.2 5.4,-0.9 c -3.5,-24.300001 -9.5,-29.300001 -13.6,-30.500001 0.3,0 0.6,0 0.9,0 2.1,0 4.1,0.3 5.9,1 h 0.1 c 7.3,4.1 10,21.700001 10.7,27.100001 0.1,1 0.2,1.6 0.2,1.6 z" />
    <path
       style="fill:#ffa000;stroke-width:0.33747429"
       inkscape:connector-curvature="0"
       id="path14"
       d="m 151.56647,117.8503 c -0.5,0.9 -1,1.8 -1.6,2.6 -0.4,-2.7 -0.9,-5.3 -1.5,-7.6 0.2,-0.3 0.3,-0.6 0.4,-0.9 0.3,-0.8 0.6,-1.6 0.9,-2.4 0.6,2.4 1.2,5.1 1.8,8.3 z m 3.8,-11.9 c -1,-3.3 -2.3,-6.500001 -4,-9.100001 0,0 -0.1,-0.1 -0.1,-0.1 -0.3,-0.2 -0.5,-0.4 -0.8,-0.5 0.4,1.2 0.6,2.6 0.7,4.300001 1.5,3.1 2.6,6.7 3.4,10.1 0.4,-1.6 0.6,-3.2 0.8,-4.7 z" />
  </g>
</svg>
