<?xml version="1.0" encoding="UTF-8" standalone="no"?>
<svg xmlns:dc="http://purl.org/dc/elements/1.1/" xmlns:cc="http://creativecommons.org/ns#" xmlns:rdf="http://www.w3.org/1999/02/22-rdf-syntax-ns#" xmlns:svg="http://www.w3.org/2000/svg" xmlns="http://www.w3.org/2000/svg" xmlns:xlink="http://www.w3.org/1999/xlink" xmlns:sodipodi="http://sodipodi.sourceforge.net/DTD/sodipodi-0.dtd" xmlns:inkscape="http://www.inkscape.org/namespaces/inkscape" width="48" height="48" version="1.1" id="svg38" sodipodi:docname="nodejs.svg" inkscape:version="0.92.1 r15371">
  <metadata id="metadata42">
    <rdf:RDF>
      <cc:Work rdf:about="">
        <dc:format>image/svg+xml</dc:format>
        <dc:type rdf:resource="http://purl.org/dc/dcmitype/StillImage"/>
      </cc:Work>
    </rdf:RDF>
  </metadata>
  <sodipodi:namedview pagecolor="#ffffff" bordercolor="#666666" borderopacity="1" objecttolerance="10" gridtolerance="10" guidetolerance="10" inkscape:pageopacity="0" inkscape:pageshadow="2" inkscape:window-width="1360" inkscape:window-height="692" id="namedview40" showgrid="false" inkscape:zoom="6.9532167" inkscape:cx="5.9799892" inkscape:cy="10.491416" inkscape:window-x="0" inkscape:window-y="0" inkscape:window-maximized="1" inkscape:current-layer="svg38"/>
  <defs id="defs22">
    <linearGradient id="linearGradient3764-3675" x1="1" x2="47" gradientUnits="userSpaceOnUse" gradientTransform="rotate(-90,-3.4486547,47.897805)">
      <stop stop-color="#3e72a8" stop-opacity="1" id="stop1297"/>
      <stop offset="1" stop-color="#437cb7" stop-opacity="1" id="stop1299"/>
    </linearGradient>
    <linearGradient id="linearGradient3764-367" x1="1" x2="47" gradientUnits="userSpaceOnUse" gradientTransform="rotate(-90,-11.663083,59.145421)">
      <stop stop-color="#4f95dd" stop-opacity="1" id="stop1319"/>
      <stop offset="1" stop-color="#609fe0" stop-opacity="1" id="stop1321"/>
    </linearGradient>
    <linearGradient id="linearGradient3764-36" x1="1" x2="47" gradientUnits="userSpaceOnUse" gradientTransform="rotate(-90,-9.2452646,57.965601)">
      <stop stop-color="#d0413a" stop-opacity="1" id="stop1283"/>
      <stop offset="1" stop-color="#d4504a" stop-opacity="1" id="stop1285"/>
    </linearGradient>
    <linearGradient id="linearGradient3764" x1="1" x2="47" gradientUnits="userSpaceOnUse" gradientTransform="rotate(-90,-2.5334005,54.40628)">
      <stop stop-color="#9ca8b6" stop-opacity="1" id="stop1267"/>
      <stop offset="1" stop-color="#a7b2bf" stop-opacity="1" id="stop1269"/>
    </linearGradient>
    <linearGradient id="linearGradient4488">
      <stop id="stop4490" style="stop-color:#000000;stop-opacity:0.046875" offset="0"/>
      <stop id="stop4492" style="stop-color:#000000;stop-opacity:0" offset="1"/>
    </linearGradient>
    <linearGradient id="linearGradient4154">
      <stop offset="0" style="stop-color:#000000;stop-opacity:1" id="stop2"/>
      <stop offset="1" style="stop-color:#000000;stop-opacity:0" id="stop4"/>
    </linearGradient>
    <linearGradient id="linearGradient4192">
      <stop style="stop-color:#272b2d;stop-opacity:1" offset="0" id="stop7"/>
      <stop style="stop-color:#33393e;stop-opacity:1" offset="1" id="stop9"/>
    </linearGradient>
    <linearGradient id="linearGradient4140">
      <stop style="stop-color:#279646;stop-opacity:1" offset="0" id="stop12"/>
      <stop style="stop-color:#76ff68;stop-opacity:1" offset="1" id="stop14"/>
    </linearGradient>
    <linearGradient xlink:href="#linearGradient4140" id="linearGradient4146" x1="24.705" y1="43.939" x2="25.061" y2="4.405" gradientUnits="userSpaceOnUse" gradientTransform="translate(-51.050847)"/>
    <linearGradient xlink:href="#linearGradient4192" id="linearGradient4166" x1="31" y1="34" x2="31" y2="24" gradientUnits="userSpaceOnUse"/>
    <linearGradient xlink:href="#linearGradient4192" id="linearGradient4168" x1="18" y1="34" x2="18" y2="24" gradientUnits="userSpaceOnUse"/>
    <linearGradient xlink:href="#linearGradient4154" id="linearGradient4182" x1="13" y1="24" x2="30" y2="41" gradientUnits="userSpaceOnUse"/>
    <linearGradient xlink:href="#linearGradient4154" id="linearGradient4190" x1="29" y1="26" x2="36" y2="33" gradientUnits="userSpaceOnUse"/>
    <style id="style4511">.cls-1{fill:#8e8e8e;}.cls-2{fill:none;stroke:#8e8e8e;stroke-linecap:square;stroke-miterlimit:10;}</style>
    <linearGradient gradientUnits="userSpaceOnUse" x2="13" y2="4" x1="43" y1="40" id="a">
      <stop id="stop2-36753" stop-color="#f27935"/>
      <stop id="stop4-562" stop-color="#f2784b" offset="1"/>
    </linearGradient>
    <linearGradient gradientUnits="userSpaceOnUse" x2="38" y2="41" x1="24.13" y1="27.13" id="b">
      <stop id="stop7-912" stop-color="#292c2f"/>
      <stop id="stop9-70" stop-opacity="0" offset="1"/>
    </linearGradient>
    <linearGradient id="a-36753" y1="527.8" y2="504.8" gradientUnits="userSpaceOnUse" x2="0" gradientTransform="translate(-384.57 504.56)">
      <stop stop-color="#ffffff" id="stop2-56"/>
      <stop offset="1" stop-color="#ffffff" stop-opacity="0" id="stop4-29"/>
    </linearGradient>
    <linearGradient id="b-1" y1="4" x1="8" y2="18" gradientUnits="userSpaceOnUse" x2="22" gradientTransform="translate(-3.0508475,1008.6312)">
      <stop stop-color="#292c2f" id="stop7-27"/>
      <stop offset="1" stop-opacity="0" id="stop9-0"/>
    </linearGradient>
    <linearGradient id="c" y1="520.8" y2="503.8" gradientUnits="userSpaceOnUse" x2="0" gradientTransform="translate(-384.57 504.56)">
      <stop stop-color="#197cf1" id="stop12-936"/>
      <stop offset="1" stop-color="#20bcfa" id="stop14-06"/>
    </linearGradient>
    <linearGradient id="d" y1="1050.34" y2="1038.36" gradientUnits="userSpaceOnUse" x2="0" gradientTransform="matrix(-2.83522 0 0 2.83875 47.655-1933.28)">
      <stop stop-color="#c61423" id="stop17"/>
      <stop offset="1" stop-color="#dc2b41" id="stop19"/>
    </linearGradient>
    <linearGradient id="e" y1="543.8" y2="503.8" gradientUnits="userSpaceOnUse" x2="0" gradientTransform="matrix(1.125 0 0 1-435.64 504.56)">
      <stop stop-color="#1d1e1e" id="stop22"/>
      <stop offset="1" stop-color="#44484c" id="stop24"/>
    </linearGradient>
    <linearGradient gradientTransform="translate(7.9999995,-1)" x2="28.613508" gradientUnits="userSpaceOnUse" y2="24.613508" x1="8" y1="4" id="b-3">
      <stop id="stop7-6" stop-color="#292c2f"/>
      <stop id="stop9-7" stop-opacity="0" offset="1"/>
    </linearGradient>
    <linearGradient id="d-5" y1="1050.34" y2="1038.36" gradientUnits="userSpaceOnUse" x2="0" gradientTransform="matrix(-2.83522,0,0,2.83875,-0.43047605,-1931.599)">
      <stop stop-color="#c61423" id="stop17-3"/>
      <stop offset="1" stop-color="#dc2b41" id="stop19-5"/>
    </linearGradient>
    <linearGradient id="d-2" y1="1050.34" y2="1038.36" gradientUnits="userSpaceOnUse" x2="0" gradientTransform="matrix(-1.0879841,0,0,1.0893387,-14.257079,-100.39215)">
      <stop stop-color="#c61423" id="stop17-9"/>
      <stop offset="1" stop-color="#dc2b41" id="stop19-1"/>
    </linearGradient>
    <linearGradient id="c-29" y1="523.8" x1="403.57" y2="536.8" x2="416.57" gradientUnits="userSpaceOnUse" gradientTransform="translate(-335.65475,-499.8)">
      <stop stop-color="#292c2f" id="stop2-1"/>
      <stop offset="1" stop-opacity="0" id="stop4-2"/>
    </linearGradient>
    <linearGradient xlink:href="#b-2" id="linearGradient4189" x1="14.369" y1="22.522" x2="26.522" y2="22.522" gradientUnits="userSpaceOnUse"/>
    <linearGradient x1="428.816" gradientTransform="translate(-384.57,-499.8)" gradientUnits="userSpaceOnUse" x2="388.865" y2="499.679" y1="547.634" id="a-8">
      <stop stop-color="#2a2c2f" id="stop8"/>
      <stop stop-color="#536161" offset="1" id="stop10"/>
    </linearGradient>
    <linearGradient x1="36" gradientUnits="userSpaceOnUse" x2="14" y2="12" y1="44" id="b-2">
      <stop style="stop-color:#bfc9c9;stop-opacity:1" stop-color="#536161" id="stop13"/>
      <stop style="stop-color:#fbfbfb;stop-opacity:1" stop-color="#f4f5f5" offset="1" id="stop15"/>
    </linearGradient>
    <linearGradient xlink:href="#a-8" id="linearGradient4424" x1="25" y1="44" x2="25" y2="4" gradientUnits="userSpaceOnUse" gradientTransform="translate(48.915254)"/>
    <linearGradient xlink:href="#b-2" id="linearGradient4428" gradientUnits="userSpaceOnUse" x1="31.586" y1="36.345" x2="1.203" y2="6.723"/>
    <style id="style4511-26">.cls-1{fill:#8e8e8e;}.cls-2{fill:none;stroke:#8e8e8e;stroke-linecap:square;stroke-miterlimit:10;}</style>
    <linearGradient id="linearGradient3235">
      <stop id="stop3237" offset="0" style="stop-color:#fce94f;stop-opacity:1"/>
      <stop style="stop-color:#fce94f;stop-opacity:1" offset="0.5" id="stop3239"/>
      <stop id="stop3241" offset="0.75" style="stop-color:#edd400;stop-opacity:1"/>
      <stop id="stop3243" offset="1" style="stop-color:#c4a000;stop-opacity:1"/>
    </linearGradient>
    <linearGradient id="linearGradient19744">
      <stop id="stop19746" offset="0" style="stop-color:#ffffff;stop-opacity:1;"/>
      <stop style="stop-color:#edd400;stop-opacity:1" offset="0.74871767" id="stop19748"/>
      <stop id="stop19750" offset="1" style="stop-color:#ffffff;stop-opacity:1;"/>
    </linearGradient>
    <linearGradient id="linearGradient14664">
      <stop style="stop-color:#ffffff;stop-opacity:1;" offset="0" id="stop14666"/>
      <stop style="stop-color:#eeeeec;stop-opacity:1" offset="1" id="stop14668"/>
    </linearGradient>
    <linearGradient id="linearGradient12294">
      <stop id="stop12296" offset="0" style="stop-color:#fef8c4;stop-opacity:1"/>
      <stop id="stop12298" offset="1" style="stop-color:#edd400;stop-opacity:1"/>
    </linearGradient>
    <linearGradient id="linearGradient8285">
      <stop style="stop-color:#ff6c6c;stop-opacity:1;" offset="0" id="stop8287"/>
      <stop style="stop-color:#cc0000;stop-opacity:1;" offset="1" id="stop8289"/>
    </linearGradient>
    <linearGradient id="linearGradient3570">
      <stop style="stop-color:#ffffff;stop-opacity:1;" offset="0" id="stop3572"/>
      <stop style="stop-color:#fce94f;stop-opacity:1;" offset="1" id="stop3574"/>
    </linearGradient>
    <linearGradient id="linearGradient2188">
      <stop style="stop-color:#c4a000;stop-opacity:1" offset="0" id="stop2190"/>
      <stop id="stop3626" offset="0.20552924" style="stop-color:#edd400;stop-opacity:1"/>
      <stop id="stop2848" offset="0.5" style="stop-color:#fce94f;stop-opacity:1"/>
      <stop style="stop-color:#edd400;stop-opacity:1" offset="0.75" id="stop2850"/>
      <stop style="stop-color:#c4a000;stop-opacity:1" offset="1" id="stop2192"/>
    </linearGradient>
    <linearGradient x2="11.786" gradientUnits="userSpaceOnUse" y2="11.998" x1="34.5" y1="32.998" id="a-70">
      <stop id="stop2-3675" stop-color="#dd1627"/>
      <stop id="stop4-35" stop-color="#df3e52" offset="1"/>
    </linearGradient>
    <linearGradient gradientTransform="translate(-52)" gradientUnits="userSpaceOnUse" x2="73.03" y2="35.663" x1="46.23" y1="10.38" id="b-367">
      <stop id="stop7-5" stop-opacity=".731" stop-color="#f8bac0"/>
      <stop id="stop9-3" stop-opacity="0" stop-color="#f8bac0" offset="1"/>
    </linearGradient>
    <path d="m.735 43.06l23.265-42.35 23.09 42.31c0 0-2.212-.155-5.272-.291-2.851-.127-1.794.114-8.278-1.089-4.911-.91-8.522-2.865-15.253-2.727-7.453.153-17.549 4.149-17.549 4.149" id="c-62"/>
    <linearGradient id="a-367535" y1="543.8" y2="503.8" x2="0" gradientUnits="userSpaceOnUse" gradientTransform="matrix(1.125 0 0 1-51.07 0)">
      <stop stop-color="#2a2c2f" id="stop2-62"/>
      <stop offset="1" stop-color="#424649" id="stop4-91"/>
    </linearGradient>
    <linearGradient id="b-27" y1="540.92" y2="522.55" x2="0" gradientUnits="userSpaceOnUse" gradientTransform="matrix(1 0 0 1.14286 0-77.4)">
      <stop stop-color="#197cf1" id="stop7-0"/>
      <stop offset="1" stop-color="#05a0eb" id="stop9-93"/>
    </linearGradient>
    <linearGradient id="c-6" y1="542.8" y2="533.8" gradientUnits="userSpaceOnUse" x2="0" gradientTransform="translate(0-28)">
      <stop stop-color="#bcb4a1" id="stop12-93"/>
      <stop offset="1" stop-color="#c5bfad" id="stop14-6"/>
    </linearGradient>
    <linearGradient id="d-06" y1="540.8" y2="531.8" gradientUnits="userSpaceOnUse" x2="0">
      <stop stop-color="#1e1f21" id="stop17-2"/>
      <stop offset="1" stop-color="#242628" id="stop19-61"/>
    </linearGradient>
    <linearGradient xlink:href="#d-06" id="e-8" y1="528.8" y2="519.8" gradientUnits="userSpaceOnUse" x2="0"/>
    <linearGradient id="f" y1="20" x1="32" y2="30" x2="42" gradientUnits="userSpaceOnUse">
      <stop stop-color="#383e51" id="stop23"/>
      <stop offset="1" stop-color="#655c6f" stop-opacity="0" id="stop25"/>
    </linearGradient>
    <linearGradient xlink:href="#f" id="g" y1="531.8" x1="404.57" y2="543.8" x2="416.57" gradientUnits="userSpaceOnUse" gradientTransform="translate(-384.57-499.8)"/>
    <linearGradient xlink:href="#f" id="h" y1="531.8" x1="404.57" y2="543.8" gradientUnits="userSpaceOnUse" x2="416.57" gradientTransform="translate(0-12)"/>
    <linearGradient xlink:href="#f" id="i" y1="531.8" x1="404.57" y2="543.8" gradientUnits="userSpaceOnUse" x2="416.57" gradientTransform="translate(-12-12)"/>
    <linearGradient xlink:href="#f" id="j" y1="531.8" x1="404.57" y2="543.8" gradientUnits="userSpaceOnUse" x2="416.57" gradientTransform="translate(-12)"/>
    <style id="style4511-9">.cls-1{fill:#8e8e8e;}.cls-2{fill:none;stroke:#8e8e8e;stroke-linecap:square;stroke-miterlimit:10;}</style>
    <path d="m.735 43.06l23.265-42.35 23.09 42.31c0 0-2.212-.155-5.272-.291-2.851-.127-1.794.114-8.278-1.089-4.911-.91-8.522-2.865-15.253-2.727-7.453.153-17.549 4.149-17.549 4.149" id="c-09"/>
    <linearGradient id="linearGradient4222">
      <stop offset="0" style="stop-color:#0166d0;stop-opacity:1" id="stop2-35"/>
      <stop offset="1" style="stop-color:#51a6ff;stop-opacity:1" id="stop4-62"/>
    </linearGradient>
    <linearGradient id="linearGradient4198">
      <stop style="stop-color:#208dff;stop-opacity:1" offset="0" id="stop7-9"/>
      <stop style="stop-color:#51a6ff;stop-opacity:1" offset="1" id="stop9-1"/>
    </linearGradient>
    <linearGradient xlink:href="#linearGradient4222" id="linearGradient4204" x1="402.571" y1="543.798" x2="402.571" y2="519.798" gradientUnits="userSpaceOnUse" gradientTransform="matrix(0.78135593,0,0,0.78135593,-346.93123,-382.93369)"/>
    <linearGradient xlink:href="#linearGradient4198" id="linearGradient4212" x1="414.571" y1="543.798" x2="414.571" y2="519.798" gradientUnits="userSpaceOnUse" gradientTransform="matrix(0.78135593,0,0,0.78135593,-346.93123,-382.93369)"/>
    <linearGradient xlink:href="#linearGradient4198" id="linearGradient4220" x1="24" y1="35" x2="24" y2="4" gradientUnits="userSpaceOnUse" gradientTransform="matrix(1,0,0,0.99924452,384.57143,499.82444)"/>
    <linearGradient xlink:href="#linearGradient4227" id="linearGradient4244" x1="12" y1="21" x2="29" y2="38" gradientUnits="userSpaceOnUse"/>
    <linearGradient id="linearGradient4227">
      <stop offset="0" style="stop-color:#292c2f;stop-opacity:1" id="stop16"/>
      <stop offset="1" style="stop-color:#000000;stop-opacity:0;" id="stop18"/>
    </linearGradient>
    <linearGradient id="linearGradient4454">
      <stop id="stop7-36" offset="0" style="stop-color:#d21e1e;stop-opacity:1"/>
      <stop id="stop9-75" offset="1" style="stop-color:#e05e4c;stop-opacity:1"/>
    </linearGradient>
    <linearGradient gradientTransform="translate(-384.57001,-499.79999)" gradientUnits="userSpaceOnUse" y2="525.725" x2="391.89" y1="544.092" x1="403.421" id="linearGradient4213" xlink:href="#linearGradient4454"/>
    <linearGradient id="linearGradient4472">
      <stop id="stop13-1" offset="0" style="stop-color:#ffa92d;stop-opacity:1"/>
      <stop id="stop15-2" offset="1" style="stop-color:#ffc169;stop-opacity:1"/>
    </linearGradient>
    <linearGradient gradientTransform="translate(-384.57001,-499.79999)" gradientUnits="userSpaceOnUse" y2="505.319" x2="391.154" y1="523.203" x1="401.296" id="linearGradient4235" xlink:href="#linearGradient4472"/>
    <linearGradient id="linearGradient4422-8">
      <stop id="stop19-3" offset="0" style="stop-color:#377d50;stop-opacity:1"/>
      <stop id="stop21" offset="1" style="stop-color:#54d883;stop-opacity:1"/>
    </linearGradient>
    <linearGradient gradientTransform="translate(-384.57001,-499.79999)" gradientUnits="userSpaceOnUse" y2="503.798" x2="413.779" y1="523.798" x1="424.602" id="linearGradient4257" xlink:href="#linearGradient4422-8"/>
    <linearGradient id="linearGradient4438">
      <stop id="stop25-6" offset="0" style="stop-color:#375a7d;stop-opacity:1"/>
      <stop id="stop27" offset="1" style="stop-color:#54a3d8;stop-opacity:1"/>
    </linearGradient>
    <linearGradient gradientTransform="translate(-384.57001,-499.79999)" gradientUnits="userSpaceOnUse" y2="525.748" x2="412.118" y1="543.488" x1="420.884" id="linearGradient4279" xlink:href="#linearGradient4438"/>
    <linearGradient gradientTransform="translate(0.00142264,-0.00198746)" gradientUnits="userSpaceOnUse" y2="44" x2="44" y1="4" x1="4" id="linearGradient4220-3" xlink:href="#linearGradient4154"/>
    <linearGradient id="a-2" y1="4" x1="24" y2="44" x2="4" gradientUnits="userSpaceOnUse">
      <stop stop-color="#197cf1" id="stop2-367"/>
      <stop offset="1" stop-color="#20bcfa" id="stop4-5"/>
    </linearGradient>
    <linearGradient id="b-7" y1="44" x1="44" y2="4" x2="24" gradientUnits="userSpaceOnUse">
      <stop stop-color="#c61423" id="stop7-3"/>
      <stop offset="1" stop-color="#dc2b41" id="stop9-56"/>
    </linearGradient>
    <linearGradient id="c-0" x1="44" x2="4" gradientUnits="userSpaceOnUse">
      <stop stop-color="#42a603" id="stop12-06"/>
      <stop offset="1" stop-color="#78da06" id="stop14-26"/>
    </linearGradient>
    <linearGradient id="d-1" y1="522.8" y2="538.8" x1="400.57" gradientUnits="userSpaceOnUse" x2="416.57">
      <stop stop-color="#292c2f" id="stop17-8"/>
      <stop offset="1" stop-opacity="0" id="stop19-29"/>
    </linearGradient>
    <linearGradient gradientTransform="matrix(.70711.70711-.70711.70711 105.4-635.69)" x2="378.58" gradientUnits="userSpaceOnUse" y2="523.86" x1="430.51" y1="522.99" id="b-3-7">
      <stop id="stop7-67" stop-color="#fcfcfc"/>
      <stop id="stop9-53" stop-color="#e9eaeb" offset="1"/>
    </linearGradient>
    <linearGradient gradientTransform="translate(45.719-.92)" x2="3.614" gradientUnits="userSpaceOnUse" y2="49.804" x1="-28.649" y1="19.869" id="c-5">
      <stop id="stop12-6"/>
      <stop id="stop14-2" stop-opacity="0" offset="1"/>
    </linearGradient>
    <linearGradient gradientTransform="matrix(.70711.70711-.70711.70711 105.48-635.28)" x2="402.03" gradientUnits="userSpaceOnUse" y2="523.7" x1="388.34" y1="522.18" id="d-9">
      <stop id="stop17-1" stop-color="#ffffff"/>
      <stop id="stop19-2" stop-color="#eff0f1" offset="1"/>
    </linearGradient>
    <linearGradient gradientTransform="matrix(.70711.70711-.70711.70711 105.48-635.28)" x2="425.86" gradientUnits="userSpaceOnUse" y2="527.34" x1="422.48" y1="527.21" id="e-792">
      <stop id="stop22-9" stop-color="#f9f9f9"/>
      <stop id="stop24-20" stop-color="#f6f6f6" offset="1"/>
    </linearGradient>
    <linearGradient gradientUnits="userSpaceOnUse" x2="23.912" y2="24.326" x1="9.642" y1="8.627" id="f-02">
      <stop id="stop27-1" stop-color="#491309"/>
      <stop id="stop29" stop-color="#b6642d" offset="1"/>
    </linearGradient>
    <linearGradient gradientUnits="userSpaceOnUse" x2="33.609" y2="34.953" x1="32.641" y1="33.922" id="h-3">
      <stop id="stop37" stop-color="#cfcfcf"/>
      <stop id="stop39" stop-opacity="0" stop-color="#ededed" offset="1"/>
    </linearGradient>
    <linearGradient gradientTransform="matrix(.70711.70711-.70711.70711 105.48-635.28)" x2="409.82" gradientUnits="userSpaceOnUse" y2="523.27" x1="385.61" y1="522.24" id="o">
      <stop id="stop62" stop-color="#ffffff"/>
      <stop id="stop64" stop-color="#dfe1e3" offset="1"/>
    </linearGradient>
    <path d="M25 15A9 9 0 1 1 7 15 9 9 0 1 1 25 15" color="#000000" id="p"/>
    <linearGradient xlink:href="#linearGradient4299" id="linearGradient4415" x1="408.571" y1="543.773" x2="408.632" y2="503.67" gradientUnits="userSpaceOnUse"/>
    <linearGradient id="linearGradient4227-5">
      <stop offset="0" style="stop-color:#2e3436;stop-opacity:1" id="stop8-7"/>
      <stop offset="1" style="stop-color:#555753;stop-opacity:1" id="stop10-0"/>
    </linearGradient>
    <linearGradient xlink:href="#linearGradient4227-5" id="linearGradient4437" x1="408.571" y1="535.199" x2="408.571" y2="512.397" gradientUnits="userSpaceOnUse" gradientTransform="matrix(0.96481792,0,0,0.96481792,14.374377,18.428304)"/>
    <linearGradient id="linearGradient4299">
      <stop offset="0" style="stop-color:#1064d3;stop-opacity:1" id="stop14-3"/>
      <stop offset="1" style="stop-color:#14c6fd;stop-opacity:1" id="stop16-6"/>
    </linearGradient>
    <linearGradient xlink:href="#linearGradient4154" id="linearGradient4392" x1="9.077" y1="9.083" x2="42.946" y2="42.953" gradientUnits="userSpaceOnUse"/>
    <linearGradient id="linearGradient4258">
      <stop id="stop2-36" offset="0" style="stop-color:#000019;stop-opacity:1"/>
      <stop id="stop4-7" offset="1" style="stop-color:#000019;stop-opacity:0.29064038"/>
    </linearGradient>
    <linearGradient id="linearGradient4223">
      <stop id="stop7-6-2" offset="0" style="stop-color:#c6cdd1;stop-opacity:1"/>
      <stop id="stop9-7-3" offset="1" style="stop-color:#e0e5e7;stop-opacity:1"/>
    </linearGradient>
    <linearGradient id="linearGradient4217">
      <stop id="stop12-5" style="stop-color:#1f93b9;stop-opacity:1" offset="0"/>
      <stop id="stop14-5" style="stop-color:#1a5c9b;stop-opacity:1" offset="1"/>
    </linearGradient>
    <linearGradient id="linearGradient4191">
      <stop id="stop17-3-7" offset="0" style="stop-color:#dc2b41;stop-opacity:1"/>
      <stop id="stop19-5-5" offset="1" style="stop-color:#c61423;stop-opacity:1"/>
    </linearGradient>
    <linearGradient gradientTransform="translate(-50.199325,-1.1505466)" gradientUnits="userSpaceOnUse" y2="29" x2="24" y1="7" x1="24" id="linearGradient4197" xlink:href="#linearGradient4217"/>
    <linearGradient gradientTransform="translate(-50.199325,0.84945337)" gradientUnits="userSpaceOnUse" y2="41" x2="24" y1="30" x1="24" id="linearGradient4207" xlink:href="#linearGradient4191"/>
    <linearGradient gradientTransform="translate(-51.199325,0.84945337)" gradientUnits="userSpaceOnUse" y2="41" x2="11" y1="30" x1="11" id="linearGradient4215" xlink:href="#linearGradient4191"/>
    <linearGradient gradientTransform="translate(-51.199325,-1.1505466)" gradientUnits="userSpaceOnUse" y2="4" x2="29" y1="44" x1="29" id="linearGradient4229" xlink:href="#linearGradient4223"/>
    <radialGradient gradientTransform="translate(-51.199325,-1.1505466)" gradientUnits="userSpaceOnUse" r="19" fy="24" fx="24" cy="24" cx="24" id="radialGradient4264" xlink:href="#linearGradient4258"/>
    <path id="c-2" d="m.735 43.06l23.265-42.35 23.09 42.31c0 0-2.212-.155-5.272-.291-2.851-.127-1.794.114-8.278-1.089-4.911-.91-8.522-2.865-15.253-2.727-7.453.153-17.549 4.149-17.549 4.149"/>
    <linearGradient id="linearGradient4214">
      <stop offset="0" style="stop-color:#2f74c8;stop-opacity:1" id="stop41"/>
      <stop offset="1" style="stop-color:#4699d7;stop-opacity:1" id="stop43"/>
    </linearGradient>
    <linearGradient id="linearGradient4410">
      <stop style="stop-color:#383e51;stop-opacity:1" offset="0" id="stop48"/>
      <stop style="stop-color:#655c6f;stop-opacity:0" offset="1" id="stop50"/>
    </linearGradient>
    <linearGradient gradientTransform="matrix(0.97435896,0,0,0.96217953,-40.3793,-0.5771)" gradientUnits="userSpaceOnUse" y2="4" x2="23.649" y1="43.494" x1="23.649" id="linearGradient10438-5" xlink:href="#linearGradient4214"/>
    <linearGradient id="linearGradient10454-6">
      <stop id="stop4727" offset="0" style="stop-color:#f38230;stop-opacity:1"/>
      <stop id="stop4729" offset="1" style="stop-color:#fec335;stop-opacity:1"/>
    </linearGradient>
    <linearGradient gradientTransform="translate(-41.33689,-1.72838)" gradientUnits="userSpaceOnUse" y2="4" x2="24" y1="44" x1="24" id="linearGradient4286-2" xlink:href="#linearGradient10454-6"/>
    <linearGradient gradientUnits="userSpaceOnUse" y2="546.798" x2="419.571" y1="528.798" x1="401.571" id="linearGradient4243-0" xlink:href="#linearGradient4410" gradientTransform="translate(-425.90832,-501.52638)"/>
    <linearGradient y2="546.798" x2="419.571" y1="528.798" x1="401.571" gradientTransform="translate(-431.40826,-516.82638)" gradientUnits="userSpaceOnUse" id="linearGradient4355-6" xlink:href="#linearGradient4410"/>
    <linearGradient xlink:href="#linearGradient4300-8-4" id="linearGradient4309" x1="31" y1="44" x2="9.638" y2="7" gradientUnits="userSpaceOnUse" gradientTransform="matrix(0.75304829,0,0,0.75304829,-49.251481,5.0998124)"/>
    <linearGradient id="linearGradient4903">
      <stop offset="0" style="stop-color:#eef1f2;stop-opacity:1" id="stop3"/>
      <stop offset="1" style="stop-color:#f9fafb;stop-opacity:1" id="stop5"/>
    </linearGradient>
    <linearGradient id="linearGradient4303">
      <stop style="stop-color:#197cf1;stop-opacity:1" offset="0" id="stop8-3"/>
      <stop style="stop-color:#21c9fb;stop-opacity:1" offset="1" id="stop10-6"/>
    </linearGradient>
    <linearGradient xlink:href="#linearGradient4303" id="linearGradient4498" x1="414.635" y1="531.769" x2="409.79" y2="523.379" gradientUnits="userSpaceOnUse" gradientTransform="matrix(0.75304829,0,0,0.75304829,-281.01401,-371.27218)"/>
    <linearGradient xlink:href="#linearGradient4903" id="linearGradient4506" x1="413.504" y1="537.256" x2="405.396" y2="519.755" gradientUnits="userSpaceOnUse" gradientTransform="matrix(0.75304829,0,0,0.75304829,-338.85233,-371.27221)"/>
    <linearGradient xlink:href="#linearGradient4227" id="linearGradient4518" x1="423.571" y1="527.798" x2="423.571" y2="544.668" gradientUnits="userSpaceOnUse" gradientTransform="matrix(0.53248555,-0.53248555,0.53248555,0.53248555,-522.90404,-29.338448)"/>
    <linearGradient id="linearGradient4300-8-4">
      <stop style="stop-color:#f27935;stop-opacity:1" offset="0" id="stop21-3"/>
      <stop style="stop-color:#f2784b;stop-opacity:1" offset="1" id="stop23-7"/>
    </linearGradient>
    <linearGradient gradientTransform="matrix(0.32420382,0,0,0.32420382,387.58449,502.85674)" xlink:href="#linearGradient3347" id="linearGradient3359" x1="-23.688" y1="-24.028" x2="146.725" y2="140.728" gradientUnits="userSpaceOnUse"/>
    <linearGradient id="linearGradient3347">
      <stop style="stop-color:#006680;stop-opacity:1;" offset="0" id="stop3-3"/>
      <stop offset=".252" style="stop-color:#80b3ff;stop-opacity:1" id="stop5-6"/>
      <stop style="stop-color:#0066ff;stop-opacity:1" offset=".459" id="stop7-7"/>
      <stop offset=".899" style="stop-color:#002255;stop-opacity:1" id="stop9-5"/>
      <stop style="stop-color:#006680;stop-opacity:0;" offset="1" id="stop11"/>
    </linearGradient>
    <linearGradient gradientTransform="matrix(0.32420382,0,0,0.32420382,387.58449,502.85674)" xlink:href="#linearGradient3360" id="linearGradient3366" x1="-1.414" y1="88.048" x2="154.149" y2="89.816" gradientUnits="userSpaceOnUse"/>
    <linearGradient id="linearGradient3360">
      <stop style="stop-color:#ffcc00;stop-opacity:1;" offset="0" id="stop15-35"/>
      <stop offset=".245" style="stop-color:#ffff00;stop-opacity:1" id="stop17-6"/>
      <stop offset=".586" style="stop-color:#ff0000;stop-opacity:1" id="stop19-291"/>
      <stop style="stop-color:#ffcc00;stop-opacity:0;" offset="1" id="stop21-2"/>
    </linearGradient>
    <linearGradient gradientUnits="userSpaceOnUse" x2="44" y2="24" x1="26.425" y1="37.11" id="a-7">
      <stop id="stop2-0" stop-color="#2980b9"/>
      <stop id="stop4-9" stop-color="#1d99f3" offset="1"/>
    </linearGradient>
    <linearGradient gradientUnits="userSpaceOnUse" x2="24.539" y2="10.624" x1="25.869" y1="39.24" id="b-36" xlink:href="#a-7"/>
    <linearGradient gradientUnits="userSpaceOnUse" x2="37.922" y2="39.34" x1="8.84" y1="9.386" id="c-06">
      <stop id="stop8-2" stop-color="#faf8f8"/>
      <stop id="stop10-61" stop-color="#bfd2d2" offset="1"/>
    </linearGradient>
    <linearGradient gradientUnits="userSpaceOnUse" x2="24.839" y2="17.991" x1="27.04" y1="16.621" id="d-8">
      <stop id="stop13-7" stop-color="#fcfcfc"/>
      <stop id="stop15-3" stop-color="#c7c7c7" offset="1"/>
    </linearGradient>
    <linearGradient gradientUnits="userSpaceOnUse" x2="35.973" y2="31" x1="31.537" y1="27.6" id="e-9">
      <stop id="stop18-2"/>
      <stop id="stop20" stop-opacity="0" offset="1"/>
    </linearGradient>
    <linearGradient gradientTransform="translate(-10 5)" gradientUnits="userSpaceOnUse" x2="37" y2="30" x1="26" y1="19" id="f-0" xlink:href="#e-9"/>
    <linearGradient gradientUnits="userSpaceOnUse" x2="19.574" y2="22.495" x1="3.783" y1="23.644" id="g-5">
      <stop id="stop24-2" stop-color="#2980b9"/>
      <stop id="stop26" stop-color="#34495e" offset="1"/>
    </linearGradient>
    <style id="style4552">.cls-1{fill:#8e8e8e;}.cls-2{fill:none;stroke:#8e8e8e;stroke-linecap:square;stroke-miterlimit:10;}</style>
    <linearGradient gradientTransform="matrix(0.65656345,0,0,0.65656345,61.545895,14.228869)" gradientUnits="userSpaceOnUse" x2="24.839001" y2="17.990999" x1="27.040001" y1="16.621" id="d-6">
      <stop id="stop4583-7" stop-color="#fcfcfc"/>
      <stop id="stop4585-5" stop-color="#c7c7c7" offset="1"/>
    </linearGradient>
    <linearGradient gradientTransform="matrix(0.65656345,0,0,0.65656345,61.545895,14.228869)" gradientUnits="userSpaceOnUse" x2="24.539" y2="10.624" x1="25.868999" y1="39.240002" id="b-3-3" xlink:href="#a-7"/>
    <linearGradient id="a-3" y1="543.8" y2="512.8" x2="0" gradientUnits="userSpaceOnUse">
      <stop stop-color="#cea476" id="stop2-6"/>
      <stop offset="1" stop-color="#dab58b" id="stop4-75"/>
    </linearGradient>
    <linearGradient id="b-35" y1="512.8" y2="503.8" x2="0" gradientUnits="userSpaceOnUse">
      <stop stop-color="#ebc69a" id="stop7-62"/>
      <stop offset="1" stop-color="#f4e0c8" stop-opacity="0" id="stop9-9"/>
    </linearGradient>
    <linearGradient xlink:href="#b-35" id="c-1" y1="512.8" y2="503.8" gradientUnits="userSpaceOnUse" x2="0" gradientTransform="translate(0-1025.6)"/>
    <linearGradient xlink:href="#a-3" id="d-2-9" y1="512.8" y2="503.8" x2="0" gradientUnits="userSpaceOnUse"/>
    <linearGradient id="e-7" y1="516.8" x1="399.57" y2="534.8" x2="417.57" gradientUnits="userSpaceOnUse">
      <stop stop-color="#292c2f" id="stop14-0"/>
      <stop offset="1" stop-opacity="0" id="stop16-9"/>
    </linearGradient>
    <linearGradient id="a-36" y1="543.8" y2="503.8" x2="0" gradientUnits="userSpaceOnUse">
      <stop stop-color="#2a2c2f" id="stop2-7"/>
      <stop offset="1" stop-color="#424649" id="stop4-53"/>
    </linearGradient>
    <linearGradient id="b-5" y1="532.8" y2="506.8" x2="0" gradientUnits="userSpaceOnUse">
      <stop stop-color="#989a9b" id="stop7-629"/>
      <stop offset="1" stop-color="#f6f6f7" id="stop9-12"/>
    </linearGradient>
    <linearGradient id="c-7" y1="522.8" x1="403.57" y2="534.8" x2="413.26" gradientUnits="userSpaceOnUse">
      <stop stop-color="#020303" id="stop12-0"/>
      <stop offset="1" stop-color="#424649" stop-opacity="0" id="stop14-9"/>
    </linearGradient>
    <linearGradient xlink:href="#c-7" id="d-3" y1="521.8" x1="400.77" y2="533.6" gradientUnits="userSpaceOnUse" x2="412.57"/>
    <path fill-rule="evenodd" id="e-6" d="m426.57 529.8l-16 11-8-8-2-9 17-5z"/>
    <linearGradient id="a-367" y1="536.8" y2="503.8" x2="0" gradientUnits="userSpaceOnUse">
      <stop stop-color="#2a2c2f" id="stop2-5"/>
      <stop offset="1" stop-color="#424649" id="stop4-3"/>
    </linearGradient>
    <linearGradient id="b-56" y1="547.8" y2="536.8" x2="0" gradientUnits="userSpaceOnUse" gradientTransform="matrix(1 0 0 .54545 0 244)">
      <stop stop-color="#c6cdd1" id="stop7-2"/>
      <stop offset="1" stop-color="#e0e5e7" id="stop9-91"/>
    </linearGradient>
    <linearGradient id="c-27" y1="5.342" x1="42.799" y2="31.357" x2="11.999" gradientUnits="userSpaceOnUse">
      <stop stop-color="#4ce0c6" id="stop12-09"/>
      <stop offset="1" stop-color="#3b85b5" id="stop14-36"/>
    </linearGradient>
    <linearGradient id="d-0" y1="22.346" x1="29.855" y2="28.506" x2="54.32" gradientUnits="userSpaceOnUse">
      <stop stop-color="#ffc169" id="stop17-62"/>
      <stop offset="1" stop-color="#ffa92d" id="stop19-6"/>
    </linearGradient>
    <linearGradient id="e-1" y1="41.22" x1="24.392" y2="25.343" x2="20.643" gradientUnits="userSpaceOnUse">
      <stop stop-color="#334545" id="stop22-8"/>
      <stop offset="1" stop-color="#536161" id="stop24-7"/>
    </linearGradient>
    <linearGradient xlink:href="#e-1" id="f-9" y1="568.8" x1="431.57" y2="562.8" x2="439.57" gradientUnits="userSpaceOnUse" gradientTransform="matrix(-1 0 0 1 839.14-40)"/>
    <linearGradient xlink:href="#e-1" id="g-2" y1="40.899" x1="56.03" y2="32.475" x2="40.647" gradientUnits="userSpaceOnUse"/>
    <linearGradient xlink:href="#e-1" id="h-0" y1="32.15" x1="60.895" y2="27.06" x2="53.41" gradientUnits="userSpaceOnUse"/>
    <linearGradient xlink:href="#e-1" id="i-9" y1="36.527" x1="33.32" y2="31.348" x2="24.78" gradientUnits="userSpaceOnUse"/>
    <linearGradient xlink:href="#e-1" id="j-2" y1="36.765" x1="34" y2="49.571" x2="40.25" gradientUnits="userSpaceOnUse"/>
    <linearGradient id="a-3675" y1="543.8" y2="503.8" x2="0" gradientUnits="userSpaceOnUse" gradientTransform="matrix(1.125 0 0 1-51.07 0)">
      <stop stop-color="#2a2c2f" id="stop2-3"/>
      <stop offset="1" stop-color="#424649" id="stop4-56"/>
    </linearGradient>
    <linearGradient id="b-2-9" y1="540.92" y2="522.55" x2="0" gradientUnits="userSpaceOnUse" gradientTransform="matrix(1 0 0 1.14286 0-77.4)">
      <stop stop-color="#197cf1" id="stop7-91"/>
      <stop offset="1" stop-color="#05a0eb" id="stop9-2"/>
    </linearGradient>
    <linearGradient id="c-70" y1="542.8" y2="533.8" gradientUnits="userSpaceOnUse" x2="0" gradientTransform="translate(0-28)">
      <stop stop-color="#bcb4a1" id="stop12-9"/>
      <stop offset="1" stop-color="#c5bfad" id="stop14-360"/>
    </linearGradient>
    <linearGradient id="d-62" y1="540.8" y2="531.8" gradientUnits="userSpaceOnUse" x2="0">
      <stop stop-color="#1e1f21" id="stop17-61"/>
      <stop offset="1" stop-color="#242628" id="stop19-8"/>
    </linearGradient>
    <linearGradient xlink:href="#d-62" id="e-79" y1="528.8" y2="519.8" gradientUnits="userSpaceOnUse" x2="0"/>
    <style id="style4511-2">.cls-1{fill:#8e8e8e;}.cls-2{fill:none;stroke:#8e8e8e;stroke-linecap:square;stroke-miterlimit:10;}</style>
    <linearGradient gradientTransform="rotate(-90,-2.5334005,54.40628)" gradientUnits="userSpaceOnUse" x2="47" x1="1" id="linearGradient3764-3">
      <stop id="stop340" stop-opacity="1" stop-color="#9ca8b6"/>
      <stop id="stop342" stop-opacity="1" stop-color="#a7b2bf" offset="1"/>
    </linearGradient>
    <clipPath id="clipPath-219488057">
      <g id="g347" transform="translate(0,-1004.3622)">
        <path id="path345" fill="#1890d0" transform="matrix(15.333333,0,0,11.5,414.99999,878.8622)" d="m -24 13 c 0 1.105 -0.672 2 -1.5 2 -0.828 0 -1.5 -0.895 -1.5 -2 0 -1.105 0.672 -2 1.5 -2 0.828 0 1.5 0.895 1.5 2 z"/>
      </g>
    </clipPath>
    <clipPath id="clipPath-225646190">
      <g id="g352" transform="translate(0,-1004.3622)">
        <path id="path350" fill="#1890d0" transform="matrix(15.333333,0,0,11.5,414.99999,878.8622)" d="m -24 13 c 0 1.105 -0.672 2 -1.5 2 -0.828 0 -1.5 -0.895 -1.5 -2 0 -1.105 0.672 -2 1.5 -2 0.828 0 1.5 0.895 1.5 2 z"/>
      </g>
    </clipPath>
    <linearGradient gradientTransform="rotate(-90,-9.2452646,57.965601)" gradientUnits="userSpaceOnUse" x2="47" x1="1" id="linearGradient3764-36-7">
      <stop id="stop1156" stop-opacity="1" stop-color="#d0413a"/>
      <stop id="stop1158" stop-opacity="1" stop-color="#d4504a" offset="1"/>
    </linearGradient>
    <clipPath id="clipPath-117675931">
      <g id="g1163" transform="translate(0,-1004.3622)">
        <path id="path1161" fill="#1890d0" transform="matrix(15.333333,0,0,11.5,414.99999,878.8622)" d="m -24 13 c 0 1.105 -0.672 2 -1.5 2 -0.828 0 -1.5 -0.895 -1.5 -2 0 -1.105 0.672 -2 1.5 -2 0.828 0 1.5 0.895 1.5 2 z"/>
      </g>
    </clipPath>
    <clipPath id="clipPath-131538609">
      <g id="g1168" transform="translate(0,-1004.3622)">
        <path id="path1166" fill="#1890d0" transform="matrix(15.333333,0,0,11.5,414.99999,878.8622)" d="m -24 13 c 0 1.105 -0.672 2 -1.5 2 -0.828 0 -1.5 -0.895 -1.5 -2 0 -1.105 0.672 -2 1.5 -2 0.828 0 1.5 0.895 1.5 2 z"/>
      </g>
    </clipPath>
    <linearGradient gradientTransform="rotate(-90,-11.663083,59.145421)" gradientUnits="userSpaceOnUse" x2="47" x1="1" id="linearGradient3764-367-9">
      <stop id="stop1170" stop-opacity="1" stop-color="#4f95dd"/>
      <stop id="stop1172" stop-opacity="1" stop-color="#609fe0" offset="1"/>
    </linearGradient>
    <clipPath id="clipPath-659430937">
      <g id="g1177" transform="translate(0,-1004.3622)">
        <path id="path1175" fill="#1890d0" transform="matrix(15.333333,0,0,11.5,414.99999,878.8622)" d="m -24 13 c 0 1.105 -0.672 2 -1.5 2 -0.828 0 -1.5 -0.895 -1.5 -2 0 -1.105 0.672 -2 1.5 -2 0.828 0 1.5 0.895 1.5 2 z"/>
      </g>
    </clipPath>
    <clipPath id="clipPath-666711261">
      <g id="g1182" transform="translate(0,-1004.3622)">
        <path id="path1180" fill="#1890d0" transform="matrix(15.333333,0,0,11.5,414.99999,878.8622)" d="m -24 13 c 0 1.105 -0.672 2 -1.5 2 -0.828 0 -1.5 -0.895 -1.5 -2 0 -1.105 0.672 -2 1.5 -2 0.828 0 1.5 0.895 1.5 2 z"/>
      </g>
    </clipPath>
    <linearGradient gradientTransform="rotate(-90,-3.3469598,47.9995)" gradientUnits="userSpaceOnUse" x2="47" x1="1" id="linearGradient3764-3675-3">
      <stop id="stop1186" stop-opacity="1" stop-color="#3e72a8"/>
      <stop id="stop1188" stop-opacity="1" stop-color="#437cb7" offset="1"/>
    </linearGradient>
    <clipPath id="clipPath-031786669">
      <g id="g1193" transform="translate(0,-1004.3622)">
        <path id="path1191" fill="#1890d0" transform="matrix(15.333333,0,0,11.5,414.99999,878.8622)" d="m -24 13 c 0 1.105 -0.672 2 -1.5 2 -0.828 0 -1.5 -0.895 -1.5 -2 0 -1.105 0.672 -2 1.5 -2 0.828 0 1.5 0.895 1.5 2 z"/>
      </g>
    </clipPath>
    <clipPath id="clipPath-037212577">
      <g id="g1198" transform="translate(0,-1004.3622)">
        <path id="path1196" fill="#1890d0" transform="matrix(15.333333,0,0,11.5,414.99999,878.8622)" d="m -24 13 c 0 1.105 -0.672 2 -1.5 2 -0.828 0 -1.5 -0.895 -1.5 -2 0 -1.105 0.672 -2 1.5 -2 0.828 0 1.5 0.895 1.5 2 z"/>
      </g>
    </clipPath>
    <linearGradient gradientTransform="rotate(-90,-10.584446,59.361148)" gradientUnits="userSpaceOnUse" x2="47" x1="1" id="linearGradient3764-36753">
      <stop id="stop1195" stop-opacity="1" stop-color="#3d3d3d"/>
      <stop id="stop1197" stop-opacity="1" stop-color="#474747" offset="1"/>
    </linearGradient>
    <clipPath id="clipPath-116506606">
      <g id="g1202" transform="translate(0,-1004.3622)">
        <path id="path1200" fill="#1890d0" transform="matrix(15.333333,0,0,11.5,414.99999,878.8622)" d="m -24 13 c 0 1.105 -0.672 2 -1.5 2 -0.828 0 -1.5 -0.895 -1.5 -2 0 -1.105 0.672 -2 1.5 -2 0.828 0 1.5 0.895 1.5 2 z"/>
      </g>
    </clipPath>
    <clipPath id="clipPath-127046142">
      <g id="g1207" transform="translate(0,-1004.3622)">
        <path id="path1205" fill="#1890d0" transform="matrix(15.333333,0,0,11.5,414.99999,878.8622)" d="m -24 13 c 0 1.105 -0.672 2 -1.5 2 -0.828 0 -1.5 -0.895 -1.5 -2 0 -1.105 0.672 -2 1.5 -2 0.828 0 1.5 0.895 1.5 2 z"/>
      </g>
    </clipPath>
    <linearGradient gradientTransform="rotate(-90,-14.431706,62.541873)" gradientUnits="userSpaceOnUse" x2="47" x1="1" id="linearGradient3764-367535">
      <stop id="stop1207" stop-opacity="1" stop-color="#e4e4e4"/>
      <stop id="stop1209" stop-opacity="1" stop-color="#eee" offset="1"/>
    </linearGradient>
    <clipPath id="clipPath-710374497">
      <g id="g1214" transform="translate(0,-1004.3622)">
        <path id="path1212" fill="#1890d0" transform="matrix(15.333333,0,0,11.5,414.99999,878.8622)" d="m -24 13 c 0 1.105 -0.672 2 -1.5 2 -0.828 0 -1.5 -0.895 -1.5 -2 0 -1.105 0.672 -2 1.5 -2 0.828 0 1.5 0.895 1.5 2 z"/>
      </g>
    </clipPath>
    <clipPath id="clipPath-718178204">
      <g id="g1219" transform="translate(0,-1004.3622)">
        <path id="path1217" fill="#1890d0" transform="matrix(15.333333,0,0,11.5,414.99999,878.8622)" d="m -24 13 c 0 1.105 -0.672 2 -1.5 2 -0.828 0 -1.5 -0.895 -1.5 -2 0 -1.105 0.672 -2 1.5 -2 0.828 0 1.5 0.895 1.5 2 z"/>
      </g>
    </clipPath>
    <linearGradient inkscape:collect="always" xlink:href="#b-56" id="linearGradient5085" x1="16.273546" y1="-8.1238966" x2="48.589397" y2="-8.1238966" gradientUnits="userSpaceOnUse"/>
  </defs>
  <style id="style4485" type="text/css">
	.st0{fill:#005C75;}
	.st1{fill:url(#SVGID_1_);}
	.st2{opacity:0.45;fill:#231F20;}
	.st3{fill:#FFFFFF;}
</style>
  <path style="opacity:1;fill:#589b4c;fill-opacity:1;stroke:#000000;stroke-width:0.33875939;stroke-linecap:square;stroke-linejoin:bevel;stroke-miterlimit:4;stroke-dasharray:none;stroke-dashoffset:0;stroke-opacity:0.078125" d="m 19.506243,2.965082 h 8.729701 c 14.291872,0 17.268523,11.246566 17.268523,17.281625 v 7.122987 c 0,5.959406 -2.778862,17.281623 -18.329171,17.281623 h -7.121513 c -11.8818694,0 -17.6195072,-7.707603 -17.6195072,-17.281623 v -7.122987 c 0,-9.57402 5.6212659,-17.281625 17.0719672,-17.281625 z" id="rect4144" inkscape:connector-curvature="0" sodipodi:nodetypes="sssssssss"/>
  <g id="g369" transform="translate(-56.939678,3.872881)"/>
  <g id="g1185" transform="translate(-67.210864,0.72033878)"/>
  <g id="g1199" transform="translate(-70.808502,-0.51766039)"/>
  <g id="g1215" transform="translate(-51.346458,-3.5508475)"/>
  <g id="g1224" transform="translate(-69.945592,0.77670443)"/>
  <g id="g1236" transform="translate(-76.973577,0.11016944)"/>
  <g id="g4910" transform="translate(-938.37288,-233.42373)"/>
  <g id="g4912" transform="translate(-938.37288,-233.42373)"/>
  <g id="g4914" transform="translate(-938.37288,-233.42373)"/>
  <g id="g4916" transform="translate(-938.37288,-233.42373)"/>
  <g id="g4918" transform="translate(-938.37288,-233.42373)"/>
  <g id="g4920" transform="translate(-938.37288,-233.42373)"/>
  <g id="g4922" transform="translate(-938.37288,-233.42373)"/>
  <g id="g4924" transform="translate(-938.37288,-233.42373)"/>
  <g id="g4926" transform="translate(-938.37288,-233.42373)"/>
  <g id="g4928" transform="translate(-938.37288,-233.42373)"/>
  <g id="g4930" transform="translate(-938.37288,-233.42373)"/>
  <g id="g4932" transform="translate(-938.37288,-233.42373)"/>
  <g id="g4934" transform="translate(-938.37288,-233.42373)"/>
  <g id="g4936" transform="translate(-938.37288,-233.42373)"/>
  <g id="g4938" transform="translate(-938.37288,-233.42373)"/>
  <g id="g5101" transform="matrix(0.83721234,0,0,0.85548676,3.9019169,3.440601)">
    <polygon transform="matrix(0.29120791,0,0,0.27660687,-30.064969,-43.484082)" id="polygon4888-5" points="127.912,276.559 185.553,309.838 243.195,276.559 243.195,210 185.553,176.721 127.912,210 " style="fill:#cccccc"/>
    <rect id="rect4896-3" height="19.143167" width="32.315853" style="fill:url(#linearGradient5085);fill-opacity:1;stroke-width:0.28394806" transform="matrix(0.51941598,0.85452153,-0.87680088,0.48085364,0,0)" y="-17.69548" x="16.273546"/>
    <polygon transform="matrix(0.29120791,0,0,0.25521639,-30.064969,-38.992082)" id="polygon4898-5" points="127.912,210 127.912,276.559 147.704,244.283 " style="fill:#cccccc"/>
    <polygon transform="matrix(0.29120791,0,0,0.27660687,-30.064969,-43.484082)" id="polygon4900-6" points="243.195,210 185.553,176.721 223.979,243.277 " style="fill:#cccccc"/>
    <g transform="matrix(0.65366875,0,0,0.7298702,44.656102,23.01085)" id="g5073">
      <path inkscape:connector-curvature="0" style="fill:#333333;stroke-width:0.08949861" d="m -11.342665,3.5995852 3.4221502,1.90724 -3.4221502,1.90724 -5.25083,-2.9261 v -5.8522 l 5.25083,-2.9261 3.1822802,1.77403 c 0.31885,1.29811 0.51973,2.63946995 0.59307,4.01293 l -1.94575,1.0841 V 0.54212515 l -1.8296002,-1.01886 -1.82959,1.01886 V 2.5807252 Z" id="path4890"/>
      <polygon style="fill:#66a060" points="481.392,236.82 470.203,230.36 459.013,236.82 459.013,249.74 470.203,256.201 481.392,249.74 " id="polygon4892" transform="matrix(0.0911017,0,0,0.08792373,-54.179042,-19.828485)"/>
      <path inkscape:connector-curvature="0" style="fill:#333333;stroke-width:0.08949861" d="m -45.006375,-1.3641448 v 7.71715 l -3.502137,-1.92834 V 0.46870515 l -1.7486,-0.97481 -1.7487,0.97473 V 4.4245752 l -1.98857,1.09518 c -0.1218,-0.9298 -0.18466,-1.87788 -0.18466,-2.83977 0,-1.76207005 0.20944,-3.47729005 0.60637,-5.12278 l 3.31556,-1.84754 z" id="path4894"/>
      <g id="g5025" transform="translate(12.368376,-23.586206)">
        <polygon transform="matrix(0.0911017,0,0,0.08792373,-66.547418,3.7577209)" id="polygon4888" points="243.195,210 185.553,176.721 127.912,210 127.912,276.559 185.553,309.838 243.195,276.559 " style="fill:#3b8739"/>
        <rect id="rect4896" height="6.0111399" width="10.228536" style="fill:#6da75d;stroke-width:0.08951779" transform="matrix(0.51338218,0.85816009,-0.87353691,0.48675791,0,0)" y="52.532932" x="-7.3126793"/>
        <polygon transform="matrix(0.0911017,0,0,0.08792373,-66.547418,3.7577209)" id="polygon4898" points="147.704,244.283 127.912,210 127.912,276.559 " style="fill:#55a344"/>
        <polygon transform="matrix(0.0911017,0,0,0.08792373,-66.547418,3.7577209)" id="polygon4900" points="243.195,210 185.553,176.721 223.979,243.277 " style="fill:#639d57"/>
      </g>
      <path inkscape:connector-curvature="0" style="fill:#333333;stroke-width:0.08949861" d="m -22.607665,-11.073125 v 7.7640102 l -1.76008,-0.98122 -5.25174,2.9261 v 5.8522 l 5.25174,2.9261 5.25083,-2.9261 v -13.75769 z m -0.01,13.6098002 -1.75061,0.97569 -1.75061,-0.97569 V 0.58626515 l 1.75061,-0.97569 1.75061,0.97569 z" id="path4902"/>
    </g>
  </g>
</svg>