<?xml version="1.0" encoding="UTF-8"?>
<svg xmlns="http://www.w3.org/2000/svg" xmlns:xlink="http://www.w3.org/1999/xlink" width="324px" height="234px" viewBox="0 0 324 234" version="1.1">
<defs>
<radialGradient id="radial0" gradientUnits="userSpaceOnUse" cx="90.136406" cy="64.761543" fx="90.136406" fy="64.761543" r="91.591759" gradientTransform="matrix(1.8,0,0,1.304046,0,32.11876)">
<stop offset="0" style="stop-color:rgb(16.078432%,50.196081%,72.549021%);stop-opacity:1;"/>
<stop offset="1" style="stop-color:rgb(20.392157%,28.627452%,36.862746%);stop-opacity:1;"/>
</radialGradient>
<radialGradient id="radial1" gradientUnits="userSpaceOnUse" cx="23.781801" cy="24.347858" fx="23.781801" fy="24.347858" r="16.416317" gradientTransform="matrix(1,0,0,0.954994,0.216976,1.279855)">
<stop offset="0" style="stop-color:rgb(59.607846%,60.392159%,60.784316%);stop-opacity:1;"/>
<stop offset="1" style="stop-color:rgb(96.470588%,96.470588%,96.862745%);stop-opacity:1;"/>
</radialGradient>
<linearGradient id="linear0" gradientUnits="userSpaceOnUse" x1="7.840827" y1="24.347858" x2="39.725224" y2="24.347858" gradientTransform="matrix(1,0,0,1,0.216976,0.184051)">
<stop offset="0" style="stop-color:rgb(0%,0%,0%);stop-opacity:1;"/>
<stop offset="1" style="stop-color:rgb(0%,0%,0%);stop-opacity:0;"/>
</linearGradient>
</defs>
<g id="surface1">
<rect x="0" y="0" width="324" height="234" style="fill:url(#radial0);stroke:none;"/>
<path style="fill:none;stroke-width:1.021703;stroke-linecap:butt;stroke-linejoin:miter;stroke:rgb(100%,100%,100%);stroke-opacity:1;stroke-miterlimit:4;" d="M -0.94401 -1.082899 L 181.217448 -1.082899 L 181.217448 130.605469 L -0.94401 130.605469 Z M -0.94401 -1.082899 " transform="matrix(1.8,0,0,1.8,0,0)"/>
<path style=" stroke:none;fill-rule:nonzero;fill:rgb(58.039218%,76.47059%,25.490198%);fill-opacity:1;" d="M 162.242188 43.136719 L 162.242188 93.625 C 162.652344 93.597656 163.058594 93.539062 163.46875 93.523438 C 184.457031 92.839844 198.050781 110.386719 198.050781 110.386719 C 198.050781 110.386719 182.375 129.042969 166.015625 129.042969 C 164.667969 129.042969 163.441406 128.832031 162.242188 128.644531 L 162.242188 133.734375 C 163.238281 133.847656 164.234375 133.933594 165.304688 133.933594 C 180.535156 133.933594 191.585938 126.273438 202.234375 117.273438 C 204.007812 118.65625 211.253906 121.988281 212.742188 123.460938 C 202.605469 131.777344 179.003906 138.523438 165.613281 138.523438 C 164.46875 138.523438 163.34375 138.421875 162.246094 138.324219 L 162.246094 190.007812 C 203.714844 190.007812 237.328125 157.132812 237.328125 116.574219 C 237.328125 76.019531 203.714844 43.144531 162.246094 43.144531 Z M 162.242188 138.320312 L 162.242188 133.730469 C 143.613281 131.441406 137.25 111.285156 137.25 111.285156 C 137.25 111.285156 145.578125 99.265625 162.242188 98.015625 L 162.242188 93.625 C 143.792969 95.074219 127.867188 110.386719 127.867188 110.386719 C 127.867188 110.386719 136.855469 135.992188 162.242188 138.324219 Z M 162.242188 98.011719 L 162.242188 103.402344 C 163.109375 103.316406 163.992188 103.203125 164.898438 103.203125 C 174.5625 103.203125 180.300781 110.585938 180.300781 110.585938 L 172.449219 117.070312 C 169.003906 111.46875 167.746094 108.761719 162.246094 107.992188 L 162.246094 124.453125 C 163.472656 124.816406 164.835938 125.050781 166.328125 125.050781 C 177.789062 125.050781 188.464844 110.585938 188.464844 110.585938 C 188.464844 110.585938 178.554688 97.453125 163.472656 97.914062 C 163.050781 97.925781 162.65625 97.988281 162.246094 98.011719 Z M 162.242188 124.453125 C 154.296875 121.832031 151.734375 112.675781 151.734375 112.675781 C 151.734375 112.675781 155.269531 108.5625 160.101562 107.988281 C 160.792969 107.914062 161.503906 107.902344 162.242188 107.988281 L 162.242188 103.394531 C 151.011719 104.582031 144.289062 111.875 144.289062 111.875 C 144.289062 111.875 148.164062 126.179688 162.242188 128.636719 L 162.242188 124.445312 Z M 162.242188 124.453125 "/>
<path style=" stroke:none;fill-rule:evenodd;fill:rgb(17.647059%,17.647059%,17.647059%);fill-opacity:1;" d="M 162.242188 43.136719 C 120.777344 43.136719 87.164062 76.011719 87.164062 116.570312 C 87.164062 157.125 120.777344 190 162.242188 190 L 162.242188 138.316406 C 136.855469 135.972656 127.867188 110.382812 127.867188 110.382812 C 127.867188 110.382812 143.792969 95.066406 162.242188 93.621094 L 162.242188 43.132812 Z M 162.242188 93.625 L 162.242188 98.011719 C 162.652344 97.988281 163.046875 97.925781 163.46875 97.914062 C 178.550781 97.453125 188.460938 110.585938 188.460938 110.585938 C 188.460938 110.585938 177.785156 125.050781 166.324219 125.050781 C 164.832031 125.050781 163.46875 124.820312 162.242188 124.453125 L 162.242188 128.644531 C 163.441406 128.832031 164.667969 129.042969 166.015625 129.042969 C 182.371094 129.042969 198.050781 110.386719 198.050781 110.386719 C 198.050781 110.386719 184.457031 92.839844 163.46875 93.523438 C 163.058594 93.539062 162.652344 93.597656 162.242188 93.625 Z M 162.242188 128.644531 C 148.164062 126.1875 144.289062 111.882812 144.289062 111.882812 C 144.289062 111.882812 151.011719 104.585938 162.242188 103.402344 L 162.242188 98.011719 C 145.578125 99.261719 137.25 111.28125 137.25 111.28125 C 137.25 111.28125 143.613281 131.441406 162.242188 133.726562 L 162.242188 128.636719 Z M 162.242188 133.734375 L 162.242188 138.324219 C 163.339844 138.421875 164.464844 138.523438 165.609375 138.523438 C 179 138.523438 202.597656 131.777344 212.742188 123.460938 C 211.25 121.988281 204.003906 118.660156 202.234375 117.273438 C 191.570312 126.273438 180.53125 133.933594 165.300781 133.933594 C 164.230469 133.933594 163.234375 133.851562 162.242188 133.734375 Z M 162.242188 103.402344 L 162.242188 107.992188 C 167.742188 108.765625 169 111.472656 172.445312 117.074219 L 180.300781 110.589844 C 180.300781 110.589844 174.558594 103.203125 164.894531 103.203125 C 163.992188 103.203125 163.109375 103.316406 162.242188 103.40625 Z M 162.242188 107.992188 C 161.503906 107.90625 160.792969 107.921875 160.101562 107.992188 C 155.269531 108.566406 151.734375 112.683594 151.734375 112.683594 C 151.734375 112.683594 154.296875 121.835938 162.242188 124.457031 Z M 162.242188 107.992188 "/>
<path style=" stroke:none;fill-rule:nonzero;fill:rgb(17.647059%,17.647059%,17.647059%);fill-opacity:1;" d="M 121.222656 77.714844 L 162.300781 77.714844 L 162.300781 153.707031 L 121.222656 153.707031 Z M 121.222656 77.714844 "/>
<path style=" stroke:none;fill-rule:nonzero;fill:rgb(58.039218%,76.47059%,25.490198%);fill-opacity:1;" d="M 162.300781 70.824219 L 213.945312 70.824219 L 213.945312 153.707031 L 162.300781 153.707031 Z M 162.300781 70.824219 "/>
<path style="fill-rule:nonzero;fill:url(#radial1);stroke-width:0.440574;stroke-linecap:butt;stroke-linejoin:miter;stroke:url(#linear0);stroke-miterlimit:4;" d="M 29.648765 21.632885 C 32.091087 20.633286 35.272927 20.025207 39.939786 20.151227 C 37.705677 17.421601 35.707304 15.429745 34.510674 13.4281 C 31.201991 15.260902 28.778815 17.158549 26.9731 19.081889 C 26.141442 18.662229 25.21166 18.404071 24.218457 18.37226 C 24.528384 15.860416 25.555093 12.916678 28.020151 9.074891 C 25.338503 9.074891 22.659247 9.074891 19.977599 9.074891 C 19.416379 13.645883 19.783745 16.820863 20.586684 19.308237 C 19.757419 19.808648 19.063373 20.485243 18.545232 21.284188 C 16.439163 19.811095 14.310358 17.739711 12.109755 14.819219 C 11.006462 17.186689 9.910348 18.778462 8.057964 20.14511 C 11.871625 22.880854 14.930212 24.187551 17.589125 24.773607 C 17.62981 25.7365 17.902642 26.629655 18.348985 27.429823 C 15.906663 28.428198 12.723626 29.036277 8.057964 28.909033 C 10.28968 31.63866 12.288053 33.63174 13.488273 35.633384 C 16.793366 33.799359 19.218935 31.905383 21.021061 29.982042 C 21.852719 30.401702 22.7825 30.659861 23.78049 30.691672 C 23.469366 33.203515 22.443854 36.14603 19.977599 39.989041 C 22.659247 39.989041 25.338503 39.989041 28.020151 39.989041 C 28.583764 35.418048 28.215202 32.243068 27.411066 29.754471 C 28.240331 29.255284 28.934377 28.578689 29.453714 27.779744 C 31.559784 29.25039 33.690982 31.324221 35.890389 34.241042 C 36.993682 31.874795 38.087402 30.280576 39.942179 28.916374 C 36.128518 26.179407 33.071128 24.875157 30.408625 24.287878 C 30.36794 23.327431 30.093911 22.434277 29.648765 21.632885 Z M 23.999473 26.466929 C 22.890197 26.466929 21.989134 25.599469 21.989134 24.535024 C 21.989134 23.469357 22.890197 22.601896 23.999473 22.601896 C 25.10875 22.601896 26.011009 23.469357 26.011009 24.535024 C 26.009812 25.599469 25.107553 26.466929 23.999473 26.466929 Z M 23.999473 26.466929 " transform="matrix(3.264375,0,0,3.192687,83.898907,39.944679)"/>
</g>
</svg>
