<?xml version="1.0" encoding="UTF-8"?>
<svg xmlns="http://www.w3.org/2000/svg" xmlns:xlink="http://www.w3.org/1999/xlink" width="324px" height="234px" viewBox="0 0 324 234" version="1.1">
<g id="surface1">
<rect x="0" y="0" width="324" height="234" style="fill:rgb(85.490197%,30.980393%,62.352943%);fill-opacity:1;stroke:none;"/>
<path style="fill:none;stroke-width:1.021703;stroke-linecap:butt;stroke-linejoin:miter;stroke:rgb(100%,100%,100%);stroke-opacity:1;stroke-miterlimit:4;" d="M -0.94401 -1.082899 L 181.217448 -1.082899 L 181.217448 130.605469 L -0.94401 130.605469 Z M -0.94401 -1.082899 " transform="matrix(1.8,0,0,1.8,0,0)"/>
<path style=" stroke:none;fill-rule:evenodd;fill:rgb(100%,100%,100%);fill-opacity:1;" d="M 181.121094 156.257812 L 181.121094 81.046875 C 181.121094 78.96875 182.742188 77.285156 184.734375 77.285156 L 190.601562 77.285156 C 192.597656 77.285156 194.214844 78.96875 194.214844 81.046875 L 194.214844 156.257812 C 194.214844 158.335938 192.597656 160.019531 190.601562 160.019531 L 184.734375 160.019531 C 182.742188 160.019531 181.121094 158.335938 181.121094 156.257812 Z M 181.121094 156.257812 "/>
<path style=" stroke:none;fill-rule:evenodd;fill:rgb(100%,100%,100%);fill-opacity:1;" d="M 204.75 134.324219 L 204.75 95.664062 C 204.75 94.597656 205.582031 93.730469 206.605469 93.730469 L 215.984375 93.730469 C 217.011719 93.730469 217.84375 94.597656 217.84375 95.664062 L 217.84375 134.324219 C 217.84375 135.390625 217.011719 136.253906 215.984375 136.253906 L 206.605469 136.253906 C 205.582031 136.253906 204.75 135.390625 204.75 134.324219 Z M 204.75 134.324219 "/>
<path style=" stroke:none;fill-rule:evenodd;fill:rgb(100%,100%,100%);fill-opacity:1;" d="M 229.425781 158.484375 L 229.425781 72.34375 C 229.425781 69.964844 231.277344 68.039062 233.5625 68.039062 L 238.378906 68.039062 C 240.664062 68.039062 242.519531 69.964844 242.519531 72.34375 L 242.519531 158.484375 C 242.519531 160.863281 240.664062 162.792969 238.378906 162.792969 L 233.5625 162.792969 C 231.277344 162.792969 229.425781 160.863281 229.425781 158.484375 Z M 229.425781 158.484375 "/>
<path style=" stroke:none;fill-rule:evenodd;fill:rgb(100%,100%,100%);fill-opacity:1;" d="M 107.09375 169.6875 L 107.09375 67.152344 C 107.09375 64.320312 109.300781 62.027344 112.019531 62.027344 L 115.261719 62.027344 C 117.980469 62.027344 120.1875 64.320312 120.1875 67.152344 L 120.1875 169.6875 C 120.1875 172.519531 117.980469 174.8125 115.261719 174.8125 L 112.019531 174.8125 C 109.300781 174.8125 107.09375 172.519531 107.09375 169.6875 Z M 107.09375 169.6875 "/>
<path style=" stroke:none;fill-rule:evenodd;fill:rgb(100%,100%,100%);fill-opacity:1;" d="M 131.769531 159.222656 L 131.769531 78.542969 C 131.769531 76.316406 133.503906 74.511719 135.644531 74.511719 L 140.988281 74.511719 C 143.128906 74.511719 144.863281 76.316406 144.863281 78.542969 L 144.863281 159.222656 C 144.863281 161.449219 143.128906 163.253906 140.988281 163.253906 L 135.644531 163.253906 C 133.503906 163.253906 131.769531 161.449219 131.769531 159.222656 Z M 131.769531 159.222656 "/>
<path style=" stroke:none;fill-rule:evenodd;fill:rgb(100%,100%,100%);fill-opacity:1;" d="M 156.445312 176.664062 L 156.445312 56.476562 C 156.445312 53.160156 159.03125 50.46875 162.21875 50.46875 L 163.765625 50.46875 C 166.953125 50.46875 169.539062 53.160156 169.539062 56.476562 L 169.539062 176.664062 C 169.539062 179.984375 166.953125 182.671875 163.765625 182.671875 L 162.21875 182.671875 C 159.03125 182.671875 156.445312 179.984375 156.445312 176.664062 Z M 156.445312 176.664062 "/>
<path style=" stroke:none;fill-rule:evenodd;fill:rgb(100%,100%,100%);fill-opacity:1;" d="M 81.972656 141.976562 L 81.972656 93.472656 C 81.972656 92.132812 83.015625 91.046875 84.300781 91.046875 L 92.734375 91.046875 C 94.023438 91.046875 95.066406 92.132812 95.066406 93.472656 L 95.066406 141.976562 C 95.066406 143.316406 94.023438 144.402344 92.734375 144.402344 L 84.300781 144.402344 C 83.015625 144.402344 81.972656 143.316406 81.972656 141.976562 Z M 81.972656 141.976562 "/>
</g>
</svg>
