<?xml version="1.0" encoding="UTF-8"?>
<svg xmlns="http://www.w3.org/2000/svg" xmlns:xlink="http://www.w3.org/1999/xlink" width="324px" height="234px" viewBox="0 0 324 234" version="1.1">
<defs>
<radialGradient id="radial0" gradientUnits="userSpaceOnUse" cx="90.136406" cy="64.761543" fx="90.136406" fy="64.761543" r="91.591759" gradientTransform="matrix(1.8,0,0,1.304046,0,32.11876)">
<stop offset="0" style="stop-color:rgb(28.627452%,7.450981%,3.529412%);stop-opacity:1;"/>
<stop offset="1" style="stop-color:rgb(71.372551%,39.215687%,17.647059%);stop-opacity:1;"/>
</radialGradient>
<linearGradient id="linear0" gradientUnits="userSpaceOnUse" x1="10.983955" y1="23.637308" x2="36.162823" y2="23.637308" gradientTransform="matrix(2.864537,0,0,2.334728,22.610357,9.576121)">
<stop offset="0" style="stop-color:rgb(77.64706%,80.392158%,81.960785%);stop-opacity:1;"/>
<stop offset="1" style="stop-color:rgb(87.843138%,89.803922%,90.588236%);stop-opacity:1;"/>
</linearGradient>
</defs>
<g id="surface1">
<rect x="0" y="0" width="324" height="234" style="fill:url(#radial0);stroke:none;"/>
<path style="fill:none;stroke-width:1.021703;stroke-linecap:butt;stroke-linejoin:miter;stroke:rgb(100%,100%,100%);stroke-opacity:1;stroke-miterlimit:4;" d="M -0.94401 -1.082899 L 181.217448 -1.082899 L 181.217448 130.605469 L -0.94401 130.605469 Z M -0.94401 -1.082899 " transform="matrix(1.8,0,0,1.8,0,0)"/>
<path style="fill-rule:nonzero;fill:url(#linear0);stroke-width:0.393801;stroke-linecap:butt;stroke-linejoin:miter;stroke:rgb(80.000001%,63.921571%,12.941177%);stroke-opacity:0.636364;stroke-miterlimit:4;" d="M 64.676649 101.623264 C 64.548611 101.365017 64.609375 100.909288 64.813368 100.609809 C 65.182292 100.062934 64.746094 99.854601 64.162326 100.297309 C 63.728299 100.62717 61.430122 100.590278 61.577691 100.256076 C 61.642795 100.104167 62.521701 99.750434 63.528646 99.468316 C 65.334201 98.960503 65.726997 98.27691 64.127604 98.424479 C 63.487413 98.483073 63.621962 98.296441 64.743924 97.573785 C 65.533854 97.065972 66.516927 96.644965 66.927083 96.640625 C 67.905816 96.629774 71.792535 95.685764 72.450087 95.299479 C 73.016493 94.965278 73.211806 87.910156 72.65408 87.888455 C 72.484809 87.881944 71.25651 87.111545 69.926215 86.174045 C 67.771267 84.657118 67.313368 84.470486 65.729167 84.470486 C 61.629774 84.470486 56.627604 86.944444 57.063802 88.758681 C 57.18316 89.257812 57.03342 89.459635 56.540799 89.459635 C 55.640191 89.459635 53.821615 87.892795 54.405382 87.619358 C 54.644097 87.50651 54.963108 86.436632 55.112847 85.240885 C 55.421007 82.801649 55.681424 82.408854 59.045139 79.307726 C 61.41276 77.126736 63.519965 76.09809 67.411024 75.221354 C 69.665799 74.715712 69.286024 72.719184 66.697049 71.480035 C 62.126736 69.290365 60.948351 66.883681 62.65625 63.235677 C 64.262153 59.806858 69.181858 51.788194 69.238281 52.50434 C 69.296875 53.220486 68.007812 57.638889 67.204861 59.476997 C 66.727431 60.568576 66.414931 61.519097 66.510417 61.590712 C 66.890191 61.87934 67.996962 60.416667 71.592882 54.878472 C 75.184462 49.344618 75.360243 49.140625 75.349392 50.477431 C 75.338542 52.150608 74.600694 54.266493 73.415799 56.028646 C 72.940538 56.736111 72.552083 57.393663 72.552083 57.49349 C 72.552083 57.986111 74.986979 55.366753 76.25 53.513455 C 77.042101 52.354601 78.669705 50.598958 79.869792 49.615885 L 82.048611 47.827691 L 80.520833 50.010851 C 79.68099 51.210938 78.810764 52.371962 78.58941 52.591146 C 78.370226 52.80816 78.289931 53.064236 78.413628 53.159722 C 78.665365 53.350694 81.764323 50.238715 85.625 45.915799 C 87.02474 44.351128 88.426649 42.905816 88.741319 42.708333 C 89.05816 42.508681 90.551215 40.282118 92.061632 37.758247 C 95.175781 32.549913 96.914062 29.941406 98.305122 28.387587 C 99.192708 27.395833 99.264323 27.369792 99.251302 28.057726 C 99.22309 29.479167 97.881944 33.101128 97.098524 33.867188 C 96.88151 34.082031 96.631944 34.960938 96.542969 35.824653 C 96.453993 36.688368 96.336806 37.549913 96.282552 37.738715 C 96.037326 38.585069 97.34592 38.246528 99.147135 36.994358 C 100.230035 36.24566 101.946615 35.14974 102.96441 34.559462 C 103.980035 33.971354 106.384549 32.491319 108.305122 31.269531 C 111.892361 28.993056 114.470486 27.760417 114.470486 28.326823 C 114.470486 28.502604 112.528212 30.123698 110.15625 31.929253 C 107.782118 33.734809 105.839844 35.349392 105.839844 35.516493 C 105.839844 35.683594 105.542535 35.820312 105.180122 35.820312 C 104.743924 35.820312 104.605035 35.989583 104.772135 36.319444 C 104.921875 36.616753 104.592014 37.207031 103.947483 37.788628 C 101.990017 39.552951 103.695747 39.029948 107.743056 36.623264 C 109.928385 35.323351 112.074653 34.259983 112.513021 34.259983 C 112.951389 34.259983 114.079861 33.851997 115.019531 33.352865 C 116.835938 32.389323 118.582899 31.86849 118.574219 32.291667 C 118.572049 32.430556 117.18533 33.658854 115.492622 35.021701 C 113.799913 36.382378 112.415365 37.612847 112.415365 37.756076 C 112.415365 38.085938 106.371528 42.680122 105.93533 42.680122 C 105.755208 42.680122 105.279948 43.101128 104.878472 43.617622 C 104.476997 44.131944 104.249132 44.552951 104.36849 44.552951 C 104.876302 44.552951 110.831163 42.632378 114.032118 41.436632 C 115.9375 40.722656 118.394097 39.882812 119.494358 39.565972 L 121.490885 38.988715 L 121.230469 39.665799 C 120.94184 40.414497 119.236111 41.651476 116.731771 42.921007 C 115.826823 43.381076 114.346788 44.197049 113.44401 44.733073 C 112.539062 45.271267 110.720486 46.078559 109.401042 46.529948 C 105.750868 47.775608 106.417101 48.157552 112.046441 48.046875 C 116.757812 47.953559 121.588542 48.465712 121.338976 49.032118 C 121.171875 49.409722 117.905816 50.119358 114.36849 50.544705 C 112.842882 50.726997 111.592882 50.989583 111.592882 51.126302 C 111.592882 51.263021 112.426215 51.469184 113.44401 51.586372 C 114.585503 51.71658 115.292969 51.957465 115.292969 52.217882 C 115.292969 52.960069 113.921441 53.229167 111.024306 53.053385 C 108.719618 52.912326 108.231337 52.960069 108.381076 53.315972 C 108.483073 53.556858 109.385851 53.962674 110.388455 54.22092 C 112.070312 54.652778 115.091146 56.130642 115.798611 56.86849 C 115.963542 57.042101 115.807292 57.34809 115.449219 57.552083 C 115.091146 57.753906 114.908854 58.055556 115.043403 58.220486 C 115.177951 58.385417 114.802517 58.611111 114.21224 58.723958 C 112.97092 58.960503 112.005208 59.607205 112.007378 60.201823 C 112.007378 60.427517 112.363281 61.056858 112.799479 61.597222 C 113.487413 62.454427 113.515625 62.65625 113.016493 63.157552 C 112.202691 63.971354 112.282986 64.511719 113.213976 64.511719 C 114.416233 64.511719 114.596354 65.032552 113.580729 65.572917 C 112.701823 66.039497 112.697483 66.069878 113.43316 66.686198 C 114.173177 67.306858 114.166667 67.317708 112.992622 67.322049 C 111.822917 67.328559 110.403646 67.784288 110.78342 68.033854 C 110.889757 68.105469 111.347656 68.318142 111.799045 68.509115 C 112.452257 68.786892 112.482639 68.860677 111.953125 68.867188 C 111.017795 68.882378 110.269097 69.618056 110.789931 70.013021 C 111.061198 70.219184 110.852865 70.46658 110.16276 70.744358 C 109.594184 70.976562 109.127604 71.40625 109.127604 71.699219 C 109.127604 71.998698 108.580729 72.404514 107.879774 72.623698 C 106.427951 73.081597 105.742188 73.867188 106.25217 74.492188 C 106.807726 75.175781 106.343316 75.425347 104.481337 75.444878 C 101.859809 75.47526 97.49349 76.182726 97.306858 76.608073 C 97.211372 76.827257 97.543403 76.996528 98.101128 77.011719 C 99.003906 77.03776 98.997396 77.052951 97.957899 77.291667 C 97.352431 77.430556 96.451823 77.829861 95.954861 78.181424 L 95.052083 78.819444 L 97.467448 78.656684 C 103.322483 78.261719 108.645833 77.519531 111.940104 76.636285 C 115.570747 75.664062 117.8125 75.115017 118.144531 75.115017 C 118.246528 75.115017 117.460938 75.531684 116.39974 76.043837 C 113.613281 77.384983 114.029948 77.469618 117.176649 76.204427 C 119.624566 75.217014 121.456163 74.826389 121.456163 75.290799 C 121.456163 75.388455 121.265191 75.740017 121.030816 76.069878 C 120.720486 76.512587 120.740017 76.673177 121.102431 76.673177 C 121.375868 76.673177 121.152344 77.044271 120.603299 77.49566 L 119.607205 78.315972 L 121.525608 78.159722 C 122.986111 78.040365 123.396267 78.101128 123.240017 78.407118 C 123.12934 78.628472 122.773438 78.884549 122.452257 78.980035 C 120.928819 79.422743 122.647569 80.266927 124.84809 80.15191 C 126.048177 80.091146 126.354167 80.62934 125.488281 81.286892 C 124.746094 81.851128 124.748264 82.532552 125.492622 82.749566 C 126.584201 83.068576 125.245226 83.524306 123.203125 83.530816 C 122.243924 83.532986 121.456163 83.656684 121.456163 83.804253 C 121.456163 83.951823 118.266059 84.173177 114.36849 84.299045 C 110.46875 84.422743 107.19401 84.589844 107.087674 84.667969 C 106.983507 84.746094 107.124566 85.084635 107.400174 85.421007 C 108.001302 86.150174 108.031684 86.148003 105.839844 85.562066 C 103.60026 84.963108 102.007378 84.969618 100.431858 85.588108 L 99.173177 86.080729 L 100.646701 86.840278 C 101.458333 87.259115 102.309028 87.866753 102.539062 88.194444 C 102.923177 88.736979 102.81467 88.778212 101.213108 88.689236 C 100.253906 88.634983 98.914931 88.496094 98.237847 88.378906 L 97.005208 88.164062 L 98.031684 88.804253 C 98.89974 89.346788 98.943142 89.446615 98.315972 89.453125 C 97.877604 89.457465 97.688802 89.602865 97.853733 89.804688 C 98.044705 90.041233 97.758247 90.095486 96.953125 89.978299 C 96.302083 89.882812 95.206163 89.722222 94.513889 89.622396 C 93.248698 89.435764 91.827257 90.136719 91.998698 90.863715 C 92.039931 91.035156 91.655816 91.312934 91.148003 91.482205 C 90.117188 91.827257 89.976128 92.267795 90.716146 92.827691 C 91.10026 93.11849 91.011285 93.203125 90.31901 93.203125 C 89.830729 93.203125 89.238281 93.474392 89.003906 93.806424 C 88.632812 94.333767 88.255208 94.390191 86.113281 94.251302 C 84.05599 94.116753 83.689236 94.166667 83.882378 94.550781 C 84.010417 94.804688 83.914931 95.104167 83.669705 95.219184 C 83.424479 95.334201 83.342014 95.575087 83.487413 95.753038 C 83.74349 96.067708 81.321615 97.877604 80.644531 97.879774 C 80.46224 97.879774 80.425347 98.020833 80.566406 98.192274 C 80.93099 98.639323 80.208333 98.578559 78.298611 97.999132 C 76.751302 97.528212 76.577691 97.530382 75.870226 98.016493 C 75.386285 98.348524 75.186632 98.791233 75.323351 99.22309 C 75.501302 99.782986 75.440538 99.83724 74.991319 99.518229 C 74.68967 99.303385 74.175347 99.127604 73.849826 99.127604 C 73.524306 99.127604 73.033854 98.895399 72.758247 98.608941 C 72.445747 98.28342 71.990017 98.168403 71.536458 98.302951 C 70.891927 98.489583 70.928819 98.582899 71.888021 99.155816 C 72.673611 99.624566 72.949219 100.065104 72.914497 100.78776 C 72.888455 101.332465 72.786458 101.547309 72.686632 101.265191 C 72.588976 100.983073 72.19401 100.664062 71.809896 100.557726 C 71.427951 100.451389 70.670573 100.169271 70.128038 99.928385 C 69.236111 99.53342 68.949653 99.572483 67.161458 100.323351 C 66.074219 100.78125 65.121528 101.365017 65.045573 101.623264 C 64.924045 102.03776 64.884983 102.03776 64.676649 101.623264 Z M 57.756076 84.157986 C 57.756076 83.44401 56.72526 83.311632 56.386719 83.982205 C 56.182726 84.385851 56.599392 84.68967 57.447917 84.756944 C 57.619358 84.772135 57.756076 84.500868 57.756076 84.157986 Z M 57.756076 84.157986 " transform="matrix(1.8,0,0,1.8,0,0)"/>
</g>
</svg>
