<?xml version="1.0" encoding="UTF-8"?>
<svg xmlns="http://www.w3.org/2000/svg" xmlns:xlink="http://www.w3.org/1999/xlink" width="324px" height="234px" viewBox="0 0 324 234" version="1.1">
<defs>
<radialGradient id="radial0" gradientUnits="userSpaceOnUse" cx="90.136406" cy="64.761543" fx="90.136406" fy="64.761543" r="91.591759" gradientTransform="matrix(1.8,0,0,1.304046,0,32.11876)">
<stop offset="0" style="stop-color:rgb(28.627452%,7.450981%,3.529412%);stop-opacity:1;"/>
<stop offset="1" style="stop-color:rgb(71.372551%,39.215687%,17.647059%);stop-opacity:1;"/>
</radialGradient>
</defs>
<g id="surface1">
<rect x="0" y="0" width="324" height="234" style="fill:url(#radial0);stroke:none;"/>
<path style="fill:none;stroke-width:1.021703;stroke-linecap:butt;stroke-linejoin:miter;stroke:rgb(100%,100%,100%);stroke-opacity:1;stroke-miterlimit:4;" d="M -0.94401 -1.082899 L 181.217448 -1.082899 L 181.217448 130.605469 L -0.94401 130.605469 Z M -0.94401 -1.082899 " transform="matrix(1.8,0,0,1.8,0,0)"/>
<path style=" stroke:none;fill-rule:evenodd;fill:rgb(100%,83.137256%,34.901962%);fill-opacity:1;" d="M 236.007812 116.570312 C 236.007812 157.734375 202.984375 191.101562 162.246094 191.101562 C 121.507812 191.101562 88.484375 157.734375 88.484375 116.570312 C 88.484375 75.40625 121.507812 42.039062 162.246094 42.039062 C 202.984375 42.039062 236.007812 75.40625 236.007812 116.570312 Z M 236.007812 116.570312 "/>
<path style=" stroke:none;fill-rule:nonzero;fill:rgb(51.372552%,72.156864%,28.235295%);fill-opacity:1;" d="M 214.402344 63.867188 L 110.085938 169.273438 C 123.433594 182.761719 141.875 191.101562 162.246094 191.101562 C 202.984375 191.101562 236.007812 157.734375 236.007812 116.570312 C 236.007812 95.988281 227.753906 77.355469 214.402344 63.867188 Z M 214.402344 63.867188 "/>
<path style=" stroke:none;fill-rule:evenodd;fill:rgb(53.333336%,64.313728%,23.137255%);fill-opacity:1;" d="M 214.402344 63.867188 C 157.683594 65.78125 111.863281 111.824219 110.097656 169.269531 C 166.816406 167.355469 212.636719 121.3125 214.402344 63.867188 Z M 214.402344 63.867188 "/>
<path style=" stroke:none;fill-rule:evenodd;fill:rgb(51.372552%,72.156864%,28.235295%);fill-opacity:1;" d="M 182.832031 116.347656 C 182.714844 127.832031 173.40625 137.042969 162.042969 136.925781 C 150.679688 136.808594 141.5625 127.402344 141.679688 115.921875 C 141.796875 104.4375 151.101562 95.226562 162.46875 95.34375 C 173.832031 95.460938 182.949219 104.867188 182.832031 116.347656 Z M 182.832031 116.347656 "/>
<path style=" stroke:none;fill-rule:evenodd;fill:rgb(100%,83.137256%,34.901962%);fill-opacity:1;" d="M 173.332031 116.25 C 173.269531 122.433594 168.257812 127.394531 162.140625 127.328125 C 156.023438 127.265625 151.113281 122.203125 151.175781 116.019531 C 151.238281 109.835938 156.25 104.875 162.367188 104.941406 C 168.488281 105.003906 173.398438 110.066406 173.332031 116.25 Z M 173.332031 116.25 "/>
<path style=" stroke:none;fill-rule:evenodd;fill:rgb(51.372552%,72.156864%,28.235295%);fill-opacity:1;" d="M 147.484375 145.457031 C 147.398438 153.660156 140.75 160.238281 132.632812 160.152344 C 124.519531 160.070312 118.003906 153.351562 118.089844 145.148438 C 118.171875 136.949219 124.820312 130.367188 132.9375 130.453125 C 141.054688 130.539062 147.566406 137.253906 147.484375 145.457031 Z M 147.484375 145.457031 "/>
<path style=" stroke:none;fill-rule:evenodd;fill:rgb(100%,83.137256%,34.901962%);fill-opacity:1;" d="M 138.210938 145.359375 C 138.183594 148.386719 135.726562 150.816406 132.730469 150.785156 C 129.734375 150.753906 127.328125 148.273438 127.359375 145.246094 C 127.390625 142.21875 129.84375 139.789062 132.84375 139.820312 C 135.839844 139.851562 138.242188 142.332031 138.210938 145.359375 Z M 138.210938 145.359375 "/>
<path style=" stroke:none;fill-rule:evenodd;fill:rgb(51.372552%,72.156864%,28.235295%);fill-opacity:1;" d="M 206.191406 87.34375 C 206.109375 95.546875 199.460938 102.128906 191.34375 102.042969 C 183.226562 101.957031 176.714844 95.242188 176.796875 87.039062 C 176.882812 78.835938 183.53125 72.257812 191.648438 72.339844 C 199.761719 72.425781 206.277344 79.144531 206.191406 87.34375 Z M 206.191406 87.34375 "/>
<path style=" stroke:none;fill-rule:evenodd;fill:rgb(100%,83.137256%,34.901962%);fill-opacity:1;" d="M 196.921875 87.25 C 196.890625 90.277344 194.4375 92.707031 191.4375 92.675781 C 188.441406 92.644531 186.039062 90.164062 186.066406 87.136719 C 186.097656 84.105469 188.554688 81.675781 191.550781 81.707031 C 194.546875 81.738281 196.953125 84.21875 196.921875 87.25 Z M 196.921875 87.25 "/>
</g>
</svg>
