<?xml version="1.0" encoding="UTF-8"?>
<svg xmlns="http://www.w3.org/2000/svg" xmlns:xlink="http://www.w3.org/1999/xlink" width="324px" height="234px" viewBox="0 0 324 234" version="1.1">
<defs>
<linearGradient id="linear0" gradientUnits="userSpaceOnUse" x1="-1.455352" y1="64.761543" x2="181.728165" y2="64.761543" gradientTransform="matrix(0.00000000000000011,-1.8,1.8,0.00000000000000011,-100.66092,83.303387)">
<stop offset="0" style="stop-color:rgb(72.156864%,0%,0%);stop-opacity:1;"/>
<stop offset="1" style="stop-color:rgb(79.607844%,0%,0%);stop-opacity:1;"/>
</linearGradient>
<clipPath id="clip1">
  <path d="M 94 47 L 230 47 L 230 187 L 94 187 Z M 94 47 "/>
</clipPath>
<clipPath id="clip2">
  <path d="M 292.058594 116.570312 C 292.058594 190.230469 233.902344 249.894531 162.246094 249.894531 C 90.589844 249.894531 32.433594 190.230469 32.433594 116.570312 C 32.433594 42.910156 90.589844 -16.75 162.246094 -16.75 C 233.902344 -16.75 292.058594 42.910156 292.058594 116.570312 Z M 292.058594 116.570312 "/>
</clipPath>
</defs>
<g id="surface1">
<rect x="0" y="0" width="324" height="234" style="fill:url(#linear0);stroke:none;"/>
<path style="fill:none;stroke-width:1.021703;stroke-linecap:butt;stroke-linejoin:miter;stroke:rgb(100%,100%,100%);stroke-opacity:1;stroke-miterlimit:4;" d="M -0.94401 -1.082899 L 181.217448 -1.082899 L 181.217448 130.605469 L -0.94401 130.605469 Z M -0.94401 -1.082899 " transform="matrix(1.8,0,0,1.8,0,0)"/>
<g clip-path="url(#clip1)" clip-rule="nonzero">
<g clip-path="url(#clip2)" clip-rule="nonzero">
<path style=" stroke:none;fill-rule:nonzero;fill:rgb(100%,100%,100%);fill-opacity:1;" d="M 94.515625 47.011719 L 134.023438 87.585938 L 94.515625 128.164062 L 94.515625 186.128906 L 150.957031 186.128906 L 190.464844 145.554688 L 229.972656 186.128906 L 229.972656 47.011719 M 134.023438 87.585938 L 190.464844 87.585938 L 190.464844 145.53125 L 134.023438 145.554688 M 134.023438 87.585938 "/>
</g>
</g>
</g>
</svg>
