<?xml version="1.0" encoding="UTF-8" standalone="no"?>
<!-- Generator: Gravit.io -->

<svg
   xmlns:dc="http://purl.org/dc/elements/1.1/"
   xmlns:cc="http://creativecommons.org/ns#"
   xmlns:rdf="http://www.w3.org/1999/02/22-rdf-syntax-ns#"
   xmlns:svg="http://www.w3.org/2000/svg"
   xmlns="http://www.w3.org/2000/svg"
   xmlns:sodipodi="http://sodipodi.sourceforge.net/DTD/sodipodi-0.dtd"
   xmlns:inkscape="http://www.inkscape.org/namespaces/inkscape"
   style="isolation:isolate"
   viewBox="0 0 180 130"
   width="180pt"
   height="130pt"
   version="1.1"
   id="svg35"
   sodipodi:docname="sayonara.svg"
   inkscape:version="0.92.4 (5da689c313, 2019-01-14)">
  <metadata
     id="metadata39">
    <rdf:RDF>
      <cc:Work
         rdf:about="">
        <dc:format>image/svg+xml</dc:format>
        <dc:type
           rdf:resource="http://purl.org/dc/dcmitype/StillImage" />
      </cc:Work>
    </rdf:RDF>
  </metadata>
  <sodipodi:namedview
     pagecolor="#ffffff"
     bordercolor="#666666"
     borderopacity="1"
     objecttolerance="10"
     gridtolerance="10"
     guidetolerance="10"
     inkscape:pageopacity="0"
     inkscape:pageshadow="2"
     inkscape:window-width="1360"
     inkscape:window-height="728"
     id="namedview37"
     showgrid="false"
     inkscape:zoom="1.3615385"
     inkscape:cx="120"
     inkscape:cy="86.666667"
     inkscape:window-x="0"
     inkscape:window-y="0"
     inkscape:window-maximized="1"
     inkscape:current-layer="svg35" />
  <defs
     id="defs5">
    <clipPath
       id="_clipPath_pPNOtSMD2MJgs4IWQMjcvGFQZUnvkpRl">
      <rect
         width="180"
         height="130"
         id="rect2" />
    </clipPath>
  </defs>
  <rect
     style="vector-effect:non-scaling-stroke;fill:#cc6821;stroke:#ffffff;stroke-width:1.02199996;stroke-linecap:butt;stroke-linejoin:miter;stroke-miterlimit:2"
     id="rect7"
     stroke-miterlimit="2"
     height="131.689"
     width="182.162"
     y="-1.0829999"
     x="-0.94499999" />
  <g
     id="g31"
     transform="matrix(0.94247291,0,0,0.93140364,3.9727717,3.4439362)">
    <g
       id="g11"
       style="opacity:0.2;mix-blend-mode:normal">
      <path
         inkscape:connector-curvature="0"
         id="path9"
         style="fill:#000000;stroke:none;stroke-miterlimit:10"
         d="m 52.642,23.821 h 77.561 c 2.378,0 4.309,1.931 4.309,4.309 v 77.561 c 0,2.378 -1.931,4.309 -4.309,4.309 H 52.642 c -2.378,0 -4.309,-1.931 -4.309,-4.309 V 28.13 c 0,-2.378 1.931,-4.309 4.309,-4.309 z" />
    </g>
    <path
       inkscape:connector-curvature="0"
       id="path13"
       style="fill:#4f4f4f;stroke:none;stroke-miterlimit:10"
       d="m 52.642,21.667 h 77.561 c 2.378,0 4.309,1.93 4.309,4.309 v 77.561 c 0,2.378 -1.931,4.309 -4.309,4.309 H 52.642 c -2.378,0 -4.309,-1.931 -4.309,-4.309 V 25.976 c 0,-2.379 1.931,-4.309 4.309,-4.309 z" />
    <g
       style="opacity:0.1"
       id="g17">
      <path
         style="fill:#ffffff"
         inkscape:connector-curvature="0"
         id="path15"
         d="m 52.642,21.667 c -2.387,0 -4.309,1.921 -4.309,4.309 v 2.154 c 0,-2.387 1.922,-4.309 4.309,-4.309 h 77.561 c 2.387,0 4.309,1.922 4.309,4.309 v -2.154 c 0,-2.388 -1.922,-4.309 -4.309,-4.309 z" />
    </g>
    <g
       style="opacity:0.2"
       id="g21">
      <path
         style="fill:#000000"
         inkscape:connector-curvature="0"
         id="path19"
         d="m 65.569,32.532 c -4.759,0 -8.618,3.858 -8.618,8.617 0,4.76 3.859,8.618 8.618,8.618 4.76,0 8.618,-3.858 8.618,-8.618 0,-4.759 -3.858,-8.617 -8.618,-8.617 z m 25.854,0.122 c -4.775,0 -8.618,3.843 -8.618,8.618 0,4.774 3.843,8.617 8.618,8.617 h 25.853 c 4.775,0 8.618,-3.843 8.618,-8.617 0,-4.775 -3.843,-8.618 -8.618,-8.618 z M 65.569,58.171 c -4.759,0 -8.618,3.858 -8.618,8.618 0,4.759 3.859,8.617 8.618,8.617 4.76,0 8.618,-3.858 8.618,-8.617 0,-4.76 -3.858,-8.618 -8.618,-8.618 z m 25.854,0.122 c -4.775,0 -8.618,3.843 -8.618,8.618 0,4.774 3.843,8.617 8.618,8.617 h 25.853 c 4.775,0 8.618,-3.843 8.618,-8.617 0,-4.775 -3.843,-8.618 -8.618,-8.618 z M 65.569,84.024 c -4.759,0 -8.618,3.859 -8.618,8.618 0,4.76 3.859,8.618 8.618,8.618 4.76,0 8.618,-3.858 8.618,-8.618 0,-4.759 -3.858,-8.618 -8.618,-8.618 z m 25.854,0.122 c -4.775,0 -8.618,3.844 -8.618,8.618 0,4.775 3.843,8.618 8.618,8.618 h 25.853 c 4.775,0 8.618,-3.843 8.618,-8.618 0,-4.774 -3.843,-8.618 -8.618,-8.618 z" />
    </g>
    <g
       id="g29">
      <path
         style="fill:#ffffff"
         inkscape:connector-curvature="0"
         id="path23"
         d="m 65.569,56.016 c -4.759,0 -8.618,3.859 -8.618,8.618 0,4.76 3.859,8.618 8.618,8.618 4.76,0 8.618,-3.858 8.618,-8.618 0,-4.759 -3.858,-8.618 -8.618,-8.618 z m 25.854,0.122 c -4.775,0 -8.618,3.844 -8.618,8.618 0,4.774 3.843,8.618 8.618,8.618 h 25.853 c 4.775,0 8.618,-3.844 8.618,-8.618 0,-4.774 -3.843,-8.618 -8.618,-8.618 z" />
      <path
         style="fill:#ff9448"
         inkscape:connector-curvature="0"
         id="path25"
         d="m 65.569,81.87 c -4.759,0 -8.618,3.858 -8.618,8.618 0,4.759 3.859,8.618 8.618,8.618 4.76,0 8.618,-3.859 8.618,-8.618 0,-4.76 -3.858,-8.618 -8.618,-8.618 z m 25.854,0.122 c -4.775,0 -8.618,3.843 -8.618,8.618 0,4.774 3.843,8.618 8.618,8.618 h 25.853 c 4.775,0 8.618,-3.844 8.618,-8.618 0,-4.775 -3.843,-8.618 -8.618,-8.618 z" />
      <path
         style="fill:#ffffff"
         inkscape:connector-curvature="0"
         id="path27"
         d="m 65.569,30.378 c -4.759,0 -8.618,3.858 -8.618,8.618 0,4.759 3.859,8.618 8.618,8.618 4.76,0 8.618,-3.859 8.618,-8.618 0,-4.76 -3.858,-8.618 -8.618,-8.618 z M 91.423,30.5 c -4.775,0 -8.618,3.844 -8.618,8.618 0,4.774 3.843,8.618 8.618,8.618 h 25.853 c 4.775,0 8.618,-3.844 8.618,-8.618 0,-4.774 -3.843,-8.618 -8.618,-8.618 z" />
    </g>
  </g>
</svg>
