<?xml version="1.0" encoding="UTF-8" standalone="no"?><!-- Generator: Gravit.io --><svg xmlns="http://www.w3.org/2000/svg" xmlns:xlink="http://www.w3.org/1999/xlink" style="isolation:isolate" viewBox="0 0 180 130" width="180pt" height="130pt"><defs><clipPath id="_clipPath_NKlpfF49CI4RVL2HqcaVzb7wNHoPdq7n"><rect width="180" height="130"/></clipPath></defs><g clip-path="url(#_clipPath_NKlpfF49CI4RVL2HqcaVzb7wNHoPdq7n)"><rect x="-0.945" y="-1.083" width="182.162" height="131.689" transform="matrix(1,0,0,1,0,0)" fill="rgb(24,59,87)" vector-effect="non-scaling-stroke" stroke-width="1.022" stroke="rgb(255,255,255)" stroke-linejoin="miter" stroke-linecap="butt" stroke-miterlimit="2"/><g><path d=" M 91.788 24.966 C 90.634 24.974 89.481 25.03 88.332 25.132 C 87.499 25.198 86.682 25.304 85.864 25.416 C 85.431 25.472 84.999 25.534 84.568 25.602 C 83.403 25.798 82.259 26.047 81.131 26.334 C 81.058 26.352 80.984 26.37 80.91 26.389 C 63.82 30.84 51.311 45.463 51.311 62.821 C 51.311 62.947 51.321 63.071 51.323 63.196 C 51.318 63.273 51.314 63.352 51.311 63.429 C 51.331 75.347 57.564 86.528 67.506 93.796 L 67.506 105.942 L 78.245 99.624 C 82.594 101.11 87.177 101.877 91.799 101.893 C 113.337 101.869 131.085 85.829 132.184 65.395 C 132.216 64.947 132.24 64.498 132.255 64.046 C 132.267 63.84 132.28 63.635 132.288 63.429 C 132.286 63.346 132.284 63.263 132.28 63.18 C 132.282 63.058 132.288 62.941 132.288 62.82 C 132.288 43.215 116.341 27.056 95.84 25.159 C 94.72 25.06 93.597 25.006 92.471 24.996 C 92.244 24.993 92.024 24.965 91.795 24.965 L 91.788 24.966 Z " fill="rgb(32,144,234)"/><g opacity="0.2"><path d=" M 91.788 24.966 C 90.634 24.974 89.481 25.03 88.332 25.132 C 87.5 25.198 86.682 25.304 85.864 25.416 C 85.431 25.472 84.999 25.534 84.568 25.602 C 83.402 25.798 82.259 26.046 81.131 26.334 C 81.057 26.352 80.984 26.37 80.91 26.389 C 63.82 30.84 51.311 45.463 51.311 62.821 C 51.311 62.946 51.321 63.072 51.323 63.197 C 51.319 63.275 51.315 63.352 51.311 63.43 C 51.321 63.645 51.333 63.859 51.347 64.074 C 51.713 47.058 64.075 32.798 80.909 28.413 C 80.983 28.395 81.056 28.377 81.13 28.358 C 82.258 28.071 83.402 27.823 84.568 27.627 C 84.998 27.558 85.43 27.496 85.863 27.441 C 86.681 27.329 87.499 27.222 88.331 27.156 C 89.48 27.054 90.633 26.999 91.787 26.99 L 91.795 26.99 C 92.024 26.99 92.244 27.018 92.471 27.022 C 93.596 27.031 94.72 27.086 95.84 27.184 C 116.09 29.058 131.868 44.854 132.251 64.134 C 132.253 64.104 132.255 64.075 132.255 64.047 C 132.268 63.841 132.278 63.635 132.287 63.429 C 132.285 63.346 132.282 63.263 132.279 63.18 C 132.281 63.059 132.287 62.942 132.287 62.82 C 132.287 43.215 116.341 27.056 95.84 25.16 C 94.72 25.061 93.596 25.007 92.471 24.997 C 92.244 24.993 92.024 24.965 91.795 24.965 L 91.787 24.965 L 91.788 24.966 Z " fill="rgb(255,255,255)"/></g><g opacity="0.2"><path d=" M 132.252 64.134 C 132.236 64.557 132.215 64.977 132.185 65.396 C 131.085 85.83 113.337 101.87 91.799 101.894 C 87.178 101.878 82.594 101.11 78.245 99.625 L 67.505 105.943 L 67.505 107.967 L 78.244 101.649 C 82.593 103.135 87.176 103.902 91.798 103.918 C 113.336 103.894 131.084 87.854 132.183 67.42 C 132.216 66.972 132.239 66.523 132.255 66.071 C 132.267 65.865 132.279 65.66 132.287 65.454 C 132.285 65.371 132.281 65.288 132.279 65.205 C 132.281 65.083 132.287 64.966 132.287 64.845 C 132.287 64.605 132.256 64.372 132.251 64.133 L 132.252 64.134 Z  M 51.339 64.24 C 51.336 64.444 51.312 64.642 51.312 64.845 C 51.312 64.971 51.322 65.095 51.324 65.221 C 51.319 65.297 51.315 65.376 51.312 65.453 C 51.332 77.371 57.565 88.552 67.507 95.82 L 67.507 93.795 C 57.791 86.692 51.634 75.851 51.339 64.239 L 51.339 64.24 Z " fill="rgb(0,0,0)"/></g><g opacity="0.2"><ellipse vector-effect="non-scaling-stroke" cx="91.79966300244874" cy="65.45425196735725" rx="28.342040169476505" ry="26.31760872879961" fill="none" stroke-width="4" stroke-dasharray="8,4" stroke="rgb(0,0,0)" stroke-linejoin="miter" stroke-linecap="butt" stroke-miterlimit="4"/></g><ellipse vector-effect="non-scaling-stroke" cx="91.79966300244874" cy="63.42982052668036" rx="28.342040169476505" ry="26.31760872879961" fill="none" stroke-width="4" stroke-dasharray="8,4" stroke="rgb(255,255,255)" stroke-linejoin="miter" stroke-linecap="butt" stroke-miterlimit="4"/></g></g></svg>