<?xml version="1.0" encoding="UTF-8" standalone="no"?><!-- Generator: Gravit.io --><svg xmlns="http://www.w3.org/2000/svg" xmlns:xlink="http://www.w3.org/1999/xlink" style="isolation:isolate" viewBox="0 0 180 130" width="180pt" height="130pt"><defs><clipPath id="_clipPath_m318DeEVIVal4u6Hn23meor7RcvTs7O6"><rect width="180" height="130"/></clipPath></defs><g clip-path="url(#_clipPath_m318DeEVIVal4u6Hn23meor7RcvTs7O6)"><radialGradient id="_rgradient_1" fx="0.5" fy="0.5" cx="0.5" cy="0.5" r="0.5" gradientTransform="matrix(182.162,0,0,131.689,-0.945,-1.083)" gradientUnits="userSpaceOnUse"><stop offset="0%" stop-opacity="1" style="stop-color:rgb(45,44,44)"/><stop offset="97.82608695652173%" stop-opacity="1" style="stop-color:rgb(43,138,226)"/></radialGradient><rect x="-0.945" y="-1.083" width="182.162" height="131.689" transform="matrix(1,0,0,1,0,0)" fill="url(#_rgradient_1)" vector-effect="non-scaling-stroke" stroke-width="1.022" stroke="rgb(255,255,255)" stroke-linejoin="miter" stroke-linecap="butt" stroke-miterlimit="2"/><g><path d=" M 90.136 21.556 C 66.784 21.556 47.984 40.356 47.984 63.708 C 47.984 87.06 66.784 105.86 90.136 105.86 C 113.488 105.86 132.288 87.06 132.288 63.708 C 132.288 40.356 113.488 21.556 90.136 21.556 Z " fill="rgb(228,228,228)"/><g opacity="0.2"><path d=" M 90.136 21.556 C 113.467 21.556 132.25 40.356 132.25 63.708 C 132.25 64.062 132.233 64.41 132.226 64.762 C 131.669 41.903 113.114 23.663 90.137 23.663 C 67.16 23.663 48.605 41.903 48.048 64.762 C 48.04 64.41 48.024 64.062 48.024 63.708 C 48.024 40.356 66.806 21.556 90.138 21.556 L 90.136 21.556 Z " fill="rgb(255,255,255)"/></g><g opacity="0.2"><path d=" M 48.009 64.762 C 48.001 65.114 47.985 65.461 47.985 65.815 C 47.985 89.167 66.784 107.967 90.137 107.967 C 113.489 107.967 132.288 89.167 132.288 65.815 C 132.288 65.461 132.272 65.114 132.263 64.762 C 131.707 87.621 113.135 105.86 90.137 105.86 C 67.138 105.86 48.566 87.621 48.01 64.762 L 48.009 64.762 Z " fill="rgb(0,0,0)"/></g><g style="opacity:0.2;"><g opacity="0.2"><path d=" M 75.383 40.459 C 66.188 45.701 60.645 55.166 60.63 65.75 C 60.649 80.329 71.506 93.077 85.921 95.257 C 86.955 95.366 87.268 95.317 88.029 95.257 C 95.013 95.257 100.674 89.595 100.674 82.611 C 100.668 77.818 97.968 73.538 93.857 71.404 C 93.857 71.404 89.317 69.323 87.308 68.245 C 84.398 66.788 81.196 65.501 78.147 63.638 C 76.621 62.706 75.08 61.619 73.695 59.937 C 72.313 58.257 71.168 55.738 71.168 53.104 C 71.168 47.993 73.016 44.098 75.384 40.458 L 75.383 40.459 Z " fill="rgb(0,0,0)"/></g><g opacity="0.2"><path d=" M 104.889 91.041 C 114.084 85.799 119.628 76.335 119.643 65.75 C 119.623 51.172 108.766 38.423 94.351 36.244 C 93.318 36.135 93.005 36.183 92.244 36.244 C 85.26 36.244 79.598 41.906 79.598 48.89 C 79.605 53.683 82.305 57.963 86.415 60.096 C 86.415 60.096 90.956 62.177 92.964 63.256 C 95.874 64.711 99.077 65.998 102.127 67.862 C 103.652 68.794 105.193 69.882 106.577 71.563 C 107.96 73.242 109.104 75.761 109.104 78.395 C 109.104 83.506 107.257 87.401 104.889 91.041 L 104.889 91.041 Z " fill="rgb(0,0,0)"/></g></g><g><path d=" M 75.383 38.417 C 66.188 43.659 60.645 53.123 60.63 63.708 C 60.649 78.286 71.506 91.035 85.921 93.214 C 86.955 93.323 87.268 93.275 88.029 93.214 C 95.013 93.214 100.674 87.552 100.674 80.568 C 100.668 75.775 97.968 71.495 93.857 69.362 C 93.857 69.362 89.317 67.281 87.308 66.202 C 84.398 64.746 81.196 63.458 78.147 61.595 C 76.621 60.664 75.08 59.576 73.695 57.894 C 72.313 56.214 71.168 53.696 71.168 51.061 C 71.168 45.951 73.016 42.056 75.384 38.416 L 75.383 38.417 Z " fill="rgb(43,138,226)"/><path d=" M 104.889 88.999 C 114.084 83.757 119.628 74.292 119.643 63.708 C 119.623 49.129 108.766 36.381 94.351 34.201 C 93.318 34.092 93.005 34.141 92.244 34.201 C 85.26 34.201 79.598 39.863 79.598 46.847 C 79.605 51.64 82.305 55.92 86.415 58.054 C 86.415 58.054 90.956 60.135 92.964 61.213 C 95.874 62.668 99.077 63.956 102.127 65.819 C 103.652 66.751 105.193 67.839 106.577 69.52 C 107.96 71.2 109.104 73.718 109.104 76.353 C 109.104 81.464 107.257 85.358 104.889 88.998 L 104.889 88.999 Z " fill="rgb(43,138,226)"/></g></g></g></svg>