<?xml version="1.0" encoding="UTF-8"?>
<svg xmlns="http://www.w3.org/2000/svg" xmlns:xlink="http://www.w3.org/1999/xlink" width="324px" height="234px" viewBox="0 0 324 234" version="1.1">
<g id="surface1">
<rect x="0" y="0" width="324" height="234" style="fill:rgb(20.392157%,28.627452%,36.862746%);fill-opacity:1;stroke:none;"/>
<path style="fill:none;stroke-width:1.021703;stroke-linecap:butt;stroke-linejoin:miter;stroke:rgb(100%,100%,100%);stroke-opacity:1;stroke-miterlimit:4;" d="M -0.94401 -1.082899 L 181.217448 -1.082899 L 181.217448 130.605469 L -0.94401 130.605469 Z M -0.94401 -1.082899 " transform="matrix(1.8,0,0,1.8,0,0)"/>
<path style=" stroke:none;fill-rule:nonzero;fill:rgb(90.196079%,56.470591%,13.333334%);fill-opacity:1;" d="M 212.246094 91.441406 L 190.886719 91.441406 C 190.886719 86.230469 189.214844 82.058594 185.855469 78.933594 C 180.664062 74.164062 171.953125 71.78125 159.734375 71.78125 C 153.703125 71.78125 148.511719 72.675781 144.15625 74.464844 C 137.121094 77.300781 133.601562 81.917969 133.601562 88.316406 C 133.601562 92.785156 135.445312 96.132812 139.128906 98.367188 C 141.808594 100.011719 147.925781 101.867188 157.472656 103.953125 L 179.582031 108.871094 C 192.980469 111.847656 202.480469 115.71875 208.097656 120.488281 C 213.710938 125.253906 216.515625 131.65625 216.515625 139.699219 C 216.515625 151.464844 211.660156 160.851562 201.945312 167.851562 C 192.222656 174.851562 179.742188 178.351562 164.507812 178.351562 C 141.894531 178.351562 125.972656 173.285156 116.769531 163.152344 C 110.898438 156.605469 107.972656 148.035156 107.972656 137.464844 L 129.332031 137.464844 C 129.332031 143.863281 131.25 149.003906 135.109375 152.875 C 140.796875 158.535156 150.519531 161.363281 164.253906 161.363281 C 173.132812 161.363281 180.167969 159.945312 185.359375 157.121094 C 191.382812 153.84375 194.40625 149.070312 194.40625 142.816406 C 194.40625 138.347656 192.597656 134.996094 189.003906 132.761719 C 185.410156 130.527344 178.492188 128.292969 168.277344 126.066406 L 142.648438 120.472656 C 132.925781 118.394531 125.5625 115.1875 120.539062 110.867188 C 115.007812 106.101562 112.246094 99.847656 112.246094 92.101562 C 112.246094 80.035156 117.277344 70.652344 127.320312 63.949219 C 136.527344 57.84375 148.089844 54.789062 161.996094 54.789062 C 177.570312 54.789062 189.839844 58.222656 198.804688 65.066406 C 207.765625 71.933594 212.246094 80.71875 212.246094 91.441406 Z M 212.246094 91.441406 "/>
</g>
</svg>
