<?xml version="1.0" encoding="UTF-8" standalone="no"?><!-- Generator: Gravit.io --><svg xmlns="http://www.w3.org/2000/svg" xmlns:xlink="http://www.w3.org/1999/xlink" style="isolation:isolate" viewBox="0 0 180 130" width="180pt" height="130pt"><defs><clipPath id="_clipPath_IlVxfZMVHhQ2VM44YM3JgS5AywGULZkz"><rect width="180" height="130"/></clipPath></defs><g clip-path="url(#_clipPath_IlVxfZMVHhQ2VM44YM3JgS5AywGULZkz)"><radialGradient id="_rgradient_1" fx="0.5" fy="0.5" cx="0.5" cy="0.5" r="0.5" gradientTransform="matrix(427.061,-1.523,-2.394,164.19,-122.197,-16.572)" gradientUnits="userSpaceOnUse"><stop offset="0%" stop-opacity="1" style="stop-color:rgb(255,255,255)"/><stop offset="100%" stop-opacity="1" style="stop-color:rgb(6,137,238)"/></radialGradient><rect x="-0.945" y="-1.083" width="182.162" height="131.689" transform="matrix(1,0,0,1,0,0)" fill="url(#_rgradient_1)" vector-effect="non-scaling-stroke" stroke-width="1.022" stroke="rgb(255,255,255)" stroke-linejoin="miter" stroke-linecap="butt" stroke-miterlimit="2"/><g><g opacity="0.2"><path d=" M 50.908 64.06 C 50.892 64.529 50.837 64.989 50.837 65.463 C 50.837 87.235 68.364 104.762 90.135 104.762 C 111.907 104.762 129.434 87.235 129.434 65.463 C 129.434 64.989 129.379 64.53 129.362 64.06 C 128.621 85.171 111.431 101.955 90.134 101.955 C 68.837 101.955 51.647 85.171 50.906 64.06 L 50.908 64.06 Z " fill="rgb(0,0,0)"/></g><path d=" M 129.434 64.06 C 129.434 42.289 111.907 24.762 90.135 24.762 C 68.364 24.762 50.837 42.289 50.837 64.06 C 50.837 85.831 68.364 103.358 90.135 103.358 C 111.907 103.358 129.434 85.831 129.434 64.06 Z " fill="rgb(55,160,242)"/><g opacity="0.1"><path d=" M 90.136 24.762 C 68.365 24.762 50.837 42.287 50.837 64.059 C 50.837 64.218 50.853 64.373 50.862 64.53 C 51.355 43.194 68.678 26.163 90.136 26.163 C 111.595 26.163 128.918 43.194 129.411 64.53 C 129.42 64.373 129.436 64.218 129.436 64.059 C 129.436 42.287 111.908 24.762 90.136 24.762 Z " fill="rgb(255,255,255)"/></g><g opacity="0.2"><path d=" M 92.092 84.791 C 91.076 84.176 90.427 83.107 87.603 77.4 C 86.043 74.239 84.555 71.432 84.3 71.163 C 84.013 70.86 81.658 69.608 78.141 67.89 C 71.192 64.499 70.486 63.96 70.486 62.037 C 70.486 61.142 70.924 60.283 71.61 59.836 C 71.846 59.683 79.112 57.083 87.756 54.06 C 102.945 48.747 103.51 48.565 104.547 48.628 C 105.445 48.683 105.705 48.774 106.137 49.185 C 106.784 49.802 107.074 50.657 106.949 51.571 C 106.813 52.554 95.908 83.358 95.503 83.902 C 94.638 85.065 93.17 85.448 92.091 84.793 L 92.092 84.791 Z " fill="rgb(0,0,0)"/></g><path d=" M 92.092 83.389 C 91.076 82.774 90.427 81.705 87.603 75.998 C 86.043 72.837 84.555 70.03 84.3 69.761 C 84.013 69.458 81.658 68.206 78.141 66.488 C 71.192 63.097 70.486 62.558 70.486 60.635 C 70.486 59.74 70.924 58.881 71.61 58.435 C 71.846 58.281 79.112 55.681 87.756 52.658 C 102.945 47.345 103.51 47.163 104.547 47.226 C 105.445 47.281 105.705 47.372 106.137 47.783 C 106.784 48.4 107.074 49.255 106.949 50.169 C 106.813 51.152 95.908 81.956 95.503 82.501 C 94.638 83.663 93.17 84.046 92.091 83.391 L 92.092 83.389 Z " fill="rgb(255,255,255)"/></g></g></svg>