<?xml version="1.0" encoding="UTF-8" standalone="no"?><!-- Generator: Gravit.io --><svg xmlns="http://www.w3.org/2000/svg" xmlns:xlink="http://www.w3.org/1999/xlink" style="isolation:isolate" viewBox="0 0 180 130" width="180pt" height="130pt"><defs><clipPath id="_clipPath_wzjNYFjYl6WVoCNz0xAewHzYFkj8Zriu"><rect width="180" height="130"/></clipPath></defs><g clip-path="url(#_clipPath_wzjNYFjYl6WVoCNz0xAewHzYFkj8Zriu)"><rect x="-0.945" y="-1.083" width="182.162" height="131.689" transform="matrix(1,0,0,1,0,0)" fill="rgb(45,44,44)" vector-effect="non-scaling-stroke" stroke-width="1.022" stroke="rgb(255,255,255)" stroke-linejoin="miter" stroke-linecap="butt" stroke-miterlimit="2"/><g><path d="M 133.288 101.644 L 133.288 25.771 C 133.288 23.445 131.399 21.556 129.072 21.556 L 53.199 21.556 C 50.873 21.556 48.984 23.445 48.984 25.771 L 48.984 101.644 C 48.984 103.971 50.873 105.86 53.199 105.86 L 129.072 105.86 C 131.399 105.86 133.288 103.971 133.288 101.644 Z" style="stroke:none;fill:#4F4F4F;stroke-miterlimit:10;"/><g style="opacity:0.2;"><g opacity="0.2"><path d=" M 86.229 23.664 L 86.451 24.125 L 48.984 101.446 L 48.984 101.644 C 48.984 103.979 50.864 105.859 53.199 105.859 L 56.213 105.859 L 91.135 33.79 L 126.058 105.859 L 129.072 105.859 C 131.407 105.859 133.287 103.979 133.287 101.644 L 133.287 101.446 L 95.82 24.125 L 96.042 23.663 L 86.229 23.663 L 86.229 23.664 Z " fill="rgb(0,0,0)"/></g></g><g><path d=" M 86.229 21.556 L 86.451 22.017 L 48.984 99.338 L 48.984 101.644 C 48.984 103.979 50.864 105.859 53.199 105.859 L 55.192 105.859 L 91.137 31.683 L 127.081 105.859 L 129.073 105.859 C 131.408 105.859 133.288 103.979 133.288 101.644 L 133.288 99.338 L 95.822 22.017 L 96.043 21.556 L 86.23 21.556 L 86.229 21.556 Z " fill="rgb(237,80,80)"/></g><g opacity="0.2"><path d=" M 53.199 23.664 C 50.864 23.664 48.984 25.544 48.984 27.879 L 48.984 29.624 L 85.176 65.816 L 49.018 101.973 C 49.187 104.151 50.977 105.86 53.199 105.86 L 57.052 105.86 L 91.136 71.776 L 125.22 105.86 L 129.073 105.86 C 131.295 105.86 133.085 104.151 133.255 101.974 L 97.097 65.816 L 133.289 29.625 L 133.289 27.88 C 133.289 25.544 131.409 23.665 129.073 23.665 L 127.328 23.665 L 91.137 59.856 L 54.946 23.665 L 53.2 23.665 L 53.199 23.664 Z " fill="rgb(0,0,0)"/></g><path d=" M 53.199 21.556 C 50.864 21.556 48.984 23.436 48.984 25.771 L 48.984 27.517 L 85.176 63.708 L 48.984 99.9 L 48.984 101.645 C 48.984 103.98 50.864 105.86 53.199 105.86 L 54.945 105.86 L 91.136 69.668 L 127.328 105.86 L 129.073 105.86 C 131.408 105.86 133.288 103.98 133.288 101.645 L 133.288 99.9 L 97.096 63.708 L 133.288 27.517 L 133.288 25.772 C 133.288 23.436 131.408 21.557 129.073 21.557 L 127.328 21.557 L 91.136 57.748 L 54.945 21.557 L 53.2 21.557 L 53.199 21.556 Z " fill="rgb(112,237,80)"/><g opacity="0.2"><path d=" M 53.199 23.664 C 50.864 23.664 48.984 25.544 48.984 27.879 L 48.984 32.094 L 86.921 32.094 L 86.921 105.86 L 95.351 105.86 L 95.351 32.094 L 133.288 32.094 L 133.288 27.879 C 133.288 25.544 131.408 23.664 129.072 23.664 L 86.921 23.664 L 53.199 23.664 Z " fill="rgb(0,0,0)"/></g><path d=" M 53.199 21.556 C 50.864 21.556 48.984 23.436 48.984 25.771 L 48.984 29.987 L 86.921 29.987 L 86.921 105.86 L 95.351 105.86 L 95.351 29.987 L 133.288 29.987 L 133.288 25.771 C 133.288 23.436 131.408 21.556 129.072 21.556 L 53.199 21.556 Z " fill="rgb(80,147,237)"/><g opacity="0.2"><path d=" M 53.199 21.556 C 50.864 21.556 48.984 23.436 48.984 25.771 L 48.984 27.879 C 48.984 25.544 50.864 23.664 53.199 23.664 L 129.072 23.664 C 131.408 23.664 133.288 25.544 133.288 27.879 L 133.288 25.771 C 133.288 23.436 131.408 21.556 129.072 21.556 L 53.199 21.556 Z " fill="rgb(255,255,255)"/></g><g opacity="0.2"><path d=" M 53.199 107.967 C 50.864 107.967 48.984 106.087 48.984 103.752 L 48.984 101.644 C 48.984 103.98 50.864 105.86 53.199 105.86 L 129.072 105.86 C 131.408 105.86 133.288 103.98 133.288 101.644 L 133.288 103.752 C 133.288 106.087 131.408 107.967 129.072 107.967 L 53.199 107.967 Z " fill="rgb(0,0,0)"/></g></g></g></svg>