<?xml version="1.0" encoding="UTF-8"?>
<svg xmlns="http://www.w3.org/2000/svg" xmlns:xlink="http://www.w3.org/1999/xlink" width="324px" height="234px" viewBox="0 0 324 234" version="1.1">
<defs>
<linearGradient id="linear0" gradientUnits="userSpaceOnUse" x1="-1.455352" y1="64.761543" x2="181.728165" y2="64.761543" gradientTransform="matrix(0.00000000000000011,-1.8,1.8,0.00000000000000011,-91.730836,84.173845)">
<stop offset="0" style="stop-color:rgb(88.627452%,14.901961%,16.862746%);stop-opacity:1;"/>
<stop offset="1" style="stop-color:rgb(89.411765%,21.960784%,24.313726%);stop-opacity:1;"/>
</linearGradient>
</defs>
<g id="surface1">
<rect x="0" y="0" width="324" height="234" style="fill:url(#linear0);stroke:none;"/>
<path style="fill:none;stroke-width:1.021703;stroke-linecap:butt;stroke-linejoin:miter;stroke:rgb(100%,100%,100%);stroke-opacity:1;stroke-miterlimit:4;" d="M -0.94401 -1.082899 L 181.217448 -1.082899 L 181.217448 130.605469 L -0.94401 130.605469 Z M -0.94401 -1.082899 " transform="matrix(1.8,0,0,1.8,0,0)"/>
<path style=" stroke:none;fill-rule:evenodd;fill:rgb(100%,100%,100%);fill-opacity:1;" d="M 209.355469 44.84375 C 208.164062 44.785156 206.984375 45.082031 205.90625 45.710938 L 141.140625 91.761719 L 110.539062 73.8125 L 108.035156 93.523438 L 137.921875 110.9375 C 139.894531 112.089844 142.160156 112.113281 144.144531 110.992188 L 212.03125 63.1875 C 219.433594 59.175781 217.394531 45.226562 209.351562 44.839844 Z M 209.355469 83.085938 C 208.167969 83.027344 206.984375 83.324219 205.90625 83.957031 L 141.140625 130.007812 L 107.964844 111.105469 L 107.964844 131.515625 L 137.921875 149.179688 C 139.894531 150.335938 142.160156 150.355469 144.144531 149.238281 L 212.03125 101.433594 C 219.433594 97.417969 217.394531 83.46875 209.351562 83.085938 Z M 209.355469 121.332031 C 208.167969 121.273438 206.984375 121.570312 205.90625 122.199219 L 141.140625 168.25 L 107.871094 148.882812 L 110.390625 170.933594 L 137.921875 187.425781 C 139.894531 188.578125 142.160156 188.601562 144.144531 187.480469 L 212.03125 139.675781 C 219.433594 135.664062 217.394531 121.714844 209.351562 121.328125 Z M 209.355469 121.332031 "/>
</g>
</svg>
