<?xml version="1.0" encoding="UTF-8" standalone="no"?><!-- Generator: Gravit.io --><svg xmlns="http://www.w3.org/2000/svg" xmlns:xlink="http://www.w3.org/1999/xlink" style="isolation:isolate" viewBox="0 0 180 130" width="180pt" height="130pt"><defs><clipPath id="_clipPath_vwuoQQpxjOpkGa0IDF7lv56z6uMtOM9X"><rect width="180" height="130"/></clipPath></defs><g clip-path="url(#_clipPath_vwuoQQpxjOpkGa0IDF7lv56z6uMtOM9X)"><rect x="-0.945" y="-1.083" width="182.162" height="131.689" transform="matrix(1,0,0,1,0,0)" fill="rgb(0,68,85)" vector-effect="non-scaling-stroke" stroke-width="1.022" stroke="rgb(255,255,255)" stroke-linejoin="miter" stroke-linecap="butt" stroke-miterlimit="2"/><g><g><linearGradient id="_lgradient_5" x1="0.5222708933661602" y1="0.9945428931470759" x2="0.5183850109281386" y2="0.5395104232086092" gradientTransform="matrix(89.328,0,0,40.39,45.472,69.586)" gradientUnits="userSpaceOnUse"><stop offset="0%" stop-opacity="0.046875" style="stop-color:rgb(0,0,0)"/><stop offset="100%" stop-opacity="0" style="stop-color:rgb(0,0,0)"/></linearGradient><path d=" M 45.472 69.586 L 45.472 73.142 C 45.472 93.548 57.372 109.976 82.015 109.976 L 96.786 109.976 C 129.037 109.976 134.801 85.844 134.801 73.142 L 134.801 69.586 C 134.801 82.288 129.037 106.42 96.786 106.42 L 82.015 106.42 C 57.372 106.42 45.472 89.992 45.472 69.586 Z " fill="url(#_lgradient_5)"/><linearGradient id="_lgradient_6" x1="-0.003986632933582049" y1="0.49999997721130807" x2="1.003986632933582" y2="0.49999997721130807" gradientTransform="matrix(89.328,0,0,88.848,45.472,19.547)" gradientUnits="userSpaceOnUse"><stop offset="0%" stop-opacity="1" style="stop-color:rgb(25,124,241)"/><stop offset="100%" stop-opacity="1" style="stop-color:rgb(5,160,235)"/></linearGradient><mask id="_mask_zgfTw9cxt1ZxJU2bVTXJhzIrLhYthS85" x="-200%" y="-200%" width="400%" height="400%"><rect x="-200%" y="-200%" width="400%" height="400%" style="fill:white;"/><path d=" M 80.88 19.547 L 98.985 19.547 C 128.627 19.547 134.801 43.518 134.801 56.38 L 134.801 71.562 C 134.801 84.264 129.037 108.395 96.786 108.395 L 82.015 108.395 C 57.372 108.395 45.472 91.968 45.472 71.562 L 45.472 56.38 C 45.472 35.975 57.131 19.547 80.88 19.547 Z " fill="black" stroke="none"/></mask><path d=" M 80.88 19.547 L 98.985 19.547 C 128.627 19.547 134.801 43.518 134.801 56.38 L 134.801 71.562 C 134.801 84.264 129.037 108.395 96.786 108.395 L 82.015 108.395 C 57.372 108.395 45.472 91.968 45.472 71.562 L 45.472 56.38 C 45.472 35.975 57.131 19.547 80.88 19.547 Z " fill="url(#_lgradient_6)" mask="url(#_mask_zgfTw9cxt1ZxJU2bVTXJhzIrLhYthS85)" vector-effect="non-scaling-stroke" stroke-width="0.668" stroke="rgb(0,0,0)" stroke-opacity="0.078125" stroke-linejoin="bevel" stroke-linecap="square" stroke-miterlimit="4"/><path d=" M 80.88 19.547 L 98.985 19.547 C 128.627 19.547 134.801 43.518 134.801 56.38 L 134.801 71.562 C 134.801 84.264 129.037 108.395 96.786 108.395 L 82.015 108.395 C 57.372 108.395 45.472 91.968 45.472 71.562 L 45.472 56.38 C 45.472 35.975 57.131 19.547 80.88 19.547 Z " fill="url(#_lgradient_6)"/><g><g><path d=" M 105.313 48.103 C 105.524 48.311 105.747 48.487 105.985 48.629 C 106.504 48.941 107.094 49.098 107.75 49.098 C 108.7 49.098 109.508 48.764 110.184 48.103 C 110.856 47.443 111.192 46.644 111.192 45.71 C 111.192 45.065 111.031 44.485 110.711 43.967 C 110.567 43.736 110.391 43.517 110.184 43.314 C 109.508 42.649 108.7 42.323 107.75 42.323 C 106.797 42.323 105.985 42.649 105.313 43.314 C 104.637 43.974 104.305 44.777 104.305 45.71 C 104.305 46.644 104.637 47.443 105.313 48.103 L 105.313 48.103 Z  M 102.388 36.581 C 102.388 35.936 102.227 35.356 101.907 34.841 C 101.763 34.607 101.587 34.388 101.376 34.181 C 100.704 33.52 99.896 33.194 98.946 33.194 C 97.989 33.194 97.181 33.52 96.505 34.181 C 95.833 34.845 95.497 35.648 95.497 36.581 C 95.497 37.514 95.833 38.313 96.505 38.97 C 96.716 39.177 96.939 39.354 97.177 39.496 C 97.7 39.811 98.29 39.969 98.946 39.969 C 99.896 39.969 100.704 39.634 101.376 38.97 C 102.052 38.313 102.388 37.514 102.388 36.581 Z  M 93.58 36.581 C 93.58 35.936 93.419 35.356 93.103 34.841 C 92.959 34.607 92.779 34.388 92.572 34.181 C 91.896 33.52 91.088 33.194 90.138 33.194 C 89.185 33.194 88.373 33.52 87.701 34.181 C 87.025 34.845 86.693 35.648 86.693 36.581 C 86.693 37.514 87.025 38.313 87.701 38.97 C 87.908 39.177 88.131 39.354 88.369 39.496 C 88.892 39.811 89.482 39.969 90.138 39.969 C 91.088 39.969 91.896 39.634 92.572 38.97 C 93.244 38.313 93.58 37.514 93.58 36.581 L 93.58 36.581 Z  M 101.907 53.1 C 101.763 52.866 101.583 52.647 101.376 52.443 C 100.704 51.779 99.896 51.452 98.946 51.452 C 97.989 51.452 97.181 51.779 96.505 52.443 C 95.833 53.104 95.497 53.907 95.497 54.84 C 95.497 55.777 95.833 56.572 96.505 57.237 C 96.716 57.44 96.939 57.617 97.177 57.759 C 97.7 58.07 98.29 58.227 98.946 58.227 C 99.896 58.227 100.704 57.893 101.376 57.237 C 102.052 56.572 102.388 55.777 102.388 54.84 C 102.388 54.195 102.227 53.615 101.907 53.1 Z  M 93.103 53.1 C 92.959 52.866 92.779 52.647 92.572 52.443 C 91.896 51.779 91.088 51.452 90.138 51.452 C 89.185 51.452 88.373 51.779 87.701 52.443 C 87.025 53.104 86.693 53.907 86.693 54.84 C 86.693 55.777 87.025 56.572 87.701 57.237 C 87.908 57.44 88.131 57.617 88.369 57.759 C 88.892 58.07 89.482 58.227 90.138 58.227 C 91.088 58.227 91.896 57.893 92.572 57.237 C 93.244 56.572 93.58 55.777 93.58 54.84 C 93.58 54.195 93.419 53.615 93.103 53.1 L 93.103 53.1 Z  M 93.58 63.969 C 93.58 63.328 93.419 62.748 93.099 62.229 C 92.955 61.995 92.779 61.776 92.572 61.573 C 91.896 60.912 91.088 60.582 90.138 60.582 C 89.185 60.582 88.373 60.912 87.701 61.573 C 87.025 62.233 86.693 63.036 86.693 63.969 C 86.693 64.906 87.025 65.705 87.701 66.366 C 87.908 66.573 88.131 66.746 88.369 66.888 C 88.892 67.203 89.482 67.361 90.138 67.361 C 91.088 67.361 91.896 67.023 92.572 66.366 C 93.244 65.705 93.58 64.906 93.58 63.969 L 93.58 63.969 Z  M 93.103 71.363 C 92.959 71.128 92.779 70.91 92.572 70.702 C 91.896 70.045 91.088 69.711 90.138 69.711 C 89.185 69.711 88.373 70.045 87.701 70.702 C 87.025 71.367 86.693 72.165 86.693 73.103 C 86.693 74.036 87.025 74.835 87.701 75.495 C 87.908 75.699 88.131 75.876 88.369 76.018 C 88.892 76.333 89.482 76.49 90.138 76.49 C 91.088 76.49 91.896 76.156 92.572 75.495 C 93.244 74.835 93.58 74.036 93.58 73.103 C 93.58 72.457 93.419 71.877 93.103 71.363 L 93.103 71.363 Z  M 93.58 82.232 C 93.58 81.587 93.419 81.007 93.103 80.492 C 92.959 80.258 92.779 80.039 92.572 79.832 C 91.896 79.175 91.088 78.844 90.138 78.844 C 89.185 78.844 88.373 79.175 87.701 79.832 C 87.025 80.496 86.693 81.295 86.693 82.232 C 86.693 83.165 87.025 83.964 87.701 84.625 C 87.908 84.828 88.131 85.005 88.369 85.147 C 88.892 85.462 89.482 85.62 90.138 85.62 C 91.088 85.62 91.896 85.285 92.572 84.625 C 93.244 83.964 93.58 83.165 93.58 82.232 L 93.58 82.232 Z  M 93.103 89.622 C 92.959 89.387 92.779 89.168 92.572 88.961 C 91.896 88.304 91.088 87.974 90.138 87.974 C 89.185 87.974 88.373 88.304 87.701 88.961 C 87.025 89.625 86.693 90.428 86.693 91.361 C 86.693 92.295 87.025 93.094 87.701 93.754 C 87.908 93.958 88.131 94.134 88.369 94.277 C 88.892 94.591 89.482 94.749 90.138 94.749 C 91.088 94.749 91.896 94.415 92.572 93.754 C 93.244 93.094 93.58 92.295 93.58 91.361 C 93.58 90.716 93.419 90.136 93.103 89.622 L 93.103 89.622 Z  M 84.299 34.845 C 84.154 34.611 83.975 34.388 83.764 34.181 C 83.092 33.52 82.283 33.194 81.33 33.194 C 80.377 33.194 79.565 33.52 78.893 34.181 C 78.221 34.845 77.885 35.648 77.885 36.581 C 77.885 37.514 78.221 38.313 78.893 38.97 C 79.1 39.177 79.323 39.354 79.561 39.496 C 80.084 39.811 80.674 39.969 81.33 39.969 C 82.283 39.969 83.092 39.634 83.764 38.97 C 84.436 38.313 84.779 37.514 84.779 36.581 C 84.779 35.936 84.619 35.356 84.299 34.845 L 84.299 34.845 Z  M 70.085 48.103 C 70.296 48.311 70.523 48.487 70.761 48.629 C 71.28 48.941 71.87 49.098 72.526 49.098 C 73.476 49.098 74.284 48.764 74.956 48.103 C 75.632 47.443 75.971 46.644 75.971 45.71 C 75.971 45.065 75.811 44.485 75.487 43.971 C 75.343 43.736 75.163 43.517 74.956 43.314 C 74.284 42.649 73.476 42.323 72.526 42.323 C 71.573 42.323 70.761 42.649 70.085 43.314 C 69.413 43.974 69.081 44.777 69.081 45.71 C 69.081 46.644 69.413 47.443 70.085 48.103 Z  M 84.299 53.104 C 84.154 52.87 83.975 52.651 83.764 52.443 C 83.092 51.779 82.283 51.452 81.33 51.452 C 80.377 51.452 79.565 51.779 78.893 52.443 C 78.221 53.104 77.885 53.907 77.885 54.84 C 77.885 55.777 78.221 56.572 78.893 57.237 C 79.1 57.44 79.323 57.617 79.561 57.759 C 80.084 58.07 80.674 58.227 81.33 58.227 C 82.283 58.227 83.092 57.893 83.764 57.237 C 84.436 56.572 84.779 55.777 84.779 54.84 C 84.779 54.199 84.619 53.619 84.299 53.104 L 84.299 53.104 Z  M 84.299 89.622 C 84.154 89.387 83.975 89.168 83.764 88.961 C 83.092 88.304 82.283 87.974 81.33 87.974 C 80.377 87.974 79.565 88.304 78.893 88.961 C 78.221 89.625 77.885 90.428 77.885 91.361 C 77.885 92.295 78.221 93.094 78.893 93.754 C 79.1 93.958 79.323 94.134 79.561 94.277 C 80.084 94.591 80.674 94.749 81.33 94.749 C 82.283 94.749 83.092 94.415 83.764 93.754 C 84.436 93.094 84.779 92.295 84.779 91.361 C 84.779 90.72 84.619 90.14 84.299 89.622 L 84.299 89.622 Z " fill-rule="evenodd" fill="rgb(255,255,255)"/><path d=" M 93.099 43.971 C 92.955 43.736 92.779 43.517 92.572 43.314 C 91.896 42.649 91.088 42.323 90.138 42.323 C 89.185 42.323 88.373 42.649 87.701 43.314 C 87.025 43.974 86.693 44.777 86.693 45.71 C 86.693 46.644 87.025 47.443 87.701 48.103 C 87.908 48.311 88.131 48.483 88.369 48.626 C 88.892 48.941 89.482 49.098 90.138 49.098 C 91.088 49.098 91.896 48.764 92.572 48.103 C 93.244 47.443 93.58 46.644 93.58 45.71 C 93.58 45.065 93.419 44.485 93.099 43.971 L 93.099 43.971 Z  M 95.497 45.71 C 95.497 46.644 95.833 47.443 96.505 48.103 C 96.716 48.311 96.943 48.487 97.181 48.629 C 97.7 48.941 98.29 49.098 98.946 49.098 C 99.896 49.098 100.704 48.764 101.376 48.103 C 102.052 47.443 102.388 46.644 102.388 45.71 C 102.388 45.065 102.227 44.485 101.903 43.967 C 101.759 43.736 101.583 43.517 101.376 43.314 C 100.704 42.649 99.896 42.323 98.946 42.323 C 97.989 42.323 97.181 42.649 96.505 43.314 C 95.833 43.974 95.497 44.777 95.497 45.71 Z  M 96.505 61.573 C 95.833 62.233 95.497 63.036 95.497 63.969 C 95.497 64.906 95.833 65.705 96.505 66.366 C 96.716 66.573 96.943 66.75 97.181 66.892 C 97.7 67.203 98.29 67.361 98.946 67.361 C 99.896 67.361 100.704 67.023 101.376 66.366 C 102.052 65.705 102.388 64.906 102.388 63.969 C 102.388 63.324 102.227 62.744 101.903 62.229 C 101.759 61.995 101.583 61.776 101.376 61.573 C 100.704 60.912 99.896 60.582 98.946 60.582 C 97.989 60.582 97.181 60.912 96.505 61.573 L 96.505 61.573 Z  M 110.711 53.1 C 110.567 52.866 110.391 52.647 110.184 52.443 C 109.508 51.779 108.7 51.452 107.75 51.452 C 106.797 51.452 105.985 51.779 105.313 52.443 C 104.637 53.104 104.305 53.907 104.305 54.84 C 104.305 55.777 104.637 56.572 105.313 57.237 C 105.52 57.44 105.747 57.617 105.985 57.759 C 106.504 58.07 107.094 58.227 107.75 58.227 C 108.7 58.227 109.508 57.893 110.184 57.237 C 110.856 56.572 111.192 55.777 111.192 54.84 C 111.192 54.195 111.031 53.615 110.711 53.1 L 110.711 53.1 Z  M 114.117 52.443 C 113.445 53.104 113.113 53.907 113.113 54.84 C 113.113 55.777 113.445 56.572 114.117 57.237 C 114.328 57.44 114.551 57.617 114.789 57.759 C 115.312 58.07 115.902 58.227 116.558 58.227 C 117.508 58.227 118.316 57.893 118.988 57.237 C 119.664 56.572 120 55.777 120 54.84 C 120 54.195 119.839 53.615 119.519 53.1 C 119.375 52.866 119.195 52.647 118.988 52.443 C 118.316 51.779 117.508 51.452 116.558 51.452 C 115.601 51.452 114.793 51.779 114.117 52.443 Z  M 105.313 61.573 C 104.637 62.233 104.305 63.036 104.305 63.969 C 104.305 64.906 104.637 65.705 105.313 66.366 C 105.524 66.573 105.747 66.75 105.985 66.892 C 106.504 67.203 107.094 67.361 107.75 67.361 C 108.7 67.361 109.508 67.023 110.184 66.366 C 110.856 65.705 111.192 64.906 111.192 63.969 C 111.192 63.324 111.031 62.744 110.711 62.229 C 110.567 61.995 110.391 61.776 110.184 61.573 C 109.508 60.912 108.7 60.582 107.75 60.582 C 106.797 60.582 105.985 60.912 105.313 61.573 L 105.313 61.573 Z  M 114.117 61.573 C 113.445 62.233 113.113 63.036 113.113 63.969 C 113.113 64.906 113.445 65.705 114.117 66.366 C 114.328 66.573 114.555 66.75 114.793 66.892 C 115.312 67.203 115.902 67.361 116.558 67.361 C 117.508 67.361 118.316 67.023 118.988 66.366 C 119.664 65.705 120 64.906 120 63.969 C 120 63.324 119.839 62.744 119.515 62.229 C 119.371 61.995 119.195 61.776 118.988 61.573 C 118.316 60.912 117.508 60.582 116.558 60.582 C 115.601 60.582 114.793 60.912 114.117 61.573 L 114.117 61.573 Z  M 118.988 70.702 C 118.316 70.045 117.508 69.711 116.558 69.711 C 115.601 69.711 114.793 70.045 114.117 70.702 C 113.445 71.367 113.113 72.165 113.113 73.103 C 113.113 74.036 113.445 74.835 114.117 75.495 C 114.328 75.703 114.551 75.879 114.789 76.022 C 115.312 76.333 115.902 76.49 116.558 76.49 C 117.508 76.49 118.316 76.156 118.988 75.495 C 119.664 74.835 120 74.036 120 73.103 C 120 72.457 119.839 71.877 119.519 71.359 C 119.375 71.128 119.195 70.91 118.988 70.702 L 118.988 70.702 Z  M 110.711 71.359 C 110.567 71.128 110.391 70.91 110.184 70.702 C 109.508 70.045 108.7 69.711 107.75 69.711 C 106.797 69.711 105.985 70.045 105.313 70.702 C 104.637 71.367 104.305 72.165 104.305 73.103 C 104.305 74.036 104.637 74.835 105.313 75.495 C 105.52 75.703 105.747 75.879 105.985 76.022 C 106.504 76.333 107.094 76.49 107.75 76.49 C 108.7 76.49 109.508 76.156 110.184 75.495 C 110.856 74.835 111.192 74.036 111.192 73.103 C 111.192 72.457 111.031 71.877 110.711 71.359 L 110.711 71.359 Z  M 101.907 71.359 C 101.763 71.128 101.583 70.91 101.376 70.702 C 100.704 70.045 99.896 69.711 98.946 69.711 C 97.989 69.711 97.181 70.045 96.505 70.702 C 95.833 71.367 95.497 72.165 95.497 73.103 C 95.497 74.036 95.833 74.835 96.505 75.495 C 96.716 75.703 96.939 75.879 97.177 76.022 C 97.7 76.333 98.29 76.49 98.946 76.49 C 99.896 76.49 100.704 76.156 101.376 75.495 C 102.052 74.835 102.388 74.036 102.388 73.103 C 102.388 72.457 102.227 71.877 101.907 71.359 L 101.907 71.359 Z  M 102.388 82.232 C 102.388 81.587 102.227 81.007 101.907 80.488 C 101.763 80.258 101.583 80.039 101.376 79.832 C 100.704 79.175 99.896 78.844 98.946 78.844 C 97.989 78.844 97.181 79.175 96.505 79.832 C 95.833 80.496 95.497 81.295 95.497 82.232 C 95.497 83.165 95.833 83.964 96.505 84.625 C 96.716 84.832 96.939 85.009 97.177 85.151 C 97.7 85.462 98.29 85.62 98.946 85.62 C 99.896 85.62 100.704 85.285 101.376 84.625 C 102.052 83.964 102.388 83.165 102.388 82.232 Z  M 95.497 91.361 C 95.497 92.295 95.833 93.094 96.505 93.754 C 96.716 93.962 96.939 94.138 97.177 94.28 C 97.7 94.591 98.29 94.749 98.946 94.749 C 99.896 94.749 100.704 94.415 101.376 93.754 C 102.052 93.094 102.388 92.295 102.388 91.361 C 102.388 90.716 102.227 90.136 101.907 89.618 C 101.763 89.387 101.583 89.168 101.376 88.961 C 100.704 88.304 99.896 87.974 98.946 87.974 C 97.989 87.974 97.181 88.304 96.505 88.961 C 95.833 89.625 95.497 90.428 95.497 91.361 L 95.497 91.361 Z  M 111.192 82.232 C 111.192 81.587 111.031 81.007 110.711 80.488 C 110.567 80.258 110.391 80.039 110.184 79.832 C 109.508 79.175 108.7 78.844 107.75 78.844 C 106.797 78.844 105.985 79.175 105.313 79.832 C 104.637 80.496 104.305 81.295 104.305 82.232 C 104.305 83.165 104.637 83.964 105.313 84.625 C 105.52 84.832 105.747 85.009 105.985 85.151 C 106.504 85.462 107.094 85.62 107.75 85.62 C 108.7 85.62 109.508 85.285 110.184 84.625 C 110.856 83.964 111.192 83.165 111.192 82.232 L 111.192 82.232 Z  M 61.281 52.443 C 60.605 53.104 60.273 53.907 60.273 54.84 C 60.273 55.777 60.605 56.572 61.281 57.237 C 61.488 57.44 61.715 57.617 61.953 57.759 C 62.472 58.07 63.062 58.227 63.718 58.227 C 64.671 58.227 65.476 57.893 66.152 57.237 C 66.824 56.572 67.163 55.777 67.163 54.84 C 67.163 54.195 67.003 53.615 66.683 53.1 C 66.539 52.866 66.359 52.647 66.152 52.443 C 65.476 51.779 64.671 51.452 63.718 51.452 C 62.765 51.452 61.953 51.779 61.281 52.443 L 61.281 52.443 Z  M 61.281 61.573 C 60.605 62.233 60.273 63.036 60.273 63.969 C 60.273 64.906 60.605 65.705 61.281 66.366 C 61.492 66.573 61.715 66.75 61.953 66.892 C 62.472 67.203 63.062 67.361 63.718 67.361 C 64.671 67.361 65.476 67.023 66.152 66.366 C 66.824 65.705 67.163 64.906 67.163 63.969 C 67.163 63.328 67.003 62.748 66.683 62.229 C 66.539 61.995 66.359 61.776 66.152 61.573 C 65.476 60.912 64.671 60.582 63.718 60.582 C 62.765 60.582 61.953 60.912 61.281 61.573 L 61.281 61.573 Z  M 84.295 43.971 C 84.151 43.736 83.975 43.517 83.764 43.314 C 83.092 42.649 82.283 42.323 81.33 42.323 C 80.377 42.323 79.565 42.649 78.893 43.314 C 78.221 43.974 77.885 44.777 77.885 45.71 C 77.885 46.644 78.221 47.443 78.893 48.103 C 79.104 48.311 79.327 48.483 79.565 48.626 C 80.088 48.941 80.678 49.098 81.33 49.098 C 82.283 49.098 83.092 48.764 83.764 48.103 C 84.436 47.443 84.779 46.644 84.779 45.71 C 84.779 45.065 84.619 44.485 84.295 43.971 L 84.295 43.971 Z  M 75.491 53.1 C 75.346 52.866 75.167 52.647 74.956 52.443 C 74.284 51.779 73.476 51.452 72.526 51.452 C 71.573 51.452 70.761 51.779 70.085 52.443 C 69.413 53.104 69.081 53.907 69.081 54.84 C 69.081 55.777 69.413 56.572 70.085 57.237 C 70.296 57.44 70.519 57.617 70.757 57.759 C 71.28 58.07 71.87 58.227 72.526 58.227 C 73.476 58.227 74.284 57.893 74.956 57.237 C 75.632 56.572 75.971 55.777 75.971 54.84 C 75.971 54.195 75.811 53.615 75.491 53.1 Z  M 70.085 61.573 C 69.413 62.233 69.081 63.036 69.081 63.969 C 69.081 64.906 69.413 65.705 70.085 66.366 C 70.296 66.573 70.523 66.75 70.761 66.892 C 71.28 67.203 71.87 67.361 72.526 67.361 C 73.476 67.361 74.284 67.023 74.956 66.366 C 75.632 65.705 75.971 64.906 75.971 63.969 C 75.971 63.328 75.811 62.748 75.487 62.229 C 75.343 61.995 75.163 61.776 74.956 61.573 C 74.284 60.912 73.476 60.582 72.526 60.582 C 71.573 60.582 70.761 60.912 70.085 61.573 L 70.085 61.573 Z  M 84.299 62.233 C 84.154 61.999 83.975 61.78 83.764 61.573 C 83.092 60.912 82.283 60.582 81.33 60.582 C 80.377 60.582 79.565 60.912 78.893 61.573 C 78.221 62.233 77.885 63.036 77.885 63.969 C 77.885 64.906 78.221 65.705 78.893 66.366 C 79.104 66.573 79.327 66.746 79.565 66.888 C 80.088 67.203 80.678 67.361 81.33 67.361 C 82.283 67.361 83.092 67.023 83.764 66.366 C 84.436 65.705 84.779 64.906 84.779 63.969 C 84.779 63.328 84.619 62.748 84.299 62.233 L 84.299 62.233 Z  M 84.299 71.363 C 84.154 71.128 83.975 70.91 83.764 70.702 C 83.092 70.045 82.283 69.711 81.33 69.711 C 80.377 69.711 79.565 70.045 78.893 70.702 C 78.221 71.367 77.885 72.165 77.885 73.103 C 77.885 74.036 78.221 74.835 78.893 75.495 C 79.1 75.699 79.323 75.876 79.561 76.018 C 80.084 76.333 80.674 76.49 81.33 76.49 C 82.283 76.49 83.092 76.156 83.764 75.495 C 84.436 74.835 84.779 74.036 84.779 73.103 C 84.779 72.461 84.619 71.881 84.299 71.363 L 84.299 71.363 Z  M 75.491 71.363 C 75.346 71.128 75.167 70.91 74.956 70.702 C 74.284 70.045 73.476 69.711 72.526 69.711 C 71.573 69.711 70.761 70.045 70.085 70.702 C 69.413 71.367 69.081 72.165 69.081 73.103 C 69.081 74.036 69.413 74.835 70.085 75.495 C 70.296 75.703 70.519 75.879 70.757 76.022 C 71.28 76.333 71.87 76.49 72.526 76.49 C 73.476 76.49 74.284 76.156 74.956 75.495 C 75.632 74.835 75.971 74.036 75.971 73.103 C 75.971 72.457 75.811 71.877 75.491 71.363 Z  M 66.683 71.363 C 66.539 71.128 66.359 70.91 66.152 70.702 C 65.476 70.045 64.671 69.711 63.718 69.711 C 62.765 69.711 61.953 70.045 61.281 70.702 C 60.605 71.367 60.273 72.165 60.273 73.103 C 60.273 74.036 60.605 74.835 61.281 75.495 C 61.488 75.703 61.715 75.879 61.953 76.022 C 62.472 76.333 63.062 76.49 63.718 76.49 C 64.671 76.49 65.476 76.156 66.152 75.495 C 66.824 74.835 67.163 74.036 67.163 73.103 C 67.163 72.457 67.003 71.877 66.683 71.363 Z  M 75.971 82.232 C 75.971 81.587 75.811 81.007 75.491 80.492 C 75.346 80.258 75.167 80.039 74.956 79.832 C 74.284 79.175 73.476 78.844 72.526 78.844 C 71.573 78.844 70.761 79.175 70.085 79.832 C 69.413 80.496 69.081 81.295 69.081 82.232 C 69.081 83.165 69.413 83.964 70.085 84.625 C 70.296 84.832 70.519 85.009 70.757 85.151 C 71.28 85.462 71.87 85.62 72.526 85.62 C 73.476 85.62 74.284 85.285 74.956 84.625 C 75.632 83.964 75.971 83.165 75.971 82.232 Z  M 84.299 80.492 C 84.154 80.258 83.975 80.039 83.764 79.832 C 83.092 79.175 82.283 78.844 81.33 78.844 C 80.377 78.844 79.565 79.175 78.893 79.832 C 78.221 80.496 77.885 81.295 77.885 82.232 C 77.885 83.165 78.221 83.964 78.893 84.625 C 79.1 84.828 79.323 85.005 79.561 85.147 C 80.084 85.462 80.674 85.62 81.33 85.62 C 82.283 85.62 83.092 85.285 83.764 84.625 C 84.436 83.964 84.779 83.165 84.779 82.232 C 84.779 81.591 84.619 81.011 84.299 80.492 L 84.299 80.492 Z " fill-rule="evenodd" fill="rgb(0,68,85)"/></g></g></g></g></g></svg>