<?xml version="1.0" encoding="UTF-8" standalone="no"?>
<!-- Generator: Gravit.io -->

<svg
   xmlns:dc="http://purl.org/dc/elements/1.1/"
   xmlns:cc="http://creativecommons.org/ns#"
   xmlns:rdf="http://www.w3.org/1999/02/22-rdf-syntax-ns#"
   xmlns:svg="http://www.w3.org/2000/svg"
   xmlns="http://www.w3.org/2000/svg"
   xmlns:sodipodi="http://sodipodi.sourceforge.net/DTD/sodipodi-0.dtd"
   xmlns:inkscape="http://www.inkscape.org/namespaces/inkscape"
   style="isolation:isolate"
   viewBox="0 0 180 130"
   width="180pt"
   height="130pt"
   version="1.1"
   id="svg29"
   sodipodi:docname="ubuntu-cleaner.svg"
   inkscape:version="0.92.1 r15371">
  <metadata
     id="metadata33">
    <rdf:RDF>
      <cc:Work
         rdf:about="">
        <dc:format>image/svg+xml</dc:format>
        <dc:type
           rdf:resource="http://purl.org/dc/dcmitype/StillImage" />
      </cc:Work>
    </rdf:RDF>
  </metadata>
  <sodipodi:namedview
     pagecolor="#ffffff"
     bordercolor="#666666"
     borderopacity="1"
     objecttolerance="10"
     gridtolerance="10"
     guidetolerance="10"
     inkscape:pageopacity="0"
     inkscape:pageshadow="2"
     inkscape:window-width="1360"
     inkscape:window-height="728"
     id="namedview31"
     showgrid="false"
     inkscape:zoom="1.3615385"
     inkscape:cx="120"
     inkscape:cy="86.666667"
     inkscape:window-x="0"
     inkscape:window-y="0"
     inkscape:window-maximized="1"
     inkscape:current-layer="svg29" />
  <defs
     id="defs5">
    <clipPath
       id="_clipPath_z6jiNegPCmqUFyFFKsv238MlNBsu3BEv">
      <rect
         width="180"
         height="130"
         id="rect2" />
    </clipPath>
  </defs>
  <rect
     style="vector-effect:non-scaling-stroke;fill:#f78834;stroke:#ffffff;stroke-width:1.02199996;stroke-linecap:butt;stroke-linejoin:miter;stroke-miterlimit:2"
     id="rect7"
     stroke-miterlimit="2"
     height="131.689"
     width="182.162"
     y="-1.0829999"
     x="-0.94499999" />
  <path
     d="m 128.717,60.512 c -1.169,-9.16 -5.823,-17.517 -12.993,-23.335 -1.459,0.546 -3.007,0.894 -4.645,0.894 -5.646,0 -10.502,-3.565 -12.491,-8.537 -1.807,-0.285 -3.633,-0.432 -5.462,-0.439 -4.785,0 -9.521,0.957 -13.931,2.814 l 6.829,11.834 c 2.287,-0.774 4.685,-1.175 7.1,-1.185 10.656,0.01 19.836,7.512 21.967,17.953 h 13.622 z m -0.009,8.976 H 115.112 C 112.98,79.935 103.79,87.439 93.128,87.441 90.713,87.434 88.316,87.037 86.027,86.266 l -6.811,11.799 c 4.401,1.863 9.13,2.829 13.909,2.841 1.836,-0.017 3.668,-0.175 5.48,-0.472 1.993,-4.954 6.84,-8.505 12.472,-8.505 1.643,0 3.202,0.345 4.664,0.895 7.16,-5.823 11.803,-14.179 12.966,-23.334 z m -8.653,-44.881 c 0,-4.957 -4.019,-8.976 -8.976,-8.976 -4.958,0 -8.977,4.019 -8.977,8.976 0,4.957 4.019,8.976 8.977,8.976 4.957,0 8.976,-4.019 8.976,-8.976 z m 0,80.786 c 0,-4.957 -4.019,-8.976 -8.976,-8.976 -4.958,0 -8.977,4.019 -8.977,8.976 0,4.957 4.019,8.976 8.977,8.976 4.957,0 8.976,-4.019 8.976,-8.976 z M 78.262,48.232 71.449,36.432 c -6.485,4.925 -11.103,11.908 -13.097,19.803 2.06,2.368 3.358,5.414 3.358,8.765 0,3.348 -1.294,6.391 -3.349,8.758 1.984,7.902 6.596,14.894 13.079,19.828 L 78.262,81.778 C 73.454,77.526 70.696,71.42 70.686,65.001 70.698,58.586 73.456,52.483 78.262,48.234 Z M 57.221,65 c 0,-4.957 -4.018,-8.976 -8.976,-8.976 -4.957,0 -8.976,4.019 -8.976,8.976 0,4.957 4.019,8.976 8.976,8.976 4.958,0 8.976,-4.019 8.976,-8.976 z"
     id="path9"
     inkscape:connector-curvature="0"
     style="fill:#b23d00;fill-opacity:0.49000004" />
  <g
     id="g25">
    <path
       style="fill:#fed24c"
       inkscape:connector-curvature="0"
       id="path13"
       d="m 86.179,61.359 -4.909,5.67 -3.784,3.731 -4.214,2.863 -5.066,2.701 -5.87,2.21 -3.677,0.868 -0.158,0.484 0.212,1.297 0.854,2.163 1.811,3.566 1.761,2.642 3.414,3.622 1.545,1.565 1.386,0.491 6.291,-0.059 -3.731,2.592 -0.054,0.652 2.24,1.782 3.04,1.781 c 3.929,2.219 7.468,-2.167 7.468,-2.167 0,0 -1.905,3.324 -1.788,4.495 h 3.735 l 1.973,-0.323 2.24,-1.136 -0.749,1.187 4.059,0.051 c 4.283,-0.102 7.114,-2.608 9.65,-5.292 l 2.665,-3.189 2.082,-3.185 1.544,-2.918 2.456,-5.78 1.866,-4.699 0.907,-2.489 h -0.884 l -6.743,-0.79 c -5.415,-1.553 -8.332,-5.601 -13.35,-8.698 l -4.16,-2.595 -3.305,-1.997 -0.479,-0.704 -0.097,-0.275 -0.181,-0.118 z" />
    <path
       style="fill:#c2352a"
       inkscape:connector-curvature="0"
       id="path15"
       d="m 116.451,25.888 -3.921,7.488 -3.391,7.638 -4.149,8.332 -2.867,6.853 -3.186,-1.357 -4.588,-2.004 h -1.123 l -0.957,0.272 -1.545,2.055 -4.48,5.993 0.211,0.594 0.479,0.705 3.306,1.998 4.161,2.592 c 5.018,3.097 7.934,7.144 13.349,8.697 l 6.741,0.795 h 1.134 l 0.074,-0.301 0.981,-6.114 0.803,-4.942 0.08,-1.057 -0.587,-1.108 -3.949,-1.836 -2.292,-0.999 -1.402,-0.912 -0.159,-0.069 0.188,-0.306 2.342,-5.883 2.109,-5.196 2.639,-7.027 2.04,-4.971 1.733,-4.428 1.423,-4.291 c 0.851,-3.206 -2.893,-4.94 -5.197,-1.212 z" />
    <g
       style="opacity:0.2"
       id="g19">
      <path
         style="fill:#ffffff"
         inkscape:connector-curvature="0"
         id="path17"
         d="m 86.179,61.357 v 0.003 l -4.91,5.668 -3.783,3.732 -4.213,2.862 -5.066,2.702 -5.87,2.211 -3.677,0.868 -0.16,0.483 0.158,0.961 0.002,-0.006 3.677,-0.868 5.87,-2.21 5.066,-2.702 4.213,-2.862 3.784,-3.732 4.909,-5.668 v -0.003 l 0.183,0.118 0.095,0.275 0.48,0.705 3.306,1.997 4.16,2.595 c 5.018,3.097 7.934,7.145 13.349,8.698 l 6.744,0.79 h 0.359 l 0.525,-1.438 h -0.886 l -6.742,-0.79 C 102.338,74.192 99.42,70.144 94.403,67.048 l -4.161,-2.596 -3.306,-1.996 -0.48,-0.706 -0.095,-0.275 z m -10.404,35.254 -2.098,0.02 -1.631,1.135 -0.057,0.651 0.554,0.441 z m 8.963,4.64 c 0,0 -0.491,0.608 -1.306,1.256 -0.289,0.704 -0.522,1.39 -0.481,1.801 h 0.329 c 0.515,-1.39 1.458,-3.058 1.458,-3.058 z m 34.594,-77.465 c -0.951,0.072 -2.018,0.703 -2.882,2.101 h 0.003 l -3.924,7.487 -3.39,7.64 -4.148,8.33 -2.867,6.853 -3.185,-1.357 -4.59,-2.002 h -1.123 l -0.958,0.272 -1.544,2.053 -4.48,5.994 0.213,0.595 0.197,0.292 4.07,-5.443 1.544,-2.056 0.958,-0.269 h 1.124 l 4.589,2.002 3.185,1.357 2.867,-6.853 4.149,-8.33 3.39,-7.64 3.923,-7.488 h -0.003 c 1.873,-3.03 4.698,-2.453 5.235,-0.411 0.407,-1.905 -0.817,-3.246 -2.352,-3.129 z m -9.642,35.717 -0.329,0.828 -0.188,0.307 0.16,0.07 1.402,0.913 2.292,0.997 3.948,1.836 0.481,0.908 0.028,-0.18 0.078,-1.056 -0.587,-1.11 -3.948,-1.836 -2.292,-0.997 z" />
    </g>
    <g
       style="opacity:0.2"
       id="g23">
      <path
         style="fill:#000000"
         inkscape:connector-curvature="0"
         id="path21"
         d="m 114.854,77.973 -0.385,1.051 -1.865,4.699 -2.455,5.78 -1.544,2.918 -2.082,3.185 -2.665,3.19 c -2.536,2.684 -5.367,5.189 -9.65,5.292 l -4.059,-0.051 0.747,-1.188 -2.238,1.138 -1.974,0.32 H 83.28 c -0.211,0.569 -0.362,1.098 -0.328,1.439 h 3.733 l 1.974,-0.323 2.238,-1.137 -0.747,1.188 4.059,0.05 c 4.283,-0.102 7.114,-2.607 9.65,-5.291 l 2.666,-3.191 2.081,-3.185 1.544,-2.918 2.455,-5.78 1.865,-4.699 0.91,-2.488 z m -56.197,2.873 -0.157,0.478 0.213,1.297 0.854,2.163 1.812,3.567 1.761,2.643 3.412,3.62 1.545,1.565 1.387,0.491 4.193,-0.039 2.099,-1.458 -6.292,0.059 -1.387,-0.491 -1.545,-1.565 -3.412,-3.62 -1.761,-2.643 -1.812,-3.567 -0.854,-2.163 z m 13.885,18.011 -0.497,0.346 -0.056,0.651 2.241,1.781 3.039,1.784 c 2.469,1.394 4.783,0.181 6.162,-0.913 0.532,-1.302 1.306,-2.694 1.306,-2.694 0,0 -3.539,4.387 -7.468,2.169 l -3.038,-1.782 z m 49.141,-71.942 c -0.013,0.062 -0.017,0.12 -0.033,0.183 l -1.424,4.292 -1.733,4.429 -2.039,4.971 -2.641,7.024 -2.109,5.199 -2.342,5.881 -0.188,0.306 0.16,0.071 0.356,0.233 2.014,-5.053 2.11,-5.196 2.64,-7.027 2.039,-4.971 1.733,-4.43 1.424,-4.291 c 0.159,-0.601 0.157,-1.149 0.033,-1.621 z m -35.028,35.131 -0.41,0.55 0.213,0.596 0.478,0.705 3.305,1.997 4.16,2.592 c 5.018,3.097 7.935,7.145 13.349,8.698 l 6.743,0.791 h 1.132 l 0.076,-0.298 0.98,-6.114 0.803,-4.943 0.079,-1.056 -0.107,-0.202 -0.775,4.76 -0.98,6.115 -0.076,0.3 h -1.132 l -6.744,-0.792 C 102.335,74.192 99.418,70.144 94.4,67.047 l -4.16,-2.592 -3.305,-1.997 z" />
    </g>
  </g>
</svg>
