<?xml version="1.0" encoding="UTF-8"?>
<svg xmlns="http://www.w3.org/2000/svg" xmlns:xlink="http://www.w3.org/1999/xlink" width="324px" height="234px" viewBox="0 0 324 234" version="1.1">
<defs>
<radialGradient id="radial0" gradientUnits="userSpaceOnUse" cx="90.136406" cy="64.761543" fx="90.136406" fy="64.761543" r="91.591759" gradientTransform="matrix(1.8,0,0,1.304046,0,32.11876)">
<stop offset="0" style="stop-color:rgb(12.156863%,57.647061%,72.549021%);stop-opacity:1;"/>
<stop offset="1" style="stop-color:rgb(10.196079%,36.078432%,60.784316%);stop-opacity:1;"/>
</radialGradient>
<linearGradient id="linear0" gradientUnits="userSpaceOnUse" x1="-89.747543" y1="-34.836533" x2="-74.914627" y2="-34.836533" gradientTransform="matrix(-0.00276032,1.799998,-1.799998,-0.00279034,0.132498,-86.39989)">
<stop offset="0" style="stop-color:rgb(81.960785%,81.960785%,81.960785%);stop-opacity:1;"/>
<stop offset="1" style="stop-color:rgb(85.882354%,85.882354%,85.882354%);stop-opacity:1;"/>
</linearGradient>
<linearGradient id="linear1" gradientUnits="userSpaceOnUse" x1="-113.575508" y1="-75.188805" x2="-66.966972" y2="-75.188805" gradientTransform="matrix(-0.0114304,6.377942,-6.377947,-0.00845997,0.154845,-86.399861)">
<stop offset="0" style="stop-color:rgb(0%,55.686277%,95.294118%);stop-opacity:1;"/>
<stop offset="1" style="stop-color:rgb(0%,83.137256%,100%);stop-opacity:1;"/>
</linearGradient>
</defs>
<g id="surface1">
<rect x="0" y="0" width="324" height="234" style="fill:url(#radial0);stroke:none;"/>
<path style="fill:none;stroke-width:1.021703;stroke-linecap:butt;stroke-linejoin:miter;stroke:rgb(100%,100%,100%);stroke-opacity:1;stroke-miterlimit:4;" d="M -0.94401 -1.082899 L 181.217448 -1.082899 L 181.217448 130.605469 L -0.94401 130.605469 Z M -0.94401 -1.082899 " transform="matrix(1.8,0,0,1.8,0,0)"/>
<path style=" stroke:none;fill-rule:evenodd;fill:rgb(90.196079%,91.764706%,93.725491%);fill-opacity:1;" d="M 188.121094 81.808594 L 161.421875 81.769531 L 161.476562 44.144531 L 188.175781 44.183594 Z M 188.121094 81.808594 "/>
<path style=" stroke:none;fill-rule:evenodd;fill:url(#linear0);" d="M 161.421875 81.769531 L 134.722656 81.726562 L 134.777344 44.101562 L 161.476562 44.144531 Z M 161.421875 81.769531 "/>
<path style=" stroke:none;fill-rule:evenodd;fill:rgb(30.19608%,30.19608%,30.19608%);fill-opacity:1;" d="M 181.925781 59.820312 L 167.863281 59.800781 L 167.875 53.539062 L 181.9375 53.5625 Z M 181.925781 59.820312 "/>
<path style=" stroke:none;fill-rule:evenodd;fill:rgb(30.19608%,30.19608%,30.19608%);fill-opacity:1;" d="M 154.1875 59.777344 L 140.027344 59.757812 L 140.035156 53.496094 L 154.195312 53.519531 Z M 154.1875 59.777344 "/>
<path style=" stroke:none;fill-rule:evenodd;fill:url(#linear1);" d="M 182.367188 190.515625 L 141.925781 190.460938 C 129.925781 190.445312 120.210938 183.988281 120.226562 176.039062 L 120.371094 94.957031 C 120.386719 87.011719 130.125 80.582031 142.121094 80.597656 L 182.566406 80.648438 C 194.5625 80.664062 204.28125 87.121094 204.265625 95.070312 L 204.121094 176.152344 C 204.105469 184.101562 194.367188 190.53125 182.367188 190.515625 Z M 182.367188 190.515625 "/>
<path style=" stroke:none;fill-rule:nonzero;fill:rgb(97.647059%,97.647059%,97.647059%);fill-opacity:1;" d="M 140.882812 154.777344 L 140.90625 137.460938 L 160.113281 137.496094 L 160.089844 154.8125 M 140.882812 154.777344 "/>
<path style=" stroke:none;fill-rule:nonzero;fill:rgb(97.647059%,97.647059%,97.647059%);fill-opacity:1;" d="M 183.566406 154.851562 L 164.359375 154.820312 L 164.382812 137.503906 L 183.59375 137.535156 M 183.566406 154.851562 "/>
<path style=" stroke:none;fill-rule:nonzero;fill:rgb(97.647059%,97.647059%,97.647059%);fill-opacity:1;" d="M 164.390625 133.617188 L 164.414062 116.300781 L 183.621094 116.332031 L 183.597656 133.648438 M 164.390625 133.617188 "/>
<path style=" stroke:none;fill-rule:nonzero;fill:rgb(97.647059%,97.647059%,97.647059%);fill-opacity:1;" d="M 160.078125 133.609375 L 140.871094 133.574219 L 140.894531 116.257812 L 160.101562 116.292969 M 160.078125 133.609375 "/>
</g>
</svg>
