<?xml version="1.0" encoding="UTF-8" standalone="no"?>
<!-- Generator: Gravit.io -->

<svg
   xmlns:dc="http://purl.org/dc/elements/1.1/"
   xmlns:cc="http://creativecommons.org/ns#"
   xmlns:rdf="http://www.w3.org/1999/02/22-rdf-syntax-ns#"
   xmlns:svg="http://www.w3.org/2000/svg"
   xmlns="http://www.w3.org/2000/svg"
   xmlns:sodipodi="http://sodipodi.sourceforge.net/DTD/sodipodi-0.dtd"
   xmlns:inkscape="http://www.inkscape.org/namespaces/inkscape"
   style="isolation:isolate"
   viewBox="0 0 180 130"
   width="180pt"
   height="130pt"
   version="1.1"
   id="svg84"
   sodipodi:docname="wordpress.svg"
   inkscape:version="0.92.1 r15371">
  <metadata
     id="metadata88">
    <rdf:RDF>
      <cc:Work
         rdf:about="">
        <dc:format>image/svg+xml</dc:format>
        <dc:type
           rdf:resource="http://purl.org/dc/dcmitype/StillImage" />
      </cc:Work>
    </rdf:RDF>
  </metadata>
  <sodipodi:namedview
     pagecolor="#ffffff"
     bordercolor="#666666"
     borderopacity="1"
     objecttolerance="10"
     gridtolerance="10"
     guidetolerance="10"
     inkscape:pageopacity="0"
     inkscape:pageshadow="2"
     inkscape:window-width="1360"
     inkscape:window-height="728"
     id="namedview86"
     showgrid="false"
     inkscape:zoom="1.9255062"
     inkscape:cx="9.2490701"
     inkscape:cy="78.707252"
     inkscape:window-x="0"
     inkscape:window-y="0"
     inkscape:window-maximized="1"
     inkscape:current-layer="svg84" />
  <defs
     id="defs5">
    <clipPath
       id="_clipPath_wKxE1wR58SSpkWIcBrAmt85GT0EExDvw">
      <rect
         width="180"
         height="130"
         id="rect2" />
    </clipPath>
    <defs
       id="defs54">
      <filter
         style="color-interpolation-filters:sRGB"
         filterUnits="objectBoundingBox"
         height="4"
         width="4"
         y="-2"
         x="-2"
         id="45ZFaZdT2S8OuPbd2VARqdVC973eaI6A">
        <feGaussianBlur
           id="feGaussianBlur51"
           stdDeviation="0.19510511227481406" />
      </filter>
    </defs>
  </defs>
  <rect
     style="vector-effect:non-scaling-stroke;fill:#2f7ec8;stroke:#ffffff;stroke-width:1.02199996;stroke-linecap:butt;stroke-linejoin:miter;stroke-miterlimit:2"
     id="rect7"
     stroke-miterlimit="2"
     height="131.689"
     width="182.162"
     y="-1.0829999"
     x="-0.94499999" />
  <g
     id="g17">
    <g
       id="g15">
      <g
         id="g13">
        <g
           id="g11">
          <g
             style="opacity:0.15"
             id="g9" />
        </g>
      </g>
    </g>
  </g>
  <g
     id="g76"
     transform="matrix(1.1302674,0,0,1.081911,-12.900305,-5.6325005)">
    <g
       id="g58">
      <path
         style="fill:#ffffff"
         inkscape:connector-curvature="0"
         id="path56"
         d="m 56.044,65.065 c 0,14.046 8.216,26.172 20.091,31.816 L 59.2,50.469 c -2.025,4.447 -3.156,9.389 -3.156,14.596 z" />
    </g>
    <g
       id="g62">
      <path
         style="fill:#ffffff"
         inkscape:connector-curvature="0"
         id="path60"
         d="m 80.949,98.746 c 3.232,0.984 6.66,1.515 10.212,1.515 4.124,0 8.082,-0.716 11.758,-2.025 L 91.767,67.673 Z" />
    </g>
    <g
       id="g66">
      <path
         style="fill:#ffffff"
         inkscape:connector-curvature="0"
         id="path64"
         d="m 74.561,45.966 v 2.107 c 0,0.194 -0.151,0.351 -0.335,0.351 h -4.067 c -0.454,0 -0.646,0.275 -0.486,0.747 l 12.753,37.653 7.76,-23.482 -5.159,-14.14 C 84.84,48.689 84.618,48.424 83.824,48.424 h -3.569 c -0.184,0 -0.335,-0.158 -0.335,-0.351 v -2.107 c 0,-0.193 0.151,-0.359 0.335,-0.351 6.641,0.297 13.323,0.295 20.044,0 0.184,-0.008 0.335,0.158 0.335,0.351 v 2.107 c 0,0.194 -0.151,0.351 -0.335,0.351 H 96.75 c -0.704,0 -0.931,0.327 -0.736,0.9 l 12.554,37.064 4.609,-14.062 c 5.573,-17.002 -4.768,-18.801 -4.511,-27.254 0.127,-4.181 3.185,-6.006 6.249,-5.924 -6.253,-5.76 -14.594,-9.279 -23.754,-9.279 -12.351,0 -23.213,6.395 -29.474,16.06 3.99,-0.041 8.272,-0.087 12.538,-0.314 0.185,-0.009 0.336,0.158 0.336,0.351 z" />
    </g>
    <g
       id="g70">
      <path
         style="fill:#ffffff"
         inkscape:connector-curvature="0"
         id="path68"
         d="m 91.161,24.133 c -22.551,0 -40.839,18.33 -40.839,40.932 0,22.602 18.288,40.931 40.839,40.931 C 113.712,105.996 132,87.667 132,65.065 132,42.463 113.712,24.133 91.161,24.133 Z m 0,2.434 c 21.21,0 38.411,17.24 38.411,38.498 0,21.258 -17.201,38.498 -38.411,38.498 -21.21,0 -38.411,-17.24 -38.411,-38.498 0,-21.258 17.201,-38.498 38.411,-38.498 z" />
    </g>
    <g
       id="g74">
      <path
         style="fill:#ffffff"
         inkscape:connector-curvature="0"
         id="path72"
         d="m 122.047,48.306 c 0.192,5.236 -1.383,11.738 -3.078,16.551 l -10.954,31.089 c 10.882,-5.98 18.262,-17.568 18.262,-30.881 0,-6.067 -1.532,-11.776 -4.23,-16.759 z" />
    </g>
  </g>
</svg>
