<?xml version="1.0" encoding="UTF-8"?>
<svg xmlns="http://www.w3.org/2000/svg" xmlns:xlink="http://www.w3.org/1999/xlink" width="324px" height="234px" viewBox="0 0 324 234" version="1.1">
<defs>
<linearGradient id="linear0" gradientUnits="userSpaceOnUse" x1="-1.455352" y1="64.761543" x2="181.728165" y2="64.761543" gradientTransform="matrix(0.00000000000000011,-1.8,1.8,0.00000000000000011,-93.719092,85.191078)">
<stop offset="0" style="stop-color:rgb(93.333334%,24.313726%,21.176471%);stop-opacity:1;"/>
<stop offset="1" style="stop-color:rgb(94.117647%,30.980393%,28.235295%);stop-opacity:1;"/>
</linearGradient>
</defs>
<g id="surface1">
<rect x="0" y="0" width="324" height="234" style="fill:url(#linear0);stroke:none;"/>
<path style="fill:none;stroke-width:1.021703;stroke-linecap:butt;stroke-linejoin:miter;stroke:rgb(100%,100%,100%);stroke-opacity:1;stroke-miterlimit:4;" d="M -0.94401 -1.082899 L 181.217448 -1.082899 L 181.217448 130.605469 L -0.94401 130.605469 Z M -0.94401 -1.082899 " transform="matrix(1.8,0,0,1.8,0,0)"/>
<path style=" stroke:none;fill-rule:nonzero;fill:rgb(100%,100%,100%);fill-opacity:1;" d="M 187.738281 181.605469 C 187.378906 181.605469 186.46875 181.484375 185.910156 180.390625 L 169.605469 148.335938 L 182.308594 123.390625 L 187.734375 136.496094 L 217.769531 76.65625 L 191.144531 76.644531 L 138.578125 180.515625 C 138.023438 181.609375 137.113281 181.675781 136.75 181.675781 C 136.386719 181.675781 135.476562 181.523438 134.917969 180.425781 L 77.097656 66.746094 C 75.132812 62.878906 75.101562 59.925781 77.011719 56.019531 C 78.929688 52.117188 82.378906 51.46875 86.242188 51.46875 L 145.707031 51.46875 L 154.949219 68.796875 L 141.910156 96.675781 L 131.175781 76.65625 L 106.726562 76.65625 L 136.753906 136.488281 L 178.78125 51.46875 L 238.25 51.46875 C 242.109375 51.46875 245.566406 52.109375 247.476562 56.015625 C 249.386719 59.917969 249.359375 63.710938 247.390625 67.578125 L 189.902344 180.164062 C 189.34375 181.257812 188.109375 181.605469 187.738281 181.605469 Z M 187.738281 181.605469 "/>
</g>
</svg>
