<?xml version="1.0" encoding="UTF-8" standalone="no"?>
<!-- Generator: Gravit.io -->

<svg
   xmlns:dc="http://purl.org/dc/elements/1.1/"
   xmlns:cc="http://creativecommons.org/ns#"
   xmlns:rdf="http://www.w3.org/1999/02/22-rdf-syntax-ns#"
   xmlns:svg="http://www.w3.org/2000/svg"
   xmlns="http://www.w3.org/2000/svg"
   xmlns:sodipodi="http://sodipodi.sourceforge.net/DTD/sodipodi-0.dtd"
   xmlns:inkscape="http://www.inkscape.org/namespaces/inkscape"
   style="isolation:isolate"
   viewBox="0 0 180 130"
   width="180pt"
   height="130pt"
   version="1.1"
   id="svg45"
   sodipodi:docname="xmms.svg"
   inkscape:version="0.92.1 r15371">
  <metadata
     id="metadata49">
    <rdf:RDF>
      <cc:Work
         rdf:about="">
        <dc:format>image/svg+xml</dc:format>
        <dc:type
           rdf:resource="http://purl.org/dc/dcmitype/StillImage" />
      </cc:Work>
    </rdf:RDF>
  </metadata>
  <sodipodi:namedview
     pagecolor="#ffffff"
     bordercolor="#666666"
     borderopacity="1"
     objecttolerance="10"
     gridtolerance="10"
     guidetolerance="10"
     inkscape:pageopacity="0"
     inkscape:pageshadow="2"
     inkscape:window-width="1360"
     inkscape:window-height="728"
     id="namedview47"
     showgrid="false"
     inkscape:zoom="1.3615385"
     inkscape:cx="-4.8587537"
     inkscape:cy="86.666669"
     inkscape:window-x="0"
     inkscape:window-y="0"
     inkscape:window-maximized="1"
     inkscape:current-layer="svg45" />
  <defs
     id="defs5">
    <clipPath
       id="_clipPath_kth36TDcw1upEtXrCXWZ9RHfPdUtRFkb">
      <rect
         width="180"
         height="130"
         id="rect2" />
    </clipPath>
  </defs>
  <rect
     style="vector-effect:non-scaling-stroke;fill:#5a1766;stroke:#ffffff;stroke-width:1.02199996;stroke-linecap:butt;stroke-linejoin:miter;stroke-miterlimit:2"
     id="rect7"
     stroke-miterlimit="2"
     height="131.689"
     width="182.162"
     y="-1.0829999"
     x="-0.94499999" />
  <g
     id="g41"
     transform="matrix(0.90425352,0,0,0.87005895,8.6297527,8.415175)">
    <g
       style="opacity:0.2"
       id="g11">
      <path
         style="fill:#000000"
         inkscape:connector-curvature="0"
         id="path9"
         d="m 51.675,105.034 c -4.189,0 -7.564,-3.36 -7.564,-7.528 V 85.309 h 92.051 v 12.197 c 0,4.168 -3.376,7.528 -7.565,7.528 z" />
    </g>
    <path
       style="fill:#9c27b0"
       inkscape:connector-curvature="0"
       id="path13"
       d="m 51.675,24.489 c -4.189,0 -7.564,3.375 -7.564,7.564 v 51.612 h 92.051 V 32.053 c 0,-4.189 -3.376,-7.564 -7.565,-7.564 H 51.676 Z" />
    <g
       style="opacity:0.2"
       id="g17">
      <path
         style="fill:#ffffff"
         inkscape:connector-curvature="0"
         id="path15"
         d="m 51.675,24.489 c -4.189,0 -7.564,3.37 -7.564,7.554 v 1.644 c 0,-4.184 3.375,-7.554 7.564,-7.554 h 76.923 c 4.188,0 7.564,3.37 7.564,7.554 v -1.644 c 0,-4.184 -3.376,-7.554 -7.564,-7.554 z" />
    </g>
    <path
       style="fill:#e4e4e4"
       inkscape:connector-curvature="0"
       id="path19"
       d="m 51.675,103.39 c -4.189,0 -7.564,-3.36 -7.564,-7.527 V 83.665 h 92.051 v 12.198 c 0,4.167 -3.376,7.527 -7.565,7.527 z" />
    <path
       inkscape:connector-curvature="0"
       id="path21"
       style="fill:#999999;stroke:none;stroke-miterlimit:10"
       d="m 106.574,90.24 h 19.725 c 1.815,0 3.288,1.473 3.288,3.288 v 0 c 0,1.814 -1.473,3.287 -3.288,3.287 h -19.725 c -1.814,0 -3.287,-1.473 -3.287,-3.287 v 0 c 0,-1.815 1.473,-3.288 3.287,-3.288 z" />
    <path
       inkscape:connector-curvature="0"
       id="path23"
       style="fill:#9c27b0;stroke:none;stroke-miterlimit:10"
       d="m 53.973,90.24 h 46.026 c 1.815,0 3.288,1.473 3.288,3.288 v 0 c 0,1.814 -1.473,3.287 -3.288,3.287 H 53.973 c -1.814,0 -3.287,-1.473 -3.287,-3.287 v 0 c 0,-1.815 1.473,-3.288 3.287,-3.288 z" />
    <g
       style="opacity:0.2"
       id="g27">
      <ellipse
         style="vector-effect:non-scaling-stroke;fill:#000000"
         id="ellipse25"
         ry="6.5668778"
         rx="6.5750966"
         cy="95.087532"
         cx="103.28661" />
    </g>
    <circle
       style="vector-effect:non-scaling-stroke;fill:#fefdfe"
       id="circle29"
       r="6.5750966"
       cy="93.527588"
       cx="103.28661" />
    <g
       style="opacity:0.2"
       id="g33">
      <rect
         style="fill:#ffffff"
         id="rect31"
         height="3.2880001"
         width="92.051003"
         y="83.665001"
         x="44.111" />
    </g>
    <g
       style="opacity:0.2"
       id="g37">
      <path
         style="fill:#000000"
         inkscape:connector-curvature="0"
         id="path35"
         d="m 78.411,39.283 c -0.787,0 -1.425,0.655 -1.424,1.462 v 29.949 c 0,1.111 1.159,1.817 2.108,1.282 l 26.74,-14.974 c 0.986,-0.555 0.986,-2.009 0,-2.564 L 81.766,40.962 79.094,39.465 c -0.21,-0.118 -0.445,-0.18 -0.684,-0.18 z" />
    </g>
    <path
       style="fill:#fefdfe"
       inkscape:connector-curvature="0"
       id="path39"
       d="m 78.411,37.639 c -0.787,0 -1.425,0.655 -1.424,1.463 v 29.949 c 0,1.111 1.159,1.816 2.108,1.282 l 26.74,-14.975 c 0.986,-0.554 0.986,-2.009 0,-2.564 L 81.766,39.318 79.094,37.821 c -0.21,-0.118 -0.445,-0.18 -0.684,-0.18 z" />
  </g>
</svg>
