<?xml version="1.0" encoding="UTF-8" standalone="no"?>
<!-- Generator: Gravit.io -->

<svg
   xmlns:dc="http://purl.org/dc/elements/1.1/"
   xmlns:cc="http://creativecommons.org/ns#"
   xmlns:rdf="http://www.w3.org/1999/02/22-rdf-syntax-ns#"
   xmlns:svg="http://www.w3.org/2000/svg"
   xmlns="http://www.w3.org/2000/svg"
   xmlns:sodipodi="http://sodipodi.sourceforge.net/DTD/sodipodi-0.dtd"
   xmlns:inkscape="http://www.inkscape.org/namespaces/inkscape"
   style="isolation:isolate"
   viewBox="0 0 180 130"
   width="180pt"
   height="130pt"
   version="1.1"
   id="svg31"
   sodipodi:docname="xnretro.svg"
   inkscape:version="0.92.1 r15371">
  <metadata
     id="metadata35">
    <rdf:RDF>
      <cc:Work
         rdf:about="">
        <dc:format>image/svg+xml</dc:format>
        <dc:type
           rdf:resource="http://purl.org/dc/dcmitype/StillImage" />
      </cc:Work>
    </rdf:RDF>
  </metadata>
  <sodipodi:namedview
     pagecolor="#ffffff"
     bordercolor="#666666"
     borderopacity="1"
     objecttolerance="10"
     gridtolerance="10"
     guidetolerance="10"
     inkscape:pageopacity="0"
     inkscape:pageshadow="2"
     inkscape:window-width="1360"
     inkscape:window-height="728"
     id="namedview33"
     showgrid="false"
     inkscape:zoom="1.3615385"
     inkscape:cx="-4.8587537"
     inkscape:cy="86.666669"
     inkscape:window-x="0"
     inkscape:window-y="0"
     inkscape:window-maximized="1"
     inkscape:current-layer="svg31" />
  <defs
     id="defs5">
    <clipPath
       id="_clipPath_4rwB8qAnozIEw95PVxL6AWjHtI6TQ3R8">
      <rect
         width="180"
         height="130"
         id="rect2" />
    </clipPath>
  </defs>
  <rect
     style="vector-effect:non-scaling-stroke;fill:#3c1529;stroke:#ffffff;stroke-width:1.02199996;stroke-linecap:butt;stroke-linejoin:miter;stroke-miterlimit:2;fill-opacity:1"
     id="rect7"
     stroke-miterlimit="2"
     height="131.689"
     width="182.162"
     y="-1.0829999"
     x="-0.94499999" />
  <g
     id="g27">
    <path
       style="fill:#ffc42e"
       inkscape:connector-curvature="0"
       id="path9"
       d="m 104.873,29.656 c -17.905,0 -35.368,17.463 -35.368,35.369 0,-4.623 6.595,10.859 10.195,8.404 4.005,-2.731 5.293,-23.141 10.436,-23.141 0.591,-10e-4 1.18,0.028 1.768,0.086 0.007,10e-4 0.015,0.006 0.023,0.006 17.068,0.934 27.683,12.08 27.683,29.382 0,5.152 -1.234,10.007 -3.373,14.333 0.135,-0.073 0.269,-0.148 0.403,-0.224 0.466,0.564 0.909,1.065 1.347,1.543 8.531,-7.804 13.396,-18.828 13.413,-30.389 -0.001,-1.156 -0.071,-2.305 -0.167,-3.448 -0.068,-0.713 -0.155,-1.423 -0.259,-2.13 -0.09,-0.651 -0.169,-1.303 -0.288,-1.946 -0.13,-0.656 -0.276,-1.309 -0.438,-1.957 -0.158,-0.669 -0.309,-1.339 -0.501,-1.998 -0.183,-0.603 -0.381,-1.202 -0.593,-1.796 -0.237,-0.696 -0.462,-1.396 -0.736,-2.078 -0.218,-0.513 -0.447,-1.022 -0.685,-1.526 -0.326,-0.724 -0.641,-1.453 -1.008,-2.158 -0.25,-0.46 -0.509,-0.915 -0.777,-1.365 -0.407,-0.714 -0.805,-1.434 -1.255,-2.124 -0.275,-0.398 -0.557,-0.792 -0.846,-1.18 -0.505,-0.717 -0.997,-1.443 -1.549,-2.13 -0.178,-0.207 -0.358,-0.412 -0.541,-0.616 -0.698,-0.834 -1.408,-1.659 -2.176,-2.441 -4.556,-2.319 -9.595,-6.476 -14.708,-6.476 z" />
    <path
       style="fill:#ff8514"
       inkscape:connector-curvature="0"
       id="path11"
       d="m 91.909,47.433 c 8.594,0.905 12.964,8.435 12.964,17.592 10e-4,0.59 -0.028,1.18 -0.086,1.767 -0.001,0.008 -0.005,0.015 -0.006,0.023 -0.934,17.068 -12.08,27.683 -29.381,27.683 -5.153,0 -10.008,-1.234 -14.334,-3.373 0.074,0.135 0.148,0.269 0.224,0.403 -0.85,0.225 -1.444,0.463 -2.112,0.697 5.814,6.628 13.6,11.22 22.214,13.102 2.232,0.356 4.41,0.686 6.137,0.828 0.867,0.072 1.737,0.116 2.607,0.133 1.156,-10e-4 2.305,-0.071 3.449,-0.167 0.712,-0.068 1.422,-0.154 2.13,-0.259 0.65,-0.089 1.302,-0.168 1.945,-0.288 0.656,-0.13 1.309,-0.276 1.957,-0.437 0.669,-0.159 1.339,-0.31 1.998,-0.501 0.603,-0.184 1.202,-0.382 1.796,-0.593 0.696,-0.237 1.396,-0.463 2.078,-0.737 0.513,-0.218 1.022,-0.446 1.526,-0.685 0.724,-0.326 1.453,-0.64 2.158,-1.007 0.46,-0.251 0.915,-0.51 1.365,-0.778 0.714,-0.407 1.434,-0.804 2.124,-1.255 0.398,-0.275 0.792,-0.557 1.18,-0.846 0.717,-0.504 1.444,-0.997 2.13,-1.548 0.207,-0.179 0.412,-0.359 0.616,-0.541 0.834,-0.698 1.659,-1.409 2.441,-2.176 2.319,-4.556 3.528,-9.596 3.528,-14.708 0,-17.308 -13.571,-31.404 -30.648,-32.329 z" />
    <path
       style="fill:#ff5757"
       inkscape:connector-curvature="0"
       id="path13"
       d="m 64.566,32.643 c -1.962,1.549 -3.769,3.265 -5.405,5.124 -3.828,4.349 -6.716,9.477 -8.446,15.065 -0.002,0.013 -0.009,0.022 -0.011,0.035 -1.069,5.204 -1.828,9.839 -1.831,12.158 0.001,1.156 0.071,2.305 0.167,3.448 0.068,0.712 0.154,1.422 0.259,2.13 0.089,0.65 0.168,1.302 0.288,1.946 0.13,0.655 0.276,1.308 0.438,1.957 0.158,0.668 0.309,1.339 0.5,1.997 0.184,0.603 0.382,1.202 0.593,1.796 0.237,0.697 0.463,1.396 0.737,2.078 0.218,0.514 0.447,1.022 0.685,1.526 0.326,0.725 0.64,1.454 1.008,2.159 0.25,0.459 0.509,0.914 0.777,1.364 0.407,0.714 0.805,1.434 1.255,2.124 0.275,0.398 0.557,0.792 0.846,1.18 0.505,0.718 0.997,1.444 1.548,2.13 0.179,0.207 0.359,0.413 0.542,0.616 0.698,0.834 1.408,1.659 2.176,2.441 4.555,2.319 9.595,3.529 14.708,3.529 17.307,0 31.403,-13.572 32.329,-30.648 -0.906,8.593 -8.436,12.964 -17.593,12.964 -0.59,0 -1.18,-0.028 -1.767,-0.087 -0.008,0 -0.015,-0.005 -0.023,-0.006 -17.068,-0.934 -27.683,-12.08 -27.683,-29.381 0,-5.153 0.426,-14.334 0.426,-14.334 0,0 5.282,0.94 3.563,-1.958 -0.018,-0.533 -0.063,-0.858 -0.086,-1.353 z" />
    <path
       style="fill:#baff41"
       inkscape:connector-curvature="0"
       id="path15"
       d="m 90.136,82.709 c -3.44,0 10.468,-2.568 7.846,-4.268 -4.82,-3.126 -24.94,-7.09 -24.94,-13.416 -0.001,-0.59 -0.562,-1.18 -0.503,-1.768 0,-0.007 0.005,-0.015 0.005,-0.023 0.935,-17.068 15.028,-30.63 32.329,-30.63 5.153,0 10.008,1.234 14.334,3.373 -0.074,-0.135 -0.149,-0.269 -0.224,-0.403 -7.702,-7.558 -18.057,-11.798 -28.847,-11.812 -10.806,0.004 -21.18,4.247 -28.892,11.818 -2.319,4.556 -3.528,9.596 -3.529,14.708 0,17.906 14.516,32.421 32.421,32.421 z" />
    <g
       style="opacity:0.2"
       id="g19">
      <path
         style="fill:#ffffff"
         inkscape:connector-curvature="0"
         id="path17"
         d="m 90.136,23.762 c -22.789,0 -41.263,18.474 -41.263,41.263 0.007,0.242 0.015,0.483 0.026,0.725 0.408,-22.486 18.748,-40.504 41.237,-40.515 22.486,0.017 40.818,18.033 41.226,40.515 0.015,-0.242 0.027,-0.483 0.038,-0.725 0,-22.789 -18.475,-41.263 -41.264,-41.263 z" />
    </g>
    <g
       style="opacity:0.2"
       id="g23">
      <path
         style="fill:#000000"
         inkscape:connector-curvature="0"
         id="path21"
         d="m 104.873,32.604 c -17.301,0 -31.394,13.562 -32.329,30.63 0,0.008 -0.005,0.016 -0.005,0.023 -0.017,0.169 0.023,0.338 0.08,0.507 1.393,-16.62 15.274,-29.687 32.254,-29.687 5.153,0 10.008,1.235 14.334,3.374 -0.074,-0.135 -0.149,-0.269 -0.224,-0.403 -0.811,-0.796 -1.657,-1.547 -2.525,-2.268 -3.598,-1.39 -7.496,-2.176 -11.585,-2.176 z M 91.909,47.433 c 2.627,0.276 4.854,1.178 6.687,2.55 13.549,3.649 23.583,15.83 23.941,30.446 0.005,-0.222 0.02,-0.445 0.02,-0.667 0,-17.308 -13.571,-31.404 -30.648,-32.329 z m -34.173,3.646 c -0.005,0.228 -0.021,0.455 -0.021,0.683 0,17.905 14.516,32.421 32.421,32.421 C 97.984,84.177 104.889,79 107.095,71.469 104.104,86.277 91.09,97.446 75.4,97.446 c -5.096,0 -10.119,-1.202 -14.662,-3.506 -1.021,-1.034 -1.987,-2.122 -2.893,-3.258 -0.087,-0.111 -0.164,-0.228 -0.248,-0.34 -0.753,-0.962 -1.464,-1.957 -2.13,-2.982 -0.099,-0.156 -0.186,-0.319 -0.282,-0.478 -0.62,-0.984 -1.198,-1.994 -1.732,-3.028 -0.142,-0.28 -0.27,-0.566 -0.4,-0.852 -0.468,-0.948 -0.899,-1.914 -1.293,-2.895 -0.096,-0.253 -0.182,-0.51 -0.27,-0.766 -0.385,-1.019 -0.728,-2.053 -1.031,-3.1 -0.073,-0.266 -0.136,-0.536 -0.201,-0.806 -0.282,-1.058 -0.521,-2.128 -0.717,-3.206 -0.045,-0.269 -0.083,-0.54 -0.121,-0.812 -0.178,-1.099 -0.311,-2.205 -0.4,-3.315 -0.029,-0.393 -0.05,-0.787 -0.069,-1.181 -0.02,-0.344 -0.035,-0.688 -0.046,-1.033 -0.012,0.204 -0.023,0.407 -0.032,0.61 0.001,1.156 0.071,2.305 0.167,3.449 0.003,0.03 0.009,0.061 0.012,0.092 0.064,0.663 0.145,1.324 0.241,1.983 0.003,0.018 0.004,0.036 0.006,0.055 0.089,0.65 0.168,1.302 0.288,1.945 0.007,0.036 0.016,0.071 0.023,0.107 0.139,0.697 0.297,1.391 0.472,2.081 0.139,0.591 0.274,1.184 0.443,1.767 0.01,0.033 0.022,0.065 0.032,0.098 0.252,0.831 0.531,1.653 0.835,2.467 0.149,0.438 0.291,0.879 0.463,1.309 0.025,0.058 0.053,0.115 0.078,0.173 0.348,0.834 0.723,1.657 1.125,2.467 0.161,0.349 0.312,0.703 0.49,1.044 0.036,0.066 0.076,0.13 0.112,0.196 0.386,0.714 0.793,1.417 1.22,2.107 0.23,0.397 0.448,0.801 0.7,1.186 0.059,0.085 0.121,0.168 0.181,0.253 0.474,0.7 0.969,1.386 1.485,2.055 0.241,0.336 0.469,0.679 0.728,1.002 0.081,0.093 0.164,0.184 0.245,0.276 0.328,0.396 0.662,0.786 1.005,1.169 0.473,0.549 0.956,1.091 1.468,1.612 0.021,0.011 0.044,0.02 0.066,0.031 7.745,7.881 18.328,12.326 29.378,12.34 22.789,0 41.264,-18.475 41.264,-41.264 -0.008,-0.288 -0.019,-0.575 -0.032,-0.863 -0.333,22.538 -18.691,40.638 -41.232,40.653 -9.61,-0.01 -18.915,-3.375 -26.31,-9.513 3.687,1.409 7.607,2.144 11.574,2.144 17.307,0 31.403,-13.571 32.329,-30.648 -0.017,0.161 -0.05,0.312 -0.072,0.47 0.102,-0.744 0.157,-1.492 0.164,-2.243 -0.008,-0.198 -0.018,-0.397 -0.032,-0.595 -0.325,6.357 -4.042,12.049 -9.732,14.903 0.31,-0.31 0.356,-0.613 -0.074,-0.892 -0.113,-0.073 -0.272,-0.148 -0.4,-0.222 -2.426,1.482 -10.106,3.017 -7.447,3.017 -9.471,-0.012 -17.252,-7.484 -17.646,-16.947 -0.018,0.245 -0.03,0.491 -0.038,0.736 0.005,5.901 2.952,11.41 7.858,14.688 C 67.453,77.099 58.075,65.211 57.736,51.079 Z" />
    </g>
    <path
       style="fill:#555555"
       inkscape:connector-curvature="0"
       id="path25"
       d="m 107.821,65.025 c 0,9.766 -7.918,17.684 -17.685,17.684 -9.766,0 -17.684,-7.918 -17.684,-17.684 0,-9.767 7.918,-17.685 17.684,-17.685 9.767,0 17.685,7.918 17.685,17.685 z" />
  </g>
</svg>
