<?xml version="1.0" encoding="UTF-8" standalone="no"?>
<!-- Generator: Gravit.io -->

<svg
   xmlns:dc="http://purl.org/dc/elements/1.1/"
   xmlns:cc="http://creativecommons.org/ns#"
   xmlns:rdf="http://www.w3.org/1999/02/22-rdf-syntax-ns#"
   xmlns:svg="http://www.w3.org/2000/svg"
   xmlns="http://www.w3.org/2000/svg"
   xmlns:sodipodi="http://sodipodi.sourceforge.net/DTD/sodipodi-0.dtd"
   xmlns:inkscape="http://www.inkscape.org/namespaces/inkscape"
   style="isolation:isolate"
   viewBox="0 0 180 130"
   width="180pt"
   height="130pt"
   version="1.1"
   id="svg23"
   sodipodi:docname="youtube-dlg.svg"
   inkscape:version="0.92.1 r15371">
  <metadata
     id="metadata27">
    <rdf:RDF>
      <cc:Work
         rdf:about="">
        <dc:format>image/svg+xml</dc:format>
        <dc:type
           rdf:resource="http://purl.org/dc/dcmitype/StillImage" />
      </cc:Work>
    </rdf:RDF>
  </metadata>
  <sodipodi:namedview
     pagecolor="#ffffff"
     bordercolor="#666666"
     borderopacity="1"
     objecttolerance="10"
     gridtolerance="10"
     guidetolerance="10"
     inkscape:pageopacity="0"
     inkscape:pageshadow="2"
     inkscape:window-width="1360"
     inkscape:window-height="728"
     id="namedview25"
     showgrid="false"
     inkscape:zoom="1.3615385"
     inkscape:cx="-4.8587537"
     inkscape:cy="86.666669"
     inkscape:window-x="0"
     inkscape:window-y="0"
     inkscape:window-maximized="1"
     inkscape:current-layer="svg23" />
  <defs
     id="defs5">
    <clipPath
       id="_clipPath_slykr1h7SJWrMJMFCX9gmmYT1R3brR05">
      <rect
         width="180"
         height="130"
         id="rect2" />
    </clipPath>
  </defs>
  <rect
     style="vector-effect:non-scaling-stroke;fill:#f6253c;stroke:#ffffff;stroke-width:1.02199996;stroke-linecap:butt;stroke-linejoin:miter;stroke-miterlimit:2;fill-opacity:1"
     id="rect7"
     stroke-miterlimit="2"
     height="131.689"
     width="182.162"
     y="-1.0829999"
     x="-0.94499999" />
  <g
     id="g19">
    <g
       id="g17">
      <g
         id="g15">
        <g
           id="g13">
          <g
             id="g11">
            <path
               style="fill:#f9f9f9"
               inkscape:connector-curvature="0"
               id="path9"
               d="m 90.719,31.475 c -11.355,0 -28.025,0.65 -33.047,0.809 -5.459,0.477 -7.511,0.75 -10.511,3.234 -4.555,3.94 -5.605,11.723 -5.605,23.561 V 70.4 c 0,13.527 1.868,20.357 4.906,22.87 3.505,2.931 5.84,3.119 8.176,3.466 0.904,0.13 7.283,1.312 35.734,1.312 17.734,0 32.987,-0.85 34.564,-1.038 2.541,-0.318 6.132,-0.721 8.875,-3.696 4.073,-4.505 4.906,-12.041 4.906,-22.881 V 57.397 c 0,-7.014 -0.422,-16.993 -4.906,-21.151 -3.386,-2.787 -4.656,-3.581 -11.677,-3.929 -1.984,-0.085 -19.312,-0.809 -31.411,-0.809 M 78.93,42.595 h 22.42 v 25.872 h 9.226 L 90.14,89.256 69.704,68.467 h 9.226" />
          </g>
        </g>
      </g>
    </g>
  </g>
</svg>
