<?xml version="1.0" encoding="UTF-8"?>
<svg xmlns="http://www.w3.org/2000/svg" xmlns:xlink="http://www.w3.org/1999/xlink" width="324px" height="234px" viewBox="0 0 324 234" version="1.1">
<g id="surface1">
<rect x="0" y="0" width="324" height="234" style="fill:rgb(96.470588%,14.509805%,23.529412%);fill-opacity:1;stroke:none;"/>
<path style="fill:none;stroke-width:1.022;stroke-linecap:butt;stroke-linejoin:miter;stroke:rgb(100%,100%,100%);stroke-opacity:1;stroke-miterlimit:2;" d="M -0.94401 -1.084054 L 181.217448 -1.084054 L 181.217448 130.606798 L -0.94401 130.606798 Z M -0.94401 -1.084054 " transform="matrix(1.8,0,0,1.794479,0,0)"/>
<path style=" stroke:none;fill-rule:nonzero;fill:rgb(97.647059%,97.647059%,97.647059%);fill-opacity:1;" d="M 163.292969 56.480469 C 142.855469 56.480469 112.847656 57.648438 103.808594 57.933594 C 93.984375 58.789062 90.289062 59.277344 84.890625 63.734375 C 76.691406 70.804688 74.800781 84.773438 74.800781 106.015625 L 74.800781 126.332031 C 74.800781 150.605469 78.164062 162.863281 83.632812 167.371094 C 89.941406 172.628906 94.144531 172.96875 98.347656 173.589844 C 99.976562 173.824219 111.457031 175.945312 162.667969 175.945312 C 194.589844 175.945312 222.046875 174.417969 224.886719 174.082031 C 229.457031 173.511719 235.921875 172.789062 240.859375 167.449219 C 248.191406 159.367188 249.691406 145.84375 249.691406 126.390625 L 249.691406 102.996094 C 249.691406 90.410156 248.929688 72.503906 240.859375 65.042969 C 234.765625 60.042969 232.480469 58.617188 219.839844 57.992188 C 216.269531 57.839844 185.078125 56.539062 163.300781 56.539062 M 142.074219 76.4375 L 182.429688 76.4375 L 182.429688 122.863281 L 199.035156 122.863281 L 162.253906 160.167969 L 125.46875 122.863281 L 142.074219 122.863281 "/>
</g>
</svg>
