<svg xmlns="http://www.w3.org/2000/svg" width="324" height="234"><defs><linearGradient id="a" x1="0" x2="324" y1="117" y2="117" gradientUnits="userSpaceOnUse"><stop offset="0" stop-color="#df68a0"/><stop offset="1" stop-color="purple"/></linearGradient></defs><path fill="url(#a)" d="M0 234V0h324v234H200.75Z"/><circle cx="162" cy="117" r="82.12" fill="#fe0d80"/><path fill="#f9f9f9" d="M181.7 37.29v82.99h23V71.01a55.17 55.17 0 0 0 31.32 10.46 82.11 82.11 0 0 0-54.32-44.18Z"/><path fill="#f9f9f9" d="M204.7 120.28a42.7 42.7 0 1 1-85.4 0 42.7 42.7 0 0 1 85.4 0Z"/><path fill="#fe0d80" fill-rule="evenodd" d="M165.28 133.55V98.93h-6.57v34.62l-13.43-13.27-4.63 4.9 19.05 18.78a3.29 3.29 0 0 0 4.6 0l19.04-18.79-4.63-4.89Z" clip-rule="evenodd" style="mix-blend-mode:normal"/></svg>