<?xml version="1.0" encoding="UTF-8" standalone="no"?>
<svg
   xmlns:dc="http://purl.org/dc/elements/1.1/"
   xmlns:cc="http://creativecommons.org/ns#"
   xmlns:rdf="http://www.w3.org/1999/02/22-rdf-syntax-ns#"
   xmlns:svg="http://www.w3.org/2000/svg"
   xmlns="http://www.w3.org/2000/svg"
   xmlns:xlink="http://www.w3.org/1999/xlink"
   xmlns:sodipodi="http://sodipodi.sourceforge.net/DTD/sodipodi-0.dtd"
   xmlns:inkscape="http://www.inkscape.org/namespaces/inkscape"
   sodipodi:docname="4kvideodownloader.svg"
   inkscape:version="1.0 (4035a4fb49, 2020-05-01)"
   width="324px"
   height="234px"
   viewBox="0 0 324 234"
   version="1.1"
   id="SVGRoot">
  <defs
     id="defs10">
    <filter
       height="1.216"
       y="-0.108"
       width="1.216"
       x="-0.108"
       id="filter1042"
       style="color-interpolation-filters:sRGB"
       inkscape:collect="always">
      <feGaussianBlur
         id="feGaussianBlur1044"
         stdDeviation="4.5176688"
         inkscape:collect="always" />
    </filter>
    <linearGradient
       id="linearGradient853-2"
       inkscape:collect="always">
      <stop
         id="stop849-1"
         offset="0"
         style="stop-color:#eef7e4;stop-opacity:1" />
      <stop
         id="stop851-0"
         offset="1"
         style="stop-color:#e2f1d2;stop-opacity:1" />
    </linearGradient>
    <linearGradient
       gradientUnits="userSpaceOnUse"
       y2="123.31055"
       x2="200"
       y1="-0.31054601"
       x1="3.5e-06"
       id="linearGradient855-5"
       xlink:href="#linearGradient853-2"
       inkscape:collect="always"
       gradientTransform="matrix(-1,0,0,1,200,0)" />
    <inkscape:perspective
       id="perspective1106"
       inkscape:persp3d-origin="100 : 41 : 1"
       inkscape:vp_z="200 : 61.5 : 1"
       inkscape:vp_y="0 : 1000 : 0"
       inkscape:vp_x="0 : 61.5 : 1"
       sodipodi:type="inkscape:persp3d" />
    <inkscape:path-effect
       only_selected="false"
       apply_with_weight="true"
       apply_no_weight="true"
       helper_size="0"
       steps="2"
       weight="33.333333"
       lpeversion="1"
       is_visible="true"
       id="path-effect1092"
       effect="bspline" />
    <inkscape:path-effect
       only_selected="false"
       apply_with_weight="true"
       apply_no_weight="true"
       helper_size="0"
       steps="2"
       weight="33.333333"
       lpeversion="1"
       is_visible="true"
       id="path-effect1088"
       effect="bspline" />
    <linearGradient
       gradientUnits="userSpaceOnUse"
       y2="133.72221"
       x2="4e-06"
       y1="-10.722221"
       x1="200"
       id="linearGradient1213"
       xlink:href="#linearGradient853-2"
       inkscape:collect="always" />
  </defs>
  <sodipodi:namedview
     inkscape:pagecheckerboard="true"
     inkscape:window-maximized="1"
     inkscape:window-y="-8"
     inkscape:window-x="-8"
     inkscape:window-height="801"
     inkscape:window-width="1152"
     showgrid="false"
     inkscape:document-rotation="0"
     inkscape:current-layer="g987"
     inkscape:document-units="px"
     inkscape:cy="120.16201"
     inkscape:cx="163.5682"
     inkscape:zoom="0.7"
     inkscape:pageshadow="2"
     inkscape:pageopacity="0.0"
     borderopacity="1.0"
     bordercolor="#666666"
     pagecolor="#ffffff"
     id="base">
    <sodipodi:guide
       id="guide137"
       orientation="163.80001,0"
       position="243.9,198.9" />
    <sodipodi:guide
       id="guide139"
       orientation="0,-101.49202"
       position="243.9,35.099996" />
    <sodipodi:guide
       id="guide141"
       orientation="0,-62.30799"
       position="142.40799,35.099996" />
    <sodipodi:guide
       id="guide143"
       orientation="-163.80001,0"
       position="80.099996,35.099996" />
    <sodipodi:guide
       id="guide145"
       orientation="0,62.30799"
       position="80.099996,198.9" />
    <sodipodi:guide
       id="guide147"
       orientation="0,101.49202"
       position="142.40799,198.9" />
  </sodipodi:namedview>
  <metadata
     id="metadata13">
    <rdf:RDF>
      <cc:Work
         rdf:about="">
        <dc:format>image/svg+xml</dc:format>
        <dc:type
           rdf:resource="http://purl.org/dc/dcmitype/StillImage" />
        <dc:title></dc:title>
      </cc:Work>
    </rdf:RDF>
  </metadata>
  <g
     id="layer1"
     inkscape:groupmode="layer"
     inkscape:label="Capa 1">
    <g
       transform="matrix(1.62,0,0,1.62,-3.24e-6,17.369997)"
       id="g55">
      <path
         d="M 200,-10.722221 V 133.72222 H 76.078134 4e-6 V -10.722221 h 76.07813 z"
         style="fill:url(#linearGradient1213);fill-opacity:1;stroke:none;stroke-width:2.14905;stroke-miterlimit:4;stroke-dasharray:none"
         id="rect3770" />
      <ellipse
         r="50.19632"
         cy="61.5"
         cx="100"
         id="path149"
         style="fill:none;stroke:#808080;stroke-width:4.32098765;stroke-miterlimit:4;stroke-dasharray:none;stroke-opacity:1;opacity:1;filter:url(#filter1042)" />
      <g
         transform="matrix(0.61728395,0,0,0.61728395,-123.45679,-10.530526)"
         id="g1076">
        <g
           transform="translate(-39.999999,-168.9534)"
           id="g1116">
          <g
             transform="matrix(1.6438356,0,0,1.6411181,319.51644,203.57874)"
             fill="none"
             fill-rule="evenodd"
             id="g987">
            <path
               d="M 50.178,99.91 C 22.706,99.91 0.355,77.521 0.355,50.003 0.355,22.487 22.705,0.1 50.178,0.1 77.65,0.1 100,22.487 100,50.004 100,77.522 77.65,99.909 50.178,99.909"
               fill="#5cb500"
               id="path979" />
            <path
               d="M 61.936,54.396 H 60.74 a 0.2,0.2 0 0 0 -0.2,0.2 v 1.197 c 0,0.11 0.09,0.2 0.2,0.2 h 1.196 a 0.2,0.2 0 0 0 0.2,-0.2 v -1.197 a 0.2,0.2 0 0 0 -0.2,-0.2 z m 0,-3.194 H 60.74 a 0.2,0.2 0 0 0 -0.2,0.2 v 1.197 c 0,0.11 0.09,0.2 0.2,0.2 h 1.196 a 0.2,0.2 0 0 0 0.2,-0.2 v -1.197 a 0.2,0.2 0 0 0 -0.2,-0.2 z m 0,6.388 H 60.74 a 0.2,0.2 0 0 0 -0.2,0.2 v 1.197 c 0,0.11 0.09,0.2 0.2,0.2 h 1.196 a 0.2,0.2 0 0 0 0.2,-0.2 V 57.79 a 0.2,0.2 0 0 0 -0.2,-0.2 z m 0,-15.97 H 60.74 a 0.2,0.2 0 0 0 -0.2,0.2 v 1.198 c 0,0.11 0.09,0.2 0.2,0.2 h 1.196 a 0.2,0.2 0 0 0 0.2,-0.2 V 41.82 a 0.2,0.2 0 0 0 -0.2,-0.2 z m 2.59,22.957 a 0.2,0.2 0 0 1 -0.199,0.2 H 36.028 a 0.2,0.2 0 0 1 -0.2,-0.2 V 39.424 c 0,-0.11 0.09,-0.2 0.2,-0.2 h 28.3 a 0.2,0.2 0 0 1 0.199,0.2 V 64.577 Z M 74.06,42.89 c 0.003,-0.143 0.011,-0.284 0.011,-0.427 0,-11.27 -9.12,-20.405 -20.372,-20.405 -7.66,0 -14.329,4.237 -17.808,10.497 a 9.088,9.088 0 0 0 -1.26,-0.09 c -5,0 -9.053,4.061 -9.053,9.07 0,0.49 0.04,0.972 0.115,1.443 -6.69,1.136 -11.785,6.966 -11.785,13.99 0,7.84 6.344,14.196 14.172,14.196 h 44.216 c 7.819,-0.01 14.153,-6.362 14.153,-14.195 0,-7.235 -5.404,-13.2 -12.389,-14.08 z M 61.936,60.784 H 60.74 a 0.2,0.2 0 0 0 -0.2,0.2 v 1.197 c 0,0.11 0.09,0.2 0.2,0.2 h 1.196 a 0.2,0.2 0 0 0 0.2,-0.2 v -1.198 a 0.2,0.2 0 0 0 -0.2,-0.2 z m 0,-12.776 H 60.74 a 0.2,0.2 0 0 0 -0.2,0.2 v 1.198 c 0,0.11 0.09,0.2 0.2,0.2 h 1.196 a 0.2,0.2 0 0 0 0.2,-0.2 v -1.198 a 0.2,0.2 0 0 0 -0.2,-0.2 z m 0,-3.194 H 60.74 a 0.2,0.2 0 0 0 -0.2,0.2 v 1.198 c 0,0.11 0.09,0.2 0.2,0.2 h 1.196 a 0.2,0.2 0 0 0 0.2,-0.2 v -1.198 a 0.2,0.2 0 0 0 -0.2,-0.2 z m -22.32,0 H 38.42 a 0.2,0.2 0 0 0 -0.2,0.2 v 1.198 c 0,0.11 0.09,0.2 0.2,0.2 h 1.195 a 0.2,0.2 0 0 0 0.2,-0.2 v -1.198 a 0.2,0.2 0 0 0 -0.2,-0.2 z m 0,9.582 H 38.42 a 0.2,0.2 0 0 0 -0.2,0.2 v 1.197 c 0,0.11 0.09,0.2 0.2,0.2 h 1.195 a 0.2,0.2 0 0 0 0.2,-0.2 v -1.197 a 0.2,0.2 0 0 0 -0.2,-0.2 z m 0,6.388 H 38.42 a 0.2,0.2 0 0 0 -0.2,0.2 v 1.197 c 0,0.11 0.09,0.2 0.2,0.2 h 1.195 a 0.2,0.2 0 0 0 0.2,-0.2 v -1.198 a 0.2,0.2 0 0 0 -0.2,-0.2 z m 0,-9.582 H 38.42 a 0.2,0.2 0 0 0 -0.2,0.2 v 1.197 c 0,0.11 0.09,0.2 0.2,0.2 h 1.195 a 0.2,0.2 0 0 0 0.2,-0.2 v -1.197 a 0.2,0.2 0 0 0 -0.2,-0.2 z m 0,6.388 H 38.42 a 0.2,0.2 0 0 0 -0.2,0.2 v 1.197 c 0,0.11 0.09,0.2 0.2,0.2 h 1.195 a 0.2,0.2 0 0 0 0.2,-0.2 V 57.79 a 0.2,0.2 0 0 0 -0.2,-0.2 z M 57.352,41.62 H 43.003 a 0.8,0.8 0 0 0 -0.797,0.799 v 7.585 a 0.8,0.8 0 0 0 0.797,0.799 h 14.35 a 0.8,0.8 0 0 0 0.796,-0.799 V 42.42 a 0.8,0.8 0 0 0 -0.797,-0.799 z m 0,11.578 H 43.003 a 0.8,0.8 0 0 0 -0.797,0.799 v 7.585 a 0.8,0.8 0 0 0 0.797,0.799 h 14.35 a 0.8,0.8 0 0 0 0.796,-0.799 V 53.997 A 0.8,0.8 0 0 0 57.352,53.198 Z M 39.615,41.62 H 38.42 a 0.2,0.2 0 0 0 -0.2,0.2 v 1.198 c 0,0.11 0.09,0.2 0.2,0.2 h 1.195 a 0.2,0.2 0 0 0 0.2,-0.2 V 41.82 a 0.2,0.2 0 0 0 -0.2,-0.2 z m 0,6.388 H 38.42 a 0.2,0.2 0 0 0 -0.2,0.2 v 1.198 c 0,0.11 0.09,0.2 0.2,0.2 h 1.195 a 0.2,0.2 0 0 0 0.2,-0.2 v -1.198 a 0.2,0.2 0 0 0 -0.2,-0.2 z"
               fill="#57ba00"
               id="path981" />
            <path
               style="fill-opacity:1;fill:#e6f3d8"
               d="M 61.936,53.997 H 60.74 a 0.2,0.2 0 0 0 -0.2,0.2 v 1.197 c 0,0.11 0.09,0.2 0.2,0.2 h 1.196 a 0.2,0.2 0 0 0 0.2,-0.2 v -1.198 a 0.2,0.2 0 0 0 -0.2,-0.2 z m 0,3.194 H 60.74 a 0.2,0.2 0 0 0 -0.2,0.2 v 1.197 c 0,0.11 0.09,0.2 0.2,0.2 h 1.196 a 0.2,0.2 0 0 0 0.2,-0.2 V 57.39 a 0.2,0.2 0 0 0 -0.2,-0.2 z m 0,3.194 H 60.74 a 0.2,0.2 0 0 0 -0.2,0.2 v 1.197 c 0,0.11 0.09,0.2 0.2,0.2 h 1.196 a 0.2,0.2 0 0 0 0.2,-0.2 v -1.198 a 0.2,0.2 0 0 0 -0.2,-0.2 z m 0,-9.582 H 60.74 a 0.2,0.2 0 0 0 -0.2,0.2 V 52.2 c 0,0.11 0.09,0.2 0.2,0.2 h 1.196 a 0.2,0.2 0 0 0 0.2,-0.2 v -1.198 a 0.2,0.2 0 0 0 -0.2,-0.2 z m 2.59,13.374 a 0.2,0.2 0 0 1 -0.199,0.2 H 36.028 a 0.2,0.2 0 0 1 -0.2,-0.2 V 39.025 c 0,-0.11 0.09,-0.2 0.2,-0.2 h 28.3 a 0.2,0.2 0 0 1 0.199,0.2 v 25.152 z m 9.539,-21.69 c 0.003,-0.14 0.005,-0.281 0.005,-0.423 0,-11.27 -9.12,-20.406 -20.372,-20.406 -7.66,0 -14.33,4.236 -17.81,10.496 a 9.114,9.114 0 0 0 -1.257,-0.088 c -5,0 -9.054,4.06 -9.054,9.07 0,0.49 0.04,0.97 0.114,1.44 -6.69,1.136 -11.784,6.968 -11.784,13.993 0,7.84 6.344,14.196 14.172,14.196 h 44.216 c 7.819,-0.01 14.153,-6.362 14.153,-14.195 0,-7.233 -5.4,-13.203 -12.383,-14.083 z m -12.13,5.122 H 60.74 a 0.2,0.2 0 0 0 -0.2,0.2 v 1.197 c 0,0.11 0.09,0.2 0.2,0.2 h 1.196 a 0.2,0.2 0 0 0 0.2,-0.2 V 47.81 a 0.2,0.2 0 0 0 -0.2,-0.2 z m 0,-6.388 H 60.74 a 0.2,0.2 0 0 0 -0.2,0.2 v 1.197 c 0,0.11 0.09,0.2 0.2,0.2 h 1.196 a 0.2,0.2 0 0 0 0.2,-0.2 v -1.197 a 0.2,0.2 0 0 0 -0.2,-0.2 z m 0,3.194 H 60.74 a 0.2,0.2 0 0 0 -0.2,0.2 v 1.197 c 0,0.11 0.09,0.2 0.2,0.2 h 1.196 a 0.2,0.2 0 0 0 0.2,-0.2 v -1.197 a 0.2,0.2 0 0 0 -0.2,-0.2 z m -22.32,15.97 H 38.42 a 0.2,0.2 0 0 0 -0.2,0.2 v 1.197 c 0,0.11 0.09,0.2 0.2,0.2 h 1.195 a 0.2,0.2 0 0 0 0.2,-0.2 v -1.198 a 0.2,0.2 0 0 0 -0.2,-0.2 z m 0,-6.388 H 38.42 a 0.2,0.2 0 0 0 -0.2,0.2 v 1.197 c 0,0.11 0.09,0.2 0.2,0.2 h 1.195 a 0.2,0.2 0 0 0 0.2,-0.2 v -1.198 a 0.2,0.2 0 0 0 -0.2,-0.2 z M 57.352,41.22 H 43.003 a 0.8,0.8 0 0 0 -0.797,0.799 v 7.585 a 0.8,0.8 0 0 0 0.797,0.799 h 14.35 a 0.8,0.8 0 0 0 0.796,-0.799 V 42.02 A 0.8,0.8 0 0 0 57.352,41.221 Z M 39.615,50.802 H 38.42 a 0.2,0.2 0 0 0 -0.2,0.2 V 52.2 c 0,0.11 0.09,0.2 0.2,0.2 h 1.195 a 0.2,0.2 0 0 0 0.2,-0.2 v -1.198 a 0.2,0.2 0 0 0 -0.2,-0.2 z m 0,6.388 H 38.42 a 0.2,0.2 0 0 0 -0.2,0.2 v 1.197 c 0,0.11 0.09,0.2 0.2,0.2 h 1.195 a 0.2,0.2 0 0 0 0.2,-0.2 V 57.39 a 0.2,0.2 0 0 0 -0.2,-0.2 z M 57.352,52.798 H 43.003 a 0.8,0.8 0 0 0 -0.797,0.799 v 7.585 a 0.8,0.8 0 0 0 0.797,0.799 h 14.35 a 0.8,0.8 0 0 0 0.796,-0.799 V 53.597 A 0.8,0.8 0 0 0 57.352,52.798 Z M 39.615,44.414 H 38.42 a 0.2,0.2 0 0 0 -0.2,0.2 v 1.197 c 0,0.11 0.09,0.2 0.2,0.2 h 1.195 a 0.2,0.2 0 0 0 0.2,-0.2 v -1.197 a 0.2,0.2 0 0 0 -0.2,-0.2 z m 0,3.194 H 38.42 a 0.2,0.2 0 0 0 -0.2,0.2 v 1.197 c 0,0.11 0.09,0.2 0.2,0.2 h 1.195 a 0.2,0.2 0 0 0 0.2,-0.2 V 47.81 a 0.2,0.2 0 0 0 -0.2,-0.2 z m 0,-6.388 H 38.42 a 0.2,0.2 0 0 0 -0.2,0.2 v 1.197 c 0,0.11 0.09,0.2 0.2,0.2 h 1.195 a 0.2,0.2 0 0 0 0.2,-0.2 V 41.42 a 0.2,0.2 0 0 0 -0.2,-0.2 z"
               fill="#ffffff"
               id="path983" />
            <path
               d="m 38.22,51.202 c 0,-0.11 0.09,-0.2 0.2,-0.2 h 1.195 c 0.11,0 0.2,0.09 0.2,0.2 v -0.2 a 0.2,0.2 0 0 0 -0.2,-0.2 H 38.42 a 0.2,0.2 0 0 0 -0.2,0.2 z m 0,3.194 c 0,-0.11 0.09,-0.2 0.2,-0.2 h 1.195 c 0.11,0 0.2,0.09 0.2,0.2 v -0.2 a 0.2,0.2 0 0 0 -0.2,-0.2 H 38.42 a 0.2,0.2 0 0 0 -0.2,0.2 z m 0,6.388 c 0,-0.11 0.09,-0.2 0.2,-0.2 h 1.195 c 0.11,0 0.2,0.09 0.2,0.2 v -0.2 a 0.2,0.2 0 0 0 -0.2,-0.2 H 38.42 a 0.2,0.2 0 0 0 -0.2,0.2 z m 0,-3.194 c 0,-0.11 0.09,-0.2 0.2,-0.2 h 1.195 c 0.11,0 0.2,0.09 0.2,0.2 v -0.2 a 0.2,0.2 0 0 0 -0.2,-0.2 H 38.42 a 0.2,0.2 0 0 0 -0.2,0.2 z m 0,-9.582 c 0,-0.11 0.09,-0.2 0.2,-0.2 h 1.195 c 0.11,0 0.2,0.09 0.2,0.2 v -0.2 a 0.2,0.2 0 0 0 -0.2,-0.2 H 38.42 a 0.2,0.2 0 0 0 -0.2,0.2 z m 35.85,-5.944 c 0,-11.27 -9.12,-20.406 -20.372,-20.406 -7.66,0 -14.332,4.237 -17.81,10.497 a 9.116,9.116 0 0 0 -1.257,-0.089 c -5,0 -9.054,4.06 -9.054,9.07 l 0.002,0.075 c 0.066,-4.95 4.092,-8.945 9.052,-8.945 0.426,0 0.845,0.032 1.256,0.089 3.48,-6.26 10.151,-10.497 17.811,-10.497 11.218,0 20.317,9.082 20.371,20.305 z M 64.327,64.377 H 36.028 a 0.2,0.2 0 0 1 -0.2,-0.2 v 0.2 c 0,0.11 0.09,0.2 0.2,0.2 h 28.3 a 0.2,0.2 0 0 0 0.199,-0.2 v -0.2 a 0.2,0.2 0 0 1 -0.2,0.2 z M 38.42,41.421 h 1.195 c 0.11,0 0.2,0.09 0.2,0.2 v -0.2 a 0.2,0.2 0 0 0 -0.2,-0.2 H 38.42 a 0.2,0.2 0 0 0 -0.2,0.2 v 0.2 c 0,-0.11 0.09,-0.2 0.2,-0.2 z m -0.2,3.393 c 0,-0.11 0.09,-0.2 0.2,-0.2 h 1.195 c 0.11,0 0.2,0.09 0.2,0.2 v -0.2 a 0.2,0.2 0 0 0 -0.2,-0.199 H 38.42 a 0.2,0.2 0 0 0 -0.2,0.2 v 0.2 z m -24.313,11.756 10e-4,0.095 c 0.05,-6.978 5.128,-12.755 11.785,-13.886 l -0.028,-0.195 c -6.677,1.148 -11.758,6.97 -11.758,13.986 z m 46.634,1.02 a 0.2,0.2 0 0 1 0.199,-0.199 h 1.196 c 0.11,0 0.2,0.09 0.2,0.2 v -0.2 a 0.2,0.2 0 0 0 -0.2,-0.2 H 60.74 a 0.2,0.2 0 0 0 -0.2,0.2 v 0.2 z M 74.067,42.492 c 0,0.067 0,0.133 -0.002,0.2 6.949,0.877 12.33,6.789 12.382,13.974 l 10e-4,-0.095 c 0,-7.232 -5.4,-13.196 -12.38,-14.079 z M 60.541,60.784 c 0,-0.11 0.09,-0.2 0.199,-0.2 h 1.196 c 0.11,0 0.2,0.09 0.2,0.2 v -0.2 a 0.2,0.2 0 0 0 -0.2,-0.2 H 60.74 a 0.2,0.2 0 0 0 -0.2,0.2 v 0.2 z m 0,-6.388 c 0,-0.11 0.09,-0.2 0.199,-0.2 h 1.196 c 0.11,0 0.2,0.09 0.2,0.2 v -0.2 a 0.2,0.2 0 0 0 -0.2,-0.2 H 60.74 a 0.2,0.2 0 0 0 -0.2,0.2 v 0.2 z m 0,-3.194 c 0,-0.11 0.09,-0.2 0.199,-0.2 h 1.196 c 0.11,0 0.2,0.09 0.2,0.2 v -0.2 a 0.2,0.2 0 0 0 -0.2,-0.2 H 60.74 a 0.2,0.2 0 0 0 -0.2,0.2 v 0.2 z m 0.199,-9.781 h 1.196 c 0.11,0 0.2,0.09 0.2,0.2 v -0.2 a 0.2,0.2 0 0 0 -0.2,-0.2 H 60.74 a 0.2,0.2 0 0 0 -0.2,0.2 v 0.2 c 0,-0.11 0.09,-0.2 0.2,-0.2 z M 42.206,53.797 a 0.8,0.8 0 0 1 0.797,-0.798 h 14.35 a 0.8,0.8 0 0 1 0.796,0.798 v -0.2 A 0.8,0.8 0 0 0 57.352,52.799 H 43.003 a 0.8,0.8 0 0 0 -0.797,0.799 v 0.2 z m 18.335,-5.789 c 0,-0.11 0.09,-0.2 0.199,-0.2 h 1.196 c 0.11,0 0.2,0.09 0.2,0.2 v -0.2 a 0.2,0.2 0 0 0 -0.2,-0.2 H 60.74 a 0.2,0.2 0 0 0 -0.2,0.2 v 0.2 z m 0,-3.194 c 0,-0.11 0.09,-0.2 0.199,-0.2 h 1.196 c 0.11,0 0.2,0.09 0.2,0.2 v -0.2 a 0.2,0.2 0 0 0 -0.2,-0.199 H 60.74 a 0.2,0.2 0 0 0 -0.2,0.2 v 0.2 z M 43.003,41.421 h 14.35 a 0.8,0.8 0 0 1 0.796,0.798 v -0.2 A 0.8,0.8 0 0 0 57.352,41.221 H 43.003 a 0.8,0.8 0 0 0 -0.797,0.799 v 0.2 a 0.8,0.8 0 0 1 0.797,-0.8 z"
               fill="#ffffff"
               id="path985" />
          </g>
        </g>
      </g>
    </g>
  </g>
</svg>
