<svg xmlns="http://www.w3.org/2000/svg" xmlns:xlink="http://www.w3.org/1999/xlink" width="324" height="234"><defs><linearGradient id="f"><stop offset="0" stop-color="#16d1cf"/><stop offset="1" stop-color="#12a7a5"/></linearGradient><linearGradient id="e" x1="-82" x2="49.0829" y1="0" y2="181.2175" gradientTransform="matrix(0 -1.8 1.8 0 0 86.4)" gradientUnits="userSpaceOnUse" spreadMethod="pad"><stop offset="0" stop-color="#56acac"/><stop offset="1" stop-color="#444d4d"/></linearGradient><linearGradient id="a" x1="-82" x2="49.0829" y1="0" y2="181.2175" gradientTransform="matrix(0 -1.8 1.8 0 0 86.4)" gradientUnits="userSpaceOnUse" spreadMethod="pad"><stop offset="0" stop-color="#42c0bf"/><stop offset="1" stop-color="#444"/></linearGradient><linearGradient id="d"><stop offset="0"/><stop offset="1" stop-opacity="0"/></linearGradient><linearGradient id="c"><stop offset="0"/><stop offset="1" stop-opacity="0"/></linearGradient><linearGradient xlink:href="#a" id="b" x1="-82" x2="49.0829" y1="0" y2="181.2175" gradientTransform="matrix(0 -1.8 1.8 0 0 86.4)" gradientUnits="userSpaceOnUse"><stop offset="0" stop-color="#818181"/><stop offset="1" stop-color="#444"/></linearGradient><linearGradient xlink:href="#d" id="h" x1="302.8374" x2="171.1826" y1="34.2653" y2="38.103" gradientTransform="translate(-352.4204 -66.9539)" gradientUnits="userSpaceOnUse"/><linearGradient xlink:href="#d" id="i" x1="290.0716" x2="176.9501" y1="-46.0299" y2="32.0343" gradientTransform="matrix(1.4943 0 0 1.4943 -534.501 22.087)" gradientUnits="userSpaceOnUse"/><linearGradient xlink:href="#e" id="g" x1="-82" x2="49.0829" y1="0" y2="181.2175" gradientTransform="matrix(0 -1.8 1.8 0 0 86.4)" gradientUnits="userSpaceOnUse"/><linearGradient xlink:href="#d" id="j" x1="246.185" x2="182.6109" y1="70.7857" y2="32.5115" gradientTransform="matrix(1.4943 0 0 1.4943 -516.5202 -8.322)" gradientUnits="userSpaceOnUse"/><radialGradient xlink:href="#b" id="k" cx="162" cy="117" r="90.5947" fx="162" fy="117" gradientTransform="matrix(1 0 0 .736 0 30.8947)" gradientUnits="userSpaceOnUse"/><radialGradient xlink:href="#f" id="l" cx="162" cy="117" r="87.8321" fx="162" fy="117" gradientTransform="matrix(1 0 0 .7225 0 32.467)" gradientUnits="userSpaceOnUse"/></defs><path fill="url(#g)" d="M0 0h324v234H0z"/><path fill="none" d="M-1.6992-1.9492h327.8906v237.039H-1.6992Zm0 0"/><path fill="none" d="M143.8242 53.1523c-23.789-.0312-41.1758 21.3829-52.289 46.3282-14.4883 32.5039-29.7735 80.5507-.2774 80.5507 31.039 0 56.832-20.2265 75.0664-35.5117 6.6172 14.1563 16.2461 35.5118 29.6992 35.5118 13.4532 0 25.7149-6.2188 31.707-11.7579l22.3477-36.5312-2.418-3.2695c-28.2851 16.4492-37.9335 27.7617-53.828-7.7422l20.0624-21.6524 29.461-42.8086-2.172-3.1562-53.0077 54.4922c-8.5781-20.8555-26.207-54.4297-44.3711-54.4532m-19.8438 26.9375c16.8438 0 26.7227 29.125 36.6329 50.707-14.6133 9.754-33.707 21.7891-47.7032 18.4259-16.586-3.9922-20.8086-24.3594-14.1289-39.6602 5.9258-14.3398 13.1992-29.457 25.1758-29.457"/><path fill="url(#h)" fill-rule="evenodd" d="M-188.0638-65.5146h44.2553V1.0209h-44.2553z" paint-order="markers fill stroke" transform="rotate(-148.02)"/><path fill="url(#i)" fill-rule="evenodd" d="M-288.9055 24.2375h66.13v99.423h-66.13z" paint-order="markers fill stroke" transform="rotate(-138.06)"/><path fill="url(#j)" fill-rule="evenodd" d="M-270.9247-6.1715h66.13v99.423h-66.13z" paint-order="markers fill stroke" transform="rotate(-121.69)"/><path fill="none" stroke="url(#k)" stroke-width="10" d="M143.3292 54.2936c-23.789-.0312-41.1757 21.3828-52.289 46.3282-14.4883 32.5039-29.7735 80.5507-.2774 80.5507 31.039 0 56.832-20.2265 75.0664-35.5117 6.6172 14.1563 16.2461 35.5117 29.6993 35.5117 13.453 0 25.7148-6.2187 31.707-11.7578l22.3476-36.5312-2.418-3.2696c-28.285 16.4493-37.9335 27.7618-53.828-7.7422l20.0624-21.6523 29.461-42.8086-2.1719-3.1562-53.0078 54.4921c-8.5781-20.8554-26.207-54.4296-44.3711-54.453M123.4659 81.231c16.8438 0 26.7227 29.125 36.6329 50.707-14.6133 9.754-33.707 21.7891-47.7032 18.4258-16.5859-3.9921-20.8086-24.3593-14.1289-39.6601 5.9258-14.3399 13.1992-29.457 25.1758-29.457"/><path fill="url(#l)" d="M143.5782 53.58C119.789 53.549 102.4024 74.963 91.289 99.9083c-14.4883 32.504-29.7734 80.5508-.2774 80.5508 31.0391 0 56.832-20.2266 75.0665-35.5117 6.6171 14.1562 16.246 35.5117 29.6992 35.5117 13.4531 0 25.7148-6.2188 31.707-11.7578l22.3477-36.5313-2.418-3.2695c-28.2852 16.4492-37.9336 27.7617-53.8281-7.7422l20.0625-21.6523 29.461-42.8086-2.172-3.1563-53.0078 54.4922c-8.5781-20.8555-26.207-54.4297-44.371-54.4531m-19.8438 26.9375c16.8437 0 26.7226 29.125 36.6328 50.707-14.6133 9.754-33.707 21.789-47.7031 18.4258-16.586-3.9922-20.8086-24.3594-14.129-39.6602 5.9258-14.3398 13.1993-29.457 25.1758-29.457"/></svg>