<?xml version="1.0" encoding="UTF-8"?>
<svg xmlns="http://www.w3.org/2000/svg" xmlns:xlink="http://www.w3.org/1999/xlink" width="324px" height="234px" viewBox="0 0 324 234" version="1.1">
<defs>
<radialGradient id="radial0" gradientUnits="userSpaceOnUse" cx="90.136406" cy="64.761543" fx="90.136406" fy="64.761543" r="91.591759" gradientTransform="matrix(1.8,0,0,1.304046,0,32.11876)">
<stop offset="0" style="stop-color:rgb(16.470589%,17.254902%,18.431373%);stop-opacity:1;"/>
<stop offset="1" style="stop-color:rgb(25.882354%,27.450982%,28.627452%);stop-opacity:1;"/>
</radialGradient>
<radialGradient id="radial1" gradientUnits="userSpaceOnUse" cx="24.197187" cy="24.297867" fx="24.197187" fy="24.297867" r="14.762781" gradientTransform="matrix(5.823815,0,0,4.885729,21.325624,-2.142028)">
<stop offset="0" style="stop-color:rgb(15.294118%,58.823532%,27.450982%);stop-opacity:1;"/>
<stop offset="1" style="stop-color:rgb(46.27451%,100%,40.784314%);stop-opacity:1;"/>
</radialGradient>
<linearGradient id="linear0" gradientUnits="userSpaceOnUse" x1="14.236943" y1="18.432049" x2="32.569172" y2="18.432049" gradientTransform="matrix(6.096804,0,0,5.829328,10.963817,-26.939587)">
<stop offset="0" style="stop-color:rgb(98.039216%,98.039216%,98.039216%);stop-opacity:1;"/>
<stop offset="1" style="stop-color:rgb(88.235295%,88.235295%,88.235295%);stop-opacity:1;"/>
</linearGradient>
</defs>
<g id="surface1">
<rect x="0" y="0" width="324" height="234" style="fill:url(#radial0);stroke:none;"/>
<path style="fill:none;stroke-width:1.021703;stroke-linecap:butt;stroke-linejoin:miter;stroke:rgb(100%,100%,100%);stroke-opacity:1;stroke-miterlimit:4;" d="M -0.94401 -1.082899 L 181.217448 -1.082899 L 181.217448 130.605469 L -0.94401 130.605469 Z M -0.94401 -1.082899 " transform="matrix(1.8,0,0,1.8,0,0)"/>
<path style=" stroke:none;fill-rule:nonzero;fill:url(#radial1);" d="M 119.257812 44.445312 C 95.515625 44.445312 76.269531 60.589844 76.269531 80.507812 C 76.289062 90.460938 81.214844 99.960938 89.871094 106.765625 C 89.425781 107.746094 89.167969 108.824219 89.167969 109.96875 L 89.167969 130.996094 C 84.417969 130.996094 80.570312 134.222656 80.570312 138.207031 C 80.570312 142.191406 84.417969 145.421875 89.167969 145.421875 L 89.167969 166.445312 C 89.167969 170.785156 92.699219 174.269531 97.082031 174.269531 L 125.773438 174.269531 L 115.890625 183.230469 C 113.210938 185.660156 116.5625 188.699219 121.917969 188.699219 L 185.375 188.699219 C 189.300781 188.699219 192.457031 187 192.335938 184.945312 C 192.300781 184.339844 191.980469 183.753906 191.402344 183.230469 L 181.519531 174.273438 L 210.210938 174.273438 C 214.59375 174.273438 218.128906 170.785156 218.128906 166.445312 L 218.128906 147.125 L 224.550781 150.449219 L 241.703125 159.324219 C 244.601562 160.824219 248.222656 158.949219 248.222656 155.953125 L 248.222656 120.460938 C 248.222656 118.269531 246.191406 116.507812 243.746094 116.574219 C 243.027344 116.59375 242.328125 116.773438 241.707031 117.09375 L 224.554688 125.964844 L 218.132812 129.285156 L 218.132812 109.972656 C 218.132812 108.832031 217.875 107.761719 217.433594 106.789062 C 226.097656 99.980469 231.015625 90.464844 231.027344 80.507812 C 231.027344 60.589844 211.78125 44.445312 188.039062 44.445312 C 174.5 44.460938 161.757812 49.832031 153.660156 58.933594 C 145.554688 49.828125 132.804688 44.457031 119.261719 44.445312 Z M 119.257812 44.445312 "/>
<path style=" stroke:none;fill-rule:nonzero;fill:url(#linear0);" d="M 119.257812 62.476562 C 107.4375 62.476562 97.765625 70.589844 97.765625 80.507812 C 97.765625 90.425781 107.4375 98.539062 119.257812 98.539062 C 131.078125 98.539062 140.75 90.425781 140.75 80.507812 C 140.75 70.589844 131.078125 62.476562 119.257812 62.476562 Z M 188.039062 62.476562 C 176.214844 62.476562 166.542969 70.589844 166.542969 80.507812 C 166.542969 90.425781 176.214844 98.539062 188.039062 98.539062 C 199.859375 98.539062 209.53125 90.425781 209.53125 80.507812 C 209.53125 70.589844 199.859375 62.476562 188.039062 62.476562 Z M 119.257812 69.6875 C 126.433594 69.6875 132.152344 74.488281 132.152344 80.507812 C 132.152344 86.527344 126.433594 91.324219 119.257812 91.324219 C 112.082031 91.324219 106.359375 86.527344 106.359375 80.507812 C 106.359375 74.488281 112.082031 69.6875 119.257812 69.6875 Z M 188.039062 69.6875 C 195.210938 69.6875 200.933594 74.488281 200.933594 80.507812 C 200.933594 86.527344 195.210938 91.324219 188.039062 91.324219 C 180.863281 91.324219 175.140625 86.527344 175.140625 80.507812 C 175.140625 74.488281 180.863281 69.6875 188.039062 69.6875 Z M 188.039062 69.6875 "/>
</g>
</svg>
