<svg xmlns="http://www.w3.org/2000/svg" xmlns:xlink="http://www.w3.org/1999/xlink" width="324" height="234"><defs><path id="n" fill="#fbf666" fill-rule="evenodd" d="M29 17.58a10 5.57 0 0 0-10 5.57 10 5.57 0 0 0 10 5.57 10 5.57 0 0 0 10-5.57 10 5.57 0 0 0-10-5.57zm38 0a10 5.57 0 0 0-10 5.57 10 5.57 0 0 0 10 5.57 10 5.57 0 0 0 10-5.57 10 5.57 0 0 0-10-5.57zm76 0a10 5.57 0 0 0-10 5.57 10 5.57 0 0 0 10 5.57 10 5.57 0 0 0 10-5.57 10 5.57 0 0 0-10-5.57zm38 0a10 5.57 0 0 0-10 5.57 10 5.57 0 0 0 10 5.57 10 5.57 0 0 0 10-5.57 10 5.57 0 0 0-10-5.57zm76 0a10 5.57 0 0 0-10 5.57 10 5.57 0 0 0 10 5.57 10 5.57 0 0 0 10-5.57 10 5.57 0 0 0-10-5.57zm38 0a10 5.57 0 0 0-10 5.57 10 5.57 0 0 0 10 5.57 10 5.57 0 0 0 10-5.57 10 5.57 0 0 0-10-5.57z" paint-order="markers fill stroke"/></defs><defs><linearGradient id="d"><stop offset="0" stop-color="#dad886"/><stop offset="1" stop-color="#fcfc23" stop-opacity=".02"/></linearGradient><linearGradient id="e"><stop offset="0" stop-color="#3c0e06"/><stop offset="1" stop-color="#541409"/></linearGradient><linearGradient id="c"><stop offset="0" stop-color="#53a76a"/><stop offset="1" stop-color="#3ac05f" stop-opacity=".01"/></linearGradient><linearGradient id="b"><stop offset="0" stop-color="#53a76a"/><stop offset="1" stop-color="#3ac05f" stop-opacity=".01"/></linearGradient><linearGradient xlink:href="#a" id="g" x1="216.13" x2="324" y1="138.21" y2="138.21" gradientTransform="translate(112.65 -9.72)" gradientUnits="userSpaceOnUse"/><linearGradient xlink:href="#b" id="m" x1="114.52" x2="208.47" y1="148.85" y2="148.85" gradientTransform="translate(-330.65 31.06)" gradientUnits="userSpaceOnUse"/><linearGradient xlink:href="#c" id="l" x1="114.52" x2="208.47" y1="148.85" y2="148.85" gradientTransform="translate(-330.65 -8.35)" gradientUnits="userSpaceOnUse"/><linearGradient xlink:href="#d" id="i" x1="114.52" x2="208.47" y1="148.85" y2="148.85" gradientTransform="matrix(0 1 1 0 -119.85 -100.52)" gradientUnits="userSpaceOnUse"/><linearGradient xlink:href="#e" id="h" x1="0" x2="0" y1="0" y2="164.2" gradientUnits="userSpaceOnUse"/><radialGradient id="f" cx="24.2" cy="24.3" r="14.76" fx="24.2" fy="24.3" gradientTransform="matrix(5.8238 0 0 4.8857 21.33 -2.14)" gradientUnits="userSpaceOnUse"><stop offset="0" stop-color="#6dda8b"/><stop offset="1" stop-color="#4fa066"/></radialGradient><radialGradient id="a" cx="90.14" cy="64.76" r="91.59" fx="90.14" fy="64.76" gradientTransform="matrix(1.8 0 0 1.304 0 32.12)" gradientUnits="userSpaceOnUse"><stop offset="0" stop-color="#7da9a1"/><stop offset="1" stop-color="#424d56"/></radialGradient><radialGradient xlink:href="#f" id="k" cx="24.2" cy="24.3" r="14.76" fx="24.2" fy="24.3" gradientTransform="matrix(5.8238 0 0 4.8857 21.33 19.86)" gradientUnits="userSpaceOnUse"/><filter id="j" color-interpolation-filters="sRGB"><feGaussianBlur result="result3" stdDeviation="5"/><feColorMatrix result="result7" values="1 0 0 0 0 0 1 0 0 0 0 0 1 0 0 0 0 0 50 0"/><feComposite in2="SourceGraphic" operator="in" result="result9"/><feComposite in="result9" in2="result7" k1=".5" k3=".5" operator="arithmetic" result="result1"/><feBlend in="SourceGraphic" in2="result1" mode="screen" result="result5"/><feBlend in="result5" in2="result5" mode="darken" result="result6"/><feComposite in2="SourceGraphic" operator="in" result="result8"/></filter><filter id="o" width="1.09" height="3.4" x="-.05" y="-1.2" color-interpolation-filters="sRGB"><feGaussianBlur stdDeviation="5.57"/></filter></defs><path fill="url(#g)" d="M112.65 154.48v69.8h324v-69.8H362.4z" transform="matrix(-1 0 0 1 436.65 9.72)"/><path fill="url(#h)" d="M0 0v164.2h324V0H0z"/><rect width="157.62" height="25.24" x="-233.62" y="198.12" fill="#527c74" fill-rule="evenodd" paint-order="markers fill stroke" rx="29411.12" transform="scale(-1 1)"/><path fill="url(#i)" fill-rule="evenodd" d="M29 14a10.76 10.76 0 0 0-10.78 10.78v72.38c0 5.98 4.8 10.79 10.78 10.79 5.97 0 10.78-4.81 10.78-10.79V24.78C39.78 18.81 34.98 14 29 14zm38 0a10.76 10.76 0 0 0-10.78 10.78v72.38c0 5.98 4.8 10.79 10.78 10.79 5.97 0 10.78-4.81 10.78-10.79V24.78C77.78 18.81 72.98 14 67 14zm76 0a10.76 10.76 0 0 0-10.78 10.78v72.38c0 5.98 4.8 10.79 10.78 10.79 5.97 0 10.78-4.81 10.78-10.79V24.78c0-5.97-4.8-10.78-10.78-10.78zm38 0a10.76 10.76 0 0 0-10.78 10.78v72.38c0 5.98 4.8 10.79 10.78 10.79 5.97 0 10.78-4.81 10.78-10.79V24.78c0-5.97-4.8-10.78-10.78-10.78zm76 0a10.76 10.76 0 0 0-10.78 10.78v72.38c0 5.98 4.8 10.79 10.78 10.79 5.97 0 10.78-4.81 10.78-10.79V24.78c0-5.97-4.8-10.78-10.78-10.78zm38 0a10.76 10.76 0 0 0-10.78 10.78v72.38c0 5.98 4.8 10.79 10.78 10.79 5.97 0 10.78-4.81 10.78-10.79V24.78c0-5.97-4.8-10.78-10.78-10.78z" paint-order="markers fill stroke"/><path fill="#deed79" fill-opacity=".85" d="m324 103.23-107.87 49.32v16.06l33.61 15.37L324 217.93v-33.95z" filter="url(#j)"/><path fill="url(#k)" d="M119.26 66.45c-23.74 0-42.99 16.14-42.99 36.06.02 9.95 4.94 19.45 13.6 26.26-.44.98-.7 2.05-.7 3.2V153c-4.75 0-8.6 3.22-8.6 7.2 0 4 3.85 7.22 8.6 7.22v21.03a7.85 7.85 0 0 0 7.91 7.82h28.7l-9.89 8.96c-2.68 2.43.67 5.47 6.03 5.47h63.45c3.93 0 7.09-1.7 6.97-3.75a2.56 2.56 0 0 0-.94-1.72l-9.88-8.96h28.7a7.86 7.86 0 0 0 7.9-7.82v-19.32l6.43 3.32 17.15 8.87c2.9 1.5 6.52-.37 6.52-3.37v-35.49c0-2.19-2.03-3.95-4.47-3.89-.72.02-1.42.2-2.04.52l-17.16 8.87-6.42 3.33v-19.32a7.7 7.7 0 0 0-.7-3.18c8.67-6.81 13.59-16.33 13.6-26.28 0-19.92-19.25-36.06-43-36.06-13.53.01-26.27 5.38-34.37 14.48-8.1-9.1-20.86-14.47-34.4-14.48zm0 18.03c11.82 0 21.49 8.11 21.49 18.03 0 9.92-9.67 18.03-21.5 18.03-11.81 0-21.48-8.11-21.48-18.03 0-9.92 9.67-18.03 21.49-18.03zm68.78 0c11.82 0 21.5 8.11 21.5 18.03 0 9.92-9.68 18.03-21.5 18.03-11.83 0-21.5-8.11-21.5-18.03 0-9.92 9.67-18.03 21.5-18.03zm-68.78 7.2c-7.18 0-12.9 4.8-12.9 10.83 0 6.02 5.72 10.81 12.9 10.81 7.17 0 12.9-4.8 12.9-10.81 0-6.02-5.73-10.82-12.9-10.82zm68.78 0c-7.18 0-12.9 4.8-12.9 10.83 0 6.02 5.72 10.81 12.9 10.81 7.17 0 12.9-4.8 12.9-10.81 0-6.02-5.73-10.82-12.9-10.82z"/><rect width="93.95" height="21.57" x="-216.13" y="129.72" fill="url(#l)" fill-rule="evenodd" paint-order="markers fill stroke" ry="10.78" transform="scale(-1 1)"/><rect width="9.3" height="52.78" x="155.78" y="-135.61" fill="#468c5c" fill-rule="evenodd" paint-order="markers fill stroke" ry="6" transform="rotate(90)"/><rect width="93.95" height="21.57" x="-216.13" y="169.13" fill="url(#m)" fill-rule="evenodd" paint-order="markers fill stroke" ry="10.78" transform="scale(-1 1)"/><use xlink:href="#n" fill-rule="evenodd" paint-order="markers fill stroke"/><use xlink:href="#n" fill-rule="evenodd" filter="url(#o)" paint-order="markers fill stroke"/></svg>