<svg xmlns="http://www.w3.org/2000/svg" xmlns:xlink="http://www.w3.org/1999/xlink" width="324" height="234" viewBox="0 0 85.73 61.91"><defs><linearGradient id="f"><stop offset="0" stop-color="#fff"/><stop offset="1" stop-color="#fff" stop-opacity="0"/></linearGradient><linearGradient id="e"><stop offset="0" stop-color="#2ad4ff"/><stop offset="1" stop-color="#0fc"/></linearGradient><linearGradient id="d"><stop offset="0" stop-color="#0f6"/><stop offset="1" stop-color="#fff"/></linearGradient><linearGradient id="a"><stop offset="0" stop-color="#71afd3"/><stop offset="1" stop-color="#2c7dbd"/></linearGradient><linearGradient id="c"><stop offset="0" stop-color="#f9f9f9"/><stop offset="1" stop-color="#f9f9f9" stop-opacity="0"/></linearGradient><linearGradient xlink:href="#b" id="j" x1="-139.64" x2="-139.64" y1="16.19" y2="-135.55" gradientTransform="translate(258.43 134.5) scale(.5652)" gradientUnits="userSpaceOnUse"/><linearGradient id="b"><stop offset="0" stop-color="#f06"/><stop offset="1" stop-color="#fd5"/></linearGradient><linearGradient xlink:href="#d" id="i" x1="386.35" x2="105.82" y1="430.36" y2="162.94" gradientUnits="userSpaceOnUse"/><linearGradient xlink:href="#e" id="h" x1="0" x2="288.67" y1="-67.77" y2="102.65" gradientUnits="userSpaceOnUse"/><linearGradient xlink:href="#f" id="g" x1="26.4" x2="285.67" y1="107.75" y2="137.92" gradientUnits="userSpaceOnUse"/></defs><g paint-order="markers fill stroke"><path fill="#c9ffe1" d="M0 0h85.72v61.91H0z"/><path fill="url(#g)" d="M0 0h324v167.35c-126.66 16.33-218.88-106.9-324 0Z" transform="matrix(.2646 0 0 .2646 0 0)"/><path fill="#2ad4ff" fill-opacity=".37" d="M85.73 0H0v18.17c31.22-19.26 42.62 49.94 85.73 26.1Z"/><path fill="url(#h)" d="M0 0h324v68.68c-117.98-72.81-161.08 90.07-324 0Z" transform="matrix(.2646 0 0 .2646 0 0)"/><path fill="#fff" d="M0 24.01c24.61 24.12 36.43 6.12 55.12.52 8.87-2.66 19.4-3.22 30.6-.52v13.9C53.43 12.16 35.1 54.2 0 37.9z"/><path fill="url(#i)" d="M0 234h324v-56.9C202.24 276.32 162.92 99.3 0 189.36Z" transform="matrix(.2646 0 0 .2646 0 0)"/></g><g transform="matrix(.36 0 0 .3616 -15.46 -11.35)"><circle cx="162" cy="117" r="54.68" fill="#f9f9f9" paint-order="markers fill stroke"/><circle cx="162.55" cy="120.78" r="10.32" stroke="#fff" stroke-linecap="round" stroke-linejoin="round" stroke-width="6.01" paint-order="markers fill stroke"/><circle cx="162" cy="117" r="49.03" fill="url(#j)" paint-order="markers fill stroke"/><path fill="#782144" d="M133.62 99.47c-.82 0-1.5.26-2.01.78-.52.5-.78 1.15-.78 1.97 0 .82.26 1.5.78 2.01.52.52 1.19.78 2 .78h.17c3.1 0 3.54 1.7 3.33 3.03-.25 1.08-1.22 1.8-2.4 1.8h-4.36c-2.96 0-5.44 1-7.43 3.03a10.16 10.16 0 0 0-3.04 7.48c0 2.95 1 5.44 3.04 7.47 2 2 4.47 3 7.43 3 2.95 0 5.44-1 7.47-3a10.16 10.16 0 0 0 3.04-7.47c0-.82-.26-1.5-.78-2.02a2.72 2.72 0 0 0-2.01-.78c-.82 0-1.48.26-1.97.78a2.72 2.72 0 0 0-.78 2.02 4.89 4.89 0 0 1-4.97 4.93 4.75 4.75 0 0 1-3.5-1.44 4.75 4.75 0 0 1-1.43-3.5c0-1.36.48-2.53 1.44-3.48a4.69 4.69 0 0 1 3.49-1.48h9.54c.82 0 1.5-.25 2.02-.74.43-.46.66-1.05.71-1.74h.03v-4.56c0-2.5-.85-4.59-2.54-6.28a8.6 8.6 0 0 0-6.33-2.6zm67.1 2.6c-.94 0-1.74.34-2.43 1.02a3.25 3.25 0 0 0-.98 2.38 3.38 3.38 0 0 0 5.79 2.43 3.31 3.31 0 0 0 0-4.8 3.18 3.18 0 0 0-2.39-1.03zm-23.18.37a2.67 2.67 0 0 0-2.75 2.75v16.1c0 2.92 1.01 5.4 3.04 7.42a10.1 10.1 0 0 0 7.43 3.04c2.93 0 5.4-1.01 7.43-3.04a10.04 10.04 0 0 0 3.08-7.43c0-2.95-1.01-5.45-3.04-7.47a10.16 10.16 0 0 0-7.47-3.04c-.82 0-1.5.26-2.01.78a2.8 2.8 0 0 0-.74 2.01c0 .82.24 1.5.74 2.01.52.5 1.19.74 2 .74 1.38 0 2.54.5 3.5 1.48a4.69 4.69 0 0 1 1.48 3.5c0 1.36-.5 2.52-1.48 3.48a4.75 4.75 0 0 1-3.5 1.44 4.75 4.75 0 0 1-3.48-1.44 4.75 4.75 0 0 1-1.44-3.49v-16.1c0-.81-.26-1.47-.78-1.96a2.72 2.72 0 0 0-2.01-.78zm-25.32 8.41a8.67 8.67 0 0 0-8.87 8.83v5.7c0 .82.26 1.5.78 2.01.52.5 1.2.74 2.01.74.82 0 1.48-.24 1.97-.74.52-.52.78-1.19.78-2v-5.7c0-.94.32-1.72.95-2.35a3.32 3.32 0 0 1 2.38-.94c.9 0 1.68.32 2.34.98.66.63.99 1.4.99 2.3V129c0 .82.24 1.5.74 2.01.52.5 1.19.74 2 .74.83 0 1.5-.24 2.02-.74.52-.52.78-1.19.78-2v-11.34a3.16 3.16 0 0 1 2.63-1.27c.9 0 1.67.32 2.3.98.65.63.98 1.4.98 2.3v12.24c0 2.49.85 4.58 2.55 6.28a8.6 8.6 0 0 0 6.32 2.59h.16c.83 0 1.5-.26 2.02-.78.52-.5.78-1.15.78-1.98 0-.82-.26-1.49-.78-2a2.73 2.73 0 0 0-2.02-.79h-.16c-.93 0-1.72-.33-2.38-.98a3.18 3.18 0 0 1-.95-2.34v-12.24c0-2.49-.84-4.58-2.54-6.28a8.53 8.53 0 0 0-6.28-2.55c-2.2 0-4.1.7-5.75 2.1a8.7 8.7 0 0 0-5.75-2.1zm48.5 0c-.83 0-1.5.26-2.02.78-.49.5-.74 1.15-.74 1.97V129c0 .82.25 1.5.74 2.01.52.5 1.2.74 2.01.74.83 0 1.5-.24 2.02-.74.52-.52.78-1.19.78-2v-15.4c0-1.84-.93-2.76-2.8-2.76z" font-family="Alba" font-size="22.26" font-weight="400" letter-spacing="0" style="line-height:1.25;-inkscape-font-specification:&quot;Alba, Normal&quot;;font-variant-ligatures:normal;font-variant-caps:normal;font-variant-numeric:normal;font-variant-east-asian:normal" word-spacing="0"/><path fill="#f9f9f9" d="M133.62 99.07c-.82 0-1.5.26-2.01.78-.52.49-.78 1.15-.78 1.97 0 .82.26 1.49.78 2.01.52.52 1.19.78 2 .78h.17c3.1 0 3.54 1.7 3.33 3.03-.25 1.07-1.22 1.8-2.4 1.8h-4.36c-2.96 0-5.44 1-7.43 3.03a10.16 10.16 0 0 0-3.04 7.47c0 2.96 1 5.45 3.04 7.48 2 2 4.47 3 7.43 3 2.95 0 5.44-1 7.47-3a10.16 10.16 0 0 0 3.04-7.48c0-.82-.26-1.49-.78-2a2.72 2.72 0 0 0-2.01-.79c-.82 0-1.48.26-1.97.78a2.72 2.72 0 0 0-.78 2.01 4.89 4.89 0 0 1-4.97 4.93 4.75 4.75 0 0 1-3.5-1.43 4.75 4.75 0 0 1-1.43-3.5c0-1.36.48-2.53 1.44-3.49a4.69 4.69 0 0 1 3.49-1.47h9.54c.82 0 1.5-.25 2.02-.74.43-.46.66-1.05.71-1.74h.03v-4.56c0-2.5-.85-4.59-2.54-6.29a8.6 8.6 0 0 0-6.33-2.58zm67.1 2.6c-.94 0-1.74.34-2.43 1.02a3.25 3.25 0 0 0-.98 2.38 3.38 3.38 0 0 0 5.79 2.42 3.31 3.31 0 0 0 0-4.8 3.18 3.18 0 0 0-2.39-1.02zm-23.18.36a2.67 2.67 0 0 0-2.75 2.76v16.1c0 2.92 1.01 5.4 3.04 7.42a10.1 10.1 0 0 0 7.43 3.04c2.93 0 5.4-1.01 7.43-3.04a10.04 10.04 0 0 0 3.08-7.43c0-2.96-1.01-5.45-3.04-7.47a10.16 10.16 0 0 0-7.47-3.04c-.82 0-1.5.26-2.01.78a2.8 2.8 0 0 0-.74 2.01c0 .82.24 1.5.74 2.01.52.5 1.19.74 2 .74 1.38 0 2.54.5 3.5 1.48a4.69 4.69 0 0 1 1.48 3.5c0 1.36-.5 2.52-1.48 3.48a4.75 4.75 0 0 1-3.5 1.44 4.75 4.75 0 0 1-3.48-1.44 4.75 4.75 0 0 1-1.44-3.49v-16.1c0-.82-.26-1.47-.78-1.97a2.72 2.72 0 0 0-2.01-.78zm-25.32 8.42a8.67 8.67 0 0 0-8.87 8.83v5.7c0 .82.26 1.5.78 2.01.52.5 1.2.74 2.01.74.82 0 1.48-.25 1.97-.74.52-.52.78-1.19.78-2.01v-5.7c0-.93.32-1.71.95-2.34a3.32 3.32 0 0 1 2.38-.95c.9 0 1.68.33 2.34.99.66.63.99 1.4.99 2.3v9.32c0 .82.24 1.5.74 2.01.52.5 1.19.74 2 .74.83 0 1.5-.25 2.02-.74.52-.52.78-1.19.78-2.01v-11.33a3.16 3.16 0 0 1 2.63-1.28c.9 0 1.67.33 2.3.99.65.63.98 1.4.98 2.3v12.24c0 2.49.85 4.58 2.55 6.28a8.6 8.6 0 0 0 6.32 2.58h.16c.83 0 1.5-.26 2.02-.78.52-.49.78-1.15.78-1.97 0-.82-.26-1.49-.78-2a2.73 2.73 0 0 0-2.02-.79h-.16c-.93 0-1.72-.33-2.38-.98a3.18 3.18 0 0 1-.95-2.34v-12.24c0-2.5-.84-4.59-2.54-6.28a8.53 8.53 0 0 0-6.28-2.55c-2.2 0-4.1.7-5.75 2.1a8.7 8.7 0 0 0-5.75-2.1zm48.5 0c-.83 0-1.5.26-2.02.78-.49.5-.74 1.15-.74 1.97v15.4c0 .82.25 1.5.74 2.01.52.5 1.2.74 2.01.74.83 0 1.5-.25 2.02-.74.52-.52.78-1.19.78-2.01v-15.4c0-1.83-.93-2.75-2.8-2.75z" font-family="Alba" font-size="22.26" font-weight="400" letter-spacing="0" style="line-height:1.25;-inkscape-font-specification:&quot;Alba, Normal&quot;;font-variant-ligatures:normal;font-variant-caps:normal;font-variant-numeric:normal;font-variant-east-asian:normal" word-spacing="0"/></g></svg>