<?xml version="1.0" encoding="UTF-8" standalone="no"?>
<svg
   xmlns:dc="http://purl.org/dc/elements/1.1/"
   xmlns:cc="http://creativecommons.org/ns#"
   xmlns:rdf="http://www.w3.org/1999/02/22-rdf-syntax-ns#"
   xmlns:svg="http://www.w3.org/2000/svg"
   xmlns="http://www.w3.org/2000/svg"
   xmlns:xlink="http://www.w3.org/1999/xlink"
   xmlns:sodipodi="http://sodipodi.sourceforge.net/DTD/sodipodi-0.dtd"
   xmlns:inkscape="http://www.inkscape.org/namespaces/inkscape"
   sodipodi:docname="ambi-tuner.svg"
   inkscape:version="1.0.2 (e86c870879, 2021-01-15)"
   id="svg2606"
   version="1.1"
   viewBox="0 0 85.725006 61.912502"
   height="61.912502mm"
   width="85.725006mm">
  <defs
     id="defs2600">
    <linearGradient
       id="linearGradient3728"
       inkscape:collect="always">
      <stop
         id="stop3724"
         offset="0"
         style="stop-color:#ffffff;stop-opacity:1;" />
      <stop
         id="stop3726"
         offset="1"
         style="stop-color:#ffffff;stop-opacity:0;" />
    </linearGradient>
    <linearGradient
       id="linearGradient3683"
       inkscape:collect="always">
      <stop
         id="stop3679"
         offset="0"
         style="stop-color:#2ad4ff;stop-opacity:1" />
      <stop
         id="stop3681"
         offset="1"
         style="stop-color:#00ffcc;stop-opacity:1" />
    </linearGradient>
    <linearGradient
       id="linearGradient3663"
       inkscape:collect="always">
      <stop
         id="stop3659"
         offset="0"
         style="stop-color:#00ff66;stop-opacity:1" />
      <stop
         id="stop3661"
         offset="1"
         style="stop-color:#ffffff;stop-opacity:1" />
    </linearGradient>
    <inkscape:path-effect
       lpeversion="0"
       only_selected="false"
       apply_with_weight="true"
       apply_no_weight="true"
       helper_size="0"
       steps="2"
       weight="33.333333"
       is_visible="true"
       id="path-effect1184"
       effect="bspline" />
    <radialGradient
       id="radialGradient1158"
       cx="-7918.9229"
       cy="-8503.8613"
       r="80.685997"
       gradientTransform="translate(7978.7,8523.9959)"
       gradientUnits="userSpaceOnUse">
      <stop
         style="stop-color:#a09600;stop-opacity:1"
         offset=".094"
         stop-color="#fff44f"
         id="stop1150" />
      <stop
         offset=".231"
         stop-color="#ffe141"
         id="stop1152" />
      <stop
         offset=".509"
         stop-color="#ffaf1e"
         id="stop1154" />
      <stop
         offset=".626"
         stop-color="#ff980e"
         id="stop1156" />
    </radialGradient>
    <radialGradient
       id="radialGradient1148"
       cx="-7945.6479"
       cy="-8460.9844"
       r="38.471001"
       gradientTransform="translate(7978.7,8523.9959)"
       gradientUnits="userSpaceOnUse">
      <stop
         style="stop-opacity:0;stop-color:#5ab500"
         offset="1"
         stop-color="#c139e6"
         id="stop1146" />
    </radialGradient>
    <inkscape:path-effect
       lpeversion="0"
       only_selected="false"
       apply_with_weight="true"
       apply_no_weight="true"
       helper_size="0"
       steps="2"
       weight="33.333333"
       is_visible="true"
       id="path-effect1078"
       effect="bspline" />
    <inkscape:path-effect
       lpeversion="0"
       only_selected="false"
       apply_with_weight="true"
       apply_no_weight="true"
       helper_size="0"
       steps="2"
       weight="33.333333"
       is_visible="true"
       id="path-effect1074"
       effect="bspline" />
    <inkscape:path-effect
       lpeversion="0"
       only_selected="false"
       apply_with_weight="true"
       apply_no_weight="true"
       helper_size="0"
       steps="2"
       weight="33.333333"
       is_visible="true"
       id="path-effect1075"
       effect="bspline" />
    <linearGradient
       inkscape:collect="always"
       id="linearGradient991">
      <stop
         style="stop-color:#71afd3;stop-opacity:1"
         offset="0"
         id="stop987" />
      <stop
         style="stop-color:#2c7dbd;stop-opacity:1"
         offset="1"
         id="stop989" />
    </linearGradient>
    <radialGradient
       gradientUnits="userSpaceOnUse"
       gradientTransform="matrix(0.60628339,-0.11601688,0.12271796,0.64130204,-1.0482536,-152.24847)"
       r="90.402763"
       fy="529.35193"
       fx="-178.41632"
       cy="529.35193"
       cx="-178.41632"
       id="radialGradient985"
       xlink:href="#linearGradient991"
       inkscape:collect="always" />
    <linearGradient
       gradientTransform="translate(3.7,-0.0040855)"
       gradientUnits="userSpaceOnUse"
       y2="74.468002"
       x2="6.447"
       y1="12.393"
       x1="70.786003"
       id="a">
      <stop
         id="stop834"
         stop-color="#fff44f"
         offset=".048" />
      <stop
         id="stop836"
         stop-color="#ffe847"
         offset=".111" />
      <stop
         id="stop838"
         stop-color="#ffc830"
         offset=".225" />
      <stop
         id="stop840"
         stop-color="#ff980e"
         offset=".368" />
      <stop
         id="stop842"
         stop-color="#ff8b16"
         offset=".401" />
      <stop
         id="stop844"
         stop-color="#ff672a"
         offset=".462" />
      <stop
         id="stop846"
         stop-color="#ff3647"
         offset=".534" />
      <stop
         id="stop848"
         stop-color="#e31587"
         offset=".705" />
    </linearGradient>
    <radialGradient
       gradientUnits="userSpaceOnUse"
       gradientTransform="translate(7978.7,8523.9959)"
       r="80.796997"
       cy="-8515.1211"
       cx="-7907.187"
       id="b">
      <stop
         id="stop851"
         stop-color="#ffbd4f"
         offset=".129" />
      <stop
         id="stop853"
         stop-color="#ffac31"
         offset=".186" />
      <stop
         id="stop855"
         stop-color="#ff9d17"
         offset=".247" />
      <stop
         id="stop857"
         stop-color="#ff980e"
         offset=".283" />
      <stop
         id="stop859"
         stop-color="#ff563b"
         offset=".403" />
      <stop
         id="stop861"
         stop-color="#ff3750"
         offset=".467" />
      <stop
         id="stop863"
         stop-color="#f5156c"
         offset=".71" />
      <stop
         id="stop865"
         stop-color="#eb0878"
         offset=".782" />
      <stop
         id="stop867"
         stop-color="#e50080"
         offset=".86" />
    </radialGradient>
    <radialGradient
       gradientUnits="userSpaceOnUse"
       gradientTransform="translate(7978.7,8523.9959)"
       r="80.796997"
       cy="-8482.0889"
       cx="-7936.7109"
       id="c">
      <stop
         id="stop870"
         stop-color="#960e18"
         offset=".3" />
      <stop
         id="stop872"
         stop-opacity=".74"
         stop-color="#b11927"
         offset=".351" />
      <stop
         id="stop874"
         stop-opacity=".343"
         stop-color="#db293d"
         offset=".435" />
      <stop
         id="stop876"
         stop-opacity=".094"
         stop-color="#f5334b"
         offset=".497" />
      <stop
         id="stop878"
         stop-opacity="0"
         stop-color="#ff3750"
         offset=".53" />
    </radialGradient>
    <radialGradient
       gradientUnits="userSpaceOnUse"
       gradientTransform="translate(7978.7,8523.9959)"
       r="58.534"
       cy="-8533.457"
       cx="-7926.9702"
       id="d">
      <stop
         id="stop881"
         stop-color="#fff44f"
         offset=".132" />
      <stop
         id="stop883"
         stop-color="#ffdc3e"
         offset=".252" />
      <stop
         id="stop885"
         stop-color="#ff9d12"
         offset=".506" />
      <stop
         id="stop887"
         stop-color="#ff980e"
         offset=".526" />
    </radialGradient>
    <radialGradient
       gradientUnits="userSpaceOnUse"
       gradientTransform="translate(7978.7,8523.9959)"
       r="38.471001"
       cy="-8460.9844"
       cx="-7945.6479"
       id="e">
      <stop
         id="stop890"
         stop-color="#3a8ee6"
         offset=".353" />
      <stop
         id="stop892"
         stop-color="#5c79f0"
         offset=".472" />
      <stop
         id="stop894"
         stop-color="#9059ff"
         offset=".669" />
      <stop
         id="stop896"
         stop-color="#c139e6"
         offset="1" />
    </radialGradient>
    <radialGradient
       gradientUnits="userSpaceOnUse"
       gradientTransform="matrix(0.972,-0.235,0.275,1.138,10095.002,7833.7939)"
       r="20.396999"
       cy="-8491.5459"
       cx="-7935.6201"
       id="f">
      <stop
         id="stop899"
         stop-opacity="0"
         stop-color="#9059ff"
         offset=".206" />
      <stop
         id="stop901"
         stop-opacity=".064"
         stop-color="#8c4ff3"
         offset=".278" />
      <stop
         id="stop903"
         stop-opacity=".45"
         stop-color="#7716a8"
         offset=".747" />
      <stop
         id="stop905"
         stop-opacity=".6"
         stop-color="#6e008b"
         offset=".975" />
    </radialGradient>
    <radialGradient
       gradientUnits="userSpaceOnUse"
       gradientTransform="translate(7978.7,8523.9959)"
       r="27.676001"
       cy="-8518.4268"
       cx="-7937.731"
       id="g">
      <stop
         id="stop908"
         stop-color="#ffe226"
         offset="0" />
      <stop
         id="stop910"
         stop-color="#ffdb27"
         offset=".121" />
      <stop
         id="stop912"
         stop-color="#ffc82a"
         offset=".295" />
      <stop
         id="stop914"
         stop-color="#ffa930"
         offset=".502" />
      <stop
         id="stop916"
         stop-color="#ff7e37"
         offset=".732" />
      <stop
         id="stop918"
         stop-color="#ff7139"
         offset=".792" />
    </radialGradient>
    <radialGradient
       gradientUnits="userSpaceOnUse"
       gradientTransform="translate(7978.7,8523.9959)"
       r="118.081"
       cy="-8535.9814"
       cx="-7915.9771"
       id="h">
      <stop
         id="stop921"
         stop-color="#fff44f"
         offset=".113" />
      <stop
         id="stop923"
         stop-color="#ff980e"
         offset=".456" />
      <stop
         id="stop925"
         stop-color="#ff5634"
         offset=".622" />
      <stop
         id="stop927"
         stop-color="#ff3647"
         offset=".716" />
      <stop
         id="stop929"
         stop-color="#e31587"
         offset=".904" />
    </radialGradient>
    <radialGradient
       gradientUnits="userSpaceOnUse"
       gradientTransform="matrix(0.105,0.995,-0.653,0.069,-4680.304,8470.1869)"
       r="86.499001"
       cy="-8522.8594"
       cx="-7927.165"
       id="i">
      <stop
         id="stop932"
         stop-color="#fff44f"
         offset="0" />
      <stop
         id="stop934"
         stop-color="#ffe847"
         offset=".06" />
      <stop
         id="stop936"
         stop-color="#ffc830"
         offset=".168" />
      <stop
         id="stop938"
         stop-color="#ff980e"
         offset=".304" />
      <stop
         id="stop940"
         stop-color="#ff8b16"
         offset=".356" />
      <stop
         id="stop942"
         stop-color="#ff672a"
         offset=".455" />
      <stop
         id="stop944"
         stop-color="#ff3647"
         offset=".57" />
      <stop
         id="stop946"
         stop-color="#e31587"
         offset=".737" />
    </radialGradient>
    <radialGradient
       gradientUnits="userSpaceOnUse"
       gradientTransform="translate(7978.7,8523.9959)"
       r="73.720001"
       cy="-8508.1758"
       cx="-7938.3828"
       id="j">
      <stop
         id="stop949"
         stop-color="#fff44f"
         offset=".137" />
      <stop
         id="stop951"
         stop-color="#ff980e"
         offset=".48" />
      <stop
         id="stop953"
         stop-color="#ff5634"
         offset=".592" />
      <stop
         id="stop955"
         stop-color="#ff3647"
         offset=".655" />
      <stop
         id="stop957"
         stop-color="#e31587"
         offset=".904" />
    </radialGradient>
    <radialGradient
       gradientUnits="userSpaceOnUse"
       gradientTransform="translate(7978.7,8523.9959)"
       r="80.685997"
       cy="-8503.8613"
       cx="-7918.9229"
       id="k">
      <stop
         id="stop960"
         stop-color="#fff44f"
         offset=".094" />
      <stop
         id="stop962"
         stop-color="#ffe141"
         offset=".231" />
      <stop
         id="stop964"
         stop-color="#ffaf1e"
         offset=".509" />
      <stop
         id="stop966"
         stop-color="#ff980e"
         offset=".626" />
    </radialGradient>
    <linearGradient
       gradientTransform="translate(3.7,-0.0040855)"
       gradientUnits="userSpaceOnUse"
       y2="66.806"
       x2="15.267"
       y1="12.061"
       x1="70.013"
       id="l">
      <stop
         id="stop969"
         stop-opacity=".8"
         stop-color="#fff44f"
         offset=".167" />
      <stop
         id="stop971"
         stop-opacity=".634"
         stop-color="#fff44f"
         offset=".266" />
      <stop
         id="stop973"
         stop-opacity=".217"
         stop-color="#fff44f"
         offset=".489" />
      <stop
         id="stop975"
         stop-opacity="0"
         stop-color="#fff44f"
         offset=".6" />
    </linearGradient>
    <linearGradient
       y2="62.785999"
       y1="20.542999"
       x2="7.7420001"
       x1="74.803001"
       gradientUnits="userSpaceOnUse"
       id="a-2">
      <stop
         id="stop2"
         stop-color="#3fe1b0"
         offset="0" />
      <stop
         id="stop4"
         stop-color="#00b3f4"
         offset=".406" />
      <stop
         id="stop6"
         stop-color="#03b0f4"
         offset=".421" />
      <stop
         id="stop8"
         stop-color="#5561e9"
         offset=".818" />
      <stop
         id="stop10"
         stop-color="#7542e5"
         offset="1" />
    </linearGradient>
    <radialGradient
       r="80.796997"
       gradientUnits="userSpaceOnUse"
       cy="8.8789997"
       cx="67.813004"
       id="b-9">
      <stop
         id="stop13"
         stop-color="#3fe1b0"
         offset=".108" />
      <stop
         id="stop15"
         stop-color="#3bdcb3"
         offset=".122" />
      <stop
         id="stop17"
         stop-color="#1bb3d3"
         offset=".254" />
      <stop
         id="stop19"
         stop-color="#0799e6"
         offset=".358" />
      <stop
         id="stop21"
         stop-color="#0090ed"
         offset=".42" />
      <stop
         id="stop23"
         stop-color="#2482f1"
         offset=".487" />
      <stop
         id="stop25"
         stop-color="#7165fb"
         offset=".64" />
      <stop
         id="stop27"
         stop-color="#9059ff"
         offset=".71" />
      <stop
         id="stop29"
         stop-color="#7d49ed"
         offset=".795" />
      <stop
         id="stop31"
         stop-color="#7542e5"
         offset=".86" />
    </radialGradient>
    <radialGradient
       r="80.796997"
       gradientUnits="userSpaceOnUse"
       cy="41.910999"
       cx="38.289001"
       id="c-3">
      <stop
         id="stop34"
         stop-color="#45278d"
         offset=".3" />
      <stop
         id="stop36"
         stop-opacity=".787"
         stop-color="#562896"
         offset=".341" />
      <stop
         id="stop38"
         stop-opacity=".364"
         stop-color="#782aa9"
         offset=".43" />
      <stop
         id="stop40"
         stop-opacity=".1"
         stop-color="#8d2bb5"
         offset=".495" />
      <stop
         id="stop42"
         stop-opacity="0"
         stop-color="#952bb9"
         offset=".53" />
    </radialGradient>
    <radialGradient
       r="58.534"
       gradientUnits="userSpaceOnUse"
       cy="-9.4569998"
       cx="48.029999"
       id="d-1">
      <stop
         id="stop45"
         stop-color="#3fe1b0"
         offset=".132" />
      <stop
         id="stop47"
         stop-color="#28d0c8"
         offset=".289" />
      <stop
         id="stop49"
         stop-color="#00b3f4"
         offset=".526" />
    </radialGradient>
    <radialGradient
       r="38.471001"
       gradientUnits="userSpaceOnUse"
       cy="63.015999"
       cx="29.351999"
       id="e-9">
      <stop
         id="stop52"
         stop-color="#0060df"
         offset=".287" />
      <stop
         id="stop54"
         stop-color="#2357e1"
         offset=".417" />
      <stop
         id="stop56"
         stop-color="#4f4ce3"
         offset=".604" />
      <stop
         id="stop58"
         stop-color="#6b45e4"
         offset=".748" />
      <stop
         id="stop60"
         stop-color="#7542e5"
         offset=".833" />
    </radialGradient>
    <radialGradient
       r="20.396999"
       gradientUnits="userSpaceOnUse"
       gradientTransform="matrix(0.972,-0.235,0.275,1.138,10091.302,7833.798)"
       cy="-8491.5459"
       cx="-7935.6201"
       id="f-4">
      <stop
         id="stop63"
         stop-opacity="0"
         stop-color="#45278d"
         offset=".206" />
      <stop
         id="stop65"
         stop-opacity=".055"
         stop-color="#44268a"
         offset=".251" />
      <stop
         id="stop67"
         stop-opacity=".591"
         stop-color="#371f6f"
         offset=".725" />
      <stop
         id="stop69"
         stop-opacity=".8"
         stop-color="#321c64"
         offset=".956" />
    </radialGradient>
    <radialGradient
       r="0.62599999"
       gradientUnits="userSpaceOnUse"
       cy="57.478001"
       cx="31.355"
       id="g-7">
      <stop
         id="stop72"
         stop-color="#3a8ee6"
         offset=".353" />
      <stop
         id="stop74"
         stop-color="#5c79f0"
         offset=".472" />
      <stop
         id="stop76"
         stop-color="#9059ff"
         offset=".669" />
      <stop
         id="stop78"
         stop-color="#c139e6"
         offset="1" />
    </radialGradient>
    <radialGradient
       r="0.22400001"
       gradientUnits="userSpaceOnUse"
       gradientTransform="matrix(0.972,-0.235,0.275,1.138,10084.252,7828.516)"
       cy="-8466.749"
       cx="-7943.48"
       id="h-8">
      <stop
         id="stop81"
         stop-opacity="0"
         stop-color="#9059ff"
         offset=".206" />
      <stop
         id="stop83"
         stop-opacity=".064"
         stop-color="#8c4ff3"
         offset=".278" />
      <stop
         id="stop85"
         stop-opacity=".45"
         stop-color="#7716a8"
         offset=".747" />
      <stop
         id="stop87"
         stop-opacity=".6"
         stop-color="#6e008b"
         offset=".975" />
    </radialGradient>
    <radialGradient
       r="27.676001"
       gradientUnits="userSpaceOnUse"
       cy="5.573"
       cx="37.269001"
       id="i-4">
      <stop
         id="stop90"
         stop-color="#0df"
         offset="0" />
      <stop
         id="stop92"
         stop-color="#00d6fd"
         offset=".235" />
      <stop
         id="stop94"
         stop-color="#00c3f8"
         offset=".572" />
      <stop
         id="stop96"
         stop-color="#00b3f4"
         offset=".792" />
    </radialGradient>
    <radialGradient
       r="118.081"
       gradientUnits="userSpaceOnUse"
       cy="-11.981"
       cx="59.022999"
       id="j-5">
      <stop
         id="stop99"
         stop-color="#3fe1b0"
         offset=".126" />
      <stop
         id="stop101"
         stop-color="#0df"
         offset=".429" />
      <stop
         id="stop103"
         stop-color="#1ec1ff"
         offset=".479" />
      <stop
         id="stop105"
         stop-color="#7077ff"
         offset=".624" />
      <stop
         id="stop107"
         stop-color="#9059ff"
         offset=".69" />
      <stop
         id="stop109"
         stop-color="#b833e1"
         offset=".904" />
    </radialGradient>
    <radialGradient
       r="86.499001"
       gradientUnits="userSpaceOnUse"
       gradientTransform="matrix(0.105,0.995,-0.653,0.069,-4684.004,8470.191)"
       cy="-8522.8594"
       cx="-7927.165"
       id="k-0">
      <stop
         id="stop112"
         stop-color="#54ffbd"
         offset="0" />
      <stop
         id="stop114"
         stop-color="#4cf3b8"
         offset=".095" />
      <stop
         id="stop116"
         stop-color="#3fe1b0"
         offset=".197" />
      <stop
         id="stop118"
         stop-color="#33d8bd"
         offset=".257" />
      <stop
         id="stop120"
         stop-color="#12c0e1"
         offset=".369" />
      <stop
         id="stop122"
         stop-color="#00b3f4"
         offset=".423" />
      <stop
         id="stop124"
         stop-color="#0060df"
         offset=".737" />
    </radialGradient>
    <radialGradient
       r="73.720001"
       gradientUnits="userSpaceOnUse"
       cy="15.824"
       cx="36.617001"
       id="l-3">
      <stop
         id="stop127"
         stop-color="#3fe1b0"
         offset=".137" />
      <stop
         id="stop129"
         stop-color="#0df"
         offset=".435" />
      <stop
         id="stop131"
         stop-color="#1ec1ff"
         offset=".484" />
      <stop
         id="stop133"
         stop-color="#7077ff"
         offset=".622" />
      <stop
         id="stop135"
         stop-color="#9059ff"
         offset=".685" />
    </radialGradient>
    <radialGradient
       r="80.685997"
       gradientUnits="userSpaceOnUse"
       cy="20.139"
       cx="56.077"
       id="m">
      <stop
         id="stop138"
         stop-color="#54ffbd"
         offset=".094" />
      <stop
         id="stop140"
         stop-color="#41f7cc"
         offset=".242" />
      <stop
         id="stop142"
         stop-color="#0fe3f3"
         offset=".543" />
      <stop
         id="stop144"
         stop-color="#0df"
         offset=".626" />
    </radialGradient>
    <linearGradient
       y2="66.806"
       y1="12.061"
       x2="15.267"
       x1="70.013"
       gradientUnits="userSpaceOnUse"
       id="n">
      <stop
         id="stop147"
         stop-opacity=".8"
         stop-color="#54ffbd"
         offset=".167" />
      <stop
         id="stop149"
         stop-opacity=".639"
         stop-color="#43f8ca"
         offset=".236" />
      <stop
         id="stop151"
         stop-opacity=".368"
         stop-color="#27ede1"
         offset=".361" />
      <stop
         id="stop153"
         stop-opacity=".169"
         stop-color="#12e4f1"
         offset=".466" />
      <stop
         id="stop155"
         stop-opacity=".046"
         stop-color="#05dffb"
         offset=".545" />
      <stop
         id="stop157"
         stop-opacity="0"
         stop-color="#0df"
         offset=".589" />
    </linearGradient>
    <linearGradient
       id="linearGradient4748"
       inkscape:collect="always">
      <stop
         id="stop4744"
         offset="0"
         style="stop-color:#f9f9f9;stop-opacity:1;" />
      <stop
         id="stop4746"
         offset="1"
         style="stop-color:#f9f9f9;stop-opacity:0;" />
    </linearGradient>
    <linearGradient
       gradientTransform="matrix(0.5652169,0,0,0.5652169,258.4349,134.50599)"
       inkscape:collect="always"
       xlink:href="#linearGradient876"
       id="linearGradient878-2-59-3"
       x1="-139.64314"
       y1="16.190481"
       x2="-139.64314"
       y2="-135.54825"
       gradientUnits="userSpaceOnUse" />
    <linearGradient
       inkscape:collect="always"
       id="linearGradient876">
      <stop
         style="stop-color:#ff0066;stop-opacity:1"
         offset="0"
         id="stop872-3" />
      <stop
         style="stop-color:#ffdd55;stop-opacity:1"
         offset="1"
         id="stop874-6" />
    </linearGradient>
    <linearGradient
       gradientTransform="translate(-3.1181418,3.0557819)"
       gradientUnits="userSpaceOnUse"
       y2="41.349457"
       x2="20.876553"
       y1="6.4262347"
       x1="16.386429"
       id="linearGradient4750"
       xlink:href="#linearGradient4748"
       inkscape:collect="always" />
    <clipPath
       id="clipPath2813"
       clipPathUnits="userSpaceOnUse">
      <path
         style="opacity:1;fill:#b3b1b3;fill-opacity:1;fill-rule:evenodd;stroke:none;stroke-width:4.97206;stroke-miterlimit:4;stroke-dasharray:none;stroke-opacity:0.078125;paint-order:markers fill stroke"
         d="M 0,0 V 201.77539 234 H 324 V 41.333984 0 Z"
         id="path2815"
         inkscape:connector-curvature="0" />
    </clipPath>
    <linearGradient
       gradientUnits="userSpaceOnUse"
       y2="162.93608"
       x2="105.81788"
       y1="430.36389"
       x1="386.34515"
       id="linearGradient3665"
       xlink:href="#linearGradient3663"
       inkscape:collect="always" />
    <linearGradient
       gradientUnits="userSpaceOnUse"
       y2="102.64936"
       x2="288.67282"
       y1="-67.772125"
       x1="-2.2737368e-13"
       id="linearGradient3685"
       xlink:href="#linearGradient3683"
       inkscape:collect="always" />
    <linearGradient
       gradientUnits="userSpaceOnUse"
       y2="137.91942"
       x2="285.67108"
       y1="107.74956"
       x1="26.398621"
       id="linearGradient3722"
       xlink:href="#linearGradient3728"
       inkscape:collect="always" />
  </defs>
  <sodipodi:namedview
     inkscape:window-maximized="1"
     inkscape:window-y="0"
     inkscape:window-x="0"
     inkscape:window-height="969"
     inkscape:window-width="1920"
     fit-margin-bottom="0"
     fit-margin-right="0"
     fit-margin-left="0"
     fit-margin-top="0"
     inkscape:guide-bbox="true"
     showguides="true"
     inkscape:snap-bbox-edge-midpoints="true"
     inkscape:snap-bbox="true"
     showgrid="false"
     inkscape:document-rotation="0"
     inkscape:current-layer="layer1-9"
     inkscape:document-units="mm"
     inkscape:cy="156.42552"
     inkscape:cx="72.219316"
     inkscape:zoom="1.979899"
     inkscape:pageshadow="2"
     inkscape:pageopacity="0.0"
     borderopacity="1.0"
     bordercolor="#666666"
     pagecolor="#ffffff"
     id="base">
    <sodipodi:guide
       id="guide3693"
       orientation="1,0"
       position="-6.0159283e-14,61.912506" />
    <sodipodi:guide
       id="guide3695"
       orientation="1,0"
       position="85.724997,61.912506" />
  </sodipodi:namedview>
  <metadata
     id="metadata2603">
    <rdf:RDF>
      <cc:Work
         rdf:about="">
        <dc:format>image/svg+xml</dc:format>
        <dc:type
           rdf:resource="http://purl.org/dc/dcmitype/StillImage" />
        <dc:title />
      </cc:Work>
    </rdf:RDF>
  </metadata>
  <g
     transform="translate(-317.95136,-60.984466)"
     id="layer1"
     inkscape:groupmode="layer"
     inkscape:label="Layer 1">
    <g
       transform="matrix(0.26458333,0,0,0.26458333,317.95136,60.984468)"
       inkscape:label="Capa 1"
       id="layer1-9">
      <g
         id="g1064">
        <rect
           y="-2.5830077e-06"
           x="3.2617187e-05"
           height="234"
           width="324"
           id="rect3594"
           style="opacity:1;fill:#c9ffe1;fill-opacity:1;stroke-width:14.2488;stroke-linecap:round;stroke-linejoin:round;paint-order:markers fill stroke;stop-color:#000000" />
        <path
           sodipodi:nodetypes="ccccc"
           d="M 3.2617187e-5,-2.5830077e-6 H 324.00003 V 167.3486 C 197.33889,183.67546 105.12375,60.442775 3.2617187e-5,167.3486 Z"
           style="opacity:1;fill:url(#linearGradient3722);fill-opacity:1;stroke-width:11.7426;stroke-linecap:round;stroke-linejoin:round;paint-order:markers fill stroke;stop-color:#000000"
           id="rect3596" />
        <path
           id="rect3596-7"
           style="opacity:1;fill:#2ad4ff;fill-opacity:0.370658;stroke-width:11.7426;stroke-linecap:round;stroke-linejoin:round;paint-order:markers fill stroke;stop-color:#000000"
           d="M 324.00003,-4.2146881e-6 H 7.2440946e-5 L 7.2440936e-5,68.681933 C 117.98446,-4.1343108 161.07991,257.41396 324.00003,167.3486 Z"
           sodipodi:nodetypes="ccccc" />
        <path
           sodipodi:nodetypes="ccccc"
           d="M 7.2440946e-5,-6.3169344e-6 H 323.99999 V 68.681934 C 206.01569,-4.1343163 162.92019,158.74729 7.2440936e-5,68.681933 Z"
           style="opacity:1;fill:url(#linearGradient3685);fill-opacity:1;stroke-width:11.7426;stroke-linecap:round;stroke-linejoin:round;paint-order:markers fill stroke;stop-color:#000000"
           id="rect3596-7-3" />
        <path
           sodipodi:nodetypes="cscccc"
           d="M -3.1531151e-6,90.746216 C 93.014916,181.91269 137.70243,113.87806 208.33563,92.693477 241.85768,82.639413 281.62578,80.542508 324.00003,90.746216 v 52.507554 c -122.07417,-97.251502 -191.346,61.6155 -324.0000331531151,0 z"
           style="opacity:1;fill:#ffffff;fill-opacity:1;stroke-width:14.3172;stroke-linecap:round;stroke-linejoin:round;paint-order:markers fill stroke;stop-color:#000000"
           id="rect3691" />
        <path
           id="rect3596-7-3-1"
           style="opacity:1;fill:url(#linearGradient3665);fill-opacity:1;stroke-width:11.7426;stroke-linecap:round;stroke-linejoin:round;paint-order:markers fill stroke;stop-color:#000000"
           d="M 3.2617187e-5,234 H 323.99991 V 177.10316 C 202.24437,276.31806 162.92013,99.29432 3.261719e-5,189.35967 Z"
           sodipodi:nodetypes="ccccc" />
      </g>
      <g
         id="g1056"
         transform="matrix(1.3606035,0,0,1.3665728,-58.417752,-42.889021)">
        <circle
           r="54.682888"
           cy="117"
           cx="162"
           id="path862-8-4-7-5"
           style="fill:#f9f9f9;fill-opacity:1;stroke-width:1.41058;stroke-linecap:round;stroke-linejoin:round;stroke-miterlimit:4;stroke-dasharray:none;paint-order:markers fill stroke;stop-color:#000000" />
        <circle
           style="fill:#000000;fill-opacity:1;stroke:#ffffff;stroke-width:6.00945;stroke-linecap:round;stroke-linejoin:round;stroke-opacity:1;paint-order:markers fill stroke;stop-color:#000000"
           id="path4717"
           cx="162.5457"
           cy="120.77671"
           r="10.324909" />
        <circle
           style="fill:url(#linearGradient878-2-59-3);fill-opacity:1;stroke-width:1.26466;stroke-linecap:round;stroke-linejoin:round;stroke-miterlimit:4;stroke-dasharray:none;paint-order:markers fill stroke;stop-color:#000000"
           id="path862-8-4-7"
           cx="162"
           cy="116.99999"
           r="49.026028" />
        <path
           sodipodi:nodetypes="scssscccscssscssscscssscsscccssssssscssscssssssscssscscscscsssscsscsscsssscscsscscscscssssscssssssssscssssscscsss"
           id="path1698-3-9-1-4-3-9-4-3"
           style="font-style:normal;font-variant:normal;font-weight:normal;font-stretch:normal;font-size:22.2597px;line-height:1.25;font-family:Alba;-inkscape-font-specification:'Alba, Normal';font-variant-ligatures:normal;font-variant-caps:normal;font-variant-numeric:normal;font-variant-east-asian:normal;letter-spacing:0px;word-spacing:0px;fill:#782144;fill-opacity:1;stroke:none;stroke-width:1.02647;stroke-miterlimit:4;stroke-dasharray:none;stroke-opacity:1"
           d="m 133.61768,99.469139 c -0.82118,0 -1.49133,0.259465 -2.0114,0.779691 -0.5201,0.49268 -0.77972,1.15012 -0.77972,1.9713 0,0.82119 0.25946,1.49134 0.77972,2.0114 0.52007,0.5201 1.19022,0.78109 2.0114,0.78109 h 0.16457 c 3.10596,0 3.54144,1.70232 3.32606,3.02977 -0.24691,1.0739 -1.21379,1.79207 -2.39156,1.79207 h -4.36977 c -2.95634,0 -5.43361,1.01293 -7.43186,3.03854 -2.02563,2.02561 -3.03857,4.51701 -3.03857,7.47332 0,2.95629 1.01294,5.44771 3.03857,7.47329 1.99825,1.99827 4.47552,2.99709 7.43186,2.99709 2.95623,0 5.44632,-0.99882 7.4719,-2.99709 2.02563,-2.02558 3.03854,-4.517 3.03854,-7.47329 0,-0.82118 -0.25946,-1.49133 -0.77969,-2.01142 -0.5201,-0.52008 -1.19024,-0.78106 -2.01143,-0.78106 -0.82115,0 -1.47857,0.26105 -1.97128,0.78106 -0.52006,0.52009 -0.77969,1.19024 -0.77969,2.01142 0,1.36865 -0.47961,2.53252 -1.43766,3.49059 -0.98547,0.95805 -2.16204,1.43633 -3.53069,1.43633 -1.36868,0 -2.53257,-0.47831 -3.49056,-1.43633 -0.95807,-0.95807 -1.43633,-2.12194 -1.43633,-3.49059 0,-1.36864 0.47826,-2.53254 1.43633,-3.49059 0.95799,-0.98543 2.12188,-1.47779 3.49056,-1.47779 h 9.54552 c 0.82119,0 1.49272,-0.24691 2.01282,-0.73959 0.43558,-0.45985 0.66697,-1.04389 0.71742,-1.73908 h 0.0295 v -4.56197 c 0,-2.49093 -0.84927,-4.58453 -2.54643,-6.28166 -1.72446,-1.72452 -3.83219,-2.586501 -6.32314,-2.586501 z m 67.09672,2.597551 c -0.93067,0 -1.73771,0.34144 -2.42201,1.02575 -0.65696,0.65695 -0.98568,1.45121 -0.98568,2.38191 0,0.93068 0.32874,1.73762 0.98568,2.42198 0.6843,0.65693 1.49134,0.98565 2.42201,0.98565 0.93068,0 1.7249,-0.32874 2.38188,-0.98565 0.6843,-0.68436 1.02714,-1.4913 1.02714,-2.42198 0,-0.9307 -0.34284,-1.72496 -1.02714,-2.38191 -0.65698,-0.68432 -1.4512,-1.02575 -2.38188,-1.02575 z m -23.17616,0.36911 c -0.79379,0 -1.44984,0.25946 -1.96994,0.77967 -0.52007,0.5201 -0.78103,1.17751 -0.78103,1.97133 v 16.09541 c 0,2.92892 1.01291,5.40623 3.03855,7.43184 2.02558,2.0256 4.50291,3.03854 7.43185,3.03854 2.92892,0 5.4062,-1.01294 7.43183,-3.03854 2.05297,-2.02561 3.07998,-4.50292 3.07998,-7.43184 0,-2.95631 -1.01294,-5.44771 -3.03849,-7.47332 -2.02564,-2.0256 -4.51709,-3.03854 -7.47332,-3.03854 -0.82119,0 -1.49133,0.26105 -2.01143,0.78106 -0.49268,0.5201 -0.73956,1.19022 -0.73956,2.0114 0,0.82121 0.24691,1.49133 0.73956,2.01143 0.5201,0.49273 1.19024,0.73957 2.01143,0.73957 1.36865,0 2.53249,0.49237 3.49056,1.47782 0.98546,0.95804 1.4778,2.12191 1.4778,3.49058 0,1.36863 -0.49233,2.53252 -1.4778,3.49056 -0.95807,0.95808 -2.12191,1.43634 -3.49056,1.43634 -1.36868,0 -2.53116,-0.47826 -3.48923,-1.43634 -0.95806,-0.95804 -1.43774,-2.12193 -1.43774,-3.49056 V 105.1868 c 0,-0.82118 -0.25946,-1.4786 -0.77964,-1.97133 -0.52007,-0.52007 -1.19164,-0.77967 -2.01282,-0.77967 z m -25.31744,8.41751 c -2.49095,0 -4.59863,0.84788 -6.32315,2.54501 -1.69716,1.69712 -2.54646,3.7921 -2.54646,6.28304 v 5.69968 c 0,0.82122 0.25947,1.4927 0.77972,2.0128 0.5201,0.49272 1.19164,0.7382 2.01282,0.7382 0.82118,0 1.47719,-0.24556 1.96994,-0.7382 0.52002,-0.5201 0.78106,-1.19158 0.78106,-2.0128 v -5.69968 c 0,-0.93067 0.31465,-1.71085 0.94419,-2.34041 0.6569,-0.62959 1.4512,-0.94556 2.38188,-0.94556 0.90328,0 1.68348,0.32871 2.34039,0.98566 0.65698,0.62956 0.98434,1.39701 0.98434,2.30031 v 9.32023 c 0,0.82119 0.24691,1.49131 0.73956,2.01141 0.52007,0.49272 1.19022,0.73959 2.0114,0.73959 0.82119,0 1.49268,-0.24692 2.01278,-0.73959 0.52006,-0.5201 0.77969,-1.19022 0.77969,-2.01141 v -11.33302 c 0.65698,-0.84858 1.533,-1.27318 2.62796,-1.27318 0.90329,0 1.66933,0.32871 2.29893,0.98566 0.65698,0.62956 0.98567,1.39701 0.98567,2.30031 v 12.23572 c 0,2.49095 0.84928,4.58455 2.54643,6.28168 1.72446,1.72452 3.83221,2.5865 6.32315,2.5865 h 0.1632 c 0.82126,0 1.49275,-0.25946 2.01282,-0.77969 0.5201,-0.49273 0.77964,-1.15011 0.77964,-1.9713 0,-0.82119 -0.25947,-1.49133 -0.77964,-2.0114 -0.52007,-0.5201 -1.19156,-0.78109 -2.01282,-0.78109 h -0.1632 c -0.93068,0 -1.72495,-0.32727 -2.38194,-0.98429 -0.62959,-0.62956 -0.94418,-1.40973 -0.94418,-2.34041 v -12.23572 c 0,-2.49094 -0.84922,-4.58592 -2.54638,-6.28304 -1.69715,-1.69713 -3.79073,-2.54501 -6.28168,-2.54501 -2.18984,0 -4.1057,0.69831 -5.74805,2.09433 -1.66976,-1.39602 -3.58563,-2.09433 -5.74807,-2.09433 z m 48.4936,0 c -0.82119,0 -1.49133,0.25946 -2.0114,0.77966 -0.49278,0.49273 -0.73965,1.15012 -0.73965,1.97133 v 15.39729 c 0,0.82119 0.24691,1.49131 0.73965,2.01141 0.52007,0.49272 1.19021,0.73959 2.0114,0.73959 0.82118,0 1.49267,-0.24692 2.01277,-0.73959 0.52007,-0.5201 0.77969,-1.19022 0.77969,-2.01141 V 113.6043 c 0,-1.83399 -0.93111,-2.75099 -2.79246,-2.75099 z" />
        <path
           d="m 133.61768,99.067636 c -0.82118,0 -1.49133,0.259465 -2.0114,0.77969 -0.5201,0.492674 -0.77972,1.150124 -0.77972,1.971304 0,0.82119 0.25946,1.49133 0.77972,2.0114 0.52007,0.5201 1.19022,0.78108 2.0114,0.78108 h 0.16457 c 3.10596,0 3.54144,1.70233 3.32606,3.02978 -0.24691,1.0739 -1.21379,1.79207 -2.39156,1.79207 h -4.36977 c -2.95634,0 -5.43361,1.01293 -7.43186,3.03854 -2.02563,2.02561 -3.03857,4.51701 -3.03857,7.47332 0,2.95628 1.01294,5.44771 3.03857,7.47329 1.99825,1.99827 4.47552,2.99708 7.43186,2.99708 2.95623,0 5.44632,-0.99881 7.4719,-2.99708 2.02563,-2.02558 3.03854,-4.51701 3.03854,-7.47329 0,-0.82118 -0.25946,-1.49133 -0.77969,-2.01143 -0.5201,-0.52007 -1.19024,-0.78105 -2.01143,-0.78105 -0.82115,0 -1.47857,0.26105 -1.97128,0.78105 -0.52006,0.5201 -0.77969,1.19025 -0.77969,2.01143 0,1.36865 -0.47961,2.53251 -1.43766,3.49059 -0.98547,0.95804 -2.16204,1.43633 -3.53069,1.43633 -1.36868,0 -2.53257,-0.47832 -3.49056,-1.43633 -0.95807,-0.95808 -1.43633,-2.12194 -1.43633,-3.49059 0,-1.36865 0.47826,-2.53254 1.43633,-3.49059 0.95799,-0.98544 2.12188,-1.47779 3.49056,-1.47779 h 9.54552 c 0.82119,0 1.49272,-0.24692 2.01282,-0.7396 0.43558,-0.45985 0.66697,-1.04388 0.71742,-1.73907 h 0.0295 v -4.56197 c 0,-2.49093 -0.84927,-4.58454 -2.54643,-6.28167 -1.72446,-1.724516 -3.8322,-2.586494 -6.32314,-2.586494 z m 67.09672,2.597544 c -0.93067,0 -1.73771,0.34145 -2.42201,1.02575 -0.65696,0.65696 -0.98568,1.45121 -0.98568,2.38192 0,0.93067 0.32874,1.73762 0.98568,2.42197 0.6843,0.65694 1.49134,0.98566 2.42201,0.98566 0.93068,0 1.7249,-0.32875 2.38188,-0.98566 0.6843,-0.68435 1.02714,-1.4913 1.02714,-2.42197 0,-0.93071 -0.34284,-1.72496 -1.02714,-2.38192 -0.65698,-0.68431 -1.4512,-1.02575 -2.38188,-1.02575 z m -23.17616,0.36911 c -0.79379,0 -1.44984,0.25947 -1.96994,0.77967 -0.52007,0.5201 -0.78103,1.17751 -0.78103,1.97133 v 16.09542 c 0,2.92892 1.01291,5.40622 3.03855,7.43183 2.02558,2.0256 4.50291,3.03854 7.43185,3.03854 2.92892,0 5.4062,-1.01294 7.43183,-3.03854 2.05297,-2.02561 3.07998,-4.50291 3.07998,-7.43183 0,-2.95632 -1.01294,-5.44772 -3.03849,-7.47332 -2.02564,-2.02561 -4.51709,-3.03855 -7.47332,-3.03855 -0.82119,0 -1.49133,0.26106 -2.01143,0.78106 -0.49268,0.5201 -0.73956,1.19022 -0.73956,2.01141 0,0.8212 0.24691,1.49133 0.73956,2.01143 0.5201,0.49272 1.19024,0.73956 2.01143,0.73956 1.36865,0 2.53249,0.49237 3.49056,1.47782 0.98546,0.95805 1.4778,2.12191 1.4778,3.49059 0,1.36862 -0.49233,2.53252 -1.4778,3.49056 -0.95807,0.95807 -2.12191,1.43633 -3.49056,1.43633 -1.36868,0 -2.53116,-0.47826 -3.48923,-1.43633 -0.95806,-0.95804 -1.43774,-2.12194 -1.43774,-3.49056 v -16.09542 c 0,-0.82118 -0.25946,-1.4786 -0.77964,-1.97133 -0.52007,-0.52007 -1.19164,-0.77967 -2.01282,-0.77967 z m -25.31744,8.41751 c -2.49095,0 -4.59863,0.84788 -6.32315,2.54501 -1.69716,1.69713 -2.54646,3.7921 -2.54646,6.28304 v 5.69969 c 0,0.82121 0.25947,1.49269 0.77972,2.01279 0.5201,0.49273 1.19164,0.7382 2.01282,0.7382 0.82118,0 1.47719,-0.24555 1.96994,-0.7382 0.52002,-0.5201 0.78106,-1.19158 0.78106,-2.01279 v -5.69969 c 0,-0.93067 0.31465,-1.71084 0.94419,-2.34041 0.6569,-0.62959 1.4512,-0.94555 2.38188,-0.94555 0.90328,0 1.68348,0.3287 2.34039,0.98565 0.65698,0.62957 0.98434,1.39701 0.98434,2.30031 v 9.32024 c 0,0.82118 0.24691,1.4913 0.73956,2.0114 0.52007,0.49273 1.19022,0.73959 2.0114,0.73959 0.82119,0 1.49268,-0.24692 2.01278,-0.73959 0.52006,-0.5201 0.77969,-1.19022 0.77969,-2.0114 v -11.33302 c 0.65698,-0.84858 1.533,-1.27318 2.62796,-1.27318 0.90329,0 1.66933,0.3287 2.29893,0.98565 0.65698,0.62957 0.98567,1.39701 0.98567,2.30031 v 12.23572 c 0,2.49095 0.84928,4.58456 2.54643,6.28168 1.72446,1.72453 3.83221,2.5865 6.32315,2.5865 h 0.1632 c 0.82126,0 1.49275,-0.25946 2.01282,-0.77969 0.5201,-0.49272 0.77964,-1.15011 0.77964,-1.9713 0,-0.82119 -0.25947,-1.49133 -0.77964,-2.0114 -0.52007,-0.5201 -1.19156,-0.78108 -2.01282,-0.78108 h -0.1632 c -0.93068,0 -1.72495,-0.32727 -2.38194,-0.98429 -0.62959,-0.62957 -0.94418,-1.40974 -0.94418,-2.34042 v -12.23572 c 0,-2.49094 -0.84922,-4.58591 -2.54638,-6.28304 -1.69715,-1.69713 -3.79073,-2.54501 -6.28168,-2.54501 -2.18984,0 -4.1057,0.69832 -5.74805,2.09433 -1.66976,-1.39601 -3.58563,-2.09433 -5.74807,-2.09433 z m 48.4936,0 c -0.82119,0 -1.49133,0.25946 -2.0114,0.77966 -0.49278,0.49273 -0.73965,1.15013 -0.73965,1.97133 v 15.3973 c 0,0.82118 0.24691,1.4913 0.73965,2.0114 0.52007,0.49273 1.19021,0.73959 2.0114,0.73959 0.82118,0 1.49267,-0.24692 2.01277,-0.73959 0.52007,-0.5201 0.77969,-1.19022 0.77969,-2.0114 v -15.3973 c 0,-1.83398 -0.93111,-2.75099 -2.79246,-2.75099 z"
           style="font-style:normal;font-variant:normal;font-weight:normal;font-stretch:normal;font-size:22.2597px;line-height:1.25;font-family:Alba;-inkscape-font-specification:'Alba, Normal';font-variant-ligatures:normal;font-variant-caps:normal;font-variant-numeric:normal;font-variant-east-asian:normal;letter-spacing:0px;word-spacing:0px;fill:#f9f9f9;fill-opacity:1;stroke:none;stroke-width:1.02647;stroke-miterlimit:4;stroke-dasharray:none;stroke-opacity:1"
           id="path1698-3-9-1-4-3-9-4"
           sodipodi:nodetypes="scssscccscssscssscscssscsscccssssssscssscssssssscssscscscscsssscsscsscsssscscsscscscscssssscssssssssscssssscscsss" />
      </g>
    </g>
  </g>
</svg>
