<?xml version="1.0" encoding="UTF-8" standalone="no"?>
<svg
   xmlns:dc="http://purl.org/dc/elements/1.1/"
   xmlns:cc="http://creativecommons.org/ns#"
   xmlns:rdf="http://www.w3.org/1999/02/22-rdf-syntax-ns#"
   xmlns:svg="http://www.w3.org/2000/svg"
   xmlns="http://www.w3.org/2000/svg"
   width="324px"
   height="234px"
   viewBox="0 0 324 234"
   version="1.1"
   id="svg23">
  <metadata
     id="metadata29">
    <rdf:RDF>
      <cc:Work
         rdf:about="">
        <dc:format>image/svg+xml</dc:format>
        <dc:type
           rdf:resource="http://purl.org/dc/dcmitype/StillImage" />
        <dc:title></dc:title>
      </cc:Work>
    </rdf:RDF>
  </metadata>
  <defs
     id="defs27">
    <filter
       id="deepin-calculator-a"
       width="131%"
       height="131%"
       x="-15.5%"
       y="-15.5%"
       filterUnits="objectBoundingBox">
      <feOffset
         dy="1"
         in="SourceAlpha"
         result="shadowOffsetOuter1"
         id="feOffset2" />
      <feGaussianBlur
         in="shadowOffsetOuter1"
         result="shadowBlurOuter1"
         stdDeviation="1"
         id="feGaussianBlur4" />
      <feComposite
         in="shadowBlurOuter1"
         in2="SourceAlpha"
         operator="out"
         result="shadowBlurOuter1"
         id="feComposite6" />
      <feColorMatrix
         in="shadowBlurOuter1"
         result="shadowMatrixOuter1"
         values="0 0 0 0 0   0 0 0 0 0   0 0 0 0 0  0 0 0 0.2 0"
         id="feColorMatrix8" />
      <feMerge
         id="feMerge14">
        <feMergeNode
           in="shadowMatrixOuter1"
           id="feMergeNode10" />
        <feMergeNode
           in="SourceGraphic"
           id="feMergeNode12" />
      </feMerge>
    </filter>
    <radialGradient
       id="deepin-calculator-b"
       cx="21"
       cy="3.89256"
       r="38.899558"
       fx="21"
       fy="3.89256"
       gradientUnits="userSpaceOnUse"
       gradientTransform="translate(3,3)">
      <stop
         offset="0%"
         stop-color="#35DCFF"
         id="stop17" />
      <stop
         offset="100%"
         stop-color="#0068FF"
         id="stop19" />
    </radialGradient>
    <linearGradient
       id="deepin-calculator-c"
       x1="21"
       x2="21"
       y1="0"
       y2="42"
       gradientUnits="userSpaceOnUse"
       gradientTransform="translate(-15,3)">
      <stop
         offset="0%"
         stop-color="#FFF"
         id="stop22" />
      <stop
         offset="100%"
         stop-color="#FFF"
         stop-opacity=".8"
         id="stop24" />
    </linearGradient>
    <linearGradient
       id="SVGID_1_"
       gradientUnits="userSpaceOnUse"
       x1="49.575699"
       y1="49.646"
       x2="229.2469"
       y2="229.3172">
      <stop
         offset="0"
         style="stop-color:#FF8100"
         id="stop8" />
      <stop
         offset="1"
         style="stop-color:#FF0000"
         id="stop10" />
    </linearGradient>
    <radialGradient
       id="radial0"
       gradientUnits="userSpaceOnUse"
       cx="90.136406"
       cy="64.761543"
       fx="90.136406"
       fy="64.761543"
       r="91.591759"
       gradientTransform="matrix(1.8,0,0,1.304046,0,32.11876)">
      <stop
         offset="0"
         style="stop-color:rgb(81.960785%,10.588235%,34.509805%);stop-opacity:1;"
         id="stop2" />
      <stop
         offset="1"
         style="stop-color:rgb(50.588238%,6.666667%,22.352941%);stop-opacity:1;"
         id="stop4" />
    </radialGradient>
    <linearGradient
       id="linear0"
       gradientUnits="userSpaceOnUse"
       x1="23.037573"
       y1="6.130066"
       x2="10.984463"
       y2="25.928267"
       gradientTransform="matrix(4.884556,0,0,3.80908,68.216148,18.632979)">
      <stop
         offset="0"
         style="stop-color:rgb(100%,100%,100%);stop-opacity:1;"
         id="stop7" />
      <stop
         offset="1"
         style="stop-color:rgb(100%,72.941178%,48.235294%);stop-opacity:1;"
         id="stop9" />
    </linearGradient>
    <linearGradient
       id="linear1"
       gradientUnits="userSpaceOnUse"
       x1="16.338762"
       y1="13.758957"
       x2="16.338762"
       y2="18.058632"
       gradientTransform="matrix(4.27367,0,0,4.353558,68.216148,18.632979)">
      <stop
         offset="0"
         style="stop-color:rgb(0%,0%,0%);stop-opacity:1;"
         id="stop12" />
      <stop
         offset="1"
         style="stop-color:rgb(72.549021%,33.333334%,2.352941%);stop-opacity:1;"
         id="stop14" />
    </linearGradient>
    <linearGradient
       id="linear2"
       gradientUnits="userSpaceOnUse"
       x1="28.162867"
       y1="13.615636"
       x2="28.162867"
       y2="17.771988"
       gradientTransform="matrix(4.27367,0,0,4.353558,68.216148,18.632979)">
      <stop
         offset="0"
         style="stop-color:rgb(0%,0%,0%);stop-opacity:1;"
         id="stop17-6" />
      <stop
         offset="1"
         style="stop-color:rgb(72.549021%,33.333334%,2.352941%);stop-opacity:1;"
         id="stop19-2" />
    </linearGradient>
    <linearGradient
       id="SVGID_1_-6"
       gradientUnits="userSpaceOnUse"
       x1="49.575699"
       y1="49.646"
       x2="229.2469"
       y2="229.3172">
      <stop
         offset="0"
         style="stop-color:#FF8100"
         id="stop8-1" />
      <stop
         offset="1"
         style="stop-color:#FF0000"
         id="stop10-8" />
    </linearGradient>
  </defs>
  <rect
     x="0"
     y="0"
     width="324"
     height="234"
     style="fill:#109d8f;fill-opacity:1;stroke:none"
     id="rect2" />
  <path
     style="fill:none;stroke:#ffffff;stroke-width:1.83906;stroke-linecap:butt;stroke-linejoin:miter;stroke-miterlimit:4;stroke-opacity:1"
     d="M -1.699218,-1.9492182 H 326.19141 V 235.08985 H -1.699218 Z m 0,0"
     id="path4" />
  <g
     id="g971"
     transform="matrix(10.336942,0,0,8.6188209,773.57057,-51.672409)">
    <g
       opacity="0.2"
       transform="translate(-74.663587,4.6187918)"
       id="g70">
      <path
         d="M 9.0841,12.539"
         id="path58" />
      <path
         d="M 17.461,10.779"
         id="path60" />
      <path
         d="M 9.044,13 C 8.4687,13 8,13.53 8,14.183 v 4.6305 c 0,0.653 0.4687,1.186 1.044,1.186 0.5753,0 0.956,-0.533 0.956,-1.186 v -4.631 c 0,-0.654 -0.38,-1.184 -0.956,-1.184"
         id="path62" />
      <path
         d="m 11,13 -2.45e-4,8.5 c -7e-6,0.23573 0.26439,0.5 0.50012,0.5 h 1.5 v 1.8751 c 0,0.622 0.396,1.125 1,1.125 0.60019,0 1.0199,-0.50359 1,-1.1249 v -1.875 h 1 v 1.8751 c 0,0.622 0.396,1.125 1,1.125 0.60019,0 1,-0.51173 1,-1.1249 v -1.875 h 1.5 c 0.236,0 0.5,-0.264 0.5,-0.5 v -8.5 z"
         id="path64" />
      <path
         d="M 22.044,13 C 21.469,13 21,13.53 21,14.183 v 4.6305 c 0,0.653 0.469,1.186 1.044,1.186 0.575,0 0.956,-0.533 0.956,-1.186 V 14.183 c 0,-0.654 -0.38,-1.184 -0.956,-1.184"
         id="path66" />
      <path
         d="M 12.865,5.9023 12,6.4023 13.197,8.4766 C 11.009,9.5337 11,12 11,12 h 9 C 20,12 19.99,9.5335 17.803,8.4766 L 19,6.4023 l -0.86523,-0.5 -1.2949,2.2422 C 16.44287,8.0557 16.00487,8 15.50187,8 c -0.504,0 -0.944,0.0555 -1.342,0.1445 l -1.295,-2.2422 z M 13.502,10 C 13.779,10 14,10.223 14,10.498 14,10.773 13.776,11 13.502,11 13.225,11 13,10.776 13,10.498 13,10.223 13.225,10 13.502,10 Z m 4,0 C 17.779,10 18,10.223 18,10.498 18,10.773 17.776,11 17.502,11 17.225,11 17,10.776 17,10.498 17,10.223 17.225,10 17.502,10 Z"
         id="path68" />
    </g>
    <g
       style="fill:#ffffff"
       id="g84"
       transform="translate(-74.663587,3.6190918)">
      <path
         style="fill:#ffffff"
         d="M 9.0841,12.539"
         id="path72" />
      <path
         style="fill:#ffffff"
         d="M 17.461,10.779"
         id="path74" />
      <path
         style="fill:#ffffff"
         d="M 9.044,13 C 8.4687,13 8,13.53 8,14.183 v 4.6305 c 0,0.653 0.4687,1.186 1.044,1.186 0.5753,0 0.956,-0.533 0.956,-1.186 V 14.183 C 10,13.529 9.62,12.999 9.044,12.999"
         id="path76" />
      <path
         style="fill:#ffffff"
         d="m 11,13 -2.45e-4,8.5 c -7e-6,0.23573 0.26439,0.5 0.50012,0.5 h 1.5 v 1.8751 c 0,0.622 0.396,1.125 1,1.125 0.60019,0 1.0199,-0.50359 1,-1.1249 v -1.875 h 1 v 1.8751 c 0,0.622 0.396,1.125 1,1.125 0.60019,0 1,-0.51173 1,-1.1249 v -1.875 h 1.5 c 0.236,0 0.5,-0.264 0.5,-0.5 v -8.5 z"
         id="path78" />
      <path
         style="fill:#ffffff"
         d="M 22.044,13 C 21.469,13 21,13.53 21,14.183 v 4.6305 c 0,0.653 0.469,1.186 1.044,1.186 0.575,0 0.956,-0.533 0.956,-1.186 V 14.183 c 0,-0.654 -0.38,-1.184 -0.956,-1.184"
         id="path80" />
      <path
         style="fill:#ffffff"
         d="M 12.865,5.9023 12,6.4023 13.197,8.4766 C 11.009,9.5337 11,12 11,12 h 9 C 20,12 19.99,9.5335 17.803,8.4766 L 19,6.4023 l -0.86523,-0.5 -1.2949,2.2422 C 16.44287,8.0557 16.00487,8 15.50187,8 c -0.504,0 -0.944,0.0555 -1.342,0.1445 l -1.295,-2.2422 z M 13.502,10 C 13.779,10 14,10.223 14,10.498 14,10.773 13.776,11 13.502,11 13.225,11 13,10.776 13,10.498 13,10.223 13.225,10 13.502,10 Z m 4,0 C 17.779,10 18,10.223 18,10.498 18,10.773 17.776,11 17.502,11 17.225,11 17,10.776 17,10.498 17,10.223 17.225,10 17.502,10 Z"
         id="path82" />
    </g>
  </g>
  <g
     id="g840"
     transform="matrix(0.27105406,0,0,0.2703317,3.5792427,2.3807309)">
    <polygon
       fill="url(#SVGID_1_)"
       points="121.823,26.835 133.408,40.464 140.496,24.042 149.931,39.24 159.364,24.042 166.452,40.463 178.038,26.835 182.593,44.132 196.093,32.397 197.994,50.182 213.098,40.603 212.324,58.473 228.688,51.251 225.266,68.806 242.52,64.092 236.534,80.947 254.296,78.839 245.874,94.619 263.752,95.184 253.066,109.526 270.653,112.763 257.938,125.338 274.842,131.18 260.385,141.713 276.236,150 260.385,158.285 274.844,168.819 257.938,174.662 270.657,187.238 253.066,190.476 263.75,204.818 245.874,205.384 254.294,221.162 236.532,219.058 242.518,235.913 225.266,231.195 228.686,248.752 212.322,241.53 213.095,259.399 197.99,249.82 196.087,267.603 182.591,255.867 178.038,273.164 166.455,259.538 159.364,275.958 149.931,260.76 140.498,275.958 133.41,259.538 121.823,273.164 117.269,255.867 103.769,267.603 101.866,249.818 86.763,259.397 87.538,241.528 71.172,248.748 74.592,231.193 57.34,235.908 63.324,219.054 45.564,221.16 53.985,205.38 36.11,204.816 46.797,190.476 29.207,187.236 41.924,174.662 25.018,168.821 39.477,158.288 23.625,150 39.477,141.711 25.018,131.182 41.924,125.338 29.208,112.761 46.797,109.525 36.112,95.182 53.987,94.618 45.568,78.837 63.329,80.942 57.344,64.087 74.597,68.803 71.176,51.249 87.538,58.472 86.765,40.601 101.868,50.182 103.771,32.397 117.271,44.132 "
       id="polygon13"
       style="fill:url(#SVGID_1_)" />
    <path
       d="m 80.346628,191.64991 c -4.235196,0 -7.085047,3.55544 -7.085047,8.12673 0,4.57128 2.849851,8.12673 7.085047,8.12673 4.235196,0 7.085048,-3.55545 7.085048,-8.12673 -0.03958,-4.57129 -2.889433,-8.12673 -7.085048,-8.12673 m -0.94995,-5.03688 c 3.403989,0 6.253841,1.86238 7.599604,3.89406 v -3.38614 h 5.224727 v 25.3537 H 88.18372 a 1.1910004,1.2736107 0 0 1 -1.187438,-1.2698 v -2.11634 c -1.345763,2.03169 -4.156034,3.89406 -7.599604,3.89406 -6.491328,0 -11.438987,-5.92574 -11.438987,-13.16361 0,-7.23786 4.908077,-13.20593 11.438987,-13.20593 m 18.761522,0.50792 h 5.22473 v 3.42847 c 1.42492,-2.53961 4.11645,-3.93639 7.20379,-3.93639 5.5018,0 9.06411,4.14802 9.06411,10.58168 v 15.27994 h -3.99771 a 1.1910004,1.2736107 0 0 1 -1.18743,-1.2698 V 198.1259 c 0,-4.02104 -1.89991,-6.43366 -4.94766,-6.43366 -3.44358,0 -6.1351,2.87821 -6.1351,8.29603 v 12.48638 h -3.99771 a 1.1910004,1.2736107 0 0 1 -1.18744,-1.2698 z m 37.95844,4.52896 c -4.2352,0 -7.08505,3.55544 -7.08505,8.12673 0,4.57128 2.84985,8.12673 7.08505,8.12673 4.2352,0 7.08505,-3.55545 7.08505,-8.12673 0,-4.57129 -2.84985,-8.12673 -7.08505,-8.12673 m -0.94995,-5.03688 c 3.40399,0 6.25384,1.86238 7.5996,3.89406 v -16.08415 h 5.22473 v 38.05171 h -3.99771 a 1.1910004,1.2736107 0 0 1 -1.18744,-1.2698 v -2.11634 c -1.34576,2.03169 -4.15603,3.89406 -7.5996,3.89406 -6.49133,0 -11.43899,-5.92574 -11.43899,-13.16361 0,-7.23786 4.90808,-13.20593 11.39941,-13.20593 m 18.76152,0.50792 h 5.22473 v 4.52896 a 6.7133792,7.1790331 0 0 1 6.25384,-4.78292 8.7328156,9.3385418 0 0 1 2.01864,0.21164 v 5.7141 a 8.4082492,8.9914628 0 0 0 -2.61236,-0.46559 c -2.96859,0 -5.6997,2.70891 -5.6997,7.74578 v 12.3594 h -3.99771 a 1.1910004,1.2736107 0 0 1 -1.18744,-1.2698 z m 27.54857,20.65544 c 4.15603,0 7.12462,-3.51312 7.12462,-7.99975 0,-4.52896 -2.92901,-7.99975 -7.12462,-7.99975 -4.2352,0 -7.16421,3.51312 -7.16421,7.99975 0.0396,4.52896 2.92901,7.99975 7.16421,7.99975 m 0,5.20618 a 12.329961,13.185193 0 1 1 12.42851,-13.16361 12.249611,13.09927 0 0 1 -12.42851,13.16361 m 16.66371,-25.86162 h 5.22473 v 25.3537 h -3.99771 a 1.1910004,1.2736107 0 0 1 -1.18744,-1.2698 z m 2.61236,-5.5448 a 3.5563771,3.8030548 0 0 1 -3.52273,-3.76707 3.5148168,3.7586118 0 0 1 3.52273,-3.68243 3.4831518,3.7247504 0 0 1 0,7.4495 m 19.27608,10.07376 c -4.23519,0 -7.08505,3.55544 -7.08505,8.12673 0,4.57128 2.84986,8.12673 7.08505,8.12673 4.2352,0 7.08505,-3.55545 7.08505,-8.12673 -0.0792,-4.57129 -2.84985,-8.12673 -7.08505,-8.12673 m -0.94995,-5.03688 c 3.40399,0 6.25384,1.86238 7.59961,3.89406 v -16.08415 h 5.22472 v 38.05171 h -3.99771 a 1.1910004,1.2736107 0 0 1 -1.18743,-1.2698 v -2.11634 c -1.34577,2.03169 -4.15604,3.89406 -7.59961,3.89406 -6.49133,0 -11.43898,-5.92574 -11.43898,-13.16361 0,-7.23786 4.90807,-13.20593 11.3994,-13.20593"
       id="path2"
       style="fill:#e6e6e6;stroke-width:0.40931" />
    <path
       d="m 190.10549,97.008233 13.65554,-25.269045 a 2.8379771,3.034825 0 0 0 -4.90808,-3.047523 l -13.81386,25.565332 a 85.526417,91.458706 0 0 0 -70.13801,0 L 101.08721,68.691665 a 2.8379771,3.034825 0 0 0 -4.908075,3.047523 L 109.83468,97.008233 C 86.283819,110.63743 70.292985,135.99113 67.957691,165.91612 H 231.82415 c -2.33529,-29.92499 -18.36571,-55.27869 -41.71866,-68.907887 z m -77.89594,43.935127 a 6.8079784,7.2801939 0 1 1 6.80798,-7.28019 6.8079784,7.2801939 0 0 1 -6.80798,7.28019 z m 75.4419,0 a 6.8079784,7.2801939 0 1 1 6.80798,-7.28019 6.8079784,7.2801939 0 0 1 -6.80798,7.28019 z"
       fill="#3ddc84"
       id="path4-0"
       style="fill:#90dc61;fill-opacity:1;stroke-width:0.40931" />
  </g>
</svg>
