<?xml version="1.0" encoding="UTF-8" standalone="no"?>
<svg
   xmlns:dc="http://purl.org/dc/elements/1.1/"
   xmlns:cc="http://creativecommons.org/ns#"
   xmlns:rdf="http://www.w3.org/1999/02/22-rdf-syntax-ns#"
   xmlns:svg="http://www.w3.org/2000/svg"
   xmlns="http://www.w3.org/2000/svg"
   width="324px"
   height="234px"
   viewBox="0 0 324 234"
   version="1.1"
   id="SVGRoot">
  <defs
     id="defs10">
    <filter
       height="1.216"
       y="-0.108"
       width="1.216"
       x="-0.108"
       id="filter1042"
       style="color-interpolation-filters:sRGB">
      <feGaussianBlur
         id="feGaussianBlur1044"
         stdDeviation="4.5176688" />
    </filter>
  </defs>
  <metadata
     id="metadata13">
    <rdf:RDF>
      <cc:Work
         rdf:about="">
        <dc:format>image/svg+xml</dc:format>
        <dc:type
           rdf:resource="http://purl.org/dc/dcmitype/StillImage" />
        <dc:title></dc:title>
      </cc:Work>
    </rdf:RDF>
  </metadata>
  <path
     d="M 324.49576,-1.02e-6 V 234.35055 H 123.43515 3.24e-6 V -1.02e-6 H 123.43515 Z"
     style="fill:#7cb842;fill-opacity:1;stroke:none;stroke-width:3.48673248;stroke-miterlimit:4;stroke-dasharray:none"
     id="rect3770" />
  <g
     style="opacity:0.38000028"
     id="g1152"
     transform="matrix(3.6068637,0,0,4.3456985,137.26654,49.173281)">
    <g
       id="g1147">
      <path
         style="font-style:normal;font-variant:normal;font-weight:normal;font-stretch:normal;font-size:550px;line-height:125%;font-family:Ubuntu;-inkscape-font-specification:Ubuntu;text-align:start;letter-spacing:0px;word-spacing:0px;writing-mode:lr-tb;text-anchor:start;fill:#ffffff;fill-opacity:1;stroke:#ffffff;stroke-width:0;stroke-miterlimit:4;stroke-dasharray:none;stroke-opacity:1"
         d="m -5.7912696,31.52259 c -0.469768,0.04883 -0.912955,0.257565 -1.326172,0.603515 -0.70044,0.597936 -0.931641,1.392158 -0.931641,2.289063 v 8.416015 c 2.131737,-1.015445 3.748119,-2.395338 4.996094,-3.939453 2.42e-4,-1.80441 0.002,-3.854494 0.002,-4.46875 0,-0.230633 -9.84e-4,-0.45955 -0.03516,-0.68164 -0.162297,-0.948156 -0.665595,-1.657358 -1.5625,-2.033204 -0.226362,-0.09396 -0.447577,-0.15326 -0.664062,-0.179687 -0.162363,-0.01982 -0.321927,-0.0221 -0.478516,-0.0059 z m -28.8808594,0.0293 c -0.383987,-0.04244 -0.785351,0.0046 -1.171875,0.15625 -0.956699,0.375842 -1.587891,1.358552 -1.587891,2.511715 v 4.796875 c 1.310507,1.601228 2.969334,2.919656 4.980469,3.878906 0.0082,-3.568676 0.01281,-7.737046 -0.02734,-9.044922 -0.03844,-1.249259 -1.041397,-2.1715 -2.193359,-2.298828 z m 3.628906,0.429688 c -0.35022,0 -0.427734,0.118765 -0.427734,0.443359 0.01708,1.469215 0.0098,2.929223 0.0098,4.398438 0,0.755765 9.6e-5,3.667091 0,6.521484 2.11825,0.836501 4.582534,1.302735 7.410156,1.302735 h 6.929688 c 3.237745,0 5.902578,-0.521286 8.0976564,-1.394532 1.66e-4,-4.192469 -10e-4,-8.9357 0.002,-10.871094 0,-0.324594 -0.110458,-0.40039 -0.417968,-0.40039 -7.2008644,0.0085 -14.4026534,0.0085 -21.6035164,0 z"
         id="path4876-3" />
      <path
         style="font-style:normal;font-variant:normal;font-weight:normal;font-stretch:normal;font-size:550px;line-height:125%;font-family:Ubuntu;-inkscape-font-specification:Ubuntu;text-align:start;letter-spacing:0px;word-spacing:0px;writing-mode:lr-tb;text-anchor:start;fill:#ffffff;fill-opacity:1;stroke:#ffffff;stroke-width:0;stroke-miterlimit:4;stroke-dasharray:none;stroke-opacity:1"
         d="m -9.0467396,30.972517 c -7.4827474,0 -14.9313274,0 -22.4397004,0 0.205007,-4.219723 2.152571,-7.337534 5.757274,-9.490105 -0.324594,-0.623562 -0.632105,-1.221499 -0.948157,-1.827977 -0.247716,-0.478349 -0.495433,-0.956699 -0.760233,-1.426506 -0.128129,-0.230632 -0.179381,-0.444181 0.07688,-0.589394 0.247717,-0.136671 0.375846,0.04271 0.486891,0.256258 0.521059,0.999408 1.05066,1.981732 1.580261,2.98114 0.05125,0.09396 0.111045,0.187923 0.187923,0.307511 3.228857,-1.417964 6.457713,-1.426506 9.737822,0.0085 0.256258,-0.486892 0.521059,-0.965241 0.777317,-1.452132 0.324594,-0.61502 0.649188,-1.23004 0.973782,-1.845061 0.111046,-0.205007 0.256259,-0.410013 0.478349,-0.239174 0.111046,0.08542 0.153756,0.401471 0.08542,0.538142 -0.452723,0.931073 -0.948156,1.845061 -1.435047,2.75905 -0.08542,0.162297 -0.170839,0.324594 -0.273343,0.538143 2.562585,1.460673 4.33931,3.570534 5.2447574,6.363752 0.324594,0.999408 0.512517,2.032984 0.469807,3.117811 z m -5.0568344,-5.287466 c 0,-0.572311 -0.401471,-0.990866 -0.939614,-1.00795 -0.538143,-0.0085 -0.973782,0.418555 -0.982324,0.973782 -0.0085,0.580852 0.401471,1.042118 0.948156,1.042118 0.580853,0.0085 0.973782,-0.410014 0.973782,-1.00795 z m -11.30954,1.00795 c 0.546685,-0.0085 0.948156,-0.444182 0.948156,-1.042118 -0.0085,-0.555227 -0.427097,-0.982324 -0.96524,-0.973782 -0.529601,0 -0.939615,0.435639 -0.948156,0.999408 -0.0085,0.597936 0.401471,1.025034 0.96524,1.016492 z"
         id="path4536-2-8" />
    </g>
  </g>
  <circle
     transform="matrix(1.62,0,0,1.62,-3.24e-6,17.369997)"
     r="0"
     cy="61.5"
     cx="100"
     id="path149"
     style="opacity:1;fill:none;stroke:#ffffff;stroke-width:4.3209877;stroke-miterlimit:4;stroke-dasharray:none;stroke-opacity:1;filter:url(#filter1042)" />
  <ellipse
     ry="53.90617"
     rx="56.220997"
     cy="101.78381"
     cx="165.37657"
     id="path825"
     style="opacity:0.81;fill:#666666;fill-opacity:1;stroke:none;stroke-width:1.29014742;stroke-miterlimit:4;stroke-dasharray:none;stroke-opacity:1" />
  <path
     d="m 221.87924,171.06024 c -0.0644,-0.56506 -0.25727,-1.07363 -0.57884,-1.5822 v 0 l -20.58071,-31.36119 -6.81735,-10.45373 -12.73431,-19.32528 -9.71153,8.5325 11.96254,18.25166 6.5601,10.00167 19.87325,30.17456 c 0.32157,0.50856 0.77176,0.90411 1.28628,1.18665 l 9.90447,5.9332 c 0.38589,0.22598 0.8361,0.22598 1.22198,0.0565 v 0 0 c 0.38588,-0.22597 0.57883,-0.56505 0.57883,-0.9606 z"
     id="path1354"
     style="fill:#e1e1e1;stroke-width:0.602844" />
  <path
     d="m 203.03502,105.96456 c 0,8.24997 -3.47299,15.82187 -9.197,21.69856 -2.95848,2.99486 -6.43147,5.53766 -10.41898,7.45888 -5.40244,2.65581 -11.64097,4.12499 -18.26538,4.12499 -6.62441,0 -12.86294,-1.52569 -18.20106,-4.12499 l 11.96254,-18.25166 -9.71152,-8.5325 -40.19669,61.1402 c -0.32158,0.50857 -0.51451,1.01714 -0.57884,1.5822 l -0.9004,10.51024 c -0.0643,0.39554 0.19295,0.73458 0.57883,0.96061 v 0 0 c 0.3859,0.22599 0.83609,0.16956 1.22199,-0.0564 l 9.90446,-5.87669 c 0.51452,-0.33904 0.96472,-0.7346 1.2863,-1.18663 v 0 L 140.3925,145.1803 c 7.33188,3.6164 15.82142,5.70717 24.82548,5.70717 9.00406,0 17.49359,-2.09077 24.82547,-5.70717 3.9232,-1.92125 7.52483,-4.29452 10.67624,-7.00684 9.51858,-8.13695 15.49985,-19.5513 15.49985,-32.15229 z"
     id="path1360"
     style="fill:#f1f1f1;stroke-width:0.602844" />
  <path
     d="m 177.50208,82.853336 h -4.11613 v -11.583865 -0.05643 h -8.23229 -8.16796 v 0.05643 11.583865 h -4.18046 c -4.05182,0 -7.39619,2.938347 -7.39619,6.498272 v 14.748232 h 0.0643 c -0.0643,0.56508 0.32157,1.18663 1.15766,1.92123 l 14.8567,13.05304 c 1.02903,0.90409 2.37964,1.35615 3.66594,1.35615 v -0.0564 l 0.0643,0.0564 c 1.35061,0 2.70122,-0.45206 3.66594,-1.35615 l 14.8567,-13.05304 c 0.83609,-0.7346 1.15766,-1.41266 1.15766,-1.92123 h 0.0643 V 89.408116 c -0.0643,-3.616433 -3.34436,-6.55478 -7.4605,-6.55478 z m -12.2841,23.111224 h -0.0643 v 0 c -5.40243,0 -9.84014,-3.89897 -9.84014,-8.702026 0,-4.803057 4.43771,-8.702026 9.84014,-8.702026 v -0.113114 l 0.0643,0.113114 c 5.40243,0.05643 9.84015,3.898969 9.84015,8.702026 0,4.803056 -4.43772,8.645516 -9.84015,8.702026 z"
     id="path1374"
     style="fill:#333333;stroke-width:0.602844" />
</svg>
