<svg xmlns="http://www.w3.org/2000/svg" xmlns:xlink="http://www.w3.org/1999/xlink" width="324" height="234">
  <defs>
    <radialGradient xlink:href="#a" id="m" cx="256" cy="256" r="256" fx="256" fy="256" gradientTransform="matrix(1 0 0 .68728 0 80.057)" gradientUnits="userSpaceOnUse"/>
    <radialGradient xlink:href="#b" id="n" cx="379.803" cy="263.979" r="118.509" fx="379.803" fy="263.979" gradientTransform="matrix(.8415 2.94543 -2.80608 .80169 1267.344 -1561.529)" gradientUnits="userSpaceOnUse"/>
    <radialGradient xlink:href="#c" id="o" cx="152.705" cy="175.729" r="30.957" fx="152.705" fy="175.729" gradientUnits="userSpaceOnUse"/>
    <radialGradient xlink:href="#c" id="p" cx="313.924" cy="253.095" r="37.824" fx="313.924" fy="253.095" gradientUnits="userSpaceOnUse"/>
    <radialGradient xlink:href="#c" id="q" cx="198.198" cy="253.095" r="37.824" fx="198.198" fy="253.095" gradientUnits="userSpaceOnUse"/>
    <radialGradient xlink:href="#c" id="r" cx="256.165" cy="152.464" r="22.492" fx="256.165" fy="152.464" gradientTransform="translate(486.62 -453.297)" gradientUnits="userSpaceOnUse"/>
    <radialGradient xlink:href="#d" id="s" cx="372.918" cy="133.722" r="12.626" fx="372.918" fy="133.722" gradientUnits="userSpaceOnUse"/>
    <radialGradient xlink:href="#e" id="t" cx="372.918" cy="189.84" r="12.626" fx="372.918" fy="189.84" gradientUnits="userSpaceOnUse"/>
    <radialGradient xlink:href="#f" id="u" cx="400.977" cy="161.781" r="12.626" fx="400.977" fy="161.781" gradientUnits="userSpaceOnUse"/>
    <radialGradient xlink:href="#g" id="v" cx="344.86" cy="161.781" r="12.627" fx="344.86" fy="161.781" gradientTransform="matrix(1 0 0 .99996 0 .006)" gradientUnits="userSpaceOnUse"/>
    <radialGradient xlink:href="#h" id="w" cx="313.923" cy="253.095" r="45.324" fx="313.923" fy="253.095" gradientUnits="userSpaceOnUse"/>
    <radialGradient xlink:href="#h" id="x" cx="198.198" cy="253.095" r="45.324" fx="198.198" fy="253.095" gradientUnits="userSpaceOnUse"/>
    <linearGradient id="i">
      <stop offset="0" stop-color="#eff5f8"/>
      <stop offset="1" stop-color="#ff8ad4"/>
    </linearGradient>
    <linearGradient id="j">
      <stop offset="0" stop-color="#f7fafb"/>
      <stop offset="1" stop-color="#b2cdde"/>
    </linearGradient>
    <linearGradient id="h">
      <stop offset="0" stop-color="#ffedf8"/>
      <stop offset="1" stop-color="#ff8ad4"/>
    </linearGradient>
    <linearGradient id="c">
      <stop offset="0" stop-color="#e6eff4"/>
      <stop offset="1" stop-color="#b2cdde"/>
    </linearGradient>
    <linearGradient id="b">
      <stop offset="0" stop-color="#5682a3"/>
      <stop offset="1" stop-color="#1e3647"/>
    </linearGradient>
    <linearGradient id="a">
      <stop offset="0" stop-color="#72a0c1"/>
      <stop offset="1" stop-color="#3c6889"/>
    </linearGradient>
    <linearGradient id="e">
      <stop offset="0" stop-color="#0bff58"/>
      <stop offset="1" stop-color="#00c03d"/>
    </linearGradient>
    <linearGradient id="f">
      <stop offset="0" stop-color="#ff4cbd"/>
      <stop offset="1" stop-color="#d40086"/>
    </linearGradient>
    <linearGradient id="d">
      <stop offset="0" stop-color="#ffe95d"/>
      <stop offset="1" stop-color="#e3c500"/>
    </linearGradient>
    <linearGradient id="g">
      <stop offset="0" stop-color="#4394ff"/>
      <stop offset="1" stop-color="#0055c4"/>
    </linearGradient>
    <linearGradient xlink:href="#i" id="k" x1="324" x2="324" y1="0" y2="234" gradientTransform="translate(0 -234)" gradientUnits="userSpaceOnUse"/>
    <linearGradient xlink:href="#j" id="l" x1="49.774" x2="49.774" y1="0" y2="234" gradientTransform="matrix(1 0 0 .38666 0 143.523)" gradientUnits="userSpaceOnUse"/>
  </defs>
  <path fill="url(#k)" d="M0-234h324V0H0z" transform="scale(1 -1)"/>
  <path fill="url(#l)" d="M49.774 143.523h224.453V234H49.774z"/>
  <path fill="#fff4fb" d="M63.912 168.777a2.264 2.264 0 0 0-2.265-2.264h-7.189a.754.754 0 0 1-.754-.755v-7.19a2.265 2.265 0 0 0-2.266-2.264H43.69a2.265 2.265 0 0 0-2.266 2.264v7.19a.755.755 0 0 1-.754.755h-7.19a2.264 2.264 0 0 0-2.264 2.264v7.75a2.264 2.264 0 0 0 2.265 2.264h7.189c.417 0 .754.339.754.755v2.56a.755.755 0 0 1-.754.755h-7.19a2.264 2.264 0 0 0-2.264 2.264v7.75a2.264 2.264 0 0 0 2.265 2.264h7.189c.417 0 .754.339.754.755v2.56a.755.755 0 0 1-.754.755h-7.19a2.264 2.264 0 0 0-2.264 2.264v7.75a2.264 2.264 0 0 0 2.265 2.264h7.189c.417 0 .754.338.754.755v7.19a2.265 2.265 0 0 0 2.266 2.264h7.748a2.265 2.265 0 0 0 2.266-2.264v-7.19c0-.417.337-.755.754-.755h7.19a2.264 2.264 0 0 0 2.264-2.264v-7.75a2.264 2.264 0 0 0-2.265-2.264h-7.189a.754.754 0 0 1-.754-.755v-2.56c0-.417.337-.755.754-.755h7.19a2.264 2.264 0 0 0 2.264-2.264v-7.75a2.264 2.264 0 0 0-2.265-2.264h-7.189a.754.754 0 0 1-.754-.755v-2.56c0-.417.337-.754.754-.754h7.19a2.265 2.265 0 0 0 2.264-2.265z"/>
  <path fill="#fff4fb" d="M27.341 172.652a2.264 2.264 0 0 0-2.264 2.265v7.189a.754.754 0 0 1-.755.754h-7.19a2.265 2.265 0 0 0-2.264 2.266v7.748a2.265 2.265 0 0 0 2.264 2.266h7.19c.417 0 .755.337.755.754v7.19a2.264 2.264 0 0 0 2.264 2.264h7.75a2.264 2.264 0 0 0 2.264-2.265v-7.189c0-.417.339-.754.755-.754h2.56c.417 0 .755.337.755.754v7.19a2.264 2.264 0 0 0 2.264 2.264h7.75a2.264 2.264 0 0 0 2.264-2.265v-7.189c0-.417.339-.754.755-.754h2.56c.417 0 .755.337.755.754v7.19a2.264 2.264 0 0 0 2.264 2.264h7.75a2.264 2.264 0 0 0 2.264-2.265v-7.189c0-.417.338-.754.755-.754h7.19a2.265 2.265 0 0 0 2.264-2.266v-7.748a2.265 2.265 0 0 0-2.264-2.266h-7.19a.755.755 0 0 1-.755-.754v-7.19a2.264 2.264 0 0 0-2.264-2.264h-7.75a2.264 2.264 0 0 0-2.264 2.265v7.189a.754.754 0 0 1-.755.754h-2.56a.755.755 0 0 1-.755-.754v-7.19a2.264 2.264 0 0 0-2.264-2.264h-7.75a2.264 2.264 0 0 0-2.264 2.265v7.189a.754.754 0 0 1-.755.754h-2.56a.754.754 0 0 1-.754-.754v-7.19a2.265 2.265 0 0 0-2.265-2.264zm228.872 0a2.264 2.264 0 0 0-2.264 2.265v7.19a.754.754 0 0 1-.755.753h-7.19a2.265 2.265 0 0 0-2.264 2.266v7.749a2.265 2.265 0 0 0 2.264 2.265h7.19c.417 0 .755.337.755.754v7.19a2.264 2.264 0 0 0 2.264 2.264h7.75a2.264 2.264 0 0 0 2.264-2.265v-7.189c0-.417.339-.754.755-.754h2.56c.417 0 .755.337.755.754v7.19a2.264 2.264 0 0 0 2.264 2.264h7.75a2.264 2.264 0 0 0 2.264-2.265v-7.189c0-.417.339-.754.755-.754h2.56c.417 0 .755.337.755.754v7.19a2.264 2.264 0 0 0 2.264 2.264h7.75a2.264 2.264 0 0 0 2.264-2.265v-7.189c0-.417.338-.754.755-.754h7.19a2.265 2.265 0 0 0 2.264-2.265v-7.75a2.265 2.265 0 0 0-2.264-2.265h-7.19a.755.755 0 0 1-.755-.754v-7.19a2.264 2.264 0 0 0-2.264-2.264h-7.75a2.264 2.264 0 0 0-2.264 2.265v7.19a.754.754 0 0 1-.755.753h-2.56a.755.755 0 0 1-.755-.754v-7.19a2.264 2.264 0 0 0-2.264-2.264h-7.75a2.264 2.264 0 0 0-2.264 2.265v7.19a.754.754 0 0 1-.755.753h-2.56a.754.754 0 0 1-.754-.754v-7.19a2.265 2.265 0 0 0-2.265-2.264z"/>
  <path fill="#fff4fb" d="M292.784 168.777a2.264 2.264 0 0 0-2.265-2.264h-7.189a.754.754 0 0 1-.754-.754v-7.19a2.265 2.265 0 0 0-2.266-2.265h-7.748a2.265 2.265 0 0 0-2.266 2.265v7.189a.755.755 0 0 1-.754.755h-7.19a2.264 2.264 0 0 0-2.264 2.264v7.75a2.264 2.264 0 0 0 2.265 2.264h7.189c.417 0 .754.339.754.755v2.56a.755.755 0 0 1-.754.755h-7.19a2.264 2.264 0 0 0-2.264 2.264v7.75a2.264 2.264 0 0 0 2.265 2.264h7.189c.417 0 .754.339.754.755v2.56a.755.755 0 0 1-.754.755h-7.19a2.264 2.264 0 0 0-2.264 2.264v7.75a2.264 2.264 0 0 0 2.265 2.264h7.189c.417 0 .754.338.754.755v7.19a2.265 2.265 0 0 0 2.266 2.264h7.748a2.265 2.265 0 0 0 2.266-2.264v-7.19c0-.417.337-.755.754-.755h7.19a2.264 2.264 0 0 0 2.264-2.264v-7.75a2.264 2.264 0 0 0-2.265-2.264h-7.189a.754.754 0 0 1-.754-.754v-2.56c0-.417.337-.756.754-.756h7.19a2.264 2.264 0 0 0 2.264-2.264v-7.75a2.264 2.264 0 0 0-2.265-2.264h-7.189a.754.754 0 0 1-.754-.755v-2.56c0-.416.337-.754.754-.754h7.19a2.265 2.265 0 0 0 2.264-2.265zM44.824 91.14a2.264 2.264 0 0 0-3.203 0l-5.083 5.084a.754.754 0 0 1-1.067 0l-5.084-5.084a2.265 2.265 0 0 0-3.203 0l-5.48 5.48a2.265 2.265 0 0 0 0 3.203l5.084 5.084a.755.755 0 0 1 0 1.067l-5.083 5.083a2.264 2.264 0 0 0 0 3.203l5.48 5.48a2.264 2.264 0 0 0 3.202 0l5.084-5.084a.755.755 0 0 1 1.067 0l1.81 1.81a.755.755 0 0 1 0 1.068l-5.083 5.083a2.264 2.264 0 0 0 0 3.202l5.48 5.48a2.264 2.264 0 0 0 3.202 0l5.083-5.083a.755.755 0 0 1 1.068 0l1.81 1.81a.755.755 0 0 1 0 1.067l-5.084 5.084a2.264 2.264 0 0 0 0 3.202l5.48 5.48a2.264 2.264 0 0 0 3.203 0l5.083-5.083a.754.754 0 0 1 1.067 0l5.084 5.084a2.265 2.265 0 0 0 3.203 0l5.48-5.48a2.265 2.265 0 0 0 0-3.203l-5.084-5.084a.755.755 0 0 1 0-1.067l5.083-5.083a2.264 2.264 0 0 0 0-3.203l-5.48-5.48a2.264 2.264 0 0 0-3.202 0l-5.084 5.084a.754.754 0 0 1-1.066 0l-1.81-1.81a.755.755 0 0 1-.001-1.068l5.083-5.083a2.264 2.264 0 0 0 0-3.203l-5.48-5.48a2.264 2.264 0 0 0-3.202 0l-5.083 5.084a.754.754 0 0 1-1.067 0l-1.81-1.81a.754.754 0 0 1 0-1.067l5.083-5.083a2.265 2.265 0 0 0 0-3.203zm228.872 0a2.264 2.264 0 0 0-3.203 0l-5.083 5.084a.754.754 0 0 1-1.067 0l-5.084-5.084a2.265 2.265 0 0 0-3.203 0l-5.48 5.48a2.265 2.265 0 0 0 0 3.203l5.084 5.083a.755.755 0 0 1 0 1.068l-5.083 5.083a2.264 2.264 0 0 0 0 3.203l5.48 5.48a2.264 2.264 0 0 0 3.202 0l5.084-5.084a.755.755 0 0 1 1.067 0l1.81 1.81a.755.755 0 0 1 0 1.067l-5.084 5.084a2.264 2.264 0 0 0 0 3.202l5.48 5.48a2.264 2.264 0 0 0 3.203 0l5.083-5.083a.755.755 0 0 1 1.067 0l1.81 1.81a.755.755 0 0 1 0 1.067l-5.083 5.083a2.264 2.264 0 0 0 0 3.203l5.48 5.48a2.264 2.264 0 0 0 3.202 0l5.084-5.084a.754.754 0 0 1 1.066 0l5.084 5.084a2.265 2.265 0 0 0 3.204 0l5.479-5.48a2.265 2.265 0 0 0 0-3.202l-5.083-5.084a.755.755 0 0 1 0-1.067l5.083-5.083a2.264 2.264 0 0 0 0-3.203l-5.48-5.48a2.264 2.264 0 0 0-3.202 0l-5.083 5.084a.754.754 0 0 1-1.067 0l-1.81-1.81a.755.755 0 0 1 0-1.068l5.083-5.083a2.264 2.264 0 0 0 0-3.203l-5.48-5.48a2.264 2.264 0 0 0-3.203 0l-5.083 5.084a.754.754 0 0 1-1.067 0l-1.81-1.81a.754.754 0 0 1 0-1.067l5.084-5.083a2.265 2.265 0 0 0 0-3.203z"/>
  <path fill="#fff4fb" d="M73.423 114.26a2.264 2.264 0 0 0 0-3.203l-5.083-5.083a.754.754 0 0 1 0-1.067l5.084-5.084a2.265 2.265 0 0 0 0-3.203l-5.48-5.48a2.265 2.265 0 0 0-3.203 0l-5.084 5.084a.755.755 0 0 1-1.067 0l-5.083-5.083a2.264 2.264 0 0 0-3.203 0l-5.48 5.48a2.264 2.264 0 0 0 0 3.202l5.084 5.084a.755.755 0 0 1 0 1.067l-1.81 1.81a.755.755 0 0 1-1.068 0l-5.083-5.083a2.264 2.264 0 0 0-3.203 0l-5.48 5.48a2.264 2.264 0 0 0 0 3.202l5.084 5.083a.755.755 0 0 1 0 1.068l-1.81 1.81a.755.755 0 0 1-1.067 0l-5.084-5.084a2.264 2.264 0 0 0-3.202 0l-5.48 5.48a2.264 2.264 0 0 0 0 3.203l5.083 5.083a.754.754 0 0 1 0 1.067l-5.084 5.084a2.265 2.265 0 0 0 0 3.203l5.48 5.48a2.265 2.265 0 0 0 3.203 0l5.084-5.084a.755.755 0 0 1 1.067 0l5.083 5.083a2.264 2.264 0 0 0 3.203 0l5.48-5.48a2.264 2.264 0 0 0 0-3.202l-5.084-5.084a.754.754 0 0 1 0-1.066l1.81-1.81a.755.755 0 0 1 1.068-.001l5.083 5.083a2.264 2.264 0 0 0 3.203 0l5.48-5.48a2.264 2.264 0 0 0 0-3.202l-5.084-5.083a.754.754 0 0 1 0-1.067l1.81-1.81a.754.754 0 0 1 1.067 0l5.083 5.083a2.265 2.265 0 0 0 3.203 0zm228.872 0a2.264 2.264 0 0 0 0-3.203l-5.083-5.083a.754.754 0 0 1 0-1.067l5.084-5.084a2.265 2.265 0 0 0 0-3.203l-5.48-5.48a2.265 2.265 0 0 0-3.203 0l-5.084 5.084a.755.755 0 0 1-1.067 0l-5.083-5.083a2.264 2.264 0 0 0-3.203 0l-5.48 5.48a2.264 2.264 0 0 0 0 3.202l5.084 5.084a.755.755 0 0 1 0 1.067l-1.81 1.81a.755.755 0 0 1-1.067 0l-5.084-5.084a2.264 2.264 0 0 0-3.202 0l-5.48 5.48a2.264 2.264 0 0 0 0 3.203l5.083 5.083a.755.755 0 0 1 0 1.067l-1.81 1.81a.755.755 0 0 1-1.067 0l-5.084-5.083a2.264 2.264 0 0 0-3.202 0l-5.48 5.48a2.264 2.264 0 0 0 0 3.203l5.083 5.083a.754.754 0 0 1 0 1.067l-5.084 5.084a2.265 2.265 0 0 0 0 3.203l5.48 5.48a2.265 2.265 0 0 0 3.203 0l5.083-5.084a.755.755 0 0 1 1.068 0l5.083 5.083a2.264 2.264 0 0 0 3.203 0l5.48-5.48a2.264 2.264 0 0 0 0-3.202l-5.084-5.084a.754.754 0 0 1 0-1.066l1.81-1.81a.755.755 0 0 1 1.067 0l5.084 5.083a2.264 2.264 0 0 0 3.202 0l5.48-5.48a2.264 2.264 0 0 0 0-3.203l-5.083-5.083a.754.754 0 0 1 0-1.067l1.81-1.81a.754.754 0 0 1 1.067 0l5.083 5.083a2.265 2.265 0 0 0 3.203 0zM27.341 28.652a2.264 2.264 0 0 0-2.264 2.265v7.189a.754.754 0 0 1-.755.754h-7.19a2.265 2.265 0 0 0-2.264 2.266v7.748a2.265 2.265 0 0 0 2.264 2.266h7.19c.417 0 .755.337.755.754v7.19a2.264 2.264 0 0 0 2.264 2.264h7.75a2.264 2.264 0 0 0 2.264-2.265v-7.19c0-.416.339-.753.755-.753h2.56c.417 0 .755.337.755.754v7.19a2.264 2.264 0 0 0 2.264 2.264h7.75a2.264 2.264 0 0 0 2.264-2.265v-7.19c0-.416.339-.753.755-.753h2.56c.417 0 .755.337.755.754v7.19a2.264 2.264 0 0 0 2.264 2.264h7.75a2.264 2.264 0 0 0 2.264-2.265v-7.19c0-.416.338-.753.755-.753h7.19a2.265 2.265 0 0 0 2.264-2.266v-7.748a2.265 2.265 0 0 0-2.264-2.266h-7.19a.755.755 0 0 1-.755-.754v-7.19a2.264 2.264 0 0 0-2.264-2.264h-7.75a2.264 2.264 0 0 0-2.264 2.265v7.189a.754.754 0 0 1-.755.754h-2.56a.755.755 0 0 1-.755-.754v-7.19a2.264 2.264 0 0 0-2.264-2.264h-7.75a2.264 2.264 0 0 0-2.264 2.265v7.189a.754.754 0 0 1-.755.754h-2.56a.754.754 0 0 1-.754-.754v-7.19a2.265 2.265 0 0 0-2.265-2.264zm228.872 0a2.264 2.264 0 0 0-2.264 2.265v7.189a.754.754 0 0 1-.755.754h-7.19a2.265 2.265 0 0 0-2.264 2.265v7.75a2.265 2.265 0 0 0 2.264 2.265h7.19c.416 0 .755.337.755.754v7.189a2.264 2.264 0 0 0 2.264 2.264h7.75a2.264 2.264 0 0 0 2.264-2.264v-7.19c0-.416.339-.753.755-.753h2.56c.417 0 .755.337.755.754v7.189a2.264 2.264 0 0 0 2.264 2.264h7.75a2.264 2.264 0 0 0 2.264-2.264v-7.19c0-.416.339-.753.755-.753h2.56c.416 0 .755.337.755.754v7.189a2.264 2.264 0 0 0 2.264 2.264h7.75a2.264 2.264 0 0 0 2.264-2.264v-7.19c0-.416.338-.753.755-.753h7.19a2.265 2.265 0 0 0 2.264-2.266v-7.749a2.265 2.265 0 0 0-2.264-2.265h-7.19a.755.755 0 0 1-.755-.754v-7.19a2.264 2.264 0 0 0-2.264-2.264h-7.75a2.264 2.264 0 0 0-2.264 2.265v7.189a.754.754 0 0 1-.755.754h-2.56a.755.755 0 0 1-.755-.754v-7.19a2.264 2.264 0 0 0-2.264-2.264h-7.75a2.264 2.264 0 0 0-2.264 2.265v7.189a.754.754 0 0 1-.755.754h-2.56a.754.754 0 0 1-.754-.754v-7.19a2.265 2.265 0 0 0-2.265-2.264z"/>
  <path fill="#fff4fb" d="M63.912 24.777a2.264 2.264 0 0 0-2.265-2.264h-7.189a.754.754 0 0 1-.754-.755v-7.19a2.265 2.265 0 0 0-2.266-2.264H43.69a2.265 2.265 0 0 0-2.266 2.264v7.19a.755.755 0 0 1-.754.755h-7.19a2.264 2.264 0 0 0-2.264 2.264v7.75a2.264 2.264 0 0 0 2.265 2.264h7.189c.417 0 .754.339.754.755v2.56a.755.755 0 0 1-.754.755h-7.19a2.264 2.264 0 0 0-2.264 2.264v7.75a2.264 2.264 0 0 0 2.265 2.264h7.189c.417 0 .754.339.754.755v2.56a.755.755 0 0 1-.754.755h-7.19a2.264 2.264 0 0 0-2.264 2.264v7.75a2.264 2.264 0 0 0 2.265 2.264h7.189c.417 0 .754.338.754.754v7.19a2.265 2.265 0 0 0 2.266 2.265h7.748a2.265 2.265 0 0 0 2.266-2.265v-7.189c0-.417.337-.755.754-.755h7.19a2.264 2.264 0 0 0 2.264-2.264v-7.75a2.264 2.264 0 0 0-2.265-2.264h-7.189a.754.754 0 0 1-.754-.755v-2.56c0-.417.337-.755.754-.755h7.19a2.264 2.264 0 0 0 2.264-2.264v-7.75a2.264 2.264 0 0 0-2.265-2.264h-7.189a.754.754 0 0 1-.754-.755v-2.56c0-.417.337-.754.754-.754h7.19a2.265 2.265 0 0 0 2.264-2.265zm228.872 0a2.264 2.264 0 0 0-2.265-2.264h-7.189a.754.754 0 0 1-.754-.755v-7.19a2.265 2.265 0 0 0-2.266-2.264h-7.748a2.265 2.265 0 0 0-2.266 2.264v7.19a.755.755 0 0 1-.754.755h-7.19a2.264 2.264 0 0 0-2.264 2.264v7.75a2.264 2.264 0 0 0 2.265 2.264h7.189c.417 0 .754.339.754.755v2.56a.755.755 0 0 1-.754.755h-7.19a2.264 2.264 0 0 0-2.264 2.264v7.75a2.264 2.264 0 0 0 2.265 2.264h7.189c.417 0 .754.339.754.755v2.56a.755.755 0 0 1-.754.755h-7.19a2.264 2.264 0 0 0-2.264 2.264v7.75a2.264 2.264 0 0 0 2.265 2.264h7.189c.417 0 .754.338.754.754v7.19a2.265 2.265 0 0 0 2.266 2.265h7.748a2.265 2.265 0 0 0 2.266-2.265v-7.189c0-.417.337-.755.754-.755h7.19a2.264 2.264 0 0 0 2.264-2.264v-7.75a2.264 2.264 0 0 0-2.265-2.264h-7.189a.754.754 0 0 1-.754-.755v-2.56c0-.417.337-.755.754-.755h7.19a2.264 2.264 0 0 0 2.264-2.264v-7.75a2.264 2.264 0 0 0-2.265-2.264h-7.189a.754.754 0 0 1-.754-.755v-2.56c0-.417.337-.754.754-.754h7.19a2.265 2.265 0 0 0 2.264-2.265zm-151.007 3.875a2.264 2.264 0 0 0-2.264 2.265v7.189a.754.754 0 0 1-.755.754h-7.19a2.265 2.265 0 0 0-2.264 2.266v7.748a2.265 2.265 0 0 0 2.264 2.266h7.19c.417 0 .755.337.755.754v7.19a2.264 2.264 0 0 0 2.264 2.264h7.75a2.264 2.264 0 0 0 2.264-2.265v-7.189c0-.417.339-.754.755-.754h2.56c.417 0 .755.337.755.754v7.19a2.264 2.264 0 0 0 2.264 2.264h7.75a2.264 2.264 0 0 0 2.264-2.265v-7.189c0-.417.339-.754.755-.754h2.56c.417 0 .755.337.755.754v7.19a2.264 2.264 0 0 0 2.264 2.264h7.75a2.264 2.264 0 0 0 2.264-2.265v-7.189c0-.417.338-.754.755-.754h7.19a2.265 2.265 0 0 0 2.264-2.266v-7.748a2.265 2.265 0 0 0-2.264-2.266h-7.19a.755.755 0 0 1-.755-.754v-7.19a2.264 2.264 0 0 0-2.264-2.264h-7.75a2.264 2.264 0 0 0-2.264 2.265v7.189a.754.754 0 0 1-.755.754h-2.56a.755.755 0 0 1-.755-.754v-7.19a2.264 2.264 0 0 0-2.264-2.264h-7.75a2.264 2.264 0 0 0-2.264 2.265v7.189a.754.754 0 0 1-.755.754h-2.56a.754.754 0 0 1-.754-.754v-7.19a2.265 2.265 0 0 0-2.265-2.264z"/>
  <path fill="#fff4fb" d="M178.348 24.777a2.264 2.264 0 0 0-2.265-2.264h-7.189a.754.754 0 0 1-.754-.755v-7.19a2.265 2.265 0 0 0-2.265-2.264h-7.75a2.265 2.265 0 0 0-2.265 2.264v7.19a.755.755 0 0 1-.754.755h-7.189a2.264 2.264 0 0 0-2.264 2.264v7.75a2.264 2.264 0 0 0 2.264 2.264h7.19c.416 0 .753.339.753.755v2.56a.755.755 0 0 1-.754.755h-7.189a2.264 2.264 0 0 0-2.264 2.264v7.75a2.264 2.264 0 0 0 2.264 2.264h7.19c.416 0 .753.339.753.755v2.56a.755.755 0 0 1-.754.755h-7.189a2.264 2.264 0 0 0-2.264 2.264v7.75a2.264 2.264 0 0 0 2.264 2.264h7.19c.416 0 .753.338.753.755v7.19a2.265 2.265 0 0 0 2.266 2.264h7.749a2.265 2.265 0 0 0 2.265-2.265v-7.189c0-.417.337-.755.754-.755h7.19a2.264 2.264 0 0 0 2.264-2.264v-7.75a2.264 2.264 0 0 0-2.265-2.264h-7.189a.754.754 0 0 1-.754-.755v-2.56c0-.417.337-.755.754-.755h7.19a2.264 2.264 0 0 0 2.264-2.264v-7.75a2.264 2.264 0 0 0-2.265-2.264h-7.189a.754.754 0 0 1-.754-.755v-2.56c0-.417.337-.754.754-.754h7.19a2.265 2.265 0 0 0 2.264-2.265z"/>
  <g transform="translate(-160.302 199.363) scale(.43266)">
    <path fill="#34546c" d="m995.837-142.012-55.473-155.293c-13.296-37.221-48.554-62.067-88.08-62.067H642.199c-39.525 0-74.783 24.845-88.08 62.067l-55.471 155.293a127.04 127.04 0 0 0 15.905 116.077c17.318 24.493 53.61 24.62 71.1.249l55.094-76.776a36.372 36.372 0 0 1 29.55-15.167h153.89a36.371 36.371 0 0 1 29.55 15.167l55.095 76.776c17.489 24.37 53.782 24.244 71.1-.25a127.037 127.037 0 0 0 15.906-116.076z"/>
    <path fill="url(#m)" d="m504.595 297.417-55.473-155.293c-13.296-37.221-48.554-62.067-88.079-62.067H150.956c-39.525 0-74.783 24.845-88.079 62.067L7.405 297.417A127.04 127.04 0 0 0 23.31 413.494c17.318 24.493 53.611 24.62 71.1.249l55.094-76.776a36.372 36.372 0 0 1 29.551-15.167h153.889a36.371 36.371 0 0 1 29.551 15.167l55.094 76.776c17.489 24.371 53.782 24.244 71.1-.249a127.037 127.037 0 0 0 15.906-116.077z" transform="translate(486.62 -453.297)"/>
    <path fill="url(#n)" d="m991.215-155.88-55.473-155.293c-13.296-37.22-48.554-62.067-88.079-62.067h-86.062c39.525 0 74.783 24.845 88.08 62.067l55.472 155.293c12.46 34.88 9.002 73.226-8.984 105.121l8.041 11.205c17.49 24.371 53.782 24.244 71.1-.249a127.045 127.045 0 0 0 15.905-116.077z"/>
    <path fill="#dbe6f1" d="M664.045-308.525h-19.794a2.078 2.078 0 0 1-2.078-2.078v-19.794a6.235 6.235 0 0 0-6.235-6.235h-21.337a6.235 6.235 0 0 0-6.235 6.235v19.794a2.078 2.078 0 0 1-2.078 2.078h-19.795a6.235 6.235 0 0 0-6.235 6.235v21.337a6.235 6.235 0 0 0 6.235 6.235h19.794c1.148 0 2.078.931 2.078 2.078v19.794a6.235 6.235 0 0 0 6.235 6.235h21.337a6.235 6.235 0 0 0 6.235-6.235v-19.794c0-1.148.931-2.078 2.078-2.078h19.794a6.235 6.235 0 0 0 6.235-6.235v-21.337a6.234 6.234 0 0 0-6.234-6.235z"/>
    <path fill="url(#o)" d="M177.426 144.772h-7.316v14.021a6.235 6.235 0 0 1-6.235 6.235h-14.597a7.274 7.274 0 0 0-7.274 7.274V186.9a6.235 6.235 0 0 1-6.235 6.235h-14.021v7.316a6.235 6.235 0 0 0 6.235 6.235h21.337a6.235 6.235 0 0 0 6.235-6.235v-19.794c0-1.148.931-2.078 2.078-2.078h19.794a6.235 6.235 0 0 0 6.235-6.235v-21.337a6.237 6.237 0 0 0-6.236-6.235z" transform="translate(486.62 -453.297)"/>
    <circle cx="313.924" cy="253.095" r="37.824" fill="url(#p)" transform="translate(486.62 -453.297)"/>
    <circle cx="198.198" cy="253.095" r="37.824" fill="url(#q)" transform="translate(486.62 -453.297)"/>
    <path fill="#dbe6f1" d="M809.885-236.86a37.903 37.903 0 0 1 1.165 9.341c0 20.89-16.934 37.824-37.824 37.824-3.224 0-6.354-.406-9.342-1.165 4.16 16.371 18.994 28.482 36.66 28.482 20.89 0 37.823-16.934 37.823-37.824 0-17.665-12.11-32.5-28.482-36.659zm-115.725 0a37.903 37.903 0 0 1 1.164 9.341c0 20.89-16.934 37.824-37.824 37.824-3.224 0-6.354-.406-9.342-1.165 4.16 16.371 18.994 28.482 36.66 28.482 20.89 0 37.823-16.934 37.823-37.824 0-17.665-12.11-32.499-28.482-36.659z"/>
    <circle cx="742.784" cy="-300.833" r="22.492" fill="url(#r)"/>
    <path fill="#dbe6f1" d="M751.618-321.522a22.41 22.41 0 0 1 1.803 8.834c0 12.422-10.07 22.492-22.492 22.492-3.136 0-6.122-.644-8.834-1.803 3.433 8.03 11.403 13.658 20.69 13.658 12.421 0 22.491-10.07 22.491-22.492 0-9.286-5.628-17.256-13.658-20.689z"/>
    <g transform="translate(486.62 -453.297)">
      <path fill="url(#s)" d="M372.918 121.096c-6.973 0-12.626 5.653-12.626 12.626s5.653 12.626 12.626 12.626c6.974 0 12.626-5.653 12.626-12.626s-5.652-12.626-12.626-12.626z"/>
      <path fill="url(#t)" d="M372.918 202.466c6.974 0 12.626-5.653 12.626-12.626s-5.653-12.626-12.626-12.626-12.626 5.653-12.626 12.626 5.653 12.626 12.626 12.626z"/>
      <circle cx="400.977" cy="161.781" r="12.626" fill="url(#u)"/>
      <path fill="url(#v)" d="M357.486 161.781c0-6.973-5.653-12.626-12.627-12.626-6.973 0-12.626 5.653-12.626 12.626s5.653 12.626 12.626 12.626c6.974.001 12.627-5.653 12.627-12.626z"/>
    </g>
    <path fill="url(#w)" d="M313.923 298.419c-24.992 0-45.324-20.332-45.324-45.324 0-24.992 20.332-45.324 45.324-45.324 24.992 0 45.324 20.333 45.324 45.324s-20.331 45.324-45.324 45.324zm0-75.648c-16.721 0-30.324 13.604-30.324 30.324 0 16.72 13.604 30.324 30.324 30.324 16.72 0 30.324-13.603 30.324-30.324 0-16.721-13.603-30.324-30.324-30.324z" transform="translate(486.62 -453.297)"/>
    <path fill="url(#x)" d="M198.198 298.419c-24.992 0-45.324-20.333-45.324-45.324s20.332-45.324 45.324-45.324c24.992 0 45.324 20.333 45.324 45.324s-20.332 45.324-45.324 45.324zm0-75.648c-16.721 0-30.324 13.604-30.324 30.324 0 16.72 13.604 30.324 30.324 30.324 16.72 0 30.324-13.604 30.324-30.324 0-16.72-13.604-30.324-30.324-30.324z" transform="translate(486.62 -453.297)"/>
  </g>
</svg>
