<?xml version="1.0" encoding="UTF-8"?>
<svg xmlns="http://www.w3.org/2000/svg" xmlns:xlink="http://www.w3.org/1999/xlink" width="324px" height="234px" viewBox="0 0 324 234" version="1.1">
<defs>
<radialGradient id="radial0" gradientUnits="userSpaceOnUse" cx="90.136406" cy="72.321983" fx="90.136406" fy="72.321983" r="47.052708" gradientTransform="matrix(1,0,0,0.603964,0,28.64213)">
<stop offset="0" style="stop-color:rgb(16.470589%,17.254902%,18.431373%);stop-opacity:1;"/>
<stop offset="1" style="stop-color:rgb(25.882354%,27.450982%,28.627452%);stop-opacity:1;"/>
</radialGradient>
<linearGradient id="linear0" gradientUnits="userSpaceOnUse" x1="71.342461" y1="135.443344" x2="668.83606" y2="135.443344" gradientTransform="matrix(0.140562,0,0,0.173996,38.12048,21.746292)">
<stop offset="0" style="stop-color:rgb(15.294118%,16.862746%,17.647059%);stop-opacity:1;"/>
<stop offset="1" style="stop-color:rgb(20%,22.352941%,24.313726%);stop-opacity:1;"/>
</linearGradient>
</defs>
<g id="surface1">
<rect x="0" y="0" width="324" height="234" style="fill:rgb(94.117647%,29.411766%,18.431373%);fill-opacity:1;stroke:none;"/>
<path style="fill:none;stroke-width:1.021703;stroke-linecap:butt;stroke-linejoin:miter;stroke:rgb(100%,100%,100%);stroke-opacity:1;stroke-miterlimit:4;" d="M -0.94401 -1.082899 L 181.217448 -1.082899 L 181.217448 130.605469 L -0.94401 130.605469 Z M -0.94401 -1.082899 " transform="matrix(1.8,0,0,1.8,0,0)"/>
<path style="fill-rule:nonzero;fill:url(#radial0);stroke-width:0.156388;stroke-linecap:butt;stroke-linejoin:miter;stroke:rgb(0%,0%,0%);stroke-opacity:1;stroke-miterlimit:4;" d="M 64.815538 44.06684 C 60.598958 44.029948 54.628906 47.022569 52.263455 48.183594 C 51.590712 48.515625 49.819878 51.458333 48.719618 54.318576 C 48.226997 55.598958 44.602865 68.613281 44.602865 68.613281 C 44.602865 68.613281 42.897135 78.678385 43.196615 84.644097 C 43.498264 90.607639 46.40842 96.078559 46.40842 96.078559 C 46.40842 96.078559 48.875868 99.053819 50.203993 99.676649 C 51.792535 100.425347 54.68099 100.878906 56.24783 100.553385 C 59.882812 99.793837 70.084635 93.368056 70.78776 92.994792 C 71.490885 92.621528 72.18099 92.280816 72.851562 92.070312 C 73.346354 92.65191 77.085503 93.049045 78.993056 92.304688 C 80.900608 91.55816 81.933594 90.922309 82.81901 90 C 84.470486 89.887153 87.452257 89.893663 90.184462 89.911024 C 92.910156 89.893663 95.883247 89.887153 97.532552 90 C 98.417969 90.922309 99.446615 91.55816 101.349826 92.304688 C 103.255208 93.049045 106.987847 92.65191 107.482639 92.070312 C 108.151042 92.280816 108.836806 92.621528 109.53776 92.994792 C 110.238715 93.368056 120.423177 99.793837 124.051649 100.553385 C 125.614149 100.878906 128.496094 100.418837 130.082465 99.672309 C 131.40625 99.047309 133.869358 96.078559 133.869358 96.078559 C 133.869358 96.078559 136.775174 90.611979 137.074653 84.648438 C 137.376302 78.684896 135.674913 68.619792 135.674913 68.619792 C 135.674913 68.619792 132.057292 55.609809 131.56684 54.329427 C 130.46875 51.469184 128.608941 48.255208 127.938368 47.925347 C 126.213108 47.076823 122.845052 45.032552 119.06684 44.307726 C 116.71875 43.858507 113.921441 43.804253 111.931424 44.607205 C 110.590278 45.14974 109.407552 46.551649 108.519965 47.178819 C 107.482639 47.910156 103.246528 51.082899 100.842014 51.827257 C 97.33941 52.552083 93.739149 52.519531 90.219184 52.404514 C 90.219184 52.404514 81.950955 52.523872 79.542101 51.777344 C 77.131076 51.032986 73.917101 48.339844 72.877604 47.608507 C 71.987847 46.981337 71.351997 46.299913 69.37066 45.143229 C 67.836372 44.036458 66.189236 44.06684 64.815538 44.06684 Z M 64.815538 44.06684 " transform="matrix(1.8,0,0,1.8,0,0)"/>
<path style="fill-rule:nonzero;fill:rgb(88.235295%,88.235295%,88.235295%);fill-opacity:1;stroke-width:0.156231;stroke-linecap:butt;stroke-linejoin:miter;stroke:rgb(0%,0%,0%);stroke-opacity:1;stroke-miterlimit:4;" d="M 86.443142 81.536458 C 86.443142 87.384983 81.762153 92.126736 75.989583 92.126736 C 70.214844 92.126736 65.536024 87.384983 65.536024 81.536458 C 65.536024 75.687934 70.214844 70.946181 75.989583 70.946181 C 81.762153 70.946181 86.443142 75.687934 86.443142 81.536458 Z M 86.443142 81.536458 " transform="matrix(1.8,0,0,1.8,0,0)"/>
<path style="fill-rule:nonzero;fill:rgb(78.823531%,78.823531%,78.823531%);fill-opacity:1;stroke-width:0.180188;stroke-linecap:butt;stroke-linejoin:miter;stroke:rgb(0%,0%,0%);stroke-opacity:1;stroke-miterlimit:4;" d="M 85.62283 82.510851 C 85.62283 87.921007 81.239149 92.306858 75.828993 92.306858 C 70.421007 92.306858 66.037326 87.921007 66.037326 82.510851 C 66.037326 77.100694 70.421007 72.712674 75.828993 72.712674 C 81.239149 72.712674 85.62283 77.100694 85.62283 82.510851 Z M 85.62283 82.510851 " transform="matrix(1.8,0,0,1.8,0,0)"/>
<path style="fill-rule:nonzero;fill:url(#linear0);stroke-width:0.156388;stroke-linecap:butt;stroke-linejoin:miter;stroke:rgb(0%,0%,0%);stroke-opacity:1;stroke-miterlimit:4;" d="M 64.865451 34.520399 C 63.075087 34.570312 61.388889 34.986979 60.811632 35.180122 C 59.889323 35.486111 59.357639 36.148003 59.357639 36.148003 L 54.85026 41.371528 C 54.85026 41.371528 54.142795 42.274306 54.071181 42.384983 C 53.159722 43.797743 52.953559 43.812934 52.81033 44.164497 C 52.669271 44.516059 52.204861 45.108507 51.974826 45.525174 C 51.827257 45.789931 51.445312 46.649306 51.232639 46.87066 C 51.017795 47.089844 48.213976 55.93316 48.213976 55.93316 C 48.213976 55.93316 51.449653 51.675347 53.561198 50.562066 C 58.13151 48.153212 63.472222 47.133247 68.352865 48.292101 C 72.172309 49.201389 74.835069 53.934462 78.576389 55.251736 C 82.239583 56.538628 86.176215 55.998264 89.984809 55.972222 C 94.142795 55.94184 98.43099 56.397569 102.434896 55.00434 C 106.171875 53.704427 108.923611 49.181858 112.736545 48.28342 C 117.782118 47.092014 123.491753 47.432726 128.055556 50.349392 C 129.84592 51.495226 132.068142 55.94401 132.068142 55.94401 C 132.068142 55.94401 129.270833 47.094184 129.05816 46.875 C 128.89974 46.545139 128.493924 45.887587 128.422309 45.581597 C 128.352865 45.273438 127.443576 44.329427 127.302517 43.977865 C 127.159288 43.626302 127.157118 43.934462 126.223958 42.549913 C 125.94184 42.133247 125.442708 41.382378 125.442708 41.382378 L 120.946181 36.158854 C 120.946181 36.158854 120.412326 35.496962 119.492188 35.190972 C 118.569878 34.882812 114.819878 34.025608 112.33724 34.971788 C 110.416667 35.705295 110.141059 36.158854 110.141059 36.158854 C 110.141059 36.158854 109.079861 37.786458 108.298611 38.094618 C 107.519531 38.400608 104.014757 41.297743 101.534288 41.605903 C 99.05599 41.914062 96.644965 42.398003 95.794271 42.133247 C 94.943576 41.87066 90.184462 41.944444 90.184462 41.944444 L 90.184462 41.933594 C 90.184462 41.933594 85.414497 41.859809 84.561632 42.122396 C 83.710938 42.387153 81.297743 41.903212 78.812934 41.595052 C 76.328125 41.286892 72.81033 38.385417 72.03125 38.077257 C 71.25 37.769097 70.184462 36.148003 70.184462 36.148003 C 70.184462 36.148003 69.919705 35.607639 67.983941 34.960938 C 67.042101 34.646267 65.93967 34.492188 64.865451 34.520399 Z M 64.865451 34.520399 " transform="matrix(1.8,0,0,1.8,0,0)"/>
<path style="fill-rule:nonzero;fill:rgb(0%,0%,0%);fill-opacity:1;stroke-width:0.153235;stroke-linecap:butt;stroke-linejoin:miter;stroke:rgb(0%,0%,0%);stroke-opacity:1;stroke-miterlimit:4;" d="M 61.538628 33.465712 L 67.931858 35.575087 L 66.193576 43.661024 L 60.227865 41.796875 Z M 61.538628 33.465712 " transform="matrix(1.8,0,0,1.8,0,0)"/>
<path style="fill-rule:nonzero;fill:rgb(97.254902%,97.254902%,97.254902%);fill-opacity:1;stroke-width:0.156388;stroke-linecap:butt;stroke-linejoin:miter;stroke:rgb(0%,0%,0%);stroke-opacity:1;stroke-miterlimit:4;" d="M 60.288628 41.332465 C 60.288628 41.332465 61.193576 34.466146 61.217448 33.999566 C 61.24349 33.532986 61.519097 30.674913 61.595052 30.271267 C 61.668837 29.867622 62.547743 28.934462 62.875434 28.934462 C 63.200955 28.934462 65.609809 28.934462 65.609809 28.934462 C 65.609809 28.934462 67.291667 29.277344 67.34158 30.737847 C 67.391493 32.198351 67.417535 33.75 67.417535 33.75 L 66.966146 40.896267 Z M 60.288628 41.332465 " transform="matrix(1.8,0,0,1.8,0,0)"/>
<path style="fill-rule:nonzero;fill:rgb(95.294118%,95.294118%,95.294118%);fill-opacity:0.452128;stroke-width:0.156388;stroke-linecap:butt;stroke-linejoin:miter;stroke:rgb(0%,0%,0%);stroke-opacity:1;stroke-miterlimit:4;" d="M 115.833333 43.982205 C 114.427083 43.973524 113.051215 44.155816 111.931424 44.607205 C 110.590278 45.14974 109.407552 46.553819 108.519965 47.178819 C 107.482639 47.912326 103.246528 51.082899 100.842014 51.829427 C 97.33941 52.554253 93.739149 52.519531 90.219184 52.404514 C 90.219184 52.404514 81.950955 52.526042 79.542101 51.779514 C 77.131076 51.032986 73.917101 48.342014 72.877604 47.608507 C 71.987847 46.983507 71.365017 46.317274 69.38151 45.16276 C 67.849392 44.05599 66.187066 44.06901 64.813368 44.06901 C 60.596788 44.032118 54.628906 46.827257 52.263455 47.988281 C 51.603733 48.311632 49.882812 51.354167 48.780382 54.166667 C 48.457031 55.175781 48.213976 55.93316 48.213976 55.93316 C 48.213976 55.93316 51.447483 51.675347 53.559028 50.562066 C 58.13151 48.153212 63.474392 47.135417 68.352865 48.294271 C 72.172309 49.201389 74.835069 53.932292 78.574219 55.249566 C 82.237413 56.536458 86.176215 55.998264 89.982639 55.972222 C 94.140625 55.94184 98.43316 56.395399 102.434896 55.00434 C 106.171875 53.704427 108.923611 49.181858 112.736545 48.28342 C 117.782118 47.094184 123.493924 47.432726 128.057726 50.349392 C 129.84809 51.493056 132.068142 55.94401 132.068142 55.94401 C 132.068142 55.94401 131.827257 55.190972 131.506076 54.184028 C 130.401476 51.360677 128.59809 48.248698 127.938368 47.925347 C 126.213108 47.076823 122.845052 45.034722 119.06684 44.307726 C 118.038194 44.112413 116.927083 43.988715 115.833333 43.982205 Z M 115.833333 43.982205 " transform="matrix(1.8,0,0,1.8,0,0)"/>
<path style="fill-rule:nonzero;fill:rgb(94.509804%,94.509804%,94.509804%);fill-opacity:1;stroke-width:0.156388;stroke-linecap:butt;stroke-linejoin:miter;stroke:rgb(0%,0%,0%);stroke-opacity:1;stroke-miterlimit:4;" d="M 52.157118 46.894531 L 52.306858 45.060764 C 52.306858 45.060764 52.207031 43.383247 54.21441 42.326389 C 56.221788 41.269531 57.929688 39.934896 60.264757 39.344618 C 62.597656 38.75434 64.003906 38.59809 65.132378 38.628472 C 66.263021 38.661024 68.044705 38.815104 68.246528 38.90842 C 68.446181 39.001736 68.74783 40.121528 68.999566 40.182292 C 69.249132 40.245226 69.876302 40.46224 69.876302 40.46224 L 69.952257 42.669271 L 69.375 45.123698 C 69.375 45.123698 67.567274 43.569878 62.823351 44.37717 C 58.079427 45.184462 56.599392 46.085069 56.599392 46.085069 C 56.599392 46.085069 52.356771 48.135851 52.207031 47.981771 C 52.055122 47.825521 52.157118 46.894531 52.157118 46.894531 Z M 52.157118 46.894531 " transform="matrix(1.8,0,0,1.8,0,0)"/>
<path style="fill-rule:nonzero;fill:rgb(0%,0%,0%);fill-opacity:1;stroke-width:0.156231;stroke-linecap:butt;stroke-linejoin:miter;stroke:rgb(0%,0%,0%);stroke-opacity:1;stroke-miterlimit:4;" d="M 112.860243 35.394965 L 118.986545 33.355035 L 120.744358 41.434462 L 114.618056 43.474392 Z M 112.860243 35.394965 " transform="matrix(1.8,0,0,1.8,0,0)"/>
<path style="fill-rule:nonzero;fill:rgb(97.254902%,97.254902%,97.254902%);fill-opacity:1;stroke-width:0.156212;stroke-linecap:butt;stroke-linejoin:miter;stroke:rgb(0%,0%,0%);stroke-opacity:1;stroke-miterlimit:4;" d="M 120.514323 41.25651 C 120.514323 41.25651 119.613715 34.390191 119.587674 33.925781 C 119.563802 33.459201 119.288194 30.601128 119.21224 30.197483 C 119.136285 29.793837 118.259549 28.860677 117.934028 28.860677 C 117.608507 28.860677 115.203993 28.860677 115.203993 28.860677 C 115.203993 28.860677 113.526476 29.203559 113.476562 30.664062 C 113.424479 32.122396 113.400608 33.676215 113.400608 33.676215 L 113.851997 40.820312 Z M 120.514323 41.25651 " transform="matrix(1.8,0,0,1.8,0,0)"/>
<path style="fill-rule:nonzero;fill:rgb(94.509804%,94.509804%,94.509804%);fill-opacity:1;stroke-width:0.156231;stroke-linecap:butt;stroke-linejoin:miter;stroke:rgb(0%,0%,0%);stroke-opacity:1;stroke-miterlimit:4;" d="M 128.133681 46.903212 L 127.983941 45.071615 C 127.983941 45.071615 128.083767 43.394097 126.078559 42.33724 C 124.075521 41.282552 122.371962 39.945747 120.043403 39.355469 C 117.712674 38.765191 116.310764 38.608941 115.182292 38.641493 C 114.05599 38.671875 112.276476 38.828125 112.076823 38.921441 C 111.87717 39.014757 111.575521 40.132378 111.325955 40.195312 C 111.074219 40.256076 110.449219 40.47309 110.449219 40.47309 L 110.373264 42.680122 L 110.950521 45.132378 C 110.950521 45.132378 112.753906 43.580729 117.486979 44.388021 C 122.222222 45.195312 123.700087 46.09592 123.700087 46.09592 C 123.700087 46.09592 127.934028 48.146701 128.083767 47.990451 C 128.233507 47.836372 128.133681 46.903212 128.133681 46.903212 Z M 128.133681 46.903212 " transform="matrix(1.8,0,0,1.8,0,0)"/>
<path style="fill-rule:nonzero;fill:rgb(0%,19.607843%,69.01961%);fill-opacity:1;stroke-width:0.156231;stroke-linecap:butt;stroke-linejoin:miter;stroke:rgb(0%,0%,0%);stroke-opacity:1;stroke-miterlimit:4;" d="M 114.739583 64.733073 C 114.739583 66.742622 113.233507 68.372396 111.373698 68.372396 C 109.516059 68.372396 108.007812 66.742622 108.007812 64.733073 C 108.007812 62.723524 109.516059 61.09375 111.373698 61.09375 C 113.233507 61.09375 114.739583 62.723524 114.739583 64.733073 Z M 114.739583 64.733073 " transform="matrix(1.8,0,0,1.8,0,0)"/>
<path style="fill-rule:nonzero;fill:rgb(5.490196%,32.156864%,100%);fill-opacity:1;stroke-width:0.156231;stroke-linecap:butt;stroke-linejoin:miter;stroke:rgb(0%,0%,0%);stroke-opacity:1;stroke-miterlimit:4;" d="M 114.516059 65.31901 C 114.516059 67.000868 113.142361 68.363715 111.449653 68.363715 C 109.754774 68.363715 108.381076 67.000868 108.381076 65.31901 C 108.381076 63.637153 109.754774 62.274306 111.449653 62.274306 C 113.142361 62.274306 114.516059 63.637153 114.516059 65.31901 Z M 114.516059 65.31901 " transform="matrix(1.8,0,0,1.8,0,0)"/>
<path style="fill-rule:nonzero;fill:rgb(14.117648%,58.431375%,0%);fill-opacity:1;stroke-width:0.209569;stroke-linecap:butt;stroke-linejoin:miter;stroke:rgb(0%,0%,0%);stroke-opacity:1;stroke-miterlimit:4;" d="M 122.100694 71.417101 C 122.335069 73.307292 120.957031 75.138889 119.021267 75.507812 C 117.085503 75.876736 115.325521 74.646267 115.091146 72.756076 C 114.854601 70.868056 116.232639 69.036458 118.168403 68.667535 C 120.104167 68.298611 121.864149 69.52908 122.100694 71.417101 Z M 122.100694 71.417101 " transform="matrix(1.8,0,0,1.8,0,0)"/>
<path style="fill-rule:nonzero;fill:rgb(20.784314%,85.09804%,0%);fill-opacity:1;stroke-width:0.1891;stroke-linecap:butt;stroke-linejoin:miter;stroke:rgb(0%,0%,0%);stroke-opacity:1;stroke-miterlimit:4;" d="M 121.918403 72.154948 C 122.159288 73.886719 120.967882 75.585938 119.259983 75.948351 C 117.552083 76.310764 115.972222 75.197483 115.733507 73.463542 C 115.494792 71.731771 116.684028 70.032552 118.391927 69.670139 C 120.099826 69.307726 121.679688 70.421007 121.918403 72.154948 Z M 121.918403 72.154948 " transform="matrix(1.8,0,0,1.8,0,0)"/>
<path style="fill-rule:nonzero;fill:rgb(85.09804%,76.47059%,0%);fill-opacity:1;stroke-width:0.18475;stroke-linecap:butt;stroke-linejoin:miter;stroke:rgb(0%,0%,0%);stroke-opacity:1;stroke-miterlimit:4;" d="M 122.996962 55.436198 C 123.417969 57.510851 122.165799 59.68967 120.199653 60.299479 C 118.235677 60.909288 116.302083 59.722222 115.881076 57.647569 C 115.460069 55.570747 116.71224 53.394097 118.676215 52.784288 C 120.642361 52.174479 122.575955 53.361545 122.996962 55.436198 Z M 122.996962 55.436198 " transform="matrix(1.8,0,0,1.8,0,0)"/>
<path style="fill-rule:nonzero;fill:rgb(100%,90.980393%,13.725491%);fill-opacity:1;stroke-width:0.166125;stroke-linecap:butt;stroke-linejoin:miter;stroke:rgb(0%,0%,0%);stroke-opacity:1;stroke-miterlimit:4;" d="M 122.706163 56.423611 C 123.081597 58.337674 121.981337 60.30816 120.249566 60.826823 C 118.517795 61.343316 116.812066 60.212674 116.438802 58.300781 C 116.065538 56.386719 117.165799 54.416233 118.897569 53.89974 C 120.62717 53.381076 122.332899 54.511719 122.706163 56.423611 Z M 122.706163 56.423611 " transform="matrix(1.8,0,0,1.8,0,0)"/>
<path style="fill-rule:nonzero;fill:rgb(67.058825%,4.313726%,0%);fill-opacity:1;stroke-width:0.194308;stroke-linecap:butt;stroke-linejoin:miter;stroke:rgb(0%,0%,0%);stroke-opacity:1;stroke-miterlimit:4;" d="M 130.093316 62.302517 C 130.672743 64.153646 129.665799 66.417101 127.845052 67.361111 C 126.024306 68.305122 124.079861 67.569444 123.500434 65.720486 C 122.921007 63.869358 123.927951 61.605903 125.748698 60.661892 C 127.569444 59.717882 129.516059 60.453559 130.093316 62.302517 Z M 130.093316 62.302517 " transform="matrix(1.8,0,0,1.8,0,0)"/>
<path style="fill-rule:nonzero;fill:rgb(100%,7.450981%,1.176471%);fill-opacity:1;stroke-width:0.169909;stroke-linecap:butt;stroke-linejoin:miter;stroke:rgb(0%,0%,0%);stroke-opacity:1;stroke-miterlimit:4;" d="M 129.880642 63.033854 C 130.384115 64.659288 129.507378 66.647135 127.921007 67.476128 C 126.336806 68.305122 124.641927 67.65842 124.138455 66.035156 C 123.632812 64.409722 124.509549 62.421875 126.09592 61.592882 C 127.682292 60.766059 129.375 61.41059 129.880642 63.033854 Z M 129.880642 63.033854 " transform="matrix(1.8,0,0,1.8,0,0)"/>
<path style="fill-rule:nonzero;fill:rgb(9.411765%,9.411765%,9.411765%);fill-opacity:1;stroke-width:0.158061;stroke-linecap:butt;stroke-linejoin:miter;stroke:rgb(0%,0%,0%);stroke-opacity:1;stroke-miterlimit:4;" d="M 84.240451 82.677951 C 84.240451 87.33724 80.451389 91.115451 75.77474 91.115451 C 71.10026 91.115451 67.309028 87.33724 67.309028 82.677951 C 67.309028 78.018663 71.10026 74.242622 75.77474 74.242622 C 80.451389 74.242622 84.240451 78.018663 84.240451 82.677951 Z M 84.240451 82.677951 " transform="matrix(1.8,0,0,1.8,0,0)"/>
<path style="fill-rule:nonzero;fill:rgb(60.000002%,60.000002%,60.000002%);fill-opacity:1;stroke-width:0.196468;stroke-linecap:butt;stroke-linejoin:miter;stroke:rgb(0%,0%,0%);stroke-opacity:1;stroke-miterlimit:4;" d="M 83.59375 82.97526 C 83.59375 87.417535 80.069444 91.019965 75.722656 91.019965 C 71.375868 91.019965 67.849392 87.417535 67.849392 82.97526 C 67.849392 78.530816 71.375868 74.928385 75.722656 74.928385 C 80.069444 74.928385 83.59375 78.530816 83.59375 82.97526 Z M 83.59375 82.97526 " transform="matrix(1.8,0,0,1.8,0,0)"/>
<path style="fill-rule:nonzero;fill:rgb(51.764709%,51.764709%,51.764709%);fill-opacity:1;stroke-width:0.182411;stroke-linecap:butt;stroke-linejoin:miter;stroke:rgb(0%,0%,0%);stroke-opacity:1;stroke-miterlimit:4;" d="M 83.220486 83.639323 C 83.220486 87.647569 79.852431 90.898438 75.698785 90.898438 C 71.545139 90.898438 68.177083 87.647569 68.177083 83.639323 C 68.177083 79.628906 71.545139 76.380208 75.698785 76.380208 C 79.852431 76.380208 83.220486 79.628906 83.220486 83.639323 Z M 83.220486 83.639323 " transform="matrix(1.8,0,0,1.8,0,0)"/>
<path style="fill-rule:nonzero;fill:rgb(20.784314%,20.784314%,20.784314%);fill-opacity:1;stroke-width:0.216601;stroke-linecap:butt;stroke-linejoin:miter;stroke:rgb(0%,0%,0%);stroke-opacity:1;stroke-miterlimit:4;" d="M 96.065538 64.730903 C 96.065538 67.947049 93.474392 70.553385 90.279948 70.553385 C 87.085503 70.553385 84.496528 67.947049 84.496528 64.730903 C 84.496528 61.514757 87.085503 58.90842 90.279948 58.90842 C 93.474392 58.90842 96.065538 61.514757 96.065538 64.730903 Z M 96.065538 64.730903 " transform="matrix(1.8,0,0,1.8,0,0)"/>
<path style="fill-rule:nonzero;fill:rgb(79.215688%,79.215688%,79.215688%);fill-opacity:1;stroke-width:0.156231;stroke-linecap:butt;stroke-linejoin:miter;stroke:rgb(0%,0%,0%);stroke-opacity:1;stroke-miterlimit:4;" d="M 95.047743 64.698351 C 95.047743 67.324219 92.918837 69.453125 90.295139 69.453125 C 87.669271 69.453125 85.540365 67.324219 85.540365 64.698351 C 85.540365 62.072483 87.669271 59.943576 90.295139 59.943576 C 92.918837 59.943576 95.047743 62.072483 95.047743 64.698351 Z M 95.047743 64.698351 " transform="matrix(1.8,0,0,1.8,0,0)"/>
<path style="fill-rule:nonzero;fill:rgb(60.000002%,60.000002%,60.000002%);fill-opacity:1;stroke-width:0.156388;stroke-linecap:butt;stroke-linejoin:miter;stroke:rgb(0%,0%,0%);stroke-opacity:1;stroke-miterlimit:4;" d="M 75.700955 76.330295 L 77.200521 76.417101 C 77.200521 76.417101 77.65408 76.636285 77.734375 77.18533 C 77.792969 77.591146 78.142361 79.646267 78.248698 79.756944 C 78.355035 79.867622 78.834635 80.898438 79.259983 80.965712 C 79.68533 81.030816 82.543403 81.536458 82.721354 81.733941 C 82.899306 81.931424 83.164062 82.788628 83.164062 82.788628 L 83.200955 84.919705 C 83.200955 84.919705 83.094618 85.579427 82.934028 85.687934 C 82.773438 85.798611 79.828559 86.150174 79.828559 86.150174 C 79.828559 86.150174 78.940972 86.41276 78.780382 87.050781 C 78.621962 87.688802 78.300781 90.323351 78.159722 90.499132 C 78.018663 90.674913 77.823351 91.050347 77.415365 91.115451 C 77.005208 91.180556 75 91.226128 75 91.226128 C 75 91.226128 74.255642 91.026476 74.077691 90.720486 C 73.89974 90.412326 73.457031 87.688802 73.457031 87.688802 C 73.457031 87.688802 73.172743 86.72092 72.285156 86.436632 C 71.397569 86.150174 69.728733 86.391059 69.231771 86.106771 C 68.734809 85.820312 68.398438 85.292969 68.361545 84.832899 C 68.326823 84.37066 68.168403 82.766927 68.237847 82.634549 C 68.309462 82.50217 68.645833 81.71224 68.841146 81.690538 C 69.036458 81.668837 71.71658 81.295573 72.018229 81.009115 C 72.319878 80.722656 72.994792 80.065104 73.029514 79.624566 C 73.066406 79.186198 73.220486 76.71441 73.359375 76.71441 C 73.472222 76.586372 73.565538 76.549479 73.654514 76.493056 C 73.802083 76.395399 74.186198 76.371528 74.68099 76.362847 C 75.301649 76.351997 75.700955 76.330295 75.700955 76.330295 Z M 75.700955 76.330295 " transform="matrix(1.8,0,0,1.8,0,0)"/>
<path style="fill-rule:nonzero;fill:rgb(94.509804%,94.509804%,94.509804%);fill-opacity:1;stroke-width:0.156388;stroke-linecap:butt;stroke-linejoin:miter;stroke:rgb(0%,0%,0%);stroke-opacity:1;stroke-miterlimit:4;" d="M 79.826389 62.929688 C 79.826389 62.929688 79.166667 62.905816 79.006076 62.927517 C 78.845486 62.949219 77.417535 63.146701 77.365451 65.026042 C 77.311198 66.903212 79.053819 67.278646 79.053819 67.278646 L 79.822049 67.298177 L 80.633681 67.300347 C 80.633681 67.300347 82.404514 67.003038 82.430556 65.101997 C 82.458767 63.203125 80.603299 62.938368 80.603299 62.938368 Z M 79.826389 62.929688 " transform="matrix(1.8,0,0,1.8,0,0)"/>
<path style="fill-rule:nonzero;fill:rgb(94.509804%,94.509804%,94.509804%);fill-opacity:1;stroke-width:0.156388;stroke-linecap:butt;stroke-linejoin:miter;stroke:rgb(0%,0%,0%);stroke-opacity:1;stroke-miterlimit:4;" d="M 100.735677 63.023003 C 100.735677 63.023003 100.073785 62.999132 99.915365 63.020833 C 99.754774 63.042535 98.326823 63.240017 98.272569 65.119358 C 98.220486 66.996528 99.960938 67.371962 99.960938 67.371962 L 100.731337 67.391493 L 101.540799 67.393663 C 101.540799 67.393663 103.313802 67.096354 103.339844 65.195312 C 103.365885 63.294271 101.512587 63.031684 101.512587 63.031684 Z M 100.735677 63.023003 " transform="matrix(1.8,0,0,1.8,0,0)"/>
<path style="fill-rule:nonzero;fill:rgb(85.09804%,85.09804%,85.09804%);fill-opacity:1;stroke-width:0.156388;stroke-linecap:butt;stroke-linejoin:miter;stroke:rgb(0%,0%,0%);stroke-opacity:1;stroke-miterlimit:4;" d="M 80.544705 64.557292 L 80.507812 66.950955 L 78.574219 65.677083 Z M 80.544705 64.557292 " transform="matrix(1.8,0,0,1.8,0,0)"/>
<path style="fill-rule:nonzero;fill:rgb(85.09804%,85.09804%,85.09804%);fill-opacity:1;stroke-width:0.156388;stroke-linecap:butt;stroke-linejoin:miter;stroke:rgb(0%,0%,0%);stroke-opacity:1;stroke-miterlimit:4;" d="M 100.130208 64.611545 L 100.034722 66.896701 L 102.061632 65.807292 Z M 100.130208 64.611545 " transform="matrix(1.8,0,0,1.8,0,0)"/>
<path style="fill-rule:nonzero;fill:rgb(85.490197%,85.490197%,85.490197%);fill-opacity:1;stroke-width:0.161988;stroke-linecap:butt;stroke-linejoin:miter;stroke:rgb(0%,0%,0%);stroke-opacity:1;stroke-miterlimit:4;" d="M 113.917101 80.564236 C 113.917101 85.559896 109.283854 89.609375 103.569878 89.609375 C 97.855903 89.609375 93.222656 85.559896 93.222656 80.564236 C 93.222656 75.568576 97.855903 71.516927 103.569878 71.516927 C 109.283854 71.516927 113.917101 75.568576 113.917101 80.564236 Z M 113.917101 80.564236 " transform="matrix(1.8,0,0,1.8,0,0)"/>
<path style="fill-rule:nonzero;fill:rgb(9.411765%,9.411765%,9.411765%);fill-opacity:1;stroke-width:0.170043;stroke-linecap:butt;stroke-linejoin:miter;stroke:rgb(0%,0%,0%);stroke-opacity:1;stroke-miterlimit:4;" d="M 110.332031 83.146701 C 110.332031 86.935764 107.356771 90.008681 103.684896 90.008681 C 100.015191 90.008681 97.039931 86.935764 97.039931 83.146701 C 97.039931 79.357639 100.015191 76.286892 103.684896 76.286892 C 107.356771 76.286892 110.332031 79.357639 110.332031 83.146701 Z M 110.332031 83.146701 " transform="matrix(1.8,0,0,1.8,0,0)"/>
<path style="fill-rule:nonzero;fill:rgb(45.882353%,45.882353%,45.882353%);fill-opacity:1;stroke-width:0.17105;stroke-linecap:butt;stroke-linejoin:miter;stroke:rgb(0%,0%,0%);stroke-opacity:1;stroke-miterlimit:4;" d="M 109.6875 83.094618 C 109.6875 86.5625 106.972656 89.37283 103.621962 89.37283 C 100.271267 89.37283 97.554253 86.5625 97.554253 83.094618 C 97.554253 79.628906 100.271267 76.816406 103.621962 76.816406 C 106.972656 76.816406 109.6875 79.628906 109.6875 83.094618 Z M 109.6875 83.094618 " transform="matrix(1.8,0,0,1.8,0,0)"/>
<path style="fill-rule:nonzero;fill:rgb(87.058824%,87.058824%,87.058824%);fill-opacity:1;stroke-width:0.209249;stroke-linecap:butt;stroke-linejoin:miter;stroke:rgb(0%,0%,0%);stroke-opacity:1;stroke-miterlimit:4;" d="M 71.427951 66.5625 C 70.644531 71.955295 65.483941 75.236545 59.900174 73.893229 C 54.316406 72.552083 50.423177 67.092014 51.204427 61.701389 C 51.987847 56.310764 57.148438 53.029514 62.732205 54.37066 C 68.315972 55.713976 72.209201 61.171875 71.427951 66.5625 Z M 71.427951 66.5625 " transform="matrix(1.8,0,0,1.8,0,0)"/>
<path style="fill-rule:nonzero;fill:rgb(9.411765%,9.411765%,9.411765%);fill-opacity:1;stroke-width:0.184245;stroke-linecap:butt;stroke-linejoin:miter;stroke:rgb(0%,0%,0%);stroke-opacity:1;stroke-miterlimit:4;" d="M 68.190104 66.24566 C 68.190104 70.052083 65.197483 73.138021 61.506076 73.138021 C 57.8125 73.138021 54.819878 70.052083 54.819878 66.24566 C 54.819878 62.439236 57.8125 59.353299 61.506076 59.353299 C 65.197483 59.353299 68.190104 62.439236 68.190104 66.24566 Z M 68.190104 66.24566 " transform="matrix(1.8,0,0,1.8,0,0)"/>
<path style="fill-rule:nonzero;fill:rgb(45.882353%,45.882353%,45.882353%);fill-opacity:1;stroke-width:0.17105;stroke-linecap:butt;stroke-linejoin:miter;stroke:rgb(0%,0%,0%);stroke-opacity:1;stroke-miterlimit:4;" d="M 67.619358 66.193576 C 67.619358 69.659288 64.904514 72.471788 61.553819 72.471788 C 58.203125 72.471788 55.486111 69.659288 55.486111 66.193576 C 55.486111 62.725694 58.203125 59.915365 61.553819 59.915365 C 64.904514 59.915365 67.619358 62.725694 67.619358 66.193576 Z M 67.619358 66.193576 " transform="matrix(1.8,0,0,1.8,0,0)"/>
<path style="fill-rule:nonzero;fill:rgb(52.549022%,52.549022%,52.549022%);fill-opacity:1;stroke-width:0.206762;stroke-linecap:butt;stroke-linejoin:miter;stroke:rgb(0%,0%,0%);stroke-opacity:1;stroke-miterlimit:4;" d="M 67.417535 68.43099 C 67.417535 72.19184 64.550781 75.240885 61.015625 75.240885 C 57.478299 75.240885 54.613715 72.19184 54.613715 68.43099 C 54.613715 64.670139 57.478299 61.621094 61.015625 61.621094 C 64.550781 61.621094 67.417535 64.670139 67.417535 68.43099 Z M 67.417535 68.43099 " transform="matrix(1.8,0,0,1.8,0,0)"/>
<path style="fill-rule:nonzero;fill:rgb(52.549022%,52.549022%,52.549022%);fill-opacity:1;stroke-width:0.171906;stroke-linecap:butt;stroke-linejoin:miter;stroke:rgb(0%,0%,0%);stroke-opacity:1;stroke-miterlimit:4;" d="M 109.908854 86.139323 C 109.908854 89.6875 107.135417 92.565104 103.715278 92.565104 C 100.292969 92.565104 97.519531 89.6875 97.519531 86.139323 C 97.519531 82.591146 100.292969 79.713542 103.715278 79.713542 C 107.135417 79.713542 109.908854 82.591146 109.908854 86.139323 Z M 109.908854 86.139323 " transform="matrix(1.8,0,0,1.8,0,0)"/>
<path style=" stroke:none;fill-rule:nonzero;fill:rgb(40.784314%,40.784314%,40.784314%);fill-opacity:1;" d="M 154.023438 108.019531 L 153.601562 108.019531 L 153.601562 106.722656 C 153.449219 106.839844 153.269531 106.929688 153.0625 106.984375 L 153.0625 106.671875 C 153.171875 106.644531 153.289062 106.585938 153.417969 106.503906 C 153.546875 106.421875 153.632812 106.328125 153.683594 106.21875 L 154.023438 106.21875 Z M 154.023438 108.019531 "/>
<path style=" stroke:none;fill-rule:nonzero;fill:rgb(40.784314%,40.784314%,40.784314%);fill-opacity:1;" d="M 172.175781 107.558594 L 172.175781 107.863281 L 170.996094 107.863281 C 171.007812 107.75 171.046875 107.640625 171.109375 107.535156 C 171.171875 107.429688 171.300781 107.292969 171.488281 107.121094 C 171.640625 106.984375 171.734375 106.890625 171.769531 106.839844 C 171.8125 106.769531 171.835938 106.703125 171.835938 106.636719 C 171.835938 106.5625 171.816406 106.507812 171.777344 106.46875 C 171.734375 106.425781 171.679688 106.40625 171.609375 106.40625 C 171.539062 106.40625 171.484375 106.429688 171.441406 106.46875 C 171.398438 106.511719 171.375 106.582031 171.371094 106.675781 L 171.035156 106.644531 C 171.054688 106.460938 171.117188 106.332031 171.222656 106.253906 C 171.328125 106.171875 171.460938 106.132812 171.617188 106.132812 C 171.792969 106.132812 171.925781 106.179688 172.027344 106.269531 C 172.125 106.363281 172.175781 106.476562 172.175781 106.613281 C 172.175781 106.691406 172.160156 106.765625 172.132812 106.835938 C 172.105469 106.90625 172.058594 106.980469 171.996094 107.054688 C 171.957031 107.105469 171.882812 107.179688 171.777344 107.277344 C 171.671875 107.371094 171.605469 107.433594 171.574219 107.464844 C 171.546875 107.496094 171.523438 107.527344 171.507812 107.558594 Z M 172.175781 107.558594 "/>
<path style=" stroke:none;fill-rule:nonzero;fill:rgb(40.784314%,40.784314%,40.784314%);fill-opacity:1;" d="M 153.214844 127.320312 L 153.546875 127.28125 C 153.558594 127.363281 153.585938 127.421875 153.632812 127.464844 C 153.679688 127.507812 153.738281 127.53125 153.800781 127.53125 C 153.871094 127.53125 153.933594 127.503906 153.980469 127.453125 C 154.03125 127.402344 154.054688 127.332031 154.054688 127.246094 C 154.054688 127.164062 154.03125 127.101562 153.984375 127.050781 C 153.9375 127.003906 153.882812 126.980469 153.8125 126.980469 C 153.769531 126.980469 153.71875 126.988281 153.65625 127.003906 L 153.695312 126.738281 C 153.789062 126.742188 153.859375 126.722656 153.90625 126.683594 C 153.957031 126.640625 153.980469 126.589844 153.980469 126.519531 C 153.980469 126.464844 153.960938 126.417969 153.925781 126.386719 C 153.890625 126.351562 153.84375 126.332031 153.785156 126.332031 C 153.726562 126.332031 153.675781 126.351562 153.632812 126.390625 C 153.59375 126.429688 153.566406 126.488281 153.558594 126.5625 L 153.242188 126.511719 C 153.265625 126.40625 153.296875 126.324219 153.339844 126.265625 C 153.386719 126.203125 153.449219 126.15625 153.527344 126.121094 C 153.605469 126.085938 153.695312 126.066406 153.792969 126.066406 C 153.960938 126.066406 154.097656 126.117188 154.199219 126.21875 C 154.28125 126.300781 154.324219 126.398438 154.324219 126.5 C 154.324219 126.652344 154.238281 126.769531 154.066406 126.859375 C 154.167969 126.878906 154.25 126.925781 154.3125 127 C 154.375 127.070312 154.40625 127.160156 154.40625 127.261719 C 154.40625 127.410156 154.347656 127.535156 154.234375 127.640625 C 154.117188 127.746094 153.976562 127.800781 153.804688 127.800781 C 153.644531 127.800781 153.507812 127.753906 153.402344 127.667969 C 153.296875 127.578125 153.234375 127.460938 153.214844 127.320312 Z M 153.214844 127.320312 "/>
<path style=" stroke:none;fill-rule:nonzero;fill:rgb(40.784314%,40.784314%,40.784314%);fill-opacity:1;" d="M 171.441406 127.785156 L 171.441406 127.457031 L 170.722656 127.457031 L 170.722656 127.183594 L 171.484375 126.144531 L 171.769531 126.144531 L 171.769531 127.183594 L 171.988281 127.183594 L 171.988281 127.457031 L 171.769531 127.457031 L 171.769531 127.785156 Z M 171.441406 127.183594 L 171.441406 126.621094 L 171.039062 127.183594 Z M 171.441406 127.183594 "/>
<path style=" stroke:none;fill-rule:nonzero;fill:rgb(40.784314%,40.784314%,40.784314%);fill-opacity:1;" d="M 137.074219 112.820312 L 137.484375 112.316406 C 137.566406 112.21875 137.632812 112.148438 137.679688 112.105469 C 137.726562 112.066406 137.773438 112.039062 137.828125 112.027344 C 137.882812 112.015625 137.9375 112.019531 137.992188 112.039062 C 138.046875 112.054688 138.097656 112.09375 138.144531 112.148438 C 138.191406 112.207031 138.222656 112.277344 138.234375 112.359375 C 138.25 112.441406 138.242188 112.523438 138.21875 112.601562 C 138.300781 112.546875 138.378906 112.527344 138.457031 112.539062 C 138.535156 112.554688 138.601562 112.597656 138.660156 112.671875 C 138.707031 112.730469 138.742188 112.800781 138.761719 112.878906 C 138.785156 112.960938 138.789062 113.042969 138.777344 113.121094 C 138.765625 113.199219 138.738281 113.277344 138.6875 113.351562 C 138.65625 113.398438 138.574219 113.503906 138.441406 113.667969 L 138.09375 114.097656 Z M 137.453125 112.777344 L 137.6875 113.074219 L 137.824219 112.90625 C 137.90625 112.808594 137.953125 112.746094 137.972656 112.71875 C 138.003906 112.667969 138.019531 112.621094 138.019531 112.570312 C 138.019531 112.519531 138.003906 112.472656 137.96875 112.433594 C 137.9375 112.394531 137.902344 112.371094 137.867188 112.367188 C 137.828125 112.367188 137.792969 112.382812 137.753906 112.417969 C 137.730469 112.441406 137.667969 112.511719 137.570312 112.632812 Z M 137.855469 113.285156 L 138.128906 113.628906 L 138.320312 113.390625 C 138.398438 113.300781 138.441406 113.238281 138.457031 113.210938 C 138.484375 113.164062 138.496094 113.117188 138.492188 113.066406 C 138.492188 113.015625 138.472656 112.96875 138.4375 112.921875 C 138.40625 112.882812 138.371094 112.859375 138.335938 112.851562 C 138.300781 112.84375 138.261719 112.851562 138.222656 112.875 C 138.1875 112.894531 138.121094 112.964844 138.023438 113.082031 Z M 137.855469 113.285156 "/>
<path style=" stroke:none;fill-rule:nonzero;fill:rgb(40.784314%,40.784314%,40.784314%);fill-opacity:1;" d="M 140.277344 112.023438 L 140.003906 112.222656 L 139.726562 111.953125 L 139.230469 112.320312 L 139.296875 112.746094 L 139.03125 112.945312 L 138.773438 111.046875 L 139.039062 110.851562 Z M 139.523438 111.753906 L 139.074219 111.308594 L 139.183594 112.003906 Z M 139.523438 111.753906 "/>
<path style=" stroke:none;fill-rule:nonzero;fill:rgb(40.784314%,40.784314%,40.784314%);fill-opacity:1;" d="M 141.15625 110.988281 L 141.453125 110.988281 C 141.460938 111.191406 141.429688 111.355469 141.355469 111.484375 C 141.28125 111.613281 141.171875 111.707031 141.023438 111.765625 C 140.839844 111.835938 140.667969 111.816406 140.511719 111.710938 C 140.351562 111.601562 140.238281 111.410156 140.171875 111.140625 C 140.097656 110.859375 140.101562 110.613281 140.179688 110.410156 C 140.257812 110.207031 140.394531 110.066406 140.585938 109.988281 C 140.753906 109.921875 140.910156 109.929688 141.046875 110.011719 C 141.128906 110.0625 141.203125 110.148438 141.269531 110.273438 L 141.011719 110.464844 C 140.972656 110.378906 140.921875 110.324219 140.855469 110.292969 C 140.792969 110.261719 140.722656 110.261719 140.648438 110.289062 C 140.546875 110.332031 140.472656 110.410156 140.433594 110.523438 C 140.394531 110.640625 140.398438 110.800781 140.453125 111.003906 C 140.507812 111.21875 140.578125 111.363281 140.664062 111.429688 C 140.75 111.496094 140.84375 111.511719 140.945312 111.46875 C 141.019531 111.441406 141.074219 111.386719 141.113281 111.308594 C 141.152344 111.230469 141.167969 111.121094 141.15625 110.988281 Z M 141.15625 110.988281 "/>
<path style=" stroke:none;fill-rule:nonzero;fill:rgb(40.784314%,40.784314%,40.784314%);fill-opacity:1;" d="M 141.84375 111.457031 L 141.6875 109.675781 L 141.980469 109.636719 L 142.050781 110.429688 L 142.566406 109.558594 L 142.957031 109.503906 L 142.476562 110.273438 L 143.144531 111.285156 L 142.769531 111.335938 L 142.296875 110.550781 L 142.089844 110.878906 L 142.136719 111.417969 Z M 141.84375 111.457031 "/>
<path style=" stroke:none;fill-rule:nonzero;fill:rgb(40.784314%,40.784314%,40.784314%);fill-opacity:1;" d="M 181.601562 110.746094 L 181.886719 110.714844 C 181.902344 110.832031 181.9375 110.917969 181.988281 110.976562 C 182.039062 111.03125 182.113281 111.058594 182.199219 111.0625 C 182.292969 111.0625 182.367188 111.039062 182.414062 110.988281 C 182.460938 110.941406 182.484375 110.882812 182.488281 110.816406 C 182.488281 110.773438 182.476562 110.738281 182.457031 110.707031 C 182.4375 110.679688 182.402344 110.652344 182.351562 110.628906 C 182.316406 110.613281 182.238281 110.585938 182.117188 110.546875 C 181.960938 110.5 181.851562 110.4375 181.789062 110.367188 C 181.699219 110.269531 181.65625 110.148438 181.65625 110.007812 C 181.660156 109.914062 181.679688 109.828125 181.722656 109.75 C 181.765625 109.671875 181.824219 109.609375 181.90625 109.570312 C 181.984375 109.53125 182.078125 109.507812 182.191406 109.511719 C 182.371094 109.511719 182.507812 109.5625 182.601562 109.664062 C 182.691406 109.761719 182.738281 109.894531 182.742188 110.058594 L 182.449219 110.070312 C 182.4375 109.980469 182.410156 109.914062 182.371094 109.871094 C 182.328125 109.832031 182.265625 109.8125 182.183594 109.808594 C 182.101562 109.808594 182.035156 109.832031 181.984375 109.875 C 181.953125 109.902344 181.9375 109.9375 181.9375 109.984375 C 181.9375 110.027344 181.953125 110.0625 181.980469 110.09375 C 182.015625 110.132812 182.105469 110.171875 182.25 110.214844 C 182.390625 110.257812 182.496094 110.300781 182.5625 110.347656 C 182.632812 110.394531 182.683594 110.453125 182.722656 110.53125 C 182.761719 110.609375 182.78125 110.703125 182.777344 110.816406 C 182.777344 110.921875 182.753906 111.015625 182.707031 111.105469 C 182.660156 111.195312 182.597656 111.261719 182.511719 111.304688 C 182.425781 111.347656 182.320312 111.367188 182.195312 111.367188 C 182.011719 111.363281 181.871094 111.3125 181.773438 111.207031 C 181.675781 111.101562 181.621094 110.945312 181.601562 110.746094 Z M 181.601562 110.746094 "/>
<path style=" stroke:none;fill-rule:nonzero;fill:rgb(40.784314%,40.784314%,40.784314%);fill-opacity:1;" d="M 183.34375 111.460938 L 183.566406 109.996094 L 183.144531 109.898438 L 183.1875 109.601562 L 184.320312 109.863281 L 184.273438 110.160156 L 183.855469 110.0625 L 183.632812 111.527344 Z M 183.34375 111.460938 "/>
<path style=" stroke:none;fill-rule:nonzero;fill:rgb(40.784314%,40.784314%,40.784314%);fill-opacity:1;" d="M 185.464844 112.253906 L 185.164062 112.117188 L 185.164062 111.679688 L 184.621094 111.429688 L 184.394531 111.757812 L 184.101562 111.625 L 185.136719 110.191406 L 185.429688 110.324219 Z M 185.160156 111.355469 L 185.160156 110.648438 L 184.789062 111.1875 Z M 185.160156 111.355469 "/>
<path style=" stroke:none;fill-rule:nonzero;fill:rgb(40.784314%,40.784314%,40.784314%);fill-opacity:1;" d="M 185.601562 112.355469 L 186.359375 110.828125 L 186.882812 111.222656 C 187.015625 111.324219 187.105469 111.410156 187.152344 111.480469 C 187.199219 111.554688 187.222656 111.640625 187.222656 111.738281 C 187.222656 111.835938 187.203125 111.929688 187.15625 112.019531 C 187.101562 112.132812 187.027344 112.207031 186.933594 112.242188 C 186.84375 112.277344 186.738281 112.261719 186.621094 112.199219 C 186.65625 112.277344 186.679688 112.355469 186.691406 112.429688 C 186.703125 112.5 186.710938 112.621094 186.710938 112.785156 L 186.714844 113.195312 L 186.417969 112.972656 L 186.398438 112.503906 C 186.394531 112.335938 186.386719 112.226562 186.378906 112.175781 C 186.371094 112.128906 186.355469 112.089844 186.335938 112.058594 C 186.316406 112.027344 186.277344 111.988281 186.21875 111.945312 L 186.167969 111.90625 L 185.851562 112.546875 Z M 186.289062 111.664062 L 186.472656 111.800781 C 186.59375 111.890625 186.671875 111.941406 186.707031 111.953125 C 186.742188 111.960938 186.777344 111.957031 186.808594 111.941406 C 186.839844 111.921875 186.867188 111.890625 186.890625 111.84375 C 186.914062 111.792969 186.925781 111.742188 186.917969 111.695312 C 186.910156 111.648438 186.890625 111.601562 186.855469 111.5625 C 186.835938 111.546875 186.777344 111.496094 186.675781 111.421875 L 186.480469 111.273438 Z M 186.289062 111.664062 "/>
<path style=" stroke:none;fill-rule:nonzero;fill:rgb(40.784314%,40.784314%,40.784314%);fill-opacity:1;" d="M 187.078125 113.605469 L 187.871094 112.484375 L 187.546875 112.132812 L 187.707031 111.90625 L 188.574219 112.84375 L 188.414062 113.070312 L 188.089844 112.722656 L 187.296875 113.84375 Z M 187.078125 113.605469 "/>
<path style="fill-rule:nonzero;fill:rgb(60.000002%,60.000002%,60.000002%);fill-opacity:1;stroke-width:0.195838;stroke-linecap:butt;stroke-linejoin:miter;stroke:rgb(0%,0%,0%);stroke-opacity:1;stroke-miterlimit:4;" d="M 67.196181 68.708767 C 67.196181 72.211372 64.435764 75.052083 61.028646 75.052083 C 57.623698 75.052083 54.863281 72.211372 54.863281 68.708767 C 54.863281 65.203993 57.623698 62.365451 61.028646 62.365451 C 64.435764 62.365451 67.196181 65.203993 67.196181 68.708767 Z M 67.196181 68.708767 " transform="matrix(1.8,0,0,1.8,0,0)"/>
<path style="fill-rule:nonzero;fill:rgb(60.000002%,60.000002%,60.000002%);fill-opacity:1;stroke-width:0.189113;stroke-linecap:butt;stroke-linejoin:miter;stroke:rgb(0%,0%,0%);stroke-opacity:1;stroke-miterlimit:4;" d="M 109.739583 86.347656 C 109.739583 89.698351 107.048611 92.415365 103.728299 92.415365 C 100.407986 92.415365 97.717014 89.698351 97.717014 86.347656 C 97.717014 82.996962 100.407986 80.279948 103.728299 80.279948 C 107.048611 80.279948 109.739583 82.996962 109.739583 86.347656 Z M 109.739583 86.347656 " transform="matrix(1.8,0,0,1.8,0,0)"/>
<path style="fill-rule:nonzero;fill:rgb(69.01961%,69.01961%,69.01961%);fill-opacity:1;stroke-width:0.156231;stroke-linecap:butt;stroke-linejoin:miter;stroke:rgb(0%,0%,0%);stroke-opacity:1;stroke-miterlimit:4;" d="M 61.080729 64.487847 C 61.080729 64.644097 60.957031 64.772135 60.805122 64.772135 C 60.653212 64.772135 60.529514 64.644097 60.529514 64.487847 C 60.529514 64.329427 60.653212 64.201389 60.805122 64.201389 C 60.957031 64.201389 61.080729 64.329427 61.080729 64.487847 Z M 61.080729 64.487847 " transform="matrix(1.8,0,0,1.8,0,0)"/>
<path style="fill-rule:nonzero;fill:rgb(69.01961%,69.01961%,69.01961%);fill-opacity:1;stroke-width:0.156231;stroke-linecap:butt;stroke-linejoin:miter;stroke:rgb(0%,0%,0%);stroke-opacity:1;stroke-miterlimit:4;" d="M 65.766059 69.166667 C 65.766059 69.325087 65.642361 69.453125 65.490451 69.453125 C 65.338542 69.453125 65.214844 69.325087 65.214844 69.166667 C 65.214844 69.008247 65.338542 68.882378 65.490451 68.882378 C 65.642361 68.882378 65.766059 69.008247 65.766059 69.166667 Z M 65.766059 69.166667 " transform="matrix(1.8,0,0,1.8,0,0)"/>
<path style="fill-rule:nonzero;fill:rgb(69.01961%,69.01961%,69.01961%);fill-opacity:1;stroke-width:0.156231;stroke-linecap:butt;stroke-linejoin:miter;stroke:rgb(0%,0%,0%);stroke-opacity:1;stroke-miterlimit:4;" d="M 61.115451 73.363715 C 61.115451 73.522135 60.991753 73.648003 60.839844 73.648003 C 60.687934 73.648003 60.566406 73.522135 60.566406 73.363715 C 60.566406 73.205295 60.687934 73.077257 60.839844 73.077257 C 60.991753 73.077257 61.115451 73.205295 61.115451 73.363715 Z M 61.115451 73.363715 " transform="matrix(1.8,0,0,1.8,0,0)"/>
<path style="fill-rule:nonzero;fill:rgb(69.01961%,69.01961%,69.01961%);fill-opacity:1;stroke-width:0.156231;stroke-linecap:butt;stroke-linejoin:miter;stroke:rgb(0%,0%,0%);stroke-opacity:1;stroke-miterlimit:4;" d="M 56.803385 68.858507 C 56.803385 69.016927 56.679688 69.144965 56.527778 69.144965 C 56.375868 69.144965 56.25217 69.016927 56.25217 68.858507 C 56.25217 68.702257 56.375868 68.574219 56.527778 68.574219 C 56.679688 68.574219 56.803385 68.702257 56.803385 68.858507 Z M 56.803385 68.858507 " transform="matrix(1.8,0,0,1.8,0,0)"/>
<path style="fill-rule:nonzero;fill:rgb(68.627453%,68.627453%,68.627453%);fill-opacity:1;stroke-width:0.156231;stroke-linecap:butt;stroke-linejoin:miter;stroke:rgb(0%,0%,0%);stroke-opacity:1;stroke-miterlimit:4;" d="M 104.101562 82.634549 C 104.101562 82.792969 103.980035 82.921007 103.828125 82.921007 C 103.676215 82.921007 103.552517 82.792969 103.552517 82.634549 C 103.552517 82.476128 103.676215 82.35026 103.828125 82.35026 C 103.980035 82.35026 104.101562 82.476128 104.101562 82.634549 Z M 104.101562 82.634549 " transform="matrix(1.8,0,0,1.8,0,0)"/>
<path style="fill-rule:nonzero;fill:rgb(59.215689%,59.215689%,59.215689%);fill-opacity:1;stroke-width:0.156231;stroke-linecap:butt;stroke-linejoin:miter;stroke:rgb(0%,0%,0%);stroke-opacity:1;stroke-miterlimit:4;" d="M 108.344184 86.853299 C 108.344184 87.011719 108.220486 87.139757 108.068576 87.139757 C 107.916667 87.139757 107.795139 87.011719 107.795139 86.853299 C 107.795139 86.694878 107.916667 86.56684 108.068576 86.56684 C 108.220486 86.56684 108.344184 86.694878 108.344184 86.853299 Z M 108.344184 86.853299 " transform="matrix(1.8,0,0,1.8,0,0)"/>
<path style="fill-rule:nonzero;fill:rgb(69.01961%,69.01961%,69.01961%);fill-opacity:1;stroke-width:0.156231;stroke-linecap:butt;stroke-linejoin:miter;stroke:rgb(0%,0%,0%);stroke-opacity:1;stroke-miterlimit:4;" d="M 103.995226 90.63151 C 103.995226 90.789931 103.873698 90.917969 103.721788 90.917969 C 103.569878 90.917969 103.446181 90.789931 103.446181 90.63151 C 103.446181 90.47526 103.569878 90.347222 103.721788 90.347222 C 103.873698 90.347222 103.995226 90.47526 103.995226 90.63151 Z M 103.995226 90.63151 " transform="matrix(1.8,0,0,1.8,0,0)"/>
<path style="fill-rule:nonzero;fill:rgb(69.01961%,69.01961%,69.01961%);fill-opacity:1;stroke-width:0.156231;stroke-linecap:butt;stroke-linejoin:miter;stroke:rgb(0%,0%,0%);stroke-opacity:1;stroke-miterlimit:4;" d="M 99.967448 86.56684 C 99.967448 86.72526 99.84375 86.853299 99.69184 86.853299 C 99.539931 86.853299 99.416233 86.72526 99.416233 86.56684 C 99.416233 86.41059 99.539931 86.282552 99.69184 86.282552 C 99.84375 86.282552 99.967448 86.41059 99.967448 86.56684 Z M 99.967448 86.56684 " transform="matrix(1.8,0,0,1.8,0,0)"/>
<path style=" stroke:none;fill-rule:nonzero;fill:rgb(14.117648%,58.431375%,0%);fill-opacity:1;" d="M 215.074219 132.964844 L 212.589844 132.964844 L 212.199219 134.308594 L 210.601562 134.308594 L 212.882812 126.933594 L 214.777344 126.933594 L 217.058594 134.308594 L 215.460938 134.308594 Z M 212.988281 131.597656 L 214.675781 131.597656 L 213.832031 128.664062 Z M 212.988281 131.597656 "/>
<path style=" stroke:none;fill-rule:nonzero;fill:rgb(0%,19.607843%,69.01961%);fill-opacity:1;" d="M 201.550781 117.179688 L 203.6875 120.941406 L 202.03125 120.941406 L 200.59375 118.421875 L 199.167969 120.941406 L 197.503906 120.941406 L 199.640625 117.179688 L 197.585938 113.566406 L 199.246094 113.566406 L 200.59375 115.941406 L 201.9375 113.566406 L 203.605469 113.566406 Z M 201.550781 117.179688 "/>
<path style=" stroke:none;fill-rule:nonzero;fill:rgb(85.09804%,76.47059%,0%);fill-opacity:1;" d="M 211.964844 99.210938 L 213.703125 99.210938 L 215.105469 101.839844 L 216.507812 99.210938 L 218.246094 99.210938 L 215.898438 103.480469 L 215.898438 106.585938 L 214.3125 106.585938 L 214.3125 103.480469 Z M 211.964844 99.210938 "/>
<path style=" stroke:none;fill-rule:nonzero;fill:rgb(67.058825%,4.313726%,0%);fill-opacity:1;" d="M 228.828125 115.269531 C 229.082031 115.273438 229.277344 115.210938 229.410156 115.078125 C 229.542969 114.945312 229.609375 114.75 229.613281 114.488281 C 229.613281 114.230469 229.550781 114.03125 229.421875 113.890625 C 229.292969 113.753906 229.097656 113.683594 228.84375 113.679688 L 227.949219 113.664062 L 227.933594 115.253906 Z M 228.847656 118.554688 C 229.171875 118.558594 229.417969 118.480469 229.582031 118.320312 C 229.746094 118.160156 229.832031 117.914062 229.835938 117.582031 C 229.839844 117.253906 229.761719 117.007812 229.601562 116.84375 C 229.4375 116.679688 229.195312 116.59375 228.867188 116.589844 L 227.917969 116.574219 L 227.898438 118.539062 Z M 230.378906 115.878906 C 230.726562 116.003906 230.992188 116.230469 231.179688 116.5625 C 231.363281 116.890625 231.457031 117.289062 231.449219 117.761719 C 231.441406 118.488281 231.234375 119.023438 230.820312 119.371094 C 230.40625 119.722656 229.785156 119.890625 228.949219 119.875 L 226.265625 119.832031 L 226.347656 112.320312 L 228.773438 112.359375 C 229.644531 112.375 230.273438 112.542969 230.660156 112.863281 C 231.046875 113.183594 231.238281 113.695312 231.230469 114.386719 C 231.226562 114.753906 231.152344 115.0625 231.007812 115.316406 C 230.859375 115.570312 230.652344 115.757812 230.378906 115.878906 Z M 230.378906 115.878906 "/>
<path style="fill-rule:nonzero;fill:rgb(97.254902%,97.254902%,97.254902%);fill-opacity:1;stroke-width:0.156388;stroke-linecap:butt;stroke-linejoin:miter;stroke:rgb(0%,0%,0%);stroke-opacity:1;stroke-miterlimit:4;" d="M 52.306858 45.060764 C 52.306858 45.060764 52.207031 43.383247 54.21441 42.326389 C 56.221788 41.269531 57.929688 39.934896 60.264757 39.344618 C 62.597656 38.75434 64.003906 38.59809 65.132378 38.628472 C 66.263021 38.661024 68.044705 38.815104 68.246528 38.90842 C 68.446181 39.001736 68.318142 39.481337 68.253038 39.787326 C 68.203125 40.026042 68.083767 40.30816 68.083767 40.30816 L 67.96441 40.954861 L 67.938368 41.519097 C 67.938368 41.519097 67.34375 40.744358 62.628038 41.783854 C 58.226997 42.756076 58.125 42.834201 58.125 42.834201 C 58.125 42.834201 56.510417 43.370226 55.614149 43.851997 C 55.434028 43.947483 53.161892 44.767795 53.161892 44.767795 C 52.845052 44.865451 52.549913 45.043403 52.306858 45.060764 Z M 52.306858 45.060764 " transform="matrix(1.8,0,0,1.8,0,0)"/>
<path style=" stroke:none;fill-rule:nonzero;fill:rgb(73.333335%,73.333335%,73.333335%);fill-opacity:1;" d="M 111.160156 73.351562 L 111.046875 71.28125 L 111.636719 71.234375 L 111.730469 72.949219 L 113.191406 72.828125 L 113.207031 73.179688 Z M 111.160156 73.351562 "/>
<path style=" stroke:none;fill-rule:nonzero;fill:rgb(73.333335%,73.333335%,73.333335%);fill-opacity:1;" d="M 113.519531 71.058594 L 114.679688 70.960938 C 114.910156 70.941406 115.082031 70.9375 115.195312 70.941406 C 115.3125 70.945312 115.414062 70.964844 115.503906 71 C 115.597656 71.039062 115.675781 71.089844 115.738281 71.15625 C 115.800781 71.222656 115.835938 71.304688 115.839844 71.394531 C 115.847656 71.492188 115.8125 71.582031 115.746094 71.671875 C 115.675781 71.757812 115.578125 71.828125 115.457031 71.878906 C 115.636719 71.902344 115.773438 71.953125 115.875 72.035156 C 115.976562 72.117188 116.027344 72.21875 116.035156 72.339844 C 116.039062 72.433594 116.015625 72.527344 115.957031 72.621094 C 115.902344 72.71875 115.820312 72.796875 115.71875 72.859375 C 115.613281 72.921875 115.484375 72.964844 115.328125 72.988281 C 115.230469 73.007812 114.996094 73.03125 114.621094 73.0625 L 113.632812 73.144531 Z M 114.125 71.359375 L 114.152344 71.839844 L 114.535156 71.808594 C 114.765625 71.789062 114.90625 71.773438 114.960938 71.765625 C 115.0625 71.75 115.140625 71.71875 115.195312 71.671875 C 115.25 71.625 115.277344 71.566406 115.273438 71.5 C 115.269531 71.4375 115.242188 71.386719 115.1875 71.351562 C 115.136719 71.3125 115.0625 71.296875 114.964844 71.292969 C 114.90625 71.296875 114.738281 71.304688 114.460938 71.328125 Z M 114.167969 72.1875 L 114.199219 72.746094 L 114.742188 72.699219 C 114.953125 72.683594 115.089844 72.667969 115.144531 72.652344 C 115.230469 72.636719 115.300781 72.601562 115.355469 72.550781 C 115.40625 72.503906 115.429688 72.441406 115.425781 72.367188 C 115.421875 72.304688 115.398438 72.253906 115.355469 72.214844 C 115.308594 72.175781 115.246094 72.148438 115.167969 72.132812 C 115.085938 72.121094 114.910156 72.125 114.644531 72.148438 Z M 114.167969 72.1875 "/>
<path style=" stroke:none;fill-rule:nonzero;fill:rgb(73.333335%,73.333335%,73.333335%);fill-opacity:1;" d="M 112.953125 68.304688 L 112.953125 66.230469 L 113.484375 66.230469 L 113.484375 67.953125 L 114.8125 67.953125 L 114.8125 68.304688 Z M 112.953125 68.304688 "/>
<path style=" stroke:none;fill-rule:nonzero;fill:rgb(73.333335%,73.333335%,73.333335%);fill-opacity:1;" d="M 115.789062 68.304688 L 115.789062 66.566406 L 115.003906 66.566406 L 115.003906 66.214844 L 117.101562 66.214844 L 117.101562 66.566406 L 116.320312 66.566406 L 116.320312 68.304688 Z M 115.789062 68.304688 "/>
<path style=" stroke:none;fill-rule:nonzero;fill:rgb(73.333335%,73.333335%,73.333335%);fill-opacity:1;" d="M 208.480469 68.386719 L 208.480469 66.296875 L 209.601562 66.296875 C 209.882812 66.296875 210.089844 66.3125 210.21875 66.351562 C 210.34375 66.390625 210.449219 66.457031 210.523438 66.550781 C 210.601562 66.648438 210.640625 66.757812 210.640625 66.882812 C 210.640625 67.039062 210.582031 67.167969 210.464844 67.269531 C 210.347656 67.371094 210.175781 67.4375 209.941406 67.464844 C 210.058594 67.515625 210.152344 67.574219 210.226562 67.640625 C 210.304688 67.703125 210.402344 67.816406 210.53125 67.980469 L 210.855469 68.386719 L 210.214844 68.386719 L 209.832031 67.933594 C 209.695312 67.769531 209.601562 67.667969 209.550781 67.625 C 209.5 67.582031 209.445312 67.554688 209.390625 67.539062 C 209.332031 67.523438 209.242188 67.515625 209.121094 67.515625 L 209.011719 67.515625 L 209.011719 68.386719 Z M 209.011719 67.179688 L 209.40625 67.179688 C 209.664062 67.179688 209.824219 67.171875 209.886719 67.15625 C 209.949219 67.136719 210 67.109375 210.035156 67.066406 C 210.070312 67.023438 210.089844 66.972656 210.089844 66.910156 C 210.089844 66.839844 210.066406 66.78125 210.019531 66.738281 C 209.972656 66.695312 209.90625 66.667969 209.816406 66.65625 C 209.773438 66.652344 209.644531 66.648438 209.429688 66.648438 L 209.011719 66.648438 Z M 209.011719 67.179688 "/>
<path style=" stroke:none;fill-rule:nonzero;fill:rgb(73.333335%,73.333335%,73.333335%);fill-opacity:1;" d="M 211.738281 68.386719 L 211.738281 66.648438 L 210.953125 66.648438 L 210.953125 66.296875 L 213.054688 66.296875 L 213.054688 66.648438 L 212.273438 66.648438 L 212.273438 68.386719 Z M 211.738281 68.386719 "/>
<path style="fill-rule:nonzero;fill:rgb(97.254902%,97.254902%,97.254902%);fill-opacity:1;stroke-width:0.156231;stroke-linecap:butt;stroke-linejoin:miter;stroke:rgb(0%,0%,0%);stroke-opacity:1;stroke-miterlimit:4;" d="M 127.367622 45.117188 L 127.983941 45.071615 C 127.983941 45.071615 128.083767 43.394097 126.078559 42.33724 C 124.075521 41.282552 122.371962 39.945747 120.043403 39.355469 C 117.712674 38.765191 116.310764 38.608941 115.182292 38.641493 C 114.05599 38.671875 112.519531 38.804253 112.319878 38.897569 C 112.413194 39.490017 112.384983 40.119358 112.49349 40.596788 L 112.619358 41.421441 C 112.619358 41.421441 112.96658 40.93967 117.701823 41.746962 C 122.434896 42.554253 122.847222 42.894965 122.847222 42.894965 C 122.847222 42.894965 124.296875 43.608941 124.481337 43.687066 C 124.919705 43.873698 127.367622 45.117188 127.367622 45.117188 Z M 127.367622 45.117188 " transform="matrix(1.8,0,0,1.8,0,0)"/>
<path style=" stroke:none;fill-rule:nonzero;fill:rgb(73.333335%,73.333335%,73.333335%);fill-opacity:1;" d="M 209.285156 72.832031 L 209.34375 70.742188 L 210.582031 70.796875 C 210.894531 70.8125 211.121094 70.839844 211.257812 70.882812 C 211.398438 70.925781 211.511719 71 211.59375 71.097656 C 211.675781 71.199219 211.714844 71.308594 211.710938 71.433594 C 211.707031 71.589844 211.636719 71.71875 211.507812 71.8125 C 211.375 71.910156 211.179688 71.964844 210.925781 71.980469 C 211.050781 72.039062 211.152344 72.105469 211.234375 72.171875 C 211.316406 72.238281 211.421875 72.355469 211.558594 72.523438 L 211.902344 72.949219 L 211.199219 72.917969 L 210.789062 72.445312 C 210.640625 72.273438 210.539062 72.167969 210.484375 72.121094 C 210.433594 72.078125 210.375 72.046875 210.3125 72.027344 C 210.25 72.011719 210.152344 71.996094 210.015625 71.992188 L 209.898438 71.988281 L 209.871094 72.859375 Z M 209.90625 71.652344 L 210.34375 71.671875 C 210.625 71.683594 210.800781 71.683594 210.871094 71.667969 C 210.941406 71.65625 211 71.628906 211.039062 71.589844 C 211.078125 71.546875 211.101562 71.496094 211.101562 71.433594 C 211.105469 71.363281 211.082031 71.304688 211.03125 71.261719 C 210.976562 71.214844 210.90625 71.183594 210.808594 71.167969 C 210.761719 71.160156 210.621094 71.152344 210.382812 71.144531 L 209.921875 71.121094 Z M 209.90625 71.652344 "/>
<path style=" stroke:none;fill-rule:nonzero;fill:rgb(73.333335%,73.333335%,73.333335%);fill-opacity:1;" d="M 212.285156 70.871094 L 213.449219 70.925781 C 213.679688 70.933594 213.851562 70.949219 213.964844 70.96875 C 214.078125 70.984375 214.179688 71.019531 214.265625 71.066406 C 214.355469 71.113281 214.429688 71.175781 214.484375 71.25 C 214.542969 71.328125 214.570312 71.410156 214.566406 71.5 C 214.566406 71.597656 214.527344 71.6875 214.449219 71.765625 C 214.375 71.84375 214.273438 71.898438 214.144531 71.933594 C 214.320312 71.980469 214.457031 72.050781 214.550781 72.144531 C 214.640625 72.238281 214.6875 72.34375 214.683594 72.464844 C 214.679688 72.558594 214.648438 72.652344 214.582031 72.738281 C 214.519531 72.824219 214.433594 72.894531 214.324219 72.941406 C 214.214844 72.992188 214.082031 73.019531 213.925781 73.023438 C 213.828125 73.027344 213.59375 73.019531 213.21875 73.007812 L 212.226562 72.960938 Z M 212.863281 71.246094 L 212.851562 71.730469 L 213.234375 71.746094 C 213.464844 71.757812 213.605469 71.761719 213.664062 71.757812 C 213.765625 71.753906 213.84375 71.734375 213.902344 71.695312 C 213.960938 71.65625 213.992188 71.601562 213.992188 71.535156 C 213.996094 71.46875 213.972656 71.417969 213.921875 71.375 C 213.875 71.332031 213.800781 71.304688 213.703125 71.289062 C 213.644531 71.285156 213.480469 71.273438 213.203125 71.261719 Z M 212.839844 72.078125 L 212.824219 72.636719 L 213.367188 72.660156 C 213.582031 72.667969 213.714844 72.671875 213.773438 72.664062 C 213.859375 72.65625 213.933594 72.632812 213.988281 72.589844 C 214.042969 72.550781 214.074219 72.492188 214.074219 72.417969 C 214.078125 72.355469 214.058594 72.300781 214.015625 72.253906 C 213.976562 72.210938 213.914062 72.175781 213.835938 72.152344 C 213.757812 72.128906 213.582031 72.109375 213.316406 72.097656 Z M 212.839844 72.078125 "/>
<path style=" stroke:none;fill-rule:nonzero;fill:rgb(52.156866%,65.490198%,100%);fill-opacity:1;" d="M 201.605469 117.496094 L 203.742188 121.257812 L 202.089844 121.257812 L 200.648438 118.738281 L 199.222656 121.257812 L 197.5625 121.257812 L 199.695312 117.496094 L 197.644531 113.882812 L 199.300781 113.882812 L 200.648438 116.257812 L 201.996094 113.882812 L 203.660156 113.882812 Z M 201.605469 117.496094 "/>
<path style=" stroke:none;fill-rule:nonzero;fill:rgb(100%,97.647059%,75.686276%);fill-opacity:1;" d="M 212.28125 99.726562 L 214.019531 99.726562 L 215.421875 102.355469 L 216.824219 99.726562 L 218.5625 99.726562 L 216.214844 103.992188 L 216.214844 107.101562 L 214.628906 107.101562 L 214.628906 103.992188 Z M 212.28125 99.726562 "/>
<path style=" stroke:none;fill-rule:nonzero;fill:rgb(67.843139%,100%,57.254905%);fill-opacity:1;" d="M 215.289062 133.414062 L 212.808594 133.414062 L 212.414062 134.757812 L 210.820312 134.757812 L 213.097656 127.382812 L 214.992188 127.382812 L 217.273438 134.757812 L 215.675781 134.757812 Z M 213.203125 132.046875 L 214.890625 132.046875 L 214.046875 129.109375 Z M 213.203125 132.046875 "/>
<path style=" stroke:none;fill-rule:nonzero;fill:rgb(100%,63.137257%,60.784316%);fill-opacity:1;" d="M 229.210938 115.546875 C 229.464844 115.550781 229.660156 115.484375 229.792969 115.355469 C 229.925781 115.222656 229.992188 115.023438 229.996094 114.765625 C 230 114.503906 229.933594 114.308594 229.804688 114.167969 C 229.675781 114.03125 229.480469 113.960938 229.226562 113.957031 L 228.332031 113.941406 L 228.316406 115.53125 Z M 229.230469 118.832031 C 229.554688 118.835938 229.800781 118.757812 229.964844 118.597656 C 230.128906 118.4375 230.214844 118.1875 230.21875 117.855469 C 230.222656 117.53125 230.144531 117.285156 229.984375 117.121094 C 229.824219 116.957031 229.578125 116.871094 229.25 116.863281 L 228.300781 116.847656 L 228.28125 118.816406 Z M 230.761719 116.15625 C 231.109375 116.28125 231.375 116.507812 231.5625 116.835938 C 231.75 117.164062 231.839844 117.566406 231.835938 118.039062 C 231.828125 118.765625 231.617188 119.300781 231.203125 119.648438 C 230.789062 120 230.167969 120.164062 229.332031 120.152344 L 226.648438 120.109375 L 226.730469 112.597656 L 229.15625 112.636719 C 230.027344 112.652344 230.65625 112.820312 231.042969 113.140625 C 231.433594 113.460938 231.621094 113.96875 231.613281 114.664062 C 231.609375 115.03125 231.535156 115.339844 231.390625 115.59375 C 231.246094 115.847656 231.035156 116.035156 230.761719 116.15625 Z M 230.761719 116.15625 "/>
<path style="fill-rule:nonzero;fill:rgb(52.549022%,52.549022%,52.549022%);fill-opacity:1;stroke-width:0.150514;stroke-linecap:butt;stroke-linejoin:miter;stroke:rgb(0%,0%,0%);stroke-opacity:1;stroke-miterlimit:4;" d="M 75.700955 76.896701 L 77.146267 76.981337 C 77.146267 76.981337 77.580295 77.19401 77.65842 77.721354 C 77.714844 78.109809 78.051215 80.091146 78.153212 80.195312 C 78.255208 80.301649 78.717448 81.295573 79.127604 81.358507 C 79.53776 81.421441 82.287326 81.909722 82.458767 82.098524 C 82.628038 82.289497 82.884115 83.114149 82.884115 83.114149 L 82.918837 85.164931 C 82.918837 85.164931 82.81684 85.798611 82.66276 85.904948 C 82.508681 86.011285 79.674479 86.349826 79.674479 86.349826 C 79.674479 86.349826 78.819444 86.603733 78.665365 87.215712 C 78.511285 87.829861 78.205295 90.366753 78.068576 90.536024 C 77.931858 90.705295 77.743056 91.065538 77.35026 91.128472 C 76.957465 91.191406 75.028212 91.232639 75.028212 91.232639 C 75.028212 91.232639 74.309896 91.043837 74.138455 90.746528 C 73.969184 90.451389 73.541667 87.829861 73.541667 87.829861 C 73.541667 87.829861 73.268229 86.898872 72.413194 86.623264 C 71.56033 86.349826 69.954427 86.582031 69.474826 86.306424 C 68.997396 86.032986 68.671875 85.525174 68.639323 85.080295 C 68.604601 84.635417 68.450521 83.092448 68.519965 82.96658 C 68.58724 82.838542 68.91276 82.076823 69.099392 82.057292 C 69.288194 82.03559 71.866319 81.675347 72.157118 81.40191 C 72.447917 81.126302 73.096788 80.492622 73.13151 80.069444 C 73.166233 79.646267 73.315972 77.267795 73.446181 77.267795 C 73.554688 77.146267 73.645833 77.109375 73.730469 77.055122 C 73.873698 76.961806 74.244792 76.937934 74.720052 76.929253 C 75.31684 76.918403 75.700955 76.896701 75.700955 76.896701 Z M 75.700955 76.896701 " transform="matrix(1.8,0,0,1.8,0,0)"/>
</g>
</svg>
