<svg xmlns="http://www.w3.org/2000/svg" width="324" height="234"><defs><radialGradient id="a" cx="90.14" cy="72.32" r="47.05" fx="90.14" fy="72.32" gradientTransform="matrix(1 0 0 .604 0 28.64)" gradientUnits="userSpaceOnUse"><stop offset="0" stop-color="#2a2c2f"/><stop offset="1" stop-color="#424649"/></radialGradient><linearGradient id="b" x1="71.34" x2="668.84" y1="135.44" y2="135.44" gradientTransform="matrix(.1406 0 0 .174 38.12 21.75)" gradientUnits="userSpaceOnUse"><stop offset="0" stop-color="#272b2d"/><stop offset="1" stop-color="#33393e"/></linearGradient></defs><path fill="#f04b2f" d="M0 0h324v234H0z"/><path fill="none" stroke="#fff" stroke-width="1.84" d="M-1.7-1.95h327.9V235.1H-1.7Zm0 0"/><path fill="url(#a)" stroke="#000" stroke-width=".16" d="M64.82 44.07c-4.22-.04-10.2 2.95-12.56 4.11-.67.34-2.44 3.28-3.54 6.14-.5 1.28-4.12 14.3-4.12 14.3s-1.7 10.06-1.4 16.02c.3 5.97 3.2 11.44 3.2 11.44s2.48 2.97 3.8 3.6c1.6.75 4.48 1.2 6.05.87 3.63-.76 13.83-7.18 14.54-7.56.7-.37 1.4-.7 2.06-.92.5.58 4.24.98 6.14.23 1.91-.74 2.94-1.38 3.83-2.3 1.65-.11 4.63-.1 7.36-.09 2.73-.02 5.7-.02 7.35.09.89.92 1.92 1.56 3.82 2.3 1.9.75 5.64.35 6.13-.23.67.21 1.36.55 2.06.92.7.38 10.88 6.8 14.51 7.56 1.56.33 4.45-.13 6.03-.88 1.33-.62 3.79-3.6 3.79-3.6s2.9-5.46 3.2-11.42c.3-5.97-1.4-16.03-1.4-16.03s-3.61-13.01-4.1-14.3c-1.1-2.85-2.96-6.06-3.63-6.4-1.73-.84-5.1-2.89-8.87-3.61-2.35-.45-5.15-.5-7.14.3-1.34.54-2.52 1.94-3.41 2.57-1.04.73-5.27 3.9-7.68 4.65-3.5.72-7.1.69-10.62.57 0 0-8.27.12-10.68-.62-2.4-.75-5.62-3.44-6.66-4.17-.9-.63-1.53-1.31-3.5-2.47-1.54-1.1-3.2-1.07-4.56-1.07Zm0 0" transform="scale(1.8)"/><path fill="#e1e1e1" stroke="#000" stroke-width=".29" d="M155.6 146.77c0 10.52-8.43 19.06-18.82 19.06a18.94 18.94 0 0 1-18.82-19.06c0-10.53 8.43-19.07 18.82-19.07 10.4 0 18.82 8.54 18.82 19.07Zm0 0"/><path fill="#c9c9c9" stroke="#000" stroke-width=".32" d="M154.12 148.52a17.63 17.63 0 1 1-35.26 0 17.63 17.63 0 0 1 35.26 0Zm0 0"/><path fill="url(#b)" stroke="#000" stroke-width=".16" d="M64.87 34.52c-1.8.05-3.48.47-4.06.66-.92.3-1.45.97-1.45.97l-4.51 5.22-.78 1.01c-.91 1.42-1.12 1.43-1.26 1.78-.14.36-.6.95-.84 1.37-.14.26-.52 1.12-.74 1.34-.21.22-3.02 9.06-3.02 9.06s3.24-4.25 5.35-5.37c4.57-2.4 9.91-3.43 14.8-2.27 3.81.91 6.48 5.64 10.22 6.96 3.66 1.29 7.6.75 11.4.72 4.16-.03 8.45.43 12.45-.97 3.74-1.3 6.5-5.82 10.3-6.72 5.05-1.19 10.76-.85 15.33 2.07 1.79 1.15 4 5.6 4 5.6s-2.79-8.86-3-9.08c-.16-.32-.57-.98-.64-1.29-.07-.3-.98-1.25-1.12-1.6-.14-.35-.14-.05-1.08-1.43a222 222 0 0 1-.78-1.17l-4.5-5.22s-.53-.66-1.45-.97c-.92-.3-4.67-1.16-7.15-.22-1.92.74-2.2 1.19-2.2 1.19s-1.06 1.63-1.84 1.93c-.78.31-4.29 3.2-6.77 3.52-2.47.3-4.89.79-5.74.52-.85-.26-5.6-.19-5.6-.19s-4.78-.08-5.63.18c-.85.27-3.26-.22-5.75-.52-2.48-.31-6-3.21-6.78-3.52-.78-.31-1.85-1.93-1.85-1.93s-.26-.54-2.2-1.19a9.3 9.3 0 0 0-3.11-.44Zm0 0" transform="scale(1.8)"/><path stroke="#000" stroke-width=".27" d="m110.77 60.24 11.5 3.8-3.12 14.55-10.74-3.36Zm0 0"/><path fill="#f8f8f8" stroke="#000" stroke-width=".29" d="M108.52 74.4s1.63-12.36 1.67-13.2c.05-.84.54-5.99.68-6.71.13-.73 1.72-2.4 2.3-2.4h4.93s3.03.6 3.11 3.24c.1 2.63.14 5.42.14 5.42l-.81 12.86Zm0 0"/><path fill="#f3f3f3" fill-opacity=".45" stroke="#000" stroke-width=".29" d="M208.5 79.17c-2.53-.02-5 .31-7.02 1.12-2.42.98-4.55 3.5-6.14 4.63-1.87 1.32-9.5 7.03-13.82 8.37-6.3 1.3-12.79 1.25-19.13 1.04 0 0-14.88.22-19.21-1.13-4.34-1.34-10.13-6.18-12-7.5-1.6-1.13-2.72-2.33-6.3-4.4-2.75-2-5.74-1.98-8.22-1.98-7.59-.06-18.33 4.97-22.59 7.06-1.18.58-4.28 6.06-6.27 11.12l-1.01 3.18s5.82-7.66 9.62-9.67c8.23-4.33 17.84-6.17 26.63-4.08 6.87 1.63 11.66 10.15 18.4 12.52 6.59 2.32 13.68 1.35 20.53 1.3 7.48-.05 15.21.76 22.41-1.74 6.73-2.34 11.68-10.48 18.55-12.1 9.08-2.14 19.36-1.53 27.57 3.72 3.23 2.06 7.22 10.07 7.22 10.07l-1-3.17c-2-5.08-5.24-10.68-6.43-11.26-3.1-1.53-9.17-5.2-15.97-6.52a32.66 32.66 0 0 0-5.82-.58Zm0 0"/><path fill="#f1f1f1" stroke="#000" stroke-width=".29" d="m93.88 84.41.27-3.3s-.18-3.02 3.44-4.92c3.6-1.9 6.68-4.3 10.89-5.37 4.2-1.06 6.73-1.34 8.76-1.29 2.03.06 5.24.34 5.6.5.36.17.9 2.19 1.36 2.3.45.11 1.58.5 1.58.5l.13 3.97-1.03 4.42s-3.26-2.8-11.8-1.34c-8.54 1.45-11.2 3.07-11.2 3.07s-7.64 3.7-7.9 3.42c-.28-.28-.1-1.96-.1-1.96Zm0 0"/><path stroke="#000" stroke-width=".29" d="m203.15 63.71 11.03-3.67 3.16 14.54-11.03 3.67Zm0 0"/><path fill="#f8f8f8" stroke="#000" stroke-width=".29" d="M216.93 74.26s-1.63-12.36-1.67-13.2c-.05-.83-.54-5.98-.68-6.7-.13-.73-1.71-2.41-2.3-2.41h-4.91s-3.02.62-3.11 3.25c-.1 2.62-.14 5.42-.14 5.42l.81 12.86Zm0 0"/><path fill="#f1f1f1" stroke="#000" stroke-width=".29" d="m230.64 84.43-.27-3.3s.18-3.02-3.43-4.92c-3.6-1.9-6.67-4.3-10.86-5.37-4.2-1.06-6.72-1.34-8.75-1.29-2.03.06-5.23.34-5.6.5-.35.18-.9 2.19-1.34 2.3-.46.11-1.58.5-1.58.5l-.14 3.97 1.04 4.42s3.25-2.8 11.77-1.34c8.52 1.45 11.18 3.07 11.18 3.07s7.62 3.7 7.9 3.41c.26-.27.08-1.95.08-1.95Zm0 0"/><path fill="#0032b0" stroke="#000" stroke-width=".29" d="M206.53 116.52c0 3.62-2.71 6.55-6.06 6.55-3.34 0-6.06-2.93-6.06-6.55 0-3.62 2.72-6.55 6.06-6.55 3.35 0 6.06 2.93 6.06 6.55Zm0 0"/><path fill="#0e52ff" stroke="#000" stroke-width=".29" d="M206.13 117.57a5.5 5.5 0 0 1-5.52 5.48 5.5 5.5 0 0 1-5.52-5.48 5.5 5.5 0 0 1 5.52-5.48 5.5 5.5 0 0 1 5.52 5.48Zm0 0"/><path fill="#249500" stroke="#000" stroke-width=".38" d="M219.78 128.55a6.83 6.83 0 0 1-5.54 7.36 5.84 5.84 0 0 1-7.08-4.95 6.82 6.82 0 0 1 5.54-7.36c3.49-.66 6.66 1.55 7.08 4.95Zm0 0"/><path fill="#35d900" stroke="#000" stroke-width=".34" d="M219.45 129.88a6.2 6.2 0 0 1-4.78 6.83 5.23 5.23 0 0 1-6.35-4.48 6.21 6.21 0 0 1 4.79-6.82 5.23 5.23 0 0 1 6.34 4.47Zm0 0"/><path fill="#d9c300" stroke="#000" stroke-width=".32" d="M221.4 99.79c.75 3.73-1.5 7.65-5.04 8.75-3.54 1.1-7.02-1.04-7.77-4.77-.76-3.74 1.5-7.66 5.03-8.76 3.54-1.1 7.02 1.04 7.77 4.78Zm0 0"/><path fill="#ffe823" stroke="#000" stroke-width=".31" d="M220.87 101.56c.68 3.45-1.3 7-4.42 7.93-3.12.93-6.19-1.1-6.86-4.55-.67-3.44 1.3-7 4.43-7.92 3.1-.93 6.18 1.1 6.85 4.54Zm0 0"/><path fill="#ab0b00" stroke="#000" stroke-width=".34" d="M234.17 112.14c1.04 3.34-.77 7.41-4.05 9.11-3.28 1.7-6.78.37-7.82-2.95-1.04-3.34.77-7.4 4.05-9.1 3.27-1.7 6.78-.38 7.82 2.94Zm0 0"/><path fill="#ff1303" stroke="#000" stroke-width=".31" d="M233.79 113.46c.9 2.93-.68 6.5-3.53 8-2.85 1.49-5.9.33-6.81-2.6-.91-2.92.67-6.5 3.52-8 2.86-1.48 5.9-.32 6.82 2.6Zm0 0"/><path fill="#181818" stroke="#000" stroke-width=".29" d="M151.63 148.82c0 8.39-6.82 15.19-15.24 15.19-8.41 0-15.23-6.8-15.23-15.19s6.82-15.18 15.23-15.18a15.2 15.2 0 0 1 15.24 15.18Zm0 0"/><path fill="#999" stroke="#000" stroke-width=".36" d="M150.47 149.36c0 8-6.35 14.48-14.17 14.48s-14.17-6.49-14.17-14.48c0-8 6.35-14.49 14.17-14.49s14.17 6.49 14.17 14.49Zm0 0"/><path fill="#848484" stroke="#000" stroke-width=".32" d="M149.8 150.55c0 7.22-6.07 13.07-13.54 13.07-7.48 0-13.54-5.85-13.54-13.07 0-7.22 6.06-13.07 13.54-13.07 7.47 0 13.54 5.85 13.54 13.07Zm0 0"/><path fill="#353535" stroke="#000" stroke-width=".4" d="M172.92 116.52c0 5.78-4.67 10.48-10.42 10.48s-10.4-4.7-10.4-10.48c0-5.8 4.65-10.48 10.4-10.48s10.42 4.69 10.42 10.48Zm0 0"/><path fill="#cacaca" stroke="#000" stroke-width=".29" d="M171.09 116.46a8.56 8.56 0 1 1-17.12 0 8.56 8.56 0 0 1 17.12 0Zm0 0"/><path fill="#999" stroke="#000" stroke-width=".29" d="m136.26 137.4 2.7.15s.82.4.96 1.38c.1.73.74 4.43.93 4.63.19.2 1.05 2.06 1.82 2.18.76.12 5.9 1.03 6.23 1.38.32.36.8 1.9.8 1.9l.06 3.84s-.19 1.18-.48 1.38c-.29.2-5.59.83-5.59.83s-1.6.47-1.89 1.62c-.28 1.15-.86 5.9-1.11 6.2-.26.32-.6 1-1.34 1.12-.74.12-4.35.2-4.35.2s-1.34-.36-1.66-.91c-.32-.56-1.12-5.46-1.12-5.46s-.5-1.74-2.1-2.25c-1.6-.52-4.6-.09-5.5-.6a3.14 3.14 0 0 1-1.57-2.3c-.06-.82-.35-3.71-.22-3.95.13-.24.73-1.66 1.08-1.7.36-.04 5.18-.7 5.72-1.22.55-.52 1.76-1.7 1.82-2.5.07-.78.35-5.23.6-5.23.2-.23.37-.3.53-.4.26-.18.96-.22 1.85-.24 1.11-.02 1.83-.06 1.83-.06Zm0 0"/><path fill="#f1f1f1" stroke="#000" stroke-width=".29" d="M143.69 113.27s-1.19-.04-1.48 0c-.29.04-2.86.4-2.95 3.78-.1 3.38 3.04 4.05 3.04 4.05l1.38.04h1.46s3.19-.53 3.24-3.96c.05-3.41-3.3-3.9-3.3-3.9Zm37.63.17s-1.19-.04-1.47 0c-.3.04-2.86.4-2.96 3.77-.1 3.38 3.04 4.06 3.04 4.06l1.39.03h1.45s3.2-.53 3.24-3.95c.05-3.42-3.29-3.9-3.29-3.9Zm0 0"/><path fill="#d9d9d9" stroke="#000" stroke-width=".29" d="m144.98 116.2-.07 4.31-3.48-2.3Zm35.25.1-.17 4.11 3.65-1.96Zm0 0"/><path fill="#dadada" stroke="#000" stroke-width=".29" d="M205.05 145.02c0 8.99-8.34 16.28-18.62 16.28-10.29 0-18.63-7.3-18.63-16.28 0-9 8.34-16.29 18.63-16.29 10.28 0 18.62 7.3 18.62 16.29Zm0 0"/><path fill="#181818" stroke="#000" stroke-width=".31" d="M198.6 149.66c0 6.82-5.36 12.36-11.97 12.36-6.6 0-11.96-5.54-11.96-12.36 0-6.82 5.36-12.34 11.96-12.34 6.61 0 11.97 5.52 11.97 12.34Zm0 0"/><path fill="#757575" stroke="#000" stroke-width=".31" d="M197.44 149.57c0 6.24-4.89 11.3-10.92 11.3s-10.92-5.06-10.92-11.3c0-6.24 4.89-11.3 10.92-11.3s10.92 5.06 10.92 11.3Zm0 0"/><path fill="#dedede" stroke="#000" stroke-width=".38" d="M128.57 119.81c-1.41 9.71-10.7 15.62-20.75 13.2s-17.06-12.24-15.65-21.95c1.4-9.7 10.7-15.6 20.75-13.2 10.05 2.43 17.06 12.25 15.65 21.95Zm0 0"/><path fill="#181818" stroke="#000" stroke-width=".32" d="M122.74 119.24c0 6.85-5.38 12.4-12.03 12.4-6.65 0-12.03-5.55-12.03-12.4 0-6.85 5.38-12.4 12.03-12.4 6.65 0 12.03 5.55 12.03 12.4Zm0 0"/><path fill="#757575" stroke="#000" stroke-width=".31" d="M121.71 119.15c0 6.24-4.88 11.3-10.91 11.3s-10.93-5.06-10.93-11.3c0-6.24 4.9-11.3 10.93-11.3 6.03 0 10.91 5.06 10.91 11.3Zm0 0"/><path fill="#868686" stroke="#000" stroke-width=".38" d="M121.35 123.18c0 6.77-5.16 12.25-11.52 12.25-6.37 0-11.53-5.48-11.53-12.25s5.16-12.26 11.53-12.26c6.36 0 11.52 5.49 11.52 12.26Zm0 0"/><path fill="#868686" stroke="#000" stroke-width=".31" d="M197.84 155.05c0 6.39-5 11.57-11.15 11.57-6.16 0-11.15-5.18-11.15-11.57 0-6.39 4.99-11.57 11.15-11.57 6.15 0 11.15 5.18 11.15 11.57Zm0 0"/><path fill="#686868" d="M154.02 108.02h-.42v-1.3c-.15.12-.33.21-.54.26v-.3a2 2 0 0 0 .36-.18.68.68 0 0 0 .26-.28h.34Zm18.16-.46v.3H171a.8.8 0 0 1 .1-.32c.07-.11.2-.25.39-.42l.28-.28a.39.39 0 0 0 .07-.2c0-.08-.02-.13-.06-.17a.22.22 0 0 0-.17-.06.24.24 0 0 0-.17.06c-.04.04-.06.11-.07.2l-.33-.03c.01-.18.08-.3.18-.39.1-.08.24-.12.4-.12.17 0 .3.05.4.14.1.1.16.2.16.34a.6.6 0 0 1-.05.23.8.8 0 0 1-.13.21c-.04.06-.12.13-.22.23a5.37 5.37 0 0 0-.27.28Zm-18.97 19.76.34-.04a.3.3 0 0 0 .08.18.25.25 0 0 0 .35 0 .28.28 0 0 0 .07-.21.27.27 0 0 0-.07-.2.23.23 0 0 0-.17-.07c-.04 0-.1 0-.15.02l.04-.26c.09 0 .16-.02.2-.06a.2.2 0 0 0 .08-.16c0-.06-.02-.1-.05-.13a.2.2 0 0 0-.14-.06.25.25 0 0 0-.16.06.28.28 0 0 0-.07.17l-.32-.05c.03-.1.06-.19.1-.24.05-.07.1-.11.19-.15a.65.65 0 0 1 .26-.05c.17 0 .3.05.4.15a.4.4 0 0 1 .13.28c0 .15-.08.27-.25.36a.42.42 0 0 1 .34.4.5.5 0 0 1-.18.38.62.62 0 0 1-.43.16.62.62 0 0 1-.4-.13.54.54 0 0 1-.19-.35Zm18.23.47v-.33h-.72v-.28l.76-1.04h.29v1.04h.22v.28h-.22v.33Zm0-.6v-.57l-.4.56Zm-34.37-14.37.41-.5.2-.21c.05-.04.1-.07.15-.08a.33.33 0 0 1 .32.12.5.5 0 0 1 .07.45.33.33 0 0 1 .24-.06c.08.01.14.06.2.13.05.06.08.13.1.2a.57.57 0 0 1-.07.48l-.25.32-.35.43Zm.38-.04.24.3.13-.17c.09-.1.13-.16.15-.2a.24.24 0 0 0 .05-.14.2.2 0 0 0-.05-.14c-.03-.04-.07-.06-.1-.06a.16.16 0 0 0-.12.05l-.18.21Zm.4.5.28.35.19-.24.14-.18c.02-.05.04-.1.03-.14a.3.3 0 0 0-.05-.15.19.19 0 0 0-.1-.07c-.04 0-.08 0-.12.03a.84.84 0 0 0-.2.2Zm2.43-1.26-.28.2-.27-.27-.5.37.07.43-.27.2-.26-1.9.27-.2Zm-.76-.27-.45-.44.11.7Zm1.64-.76h.3c0 .2-.03.37-.1.5a.64.64 0 0 1-.34.28.53.53 0 0 1-.5-.06c-.17-.1-.28-.3-.35-.57a1.18 1.18 0 0 1 .01-.73c.08-.2.21-.34.4-.42a.5.5 0 0 1 .47.02c.08.05.15.14.22.26l-.26.2a.32.32 0 0 0-.15-.18.25.25 0 0 0-.21 0 .38.38 0 0 0-.22.23.86.86 0 0 0 .02.48c.06.22.13.36.21.43.09.07.18.08.29.04a.3.3 0 0 0 .16-.16.6.6 0 0 0 .05-.32Zm.68.47-.15-1.78.29-.04.07.79.52-.87.39-.06-.48.77.66 1.02-.37.05-.47-.79-.21.33.05.54Zm39.76-.71.29-.04c.01.12.05.2.1.27a.3.3 0 0 0 .2.08c.1 0 .18-.02.22-.07.05-.05.07-.1.08-.17a.2.2 0 0 0-.03-.11.26.26 0 0 0-.1-.08 3.04 3.04 0 0 0-.24-.08.71.71 0 0 1-.33-.18.51.51 0 0 1-.13-.36c0-.1.02-.18.06-.26a.4.4 0 0 1 .19-.18.58.58 0 0 1 .28-.06c.18 0 .32.05.41.15.1.1.14.23.14.4l-.3.01a.36.36 0 0 0-.07-.2c-.04-.04-.1-.06-.19-.06a.3.3 0 0 0-.2.06.14.14 0 0 0-.04.11c0 .05.01.08.04.11.04.04.13.08.27.12.14.05.25.1.31.14.07.04.12.1.16.18.04.08.06.17.06.29 0 .1-.03.2-.07.29a.44.44 0 0 1-.2.2.7.7 0 0 1-.31.06.58.58 0 0 1-.43-.16.78.78 0 0 1-.17-.46Zm1.74.71.23-1.46-.43-.1.05-.3 1.13.26-.05.3-.41-.1-.23 1.47Zm2.12.79-.3-.13v-.44l-.54-.25-.23.33-.29-.14 1.04-1.43.29.13Zm-.3-.9v-.7l-.37.54Zm.44 1.01.76-1.53.52.4c.14.1.23.18.27.25.05.07.07.16.07.26s-.02.19-.06.28a.41.41 0 0 1-.23.22c-.09.04-.2.02-.3-.04l.06.23.02.36v.4l-.3-.22-.01-.47-.02-.32a.32.32 0 0 0-.04-.12.46.46 0 0 0-.12-.11l-.05-.04-.32.64Zm.69-.7.18.14c.12.1.2.14.24.15h.1a.23.23 0 0 0 .08-.1c.02-.06.04-.1.03-.15a.35.35 0 0 0-.06-.14l-.18-.14-.2-.15Zm.79 1.94.8-1.12-.33-.35.16-.22.86.93-.16.23-.32-.35-.8 1.12Zm0 0"/><path fill="#999" stroke="#000" stroke-width=".36" d="M120.95 123.68c0 6.3-4.97 11.41-11.1 11.41s-11.1-5.11-11.1-11.41c0-6.31 4.97-11.42 11.1-11.42s11.1 5.1 11.1 11.42Zm0 0"/><path fill="#999" stroke="#000" stroke-width=".34" d="M197.53 155.43c0 6.03-4.84 10.92-10.82 10.92s-10.82-4.9-10.82-10.92c0-6.04 4.84-10.93 10.82-10.93s10.82 4.9 10.82 10.93Zm0 0"/><path fill="#b0b0b0" stroke="#000" stroke-width=".29" d="M109.95 116.08a.5.5 0 0 1-.5.51.5.5 0 0 1-.5-.51.5.5 0 0 1 .5-.52c.27 0 .5.23.5.52Zm8.43 8.42a.5.5 0 0 1-.5.52.5.5 0 0 1-.5-.52.5.5 0 0 1 .5-.51c.28 0 .5.22.5.51Zm-8.38 7.55a.5.5 0 0 1-.49.52.5.5 0 0 1-.49-.52.5.5 0 0 1 .5-.51.5.5 0 0 1 .49.51Zm-7.75-8.1a.5.5 0 0 1-.5.51.5.5 0 0 1-.5-.51.5.5 0 0 1 .5-.52c.27 0 .5.23.5.52Zm0 0"/><path fill="#afafaf" stroke="#000" stroke-width=".29" d="M187.38 148.74a.5.5 0 0 1-.49.52.5.5 0 0 1-.5-.52.5.5 0 0 1 .5-.51c.27 0 .5.23.5.51Zm0 0"/><path fill="#979797" stroke="#000" stroke-width=".29" d="M195.02 156.34a.5.5 0 0 1-.5.51.5.5 0 0 1-.49-.51.5.5 0 0 1 .5-.52.5.5 0 0 1 .49.52Zm0 0"/><path fill="#b0b0b0" stroke="#000" stroke-width=".29" d="M187.2 163.14a.5.5 0 0 1-.5.51.5.5 0 0 1-.5-.51.5.5 0 0 1 .5-.52c.27 0 .5.24.5.52Zm-7.26-7.32a.5.5 0 0 1-.5.52.5.5 0 0 1-.5-.52.5.5 0 0 1 .5-.51c.28 0 .5.23.5.51Zm0 0"/><path fill="#249500" d="M215.07 132.96h-2.48l-.4 1.35h-1.59l2.28-7.38h1.9l2.28 7.38h-1.6ZM213 131.6h1.69l-.85-2.94Zm0 0"/><path fill="#0032b0" d="m201.55 117.18 2.14 3.76h-1.66l-1.44-2.52-1.42 2.52h-1.67l2.14-3.76-2.05-3.61h1.66l1.34 2.37 1.35-2.37h1.67Zm0 0"/><path fill="#d9c300" d="M211.96 99.21h1.74l1.4 2.63 1.4-2.63h1.75l-2.35 4.27v3.1h-1.59v-3.1Zm0 0"/><path fill="#ab0b00" d="M228.83 115.27c.25 0 .45-.06.58-.2.13-.12.2-.32.2-.58 0-.26-.06-.46-.19-.6-.13-.14-.32-.2-.58-.21l-.9-.02v1.6Zm.02 3.28c.32 0 .57-.07.73-.23.17-.16.25-.4.26-.74 0-.33-.08-.57-.24-.74-.16-.16-.4-.25-.73-.25l-.95-.02-.02 1.97Zm1.53-2.67c.35.12.61.35.8.68.18.33.28.73.27 1.2 0 .73-.22 1.26-.63 1.61-.41.35-1.03.52-1.87.5l-2.68-.04.08-7.51 2.42.04c.87.02 1.5.18 1.89.5.39.32.58.84.57 1.53 0 .36-.08.67-.22.93-.15.25-.36.44-.63.56Zm0 0"/><path fill="#f8f8f8" stroke="#000" stroke-width=".29" d="M94.15 81.1s-.18-3.01 3.44-4.91c3.6-1.9 6.68-4.3 10.89-5.37 4.2-1.06 6.73-1.34 8.76-1.29 2.03.06 5.24.34 5.6.5.36.17.13 1.04.02 1.59-.1.43-.3.93-.3.93l-.22 1.17-.05 1.01s-1.07-1.39-9.56.48c-7.92 1.75-8.1 1.9-8.1 1.9s-2.91.96-4.52 1.82a155 155 0 0 1-4.42 1.65c-.57.18-1.1.5-1.54.53Zm0 0"/><path fill="#bbb" d="m111.16 73.35-.11-2.07.59-.05.09 1.72 1.46-.12.02.35Zm2.36-2.29 1.16-.1c.23-.02.4-.02.52-.02.11 0 .21.02.3.06.1.04.18.09.24.16.06.06.1.14.1.23a.4.4 0 0 1-.1.28.73.73 0 0 1-.28.2c.18.03.31.08.42.17.1.08.15.18.16.3 0 .1-.02.19-.08.28a.66.66 0 0 1-.24.24c-.1.06-.24.1-.4.13a7.9 7.9 0 0 1-.7.07l-.99.08Zm.6.3.03.48.39-.03.42-.04c.1-.02.18-.05.24-.1a.2.2 0 0 0 .07-.17.18.18 0 0 0-.08-.15c-.05-.04-.13-.05-.23-.06l-.5.04Zm.05.83.03.56.54-.05c.21-.02.35-.03.4-.05a.41.41 0 0 0 .22-.1c.05-.05.07-.1.07-.18a.22.22 0 0 0-.07-.16.42.42 0 0 0-.2-.08l-.52.02Zm-1.22-3.89v-2.07h.53v1.72h1.33v.35Zm2.84 0v-1.73H115v-.36h2.1v.36h-.78v1.73Zm92.69.09v-2.1h1.12c.28 0 .49.02.62.06.12.04.23.1.3.2.08.1.12.2.12.33 0 .16-.06.29-.18.39a.95.95 0 0 1-.52.2 1 1 0 0 1 .29.17c.07.06.17.18.3.34l.33.4h-.65l-.38-.45a3 3 0 0 0-.28-.3.43.43 0 0 0-.16-.1 1.13 1.13 0 0 0-.27-.01h-.1v.87Zm.53-1.21h.4c.25 0 .41 0 .48-.02a.3.3 0 0 0 .15-.1.25.25 0 0 0 .05-.15.22.22 0 0 0-.07-.17.36.36 0 0 0-.2-.08l-.39-.01h-.42Zm2.73 1.21v-1.74h-.79v-.35h2.1v.35h-.78v1.74Zm0 0"/><path fill="#f8f8f8" stroke="#000" stroke-width=".29" d="m229.26 81.21 1.11-.08s.18-3.02-3.43-4.92c-3.6-1.9-6.67-4.3-10.86-5.37-4.2-1.06-6.72-1.34-8.75-1.29-2.03.06-4.8.3-5.15.47.16 1.06.11 2.2.3 3.05l.23 1.49s.63-.87 9.15.58c8.52 1.46 9.26 2.07 9.26 2.07s2.61 1.29 2.95 1.43c.79.33 5.2 2.57 5.2 2.57Zm0 0"/><path fill="#bbb" d="m209.29 72.83.05-2.09 1.24.06c.31.01.54.04.68.08a.7.7 0 0 1 .33.22.5.5 0 0 1-.08.71c-.13.1-.33.15-.58.17a1.5 1.5 0 0 1 .63.54l.34.43-.7-.03-.41-.47a3.56 3.56 0 0 0-.3-.33.5.5 0 0 0-.18-.1 1.42 1.42 0 0 0-.3-.03h-.11l-.03.87Zm.62-1.18.43.02h.53a.3.3 0 0 0 .17-.08c.04-.04.06-.1.06-.16a.2.2 0 0 0-.07-.17.43.43 0 0 0-.22-.1l-.43-.02-.46-.02Zm2.38-.78 1.16.06c.23 0 .4.02.51.04.12.01.22.05.3.1.1.04.17.1.22.18a.37.37 0 0 1-.03.52.64.64 0 0 1-.3.16 1 1 0 0 1 .4.21c.1.1.14.2.13.32 0 .1-.03.2-.1.28a.61.61 0 0 1-.26.2 1 1 0 0 1-.4.08l-.7-.01-1-.05Zm.57.38v.48l.37.02h.43c.1 0 .18-.02.24-.05.06-.04.1-.1.1-.16a.18.18 0 0 0-.08-.17.42.42 0 0 0-.22-.08l-.5-.03Zm-.02.83-.02.56.55.02h.4a.4.4 0 0 0 .22-.07.2.2 0 0 0 .08-.17.21.21 0 0 0-.05-.17.4.4 0 0 0-.18-.1 2.7 2.7 0 0 0-.52-.05Zm0 0"/><path fill="#85a7ff" d="m201.6 117.5 2.14 3.76h-1.65l-1.44-2.52-1.43 2.52h-1.66l2.14-3.76-2.06-3.62h1.66l1.35 2.38 1.35-2.38h1.66Zm0 0"/><path fill="#fff9c1" d="M212.28 99.73h1.74l1.4 2.63 1.4-2.63h1.74l-2.35 4.26v3.11h-1.58V104Zm0 0"/><path fill="#adff92" d="M215.29 133.41h-2.48l-.4 1.35h-1.59l2.28-7.38h1.9l2.27 7.38h-1.6Zm-2.09-1.36h1.7l-.85-2.94Zm0 0"/><path fill="#ffa19b" d="M229.21 115.55c.25 0 .45-.07.58-.2.14-.13.2-.33.2-.58a.83.83 0 0 0-.19-.6c-.12-.14-.32-.2-.57-.21l-.9-.02-.01 1.6Zm.02 3.28c.32 0 .57-.07.73-.23.17-.16.25-.41.26-.74 0-.33-.08-.57-.24-.74-.16-.16-.4-.25-.73-.26l-.95-.01-.02 1.97Zm1.53-2.67c.35.12.62.35.8.68.19.32.28.73.28 1.2-.01.73-.22 1.26-.64 1.6-.41.36-1.03.52-1.87.51l-2.68-.04.08-7.51 2.43.04c.87.01 1.5.18 1.88.5.4.32.58.83.57 1.52 0 .37-.07.68-.22.93-.14.26-.35.45-.63.57Zm0 0"/><path fill="#868686" stroke="#000" stroke-width=".27" d="m136.26 138.41 2.6.16s.78.38.93 1.33c.1.7.7 4.26.89 4.45.18.2 1.01 1.98 1.75 2.1.74.1 5.69.99 6 1.33.3.34.76 1.83.76 1.83l.06 3.69s-.18 1.14-.46 1.33c-.27.19-5.38.8-5.38.8s-1.54.46-1.81 1.56c-.28 1.1-.83 5.67-1.08 5.97-.24.31-.58.96-1.29 1.07-.7.11-4.18.19-4.18.19s-1.3-.34-1.6-.88c-.3-.53-1.07-5.25-1.07-5.25s-.5-1.67-2.04-2.17c-1.53-.49-4.42-.07-5.29-.57a3 3 0 0 1-1.5-2.2c-.06-.8-.34-3.58-.21-3.81.12-.23.7-1.6 1.04-1.64.34-.04 4.98-.68 5.5-1.18.53-.5 1.7-1.63 1.76-2.4.06-.76.33-5.04.56-5.04.2-.22.36-.28.51-.38a4.6 4.6 0 0 1 1.79-.23c1.07-.02 1.76-.06 1.76-.06Zm0 0"/></svg>