<svg xmlns="http://www.w3.org/2000/svg" xmlns:xlink="http://www.w3.org/1999/xlink" xml:space="preserve" width="324" height="234"><defs><linearGradient id="a"><stop offset="0" stop-color="#00415a"/><stop offset="1" stop-color="#30c4ed"/></linearGradient><linearGradient xlink:href="#a" id="b" x1="68.71" x2="395.51" y1="56.09" y2="271.86" gradientUnits="userSpaceOnUse"/></defs><path fill="url(#b)" d="M0 0h324v234H0z"/><path fill="#fff" fill-rule="evenodd" d="m142.65 82.4 12.73-29.64h13.24l35.57 82.82c-6.78 3.98-14.92 6.53-23.45 7.99L162 100.94l-20.37 46.32c6.37 1.2 13.23 1.86 20.37 1.86 33.5 0 60.7-14.4 60.7-32.12 0-9.76-8.25-18.5-21.24-24.4a6.88 6.88 0 0 1-5.25 2.35c-3.67 0-6.64-2.7-6.64-6.04 0-3.33 2.97-6.04 6.64-6.04 3.42 0 6.24 2.36 6.6 5.38 18.03 7.28 29.81 19.25 29.81 32.76 0 11.5-8.51 21.88-22.15 29.2a83.77 83.77 0 0 1-23.16 8.3 118.97 118.97 0 0 1-25.31 2.66c-8.92 0-17.45-.95-25.31-2.66l-10 22.73H100.2l13.32-31.03c-13.64-7.32-22.15-17.7-22.15-29.2 0-18.34 21.69-33.83 51.27-38.62zm81.14 98.84h-26.48L189 162.32a92.47 92.47 0 0 0 23.1-8.32zm-83.08-94.33c-23 4.57-39.4 16.33-39.4 30.09 0 8.63 6.45 16.47 16.93 22.25z" clip-rule="evenodd"/></svg>