<svg xmlns="http://www.w3.org/2000/svg" width="324" height="234" viewBox="0 0 85.73 61.91"><defs><linearGradient id="a" x1="700" x2="700" y1="25" y2="777" gradientTransform="matrix(.12 0 0 .12 -25.26 -13.93)" gradientUnits="userSpaceOnUse"><stop offset="0" stop-color="#ff0031"/><stop offset="1" stop-color="#b000e6"/></linearGradient><linearGradient id="b" x1="750" x2="750" y1="25" y2="777" gradientTransform="matrix(.12 0 0 .12 -25.26 -13.93)" gradientUnits="userSpaceOnUse"><stop offset="0" stop-color="#ff004a"/><stop offset="1" stop-color="#9400da"/></linearGradient><linearGradient id="c" x1="800" x2="800" y1="25" y2="777" gradientTransform="matrix(.12 0 0 .12 -25.26 -13.93)" gradientUnits="userSpaceOnUse"><stop offset="0" stop-color="#ff0063"/><stop offset="1" stop-color="#7a00ce"/></linearGradient><linearGradient id="d" x1="850" x2="850" y1="25" y2="777" gradientTransform="matrix(.12 0 0 .12 -25.26 -13.93)" gradientUnits="userSpaceOnUse"><stop offset="0" stop-color="#ff007c"/><stop offset="1" stop-color="#6200c1"/></linearGradient><linearGradient id="e" x1="900" x2="900" y1="25" y2="777" gradientTransform="matrix(.12 0 0 .12 -25.26 -13.93)" gradientUnits="userSpaceOnUse"><stop offset="0" stop-color="#ff0094"/><stop offset="1" stop-color="#4d00b5"/></linearGradient><linearGradient id="f" x1="950" x2="950" y1="25" y2="777" gradientTransform="matrix(.12 0 0 .12 -25.26 -13.93)" gradientUnits="userSpaceOnUse"><stop offset="0" stop-color="#ff00ad"/><stop offset="1" stop-color="#3900a8"/></linearGradient><linearGradient id="g" x1="1000" x2="1000" y1="25" y2="777" gradientTransform="matrix(.12 0 0 .12 -25.26 -13.93)" gradientUnits="userSpaceOnUse"><stop offset="0" stop-color="#ff00c6"/><stop offset="1" stop-color="#28009c"/></linearGradient><linearGradient id="h" x1="1050" x2="1050" y1="25" y2="777" gradientTransform="matrix(.12 0 0 .12 -25.26 -13.93)" gradientUnits="userSpaceOnUse"><stop offset="0" stop-color="#ff00df"/><stop offset="1" stop-color="#180090"/></linearGradient></defs><path fill="url(#a)" d="M0 0v61.91h85.73V0Z"/><path fill="url(#b)" d="M10.39 0v61.91h75.34V0Z"/><path fill="url(#c)" d="M22.27 0v61.91h63.46V0Z"/><path fill="url(#d)" d="M34.16 0v61.91h51.57V0Z"/><path fill="url(#e)" d="M46.04 0v61.91h39.69V0Z"/><path fill="url(#f)" d="M57.92 0v61.91h27.8V0Z"/><path fill="url(#g)" d="M69.8 0v61.91h15.93V0Z"/><path fill="url(#h)" d="M81.68 0v61.91h4.05V0Z"/><path fill="#fff" d="M38.64 37.37V28.5h-.06l-3.35 8.88h-1.3l-3.35-8.88h-.06v8.88h-1.55V25.33h1.98l3.6 9.6h.06l3.6-9.6h2.04v12.04zm10.35 0h-1.61v-1.51h-.07a2.56 2.56 0 0 1-2.54 1.64c-1.8 0-2.85-1.25-2.85-3.29v-5.66h1.68v5.33c0 1.32.62 2.05 1.73 2.05 1.24 0 1.92-.93 1.92-2.3v-5.08h1.68zm4.59-8.95c1.92 0 3.1 1.12 3.16 2.77h-1.55c-.13-.86-.69-1.39-1.61-1.39-.93 0-1.55.47-1.55 1.19 0 .53.37.92 1.24 1.12l1.3.33c1.67.4 2.29 1.12 2.29 2.37 0 1.58-1.36 2.7-3.28 2.7-2.05 0-3.29-1.06-3.41-2.77h1.67c.12.92.74 1.38 1.74 1.38.99 0 1.6-.46 1.6-1.18 0-.6-.3-.92-1.17-1.12l-1.3-.33c-1.55-.4-2.3-1.18-2.3-2.5 0-1.51 1.24-2.57 3.17-2.57zm4.52-2.17c0-.6.43-1.05 1-1.05.55 0 .98.46.98 1.05 0 .6-.43 1.05-.99 1.05s-.99-.46-.99-1.05zm.12 2.3h1.68v8.82h-1.68zm8.74 3.03c-.18-.92-.8-1.71-1.92-1.71-1.3 0-2.17 1.18-2.17 3.03 0 1.9.87 3.03 2.17 3.03 1.06 0 1.68-.6 1.92-1.65h1.61a3.4 3.4 0 0 1-3.53 3.16c-2.35 0-3.84-1.71-3.84-4.54 0-2.77 1.49-4.54 3.84-4.54a3.4 3.4 0 0 1 3.53 3.16zm-43.14-5.07c-.43.53-1.11 1-1.8.93-.12-.8.25-1.58.63-2.05a2.4 2.4 0 0 1 1.8-.98c.06.72-.2 1.51-.63 2.1zm.62 1.06c.38 0 1.5.13 2.24 1.31-.07.07-1.3.86-1.3 2.5a2.83 2.83 0 0 0 1.6 2.64c0 .06-.24.92-.8 1.84-.5.79-1.05 1.58-1.86 1.58-.8 0-1.05-.53-1.98-.53-.93 0-1.24.53-1.99.53-.8 0-1.42-.86-1.92-1.65-1.05-1.64-1.86-4.6-.74-6.58a2.9 2.9 0 0 1 2.48-1.64c.8 0 1.55.59 1.98.59.43 0 1.3-.66 2.3-.6z"/></svg>