<?xml version="1.0" encoding="UTF-8" standalone="no"?>
<svg
   xmlns:dc="http://purl.org/dc/elements/1.1/"
   xmlns:cc="http://creativecommons.org/ns#"
   xmlns:rdf="http://www.w3.org/1999/02/22-rdf-syntax-ns#"
   xmlns:svg="http://www.w3.org/2000/svg"
   xmlns="http://www.w3.org/2000/svg"
   xmlns:xlink="http://www.w3.org/1999/xlink"
   xmlns:sodipodi="http://sodipodi.sourceforge.net/DTD/sodipodi-0.dtd"
   xmlns:inkscape="http://www.inkscape.org/namespaces/inkscape"
   width="324px"
   height="234px"
   viewBox="0 0 324 234"
   version="1.1"
   id="svg23"
   sodipodi:docname="droidcam.svg"
   inkscape:version="1.0.2 (1.0.2+r75+1)">
  <sodipodi:namedview
     pagecolor="#ffffff"
     bordercolor="#666666"
     borderopacity="1"
     objecttolerance="10"
     gridtolerance="10"
     guidetolerance="10"
     inkscape:pageopacity="0"
     inkscape:pageshadow="2"
     inkscape:window-width="1920"
     inkscape:window-height="980"
     id="namedview58"
     showgrid="false"
     inkscape:zoom="2.4567428"
     inkscape:cx="228.24151"
     inkscape:cy="94.468443"
     inkscape:window-x="0"
     inkscape:window-y="0"
     inkscape:window-maximized="1"
     inkscape:current-layer="svg23" />
  <metadata
     id="metadata29">
    <rdf:RDF>
      <cc:Work
         rdf:about="">
        <dc:format>image/svg+xml</dc:format>
        <dc:type
           rdf:resource="http://purl.org/dc/dcmitype/StillImage" />
        <dc:title></dc:title>
      </cc:Work>
    </rdf:RDF>
  </metadata>
  <defs
     id="defs27">
    <filter
       id="deepin-calculator-a"
       width="131%"
       height="131%"
       x="-15.5%"
       y="-15.5%"
       filterUnits="objectBoundingBox">
      <feOffset
         dy="1"
         in="SourceAlpha"
         result="shadowOffsetOuter1"
         id="feOffset2" />
      <feGaussianBlur
         in="shadowOffsetOuter1"
         result="shadowBlurOuter1"
         stdDeviation="1"
         id="feGaussianBlur4" />
      <feComposite
         in="shadowBlurOuter1"
         in2="SourceAlpha"
         operator="out"
         result="shadowBlurOuter1"
         id="feComposite6" />
      <feColorMatrix
         in="shadowBlurOuter1"
         result="shadowMatrixOuter1"
         values="0 0 0 0 0   0 0 0 0 0   0 0 0 0 0  0 0 0 0.2 0"
         id="feColorMatrix8" />
      <feMerge
         id="feMerge14">
        <feMergeNode
           in="shadowMatrixOuter1"
           id="feMergeNode10" />
        <feMergeNode
           in="SourceGraphic"
           id="feMergeNode12" />
      </feMerge>
    </filter>
    <radialGradient
       id="deepin-calculator-b"
       cx="21"
       cy="3.89256"
       r="38.899558"
       fx="21"
       fy="3.89256"
       gradientUnits="userSpaceOnUse"
       gradientTransform="translate(3,3)">
      <stop
         offset="0%"
         stop-color="#35DCFF"
         id="stop17" />
      <stop
         offset="100%"
         stop-color="#0068FF"
         id="stop19" />
    </radialGradient>
    <linearGradient
       id="deepin-calculator-c"
       x1="21"
       x2="21"
       y1="0"
       y2="42"
       gradientUnits="userSpaceOnUse"
       gradientTransform="translate(-15,3)">
      <stop
         offset="0%"
         stop-color="#FFF"
         id="stop22" />
      <stop
         offset="100%"
         stop-color="#FFF"
         stop-opacity=".8"
         id="stop24" />
    </linearGradient>
    <linearGradient
       id="SVGID_1_"
       gradientUnits="userSpaceOnUse"
       x1="49.575699"
       y1="49.646"
       x2="229.2469"
       y2="229.3172">
      <stop
         offset="0"
         style="stop-color:#FF8100"
         id="stop8" />
      <stop
         offset="1"
         style="stop-color:#FF0000"
         id="stop10" />
    </linearGradient>
    <radialGradient
       id="radial0"
       gradientUnits="userSpaceOnUse"
       cx="90.136406"
       cy="64.761543"
       fx="90.136406"
       fy="64.761543"
       r="91.591759"
       gradientTransform="matrix(1.8,0,0,1.304046,0,32.11876)">
      <stop
         offset="0"
         style="stop-color:rgb(81.960785%,10.588235%,34.509805%);stop-opacity:1;"
         id="stop2" />
      <stop
         offset="1"
         style="stop-color:rgb(50.588238%,6.666667%,22.352941%);stop-opacity:1;"
         id="stop4" />
    </radialGradient>
    <linearGradient
       id="linear0"
       gradientUnits="userSpaceOnUse"
       x1="23.037573"
       y1="6.130066"
       x2="10.984463"
       y2="25.928267"
       gradientTransform="matrix(4.884556,0,0,3.80908,68.216148,18.632979)">
      <stop
         offset="0"
         style="stop-color:rgb(100%,100%,100%);stop-opacity:1;"
         id="stop7" />
      <stop
         offset="1"
         style="stop-color:rgb(100%,72.941178%,48.235294%);stop-opacity:1;"
         id="stop9" />
    </linearGradient>
    <linearGradient
       id="linear1"
       gradientUnits="userSpaceOnUse"
       x1="16.338762"
       y1="13.758957"
       x2="16.338762"
       y2="18.058632"
       gradientTransform="matrix(4.27367,0,0,4.353558,68.216148,18.632979)">
      <stop
         offset="0"
         style="stop-color:rgb(0%,0%,0%);stop-opacity:1;"
         id="stop12" />
      <stop
         offset="1"
         style="stop-color:rgb(72.549021%,33.333334%,2.352941%);stop-opacity:1;"
         id="stop14" />
    </linearGradient>
    <linearGradient
       id="linear2"
       gradientUnits="userSpaceOnUse"
       x1="28.162867"
       y1="13.615636"
       x2="28.162867"
       y2="17.771988"
       gradientTransform="matrix(4.27367,0,0,4.353558,68.216148,18.632979)">
      <stop
         offset="0"
         style="stop-color:rgb(0%,0%,0%);stop-opacity:1;"
         id="stop17-6" />
      <stop
         offset="1"
         style="stop-color:rgb(72.549021%,33.333334%,2.352941%);stop-opacity:1;"
         id="stop19-2" />
    </linearGradient>
    <linearGradient
       id="SVGID_1_-6"
       gradientUnits="userSpaceOnUse"
       x1="49.575699"
       y1="49.646"
       x2="229.2469"
       y2="229.3172">
      <stop
         offset="0"
         style="stop-color:#FF8100"
         id="stop8-1" />
      <stop
         offset="1"
         style="stop-color:#FF0000"
         id="stop10-8" />
    </linearGradient>
    <linearGradient
       inkscape:collect="always"
       xlink:href="#SVGID_1_"
       id="linearGradient1032"
       x1="240.0715"
       y1="28.421995"
       x2="324"
       y2="117"
       gradientUnits="userSpaceOnUse" />
  </defs>
  <rect
     x="0"
     y="0"
     width="324"
     height="234"
     style="fill:url(#linearGradient1032);fill-opacity:1;stroke:none;stroke-width:1"
     id="rect2" />
  <path
     style="fill:none;stroke:#ffffff;stroke-width:1.83906;stroke-linecap:butt;stroke-linejoin:miter;stroke-miterlimit:4;stroke-opacity:1"
     d="M -1.699218,-1.9492182 H 326.19141 V 235.08985 H -1.699218 Z m 0,0"
     id="path4" />
  <g
     id="g840"
     transform="matrix(0.27105406,0,0,0.2703317,3.5792427,2.3807309)">
    <polygon
       fill="url(#SVGID_1_)"
       points="121.823,26.835 133.408,40.464 140.496,24.042 149.931,39.24 159.364,24.042 166.452,40.463 178.038,26.835 182.593,44.132 196.093,32.397 197.994,50.182 213.098,40.603 212.324,58.473 228.688,51.251 225.266,68.806 242.52,64.092 236.534,80.947 254.296,78.839 245.874,94.619 263.752,95.184 253.066,109.526 270.653,112.763 257.938,125.338 274.842,131.18 260.385,141.713 276.236,150 260.385,158.285 274.844,168.819 257.938,174.662 270.657,187.238 253.066,190.476 263.75,204.818 245.874,205.384 254.294,221.162 236.532,219.058 242.518,235.913 225.266,231.195 228.686,248.752 212.322,241.53 213.095,259.399 197.99,249.82 196.087,267.603 182.591,255.867 178.038,273.164 166.455,259.538 159.364,275.958 149.931,260.76 140.498,275.958 133.41,259.538 121.823,273.164 117.269,255.867 103.769,267.603 101.866,249.818 86.763,259.397 87.538,241.528 71.172,248.748 74.592,231.193 57.34,235.908 63.324,219.054 45.564,221.16 53.985,205.38 36.11,204.816 46.797,190.476 29.207,187.236 41.924,174.662 25.018,168.821 39.477,158.288 23.625,150 39.477,141.711 25.018,131.182 41.924,125.338 29.208,112.761 46.797,109.525 36.112,95.182 53.987,94.618 45.568,78.837 63.329,80.942 57.344,64.087 74.597,68.803 71.176,51.249 87.538,58.472 86.765,40.601 101.868,50.182 103.771,32.397 117.271,44.132 "
       id="polygon13"
       style="fill:url(#SVGID_1_)" />
    <path
       d="m 80.346628,191.64991 c -4.235196,0 -7.085047,3.55544 -7.085047,8.12673 0,4.57128 2.849851,8.12673 7.085047,8.12673 4.235196,0 7.085048,-3.55545 7.085048,-8.12673 -0.03958,-4.57129 -2.889433,-8.12673 -7.085048,-8.12673 m -0.94995,-5.03688 c 3.403989,0 6.253841,1.86238 7.599604,3.89406 v -3.38614 h 5.224727 v 25.3537 H 88.18372 a 1.1910004,1.2736107 0 0 1 -1.187438,-1.2698 v -2.11634 c -1.345763,2.03169 -4.156034,3.89406 -7.599604,3.89406 -6.491328,0 -11.438987,-5.92574 -11.438987,-13.16361 0,-7.23786 4.908077,-13.20593 11.438987,-13.20593 m 18.761522,0.50792 h 5.22473 v 3.42847 c 1.42492,-2.53961 4.11645,-3.93639 7.20379,-3.93639 5.5018,0 9.06411,4.14802 9.06411,10.58168 v 15.27994 h -3.99771 a 1.1910004,1.2736107 0 0 1 -1.18743,-1.2698 V 198.1259 c 0,-4.02104 -1.89991,-6.43366 -4.94766,-6.43366 -3.44358,0 -6.1351,2.87821 -6.1351,8.29603 v 12.48638 h -3.99771 a 1.1910004,1.2736107 0 0 1 -1.18744,-1.2698 z m 37.95844,4.52896 c -4.2352,0 -7.08505,3.55544 -7.08505,8.12673 0,4.57128 2.84985,8.12673 7.08505,8.12673 4.2352,0 7.08505,-3.55545 7.08505,-8.12673 0,-4.57129 -2.84985,-8.12673 -7.08505,-8.12673 m -0.94995,-5.03688 c 3.40399,0 6.25384,1.86238 7.5996,3.89406 v -16.08415 h 5.22473 v 38.05171 h -3.99771 a 1.1910004,1.2736107 0 0 1 -1.18744,-1.2698 v -2.11634 c -1.34576,2.03169 -4.15603,3.89406 -7.5996,3.89406 -6.49133,0 -11.43899,-5.92574 -11.43899,-13.16361 0,-7.23786 4.90808,-13.20593 11.39941,-13.20593 m 18.76152,0.50792 h 5.22473 v 4.52896 a 6.7133792,7.1790331 0 0 1 6.25384,-4.78292 8.7328156,9.3385418 0 0 1 2.01864,0.21164 v 5.7141 a 8.4082492,8.9914628 0 0 0 -2.61236,-0.46559 c -2.96859,0 -5.6997,2.70891 -5.6997,7.74578 v 12.3594 h -3.99771 a 1.1910004,1.2736107 0 0 1 -1.18744,-1.2698 z m 27.54857,20.65544 c 4.15603,0 7.12462,-3.51312 7.12462,-7.99975 0,-4.52896 -2.92901,-7.99975 -7.12462,-7.99975 -4.2352,0 -7.16421,3.51312 -7.16421,7.99975 0.0396,4.52896 2.92901,7.99975 7.16421,7.99975 m 0,5.20618 a 12.329961,13.185193 0 1 1 12.42851,-13.16361 12.249611,13.09927 0 0 1 -12.42851,13.16361 m 16.66371,-25.86162 h 5.22473 v 25.3537 h -3.99771 a 1.1910004,1.2736107 0 0 1 -1.18744,-1.2698 z m 2.61236,-5.5448 a 3.5563771,3.8030548 0 0 1 -3.52273,-3.76707 3.5148168,3.7586118 0 0 1 3.52273,-3.68243 3.4831518,3.7247504 0 0 1 0,7.4495 m 19.27608,10.07376 c -4.23519,0 -7.08505,3.55544 -7.08505,8.12673 0,4.57128 2.84986,8.12673 7.08505,8.12673 4.2352,0 7.08505,-3.55545 7.08505,-8.12673 -0.0792,-4.57129 -2.84985,-8.12673 -7.08505,-8.12673 m -0.94995,-5.03688 c 3.40399,0 6.25384,1.86238 7.59961,3.89406 v -16.08415 h 5.22472 v 38.05171 h -3.99771 a 1.1910004,1.2736107 0 0 1 -1.18743,-1.2698 v -2.11634 c -1.34577,2.03169 -4.15604,3.89406 -7.59961,3.89406 -6.49133,0 -11.43898,-5.92574 -11.43898,-13.16361 0,-7.23786 4.90807,-13.20593 11.3994,-13.20593"
       id="path2"
       style="fill:#e6e6e6;stroke-width:0.40931" />
    <path
       d="m 190.10549,97.008233 13.65554,-25.269045 a 2.8379771,3.034825 0 0 0 -4.90808,-3.047523 l -13.81386,25.565332 a 85.526417,91.458706 0 0 0 -70.13801,0 L 101.08721,68.691665 a 2.8379771,3.034825 0 0 0 -4.908075,3.047523 L 109.83468,97.008233 C 86.283819,110.63743 70.292985,135.99113 67.957691,165.91612 H 231.82415 c -2.33529,-29.92499 -18.36571,-55.27869 -41.71866,-68.907887 z m -77.89594,43.935127 a 6.8079784,7.2801939 0 1 1 6.80798,-7.28019 6.8079784,7.2801939 0 0 1 -6.80798,7.28019 z m 75.4419,0 a 6.8079784,7.2801939 0 1 1 6.80798,-7.28019 6.8079784,7.2801939 0 0 1 -6.80798,7.28019 z"
       fill="#3ddc84"
       id="path4-0"
       style="fill:#90dc61;fill-opacity:1;stroke-width:0.40931" />
  </g>
  <path
     style="fill:#ffffff;fill-opacity:1;fill-rule:evenodd;stroke:none;stroke-width:0.538143"
     d="m 113.98225,129.44032 10.35853,-29.218 c 0.42751,-1.261596 1.17822,-2.382796 2.18257,-3.214496 0.94503,-0.81013 2.12325,-1.24001 3.33626,-1.22922 1.24367,-0.0411 2.45667,0.38887 3.40376,1.22922 0.99412,0.85114 1.7346,1.99395 2.11302,3.274996 l 10.09671,29.21583 c 0.24751,0.63081 0.38047,1.31129 0.39069,1.99179 0,0.6416 -0.1718,1.27241 -0.50319,1.81248 -0.31296,0.52927 -0.75889,0.95054 -1.28051,1.23137 -0.54819,0.30029 -1.16594,0.45149 -1.78164,0.4623 -1.71415,0.13827 -3.30149,-1.00236 -3.79241,-2.74573 l -1.56279,-5.03565 H 122.6164 l -1.5546,4.97733 c -0.41729,1.76063 -1.97191,2.95313 -3.68807,2.81269 -0.9921,0.0194 -1.96167,-0.3802 -2.67146,-1.11039 -0.69958,-0.67185 -1.11073,-1.63317 -1.11073,-2.6334 0.0369,-0.63296 0.17181,-1.24216 0.39071,-1.82112 z m 15.77507,-25.29273 -4.85607,15.58005 h 9.75511 l -4.79675,-15.58005 z m 18.27678,34.54311 v -28.63687 c -0.0287,-1.11903 0.32115,-2.22295 1.00436,-3.09354 0.67501,-0.81011 1.66301,-1.24002 2.67554,-1.17087 1.84712,-0.12097 3.47535,1.28105 3.73512,3.2145 0.70982,-1.17304 1.74484,-2.09115 2.95785,-2.63339 1.27845,-0.61135 2.66326,-0.91164 4.06445,-0.8706 2.34212,-0.0626 4.63516,0.69994 6.52317,2.1603 1.82053,1.46469 3.22378,3.42407 4.06857,5.67725 0.92662,2.35257 1.40323,4.88876 1.39301,7.44222 0.01,2.43249 -0.50116,4.83259 -1.50756,7.01663 -0.96753,2.19271 -2.46487,4.06568 -4.34063,5.44827 -1.85935,1.38043 -4.08694,2.0998 -6.35339,2.05227 -1.22116,0 -2.43623,-0.23114 -3.57353,-0.70209 -1.17617,-0.44934 -2.27667,-1.13199 -3.23194,-1.99179 v 6.02722 c 0,0.76906 -0.17385,1.54245 -0.5032,2.23374 -0.28432,0.6308 -0.7507,1.16008 -1.33775,1.52086 -0.57683,0.34996 -1.23142,0.52927 -1.89417,0.51846 -1.00639,0.0519 -1.99235,-0.37805 -2.67554,-1.17088 -0.69139,-0.84035 -1.04118,-1.92914 -1.00436,-3.04169 z m 7.41502,-18.50293 c -0.0387,1.99395 0.49092,3.95551 1.50553,5.62758 1.51778,2.49298 4.65764,3.2318 7.02433,1.64182 0.14317,-0.12096 0.28638,-0.22034 0.44796,-0.29164 0.88981,-0.79067 1.57096,-1.79089 2.00872,-2.93368 0.89185,-2.40224 0.89185,-5.08533 0,-7.48974 -0.38867,-1.16224 -1.06164,-2.19054 -1.95349,-2.98336 -0.90209,-0.76907 -2.01892,-1.18169 -3.17466,-1.17089 -1.14753,-0.0606 -2.27667,0.33917 -3.17873,1.11038 -0.87958,0.73234 -1.55256,1.70232 -1.9494,2.81487 -0.49502,1.16223 -0.74046,2.41304 -0.72002,3.68332 z m 23.97562,10.48176 V 112.8795 h -1.67937 c -0.87345,0.0583 -1.72644,-0.29164 -2.34213,-0.94405 -0.60752,-0.64809 -0.92868,-1.54028 -0.89187,-2.45194 0,-0.90083 0.35184,-1.76064 0.94914,-2.40224 0.60751,-0.64162 1.43187,-0.98078 2.28486,-0.93109 h 1.67937 v -4.636 c -0.0387,-1.12983 0.32115,-2.231575 1.00436,-3.104345 0.66274,-0.799311 1.65688,-1.24 2.67351,-1.17087 1.36437,-0.0302 2.61416,0.76042 3.23192,2.05229 0.33137,0.68912 0.50116,1.451705 0.50116,2.222925 v 4.56472 h 2.12325 c 0.91026,-0.0389 1.82052,0.25058 2.561,0.82306 0.70367,0.64162 1.08002,1.60294 1.00843,2.58155 0.0717,0.96998 -0.30476,1.9313 -1.00843,2.57292 -0.73027,0.59192 -1.65074,0.88139 -2.561,0.82307 h -2.12325 v 17.80083 c 0,0.77123 -0.16979,1.53381 -0.50116,2.22293 -0.29458,0.63945 -0.75888,1.17089 -1.33368,1.52087 -0.58298,0.35212 -1.2355,0.54223 -1.89824,0.53142 -1.01663,0.0411 -1.99235,-0.38886 -2.67351,-1.17087 -0.70164,-0.86197 -1.06367,-1.97452 -1.00436,-3.10435 z m 25.64271,-25.23224 c 1.84097,-0.009 3.66968,0.41045 5.347,1.23352 1.62211,0.77987 3.06216,1.91187 4.22811,3.33549 1.18845,1.40851 2.11506,3.03306 2.73896,4.79586 0.67707,1.81249 0.99617,3.74379 0.94912,5.67511 -0.008,1.96369 -0.3232,3.9058 -0.94912,5.74853 -0.60548,1.73903 -1.50553,3.34197 -2.67146,4.73321 -1.1864,1.37178 -2.62646,2.46273 -4.23832,3.22532 -1.68756,0.8209 -3.54286,1.22273 -5.40429,1.17088 -2.43623,0.0519 -4.8438,-0.63944 -6.90978,-1.9918 -2.00256,-1.35234 -3.64307,-3.22315 -4.74153,-5.4461 -1.10867,-2.30502 -1.67733,-4.84553 -1.6671,-7.43141 0.01,-1.92267 0.32318,-3.82372 0.94502,-5.62541 0.63618,-1.77144 1.5587,-3.41326 2.73079,-4.85419 2.42804,-2.93583 5.95657,-4.59711 9.6426,-4.56901 z m 0,7.07928 c -1.15571,-0.0302 -2.29305,0.38022 -3.17465,1.17303 -0.91844,0.78203 -1.61392,1.82114 -2.01076,2.99419 -0.44388,1.21191 -0.66275,2.50377 -0.66275,3.80211 -0.01,1.28322 0.21887,2.55346 0.66275,3.74595 0.40706,1.14279 1.1005,2.1538 2.01076,2.92288 1.90643,1.46251 4.49402,1.46251 6.41067,0 0.88776,-0.76908 1.57915,-1.78009 1.99643,-2.92288 0.8939,-2.40224 0.8939,-5.08533 0,-7.49838 -0.38659,-1.17089 -1.07798,-2.20351 -1.99643,-2.98553 -0.9123,-0.7993 -2.05985,-1.23137 -3.23602,-1.23137 z m 20.00319,-18.319302 c 0.72208,0.0062 1.43188,0.209549 2.06803,0.578963 0.61775,0.388846 1.13116,0.939723 1.49731,1.581323 0.37843,0.61138 0.57071,1.32211 0.56048,2.05228 -0.01,1.18169 -0.44591,2.311526 -1.2232,3.162666 -1.59348,1.79523 -4.29562,1.76499 -5.85636,-0.0583 -0.79979,-0.8101 -1.2539,-1.933446 -1.27436,-3.104336 -0.0184,-1.12983 0.45615,-2.20133 1.2805,-2.922872 0.78752,-0.8209 1.84916,-1.2897 2.95989,-1.2897 z m -3.67376,36.472262 v -20.6157 c -0.0327,-1.11903 0.31706,-2.22295 1.00232,-3.09354 0.67297,-0.81011 1.65891,-1.24002 2.67144,-1.17087 1.36847,-0.041 2.61624,0.76041 3.23398,2.05443 0.33136,0.68698 0.50115,1.44956 0.50115,2.22079 v 20.60489 c 0,0.77123 -0.16979,1.54461 -0.50115,2.22294 -0.29455,0.63945 -0.75683,1.17088 -1.34391,1.53166 -0.57275,0.35212 -1.22323,0.53142 -1.89007,0.53142 -1.01253,0.0302 -1.99029,-0.38886 -2.68169,-1.18168 -0.72003,-0.84035 -1.08003,-1.96371 -1.00435,-3.09354 z m 36.84605,-33.078436 v 33.078436 c 0,0.77123 -0.18,1.53381 -0.51138,2.22294 -0.28432,0.63945 -0.74867,1.17088 -1.32753,1.53166 -0.57686,0.34131 -1.23142,0.53142 -1.89622,0.52063 -1.84915,0.1512 -3.47737,-1.27026 -3.6758,-3.21237 -0.72207,1.13849 -1.72642,2.05229 -2.90465,2.63125 -1.22118,0.60272 -2.54872,0.92243 -3.90491,0.93323 -2.26643,0.0476 -4.49401,-0.67184 -6.34933,-2.04362 -1.86958,-1.40204 -3.35873,-3.27286 -4.35286,-5.44611 -0.99412,-2.19485 -1.50754,-4.59495 -1.49527,-7.02744 -0.0123,-2.54483 0.43159,-5.06805 1.33163,-7.43141 0.83662,-2.2532 2.25007,-4.22337 4.06855,-5.68806 1.88801,-1.46036 4.18309,-2.22294 6.52319,-2.1603 0.84275,0.0112 1.68755,0.10153 2.5119,0.28949 0.83457,0.1793 1.64051,0.47094 2.39942,0.88139 0.78545,0.39966 1.51571,0.90949 2.17233,1.52301 V 97.649414 c -0.0409,-1.13199 0.3191,-2.233743 1.00435,-3.104345 0.67299,-0.810107 1.65687,-1.240007 2.67145,-1.170863 0.68527,0 1.34802,0.181468 1.95349,0.529269 0.56866,0.371577 1.02479,0.892197 1.33776,1.523008 0.29661,0.680492 0.44388,1.412831 0.44388,2.164611 z m -7.42116,22.605336 c 0.0451,-1.92052 -0.47661,-3.80214 -1.49733,-5.39427 -0.97775,-1.47547 -2.5978,-2.32446 -4.29765,-2.28559 -1.13526,0 -2.24598,0.41046 -3.12761,1.17303 -0.87956,0.80148 -1.5546,1.83194 -1.94325,2.99419 -0.44388,1.19032 -0.67298,2.46273 -0.67298,3.74378 -0.01,0.93109 0.12478,1.86216 0.38866,2.75438 0.23729,0.91164 0.6157,1.78009 1.12095,2.57291 0.46228,0.74097 1.0964,1.36097 1.8287,1.81032 0.73638,0.47311 1.59143,0.69345 2.45258,0.64162 1.17618,0.0302 2.33191,-0.37806 3.23602,-1.17089 0.88982,-0.82092 1.56279,-1.87081 1.95349,-3.04386 0.34976,-1.24216 0.53797,-2.52322 0.55842,-3.80428 z m 33.3973,2.80406 h -15.7751 c 0.15342,1.67206 0.98799,3.19291 2.28691,4.15424 1.38278,0.99372 3.02328,1.48412 4.68015,1.41498 0.97777,0 1.93507,-0.18362 2.84534,-0.53142 1.01458,-0.47311 2.00257,-1.00238 2.94965,-1.58134 0.77729,-0.52279 1.65892,-0.86195 2.57122,-0.99158 0.5216,0 1.0248,0.1685 1.44618,0.46879 0.45616,0.32836 0.85503,0.74963 1.17004,1.23137 0.28434,0.46878 0.43775,1.01966 0.44387,1.58134 -0.0572,0.9138 -0.42749,1.76497 -1.05343,2.39577 -0.82434,0.86843 -1.78165,1.57917 -2.84329,2.11061 -1.28049,0.65241 -2.62645,1.16223 -4.00717,1.523 -1.37665,0.33916 -2.77986,0.53143 -4.18516,0.57896 -2.5303,0.0411 -5.032,-0.63081 -7.24115,-1.93347 -2.09666,-1.2292 -3.80265,-3.08274 -4.91335,-5.32512 -1.17414,-2.36337 -1.77142,-4.99676 -1.72438,-7.66905 0.0287,-3.86476 1.37664,-7.58911 3.79445,-10.48174 3.76375,-4.42646 9.82057,-5.75935 14.94052,-3.27502 1.60165,0.77987 3.04169,1.89242 4.23833,3.28365 1.15572,1.34155 2.0762,2.884 2.72874,4.5647 0.60751,1.58134 0.94911,3.26636 1.00434,4.97733 0.1146,0.96133 -0.20863,1.93346 -0.86117,2.61395 -0.65662,0.69129 -1.57505,1.02181 -2.49554,0.90084 z m -15.93465,-5.20416 h 11.75563 c -0.13294,-1.60294 -0.77933,-3.11514 -1.84096,-4.27523 -1.07799,-1.11255 -2.55895,-1.7023 -4.06651,-1.64398 -1.47688,-0.0583 -2.91896,0.53143 -3.96424,1.64398 -1.04934,1.17088 -1.72437,2.67229 -1.89415,4.27523 z M 85.925805,86.465579 c -5.95249,-1.410673 -12.039977,-2.132218 -18.143817,-2.143013 -6.038396,0 -12.056341,0.73234 -17.937222,2.192707 -5.725427,1.402016 -9.64261,4.72455 -11.090836,10.801462 -1.554602,6.431205 -2.340083,13.037375 -2.352352,19.686775 -0.01028,6.5068 0.71184,13.00496 2.143708,19.34327 1.080033,5.71614 5.375636,10.15338 10.816739,11.18385 11.868137,2.8624 24.210847,2.8624 36.081033,0 5.725421,-1.41284 9.644652,-4.72672 11.092886,-10.85117 1.554593,-6.43983 2.342127,-13.04817 2.350319,-19.68676 0.0096,-6.5176 -0.709805,-13.01577 -2.141673,-19.343285 C 95.664543,91.92248 91.368953,87.485235 85.936033,86.465579 Z m -33.728681,36.493851 -0.484797,-0.50981 c -0.709788,-0.89222 -1.137309,-1.9918 -1.229353,-3.1454 l -0.270009,-16.1979 c -0.05325,-1.23138 0.750703,-1.68287 1.716196,-0.95052 l 14.66641,11.13415 -13.698873,10.28949 z m 32.93501,-3.54288 c -0.104315,1.41066 -0.722072,2.72198 -1.718243,3.65523 l -13.925947,11.59429 c -0.994111,0.77987 -2.370751,0.77987 -3.375113,0 l -10.117163,-8.55044 -1.922804,-1.58134 h 0.01222 l 13.745947,-10.34564 6.748196,-5.06373 9.481007,-7.0901 c 0.795707,-0.33053 1.337782,0.12097 1.337782,1.19032 z m 0,0"
     id="path4-3" />
</svg>
