<?xml version="1.0" encoding="UTF-8" standalone="no"?>
<svg
   sodipodi:docname="astrocia-iptv.svg"
   inkscape:version="1.1 (c4e8f9e, 2021-05-24)"
   width="324px"
   height="234px"
   viewBox="0 0 324 234"
   version="1.1"
   id="SVGRoot"
   xmlns:inkscape="http://www.inkscape.org/namespaces/inkscape"
   xmlns:sodipodi="http://sodipodi.sourceforge.net/DTD/sodipodi-0.dtd"
   xmlns:xlink="http://www.w3.org/1999/xlink"
   xmlns="http://www.w3.org/2000/svg"
   xmlns:svg="http://www.w3.org/2000/svg"
   xmlns:rdf="http://www.w3.org/1999/02/22-rdf-syntax-ns#"
   xmlns:cc="http://creativecommons.org/ns#"
   xmlns:dc="http://purl.org/dc/elements/1.1/">
  <defs
     id="defs10">
    <linearGradient
       inkscape:collect="always"
       id="linearGradient5031">
      <stop
         style="stop-color:#ffffff;stop-opacity:1"
         offset="0"
         id="stop5027" />
      <stop
         style="stop-color:#808080;stop-opacity:1"
         offset="1"
         id="stop5029" />
    </linearGradient>
    <filter
       height="1.216"
       y="-0.108"
       width="1.216"
       x="-0.108"
       id="filter1042"
       style="color-interpolation-filters:sRGB"
       inkscape:collect="always">
      <feGaussianBlur
         id="feGaussianBlur1044"
         stdDeviation="4.5176688"
         inkscape:collect="always" />
    </filter>
    <radialGradient
       inkscape:collect="always"
       xlink:href="#linearGradient5031"
       id="radialGradient5033"
       cx="100"
       cy="61.499999"
       fx="100"
       fy="61.499999"
       r="99.999998"
       gradientTransform="matrix(1,0,0,0.72222222,0,17.083333)"
       gradientUnits="userSpaceOnUse" />
  </defs>
  <sodipodi:namedview
     inkscape:pagecheckerboard="true"
     inkscape:window-maximized="0"
     inkscape:window-y="0"
     inkscape:window-x="0"
     inkscape:window-height="1040"
     inkscape:window-width="960"
     showgrid="false"
     inkscape:document-rotation="0"
     inkscape:current-layer="g55"
     inkscape:document-units="px"
     inkscape:cy="58.440179"
     inkscape:cx="158.87214"
     inkscape:zoom="2.5838388"
     inkscape:pageshadow="2"
     inkscape:pageopacity="0.0"
     borderopacity="1.0"
     bordercolor="#666666"
     pagecolor="#ffffff"
     id="base"
     showguides="false">
    <sodipodi:guide
       id="guide137"
       orientation="163.80001,0"
       position="243.9,198.9" />
    <sodipodi:guide
       id="guide139"
       orientation="0,-101.49202"
       position="243.9,35.099996" />
    <sodipodi:guide
       id="guide141"
       orientation="0,-62.30799"
       position="142.40799,35.099996" />
    <sodipodi:guide
       id="guide143"
       orientation="-163.80001,0"
       position="80.099996,35.099996" />
    <sodipodi:guide
       id="guide145"
       orientation="0,62.30799"
       position="80.099996,198.9" />
    <sodipodi:guide
       id="guide147"
       orientation="0,101.49202"
       position="142.40799,198.9" />
  </sodipodi:namedview>
  <metadata
     id="metadata13">
    <rdf:RDF>
      <cc:Work
         rdf:about="">
        <dc:format>image/svg+xml</dc:format>
        <dc:type
           rdf:resource="http://purl.org/dc/dcmitype/StillImage" />
      </cc:Work>
    </rdf:RDF>
  </metadata>
  <g
     id="layer1"
     inkscape:groupmode="layer"
     inkscape:label="Capa 1">
    <g
       transform="matrix(1.62,0,0,1.62,-3.24e-6,17.369997)"
       id="g55">
      <path
         d="M 200,-10.722221 V 133.72222 H 76.078134 4e-6 V -10.722221 h 76.07813 z"
         style="fill:url(#radialGradient5033);fill-opacity:1;stroke:none;stroke-width:2.14905;stroke-miterlimit:4;stroke-dasharray:none"
         id="rect3770" />
      <ellipse
         r="50.19632"
         cy="61.5"
         cx="100"
         id="path149"
         style="fill:none;stroke:#ffffff;stroke-width:4.32098765;stroke-miterlimit:4;stroke-dasharray:none;stroke-opacity:1;opacity:1;filter:url(#filter1042)" />
      <g
         id="g1329"
         transform="matrix(0.1630304,0,0,0.1630304,57.75114,35.485576)">
        <g
           id="g1327">
          <g
             id="g1325">
            <path
               d="M 281.059,355.902 H 230.94 c -4.621,0 -8.367,3.746 -8.367,8.367 0,4.621 3.746,8.367 8.367,8.367 h 50.117 c 4.621,0 8.367,-3.746 8.367,-8.367 0,-4.621 -3.744,-8.367 -8.365,-8.367 z"
               id="path1317"
               style="fill:#0000ff;fill-opacity:1" />
            <circle
               cx="436.09698"
               cy="364.26901"
               r="4.6350002"
               id="circle1319"
               style="fill:#0000ff;fill-opacity:1" />
            <path
               d="M 490.39,59.248 H 21.61 C 9.694,59.248 0,68.942 0,80.858 v 294.043 c 0,11.915 9.694,21.609 21.61,21.609 h 178.548 v 15.673 h -22.572 c -7.535,0 -13.664,6.129 -13.664,13.664 v 13.243 c 0,7.534 6.13,13.665 13.664,13.665 h 156.826 c 7.534,0 13.664,-6.131 13.664,-13.665 v -13.243 c 0,-7.534 -6.13,-13.664 -13.664,-13.664 H 311.84 V 396.51 h 178.551 c 11.916,0 21.61,-9.694 21.61,-21.609 V 80.858 C 512,68.942 502.306,59.248 490.39,59.248 Z M 331.341,428.917 v 7.101 H 180.655 v -7.101 z M 216.893,412.183 V 396.51 h 78.212 v 15.673 z m 278.373,-37.282 h -0.001 c 0,2.642 -2.232,4.874 -4.875,4.874 H 21.61 c -2.643,0 -4.875,-2.232 -4.875,-4.874 V 80.858 c 0,-2.643 2.232,-4.875 4.875,-4.875 h 468.781 c 2.643,0 4.875,2.232 4.875,4.875 z"
               id="path1321"
               style="fill:#0000ff;fill-opacity:1" />
            <path
               d="M 470.527,92.355 H 41.473 c -4.621,0 -8.367,3.746 -8.367,8.367 v 242.36 c 0,4.621 3.746,8.367 8.367,8.367 h 429.053 c 4.621,0 8.367,-3.746 8.367,-8.367 v -242.36 c 0.001,-4.621 -3.745,-8.367 -8.366,-8.367 z m -8.368,242.36 H 49.841 V 109.09 H 462.16 v 225.625 z"
               id="path1323"
               style="fill:#0000ff;fill-opacity:1" />
          </g>
        </g>
      </g>
      <text
         xml:space="preserve"
         style="font-style:normal;font-variant:normal;font-weight:normal;font-stretch:normal;font-size:24.6914px;line-height:1.25;font-family:'Arial Black';-inkscape-font-specification:'Arial Black, ';fill:#000000;fill-opacity:1;stroke:none;stroke-width:0.617284"
         x="45.230541"
         y="38.681755"
         id="text4414"><tspan
           sodipodi:role="line"
           id="tspan4412"
           style="font-style:normal;font-variant:normal;font-weight:bold;font-stretch:normal;font-family:Arial;-inkscape-font-specification:'Arial Bold';fill:#008000;fill-opacity:1;stroke-width:0.617284"
           x="45.230541"
           y="38.681755">Astroncia</tspan></text>
      <text
         xml:space="preserve"
         style="font-style:normal;font-variant:normal;font-weight:normal;font-stretch:normal;font-size:24.6914px;line-height:1.25;font-family:'Arial Black';-inkscape-font-specification:'Arial Black, ';fill:#000000;fill-opacity:1;stroke:none;stroke-width:0.617284"
         x="73.594864"
         y="79.422836"
         id="text18522"><tspan
           sodipodi:role="line"
           id="tspan18520"
           style="font-style:normal;font-variant:normal;font-weight:bold;font-stretch:normal;font-family:'Arial Black';-inkscape-font-specification:'Arial Black,  Bold';fill:#aa5208;fill-opacity:1;stroke-width:0.617284"
           x="73.594864"
           y="79.422836">IPTV</tspan></text>
    </g>
  </g>
</svg>
