<?xml version="1.0" encoding="UTF-8" standalone="no"?>
<svg
   xmlns:dc="http://purl.org/dc/elements/1.1/"
   xmlns:cc="http://creativecommons.org/ns#"
   xmlns:rdf="http://www.w3.org/1999/02/22-rdf-syntax-ns#"
   xmlns:svg="http://www.w3.org/2000/svg"
   xmlns="http://www.w3.org/2000/svg"
   xmlns:sodipodi="http://sodipodi.sourceforge.net/DTD/sodipodi-0.dtd"
   xmlns:inkscape="http://www.inkscape.org/namespaces/inkscape"
   width="324px"
   height="234px"
   viewBox="0 0 324 234"
   version="1.1"
   id="svg11"
   sodipodi:docname="audio-recorder.svg"
   inkscape:version="1.0.2 (1.0.2+r75+1)">
  <metadata
     id="metadata17">
    <rdf:RDF>
      <cc:Work
         rdf:about="">
        <dc:format>image/svg+xml</dc:format>
        <dc:type
           rdf:resource="http://purl.org/dc/dcmitype/StillImage" />
      </cc:Work>
    </rdf:RDF>
  </metadata>
  <defs
     id="defs15" />
  <sodipodi:namedview
     pagecolor="#ffffff"
     bordercolor="#666666"
     borderopacity="1"
     objecttolerance="10"
     gridtolerance="10"
     guidetolerance="10"
     inkscape:pageopacity="0"
     inkscape:pageshadow="2"
     inkscape:window-width="1920"
     inkscape:window-height="974"
     id="namedview13"
     showgrid="false"
     inkscape:zoom="3.4487179"
     inkscape:cx="206.62092"
     inkscape:cy="246.38263"
     inkscape:window-x="0"
     inkscape:window-y="0"
     inkscape:window-maximized="1"
     inkscape:current-layer="svg11" />
  <g
     id="g850">
    <rect
       x="-0.05020332"
       y="0.014902884"
       width="324.47739"
       height="234.41928"
       style="fill:#781e4a;fill-opacity:1;stroke:none;stroke-width:1.00163"
       id="rect2" />
    <path
       style="fill:none;stroke:#ffffff;stroke-width:1.83906;stroke-linecap:butt;stroke-linejoin:miter;stroke-miterlimit:4;stroke-opacity:1"
       d="M -1.2812396,-1.5150337 H 326.60939 V 235.52403 H -1.2812396 Z m 0,0"
       id="path4" />
    <path
       style="fill:#ffffff;fill-opacity:1;fill-rule:nonzero;stroke:none"
       d="m 155.6211,40.918559 c -16.68359,0 -30.14843,12.742187 -30.14843,28.53125 v 47.554681 c 0,15.78906 13.46484,28.53516 30.14843,28.53516 16.6836,0 30.15235,-12.7461 30.15235,-28.53516 V 69.449809 c 0,-15.789063 -13.46875,-28.53125 -30.15235,-28.53125 z M 95.320322,107.49277 v 9.51172 c 0,28.25 21.710938,51.64453 50.253908,56.21094 v 19.87891 h 20.09766 v -19.87891 c 28.54296,-4.56641 50.2539,-27.96094 50.2539,-56.21094 v -9.51172 h -20.10156 v 9.51172 c 0,21.21094 -17.78906,38.04297 -40.20313,38.04297 -22.41015,0 -40.19921,-16.83203 -40.19921,-38.04297 v -9.51172 z m 0,0"
       id="path6" />
    <path
       style="fill:#d13535;fill-opacity:1;fill-rule:nonzero;stroke:none;stroke-width:0.86208"
       d="m 223.05243,85.458137 c 0,9.474347 -7.73893,17.154703 -17.28361,17.154703 -9.54469,0 -17.28361,-7.680356 -17.28361,-17.154703 0,-9.474348 7.73892,-17.15808 17.28361,-17.15808 9.54468,0 17.28361,7.683732 17.28361,17.15808 z m 0,0"
       id="path8" />
  </g>
</svg>
