<svg xmlns="http://www.w3.org/2000/svg" width="324" height="234"><path fill="#781e4a" d="M-.05.01h324.48v234.42H-.05z"/><path fill="none" stroke="#fff" stroke-width="1.84" d="M-1.28-1.52H326.6v237.04H-1.3Zm0 0"/><g fill="#f9f9f9" opacity=".63"><path d="M162.98 117.02H-.07c6.78 11 13.56 22 18.78 22.92 5.22.92 8.89-8.25 14.76-13.3 5.88-5.07 13.98-6.02 22.26-2.84 8.28 3.18 16.75 10.5 26.4 10.17 9.64-.32 20.46-8.28 28.96-10.52s14.67 1.24 22.93 1.12c8.26-.12 18.54-3.8 28.96-7.55z" opacity=".35"/><path d="M324.02 117.02H160.97c10.42 3.74 20.7 7.43 28.96 7.55 8.26.12 14.44-3.36 22.93-1.12 8.5 2.24 19.32 10.2 28.96 10.52 9.65.33 18.12-6.99 26.4-10.17 8.28-3.18 16.38-2.23 22.26 2.83 5.87 5.06 9.53 14.23 14.75 13.31 5.23-.91 12-11.92 18.79-22.92z" opacity=".35"/><path d="M19.67 94.45c-.31-.02-.63 0-.96.05-5.22.9-12 11.73-18.78 22.56h163.05c-10.42-3.68-20.7-7.3-28.96-7.42-8.26-.12-14.44 3.3-22.93 1.1-8.5-2.2-19.32-10.04-28.96-10.36-9.65-.32-18.12 6.88-26.4 10-8.28 3.14-16.38 2.2-22.26-2.78-5.5-4.66-9.07-12.89-13.8-13.15z" opacity=".35"/><path d="M304.27 94.45c-4.72.26-8.28 8.49-13.8 13.15-5.87 4.98-13.97 5.92-22.25 2.79s-16.75-10.33-26.4-10c-9.64.31-20.46 8.14-28.96 10.35-8.5 2.2-14.67-1.22-22.93-1.1-8.26.11-18.54 3.74-28.96 7.42h163.05c-6.78-10.83-13.56-21.65-18.79-22.56a4.22 4.22 0 0 0-.96-.05z" opacity=".35"/></g><path fill="#fff" d="M158.62 41.14c-16.68 0-30.15 12.74-30.15 28.53v47.55c0 15.8 13.47 28.54 30.15 28.54 16.69 0 30.16-12.75 30.16-28.54V69.67c0-15.8-13.47-28.53-30.16-28.53zm-60.3 66.57v9.51c0 28.25 21.71 51.65 50.26 56.21v19.88h20.1v-19.88c28.54-4.56 50.25-27.96 50.25-56.2v-9.52h-20.1v9.51c0 21.21-17.8 38.05-40.2 38.05-22.42 0-40.2-16.84-40.2-38.05v-9.5zm0 0"/><path fill="#d13535" d="M226.05 85.68c0 9.47-7.73 17.15-17.28 17.15a17.22 17.22 0 0 1-17.28-17.15c0-9.48 7.74-17.16 17.28-17.16 9.55 0 17.28 7.68 17.28 17.16zm0 0"/></svg>