<?xml version="1.0" encoding="UTF-8"?>
<svg xmlns="http://www.w3.org/2000/svg" xmlns:xlink="http://www.w3.org/1999/xlink" width="324px" height="234px" viewBox="0 0 324 234" version="1.1">
<g id="surface1">
<rect x="0" y="0" width="324" height="234" style="fill:rgb(47.843137%,12.156863%,29.803923%);fill-opacity:1;stroke:none;"/>
<path style="fill:none;stroke-width:1.021703;stroke-linecap:butt;stroke-linejoin:miter;stroke:rgb(100%,100%,100%);stroke-opacity:1;stroke-miterlimit:4;" d="M -0.94401 -1.082899 L 181.217448 -1.082899 L 181.217448 130.605469 L -0.94401 130.605469 Z M -0.94401 -1.082899 " transform="matrix(1.8,0,0,1.8,0,0)"/>
<path style=" stroke:none;fill-rule:nonzero;fill:rgb(100%,100%,100%);fill-opacity:1;" d="M 155.203125 40.484375 C 138.519531 40.484375 125.054688 53.226562 125.054688 69.015625 L 125.054688 116.570312 C 125.054688 132.359375 138.519531 145.105469 155.203125 145.105469 C 171.886719 145.105469 185.355469 132.359375 185.355469 116.570312 L 185.355469 69.015625 C 185.355469 53.226562 171.886719 40.484375 155.203125 40.484375 Z M 94.902344 107.058594 L 94.902344 116.570312 C 94.902344 144.820312 116.613281 168.214844 145.15625 172.78125 L 145.15625 192.660156 L 165.253906 192.660156 L 165.253906 172.78125 C 193.796875 168.214844 215.507812 144.820312 215.507812 116.570312 L 215.507812 107.058594 L 195.40625 107.058594 L 195.40625 116.570312 C 195.40625 137.78125 177.617188 154.613281 155.203125 154.613281 C 132.792969 154.613281 115.003906 137.78125 115.003906 116.570312 L 115.003906 107.058594 Z M 94.902344 107.058594 "/>
<path style=" stroke:none;fill-rule:nonzero;fill:rgb(82.745099%,21.176471%,21.176471%);fill-opacity:1;" d="M 229.589844 80.042969 C 229.589844 90.976562 220.566406 99.839844 209.4375 99.839844 C 198.308594 99.839844 189.285156 90.976562 189.285156 80.042969 C 189.285156 69.109375 198.308594 60.242188 209.4375 60.242188 C 220.566406 60.242188 229.589844 69.109375 229.589844 80.042969 Z M 229.589844 80.042969 "/>
</g>
</svg>
