<?xml version="1.0" encoding="UTF-8"?>
<svg xmlns="http://www.w3.org/2000/svg" xmlns:xlink="http://www.w3.org/1999/xlink" width="324px" height="234px" viewBox="0 0 324 234" version="1.1">
<defs>
<radialGradient id="radial0" gradientUnits="userSpaceOnUse" cx="90.136406" cy="64.761543" fx="90.136406" fy="64.761543" r="91.591759" gradientTransform="matrix(1.8,0,0,1.304046,0,32.11876)">
<stop offset="0" style="stop-color:rgb(20%,27.058825%,27.058825%);stop-opacity:1;"/>
<stop offset="1" style="stop-color:rgb(32.549021%,38.039216%,38.039216%);stop-opacity:1;"/>
</radialGradient>
<clipPath id="clip1">
  <path d="M 107 69 L 170 69 L 170 93 L 107 93 Z M 107 69 "/>
</clipPath>
<clipPath id="clip2">
  <path d="M 320 116.570312 C 320 191.007812 249.324219 251.296875 162.246094 251.296875 C 75.164062 251.296875 4.492188 191.007812 4.492188 116.570312 C 4.492188 42.136719 75.164062 -18.15625 162.246094 -18.15625 C 249.324219 -18.15625 320 42.136719 320 116.570312 Z M 320 116.570312 "/>
</clipPath>
<clipPath id="clip3">
  <path d="M 114 140 L 183 140 L 183 152 L 114 152 Z M 114 140 "/>
</clipPath>
<clipPath id="clip4">
  <path d="M 320 116.570312 C 320 191.007812 249.324219 251.296875 162.246094 251.296875 C 75.164062 251.296875 4.492188 191.007812 4.492188 116.570312 C 4.492188 42.136719 75.164062 -18.15625 162.246094 -18.15625 C 249.324219 -18.15625 320 42.136719 320 116.570312 Z M 320 116.570312 "/>
</clipPath>
<clipPath id="clip5">
  <path d="M 107 91 L 142 91 L 142 140 L 107 140 Z M 107 91 "/>
</clipPath>
<clipPath id="clip6">
  <path d="M 320 116.570312 C 320 191.007812 249.324219 251.296875 162.246094 251.296875 C 75.164062 251.296875 4.492188 191.007812 4.492188 116.570312 C 4.492188 42.136719 75.164062 -18.15625 162.246094 -18.15625 C 249.324219 -18.15625 320 42.136719 320 116.570312 Z M 320 116.570312 "/>
</clipPath>
<clipPath id="clip7">
  <path d="M 86 46 L 190 46 L 190 187 L 86 187 Z M 86 46 "/>
</clipPath>
<clipPath id="clip8">
  <path d="M 320 116.570312 C 320 191.007812 249.324219 251.296875 162.246094 251.296875 C 75.164062 251.296875 4.492188 191.007812 4.492188 116.570312 C 4.492188 42.136719 75.164062 -18.15625 162.246094 -18.15625 C 249.324219 -18.15625 320 42.136719 320 116.570312 Z M 320 116.570312 "/>
</clipPath>
<clipPath id="clip9">
  <path d="M 189 46 L 238 46 L 238 187 L 189 187 Z M 189 46 "/>
</clipPath>
<clipPath id="clip10">
  <path d="M 320 116.570312 C 320 191.007812 249.324219 251.296875 162.246094 251.296875 C 75.164062 251.296875 4.492188 191.007812 4.492188 116.570312 C 4.492188 42.136719 75.164062 -18.15625 162.246094 -18.15625 C 249.324219 -18.15625 320 42.136719 320 116.570312 Z M 320 116.570312 "/>
</clipPath>
</defs>
<g id="surface1">
<rect x="0" y="0" width="324" height="234" style="fill:url(#radial0);stroke:none;"/>
<path style="fill:none;stroke-width:1.021703;stroke-linecap:butt;stroke-linejoin:miter;stroke:rgb(100%,100%,100%);stroke-opacity:1;stroke-miterlimit:4;" d="M -0.94401 -1.082899 L 181.217448 -1.082899 L 181.217448 130.605469 L -0.94401 130.605469 Z M -0.94401 -1.082899 " transform="matrix(1.8,0,0,1.8,0,0)"/>
<g clip-path="url(#clip1)" clip-rule="nonzero">
<g clip-path="url(#clip2)" clip-rule="nonzero">
<path style=" stroke:none;fill-rule:nonzero;fill:rgb(28.627452%,50.196081%,75.686276%);fill-opacity:1;" d="M 141.667969 90.992188 L 169.105469 87.28125 L 155.386719 69.710938 L 107.375 92.613281 M 141.667969 90.992188 "/>
</g>
</g>
<g clip-path="url(#clip3)" clip-rule="nonzero">
<g clip-path="url(#clip4)" clip-rule="nonzero">
<path style=" stroke:none;fill-rule:nonzero;fill:rgb(28.627452%,50.196081%,75.686276%);fill-opacity:1;" d="M 114.234375 140 L 141.667969 140 L 182.820312 145.859375 L 148.527344 151.714844 L 114.234375 145.859375 M 114.234375 140 "/>
</g>
</g>
<g clip-path="url(#clip5)" clip-rule="nonzero">
<g clip-path="url(#clip6)" clip-rule="nonzero">
<path style=" stroke:none;fill-rule:nonzero;fill:rgb(72.549021%,81.176472%,89.803922%);fill-opacity:1;" d="M 107.375 91.039062 L 141.667969 91.039062 L 141.667969 140 L 107.375 140 M 107.375 91.039062 "/>
</g>
</g>
<g clip-path="url(#clip7)" clip-rule="nonzero">
<g clip-path="url(#clip8)" clip-rule="nonzero">
<path style=" stroke:none;fill-rule:nonzero;fill:rgb(43.921569%,61.176473%,81.176472%);fill-opacity:1;" d="M 189.679688 46.277344 L 86.796875 69.710938 L 86.796875 163.433594 L 189.679688 186.863281 M 155.386719 86.226562 L 155.386719 145.742188 L 114.234375 139.976562 L 114.019531 90.898438 M 155.378906 86.226562 "/>
</g>
</g>
<g clip-path="url(#clip9)" clip-rule="nonzero">
<g clip-path="url(#clip10)" clip-rule="nonzero">
<path style=" stroke:none;fill-rule:nonzero;fill:rgb(72.549021%,81.176472%,89.803922%);fill-opacity:1;" d="M 189.679688 46.277344 L 237.691406 63.851562 L 237.691406 169.289062 L 189.679688 186.863281 M 189.679688 46.277344 "/>
</g>
</g>
</g>
</svg>
