<svg xmlns="http://www.w3.org/2000/svg" xmlns:xlink="http://www.w3.org/1999/xlink" width="324" height="234"><defs><radialGradient xlink:href="#a" id="b" cx="161.9" cy="102.7" r="51.8" fx="161.9" fy="102.7" gradientTransform="matrix(1 0 0 1.1 0 -10.4)" gradientUnits="userSpaceOnUse"/><linearGradient id="a"><stop offset=".7" stop-color="#f4f6ce"/><stop offset=".8" stop-color="#d4f290"/><stop offset="1" stop-color="#c8f178"/></linearGradient></defs><path fill="#294e6c" d="M0 0h324v234H0Z"/><path fill="#a5de37" d="M162 103.4c1.8-3 4.4-5.3 7.5-7l30.1-17.2c-25-40.4-63.4-21-75-.1l29.8 17.3c3 1.7 5.5 4.2 7.5 7zm-2.5 10.7v45.6c-41.2-22.6-49.4-56.8-37.4-76.2l29.9 17.4c6.2 4.3 7.5 8.3 7.5 13.2zm5-.2v45.8c41.2-22.4 49.2-57 37.3-76.4L172 100.7c-6.2 4.4-7.5 8.4-7.5 13.2z"/><path fill="url(#b)" d="M155.5 60.1c4-2.2 9-2.2 13 0L196.1 76c1.3.8 2.5 2 3.5 3.2l11-6.3a15 15 0 0 0-4.9-4.1L170 47.9a16 16 0 0 0-16.1 0l-35.5 20.6c-1.9 1-3.5 2.6-4.8 4.3l11 6.3c.9-1.3 2-2.4 3.4-3.1zm0 85.5L128.1 130c-4-2.4-6.4-6.7-6.4-11.3V87c0-1.3.1-2.4.4-3.5l-10.9-6.3a15 15 0 0 0-1 5.1v41c0 6 3 11.2 8.1 14l35.5 20.4c1.8 1 3.8 1.6 5.7 2V147a11 11 0 0 1-4-1.4zM212.8 77l-11 6.3c.4 1.2.7 2.4.7 3.7v31.6c0 4.6-2.5 8.9-6.4 11.3l-27.6 15.7c-1.3.7-2.6 1-4 1.4v12.7c2-.4 3.8-1 5.5-2l35.7-20.4c5-3 8-8.3 8-14v-41c0-1.7-.2-3.5-.9-5.3z" paint-order="stroke fill markers"/><path fill="#a5de37" d="M174.8 171.7h14v5.6h-7.6v3.8h7.4v5.5h-7.4v4.3h7.6v5.5h-14zm19.2 10.4h-2.7v-4.2h2.8v-6h5.5v6h2.7v4.2h-2.7v14.2h-5.5zm29 7.3c-1 4.5-5 7.6-9.7 7.6a9.8 9.8 0 0 1-9.8-9.9c0-5.4 4.3-9.8 9.7-9.8a10 10 0 0 1 9.8 7.8h-5.6a4 4 0 0 0-4-2.6 4 4 0 0 0-3.2 1.3 5 5 0 0 0-1.2 3.4c0 2.6 1.8 4.7 4.4 4.7 1.7 0 3.3-1 4-2.5h5.6zm2.5-17.7h5.5v7.9c1-1.7 2.9-2.3 4.8-2.3 2.9 0 4.5 1 5.5 2.6s1.3 3.7 1.3 6v10.4h-5.5v-10.1c0-1-.2-2-.6-2.7-.4-.7-1.2-1.1-2.4-1.1-1.5 0-2.3.7-2.6 1.5-.5.8-.5 1.7-.5 2.1v10.2h-5.5zm25.5 17.4c.2 2 2.1 3.2 4.3 3.2a4 4 0 0 0 3.4-1.7h5.6c-.7 1.9-2 3.6-3.8 4.7a9.2 9.2 0 0 1-5.2 1.7 9.8 9.8 0 0 1-9.8-9.8 10 10 0 0 1 9.7-10c2.8 0 5.2 1.2 7 3 2.3 2.5 3 5.5 2.6 8.9zm8.3-4.3c-.1-.9-1.3-3-4.1-3-2.9 0-4 2.1-4.1 3zm8.6-6.9h5.2v2.1c.5-1 1.5-2.6 4.7-2.6v5.5h-.2c-2.9 0-4.2 1-4.2 3.6v9.9H268z"/><path fill="#fff" d="M108 189.2c.1 1.9 2.2 3.2 4.5 3.2 1.5 0 2.9-.6 3.7-1.7h6.1a10.7 10.7 0 0 1-9.7 6.3c-5.9 0-10.6-4.4-10.6-9.7 0-5.3 4.6-9.7 10.4-9.7 3 0 5.7 1 7.6 2.9a9.7 9.7 0 0 1 2.8 8.7zm8.8-4.2c0-.9-1.3-3-4.4-3-3 0-4.3 2.1-4.4 3zm-65.7-13v8h.1c.5-.8 1.3-1.4 2-1.7 1.5-.6 2.8-.8 4.2-.9 6-.2 10.7 5 10 10.9-.3 2-1.2 4-2.6 5.5a8 8 0 0 1-3.2 2.2c-2.6 1-5.3 1-7.9 0a6.7 6.7 0 0 1-3-2.2v2.4h-4.5V172Zm1.5 11.2a4.7 4.7 0 0 0-1.8 3.8c0 1.6.6 3 1.7 4a6.2 6.2 0 0 0 4.4 1.7c1.7 0 3-.5 4.1-1.6 1.1-1 1.7-2.4 1.6-3.9 0-3.1-2.6-5.7-5.7-5.5-1.7 0-3 .6-4.3 1.5zm33.5 13.1V194a8.4 8.4 0 0 1-6.8 3c-1.6 0-3-.3-4.2-.8a9 9 0 0 1-5-5.3 9 9 0 0 1-.1-7 9.8 9.8 0 0 1 9.4-6.2c1.4 0 2.6.3 3.8.8 1.2.5 2.2 1.3 3 2.3v-2.6h4.4v18.2zm-5.8-14.5a6 6 0 0 0-4.4 1.6c-1 1-1.6 2.5-1.6 4a5 5 0 0 0 1.7 3.8c1.2 1 2.6 1.5 4.2 1.5 1.5 0 3-.5 4.2-1.6 1-1 1.7-2.5 1.6-4 0-1.4-.6-2.7-1.6-3.7a6.1 6.1 0 0 0-4.1-1.6zm13.8-9.8h4.8v24.3h-4.8zm36.4 6v1.7c.7-.7 1.4-1.2 2.2-1.6a8.6 8.6 0 0 1 9.6 2.2c1.6 2 1.6 4.1 1.6 6.6v9.5H139v-9.6c0-2.4-.3-5-4.7-5-1.2 0-2 .8-2.8 1.6a5 5 0 0 0-.8 2.6v10.3H126v-18.2zm37.8 18.3h-4.6V194h-.1a9 9 0 0 1-6.8 3c-1.6 0-3-.3-4.1-.8a9 9 0 0 1-5-5.3 9 9 0 0 1-.1-7 9.8 9.8 0 0 1 9.4-6.2c1.3 0 2.6.3 3.8.8a7 7 0 0 1 3 2.3v-2.6h4.4v18.1zm-4.8-9.2c0-1.5-.5-2.8-1.6-3.7a5.3 5.3 0 0 0-4.1-1.6c-1.9 0-3.3.5-4.3 1.6a5.4 5.4 0 0 0-1.7 4c0 1.5.6 2.9 1.7 3.8 1.2 1 2.7 1.5 4.2 1.5a6 6 0 0 0 4.2-1.6 5 5 0 0 0 1.6-4z"/></svg>