<svg xmlns="http://www.w3.org/2000/svg" xmlns:xlink="http://www.w3.org/1999/xlink" width="324" height="234" viewBox="0 0 85.725 61.9125"><defs><path id="w" fill="#fff" fill-rule="evenodd" d="m11.7279 293.0176-2.249-.1542-2.2323 1.0423-.4581-1.3722-2.2906-.9926 1.9659-.694.8166-1.6557 1.6731.9434 2.7952-.0307-.9318 1.277z" paint-order="markers stroke fill"/><path id="x" fill="#fff" fill-rule="evenodd" d="m19.9082 280.9238-1.1006-.8385-2.0012-.0981.7953-.9943-.4855-1.3671 1.592.224 1.7012-.7468.1887 1.1327 1.5369.9056-1.4755.476z" paint-order="markers stroke fill"/><path id="y" fill="#fff" fill-rule="evenodd" d="m34.0229 294.1549-2.116-.4964-2.5812.665.1083-1.3996-1.8189-1.3147 2.183-.3687 1.457-1.4776 1.2409 1.1718 2.7194.4016-1.4162 1.0929z" paint-order="markers stroke fill"/><path id="z" fill="#fff" fill-rule="evenodd" d="m38.8597 279.7704-.0836-.6138-.9143-.5078.9155-.239.496-.6962.6493.4662 1.2208.0774-.5141.5271.2585.7441-.9671-.1404z" paint-order="markers stroke fill"/></defs><defs><linearGradient id="d"><stop offset="0" stop-color="#fff"/><stop offset="1" stop-color="#fff" stop-opacity="0"/></linearGradient><linearGradient id="g"><stop offset="0" stop-color="#eff8ff"/><stop offset="1" stop-color="#008cff"/></linearGradient><linearGradient id="f"><stop offset="0" stop-color="#28b100"/><stop offset="1" stop-color="#218f00"/></linearGradient><linearGradient id="b"><stop offset="0" stop-color="#fff"/><stop offset="1" stop-color="#fff" stop-opacity="0"/></linearGradient><linearGradient id="c"><stop offset="0" stop-color="#fff"/><stop offset="1" stop-color="#fff" stop-opacity="0"/></linearGradient><linearGradient id="e"><stop offset="0" stop-color="#fff"/><stop offset="1" stop-color="#c8c8c8"/></linearGradient><linearGradient id="h"><stop offset="0" stop-color="#ffffc3"/><stop offset="1" stop-color="#ecd700"/></linearGradient><linearGradient id="a"><stop offset="0" stop-color="#fff"/><stop offset="1" stop-color="#fff" stop-opacity="0"/></linearGradient><linearGradient xlink:href="#a" id="j" x1="76.4009" x2="75.2031" y1="-262.4846" y2="-281.1449" gradientTransform="translate(-35.6582 24.802)" gradientUnits="userSpaceOnUse"/><linearGradient xlink:href="#b" id="t" x1="329.5" x2="331.2746" y1="-37.7818" y2="-37.7818" gradientTransform="matrix(1.10033 0 0 1.15575 -165.1195 -135.5651)" gradientUnits="userSpaceOnUse"/><linearGradient xlink:href="#c" id="m" x1="329.5" x2="331.2746" y1="-37.7818" y2="-37.7818" gradientTransform="matrix(1.32646 0 0 1.32534 -429.9495 -222.6426)" gradientUnits="userSpaceOnUse"/><linearGradient xlink:href="#c" id="u" x1="329.5" x2="331.2746" y1="-37.7818" y2="-37.7818" gradientTransform="matrix(.29031 0 0 .29007 -327.4638 147.6773)" gradientUnits="userSpaceOnUse"/><linearGradient xlink:href="#c" id="v" x1="329.5" x2="331.2746" y1="-37.7818" y2="-37.7818" gradientTransform="matrix(.29031 0 0 .29007 -326.3763 144.0195)" gradientUnits="userSpaceOnUse"/><linearGradient xlink:href="#c" id="n" x1="329.5" x2="331.2746" y1="-37.7818" y2="-37.7818" gradientTransform="matrix(3.65827 0 0 3.6552 -973.0245 4.6783)" gradientUnits="userSpaceOnUse"/><linearGradient xlink:href="#c" id="s" x1="329.5" x2="331.2746" y1="-37.7818" y2="-37.7818" gradientTransform="translate(-67.0143 -8.181)" gradientUnits="userSpaceOnUse"/><linearGradient xlink:href="#d" id="p" x1="206.5251" x2="207.4445" y1="161.7396" y2="175.8056" gradientTransform="translate(1.535 -10.2924)" gradientUnits="userSpaceOnUse"/><linearGradient xlink:href="#d" id="o" x1="206.5251" x2="207.4445" y1="161.7396" y2="175.8056" gradientTransform="translate(-84.1442 59.432)" gradientUnits="userSpaceOnUse"/><radialGradient xlink:href="#e" id="r" cx="240.1997" cy="189.4697" r="2.9002" fx="240.1997" fy="189.4697" gradientTransform="matrix(1 0 0 1.3086 -36.0435 -109.272)" gradientUnits="userSpaceOnUse"/><radialGradient xlink:href="#f" id="k" cx="129.3054" cy="78.8762" r="162" fx="129.3054" fy="78.8762" gradientTransform="matrix(1.50832 .11532 -.02228 .29138 -63.9708 112.6682)" gradientUnits="userSpaceOnUse"/><radialGradient xlink:href="#g" id="i" cx="1.5385" cy="238.6383" r="42.8625" fx="1.5385" fy="238.6383" gradientTransform="matrix(11.20274 3.11226 -1.20492 4.33716 244.544 -1006.8736)" gradientUnits="userSpaceOnUse"/><radialGradient xlink:href="#h" id="q" cx="79.2963" cy="327.6106" r="5.5002" fx="79.2963" fy="327.6106" gradientTransform="matrix(.99849 -.04127 .04832 1.75201 -16.4141 -310.4056)" gradientUnits="userSpaceOnUse"/><radialGradient xlink:href="#h" id="l" cx="20.0559" cy="309.0624" r="7.4509" fx="20.0559" fy="309.0624" gradientTransform="matrix(1 0 0 1.0016 0 -.4939)" gradientUnits="userSpaceOnUse"/></defs><g transform="translate(0 -235.0875)"><path fill="url(#i)" d="M0 0v234.003h324.004V0Z" paint-order="markers stroke fill" transform="translate(0 235.0875) scale(.26458)"/><path fill="url(#j)" d="M0-297h85.725v61.9125H0z" paint-order="markers stroke fill" transform="scale(1 -1)"/><path fill="url(#k)" d="M324 160.9434c-1.204.0321-2.375.107-3.6016.1093-5.5966.0107-11.4197-.281-17.4101-.8125-5.9905-.5315-12.1474-1.3026-18.4082-2.248-6.2608-.9454-12.6256-2.066-19.0332-3.2969-12.8153-2.4618-25.801-5.3652-38.463-8.1992-12.6618-2.834-25.0007-5.5978-36.5214-7.7774-5.7603-1.0898-11.316-2.0342-16.7012-2.834-5.3851-.7997-10.5989-1.4554-15.6757-1.9687-5.077-.5133-10.0161-.8847-14.8516-1.1152-4.8355-.2305-9.5676-.3202-14.2285-.2715-4.661.0486-9.2514.2364-13.8047.5605a226.3194 226.3194 0 0 0-13.582 1.3809c-4.5126.596-9.022 1.3272-13.5606 2.1914-4.5387.8642-9.1066 1.8615-13.7383 2.9902-4.6316 1.1287-9.3269 2.3897-14.0469 3.748-4.72 1.3584-9.4656 2.8144-14.1972 4.336-9.4633 3.0434-18.8721 6.3477-27.9219 9.6465C11.302 159.917 6.388 161.7383 0 164.1465V234h324z" paint-order="markers stroke fill" transform="translate(0 235.0875) scale(.26458)"/><g transform="translate(-28.4297 -114.2172) scale(1.4193)"><path d="M52.6789 275.9435c.009.006.0273.0164.1107.2267.0833.2102.2332.6234.3243.9838.091.3605.1238.6699.1074.9375-.0163.2677-.0818.4932-.058.61.0238.1166.1365.124.4727-.3812.3361-.5052.898-1.5269 1.0893-2.0292.1912-.5023.0128-.4877-.3919-.4604-.4046.0274-1.0335.0673-1.3486.0874-.315.02-.315.02-.306.0254z"/><ellipse cx="122.3187" cy="229.5633" fill="#253845" fill-opacity=".9961" fill-rule="evenodd" paint-order="markers stroke fill" rx="6.2188" ry="7.5535" transform="matrix(-.76732 .64127 .62132 .78355 0 0)"/><ellipse cx="272.7931" cy="3.302" fill="#39576b" fill-opacity=".9961" fill-rule="evenodd" paint-order="markers stroke fill" rx="3.0899" ry="3.7531" transform="matrix(.23998 .97078 -.96429 .26487 0 0)"/><g fill-rule="evenodd" paint-order="markers stroke fill" transform="translate(34.0732 -39.6925)"><ellipse cx="20.0559" cy="309.0624" fill="url(#l)" rx="7.4509" ry="7.4628"/><path fill-opacity=".5447" d="M26.8526 305.9714c-.2728.4541-.631 1.0737-.8547 1.433-.3526.5662-.6331.993-.9023 1.3586-.2692.3655-.527.6698-.8346.9917-.3075.3218-.6637.66-1.0531.9927-.3895.3327-.8124.66-1.2537.9596s-.8968.5691-1.3761.801a9.1417 9.1417 0 0 1-1.5173.5762c-.5348.15-1.0989.254-1.665.3183a13 13 0 0 1-1.6764.08c-.5424-.009-1.0594-.052-1.5637-.1115-.0657-.008-.1285-.0196-.1938-.028a7.463 7.463 0 0 0 2.4764 2.2366c.3754.0355.7475.0728 1.2438.0295.6487-.0566 1.4226-.1975 2.2123-.4036.7896-.206 1.5954-.4775 2.3073-.7958a9.9516 9.9516 0 0 0 1.0051-.5173 9.0702 9.0702 0 0 0 .91-.6144c.5848-.4484 1.1355-.9802 1.7121-1.6314.539-.6089 1.1043-1.337 1.678-2.1064a7.463 7.463 0 0 0 .0237-.478 7.463 7.463 0 0 0-.678-3.0907zm-4.2767-3.9191c-.4824.8937-.9594 1.7711-1.3663 2.4484-.4987.83-.9263 1.4562-1.3287 1.9668a10.7706 10.7706 0 0 1-1.1761 1.2733 12.7177 12.7177 0 0 1-1.233 1.0082c-.4197.3004-.8424.561-1.25.7684-.4078.2075-.801.3624-1.216.4646-.415.1022-.8518.152-1.3467.1494-.2965-.002-.6447-.0497-.9767-.0832a7.463 7.463 0 0 0 .4558 1.756c.5812-.007 1.2851.0122 1.955-.0327.4077-.0273.7748-.0794 1.1265-.1607.3516-.0813.688-.1924 1.035-.3374a8.3111 8.3111 0 0 0 1.063-.5385c.3623-.2166.733-.4727 1.1152-.7767.3822-.304.7736-.6546 1.1937-1.1235.4201-.4687.869-1.0557 1.3658-1.833.497-.777 1.0424-1.7447 1.6118-2.8075.2161-.4033.445-.8566.6667-1.282a7.463 7.463 0 0 0-1.695-.86z"/></g><ellipse cx="9.4714" cy="-272.7165" fill="url(#m)" fill-rule="evenodd" paint-order="markers stroke fill" rx="2.3538" ry="2.3519" transform="matrix(-.96142 .27508 -.26531 -.96416 0 0)"/><ellipse cx="238.8657" cy="-133.422" fill="url(#n)" fill-rule="evenodd" paint-order="markers stroke fill" rx="6.4917" ry="6.4863" transform="matrix(-.30328 .9529 -.94977 -.31294 0 0)"/><ellipse cx="122.4595" cy="229.6167" fill="url(#o)" fill-rule="evenodd" paint-order="markers stroke fill" rx="5.5969" ry="6.7982" transform="matrix(-.76732 .64127 .62132 .78355 0 0)"/></g><path fill-opacity=".3627" d="M66.6826 282.1304a2.9087 1.5068 32.4554 0 0-1.173.0728 2.9087 1.5068 32.4554 0 0-.418 1.3413 1.4842 2.2199-60.4606 0 0-.8455.9005 2.4782 2.4782 0 0 1-.1869-.0696c-.0371-.0152-.0372-.0152-.1818-.065-.1447-.0497-.434-.1492-.6303-.2113-.1963-.0621-.2993-.0869-.3735-.0784-.0742.0085-.1192.0501-.1571.1187-.038.0686-.0689.1637-.1319.2257-.063.062-.1582.0905-.2334.1156-.0751.025-.13.0466-.1591.0843-.0292.0377-.0326.0912.0004.1512.033.06.102.1262.1944.156.0923.03.2076.0234.3129-.042.1052-.0655.2006-.1902.2486-.3152.048-.1251.0487-.251.0816-.3092.033-.0583.0979-.049.3577.0406.2308.0797.616.223.8516.2943a1.4842 2.2199-60.4606 0 0-.004.073 1.4842 2.2199-60.4606 0 0 .004.0526 28.3567 28.3567 0 0 0-.2868-.0084c-.1867-.004-.28-.0019-.333.0283-.053.0303-.0653.0885-.0575.174.0078.0856.0358.1982.0206.2837-.0151.0855-.0735.1437-.1181.1923-.0447.0487-.0755.0877-.0777.137-.0021.0494.0244.1088.0825.165.0582.056.1477.1087.2355.115.0878.0064.1737-.0335.2198-.1347.046-.1012.0523-.2641.0216-.4142-.0308-.15-.0988-.2876-.105-.3605-.0061-.073.0494-.0813.2203-.072.0518.003.1219.0078.1875.0123a1.4842 2.2199-60.4606 0 0 2.0687 1.9824 1.4842 2.2199-60.4606 0 0 1.0392.0581 2.9857 1.7383 25.3185 0 0 .0004.0028 2.9857 1.7383 25.3185 0 0 2.7322 2.3898c.0237.0391.0471.0792.067.1172.0526.1009.0808.184.0886.2527.0078.0687-.0048.1228.0102.155.0149.0323.0572.0425.156-.0647.0712-.0771.171-.2151.2387-.3303a2.9857 1.7383 25.3185 0 0 2.2522-1.4214 2.9857 1.7383 25.3185 0 0-.0373-.139 1.4042.7706 16.2906 0 0 .5393.0692 1.4042.7706 16.2906 0 0 .8632-.8307 1.4042.7706 16.2906 0 0-.4597-.4671 2.5222 1.7378 19.1598 0 0 .0978-.0739 2.5222 1.7378 19.1598 0 0-.5439-2.5927 2.5222 1.7378 19.1598 0 0-3.4216-.1935 2.5222 1.7378 19.1598 0 0-.2685.3047 2.9087 1.5068 32.4554 0 0-.5396-.5974 2.9087 1.5068 32.4554 0 0-2.4492-1.2746z"/><ellipse cx="208.2346" cy="159.9244" fill="#2b4251" fill-opacity=".9961" fill-rule="evenodd" paint-order="markers stroke fill" rx="6.2188" ry="7.5535" transform="matrix(1.08905 .91015 -.88184 1.1121 -28.4297 -114.2172)"/><ellipse cx="208.1387" cy="159.8922" fill="url(#p)" fill-rule="evenodd" paint-order="markers stroke fill" rx="5.5969" ry="6.7982" transform="matrix(1.08905 .91015 -.88184 1.1121 -28.4297 -114.2172)"/><path d="M25.9908 257.7595c-.5351-.119-1.6057-.3574-2.336-.489-.7302-.1315-1.1198-.1563-1.421-.0256-.3012.1308-.513.4168-.718.8474-.205.4305-.4023 1.0037-.7015 1.425s-.7.6896-1.0182.9157c-.3182.2261-.553.4095-.6987.6553-.1457.2457-.2013.5527-.1179.8552.0834.3026.3055.5994.6485.6648.343.0653.8066-.1009 1.2762-.589.4697-.4883.947-1.3002 1.2362-2.0617.2893-.7615.3915-1.4743.5681-1.8409.1767-.3665.4275-.3874 1.3882-.1711.9606.2163 2.6378.6715 3.455.7524.8173.081.7786-.2108.6003-.3647-.1783-.154-.4962-.1701-.7905-.223-.2943-.0527-.565-.1422-.7003-.187-.1354-.0446-.1354-.0446-.6704-.1639z"/><ellipse cx="78.8942" cy="257.5969" fill="url(#q)" fill-rule="evenodd" paint-order="markers stroke fill" rx="5.5002" ry="6.4203" transform="matrix(1.41158 .14782 -.18633 1.40701 -28.4297 -114.2172)"/><path d="M28.4078 259.0712c-.5515.1278-1.655.3836-2.3933.57-.7381.1863-1.1107.3032-1.3448.5334-.234.2303-.329.5734-.3655 1.0488-.0366.4755-.0147 1.0813-.1426 1.582-.1278.5007-.4053.895-.621 1.2204-.2157.3253-.369.5808-.4166.8625-.0476.2817.0108.5882.1973.8405.1866.2525.5006.4496.8441.3873.3436-.0623.7164-.384.9793-1.0083.2628-.6244.4165-1.5535.4128-2.3681-.0037-.8146-.1646-1.5165-.1315-1.922.0332-.4056.2598-.5153.931-.6539.6712-.1387 1.7916-.307 2.2992-.5153.5077-.2083.4054-.4569.3543-.581-.0512-.1242-.0512-.1242-.6027.0042z"/><ellipse cx="204.1561" cy="138.6688" fill="url(#r)" fill-rule="evenodd" paint-order="markers stroke fill" rx="2.8201" ry="3.7151" transform="matrix(.926 1.0756 -.88557 1.10913 -28.4297 -114.2172)"/><circle cx="45.9628" cy="264.2602" r="1.9717" fill="#2c2800" fill-rule="evenodd" paint-order="markers stroke fill" transform="translate(-28.4297 -114.2172) scale(1.4193)"/><circle cx="264.2602" cy="-45.9628" r="1.7745" fill="url(#s)" fill-rule="evenodd" paint-order="markers stroke fill" transform="rotate(90 42.8938 -71.3235) scale(1.4193)"/><ellipse cx="199.3915" cy="-179.2313" fill="url(#t)" fill-rule="evenodd" paint-order="markers stroke fill" rx="1.9526" ry="2.0509" transform="matrix(-.7541 1.20239 -1.2134 -.73625 -28.4297 -114.2172)"/><ellipse cx="-231.2909" cy="136.718" fill="url(#u)" fill-rule="evenodd" paint-order="markers stroke fill" rx=".5152" ry=".5147" transform="matrix(.54456 -1.31067 1.30508 .55783 -28.4297 -114.2172)"/><ellipse cx="-230.2035" cy="133.0602" fill="url(#v)" fill-rule="evenodd" paint-order="markers stroke fill" rx=".5152" ry=".5147" transform="matrix(.54456 -1.31067 1.30508 .55783 -28.4297 -114.2172)"/><use xlink:href="#w" fill-rule="evenodd" paint-order="markers stroke fill"/><use xlink:href="#w" fill-rule="evenodd" paint-order="markers stroke fill"/><ellipse cx="8.2559" cy="291.5485" fill="#ff0" fill-rule="evenodd" paint-order="markers stroke fill" rx="1.3229" ry=".8192"/><use xlink:href="#x" fill-rule="evenodd" paint-order="markers stroke fill"/><use xlink:href="#x" fill-rule="evenodd" paint-order="markers stroke fill"/><ellipse cx="243.1481" cy="242.1224" fill="#ff0" fill-rule="evenodd" paint-order="markers stroke fill" rx=".8394" ry=".8007" transform="matrix(.8534 .52125 -.77795 .62833 0 0)"/><use xlink:href="#y" fill-rule="evenodd" paint-order="markers stroke fill"/><use xlink:href="#y" fill-rule="evenodd" paint-order="markers stroke fill"/><ellipse cx="144.9728" cy="291.7093" fill="#ff0" fill-rule="evenodd" paint-order="markers stroke fill" rx="1.2974" ry=".8592" transform="matrix(.98754 .15734 -.38365 .92348 0 0)"/><use xlink:href="#z" fill-rule="evenodd" paint-order="markers stroke fill"/><use xlink:href="#z" fill-rule="evenodd" paint-order="markers stroke fill"/><ellipse cx="286.3991" cy="47.4617" fill="#ff0" fill-rule="evenodd" paint-order="markers stroke fill" rx=".3708" ry=".574" transform="matrix(.30272 .95308 -.99262 .1213 0 0)"/></g></svg>