<?xml version="1.0" encoding="UTF-8"?>
<svg xmlns="http://www.w3.org/2000/svg" xmlns:xlink="http://www.w3.org/1999/xlink" width="324px" height="234px" viewBox="0 0 324 234" version="1.1">
<g id="surface1">
<rect x="0" y="0" width="324" height="234" style="fill:rgb(94.901961%,94.901961%,94.901961%);fill-opacity:1;stroke:none;"/>
<path style="fill:none;stroke-width:1.02327;stroke-linecap:butt;stroke-linejoin:miter;stroke:rgb(100%,100%,100%);stroke-opacity:1;stroke-miterlimit:4;" d="M -0.94401 -1.082899 L 181.217448 -1.082899 L 181.217448 131.011285 L -0.94401 131.011285 Z M -0.94401 -1.082899 " transform="matrix(1.8,0,0,1.8,0,0)"/>
<path style=" stroke:none;fill-rule:nonzero;fill:rgb(33.333334%,52.549022%,77.254903%);fill-opacity:1;" d="M 127.550781 44.265625 C 116.371094 53.90625 110.152344 67.785156 110.152344 84.875 C 110.152344 98.386719 114.664062 110.785156 122.183594 120.488281 L 111.292969 120.472656 C 100.359375 120.46875 96.636719 126.601562 103.039062 133.277344 L 152.816406 184.679688 C 159.277344 191.421875 169.855469 191.171875 175.980469 184.382812 L 221.644531 133.277344 C 227.863281 126.316406 223.898438 120.597656 212.839844 120.597656 L 204.816406 120.589844 C 212.378906 110.871094 216.921875 98.433594 216.921875 84.878906 C 216.921875 68.238281 209.703125 53.917969 198.578125 44.300781 L 127.550781 44.300781 Z M 127.550781 44.265625 "/>
<path style=" stroke:none;fill-rule:nonzero;fill:rgb(80.000001%,80.000001%,80.000001%);fill-opacity:1;" d="M 191.265625 70.597656 C 190.296875 70.75 189.03125 71.382812 188.679688 73.359375 C 188.644531 80.515625 188.664062 89.835938 188.664062 96.3125 C 188.832031 98.429688 190.167969 99.015625 191.121094 99.207031 C 199.914062 99.207031 207.175781 99.234375 215.210938 99.234375 C 216.621094 93.726562 217.011719 90.230469 217.011719 85.195312 C 217.011719 81.453125 216.929688 76.886719 215.210938 70.503906 C 211.21875 70.503906 193.863281 70.609375 191.265625 70.597656 Z M 191.265625 70.597656 "/>
<path style="fill-rule:nonzero;fill:rgb(80.000001%,80.000001%,80.000001%);fill-opacity:1;stroke-width:0.156696;stroke-linecap:square;stroke-linejoin:miter;stroke:rgb(55.686277%,55.686277%,55.686277%);stroke-opacity:1;stroke-miterlimit:10;" d="M 34.46021 17.113678 C 34.46021 17.53463 34.027118 17.875518 33.493355 17.875518 C 32.958544 17.875518 32.525452 17.53463 32.525452 17.113678 C 32.525452 16.693551 32.958544 16.352663 33.493355 16.352663 C 34.027118 16.352663 34.46021 16.693551 34.46021 17.113678 Z M 34.46021 17.113678 " transform="matrix(3.72503,0,0,4.732577,73.939358,3.898825)"/>
<path style="fill-rule:nonzero;fill:rgb(80.000001%,80.000001%,80.000001%);fill-opacity:1;stroke-width:0.156696;stroke-linecap:square;stroke-linejoin:miter;stroke:rgb(55.686277%,55.686277%,55.686277%);stroke-opacity:1;stroke-miterlimit:10;" d="M 37.777087 17.113678 C 37.777087 17.53463 37.343995 17.875518 36.809184 17.875518 C 36.275421 17.875518 35.842329 17.53463 35.842329 17.113678 C 35.842329 16.693551 36.275421 16.352663 36.809184 16.352663 C 37.343995 16.352663 37.777087 16.693551 37.777087 17.113678 Z M 37.777087 17.113678 " transform="matrix(3.72503,0,0,4.732577,73.939358,3.898825)"/>
<path style=" stroke:none;fill-rule:nonzero;fill:rgb(80.000001%,80.000001%,80.000001%);fill-opacity:1;" d="M 111.332031 70.675781 C 109.796875 76.609375 109.210938 80.796875 109.191406 84.523438 C 109.183594 88.609375 109.96875 94.75 111.5625 99.179688 L 138.140625 99.179688 C 138.140625 99.179688 136.445312 97.261719 135.757812 93.648438 C 135.070312 90.03125 135.085938 81.625 135.695312 77.738281 C 136.300781 73.851562 138.140625 70.71875 138.140625 70.71875 Z M 111.332031 70.675781 "/>
<path style=" stroke:none;fill-rule:nonzero;fill:rgb(80.000001%,80.000001%,80.000001%);fill-opacity:1;" d="M 165.15625 88.09375 C 163.65625 88.09375 162.707031 86.601562 162.707031 84.976562 C 162.707031 83.347656 163.992188 81.855469 165.15625 81.855469 L 176.113281 81.855469 L 176.113281 88.09375 Z M 154.636719 79.296875 C 154.636719 76.414062 157.195312 76.324219 157.195312 76.324219 C 160.460938 76.324219 168.136719 76.347656 173.558594 76.359375 C 174.648438 76.363281 176.117188 76.304688 176.117188 78.589844 L 176.117188 91.734375 C 176.117188 93.871094 174.070312 93.890625 174.070312 93.890625 L 157.195312 93.890625 C 157.195312 93.890625 154.636719 93.839844 154.636719 90.992188 C 154.636719 88.925781 154.640625 83.363281 154.636719 79.296875 Z M 143.890625 79.757812 L 143.890625 89.519531 C 143.890625 96.117188 148.214844 102.5625 153.617188 102.5625 C 162.320312 102.5625 171.546875 102.5625 180.207031 102.5625 C 181.527344 102.5625 183.359375 101.570312 183.355469 99.289062 L 183.417969 70.550781 C 183.417969 68.507812 181.421875 67.390625 180.207031 67.390625 C 170.875 67.390625 162.265625 67.378906 153.617188 67.371094 C 148.6875 67.382812 143.890625 73.550781 143.890625 79.761719 Z M 143.890625 79.757812 "/>
</g>
</svg>
