<?xml version="1.0" encoding="UTF-8" standalone="no"?>
<svg
   xmlns:dc="http://purl.org/dc/elements/1.1/"
   xmlns:cc="http://creativecommons.org/ns#"
   xmlns:rdf="http://www.w3.org/1999/02/22-rdf-syntax-ns#"
   xmlns:svg="http://www.w3.org/2000/svg"
   xmlns="http://www.w3.org/2000/svg"
   xmlns:xlink="http://www.w3.org/1999/xlink"
   xmlns:sodipodi="http://sodipodi.sourceforge.net/DTD/sodipodi-0.dtd"
   xmlns:inkscape="http://www.inkscape.org/namespaces/inkscape"
   viewBox="0 0 324 234"
   version="1.1"
   id="svg165"
   sodipodi:docname="bimp.svg"
   inkscape:version="1.0.2 (1.0.2+r75+1)">
  <metadata
     id="metadata169">
    <rdf:RDF>
      <cc:Work
         rdf:about="">
        <dc:format>image/svg+xml</dc:format>
        <dc:type
           rdf:resource="http://purl.org/dc/dcmitype/StillImage" />
      </cc:Work>
    </rdf:RDF>
  </metadata>
  <sodipodi:namedview
     pagecolor="#505050"
     bordercolor="#ffffff"
     borderopacity="1"
     objecttolerance="10"
     gridtolerance="10"
     guidetolerance="10"
     inkscape:pageopacity="0"
     inkscape:pageshadow="2"
     inkscape:window-width="759"
     inkscape:window-height="480"
     id="namedview167"
     showgrid="false"
     inkscape:zoom="3.474359"
     inkscape:cx="256.04919"
     inkscape:cy="125.55654"
     inkscape:window-x="247"
     inkscape:window-y="325"
     inkscape:window-maximized="0"
     inkscape:current-layer="g161" />
  <defs
     id="defs107">
    <linearGradient
       id="g">
      <stop
         offset="0"
         stop-color="#513950"
         id="stop2" />
      <stop
         offset="1"
         stop-color="#1e151d"
         id="stop4" />
    </linearGradient>
    <linearGradient
       id="f">
      <stop
         offset="0"
         stop-color="#e2e2e2"
         id="stop7" />
      <stop
         offset=".5"
         stop-color="#a3a3a3"
         id="stop9" />
      <stop
         offset="1"
         stop-color="#ddd"
         id="stop11" />
    </linearGradient>
    <linearGradient
       id="m">
      <stop
         offset="0"
         stop-color="#ea13a6"
         id="stop14" />
      <stop
         offset="1"
         stop-color="#7e0a59"
         id="stop16" />
    </linearGradient>
    <linearGradient
       id="e">
      <stop
         offset="0"
         stop-color="#6e094e"
         id="stop19" />
      <stop
         offset=".2"
         stop-color="#ea13a6"
         id="stop21" />
      <stop
         offset=".6"
         stop-color="#5c0741"
         id="stop23" />
      <stop
         offset="1"
         stop-color="#e0129f"
         id="stop25" />
    </linearGradient>
    <linearGradient
       id="l">
      <stop
         offset="0"
         stop-color="#f5f5f5"
         id="stop28" />
      <stop
         offset=".3"
         stop-color="#e2e2e2"
         id="stop30" />
      <stop
         offset=".7"
         stop-color="#a3a3a3"
         id="stop32" />
      <stop
         offset="1"
         stop-color="#cacaca"
         id="stop34" />
    </linearGradient>
    <linearGradient
       id="j">
      <stop
         offset="0"
         stop-color="#5b676b"
         id="stop37" />
      <stop
         offset="1"
         stop-color="#141718"
         id="stop39" />
    </linearGradient>
    <linearGradient
       id="d">
      <stop
         offset="0"
         id="stop42" />
      <stop
         offset="1"
         stop-opacity="0"
         id="stop44" />
    </linearGradient>
    <linearGradient
       id="a">
      <stop
         offset="0"
         stop-color="#fff"
         id="stop47" />
      <stop
         offset="1"
         stop-color="#fff"
         stop-opacity="0"
         id="stop49" />
    </linearGradient>
    <linearGradient
       xlink:href="#a"
       id="E"
       x1="13.2"
       x2="7.8"
       y1="37.8"
       y2="42.3"
       gradientTransform="rotate(27.6 -26.2 -49.4) scale(.8523)"
       gradientUnits="userSpaceOnUse" />
    <linearGradient
       id="h">
      <stop
         offset="0"
         stop-color="#696969"
         id="stop53" />
      <stop
         offset="1"
         id="stop55" />
    </linearGradient>
    <linearGradient
       id="b">
      <stop
         offset="0"
         stop-color="#bdbdbd"
         id="stop58" />
      <stop
         offset=".3"
         stop-color="#e2e2e2"
         id="stop60" />
      <stop
         offset=".7"
         stop-color="#a3a3a3"
         id="stop62" />
      <stop
         offset="1"
         stop-color="#ddd"
         id="stop64" />
    </linearGradient>
    <linearGradient
       xlink:href="#b"
       id="A"
       x1="19.4"
       x2="23.1"
       y1="30"
       y2="33.4"
       gradientTransform="translate(-46.4 -1.8)"
       gradientUnits="userSpaceOnUse" />
    <linearGradient
       id="c">
      <stop
         offset="0"
         stop-color="#6e3d09"
         id="stop68" />
      <stop
         offset=".2"
         stop-color="#ea8113"
         id="stop70" />
      <stop
         offset=".6"
         stop-color="#5c3307"
         id="stop72" />
      <stop
         offset="1"
         stop-color="#e07c12"
         id="stop74" />
    </linearGradient>
    <linearGradient
       xlink:href="#c"
       id="z"
       x1="37"
       x2="27.8"
       y1="19.2"
       y2="11.2"
       gradientTransform="translate(-49.3 1.9)"
       gradientUnits="userSpaceOnUse" />
    <linearGradient
       id="k">
      <stop
         offset="0"
         stop-color="#857c63"
         id="stop78" />
      <stop
         offset="1"
         stop-color="#221f19"
         id="stop80" />
    </linearGradient>
    <linearGradient
       id="i">
      <stop
         offset="0"
         stop-color="#fff"
         id="stop83" />
      <stop
         offset="1"
         stop-color="#b9b9b0"
         id="stop85" />
    </linearGradient>
    <linearGradient
       xlink:href="#a"
       id="w"
       x1="6.3"
       x2="6"
       y1="23.4"
       y2="31.6"
       gradientUnits="userSpaceOnUse" />
    <linearGradient
       xlink:href="#a"
       id="s"
       x1="15"
       x2="39.5"
       y1="19.1"
       y2="47"
       gradientUnits="userSpaceOnUse" />
    <linearGradient
       xlink:href="#d"
       id="F"
       x1="26.2"
       x2="24.3"
       y1="30.5"
       y2="31"
       gradientUnits="userSpaceOnUse" />
    <linearGradient
       xlink:href="#d"
       id="r"
       x1="32.4"
       x2="21.2"
       y1="28.1"
       y2="30.3"
       gradientTransform="translate(-3.8 .3)"
       gradientUnits="userSpaceOnUse" />
    <linearGradient
       xlink:href="#e"
       id="G"
       x1="37"
       x2="27.8"
       y1="19.2"
       y2="11.2"
       gradientTransform="rotate(-81.2 39.9 11.3) scale(.40643)"
       gradientUnits="userSpaceOnUse" />
    <linearGradient
       xlink:href="#f"
       id="H"
       x1="20"
       x2="23.9"
       y1="31"
       y2="35"
       gradientTransform="rotate(-81.2 39 8.3) scale(.29587)"
       gradientUnits="userSpaceOnUse" />
    <linearGradient
       xlink:href="#g"
       id="o"
       x1="324"
       x2="-25"
       y1="234"
       y2="-14.6"
       gradientUnits="userSpaceOnUse" />
    <radialGradient
       xlink:href="#h"
       id="B"
       cx="15.4"
       cy="35.4"
       r="7.6"
       fx="15.4"
       fy="35.4"
       gradientTransform="matrix(-.982 -3.33443 3.2495 -.957 124.5 257.4)"
       gradientUnits="userSpaceOnUse" />
    <radialGradient
       xlink:href="#i"
       id="y"
       cx="69.5"
       cy="19.6"
       r="3.5"
       fx="69.5"
       fy="19.6"
       gradientTransform="translate(-22.1 -6.2) scale(1.31849)"
       gradientUnits="userSpaceOnUse" />
    <radialGradient
       xlink:href="#d"
       id="p"
       cx="23"
       cy="33.9"
       r="18.3"
       fx="23"
       fy="33.9"
       gradientTransform="matrix(1 0 0 .28425 0 24.3)"
       gradientUnits="userSpaceOnUse" />
    <radialGradient
       xlink:href="#j"
       id="u"
       cx="6"
       cy="25.3"
       r="4.8"
       fx="6"
       fy="25.3"
       gradientTransform="matrix(.91616 .09319 -.10877 1.0693 3.3 -3)"
       gradientUnits="userSpaceOnUse" />
    <radialGradient
       xlink:href="#k"
       id="q"
       cx="18.6"
       cy="22.3"
       r="19.2"
       fx="18.6"
       fy="22.3"
       gradientTransform="matrix(1.77275 0 0 1.29668 -16.3 -6.6)"
       gradientUnits="userSpaceOnUse" />
    <radialGradient
       xlink:href="#i"
       id="t"
       cx="69.5"
       cy="19.6"
       r="3.5"
       fx="69.5"
       fy="19.6"
       gradientTransform="translate(-22.1 -6.2) scale(1.31849)"
       gradientUnits="userSpaceOnUse" />
    <radialGradient
       xlink:href="#i"
       id="n"
       cx="222.1"
       cy="253.3"
       r="139"
       fx="222.1"
       fy="253.3"
       gradientTransform="matrix(1.78662 0 0 1.19123 -191.3 -80.4)"
       gradientUnits="userSpaceOnUse" />
    <radialGradient
       xlink:href="#l"
       id="C"
       cx="11.4"
       cy="39.2"
       r="7.6"
       fx="11.4"
       fy="39.2"
       gradientTransform="matrix(-.982 -3.33443 3.2495 -.957 124.5 257.4)"
       gradientUnits="userSpaceOnUse" />
    <radialGradient
       xlink:href="#m"
       id="I"
       cx="37"
       cy="43.4"
       r="1"
       fx="37"
       fy="43.4"
       gradientTransform="matrix(.65772 0 0 .65665 12 14)"
       gradientUnits="userSpaceOnUse" />
    <path
       id="v"
       fill="#2e3436"
       fill-rule="evenodd"
       stroke="#000"
       stroke-miterlimit="10"
       stroke-width="1.2"
       d="M24 21.8a2.3 2.3 0 1 1-4.6 0 2.3 2.3 0 1 1 4.6 0z"
       overflow="visible"
       style="marker:none" />
    <path
       id="x"
       fill="#fff"
       fill-rule="evenodd"
       d="M23.2 21a1.8 1.8 0 1 1-3.6 0 1.8 1.8 0 1 1 3.6 0z"
       overflow="visible"
       style="marker:none" />
    <path
       id="D"
       fill="#fff"
       d="M8.9 37.8a1.3 1.3 0 1 1-2.5 0 1.3 1.3 0 1 1 2.5 0z"
       opacity=".5"
       overflow="visible"
       style="marker:none" />
  </defs>
  <path
     fill="url(#n)"
     d="m324 227.5-1-1.3a263.6 263.6 0 0 0-10.9-12.8c-3.8-4.2-7.8-8.3-11.7-12-4-3.6-7.8-6.9-11.4-9.4a65.7 65.7 0 0 0-5.2-3.4 56.9 56.9 0 0 0-4.8-2.5 55.7 55.7 0 0 0-8.8-3.2l-7.6-1.7a38.3 38.3 0 0 1-12.7-4.2c-2-1-3.8-2.2-5.6-3.3l-5.4-3.4-5.5-3a40.2 40.2 0 0 0-5.9-2 40.9 40.9 0 0 0-5.7-1.2l-5.2-.3c-1.6.1-3 .3-4.2.7a6.1 6.1 0 0 0-4.3 3.6 11 11 0 0 0-.7 2.8l-.3 3.1c-.1 2.3-.2 4.7-.6 7a21.1 21.1 0 0 1-1 3.7 15.5 15.5 0 0 1-1.6 3.4l-2.7 3.1a23.5 23.5 0 0 1-3.6 2.7 28.4 28.4 0 0 1-4.2 2 30 30 0 0 1-9.5 2.2 34.7 34.7 0 0 1-5.1 0 41.7 41.7 0 0 1-5.3-.9 51.9 51.9 0 0 1-5.5-1.5c-3.8-1.2-7.6-3-11.3-4.7l-10.5-5.1c-3.2-1.5-6-2.6-8.3-3.4a26.2 26.2 0 0 0-3.3-.8c-1-.2-1.9-.3-2.7-.2a5 5 0 0 0-2.2.4c-.5.2-1 .5-1.3 1-.3.3-.4.8-.2 1.4s.5 1.2 1 1.9c1.3 1.3 3.6 3 6 4.8 1.2 1 2.4 1.9 3.4 3 1.1 1 2 2 2.8 3.2a10 10 0 0 1 1.3 3.5 8 8 0 0 1-.1 3.4 6.6 6.6 0 0 1-1.6 2.9c-.7.8-1.7 1.4-3 1.8a13 13 0 0 1-4.2.6c-1.6 0-3.3-.3-5-.7a24.7 24.7 0 0 1-4.6-1.6c-1.5-.7-2.8-1.5-3.8-2.4a10.2 10.2 0 0 1-2.3-3c-.6-1-1-2.2-1.2-3.3-.5-2.3-.5-4.6-1-6.6-.1-1-.4-1.9-.7-2.7-.4-.7-.7-1.4-1.2-1.9-.4-.5-.8-.8-1.3-.8-.5-.1-1 0-1.4.5-1 .9-1.8 3-3.4 4.8-.8 1-1.9 1.8-3.2 2.5a10.5 10.5 0 0 1-2.1.8c-.9.2-1.8.4-2.7.4-2 .1-4.4-.2-7-.7-2.7-.5-5.5-1.2-8.5-2l-9-2a68 68 0 0 0-8.6-1.5 30 30 0 0 0-13.4 1.9c-1.7.7-3.1 1.8-4.3 3a11.6 11.6 0 0 0-1.5 1.8 10.9 10.9 0 0 0-1 2.2 10.5 10.5 0 0 0-.6 2.3 11 11 0 0 0 0 2.6l.6 2.8c.4 1 .8 2 1.4 3a28.5 28.5 0 0 0 2.1 3.3 43.1 43.1 0 0 0 3 3.6c2.2 2.5 5.1 5.2 8.7 8 3.6 3 8 6 12.4 9.2l1.4 1.1H324v-6.5z"
     paint-order="stroke fill markers"
     id="path109" />
  <path
     fill="url(#o)"
     d="M0 0v234h75.6l-1.4-1c-4.4-3.2-8.8-6.3-12.4-9.2a79.2 79.2 0 0 1-8.7-8.1 43.1 43.1 0 0 1-3-3.6 28.5 28.5 0 0 1-2.1-3.3 19.2 19.2 0 0 1-1.4-3L46 203a11 11 0 0 1 0-2.6 10.5 10.5 0 0 1 .6-2.3 11 11 0 0 1 2.5-4c1.2-1.2 2.6-2.3 4.4-3a29 29 0 0 1 13.3-1.9c2.7.2 5.6.8 8.6 1.4l9 2.2 8.5 2c2.6.4 5 .7 7 .6 1 0 1.8-.2 2.7-.4a10.5 10.5 0 0 0 2.1-.8c1.3-.7 2.4-1.6 3.2-2.5 1.6-1.9 2.5-3.9 3.4-4.8.5-.4 1-.6 1.4-.5.5 0 1 .3 1.3.8.5.5.8 1.2 1.2 2l.8 2.6c.4 2 .4 4.3 1 6.6.2 1 .5 2.2 1 3.3a10.2 10.2 0 0 0 2.4 3c1 .9 2.3 1.7 3.8 2.4a24.7 24.7 0 0 0 4.7 1.6c1.6.4 3.3.7 4.9.7 1.5 0 3-.2 4.2-.6 1.3-.4 2.3-1 3-1.8a6.6 6.6 0 0 0 1.6-2.9 8 8 0 0 0 .1-3.4 10 10 0 0 0-1.3-3.5 17 17 0 0 0-2.8-3.3l-3.4-3a52.7 52.7 0 0 1-6-4.7c-.5-.7-.9-1.3-1-2-.2-.5 0-1 .2-1.4.3-.4.8-.7 1.3-1a13 13 0 0 1 4.9-.2c1 .3 2.1.5 3.3 1a59 59 0 0 1 8.3 3.3l10.5 5a104 104 0 0 0 11.3 4.8 51.9 51.9 0 0 0 5.5 1.5 41.7 41.7 0 0 0 5.3.9h5a30 30 0 0 0 9.6-2.1 28.4 28.4 0 0 0 4.2-2.1 23.5 23.5 0 0 0 3.6-2.7c1-1 2-2 2.7-3.1a15.5 15.5 0 0 0 1.7-3.4l1-3.6c.3-2.4.4-4.8.5-7 0-1.2.2-2.3.3-3.2.2-1 .4-2 .8-2.8.3-.8.8-1.6 1.5-2.2.7-.6 1.6-1 2.7-1.4 1.2-.4 2.6-.6 4.2-.7a31.6 31.6 0 0 1 11 1.4 40.2 40.2 0 0 1 5.8 2.1l5.5 3 5.4 3.4c1.8 1.1 3.7 2.3 5.6 3.3a38.4 38.4 0 0 0 12.7 4.2c2.4.5 5 1 7.6 1.7a55.7 55.7 0 0 1 8.8 3.2 56.9 56.9 0 0 1 4.8 2.5 65.7 65.7 0 0 1 5.2 3.4 148.3 148.3 0 0 1 23.1 21.5 263.6 263.6 0 0 1 10.9 12.7l1 1.3V0Z"
     paint-order="stroke fill markers"
     id="path111" />
  <g
     color="#000"
     transform="translate(.8 -34.8) scale(5.43816)"
     id="g161">
    <path
       fill="url(#p)"
       fill-rule="evenodd"
       d="M41.3 34a18.3 5.2 0 1 1-36.5 0 18.3 5.2 0 1 1 36.5 0z"
       overflow="visible"
       style="marker:none"
       transform="matrix(1 0 0 1.53012 .1 -20)"
       id="path113" />
    <path
       fill="url(#q)"
       fill-rule="evenodd"
       stroke="#2e3436"
       stroke-miterlimit="10"
       stroke-width=".6"
       d="M10.4 12.5s2.8 5.9 9.6 5.7c14-.3 16.5-7.7 16.9-8.7.3-1.1.9-1 1 0C42.5 51.3 6 33.4 4.7 26.3 12 24 10.2 20 10.2 20l.2-7.6z"
       overflow="visible"
       style="marker:none"
       id="path115" />
    <path
       fill="url(#r)"
       fill-rule="evenodd"
       d="M15.7 30c6.8 1.4 10.2.2 12.2-1.4-.5-.7-1.4-1.4-1.4-1.4s2.3.6 3.2 1.7c.8 1 .3 1.7 0 3-.4-1.1-1.3-1.6-1.4-2-1.8 2.5-6.3 2.4-12.6.2z"
       overflow="visible"
       style="marker:none"
       id="path117" />
    <path
       fill="none"
       stroke="url(#s)"
       stroke-miterlimit="10"
       stroke-width=".6"
       d="M37 11.8a12 12 0 0 1-2.7 3.1c-2.6 2.2-7 4.2-14.3 4.4-4.2 0-7-2-8.6-3.8l-.1 4.5a4 4 0 0 1-.1 2.7c-.5 1.4-2.2 3-5 4 .3.5.5 1 1.3 1.8a26 26 0 0 0 16 6.6c4.1 0 7.9-1.2 10.5-5 2.4-3.5 3.7-9.3 3-18.3z"
       opacity=".2"
       overflow="visible"
       style="marker:none"
       id="path119" />
    <path
       fill="url(#t)"
       fill-rule="evenodd"
       d="M72.7 21.8a3.2 3.2 0 1 1-6.4 0 3.2 3.2 0 1 1 6.4 0z"
       overflow="visible"
       style="marker:none"
       transform="translate(-75.1 -6.5) scale(1.27778)"
       id="path121" />
    <path
       fill="url(#u)"
       fill-rule="evenodd"
       stroke="#000"
       stroke-miterlimit="10"
       d="M10.4 27.2a4.3 6.1 0 1 1-8.6 0 4.3 6.1 0 1 1 8.6 0z"
       overflow="visible"
       style="marker:none"
       transform="rotate(-35.8 3.4 26.3)"
       id="path123" />
    <use
       xlink:href="#v"
       width="100%"
       height="100%"
       fill-rule="evenodd"
       stroke-miterlimit="10"
       stroke-width="1.2"
       overflow="visible"
       style="marker:none"
       transform="translate(-4 3.4) scale(.85185)"
       id="use125" />
    <path
       fill="none"
       stroke="url(#w)"
       stroke-miterlimit="10"
       d="M6.1 22.2c-.8 0-1.6.4-2.2 1.3a6.6 6.6 0 0 0-1 3.7c0 1.5.4 2.8 1 3.7.6 1 1.4 1.4 2.2 1.4.8 0 1.6-.5 2.2-1.4.6-.9 1.1-2.2 1.1-3.7s-.5-2.8-1-3.7c-.7-.9-1.5-1.3-2.3-1.3z"
       opacity=".3"
       overflow="visible"
       style="marker:none"
       transform="rotate(-36.8 3.4 26.6)"
       id="path127" />
    <path
       fill="#fff"
       fill-rule="evenodd"
       d="M5.8 23.3a1.8 2.1 0 1 1-3.5 0 1.8 2.1 0 1 1 3.5 0z"
       overflow="visible"
       style="marker:none"
       id="path129" />
    <use
       xlink:href="#x"
       width="100%"
       height="100%"
       fill-rule="evenodd"
       overflow="visible"
       style="marker:none"
       transform="translate(-2.6 5) scale(.76667)"
       id="use131" />
    <path
       fill="url(#y)"
       fill-rule="evenodd"
       d="M72.7 21.8a3.2 3.2 0 1 1-6.4 0 3.2 3.2 0 1 1 6.4 0z"
       overflow="visible"
       style="marker:none"
       transform="matrix(1.5 0 0 1.5 -82.2 -11)"
       id="path133" />
    <use
       xlink:href="#v"
       width="100%"
       height="100%"
       fill-rule="evenodd"
       stroke-miterlimit="10"
       overflow="visible"
       style="marker:none"
       transform="translate(1.4 .7)"
       id="use135" />
    <use
       xlink:href="#x"
       width="100%"
       height="100%"
       fill-rule="evenodd"
       overflow="visible"
       style="marker:none"
       transform="matrix(.9 0 0 .9 3 2.6)"
       id="use137" />
    <path
       fill="url(#z)"
       d="m-23.4 23.6 3.7 3.4C-11.3 20.7-2.6 7-2.6 7c2-2.3 0-3.8-2.1-2.5 0 0-13 10.2-18.7 19z"
       overflow="visible"
       style="marker:none"
       transform="rotate(-106.4 23.5 5.6) scale(.40643)"
       id="path139" />
    <path
       fill="url(#A)"
       d="m-30.4 32.8 2.2 2 8.5-7.4.3-.7h1c-.4-1.6-2.9-4.4-4.8-4.4l.1 1-.7.4z"
       overflow="visible"
       style="marker:none"
       transform="rotate(-106.4 23.5 5.6) scale(.40643)"
       id="path141" />
    <path
       fill="url(#B)"
       d="M240.8 162.1a15 15 0 0 0-12.5-4.2c-13.8 1.3-14.7 21-.5 26.4 9 3.4 16 6.8 20.8 9.1l-.4-2.9a7.5 7.5 0 0 0-.5-2l-1-2-1.5-3.1c-.5-1.2-1-2.6-1.3-4-.7-3-.6-6.6-1.1-9a11.9 11.9 0 0 0-1-3c-.5-.7-.9-1.3-1.1-2a4 4 0 0 1-.3-1.8c0-.4.2-1 .4-1.5z"
       style="marker:none"
       transform="translate(-.1 6.4) scale(.18389)"
       id="path143" />
    <path
       fill="url(#C)"
       d="M240.8 162.1a4.2 4.2 0 0 0-.1 3.4l1 2c.4.8.8 1.7 1 3 .6 2.3.5 5.8 1.2 8.8.3 1.5.8 2.9 1.3 4l1.5 3.2 1 2c.3.6.4 1.2.5 2l.4 2.9 5.6 2.7c-4.4-15-7-27.7-13.4-34z"
       style="marker:none"
       transform="translate(-.1 6.4) scale(.18389)"
       id="path145" />
    <use
       xlink:href="#D"
       width="100%"
       height="100%"
       opacity=".5"
       overflow="visible"
       style="marker:none"
       transform="rotate(-106.4 26.2 20.8) scale(.84127)"
       id="use147" />
    <path
       fill="url(#E)"
       d="M-38.5 40.9s3.7.1 6-1.4c1-.5 1.6.7.6 1-2.2 1-6.6.4-6.6.4z"
       opacity=".4"
       overflow="visible"
       style="marker:none"
       transform="rotate(-106.4 23.5 5.6) scale(.40643)"
       id="path149" />
    <path
       fill="url(#F)"
       fill-rule="evenodd"
       d="M23 31.7a8.2 8.2 0 0 0 3.4-.4 2 2 0 0 1 2-1.7l-.5-1s-2 1.4-4 1.8z"
       overflow="visible"
       style="marker:none"
       id="path151" />
    <path
       fill="url(#G)"
       d="m32.9 40 1.6-1.3c-2-3.8-7-8.2-7-8.2-.8-.9-1.5-.1-1 .8 0 0 3.2 5.8 6.4 8.6z"
       overflow="visible"
       style="marker:none"
       id="path153" />
    <path
       fill="url(#H)"
       d="m35.7 42.5.7-.6-2-3.2c-.4 0-1.4.7-1.5 1.2z"
       overflow="visible"
       style="marker:none"
       id="path155" />
    <path
       fill="url(#I)"
       d="m36.4 42-.7.5c.1.1.3.3.4.2a.5.5 0 0 0 .4-.3V42a.7.7 0 0 0-.1 0z"
       id="path157" />
    <path
       fill="#ffffff"
       d="m 42,28.8 v 0.8 h -0.5 c -0.2,0 -0.2,0.4 0,0.4 h 0.3 c 0.2,0 0.2,0 0.2,0.3 0,0.4 0,0.4 -0.4,0.4 -0.13303,-0.01273 -0.26697,-0.01273 -0.4,0 v 0.1 c -0.01694,0.06559 -0.01694,0.134409 0,0.2 0,0.1 0,0.3 -0.2,0.3 h -0.2 v -0.6 h -0.4 c -0.3,0 -0.3,0 -0.3,-0.4 V 30 h -0.6 c -0.266667,0 -0.266667,-0.4 0,-0.4 h 0.6 v -0.4 c 0,-0.4 0,-0.4 0.3,-0.4 h 0.3 v 0.3 c 0,0.2 0.1,0.4 0.4,0.3 0.1,0 0.1,-0.2 0,-0.4 l 0.1,-0.2 h 0.7 z m 0.7,0.9 v -1 h 0.4 c 0.6,0.1 0.8,0.2 0.8,0.6 0,0.4 -0.2,0.6 -0.7,0.6 h -0.3 v 0.7 h -0.2 z m 0.9,-0.1 c 0.03892,-0.09621 0.03892,-0.203787 0,-0.3 0.01694,-0.06559 0.01694,-0.134409 0,-0.2 L 43.2,29 H 43 v 0.7 h 0.3 l 0.4,-0.1 z m 0.7,0.1 v -0.9 h 0.2 v 1.6 h 0.8 v 0.2 h -1 z m 1.6846,0.922694 C 45.792835,30.564525 45.658169,30.391765 45.6,30.2 v -1.4 h 0.2 v 0.7 c 0,0.8 0,1 0.4,1 0.2,0 0.4,0 0.5,-0.2 l 0.1,-0.8 V 28.8 H 47 v 0.7 c 0,0.8 -0.0077,0.654339 -0.209912,0.969387 -0.141108,0.119641 -0.120541,0.184832 -0.594609,0.178294 z M 48,30.6 c -0.5,-0.2 -0.7,-0.8 -0.5,-1.4 0.226927,-0.316783 0.617203,-0.472893 1,-0.4 0.3,0 0.4,0 0.3,0.2 -0.133057,-0.01215 -0.266943,-0.01215 -0.4,0 H 48 c -0.3,0.2 -0.4,0.5 -0.4,1 0,0.3 0.5,0.6 1,0.5 h 0.1 v -0.7 h -0.4 c 0,-0.1 0,-0.2 0.3,-0.2 h 0.3 v 1 c -0.330986,0.05595 -0.669014,0.05595 -1,0 z m 1.3,-0.9 v -0.9 h 0.2 v 1.8 h -0.2 z m 0.8,0 v -0.9 c 0.2,0 0.2,0 0.7,0.8 l 0.5,0.7 v -1.5 h 0.2 v 1.8 h -0.1 c -0.1,0 -0.2,0 -0.6,-0.7 l -0.5,-0.8 v 1.5 H 50 Z"
       id="path159"
       sodipodi:nodetypes="ccssssccccsccsscsscsscsccccccccsscccccccccccccccccccccccccssccccscccccccccsccccscccccccccccccccccsccccc" />
  </g>
  <path
     fill="#fff"
     d="M215.6 111v-2.9h.5c.4.1.5.4 1.3 2.4l1 2.3c.1 0 .6-1 1-2.2 1-2.2 1-2.4 1.4-2.4h.5v2.9c0 2.4 0 2.9-.2 2.9-.3 0-.3-.5-.3-2.6v-2.6l-1.1 2.6c-.7 1.7-1.1 2.6-1.3 2.6-.1 0-.7-1.2-1.2-2.6l-1-2.6v2.6c0 2.2-.1 2.6-.3 2.6-.2 0-.3-.5-.3-3zm6.7 2.9c0-.5 2.3-5.7 2.5-5.7.1 0 .5.8 1.1 2.3a369.9 369.9 0 0 0 1.2 3c.2.4.2.5 0 .5-.3 0-.5-.3-.7-1l-.3-1-1.3.1h-1.3l-.3 1c-.2.5-.5.9-.6.9l-.3-.1zm3.4-2.5a226.5 226.5 0 0 1-.4-1.3l-.5-1c-.1 0-1 2-1 2.3l1 .2c.8 0 1 0 1-.2zm2.7-.3c0-3.8 0-3.8 2.1-.5l1.7 2.4.1-2.4c0-2 0-2.4.3-2.4.2 0 .2.4.2 2.9 0 2.8 0 2.9-.3 2.9s-.8-.7-2-2.4a22 22 0 0 0-1.7-2.4l-.1 2.4c0 1.5 0 2.4-.2 2.4l-.1-3zm6.1 0c0-2.5 0-3 .3-3 .2 0 .3.5.3 3s0 2.9-.3 2.9-.3-.4-.3-3zm2.3 0v-3h.9c2.3 0 3.2 1 2.4 2.6-.3.6-.5.7-1.8.9h-1v1.2c0 1 0 1.2-.3 1.2-.2 0-.2-.5-.2-3zm2.7-.4c.5-.6.5-1 0-1.5-.2-.4-.4-.4-1.2-.4h-1v2.3h.9c.7 0 1-.1 1.3-.4zm3.3 3c-.9-.5-1-.9-1-3.4 0-1.8 0-2.1.2-2.1s.3.3.3 2c0 2.2.1 2.8.8 3 .7.4 1.4.3 2-.2.4-.5.4-.5.4-2.7 0-1.8 0-2.1.3-2.1.2 0 .3.3.3 2.1 0 2.6-.3 3.2-1.4 3.5-.9.3-1.2.2-1.9-.1zm5-2.6c0-2.5 0-3 .2-3 .3 0 .3.5.3 2.7v2.7h1.3c1 0 1.3 0 1.3.2s-.3.3-1.6.3h-1.5zm4.6 0c.7-1.8 1.3-2.9 1.4-2.9.1 0 .7 1.1 1.4 3 1 2.4 1.1 2.8.8 2.8-.2 0-.4-.3-.6-1l-.4-.8h-1.2l-1.3-.1-.3 1c-.3.6-.5.9-.7.9-.2 0 0-.5.9-2.9zm2.3.4c.1-.1-.8-2.5-1-2.5l-.4 1.2a76.2 76.2 0 0 1-.5 1.3h1.9zm3.7-.1v-2.6l-1-.1c-.6 0-.9-.1-.9-.3 0-.2.4-.2 2.2-.2 1.8 0 2.1 0 2.1.2s-.2.3-.9.3h-1v2.6c0 2.3 0 2.7-.2 2.7s-.3-.5-.3-2.6zm3.5-.3c0-2.5 0-3 .2-3s.3.5.3 3 0 2.9-.3 2.9c-.2 0-.2-.4-.2-3zm3.7 2.7c-1.6-.5-2.3-2.7-1.4-4.5.6-1.1 2.5-1.5 3.7-.8 1.2.8 1.5 2.6.9 4a2.6 2.6 0 0 1-3.2 1.3zm2.3-1c.8-.8.8-2.7 0-3.6-.2-.3-.5-.4-1.2-.5-1 0-1 0-1.6.4-.5.5-.5.7-.6 1.7 0 .8 0 1.2.2 1.6.6 1.2 2.4 1.4 3.2.4zm2.7-1.7c0-3.8 0-3.8 2.2-.5l1.7 2.4v-2.4c0-2 .1-2.4.4-2.4.2 0 .2.4.2 2.9 0 2.8 0 2.9-.3 2.9s-.8-.7-2-2.4a22 22 0 0 0-1.7-2.4l-.1 2.4c0 1.5 0 2.4-.2 2.4-.1 0-.2-1-.2-3zm8.3 0v-3h.9c2.3 0 3.3 1 2.4 2.6-.3.6-.5.7-1.8.9h-1v1.2c0 1 0 1.2-.3 1.2-.2 0-.2-.5-.2-3zm2.7-.4c.5-.6.5-1 0-1.5-.2-.4-.4-.4-1.2-.4h-1v2.3h.9c.7 0 1-.1 1.3-.4zm2.3.4v-3h.9c1.8 0 2.7.6 2.7 1.7 0 .5-.2.8-.5 1.1-.6.6-.6.7.2 2 .7 1 .7 1.1.3 1.1-.2 0-.5-.4-1-1.2-.6-1.2-.7-1.2-1.4-1.2h-.7v1.2c0 1 0 1.2-.3 1.2-.2 0-.2-.4-.2-3zm2.6-.4c.6-.6.6-1 .1-1.5-.2-.4-.4-.4-1.2-.4h-1v.9c0 1.3 0 1.4 1 1.4.5 0 .8-.1 1.1-.4zm3.8 3c-.4 0-.8-.4-1-.6-.7-.8-.8-3-.2-3.9 1-1.5 3.7-1.4 4.5.2.5.8.4 2.7 0 3.3-.8 1.1-2 1.5-3.3 1zm2.1-.6c.7-.4 1-.9 1-2.1 0-1.6-.7-2.3-2-2.3-1.5 0-2.1.8-2 2.6 0 .8.2 1.2.4 1.5a2 2 0 0 0 2.6.3zm4.4.7c-1-.3-1.9-1.9-1.7-3.3a3 3 0 0 1 1.5-2c1-.5 3-.4 3 0 0 .3-.2.3-1 .2-1 0-1.4 0-1.8.2-.8.5-1.1 1.2-1 2.4 0 .9.1 1.1.6 1.5.6.6 1.5.8 2.3.6.6-.1.6-.1.6-1v-1h-.6c-.5 0-.7 0-.7-.2s.2-.3 1-.3h.9v1.4c0 1 0 1.3-.3 1.4-.6.2-2.2.3-2.8.1zm4.6-2.7v-3h1c1.8 0 2.6.6 2.6 1.7 0 .5-.1.8-.5 1.1-.6.6-.6.7.3 2 .7 1 .7 1.1.2 1.1-.2 0-.5-.4-1-1.2-.6-1.2-.6-1.2-1.3-1.2h-.8v1.2c0 1 0 1.2-.2 1.2-.3 0-.3-.4-.3-3zm2.7-.4c.5-.6.5-1 0-1.5-.2-.4-.4-.4-1.2-.4h-.9v.9c-.1 1.3 0 1.4.9 1.4.6 0 .9-.1 1.2-.4zm2.8.4c.7-1.8 1.2-2.9 1.4-2.9.1 0 .7 1.1 1.4 3 1 2.4 1 2.8.8 2.8-.2 0-.4-.3-.6-1l-.4-.8h-1.2l-1.3-.1-.4 1c-.2.6-.4.9-.6.9-.2 0 0-.5.9-2.9zm2.3.4c0-.1-.8-2.5-1-2.5l-.4 1.2a76.2 76.2 0 0 1-.5 1.3h1.9zm2.5-.4v-3h.5l.6.2c0 .4 1.7 4.7 1.8 4.6.1-.1.6-1.2 1-2.5.9-2 1-2.2 1.4-2.2h.4v2.9c0 2.4 0 2.9-.3 2.9-.2 0-.2-.5-.3-2.6v-2.6l-1 2.6-1.2 2.6c-.2 0-.7-1.2-1.3-2.6l-1-2.6v2.6c0 2.1-.1 2.6-.3 2.6-.2 0-.3-.5-.3-3zm-92.5-5.2a4.1 4.1 0 0 1-3-2.4 7.6 7.6 0 0 1 0-5.1c.9-2.2 3.3-3.1 6.1-2.6l1.4.4s-.2.7-.4.9l-.9-.2c-2.3-.7-4.4 0-5.2 1.9-.4.8-.5 3-.2 3.9.3.9 1 1.7 1.8 2 .7.4 2.4.5 3.5.3l.6-.2v-3.2h-2.3v-1h3.3v5l-.7.1c-1 .3-3.2.4-4 .2zm20.3 0a3 3 0 0 1-2.2-1.6c-.4-.7-.4-.8-.5-4.6v-4h1v3.8c.1 4.2.2 4.5 1.2 5.2.4.3.8.4 1.5.4 1.3 0 2-.4 2.5-1.3.3-.7.3-1 .3-4.4v-3.6h1v8l-.5.7c-.8 1.2-2.7 1.8-4.3 1.4zm39.8 0a4.4 4.4 0 0 1-3-2.4c-.5-.7-.6-3.4-.4-4.4a4.7 4.7 0 0 1 3-3.2c1-.3 3-.3 4 0 .8.3 1 .5.6 1-.2.2-.3.2-1 0-1.3-.4-3-.3-3.9.3-1.3.8-2 2.7-1.6 4.7.2 1.4.7 2.2 1.8 2.7.7.4 1.1.5 2 .5 2.1 0 2 0 2-1.9v-1.6h-2.2v-1h3.3v2.5c0 2.8.1 2.5-1.7 2.8-1.3.2-1.9.2-3 0zm-53-5v-5.1h1.3l2.5 3.9 2.8 4.2c.2.4.2 0 .2-3.8v-4.2h.5l.4-.1v10.1h-.6c-.6 0-.7-.2-3.3-4.2a88.2 88.2 0 0 0-2.7-4.2l-.1 4.2v4.2h-1zm24.6 0v-5.1h1v10.1h-1zm3.8 0v-5.1h1.6l.6 1.3 1.6 4.2c.7 2 1.1 2.8 1.2 2.7l1.6-4.2 1.6-4h1.6v10.1h-1.1v-8.8l-1.8 4.4c-1.4 4-1.6 4.3-2 4.4-.5 0-.5 0-2.8-6.2l-1.1-2.7v8.9h-1zm31.8 0v-5.1h5.5v1h-4.5v3.3h4.1v1h-4.1v3.8h4.5v1h-5.5zm-18.5 0c1.9-4.9 2-5 2.4-5l.5-.1 1.6 4.1a984 984 0 0 0 2 5l.3.8h-.6c-.5 0-.6 0-1.2-1.5l-.6-1.5h-4.1l-.6 1.5c-.6 1.5-.6 1.5-1.1 1.5h-.6zm4 .6-.7-1.9a76.4 76.4 0 0 1-.7-2.3c-.1-.3-.3 0-1 2a109.3 109.3 0 0 0-.9 2.3h3.3z"
     id="path163" />
</svg>
