<?xml version="1.0" encoding="UTF-8" standalone="no"?>
<svg
   xmlns:dc="http://purl.org/dc/elements/1.1/"
   xmlns:cc="http://creativecommons.org/ns#"
   xmlns:rdf="http://www.w3.org/1999/02/22-rdf-syntax-ns#"
   xmlns:svg="http://www.w3.org/2000/svg"
   xmlns="http://www.w3.org/2000/svg"
   xmlns:xlink="http://www.w3.org/1999/xlink"
   width="324px"
   height="234px"
   viewBox="0 0 324 234"
   version="1.1"
   id="SVGRoot">
  <defs
     id="defs1526">
    <linearGradient
       id="linearGradient4325">
      <stop
         style="stop-color:#ff6600;stop-opacity:1;"
         offset="0"
         id="stop4321" />
      <stop
         style="stop-color:#ff6600;stop-opacity:0;"
         offset="1"
         id="stop4323" />
    </linearGradient>
    <linearGradient
       xlink:href="#linearGradient4325"
       id="linearGradient4327"
       x1="324"
       y1="234"
       x2="-25"
       y2="-14.571429"
       gradientUnits="userSpaceOnUse" />
  </defs>
  <metadata
     id="metadata1529">
    <rdf:RDF>
      <cc:Work
         rdf:about="">
        <dc:format>image/svg+xml</dc:format>
        <dc:type
           rdf:resource="http://purl.org/dc/dcmitype/StillImage" />
        <dc:title></dc:title>
      </cc:Work>
    </rdf:RDF>
  </metadata>
  <rect
     y="-3.3002181e-08"
     x="4.1823614e-07"
     height="234"
     width="324"
     id="rect4103"
     style="opacity:1;fill:url(#linearGradient4327);fill-opacity:1;fill-rule:nonzero;stroke:#ffffff;stroke-width:0;stroke-miterlimit:4;stroke-dasharray:none;stroke-dashoffset:0;stroke-opacity:0.02551018;paint-order:stroke fill markers" />
  <g
     transform="matrix(0.95895522,0,0,0.94274809,12.226754,-6.2357934)"
     id="g847">
    <path
       style="opacity:0.2;fill-rule:evenodd;stroke-width:3.49191499"
       d="m 238.83882,18.29177 c -1.58462,-0.30174 -3.00825,0.769391 -3.86409,1.988955 -0.85583,1.220171 -1.44966,2.731808 -1.96681,4.636895 -0.89435,3.296633 -4.17885,15.533352 -16.02256,27.627634 C 205.14165,64.640166 184.71761,78.171561 149.31912,79.262596 127.79449,79.56429 112.94987,68.485451 104.36678,48.140223 102.22475,43.06281 98.432459,33.600758 98.432459,39.621349 v 9.308786 l -0.109306,48.17745 0.218554,0.634199 c 0,0 1.928293,5.131106 -0.109248,12.044206 -2.037577,6.91369 -9.401582,17.00265 -27.358625,23.45894 l -2.195284,0.78147 0.4172,2.76922 c 0.996022,6.70853 4.966241,13.5842 10.827391,20.62342 5.861151,7.03861 13.708713,14.15989 22.846789,20.59807 18.27616,12.87637 41.68453,23.0517 64.42795,23.52722 22.74343,0.47674 44.9958,-9.05051 59.71954,-35.43745 14.72374,-26.38635 21.90444,-74.454013 16.02255,-140.042131 h -0.0102 c -0.18681,-1.80066 -0.51835,-3.338245 -1.11226,-4.685739 -0.59391,-1.346896 -1.59406,-2.737845 -3.17869,-3.038368 z"
       id="path3505" />
    <path
       style="fill:#6c5a42;fill-rule:evenodd;stroke-width:3.49191499"
       d="m 238.83882,14.46991 c -1.58462,-0.30173 -3.00825,0.769401 -3.86409,1.988964 -0.85583,1.220171 -1.44966,2.731808 -1.96681,4.636896 -0.89435,3.296633 -4.17885,15.533343 -16.02256,27.62763 C 205.14165,60.818309 184.71761,74.349704 149.31912,75.440738 127.79449,75.742434 112.94987,60.843541 104.36678,40.49831 102.22475,35.4209 98.432459,25.958845 98.432459,31.979446 v 9.308782 l -0.109306,51.997495 0.218554,0.634199 c 0,0 1.928293,5.131113 -0.109248,12.044218 -2.037577,6.91368 -9.401582,17.00265 -27.358625,23.45893 l -2.195284,0.78147 0.4172,2.76922 c 0.996022,6.70853 4.966241,13.58421 10.827391,20.62342 5.861151,7.03861 13.708713,14.15989 22.846789,20.59808 18.27616,12.87636 41.68453,23.05169 64.42795,23.52721 22.74343,0.47674 44.9958,-9.05051 59.71954,-35.43745 14.72374,-26.38635 21.90444,-74.45401 16.02255,-140.042121 h -0.0102 c -0.18681,-1.80067 -0.51835,-3.338246 -1.11226,-4.685749 -0.59391,-1.346895 -1.59406,-2.737844 -3.17869,-3.038358 z"
       id="path3507" />
    <path
       style="opacity:0.1;fill:#ffffff;fill-rule:evenodd;stroke-width:3.49191499"
       d="m 238.8383,14.470547 c -1.58462,-0.301731 -3.00762,0.765994 -3.86347,1.985567 -0.85583,1.220171 -1.45198,2.737843 -1.96912,4.642931 -0.89436,3.296633 -4.17721,15.531902 -16.02093,27.626186 -11.84371,12.094908 -32.26827,25.624481 -67.66676,26.715515 -21.52463,0.301695 -36.37022,-14.596184 -44.9533,-34.941416 -2.14204,-5.07741 -5.93228,-14.537612 -5.93228,-8.517021 v 3.821841 c 0,-6.020601 3.79024,3.43961 5.93228,8.517014 8.58308,20.345232 23.42867,35.243111 44.9533,34.941416 35.39849,-1.091034 55.82305,-14.620606 67.66676,-26.715514 11.84372,-12.094288 15.12657,-24.329556 16.02093,-27.62619 0.51714,-1.905086 1.11329,-3.422759 1.96912,-4.64293 0.85585,-1.219564 2.27885,-2.28728 3.86347,-1.985559 v 0.04482 c 1.58463,0.300505 2.5841,1.698622 3.17801,3.045517 0.5939,1.347503 0.92862,2.879595 1.11543,4.680256 h 0.007 c 1.37787,15.364444 2.01626,29.727019 2.03144,43.115064 0.11763,-14.452388 -0.52214,-30.10699 -2.03144,-46.936896 h -0.007 c -0.18681,-1.80067 -0.52153,-3.332753 -1.11543,-4.680256 -0.59391,-1.346896 -1.59338,-2.745012 -3.17801,-3.045526 z m -140.40586,26.820021 -0.112177,51.997845 0.0067,0.02255 0.105793,-48.19856 z m 0.834992,60.208822 c -0.119576,1.36887 -0.362853,2.86188 -0.834992,4.46379 -2.037587,6.91368 -9.398806,17.00469 -27.35584,23.46098 l -2.199686,0.78378 0.417505,2.76934 c 0.04154,0.28009 0.116351,0.56279 0.168228,0.84349 l 1.613934,-0.57478 c 17.957043,-6.45628 25.318262,-16.54729 27.35584,-23.46098 0.971509,-3.29622 1.027789,-6.1627 0.835001,-8.28562 z"
       id="path3509" />
    <path
       style="opacity:0.2;fill-rule:evenodd;stroke-width:3.49191499"
       d="m 162.23722,71.618927 c -6.31433,0 -12.66038,2.500397 -17.49178,7.644892 -4.83139,5.144486 -8.02731,12.984443 -8.02731,22.935291 0,9.95083 3.19592,17.77978 8.02731,22.92428 4.8314,5.1445 11.17745,7.64489 17.49178,7.64489 6.31433,0 12.66039,-2.50039 17.49178,-7.64489 4.8314,-5.1445 8.03676,-12.97345 8.03676,-22.92428 0,-9.950848 -3.20536,-17.790805 -8.03676,-22.935291 -4.83139,-5.144495 -11.17745,-7.644892 -17.49178,-7.644892 z"
       id="path3511" />
    <path
       style="opacity:0.2;fill-rule:evenodd;stroke-width:3.49191499"
       d="m 117.57056,71.618927 c -6.31434,0 -12.66038,2.500397 -17.49178,7.644892 -4.831388,5.144486 -8.027298,12.984443 -8.027298,22.935291 0,9.95083 3.19591,17.77978 8.027298,22.92428 4.8314,5.1445 11.17744,7.64489 17.49178,7.64489 6.31432,0 12.66038,-2.50039 17.49178,-7.64489 4.83139,-5.1445 8.03675,-12.97345 8.03675,-22.92428 0,-9.950848 -3.20536,-17.790805 -8.03675,-22.935291 -4.8314,-5.144495 -11.17746,-7.644892 -17.49178,-7.644892 z"
       id="path3513" />
    <path
       style="fill:#ffffff;fill-rule:evenodd;stroke-width:3.49191499"
       d="m 117.57056,67.79707 c -6.31434,0 -12.66038,2.500396 -17.49178,7.644891 -4.831388,5.144487 -8.027298,12.984445 -8.027298,22.935295 0,9.950834 3.19591,17.779774 8.027298,22.924284 4.8314,5.14449 11.17744,7.64488 17.49178,7.64488 6.31432,0 12.66038,-2.50039 17.49178,-7.64488 4.83139,-5.14451 8.03675,-12.97345 8.03675,-22.924284 0,-9.95085 -3.20536,-17.790808 -8.03675,-22.935295 -4.8314,-5.144495 -11.17746,-7.644891 -17.49178,-7.644891 z"
       id="path3515" />
    <path
       style="fill:#3f3f3f;fill-rule:evenodd;stroke-width:3.49191499"
       d="m 123.95624,86.906248 c -3.12714,0 -6.28849,1.238266 -8.72396,3.831618 -2.43546,2.593344 -4.03795,6.587628 -4.03795,11.455734 0,4.8681 1.60249,8.86238 4.03795,11.45573 2.43547,2.59333 5.59682,3.8316 8.72396,3.8316 3.12713,0 6.28849,-1.23827 8.72397,-3.8316 2.43546,-2.59335 4.03793,-6.58763 4.03793,-11.45573 0,-4.868106 -1.60247,-8.86239 -4.03793,-11.455734 -2.43548,-2.593352 -5.59684,-3.831618 -8.72397,-3.831618 z"
       id="path3517" />
    <path
       style="opacity:0.3;fill-rule:evenodd;stroke-width:3.49191499"
       d="m 130.33719,163.33759 c 9.21233,0 17.61098,0.57446 25.22887,0 12.65492,-0.97192 23.77872,-1.92274 29.40265,-7.30378 -2.37888,-3.80692 -3.58391,-7.98292 -3.58391,-7.98292 0,0 7.69728,3.63467 11.41436,9.57959 3.70646,5.92834 -4.06339,9.58067 -5.0334,17.16561 -2.15944,-6.6617 -0.75047,-9.16022 -1.29617,-11.80747 -3.9247,6.72267 -10.68477,11.54429 -19.77711,11.80747 -9.67817,0.27808 -21.99884,-5.16696 -36.35529,-11.4478 z"
       id="path3519" />
    <path
       style="opacity:0.2;fill-rule:evenodd;stroke-width:3.49191499"
       d="m 72.797888,94.549969 c -1.132549,0 -2.243189,0.08599 -3.322779,0.2981 -2.878904,0.561812 -5.544423,1.907856 -7.842465,3.949865 -9.192189,8.168596 -11.613043,26.681376 -0.259041,46.067246 11.354011,19.38645 26.375832,22.395 35.568018,14.2264 9.192179,-8.16861 11.621969,-26.68138 0.267962,-46.06724 C 89.758532,100.30221 80.725758,94.636532 72.797897,94.551111 Z"
       id="path3521" />
    <path
       style="fill:#3f3f3f;fill-rule:evenodd;stroke-width:3.49191499"
       d="m 72.797888,90.728105 c -1.132549,0 -2.243189,0.08599 -3.322779,0.298103 -2.878904,0.56181 -5.544423,1.90786 -7.842465,3.949867 -9.192189,8.168605 -11.613043,26.681375 -0.259041,46.067255 11.354011,19.38645 26.375832,22.395 35.568018,14.22639 9.192179,-8.1686 11.621969,-26.68137 0.267962,-46.06724 C 89.758532,96.480348 80.725758,90.81467 72.797897,90.729252 Z"
       id="path3523" />
    <path
       style="fill:#ffffff;fill-rule:evenodd;stroke-width:3.49191499"
       d="m 162.23722,67.79707 c -6.31433,0 -12.66038,2.500396 -17.49178,7.644891 -4.83139,5.144487 -8.02731,12.984445 -8.02731,22.935295 0,9.950834 3.19592,17.779774 8.02731,22.924284 4.8314,5.14449 11.17745,7.64488 17.49178,7.64488 6.31433,0 12.66039,-2.50039 17.49178,-7.64488 4.8314,-5.14451 8.03676,-12.97345 8.03676,-22.924284 0,-9.95085 -3.20536,-17.790808 -8.03676,-22.935295 -4.83139,-5.144495 -11.17745,-7.644891 -17.49178,-7.644891 z"
       id="path3525" />
    <path
       style="fill:#3f3f3f;fill-rule:evenodd;stroke-width:3.49191499"
       d="m 168.6229,86.906248 c -3.12713,0 -6.28848,1.238266 -8.72395,3.831618 -2.43546,2.593344 -4.03796,6.587628 -4.03796,11.455734 0,4.8681 1.6025,8.86238 4.03796,11.45573 2.43547,2.59333 5.59682,3.8316 8.72395,3.8316 3.12714,0 6.2885,-1.23827 8.72398,-3.8316 2.43546,-2.59335 4.03793,-6.58763 4.03793,-11.45573 0,-4.868106 -1.60247,-8.86239 -4.03793,-11.455734 -2.43548,-2.593352 -5.59684,-3.831618 -8.72398,-3.831618 z"
       id="path3527" />
    <path
       style="opacity:0.1;fill:#ffffff;fill-rule:evenodd;stroke-width:3.49191499"
       d="m 72.796461,90.728082 c -1.132548,0 -2.247974,0.08649 -3.327564,0.2986 -2.878904,0.56181 -5.541053,1.914189 -7.839096,3.956195 -5.233312,4.650575 -8.193056,12.686183 -7.739399,22.296523 0.400545,-7.90194 3.2171,-14.45596 7.739399,-18.474682 2.298043,-2.042009 4.960192,-3.394388 7.839096,-3.9562 1.07959,-0.212145 2.195016,-0.298596 3.327564,-0.298596 7.927862,0.08543 16.963554,5.745088 24.414624,18.467218 4.845595,8.2734 7.078885,16.33838 7.421585,23.54311 0.3943,-8.10919 -1.69805,-17.59255 -7.421585,-27.36494 C 89.760015,96.47318 80.724323,90.8135 72.796461,90.728082 Z"
       id="path3529" />
  </g>
  <text
     id="text832"
     y="219.39999"
     x="40.567188"
     style="font-style:normal;font-variant:normal;font-weight:bold;font-stretch:normal;font-size:40px;line-height:1.25;font-family:sans-serif;-inkscape-font-specification:'sans-serif Bold';letter-spacing:0px;word-spacing:0px;fill:#ffffff;fill-opacity:1;stroke:none"
     xml:space="preserve"><tspan
       y="219.39999"
       x="40.567188"
       id="tspan830">Gimp Plugin</tspan></text>
</svg>
