<?xml version="1.0" encoding="UTF-8" standalone="no"?>
<svg
   xmlns:dc="http://purl.org/dc/elements/1.1/"
   xmlns:cc="http://creativecommons.org/ns#"
   xmlns:rdf="http://www.w3.org/1999/02/22-rdf-syntax-ns#"
   xmlns:svg="http://www.w3.org/2000/svg"
   xmlns="http://www.w3.org/2000/svg"
   xmlns:xlink="http://www.w3.org/1999/xlink"
   xmlns:sodipodi="http://sodipodi.sourceforge.net/DTD/sodipodi-0.dtd"
   xmlns:inkscape="http://www.inkscape.org/namespaces/inkscape"
   width="324px"
   height="234px"
   viewBox="0 0 324 234"
   version="1.1"
   id="svg47"
   sodipodi:docname="laaplicacionrara2.svg"
   inkscape:version="0.92.4 (5da689c313, 2019-01-14)">
  <metadata
     id="metadata51">
    <rdf:RDF>
      <cc:Work
         rdf:about="">
        <dc:format>image/svg+xml</dc:format>
        <dc:type
           rdf:resource="http://purl.org/dc/dcmitype/StillImage" />
        <dc:title></dc:title>
      </cc:Work>
    </rdf:RDF>
  </metadata>
  <sodipodi:namedview
     pagecolor="#ffffff"
     bordercolor="#666666"
     borderopacity="1"
     objecttolerance="10"
     gridtolerance="10"
     guidetolerance="10"
     inkscape:pageopacity="0"
     inkscape:pageshadow="2"
     inkscape:window-width="1152"
     inkscape:window-height="764"
     id="namedview49"
     showgrid="false"
     inkscape:zoom="1.008547"
     inkscape:cx="184.83177"
     inkscape:cy="83.682486"
     inkscape:window-x="0"
     inkscape:window-y="0"
     inkscape:window-maximized="1"
     inkscape:current-layer="g1794"
     inkscape:pagecheckerboard="true"
     inkscape:snap-smooth-nodes="true"
     inkscape:snap-bbox="true"
     inkscape:object-paths="true"
     inkscape:snap-intersection-paths="true" />
  <defs
     id="defs30">
    <linearGradient
       id="linearGradient1802"
       inkscape:collect="always">
      <stop
         id="stop1798"
         offset="0"
         style="stop-color:#854ed7;stop-opacity:1" />
      <stop
         id="stop1800"
         offset="1"
         style="stop-color:#30c4ed;stop-opacity:1" />
    </linearGradient>
    <linearGradient
       inkscape:collect="always"
       id="linearGradient1754">
      <stop
         style="stop-color:#726cb9;stop-opacity:1;"
         offset="0"
         id="stop1750" />
      <stop
         style="stop-color:#3abee3;stop-opacity:1"
         offset="1"
         id="stop1752" />
    </linearGradient>
    <radialGradient
       id="radial0"
       gradientUnits="userSpaceOnUse"
       cx="90.136406"
       cy="64.761543"
       fx="90.136406"
       fy="64.761543"
       r="91.591759"
       gradientTransform="matrix(1.8,0,0,1.304046,-1.5830078e-5,32.11876)">
      <stop
         offset="0"
         style="stop-color:#def9ff;stop-opacity:1"
         id="stop2" />
      <stop
         offset="1"
         style="stop-color:rgb(0%,75.294119%,100%);stop-opacity:1;"
         id="stop4" />
    </radialGradient>
    <linearGradient
       id="linear0"
       gradientUnits="userSpaceOnUse"
       x1="24.751699"
       y1="3.0398"
       x2="24.751699"
       y2="28.888399"
       gradientTransform="matrix(3.639255,0,0,3.639216,74.853712,29.083646)">
      <stop
         offset="0"
         style="stop-color:rgb(96.470588%,31.37255%,23.137255%);stop-opacity:1;"
         id="stop7" />
      <stop
         offset="0.2174"
         style="stop-color:rgb(94.901961%,27.843139%,20.784314%);stop-opacity:1;"
         id="stop9" />
      <stop
         offset="0.5719"
         style="stop-color:rgb(90.196079%,18.431373%,14.509805%);stop-opacity:1;"
         id="stop11" />
      <stop
         offset="1"
         style="stop-color:rgb(83.137256%,3.529412%,5.098039%);stop-opacity:1;"
         id="stop13" />
    </linearGradient>
    <linearGradient
       id="linear1"
       gradientUnits="userSpaceOnUse"
       x1="17.7449"
       y1="12.3679"
       x2="17.7449"
       y2="44.990501"
       gradientTransform="matrix(3.639255,0,0,3.639216,74.853712,29.083646)">
      <stop
         offset="0"
         style="stop-color:rgb(20.784314%,75.686276%,18.82353%);stop-opacity:1;"
         id="stop16" />
      <stop
         offset="0.3483"
         style="stop-color:rgb(20.392157%,74.117649%,18.82353%);stop-opacity:1;"
         id="stop18" />
      <stop
         offset="0.6809"
         style="stop-color:rgb(19.215687%,69.803923%,19.215687%);stop-opacity:1;"
         id="stop20" />
      <stop
         offset="1"
         style="stop-color:rgb(17.254902%,62.352943%,19.607843%);stop-opacity:1;"
         id="stop22" />
    </linearGradient>
    <linearGradient
       id="linear2"
       gradientUnits="userSpaceOnUse"
       x1="24.4657"
       y1="16.0054"
       x2="24.4657"
       y2="32.005402"
       gradientTransform="matrix(3.639255,0,0,3.639216,74.853712,29.083646)">
      <stop
         offset="0"
         style="stop-color:rgb(27.843139%,72.549021%,100%);stop-opacity:1;"
         id="stop25" />
      <stop
         offset="1"
         style="stop-color:rgb(23.921569%,54.11765%,100%);stop-opacity:1;"
         id="stop27" />
    </linearGradient>
    <linearGradient
       inkscape:collect="always"
       xlink:href="#linearGradient1754"
       id="linearGradient1756"
       x1="0"
       y1="117"
       x2="324"
       y2="117"
       gradientUnits="userSpaceOnUse" />
    <linearGradient
       inkscape:collect="always"
       xlink:href="#linearGradient1802"
       id="linearGradient1796"
       gradientUnits="userSpaceOnUse"
       x1="68.709206"
       y1="56.089149"
       x2="395.51367"
       y2="271.86017" />
    <linearGradient
       inkscape:collect="always"
       xlink:href="#linearGradient1802"
       id="linearGradient1854"
       x1="80.180611"
       y1="117.1007"
       x2="260.34698"
       y2="117.1007"
       gradientUnits="userSpaceOnUse" />
    <linearGradient
       inkscape:collect="always"
       xlink:href="#linear2"
       id="linearGradient1867"
       x1="156.04974"
       y1="25.028067"
       x2="160.93912"
       y2="264.80917"
       gradientUnits="userSpaceOnUse"
       gradientTransform="translate(8.2637999,-17.94037)" />
    <linearGradient
       inkscape:collect="always"
       xlink:href="#linear2"
       id="linearGradient1875"
       gradientUnits="userSpaceOnUse"
       gradientTransform="matrix(1,0,0,-1,0,348.0009)"
       x1="156.04974"
       y1="25.028067"
       x2="160.93912"
       y2="264.80917" />
  </defs>
  <g
     id="surface1">
    <rect
       x="0"
       y="0"
       width="324"
       height="234"
       style="fill:url(#linearGradient1796);stroke:none;fill-opacity:1"
       id="rect32" />
    <g
       id="g1794"
       transform="translate(-8.2637999,-14.05963)">
      <path
         style="fill:url(#linearGradient1867);fill-opacity:1;stroke:none;stroke-width:0.38197151;stroke-opacity:1"
         d="m 170.2638,25.510802 a 90.083191,90.083191 0 0 0 -6.37305,0.224609 90.083191,90.083191 0 0 0 -8.9375,1.083985 90.083191,90.083191 0 0 0 -8.78711,1.972656 90.083191,90.083191 0 0 0 -8.54492,2.839844 90.083191,90.083191 0 0 0 -8.21875,3.677734 90.083191,90.083191 0 0 0 -7.81055,4.480469 90.083191,90.083191 0 0 0 -7.32421,5.238281 90.083191,90.083191 0 0 0 -6.76563,5.941406 90.083191,90.083191 0 0 0 -6.13867,6.589844 90.083191,90.083191 0 0 0 -5.449219,7.167969 90.083191,90.083191 0 0 0 -4.707032,7.675781 90.083191,90.083191 0 0 0 -3.916015,8.10938 90.083191,90.083191 0 0 0 -3.087891,8.45898 90.083191,90.083191 0 0 0 -2.226562,8.72461 90.083191,90.083191 0 0 0 -1.345703,8.9043 90.083191,90.083191 0 0 0 -0.451172,8.99218 90.083191,90.083191 0 0 0 0.226562,6.3711 90.083191,90.083191 0 0 0 1.083984,8.93945 90.083191,90.083191 0 0 0 1.972657,8.78516 90.083191,90.083191 0 0 0 1.640625,4.93945 c 10.308422,0.0153 27.731696,0.0301 29.521486,0.0117 l 2.49414,-0.0254 14.70312,-26.02539 c 3.7627,-6.82247 8.14519,-14.82285 15.71289,-28.70118 2.70429,-4.95937 4.17011,-7.20703 4.69922,-7.20703 0.54271,0 2.70757,3.56799 7.35742,12.12696 3.62314,6.66911 6.78939,12.18505 7.03711,12.25781 0.24773,0.0728 2.29385,-2.95157 4.54883,-6.7207 5.9702,-9.97898 18.26124,-30.2404 18.49219,-30.484379 0.77925,-0.82327 2.73305,2.438189 12.4043,20.703129 3.45658,6.52803 23.19046,42.69814 25.92578,47.51953 3.78484,6.67133 3.67975,6.55591 5.96679,6.51172 1.11478,-0.0216 8.15661,-0.0161 15.6504,0.0137 3.30859,0.0131 3.90394,0.0604 5.80078,0.082 a 90.083191,90.083191 0 0 0 0.90429,-2.47656 90.083191,90.083191 0 0 0 2.22852,-8.72461 90.083191,90.083191 0 0 0 1.3457,-8.9043 90.083191,90.083191 0 0 0 0.45117,-8.99219 90.083191,90.083191 0 0 0 -0.22656,-6.37304 90.083191,90.083191 0 0 0 -1.08594,-8.9375 90.083191,90.083191 0 0 0 -1.9707,-8.78711 90.083191,90.083191 0 0 0 -2.83984,-8.54493 90.083191,90.083191 0 0 0 -3.67774,-8.21874 90.083191,90.083191 0 0 0 -4.48047,-7.810552 90.083191,90.083191 0 0 0 -5.23828,-7.324219 90.083191,90.083191 0 0 0 -5.94336,-6.765625 90.083191,90.083191 0 0 0 -6.58789,-6.136718 90.083191,90.083191 0 0 0 -7.16797,-5.451172 90.083191,90.083191 0 0 0 -7.67773,-4.707032 90.083191,90.083191 0 0 0 -8.10742,-3.916015 90.083191,90.083191 0 0 0 -8.45899,-3.087891 90.083191,90.083191 0 0 0 -8.72461,-2.226562 90.083191,90.083191 0 0 0 -8.90429,-1.345703 90.083191,90.083191 0 0 0 -8.99219,-0.449219 z m 19.28125,90.771488 c -0.0512,0.0173 -0.0999,0.0538 -0.14648,0.10546 -0.25424,0.28007 -1.46008,2.22924 -2.67969,4.33008 -1.2196,2.10085 -3.33399,5.71056 -4.70117,8.02149 -1.36718,2.31091 -3.05896,5.20129 -3.75977,6.42578 l -1.27539,2.22851 2.85352,5.10157 c 3.40693,6.09165 6.47212,11.37089 7.59179,13.07422 l 0.81446,1.24023 5.47265,-0.0352 c 3.00878,-0.0187 5.52778,0.0252 5.59961,0.0977 0.0719,0.0723 2.71285,0.0804 5.86719,0.0176 l 5.73437,-0.11328 -0.51562,-1.22266 c -0.941,-2.23293 -13.18564,-25.97282 -18.625,-36.10937 -1.15626,-2.15476 -1.70535,-3.02788 -2.06445,-3.15625 -0.0599,-0.0214 -0.11478,-0.0231 -0.16602,-0.006 z m -37.0957,11.65625 c -0.34045,0.0813 -3.66367,6.28547 -10.54493,19.6914 l -4.34765,8.47071 5.0293,0.21679 c 2.76605,0.11857 5.62289,0.13867 6.34765,0.0449 0.72476,-0.0938 1.5722,-0.15539 1.88281,-0.13671 1.63935,0.0986 16.31856,0.0584 16.42188,-0.0449 0.33406,-0.33406 -14.33659,-28.35013 -14.78906,-28.24218 z"
         id="path1768"
         inkscape:connector-curvature="0" />
      <path
         id="path1730"
         d="m 190.78906,78.99609 c -0.0714,-0.0109 -0.12569,0.0265 -0.19922,0.0508 -0.28538,0.0943 -5.5049,8.46648 -11.59961,18.60351 -7.79789,12.96986 -11.31359,18.43164 -11.86523,18.43164 -0.56212,0 -2.65285,-3.43334 -7.38672,-12.13086 -3.63102,-6.67126 -6.80305,-12.19064 -7.05078,-12.26562 -0.53334,-0.16143 -43.96949,80.02136 -43.63867,80.55664 0.12464,0.20165 29.8052,0.36718 65.95898,0.36719 57.93427,0 65.73438,-0.0804 65.73438,-0.67188 0,-0.36912 -4.93867,-9.84444 -10.97461,-21.05664 -6.03594,-11.2122 -16.39757,-30.51982 -23.02735,-42.90625 C 192.59692,81.55065 191.28887,79.0723 190.78906,78.9961 Z m -0.85937,24.98829 c 0.68541,-0.0918 1.682,1.53265 4.86328,7.59179 2.87062,5.46744 9.15081,17.29525 19.56055,36.83789 3.13829,5.89167 5.58365,10.90687 5.43554,11.14649 -0.16433,0.26588 -5.85569,0.43554 -14.60156,0.43554 -11.62576,0 -14.42784,-0.11566 -14.8457,-0.61914 -0.46816,-0.5641 -3.05204,-5.21867 -12.96485,-23.35156 L 174,129.8457 l 5.28711,-8.9082 c 7.86801,-13.25667 9.74656,-16.30457 10.36328,-16.81641 0.0907,-0.0753 0.18139,-0.1236 0.2793,-0.13671 z m -0.36328,0.59765 1.08593,0.4043 z m -36.90039,13.07617 c 0.32622,0 3.12156,4.71102 6.21289,10.47071 3.09134,5.75969 8.0814,15.06004 11.08789,20.66601 3.00649,5.60601 5.46679,10.41972 5.46679,10.69727 0,0.36596 -6.25211,0.5039 -22.74609,0.5039 -16.90789,0 -22.74609,-0.13258 -22.74609,-0.51953 0,-0.28633 3.9758,-7.93847 8.83593,-17.0039 4.86015,-9.06544 9.84028,-18.35695 11.06641,-20.64844 1.22612,-2.29148 2.49605,-4.16602 2.82227,-4.16602 z m 0.15429,0.68946 4.36133,7.53711 z"
         style="fill:#cb1abf;fill-opacity:1;stroke:none;stroke-width:0.45041597"
         inkscape:connector-curvature="0" />
      <circle
         r="15.101723"
         cy="74.391724"
         cx="130.27406"
         id="path1738"
         style="opacity:1;fill:#cb1abf;fill-opacity:1;fill-rule:evenodd;stroke:none;stroke-width:1.32567072;stroke-linecap:round;stroke-linejoin:miter;stroke-miterlimit:4;stroke-dasharray:none;stroke-dashoffset:0;stroke-opacity:1;paint-order:markers fill stroke" />
      <path
         style="fill:url(#linearGradient1875);fill-opacity:1;stroke:none;stroke-width:0.38197151;stroke-opacity:1;opacity:0.292"
         d="M 152.04688 234 L 165.51367 234 C 164.47568 232.27503 163.7533 231.1176 162.91406 229.71484 C 160.65908 225.94571 158.61296 222.92134 158.36523 222.99414 C 158.14282 223.05947 155.19311 228.26373 152.04688 234 z "
         id="path2060"
         transform="translate(8.2637999,14.05963)" />
      <path
         style="fill:url(#linearGradient1875);fill-opacity:1;stroke:none;stroke-width:0.38197151;stroke-opacity:1;opacity:0.292"
         d="M 74.130859 234 L 135.89258 234 C 130.93442 224.91982 126.51216 216.82607 123.55859 211.4707 L 108.85547 185.44531 L 106.36133 185.41992 C 104.57154 185.40152 87.148266 185.41634 76.839844 185.43164 A 90.083191 90.083191 0 0 0 75.199219 190.37109 A 90.083191 90.083191 0 0 0 73.226562 199.15625 A 90.083191 90.083191 0 0 0 72.142578 208.0957 A 90.083191 90.083191 0 0 0 71.916016 214.4668 A 90.083191 90.083191 0 0 0 72.367188 223.45898 A 90.083191 90.083191 0 0 0 73.712891 232.36328 A 90.083191 90.083191 0 0 0 74.130859 234 z "
         id="path2058"
         transform="translate(8.2637999,14.05963)" />
      <path
         style="fill:url(#linearGradient1875);fill-opacity:1;stroke:none;stroke-width:0.38197151;stroke-opacity:1;opacity:0.292"
         d="M 247.1543 185.36914 C 245.25746 185.39074 244.66211 185.43807 241.35352 185.45117 C 233.85973 185.48097 226.8179 185.48644 225.70312 185.46484 C 223.41608 185.42065 223.52117 185.30523 219.73633 191.97656 C 217.31736 196.24033 202.80143 222.88491 196.80859 234 L 249.82422 234 A 90.083191 90.083191 0 0 0 250.77148 229.77734 A 90.083191 90.083191 0 0 0 251.85742 220.83984 A 90.083191 90.083191 0 0 0 252.08398 214.4668 A 90.083191 90.083191 0 0 0 251.63281 205.47461 A 90.083191 90.083191 0 0 0 250.28711 196.57031 A 90.083191 90.083191 0 0 0 248.05859 187.8457 A 90.083191 90.083191 0 0 0 247.1543 185.36914 z "
         id="path2054"
         transform="translate(8.2637999,14.05963)" />
      <path
         style="fill:url(#linearGradient1875);fill-opacity:1;stroke:none;stroke-width:0.38197151;stroke-opacity:1;opacity:0.292"
         d="M 140.66992 173.69727 C 139.94516 173.6035 137.08832 173.62362 134.32227 173.74219 L 129.29297 173.95898 L 133.64062 182.42969 C 140.52188 195.83562 143.8451 202.03979 144.18555 202.12109 C 144.63802 202.22904 159.30867 174.21297 158.97461 173.87891 C 158.87129 173.77561 144.19208 173.73538 142.55273 173.83398 C 142.24212 173.85266 141.39468 173.79107 140.66992 173.69727 z "
         id="path2052"
         transform="translate(8.2637999,14.05963)" />
      <path
         style="fill:url(#linearGradient1875);fill-opacity:1;stroke:none;stroke-width:0.38197151;stroke-opacity:1;opacity:0.292"
         d="M 196.91797 173.16992 C 193.76363 173.10712 191.12268 173.1152 191.05078 173.1875 C 190.97895 173.26 188.45995 173.30386 185.45117 173.28516 L 179.97852 173.25 L 179.16406 174.49023 C 178.04439 176.19356 174.9792 181.4728 171.57227 187.56445 L 168.71875 192.66602 L 169.99414 194.89453 C 170.69495 196.11902 172.38673 199.0094 173.75391 201.32031 C 175.12109 203.63124 177.23548 207.24095 178.45508 209.3418 C 179.67469 211.44264 180.88053 213.39181 181.13477 213.67188 C 181.18135 213.72354 181.23005 213.76004 181.28125 213.77734 L 181.28125 213.7793 C 181.33249 213.7964 181.38737 213.79288 181.44727 213.77148 C 181.80637 213.64311 182.35546 212.76999 183.51172 210.61523 C 188.95108 200.47868 201.19572 176.73879 202.13672 174.50586 L 202.65234 173.2832 L 196.91797 173.16992 z "
         id="path1869"
         transform="translate(8.2637999,14.05963)" />
      <path
         style="fill:#b543ae;fill-opacity:1;stroke:none;stroke-width:0.45041597;opacity:0.292"
         d="M 166.74414 157.45117 C 130.59036 157.45118 100.9098 157.61671 100.78516 157.81836 C 100.47242 158.32438 137.31081 226.30149 142.00391 234 L 146.93945 234 C 148.23909 231.80449 149.13882 230.40091 151.47461 226.10938 C 156.20848 217.41185 158.29921 213.97852 158.86133 213.97852 C 159.41297 213.97852 162.92867 219.4403 170.72656 232.41016 C 171.24754 233.27668 171.21309 233.16334 171.71875 234 L 192.07617 234 C 194.17522 230.08776 195.01926 228.54523 198.47656 222.08594 C 205.10634 209.69951 215.46797 190.39189 221.50391 179.17969 C 227.53985 167.96749 232.47852 158.49217 232.47852 158.12305 C 232.47852 157.53157 224.67841 157.45117 166.74414 157.45117 z M 144.42383 170.06445 C 160.91781 170.06445 167.16992 170.2024 167.16992 170.56836 C 167.16992 170.84591 164.70962 175.65962 161.70312 181.26562 C 158.69663 186.8716 153.70657 196.17195 150.61523 201.93164 C 147.5239 207.69133 144.72856 212.40234 144.40234 212.40234 C 144.07612 212.40234 142.8062 210.52781 141.58008 208.23633 C 140.35395 205.94484 135.37382 196.65333 130.51367 187.58789 C 125.65354 178.52246 121.67773 170.87031 121.67773 170.58398 C 121.67773 170.19703 127.51594 170.06445 144.42383 170.06445 z M 196.92383 170.06445 C 205.6697 170.06445 211.36106 170.23412 211.52539 170.5 C 211.6735 170.73962 209.22813 175.75481 206.08984 181.64648 C 195.6801 201.18912 189.39992 213.01693 186.5293 218.48438 C 183.34802 224.54352 182.35143 226.16797 181.66602 226.07617 C 181.56811 226.06306 181.47742 226.01475 181.38672 225.93945 C 180.77 225.42761 178.89145 222.37972 171.02344 209.12305 L 165.73633 200.21484 L 169.11328 194.03516 C 179.02609 175.90227 181.60996 171.24769 182.07812 170.68359 C 182.49598 170.18011 185.29807 170.06445 196.92383 170.06445 z "
         id="path1871"
         transform="translate(8.2637999,14.05963)" />
      <rect
         style="opacity:0.29200003;fill:#9d3596;fill-opacity:1;fill-rule:evenodd;stroke:none;stroke-width:1;stroke-linecap:round;stroke-linejoin:miter;stroke-miterlimit:4;stroke-dasharray:none;stroke-dashoffset:0;stroke-opacity:1;paint-order:markers fill stroke"
         id="rect2070"
         width="324"
         height="75.817429"
         x="8.2637997"
         y="172.2422" />
    </g>
  </g>
</svg>
