<svg xmlns="http://www.w3.org/2000/svg" width="324" height="234" viewBox="0 0 324 234"><path fill="#175ddc" d="M0 0h324v234H0Z"/><path fill="#fff" d="M200.391 122.485V67.638h-38.392v97.437c6.8-3.6 12.883-7.513 18.255-11.741 13.424-10.512 20.137-20.795 20.137-30.849Zm16.455-65.815v65.815c0 4.912-.957 9.782-2.872 14.611-1.914 4.827-4.285 9.112-7.112 12.854-2.828 3.741-6.199 7.384-10.112 10.927-3.914 3.541-7.527 6.483-10.84 8.825a136.473 136.473 0 0 1-10.37 6.642c-3.6 2.085-6.157 3.499-7.67 4.242a95.806 95.806 0 0 1-3.642 1.713 4.91 4.91 0 0 1-2.229.515 4.89 4.89 0 0 1-2.227-.515 95.83 95.83 0 0 1-3.643-1.712c-1.514-.744-4.071-2.158-7.669-4.243a136.412 136.412 0 0 1-10.368-6.64c-3.315-2.344-6.928-5.286-10.842-8.827-3.913-3.543-7.284-7.184-10.112-10.928-2.828-3.741-5.2-8.026-7.113-12.853-1.914-4.829-2.871-9.699-2.871-14.611V56.67c0-1.486.544-2.77 1.629-3.856 1.085-1.086 2.37-1.629 3.856-1.629h98.72c1.488 0 2.773.543 3.858 1.628 1.085 1.086 1.629 2.37 1.629 3.856Z"/></svg>