<?xml version="1.0" encoding="UTF-8" standalone="no"?>
<svg
   xmlns:dc="http://purl.org/dc/elements/1.1/"
   xmlns:cc="http://creativecommons.org/ns#"
   xmlns:rdf="http://www.w3.org/1999/02/22-rdf-syntax-ns#"
   xmlns:svg="http://www.w3.org/2000/svg"
   xmlns="http://www.w3.org/2000/svg"
   xmlns:xlink="http://www.w3.org/1999/xlink"
   xmlns:sodipodi="http://sodipodi.sourceforge.net/DTD/sodipodi-0.dtd"
   xmlns:inkscape="http://www.inkscape.org/namespaces/inkscape"
   width="324px"
   height="234px"
   viewBox="0 0 324 234"
   version="1.1"
   id="SVGRoot"
   sodipodi:docname="1bleach-bit.svg"
   inkscape:version="1.0.1 (3bc2e813f5, 2020-09-07)">
  <sodipodi:namedview
     pagecolor="#ffffff"
     bordercolor="#666666"
     borderopacity="1"
     objecttolerance="10"
     gridtolerance="10"
     guidetolerance="10"
     inkscape:pageopacity="0"
     inkscape:pageshadow="2"
     inkscape:window-width="1920"
     inkscape:window-height="980"
     id="namedview127"
     showgrid="false"
     inkscape:zoom="3.474359"
     inkscape:cx="162.43173"
     inkscape:cy="115.99262"
     inkscape:window-x="0"
     inkscape:window-y="0"
     inkscape:window-maximized="1"
     inkscape:current-layer="g55" />
  <defs
     id="defs10">
    <linearGradient
       id="linearGradient964">
      <stop
         style="stop-color:#edae00;stop-opacity:1"
         offset="0"
         id="stop960" />
      <stop
         style="stop-color:#7367d9;stop-opacity:1"
         offset="1"
         id="stop962" />
    </linearGradient>
    <filter
       height="1.216"
       y="-0.108"
       width="1.216"
       x="-0.108"
       id="filter1042"
       style="color-interpolation-filters:sRGB">
      <feGaussianBlur
         id="feGaussianBlur1044"
         stdDeviation="4.5176688" />
    </filter>
    <radialGradient
       xlink:href="#p"
       id="A"
       cx="22.570999"
       cy="30.857"
       fx="22.570999"
       fy="30.857"
       r="15.571"
       gradientTransform="matrix(1,0,0,0.65138,0,10.758)"
       gradientUnits="userSpaceOnUse" />
    <linearGradient
       id="p">
      <stop
         offset="0"
         id="stop88" />
      <stop
         offset="1"
         stop-opacity="0"
         id="stop90" />
    </linearGradient>
    <linearGradient
       xlink:href="#k"
       id="B"
       x1="12.233"
       y1="12.363"
       x2="16.871"
       y2="17.111"
       gradientUnits="userSpaceOnUse"
       gradientTransform="matrix(0.96593,0.2621,-0.25882,0.97818,2.957,-5.94)" />
    <linearGradient
       id="k">
      <stop
         offset="0"
         stop-color="#c17d10"
         id="stop76" />
      <stop
         offset="1"
         stop-color="#9b650c"
         id="stop78" />
    </linearGradient>
    <linearGradient
       xlink:href="#h"
       id="C"
       x1="9.5620003"
       y1="6.9530001"
       x2="14.767"
       y2="14.2"
       gradientUnits="userSpaceOnUse" />
    <linearGradient
       id="h">
      <stop
         offset="0"
         stop-color="#fff"
         id="stop107" />
      <stop
         offset="1"
         stop-color="#fff"
         stop-opacity="0"
         id="stop109" />
    </linearGradient>
    <radialGradient
       xlink:href="#o"
       id="D"
       cx="20.764"
       cy="19.541"
       fx="20.764"
       fy="19.541"
       r="14.8"
       gradientTransform="matrix(0.4494,-0.2165,0.56442,1.17162,-1.432,2.546)"
       gradientUnits="userSpaceOnUse" />
    <linearGradient
       id="o">
      <stop
         offset="0"
         stop-color="#fef088"
         id="stop100" />
      <stop
         offset=".5"
         stop-color="#fde63a"
         id="stop102" />
      <stop
         offset="1"
         stop-color="#dac203"
         id="stop104" />
    </linearGradient>
    <linearGradient
       xlink:href="#l"
       id="E"
       gradientUnits="userSpaceOnUse"
       gradientTransform="matrix(0.86603,-0.5,0.7975,1.3813,-15.7,-9.225)"
       x1="9.1049995"
       y1="38.827999"
       x2="10.147"
       y2="30.141001" />
    <linearGradient
       id="l">
      <stop
         offset="0"
         stop-color="#c4a000"
         id="stop71" />
      <stop
         offset="1"
         stop-color="#c4a000"
         stop-opacity="0"
         id="stop73" />
    </linearGradient>
    <linearGradient
       xlink:href="#l"
       id="F"
       gradientUnits="userSpaceOnUse"
       gradientTransform="matrix(0.86603,-0.5,0.79796,1.38211,-15.73,-9.277)"
       x1="19.615999"
       y1="39.252998"
       x2="18.486"
       y2="29.909" />
    <linearGradient
       xlink:href="#l"
       id="G"
       gradientUnits="userSpaceOnUse"
       gradientTransform="matrix(0.86603,-0.5,0.84348,1.46095,-19.74,-11.134)"
       x1="15.097"
       y1="36.967999"
       x2="14.045"
       y2="29" />
    <linearGradient
       xlink:href="#l"
       id="H"
       gradientUnits="userSpaceOnUse"
       gradientTransform="matrix(0.86603,-0.5,0.8013,1.3879,-12.818,-11.145)"
       x1="14.045"
       y1="37.576"
       x2="14.045"
       y2="29" />
    <linearGradient
       xlink:href="#l"
       id="I"
       gradientUnits="userSpaceOnUse"
       gradientTransform="matrix(0.86603,-0.5,0.86149,1.49214,-17.88,-13.91)"
       x1="16.929001"
       y1="34.011002"
       x2="14.045"
       y2="29" />
    <linearGradient
       xlink:href="#i"
       id="J"
       x1="11.997"
       y1="19.591999"
       x2="17.774"
       y2="16.235001"
       gradientUnits="userSpaceOnUse"
       gradientTransform="matrix(1.0149,0,0,1.00592,-0.332,-0.14)" />
    <linearGradient
       id="i">
      <stop
         offset="0"
         stop-color="#dac203"
         id="stop93" />
      <stop
         offset=".5"
         stop-color="#fdec69"
         id="stop95" />
      <stop
         offset="1"
         stop-color="#fdef7e"
         id="stop97" />
    </linearGradient>
    <linearGradient
       xlink:href="#j"
       id="K"
       x1="10.615"
       y1="28.122999"
       x2="2.007"
       y2="27.235001"
       gradientUnits="userSpaceOnUse"
       gradientTransform="matrix(1.1767,0,0,1.1767,-0.82,-5.307)" />
    <linearGradient
       id="j">
      <stop
         offset="0"
         stop-color="#b30000"
         id="stop81" />
      <stop
         offset=".5"
         stop-color="#ff5c5c"
         id="stop83" />
      <stop
         offset="1"
         stop-color="#c30000"
         id="stop85" />
    </linearGradient>
    <linearGradient
       xlink:href="#g"
       id="q"
       gradientUnits="userSpaceOnUse"
       gradientTransform="matrix(2.77439,0,0,1.9697,-1892.179,-872.885)"
       x1="302.85699"
       y1="366.64801"
       x2="302.85699"
       y2="609.505" />
    <linearGradient
       id="g">
      <stop
         offset="0"
         stop-opacity="0"
         id="stop50" />
      <stop
         offset=".5"
         id="stop52" />
      <stop
         offset="1"
         stop-opacity="0"
         id="stop54" />
    </linearGradient>
    <radialGradient
       xlink:href="#p"
       id="r"
       gradientUnits="userSpaceOnUse"
       gradientTransform="matrix(2.77439,0,0,1.9697,-1891.633,-872.885)"
       cx="605.71399"
       cy="486.64801"
       fx="605.71399"
       fy="486.64801"
       r="117.143" />
    <radialGradient
       xlink:href="#p"
       id="s"
       gradientUnits="userSpaceOnUse"
       gradientTransform="matrix(-2.77439,0,0,1.9697,112.762,-872.885)"
       cx="605.71399"
       cy="486.64801"
       fx="605.71399"
       fy="486.64801"
       r="117.143" />
    <linearGradient
       gradientUnits="userSpaceOnUse"
       y2="40.944"
       x2="36.182999"
       y1="28.481001"
       x1="7.605"
       id="t"
       xlink:href="#e" />
    <linearGradient
       id="e">
      <stop
         offset="0"
         stop-color="#bbb"
         id="stop13" />
      <stop
         offset="1"
         stop-color="#9f9f9f"
         id="stop15" />
    </linearGradient>
    <radialGradient
       gradientUnits="userSpaceOnUse"
       gradientTransform="matrix(1.28624,0.7817,-0.71078,1.16955,-2.354,-4.877)"
       r="20.936001"
       fy="2.9590001"
       fx="15.571"
       cy="2.9590001"
       cx="15.571"
       id="u"
       xlink:href="#m" />
    <linearGradient
       id="m">
      <stop
         offset="0"
         stop-color="#e4e4e4"
         id="stop23" />
      <stop
         offset="1"
         stop-color="#d3d3d3"
         id="stop25" />
    </linearGradient>
    <linearGradient
       gradientTransform="translate(0.795,-1.326)"
       y2="35.280998"
       x2="24.688"
       y1="35.280998"
       x1="7.0630002"
       gradientUnits="userSpaceOnUse"
       id="v"
       xlink:href="#f" />
    <linearGradient
       id="f">
      <stop
         offset="0"
         stop-color="#838383"
         id="stop8" />
      <stop
         offset="1"
         stop-color="#bbb"
         stop-opacity="0"
         id="stop10" />
    </linearGradient>
    <linearGradient
       gradientUnits="userSpaceOnUse"
       y2="33.758999"
       x2="12.222"
       y1="37.206001"
       x1="12.277"
       id="w"
       xlink:href="#d" />
    <linearGradient
       id="d">
      <stop
         offset="0"
         stop-color="#eee"
         id="stop18" />
      <stop
         offset="1"
         stop-color="#eee"
         stop-opacity="0"
         id="stop20" />
    </linearGradient>
    <linearGradient
       gradientUnits="userSpaceOnUse"
       y2="26.357"
       x2="23.688"
       y1="11.319"
       x1="23.688"
       id="x"
       xlink:href="#b" />
    <linearGradient
       id="b">
      <stop
         offset="0"
         stop-color="#fff"
         stop-opacity=".255"
         id="stop33" />
      <stop
         offset="1"
         stop-color="#fff"
         id="stop35" />
    </linearGradient>
    <linearGradient
       gradientUnits="userSpaceOnUse"
       y2="47.620998"
       x2="44.096001"
       y1="4.4330001"
       x1="12.378"
       id="y"
       xlink:href="#h" />
    <linearGradient
       xlink:href="#a"
       id="z"
       x1="33.431"
       y1="31.965"
       x2="21.747999"
       y2="11.781"
       gradientUnits="userSpaceOnUse" />
    <linearGradient
       id="a">
      <stop
         offset="0"
         stop-color="#fff"
         id="stop38" />
      <stop
         offset=".5"
         stop-color="#e6e6e6"
         id="stop40" />
      <stop
         offset=".75"
         stop-color="#fff"
         id="stop42" />
      <stop
         offset=".842"
         stop-color="#e1e1e1"
         id="stop44" />
      <stop
         offset="1"
         stop-color="#fff"
         id="stop46" />
    </linearGradient>
    <radialGradient
       xlink:href="#p"
       id="A-3"
       cx="22.570999"
       cy="30.857"
       fx="22.570999"
       fy="30.857"
       r="15.571"
       gradientTransform="matrix(1,0,0,0.65138,0,10.758)"
       gradientUnits="userSpaceOnUse" />
    <linearGradient
       xlink:href="#h"
       id="C-2"
       x1="9.5620003"
       y1="6.9530001"
       x2="14.767"
       y2="14.2"
       gradientUnits="userSpaceOnUse" />
    <radialGradient
       xlink:href="#o"
       id="D-6"
       cx="20.764"
       cy="19.541"
       fx="20.764"
       fy="19.541"
       r="14.8"
       gradientTransform="matrix(0.4494,-0.2165,0.56442,1.17162,-1.432,2.546)"
       gradientUnits="userSpaceOnUse" />
    <linearGradient
       xlink:href="#j"
       id="K-9"
       x1="10.615"
       y1="28.122999"
       x2="2.007"
       y2="27.235001"
       gradientUnits="userSpaceOnUse"
       gradientTransform="matrix(1.1767,0,0,1.1767,-0.82,-5.307)" />
    <linearGradient
       gradientTransform="matrix(0.62978346,0,0,0.66994386,45.461545,-103.08967)"
       gradientUnits="userSpaceOnUse"
       y2="61.474575"
       x2="-72.381348"
       y1="61.474575"
       x1="-390.66101"
       id="linearGradient899"
       xlink:href="#linearGradient2614" />
    <linearGradient
       id="linearGradient2614">
      <stop
         style="stop-color:#ed7200;stop-opacity:1"
         offset="0"
         id="stop2610" />
      <stop
         style="stop-color:#ff4dd9;stop-opacity:1"
         offset="1"
         id="stop2612" />
    </linearGradient>
    <linearGradient
       xlink:href="#linearGradient964"
       id="linearGradient1510"
       x1="-100.51582"
       y1="-83.754921"
       x2="-84.757294"
       y2="-61.466866"
       gradientUnits="userSpaceOnUse" />
  </defs>
  <metadata
     id="metadata13">
    <rdf:RDF>
      <cc:Work
         rdf:about="">
        <dc:format>image/svg+xml</dc:format>
        <dc:type
           rdf:resource="http://purl.org/dc/dcmitype/StillImage" />
        <dc:title></dc:title>
      </cc:Work>
    </rdf:RDF>
  </metadata>
  <g
     id="layer1"
     style="opacity:0.94;mix-blend-mode:soft-light">
    <g
       transform="matrix(1.62,0,0,1.62,-3.24e-6,17.369997)"
       id="g55"
       style="mix-blend-mode:luminosity">
      <rect
         y="-134.31018"
         x="-200.57033"
         height="144.81006"
         width="200.44728"
         id="rect891"
         style="opacity:1;mix-blend-mode:lighten;fill:url(#linearGradient1510);fill-opacity:1;stroke-width:0.649554"
         transform="scale(-1)" />
      <circle
         r="0"
         cy="61.5"
         cx="100"
         id="path149"
         style="opacity:1;fill:none;stroke:#808080;stroke-width:4.32099;stroke-miterlimit:4;stroke-dasharray:none;stroke-opacity:1;filter:url(#filter1042)" />
      <g
         transform="matrix(0.61728395,0,0,0.61728395,-123.45679,-10.530526)"
         id="g1076">
        <g
           id="g381"
           transform="matrix(0.90130828,0,0,1.2592926,-229.71762,-54.466817)">
          <g
             transform="matrix(3.5607119,0,0,2.8548053,571.22092,75.854916)"
             id="g155">
            <g
               color="#000000"
               id="g125">
              <path
                 style="fill:url(#q);marker:none"
                 overflow="visible"
                 opacity="0.402"
                 fill="url(#q)"
                 d="M -1559.252,-150.697 H -219.619 V 327.66 h -1339.633 z"
                 transform="matrix(0.02453,0,0,0.02087,45.69,36.154)"
                 id="path119" />
              <path
                 style="fill:url(#r);marker:none"
                 d="m -219.619,-150.68 v 478.33 c 142.874,0.9 345.4,-107.17 345.4,-239.196 0,-132.026 -159.436,-239.134 -345.4,-239.134 z"
                 overflow="visible"
                 opacity="0.402"
                 fill="url(#r)"
                 transform="matrix(0.02453,0,0,0.02087,45.69,36.154)"
                 id="path121" />
              <path
                 d="m -1559.252,-150.68 v 478.33 c -142.875,0.9 -345.4,-107.17 -345.4,-239.196 0,-132.026 159.436,-239.134 345.4,-239.134 z"
                 style="fill:url(#s);marker:none"
                 overflow="visible"
                 opacity="0.402"
                 fill="url(#s)"
                 transform="matrix(0.02453,0,0,0.02087,45.69,36.154)"
                 id="path123" />
            </g>
            <path
               d="m 11.286,7.963 c -0.625,0 -1.032,0.29 -1.282,0.843 L 3.536,25.91 c 0,0 -0.25,0.671 -0.25,1.781 v 9.65 c 0,1.083 0.657,1.625 1.656,1.625 h 38.562 c 0.985,0 1.594,-0.718 1.594,-1.844 v -9.65 c 0,0 0.106,-0.77 -0.094,-1.312 L 38.286,8.963 c -0.185,-0.512 -0.637,-0.988 -1.125,-1 z"
               fill="none"
               stroke="#535353"
               stroke-width="2"
               stroke-linecap="round"
               stroke-linejoin="round"
               id="path127" />
            <path
               d="m 3.274,26.997 0.764,-0.692 37.61,0.062 3.462,0.317 v 10.439 c 0,1.125 -0.607,1.843 -1.592,1.843 H 4.935 c -0.998,0 -1.661,-0.542 -1.661,-1.624 z"
               fill="url(#t)"
               fill-rule="evenodd"
               id="path129"
               style="fill:url(#t)" />
            <path
               d="m 3.55,25.914 c -0.715,1.465 -0.002,2.393 1.035,2.393 h 39 c 1.119,-0.024 1.845,-1.012 1.428,-2.143 L 38.3,8.954 c -0.184,-0.512 -0.655,-0.988 -1.143,-1 H 11.3 c -0.625,0 -1.036,0.303 -1.286,0.857 z"
               fill="url(#u)"
               fill-rule="evenodd"
               id="path131"
               style="fill:url(#u)" />
            <path
               style="fill:url(#v);marker:none"
               color="#000000"
               overflow="visible"
               fill="url(#v)"
               fill-rule="evenodd"
               d="m 7.858,31.174 h 17.625 v 5.563 H 7.858 Z"
               id="path133" />
            <path
               d="m 7.858,36.737 v -4.012 c 1.836,3.18 8.296,4.012 12.937,4.012 z"
               opacity="0.811"
               fill="url(#w)"
               fill-rule="evenodd"
               id="path135"
               style="fill:url(#w)" />
            <path
               d="m 44.796,25.629 c 0.064,1.25 -0.414,2.316 -1.322,2.343 H 5.355 c -1.289,0 -1.867,-0.325 -2.084,-0.868 0.092,0.945 0.826,1.65 2.084,1.65 h 38.119 c 1.076,-0.033 1.753,-1.424 1.352,-2.995 z"
               fill="#ffffff"
               fill-rule="evenodd"
               id="path137" />
            <path
               d="m 10.969,10.156 c -0.046,0.2 -0.188,0.387 -0.188,0.594 0,0.949 0.591,1.79 1.344,2.594 0.24,-0.154 0.365,-0.355 0.625,-0.5 -0.94,-0.816 -1.553,-1.717 -1.781,-2.688 z m 26.656,0 c -0.229,0.97 -0.842,1.873 -1.781,2.688 0.274,0.153 0.404,0.368 0.656,0.531 0.757,-0.807 1.313,-1.673 1.313,-2.625 0,-0.207 -0.142,-0.393 -0.188,-0.594 z m 2.188,8.438 c -0.614,4.04 -7.3,7.25 -15.532,7.25 -8.212,0 -14.86,-3.193 -15.5,-7.219 -0.032,0.197 -0.125,0.392 -0.125,0.594 0,4.318 6.99,7.844 15.625,7.843 8.636,0 15.656,-3.525 15.657,-7.843 0,-0.213 -0.09,-0.418 -0.126,-0.625 z"
               style="fill:url(#x);marker:none"
               color="#000000"
               overflow="visible"
               opacity="0.691"
               fill="url(#x)"
               fill-rule="evenodd"
               id="path139" />
            <ellipse
               ry="1.016"
               rx="1.37"
               cy="25.594"
               cx="7.204"
               transform="translate(0.088,0.177)"
               style="marker:none"
               color="#000000"
               overflow="visible"
               fill="#ffffff"
               fill-opacity="0.458"
               fill-rule="evenodd"
               id="ellipse141" />
            <ellipse
               ry="1.016"
               rx="1.37"
               cy="25.594"
               cx="7.204"
               style="marker:none"
               transform="translate(33.967,0.088)"
               color="#000000"
               overflow="visible"
               fill="#ffffff"
               fill-opacity="0.458"
               fill-rule="evenodd"
               id="ellipse143" />
            <path
               d="m 11.643,8.416 c -0.602,0 -0.993,0.28 -1.234,0.812 l -6.415,16.59 c 0,0 -0.24,0.647 -0.24,1.716 v 9.29 c 0,1.354 0.443,1.627 1.594,1.627 h 37.687 c 1.323,0 1.534,-0.317 1.534,-1.838 v -9.29 c 0,0 0.102,-0.742 -0.09,-1.264 L 37.886,9.253 C 37.708,8.761 37.335,8.427 36.866,8.416 Z"
               fill="none"
               stroke="url(#y)"
               stroke-linecap="round"
               stroke-linejoin="round"
               id="path145"
               style="stroke:url(#y)" />
            <path
               d="m 40.5,31.43 v 5.02 m -2,-4.961 v 5.02 m -2,-5.02 v 5.02 m -2,-5.02 v 5.02 m -2,-5.02 v 5.02 m -2,-5.02 v 5.02"
               fill="none"
               stroke="#ffffff"
               stroke-linecap="square"
               stroke-opacity="0.424"
               id="path147" />
            <path
               d="m 39.5,31.48 v 5.02 m -2,-4.961 v 5.02 m -2,-5.02 v 5.02 m -2,-5.02 v 5.02 m -2,-5.02 v 5.02"
               opacity="0.097"
               fill="none"
               stroke="#000000"
               stroke-linecap="square"
               id="path149-1" />
            <path
               d="m 7.875,31.188 v 5.53 H 20.438 L 8.218,36.375 Z"
               opacity="0.44"
               fill="#ffffff"
               fill-rule="evenodd"
               id="path151" />
            <ellipse
               ry="6.6880002"
               rx="14.875"
               cy="19.563"
               cx="25"
               style="fill:url(#z);marker:none"
               transform="matrix(1.03781,0,0,1.06075,-1.633,-2.095)"
               color="#000000"
               overflow="visible"
               opacity="0.206"
               fill="url(#z)"
               fill-rule="evenodd"
               id="ellipse153" />
          </g>
          <g
             transform="matrix(3.1848123,0,0,2.5534273,553.63994,72.609186)"
             id="g187">
            <ellipse
               ry="10.143"
               rx="15.571"
               cy="30.857"
               cx="22.570999"
               style="fill:url(#A-3);marker:none"
               transform="matrix(1.43578,0,0,0.8257,-5.05,13.432)"
               color="#000000"
               overflow="visible"
               opacity="0.474"
               fill="url(#A)"
               id="ellipse157" />
            <path
               d="m 6.916,1.778 c 1.73,-0.878 4.126,0.004 5.012,1.557 l 4.17,9.485 c 0.886,1.554 0.634,3.37 -0.566,4.07 -1.2,0.702 -2.878,0.016 -3.764,-1.538 L 5.85,6.996 C 4.964,5.442 5.22,2.639 6.916,1.778 Z"
               fill="url(#B)"
               fill-rule="evenodd"
               stroke="#8f5902"
               stroke-width="1.006"
               stroke-linecap="round"
               id="path159"
               style="fill:url(#B)" />
            <path
               d="m 7.446,2.736 c 1.422,-0.786 2.821,-0.193 3.696,1.34 l 4.448,10.086 -2.432,1.42 -6.296,-8.82 C 5.987,5.229 5.985,3.543 7.446,2.736 Z"
               opacity="0.423"
               fill="none"
               stroke="url(#C)"
               stroke-width="1.006"
               stroke-linecap="round"
               id="path161"
               style="stroke:url(#C-2)" />
            <path
               d="m 14.78,22.794 c -0.795,4.286 0.635,13.952 6.26,19.694 4.347,0.14 13.99,-3.418 20.531,-10.197 C 32.335,27.774 26.035,16.568 21.136,19.008 Z"
               fill="url(#D)"
               fill-rule="evenodd"
               stroke="#c4a000"
               id="path163"
               style="fill:url(#D-6)" />
            <path
               d="m 16.338,24.367 c 2.35,6.27 2.49,12.789 7.184,17.92"
               fill="none"
               stroke="url(#E)"
               stroke-linecap="round"
               id="path165"
               style="stroke:url(#E)" />
            <path
               d="m 15.919,23.414 c -0.912,0.508 -0.16,12.52 5.584,18 7.386,-0.186 15.524,-6.396 18.393,-8.837 -9.5,-5.984 -14.925,-14.762 -18.48,-12.574 z"
               opacity="0.462"
               fill="none"
               stroke="#ffffff"
               id="path167" />
            <path
               d="m 23.848,22.273 c 0.867,-0.749 5.75,6.088 14.999,12.382"
               fill="none"
               stroke="url(#F)"
               stroke-linecap="round"
               id="path169"
               style="stroke:url(#F)" />
            <path
               d="m 18.013,22.864 c 3.712,5.347 2.963,12.424 8.84,18.081"
               fill="none"
               stroke="url(#G)"
               stroke-linecap="round"
               id="path171"
               style="stroke:url(#G)" />
            <path
               d="m 22.984,22.776 c 0,0 8.176,13.071 11.182,15.104"
               fill="none"
               stroke="url(#H)"
               stroke-linecap="round"
               id="path173"
               style="stroke:url(#H)" />
            <path
               d="m 19.3,22.2 c 3.447,2.918 8.703,14.164 11.31,17.478"
               fill="none"
               stroke="url(#I)"
               stroke-linecap="round"
               id="path175"
               style="stroke:url(#I)" />
            <path
               d="m 8.509,18.062 11.462,-6.559 c 0.598,2.383 -0.342,3.24 1.796,7.148 l -7.91,4.526 C 12.403,19.7 10.291,19.767 8.509,18.062 Z"
               fill="url(#J)"
               fill-rule="evenodd"
               stroke="#c4a000"
               stroke-width="1.01"
               stroke-linecap="round"
               stroke-linejoin="round"
               id="path177"
               style="fill:url(#J)" />
            <path
               d="m 14.043,21.246 c -0.814,-1.422 -2.562,-2.237 -3.679,-3.128 l 8.758,-4.933 c -0.02,1.48 0.566,3.088 0.875,4.518 z"
               opacity="0.247"
               fill="none"
               stroke="#ffffff"
               id="path179" />
            <rect
               width="13.015"
               height="3.46"
               x="-1.413"
               y="24.174999"
               rx="1"
               ry="1"
               transform="rotate(-30)"
               fill="url(#K)"
               fill-rule="evenodd"
               stroke="#690000"
               stroke-linecap="round"
               id="rect181"
               style="fill:url(#K-9)" />
            <circle
               r="2.1470001"
               cy="4.0840001"
               cx="-19.319"
               transform="matrix(0.58355443,0.15636294,-0.15636294,0.58355443,20.457628,5.1588858)"
               fill="#ffffff"
               fill-rule="evenodd"
               stroke="#8f5902"
               stroke-width="1.655"
               stroke-linecap="round"
               stroke-linejoin="round"
               id="circle183" />
            <path
               d="m 27.735,40.555 c 0,0 1.506,-0.5 2.176,-0.942 -1.238,-1.944 -3.403,-5.895 -5.403,-8.875 1.193,6.54 3.227,9.817 3.227,9.817 z m 3.407,-1.497 2.026,-1.085 C 31.223,36.117 25.699,27.857 25.699,27.857 Z m 4.517,-2.67 2.436,-1.744 c -3.182,-1.326 -11.587,-9.88 -11.587,-9.88 2.383,3.012 6.768,8.612 9.15,11.624 z m 3.495,-2.471 1.692,-1.41 C 37.531,31.005 28.35,22.596 28.35,22.596 c 0,0 6.075,9.2 10.804,11.321 z m -14.778,7.655 c 0,0 1.197,-0.28 2.044,-0.456 -1.459,-1.237 -3.801,-4.437 -5.094,-8.61 0.53,6.894 3.05,9.066 3.05,9.066 z m -3.006,0.398 1.249,-0.014 c -2.298,-2.52 -3.138,-5.366 -4.431,-9.406 -0.133,4.684 3.183,9.42 3.183,9.42 z"
               opacity="0.317"
               fill="#ffffff"
               fill-rule="evenodd"
               id="path185" />
          </g>
        </g>
      </g>
    </g>
  </g>
</svg>
