<svg xmlns="http://www.w3.org/2000/svg" xmlns:xlink="http://www.w3.org/1999/xlink" xml:space="preserve" width="324" height="234"><defs><linearGradient id="a"><stop offset="0" stop-color="#1abc9f"/><stop offset=".65" stop-color="#1abc9f"/><stop offset=".65" stop-color="#16a08f"/><stop offset="1" stop-color="#16a08f"/></linearGradient><linearGradient xlink:href="#a" id="b" x1="327.8453" x2="563.6143" y1="587.4394" y2="587.4394" gradientUnits="userSpaceOnUse"/><linearGradient xlink:href="#a" id="d" x1="347.591" x2="563.5714" y1="510.9336" y2="510.9336" gradientTransform="matrix(1.96 0 0 2.344 -620.5552 -467.2338)" gradientUnits="userSpaceOnUse"/><linearGradient xlink:href="#a" id="c" x1="331.4286" x2="563.5714" y1="415.8443" y2="415.8443" gradientUnits="userSpaceOnUse"/></defs><path fill="#e6e6e6" d="M0 0h324v234H0z"/><ellipse cx="445.7298" cy="587.43939" fill="url(#b)" rx="117.8845" ry="36.533901" transform="matrix(.44875 0 0 .44 -38.020925 -89.485939)"/><ellipse cx="447.5" cy="415.8443" fill="url(#c)" rx="116.0714" ry="6.3393002" transform="matrix(.45575 0 0 1.336 -41.96785 -498.16099)"/><path fill="none" stroke="#16a08f" stroke-width="13.404575" d="M173.9301 86.862886c-.10425-.27615 73.470875-38.18225 67.7903 18.8274-5.389125 54.084475-78.75675 42.120425-78.75675 42.120425"/><path fill="url(#d)" d="M60.5876 507.6504h423.2373v445.3308H60.5876Z" transform="matrix(.25 0 0 .25 93.9484 -69.571339)"/><path fill="#ece9b7" stroke="#fff" stroke-linecap="round" stroke-linejoin="round" stroke-width="4.063775" d="M134.769425 89.281936h21.878325v36.203125h-21.878325z"/><path fill="none" stroke="#fff" stroke-width="2.7061" d="m146.4088 49.237711.21965 38.033875"/></svg>