<?xml version="1.0" encoding="UTF-8"?>
<svg xmlns="http://www.w3.org/2000/svg" xmlns:xlink="http://www.w3.org/1999/xlink" width="324px" height="234px" viewBox="0 0 324 234" version="1.1">
<defs>
<linearGradient id="linear0" gradientUnits="userSpaceOnUse" x1="-1.455352" y1="64.761543" x2="181.728165" y2="64.761543" gradientTransform="matrix(1.8,0,0,2.057148,0,-139.320003)">
<stop offset="0" style="stop-color:rgb(9.803922%,48.627451%,94.509804%);stop-opacity:1;"/>
<stop offset="1" style="stop-color:rgb(1.960784%,62.7451%,92.156863%);stop-opacity:1;"/>
</linearGradient>
<linearGradient id="linear1" gradientUnits="userSpaceOnUse" x1="288.111572" y1="141.784515" x2="287.57547" y2="79.007812" gradientTransform="matrix(1.154913,0,0,1.113528,-166.949797,36.374957)">
<stop offset="0" style="stop-color:rgb(0%,0%,0%);stop-opacity:0.046875;"/>
<stop offset="1" style="stop-color:rgb(0%,0%,0%);stop-opacity:0;"/>
</linearGradient>
</defs>
<g id="surface1">
<rect x="0" y="0" width="324" height="234" style="fill:url(#linear0);stroke:none;"/>
<path style="fill:none;stroke-width:1.021703;stroke-linecap:butt;stroke-linejoin:miter;stroke:rgb(100%,100%,100%);stroke-opacity:1;stroke-miterlimit:4;" d="M -0.94401 -1.082899 L 181.217448 -1.082899 L 181.217448 130.605469 L -0.94401 130.605469 Z M -0.94401 -1.082899 " transform="matrix(1.8,0,0,1.8,0,0)"/>
<path style=" stroke:none;fill-rule:nonzero;fill:url(#linear1);" d="M 82.578125 125.175781 L 82.578125 131.289062 C 82.578125 166.382812 103.804688 194.636719 147.757812 194.636719 L 174.105469 194.636719 C 231.632812 194.636719 241.910156 153.132812 241.910156 131.289062 L 241.910156 125.175781 C 241.910156 147.019531 231.632812 188.519531 174.105469 188.519531 L 147.757812 188.519531 C 103.804688 188.519531 82.578125 160.265625 82.578125 125.175781 Z M 82.578125 125.175781 "/>
<path style="fill-rule:nonzero;fill:rgb(94.901961%,94.901961%,94.901961%);fill-opacity:1;stroke-width:0.33418;stroke-linecap:square;stroke-linejoin:bevel;stroke:rgb(0%,0%,0%);stroke-opacity:0.078125;stroke-miterlimit:4;" d="M 19.362893 2.74183 L 27.857572 2.74183 C 41.765334 2.74183 44.661971 13.989546 44.661971 20.024776 L 44.661971 27.147051 C 44.661971 33.106614 41.958512 44.429997 26.825921 44.429997 L 19.896187 44.429997 C 8.333272 44.429997 2.749616 36.72157 2.749616 27.147051 L 2.749616 20.024776 C 2.749616 10.450256 8.220242 2.74183 19.362893 2.74183 Z M 19.362893 2.74183 " transform="matrix(3.801553,0,0,3.665327,72.125315,29.067482)"/>
<path style="fill-rule:nonzero;fill:rgb(0%,69.803923%,87.058824%);fill-opacity:1;stroke-width:0.309355;stroke-linecap:square;stroke-linejoin:bevel;stroke:rgb(0%,0%,0%);stroke-opacity:0.078125;stroke-miterlimit:4;" d="M 19.742055 4.319111 L 27.585273 4.319111 C 40.426449 4.319111 43.100109 14.757938 43.100109 20.359415 L 43.100109 26.970139 C 43.100109 32.502345 40.604213 43.010444 26.632743 43.010444 L 20.234247 43.010444 C 9.5581 43.010444 4.402929 35.857263 4.402929 26.970139 L 4.402929 20.359415 C 4.402929 11.473357 9.453291 4.319111 19.742055 4.319111 Z M 19.742055 4.319111 " transform="matrix(3.801553,0,0,3.665327,72.125315,29.067482)"/>
<path style=" stroke:none;fill-rule:nonzero;fill:rgb(19.607843%,78.823531%,90.980393%);fill-opacity:1;" d="M 151.121094 44.226562 C 139.421875 44.226562 128.289062 46.414062 118.179688 50.753906 C 113.839844 60.867188 111.421875 72.234375 111.421875 83.941406 C 111.421875 130.152344 148.871094 167.617188 195.066406 167.617188 C 206.769531 167.617188 217.453125 164.929688 227.566406 160.59375 C 233.542969 151.203125 236.066406 139.671875 236.066406 127.96875 C 236.066406 116.414062 236.664062 104.089844 235.234375 92.695312 C 233.886719 81.960938 226.722656 66.683594 219.152344 59.113281 C 211.585938 51.542969 201.410156 48.117188 191.402344 45.925781 C 180.746094 43.589844 162.671875 44.226562 151.121094 44.226562 Z M 151.121094 44.226562 "/>
</g>
</svg>
