<svg xmlns="http://www.w3.org/2000/svg" xmlns:xlink="http://www.w3.org/1999/xlink" width="324" height="234" viewBox="0 0 324 234"><defs><linearGradient id="a" x1="24.392" x2="20.643" y1="41.22" y2="25.343" gradientUnits="userSpaceOnUse"><stop stop-color="#334545"/><stop offset="1" stop-color="#536161"/></linearGradient><linearGradient xlink:href="#a" id="b" x1="0" x2="324" y1="117" y2="117" gradientTransform="scale(1.002 1.003)" gradientUnits="userSpaceOnUse"/></defs><path fill="url(#b)" fill-rule="evenodd" d="M0 0v234.7143h324.7143V0Z" paint-order="markers fill stroke"/><g opacity=".12"><path fill="#fff" d="m17.77 25.295-6.524-5.02-1.414.754v11.555l1.414.754 6.523-5.02 10.914 10.55 4.961-2.01v-20.1l-4.961-2.01s-7.282 7.03-10.914 10.55zm10.914 6.03-5.953-4.522 5.953-4.522zM12.809 24.04l2.977 2.763-2.977 2.763z" color="#000" opacity="1" style="white-space:normal;isolation:auto;mix-blend-mode:normal;solid-color:#000;solid-opacity:1" transform="matrix(6.078 0 0 5.095 32.8629 -17.114)"/></g><path fill="#20b6bc" d="m134.8567 106.7246-39.6682-25.594-8.5976 3.8441v58.9124l8.5976 3.8442 39.6621-25.5941 66.361 53.7884 30.1646-10.2478V63.1994l-30.1646-10.2479s-44.2771 35.842-66.361 53.7884zm66.361 30.7436-36.1964-23.0551 36.1964-23.0552zm-96.5256-37.142 18.1012 14.0869L104.6921 128.5Z" color="#000" style="white-space:normal;isolation:auto;mix-blend-mode:normal;solid-color:#000;solid-opacity:1"/></svg>