<svg xmlns="http://www.w3.org/2000/svg" xmlns:xlink="http://www.w3.org/1999/xlink" xml:space="preserve" width="324" height="234"><defs><linearGradient id="a" x1="24.392" x2="20.643" y1="41.22" y2="25.343" gradientUnits="userSpaceOnUse"><stop offset="0" stop-color="#73b5f0"/><stop offset="1" stop-color="#ccf3f3"/></linearGradient><linearGradient xlink:href="#a" id="b" x1="0" x2="324" y1="117" y2="117" gradientUnits="userSpaceOnUse"/><linearGradient id="e" x1="218.186" x2="815.12" y1="188.499" y2="779.581" gradientTransform="scale(.97 1.03)" gradientUnits="userSpaceOnUse"><stop offset="0%" stop-color="#56CCF2"/><stop offset="100%" stop-color="#2F80ED"/></linearGradient><filter id="d" width="1.026" height="1.031" x="-.013" y="-.013" filterUnits="objectBoundingBox"><feMorphology in="SourceAlpha" operator="dilate" radius=".5" result="shadowSpreadOuter1"/><feOffset dy="5" in="shadowSpreadOuter1" result="shadowOffsetOuter1"/><feGaussianBlur in="shadowOffsetOuter1" result="shadowBlurOuter1" stdDeviation="5"/><feColorMatrix in="shadowBlurOuter1" values="0 0 0 0 0 0 0 0 0 0 0 0 0 0 0 0 0 0 0.35 0"/></filter><circle id="c" cx="512" cy="512" r="465"/></defs><path fill="url(#b)" fill-rule="evenodd" d="M0 0v234h324V0Z" paint-order="markers fill stroke"/><g fill="none" fill-rule="evenodd"><g transform="matrix(.13 0 0 .13 95.397 50.072)"><use xlink:href="#c" fill="#000" filter="url(#d)"/><use xlink:href="#c" fill="#fff"/></g><path fill="url(#e)" fill-rule="nonzero" d="M599.252 204.99c4.174-6.583 11.646-10.963 19.488-10.99 10.99-.027 21.445 6.145 27.81 14.931 5.993 8.403 7.84 19.023 7.855 29.164-.096 14.26-3.38 28.274-7.295 41.919-9.785 32.202-23.074 63.213-32.996 95.374-10.934 36.5-16.176 77.173-1.491 113.413 7.677-21.432 15.273-42.905 22.923-64.364 2.176-5.665 5.036-12.111 11.113-14.438 8.457-3.01 17.08 5.817 16.833 13.987-2.313 11.906-6.802 23.252-10.333 34.83-28.616 86.027-60.668 170.864-91.529 256.111 41.043-37.526 82.21-74.915 123.307-112.372 11.824-10.77 24.648-22.5 28.274-38.771 3.613-15.971-3.106-31.82-10.73-45.532-8.799-16.368-20.035-31.928-24.168-50.35-2.08-9.538-1.45-20.514 4.982-28.328 4.64-5.885 13.083-8.923 20.213-6.05 7.035 2.683 11.277 9.444 14.603 15.821 11.167 22.403 18.133 46.887 20.528 71.808 7.623-15.382 15.342-30.71 22.978-46.079 4.612-9.06 8.69-18.777 16.177-25.934 4.516-4.462 11.099-7.267 17.476-5.817 7.992 1.766 13.603 9.033 15.752 16.587 2.436 8.02-.137 16.368-2.723 23.991-7.705 21.309-19.803 40.592-31.463 59.888-16.259 25.551-33.53 50.486-52.375 74.203 10.77-7.198 22.116-14.767 35.309-16.272 12.48-1.67 26.276 5.639 30.409 17.819 2.764 8.293-1.71 17.681-9.224 21.732-11.017 6.145-24.06 6.063-36.308 6.61-44.437 1.218-87.752 23.102-115.328 57.931-21.76 27.782-32.873 62.297-54.961 89.846-13.932 16.792-33.61 37.87-55.262 33.215-28.836-6.2-28.836-51.266-36.02-73.601-3.71-11.263-10.662-21.555-20.31-28.575-8.43-6.227-18.53-9.8-28.74-11.756-23.43-4.503-47.598-2.122-70.973-6.953-11.701-2.38-23.225-7.075-32.161-15.163-8.513-7.473-14.397-17.477-18.476-27.946-8.813-22.8-10.606-47.544-18.434-70.631-11.332-33.242-33.749-62.625-62.954-82.14-6.158-4.161-12.85-8.212-16.833-14.7-3.243-5.063-2.956-12.261 1.287-16.682 7.157-7.787 20.09-8.43 28.356-1.984 16.943 12.016 19.392 35.363 35.186 48.433.027-21.569-.083-43.123-.124-64.678.055-6.227-.643-12.933 2.477-18.599 2.833-5.364 10.675-6.815 15.233-2.792 6.158 5.16 8.033 13.577 8.909 21.2 3.065 29.71 6.021 59.436 9.1 89.16 15.48-13.904 22.596-36.471 17.587-56.712-1.52-6.46-3.983-13.111-2.587-19.817 1.136-5.625 7.103-9.58 12.728-8.58 6.322.861 10.839 6.28 13.206 11.851 3.777 9.224 3.791 19.502 3.025 29.3-2.245 22.322-11.688 42.932-18.202 64.172-6.35 18.75-10.716 39.579-4.352 58.944 5.666 18.106 20.036 32.421 36.896 40.537 20.816 10.223 44.26 13.398 67.196 14.301-13.945-24.401-29.109-50.226-28.849-79.253.274-29.232 18.859-53.853 23.881-82.059 8.554-46.804-12.563-97.673-51.882-124.524-17.462-12.003-38.429-17.34-56.37-28.466-16.231-9.936-30.807-27.618-28.261-47.75 12.33-4.776 26.098-1.724 37.225 4.681 21.746 11.605 35.582 33.612 57.438 45.04 7.678 4.187 16.477 6.254 25.222 5.72 4.736-11.345 0-24.06-7.636-32.9-14.37-17.312-38.62-21.514-53.647-38.06-7.528-8.635-11.729-20.98-8.568-32.27 2.573-8.923 11.811-15 21.008-14.33 13.617.85 25.345 9.376 34.651 18.764 30.807 30.792 48.53 72.67 55.482 115.232 8.211 50.199 1.834 101.41-8.28 150.842-1.889 10.073-5.42 20.406-2.806 30.683 1.123 4.763 4.558 9.676 9.827 10.1 7.253.466 13.247-4.475 18.53-8.8 16.518-13.493 29.643-31.654 35.062-52.456 4.23-15.164 4.352-31.04 4.051-46.654.082-7.815-.492-16.437 4.174-23.197 3.34-5.228 9.566-9.334 15.971-7.815 5.023.958 8.581 5.31 10.114 9.977 2.463 7.678 2.094 15.971.602 23.813-4.721 21.623-8.991 43.534-17.545 64.062-6.035 14.74-14.192 28.753-25.236 40.304-12.18 12.905-27.22 23.252-37.033 38.292-6.692 10.278-11.017 23.047-8.116 35.323 2.122 9.798 9.58 17.79 18.572 21.869 13.097 5.98 29 5.68 41.768-1.054 10.127-5.474 17.326-14.944 23.06-24.675 10.1-17.504 16.218-36.937 21.295-56.398 7.814-31.422 12.413-63.638 14.22-95.963 2.066-34.529-4.202-70.234-21.61-100.397-9.252-16.15-22.335-29.903-37.622-40.427-13.768-10.237-28.904-19.105-40.071-32.367-10.442-12.29-17.682-28.876-13.877-45.19 7.144-4.488 16.162-5.268 24.073-2.463 14.93 5.077 26.618 17.066 34.159 30.628 10.237 15.985 18.776 35.008 36.814 43.685-14.671-28.863-29.807-57.48-44.656-86.247-4.831-9.716-9.594-20.336-8.335-31.449.917-8.471 8.787-15.424 17.285-15.383 7.541.028 14.616 4.27 19.105 10.182 5.132 6.652 7.582 14.85 9.895 22.814 11.838 41.194 23.662 82.374 35.541 123.553 14.931-28.438 21.24-61.393 16.998-93.308-1.861-16.915-6.83-33.256-10.77-49.76-2.683-10.798-1.876-22.91 4.283-32.421z" transform="matrix(.13 0 0 .13 95.397 50.072)"/></g></svg>