<svg xmlns="http://www.w3.org/2000/svg" xmlns:xlink="http://www.w3.org/1999/xlink" width="324" height="234"><defs><radialGradient xlink:href="#a" id="b" cx="162.357" cy="117.357" r="162.357" fx="162.357" fy="117.357" gradientTransform="matrix(.9978 0 0 .71781 0 32.428)" gradientUnits="userSpaceOnUse"/><linearGradient id="a" x1="42.799" x2="11.999" y1="5.342" y2="31.357" gradientUnits="userSpaceOnUse"><stop stop-color="#4ce0c6"/><stop offset="1" stop-color="#3b85b5"/></linearGradient></defs><path fill="url(#b)" fill-rule="evenodd" d="M0 0v234h324V0Z" paint-order="markers fill stroke" style="fill:url(#b);stroke-width:.99738"/><path fill="#094e9b" d="M197.517 102.831h19.304c-4.976 28.437-18.306 50.192-53.776 54.235v-19.994c21-.955 31.853-13.069 34.472-34.242z"/><ellipse cx="126.042" cy="103.618" fill="#649ed2" rx="30.1" ry="30" transform="matrix(.65 0 0 .65 81.463 34.789)"/><path fill="#094e9b" d="M126.736 101.452h-19.304c4.976-28.438 18.305-50.193 53.775-54.236V67.21c-20.999.955-31.853 13.069-34.471 34.242Z"/><text xml:space="preserve" x="41.719" y="234.787" fill="#094e9b" font-family="serif" font-size="40" font-weight="400" letter-spacing="0" style="line-height:1.25;-inkscape-font-specification:serif" transform="matrix(.65 0 0 .65 81.463 34.789)" word-spacing="0"><tspan x="41.719" y="234.787">C E R E S</tspan></text><text xml:space="preserve" x="127.986" y="92.658" fill="#094e9b" font-family="serif" font-size="40" font-weight="400" letter-spacing="0" style="line-height:1.25;-inkscape-font-specification:serif" transform="matrix(.65 0 0 .65 81.463 34.789)" word-spacing="0"><tspan x="127.986" y="92.658" font-family="Symbol" font-size="74.667" style="-inkscape-font-specification:Symbol">M</tspan></text></svg>