<?xml version="1.0" encoding="UTF-8"?>
<svg xmlns="http://www.w3.org/2000/svg" xmlns:xlink="http://www.w3.org/1999/xlink" width="324px" height="234px" viewBox="0 0 324 234" version="1.1">
<defs>
<radialGradient id="radial0" gradientUnits="userSpaceOnUse" cx="90.136406" cy="64.761543" fx="90.136406" fy="64.761543" r="91.591759" gradientTransform="matrix(1.8,0,0,1.304046,0,32.11876)">
<stop offset="0" style="stop-color:rgb(80.000001%,80.000001%,80.000001%);stop-opacity:1;"/>
<stop offset="1" style="stop-color:rgb(60.000002%,65.490198%,65.882355%);stop-opacity:1;"/>
</radialGradient>
</defs>
<g id="surface1">
<rect x="0" y="0" width="324" height="234" style="fill:url(#radial0);stroke:none;"/>
<path style="fill:none;stroke-width:1.021703;stroke-linecap:butt;stroke-linejoin:miter;stroke:rgb(100%,100%,100%);stroke-opacity:1;stroke-miterlimit:4;" d="M -0.94401 -1.082899 L 181.217448 -1.082899 L 181.217448 130.605469 L -0.94401 130.605469 Z M -0.94401 -1.082899 " transform="matrix(1.8,0,0,1.8,0,0)"/>
<path style=" stroke:none;fill-rule:nonzero;fill:rgb(0%,0%,0%);fill-opacity:1;" d="M 208.210938 62.074219 L 195.613281 106.929688 L 183.019531 62.070312 C 182.414062 59.914062 180.714844 58.460938 178.800781 58.460938 L 144.449219 58.460938 C 141.992188 58.460938 140 60.828125 140 63.742188 L 140 169.398438 C 140 172.3125 141.992188 174.679688 144.449219 174.679688 L 166.695312 174.679688 C 169.152344 174.679688 171.144531 172.3125 171.144531 169.398438 L 171.144531 134.128906 L 181.515625 171.066406 C 182.121094 173.226562 183.820312 174.679688 185.734375 174.679688 L 205.496094 174.679688 C 207.410156 174.679688 209.113281 173.226562 209.71875 171.066406 L 220.085938 134.136719 L 220.085938 169.398438 C 220.085938 172.3125 222.078125 174.679688 224.535156 174.679688 L 246.78125 174.679688 C 249.234375 174.679688 251.230469 172.3125 251.230469 169.398438 L 251.230469 63.742188 C 251.230469 60.828125 249.234375 58.460938 246.78125 58.460938 L 212.429688 58.460938 C 210.515625 58.460938 208.816406 59.914062 208.210938 62.074219 Z M 208.210938 62.074219 "/>
<path style=" stroke:none;fill-rule:nonzero;fill:rgb(0%,0%,0%);fill-opacity:1;" d="M 104.40625 142.984375 L 104.40625 90.15625 L 126.652344 90.15625 C 129.109375 90.15625 131.101562 87.789062 131.101562 84.875 L 131.101562 63.742188 C 131.101562 60.828125 129.109375 58.460938 126.652344 58.460938 L 91.058594 58.460938 C 81.230469 58.460938 73.261719 67.921875 73.261719 79.59375 L 73.261719 153.550781 C 73.261719 165.21875 81.230469 174.679688 91.058594 174.679688 L 126.652344 174.679688 C 129.109375 174.679688 131.101562 172.3125 131.101562 169.398438 L 131.101562 148.265625 C 131.101562 145.351562 129.109375 142.984375 126.652344 142.984375 Z M 104.40625 142.984375 "/>
<path style=" stroke:none;fill-rule:nonzero;fill:rgb(89.803922%,33.725491%,30.980393%);fill-opacity:1;" d="M 113.304688 153.550781 L 122.203125 153.550781 L 122.203125 164.113281 L 113.304688 164.113281 Z M 113.304688 153.550781 "/>
<path style=" stroke:none;fill-rule:nonzero;fill:rgb(89.803922%,33.725491%,30.980393%);fill-opacity:1;" d="M 91.058594 164.113281 C 86.152344 164.113281 82.160156 159.375 82.160156 153.550781 L 82.160156 79.59375 C 82.160156 73.765625 86.152344 69.027344 91.058594 69.027344 L 104.40625 69.027344 L 104.40625 79.59375 L 95.507812 79.59375 L 95.507812 153.550781 L 104.40625 153.550781 L 104.40625 164.113281 Z M 91.058594 164.113281 "/>
<path style=" stroke:none;fill-rule:nonzero;fill:rgb(89.803922%,33.725491%,30.980393%);fill-opacity:1;" d="M 113.304688 69.027344 L 122.203125 69.027344 L 122.203125 79.59375 L 113.304688 79.59375 Z M 113.304688 69.027344 "/>
<path style=" stroke:none;fill-rule:nonzero;fill:rgb(89.803922%,33.725491%,30.980393%);fill-opacity:1;" d="M 242.332031 164.113281 L 242.332031 69.027344 L 238.363281 69.027344 L 228.984375 102.441406 L 228.984375 164.113281 Z M 242.332031 164.113281 "/>
<path style=" stroke:none;fill-rule:nonzero;fill:rgb(89.803922%,33.725491%,30.980393%);fill-opacity:1;" d="M 162.246094 102.441406 L 152.867188 69.027344 L 148.898438 69.027344 L 148.898438 164.113281 L 162.246094 164.113281 Z M 162.246094 102.441406 "/>
<path style=" stroke:none;fill-rule:nonzero;fill:rgb(89.803922%,33.725491%,30.980393%);fill-opacity:1;" d="M 202.289062 164.113281 L 175.59375 69.027344 L 162.246094 69.027344 L 188.941406 164.113281 Z M 202.289062 164.113281 "/>
<path style=" stroke:none;fill-rule:nonzero;fill:rgb(89.803922%,33.725491%,30.980393%);fill-opacity:1;" d="M 206.976562 147.410156 L 228.984375 69.027344 L 215.636719 69.027344 L 200.304688 123.640625 Z M 206.976562 147.410156 "/>
</g>
</svg>
