<svg xmlns="http://www.w3.org/2000/svg" xmlns:xlink="http://www.w3.org/1999/xlink" width="324" height="234"><defs><radialGradient xlink:href="#b" id="i" cx="152.9075" cy="123.4234" r="29.9795" fx="152.9075" fy="123.4234" gradientTransform="matrix(1.174 -.13 .1393 1.2582 -69.1422 71.3836)" gradientUnits="userSpaceOnUse"/><radialGradient xlink:href="#d" id="j" cx="153.5887" cy="288.0409" r="12.5601" fx="153.5887" fy="288.0409" gradientTransform="matrix(2.323 3.1668 -1.8716 1.373 330.4144 -609.1567)" gradientUnits="userSpaceOnUse"/><radialGradient xlink:href="#b" id="k" cx="152.9075" cy="123.4234" r="29.9795" fx="152.9075" fy="123.4234" gradientTransform="matrix(-1.174 -.13 -.1393 1.2582 393.359 71.4713)" gradientUnits="userSpaceOnUse"/><radialGradient xlink:href="#c" id="l" cx="156.436" cy="280.9922" r="11.0601" fx="156.436" fy="280.9922" gradientTransform="matrix(1 0 0 2.3212 0 -398.6746)" gradientUnits="userSpaceOnUse"/><radialGradient xlink:href="#e" id="g" cx="235.201" cy="152.7232" r="162" fx="235.201" fy="152.7232" gradientTransform="matrix(.0173 -1.5572 1 .0111 4.3885 429.4132)" gradientUnits="userSpaceOnUse"/><radialGradient xlink:href="#f" id="m" cx="162" cy="208.7314" r="162" fx="162" fy="208.7314" gradientTransform="matrix(1 0 0 .577 0 -26.9608)" gradientUnits="userSpaceOnUse"/><linearGradient id="f"><stop offset="0" stop-color="#f3a6c7"/><stop offset=".7961" stop-color="#e9679f"/><stop offset="1" stop-color="#e64e8f"/></linearGradient><linearGradient id="e"><stop offset="0" stop-color="#8fb1d6"/><stop offset=".677" stop-color="#4c82bd"/><stop offset="1" stop-color="#376394"/></linearGradient><linearGradient id="d"><stop offset="0" stop-color="#fff285"/><stop offset="1" stop-color="#dd9500"/></linearGradient><linearGradient id="c"><stop offset="0" stop-color="#fff285"/><stop offset="1" stop-color="#ffe408"/></linearGradient><linearGradient id="b"><stop offset="0" stop-color="#fff"/><stop offset=".7328" stop-color="#fff"/><stop offset=".8864" stop-color="#fff"/><stop offset="1" stop-color="#e4e4e4"/></linearGradient><filter id="a" width="100%" height="100%" x="0%" y="0%" filterUnits="objectBoundingBox"><feColorMatrix in="SourceGraphic" values="0 0 0 0 1 0 0 0 0 1 0 0 0 0 1 0 0 0 1 0"/></filter><filter id="h" width="1.287" height="1.2939" x="-.1435" y="-.1469" color-interpolation-filters="sRGB"><feGaussianBlur stdDeviation="7.1533"/></filter></defs><path fill="url(#g)" d="M0 74.2188V234h324V74.2187c-13.4997 2.4056-27 4.8112-40.5 7.0665-13.5 2.2552-27 4.3598-40.5 6.164-6.75.9021-13.5 1.73-20.25 2.463-6.75.7329-13.5 1.3721-20.25 1.8983-6.75.5263-13.5.9388-20.25 1.2207-6.75.282-13.5.4317-20.25.4317s-13.5-.1498-20.25-.4317c-6.75-.2818-13.5-.6944-20.25-1.2207-6.75-.5262-13.5-1.1654-20.25-1.8984-6.75-.733-13.5-1.5608-20.25-2.4629-13.5-1.8042-26.9999-3.9088-40.5-6.164-13.5001-2.2553-26.9998-4.6608-40.5-7.0665z"/><path fill="#314965" fill-rule="evenodd" d="M134.6338 22.3319a32.2098 38.1646 0 0 0-32.1309 36.3418 32.2098 38.1646 0 0 0-.078 1.8203 32.2098 38.1646 0 0 0 32.2089 38.166 32.2098 38.1646 0 0 0 2.7012-.168c-.2467 2.114.2178 4.678 2.0605 8.668 2.3503 5.0893 7.0106 12.6236 10.6797 17.9375 3.669 5.3138 6.3908 8.4753 8.3203 10.5313 1.9295 2.056 3.0684 3.0069 3.6758 3.3437.0145.008.0234.007.037.0137v.1738c.0208 0 .0439.002.0626-.004.073-.0132.1516-.0412.25-.0957.6074-.3368 1.7463-1.2877 3.6758-3.3437 1.9295-2.056 4.6512-5.2174 8.3203-10.5313 3.669-5.3138 8.3293-12.8482 10.6797-17.9375 1.8426-3.99 2.3071-6.554 2.0605-8.668a32.2098 38.1646 0 0 0 2.7012.168 32.2098 38.1646 0 0 0 32.209-38.166 32.2098 38.1646 0 0 0-.0781-1.8203 32.2098 38.1646 0 0 0-32.1309-36.3418 32.2098 38.1646 0 0 0-27.5879 18.5742 32.2098 38.1646 0 0 0-27.6367-18.662zm8.373 81.4492c1.583 3.0972 3.8195 6.834 5.998 10.209-.8713-1.3494-1.7536-2.7568-2.5976-4.1582-1.2664-2.1028-2.4509-4.1923-3.4004-6.0508zm37.455 2.0156c-.7259 1.3255-1.5326 2.7212-2.3769 4.123-.844 1.4015-1.7262 2.809-2.5976 4.1583 1.7428-2.7 3.522-5.6307 4.9746-8.2813zm-28.916 12.0059c3.231 4.6792 5.6272 7.463 7.3262 9.2734-.8495-.9052-1.8744-2.0533-3.0898-3.5605-1.2154-1.5072-2.6209-3.3733-4.2363-5.713zm21.4005.0879c-1.6155 2.3396-3.021 4.2057-4.2364 5.7129-1.2154 1.5072-2.2403 2.6553-3.0898 3.5605 1.699-1.8104 4.0953-4.5942 7.3262-9.2734z" filter="url(#h)" paint-order="markers fill stroke" transform="translate(-.2461 77.6718)"/><g fill="#69f" transform="translate(-.1084 -73.9612)"><path fill="url(#i)" fill-rule="evenodd" d="M134.496 173.9648a32.2098 38.1646 0 0 0-32.1308 36.3418 32.2098 38.1646 0 0 0-.078 1.8204 32.2098 38.1646 0 0 0 32.209 38.166 32.2098 38.1646 0 0 0 16.2597-5.2696 32.2098 38.1646 0 0 0 11.4902-13.6015V192.832a32.2098 38.1646 0 0 0-27.75-18.8672zm-3.416 70.0645a40.8713 37.399 0 0 0 3.959.9258 40.8713 37.399 0 0 1-3.959-.9258z" paint-order="markers fill stroke"/><circle cx="146.3826" cy="203.4008" r="10.718" fill="#102543" fill-rule="evenodd" paint-order="markers fill stroke"/><circle cx="143.5617" cy="200.5799" r="3.1412" fill="#fff" fill-rule="evenodd" paint-order="markers fill stroke"/><path fill="url(#j)" d="M140.4629 244.9316c-.6429.4577-1.4282.9664-1.8516 1.3848-.3843.7037-.8398 1.39-1.0703 2.1387-.7597 2.4682-.6335 5.2486 1.7168 10.3379 2.3503 5.0892 7.0106 12.6236 10.6797 17.9375 3.669 5.3138 6.3908 8.4752 8.3203 10.5312 1.9295 2.056 3.0684 3.007 3.6758 3.3438.0145.008.0234.007.037.0137v.1738c.0208 0 .0439.002.0626-.004.073-.0132.1516-.0412.25-.0957.6074-.3368 1.7463-1.2878 3.6758-3.3438 1.9295-2.056 4.6512-5.2174 8.3203-10.5312 3.669-5.3139 8.3293-12.8482 10.6797-17.9375 2.3503-5.0893 2.4765-7.8696 1.7168-10.3379-.2305-.7487-.686-1.435-1.0703-2.1387-.4234-.4183-1.2087-.927-1.8516-1.3847.2599.9857.4233 2.0016.2422 3.291-.2029 1.444-.7484 3.1772-1.7832 5.418-1.0349 2.2407-2.5772 5.0204-4.2657 7.8242-1.6885 2.8037-3.5232 5.631-5.1386 7.9707-1.6155 2.3396-3.021 4.2057-4.2364 5.7129-1.2154 1.5071-2.2403 2.6553-3.0898 3.5605-1.699 1.8105-2.7014 2.6487-3.2363 2.9453-.0182 0-.0382.001-.0547-.004-.0643-.0117-.1341-.036-.2207-.084-.5349-.2966-1.5373-1.1348-3.2364-2.9453-.8495-.9052-1.8744-2.0534-3.0898-3.5605-1.2154-1.5072-2.6209-3.3733-4.2363-5.713-1.6155-2.3396-3.4502-5.1669-5.1387-7.9706-1.6885-2.8038-3.2308-5.5835-4.2656-7.8243-1.0348-2.2407-1.5804-3.974-1.7832-5.418-.1812-1.2893-.0177-2.3052.2422-3.291z"/><path fill="url(#k)" fill-rule="evenodd" d="M189.7206 174.0525a32.2098 38.1646 0 0 1 32.1309 36.3418 32.2098 38.1646 0 0 1 .0781 1.8203 32.2098 38.1646 0 0 1-32.209 38.166 32.2098 38.1646 0 0 1-16.2597-5.2695 32.2098 38.1646 0 0 1-11.4903-13.6015v-38.5899a32.2098 38.1646 0 0 1 27.75-18.8672zm3.416 70.0645a40.8713 37.399 0 0 1-3.959.9258 40.8713 37.399 0 0 0 3.959-.9258z" paint-order="markers fill stroke"/><circle cx="177.8342" cy="203.4885" r="10.718" fill="#102543" fill-rule="evenodd" paint-order="markers fill stroke"/><circle cx="175.0134" cy="200.6676" r="3.1412" fill="#fff" fill-rule="evenodd" paint-order="markers fill stroke"/><path fill="url(#l)" d="M161.3594 230.3984c-.4399.0381-.8815.0687-1.3242.1563-.5874.116-1.177.3001-1.7754.625-1.1968.6497-2.425 1.8594-3.7715 2.8906-1.3465 1.0312-2.8136 1.887-4.707 3.039-1.8934 1.1522-4.2175 2.6048-5.6915 3.5587-1.435.9287-2.049 1.3862-2.6562 1.9863-.3384.6196-.7385 1.2235-.9414 1.8828-.669 2.1735-.558 4.622 1.5117 9.1035 2.0697 4.4815 6.1734 11.1157 9.4043 15.795 3.2309 4.6791 5.6271 7.463 7.3262 9.2734 1.699 1.8104 2.7014 2.6487 3.2363 2.9453v.1758c.0182 0 .0382.001.0547-.004.0643-.0117.1341-.036.2207-.084.5349-.2966 1.5373-1.1349 3.2363-2.9453 1.699-1.8105 4.0953-4.5943 7.3262-9.2735 3.2309-4.6792 7.3347-11.3134 9.4043-15.7949 2.0696-4.4815 2.1807-6.93 1.5117-9.1035-.203-.6593-.603-1.2632-.9414-1.8828-.6072-.6-1.2211-1.0576-2.6562-1.9864-1.474-.9538-3.798-2.4064-5.6914-3.5586-1.8935-1.152-3.3605-2.0079-4.707-3.039-1.3466-1.0312-2.5748-2.241-3.7716-2.8906-.5983-.325-1.188-.509-1.7753-.625-.4428-.0875-.8844-.1182-1.3243-.1563-.1883-.006-.4026.0003-.6113.004v-.0859c-.2815.01-.6136-.0142-.8867-.006z"/></g><path fill="url(#m)" d="M0 0v74.2188c13.5002 2.4056 26.9999 4.811 40.5 7.0664 13.5001 2.2552 27 4.3598 40.5 6.164 6.75.9021 13.5 1.73 20.25 2.463 6.75.7329 13.5 1.3721 20.25 1.8983 6.75.5263 13.5.9389 20.25 1.2207 6.75.282 13.5.4317 20.25.4317s13.5-.1497 20.25-.4317c6.75-.2819 13.5-.6944 20.25-1.2207 6.75-.5262 13.5-1.1654 20.25-1.8984 6.75-.733 13.5-1.5608 20.25-2.4629 13.5-1.8042 27-3.9088 40.5-6.164 13.5-2.2553 27.0003-4.6609 40.5-7.0665V0H0z"/><path fill="#e64e8f" fill-rule="evenodd" d="M170.373 10.9219a18.0995 16.0884 1.6885 0 0-18.291 13.2343 16.0884 18.0995 42.1136 0 0-14.9023 6.3926h-.002a16.0884 18.0995 42.1136 0 0-3.8359 19.0469 21.006 18.672 6.3952 0 0-19.3379 16.3242 21.006 18.672 6.3952 0 0 .0625 3.9942 20.9701 16.0467 6.3952 0 1 .6172-1.3496 20.9701 16.0467 6.3952 0 1 .8848-1.418 20.9701 16.0467 6.3952 0 1 1.0664-1.334 20.9701 16.0467 6.3952 0 1 1.2402-1.2383 20.9701 16.0467 6.3952 0 1 1.4063-1.127 20.9701 16.0467 6.3952 0 1 1.5468-1.0058 20.9701 16.0467 6.3952 0 1 1.6856-.875 20.9701 16.0467 6.3952 0 1 1.7988-.7383 20.9701 16.0467 6.3952 0 1 1.8926-.5918 20.9701 16.0467 6.3952 0 1 1.9746-.4394 20.9701 16.0467 6.3952 0 1 2.0312-.2813 20.9701 16.0467 6.3952 0 1 2.0743-.121 20.9701 16.0467 6.3952 0 1 2.0917.0429 20.9701 16.0467 6.3952 0 1 1.4766.123 20.9701 16.0467 6.3952 0 1 2.0703.3106 20.9701 16.0467 6.3952 0 1 2.0352.4707 20.9701 16.0467 6.3952 0 1 1.9707.621 20.9701 16.0467 6.3952 0 1 1.8965.7677 20.9701 16.0467 6.3952 0 1 1.7969.9023 20.9701 16.0467 6.3952 0 1 1.6835 1.0332 20.9701 16.0467 6.3952 0 1 1.5489 1.1504 20.9701 16.0467 6.3952 0 1 1.4062 1.254 20.9701 16.0467 6.3952 0 1 1.2383 1.3554 20.9701 16.0467 6.3952 0 1 1.0684 1.4316 20.9701 16.0467 6.3952 0 1 .8828 1.498 20.9701 16.0467 6.3952 0 1 .6836 1.5489 20.9701 16.0467 6.3952 0 1 .0566.1836 13.3124 14.9764 79.9495 0 0 .2676.8672 20.9701 16.0467 6.3952 0 1 .164.5351 20.9701 16.0467 6.3952 0 1 .1817 1.0391 21.006 18.672 6.3952 0 0 .9492-3.9297 11.4406 14.9508 79.9495 0 1 .5977-1.0957 11.4406 14.9508 79.9495 0 1 .7343-1.0547 11.4406 14.9508 79.9495 0 1 .8555-1 11.4406 14.9508 79.9495 0 1 .9766-.9375 11.4406 14.9508 79.9495 0 1 1.082-.8691 11.4406 14.9508 79.9495 0 1 1.1738-.7852 11.4406 14.9508 79.9495 0 1 1.2618-.6992 11.4406 14.9508 79.9495 0 1 1.334-.6016 11.4406 14.9508 79.9495 0 1 1.3925-.502 11.4406 14.9508 79.9495 0 1 1.4375-.3925 11.4406 14.9508 79.9495 0 1 1.0352-.2148 11.4406 14.9508 79.9495 0 1 1.4785-.2051 11.4406 14.9508 79.9495 0 1 1.4863-.0879 11.4406 14.9508 79.9495 0 1 1.4746.0254 11.4406 14.9508 79.9495 0 1 1.4512.1426 11.4406 14.9508 79.9495 0 1 1.4102.2539 11.4406 14.9508 79.9495 0 1 1.3593.3672 11.4406 14.9508 79.9495 0 1 1.293.4746 11.4406 14.9508 79.9495 0 1 1.2129.5722 11.4406 14.9508 79.9495 0 1 1.121.6778 11.4406 14.9508 79.9495 0 1 1.0196.7617 11.4406 14.9508 79.9495 0 1 .9063.8476 11.4406 14.9508 79.9495 0 1 .7792.92 11.4406 14.9508 79.9495 0 1 .6543.9863 11.4406 14.9508 79.9495 0 1 .334.6738 13.3124 14.9764 79.9495 0 0-.1445-2.8789 13.3124 14.9764 79.9495 0 0-17.0703-10.4941v-.002a13.3124 14.9764 79.9495 0 0-11.3379 8.2207 21.006 18.672 6.3952 0 0-17.164-13.8633 13.8263 18.0685 42.1136 0 1 0-.0117 13.8263 18.0685 42.1136 0 1 .0761-1.5898 13.8263 18.0685 42.1136 0 1 .2363-1.6172 13.8263 18.0685 42.1136 0 1 .3887-1.6309 13.8263 18.0685 42.1136 0 1 .539-1.621 13.8263 18.0685 42.1136 0 1 .6856-1.6016 13.8263 18.0685 42.1136 0 1 .8262-1.5625 13.8263 18.0685 42.1136 0 1 .957-1.5117 13.8263 18.0685 42.1136 0 1 1.082-1.4434 13.8263 18.0685 42.1136 0 1 .8301-.9707 13.8263 18.0685 42.1136 0 1 1.2578-1.291 13.8263 18.0685 42.1136 0 1 1.3536-1.1875 13.8263 18.0685 42.1136 0 1 1.4257-1.0664 13.8263 18.0685 42.1136 0 1 1.4903-.9395 13.8263 18.0685 42.1136 0 1 1.537-.8047 13.8263 18.0685 42.1136 0 1 1.5684-.6562 13.8263 18.0685 42.1136 0 1 1.584-.5059 13.8263 18.0685 42.1136 0 1 1.584-.3535 13.8263 18.0685 42.1136 0 1 1.5703-.1836 13.8263 18.0685 42.1136 0 1 1.539-.0273 13.8263 18.0685 42.1136 0 1 1.4923.1347 13.8263 18.0685 42.1136 0 1 1.4277.3008 13.8263 18.0685 42.1136 0 1 1.3555.457 13.8263 18.0685 42.1136 0 1 .8183.3965 16.0884 18.0995 42.1136 0 0-2.2715-2.6406 16.0884 18.0995 42.1136 0 0-5.8632-3.205 18.0685 13.8263 1.6885 0 1 .7754-.7325A18.0685 13.8263 1.6885 0 1 157.4219 23a18.0685 13.8263 1.6885 0 1 1.3867-.8672 18.0685 13.8263 1.6885 0 1 1.4922-.7617 18.0685 13.8263 1.6885 0 1 1.582-.6426 18.0685 13.8263 1.6885 0 1 1.666-.5156 18.0685 13.8263 1.6885 0 1 1.7246-.3848 18.0685 13.8263 1.6885 0 1 1.7715-.252 18.0685 13.8263 1.6885 0 1 1.7988-.1113 18.0685 13.8263 1.6885 0 1 1.2774.002 18.0685 13.8263 1.6885 0 1 1.8008.121 18.0685 13.8263 1.6885 0 1 1.7793.2599 18.0685 13.8263 1.6885 0 1 1.7382.3945 18.0685 13.8263 1.6885 0 1 1.6817.5234 18.0685 13.8263 1.6885 0 1 1.6074.6485 18.0685 13.8263 1.6885 0 1 1.5176.7695 18.0685 13.8263 1.6885 0 1 1.4121.877 18.0685 13.8263 1.6885 0 1 1.1719.8847 18.0995 16.0884 41.44 0 0-.3047.5254 18.0685 13.8263 41.44 0 1 .5488-.3203 18.0685 13.8263 1.6885 0 1 1.039.9629 18.0685 13.8263 1.6885 0 1 1.0196 1.1543 18.0685 13.8263 1.6885 0 1 .8633 1.2246 18.0685 13.8263 1.6885 0 1 .6973 1.2812 18.0685 13.8263 1.6885 0 1 .5293 1.3282 18.0685 13.8263 1.6885 0 1 .2304.8789 18.0995 16.0884 1.6885 0 0 .5371-3.4414 18.0995 16.0884 1.6885 0 0-.6972-4.8516 18.0685 13.8263 41.44 0 1 .5605-.0977 18.0685 13.8263 41.44 0 1 1.5508-.0996 18.0685 13.8263 41.44 0 1 1.5879.0567 18.0685 13.8263 41.44 0 1 1.623.2187 18.0685 13.8263 41.44 0 1 1.6329.3692 18.0685 13.8263 41.44 0 1 1.6269.5195 18.0685 13.8263 41.44 0 1 1.6113.666 18.0685 13.8263 41.44 0 1 1.5723.8067 18.0685 13.8263 41.44 0 1 1.5234.9414 18.0685 13.8263 41.44 0 1 1.4551 1.0644 18.0685 13.8263 41.44 0 1 .9785.8184 18.0685 13.8263 41.44 0 1 1.3086 1.2441 18.0685 13.8263 41.44 0 1 1.2012 1.3379 18.0685 13.8263 41.44 0 1 1.084 1.414 18.0685 13.8263 41.44 0 1 .957 1.4786 18.0685 13.8263 41.44 0 1 .8223 1.5273 18.0685 13.8263 41.44 0 1 .6757 1.5606 18.0685 13.8263 41.44 0 1 .5235 1.5781 18.0685 13.8263 41.44 0 1 .371 1.58 18.0685 13.8263 41.44 0 1 .2032 1.5684 18.0685 13.8263 41.44 0 1 .0469 1.5391 18.0685 13.8263 41.44 0 1-.1192 1.4922 18.0685 13.8263 41.44 0 1-.2832 1.4316 18.0685 13.8263 41.44 0 1-.4414 1.3614 18.0685 13.8263 41.44 0 1-.3867.8222 18.0995 16.0884 41.44 0 0 2.6153-2.3027 18.0995 16.0884 41.44 0 0-2.92-24.039v-.004a18.0995 16.0884 41.44 0 0-22.5351-1.5117 18.0995 16.0884 1.6885 0 0-15.7656-9.1055v-.002zm112.379.8379a13.3124 14.9764 19.6638 0 0-13.6446 10.3183h-.002a13.3124 14.9764 19.6638 0 0 1.502 13.8946 18.672 21.006 71.4625 0 0-10.164 1.0312 18.672 21.006 71.4625 0 0-14.2012 23.6211 13.3124 14.9764 63.5094 0 0-18.334-3.5996h-.002a13.3124 14.9764 63.5094 0 0-7.4648 18.5937 13.3124 14.9764 63.5094 0 0 1.582 2.3672 11.4406 14.9508 63.5094 0 1-.1504-1.0468 11.4406 14.9508 63.5094 0 1-.0214-1.1915 11.4406 14.9508 63.5094 0 1 .123-1.2109 11.4406 14.9508 63.5094 0 1 .2637-1.2207 11.4406 14.9508 63.5094 0 1 .4043-1.2207 11.4406 14.9508 63.5094 0 1 .539-1.2012 11.4406 14.9508 63.5094 0 1 .672-1.1757 11.4406 14.9508 63.5094 0 1 .791-1.1368 11.4406 14.9508 63.5094 0 1 .9023-1.086 11.4406 14.9508 63.5094 0 1 1.0137-1.0292 11.4406 14.9508 63.5094 0 1 1.1074-.955 11.4406 14.9508 63.5094 0 1 1.1953-.875 11.4406 14.9508 63.5094 0 1 1.2676-.7833 11.4406 14.9508 63.5094 0 1 .9316-.498 11.4406 14.9508 63.5094 0 1 1.3613-.6153 11.4406 14.9508 63.5094 0 1 1.4004-.5058 11.4406 14.9508 63.5094 0 1 1.42-.3926 11.4406 14.9508 63.5094 0 1 1.4316-.2734 11.4406 14.9508 63.5094 0 1 1.4258-.1563 11.4406 14.9508 63.5094 0 1 1.4082-.0312 11.4406 14.9508 63.5094 0 1 1.373.0879 11.4406 14.9508 63.5094 0 1 1.3262.207 11.4406 14.9508 63.5094 0 1 1.2656.332 11.4406 14.9508 63.5094 0 1 1.1953.4434 11.4406 14.9508 63.5094 0 1 1.1074.5547 11.4406 14.9508 63.5094 0 1 1.0098.662 11.4406 14.9508 63.5094 0 1 .9063.7618 11.4406 14.9508 63.5094 0 1 .5097.5508 16.0467 20.9701 71.4625 0 1-.0058-1.4825 16.0467 20.9701 71.4625 0 1 .203-1.6601 16.0467 20.9701 71.4625 0 1 .4044-1.6602 16.0467 20.9701 71.4625 0 1 .6016-1.6445 16.0467 20.9701 71.4625 0 1 .8007-1.6133 16.0467 20.9701 71.4625 0 1 .9805-1.5644 16.0467 20.9701 71.4625 0 1 1.1582-1.5059 16.0467 20.9701 71.4625 0 1 1.3203-1.4277 16.0467 20.9701 71.4625 0 1 1.4668-1.332 16.0467 20.9701 71.4625 0 1 1.6055-1.2325 16.0467 20.9701 71.4625 0 1 1.7246-1.1113 16.0467 20.9701 71.4625 0 1 1.8281-.9824 16.0467 20.9701 71.4625 0 1 1.914-.8438 16.0467 20.9701 71.4625 0 1 1.3927-.5097 16.0467 20.9701 71.4625 0 1 2.0078-.5918 16.0467 20.9701 71.4625 0 1 2.043-.4317 16.0467 20.9701 71.4625 0 1 2.0507-.2676 16.0467 20.9701 71.4625 0 1 2.041-.1035 16.0467 20.9701 71.4625 0 1 2.0118.0606 16.0467 20.9701 71.4625 0 1 1.9609.2265 16.0467 20.9701 71.4625 0 1 1.8906.3907 16.0467 20.9701 71.4625 0 1 1.8028.5449 16.0467 20.9701 71.4625 0 1 1.6933.707 16.0467 20.9701 71.4625 0 1 1.5742.8477 16.0467 20.9701 71.4625 0 1 1.4317.9863 16.0467 20.9701 71.4625 0 1 1.2734 1.1152 16.0467 20.9701 71.4625 0 1 1.1094 1.2344 16.0467 20.9701 71.4625 0 1 .6035.8652 18.672 21.006 71.4625 0 0-.795-3.9648 18.672 21.006 71.4625 0 0-10.1523-10.6055 11.4406 14.9508 19.6638 0 1-.3945-.83 11.4406 14.9508 19.6638 0 1-.4453-1.2383 11.4406 14.9508 19.6638 0 1-.33-1.3145 11.4406 14.9508 19.6638 0 1-.2188-1.3672 11.4406 14.9508 19.6638 0 1-.0996-1.4101 11.4406 14.9508 19.6638 0 1 .0195-1.4434 11.4406 14.9508 19.6638 0 1 .1367-1.455 11.4406 14.9508 19.6638 0 1 .254-1.459 11.4406 14.9508 19.6638 0 1 .373-1.4454 11.4406 14.9508 19.6638 0 1 .3261-1.0039 11.4406 14.9508 19.6638 0 1 .5547-1.3867 11.4406 14.9508 19.6638 0 1 .6602-1.334 11.4406 14.9508 19.6638 0 1 .752-1.2656 11.4406 14.9508 19.6638 0 1 .8437-1.1914 11.4406 14.9508 19.6638 0 1 .9219-1.0996 11.4406 14.9508 19.6638 0 1 .9902-.998 11.4406 14.9508 19.6638 0 1 1.0527-.8868 11.4406 14.9508 19.6638 0 1 1.0996-.7695 11.4406 14.9508 19.6638 0 1 1.1426-.6387 11.4406 14.9508 19.6638 0 1 1.168-.5078 11.4406 14.9508 19.6638 0 1 1.1855-.3672 11.4406 14.9508 19.6638 0 1 1.1856-.2207 11.4406 14.9508 19.6638 0 1 1.1816-.0781 11.4406 14.9508 19.6638 0 1 .75.043 13.3124 14.9764 19.6638 0 0-2.5723-1.3008 13.3124 14.9764 19.6638 0 0-3.9296-.6953zM69.3164 16.9707a13.3124 14.9764 86.3264 0 0-1.0605.0352v-.002a13.3124 14.9764 86.3264 0 0-12.7422 7.9082 21.006 18.672 50.608 0 0-24.754-1.3398 21.006 18.672 50.608 0 0-2.7402 2.9043 20.9701 16.0467 50.608 0 1 1.3828-.5352 20.9701 16.0467 50.608 0 1 1.623-.4004 20.9701 16.0467 50.608 0 1 1.6954-.2129 20.9701 16.0467 50.608 0 1 1.752-.0234 20.9701 16.0467 50.608 0 1 1.793.1738 20.9701 16.0467 50.608 0 1 1.8105.3594 20.9701 16.0467 50.608 0 1 1.8183.5469 20.9701 16.0467 50.608 0 1 1.8047.7246 20.9701 16.0467 50.608 0 1 1.7676.8965 20.9701 16.0467 50.608 0 1 1.7227 1.0625 20.9701 16.0467 50.608 0 1 1.6523 1.2148 20.9701 16.0467 50.608 0 1 1.5703 1.3594 20.9701 16.0467 50.608 0 1 1.4707 1.4883 20.9701 16.0467 50.608 0 1 .9707 1.1191 20.9701 16.0467 50.608 0 1 1.2695 1.666 20.9701 16.0467 50.608 0 1 1.129 1.7559 20.9701 16.0467 50.608 0 1 .9804 1.8203 20.9701 16.0467 50.608 0 1 .8242 1.871 20.9701 16.0467 50.608 0 1 .6582 1.9024 20.9701 16.0467 50.608 0 1 .4864 1.9121 20.9701 16.0467 50.608 0 1 .3086 1.9063 20.9701 16.0467 50.608 0 1 .1328 1.8789 20.9701 16.0467 50.608 0 1-.0586 1.834 20.9701 16.0467 50.608 0 1-.2305 1.7715 20.9701 16.0467 50.608 0 1-.412 1.6894 20.9701 16.0467 50.608 0 1-.59 1.5879 20.9701 16.0467 50.608 0 1-.078.1523 14.9764 13.3124 34.1623 0 0-.4278.832 20.9701 16.0467 50.608 0 1-.252.4923 20.9701 16.0467 50.608 0 1-.5937.871 21.006 18.672 50.608 0 0 3.42-2.1542 14.9508 11.4406 34.1623 0 1 1.1933-.3692 14.9508 11.4406 34.1623 0 1 1.2617-.2441 14.9508 11.4406 34.1623 0 1 1.3105-.1192 14.9508 11.4406 34.1623 0 1 1.3536.0079 14.9508 11.4406 34.1623 0 1 1.3808.1328 14.9508 11.4406 34.1623 0 1 1.3887.2558 14.9508 11.4406 34.1623 0 1 1.3926.379 14.9508 11.4406 34.1623 0 1 1.375.496 14.9508 11.4406 34.1623 0 1 1.3496.6133 14.9508 11.4406 34.1623 0 1 1.3047.7207 14.9508 11.4406 34.1623 0 1 .8906.5684 14.9508 11.4406 34.1623 0 1 1.2031.8847 14.9508 11.4406 34.1623 0 1 1.127.9727 14.9508 11.4406 34.1623 0 1 1.037 1.0469 14.9508 11.4406 34.1623 0 1 .9415 1.1132 14.9508 11.4406 34.1623 0 1 .834 1.166 14.9508 11.4406 34.1623 0 1 .7187 1.211 14.9508 11.4406 34.1623 0 1 .5957 1.2402 14.9508 11.4406 34.1623 0 1 .4707 1.2578 14.9508 11.4406 34.1623 0 1 .3301 1.2657 14.9508 11.4406 34.1623 0 1 .1992 1.2597 14.9508 11.4406 34.1623 0 1 .0586 1.2364 14.9508 11.4406 34.1623 0 1-.082 1.205 14.9508 11.4406 34.1623 0 1-.2188 1.1641 14.9508 11.4406 34.1623 0 1-.2304.7148 14.9764 13.3124 34.1623 0 0 1.9043-2.164 14.9764 13.3124 34.1623 0 0-4.918-19.4258v-.002a14.9764 13.3124 34.1623 0 0-13.8574-2.0136 21.006 18.672 50.608 0 0-3.2149-22.6582 11.4406 14.9508 86.3264 0 1 1.0762-.8223 11.4406 14.9508 86.3264 0 1 1.17-.7422 11.4406 14.9508 86.3264 0 1 1.2538-.6504 11.4406 14.9508 86.3264 0 1 1.332-.5547 11.4406 14.9508 86.3264 0 1 1.3926-.4511 11.4406 14.9508 86.3264 0 1 1.4395-.3438 11.4406 14.9508 86.3264 0 1 1.4727-.2304 11.4406 14.9508 86.3264 0 1 1.0527-.0977 11.4406 14.9508 86.3264 0 1 1.4922-.041 11.4406 14.9508 86.3264 0 1 1.4863.0781 11.4406 14.9508 86.3264 0 1 1.4629.1895 11.4406 14.9508 86.3264 0 1 1.4258.3027 11.4406 14.9508 86.3264 0 1 1.375.4102 11.4406 14.9508 86.3264 0 1 1.3086.5156 11.4406 14.9508 86.3264 0 1 1.2324.6133 11.4406 14.9508 86.3264 0 1 1.1426.705 11.4406 14.9508 86.3264 0 1 1.037.797 11.4406 14.9508 86.3264 0 1 .9298.871 11.4406 14.9508 86.3264 0 1 .8066.9414 11.4406 14.9508 86.3264 0 1 .6738 1.004 11.4406 14.9508 86.3264 0 1 .539 1.0527 11.4406 14.9508 86.3264 0 1 .258.705 13.3124 14.9764 86.3264 0 0 .1757-2.877 13.3124 14.9764 86.3264 0 0-14.7383-12.3593z" paint-order="markers fill stroke"/></svg>