<svg xmlns="http://www.w3.org/2000/svg" xmlns:xlink="http://www.w3.org/1999/xlink" width="324" height="234" enable-background="new"><defs><linearGradient id="f"><stop offset="0" stop-color="#343434"/><stop offset="1" stop-color="#464646"/></linearGradient><linearGradient id="e"><stop offset="0" stop-color="#cecece"/><stop offset="1" stop-color="#9b9b9b"/></linearGradient><linearGradient id="i"><stop offset="0" stop-color="#ffdfe2"/><stop offset="1" stop-color="#ffdfe3"/></linearGradient><linearGradient id="b"><stop offset="0" stop-color="#ff9a0a"/><stop offset="1" stop-color="#c61f00"/></linearGradient><linearGradient id="k"><stop offset="0" stop-color="#838383"/><stop offset="1" stop-color="#ffe5ca"/></linearGradient><linearGradient id="h"><stop offset="0" stop-color="#ffccd1"/><stop offset="1" stop-color="#ffd7dd"/></linearGradient><linearGradient id="g"><stop offset="0" stop-color="#ffde91"/><stop offset="1" stop-color="#ffc066"/></linearGradient><linearGradient id="c"><stop offset="0" stop-color="#ff9a0a"/><stop offset="1" stop-color="#c67500"/></linearGradient><linearGradient id="d"><stop offset="0" stop-color="#ff4500"/><stop offset="1" stop-color="#b30"/></linearGradient><linearGradient id="l"><stop offset="0" stop-color="#737373"/><stop offset="1" stop-color="#4f4f4f"/></linearGradient><linearGradient id="a"><stop offset="0" stop-color="#ff9a0a"/><stop offset="1" stop-color="#e1252e"/></linearGradient><linearGradient xlink:href="#a" id="m" x1="0" x2="200" y1="-.31" y2="123.31" gradientTransform="matrix(-1 0 0 1.1684 200 -10.36)" gradientUnits="userSpaceOnUse"/><linearGradient id="j"><stop offset="0" stop-color="#6c0000" stop-opacity=".52"/><stop offset="1" stop-opacity="0"/></linearGradient><linearGradient xlink:href="#a" id="p" x1="0" x2="168.56" y1="173.69" y2="173.69" gradientUnits="userSpaceOnUse"/><linearGradient xlink:href="#a" id="q" x1="231.98" x2="324" y1="54.62" y2="54.62" gradientUnits="userSpaceOnUse"/><linearGradient xlink:href="#b" id="y" x1="215" x2="215" y1="-157" y2="-244.01" gradientTransform="translate(-128)" gradientUnits="userSpaceOnUse"/><linearGradient xlink:href="#b" id="z" x1="215" x2="215" y1="-157" y2="-244.01" gradientTransform="translate(-16)" gradientUnits="userSpaceOnUse"/><linearGradient xlink:href="#c" id="I" x1="150" x2="198" y1="-73" y2="-73" gradientTransform="matrix(.5468 0 0 .5177 90.92 126.33)" gradientUnits="userSpaceOnUse"/><linearGradient xlink:href="#d" id="J" x1="150" x2="198" y1="10" y2="10" gradientTransform="matrix(.5468 0 0 .5177 90.92 126.33)" gradientUnits="userSpaceOnUse"/><linearGradient xlink:href="#d" id="K" x1="121.59" x2="153.25" y1="120.89" y2="120.89" gradientUnits="userSpaceOnUse"/><linearGradient xlink:href="#e" id="L" x1="24.5" x2="24.52" y1="2" y2="3.44" gradientUnits="userSpaceOnUse"/><linearGradient xlink:href="#f" id="M" x1="24.5" x2="24.52" y1="2" y2="3.44" gradientTransform="matrix(1 0 0 -1 0 32.27)" gradientUnits="userSpaceOnUse"/><radialGradient xlink:href="#g" id="r" cx="-15.9" cy="-21" r="10.9" fx="-15.9" fy="-21" gradientTransform="matrix(.6103 0 0 .367 -9.26 -13.3)" gradientUnits="userSpaceOnUse"/><radialGradient xlink:href="#g" id="t" cx="-15.9" cy="-21" r="10.9" fx="-15.9" fy="-21" gradientTransform="matrix(.6103 0 0 .367 -64.13 -29.3)" gradientUnits="userSpaceOnUse"/><radialGradient xlink:href="#g" id="u" cx="-15.9" cy="-21" r="10.9" fx="-15.9" fy="-21" gradientTransform="matrix(.6103 0 0 .367 -133.63 -29.3)" gradientUnits="userSpaceOnUse"/><radialGradient xlink:href="#h" id="v" cx="-15.9" cy="-21" r="10.9" fx="-15.9" fy="-21" gradientTransform="matrix(.6103 0 0 .367 301.66 -29.3)" gradientUnits="userSpaceOnUse"/><radialGradient xlink:href="#i" id="x" cx="-15.9" cy="-21" r="10.9" fx="-15.9" fy="-21" gradientTransform="matrix(.6103 0 0 .367 375.47 -13.3)" gradientUnits="userSpaceOnUse"/><radialGradient xlink:href="#j" id="n" cx="99.21" cy="96.07" r="101.15" fx="99.21" fy="96.07" gradientTransform="matrix(.666 0 0 .0973 32.8 85.18)" gradientUnits="userSpaceOnUse"/><radialGradient xlink:href="#j" id="o" cx="99.21" cy="61.5" r="100.53" fx="99.21" fy="61.5" gradientTransform="matrix(.666 0 0 .0967 32.8 88.58)" gradientUnits="userSpaceOnUse"/><radialGradient xlink:href="#k" id="A" cx="162" cy="111.31" r="69.98" fx="162" fy="111.31" gradientTransform="matrix(1 0 0 .9469 0 5.91)" gradientUnits="userSpaceOnUse"/><radialGradient xlink:href="#i" id="B" cx="-15.9" cy="-21" r="10.9" fx="-15.9" fy="-21" gradientTransform="matrix(.6103 0 0 .367 375.47 -86.7)" gradientUnits="userSpaceOnUse"/><radialGradient xlink:href="#i" id="C" cx="-15.9" cy="-21" r="10.9" fx="-15.9" fy="-21" gradientTransform="matrix(.6103 0 0 .367 375.47 -86.7)" gradientUnits="userSpaceOnUse"/><radialGradient xlink:href="#i" id="D" cx="-15.9" cy="-21" r="10.9" fx="-15.9" fy="-21" gradientTransform="matrix(.6103 0 0 .367 386.43 253.86)" gradientUnits="userSpaceOnUse"/><radialGradient xlink:href="#l" id="E" cx="15.97" cy="16.09" r="14.03" fx="15.97" fy="16.09" gradientTransform="matrix(1 0 0 1.0043 0 -.06)" gradientUnits="userSpaceOnUse"/><filter id="s" width="1.44" height="1.73" x="-.22" y="-.37" color-interpolation-filters="sRGB"><feGaussianBlur stdDeviation="1.22"/></filter><filter id="w" width="1.54" height="1.9" x="-.27" y="-.45" color-interpolation-filters="sRGB"><feGaussianBlur stdDeviation="1.5"/></filter><filter id="H" width="1.43" height="1.31" x="-.21" y="-.15" color-interpolation-filters="sRGB"><feGaussianBlur stdDeviation="4.26"/></filter><filter id="G" width="1.43" height="1.31" x="-.21" y="-.15" color-interpolation-filters="sRGB"><feGaussianBlur stdDeviation="4.26"/></filter><filter id="F" width="1.64" height="1.25" x="-.32" y="-.12" color-interpolation-filters="sRGB"><feGaussianBlur stdDeviation="1.33"/></filter></defs><path fill="url(#m)" d="M200-10.72v144.44H0V-10.72h76.08z" transform="matrix(1.62 0 0 1.62 0 17.37)"/><path fill="url(#n)" fill-rule="evenodd" stroke="url(#o)" stroke-linecap="round" stroke-width=".44" d="M31.91 84.81h133.91v19.44H31.91z" paint-order="markers fill stroke" transform="matrix(1.62 0 0 1.62 0 17.37)"/><g fill="#8e8e8e" fill-rule="evenodd" stroke-linejoin="round" stroke-miterlimit="1.41" clip-rule="evenodd"><path fill="url(#p)" d="M0 105.1v4.14h92.02v-4.14H0zm0 8.28v4.15h72l2 2 2 2v83.87h83.93l1.96 1.96 1.99 1.99V234h4.14v-44.1l.54-12.32h-4.37l-.31 12.32v7.36l-2 2-2 2H80.14v-79.79l1.96-1.96 1.99-1.98h7.93v-4.15H0z" paint-order="markers fill stroke"/><path fill="url(#q)" d="M284.48 0v84.54l-2 2-2 2h-48.5v4.14h48.56l1.96 1.95 1.98 2v8.47h-52.5v4.14H324v-4.14h-35.38V0h-4.14zm-52.5 113.38v4.15H324v-4.15h-92.02z" paint-order="markers fill stroke"/><path fill="url(#r)" d="M-25.62-25h13.3v8h-13.3z" filter="url(#s)" paint-order="markers fill stroke" transform="matrix(.5468 0 0 .5177 94.75 126.33)"/><path fill="url(#t)" d="M-80.49-41h13.3v8h-13.3z" filter="url(#s)" paint-order="markers fill stroke" transform="matrix(.5468 0 0 .5177 94.75 126.33)"/><path fill="url(#u)" d="M-149.99-41h13.3v8h-13.3z" filter="url(#s)" paint-order="markers fill stroke" transform="matrix(.5468 0 0 .5177 94.75 126.33)"/><path fill="url(#v)" d="M285.31-41h13.3v8h-13.3z" filter="url(#w)" paint-order="markers fill stroke" transform="matrix(.5468 0 0 .5177 94.75 126.33)"/><path fill="url(#x)" d="M359.12-25h13.3v8h-13.3z" filter="url(#w)" paint-order="markers fill stroke" transform="matrix(.5468 0 0 .5177 94.75 126.33)"/><path fill="url(#y)" d="M79-244.01h8V-157h-8z" paint-order="markers fill stroke" transform="matrix(.5468 0 0 .5177 94.75 126.33)"/><path fill="url(#z)" d="M191-244.01h8V-157h-8z" paint-order="markers fill stroke" transform="matrix(.5468 0 0 .5177 94.75 126.33)"/><path fill="url(#A)" d="M111.7 45.04v18.64H92.02v4.14h19.68v4.15H92.02v4.14h19.68v4.14H92.02v4.14h19.68v4.14H92.02v4.15h19.68v4.14H92.02v4.14h19.68v4.14H92.02v4.14h19.68v4.14H92.02v4.15h19.68v4.14H92.02v4.14h19.68v4.14H92.02v4.14h19.68v4.14H92.02v4.15h19.68v4.14H92.02v4.14h19.68v4.14H92.02v4.14h19.68v18.64h4.37v-18.64h4.38v18.64h4.37v-18.64h4.38v18.64h4.37v-18.64h4.37v18.64h4.38v-18.64h4.37v18.64h4.37v-18.64h4.38v18.64h4.37v-18.64h4.38v18.64h4.37v-18.64h4.38v18.64h4.37v-18.64h4.37v18.64h4.38v-18.64h4.37v18.64h4.37v-18.64h4.38v18.64h4.37v-18.64h4.38v18.64h4.37v-18.64h19.68v-4.14H212.3v-4.14h19.68v-4.14H212.3v-4.14h19.68v-4.15H212.3v-4.14h19.68v-4.14H212.3v-4.14h19.68v-4.14H212.3v-4.14h19.68v-4.15H212.3v-4.14h19.68v-4.14H212.3v-4.14h19.68v-4.14H212.3v-4.14h19.68v-4.15H212.3V84.4h19.68v-4.14H212.3v-4.14h19.68v-4.14H212.3v-4.15h19.68v-4.14H212.3V45.04h-4.37v18.64h-4.38V45.04h-4.37v18.64h-4.38V45.04h-4.37v18.64h-4.37V45.04h-4.38v18.64h-4.37V45.04h-4.37v18.64h-4.38V45.04h-4.37v18.64h-4.38V45.04h-4.37v18.64h-4.38V45.04h-4.37v18.64h-4.37V45.04h-4.38v18.64h-4.37V45.04h-4.37v18.64h-4.38V45.04h-4.37v18.64h-4.38V45.04h-4.37zm4.37 22.78h4.38v4.15h-4.38v-4.15zm8.75 0h4.38v4.15h-4.38v-4.15zm8.75 0h4.37v4.15h-4.37v-4.15zm8.75 0h4.37v4.15h-4.37v-4.15zm8.74 0h4.38v4.15h-4.38v-4.15zm8.75 0h4.38v4.15h-4.38v-4.15zm8.75 0h4.38v4.15h-4.38v-4.15zm8.75 0h4.37v4.15h-4.37v-4.15zm8.75 0h4.37v4.15h-4.37v-4.15zm8.74 0h4.38v4.15h-4.38v-4.15zm8.75 0h4.38v4.15h-4.38v-4.15zm-87.48 8.29h4.38v4.14h-4.38v-4.14zm8.75 0h4.38v4.14h-4.38v-4.14zm8.75 0h4.37v4.14h-4.37v-4.14zm8.75 0h4.37v4.14h-4.37v-4.14zm8.74 0h4.38v4.14h-4.38v-4.14zm8.75 0h4.38v4.14h-4.38v-4.14zm8.75 0h4.38v4.14h-4.38v-4.14zm8.75 0h4.37v4.14h-4.37v-4.14zm8.75 0h4.37v4.14h-4.37v-4.14zm8.74 0h4.38v4.14h-4.38v-4.14zm8.75 0h4.38v4.14h-4.38v-4.14zm-87.48 8.28h4.38v4.14h-4.38V84.4zm8.75 0h4.38v4.14h-4.38V84.4zm8.75 0h4.37v4.14h-4.37V84.4zm8.75 0h4.37v4.14h-4.37V84.4zm8.74 0h4.38v4.14h-4.38V84.4zm8.75 0h4.38v4.14h-4.38V84.4zm8.75 0h4.38v4.14h-4.38V84.4zm8.75 0h4.37v4.14h-4.37V84.4zm8.75 0h4.37v4.14h-4.37V84.4zm8.74 0h4.38v4.14h-4.38V84.4zm8.75 0h4.38v4.14h-4.38V84.4zm-87.48 8.29h4.38v4.14h-4.38v-4.14zm8.75 0h4.38v4.14h-4.38v-4.14zm8.75 0h4.37v4.14h-4.37v-4.14zm8.75 0h4.37v4.14h-4.37v-4.14zm8.74 0h4.38v4.14h-4.38v-4.14zm8.75 0h4.38v4.14h-4.38v-4.14zm8.75 0h4.38v4.14h-4.38v-4.14zm8.75 0h4.37v4.14h-4.37v-4.14zm8.75 0h4.37v4.14h-4.37v-4.14zm8.74 0h4.38v4.14h-4.38v-4.14zm8.75 0h4.38v4.14h-4.38v-4.14zm-87.48 8.28h4.38v4.14h-4.38v-4.14zm8.75 0h4.38v4.14h-4.38v-4.14zm8.75 0h4.37v4.14h-4.37v-4.14zm8.75 0h4.37v4.14h-4.37v-4.14zm8.74 0h4.38v4.14h-4.38v-4.14zm8.75 0h4.38v4.14h-4.38v-4.14zm8.75 0h4.38v4.14h-4.38v-4.14zm8.75 0h4.37v4.14h-4.37v-4.14zm8.75 0h4.37v4.14h-4.37v-4.14zm8.74 0h4.38v4.14h-4.38v-4.14zm8.75 0h4.38v4.14h-4.38v-4.14zm-87.48 8.28h4.38v4.14h-4.38v-4.14zm8.75 0h4.38v4.14h-4.38v-4.14zm8.75 0h4.37v4.14h-4.37v-4.14zm8.75 0h4.37v4.14h-4.37v-4.14zm8.74 0h4.38v4.14h-4.38v-4.14zm8.75 0h4.38v4.14h-4.38v-4.14zm8.75 0h4.38v4.14h-4.38v-4.14zm8.75 0h4.37v4.14h-4.37v-4.14zm8.75 0h4.37v4.14h-4.37v-4.14zm8.74 0h4.38v4.14h-4.38v-4.14zm8.75 0h4.38v4.14h-4.38v-4.14zm-87.48 8.29h4.38v4.14h-4.38v-4.14zm8.75 0h4.38v4.14h-4.38v-4.14zm8.75 0h4.37v4.14h-4.37v-4.14zm8.75 0h4.37v4.14h-4.37v-4.14zm8.74 0h4.38v4.14h-4.38v-4.14zm8.75 0h4.38v4.14h-4.38v-4.14zm8.75 0h4.38v4.14h-4.38v-4.14zm8.75 0h4.37v4.14h-4.37v-4.14zm8.75 0h4.37v4.14h-4.37v-4.14zm8.74 0h4.38v4.14h-4.38v-4.14zm8.75 0h4.38v4.14h-4.38v-4.14zm-87.48 8.28h4.38v4.14h-4.38v-4.14zm8.75 0h4.38v4.14h-4.38v-4.14zm8.75 0h4.37v4.14h-4.37v-4.14zm8.75 0h4.37v4.14h-4.37v-4.14zm8.74 0h4.38v4.14h-4.38v-4.14zm8.75 0h4.38v4.14h-4.38v-4.14zm8.75 0h4.38v4.14h-4.38v-4.14zm8.75 0h4.37v4.14h-4.37v-4.14zm8.75 0h4.37v4.14h-4.37v-4.14zm8.74 0h4.38v4.14h-4.38v-4.14zm8.75 0h4.38v4.14h-4.38v-4.14zm-87.48 8.28h4.38v4.14h-4.38v-4.14zm8.75 0h4.38v4.14h-4.38v-4.14zm8.75 0h4.37v4.14h-4.37v-4.14zm8.75 0h4.37v4.14h-4.37v-4.14zm8.74 0h4.38v4.14h-4.38v-4.14zm8.75 0h4.38v4.14h-4.38v-4.14zm8.75 0h4.38v4.14h-4.38v-4.14zm8.75 0h4.37v4.14h-4.37v-4.14zm8.75 0h4.37v4.14h-4.37v-4.14zm8.74 0h4.38v4.14h-4.38v-4.14zm8.75 0h4.38v4.14h-4.38v-4.14zm-87.48 8.29h4.38v4.14h-4.38v-4.14zm8.75 0h4.38v4.14h-4.38v-4.14zm8.75 0h4.37v4.14h-4.37v-4.14zm8.75 0h4.37v4.14h-4.37v-4.14zm8.74 0h4.38v4.14h-4.38v-4.14zm8.75 0h4.38v4.14h-4.38v-4.14zm8.75 0h4.38v4.14h-4.38v-4.14zm8.75 0h4.37v4.14h-4.37v-4.14zm8.75 0h4.37v4.14h-4.37v-4.14zm8.74 0h4.38v4.14h-4.38v-4.14zm8.75 0h4.38v4.14h-4.38v-4.14zm-87.48 8.28h4.38v4.14h-4.38v-4.14zm8.75 0h4.38v4.14h-4.38v-4.14zm8.75 0h4.37v4.14h-4.37v-4.14zm8.75 0h4.37v4.14h-4.37v-4.14zm8.74 0h4.38v4.14h-4.38v-4.14zm8.75 0h4.38v4.14h-4.38v-4.14zm8.75 0h4.38v4.14h-4.38v-4.14zm8.75 0h4.37v4.14h-4.37v-4.14zm8.75 0h4.37v4.14h-4.37v-4.14zm8.74 0h4.38v4.14h-4.38v-4.14zm8.75 0h4.38v4.14h-4.38v-4.14z"/><path fill="url(#B)" d="M359.12-98.4h13.3v8h-13.3z" filter="url(#w)" paint-order="markers fill stroke" transform="matrix(0 .5468 -.5177 0 237.68 -145.12)"/><path fill="url(#C)" d="M359.12-98.4h13.3v8h-13.3z" filter="url(#w)" paint-order="markers fill stroke" transform="matrix(0 .5468 -.5177 0 91.14 -180.22)"/><path fill="url(#D)" d="M370.08 242.16h13.3v8h-13.3z" filter="url(#w)" paint-order="markers fill stroke" transform="matrix(0 .5468 -.5177 0 293.38 19.79)"/></g><g fill="url(#E)" fill-rule="evenodd" stroke-linejoin="round" stroke-miterlimit="1.41" clip-rule="evenodd" transform="matrix(4.3636 0 0 4.114 92.33 45.1)"><rect width="28.07" height="28.19" x="1.93" y="2.01" rx="1.5" ry="1.51"/><rect width="28.07" height="28.19" x="1.93" y="2.01" rx="1.5" ry="1.51"/></g><g fill-rule="evenodd" stroke-linejoin="round" stroke-miterlimit="1.41" clip-rule="evenodd" filter="url(#F)" transform="matrix(3.1636 0 0 2.9956 113.24 70.7)"><path d="M6.94.25v9.38h1.39V.25Z"/><path d="M2.64 7.5v4.16h4.3V26h1.39V11.66h4.32V7.5H2.64z"/></g><path fill-rule="evenodd" d="M198-86v-20h-48v66h48v-23h-10v13h-19v-14l-9-9v-23h23v10" clip-rule="evenodd" filter="url(#G)" transform="matrix(.5468 0 0 .5177 90.92 126.33)"/><path fill-rule="evenodd" d="M198-3v-20h-48v66h48V20h-10v13h-19V19l-9-9v-23h23v10" clip-rule="evenodd" filter="url(#H)" transform="matrix(.5468 0 0 .5177 90.92 126.33)"/><path fill="url(#I)" fill-rule="evenodd" d="M199.18 81.8V71.45h-26.24v34.17h26.24v-11.9h-5.47v6.72h-10.39V93.2l-4.92-4.66v-11.9h12.58v5.17" clip-rule="evenodd"/><path fill="url(#J)" fill-rule="evenodd" d="M199.18 124.77v-10.35h-26.24v34.17h26.24v-11.9h-5.47v6.72h-10.39v-7.25l-4.92-4.66v-11.9h12.58v5.17" clip-rule="evenodd"/><g fill-rule="evenodd" stroke-linejoin="round" stroke-miterlimit="1.41" clip-rule="evenodd"><path fill="#fff" d="m135.2 71.45-.01 28.1h4.4v-28.1Z"/><path fill="url(#K)" d="M121.59 93.2v12.42h13.6l.02 42.97h4.37v-42.97h13.67V93.19Z"/></g><path fill="url(#L)" fill-rule="evenodd" d="M3.44 2.01c-.84 0-1.5.68-1.5 1.51v1.46a1.52 1.52 0 0 1 .91-1.4c.18-.07.38-.1.59-.1H28.5a1.5 1.5 0 0 1 1.5 1.5V3.52a1.5 1.5 0 0 0-1.5-1.5z" clip-rule="evenodd" transform="matrix(4.3636 0 0 4.114 92.33 45.1)"/><path fill="url(#M)" fill-rule="evenodd" d="M3.44 30.26a1.5 1.5 0 0 1-1.5-1.51v-1.46a1.52 1.52 0 0 0 .91 1.4c.18.07.38.11.59.11H28.5a1.5 1.5 0 0 0 1.5-1.5v1.45a1.5 1.5 0 0 1-1.5 1.51z" clip-rule="evenodd" transform="matrix(4.3636 0 0 4.114 92.33 45.1)"/></svg>