<svg xmlns="http://www.w3.org/2000/svg" xmlns:xlink="http://www.w3.org/1999/xlink" xml:space="preserve" width="324" height="234"><defs><linearGradient id="e"><stop offset="0" stop-color="#16d1cf"/><stop offset="1" stop-color="#12a7a5"/></linearGradient><linearGradient id="c" x1="-82" x2="49.083" y1="0" y2="181.218" gradientTransform="matrix(0 -1.8 1.8 0 0 86.4)" gradientUnits="userSpaceOnUse" spreadMethod="pad"><stop offset="0" stop-color="#39ccfb"/><stop offset="1" stop-color="#f2c732"/></linearGradient><linearGradient id="a" x1="-82" x2="49.083" y1="0" y2="181.218" gradientTransform="matrix(0 -1.8 1.8 0 0 86.4)" gradientUnits="userSpaceOnUse" spreadMethod="pad"><stop offset="0" stop-color="#42c0bf"/><stop offset="1" stop-color="#444"/></linearGradient><linearGradient id="b"><stop offset="0"/><stop offset="1" stop-opacity="0"/></linearGradient><linearGradient xlink:href="#a" id="d" x1="-82" x2="49.083" y1="0" y2="181.218" gradientTransform="matrix(0 -1.8 1.8 0 0 86.4)" gradientUnits="userSpaceOnUse"><stop offset="0" stop-color="#818181"/><stop offset="1" stop-color="#444"/></linearGradient><linearGradient xlink:href="#c" id="f" x1="44.604" x2="-78.621" y1="72.987" y2="130.994" gradientTransform="matrix(0 -1.8 1.8 0 0 86.4)" gradientUnits="userSpaceOnUse"/><linearGradient id="g" x1="73.588" x2="102.82" y1="31.154" y2="31.154" gradientTransform="matrix(5.34 0 0 6.02 -322.652 -70.674)" gradientUnits="userSpaceOnUse"><stop offset="0" stop-color="#e8f6f4"/><stop offset="1" stop-color="#fff"/></linearGradient></defs><path fill="url(#f)" d="M0 0h324v234H0z"/><path fill="none" d="M-1.7-1.95h327.891v237.04H-1.699Zm0 0"/><path fill="none" d="M143.824 53.152c-23.789-.03-41.176 21.383-52.289 46.328-14.488 32.504-29.773 80.551-.277 80.551 31.039 0 56.832-20.226 75.066-35.511 6.617 14.156 16.246 35.511 29.7 35.511 13.453 0 25.714-6.218 31.706-11.758l22.348-36.53-2.418-3.27c-28.285 16.449-37.933 27.761-53.828-7.742l20.062-21.653 29.461-42.808-2.172-3.157-53.007 54.493c-8.578-20.856-26.207-54.43-44.371-54.454M123.96 80.09c16.844 0 26.723 29.125 36.633 50.707-14.614 9.754-33.707 21.789-47.703 18.426-16.586-3.992-20.809-24.36-14.13-39.66 5.926-14.34 13.2-29.457 25.176-29.457"/><path fill="url(#g)" d="M170.01 44.68c-4.418 0-8.004 4.048-8.004 9.036 0 4.988 3.586 9.036 8.004 9.036 4.419 0 8.005-4.048 8.005-9.036 0-4.988-3.586-9.036-8.005-9.036m26.682 0c-4.419 0-8.004 4.048-8.004 9.036 0 4.988 3.586 9.036 8.004 9.036 4.418 0 8.004-4.048 8.004-9.036 0-4.988-3.586-9.036-8.004-9.036m21.345 12.048c-4.419 0-8.005 4.049-8.005 9.036 0 4.988 3.586 9.036 8.005 9.036 4.418 0 8.004-4.048 8.004-9.036 0-4.988-3.586-9.036-8.004-9.036m-70.152.928c-6.11.398-15.448 4.73-23.762 12.542-21.324 20-40.253 59.91-11.633 94.174 27.577 33.012 67.83 26.451 81.462 18.47 18.346-10.706 18.075-32.32 16.788-37.53-4.637-18.838-17.37-24.097-25.47-23.049-9.776 1.277-28.703 8.271-39.856-8.65-9.461-14.356-.94-35.055 8.607-42.35 3.917-3.036 3.81-9.487-1.2-12.68-1.19-.76-2.898-1.103-4.942-.928z"/></svg>