<?xml version="1.0" encoding="UTF-8" standalone="no"?>
<svg
   xmlns:dc="http://purl.org/dc/elements/1.1/"
   xmlns:cc="http://creativecommons.org/ns#"
   xmlns:rdf="http://www.w3.org/1999/02/22-rdf-syntax-ns#"
   xmlns:svg="http://www.w3.org/2000/svg"
   xmlns="http://www.w3.org/2000/svg"
   xmlns:xlink="http://www.w3.org/1999/xlink"
   xmlns:sodipodi="http://sodipodi.sourceforge.net/DTD/sodipodi-0.dtd"
   xmlns:inkscape="http://www.inkscape.org/namespaces/inkscape"
   width="324px"
   height="234px"
   viewBox="0 0 324 234"
   version="1.1"
   id="svg16"
   sodipodi:docname="davinci-resolve.svg"
   inkscape:version="0.92.4 (5da689c313, 2019-01-14)">
  <metadata
     id="metadata20">
    <rdf:RDF>
      <cc:Work
         rdf:about="">
        <dc:format>image/svg+xml</dc:format>
        <dc:type
           rdf:resource="http://purl.org/dc/dcmitype/StillImage" />
        <dc:title></dc:title>
      </cc:Work>
    </rdf:RDF>
  </metadata>
  <sodipodi:namedview
     pagecolor="#ffffff"
     bordercolor="#666666"
     borderopacity="1"
     objecttolerance="10"
     gridtolerance="10"
     guidetolerance="10"
     inkscape:pageopacity="0"
     inkscape:pageshadow="2"
     inkscape:window-width="1152"
     inkscape:window-height="761"
     id="namedview18"
     showgrid="false"
     inkscape:pagecheckerboard="true"
     inkscape:snap-global="false"
     inkscape:zoom="0.5042735"
     inkscape:cx="318.54576"
     inkscape:cy="-25.298994"
     inkscape:window-x="0"
     inkscape:window-y="0"
     inkscape:window-maximized="1"
     inkscape:current-layer="layer1" />
  <defs
     id="defs7">
    <linearGradient
       inkscape:collect="always"
       id="linearGradient1212">
      <stop
         style="stop-color:#ffffff;stop-opacity:1;"
         offset="0"
         id="stop1208" />
      <stop
         style="stop-color:#dddddd;stop-opacity:1"
         offset="1"
         id="stop1210" />
    </linearGradient>
    <inkscape:path-effect
       effect="bspline"
       id="path-effect841"
       is_visible="true"
       weight="33.333333"
       steps="2"
       helper_size="0"
       apply_no_weight="true"
       apply_with_weight="true"
       only_selected="false" />
    <inkscape:path-effect
       only_selected="false"
       apply_with_weight="true"
       apply_no_weight="true"
       helper_size="0"
       steps="2"
       weight="33.333333"
       is_visible="true"
       id="path-effect837"
       effect="bspline" />
    <inkscape:path-effect
       effect="bspline"
       id="path-effect833"
       is_visible="true"
       weight="33.333333"
       steps="2"
       helper_size="0"
       apply_no_weight="true"
       apply_with_weight="true"
       only_selected="false" />
    <radialGradient
       id="radial0"
       gradientUnits="userSpaceOnUse"
       cx="90.136002"
       cy="64.761497"
       fx="90.136002"
       fy="64.761497"
       r="91.592003"
       gradientTransform="matrix(1.2641983,-1.7800416,1.7501288,1.2429541,-65.045948,196.1634)">
      <stop
         offset="0"
         style="stop-color:rgb(81.960785%,10.588235%,34.509805%);stop-opacity:1;"
         id="stop2" />
      <stop
         offset="1"
         style="stop-color:rgb(50.588238%,6.666667%,22.352941%);stop-opacity:1;"
         id="stop4" />
    </radialGradient>
    <filter
       inkscape:collect="always"
       style="color-interpolation-filters:sRGB"
       id="filter1204"
       x="-0.085403895"
       width="1.1708078"
       y="-0.092477384"
       height="1.1849548">
      <feGaussianBlur
         inkscape:collect="always"
         stdDeviation="4.5954512"
         id="feGaussianBlur1206" />
    </filter>
    <linearGradient
       inkscape:collect="always"
       xlink:href="#linearGradient1212"
       id="linearGradient1214"
       x1="148.22638"
       y1="97.73362"
       x2="174.19585"
       y2="152.93567"
       gradientUnits="userSpaceOnUse" />
  </defs>
  <g
     id="surface1">
    <rect
       x="0"
       y="0"
       width="324"
       height="234"
       style="fill:url(#radial0);stroke:none"
       id="rect9" />
  </g>
  <g
     inkscape:groupmode="layer"
     id="layer1"
     inkscape:label="jhalo">
    <path
       style="fill:#560c25;fill-opacity:1;fill-rule:evenodd;stroke:none;filter:url(#filter1204)"
       d="m 166.82206,119.15485 c -1.81428,1.46724 -4.56037,1.19888 -6.17188,-0.60314 -14.64518,-16.34524 -21.6983,-28.948554 -21.15912,-37.813832 0.86036,-14.146392 13.37832,-24.462153 27.96426,-23.036762 14.58203,1.425009 25.7086,14.0514 24.84824,28.197792 -0.53918,8.865278 -9.03293,19.949292 -25.4815,33.255942 z m 0.94704,13.50271 c -0.46435,-2.31491 1.05093,-4.48714 3.40122,-4.88246 21.35535,-3.59668 35.85313,-2.78927 43.49772,2.41481 12.19861,8.30929 15.57402,24.39695 7.53594,35.93566 -8.03808,11.53871 -24.44206,14.16222 -36.64066,5.85293 -7.6446,-5.20408 -13.5747,-18.31094 -17.79422,-39.32094 z m -12.46206,-6.43268 c 2.27471,0.84729 3.50943,3.28826 2.77065,5.4856 -6.71016,19.94192 -14.15506,31.74171 -22.33468,35.3994 -13.06312,5.84062 -28.95602,0.0609 -35.50387,-12.90316 -6.543947,-12.96371 -1.267021,-28.20584 11.79609,-34.04646 8.17962,-3.65769 22.60372,-1.63874 43.27181,6.06462 z m 0,0"
       id="path13"
       inkscape:connector-curvature="0" />
    <path
       id="path862"
       d="m 165.08695,118.68362 c -1.71484,1.64454 -4.46094,1.64454 -6.17187,0 -15.54688,-14.91406 -23.32032,-26.828118 -23.32032,-35.746087 0,-14.230469 11.82032,-25.769531 26.40625,-25.769531 14.58203,0 26.40625,11.539062 26.40625,25.769531 0,8.917969 -7.77343,20.832027 -23.32031,35.746087 z m 1.75781,13.41016 c -0.60156,-2.26953 0.77344,-4.58984 3.08594,-5.21484 21.01172,-5.6836 35.47266,-6.29297 43.38672,-1.83594 12.62891,7.11719 16.95703,22.875 9.66406,35.19922 -7.29297,12.32422 -23.4414,16.55078 -36.07031,9.43359 -7.91406,-4.45703 -14.60156,-16.98437 -20.06641,-37.58203 z m -12.77734,-5.21484 c 2.3125,0.625 3.6875,2.94531 3.08594,5.21484 -5.46485,20.59766 -12.15235,33.125 -20.0625,37.58203 -12.63281,7.11719 -28.78125,2.89063 -36.07422,-9.43359 -7.289061,-12.32422 -2.964842,-28.08203 9.66797,-35.19922 7.91015,-4.45703 22.37109,-3.84766 43.38281,1.83594 z m 0,0"
       style="fill:url(#linearGradient1214);fill-opacity:1;fill-rule:evenodd;stroke:none"
       inkscape:connector-curvature="0" />
  </g>
</svg>
