<svg xmlns="http://www.w3.org/2000/svg" xmlns:xlink="http://www.w3.org/1999/xlink" viewBox="0 0 85.725003 61.912502" height="234" width="324"><defs><linearGradient id="a"><stop offset="0" stop-color="#f5002c"/><stop offset="1" stop-color="#003356"/></linearGradient><linearGradient xlink:href="#a" id="b" gradientUnits="userSpaceOnUse" x1="85.725006" y1="61.912502" x2="-.000002" y2="0"/></defs><rect width="85.725006" height="61.912502" x="-.000002" ry="0" fill="url(#b)" paint-order="fill markers stroke"/><path d="M0 59.490426h79.662324c2.130755 0 3.846277-1.715521 3.846277-3.846277v-7.481197c0-2.130756-1.715522-3.846277-3.846277-3.846277H0v15.173751z" fill="#8a163e" paint-order="fill markers stroke"/><path d="M13.300874 4.521292c-2.999645 0-5.414459 2.414816-5.414459 5.414461V32.87657c0 2.999647 2.414814 5.414461 5.414459 5.414461h11.568343l4.470737 4.470738c.817986.817986 2.135015.817986 2.953001 0l4.470738-4.470738h28.790122c2.999647 0 5.414462-2.414814 5.414462-5.414461V9.935753c0-2.999645-2.414815-5.41446-5.414462-5.41446z" opacity=".7" fill="#7f1940" paint-order="fill markers stroke"/><rect width="55.725548" height="9.805349" x="11.427076" y="24.528864" ry="0" fill="#f8f8f8" paint-order="fill markers stroke"/><path d="M13.066386 22.418787c-2.07209 0-3.74034 1.668251-3.74034 3.74034v6.544821c0 2.07209 1.66825 3.74034 3.74034 3.74034h52.447447c2.07209 0 3.739822-1.66825 3.739822-3.74034v-6.54482c0-2.07209-1.667733-3.74034-3.739822-3.74034H13.066386zm2.69906 3.819922h.625802l-.128158 1.226283 1.226282-.3452.0894.58756-1.175122.095602.76016 1.00924-.54932.300242-.542602-1.117762-.49196 1.117762-.567924-.300242.746724-1.00924-1.162203-.095601.0894-.58756 1.213363.345199-.133842-1.226283zm38.435383 0h.56172v1.424202c0 .17028-.010236.32953-.031522.478525h.03824c.110683-.174538.259694-.306446.447003-.395843.191564-.089395.39772-.13384.619083-.13384.417187-.000002.73037.100161.938961.300239.208592.195823.312643.512892.312643.951362v2.22829h-.555522v-2.190047c0-.549153-.255522-.823725-.766363-.823725-.38313 0-.646944.108456-.791681.325562-.14048.21285-.210841.519166-.210841.919324v1.768885h-.561721V26.23871zm4.228682.146761c.08514 0 .159387.029803.223242.0894.068111.05534.10232.144749.10232.2682 0 .119198-.034209.208603-.10232.2682-.063855.0596-.138102.0894-.223242.0894-.093655 0-.172824-.0298-.236678-.0894-.063857-.059597-.095602-.149002-.095602-.2682 0-.123451.031745-.21286.095602-.2682.063854-.059597.143023-.0894.236678-.0894zm-36.915061.076997c.34056.000002.608263.086947.804085.261485.200079.170278.30024.410641.30024.721402 0 .26819-.086946.496372-.261483.683678-.17028.18731-.387706.357312-.65164.510564l1.232483 1.188043c.110682-.13197.200089-.28344.2682-.45372.07237-.174539.131975-.361644.178802-.561725h.56844c-.068112.27245-.153113.52551-.255281.759646-.102168.234135-.234592.438861-.396359.6134l.932243.906403h-.759643l-.555522-.5364c-.200079.178792-.423337.323398-.670243.43408-.246906.110684-.54739.1664-.90072.1664-.438471 0-.787288-.108456-1.046965-.325562-.259677-.217107-.38964-.525883-.38964-.926042 0-.32779.087462-.58966.262-.785482.178793-.20008.419155-.38524.721402-.555521-.136224-.153252-.263726-.317424-.382922-.491961-.11494-.174535-.1726-.378746-.1726-.612881 0-.315018.10405-.559787.312643-.734322.21285-.174538.500635-.261483.86248-.261485zm20.229255.006202c.255421 0 .495784.023452.721405.07028.229878.046827.442897.112782.63872.19792l-.21704.498163c-.161766-.07237-.344985-.134435-.549323-.185518-.200078-.051086-.408694-.076483-.6258-.076483-.544896 0-.97042.16417-1.276924.49196-.302247.32779-.453721.776767-.453719 1.347203 0 .361847.057658.683321.172599.964285.119195.276704.304358.493612.555522.651121.251163.153252.580932.22996.989602.22996.20008 0 .3706-.010753.51108-.032038.14048-.021286.267983-.046683.382923-.07648v-1.353924h-1.002522v-.510564h1.577163v2.235007c-.246904.080883-.49556.140486-.746723.1788-.251164.038312-.536488.057362-.855763.057362-.472527 0-.87071-.093814-1.194242-.28112-.323532-.191566-.570243-.46173-.740524-.810805-.166023-.35333-.249078-.770562-.249078-1.251604 0-.476781.093294-.889608.2806-1.238684.18731-.349072.455529-.619754.804604-.811318.35333-.195823.779373-.293523 1.27744-.293523zm-6.7076.044442h.517281l1.775085 4.578532h-.593762l-.54932-1.411285h-1.807126l-.542602 1.411285h-.581358l1.781802-4.578532zm-23.399089.019121h2.547648v.504878h-1.973006v1.615406h1.851567v.504362h-1.851567v1.934765h-.574642v-4.55941zm6.731889 0h.68368l-.15968 3.27577h-.36432l-.15968-3.27577zm6.136577 0h1.647444v.33228l-.536401.12764v3.64629l.536401.121438v.331763h-1.647444v-.331763l.5364-.121439v-3.646289l-.5364-.12764v-.33228zm2.533694 0h1.405084c.459755 0 .857937.085519 1.194241.255797.336304.17028.595712.421396.778764.753443.183052.32779.274402.736211.274402 1.225764 0 .770517-.21056 1.35192-.632002 1.743565-.417187.387387-1.000532.580842-1.749764.580842h-1.270725v-4.55941zm4.300514 0h1.647444v.33228l-.5364.12764v3.64629l.5364.121438v.331763H31.33969v-.331763l.5364-.121439v-3.646289l-.5364-.12764v-.33228zm-9.844878.389639c-.178793 0-.325344.046908-.440283.14056-.110682.093654-.16588.223618-.16588.389641 0 .153252.040039.295913.120922.427882.080883.127709.198148.27037.3514.427878.251162-.144737.429976-.281048.536401-.40876.110682-.131966.165881-.283437.165881-.453718 0-.153252-.050794-.27881-.152962-.376721-.102168-.097912-.240941-.146762-.415479-.146762zm6.119008.10232v3.57601h.619598c1.23453 0 1.852084-.604856 1.852084-1.813843 0-.60875-.151472-1.053325-.453718-1.334286-.29799-.285218-.72157-.427882-1.270723-.427882h-.747241zm7.671366.083198c-.0298.131969-.064008.261413-.10232.389125-.038314.123452-.070059.22167-.095601.29404l-.517282 1.379243h1.442807l-.510564-1.379244c-.012771-.034057-.034279-.096123-.064079-.18552a21.090046 21.090046 0 01-.0894-.2744c-.02554-.097911-.046532-.172159-.06356-.223244zm10.49755.497644c.063855 0 .131752.004405.204121.01292.076626.004257.142582.013067.197922.025839l-.070279.516763c-.055343-.01277-.11689-.023008-.185002-.031523-.063854-.008514-.12592-.01292-.18552-.01292-.174535 0-.33819.048853-.491443.146762-.153252.093655-.276865.228024-.37052.402561-.089397.170278-.133842.370084-.133842.599964v1.826244h-.56224v-3.42253h.45992l.06408.625802h.02532c.110684-.187309.253347-.34902.427882-.485243.174538-.136223.38121-.20464.619602-.20464zm6.117974 0c.421442 0 .760021.147069 1.015442.440801.259675.293733.389123.736362.389123 1.328084 0 .58321-.129448 1.025837-.389123 1.328084-.25542.302247-.59646.45372-1.02216.45372-.263935 0-.482787-.04885-.657325-.14676-.17028-.10217-.30465-.219433-.402558-.351402h-.03824c.008511.072369.017322.163722.025836.274402.008514.110683.012404.206439.012404.287322v1.405083h-.561724v-4.955255h.45992l.07648.466122h.025324c.102166-.148995.236535-.274553.402558-.376722.166023-.102166.387337-.15348.664043-.15348zm9.298657 0c.174535 0 .342596.019566.504362.057878.161767.034057.293672.076557.39584.127642l-.172081.466122c-.10217-.038314-.221377-.074467-.3576-.108521-.136224-.034057-.264245-.05116-.38344-.05116-.672605 0-1.008724.431874-1.008724 1.296045 0 .412928.081113.73.24288.951363.166023.217106.410789.326078.734321.326078.187307 0 .350962-.019564.491443-.057878.144737-.038312.276645-.084701.39584-.140041v.497641c-.114937.0596-.24244.10456-.38292.134361-.136224.034054-.30234.05116-.49816.05116-.302248 0-.572414-.062066-.810806-.18552-.234135-.123453-.419296-.314963-.555522-.574641-.131966-.259678-.197919-.59139-.197919-.995805 0-.421444.069842-.764429.210323-1.028361.14048-.263935.33005-.45739.568441-.580843.242647-.123454.517219-.18552.823722-.18552zm2.723349 0c.208592 0 .402047.02151.580842.06408.183052.038314.35357.093511.51108.16588l-.19172.447003c-.144737-.059598-.295693-.110392-.453202-.152964-.157509-.042569-.31922-.064077-.485243-.064077-.229878 0-.406747.038611-.530199.115237-.119197.072369-.1788.172014-.1788.299723 0 .093654.027858.174768.083198.24288.05534.063857.146693.127865.274403.19172.131966.0596.306374.131902.523483.217042.217106.080883.402267.163939.55552.249079.153254.08514.270517.18919.3514.312642.080883.119198.121439.270153.121439.453202 0 .332047-.123614.583163-.37052.753444-.246904.17028-.579136.255799-.99632.255799-.238393 0-.444548-.01905-.619083-.057362-.17028-.038314-.321755-.09157-.45372-.159681v-.51108c.136222.068112.300394.132122.49196.19172.19582.055343.393682.082682.593762.082682.285218 0 .49189-.044445.619599-.133842.127711-.093652.191204-.217268.191204-.37052 0-.08514-.023453-.161848-.07028-.22996-.046828-.068112-.131828-.136009-.255282-.20412-.119195-.068112-.291661-.14482-.517282-.22996-.221364-.08514-.410414-.170144-.567923-.255284-.157509-.08514-.27918-.187245-.364318-.30644-.08514-.119195-.127643-.272614-.127643-.45992 0-.289476.117266-.512734.351401-.670243.238393-.157509.549114-.23668.932244-.23668zm-15.933397.00672c.417187 0 .725448.09135.925526.2744.200078.183052.300241.474726.300241.874882v2.330608h-.408763l-.108518-.485243h-.025324c-.148994.18731-.306297.325567-.47232.414962-.161767.089398-.387486.13436-.676964.13436-.31076 0-.568224-.081113-.772562-.242879-.204335-.166023-.306956-.42349-.306956-.772562 0-.340561.134369-.602432.402558-.785482.268192-.187309.681017-.289414 1.238684-.306443l.581361-.019119v-.204123c0-.285218-.062066-.483597-.185518-.594278-.123454-.110683-.297862-.16588-.523483-.16588-.178795 0-.349314.027857-.51108.083198-.161766.051083-.312722.110688-.453202.1788l-.172601-.42168c.148997-.080883.325866-.14878.530201-.20412.204335-.0596.417357-.089403.63872-.0894zm10.15287.05736h.561724v3.42253h-.561724v-3.42253zm-6.343798.40876c-.349076 0-.595786.0977-.740524.293523-.14048.19582-.215244.493845-.223758.894003v.10852c0 .421443.068413.747323.204636.9772.140484.225621.397947.338482.772565.338482.208592 0 .378595-.05766.510561-.1726.136226-.114939.236387-.2703.300242-.466123.068111-.200078.10232-.427741.10232-.683162 0-.391644-.076709-.704823-.22996-.938958-.148995-.234136-.381064-.350886-.696082-.350886zm-30.565061.836641c-.229878.136226-.410636.274481-.542603.414962-.12771.14048-.19172.325644-.19172.555522 0 .234135.078653.421243.236162.561723.157509.140481.368069.210839.632003.210839.272448 0 .506977-.04496.7028-.134358.195821-.089397.359475-.19539.491442-.318844l-1.328084-1.289844zm27.426234.504362l-.504362.019121c-.425701.01703-.721778.084926-.887801.204121-.161766.119198-.242364.287256-.242364.504362 0 .191567.057661.332283.172601.42168.119195.089397.27015.133842.453202.133842.289476 0 .529836-.078653.721403-.236162.191563-.161763.287321-.408477.287321-.74052v-.306444zm-29.952178.900205c.106425 0 .198292.031745.274918.0956.080883.063857.120923.17477.120923.33228 0 .153251-.04004.263651-.120923.331763-.076626.068111-.168493.10232-.274918.10232-.110682 0-.203977-.034209-.280603-.10232-.076626-.068112-.115239-.178512-.115239-.331764 0-.157509.038613-.268422.115239-.33228.076626-.063854.16992-.095599.280603-.095599z" fill="#a14565" paint-order="fill markers stroke"/><rect width="55.725548" height="9.805349" x="11.427076" y="8.694428" ry="0" fill="#f8f8f8" paint-order="fill markers stroke"/><path d="M13.066386 6.584611c-2.07209 0-3.74034 1.668251-3.74034 3.74034v6.54482c0 2.07209 1.66825 3.739824 3.74034 3.739824h52.447447c2.07209 0 3.739822-1.667734 3.739822-3.739823v-6.54482c0-2.07209-1.667733-3.74034-3.739822-3.74034H13.066386zm17.950843 3.819922h.561724v4.852934h-.561724v-4.852934zm17.971514 0h.56224v1.423686c0 .17028-.010756.330045-.032041.47904h.03824c.110683-.174536.259694-.306444.447003-.395841.191563-.089397.398235-.133842.619598-.133842.417188 0 .729854.099644.938446.299723.208592.195822.312642.512892.312642.951364v2.228804h-.555522V13.06742c0-.549153-.255005-.823722-.765844-.823722-.38313 0-.647462.108454-.7922.32556-.14048.212851-.210322.519167-.210322.919325v1.768884h-.56224v-4.852934zm4.228682.146761c.08514 0 .159388.029803.223242.0894.068112.055342.10232.144748.10232.268201 0 .119196-.034208.208603-.10232.2682-.063854.059599-.138102.089401-.223242.089401-.093654 0-.172823-.029802-.236678-.0894-.063854-.059598-.095601-.149005-.095601-.2682 0-.123454.031747-.21286.095601-.268202.063855-.059597.143024-.0894.236678-.0894zm-16.685803.0832c.255419 0 .495782.023452.721403.07028.229878.046826.442899.11278.63872.19792l-.21704.497644c-.161767-.072369-.344986-.133918-.54932-.185002-.200081-.051084-.408697-.07648-.625804-.07648-.544896 0-.97042.163653-1.276924.491442-.302247.32779-.453718.777283-.453718 1.347721 0 .361845.057658.682804.172598.963766.119195.276705.304358.49413.555522.65164.251164.153252.580933.22996.989603.22996.20008 0 .370599-.010754.51108-.03204.140483-.021284.267983-.046681.382923-.07648v-1.353923h-1.002522v-.51108h1.577163v2.235006c-.246904.080883-.49556.140487-.746723.1788-.251164.038313-.536488.057361-.855763.057361-.472525 0-.87071-.093295-1.194242-.280603-.323533-.191565-.570244-.462246-.740524-.81132-.16602-.35333-.249079-.770045-.249079-1.251087 0-.476783.09381-.890126.28112-1.2392.187306-.349074.455528-.619238.8046-.810804.353333-.195822.778857-.293522 1.276927-.293522zm-17.824753.063561h1.647962v.33228l-.536402.12764v3.64629l.536402.120922v.33228h-1.647962v-.33228l.536401-.120922v-3.64629l-.536401-.12764v-.33228zm6.673495.3514h.331762v.785482h.989604v.434082h-.989604v1.979724c0 .208593.04885.363954.146761.466121.102168.097912.232132.146762.38964.146762.08514 0 .172603-.00635.262001-.01912.089395-.017029.1617-.034132.21704-.05116v.42788c-.059597.0298-.1446.053253-.255283.07028-.11068.021286-.21719.031523-.319359.031523-.178794 0-.344908-.029802-.49816-.0894-.148996-.063855-.270149-.17231-.363803-.325562-.093654-.153252-.14056-.368217-.14056-.644922V12.26902h-.485241v-.2682l.491443-.223243.223759-.72812zm-2.56832.721403c.408673 0 .71745.100161.926043.30024.208593.195822.312642.514836.312642.957565v2.228804h-.555522V13.06742c0-.549153-.255521-.823722-.766361-.823722-.378873 0-.640744.105993-.785482.318843-.144738.21285-.217041.519682-.217041.91984v1.775086H21.1646v-3.42253h.453202l.0832.466121h.032039c.110682-.178794.263582-.310701.459403-.395841.195822-.089397.402494-.134359.6196-.134359zm5.922638 0c.293733 0 .544849.06401.75344.19172.21285.12771.37456.308467.485244.542602.114938.229878.172598.500042.172598.810803v.338481H27.80244c.008514.387387.106214.683465.29352.887801.191567.20008.457843.30024.798402.30024.217106 0 .40862-.019048.574643-.05736.170278-.04257.344689-.102175.52348-.178801v.491443c-.174537.076626-.347.131825-.51728.165881-.170279.038313-.372547.057361-.60668.057361-.323532 0-.610801-.065954-.861965-.19792-.246906-.131968-.440362-.327368-.580842-.587045-.136224-.263934-.20464-.58541-.20464-.964282 0-.374616.062066-.696091.185518-.964282.127712-.268192.304065-.474863.529686-.6196.229878-.144739.496152-.217042.798401-.217042zm11.83597 0c.063854 0 .131751.004405.204122.01292.076626.004256.14258.01255.19792.02532l-.07028.517282c-.055342-.012771-.11689-.023526-.185001-.03204-.063855-.008514-.125405-.012402-.185002-.012402-.174538 0-.33871.04885-.491961.14676-.153252.093655-.276865.227507-.37052.402044-.089395.17028-.133842.370602-.133842.60048v1.826245h-.56224v-3.42253h.459923l.064077.625801h.025323c.11068-.187308.253344-.349017.427879-.485241.174538-.136224.381209-.204639.619601-.204639zm6.117973 0c.421441 0 .76002.147067 1.015442.4408.259675.293733.389122.736361.389122 1.328084 0 .58321-.129447 1.025838-.389122 1.328085-.255421.302247-.595945.453202-1.021644.453202-.263935 0-.483304-.04885-.657841-.146761-.170281-.102168-.30465-.218916-.402559-.350883h-.03824c.008514.072369.017322.16372.025837.274402.008514.110682.012403.206438.012403.28732v1.405083H45.0603v-4.955253h.45992l.07648.466121h.025323c.102167-.148995.236535-.274553.402559-.376721.166023-.102168.387336-.153479.664043-.153479zm9.298657 0c.174538 0 .342596.019048.504362.05736.161766.034057.293674.077075.39584.128158l-.172082.466122c-.102166-.038313-.221377-.074981-.3576-.109038-.136224-.034055-.264242-.050642-.38344-.050642-.672605 0-1.008724.431874-1.008724 1.296045 0 .412929.081114.729999.24288.951363.166023.217107.41079.325561.734322.325561.18731 0 .350962-.019047.491442-.05736.144738-.038313.276646-.08522.395843-.14056v.49816c-.11494.059599-.242443.10456-.382923.13436-.136223.034055-.30234.050642-.49816.050642-.302247 0-.572413-.061549-.810805-.185002-.234135-.123453-.419296-.314964-.55552-.574642-.131968-.259677-.197921-.591906-.197921-.996321 0-.421443.069842-.76391.210323-1.027844.14048-.263934.330049-.45739.568441-.580844.24265-.123453.517218-.185518.823722-.185518zm2.723348 0c.208593 0 .402048.021509.580843.064079.183052.038313.35357.093512.51108.165881l-.19172.447001c-.144738-.059598-.295693-.110909-.453202-.153479-.15751-.04257-.31922-.063562-.48524-.063562-.229879 0-.40675.038096-.530202.114722-.119195.072369-.1788.17253-.1788.30024 0 .093654.027858.174767.083198.24288.05534.063854.146693.127347.274402.191202.131966.059598.306377.131901.523484.217041.217106.080883.40227.16394.555521.24908.153252.08514.270516.189707.351399.31316.080883.119196.12144.270151.12144.453202 0 .332046-.123615.583162-.370522.753442-.246904.17028-.578617.255282-.995804.255282-.238392 0-.445064-.019048-.619599-.05736-.17028-.038314-.321236-.091569-.453202-.15968v-.510564c.136224.068112.299876.132121.491443.19172.19582.05534.393681.082682.593762.082682.285218 0 .49189-.044445.619598-.133842.127712-.093654.19172-.217268.19172-.37052 0-.08514-.023453-.161848-.070279-.22996-.046826-.068112-.132344-.13601-.255799-.204122-.119195-.068112-.291658-.14482-.517281-.22996-.221364-.08514-.410414-.170142-.567923-.255282-.15751-.08514-.279178-.187762-.364318-.306958s-.12764-.272096-.12764-.459403c0-.289477.117263-.513252.351398-.67076.238392-.15751.549113-.236162.932243-.236162zm-15.933396.006718c.417187 0 .725964.09135.926041.274402.200081.183051.299726.474724.299726.874882v2.330607h-.408244l-.109038-.485242h-.02532c-.148998.187308-.3063.325565-.472324.414962-.161766.089397-.387485.133842-.67696.133842-.310761 0-.568227-.080597-.772565-.242363-.204335-.166022-.30644-.423488-.30644-.772562 0-.34056.133852-.60243.402042-.785482.268192-.187308.681016-.289413 1.238684-.306441l.58136-.01912v-.20464c0-.285218-.062065-.48308-.185517-.593761-.123455-.110682-.297863-.165882-.523484-.165882-.178794 0-.348797.027342-.510563.082682-.161767.051085-.313238.11069-.453719.178801l-.172082-.421163c.148995-.080883.325348-.14878.529683-.204122.204337-.059598.417356-.0894.63872-.0894zm10.15287.05736h.561723v3.422531h-.561723v-3.42253zm-24.201624.395842c-.268192 0-.48121.086946-.63872.261483-.153252.17028-.244604.408698-.274402.715202h1.743046c-.004257-.289476-.072154-.523489-.204123-.702283-.131967-.18305-.340583-.274402-.6258-.274402zm17.857825.01292c-.349075 0-.595786.0977-.740524.293522-.14048.195821-.215243.493844-.223758.894002v.10852c0 .421443.068414.747324.204637.977202.140483.22562.39795.337964.772565.337964.208592 0 .378595-.057144.510561-.172083.136226-.114939.236387-.2703.300241-.466121.068112-.20008.10232-.427743.10232-.683163 0-.391644-.076708-.704826-.22996-.93896-.148995-.234136-.381064-.350883-.696082-.350883zm-3.138826 1.340486l-.504362.019637c-.425701.017028-.721262.084926-.887286.204122-.161766.119196-.24288.287255-.24288.504362 0 .191565.057662.332283.172602.42168.119195.089397.27015.133842.453202.133842.289475 0 .529836-.078653.721402-.236162.191567-.161766.287322-.408477.287322-.740523v-.306958z" fill="#a14565" paint-order="fill markers stroke"/><rect width="10.309211" height="10.326895" x="70.745674" y="46.806767" ry="1.732832" opacity=".2" fill="#fff" paint-order="fill markers stroke"/><path d="M64.275573 48.329635c-.293222 0-.529614.07611-.708999.227894-.179385.148338-.310467.363598-.393258.646472-.07934.282877-.119372.624578-.119372 1.024745 0 .596799.09844 1.063908.295071 1.401982.200083.334618.509143.502293.926558.502293.296677 0 .534268-.07611.713653-.227894.179384-.151789.310983-.368765.393774-.651639.08279-.286327.124023-.628026.124023-1.024742 0-.60025-.101875-1.06616-.305408-1.397331-.203531-.334621-.512075-.50178-.926042-.50178zm-7.358724.0052c-.23458 0-.446916.04295-.636654.129193-.18628.08279-.351721.184669-.49661.305406l.24288.305409c.141438-.11039.279389-.196811.413927-.258901.137988-.06209.297072-.09302.476457-.09302.193185 0 .350033.05326.470773.160197.120737.103492.180869.257421.180869.460954-.000003.165587-.03264.319-.09819.460436-.06555.137991-.162266.279376-.289904.424265-.12764.144888-.284488.310327-.470773.496609l-.967899.978237v.377753h2.442745v-.413963h-1.868104v-.02066l.771014-.760677c.189733-.186286.355172-.360829.49661-.522965.141438-.165584.251904-.332746.331245-.501777.07935-.169037.118856-.349936.118856-.543121 0-.307023-.09964-.546849-.299722-.719336-.200084-.175935-.472549-.264067-.817523-.264067zm10.268109 0c-.23458 0-.446921.04295-.636654.129193-.186285.08279-.351724.184669-.49661.305406l.243396.305409c.141436-.11039.279389-.196811.413927-.258901.137988-.06209.296556-.09302.475941-.09302.193183 0 .350036.05326.470773.160197.120735.103492.181382.257421.181382.460954 0 .165587-.03315.319-.0987.460436-.06555.137991-.16175.279376-.289391.424265-.127637.144888-.285003.310327-.471286.496609l-.967385.978237v.377753h2.442228v-.413963h-1.868101v-.02066l.771012-.760677c.189732-.186286.35569-.360829.497128-.522965.141436-.165584.251378-.332746.330729-.501777.07934-.169037.119372-.349936.119372-.543121 0-.307023-.100158-.546849-.300241-.719336-.200083-.175935-.472551-.264067-.81752-.264067zm-7.270875.05168l-.998905.776179.238228.305409.393258-.320911c.06899-.05865.125683-.106746.170532-.144695.04485-.03795.09518-.08485.150379-.140044-.0069.09659-.01201.189881-.01551.279572-.0035.08969-.0052.208743-.0052.357084v2.58227h.444934v-3.694856zm4.36149.331245c.275976 0 .472339.125926.589629.377754.120735.25183.181385.629605.181385 1.133266 0 .510556-.06065.891767-.181385 1.143598-.11729.248377-.313653.372589-.589629.372589-.279424 0-.478023-.125929-.595313-.377757-.113839-.25183-.170532-.631322-.170532-1.13843 0-.503661.05669-.881436.170532-1.133266.11729-.251828.315889-.377754.595313-.377754zm-2.171444.51724c-.08624 0-.160117.02577-.222207.07751-.0621.05174-.09354.143314-.09354.274402 0 .12419.03145.214042.09354.269232.06209.05519.135969.08268.222207.08268.08969 0 .165804-.02749.227894-.08268.06554-.05519.09819-.145042.09819-.269232 0-.131088-.03264-.222663-.09819-.274402-.06209-.05174-.138202-.07751-.227894-.07751zm0 2.220018c-.08624 0-.160117.02577-.222207.07751-.0621.05174-.09354.141597-.09354.269235 0 .12419.03145.214045.09354.269234.06209.05519.135969.08268.222207.08268.08969 0 .165804-.02749.227894-.08268.06554-.05519.09819-.145044.09819-.269234 0-.127638-.03264-.217496-.09819-.269235-.06209-.05174-.138202-.07751-.227894-.07751zm-4.016809 1.419035c-.149878 0-.27056.03869-.362251.116273-.09169.07582-.1587.18614-.20102.33073-.04056.144589-.06098.318939-.06098.52348 0 .305046.05039.544471.150895.71727.102269.171035.260001.256315.473355.256315.151644 0 .273146-.03869.364837-.116271.09169-.07758.1587-.188725.20102-.333314.04232-.146349.06356-.321223.06356-.524 0-.306811-.05203-.544375-.156061-.71365-.104032-.171042-.261766-.256833-.473359-.256833zm9.531203 0c-.149879 0-.271079.03869-.362768.116273-.09169.07582-.158702.18614-.201023.33073-.04055.144589-.06046.318939-.06046.52348 0 .305046.04987.544471.150375.71727.102273.171035.260517.256315.473875.256315.15164 0 .273145-.03869.364836-.116271.09169-.07758.1587-.188725.20102-.333314.04232-.146349.06356-.321223.06356-.524 0-.306811-.05203-.544375-.156064-.71365-.104032-.171042-.261763-.256833-.473355-.256833zm-11.07116.0026c-.119903 0-.228581.02207-.325561.06614-.09522.04232-.179671.09434-.253731.156062l.124024.156065c.07229-.05642.143102-.100553.211873-.132292.07053-.03174.151707-.04754.243395-.04754.09874 0 .179092.02751.240814.08217.06172.0529.0925.131096.0925.235128 0 .08464-.01715.163353-.05064.235643-.0335.07053-.08256.142465-.147794.216524-.06524.07406-.145592.159028-.240813.254249l-.494543.499711v.19327h1.248502v-.211873h-.954982v-.01035l.394293-.388607c.09698-.09522.181441-.184298.25373-.267169.07229-.08464.12895-.170431.1695-.256831.04056-.0864.06046-.178752.06046-.277503 0-.156929-.05121-.279765-.153479-.367934-.10227-.08993-.241218-.134877-.417545-.134877zm3.027207 0c-.119904 0-.228582.02207-.325562.06614-.09522.04232-.179673.09434-.253733.156062l.124024.156065c.07229-.05642.143105-.100553.211873-.132292.07053-.03174.151707-.04754.243398-.04754.09874 0 .179102.02751.24081.08217.06171.0529.0925.131096.0925.235128 0 .08464-.01715.163353-.05064.235643-.0335.07053-.08255.142465-.147796.216524-.06524.07406-.145603.159028-.240811.254249l-.494543.499711v.19327h1.2485v-.211873h-.954979v-.01035l.39429-.388607c.09698-.09522.181443-.184298.253733-.267169.0723-.08464.128947-.170431.169497-.256831.04055-.0864.06046-.178752.06046-.277503 0-.156929-.05121-.279765-.15348-.367934-.102269-.08993-.241218-.134877-.417544-.134877zm4.000788 0c-.126955 0-.241075.0196-.341582.05839-.09874.03879-.181552.08456-.248563.137459l.11679.158647c.07053-.04585.14165-.08372.213939-.113686.07229-.02998.159732-.04496.262001-.04496.105799 0 .189437.02535.251145.07648.06171.04937.0925.120182.0925.211873 0 .107561-.04033.193659-.121438.258898-.07935.06524-.196749.09819-.351917.09819h-.185002v.198437h.18242c.167513 0 .296915.02617.388606.07906.09345.05113.14056.136107.14056.254247.000003.116374-.03838.207909-.114207.27492-.07406.06524-.195562.09767-.364834.09767-.08464 0-.172895-.01037-.264583-.03152-.09169-.02291-.176967-.05371-.256315-.0925v.216524c.07758.03879.158755.06547.243395.07958.08464.01588.176178.02376.274918.02376.167513 0 .303998-.02371.409795-.07131.107561-.04761.187097-.113797.238228-.198437.05114-.0864.07648-.184198.07648-.293524 0-.12519-.03704-.226793-.111104-.304374-.07406-.07758-.18684-.124986-.338478-.142626v-.01085c.119896-.02469.215238-.07374.285768-.147796.07054-.07582.105937-.177417.105937-.304374 0-.135771-.04875-.247738-.145728-.335897-.09521-.08816-.241244-.132291-.438732-.132291zm2.494939 0c-.126957 0-.240559.0196-.341066.05839-.09874.03879-.181552.08456-.248563.137459l.116271.158647c.07053-.04585.141653-.08372.213942-.113686.0723-.02998.159729-.04496.261999-.04496.105796 0 .189428.02535.251147.07648.06171.04937.0925.120182.0925.211873 0 .107561-.04033.193659-.121438.258898-.07935.06524-.19675.09819-.351917.09819h-.185002v.198437h.182417c.16751 0 .297434.02617.389125.07906.09345.05113.140042.136107.140042.254247 0 .116374-.03787.207909-.113687.27492-.07405.06524-.19608.09767-.365352.09767-.08464 0-.172379-.01037-.264068-.03152-.09169-.02291-.177493-.05371-.256831-.0925v.216524c.07758.03879.158756.06547.243396.07958.08464.01588.176178.02376.274918.02376.16751 0 .304514-.02371.41031-.07131.107561-.04761.186571-.113797.237713-.198437.05114-.0864.077-.184198.077-.293524 0-.12519-.03705-.226793-.111107-.304374-.07405-.07758-.186841-.124986-.338479-.142626v-.01085c.119902-.02469.214723-.07374.285253-.147796.07053-.07582.105937-.177417.105937-.304374 0-.135771-.04823-.247738-.145212-.335897-.09521-.08816-.241763-.132291-.439248-.132291zm-4.963522.02635l-.510564.396875.121441.156062.20102-.163814c.03526-.02997.06441-.05502.08733-.07441.02291-.01939.04827-.0431.07648-.07131-.0035.04938-.006.0973-.0078.143144-.0019.04584-.0026.106598-.0026.182417v1.319816h.227377V52.90301zm1.497584 0l-.703834 1.888773h.227893l.703316-1.888773zm2.494939 0l-.703319 1.888773h.227378l.703316-1.888773zm-7.011978.169497c.141063 0 .241324.06455.301274.193271.06172.128717.09302.321336.09302.578776 0 .260963-.0313.45626-.09302.584978-.05995.12696-.160211.190169-.301274.190169-.142824 0-.244424-.06404-.304374-.192752-.05818-.128722-.08733-.323196-.08733-.582395 0-.25744.02914-.450059.08733-.578776.05995-.12872.16155-.193271.304374-.193271zm9.531203 0c.141062 0 .241323.06455.301273.193271.06171.128717.0925.321336.0925.578776 0 .260963-.03079.45626-.0925.584978-.05995.12696-.160211.190169-.301273.190169-.142825 0-.244425-.06404-.304375-.192752-.05818-.128722-.08733-.323196-.08733-.582395 0-.25744.02914-.450059.08733-.578776.05995-.12872.16155-.193271.304375-.193271zm8.069883-3.47966c-.189103.03257-.353454.09055-.491961.174667-.138507.08411-.250989.194604-.336412.333312-.17085.277418-.236514.668763-.343649 1.08934-.107135.420576-.256135.87064-.47439 1.221112-.218255.350476-.05109.363935.415996.358635.375341-.0043 1.026676-.0029 1.57303-.000529.546354-.0024 1.19769-.0038 1.57303.000529.467082.0053.634251-.0081.415997-.358635-.218255-.350469-.367255-.800536-.47439-1.221112-.107135-.420577-.1728-.811922-.343649-1.08934-.08542-.138708-.197906-.249203-.336415-.333312-.138507-.08412-.302856-.142097-.491959-.174667-.115818-.01992-.627319-.01-.685228 0zm-.6072 3.830775c-.0029.0013-.0042.0048-.0062.0072-.0082.0099-.01654.01971-.02429.02997-.0078.01027-.015.0209-.02222.03152-.0071.0104-.01416.02077-.02066.03152-.0062.01029-.02048.01984-.01757.03152.08246.331325.403302.556459.859896.556557.456795.00009.776108-.225547.860415-.556557.0021-.0087-.0084-.01598-.01291-.02376-.0064-.01087-.01315-.02154-.02016-.03204-.0071-.01069-.01463-.02117-.02222-.03152-.0076-.01029-.01513-.02061-.02326-.03049-.0039-.0048-.0067-.0114-.01241-.01394-.467799-.210077-1.072531-.214299-1.538409 0z" fill="#fff" paint-order="fill markers stroke"/><rect width="10.309211" height="10.326895" x="41.641479" y="46.806767" ry="1.732832" opacity=".2" fill="#fff" paint-order="fill markers stroke"/><path fill="#fff" fill-rule="evenodd" d="M46.903536 49.520275c1.458862 0 2.645833 1.186971 2.645833 2.645834 0 1.458862-1.186971 2.645833-2.645833 2.645833-1.458988 0-2.645834-1.186971-2.645834-2.645833 0-1.458863 1.186846-2.645834 2.645834-2.645834zm.967647 1.354667c-.07014-.0526-.169645-.03839-.22225.03175-.05261.07014-.03839.169645.03175.22225.324596.243447.519311.624325.519311 1.037749 0 .716036-.580422 1.296458-1.296458 1.296458-.716037 0-1.296459-.580422-1.296459-1.296458 0-.413147.194444-.793762.518659-1.037224.07011-.05265.08426-.152159.03162-.222268-.05265-.07011-.15216-.08427-.222268-.03162-.403249.302811-.645509.777023-.645509 1.291111 0 .891386.722572 1.613958 1.613959 1.613958.891387 0 1.613958-.722572 1.613958-1.613958 0-.51443-.242593-.98896-.646311-1.291749zm-.967647-.560917c-.185209 0-.185209.185208-.185209.185208l.000055 1.484027c.000769.02151.01229.182849.185154.182849.185208 0 .185208-.185209.185208-.185209v-1.481667s0-.185208-.185208-.185208z"/><rect width="10.309211" height="10.326895" x="25.237297" y="46.806767" ry="1.732832" opacity=".2" fill="#fff" paint-order="fill markers stroke"/><rect width="10.309211" height="10.326895" x="13.066458" y="46.806767" ry="1.732832" opacity=".2" fill="#fff" paint-order="fill markers stroke"/><rect width=".402091" height="8.479537" x="10.420627" y="48.124958" ry=".165081" opacity=".2" fill="#fff" paint-order="fill markers stroke"/><rect width=".402091" height="8.479537" x="38.466476" y="48.124958" ry=".165081" opacity=".2" fill="#fff" paint-order="fill markers stroke"/><path fill="#fff" fill-rule="evenodd" d="M16.920202 51.96388l1.42584-1.42584.18706.18706-1.23878 1.23878 1.23878 1.238779-.18706.18706z"/><path d="M29.360252 53.881177c-1.390427-.161146-2.151041-.862463-2.045408-1.885948.03801-.368307.266713-.821793.555702-1.101893.222539-.215693.27177-.139333.08199.127181-.53576.752406-.461348 1.63478.171722 2.036262.901594.571774 2.852592.503293 4.38209-.153813l.462747-.198807v.255125c0 .251034-.0053.257654-.3332.412886-.434573.205761-1.045793.370733-1.786481.482183-.644585.09699-.85159.100718-1.489167.02683zm-.954649-1.522839c-.07338-.07338-.09383-.230409-.09383-.720477v-.626649l.164201.01889.164201.0189.01682.701584c.01398.583028.0021.701584-.07037.701584-.04796 0-.129417-.04222-.181023-.09383zm.562973-.630534v-.724364l.458475.02943c.624508.04008.676002.105489.676002.858682v.560623h-.358255v-.495588c0-.528899-.04832-.638889-.280634-.638889-.133665 0-.137332.01515-.137332.567238v.567239h-.358256zm1.53064.600611c-.155466-.12229-.157325-.132875-.157325-.895639v-.771887h.179128c.159225 0 .179128.0199.179128.179128 0 .139321.02653.179128.119418.179128.08757 0 .119419.0398.119419.149272 0 .109468-.03185.149273-.119419.149273-.107344 0-.119418.03981-.119418.393701 0 .343485.01524.397684.119418.424929.07728.02021.119419.08145.119419.173538 0 .184218-.217497.193396-.439768.01856zm.819939.01793c-.186865-.151366-.260753-.330464-.260753-.632041 0-.339875.210364-.613499.515698-.670781.375194-.07039.628624.139198.71057.587638l.04092.223909h-.458843c-.402764 0-.456413.01262-.438957.103258.02927.152014.322181.239593.477306.142716.107227-.06696.140814-.06123.243668.04162.119256.119258.119235.11933-.0646.214395-.240189.124206-.604743.119097-.765006-.01072zm.575178-.812365c0-.155626-.168118-.240478-.33017-.166642-.239309.109037-.187988.248896.09133.248896.163058 0 .238837-.0261.238837-.08225zm.668744.786823c-.04927-.04927-.07165-.347641-.07165-.955349v-.883697h.358255v.955349c0 .880159-.0085.955348-.107476.955348-.05911 0-.13972-.03225-.179128-.07165zm.525441-.105689c0-.127897.05006-.214347.179532-.310074.216579-.160123.47777-.6609.475959-.91255-.0034-.468513-.392425-.926979-.967713-1.140363-.260763-.09672-.468292-.116695-1.210365-.116491-1.088927.000294-1.457754.0833-2.701845.608-.04105.01732-.07464-.0075-.07464-.05505 0-.126887.843171-.502016 1.496894-.665972 2.136715-.535896 3.823475.09768 3.815923 1.433316-.0025.438037-.380149 1.038984-.786872 1.252062-.217959.114187-.226875.110537-.226875-.09287zm-4.776744-1.490554c0-.164513.01858-.183094.183094-.183094.164513 0 .181177.01666.1642.1642-.01484.128971-.05412.168255-.183093.183095-.147537.01698-.164201.000316-.164201-.164201z" fill="#fff"/></svg>