<?xml version="1.0" encoding="UTF-8" standalone="no"?>
<svg
   xmlns:dc="http://purl.org/dc/elements/1.1/"
   xmlns:cc="http://creativecommons.org/ns#"
   xmlns:rdf="http://www.w3.org/1999/02/22-rdf-syntax-ns#"
   xmlns:svg="http://www.w3.org/2000/svg"
   xmlns="http://www.w3.org/2000/svg"
   width="324px"
   height="234px"
   viewBox="0 0 324 234"
   version="1.1"
   id="svg24">
  <metadata
     id="metadata28">
    <rdf:RDF>
      <cc:Work
         rdf:about="">
        <dc:format>image/svg+xml</dc:format>
        <dc:type
           rdf:resource="http://purl.org/dc/dcmitype/StillImage" />
        <dc:title></dc:title>
      </cc:Work>
    </rdf:RDF>
  </metadata>
  <defs
     id="defs7">
    <linearGradient
       id="linear0"
       gradientUnits="userSpaceOnUse"
       x1="-1.455352"
       y1="64.761543"
       x2="181.728165"
       y2="64.761543"
       gradientTransform="matrix(1.8,0,0,1.8,-108.00001,1.494914)">
      <stop
         offset="0"
         style="stop-color:rgb(100%,55.686277%,0%);stop-opacity:1;"
         id="stop2" />
      <stop
         offset="1"
         style="stop-color:rgb(94.117647%,53.333336%,1.960784%);stop-opacity:1;"
         id="stop4" />
    </linearGradient>
    <clipPath
       id="a">
      <path
         d="M -200,-175 H 800 V 387 H -200 Z"
         id="path2" />
    </clipPath>
    <clipPath
       id="b">
      <path
         style="clip-rule:evenodd"
         d="m 370,89 a 24,24 0 1 1 -34,0 24,24 0 0 1 34,0 z M 353,66 a 40,40 0 1 1 -0.05,0 z m 101,23 a 24,24 0 1 1 -34,0 24,24 0 0 1 34,0 z M 465.3,77.7 A 40,40 0 1 1 437,66 40,40 0 0 1 465.28,77.72 Z m -212.3,68.1 4,0.2 h 60 l -0.2,-4 c -0.54,-6.6 -5.2,-11.4 -11.8,-11.8 l -4,-0.2 h -36 l 48,-48 -0.2,-4 A 12.1,12.1 0 0 0 301,66.2 L 297,66 h -60 l 0.2,4 A 12.41,12.41 0 0 0 249,81.8 l 4,0.2 h 36 l -48,48 0.2,4 A 12.23,12.23 0 0 0 253,145.8 Z M 526.84,90 a 17.29,17.29 0 0 1 2,8 l 0.2,4 v 28 l 0.2,4 A 12.29,12.29 0 0 0 541,145.8 l 4,0.2 v -44 l 0.2,-4 a 17.44,17.44 0 0 1 2,-8.05 16,16 0 0 1 27.69,0.05 17.54,17.54 0 0 1 1.94,8 l 0.2,4 v 28 l 0.2,4 A 12.24,12.24 0 0 0 589,145.8 l 4,0.2 V 98 A 32,32 0 0 0 537,76.83 32,32 0 0 0 495.08,71.48 C 492,68 485,66 481,66 v 80 l 4,-0.2 c 6.68,-0.44 11.54,-5.16 11.8,-11.8 l 0.2,-4 v -28 l 0.2,-4 a 17.45,17.45 0 0 1 2,-8 16,16 0 0 1 27.68,0 z"
         id="path5" />
    </clipPath>
    <clipPath
       id="c">
      <circle
         cx="107"
         cy="106"
         r="102"
         id="circle8" />
    </clipPath>
    <clipPath
       id="d">
      <circle
         cx="107"
         cy="106"
         r="100"
         id="circle11" />
    </clipPath>
    <clipPath
       id="e">
      <circle
         cx="107"
         cy="106"
         r="92"
         id="circle14" />
    </clipPath>
    <clipPath
       id="f">
      <path
         style="clip-rule:evenodd"
         d="m 135,94.06 26,-19 c 2.27,-1.85 4,-1.42 4,2 V 135 c 0,3.84 -2.16,3.4 -4,2 L 135,118 Z M 47,77.2 v 43.2 A 17.69,17.69 0 0 0 64.77,138 h 63 A 3.22,3.22 0 0 0 131,134.8 V 91.6 A 17.69,17.69 0 0 0 113.23,74 h -63 A 3.22,3.22 0 0 0 47,77.2 Z"
         id="path17" />
    </clipPath>
    <clipPath
       clipPathUnits="userSpaceOnUse"
       id="clipPath1158">
      <rect
         id="rect1160"
         style="fill:#0000ff;fill-opacity:1;stroke:none;stroke-width:3.23513"
         height="757.01984"
         width="1048.1814"
         y="60.191486"
         x="-1093.3293"
         transform="scale(-1,1)" />
    </clipPath>
  </defs>
  <rect
     id="rect1164"
     style="fill:#ff21a3;fill-opacity:1;stroke:none"
     height="234"
     width="324"
     y="-5.7617189e-07"
     x="-324"
     transform="scale(-1,1)" />
  <path
     id="polygon4"
     style="fill:#444444;fill-opacity:0.1;stroke-width:0.309107"
     d="M -13.95555,74.126446 H 41.683678 L 13.864064,27.760423 Z" />
  <path
     id="polygon6"
     d="M 41.683678,-18.6056 H -13.95555 l 27.819614,46.366023 z"
     style="fill-opacity:0.1;stroke-width:0.309107" />
  <path
     id="polygon8"
     style="fill:#aaaaaa;fill-opacity:0.1;stroke-width:0.309107"
     d="M 97.322905,-18.6056 H 41.683678 l 27.819613,46.366023 z" />
  <path
     id="polygon10"
     style="fill:#dddddd;fill-opacity:0.1;stroke-width:0.309107"
     d="M 97.322905,74.126446 H 152.96213 L 125.14252,27.760423 Z" />
  <path
     id="polygon12"
     style="fill:#999999;fill-opacity:0.1;stroke-width:0.309107"
     d="M 152.96213,-18.6056 H 97.322905 l 27.819615,46.366023 z" />
  <path
     id="polygon14"
     d="m 152.96213,74.126446 h 55.63923 L 180.78175,27.760423 Z"
     style="fill-opacity:0.1;stroke-width:0.309107" />
  <path
     id="polygon16"
     style="fill:#dddddd;fill-opacity:0.1;stroke-width:0.309107"
     d="m 208.60136,-18.6056 h -55.63923 l 27.81962,46.366023 z" />
  <path
     id="polygon18"
     style="fill:#444444;fill-opacity:0.1;stroke-width:0.309107"
     d="m 208.60136,74.126446 h 55.63923 L 236.42097,27.760423 Z" />
  <path
     id="polygon20"
     style="fill:#ffffff;fill-opacity:0.1;stroke-width:0.309107"
     d="m 264.24059,-18.6056 h -55.63923 l 27.81961,46.366023 z" />
  <path
     id="polygon22"
     style="fill:#dddddd;fill-opacity:0.1;stroke-width:0.309107"
     d="m 264.24059,74.126446 h 55.63923 L 292.0602,27.760423 Z" />
  <path
     id="polygon24"
     style="fill:#444444;fill-opacity:0.1;stroke-width:0.309107"
     d="M 319.87982,-18.6056 H 264.24059 L 292.0602,27.760423 Z" />
  <path
     id="polygon26"
     style="fill:#dddddd;fill-opacity:0.1;stroke-width:0.309107"
     d="M -13.95555,166.85849 H 41.683678 L 13.864064,120.49247 Z" />
  <path
     id="polygon28"
     d="M 41.683678,74.126446 H -13.95555 l 27.819614,46.366024 z"
     style="fill-opacity:0.1;stroke-width:0.309107" />
  <path
     id="polygon30"
     style="fill:#666666;fill-opacity:0.1;stroke-width:0.309107"
     d="M 41.683678,166.85849 H 97.322905 L 69.503291,120.49247 Z" />
  <path
     id="polygon32"
     style="fill:#aaaaaa;fill-opacity:0.1;stroke-width:0.309107"
     d="M 97.322905,74.126446 H 41.683678 l 27.819613,46.366024 z" />
  <path
     id="polygon34"
     style="fill:#dddddd;fill-opacity:0.1;stroke-width:0.309107"
     d="M 97.322905,166.85849 H 152.96213 L 125.14252,120.49247 Z" />
  <path
     id="polygon36"
     style="fill:#999999;fill-opacity:0.1;stroke-width:0.309107"
     d="M 152.96213,74.126446 H 97.322905 l 27.819615,46.366024 z" />
  <path
     id="polygon38"
     style="fill:#999999;fill-opacity:0.1;stroke-width:0.309107"
     d="m 152.96213,166.85849 h 55.63923 l -27.81961,-46.36602 z" />
  <path
     id="polygon40"
     style="fill:#ffffff;fill-opacity:0.1;stroke-width:0.309107"
     d="m 208.60136,74.126446 h -55.63923 l 27.81962,46.366024 z" />
  <path
     id="polygon42"
     d="m 208.60136,166.85849 h 55.63923 l -27.81962,-46.36602 z"
     style="fill-opacity:0.1;stroke-width:0.309107" />
  <path
     id="polygon44"
     style="fill:#dddddd;fill-opacity:0.1;stroke-width:0.309107"
     d="m 264.24059,74.126446 h -55.63923 l 27.81961,46.366024 z" />
  <path
     id="polygon46"
     style="fill:#aaaaaa;fill-opacity:0.1;stroke-width:0.309107"
     d="m 264.24059,166.85849 h 55.63923 L 292.0602,120.49247 Z" />
  <path
     id="polygon48"
     style="fill:#444444;fill-opacity:0.1;stroke-width:0.309107"
     d="M 319.87982,74.126446 H 264.24059 L 292.0602,120.49247 Z" />
  <path
     id="polygon50"
     style="fill:#222222;fill-opacity:0.1;stroke-width:0.309107"
     d="M -13.95555,259.59054 H 41.683678 L 13.864064,213.22451 Z" />
  <path
     id="polygon52"
     d="M 41.683678,259.59054 H 97.322905 L 69.503291,213.22451 Z"
     style="fill-opacity:0.1;stroke-width:0.309107" />
  <path
     id="polygon54"
     style="fill:#dddddd;fill-opacity:0.1;stroke-width:0.309107"
     d="M 97.322905,166.85849 H 41.683678 l 27.819613,46.36602 z" />
  <path
     id="polygon56"
     d="M 152.96213,166.85849 H 97.322905 l 27.819615,46.36602 z"
     style="fill-opacity:0.1;stroke-width:0.309107" />
  <path
     id="polygon58"
     d="m 152.96213,259.59054 h 55.63923 l -27.81961,-46.36603 z"
     style="fill-opacity:0.1;stroke-width:0.309107" />
  <path
     id="polygon60"
     style="fill:#444444;fill-opacity:0.1;stroke-width:0.309107"
     d="m 208.60136,166.85849 h -55.63923 l 27.81962,46.36602 z" />
  <path
     id="polygon62"
     style="fill:#aaaaaa;fill-opacity:0.1;stroke-width:0.309107"
     d="m 208.60136,259.59054 h 55.63923 l -27.81962,-46.36603 z" />
  <path
     id="polygon64"
     style="fill:#666666;fill-opacity:0.1;stroke-width:0.309107"
     d="m 264.24059,166.85849 h -55.63923 l 27.81961,46.36602 z" />
  <path
     id="polygon66"
     style="fill:#999999;fill-opacity:0.1;stroke-width:0.309107"
     d="m 264.24059,259.59054 h 55.63923 L 292.0602,213.22451 Z" />
  <path
     id="polygon68"
     style="fill:#999999;fill-opacity:0.1;stroke-width:0.309107"
     d="M 13.864064,27.760423 H 69.503291 L 41.683678,-18.6056 Z" />
  <path
     id="polygon70"
     style="fill:#444444;fill-opacity:0.1;stroke-width:0.309107"
     d="M 69.503291,27.760423 H 125.14252 L 97.322905,-18.6056 Z" />
  <path
     id="polygon72"
     style="fill:#ffffff;fill-opacity:0.1;stroke-width:0.309107"
     d="m 125.14252,27.760423 h 55.63923 L 152.96213,-18.6056 Z" />
  <path
     id="polygon74"
     d="M 236.42097,27.760423 H 292.0602 L 264.24059,-18.6056 Z"
     style="fill-opacity:0.1;stroke-width:0.309107" />
  <path
     id="polygon76"
     style="fill:#222222;fill-opacity:0.1;stroke-width:0.309107"
     d="M -41.775164,120.49247 H 13.864064 L -13.95555,74.126446 Z" />
  <path
     id="polygon78"
     style="fill:#ffffff;fill-opacity:0.1;stroke-width:0.309107"
     d="M 13.864064,27.760423 H -41.775164 L -13.95555,74.126446 Z" />
  <path
     id="polygon80"
     style="fill:#ffffff;fill-opacity:0.1;stroke-width:0.309107"
     d="M 13.864064,120.49247 H 69.503291 L 41.683678,74.126446 Z" />
  <path
     id="polygon82"
     style="fill:#666666;fill-opacity:0.1;stroke-width:0.309107"
     d="M 69.503291,27.760423 H 13.864064 l 27.819614,46.366023 z" />
  <path
     id="polygon84"
     style="fill:#222222;fill-opacity:0.1;stroke-width:0.309107"
     d="M 69.503291,120.49247 H 125.14252 L 97.322905,74.126446 Z" />
  <path
     id="polygon86"
     style="fill:#ffffff;fill-opacity:0.1;stroke-width:0.309107"
     d="M 125.14252,27.760423 H 69.503291 l 27.819614,46.366023 z" />
  <path
     id="polygon88"
     style="fill:#444444;fill-opacity:0.1;stroke-width:0.309107"
     d="m 125.14252,120.49247 h 55.63923 L 152.96213,74.126446 Z" />
  <path
     id="polygon90"
     style="fill:#222222;fill-opacity:0.1;stroke-width:0.309107"
     d="m 180.78175,27.760423 h -55.63923 l 27.81961,46.366023 z" />
  <path
     id="polygon92"
     style="fill:#aaaaaa;fill-opacity:0.1;stroke-width:0.309107"
     d="m 180.78175,120.49247 h 55.63922 L 208.60136,74.126446 Z" />
  <path
     id="polygon94"
     style="fill:#666666;fill-opacity:0.1;stroke-width:0.309107"
     d="m 236.42097,27.760423 h -55.63922 l 27.81961,46.366023 z" />
  <path
     id="polygon96"
     style="fill:#ffffff;fill-opacity:0.1;stroke-width:0.309107"
     d="M 236.42097,120.49247 H 292.0602 L 264.24059,74.126446 Z" />
  <path
     id="polygon98"
     style="fill:#999999;fill-opacity:0.1;stroke-width:0.309107"
     d="m 292.0602,27.760423 h -55.63923 l 27.81962,46.366023 z" />
  <path
     id="polygon100"
     d="M -41.775164,213.22451 H 13.864064 L -13.95555,166.85849 Z"
     style="fill-opacity:0.1;stroke-width:0.309107" />
  <path
     id="polygon102"
     style="fill:#666666;fill-opacity:0.1;stroke-width:0.309107"
     d="m 13.864064,120.49247 h -55.639228 l 27.819614,46.36602 z" />
  <path
     id="polygon104"
     style="fill:#aaaaaa;fill-opacity:0.1;stroke-width:0.309107"
     d="M 13.864064,213.22451 H 69.503291 L 41.683678,166.85849 Z" />
  <path
     id="polygon106"
     style="fill:#444444;fill-opacity:0.1;stroke-width:0.309107"
     d="M 69.503291,120.49247 H 13.864064 l 27.819614,46.36602 z" />
  <path
     id="polygon108"
     style="fill:#444444;fill-opacity:0.1;stroke-width:0.309107"
     d="M 69.503291,213.22451 H 125.14252 L 97.322905,166.85849 Z" />
  <path
     id="polygon110"
     style="fill:#999999;fill-opacity:0.1;stroke-width:0.309107"
     d="M 125.14252,120.49247 H 69.503291 l 27.819614,46.36602 z" />
  <path
     id="polygon112"
     style="fill:#666666;fill-opacity:0.1;stroke-width:0.309107"
     d="m 180.78175,120.49247 h -55.63923 l 27.81961,46.36602 z" />
  <path
     id="polygon114"
     style="fill:#222222;fill-opacity:0.1;stroke-width:0.309107"
     d="m 180.78175,213.22451 h 55.63922 l -27.81961,-46.36602 z" />
  <path
     id="polygon116"
     style="fill:#ffffff;fill-opacity:0.1;stroke-width:0.309107"
     d="M 236.42097,213.22451 H 292.0602 L 264.24059,166.85849 Z" />
  <path
     id="polygon118"
     style="fill:#222222;fill-opacity:0.1;stroke-width:0.309107"
     d="m 292.0602,120.49247 h -55.63923 l 27.81962,46.36602 z" />
  <path
     id="polygon120"
     style="fill:#dddddd;fill-opacity:0.1;stroke-width:0.309107"
     d="m 13.864064,213.22451 h -55.639228 l 27.819614,46.36603 z" />
  <path
     id="polygon122"
     style="fill:#444444;fill-opacity:0.1;stroke-width:0.309107"
     d="M 69.503291,213.22451 H 13.864064 l 27.819614,46.36603 z" />
  <path
     id="polygon124"
     style="fill:#ffffff;fill-opacity:0.1;stroke-width:0.309107"
     d="M 125.14252,213.22451 H 69.503291 l 27.819614,46.36603 z" />
  <path
     id="polygon126"
     style="fill:#aaaaaa;fill-opacity:0.1;stroke-width:0.309107"
     d="m 180.78175,213.22451 h -55.63923 l 27.81961,46.36603 z" />
  <path
     id="polygon128"
     style="fill:#ffffff;fill-opacity:0.1;stroke-width:0.309107"
     d="m 236.42097,213.22451 h -55.63922 l 27.81961,46.36603 z" />
  <path
     id="polygon130"
     style="fill:#222222;fill-opacity:0.1;stroke-width:0.309107"
     d="m 292.0602,213.22451 h -55.63923 l 27.81962,46.36603 z" />
  <path
     id="polygon132"
     style="fill:#222222;fill-opacity:0.1;stroke-width:0.309107"
     d="m 292.0602,120.49247 h 55.63923 L 319.87982,74.126446 Z" />
  <path
     id="polygon134"
     style="fill:#ffffff;fill-opacity:0.1;stroke-width:0.309107"
     d="M 347.69943,27.760423 H 292.0602 l 27.81962,46.366023 z" />
  <path
     id="polygon136"
     d="m 292.0602,213.22451 h 55.63923 l -27.81961,-46.36602 z"
     style="fill-opacity:0.1;stroke-width:0.309107" />
  <path
     id="polygon138"
     style="fill:#666666;fill-opacity:0.1;stroke-width:0.309107"
     d="M 347.69943,120.49247 H 292.0602 l 27.81962,46.36602 z" />
  <path
     id="polygon140"
     style="fill:#dddddd;fill-opacity:0.1;stroke-width:0.309107"
     d="M 347.69943,213.22451 H 292.0602 l 27.81962,46.36603 z" />
  <path
     d="m 124.53204,42.06408 h -16.0577 c -1.47998,0 -2.67628,1.196298 -2.67628,2.676283 v 8.028848 c 0,1.479985 1.1963,2.676283 2.67628,2.676283 1.47999,0 2.67629,-1.196298 2.67629,-2.676283 h 10.70513 c 0.003,1.479985 1.1963,2.676283 2.67628,2.676283 1.47998,0 2.67628,-1.196298 2.67628,-2.676283 v -8.028848 c 0,-1.479985 -1.1963,-2.676283 -2.67628,-2.676283 z"
     fill="#ccd1d9"
     id="path1239"
     style="stroke-width:2.67628" />
  <path
     d="m 215.52566,42.06408 h -16.0577 c -1.47998,0 -2.67628,1.196298 -2.67628,2.676283 v 8.028848 c 0,1.479985 1.1963,2.676283 2.67628,2.676283 1.47999,0 2.67628,-1.196298 2.67628,-2.676283 h 10.70514 c 0.003,1.479985 1.19629,2.676283 2.67628,2.676283 1.47998,0 2.67628,-1.196298 2.67628,-2.676283 v -8.028848 c 0,-1.479985 -1.1963,-2.676283 -2.67628,-2.676283 z"
     fill="#ccd1d9"
     id="path1241"
     style="stroke-width:2.67628" />
  <path
     d="m 223.55451,50.092928 h -8.02885 -16.0577 -74.93592 -16.0577 -8.02885 c -2.97067,0 -5.352562,2.408655 -5.352562,5.352566 V 138.41026 H 228.90707 V 55.445494 c 0,-2.943911 -2.40865,-5.352566 -5.35256,-5.352566 z"
     fill="#545c66"
     id="path1243"
     style="stroke-width:2.67628" />
  <path
     d="M 95.092928,138.41026 H 228.90707 l 16.0577,32.1154 H 223.55451 202.14424 178.0577 121.85576 100.44549 79.035231 Z"
     fill="#656d78"
     id="path1245"
     style="stroke-width:2.67628" />
  <path
     d="m 129.91137,117 c 2.97067,0 5.35256,2.37922 5.35256,5.35257 0,2.94391 -2.38189,5.35256 -5.35256,5.35256 -2.94391,0 -5.35257,-2.40865 -5.35257,-5.35256 0,-2.97335 2.40866,-5.35257 5.35257,-5.35257 z"
     id="path1247"
     style="fill:#ccd1d9;stroke-width:2.67628" />
  <path
     d="m 129.91137,79.53204 c 2.97067,0 5.35256,2.408655 5.35256,5.352566 0,2.967998 -2.38189,5.352566 -5.35256,5.352566 -2.94391,0 -5.35257,-2.384568 -5.35257,-5.352566 0,-2.943911 2.40866,-5.352566 5.35257,-5.352566 z"
     id="path1249"
     style="fill:#ccd1d9;stroke-width:2.67628" />
  <path
     d="m 111.20415,98.26602 c 2.94659,0 5.35257,2.40866 5.35257,5.35257 0,2.94391 -2.40598,5.35256 -5.35257,5.35256 -2.968,0 -5.35256,-2.40865 -5.35256,-5.35256 0,-2.94391 2.38189,-5.35257 5.35256,-5.35257 z"
     id="path1251"
     style="fill:#ccd1d9;stroke-width:2.67628" />
  <path
     d="m 111.20415,79.53204 c 2.94659,0 5.35257,2.408655 5.35257,5.352566 0,2.967998 -2.40598,5.352566 -5.35257,5.352566 -2.968,0 -5.35256,-2.384568 -5.35256,-5.352566 0,-2.943911 2.38189,-5.352566 5.35256,-5.352566 z"
     id="path1253"
     style="fill:#ccd1d9;stroke-width:2.67628" />
  <path
     d="m 129.91137,60.79806 c 2.97067,0 5.35256,2.408655 5.35256,5.352566 0,2.967997 -2.38189,5.352565 -5.35256,5.352565 -2.94391,0 -5.35257,-2.384568 -5.35257,-5.352565 0,-2.943911 2.40866,-5.352566 5.35257,-5.352566 z"
     id="path1255"
     style="fill:#ccd1d9;stroke-width:2.67628" />
  <path
     d="M 156.70096,78.622104 V 100.9423 h -8.05561 V 78.622104 c 1.20433,0.586106 2.56923,0.909936 4.01442,0.909936 1.4452,0 2.83686,-0.32383 4.04119,-0.909936 z"
     id="path1257"
     style="fill:#ccd1d9;stroke-width:2.67628" />
  <path
     d="m 156.70096,98.260668 c 1.47196,0 2.67628,1.207004 2.67628,2.676282 v 24.0919 c 0,1.46928 -1.20432,2.67628 -2.67628,2.67628 h -8.05561 c -1.47196,0 -2.67628,-1.207 -2.67628,-2.67628 v -24.0919 c 0,-1.469278 1.20432,-2.676282 2.67628,-2.676282 z"
     fill="#5d9cec"
     id="path1261"
     style="stroke-width:2.67628" />
  <path
     d="m 152.65977,60.79806 c 5.19199,0 9.36699,4.201764 9.36699,9.36699 0,3.717357 -2.16779,6.958336 -5.3258,8.457054 -1.20433,0.586106 -2.59599,0.909936 -4.04119,0.909936 -1.44519,0 -2.81009,-0.32383 -4.01442,-0.909936 -3.15801,-1.501395 -5.35257,-4.739697 -5.35257,-8.457054 0,-5.165226 4.20177,-9.36699 9.36699,-9.36699 z"
     fill="#e6e9ed"
     id="path1263"
     style="stroke-width:2.67628" />
  <path
     d="m 111.20415,60.79806 c 2.94659,0 5.35257,2.408655 5.35257,5.352566 0,2.967997 -2.40598,5.352565 -5.35257,5.352565 -2.968,0 -5.35256,-2.384568 -5.35256,-5.352565 0,-2.943911 2.38189,-5.352566 5.35256,-5.352566 z"
     fill="#ccd1d9"
     id="path1265"
     style="stroke-width:2.67628" />
  <path
     d="m 111.20415,117 c 2.94659,0 5.35257,2.37922 5.35257,5.35257 0,2.94391 -2.40598,5.35256 -5.35257,5.35256 -2.968,0 -5.35256,-2.40865 -5.35256,-5.35256 0,-2.97335 2.38189,-5.35257 5.35256,-5.35257 z"
     fill="#ccd1d9"
     id="path1267"
     style="stroke-width:2.67628" />
  <path
     d="m 129.91137,98.26602 c 2.97067,0 5.35256,2.40866 5.35256,5.35257 0,2.94391 -2.38189,5.35256 -5.35256,5.35256 -2.94391,0 -5.35257,-2.40865 -5.35257,-5.35256 0,-2.94391 2.40866,-5.35257 5.35257,-5.35257 z"
     fill="#ccd1d9"
     id="path1269"
     style="stroke-width:2.67628" />
  <path
     d="m 188.78959,64.812484 v 45.978536 c -1.20432,-0.59145 -2.56923,-0.90993 -4.01442,-0.90993 -1.44519,0 -2.8101,0.31848 -4.01443,0.90993 V 64.812484 c 0,-2.221315 1.79311,-4.014424 4.01443,-4.014424 2.22131,0 4.01442,1.793109 4.01442,4.014424 z"
     fill="#ccd1d9"
     id="path1271"
     style="stroke-width:2.67628" />
  <path
     d="m 212.9029,77.738931 v 45.951779 c 0,2.22131 -1.79311,4.01442 -4.01442,4.01442 -2.21864,0 -4.01443,-1.79311 -4.01443,-4.01442 v -45.951779 -0.02676 c 1.20433,0.586106 2.57191,0.909936 4.01443,0.909936 1.44519,0 2.81277,-0.32383 4.01442,-0.909936 z"
     fill="#ccd1d9"
     id="path1273"
     style="stroke-width:2.67628" />
  <path
     d="m 113.85367,151.79168 h 36.12982 c 2.22132,0 4.01442,1.79311 4.01442,4.01442 0,2.22132 -1.7931,4.01443 -4.01442,4.01443 h -40.14424 z"
     fill="#965353"
     id="path1275"
     style="stroke-width:2.67628" />
  <path
     d="m 116.52995,146.43911 -2.67628,5.35257 -4.01442,8.02885 -1.33814,2.67628 H 95.119691 l 8.028849,-16.0577 z"
     fill="#e6e9ed"
     id="path1277"
     style="stroke-width:2.67628" />
  <path
     d="m 95.092928,141.08655 c -1.479984,0 -2.676283,-1.1963 -2.676283,-2.67629 V 55.445494 c 0,-1.479984 1.196299,-2.676283 2.676283,-2.676283 1.479985,0 2.676283,1.196299 2.676283,2.676283 v 82.964766 c 0,1.47999 -1.196298,2.67629 -2.676283,2.67629 z"
     fill="#aab2bd"
     id="path1279"
     style="stroke-width:2.67628" />
  <path
     d="m 228.90707,141.08655 c -1.47998,0 -2.67628,-1.1963 -2.67628,-2.67629 V 55.445494 c 0,-1.479984 1.1963,-2.676283 2.67628,-2.676283 1.47999,0 2.67629,1.196299 2.67629,2.676283 v 82.964766 c 0,1.47999 -1.1963,2.67629 -2.67629,2.67629 z"
     fill="#aab2bd"
     id="path1281"
     style="stroke-width:2.67628" />
  <path
     d="M 223.55183,52.769211 H 100.44549 c -1.47998,0 -2.676279,-1.196298 -2.676279,-2.676283 0,-1.479984 1.196299,-2.676283 2.676279,-2.676283 h 123.10634 c 1.47999,0 2.67628,1.196299 2.67628,2.676283 0,1.479985 -1.19629,2.676283 -2.67628,2.676283 z"
     fill="#aab2bd"
     id="path1283"
     style="stroke-width:2.67628" />
  <path
     d="m 95.092928,58.121777 c -1.479984,0 -2.676283,-1.196298 -2.676283,-2.676283 0,-4.426572 3.602277,-8.028849 8.028845,-8.028849 1.47999,0 2.67629,1.196299 2.67629,2.676283 0,1.479985 -1.1963,2.676283 -2.67629,2.676283 -1.477304,0 -2.676279,1.196299 -2.676279,2.676283 0,1.479985 -1.196298,2.676283 -2.676283,2.676283 z"
     fill="#aab2bd"
     id="path1285"
     style="stroke-width:2.67628" />
  <path
     d="m 228.90707,58.121777 c -1.47998,0 -2.67628,-1.196298 -2.67628,-2.676283 0,-1.479984 -1.20165,-2.681635 -2.67896,-2.681635 -1.47998,0 -2.67628,-1.196299 -2.67628,-2.676283 0,-1.479985 1.1963,-2.676283 2.67628,-2.676283 4.42657,0 8.03153,3.607629 8.03153,8.034201 0,1.479985 -1.1963,2.676283 -2.67629,2.676283 z"
     fill="#aab2bd"
     id="path1287"
     style="stroke-width:2.67628" />
  <path
     d="m 199.52149,155.80075 h -21.41562 c -1.47998,0 -2.67628,-1.1963 -2.67628,-2.67628 0,-1.47999 1.1963,-2.67629 2.67628,-2.67629 h 21.41562 c 1.47998,0 2.67628,1.1963 2.67628,2.67629 0,1.47998 -1.19897,2.67628 -2.67628,2.67628 z"
     fill="#ccd1d9"
     id="path1289"
     style="stroke-width:2.67628" />
  <path
     d="m 180.70989,153.63296 c 0.0321,-0.1686 0.0241,-0.33453 0.0268,-0.50582 -0.003,-0.17128 0.005,-0.33453 -0.0268,-0.50581 -0.0321,-0.1579 -0.099,-0.30242 -0.16057,-0.45497 -0.0669,-0.17664 -0.13382,-0.34524 -0.24087,-0.50314 -0.0294,-0.0482 -0.0348,-0.099 -0.0642,-0.14185 -0.0776,-0.10437 -0.19269,-0.16325 -0.28368,-0.25692 -0.0883,-0.0883 -0.1472,-0.19804 -0.25158,-0.27833 l -5.35256,-4.01443 c -0.1017,-0.0776 -0.22481,-0.099 -0.33454,-0.16325 -0.17395,-0.0937 -0.33988,-0.19805 -0.53258,-0.25157 -0.16325,-0.0482 -0.32115,-0.0482 -0.48708,-0.0616 -0.17663,-0.0214 -0.34792,-0.0482 -0.52455,-0.0268 -0.18467,0.0161 -0.35327,0.083 -0.52991,0.14184 -0.13113,0.0428 -0.26762,0.0428 -0.39073,0.10438 l -8.02618,4.01978 c -0.099,0.0482 -0.16057,0.13649 -0.24889,0.19269 -0.15522,0.099 -0.29171,0.19804 -0.42285,0.32918 -0.13382,0.13114 -0.23552,0.27834 -0.33454,0.42821 -0.0562,0.0883 -0.14452,0.14719 -0.19001,0.24622 -0.0294,0.0562 -0.0241,0.12043 -0.0508,0.17663 -0.0696,0.17128 -0.10705,0.34524 -0.14185,0.52723 -0.0321,0.1686 -0.0642,0.32383 -0.0642,0.49243 0,0.16326 0.0348,0.32383 0.0642,0.48709 0.0348,0.18198 0.0696,0.3613 0.14185,0.52722 0.0268,0.0616 0.0214,0.12579 0.0508,0.18199 0.0749,0.15255 0.18198,0.27834 0.28101,0.4068 0.0428,0.0535 0.0696,0.10972 0.11508,0.16325 0.21142,0.24087 0.46032,0.42821 0.7333,0.5754 0.0241,0.0107 0.0401,0.0375 0.0642,0.0535 l 8.02617,4.00907 h 0.008 c 0.3051,0.15255 0.63963,0.2034 0.97684,0.23016 0.0696,0.005 0.13917,0.0535 0.20875,0.0535 h 0.003 0.003 c 0.0107,0 0.0214,-0.005 0.0321,-0.005 0.25425,-0.005 0.50314,-0.0482 0.74401,-0.12043 0.0749,-0.0214 0.14452,-0.0616 0.21678,-0.0937 0.17931,-0.0723 0.35327,-0.1579 0.51384,-0.26763 0.0294,-0.0214 0.0642,-0.0321 0.0937,-0.0535 l 5.35257,-4.00908 c 0.13114,-0.099 0.20607,-0.23551 0.31312,-0.35594 0.0669,-0.0669 0.16326,-0.099 0.22214,-0.18199 0.0321,-0.0428 0.0375,-0.0937 0.0642,-0.13649 0.10705,-0.16325 0.17128,-0.32918 0.24086,-0.50314 0.0642,-0.15255 0.13114,-0.29439 0.16325,-0.45497 z"
     fill="#e6e9ed"
     id="path1291"
     style="stroke-width:2.67628" />
  <path
     d="m 152.75612,72.83598 c -1.47998,0 -2.68966,-1.196298 -2.68966,-2.676283 0,-1.479984 1.18291,-2.676282 2.66022,-2.676282 h 0.0294 c 1.47731,0 2.67628,1.196298 2.67628,2.676282 0,1.479985 -1.19897,2.676283 -2.67628,2.676283 z"
     fill="#ccd1d9"
     id="path1293"
     style="stroke-width:2.67628" />
  <path
     d="m 79.032555,173.20194 c -0.401443,0 -0.810914,-0.0937 -1.193623,-0.28101 -1.322083,-0.66372 -1.85734,-2.26949 -1.196298,-3.59157 l 16.057697,-32.11539 c 0.663719,-1.32209 2.272165,-1.85467 3.591572,-1.1963 1.322084,0.65836 1.85734,2.26948 1.196298,3.59157 l -16.057697,32.11539 c -0.471026,0.93403 -1.415754,1.47731 -2.397949,1.47731 z"
     fill="#ccd1d9"
     id="path1295"
     style="stroke-width:2.67628" />
  <path
     d="m 244.96745,173.20194 c -0.9822,0 -1.92693,-0.54328 -2.39795,-1.47998 l -16.0577,-32.1154 c -0.66104,-1.32208 -0.12579,-2.9332 1.1963,-3.59157 1.32208,-0.65836 2.93053,-0.12578 3.59157,1.1963 l 16.0577,32.11539 c 0.66104,1.32209 0.12578,2.92786 -1.1963,3.59158 -0.38271,0.19001 -0.79218,0.28368 -1.19362,0.28368 z"
     fill="#ccd1d9"
     id="path1297"
     style="stroke-width:2.67628" />
  <path
     d="M 244.96477,167.84938 H 79.035231 c -1.479985,0 -2.676283,1.19629 -2.676283,2.67628 v 13.38141 c 0,0.1472 0.05888,0.27298 0.08297,0.41215 0.219455,4.20177 3.653126,7.55782 7.897711,7.606 0.01606,0 0.02944,0.0107 0.0455,0.0107 h 155.224411 0.003 c 4.42658,0 8.02885,-3.60227 8.02885,-8.02885 v -13.38141 c 0,-1.47999 -1.19629,-2.67628 -2.67628,-2.67628 z"
     fill="#e6e9ed"
     id="path1299"
     style="stroke-width:2.67628" />
  <path
     d="m 199.46796,167.84938 v 5.34721 c 0,1.47998 1.1963,2.67628 2.67628,2.67628 h 21.41027 c 1.47998,0 2.67628,-1.1963 2.67628,-2.67628 v -5.34721 z"
     fill="#ffffff"
     id="path1301"
     style="stroke-width:2.67628" />
  <path
     d="m 97.769211,167.84938 v 5.34721 c 0,1.47998 1.196299,2.67628 2.676279,2.67628 h 21.41027 c 1.47998,0 2.67628,-1.1963 2.67628,-2.67628 v -5.34721 z"
     fill="#ffffff"
     id="path1303"
     style="stroke-width:2.67628" />
  <path
     d="m 145.9423,183.90707 c -1.47998,0 -2.67628,-1.1963 -2.67628,-2.67628 v -2.67628 c 0,-1.47999 1.1963,-2.67629 2.67628,-2.67629 1.47999,0 2.67629,1.1963 2.67629,2.67629 v 2.67628 c 0,1.47998 -1.1963,2.67628 -2.67629,2.67628 z"
     fill="#656d78"
     id="path1305"
     style="stroke-width:2.67628" />
  <path
     d="m 178.0577,183.90707 h -32.1154 c -1.47998,0 -2.67628,-1.1963 -2.67628,-2.67628 0,-1.47998 1.1963,-2.67628 2.67628,-2.67628 h 32.1154 c 1.47998,0 2.67628,1.1963 2.67628,2.67628 0,1.47998 -1.1963,2.67628 -2.67628,2.67628 z"
     fill="#656d78"
     id="path1307"
     style="stroke-width:2.67628" />
  <path
     d="m 178.0577,183.90707 c -1.47999,0 -2.67628,-1.1963 -2.67628,-2.67628 v -2.67628 c 0,-1.47999 1.19629,-2.67629 2.67628,-2.67629 1.47998,0 2.67628,1.1963 2.67628,2.67629 v 2.67628 c 0,1.47998 -1.1963,2.67628 -2.67628,2.67628 z"
     fill="#656d78"
     id="path1309"
     style="stroke-width:2.67628" />
  <path
     d="m 219.5829,146.43376 h -22.74037 c -1.47999,0 -2.67629,1.1963 -2.67629,2.67628 v 0.005 8.02349 c 0,1.47999 1.1963,2.67628 2.67629,2.67628 h 22.74037 c 3.6906,0 6.69071,-3.00011 6.69071,-6.6907 0,-3.6906 -3.00011,-6.69071 -6.69071,-6.69071 z"
     fill="#5d9cec"
     id="path1311"
     style="stroke-width:2.67628" />
  <path
     d="m 212.92966,60.79806 h -0.0268 v 3.958222 0.487084 l -0.005,-0.01071 c 0,1.479984 -1.1963,2.676283 -2.67628,2.676283 h -2.67093 c -1.47999,0 -2.67629,-1.196299 -2.67629,-2.676283 V 64.98109 60.79806 c -3.15801,1.496042 -5.35256,4.737021 -5.35256,8.457054 0,3.741443 2.19455,6.958335 5.35256,8.457054 1.20433,0.586106 2.57191,0.909936 4.01443,0.909936 1.44519,0 2.81277,-0.32383 4.01442,-0.909936 3.16069,-1.501395 5.35257,-4.715611 5.35257,-8.457054 0,-3.720033 -2.19455,-6.931573 -5.32581,-8.457054 z"
     fill="#e6e9ed"
     id="path1313"
     style="stroke-width:2.67628" />
  <path
     d="m 180.7313,127.70513 h 0.0294 v -3.9609 -0.48173 l 0.005,0.0107 c 0,-1.47999 1.19629,-2.67628 2.67628,-2.67628 h 2.67093 c 1.47998,0 2.67628,1.19629 2.67628,2.67628 v 0.24622 4.1857 c 3.15802,-1.50139 5.35257,-4.73702 5.35257,-8.45705 0,-3.7468 -2.19455,-6.95834 -5.35257,-8.45706 -1.20432,-0.59145 -2.57191,-0.90993 -4.01442,-0.90993 -1.44519,0 -2.81278,0.31848 -4.01443,0.90993 -3.16069,1.5014 -5.35256,4.71026 -5.35256,8.45706 0,3.72003 2.19187,6.93157 5.32312,8.45705 z"
     fill="#e6e9ed"
     id="path1315"
     style="stroke-width:2.67628" />
</svg>
