<?xml version="1.0" encoding="UTF-8"?>
<svg xmlns="http://www.w3.org/2000/svg" xmlns:xlink="http://www.w3.org/1999/xlink" width="324px" height="234px" viewBox="0 0 324 234" version="1.1">
<defs>
<linearGradient id="linear0" gradientUnits="userSpaceOnUse" x1="-49.455353" y1="65.575104" x2="181.728165" y2="64.761543" gradientTransform="matrix(4.063174,0,0,3.913405,-102.641604,-25.765796)">
<stop offset="0" style="stop-color:rgb(5.490196%,10.588235%,48.235294%);stop-opacity:1;"/>
<stop offset="1" style="stop-color:rgb(6.27451%,36.078432%,89.019608%);stop-opacity:1;"/>
</linearGradient>
</defs>
<g id="surface1">
<rect x="0" y="0" width="324" height="234" style="fill:url(#linear0);stroke:none;"/>
<path style="fill:none;stroke-width:1.021703;stroke-linecap:butt;stroke-linejoin:miter;stroke:rgb(100%,100%,100%);stroke-opacity:1;stroke-miterlimit:4;" d="M -0.94401 -1.082899 L 181.217448 -1.082899 L 181.217448 130.605469 L -0.94401 130.605469 Z M -0.94401 -1.082899 " transform="matrix(1.8,0,0,1.8,0,0)"/>
<path style=" stroke:none;fill-rule:evenodd;fill:rgb(100%,14.509805%,0%);fill-opacity:1;" d="M 111.839844 173.550781 L 111.839844 59.589844 L 96.527344 59.589844 L 96.527344 54.84375 L 147.5625 54.84375 L 147.5625 178.296875 L 96.527344 178.296875 L 96.527344 173.550781 Z M 167.976562 54.84375 L 198.597656 54.84375 C 213.511719 67.164062 222.921875 83.800781 226.832031 104.761719 C 228.324219 112.746094 228.339844 120.910156 226.875 128.898438 C 223.09375 149.574219 213.785156 166.039062 198.949219 178.296875 L 167.976562 178.296875 L 167.976562 173.550781 C 175.824219 173.550781 182.179688 167.632812 182.179688 160.335938 L 182.179688 72.804688 C 182.179688 65.507812 175.824219 59.589844 167.976562 59.589844 Z M 167.976562 54.84375 "/>
<path style="fill:none;stroke-width:1;stroke-linecap:butt;stroke-linejoin:miter;stroke:rgb(4.313726%,0%,38.039216%);stroke-opacity:0.602327;stroke-miterlimit:4;" d="M 14.500283 35.499921 L 14.500283 12.499886 L 11.499899 12.499886 L 11.499899 10.49999 L 22.500286 10.49999 L 22.500286 37.499816 L 11.499899 37.499816 L 11.499899 35.499921 Z M 25.499904 10.49999 L 32.190301 10.49999 L 32.331901 10.625858 C 35.341469 13.298692 37.239671 16.906073 38.024976 21.427434 C 38.326545 23.1649 38.329607 24.941853 38.033395 26.680142 C 37.274115 31.143093 35.395813 34.714277 32.400787 37.373949 L 32.258422 37.499816 L 25.499904 37.499816 L 25.499904 35.499921 L 25.999713 35.499921 C 27.261099 35.499921 28.282913 34.478172 28.282913 33.217029 L 28.282913 14.782778 C 28.282913 13.522457 27.261099 12.499886 25.999713 12.499886 L 25.499904 12.499886 Z M 25.499904 10.49999 " transform="matrix(5.103514,0,0,4.748294,35.286668,2.611705)"/>
</g>
</svg>
