<?xml version="1.0" encoding="UTF-8" standalone="no"?>
<svg
   xmlns:dc="http://purl.org/dc/elements/1.1/"
   xmlns:cc="http://creativecommons.org/ns#"
   xmlns:rdf="http://www.w3.org/1999/02/22-rdf-syntax-ns#"
   xmlns:svg="http://www.w3.org/2000/svg"
   xmlns="http://www.w3.org/2000/svg"
   xmlns:xlink="http://www.w3.org/1999/xlink"
   xmlns:sodipodi="http://sodipodi.sourceforge.net/DTD/sodipodi-0.dtd"
   xmlns:inkscape="http://www.inkscape.org/namespaces/inkscape"
   width="324px"
   height="234px"
   viewBox="0 0 324 234"
   version="1.1"
   id="svg18"
   sodipodi:docname="debreate.svg"
   inkscape:version="0.92.4 (5da689c313, 2019-01-14)">
  <metadata
     id="metadata22">
    <rdf:RDF>
      <cc:Work
         rdf:about="">
        <dc:format>image/svg+xml</dc:format>
        <dc:type
           rdf:resource="http://purl.org/dc/dcmitype/StillImage" />
        <dc:title></dc:title>
      </cc:Work>
    </rdf:RDF>
  </metadata>
  <sodipodi:namedview
     pagecolor="#ffffff"
     bordercolor="#666666"
     borderopacity="1"
     objecttolerance="10"
     gridtolerance="10"
     guidetolerance="10"
     inkscape:pageopacity="0"
     inkscape:pageshadow="2"
     inkscape:window-width="1152"
     inkscape:window-height="761"
     id="namedview20"
     showgrid="false"
     inkscape:pagecheckerboard="true"
     inkscape:zoom="0.5042735"
     inkscape:cx="363.51207"
     inkscape:cy="-118.71458"
     inkscape:window-x="0"
     inkscape:window-y="0"
     inkscape:window-maximized="1"
     inkscape:current-layer="surface1" />
  <defs
     id="defs7">
    <linearGradient
       id="linearGradient907"
       gradientUnits="userSpaceOnUse"
       x1="25.261431"
       y1="47.595863"
       x2="105.00204"
       y2="66.378464"
       gradientTransform="matrix(4.063174,0,0,3.913405,-102.64159,-25.765805)">
      <stop
         offset="0"
         style="stop-color:#1f46ff;stop-opacity:0"
         id="stop903" />
      <stop
         offset="1"
         style="stop-color:#df8aff;stop-opacity:1"
         id="stop905" />
    </linearGradient>
    <linearGradient
       gradientTransform="matrix(4.063174,0,0,3.913405,-102.64159,-25.765805)"
       y2="66.378464"
       x2="105.00204"
       y1="47.595863"
       x1="25.261431"
       gradientUnits="userSpaceOnUse"
       id="linearGradient896">
      <stop
         id="stop892"
         style="stop-color:#661fff;stop-opacity:0"
         offset="0" />
      <stop
         id="stop894"
         style="stop-color:#df8aff;stop-opacity:1"
         offset="1" />
    </linearGradient>
    <linearGradient
       id="linear0"
       gradientUnits="userSpaceOnUse"
       x1="25.261431"
       y1="6.5839863"
       x2="105.00204"
       y2="66.378464"
       gradientTransform="matrix(4.063174,0,0,3.913405,-102.64159,-25.765805)">
      <stop
         offset="0"
         style="stop-color:#1831da;stop-opacity:1"
         id="stop2" />
      <stop
         offset="1"
         style="stop-color:#b7cffa;stop-opacity:1"
         id="stop4" />
    </linearGradient>
    <linearGradient
       id="linear0-3"
       gradientUnits="userSpaceOnUse"
       x1="25.261431"
       y1="47.595863"
       x2="105.00204"
       y2="66.378464"
       gradientTransform="matrix(4.063174,0,0,3.913405,-102.64159,-25.765805)">
      <stop
         offset="0"
         style="stop-color:#661fff;stop-opacity:1"
         id="stop2-6" />
      <stop
         offset="1"
         style="stop-color:#bb0035;stop-opacity:1"
         id="stop4-7" />
    </linearGradient>
    <linearGradient
       inkscape:collect="always"
       xlink:href="#linearGradient896"
       id="linearGradient885"
       gradientUnits="userSpaceOnUse"
       gradientTransform="matrix(4.063174,0,0,3.913405,-102.64159,-65.765805)"
       x1="66.602646"
       y1="30.819595"
       x2="66.602646"
       y2="62.365814" />
    <linearGradient
       inkscape:collect="always"
       xlink:href="#linearGradient907"
       id="linearGradient901"
       gradientUnits="userSpaceOnUse"
       gradientTransform="matrix(4.063174,0,0,3.913405,-102.64159,-99.269715)"
       x1="66.602646"
       y1="30.819595"
       x2="66.602646"
       y2="62.365814" />
  </defs>
  <g
     id="surface1">
    <rect
       x="0"
       y="0"
       width="324"
       height="234"
       style="fill:url(#linear0);stroke:none"
       id="rect9" />
  </g>
  <g
     inkscape:groupmode="layer"
     id="layer1"
     inkscape:label="jhalo">
    <path
       id="path883"
       d="M 324,86.87109 A 405.53391,155.66949 0 0 0 319.92188,86.11523 405.53391,155.66949 0 0 0 281.84375,80.77929 405.53391,155.66949 0 0 0 242.56641,76.92968 405.53391,155.66949 0 0 0 202.48633,74.60351 405.53391,155.66949 0 0 0 162,73.82617 405.53391,155.66949 0 0 0 133.31445,74.21679 405.53391,155.66949 0 0 0 93.072263,76.09179 405.53391,155.66949 0 0 0 53.519528,79.5 405.53391,155.66949 0 0 0 15.050778,84.40625 405.53391,155.66949 0 0 0 -3e-6,86.99218 v 73.50391 H 324 Z"
       style="fill:url(#linearGradient901);stroke:none"
       inkscape:connector-curvature="0" />
    <path
       inkscape:connector-curvature="0"
       style="fill:url(#linear0-3);stroke:none"
       d="m 324,160.375 a 405.53391,155.66949 0 0 0 -4.07812,-0.75586 405.53391,155.66949 0 0 0 -38.07813,-5.33594 405.53391,155.66949 0 0 0 -39.27734,-3.84961 405.53391,155.66949 0 0 0 -40.08008,-2.32617 A 405.53391,155.66949 0 0 0 162,147.33008 a 405.53391,155.66949 0 0 0 -28.68555,0.39062 405.53391,155.66949 0 0 0 -40.242187,1.875 405.53391,155.66949 0 0 0 -39.552735,3.40821 405.53391,155.66949 0 0 0 -38.46875,4.90625 A 405.53391,155.66949 0 0 0 -3e-6,160.49609 V 234 H 324 Z"
       id="path840" />
    <path
       style="fill:#ff1f5e;fill-opacity:1;fill-rule:evenodd;stroke:none;stroke-opacity:1"
       d="m 96.282419,55.273435 v 4.746094 h 15.312491 v 89.130851 24.83008 H 96.282419 v 4.7461 H 147.31757 V 147.95702 55.273435 Z m 71.449211,0 v 4.746094 c 7.84766,0 14.20313,5.917968 14.20313,13.214844 v 87.531247 c 0,7.29688 -6.35547,13.21484 -14.20313,13.21484 v 4.7461 h 30.97266 c 0.80833,-0.66787 1.59413,-1.35366 2.36914,-2.04688 0.2209,-0.19736 0.43996,-0.39632 0.6582,-0.5957 0.72208,-0.66067 1.43442,-1.32662 2.12696,-2.00977 0.25722,-0.25313 0.5046,-0.51334 0.75781,-0.76953 0.41938,-0.42546 0.8359,-0.85317 1.24414,-1.28711 0.36111,-0.38267 0.71782,-0.76898 1.07031,-1.1582 0.20315,-0.22509 0.40131,-0.45435 0.60156,-0.68164 9.75674,-11.03422 16.13363,-24.64234 19.09766,-40.84961 1.46484,-7.98828 1.44922,-16.15234 -0.043,-24.13671 C 222.67692,84.230466 213.26676,67.593747 198.3527,55.273435 Z"
       id="path13"
       inkscape:connector-curvature="0" />
  </g>
</svg>
