<?xml version="1.0" encoding="UTF-8" standalone="no"?>
<svg
   xmlns:dc="http://purl.org/dc/elements/1.1/"
   xmlns:cc="http://creativecommons.org/ns#"
   xmlns:rdf="http://www.w3.org/1999/02/22-rdf-syntax-ns#"
   xmlns:svg="http://www.w3.org/2000/svg"
   xmlns="http://www.w3.org/2000/svg"
   xmlns:xlink="http://www.w3.org/1999/xlink"
   xmlns:sodipodi="http://sodipodi.sourceforge.net/DTD/sodipodi-0.dtd"
   xmlns:inkscape="http://www.inkscape.org/namespaces/inkscape"
   width="324px"
   height="234px"
   viewBox="0 0 324 234"
   version="1.1"
   id="svg39"
   sodipodi:docname="docker-scan-plugin.svg"
   inkscape:version="1.0.2 (e86c870879, 2021-01-15)">
  <metadata
     id="metadata45">
    <rdf:RDF>
      <cc:Work
         rdf:about="">
        <dc:format>image/svg+xml</dc:format>
        <dc:type
           rdf:resource="http://purl.org/dc/dcmitype/StillImage" />
      </cc:Work>
    </rdf:RDF>
  </metadata>
  <defs
     id="defs43">
    <linearGradient
       id="h-5">
      <stop
         offset="0"
         stop-color="#ffedf8"
         id="stop1624" />
      <stop
         offset="1"
         stop-color="#ff8ad4"
         id="stop1626"
         style="stop-color:#748ad4;stop-opacity:1" />
    </linearGradient>
    <linearGradient
       id="a-62">
      <stop
         offset="0"
         stop-color="#72a0c1"
         id="stop1603" />
      <stop
         offset="1"
         stop-color="#3c6889"
         id="stop1605" />
    </linearGradient>
    <filter
       id="filter0_dd"
       x="3.0249901"
       y="15"
       width="18.950001"
       height="25.875"
       filterUnits="userSpaceOnUse"
       color-interpolation-filters="sRGB">
      <feFlood
         flood-opacity="0"
         result="BackgroundImageFix"
         id="feFlood29" />
      <feColorMatrix
         in="SourceAlpha"
         type="matrix"
         values="0 0 0 0 0 0 0 0 0 0 0 0 0 0 0 0 0 0 127 0"
         id="feColorMatrix31" />
      <feOffset
         dy="0.5"
         id="feOffset33" />
      <feGaussianBlur
         stdDeviation="0.5"
         id="feGaussianBlur35" />
      <feColorMatrix
         type="matrix"
         values="0 0 0 0 0 0 0 0 0 0 0 0 0 0 0 0 0 0 0.1 0"
         id="feColorMatrix37" />
      <feBlend
         mode="normal"
         in2="BackgroundImageFix"
         result="effect1_dropShadow"
         id="feBlend39" />
      <feColorMatrix
         in="SourceAlpha"
         type="matrix"
         values="0 0 0 0 0 0 0 0 0 0 0 0 0 0 0 0 0 0 127 0"
         id="feColorMatrix41" />
      <feOffset
         dy="1"
         id="feOffset43" />
      <feGaussianBlur
         stdDeviation="1.5"
         id="feGaussianBlur45" />
      <feColorMatrix
         type="matrix"
         values="0 0 0 0 0 0 0 0 0 0 0 0 0 0 0 0 0 0 0.2 0"
         id="feColorMatrix47" />
      <feBlend
         mode="normal"
         in2="effect1_dropShadow"
         result="effect2_dropShadow"
         id="feBlend49" />
      <feBlend
         mode="normal"
         in="SourceGraphic"
         in2="effect2_dropShadow"
         result="shape"
         id="feBlend51" />
    </filter>
    <filter
       id="filter1_dd"
       x="3.0249901"
       y="15"
       width="18.950001"
       height="18.875"
       filterUnits="userSpaceOnUse"
       color-interpolation-filters="sRGB">
      <feFlood
         flood-opacity="0"
         result="BackgroundImageFix"
         id="feFlood54" />
      <feColorMatrix
         in="SourceAlpha"
         type="matrix"
         values="0 0 0 0 0 0 0 0 0 0 0 0 0 0 0 0 0 0 127 0"
         id="feColorMatrix56" />
      <feOffset
         dy="0.5"
         id="feOffset58" />
      <feGaussianBlur
         stdDeviation="0.5"
         id="feGaussianBlur60" />
      <feColorMatrix
         type="matrix"
         values="0 0 0 0 0 0 0 0 0 0 0 0 0 0 0 0 0 0 0.1 0"
         id="feColorMatrix62" />
      <feBlend
         mode="normal"
         in2="BackgroundImageFix"
         result="effect1_dropShadow"
         id="feBlend64" />
      <feColorMatrix
         in="SourceAlpha"
         type="matrix"
         values="0 0 0 0 0 0 0 0 0 0 0 0 0 0 0 0 0 0 127 0"
         id="feColorMatrix66" />
      <feOffset
         dy="1"
         id="feOffset68" />
      <feGaussianBlur
         stdDeviation="1.5"
         id="feGaussianBlur70" />
      <feColorMatrix
         type="matrix"
         values="0 0 0 0 0 0 0 0 0 0 0 0 0 0 0 0 0 0 0.2 0"
         id="feColorMatrix72" />
      <feBlend
         mode="normal"
         in2="effect1_dropShadow"
         result="effect2_dropShadow"
         id="feBlend74" />
      <feBlend
         mode="normal"
         in="SourceGraphic"
         in2="effect2_dropShadow"
         result="shape"
         id="feBlend76" />
    </filter>
    <filter
       id="filter2_dd"
       x="20"
       y="30"
       width="24"
       height="11"
       filterUnits="userSpaceOnUse"
       color-interpolation-filters="sRGB">
      <feFlood
         flood-opacity="0"
         result="BackgroundImageFix"
         id="feFlood79" />
      <feColorMatrix
         in="SourceAlpha"
         type="matrix"
         values="0 0 0 0 0 0 0 0 0 0 0 0 0 0 0 0 0 0 127 0"
         id="feColorMatrix81" />
      <feOffset
         dy="0.5"
         id="feOffset83" />
      <feGaussianBlur
         stdDeviation="0.5"
         id="feGaussianBlur85" />
      <feColorMatrix
         type="matrix"
         values="0 0 0 0 0 0 0 0 0 0 0 0 0 0 0 0 0 0 0.1 0"
         id="feColorMatrix87" />
      <feBlend
         mode="normal"
         in2="BackgroundImageFix"
         result="effect1_dropShadow"
         id="feBlend89" />
      <feColorMatrix
         in="SourceAlpha"
         type="matrix"
         values="0 0 0 0 0 0 0 0 0 0 0 0 0 0 0 0 0 0 127 0"
         id="feColorMatrix91" />
      <feOffset
         dy="1"
         id="feOffset93" />
      <feGaussianBlur
         stdDeviation="1.5"
         id="feGaussianBlur95" />
      <feColorMatrix
         type="matrix"
         values="0 0 0 0 0 0 0 0 0 0 0 0 0 0 0 0 0 0 0.2 0"
         id="feColorMatrix97" />
      <feBlend
         mode="normal"
         in2="effect1_dropShadow"
         result="effect2_dropShadow"
         id="feBlend99" />
      <feBlend
         mode="normal"
         in="SourceGraphic"
         in2="effect2_dropShadow"
         result="shape"
         id="feBlend101" />
    </filter>
    <linearGradient
       id="paint0_linear"
       x1="36.446201"
       y1="47.825699"
       x2="11.8217"
       y2="5.1747999"
       gradientUnits="userSpaceOnUse"
       gradientTransform="matrix(1.4978445,0,0,1.3419151,222.74405,101.11317)">
      <stop
         stop-color="#333333"
         id="stop104" />
      <stop
         offset="1"
         stop-color="#4D4D4D"
         id="stop106" />
    </linearGradient>
    <linearGradient
       id="paint1_linear"
       x1="14.5276"
       y1="33.995899"
       x2="10.4841"
       y2="26.992399"
       gradientUnits="userSpaceOnUse">
      <stop
         stop-color="#999999"
         id="stop109" />
      <stop
         offset="1"
         stop-color="#B3B3B3"
         id="stop111" />
    </linearGradient>
    <linearGradient
       id="paint3_linear"
       x1="16.2747"
       y1="30.0336"
       x2="8.73699"
       y2="16.9781"
       gradientUnits="userSpaceOnUse">
      <stop
         stop-color="#CCCCCC"
         id="stop119" />
      <stop
         offset="1"
         stop-color="#E6E6E6"
         id="stop121" />
    </linearGradient>
    <linearGradient
       id="paint5_linear"
       x1="35.149601"
       y1="39.955299"
       x2="28.850401"
       y2="29.044701"
       gradientUnits="userSpaceOnUse">
      <stop
         stop-color="#CCCCCC"
         id="stop129" />
      <stop
         offset="1"
         stop-color="#E6E6E6"
         id="stop131" />
    </linearGradient>
    <mask
       id="mask0"
       mask-type="alpha"
       maskUnits="userSpaceOnUse"
       x="6"
       y="24"
       width="13"
       height="13">
      <path
         d="m 15.2,24.3 -8.80001,8.8 c -0.5,0.5 -0.5,1.2 0,1.6 l 1.8,1.8 C 8.69999,37 9.4,37 9.8,36.5 l 8.8,-8.8 c 0.5,-0.5 0.5,-1.2 0,-1.6 l -1.8,-1.8 c -0.4,-0.4 -1.2,-0.4 -1.6,0 z"
         fill="url(#paint2_linear)"
         id="path12-3"
         style="fill:url(#paint1_linear)" />
    </mask>
    <inkscape:path-effect
       effect="bspline"
       id="path-effect3009"
       is_visible="true"
       weight="33.333333"
       steps="2"
       helper_size="0"
       apply_no_weight="true"
       apply_with_weight="true"
       only_selected="false" />
    <inkscape:path-effect
       effect="bspline"
       id="path-effect2867"
       is_visible="true"
       weight="33.333333"
       steps="2"
       helper_size="0"
       apply_no_weight="true"
       apply_with_weight="true"
       only_selected="false" />
    <inkscape:path-effect
       effect="bspline"
       id="path-effect2860"
       is_visible="true"
       weight="33.333333"
       steps="2"
       helper_size="0"
       apply_no_weight="true"
       apply_with_weight="true"
       only_selected="false" />
    <inkscape:path-effect
       only_selected="false"
       apply_with_weight="true"
       apply_no_weight="true"
       helper_size="0"
       steps="2"
       weight="33.333333"
       is_visible="true"
       id="path-effect2840"
       effect="bspline" />
    <inkscape:path-effect
       effect="bspline"
       id="path-effect2836"
       is_visible="true"
       weight="33.333333"
       steps="2"
       helper_size="0"
       apply_no_weight="true"
       apply_with_weight="true"
       only_selected="false" />
    <inkscape:path-effect
       effect="bspline"
       id="path-effect2832"
       is_visible="true"
       weight="33.333333"
       steps="2"
       helper_size="0"
       apply_no_weight="true"
       apply_with_weight="true"
       only_selected="false" />
    <linearGradient
       id="linearGradient2807"
       inkscape:collect="always">
      <stop
         id="stop2801"
         offset="0"
         style="stop-color:#bb8aca;stop-opacity:1" />
      <stop
         id="stop2805"
         offset="1"
         style="stop-color:#ef9c9d;stop-opacity:1" />
    </linearGradient>
    <linearGradient
       inkscape:collect="always"
       id="linearGradient1480">
      <stop
         style="stop-color:#e64540;stop-opacity:1"
         offset="0"
         id="stop1476" />
      <stop
         id="stop1484"
         offset="0.50717378"
         style="stop-color:#a7197b;stop-opacity:1" />
      <stop
         style="stop-color:#382ed1;stop-opacity:1"
         offset="1"
         id="stop1478" />
    </linearGradient>
    <linearGradient
       inkscape:collect="always"
       id="linearGradient1261">
      <stop
         style="stop-color:#1d1133;stop-opacity:1;"
         offset="0"
         id="stop1257" />
      <stop
         style="stop-color:#24153f;stop-opacity:1"
         offset="1"
         id="stop1259" />
    </linearGradient>
    <linearGradient
       inkscape:collect="always"
       id="linearGradient1208">
      <stop
         style="stop-color:#4e2e89;stop-opacity:1"
         offset="0"
         id="stop1204" />
      <stop
         style="stop-color:#330032;stop-opacity:0;"
         offset="1"
         id="stop1206" />
    </linearGradient>
    <inkscape:path-effect
       effect="bspline"
       id="path-effect1184"
       is_visible="true"
       weight="33.333333"
       steps="2"
       helper_size="0"
       apply_no_weight="true"
       apply_with_weight="true"
       only_selected="false" />
    <linearGradient
       inkscape:collect="always"
       id="linearGradient1166">
      <stop
         style="stop-color:#ad17e4;stop-opacity:1"
         offset="0"
         id="stop1162" />
      <stop
         style="stop-color:#9450fb;stop-opacity:1"
         offset="1"
         id="stop1164" />
    </linearGradient>
    <radialGradient
       gradientUnits="userSpaceOnUse"
       gradientTransform="translate(7978.7,8523.9959)"
       r="80.685997"
       cy="-8503.8613"
       cx="-7918.9229"
       id="radialGradient1158">
      <stop
         id="stop1150"
         stop-color="#fff44f"
         offset=".094"
         style="stop-color:#a09600;stop-opacity:1" />
      <stop
         id="stop1152"
         stop-color="#ffe141"
         offset=".231" />
      <stop
         id="stop1154"
         stop-color="#ffaf1e"
         offset=".509" />
      <stop
         id="stop1156"
         stop-color="#ff980e"
         offset=".626" />
    </radialGradient>
    <radialGradient
       gradientUnits="userSpaceOnUse"
       gradientTransform="translate(7978.7,8523.9959)"
       r="38.471001"
       cy="-8460.9844"
       cx="-7945.6479"
       id="radialGradient1148">
      <stop
         id="stop1146"
         stop-color="#c139e6"
         offset="1"
         style="stop-opacity:0;stop-color:#5ab500" />
    </radialGradient>
    <inkscape:path-effect
       effect="bspline"
       id="path-effect1078"
       is_visible="true"
       weight="33.333333"
       steps="2"
       helper_size="0"
       apply_no_weight="true"
       apply_with_weight="true"
       only_selected="false" />
    <inkscape:path-effect
       effect="bspline"
       id="path-effect1074"
       is_visible="true"
       weight="33.333333"
       steps="2"
       helper_size="0"
       apply_no_weight="true"
       apply_with_weight="true"
       only_selected="false" />
    <inkscape:path-effect
       effect="bspline"
       id="path-effect1075"
       is_visible="true"
       weight="33.333333"
       steps="2"
       helper_size="0"
       apply_no_weight="true"
       apply_with_weight="true"
       only_selected="false" />
    <linearGradient
       id="linearGradient991"
       inkscape:collect="always">
      <stop
         id="stop987"
         offset="0"
         style="stop-color:#71afd3;stop-opacity:1" />
      <stop
         id="stop989"
         offset="1"
         style="stop-color:#2c7dbd;stop-opacity:1" />
    </linearGradient>
    <radialGradient
       inkscape:collect="always"
       xlink:href="#linearGradient991"
       id="radialGradient985"
       cx="-178.41632"
       cy="529.35193"
       fx="-178.41632"
       fy="529.35193"
       r="90.402763"
       gradientTransform="matrix(0.60628339,-0.11601688,0.12271796,0.64130204,-1.0482536,-152.24847)"
       gradientUnits="userSpaceOnUse" />
    <linearGradient
       id="a"
       x1="70.786003"
       y1="12.393"
       x2="6.447"
       y2="74.468002"
       gradientUnits="userSpaceOnUse"
       gradientTransform="translate(3.7,-0.0040855)">
      <stop
         offset=".048"
         stop-color="#fff44f"
         id="stop834" />
      <stop
         offset=".111"
         stop-color="#ffe847"
         id="stop836" />
      <stop
         offset=".225"
         stop-color="#ffc830"
         id="stop838" />
      <stop
         offset=".368"
         stop-color="#ff980e"
         id="stop840" />
      <stop
         offset=".401"
         stop-color="#ff8b16"
         id="stop842" />
      <stop
         offset=".462"
         stop-color="#ff672a"
         id="stop844" />
      <stop
         offset=".534"
         stop-color="#ff3647"
         id="stop846" />
      <stop
         offset=".705"
         stop-color="#e31587"
         id="stop848" />
    </linearGradient>
    <radialGradient
       id="b"
       cx="-7907.187"
       cy="-8515.1211"
       r="80.796997"
       gradientTransform="translate(7978.7,8523.9959)"
       gradientUnits="userSpaceOnUse">
      <stop
         offset=".129"
         stop-color="#ffbd4f"
         id="stop851" />
      <stop
         offset=".186"
         stop-color="#ffac31"
         id="stop853" />
      <stop
         offset=".247"
         stop-color="#ff9d17"
         id="stop855" />
      <stop
         offset=".283"
         stop-color="#ff980e"
         id="stop857" />
      <stop
         offset=".403"
         stop-color="#ff563b"
         id="stop859" />
      <stop
         offset=".467"
         stop-color="#ff3750"
         id="stop861" />
      <stop
         offset=".71"
         stop-color="#f5156c"
         id="stop863" />
      <stop
         offset=".782"
         stop-color="#eb0878"
         id="stop865" />
      <stop
         offset=".86"
         stop-color="#e50080"
         id="stop867" />
    </radialGradient>
    <radialGradient
       id="c"
       cx="-7936.7109"
       cy="-8482.0889"
       r="80.796997"
       gradientTransform="translate(7978.7,8523.9959)"
       gradientUnits="userSpaceOnUse">
      <stop
         offset=".3"
         stop-color="#960e18"
         id="stop870" />
      <stop
         offset=".351"
         stop-color="#b11927"
         stop-opacity=".74"
         id="stop872" />
      <stop
         offset=".435"
         stop-color="#db293d"
         stop-opacity=".343"
         id="stop874" />
      <stop
         offset=".497"
         stop-color="#f5334b"
         stop-opacity=".094"
         id="stop876" />
      <stop
         offset=".53"
         stop-color="#ff3750"
         stop-opacity="0"
         id="stop878" />
    </radialGradient>
    <radialGradient
       id="d"
       cx="-7926.9702"
       cy="-8533.457"
       r="58.534"
       gradientTransform="translate(7978.7,8523.9959)"
       gradientUnits="userSpaceOnUse">
      <stop
         offset=".132"
         stop-color="#fff44f"
         id="stop881" />
      <stop
         offset=".252"
         stop-color="#ffdc3e"
         id="stop883" />
      <stop
         offset=".506"
         stop-color="#ff9d12"
         id="stop885" />
      <stop
         offset=".526"
         stop-color="#ff980e"
         id="stop887" />
    </radialGradient>
    <radialGradient
       id="e"
       cx="-7945.6479"
       cy="-8460.9844"
       r="38.471001"
       gradientTransform="translate(7978.7,8523.9959)"
       gradientUnits="userSpaceOnUse">
      <stop
         offset=".353"
         stop-color="#3a8ee6"
         id="stop890" />
      <stop
         offset=".472"
         stop-color="#5c79f0"
         id="stop892" />
      <stop
         offset=".669"
         stop-color="#9059ff"
         id="stop894" />
      <stop
         offset="1"
         stop-color="#c139e6"
         id="stop896" />
    </radialGradient>
    <radialGradient
       id="f"
       cx="-7935.6201"
       cy="-8491.5459"
       r="20.396999"
       gradientTransform="matrix(0.972,-0.235,0.275,1.138,10095.002,7833.7939)"
       gradientUnits="userSpaceOnUse">
      <stop
         offset=".206"
         stop-color="#9059ff"
         stop-opacity="0"
         id="stop899" />
      <stop
         offset=".278"
         stop-color="#8c4ff3"
         stop-opacity=".064"
         id="stop901" />
      <stop
         offset=".747"
         stop-color="#7716a8"
         stop-opacity=".45"
         id="stop903" />
      <stop
         offset=".975"
         stop-color="#6e008b"
         stop-opacity=".6"
         id="stop905" />
    </radialGradient>
    <radialGradient
       id="g"
       cx="-7937.731"
       cy="-8518.4268"
       r="27.676001"
       gradientTransform="translate(7978.7,8523.9959)"
       gradientUnits="userSpaceOnUse">
      <stop
         offset="0"
         stop-color="#ffe226"
         id="stop908" />
      <stop
         offset=".121"
         stop-color="#ffdb27"
         id="stop910" />
      <stop
         offset=".295"
         stop-color="#ffc82a"
         id="stop912" />
      <stop
         offset=".502"
         stop-color="#ffa930"
         id="stop914" />
      <stop
         offset=".732"
         stop-color="#ff7e37"
         id="stop916" />
      <stop
         offset=".792"
         stop-color="#ff7139"
         id="stop918" />
    </radialGradient>
    <radialGradient
       id="h"
       cx="-7915.9771"
       cy="-8535.9814"
       r="118.081"
       gradientTransform="translate(7978.7,8523.9959)"
       gradientUnits="userSpaceOnUse">
      <stop
         offset=".113"
         stop-color="#fff44f"
         id="stop921" />
      <stop
         offset=".456"
         stop-color="#ff980e"
         id="stop923" />
      <stop
         offset=".622"
         stop-color="#ff5634"
         id="stop925" />
      <stop
         offset=".716"
         stop-color="#ff3647"
         id="stop927" />
      <stop
         offset=".904"
         stop-color="#e31587"
         id="stop929" />
    </radialGradient>
    <radialGradient
       id="i"
       cx="-7927.165"
       cy="-8522.8594"
       r="86.499001"
       gradientTransform="matrix(0.105,0.995,-0.653,0.069,-4680.304,8470.1869)"
       gradientUnits="userSpaceOnUse">
      <stop
         offset="0"
         stop-color="#fff44f"
         id="stop932" />
      <stop
         offset=".06"
         stop-color="#ffe847"
         id="stop934" />
      <stop
         offset=".168"
         stop-color="#ffc830"
         id="stop936" />
      <stop
         offset=".304"
         stop-color="#ff980e"
         id="stop938" />
      <stop
         offset=".356"
         stop-color="#ff8b16"
         id="stop940" />
      <stop
         offset=".455"
         stop-color="#ff672a"
         id="stop942" />
      <stop
         offset=".57"
         stop-color="#ff3647"
         id="stop944" />
      <stop
         offset=".737"
         stop-color="#e31587"
         id="stop946" />
    </radialGradient>
    <radialGradient
       id="j"
       cx="-7938.3828"
       cy="-8508.1758"
       r="73.720001"
       gradientTransform="translate(7978.7,8523.9959)"
       gradientUnits="userSpaceOnUse">
      <stop
         offset=".137"
         stop-color="#fff44f"
         id="stop949" />
      <stop
         offset=".48"
         stop-color="#ff980e"
         id="stop951" />
      <stop
         offset=".592"
         stop-color="#ff5634"
         id="stop953" />
      <stop
         offset=".655"
         stop-color="#ff3647"
         id="stop955" />
      <stop
         offset=".904"
         stop-color="#e31587"
         id="stop957" />
    </radialGradient>
    <radialGradient
       id="k"
       cx="-7918.9229"
       cy="-8503.8613"
       r="80.685997"
       gradientTransform="translate(7978.7,8523.9959)"
       gradientUnits="userSpaceOnUse">
      <stop
         offset=".094"
         stop-color="#fff44f"
         id="stop960" />
      <stop
         offset=".231"
         stop-color="#ffe141"
         id="stop962" />
      <stop
         offset=".509"
         stop-color="#ffaf1e"
         id="stop964" />
      <stop
         offset=".626"
         stop-color="#ff980e"
         id="stop966" />
    </radialGradient>
    <linearGradient
       id="l"
       x1="70.013"
       y1="12.061"
       x2="15.267"
       y2="66.806"
       gradientUnits="userSpaceOnUse"
       gradientTransform="translate(3.7,-0.0040855)">
      <stop
         offset=".167"
         stop-color="#fff44f"
         stop-opacity=".8"
         id="stop969" />
      <stop
         offset=".266"
         stop-color="#fff44f"
         stop-opacity=".634"
         id="stop971" />
      <stop
         offset=".489"
         stop-color="#fff44f"
         stop-opacity=".217"
         id="stop973" />
      <stop
         offset=".6"
         stop-color="#fff44f"
         stop-opacity="0"
         id="stop975" />
    </linearGradient>
    <linearGradient
       inkscape:collect="always"
       xlink:href="#linearGradient1166"
       id="linearGradient1168"
       x1="-12.471017"
       y1="62.409931"
       x2="89.487404"
       y2="0.268673"
       gradientUnits="userSpaceOnUse" />
    <linearGradient
       inkscape:collect="always"
       xlink:href="#linearGradient1208"
       id="linearGradient1210"
       x1="2e-06"
       y1="133.72223"
       x2="172.22223"
       y2="-10.722211"
       gradientUnits="userSpaceOnUse" />
    <linearGradient
       inkscape:collect="always"
       xlink:href="#linearGradient1261"
       id="linearGradient1263"
       x1="0"
       y1="117"
       x2="324"
       y2="117"
       gradientUnits="userSpaceOnUse" />
    <radialGradient
       inkscape:collect="always"
       xlink:href="#linearGradient1480"
       id="radialGradient1486"
       cx="69.301819"
       cy="131.95131"
       fx="69.301819"
       fy="131.95131"
       r="162"
       gradientTransform="matrix(-1.4915258,-1.2447839,1.5055555,-1.8039877,148.60542,523.20433)"
       gradientUnits="userSpaceOnUse" />
    <clipPath
       clipPathUnits="userSpaceOnUse"
       id="clipPath1512">
      <rect
         style="opacity:1;fill:#382ed1;fill-opacity:1;fill-rule:evenodd;stroke:none;stroke-width:3.08641982;stroke-miterlimit:4;stroke-dasharray:none;stroke-opacity:0.078125;paint-order:markers fill stroke"
         id="rect1514"
         width="409.87656"
         height="270.72311"
         x="-209.87654"
         y="839.18964" />
    </clipPath>
    <linearGradient
       inkscape:collect="always"
       xlink:href="#linearGradient2807"
       id="linearGradient2799"
       x1="80.099998"
       y1="35.099998"
       x2="323.99942"
       y2="234"
       gradientUnits="userSpaceOnUse" />
    <linearGradient
       id="a-6"
       y2="60.855776"
       x2="121.66407"
       y1="60.855776"
       x1="-0.0012176026"
       gradientTransform="matrix(0.92312552,0,0,1.0832763,93.092584,-106.19622)"
       gradientUnits="userSpaceOnUse">
      <stop
         id="stop2902"
         offset="0%"
         stop-color="#F50" />
      <stop
         id="stop2904"
         offset="40.99%"
         stop-color="#F50" />
      <stop
         id="stop2906"
         offset="58.2%"
         stop-color="#FF2000" />
      <stop
         id="stop2908"
         offset="100%"
         stop-color="#FF2000" />
    </linearGradient>
    <linearGradient
       id="b-7"
       y2="23.505344"
       x2="51.931952"
       y1="23.505344"
       x1="5.8330689"
       gradientTransform="matrix(1.9788801,0,0,0.50533633,93.092584,-106.19622)"
       gradientUnits="userSpaceOnUse">
      <stop
         id="stop2911"
         offset="0%"
         stop-color="#FF452A" />
      <stop
         id="stop2913"
         offset="100%"
         stop-color="#FF2000" />
    </linearGradient>
    <linearGradient
       inkscape:collect="always"
       xlink:href="#b"
       id="linearGradient1370"
       x1="-1086.636"
       y1="-46.420322"
       x2="-234.6543"
       y2="-46.420322"
       gradientUnits="userSpaceOnUse"
       gradientTransform="matrix(0.21970185,0,0,0.22783768,307.14489,127.57632)" />
    <radialGradient
       xlink:href="#a-62-3"
       id="m"
       cx="256"
       cy="256"
       r="256"
       fx="256"
       fy="256"
       gradientTransform="matrix(0.43266,0,0,0.29735856,-294.18838,32.032162)"
       gradientUnits="userSpaceOnUse" />
    <radialGradient
       xlink:href="#b-5"
       id="n"
       cx="379.803"
       cy="263.979"
       r="118.509"
       fx="379.803"
       fy="263.979"
       gradientTransform="matrix(0.36408339,1.2743697,-1.2140786,0.3468592,43.599665,-482.09296)"
       gradientUnits="userSpaceOnUse" />
    <radialGradient
       xlink:href="#c-3"
       id="o"
       cx="152.705"
       cy="175.729"
       r="30.957"
       fx="152.705"
       fy="175.729"
       gradientUnits="userSpaceOnUse"
       gradientTransform="matrix(0.43266,0,0,0.43266,-294.18838,-2.6053)" />
    <radialGradient
       xlink:href="#c-3"
       id="p"
       cx="313.924"
       cy="253.095"
       r="37.824"
       fx="313.924"
       fy="253.095"
       gradientUnits="userSpaceOnUse"
       gradientTransform="matrix(0.43266,0,0,0.43266,-294.18838,-2.6053)" />
    <radialGradient
       xlink:href="#c-3"
       id="q"
       cx="198.198"
       cy="253.095"
       r="37.824"
       fx="198.198"
       fy="253.095"
       gradientUnits="userSpaceOnUse"
       gradientTransform="matrix(0.43266,0,0,0.43266,-294.18838,-2.6053)" />
    <radialGradient
       xlink:href="#c-3"
       id="r"
       cx="256.165"
       cy="152.464"
       r="22.492"
       fx="256.165"
       fy="152.464"
       gradientTransform="matrix(0.43266,0,0,0.43266,-294.18838,-2.6053)"
       gradientUnits="userSpaceOnUse" />
    <radialGradient
       xlink:href="#d-2"
       id="s"
       cx="372.918"
       cy="133.722"
       r="12.626"
       fx="372.918"
       fy="133.722"
       gradientUnits="userSpaceOnUse" />
    <radialGradient
       xlink:href="#e-9"
       id="t"
       cx="372.918"
       cy="189.84"
       r="12.626"
       fx="372.918"
       fy="189.84"
       gradientUnits="userSpaceOnUse" />
    <radialGradient
       xlink:href="#f-1"
       id="u"
       cx="400.977"
       cy="161.781"
       r="12.626"
       fx="400.977"
       fy="161.781"
       gradientUnits="userSpaceOnUse" />
    <radialGradient
       xlink:href="#g-7"
       id="v"
       cx="344.86"
       cy="161.781"
       r="12.627"
       fx="344.86"
       fy="161.781"
       gradientTransform="matrix(1,0,0,0.99996,0,0.006)"
       gradientUnits="userSpaceOnUse" />
    <radialGradient
       xlink:href="#h-5-6"
       id="w"
       cx="313.923"
       cy="253.095"
       r="45.324"
       fx="313.923"
       fy="253.095"
       gradientUnits="userSpaceOnUse"
       gradientTransform="matrix(0.43266,0,0,0.43266,-294.18838,-2.6053)" />
    <radialGradient
       xlink:href="#h-5-6"
       id="x"
       cx="198.198"
       cy="253.095"
       r="45.324"
       fx="198.198"
       fy="253.095"
       gradientUnits="userSpaceOnUse"
       gradientTransform="matrix(0.43266,0,0,0.43266,-294.18838,-2.6053)" />
    <linearGradient
       id="i-6">
      <stop
         offset="0"
         stop-color="#eff5f8"
         id="stop1392" />
      <stop
         offset="1"
         stop-color="#ff8ad4"
         id="stop1394" />
    </linearGradient>
    <linearGradient
       id="j-7">
      <stop
         offset="0"
         stop-color="#f7fafb"
         id="stop1397" />
      <stop
         offset="1"
         stop-color="#b2cdde"
         id="stop1399" />
    </linearGradient>
    <linearGradient
       id="h-5-6">
      <stop
         offset="0"
         stop-color="#ffedf8"
         id="stop1402" />
      <stop
         offset="1"
         stop-color="#ff8ad4"
         id="stop1404" />
    </linearGradient>
    <linearGradient
       id="c-3">
      <stop
         offset="0"
         stop-color="#e6eff4"
         id="stop1407" />
      <stop
         offset="1"
         stop-color="#b2cdde"
         id="stop1409" />
    </linearGradient>
    <linearGradient
       id="b-5">
      <stop
         offset="0"
         stop-color="#5682a3"
         id="stop1412" />
      <stop
         offset="1"
         stop-color="#1e3647"
         id="stop1414" />
    </linearGradient>
    <linearGradient
       id="a-62-3">
      <stop
         offset="0"
         stop-color="#72a0c1"
         id="stop1417" />
      <stop
         offset="1"
         stop-color="#3c6889"
         id="stop1419" />
    </linearGradient>
    <linearGradient
       id="e-9">
      <stop
         offset="0"
         stop-color="#0bff58"
         id="stop1422" />
      <stop
         offset="1"
         stop-color="#00c03d"
         id="stop1424" />
    </linearGradient>
    <linearGradient
       id="f-1">
      <stop
         offset="0"
         stop-color="#ff4cbd"
         id="stop1427" />
      <stop
         offset="1"
         stop-color="#d40086"
         id="stop1429" />
    </linearGradient>
    <linearGradient
       id="d-2">
      <stop
         offset="0"
         stop-color="#ffe95d"
         id="stop1432" />
      <stop
         offset="1"
         stop-color="#e3c500"
         id="stop1434" />
    </linearGradient>
    <linearGradient
       id="g-7">
      <stop
         offset="0"
         stop-color="#4394ff"
         id="stop1437" />
      <stop
         offset="1"
         stop-color="#0055c4"
         id="stop1439" />
    </linearGradient>
    <linearGradient
       xlink:href="#h-5-6"
       id="k-0"
       x1="324"
       x2="324"
       y1="0"
       y2="234"
       gradientTransform="matrix(1,0,0,-1,-344.42739,228.15518)"
       gradientUnits="userSpaceOnUse" />
    <linearGradient
       xlink:href="#j-7"
       id="l-9"
       x1="49.774"
       x2="49.774"
       y1="0"
       y2="234"
       gradientTransform="matrix(1,0,0,0.38666,-344.42739,137.67818)"
       gradientUnits="userSpaceOnUse" />
    <linearGradient
       inkscape:collect="always"
       xlink:href="#h-5"
       id="linearGradient1622"
       x1="320.31644"
       y1="120.392"
       x2="320.23785"
       y2="138.89929"
       gradientUnits="userSpaceOnUse" />
  </defs>
  <sodipodi:namedview
     pagecolor="#ffffff"
     bordercolor="#666666"
     borderopacity="1"
     objecttolerance="10"
     gridtolerance="10"
     guidetolerance="10"
     inkscape:pageopacity="0"
     inkscape:pageshadow="2"
     inkscape:window-width="1920"
     inkscape:window-height="969"
     id="namedview41"
     showgrid="false"
     inkscape:zoom="1.7115385"
     inkscape:cx="226.17356"
     inkscape:cy="122.42828"
     inkscape:window-x="0"
     inkscape:window-y="0"
     inkscape:window-maximized="1"
     inkscape:current-layer="svg39"
     inkscape:document-rotation="0" />
  <style
     type="text/css"
     id="style90">
	.st0{fill:none;stroke:#3F5D6C;stroke-width:0.6618;stroke-miterlimit:10;}
	.st1{fill:#3F5D6C;}
	.st2{fill:#F9F6F4;}
	.st3{fill:none;stroke:#3F5D6C;stroke-width:0.174;stroke-miterlimit:10;}
</style>
  <rect
     x="0"
     y="0"
     width="324"
     height="234"
     style="fill:url(#linearGradient1622);fill-opacity:1;stroke:none"
     id="rect2" />
  <path
     style="fill:none;stroke:#ffffff;stroke-width:1.83906;stroke-linecap:butt;stroke-linejoin:miter;stroke-miterlimit:4;stroke-opacity:1"
     d="M -1.699218,-1.9492182 H 326.19141 V 235.08985 H -1.699218 Z m 0,0"
     id="path4" />
  <path
     d="m 160.16216,27.012943 c -0.29255,0.106988 -0.84108,0.499282 -1.20676,0.855911 -0.65823,0.570605 -0.6948,1.14121 -0.65823,7.38224 l 0.0732,6.775971 -1.24332,0.748917 c -0.69481,0.427958 -1.3896,0.998564 -1.49931,1.319534 -0.10969,0.320964 -0.21941,3.03135 -0.21941,6.062706 v 5.492101 h -0.95078 c -1.49931,0 -10.5317,2.068451 -13.64002,3.10268 -7.56968,2.532075 -15.94385,7.382241 -21.86793,12.696024 l -1.57243,1.390858 -2.99864,-2.710386 c -3.14488,-2.781715 -4.46135,-3.387991 -6.14347,-2.781715 -0.84112,0.320964 -1.27992,0.03565 -5.04649,-3.530638 -2.52318,-2.389416 -4.424733,-3.887268 -4.863593,-3.887268 -1.097036,0 -2.706072,1.034229 -3.400846,2.139787 -1.170176,1.961457 -0.877662,2.49641 3.510596,6.597647 l 4.095613,3.851609 -0.10968,1.818809 -0.10968,1.783151 3.47399,3.245327 3.43744,3.245339 -0.87766,1.248204 c -1.46275,2.032794 -5.15618,9.593339 -6.18006,12.624695 -1.42616,4.279564 -2.742683,9.664674 -2.962043,12.410734 l -0.21944,2.46074 -6.801688,-0.10699 -6.801753,-0.14265 -0.877601,1.35519 -0.877725,1.31953 h -7.057743 -7.094206 l -0.585148,0.89158 c -0.438802,0.64193 -0.548487,1.39085 -0.438802,2.67472 0.292515,2.8887 0.146288,2.85304 8.154819,2.85304 h 7.02106 l 0.512005,0.9629 c 0.255974,0.57061 0.877664,1.3552 1.353006,1.78315 0.80452,0.78459 1.097094,0.82025 7.240554,0.82025 h 6.362892 v 0.9629 c 0,0.5706 0.32911,2.3181 0.73137,3.9586 0.402263,1.60482 0.804523,3.42364 0.914263,3.99424 0.40221,2.17545 2.52319,7.77454 4.24191,11.23385 2.08438,4.10124 3.94939,7.06127 6.3995,10.23528 0.95075,1.2482 1.86494,2.42508 2.04784,2.63905 0.14622,0.21398 -0.80452,1.71183 -2.45011,3.70896 -2.81575,3.45931 -3.29116,4.74318 -2.41349,6.38367 0.29251,0.49928 0,1.0699 -1.35307,2.71039 -4.71731,5.70608 -5.55837,6.81164 -5.55837,7.23958 0,0.92725 1.13357,2.56774 2.19407,3.10268 2.37695,1.21255 2.8889,0.92725 6.83829,-3.8516 l 3.65688,-4.35088 h 1.75527 c 1.64558,-0.0356 1.86501,-0.14265 3.25462,-1.78315 0.84105,-0.9629 2.01124,-2.31809 2.66946,-2.9957 l 1.13363,-1.28386 1.42617,1.10556 c 2.26724,1.74748 6.65547,4.27956 10.38543,5.99138 3.32773,1.49785 9.91005,3.81593 11.4825,3.95858 0.40226,0.0713 2.08439,0.3923 3.76655,0.74893 l 2.99861,0.60627 v 6.20537 6.20535 l 1.09704,0.60628 1.09706,0.60627 v 6.41933 c 0,3.53064 0.10972,6.77597 0.21941,7.20393 0.47539,1.78314 4.42478,2.46075 6.58232,1.14122 l 1.24333,-0.74893 v -6.84729 -6.8473 l 1.09705,-0.78458 1.09706,-0.7846 0.0732,-5.99137 0.10971,-5.95573 2.59635,-0.21397 c 1.42618,-0.14265 3.72999,-0.49928 5.11958,-0.78458 1.3896,-0.32098 3.03519,-0.64193 3.65685,-0.74893 5.92408,-1.03423 17.58942,-6.49066 23.11124,-10.84155 l 1.57246,-1.2482 3.25459,3.10267 3.25458,3.13835 1.79186,-0.14264 1.75529,-0.107 4.20536,3.81594 c 4.53448,4.17257 5.22929,4.49353 7.09428,3.067 1.2799,-0.96289 2.15753,-2.92435 1.68214,-3.78026 -0.18284,-0.32096 -2.0844,-2.28243 -4.20536,-4.31522 -2.12097,-2.06846 -3.76655,-3.85161 -3.65684,-4.02991 0.10969,-0.14266 0.21941,-0.96291 0.21941,-1.7475 0,-1.39085 -0.18285,-1.67616 -3.21802,-4.63618 l -3.18146,-3.13835 1.27988,-1.53351 c 1.53588,-1.81882 4.57106,-6.52632 5.96067,-9.20105 1.17019,-2.28242 3.474,-7.48922 3.29115,-7.48922 -0.0731,0 0.256,-0.99857 0.73137,-2.24677 0.47539,-1.2482 0.95079,-2.96003 1.09706,-3.85161 0.14628,-0.85591 0.47538,-2.53207 0.76793,-3.70895 0.25598,-1.17688 0.51197,-2.56774 0.51197,-3.13834 v -0.9629 h 6.61888 6.58232 l 1.27989,-1.28387 c 0.6948,-0.71326 1.24333,-1.53351 1.24333,-1.78315 0,-0.39229 1.3896,-0.49928 7.24055,-0.49928 h 7.27712 l 0.40225,-0.89158 c 0.62167,-1.31953 0.54853,-3.81593 -0.14628,-4.74317 -0.54851,-0.74893 -0.73136,-0.78459 -7.67936,-0.78459 -7.09428,0 -7.13084,0 -7.42339,-0.82025 -0.6948,-1.74749 -1.09705,-1.85447 -8.30104,-1.71182 l -6.65546,0.10699 -0.25598,-1.74748 c -0.14626,-0.92725 -0.47538,-2.67473 -0.76793,-3.85161 -0.25598,-1.17688 -0.58509,-2.7104 -0.6948,-3.38798 -0.10971,-0.6776 -0.54853,-2.28244 -0.98735,-3.566304 -0.43882,-1.283871 -0.76794,-2.353759 -0.73136,-2.389423 0.0365,-0.07133 -0.54853,-1.426522 -1.24333,-3.031357 -1.64558,-3.744614 -3.98596,-8.059834 -5.92409,-10.948536 l -1.53588,-2.211105 1.13362,-0.962899 c 1.42617,-1.176882 2.19411,-2.81738 1.9747,-4.422214 -0.14628,-1.141216 0.0732,-1.462187 3.83969,-5.099813 2.81576,-2.746044 4.02253,-4.17256 4.02253,-4.743172 0,-1.176881 -0.91422,-2.710386 -1.9747,-3.423644 -1.865,-1.176881 -2.59636,-0.820252 -6.87487,3.245332 l -3.98596,3.851597 -1.79186,-0.106989 c -1.60901,-0.106987 -1.90156,0 -3.25458,1.176876 l -1.49931,1.319534 -2.6695,-2.032786 C 192.37905,61.891347 183.23694,57.968422 171.2425,55.93563 l -2.66951,-0.42796 v -5.385113 c 0,-5.84873 -0.25597,-6.811628 -1.93811,-7.596216 l -0.98736,-0.463617 v -6.882959 c 0,-6.419335 -0.0365,-6.918617 -0.73137,-7.524893 -0.73137,-0.641929 -3.72998,-1.069887 -4.75389,-0.641929 z m 49.73307,42.29631 c 0,0.07132 -0.43882,0.499275 -0.98735,0.998558 l -1.02391,0.855916 0.87765,-0.99857 c 0.84106,-0.891569 1.13361,-1.14121 1.13361,-0.855904 z m -4.13223,2.460738 c -0.1097,0.285306 -0.21941,0.178318 -0.21941,-0.213975 -0.0365,-0.392289 0.0732,-0.606271 0.18284,-0.463618 0.1097,0.106995 0.14628,0.427953 0.0365,0.677593 z m 0.36568,1.426523 c -0.1097,0.285305 -0.2194,0.178311 -0.2194,-0.213976 -0.0366,-0.392295 0.0732,-0.606271 0.18283,-0.463617 0.10971,0.106987 0.14628,0.427951 0.0365,0.677593 z m 9.25181,1.105552 c 0,0.07133 -0.43881,0.499281 -0.98734,0.998564 l -1.02392,0.855911 0.87765,-0.998558 c 0.84107,-0.891583 1.13361,-1.141223 1.13361,-0.855917 z m -6.03379,2.746056 c 0.36569,0.392289 0.58511,0.713252 0.4754,0.713252 -0.10971,0 -0.4754,-0.320963 -0.84108,-0.713252 -0.36568,-0.3923 -0.58509,-0.713264 -0.47539,-0.713264 0.10971,0 0.47539,0.320964 0.84107,0.713264 z m -71.74726,30.456188 c 1.64557,1.03423 3.72997,2.28244 4.60761,2.71039 l 1.64558,0.78459 -0.98734,0.71326 c -1.53588,1.10555 -2.55979,3.35231 -2.55979,5.67041 0,6.20537 6.25321,8.63045 8.84955,3.42366 0.84108,-1.71184 1.02394,-4.81452 0.36569,-6.02705 -0.54852,-0.99857 -0.29254,-1.10556 1.24334,-0.46362 0.73136,0.2853 2.15752,0.71326 3.18145,0.92724 0.98734,0.21398 1.82842,0.46362 1.82842,0.60627 0,0.10698 -0.18284,1.2482 -0.40226,2.53207 -0.8045,4.5292 -3.03517,7.95285 -6.47261,9.91431 -1.20675,0.71326 -2.26724,0.9629 -4.31508,1.10555 -2.37695,0.14265 -2.92547,0.0356 -4.68075,-0.78458 -3.43743,-1.6405 -6.10694,-5.2068 -7.38682,-9.736 -0.6948,-2.53207 -0.76795,-8.0955 -0.14628,-9.94998 0.43882,-1.3552 1.68215,-3.35232 2.08441,-3.35232 0.1097,0 1.53586,0.85592 3.14488,1.9258 z m 52.43913,-0.53493 c 2.34039,3.35231 1.90156,11.16251 -0.87763,16.11966 -1.20676,2.17545 -3.69342,4.67185 -5.52185,5.52777 -1.71871,0.82025 -5.44869,1.06988 -7.27711,0.49928 -4.46134,-1.42652 -7.82565,-5.99139 -8.41074,-11.41215 l -0.21941,-2.10413 1.42617,-0.24963 c 0.8045,-0.14266 2.1941,-0.53495 3.18146,-0.89157 l 1.71871,-0.67761 -0.25598,0.99857 c -0.54853,1.81881 -0.29255,4.88582 0.47539,6.16969 2.26724,3.78028 6.28978,3.53064 8.2279,-0.5706 1.35302,-2.81738 0.51195,-6.7403 -1.82842,-8.41648 l -1.09706,-0.78458 3.91282,-2.28242 c 2.15753,-1.24821 4.16881,-2.49642 4.46136,-2.78172 0.69479,-0.71326 1.13361,-0.53495 2.08439,0.85592 z m -84.61939,7.06126 c 0.10975,0.17832 0.25598,1.03422 0.40226,1.9258 l 0.25598,1.6405 h -8.045023 -8.008463 l -0.219431,-1.28386 c -0.475402,-2.74605 -1.097033,-2.53208 7.606212,-2.53208 4.315115,0 7.935395,0.10698 8.008465,0.24964 z m -17.296799,2.42509 v 1.24821 h -8.008529 c -7.971929,0 -8.008531,0 -8.227902,-0.82026 -0.475402,-1.71182 -0.694773,-1.67616 8.008471,-1.67616 h 8.22796 z m 41.870819,21.07683 c 2.81577,1.31952 8.99583,5.09981 8.37418,5.13546 -0.91422,0 -9.69064,-3.95859 -11.40936,-5.17113 -1.06049,-0.71326 -1.90156,-1.39086 -1.90156,-1.49785 0,-0.39229 2.5598,0.3923 4.93674,1.53352 z m 68.56582,-1.10555 c 0.69479,0.82024 0.87764,3.24533 0.36569,5.02847 -0.65824,2.28243 -2.30381,3.88727 -4.79047,4.56487 -3.98596,1.14121 -18.28422,1.81881 -16.63864,0.82024 0.36567,-0.24963 3.40086,-2.17544 6.76515,-4.27955 6.47262,-4.13691 8.84958,-5.45645 11.18995,-6.1697 1.93814,-0.60627 2.55979,-0.60627 3.10832,0.0356 z m -72.84433,17.11822 c 0.4754,0.3923 1.02392,1.03424 1.24333,1.42653 0.21942,0.49928 0.10971,0.42795 -0.40225,-0.17832 -0.43882,-0.53495 -0.76793,-0.6776 -0.76793,-0.3923 0,0.3923 -0.10971,0.3923 -0.54853,0.0356 -0.4754,-0.39229 -0.51196,-0.35662 -0.32913,0.14266 0.25599,0.67759 -0.51194,1.74748 -1.06047,1.39085 -0.21942,-0.10699 -0.25598,-0.0356 -0.10971,0.17831 0.25598,0.39231 -0.80451,2.17546 -1.31647,2.21111 -0.29255,0 -0.18283,-0.74892 0.25598,-1.42652 0.29255,-0.46361 0.21942,-0.46361 -0.29255,-0.0713 -0.32911,0.2853 -0.54852,0.6776 -0.51196,0.89158 0.0366,0.24964 -0.14627,0.39229 -0.40224,0.32097 -0.29255,-0.0356 -0.40226,0.0713 -0.25598,0.2853 0.1097,0.21398 0.40225,0.2853 0.58509,0.17832 0.18284,-0.14266 0.32911,-0.107 0.32911,0 0,0.32095 -2.34037,3.35231 -2.63295,3.38798 -0.29252,0 -0.18283,-0.74892 0.25603,-1.42652 0.25598,-0.46362 0.21938,-0.46362 -0.25603,-0.0714 -0.32911,0.24964 -0.54849,0.78458 -0.47534,1.17687 0.0732,0.39229 -0.25597,1.24821 -0.69483,1.9258 -0.80453,1.14122 -0.8776,1.17688 -1.46275,0.57061 -0.54849,-0.57061 -0.51195,-0.71326 0.43886,-1.81882 0.54848,-0.67759 1.353,-1.60482 1.79186,-2.03278 0.43881,-0.46362 0.73132,-0.82024 0.62164,-0.82024 -0.10969,0 0.0367,-0.21398 0.29257,-0.4993 0.25597,-0.2853 0.84106,-0.99856 1.31644,-1.56916 0.47539,-0.60627 1.31647,-1.60484 1.90156,-2.28243 0.58508,-0.64194 1.09705,-1.31954 1.09705,-1.46218 0,-0.17833 0.21941,-0.17833 0.47539,-0.0356 0.21942,0.14266 0.0366,-0.21398 -0.47539,-0.78459 -0.95078,-1.06989 -0.32911,-0.74893 1.3896,0.74892 z m -10.60485,12.91001 c -0.29251,0.35662 -0.87761,1.03422 -1.24332,1.49785 -0.36566,0.46361 -0.98735,1.1412 -1.31647,1.5335 -0.36565,0.35663 -0.54853,0.64193 -0.4388,0.64193 0.10969,0 -0.0732,0.24964 -0.40226,0.57061 -0.32911,0.32097 -1.5359,1.74749 -2.63292,3.13834 -1.13364,1.39087 -2.12099,2.60341 -2.19413,2.67473 -0.0732,0.10699 -0.29251,0 -0.51195,-0.21399 -0.25597,-0.24962 -0.0732,-0.60626 0.62169,-1.1412 0.54849,-0.39229 0.87761,-0.74893 0.73132,-0.74893 -0.21937,0 0.87766,-1.35519 2.23067,-2.74604 0.43886,-0.46362 0.73137,-0.82026 0.62168,-0.82026 -0.10968,0 0.0732,-0.24964 0.36573,-0.5706 0.32905,-0.32097 1.06044,-1.14122 1.60897,-1.85448 0.54855,-0.74891 1.27993,-1.64049 1.64558,-1.99713 0.32912,-0.39229 0.6217,-0.85591 0.6217,-1.06988 0,-0.21398 0.18283,-0.17832 0.4388,0.0713 0.32911,0.32095 0.29251,0.57059 -0.14629,1.03422 z"
     id="path964"
     style="fill:url(#linearGradient1370);fill-opacity:1;stroke:none;stroke-width:0.036113" />
  <path
     d="m -832.97665,114.13651 c -0.50226,0.7735 0.16743,1.3923 1.50681,1.3923 1.33938,0 2.00907,-0.6188 1.50681,-1.3923 -0.50227,-0.6188 -1.17196,-1.2376 -1.50681,-1.2376 -0.33485,0 -1.00454,0.6188 -1.50681,1.2376 z"
     id="path966"
     style="fill:#000000;stroke:none;stroke-width:0.160936" />
  <path
     d="m -861.43853,148.17046 -3.18103,4.17689 4.01814,-3.40339 c 2.00908,-1.8564 3.51588,-3.7128 3.01362,-4.1769 -0.33485,-0.30939 -2.1765,1.2376 -3.85073,3.4034 z"
     id="path968"
     style="fill:#000000;stroke:none;stroke-width:0.160936" />
</svg>
