<?xml version="1.0" encoding="UTF-8" standalone="no"?>
<svg
   xmlns:dc="http://purl.org/dc/elements/1.1/"
   xmlns:cc="http://creativecommons.org/ns#"
   xmlns:rdf="http://www.w3.org/1999/02/22-rdf-syntax-ns#"
   xmlns:svg="http://www.w3.org/2000/svg"
   xmlns="http://www.w3.org/2000/svg"
   xmlns:xlink="http://www.w3.org/1999/xlink"
   width="324px"
   height="234px"
   viewBox="0 0 324 234"
   version="1.1"
   id="svg11">
  <metadata
     id="metadata17">
    <rdf:RDF>
      <cc:Work
         rdf:about="">
        <dc:format>image/svg+xml</dc:format>
        <dc:type
           rdf:resource="http://purl.org/dc/dcmitype/StillImage" />
        <dc:title></dc:title>
      </cc:Work>
    </rdf:RDF>
  </metadata>
  <defs
     id="defs15">
    <linearGradient
       id="linearGradient1659">
      <stop
         style="stop-color:#008af2;stop-opacity:1;"
         offset="0"
         id="stop1655" />
      <stop
         style="stop-color:#008af2;stop-opacity:0;"
         offset="1"
         id="stop1657" />
    </linearGradient>
    <linearGradient
       id="linearGradient957-6">
      <stop
         id="stop1642"
         offset="0"
         style="stop-color:#0079f2;stop-opacity:1" />
      <stop
         id="stop1644"
         offset="1"
         style="stop-color:#004e9d;stop-opacity:1" />
    </linearGradient>
    <linearGradient
       id="linearGradient957">
      <stop
         id="stop1629"
         offset="0"
         style="stop-color:#0079f2;stop-opacity:1" />
      <stop
         id="stop1631"
         offset="1"
         style="stop-color:#004e9d;stop-opacity:1" />
    </linearGradient>
    <linearGradient
       id="linearGradient957-6-7">
      <stop
         id="stop949"
         offset="0"
         style="stop-color:#0079f2;stop-opacity:1" />
      <stop
         id="stop955"
         offset="1"
         style="stop-color:#004e9d;stop-opacity:1" />
    </linearGradient>
    <linearGradient
       id="linearGradient909">
      <stop
         style="stop-color:#0079f2;stop-opacity:1"
         offset="0"
         id="stop905" />
      <stop
         id="stop911"
         offset="0.43339902"
         style="stop-color:#0051a1;stop-opacity:1" />
      <stop
         style="stop-color:#00458a;stop-opacity:1"
         offset="0.63717282"
         id="stop927" />
      <stop
         style="stop-color:#002c58;stop-opacity:1"
         offset="1"
         id="stop907" />
    </linearGradient>
    <radialGradient
       xlink:href="#linearGradient1659"
       id="radialGradient1663"
       cx="162.24609"
       cy="117.66992"
       fx="162.24609"
       fy="117.66992"
       r="164.86516"
       gradientTransform="matrix(0.98993071,0,0,0.7168664,1.6782415,32.926956)"
       gradientUnits="userSpaceOnUse" />
    <linearGradient
       id="SVGID_1_"
       gradientUnits="userSpaceOnUse"
       x1="256"
       x2="256"
       y1="512"
       y2="0">
      <stop
         offset="0"
         stop-color="#00b59c"
         id="stop2" />
      <stop
         offset="1"
         stop-color="#9cffac"
         id="stop4" />
    </linearGradient>
    <linearGradient
       id="SVGID_2_"
       gradientUnits="userSpaceOnUse"
       x1="256"
       x2="256"
       y1="361"
       y2="151">
      <stop
         offset="0"
         stop-color="#c3ffe8"
         id="stop7" />
      <stop
         offset=".9973"
         stop-color="#f0fff4"
         id="stop9" />
    </linearGradient>
  </defs>
  <rect
     x="0"
     y="0"
     width="324.58127"
     height="234.56114"
     style="fill:#91ffff;fill-opacity:1;stroke:none;stroke-width:1.0021;stroke-opacity:1"
     id="rect2" />
  <path
     style="fill:url(#radialGradient1663);fill-opacity:1;stroke:none;stroke-width:1.82015;stroke-linecap:butt;stroke-linejoin:miter;stroke-miterlimit:4;stroke-opacity:1"
     d="M 0,0 H 324.58127 V 234.56114 H 0 Z m 0,0"
     id="path4" />
  <path
     d="m 264.68987,149.97881 -71.56259,33.47897 a 16.846668,13.643129 0 0 1 -3.82095,1.13793 9.8605022,7.9854426 0 0 1 -1.20791,0.17967 13.715959,11.107751 0 0 1 -5.10281,-0.17967 15.224615,12.329523 0 0 1 -2.73629,-0.71869 20.41617,16.533859 0 0 1 -1.87349,-0.73866 L 73.203855,133.968 a 11.704416,9.4787204 0 0 1 -1.232563,-0.67876 4.5013193,3.6453545 0 0 1 -0.690235,-0.51906 2.9187087,2.363691 0 0 1 -0.887445,-1.4773 v -0.13975 a 3.2835472,2.6591524 0 0 1 1.035353,-1.73683 l 0.246512,-0.19964 a 8.973057,7.2667528 0 0 1 1.824193,-1.07803 l 72.17887,-33.738497 z"
     fill="#e7e7ef"
     id="path2"
     style="stroke-width:0.443679;stroke:none" />
  <path
     d="m 264.68987,149.97881 v 4.23229 l -23.73916,11.09976 c -14.97465,6.96051 -30.37379,13.63514 -46.19645,20.0235 a 20.120355,16.294296 0 0 1 -9.17027,1.83665 15.559872,12.601028 0 0 1 -5.32467,-1.01814 20.41617,16.533859 0 0 1 -1.87349,-0.73866 L 73.203855,136.20392 a 7.4397489,6.0250164 0 0 1 -1.922798,-1.15789 2.9187087,2.363691 0 0 1 -0.887445,-1.4773 v -2.27585 a 2.9187087,2.363691 0 0 0 0.887445,1.4773 c 0.207071,0.19205 0.438792,0.36614 0.690235,0.51906 a 11.704416,9.4787204 0 0 0 1.232563,0.67876 l 105.181975,49.17435 a 20.41617,16.533859 0 0 0 1.87349,0.73866 15.224615,12.329523 0 0 0 2.73629,0.71869 13.715959,11.107751 0 0 0 5.10281,0.17967 9.8605022,7.9854426 0 0 0 1.20791,-0.17967 16.846668,13.643129 0 0 0 3.82095,-1.13793 z"
     fill="#aaabb6"
     id="path4-3"
     style="stroke-width:0.443679;stroke:none" />
  <path
     d="m 254.5089,156.32724 0.69024,0.31942 4.24002,-1.95644 1.08465,0.51906 -6.01491,2.85479 z"
     fill="#333c54"
     id="path8"
     style="stroke-width:0.443679;stroke:none" />
  <path
     d="m 260.52381,155.20928 -1.08465,-0.51906 0.54232,-0.27949 v -0.59891 l -0.54232,-0.23956 1.08465,-0.55898 z"
     fill="#2d364c"
     id="path10"
     style="stroke-width:0.443679;stroke:none" />
  <path
     d="m 259.43916,154.69022 -4.24002,1.95644 v -0.6588 l 4.78234,-2.17604 v 0.59891 z"
     fill="#49526b"
     id="path12"
     style="stroke-width:0.443679;stroke:none" />
  <path
     d="m 255.19914,155.98786 -0.49303,-0.2196 4.73305,-2.196 0.54232,0.23956 z"
     fill="#59627b"
     id="path14"
     style="stroke-width:0.443679;stroke:none" />
  <path
     d="m 255.19914,156.64666 -0.69024,-0.31942 v -0.4392 l 0.19721,-0.11978 0.49303,0.2196 z"
     fill="#3a445d"
     id="path16"
     style="stroke-width:0.443679;stroke:none" />
  <path
     d="m 246.96562,159.90072 -0.49302,-0.23956 4.73304,-2.25589 0.54232,0.27949 z"
     fill="#59627b"
     id="path18"
     style="stroke-width:0.443679;stroke:none" />
  <path
     d="m 251.74796,157.68476 -0.54232,-0.27949 1.13395,-0.51905 v 2.21596 l -1.13395,-0.51905 0.54232,-0.27949 z"
     fill="#2d364c"
     id="path20"
     style="stroke-width:0.443679;stroke:none" />
  <path
     d="m 246.96562,160.53956 v -0.63884 l 4.78234,-2.21596 v 0.61888 l -0.54232,0.27949 z"
     fill="#49526b"
     id="path22"
     style="stroke-width:0.443679;stroke:none" />
  <path
     d="m 246.27539,160.22014 0.69023,0.31942 4.24002,-1.95643 1.13395,0.51905 -6.0642,2.83483 z"
     fill="#333c54"
     id="path24"
     style="stroke-width:0.443679;stroke:none" />
  <path
     d="m 264.68987,149.97881 -20.83031,-9.74224 -1.65163,-2.31578 -74.02772,-34.57696 -1.57768,0.73865 -1.20298,-0.57894 -0.074,0.0399 -19.64705,-9.143327 V 22.431332 c 0,-1.330774 0.23024,-2.18921 0.69024,-2.575306 0.0444,-0.03793 0.0937,-0.07147 0.1479,-0.09982 a 2.4651255,1.9963606 0 0 1 0.34512,-0.179672 2.3073575,1.8685936 0 0 1 1.8242,0.09982 4.2104344,3.409784 0 0 1 0.78884,0.319418 l 111.94135,52.264721 0.12325,0.05989 c 1.85723,0.971429 2.90047,2.588481 3.13071,4.851157 z m -4.78234,-12.73678 V 79.287683 L 151.22014,28.580122 150.48061,28.220777 v 58.732931 l 109.45157,51.106832 z"
     fill="#252f46"
     id="path28"
     style="stroke-width:0.443679;stroke:none" />
  <path
     d="m 146.88152,19.576536 1.67629,-0.758617 c 0.72475,-0.319418 1.64177,-0.199636 2.76094,0.359345 L 263.3094,71.402058 c 1.93907,0.958253 3.02373,2.608445 3.25397,4.950975 v 72.767347 a 4.8957393,3.9647723 0 0 1 -1.8735,2.97457 V 77.171541 c -0.23024,-2.265071 -1.27348,-3.882123 -3.13071,-4.851157 l -0.12325,-0.05989 -111.9167,-52.264721 a 4.2104344,3.409784 0 0 0 -0.78884,-0.319418 2.3073575,1.8685936 0 0 0 -1.84885,-0.09982 z"
     fill="#49526b"
     id="path30"
     style="stroke-width:0.443679;stroke:none" />
  <path
     d="m 151.22014,28.580122 v 57.934386 l 108.68739,50.727522 v 0.79854 L 150.48061,86.953708 V 28.220777 Z"
     fill="#1a1f35"
     id="path32"
     style="stroke-width:0.443679;stroke:none" />
  <path
     d="M 259.90753,137.24203 151.22014,86.514508 V 28.580122 l 108.68739,50.707561 z"
     fill="#283055"
     id="path34"
     style="stroke-width:0.443679;stroke:none" />
  <path
     d="m 205.03384,49.785465 a 0.86279394,0.69872623 0 0 1 0.32046,-0.618872 0.75432842,0.61088636 0 0 1 0.76419,0.05989 c 0.33329,0.1649 0.60642,0.399272 0.78884,0.678763 0.19968,0.27949 0.31011,0.595315 0.32047,0.918326 a 0.80363093,0.65081357 0 0 1 -0.32047,0.598908 0.72967716,0.59092275 0 0 1 -0.78884,0 2.2087525,1.7887391 0 0 1 -0.78391,-0.702719 2.4059625,1.948448 0 0 1 -0.30074,-0.934296 z"
     fill="#3a445d"
     id="path36"
     style="stroke-width:0.443679;stroke:none" />
  <path
     d="m 152.92108,104.44183 1.67629,-0.73866 a 1.6023316,1.2976344 0 0 1 0.88744,-0.19963 2.1841012,1.7687755 0 0 1 0.66559,0.13974 l 4.60978,2.17603 c 0.29582,0.11979 0.44372,0.25155 0.44372,0.39928 a 0.4338621,0.35135947 0 0 1 -0.22186,0.29945 l -1.82419,0.83847 a 1.6812156,1.361518 0 0 1 -0.59163,0.11978 1.4051216,1.1379256 0 0 1 -0.71489,-0.11978 l -4.77741,-2.25589 a 0.9170267,0.74264616 0 0 1 -0.39442,-0.31941 0.38455959,0.31143226 0 0 1 0.24158,-0.33938 z m -1.47907,-0.67877 a 1.1881905,0.96224583 0 0 1 -0.64094,0.13975 1.0945157,0.88638413 0 0 1 -0.71488,-0.17967 l -4.78235,-2.29582 c -0.24651,-0.0958 -0.36977,-0.19564 -0.36977,-0.29945 0,-0.10781 0.074,-0.19964 0.27117,-0.27949 l 1.72559,-0.79855 a 1.336098,1.0820275 0 0 1 0.83814,-0.159708 1.9721004,1.5970885 0 0 1 0.59163,0.119778 l 4.83164,2.21596 c 0.21201,0.11979 0.32047,0.23957 0.32047,0.35935 a 0.45851335,0.37132308 0 0 1 -0.27116,0.33938 z m -4.70839,5.4301 a 0.32046632,0.25952688 0 0 1 -0.19721,0.25953 l -4.33863,2.03629 a 1.3558191,1.0979984 0 0 1 -0.54232,0.0998 1.8636349,1.5092487 0 0 1 -0.76419,-0.13975 l -8.52934,-3.95279 a 0.38455959,0.31143226 0 0 1 -0.24651,-0.27949 0.38948984,0.31542498 0 0 1 0.27117,-0.29946 l 4.16606,-2.01632 a 1.3854006,1.1219547 0 0 1 0.78884,-0.15971 c 0.23073,0.008 0.45358,0.0703 0.64093,0.17967 l 8.38143,3.87294 c 0.18932,0.0827 0.3249,0.22878 0.36977,0.39927 z m -2.46513,4.71141 5.02886,2.31578 a 0.45851335,0.37132308 0 0 1 0.27116,0.31942 c 0.0345,0.0918 0,0.19165 -0.17256,0.29945 l -4.33862,2.01633 a 1.1536788,0.93429678 0 0 1 -0.64093,0.11978 1.8537744,1.5012632 0 0 1 -0.61628,-0.13974 l -4.807,-2.25589 c -0.23172,-0.0958 -0.34512,-0.19964 -0.34512,-0.31942 0,-0.11978 0.0394,-0.19964 0.22187,-0.27949 l 4.24001,-2.07622 a 1.296656,1.0500857 0 0 1 1.15861,0 z m -0.81349,-1.83265 4.24001,-2.07622 a 1.296656,1.0500857 0 0 1 1.15861,0 l 5.02886,2.31578 a 0.45851335,0.37132308 0 0 1 0.27116,0.31942 c 0.0345,0.0918 -0.0247,0.19165 -0.17256,0.29945 l -4.33862,2.01632 a 1.1536788,0.93429678 0 0 1 -0.64093,0.11979 1.8537744,1.5012632 0 0 1 -0.61628,-0.13975 l -4.80699,-2.25589 c -0.23173,-0.0958 -0.34512,-0.19963 -0.34512,-0.31941 0,-0.11979 0.0394,-0.18367 0.22186,-0.27949 z m -1.57768,1.31759 -4.21537,1.99636 a 1.3854006,1.1219547 0 0 1 -0.66558,0.11979 2.8003826,2.2678657 0 0 1 -0.71489,-0.15971 l -10.32394,-4.79526 c -0.212,-0.1078 -0.32047,-0.20762 -0.32047,-0.29946 a 0.40428059,0.32740315 0 0 1 0.27117,-0.31941 l 4.28931,-2.03629 a 1.2424233,1.0061658 0 0 1 1.30652,0.0399 l 10.35353,4.83119 c 0.4733,0.22359 0.47823,0.4392 0.0197,0.63883 z m -2.63769,4.73138 -4.21536,1.99636 a 1.3854006,1.1219547 0 0 1 -0.66558,0.11978 4.6788083,3.7890925 0 0 1 -0.66559,-0.11978 l -3.77164,-1.7568 a 0.05916301,0.04791266 0 0 0 -0.0493,0 l -10.32395,-4.81522 c -0.212,-0.1078 -0.32047,-0.20762 -0.32047,-0.29945 a 0.40526664,0.32820169 0 0 1 0.27117,-0.31942 l 4.28932,-2.03629 a 1.2424233,1.0061658 0 0 1 1.30651,0.0399 l 3.77165,1.75679 c 1.90948,0.89158 3.82439,1.78994 5.74374,2.69509 l 0.27116,0.11978 4.31397,1.99636 c 0.49796,0.2236 0.50289,0.4392 0.0444,0.63884 z m 2.24327,0.45916 5.02885,2.31578 a 0.45851335,0.37132308 0 0 1 0.27117,0.31942 c 0.0345,0.0918 -0.0247,0.19165 -0.17256,0.29945 l -4.33862,2.01633 a 1.1536788,0.93429678 0 0 1 -0.64093,0.11978 1.8537744,1.5012632 0 0 1 -0.61629,-0.13975 l -4.80699,-2.25589 c -0.23172,-0.0958 -0.34512,-0.19963 -0.34512,-0.31941 0,-0.11978 0.0394,-0.19964 0.22186,-0.27949 l 4.24002,-2.07622 a 1.296656,1.0500857 0 0 1 1.15861,0.016 z m 9.36748,-3.05443 4.24001,-2.07622 a 1.296656,1.0500857 0 0 1 1.15861,0 l 5.02886,2.31578 a 0.45851335,0.37132308 0 0 1 0.27116,0.31942 c 0.0345,0.0918 -0.0247,0.19165 -0.17256,0.29945 l -4.33862,1.99637 a 1.1536788,0.93429678 0 0 1 -0.64093,0.11978 1.8537744,1.5012632 0 0 1 -0.61628,-0.13975 l -4.807,-2.25589 c -0.23172,-0.0958 -0.34512,-0.19963 -0.34512,-0.31941 0,-0.11979 0.0641,-0.16371 0.24652,-0.24356 z m -0.41908,1.77676 a 1.296656,1.0500857 0 0 1 1.15861,0 l 5.02886,2.31578 a 0.45851335,0.37132308 0 0 1 0.27116,0.31942 c 0.0345,0.0918 0,0.19165 -0.17256,0.29945 l -4.33862,2.01632 a 1.1536788,0.93429678 0 0 1 -0.64093,0.11979 1.8537744,1.5012632 0 0 1 -0.61628,-0.13975 l -4.807,-2.25589 c -0.23172,-0.0958 -0.34511,-0.19963 -0.34511,-0.31941 0,-0.11979 0.0394,-0.19964 0.22186,-0.27949 z m -31.70151,-3.29399 4.80699,2.19599 a 0.49302511,0.39927213 0 0 1 0.27117,0.39927 0.35004783,0.28348321 0 0 1 -0.19721,0.23957 l -5.12746,2.3557 c -0.40083,0.19964 -0.90569,0.19964 -1.30652,0 l -4.80699,-2.21596 c -0.21201,-0.11978 -0.32047,-0.23557 -0.32047,-0.33938 a 0.59163013,0.47912656 0 0 1 0.22186,-0.31942 l 5.15211,-2.3557 a 1.4494938,1.1738601 0 0 1 1.33117,0.0559 z m 7.34607,3.39381 4.807,2.196 a 0.49302511,0.39927213 0 0 1 0.27116,0.39927 0.35004783,0.28348321 0 0 1 -0.19721,0.23956 l -5.12746,2.35571 c -0.40083,0.19963 -0.90569,0.19963 -1.30652,0 l -4.80699,-2.21596 c -0.212,-0.11979 -0.32047,-0.23557 -0.32047,-0.33939 a 0.59163013,0.47912656 0 0 1 0.22186,-0.31941 l 5.15212,-2.35571 a 1.4494938,1.1738601 0 0 1 1.33116,0.0559 z m 7.49399,3.4537 4.80699,2.196 a 0.49302511,0.39927213 0 0 1 0.27116,0.37931 0.35004783,0.28348321 0 0 1 -0.19721,0.23956 l -5.12746,2.35571 c -0.40083,0.19963 -0.90568,0.19963 -1.30651,0 l -4.807,-2.21596 c -0.212,-0.11979 -0.32046,-0.23557 -0.32046,-0.33939 a 0.59163013,0.47912656 0 0 1 0.22186,-0.31941 l 5.15211,-2.35571 a 1.4494938,1.1738601 0 0 1 1.30652,0.0599 z m 0.59163,6.06894 a 0.59163013,0.47912656 0 0 1 0.22186,-0.31942 l 5.15211,-2.3557 a 1.4494938,1.1738601 0 0 1 1.30652,0.0599 l 6.63118,3.0145 a 0.49302511,0.39927213 0 0 1 0.27117,0.37931 0.35004783,0.28348321 0 0 1 -0.19721,0.23956 l -5.12746,2.35571 c -0.40083,0.19963 -0.90569,0.19963 -1.30652,0 l -6.63119,-3.03447 c -0.212,-0.10381 -0.32046,-0.2196 -0.32046,-0.32341 z m 19.22797,-3.81305 c -0.0345,-0.1078 0.0394,-0.19964 0.22187,-0.27949 l 4.24001,-2.07622 a 1.296656,1.0500857 0 0 1 1.15861,0 l 5.02886,2.31578 a 0.45851335,0.37132308 0 0 1 0.27116,0.31942 c 0.0345,0.0918 -0.0247,0.19165 -0.17256,0.29945 l -4.33862,2.01633 a 1.1536788,0.93429678 0 0 1 -0.64093,0.11978 1.8537744,1.5012632 0 0 1 -0.61628,-0.13974 l -4.807,-2.25589 c -0.25637,-0.0799 -0.36977,-0.17967 -0.36977,-0.30345 z m -4.51117,-1.07803 5.02885,2.31577 a 0.45851335,0.37132308 0 0 1 0.27116,0.31942 c 0.0345,0.0918 -0.0246,0.19165 -0.17255,0.29946 l -4.33862,2.01632 a 1.1536788,0.93429678 0 0 1 -0.64094,0.11978 1.8537744,1.5012632 0 0 1 -0.61628,-0.13974 l -4.80699,-2.25589 c -0.23173,-0.0958 -0.34512,-0.19964 -0.34512,-0.31942 0,-0.11978 0.0394,-0.19964 0.22186,-0.27949 l 4.24002,-2.07621 a 1.296656,1.0500857 0 0 1 1.13395,0.02 z m 1.13395,6.52809 34.12227,15.88704 c 0.28102,0.11978 0.41907,0.25953 0.41907,0.41924 0,0.15971 -0.10846,0.20363 -0.32046,0.29945 l -4.68374,2.23593 a 1.7798206,1.4413724 0 0 1 -1.79954,0 l -34.06804,-15.89103 c -0.35991,-0.19964 -0.39442,-0.39928 -0.0986,-0.61888 l 4.97955,-2.31577 a 1.4790753,1.1978164 0 0 1 1.42484,0 z m 0.59163,-0.75861 c -0.0345,-0.10781 0.0394,-0.19964 0.22186,-0.27949 l 4.24002,-2.07622 a 1.296656,1.0500857 0 0 1 1.15861,0 l 5.02886,2.31578 a 0.45851335,0.37132308 0 0 1 0.27116,0.31942 c 0.0345,0.0918 -0.0246,0.19165 -0.17256,0.29945 l -4.33862,2.01633 a 1.1536788,0.93429678 0 0 1 -0.64093,0.11978 1.8537744,1.5012632 0 0 1 -0.61628,-0.13975 l -4.807,-2.25588 c -0.25637,-0.0799 -0.36977,-0.18367 -0.36977,-0.30345 z m 59.01511,0.75861 4.60978,2.17604 c 0.29582,0.11978 0.44373,0.25154 0.44373,0.39927 a 0.4338621,0.35135947 0 0 1 -0.22187,0.29945 l -1.82419,0.83848 a 1.6812156,1.361518 0 0 1 -0.59163,0.11978 1.4051216,1.1379256 0 0 1 -0.71488,-0.11978 l -4.78235,-2.23593 a 0.9170267,0.74264616 0 0 1 -0.39442,-0.31942 0.38455959,0.31143226 0 0 1 0.22186,-0.33938 l 1.67629,-0.73865 a 1.6023316,1.2976344 0 0 1 0.88744,-0.19964 c 0.22926,0.0164 0.45359,0.0623 0.66559,0.13576 z m -2.63769,-0.61887 -1.82419,0.83847 a 1.6812156,1.361518 0 0 1 -0.59163,0.11979 1.4051216,1.1379256 0 0 1 -0.71489,-0.11979 l -4.75769,-2.25588 a 0.9170267,0.74264616 0 0 1 -0.39442,-0.31942 0.38455959,0.31143226 0 0 1 0.22186,-0.33938 l 1.67629,-0.73866 a 1.6023316,1.2976344 0 0 1 0.88744,-0.19963 2.1841012,1.7687755 0 0 1 0.66559,0.13974 l 4.60978,2.17604 c 0.29582,0.11978 0.44373,0.25154 0.44373,0.39927 a 0.4338621,0.35135947 0 0 1 -0.24652,0.31542 z m -7.74049,-3.59345 -1.79954,0.83847 a 1.1881905,0.96224583 0 0 1 -0.64093,0.13975 1.0945157,0.88638413 0 0 1 -0.71489,-0.17967 l -4.78234,-2.29582 c -0.24652,-0.0958 -0.36977,-0.19564 -0.36977,-0.29945 0,-0.1078 0.0739,-0.19964 0.27116,-0.27949 l 1.72559,-0.79855 a 1.336098,1.0820275 0 0 1 0.83814,-0.1597 1.9721004,1.5970885 0 0 1 0.59163,0.11978 l 4.83165,2.21596 c 0.212,0.11978 0.32046,0.23956 0.32046,0.35934 a 0.45851335,0.37132308 0 0 1 -0.29581,0.35535 z m -0.98605,9.22319 -4.33862,2.01632 a 1.1536788,0.93429678 0 0 1 -0.64093,0.11979 1.8537744,1.5012632 0 0 1 -0.61629,-0.13975 l -4.80699,-2.25589 c -0.23172,-0.0958 -0.34512,-0.19963 -0.34512,-0.31941 0,-0.11979 0.0394,-0.19964 0.22186,-0.2795 l 4.24002,-2.07621 a 1.296656,1.0500857 0 0 1 1.15861,0 l 5.02885,2.31578 a 0.45851335,0.37132308 0 0 1 0.27117,0.31942 c 0.005,0.1078 -0.0493,0.20762 -0.19721,0.31542 z m 2.24326,0.51905 5.02886,2.31578 a 0.45851335,0.37132308 0 0 1 0.27116,0.31942 c 0.0345,0.0918 -0.0247,0.19165 -0.17255,0.29945 l -4.33863,1.99636 a 1.1536788,0.93429678 0 0 1 -0.64093,0.11979 1.8537744,1.5012632 0 0 1 -0.61628,-0.13975 l -4.80699,-2.25589 c -0.23173,-0.0958 -0.34512,-0.19963 -0.34512,-0.31941 0,-0.11979 0.0394,-0.19964 0.22186,-0.2795 l 4.24002,-2.07621 a 1.296656,1.0500857 0 0 1 1.13395,0.0359 z m 15.25913,-1.97639 a 1.336098,1.0820275 0 0 1 0.83814,-0.15971 1.9721004,1.5970885 0 0 1 0.59163,0.11978 l 4.83165,2.21596 c 0.212,0.11978 0.32047,0.23956 0.32047,0.35934 a 0.45851335,0.37132308 0 0 1 -0.27117,0.33939 l -1.79954,0.83847 a 1.1881905,0.96224583 0 0 1 -0.64093,0.13974 1.0945157,0.88638413 0 0 1 -0.71489,-0.17967 l -4.78234,-2.29581 c -0.24651,-0.0958 -0.36977,-0.19565 -0.36977,-0.29946 0,-0.1078 0.0739,-0.19963 0.27116,-0.27949 z m -7.8884,5.39017 5.02886,2.31578 a 0.45851335,0.37132308 0 0 1 0.27116,0.31942 c 0.0345,0.0918 -0.0247,0.19165 -0.17256,0.29945 l -4.33862,2.01632 a 1.1536788,0.93429678 0 0 1 -0.64093,0.11979 1.8537744,1.5012632 0 0 1 -0.61628,-0.13975 l -4.807,-2.25589 c -0.23172,-0.0958 -0.34512,-0.19963 -0.34512,-0.31941 0,-0.11979 0.0395,-0.19964 0.22186,-0.27949 l 4.24002,-2.07622 a 1.296656,1.0500857 0 0 1 1.08959,0.016 z m 16.46704,-1.93647 a 2.1841012,1.7687755 0 0 1 0.66558,0.13975 l 4.60979,2.17603 c 0.29581,0.11978 0.44372,0.25154 0.44372,0.39927 a 0.4338621,0.35135947 0 0 1 -0.22186,0.29945 l -1.82419,0.83848 a 1.6812156,1.361518 0 0 1 -0.59163,0.11978 1.4051216,1.1379256 0 0 1 -0.71489,-0.11978 l -4.75769,-2.25589 a 0.9170267,0.74264616 0 0 1 -0.39442,-0.31942 0.38455959,0.31143226 0 0 1 0.22186,-0.33938 l 1.67628,-0.73865 a 1.6023316,1.2976344 0 0 1 0.83815,-0.18367 z m 7.62217,3.65334 a 2.1841012,1.7687755 0 0 1 0.66558,0.13975 l 4.60979,2.17603 c 0.29581,0.11978 0.44372,0.25154 0.44372,0.39927 a 0.4338621,0.35135947 0 0 1 -0.22186,0.29945 l -1.8242,0.83848 a 1.6812156,1.361518 0 0 1 -0.59163,0.11978 1.4051216,1.1379256 0 0 1 -0.71488,-0.11978 l -4.73797,-2.25589 a 0.9170267,0.74264616 0 0 1 -0.39442,-0.31942 0.38455959,0.31143226 0 0 1 0.22186,-0.33938 l 1.67628,-0.73865 a 1.6023316,1.2976344 0 0 1 0.86773,-0.19964 z m -52.92625,-24.91458 4.60979,2.15607 c 0.29581,0.11978 0.44372,0.25154 0.44372,0.39927 a 0.4338621,0.35135947 0 0 1 -0.22186,0.29946 l -1.8242,0.83847 a 1.6812156,1.361518 0 0 1 -0.59163,0.11978 1.4051216,1.1379256 0 0 1 -0.71488,-0.11978 l -4.75769,-2.25589 a 0.9170267,0.74264616 0 0 1 -0.39442,-0.31942 0.38455959,0.31143226 0 0 1 0.22186,-0.33938 l 1.67628,-0.73865 a 1.6023316,1.2976344 0 0 1 0.88745,-0.19964 2.1841012,1.7687755 0 0 1 0.6853,0.15572 z m -2.90885,-0.71869 -1.79954,0.83847 a 1.1881905,0.96224583 0 0 1 -0.64093,0.13975 1.0945157,0.88638413 0 0 1 -0.71489,-0.17968 l -4.78234,-2.29581 c -0.24651,-0.0958 -0.36977,-0.19564 -0.36977,-0.29946 0,-0.1078 0.074,-0.19963 0.27116,-0.27949 l 1.72559,-0.79854 a 1.336098,1.0820275 0 0 1 0.83814,-0.15971 1.9721004,1.5970885 0 0 1 0.59163,0.11978 l 4.83165,2.21596 c 0.212,0.11978 0.32047,0.23957 0.32047,0.35935 a 0.45851335,0.37132308 0 0 1 -0.25145,0.33539 z m 9.07166,4.41196 a 1.6023316,1.2976344 0 0 1 0.88745,-0.19964 2.1841012,1.7687755 0 0 1 0.66558,0.13975 l 4.60979,2.17603 c 0.29581,0.11978 0.44372,0.25154 0.44372,0.39927 a 0.4338621,0.35135947 0 0 1 -0.22186,0.29946 l -1.82419,0.83847 a 1.6812156,1.361518 0 0 1 -0.59163,0.11978 1.4051216,1.1379256 0 0 1 -0.71489,-0.11978 l -4.75769,-2.25589 a 0.9170267,0.74264616 0 0 1 -0.39442,-0.31942 0.38455959,0.31143226 0 0 1 0.22186,-0.33938 z m -16.46703,-8.26494 a 0.4338621,0.35135947 0 0 1 -0.22187,0.29946 l -1.82419,0.83847 a 1.6812156,1.361518 0 0 1 -0.59163,0.11978 1.4051216,1.1379256 0 0 1 -0.69023,-0.11978 l -4.7577,-2.25589 a 0.9170267,0.74264616 0 0 1 -0.39442,-0.31942 0.38455959,0.31143226 0 0 1 0.22187,-0.33938 l 1.67628,-0.73865 a 1.6023316,1.2976344 0 0 1 0.88745,-0.19964 2.1841012,1.7687755 0 0 1 0.66558,0.13975 l 4.60978,2.17603 c 0.29089,0.11579 0.4388,0.24755 0.4388,0.39528 z m -10.52609,9.22319 4.24002,-2.09618 a 1.296656,1.0500857 0 0 1 1.1586,0 l 5.02886,2.31578 a 0.45851335,0.37132308 0 0 1 0.27116,0.31942 c 0.0345,0.0918 -0.0247,0.19165 -0.17255,0.29945 l -4.33862,2.01633 a 1.1536788,0.93429678 0 0 1 -0.64094,0.11978 1.8537744,1.5012632 0 0 1 -0.61628,-0.13975 l -4.80699,-2.25589 c -0.23173,-0.0958 -0.34512,-0.19963 -0.34512,-0.31941 0,-0.11979 0.0592,-0.18367 0.24158,-0.26352 z m 12.76935,1.37749 5.02886,2.31578 a 0.45851335,0.37132308 0 0 1 0.27116,0.31941 c 0.0345,0.0918 0,0.19166 -0.17256,0.29946 l -4.33862,1.99636 a 1.1536788,0.93429678 0 0 1 -0.64093,0.11978 1.8537744,1.5012632 0 0 1 -0.61628,-0.13974 l -4.807,-2.25589 c -0.23172,-0.0958 -0.34512,-0.19964 -0.34512,-0.31942 0,-0.11978 0.0394,-0.19964 0.22187,-0.27949 l 4.24001,-2.07622 a 1.296656,1.0500857 0 0 1 1.17833,0.016 z m -4.49146,8.90377 a 1.8537744,1.5012632 0 0 1 -0.61628,-0.13975 l -4.80699,-2.25589 c -0.23173,-0.0958 -0.34512,-0.19963 -0.34512,-0.31941 0,-0.11979 0.0394,-0.19964 0.22186,-0.27949 l 4.24001,-2.07622 a 1.296656,1.0500857 0 0 1 1.15861,0 l 5.02886,2.31578 a 0.45851335,0.37132308 0 0 1 0.27116,0.31942 c 0.0345,0.0918 -0.0247,0.19165 -0.17255,0.29945 l -4.33863,2.01633 a 1.1536788,0.93429678 0 0 1 -0.64093,0.11978 z m 7.27212,-1.59709 5.02886,2.31578 a 0.45851335,0.37132308 0 0 1 0.27116,0.31941 c 0.0345,0.0918 -0.0246,0.19166 -0.17256,0.29946 l -4.33862,2.01632 a 1.1536788,0.93429678 0 0 1 -0.64093,0.11978 1.8537744,1.5012632 0 0 1 -0.61628,-0.13974 l -4.807,-2.25589 c -0.23172,-0.0958 -0.34511,-0.19963 -0.34511,-0.31942 0,-0.11978 0.0394,-0.19963 0.22186,-0.27949 l 4.24001,-2.07621 a 1.296656,1.0500857 0 0 1 1.15861,0.0359 z m -1.03535,-1.57713 c -0.0345,-0.1078 0.0394,-0.19963 0.22186,-0.27949 l 4.24002,-2.07621 a 1.296656,1.0500857 0 0 1 1.15861,0 l 5.02885,2.31578 a 0.45851335,0.37132308 0 0 1 0.27117,0.31941 c 0.0345,0.0918 -0.0247,0.19165 -0.17256,0.29946 l -4.33862,2.01632 a 1.1536788,0.93429678 0 0 1 -0.64094,0.11978 1.8537744,1.5012632 0 0 1 -0.61628,-0.13974 l -4.80699,-2.25589 c -0.23173,-0.0599 -0.34512,-0.1637 -0.34512,-0.28348 z m -9.09631,2.8548 5.02885,2.31578 a 0.45851335,0.37132308 0 0 1 0.27117,0.31942 c 0.0345,0.0918 -0.0247,0.19165 -0.17256,0.29945 l -4.33862,2.01632 a 1.1536788,0.93429678 0 0 1 -0.64094,0.11979 1.8537744,1.5012632 0 0 1 -0.61628,-0.13975 l -4.80699,-2.21596 c -0.23172,-0.0958 -0.34512,-0.19964 -0.34512,-0.31942 0,-0.11978 0.0394,-0.19963 0.22186,-0.27949 l 4.24002,-2.07621 a 1.296656,1.0500857 0 0 1 1.15861,-0.004 z m 1.9721,5.48999 4.24001,-2.07621 a 1.296656,1.0500857 0 0 1 1.15861,0 l 5.02886,2.31577 a 0.45851335,0.37132308 0 0 1 0.27116,0.31942 c 0.0345,0.0918 -0.0246,0.19165 -0.17256,0.29946 l -4.33862,2.01632 a 1.1536788,0.93429678 0 0 1 -0.64093,0.11978 1.8537744,1.5012632 0 0 1 -0.61628,-0.13974 l -4.807,-2.25589 c -0.23172,-0.0958 -0.34512,-0.19964 -0.34512,-0.31942 0,-0.11978 0.0296,-0.1637 0.19722,-0.25953 z m 9.9098,-0.99818 c -0.0345,-0.1078 0.0394,-0.19964 0.22186,-0.27949 l 4.24002,-2.07621 a 1.296656,1.0500857 0 0 1 1.15861,0 l 5.02885,2.31577 a 0.45851335,0.37132308 0 0 1 0.27117,0.31942 c 0.0345,0.0918 0,0.19165 -0.17256,0.29946 l -4.33862,2.01632 a 1.1536788,0.93429678 0 0 1 -0.64094,0.11978 1.8537744,1.5012632 0 0 1 -0.61628,-0.13974 l -4.80699,-2.25589 c -0.25637,-0.0599 -0.36977,-0.1637 -0.36977,-0.28348 z m -2.53908,4.45189 4.24002,-2.07622 a 1.296656,1.0500857 0 0 1 1.15861,0 l 5.02885,2.31578 a 0.45851335,0.37132308 0 0 1 0.27117,0.31942 c 0.0345,0.0918 -0.0247,0.19165 -0.17256,0.29945 l -4.33862,2.01632 a 1.1536788,0.93429678 0 0 1 -0.64094,0.11979 1.8537744,1.5012632 0 0 1 -0.61628,-0.13975 l -4.80699,-2.25589 c -0.23172,-0.0958 -0.34512,-0.19963 -0.34512,-0.31941 0,-0.11979 0.0148,-0.16371 0.19721,-0.24356 z m 7.39538,-8.58436 4.24001,-2.07621 a 1.296656,1.0500857 0 0 1 1.15861,0 l 5.02886,2.31578 a 0.45851335,0.37132308 0 0 1 0.27116,0.31942 c 0.0345,0.0918 -0.0247,0.19165 -0.17256,0.29945 l -4.33862,2.01632 a 1.1536788,0.93429678 0 0 1 -0.64093,0.11979 1.8537744,1.5012632 0 0 1 -0.61628,-0.13975 l -4.807,-2.25589 c -0.23172,-0.0958 -0.34511,-0.19963 -0.34511,-0.31942 0,-0.11978 0.0542,-0.1637 0.22186,-0.24355 z m 5.32467,9.94188 5.02886,2.31578 a 0.45851335,0.37132308 0 0 1 0.27116,0.31942 c 0.0345,0.0918 -0.0247,0.19165 -0.17256,0.29945 l -4.33862,2.01632 a 1.1536788,0.93429678 0 0 1 -0.64093,0.11979 1.8537744,1.5012632 0 0 1 -0.61628,-0.13975 l -4.807,-2.25589 c -0.23172,-0.0958 -0.34512,-0.19963 -0.34512,-0.31941 0,-0.11979 0.0394,-0.19964 0.22186,-0.27949 l 4.24002,-2.07622 a 1.296656,1.0500857 0 0 1 1.15861,0 z m -2.61303,-2.61523 4.24001,-2.07622 a 1.296656,1.0500857 0 0 1 1.15861,0 l 5.02886,2.31578 a 0.45851335,0.37132308 0 0 1 0.27116,0.31942 c 0.0345,0.0918 -0.0247,0.19165 -0.17256,0.29945 l -4.33862,2.01633 a 1.1536788,0.93429678 0 0 1 -0.64093,0.11978 1.8537744,1.5012632 0 0 1 -0.61628,-0.13975 l -4.807,-2.23592 c -0.23172,-0.0958 -0.34511,-0.19964 -0.34511,-0.31942 0,-0.11978 0.0394,-0.20363 0.22186,-0.28348 z m 12.7447,1.33756 5.02885,2.31578 a 0.45851335,0.37132308 0 0 1 0.27117,0.31942 c 0.0345,0.0918 -0.0247,0.19165 -0.17256,0.29945 l -4.33862,2.01632 a 1.1536788,0.93429678 0 0 1 -0.64094,0.11979 1.8537744,1.5012632 0 0 1 -0.61628,-0.13975 l -4.80206,-2.23992 c -0.23172,-0.0958 -0.34512,-0.19963 -0.34512,-0.31941 0,-0.11979 0.0394,-0.19964 0.22186,-0.27949 l 4.24002,-2.07622 a 1.296656,1.0500857 0 0 1 1.15368,0 z m -2.66234,4.75134 5.02886,2.31578 a 0.45851335,0.37132308 0 0 1 0.27116,0.31941 c 0.0345,0.0918 -0.0247,0.19165 -0.17256,0.29946 l -4.33862,2.01632 a 1.1536788,0.93429678 0 0 1 -0.64093,0.11978 1.8537744,1.5012632 0 0 1 -0.61628,-0.13974 l -4.807,-2.25589 c -0.23172,-0.0958 -0.34512,-0.19964 -0.34512,-0.31942 0,-0.11978 0.0395,-0.19963 0.22186,-0.27949 l 4.24002,-2.07621 a 1.296656,1.0500857 0 0 1 1.15861,0.016 z m 1.72559,5.76948 c -0.0345,-0.1078 0.0394,-0.19964 0.22186,-0.27949 l 4.24002,-2.07622 a 1.296656,1.0500857 0 0 1 1.1586,0 l 5.02886,2.31578 a 0.45851335,0.37132308 0 0 1 0.27116,0.31942 c 0.0345,0.0918 -0.0247,0.19165 -0.17255,0.29945 l -4.33863,2.01633 a 1.1536788,0.93429678 0 0 1 -0.64093,0.11978 1.8537744,1.5012632 0 0 1 -0.61628,-0.13974 l -4.80699,-2.23593 c -0.24159,-0.0998 -0.34512,-0.20363 -0.34512,-0.32341 z m -1.15861,0.67876 a 0.35004783,0.28348321 0 0 1 -0.19721,0.23957 l -5.12746,2.3557 c -0.40083,0.19964 -0.90569,0.19964 -1.30652,0 l -6.63119,-3.03447 c -0.212,-0.11978 -0.32046,-0.23557 -0.32046,-0.33938 a 0.59163013,0.47912656 0 0 1 0.22186,-0.31942 l 5.15211,-2.3557 a 1.4494938,1.1738601 0 0 1 1.30652,0.0599 l 6.63119,3.0145 a 0.49302511,0.39927213 0 0 1 0.27116,0.39528 z m 34.04338,-1.81669 -4.33862,2.01633 a 1.1536788,0.93429678 0 0 1 -0.64093,0.11978 1.8537744,1.5012632 0 0 1 -0.61628,-0.13974 l -4.807,-2.25589 c -0.23172,-0.0958 -0.34511,-0.19964 -0.34511,-0.31942 0,-0.11978 0.0394,-0.19964 0.22186,-0.27949 l 4.24001,-2.07622 a 1.296656,1.0500857 0 0 1 1.15861,0 l 5.02886,2.31578 a 0.45851335,0.37132308 0 0 1 0.27116,0.31942 c 0.0345,0.1078 -0.0247,0.20762 -0.17256,0.31543 z m 2.24327,0.51906 5.02885,2.31578 a 0.45851335,0.37132308 0 0 1 0.27117,0.31941 c 0.0345,0.0918 -0.0247,0.19165 -0.17256,0.29946 l -4.33862,2.01632 a 1.1536788,0.93429678 0 0 1 -0.64094,0.11978 1.8537744,1.5012632 0 0 1 -0.61628,-0.13974 l -4.80699,-2.25589 c -0.23172,-0.0958 -0.34512,-0.19963 -0.34512,-0.31942 0,-0.11978 0.0394,-0.19963 0.22186,-0.27949 l 4.24002,-2.07621 a 1.296656,1.0500857 0 0 1 1.13889,0.016 z m 4.24001,1.03811 a 0.41414109,0.33538859 0 0 1 0.22186,-0.31942 l 4.26467,-2.03629 a 1.7206576,1.3934597 0 0 1 1.33117,0.0798 l 8.70189,3.99273 a 0.49302511,0.39927213 0 0 1 0.27117,0.31941 0.35497808,0.28747593 0 0 1 -0.22187,0.29946 l -4.31396,1.99636 a 1.1536788,0.93429678 0 0 1 -0.54233,0.13974 1.237493,1.002173 0 0 1 -0.78884,-0.13974 l -8.65259,-4.01269 a 0.49302511,0.39927213 0 0 1 -0.27117,-0.30344 z m -13.82935,-4.97094 -4.33862,1.99636 a 1.1536788,0.93429678 0 0 1 -0.64094,0.11978 1.8537744,1.5012632 0 0 1 -0.61628,-0.13975 l -4.80699,-2.25588 c -0.23172,-0.0958 -0.34512,-0.19964 -0.34512,-0.31942 0,-0.11978 0.0394,-0.19964 0.22186,-0.27949 l 4.24002,-2.07622 a 1.296656,1.0500857 0 0 1 1.15861,0 l 5.02885,2.31578 a 0.45851335,0.37132308 0 0 1 0.27117,0.31942 c 0.0296,0.12777 -0.0247,0.22759 -0.17256,0.33539 z m -2.41582,4.37203 5.02885,2.31578 a 0.45851335,0.37132308 0 0 1 0.27117,0.31941 c 0.0345,0.0918 -0.0247,0.19165 -0.17256,0.29946 l -4.33862,2.01632 a 1.1536788,0.93429678 0 0 1 -0.64094,0.11978 1.8537744,1.5012632 0 0 1 -0.61628,-0.13974 l -4.80206,-2.23992 c -0.23172,-0.0958 -0.34512,-0.19963 -0.34512,-0.31942 0,-0.11978 0.0394,-0.19963 0.22186,-0.27949 l 4.24002,-2.07621 a 1.296656,1.0500857 0 0 1 1.15368,0 z m 7.49398,3.47367 10.45213,4.85115 c 0.14791,0.0747 0.2475,0.19924 0.27116,0.33938 a 0.37962933,0.30743954 0 0 1 -0.22186,0.27949 l -4.31397,2.03629 c -0.19474,0.0675 -0.40428,0.10142 -0.61628,0.0998 -0.24848,-0.001 -0.49302,-0.0491 -0.71489,-0.13975 l -10.40283,-4.83119 a 0.57190913,0.46315567 0 0 1 -0.27116,-0.31942 0.38948984,0.31542498 0 0 1 0.17256,-0.29945 l 4.31397,-2.03629 a 1.3656796,1.1059838 0 0 1 1.33117,0.0359 z m -0.29582,5.8693 4.31397,1.99636 c 0.49303,0.22359 0.49303,0.4392 0,0.63883 l -4.21536,1.99636 a 1.3854006,1.1219547 0 0 1 -0.66559,0.11978 4.6788083,3.7890925 0 0 1 -0.66558,-0.11978 l -3.77164,-1.7568 a 0.05916301,0.04791266 0 0 0 -0.0493,0 l -10.30422,-4.81122 c -0.212,-0.10781 -0.32047,-0.20763 -0.32047,-0.29946 a 0.40526664,0.32820169 0 0 1 0.27117,-0.31942 l 4.28932,-2.03628 a 1.2424233,1.0061658 0 0 1 1.30651,0.0399 l 3.77164,1.7568 c 1.90949,0.89158 3.8244,1.78994 5.74375,2.69509 z m 6.75938,-4.27621 4.24001,-2.07621 a 1.296656,1.0500857 0 0 1 1.15861,0 l 5.02886,2.31577 a 0.45851335,0.37132308 0 0 1 0.27116,0.31942 c 0.0345,0.0918 -0.0247,0.19165 -0.17256,0.29946 l -4.33862,1.99636 a 1.1536788,0.93429678 0 0 1 -0.64093,0.11978 1.8537744,1.5012632 0 0 1 -0.61628,-0.13975 l -4.807,-2.25588 c -0.23172,-0.0958 -0.34511,-0.19964 -0.34511,-0.31942 0,-0.11978 0.0345,-0.17967 0.22186,-0.25953 z m -23.36939,-9.28308 c 0.0345,0.0918 0,0.19165 -0.17256,0.29946 l -4.33862,2.01632 a 1.1536788,0.93429678 0 0 1 -0.64094,0.11978 1.8537744,1.5012632 0 0 1 -0.61628,-0.13974 l -4.80699,-2.25589 c -0.23172,-0.0958 -0.34512,-0.19963 -0.34512,-0.31942 0,-0.11978 0.0394,-0.19963 0.22186,-0.27949 l 4.24002,-2.07621 a 1.296656,1.0500857 0 0 1 1.15861,0 l 5.02885,2.31578 a 0.45851335,0.37132308 0 0 1 0.26624,0.31941 z m 2.04605,0.77858 5.02886,2.31578 a 0.45851335,0.37132308 0 0 1 0.27116,0.31942 c 0.0345,0.0918 -0.0247,0.19165 -0.17256,0.29945 l -4.33862,2.01633 a 1.1536788,0.93429678 0 0 1 -0.64093,0.11978 1.8537744,1.5012632 0 0 1 -0.61628,-0.13974 l -4.83165,-2.25589 c -0.23172,-0.0958 -0.34512,-0.19964 -0.34512,-0.31942 0,-0.11978 0.0394,-0.19964 0.22186,-0.27949 l 4.24002,-2.07622 a 1.296656,1.0500857 0 0 1 1.17833,0 z m -8.15957,6.80759 4.24002,-2.07621 a 1.296656,1.0500857 0 0 1 1.15861,0 l 5.02886,2.31578 a 0.45851335,0.37132308 0 0 1 0.27116,0.31942 c 0.0345,0.0918 -0.0247,0.19165 -0.17256,0.29945 l -4.33862,1.99636 a 1.1536788,0.93429678 0 0 1 -0.64093,0.11978 1.8537744,1.5012632 0 0 1 -0.61628,-0.13974 l -4.807,-2.25589 c -0.23172,-0.0958 -0.34512,-0.19964 -0.34512,-0.31942 0,-0.11978 0.0345,-0.17967 0.21693,-0.25953 z m -2.26791,3.47367 4.80699,2.21596 c 0.11685,0.0743 0.19574,0.18087 0.22187,0.29946 a 0.49302511,0.39927213 0 0 1 -0.22187,0.35934 l -1.72558,0.75862 a 1.3854006,1.1219547 0 0 1 -0.66559,0.13974 1.7058669,1.3814816 0 0 1 -0.71488,-0.13974 l -4.70839,-2.25589 c -0.23173,-0.0958 -0.34512,-0.19964 -0.34512,-0.31942 a 0.49302511,0.39927213 0 0 1 0.22186,-0.31941 l 1.77489,-0.75862 a 1.3706098,1.1099765 0 0 1 1.35089,0.02 z m 10.69864,1.89654 4.807,2.196 a 0.49302511,0.39927213 0 0 1 0.27116,0.39927 0.35004783,0.28348321 0 0 1 -0.19721,0.23957 l -5.12746,2.3557 c -0.40083,0.19964 -0.90569,0.19964 -1.30651,0 l -4.81193,-2.23193 c -0.212,-0.11978 -0.32047,-0.23557 -0.32047,-0.33938 a 0.59163013,0.47912656 0 0 1 0.22186,-0.31942 l 5.15212,-2.3557 a 1.4494938,1.1738601 0 0 1 1.30651,0.0559 z m 0.93675,5.7096 1.77489,-0.75862 a 1.3706098,1.1099765 0 0 1 1.35582,0.02 l 4.807,2.21596 c 0.11684,0.0743 0.19573,0.18087 0.22186,0.29946 a 0.49302511,0.39927213 0 0 1 -0.22186,0.35934 l -1.72559,0.75862 a 1.3854006,1.1219547 0 0 1 -0.66559,0.13974 1.7058669,1.3814816 0 0 1 -0.71488,-0.13974 l -4.70839,-2.25589 c -0.23172,-0.0958 -0.34512,-0.19963 -0.34512,-0.31942 a 0.49302511,0.39927213 0 0 1 0.21693,-0.31941 z m 41.2169,-13.65511 a 0.4338621,0.35135947 0 0 1 -0.22186,0.29945 l -1.82419,0.83847 a 1.6812156,1.361518 0 0 1 -0.59163,0.11979 1.4051216,1.1379256 0 0 1 -0.71489,-0.11979 l -4.75769,-2.25588 a 0.9170267,0.74264616 0 0 1 -0.39442,-0.31942 0.38455959,0.31143226 0 0 1 0.22186,-0.33938 l 1.67628,-0.73866 a 1.6023316,1.2976344 0 0 1 0.88745,-0.19963 2.1841012,1.7687755 0 0 1 0.66558,0.13974 l 4.60979,2.17604 c 0.29088,0.12377 0.43879,0.25154 0.43879,0.39927 z m -16.26983,-5.09072 c 0,-0.1078 0.074,-0.19964 0.27117,-0.27949 l 1.72558,-0.79855 a 1.336098,1.0820275 0 0 1 0.83815,-0.1597 1.9721004,1.5970885 0 0 1 0.59163,0.11978 l 4.83164,2.21596 c 0.212,0.11978 0.32047,0.23956 0.32047,0.35934 a 0.45851335,0.37132308 0 0 1 -0.27116,0.33938 l -1.79955,0.83848 a 1.1881905,0.96224583 0 0 1 -0.64093,0.13974 1.0945157,0.88638413 0 0 1 -0.71489,-0.17967 l -4.78234,-2.29582 c -0.24996,-0.0958 -0.3747,-0.19564 -0.3747,-0.29945 z m -87.49223,-39.1686 -4.33862,1.99636 a 1.1536788,0.93429678 0 0 1 -0.64094,0.11979 1.8537744,1.5012632 0 0 1 -0.61628,-0.13975 l -4.80699,-2.25589 c -0.23173,-0.0958 -0.34512,-0.19963 -0.34512,-0.31941 0,-0.11979 0.0394,-0.19964 0.22186,-0.2795 l 4.24002,-2.07621 a 1.296656,1.0500857 0 0 1 1.15861,0 l 5.02885,2.31578 a 0.45851335,0.37132308 0 0 1 0.27117,0.31942 c 0.0345,0.11179 -0.0247,0.21161 -0.17256,0.31941 z m 1.13395,0.51906 a 1.296656,1.0500857 0 0 1 1.15861,0 l 5.02886,2.31578 a 0.45851335,0.37132308 0 0 1 0.27116,0.31941 c 0.0345,0.0918 -0.0247,0.19165 -0.17256,0.29946 l -4.33862,1.99636 a 1.1536788,0.93429678 0 0 1 -0.64093,0.11978 1.8537744,1.5012632 0 0 1 -0.61628,-0.13975 l -4.807,-2.25588 c -0.23172,-0.0958 -0.34511,-0.19964 -0.34511,-0.31942 0,-0.11978 0.0394,-0.19964 0.22186,-0.27949 z m 2.8842,5.76948 c -0.0345,-0.1078 0.0394,-0.19964 0.22186,-0.27949 l 4.24002,-2.07622 a 1.296656,1.0500857 0 0 1 1.15861,0 l 5.02885,2.31578 a 0.45851335,0.37132308 0 0 1 0.27117,0.31942 c 0.0345,0.0918 0,0.19165 -0.17256,0.29945 l -4.33862,2.01633 a 1.1536788,0.93429678 0 0 1 -0.64094,0.11978 1.8537744,1.5012632 0 0 1 -0.61628,-0.13975 l -4.80699,-2.25588 c -0.23172,-0.0958 -0.34512,-0.19964 -0.34512,-0.31942 z m 49.82019,18.28666 5.02885,2.31578 a 0.45851335,0.37132308 0 0 1 0.27117,0.31942 c 0.0345,0.0918 -0.0246,0.19165 -0.17256,0.29945 l -4.33862,2.01633 a 1.1536788,0.93429678 0 0 1 -0.64093,0.11978 1.8537744,1.5012632 0 0 1 -0.61629,-0.13975 l -4.80699,-2.25588 c -0.23172,-0.0958 -0.34512,-0.19964 -0.34512,-0.31942 0,-0.11978 0.0394,-0.19964 0.22186,-0.27949 l 4.24002,-2.07622 a 1.296656,1.0500857 0 0 1 1.15861,0 z m -2.04606,-0.77858 c 0.0345,0.0918 -0.0246,0.19165 -0.17255,0.29946 l -4.33863,2.01632 a 1.1536788,0.93429678 0 0 1 -0.64093,0.11978 1.8537744,1.5012632 0 0 1 -0.61628,-0.13974 l -4.80699,-2.25589 c -0.23173,-0.0958 -0.34512,-0.19964 -0.34512,-0.31942 0,-0.11978 0.0394,-0.19963 0.22186,-0.27949 l 4.24002,-2.07621 a 1.296656,1.0500857 0 0 1 1.1586,0 l 5.02886,2.31577 a 0.45851335,0.37132308 0 0 1 0.27116,0.31942 z m 4.11676,6.32847 4.24002,-2.07622 a 1.296656,1.0500857 0 0 1 1.15861,0 l 5.02885,2.31578 a 0.45851335,0.37132308 0 0 1 0.27117,0.31942 c 0.0345,0.0918 -0.0247,0.19165 -0.17256,0.29945 l -4.33862,2.01633 a 1.1536788,0.93429678 0 0 1 -0.64093,0.11978 1.8537744,1.5012632 0 0 1 -0.61629,-0.13975 l -4.80206,-2.25589 c -0.23172,-0.0958 -0.34512,-0.19963 -0.34512,-0.31941 0,-0.11979 0.0345,-0.19964 0.21693,-0.27949 z m 7.12422,3.69326 c -0.0345,-0.1078 0.0394,-0.19963 0.22186,-0.27949 l 4.24001,-2.07621 a 1.296656,1.0500857 0 0 1 1.15861,0 l 5.02886,2.31578 a 0.45851335,0.37132308 0 0 1 0.27116,0.31941 c 0.0345,0.0918 0,0.19165 -0.17256,0.29946 l -4.33862,2.01632 a 1.1536788,0.93429678 0 0 1 -0.64093,0.11978 1.8537744,1.5012632 0 0 1 -0.61628,-0.13974 l -4.807,-2.25589 c -0.23172,-0.0958 -0.34511,-0.19964 -0.34511,-0.31942 z m -31.2578,-19.5244 5.02886,2.31577 a 0.45851335,0.37132308 0 0 1 0.27116,0.31942 c 0.0345,0.0918 -0.0247,0.19165 -0.17255,0.29946 l -4.33863,2.01632 a 1.1536788,0.93429678 0 0 1 -0.64093,0.11978 1.8537744,1.5012632 0 0 1 -0.61628,-0.13974 l -4.80699,-2.25589 c -0.23173,-0.0958 -0.34512,-0.19964 -0.34512,-0.31942 0,-0.11978 0.0394,-0.19963 0.22186,-0.27949 l 4.24002,-2.07621 a 1.296656,1.0500857 0 0 1 1.1586,0 z m -2.29256,-0.55899 -4.33862,1.99637 a 1.1536788,0.93429678 0 0 1 -0.64094,0.11978 1.8537744,1.5012632 0 0 1 -0.61628,-0.13975 l -4.82671,-2.23592 c -0.23172,-0.0958 -0.34512,-0.19964 -0.34512,-0.31942 0,-0.11978 0.0394,-0.19964 0.22186,-0.27949 l 4.24002,-2.07622 a 1.296656,1.0500857 0 0 1 1.15861,0 l 5.02885,2.31578 a 0.45851335,0.37132308 0 0 1 0.27117,0.31942 c 0.0542,0.0918 -0.005,0.20363 -0.15284,0.29945 z m -17.87216,-4.27221 4.24001,-2.07621 a 1.296656,1.0500857 0 0 1 1.15861,0 l 5.02886,2.31578 a 0.45851335,0.37132308 0 0 1 0.27116,0.31941 c 0.0345,0.0918 0,0.19165 -0.17256,0.29946 l -4.33862,2.01632 a 1.1536788,0.93429678 0 0 1 -0.64093,0.11978 1.8537744,1.5012632 0 0 1 -0.61628,-0.13974 l -4.807,-2.27186 c -0.23172,-0.0958 -0.34511,-0.19964 -0.34511,-0.31942 0,-0.11978 0.0394,-0.18366 0.22186,-0.26352 z m 27.5108,8.24497 5.02886,2.31578 a 0.45851335,0.37132308 0 0 1 0.27116,0.31942 c 0.0345,0.0918 -0.0247,0.19165 -0.17256,0.29945 l -4.33862,1.99636 a 1.1536788,0.93429678 0 0 1 -0.64093,0.11978 1.8537744,1.5012632 0 0 1 -0.61628,-0.13974 l -4.80207,-2.23592 c -0.23172,-0.0958 -0.34512,-0.19964 -0.34512,-0.31942 0,-0.11978 0.0394,-0.19964 0.22186,-0.27949 l 4.24002,-2.07622 a 1.296656,1.0500857 0 0 1 1.15368,0 z m 44.249,20.62241 5.02886,2.31578 a 0.45851335,0.37132308 0 0 1 0.27116,0.31941 c 0.0345,0.0918 -0.0247,0.19165 -0.17256,0.29946 l -4.33862,2.01632 a 1.1536788,0.93429678 0 0 1 -0.64093,0.11978 1.8537744,1.5012632 0 0 1 -0.61628,-0.13974 l -4.807,-2.25589 c -0.23172,-0.0958 -0.34511,-0.19963 -0.34511,-0.31942 0,-0.11978 0.0394,-0.19963 0.22186,-0.27949 l 4.24001,-2.07621 a 1.296656,1.0500857 0 0 1 1.15861,0 z m -2.04605,-0.77858 c 0.0345,0.0918 -0.0247,0.19165 -0.17256,0.29945 l -4.33862,2.01633 a 1.1536788,0.93429678 0 0 1 -0.64093,0.11978 1.8537744,1.5012632 0 0 1 -0.61629,-0.13975 l -4.80699,-2.25189 c -0.23172,-0.0958 -0.34512,-0.19964 -0.34512,-0.31942 0,-0.11978 0.0394,-0.19964 0.22186,-0.27949 l 4.24002,-2.07622 a 1.296656,1.0500857 0 0 1 1.15861,0 l 5.02885,2.31578 a 0.45851335,0.37132308 0 0 1 0.27117,0.31543 z m -35.96618,12.91645 -4.807,-2.21596 c -0.212,-0.11978 -0.32046,-0.23557 -0.32046,-0.33938 a 0.59163013,0.47912656 0 0 1 0.22186,-0.31942 l 5.15211,-2.3557 a 1.4494938,1.1738601 0 0 1 1.30652,0.0599 l 4.80699,2.19599 a 0.49302511,0.39927213 0 0 1 0.27116,0.37931 0.35004783,0.28348321 0 0 1 -0.19721,0.23957 l -5.12746,2.3557 c -0.40083,0.19964 -0.90568,0.19964 -1.30651,0 z"
     fill="#252f46"
     id="path40"
     style="stroke-width:0.443679;stroke:none" />
  <path
     d="m 164.80299,42.291127 v -2.954614 l 76.22168,35.635038 v 2.954614 L 174.49093,46.822866 Z m 0,31.622353 9.68794,4.551702 v 14.042401 l -9.68794,-4.531739 z m 9.68794,-11.199583 v 7.725915 l -9.68794,-4.531738 V 58.17018 Z m -9.68794,3.333922 9.68794,4.531739 v 7.745879 l -9.68794,-4.551702 z m 9.68794,-3.473668 -9.68794,-4.531738 v -7.725916 l 9.68794,4.531739 z m -4.9549,8.424642 a 0.17748904,0.14373797 0 0 0 -0.12326,0 0.14790753,0.11978164 0 0 0 -0.0247,0.07986 0.49302511,0.39927213 0 0 0 0.0247,0.119781 0.23665205,0.19165062 0 0 0 0.12326,0.07985 0.08381427,0.06787626 0 0 0 0.0986,0 c 0.0345,0 0.0493,-0.03993 0.0493,-0.07985 a 0.25144281,0.20362879 0 0 0 -0.0493,-0.119781 0.63600239,0.51506105 0 0 0 -0.0986,-0.07986 z"
     fill="#2d364c"
     id="path42"
     style="stroke-width:0.443679;stroke:none" />
  <path
     d="m 174.49093,78.465182 -9.68794,-4.551702 v -0.139745 l 9.68794,4.551702 z m -9.68794,-12.417363 v -0.139745 l 9.68794,4.531738 v 0.139746 z m 9.68794,-3.333922 -9.68794,-4.543717 v -0.139745 l 9.68794,4.531738 z m -9.68794,-12.377436 v -8.045334 l 9.68794,4.531739 v 8.02537 z"
     fill="#252f46"
     id="path44"
     style="stroke-width:0.443679;stroke:none" />
  <path
     d="M 241.02467,77.926165 V 115.17825 L 174.49093,84.074956 v -37.25209 z"
     fill="#333c54"
     id="path46"
     style="stroke-width:0.443679;stroke:none" />
  <path
     d="m 174.49093,92.519561 v -8.444605 l 66.53374,31.103294 v 8.42464 z"
     fill="#59627b"
     id="path48"
     style="stroke-width:0.443679;stroke:none" />
  <path
     d="m 166.30671,81.00056 c 0,-0.09303 0.0493,-0.112994 0.14791,-0.05989 l 6.45863,3.014505 a 0.31060582,0.25154144 0 0 1 0.14791,0.2196 v 2.595269 c 0,0.09303 -0.0493,0.112994 -0.14791,0.05989 l -6.45863,-3.014504 a 0.31060582,0.25154144 0 0 1 -0.14791,-0.2196 z"
     fill="#0cb754"
     id="path50"
     style="stroke-width:0.443679;stroke:none" />
  <path
     d="m 172.61743,75.111296 -5.86699,-2.735014 v -0.578944 l 5.86699,2.735014 z m 0,-7.80577 -5.86699,-2.735014 v -0.558981 l 5.86699,2.735014 z m -5.86699,-11.179619 5.86699,2.735014 v 0.578944 l -5.86699,-2.735014 z m 0,-7.785807 5.86699,2.735014 v 0.558981 l -5.86699,-2.735014 z"
     fill="#ffffff"
     id="path52"
     style="stroke-width:0.443679;stroke:none" />
  <path
     d="m 195.24729,80.928691 a 0.34018733,0.27549777 0 0 1 0.29581,0.03993 l 24.4294,11.419183 c 0.12375,0.0563 0.22629,0.139346 0.29581,0.239564 0.0774,0.102213 0.11981,0.219599 0.12326,0.339381 a 0.28595456,0.23157784 0 0 1 -0.12326,0.2196 0.34018733,0.27549777 0 0 1 -0.29581,-0.03993 L 195.5431,81.727237 a 0.84800319,0.68674806 0 0 1 -0.29581,-0.239564 0.8973057,0.72667528 0 0 1 -0.12326,-0.339381 0.29581507,0.23956328 0 0 1 0.12326,-0.219601 z"
     fill="#252f46"
     id="path54"
     style="stroke-width:0.443679;stroke:none" />
  <path
     d="m 195.5431,81.399832 v -0.07187 a 0.10353527,0.08384715 0 0 1 0.0493,-0.07985 0.11339578,0.09183259 0 0 1 0.0986,0 l 15.43169,7.206862 a 0.64093264,0.51905377 0 0 1 0.0986,0.09982 0.38948984,0.31542498 0 0 1 0.0247,0.119782 v 0.07985 c 0,0.03993 0,0.06788 -0.0247,0.07985 a 0.08381427,0.06787626 0 0 1 -0.0986,-0.01996 L 195.691,81.627418 a 0.30567557,0.24754872 0 0 1 -0.0986,-0.07986 0.29581507,0.23956328 0 0 1 -0.0493,-0.147731 z"
     fill="#1adafc"
     id="path56"
     style="stroke-width:0.443679;stroke:none" />
  <path
     d="m 200.07893,91.002327 v -3.174213 c 0,-0.107804 0.0592,-0.13176 0.17256,-0.07985 l 15.01262,7.007226 a 0.36976883,0.2994541 0 0 1 0.17255,0.259527 v 3.174215 c 0,0.11979 -0.0542,0.14773 -0.17255,0.0799 l -15.01262,-7.007233 a 0.34018733,0.27549777 0 0 1 -0.17256,-0.259527 z"
     fill="#0cb754"
     id="path58"
     style="stroke-width:0.443679;stroke:none" />
  <path
     d="m 202.39615,86.410698 10.74795,5.030828 v 0.578945 l -10.74795,-5.030829 z m -4.21536,-9.68235 19.15402,8.943696 v 0.558981 l -19.15402,-8.943696 z m -30.37035,9.822095 3.74699,1.756797 v 0.558981 l -3.74699,-1.756797 z"
     fill="#ffffff"
     id="path60"
     style="stroke-width:0.443679;stroke:none" />
  <path
     d="m 166.30671,41.831964 a 0.11339578,0.09183259 0 0 1 0.074,-0.09982 h 0.0493 a 0.07888402,0.06388354 0 0 0 0.0986,-0.01996 c 0.0345,0 0.069,0 0.0986,-0.05989 a 0.23665205,0.19165062 0 0 0 0.0986,-0.09982 0.76418892,0.6188718 0 0 0 0.0247,-0.179673 0.95153846,0.77059521 0 0 0 -0.0493,-0.199636 0.2415823,0.19564334 0 0 1 0,-0.07985 0.37469908,0.30344682 0 0 1 0.0493,-0.05989 0.18241929,0.14773069 0 0 0 0.0739,-0.01996 l 0.0739,0.03993 a 0.2021403,0.16370157 0 0 1 0.0493,0.07985 0.98605022,0.79854426 0 0 0 0.0739,0.07986 c 0.0493,0.0527 0.10748,0.09982 0.17256,0.139745 0.13311,0.06788 0.23665,0.07187 0.32046,0.01996 0.0838,-0.05191 0.0395,0 0.074,-0.03993 a 0.09367477,0.0758617 0 0 1 0.0493,-0.01996 0.16269829,0.1317598 0 0 1 0.14791,0 l 0.17256,0.09982 c 0.0463,0.05031 0.0878,0.10381 0.12325,0.159708 0.0325,0.04911 0.0493,0.103811 0.0493,0.159709 a 0.17255879,0.13974525 0 0 1 -0.0247,0.139746 0.09367477,0.0758617 0 0 1 -0.0986,0.05989 0.85293344,0.69074078 0 0 0 -0.14791,0.03993 0.40921084,0.33139587 0 0 0 -0.0493,0.239563 c 0.0237,0.09143 0.0656,0.178874 0.12326,0.259527 a 0.37962933,0.30743954 0 0 1 0.0739,0.07985 0.64093264,0.51905377 0 0 1 0.0986,0.09982 c 0.0621,0.08465 0.0961,0.18087 0.0986,0.279491 a 0.30074532,0.243556 0 0 1 -0.074,0.179672 0.19721004,0.15970885 0 0 1 -0.24652,0 2.4996373,2.0243097 0 0 1 -0.24651,-0.179672 l -0.0493,-0.09982 a 0.54232762,0.43919934 0 0 0 -0.074,-0.07986 2.9581507,2.3956328 0 0 0 -0.32046,-0.319417 l -0.24651,-0.159709 a 1.0156317,0.82250059 0 0 0 -0.27117,-0.07986 h -0.074 a 0.32046632,0.25952688 0 0 1 -0.0986,-0.05989 c -0.0493,0 -0.0887,-0.0519 -0.12325,-0.119781 a 0.49302511,0.39927213 0 0 1 -0.074,-0.179673 z"
     fill="#ff7800"
     id="path62"
     style="stroke-width:0.443679;stroke:none" />
  <path
     d="m 168.87044,42.351018 7.34608,3.453704 v 0.558981 l -7.34608,-3.453704 z m 33.52571,47.852765 10.74795,5.030829 v 0.578944 l -10.74795,-5.030829 z"
     fill="#ffffff"
     id="path64"
     style="stroke-width:0.443679;stroke:none" />
  <path
     d="m 238.86029,74.939609 a 0.12325628,0.09981803 0 0 1 0,-0.119781 c 0,0 0.0394,0 0.0739,0.03993 0.0345,0.03993 0.0345,0 0.0493,0.01996 l 0.46838,0.658799 0.46837,-0.199637 c 0,-0.02795 0,-0.03194 0.0493,0 l 0.0493,0.03993 a 0.18241929,0.14773069 0 0 1 0.0247,0.07985 c 0,0.02795 0,0.03993 -0.0247,0.03993 l -0.44373,0.2196 0.44373,0.638835 a 0.18241929,0.14773069 0 0 1 0.0247,0.07986 h -0.0247 c -0.0246,0 -0.0296,0.02795 -0.0493,0 -0.0197,-0.02795 -0.0493,0 -0.0493,0 l -0.46837,-0.658799 -0.46838,0.199636 a 0.09367477,0.0758617 0 0 0 -0.0493,0.01996 0.42893185,0.34736675 0 0 1 -0.0739,-0.07985 0.07888402,0.06388354 0 0 1 -0.0247,-0.03993 0.10353527,0.08384715 0 0 1 0.0247,-0.05989 l 0.46837,-0.2196 z"
     fill="#8a94af"
     id="path66"
     style="stroke-width:0.443679;stroke:none" />
  <path
     d="m 169.93045,47.441738 h 0.0493 a 0.13804703,0.1117962 0 0 1 0.0739,0.05989 v 0.09982 l -0.61628,0.27949 a 0.09367477,0.0758617 0 0 1 -0.0493,0 c 0,0 -0.0296,0 -0.0493,-0.03993 l -0.29582,-0.399272 a 0.10353527,0.08384715 0 0 1 -0.0246,-0.05989 0.07888402,0.06388354 0 0 1 0.0246,-0.03993 h 0.0493 a 0.17748904,0.14373797 0 0 1 0.0493,0.05989 l 0.24651,0.339381 z m -1.20791,-1.018144 v 1.058071 a 2.5045676,2.0283024 0 0 0 0.81349,1.157889 c 0.49302,0.05191 0.78884,-0.07985 0.83814,-0.399272 v -1.078035 a 5.9163013,4.7912656 0 0 0 -0.83814,-0.479126 2.5588003,2.0722224 0 0 0 -0.81349,-0.259527 z m -0.14791,-0.179673 h 0.0493 a 3.1159187,2.5233999 0 0 1 0.9121,0.299454 5.4922997,4.4478915 0 0 1 0.93674,0.558981 0.07888402,0.06388354 0 0 1 0,0.03993 0.08381427,0.06787626 0 0 1 0.0247,0.05989 v 1.117962 c -0.0345,0.399273 -0.35005,0.547003 -0.9614,0.479127 0,0 -0.0296,0 -0.0493,-0.03993 a 2.9581507,2.3956328 0 0 1 -0.96139,-1.337562 v -1.137925 a 0.07888402,0.06388354 0 0 1 0.0493,-0.03993 z"
     fill="#0cb754"
     id="path68"
     style="stroke-width:0.443679;stroke:none" />
  <path
     d="m 169.46207,55.706671 c 0,-0.02795 0,-0.03993 0.0247,-0.03993 a 0.03451176,0.02794905 0 0 1 0.0493,0 0.4634436,0.3753158 0 0 1 0.0493,0.03993 0.18241929,0.14773069 0 0 1 0.0247,0.07985 v 0.399272 h -0.0247 c -0.0246,0 -0.0296,0.03194 -0.0493,0.01996 a 0.23665205,0.19165062 0 0 1 -0.0493,-0.05989 0.24651255,0.19963606 0 0 1 -0.0247,-0.05989 z m 0.074,-1.257707 a 0.34018733,0.27549777 0 0 0 -0.36977,-0.01996 0.29581507,0.23956328 0 0 0 -0.14791,0.239563 v 0.339382 l 1.03535,0.479126 v -0.239563 l 0.0246,-0.09982 a 0.98605022,0.79854426 0 0 0 -0.17255,-0.359345 0.94660821,0.76660249 0 0 0 -0.36977,-0.339381 z m -0.73954,0.578944 c -0.0493,0 -0.0739,0.01996 -0.0739,0.05989 v 0.918326 a 0.09367477,0.0758617 0 0 0 0.0739,0.07985 l 1.50373,0.698727 c 0.0493,0.02795 0.0739,0 0.0739,0 v -0.918326 a 0.16762854,0.13575252 0 0 0 -0.0739,-0.119782 z m 0.0739,-0.399272 v -0.0519 a 0.41414109,0.33538859 0 0 1 0.19721,-0.279491 0.38948984,0.31542498 0 0 1 0.46838,0 c 0.212,0.08824 0.38406,0.227585 0.49302,0.399272 0.11143,0.144936 0.17897,0.309037 0.19721,0.479127 v 0.359345 h 0.074 a 0.49302511,0.39927213 0 0 1 0.22186,0.339381 v 0.918326 c 0,0.13176 -0.074,0.159709 -0.22186,0.07985 l -1.50373,-0.698726 a 0.39935034,0.32341043 0 0 1 -0.24651,-0.299454 V 54.95604 c 0,-0.14773 0.0838,-0.187658 0.24651,-0.119781 l 0.0739,0.03993 z m -0.46837,7.933537 a 0.06902352,0.0558981 0 0 1 0.0493,0 c 0.0345,0 0.0493,0 0.0493,0.05989 a 0.07888402,0.06388354 0 0 1 0,0.03993 1.4494938,1.1738601 0 0 0 0.074,0.638836 0.02958151,0.02395633 0 0 1 0,0.03993 c 0,0.02795 0,0.03194 -0.0247,0 -0.0246,-0.03194 -0.0394,0 -0.074,0 a 0.24651255,0.19963606 0 0 1 -0.0246,-0.05989 1.7058669,1.3814816 0 0 1 -0.0986,-0.71869 z m 0.76419,1.597089 c 0.0838,-0.107804 0.17256,-0.139745 0.27116,-0.09982 a 1.0846552,0.87839869 0 0 1 0.39442,0.319417 v 0.119782 a 0.09367477,0.0758617 0 0 1 -0.0493,0 0.07888402,0.06388354 0 0 1 -0.0739,-0.03993 0.77897967,0.63084997 0 0 0 -0.24652,-0.239563 c -0.0641,0 -0.12325,0 -0.17256,0.07985 -0.0493,0.07985 -0.0345,0.03194 -0.0493,0 a 0.06902352,0.0558981 0 0 0 -0.0493,0 0.17748904,0.14373797 0 0 0 -0.0493,-0.05989 0.10353527,0.08384715 0 0 1 0.0247,-0.07985 z m 0.14791,-1.097999 a 0.13311678,0.10780348 0 0 1 0.19721,0 0.49302511,0.39927213 0 0 1 0.22186,0.159709 c 0.0237,0.05031 0.0567,0.09782 0.0986,0.139746 a 0.49302511,0.39927213 0 0 1 0.0247,0.09982 c 0.0986,0.289472 0.26624,0.560578 0.49303,0.798544 a 0.17748904,0.14373797 0 0 1 0.0493,0.05989 v 0.03993 h -0.0493 a 0.04930251,0.03992721 0 0 1 -0.074,0 3.4117338,2.7629631 0 0 1 -0.59163,-0.858435 0.15776804,0.12776708 0 0 0 -0.0246,-0.05989 l -0.0493,-0.09982 a 0.23665205,0.19165062 0 0 0 -0.0986,-0.07985 h -0.0247 a 0.05916301,0.04791266 0 0 0 -0.0986,0 c -0.0345,0 -0.0394,0.04791 -0.0247,0.09982 0.0212,0.119781 0.0715,0.23557 0.14791,0.339381 0.0986,0.159709 0.31553,0.447185 0.64093,0.858435 a 0.37469908,0.30344682 0 0 0 0.0493,0.05989 c 0,0.02795 0,0.03993 -0.0247,0.03993 h -0.0493 l -0.0493,-0.03993 a 9.7668274,7.9095809 0 0 1 -0.69023,-0.898363 1.5924711,1.289649 0 0 1 -0.17256,-0.399272 c 0,-0.107803 0,-0.171687 0.0493,-0.199636 z m 0.22186,-0.119781 c -0.12819,-0.06788 -0.22679,-0.07187 -0.29582,0 a 0.38455959,0.31143226 0 0 0 -0.14791,0.27949 c 0,0.04711 0.008,0.09423 0.0247,0.139746 0,0.03993 0.0345,0.08784 0.0493,0.139745 0.0986,0.371323 0,0.558981 -0.29582,0.558981 h -0.0493 l -0.0493,-0.03993 v -0.05989 c 0.23172,0 0.31553,-0.159709 0.24651,-0.4392 a 2.3270785,1.8845645 0 0 1 -0.074,-0.179672 1.3213073,1.0700493 0 0 1 -0.0246,-0.179673 0.49302511,0.39927213 0 0 1 0.17255,-0.339381 0.35990833,0.29146865 0 0 1 0.41908,0 c 0.17058,0.08744 0.30764,0.211614 0.39442,0.359345 a 0.49302511,0.39927213 0 0 1 0.074,0.139745 c 0.0182,0.02595 0.0345,0.0523 0.0493,0.07985 a 1.3558191,1.0979984 0 0 0 0.44372,0.598908 l 0.0493,0.03993 c 0.0197,0.02675 0.0197,0.04672 0,0.05989 0,0.02795 0,0.03993 -0.0247,0.03993 a 0.07888402,0.06388354 0 0 1 -0.0493,0 1.6121921,1.3056199 0 0 1 -0.54232,-0.71869 0.10353527,0.08384715 0 0 1 -0.0247,-0.05989 h -0.0247 v -0.01996 a 0.58176963,0.47114111 0 0 0 -0.0493,-0.09982 0.78390992,0.63484269 0 0 0 -0.27116,-0.279491 z m -0.0247,-0.299454 c -0.19721,-0.107804 -0.35991,-0.127767 -0.49303,-0.05989 a 0.54725787,0.44319206 0 0 0 -0.22186,0.399272 c 0.001,0.08704 0.01,0.173683 0.0247,0.259527 0,0.03993 0.0345,0.07985 0.0493,0.119782 0.069,0.211614 -0.0246,0.307439 -0.27116,0.27949 a 0.08381427,0.06787626 0 0 1 -0.0739,-0.03993 c -0.009,-0.01917 -0.009,-0.04073 0,-0.05989 0.009,-0.01917 0,-0.03194 0.0493,0 0.14791,0 0.20707,-0.03993 0.17256,-0.159709 a 1.217772,0.98620216 0 0 0 -0.0493,-0.139745 3.4018733,2.7549777 0 0 1 -0.0247,-0.299454 0.67051415,0.5430101 0 0 1 0.24652,-0.479127 0.57683938,0.46714839 0 0 1 0.61628,0.05989 1.6960064,1.3734961 0 0 1 0.64093,0.519054 c 0.0468,0.06388 0.0883,0.130961 0.12326,0.199636 0.005,0.02715 0.0133,0.0539 0.0246,0.07985 0.0976,0.169691 0.24109,0.319817 0.41907,0.4392 a 0.10353527,0.08384715 0 0 1 0,0.05989 0.15776804,0.12776708 0 0 1 0.0247,0.05989 h -0.0493 a 0.09367477,0.0758617 0 0 1 -0.0493,0 1.8932164,1.533205 0 0 1 -0.49302,-0.539017 0.2021403,0.16370157 0 0 0 -0.0493,-0.07985 0.49302511,0.39927213 0 0 0 -0.074,-0.139746 1.3952611,1.1299401 0 0 0 -0.54232,-0.467148 z m 0.83814,0.399272 h 0.0739 a 0.17748904,0.14373797 0 0 1 0.0493,0.05989 l 0.17256,0.319417 a 0.05916301,0.04791266 0 0 1 0.0247,0.03993 0.08381427,0.06787626 0 0 1 -0.0247,0.05989 c 0,0 -0.0394,0 -0.0739,-0.03993 l -0.0493,-0.03993 -0.17256,-0.299454 a 0.2415823,0.19564334 0 0 1 -0.0247,-0.07986 z m -0.12326,-0.259527 a 0.23665205,0.19165062 0 0 0 0.0493,0.05989 0.15776804,0.12776708 0 0 1 -0.0247,0.05989 0.09367477,0.0758617 0 0 1 -0.0493,0 c 0,0 -0.0296,0 -0.0493,-0.03993 a 2.0559147,1.6649648 0 0 0 -0.64093,-0.49909 0.69023515,0.55898098 0 0 0 -0.71489,-0.05989 0.58176963,0.47114111 0 0 0 -0.19721,0.159709 h -0.0247 a 0.32046632,0.25952688 0 0 1 -0.074,-0.03993 0.10353527,0.08384715 0 0 1 -0.0247,-0.05989 0.03451176,0.02794905 0 0 1 0,-0.03993 0.54232762,0.43919934 0 0 1 0.19721,-0.179672 0.81842168,0.66279174 0 0 1 0.83815,0.05989 2.1101475,1.7088847 0 0 1 0.71488,0.57096 z m 0.17256,7.957494 a 2.396102,1.9404626 0 0 1 0.34512,0.958253 0.85786369,0.69473351 0 0 1 -0.34512,0.638835 0.84307294,0.68275534 0 0 1 -0.86279,-0.07985 2.6623356,2.1560695 0 0 1 -0.8628,-0.71869 2.4651255,1.9963606 0 0 1 -0.34511,-0.958253 0.87265444,0.70671167 0 0 1 0.34511,-0.638836 0.79870068,0.64682085 0 0 1 0.8628,0.05989 2.5735911,2.0842005 0 0 1 0.86279,0.738654 z m 0.19721,0.898362 a 2.0904265,1.6929138 0 0 0 -0.32047,-0.858435 1.9178677,1.5531686 0 0 0 -0.73953,-0.638836 0.73460741,0.59491547 0 0 0 -0.73954,-0.05989 0.70995616,0.57495187 0 0 0 -0.32047,0.55898 2.0509845,1.6609721 0 0 0 0.32047,0.838472 1.9178677,1.5531686 0 0 0 0.73954,0.638835 0.73460741,0.59491547 0 0 0 0.73953,0.05989 0.6853049,0.55498826 0 0 0 0.32047,-0.539016 z m -1.06,-1.097999 a 0.39935034,0.32341043 0 0 0 -0.44373,0 0.41414109,0.33538859 0 0 0 -0.17255,0.319418 1.4790753,1.1978164 0 0 0 0.17255,0.519054 c 0,0 0.0247,0 0.0247,0.01996 a 0.24651255,0.19963606 0 0 1 0,0.05989 v 0.03993 h -0.0493 a 0.08381427,0.06787626 0 0 1 -0.0739,-0.03993 0.07888402,0.06388354 0 0 0 0,-0.03993 1.5530291,1.2577072 0 0 1 -0.22186,-0.618872 0.57683938,0.46714839 0 0 1 0.22186,-0.419235 0.49302511,0.39927213 0 0 1 0.54233,0.03993 c 0.212,0.103811 0.38949,0.247549 0.51767,0.419236 l 0.0246,-0.03993 h 0.074 l 0.0493,0.03993 a 0.18241929,0.14773069 0 0 1 0.0247,0.07985 c 0,0 0,0.01996 -0.0247,0.01996 l -0.0493,0.03993 c 0.11438,0.1645 0.17404,0.350161 0.17256,0.539017 a 0.57683938,0.46714839 0 0 1 -0.22186,0.419236 h -0.0986 l -0.0493,-0.03993 a 0.24651255,0.19963606 0 0 1 -0.0247,-0.05989 c 0,-0.02795 0,-0.03993 0.0247,-0.03993 0.0247,0 0.0247,0 0.0247,-0.01996 a 0.39442009,0.3194177 0 0 0 0.19721,-0.319418 1.1142367,0.90235501 0 0 0 -0.12326,-0.399272 l -0.32046,0.119782 a 0.4535831,0.36733036 0 0 1 0,0.09982 0.19721004,0.15970885 0 0 1 -0.0493,0.119782 h -0.0246 a 0.17748904,0.14373797 0 0 1 -0.1479,-0.01996 l -0.0986,-0.03993 -0.074,0.01996 h -0.0493 a 0.37469908,0.30344682 0 0 1 -0.0493,-0.05989 0.10353527,0.08384715 0 0 1 0,-0.05989 0.07888402,0.06388354 0 0 1 0,-0.03993 l 0.074,-0.01996 a 0.30567557,0.24754872 0 0 1 -0.0247,-0.09982 0.25637306,0.20762151 0 0 1 0.0493,-0.139745 0.17255879,0.13974525 0 0 1 0.1479,0.01996 0.27116381,0.21959967 0 0 1 0.0986,0.05989 l 0.29581,-0.119782 a 1.1142367,0.90235501 0 0 0 -0.34511,-0.351359 z"
     fill="#8a94af"
     id="path70"
     style="stroke-width:0.443679;stroke:none" />
  <path
     d="m 209.42176,72.336355 a 0.49302511,0.39927213 0 0 1 0,0.119782 c 0,0.03993 0,0.06788 -0.0493,0.07985 l -1.89815,0.878399 a 0.07888402,0.06388354 0 0 1 -0.0986,-0.01996 0.15283778,0.12377436 0 0 1 -0.0986,-0.07985 l -0.9614,-1.317598 a 0.29581507,0.23956328 0 0 1 -0.0493,-0.119782 0.10353527,0.08384715 0 0 1 0.0493,-0.07985 0.11339578,0.09183259 0 0 1 0.0986,0 c 0.0493,0.02595 0.0912,0.05989 0.12325,0.09982 l 0.83814,1.197816 1.79955,-0.838471 a 0.11339578,0.09183259 0 0 1 0.0986,0 0.41907134,0.33938131 0 0 1 0.14791,0.07985 z m 1.08465,-1.058071 c -0.49302,-0.371323 -0.9466,-0.686748 -1.30651,-0.93829 a 8.1349143,6.5879901 0 0 0 -1.40512,-0.77858 6.3304424,5.1266541 0 0 0 -1.40513,-0.49909 c -0.29581,-0.06788 -0.72967,-0.151724 -1.30651,-0.259527 v 3.293995 c 0.13164,1.147109 1.03535,2.418391 2.71164,3.813049 1.696,0.159708 2.59972,-0.279491 2.71163,-1.317598 z m 0.19721,-0.139745 a 0.14297728,0.11578892 0 0 1 0.074,0.07985 0.2415823,0.19564334 0 0 1 0,0.07985 v 3.473667 c -0.11192,1.144713 -1.09797,1.62384 -2.95815,1.43738 -0.0296,0 -0.0641,-0.01996 -0.0986,-0.05989 -1.85377,-1.517234 -2.83982,-2.907899 -2.95815,-4.172394 v -3.425755 a 0.10353527,0.08384715 0 0 1 0.0247,-0.05989 0.2415823,0.19564334 0 0 1 0.0986,0 c 0.62614,0.107804 1.09451,0.199636 1.40512,0.279491 a 6.7002112,5.4261082 0 0 1 1.47907,0.519054 9.111104,7.378549 0 0 1 1.47908,0.798544 19.015978,15.399926 0 0 1 1.45442,1.050086 z"
     fill="#0cb754"
     id="path72"
     style="stroke-width:0.443679;stroke:none" />
  <g
     id="g14"
     transform="matrix(0.23883083,0,0,0.23883083,50.991302,86.757621)"
     style="stroke:none">
    <path
       d="m 436,81.621 c -83.027,0 -169.071,-76.961 -169.923,-77.732 -5.719,-5.185 -14.436,-5.185 -20.154,0 C 245.066,4.666 159.248,81.621 76,81.621 c -8.284,0 -15,6.716 -15,15 v 179.638 c 0,145.524 108.236,203.674 189.65,234.755 1.723,0.658 3.536,0.986 5.35,0.986 1.814,0 3.627,-0.329 5.35,-0.986 C 375.504,467.434 451,399.455 451,276.259 V 96.621 c 0,-8.284 -6.716,-15 -15,-15 z"
       fill="url(#SVGID_1_)"
       id="path12-7"
       style="fill:url(#SVGID_1_);stroke:none" />
  </g>
  <g
     id="g20"
     transform="matrix(0.23883083,0,0,0.23883083,50.991302,86.757621)"
     style="stroke:none">
    <path
       d="m 256,151 c -57.897,0 -105,47.103 -105,105 0,57.897 47.103,105 105,105 57.897,0 105,-47.103 105,-105 0,-57.897 -47.103,-105 -105,-105 z m 40.606,100.606 -45,45 C 248.678,299.535 244.839,301 241,301 c -3.839,0 -7.678,-1.464 -10.606,-4.394 l -15,-15 c -5.858,-5.858 -5.858,-15.355 0,-21.213 5.857,-5.858 15.355,-5.858 21.213,0 l 4.394,4.393 34.394,-34.393 c 5.857,-5.858 15.355,-5.858 21.213,0 5.857,5.858 5.857,15.355 -0.002,21.213 z"
       fill="url(#SVGID_2_)"
       id="path18-5"
       style="fill:url(#SVGID_2_);stroke:none" />
  </g>
  <path
     d="m 191.66361,171.61452 -34.11578,-19.7025 c -5.88125,-3.3964 -13.40349,-1.38734 -16.8037,4.50066 -3.39161,5.8734 -1.37268,13.41113 4.50054,16.80289 l 34.11578,19.7025 c 5.88126,3.3964 13.40359,1.38732 16.80368,-4.50076 3.39159,-5.87307 1.37273,-13.41093 -4.50052,-16.80279 z"
     fill="#fccc8b"
     id="path1150"
     style="stroke-width:0.10247;stroke:none" />
  <path
     d="m 196.16408,188.41711 c -3.39981,5.88874 -10.9229,7.89739 -16.80338,4.50068 l -17.05755,-9.85134 12.30198,-21.30281 17.05854,9.85108 c 5.87279,3.39135 7.89188,10.92967 4.50041,16.80239 z"
     fill="#ffa76d"
     id="path1152"
     style="stroke-width:0.10247;stroke:none" />
  <path
     d="m 184.45653,144.70513 c -5.87339,-3.39161 -13.41112,-1.37268 -16.80289,4.50054 l -19.70249,34.11578 c -3.39984,5.88706 -1.38745,13.40352 4.50063,16.80361 5.87244,3.39123 13.41064,1.37366 16.80291,-4.50044 l 19.7025,-34.11579 c 3.39978,-5.88725 1.38742,-13.40361 -4.50066,-16.8037 z"
     fill="#ffdeae"
     id="path1154"
     style="stroke-width:0.10247;stroke:none" />
  <path
     d="m 154.30863,178.45182 12.30048,-21.30021 15.9791,9.22764 -12.30048,21.30021 z"
     fill="#ff6d66"
     id="path1158"
     style="stroke-width:0.102455;stroke:none" />
  <circle
     cx="118.11971"
     cy="203.60648"
     fill="#f3f4ff"
     r="1.5366461"
     id="circle1162"
     transform="rotate(-14.99435)"
     style="stroke-width:0.10247;stroke:none" />
  <circle
     cx="124.6318"
     cy="210.11867"
     fill="#e3e8ff"
     r="1.5366461"
     id="circle1164"
     transform="rotate(-14.99435)"
     style="stroke-width:0.10247;stroke:none" />
  <circle
     cx="111.58578"
     cy="210.12953"
     fill="#f3f4ff"
     r="1.5366461"
     id="circle1166"
     transform="rotate(-14.99435)"
     style="stroke-width:0.10247;stroke:none" />
  <circle
     cx="118.11621"
     cy="216.64153"
     fill="#d2dbff"
     r="1.5366461"
     id="circle1168"
     transform="rotate(-14.99435)"
     style="stroke-width:0.10247;stroke:none" />
  <circle
     cx="118.05945"
     cy="210.12769"
     fill="#f3f4ff"
     r="1.5366461"
     id="circle1170"
     transform="rotate(-14.99435)"
     style="stroke-width:0.10247;stroke:none" />
  <path
     d="m 169.73582,173.19703 c -0.41801,0.72384 -1.3382,0.97879 -2.06743,0.58026 l 1.53665,-2.66095 c 0.70967,0.43241 0.94878,1.35684 0.53078,2.08069 z"
     fill="#d2dbff"
     id="path1172"
     style="stroke-width:0.10247;stroke:none" />
</svg>
