<?xml version="1.0" encoding="UTF-8" standalone="no"?>
<svg
   xmlns:dc="http://purl.org/dc/elements/1.1/"
   xmlns:cc="http://creativecommons.org/ns#"
   xmlns:rdf="http://www.w3.org/1999/02/22-rdf-syntax-ns#"
   xmlns:svg="http://www.w3.org/2000/svg"
   xmlns="http://www.w3.org/2000/svg"
   xmlns:xlink="http://www.w3.org/1999/xlink"
   id="svg23"
   version="1.1"
   viewBox="0 0 85.72 61.91"
   height="234"
   width="324">
  <metadata
     id="metadata27">
    <rdf:RDF>
      <cc:Work
         rdf:about="">
        <dc:format>image/svg+xml</dc:format>
        <dc:type
           rdf:resource="http://purl.org/dc/dcmitype/StillImage" />
        <dc:title></dc:title>
      </cc:Work>
    </rdf:RDF>
  </metadata>
  <defs
     id="defs2">
    <linearGradient
       id="linearGradient2802">
      <stop
         id="stop2798"
         offset="0"
         style="stop-color:#c60000;stop-opacity:1;" />
      <stop
         id="stop2800"
         offset="1"
         style="stop-color:#080326;stop-opacity:1" />
    </linearGradient>
    <linearGradient
       xlink:href="#a"
       gradientUnits="userSpaceOnUse"
       gradientTransform="translate(2.6714485e-7,-235)"
       y2="235"
       y1="297"
       x2="0"
       x1="0"
       id="b-7" />
    <linearGradient
       id="linearGradient2697">
      <stop
         id="stop4-0"
         stop-color="#c1000e"
         offset="0" />
      <stop
         id="stop6-9"
         stop-color="#ff2031"
         offset="1" />
    </linearGradient>
    <linearGradient
       y2="235"
       x2="0"
       y1="297"
       x1="0"
       gradientTransform="translate(-12.699487,-235.50001)"
       gradientUnits="userSpaceOnUse"
       id="linearGradient2711"
       xlink:href="#linearGradient2802" />
    <filter
       y="-0.168"
       x="-0.126"
       height="1.336"
       width="1.252"
       id="c-7"
       style="color-interpolation-filters:sRGB">
      <feGaussianBlur
         id="feGaussianBlur10-9"
         stdDeviation="1.8335" />
    </filter>
    <linearGradient
       xlink:href="#linearGradient2697"
       gradientUnits="userSpaceOnUse"
       gradientTransform="translate(2.8773619e-7,-235)"
       y2="235"
       y1="297"
       x2="0"
       x1="0"
       id="b-7-7" />
    <linearGradient
       gradientUnits="userSpaceOnUse"
       y2="25.906954"
       x2="68.473076"
       y1="59.507679"
       x1="38.073746"
       id="linearGradient2806"
       xlink:href="#linearGradient2802" />
    <linearGradient
       y2="235"
       x2="0"
       y1="297"
       x1="0"
       gradientTransform="matrix(3.7796802,0,0,3.7796802,-180.40657,-979.95472)"
       gradientUnits="userSpaceOnUse"
       id="linearGradient2711-2"
       xlink:href="#linearGradient2697" />
    <linearGradient
       gradientUnits="userSpaceOnUse"
       y2="25.906954"
       x2="68.473076"
       y1="59.507679"
       x1="38.073746"
       id="linearGradient2806-7"
       xlink:href="#linearGradient2802"
       gradientTransform="matrix(3.7796802,0,0,3.7796802,-132.40657,-89.839999)" />
    <filter
       height="1.0233917"
       y="-0.011695845"
       width="1.0246408"
       x="-0.012320397"
       id="filter2889"
       style="color-interpolation-filters:sRGB">
      <feGaussianBlur
         id="feGaussianBlur2891"
         stdDeviation="0.18099701" />
    </filter>
  </defs>
  <defs
     id="defs13">
    <linearGradient
       id="a">
      <stop
         id="stop4"
         stop-color="#c1000e"
         offset="0" />
      <stop
         id="stop6"
         stop-color="#ff2031"
         offset="1" />
    </linearGradient>
    <linearGradient
       xlink:href="#a"
       gradientUnits="userSpaceOnUse"
       gradientTransform="translate(0,-235)"
       y2="235"
       y1="297"
       x2="0"
       x1="0"
       id="b" />
    <filter
       color-interpolation-filters="sRGB"
       y="-.168"
       x="-.126"
       height="1.336"
       width="1.252"
       id="c">
      <feGaussianBlur
         id="feGaussianBlur10"
         stdDeviation="1.8335" />
    </filter>
  </defs>
  <rect
     y="0"
     style="fill:url(#b)"
     width="85.721497"
     height="61.91"
     x="-0.00079999998"
     rx="0"
     ry="0"
     id="rect15" />
  <path
     style="opacity:0.1;fill:none;stroke:#000000;stroke-width:5.29150009;stroke-linecap:round;stroke-linejoin:round;filter:url(#c)"
     d="m 60.3218,43.0035 a 1.0477,1.0475 0 0 1 -1.0477,1.0478 H 54.8877 A 1.0477,1.0475 0 0 1 53.84,43.0035 V 29.3087 a 0.1292,0.1292 0 0 0 -0.22,-0.0924 l -9.3107,9.4278 a 2.05,2.0497 0 0 1 -2.9266,0 L 32.086,29.2127 a 0.1292,0.1292 0 0 0 -0.22,0.0924 v 13.6984 a 1.0477,1.0475 0 0 1 -1.0477,1.0478 H 26.4459 A 1.0477,1.0475 0 0 1 25.3982,43.0035 V 18.91 a 1.0477,1.0475 0 0 1 1.0477,-1.0478 h 3.0104 a 2.057,2.0567 0 0 1 1.4633,0.615 l 11.5912,11.7152 a 0.5134,0.5133 0 0 0 0.7333,0 L 54.818,18.4737 a 2.057,2.0567 0 0 1 1.4633,-0.615 h 2.993 a 1.0477,1.0475 0 0 1 1.0476,1.0478 V 43 Z"
     class="cls-2"
     data-name="MS"
     id="path17" />
  <path
     style="opacity:0.8;fill:url(#linearGradient2711);fill-opacity:1;stroke:url(#linearGradient2806);stroke-width:0.79371887;stroke-linejoin:bevel;stroke-miterlimit:4;stroke-dasharray:none;stroke-opacity:1;paint-order:stroke fill markers;filter:url(#filter2889)"
     d="M 61.129464,24.270097 C 54.644341,24.184938 47.69174,30.29296 52.898775,38.922875 L 36.031235,61.41 h 8.755701 L 58.371088,43.300208 c 7.068233,2.506268 15.725163,-1.623761 12.03909,-13.132 l -5.472313,6.56626 -5.472314,-1.094463 -1.094463,-4.377336 5.472315,-6.566258 c -0.870548,-0.27565 -1.787493,-0.414148 -2.713939,-0.426314 z"
     id="rect15-0"
     transform="matrix(1.5710031,0,0,1.5731146,-28.544712,-35.37832)" />
  <path
     style="fill:#fffffd;fill-rule:evenodd;stroke-width:0.99950099"
     d="m 60.199693,43.010467 a 1.0470402,1.0471142 0 0 1 -1.04704,1.047414 h -4.383638 a 1.0470402,1.0471142 0 0 1 -1.04704,-1.047414 V 29.320711 a 0.12911864,0.12915242 0 0 0 -0.219861,-0.09237 l -9.304837,9.424328 a 2.0487091,2.0489451 0 0 1 -2.924757,0 l -9.290846,-9.427927 a 0.12911864,0.12915242 0 0 0 -0.219862,0.09237 v 13.693355 a 1.0470402,1.0471142 0 0 1 -1.04704,1.047414 H 26.345126 A 1.0470402,1.0471142 0 0 1 25.298085,43.010467 V 18.925841 a 1.0470402,1.0471142 0 0 1 1.047041,-1.047414 h 3.008504 a 2.0557047,2.0559425 0 0 1 1.462378,0.614773 l 11.583901,11.710885 a 0.5130767,0.51311095 0 0 0 0.732838,0 L 54.699359,18.489701 a 2.0557047,2.0559425 0 0 1 1.462379,-0.614773 h 2.991115 a 1.0470402,1.0471142 0 0 1 1.04694,1.047414 v 24.084626 z"
     class="cls-2"
     data-name="M"
     id="path19-3" />
</svg>
