<?xml version="1.0" encoding="UTF-8" standalone="no"?>
<svg
   xmlns:dc="http://purl.org/dc/elements/1.1/"
   xmlns:cc="http://creativecommons.org/ns#"
   xmlns:rdf="http://www.w3.org/1999/02/22-rdf-syntax-ns#"
   xmlns:svg="http://www.w3.org/2000/svg"
   xmlns="http://www.w3.org/2000/svg"
   width="324"
   version="1.1"
   id="svg154"
   height="234">
  <metadata
     id="metadata158">
    <rdf:RDF>
      <cc:Work
         rdf:about="">
        <dc:format>image/svg+xml</dc:format>
        <dc:type
           rdf:resource="http://purl.org/dc/dcmitype/StillImage" />
        <dc:title></dc:title>
      </cc:Work>
    </rdf:RDF>
  </metadata>
  <defs
     id="defs148">
    <linearGradient
       id="a"
       gradientUnits="userSpaceOnUse"
       x1="-81.13092"
       x2="-28.873266"
       y1="-52.850517"
       y2="216.83955"
       gradientTransform="rotate(-120)">
      <stop
         offset="0"
         stop-color="#ffffff"
         id="stop2" />
      <stop
         offset="1"
         stop-color="#4FE"
         id="stop4"
         style="stop-color:#d2f8ff;stop-opacity:1" />
    </linearGradient>
    <pattern
       patternUnits="userSpaceOnUse"
       id="b"
       width="540"
       height="450"
       x="0"
       y="0"
       viewBox="0 0 1080 900">
      <g
         fill-opacity="0.1"
         id="g145">
        <polygon
           fill="#444"
           points="90 150 0 300 180 300"
           id="polygon7" />
        <polygon
           points="90 150 180 0 0 0"
           id="polygon9" />
        <polygon
           fill="#AAA"
           points="270 150 360 0 180 0"
           id="polygon11" />
        <polygon
           fill="#DDD"
           points="450 150 360 300 540 300"
           id="polygon13" />
        <polygon
           fill="#999"
           points="450 150 540 0 360 0"
           id="polygon15" />
        <polygon
           points="630 150 540 300 720 300"
           id="polygon17" />
        <polygon
           fill="#DDD"
           points="630 150 720 0 540 0"
           id="polygon19" />
        <polygon
           fill="#444"
           points="810 150 720 300 900 300"
           id="polygon21" />
        <polygon
           fill="#FFF"
           points="810 150 900 0 720 0"
           id="polygon23" />
        <polygon
           fill="#DDD"
           points="990 150 900 300 1080 300"
           id="polygon25" />
        <polygon
           fill="#444"
           points="990 150 1080 0 900 0"
           id="polygon27" />
        <polygon
           fill="#DDD"
           points="90 450 0 600 180 600"
           id="polygon29" />
        <polygon
           points="90 450 180 300 0 300"
           id="polygon31" />
        <polygon
           fill="#666"
           points="270 450 180 600 360 600"
           id="polygon33" />
        <polygon
           fill="#AAA"
           points="270 450 360 300 180 300"
           id="polygon35" />
        <polygon
           fill="#DDD"
           points="450 450 360 600 540 600"
           id="polygon37" />
        <polygon
           fill="#999"
           points="450 450 540 300 360 300"
           id="polygon39" />
        <polygon
           fill="#999"
           points="630 450 540 600 720 600"
           id="polygon41" />
        <polygon
           fill="#FFF"
           points="630 450 720 300 540 300"
           id="polygon43" />
        <polygon
           points="810 450 720 600 900 600"
           id="polygon45" />
        <polygon
           fill="#DDD"
           points="810 450 900 300 720 300"
           id="polygon47" />
        <polygon
           fill="#AAA"
           points="990 450 900 600 1080 600"
           id="polygon49" />
        <polygon
           fill="#444"
           points="990 450 1080 300 900 300"
           id="polygon51" />
        <polygon
           fill="#222"
           points="90 750 0 900 180 900"
           id="polygon53" />
        <polygon
           points="270 750 180 900 360 900"
           id="polygon55" />
        <polygon
           fill="#DDD"
           points="270 750 360 600 180 600"
           id="polygon57" />
        <polygon
           points="450 750 540 600 360 600"
           id="polygon59" />
        <polygon
           points="630 750 540 900 720 900"
           id="polygon61" />
        <polygon
           fill="#444"
           points="630 750 720 600 540 600"
           id="polygon63" />
        <polygon
           fill="#AAA"
           points="810 750 720 900 900 900"
           id="polygon65" />
        <polygon
           fill="#666"
           points="810 750 900 600 720 600"
           id="polygon67" />
        <polygon
           fill="#999"
           points="990 750 900 900 1080 900"
           id="polygon69" />
        <polygon
           fill="#999"
           points="180 0 90 150 270 150"
           id="polygon71" />
        <polygon
           fill="#444"
           points="360 0 270 150 450 150"
           id="polygon73" />
        <polygon
           fill="#FFF"
           points="540 0 450 150 630 150"
           id="polygon75" />
        <polygon
           points="900 0 810 150 990 150"
           id="polygon77" />
        <polygon
           fill="#222"
           points="0 300 -90 450 90 450"
           id="polygon79" />
        <polygon
           fill="#FFF"
           points="0 300 90 150 -90 150"
           id="polygon81" />
        <polygon
           fill="#FFF"
           points="180 300 90 450 270 450"
           id="polygon83" />
        <polygon
           fill="#666"
           points="180 300 270 150 90 150"
           id="polygon85" />
        <polygon
           fill="#222"
           points="360 300 270 450 450 450"
           id="polygon87" />
        <polygon
           fill="#FFF"
           points="360 300 450 150 270 150"
           id="polygon89" />
        <polygon
           fill="#444"
           points="540 300 450 450 630 450"
           id="polygon91" />
        <polygon
           fill="#222"
           points="540 300 630 150 450 150"
           id="polygon93" />
        <polygon
           fill="#AAA"
           points="720 300 630 450 810 450"
           id="polygon95" />
        <polygon
           fill="#666"
           points="720 300 810 150 630 150"
           id="polygon97" />
        <polygon
           fill="#FFF"
           points="900 300 810 450 990 450"
           id="polygon99" />
        <polygon
           fill="#999"
           points="900 300 990 150 810 150"
           id="polygon101" />
        <polygon
           points="0 600 -90 750 90 750"
           id="polygon103" />
        <polygon
           fill="#666"
           points="0 600 90 450 -90 450"
           id="polygon105" />
        <polygon
           fill="#AAA"
           points="180 600 90 750 270 750"
           id="polygon107" />
        <polygon
           fill="#444"
           points="180 600 270 450 90 450"
           id="polygon109" />
        <polygon
           fill="#444"
           points="360 600 270 750 450 750"
           id="polygon111" />
        <polygon
           fill="#999"
           points="360 600 450 450 270 450"
           id="polygon113" />
        <polygon
           fill="#666"
           points="540 600 630 450 450 450"
           id="polygon115" />
        <polygon
           fill="#222"
           points="720 600 630 750 810 750"
           id="polygon117" />
        <polygon
           fill="#FFF"
           points="900 600 810 750 990 750"
           id="polygon119" />
        <polygon
           fill="#222"
           points="900 600 990 450 810 450"
           id="polygon121" />
        <polygon
           fill="#DDD"
           points="0 900 90 750 -90 750"
           id="polygon123" />
        <polygon
           fill="#444"
           points="180 900 270 750 90 750"
           id="polygon125" />
        <polygon
           fill="#FFF"
           points="360 900 450 750 270 750"
           id="polygon127" />
        <polygon
           fill="#AAA"
           points="540 900 630 750 450 750"
           id="polygon129" />
        <polygon
           fill="#FFF"
           points="720 900 810 750 630 750"
           id="polygon131" />
        <polygon
           fill="#222"
           points="900 900 990 750 810 750"
           id="polygon133" />
        <polygon
           fill="#222"
           points="1080 300 990 450 1170 450"
           id="polygon135" />
        <polygon
           fill="#FFF"
           points="1080 300 1170 150 990 150"
           id="polygon137" />
        <polygon
           points="1080 600 990 750 1170 750"
           id="polygon139" />
        <polygon
           fill="#666"
           points="1080 600 1170 450 990 450"
           id="polygon141" />
        <polygon
           fill="#DDD"
           points="1080 900 1170 750 990 750"
           id="polygon143" />
      </g>
    </pattern>
  </defs>
  <rect
     x="0"
     y="0"
     fill="url(#a)"
     width="100%"
     height="100%"
     id="rect150"
     style="fill:url(#a)" />
  <rect
     x="0"
     y="0"
     fill="url(#b)"
     width="100%"
     height="100%"
     id="rect152"
     style="opacity:0.39181818" />
  <path
     style="fill:#eeefee;stroke-width:0.264838"
     d="m 141.70513,82.739978 v -39.66881 h 40.58038 v 39.66881 z"
     id="path815" />
  <path
     style="fill:#dbd8dd;stroke-width:0.264878"
     d="m 164.85011,77.409051 -1.82334,1.87e-4 V 58.937982 h -3.87668 l 1.9e-4,-15.885991 1.82427,0.0011 -9.3e-4,14.061341 h 3.87668 z"
     id="path817" />
  <path
     style="fill:#575b6d;stroke-width:0.264838"
     d="m 171.11382,61.083233 v -9.720626 h 4.9056 v 9.720626 z"
     id="path819" />
  <path
     style="fill:#575b6d;stroke-width:0.264838"
     d="m 147.97099,61.080314 v -9.720626 h 4.9056 v 9.720626 z"
     id="path821" />
  <path
     style="fill:#0094cc;fill-opacity:1;stroke-width:0.264838"
     d="M 137.91072,78.935109 V 72.63434 h 48.16879 v 6.300769 z"
     id="path823" />
  <path
     style="fill:#00adef;fill-opacity:1;stroke-width:0.264878"
     d="m 189.63609,77.408114 -55.27198,-1.87e-4 c -2.01232,0.006 -3.64218,1.635854 -3.64818,3.648176 v 78.474177 c -0.0736,17.27761 13.87311,31.34383 31.15072,31.41743 17.27761,0.0736 31.34382,-13.8731 31.41743,-31.15071 3.8e-4,-0.0888 3.8e-4,-0.17756 0,-0.26672 V 81.056103 c -0.006,-2.012134 -1.63567,-3.641995 -3.64799,-3.647989 z M 162.00019,185.9819 c -8.8835,0 -16.07029,-4.55975 -16.07029,-10.16069 0,-5.60056 7.18697,-10.1605 16.07029,-10.16069 8.88333,-1.8e-4 16.0703,4.54215 16.0703,10.16069 0,5.61855 -7.18585,10.15938 -16.06917,10.15957 z"
     id="path825" />
  <path
     style="fill:#ffffff;stroke-width:0.177126"
     d="m 137.3265,107.38314 18.53073,-2.5237 0.008,17.87439 -18.5219,0.10547 z m 18.5219,17.41017 0.0144,17.88996 -18.5219,-2.54649 -0.001,-15.46348 z m 2.24636,-20.26401 24.5702,-3.58599 v 21.56319 l -24.5702,0.19506 z m 24.57591,20.43225 -0.006,21.46608 -24.5702,-3.4678 -0.0344,-18.03848 z"
     id="path848" />
</svg>
