<svg xmlns="http://www.w3.org/2000/svg" xmlns:xlink="http://www.w3.org/1999/xlink" width="324" height="234"><defs><linearGradient id="a" x1="-81.13" x2="-28.87" y1="-52.85" y2="216.84" gradientTransform="rotate(-120)" gradientUnits="userSpaceOnUse"><stop offset="0" stop-color="#fff"/><stop offset="1" stop-color="#d2f8ff"/></linearGradient><linearGradient xlink:href="#a" id="c" x1="0" x2="129.89" y1="139.31" y2="-14.38" gradientTransform="matrix(1.01 0 0 1.17 32.65 -39.39)" gradientUnits="userSpaceOnUse"/><pattern xlink:href="#b" id="d" patternTransform="scale(.6 .52)"/><pattern id="b" width="540" height="450" x="0" y="0" patternUnits="userSpaceOnUse" viewBox="0 0 1080 900"><g fill-opacity=".1"><path fill="#444" d="M90 150 0 300h180z"/><path d="M90 150 180 0H0z"/><path fill="#AAA" d="M270 150 360 0H180z"/><path fill="#DDD" d="m450 150-90 150h180z"/><path fill="#999" d="M450 150 540 0H360z"/><path d="m630 150-90 150h180z"/><path fill="#DDD" d="M630 150 720 0H540z"/><path fill="#444" d="m810 150-90 150h180z"/><path fill="#FFF" d="M810 150 900 0H720z"/><path fill="#DDD" d="m990 150-90 150h180z"/><path fill="#444" d="m990 150 90-150H900z"/><path fill="#DDD" d="M90 450 0 600h180z"/><path d="m90 450 90-150H0z"/><path fill="#666" d="m270 450-90 150h180z"/><path fill="#AAA" d="m270 450 90-150H180z"/><path fill="#DDD" d="m450 450-90 150h180z"/><path fill="#999" d="m450 450 90-150H360zm180 0-90 150h180z"/><path fill="#FFF" d="m630 450 90-150H540z"/><path d="m810 450-90 150h180z"/><path fill="#DDD" d="m810 450 90-150H720z"/><path fill="#AAA" d="m990 450-90 150h180z"/><path fill="#444" d="m990 450 90-150H900z"/><path fill="#222" d="M90 750 0 900h180z"/><path d="m270 750-90 150h180z"/><path fill="#DDD" d="m270 750 90-150H180z"/><path d="m450 750 90-150H360zm180 0-90 150h180z"/><path fill="#444" d="m630 750 90-150H540z"/><path fill="#AAA" d="m810 750-90 150h180z"/><path fill="#666" d="m810 750 90-150H720z"/><path fill="#999" d="m990 750-90 150h180zM180 0 90 150h180z"/><path fill="#444" d="m360 0-90 150h180z"/><path fill="#FFF" d="m540 0-90 150h180z"/><path d="m900 0-90 150h180z"/><path fill="#222" d="m0 300-90 150H90z"/><path fill="#FFF" d="m0 300 90-150H-90zm180 0L90 450h180z"/><path fill="#666" d="m180 300 90-150H90z"/><path fill="#222" d="m360 300-90 150h180z"/><path fill="#FFF" d="m360 300 90-150H270z"/><path fill="#444" d="m540 300-90 150h180z"/><path fill="#222" d="m540 300 90-150H450z"/><path fill="#AAA" d="m720 300-90 150h180z"/><path fill="#666" d="m720 300 90-150H630z"/><path fill="#FFF" d="m900 300-90 150h180z"/><path fill="#999" d="m900 300 90-150H810z"/><path d="m0 600-90 150H90z"/><path fill="#666" d="m0 600 90-150H-90z"/><path fill="#AAA" d="M180 600 90 750h180z"/><path fill="#444" d="m180 600 90-150H90zm180 0-90 150h180z"/><path fill="#999" d="m360 600 90-150H270z"/><path fill="#666" d="m540 600 90-150H450z"/><path fill="#222" d="m720 600-90 150h180z"/><path fill="#FFF" d="m900 600-90 150h180z"/><path fill="#222" d="m900 600 90-150H810z"/><path fill="#DDD" d="m0 900 90-150H-90z"/><path fill="#444" d="m180 900 90-150H90z"/><path fill="#FFF" d="m360 900 90-150H270z"/><path fill="#AAA" d="m540 900 90-150H450z"/><path fill="#FFF" d="m720 900 90-150H630z"/><path fill="#222" d="m900 900 90-150H810zm180-600-90 150h180z"/><path fill="#FFF" d="m1080 300 90-150H990z"/><path d="m1080 600-90 150h180z"/><path fill="#666" d="m1080 600 90-150H990z"/><path fill="#DDD" d="m1080 900 90-150H990z"/></g></pattern></defs><path fill="url(#c)" d="M0 0h324v234H0z"/><path fill="url(#d)" d="M0 0h324v234H0Z" opacity=".39"/><path fill="#eeefee" d="M141.7 82.74V43.07h40.59v39.67z"/><path fill="#dbd8dd" d="M164.85 77.4h-1.82V58.95h-3.88v-15.9h1.82v14.06h3.88z"/><path fill="#575b6d" d="M171.11 61.08v-9.72h4.9v9.72zm-23.14 0v-9.72h4.9v9.72z"/><path fill="#0094cc" d="M137.91 78.94v-6.3h48.17v6.3z"/><path fill="#00adef" d="M189.64 77.4h-55.28a3.66 3.66 0 0 0-3.64 3.66v78.47a31.28 31.28 0 1 0 62.56.27V81.06a3.66 3.66 0 0 0-3.64-3.65zM162 185.99c-8.88 0-16.07-4.56-16.07-10.16 0-5.6 7.19-10.16 16.07-10.16 8.88 0 16.07 4.54 16.07 10.16s-7.19 10.16-16.07 10.16z"/><path fill="#fff" d="m137.33 107.38 18.53-2.52v17.87l-18.52.1zm18.52 17.41.01 17.9-18.52-2.55v-15.47zm2.25-20.26 24.56-3.59v21.57l-24.56.2zm24.57 20.43v21.47l-24.58-3.47-.03-18.04z"/></svg>