<svg xmlns="http://www.w3.org/2000/svg" xml:space="preserve" width="324" height="234" viewBox="0 0 324 234"><path fill="#17c0d5" fill-rule="evenodd" d="M0 0v234h324V0Z" paint-order="markers fill stroke"/><path fill="#fff" d="M228.71 139.17c0 9.8-2.47 18.69-7.4 26.64-4.8 7.82-12.14 14.05-22.02 18.69-9.74 4.5-22.09 6.76-37.06 6.76-21.27 0-37.44-4.77-48.52-14.32-11.09-9.67-16.63-22.4-16.63-38.17V47.32H131v86.88c0 11.66 2.7 19.88 8.09 24.65s13.4 7.16 24.03 7.16c11.08 0 19.1-2.59 24.04-7.76 5.09-5.16 7.63-13.25 7.63-24.25V47.32h33.92Z" font-family="Noto Looped Thai" font-size="211.33" font-weight="700" style="-inkscape-font-specification:&quot;Noto Looped Thai Bold&quot;"/></svg>