<svg xmlns="http://www.w3.org/2000/svg" xmlns:xlink="http://www.w3.org/1999/xlink" width="324" height="234" viewBox="0 0 324 234"><defs><linearGradient id="a"><stop offset="0" stop-color="#008af2"/><stop offset="1" stop-color="#008af2" stop-opacity="0"/></linearGradient><linearGradient id="c" x1="256" x2="256" y1="512" y2="0" gradientUnits="userSpaceOnUse"><stop offset="0" stop-color="#00b59c"/><stop offset="1" stop-color="#9cffac"/></linearGradient><linearGradient id="d" x1="256" x2="256" y1="361" y2="151" gradientUnits="userSpaceOnUse"><stop offset="0" stop-color="#c3ffe8"/><stop offset=".997" stop-color="#f0fff4"/></linearGradient><radialGradient xlink:href="#a" id="b" cx="162.246" cy="117.67" r="164.865" fx="162.246" fy="117.67" gradientTransform="matrix(.99 0 0 .7169 1.678 32.927)" gradientUnits="userSpaceOnUse"/></defs><path fill="#91ffff" d="M0 0h324.581v234.561H0z"/><path fill="url(#b)" d="M0 0h324.581v234.561H0Zm0 0"/><path fill="#e7e7ef" d="m264.69 149.979-71.563 33.479a16.847 13.643 0 0 1-3.82 1.138 9.86 7.985 0 0 1-1.209.18 13.716 11.108 0 0 1-5.102-.18 15.225 12.33 0 0 1-2.737-.719 20.416 16.534 0 0 1-1.873-.739l-105.182-49.17a11.704 9.479 0 0 1-1.233-.679 4.501 3.645 0 0 1-.69-.519 2.919 2.364 0 0 1-.887-1.477v-.14a3.284 2.66 0 0 1 1.035-1.737l.246-.2a8.973 7.267 0 0 1 1.825-1.077L145.679 94.4z"/><path fill="#aaabb6" d="M264.69 149.979v4.232l-23.74 11.1a980.161 980.161 0 0 1-46.196 20.023 20.12 16.294 0 0 1-9.17 1.837 15.56 12.601 0 0 1-5.325-1.018 20.416 16.534 0 0 1-1.873-.739l-105.182-49.21a7.44 6.025 0 0 1-1.923-1.158 2.919 2.364 0 0 1-.887-1.477v-2.276a2.919 2.364 0 0 0 .887 1.477c.207.192.439.366.69.52a11.704 9.479 0 0 0 1.233.678l105.182 49.174a20.416 16.534 0 0 0 1.873.739 15.225 12.33 0 0 0 2.737.719 13.716 11.108 0 0 0 5.102.18 9.86 7.985 0 0 0 1.208-.18 16.847 13.643 0 0 0 3.821-1.138z"/><path fill="#333c54" d="m254.509 156.327.69.32 4.24-1.957 1.085.52-6.015 2.854z"/><path fill="#2d364c" d="m260.524 155.21-1.085-.52.542-.28v-.598l-.542-.24 1.085-.559z"/><path fill="#49526b" d="m259.44 154.69-4.24 1.957v-.66l4.781-2.175v.599z"/><path fill="#59627b" d="m255.2 155.988-.494-.22 4.733-2.196.542.24z"/><path fill="#3a445d" d="m255.2 156.647-.691-.32v-.439l.197-.12.493.22z"/><path fill="#59627b" d="m246.966 159.9-.493-.239 4.733-2.256.542.28z"/><path fill="#2d364c" d="m251.748 157.685-.542-.28 1.134-.519v2.216l-1.134-.519.542-.28z"/><path fill="#49526b" d="M246.966 160.54v-.64l4.782-2.215v.619l-.542.28z"/><path fill="#333c54" d="m246.275 160.22.69.32 4.24-1.957 1.135.52-6.065 2.834z"/><path fill="#252f46" d="m264.69 149.979-20.83-9.742-1.652-2.316-74.028-34.577-1.577.738-1.203-.578-.074.04-19.648-9.144V22.431c0-1.33.23-2.189.69-2.575a.793.793 0 0 1 .149-.1 2.465 1.996 0 0 1 .345-.18 2.307 1.869 0 0 1 1.824.1 4.21 3.41 0 0 1 .789.32L261.416 72.26l.123.06c1.858.972 2.9 2.589 3.131 4.852zm-4.782-12.737V79.288L151.22 28.58l-.74-.36v58.734l109.452 51.107z"/><path fill="#49526b" d="m146.882 19.577 1.676-.76c.725-.318 1.642-.199 2.76.36L263.31 71.402c1.94.958 3.024 2.609 3.254 4.951v72.767a4.896 3.965 0 0 1-1.873 2.975V77.172c-.23-2.266-1.274-3.883-3.13-4.852l-.124-.06L149.52 19.996a4.21 3.41 0 0 0-.789-.32 2.307 1.869 0 0 0-1.848-.1z"/><path fill="#1a1f35" d="M151.22 28.58v57.935l108.688 50.727v.799L150.48 86.954V28.22Z"/><path fill="#283055" d="M259.908 137.242 151.22 86.515V28.58l108.688 50.708z"/><path fill="#3a445d" d="M205.034 49.785a.863.699 0 0 1 .32-.618.754.61 0 0 1 .764.06c.334.164.607.399.79.678.199.28.31.596.32.919a.804.65 0 0 1-.32.598.73.59 0 0 1-.79 0 2.209 1.789 0 0 1-.783-.702 2.406 1.948 0 0 1-.301-.935z"/><path fill="#252f46" d="m152.921 104.442 1.676-.739a1.602 1.298 0 0 1 .888-.2 2.184 1.769 0 0 1 .665.14l4.61 2.176c.296.12.444.252.444.4a.434.351 0 0 1-.222.299l-1.824.839a1.681 1.362 0 0 1-.592.12 1.405 1.138 0 0 1-.715-.12l-4.777-2.256a.917.743 0 0 1-.394-.32.385.311 0 0 1 .241-.34zm-1.479-.679a1.188.962 0 0 1-.64.14 1.095.886 0 0 1-.716-.18l-4.782-2.296c-.247-.095-.37-.195-.37-.3 0-.107.074-.199.271-.279l1.726-.798a1.336 1.082 0 0 1 .838-.16 1.972 1.597 0 0 1 .592.12l4.831 2.216c.212.12.32.24.32.36a.459.371 0 0 1-.27.339zm-4.708 5.43a.32.26 0 0 1-.198.26l-4.338 2.036a1.356 1.098 0 0 1-.543.1 1.864 1.51 0 0 1-.764-.14l-8.53-3.953a.385.311 0 0 1-.246-.28.39.315 0 0 1 .272-.299l4.166-2.016a1.385 1.122 0 0 1 .788-.16c.231.008.454.07.641.18l8.382 3.873c.19.083.325.229.37.4zm-2.466 4.712 5.03 2.315a.459.371 0 0 1 .27.32c.035.092 0 .191-.172.3l-4.339 2.016a1.154.934 0 0 1-.64.12 1.854 1.501 0 0 1-.617-.14l-4.807-2.256c-.232-.096-.345-.2-.345-.32s.04-.2.222-.28l4.24-2.075a1.297 1.05 0 0 1 1.158 0zm-.813-1.833 4.24-2.076a1.297 1.05 0 0 1 1.159 0l5.028 2.315a.459.371 0 0 1 .272.32c.034.092-.025.192-.173.3l-4.339 2.016a1.154.934 0 0 1-.64.12 1.854 1.501 0 0 1-.617-.14l-4.807-2.256c-.231-.096-.345-.2-.345-.32s.04-.183.222-.28zm-1.578 1.318-4.215 1.996a1.385 1.122 0 0 1-.666.12 2.8 2.268 0 0 1-.715-.16l-10.323-4.795c-.212-.108-.32-.208-.32-.3a.404.327 0 0 1 .27-.32l4.29-2.035a1.242 1.006 0 0 1 1.306.04l10.354 4.83c.473.224.478.44.02.64zm-2.637 4.73-4.216 1.997a1.385 1.122 0 0 1-.665.12 4.679 3.79 0 0 1-.666-.12l-3.772-1.757a.06.048 0 0 0-.049 0l-10.324-4.815c-.212-.108-.32-.207-.32-.3a.405.328 0 0 1 .27-.319l4.29-2.036a1.242 1.006 0 0 1 1.307.04l3.771 1.757c1.91.891 3.825 1.79 5.744 2.695l.271.12 4.314 1.996c.498.224.503.44.045.639zm2.243.46 5.029 2.316a.459.371 0 0 1 .27.32c.035.091-.024.19-.172.299l-4.338 2.016a1.154.934 0 0 1-.641.12 1.854 1.501 0 0 1-.616-.14l-4.807-2.256c-.232-.096-.346-.2-.346-.32 0-.119.04-.199.222-.279l4.24-2.076a1.297 1.05 0 0 1 1.159.016zm9.367-3.054 4.24-2.077a1.297 1.05 0 0 1 1.159 0l5.029 2.316a.459.371 0 0 1 .271.32c.035.091-.025.191-.173.299l-4.338 1.996a1.154.934 0 0 1-.641.12 1.854 1.501 0 0 1-.616-.14l-4.807-2.255c-.232-.096-.345-.2-.345-.32s.064-.164.246-.243zm-.419 1.776a1.297 1.05 0 0 1 1.159 0l5.029 2.316a.459.371 0 0 1 .27.32c.035.091 0 .191-.172.299l-4.338 2.016a1.154.934 0 0 1-.641.12 1.854 1.501 0 0 1-.616-.14l-4.807-2.256c-.232-.095-.346-.2-.346-.319 0-.12.04-.2.222-.28zm-31.701-3.294 4.807 2.196a.493.4 0 0 1 .27.4.35.283 0 0 1-.196.24l-5.128 2.355c-.4.2-.905.2-1.306 0l-4.807-2.216c-.212-.12-.32-.236-.32-.34a.592.48 0 0 1 .221-.319l5.152-2.356a1.45 1.174 0 0 1 1.331.056zm7.346 3.394 4.807 2.196a.493.4 0 0 1 .271.4.35.283 0 0 1-.197.239l-5.128 2.356c-.4.2-.905.2-1.306 0l-4.807-2.216c-.212-.12-.32-.236-.32-.34a.592.48 0 0 1 .221-.319l5.152-2.356a1.45 1.174 0 0 1 1.332.056zm7.494 3.454 4.807 2.196a.493.4 0 0 1 .271.38.35.283 0 0 1-.197.239l-5.128 2.355c-.4.2-.905.2-1.306 0l-4.807-2.215c-.212-.12-.32-.236-.32-.34a.592.48 0 0 1 .221-.32l5.152-2.355a1.45 1.174 0 0 1 1.307.06zm.591 6.069a.592.48 0 0 1 .222-.32l5.152-2.355a1.45 1.174 0 0 1 1.307.06l6.631 3.014a.493.4 0 0 1 .271.38.35.283 0 0 1-.197.239l-5.127 2.356c-.401.2-.906.2-1.307 0l-6.631-3.035c-.212-.104-.32-.22-.32-.323zm19.228-3.813c-.034-.108.04-.2.222-.28l4.24-2.076a1.297 1.05 0 0 1 1.159 0l5.029 2.316a.459.371 0 0 1 .271.32c.034.091-.025.19-.173.299l-4.338 2.016a1.154.934 0 0 1-.641.12 1.854 1.501 0 0 1-.616-.14l-4.807-2.256c-.257-.08-.37-.18-.37-.303zm-4.51-1.078 5.028 2.316a.459.371 0 0 1 .271.319c.035.092-.024.192-.172.3l-4.339 2.016a1.154.934 0 0 1-.64.12 1.854 1.501 0 0 1-.617-.14l-4.807-2.256c-.232-.096-.345-.2-.345-.32s.04-.2.222-.279l4.24-2.076a1.297 1.05 0 0 1 1.134.02zm1.133 6.528 34.123 15.887c.28.12.419.26.419.42 0 .159-.109.203-.32.299l-4.685 2.236a1.78 1.441 0 0 1-1.8 0l-34.067-15.892c-.36-.2-.395-.399-.099-.618l4.98-2.316a1.48 1.198 0 0 1 1.425 0zm.592-.759c-.035-.108.04-.2.222-.28l4.24-2.075a1.297 1.05 0 0 1 1.158 0l5.03 2.315a.459.371 0 0 1 .27.32c.035.092-.024.191-.172.3l-4.339 2.016a1.154.934 0 0 1-.64.12 1.854 1.501 0 0 1-.617-.14l-4.807-2.256c-.256-.08-.37-.184-.37-.304zm59.015.759 4.61 2.176c.296.12.443.251.443.4a.434.351 0 0 1-.221.299l-1.825.838a1.681 1.362 0 0 1-.591.12 1.405 1.138 0 0 1-.715-.12l-4.782-2.236a.917.743 0 0 1-.395-.32.385.311 0 0 1 .222-.339l1.676-.738a1.602 1.298 0 0 1 .888-.2c.229.016.453.062.665.136zm-2.638-.619-1.824.838a1.681 1.362 0 0 1-.592.12 1.405 1.138 0 0 1-.714-.12l-4.758-2.255a.917.743 0 0 1-.395-.32.385.311 0 0 1 .222-.34l1.677-.738a1.602 1.298 0 0 1 .887-.2 2.184 1.769 0 0 1 .666.14l4.61 2.176c.295.12.443.252.443.4a.434.351 0 0 1-.246.315zm-7.74-3.593-1.8.838a1.188.962 0 0 1-.64.14 1.095.886 0 0 1-.716-.18l-4.782-2.296c-.246-.096-.37-.195-.37-.3 0-.107.074-.199.271-.279l1.726-.798a1.336 1.082 0 0 1 .838-.16 1.972 1.597 0 0 1 .592.12l4.831 2.216c.212.12.321.24.321.36a.459.371 0 0 1-.296.355zm-.986 9.223-4.339 2.016a1.154.934 0 0 1-.64.12 1.854 1.501 0 0 1-.617-.14l-4.807-2.256c-.232-.096-.345-.2-.345-.32 0-.119.04-.199.222-.279l4.24-2.076a1.297 1.05 0 0 1 1.158 0l5.03 2.316a.459.371 0 0 1 .27.32c.005.107-.049.207-.197.315zm2.243.519 5.029 2.316a.459.371 0 0 1 .271.319c.035.092-.025.192-.173.3l-4.338 1.996a1.154.934 0 0 1-.641.12 1.854 1.501 0 0 1-.616-.14l-4.807-2.256c-.232-.096-.345-.2-.345-.32s.039-.2.221-.279l4.24-2.076a1.297 1.05 0 0 1 1.134.036zm15.26-1.977a1.336 1.082 0 0 1 .837-.16 1.972 1.597 0 0 1 .592.12l4.832 2.216c.212.12.32.24.32.36a.459.371 0 0 1-.271.34l-1.8.838a1.188.962 0 0 1-.64.14 1.095.886 0 0 1-.716-.18l-4.782-2.296c-.246-.096-.37-.196-.37-.3 0-.107.074-.2.272-.28zm-7.89 5.39 5.03 2.316a.459.371 0 0 1 .27.32c.035.092-.024.191-.172.3l-4.338 2.016a1.154.934 0 0 1-.641.12 1.854 1.501 0 0 1-.617-.14l-4.807-2.256c-.231-.096-.345-.2-.345-.32s.04-.2.222-.28l4.24-2.075a1.297 1.05 0 0 1 1.09.016zm16.468-1.936a2.184 1.769 0 0 1 .665.14l4.61 2.176c.296.12.444.251.444.4a.434.351 0 0 1-.222.299l-1.824.838a1.681 1.362 0 0 1-.592.12 1.405 1.138 0 0 1-.715-.12l-4.757-2.256a.917.743 0 0 1-.395-.32.385.311 0 0 1 .222-.339l1.676-.738a1.602 1.298 0 0 1 .838-.184zm7.622 3.653a2.184 1.769 0 0 1 .666.14l4.61 2.176c.295.12.443.252.443.4a.434.351 0 0 1-.222.299l-1.824.838a1.681 1.362 0 0 1-.592.12 1.405 1.138 0 0 1-.715-.12l-4.738-2.255a.917.743 0 0 1-.394-.32.385.311 0 0 1 .222-.34l1.676-.738a1.602 1.298 0 0 1 .868-.2zm-52.926-24.914 4.61 2.156c.295.12.443.251.443.4a.434.351 0 0 1-.222.299l-1.824.838a1.681 1.362 0 0 1-.591.12 1.405 1.138 0 0 1-.715-.12l-4.758-2.256a.917.743 0 0 1-.394-.32.385.311 0 0 1 .221-.339l1.677-.738a1.602 1.298 0 0 1 .887-.2 2.184 1.769 0 0 1 .685.156zm-2.91-.719-1.799.839a1.188.962 0 0 1-.64.14 1.095.886 0 0 1-.716-.18l-4.782-2.296c-.246-.096-.37-.196-.37-.3 0-.107.074-.2.272-.28l1.725-.798a1.336 1.082 0 0 1 .838-.16 1.972 1.597 0 0 1 .592.12l4.832 2.216c.212.12.32.24.32.36a.459.371 0 0 1-.251.335zm9.073 4.412a1.602 1.298 0 0 1 .887-.2 2.184 1.769 0 0 1 .666.14l4.61 2.176c.295.12.443.252.443.4a.434.351 0 0 1-.222.299l-1.824.838a1.681 1.362 0 0 1-.592.12 1.405 1.138 0 0 1-.715-.12l-4.757-2.255a.917.743 0 0 1-.395-.32.385.311 0 0 1 .222-.34zm-16.468-8.265a.434.351 0 0 1-.221.3l-1.825.838a1.681 1.362 0 0 1-.591.12 1.405 1.138 0 0 1-.69-.12l-4.758-2.256a.917.743 0 0 1-.395-.32.385.311 0 0 1 .222-.339l1.677-.738a1.602 1.298 0 0 1 .887-.2 2.184 1.769 0 0 1 .666.14l4.61 2.176c.29.116.438.247.438.395zm-10.526 9.223 4.24-2.096a1.297 1.05 0 0 1 1.159 0l5.029 2.316a.459.371 0 0 1 .271.32c.035.091-.025.191-.173.299l-4.338 2.016a1.154.934 0 0 1-.641.12 1.854 1.501 0 0 1-.616-.14l-4.807-2.256c-.232-.096-.345-.2-.345-.32 0-.119.059-.183.241-.263zm12.77 1.378 5.029 2.316a.459.371 0 0 1 .27.319c.035.092 0 .192-.172.3l-4.338 1.996a1.154.934 0 0 1-.641.12 1.854 1.501 0 0 1-.617-.14l-4.807-2.256c-.231-.096-.345-.2-.345-.32s.04-.199.222-.279l4.24-2.076a1.297 1.05 0 0 1 1.178.016zm-4.492 8.904a1.854 1.501 0 0 1-.616-.14l-4.807-2.256c-.232-.096-.345-.2-.345-.32s.04-.2.222-.279l4.24-2.076a1.297 1.05 0 0 1 1.158 0l5.03 2.316a.459.371 0 0 1 .27.32c.035.09-.024.19-.172.299l-4.339 2.016a1.154.934 0 0 1-.64.12zm7.272-1.597 5.03 2.315a.459.371 0 0 1 .27.32c.035.092-.024.191-.172.3l-4.339 2.016a1.154.934 0 0 1-.64.12 1.854 1.501 0 0 1-.617-.14l-4.807-2.256c-.232-.096-.345-.2-.345-.32s.04-.2.222-.28l4.24-2.075a1.297 1.05 0 0 1 1.158.035zm-1.035-1.578c-.034-.107.04-.2.222-.28l4.24-2.075a1.297 1.05 0 0 1 1.159 0l5.028 2.315a.459.371 0 0 1 .272.32c.034.092-.025.192-.173.3l-4.339 2.016a1.154.934 0 0 1-.64.12 1.854 1.501 0 0 1-.617-.14l-4.807-2.256c-.232-.06-.345-.164-.345-.284zm-9.096 2.855 5.029 2.316a.459.371 0 0 1 .27.32c.035.091-.024.191-.172.299l-4.338 2.016a1.154.934 0 0 1-.641.12 1.854 1.501 0 0 1-.617-.14l-4.807-2.216c-.231-.096-.345-.2-.345-.32 0-.119.04-.199.222-.279l4.24-2.076a1.297 1.05 0 0 1 1.159-.004zm1.972 5.49 4.24-2.076a1.297 1.05 0 0 1 1.158 0l5.03 2.316a.459.371 0 0 1 .27.32c.035.091-.024.19-.172.299l-4.339 2.016a1.154.934 0 0 1-.64.12 1.854 1.501 0 0 1-.617-.14l-4.807-2.256c-.232-.096-.345-.2-.345-.32s.03-.163.197-.259zm9.91-.998c-.035-.108.039-.2.221-.28l4.24-2.076a1.297 1.05 0 0 1 1.16 0l5.028 2.316a.459.371 0 0 1 .271.32c.035.091 0 .191-.172.299l-4.339 2.016a1.154.934 0 0 1-.641.12 1.854 1.501 0 0 1-.616-.14l-4.807-2.256c-.257-.06-.37-.163-.37-.283zm-2.54 4.452 4.24-2.076a1.297 1.05 0 0 1 1.16 0l5.028 2.315a.459.371 0 0 1 .271.32c.035.092-.024.192-.172.3l-4.339 2.016a1.154.934 0 0 1-.64.12 1.854 1.501 0 0 1-.617-.14l-4.807-2.256c-.232-.096-.345-.2-.345-.32s.014-.163.197-.243zm7.396-8.584 4.24-2.077a1.297 1.05 0 0 1 1.159 0l5.028 2.316a.459.371 0 0 1 .272.32c.034.091-.025.191-.173.299l-4.339 2.016a1.154.934 0 0 1-.64.12 1.854 1.501 0 0 1-.617-.14l-4.807-2.256c-.232-.095-.345-.2-.345-.319 0-.12.054-.164.222-.244zm5.325 9.941 5.028 2.316a.459.371 0 0 1 .272.32c.034.091-.025.191-.173.3l-4.339 2.015a1.154.934 0 0 1-.64.12 1.854 1.501 0 0 1-.617-.14l-4.807-2.255c-.231-.096-.345-.2-.345-.32s.04-.2.222-.28l4.24-2.076a1.297 1.05 0 0 1 1.159 0zm-2.613-2.615 4.24-2.076a1.297 1.05 0 0 1 1.158 0l5.03 2.316a.459.371 0 0 1 .27.32c.035.091-.024.19-.172.299l-4.339 2.016a1.154.934 0 0 1-.64.12 1.854 1.501 0 0 1-.617-.14l-4.807-2.236c-.232-.096-.345-.2-.345-.32s.04-.203.222-.283zm12.744 1.338 5.03 2.316a.459.371 0 0 1 .27.319c.035.092-.024.192-.172.3l-4.339 2.016a1.154.934 0 0 1-.64.12 1.854 1.501 0 0 1-.617-.14l-4.802-2.24c-.232-.096-.345-.2-.345-.32s.04-.2.222-.28l4.24-2.075a1.297 1.05 0 0 1 1.153 0zm-2.662 4.751 5.029 2.316a.459.371 0 0 1 .271.32c.034.091-.025.19-.173.299l-4.338 2.016a1.154.934 0 0 1-.641.12 1.854 1.501 0 0 1-.616-.14l-4.807-2.256c-.232-.096-.346-.2-.346-.32 0-.119.04-.199.222-.279l4.24-2.076a1.297 1.05 0 0 1 1.159.016zm1.726 5.77c-.035-.108.039-.2.221-.28l4.24-2.076a1.297 1.05 0 0 1 1.159 0l5.029 2.316a.459.371 0 0 1 .271.32c.035.09-.025.19-.173.299l-4.338 2.016a1.154.934 0 0 1-.641.12 1.854 1.501 0 0 1-.616-.14l-4.807-2.236c-.242-.1-.345-.204-.345-.323zm-1.16.678a.35.283 0 0 1-.196.24l-5.128 2.356c-.4.2-.905.2-1.306 0l-6.631-3.035c-.212-.12-.32-.235-.32-.34a.592.48 0 0 1 .22-.319l5.153-2.355a1.45 1.174 0 0 1 1.307.06l6.63 3.014a.493.4 0 0 1 .272.395zm34.044-1.816-4.338 2.016a1.154.934 0 0 1-.641.12 1.854 1.501 0 0 1-.617-.14l-4.807-2.256c-.231-.096-.345-.2-.345-.32s.04-.199.222-.279l4.24-2.076a1.297 1.05 0 0 1 1.159 0l5.029 2.316a.459.371 0 0 1 .27.32c.035.107-.024.207-.172.315zm2.244.519 5.028 2.315a.459.371 0 0 1 .272.32c.034.092-.025.192-.173.3l-4.339 2.016a1.154.934 0 0 1-.64.12 1.854 1.501 0 0 1-.617-.14l-4.807-2.256c-.232-.096-.345-.2-.345-.32s.04-.2.222-.28l4.24-2.075a1.297 1.05 0 0 1 1.139.016zm4.24 1.038a.414.335 0 0 1 .221-.32l4.265-2.036a1.72 1.393 0 0 1 1.331.08l8.702 3.993a.493.4 0 0 1 .271.319.355.287 0 0 1-.222.3l-4.313 1.996a1.154.934 0 0 1-.543.14 1.237 1.002 0 0 1-.789-.14l-8.652-4.013a.493.4 0 0 1-.271-.303zm-13.83-4.971-4.338 1.996a1.154.934 0 0 1-.641.12 1.854 1.501 0 0 1-.617-.14l-4.807-2.256c-.231-.095-.345-.2-.345-.319 0-.12.04-.2.222-.28l4.24-2.076a1.297 1.05 0 0 1 1.159 0l5.029 2.316a.459.371 0 0 1 .27.32c.03.127-.024.227-.172.335zM218 148.286l5.03 2.316a.459.371 0 0 1 .27.32c.035.09-.024.19-.172.299l-4.339 2.016a1.154.934 0 0 1-.64.12 1.854 1.501 0 0 1-.617-.14l-4.802-2.24c-.232-.096-.345-.2-.345-.32s.04-.2.222-.279l4.24-2.076a1.297 1.05 0 0 1 1.153 0zm7.494 3.474 10.453 4.85c.147.075.247.2.27.34a.38.307 0 0 1-.221.28l-4.314 2.036a1.917 1.917 0 0 1-1.331-.04l-10.403-4.831a.572.463 0 0 1-.271-.32.39.315 0 0 1 .172-.3l4.314-2.035a1.366 1.106 0 0 1 1.331.035zm-.295 5.869 4.314 1.996c.493.224.493.44 0 .64l-4.216 1.995a1.385 1.122 0 0 1-.665.12 4.679 3.79 0 0 1-.666-.12l-3.772-1.756a.06.048 0 0 0-.049 0l-10.304-4.812c-.212-.107-.32-.207-.32-.3a.405.328 0 0 1 .27-.318l4.29-2.037a1.242 1.006 0 0 1 1.306.04l3.772 1.757c1.91.892 3.824 1.79 5.744 2.695zm6.759-4.276 4.24-2.077a1.297 1.05 0 0 1 1.159 0l5.028 2.316a.459.371 0 0 1 .272.32c.034.091-.025.191-.173.3l-4.339 1.995a1.154.934 0 0 1-.64.12 1.854 1.501 0 0 1-.617-.14l-4.807-2.255c-.232-.096-.345-.2-.345-.32s.035-.18.222-.26zm-23.37-9.283c.035.091 0 .191-.172.299l-4.339 2.016a1.154.934 0 0 1-.64.12 1.854 1.501 0 0 1-.617-.14l-4.807-2.255c-.232-.096-.345-.2-.345-.32s.04-.2.222-.28l4.24-2.076a1.297 1.05 0 0 1 1.159 0l5.028 2.316a.459.371 0 0 1 .267.32zm2.047.778 5.028 2.316a.459.371 0 0 1 .272.32c.034.091-.025.191-.173.299l-4.339 2.016a1.154.934 0 0 1-.64.12 1.854 1.501 0 0 1-.617-.14l-4.831-2.256c-.232-.096-.346-.2-.346-.32 0-.119.04-.199.222-.279l4.24-2.076a1.297 1.05 0 0 1 1.179 0zm-8.16 6.808 4.24-2.076a1.297 1.05 0 0 1 1.159 0l5.029 2.315a.459.371 0 0 1 .27.32c.035.092-.024.191-.172.3l-4.338 1.996a1.154.934 0 0 1-.641.12 1.854 1.501 0 0 1-.617-.14l-4.807-2.256c-.231-.096-.345-.2-.345-.32s.035-.18.217-.26zm-2.268 3.473 4.807 2.216a.485.485 0 0 1 .222.3.493.4 0 0 1-.222.36l-1.725.758a1.385 1.122 0 0 1-.666.14 1.706 1.381 0 0 1-.715-.14l-4.708-2.256c-.232-.096-.345-.2-.345-.32a.493.4 0 0 1 .221-.319l1.775-.759a1.37 1.11 0 0 1 1.351.02zm10.699 1.897 4.807 2.196a.493.4 0 0 1 .27.4.35.283 0 0 1-.196.239l-5.128 2.355c-.4.2-.905.2-1.306 0l-4.812-2.231c-.212-.12-.32-.236-.32-.34a.592.48 0 0 1 .221-.32l5.152-2.355a1.45 1.174 0 0 1 1.307.056zm.937 5.71 1.774-.76a1.37 1.11 0 0 1 1.356.02l4.807 2.217a.48.48 0 0 1 .222.3.493.4 0 0 1-.222.359l-1.725.758a1.385 1.122 0 0 1-.666.14 1.706 1.381 0 0 1-.715-.14l-4.708-2.256c-.232-.095-.345-.2-.345-.319a.493.4 0 0 1 .217-.32zm41.216-13.656a.434.351 0 0 1-.221.3l-1.825.838a1.681 1.362 0 0 1-.591.12 1.405 1.138 0 0 1-.715-.12l-4.758-2.256a.917.743 0 0 1-.394-.319.385.311 0 0 1 .222-.34l1.676-.738a1.602 1.298 0 0 1 .887-.2 2.184 1.769 0 0 1 .666.14l4.61 2.176c.29.124.438.252.438.4zm-16.27-5.09c0-.108.075-.2.272-.28l1.725-.798a1.336 1.082 0 0 1 .838-.16 1.972 1.597 0 0 1 .592.12l4.832 2.216c.212.12.32.24.32.36a.459.371 0 0 1-.27.338l-1.8.839a1.188.962 0 0 1-.641.14 1.095.886 0 0 1-.715-.18l-4.783-2.296c-.25-.096-.374-.195-.374-.3zm-87.492-39.169-4.338 1.996a1.154.934 0 0 1-.641.12 1.854 1.501 0 0 1-.616-.14l-4.807-2.255c-.232-.096-.346-.2-.346-.32s.04-.2.222-.28l4.24-2.075a1.297 1.05 0 0 1 1.159 0l5.029 2.315a.459.371 0 0 1 .27.32c.035.112-.024.211-.172.32zm1.134.52a1.297 1.05 0 0 1 1.159 0l5.029 2.315a.459.371 0 0 1 .27.32c.035.091-.024.191-.172.299l-4.338 1.996a1.154.934 0 0 1-.641.12 1.854 1.501 0 0 1-.616-.14l-4.807-2.256c-.232-.095-.346-.2-.346-.32 0-.119.04-.199.222-.279zm2.884 5.769c-.034-.108.04-.2.222-.28l4.24-2.076a1.297 1.05 0 0 1 1.159 0l5.029 2.316a.459.371 0 0 1 .271.32c.035.091 0 .19-.173.299l-4.338 2.016a1.154.934 0 0 1-.641.12 1.854 1.501 0 0 1-.616-.14l-4.807-2.256c-.232-.096-.346-.2-.346-.32zm49.82 18.286 5.03 2.316a.459.371 0 0 1 .27.32c.035.091-.024.191-.172.299l-4.338 2.016a1.154.934 0 0 1-.641.12 1.854 1.501 0 0 1-.617-.14l-4.807-2.256c-.231-.095-.345-.2-.345-.319 0-.12.04-.2.222-.28l4.24-2.076a1.297 1.05 0 0 1 1.159 0zm-2.045-.778c.034.092-.025.191-.173.3l-4.339 2.016a1.154.934 0 0 1-.64.12 1.854 1.501 0 0 1-.617-.14l-4.807-2.256c-.231-.096-.345-.2-.345-.32s.04-.2.222-.28l4.24-2.075a1.297 1.05 0 0 1 1.159 0l5.028 2.315a.459.371 0 0 1 .272.32zm4.116 6.328 4.24-2.076a1.297 1.05 0 0 1 1.159 0l5.029 2.316a.459.371 0 0 1 .271.32c.035.091-.025.19-.173.299l-4.338 2.016a1.154.934 0 0 1-.641.12 1.854 1.501 0 0 1-.616-.14l-4.802-2.256c-.232-.096-.346-.2-.346-.32s.035-.199.217-.279zm7.125 3.693c-.035-.107.039-.2.221-.279l4.24-2.076a1.297 1.05 0 0 1 1.16 0l5.028 2.316a.459.371 0 0 1 .271.319c.035.092 0 .192-.172.3l-4.34 2.016a1.154.934 0 0 1-.64.12 1.854 1.501 0 0 1-.616-.14l-4.807-2.256c-.232-.096-.345-.2-.345-.32zm-31.258-19.524 5.029 2.316a.459.371 0 0 1 .27.32c.035.091-.024.19-.172.299l-4.338 2.016a1.154.934 0 0 1-.641.12 1.854 1.501 0 0 1-.617-.14l-4.807-2.256c-.231-.096-.345-.2-.345-.32 0-.119.04-.199.222-.279l4.24-2.076a1.297 1.05 0 0 1 1.159 0zm-2.293-.559-4.338 1.996a1.154.934 0 0 1-.641.12 1.854 1.501 0 0 1-.617-.14l-4.826-2.235c-.232-.096-.345-.2-.345-.32s.039-.2.221-.28l4.24-2.076a1.297 1.05 0 0 1 1.16 0l5.028 2.316a.459.371 0 0 1 .271.32c.054.091-.005.203-.153.3zm-17.872-4.272 4.24-2.076a1.297 1.05 0 0 1 1.159 0l5.029 2.315a.459.371 0 0 1 .27.32c.035.092 0 .192-.172.3l-4.338 2.016a1.154.934 0 0 1-.641.12 1.854 1.501 0 0 1-.617-.14l-4.807-2.272c-.231-.096-.345-.2-.345-.32s.04-.183.222-.263zm27.51 8.245 5.03 2.316a.459.371 0 0 1 .27.319c.035.092-.024.192-.172.3l-4.338 1.996a1.154.934 0 0 1-.641.12 1.854 1.501 0 0 1-.616-.14l-4.803-2.236c-.231-.096-.345-.2-.345-.32s.04-.2.222-.279l4.24-2.076a1.297 1.05 0 0 1 1.154 0zm44.25 20.622 5.029 2.316a.459.371 0 0 1 .27.32c.035.091-.024.191-.172.299l-4.338 2.016a1.154.934 0 0 1-.641.12 1.854 1.501 0 0 1-.616-.14l-4.807-2.256c-.232-.095-.346-.2-.346-.319 0-.12.04-.2.222-.28l4.24-2.076a1.297 1.05 0 0 1 1.159 0zm-2.046-.778c.034.091-.025.191-.173.3l-4.338 2.015a1.154.934 0 0 1-.641.12 1.854 1.501 0 0 1-.617-.14l-4.807-2.251c-.231-.096-.345-.2-.345-.32s.04-.2.222-.28l4.24-2.076a1.297 1.05 0 0 1 1.159 0l5.029 2.316a.459.371 0 0 1 .27.316zm-35.966 12.916-4.807-2.216c-.212-.12-.32-.235-.32-.34a.592.48 0 0 1 .221-.319l5.152-2.355a1.45 1.174 0 0 1 1.307.06l4.807 2.196a.493.4 0 0 1 .27.379.35.283 0 0 1-.196.24l-5.128 2.355c-.4.2-.906.2-1.306 0z"/><path fill="#2d364c" d="M164.803 42.291v-2.954l76.222 35.635v2.954L174.49 46.823Zm0 31.622 9.688 4.552v14.043l-9.688-4.532zm9.688-11.2v7.727l-9.688-4.532V58.17Zm-9.688 3.335 9.688 4.532v7.745l-9.688-4.551zm9.688-3.474-9.688-4.532v-7.726l9.688 4.532zM169.536 71a.177.144 0 0 0-.123 0 .148.12 0 0 0-.025.08.493.4 0 0 0 .025.12.237.192 0 0 0 .123.08.084.068 0 0 0 .099 0c.034 0 .049-.04.049-.08a.251.204 0 0 0-.05-.12.636.515 0 0 0-.098-.08z"/><path fill="#252f46" d="m174.49 78.465-9.687-4.552v-.14l9.688 4.552zm-9.687-12.417v-.14l9.688 4.532v.14zm9.688-3.334-9.688-4.544v-.14l9.688 4.532zm-9.688-12.378v-8.045l9.688 4.532v8.025z"/><path fill="#333c54" d="M241.025 77.926v37.252L174.49 84.075V46.823z"/><path fill="#59627b" d="M174.49 92.52v-8.445l66.535 31.103v8.425z"/><path fill="#0cb754" d="M166.307 81c0-.092.049-.112.148-.06l6.458 3.015a.31.252 0 0 1 .148.22v2.595c0 .093-.05.113-.148.06l-6.458-3.015a.31.252 0 0 1-.148-.22z"/><path fill="#fff" d="m172.617 75.111-5.867-2.735v-.579l5.867 2.735zm0-7.805-5.867-2.735v-.56l5.867 2.736zm-5.867-11.18 5.867 2.735v.579l-5.867-2.735zm0-7.786 5.867 2.735v.56l-5.867-2.736z"/><path fill="#252f46" d="M195.247 80.929a.34.275 0 0 1 .296.04l24.43 11.419a.72.72 0 0 1 .295.24.59.59 0 0 1 .124.339.286.232 0 0 1-.124.22.34.275 0 0 1-.296-.04l-24.429-11.42a.848.687 0 0 1-.296-.24.897.727 0 0 1-.123-.339.296.24 0 0 1 .123-.22z"/><path fill="#1adafc" d="M195.543 81.4v-.072a.104.084 0 0 1 .05-.08.113.092 0 0 1 .098 0l15.432 7.207a.64.52 0 0 1 .098.1.39.315 0 0 1 .025.12v.08c0 .04 0 .067-.025.08a.084.068 0 0 1-.098-.02l-15.432-7.188a.306.248 0 0 1-.099-.08.296.24 0 0 1-.049-.147z"/><path fill="#0cb754" d="M200.079 91.002v-3.174c0-.108.06-.132.172-.08l15.013 7.007a.37.3 0 0 1 .173.26v3.174c0 .12-.055.148-.173.08l-15.013-7.007a.34.275 0 0 1-.172-.26z"/><path fill="#fff" d="m202.396 86.41 10.748 5.032v.578l-10.748-5.03zm-4.215-9.682 19.154 8.944v.559l-19.154-8.944zm-30.37 9.822 3.746 1.757v.56l-3.747-1.758z"/><path fill="#ff7800" d="M166.307 41.832a.113.092 0 0 1 .074-.1h.049a.079.064 0 0 0 .099-.02c.034 0 .069 0 .098-.06a.237.192 0 0 0 .099-.1.764.619 0 0 0 .025-.18.952.77 0 0 0-.05-.199.242.196 0 0 1 0-.08.375.303 0 0 1 .05-.06.182.148 0 0 0 .073-.02l.074.04a.202.164 0 0 1 .05.08.986.799 0 0 0 .074.08c.049.053.107.1.172.14.133.068.237.072.32.02.084-.052.04 0 .075-.04a.094.076 0 0 1 .049-.02.163.132 0 0 1 .148 0l.172.1c.047.05.088.104.124.16a.29.29 0 0 1 .049.16.173.14 0 0 1-.025.139.094.076 0 0 1-.098.06.853.69 0 0 0-.148.04.41.331 0 0 0-.05.24.786.786 0 0 0 .124.259.38.307 0 0 1 .074.08.64.52 0 0 1 .098.1c.062.084.096.18.099.279a.3.244 0 0 1-.074.18.197.16 0 0 1-.247 0 2.5 2.024 0 0 1-.246-.18l-.05-.1a.542.44 0 0 0-.074-.08 2.958 2.396 0 0 0-.32-.32l-.247-.159a1.016.823 0 0 0-.27-.08h-.075a.32.26 0 0 1-.098-.06c-.05 0-.09-.051-.124-.12a.493.4 0 0 1-.074-.179z"/><path fill="#fff" d="m168.87 42.351 7.347 3.454v.559l-7.347-3.454zm33.526 47.853 10.748 5.03v.58l-10.748-5.031z"/><path fill="#8a94af" d="M238.86 74.94a.123.1 0 0 1 0-.12s.04 0 .074.04c.035.04.035 0 .05.02l.468.659.468-.2c0-.028 0-.032.05 0l.049.04a.182.148 0 0 1 .025.08c0 .028 0 .04-.025.04l-.444.22.444.638a.182.148 0 0 1 .025.08h-.025c-.025 0-.03.028-.05 0-.02-.028-.049 0-.049 0l-.468-.659-.469.2a.094.076 0 0 0-.049.02.429.347 0 0 1-.074-.08.079.064 0 0 1-.024-.04.104.084 0 0 1 .024-.06l.469-.22z"/><path fill="#0cb754" d="M169.93 47.442h.05a.138.112 0 0 1 .074.06v.1l-.617.279a.094.076 0 0 1-.049 0s-.03 0-.05-.04l-.295-.4a.104.084 0 0 1-.025-.06.079.064 0 0 1 .025-.04h.05a.177.144 0 0 1 .049.06l.246.34zm-1.207-1.018v1.058a2.505 2.028 0 0 0 .813 1.158c.493.051.789-.08.838-.4v-1.078a5.916 4.791 0 0 0-.838-.479 2.559 2.072 0 0 0-.813-.26zm-.148-.18h.049a3.116 2.523 0 0 1 .912.3 5.492 4.448 0 0 1 .937.558.079.064 0 0 1 0 .04.084.068 0 0 1 .024.06v1.118c-.034.4-.35.547-.96.48 0 0-.03 0-.05-.04a2.958 2.396 0 0 1-.962-1.338v-1.138a.079.064 0 0 1 .05-.04z"/><path fill="#8a94af" d="M169.462 55.707c0-.028 0-.04.025-.04a.035.028 0 0 1 .05 0 .463.375 0 0 1 .048.04.182.148 0 0 1 .025.08v.399h-.025c-.024 0-.03.032-.049.02a.237.192 0 0 1-.05-.06.247.2 0 0 1-.024-.06zm.074-1.258a.34.275 0 0 0-.37-.02.296.24 0 0 0-.148.24v.339l1.036.48v-.24l.024-.1a.986.799 0 0 0-.172-.36.947.767 0 0 0-.37-.339zm-.74.579c-.049 0-.073.02-.073.06v.918a.094.076 0 0 0 .074.08l1.503.699c.05.028.074 0 .074 0v-.919a.168.136 0 0 0-.074-.12zm.074-.4v-.051a.414.335 0 0 1 .198-.28.39.315 0 0 1 .468 0c.212.088.384.228.493.4a.952.952 0 0 1 .197.479v.359h.074a.493.4 0 0 1 .222.34v.918c0 .131-.074.16-.222.08l-1.503-.7a.4.323 0 0 1-.247-.299v-.918c0-.148.084-.188.247-.12l.073.04zm-.468 7.934a.069.056 0 0 1 .05 0c.034 0 .049 0 .049.06a.079.064 0 0 1 0 .04 1.45 1.174 0 0 0 .074.639.03.024 0 0 1 0 .04c0 .028 0 .032-.025 0s-.04 0-.074 0a.247.2 0 0 1-.025-.06 1.706 1.381 0 0 1-.098-.719zm.764 1.597c.084-.108.173-.14.271-.1a1.085.878 0 0 1 .395.32v.12a.094.076 0 0 1-.05 0 .079.064 0 0 1-.073-.04.779.63 0 0 0-.247-.24c-.064 0-.123 0-.172.08-.05.08-.035.032-.05 0a.069.056 0 0 0-.049 0 .177.144 0 0 0-.05-.06.104.084 0 0 1 .025-.08zm.148-1.098a.133.108 0 0 1 .197 0 .493.4 0 0 1 .222.16.51.51 0 0 0 .099.14.493.4 0 0 1 .025.1c.098.289.266.56.493.798a.177.144 0 0 1 .049.06v.04h-.05a.05.04 0 0 1-.073 0 3.412 2.763 0 0 1-.592-.859.158.128 0 0 0-.025-.06l-.049-.1a.237.192 0 0 0-.099-.08h-.024a.06.048 0 0 0-.099 0c-.034 0-.04.049-.025.1a.83.83 0 0 0 .148.34c.099.16.316.447.641.859a.375.303 0 0 0 .05.06c0 .027 0 .04-.025.04h-.05l-.049-.04a9.767 7.91 0 0 1-.69-.899 1.592 1.29 0 0 1-.173-.4c0-.107 0-.17.05-.199zm.222-.12c-.128-.067-.227-.071-.296 0a.385.311 0 0 0-.148.28c0 .047.008.094.025.14 0 .04.034.088.05.14.098.37 0 .558-.297.558h-.049l-.05-.04v-.06c.233 0 .316-.16.247-.439a2.327 1.885 0 0 1-.074-.18 1.321 1.07 0 0 1-.024-.179.493.4 0 0 1 .172-.34.36.291 0 0 1 .42 0c.17.088.307.212.394.36a.493.4 0 0 1 .074.14.787.787 0 0 1 .05.08 1.356 1.098 0 0 0 .443.599l.05.04c.019.026.019.046 0 .06 0 .027 0 .04-.026.04a.079.064 0 0 1-.049 0 1.612 1.306 0 0 1-.542-.72.104.084 0 0 1-.025-.06h-.025v-.02a.582.471 0 0 0-.049-.1.784.635 0 0 0-.271-.279zm-.025-.299c-.197-.108-.36-.128-.493-.06a.547.443 0 0 0-.222.4c.001.086.01.173.025.259 0 .04.035.08.05.12.068.211-.025.307-.272.28a.084.068 0 0 1-.074-.04.07.07 0 0 1 0-.06c.01-.02 0-.033.05 0 .148 0 .207-.04.172-.16a1.218.986 0 0 0-.05-.14 3.402 2.755 0 0 1-.024-.3.67.543 0 0 1 .247-.479.577.467 0 0 1 .616.06 1.696 1.373 0 0 1 .641.52c.047.063.088.13.123.199a.366.366 0 0 0 .025.08c.097.17.24.32.419.439a.104.084 0 0 1 0 .06.158.128 0 0 1 .025.06h-.05a.094.076 0 0 1-.049 0 1.893 1.533 0 0 1-.493-.54.202.164 0 0 0-.05-.08.493.4 0 0 0-.073-.139 1.395 1.13 0 0 0-.543-.467zm.838.4h.074a.177.144 0 0 1 .05.06l.172.319a.06.048 0 0 1 .025.04.084.068 0 0 1-.025.06s-.04 0-.074-.04l-.049-.04-.173-.3a.242.196 0 0 1-.024-.08zm-.123-.26a.237.192 0 0 0 .05.06.158.128 0 0 1-.025.06.094.076 0 0 1-.05 0s-.03 0-.049-.04a2.056 1.665 0 0 0-.64-.5.69.559 0 0 0-.716-.06.582.471 0 0 0-.197.16h-.025a.32.26 0 0 1-.074-.04.104.084 0 0 1-.024-.06.035.028 0 0 1 0-.04.542.44 0 0 1 .197-.18.818.663 0 0 1 .838.06 2.11 1.709 0 0 1 .715.572zm.173 7.957a2.396 1.94 0 0 1 .345.959.858.695 0 0 1-.345.638.843.683 0 0 1-.863-.08 2.662 2.156 0 0 1-.863-.718 2.465 1.996 0 0 1-.345-.958.873.707 0 0 1 .345-.64.799.647 0 0 1 .863.06 2.574 2.084 0 0 1 .863.74zm.197.899a2.09 1.693 0 0 0-.32-.859 1.918 1.553 0 0 0-.74-.639.735.595 0 0 0-.74-.06.71.575 0 0 0-.32.56 2.051 1.661 0 0 0 .32.838 1.918 1.553 0 0 0 .74.639.735.595 0 0 0 .74.06.685.555 0 0 0 .32-.54zm-1.06-1.098a.4.323 0 0 0-.444 0 .414.335 0 0 0-.172.319 1.48 1.198 0 0 0 .172.52s.025 0 .025.02a.247.2 0 0 1 0 .059v.04h-.05a.084.068 0 0 1-.073-.04.079.064 0 0 0 0-.04 1.553 1.258 0 0 1-.222-.619.577.467 0 0 1 .222-.42.493.4 0 0 1 .542.04c.212.105.39.248.518.42l.024-.04h.074l.05.04a.182.148 0 0 1 .024.08s0 .02-.024.02l-.05.04c.115.164.174.35.173.539a.577.467 0 0 1-.222.42h-.099l-.049-.04a.247.2 0 0 1-.025-.06c0-.029 0-.04.025-.04s.025 0 .025-.02a.394.32 0 0 0 .197-.32 1.114.902 0 0 0-.123-.4l-.32.12a.454.367 0 0 1 0 .1.197.16 0 0 1-.05.12h-.025a.177.144 0 0 1-.147-.02l-.1-.04-.073.02h-.05a.375.303 0 0 1-.049-.06.104.084 0 0 1 0-.06.079.064 0 0 1 0-.04l.074-.02a.306.248 0 0 1-.024-.1.256.208 0 0 1 .049-.14.173.14 0 0 1 .148.02.271.22 0 0 1 .098.06l.296-.119a1.114.902 0 0 0-.345-.351z"/><path fill="#0cb754" d="M209.422 72.336a.493.4 0 0 1 0 .12c0 .04 0 .068-.05.08l-1.898.878a.079.064 0 0 1-.098-.02.153.124 0 0 1-.099-.08l-.961-1.317a.296.24 0 0 1-.05-.12.104.084 0 0 1 .05-.08.113.092 0 0 1 .098 0 .39.39 0 0 1 .124.1l.838 1.198 1.8-.838a.113.092 0 0 1 .098 0 .42.34 0 0 1 .148.08zm1.084-1.058c-.493-.371-.946-.686-1.306-.938a8.135 6.588 0 0 0-1.405-.779 6.33 5.127 0 0 0-1.405-.499 39.48 39.48 0 0 0-1.307-.26v3.295c.132 1.147 1.035 2.418 2.712 3.813 1.696.16 2.6-.28 2.711-1.318zm.198-.14a.143.116 0 0 1 .074.08.242.196 0 0 1 0 .08v3.474c-.112 1.145-1.098 1.624-2.959 1.437-.03 0-.064-.02-.098-.06-1.854-1.517-2.84-2.908-2.958-4.172v-3.426a.104.084 0 0 1 .024-.06.242.196 0 0 1 .099 0 19.5 19.5 0 0 1 1.405.28 6.7 5.426 0 0 1 1.48.519 9.111 7.379 0 0 1 1.478.798 19.016 15.4 0 0 1 1.455 1.05z"/><path fill="url(#c)" d="M436 81.621c-83.027 0-169.071-76.961-169.923-77.732-5.719-5.185-14.436-5.185-20.154 0-.857.777-86.675 77.732-169.923 77.732-8.284 0-15 6.716-15 15v179.638c0 145.524 108.236 203.674 189.65 234.755a14.99 14.99 0 0 0 10.7 0C375.504 467.434 451 399.455 451 276.259V96.621c0-8.284-6.716-15-15-15z" transform="translate(50.991 86.758) scale(.2388)"/><path fill="url(#d)" d="M256 151c-57.897 0-105 47.103-105 105s47.103 105 105 105 105-47.103 105-105-47.103-105-105-105zm40.606 100.606-45 45A14.95 14.95 0 0 1 241 301a14.946 14.946 0 0 1-10.606-4.394l-15-15c-5.858-5.858-5.858-15.355 0-21.213 5.857-5.858 15.355-5.858 21.213 0l4.394 4.393 34.394-34.393c5.857-5.858 15.355-5.858 21.213 0 5.857 5.858 5.857 15.355-.002 21.213z" transform="translate(50.991 86.758) scale(.2388)"/><path fill="#fccc8b" d="m191.664 171.615-34.116-19.703c-5.881-3.396-13.404-1.387-16.804 4.5-3.391 5.874-1.373 13.412 4.5 16.804l34.116 19.702c5.882 3.396 13.404 1.387 16.804-4.5 3.392-5.874 1.373-13.412-4.5-16.803z"/><path fill="#ffa76d" d="M196.164 188.417c-3.4 5.889-10.923 7.898-16.803 4.5l-17.058-9.85 12.302-21.303 17.059 9.85c5.872 3.392 7.892 10.93 4.5 16.803z"/><path fill="#ffdeae" d="M184.457 144.705c-5.874-3.391-13.412-1.373-16.803 4.5l-19.703 34.116c-3.4 5.888-1.387 13.404 4.5 16.804 5.873 3.391 13.411 1.374 16.804-4.5l19.702-34.116c3.4-5.887 1.388-13.404-4.5-16.804z"/><path fill="#ff6d66" d="m154.309 178.452 12.3-21.3 15.98 9.227-12.301 21.3z"/><circle cx="118.12" cy="203.606" r="1.537" fill="#f3f4ff" transform="rotate(-15)"/><circle cx="124.632" cy="210.119" r="1.537" fill="#e3e8ff" transform="rotate(-15)"/><circle cx="111.586" cy="210.13" r="1.537" fill="#f3f4ff" transform="rotate(-15)"/><circle cx="118.116" cy="216.642" r="1.537" fill="#d2dbff" transform="rotate(-15)"/><circle cx="118.059" cy="210.128" r="1.537" fill="#f3f4ff" transform="rotate(-15)"/><path fill="#d2dbff" d="M169.736 173.197a1.538 1.538 0 0 1-2.068.58l1.537-2.66c.71.432.949 1.356.53 2.08z"/></svg>