<?xml version="1.0" encoding="UTF-8" standalone="no"?>
<svg
   xmlns:dc="http://purl.org/dc/elements/1.1/"
   xmlns:cc="http://creativecommons.org/ns#"
   xmlns:rdf="http://www.w3.org/1999/02/22-rdf-syntax-ns#"
   xmlns:svg="http://www.w3.org/2000/svg"
   xmlns="http://www.w3.org/2000/svg"
   xmlns:xlink="http://www.w3.org/1999/xlink"
   xmlns:sodipodi="http://sodipodi.sourceforge.net/DTD/sodipodi-0.dtd"
   xmlns:inkscape="http://www.inkscape.org/namespaces/inkscape"
   viewBox="0 0 324 234"
   version="1.1"
   id="svg55"
   sodipodi:docname="deepines-megasync-fix.svg"
   inkscape:version="1.0.2 (1.0.2+r75+1)">
  <metadata
     id="metadata59">
    <rdf:RDF>
      <cc:Work
         rdf:about="">
        <dc:format>image/svg+xml</dc:format>
        <dc:type
           rdf:resource="http://purl.org/dc/dcmitype/StillImage" />
      </cc:Work>
    </rdf:RDF>
  </metadata>
  <sodipodi:namedview
     pagecolor="#505050"
     bordercolor="#ffffff"
     borderopacity="1"
     objecttolerance="10"
     gridtolerance="10"
     guidetolerance="10"
     inkscape:pageopacity="0"
     inkscape:pageshadow="2"
     inkscape:window-width="1920"
     inkscape:window-height="980"
     id="namedview57"
     showgrid="false"
     inkscape:zoom="0.86858974"
     inkscape:cx="-60.821427"
     inkscape:cy="203.22482"
     inkscape:window-x="0"
     inkscape:window-y="0"
     inkscape:window-maximized="1"
     inkscape:current-layer="g53" />
  <defs
     id="defs16">
    <linearGradient
       xlink:href="#a"
       id="d"
       x1="0"
       x2="0"
       y1="297"
       y2="235"
       gradientTransform="matrix(2.33842 0 0 2.3235 -73.1 -634.44)"
       gradientUnits="userSpaceOnUse" />
    <linearGradient
       xlink:href="#a"
       id="e"
       x1="0"
       x2="0"
       y1="297"
       y2="235"
       gradientTransform="matrix(2.95436 0 0 2.93552 2.98 -732.16)"
       gradientUnits="userSpaceOnUse" />
    <linearGradient
       xlink:href="#a"
       id="g"
       x1="0"
       x2="0"
       y1="297"
       y2="235"
       gradientTransform="matrix(1.17384 0 0 1.16635 27.25 -330.46)"
       gradientUnits="userSpaceOnUse" />
    <linearGradient
       xlink:href="#a"
       id="h"
       x1="0"
       x2="0"
       y1="297"
       y2="235"
       gradientTransform="matrix(1.6212 0 0 1.61087 191.18 -365.54)"
       gradientUnits="userSpaceOnUse" />
    <linearGradient
       xlink:href="#a"
       id="i"
       x1="0"
       x2="0"
       y1="297"
       y2="235"
       gradientTransform="matrix(1.4896 0 0 1.4801 -21.59 -232.25)"
       gradientUnits="userSpaceOnUse" />
    <linearGradient
       xlink:href="#b"
       id="c"
       x1="324"
       x2="0"
       y1="234"
       y2="0"
       gradientTransform="translate(-65.5 -21.37)"
       gradientUnits="userSpaceOnUse" />
    <linearGradient
       id="b">
      <stop
         offset="0"
         stop-color="#fafafa"
         id="stop8" />
      <stop
         offset="1"
         stop-color="#f2f2f2"
         id="stop10"
         style="stop-color:#bebebe;stop-opacity:1" />
    </linearGradient>
    <filter
       id="f"
       width="1.25"
       height="1.34"
       x="-.13"
       y="-.17"
       color-interpolation-filters="sRGB">
      <feGaussianBlur
         stdDeviation="1.83"
         id="feGaussianBlur13" />
    </filter>
  </defs>
  <defs
     id="defs23">
    <linearGradient
       id="a">
      <stop
         offset="0"
         stop-color="#c1000e"
         id="stop18" />
      <stop
         offset="1"
         stop-color="#ff2031"
         id="stop20" />
    </linearGradient>
  </defs>
  <g
     transform="translate(65.5 21.37)"
     id="g53">
    <rect
       width="324"
       height="234"
       x="-65.510002"
       y="-21.370001"
       fill="url(#c)"
       rx="0"
       ry="0"
       id="rect25" />
    <path
       fill="#420005"
       d="M114.93 7.2 95.02 30.92 91.5 16.96l-25.4-5.04-13.5 16.15-.1-.48-25.4-5.04-22.57 26.9L-18 76.36l5.07 20.2 18.86 3.76-5.3 6.31-22.52 26.9 5.06 20.2 25.44 5.07 22.53-26.93 4.8-5.7 4.46.9-4.16 4.99 5.06 20.2 12.55 2.52-7.25 8.64 5.1 20.2 25.4 5.03 22.53-26.89 4.46-5.33 6.95 1.4 22.53-26.9L156.13 104l-4.68-18.63 17.27-20.65-5.14-20.17-24.27-4.8 6.09-7.3-5.07-20.2z"
       id="path27"
       style="fill:#683337;fill-opacity:1" />
    <path
       fill="#450409"
       d="M-15.32-13.17-33.16 8.16l-17.87 21.3 4 16 20.11 3.97 17.84-21.29L8.76 6.84l-4-16Z"
       id="path29"
       style="fill:#683337;fill-opacity:1" />
    <path
       fill="url(#d)"
       d="M-17.32-15.17-35.16 6.16l-17.87 21.3 4 16 20.11 3.97 17.84-21.29L6.76 4.84l-4-16Z"
       id="path31" />
    <path
       fill="#450409"
       d="M57.26-17.57 48.3-6.9 39.34 3.8l2 8.04 10.1 2 8.95-10.68 8.96-10.7-2-8.07z"
       id="path33"
       style="fill:#683337;fill-opacity:1" />
    <path
       fill="url(#e)"
       d="M112.63 5.3 92.71 29.03 89.2 15.06l-25.4-5.03-13.5 16.15-.1-.5-25.4-5.02L2.22 47.55-20.3 74.47l5.06 20.21 18.86 3.76-5.29 6.3-22.52 26.9 5.06 20.2 25.44 5.07 22.52-26.93 4.8-5.7 4.47.9-4.16 5 5.06 20.2 12.55 2.51-7.26 8.64 5.1 20.2 25.4 5.04 22.53-26.9 4.46-5.32 6.96 1.38 22.53-26.89 22.56-26.92-4.69-18.63 17.28-20.66-5.14-20.17-24.27-4.8 6.09-7.29-5.07-20.2z"
       id="path35" />
    <path
       fill="#450409"
       d="m231.84 65.8-12.36 14.77-12.36 14.76 2.8 11.11 13.95 2.75 12.36-14.76 12.36-14.76-2.8-11.08z"
       id="path37"
       style="fill:#683337;fill-opacity:1" />
    <path
       fill="none"
       stroke="#000"
       stroke-linecap="round"
       stroke-linejoin="round"
       stroke-width="5.29"
       d="M60.32 43a1.05 1.05 0 0 1-1.05 1.05H54.9A1.05 1.05 0 0 1 53.84 43V29.3a.13.13 0 0 0-.22-.08l-9.31 9.42a2.05 2.05 0 0 1-2.93 0l-9.3-9.43a.13.13 0 0 0-.21.1V43a1.05 1.05 0 0 1-1.05 1.04h-4.37A1.05 1.05 0 0 1 25.4 43V18.91a1.05 1.05 0 0 1 1.05-1.05h3a2.06 2.06 0 0 1 1.47.62l11.6 11.71a.51.51 0 0 0 .72 0l11.58-11.72a2.06 2.06 0 0 1 1.46-.61h3a1.05 1.05 0 0 1 1.04 1.05z"
       class="cls-2"
       data-name="MS"
       filter="url(#f)"
       opacity=".1"
       transform="matrix(2.28448 0 0 2.26991 -26.84 5.9)"
       id="path39" />
    <path
       fill="#450409"
       d="M15.94 164.24 4.53 177.8l-11.34 13.56 2.53 10.22 12.81 2.55 11.34-13.6 11.38-13.55-2.57-10.18z"
       id="path41"
       style="fill:#683337;fill-opacity:1" />
    <path
       fill="#fffffd"
       fill-rule="evenodd"
       d="M110.93 103.5a2.38 2.37 0 0 1-2.38 2.37H98.53a2.38 2.37 0 0 1-2.38-2.36V72.4a.3.3 0 0 0-.49-.19l-21.32 21.4a4.69 4.66 0 0 1-6.65 0l-21.24-21.4a.3.3 0 0 0-.5.19v31.1a2.38 2.37 0 0 1-2.41 2.36h-9.98a2.38 2.37 0 0 1-2.38-2.36V48.82a2.38 2.37 0 0 1 2.38-2.36h6.88a4.69 4.66 0 0 1 3.36 1.39l26.46 26.59a1.17 1.16 0 0 0 1.66 0l26.42-26.6a4.69 4.66 0 0 1 3.33-1.38h6.84a2.38 2.37 0 0 1 2.38 2.36v54.69z"
       class="cls-2"
       data-name="M"
       id="path43" />
    <path
       fill="#dbdbdb"
       stroke="#d3d3d3"
       stroke-linejoin="bevel"
       stroke-width="2.98"
       d="M203.72 76.8c-23.59-.3-48.83 21.79-29.9 53l-61.34 81.34h31.82l49.4-65.5c25.7 9.06 57.15-5.85 43.77-47.5l-19.92 23.77-19.88-3.98-3.97-15.81 19.89-23.78a34.13 33.91 0 0 0-9.83-1.5z"
       paint-order="stroke fill markers"
       id="path45" />
    <path
       fill="url(#g)"
       d="M55.26-19.57 46.3-8.9 37.34 1.8l2 8.04 10.1 2 8.95-10.68 8.96-10.7-2-8.07z"
       id="path47" />
    <path
       fill="url(#h)"
       d="m229.84 63.8-12.36 14.77-12.36 14.76 2.8 11.11 13.95 2.75 12.36-14.76 12.36-14.76-2.8-11.08z"
       id="path49" />
    <path
       fill="url(#i)"
       d="M13.94 162.24 2.53 175.8l-11.34 13.56 2.53 10.22 12.81 2.55 11.34-13.6 11.38-13.55-2.57-10.18z"
       id="path51" />
  </g>
</svg>
