<?xml version="1.0" encoding="UTF-8"?>
<svg xmlns="http://www.w3.org/2000/svg" xmlns:xlink="http://www.w3.org/1999/xlink" width="324px" height="234px" viewBox="0 0 324 234" version="1.1">
<defs>
<linearGradient id="linear0" gradientUnits="userSpaceOnUse" x1="14.458346" y1="33.053364" x2="14.458346" y2="35.937672" gradientTransform="matrix(11.506932,0,0,3.976763,32.965608,-27.749397)">
<stop offset="0" style="stop-color:rgb(83.529413%,99.215686%,68.627453%);stop-opacity:1;"/>
<stop offset="1" style="stop-color:rgb(67.058825%,98.039216%,46.666667%);stop-opacity:1;"/>
</linearGradient>
</defs>
<g id="surface1">
<rect x="0" y="0" width="324" height="234" style="fill:rgb(10.196079%,23.529412%,35.686275%);fill-opacity:1;stroke:none;"/>
<path style="fill:none;stroke-width:1.021703;stroke-linecap:butt;stroke-linejoin:miter;stroke:rgb(100%,100%,100%);stroke-opacity:1;stroke-miterlimit:4;" d="M -0.94401 -1.082899 L 181.217448 -1.082899 L 181.217448 130.605469 L -0.94401 130.605469 Z M -0.94401 -1.082899 " transform="matrix(1.8,0,0,1.8,0,0)"/>
<path style=" stroke:none;fill-rule:evenodd;fill:rgb(94.901961%,59.607846%,47.843137%);fill-opacity:1;" d="M 71.019531 103.695312 L 71.019531 115.167969 L 104.210938 115.167969 L 104.210938 103.695312 Z M 71.019531 103.695312 "/>
<path style=" stroke:none;fill-rule:evenodd;fill:rgb(88.627452%,2.352941%,7.450981%);fill-opacity:1;" d="M 71.019531 162.835938 L 71.019531 174.3125 L 104.210938 174.3125 L 104.210938 162.835938 Z M 71.019531 162.835938 "/>
<path style=" stroke:none;fill-rule:evenodd;fill:rgb(88.627452%,2.352941%,7.450981%);fill-opacity:1;" d="M 71.019531 147.542969 L 71.019531 159.015625 L 104.210938 159.015625 L 104.210938 147.542969 Z M 71.019531 147.542969 "/>
<path style=" stroke:none;fill-rule:evenodd;fill:rgb(88.627452%,2.352941%,7.450981%);fill-opacity:1;" d="M 71.019531 133.265625 L 71.019531 144.742188 L 104.210938 144.742188 L 104.210938 133.265625 Z M 71.019531 133.265625 "/>
<path style=" stroke:none;fill-rule:evenodd;fill:rgb(94.901961%,59.607846%,47.843137%);fill-opacity:1;" d="M 71.019531 117.972656 L 71.019531 129.441406 L 104.210938 129.441406 L 104.210938 117.972656 Z M 71.019531 117.972656 "/>
<path style=" stroke:none;fill-rule:evenodd;fill:rgb(96.470588%,40.392157%,28.235295%);fill-opacity:1;" d="M 108.558594 162.835938 L 108.558594 174.3125 L 141.75 174.3125 L 141.75 162.835938 Z M 108.558594 162.835938 "/>
<path style=" stroke:none;fill-rule:evenodd;fill:rgb(96.862745%,48.627451%,24.313726%);fill-opacity:1;" d="M 108.558594 147.542969 L 108.558594 159.015625 L 141.75 159.015625 L 141.75 147.542969 Z M 108.558594 147.542969 "/>
<path style=" stroke:none;fill-rule:evenodd;fill:rgb(97.647059%,71.764708%,35.686275%);fill-opacity:1;" d="M 108.558594 133.265625 L 108.558594 144.742188 L 141.75 144.742188 L 141.75 133.265625 Z M 108.558594 133.265625 "/>
<path style=" stroke:none;fill-rule:evenodd;fill:rgb(89.803922%,0%,49.411765%);fill-opacity:1;" d="M 146.097656 162.835938 L 146.097656 174.3125 L 179.285156 174.3125 L 179.285156 162.835938 Z M 146.097656 162.835938 "/>
<path style=" stroke:none;fill-rule:evenodd;fill:rgb(89.803922%,0%,49.411765%);fill-opacity:1;" d="M 146.097656 147.542969 L 146.097656 159.015625 L 179.285156 159.015625 L 179.285156 147.542969 Z M 146.097656 147.542969 "/>
<path style=" stroke:none;fill-rule:evenodd;fill:rgb(89.803922%,0%,49.411765%);fill-opacity:1;" d="M 146.097656 133.265625 L 146.097656 144.742188 L 179.285156 144.742188 L 179.285156 133.265625 Z M 146.097656 133.265625 "/>
<path style=" stroke:none;fill-rule:evenodd;fill:rgb(94.509804%,61.56863%,76.47059%);fill-opacity:1;" d="M 146.097656 117.972656 L 146.097656 129.441406 L 179.285156 129.441406 L 179.285156 117.972656 Z M 146.097656 117.972656 "/>
<path style=" stroke:none;fill-rule:evenodd;fill:rgb(94.509804%,61.56863%,76.47059%);fill-opacity:1;" d="M 146.097656 103.695312 L 146.097656 115.167969 L 179.285156 115.167969 L 179.285156 103.695312 Z M 146.097656 103.695312 "/>
<path style=" stroke:none;fill-rule:evenodd;fill:rgb(94.509804%,61.56863%,76.47059%);fill-opacity:1;" d="M 146.097656 88.402344 L 146.097656 99.875 L 179.285156 99.875 L 179.285156 88.402344 Z M 146.097656 88.402344 "/>
<path style=" stroke:none;fill-rule:evenodd;fill:rgb(94.509804%,61.56863%,76.47059%);fill-opacity:1;" d="M 146.097656 73.105469 L 146.097656 84.578125 L 179.285156 84.578125 L 179.285156 73.105469 Z M 146.097656 73.105469 "/>
<path style=" stroke:none;fill-rule:evenodd;fill:rgb(34.117648%,88.627452%,15.294118%);fill-opacity:1;" d="M 182.742188 162.835938 L 182.742188 174.3125 L 215.929688 174.3125 L 215.929688 162.835938 Z M 182.742188 162.835938 "/>
<path style=" stroke:none;fill-rule:evenodd;fill:rgb(38.431373%,94.901961%,24.313726%);fill-opacity:1;" d="M 182.742188 147.542969 L 182.742188 159.015625 L 215.929688 159.015625 L 215.929688 147.542969 Z M 182.742188 147.542969 "/>
<path style=" stroke:none;fill-rule:evenodd;fill:rgb(47.058824%,96.470588%,29.019609%);fill-opacity:1;" d="M 182.742188 133.265625 L 182.742188 144.742188 L 215.929688 144.742188 L 215.929688 133.265625 Z M 182.742188 133.265625 "/>
<path style=" stroke:none;fill-rule:evenodd;fill:rgb(76.078433%,96.470588%,49.411765%);fill-opacity:1;" d="M 182.742188 117.972656 L 182.742188 129.441406 L 215.929688 129.441406 L 215.929688 117.972656 Z M 182.742188 117.972656 "/>
<path style=" stroke:none;fill-rule:evenodd;fill:url(#linear0);" d="M 182.742188 103.695312 L 182.742188 115.167969 L 215.929688 115.167969 L 215.929688 103.695312 Z M 182.742188 103.695312 "/>
<path style=" stroke:none;fill-rule:evenodd;fill:rgb(25.098041%,74.901962%,93.725491%);fill-opacity:1;" d="M 220.28125 162.835938 L 220.28125 174.3125 L 253.472656 174.3125 L 253.472656 162.835938 Z M 220.28125 162.835938 "/>
<path style=" stroke:none;fill-rule:evenodd;fill:rgb(25.098041%,74.901962%,93.725491%);fill-opacity:1;" d="M 220.28125 147.542969 L 220.28125 159.015625 L 253.472656 159.015625 L 253.472656 147.542969 Z M 220.28125 147.542969 "/>
<path style=" stroke:none;fill-rule:evenodd;fill:rgb(25.098041%,74.901962%,93.725491%);fill-opacity:1;" d="M 220.28125 133.265625 L 220.28125 144.742188 L 253.472656 144.742188 L 253.472656 133.265625 Z M 220.28125 133.265625 "/>
<path style=" stroke:none;fill-rule:evenodd;fill:rgb(73.725492%,89.019608%,97.647059%);fill-opacity:1;" d="M 220.28125 117.972656 L 220.28125 129.445312 L 253.472656 129.445312 L 253.472656 117.972656 Z M 220.28125 117.972656 "/>
<path style=" stroke:none;fill-rule:evenodd;fill:rgb(73.725492%,89.019608%,97.647059%);fill-opacity:1;" d="M 220.28125 103.695312 L 220.28125 115.167969 L 253.472656 115.167969 L 253.472656 103.695312 Z M 220.28125 103.695312 "/>
<path style=" stroke:none;fill-rule:evenodd;fill:rgb(73.725492%,89.019608%,97.647059%);fill-opacity:1;" d="M 220.28125 88.402344 L 220.28125 99.871094 L 253.472656 99.871094 L 253.472656 88.402344 Z M 220.28125 88.402344 "/>
<path style=" stroke:none;fill-rule:evenodd;fill:rgb(73.725492%,89.019608%,97.647059%);fill-opacity:1;" d="M 220.28125 73.105469 L 220.28125 84.578125 L 253.472656 84.578125 L 253.472656 73.105469 Z M 220.28125 73.105469 "/>
<path style=" stroke:none;fill-rule:evenodd;fill:rgb(73.725492%,89.019608%,97.647059%);fill-opacity:1;" d="M 220.28125 58.832031 L 220.28125 70.304688 L 253.472656 70.304688 L 253.472656 58.832031 Z M 220.28125 58.832031 "/>
</g>
</svg>
