<svg xmlns="http://www.w3.org/2000/svg" xmlns:xlink="http://www.w3.org/1999/xlink" viewBox="0 0 324 234"><defs><linearGradient id="k"><stop offset="0" stop-color="#fff"/><stop offset="1" stop-color="#fff" stop-opacity="0"/></linearGradient><linearGradient id="d"><stop offset="0" stop-color="#73c0f9"/><stop offset="1" stop-color="#c0e3fc"/></linearGradient><linearGradient id="c"><stop offset="0" stop-color="#0a91f5"/><stop offset="1" stop-color="#0767ae"/></linearGradient><linearGradient id="f"><stop offset="0" stop-color="#1998f5"/><stop offset="1" stop-color="#9cd3fb"/></linearGradient><linearGradient id="e"><stop offset="0" stop-color="#9cd3fb"/><stop offset="1" stop-color="#1998f5"/></linearGradient><linearGradient id="b"><stop offset="0" stop-color="#c4e4fa"/><stop offset="1" stop-color="#95cff6"/></linearGradient><linearGradient id="j"><stop offset="0" stop-color="#032f4d"/><stop offset="1" stop-color="#0873c0"/></linearGradient><linearGradient id="i"><stop offset="0" stop-color="#032f4d"/><stop offset="1" stop-color="#fff"/></linearGradient><linearGradient id="h"><stop offset="0" stop-color="#98ffee"/><stop offset="1" stop-color="#f9fffe" stop-opacity="0"/></linearGradient><linearGradient id="g" x1="2.92121" x2="45.167961" y1="23.585991" y2="23.585991" gradientUnits="userSpaceOnUse"><stop offset="0" stop-color="#a0ffee"/><stop offset="1" stop-color="#0092f0" stop-opacity=".04032258"/></linearGradient><linearGradient id="a" x1="2.92121" x2="45.167961" y1="23.585991" y2="23.585991" gradientUnits="userSpaceOnUse"><stop offset="0" stop-color="#2dffda"/><stop offset="1" stop-color="#0092f0"/></linearGradient><linearGradient id="w" x1="288.111572" x2="287.57547" y1="141.784515" y2="79.007812" gradientTransform="matrix(.59925 0 0 .5867 -87.193658 119.00317)" gradientUnits="userSpaceOnUse"><stop offset="0" stop-opacity=".046875"/><stop offset="1" stop-opacity="0"/></linearGradient><linearGradient id="x" x1="2.92121" x2="45.167961" y1="23.585991" y2="23.585991" gradientUnits="userSpaceOnUse"><stop offset="0" stop-color="#4ce0c6"/><stop offset="1" stop-color="#3b85b5"/></linearGradient><linearGradient xlink:href="#a" id="u" x1="242.19299" x2="242.19299" y1="198.36522" y2="185.0685" gradientUnits="userSpaceOnUse"/><linearGradient xlink:href="#b" id="v" x1="241.15625" x2="308.29492" y1="191.71679" y2="191.71679" gradientUnits="userSpaceOnUse"/><linearGradient xlink:href="#a" id="t" x1="0" x2="308.29297" y1="153.91895" y2="153.91895" gradientUnits="userSpaceOnUse"/><linearGradient xlink:href="#c" id="m" x1="58.19249" x2="206.31163" y1="123.94019" y2="123.94019" gradientUnits="userSpaceOnUse"/><linearGradient xlink:href="#d" id="l" x1="234.07335" x2="382.19249" y1="123.94019" y2="123.94019" gradientTransform="matrix(-1 0 0 1 616.26584 0)" gradientUnits="userSpaceOnUse"/><linearGradient xlink:href="#a" id="o" x1="33.568359" x2="114.55078" y1="184.96484" y2="184.96484" gradientUnits="userSpaceOnUse"/><linearGradient xlink:href="#e" id="y" x1="139.21105" x2="301.17393" y1="190.98023" y2="190.98023" gradientTransform="translate(-58.19249 -6.9401862)" gradientUnits="userSpaceOnUse"/><linearGradient xlink:href="#f" id="z" x1="81.01856" x2="242.98144" y1="48.04004" y2="48.04004" gradientUnits="userSpaceOnUse"/><radialGradient xlink:href="#g" id="p" cx="44.999992" cy="116.99989" r="117" fx="44.999992" fy="116.99989" gradientTransform="matrix(0 1 -.0429 0 167.0196 -44.999993)" gradientUnits="userSpaceOnUse"/><radialGradient xlink:href="#h" id="q" cx="162" cy="180.55431" r="5.01953" fx="162" fy="180.55431" gradientTransform="matrix(1 0 0 23.38972 0 -3988.7088)" gradientUnits="userSpaceOnUse"/><radialGradient xlink:href="#i" id="s" cx="274.72519" cy="191.71686" r="25.792575" fx="274.72519" fy="191.71686" gradientTransform="matrix(1 0 0 .97378 0 5.0274381)" gradientUnits="userSpaceOnUse"/><radialGradient xlink:href="#j" id="r" cx="274.72519" cy="191.71686" r="25.996063" fx="274.72519" fy="191.71686" gradientTransform="matrix(1 0 0 .97398 0 4.988085)" gradientUnits="userSpaceOnUse"/><radialGradient xlink:href="#k" id="A" cx="274.72461" cy="44.826898" r="25.188001" fx="274.72461" fy="44.826898" gradientUnits="userSpaceOnUse"/><filter id="n" width="1.9816" height="1.9816" x="-.4908" y="-.4908" color-interpolation-filters="sRGB"><feGaussianBlur stdDeviation="6.135"/></filter></defs><g fill="#bce1fc"><path fill="url(#l)" fill-rule="evenodd" d="M382.19249 6.9401862V240.94019H234.07335V6.9401862Z" paint-order="markers fill stroke" transform="translate(-58.19249 -6.9401862)"/><path fill="url(#m)" fill-rule="evenodd" d="M58.19249 6.9401862V240.94019h148.11914V6.9401862Z" paint-order="markers fill stroke" transform="translate(-58.19249 -6.9401862)"/><path fill="#1998f5" d="M267.76758 9.5944778c-17.84984 0-26.61133 12.08959-26.61133 27.10352v11.16992c0 15.01709 8.94249 27.10351 27.46484 27.10351h1.40821s-18.54493-17.83843-18.54492-28.10351v-7.73438c0-24.39425 46.48046-24.55323 46.48046 0v7.73438c0 6.36427-18.96484 28.10351-18.96484 28.10351h.7207c24.23861 0 28.57227-17.75511 28.57227-27.10351v-11.16992c0-9.46579-4.64172-27.10352-26.91992-27.10352zM279 74.9714278h-8.9707v35.087886H279z"/><path fill="#064c7e" fill-rule="evenodd" d="M234.07335 132.21948a13.88086 15.220705 0 0 1-.14802 2.21687l-13.73284-2.21687z" paint-order="markers fill stroke"/></g><circle cx="274.72461" cy="44.826897" r="15" fill="#fff" fill-rule="evenodd" filter="url(#n)" paint-order="markers fill stroke"/><g fill="#0a8def"><path fill="url(#o)" d="M71.537109 145.92578c-6.47255 0-9.65039 4.38391-9.65039 9.82813v4.05078c0 5.44536 3.242576 9.82812 9.958984 9.82812h4.025391c8.789191 0 10.361328-6.43829 10.361328-9.82812v-4.05078c0-3.4324-1.683392-9.82813-9.761719-9.82813h-4.933594zm-28.318359 27.1875c-6.472551 0-9.650391 4.38391-9.650391 9.82813v4.04882c0 5.44537 3.242576 9.82813 9.958985 9.82813h4.02539c8.789189 0 10.359375-6.43829 10.359375-9.82813v-4.04882c0-3.4324-1.68144-9.82813-9.759765-9.82813H43.21875zm28.318359 0c-6.47255 0-9.65039 4.38391-9.65039 9.82813v4.04882c0 5.44537 3.242576 9.82813 9.958984 9.82813h4.025391c8.789191 0 10.361328-6.43829 10.361328-9.82813v-4.04882c0-3.4324-1.683392-9.82813-9.761719-9.82813h-4.933594zm28.31836 0c-6.472551 0-9.648438 4.38391-9.648438 9.82813v4.04882c0 5.44537 3.242576 9.82813 9.958989 9.82813h4.02343c8.78919 0 10.36133-6.43829 10.36133-9.82813v-4.04882c0-3.4324-1.68339-9.82813-9.76172-9.82813h-4.933591zm-28.31836 27.18555c-6.47255 0-9.65039 4.38391-9.65039 9.82812v4.05078c0 5.44537 3.242576 9.82618 9.958984 9.82618h4.025391c8.789191 0 10.361328-6.43634 10.361328-9.82618v-4.05078c0-3.43239-1.683392-9.82812-9.761719-9.82812h-4.933594z" transform="translate(-3e-7 1e-7)"/><path d="M43.2180434 145.9263794h4.9334935c8.0783248 0 9.7611644 6.3954839 9.7611644 9.8278804v4.0500902c0 3.3898371-1.5712632 9.8278843-10.3604514 9.8278843h-4.0247857c-6.7164084 0-9.9590088-4.3825197-9.9590088-9.8278843v-4.0500902c0-5.4442141 3.1770375-9.8278804 9.649588-9.8278804zM15.218035 118.7401476h4.9334935c8.0783248 0 9.7611644 6.3954852 9.7611644 9.8278817v4.0500928c0 3.3898371-1.5712632 9.8278843-10.3604514 9.8278843h-4.0247857c-6.7164084 0-9.9590088-4.3825197-9.9590088-9.8278843v-4.0500928c0-5.4442141 3.1770375-9.8278817 9.649588-9.8278817zm28.3189894 0h4.9334961c8.07833 0 9.7611709 6.3954852 9.7611709 9.8278817v4.0500928c0 3.3898371-1.5712645 9.8278843-10.3604579 9.8278843h-4.024787c-6.7164097 0-9.9590101-4.3825197-9.9590101-9.8278843v-4.0500928c0-5.4442141 3.1770362-9.8278817 9.649588-9.8278817zm28.31899447 0h4.93349363c8.0783235 0 9.76116375 6.3954852 9.76116375 9.8278817v4.0500928c0 3.3898371-1.57126255 9.8278843-10.36045075 9.8278843h-4.02478453c-6.7164058 0-9.95900542-4.3825197-9.95900542-9.8278843v-4.0500928c0-5.4442141 3.17703542-9.8278817 9.64958332-9.8278817zM15.218035 91.55391463h4.9334935c8.0783248 0 9.7611644 6.3954851 9.7611644 9.82788261v4.05009176c0 3.38983749-1.5712632 9.8278843-10.3604514 9.8278843h-4.0247857c-6.7164084 0-9.9590088-4.38251905-9.9590088-9.8278843v-4.05009176c0-5.44421449 3.1770375-9.82788261 9.649588-9.82788261zm28.3189894 0h4.9334961c8.07833 0 9.7611709 6.3954851 9.7611709 9.82788261v4.05009176c0 3.38983749-1.5712645 9.8278843-10.3604579 9.8278843h-4.024787c-6.7164097 0-9.9590101-4.38251905-9.9590101-9.8278843v-4.05009176c0-5.44421449 3.1770362-9.82788261 9.649588-9.82788261zm28.31899447 0h4.93349363c8.0783235 0 9.76116375 6.3954851 9.76116375 9.82788261v4.05009176c0 3.38983749-1.57126255 9.8278843-10.36045075 9.8278843h-4.02478453c-6.7164058 0-9.95900542-4.38251905-9.95900542-9.8278843v-4.05009176c0-5.44421449 3.17703542-9.82788261 9.64958332-9.82788261zM43.2180434 64.3676996h4.9334935c8.0783248 0 9.7611644 6.3954761 9.7611644 9.82787v4.0500863c0 3.3898384-1.5712632 9.82788521-10.3604514 9.82788521h-4.0247857c-6.7164084 0-9.9590088-4.38251931-9.9590088-9.82788521v-4.0500863c0-5.4442063 3.1770375-9.82787 9.649588-9.82787zm28.3189868 0h4.93349389c8.07832675 0 9.76116687 6.3954761 9.76116687 9.82787v4.0500863c0 3.3898384-1.57126294 9.82788521-10.36045392 9.82788521h-4.02478539c-6.71640814 0-9.95900789-4.38251931-9.95900789-9.82788521v-4.0500863c0-5.4442063 3.17703568-9.82787 9.64958644-9.82787zm0-27.1861967h4.93349389c8.07832675 0 9.76116687 6.3954748 9.76116687 9.82787v4.050085c0 3.3898371-1.57126294 9.8278778-10.36045392 9.8278778h-4.02478539c-6.71640814 0-9.95900789-4.3825158-9.95900789-9.8278778v-4.050085c0-5.4442063 3.17703568-9.82787 9.64958644-9.82787zm0-27.186198h4.93349389c8.07832675 0 9.76116687 6.3954761 9.76116687 9.82787v4.0500863c0 3.3898371-1.57126294 9.8278765-10.36045392 9.8278765h-4.02478539c-6.71640814 0-9.95900789-4.3825145-9.95900789-9.8278765v-4.0500863c0-5.4442063 3.17703568-9.82787 9.64958644-9.82787zm0 0"/></g><path fill="#bce1fc" d="M145.96371 41.648333H177.327c51.35567 0 62.05385 40.657501 62.05385 62.477997v25.74733c0 21.54993-9.98888 62.47801-65.86367 62.47801h-25.58642c-42.69768 0-63.31161-27.86064-63.31161-62.47801v-25.74733c0-34.610058 20.19711-62.477997 61.34456-62.477997zm0 0"/><path fill="#064c7e" fill-rule="evenodd" d="M148.11914-3.5e-7V234h27.76172V-3.5e-7Z" paint-order="markers fill stroke"/><path fill="url(#p)" fill-rule="evenodd" d="M156.98047 0v117h10.03906V0Z" paint-order="markers fill stroke"/><path fill="url(#q)" fill-rule="evenodd" d="M167.01953 117h-10.03906v117h10.03906z" paint-order="markers fill stroke"/><path fill="url(#r)" stroke="url(#s)" stroke-linecap="square" stroke-linejoin="bevel" stroke-opacity=".078125" stroke-width=".40697661" d="M269.37997 166.60065h10.45401c17.11787 0 20.68378 13.55195 20.68378 20.82516v8.5821c0 7.18302-3.3295 20.82516-21.95367 20.82516h-8.52845c-14.23198 0-21.10303-9.2865-21.10303-20.82515v-8.58211c0-11.53622 6.73209-20.82516 20.44736-20.82516zm0 0"/><path fill="url(#t)" d="M9.6582031 83.431641c-2.72047 0-6.1586031.460375-9.6582031 1.578125v11.671875c3.63143-2.22942 7.7298332-2.921875 10.658203-2.921875h7.734375c6.55323 0 18.763672 3.213342 18.763672 18.636714v9.41993c0 12.35759-8.369422 18.42382-18.763672 18.42382h-7.734375C6.6832332 140.24024 3.0246 139.30792 0 137.4707v11.63672c3.00653.93415 6.2400231 1.46094 9.6582031 1.46094H20.828125c15.013932 0 27.103516-8.76149 27.103516-26.61133v-.01562H270.0293v35.08789H279v-48.97071H47.923828c-.157312-22.020501-17.672456-26.626949-27.095703-26.626949H9.6582031zM279 159.0293v9.35937c16.05329.39733 18.96484 12.37987 18.96484 18.74414v7.73438c0 6.55323-3.21333 18.76367-18.63672 18.76367h-9.41992c-12.35759 0-18.42382-8.36942-18.42382-18.76367v-7.73438c-.00001-10.26508 6.04922-18.53635 18.54492-18.74414v-9.35937h-1.40821c-18.52235 0-27.46484 12.08642-27.46484 27.10351v11.16992c0 15.01393 8.76149 27.10352 26.61133 27.10352h13.60547c22.2782 0 26.91992-17.63773 26.91992-27.10352v-11.16992c0-9.3484-4.33366-27.10351-28.57227-27.10351H279zm-8.9707 9.35937v24.55469H279v-24.55469c-.27165-.0067-.53718-.01953-.81641-.01953H270.5c-.16203 0-.31079.01653-.4707.01953z"/><path fill="url(#u)" d="M270.82231 185.19522c-.1559.004-.3056.028-.44771.0775-1.13696.39593-1.79311 2.34523-3.77157 2.51227-1.97845.16703-5.25672-1.51944-7.695-1.41276-2.43828.10668-4.04104 2.00642-5.41054 2.46322-1.3695.45682-2.50682-.5313-3.44725-.28001-.94044.25129-1.68527 1.74186-2.73533 1.16754-1.05006-.57432-2.40498-3.21477-3.29221-3.19096-.88723.0238-1.30882 2.71606-1.67695 4.03102-.20367.7275-.20367 1.69141 0 2.41893.36813 1.31496.78972 4.00878 1.67695 4.03259.88723.0238 2.24214-2.61664 3.29221-3.19096 1.05005-.57431 1.79488.91466 2.73533 1.16596.94042.25129 2.07776-.73683 3.44725-.28001 1.3695.4568 2.97226 2.35812 5.41054 2.4648 2.43828.10668 5.71656-1.58138 7.695-1.41434 1.97846.16704 2.63462 2.11635 3.77157 2.51226.14212.0495.29182.0743.44771.0775 1.09123.0206 6.71452.0206 7.80574 0 .1559-.004.3056-.028.44771-.0775 1.13696-.39591 1.79311-2.34522 3.77158-2.51226 1.97843-.16704 5.25671 1.52102 7.695 1.41434 2.43827-.10668 4.04104-2.008 5.41054-2.4648 1.36948-.45682 2.50682.5313 3.44724.28001.94046-.2513 1.6853-1.74027 2.73535-1.16596 1.05005.57432 2.40497 3.21478 3.2922 3.19096.88722-.0239 1.30881-2.71763 1.67695-4.03259.20367-.72752.20367-1.69143 0-2.41893-.36814-1.31496-.78973-4.00717-1.67695-4.03102-.88723-.0239-2.24215 2.61664-3.2922 3.19096-1.05006.57432-1.7949-.91625-2.73535-1.16754-.94043-.25129-2.07775.73683-3.44724.28001-1.3695-.4568-2.97226-2.35654-5.41054-2.46322-2.43829-.10668-5.71655 1.57979-7.695 1.41276-1.97845-.16704-2.63461-2.11634-3.77158-2.51227-1.13696-.39591-7.16211-.0979-8.25345-.0775z"/><path fill="url(#v)" d="M267.76758 159.02734c-17.85038 0-26.61133 12.09113-26.61133 27.10547v11.16797c0 15.01751 8.94197 27.10547 27.46484 27.10547h11.09961c24.2393 0 28.57422-17.75679 28.57422-27.10547v-11.16797c0-9.46605-4.64107-27.10547-26.91992-27.10547h-13.60742zm1.61328 7.57422h10.45312c17.11787 0 20.6836 13.55101 20.6836 20.82422v8.58203c0 7.18302-3.32896 20.82617-21.95313 20.82617h-8.52929c-14.23198 0-21.10352-9.28752-21.10352-20.82617v-8.58203c0-11.53622 6.73395-20.82422 20.44922-20.82422z"/><path fill="url(#w)" d="M42.28125 165.78906v3.22266c0 18.48828 11.011719 33.375 33.816406 33.375h13.671875c29.847659 0 35.183599-21.86719 35.183599-33.375v-3.22266c0 11.50781-5.33594 33.375-35.183599 33.375H76.097656c-22.804687 0-33.816406-14.88281-33.816406-33.375zm0 0" transform="matrix(1.3 0 0 1.3 53.29767 -92.633619)"/><path fill="url(#x)" stroke="#000" stroke-linecap="square" stroke-linejoin="bevel" stroke-opacity=".078125" stroke-width=".33418" d="M19.702305 2.742466h8.493689c13.907945 0 16.805185 11.246329 16.805185 17.282128v7.122001c0 5.960959-2.705147 17.282129-17.836943 17.282129h-6.929218c-11.56322 0-17.145805-7.706568-17.145805-17.282129v-7.122001c0-9.573538 5.469706-17.282128 16.613092-17.282128zm0 0" transform="matrix(2.56427 0 0 2.51054 100.3417307 57.065294)"/><path fill="none" stroke="#fff" stroke-linejoin="round" stroke-width="1.067258" d="M21.11825 35.166684v-7.283818s.52083 1.941812 2.598209 1.941812c2.07936 0 2.59821-1.941812 2.59821-1.941812V40.02526" transform="matrix(2.56427 0 0 2.51054 100.3417307 57.065294)"/><path fill="#e6e6e6" fill-rule="evenodd" d="M174.482045 125.847631c0 6.733597-5.9667972 12.192583-13.325 12.192583-7.3582028 0-13.325-5.458986-13.325-12.192583 0-6.738667 5.9667972-12.197653 13.325-12.197653 7.3582028 0 13.325 5.458986 13.325 12.197653zm0 0"/><path fill="#7f7f7f" fill-rule="evenodd" d="M163.8230603 125.847631c0 1.345708-1.1933597 2.4375-2.6660153 2.4375-1.4726556 0-2.6660153-1.091792-2.6660153-2.4375 0-1.350778 1.1933597-2.442583 2.6660153-2.442583 1.4726556 0 2.6660153 1.091805 2.6660153 2.442583zm0 0"/><path fill="#ffd145" fill-rule="evenodd" d="M124.2797006 95.302714V84.770673c0-.233584 1.0714847-.385931 2.3664069-.340236l70.8703125 2.539069c1.305083.05083 2.366403.274222 2.366403.507806v10.532041c0 .208195-.954681.340236-2.102334.299611l-71.398444-2.559375c-1.1628903-.04056-2.1023444-.23868-2.1023444-.446875zm0 0"/><path fill="#ccc" fill-rule="evenodd" d="m123.0609506 104.971464-.9902334-13.416416c-.020319-.294528 1.05625-.634764 2.3917972-.751556l72.8609336-6.469528c1.345708-.11674 2.452736.03042 2.473055.325l.995306 13.41132c.02028.264069-.949611.56368-2.122653.670319l-73.4093763 6.515236c-1.1933597.10153-2.1785153-.02028-2.1988291-.284375zm0 0"/><path fill="#ebf5f5" fill-rule="evenodd" d="M120.4406394 105.910909V93.830048c0-.264056 1.1628903-.482417 2.5695306-.482417h76.938667c1.416805 0 2.569541.218361 2.569541.482417v12.080861c0 .233597-1.041014.426569-2.280083.426569h-77.5175778c-1.259375 0-2.2800778-.187889-2.2800778-.426569zm0 0"/><path fill="url(#y)" d="M81.01856 162c6.88098 21.54382 24.78595 44.08008 68.20898 44.08008h1.82226v-11.64844c.6864.0176 1.35694.0488 2.0625.0488h19.41602c.40941 0 .78345-.0413 1.1875-.0488v11.64844h3.55859c36.14926 0 57.69745-18.3015 65.70703-44.08008h-29.40429c-7.34607 12.0938-20.51367 20.10995-39.86133 20.43164V174H151.0498v8.43164c-21.89923-.54199-33.92741-9.66538-40.53711-20.43164Z"/><path fill="url(#z)" d="M81.01856 70.08008C87.89954 48.53626 105.80451 26 149.22754 26h1.82226v11.64844c.6864-.0176 1.35694-.0488 2.0625-.0488h19.41602c.40941 0 .78345.0413 1.1875.0488V26h3.55859c36.14926 0 57.69745 18.3015 65.70703 44.08008h-29.40429c-7.34607-12.0938-20.51367-20.10995-39.86133-20.43164v8.43164H151.0498v-8.43164c-21.89923.54199-33.92741 9.66538-40.53711 20.43164z"/><circle cx="274.72461" cy="44.826897" r="15" fill="url(#A)" fill-rule="evenodd" paint-order="markers fill stroke"/></svg>