<?xml version="1.0" encoding="UTF-8"?>
<svg xmlns="http://www.w3.org/2000/svg" xmlns:xlink="http://www.w3.org/1999/xlink" width="324px" height="234px" viewBox="0 0 324 234" version="1.1">
<defs>
<linearGradient id="linear0" gradientUnits="userSpaceOnUse" x1="-1.455352" y1="64.761543" x2="181.728165" y2="64.761543" gradientTransform="matrix(0.00000000000000011,-1.8,1.8,0.00000000000000011,-119.171369,85.20934)">
<stop offset="0" style="stop-color:rgb(38.431373%,47.843137%,83.92157%);stop-opacity:1;"/>
<stop offset="1" style="stop-color:rgb(44.705883%,53.725493%,85.490197%);stop-opacity:1;"/>
</linearGradient>
</defs>
<g id="surface1">
<rect x="0" y="0" width="324" height="234" style="fill:url(#linear0);stroke:none;"/>
<path style="fill:none;stroke-width:1.021703;stroke-linecap:butt;stroke-linejoin:miter;stroke:rgb(100%,100%,100%);stroke-opacity:1;stroke-miterlimit:4;" d="M -0.94401 -1.082899 L 181.217448 -1.082899 L 181.217448 130.605469 L -0.94401 130.605469 Z M -0.94401 -1.082899 " transform="matrix(1.8,0,0,1.8,0,0)"/>
<path style=" stroke:none;fill-rule:nonzero;fill:rgb(97.647059%,97.647059%,97.647059%);fill-opacity:1;" d="M 138.234375 51.050781 C 138.234375 51.050781 117.542969 50.574219 95.789062 67.429688 C 95.789062 67.429688 74.046875 108.148438 74.046875 158.382812 C 74.046875 158.382812 86.726562 180.996094 120.105469 182.089844 C 120.105469 182.089844 125.710938 175.082031 130.234375 169.152344 C 111.054688 163.226562 103.804688 150.75 103.804688 150.75 C 103.804688 150.75 105.308594 151.84375 108.023438 153.398438 C 108.171875 153.554688 108.320312 153.707031 108.625 153.863281 C 109.082031 154.175781 109.535156 154.332031 109.992188 154.648438 C 113.769531 156.832031 117.542969 158.550781 121.015625 159.953125 C 127.210938 162.445312 134.585938 164.949219 143.207031 166.664062 C 154.539062 168.851562 167.824219 169.617188 182.320312 166.804688 C 189.417969 165.558594 196.671875 163.371094 204.222656 160.09375 C 209.507812 158.066406 215.394531 155.101562 221.589844 150.890625 C 221.589844 150.890625 214.046875 163.679688 194.25 169.453125 C 198.78125 175.382812 204.207031 182.089844 204.207031 182.089844 C 237.621094 180.976562 250.445312 158.382812 250.445312 158.382812 C 250.445312 108.148438 228.699219 67.429688 228.699219 67.429688 C 206.949219 50.582031 186.257812 51.050781 186.257812 51.050781 L 184.152344 53.546875 C 209.824219 61.664062 221.753906 73.359375 221.753906 73.359375 C 206.046875 64.464844 190.644531 60.105469 176.296875 58.390625 C 165.421875 57.140625 154.992188 57.445312 145.777344 58.691406 C 144.871094 58.691406 144.117188 58.851562 143.214844 59.011719 C 137.929688 59.484375 125.101562 61.507812 108.953125 68.839844 C 103.363281 71.488281 100.042969 73.359375 100.042969 73.359375 C 100.042969 73.359375 112.574219 61.039062 139.761719 52.921875 L 138.242188 51.050781 M 134.023438 109.242188 C 142.632812 109.242188 149.578125 117.039062 149.429688 126.558594 C 149.429688 136.074219 142.644531 143.875 134.023438 143.875 C 125.5625 143.875 118.613281 136.074219 118.613281 126.558594 C 118.613281 117.039062 125.398438 109.242188 134.023438 109.242188 M 189.148438 109.242188 C 197.757812 109.242188 204.554688 117.039062 204.554688 126.558594 C 204.554688 136.074219 197.769531 143.875 189.148438 143.875 C 180.6875 143.875 173.738281 136.074219 173.738281 126.558594 C 173.738281 117.039062 180.523438 109.242188 189.148438 109.242188 "/>
</g>
</svg>
