<svg xmlns="http://www.w3.org/2000/svg" xmlns:xlink="http://www.w3.org/1999/xlink" width="324" height="234"><defs><linearGradient id="a" x2="0" y1="543.8" y2="503.8" gradientTransform="matrix(1.125 0 0 1 -51.07 0)" gradientUnits="userSpaceOnUse"><stop stop-color="#2a2c2f"/><stop offset="1" stop-color="#424649"/></linearGradient><linearGradient xlink:href="#a" id="b" x1="0" x2="324" y1="117" y2="117" gradientTransform="scale(1.0022 1.00305)" gradientUnits="userSpaceOnUse"/></defs><path fill="url(#b)" fill-rule="evenodd" d="M0 0v234.71h324.71V0Z" paint-order="markers fill stroke"/><path fill="#ff7c00" d="M17.2 14.92v19.92s10.74-4.09 19.52-9.97v-.01h-.01v-.01c-9.26-6.07-19.52-9.93-19.52-9.93z" color="#000" overflow="visible" style="marker:none" transform="matrix(6.40287 0 0 5.72807 -6.33 -25.2)"/><path fill="#ff912a" d="M17.2 14.92v19.92s10.74-4.09 19.52-9.97v-.01h-.01v-.01c-9.26-6.07-19.52-9.93-19.52-9.93z" color="#000" opacity=".79" overflow="visible" style="marker:none" transform="matrix(6.3331 -.8433 .94264 5.66565 -27.04 7.6)"/><path fill="#ffad55" d="m-213.64 97.58-8.85 52.66s32.65-6.4 60.45-18.36v-.04l-.02-.01v-.02c-23.88-19.84-51.58-34.23-51.58-34.23z" color="#000" opacity=".81" overflow="visible" style="marker:none" transform="matrix(2.20521 0 0 2.14143 586.34 -164.72)"/></svg>