<svg xmlns="http://www.w3.org/2000/svg" xml:space="preserve" width="324" height="234" viewBox="0 0 324 234"><defs><linearGradient id="a" x1="14.528" x2="10.484" y1="33.996" y2="26.992" gradientUnits="userSpaceOnUse"><stop stop-color="#999"/><stop offset="1" stop-color="#B3B3B3"/></linearGradient></defs><path fill="#ebebeb" d="M0 0h324v234H0z"/><path fill="none" stroke="#fff" stroke-width="1.839" d="M-1.7-1.95h327.891v237.04H-1.699Zm0 0"/><path fill="#354547" fill-rule="evenodd" d="M98.168 165.563V153.55c0-1.578.984-2.848 2.617-2.848h.45c1.632 0 2.613 1.27 2.613 2.848v25.293c0 6.168-3.043 11.074-8.34 14.199a15.63 15.63 0 0 1-8.02 2.191h-1.125c-6.156 0-11.047-3.047-14.172-8.355a15.662 15.662 0 0 1-2.187-8.035v-1.13c0-6.167 3.043-11.073 8.336-14.206 2.43-1.442 5.2-2.2 8.023-2.192h1.125c4.164 0 7.7 1.622 10.68 4.247zM75.68 178.276c0 4.457 2.156 7.805 6.05 9.942 1.579.863 3.286 1.328 5.082 1.328 4.368 0 7.602-2.063 9.836-5.77 1.036-1.722 1.52-3.609 1.52-5.613 0-3.863-1.824-6.879-4.93-9.117a10.579 10.579 0 0 0-6.312-2.035c-4.758 0-8.18 2.406-10.235 6.683-.695 1.45-1.011 2.985-1.011 4.582zm47.863-16.96h.785c6.578 0 11.582 3.199 14.75 8.953 1.27 2.3 1.95 4.812 1.95 7.445v1.129c0 6.168-3.036 11.082-8.344 14.199a15.655 15.655 0 0 1-8.016 2.191h-1.125c-6.156 0-11.047-3.046-14.172-8.355a15.624 15.624 0 0 1-2.187-8.035v-1.13c0-6.167 3.054-11.058 8.336-14.202a15.505 15.505 0 0 1 8.023-2.196zm-10.684 16.96c0 4.325 2.118 7.508 5.762 9.743 1.711 1.05 3.598 1.527 5.598 1.527 4.265 0 7.414-2.168 9.61-5.774 1.046-1.718 1.519-3.609 1.519-5.609 0-4.023-1.934-7.094-5.239-9.32a10.519 10.519 0 0 0-6.004-1.832c-4.757 0-8.18 2.406-10.234 6.683-.695 1.45-1.012 2.985-1.012 4.582zm51.77-10.812c-.86-.402-2.465-.535-3.39-.57-4.743-.18-8.176 2.496-10.188 6.69-.696 1.446-1.012 2.977-1.012 4.58 0 4.87 2.55 8.284 6.895 10.362 1.582.758 3.632.903 5.363.903 1.523 0 3.68-.934 5.031-1.578l.235-.114h1.05l.114.024c1.293.27 2.265 1.09 2.265 2.484v.563c0 3.464-6.316 4.257-8.726 4.425-8.508.59-14.868-4.093-17.293-12.222a14.722 14.722 0 0 1-.61-4.285v-1.125c0-6.172 3.055-11.06 8.332-14.2a15.526 15.526 0 0 1 8.024-2.195h1.125c3.027 0 5.816.86 8.312 2.57l.207.14.13.216c.269.449.5.969.5 1.5v.562c0 1.453-1.083 2.235-2.391 2.489l-.11.015h-.336c-.847 0-2.773-.879-3.527-1.234zm18.414 3.851a588.834 588.834 0 0 1 6.656-6.597c.621-.606 2.985-3.176 3.914-3.176h1.016l.117.023c1.297.27 2.266 1.094 2.266 2.489v.562c0 .95-1.114 2.055-1.727 2.707-1.305 1.387-2.676 2.727-4.012 4.082l-6.859 6.977c2.953 2.969 5.902 5.937 8.832 8.926.813.824 1.621 1.656 2.418 2.492.285.297.7.668.938 1.082.253.383.41.82.41 1.285v.586l-.035.137c-.317 1.296-1.141 2.343-2.575 2.343h-.453c-.937 0-2-1.062-2.644-1.672-1.325-1.253-2.606-2.57-3.903-3.847l-4.36-4.29v6.852c0 1.578-.987 2.848-2.616 2.848h-.446c-1.632 0-2.617-1.27-2.617-2.848V153.66c0-1.578.989-2.84 2.617-2.84h.446c1.629 0 2.617 1.262 2.617 2.84zm70.758-9.773h.562c1.703 0 2.84 1.148 2.84 2.848 0 2.355-2.246 2.957-4.191 2.957-2.547 0-4.985 1.547-6.742 3.28-2.192 2.169-3.149 4.938-3.149 7.99v13.773c0 1.578-.984 2.843-2.617 2.843h-.445c-1.633 0-2.618-1.265-2.618-2.843v-14.567c0-5.59 2.72-10.156 7.247-13.36 2.703-1.91 5.8-2.921 9.113-2.921zm-40.352 27.297c2.067.723 4.422.617 6.543.25 1.082-.465 3.856-1.676 4.875-1.5l.16.027.145.074c.625.301 1.219.73 1.535 1.364.746 1.488.387 2.988-1.07 3.832l-.489.28c-5.382 3.114-11.113 2.684-16.48-.226-2.566-1.39-4.531-3.453-5.98-5.972l-.336-.586c-3.457-6-2.993-12.313.906-18.016 1.347-1.973 3.105-3.496 5.164-4.687l.777-.454c5.07-2.933 10.508-2.73 15.715-.156 2.8 1.383 5.07 3.45 6.633 6.164l.281.489c1.137 1.972-.332 3.691-1.851 4.863-1.766 1.363-3.543 3.004-5.235 4.465-3.765 3.258-7.527 6.527-11.293 9.789zm-4.875-3.434c4.211-3.62 8.426-7.242 12.63-10.879 1.437-1.238 3.01-2.527 4.433-3.832-1.14-1.445-3.051-2.484-4.672-3.105-3.277-1.25-6.504-.828-9.508.906-3.93 2.277-5.605 5.899-5.46 10.406.058 1.774.534 3.485 1.476 4.996a13.55 13.55 0 0 0 1.101 1.508zm-30.64-114.008h16.754v17.165h8.472c3.91 0 7.934-.7 11.64-1.958 1.821-.617 3.864-1.48 5.657-2.562-2.363-3.094-3.57-7-3.926-10.852-.484-5.238.57-12.058 4.11-16.156l1.761-2.043 2.098 1.692c5.281 4.254 9.727 10.199 10.508 16.976 6.363-1.879 13.832-1.433 19.441 1.809l2.301 1.332-1.21 2.367c-4.743 9.273-14.661 12.148-24.352 11.64-14.504 36.204-46.083 53.344-84.372 53.344-19.78 0-37.93-7.41-48.265-25l-.172-.285-1.504-3.07c-3.492-7.742-4.652-16.223-3.867-24.695l.238-2.54h14.324V71.398h16.754V54.61h33.508V37.82h20.102v33.578"/><path fill="#219ec7" fill-rule="evenodd" d="M232.21 77.75c1.126-8.75-5.405-15.621-9.46-18.887-4.668 5.41-5.395 19.59 1.934 25.559-4.09 3.64-12.704 6.937-21.524 6.937H95.79c-.856 9.227.76 17.723 4.452 24.996l1.219 2.239a42.084 42.084 0 0 0 2.531 3.808c4.414.282 8.485.38 12.211.297 7.317-.16 13.29-1.027 17.813-2.597a1.289 1.289 0 0 1 1.601.812 1.29 1.29 0 0 1-.758 1.629c-.601.21-1.226.406-1.875.59h-.004c-3.562 1.023-7.382 1.707-12.312 2.012.293.004-.305.043-.305.043-.168.011-.379.035-.55.046-1.938.11-4.032.13-6.172.13-2.344 0-4.649-.044-7.227-.176l-.066.046c8.945 10.075 22.933 16.118 40.468 16.118 37.11 0 68.582-16.485 82.524-53.493 9.886 1.016 19.39-1.511 23.71-9.968-6.882-3.98-15.738-2.711-20.84-.141"/><path fill="#35b0d9" fill-rule="evenodd" d="M232.21 77.75c1.126-8.75-5.405-15.621-9.46-18.887-4.668 5.41-5.395 19.59 1.934 25.559-4.09 3.64-12.704 6.937-21.524 6.937H102.148c-.437 14.13 4.793 24.856 14.051 31.34h.004c7.317-.16 13.29-1.027 17.813-2.597a1.289 1.289 0 0 1 1.601.812 1.29 1.29 0 0 1-.758 1.629c-.601.21-1.226.406-1.875.59h-.004c-3.562 1.023-7.71 1.797-12.64 2.101l-.121-.117c12.629 6.492 30.941 6.469 51.933-1.61 23.543-9.066 45.45-26.331 60.73-46.077-.226.101-.452.21-.671.32"/><path fill="#197fa3" fill-rule="evenodd" d="M95.992 102.57c.668 4.942 2.11 9.57 4.25 13.785l1.219 2.239a42.084 42.084 0 0 0 2.531 3.808c4.418.282 8.488.38 12.211.297 7.317-.16 13.29-1.027 17.813-2.597a1.289 1.289 0 0 1 1.601.812 1.29 1.29 0 0 1-.758 1.629c-.601.21-1.226.406-1.875.59h-.004c-3.562 1.023-7.691 1.75-12.617 2.058-.172.008-.465.012-.637.02-1.937.11-4.011.176-6.152.176-2.34 0-4.734-.043-7.312-.176 8.945 10.078 23.02 16.14 40.554 16.14 31.77 0 59.407-12.082 75.45-38.78H95.992"/><path fill="#1c8fb3" fill-rule="evenodd" d="M103.113 102.57c1.899 8.68 6.465 15.493 13.09 20.13 7.317-.16 13.29-1.028 17.813-2.598a1.289 1.289 0 0 1 1.601.812 1.29 1.29 0 0 1-.758 1.629c-.601.21-1.226.406-1.875.59h-.004c-3.562 1.023-7.777 1.75-12.707 2.058 12.63 6.489 30.887 6.395 51.88-1.683 12.702-4.89 24.925-12.172 35.89-20.938h-104.93"/><path fill="#21a1c2" fill-rule="evenodd" d="M110.363 74.195h14.52v14.551h-14.52zm1.211 1.215h1.145v12.125h-1.145zm2.153 0h1.191v12.125h-1.191zm2.199 0h1.191v12.125h-1.191zm2.199 0h1.191v12.125h-1.191Zm2.203 0h1.192v12.125h-1.192zm2.2 0h1.144v12.125h-1.145zm4.59-18h14.519v14.547h-14.52zm1.21 1.211h1.145v12.125h-1.145zm2.152 0h1.192v12.125h-1.192zm2.2 0h1.191v12.125h-1.191zm2.199 0h1.191v12.125h-1.191zm2.203 0h1.191v12.125h-1.191zm2.2 0h1.144v12.125h-1.145zm0 0"/><path fill="#33bade" fill-rule="evenodd" d="M127.117 74.195h14.52v14.551h-14.52zm1.211 1.215h1.145v12.125h-1.145zm2.152 0h1.192v12.125h-1.192zm2.2 0h1.191v12.125h-1.191zm2.199 0h1.191v12.125h-1.191zm2.203 0h1.191v12.125h-1.191zm2.2 0h1.144v12.125h-1.145zm0 0"/><path fill="#21a1c2" fill-rule="evenodd" d="M143.871 74.195h14.52v14.551h-14.52zm1.207 1.215h1.149v12.125h-1.149zm2.156 0h1.192v12.125h-1.192zm2.2 0h1.191v12.125h-1.191zm2.199 0h1.191v12.125h-1.191zm2.199 0h1.195v12.125h-1.195zm2.203 0h1.145v12.125h-1.145zm0 0"/><path fill="#33bade" fill-rule="evenodd" d="M143.871 57.41h14.52v14.547h-14.52zm1.207 1.211h1.149v12.125h-1.149zm2.156 0h1.192v12.125h-1.192zm2.2 0h1.191v12.125h-1.191zm2.199 0h1.191v12.125h-1.191zm2.199 0h1.195v12.125h-1.195zm2.203 0h1.145v12.125h-1.145zm4.59 15.574h14.52v14.551h-14.52Zm1.207 1.215h1.148v12.125h-1.148zm2.156 0h1.192v12.125h-1.192zm2.2 0h1.19v12.125h-1.19zm2.199 0h1.191v12.125h-1.191zm2.199 0h1.195v12.125h-1.195zm2.203 0h1.145v12.125h-1.145zm0 0"/><path fill="#21a1c2" fill-rule="evenodd" d="M160.625 57.41h14.52v14.547h-14.52Zm1.207 1.211h1.148v12.125h-1.148zm2.156 0h1.192v12.125h-1.192zm2.2 0h1.19v12.125h-1.19zm2.199 0h1.191v12.125h-1.191zm2.199 0h1.195v12.125h-1.195zm2.203 0h1.145v12.125h-1.145zm0 0"/><path fill="#33bade" fill-rule="evenodd" d="M160.625 40.617h14.52v14.555h-14.52Zm1.207 1.215h1.148v12.125h-1.148zm2.156 0h1.192v12.125h-1.192zm2.2 0h1.19v12.125h-1.19zm2.199 0h1.191v12.125h-1.191zm2.199 0h1.195v12.125h-1.195zm2.203 0h1.145v12.125h-1.145zm0 0"/><path fill="#21a1c2" fill-rule="evenodd" d="M177.375 74.195h14.52v14.551h-14.52Zm1.21 1.215h1.145v12.125h-1.144zm2.153 0h1.192v12.125h-1.192zm2.203 0h1.192v12.125h-1.192zm2.2 0h1.191v12.125h-1.191zm2.199 0h1.191v12.125h-1.191zm2.2 0h1.147v12.125h-1.148zm0 0"/><path fill="#d1ebeb" fill-rule="evenodd" d="M140.727 112.34a4.004 4.004 0 0 1 3.515 1.992 4.03 4.03 0 0 1 0 4.047 4.005 4.005 0 0 1-3.515 1.988 4.011 4.011 0 0 1-3.954-4.015 4.008 4.008 0 0 1 3.954-4.012"/><path fill="#354547" fill-rule="evenodd" d="M140.727 113.477c.367 0 .714.07 1.039.195-.457.266-.68.808-.543 1.32.136.512.597.867 1.129.867.441 0 .828-.246 1.027-.609a2.88 2.88 0 0 1-.828 3.324 2.863 2.863 0 0 1-3.414.168 2.875 2.875 0 0 1-1.153-3.222 2.868 2.868 0 0 1 2.743-2.043m-70.852-9.457h186.34c-4.059-1.032-12.84-2.422-11.39-7.754-7.38 8.554-25.169 6.004-29.66 1.785-5 7.27-34.11 4.504-36.138-1.156-6.27 7.37-25.695 7.37-31.965 0-2.03 5.66-31.136 8.425-36.136 1.156-4.492 4.219-22.281 6.77-29.66-1.781 1.449 5.328-7.332 6.718-11.391 7.75"/><path fill="#bdd9d7" fill-rule="evenodd" d="M151.375 141.266c-9.922-4.72-15.363-11.13-18.395-18.13-3.683 1.052-8.113 1.727-13.261 2.016a108.7 108.7 0 0 1-6.117.164c-2.47 0-5.067-.074-7.797-.218 9.097 9.113 20.289 16.129 41.011 16.254 1.532 0 3.047-.028 4.559-.086"/><path fill="#d1ebeb" fill-rule="evenodd" d="M136.664 129.594c-1.371-1.867-2.703-4.211-3.68-6.461-3.687 1.055-8.117 1.73-13.265 2.02 3.535 1.921 8.594 3.706 16.949 4.44"/><path fill="#1c8fb3" d="M238.495 122.184h20.681V143.5h-20.68z"/><path fill="#4d4d4d" fill-rule="evenodd" d="M234.495 156.533h4.493v-5.072h-4.493zm-2.456-39.13h30.452c1.042 0 1.898.791 1.898 1.764v28.395c0 .969-.856 1.764-1.898 1.764h-30.452c-1.043 0-1.898-.795-1.898-1.764v-28.399c0-.969.851-1.76 1.898-1.76zm8.016 8.245h14.411c.632 0 1.145.48 1.145 1.063v13.295c0 .587-.517 1.064-1.145 1.064h-14.41c-.632 0-1.146-.481-1.146-1.064v-13.295c0-.582.514-1.063 1.145-1.063zm32.802 9.21v3.467H267.4v-3.467zm0-6.632v3.467H267.4v-3.467zm0 13.268v4.175H267.4v-4.175zm0-20.612v4.175H267.4v-4.175zm-50.052 13.976v3.467h5.458v-3.467zm0-6.632v3.467h5.458v-3.467zm0 13.268v4.175h5.458v-4.175zm0-20.612v4.175h5.458v-4.175zm26.729-10.864h3.73v5.072h-3.73zm-7.137 0h3.731v5.072h-3.73zm14.277 0h4.493v5.072h-4.493zm-22.179 0h4.493v5.072h-4.493zm15.039 46.515h3.73v-5.072h-3.73zm-7.137 0h3.731v-5.072h-3.73zm14.277 0h4.493v-5.072h-4.493z" clip-rule="evenodd"/></svg>