<?xml version="1.0" encoding="UTF-8" standalone="no"?>
<svg
   xmlns:dc="http://purl.org/dc/elements/1.1/"
   xmlns:cc="http://creativecommons.org/ns#"
   xmlns:rdf="http://www.w3.org/1999/02/22-rdf-syntax-ns#"
   xmlns:svg="http://www.w3.org/2000/svg"
   xmlns="http://www.w3.org/2000/svg"
   xmlns:xlink="http://www.w3.org/1999/xlink"
   xmlns:sodipodi="http://sodipodi.sourceforge.net/DTD/sodipodi-0.dtd"
   xmlns:inkscape="http://www.inkscape.org/namespaces/inkscape"
   width="324px"
   height="234px"
   viewBox="0 0 324 234"
   version="1.1"
   id="svg39"
   sodipodi:docname="containerd.io.svg"
   inkscape:version="1.0.2 (e86c870879, 2021-01-15)">
  <metadata
     id="metadata45">
    <rdf:RDF>
      <cc:Work
         rdf:about="">
        <dc:format>image/svg+xml</dc:format>
        <dc:type
           rdf:resource="http://purl.org/dc/dcmitype/StillImage" />
      </cc:Work>
    </rdf:RDF>
  </metadata>
  <defs
     id="defs43">
    <filter
       id="filter0_dd"
       x="3.0249901"
       y="15"
       width="18.950001"
       height="25.875"
       filterUnits="userSpaceOnUse"
       color-interpolation-filters="sRGB">
      <feFlood
         flood-opacity="0"
         result="BackgroundImageFix"
         id="feFlood29" />
      <feColorMatrix
         in="SourceAlpha"
         type="matrix"
         values="0 0 0 0 0 0 0 0 0 0 0 0 0 0 0 0 0 0 127 0"
         id="feColorMatrix31" />
      <feOffset
         dy="0.5"
         id="feOffset33" />
      <feGaussianBlur
         stdDeviation="0.5"
         id="feGaussianBlur35" />
      <feColorMatrix
         type="matrix"
         values="0 0 0 0 0 0 0 0 0 0 0 0 0 0 0 0 0 0 0.1 0"
         id="feColorMatrix37" />
      <feBlend
         mode="normal"
         in2="BackgroundImageFix"
         result="effect1_dropShadow"
         id="feBlend39" />
      <feColorMatrix
         in="SourceAlpha"
         type="matrix"
         values="0 0 0 0 0 0 0 0 0 0 0 0 0 0 0 0 0 0 127 0"
         id="feColorMatrix41" />
      <feOffset
         dy="1"
         id="feOffset43" />
      <feGaussianBlur
         stdDeviation="1.5"
         id="feGaussianBlur45" />
      <feColorMatrix
         type="matrix"
         values="0 0 0 0 0 0 0 0 0 0 0 0 0 0 0 0 0 0 0.2 0"
         id="feColorMatrix47" />
      <feBlend
         mode="normal"
         in2="effect1_dropShadow"
         result="effect2_dropShadow"
         id="feBlend49" />
      <feBlend
         mode="normal"
         in="SourceGraphic"
         in2="effect2_dropShadow"
         result="shape"
         id="feBlend51" />
    </filter>
    <filter
       id="filter1_dd"
       x="3.0249901"
       y="15"
       width="18.950001"
       height="18.875"
       filterUnits="userSpaceOnUse"
       color-interpolation-filters="sRGB">
      <feFlood
         flood-opacity="0"
         result="BackgroundImageFix"
         id="feFlood54" />
      <feColorMatrix
         in="SourceAlpha"
         type="matrix"
         values="0 0 0 0 0 0 0 0 0 0 0 0 0 0 0 0 0 0 127 0"
         id="feColorMatrix56" />
      <feOffset
         dy="0.5"
         id="feOffset58" />
      <feGaussianBlur
         stdDeviation="0.5"
         id="feGaussianBlur60" />
      <feColorMatrix
         type="matrix"
         values="0 0 0 0 0 0 0 0 0 0 0 0 0 0 0 0 0 0 0.1 0"
         id="feColorMatrix62" />
      <feBlend
         mode="normal"
         in2="BackgroundImageFix"
         result="effect1_dropShadow"
         id="feBlend64" />
      <feColorMatrix
         in="SourceAlpha"
         type="matrix"
         values="0 0 0 0 0 0 0 0 0 0 0 0 0 0 0 0 0 0 127 0"
         id="feColorMatrix66" />
      <feOffset
         dy="1"
         id="feOffset68" />
      <feGaussianBlur
         stdDeviation="1.5"
         id="feGaussianBlur70" />
      <feColorMatrix
         type="matrix"
         values="0 0 0 0 0 0 0 0 0 0 0 0 0 0 0 0 0 0 0.2 0"
         id="feColorMatrix72" />
      <feBlend
         mode="normal"
         in2="effect1_dropShadow"
         result="effect2_dropShadow"
         id="feBlend74" />
      <feBlend
         mode="normal"
         in="SourceGraphic"
         in2="effect2_dropShadow"
         result="shape"
         id="feBlend76" />
    </filter>
    <filter
       id="filter2_dd"
       x="20"
       y="30"
       width="24"
       height="11"
       filterUnits="userSpaceOnUse"
       color-interpolation-filters="sRGB">
      <feFlood
         flood-opacity="0"
         result="BackgroundImageFix"
         id="feFlood79" />
      <feColorMatrix
         in="SourceAlpha"
         type="matrix"
         values="0 0 0 0 0 0 0 0 0 0 0 0 0 0 0 0 0 0 127 0"
         id="feColorMatrix81" />
      <feOffset
         dy="0.5"
         id="feOffset83" />
      <feGaussianBlur
         stdDeviation="0.5"
         id="feGaussianBlur85" />
      <feColorMatrix
         type="matrix"
         values="0 0 0 0 0 0 0 0 0 0 0 0 0 0 0 0 0 0 0.1 0"
         id="feColorMatrix87" />
      <feBlend
         mode="normal"
         in2="BackgroundImageFix"
         result="effect1_dropShadow"
         id="feBlend89" />
      <feColorMatrix
         in="SourceAlpha"
         type="matrix"
         values="0 0 0 0 0 0 0 0 0 0 0 0 0 0 0 0 0 0 127 0"
         id="feColorMatrix91" />
      <feOffset
         dy="1"
         id="feOffset93" />
      <feGaussianBlur
         stdDeviation="1.5"
         id="feGaussianBlur95" />
      <feColorMatrix
         type="matrix"
         values="0 0 0 0 0 0 0 0 0 0 0 0 0 0 0 0 0 0 0.2 0"
         id="feColorMatrix97" />
      <feBlend
         mode="normal"
         in2="effect1_dropShadow"
         result="effect2_dropShadow"
         id="feBlend99" />
      <feBlend
         mode="normal"
         in="SourceGraphic"
         in2="effect2_dropShadow"
         result="shape"
         id="feBlend101" />
    </filter>
    <linearGradient
       id="paint0_linear"
       x1="36.446201"
       y1="47.825699"
       x2="11.8217"
       y2="5.1747999"
       gradientUnits="userSpaceOnUse"
       gradientTransform="matrix(1.4978445,0,0,1.3419151,222.74405,101.11317)">
      <stop
         stop-color="#333333"
         id="stop104" />
      <stop
         offset="1"
         stop-color="#4D4D4D"
         id="stop106" />
    </linearGradient>
    <linearGradient
       id="paint1_linear"
       x1="14.5276"
       y1="33.995899"
       x2="10.4841"
       y2="26.992399"
       gradientUnits="userSpaceOnUse">
      <stop
         stop-color="#999999"
         id="stop109" />
      <stop
         offset="1"
         stop-color="#B3B3B3"
         id="stop111" />
    </linearGradient>
    <linearGradient
       id="paint3_linear"
       x1="16.2747"
       y1="30.0336"
       x2="8.73699"
       y2="16.9781"
       gradientUnits="userSpaceOnUse">
      <stop
         stop-color="#CCCCCC"
         id="stop119" />
      <stop
         offset="1"
         stop-color="#E6E6E6"
         id="stop121" />
    </linearGradient>
    <linearGradient
       id="paint5_linear"
       x1="35.149601"
       y1="39.955299"
       x2="28.850401"
       y2="29.044701"
       gradientUnits="userSpaceOnUse">
      <stop
         stop-color="#CCCCCC"
         id="stop129" />
      <stop
         offset="1"
         stop-color="#E6E6E6"
         id="stop131" />
    </linearGradient>
    <linearGradient
       inkscape:collect="always"
       xlink:href="#paint3_linear"
       id="linearGradient193"
       gradientUnits="userSpaceOnUse"
       x1="16.2747"
       y1="30.0336"
       x2="8.73699"
       y2="16.9781" />
    <mask
       id="mask0"
       mask-type="alpha"
       maskUnits="userSpaceOnUse"
       x="6"
       y="24"
       width="13"
       height="13">
      <path
         d="m 15.2,24.3 -8.80001,8.8 c -0.5,0.5 -0.5,1.2 0,1.6 l 1.8,1.8 C 8.69999,37 9.4,37 9.8,36.5 l 8.8,-8.8 c 0.5,-0.5 0.5,-1.2 0,-1.6 l -1.8,-1.8 c -0.4,-0.4 -1.2,-0.4 -1.6,0 z"
         fill="url(#paint2_linear)"
         id="path12-3"
         style="fill:url(#paint1_linear)" />
    </mask>
  </defs>
  <sodipodi:namedview
     pagecolor="#ffffff"
     bordercolor="#666666"
     borderopacity="1"
     objecttolerance="10"
     gridtolerance="10"
     guidetolerance="10"
     inkscape:pageopacity="0"
     inkscape:pageshadow="2"
     inkscape:window-width="1920"
     inkscape:window-height="969"
     id="namedview41"
     showgrid="false"
     inkscape:zoom="1.7115385"
     inkscape:cx="264.69538"
     inkscape:cy="208.46455"
     inkscape:window-x="0"
     inkscape:window-y="0"
     inkscape:window-maximized="1"
     inkscape:current-layer="svg39" />
  <rect
     x="0"
     y="0"
     width="324"
     height="234"
     style="fill:#ebebeb;fill-opacity:1;stroke:none"
     id="rect2" />
  <path
     style="fill:none;stroke:#ffffff;stroke-width:1.83906;stroke-linecap:butt;stroke-linejoin:miter;stroke-miterlimit:4;stroke-opacity:1"
     d="M -1.699218,-1.9492182 H 326.19141 V 235.08985 H -1.699218 Z m 0,0"
     id="path4" />
  <g
     id="g1099">
    <path
       style="fill:#354547;fill-opacity:1;fill-rule:evenodd;stroke:none"
       d="m 98.167969,165.5625 v -12.01172 c 0,-1.57812 0.984375,-2.84766 2.617191,-2.84766 h 0.44922 c 1.63281,0 2.61328,1.26954 2.61328,2.84766 v 25.29297 c 0,6.16797 -3.04297,11.07422 -8.339848,14.19922 -2.429687,1.4414 -5.199218,2.19922 -8.019531,2.1914 h -1.125 c -6.15625,0 -11.046875,-3.04687 -14.171875,-8.35546 -1.441406,-2.42969 -2.195312,-5.20704 -2.1875,-8.03516 v -1.12891 c 0,-6.16797 3.042969,-11.07422 8.335938,-14.20703 2.429687,-1.4414 5.199218,-2.19922 8.023437,-2.1914 h 1.125 c 4.164063,0 7.699219,1.62109 10.679688,4.24609 z m -22.488281,12.71484 c 0,4.45703 2.15625,7.80469 6.050781,9.94141 1.578125,0.86328 3.285156,1.32812 5.082031,1.32812 4.367188,0 7.601562,-2.0625 9.835938,-5.76953 1.035156,-1.72265 1.519531,-3.60937 1.519531,-5.61328 0,-3.86328 -1.824219,-6.8789 -4.929688,-9.11719 -1.882812,-1.35546 -4,-2.03515 -6.3125,-2.03515 -4.757812,0 -8.179687,2.40625 -10.234375,6.68359 -0.695312,1.44922 -1.011718,2.98438 -1.011718,4.58203 z m 47.863282,-16.96093 h 0.78516 c 6.57812,0 11.58203,3.19921 14.74999,8.95312 1.26954,2.30078 1.94922,4.8125 1.94922,7.44531 v 1.12891 c 0,6.16797 -3.03515,11.08203 -8.34375,14.19922 -2.45703,1.44531 -5.16796,2.1914 -8.01562,2.1914 h -1.125 c -6.15625,0 -11.04688,-3.04687 -14.17188,-8.35546 -1.4414,-2.42969 -2.19921,-5.20704 -2.1875,-8.03516 v -1.12891 c 0,-6.16797 3.05469,-11.05859 8.33594,-14.20312 2.45313,-1.46094 5.16797,-2.19531 8.02344,-2.19531 z m -10.68359,16.96093 c 0,4.32422 2.11718,7.50782 5.76171,9.74219 1.71094,1.05078 3.59766,1.52734 5.59766,1.52734 4.26562,0 7.41406,-2.16796 9.60937,-5.77343 1.04688,-1.71875 1.51954,-3.60938 1.51954,-5.60938 0,-4.02344 -1.9336,-7.09375 -5.23829,-9.32031 -1.80859,-1.22266 -3.82421,-1.83203 -6.0039,-1.83203 -4.75781,0 -8.17969,2.40625 -10.23438,6.68359 -0.69531,1.44922 -1.01171,2.98438 -1.01171,4.58203 z m 51.76953,-10.8125 c -0.85938,-0.40234 -2.46485,-0.53515 -3.39063,-0.57031 -4.74219,-0.17969 -8.17578,2.49609 -10.1875,6.69141 -0.69531,1.44531 -1.01172,2.97656 -1.01172,4.57812 0,4.8711 2.55078,8.28516 6.89453,10.36328 1.58203,0.75782 3.63282,0.90235 5.36328,0.90235 1.52344,0 3.67969,-0.9336 5.03125,-1.57813 l 0.23438,-0.11328 h 1.05078 l 0.11328,0.0234 c 1.29297,0.26953 2.26563,1.08984 2.26563,2.48437 v 0.5625 c 0,3.46485 -6.31641,4.25782 -8.72657,4.42578 -8.50781,0.58985 -14.86718,-4.09375 -17.29296,-12.22265 -0.42188,-1.41016 -0.60938,-2.8125 -0.60938,-4.28516 v -1.125 c 0,-6.17187 3.05469,-11.05859 8.33203,-14.19922 2.45703,-1.46093 5.17188,-2.19531 8.02344,-2.19531 h 1.125 c 3.02734,0 5.81641,0.85938 8.3125,2.57031 l 0.20703,0.14063 0.12891,0.21484 c 0.26953,0.44922 0.5,0.96875 0.5,1.5 v 0.5625 c 0,1.45313 -1.08203,2.23438 -2.39063,2.48828 l -0.10937,0.0156 h -0.33594 c -0.84766,0 -2.77344,-0.87891 -3.52734,-1.23438 z m 18.41406,3.85157 c 2.20312,-2.21094 4.41797,-4.42188 6.65625,-6.59766 0.62109,-0.60547 2.98437,-3.17578 3.91406,-3.17578 h 1.01563 l 0.11718,0.0234 c 1.29688,0.26953 2.26563,1.09375 2.26563,2.48828 v 0.5625 c 0,0.94922 -1.11328,2.05468 -1.72656,2.70703 -1.30469,1.38672 -2.67579,2.72656 -4.01172,4.08203 l -6.85938,6.97656 c 2.95313,2.96875 5.90235,5.9375 8.83203,8.92578 0.8125,0.82422 1.6211,1.65625 2.41797,2.49219 0.28516,0.29688 0.69922,0.66797 0.9375,1.08203 0.25391,0.38281 0.41016,0.82031 0.41016,1.28516 v 0.58594 l -0.0352,0.13671 c -0.3164,1.29688 -1.14062,2.34375 -2.57422,2.34375 h -0.45312 c -0.9375,0 -2,-1.0625 -2.64453,-1.67187 -1.32422,-1.25391 -2.60547,-2.57031 -3.90235,-3.84766 l -4.35937,-4.28906 v 6.85156 c 0,1.57813 -0.98828,2.84766 -2.61719,2.84766 h -0.44531 c -1.63281,0 -2.61719,-1.26953 -2.61719,-2.84766 v -38.61718 c 0,-1.57813 0.98828,-2.83985 2.61719,-2.83985 h 0.44531 c 1.62891,0 2.61719,1.26172 2.61719,2.83985 z m 70.75781,-9.77344 h 0.5625 c 1.70313,0 2.83984,1.14844 2.83984,2.84765 0,2.35547 -2.24609,2.95704 -4.1914,2.95704 -2.54688,0 -4.98438,1.54687 -6.74219,3.28125 -2.19141,2.16796 -3.14844,4.9375 -3.14844,7.98828 v 13.77343 c 0,1.57813 -0.98437,2.84375 -2.61718,2.84375 h -0.44532 c -1.63281,0 -2.61718,-1.26562 -2.61718,-2.84375 v -14.5664 c 0,-5.58985 2.71875,-10.15625 7.24609,-13.35938 2.70312,-1.91015 5.80078,-2.92187 9.11328,-2.92187 z m -40.35156,27.29687 c 2.0664,0.72266 4.42187,0.61719 6.54297,0.25 1.08203,-0.46484 3.85547,-1.67578 4.875,-1.5 l 0.16015,0.0273 0.14453,0.0742 c 0.625,0.30078 1.21875,0.73046 1.53516,1.36328 0.74609,1.48828 0.38672,2.98828 -1.07031,3.83203 l -0.48828,0.28125 c -5.38282,3.11328 -11.11328,2.68359 -16.48047,-0.22656 -2.56641,-1.39063 -4.53125,-3.45313 -5.98047,-5.97266 l -0.33594,-0.58594 c -3.45703,-6 -2.99219,-12.3125 0.90625,-18.01562 1.34766,-1.97266 3.10547,-3.4961 5.16406,-4.6875 l 0.77735,-0.45313 c 5.07031,-2.93359 10.50781,-2.73047 15.71484,-0.15625 2.80078,1.38281 5.07031,3.44922 6.63281,6.16406 l 0.28125,0.48829 c 1.13672,1.97265 -0.33203,3.6914 -1.85156,4.86328 -1.76562,1.36328 -3.54297,3.0039 -5.23437,4.46484 -3.76563,3.25781 -7.52735,6.52734 -11.29297,9.78906 z m -4.875,-3.43359 c 4.21094,-3.62109 8.42578,-7.24219 12.6289,-10.87891 1.4375,-1.23828 3.01172,-2.52734 4.4336,-3.83203 -1.14063,-1.44531 -3.05078,-2.48437 -4.67188,-3.10547 -3.27734,-1.25 -6.5039,-0.82812 -9.50781,0.90625 -3.92969,2.27735 -5.60547,5.89844 -5.46094,10.40625 0.0586,1.77344 0.53516,3.48438 1.47657,4.9961 0.33203,0.53125 0.70312,1.03125 1.10156,1.50781 z M 177.93359,71.398438 H 194.6875 V 88.5625 h 8.47266 c 3.91015,0 7.93359,-0.699219 11.64062,-1.957031 1.82031,-0.617188 3.86328,-1.480469 5.65625,-2.5625 -2.36328,-3.09375 -3.57031,-7 -3.92578,-10.851563 -0.48438,-5.238281 0.57031,-12.058594 4.10937,-16.15625 l 1.76172,-2.042968 2.09766,1.691406 c 5.28125,4.253906 9.72656,10.199218 10.50781,16.976562 6.36328,-1.878906 13.83203,-1.433594 19.44141,1.808594 l 2.30078,1.332031 -1.21094,2.367188 c -4.74219,9.273437 -14.66015,12.148437 -24.35156,11.640625 -14.50391,36.203126 -46.08203,53.343746 -84.37109,53.343746 -19.78125,0 -37.92969,-7.41015 -48.265629,-25 L 98.378906,118.86719 96.875,115.79688 C 93.382812,108.05469 92.222656,99.574219 93.007812,91.101562 L 93.246094,88.5625 H 107.57031 V 71.398438 h 16.75391 V 54.609375 h 33.50781 V 37.820312 h 20.10156 v 33.578126"
       id="path6" />
    <path
       style="fill:#219ec7;fill-opacity:1;fill-rule:evenodd;stroke:none"
       d="m 232.21094,77.75 c 1.125,-8.75 -5.40625,-15.621094 -9.46094,-18.886719 -4.66797,5.410157 -5.39453,19.589844 1.93359,25.558594 -4.08984,3.640625 -12.70312,6.9375 -21.52343,6.9375 H 95.789062 c -0.855468,9.226565 0.761719,17.722655 4.453128,24.996095 l 1.21875,2.23828 c 0.77344,1.31641 1.62109,2.58594 2.53125,3.80859 4.41406,0.28125 8.48437,0.37891 12.21094,0.29688 7.3164,-0.16016 13.28906,-1.02734 17.81249,-2.59766 0.66407,-0.20703 1.375,0.15235 1.60157,0.8125 0.23047,0.65625 -0.10547,1.37891 -0.75782,1.62891 -0.60156,0.21094 -1.22656,0.40625 -1.875,0.58984 h -0.004 c -3.5625,1.02344 -7.38281,1.70703 -12.3125,2.01172 0.29297,0.004 -0.30469,0.043 -0.30469,0.043 -0.16797,0.0117 -0.3789,0.0352 -0.55078,0.0469 -1.9375,0.10937 -4.03125,0.1289 -6.17187,0.1289 -2.34375,0 -4.64844,-0.043 -7.22657,-0.17578 l -0.0664,0.0469 c 8.94531,10.07421 22.93359,16.11718 40.46875,16.11718 37.10937,0 68.58203,-16.48437 82.52343,-53.492185 9.88672,1.015625 19.39063,-1.511719 23.71094,-9.96875 C 246.16797,73.910156 237.3125,75.179688 232.21094,77.75"
       id="path8" />
    <path
       style="fill:#35b0d9;fill-opacity:1;fill-rule:evenodd;stroke:none"
       d="m 232.21094,77.75 c 1.125,-8.75 -5.40625,-15.621094 -9.46094,-18.886719 -4.66797,5.410157 -5.39453,19.589844 1.93359,25.558594 -4.08984,3.640625 -12.70312,6.9375 -21.52343,6.9375 H 102.14844 c -0.4375,14.128905 4.79297,24.855465 14.05078,31.339845 h 0.004 c 7.3164,-0.16016 13.28906,-1.02734 17.81249,-2.59766 0.66407,-0.20703 1.375,0.15235 1.60157,0.8125 0.23047,0.65625 -0.10547,1.37891 -0.75782,1.62891 -0.60156,0.21094 -1.22656,0.40625 -1.875,0.58984 h -0.004 c -3.5625,1.02344 -7.71094,1.79688 -12.64063,2.10157 0,0 -0.12109,-0.11719 -0.12109,-0.11719 12.62891,6.49218 30.94141,6.46875 51.93359,-1.60938 23.54297,-9.0664 45.44922,-26.332029 60.73047,-46.078122 -0.22656,0.101562 -0.45312,0.210937 -0.67187,0.320312"
       id="path10" />
    <path
       style="fill:#197fa3;fill-opacity:1;fill-rule:evenodd;stroke:none"
       d="m 95.992188,102.57031 c 0.667968,4.94141 2.109374,9.57032 4.250002,13.78516 l 1.21875,2.23828 c 0.77344,1.31641 1.62109,2.58594 2.53125,3.80859 4.41797,0.28125 8.48828,0.37891 12.21094,0.29688 7.3164,-0.16016 13.28906,-1.02734 17.81249,-2.59766 0.66407,-0.20703 1.375,0.15235 1.60157,0.8125 0.23047,0.65625 -0.10547,1.37891 -0.75782,1.62891 -0.60156,0.21094 -1.22656,0.40625 -1.875,0.58984 h -0.004 c -3.5625,1.02344 -7.69141,1.75 -12.61719,2.0586 -0.17187,0.008 -0.46484,0.0117 -0.63672,0.0195 -1.9375,0.10937 -4.01172,0.17578 -6.15234,0.17578 -2.33984,0 -4.73438,-0.043 -7.3125,-0.17578 8.94531,10.07812 23.01953,16.14062 40.55469,16.14062 31.76953,0 59.40625,-12.08203 75.44921,-38.78125 H 95.992188"
       id="path12" />
    <path
       style="fill:#1c8fb3;fill-opacity:1;fill-rule:evenodd;stroke:none"
       d="m 103.11328,102.57031 c 1.89844,8.67969 6.46485,15.49219 13.08985,20.12891 7.3164,-0.16016 13.28906,-1.02734 17.81249,-2.59766 0.66407,-0.20703 1.375,0.15235 1.60157,0.8125 0.23047,0.65625 -0.10547,1.37891 -0.75782,1.62891 -0.60156,0.21094 -1.22656,0.40625 -1.875,0.58984 h -0.004 c -3.5625,1.02344 -7.77734,1.75 -12.70703,2.0586 12.6289,6.48828 30.88672,6.39453 51.8789,-1.6836 12.70313,-4.89062 24.92578,-12.17187 35.89063,-20.9375 H 103.11328"
       id="path14" />
    <path
       style="fill:#21a1c2;fill-opacity:1;fill-rule:evenodd;stroke:none"
       d="m 110.36328,74.195312 h 14.51953 v 14.550782 h -14.51953 z m 1.21094,1.214844 h 1.14453 v 12.125 h -1.14453 z m 2.15234,0 h 1.19141 v 12.125 h -1.19141 z m 2.19922,0 h 1.19141 v 12.125 h -1.19141 z m 2.19922,0 h 1.19141 v 12.125 H 118.125 Z m 2.20313,0 h 1.1914 v 12.125 h -1.1914 z m 2.19921,0 h 1.14454 v 12.125 h -1.14454 z m 4.58985,-18 h 14.51953 v 14.546875 h -14.51953 z m 1.21093,1.210938 h 1.14454 v 12.125 h -1.14454 z m 2.15235,0 h 1.1914 v 12.125 h -1.1914 z m 2.19922,0 h 1.1914 v 12.125 h -1.1914 z m 2.19922,0 h 1.1914 v 12.125 h -1.1914 z m 2.20312,0 h 1.19141 v 12.125 h -1.19141 z m 2.19922,0 h 1.14453 v 12.125 h -1.14453 z m 0,0"
       id="path16" />
    <path
       style="fill:#33bade;fill-opacity:1;fill-rule:evenodd;stroke:none"
       d="m 127.11719,74.195312 h 14.51953 v 14.550782 h -14.51953 z m 1.21093,1.214844 h 1.14454 v 12.125 h -1.14454 z m 2.15235,0 h 1.1914 v 12.125 h -1.1914 z m 2.19922,0 h 1.1914 v 12.125 h -1.1914 z m 2.19922,0 h 1.1914 v 12.125 h -1.1914 z m 2.20312,0 h 1.19141 v 12.125 h -1.19141 z m 2.19922,0 h 1.14453 v 12.125 h -1.14453 z m 0,0"
       id="path18" />
    <path
       style="fill:#21a1c2;fill-opacity:1;fill-rule:evenodd;stroke:none"
       d="m 143.87109,74.195312 h 14.51953 v 14.550782 h -14.51953 z m 1.20703,1.214844 h 1.14844 v 12.125 h -1.14844 z m 2.15625,0 h 1.19141 v 12.125 h -1.19141 z m 2.19922,0 h 1.19141 v 12.125 h -1.19141 z m 2.19922,0 h 1.19141 v 12.125 h -1.19141 z m 2.19922,0 h 1.19531 v 12.125 h -1.19531 z m 2.20313,0 h 1.14453 v 12.125 h -1.14453 z m 0,0"
       id="path20" />
    <path
       style="fill:#33bade;fill-opacity:1;fill-rule:evenodd;stroke:none"
       d="m 143.87109,57.410156 h 14.51953 v 14.546875 h -14.51953 z m 1.20703,1.210938 h 1.14844 v 12.125 h -1.14844 z m 2.15625,0 h 1.19141 v 12.125 h -1.19141 z m 2.19922,0 h 1.19141 v 12.125 h -1.19141 z m 2.19922,0 h 1.19141 v 12.125 h -1.19141 z m 2.19922,0 h 1.19531 v 12.125 h -1.19531 z m 2.20313,0 h 1.14453 v 12.125 h -1.14453 z m 4.58984,15.574218 h 14.51953 V 88.746094 H 160.625 Z m 1.20703,1.214844 h 1.14844 v 12.125 h -1.14844 z m 2.15625,0 h 1.19141 v 12.125 h -1.19141 z m 2.19922,0 h 1.19141 v 12.125 h -1.19141 z m 2.19922,0 h 1.1914 v 12.125 h -1.1914 z m 2.19922,0 h 1.19531 v 12.125 h -1.19531 z m 2.20312,0 h 1.14453 v 12.125 h -1.14453 z m 0,0"
       id="path22" />
    <path
       style="fill:#21a1c2;fill-opacity:1;fill-rule:evenodd;stroke:none"
       d="m 160.625,57.410156 h 14.51953 V 71.957031 H 160.625 Z m 1.20703,1.210938 h 1.14844 v 12.125 h -1.14844 z m 2.15625,0 h 1.19141 v 12.125 h -1.19141 z m 2.19922,0 h 1.19141 v 12.125 h -1.19141 z m 2.19922,0 h 1.1914 v 12.125 h -1.1914 z m 2.19922,0 h 1.19531 v 12.125 h -1.19531 z m 2.20312,0 h 1.14453 v 12.125 h -1.14453 z m 0,0"
       id="path24" />
    <path
       style="fill:#33bade;fill-opacity:1;fill-rule:evenodd;stroke:none"
       d="m 160.625,40.617188 h 14.51953 V 55.171875 H 160.625 Z m 1.20703,1.214843 h 1.14844 v 12.125 h -1.14844 z m 2.15625,0 h 1.19141 v 12.125 h -1.19141 z m 2.19922,0 h 1.19141 v 12.125 h -1.19141 z m 2.19922,0 h 1.1914 v 12.125 h -1.1914 z m 2.19922,0 h 1.19531 v 12.125 h -1.19531 z m 2.20312,0 h 1.14453 v 12.125 h -1.14453 z m 0,0"
       id="path26" />
    <path
       style="fill:#21a1c2;fill-opacity:1;fill-rule:evenodd;stroke:none"
       d="m 177.375,74.195312 h 14.51953 V 88.746094 H 177.375 Z m 1.21094,1.214844 h 1.14453 v 12.125 h -1.14453 z m 2.15234,0 h 1.19141 v 12.125 h -1.19141 z m 2.20313,0 h 1.1914 v 12.125 h -1.1914 z m 2.19921,0 h 1.19141 v 12.125 h -1.19141 z m 2.19922,0 h 1.19141 v 12.125 h -1.19141 z m 2.19922,0 h 1.14844 v 12.125 h -1.14844 z m 0,0"
       id="path28" />
    <path
       style="fill:#d1ebeb;fill-opacity:1;fill-rule:evenodd;stroke:none"
       d="m 140.72656,112.33984 c 1.44531,-0.0195 2.78906,0.74219 3.51563,1.99219 0.72656,1.25 0.72656,2.79688 0,4.04688 -0.73047,1.25 -2.07032,2.00781 -3.51563,1.98828 -2.1914,-0.0312 -3.95312,-1.81641 -3.95312,-4.01563 0,-2.19531 1.76172,-3.98437 3.95312,-4.01172"
       id="path30" />
    <path
       style="fill:#354547;fill-opacity:1;fill-rule:evenodd;stroke:none"
       d="m 140.72656,113.47656 c 0.36719,0 0.71485,0.0703 1.03906,0.19532 -0.45703,0.26562 -0.67968,0.80859 -0.54296,1.32031 0.13671,0.51172 0.59765,0.86719 1.1289,0.86719 0.44141,0 0.82813,-0.2461 1.02735,-0.60938 0.48437,1.16797 0.14843,2.51953 -0.82813,3.32422 -0.97656,0.80469 -2.36328,0.87109 -3.41406,0.16797 -1.05078,-0.70313 -1.51953,-2.01172 -1.15235,-3.22266 0.36329,-1.21094 1.48047,-2.04297 2.74219,-2.04297 M 69.875,104.01953 h 186.33984 c -4.05859,-1.03125 -12.83984,-2.42187 -11.39062,-7.753905 -7.37891,8.554685 -25.16797,6.003905 -29.66016,1.785156 -5,7.269529 -34.10937,4.503909 -36.13672,-1.15625 -6.26953,7.371099 -25.69531,7.371099 -31.96484,0 -2.03125,5.660159 -31.13672,8.425779 -36.13672,1.15625 -4.49219,4.218749 -22.281249,6.769529 -29.660155,-1.78125 1.449219,5.328129 -7.332031,6.718749 -11.390625,7.749999"
       id="path32" />
    <path
       style="fill:#bdd9d7;fill-opacity:1;fill-rule:evenodd;stroke:none"
       d="m 151.375,141.26562 c -9.92188,-4.71875 -15.36328,-11.1289 -18.39453,-18.1289 -3.6836,1.05078 -8.11328,1.72656 -13.26172,2.01562 -1.9375,0.10938 -3.97656,0.16407 -6.11719,0.16407 -2.46875,0 -5.0664,-0.0742 -7.79687,-0.21875 9.09765,9.11328 20.28906,16.1289 41.01172,16.2539 1.53125,0 3.04687,-0.0273 4.55859,-0.0859"
       id="path34" />
    <path
       style="fill:#d1ebeb;fill-opacity:1;fill-rule:evenodd;stroke:none"
       d="m 136.66406,129.59375 c -1.37109,-1.86719 -2.70312,-4.21094 -3.67969,-6.46094 -3.6875,1.05469 -8.11718,1.73047 -13.26562,2.01953 3.53516,1.92188 8.59375,3.70703 16.94922,4.44141"
       id="path36" />
    <g
       id="g1070"
       transform="matrix(0.92363469,0,0,0.95101987,19.620767,6.7302957)">
      <path
         d="m 222.74405,118.55807 h 23.96551 v -9.39341 h -20.96982 c -1.64763,0 -2.99569,1.20772 -2.99569,2.68383 z"
         fill="#cccccc"
         id="path2"
         style="fill:#1c9ab3;fill-opacity:1;stroke-width:1.41774" />
      <path
         d="m 270.67507,109.16466 h -23.96551 v 9.39341 h 23.96551 z"
         fill="#999999"
         id="path4-3"
         style="fill:#35b0d9;fill-opacity:1;stroke-width:1.41774" />
      <path
         d="m 294.64059,118.55807 h -23.96552 v -9.39341 h 20.96983 c 1.64763,0 2.99569,1.20772 2.99569,2.68383 z"
         fill="#666666"
         id="path6-6"
         style="fill:#197fa3;fill-opacity:1;stroke-width:1.41774" />
      <path
         d="m 291.6449,157.4736 h -65.90516 c -1.64763,0 -2.99569,-1.20772 -2.99569,-2.68383 v -37.57362 h 71.89654 v 37.57362 c 0,1.47611 -1.34806,2.68383 -2.99569,2.68383 z"
         fill="url(#paint0_linear)"
         id="path8-7"
         style="fill:url(#paint0_linear);stroke-width:1.41774" />
      <path
         d="m 15.2,24.3 -8.80001,8.8 c -0.5,0.5 -0.5,1.2 0,1.6 l 1.8,1.8 C 8.69999,37 9.4,37 9.8,36.5 l 8.8,-8.8 c 0.5,-0.5 0.5,-1.2 0,-1.6 l -1.8,-1.8 c -0.4,-0.4 -1.2,-0.4 -1.6,0 z"
         fill="url(#paint1_linear)"
         id="path10-5"
         style="fill:#197fa3;fill-opacity:1;filter:url(#filter0_dd)"
         transform="matrix(1.4978445,0,0,1.3419151,222.74405,101.11317)" />
      <g
         mask="url(#mask0)"
         id="g19"
         style="fill:none;filter:url(#filter0_dd)"
         transform="matrix(1.4978445,0,0,1.3419151,222.74405,101.11317)">
        <g
           filter="url(#filter1_dd)"
           id="g17">
          <path
             d="m 9.8,17.3 8.8,8.8 c 0.5,0.5 0.5,1.2 0,1.6 l -1.8,1.8 c -0.5,0.5 -1.2,0.5 -1.6,0 L 6.39999,20.7 c -0.5,-0.5 -0.5,-1.2 0,-1.6 l 1.8,-1.8 C 8.59999,16.9 9.4,16.9 9.8,17.3 Z"
             fill="url(#paint3_linear)"
             id="path15"
             style="fill:url(#linearGradient193)" />
        </g>
      </g>
      <path
         d="m 9.8,17.3 8.8,8.8 c 0.5,0.5 0.5,1.2 0,1.6 l -1.8,1.8 c -0.5,0.5 -1.2,0.5 -1.6,0 L 6.39999,20.7 c -0.5,-0.5 -0.5,-1.2 0,-1.6 l 1.8,-1.8 C 8.59999,16.9 9.4,16.9 9.8,17.3 Z"
         fill="url(#paint4_linear)"
         id="path21"
         style="fill:#35b0d9;fill-opacity:1;filter:url(#filter0_dd)"
         transform="matrix(1.4978445,0,0,1.3419151,222.74405,101.11317)" />
      <path
         d="M 40,32 H 24 c -0.6,0 -1,0.4 -1,1 v 3 c 0,0.6 0.4,1 1,1 h 16 c 0.6,0 1,-0.4 1,-1 v -3 c 0,-0.6 -0.4,-1 -1,-1 z"
         fill="url(#paint5_linear)"
         id="path25"
         style="fill:#35b0d9;fill-opacity:1;filter:url(#filter2_dd)"
         transform="matrix(1.4978445,0,0,1.3419151,222.74405,101.11317)" />
    </g>
  </g>
</svg>
