<svg xmlns="http://www.w3.org/2000/svg" xml:space="preserve" width="324" height="234"><path fill="#ebebeb" d="M0 0h324v234H0Z"/><path fill="none" d="M-1.7-1.95h327.9v237.04H-1.7Zm0 0"/><path fill="#354547" fill-rule="evenodd" d="M98.17 165.56v-12.01c0-1.58.98-2.85 2.62-2.85h.45c1.63 0 2.6 1.27 2.6 2.85v25.3c0 6.16-3.03 11.07-8.33 14.2a15.63 15.63 0 0 1-8.02 2.18h-1.13c-6.15 0-11.04-3.04-14.17-8.35a15.66 15.66 0 0 1-2.19-8.04v-1.13c0-6.16 3.05-11.07 8.34-14.2a15.63 15.63 0 0 1 8.02-2.2h1.13c4.16 0 7.7 1.63 10.68 4.25zm-22.49 12.72c0 4.45 2.16 7.8 6.05 9.94a10.5 10.5 0 0 0 5.08 1.33c4.37 0 7.6-2.07 9.84-5.77a10.7 10.7 0 0 0 1.52-5.62c0-3.86-1.83-6.88-4.93-9.11a10.58 10.58 0 0 0-6.31-2.04c-4.76 0-8.18 2.4-10.24 6.68a10.46 10.46 0 0 0-1.01 4.59zm47.86-16.96h.79c6.58 0 11.58 3.2 14.75 8.95a15.28 15.28 0 0 1 1.95 7.44v1.13c0 6.17-3.04 11.08-8.35 14.2a15.65 15.65 0 0 1-8.01 2.2h-1.13c-6.15 0-11.04-3.05-14.17-8.36a15.62 15.62 0 0 1-2.19-8.04v-1.13c0-6.16 3.06-11.05 8.34-14.2a15.5 15.5 0 0 1 8.02-2.2zm-10.68 16.96c0 4.32 2.12 7.5 5.76 9.74a10.51 10.51 0 0 0 5.6 1.53c4.26 0 7.41-2.17 9.6-5.78a10.6 10.6 0 0 0 1.53-5.6c0-4.03-1.94-7.1-5.24-9.33a10.52 10.52 0 0 0-6-1.83c-4.76 0-8.18 2.4-10.24 6.68a10.47 10.47 0 0 0-1.01 4.59zm51.77-10.82c-.86-.4-2.47-.53-3.4-.57-4.73-.18-8.17 2.5-10.18 6.7a10.41 10.41 0 0 0-1.01 4.57c0 4.87 2.55 8.29 6.9 10.37 1.58.75 3.63.9 5.36.9 1.52 0 3.68-.94 5.03-1.58l.23-.11h1.05l.12.02c1.29.27 2.26 1.1 2.26 2.49v.56c0 3.46-6.31 4.25-8.72 4.42-8.51.6-14.87-4.09-17.3-12.22a14.72 14.72 0 0 1-.6-4.28v-1.13c0-6.17 3.05-11.06 8.33-14.2a15.53 15.53 0 0 1 8.02-2.2h1.12c3.03 0 5.82.87 8.32 2.58l.2.14.13.21c.27.45.5.97.5 1.5v.56c0 1.46-1.08 2.24-2.39 2.5h-.44c-.85 0-2.78-.87-3.53-1.23zm18.41 3.85a588.83 588.83 0 0 1 6.66-6.6c.62-.6 2.98-3.17 3.91-3.17h1.02l.12.03c1.3.27 2.26 1.09 2.26 2.48v.57c0 .95-1.11 2.05-1.73 2.7-1.3 1.39-2.67 2.73-4 4.09l-6.87 6.97a1728 1728 0 0 1 11.25 11.42c.29.3.7.67.94 1.08.25.38.41.82.41 1.29v.58l-.03.14c-.32 1.3-1.14 2.34-2.58 2.34h-.45c-.94 0-2-1.06-2.65-1.67-1.32-1.25-2.6-2.57-3.9-3.85l-4.36-4.29v6.86c0 1.57-.99 2.84-2.61 2.84h-.45c-1.63 0-2.62-1.27-2.62-2.84v-38.62c0-1.58 1-2.84 2.62-2.84h.45c1.62 0 2.61 1.26 2.61 2.84zm70.76-9.77h.56c1.7 0 2.84 1.15 2.84 2.85 0 2.36-2.24 2.96-4.19 2.96-2.55 0-4.98 1.54-6.74 3.28a10.85 10.85 0 0 0-3.15 7.99v13.77c0 1.58-.98 2.84-2.62 2.84h-.44c-1.63 0-2.62-1.26-2.62-2.84v-14.57c0-5.59 2.72-10.15 7.25-13.36a15.6 15.6 0 0 1 9.11-2.92zm-40.35 27.3c2.07.72 4.42.62 6.54.25 1.08-.47 3.86-1.68 4.88-1.5l.16.03.14.07c.63.3 1.22.73 1.54 1.36.74 1.5.38 3-1.07 3.84l-.5.28c-5.37 3.11-11.1 2.68-16.47-.23a15.29 15.29 0 0 1-5.98-5.97l-.34-.59c-3.45-6-3-12.31.9-18.01a15.72 15.72 0 0 1 5.17-4.7l.78-.45c5.07-2.93 10.5-2.73 15.71-.15a15.38 15.38 0 0 1 6.64 6.16l.28.5c1.13 1.96-.33 3.68-1.85 4.85-1.77 1.37-3.55 3-5.24 4.47l-11.3 9.79zm-4.88-3.44c4.21-3.62 8.43-7.24 12.63-10.87 1.44-1.24 3.01-2.53 4.44-3.84-1.14-1.44-3.05-2.48-4.68-3.1-3.27-1.25-6.5-.83-9.5.9-3.93 2.28-5.6 5.9-5.46 10.41a9.98 9.98 0 0 0 1.47 5 13.55 13.55 0 0 0 1.1 1.5zm-30.64-114h16.76v17.16h8.47c3.91 0 7.93-.7 11.64-1.96a29.61 29.61 0 0 0 5.66-2.56c-2.37-3.1-3.57-7-3.93-10.85-.48-5.24.57-12.06 4.11-16.16L222.4 55l2.1 1.7c5.28 4.25 9.73 10.2 10.5 16.97 6.37-1.88 13.84-1.43 19.45 1.8l2.3 1.34-1.21 2.37c-4.74 9.27-14.66 12.15-24.35 11.64-14.5 36.2-46.09 53.34-84.37 53.34-19.78 0-37.93-7.4-48.27-25l-.17-.28-1.5-3.07c-3.5-7.75-4.66-16.23-3.87-24.7l.24-2.54h14.32V71.4h16.75V54.6h33.51V37.82h20.1V71.4"/><path fill="#219ec7" fill-rule="evenodd" d="M232.21 77.75c1.13-8.75-5.4-15.62-9.46-18.89-4.67 5.41-5.4 19.6 1.93 25.56-4.09 3.64-12.7 6.94-21.52 6.94H95.79c-.86 9.23.76 17.72 4.45 25l1.22 2.23a42.08 42.08 0 0 0 2.53 3.81c4.42.28 8.49.38 12.21.3 7.32-.16 13.3-1.03 17.82-2.6a1.29 1.29 0 0 1 1.6.81 1.29 1.29 0 0 1-.76 1.63c-.6.21-1.23.4-1.88.6a55.7 55.7 0 0 1-12.31 2c.3 0-.3.05-.3.05-.18 0-.39.03-.56.04-1.94.11-4.03.13-6.17.13-2.34 0-4.65-.04-7.23-.17l-.06.04c8.94 10.08 22.93 16.12 40.47 16.12 37.1 0 68.58-16.48 82.52-53.5 9.89 1.03 19.39-1.5 23.71-9.96-6.88-3.98-15.74-2.71-20.84-.14"/><path fill="#35b0d9" fill-rule="evenodd" d="M232.21 77.75c1.13-8.75-5.4-15.62-9.46-18.89-4.67 5.41-5.4 19.6 1.93 25.56-4.09 3.64-12.7 6.94-21.52 6.94H102.15c-.44 14.13 4.8 24.85 14.05 31.34 7.32-.16 13.3-1.03 17.82-2.6a1.29 1.29 0 0 1 1.6.81 1.29 1.29 0 0 1-.76 1.63c-.6.21-1.23.4-1.88.6a58.5 58.5 0 0 1-12.64 2.1l-.12-.12c12.63 6.49 30.94 6.47 51.93-1.61 23.54-9.07 45.45-26.33 60.73-46.08l-.67.32"/><path fill="#197fa3" fill-rule="evenodd" d="M96 102.57a43.09 43.09 0 0 0 4.24 13.79l1.22 2.23a42.08 42.08 0 0 0 2.53 3.81c4.42.28 8.49.38 12.21.3 7.32-.16 13.3-1.03 17.82-2.6a1.29 1.29 0 0 1 1.6.81 1.29 1.29 0 0 1-.76 1.63c-.6.21-1.23.4-1.88.6a58.74 58.74 0 0 1-12.62 2.05l-.63.02a109 109 0 0 1-6.16.18c-2.34 0-4.73-.05-7.3-.18 8.94 10.08 23.01 16.14 40.55 16.14 31.77 0 59.4-12.08 75.45-38.78H95.99"/><path fill="#1c8fb3" fill-rule="evenodd" d="M103.11 102.57c1.9 8.68 6.47 15.5 13.1 20.13 7.31-.16 13.28-1.03 17.8-2.6a1.29 1.29 0 0 1 1.6.81 1.29 1.29 0 0 1-.75 1.63c-.6.21-1.23.4-1.88.6a59.61 59.61 0 0 1-12.7 2.05c12.62 6.49 30.88 6.4 51.87-1.68 12.7-4.9 24.93-12.17 35.9-20.94H103.1"/><path fill="#21a1c2" fill-rule="evenodd" d="M110.36 74.2h14.52v14.55h-14.52zm1.21 1.21h1.15v12.13h-1.15zm2.16 0h1.19v12.13h-1.2zm2.2 0h1.19v12.13h-1.2zm2.2 0h1.19v12.13h-1.2Zm2.2 0h1.19v12.13h-1.2zm2.2 0h1.14v12.13h-1.14zm4.59-18h14.52v14.55h-14.52zm1.2 1.21h1.15v12.13h-1.14zm2.16 0h1.2v12.13h-1.2zm2.2 0h1.2v12.13h-1.2zm2.2 0h1.19v12.13h-1.2zm2.2 0h1.2v12.13h-1.2zm2.2 0h1.15v12.13h-1.15zm0 0"/><path fill="#33bade" fill-rule="evenodd" d="M127.12 74.2h14.52v14.55h-14.52zm1.2 1.21h1.15v12.13h-1.14zm2.16 0h1.2v12.13h-1.2zm2.2 0h1.2v12.13h-1.2zm2.2 0h1.19v12.13h-1.2zm2.2 0h1.2v12.13h-1.2zm2.2 0h1.15v12.13h-1.15zm0 0"/><path fill="#21a1c2" fill-rule="evenodd" d="M143.87 74.2h14.52v14.55h-14.52zm1.2 1.21h1.16v12.13h-1.15zm2.16 0h1.2v12.13h-1.2zm2.2 0h1.2v12.13h-1.2zm2.2 0h1.2v12.13h-1.2zm2.2 0h1.2v12.13h-1.2zm2.2 0h1.15v12.13h-1.14zm0 0"/><path fill="#33bade" fill-rule="evenodd" d="M143.87 57.41h14.52v14.55h-14.52zm1.2 1.21h1.16v12.13h-1.15zm2.16 0h1.2v12.13h-1.2zm2.2 0h1.2v12.13h-1.2zm2.2 0h1.2v12.13h-1.2zm2.2 0h1.2v12.13h-1.2zm2.2 0h1.15v12.13h-1.14zm4.6 15.57h14.52v14.56h-14.52Zm1.2 1.22h1.15v12.13h-1.15zm2.16 0h1.19v12.13h-1.2zm2.2 0h1.19v12.13h-1.2zm2.2 0h1.19v12.13h-1.2zm2.2 0h1.2v12.13h-1.2zm2.2 0h1.14v12.13h-1.14zm0 0"/><path fill="#21a1c2" fill-rule="evenodd" d="M160.63 57.41h14.52v14.55h-14.52Zm1.2 1.21h1.15v12.13h-1.15zm2.16 0h1.19v12.13h-1.2zm2.2 0h1.19v12.13h-1.2zm2.2 0h1.19v12.13h-1.2zm2.2 0h1.2v12.13h-1.2zm2.2 0h1.14v12.13h-1.14zm0 0"/><path fill="#33bade" fill-rule="evenodd" d="M160.63 40.62h14.52v14.55h-14.52Zm1.2 1.21h1.15v12.13h-1.15zm2.16 0h1.19v12.13h-1.2zm2.2 0h1.19v12.13h-1.2zm2.2 0h1.19v12.13h-1.2zm2.2 0h1.2v12.13h-1.2zm2.2 0h1.14v12.13h-1.14zm0 0"/><path fill="#21a1c2" fill-rule="evenodd" d="M177.38 74.2h14.52v14.55h-14.52Zm1.2 1.21h1.15v12.13h-1.14zm2.16 0h1.19v12.13h-1.2zm2.2 0h1.2v12.13h-1.2zm2.2 0h1.2v12.13h-1.2zm2.2 0h1.2v12.13h-1.2zm2.2 0h1.15v12.13h-1.15zm0 0"/><path fill="#d1ebeb" fill-rule="evenodd" d="M140.73 112.34a4 4 0 0 1 3.51 2 4.03 4.03 0 0 1 0 4.04 4 4 0 0 1-3.51 1.99 4.01 4.01 0 0 1-3.96-4.02 4 4 0 0 1 3.96-4.01"/><path fill="#354547" fill-rule="evenodd" d="M140.73 113.48c.36 0 .71.07 1.04.2a1.18 1.18 0 0 0 .58 2.18c.44 0 .83-.25 1.03-.61a2.88 2.88 0 0 1-.83 3.32 2.86 2.86 0 0 1-3.41.17 2.88 2.88 0 0 1-1.16-3.22 2.87 2.87 0 0 1 2.75-2.04m-70.86-9.46h186.34c-4.05-1.03-12.84-2.42-11.39-7.75-7.38 8.55-25.16 6-29.66 1.78-5 7.27-34.1 4.5-36.13-1.15-6.27 7.36-25.7 7.36-31.97 0-2.03 5.65-31.13 8.42-36.13 1.15-4.5 4.22-22.29 6.77-29.66-1.78 1.44 5.33-7.34 6.72-11.4 7.75"/><path fill="#bdd9d7" fill-rule="evenodd" d="M151.38 141.27c-9.93-4.72-15.37-11.13-18.4-18.13a61.38 61.38 0 0 1-13.26 2.01 108.7 108.7 0 0 1-6.12.17c-2.47 0-5.07-.08-7.8-.22 9.1 9.11 20.3 16.13 41.02 16.25 1.53 0 3.04-.03 4.56-.08"/><path fill="#d1ebeb" fill-rule="evenodd" d="M136.66 129.6a34.74 34.74 0 0 1-3.68-6.47 61.32 61.32 0 0 1-13.26 2.02c3.53 1.92 8.6 3.7 16.95 4.44"/><g fill="#354547" stroke="#3f5d6c" stroke-linecap="round" stroke-linejoin="round" stroke-width="1.1"><path fill="#375a82" stroke="#202547" stroke-width=".34" d="m279.71 135.53-7.63 2.49.02 3.68 4.4 2 6.94-2.92.1-3.1z" paint-order="stroke fill markers"/><path fill="#6ab6df" stroke="#202547" stroke-linejoin="bevel" stroke-width=".1" d="m272.08 138.02 4.48 1.67 6.98-2.01-3.83-2.15"/><path fill="#65a2cf" stroke="#202547" stroke-linejoin="bevel" stroke-width=".1" d="m276.56 139.69 6.98-2.01-.1 3.1-6.93 2.92z"/><path fill="#081135" stroke="none" d="M270.29 102.66c1.9-.3 3.15 2.25 1.46 3.45-2.47 1.83-6.53 1.56-7.97 4.66-.88 1.48 1.41 4.6-1.53 3.14-5.2-1.14-11.4.3-14.38 5.02-2.65 4-2.6 9.82.8 13.38 1.52 2.07 4.2 3.95 3.89 6.8-.75 2.71-3.9 4.19-6.49 4.62-2.54.46-6.25-.64-6.1-3.77-.17-2.73 2.13-4.7 2.58-7.24.2-3.78-4.11-3.02-6.18-4.4-.43-1.05-.69-4-2.09-1.76-1.76 3.3 1.93 4.8 4.34 5.76 2.41 2.07-1.38 4.47-1.71 6.72-1 2.7-1.06 6.55 2.03 7.9 3.85 1.97 8.64 1.34 12.27-.86 1.46.5 1.45 5.22-1.06 5.43-4.1 1.05-7.01-3.08-10.87-3.52-3.12.01-5.4 3.74-4 6.43.86 1.54 2.28 2.78 4.04 2.1.92-.37 1.37-1.25.28-2.44-2.45-.76-1.4-4.03.96-2.51 2.73 1.63 4.74 4.46 7.96 5.26 3.26 1.23 8.1-.87 7.89-4.77.02-1.94 2.27 1.6 3.14 1.97 2.69 2.35 6.57 1.13 9.47-.12 3.68-2.2 2.3-3.37 3.73-4.08 3.7-.14 8.21-1.4 9.73-5.15 1.13-3.24.55-7.4-2.52-9.36-2.71-2.04-7.07-.76-8.32 2.36 1.54 1.34 5.22-2.91 6.6.66 1.1 2.1.86 5.23-1 6.8-2 1.34-5.5 2.36-6.43-.67-1.26-2-4.2-2.23-5.74-2.8 3.4-2.73 6.78-5.68 9.32-9.29a10.5 10.5 0 0 0-.3-12.02c-1.65-2.67-4.57-4.32-6.05-7.09-.27-2.82 3.52-3.48 5.4-4.68 2.07-1.42 5.24-3.82 3.67-6.63-1.02-2.33-4.29-2.46-5.67-.4-.38.37-.75.75-1.15 1.1z"/><path fill="#b9cada" stroke="none" d="M267.8 111.3c-.86 2.84 2.37 4.8 3.76 6.93 2.75 2.84 4.55 6.94 3.46 10.9-1.42 4.77-5.39 8.1-8.8 11.45-.79.96-2.75 1.29-2.89 1.36-2.16 1.12-.34 5.27 1.77 3.33.3-1.28 2.28.85 3.15 1.1.9 2.17-.59 3.54-2.69 2.52a5.95 5.95 0 0 1-5.13-5.74c-.42-1.52 0 2.17.33 2.92.8 2.88 4.08 3.62 6.67 3.84-1.73 2.23-5.68 2-7.2-.41-1.33-.68-.6-4.52-.95-4-1.11 3.34 1.98 7.35 5.55 6.6 2.64-.27 5.38-3.03 4-5.77-.17-1.24-3.47-3.02-3-2.5 1.24.2 2.69 2.55.73 1.15-.97-.26-2.42-2.51-1.53-.39-.96 2.9-4.13-1.64-1-2.2 3.34-.65 7.02 1.82 7.8 5.1.26 1.56.16 3.15-1.21 4.17-2.93 2.6-7.78 4.45-11.2 1.7-3.08-2.38-4.43-6.89-2.69-10.46 1.16-1.66-2.66 1.06-2.15 2.35-.28 3 1.98 6.02.59 8.93-1.94 2.7-5.51 2.57-8.38 1.4-2.59-.83-4.31-3.33-6.75-4.36-2.68-1.17-2.83 2.59-.63 3.29.93 3.55-4.44.54-3.97-1.99-.1-2.61 2.8-4.65 5.25-3.7 2.62 1.06 4.73 3.6 7.76 3.51 2.7.57 5.21-1.88 4.35-4.6-.66-2.58-1.22-6 1.87-7.27 1.05-.46 2.84-.94.75-.56-2.18.72-4.28 2.74-3.86 5.22-1.58 1.51-4.32 1.91-6.52 2.28-3.06.38-6.98-.69-8.08-3.88-.44-2.95.6-5.85 2.15-8.3 1.58-2.7-1.43-4.5-3.71-4.94-1.69-.54-1-4.64.01-4.16-.54 3.64 3.25 3.79 5.79 4.06 2.7 2.16-.25 5.14-1.19 7.4-1.18 2.22-.6 5.47 2.02 6.33 3.95 1.62 9.3-.3 10.83-4.35.24-1.86-.5-3.6-1.7-5-2.32-2.77-4.88-5.97-4.4-9.83.2-5.25 4.64-9.77 9.84-10.28 5.55-.81 11.69 1.6 14.6 6.5 2.26 4.22.4 9.46-3.1 12.38-2.32 1.9-5.36 3.97-5.81 7.04 1.7-3.66 5.85-5.06 8.2-8.2 3.31-3.7 3.58-9.88.05-13.53-1.51-2.21-4.35-2.96-6.16-4.62-.93-2.41.7-4.7 3.14-5.06 2.28-1.13 5.62-2.27 5.78-5.28-.15-1.38-3.03-1.65-.59-2.57 2.92-1.5 5.74 2.6 2.85 4.53-2.24 2.31-5.08 3.9-7.75 5.66z"/><path fill="#b9cada" stroke="none" d="M275.52 134.71c3.55-.73 6.77 2.56 6.73 6.01.35 2.99-1.17 6.2-4.09 7.27-1.64.52-4.57 2.27-5.71 1.17-.27-1.65-.37-2.72 1.67-2.27 3.17-.13 6.12-2.93 5.62-6.23-.09-2.63-3.19-5.2-5.68-3.63-1.62 1.25-2.71.25-1.03-1.15a5.41 5.41 0 0 1 2.49-1.17z"/><path fill="#2f4562" stroke="#202547" stroke-width=".5" d="m262.97 152.82-3.61 1.62.21 3.28 6.18 4.07 4.84-1.97.03-3.55zm0 0 7.65 3.45z" paint-order="stroke fill markers"/><path fill="#5798bd" stroke="none" d="m259.36 154.44 6.29 4 .1 3.35-6.28-4.06z"/><path fill="#74c0d4" stroke="#202547" stroke-linejoin="bevel" stroke-width=".1" d="m259.36 154.44 6.29 4 4.97-2.17-7.65-3.45z"/><path fill="#4a5569" stroke="none" d="M259.55 132.36c-.24.14.27-.1 0 0z"/><path fill="#25323e" stroke="none" d="M260.77 131.93c-.97-.08-1.88.55-2.36 1.35a3.04 3.04 0 0 0-.25 1.89c.1.74.79 1.22 1.46 1.43.87.28 1.86.05 2.53-.56a2.36 2.36 0 0 0 .7-2.67 2.24 2.24 0 0 0-2.08-1.44z"/><path fill="#fff" stroke="none" d="M260.36 132.1s.19.8.61.82c.37.12.7-.11.93-.35.35.37.69.8.68 1.33.11.86-.29 1.83-1.13 2.17-.74.34-1.67.35-2.38-.07-.7-.49-.82-1.45-.65-2.22.17-.59.56-1.17 1.13-1.42z"/><path fill="#25323e" stroke="none" d="M255.5 131.2c-.72.03-1.42.42-1.92.94-.43.5-.48 1.17-.47 1.8-.03.48.1 1 .47 1.35.78.79 2.08.82 3.03.34a2.38 2.38 0 0 0 1.34-2.06 2 2 0 0 0-.63-1.65 2.1 2.1 0 0 0-1.5-.72 2.2 2.2 0 0 0-.31 0z"/><path fill="#f6ffff" stroke="none" d="M255.08 131.43c.28.26.3.85.79.8.41.1.62-.33.9-.43.34.17.5.58.68.9.2.43.22.93.03 1.36a2.22 2.22 0 0 1-2.15 1.52 2 2 0 0 1-1.62-.6c-.44-.5-.36-1.22-.32-1.83.06-.57.35-1.14.88-1.4.24-.15.51-.29.8-.32z"/><path fill="#2f3a5b" stroke="none" d="m241.13 123.21-5.63 2.1.01 4.06 4.38 2 4.95-2.67.24-.37.14-3.48z"/><path fill="#5e8aa9" stroke="none" d="M247.44 121.49s5.51 1.74 5.51-5.96c-2.7 1.12-4.9 4.14-5.5 5.96zm7.27-3.04c.88.86 4.17-1.25 3.25-2.66-1.18-1.14-3.82 1.46-3.25 2.66zm-6.83 37.52c.08-1.4-1.91-3.6-3.78-1.9a10.7 10.7 0 0 0 3.78 1.9zm8.34-7.6c.93-.27 2.67-3.34-.05-3.9-.17.69-.38 2.46.05 3.9zm4.75 2.66c-3.75-.38-2.9-2.77-1.86-3.34a5.79 5.79 0 0 0 1.86 3.34z" opacity=".46"/><path fill="#4a8ac7" stroke="none" d="m244.59 125.25.01 2.98-4.82 2.55-.02-3.52z"/><path fill="#80b6d7" stroke="none" d="m241.15 123.58 3.37 1.34-5.1 2.02-3.35-1.56z"/></g><path fill="#2f3a5b" stroke="#202547" stroke-width=".2" d="m270.7 100.6-5.94.94-.83 4.72 5.94 3.72 6.33-1.6.43-4.04z"/><path fill="#7ec4d2" d="m270.8 101.04 5.38 3.33-5.44.87-5.35-3.5z"/><path fill="#4a9ac2" d="m265.03 102.13 5.34 3.45-.5 3.8-5.61-3.33z"/></svg>