<svg xmlns="http://www.w3.org/2000/svg" xmlns:xlink="http://www.w3.org/1999/xlink" xml:space="preserve" width="324" height="234"><defs><linearGradient id="d"><stop offset="0" stop-color="#e01b24"/><stop offset="1" stop-color="#f66151"/></linearGradient><linearGradient id="c"><stop offset="0" stop-color="#d5d3cf"/><stop offset="1" stop-color="#fff"/></linearGradient><linearGradient id="b"><stop offset="0" stop-color="#3d3846"/><stop offset="1" stop-color="#77767b"/></linearGradient><linearGradient xlink:href="#a" id="f" x1="28" x2="116" y1="-276" y2="-276" gradientTransform="matrix(1.2671 0 0 1 -154.9839 6)" gradientUnits="userSpaceOnUse"/><linearGradient id="a"><stop offset="0" stop-color="#c0bfbc"/><stop offset=".03143" stop-color="#fff"/><stop offset=".06731" stop-color="#deddda"/><stop offset=".92825" stop-color="#deddda"/><stop offset=".96413" stop-color="#fff"/><stop offset="1" stop-color="#c0bfbc"/></linearGradient><linearGradient xlink:href="#b" id="i" x1="34" x2="34" y1="40" y2="28" gradientTransform="translate(0 172)" gradientUnits="userSpaceOnUse"/><linearGradient xlink:href="#c" id="g" x1="344" x2="340" y1="76" y2="72" gradientTransform="matrix(.25 0 0 .25 180 83)" gradientUnits="userSpaceOnUse"/><linearGradient xlink:href="#d" id="k" x1="-48" x2="-24" y1="248" y2="248" gradientTransform="matrix(.8333 0 0 .9545 -278.5 -124.97727)" gradientUnits="userSpaceOnUse"/><linearGradient xlink:href="#d" id="l" x1="-42" x2="-30" y1="194" y2="194" gradientTransform="rotate(-90 69.125 203.375)" gradientUnits="userSpaceOnUse"/><clipPath id="h" clipPathUnits="userSpaceOnUse"><path fill="#e74747" stroke-width=".25" d="m252 116 28-28v-8h-36v36z"/></clipPath><clipPath id="j" clipPathUnits="userSpaceOnUse"><rect width="111.99999" height="82" x="-119.99999" y="-282" fill="#f6f5f4" stroke-width="13.71877" rx="8" ry="8" style="marker:none" transform="scale(-1)"/></clipPath><radialGradient id="e" cx="90.13641" cy="64.76154" r="91.59176" fx="90.13641" fy="64.76154" gradientTransform="matrix(1.8 0 0 1.304 0 32.11876)" gradientUnits="userSpaceOnUse"><stop offset="0" stop-color="#c61423"/><stop offset="1" stop-color="#dc2b41"/></radialGradient></defs><path fill="url(#e)" d="M0 0h324v234H0z"/><g transform="matrix(1.6 0 0 1.6 59.60007 -274.06406)"><rect width="111.50504" height="30.25" x="-119.505" y="-288" fill="#5e5c64" rx="8" ry="8" style="marker:none" transform="scale(-1)"/><rect width="111.505" height="40" x="-119.505" y="-286" fill="url(#f)" rx="8" ry="8" style="marker:none" transform="scale(-1)"/><rect width="112" height="82" x="-120" y="-282" fill="#f6f5f4" rx="8" ry="8" style="marker:none" transform="scale(-1)"/><rect width="36" height="36" x="252" y="88" fill="url(#g)" clip-path="url(#h)" rx="11.2" ry="11.2" style="marker:none" transform="matrix(0 .7143 .7143 0 33.1429 82.00001)"/><path fill="url(#i)" d="M16 200c-4.432 0-8 3.568-8 8v8h112v-8c0-4.432-3.568-8-8-8z" style="marker:none"/><path fill="#3d3846" d="M8 208h112v2H8z"/><path fill="#5e5c64" d="M8 210h112v2H8z"/><path fill-opacity=".29167" d="m117.28516 187.66573-63.39844 63.39648 1.41406 1.41407-7.07031 15.55664 2.82813 2.82812 15.55664-7.07031 1.41406 1.41406 63.39648-63.39844z" clip-path="url(#j)" transform="translate(0 3)"/><path fill="none" stroke="#e01b24" stroke-linecap="round" stroke-width="4" d="M23.90147 233.50234c13.38508 4.54271-5.58867 17.69607 13.92067 18.94436C49.28764 253.18031 49.1979 269 49.1979 269"/><path fill="url(#k)" d="M-318.5 69.75h20v84h-20z" transform="rotate(-135 -84.7554 87.4242)"/><path fill="#3d3846" d="m116.11272 217.12088-14.14213-14.14213 2.82842-2.82843 14.14214 14.14214zm-39.59798 39.59798-14.14213-14.14213 2.82842-2.82843 14.14214 14.14214z"/><path fill="url(#l)" d="M69.75 316.5v-16l-16 6v4z" transform="rotate(-45 4.55594 293.92895)"/><path fill-opacity=".25926" d="M69.44367 263.78993 55.30154 249.6478l-1.41421 1.4142 14.14213 14.14214z"/><path fill="#3d3846" d="M76.51476 228.43526a10 5-45 0 0 10.6066-3.53554 10 5-45 0 0 3.53553-10.6066z"/></g></svg>