<?xml version="1.0" encoding="UTF-8"?>
<svg xmlns="http://www.w3.org/2000/svg" xmlns:xlink="http://www.w3.org/1999/xlink" width="324px" height="234px" viewBox="0 0 324 234" version="1.1">
<g id="surface1">
<rect x="0" y="0" width="324" height="234" style="fill:rgb(45.882353%,66.666669%,1.176471%);fill-opacity:1;stroke:none;"/>
<path style="fill:none;stroke-width:1.021703;stroke-linecap:butt;stroke-linejoin:miter;stroke:rgb(100%,100%,100%);stroke-opacity:1;stroke-miterlimit:4;" d="M -0.94401 -1.082899 L 181.217448 -1.082899 L 181.217448 130.605469 L -0.94401 130.605469 Z M -0.94401 -1.082899 " transform="matrix(1.8,0,0,1.8,0,0)"/>
<path style="fill-rule:nonzero;fill:rgb(0%,0%,0%);fill-opacity:1;stroke-width:58;stroke-linecap:round;stroke-linejoin:miter;stroke:rgb(100%,100%,100%);stroke-opacity:1;stroke-miterlimit:4;" d="M 107.000844 212.001137 L 107.000844 317.996279 M 405.999601 212.001137 L 405.999601 317.996279 M 299.002649 383.997198 L 299.002649 439.999562 M 213.997796 383.997198 L 213.997796 439.999562 " transform="matrix(0.41652,0,0,0.448502,53.881192,19.795913)"/>
<path style="fill-rule:nonzero;fill:rgb(0%,0%,0%);fill-opacity:1;stroke-width:8;stroke-linecap:round;stroke-linejoin:miter;stroke:rgb(100%,100%,100%);stroke-opacity:1;stroke-miterlimit:4;" d="M 202.997057 88.00337 L 186.003589 55.995798 M 308.99991 88.00337 L 326.996856 55.995798 " transform="matrix(0.41652,0,0,0.448502,53.881192,19.795913)"/>
<path style=" stroke:none;fill-rule:nonzero;fill:rgb(100%,100%,100%);fill-opacity:1;" d="M 160.925781 53.882812 C 129.269531 53.882812 113.027344 80.792969 113.027344 100.976562 L 208.410156 100.976562 C 208.410156 79.894531 190.917969 54.332031 160.925781 53.882812 Z M 113.027344 105.460938 L 113.027344 179.015625 C 113.027344 186.191406 118.441406 192.019531 124.691406 192.019531 L 196.332031 192.019531 C 202.996094 192.019531 208.410156 186.191406 208.410156 179.015625 L 208.410156 105.460938 Z M 113.027344 105.460938 "/>
<path style=" stroke:none;fill-rule:nonzero;fill:rgb(64.313728%,77.64706%,22.352941%);fill-opacity:1;" d="M 142.601562 78.101562 C 142.601562 80.332031 140.921875 82.136719 138.851562 82.136719 C 136.78125 82.136719 135.101562 80.332031 135.101562 78.101562 C 135.101562 75.871094 136.78125 74.066406 138.851562 74.066406 C 140.921875 74.066406 142.601562 75.871094 142.601562 78.101562 Z M 142.601562 78.101562 "/>
<path style=" stroke:none;fill-rule:nonzero;fill:rgb(64.313728%,77.64706%,22.352941%);fill-opacity:1;" d="M 186.335938 78.101562 C 186.335938 80.332031 184.65625 82.136719 182.585938 82.136719 C 180.515625 82.136719 178.835938 80.332031 178.835938 78.101562 C 178.835938 75.871094 180.515625 74.066406 182.585938 74.066406 C 184.65625 74.066406 186.335938 75.871094 186.335938 78.101562 Z M 186.335938 78.101562 "/>
<path style=" stroke:none;fill-rule:nonzero;fill:rgb(45.882353%,66.666669%,1.176471%);fill-opacity:1;" d="M 114.894531 192.0625 L 203.695312 192.0625 L 203.695312 230.125 L 114.894531 230.125 Z M 114.894531 192.0625 "/>
<path style=" stroke:none;fill-rule:nonzero;fill:rgb(45.882353%,66.666669%,1.176471%);fill-opacity:1;" d="M 188.210938 148.070312 C 188.210938 164.65625 175.902344 178.097656 160.71875 178.097656 C 145.535156 178.097656 133.226562 164.65625 133.226562 148.070312 C 133.226562 131.488281 145.535156 118.046875 160.71875 118.046875 C 175.902344 118.046875 188.210938 131.488281 188.210938 148.070312 Z M 188.210938 148.070312 "/>
<path style=" stroke:none;fill-rule:nonzero;fill:rgb(90.196079%,90.196079%,90.196079%);fill-opacity:1;" d="M 170.640625 148.070312 C 170.640625 153.957031 166.199219 158.730469 160.71875 158.730469 C 155.238281 158.730469 150.796875 153.957031 150.796875 148.070312 C 150.796875 142.1875 155.238281 137.414062 160.71875 137.414062 C 166.199219 137.414062 170.640625 142.1875 170.640625 148.070312 Z M 170.640625 148.070312 "/>
</g>
</svg>
