<svg xmlns="http://www.w3.org/2000/svg" width="324" height="234"><defs><linearGradient id="a" x1="2.264" x2="45.629" y1="23.952" y2="23.952" gradientUnits="userSpaceOnUse"><stop offset="0" stop-color="#2e3436"/><stop offset="1" stop-color="#555753"/></linearGradient><linearGradient id="b" x1="12.492" x2="19.863" y1="38.637" y2="38.637" gradientTransform="matrix(3.7755 0 0 3.7513 71.835 26.719)" gradientUnits="userSpaceOnUse"><stop offset="0" stop-color="#989a9b"/><stop offset="1" stop-color="#f6f6f7"/></linearGradient><linearGradient id="e" x1="7.081" x2="40.812" y1="22.037" y2="22.037" gradientTransform="matrix(3.9526 0 0 3.9763 67.595 -90.915)" gradientUnits="userSpaceOnUse"><stop offset="0" stop-color="#bcb4a1"/><stop offset="1" stop-color="#c5bfad"/></linearGradient><linearGradient id="f" x1="12.492" x2="19.863" y1="38.637" y2="38.637" gradientTransform="matrix(3.7755 0 0 3.7513 71.948 36.532)" gradientUnits="userSpaceOnUse"><stop offset="0" stop-color="#989a9b"/><stop offset="1" stop-color="#f6f6f7"/></linearGradient><linearGradient id="g" x1="18.356" x2="29.517" y1="24.303" y2="24.303" gradientTransform="matrix(0 -10.7868 15.1797 0 2786.5 1532.132)" gradientUnits="userSpaceOnUse"><stop offset="0" stop-color="#696969"/><stop offset=".529" stop-color="#454545"/><stop offset="1" stop-color="#393939"/></linearGradient><linearGradient id="h" x1="18.882" x2="30.081" y1="24.26" y2="24.26" gradientTransform="matrix(4.0418 0 0 3.8029 62.34 25.324)" gradientUnits="userSpaceOnUse"><stop offset="0" stop-color="#696969"/><stop offset=".529" stop-color="#454545"/><stop offset="1" stop-color="#393939"/></linearGradient><linearGradient id="i" x1="255.51" x2="264.08" y1="0" y2="0" gradientTransform="matrix(1.0162 0 0 -.9511 -116.057 -468.445)" gradientUnits="userSpaceOnUse"><stop offset="0" stop-color="#d3d3d3"/><stop offset="1" stop-color="#ddd"/></linearGradient><linearGradient id="j" x1="282.46" x2="290.27" y1="0" y2="0" gradientTransform="matrix(1.0162 0 0 -.9511 -116.057 -468.445)" gradientUnits="userSpaceOnUse"><stop offset="0" stop-color="#d3d3d3"/><stop offset="1" stop-color="#ddd"/></linearGradient><clipPath id="c"><path d="M95 53h134v111H95Zm0 0"/></clipPath><clipPath id="d"><path d="M228.906 108.047c0-50.766-22.215-54.996-66.66-54.996-44.441 0-66.664 4.23-66.664 54.996 0 50.77 22.223 54.996 66.664 54.996 44.445 0 66.66-4.227 66.66-54.996Zm0 0"/></clipPath></defs><path fill="#d97636" d="M0 0h324v234H0z"/><path fill="url(#a)" stroke="#000" stroke-linecap="square" stroke-linejoin="bevel" stroke-opacity=".078" stroke-width=".339" d="M19.488 3.108h8.72c14.278 0 17.252 11.247 17.252 17.283v7.122c0 5.96-2.776 17.282-18.311 17.282h-7.114c-11.87 0-17.601-7.707-17.601-17.282v-7.122c0-9.575 5.615-17.283 17.054-17.283Zm0 0" transform="matrix(3.7755 0 0 3.7513 71.835 26.719)"/><path fill="url(#b)" d="M121.355 169.094v4.62h25.473v-4.62Zm0 0"/><g clip-path="url(#c)"><g clip-path="url(#d)"><path fill="url(#e)" d="M228.906 108.047c0-50.766-22.215-54.996-66.66-54.996-44.441 0-66.664 4.23-66.664 54.996 0 50.77 22.223 54.996 66.664 54.996 44.445 0 66.66-4.227 66.66-54.996Zm0 0"/></g></g><path fill="url(#f)" d="M121.469 178.906v4.621h25.472v-4.62Zm0 0"/><path fill="gray" d="M196.246 168.96h9.84v9.981h-9.84Zm0 0"/><path fill="#ccc" d="M196.246 168.96h9.23v9.4h-9.23Zm0 0"/><path fill="#477080" d="M197.625 170.68h6.563v5.933h-6.563Zm0 0"/><path fill="url(#g)" d="M142.352 72.285c-1.282.031-1.84.469-2.649.59 1.004.086 5.762 2.238 6.692 2.367-.93.59-3.56-.023-5.305.711-.88.371-1.653 1.813-1.64 2.48 4.984-.472 12.831-.027 17.429 1.891-3.66.39-9.227.832-11.621 2.012-6.957 3.43-10.043 11.422-8.207 21.043 1.836 9.582 9.937 44.59 12.504 56.27.074.32-.133 2.937-.078 3.253 5.175 1.348 10.859-.18 16.492-.18 3.965 0 7.867-.382 11.62-1.062-2.55-4.644-5.312-9.472-6.823-12.293-4.028-7.543-8.028-18.203-6.188-25.062.332-1.25-3.5-10.793-2.398-11.461 8.55-5.223 10.722.566 14.144-1.774 1.766-1.21 4.188 1.059 4.801-.949 2.195-7.195-2.984-19.691-8.844-25.176-1.914-1.785-4.898-2.953-8.207-3.55-1.273-1.63-3.277-3.165-6.187-4.61-3.242-1.617-10.367-3.82-14.024-4.375-.633-.097-1.086-.129-1.515-.117Zm0 0"/><path fill="url(#h)" d="M146.273 71.945c-1.609.008-3.226.207-4.8.477 1.007.086 3.367 2.008 4.297 2.14-1.403.895-5.079.747-5.055 2.735 4.996-.473 10.43.336 15.031 2.258-3.66.394-7.074 1.187-9.473 2.379-6.964 3.445-8.777 10.421-6.949 20.082 1.836 9.652 9.824 44.73 12.383 56.449.242 1.101.313 3.625.379 4.652 4.453.98 9.121.102 13.894.102 4.91 0 10.524.238 15.094-.801-2.758-5.086-6.394-11.234-8.02-14.293-4.034-7.586-8.163-18.18-6.316-25.074.34-1.254.407-6.45 1.516-7.133 8.543-5.25 7.937-.14 11.367-2.492 1.77-1.215 3.176-2.739 3.793-4.754 2.2-7.242-3.11-19.8-8.969-25.313-1.906-1.796-4.773-2.968-8.082-3.566-1.273-1.645-3.41-3.184-6.32-4.637-4.11-2.054-8.941-3.226-13.766-3.21Zm0 0"/><path fill="#43828e" d="M151.203 98.691c-2.129 0-3.851 1.606-3.851 3.598 0 1.988 1.722 3.606 3.851 3.606s3.856-1.618 3.856-3.606c0-1.992-1.73-3.598-3.856-3.598Zm1.707 1.465c.555 0 .996.418.996.938s-.445.93-.996.93c-.547 0-.992-.415-.992-.93 0-.52.445-.938.992-.938ZM176.922 97.063c-1.82 0-3.305 1.378-3.305 3.085 0 1.711 1.488 3.094 3.305 3.094 1.832 0 3.308-1.383 3.308-3.094 0-1.707-1.476-3.085-3.308-3.085Zm1.469 1.246c.484 0 .851.355.851.796 0 .45-.367.81-.851.81-.465 0-.856-.36-.856-.81 0-.437.387-.796.856-.796Zm0 0"/><path fill="url(#i)" d="M152.297 91.848s-2.902-1.23-5.719.43c-2.812 1.66-2.715 3.35-2.715 3.35s-1.492-3.116 2.496-4.651c3.993-1.532 5.938.87 5.938.87Zm0 0"/><path fill="url(#j)" d="M178.93 91.617s-2.082-1.117-3.7-1.097c-3.324.043-4.23 1.414-4.23 1.414s.559-3.274 4.813-2.618c2.3.36 3.117 2.301 3.117 2.301Zm0 0"/><path fill="#fdd20a" d="M162.984 116.176c.383-2.18 6.399-6.301 10.657-6.551 4.27-.25 5.597-.2 9.156-.992 3.562-.797 12.738-2.938 15.277-4.035 2.547-1.102 13.313.543 5.723 4.504-3.285 1.722-12.125 4.878-18.469 6.644-6.32 1.774-10.152-1.687-12.246 1.219-1.672 2.312-.34 5.48 7.215 6.137 10.203.886 19.98-4.297 21.055-1.547 1.082 2.754-8.766 6.187-14.762 6.297-5.985.105-18.063-3.707-19.867-4.887-1.817-1.18-4.235-3.926-3.73-6.797Zm0 0"/></svg>