<?xml version="1.0" encoding="UTF-8" standalone="no"?>
<svg
   xmlns:dc="http://purl.org/dc/elements/1.1/"
   xmlns:cc="http://creativecommons.org/ns#"
   xmlns:rdf="http://www.w3.org/1999/02/22-rdf-syntax-ns#"
   xmlns:svg="http://www.w3.org/2000/svg"
   xmlns="http://www.w3.org/2000/svg"
   xmlns:xlink="http://www.w3.org/1999/xlink"
   id="svg40"
   version="1.1"
   viewBox="0 0 85.7 61.9"
   height="234"
   width="324">
  <metadata
     id="metadata44">
    <rdf:RDF>
      <cc:Work
         rdf:about="">
        <dc:format>image/svg+xml</dc:format>
        <dc:type
           rdf:resource="http://purl.org/dc/dcmitype/StillImage" />
        <dc:title></dc:title>
      </cc:Work>
    </rdf:RDF>
  </metadata>
  <defs
     id="defs2">
    <radialGradient
       r="226.5"
       cy="337.29099"
       cx="405.43951"
       gradientUnits="userSpaceOnUse"
       id="radialGradient864"
       xlink:href="#SVGID_1_" />
    <radialGradient
       gradientUnits="userSpaceOnUse"
       gradientTransform="matrix(1,0,0,0.68494749,0,9.2467911)"
       r="42.849998"
       fy="29.35"
       fx="40.450001"
       cy="29.35"
       cx="40.450001"
       id="radialGradient874"
       xlink:href="#SVGID_1_" />
  </defs>
  <defs
     id="defs28">
    <linearGradient
       id="d">
      <stop
         id="stop4"
         stop-color="#e1f3ff"
         offset="0" />
      <stop
         id="stop6"
         stop-color="#ccdaff"
         offset="1" />
    </linearGradient>
    <linearGradient
       id="c">
      <stop
         id="stop9"
         stop-color="#f1f8ff"
         offset="0" />
      <stop
         id="stop11"
         stop-color="#e0e9ff"
         offset="1" />
    </linearGradient>
    <linearGradient
       id="b">
      <stop
         id="stop14"
         stop-color="#f2faff"
         offset="0" />
      <stop
         id="stop16"
         stop-color="#ccdaff"
         offset="1" />
    </linearGradient>
    <linearGradient
       id="a">
      <stop
         id="stop19"
         stop-color="#05a9ff"
         offset="0" />
      <stop
         id="stop21"
         stop-color="#3663fe"
         offset="1" />
    </linearGradient>
    <linearGradient
       xlink:href="#a"
       gradientUnits="userSpaceOnUse"
       gradientTransform="matrix(.37818 0 0 .37818 -145.4 -12.2)"
       y2="114.1"
       y1="114.1"
       x2="565.5"
       x1="430"
       id="h" />
    <linearGradient
       xlink:href="#SVGID_1_"
       gradientUnits="userSpaceOnUse"
       gradientTransform="matrix(1.32706,0,0,1.32706,-15.2,-19)"
       y2="37.200001"
       y1="37.200001"
       x2="82.800003"
       x1="1.1"
       id="f" />
    <linearGradient
       xlink:href="#SVGID_1_"
       gradientUnits="userSpaceOnUse"
       gradientTransform="matrix(1.32706,0,0,1.32706,-15.2,-19)"
       y2="37.200001"
       y1="37.200001"
       x2="82.800003"
       x1="1.1"
       id="g" />
    <linearGradient
       xlink:href="#c"
       gradientUnits="userSpaceOnUse"
       gradientTransform="matrix(0.94737,0,0,0.94737,-0.1,0)"
       y2="31"
       y1="31"
       x2="88.099998"
       x1="-2.4000001"
       id="e" />
  </defs>
  <path
     style="fill-opacity:1;fill:url(#radialGradient874)"
     id="path30"
     transform="matrix(1 0 0 1.05556 2.4 0)"
     d="M-2.4 0h85.7v58.7H-2.4z"
     fill="url(#e)" />
  <g
     transform="matrix(0.05679328,0,0,0.05673694,27.737139,41.727481)"
     style="opacity:0.94008268"
     id="layer3">
    <g
       transform="matrix(0.98836995,0,0,0.98836995,-138.48297,-665.25177)"
       id="g41">
      <path
         style="fill:#ffffff;stroke:#2e3d25;stroke-width:30"
         id="path5"
         d="m 682.256,371.344 c -5.95,-22.158 -15.966,-41.487 -30.027,-58.002 -4.224,-83.34 -48.864,-156.008 -114.702,-198.825 0.009,-0.362 0.03,-0.718 0.03,-1.083 0,-10.023 -4,-19.25 -12,-27.672 -30.406,-31.281 -67.406,-46.93 -111,-46.93 -43.203,0 -79.501,14.719 -108.899,44.156 -4.755,4.76 -9.119,9.704 -13.105,14.826 -85.685,40.38 -144.996,127.516 -144.996,228.518 0,5.421 0.191,10.797 0.527,16.133 -4.942,4.795 -8.571,11.083 -10.875,18.877 -11.887,41.973 -6.939,81.84 14.857,119.594 21.602,37.414 52.497,61.488 92.689,72.23 18.347,4.905 36.408,6.426 54.185,4.585 30.963,13.548 65.158,21.081 101.117,21.081 46.198,0 89.493,-12.417 126.745,-34.081 3.282,4.959 7.652,9.033 13.138,12.2 8.682,5.012 18.672,6.16 29.965,3.443 42.293,-10.691 74.346,-34.91 96.143,-72.664 21.6,-37.414 27.001,-76.207 16.208,-116.386 z" />
      <circle
         style="fill:#559338;stroke:#88ba68;stroke-width:5"
         id="circle7"
         r="252.5"
         cy="326.79099"
         cx="400.939" />
      <radialGradient
         gradientUnits="userSpaceOnUse"
         r="226.5"
         cy="337.29099"
         cx="405.43951"
         id="SVGID_1_">
        <stop
           id="stop9-3"
           style="stop-color:#D8EDCA"
           offset="0" />
        <stop
           id="stop11-6"
           style="stop-color:#9EBF88"
           offset="1" />
      </radialGradient>
      <circle
         style="fill:url(#radialGradient864);stroke:#b0d19b;stroke-width:5"
         id="circle14"
         r="226.5"
         cy="337.29099"
         cx="405.439" />
      <radialGradient
         gradientUnits="userSpaceOnUse"
         r="270.06439"
         cy="300.78909"
         cx="410.16501"
         id="SVGID_2_">
        <stop
           id="stop16-7"
           style="stop-color:#688C51"
           offset="0" />
        <stop
           id="stop18"
           style="stop-color:#587B42"
           offset="0.4749" />
        <stop
           id="stop20"
           style="stop-color:#42632D"
           offset="1" />
      </radialGradient>
      <path
         style="fill:url(#SVGID_2_);stroke:#5b7749;stroke-width:5"
         id="path23"
         d="m 683.139,371.803 c -10.791,-40.186 -34.926,-71.087 -72.387,-92.716 -37.463,-21.629 -76.373,-27.125 -116.746,-16.479 -4.532,1.195 -8.94,2.567 -13.236,4.1 -3.688,-0.938 -7.661,-1.416 -11.932,-1.416 H 415.44 c -20,0 -37,-7.117 -51,-21.359 -14,-14.234 -21,-31.383 -21,-51.445 0,-20.047 6.992,-37.094 20.984,-51.133 13.984,-14.039 30.977,-21.063 50.969,-21.063 5.188,0 10.383,0.547 15.586,1.633 l -43.063,42.75 c -8.852,8.734 -13.273,18.055 -13.273,27.969 0,11.109 4.094,20.828 12.297,29.156 8.203,8.328 17.899,12.492 29.102,12.492 10,0 19.398,-4.031 28.203,-12.102 l 76.797,-75.203 c 11.594,-8.82 17.398,-19.852 17.398,-33.094 0,-10.023 -4,-19.25 -12,-27.672 -30.406,-31.281 -67.406,-46.93 -111,-46.93 -43.204,0 -79.5,14.719 -108.899,44.156 -29.406,29.438 -44.102,65.789 -44.102,109.047 0,43.258 14.695,79.703 44.102,109.344 3.539,3.568 7.181,6.917 10.92,10.055 1.031,3.403 2.527,6.821 4.51,10.256 l 26.699,46.245 c 10,17.32 12.336,35.602 7.002,54.846 -5.327,19.242 -16.678,33.879 -34.053,43.91 -17.361,10.023 -35.621,12.49 -54.775,7.393 -19.15,-5.092 -33.729,-16.295 -43.725,-33.609 -2.594,-4.492 -4.718,-9.264 -6.379,-14.314 l 58.554,15.92 c 11.99,3.297 22.272,2.467 30.858,-2.49 9.621,-5.555 15.991,-13.959 19.102,-25.227 3.111,-11.27 1.869,-21.748 -3.732,-31.449 -5,-8.66 -13.19,-14.785 -24.582,-18.375 L 193.414,336.093 c -13.436,-5.63 -25.891,-5.141 -37.359,1.48 -8.681,5.012 -14.671,13.089 -17.964,24.229 -11.887,41.973 -6.939,81.84 14.857,119.594 21.602,37.414 52.497,61.488 92.69,72.23 40.197,10.748 79.026,5.299 116.488,-16.33 37.461,-21.629 61.677,-52.578 72.643,-92.865 1.277,-4.691 2.324,-9.361 3.16,-14.012 2.413,-2.584 4.609,-5.572 6.578,-8.984 l 26.699,-46.244 c 10,-17.32 24.664,-28.484 43.998,-33.487 19.328,-5.007 37.678,-2.495 55.053,7.536 17.361,10.023 28.629,24.602 33.791,43.74 5.166,19.129 2.752,37.357 -7.244,54.67 -2.594,4.494 -5.666,8.719 -9.207,12.682 l -15.492,-58.668 c -3.137,-12.033 -8.998,-20.521 -17.584,-25.479 -9.621,-5.555 -20.084,-6.869 -31.398,-3.93 -11.314,2.941 -19.768,9.254 -25.369,18.957 -5,8.66 -6.209,18.814 -3.621,30.475 l 26.729,104.111 c 1.842,14.449 8.492,24.992 19.961,31.613 8.682,5.012 18.672,6.16 29.965,3.443 42.293,-10.691 74.346,-34.91 96.143,-72.664 21.6,-37.415 27.001,-76.208 16.208,-116.387 z" />
      <g
         id="g39">
        <linearGradient
           y2="330.26489"
           x2="380.50079"
           y1="95.265602"
           x1="265.50101"
           gradientUnits="userSpaceOnUse"
           id="SVGID_3_">
          <stop
             id="stop25"
             style="stop-color:#FFFFFF"
             offset="0" />
          <stop
             id="stop27"
             style="stop-color:#FFFFFF"
             offset="1" />
        </linearGradient>
        <path
           style="opacity:0.25;fill:url(#SVGID_3_)"
           id="path30-5"
           d="m 137.208,361.342 c 2.304,-7.794 5.933,-14.082 10.875,-18.877 -0.336,-5.336 -0.527,-10.712 -0.527,-16.133 0,-101.002 59.312,-188.137 144.996,-228.518 3.986,-5.122 8.351,-10.065 13.105,-14.826 29.398,-29.438 65.696,-44.156 108.899,-44.156 43.594,0 80.594,15.648 111,46.93 8,8.422 12,17.648 12,27.672 0,0.365 -0.021,0.721 -0.03,1.083 38.732,25.189 70.124,60.713 90.271,102.661 4.848,-1.429 9.706,-2.847 14.579,-4.247 -20.205,-43.096 -51.554,-79.922 -90.329,-106.736 -0.645,-4.527 -1.898,-8.962 -3.729,-13.166 -2.794,-6.44 -6.867,-12.316 -11.888,-17.597 l -0.094,-0.101 -0.024,-0.024 C 519.871,58.38 501.3,45.391 480.842,36.75 460.393,28.094 438.141,23.823 414.557,23.832 c -23.298,-0.007 -45.188,3.991 -65.264,12.139 -20.079,8.131 -38.266,20.397 -54.251,36.417 -4.306,4.312 -8.334,8.776 -12.082,13.389 -89.041,43.399 -150.392,134.821 -150.404,240.553 0,3.633 0.081,7.231 0.228,10.798 -4.501,5.817 -7.804,12.614 -9.961,19.961 l -0.026,0.088 -0.022,0.076 c -4.541,16.027 -6.863,31.98 -6.861,47.741 -0.026,28.904 7.877,57.024 23.162,83.44 0.408,0.707 0.827,1.4 1.242,2.1 3.559,-3.827 7.143,-7.616 10.762,-11.353 -20.948,-37.234 -25.575,-76.515 -13.872,-117.839 z" />
        <linearGradient
           y2="330.25949"
           x2="380.5116"
           y1="95.2603"
           x1="265.51169"
           gradientUnits="userSpaceOnUse"
           id="SVGID_4_">
          <stop
             id="stop32"
             style="stop-color:#FFFFFF"
             offset="0" />
          <stop
             id="stop34"
             style="stop-color:#FFFFFF"
             offset="1" />
        </linearGradient>
        <path
           style="opacity:0.25;fill:url(#SVGID_4_)"
           id="path37"
           d="m 537.526,114.517 c 0.009,-0.362 0.03,-0.718 0.03,-1.083 0,-10.023 -4,-19.25 -12,-27.672 -30.406,-31.281 -67.406,-46.93 -111,-46.93 -43.203,0 -79.501,14.719 -108.899,44.156 -4.755,4.76 -9.119,9.704 -13.105,14.826 -85.685,40.38 -144.996,127.516 -144.996,228.518 0,5.421 0.191,10.797 0.527,16.133 -4.942,4.795 -8.571,11.083 -10.875,18.877 -11.703,41.324 -7.076,80.605 13.871,117.84 3.641,-3.76 7.321,-7.46 11.022,-11.129 122.778,-121.7 278.53,-194.236 451.114,-246.516 4.848,-1.468 9.707,-2.922 14.581,-4.359 -20.146,-41.948 -51.537,-77.471 -90.27,-102.661 z" />
      </g>
    </g>
    <g
       transform="matrix(2.3810546,0,0,2.3810546,-784.29486,-1551.819)"
       id="g4836">
      <path
         style="fill:#424241;fill-opacity:1;stroke-width:0.9375"
         id="path7"
         d="m 240.17721,671.78992 v 7.87875 h -74.0625 c 0.70031,11.08969 4.04062,19.5375 10.02375,25.34437 5.98125,5.80782 14.31375,8.71032 24.99375,8.71032 6.18562,0 12.18281,-0.75844 17.99062,-2.27625 5.80688,-1.51688 11.56969,-3.79313 17.29031,-6.82875 v 15.23343 c -5.77781,2.45063 -11.70187,4.31907 -17.77218,5.6025 -6.07032,1.28344 -12.22688,1.92657 -18.47157,1.92657 -15.64218,0 -28.02937,-4.55157 -37.16343,-13.65657 -9.13501,-9.105 -13.70063,-21.41906 -13.70063,-36.94406 0,-16.04906 4.33312,-28.78687 13.00031,-38.21344 8.66719,-9.42468 20.35407,-14.13843 35.06157,-14.13843 13.18875,0 23.62218,4.24593 31.2975,12.73781 7.67437,8.49187 11.5125,20.03437 11.5125,34.62375 z m -16.10813,-4.72781 c -0.11719,-8.81157 -2.58187,-15.84469 -7.39781,-21.09844 -4.815,-5.25281 -11.19188,-7.87875 -19.12875,-7.87875 -8.98781,0 -16.18219,2.53875 -21.57938,7.61719 -5.39906,5.0775 -8.50687,12.22687 -9.32343,21.44812 z" />
      <path
         style="fill:#424241;fill-opacity:1;stroke-width:0.9375"
         id="path9"
         d="m 313.72221,668.90054 v 55.94157 h -16.10813 v -14.88282 c -3.67687,5.95407 -8.25937,10.34532 -13.74468,13.17563 -5.48719,2.83125 -12.19876,4.24594 -20.13563,4.24594 -10.03875,0 -18.02063,-2.81532 -23.94375,-8.44782 -5.92406,-5.6325 -8.88563,-13.17656 -8.88563,-22.63125 0,-11.03062 3.69094,-19.34718 11.07469,-24.94968 7.38281,-5.60344 18.39844,-8.40469 33.04781,-8.40469 h 22.58626 v -1.57594 c 0,-7.41094 -2.4375,-13.14469 -7.30969,-17.20312 -4.87406,-4.05563 -11.71782,-6.08438 -20.52844,-6.08438 -5.60344,0 -11.06063,0.67219 -16.37063,2.01375 -5.31187,1.34344 -10.4175,3.35625 -15.32062,6.04031 v -14.88093 c 5.89406,-2.27625 11.61375,-3.98344 17.15906,-5.12157 5.54438,-1.13812 10.94344,-1.70718 16.19531,-1.70718 14.18251,0 24.77532,3.67781 31.77844,11.03156 7.00313,7.35281 10.50563,18.50156 10.50563,33.44062 z m -32.12906,6.65438 c -13.01532,0 -22.03219,1.48781 -27.05157,4.46437 -5.02031,2.9775 -7.52906,8.055 -7.52906,15.23344 0,5.72063 1.8825,10.25719 5.64656,13.61344 3.765,3.35625 8.88656,5.03344 15.36469,5.03344 8.92969,0 16.09313,-3.165 21.49219,-9.49875 5.39812,-6.33188 8.09812,-14.75063 8.09812,-25.25625 v -3.58875 h -16.02093 z" />
      <path
         style="fill:#424241;fill-opacity:1;stroke-width:0.9375"
         id="path11"
         d="m 382.51502,629.68117 v 15.2325 c -4.5525,-2.33344 -9.27937,-4.08375 -14.1825,-5.25281 -4.90219,-1.16719 -9.98062,-1.75125 -15.2325,-1.75125 -7.99687,0 -13.99406,1.22625 -17.99062,3.67687 -3.99844,2.45156 -5.99625,6.12844 -5.99625,11.03156 0,3.735 1.42875,6.6675 4.29,8.79844 2.85843,2.13094 8.60812,4.15875 17.24625,6.08344 l 5.51531,1.22625 c 11.43844,2.45156 19.56656,5.91 24.38156,10.37344 4.815,4.46531 7.2225,10.69593 7.2225,18.69187 0,9.10406 -3.60469,16.3125 -10.81219,21.6225 -7.20843,5.31188 -17.115,7.96688 -29.72156,7.96688 -5.25281,0 -10.72406,-0.51188 -16.41469,-1.53188 -5.69062,-1.02094 -11.68687,-2.55281 -17.99062,-4.59656 v -16.63313 c 5.95312,3.09469 11.81812,5.41407 17.59687,6.96 5.77782,1.54688 11.4975,2.32032 17.15907,2.32032 7.58625,0 13.42312,-1.29844 17.50875,-3.89532 4.08468,-2.59687 6.12843,-6.25968 6.12843,-10.9875 0,-4.37718 -1.47468,-7.7325 -4.42125,-10.06687 -2.9475,-2.33344 -9.41156,-4.58156 -19.39125,-6.74063 l -5.60343,-1.3125 c -9.98063,-2.10093 -17.18907,-5.32593 -21.62344,-9.67406 -4.43625,-4.34719 -6.65344,-10.31531 -6.65344,-17.9025 0,-9.22125 3.26813,-16.34156 9.80438,-21.36094 6.53625,-5.01937 15.81562,-7.52906 27.83906,-7.52906 5.95312,0 11.55562,0.43781 16.80844,1.31344 5.25281,0.87375 10.09687,2.18625 14.53312,3.9375 z" />
      <path
         style="fill:#424241;fill-opacity:1;stroke-width:0.9375"
         id="path13"
         d="m 427.67909,733.94711 c -4.55157,11.67187 -8.98875,19.28812 -13.30688,22.84875 -4.31906,3.55969 -10.09781,5.34 -17.33344,5.34 h -12.86906 v -13.48219 h 9.45469 c 4.43437,0 7.87875,-1.05 10.33031,-3.15094 2.45156,-2.10093 5.16563,-7.06218 8.14219,-14.88281 l 2.88937,-7.35375 -39.65812,-96.47438 h 17.07093 l 30.64126,76.68938 30.64125,-76.68938 h 17.07 z" />
      <path
         style="fill:#4d603d;fill-opacity:1;stroke-width:0.9375"
         id="path15"
         d="m 495.6694,687.85679 v 36.98532 h -25.20094 v -97.7325 h 38.49094 c 12.87188,0 22.30969,2.16093 28.31156,6.48093 5.99813,4.32 9,11.15157 9,20.48813 0,6.46031 -1.56,11.76187 -4.68,15.9075 -3.12,4.14656 -7.8225,7.20094 -14.10656,9.16406 3.44625,0.78563 6.53531,2.56406 9.26344,5.33438 2.72625,2.77218 5.48625,6.97218 8.28,12.60093 l 13.68187,27.75469 h -26.83968 l -11.91375,-24.28312 c -2.40094,-4.88719 -4.83375,-8.22563 -7.29844,-10.01625 -2.46657,-1.78875 -5.75157,-2.68407 -9.85313,-2.68407 z m 10.605,-17.41125 c 5.27906,0 9.06563,-0.9825 11.35781,-2.94656 2.29032,-1.96406 3.435,-5.19281 3.435,-9.68812 0,-4.45125 -1.14468,-7.63688 -3.435,-9.55688 -2.29218,-1.92 -6.07875,-2.88 -11.35781,-2.88 h -10.60594 v 25.07156 z" />
      <path
         style="fill:#4d603d;fill-opacity:1;stroke-width:0.9375"
         id="path17"
         d="m 560.29315,627.10961 h 41.82844 c 12.43687,0 21.98344,2.76093 28.63969,8.28093 6.65437,5.52188 9.98062,13.38657 9.98062,23.59875 0,10.25532 -3.32718,18.14438 -9.98062,23.66344 -6.65625,5.52188 -16.20282,8.28094 -28.63969,8.28094 h -16.6275 v 33.90844 h -25.20094 z m 25.2,18.26437 v 27.29625 h 13.94344 c 4.88719,0 8.6625,-1.18875 11.325,-3.56719 2.66062,-2.37843 3.99375,-5.74968 3.99375,-10.11375 0,-4.36312 -1.33313,-7.72406 -3.99375,-10.08093 -2.6625,-2.35688 -6.43781,-3.53532 -11.325,-3.53532 h -13.94344 z" />
      <path
         style="fill:#4d603d;fill-opacity:1;stroke-width:0.9375"
         id="path19"
         d="m 732.99003,717.57648 c -6.28406,3.05531 -12.81,5.34563 -19.57406,6.87281 -6.76407,1.52719 -13.74563,2.29125 -20.9475,2.29125 -16.27782,0 -29.17219,-4.55062 -38.68688,-13.64906 -9.51375,-9.09937 -14.26969,-21.43781 -14.26969,-37.01812 0,-15.75282 4.84313,-28.14657 14.53125,-37.18125 9.68813,-9.03282 22.95375,-13.54969 39.79969,-13.54969 6.5025,0 12.73313,0.61125 18.69,1.83281 5.95688,1.2225 11.57438,3.03375 16.85531,5.43281 v 20.2275 c -5.45437,-3.09843 -10.87687,-5.41031 -16.26562,-6.93843 -5.39063,-1.52719 -10.7925,-2.29125 -16.20281,-2.29125 -10.03782,0 -17.77219,2.805 -23.205,8.41218 -5.43282,5.60813 -8.14969,13.6275 -8.14969,24.05625 0,10.34344 2.61844,18.32907 7.85531,23.95969 5.23688,5.62875 12.67594,8.44406 22.32281,8.44406 2.61844,0 5.05032,-0.16406 7.29844,-0.49031 2.24625,-0.32812 4.26469,-0.84 6.05531,-1.53937 v -18.9825 h -15.3825 v -16.89 h 39.27657 v 47.00062 z" />
      <g
         id="g21"
         style="opacity:0.3;fill:#ffffff;fill-opacity:1"
         transform="matrix(0.93750002,0,0,0.93750002,92.070016,385.08835)">
        <path
           d="m 191.326,255.296 c -5.603,0 -11.362,0.607 -17.275,1.821 -5.915,1.214 -12.016,3.035 -18.303,5.463 v 15.875 c 5.229,-2.863 10.676,-5.011 16.342,-6.443 5.664,-1.432 11.486,-2.148 17.462,-2.148 9.399,0 16.699,2.164 21.897,6.49 5.197,4.328 7.797,10.444 7.797,18.35 v 1.681 h -24.092 c -15.626,0 -27.376,2.988 -35.251,8.965 -0.673,0.511 -1.307,1.05 -1.922,1.604 v -1.137 c 0,-15.563 -4.094,-27.874 -12.279,-36.933 -8.187,-9.058 -19.315,-13.587 -33.384,-13.587 -15.688,0 -28.154,5.028 -37.399,15.081 -9.245,10.055 -13.867,23.642 -13.867,40.761 0,6.486 0.758,12.438 2.252,17.874 4.784,-0.84 10.714,-1.854 17.619,-2.99 -1.02,-3.562 -1.67,-7.492 -1.942,-11.802 h 73.203 c -0.279,0.504 -0.543,1.019 -0.793,1.543 8.524,-1.083 17.378,-2.148 26.483,-3.169 5.625,-1.84 13.715,-2.763 24.285,-2.763 h 2.24 c 10.506,-1.008 21.221,-1.927 32.031,-2.724 v -4.374 c 0,-15.936 -3.735,-27.827 -11.206,-35.671 -7.472,-7.844 -18.77,-11.767 -33.898,-11.767 z m -111.785,45.57 c 0.871,-9.836 4.186,-17.462 9.945,-22.878 5.757,-5.417 13.431,-8.125 23.018,-8.125 8.466,0 15.268,2.802 20.404,8.404 5.136,5.604 7.765,13.105 7.891,22.505 z m 324.248,-42.71 0.137,-0.339 h -18.209 l -19.312,48.336 c 5.369,0.471 10.627,1.025 15.753,1.672 0.526,0.066 1.059,0.131 1.588,0.197 l 19.879,-49.458 v -0.409 h 0.164 z m -101.648,-0.339 0.262,0.636 c -2.589,-0.703 -5.288,-1.289 -8.096,-1.756 -5.603,-0.935 -11.579,-1.401 -17.929,-1.401 -12.825,0 -22.724,2.678 -29.695,8.031 -6.973,5.354 -10.458,12.949 -10.458,22.785 0,8.093 2.365,14.459 7.097,19.096 0.458,0.449 0.952,0.883 1.466,1.31 14.726,-0.99 29.573,-1.733 44.263,-2.138 -2.291,-0.659 -4.734,-1.272 -7.35,-1.833 l -5.883,-1.308 c -9.214,-2.054 -15.347,-4.216 -18.396,-6.489 -3.051,-2.272 -4.576,-5.4 -4.576,-9.385 0,-5.229 2.131,-9.151 6.396,-11.767 4.263,-2.614 10.66,-3.922 19.19,-3.922 5.603,0 11.019,0.623 16.248,1.868 5.229,1.246 10.272,3.113 15.128,5.603 v -0.679 l 11.349,27.608 c 6.02,0.063 11.973,0.198 17.841,0.412 l -18.647,-46.672 h -18.21 z m 172.74,7.252 c -6.402,-4.608 -16.469,-6.913 -30.199,-6.913 h -40.893 l -0.164,0.409 v 51.646 c 19.899,1.938 41.397,3.343 63.491,4.278 -0.868,-0.34 -1.76,-0.614 -2.675,-0.823 6.703,-2.095 11.719,-5.353 15.047,-9.775 3.328,-4.422 4.992,-10.077 4.992,-16.968 0,-9.959 -3.201,-17.245 -9.599,-21.854 z m -20.947,36.169 c -2.445,2.095 -6.484,3.143 -12.115,3.143 h -11.313 v -26.743 h 11.313 c 5.631,0 9.67,1.024 12.115,3.072 2.443,2.049 3.664,5.446 3.664,10.194 0,4.795 -1.221,8.24 -3.664,10.334 z m 120.67,-34.249 c -7.1,-5.888 -17.283,-8.833 -30.549,-8.833 h -44.617 v 57.368 c 26.091,0.577 52.332,0.563 77.152,0.056 5.767,-5.757 8.66,-13.558 8.66,-23.419 0,-10.892 -3.549,-19.282 -10.646,-25.172 z m -21.333,35.96 c -2.84,2.537 -6.867,3.805 -12.08,3.805 h -14.873 v -29.116 h 14.873 c 5.213,0 9.24,1.257 12.08,3.771 2.838,2.514 4.26,6.099 4.26,10.753 0,4.654 -1.422,8.25 -4.26,10.787 z m 88.483,1.571 v 8.396 c 15.918,-1.032 30.121,-2.297 41.895,-3.75 v -4.646 z m 3.42,-28.768 c 5.771,0 11.533,0.815 17.283,2.444 5.748,1.63 11.531,4.097 17.35,7.401 v -21.576 c -5.633,-2.559 -11.625,-4.491 -17.979,-5.795 -6.354,-1.303 -13,-1.955 -19.936,-1.955 -17.969,0 -32.119,4.818 -42.453,14.453 -10.334,9.637 -15.5,22.857 -15.5,39.66 0,1.715 0.067,3.384 0.176,5.025 9.521,-0.235 18.801,-0.544 27.752,-0.918 -0.092,-1.328 -0.139,-2.696 -0.139,-4.107 0,-11.124 2.898,-19.678 8.693,-25.66 5.796,-5.98 14.046,-8.972 24.753,-8.972 z"
           id="path23-3"
           style="fill:#ffffff;fill-opacity:1" />
      </g>
    </g>
  </g>
</svg>
