<?xml version="1.0" encoding="UTF-8" standalone="no"?>
<svg
   xmlns:dc="http://purl.org/dc/elements/1.1/"
   xmlns:cc="http://creativecommons.org/ns#"
   xmlns:rdf="http://www.w3.org/1999/02/22-rdf-syntax-ns#"
   xmlns:svg="http://www.w3.org/2000/svg"
   xmlns="http://www.w3.org/2000/svg"
   xmlns:xlink="http://www.w3.org/1999/xlink"
   xmlns:sodipodi="http://sodipodi.sourceforge.net/DTD/sodipodi-0.dtd"
   xmlns:inkscape="http://www.inkscape.org/namespaces/inkscape"
   width="324px"
   height="234px"
   viewBox="0 0 324 234"
   version="1.1"
   id="svg30"
   sodipodi:docname="elapp.svg"
   inkscape:version="1.0.1 (3bc2e813f5, 2020-09-07)">
  <metadata
     id="metadata34">
    <rdf:RDF>
      <cc:Work
         rdf:about="">
        <dc:format>image/svg+xml</dc:format>
        <dc:type
           rdf:resource="http://purl.org/dc/dcmitype/StillImage" />
        <dc:title></dc:title>
      </cc:Work>
    </rdf:RDF>
  </metadata>
  <sodipodi:namedview
     pagecolor="#ffffff"
     bordercolor="#666666"
     borderopacity="1"
     objecttolerance="10"
     gridtolerance="10"
     guidetolerance="10"
     inkscape:pageopacity="0"
     inkscape:pageshadow="2"
     inkscape:window-width="1920"
     inkscape:window-height="946"
     id="namedview32"
     showgrid="false"
     inkscape:zoom="1.1618913"
     inkscape:cx="-231.78248"
     inkscape:cy="107.86816"
     inkscape:window-x="0"
     inkscape:window-y="0"
     inkscape:window-maximized="1"
     inkscape:current-layer="svg30" />
  <defs
     id="defs15">
    <radialGradient
       id="radial0"
       gradientUnits="userSpaceOnUse"
       cx="90.136406"
       cy="64.761543"
       fx="90.136406"
       fy="64.761543"
       r="91.591759"
       gradientTransform="matrix(1.8,0,0,1.304046,0,32.11876)">
      <stop
         offset="0"
         style="stop-color:rgb(65.882355%,85.882354%,57.647061%);stop-opacity:1;"
         id="stop2" />
      <stop
         offset="0.1284"
         style="stop-color:rgb(62.7451%,84.705883%,56.862748%);stop-opacity:1;"
         id="stop4" />
      <stop
         offset="0.3261"
         style="stop-color:rgb(54.509807%,81.960785%,55.29412%);stop-opacity:1;"
         id="stop6" />
      <stop
         offset="0.5684"
         style="stop-color:rgb(40.392157%,76.862746%,52.549022%);stop-opacity:1;"
         id="stop8" />
      <stop
         offset="0.8435"
         style="stop-color:rgb(21.568628%,70.19608%,48.235294%);stop-opacity:1;"
         id="stop10" />
      <stop
         offset="1"
         style="stop-color:rgb(9.411765%,65.882355%,45.882353%);stop-opacity:1;"
         id="stop12" />
    </radialGradient>
    <radialGradient
       id="a"
       cx="500"
       cy="500"
       r="142.30251"
       gradientUnits="userSpaceOnUse"
       gradientTransform="matrix(0.38259228,0,0,0.38259228,-25.602714,-74.269055)">
      <stop
         offset="0"
         stop-color="#3a2383"
         id="stop440" />
      <stop
         offset="1"
         stop-color="#1d0343"
         id="stop442" />
    </radialGradient>
    <radialGradient
       id="b"
       cx="500"
       cy="500"
       r="166.01958"
       gradientUnits="userSpaceOnUse"
       gradientTransform="matrix(0.38259228,0,0,0.38259228,-25.602714,-74.269055)">
      <stop
         offset="0"
         stop-color="#483388"
         stop-opacity="1"
         id="stop445" />
      <stop
         offset="1"
         stop-color="#483388"
         stop-opacity="0"
         id="stop447" />
    </radialGradient>
    <linearGradient
       x1="104.07502"
       y1="35.309503"
       x2="104.07502"
       y2="44.635222"
       id="linearGradient-1"
       gradientUnits="userSpaceOnUse">
      <stop
         stop-color="#FFFFFF"
         offset="0%"
         id="stop202" />
      <stop
         stop-color="#D4E1F3"
         offset="100%"
         id="stop204" />
    </linearGradient>
    <circle
       id="path-2"
       cx="104.075021"
       cy="39.972362"
       r="4.66285938" />
  </defs>
  <g
     id="surface1"
     transform="matrix(0.38259228,0,0,0.38259228,100.49851,66.73386)">
    <path
       style="fill:none;stroke:#ffffff;stroke-width:1.0217;stroke-linecap:butt;stroke-linejoin:miter;stroke-miterlimit:4;stroke-opacity:1"
       d="M -0.94401,-1.082899 H 181.21745 V 130.60547 H -0.94401 Z m 0,0"
       transform="scale(1.8)"
       id="path19" />
  </g>
  <rect
     fill="#3a2383"
     width="382.59229"
     height="382.59229"
     id="rect438"
     x="-25.602734"
     y="-74.269066"
     style="stroke-width:0.382592" />
  <rect
     fill="url(#a)"
     width="382.59229"
     height="382.59229"
     id="rect452"
     x="-25.602734"
     y="-74.269066"
     style="fill:url(#a);stroke-width:0.382592" />
  <rect
     fill-opacity="0.5"
     fill="url(#b)"
     width="382.59229"
     height="382.59229"
     id="rect514"
     x="-25.602734"
     y="-74.269066"
     style="fill:url(#b);stroke-width:0.382592" />
  <g
     fill="none"
     stroke="#5b72ff"
     stroke-width="2"
     stroke-miterlimit="10"
     stroke-opacity="0.5"
     id="g512"
     transform="matrix(0.38259228,0,0,0.38259228,-25.602724,-74.269055)">
    <circle
       cx="500"
       cy="500"
       r="600"
       id="circle464" />
    <circle
       cx="500"
       cy="500"
       r="475"
       id="circle474" />
    <circle
       cx="500"
       cy="500"
       r="350"
       id="circle484" />
    <circle
       cx="500"
       cy="500"
       r="225"
       id="circle494" />
    <circle
       cx="500"
       cy="500"
       r="100"
       id="circle504" />
  </g>
  <g
     id="g249"
     transform="matrix(1.2918321,0,0,1.2918321,69.081056,-0.12125615)">
    <g
       id="logo"
       transform="translate(22.625505,60.227863)"
       style="fill:none;fill-rule:evenodd;stroke:none;stroke-width:1">
      <path
         d="m 12.019453,41.32267 c 2.05702,0 4.033373,-0.524339 5.767723,-1.532682 1.29068,-0.766341 1.734351,-2.460358 0.96801,-3.791371 -0.766341,-1.290679 -2.460358,-1.774684 -3.751037,-0.96801 -2.581359,1.411681 -5.9290589,1.008344 -7.7037432,-1.694016 H 18.029179 c 2.299023,0 3.912372,-1.210012 3.67037,-3.630036 -0.64534,-5.162718 -5.001383,-9.034757 -10.204435,-9.034757 -4.5577118,0 -8.0667466,2.863695 -9.4784273,6.292063 -1.08901083,2.621692 -1.12934456,5.808057 0.1210012,8.389416 1.6133493,3.3477 5.2433853,5.969393 9.8817651,5.969393 z M 15.568821,28.738545 H 7.3407395 c 0.3630036,-1.532682 2.0973542,-2.984696 4.1140405,-2.984696 2.057021,0 3.751038,1.452014 4.114041,2.984696 z M 27.099788,41 c 1.774684,0 3.226698,-1.452014 3.226698,-3.226699 v 0 -20.368535 c 0,-1.774684 -1.452014,-3.226699 -3.226698,-3.226699 -1.774685,0 -3.226699,1.452015 -3.226699,3.226699 v 0 20.368535 C 23.873089,39.547986 25.325103,41 27.099788,41 Z m 15.524005,0.32267 c 1.855352,0 3.509035,-0.484005 5.041717,-1.29068 C 48.230182,40.596663 49.036857,41 49.924199,41 c 1.653683,0 3.02503,-1.371347 3.02503,-3.02503 V 23.858163 c 0,-1.653683 -1.371347,-3.02503 -3.02503,-3.02503 -0.968009,0 -1.774684,0.403337 -2.339356,1.129345 -1.532682,-0.806675 -3.186365,-1.29068 -4.96105,-1.29068 -5.687056,0 -10.325435,4.63838 -10.325435,10.325436 0,5.687057 4.638379,10.325436 10.325435,10.325436 z m 0,-6.413064 c -2.178021,0 -3.912372,-1.73435 -3.912372,-3.912372 0,-2.178022 1.734351,-3.912372 3.912372,-3.912372 2.178022,0 3.912373,1.73435 3.912373,3.912372 0,2.178022 -1.734351,3.912372 -3.912373,3.912372 z m 16.330681,12.42279 c 1.774684,0 3.186365,-1.452014 3.186365,-3.186365 v -3.751037 c 1.210012,0.484005 2.541025,0.766341 3.912372,0.766341 5.687057,0 10.325436,-4.638379 10.325436,-10.325436 0,-5.687056 -4.638379,-10.325436 -10.325436,-10.325436 -1.815018,0 -3.549369,0.484005 -5.041717,1.29068 -0.564672,-0.605006 -1.331013,-0.96801 -2.258689,-0.96801 -1.653683,0 -3.02503,1.371347 -3.02503,3.02503 v 20.408869 c 0,1.653683 1.331013,2.984697 2.944363,3.065364 z m 7.098737,-12.584125 c -2.178022,0 -3.912372,-1.73435 -3.912372,-3.912372 0,-2.178021 1.73435,-3.912372 3.912372,-3.912372 2.178022,0 3.912372,1.734351 3.912372,3.912372 0,2.178022 -1.73435,3.912372 -3.912372,3.912372 z m 15.322337,12.584125 c 1.774685,0 3.186365,-1.452014 3.186365,-3.186365 v -3.751037 c 1.210012,0.484005 2.541025,0.766341 3.912372,0.766341 5.687057,0 10.325436,-4.638379 10.325436,-10.325436 0,-5.687056 -4.638379,-10.325436 -10.325436,-10.325436 -1.815018,0 -3.549368,0.484005 -5.041716,1.29068 -0.564673,-0.605006 -1.331013,-0.96801 -2.258689,-0.96801 -1.653683,0 -3.02503,1.371347 -3.02503,3.02503 v 20.408869 c 0,1.653683 1.331013,2.984697 2.944362,3.065364 z m 7.098737,-12.584125 c -2.178021,0 -3.912372,-1.73435 -3.912372,-3.912372 0,-2.178021 1.734351,-3.912372 3.912372,-3.912372 2.178022,0 3.912373,1.734351 3.912373,3.912372 0,2.178022 -1.734351,3.912372 -3.912373,3.912372 z"
         id="elapp"
         fill="#ffffff"
         fill-rule="nonzero" />
      <mask
         id="mask-3"
         fill="#ffffff">
        <use
           xlink:href="#path-2"
           id="use211"
           x="0"
           y="0"
           width="100%"
           height="100%" />
      </mask>
      <use
         id="Mask"
         fill="url(#linearGradient-1)"
         xlink:href="#path-2"
         style="fill:url(#linearGradient-1)"
         x="0"
         y="0"
         width="100%"
         height="100%" />
    </g>
  </g>
</svg>
