<svg xmlns="http://www.w3.org/2000/svg" xmlns:xlink="http://www.w3.org/1999/xlink" width="324" height="234"><defs><path id="i" fill="none" d="M24.79 43.63h324v234h-324z" paint-order="markers fill stroke"/></defs><defs><linearGradient id="e" x1="16.49" x2="-6.14" y1="39.96" y2="67.83" gradientTransform="matrix(3.236 0 0 2.3894 11.44 9.73)" gradientUnits="userSpaceOnUse"><stop offset="0%" stop-color="#FFDC68"/><stop offset="100%" stop-color="#eb9b36"/></linearGradient><linearGradient id="d"><stop offset="0" stop-color="#b28dc1"/><stop offset="1" stop-color="#e1d3e7"/></linearGradient><linearGradient id="f"><stop offset="0" stop-color="#c6c6c6" stop-opacity=".98"/><stop offset=".18" stop-color="#fff" stop-opacity=".98"/><stop offset="1" stop-color="#dedede"/></linearGradient><linearGradient id="a" x1="161.28" x2="145.29" y1="7.57" y2="30.65" gradientTransform="scale(1.0852 .9215)" gradientUnits="userSpaceOnUse"><stop offset="0%" stop-color="#D446FF"/><stop offset="100%" stop-color="#A0D8FF"/></linearGradient><linearGradient id="b" x1="157.62" x2="163.49" y1="21.21" y2="42.91" gradientTransform="scale(1.0715 .9333)" gradientUnits="userSpaceOnUse"><stop offset="0%" stop-color="#3C3C3C"/><stop offset="100%" stop-color="#191919"/></linearGradient><linearGradient id="c" x1="79.55" x2="-11.58" y1="-14.47" y2="53.03" gradientTransform="scale(1.009 .991)" gradientUnits="userSpaceOnUse"><stop offset="0%" stop-color="#D446FF"/><stop offset="100%" stop-color="#A0D8FF"/></linearGradient><linearGradient xlink:href="#a" id="r" x1="161.28" x2="145.29" y1="7.57" y2="30.65" gradientTransform="scale(1.0852 .9215)" gradientUnits="userSpaceOnUse"/><linearGradient xlink:href="#b" id="s" x1="157.62" x2="163.49" y1="21.21" y2="42.91" gradientTransform="scale(1.0715 .9333)" gradientUnits="userSpaceOnUse"/><linearGradient id="q" x1="13.56" x2="-5.54" y1="38.66" y2="67.98" gradientTransform="matrix(4.1696 0 0 1.8544 11.44 9.73)" gradientUnits="userSpaceOnUse"><stop offset="0%" stop-color="#FFDC68"/><stop offset="100%" stop-color="#CE4300"/></linearGradient><linearGradient id="p" x1="10.3" x2="5.08" y1="22.93" y2="24.52" gradientTransform="matrix(5.9692 0 0 1.2953 11.44 9.73)" gradientUnits="userSpaceOnUse"><stop offset="0%" stop-color="#FFDC68"/><stop offset="100%" stop-color="#CE4300"/></linearGradient><linearGradient id="o" x1="16.49" x2="-6.14" y1="39.96" y2="67.83" gradientTransform="matrix(3.236 0 0 2.3894 11.44 9.73)" gradientUnits="userSpaceOnUse"><stop offset="0%" stop-color="#FFDC68"/><stop offset="100%" stop-color="#CE4300"/></linearGradient><linearGradient id="n" x1="36.87" x2="16.5" y1="15.71" y2="24.66" gradientTransform="matrix(3.7678 0 0 2.0521 11.44 9.73)" gradientUnits="userSpaceOnUse"><stop offset="0%" stop-color="#D0D0D0"/><stop offset="100%" stop-color="#FFF"/></linearGradient><linearGradient id="m" x1="25.71" x2="11.38" y1="50.33" y2="32.59" gradientTransform="matrix(3.0979 0 0 2.4959 11.44 9.73)" gradientUnits="userSpaceOnUse"><stop offset="0%" stop-color="#FFF"/><stop offset="100%" stop-color="#DADADA"/></linearGradient><linearGradient id="l" x1="20.77" x2="40.2" y1="34.17" y2="23.64" gradientTransform="matrix(3.3505 0 0 2.3077 11.44 9.73)" gradientUnits="userSpaceOnUse"><stop offset="0%" stop-color="#FFF"/><stop offset="100%" stop-color="#DADADA"/></linearGradient><linearGradient xlink:href="#c" id="k" x1="79.55" x2="-11.58" y1="-14.47" y2="53.03" gradientTransform="matrix(2.806 0 0 2.7556 11.44 9.73)" gradientUnits="userSpaceOnUse"/><linearGradient xlink:href="#d" id="h" x1="217.5" x2="270.75" y1="180.75" y2="234" gradientTransform="matrix(0 -.5297 .5297 0 175.25 128)" gradientUnits="userSpaceOnUse"/><linearGradient xlink:href="#e" id="j" x1="324" x2="57.75" y1="-32.25" y2="234" gradientTransform="rotate(-90 142.1 -82.74) scale(.3178)" gradientUnits="userSpaceOnUse"/><linearGradient xlink:href="#f" id="g" x1="0" x2="0" y1="446.19" y2="212.19" gradientTransform="translate(-24.79 -255.81)" gradientUnits="userSpaceOnUse"/><linearGradient xlink:href="#d" id="t" x1="217.5" x2="270.75" y1="180.75" y2="234" gradientTransform="rotate(180 73.42 40.16) scale(.5297)" gradientUnits="userSpaceOnUse"/><linearGradient xlink:href="#e" id="u" x1="324" x2="57.75" y1="-32.25" y2="234" gradientTransform="rotate(180 39.1 15.37) scale(.3178)" gradientUnits="userSpaceOnUse"/></defs><path fill="url(#g)" fill-rule="evenodd" d="M-24.79-43.63h324v234h-324z" paint-order="markers fill stroke" transform="translate(24.79 43.63)"/><path fill="url(#h)" fill-rule="evenodd" d="m299.21 41-28.2-28.21-28.22-28.21-28.2-28.2h84.62v28.2z" paint-order="markers fill stroke" transform="translate(24.79 43.63)"/><use xlink:href="#i" paint-order="markers fill stroke"/><use xlink:href="#i" paint-order="markers fill stroke"/><path fill="url(#j)" fill-rule="evenodd" d="M226.61-43.63H214.6l10.25 10.25 1.77 1.78 4.9 4.9 16.93 16.92 16.92 16.93 16.93 16.92L299.2 41V7.15L282.3-9.78 265.36-26.7l-16.92-16.93Z" paint-order="markers fill stroke" transform="translate(24.79 43.63)"/><g transform="translate(73.55 1.64) scale(1.0285)"><ellipse cx="86" cy="83" fill="url(#k)" stroke="#a3a3a3" stroke-width="1.39" rx="74.54" ry="73.19"/><path fill="url(#l)" fill-rule="evenodd" d="M37.5 154.55s23.3-81.5 113.97-71.14c0 0-57.63-34.21-113.57 11.9-16.52 38.27-.4 59.24-.4 59.24z"/><path fill="url(#m)" fill-rule="evenodd" d="M44.44 144.24s24.3-58.6 89.18-59.63c-49.32 12.02.08 54.6.08 54.6s-39.01 35.35-89.26 5.03z"/><path fill="url(#n)" fill-rule="evenodd" d="M30.9 99.32s48.55-53.4 121.04-16.5c-1.3-10.03-9.87-21.36-25.24-24.6-3.4-1.62-28.32-40.13-81.88-17.96 16.48 1.28 23.55 3.6 23.95 5.34-28.5-4.9-36.94 35.65-37.87 53.72Z"/><path fill="#202020" fill-rule="evenodd" d="M100.53 54.02s12.42-4.45 14.03 8.78c-12.24 1.16-14.03-8.78-14.03-8.78z"/><path fill="url(#o)" fill-rule="evenodd" d="M37.18 154.81S58.4 85.55 129.4 82.87c0 0-57.6-10.5-98.29 53.94-.23 9.12 6.07 18 6.07 18z"/><path fill="url(#p)" fill-rule="evenodd" d="M44.88 40.27s17.7 1.03 24.03 5.37c2.64-.54 4.88-2.35 5.26-4.8-2.27-.95-23-2.63-29.29-.57z"/><path fill="url(#q)" fill-rule="evenodd" d="M31.07 99.41s22.16-26.62 66.92-29.8c0 0-60.93 2.75-66.04 19.95-1.42 4.14-.89 9.85-.89 9.85z"/></g><g fill="none" fill-rule="nonzero"><path fill="#252525" d="M81.1 212.83h-4.35v-36.38h21.07v3.84H81.1v11.88h15.18v3.84H81.1Zm27.74-36.9h4.94l12.92 36.37h-4.4l-3.69-10.57h-15l-3.68 10.57H95.9zm2.27 4.25-6.2 17.74h12.37zm18.52 32.65v-36.38h4.35v32.57h16.33v3.81zm24.51 0v-36.38h4.36v36.38zm42.93-36.75c2.4 0 4.65.42 6.73 1.28 2.1.83 3.9 2.02 5.43 3.56a16.02 16.02 0 0 1 3.6 5.76c.88 2.28 1.31 4.8 1.31 7.55 0 3.72-.74 7.03-2.22 9.93a16.25 16.25 0 0 1-6.15 6.7 16.9 16.9 0 0 1-8.88 2.36c-2.19 0-4.28-.38-6.27-1.15a17.11 17.11 0 0 1-5.4-3.4 15.73 15.73 0 0 1-3.85-5.82 21.84 21.84 0 0 1-1.43-8.11c0-2.82.44-5.4 1.3-7.73.88-2.34 2.07-4.3 3.59-5.89a15.62 15.62 0 0 1 5.43-3.71 17.3 17.3 0 0 1 6.8-1.33zm-.23 3.81c-1.56 0-3.05.3-4.48.87a11.87 11.87 0 0 0-6.86 7.07c-.72 1.88-1.08 4-1.08 6.37 0 2.27.33 4.37 1 6.3a14.28 14.28 0 0 0 2.71 4.81 12.1 12.1 0 0 0 4.05 3.02c1.57.72 3.25 1.08 5.04 1.08a12 12 0 0 0 3.56-.54 11.62 11.62 0 0 0 3.38-1.69 12.48 12.48 0 0 0 2.81-2.87 13.32 13.32 0 0 0 1.95-4.17c.5-1.65.74-3.47.74-5.45 0-2.02-.25-3.86-.77-5.53a13.4 13.4 0 0 0-2.04-4.2 12.23 12.23 0 0 0-2.95-2.84 11.4 11.4 0 0 0-3.45-1.7 12.33 12.33 0 0 0-3.61-.53zm50.41 32.94h-5.5l-19.82-30.49v30.5h-4.35v-36.39h5.5l19.82 30.44v-30.43h4.35z"/><path fill="url(#r)" d="M156.88 24.49 174.26 4.5h6.15l-17.35 19.58z" transform="translate(20.47 172.99) scale(.8866)"/><path fill="url(#s)" d="m156.37 23.89 6.18-.4L181 44.92h-6.32z" transform="translate(20.47 172.99) scale(.8866)"/></g><path fill="url(#t)" fill-rule="evenodd" d="M59.84-43.63 31.63-15.42 3.42 12.79-24.78 41v-84.62h28.2Z" paint-order="markers fill stroke" transform="translate(24.79 43.63)"/><path fill="url(#u)" fill-rule="evenodd" d="M-24.79 28.97V41l10.25-10.25 1.78-1.78 4.9-4.9L9.06 7.16 26-9.78 42.9-26.7l16.93-16.93H25.99L9.06-26.7-7.86-9.78-24.8 7.15z" paint-order="markers fill stroke" transform="translate(24.79 43.63)"/></svg>