<?xml version="1.0" encoding="UTF-8"?>
<svg xmlns="http://www.w3.org/2000/svg" xmlns:xlink="http://www.w3.org/1999/xlink" width="324px" height="234px" viewBox="0 0 324 234" version="1.1">
<defs>
<clipPath id="clip1">
  <path d="M 93 145 L 137 145 L 137 188 L 93 188 Z M 93 145 "/>
</clipPath>
<clipPath id="clip2">
  <path d="M 294.171875 116.613281 C 294.171875 186.367188 235.070312 242.867188 162.25 242.867188 C 89.425781 242.867188 30.324219 186.367188 30.324219 116.613281 C 30.324219 46.859375 89.425781 -9.636719 162.25 -9.636719 C 235.070312 -9.636719 294.171875 46.859375 294.171875 116.613281 Z M 294.171875 116.613281 "/>
</clipPath>
<clipPath id="clip3">
  <path d="M 93 93 L 185 93 L 185 188 L 93 188 Z M 93 93 "/>
</clipPath>
<clipPath id="clip4">
  <path d="M 294.171875 116.613281 C 294.171875 186.367188 235.070312 242.867188 162.25 242.867188 C 89.425781 242.867188 30.324219 186.367188 30.324219 116.613281 C 30.324219 46.859375 89.425781 -9.636719 162.25 -9.636719 C 235.070312 -9.636719 294.171875 46.859375 294.171875 116.613281 Z M 294.171875 116.613281 "/>
</clipPath>
<clipPath id="clip5">
  <path d="M 93 45 L 232 45 L 232 188 L 93 188 Z M 93 45 "/>
</clipPath>
<clipPath id="clip6">
  <path d="M 294.171875 116.613281 C 294.171875 186.367188 235.070312 242.867188 162.25 242.867188 C 89.425781 242.867188 30.324219 186.367188 30.324219 116.613281 C 30.324219 46.859375 89.425781 -9.636719 162.25 -9.636719 C 235.070312 -9.636719 294.171875 46.859375 294.171875 116.613281 Z M 294.171875 116.613281 "/>
</clipPath>
</defs>
<g id="surface1">
<rect x="0" y="0" width="324" height="234" style="fill:rgb(92.156863%,38.431373%,15.294118%);fill-opacity:1;stroke:none;"/>
<path style="fill:none;stroke-width:1.021703;stroke-linecap:butt;stroke-linejoin:miter;stroke:rgb(100%,100%,100%);stroke-opacity:1;stroke-miterlimit:4;" d="M -0.94401 -1.082899 L 181.217448 -1.082899 L 181.217448 130.605469 L -0.94401 130.605469 Z M -0.94401 -1.082899 " transform="matrix(1.8,0,0,1.8,0,0)"/>
<g clip-path="url(#clip1)" clip-rule="nonzero">
<g clip-path="url(#clip2)" clip-rule="nonzero">
<path style=" stroke:none;fill-rule:nonzero;fill:rgb(100%,100%,100%);fill-opacity:1;" d="M 136.929688 167.171875 C 136.59375 178.921875 126.578125 188.183594 114.574219 187.84375 C 102.5625 187.496094 93.109375 177.699219 93.464844 165.953125 C 93.804688 154.199219 103.816406 144.9375 115.824219 145.277344 C 127.832031 145.625 137.285156 155.421875 136.929688 167.171875 M 136.929688 167.171875 "/>
</g>
</g>
<g clip-path="url(#clip3)" clip-rule="nonzero">
<g clip-path="url(#clip4)" clip-rule="nonzero">
<path style=" stroke:none;fill-rule:nonzero;fill:rgb(100%,100%,100%);fill-opacity:1;" d="M 156.066406 187.886719 L 184.722656 187.886719 C 183.15625 126.582031 138.140625 97.636719 93.417969 93.285156 L 93.417969 122.339844 C 129.421875 125.171875 155.664062 147.683594 156.066406 187.886719 M 156.066406 187.886719 "/>
</g>
</g>
<g clip-path="url(#clip5)" clip-rule="nonzero">
<g clip-path="url(#clip6)" clip-rule="nonzero">
<path style=" stroke:none;fill-rule:nonzero;fill:rgb(100%,100%,100%);fill-opacity:1;" d="M 207.125 187.929688 L 230.917969 187.863281 C 234.902344 106.683594 161.34375 47.890625 93.4375 45.210938 L 93.4375 71.757812 C 155.722656 78.339844 207.386719 128.664062 207.140625 187.90625 M 207.117188 187.90625 "/>
</g>
</g>
</g>
</svg>
