<?xml version="1.0" encoding="UTF-8" standalone="no"?><svg xmlns="http://www.w3.org/2000/svg" xmlns:xlink="http://www.w3.org/1999/xlink" width="324" height="234" viewBox="0 0 85.73 61.91"><defs><linearGradient xlink:href="#a" id="b" x1="0" x2="324.15793" y1="117.14214" y2="117.14214" gradientTransform="translate(0 -.00305663) scale(.2646)" gradientUnits="userSpaceOnUse"/><linearGradient id="a" x1="1" x2="47" gradientTransform="rotate(-90 -14.467541 66.408246)" gradientUnits="userSpaceOnUse"><stop stop-color="#a80000"/><stop offset="1" stop-color="#b00"/></linearGradient></defs><path fill="url(#b)" fill-rule="evenodd" d="M0-.00305663V61.988278h85.771787V-.00305663Z" paint-order="markers fill stroke"/><path d="M33.83 17.2 27.2 43.14h5.38l3.12-11.6h14.69L36.63 42.4l3.58 3.65 1.84-.84c3.47-1.59 4.93-.65 7.56 0 2.56.62 4.97 1.3 9.97-1.24l-1-4.5c-5.44 3.44-7.17.37-11.05.25l11.12-8.32 1.2-4.45h-23.3l1.5-5.32h15.28l1.06-4.44H33.82" opacity=".1"/><path fill="#fff" d="m32.49 15.87-6.62 25.94h5.38l3.12-11.6h14.69L35.3 41.06l3.57 3.65 1.83-.84c3.47-1.59 4.93-.66 7.56 0 2.57.62 4.98 1.3 9.98-1.25l-1-4.49c-5.44 3.44-7.17.37-11.06.25l11.12-8.32 1.21-4.44h-23.3l1.51-5.32h15.27l1.06-4.44H32.49" class="cls-9"/></svg>