<?xml version="1.0" encoding="UTF-8" standalone="no"?>
<svg
   xmlns:dc="http://purl.org/dc/elements/1.1/"
   xmlns:cc="http://creativecommons.org/ns#"
   xmlns:rdf="http://www.w3.org/1999/02/22-rdf-syntax-ns#"
   xmlns:svg="http://www.w3.org/2000/svg"
   xmlns="http://www.w3.org/2000/svg"
   xmlns:xlink="http://www.w3.org/1999/xlink"
   width="324px"
   height="234px"
   viewBox="0 0 324 234"
   version="1.1"
   id="SVGRoot">
  <defs
     id="defs10">
    <linearGradient
       id="linearGradient1032">
      <stop
         style="stop-color:#54fbbe;stop-opacity:1"
         offset="0"
         id="stop1028" />
      <stop
         style="stop-color:#0ecfe0;stop-opacity:1"
         offset="1"
         id="stop1030" />
    </linearGradient>
    <linearGradient
       id="linearGradient1261">
      <stop
         style="stop-color:#1d1133;stop-opacity:1;"
         offset="0"
         id="stop1257" />
      <stop
         style="stop-color:#24153f;stop-opacity:1"
         offset="1"
         id="stop1259" />
    </linearGradient>
    <linearGradient
       id="linearGradient1208">
      <stop
         style="stop-color:#4e2e89;stop-opacity:1"
         offset="0"
         id="stop1204" />
      <stop
         style="stop-color:#330032;stop-opacity:0;"
         offset="1"
         id="stop1206" />
    </linearGradient>
    <linearGradient
       id="linearGradient1166">
      <stop
         style="stop-color:#ad17e4;stop-opacity:1"
         offset="0"
         id="stop1162" />
      <stop
         style="stop-color:#9450fb;stop-opacity:1"
         offset="1"
         id="stop1164" />
    </linearGradient>
    <linearGradient
       id="a"
       x1="70.786003"
       y1="12.393"
       x2="6.447"
       y2="74.468002"
       gradientUnits="userSpaceOnUse"
       gradientTransform="translate(3.7,-0.0040855)">
      <stop
         offset=".048"
         stop-color="#fff44f"
         id="stop834" />
      <stop
         offset=".111"
         stop-color="#ffe847"
         id="stop836" />
      <stop
         offset=".225"
         stop-color="#ffc830"
         id="stop838" />
      <stop
         offset=".368"
         stop-color="#ff980e"
         id="stop840" />
      <stop
         offset=".401"
         stop-color="#ff8b16"
         id="stop842" />
      <stop
         offset=".462"
         stop-color="#ff672a"
         id="stop844" />
      <stop
         offset=".534"
         stop-color="#ff3647"
         id="stop846" />
      <stop
         offset=".705"
         stop-color="#e31587"
         id="stop848" />
    </linearGradient>
    <radialGradient
       id="b"
       cx="-7907.187"
       cy="-8515.1211"
       r="80.796997"
       gradientTransform="translate(7978.7,8523.9959)"
       gradientUnits="userSpaceOnUse">
      <stop
         offset=".129"
         stop-color="#ffbd4f"
         id="stop851" />
      <stop
         offset=".186"
         stop-color="#ffac31"
         id="stop853" />
      <stop
         offset=".247"
         stop-color="#ff9d17"
         id="stop855" />
      <stop
         offset=".283"
         stop-color="#ff980e"
         id="stop857" />
      <stop
         offset=".403"
         stop-color="#ff563b"
         id="stop859" />
      <stop
         offset=".467"
         stop-color="#ff3750"
         id="stop861" />
      <stop
         offset=".71"
         stop-color="#f5156c"
         id="stop863" />
      <stop
         offset=".782"
         stop-color="#eb0878"
         id="stop865" />
      <stop
         offset=".86"
         stop-color="#e50080"
         id="stop867" />
    </radialGradient>
    <radialGradient
       id="c"
       cx="-7936.7109"
       cy="-8482.0889"
       r="80.796997"
       gradientTransform="translate(7978.7,8523.9959)"
       gradientUnits="userSpaceOnUse">
      <stop
         offset=".3"
         stop-color="#960e18"
         id="stop870" />
      <stop
         offset=".351"
         stop-color="#b11927"
         stop-opacity=".74"
         id="stop872" />
      <stop
         offset=".435"
         stop-color="#db293d"
         stop-opacity=".343"
         id="stop874" />
      <stop
         offset=".497"
         stop-color="#f5334b"
         stop-opacity=".094"
         id="stop876" />
      <stop
         offset=".53"
         stop-color="#ff3750"
         stop-opacity="0"
         id="stop878" />
    </radialGradient>
    <radialGradient
       id="d"
       cx="-7926.9702"
       cy="-8533.457"
       r="58.534"
       gradientTransform="translate(7978.7,8523.9959)"
       gradientUnits="userSpaceOnUse">
      <stop
         offset=".132"
         stop-color="#fff44f"
         id="stop881" />
      <stop
         offset=".252"
         stop-color="#ffdc3e"
         id="stop883" />
      <stop
         offset=".506"
         stop-color="#ff9d12"
         id="stop885" />
      <stop
         offset=".526"
         stop-color="#ff980e"
         id="stop887" />
    </radialGradient>
    <radialGradient
       id="e"
       cx="-7945.6479"
       cy="-8460.9844"
       r="38.471001"
       gradientTransform="translate(7978.7,8523.9959)"
       gradientUnits="userSpaceOnUse">
      <stop
         offset=".353"
         stop-color="#3a8ee6"
         id="stop890" />
      <stop
         offset=".472"
         stop-color="#5c79f0"
         id="stop892" />
      <stop
         offset=".669"
         stop-color="#9059ff"
         id="stop894" />
      <stop
         offset="1"
         stop-color="#c139e6"
         id="stop896" />
    </radialGradient>
    <radialGradient
       id="f"
       cx="-7935.6201"
       cy="-8491.5459"
       r="20.396999"
       gradientTransform="matrix(0.972,-0.235,0.275,1.138,10095.002,7833.7939)"
       gradientUnits="userSpaceOnUse">
      <stop
         offset=".206"
         stop-color="#9059ff"
         stop-opacity="0"
         id="stop899" />
      <stop
         offset=".278"
         stop-color="#8c4ff3"
         stop-opacity=".064"
         id="stop901" />
      <stop
         offset=".747"
         stop-color="#7716a8"
         stop-opacity=".45"
         id="stop903" />
      <stop
         offset=".975"
         stop-color="#6e008b"
         stop-opacity=".6"
         id="stop905" />
    </radialGradient>
    <radialGradient
       id="g"
       cx="-7937.731"
       cy="-8518.4268"
       r="27.676001"
       gradientTransform="translate(7978.7,8523.9959)"
       gradientUnits="userSpaceOnUse">
      <stop
         offset="0"
         stop-color="#ffe226"
         id="stop908" />
      <stop
         offset=".121"
         stop-color="#ffdb27"
         id="stop910" />
      <stop
         offset=".295"
         stop-color="#ffc82a"
         id="stop912" />
      <stop
         offset=".502"
         stop-color="#ffa930"
         id="stop914" />
      <stop
         offset=".732"
         stop-color="#ff7e37"
         id="stop916" />
      <stop
         offset=".792"
         stop-color="#ff7139"
         id="stop918" />
    </radialGradient>
    <radialGradient
       id="h"
       cx="-7915.9771"
       cy="-8535.9814"
       r="118.081"
       gradientTransform="translate(7978.7,8523.9959)"
       gradientUnits="userSpaceOnUse">
      <stop
         offset=".113"
         stop-color="#fff44f"
         id="stop921" />
      <stop
         offset=".456"
         stop-color="#ff980e"
         id="stop923" />
      <stop
         offset=".622"
         stop-color="#ff5634"
         id="stop925" />
      <stop
         offset=".716"
         stop-color="#ff3647"
         id="stop927" />
      <stop
         offset=".904"
         stop-color="#e31587"
         id="stop929" />
    </radialGradient>
    <radialGradient
       id="i"
       cx="-7927.165"
       cy="-8522.8594"
       r="86.499001"
       gradientTransform="matrix(0.105,0.995,-0.653,0.069,-4680.304,8470.1869)"
       gradientUnits="userSpaceOnUse">
      <stop
         offset="0"
         stop-color="#fff44f"
         id="stop932" />
      <stop
         offset=".06"
         stop-color="#ffe847"
         id="stop934" />
      <stop
         offset=".168"
         stop-color="#ffc830"
         id="stop936" />
      <stop
         offset=".304"
         stop-color="#ff980e"
         id="stop938" />
      <stop
         offset=".356"
         stop-color="#ff8b16"
         id="stop940" />
      <stop
         offset=".455"
         stop-color="#ff672a"
         id="stop942" />
      <stop
         offset=".57"
         stop-color="#ff3647"
         id="stop944" />
      <stop
         offset=".737"
         stop-color="#e31587"
         id="stop946" />
    </radialGradient>
    <radialGradient
       id="j"
       cx="-7938.3828"
       cy="-8508.1758"
       r="73.720001"
       gradientTransform="translate(7978.7,8523.9959)"
       gradientUnits="userSpaceOnUse">
      <stop
         offset=".137"
         stop-color="#fff44f"
         id="stop949" />
      <stop
         offset=".48"
         stop-color="#ff980e"
         id="stop951" />
      <stop
         offset=".592"
         stop-color="#ff5634"
         id="stop953" />
      <stop
         offset=".655"
         stop-color="#ff3647"
         id="stop955" />
      <stop
         offset=".904"
         stop-color="#e31587"
         id="stop957" />
    </radialGradient>
    <radialGradient
       id="k"
       cx="-7918.9229"
       cy="-8503.8613"
       r="80.685997"
       gradientTransform="translate(7978.7,8523.9959)"
       gradientUnits="userSpaceOnUse">
      <stop
         offset=".094"
         stop-color="#fff44f"
         id="stop960" />
      <stop
         offset=".231"
         stop-color="#ffe141"
         id="stop962" />
      <stop
         offset=".509"
         stop-color="#ffaf1e"
         id="stop964" />
      <stop
         offset=".626"
         stop-color="#ff980e"
         id="stop966" />
    </radialGradient>
    <linearGradient
       id="l"
       x1="70.013"
       y1="12.061"
       x2="15.267"
       y2="66.806"
       gradientUnits="userSpaceOnUse"
       gradientTransform="translate(3.7,-0.0040855)">
      <stop
         offset=".167"
         stop-color="#fff44f"
         stop-opacity=".8"
         id="stop969" />
      <stop
         offset=".266"
         stop-color="#fff44f"
         stop-opacity=".634"
         id="stop971" />
      <stop
         offset=".489"
         stop-color="#fff44f"
         stop-opacity=".217"
         id="stop973" />
      <stop
         offset=".6"
         stop-color="#fff44f"
         stop-opacity="0"
         id="stop975" />
    </linearGradient>
    <linearGradient
       xlink:href="#linearGradient1166"
       id="linearGradient1168"
       x1="-12.471017"
       y1="62.409931"
       x2="89.487404"
       y2="0.268673"
       gradientUnits="userSpaceOnUse" />
    <linearGradient
       xlink:href="#linearGradient1208"
       id="linearGradient1210"
       x1="2e-06"
       y1="133.72223"
       x2="172.22223"
       y2="-10.722211"
       gradientUnits="userSpaceOnUse" />
    <linearGradient
       xlink:href="#linearGradient1261"
       id="linearGradient1263"
       x1="0"
       y1="117"
       x2="324"
       y2="117"
       gradientUnits="userSpaceOnUse" />
    <linearGradient
       xlink:href="#l"
       id="linearGradient1279"
       gradientUnits="userSpaceOnUse"
       gradientTransform="translate(3.7,-0.0040855)"
       x1="70.013"
       y1="12.061"
       x2="15.267"
       y2="66.806" />
    <linearGradient
       xlink:href="#linearGradient1032"
       id="linearGradient1034"
       x1="324"
       y1="137.66699"
       x2="476.43945"
       y2="137.66699"
       gradientUnits="userSpaceOnUse"
       gradientTransform="matrix(0.54613695,0,0,0.4959166,-16.229024,107.36686)" />
  </defs>
  <metadata
     id="metadata13">
    <rdf:RDF>
      <cc:Work
         rdf:about="">
        <dc:format>image/svg+xml</dc:format>
        <dc:type
           rdf:resource="http://purl.org/dc/dcmitype/StillImage" />
        <dc:title></dc:title>
      </cc:Work>
    </rdf:RDF>
  </metadata>
  <g
     id="layer1">
    <g
       transform="matrix(1.62,0,0,1.62,-3.24e-6,17.369997)"
       id="g55">
      <path
         style="opacity:1;fill:url(#linearGradient1263);fill-opacity:1;fill-rule:evenodd;stroke:none;stroke-width:4.97206211;stroke-miterlimit:4;stroke-dasharray:none;stroke-opacity:0.078125;paint-order:markers fill stroke"
         d="M 0 0 L 0 201.77539 L 0 234 L 324 234 L 324 41.333984 L 324 0 L 0 0 z "
         transform="matrix(0.61728395,0,0,0.61728395,2e-6,-10.72222)"
         id="rect1049" />
      <path
         style="opacity:1;fill:url(#linearGradient1210);fill-opacity:1;fill-rule:evenodd;stroke:none;stroke-width:3.06917405;stroke-miterlimit:4;stroke-dasharray:none;stroke-opacity:0.078125;paint-order:markers fill stroke"
         d="M 172.22223,-10.722211 H 2e-6 V 113.8305 133.72223 H 27.77778 Z"
         id="path1187" />
      <path
         style="opacity:1;fill:url(#linearGradient1168);fill-opacity:1;fill-rule:evenodd;stroke:none;stroke-width:3.06917405;stroke-miterlimit:4;stroke-dasharray:none;stroke-opacity:0.078125;paint-order:markers fill stroke"
         d="M 147.24755,-10.722219 H 2e-6 v 84.592014 c 1.557421,-1.23256 3.107322,-2.48919 4.667004,-3.71456 7.462147,-5.86266 14.953045,-11.63434 22.501929,-17.22125 3.774442,-2.79346 7.563349,-5.54081 11.370323,-8.23086 3.806973,-2.69005 7.632092,-5.32237 11.478829,-7.88604 3.846737,-2.56367 7.715305,-5.0582 11.609037,-7.47251 3.89373,-2.41431 7.811785,-4.74828 11.759742,-6.99026 3.947957,-2.24198 7.925117,-4.39253 11.927321,-6.46219 4.002213,-2.06966 8.030023,-4.05842 12.079233,-5.97873 4.04922,-1.92032 8.12046,-3.77127 12.20945,-5.56521 4.08898,-1.79394 8.19521,-3.53105005 12.31674,-5.22159105 8.24306,-3.38108635 16.54482,-6.57829035 24.87461,-9.68364195 0.15075,-0.0562 0.30256,-0.109033 0.45333,-0.165171 z"
         id="path1081" />
    </g>
    <g
       id="g1047"
       transform="matrix(1.619434,0,0,1.619434,124.80357,76.884424)">
      <path
         id="path1237"
         d="m 87.61533,32.022958 c 21.91883,12.833826 33.30709,53.082078 33.99156,64.965748 -1.01769,-0.06982 -89.150416,-10e-6 -89.150416,-10e-6 0.510246,-1.521858 0.897355,-3.077431 1.490434,-4.574241 3.791609,-9.123272 11.484856,-18.974545 17.50777,-22.088427 -4.29591,8.319741 -7.277205,17.254359 -8.83753,26.486815 l -0.01802,0.145844 C 52.465415,72.360498 69.197609,62.442317 82.86226,40.84547 c 0.691227,-1.092006 1.381213,-2.186105 2.054426,-3.341144 0.385011,-0.659706 0.694935,-1.254267 0.96287,-1.801396 0.566731,-1.097503 1.003815,-2.256068 1.30173,-3.454796 -8.42e-4,-0.114524 0.08358,-0.211443 0.197234,-0.225176 0.05385,-0.01487 0.11117,-0.01487 0.165021,0 0.01156,0 0.02957,0.01913 0.04295,0.02362 0.01322,0.0046 0.04196,0.02526 0.06211,0.03424 z"
         style="fill:#271744;fill-opacity:1;stroke-width:2.25154853" />
    </g>
    <path
       id="path1054"
       style="fill:#09778c;fill-opacity:1;stroke-width:2.61838;stroke-linecap:round;stroke-linejoin:bevel"
       d="m 180.27469,141.434 c -10.76901,0 -19.438,7.8728 -19.438,17.65153 0,9.77875 8.66899,17.65057 19.438,17.65057 h 44.37576 c 8.75623,0 16.03595,-5.23933 18.48438,-12.4415 -0.10665,0.1277 -0.16983,0.28497 -0.2944,0.39808 -0.35001,0.31784 -0.76726,0.5751 -1.23094,0.75259 -0.46367,0.1775 -0.97398,0.27508 -1.5104,0.27508 h -15.56597 c 1.34612,0 2.6598,-0.12303 3.92748,-0.35742 1.26769,-0.23434 2.48978,-0.5803 3.65337,-1.02571 1.16359,-0.44541 2.26861,-0.9902 3.30241,-1.62336 1.03382,-0.63317 1.99631,-1.35458 2.87469,-2.1522 0.87839,-0.79761 1.67286,-1.67161 2.37014,-2.61035 0.6973,-0.93874 1.29724,-1.94214 1.78775,-2.99874 0.22861,-0.49239 0.34728,-1.03158 0.52694,-1.54587 -2.60296,-6.95896 -9.75973,-11.9727 -18.32545,-11.9727 z" />
    <path
       style="fill:#301d55;fill-opacity:1;stroke-width:2.67509484"
       d="m 268.2753,156.9735 c -26.04208,15.24804 -39.57385,63.06751 -40.38707,77.18666 1.07133,-0.0736 75.09847,-0.0138 93.85005,0 v -0.0789 c -11.7247,-29.19137 -31.59025,-40.97967 -47.8168,-66.62554 -0.82126,-1.29743 -1.64106,-2.59734 -2.44091,-3.96965 -0.45743,-0.78382 -0.82567,-1.49021 -1.144,-2.14026 -0.67335,-1.30396 -1.19262,-2.68047 -1.5466,-4.10469 7.9e-4,-0.13606 -0.0994,-0.25123 -0.23441,-0.26754 -0.064,-0.0176 -0.13225,-0.0176 -0.19619,0 -0.0134,0 -0.035,0.0227 -0.051,0.028 -0.016,0.006 -0.0497,0.0302 -0.0738,0.0407 z"
       id="path1223" />
    <g
       id="g1277"
       transform="translate(1.6755429e-6,1.2156599e-6)">
      <path
         style="fill:url(#a)"
         id="path980"
         d="m 79.616,26.826915 c -1.684,-4.052 -5.1,-8.427 -7.775,-9.81 a 40.266,40.266 0 0 1 3.925,11.764 l 0.007,0.065 c -4.382,-10.925 -11.813,-15.33 -17.882,-24.9220005 -0.307,-0.485 -0.614,-0.971 -0.913,-1.484 -0.171,-0.293 -0.308,-0.557 -0.427,-0.8 a 7.053,7.053 0 0 1 -0.578,-1.535 0.1,0.1 0 0 0 -0.088,-0.1 0.138,0.138 0 0 0 -0.073,0 c -0.005,0 -0.013,0.009 -0.019,0.011 -0.006,0.002 -0.019,0.011 -0.028,0.015 l 0.015,-0.026 c -9.735,5.7 -13.038,16.2520005 -13.342,21.5300005 a 19.387,19.387 0 0 0 -10.666,4.111 11.587,11.587 0 0 0 -1,-0.758 17.968,17.968 0 0 1 -0.109,-9.473 28.705,28.705 0 0 0 -9.329,7.21 h -0.018 c -1.536,-1.947 -1.428,-8.367 -1.34,-9.708 a 6.928,6.928 0 0 0 -1.294,0.687 28.225,28.225 0 0 0 -3.788,3.245 33.845,33.845 0 0 0 -3.623,4.347 v 0.006 -0.007 a 32.733,32.733 0 0 0 -5.2,11.743 l -0.052,0.256 c -0.073,0.341 -0.336,2.049 -0.381,2.42 0,0.029 -0.006,0.056 -0.009,0.085 A 36.937,36.937 0 0 0 5,41.041915 v 0.2 a 38.759,38.759 0 0 0 76.954,6.554 c 0.065,-0.5 0.118,-0.995 0.176,-1.5 a 39.857,39.857 0 0 0 -2.514,-19.469 z m -44.67,30.338 c 0.181,0.087 0.351,0.181 0.537,0.264 l 0.027,0.017 q -0.282,-0.135 -0.564,-0.281 z m 8.878,-23.376 z m 31.952,-4.934 v -0.037 l 0.007,0.041 z"
         transform="matrix(2.0506125,0,0,2.0506125,72.369199,35.009357)" />
      <path
         style="fill:url(#b)"
         id="path982"
         d="m 79.616,26.826915 c -1.684,-4.052 -5.1,-8.427 -7.775,-9.81 a 40.266,40.266 0 0 1 3.925,11.764 v 0.037 l 0.007,0.041 a 35.1,35.1 0 0 1 -1.206,26.158 c -4.442,9.531 -15.194,19.3 -32.024,18.825 -18.185,-0.515 -34.2,-14.009 -37.194,-31.683 -0.545,-2.787 0,-4.2 0.274,-6.465 A 28.876,28.876 0 0 0 5,41.041915 v 0.2 a 38.759,38.759 0 0 0 76.954,6.554 c 0.065,-0.5 0.118,-0.995 0.176,-1.5 a 39.857,39.857 0 0 0 -2.514,-19.469 z"
         transform="matrix(2.0506125,0,0,2.0506125,72.369199,35.009357)" />
      <path
         style="fill:url(#c)"
         id="path984"
         d="m 79.616,26.826915 c -1.684,-4.052 -5.1,-8.427 -7.775,-9.81 a 40.266,40.266 0 0 1 3.925,11.764 v 0.037 l 0.007,0.041 a 35.1,35.1 0 0 1 -1.206,26.158 c -4.442,9.531 -15.194,19.3 -32.024,18.825 -18.185,-0.515 -34.2,-14.009 -37.194,-31.683 -0.545,-2.787 0,-4.2 0.274,-6.465 A 28.876,28.876 0 0 0 5,41.041915 v 0.2 a 38.759,38.759 0 0 0 76.954,6.554 c 0.065,-0.5 0.118,-0.995 0.176,-1.5 a 39.857,39.857 0 0 0 -2.514,-19.469 z"
         transform="matrix(2.0506125,0,0,2.0506125,72.369199,35.009357)" />
      <path
         style="fill:url(#d)"
         id="path986"
         d="m 60.782,31.382915 c 0.084,0.059 0.162,0.118 0.241,0.177 a 21.1,21.1 0 0 0 -3.6,-4.695 C 45.377,14.816915 54.266,0.7419145 55.765,0.0269145 l 0.015,-0.022 c -9.735,5.7 -13.038,16.2520005 -13.342,21.5300005 0.452,-0.031 0.9,-0.069 1.362,-0.069 a 19.56,19.56 0 0 1 16.982,9.917 z"
         transform="matrix(2.0506125,0,0,2.0506125,72.369199,35.009357)" />
      <path
         style="fill:url(#e)"
         id="path988"
         d="m 43.825,33.788915 c -0.064,0.964 -3.47,4.289 -4.661,4.289 -11.021,0 -12.81,6.667 -12.81,6.667 0.488,5.614 4.4,10.238 9.129,12.684 0.216,0.112 0.435,0.213 0.654,0.312 q 0.569,0.252 1.138,0.466 a 17.235,17.235 0 0 0 5.043,0.973 c 19.317,0.906 23.059,-23.1 9.119,-30.066 a 13.38,13.38 0 0 1 9.345,2.269 19.56,19.56 0 0 0 -16.982,-9.917 c -0.46,0 -0.91,0.038 -1.362,0.069 a 19.387,19.387 0 0 0 -10.666,4.111 c 0.591,0.5 1.258,1.168 2.663,2.553 2.63,2.591 9.375,5.275 9.39,5.59 z"
         transform="matrix(2.0506125,0,0,2.0506125,72.369199,35.009357)" />
      <path
         style="fill:url(#f)"
         id="path990"
         d="m 43.825,33.788915 c -0.064,0.964 -3.47,4.289 -4.661,4.289 -11.021,0 -12.81,6.667 -12.81,6.667 0.488,5.614 4.4,10.238 9.129,12.684 0.216,0.112 0.435,0.213 0.654,0.312 q 0.569,0.252 1.138,0.466 a 17.235,17.235 0 0 0 5.043,0.973 c 19.317,0.906 23.059,-23.1 9.119,-30.066 a 13.38,13.38 0 0 1 9.345,2.269 19.56,19.56 0 0 0 -16.982,-9.917 c -0.46,0 -0.91,0.038 -1.362,0.069 a 19.387,19.387 0 0 0 -10.666,4.111 c 0.591,0.5 1.258,1.168 2.663,2.553 2.63,2.591 9.375,5.275 9.39,5.59 z"
         transform="matrix(2.0506125,0,0,2.0506125,72.369199,35.009357)" />
      <path
         style="fill:url(#g)"
         id="path992"
         d="m 29.965,24.356915 c 0.314,0.2 0.573,0.374 0.8,0.531 a 17.968,17.968 0 0 1 -0.109,-9.473 28.705,28.705 0 0 0 -9.329,7.21 c 0.189,-0.005 5.811,-0.106 8.638,1.732 z"
         transform="matrix(2.0506125,0,0,2.0506125,72.369199,35.009357)" />
      <path
         style="fill:url(#h)"
         id="path994"
         d="m 5.354,42.158915 c 2.991,17.674 19.009,31.168 37.194,31.683 16.83,0.476 27.582,-9.294 32.024,-18.825 a 35.1,35.1 0 0 0 1.206,-26.158 v -0.037 c 0,-0.029 -0.006,-0.046 0,-0.037 l 0.007,0.065 c 1.375,8.977 -3.191,17.674 -10.329,23.555 l -0.022,0.05 c -13.908,11.327 -27.218,6.834 -29.912,5 q -0.282,-0.135 -0.564,-0.281 c -8.109,-3.876 -11.459,-11.264 -10.741,-17.6 a 9.953,9.953 0 0 1 -9.181,-5.775 14.618,14.618 0 0 1 14.249,-0.572 19.3,19.3 0 0 0 14.552,0.572 c -0.015,-0.315 -6.76,-3 -9.39,-5.59 -1.405,-1.385 -2.072,-2.052 -2.663,-2.553 a 11.587,11.587 0 0 0 -1,-0.758 c -0.23,-0.157 -0.489,-0.327 -0.8,-0.531 -2.827,-1.838 -8.449,-1.737 -8.635,-1.732 h -0.018 c -1.536,-1.947 -1.428,-8.367 -1.34,-9.708 a 6.928,6.928 0 0 0 -1.294,0.687 28.225,28.225 0 0 0 -3.788,3.245 33.845,33.845 0 0 0 -3.638,4.337 v 0.006 -0.007 a 32.733,32.733 0 0 0 -5.2,11.743 c -0.019,0.079 -1.396,6.099 -0.717,9.221 z"
         transform="matrix(2.0506125,0,0,2.0506125,72.369199,35.009357)" />
      <path
         style="fill:url(#i)"
         id="path996"
         d="m 57.425,26.864915 a 21.1,21.1 0 0 1 3.6,4.7 c 0.213,0.161 0.412,0.321 0.581,0.476 8.787,8.1 4.183,19.55 3.84,20.365 7.138,-5.881 11.7,-14.578 10.329,-23.555 -4.384,-10.93 -11.815,-15.335 -17.884,-24.9270005 -0.307,-0.485 -0.614,-0.971 -0.913,-1.484 -0.171,-0.293 -0.308,-0.557 -0.427,-0.8 a 7.053,7.053 0 0 1 -0.578,-1.535 0.1,0.1 0 0 0 -0.088,-0.1 0.138,0.138 0 0 0 -0.073,0 c -0.005,0 -0.013,0.009 -0.019,0.011 -0.006,0.002 -0.019,0.011 -0.028,0.015 -1.499,0.711 -10.388,14.7860005 1.66,26.8340005 z"
         transform="matrix(2.0506125,0,0,2.0506125,72.369199,35.009357)" />
      <path
         style="fill:url(#j)"
         id="path998"
         d="m 61.6,32.035915 c -0.169,-0.155 -0.368,-0.315 -0.581,-0.476 -0.079,-0.059 -0.157,-0.118 -0.241,-0.177 a 13.38,13.38 0 0 0 -9.345,-2.269 c 13.94,6.97 10.2,30.972 -9.119,30.066 a 17.235,17.235 0 0 1 -5.043,-0.973 q -0.569,-0.213 -1.138,-0.466 c -0.219,-0.1 -0.438,-0.2 -0.654,-0.312 l 0.027,0.017 c 2.694,1.839 16,6.332 29.912,-5 l 0.022,-0.05 c 0.347,-0.81 4.951,-12.263 -3.84,-20.36 z"
         transform="matrix(2.0506125,0,0,2.0506125,72.369199,35.009357)" />
      <path
         style="fill:url(#k)"
         id="path1000"
         d="m 26.354,44.744915 c 0,0 1.789,-6.667 12.81,-6.667 1.191,0 4.6,-3.325 4.661,-4.289 a 19.3,19.3 0 0 1 -14.552,-0.572 14.618,14.618 0 0 0 -14.249,0.572 9.953,9.953 0 0 0 9.181,5.775 c -0.718,6.337 2.632,13.725 10.741,17.6 0.181,0.087 0.351,0.181 0.537,0.264 -4.733,-2.445 -8.641,-7.069 -9.129,-12.683 z"
         transform="matrix(2.0506125,0,0,2.0506125,72.369199,35.009357)" />
      <path
         style="fill:url(#linearGradient1279)"
         id="path1002"
         d="m 79.616,26.826915 c -1.684,-4.052 -5.1,-8.427 -7.775,-9.81 a 40.266,40.266 0 0 1 3.925,11.764 l 0.007,0.065 c -4.382,-10.925 -11.813,-15.33 -17.882,-24.9220005 -0.307,-0.485 -0.614,-0.971 -0.913,-1.484 -0.171,-0.293 -0.308,-0.557 -0.427,-0.8 a 7.053,7.053 0 0 1 -0.578,-1.535 0.1,0.1 0 0 0 -0.088,-0.1 0.138,0.138 0 0 0 -0.073,0 c -0.005,0 -0.013,0.009 -0.019,0.011 -0.006,0.002 -0.019,0.011 -0.028,0.015 l 0.015,-0.026 c -9.735,5.7 -13.038,16.2520005 -13.342,21.5300005 0.452,-0.031 0.9,-0.069 1.362,-0.069 a 19.56,19.56 0 0 1 16.982,9.917 13.38,13.38 0 0 0 -9.345,-2.269 c 13.94,6.97 10.2,30.972 -9.119,30.066 a 17.235,17.235 0 0 1 -5.043,-0.973 q -0.569,-0.213 -1.138,-0.466 c -0.219,-0.1 -0.438,-0.2 -0.654,-0.312 l 0.027,0.017 q -0.282,-0.135 -0.564,-0.281 c 0.181,0.087 0.351,0.181 0.537,0.264 -4.733,-2.446 -8.641,-7.07 -9.129,-12.684 0,0 1.789,-6.667 12.81,-6.667 1.191,0 4.6,-3.325 4.661,-4.289 -0.015,-0.315 -6.76,-3 -9.39,-5.59 -1.405,-1.385 -2.072,-2.052 -2.663,-2.553 a 11.587,11.587 0 0 0 -1,-0.758 17.968,17.968 0 0 1 -0.109,-9.473 28.705,28.705 0 0 0 -9.329,7.21 h -0.018 c -1.536,-1.947 -1.428,-8.367 -1.34,-9.708 a 6.928,6.928 0 0 0 -1.294,0.687 28.225,28.225 0 0 0 -3.788,3.245 33.845,33.845 0 0 0 -3.623,4.347 v 0.006 -0.007 a 32.733,32.733 0 0 0 -5.2,11.743 l -0.052,0.256 c -0.073,0.341 -0.4,2.073 -0.447,2.445 0,0.028 0,-0.029 0,0 A 45.094,45.094 0 0 0 5,41.041915 v 0.2 a 38.759,38.759 0 0 0 76.954,6.554 c 0.065,-0.5 0.118,-0.995 0.176,-1.5 a 39.857,39.857 0 0 0 -2.514,-19.469 z m -3.845,1.991 0.007,0.041 z"
         transform="matrix(2.0506125,0,0,2.0506125,72.369199,35.009357)" />
    </g>
    <path
       id="rect980"
       style="fill:url(#linearGradient1034);fill-opacity:1;stroke-width:2.61838;stroke-linecap:round;stroke-linejoin:bevel"
       d="m 242.9759,153.4067 c -0.17966,0.51429 -0.29833,1.05348 -0.52694,1.54587 -0.49051,1.0566 -2.17723,3.03464 -2.34988,3.03464 h -15.56593 -44.37471 c -1.34613,0 -2.6598,0.12402 -3.92748,0.35836 -1.2677,0.23436 -2.48979,0.58033 -3.65336,1.02573 -1.16359,0.44542 -2.2686,0.98922 -3.30241,1.6224 -1.03384,0.63315 -1.99632,1.35555 -2.8747,2.15316 -0.87839,0.7976 -1.67287,1.67063 -2.37015,2.60937 -0.69728,0.93877 -1.29722,1.94217 -1.78775,2.99874 -0.49053,1.05661 -0.8715,2.16727 -1.12961,3.31838 -0.25808,1.15113 -0.39359,2.34207 -0.39359,3.56441 v 14.13458 c 0,1.9484 1.72739,3.51696 3.87309,3.51696 h 15.56596 44.37471 c 1.34612,0 2.6598,-0.12208 3.92749,-0.35645 1.26768,-0.23435 2.48977,-0.58031 3.65335,-1.02574 1.16358,-0.44542 2.26861,-0.99114 3.30244,-1.62431 1.03382,-0.63315 1.99629,-1.35362 2.87466,-2.15122 0.8784,-0.79763 1.67288,-1.67161 2.37016,-2.61035 0.69728,-0.93877 1.29723,-1.94315 1.78774,-2.99971 0.49052,-1.05661 0.87152,-2.16534 1.12961,-3.31645 0.2581,-1.15111 0.3936,-2.34497 0.3936,-3.56731 v -14.13361 c 0,-0.2264 0,-3.4724 0,-3.4724 -0.10586,-1.6145 -0.4476,-3.15816 -0.99627,-4.62499 z" />
    <g
       aria-label="BETA"
       id="text1075"
       style="font-style:normal;font-weight:normal;font-size:25.0289px;line-height:1.25;font-family:sans-serif;letter-spacing:0px;word-spacing:0px;fill:#251c3c;fill-opacity:1;stroke:none;stroke-width:0.625722"
       transform="translate(0,-10.99993)">
      <path
         d="m 173.69727,177.79702 h 5.55641 q 3.57913,0 5.40624,1.00115 1.82711,1.00116 1.82711,3.52908 0,1.52676 -0.72583,2.57798 -0.70081,1.05121 -2.02735,1.27647 v 0.12514 q 0.90104,0.17521 1.62688,0.62573 0.72584,0.45052 1.15133,1.3015 0.42549,0.85098 0.42549,2.2526 0,2.4278 -1.75202,3.80439 -1.75202,1.37659 -4.80555,1.37659 h -6.68271 z m 3.77936,7.08318 h 2.20254 q 1.65191,0 2.27763,-0.52561 0.65075,-0.52561 0.65075,-1.52676 0,-1.02619 -0.75086,-1.47671 -0.75087,-0.45052 -2.37775,-0.45052 h -2.00231 z m 0,3.00347 v 4.65537 h 2.47786 q 1.70197,0 2.37775,-0.65075 0.67578,-0.67578 0.67578,-1.77705 0,-1.00116 -0.70081,-1.60185 -0.67578,-0.62572 -2.47786,-0.62572 z"
         style="font-style:normal;font-variant:normal;font-weight:bold;font-stretch:normal;font-family:sans-serif;-inkscape-font-specification:'sans-serif Bold';fill:#251c3c;fill-opacity:1;stroke-width:0.625722"
         id="path1077" />
      <path
         d="m 200.80043,195.66765 h -10.28687 v -17.87063 h 10.28687 v 3.10358 h -6.50751 v 3.92954 h 6.05699 v 3.10358 h -6.05699 v 4.60532 h 6.50751 z"
         style="font-style:normal;font-variant:normal;font-weight:bold;font-stretch:normal;font-family:sans-serif;-inkscape-font-specification:'sans-serif Bold';fill:#251c3c;fill-opacity:1;stroke-width:0.625722"
         id="path1079" />
      <path
         d="m 211.42638,195.66765 h -3.77937 v -14.71699 h -4.8556 v -3.15364 h 13.49057 v 3.15364 h -4.8556 z"
         style="font-style:normal;font-variant:normal;font-weight:bold;font-stretch:normal;font-family:sans-serif;-inkscape-font-specification:'sans-serif Bold';fill:#251c3c;fill-opacity:1;stroke-width:0.625722"
         id="path1082" />
      <path
         d="m 228.19105,195.66765 -1.30151,-4.25491 h -6.50751 l -1.3015,4.25491 h -4.07971 l 6.30728,-17.94572 h 4.63035 l 6.33231,17.94572 z m -2.20255,-7.43358 -1.3015,-4.1548 q -0.12514,-0.42549 -0.32537,-1.07624 -0.20024,-0.65075 -0.40047,-1.32653 -0.20023,-0.67578 -0.32537,-1.17636 -0.12515,0.50058 -0.35041,1.25144 -0.20023,0.72584 -0.40046,1.40162 -0.1752,0.65075 -0.27532,0.92607 l -1.27647,4.1548 z"
         style="font-style:normal;font-variant:normal;font-weight:bold;font-stretch:normal;font-family:sans-serif;-inkscape-font-specification:'sans-serif Bold';fill:#251c3c;fill-opacity:1;stroke-width:0.625722"
         id="path1084" />
    </g>
  </g>
</svg>
