<?xml version="1.0" encoding="UTF-8" standalone="no"?>
<svg
   xmlns:dc="http://purl.org/dc/elements/1.1/"
   xmlns:cc="http://creativecommons.org/ns#"
   xmlns:rdf="http://www.w3.org/1999/02/22-rdf-syntax-ns#"
   xmlns:svg="http://www.w3.org/2000/svg"
   xmlns="http://www.w3.org/2000/svg"
   xmlns:xlink="http://www.w3.org/1999/xlink"
   width="324px"
   height="234px"
   viewBox="0 0 324 234"
   version="1.1"
   id="SVGRoot">
  <defs
     id="defs10">
    <linearGradient
       id="linearGradient3798">
      <stop
         style="stop-color:#080a18;stop-opacity:1"
         offset="0"
         id="stop3794" />
      <stop
         style="stop-color:#1c2456;stop-opacity:1"
         offset="1"
         id="stop3796" />
    </linearGradient>
    <radialGradient
       gradientUnits="userSpaceOnUse"
       fy="30.945194"
       fx="42.067257"
       gradientTransform="matrix(2.0486621,0,0,2.0475772,338.7473,57.927957)"
       id="a-7"
       r="22.6548"
       cy="30.945194"
       cx="42.067257">
      <stop
         id="stop4593"
         offset="10%"
         stop-opacity=".4"
         stop-color="#0DF" />
      <stop
         id="stop4595"
         offset="90%"
         stop-opacity=".25"
         stop-color="#7542E5" />
    </radialGradient>
    <radialGradient
       gradientUnits="userSpaceOnUse"
       gradientTransform="matrix(2.0486621,0,0,2.0475772,338.7473,57.927957)"
       id="b-5"
       r="19.256578"
       fy="41.40416"
       fx="39.801777"
       cy="41.40416"
       cx="39.89164">
      <stop
         id="stop4598"
         offset="91%"
         stop-opacity="0"
         stop-color="#7542E5" />
      <stop
         id="stop4600"
         offset="100%"
         stop-opacity=".4"
         stop-color="#0DF" />
    </radialGradient>
    <radialGradient
       gradientUnits="userSpaceOnUse"
       id="c-3"
       gradientTransform="matrix(2.2728043,0,0,1.8456468,338.7473,57.927957)"
       r="89.403168"
       fy="9.810463"
       fx="61.200493"
       cy="9.810463"
       cx="61.200493">
      <stop
         id="stop4603"
         offset="0%"
         stop-color="#80EBFF" />
      <stop
         id="stop4605"
         offset="26%"
         stop-color="#0DF" />
      <stop
         id="stop4607"
         offset="53%"
         stop-color="#0090ED" />
      <stop
         id="stop4609"
         offset="86%"
         stop-color="#0060DF" />
    </radialGradient>
    <radialGradient
       gradientUnits="userSpaceOnUse"
       id="d-5"
       gradientTransform="matrix(2.2728043,0,0,1.8456468,338.7473,57.927957)"
       r="89.403168"
       fy="46.828964"
       fx="34.658924"
       cy="46.828964"
       cx="34.469643">
      <stop
         id="stop4612"
         offset="30%"
         stop-opacity=".8"
         stop-color="#321C64" />
      <stop
         id="stop4614"
         offset="37%"
         stop-opacity=".5"
         stop-color="#212F83" />
      <stop
         id="stop4616"
         offset="48%"
         stop-opacity=".14"
         stop-color="#0A47AC" />
      <stop
         id="stop4618"
         offset="53%"
         stop-opacity="0"
         stop-color="#0250BB" />
    </radialGradient>
    <radialGradient
       gradientUnits="userSpaceOnUse"
       fy="-19.160242"
       fx="61.191902"
       id="e-6"
       gradientTransform="matrix(2.2364383,0,0,1.8756583,338.7473,57.927957)"
       r="139.74019"
       cy="-19.160242"
       cx="61.191902">
      <stop
         id="stop4621"
         offset="0%"
         stop-color="#80EBFF" />
      <stop
         id="stop4623"
         offset="47%"
         stop-color="#00B3F4" />
      <stop
         id="stop4625"
         offset="84%"
         stop-color="#0060DF" />
      <stop
         id="stop4627"
         offset="100%"
         stop-color="#592ACB" />
    </radialGradient>
    <linearGradient
       gradientUnits="userSpaceOnUse"
       gradientTransform="matrix(1.4101328,0,0,2.974751,338.7473,57.927957)"
       id="f-2"
       y2="41.136391"
       x2="91.017914"
       y1="-3.6041653"
       x1="84.162506">
      <stop
         id="stop4518"
         offset="0%"
         stop-color="#AAF2FF" />
      <stop
         id="stop4520"
         offset="29%"
         stop-color="#0DF" />
      <stop
         id="stop4522"
         offset="61%"
         stop-color="#0090ED" />
      <stop
         id="stop4524"
         offset="89%"
         stop-color="#0250BB" />
    </linearGradient>
    <linearGradient
       gradientUnits="userSpaceOnUse"
       gradientTransform="matrix(1.5725203,0,0,2.6675611,338.7473,57.927957)"
       id="g-9"
       y2="30.049629"
       x2="65.72345"
       y1="0.0084456606"
       x1="59.666759">
      <stop
         id="stop4527"
         offset="0%"
         stop-color="#AAF2FF" />
      <stop
         id="stop4529"
         offset="29%"
         stop-color="#0DF" />
      <stop
         id="stop4531"
         offset="74%"
         stop-color="#0090ED" />
      <stop
         id="stop4533"
         offset="100%"
         stop-color="#0250BB" />
    </linearGradient>
    <radialGradient
       gradientUnits="userSpaceOnUse"
       id="h-1"
       gradientTransform="matrix(2.0456315,0,0,2.0506107,338.7473,57.927957)"
       r="28.381479"
       fy="5.5633535"
       fx="37.300232"
       cy="5.5633535"
       cx="37.300232">
      <stop
         id="stop4630"
         offset="0%"
         stop-color="#0DF" />
      <stop
         id="stop4632"
         offset="82%"
         stop-color="#0090ED" />
    </radialGradient>
    <radialGradient
       gradientUnits="userSpaceOnUse"
       id="i-2"
       gradientTransform="matrix(2.1654693,0,0,1.9371294,338.7473,57.927957)"
       r="85.359634"
       fy="21.181152"
       fx="52.950813"
       cy="21.181152"
       cx="52.950813">
      <stop
         id="stop4635"
         offset="29%"
         stop-color="#80EBFF" />
      <stop
         id="stop4637"
         offset="100%"
         stop-color="#00B3F4" />
    </radialGradient>
    <radialGradient
       gradientUnits="userSpaceOnUse"
       id="j-7"
       gradientTransform="matrix(2.0686469,0,0,2.027796,338.7473,57.927957)"
       r="71.746956"
       fy="15.884185"
       fx="36.138844"
       cy="15.884185"
       cx="36.138844">
      <stop
         id="stop4640"
         offset="18%"
         stop-color="#AAF2FF" />
      <stop
         id="stop4642"
         offset="43%"
         stop-color="#0DF" />
      <stop
         id="stop4644"
         offset="69%"
         stop-color="#0060DF" />
    </radialGradient>
    <linearGradient
       gradientUnits="userSpaceOnUse"
       gradientTransform="matrix(2.0161014,0,0,2.0806464,338.7473,57.927957)"
       id="k-0"
       y2="66.148209"
       x2="17.021517"
       y1="11.815484"
       x1="68.991951">
      <stop
         id="stop4536"
         offset="24%"
         stop-opacity=".5"
         stop-color="#80EBFF" />
      <stop
         id="stop4538"
         offset="70%"
         stop-opacity="0"
         stop-color="#0DF" />
    </linearGradient>
    <linearGradient
       gradientUnits="userSpaceOnUse"
       gradientTransform="matrix(2.1101868,0,0,1.9878779,338.7473,57.927957)"
       id="l-9"
       y2="60.567245"
       x2="25.120728"
       y1="33.089981"
       x1="32.206059">
      <stop
         id="stop4541"
         offset="0%"
         stop-opacity=".9"
         stop-color="#BFF3FF" />
      <stop
         id="stop4543"
         offset="100%"
         stop-opacity=".5"
         stop-color="#80EBFF" />
    </linearGradient>
    <linearGradient
       gradientUnits="userSpaceOnUse"
       gradientTransform="matrix(1.3163625,0,0,3.1866556,338.7473,57.927957)"
       id="m"
       y2="57.467999"
       x2="93.769226"
       y1="-0.82379484"
       x1="95.009483">
      <stop
         id="stop4546"
         offset="0%"
         stop-color="#BFF3FF" />
      <stop
         id="stop4548"
         offset="100%"
         stop-opacity="0"
         stop-color="#0DF" />
    </linearGradient>
    <linearGradient
       gradientUnits="userSpaceOnUse"
       gradientTransform="matrix(1.6701289,0,0,2.5116588,338.7473,57.927957)"
       id="n"
       y2="23.111471"
       x2="55.329029"
       y1="-0.63725394"
       x1="56.13681">
      <stop
         id="stop4551"
         offset="0%"
         stop-color="#BFF3FF" />
      <stop
         id="stop4553"
         offset="100%"
         stop-opacity=".5"
         stop-color="#AAF2FF" />
    </linearGradient>
    <linearGradient
       gradientUnits="userSpaceOnUse"
       gradientTransform="matrix(1.8255826,0,0,2.2977835,338.7473,57.927957)"
       id="o"
       y2="64.10762"
       x2="56.715939"
       y1="25.308983"
       x1="58.332546">
      <stop
         id="stop4556"
         offset="0%"
         stop-color="#BFF3FF" />
      <stop
         id="stop4558"
         offset="100%"
         stop-opacity="0"
         stop-color="#0DF" />
    </linearGradient>
    <linearGradient
       gradientUnits="userSpaceOnUse"
       gradientTransform="matrix(2.1761732,0,0,1.9276012,338.7473,57.927957)"
       id="p"
       y2="66.491219"
       x2="25.866491"
       y1="33.093102"
       x1="23.729013">
      <stop
         id="stop4561"
         offset="0%"
         stop-opacity=".8"
         stop-color="#BFF3FF" />
      <stop
         id="stop4563"
         offset="100%"
         stop-opacity=".2"
         stop-color="#80EBFF" />
    </linearGradient>
    <linearGradient
       gradientUnits="userSpaceOnUse"
       gradientTransform="matrix(2.0067259,0,0,2.0903672,338.7473,57.927957)"
       id="q"
       y2="26.988457"
       x2="20.563929"
       y1="12.974803"
       x1="29.194855">
      <stop
         id="stop4566"
         offset="0%"
         stop-opacity=".8"
         stop-color="#BFF3FF" />
      <stop
         id="stop4568"
         offset="100%"
         stop-opacity=".2"
         stop-color="#80EBFF" />
    </linearGradient>
    <linearGradient
       gradientUnits="userSpaceOnUse"
       gradientTransform="matrix(1.6384856,0,0,2.5601653,338.7473,57.927957)"
       id="r"
       y2="74.324791"
       x2="16.874853"
       y1="29.405516"
       x1="18.502363">
      <stop
         id="stop4571"
         offset="0%"
         stop-opacity=".4"
         stop-color="#0DF" />
      <stop
         id="stop4573"
         offset="100%"
         stop-opacity="0"
         stop-color="#0DF" />
    </linearGradient>
    <linearGradient
       gradientUnits="userSpaceOnUse"
       gradientTransform="matrix(1.6278362,0,0,2.576914,338.7473,57.927957)"
       id="s"
       y2="57.36784"
       x2="25.577993"
       y1="4.5553231"
       x1="25.577993">
      <stop
         id="stop4576"
         offset="0%"
         stop-color="#BFF3FF" />
      <stop
         id="stop4578"
         offset="100%"
         stop-opacity="0"
         stop-color="#0DF" />
    </linearGradient>
    <linearGradient
       gradientUnits="userSpaceOnUse"
       gradientTransform="matrix(1.729258,0,0,2.4257769,338.7473,57.927957)"
       id="t"
       y2="89.877266"
       x2="65.108376"
       y1="12.77847"
       x1="68.298668">
      <stop
         id="stop4581"
         offset="0%"
         stop-opacity=".8"
         stop-color="#BFF3FF" />
      <stop
         id="stop4583"
         offset="100%"
         stop-opacity="0"
         stop-color="#0DF" />
    </linearGradient>
    <radialGradient
       xlink:href="#b-5"
       id="radialGradient3770"
       gradientUnits="userSpaceOnUse"
       gradientTransform="matrix(2.0486621,0,0,2.0475772,338.7473,57.927957)"
       cx="39.89164"
       cy="41.40416"
       fx="39.801777"
       fy="41.40416"
       r="19.256578" />
    <linearGradient
       xlink:href="#k-0"
       id="linearGradient3772"
       gradientUnits="userSpaceOnUse"
       gradientTransform="matrix(2.0161014,0,0,2.0806464,338.7473,57.927957)"
       x1="68.991951"
       y1="11.815484"
       x2="17.021517"
       y2="66.148209" />
    <linearGradient
       xlink:href="#l-9"
       id="linearGradient3774"
       gradientUnits="userSpaceOnUse"
       gradientTransform="matrix(2.1101868,0,0,1.9878779,338.7473,57.927957)"
       x1="32.206059"
       y1="33.089981"
       x2="25.120728"
       y2="60.567245" />
    <radialGradient
       xlink:href="#linearGradient3798"
       id="radialGradient3792"
       cx="162"
       cy="117.00001"
       fx="162"
       fy="117.00001"
       r="162"
       gradientTransform="matrix(1,0,0,0.72222227,0,32.499997)"
       gradientUnits="userSpaceOnUse" />
  </defs>
  <metadata
     id="metadata13">
    <rdf:RDF>
      <cc:Work
         rdf:about="">
        <dc:format>image/svg+xml</dc:format>
        <dc:type
           rdf:resource="http://purl.org/dc/dcmitype/StillImage" />
        <dc:title></dc:title>
      </cc:Work>
    </rdf:RDF>
  </metadata>
  <g
     id="layer1">
    <rect
       style="fill:url(#radialGradient3792);fill-opacity:1.0;stroke:none;stroke-width:0.5;stroke-linecap:round;stroke-linejoin:bevel;stroke-miterlimit:4;stroke-dasharray:none;stroke-opacity:1"
       id="rect3782"
       width="324"
       height="234.00002"
       x="-8.1802139e-15"
       y="0" />
    <g
       id="g3768"
       transform="translate(-77.889561,-260.9364)">
      <g
         id="g3211"
         transform="matrix(7.9066929,0,0,7.9368581,-260.2474,-210.874)">
        <g
           transform="matrix(1.0202637,0,0,1.0202637,-18.504283,-1.5009538)"
           id="g3723">
          <path
             transform="matrix(0,-0.99914753,-1.0008532,0,237.14214,575.84291)"
             d="m 516.5721,138.01015 v -1.2021 h -2.45704 z"
             style="fill:#174dca;stroke-width:2.04812"
             id="path2925" />
          <path
             transform="matrix(0,-0.99914753,-1.0008532,0,237.14214,575.84291)"
             d="m 513.84358,176.93788 h 2.72852 v -2.4725 z"
             style="fill:#1e2776;stroke-width:2.04812"
             id="path3404" />
          <path
             transform="matrix(0,-0.99914753,-1.0008532,0,237.14214,575.84291)"
             d="m 505.1385,176.93788 h 6.31055 0.66992 l -5.81445,-5.15381 z"
             style="fill:#27267f;stroke-width:2.04812"
             id="path3394" />
          <path
             transform="matrix(0,-0.99914753,-1.0008532,0,237.14214,575.84291)"
             d="m 487.56624,171.26108 v 5.6768 h 9.76953 l -4.87305,-3.18673 z"
             style="fill:#2d2381;stroke-width:2.04812"
             id="path3388" />
          <path
             transform="matrix(0,-0.99914753,-1.0008532,0,237.14214,575.84291)"
             d="m 497.33577,176.93788 h 7.80664 l 1.16211,-5.14991 -13.8418,1.96318 z"
             style="fill:#2f2485;stroke-width:2.04812"
             id="path3391" />
          <path
             transform="matrix(0,-0.99914753,-1.0008532,0,237.14214,575.84291)"
             d="m 516.5721,170.40634 v -9.67729 l -7.79102,2.1427 z"
             style="fill:#2a309a;stroke-width:2.04812"
             id="path3410" />
          <path
             transform="matrix(0,-0.99914753,-1.0008532,0,237.14214,575.84291)"
             d="m 516.5721,172.37732 v -1.97098 l -7.79102,-7.53459 -2.47656,8.91622 z"
             style="fill:#302b96;stroke-width:2.04812"
             id="path3407" />
          <path
             transform="matrix(0,-0.99914753,-1.0008532,0,237.14214,575.84291)"
             d="m 491.62678,136.80805 h -0.0664 -0.10547 l 0.10351,0.14051 z"
             style="fill:#184dcd;stroke-width:2.04812"
             id="path3103" />
          <path
             transform="matrix(0,-0.99914753,-1.0008532,0,237.14214,575.84291)"
             d="m 492.4633,173.75166 13.8412,-1.96415 -6.81,-5.54631 z"
             id="path3117"
             style="fill:#362896;stroke-width:2.04812" />
          <path
             transform="matrix(0,-0.99914753,-1.0008532,0,237.14214,575.84291)"
             d="m 499.4803,136.80805 h -7.85352 l -0.0684,0.14051 8.24805,0.8723 z"
             style="fill:#2648d3;stroke-width:2.04812"
             id="path3121" />
          <path
             transform="matrix(0,-0.99914753,-1.0008532,0,237.14214,575.84291)"
             d="m 499.47925,136.80869 0.32657,1.01281 0.57069,-1.01269"
             style="fill:none;stroke-width:2.04812"
             id="path3546" />
          <path
             transform="matrix(0,-0.99914753,-1.0008532,0,237.14214,575.84291)"
             d="m 506.33186,136.80805 h -5.95508 l -0.57031,1.01281 z"
             style="fill:#1653da;stroke-width:2.04812"
             id="path3125" />
          <path
             transform="matrix(0,-0.99914753,-1.0008532,0,237.14214,575.84291)"
             d="m 512.21663,136.80805 h -5.88477 l -6.52539,1.01281 12.19727,6.47104 z"
             style="fill:#244ad7;stroke-width:2.04812"
             id="path3129" />
          <path
             transform="matrix(0,-0.99914753,-1.0008532,0,237.14214,575.84291)"
             d="m 514.11506,136.80805 h -1.89843 l -0.21289,7.48385 4.56836,-2.15831 v -4.12344 z"
             style="fill:#2547cf;stroke-width:2.04812"
             id="path3534" />
          <path
             transform="matrix(0,-0.99914753,-1.0008532,0,237.14214,575.84291)"
             d="m 516.5721,150.65561 v -3.01305 l -4.56836,-3.35066 -4.32227,7.98927 z"
             style="fill:#2a41c6;stroke-width:2.04812"
             id="path3529" />
          <path
             transform="matrix(0,-0.99914753,-1.0008532,0,237.14214,575.84291)"
             d="m 516.5721,147.64256 v -5.50897 l -4.56836,2.15831 z"
             style="fill:#2045c1;stroke-width:2.04812"
             id="path3526" />
          <path
             transform="matrix(0,-0.99914753,-1.0008532,0,237.14214,575.84291)"
             d="m 516.5721,159.29473 v -8.63912 l -8.89063,1.62556 z"
             style="fill:#2543c3;stroke-width:2.04812"
             id="path3523" />
          <path
             transform="matrix(0,-0.99914753,-1.0008532,0,237.14214,575.84291)"
             d="m 491.45491,136.80805 h -3.88867 v 1.30357 l 3.99218,-1.16306 z"
             style="fill:#2543c3;stroke-width:2.04812"
             id="path3521" />
          <path
             transform="matrix(0,-0.99914753,-1.0008532,0,237.14214,575.84291)"
             d="m 516.5721,160.72905 v -1.43432 l -8.89063,-7.01356 1.09961,10.59058 z"
             style="fill:#2e37b2;stroke-width:2.04812"
             id="path3516" />
          <path
             transform="matrix(0,-0.99914753,-1.0008532,0,237.14214,575.84291)"
             d="m 491.55803,136.949 2.31233,8.41368 5.93545,-7.54118 z"
             id="path3155"
             style="fill:#2d40c7;stroke-width:2.04812" />
          <path
             transform="matrix(0,-0.99914753,-1.0008532,0,237.14214,575.84291)"
             d="m 487.56624,145.10371 v 3.67264 l 6.30468,-3.41309 -2.3125,-8.4147 z"
             style="fill:#3537b8;stroke-width:2.04812"
             id="path3559" />
          <path
             transform="matrix(0,-0.99914753,-1.0008532,0,237.14214,575.84291)"
             style="fill:#333cc5;fill-opacity:1;stroke:none;stroke-width:0.126235px;stroke-linecap:butt;stroke-linejoin:miter;stroke-opacity:1"
             d="m 499.80647,137.82086 -0.32617,-1.01281 0.89621,7.6e-4 z"
             id="path3652" />
          <path
             style="fill:#333cc5;fill-opacity:1;stroke:none;stroke-width:0.999574px;stroke-linecap:butt;stroke-linejoin:miter;stroke-opacity:1"
             d="m 94.916659,77.057233 7.6e-4,0.89545 -1.01431,-0.32524 z"
             id="path3612" />
          <path
             transform="matrix(0,-0.99914753,-1.0008532,0,237.14214,575.84291)"
             d="m 499.80581,137.8215 7.87502,14.45972 -13.81047,-6.91854 z"
             id="path3133"
             style="fill:#333cc5;stroke-width:2.04812" />
        </g>
      </g>
    </g>
    <g
       transform="matrix(1.62,0,0,1.62,-3.24e-6,17.369997)"
       id="g55" />
    <g
       id="g2903"
       transform="matrix(1,0,0,1.0008532,-258.69108,-22.976259)">
      <path
         d="m 384.54532,153.42973 5.00151,13.86577 7.51455,10.14024 17.6425,3.36711 8.4403,0.71684 14.41057,-3.6006 6.20785,-5.94978 z"
         id="path4649"
         style="fill:#09204d;stroke-width:2.04812" />
      <path
         d="m 459.21362,132.97516 -1.76753,-5.86172 -5.05066,-9.53195 -5.77775,-6.0911 -6.13412,-4.38093 -5.32511,-2.08908 -6.39013,-2.27342 -10.52119,-0.66973 -6.63591,1.1961 -5.41318,1.66512 -9.60568,5.62209 -6.00304,6.6994 -5.53607,8.99124 -2.17715,7.65178 -0.40757,11.61078 2.07679,7.91599 4.57959,9.01172 3.22784,4.35226 4.46695,4.09624 5.57703,3.77263 6.87759,2.99231 11.50838,1.34971 6.01123,0.16794 8.89294,-2.50485 7.9508,-4.36454 5.11415,-4.36454 3.96721,-4.73116 5.60775,-10.97792 1.23707,-7.51046 z"
         id="path4651"
         style="fill:#09204d;stroke-width:2.04812" />
      <path
         d="m 418.43965,107.35319 -4.71272,4.6738 7.68659,3.11724 5.71835,-7.09264 z"
         id="path4653"
         style="fill:#0e56d7;stroke-width:2.04812" />
      <path
         d="m 421.41352,115.14423 14.88164,-0.45263 -9.16329,-6.64001 z"
         id="path4655"
         style="fill:#1053d1;stroke-width:2.04812" />
      <path
         d="m 435.18917,108.00244 -8.0573,0.0491 9.16329,6.64001 8.47307,-0.55299 z"
         id="path4657"
         style="fill:#0b4fbf;stroke-width:2.04812" />
      <path
         d="m 444.76823,114.13861 -4.81718,-6.64206 6.66663,3.99384 z"
         id="path4659"
         style="fill:#0b48b0;stroke-width:2.04812" />
      <path
         d="m 451.14607,118.20617 -6.37784,-4.06756 1.84945,-2.64822 z"
         id="path4661"
         style="fill:#0c45a7;stroke-width:2.04812" />
      <path
         d="m 444.76823,114.13861 -1.06707,4.55092 5.83304,2.33281 z"
         id="path4663"
         style="fill:#0f46af;stroke-width:2.04812" />
      <path
         d="m 444.76823,114.13861 6.37784,4.06756 -1.61187,2.81617 z"
         id="path4665"
         style="fill:#0c47ad;stroke-width:2.04812" />
      <path
         d="m 436.29516,114.6916 8.47307,-0.55299 -1.06707,4.55092 z"
         id="path4667"
         style="fill:#0e4fc3;stroke-width:2.04812" />
      <path
         d="m 436.29516,114.6916 -6.6953,6.06243 8.61643,4.21913 z"
         id="path4669"
         style="fill:#174dca;stroke-width:2.04812" />
      <path
         d="m 421.41352,115.14423 14.88164,-0.45263 -6.6953,6.06243 z"
         id="path4671"
         style="fill:#1650d4;stroke-width:2.04812" />
      <path
         d="m 443.70116,118.68953 4.05118,7.86068 1.78186,-5.52787 z"
         id="path4673"
         style="fill:#1246b2;stroke-width:2.04812" />
      <path
         d="m 447.75234,126.55021 1.78186,-5.52787 4.24576,10.09723 z"
         id="path4675"
         style="fill:#133ea1;stroke-width:2.04812" />
      <path
         d="m 449.5342,121.02234 6.47001,4.73934 -2.22425,5.35789 z"
         id="path4677"
         style="fill:#103d98;stroke-width:2.04812" />
      <path
         d="m 451.14607,118.20617 1.24936,-0.62468 3.60878,8.18019 z"
         id="path4679"
         style="fill:#0b3785;stroke-width:2.04812" />
      <path
         d="m 456.00421,125.76168 1.44188,1.35176 -5.05066,-9.53195 z"
         id="path4681"
         style="fill:#0b3685;stroke-width:2.04812" />
      <path
         d="m 456.00421,125.76168 -4.85814,-7.55551 -1.61187,2.81617 z m -9.38653,-14.27129 4.52839,6.71578 1.24936,-0.61443 z"
         id="path4683"
         style="fill:#0c3b91;stroke-width:2.04812" />
      <path
         d="m 458.88797,137.55476 -1.44188,-10.44132 1.76753,5.86172 -0.34818,4.5796 z"
         id="path4685"
         style="fill:#0b3279;stroke-width:2.04812" />
      <path
         d="m 456.00421,125.76168 2.88376,11.79308 -1.44188,-10.44132 z"
         id="path4687"
         style="fill:#0f388d;stroke-width:2.04812" />
      <path
         d="m 453.77996,131.11957 5.10801,6.43519 -2.88376,-11.79308 z"
         id="path4689"
         style="fill:#0d3481;stroke-width:2.04812" />
      <path
         d="m 458.86544,137.55476 0.34818,-4.5796 0.35023,11.74391 -0.67588,-7.16431 z"
         id="path4691"
         style="fill:#0b2e71;stroke-width:2.04812" />
      <path
         d="m 458.03185,146.83683 1.532,-2.11776 -0.67588,-7.16431 z"
         id="path4693"
         style="fill:#0e2f77;stroke-width:2.04812" />
      <path
         d="m 458.32678,152.22953 -1.22477,0.58986 2.46184,-8.10032 z"
         id="path4695"
         style="fill:#0e2969;stroke-width:2.04812" />
      <path
         d="m 457.10201,152.81939 2.46184,-8.10032 -1.532,2.11776 z"
         id="path4697"
         style="fill:#0c2a69;stroke-width:2.04812" />
      <path
         d="m 458.03185,146.83683 0.85612,-9.28207 -2.62365,3.09471 z"
         id="path4699"
         style="fill:#123180;stroke-width:2.04812" />
      <path
         d="m 457.10201,152.81939 0.92984,-5.98256 -5.0609,8.50584 z"
         id="path4701"
         style="fill:#112b70;stroke-width:2.04812" />
      <path
         d="m 453.77996,131.11957 5.10801,6.43519 -2.62365,3.09471 z"
         id="path4703"
         style="fill:#12378c;stroke-width:2.04812" />
      <path
         d="m 458.03185,146.83683 -1.76753,-6.18736 -2.6687,7.61899 z"
         id="path4705"
         style="fill:#122e7b;stroke-width:2.04812" />
      <path
         d="m 452.71903,163.20745 4.38298,-10.38806 -4.10034,7.5719 z"
         id="path4707"
         style="fill:#11296c;stroke-width:2.04812" />
      <path
         d="m 453.00167,160.39129 4.10034,-7.5719 -4.13106,2.52328 z"
         id="path4709"
         style="fill:#142a72;stroke-width:2.04812" />
      <path
         d="m 457.10201,152.81939 -4.38298,10.38192 5.60775,-10.97793 z m -8.34814,15.11922 3.96516,-4.73116 0.28264,-2.81616 z m -5.1203,4.36454 5.1203,-4.36454 -5.40704,2.48641 z"
         id="path4711"
         style="fill:#112768;stroke-width:2.04812" />
      <path
         d="m 413.78428,175.34256 -5.16741,1.26574 0.1577,-3.60879 z"
         id="path4713"
         style="fill:#1c226a;stroke-width:2.04812" />
      <path
         d="m 385.05325,126.25118 1.42549,-0.52841 -3.60264,8.18019 z"
         id="path4715"
         style="fill:#182b7a;stroke-width:2.04812" />
      <path
         d="m 382.8761,133.90296 2.7281,-0.50793 0.87454,-7.67226 z"
         id="path4717"
         style="fill:#1f308d;stroke-width:2.04812" />
      <path
         d="m 383.03995,143.72779 -0.16385,-9.82483 2.7281,-0.50793 z"
         id="path4719"
         style="fill:#1e2b7f;stroke-width:2.04812" />
      <path
         d="m 443.70116,118.68953 -5.48487,6.28363 9.53605,1.57705 z m -47.86046,-6.44339 7.00047,-4.79055 -6.24881,3.10905 z"
         id="path4721"
         style="fill:#1346b5;stroke-width:2.04812" />
      <path
         d="m 396.59236,110.56054 9.60568,-5.62209 -3.35687,2.51714 -6.24881,3.10495"
         id="path4723"
         style="fill:#1244ac;stroke-width:2.04812" />
      <path
         d="m 402.84117,107.45559 8.77005,-4.18226 -5.41318,1.66512 z"
         id="path4725"
         style="fill:#0e4ab6;stroke-width:2.04812" />
      <path
         d="m 436.29516,114.6916 1.92113,10.28156 5.48487,-6.28363 z m -28.11659,-7.72346 8.172,-3.27699 -4.74345,-0.42601 z"
         id="path4727"
         style="fill:#0e4bba;stroke-width:2.04812" />
      <path
         d="m 418.24713,102.07723 -6.63591,1.1961 4.74345,0.42601 z"
         id="path4729"
         style="fill:#0a4ebc;stroke-width:2.04812" />
      <path
         d="m 424.52257,103.61946 -8.1679,0.0799 1.89246,-1.62211"
         id="path4731"
         style="fill:#0c54cc;stroke-width:2.04812" />
      <path
         d="m 439.95105,107.49246 -4.76188,0.50588 9.57906,6.14436 z m -15.42848,-3.873 10.63588,1.40092 -6.39013,-2.27342 z"
         id="path4733"
         style="fill:#0b4bb4;stroke-width:2.04812" />
      <path
         d="m 439.95105,107.49655 -4.7926,-2.47617 5.32511,2.08908 z"
         id="path4735"
         style="fill:#0c3889;stroke-width:2.04812" />
      <path
         d="m 384.54532,153.42973 3.15206,2.58677 -4.64924,-12.28871 z m 43.39761,24.44021 2.76496,-6.50893 -10.0747,2.70557 z m 2.76496,-6.50893 8.42187,2.33691 0.50998,-6.51302 z"
         id="path4737"
         style="fill:#202575;stroke-width:2.04812" />
      <path
         d="m 443.34683,170.42502 -3.70709,-3.24012 8.95642,-5.95184 z"
         id="path4739"
         style="fill:#1b2773;stroke-width:2.04812" />
      <path
         d="m 448.59616,161.23306 -5.24933,9.19196 5.40704,-2.48641 4.2478,-7.54732 z"
         id="path4741"
         style="fill:#15276d;stroke-width:2.04812" />
      <path
         d="m 440.48356,107.10946 -0.53251,0.38709 6.66663,3.99384 z m -5.29439,0.89298 4.76188,-0.50589 -4.7926,-2.47617 z"
         id="path4743"
         style="fill:#0c409d;stroke-width:2.04812" />
      <path
         d="m 418.24713,102.07723 6.27544,1.54223 4.24575,-0.8725 z m 16.91132,2.94315 -10.63588,-1.40092 10.6666,4.38298 z"
         id="path4745"
         style="fill:#0b4cb7;stroke-width:2.04812" />
      <path
         d="m 424.52257,103.61946 2.6093,4.43213 8.0573,-0.0491 z"
         id="path4747"
         style="fill:#0b55ce;stroke-width:2.04812" />
      <path
         d="m 424.52257,103.61946 2.6093,4.43213 -8.69222,-0.6984 z"
         id="path4749"
         style="fill:#0a52c5;stroke-width:2.04812" />
      <path
         d="m 416.35467,103.69934 2.08498,3.65385 6.08292,-3.73373 z"
         id="path4751"
         style="fill:#0951c4;stroke-width:2.04812" />
      <path
         d="m 408.18267,106.96814 8.172,-3.2688 2.08498,3.65385 z"
         id="path4753"
         style="fill:#0b50c4;stroke-width:2.04812" />
      <path
         d="m 402.84117,107.45559 5.3415,-0.48745 3.42855,-3.68662 z m 5.3415,-0.48745 5.54426,5.05885 4.71067,-4.6738 z"
         id="path4755"
         style="fill:#0f4dbf;stroke-width:2.04812" />
      <path
         d="m 408.18267,106.96814 -9.02607,8.46488 3.68457,-7.97743 z"
         id="path4757"
         style="fill:#1546b6;stroke-width:2.04812" />
      <path
         d="m 399.1566,115.43302 5.75932,0.95647 3.26675,-9.42135 z"
         id="path4759"
         style="fill:#1549bd;stroke-width:2.04812" />
      <path
         d="m 404.91592,116.38949 3.26675,-9.42135 5.54426,5.05885 z"
         id="path4761"
         style="fill:#144bc3;stroke-width:2.04812" />
      <path
         d="m 390.58932,117.25994 0.35023,3.40397 4.90115,-8.41777 z"
         id="path4763"
         style="fill:#173794;stroke-width:2.04812" />
      <path
         d="m 386.47874,125.72277 4.11058,-8.46283 0.35023,3.40397 z"
         id="path4765"
         style="fill:#192f84;stroke-width:2.04812" />
      <path
         d="m 390.93955,120.66391 4.90115,-8.41777 3.3159,3.18688 z"
         id="path4767"
         style="fill:#1a389b;stroke-width:2.04812" />
      <path
         d="m 390.64257,127.96341 0.29698,-7.2995 -4.46081,5.05886 z"
         id="path4769"
         style="fill:#1d3089;stroke-width:2.04812" />
      <path
         d="m 390.64257,127.96341 0.29698,-7.2995 5.79003,4.70044 z"
         id="path4771"
         style="fill:#1e389f;stroke-width:2.04812" />
      <path
         d="m 396.72958,125.36435 2.42702,-9.93133 -8.21705,5.23089 z"
         id="path4773"
         style="fill:#1c40af;stroke-width:2.04812" />
      <path
         d="m 396.72958,125.36435 2.42702,-9.93133 5.75932,0.95647 z"
         id="path4775"
         style="fill:#1e41b7;stroke-width:2.04812" />
      <path
         d="m 385.6042,133.39503 0.87454,-7.67226 4.16383,2.24064 z"
         id="path4777"
         style="fill:#192c7d;stroke-width:2.04812" />
      <path
         d="m 427.94293,177.86994 7.74394,-1.20225 3.44289,-2.96977 z m -45.46826,-32.36029 0.57143,-1.78596 -0.16385,-9.83097 z m 3.13567,-12.11872 -2.56424,10.33276 4.64923,12.28872 -2.27546,-14.23443 z"
         id="path4779"
         style="fill:#162467;stroke-width:2.04812" />
      <path
         d="m 387.68918,156.0165 3.83613,0.53866 -2.68713,-6.27135 z"
         id="path4781"
         style="fill:#1a236a;stroke-width:2.04812" />
      <path
         d="m 443.34683,170.42502 -4.21707,3.27699 -3.44289,2.96978 7.9508,-4.36454 z m -22.56413,8.57958 6.01123,0.16794 8.89294,-2.50485 -7.74394,1.20225 z m -29.5134,-15.85655 4.0307,0.77419 -3.77469,-7.37323 z"
         id="path4783"
         style="fill:#132668;stroke-width:2.04812" />
      <path
         d="m 408.77457,172.99951 -6.82638,-5.25548 -2.83664,2.73015 9.50532,6.13412 z m -24.22925,-19.56978 4.57959,9.01172 -1.43368,-6.42495 z m -2.07679,-7.91599 2.07679,7.91599 -1.50537,-9.70194 z m 38.16466,28.55284 -11.85862,-1.06707 5.00971,2.34305 -5.16741,1.26574 -6.22014,-1.93752 6.87759,2.9923 11.50838,1.34971 7.16842,-1.13466 z m -29.10788,-17.51142 -3.82793,-0.53866 3.58011,7.13155 z m -6.10544,-14.77718 2.27751,14.23852 1.14899,-5.73473 z m 9.88013,22.14426 -4.0307,-0.77419 -2.13824,-0.7066 3.22784,4.35226 4.46694,4.09624 5.57089,3.78083 -3.27699,-4.18841 z"
         id="path4785"
         style="fill:#1b2268;stroke-width:2.04812" />
      <path
         d="m 385.6042,133.39503 5.41318,8.37476 -0.37481,-13.80638 z"
         id="path4787"
         style="fill:#212a81;stroke-width:2.04812" />
      <path
         d="m 385.41987,141.77798 3.41831,8.50583 2.1792,-8.51402 z"
         id="path4789"
         style="fill:#21267a;stroke-width:2.04812" />
      <path
         d="m 388.83818,150.28381 2.1792,-8.51402 2.70556,6.72806 z"
         id="path4791"
         style="fill:#262781;stroke-width:2.04812" />
      <path
         d="m 391.52531,156.55516 10.37987,6.43314 -8.18224,-14.49045 z"
         id="path4793"
         style="fill:#272379;stroke-width:2.04812" />
      <path
         d="m 389.13106,162.44145 2.14438,0.7066 -3.57806,-7.13155 z m 22.92665,3.70096 -3.27699,6.8571 11.85861,1.06707 z m -20.5324,-9.58725 3.77469,7.37323 3.81155,6.55398 2.83664,-2.73014 -0.043,-4.75574 z"
         id="path4795"
         style="fill:#1e226d;stroke-width:2.04812" />
      <path
         d="m 439.63974,167.1849 -0.50998,6.51302 4.21707,-3.27699 z m -18.14839,-0.93599 -0.86226,7.81767 10.0788,-2.70557 -0.35842,-8.78848 z"
         id="path4797"
         style="fill:#222475;stroke-width:2.04812" />
      <path
         d="m 385.41987,141.77798 h 5.59751 l -5.41318,-8.37476 z m 44.9296,20.79455 0.35842,8.78848 8.93185,-4.17611 z"
         id="path4799"
         style="fill:#23277d;stroke-width:2.04812" />
      <path
         d="m 430.34947,162.57253 5.74907,-5.20632 3.5412,9.81869 z"
         id="path4801"
         style="fill:#1e2776;stroke-width:2.04812" />
      <path
         d="m 439.63974,167.1849 4.34611,-13.16327 -7.88731,3.34458 z"
         id="path4803"
         style="fill:#222b86;stroke-width:2.04812" />
      <path
         d="m 448.59616,161.23306 -8.95642,5.95184 4.34611,-13.16327 z"
         id="path4805"
         style="fill:#192974;stroke-width:2.04812" />
      <path
         d="m 452.97095,155.34267 -8.9851,-1.32104 4.61031,7.21143 4.40551,-0.84177 z"
         id="path4807"
         style="fill:#172a75;stroke-width:2.04812" />
      <path
         d="m 453.59562,148.26846 -9.60977,5.75317 8.9851,1.32104 5.0609,-8.50789 z"
         id="path4809"
         style="fill:#172d7d;stroke-width:2.04812" />
      <path
         d="m 386.47874,125.72072 4.11058,-8.46283 -5.52992,8.99125 z m 63.53268,10.47613 3.5842,12.06957 2.66256,-7.619 z"
         id="path4811"
         style="fill:#18338a;stroke-width:2.04812" />
      <path
         d="m 456.26432,140.64947 -2.48436,-9.5299 -3.76854,5.07933 z"
         id="path4813"
         style="fill:#153791;stroke-width:2.04812" />
      <path
         d="m 443.98585,154.02163 9.60977,-5.75317 -9.3128,-4.14539 z"
         id="path4815"
         style="fill:#1b318b;stroke-width:2.04812" />
      <path
         d="m 443.98585,154.02163 -8.70861,-8.79872 0.8213,12.1433 z"
         id="path4817"
         style="fill:#242d8d;stroke-width:2.04812" />
      <path
         d="m 430.34947,162.57253 -6.68711,-5.92111 12.43618,0.71479 z"
         id="path4819"
         style="fill:#2a2b8f;stroke-width:2.04812" />
      <path
         d="m 391.52531,156.55516 2.19763,-8.05731 -4.88476,1.78596 z m 32.13705,0.0922 -2.17101,9.60159 8.85402,-3.67638 z"
         id="path4821"
         style="fill:#27267f;stroke-width:2.04812" />
      <path
         d="m 409.82116,158.61557 -6.43519,-3.2729 -1.48079,7.64563 10.14639,3.15411 9.44388,0.1065 z"
         id="path4823"
         style="fill:#2d2381;stroke-width:2.04812" />
      <path
         d="m 421.49545,166.24891 2.16691,-9.59749 -13.8412,1.96415 z"
         id="path4825"
         style="fill:#2f2485;stroke-width:2.04812" />
      <path
         d="m 391.01738,141.76979 2.7752,-8.86426 -3.15001,-4.94212 z"
         id="path4827"
         style="fill:#233196;stroke-width:2.04812" />
      <path
         d="m 396.72958,125.36435 12.18631,-3.55144 -6.43724,13.15098 z"
         id="path4829"
         style="fill:#293cb7;stroke-width:2.04812" />
      <path
         d="m 443.98585,154.02163 -8.70861,-8.79872 9.00558,-1.09984 z"
         id="path4831"
         style="fill:#25339c;stroke-width:2.04812" />
      <path
         d="m 453.59562,148.26846 -3.5842,-12.06956 -5.7286,7.92417 z"
         id="path4833"
         style="fill:#19348f;stroke-width:2.04812" />
      <path
         d="m 436.09854,157.36621 -9.96001,-9.63026 9.13871,-2.51304 z"
         id="path4835"
         style="fill:#2a309a;stroke-width:2.04812" />
      <path
         d="m 423.66236,156.65142 12.43618,0.71479 -9.96001,-9.63026 z"
         id="path4837"
         style="fill:#302b96;stroke-width:2.04812" />
      <path
         d="m 423.66236,156.65142 -6.81,-5.54631 9.28617,-3.36916 z"
         id="path4839"
         style="fill:#3630a7;stroke-width:2.04812" />
      <path
         d="m 395.8407,112.24614 0.75166,-1.6856 -6.00304,6.6994 z m 51.91164,14.30407 2.25293,9.64869 3.76854,-5.07933 z"
         id="path4841"
         style="fill:#173da2;stroke-width:2.04812" />
      <path
         d="m 396.72958,125.36435 5.74907,9.59954 -8.68607,-2.05836 z"
         id="path4843"
         style="fill:#2a36a8;stroke-width:2.04812" />
      <path
         d="m 393.79258,132.90553 8.68607,2.05836 -5.874,9.25135 z"
         id="path4845"
         style="fill:#312e9f;stroke-width:2.04812" />
      <path
         d="m 408.91589,121.81291 4.81104,-9.78592 -8.81101,4.3625 z"
         id="path4847"
         style="fill:#184dcd;stroke-width:2.04812" />
      <path
         d="m 391.01738,141.76979 5.58727,2.44545 -2.88171,4.28261 z"
         id="path4849"
         style="fill:#272986;stroke-width:2.04812" />
      <path
         d="m 396.60465,144.21524 -2.88171,4.28261 8.18224,14.49045 1.48079,-7.64563 z"
         id="path4851"
         style="fill:#2c2584;stroke-width:2.04812" />
      <path
         d="m 403.38597,155.34267 0.90527,-13.46228 -7.68659,2.33485 z"
         id="path4853"
         style="fill:#32268b;stroke-width:2.04812" />
      <path
         d="m 403.38597,155.34267 13.46639,-4.23756 -12.56112,-9.22472 z"
         id="path4855"
         style="fill:#372999;stroke-width:2.04812" />
      <path
         d="m 416.85236,151.10511 -1.31285,-10.40854 -11.24827,1.18382 z"
         id="path4857"
         style="fill:#392da5;stroke-width:2.04812" />
      <path
         d="m 415.53951,140.69657 9.49918,-3.55144 1.09984,10.59082 z"
         id="path4859"
         style="fill:#3338bc;stroke-width:2.04812" />
      <path
         d="m 409.82116,158.61557 13.8412,-1.96415 -6.81,-5.54631 z"
         id="path4861"
         style="fill:#362896;stroke-width:2.04812" />
      <path
         d="m 409.82116,158.61557 -6.43519,-3.2729 13.46639,-4.23756 z"
         id="path4863"
         style="fill:#35268f;stroke-width:2.04812" />
      <path
         d="m 408.91589,121.81291 8.24778,0.8725 -3.43674,-10.65842 z"
         id="path4865"
         style="fill:#2648d3;stroke-width:2.04812" />
      <path
         d="m 421.41352,115.14423 -7.68659,-3.11724 3.43674,10.65842 z"
         id="path4867"
         style="fill:#1057dc;stroke-width:2.04812" />
      <path
         d="m 421.41352,115.14423 8.18634,5.6098 -12.43619,1.93138 z"
         id="path4869"
         style="fill:#1653da;stroke-width:2.04812" />
      <path
         d="m 417.16367,122.68541 12.1986,6.47001 -4.32358,7.98971 z"
         id="path4871"
         style="fill:#2b46d5;stroke-width:2.04812" />
      <path
         d="m 429.36227,129.15542 0.23759,-8.40139 -12.43619,1.93138 z"
         id="path4873"
         style="fill:#244ad7;stroke-width:2.04812" />
      <path
         d="m 429.36227,129.15542 0.23759,-8.40139 8.61643,4.21913 z"
         id="path4875"
         style="fill:#2547cf;stroke-width:2.04812" />
      <path
         d="m 417.16367,122.68541 7.87502,14.45972 -13.81047,-6.91854 z"
         id="path4877"
         style="fill:#333cc5;stroke-width:2.04812" />
      <path
         d="m 415.53951,140.69657 9.49918,-3.55144 -13.81047,-6.91854 z"
         id="path4879"
         style="fill:#3833b6;stroke-width:2.04812" />
      <path
         d="m 425.03869,137.14513 12.18017,-2.2263 -7.85659,-5.76341 z"
         id="path4881"
         style="fill:#2a41c6;stroke-width:2.04812" />
      <path
         d="m 438.21629,124.97316 -0.99743,9.94567 -7.85659,-5.76341 z"
         id="path4883"
         style="fill:#2045c1;stroke-width:2.04812" />
      <path
         d="m 438.21629,124.97316 5.74908,7.80948 -6.74651,2.13619 z"
         id="path4885"
         style="fill:#1b43b7;stroke-width:2.04812" />
      <path
         d="m 447.75234,126.55021 -9.53605,-1.57705 5.74908,7.80948 z"
         id="path4887"
         style="fill:#1742af;stroke-width:2.04812" />
      <path
         d="m 399.16685,115.43302 3.68661,-7.98767 -7.00047,4.79055 z m 48.59573,11.11719 -3.78697,6.23243 6.04605,3.41626 z"
         id="path4889"
         style="fill:#1740a9;stroke-width:2.04812" />
      <path
         d="m 444.28282,144.12307 5.7286,-7.92417 -6.04605,-3.41626 z"
         id="path4891"
         style="fill:#1b3ca4;stroke-width:2.04812" />
      <path
         d="m 444.28282,144.12307 -0.31745,-11.34043 -6.74651,2.13619 z"
         id="path4893"
         style="fill:#1f3dad;stroke-width:2.04812" />
      <path
         d="m 396.72958,125.36435 12.18631,-3.55144 -3.99997,-5.42342 z m 28.30911,11.78078 10.2406,8.07778 1.94162,-10.30408 z"
         id="path4895"
         style="fill:#2543c3;stroke-width:2.04812" />
      <path
         d="m 426.13853,147.73595 9.13871,-2.51304 -10.23855,-8.07778 z"
         id="path4897"
         style="fill:#2e37b2;stroke-width:2.04812" />
      <path
         d="m 408.91589,121.81291 2.31233,8.41368 5.93545,-7.54118 z"
         id="path4899"
         style="fill:#2d40c7;stroke-width:2.04812" />
      <path
         d="m 408.91589,121.81291 -6.43724,13.15098 8.74957,-4.7373 z"
         id="path4901"
         style="fill:#3537b8;stroke-width:2.04812" />
      <path
         d="m 411.22822,130.22659 -6.93698,11.6538 11.24827,-1.18382 z"
         id="path4903"
         style="fill:#3931b0;stroke-width:2.04812" />
      <path
         d="m 415.53951,140.69657 1.31285,10.40854 9.28617,-3.36916 z m -11.25237,1.18382 6.93699,-11.6538 -8.74957,4.7373 z"
         id="path4905"
         style="fill:#3735b8;stroke-width:2.04812" />
      <path
         d="m 396.60465,144.21524 5.874,-9.25135 1.81259,6.9165 z"
         id="path4907"
         style="fill:#342892;stroke-width:2.04812" />
      <path
         d="m 402.39673,174.67078 6.22014,1.94571 -9.50532,-6.13412 z m -0.44854,-6.91855 6.82638,5.25547 3.277,-6.8571 -10.14639,-3.15411 z m 18.685,6.32254 0.86226,-7.81767 -9.44388,-0.1065 z m 10.0747,-2.71376 -2.76496,6.50893 11.18683,-4.17202 z"
         id="path4909"
         style="fill:#232372;stroke-width:2.04812" />
      <path
         d="m 391.01738,141.76979 2.7752,-8.86426 2.81207,11.30971 z"
         id="path4911"
         style="fill:#2a2f96;stroke-width:2.04812" />
      <path
         d="m 393.79258,132.90553 2.937,-7.54118 -6.08496,2.6093 z m 43.42014,2.0133 -1.94162,10.30408 9.01172,-1.09984 z"
         id="path4913"
         style="fill:#2636a5;stroke-width:2.04812" />
      <path
         d="m 459.73794,144.72931 v -0.0164 L 459.38156,132.969 v -0.041 l -1.76548,-5.85968 v -0.0123 l -5.05066,-9.53195 -5.82076,-6.15255 h -0.0123 l -6.13207,-4.37684 h -0.0246 l -5.32511,-2.08908 h -0.0369 l -6.39013,-2.27341 h -0.043 l -10.52119,-0.66974 h -0.0451 l -6.63591,1.19815 h -0.0246 l -5.40908,1.66308 h -0.0348 l -9.60568,5.58727 -6.00099,6.6953 -5.52992,8.9892 v 0.0225 l -2.1792,7.65177 v 0.0287 l -0.40963,11.61078 v 0.0553 l 2.07475,7.90984 v 0.0266 l 4.57755,9.01173 v 0.0143 l 3.16639,4.4608 v 0.0102 l 4.4649,4.09624 h 0.0123 l 5.57703,3.77264 h 0.0123 l 6.87758,2.99025 h 0.043 l 11.50839,1.34971 h 0.0164 l 6.00919,0.16795 h 0.0471 l 8.89294,-2.5069 h 0.0307 l 7.9467,-4.3625 0.0143,-0.0102 h 0.0102 l 5.1203,-4.36249 3.96516,-4.73321 0.0143,-0.0205 5.60775,-10.97792 v -0.043 l 1.22887,-7.50636 v -0.0184 z m -62.80969,26.02341 -1.15719,-1.06092 2.60112,2.03788 z m 16.8806,4.4096 -4.06551,-1.90065 9.62616,0.86635 z m 1.48079,-34.61321 -10.6707,1.12237 6.58061,-11.05985 z m -3.72348,-9.96001 13.03833,6.53146 -8.96871,3.34662 z m 3.82179,10.29795 1.24116,9.83097 -11.87909,-8.71884 z m 1.08551,10.15457 -12.90316,4.05937 0.86636,-12.90315 z m -0.71685,-9.99072 9.99688,6.63795 -8.75776,3.17868 z m 0.15976,-0.31132 8.97076,-3.35482 1.0384,10.00301 z m 13.78179,-11.55344 8.31332,-3.9242 -0.93804,9.33738 z m 7.0906,5.63438 -11.42851,2.08908 4.05937,-7.50226 z m -11.75416,1.96005 -7.43468,-13.6712 11.53296,6.11568 z m -0.40963,-0.0389 -13.12435,-6.57446 5.64052,-7.16842 z m -20.26614,4.69429 -1.67332,-6.38603 8.07574,-4.37069 z m -1.10599,13.34964 -6.38194,-10.46794 7.22987,-2.19762 z m 13.024,-3.3159 -6.48845,6.93083 -5.93954,-3.01893 z m 9.60773,-3.45518 -2.31438,8.33585 -6.37989,-5.18584 z m -0.62673,-10.47818 9.64665,7.60876 -8.60211,2.36968 z m 0.19252,-0.29083 11.55345,-2.10956 -1.84331,9.77157 z m 11.97126,-2.57039 0.92575,-9.23497 5.3374,7.25034 z m 6.3799,-1.65898 0.29493,10.57445 -6.58676,-8.57958 z m -14.25287,-4.13925 0.2212,-7.84839 8.05116,3.94263 z m -0.34818,0 -11.48995,-6.0952 11.7132,-1.81873 z m -17.89237,0.97696 -2.15258,-7.83611 7.6825,0.81925 z m -0.28059,0.29288 -8.15357,4.4055 5.9969,-12.2498 z m -6.94518,11.61693 -7.07625,2.15053 5.40908,-8.52223 z m -1.28007,12.95026 -8.83969,-6.25906 2.63593,-3.91395 z m 0.71274,0.88888 5.93955,3.01893 -7.30359,4.0348 z m 13.35579,-4.26009 6.37785,5.19403 -12.9605,1.84331 z m 9.35991,-3.27699 9.42135,9.10184 -11.75416,-0.67383 z m 0.24987,-0.24168 8.63897,-2.37582 0.77623,11.48176 z m 10.83865,-12.49352 6.64205,8.6533 -8.46693,1.02406 z m 6.83048,-2.25293 5.6057,3.17663 -5.32511,7.3507 z m 0.0594,-0.36457 3.48181,-5.7163 2.0645,8.85607 z m -0.25601,-0.24987 -5.3415,-7.25444 8.86222,1.46441 z m -14.04396,-11.7603 6.27339,-5.67944 1.8003,9.63641 z m -12.4157,1.74909 3.98154,-7.06396 7.66816,5.25547 z m -8.31127,-0.78647 4.50586,-9.17558 3.22374,9.99482 z m -6.71783,12.93387 -5.46848,-9.13052 11.59031,-3.37939 z m -5.78799,9.18172 -2.64617,-10.63998 8.172,1.93547 z m -2.91447,4.3461 -2.42498,-6.02146 5.00766,2.19148 z m 9.43159,7.29131 -1.36405,7.07216 -7.57804,-13.4029 z m 6.52326,3.45108 2.07474,7.00867 -9.44592,-2.93701 z m 13.7224,-2.0133 -2.05836,9.11004 -11.07828,-7.24625 z m 12.23547,0.65745 -5.32511,4.82332 -6.19556,-5.48487 z m -0.19253,-11.84018 8.19248,8.28669 -7.42853,3.15001 z m 0.16795,-0.32361 8.45259,-1.02406 -0.28674,9.28618 z m 14.29588,-8.76389 3.3753,11.3691 -8.77415,-3.90371 z m -1.915,-9.60978 5.5074,4.17612 -3.44289,4.64103 z m -9.47869,-2.1239 5.1203,-5.85557 3.77468,7.32407 z m -0.23144,-0.26421 -1.78801,-9.57086 6.89397,3.72143 z m -8.73523,-4.05528 -7.63539,-5.23089 13.87806,-0.42192 z m -12.37679,1.72043 -3.20121,-9.92519 7.15818,2.90218 z m -8.32356,-0.77419 -3.70505,-5.02609 8.16586,-4.04504 z m -0.25601,0.23758 -11.35478,3.30976 7.6272,-8.36247 z m -6.51097,12.98303 -8.09008,-1.91704 2.73629,-7.023 z m -5.76751,9.21654 -5.1203,-2.24269 2.54581,-8.12489 z m -2.85508,4.47923 -4.4055,1.61187 1.96414,-7.68044 z m 7.92418,14.08697 -9.69171,-6.00714 2.04812,-7.52479 z m 9.86989,3.60469 -9.16944,1.45416 -0.0389,-4.31744 z m -1.16743,-7.06807 10.7813,7.04963 -8.72294,-0.0983 z m 13.64662,-2.04811 6.257,5.54221 -8.28669,3.44084 z m 12.26414,0.70045 3.30771,9.16739 -8.67583,-4.30106 z m 0.29493,-0.20481 7.37323,-3.12953 -4.06757,12.31944 z m 8.13103,-13.0752 8.7721,3.90372 -9.05064,5.41933 z m 5.87196,-7.75417 5.73474,4.0819 -2.45775,6.99023 z m -0.0635,-0.47312 3.44699,-4.64513 2.27136,8.7168 z m -2.30209,-9.67531 1.58525,-4.96669 3.81155,9.06907 z m -0.23963,-0.3871 -3.65794,-7.0783 5.25138,2.09932 z m -10.80792,-11.26466 7.63743,-0.49974 -0.96261,4.09624 z m -15.12127,0.13313 5.37631,-6.67072 8.61849,6.24471 z m -0.31746,-0.15975 -2.76906,-7.25239 8.09008,0.6513 z m -0.36047,0.0328 -7.07216,-2.86737 4.33587,-4.30105 z m -15.88931,1.21453 3.04146,-8.77414 5.16331,4.71067 z m -8.15766,8.69837 2.22631,-9.11618 5.28619,0.87864 z m -3.30567,7.78285 -2.85507,-4.48333 5.51763,-2.35534 z m -0.15156,0.40963 -2.44136,7.78285 -0.32769,-12.13716 z m -2.81207,9.01172 -1.99077,7.78285 -3.12338,-7.78285 z m -5.19403,-0.33999 0.1659,-7.63743 4.93392,7.63129 z m 7.86888,7.16842 -1.98873,7.2442 -2.41678,-5.64667 z m 7.93851,14.10745 -6.00713,0.84997 -3.43265,-6.70145 z m 0.3277,0.30312 0.0389,4.25599 -5.93954,-3.41831 z m 10.01735,3.17868 -3.04965,6.35327 -6.33688,-4.87863 z m 0.35638,0.0635 8.02453,7.4101 -11.10286,-0.99949 z m 0.39323,-0.10855 8.80692,0.10036 -0.80286,7.28516 z m 17.68552,-3.4818 0.33589,8.22934 -8.63078,-4.80694 z m 0.35023,0.0307 8.7045,4.32153 -8.36861,3.91191 z m 13.5012,-8.43416 4.32153,6.7588 -8.39729,5.57907 z m 0.30107,-0.17614 8.31947,1.22888 -4.06142,5.42751 z m 0.15361,-0.3277 8.90113,-5.32511 -0.57962,6.55399 z m 11.75621,-12.69833 1.57091,5.49919 -3.94263,1.27393 z m -2.10137,-9.38039 4.50586,5.67739 -2.31437,2.73219 z m -4.21913,-10.34096 5.85558,4.28877 -2.0133,4.8479 z m -6.03376,-2.94724 0.94419,-4.02455 4.21503,6.08701 z m -7.4613,-4.06756 -1.02406,-6.14436 8.80692,5.64052 z m -0.38709,-0.20482 -8.39729,-6.08086 7.37323,-0.0471 z m -17.07108,-7.08239 5.47872,-3.36302 2.35329,3.99384 z m -5.26162,4.5714 -5.07319,-4.62875 9.38244,0.35227 z m -8.92366,4.40141 -5.26776,-0.8766 8.25597,-7.74189 z m -8.17199,8.86221 -5.39065,-4.37683 7.64972,-4.87043 z m -0.22939,0.26216 -5.56884,2.37582 0.27035,-6.67892 z m -5.57089,15.83606 -5.00355,-7.73984 4.65742,-5.02199 z m -2.16896,9.1428 -0.94828,4.73525 -1.87403,-11.75824 z m 0.24168,0.56528 2.3451,5.47463 -3.34253,-0.46697 z m 6.08292,12.81918 -3.53506,-0.68612 0.2253,-5.77979 z m 6.67892,4.09624 -2.511,2.41474 -3.37325,-5.79823 z m 0.29902,0.19253 6.03171,4.65128 -8.53861,-2.23245 z m 19.67833,-1.44598 8.60211,4.77622 -9.42135,2.52943 z m 17.80431,0.94009 -0.47107,6.00714 -7.76442,-2.15667 z m 8.63897,-5.68353 -4.78031,8.38295 -3.37735,-2.96158 z m 4.71067,-5.91907 0.0246,4.38298 -3.82384,0.73118 z m 0.95852,-7.46539 3.89143,-1.25755 -4.43213,7.45925 z m 2.69738,-7.70912 2.20787,-2.60316 -0.70865,7.80947 z m -2.47618,-9.59749 1.98258,-4.77417 2.56834,10.50481 z m -4.21708,-10.11771 1.39272,-2.43112 4.1966,6.52531 z m -0.24168,-0.2765 -4.12081,-5.93954 5.51353,3.51457 z m -13.82276,-12.5734 4.16997,-0.44444 4.21913,5.8187 z m -8.46897,-0.24578 -2.29594,-3.90166 9.38858,3.85865 z m -8.72909,-0.76599 -1.84331,-3.24013 7.24625,-0.0737 z m -0.36866,0.0553 -9.12642,-0.34204 7.27287,-2.90628 z m -18.43308,7.52888 3.277,-7.07625 4.73934,-0.43215 z m -0.58781,0.4424 -2.98615,-2.86737 6.30411,-4.31334 z m -0.22324,0.26625 -7.42853,4.72911 4.43827,-7.60876 z m -8.39729,12.27438 -3.72758,-2.0051 3.99383,-4.5284 z m -0.11674,0.32975 -4.53045,4.88067 0.78648,-6.89192 z m -5.12645,13.68759 -1.91499,1.56476 2.06246,-8.30513 z m 0.0471,0.40962 1.9539,12.26004 -4.00407,-10.58058 z m 6.05014,14.60104 -0.22324,5.76136 -3.12134,-6.23038 z m 3.84432,7.37323 3.18688,5.47053 -6.5417,-6.11159 z m 13.407,9.05269 -0.13723,3.16434 -8.33994,-5.38041 z m 0.34203,0.13517 4.32973,2.02355 -4.4649,1.09164 z m 11.52887,1.00768 0.13517,4.43827 -6.28977,-3.29132 z m 9.94362,-2.66256 -2.55196,6.00714 -6.74651,-3.50843 z m 0.40962,-0.0533 7.76033,2.15462 -10.30614,3.84432 z m 8.97896,-4.02455 3.28723,2.86736 -3.74601,2.91653 z m 8.92161,-6.1546 3.78902,-0.72504 -8.30717,8.63487 z m 4.46285,-1.67536 -0.0266,-4.27443 3.49614,-2.13619 z m 0.30722,-4.88477 4.23961,-7.12336 -0.78034,5.01584 z m 5.41113,-15.40185 0.49565,5.24318 -1.12237,1.55042 z m -2.58473,-13.1305 0.96876,0.90937 0.97081,7.02505 z m -4.91548,-8.01224 0.91141,-0.45878 2.63798,5.97846 z m -6.38399,-4.18636 1.60163,-2.29185 3.9201,5.81462 z m -0.24987,-0.24987 -4.17407,-5.75931 5.77979,3.46337 z m -9.40292,-6.02966 -0.0266,-2.50281 4.02251,2.0768 z m -0.34818,-0.0676 -9.19401,-3.77673 9.16738,1.20634 z m -18.18526,-4.22118 1.46441,-1.25549 4.852,1.19405 z m -7.98766,2.99845 2.84484,-3.07218 3.93648,0.35433 z m -0.73528,0.28264 -4.30105,0.39119 7.07626,-3.3712 z m -11.85042,4.95235 0.47517,-1.06707 3.95492,-1.96414 z m -5.19198,8.36043 -0.28879,-2.79159 4.30106,-4.09624 z m -0.29903,0.49155 -3.56782,4.04503 3.28723,-6.75879 z m -5.31487,12.64099 -2.27751,0.42396 3.00869,-6.83048 z m -0.0758,0.36866 -2.17715,8.7762 -0.13927,-8.34609 z m 1.91909,21.85139 -2.58882,-2.13005 -1.24116,-7.98767 z m 3.62927,7.37323 -1.65283,-0.54276 -1.10599,-4.9544 z m 7.06806,6.81614 -5.48486,-2.97387 -0.88274,-2.96568 z m 1.00358,0.94213 2.37787,3.03122 -7.27083,-5.69582 z m 0.88888,0.57143 7.56371,4.88067 -4.95031,-1.54838 z m 13.87601,4.34611 5.87811,3.07218 -10.21807,-2.0133 z m 7.05578,-1.16948 6.57856,3.42241 -6.44544,1.02406 z m 17.46636,-0.15975 -2.66256,2.30618 -6.01123,0.9319 z m 4.93597,-3.45313 0.22324,1.43368 -3.45313,1.06707 z m 8.96052,-9.24931 -3.54325,6.3205 -4.5202,2.07884 z m 0.99129,-1.05273 2.37787,-4.39322 -2.54172,6.02762 z m 5.02609,-13.53807 0.89707,-1.24116 -1.43368,4.74754 z m 0.8643,-9.364 -0.0123,-0.0922 0.0901,-1.17562 0.0901,3.04556 z m -0.23963,-1.73066 -0.89707,-6.50893 1.11213,3.68662 z m -2.66255,-10.15048 -1.6385,-3.71734 2.2939,4.33177 z m -4.94416,-7.67635 -3.27699,-4.8561 4.17816,4.40346 z m -10.94106,-10.48023 0.21915,-0.15771 2.511,1.7962 z m -0.33179,-0.19048 -1.70199,-0.87864 1.89246,0.74347 z m -14.36961,-3.72143 3.19097,-0.6554 4.80079,1.70813 z m -1.04045,-0.13927 -4.34406,-1.06912 7.28312,0.46287 z m -8.22934,0.0799 -3.38759,-0.30517 4.7414,-0.85611 z m -11.95487,3.02712 1.93752,-1.45211 3.12543,-0.96262 z m -1.59139,0.75781 -1.68151,0.83563 2.58473,-1.51151 z m -7.05373,4.83766 -1.99487,1.90475 2.27956,-2.54377 z m -9.34352,13.44181 -0.88683,0.3277 3.44698,-5.59752 z m -1.15514,0.79671 0.95647,-0.35432 -2.41883,5.4951 z m -2.38196,14.26106 0.0491,3.05784 -0.17614,0.55709 z m 0.1659,3.84022 0.87249,5.62209 -1.20224,-4.58779 z m 4.55297,11.62922 1.12032,5.0179 -3.57807,-7.03939 z m 3.59445,7.16842 0.77828,2.6175 -2.31642,-3.12338 z m 17.37624,13.47048 0.32361,0.51818 -3.39988,-1.47874 z m 0.8725,0.73733 -0.40962,-0.63492 7.39576,1.45621 z m 18.11767,0.61443 -0.77829,0.8807 -4.05937,-0.11265 z m 0.53865,-0.084 4.83971,-0.75166 -5.5586,1.56476 z m 11.18274,-4.18021 2.83869,-0.8766 -4.99741,2.75882 z m 4.54682,-1.88222 -0.22324,-1.43369 4.14744,-1.9068 z m 8.98306,-10.76902 -0.19458,1.93548 -2.72809,3.25446 z m 4.49152,-8.25392 0.70046,-0.33794 -3.2094,6.30411 z m 0.9319,-0.83563 -0.78648,0.38095 1.58115,-5.20222 z"
         id="path4915"
         style="fill:url(#a-7);stroke-width:2.04812" />
      <path
         d="m 459.73794,144.72931 v -0.0164 L 459.38156,132.969 v -0.041 l -1.76548,-5.85968 v -0.0123 l -5.05066,-9.53195 -5.82076,-6.15255 h -0.0123 l -6.13207,-4.37684 h -0.0246 l -5.32511,-2.08908 h -0.0369 l -6.39013,-2.27341 h -0.043 l -10.52119,-0.66974 h -0.0451 l -6.63591,1.19815 h -0.0246 l -5.40908,1.66308 h -0.0348 l -9.60568,5.58727 -6.00099,6.6953 -5.52992,8.9892 v 0.0225 l -2.1792,7.65177 v 0.0287 l -0.40963,11.61078 v 0.0553 l 2.07475,7.90984 v 0.0266 l 4.57755,9.01173 v 0.0143 l 3.16639,4.4608 v 0.0102 l 4.4649,4.09624 h 0.0123 l 5.57703,3.77264 h 0.0123 l 6.87758,2.99025 h 0.043 l 11.50839,1.34971 h 0.0164 l 6.00919,0.16795 h 0.0471 l 8.89294,-2.5069 h 0.0307 l 7.9467,-4.3625 0.0143,-0.0102 h 0.0102 l 5.1203,-4.36249 3.96516,-4.73321 0.0143,-0.0205 5.60775,-10.97792 v -0.043 l 1.22887,-7.50636 v -0.0184 z m -62.80969,26.02341 -1.15719,-1.06092 2.60112,2.03788 z m 16.8806,4.4096 -4.06551,-1.90065 9.62616,0.86635 z m 1.48079,-34.61321 -10.6707,1.12237 6.58061,-11.05985 z m -3.72348,-9.96001 13.03833,6.53146 -8.96871,3.34662 z m 3.82179,10.29795 1.24116,9.83097 -11.87909,-8.71884 z m 1.08551,10.15457 -12.90316,4.05937 0.86636,-12.90315 z m -0.71685,-9.99072 9.99688,6.63795 -8.75776,3.17868 z m 0.15976,-0.31132 8.97076,-3.35482 1.0384,10.00301 z m 13.78179,-11.55344 8.31332,-3.9242 -0.93804,9.33738 z m 7.0906,5.63438 -11.42851,2.08908 4.05937,-7.50226 z m -11.75416,1.96005 -7.43468,-13.6712 11.53296,6.11568 z m -0.40963,-0.0389 -13.12435,-6.57446 5.64052,-7.16842 z m -20.26614,4.69429 -1.67332,-6.38603 8.07574,-4.37069 z m -1.10599,13.34964 -6.38194,-10.46794 7.22987,-2.19762 z m 13.024,-3.3159 -6.48845,6.93083 -5.93954,-3.01893 z m 9.60773,-3.45518 -2.31438,8.33585 -6.37989,-5.18584 z m -0.62673,-10.47818 9.64665,7.60876 -8.60211,2.36968 z m 0.19252,-0.29083 11.55345,-2.10956 -1.84331,9.77157 z m 11.97126,-2.57039 0.92575,-9.23497 5.3374,7.25034 z m 6.3799,-1.65898 0.29493,10.57445 -6.58676,-8.57958 z m -14.25287,-4.13925 0.2212,-7.84839 8.05116,3.94263 z m -0.34818,0 -11.48995,-6.0952 11.7132,-1.81873 z m -17.89237,0.97696 -2.15258,-7.83611 7.6825,0.81925 z m -0.28059,0.29288 -8.15357,4.4055 5.9969,-12.2498 z m -6.94518,11.61693 -7.07625,2.15053 5.40908,-8.52223 z m -1.28007,12.95026 -8.83969,-6.25906 2.63593,-3.91395 z m 0.71274,0.88888 5.93955,3.01893 -7.30359,4.0348 z m 13.35579,-4.26009 6.37785,5.19403 -12.9605,1.84331 z m 9.35991,-3.27699 9.42135,9.10184 -11.75416,-0.67383 z m 0.24987,-0.24168 8.63897,-2.37582 0.77623,11.48176 z m 10.83865,-12.49352 6.64205,8.6533 -8.46693,1.02406 z m 6.83048,-2.25293 5.6057,3.17663 -5.32511,7.3507 z m 0.0594,-0.36457 3.48181,-5.7163 2.0645,8.85607 z m -0.25601,-0.24987 -5.3415,-7.25444 8.86222,1.46441 z m -14.04396,-11.7603 6.27339,-5.67944 1.8003,9.63641 z m -12.4157,1.74909 3.98154,-7.06396 7.66816,5.25547 z m -8.31127,-0.78647 4.50586,-9.17558 3.22374,9.99482 z m -6.71783,12.93387 -5.46848,-9.13052 11.59031,-3.37939 z m -5.78799,9.18172 -2.64617,-10.63998 8.172,1.93547 z m -2.91447,4.3461 -2.42498,-6.02146 5.00766,2.19148 z m 9.43159,7.29131 -1.36405,7.07216 -7.57804,-13.4029 z m 6.52326,3.45108 2.07474,7.00867 -9.44592,-2.93701 z m 13.7224,-2.0133 -2.05836,9.11004 -11.07828,-7.24625 z m 12.23547,0.65745 -5.32511,4.82332 -6.19556,-5.48487 z m -0.19253,-11.84018 8.19248,8.28669 -7.42853,3.15001 z m 0.16795,-0.32361 8.45259,-1.02406 -0.28674,9.28618 z m 14.29588,-8.76389 3.3753,11.3691 -8.77415,-3.90371 z m -1.915,-9.60978 5.5074,4.17612 -3.44289,4.64103 z m -9.47869,-2.1239 5.1203,-5.85557 3.77468,7.32407 z m -0.23144,-0.26421 -1.78801,-9.57086 6.89397,3.72143 z m -8.73523,-4.05528 -7.63539,-5.23089 13.87806,-0.42192 z m -12.37679,1.72043 -3.20121,-9.92519 7.15818,2.90218 z m -8.32356,-0.77419 -3.70505,-5.02609 8.16586,-4.04504 z m -0.25601,0.23758 -11.35478,3.30976 7.6272,-8.36247 z m -6.51097,12.98303 -8.09008,-1.91704 2.73629,-7.023 z m -5.76751,9.21654 -5.1203,-2.24269 2.54581,-8.12489 z m -2.85508,4.47923 -4.4055,1.61187 1.96414,-7.68044 z m 7.92418,14.08697 -9.69171,-6.00714 2.04812,-7.52479 z m 9.86989,3.60469 -9.16944,1.45416 -0.0389,-4.31744 z m -1.16743,-7.06807 10.7813,7.04963 -8.72294,-0.0983 z m 13.64662,-2.04811 6.257,5.54221 -8.28669,3.44084 z m 12.26414,0.70045 3.30771,9.16739 -8.67583,-4.30106 z m 0.29493,-0.20481 7.37323,-3.12953 -4.06757,12.31944 z m 8.13103,-13.0752 8.7721,3.90372 -9.05064,5.41933 z m 5.87196,-7.75417 5.73474,4.0819 -2.45775,6.99023 z m -0.0635,-0.47312 3.44699,-4.64513 2.27136,8.7168 z m -2.30209,-9.67531 1.58525,-4.96669 3.81155,9.06907 z m -0.23963,-0.3871 -3.65794,-7.0783 5.25138,2.09932 z m -10.80792,-11.26466 7.63743,-0.49974 -0.96261,4.09624 z m -15.12127,0.13313 5.37631,-6.67072 8.61849,6.24471 z m -0.31746,-0.15975 -2.76906,-7.25239 8.09008,0.6513 z m -0.36047,0.0328 -7.07216,-2.86737 4.33587,-4.30105 z m -15.88931,1.21453 3.04146,-8.77414 5.16331,4.71067 z m -8.15766,8.69837 2.22631,-9.11618 5.28619,0.87864 z m -3.30567,7.78285 -2.85507,-4.48333 5.51763,-2.35534 z m -0.15156,0.40963 -2.44136,7.78285 -0.32769,-12.13716 z m -2.81207,9.01172 -1.99077,7.78285 -3.12338,-7.78285 z m -5.19403,-0.33999 0.1659,-7.63743 4.93392,7.63129 z m 7.86888,7.16842 -1.98873,7.2442 -2.41678,-5.64667 z m 7.93851,14.10745 -6.00713,0.84997 -3.43265,-6.70145 z m 0.3277,0.30312 0.0389,4.25599 -5.93954,-3.41831 z m 10.01735,3.17868 -3.04965,6.35327 -6.33688,-4.87863 z m 0.35638,0.0635 8.02453,7.4101 -11.10286,-0.99949 z m 0.39323,-0.10855 8.80692,0.10036 -0.80286,7.28516 z m 17.68552,-3.4818 0.33589,8.22934 -8.63078,-4.80694 z m 0.35023,0.0307 8.7045,4.32153 -8.36861,3.91191 z m 13.5012,-8.43416 4.32153,6.7588 -8.39729,5.57907 z m 0.30107,-0.17614 8.31947,1.22888 -4.06142,5.42751 z m 0.15361,-0.3277 8.90113,-5.32511 -0.57962,6.55399 z m 11.75621,-12.69833 1.57091,5.49919 -3.94263,1.27393 z m -2.10137,-9.38039 4.50586,5.67739 -2.31437,2.73219 z m -4.21913,-10.34096 5.85558,4.28877 -2.0133,4.8479 z m -6.03376,-2.94724 0.94419,-4.02455 4.21503,6.08701 z m -7.4613,-4.06756 -1.02406,-6.14436 8.80692,5.64052 z m -0.38709,-0.20482 -8.39729,-6.08086 7.37323,-0.0471 z m -17.07108,-7.08239 5.47872,-3.36302 2.35329,3.99384 z m -5.26162,4.5714 -5.07319,-4.62875 9.38244,0.35227 z m -8.92366,4.40141 -5.26776,-0.8766 8.25597,-7.74189 z m -8.17199,8.86221 -5.39065,-4.37683 7.64972,-4.87043 z m -0.22939,0.26216 -5.56884,2.37582 0.27035,-6.67892 z m -5.57089,15.83606 -5.00355,-7.73984 4.65742,-5.02199 z m -2.16896,9.1428 -0.94828,4.73525 -1.87403,-11.75824 z m 0.24168,0.56528 2.3451,5.47463 -3.34253,-0.46697 z m 6.08292,12.81918 -3.53506,-0.68612 0.2253,-5.77979 z m 6.67892,4.09624 -2.511,2.41474 -3.37325,-5.79823 z m 0.29902,0.19253 6.03171,4.65128 -8.53861,-2.23245 z m 19.67833,-1.44598 8.60211,4.77622 -9.42135,2.52943 z m 17.80431,0.94009 -0.47107,6.00714 -7.76442,-2.15667 z m 8.63897,-5.68353 -4.78031,8.38295 -3.37735,-2.96158 z m 4.71067,-5.91907 0.0246,4.38298 -3.82384,0.73118 z m 0.95852,-7.46539 3.89143,-1.25755 -4.43213,7.45925 z m 2.69738,-7.70912 2.20787,-2.60316 -0.70865,7.80947 z m -2.47618,-9.59749 1.98258,-4.77417 2.56834,10.50481 z m -4.21708,-10.11771 1.39272,-2.43112 4.1966,6.52531 z m -0.24168,-0.2765 -4.12081,-5.93954 5.51353,3.51457 z m -13.82276,-12.5734 4.16997,-0.44444 4.21913,5.8187 z m -8.46897,-0.24578 -2.29594,-3.90166 9.38858,3.85865 z m -8.72909,-0.76599 -1.84331,-3.24013 7.24625,-0.0737 z m -0.36866,0.0553 -9.12642,-0.34204 7.27287,-2.90628 z m -18.43308,7.52888 3.277,-7.07625 4.73934,-0.43215 z m -0.58781,0.4424 -2.98615,-2.86737 6.30411,-4.31334 z m -0.22324,0.26625 -7.42853,4.72911 4.43827,-7.60876 z m -8.39729,12.27438 -3.72758,-2.0051 3.99383,-4.5284 z m -0.11674,0.32975 -4.53045,4.88067 0.78648,-6.89192 z m -5.12645,13.68759 -1.91499,1.56476 2.06246,-8.30513 z m 0.0471,0.40962 1.9539,12.26004 -4.00407,-10.58058 z m 6.05014,14.60104 -0.22324,5.76136 -3.12134,-6.23038 z m 3.84432,7.37323 3.18688,5.47053 -6.5417,-6.11159 z m 13.407,9.05269 -0.13723,3.16434 -8.33994,-5.38041 z m 0.34203,0.13517 4.32973,2.02355 -4.4649,1.09164 z m 11.52887,1.00768 0.13517,4.43827 -6.28977,-3.29132 z m 9.94362,-2.66256 -2.55196,6.00714 -6.74651,-3.50843 z m 0.40962,-0.0533 7.76033,2.15462 -10.30614,3.84432 z m 8.97896,-4.02455 3.28723,2.86736 -3.74601,2.91653 z m 8.92161,-6.1546 3.78902,-0.72504 -8.30717,8.63487 z m 4.46285,-1.67536 -0.0266,-4.27443 3.49614,-2.13619 z m 0.30722,-4.88477 4.23961,-7.12336 -0.78034,5.01584 z m 5.41113,-15.40185 0.49565,5.24318 -1.12237,1.55042 z m -2.58473,-13.1305 0.96876,0.90937 0.97081,7.02505 z m -4.91548,-8.01224 0.91141,-0.45878 2.63798,5.97846 z m -6.38399,-4.18636 1.60163,-2.29185 3.9201,5.81462 z m -0.24987,-0.24987 -4.17407,-5.75931 5.77979,3.46337 z m -9.40292,-6.02966 -0.0266,-2.50281 4.02251,2.0768 z m -0.34818,-0.0676 -9.19401,-3.77673 9.16738,1.20634 z m -18.18526,-4.22118 1.46441,-1.25549 4.852,1.19405 z m -7.98766,2.99845 2.84484,-3.07218 3.93648,0.35433 z m -0.73528,0.28264 -4.30105,0.39119 7.07626,-3.3712 z m -11.85042,4.95235 0.47517,-1.06707 3.95492,-1.96414 z m -5.19198,8.36043 -0.28879,-2.79159 4.30106,-4.09624 z m -0.29903,0.49155 -3.56782,4.04503 3.28723,-6.75879 z m -5.31487,12.64099 -2.27751,0.42396 3.00869,-6.83048 z m -0.0758,0.36866 -2.17715,8.7762 -0.13927,-8.34609 z m 1.91909,21.85139 -2.58882,-2.13005 -1.24116,-7.98767 z m 3.62927,7.37323 -1.65283,-0.54276 -1.10599,-4.9544 z m 7.06806,6.81614 -5.48486,-2.97387 -0.88274,-2.96568 z m 1.00358,0.94213 2.37787,3.03122 -7.27083,-5.69582 z m 0.88888,0.57143 7.56371,4.88067 -4.95031,-1.54838 z m 13.87601,4.34611 5.87811,3.07218 -10.21807,-2.0133 z m 7.05578,-1.16948 6.57856,3.42241 -6.44544,1.02406 z m 17.46636,-0.15975 -2.66256,2.30618 -6.01123,0.9319 z m 4.93597,-3.45313 0.22324,1.43368 -3.45313,1.06707 z m 8.96052,-9.24931 -3.54325,6.3205 -4.5202,2.07884 z m 0.99129,-1.05273 2.37787,-4.39322 -2.54172,6.02762 z m 5.02609,-13.53807 0.89707,-1.24116 -1.43368,4.74754 z m 0.8643,-9.364 -0.0123,-0.0922 0.0901,-1.17562 0.0901,3.04556 z m -0.23963,-1.73066 -0.89707,-6.50893 1.11213,3.68662 z m -2.66255,-10.15048 -1.6385,-3.71734 2.2939,4.33177 z m -4.94416,-7.67635 -3.27699,-4.8561 4.17816,4.40346 z m -10.94106,-10.48023 0.21915,-0.15771 2.511,1.7962 z m -0.33179,-0.19048 -1.70199,-0.87864 1.89246,0.74347 z m -14.36961,-3.72143 3.19097,-0.6554 4.80079,1.70813 z m -1.04045,-0.13927 -4.34406,-1.06912 7.28312,0.46287 z m -8.22934,0.0799 -3.38759,-0.30517 4.7414,-0.85611 z m -11.95487,3.02712 1.93752,-1.45211 3.12543,-0.96262 z m -1.59139,0.75781 -1.68151,0.83563 2.58473,-1.51151 z m -7.05373,4.83766 -1.99487,1.90475 2.27956,-2.54377 z m -9.34352,13.44181 -0.88683,0.3277 3.44698,-5.59752 z m -1.15514,0.79671 0.95647,-0.35432 -2.41883,5.4951 z m -2.38196,14.26106 0.0491,3.05784 -0.17614,0.55709 z m 0.1659,3.84022 0.87249,5.62209 -1.20224,-4.58779 z m 4.55297,11.62922 1.12032,5.0179 -3.57807,-7.03939 z m 3.59445,7.16842 0.77828,2.6175 -2.31642,-3.12338 z m 17.37624,13.47048 0.32361,0.51818 -3.39988,-1.47874 z m 0.8725,0.73733 -0.40962,-0.63492 7.39576,1.45621 z m 18.11767,0.61443 -0.77829,0.8807 -4.05937,-0.11265 z m 0.53865,-0.084 4.83971,-0.75166 -5.5586,1.56476 z m 11.18274,-4.18021 2.83869,-0.8766 -4.99741,2.75882 z m 4.54682,-1.88222 -0.22324,-1.43369 4.14744,-1.9068 z m 8.98306,-10.76902 -0.19458,1.93548 -2.72809,3.25446 z m 4.49152,-8.25392 0.70046,-0.33794 -3.2094,6.30411 z m 0.9319,-0.83563 -0.78648,0.38095 1.58115,-5.20222 z"
         id="path4917"
         style="fill:url(#radialGradient3770);stroke-width:2.04812" />
      <path
         d="m 494.32044,112.88311 c -3.45313,-8.29898 -10.44541,-17.259506 -15.94257,-20.090007 a 82.262725,82.262725 0 0 1 8.03887,24.092027 c 0,-0.0184 0,0.0164 0.0123,0.0758 l 0.0143,0.084 a 71.792738,71.792738 0 0 1 -2.47413,53.57266 c -9.10594,19.52267 -31.15395,39.52871 -65.66476,38.55585 -37.27988,-1.05478 -70.12557,-28.69211 -76.25764,-64.88853 -1.11623,-5.7081 0,-8.60209 0.56118,-13.24109 a 59.137406,59.137406 0 0 0 -1.28622,10.9513 v 0.40962 a 79.483427,79.483427 0 0 0 157.79328,13.42337 c 0.13313,-1.02406 0.24168,-2.03787 0.36047,-3.06193 a 81.515162,81.515162 0 0 0 -5.15511,-39.88303 z"
         id="path4919"
         style="fill:url(#c-3);stroke-width:2.04812" />
      <path
         d="m 494.32044,112.88311 c -3.45313,-8.29898 -10.44541,-17.259506 -15.94257,-20.090007 a 82.262725,82.262725 0 0 1 8.03887,24.092027 c 0,-0.0184 0,0.0164 0.0123,0.0758 l 0.0143,0.084 a 71.792738,71.792738 0 0 1 -2.47413,53.57266 c -9.10594,19.52267 -31.15395,39.52871 -65.66476,38.55585 -37.27988,-1.05478 -70.12557,-28.69211 -76.25764,-64.88853 -1.11623,-5.7081 0,-8.60209 0.56118,-13.24109 a 59.137406,59.137406 0 0 0 -1.28622,10.9513 v 0.40962 a 79.483427,79.483427 0 0 0 157.79328,13.42337 c 0.13313,-1.02406 0.24168,-2.03787 0.36047,-3.06193 a 81.515162,81.515162 0 0 0 -5.15511,-39.88303 z"
         id="path4921"
         style="fill:url(#d-5);stroke-width:2.04812" />
      <path
         d="m 342.04684,144.28487 c 6.13207,36.19642 38.97776,63.83375 76.26583,64.88853 34.51081,0.9749 56.55882,-19.03318 65.66476,-38.55585 a 71.792738,71.792738 0 0 0 2.47413,-53.57266 v -0.0758 c 0,-0.0594 -0.0123,-0.0942 -0.0123,-0.0758 l 0.0164,0.13312 c 2.81821,18.38597 -6.54375,36.19846 -21.17961,48.24346 l -0.0451,0.1024 c -28.5344,23.18881 -55.82355,13.98661 -61.35347,10.22217 a 50.711442,50.711442 0 0 1 -1.15719,-0.57757 C 386.0937,167.08044 379.2243,151.94689 380.6969,138.97001 a 20.407464,20.407464 0 0 1 -18.82631,-11.82994 30.007001,30.007001 0 0 1 29.21847,-1.16948 39.604489,39.604489 0 0 0 29.83701,1.17153 c -0.0287,-0.64516 -13.85963,-6.14436 -19.25233,-11.44899 -2.8817,-2.83665 -4.24984,-4.20274 -5.46028,-5.22885 a 24.089983,24.089983 0 0 0 -2.04812,-1.55248 c -0.47312,-0.32155 -1.00358,-0.66973 -1.6385,-1.08755 -5.79618,-3.76444 -17.32299,-3.55553 -17.70394,-3.54734 h -0.0369 c -3.15206,-3.98769 -2.92881,-17.136618 -2.74858,-19.881098 a 14.242624,14.242624 0 0 0 -2.66255,1.40501 57.910583,57.910583 0 0 0 -7.76647,6.646148 69.636068,69.636068 0 0 0 -7.42853,8.90113 v 0.0123 -0.0123 a 66.950983,66.950983 0 0 0 -10.66456,24.04083 c -0.0369,0.17204 -2.85918,12.50172 -1.4685,18.89594 z"
         id="path4923"
         style="fill:url(#e-6);stroke-width:2.04812" />
      <path
         d="m 448.81736,112.96094 a 43.135448,43.135448 0 0 1 7.37323,9.62616 16.13099,16.13099 0 0 1 1.19406,0.9749 c 18.02345,16.58977 8.57547,40.03869 7.87297,41.70995 14.63586,-12.04499 23.99782,-29.85748 21.1796,-48.24345 -8.98715,-22.375705 -24.22311,-31.397672 -36.66134,-51.041189 a 98.092642,98.092642 0 0 1 -1.87198,-3.041458 24.059261,24.059261 0 0 1 -0.87455,-1.638496 14.402377,14.402377 0 0 1 -1.18791,-3.152056 0.20481196,0.20481196 0 0 0 -0.18023,-0.204812 0.26420743,0.26420743 0 0 0 -0.14951,0 l -0.0389,0.02048 -0.0594,0.02458 c -3.07218,1.464405 -21.2984,30.291691 3.40397,54.965391 z"
         id="path4925"
         style="fill:url(#f-2);stroke-width:2.04812" />
      <path
         d="m 418.24713,102.07723 10.52119,0.66973 6.39013,2.27342 5.32511,2.08908 6.13412,4.38093 5.77775,6.0911 2.00715,3.78698 a 48.048887,48.048887 0 0 1 1.29851,0.84587 c 0.17409,0.12084 0.3318,0.24168 0.4936,0.36252 a 43.135448,43.135448 0 0 0 -7.37323,-9.61592 C 424.11499,88.287239 442.34121,59.459953 445.41339,57.995548 l 0.041,-0.04506 C 425.49133,69.624771 418.7182,91.234484 418.09762,102.04446 v 0.0614 z"
         id="path4927"
         style="fill:url(#g-9);stroke-width:2.04812" />
      <path
         d="m 392.51046,107.82425 a 46.729898,46.729898 0 0 1 1.63849,1.08755 36.716641,36.716641 0 0 1 -0.22324,-19.399785 58.854766,58.854766 0 0 0 -19.12944,14.764895 c 0.39119,-0.008 11.91801,-0.2171 17.71419,3.54734 z"
         id="path4929"
         style="fill:url(#h-1);stroke-width:2.04812" />
      <path
         d="m 385.1065,149.58131 c 0,0 3.66819,-13.65481 26.26714,-13.65481 2.44341,0 9.42135,-6.81 9.55652,-8.78438 a 39.604489,39.604489 0 0 1 -29.837,-1.17153 30.007001,30.007001 0 0 0 -29.21848,1.16948 20.407464,20.407464 0 0 0 18.82632,11.82994 c -1.4726,12.97688 5.39679,28.11043 22.02343,36.0469 0.37276,0.17818 0.72094,0.37276 1.10189,0.54275 -9.70399,-5.01175 -17.71829,-14.48021 -18.71982,-25.97835 z"
         id="path4931"
         style="fill:url(#i-2);stroke-width:2.04812" />
      <path
         d="m 457.38874,123.55176 a 16.13099,16.13099 0 0 0 -1.19405,-0.9749 c -0.1618,-0.12084 -0.31951,-0.24168 -0.4936,-0.36252 a 27.457092,27.457092 0 0 0 -19.16221,-4.64718 c 28.58561,14.27539 20.91131,63.4323 -18.69728,61.57671 a 35.311631,35.311631 0 0 1 -10.34096,-1.99282 46.574241,46.574241 0 0 1 -2.33485,-0.95238 c -0.44649,-0.20481 -0.89503,-0.40962 -1.33947,-0.63901 l 0.0553,0.0348 c 5.52992,3.76444 32.81497,12.96664 61.33504,-10.23036 l 0.0451,-0.10241 c 0.70251,-1.67126 10.14229,-25.12632 -7.87297,-41.70995 z"
         id="path4933"
         style="fill:url(#j-7);stroke-width:2.04812" />
      <path
         d="m 494.31429,112.88106 c -3.45313,-8.30103 -10.44541,-17.259504 -15.94256,-20.092054 a 82.313928,82.313928 0 0 1 8.04501,24.094084 l 0.0164,0.13108 C 477.44803,94.640506 462.21002,85.618539 449.76769,65.972974 a 92.804397,92.804397 0 0 1 -1.87198,-3.03941 26.207739,26.207739 0 0 1 -0.8766,-1.638495 14.445388,14.445388 0 0 1 -1.18381,-3.143864 0.20481196,0.20481196 0 0 0 -0.18023,-0.204812 0.28264051,0.28264051 0 0 0 -0.14952,0 c -0.0123,0 -0.0287,0.01843 -0.041,0.02253 -0.0123,0.0041 -0.0389,0.02253 -0.0573,0.03072 l 0.0328,-0.04506 C 425.47699,69.628867 418.70795,91.30412 418.08533,102.1141 l 0.1618,-0.0287 10.52119,0.66974 5.92111,2.10546 5.79413,2.25294 6.13412,4.38092 5.7716,6.08701 c 0,0 1.98668,3.72758 2.0133,3.79107 a 27.196981,27.196981 0 0 0 -17.86984,-3.8054 c 28.58356,14.27539 20.9113,63.4323 -18.69728,61.57671 A 35.375122,35.375122 0 0 1 407.4945,177.1531 q -1.15924,-0.43421 -2.33486,-0.95852 a 29.574848,29.574848 0 0 1 -1.33947,-0.63902 l 0.0553,0.0348 a 46.729898,46.729898 0 0 1 -1.15719,-0.57552 c 0.37071,0.17614 0.72094,0.37071 1.10189,0.5407 -9.70399,-5.0097 -17.71828,-14.4802 -18.71981,-25.97835 0,0 3.66818,-13.6548 26.26713,-13.6548 2.44341,0 9.42135,-6.81 9.55653,-8.78439 -0.0287,-0.64516 -13.86167,-6.14436 -19.25232,-11.44899 -2.88171,-2.8346 -4.24985,-4.20274 -5.46234,-5.22885 a 23.348564,23.348564 0 0 0 -2.05836,-1.55042 36.749411,36.749411 0 0 1 -0.22324,-19.401841 58.873199,58.873199 0 0 0 -19.12944,14.766941 h -0.0369 c -3.15001,-3.98564 -2.92676,-17.134568 -2.74857,-19.881096 a 14.422858,14.422858 0 0 0 -2.66256,1.40501 57.802032,57.802032 0 0 0 -7.76647,6.648196 69.447641,69.447641 0 0 0 -7.42239,8.88884 66.996042,66.996042 0 0 0 -10.65227,24.05107 c -0.0389,0.17204 -0.0696,0.35023 -0.1065,0.52227 -0.14951,0.70046 -0.81925,4.24575 -0.91756,5.00765 0,0.0574 0,-0.0594 0,0 a 92.351763,92.351763 0 0 0 -1.17152,11.07623 v 0.40963 a 79.481379,79.481379 0 0 0 157.80147,13.42541 c 0.13518,-1.02406 0.24373,-2.04812 0.36252,-3.07217 a 81.529498,81.529498 0 0 0 -5.16331,-39.87484 z m -7.88321,4.07576 0.0123,0.086 z"
         id="path4935"
         style="fill:url(#linearGradient3772);stroke-width:2.04812" />
      <path
         d="m 420.93016,127.14212 c 0,0 -0.33589,0.13927 -0.95852,0.35227 -1.55247,2.62364 -7.07215,7.63335 -9.18172,7.6231 -22.59895,-0.0983 -26.32653,13.40699 -26.32653,13.40699 a 28.86415,28.86415 0 0 0 4.42804,12.97074 29.07101,29.07101 0 0 1 -3.78493,-11.91391 c 0,0 3.66819,-13.65481 26.26714,-13.65481 2.44341,0 9.42135,-6.81 9.55652,-8.78438 z"
         id="path4937"
         style="fill:url(#linearGradient3774);stroke-width:2.04812" />
      <path
         d="m 486.45156,117.04489 v -0.0758 c 0,-0.0594 -0.0123,-0.0942 0,-0.0758 0.0123,0.0184 0,0.045 0.0143,0.13312 a 79.33801,79.33801 0 0 0 -1.70813,-3.93239 c -0.20482,-0.4342 -0.40963,-0.83972 -0.62468,-1.26369 -0.39938,-0.81924 -0.79467,-1.63849 -1.20839,-2.40858 -0.25602,-0.48131 -0.52432,-0.93804 -0.78648,-1.40501 -0.38505,-0.68612 -0.766,-1.37634 -1.16128,-2.04812 -0.29084,-0.48336 -0.58986,-0.94624 -0.88479,-1.4173 -0.3871,-0.61444 -0.77214,-1.22887 -1.16743,-1.82693 -0.31336,-0.47311 -0.63492,-0.92984 -0.95238,-1.39067 -0.39528,-0.56938 -0.78852,-1.13875 -1.192,-1.693793 -0.3318,-0.458779 -0.66974,-0.907317 -1.00768,-1.355856 -0.40962,-0.534559 -0.80491,-1.069118 -1.21248,-1.593437 a 137.31618,137.31618 0 0 0 -1.05683,-1.333326 c -0.40963,-0.509981 -0.81925,-1.024059 -1.23911,-1.525849 q -0.54276,-0.657446 -1.09165,-1.308748 c -0.20481,-0.235534 -0.39529,-0.477212 -0.59601,-0.712746 l 0.25397,0.311314 C 463.9202,83.998477 456.44661,76.512598 449.77383,65.97707 a 96.599563,96.599563 0 0 1 -1.87198,-3.041458 24.059261,24.059261 0 0 1 -0.87454,-1.638495 16.280503,16.280503 0 0 1 -1.0937,-2.789539 c -0.0143,-0.0512 -0.0389,-0.129032 -0.0471,-0.169994 a 9.2575008,9.2575008 0 0 1 -0.0451,-0.184331 0.20481196,0.20481196 0 0 0 -0.18023,-0.204812 0.26420743,0.26420743 0 0 0 -0.14951,0 l -0.0389,0.02253 a 0.5529923,0.5529923 0 0 0 -0.0594,0.03072 2.3307601,2.3307601 0 0 0 -0.48131,0.354325 2.5806307,2.5806307 0 0 0 -0.1147,0.102406 7.6231013,7.6231013 0 0 0 -0.62877,0.665639 l -0.0225,0.02253 c -4.75368,5.58727 -16.91337,29.912789 2.68099,51.733459 -18.34501,-21.587184 -6.78337,-44.915269 -1.75933,-51.026858 a 17.63431,17.63431 0 0 0 0.98105,2.400397 23.528798,23.528798 0 0 0 0.87454,1.638495 c 0.61444,1.050686 1.24321,2.04812 1.87198,3.03941 12.44438,19.645565 27.68239,28.673677 36.66135,51.041196 0,-0.086 -0.0143,-0.1188 -0.0143,-0.13108 0,-0.0123 0,0.0164 0.0102,0.0758 l 0.0123,0.0758 a 71.794786,71.794786 0 0 1 -2.46594,53.58494 65.853191,65.853191 0 0 1 -12.62461,18.10129 65.978126,65.978126 0 0 0 13.58313,-19.06185 71.802978,71.802978 0 0 0 2.47413,-53.57266 z"
         id="path4939"
         style="fill:url(#m);stroke-width:2.04812" />
      <path
         d="m 445.41339,57.995548 0.041,-0.04506 c -17.98249,10.521191 -25.26151,29.09559 -26.98193,40.577349 a 58.723686,58.723686 0 0 1 24.00601,-37.046391 11.133578,11.133578 0 0 1 2.93496,-3.485899 z"
         id="path4941"
         style="fill:url(#n);stroke-width:2.04812" />
      <path
         d="m 465.21666,165.36412 0.0451,-0.10241 c 0.70251,-1.67126 10.14229,-25.12632 -7.87297,-41.70995 a 16.13099,16.13099 0 0 0 -1.19405,-0.9749 c -0.1618,-0.12084 -0.31951,-0.24168 -0.4936,-0.36252 a 27.737684,27.737684 0 0 0 -18.43307,-4.76188 h -0.006 a 17.638406,17.638406 0 0 0 -0.72299,0.11265 c 28.26201,14.11564 21.07925,62.32837 -17.3701,61.61153 l 0.31336,0.0184 c 38.97777,1.532 46.65822,-46.26906 19.57593,-61.2572 a 28.776081,28.776081 0 0 1 15.05163,4.34611 16.759763,16.759763 0 0 1 0.50589,0.34613 15.156085,15.156085 0 0 1 1.22887,0.92575 c 18.65223,15.86678 10.13819,39.67207 9.49918,41.37201 l -0.041,0.1065"
         id="path4943"
         style="fill:url(#o);stroke-width:2.04812" />
      <path
         d="m 391.30616,126.76526 a 39.702799,39.702799 0 0 0 28.73307,0.7066 39.708944,39.708944 0 0 1 -28.94607,-1.50127 30.195428,30.195428 0 0 0 -28.83957,0.92166 l -0.10446,0.0676 h -0.0102 l -0.086,0.0573 -0.0655,0.0451 -0.041,0.0287 h -0.0123 l -0.0287,0.0205 h -0.0102 l 0.0369,0.0881 v 0.0123 l 0.0451,0.10241 v 0.0205 l 0.0676,0.14746 v 0.0123 a 16.384957,16.384957 0 0 0 0.52227,0.99744 20.327587,20.327587 0 0 0 18.12995,10.44541 c -1.43368,12.58774 4.99332,27.20312 20.55493,35.31367 -14.87344,-8.57138 -21.12226,-24.12685 -19.38545,-36.49953 -11.48381,-0.30312 -16.61844,-7.18686 -18.08695,-10.10543 a 31.403818,31.403818 0 0 1 27.52673,-0.88069 z"
         id="path4945"
         style="fill:url(#p);stroke-width:2.04812" />
      <path
         d="m 394.1469,108.86879 -0.38914,-0.22734 0.40963,0.27035 z m -0.0819,-0.29083 a 36.778084,36.778084 0 0 1 -0.12903,-19.065945 57.931064,57.931064 0 0 0 -18.39212,13.949745 59.99352,59.99352 0 0 1 16.77206,-11.846326 37.232767,37.232767 0 0 0 1.74909,16.962526 z"
         id="path4947"
         style="fill:url(#q);stroke-width:2.04812" />
      <path
         d="m 343.96388,152.60433 -0.0635,-0.22734 a 73.498821,73.498821 0 0 1 -1.84331,-8.09212 34.336726,34.336726 0 0 1 0,-10.24059 67.563371,67.563371 0 0 0 -0.72709,7.9467 v 0.40963 a 79.413791,79.413791 0 0 0 53.33304,74.97756 80.335445,80.335445 0 0 1 -50.69915,-64.77384 z"
         id="path4949"
         style="fill:url(#r);stroke-width:2.04812" />
      <path
         d="m 343.32691,144.60438 c -1.39067,-6.39422 1.43369,-18.72186 1.4685,-18.89595 a 66.950983,66.950983 0 0 1 10.66456,-24.04902 v 0.0123 -0.0123 a 69.636068,69.636068 0 0 1 7.42034,-8.890885 57.910583,57.910583 0 0 1 7.76647,-6.646148 6.8366234,6.8366234 0 0 1 0.33589,-0.204812 c -0.0287,6.037857 0.31541,16.227255 3.11109,19.567735 h 0.0369 c 0.383,-0.0205 11.95078,-0.53046 17.8678,3.07218 0.65744,0.40962 1.19815,0.73527 1.6815,1.04454 a 24.427923,24.427923 0 0 1 2.10752,1.49718 c 1.24116,0.99538 2.65026,2.32461 5.61799,5.08343 4.30105,3.99588 13.65891,7.96923 17.70395,9.86169 -3.94059,-1.98462 -13.23905,-6.22628 -17.43155,-10.35324 -2.8817,-2.83665 -4.24985,-4.20274 -5.46029,-5.22885 a 24.089983,24.089983 0 0 0 -2.04812,-1.55247 c -0.47311,-0.32156 -1.00358,-0.66974 -1.63849,-1.08756 -5.79618,-3.76444 -17.323,-3.55553 -17.70395,-3.54734 h -0.0369 c -2.87966,-3.6436 -2.9411,-14.936935 -2.79364,-18.949202 0,-0.155657 0,-0.296977 0.0164,-0.430105 v -0.260111 c 0,-0.08602 0,-0.169994 0.0143,-0.241678 0,0 -0.0143,-0.01434 -0.0328,-0.01434 h -0.0717 l -0.0451,0.01638 -0.0655,0.02458 -0.0635,0.02663 -0.0758,0.03482 -0.0819,0.03891 -0.0819,0.04096 -0.10036,0.04915 -0.0799,0.04301 -0.11879,0.06144 -0.0676,0.03687 a 39.512324,39.512324 0 0 0 -1.76957,1.02406 57.910583,57.910583 0 0 0 -7.76647,6.646148 69.636068,69.636068 0 0 0 -7.42648,8.925708 v 0.0123 -0.0123 a 66.950983,66.950983 0 0 0 -10.66456,24.04083 c -0.0369,0.17204 -2.86737,12.49353 -1.4685,18.89594 5.21861,30.79553 29.7858,55.40369 59.97099,62.70114 -29.59738,-7.67431 -53.54604,-32.01416 -58.69092,-62.38163 z"
         id="path4951"
         style="fill:url(#s);stroke-width:2.04812" />
      <path
         d="m 494.32044,112.88311 a 48.673563,48.673563 0 0 0 -13.9477,-18.842703 l -0.14132,-0.100357 a 27.881053,27.881053 0 0 0 -0.47107,-0.323603 q -0.0881,-0.06144 -0.17818,-0.116743 -0.2253,-0.143369 -0.4424,-0.276496 l -0.17204,-0.102406 a 16.104365,16.104365 0 0 0 -0.58986,-0.325651 71.96478,71.96478 0 0 1 0.62673,1.259593 68.794291,68.794291 0 0 1 0.38095,0.78443 81.382034,81.382034 0 0 1 7.03119,22.045956 l 0.0164,0.13313 c 2.81821,18.38597 -6.54375,36.19846 -21.17961,48.24345 l -0.0451,0.10241 c -18.19344,14.79766 -35.88305,16.41158 -47.74576,14.66249 11.8197,2.20787 30.46373,1.27598 49.6669,-14.33684 l 0.043,-0.10241 c 14.63586,-12.04499 23.99987,-29.85748 21.18165,-48.24345 l -0.0164,-0.13313 a 79.751731,79.751731 0 0 0 -5.79413,-19.344485 52.558846,52.558846 0 0 1 8.69017,12.384975 79.090188,79.090188 0 0 1 7.34456,38.91427 c -0.0615,1.01382 -0.11265,2.02559 -0.19048,3.03122 a 79.118862,79.118862 0 0 1 -74.57613,69.21211 81.205896,81.205896 0 0 1 -15.69065,-0.63902 79.542822,79.542822 0 0 0 90.99386,-64.94178 c 0.13313,-1.02406 0.24168,-2.03787 0.36047,-3.06193 a 81.515162,81.515162 0 0 0 -5.15511,-39.88303 z m -7.86888,4.16178 v -0.0758 z"
         id="path4953"
         style="fill:url(#t);stroke-width:2.04812" />
    </g>
    <g
       style="fill:#dc3545"
       id="g3362"
       transform="matrix(1.4448847,0,0,1.4448847,622.35781,276.80728)" />
    <g
       transform="matrix(1.4448847,0,0,1.4448847,622.35781,276.80728)"
       id="g3366"
       style="fill:#dc3545" />
    <g
       style="fill:#dc3545"
       id="g3370"
       transform="matrix(1.4448847,0,0,1.4448847,622.35781,276.80728)" />
    <g
       transform="matrix(1.4448847,0,0,1.4448847,622.35781,276.80728)"
       id="g3374"
       style="fill:#dc3545" />
    <g
       style="fill:#dc3545"
       id="g3378"
       transform="matrix(1.4448847,0,0,1.4448847,622.35781,276.80728)" />
    <g
       transform="matrix(1.4448847,0,0,1.4448847,622.35781,276.80728)"
       id="g3382"
       style="fill:#dc3545" />
    <g
       style="fill:#dc3545"
       id="g3386"
       transform="matrix(1.4448847,0,0,1.4448847,622.35781,276.80728)" />
    <g
       style="fill:#dc3545"
       id="g3442"
       transform="matrix(1.4448847,0,0,1.4448847,622.35781,276.80728)" />
    <g
       transform="matrix(1.4448847,0,0,1.4448847,622.35781,276.80728)"
       id="g3446"
       style="fill:#dc3545" />
    <g
       style="fill:#dc3545"
       id="g3450"
       transform="matrix(1.4448847,0,0,1.4448847,622.35781,276.80728)" />
    <g
       transform="matrix(1.4448847,0,0,1.4448847,622.35781,276.80728)"
       id="g3454"
       style="fill:#dc3545" />
    <g
       style="fill:#dc3545"
       id="g3458"
       transform="matrix(1.4448847,0,0,1.4448847,622.35781,276.80728)" />
    <g
       transform="matrix(1.4448847,0,0,1.4448847,622.35781,276.80728)"
       id="g3462"
       style="fill:#dc3545" />
    <g
       style="fill:#dc3545"
       id="g3466"
       transform="matrix(1.4448847,0,0,1.4448847,622.35781,276.80728)" />
    <g
       transform="matrix(1.4448847,0,0,1.4448847,622.35781,276.80728)"
       id="g3470"
       style="fill:#dc3545" />
    <g
       style="fill:#dc3545"
       id="g3474"
       transform="matrix(1.4448847,0,0,1.4448847,622.35781,276.80728)" />
    <g
       transform="matrix(1.4448847,0,0,1.4448847,622.35781,276.80728)"
       id="g3478"
       style="fill:#dc3545" />
    <g
       style="fill:#dc3545"
       id="g3482"
       transform="matrix(1.4448847,0,0,1.4448847,622.35781,276.80728)" />
    <g
       transform="matrix(1.4448847,0,0,1.4448847,622.35781,276.80728)"
       id="g3486"
       style="fill:#dc3545" />
    <g
       style="fill:#dc3545"
       id="g3490"
       transform="matrix(1.4448847,0,0,1.4448847,622.35781,276.80728)" />
    <g
       transform="matrix(1.4448847,0,0,1.4448847,622.35781,276.80728)"
       id="g3494"
       style="fill:#dc3545" />
    <g
       style="fill:#dc3545"
       id="g3498"
       transform="matrix(1.4448847,0,0,1.4448847,622.35781,276.80728)" />
    <g
       transform="matrix(1.4448847,0,0,1.4448847,622.35781,276.80728)"
       id="g3502"
       style="fill:#dc3545" />
    <g
       style="fill:#dc3545"
       id="g3506"
       transform="matrix(1.4448847,0,0,1.4448847,622.35781,276.80728)" />
    <g
       transform="matrix(1.4448847,0,0,1.4448847,622.35781,276.80728)"
       id="g3510"
       style="fill:#dc3545" />
    <g
       style="fill:#dc3545"
       id="g3514"
       transform="matrix(1.4448847,0,0,1.4448847,622.35781,276.80728)" />
  </g>
</svg>
