<svg xmlns="http://www.w3.org/2000/svg" xmlns:xlink="http://www.w3.org/1999/xlink" width="324" height="234"><defs><linearGradient id="d"><stop offset="0" stop-color="#080a18"/><stop offset="1" stop-color="#1c2456"/></linearGradient><linearGradient id="k" x1="84.163" x2="91.018" y1="-3.604" y2="41.136" gradientTransform="matrix(1.4101 0 0 2.9748 338.747 57.928)" gradientUnits="userSpaceOnUse"><stop offset="0%" stop-color="#AAF2FF"/><stop offset="29%" stop-color="#0DF"/><stop offset="61%" stop-color="#0090ED"/><stop offset="89%" stop-color="#0250BB"/></linearGradient><linearGradient id="l" x1="59.667" x2="65.723" y1=".008" y2="30.05" gradientTransform="matrix(1.5725 0 0 2.6676 338.747 57.928)" gradientUnits="userSpaceOnUse"><stop offset="0%" stop-color="#AAF2FF"/><stop offset="29%" stop-color="#0DF"/><stop offset="74%" stop-color="#0090ED"/><stop offset="100%" stop-color="#0250BB"/></linearGradient><linearGradient id="a" x1="68.992" x2="17.022" y1="11.815" y2="66.148" gradientTransform="matrix(2.0161 0 0 2.0806 338.747 57.928)" gradientUnits="userSpaceOnUse"><stop offset="24%" stop-color="#80EBFF" stop-opacity=".5"/><stop offset="70%" stop-color="#0DF" stop-opacity="0"/></linearGradient><linearGradient id="b" x1="32.206" x2="25.121" y1="33.09" y2="60.567" gradientTransform="matrix(2.1102 0 0 1.9879 338.747 57.928)" gradientUnits="userSpaceOnUse"><stop offset="0%" stop-color="#BFF3FF" stop-opacity=".9"/><stop offset="100%" stop-color="#80EBFF" stop-opacity=".5"/></linearGradient><linearGradient id="r" x1="95.009" x2="93.769" y1="-.824" y2="57.468" gradientTransform="matrix(1.3164 0 0 3.1867 338.747 57.928)" gradientUnits="userSpaceOnUse"><stop offset="0%" stop-color="#BFF3FF"/><stop offset="100%" stop-color="#0DF" stop-opacity="0"/></linearGradient><linearGradient id="s" x1="56.137" x2="55.329" y1="-.637" y2="23.111" gradientTransform="matrix(1.6701 0 0 2.5117 338.747 57.928)" gradientUnits="userSpaceOnUse"><stop offset="0%" stop-color="#BFF3FF"/><stop offset="100%" stop-color="#AAF2FF" stop-opacity=".5"/></linearGradient><linearGradient id="t" x1="58.333" x2="56.716" y1="25.309" y2="64.108" gradientTransform="matrix(1.8256 0 0 2.2978 338.747 57.928)" gradientUnits="userSpaceOnUse"><stop offset="0%" stop-color="#BFF3FF"/><stop offset="100%" stop-color="#0DF" stop-opacity="0"/></linearGradient><linearGradient id="u" x1="23.729" x2="25.866" y1="33.093" y2="66.491" gradientTransform="matrix(2.1762 0 0 1.9276 338.747 57.928)" gradientUnits="userSpaceOnUse"><stop offset="0%" stop-color="#BFF3FF" stop-opacity=".8"/><stop offset="100%" stop-color="#80EBFF" stop-opacity=".2"/></linearGradient><linearGradient id="v" x1="29.195" x2="20.564" y1="12.975" y2="26.988" gradientTransform="matrix(2.0067 0 0 2.0904 338.747 57.928)" gradientUnits="userSpaceOnUse"><stop offset="0%" stop-color="#BFF3FF" stop-opacity=".8"/><stop offset="100%" stop-color="#80EBFF" stop-opacity=".2"/></linearGradient><linearGradient id="w" x1="18.502" x2="16.875" y1="29.406" y2="74.325" gradientTransform="matrix(1.6385 0 0 2.5602 338.747 57.928)" gradientUnits="userSpaceOnUse"><stop offset="0%" stop-color="#0DF" stop-opacity=".4"/><stop offset="100%" stop-color="#0DF" stop-opacity="0"/></linearGradient><linearGradient id="x" x1="25.578" x2="25.578" y1="4.555" y2="57.368" gradientTransform="matrix(1.6278 0 0 2.577 338.747 57.928)" gradientUnits="userSpaceOnUse"><stop offset="0%" stop-color="#BFF3FF"/><stop offset="100%" stop-color="#0DF" stop-opacity="0"/></linearGradient><linearGradient id="y" x1="68.299" x2="65.108" y1="12.778" y2="89.877" gradientTransform="matrix(1.7293 0 0 2.4258 338.747 57.928)" gradientUnits="userSpaceOnUse"><stop offset="0%" stop-color="#BFF3FF" stop-opacity=".8"/><stop offset="100%" stop-color="#0DF" stop-opacity="0"/></linearGradient><linearGradient xlink:href="#a" id="p" x1="68.992" x2="17.022" y1="11.815" y2="66.148" gradientTransform="matrix(2.0161 0 0 2.0806 338.747 57.928)" gradientUnits="userSpaceOnUse"/><linearGradient xlink:href="#b" id="q" x1="32.206" x2="25.121" y1="33.09" y2="60.567" gradientTransform="matrix(2.1102 0 0 1.9879 338.747 57.928)" gradientUnits="userSpaceOnUse"/><radialGradient id="f" cx="42.067" cy="30.945" r="22.655" fx="42.067" fy="30.945" gradientTransform="matrix(2.0487 0 0 2.0476 338.747 57.928)" gradientUnits="userSpaceOnUse"><stop offset="10%" stop-color="#0DF" stop-opacity=".4"/><stop offset="90%" stop-color="#7542E5" stop-opacity=".25"/></radialGradient><radialGradient id="c" cx="39.892" cy="41.404" r="19.257" fx="39.802" fy="41.404" gradientTransform="matrix(2.0487 0 0 2.0476 338.747 57.928)" gradientUnits="userSpaceOnUse"><stop offset="91%" stop-color="#7542E5" stop-opacity="0"/><stop offset="100%" stop-color="#0DF" stop-opacity=".4"/></radialGradient><radialGradient id="h" cx="61.2" cy="9.81" r="89.403" fx="61.2" fy="9.81" gradientTransform="matrix(2.2728 0 0 1.8456 338.747 57.928)" gradientUnits="userSpaceOnUse"><stop offset="0%" stop-color="#80EBFF"/><stop offset="26%" stop-color="#0DF"/><stop offset="53%" stop-color="#0090ED"/><stop offset="86%" stop-color="#0060DF"/></radialGradient><radialGradient id="i" cx="34.47" cy="46.829" r="89.403" fx="34.659" fy="46.829" gradientTransform="matrix(2.2728 0 0 1.8456 338.747 57.928)" gradientUnits="userSpaceOnUse"><stop offset="30%" stop-color="#321C64" stop-opacity=".8"/><stop offset="37%" stop-color="#212F83" stop-opacity=".5"/><stop offset="48%" stop-color="#0A47AC" stop-opacity=".14"/><stop offset="53%" stop-color="#0250BB" stop-opacity="0"/></radialGradient><radialGradient id="j" cx="61.192" cy="-19.16" r="139.74" fx="61.192" fy="-19.16" gradientTransform="matrix(2.2364 0 0 1.8757 338.747 57.928)" gradientUnits="userSpaceOnUse"><stop offset="0%" stop-color="#80EBFF"/><stop offset="47%" stop-color="#00B3F4"/><stop offset="84%" stop-color="#0060DF"/><stop offset="100%" stop-color="#592ACB"/></radialGradient><radialGradient id="m" cx="37.3" cy="5.563" r="28.381" fx="37.3" fy="5.563" gradientTransform="matrix(2.0456 0 0 2.0506 338.747 57.928)" gradientUnits="userSpaceOnUse"><stop offset="0%" stop-color="#0DF"/><stop offset="82%" stop-color="#0090ED"/></radialGradient><radialGradient id="n" cx="52.951" cy="21.181" r="85.36" fx="52.951" fy="21.181" gradientTransform="matrix(2.1655 0 0 1.9371 338.747 57.928)" gradientUnits="userSpaceOnUse"><stop offset="29%" stop-color="#80EBFF"/><stop offset="100%" stop-color="#00B3F4"/></radialGradient><radialGradient id="o" cx="36.139" cy="15.884" r="71.747" fx="36.139" fy="15.884" gradientTransform="matrix(2.0686 0 0 2.0278 338.747 57.928)" gradientUnits="userSpaceOnUse"><stop offset="18%" stop-color="#AAF2FF"/><stop offset="43%" stop-color="#0DF"/><stop offset="69%" stop-color="#0060DF"/></radialGradient><radialGradient xlink:href="#c" id="g" cx="39.892" cy="41.404" r="19.257" fx="39.802" fy="41.404" gradientTransform="matrix(2.0487 0 0 2.0476 338.747 57.928)" gradientUnits="userSpaceOnUse"/><radialGradient xlink:href="#d" id="e" cx="162" cy="117" r="162" fx="162" fy="117" gradientTransform="matrix(1 0 0 .7222 0 32.5)" gradientUnits="userSpaceOnUse"/></defs><path fill="url(#e)" d="M0 0h324v234H0z"/><path fill="#174dca" d="M314.294-.2H324v19.879z"/><path fill="#1e2776" d="M0 21.875V-.2h19.962z"/><path fill="#27267f" d="M0 92.306V35.829l41.61 47.043z"/><path fill="#2d2381" d="M45.833 234.48H0v-79.044l25.729 39.427z"/><path fill="#2f2485" d="M0 155.436V92.274l41.58-9.402-15.851 111.991z"/><path fill="#2a309a" d="M52.734-.2h78.133l-17.3 63.035z"/><path fill="#302b96" d="M36.821-.2h15.913l60.833 63.035-71.988 20.037z"/><path fill="#184dcd" d="M324 201.626v1.391l-1.134-.837z"/><path fill="#362896" d="M25.725 194.858 41.583 82.872l44.78 55.098z"/><path fill="#2648d3" d="M324 138.085v63.541l-1.134.554-7.043-66.733z"/><path fill="none" d="m323.995 138.094-8.177-2.642 8.176-4.618"/><path fill="#1653da" d="M324 82.65v48.182l-8.177 4.614z"/><path fill="#244ad7" d="M324 35.038v47.613l-8.177 52.795-52.246-98.685z"/><path fill="#2547cf" d="M324 19.679v15.36l-60.423 1.722L281.003-.201h33.291z"/><path fill="#2a41c6" d="M212.198-.2h24.326l27.053 36.96-64.504 34.971z"/><path fill="#2045c1" d="M236.524-.2h44.479l-17.426 36.96z"/><path fill="#2543c3" d="M142.447-.2h69.75l-13.123 71.93zM324 203.017v31.462h-10.525l9.39-32.3z"/><path fill="#2e37b2" d="M130.867-.2h11.58l56.626 71.931-85.506-8.896z"/><path fill="#2d40c7" d="m322.862 202.183-67.93-18.709 60.886-48.022z"/><path fill="#3537b8" d="M257.023 234.48H227.37l27.557-51.01 67.939 18.71z"/><path fill="#333cc5" d="m315.823 135.446 8.177 2.64-.006-7.252zm-34.583 4.816.006 7.251-8.183-2.633z"/><path fill="#333cc5" d="M315.818 135.452 199.073 71.737l55.859 111.737z"/><path fill="#09204d" d="m125.854 130.584 5.002 13.878 7.514 10.149 17.643 3.37 8.44.717 14.41-3.603 6.209-5.955z"/><path fill="#09204d" d="m200.523 110.112-1.768-5.866-5.05-9.54-5.778-6.097-6.135-4.384-5.325-2.091-6.39-2.276-10.52-.67-6.637 1.197-5.413 1.667-9.606 5.627-6.003 6.705-5.536 8.999-2.177 7.658-.408 11.62 2.077 7.923 4.58 9.02 3.228 4.356 4.467 4.1 5.577 3.775 6.877 2.995 11.509 1.351 6.01.168 8.894-2.507 7.95-4.368 5.115-4.368 3.967-4.736 5.608-10.987 1.237-7.517z"/><path fill="#0e56d7" d="m159.749 84.469-4.713 4.677 7.686 3.12 5.719-7.098z"/><path fill="#1053d1" d="m162.722 92.266 14.882-.453-9.163-6.645z"/><path fill="#0b4fbf" d="m176.498 85.118-8.057.05 9.163 6.645 8.473-.553z"/><path fill="#0b48b0" d="m186.077 91.26-4.817-6.648 6.667 3.997z"/><path fill="#0c45a7" d="m192.455 95.33-6.378-4.07 1.85-2.65z"/><path fill="#0f46af" d="m186.077 91.26-1.067 4.555 5.833 2.334z"/><path fill="#0c47ad" d="m186.077 91.26 6.378 4.07-1.612 2.82z"/><path fill="#0e4fc3" d="m177.604 91.813 8.473-.553-1.067 4.555z"/><path fill="#174dca" d="m177.604 91.813-6.695 6.068 8.616 4.223z"/><path fill="#1650d4" d="m162.722 92.266 14.882-.453-6.695 6.068z"/><path fill="#1246b2" d="m185.01 95.815 4.051 7.867 1.782-5.533z"/><path fill="#133ea1" d="m189.061 103.682 1.782-5.533 4.246 10.106z"/><path fill="#103d98" d="m190.843 98.15 6.47 4.743-2.224 5.362z"/><path fill="#0b3785" d="m192.455 95.33 1.25-.624 3.608 8.187z"/><path fill="#0b3685" d="m197.313 102.893 1.442 1.353-5.05-9.54z"/><path fill="#0c3b91" d="m197.313 102.893-4.858-7.562-1.612 2.818zm-9.386-14.284 4.528 6.722 1.25-.615z"/><path fill="#0b3279" d="m200.197 114.696-1.442-10.45 1.768 5.866-.349 4.584z"/><path fill="#0f388d" d="m197.313 102.893 2.884 11.803-1.442-10.45z"/><path fill="#0d3481" d="m195.089 108.255 5.108 6.44-2.884-11.802z"/><path fill="#0b2e71" d="m200.174 114.696.349-4.584.35 11.754-.676-7.17z"/><path fill="#0e2f77" d="m199.34 123.986 1.533-2.12-.676-7.17z"/><path fill="#0e2969" d="m199.636 129.383-1.225.59 2.462-8.107z"/><path fill="#0c2a69" d="m198.41 129.974 2.463-8.108-1.532 2.12z"/><path fill="#123180" d="m199.34 123.986.857-9.29-2.624 3.097z"/><path fill="#112b70" d="m198.41 129.974.93-5.988-5.06 8.513z"/><path fill="#12378c" d="m195.089 108.255 5.108 6.44-2.624 3.098z"/><path fill="#122e7b" d="m199.34 123.986-1.767-6.193-2.668 7.626z"/><path fill="#11296c" d="m194.028 140.37 4.383-10.396-4.1 7.578z"/><path fill="#142a72" d="m194.31 137.552 4.1-7.578-4.13 2.525z"/><path fill="#112768" d="m198.41 129.974-4.382 10.39 5.608-10.987zm-8.347 15.132 3.965-4.736.283-2.818zm-5.12 4.368 5.12-4.368-5.407 2.488z"/><path fill="#1c226a" d="m155.093 152.516-5.167 1.267.157-3.612z"/><path fill="#182b7a" d="m126.362 103.383 1.426-.53-3.603 8.188z"/><path fill="#1f308d" d="m124.185 111.04 2.728-.507.875-7.68z"/><path fill="#1e2b7f" d="m124.349 120.874-.164-9.833 2.728-.508z"/><path fill="#1346b5" d="m185.01 95.815-5.485 6.289 9.536 1.578zm-47.86-6.45 7-4.794-6.249 3.112z"/><path fill="#1244ac" d="m137.901 87.679 9.606-5.627-3.357 2.519-6.249 3.108"/><path fill="#0e4ab6" d="m144.15 84.571 8.77-4.186-5.413 1.667z"/><path fill="#0e4bba" d="m177.604 91.813 1.921 10.29 5.485-6.288zm-28.117-7.73 8.172-3.28-4.743-.426z"/><path fill="#0a4ebc" d="m159.556 79.188-6.636 1.197 4.744.427z"/><path fill="#0c54cc" d="m165.831 80.732-8.167.08 1.892-1.624"/><path fill="#0b4bb4" d="m181.26 84.608-4.762.506 9.58 6.15zm-15.429-3.876 10.636 1.402-6.39-2.276z"/><path fill="#0c3889" d="m181.26 84.612-4.793-2.478 5.325 2.09z"/><path fill="#202575" d="m125.854 130.584 3.152 2.59-4.649-12.3zm43.398 24.461 2.765-6.514-10.075 2.708zm2.765-6.514 8.422 2.339.51-6.519z"/><path fill="#1b2773" d="m184.656 147.594-3.707-3.243 8.956-5.957z"/><path fill="#15276d" d="m189.905 138.394-5.25 9.2 5.408-2.488 4.248-7.554z"/><path fill="#0c409d" d="m181.792 84.225-.532.387 6.667 3.997zm-5.294.893 4.762-.506-4.793-2.478z"/><path fill="#0b4cb7" d="m159.556 79.188 6.275 1.544 4.246-.874zm16.911 2.946-10.636-1.402 10.667 4.386z"/><path fill="#0b55ce" d="m165.831 80.732 2.61 4.436 8.057-.05z"/><path fill="#0a52c5" d="m165.831 80.732 2.61 4.436-8.692-.7z"/><path fill="#0951c4" d="m157.664 80.812 2.085 3.657 6.082-3.737z"/><path fill="#0b50c4" d="m149.492 84.083 8.172-3.271 2.085 3.657z"/><path fill="#0f4dbf" d="m144.15 84.571 5.342-.488 3.428-3.69zm5.342-.488 5.544 5.063 4.71-4.677z"/><path fill="#1546b6" d="m149.492 84.083-9.026 8.472 3.684-7.984z"/><path fill="#1549bd" d="m140.466 92.555 5.759.958 3.267-9.43z"/><path fill="#144bc3" d="m146.225 93.513 3.267-9.43 5.544 5.063z"/><path fill="#173794" d="m131.898 94.384.35 3.407 4.902-8.425z"/><path fill="#192f84" d="m127.788 102.854 4.11-8.47.35 3.407z"/><path fill="#1a389b" d="m132.248 97.79 4.902-8.424 3.316 3.19z"/><path fill="#1d3089" d="m131.951 105.096.297-7.305-4.46 5.063z"/><path fill="#1e389f" d="m131.951 105.096.297-7.305 5.79 4.704z"/><path fill="#1c40af" d="m138.038 102.495 2.428-9.94-8.218 5.236z"/><path fill="#1e41b7" d="m138.038 102.495 2.428-9.94 5.759.958z"/><path fill="#192c7d" d="m126.913 110.533.875-7.68 4.163 2.243z"/><path fill="#162467" d="m169.252 155.045 7.744-1.203 3.443-2.972zm-45.468-32.387.571-1.788-.164-9.84zm3.135-12.13-2.564 10.342 4.65 12.3-2.276-14.247z"/><path fill="#1a236a" d="m128.998 133.173 3.836.54-2.687-6.277z"/><path fill="#132668" d="m184.656 147.594-4.217 3.28-3.443 2.972 7.95-4.368zm-22.564 8.587 6.01.168 8.894-2.507-7.744 1.203zm-29.514-15.87 4.03.775-3.774-7.38z"/><path fill="#1b2268" d="m150.083 150.17-6.826-5.26-2.837 2.733 9.506 6.14zm-24.229-19.586 4.58 9.02-1.434-6.43zm-2.077-7.922 2.077 7.922-1.505-9.71zm38.165 28.577-11.859-1.068 5.01 2.345-5.167 1.267-6.22-1.94 6.877 2.995 11.509 1.351 7.168-1.135zm-29.108-17.527-3.828-.539 3.58 7.138zm-6.105-14.79 2.277 14.251 1.15-5.74zm9.88 22.164-4.03-.775-2.139-.707 3.228 4.356 4.467 4.1 5.57 3.784-3.276-4.192z"/><path fill="#212a81" d="m126.913 110.533 5.413 8.381-.375-13.818z"/><path fill="#21267a" d="m126.729 118.923 3.418 8.513 2.18-8.522z"/><path fill="#262781" d="m130.147 127.436 2.18-8.522 2.705 6.734z"/><path fill="#272379" d="m132.834 133.712 10.38 6.44-8.182-14.504z"/><path fill="#1e226d" d="m130.44 139.604 2.144.707-3.578-7.138zm22.927 3.704-3.277 6.863 11.858 1.068zm-20.533-9.596 3.775 7.38 3.811 6.56 2.837-2.733-.043-4.76z"/><path fill="#222475" d="m180.949 144.351-.51 6.519 4.217-3.28zm-18.149-.937-.862 7.825 10.079-2.708-.359-8.796z"/><path fill="#23277d" d="M126.729 118.923h5.597l-5.413-8.382zm44.93 20.812.358 8.796 8.932-4.18z"/><path fill="#1e2776" d="m171.658 139.735 5.75-5.21 3.54 9.826z"/><path fill="#222b86" d="m180.949 144.351 4.346-13.174-7.888 3.347z"/><path fill="#192974" d="m189.905 138.394-8.956 5.957 4.346-13.174z"/><path fill="#172a75" d="m194.28 132.499-8.985-1.322 4.61 7.217 4.406-.842z"/><path fill="#172d7d" d="m194.905 125.419-9.61 5.758 8.985 1.322 5.06-8.515z"/><path fill="#18338a" d="m127.788 102.852 4.11-8.47-5.53 8.999zm63.532 10.485 3.585 12.08 2.662-7.626z"/><path fill="#153791" d="m197.573 117.793-2.484-9.538-3.769 5.084z"/><path fill="#1b318b" d="m185.295 131.177 9.61-5.758-9.313-4.15z"/><path fill="#242d8d" d="m185.295 131.177-8.709-8.806.821 12.153z"/><path fill="#2a2b8f" d="m171.658 139.735-6.687-5.926 12.436.715z"/><path fill="#27267f" d="m132.834 133.712 2.198-8.064-4.885 1.788zm32.137.093-2.17 9.61 8.853-3.68z"/><path fill="#2d2381" d="m151.13 135.775-6.435-3.276-1.48 7.652 10.145 3.157 9.444.106z"/><path fill="#2f2485" d="m162.804 143.414 2.167-9.605-13.84 1.966z"/><path fill="#233196" d="m132.326 118.914 2.776-8.871-3.15-4.947z"/><path fill="#293cb7" d="m138.038 102.495 12.187-3.554-6.437 13.162z"/><path fill="#25339c" d="m185.295 131.177-8.709-8.806 9.006-1.101z"/><path fill="#19348f" d="m194.905 125.419-3.585-12.08-5.728 7.93z"/><path fill="#2a309a" d="m177.407 134.524-9.96-9.638 9.14-2.515z"/><path fill="#302b96" d="m164.971 133.809 12.436.715-9.96-9.638z"/><path fill="#3630a7" d="m164.971 133.809-6.81-5.551 9.286-3.372z"/><path fill="#173da2" d="m137.15 89.366.751-1.687-6.003 6.705zm51.911 14.316 2.253 9.657 3.769-5.084z"/><path fill="#2a36a8" d="m138.038 102.495 5.75 9.608-8.687-2.06z"/><path fill="#312e9f" d="m135.101 110.043 8.687 2.06-5.874 9.259z"/><path fill="#184dcd" d="m150.225 98.94 4.81-9.794-8.81 4.367z"/><path fill="#272986" d="m132.326 118.914 5.588 2.448-2.882 4.286z"/><path fill="#2c2584" d="m137.914 121.362-2.882 4.286 8.182 14.503 1.48-7.652z"/><path fill="#32268b" d="m144.695 132.499.905-13.474-7.686 2.337z"/><path fill="#372999" d="m144.695 132.499 13.466-4.241-12.56-9.233z"/><path fill="#392da5" d="m158.161 128.258-1.313-10.418-11.248 1.185z"/><path fill="#3338bc" d="m156.848 117.84 9.5-3.554 1.1 10.6z"/><path fill="#362896" d="m151.13 135.775 13.841-1.966-6.81-5.551z"/><path fill="#35268f" d="m151.13 135.775-6.435-3.276 13.466-4.241z"/><path fill="#2648d3" d="m150.225 98.94 8.248.874-3.437-10.668z"/><path fill="#1057dc" d="m162.722 92.266-7.686-3.12 3.437 10.668z"/><path fill="#1653da" d="m162.722 92.266 8.187 5.615-12.436 1.933z"/><path fill="#2b46d5" d="m158.473 99.814 12.198 6.475-4.323 7.997z"/><path fill="#244ad7" d="m170.671 106.29.238-8.41-12.436 1.934z"/><path fill="#2547cf" d="m170.671 106.29.238-8.41 8.616 4.224z"/><path fill="#333cc5" d="m158.473 99.814 7.875 14.472-13.81-6.925z"/><path fill="#3833b6" d="m156.848 117.84 9.5-3.554-13.81-6.925z"/><path fill="#2a41c6" d="m166.348 114.286 12.18-2.228-7.857-5.769z"/><path fill="#2045c1" d="m179.525 102.104-.997 9.954-7.857-5.769z"/><path fill="#1b43b7" d="m179.525 102.104 5.75 7.816-6.747 2.138z"/><path fill="#1742af" d="m189.061 103.682-9.536-1.578 5.75 7.816z"/><path fill="#1740a9" d="m140.476 92.555 3.686-7.994-7 4.794zm48.596 11.127-3.787 6.238 6.046 3.419z"/><path fill="#1b3ca4" d="m185.592 121.27 5.728-7.931-6.046-3.42z"/><path fill="#1f3dad" d="m185.592 121.27-.318-11.35-6.746 2.138z"/><path fill="#2543c3" d="m138.038 102.495 12.187-3.554-4-5.428zm28.31 11.79 10.24 8.086 1.942-10.313z"/><path fill="#2e37b2" d="m167.447 124.886 9.14-2.515-10.24-8.085z"/><path fill="#2d40c7" d="m150.225 98.94 2.312 8.421 5.936-7.547z"/><path fill="#3537b8" d="m150.225 98.94-6.437 13.163 8.75-4.742z"/><path fill="#3931b0" d="m152.537 107.361-6.937 11.664 11.248-1.185z"/><path fill="#3735b8" d="m156.848 117.84 1.313 10.418 9.286-3.372zm-11.252 1.185 6.937-11.664-8.75 4.742z"/><path fill="#342892" d="m137.914 121.362 5.874-9.26 1.812 6.923z"/><path fill="#232372" d="m143.706 151.844 6.22 1.947-9.506-6.14zm-.449-6.925 6.826 5.26 3.277-6.863-10.146-3.157zm18.685 6.328.862-7.824-9.444-.107zm10.075-2.716-2.765 6.514 11.187-4.175z"/><path fill="#2a2f96" d="m132.326 118.914 2.776-8.871 2.812 11.319z"/><path fill="#2636a5" d="m135.101 110.043 2.937-7.548-6.084 2.612zm43.42 2.015-1.941 10.313 9.012-1.101z"/><path fill="url(#f)" d="M459.738 144.73v-.017l-.356-11.744v-.041l-1.766-5.86v-.012l-5.05-9.532-5.821-6.152h-.013l-6.132-4.377h-.024l-5.325-2.09h-.037l-6.39-2.273h-.043l-10.522-.67h-.045l-6.636 1.199h-.024l-5.41 1.663h-.034l-9.606 5.587-6 6.695-5.53 8.99v.022l-2.18 7.652v.028l-.41 11.611v.056l2.075 7.91v.026l4.578 9.012v.014l3.166 4.46v.011l4.465 4.096h.012l5.577 3.773h.013l6.877 2.99h.043l11.509 1.35h.016l6.01.168h.046l8.893-2.507h.031l7.947-4.363.014-.01h.01l5.12-4.362 3.966-4.734.014-.02 5.608-10.978v-.043l1.229-7.506v-.019zm-62.81 26.023-1.157-1.061 2.601 2.038zm16.88 4.41-4.065-1.901 9.626.866zm1.482-34.614-10.671 1.122 6.58-11.06zm-3.724-9.96 13.038 6.532-8.968 3.346zm3.822 10.298 1.241 9.831-11.879-8.719zm1.085 10.155L403.57 155.1l.867-12.903zm-.716-9.991 9.996 6.638-8.757 3.179zm.16-.311 8.97-3.355 1.039 10.003zm13.781-11.554 8.313-3.924-.938 9.337zm7.09 5.635-11.428 2.089 4.06-7.503zm-11.753 1.96-7.435-13.672 11.533 6.116zm-.41-.04-13.124-6.574 5.64-7.168zm-20.266 4.695-1.673-6.386 8.075-4.37zm-1.106 13.35-6.382-10.468 7.23-2.198zm13.024-3.316-6.489 6.93-5.94-3.018zm9.608-3.455-2.315 8.335-6.38-5.185zm-.627-10.479 9.646 7.61-8.602 2.369zm.192-.29 11.554-2.11-1.844 9.772zm11.972-2.57.925-9.236 5.338 7.25zm6.38-1.66.294 10.575-6.586-8.58zm-14.253-4.14.22-7.848 8.052 3.943zm-.349 0-11.49-6.094 11.714-1.819zm-17.892.978-2.152-7.836 7.682.819zm-.28.293-8.154 4.405 5.997-12.25zm-6.946 11.617-7.076 2.15 5.41-8.522zm-1.28 12.95-8.84-6.26 2.636-3.913zm.713.889 5.94 3.019-7.304 4.035zm13.356-4.26 6.378 5.194-12.96 1.843zm9.36-3.277 9.421 9.102-11.754-.674zm.25-.242 8.639-2.376.776 11.482zm10.838-12.493 6.642 8.653-8.467 1.024zm6.83-2.253 5.606 3.176-5.325 7.35zm.06-.365 3.482-5.716 2.064 8.856zm-.256-.25-5.341-7.254 8.862 1.464zm-14.044-11.76 6.274-5.68 1.8 9.637zm-12.416 1.749 3.982-7.064 7.668 5.255zm-8.31-.787 4.505-9.175 3.224 9.995zm-6.719 12.934-5.468-9.13 11.59-3.38zm-5.788 9.182-2.646-10.64 8.172 1.936zm-2.914 4.346-2.425-6.021 5.008 2.191zm9.431 7.291-1.364 7.073-7.578-13.403zm6.524 3.452 2.074 7.008-9.445-2.937zm13.722-2.014-2.058 9.11-11.079-7.246zm12.236.658-5.326 4.823-6.195-5.485zm-.193-11.84 8.193 8.286-7.429 3.15zm.168-.324 8.453-1.024-.287 9.286zm14.296-8.764 3.375 11.37-8.774-3.905zm-1.915-9.61 5.507 4.176-3.443 4.641zm-9.479-2.124 5.12-5.855 3.775 7.324zm-.231-.264-1.788-9.57 6.894 3.72zm-8.735-4.055-7.636-5.231 13.878-.422zm-12.377 1.72-3.201-9.925 7.158 2.902zm-8.324-.774-3.705-5.026 8.166-4.045zm-.256.238-11.355 3.31 7.628-8.363zm-6.51 12.983-8.09-1.917 2.735-7.023zm-5.768 9.216-5.12-2.242 2.545-8.125zm-2.855 4.48-4.406 1.611 1.964-7.68zm7.924 14.086-9.692-6.007 2.048-7.524zm9.87 3.605-9.17 1.454-.039-4.317zm-1.168-7.068 10.782 7.05-8.723-.099zm13.647-2.048 6.257 5.542-8.287 3.441zm12.264.7 3.308 9.168-8.676-4.301zm.295-.204 7.373-3.13-4.067 12.32zm8.131-13.076 8.772 3.904-9.05 5.42zm5.872-7.754 5.735 4.082-2.458 6.99zm-.064-.473 3.447-4.645 2.272 8.717zm-2.302-9.675 1.586-4.967 3.811 9.07zm-.24-.387-3.657-7.079 5.251 2.1zm-10.807-11.265 7.637-.5-.962 4.097zm-15.121.133 5.376-6.67 8.618 6.244zm-.318-.16-2.769-7.252 8.09.651zm-.36.033-7.073-2.867 4.336-4.301zm-15.89 1.215 3.042-8.774 5.163 4.71zm-8.157 8.698 2.226-9.116 5.286.879zm-3.306 7.783-2.855-4.483 5.518-2.356zm-.152.41-2.441 7.782-.328-12.137zm-2.812 9.011-1.99 7.783-3.124-7.783zm-5.194-.34.166-7.637 4.934 7.631zm7.87 7.169-1.99 7.244-2.416-5.647zm7.938 14.107-6.007.85-3.433-6.701zm.327.303.04 4.256-5.94-3.418zm10.018 3.179-3.05 6.353-6.337-4.878zm.356.063 8.025 7.41-11.103-.999zm.393-.108 8.807.1-.803 7.285zm17.686-3.482.336 8.23-8.631-4.807zm.35.03 8.705 4.322-8.369 3.912zm13.501-8.433 4.322 6.758-8.397 5.58zm.301-.176 8.32 1.228-4.062 5.428zm.154-.328 8.901-5.325-.58 6.554zm11.756-12.698 1.571 5.499-3.943 1.274zm-2.101-9.38 4.506 5.677-2.315 2.732zm-4.22-10.342 5.856 4.289-2.013 4.848zm-6.033-2.947.944-4.025 4.215 6.087zm-7.461-4.068-1.024-6.144 8.806 5.64zm-.387-.204-8.398-6.081 7.373-.047zm-17.072-7.083 5.48-3.363 2.352 3.994zm-5.261 4.572-5.073-4.63 9.382.353zm-8.924 4.401-5.268-.877 8.256-7.742zm-8.172 8.862-5.39-4.377 7.65-4.87zm-.23.262-5.568 2.376.27-6.679zm-5.57 15.836-5.004-7.74 4.658-5.021zm-2.17 9.143-.947 4.735-1.874-11.758zm.243.565 2.345 5.475-3.343-.467zm6.083 12.82-3.536-.686.226-5.78zm6.678 4.096-2.51 2.415-3.374-5.799zm.3.192 6.031 4.652-8.538-2.233zm19.678-1.446 8.602 4.777-9.421 2.53zm17.804.94-.471 6.008-7.764-2.157zm8.64-5.683-4.781 8.383-3.378-2.962zm4.71-5.92.024 4.384-3.823.731zm.958-7.464 3.892-1.258-4.432 7.46zm2.698-7.71 2.208-2.603-.71 7.81zm-2.477-9.597 1.983-4.774 2.568 10.505zm-4.217-10.118 1.393-2.43 4.197 6.524zm-.241-.276-4.121-5.94 5.513 3.515zm-13.823-12.574 4.17-.444 4.22 5.819zm-8.469-.245-2.296-3.902 9.389 3.859zm-8.73-.766-1.842-3.24 7.246-.074zm-.368.055-9.126-.342 7.273-2.906zm-18.433 7.529 3.277-7.077 4.74-.432zm-.588.442-2.986-2.867 6.304-4.314zm-.223.266-7.428 4.73 4.438-7.61zm-8.397 12.275-3.728-2.005 3.994-4.529zm-.117.33-4.53 4.88.786-6.892zm-5.126 13.687-1.915 1.565 2.062-8.305zm.047.41 1.954 12.26-4.004-10.58zm6.05 14.6-.223 5.762-3.122-6.23zm3.844 7.374 3.187 5.47-6.542-6.111zm13.407 9.053-.137 3.164-8.34-5.38zm.342.135 4.33 2.023-4.465 1.092zm11.53 1.008.134 4.438-6.29-3.292zm9.943-2.663-2.552 6.007-6.747-3.508zm.41-.053 7.76 2.154-10.306 3.845zm8.978-4.025 3.288 2.867-3.746 2.917zm8.922-6.154 3.789-.726-8.307 8.635zm4.463-1.676-.027-4.274 3.496-2.136zm.307-4.885 4.24-7.123-.78 5.016zm5.411-15.401.496 5.243-1.123 1.55zm-2.585-13.131.97.91.97 7.024zm-4.915-8.012.911-.459 2.638 5.978zm-6.384-4.187 1.602-2.291 3.92 5.814zm-.25-.25-4.174-5.759 5.78 3.464zm-9.403-6.03-.026-2.502 4.022 2.077zm-.348-.067-9.194-3.776 9.167 1.206zm-18.185-4.22 1.464-1.256 4.852 1.194zm-7.988 2.998 2.845-3.073 3.936.355zm-.735.282-4.301.391 7.076-3.37zm-11.85 4.953.474-1.068 3.955-1.964zm-5.193 8.36-.288-2.792 4.3-4.096zm-.299.492-3.568 4.045 3.288-6.76zm-5.315 12.64-2.277.424 3.009-6.83zm-.075.37-2.178 8.775-.139-8.346zm1.919 21.85-2.59-2.13-1.24-7.987zm3.629 7.374-1.653-.543-1.106-4.954zm7.068 6.816-5.485-2.974-.883-2.966zm1.004.942 2.378 3.031-7.271-5.696zm.889.572 7.563 4.88-4.95-1.548zm13.876 4.346 5.878 3.072-10.218-2.013zm7.055-1.17 6.579 3.423-6.446 1.024zm17.467-.16-2.663 2.307-6.011.931zm4.936-3.453.223 1.434-3.453 1.067zm8.96-9.249-3.543 6.32-4.52 2.08zm.991-1.053 2.378-4.393-2.541 6.028zm5.027-13.538.897-1.241-1.434 4.748zm.864-9.364-.012-.092.09-1.176.09 3.046zm-.24-1.73-.897-6.51 1.112 3.687zm-2.662-10.151-1.639-3.717 2.294 4.331zm-4.945-7.676-3.276-4.856 4.178 4.403zm-10.94-10.48.219-.158 2.51 1.796zm-.332-.191-1.702-.879 1.892.744zm-14.37-3.721 3.191-.656 4.8 1.708zm-1.04-.14-4.344-1.069 7.283.463zm-8.23.08-3.387-.305 4.741-.856zm-11.955 3.027 1.938-1.452 3.125-.962zm-1.591.758-1.682.836 2.585-1.512zm-7.054 4.838-1.995 1.904 2.28-2.543zm-9.343 13.442-.887.327 3.447-5.597zm-1.155.796.956-.354-2.419 5.495zm-2.382 14.261.049 3.058-.176.557zm.166 3.84.872 5.623-1.202-4.588zm4.553 11.63 1.12 5.018-3.578-7.04zm3.594 7.168.778 2.618-2.316-3.124zm17.376 13.47.324.519-3.4-1.479zm.873.738-.41-.635 7.396 1.456zm18.117.614-.778.881-4.06-.113zm.539-.084 4.84-.751-5.559 1.565zm11.183-4.18 2.838-.876-4.997 2.758zm4.547-1.882-.224-1.434 4.148-1.906zm8.983-10.769-.195 1.935-2.728 3.255zm4.491-8.254.7-.338-3.209 6.304zm.932-.836-.786.381 1.58-5.202z" transform="matrix(1 0 0 1.0009 -258.691 -22.976)"/><path fill="url(#g)" d="M459.738 144.73v-.017l-.356-11.744v-.041l-1.766-5.86v-.012l-5.05-9.532-5.821-6.152h-.013l-6.132-4.377h-.024l-5.325-2.09h-.037l-6.39-2.273h-.043l-10.522-.67h-.045l-6.636 1.199h-.024l-5.41 1.663h-.034l-9.606 5.587-6 6.695-5.53 8.99v.022l-2.18 7.652v.028l-.41 11.611v.056l2.075 7.91v.026l4.578 9.012v.014l3.166 4.46v.011l4.465 4.096h.012l5.577 3.773h.013l6.877 2.99h.043l11.509 1.35h.016l6.01.168h.046l8.893-2.507h.031l7.947-4.363.014-.01h.01l5.12-4.362 3.966-4.734.014-.02 5.608-10.978v-.043l1.229-7.506v-.019zm-62.81 26.023-1.157-1.061 2.601 2.038zm16.88 4.41-4.065-1.901 9.626.866zm1.482-34.614-10.671 1.122 6.58-11.06zm-3.724-9.96 13.038 6.532-8.968 3.346zm3.822 10.298 1.241 9.831-11.879-8.719zm1.085 10.155L403.57 155.1l.867-12.903zm-.716-9.991 9.996 6.638-8.757 3.179zm.16-.311 8.97-3.355 1.039 10.003zm13.781-11.554 8.313-3.924-.938 9.337zm7.09 5.635-11.428 2.089 4.06-7.503zm-11.753 1.96-7.435-13.672 11.533 6.116zm-.41-.04-13.124-6.574 5.64-7.168zm-20.266 4.695-1.673-6.386 8.075-4.37zm-1.106 13.35-6.382-10.468 7.23-2.198zm13.024-3.316-6.489 6.93-5.94-3.018zm9.608-3.455-2.315 8.335-6.38-5.185zm-.627-10.479 9.646 7.61-8.602 2.369zm.192-.29 11.554-2.11-1.844 9.772zm11.972-2.57.925-9.236 5.338 7.25zm6.38-1.66.294 10.575-6.586-8.58zm-14.253-4.14.22-7.848 8.052 3.943zm-.349 0-11.49-6.094 11.714-1.819zm-17.892.978-2.152-7.836 7.682.819zm-.28.293-8.154 4.405 5.997-12.25zm-6.946 11.617-7.076 2.15 5.41-8.522zm-1.28 12.95-8.84-6.26 2.636-3.913zm.713.889 5.94 3.019-7.304 4.035zm13.356-4.26 6.378 5.194-12.96 1.843zm9.36-3.277 9.421 9.102-11.754-.674zm.25-.242 8.639-2.376.776 11.482zm10.838-12.493 6.642 8.653-8.467 1.024zm6.83-2.253 5.606 3.176-5.325 7.35zm.06-.365 3.482-5.716 2.064 8.856zm-.256-.25-5.341-7.254 8.862 1.464zm-14.044-11.76 6.274-5.68 1.8 9.637zm-12.416 1.749 3.982-7.064 7.668 5.255zm-8.31-.787 4.505-9.175 3.224 9.995zm-6.719 12.934-5.468-9.13 11.59-3.38zm-5.788 9.182-2.646-10.64 8.172 1.936zm-2.914 4.346-2.425-6.021 5.008 2.191zm9.431 7.291-1.364 7.073-7.578-13.403zm6.524 3.452 2.074 7.008-9.445-2.937zm13.722-2.014-2.058 9.11-11.079-7.246zm12.236.658-5.326 4.823-6.195-5.485zm-.193-11.84 8.193 8.286-7.429 3.15zm.168-.324 8.453-1.024-.287 9.286zm14.296-8.764 3.375 11.37-8.774-3.905zm-1.915-9.61 5.507 4.176-3.443 4.641zm-9.479-2.124 5.12-5.855 3.775 7.324zm-.231-.264-1.788-9.57 6.894 3.72zm-8.735-4.055-7.636-5.231 13.878-.422zm-12.377 1.72-3.201-9.925 7.158 2.902zm-8.324-.774-3.705-5.026 8.166-4.045zm-.256.238-11.355 3.31 7.628-8.363zm-6.51 12.983-8.09-1.917 2.735-7.023zm-5.768 9.216-5.12-2.242 2.545-8.125zm-2.855 4.48-4.406 1.611 1.964-7.68zm7.924 14.086-9.692-6.007 2.048-7.524zm9.87 3.605-9.17 1.454-.039-4.317zm-1.168-7.068 10.782 7.05-8.723-.099zm13.647-2.048 6.257 5.542-8.287 3.441zm12.264.7 3.308 9.168-8.676-4.301zm.295-.204 7.373-3.13-4.067 12.32zm8.131-13.076 8.772 3.904-9.05 5.42zm5.872-7.754 5.735 4.082-2.458 6.99zm-.064-.473 3.447-4.645 2.272 8.717zm-2.302-9.675 1.586-4.967 3.811 9.07zm-.24-.387-3.657-7.079 5.251 2.1zm-10.807-11.265 7.637-.5-.962 4.097zm-15.121.133 5.376-6.67 8.618 6.244zm-.318-.16-2.769-7.252 8.09.651zm-.36.033-7.073-2.867 4.336-4.301zm-15.89 1.215 3.042-8.774 5.163 4.71zm-8.157 8.698 2.226-9.116 5.286.879zm-3.306 7.783-2.855-4.483 5.518-2.356zm-.152.41-2.441 7.782-.328-12.137zm-2.812 9.011-1.99 7.783-3.124-7.783zm-5.194-.34.166-7.637 4.934 7.631zm7.87 7.169-1.99 7.244-2.416-5.647zm7.938 14.107-6.007.85-3.433-6.701zm.327.303.04 4.256-5.94-3.418zm10.018 3.179-3.05 6.353-6.337-4.878zm.356.063 8.025 7.41-11.103-.999zm.393-.108 8.807.1-.803 7.285zm17.686-3.482.336 8.23-8.631-4.807zm.35.03 8.705 4.322-8.369 3.912zm13.501-8.433 4.322 6.758-8.397 5.58zm.301-.176 8.32 1.228-4.062 5.428zm.154-.328 8.901-5.325-.58 6.554zm11.756-12.698 1.571 5.499-3.943 1.274zm-2.101-9.38 4.506 5.677-2.315 2.732zm-4.22-10.342 5.856 4.289-2.013 4.848zm-6.033-2.947.944-4.025 4.215 6.087zm-7.461-4.068-1.024-6.144 8.806 5.64zm-.387-.204-8.398-6.081 7.373-.047zm-17.072-7.083 5.48-3.363 2.352 3.994zm-5.261 4.572-5.073-4.63 9.382.353zm-8.924 4.401-5.268-.877 8.256-7.742zm-8.172 8.862-5.39-4.377 7.65-4.87zm-.23.262-5.568 2.376.27-6.679zm-5.57 15.836-5.004-7.74 4.658-5.021zm-2.17 9.143-.947 4.735-1.874-11.758zm.243.565 2.345 5.475-3.343-.467zm6.083 12.82-3.536-.686.226-5.78zm6.678 4.096-2.51 2.415-3.374-5.799zm.3.192 6.031 4.652-8.538-2.233zm19.678-1.446 8.602 4.777-9.421 2.53zm17.804.94-.471 6.008-7.764-2.157zm8.64-5.683-4.781 8.383-3.378-2.962zm4.71-5.92.024 4.384-3.823.731zm.958-7.464 3.892-1.258-4.432 7.46zm2.698-7.71 2.208-2.603-.71 7.81zm-2.477-9.597 1.983-4.774 2.568 10.505zm-4.217-10.118 1.393-2.43 4.197 6.524zm-.241-.276-4.121-5.94 5.513 3.515zm-13.823-12.574 4.17-.444 4.22 5.819zm-8.469-.245-2.296-3.902 9.389 3.859zm-8.73-.766-1.842-3.24 7.246-.074zm-.368.055-9.126-.342 7.273-2.906zm-18.433 7.529 3.277-7.077 4.74-.432zm-.588.442-2.986-2.867 6.304-4.314zm-.223.266-7.428 4.73 4.438-7.61zm-8.397 12.275-3.728-2.005 3.994-4.529zm-.117.33-4.53 4.88.786-6.892zm-5.126 13.687-1.915 1.565 2.062-8.305zm.047.41 1.954 12.26-4.004-10.58zm6.05 14.6-.223 5.762-3.122-6.23zm3.844 7.374 3.187 5.47-6.542-6.111zm13.407 9.053-.137 3.164-8.34-5.38zm.342.135 4.33 2.023-4.465 1.092zm11.53 1.008.134 4.438-6.29-3.292zm9.943-2.663-2.552 6.007-6.747-3.508zm.41-.053 7.76 2.154-10.306 3.845zm8.978-4.025 3.288 2.867-3.746 2.917zm8.922-6.154 3.789-.726-8.307 8.635zm4.463-1.676-.027-4.274 3.496-2.136zm.307-4.885 4.24-7.123-.78 5.016zm5.411-15.401.496 5.243-1.123 1.55zm-2.585-13.131.97.91.97 7.024zm-4.915-8.012.911-.459 2.638 5.978zm-6.384-4.187 1.602-2.291 3.92 5.814zm-.25-.25-4.174-5.759 5.78 3.464zm-9.403-6.03-.026-2.502 4.022 2.077zm-.348-.067-9.194-3.776 9.167 1.206zm-18.185-4.22 1.464-1.256 4.852 1.194zm-7.988 2.998 2.845-3.073 3.936.355zm-.735.282-4.301.391 7.076-3.37zm-11.85 4.953.474-1.068 3.955-1.964zm-5.193 8.36-.288-2.792 4.3-4.096zm-.299.492-3.568 4.045 3.288-6.76zm-5.315 12.64-2.277.424 3.009-6.83zm-.075.37-2.178 8.775-.139-8.346zm1.919 21.85-2.59-2.13-1.24-7.987zm3.629 7.374-1.653-.543-1.106-4.954zm7.068 6.816-5.485-2.974-.883-2.966zm1.004.942 2.378 3.031-7.271-5.696zm.889.572 7.563 4.88-4.95-1.548zm13.876 4.346 5.878 3.072-10.218-2.013zm7.055-1.17 6.579 3.423-6.446 1.024zm17.467-.16-2.663 2.307-6.011.931zm4.936-3.453.223 1.434-3.453 1.067zm8.96-9.249-3.543 6.32-4.52 2.08zm.991-1.053 2.378-4.393-2.541 6.028zm5.027-13.538.897-1.241-1.434 4.748zm.864-9.364-.012-.092.09-1.176.09 3.046zm-.24-1.73-.897-6.51 1.112 3.687zm-2.662-10.151-1.639-3.717 2.294 4.331zm-4.945-7.676-3.276-4.856 4.178 4.403zm-10.94-10.48.219-.158 2.51 1.796zm-.332-.191-1.702-.879 1.892.744zm-14.37-3.721 3.191-.656 4.8 1.708zm-1.04-.14-4.344-1.069 7.283.463zm-8.23.08-3.387-.305 4.741-.856zm-11.955 3.027 1.938-1.452 3.125-.962zm-1.591.758-1.682.836 2.585-1.512zm-7.054 4.838-1.995 1.904 2.28-2.543zm-9.343 13.442-.887.327 3.447-5.597zm-1.155.796.956-.354-2.419 5.495zm-2.382 14.261.049 3.058-.176.557zm.166 3.84.872 5.623-1.202-4.588zm4.553 11.63 1.12 5.018-3.578-7.04zm3.594 7.168.778 2.618-2.316-3.124zm17.376 13.47.324.519-3.4-1.479zm.873.738-.41-.635 7.396 1.456zm18.117.614-.778.881-4.06-.113zm.539-.084 4.84-.751-5.559 1.565zm11.183-4.18 2.838-.876-4.997 2.758zm4.547-1.882-.224-1.434 4.148-1.906zm8.983-10.769-.195 1.935-2.728 3.255zm4.491-8.254.7-.338-3.209 6.304zm.932-.836-.786.381 1.58-5.202z" transform="matrix(1 0 0 1.0009 -258.691 -22.976)"/><path fill="url(#h)" d="M494.32 112.883c-3.453-8.299-10.445-17.26-15.942-20.09a82.263 82.263 0 0 1 8.039 24.092c0-.018 0 .017.012.076l.014.084a71.793 71.793 0 0 1-2.474 53.573c-9.106 19.522-31.154 39.528-65.665 38.555-37.28-1.054-70.125-28.692-76.257-64.888-1.116-5.708 0-8.602.561-13.241a59.137 59.137 0 0 0-1.286 10.951v.41a79.483 79.483 0 0 0 157.793 13.423c.133-1.024.242-2.038.36-3.062a81.515 81.515 0 0 0-5.155-39.883z" transform="matrix(1 0 0 1.0009 -258.691 -22.976)"/><path fill="url(#i)" d="M494.32 112.883c-3.453-8.299-10.445-17.26-15.942-20.09a82.263 82.263 0 0 1 8.039 24.092c0-.018 0 .017.012.076l.014.084a71.793 71.793 0 0 1-2.474 53.573c-9.106 19.522-31.154 39.528-65.665 38.555-37.28-1.054-70.125-28.692-76.257-64.888-1.116-5.708 0-8.602.561-13.241a59.137 59.137 0 0 0-1.286 10.951v.41a79.483 79.483 0 0 0 157.793 13.423c.133-1.024.242-2.038.36-3.062a81.515 81.515 0 0 0-5.155-39.883z" transform="matrix(1 0 0 1.0009 -258.691 -22.976)"/><path fill="url(#j)" d="M342.047 144.285c6.132 36.196 38.978 63.834 76.266 64.888 34.51.975 56.558-19.033 65.664-38.555a71.793 71.793 0 0 0 2.475-53.573v-.076c0-.06-.013-.094-.013-.076l.017.133c2.818 18.386-6.544 36.199-21.18 48.244l-.045.102c-28.534 23.19-55.824 13.987-61.354 10.222a50.711 50.711 0 0 1-1.157-.577c-16.626-7.937-23.496-23.07-22.023-36.047a20.407 20.407 0 0 1-18.826-11.83 30.007 30.007 0 0 1 29.218-1.17 39.604 39.604 0 0 0 29.837 1.172c-.029-.645-13.86-6.144-19.252-11.449-2.882-2.837-4.25-4.203-5.46-5.229a24.09 24.09 0 0 0-2.049-1.552c-.473-.322-1.003-.67-1.638-1.088-5.796-3.764-17.323-3.555-17.704-3.547h-.037c-3.152-3.988-2.929-17.137-2.749-19.881a14.243 14.243 0 0 0-2.662 1.405 57.91 57.91 0 0 0-7.767 6.646 69.636 69.636 0 0 0-7.428 8.901v.012-.012a66.951 66.951 0 0 0-10.665 24.04c-.037.173-2.859 12.503-1.468 18.897z" transform="matrix(1 0 0 1.0009 -258.691 -22.976)"/><path fill="url(#k)" d="M448.817 112.96a43.135 43.135 0 0 1 7.374 9.627 16.131 16.131 0 0 1 1.194.975c18.023 16.59 8.575 40.039 7.873 41.71 14.635-12.045 23.997-29.858 21.18-48.243-8.988-22.376-24.224-31.398-36.662-51.042a98.093 98.093 0 0 1-1.872-3.041 24.06 24.06 0 0 1-.875-1.639 14.402 14.402 0 0 1-1.188-3.152.205.205 0 0 0-.18-.205.264.264 0 0 0-.15 0l-.038.021-.06.025c-3.072 1.464-21.298 30.291 3.404 54.965z" transform="matrix(1 0 0 1.0009 -258.691 -22.976)"/><path fill="url(#l)" d="m418.247 102.077 10.521.67 6.39 2.273 5.326 2.09 6.134 4.38 5.777 6.091 2.008 3.787a48.049 48.049 0 0 1 1.298.846c.174.121.332.242.494.363a43.135 43.135 0 0 0-7.374-9.616c-24.706-24.674-6.48-53.501-3.408-54.965l.041-.046c-19.963 11.675-26.736 33.284-27.356 44.094v.062z" transform="matrix(1 0 0 1.0009 -258.691 -22.976)"/><path fill="url(#m)" d="M392.51 107.824a46.73 46.73 0 0 1 1.639 1.088 36.717 36.717 0 0 1-.223-19.4 58.855 58.855 0 0 0-19.13 14.765c.391-.008 11.918-.217 17.714 3.547z" transform="matrix(1 0 0 1.0009 -258.691 -22.976)"/><path fill="url(#n)" d="M385.106 149.581s3.669-13.654 26.268-13.654c2.443 0 9.421-6.81 9.556-8.785a39.604 39.604 0 0 1-29.837-1.171 30.007 30.007 0 0 0-29.218 1.17A20.407 20.407 0 0 0 380.7 138.97c-1.473 12.977 5.397 28.11 22.023 36.047.373.178.721.373 1.102.543-9.704-5.012-17.718-14.48-18.72-25.979z" transform="matrix(1 0 0 1.0009 -258.691 -22.976)"/><path fill="url(#o)" d="M457.389 123.552a16.131 16.131 0 0 0-1.194-.975c-.162-.121-.32-.242-.494-.363a27.457 27.457 0 0 0-19.162-4.647c28.585 14.276 20.911 63.432-18.697 61.577a35.312 35.312 0 0 1-10.341-1.993 46.574 46.574 0 0 1-2.335-.952c-.447-.205-.895-.41-1.34-.64l.056.035c5.53 3.765 32.815 12.967 61.335-10.23l.045-.102c.702-1.672 10.142-25.127-7.873-41.71z" transform="matrix(1 0 0 1.0009 -258.691 -22.976)"/><path fill="url(#p)" d="M494.314 112.881c-3.453-8.301-10.445-17.26-15.942-20.092a82.314 82.314 0 0 1 8.045 24.094l.016.131c-8.985-22.373-24.223-31.395-36.665-51.041a92.804 92.804 0 0 1-1.872-3.04 26.208 26.208 0 0 1-.877-1.638 14.445 14.445 0 0 1-1.184-3.144.205.205 0 0 0-.18-.205.283.283 0 0 0-.15 0c-.012 0-.028.019-.04.023-.013.004-.04.022-.058.03l.033-.044c-19.963 11.674-26.732 33.35-27.355 44.16l.162-.03 10.521.67 5.921 2.106 5.795 2.253 6.134 4.38 5.771 6.087s1.987 3.728 2.014 3.792a27.197 27.197 0 0 0-17.87-3.806c28.583 14.276 20.911 63.432-18.698 61.577a35.375 35.375 0 0 1-10.34-1.99q-1.16-.435-2.335-.96a29.575 29.575 0 0 1-1.34-.638l.055.034a46.73 46.73 0 0 1-1.157-.575c.371.176.721.37 1.102.54-9.704-5.01-17.718-14.48-18.72-25.978 0 0 3.669-13.655 26.267-13.655 2.444 0 9.422-6.81 9.557-8.784-.029-.645-13.862-6.144-19.252-11.449-2.882-2.835-4.25-4.203-5.463-5.229a23.349 23.349 0 0 0-2.058-1.55 36.75 36.75 0 0 1-.223-19.402 58.873 58.873 0 0 0-19.13 14.767h-.037c-3.15-3.986-2.926-17.135-2.748-19.881a14.423 14.423 0 0 0-2.663 1.405 57.802 57.802 0 0 0-7.766 6.648 69.448 69.448 0 0 0-7.423 8.889 66.996 66.996 0 0 0-10.652 24.05c-.039.173-.07.351-.106.523-.15.7-.82 4.246-.918 5.008 0 .057 0-.06 0 0a92.352 92.352 0 0 0-1.171 11.076v.41a79.481 79.481 0 0 0 157.801 13.425c.135-1.024.244-2.048.363-3.072a81.53 81.53 0 0 0-5.164-39.875zm-7.883 4.076.012.086z" transform="matrix(1 0 0 1.0009 -258.691 -22.976)"/><path fill="url(#q)" d="M420.93 127.142s-.336.14-.958.352c-1.553 2.624-7.073 7.634-9.182 7.623-22.599-.098-26.327 13.407-26.327 13.407a28.864 28.864 0 0 0 4.428 12.971 29.071 29.071 0 0 1-3.785-11.914s3.669-13.654 26.268-13.654c2.443 0 9.421-6.81 9.556-8.785z" transform="matrix(1 0 0 1.0009 -258.691 -22.976)"/><path fill="url(#r)" d="M486.452 117.045v-.076c0-.06-.013-.094 0-.076.012.019 0 .045.014.133a79.338 79.338 0 0 0-1.708-3.932c-.205-.434-.41-.84-.625-1.264-.4-.819-.795-1.638-1.208-2.408-.256-.482-.525-.938-.787-1.405-.385-.686-.766-1.377-1.161-2.048-.29-.484-.59-.947-.885-1.418-.387-.614-.772-1.229-1.167-1.827-.314-.473-.635-.93-.953-1.39-.395-.57-.788-1.139-1.192-1.694-.332-.459-.67-.907-1.007-1.356-.41-.534-.805-1.069-1.213-1.593a137.316 137.316 0 0 0-1.057-1.334c-.41-.51-.819-1.024-1.239-1.526q-.543-.657-1.091-1.308c-.205-.236-.396-.478-.596-.713l.254.311c-6.91-8.123-14.384-15.608-21.057-26.144a96.6 96.6 0 0 1-1.872-3.041 24.06 24.06 0 0 1-.875-1.639 16.28 16.28 0 0 1-1.093-2.79c-.015-.05-.04-.128-.047-.17a9.258 9.258 0 0 1-.046-.184.205.205 0 0 0-.18-.205.264.264 0 0 0-.15 0l-.038.023a.553.553 0 0 0-.06.03 2.33 2.33 0 0 0-.48.355 2.58 2.58 0 0 0-.116.102 7.623 7.623 0 0 0-.628.666l-.023.023c-4.754 5.587-16.913 29.912 2.681 51.733-18.345-21.587-6.783-44.915-1.76-51.027a17.634 17.634 0 0 0 .982 2.4 23.529 23.529 0 0 0 .874 1.64 97.98 97.98 0 0 0 1.872 3.038c12.445 19.646 27.683 28.674 36.662 51.042 0-.086-.015-.12-.015-.131 0-.013 0 .016.01.075l.013.076a71.795 71.795 0 0 1-2.466 53.585 65.853 65.853 0 0 1-12.625 18.101 65.978 65.978 0 0 0 13.583-19.061 71.803 71.803 0 0 0 2.475-53.573z" transform="matrix(1 0 0 1.0009 -258.691 -22.976)"/><path fill="url(#s)" d="m445.413 57.996.041-.046c-17.982 10.522-25.261 29.096-26.982 40.578a58.724 58.724 0 0 1 24.006-37.047 11.134 11.134 0 0 1 2.935-3.485z" transform="matrix(1 0 0 1.0009 -258.691 -22.976)"/><path fill="url(#t)" d="m465.217 165.364.045-.102c.702-1.672 10.142-25.127-7.873-41.71a16.131 16.131 0 0 0-1.194-.975c-.162-.121-.32-.242-.494-.363a27.738 27.738 0 0 0-18.433-4.762h-.006a17.638 17.638 0 0 0-.723.113c28.262 14.116 21.08 62.328-17.37 61.612l.313.018c38.978 1.532 46.659-46.269 19.576-61.257a28.776 28.776 0 0 1 15.052 4.346 16.76 16.76 0 0 1 .506.346 15.156 15.156 0 0 1 1.229.926c18.652 15.867 10.138 39.672 9.499 41.372l-.041.106" transform="matrix(1 0 0 1.0009 -258.691 -22.976)"/><path fill="url(#u)" d="M391.306 126.765a39.703 39.703 0 0 0 28.733.707 39.709 39.709 0 0 1-28.946-1.501 30.195 30.195 0 0 0-28.84.921l-.104.068h-.01l-.086.057-.066.045-.04.029h-.013l-.029.02h-.01l.037.089v.012l.045.102v.02l.068.148v.013a16.385 16.385 0 0 0 .522.997 20.328 20.328 0 0 0 18.13 10.445c-1.434 12.588 4.993 27.203 20.555 35.314-14.873-8.571-21.122-24.127-19.385-36.5-11.484-.303-16.619-7.186-18.087-10.105a31.404 31.404 0 0 1 27.526-.88z" transform="matrix(1 0 0 1.0009 -258.691 -22.976)"/><path fill="url(#v)" d="m394.147 108.869-.39-.228.41.27zm-.082-.291a36.778 36.778 0 0 1-.129-19.066 57.931 57.931 0 0 0-18.392 13.95 59.994 59.994 0 0 1 16.772-11.847 37.233 37.233 0 0 0 1.749 16.963z" transform="matrix(1 0 0 1.0009 -258.691 -22.976)"/><path fill="url(#w)" d="m343.964 152.604-.064-.227a73.499 73.499 0 0 1-1.843-8.092 34.337 34.337 0 0 1 0-10.24 67.563 67.563 0 0 0-.727 7.946v.41a79.414 79.414 0 0 0 53.333 74.977 80.335 80.335 0 0 1-50.7-64.774z" transform="matrix(1 0 0 1.0009 -258.691 -22.976)"/><path fill="url(#x)" d="M343.327 144.604c-1.39-6.394 1.434-18.721 1.468-18.896a66.951 66.951 0 0 1 10.665-24.049v.013-.013a69.636 69.636 0 0 1 7.42-8.89 57.91 57.91 0 0 1 7.767-6.647 6.837 6.837 0 0 1 .336-.204c-.029 6.037.315 16.227 3.11 19.567h.038c.383-.02 11.95-.53 17.867 3.072.658.41 1.199.736 1.682 1.045a24.428 24.428 0 0 1 2.107 1.497c1.242.996 2.65 2.325 5.618 5.084 4.302 3.996 13.66 7.969 17.704 9.861-3.94-1.984-13.239-6.226-17.431-10.353-2.882-2.837-4.25-4.203-5.46-5.229a24.09 24.09 0 0 0-2.049-1.552c-.473-.322-1.003-.67-1.638-1.088-5.796-3.764-17.323-3.555-17.704-3.547h-.037c-2.88-3.644-2.941-14.937-2.794-18.95 0-.155 0-.296.017-.43v-.26c0-.086 0-.17.014-.241 0 0-.014-.015-.033-.015h-.071l-.045.017-.066.024-.063.027-.076.035-.082.039-.082.04-.1.05-.08.043-.12.061-.067.037a39.512 39.512 0 0 0-1.77 1.024 57.91 57.91 0 0 0-7.766 6.646 69.636 69.636 0 0 0-7.426 8.926v.012-.012a66.951 66.951 0 0 0-10.665 24.04c-.037.173-2.867 12.494-1.468 18.897 5.218 30.795 29.786 55.404 59.97 62.701-29.597-7.674-53.545-32.014-58.69-62.382z" transform="matrix(1 0 0 1.0009 -258.691 -22.976)"/><path fill="url(#y)" d="M494.32 112.883a48.674 48.674 0 0 0-13.947-18.843l-.142-.1a27.881 27.881 0 0 0-.47-.324q-.089-.061-.179-.116-.225-.144-.442-.277l-.172-.102a16.104 16.104 0 0 0-.59-.326 71.965 71.965 0 0 1 .627 1.26 68.794 68.794 0 0 1 .38.784 81.382 81.382 0 0 1 7.032 22.046l.016.133c2.818 18.386-6.544 36.199-21.18 48.244l-.045.102c-18.193 14.798-35.883 16.412-47.745 14.663 11.82 2.207 30.463 1.276 49.667-14.337l.043-.103c14.635-12.045 24-29.857 21.181-48.243l-.016-.133a79.752 79.752 0 0 0-5.794-19.345 52.559 52.559 0 0 1 8.69 12.385 79.09 79.09 0 0 1 7.344 38.915c-.061 1.013-.112 2.025-.19 3.03a79.119 79.119 0 0 1-74.576 69.213 81.206 81.206 0 0 1-15.69-.64 79.543 79.543 0 0 0 90.993-64.94c.133-1.025.242-2.039.36-3.063a81.515 81.515 0 0 0-5.155-39.883zm-7.868 4.162v-.076z" transform="matrix(1 0 0 1.0009 -258.691 -22.976)"/></svg>