<?xml version="1.0" encoding="UTF-8"?>
<svg xmlns="http://www.w3.org/2000/svg" xmlns:xlink="http://www.w3.org/1999/xlink" width="324px" height="234px" viewBox="0 0 324 234" version="1.1">
<defs>
<radialGradient id="radial0" gradientUnits="userSpaceOnUse" cx="90.136406" cy="64.761543" fx="90.136406" fy="64.761543" r="91.591759" gradientTransform="matrix(1.8,0,0,1.304046,0,32.11876)">
<stop offset="0" style="stop-color:rgb(0.392157%,63.529414%,98.823529%);stop-opacity:1;"/>
<stop offset="1" style="stop-color:rgb(26.666668%,10.196079%,49.411765%);stop-opacity:1;"/>
</radialGradient>
<linearGradient id="linear0" gradientUnits="userSpaceOnUse" x1="42.113869" y1="3.171701" x2="49.519344" y2="11.364029" gradientTransform="matrix(2.95563,0,0,4.918666,85.401564,37.116825)">
<stop offset="0" style="stop-color:rgb(97.254902%,60.784316%,3.529412%);stop-opacity:1;"/>
<stop offset="1" style="stop-color:rgb(98.431373%,85.882354%,0%);stop-opacity:1;"/>
</linearGradient>
<linearGradient id="linear1" gradientUnits="userSpaceOnUse" x1="93.052773" y1="7.925287" x2="93.052773" y2="10.382126" gradientTransform="matrix(1.624784,0,0,8.947503,85.401564,37.116825)">
<stop offset="0" style="stop-color:rgb(96.470588%,56.470591%,10.196079%);stop-opacity:1;"/>
<stop offset="1" style="stop-color:rgb(100%,32.156864%,14.117648%);stop-opacity:1;"/>
</linearGradient>
<linearGradient id="linear2" gradientUnits="userSpaceOnUse" x1="41.091976" y1="27.251841" x2="38.328995" y2="31.236135" gradientTransform="matrix(3.513819,0,0,4.137311,85.401564,37.116825)">
<stop offset="0" style="stop-color:rgb(97.647059%,34.509805%,15.686275%);stop-opacity:1;"/>
<stop offset="1" style="stop-color:rgb(94.117647%,12.54902%,26.666668%);stop-opacity:1;"/>
</linearGradient>
<linearGradient id="linear3" gradientUnits="userSpaceOnUse" x1="17.809603" y1="64.81501" x2="15.778304" y2="66.469345" gradientTransform="matrix(6.426172,0,0,2.262274,85.401564,37.116825)">
<stop offset="0" style="stop-color:rgb(69.803923%,9.803922%,41.176471%);stop-opacity:1;"/>
<stop offset="1" style="stop-color:rgb(55.686277%,7.058824%,23.137255%);stop-opacity:1;"/>
</linearGradient>
<linearGradient id="linear4" gradientUnits="userSpaceOnUse" x1="25.506947" y1="5.816724" x2="17.508629" y2="32.15884" gradientTransform="matrix(3.843987,0,0,3.781948,85.401564,37.116825)">
<stop offset="0" style="stop-color:rgb(0.392157%,63.529414%,98.823529%);stop-opacity:1;"/>
<stop offset="1" style="stop-color:rgb(26.666668%,10.196079%,49.411765%);stop-opacity:1;"/>
</linearGradient>
<linearGradient id="linear5" gradientUnits="userSpaceOnUse" x1="6.759223" y1="3.908603" x2="6.759223" y2="9.656549" gradientTransform="matrix(3.142404,0,0,4.626317,85.401564,37.116825)">
<stop offset="0" style="stop-color:rgb(93.725491%,14.509805%,27.058825%);stop-opacity:1;"/>
<stop offset="1" style="stop-color:rgb(75.294119%,12.156863%,28.627452%);stop-opacity:1;"/>
</linearGradient>
<linearGradient id="linear6" gradientUnits="userSpaceOnUse" x1="32.197361" y1="0.142672" x2="-5.678353" y2="18.75322" gradientTransform="matrix(3.761429,0,0,3.864956,85.401564,37.116825)">
<stop offset="0" style="stop-color:rgb(99.607843%,91.764706%,1.568628%);stop-opacity:1;"/>
<stop offset="0.273413" style="stop-color:rgb(100%,91.37255%,0%);stop-opacity:1;"/>
<stop offset="0.461058" style="stop-color:rgb(100%,47.450981%,8.627451%);stop-opacity:1;"/>
<stop offset="0.762209" style="stop-color:rgb(100%,15.686275%,18.431373%);stop-opacity:1;"/>
<stop offset="1" style="stop-color:rgb(74.901962%,1.960784%,45.09804%);stop-opacity:1;"/>
</linearGradient>
<linearGradient id="linear7" gradientUnits="userSpaceOnUse" x1="14.469265" y1="8.629722" x2="11.539786" y2="12.34202" gradientTransform="matrix(4.526467,0,0,3.211723,85.401564,37.116825)">
<stop offset="0" style="stop-color:rgb(96.862745%,61.176473%,5.882353%);stop-opacity:1;"/>
<stop offset="1" style="stop-color:rgb(100%,40.784314%,10.980392%);stop-opacity:1;"/>
</linearGradient>
<linearGradient id="linear8" gradientUnits="userSpaceOnUse" x1="8.077597" y1="13.366281" x2="18.596542" y2="13.366281" gradientTransform="matrix(3.272437,0,0,4.442487,85.401564,37.116825)">
<stop offset="0" style="stop-color:rgb(100%,21.568628%,16.470589%);stop-opacity:1;"/>
<stop offset="0.787656" style="stop-color:rgb(100%,52.941179%,1.176471%);stop-opacity:1;"/>
<stop offset="1" style="stop-color:rgb(98.823529%,66.666669%,0%);stop-opacity:1;"/>
</linearGradient>
<linearGradient id="linear9" gradientUnits="userSpaceOnUse" x1="7.153334" y1="27.188509" x2="16.904842" y2="34.241055" gradientTransform="matrix(5.007574,0,0,2.903154,85.401564,37.116825)">
<stop offset="0" style="stop-color:rgb(85.09804%,22.745098%,12.54902%);stop-opacity:1;"/>
<stop offset="0.273637" style="stop-color:rgb(100%,30.19608%,11.764706%);stop-opacity:1;"/>
<stop offset="0.53454" style="stop-color:rgb(100%,52.941179%,1.176471%);stop-opacity:1;"/>
<stop offset="1" style="stop-color:rgb(100%,73.725492%,0.392157%);stop-opacity:1;"/>
</linearGradient>
<linearGradient id="linear10" gradientUnits="userSpaceOnUse" x1="8.895233" y1="23.837706" x2="13.753173" y2="32.737991" gradientTransform="matrix(4.168838,1.176102,-0.939136,3.222298,113.718269,26.971045)">
<stop offset="0" style="stop-color:rgb(89.019608%,19.215687%,12.156863%);stop-opacity:1;"/>
<stop offset="0.5" style="stop-color:rgb(94.509804%,27.843139%,9.803922%);stop-opacity:1;"/>
<stop offset="1" style="stop-color:rgb(91.764706%,17.254902%,8.627451%);stop-opacity:1;"/>
</linearGradient>
<linearGradient id="linear11" gradientUnits="userSpaceOnUse" x1="42.492016" y1="12.169349" x2="32.45351" y2="26.531118" gradientTransform="matrix(2.64845,0,0,5.489157,85.401564,37.116825)">
<stop offset="0" style="stop-color:rgb(100%,57.647061%,0.784314%);stop-opacity:1;"/>
<stop offset="0.317478" style="stop-color:rgb(100%,79.215688%,0%);stop-opacity:1;"/>
<stop offset="0.764996" style="stop-color:rgb(100%,48.235294%,8.627451%);stop-opacity:1;"/>
<stop offset="1" style="stop-color:rgb(100%,37.254903%,12.156863%);stop-opacity:0;"/>
</linearGradient>
<linearGradient id="linear12" gradientUnits="userSpaceOnUse" x1="41.485748" y1="1.414867" x2="54.231468" y2="20.434238" gradientTransform="matrix(2.527651,0,0,5.75149,85.401564,37.116825)">
<stop offset="0" style="stop-color:rgb(100%,94.509804%,31.37255%);stop-opacity:1;"/>
<stop offset="0.207749" style="stop-color:rgb(100%,93.333334%,29.803923%);stop-opacity:1;"/>
<stop offset="0.671774" style="stop-color:rgb(100%,80.392158%,15.686275%);stop-opacity:1;"/>
<stop offset="1" style="stop-color:rgb(100%,58.823532%,0.392157%);stop-opacity:1;"/>
</linearGradient>
<linearGradient id="linear13" gradientUnits="userSpaceOnUse" x1="42.777306" y1="2.010945" x2="49.98164" y2="23.211433" gradientTransform="matrix(2.336881,0,0,6.221009,85.401564,37.116825)">
<stop offset="0" style="stop-color:rgb(100%,92.156863%,0.784314%);stop-opacity:1;"/>
<stop offset="0.718377" style="stop-color:rgb(100%,67.450982%,0%);stop-opacity:1;"/>
<stop offset="1" style="stop-color:rgb(100%,45.490196%,9.019608%);stop-opacity:1;"/>
</linearGradient>
<linearGradient id="linear14" gradientUnits="userSpaceOnUse" x1="34.460911" y1="4.691528" x2="30.18177" y2="0.593637" gradientTransform="matrix(3.389675,0,0,4.288835,85.401564,37.116825)">
<stop offset="0" style="stop-color:rgb(100%,91.37255%,0%);stop-opacity:1;"/>
<stop offset="1" style="stop-color:rgb(100%,89.019608%,3.529412%);stop-opacity:1;"/>
</linearGradient>
</defs>
<g id="surface1">
<rect x="0" y="0" width="324" height="234" style="fill:url(#radial0);stroke:none;"/>
<path style="fill:none;stroke-width:1.021703;stroke-linecap:butt;stroke-linejoin:miter;stroke:rgb(100%,100%,100%);stroke-opacity:1;stroke-miterlimit:4;" d="M -0.94401 -1.082899 L 181.217448 -1.082899 L 181.217448 130.605469 L -0.94401 130.605469 Z M -0.94401 -1.082899 " transform="matrix(1.8,0,0,1.8,0,0)"/>
<path style=" stroke:none;fill-rule:evenodd;fill:url(#linear0);" d="M 206.847656 68.316406 C 205.164062 62.410156 206.125 57.207031 209.730469 52.71875 C 211.957031 57.652344 213.757812 61.199219 215.136719 63.355469 C 223.097656 75.808594 229.445312 85.128906 231.351562 92.074219 C 233.753906 100.820312 225.585938 92.902344 206.847656 68.316406 Z M 206.847656 68.316406 "/>
<path style=" stroke:none;fill-rule:evenodd;fill:url(#linear1);" d="M 234.957031 112.28125 L 238.558594 108.027344 C 238.800781 120.792969 237.480469 128.121094 234.597656 130.011719 "/>
<path style=" stroke:none;fill-rule:evenodd;fill:url(#linear2);" d="M 229.550781 149.867188 C 221.140625 160.03125 216.578125 165.464844 215.855469 166.175781 C 214.777344 167.238281 227.390625 163.339844 228.832031 157.3125 C 229.792969 153.292969 230.03125 150.8125 229.550781 149.867188 Z M 229.550781 149.867188 "/>
<path style=" stroke:none;fill-rule:evenodd;fill:url(#linear3);" d="M 204.324219 180.003906 L 183.0625 187.449219 C 192.671875 187.6875 198.4375 186.859375 200.359375 184.96875 C 202.28125 183.078125 203.605469 181.421875 204.324219 180.003906 Z M 204.324219 180.003906 "/>
<path style=" stroke:none;fill-rule:evenodd;fill:url(#linear4);" d="M 224.746094 116.539062 C 224.746094 152.046875 195.488281 180.832031 159.398438 180.832031 C 123.308594 180.832031 94.050781 152.046875 94.050781 116.539062 C 94.050781 81.03125 123.308594 52.246094 159.398438 52.246094 C 195.488281 52.246094 224.746094 81.03125 224.746094 116.539062 Z M 224.746094 116.539062 "/>
<path style=" stroke:none;fill-rule:evenodd;fill:url(#linear5);" d="M 115.671875 71.15625 C 109.1875 65.480469 106.664062 60.164062 108.105469 55.199219 C 100.65625 62.761719 97.171875 71.628906 97.652344 81.792969 "/>
<path style=" stroke:none;fill-rule:evenodd;fill:url(#linear6);" d="M 147.386719 85.335938 C 145.222656 84.273438 142.339844 82.5 141.980469 78.601562 C 141.621094 74.699219 126.125 64.773438 108.464844 72.574219 C 90.808594 80.371094 76.753906 115.828125 91.886719 149.511719 C 107.023438 183.195312 139.457031 194.539062 156.753906 195.25 C 174.054688 195.957031 189.550781 195.605469 200.722656 184.613281 C 196.878906 186.503906 191.472656 187.449219 184.503906 187.449219 C 191.367188 185.152344 196.269531 183.402344 199.210938 182.195312 C 218.222656 174.398438 228.214844 165.511719 229.191406 155.539062 C 227.585938 158.179688 226.144531 160.070312 224.867188 161.210938 C 223.5 162.433594 220.980469 163.96875 217.296875 165.820312 C 225.949219 156.128906 231.953125 147.265625 235.316406 139.230469 C 238.679688 131.191406 239.761719 120.792969 238.558594 108.027344 C 238.308594 113.972656 237.949219 118.226562 237.480469 120.792969 C 237.007812 123.355469 236.046875 126.3125 234.597656 129.65625 C 235.90625 119.859375 236.386719 113.121094 236.039062 109.445312 C 235.6875 105.769531 234.007812 99.863281 230.992188 91.71875 C 222.582031 76.589844 214.175781 66.191406 205.765625 60.519531 C 193.515625 48.460938 187.507812 41.015625 187.746094 38.179688 C 187.761719 38.027344 187.757812 37.910156 187.738281 37.824219 C 187.214844 35.59375 175.507812 57.660156 175.855469 66.546875 C 176.214844 75.761719 176.574219 89.945312 194.234375 101.292969 C 201.441406 113.347656 202.042969 125.636719 196.035156 138.164062 C 187.027344 156.957031 154.234375 166.175781 136.933594 143.484375 C 120.996094 122.574219 137.554688 109.09375 144.140625 104.484375 C 144.703125 104.089844 144.828125 102.960938 145.222656 102.710938 C 145.621094 102.460938 154 99.035156 157.835938 95.972656 C 160.394531 93.929688 161.980469 90.371094 161.800781 89.238281 C 161.355469 86.398438 149.546875 86.398438 147.386719 85.335938 Z M 147.386719 85.335938 "/>
<path style=" stroke:none;fill-rule:evenodd;fill:url(#linear7);" d="M 132.609375 72.21875 C 140.058594 65.835938 147.027344 63.589844 153.511719 65.480469 C 145.582031 72.101562 141.621094 76.828125 141.621094 79.664062 "/>
<path style=" stroke:none;fill-rule:evenodd;fill:url(#linear8);" d="M 132.609375 71.863281 C 140.058594 65.953125 147.027344 63.828125 153.511719 65.480469 C 145.34375 71.390625 140.660156 78.71875 139.457031 87.464844 C 138.976562 93.847656 140.539062 99.519531 144.140625 104.484375 C 143.660156 109.917969 143.0625 112.875 142.339844 113.347656 C 140.417969 113.582031 137.296875 112.992188 132.972656 111.574219 C 126.484375 109.445312 116.035156 119.019531 117.476562 126.109375 C 118.207031 129.703125 112.828125 119.910156 108.703125 108.6875 C 104.691406 97.761719 116.597656 78.261719 122.347656 75.890625 C 124.496094 75.003906 127.914062 73.664062 132.609375 71.863281 Z M 132.609375 71.863281 "/>
<path style=" stroke:none;fill-rule:evenodd;fill:url(#linear9);" d="M 149.546875 130.71875 C 150.988281 130.71875 151.617188 130.5 152.429688 130.367188 C 157.902344 128.710938 161.863281 127.882812 164.324219 127.882812 C 168.011719 127.882812 176.574219 131.785156 175.496094 136.746094 C 175.253906 137.691406 174.054688 138.519531 172.613281 138.164062 C 171.171875 137.691406 170.210938 137.574219 169.730469 137.8125 C 169.636719 137.855469 169.367188 137.992188 168.964844 138.195312 C 168.484375 138.496094 167.191406 139.136719 165.09375 140.109375 C 161.511719 141.851562 156.972656 143.980469 155.675781 144.191406 C 155.609375 144.203125 155.539062 144.214844 155.464844 144.230469 C 153.066406 144.914062 150.492188 145.257812 147.746094 145.257812 C 147.089844 145.257812 146.453125 145.242188 145.832031 145.214844 C 145.109375 145.183594 144.367188 145.128906 143.613281 145.039062 C 140.878906 144.730469 138.53125 144.09375 136.574219 143.128906 C 130.675781 140.976562 126.832031 139.324219 125.042969 138.164062 C 118.859375 134.167969 117.871094 130.859375 117.835938 130.71875 C 117.800781 130.578125 114.230469 119.375 119.996094 114.765625 C 125.761719 110.15625 130.300781 110.652344 136.574219 112.28125 C 137.683594 112.570312 139.605469 112.925781 142.339844 113.347656 C 134.171875 113.347656 131.050781 115.828125 132.972656 120.792969 C 134.867188 125.691406 140.183594 129.367188 149.1875 130.71875 Z M 149.546875 130.71875 "/>
<path style=" stroke:none;fill-rule:nonzero;fill:url(#linear10);" d="M 114.492188 119.46875 C 121.207031 105.128906 142.339844 113.347656 142.339844 113.347656 C 141.519531 113.796875 121.207031 120.691406 135.914062 139.230469 C 141.257812 145.964844 161.441406 158.730469 152.070312 155.183594 C 142.699219 151.640625 104.476562 140.785156 114.492188 119.46875 Z M 114.492188 119.46875 "/>
<path style=" stroke:none;fill-rule:evenodd;fill:url(#linear11);" d="M 199.640625 181.421875 C 200.445312 180.933594 206.964844 171.460938 208.648438 170.429688 C 214.894531 151.046875 216.457031 135.800781 213.335938 124.691406 C 210.210938 113.582031 203.363281 106.375 194.234375 101.644531 C 211.53125 123.15625 208.527344 146.675781 183.785156 173.621094 C 182.839844 174.648438 181.941406 175.636719 181.09375 176.585938 C 176.152344 180.015625 174.648438 181.984375 176.574219 182.484375 C 178.769531 183.058594 186.457031 182.703125 199.640625 181.421875 Z M 199.640625 181.421875 "/>
<path style=" stroke:none;fill-rule:evenodd;fill:url(#linear12);" d="M 205.765625 60.519531 C 214.175781 66.191406 222.582031 76.589844 230.992188 91.71875 C 234.40625 99.875 235.847656 105.546875 236.039062 109.445312 C 236.230469 113.347656 236.398438 118.664062 234.597656 129.300781 C 236.046875 125.957031 236.839844 123.355469 237.3125 120.792969 C 237.78125 118.226562 238.308594 113.972656 238.558594 108.027344 C 239.761719 120.792969 238.679688 131.191406 235.316406 139.230469 C 231.953125 147.265625 225.949219 156.128906 217.296875 165.820312 C 216.164062 166.933594 215.101562 167.902344 213.886719 169.011719 C 222.535156 113.347656 211.363281 115.121094 192.265625 94.554688 C 179.53125 80.84375 177.90625 61.9375 187.386719 37.824219 C 187.746094 37.472656 187.746094 37.824219 187.746094 38.179688 C 187.664062 41.09375 193.667969 48.613281 205.765625 60.519531 Z M 205.765625 60.519531 "/>
<path style=" stroke:none;fill-rule:evenodd;fill:url(#linear13);" d="M 187.386719 37.824219 C 169.128906 64.300781 171.410156 85.574219 194.234375 101.644531 C 228.46875 125.757812 205.203125 175.039062 200 180.359375 C 194.796875 185.675781 228.46875 171.847656 229.191406 155.539062 C 226.066406 160.03125 222.101562 163.457031 217.296875 165.820312 C 225.949219 132.019531 221.382812 109.683594 203.605469 98.808594 C 185.824219 87.9375 180.421875 67.609375 187.386719 37.824219 Z M 187.386719 37.824219 "/>
<path style=" stroke:none;fill-rule:evenodd;fill:url(#linear14);" d="M 204.933594 59.703125 C 205.40625 60.269531 205.699219 60.457031 205.339844 60.269531 C 195.789062 55.269531 187.136719 44.546875 187.738281 37.824219 C 188.414062 41.152344 194.132812 48.441406 204.933594 59.703125 Z M 204.933594 59.703125 "/>
</g>
</svg>
