<?xml version="1.0" encoding="UTF-8" standalone="no"?>
<svg
   xmlns:dc="http://purl.org/dc/elements/1.1/"
   xmlns:cc="http://creativecommons.org/ns#"
   xmlns:rdf="http://www.w3.org/1999/02/22-rdf-syntax-ns#"
   xmlns:svg="http://www.w3.org/2000/svg"
   xmlns="http://www.w3.org/2000/svg"
   xmlns:xlink="http://www.w3.org/1999/xlink"
   xmlns:sodipodi="http://sodipodi.sourceforge.net/DTD/sodipodi-0.dtd"
   xmlns:inkscape="http://www.inkscape.org/namespaces/inkscape"
   sodipodi:docname="firefox-developer-edition.svg"
   inkscape:version="0.92.4 (5da689c313, 2019-01-14)"
   width="324px"
   height="234px"
   viewBox="0 0 324 234"
   version="1.1"
   id="SVGRoot">
  <defs
     id="defs10">
    <linearGradient
       inkscape:collect="always"
       id="linearGradient1261">
      <stop
         style="stop-color:#1d1133;stop-opacity:1;"
         offset="0"
         id="stop1257" />
      <stop
         style="stop-color:#24153f;stop-opacity:1"
         offset="1"
         id="stop1259" />
    </linearGradient>
    <linearGradient
       inkscape:collect="always"
       id="linearGradient1208">
      <stop
         style="stop-color:#4e2e89;stop-opacity:1"
         offset="0"
         id="stop1204" />
      <stop
         style="stop-color:#330032;stop-opacity:0;"
         offset="1"
         id="stop1206" />
    </linearGradient>
    <inkscape:path-effect
       effect="bspline"
       id="path-effect1184"
       is_visible="true"
       weight="33.333333"
       steps="2"
       helper_size="0"
       apply_no_weight="true"
       apply_with_weight="true"
       only_selected="false" />
    <linearGradient
       inkscape:collect="always"
       id="linearGradient1166">
      <stop
         style="stop-color:#ad17e4;stop-opacity:1"
         offset="0"
         id="stop1162" />
      <stop
         style="stop-color:#9450fb;stop-opacity:1"
         offset="1"
         id="stop1164" />
    </linearGradient>
    <radialGradient
       gradientUnits="userSpaceOnUse"
       gradientTransform="translate(7978.7,8523.9959)"
       r="80.685997"
       cy="-8503.8613"
       cx="-7918.9229"
       id="radialGradient1158">
      <stop
         id="stop1150"
         stop-color="#fff44f"
         offset=".094"
         style="stop-color:#a09600;stop-opacity:1" />
      <stop
         id="stop1152"
         stop-color="#ffe141"
         offset=".231" />
      <stop
         id="stop1154"
         stop-color="#ffaf1e"
         offset=".509" />
      <stop
         id="stop1156"
         stop-color="#ff980e"
         offset=".626" />
    </radialGradient>
    <radialGradient
       gradientUnits="userSpaceOnUse"
       gradientTransform="translate(7978.7,8523.9959)"
       r="38.471001"
       cy="-8460.9844"
       cx="-7945.6479"
       id="radialGradient1148">
      <stop
         id="stop1146"
         stop-color="#c139e6"
         offset="1"
         style="stop-opacity:0;stop-color:#5ab500" />
    </radialGradient>
    <inkscape:path-effect
       effect="bspline"
       id="path-effect1078"
       is_visible="true"
       weight="33.333333"
       steps="2"
       helper_size="0"
       apply_no_weight="true"
       apply_with_weight="true"
       only_selected="false" />
    <inkscape:path-effect
       effect="bspline"
       id="path-effect1074"
       is_visible="true"
       weight="33.333333"
       steps="2"
       helper_size="0"
       apply_no_weight="true"
       apply_with_weight="true"
       only_selected="false" />
    <inkscape:path-effect
       effect="bspline"
       id="path-effect1075"
       is_visible="true"
       weight="33.333333"
       steps="2"
       helper_size="0"
       apply_no_weight="true"
       apply_with_weight="true"
       only_selected="false" />
    <linearGradient
       id="linearGradient991"
       inkscape:collect="always">
      <stop
         id="stop987"
         offset="0"
         style="stop-color:#71afd3;stop-opacity:1" />
      <stop
         id="stop989"
         offset="1"
         style="stop-color:#2c7dbd;stop-opacity:1" />
    </linearGradient>
    <radialGradient
       inkscape:collect="always"
       xlink:href="#linearGradient991"
       id="radialGradient985"
       cx="-178.41632"
       cy="529.35193"
       fx="-178.41632"
       fy="529.35193"
       r="90.402763"
       gradientTransform="matrix(0.60628339,-0.11601688,0.12271796,0.64130204,-1.0482536,-152.24847)"
       gradientUnits="userSpaceOnUse" />
    <linearGradient
       id="a"
       x1="70.786003"
       y1="12.393"
       x2="6.447"
       y2="74.468002"
       gradientUnits="userSpaceOnUse"
       gradientTransform="translate(3.7,-0.0040855)">
      <stop
         offset=".048"
         stop-color="#fff44f"
         id="stop834" />
      <stop
         offset=".111"
         stop-color="#ffe847"
         id="stop836" />
      <stop
         offset=".225"
         stop-color="#ffc830"
         id="stop838" />
      <stop
         offset=".368"
         stop-color="#ff980e"
         id="stop840" />
      <stop
         offset=".401"
         stop-color="#ff8b16"
         id="stop842" />
      <stop
         offset=".462"
         stop-color="#ff672a"
         id="stop844" />
      <stop
         offset=".534"
         stop-color="#ff3647"
         id="stop846" />
      <stop
         offset=".705"
         stop-color="#e31587"
         id="stop848" />
    </linearGradient>
    <radialGradient
       id="b"
       cx="-7907.187"
       cy="-8515.1211"
       r="80.796997"
       gradientTransform="translate(7978.7,8523.9959)"
       gradientUnits="userSpaceOnUse">
      <stop
         offset=".129"
         stop-color="#ffbd4f"
         id="stop851" />
      <stop
         offset=".186"
         stop-color="#ffac31"
         id="stop853" />
      <stop
         offset=".247"
         stop-color="#ff9d17"
         id="stop855" />
      <stop
         offset=".283"
         stop-color="#ff980e"
         id="stop857" />
      <stop
         offset=".403"
         stop-color="#ff563b"
         id="stop859" />
      <stop
         offset=".467"
         stop-color="#ff3750"
         id="stop861" />
      <stop
         offset=".71"
         stop-color="#f5156c"
         id="stop863" />
      <stop
         offset=".782"
         stop-color="#eb0878"
         id="stop865" />
      <stop
         offset=".86"
         stop-color="#e50080"
         id="stop867" />
    </radialGradient>
    <radialGradient
       id="c"
       cx="-7936.7109"
       cy="-8482.0889"
       r="80.796997"
       gradientTransform="translate(7978.7,8523.9959)"
       gradientUnits="userSpaceOnUse">
      <stop
         offset=".3"
         stop-color="#960e18"
         id="stop870" />
      <stop
         offset=".351"
         stop-color="#b11927"
         stop-opacity=".74"
         id="stop872" />
      <stop
         offset=".435"
         stop-color="#db293d"
         stop-opacity=".343"
         id="stop874" />
      <stop
         offset=".497"
         stop-color="#f5334b"
         stop-opacity=".094"
         id="stop876" />
      <stop
         offset=".53"
         stop-color="#ff3750"
         stop-opacity="0"
         id="stop878" />
    </radialGradient>
    <radialGradient
       id="d"
       cx="-7926.9702"
       cy="-8533.457"
       r="58.534"
       gradientTransform="translate(7978.7,8523.9959)"
       gradientUnits="userSpaceOnUse">
      <stop
         offset=".132"
         stop-color="#fff44f"
         id="stop881" />
      <stop
         offset=".252"
         stop-color="#ffdc3e"
         id="stop883" />
      <stop
         offset=".506"
         stop-color="#ff9d12"
         id="stop885" />
      <stop
         offset=".526"
         stop-color="#ff980e"
         id="stop887" />
    </radialGradient>
    <radialGradient
       id="e"
       cx="-7945.6479"
       cy="-8460.9844"
       r="38.471001"
       gradientTransform="translate(7978.7,8523.9959)"
       gradientUnits="userSpaceOnUse">
      <stop
         offset=".353"
         stop-color="#3a8ee6"
         id="stop890" />
      <stop
         offset=".472"
         stop-color="#5c79f0"
         id="stop892" />
      <stop
         offset=".669"
         stop-color="#9059ff"
         id="stop894" />
      <stop
         offset="1"
         stop-color="#c139e6"
         id="stop896" />
    </radialGradient>
    <radialGradient
       id="f"
       cx="-7935.6201"
       cy="-8491.5459"
       r="20.396999"
       gradientTransform="matrix(0.972,-0.235,0.275,1.138,10095.002,7833.7939)"
       gradientUnits="userSpaceOnUse">
      <stop
         offset=".206"
         stop-color="#9059ff"
         stop-opacity="0"
         id="stop899" />
      <stop
         offset=".278"
         stop-color="#8c4ff3"
         stop-opacity=".064"
         id="stop901" />
      <stop
         offset=".747"
         stop-color="#7716a8"
         stop-opacity=".45"
         id="stop903" />
      <stop
         offset=".975"
         stop-color="#6e008b"
         stop-opacity=".6"
         id="stop905" />
    </radialGradient>
    <radialGradient
       id="g"
       cx="-7937.731"
       cy="-8518.4268"
       r="27.676001"
       gradientTransform="translate(7978.7,8523.9959)"
       gradientUnits="userSpaceOnUse">
      <stop
         offset="0"
         stop-color="#ffe226"
         id="stop908" />
      <stop
         offset=".121"
         stop-color="#ffdb27"
         id="stop910" />
      <stop
         offset=".295"
         stop-color="#ffc82a"
         id="stop912" />
      <stop
         offset=".502"
         stop-color="#ffa930"
         id="stop914" />
      <stop
         offset=".732"
         stop-color="#ff7e37"
         id="stop916" />
      <stop
         offset=".792"
         stop-color="#ff7139"
         id="stop918" />
    </radialGradient>
    <radialGradient
       id="h"
       cx="-7915.9771"
       cy="-8535.9814"
       r="118.081"
       gradientTransform="translate(7978.7,8523.9959)"
       gradientUnits="userSpaceOnUse">
      <stop
         offset=".113"
         stop-color="#fff44f"
         id="stop921" />
      <stop
         offset=".456"
         stop-color="#ff980e"
         id="stop923" />
      <stop
         offset=".622"
         stop-color="#ff5634"
         id="stop925" />
      <stop
         offset=".716"
         stop-color="#ff3647"
         id="stop927" />
      <stop
         offset=".904"
         stop-color="#e31587"
         id="stop929" />
    </radialGradient>
    <radialGradient
       id="i"
       cx="-7927.165"
       cy="-8522.8594"
       r="86.499001"
       gradientTransform="matrix(0.105,0.995,-0.653,0.069,-4680.304,8470.1869)"
       gradientUnits="userSpaceOnUse">
      <stop
         offset="0"
         stop-color="#fff44f"
         id="stop932" />
      <stop
         offset=".06"
         stop-color="#ffe847"
         id="stop934" />
      <stop
         offset=".168"
         stop-color="#ffc830"
         id="stop936" />
      <stop
         offset=".304"
         stop-color="#ff980e"
         id="stop938" />
      <stop
         offset=".356"
         stop-color="#ff8b16"
         id="stop940" />
      <stop
         offset=".455"
         stop-color="#ff672a"
         id="stop942" />
      <stop
         offset=".57"
         stop-color="#ff3647"
         id="stop944" />
      <stop
         offset=".737"
         stop-color="#e31587"
         id="stop946" />
    </radialGradient>
    <radialGradient
       id="j"
       cx="-7938.3828"
       cy="-8508.1758"
       r="73.720001"
       gradientTransform="translate(7978.7,8523.9959)"
       gradientUnits="userSpaceOnUse">
      <stop
         offset=".137"
         stop-color="#fff44f"
         id="stop949" />
      <stop
         offset=".48"
         stop-color="#ff980e"
         id="stop951" />
      <stop
         offset=".592"
         stop-color="#ff5634"
         id="stop953" />
      <stop
         offset=".655"
         stop-color="#ff3647"
         id="stop955" />
      <stop
         offset=".904"
         stop-color="#e31587"
         id="stop957" />
    </radialGradient>
    <radialGradient
       id="k"
       cx="-7918.9229"
       cy="-8503.8613"
       r="80.685997"
       gradientTransform="translate(7978.7,8523.9959)"
       gradientUnits="userSpaceOnUse">
      <stop
         offset=".094"
         stop-color="#fff44f"
         id="stop960" />
      <stop
         offset=".231"
         stop-color="#ffe141"
         id="stop962" />
      <stop
         offset=".509"
         stop-color="#ffaf1e"
         id="stop964" />
      <stop
         offset=".626"
         stop-color="#ff980e"
         id="stop966" />
    </radialGradient>
    <linearGradient
       id="l"
       x1="70.013"
       y1="12.061"
       x2="15.267"
       y2="66.806"
       gradientUnits="userSpaceOnUse"
       gradientTransform="translate(3.7,-0.0040855)">
      <stop
         offset=".167"
         stop-color="#fff44f"
         stop-opacity=".8"
         id="stop969" />
      <stop
         offset=".266"
         stop-color="#fff44f"
         stop-opacity=".634"
         id="stop971" />
      <stop
         offset=".489"
         stop-color="#fff44f"
         stop-opacity=".217"
         id="stop973" />
      <stop
         offset=".6"
         stop-color="#fff44f"
         stop-opacity="0"
         id="stop975" />
    </linearGradient>
    <linearGradient
       inkscape:collect="always"
       xlink:href="#linearGradient1166"
       id="linearGradient1168"
       x1="-12.471017"
       y1="62.409931"
       x2="89.487404"
       y2="0.268673"
       gradientUnits="userSpaceOnUse" />
    <linearGradient
       inkscape:collect="always"
       xlink:href="#linearGradient1208"
       id="linearGradient1210"
       x1="2e-06"
       y1="133.72223"
       x2="172.22223"
       y2="-10.722211"
       gradientUnits="userSpaceOnUse" />
    <linearGradient
       inkscape:collect="always"
       xlink:href="#linearGradient1261"
       id="linearGradient1263"
       x1="0"
       y1="117"
       x2="324"
       y2="117"
       gradientUnits="userSpaceOnUse" />
    <linearGradient
       id="a-2"
       gradientUnits="userSpaceOnUse"
       x1="74.803001"
       x2="7.7420001"
       y1="20.542999"
       y2="62.785999">
      <stop
         offset="0"
         stop-color="#3fe1b0"
         id="stop2" />
      <stop
         offset=".406"
         stop-color="#00b3f4"
         id="stop4" />
      <stop
         offset=".421"
         stop-color="#03b0f4"
         id="stop6" />
      <stop
         offset=".818"
         stop-color="#5561e9"
         id="stop8" />
      <stop
         offset="1"
         stop-color="#7542e5"
         id="stop10" />
    </linearGradient>
    <radialGradient
       id="b-9"
       cx="67.813004"
       cy="8.8789997"
       gradientUnits="userSpaceOnUse"
       r="80.796997">
      <stop
         offset=".108"
         stop-color="#3fe1b0"
         id="stop13" />
      <stop
         offset=".122"
         stop-color="#3bdcb3"
         id="stop15" />
      <stop
         offset=".254"
         stop-color="#1bb3d3"
         id="stop17" />
      <stop
         offset=".358"
         stop-color="#0799e6"
         id="stop19" />
      <stop
         offset=".42"
         stop-color="#0090ed"
         id="stop21" />
      <stop
         offset=".487"
         stop-color="#2482f1"
         id="stop23" />
      <stop
         offset=".64"
         stop-color="#7165fb"
         id="stop25" />
      <stop
         offset=".71"
         stop-color="#9059ff"
         id="stop27" />
      <stop
         offset=".795"
         stop-color="#7d49ed"
         id="stop29" />
      <stop
         offset=".86"
         stop-color="#7542e5"
         id="stop31" />
    </radialGradient>
    <radialGradient
       id="c-3"
       cx="38.289001"
       cy="41.910999"
       gradientUnits="userSpaceOnUse"
       r="80.796997">
      <stop
         offset=".3"
         stop-color="#45278d"
         id="stop34" />
      <stop
         offset=".341"
         stop-color="#562896"
         stop-opacity=".787"
         id="stop36" />
      <stop
         offset=".43"
         stop-color="#782aa9"
         stop-opacity=".364"
         id="stop38" />
      <stop
         offset=".495"
         stop-color="#8d2bb5"
         stop-opacity=".1"
         id="stop40" />
      <stop
         offset=".53"
         stop-color="#952bb9"
         stop-opacity="0"
         id="stop42" />
    </radialGradient>
    <radialGradient
       id="d-1"
       cx="48.029999"
       cy="-9.4569998"
       gradientUnits="userSpaceOnUse"
       r="58.534">
      <stop
         offset=".132"
         stop-color="#3fe1b0"
         id="stop45" />
      <stop
         offset=".289"
         stop-color="#28d0c8"
         id="stop47" />
      <stop
         offset=".526"
         stop-color="#00b3f4"
         id="stop49" />
    </radialGradient>
    <radialGradient
       id="e-9"
       cx="29.351999"
       cy="63.015999"
       gradientUnits="userSpaceOnUse"
       r="38.471001">
      <stop
         offset=".287"
         stop-color="#0060df"
         id="stop52" />
      <stop
         offset=".417"
         stop-color="#2357e1"
         id="stop54" />
      <stop
         offset=".604"
         stop-color="#4f4ce3"
         id="stop56" />
      <stop
         offset=".748"
         stop-color="#6b45e4"
         id="stop58" />
      <stop
         offset=".833"
         stop-color="#7542e5"
         id="stop60" />
    </radialGradient>
    <radialGradient
       id="f-4"
       cx="-7935.6201"
       cy="-8491.5459"
       gradientTransform="matrix(0.972,-0.235,0.275,1.138,10091.302,7833.798)"
       gradientUnits="userSpaceOnUse"
       r="20.396999">
      <stop
         offset=".206"
         stop-color="#45278d"
         stop-opacity="0"
         id="stop63" />
      <stop
         offset=".251"
         stop-color="#44268a"
         stop-opacity=".055"
         id="stop65" />
      <stop
         offset=".725"
         stop-color="#371f6f"
         stop-opacity=".591"
         id="stop67" />
      <stop
         offset=".956"
         stop-color="#321c64"
         stop-opacity=".8"
         id="stop69" />
    </radialGradient>
    <radialGradient
       id="g-7"
       cx="31.355"
       cy="57.478001"
       gradientUnits="userSpaceOnUse"
       r="0.62599999">
      <stop
         offset=".353"
         stop-color="#3a8ee6"
         id="stop72" />
      <stop
         offset=".472"
         stop-color="#5c79f0"
         id="stop74" />
      <stop
         offset=".669"
         stop-color="#9059ff"
         id="stop76" />
      <stop
         offset="1"
         stop-color="#c139e6"
         id="stop78" />
    </radialGradient>
    <radialGradient
       id="h-8"
       cx="-7943.48"
       cy="-8466.749"
       gradientTransform="matrix(0.972,-0.235,0.275,1.138,10084.252,7828.516)"
       gradientUnits="userSpaceOnUse"
       r="0.22400001">
      <stop
         offset=".206"
         stop-color="#9059ff"
         stop-opacity="0"
         id="stop81" />
      <stop
         offset=".278"
         stop-color="#8c4ff3"
         stop-opacity=".064"
         id="stop83" />
      <stop
         offset=".747"
         stop-color="#7716a8"
         stop-opacity=".45"
         id="stop85" />
      <stop
         offset=".975"
         stop-color="#6e008b"
         stop-opacity=".6"
         id="stop87" />
    </radialGradient>
    <radialGradient
       id="i-4"
       cx="37.269001"
       cy="5.573"
       gradientUnits="userSpaceOnUse"
       r="27.676001">
      <stop
         offset="0"
         stop-color="#0df"
         id="stop90" />
      <stop
         offset=".235"
         stop-color="#00d6fd"
         id="stop92" />
      <stop
         offset=".572"
         stop-color="#00c3f8"
         id="stop94" />
      <stop
         offset=".792"
         stop-color="#00b3f4"
         id="stop96" />
    </radialGradient>
    <radialGradient
       id="j-5"
       cx="59.022999"
       cy="-11.981"
       gradientUnits="userSpaceOnUse"
       r="118.081">
      <stop
         offset=".126"
         stop-color="#3fe1b0"
         id="stop99" />
      <stop
         offset=".429"
         stop-color="#0df"
         id="stop101" />
      <stop
         offset=".479"
         stop-color="#1ec1ff"
         id="stop103" />
      <stop
         offset=".624"
         stop-color="#7077ff"
         id="stop105" />
      <stop
         offset=".69"
         stop-color="#9059ff"
         id="stop107" />
      <stop
         offset=".904"
         stop-color="#b833e1"
         id="stop109" />
    </radialGradient>
    <radialGradient
       id="k-0"
       cx="-7927.165"
       cy="-8522.8594"
       gradientTransform="matrix(0.105,0.995,-0.653,0.069,-4684.004,8470.191)"
       gradientUnits="userSpaceOnUse"
       r="86.499001">
      <stop
         offset="0"
         stop-color="#54ffbd"
         id="stop112" />
      <stop
         offset=".095"
         stop-color="#4cf3b8"
         id="stop114" />
      <stop
         offset=".197"
         stop-color="#3fe1b0"
         id="stop116" />
      <stop
         offset=".257"
         stop-color="#33d8bd"
         id="stop118" />
      <stop
         offset=".369"
         stop-color="#12c0e1"
         id="stop120" />
      <stop
         offset=".423"
         stop-color="#00b3f4"
         id="stop122" />
      <stop
         offset=".737"
         stop-color="#0060df"
         id="stop124" />
    </radialGradient>
    <radialGradient
       id="l-3"
       cx="36.617001"
       cy="15.824"
       gradientUnits="userSpaceOnUse"
       r="73.720001">
      <stop
         offset=".137"
         stop-color="#3fe1b0"
         id="stop127" />
      <stop
         offset=".435"
         stop-color="#0df"
         id="stop129" />
      <stop
         offset=".484"
         stop-color="#1ec1ff"
         id="stop131" />
      <stop
         offset=".622"
         stop-color="#7077ff"
         id="stop133" />
      <stop
         offset=".685"
         stop-color="#9059ff"
         id="stop135" />
    </radialGradient>
    <radialGradient
       id="m"
       cx="56.077"
       cy="20.139"
       gradientUnits="userSpaceOnUse"
       r="80.685997">
      <stop
         offset=".094"
         stop-color="#54ffbd"
         id="stop138" />
      <stop
         offset=".242"
         stop-color="#41f7cc"
         id="stop140" />
      <stop
         offset=".543"
         stop-color="#0fe3f3"
         id="stop142" />
      <stop
         offset=".626"
         stop-color="#0df"
         id="stop144" />
    </radialGradient>
    <linearGradient
       id="n"
       gradientUnits="userSpaceOnUse"
       x1="70.013"
       x2="15.267"
       y1="12.061"
       y2="66.806">
      <stop
         offset=".167"
         stop-color="#54ffbd"
         stop-opacity=".8"
         id="stop147" />
      <stop
         offset=".236"
         stop-color="#43f8ca"
         stop-opacity=".639"
         id="stop149" />
      <stop
         offset=".361"
         stop-color="#27ede1"
         stop-opacity=".368"
         id="stop151" />
      <stop
         offset=".466"
         stop-color="#12e4f1"
         stop-opacity=".169"
         id="stop153" />
      <stop
         offset=".545"
         stop-color="#05dffb"
         stop-opacity=".046"
         id="stop155" />
      <stop
         offset=".589"
         stop-color="#0df"
         stop-opacity="0"
         id="stop157" />
    </linearGradient>
    <linearGradient
       gradientUnits="userSpaceOnUse"
       gradientTransform="matrix(0.68850122,0,0,1.4524303,-1.253,-0.0040855)"
       id="f-3"
       y2="41.13639"
       x2="91.017916"
       y1="-3.6041653"
       x1="84.162507">
      <stop
         id="stop4518"
         offset="0%"
         stop-color="#AAF2FF" />
      <stop
         id="stop4520"
         offset="29%"
         stop-color="#0DF" />
      <stop
         id="stop4522"
         offset="61%"
         stop-color="#0090ED" />
      <stop
         id="stop4524"
         offset="89%"
         stop-color="#0250BB" />
    </linearGradient>
    <linearGradient
       gradientUnits="userSpaceOnUse"
       gradientTransform="matrix(0.76778732,0,0,1.302444,-1.253,-0.0040855)"
       id="g-6"
       y2="30.04963"
       x2="65.723448"
       y1="0.0084456605"
       x1="59.666758">
      <stop
         id="stop4527"
         offset="0%"
         stop-color="#AAF2FF" />
      <stop
         id="stop4529"
         offset="29%"
         stop-color="#0DF" />
      <stop
         id="stop4531"
         offset="74%"
         stop-color="#0090ED" />
      <stop
         id="stop4533"
         offset="100%"
         stop-color="#0250BB" />
    </linearGradient>
    <linearGradient
       gradientUnits="userSpaceOnUse"
       gradientTransform="matrix(0.98436701,0,0,1.0158813,-1.253,-0.0040855)"
       id="k-7"
       y2="66.148209"
       x2="17.021516"
       y1="11.815484"
       x1="68.991951">
      <stop
         id="stop4536"
         offset="24%"
         stop-opacity=".5"
         stop-color="#80EBFF" />
      <stop
         id="stop4538"
         offset="70%"
         stop-opacity="0"
         stop-color="#0DF" />
    </linearGradient>
    <linearGradient
       gradientUnits="userSpaceOnUse"
       gradientTransform="matrix(1.0303045,0,0,0.97058681,-1.253,-0.0040855)"
       id="l-5"
       y2="60.567246"
       x2="25.120728"
       y1="33.089982"
       x1="32.20606">
      <stop
         id="stop4541"
         offset="0%"
         stop-opacity=".9"
         stop-color="#BFF3FF" />
      <stop
         id="stop4543"
         offset="100%"
         stop-opacity=".5"
         stop-color="#80EBFF" />
    </linearGradient>
    <linearGradient
       gradientUnits="userSpaceOnUse"
       gradientTransform="matrix(0.6427176,0,0,1.5558933,-1.253,-0.0040855)"
       id="m-3"
       y2="57.468"
       x2="93.769229"
       y1="-0.82379484"
       x1="95.00948">
      <stop
         id="stop4546"
         offset="0%"
         stop-color="#BFF3FF" />
      <stop
         id="stop4548"
         offset="100%"
         stop-opacity="0"
         stop-color="#0DF" />
    </linearGradient>
    <linearGradient
       gradientUnits="userSpaceOnUse"
       gradientTransform="matrix(0.81544499,0,0,1.2263243,-1.253,-0.0040855)"
       id="n-5"
       y2="23.111472"
       x2="55.329029"
       y1="-0.63725394"
       x1="56.136809">
      <stop
         id="stop4551"
         offset="0%"
         stop-color="#BFF3FF" />
      <stop
         id="stop4553"
         offset="100%"
         stop-opacity=".5"
         stop-color="#AAF2FF" />
    </linearGradient>
    <linearGradient
       gradientUnits="userSpaceOnUse"
       gradientTransform="matrix(0.89134572,0,0,1.1218991,-1.253,-0.0040855)"
       id="o"
       y2="64.107624"
       x2="56.715938"
       y1="25.308982"
       x1="58.332547">
      <stop
         id="stop4556"
         offset="0%"
         stop-color="#BFF3FF" />
      <stop
         id="stop4558"
         offset="100%"
         stop-opacity="0"
         stop-color="#0DF" />
    </linearGradient>
    <linearGradient
       gradientUnits="userSpaceOnUse"
       gradientTransform="matrix(1.0625225,0,0,0.94115655,-1.253,-0.0040855)"
       id="p"
       y2="66.491219"
       x2="25.866492"
       y1="33.093102"
       x1="23.729013">
      <stop
         id="stop4561"
         offset="0%"
         stop-opacity=".8"
         stop-color="#BFF3FF" />
      <stop
         id="stop4563"
         offset="100%"
         stop-opacity=".2"
         stop-color="#80EBFF" />
    </linearGradient>
    <linearGradient
       gradientUnits="userSpaceOnUse"
       gradientTransform="matrix(0.97978943,0,0,1.0206275,-1.253,-0.0040855)"
       id="q"
       y2="26.988456"
       x2="20.563929"
       y1="12.974803"
       x1="29.194854">
      <stop
         id="stop4566"
         offset="0%"
         stop-opacity=".8"
         stop-color="#BFF3FF" />
      <stop
         id="stop4568"
         offset="100%"
         stop-opacity=".2"
         stop-color="#80EBFF" />
    </linearGradient>
    <linearGradient
       gradientUnits="userSpaceOnUse"
       gradientTransform="matrix(0.79999508,0,0,1.2500077,-1.253,-0.0040855)"
       id="r"
       y2="74.324791"
       x2="16.874854"
       y1="29.405515"
       x1="18.502363">
      <stop
         id="stop4571"
         offset="0%"
         stop-opacity=".4"
         stop-color="#0DF" />
      <stop
         id="stop4573"
         offset="100%"
         stop-opacity="0"
         stop-color="#0DF" />
    </linearGradient>
    <linearGradient
       gradientUnits="userSpaceOnUse"
       gradientTransform="matrix(0.7947955,0,0,1.2581853,-1.253,-0.0040855)"
       id="s"
       y2="57.367839"
       x2="25.577994"
       y1="4.5553229"
       x1="25.577994">
      <stop
         id="stop4576"
         offset="0%"
         stop-color="#BFF3FF" />
      <stop
         id="stop4578"
         offset="100%"
         stop-opacity="0"
         stop-color="#0DF" />
    </linearGradient>
    <linearGradient
       gradientUnits="userSpaceOnUse"
       gradientTransform="matrix(0.84431494,0,0,1.1843922,-1.253,-0.0040855)"
       id="t"
       y2="89.877264"
       x2="65.108376"
       y1="12.77847"
       x1="68.298669">
      <stop
         id="stop4581"
         offset="0%"
         stop-opacity=".8"
         stop-color="#BFF3FF" />
      <stop
         id="stop4583"
         offset="100%"
         stop-opacity="0"
         stop-color="#0DF" />
    </linearGradient>
    <linearGradient
       id="u"
       y2="0.33000001"
       x2="1.1"
       y1="0.66000003"
       x1="-0.1">
      <stop
         id="stop4586"
         stop-color="#0250bb"
         offset="0" />
      <stop
         id="stop4588"
         stop-color="#024eb6"
         offset=".123" />
      <stop
         id="stop4590"
         stop-color="#054096"
         offset="1" />
    </linearGradient>
    <radialGradient
       gradientUnits="userSpaceOnUse"
       fy="30.945195"
       fx="42.067258"
       gradientTransform="matrix(1.0002649,0,0,0.99973519,-1.253,-0.0040855)"
       id="a-6"
       r="22.6548"
       cy="30.945195"
       cx="42.067258">
      <stop
         id="stop4593"
         offset="10%"
         stop-opacity=".4"
         stop-color="#0DF" />
      <stop
         id="stop4595"
         offset="90%"
         stop-opacity=".25"
         stop-color="#7542E5" />
    </radialGradient>
    <radialGradient
       gradientUnits="userSpaceOnUse"
       gradientTransform="matrix(1.0002649,0,0,0.99973519,-1.253,-0.0040855)"
       id="b-2"
       r="19.256579"
       fy="41.404161"
       fx="39.801778"
       cy="41.404161"
       cx="39.891641">
      <stop
         id="stop4598"
         offset="91%"
         stop-opacity="0"
         stop-color="#7542E5" />
      <stop
         id="stop4600"
         offset="100%"
         stop-opacity=".4"
         stop-color="#0DF" />
    </radialGradient>
    <radialGradient
       gradientUnits="userSpaceOnUse"
       id="c-9"
       gradientTransform="matrix(1.1097029,0,0,0.9011421,-1.253,-0.0040855)"
       r="89.40317"
       fy="9.810463"
       fx="61.200493"
       cy="9.810463"
       cx="61.200493">
      <stop
         id="stop4603"
         offset="0%"
         stop-color="#80EBFF" />
      <stop
         id="stop4605"
         offset="26%"
         stop-color="#0DF" />
      <stop
         id="stop4607"
         offset="53%"
         stop-color="#0090ED" />
      <stop
         id="stop4609"
         offset="86%"
         stop-color="#0060DF" />
    </radialGradient>
    <radialGradient
       gradientUnits="userSpaceOnUse"
       id="d-12"
       gradientTransform="matrix(1.1097029,0,0,0.9011421,-1.253,-0.0040855)"
       r="89.40317"
       fy="46.828964"
       fx="34.658925"
       cy="46.828964"
       cx="34.469642">
      <stop
         id="stop4612"
         offset="30%"
         stop-opacity=".8"
         stop-color="#321C64" />
      <stop
         id="stop4614"
         offset="37%"
         stop-opacity=".5"
         stop-color="#212F83" />
      <stop
         id="stop4616"
         offset="48%"
         stop-opacity=".14"
         stop-color="#0A47AC" />
      <stop
         id="stop4618"
         offset="53%"
         stop-opacity="0"
         stop-color="#0250BB" />
    </radialGradient>
    <radialGradient
       gradientUnits="userSpaceOnUse"
       fy="-19.160243"
       fx="61.191901"
       id="e-7"
       gradientTransform="matrix(1.0919471,0,0,0.91579529,-1.253,-0.0040855)"
       r="139.74019"
       cy="-19.160243"
       cx="61.191901">
      <stop
         id="stop4621"
         offset="0%"
         stop-color="#80EBFF" />
      <stop
         id="stop4623"
         offset="47%"
         stop-color="#00B3F4" />
      <stop
         id="stop4625"
         offset="84%"
         stop-color="#0060DF" />
      <stop
         id="stop4627"
         offset="100%"
         stop-color="#592ACB" />
    </radialGradient>
    <radialGradient
       gradientUnits="userSpaceOnUse"
       id="h-0"
       gradientTransform="matrix(0.99878516,0,0,1.0012163,-1.253,-0.0040855)"
       r="28.381479"
       fy="5.5633535"
       fx="37.300233"
       cy="5.5633535"
       cx="37.300233">
      <stop
         id="stop4630"
         offset="0%"
         stop-color="#0DF" />
      <stop
         id="stop4632"
         offset="82%"
         stop-color="#0090ED" />
    </radialGradient>
    <radialGradient
       gradientUnits="userSpaceOnUse"
       id="i-9"
       gradientTransform="matrix(1.0572963,0,0,0.94580871,-1.253,-0.0040855)"
       r="85.359636"
       fy="21.181153"
       fx="52.950815"
       cy="21.181153"
       cx="52.950815">
      <stop
         id="stop4635"
         offset="29%"
         stop-color="#80EBFF" />
      <stop
         id="stop4637"
         offset="100%"
         stop-color="#00B3F4" />
    </radialGradient>
    <radialGradient
       gradientUnits="userSpaceOnUse"
       id="j-3"
       gradientTransform="matrix(1.0100225,0,0,0.99007695,-1.253,-0.0040855)"
       r="71.746958"
       fy="15.884185"
       fx="36.138845"
       cy="15.884185"
       cx="36.138845">
      <stop
         id="stop4640"
         offset="18%"
         stop-color="#AAF2FF" />
      <stop
         id="stop4642"
         offset="43%"
         stop-color="#0DF" />
      <stop
         id="stop4644"
         offset="69%"
         stop-color="#0060DF" />
    </radialGradient>
  </defs>
  <sodipodi:namedview
     inkscape:pagecheckerboard="true"
     inkscape:window-maximized="1"
     inkscape:window-y="0"
     inkscape:window-x="0"
     inkscape:window-height="1040"
     inkscape:window-width="1920"
     showgrid="false"
     inkscape:document-rotation="0"
     inkscape:current-layer="layer1"
     inkscape:document-units="px"
     inkscape:cy="159.87981"
     inkscape:cx="152.82622"
     inkscape:zoom="1.979899"
     inkscape:pageshadow="2"
     inkscape:pageopacity="0.0"
     borderopacity="1.0"
     bordercolor="#666666"
     pagecolor="#ffffff"
     id="base"
     inkscape:snap-global="true"
     inkscape:snap-bbox="true"
     inkscape:bbox-nodes="true"
     inkscape:bbox-paths="true"
     inkscape:snap-bbox-edge-midpoints="true"
     inkscape:snap-bbox-midpoints="true"
     inkscape:object-paths="true"
     inkscape:snap-intersection-paths="true"
     inkscape:snap-smooth-nodes="true"
     inkscape:snap-midpoints="true">
    <sodipodi:guide
       id="guide137"
       orientation="163.80001,0"
       position="243.9,198.9"
       inkscape:locked="false" />
    <sodipodi:guide
       id="guide139"
       orientation="0,-101.49202"
       position="243.9,35.099996"
       inkscape:locked="false" />
    <sodipodi:guide
       id="guide141"
       orientation="0,-62.30799"
       position="142.40799,35.099996"
       inkscape:locked="false" />
    <sodipodi:guide
       id="guide143"
       orientation="-163.80001,0"
       position="80.099996,35.099996"
       inkscape:locked="false" />
    <sodipodi:guide
       id="guide145"
       orientation="0,62.30799"
       position="80.099996,198.9"
       inkscape:locked="false" />
    <sodipodi:guide
       id="guide147"
       orientation="0,101.49202"
       position="142.40799,198.9"
       inkscape:locked="false" />
    <sodipodi:guide
       position="-8.1802135e-15,234"
       orientation="234.00001,0"
       id="guide1053"
       inkscape:locked="false" />
    <sodipodi:guide
       position="-8.1802135e-15,-7.9863281e-06"
       orientation="0,324"
       id="guide1055"
       inkscape:locked="false" />
    <sodipodi:guide
       position="324,-7.9863281e-06"
       orientation="-234.00001,0"
       id="guide1057"
       inkscape:locked="false" />
    <sodipodi:guide
       position="324,234"
       orientation="0,-324"
       id="guide1059"
       inkscape:locked="false" />
  </sodipodi:namedview>
  <metadata
     id="metadata13">
    <rdf:RDF>
      <cc:Work
         rdf:about="">
        <dc:format>image/svg+xml</dc:format>
        <dc:type
           rdf:resource="http://purl.org/dc/dcmitype/StillImage" />
        <dc:title />
      </cc:Work>
    </rdf:RDF>
  </metadata>
  <g
     id="layer1"
     inkscape:groupmode="layer"
     inkscape:label="Capa 1">
    <g
       transform="matrix(1.62,0,0,1.62,-3.24e-6,17.369997)"
       id="g55">
      <path
         style="opacity:1;fill:url(#linearGradient1263);fill-opacity:1;fill-rule:evenodd;stroke:none;stroke-width:4.97206211;stroke-miterlimit:4;stroke-dasharray:none;stroke-opacity:0.078125;paint-order:markers fill stroke"
         d="M 0 0 L 0 201.77539 L 0 234 L 324 234 L 324 41.333984 L 324 0 L 0 0 z "
         transform="matrix(0.61728395,0,0,0.61728395,2e-6,-10.72222)"
         id="rect1049" />
      <path
         style="opacity:1;fill:url(#linearGradient1210);fill-opacity:1;fill-rule:evenodd;stroke:none;stroke-width:3.06917405;stroke-miterlimit:4;stroke-dasharray:none;stroke-opacity:0.078125;paint-order:markers fill stroke"
         d="M 172.22223,-10.722211 H 2e-6 V 113.8305 133.72223 H 27.77778 Z"
         id="path1187"
         inkscape:connector-curvature="0" />
      <path
         inkscape:connector-curvature="0"
         style="opacity:1;fill:url(#linearGradient1168);fill-opacity:1;fill-rule:evenodd;stroke:none;stroke-width:3.06917405;stroke-miterlimit:4;stroke-dasharray:none;stroke-opacity:0.078125;paint-order:markers fill stroke"
         d="M 147.24755,-10.722219 H 2e-6 v 84.592014 c 1.557421,-1.23256 3.107322,-2.48919 4.667004,-3.71456 7.462147,-5.86266 14.953045,-11.63434 22.501929,-17.22125 3.774442,-2.79346 7.563349,-5.54081 11.370323,-8.23086 3.806973,-2.69005 7.632092,-5.32237 11.478829,-7.88604 3.846737,-2.56367 7.715305,-5.0582 11.609037,-7.47251 3.89373,-2.41431 7.811785,-4.74828 11.759742,-6.99026 3.947957,-2.24198 7.925117,-4.39253 11.927321,-6.46219 4.002213,-2.06966 8.030023,-4.05842 12.079233,-5.97873 4.04922,-1.92032 8.12046,-3.77127 12.20945,-5.56521 4.08898,-1.79394 8.19521,-3.53105005 12.31674,-5.22159105 8.24306,-3.38108635 16.54482,-6.57829035 24.87461,-9.68364195 0.15075,-0.0562 0.30256,-0.109033 0.45333,-0.165171 z"
         id="path1081" />
    </g>
    <g
       id="g1047"
       transform="matrix(1.619434,0,0,1.619434,124.80357,76.884424)">
      <path
         sodipodi:nodetypes="cccccccccccccccc"
         inkscape:connector-curvature="0"
         id="path1237"
         d="m 87.61533,32.022958 c 21.91883,12.833826 33.30709,53.082078 33.99156,64.965748 -1.01769,-0.06982 -89.150416,-10e-6 -89.150416,-10e-6 0.510246,-1.521858 0.897355,-3.077431 1.490434,-4.574241 3.791609,-9.123272 11.484856,-18.974545 17.50777,-22.088427 -4.29591,8.319741 -7.277205,17.254359 -8.83753,26.486815 l -0.01802,0.145844 C 52.465415,72.360498 69.197609,62.442317 82.86226,40.84547 c 0.691227,-1.092006 1.381213,-2.186105 2.054426,-3.341144 0.385011,-0.659706 0.694935,-1.254267 0.96287,-1.801396 0.566731,-1.097503 1.003815,-2.256068 1.30173,-3.454796 -8.42e-4,-0.114524 0.08358,-0.211443 0.197234,-0.225176 0.05385,-0.01487 0.11117,-0.01487 0.165021,0 0.01156,0 0.02957,0.01913 0.04295,0.02362 0.01322,0.0046 0.04196,0.02526 0.06211,0.03424 z"
         style="fill:#271744;fill-opacity:1;stroke-width:2.25154853" />
    </g>
    <path
       style="fill:#301d55;fill-opacity:1;stroke-width:2.67509484"
       d="m 268.2753,156.9735 c -26.04208,15.24804 -39.57385,63.06751 -40.38707,77.18666 1.07133,-0.0736 75.09847,-0.0138 93.85005,0 v -0.0789 c -11.7247,-29.19137 -31.59025,-40.97967 -47.8168,-66.62554 -0.82126,-1.29743 -1.64106,-2.59734 -2.44091,-3.96965 -0.45743,-0.78382 -0.82567,-1.49021 -1.144,-2.14026 -0.67335,-1.30396 -1.19262,-2.68047 -1.5466,-4.10469 7.9e-4,-0.13606 -0.0994,-0.25123 -0.23441,-0.26754 -0.064,-0.0176 -0.13225,-0.0176 -0.19619,0 -0.0134,0 -0.035,0.0227 -0.051,0.028 -0.016,0.006 -0.0497,0.0302 -0.0738,0.0407 z"
       id="path1223"
       inkscape:connector-curvature="0" />
    <g
       id="g1496"
       transform="matrix(2.0969358,0,0,2.048171,81.36113,35.1)">
      <path
         style="fill:#09204d"
         inkscape:connector-curvature="0"
         id="path4649"
         d="m 21.108,46.624915 2.442,6.77 3.669,4.951 8.614,1.644 4.121,0.35 7.036,-1.758 3.031,-2.905 z" />
      <path
         style="fill:#09204d"
         inkscape:connector-curvature="0"
         id="path4651"
         d="m 57.565,36.637915 -0.863,-2.862 -2.466,-4.654 -2.821,-2.974 -2.995,-2.139 -2.6,-1.02 -3.12,-1.11 -5.137,-0.327 -3.24,0.584 -2.643,0.813 -4.69,2.745 -2.931,3.271 -2.703,4.39 -1.063,3.736 -0.199,5.669 1.014,3.865 2.236,4.4 1.576,2.125 2.181,2 2.723,1.842 3.358,1.461 5.619,0.659 2.935,0.082 4.342,-1.223 3.882,-2.131 2.497,-2.131 1.937,-2.31 2.738,-5.36 0.604,-3.667 z" />
      <path
         style="fill:#0e56d7"
         inkscape:connector-curvature="0"
         id="path4653"
         d="m 37.657,24.127915 -2.301,2.282 3.753,1.522 2.792,-3.463 z" />
      <path
         style="fill:#1053d1"
         inkscape:connector-curvature="0"
         id="path4655"
         d="m 39.109,27.931915 7.266,-0.221 -4.474,-3.242 z" />
      <path
         style="fill:#0b4fbf"
         inkscape:connector-curvature="0"
         id="path4657"
         d="m 45.835,24.444915 -3.934,0.024 4.474,3.242 4.137,-0.27 z" />
      <path
         style="fill:#0b48b0"
         inkscape:connector-curvature="0"
         id="path4659"
         d="m 50.512,27.440915 -2.352,-3.243 3.255,1.95 z" />
      <path
         style="fill:#0c45a7"
         inkscape:connector-curvature="0"
         id="path4661"
         d="m 53.626,29.426915 -3.114,-1.986 0.903,-1.293 z" />
      <path
         style="fill:#0f46af"
         inkscape:connector-curvature="0"
         id="path4663"
         d="m 50.512,27.440915 -0.521,2.222 2.848,1.139 z" />
      <path
         style="fill:#0c47ad"
         inkscape:connector-curvature="0"
         id="path4665"
         d="m 50.512,27.440915 3.114,1.986 -0.787,1.375 z" />
      <path
         style="fill:#0e4fc3"
         inkscape:connector-curvature="0"
         id="path4667"
         d="m 46.375,27.710915 4.137,-0.27 -0.521,2.222 z" />
      <path
         style="fill:#174dca"
         inkscape:connector-curvature="0"
         id="path4669"
         d="m 46.375,27.710915 -3.269,2.96 4.207,2.06 z" />
      <path
         style="fill:#1650d4"
         inkscape:connector-curvature="0"
         id="path4671"
         d="m 39.109,27.931915 7.266,-0.221 -3.269,2.96 z" />
      <path
         style="fill:#1246b2"
         inkscape:connector-curvature="0"
         id="path4673"
         d="m 49.991,29.662915 1.978,3.838 0.87,-2.699 z" />
      <path
         style="fill:#133ea1"
         inkscape:connector-curvature="0"
         id="path4675"
         d="m 51.969,33.500915 0.87,-2.699 2.073,4.93 z" />
      <path
         style="fill:#103d98"
         inkscape:connector-curvature="0"
         id="path4677"
         d="m 52.839,30.801915 3.159,2.314 -1.086,2.616 z" />
      <path
         style="fill:#0b3785"
         inkscape:connector-curvature="0"
         id="path4679"
         d="m 53.626,29.426915 0.61,-0.305 1.762,3.994 z" />
      <path
         style="fill:#0b3685"
         inkscape:connector-curvature="0"
         id="path4681"
         d="m 55.998,33.115915 0.704,0.66 -2.466,-4.654 z" />
      <path
         style="fill:#0c3b91"
         inkscape:connector-curvature="0"
         id="path4683"
         d="m 55.998,33.115915 -2.372,-3.689 -0.787,1.375 z m -4.583,-6.968 2.211,3.279 0.61,-0.3 z" />
      <path
         style="fill:#0b3279"
         inkscape:connector-curvature="0"
         id="path4685"
         d="m 57.406,38.873915 -0.704,-5.098 0.863,2.862 -0.17,2.236 z" />
      <path
         style="fill:#0f388d"
         inkscape:connector-curvature="0"
         id="path4687"
         d="m 55.998,33.115915 1.408,5.758 -0.704,-5.098 z" />
      <path
         style="fill:#0d3481"
         inkscape:connector-curvature="0"
         id="path4689"
         d="m 54.912,35.731915 2.494,3.142 -1.408,-5.758 z" />
      <path
         style="fill:#0b2e71"
         inkscape:connector-curvature="0"
         id="path4691"
         d="m 57.395,38.873915 0.17,-2.236 0.171,5.734 -0.33,-3.498 z" />
      <path
         style="fill:#0e2f77"
         inkscape:connector-curvature="0"
         id="path4693"
         d="m 56.988,43.405915 0.748,-1.034 -0.33,-3.498 z" />
      <path
         style="fill:#0e2969"
         inkscape:connector-curvature="0"
         id="path4695"
         d="m 57.132,46.038915 -0.598,0.288 1.202,-3.955 z" />
      <path
         style="fill:#0c2a69"
         inkscape:connector-curvature="0"
         id="path4697"
         d="m 56.534,46.326915 1.202,-3.955 -0.748,1.034 z" />
      <path
         style="fill:#123180"
         inkscape:connector-curvature="0"
         id="path4699"
         d="m 56.988,43.405915 0.418,-4.532 -1.281,1.511 z" />
      <path
         style="fill:#112b70"
         inkscape:connector-curvature="0"
         id="path4701"
         d="m 56.534,46.326915 0.454,-2.921 -2.471,4.153 z" />
      <path
         style="fill:#12378c"
         inkscape:connector-curvature="0"
         id="path4703"
         d="m 54.912,35.731915 2.494,3.142 -1.281,1.511 z" />
      <path
         style="fill:#122e7b"
         inkscape:connector-curvature="0"
         id="path4705"
         d="m 56.988,43.405915 -0.863,-3.021 -1.303,3.72 z" />
      <path
         style="fill:#11296c"
         inkscape:connector-curvature="0"
         id="path4707"
         d="m 54.394,51.398915 2.14,-5.072 -2.002,3.697 z" />
      <path
         style="fill:#142a72"
         inkscape:connector-curvature="0"
         id="path4709"
         d="m 54.532,50.023915 2.002,-3.697 -2.017,1.232 z" />
      <path
         style="fill:#112768"
         inkscape:connector-curvature="0"
         id="path4711"
         d="m 56.534,46.326915 -2.14,5.069 2.738,-5.36 z m -4.076,7.382 1.936,-2.31 0.138,-1.375 z m -2.5,2.131 2.5,-2.131 -2.64,1.214 z" />
      <path
         style="fill:#1c226a"
         inkscape:connector-curvature="0"
         id="path4713"
         d="m 35.384,57.323915 -2.523,0.618 0.077,-1.762 z" />
      <path
         style="fill:#182b7a"
         inkscape:connector-curvature="0"
         id="path4715"
         d="m 21.356,33.354915 0.696,-0.258 -1.759,3.994 z" />
      <path
         style="fill:#1f308d"
         inkscape:connector-curvature="0"
         id="path4717"
         d="m 20.293,37.090915 1.332,-0.248 0.427,-3.746 z" />
      <path
         style="fill:#1e2b7f"
         inkscape:connector-curvature="0"
         id="path4719"
         d="m 20.373,41.887915 -0.08,-4.797 1.332,-0.248 z" />
      <path
         style="fill:#1346b5"
         inkscape:connector-curvature="0"
         id="path4721"
         d="m 49.991,29.662915 -2.678,3.068 4.656,0.77 z m -23.368,-3.146 3.418,-2.339 -3.051,1.518 z" />
      <path
         style="fill:#1244ac"
         inkscape:connector-curvature="0"
         id="path4723"
         d="m 26.99,25.693915 4.69,-2.745 -1.639,1.229 -3.051,1.516" />
      <path
         style="fill:#0e4ab6"
         inkscape:connector-curvature="0"
         id="path4725"
         d="m 30.041,24.177915 4.282,-2.042 -2.643,0.813 z" />
      <path
         style="fill:#0e4bba"
         inkscape:connector-curvature="0"
         id="path4727"
         d="m 46.375,27.710915 0.938,5.02 2.678,-3.068 z m -13.728,-3.771 3.99,-1.6 -2.316,-0.208 z" />
      <path
         style="fill:#0a4ebc"
         inkscape:connector-curvature="0"
         id="path4729"
         d="m 37.563,21.551915 -3.24,0.584 2.316,0.208 z" />
      <path
         style="fill:#0c54cc"
         inkscape:connector-curvature="0"
         id="path4731"
         d="m 40.627,22.304915 -3.988,0.039 0.924,-0.792" />
      <path
         style="fill:#0b4bb4"
         inkscape:connector-curvature="0"
         id="path4733"
         d="m 48.16,24.195915 -2.325,0.247 4.677,3 z m -7.533,-1.891 5.193,0.684 -3.12,-1.11 z" />
      <path
         style="fill:#0c3889"
         inkscape:connector-curvature="0"
         id="path4735"
         d="m 48.16,24.197915 -2.34,-1.209 2.6,1.02 z" />
      <path
         style="fill:#202575"
         inkscape:connector-curvature="0"
         id="path4737"
         d="m 21.108,46.624915 1.539,1.263 -2.27,-6 z m 21.189,11.933 1.35,-3.178 -4.919,1.321 z m 1.35,-3.178 4.112,1.141 0.249,-3.18 z" />
      <path
         style="fill:#1b2773"
         inkscape:connector-curvature="0"
         id="path4739"
         d="m 49.818,54.922915 -1.81,-1.582 4.373,-2.906 z" />
      <path
         style="fill:#15276d"
         inkscape:connector-curvature="0"
         id="path4741"
         d="m 52.381,50.434915 -2.563,4.488 2.64,-1.214 2.074,-3.685 z" />
      <path
         style="fill:#0c409d"
         inkscape:connector-curvature="0"
         id="path4743"
         d="m 48.42,24.008915 -0.26,0.189 3.255,1.95 z m -2.585,0.436 2.325,-0.247 -2.34,-1.209 z" />
      <path
         style="fill:#0b4cb7"
         inkscape:connector-curvature="0"
         id="path4745"
         d="m 37.563,21.551915 3.064,0.753 2.073,-0.426 z m 8.257,1.437 -5.193,-0.684 5.208,2.14 z" />
      <path
         style="fill:#0b55ce"
         inkscape:connector-curvature="0"
         id="path4747"
         d="m 40.627,22.304915 1.274,2.164 3.934,-0.024 z" />
      <path
         style="fill:#0a52c5"
         inkscape:connector-curvature="0"
         id="path4749"
         d="m 40.627,22.304915 1.274,2.164 -4.244,-0.341 z" />
      <path
         style="fill:#0951c4"
         inkscape:connector-curvature="0"
         id="path4751"
         d="m 36.639,22.343915 1.018,1.784 2.97,-1.823 z" />
      <path
         style="fill:#0b50c4"
         inkscape:connector-curvature="0"
         id="path4753"
         d="m 32.649,23.939915 3.99,-1.596 1.018,1.784 z" />
      <path
         style="fill:#0f4dbf"
         inkscape:connector-curvature="0"
         id="path4755"
         d="m 30.041,24.177915 2.608,-0.238 1.674,-1.8 z m 2.608,-0.238 2.707,2.47 2.3,-2.282 z" />
      <path
         style="fill:#1546b6"
         inkscape:connector-curvature="0"
         id="path4757"
         d="m 32.649,23.939915 -4.407,4.133 1.799,-3.895 z" />
      <path
         style="fill:#1549bd"
         inkscape:connector-curvature="0"
         id="path4759"
         d="m 28.242,28.072915 2.812,0.467 1.595,-4.6 z" />
      <path
         style="fill:#144bc3"
         inkscape:connector-curvature="0"
         id="path4761"
         d="m 31.054,28.539915 1.595,-4.6 2.707,2.47 z" />
      <path
         style="fill:#173794"
         inkscape:connector-curvature="0"
         id="path4763"
         d="m 24.059,28.964915 0.171,1.662 2.393,-4.11 z" />
      <path
         style="fill:#192f84"
         inkscape:connector-curvature="0"
         id="path4765"
         d="m 22.052,33.096915 2.007,-4.132 0.171,1.662 z" />
      <path
         style="fill:#1a389b"
         inkscape:connector-curvature="0"
         id="path4767"
         d="m 24.23,30.626915 2.393,-4.11 1.619,1.556 z" />
      <path
         style="fill:#1d3089"
         inkscape:connector-curvature="0"
         id="path4769"
         d="m 24.085,34.190915 0.145,-3.564 -2.178,2.47 z" />
      <path
         style="fill:#1e389f"
         inkscape:connector-curvature="0"
         id="path4771"
         d="m 24.085,34.190915 0.145,-3.564 2.827,2.295 z" />
      <path
         style="fill:#1c40af"
         inkscape:connector-curvature="0"
         id="path4773"
         d="m 27.057,32.921915 1.185,-4.849 -4.012,2.554 z" />
      <path
         style="fill:#1e41b7"
         inkscape:connector-curvature="0"
         id="path4775"
         d="m 27.057,32.921915 1.185,-4.849 2.812,0.467 z" />
      <path
         style="fill:#192c7d"
         inkscape:connector-curvature="0"
         id="path4777"
         d="m 21.625,36.842915 0.427,-3.746 2.033,1.094 z" />
      <path
         style="fill:#162467"
         inkscape:connector-curvature="0"
         id="path4779"
         d="m 42.297,58.557915 3.781,-0.587 1.681,-1.45 z m -22.2,-15.8 0.279,-0.872 -0.08,-4.8 z m 1.531,-5.917 -1.252,5.045 2.27,6 -1.111,-6.95 z" />
      <path
         style="fill:#1a236a"
         inkscape:connector-curvature="0"
         id="path4781"
         d="m 22.643,47.887915 1.873,0.263 -1.312,-3.062 z" />
      <path
         style="fill:#132668"
         inkscape:connector-curvature="0"
         id="path4783"
         d="m 49.818,54.922915 -2.059,1.6 -1.681,1.45 3.882,-2.131 z m -11.017,4.189 2.935,0.082 4.342,-1.223 -3.781,0.587 z m -14.41,-7.742 1.968,0.378 -1.843,-3.6 z" />
      <path
         style="fill:#1b2268"
         inkscape:connector-curvature="0"
         id="path4785"
         d="m 32.938,56.179915 -3.333,-2.566 -1.385,1.333 4.641,2.995 z m -11.83,-9.555 2.236,4.4 -0.7,-3.137 z m -1.014,-3.865 1.014,3.865 -0.735,-4.737 z m 18.634,13.941 -5.79,-0.521 2.446,1.144 -2.523,0.618 -3.037,-0.946 3.358,1.461 5.619,0.659 3.5,-0.554 z m -14.212,-8.55 -1.869,-0.263 1.748,3.482 z m -2.981,-7.215 1.112,6.952 0.561,-2.8 z m 4.824,10.812 -1.968,-0.378 -1.044,-0.345 1.576,2.125 2.181,2 2.72,1.846 -1.6,-2.045 z" />
      <path
         style="fill:#212a81"
         inkscape:connector-curvature="0"
         id="path4787"
         d="m 21.625,36.842915 2.643,4.089 -0.183,-6.741 z" />
      <path
         style="fill:#21267a"
         inkscape:connector-curvature="0"
         id="path4789"
         d="m 21.535,40.935915 1.669,4.153 1.064,-4.157 z" />
      <path
         style="fill:#262781"
         inkscape:connector-curvature="0"
         id="path4791"
         d="m 23.204,45.088915 1.064,-4.157 1.321,3.285 z" />
      <path
         style="fill:#272379"
         inkscape:connector-curvature="0"
         id="path4793"
         d="m 24.516,48.150915 5.068,3.141 -3.995,-7.075 z" />
      <path
         style="fill:#1e226d"
         inkscape:connector-curvature="0"
         id="path4795"
         d="m 23.347,51.024915 1.047,0.345 -1.747,-3.482 z m 11.194,1.807 -1.6,3.348 5.79,0.521 z m -10.025,-4.681 1.843,3.6 1.861,3.2 1.385,-1.333 -0.021,-2.322 z" />
      <path
         style="fill:#222475"
         inkscape:connector-curvature="0"
         id="path4797"
         d="m 48.008,53.340915 -0.249,3.18 2.059,-1.6 z m -8.861,-0.457 -0.421,3.817 4.921,-1.321 -0.175,-4.291 z" />
      <path
         style="fill:#23277d"
         inkscape:connector-curvature="0"
         id="path4799"
         d="m 21.535,40.935915 h 2.733 l -2.643,-4.089 z m 21.937,10.153 0.175,4.291 4.361,-2.039 z" />
      <path
         style="fill:#1e2776"
         inkscape:connector-curvature="0"
         id="path4801"
         d="m 43.472,51.088915 2.807,-2.542 1.729,4.794 z" />
      <path
         style="fill:#222b86"
         inkscape:connector-curvature="0"
         id="path4803"
         d="m 48.008,53.340915 2.122,-6.427 -3.851,1.633 z" />
      <path
         style="fill:#192974"
         inkscape:connector-curvature="0"
         id="path4805"
         d="m 52.381,50.434915 -4.373,2.906 2.122,-6.427 z" />
      <path
         style="fill:#172a75"
         inkscape:connector-curvature="0"
         id="path4807"
         d="m 54.517,47.558915 -4.387,-0.645 2.251,3.521 2.151,-0.411 z" />
      <path
         style="fill:#172d7d"
         inkscape:connector-curvature="0"
         id="path4809"
         d="m 54.822,44.104915 -4.692,2.809 4.387,0.645 2.471,-4.154 z" />
      <path
         style="fill:#18338a"
         inkscape:connector-curvature="0"
         id="path4811"
         d="m 22.052,33.095915 2.007,-4.132 -2.7,4.39 z m 31.02,5.115 1.75,5.893 1.3,-3.72 z" />
      <path
         style="fill:#153791"
         inkscape:connector-curvature="0"
         id="path4813"
         d="m 56.125,40.384915 -1.213,-4.653 -1.84,2.48 z" />
      <path
         style="fill:#1b318b"
         inkscape:connector-curvature="0"
         id="path4815"
         d="m 50.13,46.913915 4.692,-2.809 -4.547,-2.024 z" />
      <path
         style="fill:#242d8d"
         inkscape:connector-curvature="0"
         id="path4817"
         d="m 50.13,46.913915 -4.252,-4.296 0.401,5.929 z" />
      <path
         style="fill:#2a2b8f"
         inkscape:connector-curvature="0"
         id="path4819"
         d="m 43.472,51.088915 -3.265,-2.891 6.072,0.349 z" />
      <path
         style="fill:#27267f"
         inkscape:connector-curvature="0"
         id="path4821"
         d="m 24.516,48.150915 1.073,-3.934 -2.385,0.872 z m 15.691,0.045 -1.06,4.688 4.323,-1.795 z" />
      <path
         style="fill:#2d2381"
         inkscape:connector-curvature="0"
         id="path4823"
         d="m 33.449,49.156915 -3.142,-1.598 -0.723,3.733 4.954,1.54 4.611,0.052 z" />
      <path
         style="fill:#2f2485"
         inkscape:connector-curvature="0"
         id="path4825"
         d="m 39.149,52.883915 1.058,-4.686 -6.758,0.959 z" />
      <path
         style="fill:#233196"
         inkscape:connector-curvature="0"
         id="path4827"
         d="m 24.268,40.931915 1.355,-4.328 -1.538,-2.413 z" />
      <path
         style="fill:#293cb7"
         inkscape:connector-curvature="0"
         id="path4829"
         d="m 27.057,32.921915 5.95,-1.734 -3.143,6.421 z" />
      <path
         style="fill:#25339c"
         inkscape:connector-curvature="0"
         id="path4831"
         d="m 50.13,46.913915 -4.252,-4.296 4.397,-0.537 z" />
      <path
         style="fill:#19348f"
         inkscape:connector-curvature="0"
         id="path4833"
         d="m 54.822,44.104915 -1.75,-5.893 -2.797,3.869 z" />
      <path
         style="fill:#2a309a"
         inkscape:connector-curvature="0"
         id="path4835"
         d="m 46.279,48.546915 -4.863,-4.702 4.462,-1.227 z" />
      <path
         style="fill:#302b96"
         inkscape:connector-curvature="0"
         id="path4837"
         d="m 40.207,48.197915 6.072,0.349 -4.863,-4.702 z" />
      <path
         style="fill:#3630a7"
         inkscape:connector-curvature="0"
         id="path4839"
         d="m 40.207,48.197915 -3.325,-2.708 4.534,-1.645 z" />
      <path
         style="fill:#173da2"
         inkscape:connector-curvature="0"
         id="path4841"
         d="m 26.623,26.516915 0.367,-0.823 -2.931,3.271 z m 25.346,6.984 1.1,4.711 1.84,-2.48 z" />
      <path
         style="fill:#2a36a8"
         inkscape:connector-curvature="0"
         id="path4843"
         d="m 27.057,32.921915 2.807,4.687 -4.241,-1.005 z" />
      <path
         style="fill:#312e9f"
         inkscape:connector-curvature="0"
         id="path4845"
         d="m 25.623,36.603915 4.241,1.005 -2.868,4.517 z" />
      <path
         style="fill:#184dcd"
         inkscape:connector-curvature="0"
         id="path4847"
         d="m 33.007,31.187915 2.349,-4.778 -4.302,2.13 z" />
      <path
         style="fill:#272986"
         inkscape:connector-curvature="0"
         id="path4849"
         d="m 24.268,40.931915 2.728,1.194 -1.407,2.091 z" />
      <path
         style="fill:#2c2584"
         inkscape:connector-curvature="0"
         id="path4851"
         d="m 26.996,42.125915 -1.407,2.091 3.995,7.075 0.723,-3.733 z" />
      <path
         style="fill:#32268b"
         inkscape:connector-curvature="0"
         id="path4853"
         d="m 30.307,47.558915 0.442,-6.573 -3.753,1.14 z" />
      <path
         style="fill:#372999"
         inkscape:connector-curvature="0"
         id="path4855"
         d="m 30.307,47.558915 6.575,-2.069 -6.133,-4.504 z" />
      <path
         style="fill:#392da5"
         inkscape:connector-curvature="0"
         id="path4857"
         d="m 36.882,45.489915 -0.641,-5.082 -5.492,0.578 z" />
      <path
         style="fill:#3338bc"
         inkscape:connector-curvature="0"
         id="path4859"
         d="m 36.241,40.407915 4.638,-1.734 0.537,5.171 z" />
      <path
         style="fill:#362896"
         inkscape:connector-curvature="0"
         id="path4861"
         d="m 33.449,49.156915 6.758,-0.959 -3.325,-2.708 z" />
      <path
         style="fill:#35268f"
         inkscape:connector-curvature="0"
         id="path4863"
         d="m 33.449,49.156915 -3.142,-1.598 6.575,-2.069 z" />
      <path
         style="fill:#2648d3"
         inkscape:connector-curvature="0"
         id="path4865"
         d="m 33.007,31.187915 4.027,0.426 -1.678,-5.204 z" />
      <path
         style="fill:#1057dc"
         inkscape:connector-curvature="0"
         id="path4867"
         d="m 39.109,27.931915 -3.753,-1.522 1.678,5.204 z" />
      <path
         style="fill:#1653da"
         inkscape:connector-curvature="0"
         id="path4869"
         d="m 39.109,27.931915 3.997,2.739 -6.072,0.943 z" />
      <path
         style="fill:#2b46d5"
         inkscape:connector-curvature="0"
         id="path4871"
         d="m 37.034,31.613915 5.956,3.159 -2.111,3.901 z" />
      <path
         style="fill:#244ad7"
         inkscape:connector-curvature="0"
         id="path4873"
         d="m 42.99,34.772915 0.116,-4.102 -6.072,0.943 z" />
      <path
         style="fill:#2547cf"
         inkscape:connector-curvature="0"
         id="path4875"
         d="m 42.99,34.772915 0.116,-4.102 4.207,2.06 z" />
      <path
         style="fill:#333cc5"
         inkscape:connector-curvature="0"
         id="path4877"
         d="m 37.034,31.613915 3.845,7.06 -6.743,-3.378 z" />
      <path
         style="fill:#3833b6"
         inkscape:connector-curvature="0"
         id="path4879"
         d="m 36.241,40.407915 4.638,-1.734 -6.743,-3.378 z" />
      <path
         style="fill:#2a41c6"
         inkscape:connector-curvature="0"
         id="path4881"
         d="m 40.879,38.673915 5.947,-1.087 -3.836,-2.814 z" />
      <path
         style="fill:#2045c1"
         inkscape:connector-curvature="0"
         id="path4883"
         d="m 47.313,32.730915 -0.487,4.856 -3.836,-2.814 z" />
      <path
         style="fill:#1b43b7"
         inkscape:connector-curvature="0"
         id="path4885"
         d="m 47.313,32.730915 2.807,3.813 -3.294,1.043 z" />
      <path
         style="fill:#1742af"
         inkscape:connector-curvature="0"
         id="path4887"
         d="m 51.969,33.500915 -4.656,-0.77 2.807,3.813 z" />
      <path
         style="fill:#1740a9"
         inkscape:connector-curvature="0"
         id="path4889"
         d="m 28.247,28.072915 1.8,-3.9 -3.418,2.339 z m 23.727,5.428 -1.849,3.043 2.952,1.668 z" />
      <path
         style="fill:#1b3ca4"
         inkscape:connector-curvature="0"
         id="path4891"
         d="m 50.275,42.080915 2.797,-3.869 -2.952,-1.668 z" />
      <path
         style="fill:#1f3dad"
         inkscape:connector-curvature="0"
         id="path4893"
         d="m 50.275,42.080915 -0.155,-5.537 -3.294,1.043 z" />
      <path
         style="fill:#2543c3"
         inkscape:connector-curvature="0"
         id="path4895"
         d="m 27.057,32.921915 5.95,-1.734 -1.953,-2.648 z m 13.822,5.752 5,3.944 0.948,-5.031 z" />
      <path
         style="fill:#2e37b2"
         inkscape:connector-curvature="0"
         id="path4897"
         d="m 41.416,43.844915 4.462,-1.227 -4.999,-3.944 z" />
      <path
         style="fill:#2d40c7"
         inkscape:connector-curvature="0"
         id="path4899"
         d="m 33.007,31.187915 1.129,4.108 2.898,-3.682 z" />
      <path
         style="fill:#3537b8"
         inkscape:connector-curvature="0"
         id="path4901"
         d="m 33.007,31.187915 -3.143,6.421 4.272,-2.313 z" />
      <path
         style="fill:#3931b0"
         inkscape:connector-curvature="0"
         id="path4903"
         d="m 34.136,35.295915 -3.387,5.69 5.492,-0.578 z" />
      <path
         style="fill:#3735b8"
         inkscape:connector-curvature="0"
         id="path4905"
         d="m 36.241,40.407915 0.641,5.082 4.534,-1.645 z m -5.494,0.578 3.387,-5.69 -4.272,2.313 z" />
      <path
         style="fill:#342892"
         inkscape:connector-curvature="0"
         id="path4907"
         d="m 26.996,42.125915 2.868,-4.517 0.885,3.377 z" />
      <path
         style="fill:#232372"
         inkscape:connector-curvature="0"
         id="path4909"
         d="m 29.824,56.995915 3.037,0.95 -4.641,-2.995 z m -0.219,-3.378 3.333,2.566 1.6,-3.348 -4.954,-1.54 z m 9.123,3.087 0.421,-3.817 -4.611,-0.052 z m 4.919,-1.325 -1.35,3.178 5.462,-2.037 z" />
      <path
         style="fill:#2a2f96"
         inkscape:connector-curvature="0"
         id="path4911"
         d="m 24.268,40.931915 1.355,-4.328 1.373,5.522 z" />
      <path
         style="fill:#2636a5"
         inkscape:connector-curvature="0"
         id="path4913"
         d="m 25.623,36.603915 1.434,-3.682 -2.971,1.274 z m 21.2,0.983 -0.948,5.031 4.4,-0.537 z" />
      <path
         style="fill:url(#a-6)"
         inkscape:connector-curvature="0"
         id="path4915"
         d="m 57.821,42.376915 v -0.008 l -0.174,-5.734 v -0.02 l -0.862,-2.861 v -0.006 l -2.466,-4.654 -2.842,-3.004 h -0.006 l -2.994,-2.137 h -0.012 l -2.6,-1.02 h -0.018 l -3.12,-1.11 h -0.021 l -5.137,-0.327 h -0.022 l -3.24,0.585 h -0.012 l -2.641,0.812 h -0.017 l -4.69,2.728 -2.93,3.269 -2.7,4.389 v 0.011 l -1.064,3.736 v 0.014 l -0.2,5.669 v 0.027 l 1.013,3.862 v 0.013 l 2.235,4.4 v 0.007 l 1.546,2.178 v 0.005 l 2.18,2 h 0.006 l 2.723,1.842 h 0.006 l 3.358,1.46 h 0.021 l 5.619,0.659 h 0.008 l 2.934,0.082 h 0.023 l 4.342,-1.224 h 0.015 l 3.88,-2.13 0.007,-0.005 h 0.005 l 2.5,-2.13 1.936,-2.311 0.007,-0.01 2.738,-5.36 v -0.021 l 0.6,-3.665 v -0.009 z m -30.667,12.706 -0.565,-0.518 1.27,0.995 z m 8.242,2.153 -1.985,-0.928 4.7,0.423 z m 0.723,-16.9 -5.21,0.548 3.213,-5.4 z m -1.818,-4.863 6.366,3.189 -4.379,1.634 z m 1.866,5.028 0.606,4.8 -5.8,-4.257 z m 0.53,4.958 -6.3,1.982 0.423,-6.3 z m -0.35,-4.878 4.881,3.241 -4.276,1.552 z m 0.078,-0.152 4.38,-1.638 0.507,4.884 z m 6.729,-5.641 4.059,-1.916 -0.458,4.559 z m 3.462,2.751 -5.58,1.02 1.982,-3.663 z m -5.739,0.957 -3.63,-6.675 5.631,2.986 z m -0.2,-0.019 -6.408,-3.21 2.754,-3.5 z m -9.895,2.292 -0.817,-3.118 3.943,-2.134 z m -0.54,6.518 -3.116,-5.111 3.53,-1.073 z m 6.359,-1.619 -3.168,3.384 -2.9,-1.474 z m 4.691,-1.687 -1.13,4.07 -3.115,-2.532 z m -0.306,-5.116 4.71,3.715 -4.2,1.157 z m 0.094,-0.142 5.641,-1.03 -0.9,4.771 z m 5.845,-1.255 0.452,-4.509 2.606,3.54 z m 3.115,-0.81 0.144,5.163 -3.216,-4.189 z m -6.959,-2.021 0.108,-3.832 3.931,1.925 z m -0.17,0 -5.61,-2.976 5.719,-0.888 z m -8.736,0.477 -1.051,-3.826 3.751,0.4 z m -0.137,0.143 -3.981,2.151 2.928,-5.981 z m -3.391,5.672 -3.455,1.05 2.641,-4.161 z m -0.625,6.323 -4.316,-3.056 1.287,-1.911 z m 0.348,0.434 2.9,1.474 -3.566,1.97 z m 6.521,-2.08 3.114,2.536 -6.328,0.9 z m 4.57,-1.6 4.6,4.444 -5.739,-0.329 z m 0.122,-0.118 4.218,-1.16 0.379,5.606 z m 5.292,-6.1 3.243,4.225 -4.134,0.5 z m 3.335,-1.1 2.737,1.551 -2.6,3.589 z m 0.029,-0.178 1.7,-2.791 1.008,4.324 z m -0.125,-0.122 -2.608,-3.542 4.327,0.715 z m -6.857,-5.742 3.063,-2.773 0.879,4.705 z m -6.062,0.854 1.944,-3.449 3.744,2.566 z m -4.058,-0.384 2.2,-4.48 1.574,4.88 z m -3.28,6.315 -2.67,-4.458 5.659,-1.65 z m -2.826,4.483 -1.292,-5.195 3.99,0.945 z m -1.423,2.122 -1.184,-2.94 2.445,1.07 z m 4.605,3.56 -0.666,3.453 -3.7,-6.544 z m 3.185,1.685 1.013,3.422 -4.612,-1.434 z m 6.7,-0.983 -1.005,4.448 -5.409,-3.538 z m 5.974,0.321 -2.6,2.355 -3.025,-2.678 z m -0.094,-5.781 4,4.046 -3.627,1.538 z m 0.082,-0.158 4.127,-0.5 -0.14,4.534 z m 6.98,-4.279 1.648,5.551 -4.284,-1.906 z m -0.935,-4.692 2.689,2.039 -1.681,2.266 z m -4.628,-1.037 2.5,-2.859 1.843,3.576 z m -0.113,-0.129 -0.873,-4.673 3.366,1.817 z m -4.265,-1.98 -3.728,-2.554 6.776,-0.206 z m -6.043,0.84 -1.563,-4.846 3.495,1.417 z m -4.064,-0.378 -1.809,-2.454 3.987,-1.975 z m -0.125,0.116 -5.544,1.616 3.724,-4.083 z m -3.179,6.339 -3.95,-0.936 1.336,-3.429 z m -2.816,4.5 -2.5,-1.095 1.243,-3.967 z m -1.394,2.187 -2.151,0.787 0.959,-3.75 z m 3.869,6.878 -4.732,-2.933 1,-3.674 z m 4.819,1.76 -4.477,0.71 -0.019,-2.108 z m -0.57,-3.451 5.264,3.442 -4.259,-0.048 z m 6.663,-1 3.055,2.706 -4.046,1.68 z m 5.988,0.342 1.615,4.476 -4.236,-2.1 z m 0.144,-0.1 3.6,-1.528 -1.986,6.015 z m 3.97,-6.384 4.283,1.906 -4.419,2.646 z m 2.867,-3.786 2.8,1.993 -1.2,3.413 z m -0.031,-0.231 1.683,-2.268 1.109,4.256 z m -1.124,-4.724 0.774,-2.425 1.861,4.428 z m -0.117,-0.189 -1.786,-3.456 2.564,1.025 z m -5.277,-5.5 3.729,-0.244 -0.47,2 z m -7.383,0.065 2.625,-3.257 4.208,3.049 z m -0.155,-0.078 -1.352,-3.541 3.95,0.318 z m -0.176,0.016 -3.453,-1.4 2.117,-2.1 z m -7.758,0.593 1.485,-4.284 2.521,2.3 z m -3.983,4.247 1.087,-4.451 2.581,0.429 z m -1.614,3.8 -1.394,-2.189 2.694,-1.15 z m -0.074,0.2 -1.192,3.8 -0.16,-5.926 z m -1.373,4.4 -0.972,3.8 -1.525,-3.8 z m -2.536,-0.166 0.081,-3.729 2.409,3.726 z m 3.842,3.5 -0.971,3.537 -1.18,-2.757 z m 3.876,6.888 -2.933,0.415 -1.676,-3.272 z m 0.16,0.148 0.019,2.078 -2.9,-1.669 z m 4.891,1.552 -1.489,3.102 -3.094,-2.382 z m 0.174,0.031 3.918,3.618 -5.421,-0.488 z m 0.192,-0.053 4.3,0.049 -0.392,3.557 z m 8.635,-1.7 0.164,4.018 -4.214,-2.347 z m 0.171,0.015 4.25,2.11 -4.086,1.91 z m 6.592,-4.118 2.11,3.3 -4.1,2.724 z m 0.147,-0.086 4.062,0.6 -1.983,2.65 z m 0.075,-0.16 4.346,-2.6 -0.283,3.2 z m 5.74,-6.2 0.767,2.685 -1.925,0.622 z m -1.026,-4.58 2.2,2.772 -1.13,1.334 z m -2.06,-5.049 2.859,2.094 -0.983,2.367 z m -2.946,-1.439 0.461,-1.965 2.058,2.972 z m -3.643,-1.986 -0.5,-3 4.3,2.754 z m -0.189,-0.1 -4.1,-2.969 3.6,-0.023 z m -8.335,-3.458 2.675,-1.642 1.149,1.95 z m -2.569,2.232 -2.477,-2.26 4.581,0.172 z m -4.357,2.149 -2.572,-0.428 4.031,-3.78 z m -3.99,4.327 -2.632,-2.137 3.735,-2.378 z m -0.112,0.128 -2.719,1.16 0.132,-3.261 z m -2.72,7.732 -2.443,-3.779 2.274,-2.452 z m -1.059,4.464 -0.463,2.312 -0.915,-5.741 z m 0.118,0.276 1.145,2.673 -1.632,-0.228 z m 2.97,6.259 -1.726,-0.335 0.11,-2.822 z m 3.261,2 -1.226,1.179 -1.647,-2.831 z m 0.146,0.094 2.945,2.271 -4.169,-1.09 z m 9.608,-0.706 4.2,2.332 -4.6,1.235 z m 8.693,0.459 -0.23,2.933 -3.791,-1.053 z m 4.218,-2.775 -2.334,4.093 -1.649,-1.446 z m 2.3,-2.89 0.012,2.14 -1.867,0.357 z m 0.468,-3.645 1.9,-0.614 -2.164,3.642 z m 1.317,-3.764 1.078,-1.271 -0.346,3.813 z m -1.209,-4.686 0.968,-2.331 1.254,5.129 z m -2.059,-4.94 0.68,-1.187 2.049,3.186 z m -0.118,-0.135 -2.012,-2.9 2.692,1.716 z m -6.749,-6.139 2.036,-0.217 2.06,2.841 z m -4.135,-0.12 -1.121,-1.905 4.584,1.884 z m -4.262,-0.374 -0.9,-1.582 3.538,-0.036 z m -0.18,0.027 -4.456,-0.167 3.551,-1.419 z m -9,3.676 1.6,-3.455 2.314,-0.211 z m -0.287,0.216 -1.458,-1.4 3.078,-2.106 z m -0.109,0.13 -3.627,2.309 2.167,-3.715 z m -4.1,5.993 -1.82,-0.979 1.95,-2.211 z m -0.057,0.161 -2.212,2.383 0.384,-3.365 z m -2.503,6.683 -0.935,0.764 1.007,-4.055 z m 0.023,0.2 0.954,5.986 -1.955,-5.166 z m 2.954,7.129 -0.109,2.813 -1.524,-3.042 z m 1.877,3.6 1.556,2.671 -3.194,-2.984 z m 6.546,4.42 -0.067,1.545 -4.072,-2.627 z m 0.167,0.066 2.114,0.988 -2.18,0.533 z m 5.629,0.492 0.066,2.167 -3.071,-1.607 z m 4.855,-1.3 -1.246,2.933 -3.294,-1.713 z m 0.2,-0.026 3.789,1.052 -5.032,1.877 z m 4.384,-1.965 1.605,1.4 -1.829,1.424 z m 4.356,-3.005 1.85,-0.354 -4.056,4.216 z m 2.179,-0.818 -0.013,-2.087 1.707,-1.043 z m 0.15,-2.385 2.07,-3.478 -0.381,2.449 z m 2.642,-7.52 0.242,2.56 -0.548,0.757 z m -1.262,-6.411 0.473,0.444 0.474,3.43 z m -2.4,-3.912 0.445,-0.224 1.288,2.919 z m -3.117,-2.044 0.782,-1.119 1.914,2.839 z m -0.122,-0.122 -2.038,-2.812 2.822,1.691 z m -4.591,-2.944 -0.013,-1.222 1.964,1.014 z m -0.17,-0.033 -4.489,-1.844 4.476,0.589 z m -8.879,-2.061 0.715,-0.613 2.369,0.583 z m -3.9,1.464 1.389,-1.5 1.922,0.173 z m -0.359,0.138 -2.1,0.191 3.455,-1.646 z m -5.786,2.418 0.232,-0.521 1.931,-0.959 z m -2.535,4.082 -0.141,-1.363 2.1,-2 z m -0.146,0.24 -1.742,1.975 1.605,-3.3 z m -2.595,6.172 -1.112,0.207 1.469,-3.335 z m -0.037,0.18 -1.063,4.285 -0.068,-4.075 z m 0.937,10.669 -1.264,-1.04 -0.606,-3.9 z m 1.772,3.6 -0.807,-0.265 -0.54,-2.419 z m 3.451,3.328 -2.678,-1.452 -0.431,-1.448 z m 0.49,0.46 1.161,1.48 -3.55,-2.781 z m 0.434,0.279 3.693,2.383 -2.417,-0.756 z m 6.775,2.122 2.87,1.5 -4.989,-0.983 z m 3.445,-0.571 3.212,1.671 -3.147,0.5 z m 8.528,-0.078 -1.3,1.126 -2.935,0.455 z m 2.41,-1.686 0.109,0.7 -1.686,0.521 z m 4.375,-4.516 -1.73,3.086 -2.207,1.015 z m 0.484,-0.514 1.161,-2.145 -1.241,2.943 z m 2.454,-6.61 0.438,-0.606 -0.7,2.318 z m 0.422,-4.572 -0.006,-0.045 0.044,-0.574 0.044,1.487 z m -0.117,-0.845 -0.438,-3.178 0.543,1.8 z m -1.3,-4.956 -0.8,-1.815 1.12,2.115 z m -2.414,-3.748 -1.6,-2.371 2.04,2.15 z m -5.342,-5.117 0.107,-0.077 1.226,0.877 z m -0.162,-0.093 -0.831,-0.429 0.924,0.363 z m -7.016,-1.817 1.558,-0.32 2.344,0.834 z m -0.508,-0.068 -2.121,-0.522 3.556,0.226 z m -4.018,0.039 -1.654,-0.149 2.315,-0.418 z m -5.837,1.478 0.946,-0.709 1.526,-0.47 z m -0.777,0.37 -0.821,0.408 1.262,-0.738 z m -3.444,2.362 -0.974,0.93 1.113,-1.242 z m -4.562,6.563 -0.433,0.16 1.683,-2.733 z m -0.564,0.389 0.467,-0.173 -1.181,2.683 z m -1.163,6.963 0.024,1.493 -0.086,0.272 z m 0.081,1.875 0.426,2.745 -0.587,-2.24 z m 2.223,5.678 0.547,2.45 -1.747,-3.437 z m 1.755,3.5 0.38,1.278 -1.131,-1.525 z m 8.484,6.577 0.158,0.253 -1.66,-0.722 z m 0.426,0.36 -0.2,-0.31 3.611,0.711 z m 8.846,0.3 -0.38,0.43 -1.982,-0.055 z m 0.263,-0.041 2.363,-0.367 -2.714,0.764 z m 5.46,-2.041 1.386,-0.428 -2.44,1.347 z m 2.22,-0.919 -0.109,-0.7 2.025,-0.931 z m 4.386,-5.258 -0.095,0.945 -1.332,1.589 z m 2.193,-4.03 0.342,-0.165 -1.567,3.078 z m 0.455,-0.408 -0.384,0.186 0.772,-2.54 z" />
      <path
         style="fill:url(#b-2)"
         inkscape:connector-curvature="0"
         id="path4917"
         d="m 57.821,42.376915 v -0.008 l -0.174,-5.734 v -0.02 l -0.862,-2.861 v -0.006 l -2.466,-4.654 -2.842,-3.004 h -0.006 l -2.994,-2.137 h -0.012 l -2.6,-1.02 h -0.018 l -3.12,-1.11 h -0.021 l -5.137,-0.327 h -0.022 l -3.24,0.585 h -0.012 l -2.641,0.812 h -0.017 l -4.69,2.728 -2.93,3.269 -2.7,4.389 v 0.011 l -1.064,3.736 v 0.014 l -0.2,5.669 v 0.027 l 1.013,3.862 v 0.013 l 2.235,4.4 v 0.007 l 1.546,2.178 v 0.005 l 2.18,2 h 0.006 l 2.723,1.842 h 0.006 l 3.358,1.46 h 0.021 l 5.619,0.659 h 0.008 l 2.934,0.082 h 0.023 l 4.342,-1.224 h 0.015 l 3.88,-2.13 0.007,-0.005 h 0.005 l 2.5,-2.13 1.936,-2.311 0.007,-0.01 2.738,-5.36 v -0.021 l 0.6,-3.665 v -0.009 z m -30.667,12.706 -0.565,-0.518 1.27,0.995 z m 8.242,2.153 -1.985,-0.928 4.7,0.423 z m 0.723,-16.9 -5.21,0.548 3.213,-5.4 z m -1.818,-4.863 6.366,3.189 -4.379,1.634 z m 1.866,5.028 0.606,4.8 -5.8,-4.257 z m 0.53,4.958 -6.3,1.982 0.423,-6.3 z m -0.35,-4.878 4.881,3.241 -4.276,1.552 z m 0.078,-0.152 4.38,-1.638 0.507,4.884 z m 6.729,-5.641 4.059,-1.916 -0.458,4.559 z m 3.462,2.751 -5.58,1.02 1.982,-3.663 z m -5.739,0.957 -3.63,-6.675 5.631,2.986 z m -0.2,-0.019 -6.408,-3.21 2.754,-3.5 z m -9.895,2.292 -0.817,-3.118 3.943,-2.134 z m -0.54,6.518 -3.116,-5.111 3.53,-1.073 z m 6.359,-1.619 -3.168,3.384 -2.9,-1.474 z m 4.691,-1.687 -1.13,4.07 -3.115,-2.532 z m -0.306,-5.116 4.71,3.715 -4.2,1.157 z m 0.094,-0.142 5.641,-1.03 -0.9,4.771 z m 5.845,-1.255 0.452,-4.509 2.606,3.54 z m 3.115,-0.81 0.144,5.163 -3.216,-4.189 z m -6.959,-2.021 0.108,-3.832 3.931,1.925 z m -0.17,0 -5.61,-2.976 5.719,-0.888 z m -8.736,0.477 -1.051,-3.826 3.751,0.4 z m -0.137,0.143 -3.981,2.151 2.928,-5.981 z m -3.391,5.672 -3.455,1.05 2.641,-4.161 z m -0.625,6.323 -4.316,-3.056 1.287,-1.911 z m 0.348,0.434 2.9,1.474 -3.566,1.97 z m 6.521,-2.08 3.114,2.536 -6.328,0.9 z m 4.57,-1.6 4.6,4.444 -5.739,-0.329 z m 0.122,-0.118 4.218,-1.16 0.379,5.606 z m 5.292,-6.1 3.243,4.225 -4.134,0.5 z m 3.335,-1.1 2.737,1.551 -2.6,3.589 z m 0.029,-0.178 1.7,-2.791 1.008,4.324 z m -0.125,-0.122 -2.608,-3.542 4.327,0.715 z m -6.857,-5.742 3.063,-2.773 0.879,4.705 z m -6.062,0.854 1.944,-3.449 3.744,2.566 z m -4.058,-0.384 2.2,-4.48 1.574,4.88 z m -3.28,6.315 -2.67,-4.458 5.659,-1.65 z m -2.826,4.483 -1.292,-5.195 3.99,0.945 z m -1.423,2.122 -1.184,-2.94 2.445,1.07 z m 4.605,3.56 -0.666,3.453 -3.7,-6.544 z m 3.185,1.685 1.013,3.422 -4.612,-1.434 z m 6.7,-0.983 -1.005,4.448 -5.409,-3.538 z m 5.974,0.321 -2.6,2.355 -3.025,-2.678 z m -0.094,-5.781 4,4.046 -3.627,1.538 z m 0.082,-0.158 4.127,-0.5 -0.14,4.534 z m 6.98,-4.279 1.648,5.551 -4.284,-1.906 z m -0.935,-4.692 2.689,2.039 -1.681,2.266 z m -4.628,-1.037 2.5,-2.859 1.843,3.576 z m -0.113,-0.129 -0.873,-4.673 3.366,1.817 z m -4.265,-1.98 -3.728,-2.554 6.776,-0.206 z m -6.043,0.84 -1.563,-4.846 3.495,1.417 z m -4.064,-0.378 -1.809,-2.454 3.987,-1.975 z m -0.125,0.116 -5.544,1.616 3.724,-4.083 z m -3.179,6.339 -3.95,-0.936 1.336,-3.429 z m -2.816,4.5 -2.5,-1.095 1.243,-3.967 z m -1.394,2.187 -2.151,0.787 0.959,-3.75 z m 3.869,6.878 -4.732,-2.933 1,-3.674 z m 4.819,1.76 -4.477,0.71 -0.019,-2.108 z m -0.57,-3.451 5.264,3.442 -4.259,-0.048 z m 6.663,-1 3.055,2.706 -4.046,1.68 z m 5.988,0.342 1.615,4.476 -4.236,-2.1 z m 0.144,-0.1 3.6,-1.528 -1.986,6.015 z m 3.97,-6.384 4.283,1.906 -4.419,2.646 z m 2.867,-3.786 2.8,1.993 -1.2,3.413 z m -0.031,-0.231 1.683,-2.268 1.109,4.256 z m -1.124,-4.724 0.774,-2.425 1.861,4.428 z m -0.117,-0.189 -1.786,-3.456 2.564,1.025 z m -5.277,-5.5 3.729,-0.244 -0.47,2 z m -7.383,0.065 2.625,-3.257 4.208,3.049 z m -0.155,-0.078 -1.352,-3.541 3.95,0.318 z m -0.176,0.016 -3.453,-1.4 2.117,-2.1 z m -7.758,0.593 1.485,-4.284 2.521,2.3 z m -3.983,4.247 1.087,-4.451 2.581,0.429 z m -1.614,3.8 -1.394,-2.189 2.694,-1.15 z m -0.074,0.2 -1.192,3.8 -0.16,-5.926 z m -1.373,4.4 -0.972,3.8 -1.525,-3.8 z m -2.536,-0.166 0.081,-3.729 2.409,3.726 z m 3.842,3.5 -0.971,3.537 -1.18,-2.757 z m 3.876,6.888 -2.933,0.415 -1.676,-3.272 z m 0.16,0.148 0.019,2.078 -2.9,-1.669 z m 4.891,1.552 -1.489,3.102 -3.094,-2.382 z m 0.174,0.031 3.918,3.618 -5.421,-0.488 z m 0.192,-0.053 4.3,0.049 -0.392,3.557 z m 8.635,-1.7 0.164,4.018 -4.214,-2.347 z m 0.171,0.015 4.25,2.11 -4.086,1.91 z m 6.592,-4.118 2.11,3.3 -4.1,2.724 z m 0.147,-0.086 4.062,0.6 -1.983,2.65 z m 0.075,-0.16 4.346,-2.6 -0.283,3.2 z m 5.74,-6.2 0.767,2.685 -1.925,0.622 z m -1.026,-4.58 2.2,2.772 -1.13,1.334 z m -2.06,-5.049 2.859,2.094 -0.983,2.367 z m -2.946,-1.439 0.461,-1.965 2.058,2.972 z m -3.643,-1.986 -0.5,-3 4.3,2.754 z m -0.189,-0.1 -4.1,-2.969 3.6,-0.023 z m -8.335,-3.458 2.675,-1.642 1.149,1.95 z m -2.569,2.232 -2.477,-2.26 4.581,0.172 z m -4.357,2.149 -2.572,-0.428 4.031,-3.78 z m -3.99,4.327 -2.632,-2.137 3.735,-2.378 z m -0.112,0.128 -2.719,1.16 0.132,-3.261 z m -2.72,7.732 -2.443,-3.779 2.274,-2.452 z m -1.059,4.464 -0.463,2.312 -0.915,-5.741 z m 0.118,0.276 1.145,2.673 -1.632,-0.228 z m 2.97,6.259 -1.726,-0.335 0.11,-2.822 z m 3.261,2 -1.226,1.179 -1.647,-2.831 z m 0.146,0.094 2.945,2.271 -4.169,-1.09 z m 9.608,-0.706 4.2,2.332 -4.6,1.235 z m 8.693,0.459 -0.23,2.933 -3.791,-1.053 z m 4.218,-2.775 -2.334,4.093 -1.649,-1.446 z m 2.3,-2.89 0.012,2.14 -1.867,0.357 z m 0.468,-3.645 1.9,-0.614 -2.164,3.642 z m 1.317,-3.764 1.078,-1.271 -0.346,3.813 z m -1.209,-4.686 0.968,-2.331 1.254,5.129 z m -2.059,-4.94 0.68,-1.187 2.049,3.186 z m -0.118,-0.135 -2.012,-2.9 2.692,1.716 z m -6.749,-6.139 2.036,-0.217 2.06,2.841 z m -4.135,-0.12 -1.121,-1.905 4.584,1.884 z m -4.262,-0.374 -0.9,-1.582 3.538,-0.036 z m -0.18,0.027 -4.456,-0.167 3.551,-1.419 z m -9,3.676 1.6,-3.455 2.314,-0.211 z m -0.287,0.216 -1.458,-1.4 3.078,-2.106 z m -0.109,0.13 -3.627,2.309 2.167,-3.715 z m -4.1,5.993 -1.82,-0.979 1.95,-2.211 z m -0.057,0.161 -2.212,2.383 0.384,-3.365 z m -2.503,6.683 -0.935,0.764 1.007,-4.055 z m 0.023,0.2 0.954,5.986 -1.955,-5.166 z m 2.954,7.129 -0.109,2.813 -1.524,-3.042 z m 1.877,3.6 1.556,2.671 -3.194,-2.984 z m 6.546,4.42 -0.067,1.545 -4.072,-2.627 z m 0.167,0.066 2.114,0.988 -2.18,0.533 z m 5.629,0.492 0.066,2.167 -3.071,-1.607 z m 4.855,-1.3 -1.246,2.933 -3.294,-1.713 z m 0.2,-0.026 3.789,1.052 -5.032,1.877 z m 4.384,-1.965 1.605,1.4 -1.829,1.424 z m 4.356,-3.005 1.85,-0.354 -4.056,4.216 z m 2.179,-0.818 -0.013,-2.087 1.707,-1.043 z m 0.15,-2.385 2.07,-3.478 -0.381,2.449 z m 2.642,-7.52 0.242,2.56 -0.548,0.757 z m -1.262,-6.411 0.473,0.444 0.474,3.43 z m -2.4,-3.912 0.445,-0.224 1.288,2.919 z m -3.117,-2.044 0.782,-1.119 1.914,2.839 z m -0.122,-0.122 -2.038,-2.812 2.822,1.691 z m -4.591,-2.944 -0.013,-1.222 1.964,1.014 z m -0.17,-0.033 -4.489,-1.844 4.476,0.589 z m -8.879,-2.061 0.715,-0.613 2.369,0.583 z m -3.9,1.464 1.389,-1.5 1.922,0.173 z m -0.359,0.138 -2.1,0.191 3.455,-1.646 z m -5.786,2.418 0.232,-0.521 1.931,-0.959 z m -2.535,4.082 -0.141,-1.363 2.1,-2 z m -0.146,0.24 -1.742,1.975 1.605,-3.3 z m -2.595,6.172 -1.112,0.207 1.469,-3.335 z m -0.037,0.18 -1.063,4.285 -0.068,-4.075 z m 0.937,10.669 -1.264,-1.04 -0.606,-3.9 z m 1.772,3.6 -0.807,-0.265 -0.54,-2.419 z m 3.451,3.328 -2.678,-1.452 -0.431,-1.448 z m 0.49,0.46 1.161,1.48 -3.55,-2.781 z m 0.434,0.279 3.693,2.383 -2.417,-0.756 z m 6.775,2.122 2.87,1.5 -4.989,-0.983 z m 3.445,-0.571 3.212,1.671 -3.147,0.5 z m 8.528,-0.078 -1.3,1.126 -2.935,0.455 z m 2.41,-1.686 0.109,0.7 -1.686,0.521 z m 4.375,-4.516 -1.73,3.086 -2.207,1.015 z m 0.484,-0.514 1.161,-2.145 -1.241,2.943 z m 2.454,-6.61 0.438,-0.606 -0.7,2.318 z m 0.422,-4.572 -0.006,-0.045 0.044,-0.574 0.044,1.487 z m -0.117,-0.845 -0.438,-3.178 0.543,1.8 z m -1.3,-4.956 -0.8,-1.815 1.12,2.115 z m -2.414,-3.748 -1.6,-2.371 2.04,2.15 z m -5.342,-5.117 0.107,-0.077 1.226,0.877 z m -0.162,-0.093 -0.831,-0.429 0.924,0.363 z m -7.016,-1.817 1.558,-0.32 2.344,0.834 z m -0.508,-0.068 -2.121,-0.522 3.556,0.226 z m -4.018,0.039 -1.654,-0.149 2.315,-0.418 z m -5.837,1.478 0.946,-0.709 1.526,-0.47 z m -0.777,0.37 -0.821,0.408 1.262,-0.738 z m -3.444,2.362 -0.974,0.93 1.113,-1.242 z m -4.562,6.563 -0.433,0.16 1.683,-2.733 z m -0.564,0.389 0.467,-0.173 -1.181,2.683 z m -1.163,6.963 0.024,1.493 -0.086,0.272 z m 0.081,1.875 0.426,2.745 -0.587,-2.24 z m 2.223,5.678 0.547,2.45 -1.747,-3.437 z m 1.755,3.5 0.38,1.278 -1.131,-1.525 z m 8.484,6.577 0.158,0.253 -1.66,-0.722 z m 0.426,0.36 -0.2,-0.31 3.611,0.711 z m 8.846,0.3 -0.38,0.43 -1.982,-0.055 z m 0.263,-0.041 2.363,-0.367 -2.714,0.764 z m 5.46,-2.041 1.386,-0.428 -2.44,1.347 z m 2.22,-0.919 -0.109,-0.7 2.025,-0.931 z m 4.386,-5.258 -0.095,0.945 -1.332,1.589 z m 2.193,-4.03 0.342,-0.165 -1.567,3.078 z m 0.455,-0.408 -0.384,0.186 0.772,-2.54 z" />
      <path
         style="fill:url(#c-9)"
         inkscape:connector-curvature="0"
         id="path4919"
         d="m 74.706,26.827915 c -1.686,-4.052 -5.1,-8.427 -7.784,-9.809 a 40.165,40.165 0 0 1 3.925,11.763 c 0,-0.009 0,0.008 0.006,0.037 l 0.007,0.041 a 35.053,35.053 0 0 1 -1.208,26.157 c -4.446,9.532 -15.211,19.3 -32.061,18.825 -18.202,-0.515 -34.239,-14.009 -37.233,-31.682 -0.545,-2.787 0,-4.2 0.274,-6.465 a 28.874,28.874 0 0 0 -0.628,5.347 v 0.2 a 38.808,38.808 0 0 0 77.043,6.554 c 0.065,-0.5 0.118,-0.995 0.176,-1.495 a 39.8,39.8 0 0 0 -2.517,-19.473 z" />
      <path
         style="fill:url(#d-12)"
         inkscape:connector-curvature="0"
         id="path4921"
         d="m 74.706,26.827915 c -1.686,-4.052 -5.1,-8.427 -7.784,-9.809 a 40.165,40.165 0 0 1 3.925,11.763 c 0,-0.009 0,0.008 0.006,0.037 l 0.007,0.041 a 35.053,35.053 0 0 1 -1.208,26.157 c -4.446,9.532 -15.211,19.3 -32.061,18.825 -18.202,-0.515 -34.239,-14.009 -37.233,-31.682 -0.545,-2.787 0,-4.2 0.274,-6.465 a 28.874,28.874 0 0 0 -0.628,5.347 v 0.2 a 38.808,38.808 0 0 0 77.043,6.554 c 0.065,-0.5 0.118,-0.995 0.176,-1.495 a 39.8,39.8 0 0 0 -2.517,-19.473 z" />
      <path
         style="fill:url(#e-7)"
         inkscape:connector-curvature="0"
         id="path4923"
         d="m 0.358,42.159915 c 2.994,17.673 19.031,31.167 37.237,31.682 16.85,0.476 27.615,-9.293 32.061,-18.825 a 35.053,35.053 0 0 0 1.208,-26.157 v -0.037 c 0,-0.029 -0.006,-0.046 -0.006,-0.037 l 0.008,0.065 c 1.376,8.977 -3.195,17.674 -10.341,23.555 l -0.022,0.05 c -13.932,11.322 -27.256,6.829 -29.956,4.991 a 24.76,24.76 0 0 1 -0.565,-0.282 c -8.118,-3.875 -11.472,-11.264 -10.753,-17.6 a 9.964,9.964 0 0 1 -9.192,-5.776 14.651,14.651 0 0 1 14.266,-0.571 19.337,19.337 0 0 0 14.568,0.572 c -0.014,-0.315 -6.767,-3 -9.4,-5.59 -1.407,-1.385 -2.075,-2.052 -2.666,-2.553 a 11.762,11.762 0 0 0 -1,-0.758 c -0.231,-0.157 -0.49,-0.327 -0.8,-0.531 -2.83,-1.838 -8.458,-1.736 -8.644,-1.732 h -0.018 c -1.539,-1.947 -1.43,-8.367 -1.342,-9.707 a 6.954,6.954 0 0 0 -1.3,0.686 28.275,28.275 0 0 0 -3.792,3.245 34,34 0 0 0 -3.627,4.346 v 0.006 -0.006 a 32.689,32.689 0 0 0 -5.207,11.738 c -0.018,0.084 -1.396,6.104 -0.717,9.226 z" />
      <path
         style="fill:url(#f-3)"
         inkscape:connector-curvature="0"
         id="path4925"
         d="m 52.489,26.865915 a 21.061,21.061 0 0 1 3.6,4.7 7.876,7.876 0 0 1 0.583,0.476 c 8.8,8.1 4.187,19.549 3.844,20.365 7.146,-5.881 11.717,-14.578 10.341,-23.555 -4.388,-10.925 -11.827,-15.33 -17.9,-24.9210005 a 47.894,47.894 0 0 1 -0.914,-1.485 11.747,11.747 0 0 1 -0.427,-0.8 7.032,7.032 0 0 1 -0.58,-1.539 0.1,0.1 0 0 0 -0.088,-0.1 0.129,0.129 0 0 0 -0.073,0 l -0.019,0.01 -0.029,0.012 c -1.5,0.715 -10.399,14.7900005 1.662,26.8370005 z" />
      <path
         style="fill:url(#g-6)"
         inkscape:connector-curvature="0"
         id="path4927"
         d="m 37.563,21.551915 5.137,0.327 3.12,1.11 2.6,1.02 2.995,2.139 2.821,2.974 0.98,1.849 a 23.46,23.46 0 0 1 0.634,0.413 c 0.085,0.059 0.162,0.118 0.241,0.177 a 21.061,21.061 0 0 0 -3.6,-4.695 C 40.428,14.818915 49.327,0.7439145 50.827,0.0289145 l 0.02,-0.022 C 41.1,5.7069145 37.793,16.257915 37.49,21.535915 v 0.03 z" />
      <path
         style="fill:url(#h-0)"
         inkscape:connector-curvature="0"
         id="path4929"
         d="m 24.997,24.357915 a 22.816,22.816 0 0 1 0.8,0.531 17.927,17.927 0 0 1 -0.109,-9.472 28.736,28.736 0 0 0 -9.34,7.209 c 0.191,-0.004 5.819,-0.106 8.649,1.732 z" />
      <path
         style="fill:url(#i-9)"
         inkscape:connector-curvature="0"
         id="path4931"
         d="m 21.382,44.745915 c 0,0 1.791,-6.667 12.825,-6.667 1.193,0 4.6,-3.325 4.666,-4.289 a 19.337,19.337 0 0 1 -14.568,-0.572 14.651,14.651 0 0 0 -14.266,0.571 9.964,9.964 0 0 0 9.192,5.776 c -0.719,6.336 2.635,13.725 10.753,17.6 0.182,0.087 0.352,0.182 0.538,0.265 -4.738,-2.447 -8.651,-7.07 -9.14,-12.684 z" />
      <path
         style="fill:url(#j-3)"
         inkscape:connector-curvature="0"
         id="path4933"
         d="m 56.674,32.036915 a 7.876,7.876 0 0 0 -0.583,-0.476 c -0.079,-0.059 -0.156,-0.118 -0.241,-0.177 a 13.406,13.406 0 0 0 -9.356,-2.269 c 13.957,6.97 10.21,30.971 -9.129,30.065 a 17.241,17.241 0 0 1 -5.049,-0.973 22.74,22.74 0 0 1 -1.14,-0.465 c -0.218,-0.1 -0.437,-0.2 -0.654,-0.312 l 0.027,0.017 c 2.7,1.838 16.022,6.331 29.947,-4.995 l 0.022,-0.05 c 0.343,-0.816 4.952,-12.268 -3.844,-20.365 z" />
      <path
         style="fill:url(#k-7)"
         inkscape:connector-curvature="0"
         id="path4935"
         d="m 74.703,26.826915 c -1.686,-4.053 -5.1,-8.427 -7.784,-9.81 a 40.19,40.19 0 0 1 3.928,11.764 l 0.008,0.064 c -4.387,-10.924 -11.827,-15.329 -17.902,-24.9210005 a 45.312,45.312 0 0 1 -0.914,-1.484 12.796,12.796 0 0 1 -0.428,-0.8 7.053,7.053 0 0 1 -0.578,-1.535 0.1,0.1 0 0 0 -0.088,-0.1 0.138,0.138 0 0 0 -0.073,0 c -0.006,0 -0.014,0.009 -0.02,0.011 -0.006,0.002 -0.019,0.011 -0.028,0.015 l 0.016,-0.022 c -9.747,5.7 -13.052,16.2830005 -13.356,21.5610005 l 0.079,-0.014 5.137,0.327 2.891,1.028 2.829,1.1 2.995,2.139 2.818,2.972 c 0,0 0.97,1.82 0.983,1.851 a 13.279,13.279 0 0 0 -8.725,-1.858 c 13.956,6.97 10.21,30.971 -9.129,30.065 a 17.272,17.272 0 0 1 -5.049,-0.972 q -0.566,-0.212 -1.14,-0.468 a 14.44,14.44 0 0 1 -0.654,-0.312 l 0.027,0.017 a 22.816,22.816 0 0 1 -0.565,-0.281 c 0.181,0.086 0.352,0.181 0.538,0.264 -4.738,-2.446 -8.651,-7.07 -9.14,-12.684 0,0 1.791,-6.667 12.825,-6.667 1.193,0 4.6,-3.325 4.666,-4.289 -0.014,-0.315 -6.768,-3 -9.4,-5.59 -1.407,-1.384 -2.075,-2.052 -2.667,-2.553 a 11.4,11.4 0 0 0 -1.005,-0.757 17.943,17.943 0 0 1 -0.109,-9.473 28.745,28.745 0 0 0 -9.34,7.21 h -0.018 c -1.538,-1.946 -1.429,-8.366 -1.342,-9.707 a 7.042,7.042 0 0 0 -1.3,0.686 28.222,28.222 0 0 0 -3.792,3.246 33.908,33.908 0 0 0 -3.624,4.34 32.711,32.711 0 0 0 -5.201,11.743 c -0.019,0.084 -0.034,0.171 -0.052,0.255 -0.073,0.342 -0.4,2.073 -0.448,2.445 0,0.028 0,-0.029 0,0 A 45.091,45.091 0 0 0 0,41.040915 v 0.2 a 38.807,38.807 0 0 0 77.047,6.555 c 0.066,-0.5 0.119,-1 0.177,-1.5 a 39.807,39.807 0 0 0 -2.521,-19.469 z m -3.849,1.99 0.006,0.042 z" />
      <path
         style="fill:url(#l-5)"
         inkscape:connector-curvature="0"
         id="path4937"
         d="m 38.873,33.789915 c 0,0 -0.164,0.068 -0.468,0.172 -0.758,1.281 -3.453,3.727 -4.483,3.722 -11.034,-0.048 -12.854,6.546 -12.854,6.546 a 14.093,14.093 0 0 0 2.162,6.333 14.194,14.194 0 0 1 -1.848,-5.817 c 0,0 1.791,-6.667 12.825,-6.667 1.193,0 4.6,-3.325 4.666,-4.289 z" />
      <path
         style="fill:url(#m-3)"
         inkscape:connector-curvature="0"
         id="path4939"
         d="m 70.864,28.859915 v -0.037 c 0,-0.029 -0.006,-0.046 0,-0.037 0.006,0.009 0,0.022 0.007,0.065 a 38.737,38.737 0 0 0 -0.834,-1.92 c -0.1,-0.212 -0.2,-0.41 -0.305,-0.617 -0.195,-0.4 -0.388,-0.8 -0.59,-1.176 -0.125,-0.235 -0.256,-0.458 -0.384,-0.686 -0.188,-0.335 -0.374,-0.672 -0.567,-1 -0.142,-0.236 -0.288,-0.462 -0.432,-0.692 -0.189,-0.3 -0.377,-0.6 -0.57,-0.892 -0.153,-0.231 -0.31,-0.454 -0.465,-0.679 -0.193,-0.278 -0.385,-0.556 -0.582,-0.827 -0.162,-0.224 -0.327,-0.443 -0.492,-0.662 -0.2,-0.261 -0.393,-0.522 -0.592,-0.778 a 67.045,67.045 0 0 0 -0.516,-0.651 c -0.2,-0.249 -0.4,-0.5 -0.605,-0.745 q -0.265,-0.321 -0.533,-0.639 c -0.1,-0.115 -0.193,-0.233 -0.291,-0.348 l 0.124,0.152 C 59.863,12.724915 56.214,9.0699145 52.956,3.9259145 a 47.165,47.165 0 0 1 -0.914,-1.485 11.747,11.747 0 0 1 -0.427,-0.8 7.949,7.949 0 0 1 -0.534,-1.362 c -0.007,-0.025 -0.019,-0.063 -0.023,-0.083 a 4.52,4.52 0 0 1 -0.022,-0.09 0.1,0.1 0 0 0 -0.088,-0.1 0.129,0.129 0 0 0 -0.073,0 l -0.019,0.011 a 0.27,0.27 0 0 0 -0.029,0.015 1.138,1.138 0 0 0 -0.235,0.173 1.26,1.26 0 0 0 -0.056,0.05 3.722,3.722 0 0 0 -0.307,0.325 l -0.011,0.011 c -2.321,2.728 -8.258,14.6050005 1.309,25.2590005 -8.957,-10.54 -3.312,-21.9300005 -0.859,-24.9140005 a 8.61,8.61 0 0 0 0.479,1.172 11.488,11.488 0 0 0 0.427,0.8 c 0.3,0.513 0.607,1 0.914,1.484 6.076,9.5920005 13.516,14.0000005 17.9,24.9210005 0,-0.042 -0.007,-0.058 -0.007,-0.064 0,-0.006 0,0.008 0.005,0.037 l 0.006,0.037 a 35.054,35.054 0 0 1 -1.204,26.163 32.153,32.153 0 0 1 -6.164,8.838 32.214,32.214 0 0 0 6.632,-9.307 35.058,35.058 0 0 0 1.208,-26.157 z" />
      <path
         style="fill:url(#n-5)"
         inkscape:connector-curvature="0"
         id="path4941"
         d="m 50.827,0.0289145 0.02,-0.022 c -8.78,5.137 -12.334,14.2060005 -13.174,19.8120005 a 28.672,28.672 0 0 1 11.721,-18.0880005 5.436,5.436 0 0 1 1.433,-1.702 z" />
      <path
         style="fill:url(#o)"
         inkscape:connector-curvature="0"
         id="path4943"
         d="m 60.496,52.451915 0.022,-0.05 c 0.343,-0.816 4.952,-12.268 -3.844,-20.365 a 7.876,7.876 0 0 0 -0.583,-0.476 c -0.079,-0.059 -0.156,-0.118 -0.241,-0.177 a 13.543,13.543 0 0 0 -9,-2.325 h -0.003 a 8.612,8.612 0 0 0 -0.353,0.055 c 13.799,6.892 10.292,30.432 -8.481,30.082 l 0.153,0.009 c 19.031,0.748 22.781,-22.591 9.558,-29.909 a 14.05,14.05 0 0 1 7.349,2.122 8.183,8.183 0 0 1 0.247,0.169 7.4,7.4 0 0 1 0.6,0.452 c 9.107,7.747 4.95,19.37 4.638,20.2 l -0.02,0.052" />
      <path
         style="fill:url(#p)"
         inkscape:connector-curvature="0"
         id="path4945"
         d="m 24.409,33.605915 a 19.385,19.385 0 0 0 14.029,0.345 19.388,19.388 0 0 1 -14.133,-0.733 14.743,14.743 0 0 0 -14.081,0.45 l -0.051,0.033 h -0.005 l -0.042,0.028 -0.032,0.022 -0.02,0.014 h -0.006 l -0.014,0.01 h -0.005 l 0.018,0.043 v 0.006 l 0.022,0.05 v 0.01 l 0.033,0.072 v 0.006 a 8,8 0 0 0 0.255,0.487 9.925,9.925 0 0 0 8.852,5.1 c -0.7,6.146 2.438,13.282 10.036,17.242 -7.262,-4.185 -10.313,-11.78 -9.465,-17.821 -5.607,-0.148 -8.114,-3.509 -8.831,-4.934 a 15.333,15.333 0 0 1 13.44,-0.43 z" />
      <path
         style="fill:url(#q)"
         inkscape:connector-curvature="0"
         id="path4947"
         d="m 25.796,24.867915 -0.19,-0.111 0.2,0.132 z m -0.04,-0.142 a 17.957,17.957 0 0 1 -0.063,-9.309 28.285,28.285 0 0 0 -8.98,6.811 29.292,29.292 0 0 1 8.189,-5.784 18.179,18.179 0 0 0 0.854,8.282 z" />
      <path
         style="fill:url(#r)"
         inkscape:connector-curvature="0"
         id="path4949"
         d="m 1.294,46.221915 -0.031,-0.111 a 35.886,35.886 0 0 1 -0.9,-3.951 16.765,16.765 0 0 1 0,-5 32.988,32.988 0 0 0 -0.355,3.88 v 0.2 a 38.774,38.774 0 0 0 26.04,36.608 39.224,39.224 0 0 1 -24.754,-31.626 z" />
      <path
         style="fill:url(#s)"
         inkscape:connector-curvature="0"
         id="path4951"
         d="m 0.983,42.315915 c -0.679,-3.122 0.7,-9.141 0.717,-9.226 a 32.689,32.689 0 0 1 5.207,-11.742 v 0.006 -0.006 a 34,34 0 0 1 3.623,-4.341 28.275,28.275 0 0 1 3.792,-3.245 3.338,3.338 0 0 1 0.164,-0.1 c -0.014,2.948 0.154,7.923 1.519,9.554 h 0.018 c 0.187,-0.01 5.835,-0.259 8.724,1.5 0.321,0.2 0.585,0.359 0.821,0.51 a 11.927,11.927 0 0 1 1.029,0.731 c 0.606,0.486 1.294,1.135 2.743,2.482 2.1,1.951 6.669,3.891 8.644,4.815 -1.924,-0.969 -6.464,-3.04 -8.511,-5.055 -1.407,-1.385 -2.075,-2.052 -2.666,-2.553 a 11.762,11.762 0 0 0 -1,-0.758 c -0.231,-0.157 -0.49,-0.327 -0.8,-0.531 -2.83,-1.838 -8.458,-1.736 -8.644,-1.732 h -0.018 c -1.406,-1.779 -1.436,-7.293 -1.364,-9.252 0,-0.076 0,-0.145 0.008,-0.21 v -0.127 c 0,-0.042 0,-0.083 0.007,-0.118 0,0 -0.007,-0.007 -0.016,-0.007 h -0.035 l -0.022,0.008 -0.032,0.012 -0.031,0.013 -0.037,0.017 -0.04,0.019 -0.04,0.02 -0.049,0.024 -0.039,0.021 -0.058,0.03 -0.033,0.018 a 19.292,19.292 0 0 0 -0.864,0.5 28.275,28.275 0 0 0 -3.792,3.245 34,34 0 0 0 -3.626,4.358 v 0.006 -0.006 a 32.689,32.689 0 0 0 -5.207,11.738 c -0.018,0.084 -1.4,6.1 -0.717,9.226 2.548,15.036 14.543,27.051 29.281,30.614 -14.451,-3.747 -26.144,-15.631 -28.656,-30.458 z" />
      <path
         style="fill:url(#t)"
         inkscape:connector-curvature="0"
         id="path4953"
         d="m 74.706,26.827915 a 23.765,23.765 0 0 0 -6.81,-9.2 l -0.069,-0.049 a 13.613,13.613 0 0 0 -0.23,-0.158 q -0.043,-0.03 -0.087,-0.057 -0.11,-0.07 -0.216,-0.135 l -0.084,-0.05 a 7.863,7.863 0 0 0 -0.288,-0.159 35.137,35.137 0 0 1 0.306,0.615 33.589,33.589 0 0 1 0.186,0.383 39.735,39.735 0 0 1 3.433,10.764 l 0.008,0.065 c 1.376,8.977 -3.195,17.674 -10.341,23.555 l -0.022,0.05 c -8.883,7.225 -17.52,8.013 -23.312,7.159 5.771,1.078 14.874,0.623 24.25,-7 l 0.021,-0.05 c 7.146,-5.881 11.718,-14.578 10.342,-23.555 l -0.008,-0.065 a 38.939,38.939 0 0 0 -2.829,-9.445 25.662,25.662 0 0 1 4.243,6.047 38.616,38.616 0 0 1 3.586,19 c -0.03,0.495 -0.055,0.989 -0.093,1.48 a 38.63,38.63 0 0 1 -36.412,33.793 39.649,39.649 0 0 1 -7.661,-0.312 38.837,38.837 0 0 0 44.428,-31.708 c 0.065,-0.5 0.118,-0.995 0.176,-1.495 a 39.8,39.8 0 0 0 -2.517,-19.473 z m -3.842,2.032 v -0.037 z" />
    </g>
  </g>
</svg>
