<svg xmlns="http://www.w3.org/2000/svg" width="324" height="234" viewBox="0 0 324 234"><path fill="#1c1c1c" d="M0 0h324v234H0z"/><path fill="#fff" d="m255.4 113-31-43c-4.9-5.7-12.2-3.6-18.6-4h-53.3c-6.5.2-9.2 6.5-12.8 10.9l-3.6 4.9 22.6 31.3c3.5 4.9-1.2 9.4-3.9 13.3l-18.7 25.8c3.4 4.4 6.3 9.3 10.2 13.4 4.5 3.7 10.5 2 15.9 2.4h54.3c5.6 0 8.7-4.8 11.5-8.9l27.5-38.1a6.7 6.7 0 0 0-.1-8z"/><path fill="#fff" d="M149 117c-.2 4-3.6 6.7-5.6 10L116 164.3c-3 3.6-7.8 3.8-12 3.6H69.6c-4.2-.8-1.2-4.6.3-6.4l32.4-44.5-34.4-47.5c-2-2.8 1.8-4 4.1-3.6h37.5c4.1.5 7.1 3.5 9.2 6.9l29 40a7 7 0 0 1 1.3 4.1z"/><circle cx="202.3" cy="86" r="5.6" fill="#1c1c1c"/></svg>