<?xml version="1.0" encoding="UTF-8"?>
<svg xmlns="http://www.w3.org/2000/svg" xmlns:xlink="http://www.w3.org/1999/xlink" width="324px" height="234px" viewBox="0 0 324 234" version="1.1">
<defs>
<radialGradient id="radial0" gradientUnits="userSpaceOnUse" cx="90.136406" cy="64.761543" fx="90.136406" fy="64.761543" r="91.591759" gradientTransform="matrix(1.8,0,0,1.304046,0,32.11876)">
<stop offset="0" style="stop-color:rgb(16.078432%,50.196081%,72.549021%);stop-opacity:1;"/>
<stop offset="1" style="stop-color:rgb(20.392157%,28.627452%,36.862746%);stop-opacity:1;"/>
</radialGradient>
<linearGradient id="linear0" gradientUnits="userSpaceOnUse" x1="8.584782" y1="24.4489" x2="38.975006" y2="24.4489" gradientTransform="matrix(-0.0250087,4.720845,-5.690285,-0.0203392,301.961482,4.806857)">
<stop offset="0" style="stop-color:rgb(100%,93.333334%,33.333334%);stop-opacity:1;"/>
<stop offset="0.425837" style="stop-color:rgb(99.607843%,92.156863%,27.450982%);stop-opacity:1;"/>
<stop offset="0.508772" style="stop-color:rgb(98.823529%,56.078434%,21.176471%);stop-opacity:1;"/>
<stop offset="0.588394" style="stop-color:rgb(93.725491%,39.215687%,13.333334%);stop-opacity:1;"/>
<stop offset="0.668015" style="stop-color:rgb(88.627452%,22.745098%,5.490196%);stop-opacity:1;"/>
<stop offset="0.937253" style="stop-color:rgb(72.156864%,0.392157%,47.843137%);stop-opacity:0.972549;"/>
<stop offset="1" style="stop-color:rgb(72.156864%,0.392157%,47.843137%);stop-opacity:1;"/>
</linearGradient>
<linearGradient id="linear1" gradientUnits="userSpaceOnUse" x1="12.091346" y1="24.448898" x2="35.468441" y2="24.448898" gradientTransform="matrix(-1.567678,4.133565,-4.561075,-1.392743,311.037995,51.894998)">
<stop offset="0" style="stop-color:rgb(9.803922%,48.627451%,94.509804%);stop-opacity:1;"/>
<stop offset="1" style="stop-color:rgb(12.54902%,73.725492%,98.039216%);stop-opacity:1;"/>
</linearGradient>
</defs>
<g id="surface1">
<rect x="0" y="0" width="324" height="234" style="fill:url(#radial0);stroke:none;"/>
<path style="fill:none;stroke-width:1.021703;stroke-linecap:butt;stroke-linejoin:miter;stroke:rgb(100%,100%,100%);stroke-opacity:1;stroke-miterlimit:4;" d="M -0.94401 -1.082899 L 181.217448 -1.082899 L 181.217448 130.605469 L -0.94401 130.605469 Z M -0.94401 -1.082899 " transform="matrix(1.8,0,0,1.8,0,0)"/>
<path style=" stroke:none;fill-rule:nonzero;fill:url(#linear0);" d="M 229.027344 50.59375 C 229.042969 47.535156 226.777344 45.066406 223.945312 45.054688 L 101.304688 44.617188 C 98.476562 44.609375 96.183594 47.0625 96.167969 50.117188 L 95.464844 182.550781 C 95.449219 185.605469 97.714844 188.074219 100.546875 188.085938 L 223.183594 188.523438 C 226.015625 188.535156 228.308594 186.082031 228.324219 183.023438 Z M 218.777344 56.074219 L 218.660156 78.144531 L 198.21875 78.074219 L 198.335938 56 Z M 218.601562 89.183594 L 218.484375 111.253906 L 198.042969 111.179688 L 198.160156 89.109375 Z M 218.425781 122.289062 L 218.308594 144.363281 L 197.867188 144.289062 L 197.984375 122.214844 Z M 218.25 155.398438 L 218.132812 177.46875 L 197.695312 177.394531 L 197.8125 155.324219 Z M 126.796875 55.746094 L 126.679688 77.816406 L 106.242188 77.742188 L 106.359375 55.671875 Z M 126.621094 88.851562 L 126.503906 110.925781 L 106.066406 110.851562 L 106.183594 88.78125 Z M 126.445312 121.960938 L 126.328125 144.03125 L 105.890625 143.960938 L 106.007812 121.886719 Z M 126.269531 155.070312 L 126.152344 177.140625 L 105.714844 177.066406 L 105.832031 154.996094 Z M 126.269531 155.070312 "/>
<path style=" stroke:none;fill-rule:nonzero;fill:url(#linear1);" d="M 168.28125 64.070312 C 168.28125 64.070312 168.28125 64.070312 192.855469 71.578125 C 189.867188 79.460938 173.546875 74.289062 170.367188 82.675781 C 167.183594 91.066406 183.820312 95.402344 180.640625 103.789062 C 177.460938 112.175781 161.332031 106.5 158.148438 114.890625 C 154.96875 123.277344 171.605469 127.609375 168.425781 135.996094 C 165.246094 144.382812 149.117188 138.707031 145.933594 147.097656 C 142.753906 155.484375 159.085938 160.621094 156.210938 168.207031 C 131.632812 160.703125 131.632812 160.703125 131.632812 160.703125 Z M 168.28125 64.070312 "/>
</g>
</svg>
