<svg xmlns="http://www.w3.org/2000/svg" width="324" height="234"><defs><radialGradient id="a" cx="106.3" cy="272.5" r="45.7" gradientTransform="matrix(1 0 0 -1 0 512)" gradientUnits="userSpaceOnUse"><stop offset="0" stop-color="#fff"/><stop offset="1" stop-color="#fff" stop-opacity="0"/></radialGradient><radialGradient id="b" cx="324" cy="210" r="45.5" gradientTransform="matrix(1 0 0 -1 0 512)" gradientUnits="userSpaceOnUse"><stop offset="0" stop-color="#fff"/><stop offset="1" stop-color="#fff" stop-opacity="0"/></radialGradient><radialGradient id="c" cx="138.6" cy="196.4" r="42" gradientTransform="matrix(1 0 0 -1 0 512)" gradientUnits="userSpaceOnUse"><stop offset="0" stop-color="#fff"/><stop offset="1" stop-color="#fff" stop-opacity="0"/></radialGradient><radialGradient id="d" cx="280" cy="256" r="32.5" gradientTransform="matrix(1 0 0 -1 0 512)" gradientUnits="userSpaceOnUse"><stop offset="0" stop-color="#fff"/><stop offset="1" stop-color="#fff" stop-opacity="0"/></radialGradient><radialGradient id="e" cx="183.4" cy="250.75" r="21.77" gradientTransform="matrix(1 0 0 -1 0 512)" gradientUnits="userSpaceOnUse"><stop offset="0" stop-color="#fff"/><stop offset="1" stop-color="#fff" stop-opacity="0"/></radialGradient><radialGradient id="f" cx="145" cy="229" r="24" gradientTransform="matrix(1 0 0 -1 0 512)" gradientUnits="userSpaceOnUse"><stop offset="0" stop-color="#fff"/><stop offset="1" stop-color="#fff" stop-opacity="0"/></radialGradient><radialGradient id="g" cx="447" cy="127.4" r="21" gradientTransform="matrix(1 0 0 -1 0 512)" gradientUnits="userSpaceOnUse"><stop offset="0" stop-color="#fff"/><stop offset="1" stop-color="#fff" stop-opacity="0"/></radialGradient><radialGradient id="h" cx="100.25" cy="143" r="22.75" gradientTransform="matrix(1 0 0 -1 0 512)" gradientUnits="userSpaceOnUse"><stop offset="0" stop-color="#fff"/><stop offset="1" stop-color="#fff" stop-opacity="0"/></radialGradient><radialGradient id="i" cx="205.2" cy="128.2" r="30.6" gradientTransform="matrix(1 0 0 -1 0 512)" gradientUnits="userSpaceOnUse"><stop offset="0" stop-color="#fff"/><stop offset="1" stop-color="#fff" stop-opacity="0"/></radialGradient><radialGradient id="j" cx="368.8" cy="141.8" r="44.8" gradientTransform="matrix(1 0 0 -1 0 512)" gradientUnits="userSpaceOnUse"><stop offset="0" stop-color="#fff"/><stop offset="1" stop-color="#fff" stop-opacity="0"/></radialGradient><radialGradient id="k" cx="414.4" cy="246.4" r="53.6" gradientTransform="matrix(1 0 0 -1 0 512)" gradientUnits="userSpaceOnUse"><stop offset="0" stop-color="#fff"/><stop offset="1" stop-color="#fff" stop-opacity="0"/></radialGradient><radialGradient id="l" cx="78.64" cy="192" r="18" gradientTransform="matrix(1 0 0 -1 0 512)" gradientUnits="userSpaceOnUse"><stop offset="0" stop-color="#fff"/><stop offset="1" stop-color="#fff" stop-opacity="0"/></radialGradient><linearGradient id="m" x1="64" x2="120" y1="246" y2="246" gradientTransform="matrix(.76269 0 0 .81146 -166.8 -132.17)" gradientUnits="userSpaceOnUse"><stop offset="0" stop-color="#c0bfbc"/><stop offset=".86" stop-color="#c0bfbc"/><stop offset=".93" stop-color="#deddda"/><stop offset="1" stop-color="#c0bfbc"/></linearGradient><linearGradient id="n" x1="64" x2="120" y1="246" y2="246" gradientTransform="matrix(-.76269 0 0 .81146 -69.18 -132.17)" gradientUnits="userSpaceOnUse"><stop offset="0" stop-color="#c0bfbc"/><stop offset=".86" stop-color="#c0bfbc"/><stop offset=".93" stop-color="#deddda"/><stop offset="1" stop-color="#c0bfbc"/></linearGradient><linearGradient id="o" x1="320" x2="416" y1="116" y2="116" gradientTransform="matrix(-.19067 0 0 .20287 -38.67 27.69)" gradientUnits="userSpaceOnUse"><stop offset="0" stop-color="#f6f5f4"/><stop offset=".5" stop-color="#fff"/><stop offset="1" stop-color="#e0dedb"/></linearGradient><linearGradient id="p" x1="320" x2="416" y1="116" y2="116" gradientTransform="matrix(.19067 0 0 .20287 -197.3 27.69)" gradientUnits="userSpaceOnUse"><stop offset="0" stop-color="#f6f5f4"/><stop offset=".5" stop-color="#f6f5f4"/><stop offset="1" stop-color="#cccbc8"/></linearGradient><linearGradient id="q" x1="59.09" x2="46.29" y1="216.78" y2="169" gradientTransform="matrix(.76269 0 0 .81146 -175.85 -134.59)" gradientUnits="userSpaceOnUse"><stop offset="0" stop-color="#0cc"/><stop offset="1" stop-color="#32e5d2"/></linearGradient></defs><path fill="#00c0cc" d="M0 0h324v234H0z" paint-order="markers fill stroke"/><g opacity=".28" transform="matrix(.7795 0 0 1.04496 -43.9 -201.77)"><circle cx="106.3" cy="239.5" r="45.7" fill="url(#a)"/><circle cx="324" cy="302" r="45.5" fill="url(#b)"/><circle cx="138.6" cy="315.6" r="42" fill="url(#c)"/><circle cx="280" cy="256" r="32.5" fill="url(#d)"/><circle cx="183.4" cy="261.2" r="21.8" fill="url(#e)"/><circle cx="145" cy="283" r="24" fill="url(#f)"/><circle cx="447" cy="384.6" r="21" fill="url(#g)"/><circle cx="100.2" cy="369" r="22.8" fill="url(#h)"/><circle cx="205.2" cy="383.8" r="30.6" fill="url(#i)"/><circle cx="368.8" cy="370.2" r="44.8" fill="url(#j)"/><circle cx="414.4" cy="265.6" r="53.6" fill="url(#k)"/><circle cx="78.6" cy="320" r="18" fill="url(#l)"/></g><g fill="none"><path fill="#1ca8a8" d="M232.2 160.75v8.85c0 5.9-4.46 10.66-10.02 10.66H194.6c-12.14 0-22.6 7.64-27.35 18.64h-10.5c-4.75-11-15.2-18.64-27.35-18.64h-27.58c-5.56 0-10.03-4.75-10.03-10.66v-8.85zm0 0"/><path fill="url(#m)" d="M-116.21 46.37c-.13.8-.21 1.6-.25 2.42H-118V99.9h3.2c2.88-6.7 9.24-11.36 16.63-11.36h16.78c3.38 0 6.1-2.9 6.1-6.5v-28.9c0-3.6-2.72-6.49-6.1-6.49zm0 0" transform="matrix(1.64384 0 0 1.64112 355.96 30.94)"/><path fill="url(#n)" d="M-119.76 46.37c.12.8.2 1.6.25 2.42h1.52V99.9h-3.19c-2.9-6.7-9.25-11.36-16.64-11.36h-16.78c-3.38 0-6.1-2.9-6.1-6.5v-28.9c0-3.6 2.72-6.49 6.1-6.49zm0 0" transform="matrix(1.64384 0 0 1.64112 355.96 30.94)"/><path fill="url(#o)" d="M-81.38 19.58c3.38 0 6.1 2.89 6.1 6.49v47.87c0 3.6-2.72 6.5-6.1 6.5h-18.3c-10.11 0-18.31 8.71-18.31 19.47V40.67c0-10.75 8.2-21.1 18.3-21.1zm0 0" transform="matrix(1.64384 0 0 1.64112 355.96 30.94)"/><path fill="url(#p)" d="M-154.6 19.58c-3.38 0-6.1 2.89-6.1 6.49v47.87c0 3.6 2.72 6.5 6.1 6.5h18.3c10.11 0 18.31 8.71 18.31 19.47V40.67c0-10.75-8.2-21.1-18.3-21.1zm0 0" transform="matrix(1.64384 0 0 1.64112 355.96 30.94)"/><path fill="#0cc" d="M209.64 77.71v8H194.6a31.99 31.99 0 0 0-15.05 4.36v-7.39a26.08 26.08 0 0 1 15.05-4.97zm0 0"/><path fill="#dedcd9" d="M217.16 93.7v5.32H194.6a31.99 31.99 0 0 0-15.05 4.37v-4.73a26.08 26.08 0 0 1 15.05-4.96Zm0 10.65v5.33H194.6a31.99 31.99 0 0 0-15.05 4.37v-4.73a26.08 26.08 0 0 1 15.05-4.97zm0 10.65v5.33H194.6a31.99 31.99 0 0 0-15.05 4.37v-4.73A26.08 26.08 0 0 1 194.6 115Zm-90.26 21.31h-20.06v5.33h20.06ZM106.84 93.7v5.32h25.07c4.48.2 8.72 1.24 12.54 3.06V97.1a25.41 25.41 0 0 0-12.54-3.4zm0 10.65v5.33h25.07a32.4 32.4 0 0 1 12.54 3.05v-4.97a25.41 25.41 0 0 0-12.54-3.41zm0 10.65v5.33h25.07c4.48.2 8.72 1.24 12.54 3.05v-4.97a25.41 25.41 0 0 0-12.54-3.4zm0-31.96v5.33h25.07c4.48.2 8.72 1.24 12.54 3.05v-4.97a25.41 25.41 0 0 0-12.54-3.4zm0 42.62v5.32h25.07c4.48.2 8.72 1.24 12.54 3.06v-4.98a25.41 25.41 0 0 0-12.54-3.4zm100.29 0v5.32H194.6a31.99 31.99 0 0 0-15.05 4.37v-4.73a26.08 26.08 0 0 1 15.05-4.96zm0 0"/><path fill="url(#q)" d="M-140.54 2.53s-6.28 16.59-6.26 25.31c.01 6.5.84 13.82 4.74 18.81 3 3.84 12.68 6.47 12.68 6.47l2.95-.84s7.15-7.43 7.94-12.35c1.03-6.4-1.7-13.18-4.73-18.8-4.09-7.57-17.32-18.6-17.32-18.6zm0 0" transform="matrix(1.64384 0 0 1.64112 355.96 30.94)"/><path fill="#1ca8a8" d="M148.48 138.73c-13.5-53.53-13.15-59.51-19.76-88.98 8.2 28.9 11.1 34.07 24.6 87.6zm0 0"/><path fill="#1ca8a8" d="M134.53 75.14c4.54-8.34 6.16-10 7.77-12.78-1.46 2.86-2.05 5.16-6.59 13.5zm3.14 12.94c6.3-11.58 8.56-13.9 10.78-17.75-2 3.98-2.84 7.18-9.14 18.76zm3.47 13.89c6.66-12.25 9.04-14.71 11.4-18.78-2.13 4.21-3.01 7.59-9.67 19.84zm0 0"/><path fill="#1ca8a8" d="M135.47 74.87c-7.86-4.8-10.05-5.39-12.75-6.94 2.6 1.71 4.21 3.39 12.06 8.2zm3.37 12.88c-10.9-6.69-13.95-7.5-17.7-9.65 3.63 2.38 5.84 4.7 16.75 11.4zm3.53 13.86c-11.53-7.07-14.75-7.93-18.72-10.2 3.83 2.51 6.19 4.97 17.72 12.04zm0 0"/></g></svg>