<?xml version="1.0" encoding="UTF-8"?>
<svg xmlns="http://www.w3.org/2000/svg" xmlns:xlink="http://www.w3.org/1999/xlink" width="324px" height="234px" viewBox="0 0 324 234" version="1.1">
<defs>
<linearGradient id="linear0" gradientUnits="userSpaceOnUse" x1="-1.455352" y1="64.761543" x2="181.728165" y2="64.761543" gradientTransform="matrix(1.8,0,0,1.8,0,0)">
<stop offset="0" style="stop-color:rgb(16.078432%,50.196081%,72.549021%);stop-opacity:1;"/>
<stop offset="1" style="stop-color:rgb(11.372549%,60.000002%,95.294118%);stop-opacity:1;"/>
</linearGradient>
</defs>
<g id="surface1">
<rect x="0" y="0" width="324" height="234" style="fill:url(#linear0);stroke:none;"/>
<path style="fill:none;stroke-width:1.021703;stroke-linecap:butt;stroke-linejoin:miter;stroke:rgb(100%,100%,100%);stroke-opacity:1;stroke-miterlimit:4;" d="M -0.94401 -1.082899 L 181.217448 -1.082899 L 181.217448 130.605469 L -0.94401 130.605469 Z M -0.94401 -1.082899 " transform="matrix(1.8,0,0,1.8,0,0)"/>
<path style=" stroke:none;fill-rule:nonzero;fill:rgb(100%,100%,100%);fill-opacity:1;" d="M 93.230469 58.195312 L 93.054688 59.277344 C 92.871094 60.402344 92.46875 77.015625 92.1875 94.636719 L 92.023438 104.980469 L 93.527344 104.394531 C 96.925781 103.074219 102.367188 99.179688 102.367188 98.070312 C 102.367188 97.828125 102.011719 96.910156 101.578125 96.023438 C 99.902344 92.625 98.253906 86.15625 96.53125 76.15625 C 95.210938 68.472656 93.722656 60.25 93.449219 59.128906 Z M 230.667969 60.046875 L 230.4375 60.960938 C 230.316406 61.46875 229.546875 65.953125 228.71875 70.933594 C 226.0625 86.863281 224.433594 93.191406 222.015625 97.066406 C 221.734375 97.515625 221.511719 98.101562 221.511719 98.355469 C 221.511719 99.308594 224.929688 101.65625 229.242188 103.664062 C 230.4375 104.222656 231.632812 104.675781 231.898438 104.683594 C 232.433594 104.695312 232.449219 106.730469 231.820312 84.75 C 231.464844 72.238281 231.03125 61.753906 230.832031 60.8125 Z M 138.59375 86.460938 C 137.15625 86.449219 136.433594 86.613281 135.609375 87.105469 C 133.652344 88.285156 130.308594 91.757812 120.816406 102.523438 C 115.664062 108.363281 110.421875 114.082031 109.15625 115.222656 C 105.285156 118.710938 100.121094 121.300781 93.910156 122.863281 C 90.039062 123.839844 84.511719 123.835938 81.285156 122.863281 C 76.292969 121.355469 74.613281 122.316406 75.660156 126.089844 C 77.679688 133.339844 92.054688 140.230469 110.097656 142.597656 C 113.835938 143.085938 122.667969 143.160156 125.71875 142.734375 C 135.421875 141.371094 142.820312 137.679688 152.6875 129.277344 C 157.851562 124.878906 160.335938 123.347656 162.285156 123.347656 C 164.089844 123.347656 166.953125 125.035156 170.851562 128.394531 C 179.351562 135.730469 182.238281 137.648438 188.34375 139.96875 C 195.808594 142.800781 196.382812 142.914062 204.136719 142.90625 C 217.78125 142.894531 230.257812 140.417969 238.71875 136.046875 C 243.289062 133.6875 248.300781 128.824219 248.941406 126.125 C 249.320312 124.53125 249.105469 122.792969 248.460938 122.242188 C 247.859375 121.734375 246.078125 121.933594 242.765625 122.875 C 239.417969 123.832031 234.332031 123.828125 230.878906 122.863281 C 224.960938 121.214844 221.460938 119.566406 217.453125 116.539062 C 213.664062 113.675781 210.210938 110.050781 202.339844 100.6875 C 191.863281 88.230469 189.757812 86.386719 186.097656 86.488281 C 183.882812 86.546875 182.523438 86.972656 175.371094 89.886719 C 163.929688 94.542969 161.765625 94.921875 156.777344 93.058594 C 155.285156 92.503906 151.949219 91.085938 149.363281 89.921875 C 143.511719 87.285156 141.03125 86.484375 138.59375 86.460938 Z M 93.042969 156.5625 C 92.6875 156.5625 92.699219 156.863281 93.164062 158.792969 C 94.226562 163.199219 96.546875 167.800781 99.011719 170.402344 C 101.53125 173.0625 103.828125 174.117188 108.246094 174.644531 C 113.367188 175.257812 120.488281 174.878906 122.703125 173.875 C 124 173.289062 124.5 172.480469 125.046875 170.054688 C 125.5 168.0625 125.730469 160.171875 125.34375 159.738281 C 125.226562 159.601562 122.019531 159.402344 118.226562 159.289062 C 114.433594 159.179688 110.449219 158.992188 109.363281 158.878906 C 105.019531 158.441406 102.027344 158.039062 97.835938 157.316406 C 95.425781 156.902344 93.273438 156.5625 93.042969 156.5625 Z M 231.800781 157.046875 C 231.738281 156.976562 230.5625 157.1875 229.1875 157.503906 C 222.953125 158.949219 217.109375 159.703125 206.628906 160.40625 C 202.84375 160.660156 199.578125 160.863281 199.367188 160.863281 C 199.050781 160.863281 198.984375 161.816406 198.984375 166.246094 L 198.984375 171.644531 L 200.144531 173.03125 C 200.863281 173.890625 201.667969 174.511719 202.25 174.667969 C 202.769531 174.808594 205.207031 174.925781 207.667969 174.941406 C 217.421875 175.011719 222.984375 173.660156 225.722656 170.539062 C 226.320312 169.859375 227.453125 167.957031 228.246094 166.324219 C 229.675781 163.382812 232.011719 157.285156 231.800781 157.046875 Z M 231.800781 157.046875 "/>
</g>
</svg>
