<?xml version="1.0" encoding="UTF-8" standalone="no"?>
<svg
   xmlns:dc="http://purl.org/dc/elements/1.1/"
   xmlns:cc="http://creativecommons.org/ns#"
   xmlns:rdf="http://www.w3.org/1999/02/22-rdf-syntax-ns#"
   xmlns:svg="http://www.w3.org/2000/svg"
   xmlns="http://www.w3.org/2000/svg"
   xmlns:xlink="http://www.w3.org/1999/xlink"
   width="324"
   height="234"
   viewBox="0 0 85.725 61.912503"
   version="1.1"
   id="svg8">
  <defs
     id="defs2">
    <linearGradient
       id="linearGradient2268">
      <stop
         style="stop-color:#6137a6;stop-opacity:1"
         offset="0"
         id="stop2264" />
      <stop
         style="stop-color:#221042;stop-opacity:1"
         offset="1"
         id="stop2266" />
    </linearGradient>
    <linearGradient
       id="linearGradient2254">
      <stop
         style="stop-color:#ff9680;stop-opacity:1"
         offset="0"
         id="stop2250" />
      <stop
         style="stop-color:#ff1677;stop-opacity:1"
         offset="1"
         id="stop2252" />
    </linearGradient>
    <linearGradient
       id="linearGradient1840">
      <stop
         id="stop1836"
         offset="0"
         style="stop-color:#f76b4d;stop-opacity:1" />
      <stop
         id="stop1838"
         offset="1"
         style="stop-color:#ba0d55;stop-opacity:1" />
    </linearGradient>
    <linearGradient
       id="linearGradient1066">
      <stop
         style="stop-color:#4b2d83;stop-opacity:1"
         offset="0"
         id="stop1062" />
      <stop
         style="stop-color:#9779d1;stop-opacity:1"
         offset="1"
         id="stop1064" />
    </linearGradient>
    <linearGradient
       id="linearGradient1042">
      <stop
         id="stop1038"
         offset="0"
         style="stop-color:#9779d1;stop-opacity:1" />
      <stop
         id="stop1040"
         offset="1"
         style="stop-color:#4b2d83;stop-opacity:1" />
    </linearGradient>
    <linearGradient
       id="linearGradient1034">
      <stop
         id="stop1030"
         offset="0"
         style="stop-color:#683db3;stop-opacity:1" />
      <stop
         id="stop1032"
         offset="1"
         style="stop-color:#3a2264;stop-opacity:1" />
    </linearGradient>
    <linearGradient
       id="linearGradient1026">
      <stop
         id="stop1022"
         offset="0"
         style="stop-color:#432673;stop-opacity:1" />
      <stop
         id="stop1024"
         offset="1"
         style="stop-color:#150c24;stop-opacity:1" />
    </linearGradient>
    <linearGradient
       gradientUnits="userSpaceOnUse"
       y2="65.497971"
       x2="324"
       y1="65.497971"
       x1="0"
       id="linearGradient1020"
       xlink:href="#linearGradient1026" />
    <linearGradient
       gradientUnits="userSpaceOnUse"
       y2="181.72162"
       x2="324"
       y1="181.72162"
       x1="0"
       id="linearGradient1028"
       xlink:href="#linearGradient1026" />
    <linearGradient
       gradientUnits="userSpaceOnUse"
       y2="130.0918"
       x2="168.97266"
       y1="172.50391"
       x1="0"
       id="linearGradient1036"
       xlink:href="#linearGradient1034" />
    <linearGradient
       gradientUnits="userSpaceOnUse"
       y2="130.44727"
       x2="168.20898"
       y1="34.318359"
       x1="0"
       id="linearGradient1044"
       xlink:href="#linearGradient1042" />
    <linearGradient
       gradientUnits="userSpaceOnUse"
       y2="36.898438"
       x2="324"
       y1="130.43164"
       x1="168.66797"
       id="linearGradient1052"
       xlink:href="#linearGradient1066" />
    <linearGradient
       gradientUnits="userSpaceOnUse"
       y2="187.12305"
       x2="324"
       y1="130.0918"
       x1="168.97266"
       id="linearGradient1060"
       xlink:href="#linearGradient1034" />
    <linearGradient
       gradientTransform="rotate(86.186529,168.40084,129.8614)"
       y2="130.44727"
       x2="168.20898"
       y1="34.318359"
       x1="0"
       gradientUnits="userSpaceOnUse"
       id="linearGradient1084"
       xlink:href="#linearGradient1042" />
    <linearGradient
       gradientTransform="rotate(86.186529,168.40084,129.8614)"
       y2="130.0918"
       x2="168.97266"
       y1="172.50391"
       x1="0"
       gradientUnits="userSpaceOnUse"
       id="linearGradient1086"
       xlink:href="#linearGradient1034" />
    <linearGradient
       gradientTransform="rotate(86.186529,168.40084,129.8614)"
       y2="36.898438"
       x2="324"
       y1="130.43164"
       x1="168.66797"
       gradientUnits="userSpaceOnUse"
       id="linearGradient1088"
       xlink:href="#linearGradient1066" />
    <linearGradient
       gradientTransform="rotate(86.186529,168.40084,129.8614)"
       y2="187.12305"
       x2="324"
       y1="130.0918"
       x1="168.97266"
       gradientUnits="userSpaceOnUse"
       id="linearGradient1090"
       xlink:href="#linearGradient1034" />
    <filter
       height="1"
       width="1"
       y="0"
       x="0"
       style="color-interpolation-filters:sRGB"
       id="filter1688">
      <feGaussianBlur
         stdDeviation="14 14"
         result="blur"
         id="feGaussianBlur1682" />
      <feColorMatrix
         values="1 0 0 0 0 0 1 0 0 0 0 0 1 0 0 0 0 0 50 0 "
         result="colormatrix"
         id="feColorMatrix1684" />
      <feComposite
         in="colormatrix"
         in2="SourceGraphic"
         operator="in"
         id="feComposite1686" />
    </filter>
    <linearGradient
       gradientUnits="userSpaceOnUse"
       y2="181.72162"
       x2="324"
       y1="181.72162"
       x1="0"
       id="linearGradient1028-6"
       xlink:href="#linearGradient1026"
       gradientTransform="matrix(0.41383791,0,0,0.41383791,109.43288,-8.6123991)" />
    <linearGradient
       xlink:href="#linearGradient1034"
       id="linearGradient1670"
       gradientUnits="userSpaceOnUse"
       gradientTransform="matrix(0.41383791,0,0,0.41383791,109.43288,-8.6123991)"
       x1="168.97266"
       y1="130.0918"
       x2="324"
       y2="187.12305" />
    <linearGradient
       xlink:href="#linearGradient1066"
       id="linearGradient1668"
       gradientUnits="userSpaceOnUse"
       gradientTransform="matrix(0.41383791,0,0,0.41383791,109.43288,-8.6123991)"
       x1="168.66797"
       y1="130.43164"
       x2="324"
       y2="36.898438" />
    <linearGradient
       gradientUnits="userSpaceOnUse"
       y2="130.0918"
       x2="168.97266"
       y1="172.50391"
       x1="0"
       id="linearGradient1036-7"
       xlink:href="#linearGradient1034"
       gradientTransform="matrix(0.41383791,0,0,0.41383791,109.43288,-8.6123991)" />
    <linearGradient
       gradientUnits="userSpaceOnUse"
       y2="130.44727"
       x2="168.20898"
       y1="34.318359"
       x1="0"
       id="linearGradient1044-0"
       xlink:href="#linearGradient1042"
       gradientTransform="matrix(0.41383791,0,0,0.41383791,109.43288,-8.6123991)" />
    <linearGradient
       gradientUnits="userSpaceOnUse"
       y2="65.497971"
       x2="324"
       y1="65.497971"
       x1="0"
       id="linearGradient1020-6"
       xlink:href="#linearGradient1026"
       gradientTransform="matrix(0.41383791,0,0,0.41383791,109.43288,-8.6123991)" />
    <linearGradient
       xlink:href="#linearGradient1034"
       id="linearGradient1666"
       gradientUnits="userSpaceOnUse"
       gradientTransform="matrix(0.02752374,0.41292161,-0.41292161,0.02752374,228.11109,-27.981447)"
       x1="168.97266"
       y1="130.0918"
       x2="324"
       y2="187.12305" />
    <linearGradient
       xlink:href="#linearGradient1066"
       id="linearGradient1664"
       gradientUnits="userSpaceOnUse"
       gradientTransform="matrix(0.02752374,0.41292161,-0.41292161,0.02752374,228.11109,-27.981447)"
       x1="168.66797"
       y1="130.43164"
       x2="324"
       y2="36.898438" />
    <radialGradient
       gradientUnits="userSpaceOnUse"
       gradientTransform="matrix(1,0,0,0.86054257,140.11428,-22.946545)"
       r="4.713398"
       fy="12.585841"
       fx="128.89692"
       cy="12.585841"
       cx="128.89692"
       id="radialGradient1842"
       xlink:href="#linearGradient1840" />
    <linearGradient
       y2="234"
       x2="324"
       y1="34.318359"
       x1="0"
       gradientTransform="matrix(0.37224403,0,0,0.35376549,95.343737,23.926223)"
       gradientUnits="userSpaceOnUse"
       id="linearGradient2181"
       xlink:href="#linearGradient2268" />
    <linearGradient
       gradientTransform="matrix(0.37604651,0,0,0.36625826,125.12634,-55.577961)"
       gradientUnits="userSpaceOnUse"
       y2="343.24902"
       x2="244.80078"
       y1="343.24902"
       x1="-79.199219"
       id="linearGradient2191"
       xlink:href="#linearGradient2254" />
    <linearGradient
       gradientUnits="userSpaceOnUse"
       y2="108.19531"
       x2="292.38867"
       y1="66.625"
       x1="52.496094"
       id="linearGradient2248"
       xlink:href="#linearGradient2254" />
  </defs>
  <metadata
     id="metadata5">
    <rdf:RDF>
      <cc:Work
         rdf:about="">
        <dc:format>image/svg+xml</dc:format>
        <dc:type
           rdf:resource="http://purl.org/dc/dcmitype/StillImage" />
        <dc:title></dc:title>
      </cc:Work>
    </rdf:RDF>
  </metadata>
  <g
     id="layer1">
    <path
       transform="scale(0.26458334)"
       d="M 168.66797 130.43164 C 166.97414 132.30892 165.31765 134.24764 163.59375 136.07031 C 160.99199 138.82113 158.36174 141.51395 155.69531 144.13086 C 153.02888 146.74777 150.326 149.2884 147.58203 151.73047 C 144.83806 154.17254 142.05313 156.5159 139.21875 158.74219 C 136.38437 160.96848 133.5021 163.07728 130.56445 165.04688 C 127.6268 167.01645 124.63387 168.8476 121.58008 170.51953 C 118.52629 172.19146 115.41131 173.70377 112.22852 175.03711 C 109.04572 176.37045 105.794 177.52546 102.48828 178.51367 C 99.182564 179.50189 95.821592 180.32316 92.417969 180.99414 C 89.014345 181.66512 85.568308 182.18477 82.091797 182.56641 C 78.615286 182.94805 75.108367 183.19231 71.583984 183.3125 C 68.059602 183.43269 64.51794 183.42978 60.970703 183.31641 C 57.423466 183.20303 53.871246 182.9792 50.326172 182.66016 C 46.781097 182.34111 43.242505 181.92651 39.724609 181.42969 C 36.206714 180.93286 32.709841 180.35375 29.244141 179.70703 C 22.312741 178.4136 15.510018 176.84869 8.9375 175.12305 C 5.8340223 174.30822 2.9906136 173.37848 0 172.50391 L 0 234 L 324 234 L 324 187.12305 C 323.3278 186.27505 322.69898 185.36264 322.01953 184.52539 C 318.04626 179.62935 313.94473 174.92151 309.67383 170.4668 C 307.53838 168.23944 305.36057 166.0758 303.13477 163.98242 C 300.90897 161.88904 298.63537 159.86747 296.30859 157.92383 C 293.98181 155.98019 291.60245 154.11408 289.16406 152.33594 C 286.72567 150.55779 284.2286 148.86641 281.66797 147.26953 C 279.10734 145.67265 276.48256 144.17134 273.78906 142.77148 C 271.09556 141.37163 268.33309 140.07379 265.49609 138.88672 C 262.65909 137.69965 259.74699 136.62259 256.75586 135.66406 C 253.76473 134.70554 250.69495 133.86461 247.53906 133.15039 C 244.38317 132.43618 241.1414 131.84974 237.82617 131.36914 C 234.51094 130.88854 231.12308 130.51465 227.66992 130.23047 C 220.7636 129.66212 213.6011 129.44914 206.27148 129.44336 C 198.94187 129.43758 191.44492 129.63916 183.86328 129.89844 C 178.8347 130.07041 173.74477 130.25191 168.66797 130.43164 z "
       style="fill:url(#linearGradient1028);fill-opacity:1;stroke:none;stroke-width:1.51325;stroke-linecap:round;stroke-linejoin:round"
       id="rect830" />
    <path
       transform="scale(0.26458334)"
       d="M 168.66797 130.43164 C 173.74477 130.25191 178.8347 130.07041 183.86328 129.89844 C 191.44492 129.63916 198.94187 129.43758 206.27148 129.44336 C 213.6011 129.44914 220.7636 129.66212 227.66992 130.23047 C 231.12308 130.51465 234.51094 130.88854 237.82617 131.36914 C 241.1414 131.84974 244.38317 132.43618 247.53906 133.15039 C 250.69495 133.86461 253.76473 134.70554 256.75586 135.66406 C 259.74699 136.62259 262.65909 137.69965 265.49609 138.88672 C 268.33309 140.07379 271.09556 141.37163 273.78906 142.77148 C 276.48256 144.17134 279.10734 145.67265 281.66797 147.26953 C 284.2286 148.86641 286.72567 150.55779 289.16406 152.33594 C 291.60245 154.11408 293.98181 155.98019 296.30859 157.92383 C 298.63537 159.86747 300.90897 161.88904 303.13477 163.98242 C 305.36057 166.0758 307.53838 168.23944 309.67383 170.4668 C 313.94473 174.92151 318.04626 179.62935 322.01953 184.52539 C 322.69898 185.36264 323.3278 186.27505 324 187.12305 L 324 102.65234 C 321.55469 101.68871 319.10595 100.75101 316.64062 99.904297 C 313.75076 98.911767 310.8461 98.002009 307.92578 97.1875 C 305.00547 96.372991 302.0692 95.652905 299.11523 95.035156 C 296.16127 94.417407 293.19005 93.90225 290.19922 93.5 C 287.20839 93.09775 284.19886 92.808637 281.16797 92.640625 C 278.13707 92.472613 275.08393 92.426754 272.00977 92.511719 C 268.9356 92.596684 265.83939 92.813241 262.71875 93.169922 C 259.59811 93.526603 256.45353 94.022786 253.2832 94.669922 C 250.11288 95.317058 246.91673 96.113449 243.69727 97.039062 C 240.4778 97.964677 237.2351 99.020253 233.9707 100.18164 C 227.44192 102.50442 220.82773 105.25596 214.14453 108.26562 C 207.46133 111.2753 200.71014 114.5435 193.90625 117.89844 C 187.10236 121.25337 180.24632 124.69415 173.35547 128.05273 C 171.90067 128.7618 170.43042 129.39179 168.97266 130.0918 C 168.87043 130.20426 168.76989 130.31869 168.66797 130.43164 z "
       style="fill:url(#linearGradient1060);fill-opacity:1;stroke:none;stroke-width:1.51325;stroke-linecap:round;stroke-linejoin:round"
       id="path873" />
    <path
       transform="scale(0.26458334)"
       d="M 308.87891 36.546875 C 305.79389 36.609804 302.7273 36.74666 299.67969 36.966797 C 296.63207 37.186934 293.60348 37.490878 290.59766 37.886719 C 287.59183 38.28256 284.60807 38.771288 281.64844 39.361328 C 278.68881 39.951368 275.75278 40.642578 272.84375 41.445312 C 269.93472 42.248048 267.05326 43.161389 264.19922 44.195312 C 261.34518 45.229237 258.51926 46.384361 255.72461 47.667969 C 252.92996 48.951576 250.1664 50.364228 247.43555 51.916016 C 244.70469 53.467803 242.00642 55.157632 239.34375 56.996094 C 236.68108 58.834556 234.05375 60.82164 231.45508 62.935547 C 228.8564 65.049454 226.28583 67.290255 223.73828 69.638672 C 218.64318 74.335505 213.63773 79.46035 208.66992 84.849609 C 203.70211 90.238869 198.77352 95.892285 193.83008 101.64648 C 188.88663 107.40069 183.92826 113.2552 178.90625 119.04688 C 175.64812 122.80433 172.29956 126.43173 168.97266 130.0918 C 170.43042 129.39179 171.90067 128.7618 173.35547 128.05273 C 180.24632 124.69415 187.10236 121.25337 193.90625 117.89844 C 200.71014 114.5435 207.46133 111.27529 214.14453 108.26562 C 220.82773 105.25596 227.44192 102.50442 233.9707 100.18164 C 237.2351 99.020252 240.4778 97.964676 243.69727 97.039062 C 246.91673 96.113449 250.11288 95.317058 253.2832 94.669922 C 256.45353 94.022786 259.59811 93.526603 262.71875 93.169922 C 265.83939 92.813241 268.9356 92.596684 272.00977 92.511719 C 275.08393 92.426754 278.13707 92.472613 281.16797 92.640625 C 284.19886 92.808637 287.20839 93.09775 290.19922 93.5 C 293.19005 93.90225 296.16127 94.417407 299.11523 95.035156 C 302.0692 95.652905 305.00547 96.372991 307.92578 97.1875 C 310.8461 98.002009 313.75076 98.911767 316.64062 99.904297 C 319.10594 100.75101 321.55469 101.68871 324 102.65234 L 324 36.898438 C 318.92895 36.652433 313.86724 36.445122 308.87891 36.546875 z "
       style="fill:url(#linearGradient1052);fill-opacity:1;stroke:none;stroke-width:1.51325;stroke-linecap:round;stroke-linejoin:round"
       id="path863" />
    <path
       transform="scale(0.26458334)"
       d="M 168.97266 130.0918 C 163.52551 132.70748 158.07181 135.32412 152.59375 137.70703 C 149.1217 139.21734 145.64505 140.66362 142.16602 142.02539 C 138.68698 143.38716 135.20641 144.66542 131.72461 145.83594 C 128.24281 147.00646 124.75966 148.06929 121.2793 149.00586 C 117.79894 149.94243 114.3204 150.75219 110.8457 151.41211 C 107.371 152.07203 103.90037 152.58326 100.43555 152.92383 C 96.970725 153.2644 93.511277 153.4336 90.060547 153.41211 C 86.609817 153.39062 83.16871 153.17819 79.740234 152.79102 C 76.311758 152.40384 72.896098 151.84239 69.501953 151.125 C 66.107808 150.40761 62.734457 149.53363 59.386719 148.52148 C 56.038981 147.50934 52.716988 146.35932 49.427734 145.08789 C 46.13848 143.81646 42.882756 142.42493 39.664062 140.92969 C 36.445369 139.43444 33.264963 137.83594 30.128906 136.15234 C 26.99285 134.46875 23.900718 132.69976 20.859375 130.86328 C 17.818032 129.0268 14.827131 127.12187 11.892578 125.16797 C 7.7581894 122.41519 3.8935497 119.48894 0 116.58789 L 0 172.50391 C 2.9906136 173.37848 5.8340223 174.30822 8.9375 175.12305 C 15.510018 176.84869 22.312741 178.4136 29.244141 179.70703 C 32.709841 180.35375 36.206714 180.93286 39.724609 181.42969 C 43.242505 181.92651 46.781097 182.34111 50.326172 182.66016 C 53.871246 182.9792 57.423466 183.20303 60.970703 183.31641 C 64.51794 183.42978 68.059602 183.43269 71.583984 183.3125 C 75.108367 183.19231 78.615286 182.94805 82.091797 182.56641 C 85.568308 182.18477 89.014345 181.66512 92.417969 180.99414 C 95.821592 180.32316 99.182563 179.50189 102.48828 178.51367 C 105.794 177.52546 109.04572 176.37045 112.22852 175.03711 C 115.41131 173.70377 118.52629 172.19146 121.58008 170.51953 C 124.63387 168.8476 127.6268 167.01645 130.56445 165.04688 C 133.5021 163.07729 136.38437 160.96848 139.21875 158.74219 C 142.05313 156.5159 144.83806 154.17254 147.58203 151.73047 C 150.326 149.2884 153.02888 146.74777 155.69531 144.13086 C 158.36174 141.51395 160.99199 138.82113 163.59375 136.07031 C 165.42138 134.13797 167.17154 132.07328 168.97266 130.0918 z "
       style="fill:url(#linearGradient1036);fill-opacity:1;stroke:none;stroke-width:1.51325;stroke-linecap:round;stroke-linejoin:round"
       id="path853" />
    <path
       transform="scale(0.26458334)"
       d="M 0 34.318359 L 0 116.58789 C 3.8935497 119.48894 7.7581895 122.41519 11.892578 125.16797 C 14.827131 127.12187 17.818032 129.0268 20.859375 130.86328 C 23.900718 132.69976 26.99285 134.46875 30.128906 136.15234 C 33.264963 137.83594 36.445369 139.43444 39.664062 140.92969 C 42.882757 142.42493 46.13848 143.81646 49.427734 145.08789 C 52.716988 146.35932 56.038981 147.50934 59.386719 148.52148 C 62.734457 149.53363 66.107808 150.40761 69.501953 151.125 C 72.896098 151.84239 76.311758 152.40384 79.740234 152.79102 C 83.16871 153.17819 86.609817 153.39062 90.060547 153.41211 C 93.511277 153.4336 96.970722 153.2644 100.43555 152.92383 C 103.90037 152.58326 107.371 152.07203 110.8457 151.41211 C 114.3204 150.75219 117.79894 149.94243 121.2793 149.00586 C 124.75966 148.06929 128.24281 147.00646 131.72461 145.83594 C 135.20641 144.66542 138.68698 143.38716 142.16602 142.02539 C 145.64505 140.66362 149.1217 139.21734 152.59375 137.70703 C 157.81634 135.43525 163.01524 132.94056 168.20898 130.44727 C 165.78446 130.53256 163.37988 130.62933 160.95312 130.70117 C 153.29071 130.92801 145.63051 131.06405 138.05859 130.96094 C 134.27263 130.90938 130.50857 130.7992 126.77734 130.60938 C 123.04612 130.41955 119.34844 130.15044 115.69336 129.78516 C 112.03827 129.41988 108.42668 128.95879 104.86914 128.38086 C 101.3116 127.80293 97.807721 127.10901 94.369141 126.28125 C 90.93056 125.45349 87.557983 124.49174 84.259766 123.37695 C 80.961549 122.26217 77.738009 120.99368 74.601562 119.55469 C 71.465116 118.11569 68.414961 116.50534 65.449219 114.74219 C 62.483476 112.97903 59.601354 111.0637 56.802734 109.01367 C 54.004115 106.96365 51.289375 104.77811 48.654297 102.47852 C 46.019219 100.17892 43.465352 97.76578 40.990234 95.253906 C 38.515117 92.742033 36.117567 90.132168 33.798828 87.445312 C 31.48009 84.758457 29.240159 81.994465 27.074219 79.169922 C 24.908278 76.345379 22.817505 73.460092 20.800781 70.535156 C 18.784058 67.61022 16.839838 64.644284 14.96875 61.65625 C 11.226574 55.680182 7.7729164 49.616018 4.5917969 43.611328 C 2.920096 40.455821 1.5227956 37.418924 0 34.318359 z "
       style="fill:url(#linearGradient1044);fill-opacity:1;stroke:none;stroke-width:1.51325;stroke-linecap:round;stroke-linejoin:round"
       id="path860" />
    <path
       transform="scale(0.26458334)"
       d="M 0 34.318359 C 1.5227956 37.418924 2.920096 40.455821 4.5917969 43.611328 C 7.7729164 49.616018 11.226574 55.680182 14.96875 61.65625 C 16.839838 64.644284 18.784058 67.61022 20.800781 70.535156 C 22.817505 73.460092 24.908278 76.345379 27.074219 79.169922 C 29.240159 81.994465 31.48009 84.758457 33.798828 87.445312 C 36.117567 90.132168 38.515117 92.742033 40.990234 95.253906 C 43.465352 97.76578 46.019219 100.17892 48.654297 102.47852 C 51.289375 104.77811 54.004115 106.96365 56.802734 109.01367 C 59.601354 111.0637 62.483476 112.97903 65.449219 114.74219 C 68.414961 116.50534 71.465116 118.11569 74.601562 119.55469 C 77.738009 120.99368 80.961549 122.26217 84.259766 123.37695 C 87.557983 124.49174 90.93056 125.45349 94.369141 126.28125 C 97.807721 127.10901 101.3116 127.80293 104.86914 128.38086 C 108.42668 128.95879 112.03827 129.41988 115.69336 129.78516 C 119.34844 130.15044 123.04612 130.41955 126.77734 130.60938 C 130.50857 130.7992 134.27263 130.90938 138.05859 130.96094 C 145.63051 131.06405 153.29071 130.92801 160.95312 130.70117 C 163.37988 130.62933 165.78446 130.53256 168.20898 130.44727 C 168.46304 130.3253 168.71863 130.21378 168.97266 130.0918 C 172.29956 126.43173 175.64812 122.80433 178.90625 119.04688 C 183.92826 113.25519 188.88663 107.40069 193.83008 101.64648 C 198.77352 95.892289 203.70211 90.238869 208.66992 84.849609 C 213.63773 79.46035 218.64318 74.335505 223.73828 69.638672 C 226.28583 67.290255 228.8564 65.049454 231.45508 62.935547 C 234.05375 60.82164 236.68108 58.834556 239.34375 56.996094 C 242.00642 55.157632 244.70469 53.467803 247.43555 51.916016 C 250.1664 50.364228 252.92996 48.951576 255.72461 47.667969 C 258.51926 46.384361 261.34518 45.229238 264.19922 44.195312 C 267.05326 43.161389 269.93472 42.248049 272.84375 41.445312 C 275.75278 40.642578 278.68881 39.951368 281.64844 39.361328 C 284.60807 38.771288 287.59183 38.28256 290.59766 37.886719 C 293.60348 37.490878 296.63207 37.186934 299.67969 36.966797 C 302.7273 36.74666 305.79389 36.609804 308.87891 36.546875 C 313.86724 36.445122 318.92895 36.652432 324 36.898438 L 324 0 L 0 0 L 0 34.318359 z "
       style="fill:url(#linearGradient1020);fill-opacity:1.0;stroke:none;stroke-width:1.51325;stroke-linecap:round;stroke-linejoin:round"
       id="path870" />
    <path
       transform="scale(0.26458334)"
       d="M 167.84961 130.16602 C 168.36659 135.21962 168.88654 140.28696 169.39258 145.29297 C 170.15552 152.84058 170.85423 160.30733 171.33594 167.62109 C 171.81765 174.93487 172.08237 182.09461 171.97461 189.02344 C 171.92071 192.48785 171.77271 195.89257 171.51367 199.23242 C 171.25462 202.57227 170.88555 205.84657 170.38281 209.04297 C 169.88007 212.23937 169.24574 215.35799 168.48828 218.40625 C 167.73081 221.45451 166.84927 224.43213 165.85352 227.3418 C 165.07656 229.61212 164.17301 231.8089 163.25977 234 L 212.72852 234 C 212.65877 232.91788 212.66112 231.8431 212.55859 230.75781 C 212.26935 227.6961 211.84664 224.6193 211.2832 221.5293 C 210.71976 218.43929 210.01671 215.33511 209.16016 212.21484 C 208.3036 209.09458 207.29589 205.95936 206.1582 202.80859 C 205.02051 199.65781 203.75093 196.49243 202.375 193.3125 C 199.62314 186.95266 196.43772 180.53659 192.99023 174.06836 C 189.54273 167.60013 185.83323 161.08132 182.0332 154.51562 C 178.23319 147.94993 174.3446 141.33776 170.53516 134.68555 C 169.7309 133.28113 169.0044 131.85524 168.20898 130.44727 C 168.08997 130.35274 167.96908 130.2602 167.84961 130.16602 z "
       style="fill:url(#linearGradient1090);fill-opacity:1;stroke:none;stroke-width:1.51325;stroke-linecap:round;stroke-linejoin:round"
       id="path1121" />
    <path
       transform="scale(0.26458334)"
       d="M 168.20898 130.44727 C 169.0044 131.85524 169.7309 133.28113 170.53516 134.68555 C 174.3446 141.33776 178.23319 147.94993 182.0332 154.51562 C 185.83323 161.08132 189.54274 167.60013 192.99023 174.06836 C 196.43772 180.53659 199.62314 186.95266 202.375 193.3125 C 203.75093 196.49243 205.02052 199.65781 206.1582 202.80859 C 207.29589 205.95936 208.3036 209.09458 209.16016 212.21484 C 210.01671 215.33511 210.71976 218.43929 211.2832 221.5293 C 211.84664 224.6193 212.26936 227.6961 212.55859 230.75781 C 212.66112 231.8431 212.65876 232.91788 212.72852 234 L 265.35742 234 C 264.78529 232.05684 264.23618 230.10677 263.56836 228.19336 C 262.57393 225.34416 261.4695 222.52896 260.24805 219.75 C 259.02659 216.97105 257.68734 214.22848 256.2207 211.52539 C 254.75407 208.8223 253.15966 206.15871 251.42969 203.53711 C 249.69971 200.9155 247.83375 198.33528 245.82227 195.80078 C 243.81078 193.26628 241.65511 190.77654 239.37305 188.32422 C 237.09098 185.87189 234.68257 183.45603 232.16992 181.07031 C 227.14462 176.29887 221.69796 171.64526 215.99023 167.04688 C 210.28251 162.4485 204.31438 157.90721 198.24414 153.35742 C 192.17389 148.80762 186.00349 144.2507 179.89062 139.625 C 175.9248 136.62399 172.08222 133.52337 168.20898 130.44727 z "
       style="fill:url(#linearGradient1088);fill-opacity:1;stroke:none;stroke-width:1.51325;stroke-linecap:round;stroke-linejoin:round"
       id="path1125" />
    <path
       transform="scale(0.26458334)"
       d="M 108.86133 0 C 108.70551 1.6345052 108.51 3.2581183 108.38867 4.9003906 C 108.1269 8.4435404 107.9478 12.002102 107.86523 15.560547 C 107.78269 19.118991 107.79713 22.677686 107.91992 26.224609 C 108.04272 29.771533 108.2746 33.305868 108.62891 36.814453 C 108.98324 40.323041 109.46025 43.804614 110.07227 47.248047 C 110.68428 50.691476 111.43226 54.095804 112.32812 57.447266 C 113.22399 60.798728 114.26676 64.097407 115.47266 67.330078 C 116.67854 70.562753 118.04777 73.731287 119.58984 76.818359 C 121.13191 79.905424 122.84742 82.911825 124.71875 85.847656 C 126.59008 88.783487 128.61676 91.649069 130.77734 94.449219 C 132.93795 97.249372 135.23271 99.984026 137.64258 102.66406 C 140.05245 105.3441 142.57615 107.96749 145.19531 110.54297 C 147.81447 113.11844 150.5299 115.64633 153.31836 118.13281 C 156.10682 120.61929 158.96895 123.06547 161.88672 125.47852 C 163.93633 127.17358 166.1121 128.78192 168.20898 130.44727 C 165.23681 125.18614 162.26346 119.91877 159.52148 114.61133 C 157.7836 111.24741 156.10967 107.8749 154.51953 104.49414 C 152.92939 101.11337 151.42098 97.724367 150.02148 94.328125 C 148.62199 90.931883 147.33004 87.52755 146.16406 84.117188 C 144.99809 80.706822 143.95987 77.290302 143.07031 73.867188 C 142.18076 70.444069 141.4394 67.014576 140.86914 63.580078 C 140.29889 60.145576 139.89947 56.70624 139.69141 53.261719 C 139.48334 49.817201 139.46671 46.368509 139.625 42.921875 C 139.78329 39.475241 140.11736 36.030045 140.60742 32.595703 C 141.09748 29.161361 141.744 25.73772 142.53125 22.330078 C 143.3185 18.922437 144.24507 15.530594 145.29492 12.164062 C 146.34477 8.7975304 147.51706 5.4574979 148.79492 2.1464844 C 149.0739 1.4236286 149.4084 0.71979324 149.69727 0 L 108.86133 0 z "
       style="fill:url(#linearGradient1086);fill-opacity:1;stroke:none;stroke-width:1.51325;stroke-linecap:round;stroke-linejoin:round"
       id="path1080" />
    <path
       transform="scale(0.26458334)"
       d="M 149.69727 0 C 149.4084 0.71979324 149.0739 1.4236286 148.79492 2.1464844 C 147.51706 5.457499 146.34477 8.7975304 145.29492 12.164062 C 144.24507 15.530594 143.3185 18.922437 142.53125 22.330078 C 141.744 25.73772 141.09748 29.161361 140.60742 32.595703 C 140.11736 36.030045 139.7833 39.475241 139.625 42.921875 C 139.46671 46.368509 139.48334 49.817201 139.69141 53.261719 C 139.89947 56.70624 140.29888 60.145572 140.86914 63.580078 C 141.4394 67.014576 142.18076 70.444069 143.07031 73.867188 C 143.95987 77.290302 144.99809 80.706822 146.16406 84.117188 C 147.33004 87.52755 148.62199 90.931883 150.02148 94.328125 C 151.42098 97.724367 152.92939 101.11337 154.51953 104.49414 C 156.10967 107.8749 157.7836 111.24741 159.52148 114.61133 C 162.13558 119.67126 164.96954 124.69257 167.80273 129.70898 C 167.55638 127.29551 167.30144 124.90294 167.06836 122.48633 C 166.33241 114.85597 165.68587 107.22217 165.28516 99.660156 C 165.0848 95.879151 164.94547 92.1145 164.88672 88.378906 C 164.82798 84.643323 164.84919 80.936907 164.9707 77.265625 C 165.0921 73.594332 165.31231 69.959196 165.65234 66.371094 C 165.99239 62.782996 166.45159 59.241876 167.04883 55.755859 C 167.64606 52.269839 168.38243 48.839666 169.27539 45.474609 C 170.16834 42.109552 171.21811 38.809192 172.44531 35.583984 C 173.67253 32.358777 175.07667 29.209252 176.63867 26.132812 C 178.20068 23.056371 179.91994 20.051815 181.7793 17.123047 C 183.63864 14.194281 185.64052 11.34078 187.75977 8.5585938 C 189.87902 5.7764072 192.11533 3.0683395 194.45703 0.43164062 C 194.58836 0.28376543 194.73521 0.14742885 194.86719 0 L 149.69727 0 z "
       style="fill:url(#linearGradient1084);fill-opacity:1;stroke:none;stroke-width:1.51325;stroke-linecap:round;stroke-linejoin:round"
       id="path1082" />
    <g
       transform="matrix(0.63934051,0,0,0.63934051,-74.521133,-2.7958246)"
       id="g1402">
      <g
         transform="matrix(0.81084684,0,0,0.81084684,-82.248468,14.229005)"
         id="g1980">
        <g
           transform="translate(156.72181,10.929457)"
           style="filter:url(#filter1688)"
           id="g1680">
          <path
             d="m 112.44533,63.658895 v 18.18462 c 0,0.66401 0.13386,1.29556 0.37585,1.86955 0.24198,0.57399 0.59239,1.09029 1.0257,1.5236 0.43332,0.43332 0.94962,0.78372 1.5236,1.02571 0.57399,0.24199 1.20554,0.37584 1.86955,0.37584 h 118.46999 c 0.664,0 1.2956,-0.13386 1.86955,-0.37584 0.57394,-0.24199 1.09034,-0.59239 1.5236,-1.02571 0.43325,-0.43331 0.78296,-0.94961 1.02489,-1.5236 0.24194,-0.57399 0.37585,-1.20554 0.37585,-1.86955 v -16.58907 c -0.9664,-1.11561 -1.90734,-2.26888 -2.91626,-3.32121 -0.88373,-0.92177 -1.78499,-1.81717 -2.70611,-2.68349 -0.92112,-0.86632 -1.86202,-1.70292 -2.82493,-2.50727 -0.96291,-0.80435 -1.94758,-1.57662 -2.95668,-2.31248 -1.0091,-0.73587 -2.04248,-1.43582 -3.10217,-2.09667 -1.05968,-0.66085 -2.14592,-1.28215 -3.26059,-1.86147 -1.11467,-0.57931 -2.25789,-1.1164 -3.43194,-1.60766 -1.17406,-0.49125 -2.3792,-0.93698 -3.61704,-1.33366 -1.23785,-0.39667 -2.50824,-0.74468 -3.81426,-1.04025 -1.30603,-0.29557 -2.6476,-0.53826 -4.01957,-0.73715 -1.37196,-0.19889 -2.77399,-0.35362 -4.20304,-0.47122 -2.85809,-0.23521 -5.82221,-0.32335 -8.85548,-0.32574 -3.03327,-0.002 -6.1358,0.081 -9.27337,0.18833 -2.08101,0.0712 -4.18742,0.14628 -6.28839,0.22066 -0.70097,0.77689 -1.38649,1.5792 -2.09991,2.33349 -1.0767,1.1384 -2.1652,2.25279 -3.26867,3.33577 -1.10347,1.08297 -2.22202,2.13438 -3.35758,3.145 -1.13556,1.01062 -2.28807,1.98039 -3.46104,2.90172 -1.17298,0.92132 -2.36577,1.79402 -3.58148,2.60912 -1.21571,0.81508 -2.4543,1.57288 -3.71807,2.26479 -1.26378,0.69191 -2.55288,1.31776 -3.87003,1.86954 -1.31717,0.55179 -2.66285,1.02978 -4.03088,1.43874 -1.36803,0.40896 -2.75893,0.74883 -4.16748,1.02651 -1.40855,0.27768 -2.83465,0.49273 -4.27336,0.65066 -1.43871,0.15794 -2.89001,0.25902 -4.34853,0.30876 -1.45853,0.0497 -2.9242,0.0485 -4.39218,0.002 -1.46798,-0.0469 -2.93803,-0.13955 -4.40511,-0.27158 -1.46709,-0.13203 -2.93149,-0.30361 -4.38733,-0.50921 -1.45584,-0.20561 -2.90298,-0.44527 -4.33722,-0.71291 -2.86847,-0.53527 -5.6837,-1.18288 -8.40365,-1.89702 -0.23831,-0.0626 -0.45426,-0.13587 -0.68623,-0.20126 z"
             style="fill:url(#linearGradient1028-6);fill-opacity:1;stroke:none;stroke-width:0.62624;stroke-linecap:round;stroke-linejoin:round"
             id="path1453-2" />
          <path
             d="m 240.50391,65.254435 v -32.51052 c -0.0111,-0.004 -0.0221,-0.008 -0.0332,-0.0121 -1.19593,-0.41075 -2.39799,-0.78724 -3.60653,-1.12431 -1.20853,-0.33708 -2.42367,-0.63508 -3.64614,-0.89073 -1.22246,-0.25564 -2.45206,-0.46884 -3.68978,-0.6353 -1.23772,-0.16647 -2.48318,-0.28611 -3.73747,-0.35564 -1.25431,-0.0695 -2.51781,-0.0885 -3.79001,-0.0534 -1.27221,0.0352 -2.55354,0.12478 -3.84498,0.27239 -1.29144,0.1476 -2.59279,0.35294 -3.90479,0.62075 -1.312,0.26781 -2.63469,0.59739 -3.96702,0.98044 -1.33234,0.38306 -2.67429,0.81989 -4.02522,1.30052 -2.70186,0.96125 -5.43906,2.09995 -8.20482,3.34546 -2.76577,1.24552 -5.55966,2.59802 -8.37537,3.98642 -2.81571,1.3884 -5.653,2.81233 -8.50469,4.20223 -0.60206,0.29344 -1.2105,0.55416 -1.81378,0.84385 -0.0423,0.0465 -0.0839,0.0939 -0.12609,0.14064 2.10097,-0.0744 4.20738,-0.14949 6.2884,-0.22066 3.13757,-0.1073 6.24009,-0.19072 9.27336,-0.18833 3.03327,0.002 5.99739,0.0905 8.85548,0.32574 1.42905,0.1176 2.83108,0.27233 4.20305,0.47122 1.37196,0.19889 2.71353,0.44158 4.01956,0.73715 1.30602,0.29557 2.57642,0.64358 3.81426,1.04025 1.23784,0.39668 2.44298,0.8424 3.61704,1.33366 1.17406,0.49125 2.31727,1.02835 3.43194,1.60766 1.11468,0.57931 2.20091,1.20061 3.26059,1.86146 1.05969,0.66085 2.09307,1.36081 3.10217,2.09668 1.0091,0.73586 1.99377,1.50812 2.95668,2.31248 0.96291,0.80435 1.90381,1.64095 2.82493,2.50727 0.92112,0.86632 1.82238,1.76172 2.70611,2.68348 1.00892,1.05234 1.94986,2.20561 2.91626,3.32121 z"
             style="fill:url(#linearGradient1670);fill-opacity:1;stroke:none;stroke-width:0.62624;stroke-linecap:round;stroke-linejoin:round"
             id="path1433-1" />
          <path
             d="M 240.50391,32.743915 V 6.5872549 c -1.08321,-0.0314 -2.17465,-0.097 -3.24523,-0.0752 -1.2767,0.026 -2.54577,0.0827 -3.80698,0.17378 -1.26123,0.0911 -2.51457,0.21688 -3.75849,0.3807 -1.24393,0.16381 -2.47872,0.36606 -3.70353,0.61025 -1.22481,0.24418 -2.43985,0.53023 -3.64371,0.86243 -1.20387,0.3322 -2.39633,0.71018 -3.57744,1.13805 -1.18111,0.4278801 -2.35058,0.9059101 -3.50711,1.4371201 -1.15654,0.5312 -2.3002,1.11581 -3.43033,1.758 -1.13013,0.64219 -2.24678,1.34151 -3.34869,2.10233 -1.10192,0.76083 -2.18921,1.58316 -3.26463,2.45797 -1.07544,0.87482 -2.13924,1.80215 -3.19351,2.77401 -2.10854,1.94373 -4.17999,4.06459 -6.23586,6.29486 -2.05587,2.23028 -4.0955,4.56988 -6.14129,6.95119 -2.04578,2.38131 -4.09774,4.80412 -6.17604,7.20094 -1.34834,1.55498 -2.7341,3.05613 -4.1109,4.57081 0.60328,-0.28969 1.21172,-0.55041 1.81377,-0.84385 2.8517,-1.3899 5.68899,-2.81383 8.5047,-4.20223 2.8157,-1.3884 5.6096,-2.7409 8.37536,-3.98642 2.76577,-1.24551 5.50297,-2.38421 8.20482,-3.34546 1.35094,-0.48063 2.69289,-0.91746 4.02523,-1.30052 1.33233,-0.38305 2.65502,-0.71263 3.96702,-0.98044 1.312,-0.26781 2.61335,-0.47315 3.90479,-0.62075 1.29144,-0.14761 2.57277,-0.23723 3.84497,-0.27239 1.27221,-0.0352 2.53571,-0.0162 3.79001,0.0533 1.2543,0.0695 2.49976,0.18917 3.73748,0.35564 1.23772,0.16646 2.46732,0.37966 3.68978,0.6353 1.22247,0.25565 2.4376,0.55365 3.64614,0.89073 1.20854,0.33707 2.4106,0.71356 3.60653,1.12431 0.0111,0.004 0.0221,0.008 0.0332,0.0121 z"
             style="fill:url(#linearGradient1668);fill-opacity:1;stroke:none;stroke-width:0.62624;stroke-linecap:round;stroke-linejoin:round"
             id="path1430-7" />
          <path
             d="m 112.44533,41.809545 v 21.84935 c 0.23197,0.0654 0.44792,0.1387 0.68623,0.20126 2.71995,0.71414 5.53518,1.36176 8.40365,1.89703 1.43424,0.26764 2.88138,0.50729 4.33722,0.7129 1.45584,0.2056 2.92024,0.37718 4.38733,0.50922 1.46708,0.13203 2.93713,0.22466 4.40511,0.27158 1.46798,0.0469 2.93365,0.0481 4.39218,-0.002 1.45852,-0.0497 2.90982,-0.15083 4.34853,-0.30876 1.43871,-0.15794 2.86481,-0.37299 4.27336,-0.65067 1.40855,-0.27767 2.79945,-0.61755 4.16748,-1.02651 1.36803,-0.40896 2.71371,-0.88695 4.03088,-1.43873 1.31715,-0.55179 2.60625,-1.17764 3.87003,-1.86955 1.26377,-0.69191 2.50236,-1.44971 3.71807,-2.26479 1.21571,-0.81509 2.4085,-1.68779 3.58148,-2.60912 1.17297,-0.92132 2.32548,-1.89109 3.46104,-2.90171 1.13556,-1.01063 2.25411,-2.06203 3.35758,-3.14501 1.10347,-1.08298 2.19197,-2.19737 3.26867,-3.33576 0.75635,-0.79968 1.48063,-1.65412 2.226,-2.47413 -2.25424,1.08246 -4.51118,2.16533 -6.77821,3.15146 -1.43687,0.62503 -2.87564,1.22355 -4.31539,1.78711 -1.43976,0.56355 -2.88015,1.09254 -4.32105,1.57695 -1.4409,0.48441 -2.88236,0.92424 -4.32267,1.31183 -1.4403,0.38759 -2.87986,0.7227 -4.31782,0.9958 -1.43796,0.2731 -2.87424,0.48466 -4.30811,0.6256 -1.43388,0.14094 -2.86553,0.21097 -4.29357,0.20207 -1.42804,-0.009 -2.8521,-0.0968 -4.27094,-0.25703 -1.41883,-0.16023 -2.83236,-0.39258 -4.23699,-0.68946 -1.40462,-0.29688 -2.80064,-0.65857 -4.18606,-1.07744 -1.38543,-0.41886 -2.76019,-0.89478 -4.12141,-1.42095 -1.36122,-0.52616 -2.70856,-1.10203 -4.04058,-1.72082 -1.33201,-0.61879 -2.64819,-1.28031 -3.94601,-1.97704 -1.29782,-0.69674 -2.57746,-1.42881 -3.83608,-2.18882 -1.25862,-0.76 -2.49637,-1.54833 -3.7108,-2.35693 -0.66369,-0.44191 -1.27184,-0.9186 -1.90915,-1.37731 z"
             style="fill:url(#linearGradient1036-7);fill-opacity:1;stroke:none;stroke-width:0.62624;stroke-linecap:round;stroke-linejoin:round"
             id="path1444-9" />
          <path
             d="m 112.44533,11.369825 v 30.43972 c 0.63731,0.45871 1.24546,0.93541 1.90915,1.37731 1.21443,0.8086 2.45218,1.59693 3.7108,2.35694 1.25862,0.76 2.53826,1.49208 3.83608,2.18881 1.29782,0.69674 2.614,1.35825 3.94601,1.97705 1.33202,0.61879 2.67936,1.19466 4.04058,1.72082 1.36122,0.52617 2.73598,1.00209 4.12141,1.42095 1.38542,0.41887 2.78144,0.78055 4.18606,1.07744 1.40463,0.29688 2.81816,0.52923 4.23699,0.68946 1.41884,0.16022 2.8429,0.24814 4.27094,0.25703 1.42804,0.009 2.85969,-0.0611 4.29357,-0.20207 1.43387,-0.14094 2.87015,-0.35251 4.30811,-0.62561 1.43796,-0.2731 2.87752,-0.60821 4.31782,-0.99579 1.44031,-0.38759 2.88177,-0.82743 4.32267,-1.31184 1.4409,-0.4844 2.88129,-1.0134 4.32105,-1.57695 1.43975,-0.56355 2.87852,-1.16208 4.31539,-1.7871 2.1613,-0.94015 4.31281,-1.97255 6.46217,-3.00436 -1.00336,0.0353 -1.99846,0.0753 -3.00275,0.10507 -3.17099,0.0939 -6.34108,0.15017 -9.47462,0.1075 -1.56678,-0.0213 -3.12449,-0.0669 -4.66861,-0.14549 -1.54412,-0.0786 -3.07436,-0.18992 -4.58697,-0.34109 -1.51262,-0.15117 -3.00723,-0.34198 -4.47947,-0.58115 -1.47225,-0.23917 -2.92229,-0.52634 -4.3453,-0.8689 -1.42302,-0.34256 -2.81872,-0.74057 -4.18364,-1.20191 -1.36493,-0.46134 -2.69895,-0.98629 -3.99694,-1.5818 -1.29798,-0.59551 -2.56025,-1.26193 -3.78758,-1.99159 -1.22734,-0.72966 -2.42007,-1.5223 -3.57825,-2.37068 -1.15817,-0.84838 -2.28163,-1.75284 -3.37213,-2.70449 -1.09049,-0.95167 -2.14738,-1.95031 -3.17168,-2.98982 -1.02429,-1.03951 -2.01649,-2.11957 -2.97607,-3.23149 -0.95959,-1.11193 -1.88655,-2.25577 -2.7829,-3.42468 -0.89635,-1.1689 -1.76159,-2.36294 -2.59619,-3.57339 -0.83459,-1.21045 -1.63919,-2.43786 -2.41351,-3.67443 -1.14755,-1.83257 -2.16307,-3.68571 -3.18219,-5.53347 z"
             style="fill:url(#linearGradient1044-0);fill-opacity:1;stroke:none;stroke-width:0.62624;stroke-linecap:round;stroke-linejoin:round"
             id="path860-2" />
          <path
             d="m 240.50391,6.5872549 v -0.33382 H 112.44533 v 5.1163901 c 1.01912,1.84776 2.03464,3.7009 3.18219,5.53347 0.77432,1.23657 1.57892,2.46398 2.41351,3.67443 0.8346,1.21045 1.69984,2.40449 2.59619,3.57339 0.89635,1.16891 1.82331,2.31275 2.7829,3.42468 0.95958,1.11192 1.95178,2.19198 2.97607,3.23149 1.0243,1.03951 2.08119,2.03815 3.17168,2.98982 1.0905,0.95165 2.21396,1.85611 3.37213,2.70449 1.15818,0.84838 2.35091,1.64102 3.57825,2.37068 1.22733,0.72966 2.4896,1.39608 3.78758,1.99159 1.29799,0.59551 2.63201,1.12046 3.99694,1.5818 1.36492,0.46134 2.76062,0.85935 4.18364,1.20191 1.42301,0.34256 2.87305,0.62973 4.3453,0.8689 1.47224,0.23917 2.96685,0.42998 4.47947,0.58115 1.51261,0.15117 3.04285,0.26253 4.58697,0.34109 1.54412,0.0786 3.10183,0.12415 4.66861,0.14549 3.13354,0.0427 6.30363,-0.0136 9.47462,-0.1075 1.00429,-0.0297 1.99939,-0.0698 3.00275,-0.10507 0.10514,-0.0505 0.21091,-0.0966 0.31604,-0.14711 1.3768,-1.51468 2.76256,-3.01583 4.1109,-4.57081 2.0783,-2.39682 4.13026,-4.81963 6.17604,-7.20094 2.04579,-2.3813 4.08542,-4.72091 6.14129,-6.95119 2.05587,-2.23027 4.12732,-4.35113 6.23586,-6.29486 1.05427,-0.97186 2.11807,-1.89919 3.19351,-2.77401 1.07542,-0.87481 2.16271,-1.69714 3.26463,-2.45797 1.10191,-0.76082 2.21856,-1.46014 3.34869,-2.10233 1.13013,-0.64219 2.27379,-1.2268 3.43033,-1.758 1.15653,-0.53121 2.326,-1.00924 3.50711,-1.4371201 1.18111,-0.42787 2.37357,-0.80585 3.57744,-1.13805 1.20386,-0.3322 2.4189,-0.61825 3.64371,-0.86243 1.22481,-0.24419 2.4596,-0.44644 3.70353,-0.61025 1.24392,-0.16382 2.49726,-0.2896 3.75849,-0.3807 1.26121,-0.0911 2.53028,-0.14774 3.80698,-0.17378 1.07058,-0.0218 2.16202,0.0438 3.24523,0.0752 z"
             style="fill:url(#linearGradient1020-6);fill-opacity:1;stroke:none;stroke-width:0.62624;stroke-linecap:round;stroke-linejoin:round"
             id="path870-0" />
          <path
             d="m 177.61429,86.638215 h 19.74944 c -0.11866,-1.18628 -0.27568,-2.37691 -0.49385,-3.57339 -0.23318,-1.27876 -0.52412,-2.56339 -0.8786,-3.85468 -0.35447,-1.29128 -0.7715,-2.58875 -1.24232,-3.89266 -0.47082,-1.30391 -0.99622,-2.61386 -1.56563,-3.92984 -1.13883,-2.63194 -2.45708,-5.28716 -3.88378,-7.96396 -1.4267,-2.67679 -2.96184,-5.37452 -4.53443,-8.09166 -1.57259,-2.71713 -3.18184,-5.4535 -4.75833,-8.20643 -0.33283,-0.58121 -0.63348,-1.17129 -0.96266,-1.75396 -0.0493,-0.0391 -0.0993,-0.0774 -0.14872,-0.1164 0.21395,2.09137 0.42912,4.18843 0.63854,6.26011 0.31573,3.12348 0.60489,6.21351 0.80424,9.24022 0.19935,3.02672 0.3089,5.98969 0.2643,8.8571 -0.0223,1.43371 -0.0836,2.84271 -0.19075,4.22487 -0.10721,1.38215 -0.25994,2.73718 -0.468,4.05997 -0.20805,1.32279 -0.47056,2.6134 -0.78402,3.87488 -0.31347,1.26149 -0.67829,2.49374 -1.09037,3.69787 -0.13629,0.39826 -0.30362,0.7785 -0.45506,1.16796 z"
             style="fill:url(#linearGradient1666);fill-opacity:1;stroke:none;stroke-width:0.62624;stroke-linecap:round;stroke-linejoin:round"
             id="path1447-3" />
          <path
             d="m 197.36373,86.638215 h 21.3951 c -0.0848,-0.27154 -0.15757,-0.5468 -0.25137,-0.81555 -0.41153,-1.1791 -0.86859,-2.34414 -1.37407,-3.49418 -0.50549,-1.15004 -1.05972,-2.28502 -1.66667,-3.40366 -0.60695,-1.11864 -1.26678,-2.22093 -1.9827,-3.30585 -0.71594,-1.08492 -1.48814,-2.15271 -2.32057,-3.20159 -0.83243,-1.04887 -1.72453,-2.07922 -2.66893,-3.09408 -0.94441,-1.01487 -1.9411,-2.01464 -2.98093,-3.00194 -2.07966,-1.97461 -4.33369,-3.90045 -6.69577,-5.80343 -2.36207,-1.90299 -4.83191,-3.78234 -7.344,-5.66522 -2.5121,-1.88288 -5.06564,-3.7687 -7.59538,-5.68299 -1.64121,-1.24194 -3.23141,-2.52509 -4.83431,-3.79809 0.32918,0.58267 0.62983,1.17275 0.96266,1.75396 1.57649,2.75294 3.18574,5.4893 4.75833,8.20643 1.57259,2.71714 3.10773,5.41487 4.53443,8.09167 1.4267,2.6768 2.74495,5.33201 3.88378,7.96395 0.56941,1.31598 1.09481,2.62593 1.56563,3.92984 0.47082,1.30391 0.88785,2.60138 1.24232,3.89266 0.35448,1.29129 0.64542,2.57592 0.8786,3.85468 0.21817,1.19648 0.3752,2.38711 0.49385,3.57339 z"
             style="fill:url(#linearGradient1664);fill-opacity:1;stroke:none;stroke-width:0.62624;stroke-linecap:round;stroke-linejoin:round"
             id="path1450-5" />
        </g>
        <path
           d="M 397.22548,17.182892 H 269.16714 v 75.58969 c 0,2.65603 2.13852,4.79454 4.79454,4.79454 h 118.46977 c 2.65602,0 4.79403,-2.13851 4.79403,-4.79454 z"
           style="fill:#230c44;fill-opacity:0.5977242;stroke:none;stroke-width:0.264583;stroke-linecap:round;stroke-linejoin:round"
           id="rect1159" />
      </g>
      <g
         transform="matrix(0.81084684,0,0,0.81084684,-74.560902,33.430192)"
         id="g2002">
        <path
           d="m 259.68623,-13.960996 v 8.4842308 h 128.05834 v -8.4842308 c 0,-2.656022 -2.138,-4.794024 -4.79402,-4.794024 H 264.48077 c -2.65602,0 -4.79454,2.138002 -4.79454,4.794024 z"
           style="fill:#3c1c6e;fill-opacity:1;stroke:none;stroke-width:0.264583;stroke-linecap:round;stroke-linejoin:round"
           id="path1165" />
        <rect
           y="-13.066894"
           x="367.1366"
           height="0.46535909"
           width="2.2894657"
           id="rect1168"
           style="fill:#a8cbfe;fill-opacity:1;stroke:none;stroke-width:0.0886579;stroke-linecap:round;stroke-linejoin:round" />
        <rect
           transform="rotate(45)"
           style="fill:#a8cbfe;fill-opacity:1;stroke:none;stroke-width:0.113892;stroke-linecap:round;stroke-linejoin:round"
           id="rect1168-3"
           width="3.7782567"
           height="0.46535909"
           x="259.0618"
           y="-278.38071" />
        <rect
           y="260.71823"
           x="-280.03717"
           height="0.46535909"
           width="3.7782567"
           id="rect1198"
           style="fill:#a8cbfe;fill-opacity:1;stroke:none;stroke-width:0.113892;stroke-linecap:round;stroke-linejoin:round"
           transform="matrix(-0.70710678,0.70710678,0.70710678,0.70710678,0,0)" />
        <rect
           style="fill:#a8cbfe;fill-opacity:1;stroke:none;stroke-width:0.0886579;stroke-linecap:round;stroke-linejoin:round"
           id="rect1200"
           width="2.2894657"
           height="0.46535909"
           x="367.1366"
           y="-10.950229" />
        <rect
           transform="rotate(90)"
           y="-369.89142"
           x="-13.066894"
           height="0.46535909"
           width="2.5820239"
           id="rect1202"
           style="fill:#a8cbfe;fill-opacity:1;stroke:none;stroke-width:0.0941516;stroke-linecap:round;stroke-linejoin:round" />
        <rect
           style="fill:#a8cbfe;fill-opacity:1;stroke:none;stroke-width:0.0941516;stroke-linecap:round;stroke-linejoin:round"
           id="rect1204"
           width="2.5820239"
           height="0.46535909"
           x="-13.066894"
           y="-367.1366"
           transform="rotate(90)" />
        <rect
           style="fill:#a8cbfe;fill-opacity:1;stroke:none;stroke-width:0.106491;stroke-linecap:round;stroke-linejoin:round"
           id="rect1206"
           width="3.3031392"
           height="0.46535909"
           x="353.43048"
           y="-11.978607" />
        <rect
           y="-13.265896"
           x="340.30435"
           height="0.46535909"
           width="2.5460875"
           id="rect1208"
           style="fill:#a8cbfe;fill-opacity:1;stroke:none;stroke-width:0.0934945;stroke-linecap:round;stroke-linejoin:round" />
        <rect
           y="-12.093701"
           x="340.25262"
           height="0.46535909"
           width="3.3031392"
           id="rect1210"
           style="fill:#a8cbfe;fill-opacity:1;stroke:none;stroke-width:0.106491;stroke-linecap:round;stroke-linejoin:round" />
        <rect
           style="fill:#a8cbfe;fill-opacity:1;stroke:none;stroke-width:0.106491;stroke-linecap:round;stroke-linejoin:round"
           id="rect1212"
           width="3.3031392"
           height="0.46535909"
           x="340.25262"
           y="-10.921508" />
        <rect
           ry="2.3298187"
           y="-16.829409"
           x="321.40787"
           height="9.3989239"
           width="9.426796"
           id="rect1214"
           style="fill:#5c2ba8;fill-opacity:1;stroke:none;stroke-width:0.264583;stroke-linecap:round;stroke-linejoin:round;stroke-miterlimit:4;stroke-dasharray:none;stroke-opacity:1" />
        <rect
           y="-12.362626"
           x="324.4697"
           height="0.46535909"
           width="3.3031392"
           id="rect1216"
           style="fill:#a8cbfe;fill-opacity:1;stroke:none;stroke-width:0.106491;stroke-linecap:round;stroke-linejoin:round" />
        <rect
           transform="rotate(90)"
           style="fill:#a8cbfe;fill-opacity:1;stroke:none;stroke-width:0.106491;stroke-linecap:round;stroke-linejoin:round"
           id="rect1218"
           width="3.3031392"
           height="0.46535909"
           x="-13.781516"
           y="-326.35394" />
        <rect
           style="fill:#5c2ba8;fill-opacity:1;stroke:none;stroke-width:0.264583;stroke-linecap:round;stroke-linejoin:round;stroke-miterlimit:4;stroke-dasharray:none;stroke-opacity:1"
           id="rect1220"
           width="38.816132"
           height="9.3989239"
           x="278.26019"
           y="-16.829409"
           ry="2.3298187" />
        <rect
           style="fill:url(#radialGradient1842);fill-opacity:1;stroke:none;stroke-width:0.245805;stroke-linecap:round;stroke-linejoin:round;stroke-miterlimit:4;stroke-dasharray:none;stroke-opacity:1"
           id="rect1826"
           width="9.426796"
           height="8.1121597"
           x="264.29779"
           y="-16.171972"
           ry="2.0108538" />
        <path
           id="rect1844"
           style="fill:#ffffff;fill-opacity:1;stroke:none;stroke-width:0.106491;stroke-linecap:round;stroke-linejoin:round"
           d="m 266.83962,-13.475141 -1.00362,1.003622 0.32921,0.329208 1.00362,-1.003623 z" />
        <path
           id="path1852"
           style="fill:#ffffff;fill-opacity:1;stroke:none;stroke-width:0.106491;stroke-linecap:round;stroke-linejoin:round"
           d="m 267.16882,-13.804351 -1.00362,-1.003622 -0.3292,0.329207 1.00362,1.003621 z" />
        <path
           id="path1850"
           style="fill:#ffffff;fill-opacity:1;stroke:none;stroke-width:0.106491;stroke-linecap:round;stroke-linejoin:round"
           d="m 267.16882,-13.804351 -0.3292,0.329206 0.32863,0.328636 0.32921,-0.329206 z" />
        <rect
           style="fill:#ffffff;fill-opacity:1;stroke:none;stroke-width:0.0934945;stroke-linecap:round;stroke-linejoin:round"
           id="rect1870"
           width="2.5460875"
           height="0.46535909"
           x="267.82056"
           y="-11.779994" />
      </g>
      <g
         transform="matrix(0.81084684,0,0,0.81084684,39.250205,14.687737)"
         style="font-style:normal;font-weight:normal;font-size:11.583px;line-height:1.25;font-family:sans-serif;letter-spacing:0px;word-spacing:0px;fill:#a8cbfe;fill-opacity:1;stroke:none;stroke-width:0.289574"
         id="text1874"
         aria-label="&quot;We do, we change&quot;
Deepin
">
        <path
           transform="matrix(0.51037741,0,0,0.51037741,95.343745,-12.720966)"
           d="M 52.496094 66.625 L 52.951172 73.705078 L 54.513672 73.705078 L 54.978516 66.625 L 52.496094 66.625 z M 57.472656 66.625 L 57.916016 73.705078 L 59.488281 73.705078 L 59.955078 66.625 L 57.472656 66.625 z M 113.42188 66.625 L 113.42188 71.267578 L 113.42188 71.621094 C 113.42971 71.783623 113.43359 71.957886 113.43359 72.142578 L 113.43359 72.652344 C 113.44143 72.807483 113.44531 72.904466 113.44531 72.941406 L 113.42188 72.941406 C 113.05988 72.217414 112.57649 71.696577 111.9707 71.378906 C 111.3723 71.061235 110.62634 70.902344 109.73242 70.902344 C 106.83646 70.902344 105.38867 72.992398 105.38867 77.173828 C 105.38867 79.242381 105.73959 80.789518 106.44141 81.816406 C 107.14324 82.843295 108.24011 83.357422 109.73242 83.357422 C 110.62634 83.357422 111.3723 83.183159 111.9707 82.835938 C 112.5691 82.481328 113.0501 81.916332 113.41211 81.140625 L 113.46484 81.140625 C 113.46484 81.332705 113.46873 81.535757 113.47656 81.75 C 113.48349 81.964243 113.49021 82.164917 113.49805 82.349609 C 113.51281 82.534301 113.52821 82.693193 113.54297 82.826172 C 113.55734 82.959155 113.56833 83.038813 113.57617 83.068359 L 115.48242 83.068359 C 115.4755 83.00187 115.46877 82.89147 115.46094 82.736328 C 115.45401 82.573799 115.44534 82.381787 115.4375 82.160156 C 115.43058 81.938525 115.42385 81.695644 115.41602 81.429688 L 115.41602 80.597656 L 115.41602 66.625 L 113.42188 66.625 z M 214.77344 66.625 L 214.77539 83.068359 L 216.76953 83.068359 L 216.76953 76.121094 C 216.76953 75.522691 216.85114 74.995146 217.01367 74.537109 C 217.17619 74.071685 217.397 73.68333 217.67773 73.373047 C 217.96586 73.055376 218.29901 72.814872 218.67578 72.652344 C 219.05994 72.482426 219.47038 72.398438 219.90625 72.398438 C 220.26086 72.398437 220.58535 72.442597 220.88086 72.53125 C 221.17637 72.619902 221.4303 72.778794 221.64453 73.007812 C 221.86616 73.229443 222.03608 73.531855 222.1543 73.916016 C 222.27982 74.292786 222.34375 74.776173 222.34375 75.367188 L 222.34375 83.068359 L 224.34961 83.068359 L 224.34961 75.080078 C 224.34961 74.333922 224.25934 73.694023 224.08203 73.162109 C 223.91212 72.630196 223.66252 72.195302 223.33008 71.855469 C 222.99763 71.515635 222.59152 71.264092 222.11133 71.101562 C 221.63112 70.939033 221.08388 70.857422 220.4707 70.857422 C 219.99789 70.857422 219.56537 70.912618 219.17383 71.023438 C 218.78967 71.126864 218.44548 71.279048 218.14258 71.478516 C 217.83969 71.670596 217.5704 71.906768 217.33398 72.1875 C 217.09758 72.468232 216.8902 72.781686 216.71289 73.128906 L 216.67969 73.128906 C 216.70176 72.789073 216.72389 72.433837 216.74609 72.064453 C 216.7683 71.687681 216.7793 71.314697 216.7793 70.945312 L 216.7793 66.625 L 214.77344 66.625 z M 283.83398 66.625 L 284.28906 73.705078 L 285.85156 73.705078 L 286.31641 66.625 L 283.83398 66.625 z M 288.81055 66.625 L 289.25391 73.705078 L 290.82617 73.705078 L 291.29297 66.625 L 288.81055 66.625 z M 63.035156 68.119141 L 65.373047 83.068359 L 67.677734 83.068359 L 68.853516 78.78125 C 68.890482 78.640883 68.934602 78.477661 68.986328 78.292969 C 69.038055 78.10089 69.088899 77.897837 69.140625 77.683594 C 69.199666 77.461963 69.254914 77.236831 69.306641 77.007812 C 69.365682 76.771407 69.42093 76.541943 69.472656 76.320312 C 69.59825 75.803175 69.728355 75.260258 69.861328 74.691406 C 69.986987 75.25287 70.112753 75.791456 70.238281 76.308594 C 70.290008 76.530225 70.340852 76.759688 70.392578 76.996094 C 70.451619 77.225113 70.506867 77.450244 70.558594 77.671875 C 70.617635 77.886118 70.672883 78.08917 70.724609 78.28125 C 70.776336 78.473329 70.822409 78.640883 70.859375 78.78125 L 72.011719 83.068359 L 74.316406 83.068359 L 76.642578 68.119141 L 74.548828 68.119141 L 73.396484 77.373047 C 73.352073 77.771982 73.307953 78.197788 73.263672 78.648438 C 73.219391 79.099086 73.177591 79.5119 73.140625 79.888672 C 73.103659 80.265444 73.07494 80.578897 73.052734 80.830078 C 73.031051 81.08126 73.01565 81.207031 73.007812 81.207031 C 72.889625 80.689892 72.77251 80.184428 72.654297 79.689453 C 72.60257 79.47521 72.549773 79.256787 72.498047 79.035156 C 72.44632 78.806139 72.391073 78.585337 72.332031 78.371094 C 72.280305 78.149463 72.229461 77.93537 72.177734 77.728516 C 72.126008 77.52166 72.077484 77.336358 72.033203 77.173828 L 70.826172 72.751953 L 68.886719 72.751953 L 67.677734 77.173828 C 67.633453 77.343746 67.58493 77.531426 67.533203 77.738281 C 67.481477 77.937749 67.426229 78.149463 67.367188 78.371094 C 67.315461 78.592725 67.264617 78.817858 67.212891 79.046875 C 67.161164 79.268506 67.108367 79.486929 67.056641 79.701172 C 66.938441 80.196147 66.821338 80.69728 66.703125 81.207031 C 66.673604 80.830259 66.640482 80.430863 66.603516 80.009766 C 66.56655 79.647768 66.52475 79.239286 66.480469 78.78125 C 66.443633 78.323214 66.397063 77.853247 66.337891 77.373047 L 65.128906 68.119141 L 63.035156 68.119141 z M 83.480469 70.857422 C 82.771255 70.857422 82.091526 70.961113 81.441406 71.167969 C 80.798679 71.374824 80.229342 71.717067 79.734375 72.197266 C 79.239395 72.677466 78.844335 73.310655 78.548828 74.09375 C 78.260715 74.876844 78.117188 75.843615 78.117188 76.996094 C 78.117188 78.037758 78.238628 78.953659 78.482422 79.744141 C 78.733595 80.527236 79.09122 81.180553 79.556641 81.705078 C 80.022074 82.229604 80.591398 82.626621 81.263672 82.892578 C 81.935959 83.158534 82.697295 83.291016 83.546875 83.291016 C 84.315195 83.291016 84.979549 83.205074 85.541016 83.035156 C 86.102469 82.857852 86.57915 82.63705 86.970703 82.371094 C 87.362243 82.09775 87.675696 81.795337 87.912109 81.462891 C 88.14851 81.123057 88.327099 80.78557 88.445312 80.453125 L 86.693359 79.955078 C 86.604706 80.221034 86.467903 80.468247 86.283203 80.697266 C 86.098516 80.918896 85.87101 81.110909 85.597656 81.273438 C 85.324316 81.43596 85.013236 81.566063 84.666016 81.662109 C 84.326189 81.750763 83.953202 81.794922 83.546875 81.794922 C 83.000182 81.794922 82.516803 81.69123 82.095703 81.484375 C 81.681996 81.270132 81.333468 80.974428 81.052734 80.597656 C 80.772001 80.213496 80.562242 79.758901 80.421875 79.234375 C 80.281508 78.702461 80.210938 78.122093 80.210938 77.494141 L 88.765625 77.494141 L 88.765625 77.228516 C 88.765625 76.282893 88.670596 75.419814 88.478516 74.636719 C 88.293829 73.853624 87.991413 73.184936 87.570312 72.630859 C 87.149212 72.069395 86.601961 71.632548 85.929688 71.322266 C 85.264794 71.011983 84.448262 70.857422 83.480469 70.857422 z M 124.2832 70.857422 C 122.56926 70.857422 121.24292 71.378257 120.30469 72.419922 C 119.37383 73.454197 118.9082 75.001335 118.9082 77.0625 C 118.9082 78.118939 119.03397 79.039171 119.28516 79.822266 C 119.53634 80.597973 119.89158 81.244581 120.34961 81.761719 C 120.81504 82.278856 121.37138 82.662881 122.02148 82.914062 C 122.679 83.165244 123.41155 83.291016 124.2168 83.291016 C 125.059 83.291016 125.81167 83.165244 126.47656 82.914062 C 127.14884 82.655493 127.71816 82.267138 128.18359 81.75 C 128.64901 81.232862 129.00425 80.586254 129.24805 79.810547 C 129.49923 79.027452 129.62305 78.111551 129.62305 77.0625 C 129.62305 74.979172 129.18383 73.425326 128.30469 72.398438 C 127.42555 71.371549 126.08579 70.857422 124.2832 70.857422 z M 178.73633 70.857422 C 178.02711 70.857422 177.34739 70.961113 176.69727 71.167969 C 176.05454 71.374824 175.48717 71.717067 174.99219 72.197266 C 174.49722 72.677466 174.10215 73.310655 173.80664 74.09375 C 173.51851 74.876844 173.37305 75.843615 173.37305 76.996094 C 173.37305 78.037758 173.49644 78.953659 173.74023 79.744141 C 173.99142 80.527236 174.34903 81.180553 174.81445 81.705078 C 175.27987 82.229604 175.8492 82.626621 176.52148 82.892578 C 177.19376 83.158534 177.95509 83.291016 178.80469 83.291016 C 179.57299 83.291016 180.23736 83.205074 180.79883 83.035156 C 181.36029 82.857852 181.83696 82.63705 182.22852 82.371094 C 182.62006 82.09775 182.93351 81.795337 183.16992 81.462891 C 183.40631 81.123057 183.58296 80.78557 183.70117 80.453125 L 181.95117 79.955078 C 181.86252 80.221034 181.7257 80.468247 181.54102 80.697266 C 181.35632 80.918896 181.12686 81.110909 180.85352 81.273438 C 180.58018 81.43596 180.27105 81.566063 179.92383 81.662109 C 179.58399 81.750763 179.211 81.794922 178.80469 81.794922 C 178.25799 81.794922 177.77266 81.69123 177.35156 81.484375 C 176.93786 81.270132 176.59128 80.974428 176.31055 80.597656 C 176.02981 80.213496 175.82005 79.758901 175.67969 79.234375 C 175.53932 78.702461 175.46875 78.122093 175.46875 77.494141 L 184.02344 77.494141 L 184.02344 77.228516 C 184.02344 76.282893 183.92646 75.419814 183.73438 74.636719 C 183.54969 73.853624 183.24727 73.184936 182.82617 72.630859 C 182.40507 72.069395 181.85783 71.632548 181.18555 71.322266 C 180.52067 71.011983 179.70412 70.857422 178.73633 70.857422 z M 206.11914 70.857422 C 205.41731 70.857422 204.73521 70.956782 204.07031 71.15625 C 203.40542 71.34833 202.80968 71.681486 202.28516 72.154297 C 201.76802 72.627109 201.35088 73.262677 201.0332 74.060547 C 200.71553 74.858418 200.55664 75.858307 200.55664 77.0625 C 200.55664 77.949022 200.656 78.772271 200.85547 79.533203 C 201.05493 80.286746 201.37272 80.944395 201.80859 81.505859 C 202.25186 82.059936 202.82551 82.496782 203.52734 82.814453 C 204.23656 83.132124 205.09726 83.291016 206.10938 83.291016 C 206.84815 83.291016 207.50818 83.187324 208.0918 82.980469 C 208.67543 82.766226 209.17852 82.485893 209.59961 82.138672 C 210.02071 81.79145 210.35624 81.387724 210.60742 80.929688 C 210.85861 80.471651 211.0175 79.994976 211.08398 79.5 L 208.97852 79.367188 C 208.85292 80.172445 208.52842 80.770561 208.00391 81.162109 C 207.47938 81.553656 206.81741 81.75 206.01953 81.75 C 205.39158 81.75 204.8597 81.64393 204.42383 81.429688 C 203.99535 81.215445 203.64877 80.90437 203.38281 80.498047 C 203.12426 80.091724 202.93657 79.597299 202.81836 79.013672 C 202.70759 78.422657 202.65039 77.756346 202.65039 77.017578 C 202.65039 76.27881 202.70759 75.625493 202.81836 75.056641 C 202.93656 74.480402 203.12425 74.001348 203.38281 73.617188 C 203.64877 73.225641 203.99535 72.929937 204.42383 72.730469 C 204.8597 72.523614 205.3959 72.419922 206.03125 72.419922 C 206.903 72.419922 207.57601 72.616266 208.04883 73.007812 C 208.52163 73.391973 208.81538 73.919518 208.93359 74.591797 L 211.0625 74.4375 C 210.96645 73.935138 210.78786 73.46517 210.5293 73.029297 C 210.27073 72.593423 209.9352 72.216108 209.52148 71.898438 C 209.11517 71.573379 208.62745 71.319458 208.05859 71.134766 C 207.48975 70.950074 206.84313 70.857422 206.11914 70.857422 z M 232.9707 70.857422 C 232.18023 70.857422 231.50483 70.939033 230.94336 71.101562 C 230.38929 71.256704 229.92603 71.477505 229.55664 71.765625 C 229.18725 72.053744 228.90021 72.397939 228.69336 72.796875 C 228.49394 73.188422 228.35714 73.620938 228.2832 74.09375 L 230.36523 74.28125 C 230.40955 73.904478 230.49983 73.593403 230.63281 73.349609 C 230.77318 73.098428 230.94983 72.904039 231.16406 72.763672 C 231.37831 72.615918 231.63223 72.516557 231.92773 72.464844 C 232.23063 72.405737 232.56813 72.375 232.9375 72.375 C 233.35122 72.375 233.71316 72.427823 234.02344 72.53125 C 234.33372 72.62729 234.58764 72.781851 234.78711 72.996094 C 234.99399 73.210337 235.14618 73.490669 235.24219 73.837891 C 235.34564 74.185112 235.39648 74.606588 235.39648 75.101562 L 235.39648 75.755859 L 232.78125 75.798828 C 232.16069 75.806221 231.54915 75.870081 230.94336 75.988281 C 230.34495 76.099096 229.80875 76.297817 229.33594 76.585938 C 228.86312 76.874058 228.4791 77.273454 228.18359 77.783203 C 227.89548 78.285566 227.75195 78.932173 227.75195 79.722656 C 227.75195 80.830809 228.04571 81.70255 228.63672 82.337891 C 229.22773 82.973232 230.10814 83.291016 231.27539 83.291016 C 231.82208 83.291016 232.30546 83.231481 232.72656 83.113281 C 233.14765 82.995079 233.52064 82.829477 233.8457 82.615234 C 234.17076 82.393604 234.45975 82.126689 234.71094 81.816406 C 234.96211 81.506123 235.18963 81.159551 235.39648 80.775391 L 235.46289 80.775391 C 235.48497 81.174325 235.54021 81.52523 235.62891 81.828125 C 235.71756 82.123633 235.84765 82.375176 236.01758 82.582031 C 236.18749 82.781499 236.40591 82.93173 236.67188 83.035156 C 236.94522 83.131203 237.26972 83.179688 237.64648 83.179688 C 237.92722 83.179688 238.1898 83.164312 238.43359 83.134766 C 238.68478 83.105219 238.93633 83.06106 239.1875 83.001953 L 239.1875 81.761719 C 239.08403 81.783885 238.976 81.801633 238.86523 81.816406 C 238.75436 81.83118 238.64397 81.839844 238.5332 81.839844 C 238.09733 81.839844 237.80162 81.691991 237.64648 81.396484 C 237.49134 81.09359 237.41406 80.645702 237.41406 80.054688 L 237.41406 74.890625 C 237.41406 73.583004 237.04108 72.585492 236.29492 71.898438 C 235.55615 71.203995 234.44824 70.857422 232.9707 70.857422 z M 247.76367 70.857422 C 247.27608 70.857422 246.83685 70.912618 246.44531 71.023438 C 246.05376 71.126864 245.69853 71.279048 245.38086 71.478516 C 245.07058 71.670596 244.79457 71.906768 244.55078 72.1875 C 244.31438 72.468232 244.10699 72.781686 243.92969 73.128906 L 243.89648 73.128906 C 243.89648 72.981153 243.8926 72.80018 243.88477 72.585938 C 243.87732 72.364307 243.86632 72.150214 243.85156 71.943359 C 243.84464 71.729117 243.83596 71.541436 243.82812 71.378906 C 243.8212 71.216378 243.81448 71.115065 243.80664 71.078125 L 241.92383 71.078125 C 241.93075 71.12984 241.93748 71.244571 241.94531 71.421875 C 241.95224 71.599179 241.95896 71.813272 241.9668 72.064453 C 241.97463 72.308247 241.97852 72.57083 241.97852 72.851562 C 241.98635 73.124908 241.99023 73.387492 241.99023 73.638672 L 241.99023 83.068359 L 243.98633 83.068359 L 243.98633 76.121094 C 243.98633 75.522691 244.066 74.995146 244.22852 74.537109 C 244.39105 74.071685 244.6138 73.68333 244.89453 73.373047 C 245.18266 73.055376 245.51386 72.814872 245.89062 72.652344 C 246.27479 72.482426 246.68522 72.398438 247.12109 72.398438 C 247.47571 72.398438 247.8002 72.442597 248.0957 72.53125 C 248.39121 72.619902 248.64709 72.778794 248.86133 73.007812 C 249.08295 73.229443 249.25288 73.531855 249.37109 73.916016 C 249.49662 74.292786 249.55859 74.776173 249.55859 75.367188 L 249.55859 83.068359 L 251.56445 83.068359 L 251.56445 75.080078 C 251.56445 74.333922 251.48046 73.694023 251.31055 73.162109 C 251.14801 72.630196 250.90318 72.195302 250.57812 71.855469 C 250.26045 71.515635 249.86539 71.264092 249.39258 71.101562 C 248.91976 70.939033 248.37685 70.857422 247.76367 70.857422 z M 273.99414 70.857422 C 273.28493 70.857422 272.6052 70.961113 271.95508 71.167969 C 271.31235 71.374824 270.74303 71.717067 270.24805 72.197266 C 269.75308 72.677466 269.35802 73.310655 269.0625 74.09375 C 268.77439 74.876844 268.63086 75.843615 268.63086 76.996094 C 268.63086 78.037758 268.7523 78.953659 268.99609 79.744141 C 269.24728 80.527236 269.60489 81.180553 270.07031 81.705078 C 270.53573 82.229604 271.10506 82.626621 271.77734 82.892578 C 272.44962 83.158534 273.21097 83.291016 274.06055 83.291016 C 274.82887 83.291016 275.49322 83.205074 276.05469 83.035156 C 276.61615 82.857852 277.09283 82.63705 277.48438 82.371094 C 277.87593 82.09775 278.18938 81.795337 278.42578 81.462891 C 278.66218 81.123057 278.84077 80.78557 278.95898 80.453125 L 277.20703 79.955078 C 277.11838 80.221034 276.98156 80.468247 276.79688 80.697266 C 276.61218 80.918896 276.38467 81.110909 276.11133 81.273438 C 275.83799 81.43596 275.52691 81.566063 275.17969 81.662109 C 274.83985 81.750763 274.46687 81.794922 274.06055 81.794922 C 273.51387 81.794922 273.03048 81.69123 272.60938 81.484375 C 272.19567 81.270132 271.84714 80.974428 271.56641 80.597656 C 271.28567 80.213496 271.07591 79.758901 270.93555 79.234375 C 270.79518 78.702461 270.72461 78.122093 270.72461 77.494141 L 279.2793 77.494141 L 279.2793 77.228516 C 279.2793 76.282893 279.18427 75.419814 278.99219 74.636719 C 278.80749 73.853624 278.50508 73.184936 278.08398 72.630859 C 277.6629 72.069395 277.11565 71.632548 276.44336 71.322266 C 275.77847 71.011983 274.96192 70.857422 273.99414 70.857422 z M 259.56641 70.890625 C 258.75375 70.890625 258.06536 71.027437 257.50391 71.300781 C 256.94244 71.574125 256.48547 71.973521 256.13086 72.498047 C 255.78364 73.015184 255.52777 73.648799 255.36523 74.402344 C 255.21009 75.155888 255.13281 76.016588 255.13281 76.984375 C 255.13281 77.981711 255.21009 78.853453 255.36523 79.599609 C 255.52777 80.345766 255.7793 80.967916 256.11914 81.462891 C 256.45897 81.957866 256.89581 82.326519 257.42773 82.570312 C 257.95964 82.814107 258.60192 82.935547 259.35547 82.935547 C 259.88738 82.935547 260.35735 82.87364 260.76367 82.748047 C 261.17 82.615068 261.52328 82.440805 261.82617 82.226562 C 262.13647 82.01232 262.39905 81.765107 262.61328 81.484375 C 262.83492 81.203643 263.0159 80.914649 263.15625 80.619141 L 263.17773 80.619141 L 263.17773 82.769531 C 263.17773 83.404873 263.1115 83.945412 262.97852 84.388672 C 262.85292 84.831933 262.66957 85.189546 262.42578 85.462891 C 262.18938 85.74362 261.90037 85.946672 261.56055 86.072266 C 261.2281 86.197859 260.85079 86.259766 260.42969 86.259766 C 259.75002 86.259766 259.2004 86.109535 258.7793 85.806641 C 258.36552 85.511133 258.09623 85.085326 257.9707 84.53125 L 255.93164 84.808594 C 256.02767 85.251855 256.18656 85.655582 256.4082 86.017578 C 256.63721 86.379576 256.93292 86.688697 257.29492 86.947266 C 257.6643 87.213223 258.09919 87.416275 258.60156 87.556641 C 259.1113 87.697007 259.69839 87.767578 260.36328 87.767578 L 260.36523 87.767578 C 261.99792 87.767578 263.20519 87.343725 263.98828 86.494141 C 264.77137 85.651944 265.16211 84.391848 265.16211 82.714844 L 265.16211 73.560547 L 265.16211 72.730469 C 265.16903 72.457125 265.17771 72.209912 265.18555 71.988281 C 265.19247 71.76665 265.19919 71.577016 265.20703 71.421875 C 265.21395 71.259343 265.22068 71.144612 265.22852 71.078125 L 263.33398 71.078125 C 263.32667 71.100289 263.31322 71.186231 263.29102 71.333984 C 263.27626 71.481738 263.26085 71.658378 263.24609 71.865234 C 263.23865 72.064701 263.22765 72.278794 263.21289 72.507812 C 263.20505 72.73683 263.20117 72.944214 263.20117 73.128906 L 263.16797 73.128906 C 262.83552 72.412302 262.35884 71.862676 261.73828 71.478516 C 261.1251 71.086969 260.40121 70.890625 259.56641 70.890625 z M 158.52539 71.078125 L 160.55273 83.068359 L 162.80273 83.068359 L 164.44141 77.894531 C 164.51535 77.665512 164.59026 77.420678 164.66406 77.162109 C 164.73794 76.896152 164.80851 76.648939 164.875 76.419922 C 164.95627 76.153964 165.02922 75.884672 165.0957 75.611328 C 165.1622 75.884672 165.23711 76.158296 165.31836 76.431641 C 165.38479 76.668047 165.45341 76.91526 165.52734 77.173828 C 165.60116 77.42501 165.66739 77.650141 165.72656 77.849609 L 167.3125 83.068359 L 169.57227 83.068359 L 171.67773 71.078125 L 169.72852 71.078125 L 168.60938 77.804688 C 168.58717 77.98938 168.55405 78.240923 168.50977 78.558594 C 168.46535 78.876263 168.42123 79.211797 168.37695 79.566406 C 168.33254 79.913628 168.29515 80.253492 168.26562 80.585938 C 168.2361 80.918383 168.2207 81.196338 168.2207 81.417969 C 168.14681 81.078135 168.06953 80.75602 167.98828 80.453125 C 167.92185 80.194556 167.85128 79.936303 167.77734 79.677734 C 167.71086 79.411777 167.65561 79.204394 167.61133 79.056641 L 166.16992 74.347656 L 164.03125 74.347656 L 162.53516 79.046875 C 162.48343 79.194628 162.42159 79.404389 162.34766 79.677734 C 162.27378 79.943691 162.20321 80.206274 162.13672 80.464844 C 162.05543 80.767739 161.97383 81.085523 161.89258 81.417969 C 161.89258 81.203726 161.87913 80.925771 161.84961 80.585938 C 161.81996 80.246104 161.78256 79.89953 161.73828 79.544922 C 161.70132 79.190312 161.65952 78.857158 161.61523 78.546875 C 161.5784 78.229204 161.54955 77.981992 161.52734 77.804688 L 160.49609 71.078125 L 158.52539 71.078125 z M 83.501953 72.332031 C 83.900887 72.332031 84.282538 72.389612 84.644531 72.507812 C 85.006525 72.626015 85.326688 72.82669 85.607422 73.107422 C 85.895549 73.388154 86.136045 73.761138 86.328125 74.226562 C 86.520127 74.691987 86.645906 75.270402 86.705078 75.964844 L 80.234375 75.964844 C 80.256529 75.240851 80.373644 74.647065 80.587891 74.181641 C 80.809517 73.708828 81.078811 73.335844 81.396484 73.0625 C 81.714158 72.789155 82.058348 72.601474 82.427734 72.498047 C 82.804501 72.387227 83.162113 72.332031 83.501953 72.332031 z M 124.31641 72.332031 C 124.78921 72.332031 125.22173 72.404981 125.61328 72.552734 C 126.00482 72.6931 126.34036 72.944643 126.62109 73.306641 C 126.90922 73.668637 127.13002 74.152023 127.28516 74.757812 C 127.44769 75.363603 127.5293 76.131652 127.5293 77.0625 C 127.5293 77.993348 127.44532 78.765729 127.27539 79.378906 C 127.11287 79.992084 126.8834 80.479799 126.58789 80.841797 C 126.29238 81.203793 125.93716 81.457715 125.52344 81.605469 C 125.11712 81.745835 124.67357 81.816406 124.19336 81.816406 C 123.77226 81.816406 123.36615 81.743458 122.97461 81.595703 C 122.59045 81.44795 122.25058 81.192074 121.95508 80.830078 C 121.66695 80.468082 121.43512 79.984697 121.25781 79.378906 C 121.0879 78.765729 121.00195 77.993348 121.00195 77.0625 C 121.00195 76.153814 121.08356 75.396805 121.24609 74.791016 C 121.41601 74.185225 121.64547 73.70184 121.93359 73.339844 C 122.2291 72.97046 122.58001 72.712207 122.98633 72.564453 C 123.39265 72.409312 123.8362 72.332031 124.31641 72.332031 z M 178.75977 72.332031 C 179.1587 72.332031 179.53838 72.389612 179.90039 72.507812 C 180.26238 72.626015 180.5845 72.82669 180.86523 73.107422 C 181.15335 73.388154 181.39386 73.761138 181.58594 74.226562 C 181.77795 74.691987 181.90372 75.270402 181.96289 75.964844 L 175.49023 75.964844 C 175.5124 75.240851 175.63146 74.647065 175.8457 74.181641 C 176.06733 73.708828 176.33662 73.335844 176.6543 73.0625 C 176.97197 72.789155 177.31422 72.601474 177.68359 72.498047 C 178.06037 72.387227 178.41994 72.332031 178.75977 72.332031 z M 274.01562 72.332031 C 274.41456 72.332031 274.79621 72.389612 275.1582 72.507812 C 275.52021 72.626015 275.84037 72.82669 276.12109 73.107422 C 276.40922 73.388154 276.64972 73.761138 276.8418 74.226562 C 277.03381 74.691987 277.15958 75.270402 277.21875 75.964844 L 270.74805 75.964844 C 270.77021 75.240851 270.88733 74.647065 271.10156 74.181641 C 271.3232 73.708828 271.59248 73.335844 271.91016 73.0625 C 272.22782 72.789155 272.57202 72.601474 272.94141 72.498047 C 273.31819 72.387227 273.6758 72.332031 274.01562 72.332031 z M 110.27539 72.375 C 110.78513 72.375 111.2354 72.45228 111.62695 72.607422 C 112.01849 72.762563 112.34732 73.018439 112.61328 73.373047 C 112.87924 73.727656 113.07992 74.19567 113.21289 74.779297 C 113.35326 75.355536 113.42188 76.072715 113.42188 76.929688 C 113.42188 77.816209 113.35326 78.570841 113.21289 79.191406 C 113.07992 79.811972 112.87686 80.317436 112.60352 80.708984 C 112.33756 81.093143 112.0044 81.373477 111.60547 81.550781 C 111.21392 81.728087 110.76366 81.816406 110.25391 81.816406 C 109.75894 81.816406 109.33313 81.728087 108.97852 81.550781 C 108.62392 81.366089 108.33254 81.081424 108.10352 80.697266 C 107.88184 80.313105 107.71624 79.82539 107.60547 79.234375 C 107.50202 78.64336 107.44922 77.934842 107.44922 77.107422 C 107.44922 76.250451 107.50874 75.522231 107.62695 74.923828 C 107.74515 74.318037 107.91942 73.827943 108.14844 73.451172 C 108.38484 73.0744 108.68054 72.800777 109.03516 72.630859 C 109.38977 72.460943 109.80258 72.375 110.27539 72.375 z M 260.06445 72.375 C 260.45599 72.375 260.83569 72.456613 261.20508 72.619141 C 261.58185 72.78167 261.915 73.048585 262.20312 73.417969 C 262.49863 73.779966 262.7348 74.252311 262.91211 74.835938 C 263.08942 75.419564 263.17773 76.128082 263.17773 76.962891 C 263.17773 77.790311 263.08704 78.492119 262.90234 79.068359 C 262.72504 79.63721 262.48691 80.098516 262.19141 80.453125 C 261.8959 80.807734 261.56036 81.067941 261.18359 81.230469 C 260.80683 81.38561 260.4228 81.462891 260.03125 81.462891 C 259.54366 81.462891 259.11981 81.392319 258.75781 81.251953 C 258.4032 81.1042 258.10749 80.856987 257.87109 80.509766 C 257.64202 80.162544 257.4721 79.701239 257.36133 79.125 C 257.25056 78.54876 257.19531 77.82725 257.19531 76.962891 C 257.19531 76.128082 257.25056 75.421942 257.36133 74.845703 C 257.47215 74.262075 257.64446 73.789731 257.88086 73.427734 C 258.11727 73.05835 258.4173 72.793389 258.7793 72.630859 C 259.14129 72.460943 259.56947 72.375 260.06445 72.375 z M 235.39648 77.152344 L 235.39648 78.138672 C 235.39648 78.530219 235.32353 78.938702 235.17578 79.367188 C 235.02802 79.795674 234.80289 80.188361 234.5 80.542969 C 234.20449 80.897578 233.83151 81.193282 233.38086 81.429688 C 232.9302 81.658706 232.39832 81.773438 231.78516 81.773438 C 231.14981 81.773438 230.66448 81.588134 230.33203 81.21875 C 230.00698 80.849365 229.8457 80.361649 229.8457 79.755859 C 229.8457 79.194395 229.9494 78.746508 230.15625 78.414062 C 230.3631 78.074229 230.62807 77.815977 230.95312 77.638672 C 231.28557 77.461368 231.65617 77.346635 232.0625 77.294922 C 232.47621 77.235881 232.88469 77.202758 233.29102 77.195312 L 235.39648 77.152344 z M 135.81836 79.755859 L 133.94531 87.091797 L 135.30859 87.091797 L 138.75586 79.755859 L 135.81836 79.755859 z M 277.51367 95.449219 L 277.51367 97.097656 L 279.23047 97.097656 L 279.23047 95.449219 L 277.51367 95.449219 z M 232.0332 96.609375 L 232.0332 108.19531 L 235.21094 108.19531 C 236.01259 108.19531 236.72755 108.07031 237.35742 107.81836 C 237.99303 107.56068 238.52966 107.18177 238.96484 106.68359 C 239.40004 106.18542 239.73189 105.57084 239.96094 104.83789 C 240.18998 104.09922 240.30469 103.24715 240.30469 102.28516 C 240.30469 101.30026 240.18177 100.45014 239.93555 99.734375 C 239.69505 99.018607 239.3366 98.428663 238.86133 97.964844 C 238.38606 97.501026 237.7982 97.160954 237.09961 96.943359 C 236.40675 96.72004 235.60787 96.609375 234.70312 96.609375 L 232.0332 96.609375 z M 233.67383 97.949219 L 234.71289 97.949219 C 235.38285 97.949219 235.96459 98.031207 236.45703 98.197266 C 236.94948 98.357597 237.35719 98.611642 237.68359 98.960938 C 238.00998 99.304507 238.25374 99.753024 238.41406 100.30273 C 238.5744 100.85245 238.6543 101.51213 238.6543 102.28516 C 238.6543 103.80831 238.35933 104.95131 237.76953 105.71289 C 237.17973 106.47447 236.27839 106.85547 235.06445 106.85547 L 233.67383 106.85547 L 233.67383 97.949219 z M 268.28125 98.712891 C 267.92623 98.712891 267.60661 98.747686 267.32031 98.816406 C 267.034 98.879394 266.77592 98.981846 266.54688 99.125 C 266.31783 99.262426 266.11098 99.440609 265.92773 99.658203 C 265.75023 99.875796 265.59043 100.13193 265.44727 100.42969 L 265.41406 100.42969 C 265.41406 100.28081 265.40824 100.121 265.39648 99.949219 C 265.391 99.777435 265.3809 99.617629 265.36914 99.46875 C 265.36365 99.319873 265.35551 99.192918 265.34375 99.089844 C 265.33853 98.981048 265.3327 98.919521 265.32617 98.902344 L 263.82227 98.902344 C 263.82749 98.953877 263.83331 99.039905 263.83984 99.160156 C 263.84507 99.280406 263.85089 99.425871 263.85742 99.597656 C 263.86395 99.763714 263.86719 99.952194 263.86719 100.16406 C 263.87372 100.37593 263.87695 100.59713 263.87695 100.82617 L 263.87695 111.8457 L 265.43164 111.8457 L 265.43164 108.21289 C 265.43164 108.04683 265.42841 107.8809 265.42188 107.71484 C 265.42188 107.54878 265.41864 107.39928 265.41211 107.26758 C 265.41211 107.13588 265.40887 107.0273 265.40234 106.94141 C 265.40234 106.84983 265.39911 106.7986 265.39258 106.78711 L 265.43555 106.78711 C 265.56724 107.07342 265.729 107.31716 265.91797 107.51758 C 266.11265 107.718 266.3319 107.87989 266.57812 108.00586 C 266.82435 108.13183 267.09064 108.22399 267.37695 108.28125 C 267.66326 108.33851 267.96437 108.36719 268.2793 108.36719 C 268.90918 108.36719 269.43968 108.24636 269.86914 108.00586 C 270.2986 107.75963 270.6448 107.42165 270.9082 106.99219 C 271.17158 106.56273 271.36005 106.0506 271.47461 105.45508 C 271.58917 104.85956 271.64648 104.21017 271.64648 103.50586 L 271.64844 103.50586 C 271.64844 102.79009 271.59112 102.13667 271.47656 101.54688 C 271.36203 100.95708 271.17356 100.45317 270.91016 100.03516 C 270.64676 99.611421 270.30055 99.285687 269.87109 99.056641 C 269.44163 98.827594 268.91114 98.712891 268.28125 98.712891 z M 246.48828 98.730469 C 245.93856 98.730469 245.4121 98.810371 244.9082 98.970703 C 244.41004 99.131035 243.96959 99.397332 243.58594 99.769531 C 243.20229 100.14173 242.89506 100.63131 242.66602 101.23828 C 242.4427 101.84525 242.33203 102.595 242.33203 103.48828 C 242.33203 104.29567 242.42628 105.00644 242.61523 105.61914 C 242.80991 106.22611 243.08651 106.73212 243.44727 107.13867 C 243.80802 107.54523 244.25042 107.85245 244.77148 108.05859 C 245.29258 108.26474 245.88056 108.36719 246.53906 108.36719 C 247.13458 108.36719 247.65074 108.30162 248.08594 108.16992 C 248.52111 108.03249 248.88986 107.86044 249.19336 107.6543 C 249.49685 107.44243 249.74059 107.20689 249.92383 106.94922 C 250.10699 106.68581 250.24424 106.42564 250.33594 106.16797 L 248.97852 105.78125 C 248.9098 105.98739 248.80527 106.17991 248.66211 106.35742 C 248.51896 106.52921 248.34076 106.67872 248.12891 106.80469 C 247.91702 106.93067 247.67732 107.02909 247.4082 107.10352 C 247.1448 107.17224 246.85401 107.20703 246.53906 107.20703 C 246.11532 107.20703 245.74046 107.12713 245.41406 106.9668 C 245.09341 106.80074 244.82503 106.57133 244.60742 106.2793 C 244.38984 105.98154 244.226 105.62921 244.11719 105.22266 C 244.00838 104.81037 243.95508 104.36172 243.95508 103.875 L 250.58594 103.875 L 250.58594 103.66797 C 250.58594 102.93502 250.51021 102.26518 250.36133 101.6582 C 250.21818 101.05123 249.98459 100.53298 249.6582 100.10352 C 249.3318 99.668328 248.90778 99.330343 248.38672 99.089844 C 247.87136 98.849346 247.23841 98.730469 246.48828 98.730469 z M 257.03516 98.730469 C 256.48545 98.730469 255.95898 98.810371 255.45508 98.970703 C 254.9569 99.131035 254.51646 99.397332 254.13281 99.769531 C 253.74916 100.14173 253.44194 100.63131 253.21289 101.23828 C 252.98957 101.84525 252.87891 102.595 252.87891 103.48828 C 252.87891 104.29567 252.97314 105.00644 253.16211 105.61914 C 253.3568 106.22611 253.63535 106.73212 253.99609 107.13867 C 254.35685 107.54523 254.79728 107.85245 255.31836 108.05859 C 255.83944 108.26474 256.42938 108.36719 257.08789 108.36719 C 257.68341 108.36719 258.19763 108.30162 258.63281 108.16992 C 259.06801 108.03249 259.4387 107.86044 259.74219 107.6543 C 260.04568 107.44243 260.28942 107.20689 260.47266 106.94922 C 260.65581 106.68581 260.79307 106.42564 260.88477 106.16797 L 259.52734 105.78125 C 259.45864 105.98739 259.35213 106.17991 259.20898 106.35742 C 259.06582 106.52921 258.88765 106.67872 258.67578 106.80469 C 258.46392 106.93067 258.22421 107.02909 257.95508 107.10352 C 257.69168 107.17224 257.40283 107.20703 257.08789 107.20703 C 256.66415 107.20703 256.28928 107.12713 255.96289 106.9668 C 255.64223 106.80074 255.37189 106.57133 255.1543 106.2793 C 254.93671 105.98154 254.77482 105.62921 254.66602 105.22266 C 254.55721 104.81037 254.50195 104.36172 254.50195 103.875 L 261.13281 103.875 L 261.13281 103.66797 C 261.13281 102.93502 261.05904 102.26518 260.91016 101.6582 C 260.76699 101.05123 260.53146 100.53298 260.20508 100.10352 C 259.87869 99.668328 259.45469 99.330343 258.93359 99.089844 C 258.41825 98.849346 257.78528 98.730469 257.03516 98.730469 z M 289.44141 98.730469 C 289.06348 98.730469 288.72341 98.773478 288.41992 98.859375 C 288.11645 98.939541 287.84194 99.056332 287.5957 99.210938 C 287.35521 99.359818 287.14014 99.542172 286.95117 99.759766 C 286.76793 99.977359 286.60813 100.22111 286.4707 100.49023 L 286.44531 100.49023 C 286.44531 100.37571 286.44208 100.23637 286.43555 100.07031 C 286.43006 99.898527 286.41996 99.732598 286.4082 99.572266 C 286.40298 99.406204 286.39716 99.258785 286.39062 99.132812 C 286.3854 99.006839 286.37958 98.930976 286.37305 98.902344 L 284.91406 98.902344 C 284.91929 98.942427 284.92511 99.030541 284.93164 99.167969 C 284.93687 99.305396 284.94269 99.471327 284.94922 99.666016 C 284.95575 99.854979 284.95898 100.0578 284.95898 100.27539 C 284.96552 100.48726 284.96875 100.69203 284.96875 100.88672 L 284.96875 108.19531 L 286.51367 108.19531 L 286.51367 102.81055 C 286.51367 102.34673 286.57721 101.93705 286.70312 101.58203 C 286.82911 101.22128 287.00116 100.92019 287.21875 100.67969 C 287.44206 100.43346 287.70016 100.24707 287.99219 100.12109 C 288.28995 99.989391 288.60747 99.923828 288.94531 99.923828 C 289.22017 99.923828 289.47213 99.958623 289.70117 100.02734 C 289.93022 100.09606 290.12691 100.21897 290.29297 100.39648 C 290.46467 100.56827 290.59776 100.8038 290.68945 101.10156 C 290.78677 101.3936 290.83398 101.76847 290.83398 102.22656 L 290.83398 108.19531 L 292.38867 108.19531 L 292.38867 102.00195 C 292.38867 101.42361 292.3231 100.92791 292.19141 100.51562 C 292.06543 100.10334 291.875 99.76731 291.62305 99.503906 C 291.37682 99.2405 291.07155 99.043941 290.70508 98.917969 C 290.3386 98.791997 289.91668 98.730469 289.44141 98.730469 z M 274.94531 98.902344 L 274.94531 100.12109 L 277.68359 100.12109 L 277.68359 106.97656 L 274.06055 106.97656 L 274.06055 108.19531 L 282.49414 108.19531 L 282.49414 106.97656 L 279.23047 106.97656 L 279.23047 98.902344 L 274.94531 98.902344 z M 246.50586 99.873047 C 246.81507 99.873047 247.11005 99.918147 247.39062 100.00977 C 247.6712 100.10138 247.91913 100.25506 248.13672 100.47266 C 248.36006 100.69025 248.54644 100.98105 248.69531 101.3418 C 248.84429 101.70254 248.94256 102.1512 248.98828 102.68945 L 243.97266 102.68945 C 243.98983 102.12829 244.08003 101.66739 244.24609 101.30664 C 244.41788 100.94017 244.62682 100.65132 244.87305 100.43945 C 245.11927 100.22758 245.38556 100.08212 245.67188 100.00195 C 245.96391 99.916056 246.24245 99.873047 246.50586 99.873047 z M 257.05273 99.873047 C 257.36196 99.873047 257.65691 99.918147 257.9375 100.00977 C 258.21808 100.10138 258.46796 100.25506 258.68555 100.47266 C 258.90886 100.69025 259.09526 100.98105 259.24414 101.3418 C 259.39298 101.70254 259.48931 102.1512 259.53516 102.68945 L 254.51953 102.68945 C 254.53671 102.12829 254.62886 101.66739 254.79492 101.30664 C 254.9667 100.94017 255.17564 100.65132 255.42188 100.43945 C 255.66808 100.22758 255.93439 100.08212 256.2207 100.00195 C 256.51275 99.916056 256.78935 99.873047 257.05273 99.873047 z M 267.875 99.90625 C 268.29302 99.90625 268.63921 99.986152 268.91406 100.14648 C 269.19464 100.30682 269.41792 100.54235 269.58398 100.85156 C 269.75578 101.15505 269.87661 101.52992 269.94531 101.97656 C 270.01402 102.4232 270.04883 102.93324 270.04883 103.50586 C 270.04883 104.10138 270.01195 104.62993 269.9375 105.09375 C 269.86878 105.55757 269.74795 105.94873 269.57617 106.26367 C 269.41011 106.57861 269.18684 106.81832 268.90625 106.98438 C 268.62567 107.14471 268.27738 107.22461 267.85938 107.22461 C 267.46999 107.22461 267.12185 107.16517 266.81836 107.04492 C 266.51488 106.92467 266.26084 106.72603 266.05469 106.45117 C 265.84855 106.17059 265.69084 105.80797 265.58203 105.36133 C 265.47897 104.90896 265.42773 104.35382 265.42773 103.69531 C 265.42773 102.92228 265.49127 102.28932 265.61719 101.79688 C 265.74889 101.30443 265.92303 100.91939 266.14062 100.64453 C 266.36394 100.36395 266.62411 100.17339 266.92188 100.07031 C 267.21963 99.961517 267.53716 99.90625 267.875 99.90625 z "
           style="font-style:normal;font-variant:normal;font-weight:normal;font-stretch:normal;font-family:'Liberation Mono';-inkscape-font-specification:'Liberation Mono';text-align:end;text-anchor:end;fill:url(#linearGradient2248);fill-opacity:1;stroke-width:0.567372"
           id="path1925" />
        <path
           d="M 95.343745,33.572299 V 63.704194 84.183898 106.70735 H 217.18281 V 89.538279 c -0.25278,-0.31058 -0.48924,-0.644765 -0.74475,-0.951414 -1.49413,-1.793231 -3.0365,-3.517505 -4.64256,-5.149075 -0.80302,-0.815801 -1.62199,-1.608248 -2.45899,-2.374954 -0.83701,-0.766732 -1.69197,-1.507139 -2.56696,-2.219013 -0.87496,-0.711881 -1.76971,-1.395352 -2.68667,-2.046611 -0.91695,-0.651254 -1.85598,-1.270744 -2.81889,-1.85561 -0.9629,-0.584871 -1.94993,-1.134746 -2.96283,-1.647448 -1.01288,-0.512715 -2.0517,-0.988052 -3.11853,-1.42283 -1.06685,-0.434776 -2.16194,-0.829255 -3.28675,-1.180322 -1.12479,-0.351069 -2.27918,-0.659067 -3.46594,-0.920656 -1.18677,-0.261585 -2.40582,-0.47637 -3.6525,-0.652398 -1.24668,-0.176023 -2.52067,-0.312963 -3.81922,-0.417046 -2.59709,-0.208167 -5.29052,-0.286168 -8.04681,-0.288286 -2.75627,-0.0014 -5.57548,0.07169 -8.42652,0.166677 -1.89074,0.06301 -3.80456,0.129443 -5.71341,0.195289 0.0381,-0.04127 0.0756,-0.08349 0.11384,-0.12447 -1.55503,0.727275 -3.11188,1.453826 -4.67268,2.1439 1.46475,-0.648752 2.92585,-1.331224 4.3855,-2.013705 -0.91174,0.03129 -1.81597,0.06671 -2.72854,0.093 -2.88141,0.08306 -5.76203,0.132929 -8.60941,0.09514 -1.4237,-0.0188 -2.83915,-0.0593 -4.24226,-0.128761 -1.40313,-0.06947 -2.79363,-0.168099 -4.1681,-0.301877 -1.37448,-0.133864 -2.73261,-0.302659 -4.07041,-0.514337 -1.33779,-0.211669 -2.65542,-0.465827 -3.94849,-0.769 -1.29306,-0.303167 -2.56131,-0.655408 -3.80159,-1.06372 -1.24028,-0.408294 -2.45249,-0.872889 -3.63194,-1.399938 -1.17945,-0.527035 -2.32645,-1.116842 -3.4417,-1.762617 -1.11526,-0.645781 -2.19908,-1.347282 -3.25148,-2.098114 -1.05241,-0.750853 -2.07328,-1.55132 -3.0642,-2.393557 -0.99091,-0.842237 -1.95128,-1.72608 -2.88204,-2.646073 -0.93076,-0.920001 -1.83235,-1.87588 -2.70431,-2.859961 -0.87194,-0.984085 -1.71428,-1.996422 -2.52877,-3.030929 -0.81449,-1.034519 -1.60072,-2.091278 -2.35909,-3.162557 -0.7584,-1.071279 -1.4895,-2.157576 -2.19311,-3.251974 -1.407245,-2.188781 -2.705975,-4.40983 -3.902226,-6.6091 -0.628638,-1.155732 -1.154085,-2.268018 -1.726729,-3.403628 z"
           style="fill:url(#linearGradient2191);fill-opacity:1;stroke:none;stroke-width:0.561597;stroke-linecap:round;stroke-linejoin:round"
           id="path2148" />
        <path
           id="path2179"
           style="fill:url(#linearGradient2181);fill-opacity:1;stroke:none;stroke-width:0.549139;stroke-linecap:round;stroke-linejoin:round"
           d="M 95.343745,36.06687 V 65.170996 84.952159 106.70735 H 215.95083 V 90.1239 c -0.25023,-0.299985 -0.4843,-0.622776 -0.73722,-0.918965 -1.47903,-1.732066 -3.00581,-3.397525 -4.59562,-4.973446 -0.79491,-0.787973 -1.60557,-1.553393 -2.43411,-2.293949 -0.82856,-0.740577 -1.67489,-1.455729 -2.54103,-2.143322 -0.86612,-0.687599 -1.75181,-1.347757 -2.6595,-1.9768 -0.90768,-0.629043 -1.83719,-1.227401 -2.79037,-1.792321 -0.95318,-0.564919 -1.93024,-1.096035 -2.93289,-1.591252 -1.00263,-0.495225 -2.03095,-0.954343 -3.087,-1.374292 -1.05606,-0.419948 -2.14007,-0.80097 -3.2535,-1.140064 -1.11341,-0.339093 -2.25614,-0.63659 -3.4309,-0.889256 -1.17476,-0.252665 -2.3815,-0.460123 -3.61556,-0.630145 -1.23409,-0.170021 -2.49519,-0.302287 -3.7806,-0.402821 -2.57085,-0.201067 -5.23704,-0.276411 -7.96547,-0.278457 -2.72839,-0.0014 -5.51908,0.06925 -8.3413,0.160997 -1.87162,0.06086 -3.76607,0.125015 -5.65564,0.188618 0.0378,-0.03986 0.0748,-0.08062 0.11269,-0.120197 -1.53929,0.702467 -3.08041,1.404227 -4.62543,2.070762 1.44994,-0.626623 2.89628,-1.28581 4.34116,-1.945012 -0.90253,0.03022 -1.79761,0.06446 -2.70096,0.08985 -2.85226,0.08023 -5.70375,0.128356 -8.52233,0.09186 -1.40932,-0.01816 -2.81047,-0.05725 -4.19939,-0.124351 -1.38893,-0.06709 -2.76535,-0.162355 -4.12595,-0.291571 -1.36058,-0.129299 -2.70498,-0.292348 -4.02925,-0.496805 -1.32427,-0.20445 -2.62857,-0.449934 -3.90856,-0.742767 -1.28,-0.292826 -2.53542,-0.633056 -3.76315,-1.027441 -1.22774,-0.394366 -2.42769,-0.843114 -3.59521,-1.352188 -1.16753,-0.50906 -2.30293,-1.078741 -3.40692,-1.702488 -1.10398,-0.623754 -2.17683,-1.301324 -3.21859,-2.026548 -1.04176,-0.725237 -2.05232,-1.498413 -3.03321,-2.311922 -0.9809,-0.813509 -1.93156,-1.6672 -2.85291,-2.555812 -0.92134,-0.888619 -1.81382,-1.811895 -2.67695,-2.762411 -0.86313,-0.950516 -1.69694,-1.928322 -2.5032,-2.927546 -0.80625,-0.99923 -1.58454,-2.019942 -2.33524,-3.054682 -0.75073,-1.03474 -1.47444,-2.083988 -2.17094,-3.141056 -1.393,-2.114126 -2.678612,-4.259416 -3.862773,-6.383671 -0.622274,-1.116309 -1.142411,-2.190656 -1.709262,-3.28753 z m 67.621915,38.006998 c 0.6597,0 1.28457,0.07273 1.87358,0.218326 0.60081,0.145553 1.22492,0.352479 1.87284,0.621162 l -0.86589,1.981652 c -0.57723,-0.22392 -1.09568,-0.397137 -1.55513,-0.520295 -0.45945,-0.123145 -0.93039,-0.185166 -1.41337,-0.185166 -0.50656,0 -0.89523,0.111907 -1.16617,0.3358 -0.27096,0.223907 -0.40642,0.515089 -0.40642,0.873363 0,0.425424 0.19999,0.761094 0.60054,1.007395 0.40053,0.246304 0.9956,0.548964 1.78487,0.907217 0.64793,0.291086 1.19546,0.59304 1.64311,0.906515 0.45944,0.31349 0.81265,0.683545 1.06002,1.108976 0.2474,0.42544 0.37152,0.951175 0.37152,1.578126 0,1.063582 -0.40638,1.91491 -1.21924,2.55306 -0.80107,0.626949 -1.94366,0.940375 -3.42798,0.940375 -1.3312,0 -2.52132,-0.240632 -3.56975,-0.722041 v -2.36788 c 0.60079,0.246316 1.21924,0.475476 1.85539,0.688189 0.64792,0.201524 1.28978,0.302627 1.92591,0.302627 0.6597,0 1.12497,-0.117926 1.39592,-0.353061 0.28273,-0.246316 0.4246,-0.55435 0.4246,-0.923809 0,-0.30228 -0.11214,-0.559763 -0.3359,-0.772476 -0.21205,-0.212711 -0.50071,-0.408179 -0.8659,-0.587309 -0.36521,-0.19033 -0.78366,-0.391861 -1.25487,-0.604582 -0.2945,-0.134344 -0.61224,-0.291398 -0.95387,-0.47052 -0.34164,-0.190352 -0.67142,-0.419491 -0.98951,-0.688195 -0.3063,-0.279885 -0.55948,-0.616248 -0.75975,-1.00809 -0.20027,-0.391856 -0.30099,-0.861635 -0.30099,-1.410231 0,-1.074777 0.383,-1.90924 1.14873,-2.502613 0.76571,-0.604555 1.8083,-0.906515 3.12771,-0.906515 z m 19.63806,0 c 0.6597,0 1.28383,0.07273 1.87285,0.218326 0.60081,0.145553 1.22566,0.352479 1.87359,0.621162 l -0.86592,1.981652 c -0.57724,-0.22392 -1.09569,-0.397137 -1.55514,-0.520295 -0.45943,-0.123145 -0.93108,-0.185166 -1.41409,-0.185166 -0.50655,0 -0.89522,0.111907 -1.16617,0.3358 -0.27096,0.223907 -0.40641,0.515089 -0.40641,0.873363 0,0.425424 0.20072,0.761094 0.60126,1.007395 0.40054,0.246304 0.99488,0.548964 1.78416,0.907217 0.64793,0.291086 1.19618,0.59304 1.64382,0.906515 0.45945,0.31349 0.81265,0.683545 1.06003,1.108976 0.24739,0.42544 0.37078,0.951175 0.37078,1.578126 0,1.063582 -0.40637,1.91491 -1.21922,2.55306 -0.80107,0.626949 -1.94365,0.940375 -3.428,0.940375 -1.33118,0 -2.52058,-0.240632 -3.56902,-0.722041 v -2.36788 c 0.60079,0.246316 1.21923,0.475476 1.85539,0.688189 0.64793,0.201524 1.28979,0.302627 1.92593,0.302627 0.6597,0 1.12496,-0.117926 1.39591,-0.353061 0.28274,-0.246316 0.42386,-0.55435 0.42386,-0.923809 0,-0.30228 -0.1113,-0.559763 -0.33516,-0.772476 -0.21204,-0.212711 -0.50071,-0.408179 -0.86589,-0.587309 -0.36522,-0.19033 -0.78368,-0.391861 -1.25489,-0.604582 -0.29449,-0.134344 -0.61224,-0.291398 -0.95387,-0.47052 -0.34163,-0.190352 -0.67215,-0.419491 -0.99023,-0.688195 -0.30629,-0.279885 -0.55949,-0.616248 -0.75974,-1.00809 -0.20028,-0.391856 -0.30028,-0.861635 -0.30028,-1.410231 0,-1.074777 0.383,-1.90924 1.14873,-2.502613 0.76572,-0.604555 1.80831,-0.906515 3.12772,-0.906515 z m -32.59825,0.117522 h 3.26876 l 4.47057,12.041153 h -2.8798 l -0.91899,-2.854994 h -4.59488 l -0.91825,2.854994 h -2.88054 z m -24.2264,0.0504 h 7.22749 v 2.082525 h -4.59417 v 3.089916 h 4.27572 v 2.082527 h -4.27572 v 4.735752 h -2.63332 z m 9.69796,0 h 3.67591 c 1.71994,0 2.98592,0.296576 3.79879,0.889935 0.82463,0.59338 1.23741,1.494559 1.23741,2.703688 0,0.548583 -0.11212,1.029848 -0.33589,1.444084 -0.21204,0.403042 -0.5007,0.750177 -0.86591,1.041249 -0.35341,0.279906 -0.7364,0.509746 -1.14872,0.68889 l 3.71083,5.222874 h -2.96851 l -3.00412,-4.601713 h -1.43155 v 4.601713 h -2.66824 z m 33.58122,0 h 7.26239 v 2.082525 h -4.59414 v 2.636655 h 4.27642 v 2.081825 h -4.27642 v 3.089923 h 4.59414 v 2.099792 h -7.26239 z m -17.40969,1.813743 c -0.0589,0.223906 -0.14116,0.503631 -0.24719,0.839502 -0.0943,0.32467 -0.18856,0.638088 -0.28282,0.940375 -0.0824,0.291094 -0.14699,0.498018 -0.19411,0.621155 l -0.90153,2.787989 h 3.28694 l -0.91898,-2.787985 c -0.059,-0.190317 -0.13549,-0.43095 -0.22974,-0.722043 -0.0943,-0.291071 -0.18857,-0.587647 -0.28282,-0.889935 -0.0942,-0.30228 -0.17084,-0.565149 -0.22975,-0.789056 z m -13.50329,0.26878 v 3.241236 h 0.86589 c 0.88355,0 1.51409,-0.14021 1.89104,-0.420095 0.38876,-0.279891 0.5831,-0.694433 0.5831,-1.243023 0,-0.570971 -0.20642,-0.974048 -0.61872,-1.209156 -0.40053,-0.246303 -1.03673,-0.368962 -1.90848,-0.368962 z m -7.59174,10.176274 h 2.95103 v 0.167908 c -0.16489,0.156735 -0.38337,0.347502 -0.65432,0.571408 -0.27095,0.223921 -0.5653,0.459166 -0.88334,0.70547 -0.30629,0.246294 -0.61269,0.480847 -0.91899,0.704761 -0.29451,0.212713 -0.55337,0.392016 -0.7772,0.537554 h -1.74926 v -0.218339 c 0.18848,-0.212714 0.40622,-0.458738 0.65359,-0.738623 0.25918,-0.291079 0.51237,-0.587654 0.75978,-0.889935 0.24739,-0.313475 0.45378,-0.5939 0.61871,-0.840204 z m -10.06731,3.526611 c 0.62436,0 1.24849,0.07889 1.87285,0.2356 0.63613,0.145553 1.24327,0.347093 1.8205,0.604582 l -0.86591,2.065253 c -0.47121,-0.212719 -0.94854,-0.397408 -1.43153,-0.554135 -0.47123,-0.156748 -0.93647,-0.234921 -1.39591,-0.234921 -1.0249,0 -1.80862,0.363971 -2.35052,1.091697 -0.54191,0.727712 -0.81284,1.723934 -0.81284,2.989041 0,1.276295 0.24754,2.267124 0.74231,2.972455 0.50657,0.694129 1.3137,1.04125 2.42105,1.04125 0.51834,0 1.0304,-0.0559 1.53696,-0.1679 0.51834,-0.111903 1.07794,-0.269012 1.67873,-0.470529 v 2.132959 c -0.55369,0.2127 -1.10121,0.36978 -1.6431,0.47054 -0.54191,0.10081 -1.14831,0.15062 -1.81979,0.15062 -1.29585,0 -2.36823,-0.2514 -3.21642,-0.75521 -0.83641,-0.51499 -1.45486,-1.23149 -1.85541,-2.149529 -0.40054,-0.929237 -0.60052,-2.009732 -0.60052,-3.24125 0,-1.209129 0.22978,-2.278832 0.68923,-3.208068 0.45942,-0.929231 1.12469,-1.656512 1.99645,-2.182706 0.88352,-0.526187 1.96157,-0.789749 3.23387,-0.789749 z m 72.76499,0 c 0.65969,0 1.28382,0.07274 1.87285,0.21834 0.6008,0.14554 1.22493,0.353158 1.87285,0.621842 l -0.8659,1.981638 c -0.57724,-0.223899 -1.09571,-0.397816 -1.55514,-0.520961 -0.45942,-0.123144 -0.93037,-0.18448 -1.41337,-0.18448 -0.50655,0 -0.89521,0.111908 -1.16617,0.3358 -0.27096,0.223901 -0.4064,0.515091 -0.4064,0.873358 0,0.425424 0.19999,0.7611 0.60052,1.007402 0.40053,0.246302 0.9956,0.548957 1.78488,0.907208 0.64794,0.29108 1.19547,0.593042 1.64312,0.906522 0.45941,0.313476 0.81336,0.682853 1.06076,1.108277 0.24737,0.425446 0.37077,0.951876 0.37077,1.578825 0,1.063582 -0.4064,1.914211 -1.21925,2.552361 -0.80105,0.62696 -1.94364,0.94038 -3.42799,0.94038 -1.33118,0 -2.52129,-0.24062 -3.56975,-0.72205 v -2.367876 c 0.60079,0.246315 1.21925,0.47617 1.8554,0.688882 0.64792,0.201524 1.29052,0.301954 1.92667,0.301954 0.65969,0 1.12496,-0.11726 1.3959,-0.352402 0.28274,-0.246302 0.42387,-0.554328 0.42387,-0.923788 0,-0.302288 -0.11213,-0.559764 -0.33589,-0.772484 -0.21206,-0.212704 -0.50072,-0.40887 -0.86592,-0.587994 -0.36518,-0.190324 -0.78292,-0.391855 -1.25415,-0.604582 -0.2945,-0.134352 -0.61296,-0.290717 -0.95459,-0.469848 -0.34162,-0.190316 -0.67141,-0.42017 -0.9895,-0.688868 -0.30628,-0.279885 -0.55949,-0.615562 -0.75975,-1.007395 -0.20028,-0.391857 -0.30027,-0.862349 -0.30027,-1.410932 0,-1.074776 0.38299,-1.908553 1.14872,-2.501913 0.76572,-0.604568 1.80832,-0.907216 3.12773,-0.907216 z m -66.86798,0.168587 h 7.26238 v 2.081825 h -4.59416 v 2.636662 h 4.27646 v 2.082519 h -4.27646 v 3.089919 h 4.59416 v 2.0991 h -7.26238 z m 9.90517,0 h 2.66825 v 9.890925 h 5.12416 v 2.0991 h -7.79241 z m 9.97426,0 h 7.2624 v 2.081825 h -4.59416 v 2.636662 h 4.27645 v 2.082519 h -4.27645 v 3.089919 h 4.59416 v 2.0991 h -7.2624 z m 9.90519,0 h 3.9231 c 1.6846,0 2.95625,0.223774 3.81623,0.671595 0.85996,0.447827 1.29049,1.237125 1.29049,2.367894 0,0.682935 -0.17093,1.259222 -0.51256,1.729445 -0.32986,0.470201 -0.80718,0.755999 -1.43155,0.856776 v 0.08357 c 0.42411,0.07835 0.8071,0.218583 1.14873,0.420093 0.34163,0.201518 0.61256,0.492722 0.81283,0.873356 0.20027,0.380661 0.30027,0.884161 0.30027,1.511112 0,1.085984 -0.41208,1.936604 -1.23669,2.552354 -0.82464,0.61577 -1.95589,0.92381 -3.39309,0.92381 h -4.71776 z m 11.87254,0 h 3.67518 c 1.71995,0 2.98667,0.296576 3.79952,0.889942 0.82463,0.593374 1.23669,1.494559 1.23669,2.703681 0,0.548583 -0.112,1.029847 -0.33589,1.444084 -0.21204,0.403043 -0.50072,0.750177 -0.8659,1.04125 -0.35343,0.279891 -0.73641,0.509065 -1.14874,0.688196 l 3.71082,5.222872 h -2.96851 l -3.00413,-4.601018 h -1.4308 v 4.601018 h -2.66824 z m 11.66535,0 h 7.26238 v 2.081825 h -4.59415 v 2.636662 h 4.27644 v 2.082519 h -4.27644 v 3.089919 h 4.59415 v 2.0991 h -7.26238 z m -20.86965,2.081825 v 2.670522 h 1.55511 c 0.77752,0 1.31298,-0.117925 1.6075,-0.353074 0.30629,-0.235108 0.45948,-0.57617 0.45948,-1.023998 0,-0.459014 -0.17659,-0.78929 -0.53,-0.990815 -0.35342,-0.201525 -0.913,-0.302635 -1.67873,-0.302635 z m 11.87254,0 v 3.241243 h 0.86589 c 0.88355,0 1.51334,-0.139517 1.89031,-0.419401 0.38876,-0.279892 0.58311,-0.694435 0.58311,-1.243016 0,-0.570978 -0.2057,-0.974056 -0.61801,-1.209164 -0.40052,-0.246302 -1.03672,-0.369662 -1.90847,-0.369662 z m -11.87254,4.685328 v 3.123772 h 1.74923 c 0.80109,0 1.36067,-0.145592 1.67875,-0.436672 0.31807,-0.302287 0.47693,-0.699287 0.47693,-1.19189 0,-0.44782 -0.16453,-0.806426 -0.49437,-1.075117 -0.31808,-0.279891 -0.90108,-0.420093 -1.74928,-0.420093 z" />
      </g>
    </g>
  </g>
</svg>
