<svg xmlns="http://www.w3.org/2000/svg" xmlns:xlink="http://www.w3.org/1999/xlink" width="324" height="234" viewBox="0 0 85.725 61.913"><defs><linearGradient id="e"><stop offset="0" stop-color="#6137a6"/><stop offset="1" stop-color="#221042"/></linearGradient><linearGradient id="f"><stop offset="0" stop-color="#ff9680"/><stop offset="1" stop-color="#ff1677"/></linearGradient><linearGradient id="g"><stop offset="0" stop-color="#f76b4d"/><stop offset="1" stop-color="#ba0d55"/></linearGradient><linearGradient id="d"><stop offset="0" stop-color="#4b2d83"/><stop offset="1" stop-color="#9779d1"/></linearGradient><linearGradient id="c"><stop offset="0" stop-color="#9779d1"/><stop offset="1" stop-color="#4b2d83"/></linearGradient><linearGradient id="b"><stop offset="0" stop-color="#683db3"/><stop offset="1" stop-color="#3a2264"/></linearGradient><linearGradient id="a"><stop offset="0" stop-color="#432673"/><stop offset="1" stop-color="#150c24"/></linearGradient><linearGradient xlink:href="#a" id="m" x1="0" x2="324" y1="65.498" y2="65.498" gradientUnits="userSpaceOnUse"/><linearGradient xlink:href="#a" id="h" x1="0" x2="324" y1="181.722" y2="181.722" gradientUnits="userSpaceOnUse"/><linearGradient xlink:href="#b" id="k" x1="0" x2="168.973" y1="172.504" y2="130.092" gradientUnits="userSpaceOnUse"/><linearGradient xlink:href="#c" id="l" x1="0" x2="168.209" y1="34.318" y2="130.447" gradientUnits="userSpaceOnUse"/><linearGradient xlink:href="#d" id="j" x1="168.668" x2="324" y1="130.432" y2="36.898" gradientUnits="userSpaceOnUse"/><linearGradient xlink:href="#b" id="i" x1="168.973" x2="324" y1="130.092" y2="187.123" gradientUnits="userSpaceOnUse"/><linearGradient xlink:href="#c" id="q" x1="0" x2="168.209" y1="34.318" y2="130.447" gradientTransform="rotate(86.19 168.4 129.861)" gradientUnits="userSpaceOnUse"/><linearGradient xlink:href="#b" id="p" x1="0" x2="168.973" y1="172.504" y2="130.092" gradientTransform="rotate(86.19 168.4 129.861)" gradientUnits="userSpaceOnUse"/><linearGradient xlink:href="#d" id="o" x1="168.668" x2="324" y1="130.432" y2="36.898" gradientTransform="rotate(86.19 168.4 129.861)" gradientUnits="userSpaceOnUse"/><linearGradient xlink:href="#b" id="n" x1="168.973" x2="324" y1="130.092" y2="187.123" gradientTransform="rotate(86.19 168.4 129.861)" gradientUnits="userSpaceOnUse"/><linearGradient xlink:href="#a" id="s" x1="0" x2="324" y1="181.722" y2="181.722" gradientTransform="translate(109.433 -8.612) scale(.4138)" gradientUnits="userSpaceOnUse"/><linearGradient xlink:href="#b" id="t" x1="168.973" x2="324" y1="130.092" y2="187.123" gradientTransform="translate(109.433 -8.612) scale(.4138)" gradientUnits="userSpaceOnUse"/><linearGradient xlink:href="#d" id="u" x1="168.668" x2="324" y1="130.432" y2="36.898" gradientTransform="translate(109.433 -8.612) scale(.4138)" gradientUnits="userSpaceOnUse"/><linearGradient xlink:href="#b" id="v" x1="0" x2="168.973" y1="172.504" y2="130.092" gradientTransform="translate(109.433 -8.612) scale(.4138)" gradientUnits="userSpaceOnUse"/><linearGradient xlink:href="#c" id="w" x1="0" x2="168.209" y1="34.318" y2="130.447" gradientTransform="translate(109.433 -8.612) scale(.4138)" gradientUnits="userSpaceOnUse"/><linearGradient xlink:href="#a" id="x" x1="0" x2="324" y1="65.498" y2="65.498" gradientTransform="translate(109.433 -8.612) scale(.4138)" gradientUnits="userSpaceOnUse"/><linearGradient xlink:href="#b" id="y" x1="168.973" x2="324" y1="130.092" y2="187.123" gradientTransform="rotate(86.19 129.004 107.913) scale(.4139)" gradientUnits="userSpaceOnUse"/><linearGradient xlink:href="#d" id="z" x1="168.668" x2="324" y1="130.432" y2="36.898" gradientTransform="rotate(86.19 129.004 107.913) scale(.4139)" gradientUnits="userSpaceOnUse"/><linearGradient xlink:href="#e" id="D" x1="0" x2="324" y1="34.318" y2="234" gradientTransform="matrix(.3722 0 0 .3538 95.344 23.926)" gradientUnits="userSpaceOnUse"/><linearGradient xlink:href="#f" id="C" x1="-79.199" x2="244.801" y1="343.249" y2="343.249" gradientTransform="matrix(.376 0 0 .3663 125.126 -55.578)" gradientUnits="userSpaceOnUse"/><linearGradient xlink:href="#f" id="B" x1="52.496" x2="292.389" y1="66.625" y2="108.195" gradientUnits="userSpaceOnUse"/><radialGradient xlink:href="#g" id="A" cx="128.897" cy="12.586" r="4.713" fx="128.897" fy="12.586" gradientTransform="matrix(1 0 0 .8605 140.114 -22.947)" gradientUnits="userSpaceOnUse"/><filter id="r" width="1" height="1" x="0" y="0" color-interpolation-filters="sRGB"><feGaussianBlur result="blur" stdDeviation="14 14"/><feColorMatrix result="colormatrix" values="1 0 0 0 0 0 1 0 0 0 0 0 1 0 0 0 0 0 50 0"/><feComposite in="colormatrix" in2="SourceGraphic" operator="in"/></filter></defs><path fill="url(#h)" d="M168.668 130.432c-1.694 1.877-3.35 3.816-5.074 5.638a303.445 303.445 0 0 1-7.899 8.06 228.105 228.105 0 0 1-8.113 7.6 177.727 177.727 0 0 1-8.363 7.012 142.493 142.493 0 0 1-8.655 6.305c-2.937 1.97-5.93 3.8-8.984 5.473a99.663 99.663 0 0 1-9.351 4.517 97.384 97.384 0 0 1-9.74 3.477c-3.306.988-6.667 1.81-10.071 2.48-3.404.671-6.85 1.19-10.326 1.572-3.477.382-6.984.626-10.508.746-3.524.12-7.066.118-10.613.004-3.548-.113-7.1-.337-10.645-.656s-7.083-.733-10.601-1.23a240.499 240.499 0 0 1-10.48-1.723c-6.932-1.293-13.735-2.858-20.308-4.584-3.103-.815-5.946-1.745-8.937-2.62V234h324v-46.877c-.672-.848-1.301-1.76-1.98-2.598-3.974-4.896-8.075-9.603-12.346-14.058a178.096 178.096 0 0 0-6.54-6.485 155.14 155.14 0 0 0-6.825-6.058 137.756 137.756 0 0 0-7.145-5.588 124.845 124.845 0 0 0-7.496-5.066 115.822 115.822 0 0 0-7.879-4.499 110.296 110.296 0 0 0-8.293-3.884 108.08 108.08 0 0 0-8.74-3.223c-2.991-.958-6.061-1.8-9.217-2.514-3.156-.714-6.398-1.3-9.713-1.78a165.37 165.37 0 0 0-10.156-1.14c-6.906-.568-14.069-.78-21.399-.787-7.33-.005-14.826.196-22.408.455-5.028.172-10.118.354-15.195.534z" transform="scale(.2646)"/><path fill="url(#i)" d="M168.668 130.432c5.077-.18 10.167-.362 15.195-.534 7.582-.259 15.079-.46 22.408-.455 7.33.006 14.493.22 21.399.787 3.453.285 6.84.659 10.156 1.14 3.315.48 6.557 1.066 9.713 1.78 3.156.715 6.226 1.556 9.217 2.514a108.08 108.08 0 0 1 8.74 3.223c2.837 1.187 5.6 2.485 8.293 3.884 2.694 1.4 5.318 2.902 7.879 4.499a124.845 124.845 0 0 1 7.496 5.066 137.756 137.756 0 0 1 7.145 5.588 155.14 155.14 0 0 1 6.826 6.058 178.096 178.096 0 0 1 6.539 6.485c4.27 4.455 8.372 9.162 12.346 14.058.679.838 1.308 1.75 1.98 2.598v-84.47c-2.445-.964-4.894-1.902-7.36-2.749a155.192 155.192 0 0 0-8.714-2.716 137.735 137.735 0 0 0-8.81-2.153 124.836 124.836 0 0 0-8.917-1.535c-2.99-.402-6-.691-9.031-.86-3.03-.167-6.084-.213-9.158-.128-3.074.085-6.17.301-9.291.658-3.12.357-6.265.853-9.436 1.5-3.17.647-6.366 1.443-9.586 2.37-3.22.925-6.462 1.98-9.726 3.142-6.53 2.322-13.143 5.074-19.826 8.084-6.684 3.01-13.435 6.277-20.239 9.632-6.804 3.355-13.66 6.796-20.55 10.155-1.455.709-2.926 1.339-4.383 2.039-.103.112-.203.227-.305.34z" transform="scale(.2646)"/><path fill="url(#j)" d="M308.879 36.547c-3.085.063-6.152.2-9.2.42-3.047.22-6.076.524-9.081.92-3.006.396-5.99.884-8.95 1.474-2.96.59-5.895 1.282-8.804 2.084a115.89 115.89 0 0 0-8.645 2.75 110.315 110.315 0 0 0-8.474 3.473 108.046 108.046 0 0 0-8.29 4.248 109.088 109.088 0 0 0-8.091 5.08 125.754 125.754 0 0 0-7.889 5.94 165.419 165.419 0 0 0-7.717 6.703c-5.095 4.697-10.1 9.821-15.068 15.21-4.968 5.39-9.896 11.043-14.84 16.797-4.943 5.755-9.902 11.61-14.924 17.4-3.258 3.758-6.606 7.386-9.933 11.046 1.457-.7 2.928-1.33 4.382-2.04 6.891-3.358 13.747-6.799 20.551-10.154 6.804-3.355 13.555-6.623 20.239-9.632 6.683-3.01 13.297-5.762 19.826-8.084a165.446 165.446 0 0 1 9.726-3.143 126.08 126.08 0 0 1 9.586-2.37 108.328 108.328 0 0 1 18.726-2.157 109.9 109.9 0 0 1 9.159.129c3.03.168 6.04.457 9.031.859 2.991.402 5.962.917 8.916 1.535 2.954.618 5.89 1.338 8.81 2.153 2.921.814 5.826 1.724 8.716 2.716 2.465.847 4.914 1.785 7.359 2.748V36.898c-5.071-.246-10.133-.453-15.121-.351z" transform="scale(.2646)"/><path fill="url(#k)" d="M168.973 130.092c-5.447 2.615-10.901 5.232-16.38 7.615a303.522 303.522 0 0 1-10.427 4.318 228.046 228.046 0 0 1-10.441 3.81 177.785 177.785 0 0 1-10.446 3.17c-3.48.937-6.959 1.747-10.433 2.407-3.475.66-6.946 1.171-10.41 1.512a99.68 99.68 0 0 1-10.375.488 97.328 97.328 0 0 1-10.32-.621 108.276 108.276 0 0 1-10.239-1.666 122.488 122.488 0 0 1-10.115-2.604 140.062 140.062 0 0 1-9.96-3.433 160.772 160.772 0 0 1-9.763-4.158 184.614 184.614 0 0 1-9.535-4.778 211.27 211.27 0 0 1-9.27-5.289 240.565 240.565 0 0 1-8.966-5.695c-4.135-2.753-8-5.68-11.893-8.58v55.916c2.99.874 5.834 1.804 8.938 2.62 6.572 1.725 13.375 3.29 20.306 4.583a240.61 240.61 0 0 0 10.48 1.723c3.519.497 7.057.911 10.602 1.23 3.545.32 7.097.543 10.645.656 3.547.114 7.089.117 10.613-.004 3.524-.12 7.031-.364 10.508-.746 3.476-.381 6.922-.9 10.326-1.572a108.237 108.237 0 0 0 10.07-2.48 97.384 97.384 0 0 0 9.74-3.477 99.663 99.663 0 0 0 9.352-4.517 117.311 117.311 0 0 0 8.984-5.473c2.938-1.97 5.82-4.079 8.655-6.305 2.834-2.226 5.62-4.57 8.363-7.012a228.105 228.105 0 0 0 8.113-7.6 303.445 303.445 0 0 0 7.899-8.06c1.827-1.932 3.578-3.997 5.379-5.978z" transform="scale(.2646)"/><path fill="url(#l)" d="M0 34.318v82.27c3.894 2.9 7.758 5.827 11.893 8.58a240.565 240.565 0 0 0 8.966 5.695 211.27 211.27 0 0 0 9.27 5.29 184.614 184.614 0 0 0 9.535 4.777 160.772 160.772 0 0 0 9.764 4.158 140.062 140.062 0 0 0 9.959 3.433 122.488 122.488 0 0 0 10.115 2.604c3.394.717 6.81 1.279 10.238 1.666 3.429.387 6.87.6 10.32.621a99.68 99.68 0 0 0 10.376-.488c3.464-.34 6.935-.852 10.41-1.512 3.474-.66 6.953-1.47 10.433-2.406 3.48-.937 6.964-2 10.446-3.17a228.046 228.046 0 0 0 10.441-3.81 303.522 303.522 0 0 0 10.428-4.319c5.222-2.272 10.421-4.766 15.615-7.26-2.425.086-4.83.182-7.256.254-7.662.227-15.322.363-22.894.26-3.786-.052-7.55-.162-11.282-.352a228.02 228.02 0 0 1-11.084-.824 177.773 177.773 0 0 1-10.824-1.404 142.494 142.494 0 0 1-10.5-2.1 117.269 117.269 0 0 1-10.11-2.904 99.692 99.692 0 0 1-9.657-3.822 97.357 97.357 0 0 1-9.153-4.813 108.25 108.25 0 0 1-8.646-5.728 122.504 122.504 0 0 1-8.149-6.535 140.017 140.017 0 0 1-7.664-7.225 160.868 160.868 0 0 1-7.191-7.809 184.548 184.548 0 0 1-6.725-8.275 211.306 211.306 0 0 1-6.273-8.635 240.592 240.592 0 0 1-5.832-8.879c-3.742-5.976-7.196-12.04-10.377-18.045C2.92 40.456 1.522 37.42 0 34.318z" transform="scale(.2646)"/><path fill="url(#m)" d="M0 34.318c1.523 3.1 2.92 6.138 4.592 9.293 3.18 6.005 6.635 12.07 10.377 18.045a240.592 240.592 0 0 0 5.832 8.88 211.306 211.306 0 0 0 6.273 8.634 184.548 184.548 0 0 0 6.725 8.275 160.868 160.868 0 0 0 7.191 7.809 140.017 140.017 0 0 0 7.664 7.225c2.635 2.3 5.35 4.485 8.149 6.535a108.25 108.25 0 0 0 8.646 5.728 97.357 97.357 0 0 0 9.153 4.813 99.692 99.692 0 0 0 9.658 3.822 117.269 117.269 0 0 0 10.11 2.904c3.438.828 6.942 1.522 10.5 2.1 3.557.578 7.168 1.039 10.823 1.404 3.655.365 7.353.635 11.084.824 3.732.19 7.496.3 11.282.352 7.572.103 15.232-.033 22.894-.26 2.427-.072 4.831-.168 7.256-.254.254-.122.51-.233.764-.355 3.327-3.66 6.675-7.288 9.933-11.045 5.022-5.792 9.98-11.646 14.924-17.4 4.944-5.755 9.872-11.408 14.84-16.797 4.968-5.39 9.973-10.514 15.068-15.211a165.419 165.419 0 0 1 7.717-6.703 125.754 125.754 0 0 1 7.889-5.94 109.088 109.088 0 0 1 8.092-5.08 108.046 108.046 0 0 1 8.289-4.248 110.316 110.316 0 0 1 8.474-3.473 115.794 115.794 0 0 1 8.645-2.75 124.857 124.857 0 0 1 8.804-2.084c2.96-.59 5.944-1.078 8.95-1.474 3.005-.396 6.034-.7 9.082-.92a178.09 178.09 0 0 1 9.199-.42c4.988-.102 10.05.105 15.121.351V0H0v34.318z" transform="scale(.2646)"/><path fill="url(#n)" d="M167.85 130.166c.517 5.054 1.037 10.121 1.543 15.127.763 7.548 1.461 15.014 1.943 22.328s.746 14.474.639 21.402c-.054 3.465-.202 6.87-.461 10.21a125.79 125.79 0 0 1-1.131 9.81 108.092 108.092 0 0 1-4.53 18.299c-.776 2.27-1.68 4.467-2.593 6.658h49.469c-.07-1.082-.068-2.157-.17-3.242a109.064 109.064 0 0 0-3.398-18.543 125.729 125.729 0 0 0-3.003-9.406 165.462 165.462 0 0 0-3.783-9.496c-2.752-6.36-5.937-12.776-9.385-19.245-3.447-6.468-7.157-12.987-10.957-19.552-3.8-6.566-7.688-13.178-11.498-19.83-.804-1.405-1.53-2.83-2.326-4.239l-.36-.281z" transform="scale(.2646)"/><path fill="url(#o)" d="M168.209 130.447c.795 1.408 1.522 2.834 2.326 4.239 3.81 6.652 7.698 13.264 11.498 19.83 3.8 6.565 7.51 13.084 10.957 19.552 3.448 6.469 6.633 12.885 9.385 19.244a165.454 165.454 0 0 1 3.783 9.497 125.729 125.729 0 0 1 3.002 9.406 109.064 109.064 0 0 1 3.399 18.543c.102 1.085.1 2.16.17 3.242h52.628c-.572-1.943-1.12-3.893-1.789-5.807a115.829 115.829 0 0 0-3.32-8.443 110.295 110.295 0 0 0-4.027-8.225 108.066 108.066 0 0 0-4.791-7.988 109.1 109.1 0 0 0-5.608-7.736 125.726 125.726 0 0 0-6.449-7.477 165.473 165.473 0 0 0-7.203-7.254c-5.025-4.771-10.472-9.425-16.18-14.023-5.707-4.599-11.676-9.14-17.746-13.69-6.07-4.55-12.24-9.106-18.353-13.732-3.966-3.001-7.809-6.102-11.682-9.178z" transform="scale(.2646)"/><path fill="url(#p)" d="M108.861 0c-.155 1.635-.351 3.258-.472 4.9a211.6 211.6 0 0 0-.524 10.66 184.61 184.61 0 0 0 .055 10.665c.123 3.547.355 7.08.709 10.59.354 3.508.831 6.99 1.443 10.433.612 3.443 1.36 6.848 2.256 10.2a108.23 108.23 0 0 0 3.145 9.882 97.402 97.402 0 0 0 4.117 9.488 99.64 99.64 0 0 0 5.129 9.03 117.338 117.338 0 0 0 6.058 8.601c2.161 2.8 4.456 5.535 6.866 8.215 2.41 2.68 4.933 5.303 7.552 7.879a228.13 228.13 0 0 0 8.123 7.59 303.493 303.493 0 0 0 8.569 7.346c2.05 1.695 4.225 3.303 6.322 4.968-2.972-5.26-5.946-10.528-8.688-15.836a303.515 303.515 0 0 1-5.001-10.117c-1.59-3.38-3.099-6.77-4.499-10.166a178.165 178.165 0 0 1-3.857-10.21 142.466 142.466 0 0 1-3.094-10.25c-.89-3.424-1.63-6.853-2.2-10.288a99.66 99.66 0 0 1-1.179-10.318 97.346 97.346 0 0 1-.066-10.34c.158-3.447.492-6.892.982-10.326.49-3.435 1.137-6.858 1.924-10.266.787-3.408 1.714-6.8 2.764-10.166a160.746 160.746 0 0 1 3.5-10.018c.279-.722.613-1.426.902-2.146h-40.836z" transform="scale(.2646)"/><path fill="url(#q)" d="M149.697 0c-.289.72-.623 1.424-.902 2.146a160.746 160.746 0 0 0-3.5 10.018 140.083 140.083 0 0 0-2.764 10.166 122.475 122.475 0 0 0-1.924 10.266 108.2 108.2 0 0 0-.982 10.326 97.346 97.346 0 0 0 .066 10.34 99.657 99.657 0 0 0 1.178 10.318 117.37 117.37 0 0 0 2.201 10.287c.89 3.423 1.928 6.84 3.094 10.25a177.784 177.784 0 0 0 3.857 10.211c1.4 3.396 2.908 6.785 4.499 10.166 1.59 3.38 3.264 6.753 5.001 10.117 2.615 5.06 5.449 10.082 8.282 15.098-.247-2.413-.502-4.806-.735-7.223-.736-7.63-1.382-15.264-1.783-22.826-.2-3.78-.34-7.545-.398-11.281-.059-3.736-.038-7.442.084-11.113.121-3.672.341-7.307.681-10.895.34-3.588.8-7.13 1.397-10.615a117.296 117.296 0 0 1 2.226-10.281 99.677 99.677 0 0 1 3.17-9.891 97.344 97.344 0 0 1 4.194-9.451 108.275 108.275 0 0 1 5.14-9.01 122.512 122.512 0 0 1 5.98-8.564c2.12-2.783 4.356-5.49 6.698-8.127.131-.148.278-.285.41-.432h-45.17z" transform="scale(.2646)"/><g filter="url(#r)" transform="translate(-45.86 11.967) scale(.5184)"><path fill="url(#s)" d="M112.445 63.659v18.185a4.783 4.783 0 0 0 4.795 4.795h118.47a4.783 4.783 0 0 0 4.794-4.795v-16.59c-.966-1.115-1.907-2.268-2.916-3.32a73.7 73.7 0 0 0-2.706-2.684 64.201 64.201 0 0 0-2.825-2.508 57.008 57.008 0 0 0-2.957-2.312 51.663 51.663 0 0 0-3.102-2.097 47.933 47.933 0 0 0-3.26-1.861 44.732 44.732 0 0 0-10.863-3.982 52.048 52.048 0 0 0-4.02-.737 68.433 68.433 0 0 0-4.204-.471c-2.858-.235-5.822-.323-8.855-.326-3.033-.002-6.136.081-9.274.189-2.08.07-4.187.146-6.288.22-.7.777-1.386 1.58-2.1 2.334a125.562 125.562 0 0 1-3.268 3.335 94.402 94.402 0 0 1-3.358 3.145 73.558 73.558 0 0 1-3.461 2.902 58.975 58.975 0 0 1-3.582 2.61 48.55 48.55 0 0 1-3.718 2.264 41.244 41.244 0 0 1-3.87 1.87 40.301 40.301 0 0 1-4.03 1.438 44.794 44.794 0 0 1-4.168 1.027 50.69 50.69 0 0 1-4.273.65c-1.44.158-2.89.26-4.349.31a66.86 66.86 0 0 1-4.392.001 76.382 76.382 0 0 1-4.405-.271 87.443 87.443 0 0 1-4.388-.51 99.528 99.528 0 0 1-4.337-.712 119.44 119.44 0 0 1-8.403-1.897c-.239-.063-.455-.136-.687-.202z"/><path fill="url(#t)" d="M240.504 65.254v-32.51a64.216 64.216 0 0 0-3.64-1.136 56.996 56.996 0 0 0-3.646-.891 51.663 51.663 0 0 0-3.69-.636 47.925 47.925 0 0 0-3.737-.355 45.698 45.698 0 0 0-3.79-.054 44.731 44.731 0 0 0-7.75.894 52.038 52.038 0 0 0-3.967.98c-1.332.383-2.674.82-4.025 1.3-2.702.962-5.44 2.1-8.205 3.346-2.766 1.246-5.56 2.598-8.375 3.986-2.816 1.389-5.653 2.813-8.505 4.203-.602.293-1.21.554-1.814.843l-.126.141c2.101-.074 4.207-.15 6.288-.22 3.138-.108 6.24-.191 9.274-.189 3.033.002 5.997.09 8.855.326 1.43.117 2.831.272 4.203.471a52.38 52.38 0 0 1 4.02.737 45.138 45.138 0 0 1 7.431 2.374 45.642 45.642 0 0 1 3.432 1.608c1.115.58 2.201 1.2 3.26 1.861a51.566 51.566 0 0 1 3.103 2.097 57.003 57.003 0 0 1 2.957 2.312 64.201 64.201 0 0 1 2.824 2.508 73.708 73.708 0 0 1 2.707 2.683c1.009 1.053 1.95 2.206 2.916 3.321z"/><path fill="url(#u)" d="M240.504 32.744V6.587c-1.083-.031-2.175-.097-3.245-.075a73.676 73.676 0 0 0-3.807.174 64.216 64.216 0 0 0-3.759.38 56.995 56.995 0 0 0-3.703.61 51.67 51.67 0 0 0-3.644.863c-1.204.332-2.396.71-3.577 1.138a45.733 45.733 0 0 0-3.508 1.437 44.71 44.71 0 0 0-6.779 3.86 52.041 52.041 0 0 0-3.264 2.459 68.457 68.457 0 0 0-3.194 2.774c-2.108 1.943-4.18 4.064-6.236 6.295-2.055 2.23-4.095 4.57-6.14 6.95-2.047 2.382-4.099 4.805-6.177 7.202-1.348 1.555-2.734 3.056-4.11 4.57.602-.29 1.21-.55 1.813-.843 2.852-1.39 5.689-2.814 8.505-4.203 2.815-1.388 5.61-2.74 8.375-3.986 2.766-1.246 5.503-2.384 8.205-3.345a68.01 68.01 0 0 1 4.025-1.301 52.038 52.038 0 0 1 3.967-.98 45.139 45.139 0 0 1 7.75-.894 45.654 45.654 0 0 1 3.79.054c1.254.07 2.5.189 3.737.355 1.238.167 2.468.38 3.69.636 1.223.255 2.438.553 3.646.89a64.216 64.216 0 0 1 3.64 1.137z"/><path fill="url(#v)" d="M112.445 41.81v21.849c.232.065.448.139.687.201a119.44 119.44 0 0 0 8.403 1.897c1.434.268 2.882.507 4.337.713a88.04 88.04 0 0 0 4.388.51 76.4 76.4 0 0 0 4.405.27c1.468.048 2.934.049 4.392-.001a57.55 57.55 0 0 0 4.349-.309 50.694 50.694 0 0 0 4.273-.65c1.408-.278 2.8-.618 4.167-1.027a40.304 40.304 0 0 0 4.031-1.439 41.247 41.247 0 0 0 3.87-1.87 48.55 48.55 0 0 0 3.718-2.264 58.966 58.966 0 0 0 3.582-2.61 73.551 73.551 0 0 0 3.46-2.901 94.402 94.402 0 0 0 3.359-3.145 125.577 125.577 0 0 0 3.268-3.336c.757-.8 1.48-1.654 2.226-2.474-2.254 1.083-4.511 2.165-6.778 3.152a125.62 125.62 0 0 1-4.315 1.787 94.383 94.383 0 0 1-4.321 1.577 73.527 73.527 0 0 1-4.323 1.311c-1.44.388-2.88.723-4.318.996a48.542 48.542 0 0 1-4.308.626 41.25 41.25 0 0 1-4.294.202 40.305 40.305 0 0 1-4.27-.257 44.81 44.81 0 0 1-4.238-.69 50.688 50.688 0 0 1-4.186-1.077 57.959 57.959 0 0 1-4.121-1.42 66.528 66.528 0 0 1-4.04-1.722 76.408 76.408 0 0 1-3.947-1.977 87.431 87.431 0 0 1-3.836-2.189 99.549 99.549 0 0 1-3.71-2.357c-.664-.441-1.272-.918-1.91-1.377z"/><path fill="url(#w)" d="M112.445 11.37v30.44c.638.458 1.246.935 1.91 1.377a99.562 99.562 0 0 0 3.71 2.357 87.43 87.43 0 0 0 3.836 2.189 76.408 76.408 0 0 0 3.946 1.977 66.528 66.528 0 0 0 4.041 1.72 57.959 57.959 0 0 0 4.121 1.421c1.386.42 2.782.781 4.186 1.078a44.81 44.81 0 0 0 4.237.69c1.42.16 2.843.247 4.271.256 1.428.01 2.86-.06 4.294-.202 1.434-.14 2.87-.352 4.308-.625a58.97 58.97 0 0 0 4.318-.996 73.571 73.571 0 0 0 4.323-1.312 94.37 94.37 0 0 0 4.32-1.577c1.44-.563 2.88-1.162 4.316-1.787 2.161-.94 4.313-1.973 6.462-3.004-1.003.035-1.998.075-3.003.105-3.17.094-6.34.15-9.474.107a125.464 125.464 0 0 1-4.669-.145 94.41 94.41 0 0 1-4.587-.341 73.57 73.57 0 0 1-4.48-.582 58.968 58.968 0 0 1-4.345-.868 48.53 48.53 0 0 1-4.183-1.202 41.257 41.257 0 0 1-3.997-1.582 40.288 40.288 0 0 1-3.788-1.992 44.798 44.798 0 0 1-3.578-2.37 50.703 50.703 0 0 1-3.372-2.705 57.95 57.95 0 0 1-3.172-2.99 66.578 66.578 0 0 1-2.976-3.231 76.369 76.369 0 0 1-2.783-3.425 87.446 87.446 0 0 1-2.596-3.573 99.559 99.559 0 0 1-2.413-3.675c-1.148-1.832-2.164-3.685-3.183-5.533z"/><path fill="url(#x)" d="M240.504 6.587v-.334H112.445v5.117c1.02 1.848 2.035 3.7 3.183 5.533a99.559 99.559 0 0 0 2.413 3.675c.835 1.21 1.7 2.404 2.596 3.573a76.369 76.369 0 0 0 2.783 3.425 66.578 66.578 0 0 0 2.976 3.231 57.95 57.95 0 0 0 3.172 2.99 50.703 50.703 0 0 0 3.372 2.705 44.798 44.798 0 0 0 3.578 2.37c1.228.73 2.49 1.396 3.788 1.992a41.257 41.257 0 0 0 3.997 1.582c1.365.461 2.76.859 4.183 1.202 1.423.342 2.873.63 4.346.868 1.472.24 2.967.43 4.48.582a94.36 94.36 0 0 0 4.586.34c1.544.08 3.102.125 4.669.146 3.133.043 6.303-.013 9.474-.107 1.005-.03 2-.07 3.003-.105.105-.05.211-.097.316-.147 1.377-1.515 2.763-3.016 4.111-4.571 2.078-2.397 4.13-4.82 6.176-7.201 2.046-2.382 4.086-4.721 6.141-6.951 2.056-2.23 4.128-4.352 6.236-6.295a68.457 68.457 0 0 1 3.194-2.774 52.041 52.041 0 0 1 3.264-2.458 45.147 45.147 0 0 1 6.78-3.86 45.652 45.652 0 0 1 3.507-1.438 47.921 47.921 0 0 1 3.577-1.138 51.67 51.67 0 0 1 3.644-.862 56.995 56.995 0 0 1 3.703-.61 64.216 64.216 0 0 1 3.759-.381 73.698 73.698 0 0 1 3.807-.174c1.07-.022 2.162.044 3.245.075z"/><path fill="url(#y)" d="M177.614 86.638h19.75a44.654 44.654 0 0 0-.494-3.573 45.136 45.136 0 0 0-.879-3.855 52.028 52.028 0 0 0-1.242-3.893 68.478 68.478 0 0 0-1.566-3.93c-1.139-2.631-2.457-5.287-3.883-7.963-1.427-2.677-2.962-5.375-4.535-8.092-1.572-2.717-3.182-5.453-4.758-8.206-.333-.582-.634-1.172-.963-1.754l-.149-.117c.214 2.092.43 4.189.639 6.26.316 3.124.605 6.214.804 9.24.2 3.027.31 5.99.264 8.858a68.47 68.47 0 0 1-.19 4.225 52.056 52.056 0 0 1-.468 4.06 45.135 45.135 0 0 1-1.875 7.572c-.136.399-.303.779-.455 1.168z"/><path fill="url(#z)" d="M197.364 86.638h21.395c-.085-.271-.158-.547-.252-.815a47.935 47.935 0 0 0-1.374-3.495 44.726 44.726 0 0 0-5.97-9.911 52.03 52.03 0 0 0-2.668-3.094 68.478 68.478 0 0 0-2.981-3.002c-2.08-1.974-4.334-3.9-6.696-5.803s-4.832-3.782-7.344-5.665c-2.512-1.883-5.066-3.769-7.596-5.683-1.64-1.242-3.231-2.525-4.834-3.798.33.582.63 1.172.963 1.754 1.576 2.753 3.186 5.489 4.758 8.206 1.573 2.717 3.108 5.415 4.535 8.092 1.426 2.676 2.744 5.332 3.883 7.964a68.478 68.478 0 0 1 1.566 3.93c.47 1.303.888 2.6 1.242 3.892.355 1.291.646 2.576.879 3.855a44.65 44.65 0 0 1 .494 3.573z"/></g><path fill="#230c44" fill-opacity=".598" d="M78.819 15.21H12.432v39.185a2.48 2.48 0 0 0 2.486 2.486h61.415a2.48 2.48 0 0 0 2.486-2.486z"/><g transform="translate(-122.19 18.577) scale(.5184)"><path fill="#3c1c6e" d="M259.686-13.961v8.484h128.059v-8.484a4.783 4.783 0 0 0-4.794-4.794H264.48a4.784 4.784 0 0 0-4.795 4.794z"/><path fill="#a8cbfe" d="M367.137-13.067h2.289v.465h-2.289zm12.893-.593 2.671 2.67-.329.33-2.671-2.672z"/><path fill="#a8cbfe" d="m382.372-13.66-2.672 2.67.329.33 2.671-2.672zm-15.235 2.71h2.289v.465h-2.289zm2.754-2.117v2.582h-.465v-2.582zm-2.754 0v2.582h-.465v-2.582zm-13.707 1.088h3.303v.465h-3.303zm-13.126-1.287h2.546v.465h-2.546zm-.051 1.172h3.303v.465h-3.303zm0 1.172h3.303v.465h-3.303z"/><rect width="9.427" height="9.399" x="321.408" y="-16.829" fill="#5c2ba8" ry="2.33"/><path fill="#a8cbfe" d="M324.47-12.363h3.303v.465h-3.303z"/><path fill="#a8cbfe" d="M326.354-13.782v3.303h-.465v-3.303z"/><rect width="38.816" height="9.399" x="278.26" y="-16.829" fill="#5c2ba8" ry="2.33"/><rect width="9.427" height="8.112" x="264.298" y="-16.172" fill="url(#A)" ry="2.011"/><path fill="#fff" d="m266.84-13.475-1.004 1.003.33.33 1.003-1.004zm.329-.329-1.004-1.004-.329.33 1.004 1.003z"/><path fill="#fff" d="m267.169-13.804-.33.329.33.328.328-.329zm.652 2.024h2.546v.465h-2.546z"/></g><g fill="#a8cbfe" stroke-width=".29" aria-label="&quot;We do, we change&quot; Deepin" font-family="sans-serif" font-size="11.583" font-weight="400" letter-spacing="0" style="line-height:1.25" word-spacing="0"><path fill="url(#B)" d="m52.496 66.625.455 7.08h1.563l.465-7.08h-2.483zm4.977 0 .443 7.08h1.572l.467-7.08h-2.482zm55.949 0v4.996c.008.163.012.337.012.522v.51c.007.154.011.251.011.288h-.023c-.362-.724-.846-1.244-1.451-1.562-.599-.318-1.345-.477-2.239-.477-2.896 0-4.343 2.09-4.343 6.272 0 2.068.35 3.616 1.052 4.642.702 1.027 1.8 1.541 3.291 1.541.894 0 1.64-.174 2.239-.521.598-.355 1.08-.92 1.441-1.695h.053a39.823 39.823 0 0 0 .033 1.209c.015.184.03.343.045.476.014.133.025.213.033.242h1.906a7.36 7.36 0 0 1-.021-.332c-.007-.162-.016-.354-.023-.576l-.022-.73V66.625h-1.994zm101.351 0 .002 16.443h1.995v-6.947c0-.598.081-1.126.244-1.584a3.35 3.35 0 0 1 .664-1.164 2.86 2.86 0 0 1 .998-.72c.384-.17.794-.255 1.23-.255.355 0 .68.045.975.133.295.089.55.248.764.477.221.221.391.524.51.908.125.377.189.86.189 1.451v7.701h2.006V75.08c0-.746-.09-1.386-.268-1.918-.17-.532-.42-.967-.752-1.307a3.038 3.038 0 0 0-1.219-.753c-.48-.163-1.027-.245-1.64-.245-.473 0-.906.056-1.297.166a3.53 3.53 0 0 0-1.031.456 3.51 3.51 0 0 0-.809.709c-.236.28-.444.594-.621.94h-.033l.066-1.064c.022-.376.033-.75.033-1.119v-4.32h-2.006zm69.061 0 .455 7.08h1.563l.464-7.08h-2.482zm4.977 0 .443 7.08h1.572l.467-7.08h-2.482zM63.035 68.119l2.338 14.95h2.305l1.176-4.288c.036-.14.08-.303.132-.488.052-.192.103-.395.155-.61.059-.221.114-.446.166-.675a218.982 218.982 0 0 0 .554-2.317c.126.562.252 1.1.377 1.618.052.221.103.45.155.687.059.23.114.454.166.676l.166.61.134.5 1.153 4.286h2.304l2.327-14.949h-2.094l-1.153 9.254c-.044.399-.088.825-.132 1.275l-.123 1.24c-.037.377-.066.69-.088.942-.022.251-.037.377-.045.377a160.13 160.13 0 0 0-.354-1.518l-.156-.654c-.052-.229-.107-.45-.166-.664a27.48 27.48 0 0 0-.299-1.197l-1.207-4.422h-1.94l-1.208 4.422a98.22 98.22 0 0 1-.31 1.197c-.053.222-.103.447-.155.676l-.156.654c-.119.495-.236.996-.354 1.506-.03-.377-.063-.776-.1-1.197l-.123-1.229a33.405 33.405 0 0 0-.142-1.408l-1.21-9.254h-2.093zm20.445 2.738c-.709 0-1.388.104-2.039.311a4.325 4.325 0 0 0-1.707 1.03c-.495.48-.89 1.113-1.185 1.896-.288.783-.432 1.75-.432 2.902 0 1.042.122 1.958.365 2.748.252.783.61 1.437 1.075 1.961a4.424 4.424 0 0 0 1.707 1.188c.672.266 1.433.398 2.283.398.768 0 1.433-.086 1.994-.256a5.467 5.467 0 0 0 1.43-.664 3.82 3.82 0 0 0 .941-.908c.237-.34.415-.677.533-1.01l-1.752-.498a2.37 2.37 0 0 1-.41.742 2.63 2.63 0 0 1-.685.576 3.796 3.796 0 0 1-.932.39c-.34.088-.713.132-1.12.132-.546 0-1.03-.104-1.45-.31a3.015 3.015 0 0 1-1.043-.887 4.067 4.067 0 0 1-.631-1.364 6.809 6.809 0 0 1-.211-1.74h8.555v-.265c0-.946-.095-1.81-.287-2.592-.185-.783-.488-1.452-.909-2.006a4.224 4.224 0 0 0-1.64-1.309c-.665-.31-1.482-.465-2.45-.465zm40.803 0c-1.714 0-3.04.521-3.978 1.563-.931 1.034-1.397 2.581-1.397 4.642 0 1.057.126 1.977.377 2.76.251.776.607 1.423 1.065 1.94a4.305 4.305 0 0 0 1.671 1.152c.658.251 1.39.377 2.196.377.842 0 1.595-.126 2.26-.377a4.372 4.372 0 0 0 1.707-1.164c.465-.517.82-1.164 1.064-1.94.251-.783.375-1.698.375-2.748 0-2.083-.44-3.637-1.318-4.664-.88-1.026-2.22-1.54-4.022-1.54zm54.453 0a6.68 6.68 0 0 0-2.039.311c-.642.207-1.21.55-1.705 1.03-.495.48-.89 1.113-1.185 1.896-.288.783-.434 1.75-.434 2.902 0 1.042.123 1.958.367 2.748.251.783.609 1.437 1.074 1.961a4.424 4.424 0 0 0 1.707 1.188c.673.266 1.434.398 2.284.398.768 0 1.432-.086 1.994-.256a5.467 5.467 0 0 0 1.43-.664c.391-.273.705-.576.94-.908a4.27 4.27 0 0 0 .532-1.01l-1.75-.498a2.37 2.37 0 0 1-.41.742 2.641 2.641 0 0 1-.687.576 3.781 3.781 0 0 1-.93.39c-.34.088-.713.132-1.12.132-.546 0-1.031-.104-1.452-.31a3.008 3.008 0 0 1-1.041-.887 4.067 4.067 0 0 1-.631-1.364 6.808 6.808 0 0 1-.211-1.74h8.554v-.265c0-.946-.097-1.81-.289-2.592-.184-.783-.487-1.452-.908-2.006a4.224 4.224 0 0 0-1.64-1.309c-.665-.31-1.482-.465-2.45-.465zm27.383 0c-.702 0-1.384.1-2.049.3a4.506 4.506 0 0 0-1.785.997c-.517.473-.934 1.109-1.252 1.907-.317.797-.476 1.797-.476 3.001 0 .887.099 1.71.298 2.471.2.754.518 1.411.954 1.973.443.554 1.017.99 1.718 1.308.71.318 1.57.477 2.582.477.74 0 1.4-.104 1.983-.31a5.12 5.12 0 0 0 1.508-.842c.42-.348.756-.751 1.007-1.21a4.07 4.07 0 0 0 .477-1.429l-2.105-.133c-.126.805-.45 1.404-.975 1.795-.525.392-1.187.588-1.984.588-.628 0-1.16-.106-1.596-.32a2.634 2.634 0 0 1-1.041-.932c-.259-.406-.446-.9-.565-1.484a10.889 10.889 0 0 1-.168-1.996c0-.74.058-1.393.168-1.961.119-.577.306-1.056.565-1.44a2.525 2.525 0 0 1 1.04-.887c.437-.206.973-.31 1.608-.31.872 0 1.545.196 2.018.588.473.384.766.912.885 1.584l2.129-.154a4.339 4.339 0 0 0-.534-1.409 3.97 3.97 0 0 0-1.008-1.13 4.578 4.578 0 0 0-1.462-.764c-.57-.185-1.216-.278-1.94-.278zm26.852 0c-.79 0-1.466.082-2.028.245-.554.155-1.017.376-1.386.664-.37.288-.657.632-.864 1.03-.2.392-.336.825-.41 1.298l2.082.187c.045-.377.135-.688.268-.931.14-.252.317-.446.531-.586.214-.148.468-.247.764-.3.303-.058.64-.089 1.01-.089.413 0 .775.053 1.085.156.31.096.565.25.764.465.207.214.36.495.455.842.104.347.154.769.154 1.264v.654l-2.615.043c-.62.007-1.232.071-1.838.19a4.693 4.693 0 0 0-1.607.597 3.322 3.322 0 0 0-1.152 1.197c-.289.503-.432 1.15-.432 1.94 0 1.108.294 1.98.885 2.615.59.635 1.471.953 2.638.953.547 0 1.03-.06 1.452-.178a3.965 3.965 0 0 0 1.119-.498c.325-.221.614-.488.865-.799.251-.31.479-.656.685-1.04h.067c.022.398.077.75.166 1.052.089.296.219.547.389.754.17.2.388.35.654.453.273.096.598.145.974.145a6.554 6.554 0 0 0 1.542-.178v-1.24c-.104.022-.212.04-.323.054a2.51 2.51 0 0 1-.332.024c-.436 0-.731-.148-.887-.444-.155-.302-.232-.75-.232-1.341V74.89c0-1.308-.373-2.306-1.12-2.993-.738-.694-1.846-1.04-3.323-1.04zm14.793 0c-.488 0-.927.056-1.319.166a3.827 3.827 0 0 0-1.064.456c-.31.192-.586.428-.83.709a4.91 4.91 0 0 0-.621.94h-.034a17.113 17.113 0 0 0-.045-1.186 34.55 34.55 0 0 0-.023-.563 2.777 2.777 0 0 0-.021-.3h-1.883c.007.05.013.166.021.343l.022.642c.008.244.012.507.012.788.007.273.011.535.011.787v9.43h1.996V76.12c0-.598.08-1.126.243-1.584.162-.465.385-.854.666-1.164a2.87 2.87 0 0 1 .996-.72c.384-.17.794-.255 1.23-.255.355 0 .68.045.975.133.295.089.551.248.765.477.222.221.392.524.51.908.126.377.188.86.188 1.451v7.701h2.005V75.08c0-.746-.084-1.386-.253-1.918-.163-.532-.408-.967-.733-1.307a2.868 2.868 0 0 0-1.185-.753c-.473-.163-1.016-.245-1.63-.245zm26.23 0c-.71 0-1.389.104-2.039.311a4.325 4.325 0 0 0-1.707 1.03c-.495.48-.89 1.113-1.185 1.896-.289.783-.432 1.75-.432 2.902 0 1.042.121 1.958.365 2.748.251.783.609 1.437 1.074 1.961a4.424 4.424 0 0 0 1.707 1.188c.673.266 1.434.398 2.284.398.768 0 1.432-.086 1.994-.256a5.467 5.467 0 0 0 1.43-.664c.39-.273.704-.576.94-.908a4.28 4.28 0 0 0 .534-1.01l-1.752-.498a2.37 2.37 0 0 1-.41.742 2.631 2.631 0 0 1-.686.576 3.796 3.796 0 0 1-.931.39c-.34.088-.713.132-1.12.132-.546 0-1.03-.104-1.45-.31a3.015 3.015 0 0 1-1.044-.887 4.067 4.067 0 0 1-.63-1.364 6.808 6.808 0 0 1-.211-1.74h8.554v-.265c0-.946-.095-1.81-.287-2.592-.185-.783-.487-1.452-.908-2.006a4.224 4.224 0 0 0-1.64-1.309c-.666-.31-1.482-.465-2.45-.465zm-14.428.034c-.812 0-1.5.136-2.062.41a3.462 3.462 0 0 0-1.373 1.197c-.347.517-.603 1.15-.766 1.904-.155.754-.232 1.615-.232 2.582 0 .998.077 1.87.232 2.616.163.746.414 1.368.754 1.863.34.495.777.864 1.309 1.107.532.244 1.174.366 1.927.366a4.78 4.78 0 0 0 1.409-.188c.406-.133.76-.307 1.062-.521.31-.215.573-.462.787-.743.222-.28.403-.57.543-.865h.022v2.15c0 .636-.067 1.176-.2 1.62-.125.443-.308.8-.552 1.074-.237.28-.526.484-.865.61-.333.125-.71.187-1.131.187-.68 0-1.23-.15-1.65-.453-.414-.296-.684-.722-.81-1.276l-2.038.278c.096.443.255.847.476 1.209.23.362.525.67.887.93.37.265.804.468 1.307.609.51.14 1.096.21 1.761.21h.002c1.633 0 2.84-.423 3.623-1.273.783-.842 1.174-2.102 1.174-3.78v-9.983a71.827 71.827 0 0 1 .045-1.31c.007-.162.014-.276.022-.343h-1.895c-.007.022-.02.108-.043.256-.015.148-.03.324-.045.531-.007.2-.018.414-.033.643-.008.229-.012.436-.012.62h-.033c-.332-.716-.81-1.265-1.43-1.65-.613-.391-1.337-.587-2.172-.587zm-101.04.187 2.027 11.99h2.25l1.638-5.173c.074-.23.15-.474.223-.733.074-.266.145-.513.211-.742.081-.266.154-.535.22-.809.067.274.142.547.223.82.067.237.135.484.21.743l.199.676 1.585 5.218h2.26l2.106-11.99h-1.95l-1.119 6.727c-.022.184-.055.436-.1.754-.044.317-.088.653-.132 1.007-.044.348-.082.687-.111 1.02a9.75 9.75 0 0 0-.045.832 29.704 29.704 0 0 0-.443-1.74 14.885 14.885 0 0 0-.167-.621l-1.441-4.71h-2.139l-1.496 4.7a9.752 9.752 0 0 0-.187.63c-.074.267-.145.53-.211.788-.082.303-.163.62-.244.953 0-.214-.014-.492-.043-.832-.03-.34-.067-.686-.112-1.041a26.519 26.519 0 0 0-.123-.998 91.76 91.76 0 0 0-.088-.742l-1.03-6.727h-1.972zm-75.024 1.254c.399 0 .78.058 1.143.176.362.118.682.319.962.6.289.28.529.653.721 1.119.192.465.318 1.043.377 1.738h-6.47c.022-.724.139-1.318.353-1.783.222-.473.49-.846.808-1.12a2.68 2.68 0 0 1 1.032-.564c.377-.11.734-.166 1.074-.166zm40.814 0c.473 0 .906.073 1.297.22.392.141.727.393 1.008.755.288.362.509.845.664 1.45.163.607.244 1.375.244 2.305 0 .931-.084 1.704-.254 2.317-.162.613-.392 1.1-.687 1.463a2.4 2.4 0 0 1-1.065.763c-.406.14-.85.211-1.33.211-.42 0-.827-.073-1.218-.22a2.453 2.453 0 0 1-1.02-.766c-.288-.362-.52-.845-.697-1.451-.17-.613-.256-1.386-.256-2.317 0-.908.082-1.665.244-2.271.17-.606.4-1.09.688-1.451.295-.37.646-.628 1.052-.776a3.7 3.7 0 0 1 1.33-.232zm54.444 0c.399 0 .778.058 1.14.176.362.118.684.319.965.6.288.28.529.653.72 1.119.193.465.319 1.043.378 1.738h-6.473c.022-.724.141-1.318.356-1.783.221-.473.49-.846.808-1.12.318-.273.66-.46 1.03-.564.376-.11.736-.166 1.076-.166zm95.256 0c.399 0 .78.058 1.142.176.362.118.682.319.963.6.288.28.529.653.72 1.119.193.465.319 1.043.378 1.738h-6.471c.022-.724.14-1.318.354-1.783.221-.473.49-.846.808-1.12a2.68 2.68 0 0 1 1.031-.564 3.84 3.84 0 0 1 1.075-.166zm-163.74.043c.51 0 .96.077 1.35.232.392.156.721.411.987.766.266.355.467.823.6 1.406.14.577.209 1.294.209 2.15 0 .887-.069 1.642-.21 2.262-.132.621-.335 1.126-.608 1.518-.266.384-.6.664-.999.842-.391.177-.841.265-1.351.265-.495 0-.92-.088-1.275-.265a2.202 2.202 0 0 1-.875-.854c-.222-.384-.388-.872-.499-1.463-.103-.59-.156-1.3-.156-2.127 0-.857.06-1.585.178-2.183.118-.606.292-1.096.521-1.473.237-.377.533-.65.887-.82.355-.17.768-.256 1.24-.256zm149.788 0c.392 0 .772.082 1.141.244.377.163.71.43.998.799.296.362.532.834.71 1.418.176.584.265 1.292.265 2.127 0 .827-.091 1.53-.276 2.105-.177.57-.415 1.03-.71 1.385a2.712 2.712 0 0 1-1.008.777 3 3 0 0 1-1.153.233c-.487 0-.911-.07-1.273-.211a1.99 1.99 0 0 1-.887-.742c-.229-.347-.399-.809-.51-1.385-.11-.576-.166-1.298-.166-2.162 0-.835.056-1.541.166-2.117.111-.584.283-1.056.52-1.418.236-.37.536-.635.898-.797.362-.17.79-.256 1.285-.256zm-24.668 4.777v.987c0 .391-.072.8-.22 1.228a3.61 3.61 0 0 1-.676 1.176c-.296.355-.668.65-1.12.887-.45.229-.982.343-1.595.343-.635 0-1.12-.185-1.453-.554-.325-.37-.486-.857-.486-1.463 0-.562.103-1.01.31-1.342.207-.34.472-.598.797-.775a3.195 3.195 0 0 1 1.11-.344 9.972 9.972 0 0 1 1.228-.1l2.105-.043zm-99.578 2.604-1.873 7.336h1.364l3.447-7.336h-2.938zm141.696 15.693v1.649h1.716v-1.649h-1.716zm-45.48 1.16v11.586h3.177c.802 0 1.517-.125 2.146-.377a4.193 4.193 0 0 0 1.608-1.134c.435-.499.767-1.113.996-1.846.229-.739.344-1.59.344-2.553 0-.985-.123-1.835-.37-2.55-.24-.716-.598-1.306-1.074-1.77-.475-.464-1.063-.804-1.761-1.022-.693-.223-1.492-.334-2.397-.334h-2.67zm1.64 1.34h1.039c.67 0 1.252.082 1.744.248.492.16.9.415 1.227.764.326.344.57.792.73 1.342.16.55.24 1.21.24 1.982 0 1.523-.295 2.666-.884 3.428-.59.761-1.492 1.142-2.706 1.142h-1.39V97.95zm34.607.764a4.12 4.12 0 0 0-.96.103 2.433 2.433 0 0 0-.774.309 2.472 2.472 0 0 0-.62.533 3.856 3.856 0 0 0-.48.772h-.033c0-.15-.006-.309-.018-.48a10.185 10.185 0 0 0-.027-.481 5.12 5.12 0 0 0-.025-.38 1.044 1.044 0 0 0-.018-.187h-1.504c.005.052.011.138.018.258l.017.438c.007.166.01.354.01.566.007.212.01.433.01.662v11.02h1.555v-3.633c0-.166-.004-.332-.01-.498 0-.166-.003-.316-.01-.447 0-.132-.003-.24-.01-.327a.589.589 0 0 0-.01-.154h.044a2.7 2.7 0 0 0 .482.73c.195.201.414.363.66.489.246.126.513.218.799.275.286.058.587.086.902.086.63 0 1.16-.12 1.59-.361.43-.246.776-.584 1.04-1.014.263-.43.451-.941.566-1.537.114-.595.171-1.245.171-1.95h.002c0-.715-.057-1.368-.171-1.958-.115-.59-.303-1.094-.567-1.512a2.705 2.705 0 0 0-1.039-.978c-.43-.23-.96-.344-1.59-.344zm-21.793.017c-.55 0-1.076.08-1.58.24a3.356 3.356 0 0 0-1.322.8c-.384.372-.69.861-.92 1.468-.223.607-.334 1.357-.334 2.25 0 .808.094 1.518.283 2.131.195.607.472 1.113.832 1.52a3.45 3.45 0 0 0 1.324.92c.522.206 1.11.308 1.768.308.596 0 1.112-.065 1.547-.197a4.23 4.23 0 0 0 1.107-.516 2.93 2.93 0 0 0 .73-.705c.184-.263.321-.523.413-.781l-1.357-.387a1.837 1.837 0 0 1-.317.576 2.05 2.05 0 0 1-.533.448 2.928 2.928 0 0 1-.72.299 3.445 3.445 0 0 1-.87.103 2.52 2.52 0 0 1-1.125-.24 2.332 2.332 0 0 1-.807-.688 3.154 3.154 0 0 1-.49-1.056 5.269 5.269 0 0 1-.162-1.348h6.63v-.207c0-.733-.075-1.403-.224-2.01-.143-.607-.376-1.125-.703-1.554a3.272 3.272 0 0 0-1.271-1.014c-.516-.24-1.149-.36-1.899-.36zm10.547 0c-.55 0-1.076.08-1.58.24a3.349 3.349 0 0 0-1.322.8c-.384.372-.691.861-.92 1.468-.223.607-.334 1.357-.334 2.25 0 .808.094 1.518.283 2.131.195.607.473 1.113.834 1.52.36.406.801.713 1.322.92.521.206 1.111.308 1.77.308.595 0 1.11-.065 1.545-.197.435-.138.806-.31 1.11-.516.303-.212.546-.447.73-.705.183-.263.32-.523.412-.781l-1.358-.387a1.843 1.843 0 0 1-.318.576 2.05 2.05 0 0 1-.533.448 2.927 2.927 0 0 1-.72.299 3.43 3.43 0 0 1-.868.103 2.52 2.52 0 0 1-1.125-.24 2.338 2.338 0 0 1-.809-.688 3.151 3.151 0 0 1-.488-1.056 5.267 5.267 0 0 1-.164-1.348h6.63v-.207c0-.733-.073-1.403-.222-2.01-.143-.607-.379-1.125-.705-1.554a3.272 3.272 0 0 0-1.271-1.014c-.516-.24-1.149-.36-1.899-.36zm32.406 0c-.378 0-.718.043-1.021.13a2.96 2.96 0 0 0-.824.35 2.84 2.84 0 0 0-.645.55 3.838 3.838 0 0 0-.48.73h-.026c0-.114-.003-.254-.01-.42a12.037 12.037 0 0 0-.027-.498 21.968 21.968 0 0 0-.017-.44 1.845 1.845 0 0 0-.018-.23h-1.459c.005.04.011.129.018.266l.017.498c.007.189.01.392.01.61.007.211.01.416.01.61v7.31h1.545v-5.385c0-.464.063-.874.19-1.229.125-.36.297-.662.515-.902.223-.247.481-.433.773-.559.298-.132.615-.197.953-.197.275 0 .527.035.756.103.23.07.426.192.592.37.172.171.305.407.396.705.098.292.145.666.145 1.125v5.968h1.555v-6.193c0-.578-.066-1.074-.198-1.486a2.486 2.486 0 0 0-.568-1.012 2.223 2.223 0 0 0-.918-.586 3.886 3.886 0 0 0-1.264-.188zm-14.496.172v1.22h2.739v6.855h-3.623v1.218h8.433v-1.218h-3.264v-8.075h-4.285zm-28.44.971c.31 0 .605.045.886.137.28.091.528.245.746.463.223.217.41.508.558.869.15.36.248.81.293 1.347h-5.015c.017-.56.107-1.022.273-1.382.172-.367.38-.656.627-.868.246-.211.513-.357.799-.437a2.96 2.96 0 0 1 .834-.129zm10.548 0c.309 0 .604.045.885.137.28.091.53.245.748.463.223.217.41.508.558.869.149.36.245.81.291 1.347h-5.015c.017-.56.109-1.022.275-1.382.172-.367.38-.656.627-.868.246-.211.512-.357.799-.437a2.94 2.94 0 0 1 .832-.129zm10.822.033c.418 0 .764.08 1.04.24.28.16.503.396.669.706.172.303.293.678.361 1.125.069.446.104.956.104 1.529 0 .595-.037 1.124-.111 1.588-.07.464-.19.855-.362 1.17-.166.315-.39.554-.67.72-.28.16-.629.24-1.047.24-.389 0-.737-.059-1.04-.18a1.75 1.75 0 0 1-.764-.593c-.206-.28-.364-.643-.473-1.09-.103-.452-.154-1.007-.154-1.666 0-.773.063-1.406.19-1.898.13-.493.305-.878.523-1.152.223-.281.483-.472.78-.575.299-.108.616-.164.954-.164z" font-family="Liberation Mono" style="-inkscape-font-specification:&quot;Liberation Mono&quot;;text-align:end" text-anchor="end" transform="scale(.2646)"/><path fill="url(#C)" d="M95.344 33.572v73.135h121.839V89.538c-.253-.31-.49-.644-.745-.951a83.751 83.751 0 0 0-4.643-5.15 66.13 66.13 0 0 0-2.458-2.374 57.863 57.863 0 0 0-2.567-2.22 51.623 51.623 0 0 0-2.687-2.046 47.046 47.046 0 0 0-2.819-1.855 43.86 43.86 0 0 0-2.963-1.648 41.343 41.343 0 0 0-9.871-3.524 48.44 48.44 0 0 0-3.653-.652 63.787 63.787 0 0 0-3.819-.417c-2.597-.208-5.29-.286-8.047-.288-2.756-.002-5.575.071-8.426.166-1.89.063-3.805.13-5.714.196l.114-.125a243.257 243.257 0 0 1-4.672 2.144 236.811 236.811 0 0 0 4.385-2.014c-.912.032-1.816.067-2.728.093-2.882.083-5.762.133-8.61.095a117.14 117.14 0 0 1-4.242-.128 87.934 87.934 0 0 1-4.168-.302 68.608 68.608 0 0 1-4.07-.515 54.853 54.853 0 0 1-3.95-.769 45.004 45.004 0 0 1-3.8-1.063 38.086 38.086 0 0 1-3.633-1.4 36.958 36.958 0 0 1-3.441-1.763 40.818 40.818 0 0 1-3.252-2.098 45.888 45.888 0 0 1-3.064-2.393 52.109 52.109 0 0 1-2.882-2.647 59.546 59.546 0 0 1-2.704-2.86 67.982 67.982 0 0 1-2.53-3.03 77.504 77.504 0 0 1-2.358-3.163 87.897 87.897 0 0 1-2.193-3.252 105.018 105.018 0 0 1-3.903-6.61c-.628-1.155-1.154-2.267-1.726-3.403z" transform="translate(-49.427 6.595) scale(.5184)"/><path fill="url(#D)" d="M95.344 36.067v70.64H215.95V90.124c-.25-.3-.484-.623-.737-.92a81.626 81.626 0 0 0-4.596-4.973 64.782 64.782 0 0 0-2.434-2.293 56.918 56.918 0 0 0-2.541-2.144 50.996 50.996 0 0 0-2.66-1.977 46.693 46.693 0 0 0-2.79-1.792 43.752 43.752 0 0 0-2.933-1.591 42.075 42.075 0 0 0-6.34-2.515 42.288 42.288 0 0 0-3.431-.889 49.03 49.03 0 0 0-3.616-.63 64.657 64.657 0 0 0-3.78-.403c-2.571-.2-5.238-.276-7.966-.278-2.728-.002-5.519.07-8.341.16l-5.656.19.113-.12a243.65 243.65 0 0 1-4.626 2.07c1.45-.627 2.897-1.286 4.342-1.945-.903.03-1.798.064-2.701.09-2.853.08-5.704.128-8.523.092a118.81 118.81 0 0 1-4.2-.125 89.16 89.16 0 0 1-4.125-.291 69.524 69.524 0 0 1-4.03-.497 55.5 55.5 0 0 1-3.908-.743 45.414 45.414 0 0 1-3.763-1.027 36.936 36.936 0 0 1-7.002-3.055 40.538 40.538 0 0 1-3.219-2.026 45.289 45.289 0 0 1-3.033-2.312 51.133 51.133 0 0 1-2.853-2.556 58.127 58.127 0 0 1-2.677-2.763 66.062 66.062 0 0 1-2.503-2.927c-.806-1-1.585-2.02-2.335-3.055a84.813 84.813 0 0 1-2.171-3.14 100.925 100.925 0 0 1-3.863-6.385c-.622-1.116-1.142-2.19-1.71-3.287zm67.622 38.007c.66 0 1.284.073 1.873.218.601.146 1.225.353 1.873.621l-.866 1.982a15.35 15.35 0 0 0-1.555-.52 5.435 5.435 0 0 0-1.413-.185c-.507 0-.896.111-1.166.335a1.08 1.08 0 0 0-.407.874c0 .425.2.76.6 1.007.401.246.996.55 1.786.907.647.291 1.195.593 1.643.907.46.313.812.683 1.06 1.109.247.425.371.951.371 1.578 0 1.064-.406 1.915-1.22 2.553-.8.627-1.943.94-3.427.94-1.331 0-2.521-.24-3.57-.722V83.31c.601.247 1.22.476 1.856.689.648.201 1.29.302 1.925.302.66 0 1.125-.118 1.396-.353.283-.246.425-.554.425-.924 0-.302-.112-.56-.336-.772-.212-.213-.5-.408-.866-.587-.365-.19-.783-.392-1.255-.605a19.496 19.496 0 0 1-.954-.47 6.24 6.24 0 0 1-.989-.689 3.52 3.52 0 0 1-.76-1.008c-.2-.392-.3-.861-.3-1.41 0-1.075.382-1.91 1.148-2.503.766-.604 1.808-.906 3.128-.906zm19.638 0c.66 0 1.284.073 1.873.218.6.146 1.225.353 1.873.621l-.866 1.982a15.35 15.35 0 0 0-1.555-.52 5.44 5.44 0 0 0-1.414-.185c-.507 0-.895.111-1.166.335a1.08 1.08 0 0 0-.407.874c0 .425.201.76.602 1.007.4.246.995.55 1.784.907.648.291 1.196.593 1.644.907.46.313.812.683 1.06 1.109.247.425.37.951.37 1.578 0 1.064-.406 1.915-1.219 2.553-.8.627-1.943.94-3.428.94-1.33 0-2.52-.24-3.569-.722V83.31c.601.247 1.22.476 1.856.689.648.201 1.29.302 1.926.302.66 0 1.125-.118 1.395-.353.283-.246.424-.554.424-.924 0-.302-.111-.56-.335-.772-.212-.213-.5-.408-.866-.587-.365-.19-.783-.392-1.255-.605a19.5 19.5 0 0 1-.953-.47 6.245 6.245 0 0 1-.99-.689 3.52 3.52 0 0 1-.76-1.008c-.2-.392-.3-.861-.3-1.41 0-1.075.382-1.91 1.148-2.503.766-.604 1.808-.906 3.128-.906zm-32.599.117h3.27l4.47 12.042h-2.88l-.919-2.855h-4.595l-.918 2.855h-2.88zm-24.226.05h7.228v2.083h-4.595v3.09h4.276v2.083h-4.276v4.736h-2.633zm9.698 0h3.676c1.72 0 2.986.297 3.799.89.824.594 1.237 1.495 1.237 2.704 0 .549-.112 1.03-.336 1.444-.212.404-.5.75-.866 1.042a5.13 5.13 0 0 1-1.148.689l3.71 5.223h-2.968l-3.004-4.602h-1.432v4.602h-2.668zm33.581 0h7.263v2.083h-4.594v2.637h4.276v2.082h-4.276v3.09h4.594v2.1h-7.263zm-17.41 1.815c-.058.223-.14.503-.247.839-.094.325-.188.638-.282.94a8.266 8.266 0 0 1-.195.622l-.901 2.788h3.287l-.92-2.788a62.35 62.35 0 0 0-.229-.722 84.366 84.366 0 0 1-.283-.89 21.24 21.24 0 0 1-.23-.79zm-13.503.268v3.242h.866c.884 0 1.514-.14 1.891-.42.389-.28.583-.695.583-1.244 0-.57-.206-.974-.618-1.209-.4-.246-1.037-.369-1.909-.369zm-7.591 10.177h2.95v.167c-.164.157-.383.348-.654.572-.27.224-.565.46-.883.705a23.74 23.74 0 0 1-.92.705c-.294.213-.552.392-.776.538h-1.75v-.219l.654-.738c.26-.291.512-.588.76-.89.247-.314.454-.594.619-.84zm-10.068 3.526c.625 0 1.249.08 1.873.236a9.852 9.852 0 0 1 1.82.604l-.865 2.066a13.92 13.92 0 0 0-1.432-.555 4.403 4.403 0 0 0-1.396-.234c-1.025 0-1.808.364-2.35 1.091-.542.728-.813 1.724-.813 2.99 0 1.276.247 2.266.742 2.972.507.694 1.314 1.041 2.421 1.041.519 0 1.03-.056 1.537-.168a15.803 15.803 0 0 0 1.679-.47v2.133a9.346 9.346 0 0 1-1.643.47c-.542.1-1.148.15-1.82.15-1.296 0-2.368-.25-3.216-.755a4.641 4.641 0 0 1-1.856-2.149c-.4-.93-.6-2.01-.6-3.241 0-1.21.23-2.28.689-3.208a5.17 5.17 0 0 1 1.996-2.183c.884-.526 1.962-.79 3.234-.79zm72.765 0c.66 0 1.284.073 1.873.219.6.145 1.225.353 1.873.621l-.866 1.982a15.373 15.373 0 0 0-1.555-.52 5.434 5.434 0 0 0-1.413-.185c-.507 0-.896.111-1.167.335a1.08 1.08 0 0 0-.406.874c0 .425.2.76.6 1.007.401.246.996.55 1.785.907a9.99 9.99 0 0 1 1.643.907c.46.313.814.683 1.061 1.108.248.426.371.952.371 1.579 0 1.064-.406 1.914-1.22 2.552-.8.627-1.943.94-3.427.94-1.331 0-2.522-.24-3.57-.721v-2.368c.6.246 1.22.476 1.855.689.648.201 1.29.302 1.927.302.66 0 1.125-.118 1.396-.353.283-.246.424-.554.424-.924 0-.302-.112-.56-.336-.772-.212-.213-.5-.409-.866-.588a24.9 24.9 0 0 0-1.254-.605c-.295-.134-.613-.29-.955-.47a6.243 6.243 0 0 1-.99-.688 3.518 3.518 0 0 1-.759-1.008c-.2-.392-.3-.862-.3-1.41 0-1.075.383-1.91 1.148-2.503.766-.604 1.809-.907 3.128-.907zm-66.868.169h7.263v2.082h-4.595v2.636h4.277v2.083h-4.277v3.09h4.595v2.099h-7.263zm9.905 0h2.669v9.89h5.124v2.1h-7.793zm9.975 0h7.262v2.082h-4.594v2.636h4.276v2.083h-4.276v3.09h4.594v2.099h-7.262zm9.905 0h3.923c1.685 0 2.956.224 3.816.671.86.448 1.29 1.238 1.29 2.368 0 .683-.17 1.26-.512 1.73-.33.47-.807.756-1.431.856v.084c.424.078.807.219 1.148.42.342.202.613.493.813.874.2.38.3.884.3 1.51 0 1.087-.412 1.937-1.236 2.553-.825.616-1.956.924-3.393.924h-4.718zm11.872 0h3.676c1.72 0 2.986.296 3.8.89.824.593 1.236 1.494 1.236 2.703 0 .549-.112 1.03-.336 1.444-.212.404-.5.75-.866 1.042-.353.28-.736.509-1.149.688l3.711 5.223h-2.968l-3.005-4.601h-1.43v4.6h-2.669zm11.666 0h7.262v2.082h-4.594v2.636h4.276v2.083h-4.276v3.09h4.594v2.099h-7.262zm-20.87 2.082v2.67h1.555c.778 0 1.313-.118 1.608-.353.306-.235.46-.576.46-1.024 0-.459-.177-.79-.53-.99-.354-.202-.914-.303-1.68-.303zm11.873 0v3.24h.866c.883 0 1.513-.139 1.89-.419.389-.28.583-.694.583-1.243 0-.57-.206-.974-.618-1.209-.4-.246-1.037-.37-1.909-.37zm-11.873 4.685v3.124h1.75c.8 0 1.36-.146 1.678-.437.318-.302.477-.7.477-1.192 0-.448-.165-.806-.494-1.075-.318-.28-.901-.42-1.75-.42z" transform="translate(-49.427 6.595) scale(.5184)"/></g></svg>