<svg xmlns="http://www.w3.org/2000/svg" xmlns:xlink="http://www.w3.org/1999/xlink" width="324" height="234"><defs><linearGradient id="l"><stop offset="0" stop-color="#1c3f54"/><stop offset="1" stop-color="#0e1f29"/></linearGradient><linearGradient id="k"><stop offset="0" stop-color="#dedede"/><stop offset="1" stop-color="#c1c1c1"/></linearGradient><linearGradient id="j"><stop offset="0" stop-color="#0090c1" stop-opacity="0"/><stop offset="1" stop-color="#0078a1"/></linearGradient><linearGradient id="i"><stop offset="0" stop-color="#0090c1"/><stop offset="1" stop-color="#0090c1" stop-opacity="0"/></linearGradient><linearGradient id="h"><stop offset="0" stop-color="#0078a1"/><stop offset="1" stop-color="#0090c1"/></linearGradient><linearGradient id="g"><stop offset="0" stop-color="#00b4f2"/><stop offset="1" stop-color="#3eceff"/></linearGradient><linearGradient id="f"><stop offset="0" stop-color="#004860"/><stop offset="1" stop-color="#002937"/></linearGradient><linearGradient id="e"><stop offset="0" stop-color="#0099ce"/><stop offset="1" stop-color="#37cbff"/></linearGradient><linearGradient id="d"><stop offset="0" stop-color="#fff"/><stop offset="1" stop-color="#d3d3d3"/></linearGradient><linearGradient id="c"><stop offset="0" stop-color="#0097e2"/><stop offset="1" stop-color="#0073ac"/></linearGradient><linearGradient id="b"><stop offset="0" stop-color="#0097e2"/><stop offset="1" stop-color="#9fdfff" stop-opacity=".65"/></linearGradient><linearGradient xlink:href="#b" id="u" x1="241.55" x2="346.19" y1="327.16" y2="327.16" gradientUnits="userSpaceOnUse"/><linearGradient xlink:href="#c" id="w" x1="-152.85" x2="-48.21" y1="170.11" y2="274.74" gradientUnits="userSpaceOnUse"/><linearGradient xlink:href="#b" id="v" x1="241.55" x2="346.19" y1="327.16" y2="327.16" gradientUnits="userSpaceOnUse"/><linearGradient xlink:href="#e" id="p" x1="0" x2="250.4" y1="1.82" y2="175.4" gradientUnits="userSpaceOnUse"/><linearGradient xlink:href="#f" id="o" x1="223.15" x2="324" y1="144.48" y2="234" gradientUnits="userSpaceOnUse"/><linearGradient xlink:href="#g" id="m" x1="0" x2="324" y1="234" y2="0" gradientUnits="userSpaceOnUse"/><linearGradient xlink:href="#h" id="n" x1="0" x2="324" y1="234" y2="0" gradientUnits="userSpaceOnUse"/><linearGradient xlink:href="#i" id="q" x1="0" x2="324" y1="31.04" y2="31.04" gradientUnits="userSpaceOnUse"/><linearGradient xlink:href="#d" id="r" x1="343.85" x2="479.05" y1="598.18" y2="733.38" gradientTransform="matrix(0 1 1 0 -494.97 -303.65)" gradientUnits="userSpaceOnUse"/><linearGradient xlink:href="#k" id="s" x1="103.21" x2="238.4" y1="107.81" y2="107.81" gradientUnits="userSpaceOnUse"/><linearGradient xlink:href="#l" id="t" x1="85.96" x2="187.62" y1="31.4" y2="31.4" gradientUnits="userSpaceOnUse"/></defs><path fill="url(#m)" d="M0 0v234l56.2-61.82V62.08h211.08L324 0H0z"/><path fill="url(#n)" d="m324 0-56.72 62.09v110.1H56.2L0 234h324V0z"/><path fill="url(#o)" d="M56.2 172.18 324 234 267.28 62.09 56.2 172.19"/><path fill="url(#p)" d="M267.28 62.09-.52.27l56.73 171.91 211.07-110.1"/><path fill="url(#q)" d="m0 .39 267.28 61.7L324 0Z"/><path fill="url(#r)" fill-rule="evenodd" d="M103.2 40.2v84.42c23.7 29.38 34.64 50.33 59.49 50.78H238.4L103.2 40.2z" paint-order="markers fill stroke"/><path fill="url(#s)" fill-rule="evenodd" d="m103.2 40.2 135.2 135.2V99.7c-.45-24.85-21.4-35.79-50.78-59.48H103.2z" paint-order="markers fill stroke"/><path fill="#20475f" fill-rule="evenodd" d="M103.2 40.2 85.97 22.97v59.29c-2.02 22.16 4.41 27.47 17.25 42.37V40.2z" paint-order="markers fill stroke"/><path fill="url(#t)" fill-rule="evenodd" d="M152.82 22.6c-2.3 0-4.8.11-7.57.36H85.96l17.25 17.25h84.4c-13.03-11.24-18.72-17.57-34.8-17.61z" paint-order="markers fill stroke"/><path fill="url(#w)" fill-rule="evenodd" d="M-152.85 170.1v74.44c0 15.23 11.97 27.76 27.65 29.88v.32H-48.2v-76.98h-.32c-2.13-15.68-14.65-27.65-29.89-27.65h-49.52z" paint-order="markers fill stroke" transform="translate(288.93 -112.53) scale(1.048)"/><path fill="#fff" d="M211.15 114.57 168 84.67v16.64h-39.25v26.52H168v16.65z"/><path fill="none" d="m324 0-56.72 62.09L324 234Z"/></svg>