<?xml version="1.0" encoding="UTF-8" standalone="no"?>
<svg
   xmlns:dc="http://purl.org/dc/elements/1.1/"
   xmlns:cc="http://creativecommons.org/ns#"
   xmlns:rdf="http://www.w3.org/1999/02/22-rdf-syntax-ns#"
   xmlns:svg="http://www.w3.org/2000/svg"
   xmlns="http://www.w3.org/2000/svg"
   xmlns:sodipodi="http://sodipodi.sourceforge.net/DTD/sodipodi-0.dtd"
   xmlns:inkscape="http://www.inkscape.org/namespaces/inkscape"
   width="324px"
   height="234px"
   viewBox="0 0 324 234"
   version="1.1"
   id="svg11"
   sodipodi:docname="audio-recorder.svg"
   inkscape:version="1.0.2 (e86c870879, 2021-01-15)">
  <metadata
     id="metadata17">
    <rdf:RDF>
      <cc:Work
         rdf:about="">
        <dc:format>image/svg+xml</dc:format>
        <dc:type
           rdf:resource="http://purl.org/dc/dcmitype/StillImage" />
      </cc:Work>
    </rdf:RDF>
  </metadata>
  <defs
     id="defs15" />
  <sodipodi:namedview
     pagecolor="#ffffff"
     bordercolor="#666666"
     borderopacity="1"
     objecttolerance="10"
     gridtolerance="10"
     guidetolerance="10"
     inkscape:pageopacity="0"
     inkscape:pageshadow="2"
     inkscape:window-width="1920"
     inkscape:window-height="980"
     id="namedview13"
     showgrid="false"
     inkscape:zoom="2.4386118"
     inkscape:cx="160.17864"
     inkscape:cy="107.94573"
     inkscape:window-x="0"
     inkscape:window-y="0"
     inkscape:window-maximized="1"
     inkscape:current-layer="svg11"
     inkscape:document-rotation="0" />
  <rect
     x="-0.05020332"
     y="0.014902884"
     width="324.47739"
     height="234.41928"
     style="fill:#e4e4e4;fill-opacity:1;stroke:none;stroke-width:1.00163"
     id="rect2" />
  <path
     style="fill:none;stroke:#ffffff;stroke-width:1.83906;stroke-linecap:butt;stroke-linejoin:miter;stroke-miterlimit:4;stroke-opacity:1"
     d="M -1.2812396,-1.5150337 H 326.60939 V 235.52403 H -1.2812396 Z m 0,0"
     id="path4" />
  <g
     id="g849"
     transform="matrix(13.677688,0,0,14.907008,53.758045,-2.0315206)">
    <path
       style="fill:#f04242"
       d="M 7,5.25 C 7,5.6655 7.2816842,6 7.6315789,6 H 11.421053 C 12.368421,6 13,4.5 13,3.75 V 3 H 12.368421 11.421053 7.6315789 C 7.2816842,3 7,3.3345 7,3.75 Z"
       id="path6" />
    <g
       id="g843">
      <path
         style="fill:#f04242"
         d="M 3.75,3 C 3.3345,3 3,3.3185714 3,3.7142857 V 11.214286 C 3,12.285714 4.5,13 5.25,13 H 6 V 12.285714 11.214286 3.7142857 C 6,3.3185714 5.6655,3 5.25,3 Z"
         id="path4-3" />
      <path
         style="fill:#14a4df"
         d="M 7.3108881,7 A 0.30383907,0.26858172 0 0 0 7.0000002,7.2688537 v 1.7314859 1.7314854 a 0.30383907,0.26858172 0 0 0 0.4555639,0.232218 L 9.1519191,10.0983 10.848275,9.2325573 a 0.30383907,0.26858172 0 0 0 0,-0.4649987 L 9.1519191,7.9018157 7.4555641,7.0360727 A 0.30383907,0.26858172 0 0 0 7.3108881,7 Z"
         id="path8" />
    </g>
  </g>
</svg>
