<?xml version="1.0" encoding="UTF-8" standalone="no"?>
<svg
   width="324px"
   height="234px"
   viewBox="0 0 324 234"
   version="1.1"
   id="svg1024"
   sodipodi:docname="gh.svg"
   inkscape:version="1.1 (c4e8f9e, 2021-05-24)"
   xmlns:inkscape="http://www.inkscape.org/namespaces/inkscape"
   xmlns:sodipodi="http://sodipodi.sourceforge.net/DTD/sodipodi-0.dtd"
   xmlns="http://www.w3.org/2000/svg"
   xmlns:svg="http://www.w3.org/2000/svg">
  <sodipodi:namedview
     id="namedview1026"
     pagecolor="#ffffff"
     bordercolor="#666666"
     borderopacity="1.0"
     inkscape:pageshadow="2"
     inkscape:pageopacity="0.0"
     inkscape:pagecheckerboard="0"
     showgrid="false"
     inkscape:zoom="3.5384615"
     inkscape:cx="162.07609"
     inkscape:cy="117"
     inkscape:window-width="1920"
     inkscape:window-height="1040"
     inkscape:window-x="0"
     inkscape:window-y="0"
     inkscape:window-maximized="1"
     inkscape:current-layer="svg1024" />
  <defs
     id="defs947">
    <radialGradient
       id="radial0"
       gradientUnits="userSpaceOnUse"
       cx="90.136406"
       cy="64.761543"
       fx="90.136406"
       fy="64.761543"
       r="91.591759"
       gradientTransform="matrix(1.8,0,0,1.304046,0,32.11876)">
      <stop
         offset="0"
         style="stop-color:#666666;stop-opacity:1"
         id="stop942" />
      <stop
         offset="1"
         style="stop-color:#4d4d4d;stop-opacity:1"
         id="stop944" />
    </radialGradient>
  </defs>
  <g
     id="surface1">
    <rect
       x="0"
       y="0"
       width="324"
       height="234"
       style="fill:url(#radial0);stroke:none;"
       id="rect949" />
    <path
       style="fill:none;stroke-width:1.021703;stroke-linecap:butt;stroke-linejoin:miter;stroke:rgb(100%,100%,100%);stroke-opacity:1;stroke-miterlimit:4;"
       d="M -0.94401 -1.082899 L 181.217448 -1.082899 L 181.217448 130.605469 L -0.94401 130.605469 Z M -0.94401 -1.082899 "
       transform="matrix(1.8,0,0,1.8,0,0)"
       id="path951" />
  </g>
  <path
     id="path3931"
     style="fill:#1b1817;fill-opacity:1;fill-rule:evenodd;stroke:none;stroke-width:1.33333"
     d="m 162.79824,37.391118 c -44.46267,0 -80.51758,36.046916 -80.517581,80.517582 0,35.57333 23.070501,65.75372 55.062501,76.40039 4.024,0.74533 5.50196,-1.74639 5.50196,-3.87305 0,-1.91867 -0.0747,-8.26223 -0.10938,-14.99023 -22.4,4.87067 -27.12695,-9.5 -27.12695,-9.5 -3.66267,-9.30533 -8.93946,-11.78125 -8.93946,-11.78125 -7.305343,-4.99733 0.54883,-4.89453 0.54883,-4.89453 8.08534,0.568 12.34375,8.29687 12.34375,8.29687 7.18133,12.308 18.83502,8.75069 23.42969,6.69336 0.724,-5.20267 2.81061,-8.75691 5.11328,-10.76758 -17.884,-2.03466 -36.68359,-8.93901 -36.68359,-39.79101 0,-8.78934 3.14425,-15.97462 8.29492,-21.613287 -0.836,-2.028 -3.59208,-10.215974 0.78125,-21.30664 0,0 6.76114,-2.163427 22.14648,8.253906 6.42266,-1.784 13.31163,-2.678937 20.1543,-2.710938 6.84267,0.032 13.73525,0.926938 20.16992,2.710938 15.368,-10.417333 22.1211,-8.253906 22.1211,-8.253906 4.38266,11.090666 1.62506,19.27864 0.78906,21.30664 5.16267,5.638667 8.28516,12.823947 8.28515,21.613287 0,30.92666 -18.83433,37.73323 -36.76367,39.72656 2.888,2.49867 5.46094,7.40011 5.46094,14.91211 0,10.77333 -0.0918,19.4437 -0.0918,22.0957 0,2.144 1.44797,4.65261 5.5293,3.86328 31.976,-10.65867 55.01758,-40.82795 55.01758,-76.39062 0,-44.470666 -36.04958,-80.517582 -80.51758,-80.517582 z M 111.41152,151.6294 c -0.34219,0.003 -0.62799,0.14372 -0.73633,0.40039 -0.18933,0.40133 0.13733,0.94694 0.72266,1.21094 0.57333,0.27466 1.20158,0.15523 1.37891,-0.2461 0.20133,-0.40133 -0.13085,-0.95217 -0.71485,-1.21484 -0.219,-0.103 -0.44508,-0.15197 -0.65039,-0.15039 z m 3.25195,2.77148 c -0.19292,0.004 -0.36778,0.0632 -0.5039,0.18555 -0.38933,0.36 -0.29363,1.1125 0.23437,1.67383 0.508,0.56267 1.26053,0.72905 1.64453,0.37305 0.40134,-0.36133 0.29949,-1.10583 -0.22851,-1.67383 -0.34563,-0.36838 -0.77818,-0.56634 -1.14649,-0.5586 z m 3.18165,4.11524 c -0.15265,0.008 -0.29526,0.0546 -0.41993,0.14062 -0.50533,0.344 -0.50505,1.20259 -0.0117,1.91993 0.49867,0.71603 1.3055,1.03735 1.79883,0.69336 0.504,-0.35068 0.50568,-1.2095 0.0137,-1.9375 -0.37899,-0.53198 -0.92292,-0.8409 -1.38085,-0.81641 z m 3.93164,4.57617 c -0.29592,-0.001 -0.56019,0.0947 -0.74219,0.29297 -0.44133,0.48666 -0.24502,1.40669 0.45898,2.05469 0.688,0.66533 1.62703,0.79721 2.06836,0.31054 0.46933,-0.48133 0.25726,-1.41059 -0.4414,-2.05859 -0.41167,-0.39109 -0.91126,-0.59788 -1.34375,-0.59961 z m 5.79101,3.5 c -0.65219,-0.007 -1.19784,0.27986 -1.33984,0.75586 -0.184,0.63734 0.41159,1.37439 1.32226,1.65039 0.912,0.268 1.81572,-0.0158 2.01172,-0.64648 0.18933,-0.64133 -0.40707,-1.37573 -1.3164,-1.65039 -0.22967,-0.0717 -0.46034,-0.10698 -0.67774,-0.10938 z m 13.22656,0.27734 c -0.14146,-1.6e-4 -0.28679,0.0113 -0.43554,0.0371 -0.93467,0.172 -1.6121,0.83796 -1.4961,1.50196 0.11867,0.64133 0.98526,1.04309 1.91993,0.87109 0.95066,-0.17733 1.61467,-0.84356 1.5,-1.49023 -0.10238,-0.55576 -0.72439,-0.91905 -1.48829,-0.91993 z m -6.38476,0.78907 c -0.96133,0.0173 -1.71875,0.56176 -1.71875,1.23242 0.0107,0.65334 0.79123,1.18927 1.75391,1.16797 0.95733,-0.012 1.72973,-0.56257 1.70703,-1.22656 0,-0.65868 -0.78485,-1.19253 -1.74219,-1.17383 z" />
</svg>
