<?xml version="1.0" encoding="UTF-8"?>
<svg xmlns="http://www.w3.org/2000/svg" xmlns:xlink="http://www.w3.org/1999/xlink" width="324px" height="234px" viewBox="0 0 324 234" version="1.1">
<defs>
<linearGradient id="linear0" gradientUnits="userSpaceOnUse" x1="-0.944501" y1="130.606155" x2="181.217316" y2="-1.083079" gradientTransform="matrix(0,-1.8,1.8,0,-0.0000027,86.399993)">
<stop offset="0" style="stop-color:rgb(50.980395%,43.137255%,69.803923%);stop-opacity:1;"/>
<stop offset="1" style="stop-color:rgb(12.156863%,9.411765%,17.647059%);stop-opacity:1;"/>
</linearGradient>
</defs>
<g id="surface1">
<rect x="0" y="0" width="324" height="234" style="fill:url(#linear0);stroke:none;"/>
<path style="fill:none;stroke-width:1.021703;stroke-linecap:butt;stroke-linejoin:miter;stroke:rgb(100%,100%,100%);stroke-opacity:1;stroke-miterlimit:4;" d="M -0.94401 -1.082899 L 181.217448 -1.082899 L 181.217448 130.605469 L -0.94401 130.605469 Z M -0.94401 -1.082899 " transform="matrix(1.8,0,0,1.8,0,0)"/>
<path style=" stroke:none;fill-rule:nonzero;fill:rgb(13.725491%,10.980392%,19.215687%);fill-opacity:1;" d="M 331.0625 155.3125 C 333.128906 155.3125 334.808594 153.636719 334.808594 151.566406 L 334.808594 136.578125 C 334.808594 134.507812 333.128906 132.828125 331.0625 132.828125 L 327.3125 132.828125 L 327.3125 121.589844 C 327.3125 120.777344 327.050781 119.992188 326.5625 119.339844 L 315.320312 104.351562 C 313.898438 102.460938 310.742188 102.460938 309.320312 104.351562 L 298.078125 119.339844 C 297.597656 119.992188 297.335938 120.777344 297.335938 121.589844 L 297.335938 132.828125 L 282.34375 132.828125 L 282.34375 121.589844 C 282.34375 120.777344 282.082031 119.992188 281.59375 119.339844 L 270.351562 104.351562 C 268.9375 102.460938 265.773438 102.460938 264.351562 104.351562 L 253.109375 119.339844 C 252.628906 119.992188 252.367188 120.777344 252.367188 121.589844 L 252.367188 132.828125 L 243.53125 132.828125 L 244.832031 123.460938 C 244.945312 122.660156 244.796875 121.835938 244.398438 121.125 L 235.324219 104.777344 C 234.753906 103.75 233.726562 103.046875 232.558594 102.886719 C 231.394531 102.707031 230.21875 103.121094 229.386719 103.960938 L 216.195312 117.226562 C 215.625 117.804688 215.253906 118.546875 215.140625 119.355469 L 213.265625 132.828125 L 192.40625 132.828125 L 192.40625 121.589844 C 192.40625 120.777344 192.144531 119.992188 191.660156 119.339844 L 180.417969 104.351562 C 179 102.460938 175.835938 102.460938 174.421875 104.351562 L 163.179688 119.339844 C 162.691406 119.992188 162.429688 120.777344 162.429688 121.589844 L 162.429688 132.828125 L 158.683594 132.828125 C 156.613281 132.828125 154.933594 134.507812 154.933594 136.578125 L 154.933594 151.566406 C 154.933594 153.644531 156.613281 155.3125 158.683594 155.3125 L 162.429688 155.3125 L 162.429688 185.292969 L 158.683594 185.292969 C 156.613281 185.292969 154.933594 186.972656 154.933594 189.039062 L 154.933594 204.03125 C 154.933594 206.105469 156.613281 207.777344 158.683594 207.777344 L 162.429688 207.777344 L 162.429688 234.007812 C 162.429688 236.085938 164.109375 237.757812 166.175781 237.757812 L 188.660156 237.757812 C 190.730469 237.757812 192.40625 236.085938 192.40625 234.007812 L 192.40625 207.777344 L 202.847656 207.777344 L 199.699219 230.410156 C 199.558594 231.394531 199.828125 232.398438 200.425781 233.191406 C 201.027344 233.988281 201.910156 234.503906 202.902344 234.636719 L 225.175781 237.71875 C 225.347656 237.75 225.519531 237.757812 225.691406 237.757812 C 227.527344 237.757812 229.140625 236.398438 229.394531 234.527344 L 233.121094 207.777344 L 252.367188 207.777344 L 252.367188 234.007812 C 252.367188 236.078125 254.046875 237.757812 256.113281 237.757812 L 278.597656 237.757812 C 280.667969 237.757812 282.34375 236.078125 282.34375 234.007812 L 282.34375 207.777344 L 297.335938 207.777344 L 297.335938 234.007812 C 297.335938 236.078125 299.011719 237.757812 301.082031 237.757812 L 323.566406 237.757812 C 325.632812 237.757812 327.3125 236.078125 327.3125 234.007812 L 327.3125 207.777344 L 331.0625 207.777344 C 333.128906 207.777344 334.808594 206.097656 334.808594 204.03125 L 334.808594 189.039062 C 334.808594 186.972656 333.128906 185.292969 331.0625 185.292969 L 327.3125 185.292969 L 327.3125 155.3125 Z M 240.40625 155.3125 L 252.367188 155.3125 L 252.367188 185.292969 L 236.238281 185.292969 Z M 282.34375 155.3125 L 297.335938 155.3125 L 297.335938 185.292969 L 282.34375 185.292969 Z M 192.40625 155.3125 L 210.140625 155.3125 L 205.972656 185.292969 L 192.40625 185.292969 Z M 192.40625 155.3125 "/>
<path style=" stroke:none;fill-rule:nonzero;fill:rgb(13.725491%,10.980392%,19.215687%);fill-opacity:1;" d="M 158.828125 155.3125 C 160.898438 155.3125 162.578125 153.636719 162.578125 151.566406 L 162.578125 136.578125 C 162.578125 134.507812 160.898438 132.828125 158.828125 132.828125 L 155.082031 132.828125 L 155.082031 121.589844 C 155.082031 120.777344 154.820312 119.992188 154.332031 119.339844 L 143.089844 104.351562 C 141.667969 102.460938 138.511719 102.460938 137.085938 104.351562 L 125.84375 119.339844 C 125.363281 119.992188 125.101562 120.777344 125.101562 121.589844 L 125.101562 132.828125 L 110.113281 132.828125 L 110.113281 121.589844 C 110.113281 120.777344 109.851562 119.992188 109.363281 119.339844 L 98.121094 104.351562 C 96.707031 102.460938 93.542969 102.460938 92.117188 104.351562 L 80.875 119.339844 C 80.398438 119.992188 80.132812 120.777344 80.132812 121.589844 L 80.132812 132.828125 L 71.296875 132.828125 L 72.601562 123.460938 C 72.714844 122.660156 72.566406 121.835938 72.167969 121.125 L 63.089844 104.777344 C 62.523438 103.75 61.496094 103.046875 60.324219 102.886719 C 59.164062 102.707031 57.988281 103.121094 57.15625 103.960938 L 43.964844 117.226562 C 43.394531 117.804688 43.019531 118.546875 42.90625 119.355469 L 41.035156 132.828125 L 20.175781 132.828125 L 20.175781 121.589844 C 20.175781 120.777344 19.914062 119.992188 19.425781 119.339844 L 8.183594 104.351562 C 6.769531 102.460938 3.605469 102.460938 2.1875 104.351562 L -9.054688 119.339844 C -9.539062 119.992188 -9.800781 120.777344 -9.800781 121.589844 L -9.800781 132.828125 L -13.550781 132.828125 C -15.617188 132.828125 -17.296875 134.507812 -17.296875 136.578125 L -17.296875 151.566406 C -17.296875 153.644531 -15.617188 155.3125 -13.550781 155.3125 L -9.800781 155.3125 L -9.800781 185.292969 L -13.550781 185.292969 C -15.617188 185.292969 -17.296875 186.972656 -17.296875 189.039062 L -17.296875 204.03125 C -17.296875 206.105469 -15.617188 207.777344 -13.550781 207.777344 L -9.800781 207.777344 L -9.800781 234.007812 C -9.800781 236.085938 -8.125 237.757812 -6.054688 237.757812 L 16.429688 237.757812 C 18.496094 237.757812 20.175781 236.085938 20.175781 234.007812 L 20.175781 207.777344 L 30.617188 207.777344 L 27.46875 230.410156 C 27.328125 231.394531 27.597656 232.398438 28.195312 233.191406 C 28.796875 233.988281 29.679688 234.503906 30.667969 234.636719 L 52.945312 237.71875 C 53.117188 237.75 53.289062 237.757812 53.460938 237.757812 C 55.296875 237.757812 56.90625 236.398438 57.164062 234.527344 L 60.886719 207.777344 L 80.132812 207.777344 L 80.132812 234.007812 C 80.132812 236.078125 81.8125 237.757812 83.882812 237.757812 L 106.367188 237.757812 C 108.433594 237.757812 110.113281 236.078125 110.113281 234.007812 L 110.113281 207.777344 L 125.101562 207.777344 L 125.101562 234.007812 C 125.101562 236.078125 126.78125 237.757812 128.851562 237.757812 L 151.335938 237.757812 C 153.402344 237.757812 155.082031 236.078125 155.082031 234.007812 L 155.082031 207.777344 L 158.828125 207.777344 C 160.898438 207.777344 162.578125 206.097656 162.578125 204.03125 L 162.578125 189.039062 C 162.578125 186.972656 160.898438 185.292969 158.828125 185.292969 L 155.082031 185.292969 L 155.082031 155.3125 Z M 68.171875 155.3125 L 80.132812 155.3125 L 80.132812 185.292969 L 64.003906 185.292969 Z M 110.113281 155.3125 L 125.101562 155.3125 L 125.101562 185.292969 L 110.113281 185.292969 Z M 20.175781 155.3125 L 37.910156 155.3125 L 33.742188 185.292969 L 20.175781 185.292969 Z M 20.175781 155.3125 "/>
<path style=" stroke:none;fill-rule:evenodd;fill:rgb(89.411765%,89.411765%,89.411765%);fill-opacity:1;" d="M 159.988281 43.472656 C 134.953125 43.492188 111.605469 56.09375 97.855469 77.011719 C 95.683594 75.941406 93.296875 75.382812 90.878906 75.371094 C 82.070312 75.371094 74.929688 82.511719 74.929688 91.320312 C 74.9375 98.441406 79.664062 104.695312 86.515625 106.644531 C 85.914062 110.367188 85.59375 114.128906 85.5625 117.898438 C 85.5625 159.003906 118.882812 192.324219 159.988281 192.324219 C 162.402344 192.304688 164.8125 192.164062 167.214844 191.910156 L 166.695312 192.324219 C 202.527344 190.4375 234.308594 185.015625 245.042969 181.691406 C 227.378906 175.988281 227.394531 152.601562 230.902344 140.410156 C 233.21875 133.132812 234.402344 125.539062 234.410156 117.898438 C 234.394531 114.128906 234.085938 110.367188 233.5 106.644531 C 240.332031 104.683594 245.042969 98.429688 245.042969 91.320312 C 245.042969 82.511719 237.902344 75.371094 229.097656 75.371094 C 226.675781 75.382812 224.289062 75.941406 222.117188 77.011719 C 208.367188 56.09375 185.019531 43.492188 159.988281 43.472656 Z M 159.988281 43.472656 "/>
<path style=" stroke:none;fill-rule:evenodd;fill:rgb(24.705882%,24.705882%,24.705882%);fill-opacity:1;" d="M 148.9375 99.429688 C 146.925781 111.074219 138.339844 119.261719 129.761719 117.71875 C 121.1875 116.175781 115.867188 105.488281 117.878906 93.84375 C 119.890625 82.203125 128.476562 74.015625 137.050781 75.558594 C 145.628906 77.101562 150.949219 87.789062 148.9375 99.429688 Z M 148.9375 99.429688 "/>
<path style=" stroke:none;fill-rule:evenodd;fill:rgb(24.705882%,24.705882%,24.705882%);fill-opacity:1;" d="M 202.085938 93.851562 C 204.105469 105.492188 198.792969 116.175781 190.222656 117.710938 C 181.652344 119.246094 173.0625 111.054688 171.042969 99.414062 C 169.023438 87.773438 174.332031 77.089844 182.90625 75.554688 C 191.476562 74.019531 200.0625 82.210938 202.085938 93.851562 Z M 202.085938 93.851562 "/>
</g>
</svg>
