<?xml version="1.0" encoding="UTF-8" standalone="no"?>
<!-- Created with Inkscape (http://www.inkscape.org/) -->

<svg
   xmlns:dc="http://purl.org/dc/elements/1.1/"
   xmlns:cc="http://creativecommons.org/ns#"
   xmlns:rdf="http://www.w3.org/1999/02/22-rdf-syntax-ns#"
   xmlns:svg="http://www.w3.org/2000/svg"
   xmlns="http://www.w3.org/2000/svg"
   xmlns:xlink="http://www.w3.org/1999/xlink"
   xmlns:sodipodi="http://sodipodi.sourceforge.net/DTD/sodipodi-0.dtd"
   xmlns:inkscape="http://www.inkscape.org/namespaces/inkscape"
   width="324px"
   height="234px"
   viewBox="0 0 324 234"
   version="1.1"
   id="SVGRoot"
   inkscape:version="0.92.4 (5da689c313, 2019-01-14)"
   sodipodi:docname="Gimp.svg">
  <defs
     id="defs1526">
    <linearGradient
       inkscape:collect="always"
       id="linearGradient4325">
      <stop
         style="stop-color:#ff6600;stop-opacity:1;"
         offset="0"
         id="stop4321" />
      <stop
         style="stop-color:#ff6600;stop-opacity:0;"
         offset="1"
         id="stop4323" />
    </linearGradient>
    <linearGradient
       inkscape:collect="always"
       xlink:href="#linearGradient4325"
       id="linearGradient4327"
       x1="324"
       y1="234"
       x2="-25"
       y2="-14.571429"
       gradientUnits="userSpaceOnUse" />
  </defs>
  <sodipodi:namedview
     id="base"
     pagecolor="#ffffff"
     bordercolor="#666666"
     borderopacity="1.0"
     inkscape:pageopacity="0.0"
     inkscape:pageshadow="2"
     inkscape:zoom="1.4"
     inkscape:cx="89.034742"
     inkscape:cy="126.96043"
     inkscape:document-units="px"
     inkscape:current-layer="layer1"
     showgrid="false"
     inkscape:window-width="1366"
     inkscape:window-height="728"
     inkscape:window-x="0"
     inkscape:window-y="0"
     inkscape:window-maximized="1" />
  <metadata
     id="metadata1529">
    <rdf:RDF>
      <cc:Work
         rdf:about="">
        <dc:format>image/svg+xml</dc:format>
        <dc:type
           rdf:resource="http://purl.org/dc/dcmitype/StillImage" />
        <dc:title></dc:title>
      </cc:Work>
    </rdf:RDF>
  </metadata>
  <g
     inkscape:label="Capa 1"
     inkscape:groupmode="layer"
     id="layer1">
    <rect
       style="opacity:1;fill:url(#linearGradient4327);fill-opacity:1;fill-rule:nonzero;stroke:#ffffff;stroke-width:0;stroke-miterlimit:4;stroke-dasharray:none;stroke-dashoffset:0;stroke-opacity:0.02551018;paint-order:stroke fill markers"
       id="rect4103"
       width="324"
       height="234"
       x="4.1823614e-07"
       y="-3.3002181e-08" />
    <path
       inkscape:connector-curvature="0"
       style="opacity:0.2;fill-rule:evenodd;stroke-width:3.68980694"
       d="m 247.12567,18.557878 c -1.65557,-0.32247 -3.14294,0.82225 -4.03711,2.125601 -0.89415,1.304 -1.51457,2.91949 -2.05487,4.95546 -0.9344,3.52312 -4.36596,16.600529 -16.73999,29.525716 -12.37402,12.92586 -33.71257,27.386893 -70.69607,28.552884 -22.48842,0.322422 -37.99773,-11.517559 -46.96513,-33.260551 -2.23795,-5.426243 -6.20004,-15.538359 -6.20004,-9.10414 v 9.948321 l -0.1142,51.487351 0.22834,0.67777 c 0,0 2.01463,5.48363 -0.11414,12.87167 -2.128812,7.38868 -9.822548,18.17077 -28.583638,25.07062 l -2.29358,0.83516 0.43588,2.95947 c 1.04062,7.16942 5.18861,14.51747 11.3122,22.0403 6.12359,7.52218 14.322536,15.13271 23.869778,22.0132 19.0945,13.76101 43.551,24.63541 67.31279,25.1436 23.76179,0.50949 47.01053,-9.6723 62.39354,-37.87209 15.38302,-28.19915 22.88524,-79.56917 16.73998,-149.663341 h -0.0107 c -0.19517,-1.92437 -0.54156,-3.56759 -1.16206,-5.00766 -0.6205,-1.439431 -1.66544,-2.925941 -3.32102,-3.247111 z"
       id="path3505" />
    <path
       inkscape:connector-curvature="0"
       style="fill:#6c5a42;fill-rule:evenodd;stroke-width:3.68980694"
       d="m 247.12567,14.473448 c -1.65557,-0.32246 -3.14294,0.82226 -4.03711,2.12561 -0.89415,1.304 -1.51457,2.91949 -2.05487,4.955461 -0.9344,3.52312 -4.36596,16.60052 -16.73999,29.525712 -12.37402,12.925857 -33.71257,27.38689 -70.69607,28.55288 -22.48842,0.322423 -37.99773,-15.600058 -46.96513,-37.343053 -2.23795,-5.426239 -6.20004,-15.538359 -6.20004,-9.104129 v 9.948317 l -0.1142,55.569841 0.22834,0.67777 c 0,0 2.01463,5.483633 -0.11414,12.871683 -2.128812,7.38867 -9.822548,18.17077 -28.583638,25.07061 l -2.29358,0.83516 0.43588,2.95947 c 1.04062,7.16942 5.18861,14.51748 11.3122,22.0403 6.12359,7.52218 14.322536,15.13271 23.869778,22.01321 19.0945,13.761 43.551,24.6354 67.31279,25.14359 23.76179,0.50949 47.01053,-9.6723 62.39354,-37.87209 15.38302,-28.19915 22.88524,-79.569167 16.73998,-149.663331 h -0.0107 c -0.19517,-1.92438 -0.54156,-3.567591 -1.16206,-5.007671 -0.6205,-1.43943 -1.66544,-2.92594 -3.32102,-3.2471 z"
       id="path3507" />
    <path
       inkscape:connector-curvature="0"
       style="opacity:0.1;fill:#ffffff;fill-rule:evenodd;stroke-width:3.68980694"
       d="m 247.12513,14.474128 c -1.65557,-0.32246 -3.14229,0.81862 -4.03646,2.12198 -0.89415,1.304 -1.517,2.92594 -2.05729,4.961911 -0.93441,3.52312 -4.36425,16.59898 -16.73829,29.524169 -12.37402,12.925856 -33.71311,27.384941 -70.69661,28.550932 -22.48842,0.322422 -37.99874,-15.598976 -46.96614,-37.341972 -2.23795,-5.426239 -6.1979,-15.536379 -6.1979,-9.102159 v 4.08441 c 0,-6.43423 3.95995,3.675919 6.1979,9.102152 8.9674,21.742996 24.47772,37.664394 46.96614,37.341971 36.9835,-1.16599 58.32259,-15.625075 70.69661,-28.550931 12.37404,-12.925193 15.80388,-26.001052 16.73829,-29.524172 0.54029,-2.03597 1.16314,-3.65791 2.05729,-4.96191 0.89417,-1.303351 2.38089,-2.444421 4.03646,-2.121971 v 0.0479 c 1.65558,0.32115 2.69981,1.815321 3.32031,3.254751 0.62049,1.44008 0.9702,3.07743 1.16537,5.0018 h 0.007 c 1.43957,16.420017 2.10654,31.769333 2.1224,46.077168 0.1229,-15.4453 -0.54552,-32.175409 -2.1224,-50.161568 h -0.007 c -0.19517,-1.92438 -0.54488,-3.561721 -1.16537,-5.001801 -0.6205,-1.43943 -1.66473,-2.9336 -3.32031,-3.25476 z m -146.69269,28.662618 -0.1172,55.570216 0.007,0.0241 0.11053,-51.509911 z m 0.87238,64.345304 c -0.12493,1.46292 -0.3791,3.0585 -0.87238,4.77046 -2.128822,7.38867 -9.819648,18.17296 -28.580728,25.07281 l -2.29818,0.83762 0.4362,2.9596 c 0.0434,0.29934 0.12156,0.60146 0.17576,0.90144 l 1.6862,-0.61426 c 18.76109,-6.89985 26.451916,-17.68413 28.580728,-25.07281 1.01501,-3.52267 1.07381,-6.58609 0.87239,-8.85486 z"
       id="path3509" />
    <path
       inkscape:connector-curvature="0"
       style="opacity:0.2;fill-rule:evenodd;stroke-width:3.68980694"
       d="m 167.09415,75.548733 c -6.59706,0 -13.22726,2.67218 -18.27499,8.170113 -5.04772,5.497925 -8.38674,13.876505 -8.38674,24.510994 0,10.63448 3.33902,19.0013 8.38674,24.49924 5.04773,5.49793 11.67793,8.17011 18.27499,8.17011 6.59706,0 13.22727,-2.67218 18.27499,-8.17011 5.04774,-5.49794 8.39662,-13.86476 8.39662,-24.49924 0,-10.634489 -3.34888,-19.013069 -8.39662,-24.510994 -5.04772,-5.497933 -11.67793,-8.170113 -18.27499,-8.170113 z"
       id="path3511" />
    <path
       inkscape:connector-curvature="0"
       style="opacity:0.2;fill-rule:evenodd;stroke-width:3.68980694"
       d="m 120.42749,75.548733 c -6.59707,0 -13.22726,2.67218 -18.27499,8.170113 -5.047722,5.497925 -8.386732,13.876505 -8.386732,24.510994 0,10.63448 3.33901,19.0013 8.386732,24.49924 5.04773,5.49793 11.67792,8.17011 18.27499,8.17011 6.59705,0 13.22726,-2.67218 18.27499,-8.17011 5.04773,-5.49794 8.39661,-13.86476 8.39661,-24.49924 0,-10.634489 -3.34888,-19.013069 -8.39661,-24.510994 -5.04773,-5.497933 -11.67794,-8.170113 -18.27499,-8.170113 z"
       id="path3513" />
    <path
       inkscape:connector-curvature="0"
       style="fill:#ffffff;fill-rule:evenodd;stroke-width:3.68980694"
       d="m 120.42749,71.464306 c -6.59707,0 -13.22726,2.672179 -18.27499,8.170112 -5.047722,5.497925 -8.386732,13.876506 -8.386732,24.511002 0,10.63448 3.33901,19.00129 8.386732,24.49923 5.04773,5.49793 11.67792,8.17011 18.27499,8.17011 6.59705,0 13.22726,-2.67218 18.27499,-8.17011 5.04773,-5.49794 8.39661,-13.86475 8.39661,-24.49923 0,-10.634496 -3.34888,-19.013077 -8.39661,-24.511002 -5.04773,-5.497933 -11.67794,-8.170112 -18.27499,-8.170112 z"
       id="path3515" />
    <path
       inkscape:connector-curvature="0"
       style="fill:#3f3f3f;fill-rule:evenodd;stroke-width:3.68980694"
       d="m 127.0991,91.886328 c -3.26716,0 -6.57007,1.323338 -9.11459,4.094859 -2.54451,2.771512 -4.21875,7.040213 -4.21875,12.242773 0,5.20255 1.67424,9.47124 4.21875,12.24276 2.54452,2.7715 5.84743,4.09484 9.11459,4.09484 3.26715,0 6.57006,-1.32334 9.11459,-4.09484 2.54451,-2.77152 4.21874,-7.04021 4.21874,-12.24276 0,-5.20256 -1.67423,-9.471261 -4.21874,-12.242773 -2.54453,-2.771521 -5.84744,-4.094859 -9.11459,-4.094859 z"
       id="path3517" />
    <path
       inkscape:connector-curvature="0"
       style="opacity:0.3;fill-rule:evenodd;stroke-width:3.68980694"
       d="m 133.76576,173.56868 c 9.62482,0 18.39953,0.61393 26.35852,0 13.22156,-1.03869 24.84344,-2.05484 30.71919,-7.80557 -2.4854,-4.06846 -3.74438,-8.53136 -3.74438,-8.53136 0,0 8.04193,3.88438 11.92545,10.23773 3.87242,6.33563 -4.24534,10.23888 -5.25878,18.34492 -2.25613,-7.11937 -0.78407,-9.78955 -1.35421,-12.61867 -4.10043,7.18454 -11.16319,12.33741 -20.66265,12.61867 -10.11152,0.29719 -22.98386,-5.52194 -37.98314,-12.23429 z"
       id="path3519" />
    <path
       inkscape:connector-curvature="0"
       style="opacity:0.2;fill-rule:evenodd;stroke-width:3.68980694"
       d="m 73.650072,100.05519 c -1.18326,0 -2.34363,0.0919 -3.47156,0.31858 -3.00781,0.60041 -5.79268,2.03893 -8.19362,4.22123 -9.60378,8.7298 -12.13303,28.51445 -0.27064,49.23217 11.8624,20.71834 27.55684,23.93359 37.160616,15.20379 9.603772,-8.72981 12.142352,-28.51445 0.27996,-49.23217 -7.78468,-13.59617 -17.221906,-19.65109 -25.504746,-19.74238 z"
       id="path3521" />
    <path
       inkscape:connector-curvature="0"
       style="fill:#3f3f3f;fill-rule:evenodd;stroke-width:3.68980694"
       d="m 73.650072,95.970755 c -1.18326,0 -2.34363,0.0919 -3.47156,0.318584 -3.00781,0.600407 -5.79268,2.038934 -8.19362,4.221231 -9.60378,8.72981 -12.13303,28.51445 -0.27064,49.23218 11.8624,20.71834 27.55684,23.93359 37.160616,15.20378 9.603772,-8.72981 12.142352,-28.51444 0.27996,-49.23217 C 91.370148,102.11819 81.932922,96.063267 73.650082,95.971981 Z"
       id="path3523" />
    <path
       inkscape:connector-curvature="0"
       style="fill:#ffffff;fill-rule:evenodd;stroke-width:3.68980694"
       d="m 167.09415,71.464306 c -6.59706,0 -13.22726,2.672179 -18.27499,8.170112 -5.04772,5.497925 -8.38674,13.876506 -8.38674,24.511002 0,10.63448 3.33902,19.00129 8.38674,24.49923 5.04773,5.49793 11.67793,8.17011 18.27499,8.17011 6.59706,0 13.22727,-2.67218 18.27499,-8.17011 5.04774,-5.49794 8.39662,-13.86475 8.39662,-24.49923 0,-10.634496 -3.34888,-19.013077 -8.39662,-24.511002 -5.04772,-5.497933 -11.67793,-8.170112 -18.27499,-8.170112 z"
       id="path3525" />
    <path
       inkscape:connector-curvature="0"
       style="fill:#3f3f3f;fill-rule:evenodd;stroke-width:3.68980694"
       d="m 173.76576,91.886328 c -3.26715,0 -6.57006,1.323338 -9.11458,4.094859 -2.54451,2.771512 -4.21876,7.040213 -4.21876,12.242773 0,5.20255 1.67425,9.47124 4.21876,12.24276 2.54452,2.7715 5.84743,4.09484 9.11458,4.09484 3.26716,0 6.57007,-1.32334 9.1146,-4.09484 2.54451,-2.77152 4.21874,-7.04021 4.21874,-12.24276 0,-5.20256 -1.67423,-9.471261 -4.21874,-12.242773 -2.54453,-2.771521 -5.84744,-4.094859 -9.1146,-4.094859 z"
       id="path3527" />
    <path
       inkscape:connector-curvature="0"
       style="opacity:0.1;fill:#ffffff;fill-rule:evenodd;stroke-width:3.68980694"
       d="m 73.648582,95.970731 c -1.18326,0 -2.34863,0.09243 -3.47656,0.319114 -3.00781,0.600408 -5.78916,2.045698 -8.1901,4.227995 -5.46764,4.97008 -8.55991,13.55775 -8.08594,23.82835 0.41848,-8.44483 3.36115,-15.44912 8.08594,-19.74394 2.40094,-2.1823 5.18229,-3.62759 8.1901,-4.228 1.12793,-0.22672 2.2933,-0.31911 3.47656,-0.31911 8.28284,0.0913 17.723116,6.13979 25.507816,19.73596 5.062562,8.8418 7.395852,17.46086 7.753892,25.16057 0.41196,-8.66631 -1.77408,-18.8012 -7.753892,-29.24497 -7.7847,-13.59617 -17.224976,-19.644683 -25.507816,-19.735969 z"
       id="path3529" />
  </g>
</svg>
