<?xml version="1.0" encoding="UTF-8" standalone="no"?>
<svg
   width="324px"
   height="234px"
   viewBox="0 0 324 234"
   version="1.1"
   id="svg1024"
   sodipodi:docname="github-desktop.svg"
   inkscape:version="1.1 (c4e8f9e, 2021-05-24)"
   xmlns:inkscape="http://www.inkscape.org/namespaces/inkscape"
   xmlns:sodipodi="http://sodipodi.sourceforge.net/DTD/sodipodi-0.dtd"
   xmlns="http://www.w3.org/2000/svg"
   xmlns:svg="http://www.w3.org/2000/svg">
  <sodipodi:namedview
     id="namedview1026"
     pagecolor="#ffffff"
     bordercolor="#666666"
     borderopacity="1.0"
     inkscape:pageshadow="2"
     inkscape:pageopacity="0.0"
     inkscape:pagecheckerboard="0"
     showgrid="false"
     inkscape:zoom="3.5384615"
     inkscape:cx="104.70652"
     inkscape:cy="116.71739"
     inkscape:window-width="1920"
     inkscape:window-height="1040"
     inkscape:window-x="0"
     inkscape:window-y="0"
     inkscape:window-maximized="1"
     inkscape:current-layer="svg1024" />
  <defs
     id="defs947">
    <radialGradient
       id="radial0"
       gradientUnits="userSpaceOnUse"
       cx="90.136406"
       cy="64.761543"
       fx="90.136406"
       fy="64.761543"
       r="91.591759"
       gradientTransform="matrix(1.8,0,0,1.304046,0,32.11876)">
      <stop
         offset="0"
         style="stop-color:#ffffff;stop-opacity:1"
         id="stop942" />
      <stop
         offset="1"
         style="stop-color:#999999;stop-opacity:1"
         id="stop944" />
    </radialGradient>
    <clipPath
       id="C">
      <path
         d="M 0,216 H 216 V 0 H 0 Z"
         id="path5650" />
    </clipPath>
    <clipPath
       id="B">
      <path
         d="m 121.724,55.66 c 0.343,1.114 0.4,2.832 -3.038,2.054 0,0 -9.395,-1.342 -9.843,-12.303 l -0.214,-21 h -2.258 l -0.213,21 c -0.448,10.96 -9.842,12.303 -9.842,12.303 -3.428,0.778 -3.383,-0.938 -3.04,-2.052 -3.37,5.738 -12.394,4.996 -12.394,4.996 -3.133,-1.117 -0.224,-3.13 -0.224,-3.13 4.92,-1.788 5.37,-7.158 5.37,-7.158 V 35.2 l 0.52,-11.728 c 1.117,-5.224 3.874,-8.312 6.578,-10.13 l 28.803,0.033 c 3.484,2.365 7.047,6.846 7.047,15.307 V 50.37 c 0,0 0.447,5.37 5.37,7.158 0,0 2.906,2.014 -0.225,3.13 0,0 -0.382,0.03 -1.017,0.032 -2.455,0 -8.7,-0.47 -11.378,-5.03 M 94.53,34.04 v 16.552 c 0,1.617 -0.285,2.977 -0.773,4.12 3.24,-2.526 3.457,-8.855 3.457,-8.855 v -20.66 c -3.225,2.282 -2.684,8.846 -2.684,8.846 M 117.8,45.86 c 0,0 0.217,6.33 3.456,8.855 -0.487,-1.143 -0.772,-2.503 -0.772,-4.12 V 34.042 c 0,0 0.54,-6.1 -2.684,-8.612 z"
         id="path5647" />
    </clipPath>
    <clipPath
       id="A">
      <path
         d="M 0,216 H 216 V 0 H 0 Z"
         id="path5644" />
    </clipPath>
  </defs>
  <g
     id="surface1">
    <rect
       x="0"
       y="0"
       width="324"
       height="234"
       style="fill:url(#radial0);stroke:none;"
       id="rect949" />
    <path
       style="fill:none;stroke-width:1.021703;stroke-linecap:butt;stroke-linejoin:miter;stroke:rgb(100%,100%,100%);stroke-opacity:1;stroke-miterlimit:4;"
       d="M -0.94401 -1.082899 L 181.217448 -1.082899 L 181.217448 130.605469 L -0.94401 130.605469 Z M -0.94401 -1.082899 "
       transform="matrix(1.8,0,0,1.8,0,0)"
       id="path951" />
  </g>
  <path
     d="m 126.27905,183.20206 c 1.65314,0 3.53621,-0.41028 5.68829,-1.22933 v 5.27951 c -0.47791,0.17132 -1.1617,0.36068 -2.04989,0.56357 0.27352,0.78599 0.41028,1.52088 0.41028,2.20318 0,2.18664 -0.66576,4.09977 -1.99879,5.74088 a 7.7096216,7.7096216 0 0 1 -5.07362,2.85542 c -1.35257,0.20439 -2.04989,0.93928 -2.04989,2.20318 0,0.44484 0.22242,0.90171 0.66576,1.33303 0.5801,0.64923 1.43522,1.05951 2.56236,1.22933 4.88426,0.75142 7.3294,2.78478 7.3294,6.09856 0,5.29605 -3.16049,7.94407 -9.46795,7.94407 -2.59693,0 -4.73398,-0.46138 -6.40665,-1.38262 -2.10399,-1.16171 -3.17703,-3.0057 -3.17703,-5.48541 0,-2.85541 1.58851,-4.83466 4.76404,-5.89417 v -0.1022 c -1.16171,-0.71686 -1.74331,-1.81093 -1.74331,-3.27922 0,-1.91313 0.54704,-3.1109 1.65313,-3.5873 v -0.10219 c -1.09407,-0.37572 -2.06641,-1.22934 -2.92154,-2.56236 -0.95731,-1.43523 -1.43522,-2.97264 -1.43522,-4.61375 0,-2.46017 0.87165,-4.50855 2.61496,-6.14967 a 8.5662462,8.5662462 0 0 1 6.0114,-2.30537 9.2425288,9.2425288 0 0 1 4.66335,1.22933 m -7.68708,7.2768 c 0,2.35948 1.07604,3.53621 3.22812,3.53621 2.08445,0 3.12593,-1.19627 3.12593,-3.5873 0,-0.99189 -0.24046,-1.8455 -0.71686,-2.56236 -0.5801,-0.78599 -1.38262,-1.17824 -2.40907,-1.17824 -2.15208,0 -3.22812,1.2624 -3.22812,3.7932 m 7.89297,19.67982 c 0,-1.74331 -1.43523,-2.61496 -4.30567,-2.61496 -2.76825,0 -4.15087,0.90472 -4.15087,2.71565 0,1.77637 1.50285,2.66455 4.50855,2.66455 2.62999,0 3.94648,-0.92275 3.94648,-2.76524 m 11.2293,-31.91603 c -0.99188,0 -1.8455,-0.37571 -2.56236,-1.12714 a 3.8322681,3.8322681 0 0 1 -1.02494,-2.66455 c 0,-1.05951 0.34114,-1.96423 1.02494,-2.71565 0.71686,-0.75143 1.57198,-1.12714 2.56236,-1.12714 0.95732,0 1.77637,0.37571 2.46017,1.12714 0.71686,0.75142 1.07604,1.65764 1.07604,2.71565 a 3.7270685,3.7270685 0 0 1 -1.07604,2.66455 c -0.6838,0.75143 -1.50285,1.12714 -2.46017,1.12714 m -2.92154,26.75073 c 0.0676,-0.68379 0.10219,-1.8455 0.10219,-3.48661 v -15.93472 l -0.10219,-3.33182 h 5.77696 c -0.0676,0.64923 -0.1022,1.72527 -0.1022,3.22812 v 15.73484 l 0.1022,3.7932 h -5.79199 m 16.53135,-22.75616 h 4.45896 v 4.97143 a 14.998445,14.998445 0 0 1 -0.97385,-0.0511 l -1.28193,-0.0511 h -2.20318 v 9.53257 c 0,2.28885 0.75143,3.43402 2.25428,3.43402 a 4.9894627,4.9894627 0 0 0 2.87044,-0.87166 v 5.10969 c -1.26239,0.6838 -2.78478,1.02495 -4.56115,1.02495 -2.49473,0 -4.22,-0.90171 -5.17581,-2.66455 -0.71686,-1.33303 -1.07604,-3.43402 -1.07604,-6.30296 v -9.1734 h 0.0511 v -0.10219 l -0.76946,-0.0511 a 12.93954,12.93954 0 0 0 -1.7433,0.15329 v -4.97142 h 2.50976 v -1.9988 c 0,-0.95731 -0.0511,-1.72527 -0.15329,-2.30687 h 5.94527 c -0.10219,0.64923 -0.15329,1.38262 -0.15329,2.20318 v 2.10098 m 18.18449,-0.13826 c -1.46979,0 -3.0057,0.51097 -4.61375,1.53742 v -8.96901 l 0.10219,-3.8443 h -5.84308 c 0.10219,0.54704 0.15329,1.82747 0.15329,3.8443 v 27.11141 l -0.15329,3.22813 h 5.94528 c 0,-0.1022 -0.0346,-0.51097 -0.1022,-1.23234 l -0.10219,-1.99879 v -12.6029 c 1.19627,-1.12714 2.35947,-1.69071 3.48661,-1.69071 1.29846,0 2.28884,0.64923 2.97264,1.94769 0.51097,1.02495 0.76946,2.30688 0.76946,3.84429 l -0.0511,6.91913 c 0,1.1617 -0.0857,2.76524 -0.25548,4.81813 h 6.20076 c -0.15029,-0.85361 -0.20439,-2.4256 -0.20439,-4.71444 v -7.02131 c 0,-2.97264 -0.66576,-5.50043 -1.99879,-7.58489 -1.50285,-2.40456 -3.60684,-3.5873 -6.30446,-3.5873 m 19.69335,23.10933 c -2.69912,0 -4.69791,-1.19627 -6.0114,-3.58731 -1.02494,-1.94769 -1.53742,-4.50855 -1.53742,-7.63448 v -7.02131 l -0.20438,-4.71444 h 6.14966 c -0.10219,0.75142 -0.17133,2.35947 -0.20439,4.81813 l -0.0511,6.91913 c 0,1.94769 0.22243,3.34835 0.66577,4.20197 0.51097,1.05951 1.45175,1.58851 2.81934,1.58851 0.95732,0 2.03336,-0.56357 3.22813,-1.69071 V 185.4443 a 22.37744,22.37744 0 0 0 -0.1022,-1.99879 l -0.10219,-1.22933 h 5.94527 c -0.0676,0.5816 -0.10219,1.65764 -0.10219,3.22812 v 15.69727 l 0.10219,3.84429 h -5.56054 v -1.86053 c -1.57198,1.35257 -3.24616,2.04989 -5.02253,2.04989 m 25.2028,-0.0511 a 6.0114009,6.0114009 0 0 1 -4.61225,-1.99879 v 1.8455 h -5.4328 c 0.10219,-0.5816 0.15329,-1.65764 0.15329,-3.22812 v -27.09639 l -0.15329,-3.84429 h 5.84308 c -0.0691,0.60114 -0.10219,1.8966 -0.10219,3.84429 v 8.91791 c 1.57198,-0.99188 3.1109,-1.50285 4.61375,-1.50285 2.69912,0 4.81814,1.19627 6.35705,3.58731 1.29847,2.08445 1.9477,4.61375 1.9477,7.58488 0,3.04027 -0.6838,5.68829 -2.04989,7.94407 -1.65313,2.62999 -3.82626,3.94648 -6.55994,3.94648 m -0.76946,-17.68103 c -1.12714,0 -2.30687,0.56357 -3.53621,1.69071 v 8.88184 c 1.09408,1.05951 2.17012,1.58851 3.22813,1.58851 1.33302,0 2.33993,-0.75142 3.02373,-2.20317 0.54704,-1.16171 0.82056,-2.54583 0.82056,-4.15088 0,-3.86232 -1.17824,-5.79048 -3.53621,-5.79048"
     id="path5693"
     style="stroke-width:1.50285" />
  <path
     id="path3931"
     style="fill:#8034a9;fill-opacity:1;fill-rule:evenodd;stroke:none;stroke-width:1.09176"
     d="m 162.89059,36.161087 c -36.407,0 -65.92956,29.516003 -65.929561,65.929563 0,29.12821 18.890631,53.84058 45.086371,62.55831 3.29495,0.61029 4.50513,-1.42999 4.50513,-3.17134 0,-1.57105 -0.0612,-6.7653 -0.0896,-12.27433 -18.34161,3.98821 -22.21213,-7.77881 -22.21213,-7.77881 -2.99908,-7.6194 -7.31984,-9.64674 -7.31984,-9.64674 -5.98177,-4.09192 0.44939,-4.00775 0.44939,-4.00775 6.62046,0.46508 10.10734,6.79365 10.10734,6.79365 5.88023,10.07807 15.42253,7.16527 19.18475,5.48068 0.59283,-4.26006 2.30139,-7.17035 4.18686,-8.81674 -14.6438,-1.66602 -30.03733,-7.31944 -30.03733,-32.581744 0,-7.196905 2.57459,-13.080368 6.79207,-17.697432 -0.68454,-1.660571 -2.94128,-8.365062 0.6397,-17.446342 0,0 5.53617,-1.771463 18.13403,6.758478 5.25901,-1.460778 10.89984,-2.193573 16.50278,-2.219775 5.60292,0.0262 11.24672,0.758997 16.51556,2.219775 12.58366,-8.529941 18.11325,-6.758478 18.11325,-6.758478 3.58862,9.08128 1.33063,15.785771 0.6461,17.446342 4.22731,4.617064 6.78407,10.500527 6.78406,17.697432 0,25.323434 -15.42197,30.896804 -30.1029,32.528974 2.36476,2.04597 4.47155,6.05937 4.47155,12.21036 0,8.82145 -0.0753,15.92094 -0.0753,18.09245 0,1.75555 1.18563,3.80965 4.52751,3.16333 26.18265,-8.72755 45.0496,-33.43081 45.0496,-62.5503 0,-36.41356 -29.51818,-65.929563 -65.92955,-65.929563 z M 120.81401,129.7019 c -0.28019,0.002 -0.51421,0.11768 -0.60292,0.32785 -0.15502,0.3286 0.11245,0.77536 0.59173,0.99153 0.46945,0.2249 0.98388,0.12711 1.12909,-0.2015 0.16485,-0.32863 -0.10716,-0.77967 -0.58534,-0.99474 -0.17932,-0.0843 -0.36444,-0.12444 -0.53256,-0.12314 z m 2.66278,2.26934 c -0.15797,0.003 -0.30115,0.0517 -0.41262,0.15193 -0.31879,0.29478 -0.24042,0.91094 0.19192,1.37057 0.41595,0.46072 1.03215,0.59697 1.34657,0.30546 0.32863,-0.29586 0.24523,-0.90547 -0.1871,-1.37057 -0.28302,-0.30163 -0.6372,-0.46373 -0.93877,-0.45739 z m 2.6052,3.36964 c -0.125,0.007 -0.24177,0.0447 -0.34385,0.11515 -0.41378,0.28167 -0.41354,0.98471 -0.0104,1.57208 0.40833,0.5863 1.06898,0.84941 1.47293,0.56774 0.41269,-0.28715 0.41406,-0.99037 0.0112,-1.58647 -0.31032,-0.43559 -0.7557,-0.68855 -1.13066,-0.6685 z m 3.2193,3.74708 c -0.2423,-8.2e-4 -0.45868,0.0775 -0.60771,0.23989 -0.36138,0.39849 -0.20063,1.15183 0.37583,1.68243 0.56334,0.54477 1.33225,0.65277 1.69361,0.25427 0.38429,-0.39413 0.21066,-1.15502 -0.36142,-1.68562 -0.3371,-0.32023 -0.74617,-0.48955 -1.10031,-0.49097 z m 4.74182,2.86588 c -0.53403,-0.006 -0.98082,0.22916 -1.09709,0.61891 -0.15067,0.52186 0.33702,1.12538 1.08268,1.35137 0.74678,0.21945 1.48676,-0.0129 1.64726,-0.52934 0.15502,-0.52515 -0.33332,-1.12649 -1.07791,-1.35139 -0.18805,-0.0587 -0.37693,-0.0876 -0.55494,-0.0896 z m 10.83019,0.22709 c -0.11582,-1.4e-4 -0.23483,0.009 -0.35663,0.0303 -0.76533,0.14084 -1.32002,0.68614 -1.22504,1.22984 0.0972,0.52514 0.80675,0.85411 1.57208,0.71327 0.77843,-0.14521 1.32213,-0.69073 1.22824,-1.22024 -0.0838,-0.45507 -0.59315,-0.75254 -1.21865,-0.75325 z m -5.22799,0.64611 c -0.78716,0.0142 -1.40734,0.45997 -1.40734,1.00913 0.009,0.53497 0.64787,0.9738 1.43614,0.95636 0.78389,-0.0104 1.41634,-0.46065 1.39776,-1.00434 0,-0.53934 -0.64266,-0.97646 -1.42656,-0.96115 z" />
</svg>
