<?xml version="1.0" encoding="UTF-8"?>
<svg xmlns="http://www.w3.org/2000/svg" xmlns:xlink="http://www.w3.org/1999/xlink" width="324px" height="234px" viewBox="0 0 324 234" version="1.1">
<g id="surface1">
<rect x="0" y="0" width="324" height="234" style="fill:rgb(16.470589%,18.82353%,24.313726%);fill-opacity:1;stroke:none;"/>
<path style="fill:none;stroke-width:1.021703;stroke-linecap:butt;stroke-linejoin:miter;stroke:rgb(100%,100%,100%);stroke-opacity:1;stroke-miterlimit:4;" d="M -0.94401 -1.082899 L 181.217448 -1.082899 L 181.217448 130.605469 L -0.94401 130.605469 Z M -0.94401 -1.082899 " transform="matrix(1.8,0,0,1.8,0,0)"/>
<path style=" stroke:none;fill-rule:nonzero;fill:rgb(0%,92.156863%,78.823531%);fill-opacity:1;" d="M 120.519531 44.765625 C 107.421875 57.398438 99.136719 75.847656 99.136719 96.542969 C 99.136719 124.496094 114.207031 148.40625 135.949219 159.28125 L 135.949219 159.824219 L 136.964844 159.824219 C 140.003906 161.273438 143.203125 162.382812 146.46875 163.304688 L 146.46875 175.023438 C 112.753906 166.929688 88.699219 134.300781 88.621094 96.542969 C 88.632812 88.75 89.675781 80.996094 91.722656 73.53125 L 80.84375 73.53125 C 79.046875 81.042969 78.125 88.777344 78.101562 96.542969 C 78.117188 145.132812 112.65625 185.335938 156.988281 188.375 L 156.988281 147.71875 C 158.800781 148.03125 160.597656 148.273438 162.355469 148.316406 C 164.179688 148.238281 165.84375 147.996094 167.503906 147.753906 L 167.503906 188.292969 C 211.808594 185.257812 246.335938 145.101562 246.390625 96.542969 C 246.351562 88.773438 245.417969 81.042969 243.605469 73.53125 L 232.738281 73.53125 C 234.796875 80.996094 235.847656 88.746094 235.867188 96.542969 C 235.824219 134.332031 211.765625 167.003906 178.019531 175.101562 L 178.019531 163.304688 C 181.285156 162.382812 184.484375 161.273438 187.523438 159.824219 L 188.539062 159.824219 L 188.539062 159.285156 C 210.285156 148.410156 225.351562 124.496094 225.351562 96.542969 C 225.351562 75.851562 217.066406 57.402344 203.96875 44.769531 L 185.128906 44.769531 C 202.722656 54.054688 214.832031 73.671875 214.832031 96.542969 C 214.832031 117.90625 204.261719 136.441406 188.539062 146.363281 L 188.539062 138.902344 C 192.171875 135.066406 192.375 129.269531 188.660156 124.890625 L 186.585938 122.453125 L 187.296875 117.980469 C 188.347656 111.324219 190.859375 106.316406 194.578125 103.488281 C 196.253906 102.210938 197.957031 100.75 198.359375 100.230469 C 199.257812 99.0625 199.300781 93.222656 198.441406 89.859375 C 196.078125 80.640625 183.683594 61.003906 174.539062 51.984375 C 169.34375 46.859375 165.273438 44.527344 161.339844 44.792969 C 158.980469 44.949219 156.679688 46.042969 154.199219 48.027344 C 150.898438 50.675781 142.421875 60.40625 138.414062 66.164062 C 129.855469 78.457031 125.433594 88.390625 125.433594 95.292969 C 125.433594 99.871094 125.808594 100.605469 129.429688 103.238281 C 133.4375 106.148438 135.753906 110.417969 136.96875 117.136719 L 137.933594 122.507812 L 136.414062 124.003906 C 133.914062 126.46875 132.867188 129.234375 133.167969 132.585938 C 133.375 134.890625 134.457031 137.164062 135.953125 138.890625 L 135.953125 146.363281 C 120.226562 136.4375 109.65625 117.910156 109.65625 96.542969 C 109.65625 73.667969 121.769531 54.050781 139.363281 44.769531 L 120.523438 44.769531 Z M 146.46875 125.304688 C 149.375 125.304688 151.726562 127.882812 151.726562 131.058594 C 151.726562 134.234375 149.375 136.8125 146.46875 136.8125 C 143.5625 136.8125 141.210938 134.234375 141.210938 131.058594 C 141.210938 127.882812 143.5625 125.304688 146.46875 125.304688 Z M 178.023438 125.304688 C 180.925781 125.304688 183.28125 127.882812 183.28125 131.058594 C 183.28125 134.234375 180.925781 136.8125 178.023438 136.8125 C 175.117188 136.8125 172.761719 134.234375 172.761719 131.058594 C 172.761719 127.882812 175.117188 125.304688 178.023438 125.304688 Z M 178.023438 125.304688 "/>
</g>
</svg>
