<?xml version="1.0" encoding="UTF-8" standalone="no"?>
<svg
   xmlns:osb="http://www.openswatchbook.org/uri/2009/osb"
   xmlns:dc="http://purl.org/dc/elements/1.1/"
   xmlns:cc="http://creativecommons.org/ns#"
   xmlns:rdf="http://www.w3.org/1999/02/22-rdf-syntax-ns#"
   xmlns:svg="http://www.w3.org/2000/svg"
   xmlns="http://www.w3.org/2000/svg"
   xmlns:xlink="http://www.w3.org/1999/xlink"
   xmlns:sodipodi="http://sodipodi.sourceforge.net/DTD/sodipodi-0.dtd"
   xmlns:inkscape="http://www.inkscape.org/namespaces/inkscape"
   width="324px"
   height="234px"
   version="1.1"
   id="svg2"
   sodipodi:docname="glave.svg"
   inkscape:version="0.92.4 (5da689c313, 2019-01-14)">
  <sodipodi:namedview
     pagecolor="#ffffff"
     bordercolor="#666666"
     borderopacity="1"
     objecttolerance="10"
     gridtolerance="10"
     guidetolerance="10"
     inkscape:pageopacity="0"
     inkscape:pageshadow="2"
     inkscape:window-width="1152"
     inkscape:window-height="746"
     id="namedview97"
     showgrid="false"
     inkscape:zoom="4.0341879"
     inkscape:cx="215.70982"
     inkscape:cy="28.801586"
     inkscape:window-x="0"
     inkscape:window-y="0"
     inkscape:window-maximized="1"
     inkscape:current-layer="svg2" />
  <metadata
     id="metadata8">
    <rdf:RDF>
      <cc:Work
         rdf:about="">
        <dc:format>image/svg+xml</dc:format>
        <dc:type
           rdf:resource="http://purl.org/dc/dcmitype/StillImage" />
        <dc:title />
      </cc:Work>
    </rdf:RDF>
  </metadata>
  <defs
     id="defs6">
    <linearGradient
       id="linearGradient5083">
      <stop
         style="stop-color:#9eafff;stop-opacity:0"
         offset="0"
         id="stop5079" />
      <stop
         style="stop-color:#dd15ff;stop-opacity:1"
         offset="1"
         id="stop5081" />
    </linearGradient>
    <linearGradient
       id="linearGradient5069">
      <stop
         id="stop5065"
         offset="0"
         style="stop-color:#bdc9ff;stop-opacity:1" />
      <stop
         id="stop5067"
         offset="1"
         style="stop-color:#4465ff;stop-opacity:1" />
    </linearGradient>
    <linearGradient
       osb:paint="solid"
       id="linearGradient4735">
      <stop
         id="stop4733"
         offset="0"
         style="stop-color:#bdc9ff;stop-opacity:1;" />
    </linearGradient>
    <pattern
       patternUnits="userSpaceOnUse"
       width="1.25"
       height="1"
       patternTransform="translate(0,0) scale(10,10)"
       id="Strips4_1">
      <rect
         style="fill:black;stroke:none"
         x="0"
         y="-0.5"
         width="1"
         height="2"
         id="rect3605" />
    </pattern>
    <marker
       orient="auto"
       refY="0"
       refX="0"
       id="InfiniteLineEnd"
       style="overflow:visible">
      <g
         style="fill:url(#Strips4_1);stroke:url(#Strips4_1);stroke-opacity:1;fill-opacity:1"
         id="g1172">
        <circle
           style="stroke:url(#Strips4_1);stroke-opacity:1;fill:url(#Strips4_1);fill-opacity:1"
           cx="3"
           cy="0"
           r="0.8"
           id="circle1166" />
        <circle
           style="stroke:url(#Strips4_1);stroke-opacity:1;fill:url(#Strips4_1);fill-opacity:1"
           cx="6.5"
           cy="0"
           r="0.8"
           id="circle1168" />
        <circle
           style="stroke:url(#Strips4_1);stroke-opacity:1;fill:url(#Strips4_1);fill-opacity:1"
           cx="10"
           cy="0"
           r="0.8"
           id="circle1170" />
      </g>
    </marker>
    <marker
       style="overflow:visible;"
       id="Arrow1Send"
       refX="0.0"
       refY="0.0"
       orient="auto">
      <path
         transform="scale(0.2) rotate(180) translate(6,0)"
         style="fill-rule:evenodd;stroke:#bdc9ff;stroke-width:1pt;stroke-opacity:1;fill:#bdc9ff;fill-opacity:1"
         d="M 0.0,0.0 L 5.0,-5.0 L -12.5,0.0 L 5.0,5.0 L 0.0,0.0 z "
         id="path946" />
    </marker>
    <marker
       style="overflow:visible"
       id="SquareL"
       refX="0.0"
       refY="0.0"
       orient="auto">
      <path
         transform="scale(0.8)"
         style="fill-rule:evenodd;stroke:#bdc9ff;stroke-width:1pt;stroke-opacity:1;fill:#bdc9ff;fill-opacity:1"
         d="M -5.0,-5.0 L -5.0,5.0 L 5.0,5.0 L 5.0,-5.0 L -5.0,-5.0 z "
         id="path1001" />
    </marker>
    <marker
       style="overflow:visible"
       id="DotL"
       refX="0.0"
       refY="0.0"
       orient="auto">
      <path
         transform="scale(0.8) translate(7.4, 1)"
         style="fill-rule:evenodd;stroke:#bdc9ff;stroke-width:1pt;stroke-opacity:1;fill:#bdc9ff;fill-opacity:1"
         d="M -2.5,-1.0 C -2.5,1.7600000 -4.7400000,4.0 -7.5,4.0 C -10.260000,4.0 -12.5,1.7600000 -12.5,-1.0 C -12.5,-3.7600000 -10.260000,-6.0 -7.5,-6.0 C -4.7400000,-6.0 -2.5,-3.7600000 -2.5,-1.0 z "
         id="path992" />
    </marker>
    <marker
       style="overflow:visible;"
       id="marker1391"
       refX="0.0"
       refY="0.0"
       orient="auto">
      <path
         transform="scale(0.3) rotate(180) translate(-2.3,0)"
         d="M 8.7185878,4.0337352 L -2.2072895,0.016013256 L 8.7185884,-4.0017078 C 6.9730900,-1.6296469 6.9831476,1.6157441 8.7185878,4.0337352 z "
         style="fill-rule:evenodd;stroke-width:0.625;stroke-linejoin:round;stroke:#bdc9ff;stroke-opacity:1;fill:#bdc9ff;fill-opacity:1"
         id="path1389" />
    </marker>
    <marker
       style="overflow:visible;"
       id="marker1333"
       refX="0.0"
       refY="0.0"
       orient="auto">
      <path
         transform="scale(0.3) rotate(180) translate(-2.3,0)"
         d="M 8.7185878,4.0337352 L -2.2072895,0.016013256 L 8.7185884,-4.0017078 C 6.9730900,-1.6296469 6.9831476,1.6157441 8.7185878,4.0337352 z "
         style="fill-rule:evenodd;stroke-width:0.625;stroke-linejoin:round;stroke:#bdc9ff;stroke-opacity:1;fill:#bdc9ff;fill-opacity:1"
         id="path1331" />
    </marker>
    <marker
       style="overflow:visible"
       id="Tail"
       refX="0.0"
       refY="0.0"
       orient="auto">
      <g
         style="stroke:#bdc9ff;stroke-opacity:1;fill:#bdc9ff;fill-opacity:1"
         transform="scale(-1.2)"
         id="g979">
        <path
           style="fill:#bdc9ff;fill-rule:evenodd;stroke:#bdc9ff;stroke-width:0.8;stroke-linecap:round;stroke-opacity:1;fill-opacity:1"
           d="M -3.8048674,-3.9585227 L 0.54352094,0"
           id="path967" />
        <path
           style="fill:#bdc9ff;fill-rule:evenodd;stroke:#bdc9ff;stroke-width:0.8;stroke-linecap:round;stroke-opacity:1;fill-opacity:1"
           d="M -1.2866832,-3.9585227 L 3.0617053,0"
           id="path969" />
        <path
           style="fill:#bdc9ff;fill-rule:evenodd;stroke:#bdc9ff;stroke-width:0.8;stroke-linecap:round;stroke-opacity:1;fill-opacity:1"
           d="M 1.3053582,-3.9585227 L 5.6537466,0"
           id="path971" />
        <path
           style="fill:#bdc9ff;fill-rule:evenodd;stroke:#bdc9ff;stroke-width:0.8;stroke-linecap:round;stroke-opacity:1;fill-opacity:1"
           d="M -3.8048674,4.1775838 L 0.54352094,0.21974226"
           id="path973" />
        <path
           style="fill:#bdc9ff;fill-rule:evenodd;stroke:#bdc9ff;stroke-width:0.8;stroke-linecap:round;stroke-opacity:1;fill-opacity:1"
           d="M -1.2866832,4.1775838 L 3.0617053,0.21974226"
           id="path975" />
        <path
           style="fill:#bdc9ff;fill-rule:evenodd;stroke:#bdc9ff;stroke-width:0.8;stroke-linecap:round;stroke-opacity:1;fill-opacity:1"
           d="M 1.3053582,4.1775838 L 5.6537466,0.21974226"
           id="path977" />
      </g>
    </marker>
    <marker
       style="overflow:visible"
       id="Arrow1Sstart"
       refX="0.0"
       refY="0.0"
       orient="auto">
      <path
         transform="scale(0.2) translate(6,0)"
         style="fill-rule:evenodd;stroke:#bdc9ff;stroke-width:1pt;stroke-opacity:1;fill:#bdc9ff;fill-opacity:1"
         d="M 0.0,0.0 L 5.0,-5.0 L -12.5,0.0 L 5.0,5.0 L 0.0,0.0 z "
         id="path943" />
    </marker>
    <marker
       style="overflow:visible;"
       id="Arrow2Send"
       refX="0.0"
       refY="0.0"
       orient="auto">
      <path
         transform="scale(0.3) rotate(180) translate(-2.3,0)"
         d="M 8.7185878,4.0337352 L -2.2072895,0.016013256 L 8.7185884,-4.0017078 C 6.9730900,-1.6296469 6.9831476,1.6157441 8.7185878,4.0337352 z "
         style="fill-rule:evenodd;stroke-width:0.625;stroke-linejoin:round;stroke:#bdc9ff;stroke-opacity:1;fill:#bdc9ff;fill-opacity:1"
         id="path964" />
    </marker>
    <linearGradient
       id="linearGradient908">
      <stop
         style="stop-color:#d7ff16;stop-opacity:1"
         offset="0"
         id="stop904" />
      <stop
         style="stop-color:#314e1f;stop-opacity:1"
         offset="1"
         id="stop906" />
    </linearGradient>
    <linearGradient
       id="linearGradient1120">
      <stop
         id="stop1116"
         offset="0"
         style="stop-color:#a2ff16;stop-opacity:1" />
      <stop
         id="stop1118"
         offset="1"
         style="stop-color:#194200;stop-opacity:1" />
    </linearGradient>
    <linearGradient
       id="linearGradient1100">
      <stop
         id="stop1096"
         offset="0"
         style="stop-color:#f2f9fe;stop-opacity:1;" />
      <stop
         id="stop1098"
         offset="1"
         style="stop-color:#95a9b8;stop-opacity:1" />
    </linearGradient>
    <linearGradient
       id="linearGradient1092">
      <stop
         id="stop1088"
         offset="0"
         style="stop-color:#5cffd1;stop-opacity:1;" />
      <stop
         id="stop1090"
         offset="1"
         style="stop-color:#009e71;stop-opacity:1" />
    </linearGradient>
    <linearGradient
       id="linearGradient1084">
      <stop
         id="stop1080"
         offset="0"
         style="stop-color:#ffba86;stop-opacity:1;" />
      <stop
         id="stop1082"
         offset="1"
         style="stop-color:#ff5633;stop-opacity:1" />
    </linearGradient>
    <linearGradient
       id="linearGradient1074">
      <stop
         id="stop1070"
         offset="0"
         style="stop-color:#9aaab3;stop-opacity:1" />
      <stop
         style="stop-color:#e0e5e8;stop-opacity:1"
         offset="0.37729135"
         id="stop1078" />
      <stop
         id="stop1072"
         offset="1"
         style="stop-color:#9aaab3;stop-opacity:1" />
    </linearGradient>
    <linearGradient
       id="linearGradient923">
      <stop
         id="stop919"
         offset="0"
         style="stop-color:#0cffff;stop-opacity:1" />
      <stop
         id="stop921"
         offset="1"
         style="stop-color:#703fff;stop-opacity:1" />
    </linearGradient>
    <linearGradient
       id="linearGradient866">
      <stop
         id="stop862"
         offset="0"
         style="stop-color:#c7fae0;stop-opacity:1" />
      <stop
         id="stop864"
         offset="1"
         style="stop-color:#35c0ff;stop-opacity:1" />
    </linearGradient>
    <linearGradient
       id="linearGradient1409">
      <stop
         style="stop-color:#bdc9ff;stop-opacity:1"
         offset="0"
         id="stop1405" />
      <stop
         style="stop-color:#000622;stop-opacity:1"
         offset="1"
         id="stop1407" />
    </linearGradient>
    <linearGradient
       gradientTransform="matrix(2.6666665,0,0,1,-304.26118,-9.0000038)"
       gradientUnits="userSpaceOnUse"
       y2="-130.81549"
       x2="133"
       y1="-110.02582"
       x1="133"
       id="linearGradient1040"
       xlink:href="#linearGradient908" />
    <linearGradient
       gradientTransform="translate(-2.5945525)"
       gradientUnits="userSpaceOnUse"
       y2="-213.97418"
       x2="53"
       y1="-193.18451"
       x1="53"
       id="linearGradient1056"
       xlink:href="#linearGradient1120" />
    <linearGradient
       gradientTransform="matrix(0.4887447,0,0,1,89.942653,26.999996)"
       gradientUnits="userSpaceOnUse"
       y2="-297.13287"
       x2="149"
       y1="-276.3432"
       x1="149"
       id="linearGradient1072"
       xlink:href="#linearGradient908" />
    <radialGradient
       gradientUnits="userSpaceOnUse"
       gradientTransform="matrix(1,-0.72222221,0.71779225,0.99386621,-83.981693,117.71765)"
       r="162"
       fy="117"
       fx="162"
       cy="117"
       cx="162"
       id="radialGradient868"
       xlink:href="#linearGradient866" />
    <radialGradient
       gradientUnits="userSpaceOnUse"
       gradientTransform="matrix(1,0,0,0.72222222,0,32.5)"
       r="162"
       fy="117"
       fx="162"
       cy="117"
       cx="162"
       id="radialGradient876"
       xlink:href="#linearGradient1409" />
    <linearGradient
       gradientUnits="userSpaceOnUse"
       y2="231.2793"
       x2="324"
       y1="3.7441406"
       x1="0"
       id="linearGradient905"
       xlink:href="#linearGradient923" />
    <linearGradient
       gradientUnits="userSpaceOnUse"
       y2="201.82422"
       x2="303.00159"
       y1="201.82422"
       x1="271.0016"
       id="linearGradient1076"
       xlink:href="#linearGradient1074" />
    <linearGradient
       gradientUnits="userSpaceOnUse"
       y2="216.82501"
       x2="90.73497"
       y1="186.82501"
       x1="90.73497"
       id="linearGradient1086"
       xlink:href="#linearGradient1084" />
    <linearGradient
       gradientUnits="userSpaceOnUse"
       y2="216.82501"
       x2="52.734966"
       y1="186.82501"
       x1="52.734966"
       id="linearGradient1094"
       xlink:href="#linearGradient1092" />
    <linearGradient
       gradientTransform="translate(133.72503,-80.809238)"
       gradientUnits="userSpaceOnUse"
       y2="201.82501"
       x2="46.682873"
       y1="201.82501"
       x1="14.682873"
       id="linearGradient1102"
       xlink:href="#linearGradient1100" />
    <radialGradient
       gradientUnits="userSpaceOnUse"
       r="89"
       fy="117"
       fx="162"
       cy="117"
       cx="162"
       id="radialGradient5045"
       xlink:href="#linearGradient5069" />
    <radialGradient
       gradientTransform="matrix(0.7,0,0,0.7,48.599997,35.100003)"
       r="89"
       fy="117"
       fx="162"
       cy="117"
       cx="162"
       gradientUnits="userSpaceOnUse"
       id="radialGradient5077"
       xlink:href="#linearGradient5083" />
  </defs>
  <rect
     ry="0"
     y="0"
     x="-8.4999999e-07"
     height="234"
     width="324"
     id="rect860"
     style="opacity:1;fill:url(#radialGradient876);fill-opacity:1.0;fill-rule:evenodd;stroke:none;stroke-width:1;stroke-linecap:round;stroke-linejoin:round;stroke-miterlimit:4;stroke-dasharray:none;stroke-dashoffset:0;stroke-opacity:1;paint-order:markers fill stroke" />
  <path
     id="rect815"
     d="M 45.955078 0 C 47.881312 3.5597014 49.805625 7.1220037 51.767578 10.626953 C 54.017637 14.646592 56.308554 18.601492 58.683594 22.429688 C 61.058634 26.257883 63.518206 29.959599 66.101562 33.46875 C 68.684921 36.977901 71.392567 40.294915 74.267578 43.357422 C 75.705083 44.888675 77.184893 46.356286 78.710938 47.751953 C 80.236981 49.14762 81.810547 50.470713 83.435547 51.714844 C 85.060547 52.958975 86.73633 54.124527 88.470703 55.201172 C 90.205076 56.277817 91.997399 57.266948 93.851562 58.160156 C 95.705726 59.053365 97.623051 59.849147 99.607422 60.542969 C 101.59179 61.236791 103.64258 61.828155 105.76758 62.306641 C 107.89257 62.785126 110.09115 63.151237 112.36719 63.398438 C 114.64322 63.645637 116.99805 63.773475 119.43555 63.773438 C 121.87304 63.7734 124.39323 63.645703 126.99219 63.398438 C 129.59114 63.151172 132.26758 62.785185 135.01758 62.306641 C 137.76757 61.828097 140.5918 61.236841 143.48242 60.542969 C 146.37304 59.849097 149.33073 59.051453 152.35156 58.158203 C 158.39322 56.371704 164.6836 54.203151 171.18359 51.714844 C 177.68358 49.226537 184.39259 46.417981 191.26758 43.355469 C 198.14256 40.292956 205.18491 36.975913 212.35156 33.466797 C 219.51821 29.957681 226.80862 26.257803 234.18359 22.429688 C 247.97407 15.271487 262.07891 7.6333692 276.17969 0 L 45.955078 0 z M 324 1.0546875 C 320.44026 2.9809401 316.87803 4.9071683 313.37305 6.8691406 C 309.35341 9.1191994 305.39851 11.410116 301.57031 13.785156 C 297.74212 16.160196 294.0404 18.619768 290.53125 21.203125 C 287.0221 23.786482 283.70508 26.49413 280.64258 29.369141 C 279.11132 30.806646 277.64371 32.286456 276.24805 33.8125 C 274.85238 35.338544 273.52929 36.910156 272.28516 38.535156 C 271.04103 40.160157 269.87547 41.837892 268.79883 43.572266 C 267.72218 45.306639 266.73305 47.098962 265.83984 48.953125 C 264.94664 50.807288 264.15085 52.722661 263.45703 54.707031 C 262.76321 56.691402 262.17185 58.744146 261.69336 60.869141 C 261.21487 62.994135 260.84876 65.192714 260.60156 67.46875 C 260.35436 69.744786 260.22653 72.097662 260.22656 74.535156 C 260.2266 76.97265 260.3543 79.494797 260.60156 82.09375 C 260.84883 84.692703 261.21482 87.369145 261.69336 90.119141 C 262.1719 92.869136 262.76316 95.691411 263.45703 98.582031 C 264.1509 101.47265 264.94855 104.43034 265.8418 107.45117 C 267.6283 113.49283 269.79685 119.78517 272.28516 126.28516 C 274.77346 132.78515 277.58202 139.49415 280.64453 146.36914 C 283.70704 153.24413 287.02409 160.28452 290.5332 167.45117 C 294.04232 174.61782 297.7422 181.91018 301.57031 189.28516 C 308.7285 203.0756 316.36665 217.17855 324 231.2793 L 324 1.0546875 z M 0 3.7441406 L 0 232.90625 C 3.4119532 231.0593 6.8274717 229.21482 10.1875 227.33398 C 14.207139 225.08393 18.162039 222.79106 21.990234 220.41602 C 25.81843 218.04098 29.518193 215.58336 33.027344 213 C 36.536495 210.41664 39.855462 207.70704 42.917969 204.83203 C 44.449222 203.39453 45.916833 201.91668 47.3125 200.39062 C 48.708167 198.86458 50.03126 197.29102 51.275391 195.66602 C 52.519522 194.04102 53.685074 192.36328 54.761719 190.62891 C 55.838363 188.89453 56.825542 187.10416 57.71875 185.25 C 58.611958 183.39584 59.409694 181.47851 60.103516 179.49414 C 60.797338 177.50977 61.388701 175.45703 61.867188 173.33203 C 62.345672 171.20704 62.711785 169.01041 62.958984 166.73438 C 63.206184 164.45834 63.334022 162.10351 63.333984 159.66602 C 63.333947 157.22852 63.20625 154.70833 62.958984 152.10938 C 62.711719 149.51042 62.343778 146.83203 61.865234 144.08203 C 61.38669 141.33204 60.797387 138.50976 60.103516 135.61914 C 59.409644 132.72852 58.611999 129.77083 57.71875 126.75 C 55.932251 120.70834 53.763698 114.416 51.275391 107.91602 C 48.787084 101.41603 45.978528 94.70897 42.916016 87.833984 C 39.853503 80.958998 36.53646 73.916648 33.027344 66.75 C 29.518228 59.583352 25.818351 52.29099 21.990234 44.916016 C 14.97223 31.395631 7.4825951 17.567917 0 3.7441406 z M 204.56445 170.22656 C 202.12696 170.2266 199.60677 170.3543 197.00781 170.60156 C 194.40886 170.84883 191.73242 171.21482 188.98242 171.69336 C 186.23243 172.1719 183.4082 172.76316 180.51758 173.45703 C 177.62696 174.1509 174.66927 174.94855 171.64844 175.8418 C 165.60678 177.6283 159.3164 179.79685 152.81641 182.28516 C 146.31642 184.77346 139.60741 187.58202 132.73242 190.64453 C 125.85744 193.70704 118.81509 197.02409 111.64844 200.5332 C 104.48179 204.04232 97.191381 207.7422 89.816406 211.57031 C 76.025929 218.72851 61.921089 226.36663 47.820312 234 L 278.04492 234 C 276.11869 230.4403 274.19437 226.878 272.23242 223.37305 C 269.98236 219.35341 267.69145 215.39851 265.31641 211.57031 C 262.94137 207.74212 260.48179 204.0404 257.89844 200.53125 C 255.31508 197.0221 252.60743 193.70508 249.73242 190.64258 C 248.29492 189.11132 246.81511 187.64371 245.28906 186.24805 C 243.76302 184.85238 242.18945 183.52929 240.56445 182.28516 C 238.93945 181.04103 237.26367 179.87547 235.5293 178.79883 C 233.79492 177.72218 232.0026 176.73305 230.14844 175.83984 C 228.29427 174.94664 226.37695 174.15085 224.39258 173.45703 C 222.40821 172.76321 220.35742 172.17185 218.23242 171.69336 C 216.10743 171.21487 213.90885 170.84876 211.63281 170.60156 C 209.35678 170.35436 207.00195 170.22653 204.56445 170.22656 z "
     style="opacity:1;fill:url(#linearGradient905);fill-opacity:1;fill-rule:evenodd;stroke:none;stroke-width:1.72458148;stroke-linecap:round;stroke-linejoin:round;stroke-miterlimit:4;stroke-dasharray:none;stroke-dashoffset:0;stroke-opacity:1;paint-order:markers fill stroke" />
  <path
     id="path846"
     d="m 324,0 h -5.1842 c -19.14062,5.4040967 -38.28667,10.813278 -57.00722,15.881836 -10.21149,2.764751 -20.30861,5.436884 -30.23166,7.971246 -9.92305,2.534361 -19.674,4.930004 -29.1932,7.141819 -9.51921,2.211814 -18.80591,4.240215 -27.8059,6.037326 -8.99998,1.797111 -17.71244,3.363287 -26.07782,4.653537 -4.18269,0.645125 -8.27796,1.221201 -12.28034,1.72233 -4.0024,0.501129 -7.91018,0.926737 -11.71785,1.272352 -3.8077,0.345616 -7.51622,0.611351 -11.1148,0.789931 -3.59854,0.178581 -7.08804,0.270807 -10.46304,0.270834 -3.374979,2.6e-5 -6.635521,-0.0923 -9.786961,-0.270834 -3.151424,-0.178532 -6.192912,-0.442947 -9.135206,-0.78852 -2.942308,-0.345572 -5.784562,-0.772669 -8.532152,-1.273763 -2.747588,-0.501094 -5.402354,-1.077235 -7.969652,-1.72233 -2.567298,-0.645095 -5.046272,-1.358057 -7.447722,-2.135635 -2.401434,-0.777576 -4.72446,-1.619364 -6.97446,-2.517902 -2.25,-0.898539 -4.428774,-1.854106 -6.541754,-2.862088 -2.112992,-1.007982 -4.15926,-2.067923 -6.149644,-3.173828 C 36.405635,28.7845 32.653883,26.387469 29.076923,23.853082 25.499963,21.318695 22.097103,18.646644 18.808587,15.881836 15.520069,13.117029 12.345327,10.260712 9.2298729,7.3576386 6.6256332,4.9309519 4.0717372,2.4641882 1.5144222,0 H -8.4999999e-7 V 34.536892 C 10.569281,44.720787 21.145139,54.907616 31.056493,64.867404 c 5.30046,5.32637 10.42337,10.591666 15.282152,15.76758 4.858768,5.175914 9.451606,10.262053 13.692004,15.227321 4.2404,4.965265 8.129174,9.810655 11.574514,14.505105 3.445352,4.69444 6.44796,9.23749 8.921574,13.60091 1.236808,2.1817 2.341246,4.31782 3.30199,6.4055 0.960742,2.08766 1.77941,4.12739 2.442004,6.11348 0.662594,1.98612 1.16935,3.9191 1.511724,5.79612 0.34236,1.87703 0.519174,3.69716 0.51923,5.45758 4.2e-5,1.76041 -0.176954,3.46112 -0.51923,5.10493 -0.342278,1.6438 -0.8492,3.23166 -1.511724,4.76638 -0.662524,1.53472 -1.48133,3.01584 -2.442004,4.449 -0.960674,1.43316 -2.062538,2.81788 -3.299276,4.15701 -1.236752,1.33912 -2.606316,2.63357 -4.097062,3.88618 -1.490734,1.2526 -3.104586,2.46288 -4.827226,3.63649 -1.722642,1.17362 -3.554614,2.31008 -5.48708,3.41222 -1.932452,1.10214 -3.964528,2.1709 -6.084734,3.20909 -4.240384,2.0764 -8.83318,4.03193 -13.692004,5.89768 -4.858822,1.86576 -9.984282,3.64213 -15.284852,5.35743 -5.300584,1.7153 -10.7766,3.36986 -16.342256,4.9949 -4.8530072,1.41696 -9.7854229,2.80674 -14.71423785,4.19791 V 234 H 3.7671221 c 19.5241149,-5.51297 39.0512769,-11.02942 58.1457329,-16.19922 10.21151,-2.76475 20.308624,-5.43688 30.231678,-7.97125 9.923057,-2.53435 19.671287,-4.93 29.190507,-7.14181 9.51921,-2.21182 18.80859,-4.24022 27.80858,-6.03733 8.99999,-1.79711 17.71247,-3.36329 26.07783,-4.65353 4.18269,-0.64513 8.27796,-1.22121 12.28036,-1.72234 4.0024,-0.50112 7.91015,-0.92815 11.71785,-1.27377 3.80767,-0.34561 7.51352,-0.60993 11.11207,-0.78851 3.59855,-0.17858 7.09076,-0.2708 10.46575,-0.27083 3.375,-2e-5 6.63281,0.0924 9.78425,0.27083 3.15144,0.17853 6.19561,0.44295 9.13793,0.78851 2.94229,0.34559 5.78456,0.77268 8.53215,1.27377 2.74759,0.5011 5.39964,1.07584 7.96694,1.72092 2.56731,0.6451 5.04897,1.35947 7.45042,2.13705 2.40144,0.77757 4.72445,1.61937 6.97445,2.5179 2.25,0.89854 4.4261,1.85411 6.53908,2.8621 2.11298,1.00797 4.16193,2.06791 6.15234,3.17382 3.98079,2.2118 7.72984,4.60743 11.30679,7.14181 3.57696,2.53439 6.98251,5.20785 10.27103,7.97266 3.28852,2.76481 6.46056,5.62112 9.57602,8.5242 2.71657,2.53137 5.38366,5.10409 8.05079,7.67502 H 324 v -34.53689 c -10.56929,-10.18389 -21.14513,-20.37073 -31.05649,-30.33051 -5.30047,-5.32637 -10.42337,-10.59167 -15.28215,-15.76758 -4.85877,-5.17592 -9.45162,-10.26206 -13.69201,-15.22733 -4.24039,-4.96526 -8.12917,-9.81065 -11.57451,-14.5051 -3.44535,-4.69443 -6.44796,-9.23749 -8.92158,-13.60091 -1.23681,-2.1817 -2.34124,-4.31782 -3.30199,-6.40548 -0.96075,-2.08768 -1.77941,-4.127396 -2.44201,-6.113502 -0.66261,-1.986114 -1.16935,-3.919096 -1.51172,-5.796113 -0.34236,-1.877028 -0.51918,-3.697165 -0.51922,-5.457581 -5e-5,-1.760416 0.17694,-3.46112 0.51922,-5.104923 0.34228,-1.643806 0.84921,-3.23167 1.51172,-4.766385 0.66252,-1.534723 1.48133,-3.015849 2.44201,-4.449003 0.96068,-1.433157 2.06253,-2.817889 3.29927,-4.15701 1.23675,-1.339116 2.60632,-2.633573 4.09707,-3.886176 1.49074,-1.252603 3.10457,-2.46289 4.82723,-3.636501 1.72263,-1.173611 3.5546,-2.310076 5.48707,-3.412218 1.93246,-1.102143 3.96453,-2.170894 6.08473,-3.209093 4.2404,-2.076397 8.8332,-4.03192 13.69201,-5.897678 4.85883,-1.865758 9.98429,-3.642115 15.28486,-5.357422 5.30058,-1.715306 10.7766,-3.369857 16.34226,-4.994899 4.85299,-1.416967 9.78541,-2.806749 14.71423,-4.197918 z"
     style="opacity:1;fill:url(#radialGradient868);fill-opacity:1;fill-rule:evenodd;stroke:none;stroke-width:1.72458148;stroke-linecap:round;stroke-linejoin:round;stroke-miterlimit:4;stroke-dasharray:none;stroke-dashoffset:0;stroke-opacity:1;paint-order:markers fill stroke" />
  <circle
     r="64"
     cy="117"
     cx="162"
     id="path929"
     style="opacity:1;fill:none;fill-opacity:1;fill-rule:evenodd;stroke:url(#radialGradient5045);stroke-width:50;stroke-linecap:butt;stroke-linejoin:round;stroke-miterlimit:4;stroke-dasharray:5, 5;stroke-dashoffset:0;stroke-opacity:1;paint-order:markers fill stroke" />
  <ellipse
     style="opacity:1;fill:none;fill-opacity:1;fill-rule:evenodd;stroke:url(#radialGradient5045);stroke-width:50;stroke-linecap:butt;stroke-linejoin:round;stroke-miterlimit:4;stroke-dasharray:5, 5;stroke-dashoffset:0;stroke-opacity:1;paint-order:markers fill stroke"
     id="ellipse5071"
     cx="162"
     cy="117"
     r="64" />
  <circle
     style="opacity:1;fill:none;fill-opacity:1;fill-rule:evenodd;stroke:url(#radialGradient5077);stroke-width:35;stroke-linecap:butt;stroke-linejoin:round;stroke-miterlimit:4;stroke-dasharray:3.5, 3.5;stroke-dashoffset:0;stroke-opacity:1;paint-order:markers fill stroke"
     id="circle5075"
     cx="162"
     cy="117"
     r="44.799999" />
  <rect
     ry="16.003391"
     y="176.65001"
     x="7"
     height="50.349991"
     width="310"
     id="rect1529"
     style="opacity:1;fill:#343072;fill-opacity:1;fill-rule:evenodd;stroke:none;stroke-width:1;stroke-linecap:round;stroke-linejoin:round;stroke-miterlimit:4;stroke-dasharray:none;stroke-dashoffset:0;stroke-opacity:1;paint-order:markers fill stroke" />
  <circle
     transform="rotate(45)"
     r="16"
     cy="121.01577"
     cx="164.4079"
     id="path1427"
     style="opacity:1;fill:url(#linearGradient1102);fill-opacity:1;fill-rule:evenodd;stroke:none;stroke-width:1.3264327;stroke-linecap:round;stroke-linejoin:round;stroke-miterlimit:4;stroke-dasharray:none;stroke-dashoffset:0;stroke-opacity:1;paint-order:markers fill stroke" />
  <rect
     ry="3"
     y="186.82501"
     x="52.734966"
     height="30"
     width="32"
     id="rect1429"
     style="opacity:1;fill:url(#linearGradient1094);fill-opacity:1;fill-rule:evenodd;stroke:none;stroke-width:0.95594251;stroke-linecap:round;stroke-linejoin:round;stroke-miterlimit:4;stroke-dasharray:none;stroke-dashoffset:0;stroke-opacity:1;paint-order:markers fill stroke" />
  <rect
     style="opacity:1;fill:url(#linearGradient1086);fill-opacity:1;fill-rule:evenodd;stroke:none;stroke-width:0.95594251;stroke-linecap:round;stroke-linejoin:round;stroke-miterlimit:4;stroke-dasharray:none;stroke-dashoffset:0;stroke-opacity:1;paint-order:markers fill stroke"
     id="rect1431"
     width="32"
     height="30"
     x="90.73497"
     y="186.82501"
     ry="7" />
  <path
     id="rect1433"
     d="m 273.47668,186.82422 c -1.89653,0 -2.91769,2.3187 -2.29028,5.19726 l 4.27333,19.60743 c 0.62741,2.87856 2.65973,5.19531 4.55627,5.19531 h 0.9217 12.12779 0.9217 c 1.89654,0 3.92887,-2.31675 4.55628,-5.19531 l 4.27332,-19.60743 c 0.62741,-2.87856 -0.39374,-5.19726 -2.29028,-5.19726 h -13.04949 c -0.1579,0 -0.31715,0.0216 -0.47603,0.0527 -0.15862,-0.031 -0.31718,-0.0527 -0.47482,-0.0527 z"
     style="opacity:1;fill:url(#linearGradient1076);fill-opacity:1;fill-rule:evenodd;stroke:none;stroke-width:0.75377232;stroke-linecap:round;stroke-linejoin:round;stroke-miterlimit:4;stroke-dasharray:none;stroke-dashoffset:0;stroke-opacity:1;paint-order:markers fill stroke" />
  <rect
     style="opacity:1;fill:#46419a;fill-opacity:1;fill-rule:evenodd;stroke:none;stroke-width:0.95594251;stroke-linecap:round;stroke-linejoin:round;stroke-miterlimit:4;stroke-dasharray:none;stroke-dashoffset:0;stroke-opacity:1;paint-order:markers fill stroke"
     id="rect1435"
     width="32"
     height="30"
     x="230.73499"
     y="186.82501"
     ry="7" />
  <g
     transform="translate(-3.3612962,0.06464191)"
     id="g1474">
    <path
       style="fill:none;fill-opacity:1;stroke:#e1f1fc;stroke-width:1px;stroke-linecap:butt;stroke-linejoin:miter;stroke-opacity:1"
       d="m 226,181 c -1.17449,0 -2.34999,0 -3.52648,0"
       id="path1460"
       transform="matrix(-1.7439063,-1.7439063,-1.7439063,1.7439063,956.79124,279.3642)" />
    <path
       id="path1464"
       d="m 226,181 c -1.17449,0 -2.34999,0 -3.52648,0"
       style="fill:none;fill-opacity:1;stroke:#e1f1fc;stroke-width:1px;stroke-linecap:butt;stroke-linejoin:miter;stroke-opacity:1"
       transform="matrix(-1.7439063,1.7439063,1.7439063,1.7439063,325.49712,-507.13754)" />
  </g>
</svg>
