<svg xmlns="http://www.w3.org/2000/svg" xmlns:xlink="http://www.w3.org/1999/xlink" xml:space="preserve" width="324" height="234"><defs><linearGradient id="f"><stop offset="0" stop-opacity=".25"/><stop offset="1" stop-opacity=".03"/></linearGradient><linearGradient xlink:href="#a" id="i" x1="176" x2="495" y1="799.96" y2="799.96" gradientTransform="matrix(.275 0 0 .26 64.14 -37.63)" gradientUnits="userSpaceOnUse"/><linearGradient id="c"><stop offset="0" stop-color="#5e5c64"/><stop offset="1" stop-color="#77767b"/></linearGradient><linearGradient id="d"><stop offset="0" stop-color="#c0bfbc"/><stop offset="1" stop-color="#f6f5f4"/></linearGradient><linearGradient id="b"><stop offset="0" stop-color="#424048"/><stop offset=".05" stop-color="#f6f5f4"/><stop offset=".1" stop-color="#949390"/><stop offset=".9" stop-color="#d5d3cf"/><stop offset=".95" stop-color="#f6f5f4"/><stop offset="1" stop-color="#424048"/></linearGradient><linearGradient id="a"><stop offset="0"/><stop offset=".05" stop-color="#424048"/><stop offset=".1" stop-color="#241f31"/><stop offset=".9" stop-color="#241f31"/><stop offset=".95" stop-color="#424048"/><stop offset="1"/></linearGradient><linearGradient id="g"><stop offset="0" stop-color="#949390"/><stop offset="1" stop-color="#424048"/></linearGradient><linearGradient xlink:href="#b" id="j" x1="177" x2="496" y1="619.96" y2="619.96" gradientTransform="matrix(.275 0 0 .26 64.14 -37.63)" gradientUnits="userSpaceOnUse"/><linearGradient id="e"><stop offset="0" stop-color="#f6f5f4"/><stop offset="1" stop-color="#fff"/></linearGradient><linearGradient xlink:href="#c" id="p" x1="301.62" x2="318.91" y1="113.77" y2="59.23" gradientTransform="matrix(.203 0 0 .205 94.54 106.8)" gradientUnits="userSpaceOnUse"/><linearGradient xlink:href="#d" id="n" x1="249" x2="249" y1="125" y2="-112.16" gradientTransform="matrix(.275 0 0 .268 86.13 105.22)" gradientUnits="userSpaceOnUse"/><linearGradient xlink:href="#e" id="k" x1="347" x2="323" y1="217" y2="-172" gradientTransform="matrix(.275 0 0 .268 86.13 105.22)" gradientUnits="userSpaceOnUse"/><radialGradient id="h" cx="90.14" cy="64.76" r="91.59" fx="90.14" fy="64.76" gradientTransform="matrix(1.8 0 0 1.304 0 32.12)" gradientUnits="userSpaceOnUse"><stop offset="0" stop-color="#ffd305"/><stop offset="1" stop-color="#dab400"/></radialGradient><radialGradient xlink:href="#f" id="l" cx="128" cy="199.58" r="16" fx="128" fy="199.58" gradientUnits="userSpaceOnUse"/><radialGradient xlink:href="#g" id="m" cx="127.94" cy="200.07" r="8" fx="127.94" fy="200.07" gradientTransform="translate(-48 -75.47) scale(1.376)" gradientUnits="userSpaceOnUse"/></defs><path fill="url(#h)" d="M0 0h324v234H0z"/><path fill="#463f01" d="M324 73.62 163.62 234h79.08l81.3-81.3zM81.3 0 0 81.3v79.08L160.38 0zm154.16 0-234 234h79.08l234-234z"/><g transform="matrix(1.292 0 0 1.317 -40.18 -37.1)"><rect width="87.93" height="74.94" x="112.51" y="102.01" fill="url(#i)" rx="8.79" ry="8.56" style="marker:none"/><rect width="87.93" height="74.94" x="112.51" y="95.59" fill="url(#j)" rx="8.79" ry="8.56" style="marker:none"/><rect width="87.93" height="111.34" x="112.51" y="57.05" fill="url(#k)" rx="8.79" ry="9.05" style="marker:none"/><g id="o" stroke-width=".04" display="inline" transform="matrix(.275 0 0 .268 86.13 105.22)"><circle cx="128" cy="204" r="16" fill="url(#l)" display="inline" style="marker:none"/><circle cx="128" cy="204" r="8" fill="url(#m)" style="marker:none"/></g><path fill="#9a9996" d="M132.29 61.33a4.33 4.33 0 0 0-4.4 4.28 6.51 6.51 0 0 1-6.6 6.43 4.33 4.33 0 0 0-4.39 4.28v8.56a4.33 4.33 0 0 0 4.4 4.28c3.64 0 6.6 2.88 6.6 6.43a6.33 6.33 0 0 1-1.7 4.28c-6.5 7.06-9.28 16.2-9.3 25.7 0 21.28 17.72 38.54 39.57 38.54s39.57-17.26 39.57-38.55c-.02-9.48-2.79-18.63-9.3-25.69a6.33 6.33 0 0 1-1.7-4.28 6.51 6.51 0 0 1 6.6-6.43c2.44 0 4.4-1.9 4.4-4.28v-8.56a4.33 4.33 0 0 0-4.4-4.28 6.51 6.51 0 0 1-6.59-6.43 4.33 4.33 0 0 0-4.4-4.28zm24.18 59.95a6.6 6.42 0 0 1 6.6 6.43 6.6 6.42 0 0 1-6.6 6.42 6.6 6.42 0 0 1-6.6-6.42 6.6 6.42 0 0 1 6.6-6.43z" style="marker:none"/><path fill="url(#n)" d="M132.29 59.19a4.33 4.33 0 0 0-4.4 4.28 6.51 6.51 0 0 1-6.6 6.42 4.33 4.33 0 0 0-4.39 4.29v8.56a4.33 4.33 0 0 0 4.4 4.28c3.64 0 6.6 2.88 6.6 6.43a6.33 6.33 0 0 1-1.7 4.28c-6.5 7.06-9.28 16.2-9.3 25.7 0 21.28 17.72 38.53 39.57 38.53s39.57-17.25 39.57-38.54c-.02-9.48-2.79-18.63-9.3-25.7a6.33 6.33 0 0 1-1.7-4.27 6.51 6.51 0 0 1 6.6-6.43c2.44 0 4.4-1.9 4.4-4.28v-8.56a4.33 4.33 0 0 0-4.4-4.29 6.51 6.51 0 0 1-6.59-6.42 4.33 4.33 0 0 0-4.4-4.28zm24.18 59.95a6.6 6.42 0 0 1 6.6 6.43 6.6 6.42 0 0 1-6.6 6.42 6.6 6.42 0 0 1-6.6-6.43 6.6 6.42 0 0 1 6.6-6.42z" style="marker:none"/><use xlink:href="#o" width="100%" height="100%" transform="translate(70.35)"/><use xlink:href="#o" width="100%" height="100%" transform="translate(70.35 -64.24)"/><use xlink:href="#o" width="100%" height="100%" transform="translate(70.35 -94.21)"/><use xlink:href="#o" width="100%" height="100%" transform="translate(0 -94.21)"/><use xlink:href="#o" width="100%" height="100%" transform="translate(0 -64.24)"/><path fill="url(#p)" d="M144.35 96.05c-1.83 0-3.6.43-5.24 1l8.64 8.7a4.53 4.53 0 0 1 0 6.4l-3.26 3.29a4.46 4.46 0 0 1-6.37 0l-8.64-8.7a16.2 16.2 0 0 0-1 5.28c0 8.81 7.1 15.96 15.87 15.96 1.83 0 3.6-.43 5.24-1l23.52 23.73c7.57 7.63 17.05-2.21 9.78-9.55l-23.67-23.87c.57-1.65.99-3.43.99-5.28 0-8.81-7.1-15.96-15.86-15.96z" color="#000" font-family="Sans" font-weight="400" overflow="visible" style="line-height:normal;-inkscape-font-specification:Sans;text-indent:0;text-align:start;text-decoration-line:none;text-transform:none;marker:none"/></g></svg>