<svg xmlns="http://www.w3.org/2000/svg" xmlns:xlink="http://www.w3.org/1999/xlink" width="324" height="234"><defs><path id="m" fill="none" stroke="#2b2200" stroke-width=".3034" d="M4.6437 11.693c-.9748 0-1.7666.7919-1.7666 1.7667 0 .9747.7918 1.7666 1.7666 1.7666.9747 0 1.7666-.7919 1.7666-1.7666 0-.9748-.7919-1.7667-1.7666-1.7667z" color="#000" opacity=".3" overflow="visible" style="marker:none"/></defs><defs><linearGradient id="a"><stop offset=".0376" stop-color="#e6407f"/><stop offset=".5146" stop-color="#c6d720"/><stop offset=".8132" stop-color="#2e4ed1"/></linearGradient><linearGradient xlink:href="#a" id="h" x1="200" x2="2.6054" y1="133.7222" y2="-10.1107" gradientTransform="matrix(1.62 0 0 1.62 0 17.37)" gradientUnits="userSpaceOnUse"/><linearGradient id="c"><stop offset="0" stop-color="#3d3d3d"/><stop offset=".5" stop-color="#686868" stop-opacity=".498"/><stop offset="1" stop-color="#686868" stop-opacity="0"/></linearGradient><linearGradient id="d"><stop offset="0" stop-color="#fff3cb"/><stop offset=".2624" stop-color="#fdde76"/><stop offset=".6609" stop-color="#f9c440"/><stop offset="1" stop-color="#e48b20"/></linearGradient><linearGradient xlink:href="#b" id="x" x1="71.2044" x2="71.2044" y1="15.3691" y2="40.4956" gradientTransform="translate(-4.5381 10.0657) scale(.12559)" gradientUnits="userSpaceOnUse"/><linearGradient id="b"><stop offset="0" stop-color="#fff"/><stop offset=".4245" stop-color="#fff" stop-opacity=".2353"/><stop offset=".8209" stop-color="#fff" stop-opacity=".1569"/><stop offset="1" stop-color="#fff" stop-opacity=".3922"/></linearGradient><linearGradient id="e"><stop offset="0" stop-color="#eef87e"/><stop offset=".2624" stop-color="#cde34f"/><stop offset=".6609" stop-color="#93b723"/><stop offset="1" stop-color="#5a7e0d"/></linearGradient><linearGradient xlink:href="#b" id="v" x1="71.2044" x2="71.2044" y1="15.3691" y2="40.4956" gradientTransform="translate(-3.1442 10.4273) scale(.10846)" gradientUnits="userSpaceOnUse"/><linearGradient id="f"><stop offset="0" stop-color="#5bc2ee"/><stop offset=".2624" stop-color="#42baea"/><stop offset=".705" stop-color="#3689e6"/><stop offset="1" stop-color="#2b63a0"/></linearGradient><linearGradient xlink:href="#b" id="t" x1="71.2044" x2="71.2044" y1="15.3691" y2="40.4956" gradientTransform="translate(-1.814 10.8585) scale(.08721)" gradientUnits="userSpaceOnUse"/><linearGradient xlink:href="#b" id="r" x1="71.2044" x2="71.2044" y1="15.3691" y2="40.4956" gradientTransform="translate(-.3436 11.668) scale(.0677)" gradientUnits="userSpaceOnUse"/><linearGradient xlink:href="#b" id="p" x1="71.2044" x2="71.2044" y1="15.3691" y2="40.4956" gradientTransform="translate(-1.8514 10.9982) scale(.09046)" gradientUnits="userSpaceOnUse"/><linearGradient id="g"><stop offset="0" stop-color="#90dbec"/><stop offset=".2624" stop-color="#42baea"/><stop offset=".705" stop-color="#3689e6"/><stop offset="1" stop-color="#2b63a0"/></linearGradient><linearGradient xlink:href="#b" id="n" x1="71.2044" x2="71.2044" y1="15.3691" y2="40.4956" gradientTransform="rotate(3.108 -191.6766 -56.1635) scale(.10921)" gradientUnits="userSpaceOnUse"/><linearGradient xlink:href="#b" id="k" x1="71.2044" x2="71.2044" y1="15.3691" y2="40.4956" gradientTransform="matrix(1.19013 0 0 1.18291 73.9899 93.142)" gradientUnits="userSpaceOnUse"/><radialGradient xlink:href="#c" id="i" cx="99.157" cy="186.1706" r="62.7691" fx="99.157" fy="186.1706" gradientTransform="matrix(.41956 0 0 .13492 141.3655 161.1959)" gradientUnits="userSpaceOnUse"/><radialGradient xlink:href="#c" id="j" cx="99.157" cy="186.1706" r="62.7691" fx="99.157" fy="186.1706" gradientTransform="matrix(.32048 0 0 .10306 99.002 169.886)" gradientUnits="userSpaceOnUse"/><radialGradient xlink:href="#d" id="w" cx="4.6306" cy="11.979" r="1.7096" fx="4.6306" fy="11.979" gradientTransform="matrix(3.10626 0 0 1.97231 -9.9166 -12.1117)" gradientUnits="userSpaceOnUse"/><radialGradient xlink:href="#e" id="u" cx="4.6306" cy="11.979" r="1.7096" fx="4.6306" fy="11.979" gradientTransform="matrix(2.83677 0 0 2.37855 -8.503 -16.8139)" gradientUnits="userSpaceOnUse"/><radialGradient xlink:href="#f" id="s" cx="4.6755" cy="11.9255" r="1.7096" fx="4.6755" fy="11.9255" gradientTransform="matrix(2.4585 0 0 2.06137 -6.9627 -12.8101)" gradientUnits="userSpaceOnUse"/><radialGradient xlink:href="#d" id="q" cx="4.6306" cy="11.349" r="1.7096" fx="4.6306" fy="11.349" gradientTransform="matrix(3.57892 0 0 1.91037 -12.0619 -10.073)" gradientUnits="userSpaceOnUse"/><radialGradient xlink:href="#e" id="o" cx="4.653" cy="11.8185" r="1.7096" fx="4.653" fy="11.8185" gradientTransform="matrix(2.6465 0 0 2.219 -7.6317 -14.4698)" gradientUnits="userSpaceOnUse"/><radialGradient xlink:href="#g" id="l" cx="4.7575" cy="11.811" r="1.7096" fx="4.7575" fy="11.811" gradientTransform="matrix(2.56598 .13994 -.11734 2.1515 -6.066 -14.3805)" gradientUnits="userSpaceOnUse"/></defs><path fill="url(#h)" fill-rule="evenodd" d="M0 0v234h324V0h-45z" paint-order="markers fill stroke"/><path fill="url(#i)" d="M209.3036 186.3136a26.3356 8.4687 0 0 1-52.6711 0 26.3356 8.4687 0 1 1 52.6711 0z" opacity=".6967"/><path fill="url(#j)" d="M150.8968 189.0722a20.1165 6.4688 0 0 1-40.233 0 20.1165 6.4688 0 1 1 40.233 0z" opacity=".3"/><path fill="#4d4d4d" d="M170.75 105.7082c10.7829 6.1268 14.527 19.7817 8.3628 30.4991-6.1641 10.7174-19.9024 14.4389-30.6852 8.312-10.7828-6.1268-14.527-19.7817-8.3628-30.4991 6.1642-10.7174 19.9025-14.4388 30.6853-8.312z"/><path fill="none" stroke="#2b2200" stroke-width="3.2967" d="M159.446 102.6698c-12.5799 0-22.7993 10.1574-22.7993 22.661 0 12.5034 10.2194 22.6608 22.7993 22.6608 12.5798 0 22.7992-10.1574 22.7992-22.6609s-10.2194-22.661-22.7992-22.661z" color="#000" opacity=".3" overflow="visible" style="marker:none"/><path fill="none" stroke="url(#k)" stroke-linecap="round" stroke-linejoin="round" stroke-width="3.2517" d="M178.8972 125.1898c0 10.6784-8.7094 19.3349-19.453 19.3349-10.7434 0-19.453-8.6565-19.453-19.335 0-10.6784 8.7096-19.3349 19.453-19.3349 10.7436 0 19.453 8.6565 19.453 19.335z" color="#000" opacity=".5" overflow="visible" style="marker:none"/><path fill="#e6e6e6" d="M151.0748 129.8957h1.776v-3.156h1.188c1.908 0 3.432-.912 3.432-2.94 0-2.1-1.512-2.796-3.48-2.796h-2.916zm1.776-4.56v-2.916h1.008c1.224 0 1.872.348 1.872 1.38 0 1.02-.588 1.536-1.812 1.536zm6.084 4.56h1.764v-6.72h-1.764zm.888-7.812c.6 0 1.02-.372 1.02-.96 0-.576-.42-.96-1.02-.96-.624 0-1.02.384-1.02.96 0 .588.396.96 1.02.96zm5.688 7.98c.828 0 1.68-.288 2.34-.744l-.6-1.08c-.492.3-.96.456-1.5.456-1.008 0-1.728-.564-1.872-1.656h4.14c.048-.168.084-.492.084-.816 0-1.872-.96-3.216-2.808-3.216-1.596 0-3.132 1.356-3.132 3.528 0 2.22 1.464 3.528 3.348 3.528zm-1.668-4.212c.144-.972.768-1.476 1.476-1.476.876 0 1.272.576 1.272 1.476z" aria-label="Pie" font-weight="700" style="-inkscape-font-specification:&quot;sans-serif Bold&quot;"/><path fill="url(#l)" d="M5.5028 11.9591c.8196.4686 1.1042 1.5127.6357 2.3323-.4686.8195-1.5127 1.1041-2.3323.6356-.8195-.4685-1.1041-1.5127-.6356-2.3322.4685-.8196 1.5127-1.1042 2.3322-.6357Z" transform="matrix(10.88132 -.58984 .59344 10.81532 124.5327 26.9983)"/><use xlink:href="#m" stroke-width=".3034" color="#000" overflow="visible" style="marker:none" transform="matrix(10.88132 -.58984 .59344 10.81532 124.5327 26.9983)"/><path fill="none" stroke="url(#n)" stroke-linecap="round" stroke-linejoin="round" stroke-width=".2993" d="M6.0714 13.4489c0 .7886-.6393 1.4279-1.4279 1.4279-.7885 0-1.4278-.6393-1.4278-1.428 0-.7885.6393-1.4278 1.4278-1.4278.7886 0 1.428.6393 1.428 1.4279z" color="#000" opacity=".5" overflow="visible" style="marker:none" transform="matrix(10.88132 -.58984 .59344 10.81532 124.5327 26.9983)"/><path fill="url(#o)" d="M5.5028 11.9591c.8196.4686 1.1042 1.5127.6357 2.3323-.4686.8195-1.5127 1.1041-2.3323.6356-.8195-.4685-1.1041-1.5127-.6356-2.3322.4685-.8196 1.5127-1.1042 2.3322-.6357Z" transform="matrix(13.15702 0 0 13.07723 155.1946 -47.0577)"/><path fill="none" stroke="#2b2200" stroke-width=".2513" d="M4.6437 11.7268c-.9562 0-1.7329.7767-1.7329 1.7329 0 .956.7767 1.7328 1.7329 1.7328.9561 0 1.7328-.7767 1.7328-1.7328 0-.9562-.7767-1.7329-1.7328-1.7329z" color="#000" opacity=".3" overflow="visible" style="marker:none" transform="matrix(13.15702 0 0 13.07723 155.1946 -47.0577)"/><path fill="none" stroke="url(#p)" stroke-linecap="round" stroke-linejoin="round" stroke-width=".2479" d="M6.122 13.4489c0 .8165-.6619 1.4785-1.4785 1.4785-.8165 0-1.4785-.662-1.4785-1.4785 0-.8166.662-1.4785 1.4785-1.4785.8166 0 1.4786.662 1.4786 1.4785z" color="#000" opacity=".5" overflow="visible" style="marker:none" transform="matrix(13.15702 0 0 13.07723 155.1946 -47.0577)"/><path fill="url(#q)" d="M5.5028 11.9591c.8196.4686 1.1042 1.5127.6357 2.3323-.4686.8195-1.5127 1.1041-2.3323.6356-.8195-.4685-1.1041-1.5127-.6356-2.3322.4685-.8196 1.5127-1.1042 2.3322-.6357Z" transform="matrix(17.58028 0 0 17.47365 110.72 -165.2063)"/><path fill="none" stroke="#2b2200" stroke-width=".1881" d="M4.6437 11.7498c-.9435 0-1.7099.7664-1.7099 1.7099 0 .9434.7664 1.7098 1.7099 1.7098.9434 0 1.7098-.7664 1.7098-1.7098 0-.9435-.7664-1.7099-1.7098-1.7099z" color="#000" opacity=".3" overflow="visible" style="marker:none" transform="matrix(17.58028 0 0 17.47365 110.72 -165.2063)"/><path fill="none" stroke="url(#r)" stroke-linecap="round" stroke-linejoin="round" stroke-width=".1855" d="M6.1217 13.4489c0 .8163-.6618 1.4781-1.4782 1.4781-.8163 0-1.4781-.6618-1.4781-1.4781 0-.8164.6618-1.4782 1.4781-1.4782.8164 0 1.4782.6618 1.4782 1.4782z" color="#000" opacity=".5" overflow="visible" style="marker:none" transform="matrix(17.58028 0 0 17.47365 110.72 -165.2063)"/><path fill="url(#s)" d="M5.5028 11.9591c.8196.4686 1.1042 1.5127.6357 2.3323-.4686.8195-1.5127 1.1041-2.3323.6356-.8195-.4685-1.1041-1.5127-.6356-2.3322.4685-.8196 1.5127-1.1042 2.3322-.6357Z" transform="matrix(13.646 0 0 13.56323 62.6275 -103.8545)"/><path fill="none" stroke="#2b2200" stroke-width=".2423" d="M4.6437 11.7419c-.9478 0-1.7178.77-1.7178 1.7178s.77 1.7178 1.7178 1.7178 1.7178-.77 1.7178-1.7178c0-.9479-.77-1.7178-1.7178-1.7178z" color="#000" opacity=".3" overflow="visible" style="marker:none" transform="matrix(13.646 0 0 13.56323 62.6275 -103.8545)"/><path fill="none" stroke="url(#t)" stroke-linecap="round" stroke-linejoin="round" stroke-width=".239" d="M6.104 13.4489c0 .8065-.6539 1.4604-1.4605 1.4604-.8065 0-1.4604-.6539-1.4604-1.4604 0-.8066.6539-1.4604 1.4604-1.4604.8066 0 1.4605.6538 1.4605 1.4604z" color="#000" opacity=".5" overflow="visible" style="marker:none" transform="matrix(13.646 0 0 13.56323 62.6275 -103.8545)"/><path fill="url(#u)" d="M5.5028 11.9591c.8196.4686 1.1042 1.5127.6357 2.3323-.4686.8195-1.5127 1.1041-2.3323.6356-.8195-.4685-1.1041-1.5127-.6356-2.3322.4685-.8196 1.5127-1.1042 2.3322-.6357Z" transform="matrix(10.97297 0 0 10.90642 53.3395 -16.9563)"/><use xlink:href="#m" stroke-width=".3014" color="#000" overflow="visible" style="marker:none" transform="matrix(10.97297 0 0 10.90642 53.3395 -16.9563)"/><path fill="none" stroke="url(#v)" stroke-linecap="round" stroke-linejoin="round" stroke-width=".2972" d="M6.0714 13.4489c0 .7886-.6393 1.4279-1.4279 1.4279-.7885 0-1.4278-.6393-1.4278-1.428 0-.7885.6393-1.4278 1.4278-1.4278.7886 0 1.428.6393 1.428 1.4279z" color="#000" opacity=".5" overflow="visible" style="marker:none" transform="matrix(10.97297 0 0 10.90642 53.3395 -16.9563)"/><path fill="url(#w)" d="M5.5028 11.9591c.8196.4686 1.1042 1.5127.6357 2.3323-.4686.8195-1.5127 1.1041-2.3323.6356-.8195-.4685-1.1041-1.5127-.6356-2.3322.4685-.8196 1.5127-1.1042 2.3322-.6357Z" transform="matrix(9.47648 0 0 9.419 86.3282 43.8082)"/><use xlink:href="#m" stroke-width=".3489" color="#000" overflow="visible" style="marker:none" transform="matrix(9.47648 0 0 9.419 86.3282 43.8082)"/><path fill="none" stroke="url(#x)" stroke-linecap="round" stroke-linejoin="round" stroke-width=".3442" d="M6.0714 13.4489c0 .7886-.6393 1.4279-1.4279 1.4279-.7885 0-1.4278-.6393-1.4278-1.428 0-.7885.6393-1.4278 1.4278-1.4278.7886 0 1.428.6393 1.428 1.4279z" color="#000" opacity=".5" overflow="visible" style="marker:none" transform="matrix(9.47648 0 0 9.419 86.3282 43.8082)"/></svg>