<svg xmlns="http://www.w3.org/2000/svg" xmlns:xlink="http://www.w3.org/1999/xlink" width="324" height="234"><defs><linearGradient id="j"><stop offset="0" stop-color="#c83737"/><stop offset="1" stop-color="#501616"/></linearGradient><linearGradient id="i"><stop offset="0" stop-color="green"/><stop offset="1" stop-color="#003700"/></linearGradient><linearGradient id="h"><stop offset="0" stop-color="#fc0"/><stop offset="1" stop-color="#ac7d00"/></linearGradient><linearGradient id="p"><stop offset="0" stop-color="#fefbf8"/><stop offset="1" stop-color="#e7d7c6"/></linearGradient><linearGradient id="g"><stop offset="0" stop-color="#747474"/><stop offset="1" stop-color="#757575"/></linearGradient><linearGradient id="f"><stop offset="0" stop-color="#a2a2a2"/><stop offset="1" stop-color="#212121"/></linearGradient><linearGradient id="e"><stop offset="0" stop-color="#a2a2a2"/><stop offset="1" stop-color="#373737" stop-opacity="0"/></linearGradient><linearGradient id="n"><stop offset="0" stop-color="#646464"/><stop offset="1" stop-color="#b3b3b3" stop-opacity=".955"/></linearGradient><linearGradient id="m"><stop offset="0" stop-color="#9d9d9d"/><stop offset="1" stop-color="#7b7b7b" stop-opacity=".939"/></linearGradient><linearGradient id="d"><stop offset="0" stop-color="#444d16"/><stop offset="1" stop-color="#809129"/></linearGradient><linearGradient id="l"><stop offset="0" stop-color="#fff"/><stop offset=".709" stop-color="gray" stop-opacity=".843"/><stop offset="1" stop-color="#696969"/></linearGradient><linearGradient id="k"><stop offset="0" stop-color="#b0b0b0"/><stop offset="1" stop-color="#404040" stop-opacity=".882"/></linearGradient><linearGradient id="c"><stop offset="0" stop-color="#060606"/><stop offset="1" stop-opacity=".61"/></linearGradient><linearGradient id="b"><stop offset="0" stop-color="#555"/><stop offset=".349" stop-color="#9a9a9a"/><stop offset="1" stop-color="#555"/></linearGradient><linearGradient id="a"><stop offset="0" stop-color="#9b9b9b"/><stop offset="1" stop-color="#555"/></linearGradient><linearGradient id="o"><stop offset="0" stop-color="#facf3d"/><stop offset="1" stop-color="#ee9700"/></linearGradient><linearGradient xlink:href="#a" id="w" x1="83.26" x2="215.486" y1="117" y2="170.033" gradientTransform="matrix(.836 0 0 .836 -35.471 -33.004)" gradientUnits="userSpaceOnUse"/><linearGradient xlink:href="#b" id="x" x1="94.333" x2="125.51" y1="41.049" y2="82.983" gradientTransform="translate(-.683 1.344)" gradientUnits="userSpaceOnUse"/><linearGradient xlink:href="#c" id="y" x1="90.845" x2="131.686" y1="42.16" y2="83" gradientTransform="translate(-1.013 1.013)" gradientUnits="userSpaceOnUse"/><linearGradient xlink:href="#d" id="B" x1="61.163" x2="88.774" y1="44.41" y2="52.467" gradientTransform="translate(-35.471 -18.478) scale(1.355)" gradientUnits="userSpaceOnUse"/><linearGradient xlink:href="#e" id="G" x1="59.31" x2="68.745" y1="177.153" y2="186.588" gradientTransform="translate(-187.407 -271.333) scale(1.355)" gradientUnits="userSpaceOnUse"/><linearGradient xlink:href="#f" id="D" x1="56.299" x2="71.757" y1="174.141" y2="189.599" gradientTransform="translate(-23.764 -163.986) scale(1.355)" gradientUnits="userSpaceOnUse"/><linearGradient xlink:href="#g" id="C" x1="57.045" x2="71.514" y1="177.164" y2="186.037" gradientTransform="translate(-23.764 -163.986) scale(1.355)" gradientUnits="userSpaceOnUse"/><linearGradient xlink:href="#h" id="s" x1="135.104" x2="142.324" y1="64.485" y2="64.485" gradientTransform="matrix(-.311 2.463 0 2.667 184.378 -447.635)" gradientUnits="userSpaceOnUse"/><linearGradient xlink:href="#i" id="t" x1="135.104" x2="142.324" y1="58.515" y2="58.515" gradientTransform="matrix(-.311 2.463 0 2.667 184.378 -447.635)" gradientUnits="userSpaceOnUse"/><linearGradient xlink:href="#j" id="r" x1="135.104" x2="142.324" y1="70.456" y2="70.456" gradientTransform="matrix(-.311 2.463 0 2.667 184.378 -447.635)" gradientUnits="userSpaceOnUse"/><radialGradient xlink:href="#k" id="A" cx="110.252" cy="63.594" r="6.145" fx="110.252" fy="63.594" gradientUnits="userSpaceOnUse"/><radialGradient xlink:href="#l" id="z" cx="116.397" cy="69.739" r="19.318" fx="116.397" fy="69.739" gradientTransform="matrix(.904 -1.178 1.15 .883 -69.077 145.337)" gradientUnits="userSpaceOnUse"/><radialGradient xlink:href="#m" id="F" cx="63.864" cy="180.839" r="4.475" fx="63.864" fy="180.839" gradientTransform="matrix(-1.004 1.849 -1.65 -.896 264.479 18.934)" gradientUnits="userSpaceOnUse"/><radialGradient xlink:href="#n" id="E" cx="65.917" cy="184.314" r="6.983" fx="65.917" fy="184.314" gradientTransform="matrix(1.44 -.716 .583 1.173 -137.844 -83.082)" gradientUnits="userSpaceOnUse"/><radialGradient xlink:href="#o" id="u" cx="90.995" cy="53.131" r="44.102" fx="90.995" fy="53.131" gradientTransform="matrix(1.072 -1.31 2.034 1.664 -126.523 88.93)" gradientUnits="userSpaceOnUse"/><radialGradient xlink:href="#p" id="q" cx="100" cy="27.262" r="100" fx="100" fy="27.262" gradientTransform="matrix(1 0 0 .722 0 41.81)" gradientUnits="userSpaceOnUse"/><filter id="v" width="1.022" height="1.032" x="-.011" y="-.016" color-interpolation-filters="sRGB"><feGaussianBlur stdDeviation=".445"/></filter></defs><path fill="url(#q)" fill-rule="evenodd" d="M0-10.722h200v144.444H0z" paint-order="markers fill stroke" transform="matrix(1.62 0 0 1.62 0 17.37)"/><g fill-rule="evenodd" paint-order="markers fill stroke"><path fill="url(#r)" d="m140.638 78.338 1.686-1.394V65.002Z" transform="matrix(-11.219 32.41 -13.566 0 2640.531 -4378.691)"/><path fill="url(#s)" d="m140.076 78.802.562-.464 1.686-13.336V53.061l-.562.464-1.686 13.336z" transform="matrix(-11.219 32.41 -13.566 0 2640.531 -4378.691)"/><path fill="url(#t)" d="m141.762 53.525-1.686 1.394v11.942z" transform="matrix(-11.219 32.41 -13.566 0 2640.531 -4378.691)"/></g><g paint-order="markers fill stroke" transform="matrix(1.62 0 0 1.62 0 17.37)"><rect width="119.492" height="79.145" x="40.255" y="25.264" fill="url(#u)" fill-rule="evenodd" ry="18.605"/><circle cx="62.976" cy="82.398" r="11.92" fill="none" stroke="#bca254" stroke-dasharray=".83624946,3.34499786" stroke-linecap="round" stroke-linejoin="bevel" stroke-width=".836"/><path fill="#404040" fill-rule="evenodd" d="M85.224 35.17a15.56 15.56 0 0 0-15.595 15.594v35.152a15.56 15.56 0 0 0 15.595 15.595h64.12a15.56 15.56 0 0 0 15.595-15.595V50.764a15.56 15.56 0 0 0-15.595-15.595zm2.285 4.53h59.55c.932 0 1.842.094 2.72.273a13.39 13.39 0 0 1 6.81 3.662 13.468 13.468 0 0 1 2.88 4.28c.34.805.603 1.652.782 2.53a13.6 13.6 0 0 1 .273 2.72v30.35a13.6 13.6 0 0 1-.273 2.72 13.387 13.387 0 0 1-5.654 8.451 13.396 13.396 0 0 1-4.818 2.021 13.62 13.62 0 0 1-2.72.273h-59.55a13.6 13.6 0 0 1-2.72-.273 13.39 13.39 0 0 1-6.81-3.662 13.469 13.469 0 0 1-2.88-4.279 13.387 13.387 0 0 1-.782-2.53 13.621 13.621 0 0 1-.273-2.72V53.164c0-.933.094-1.842.273-2.72a13.387 13.387 0 0 1 5.654-8.45 13.397 13.397 0 0 1 4.818-2.022 13.621 13.621 0 0 1 2.72-.273z" filter="url(#v)" transform="translate(-58.886 -27.745) scale(1.355)"/><path fill="url(#w)" fill-rule="evenodd" d="M109.798-.069c-.47-.035-.956.02-1.433.18-19.27 6.285-40.621 13.362-60.754 20.459-6.336 2.508-13.456 10.91-13.456 19.982v48.57a21.5 21.5 0 0 0 21.548 21.549H144.3a21.5 21.5 0 0 0 21.548-21.548V40.552A21.5 21.5 0 0 0 144.3 19.003H74.814l35.858-12.008a3.621 3.621 0 0 0 2.288-4.594 3.623 3.623 0 0 0-3.162-2.47zM58.86 25.264h82.282c1.289 0 2.545.13 3.759.377a18.501 18.501 0 0 1 6.657 2.793 18.599 18.599 0 0 1 5.02 5.02 18.51 18.51 0 0 1 3.17 10.415v41.936c0 1.289-.131 2.545-.378 3.759a18.496 18.496 0 0 1-5.06 9.409 18.598 18.598 0 0 1-5.913 3.979 18.5 18.5 0 0 1-3.496 1.081 18.83 18.83 0 0 1-3.759.377H58.86a18.82 18.82 0 0 1-3.758-.377 18.5 18.5 0 0 1-6.658-2.793 18.599 18.599 0 0 1-5.02-5.02 18.512 18.512 0 0 1-3.169-10.415V43.87c0-1.289.13-2.545.377-3.758a18.497 18.497 0 0 1 5.06-9.41 18.6 18.6 0 0 1 2.752-2.267 18.525 18.525 0 0 1 2.702-1.504l3.61-1.209c.115-.026.23-.056.346-.08a18.82 18.82 0 0 1 3.758-.377z"/><path fill="#555" fill-rule="evenodd" d="M146.649 52.286v25.102h10.27V52.286z"/><g fill-rule="evenodd"><path fill="#c83737" d="M146.72 68.882h9.782v8.089h-9.781z"/><path fill="#fc0" d="M146.72 60.793h9.782v8.089h-9.781z"/><path fill="green" d="M146.72 52.704h9.782v8.089h-9.781z"/></g><g fill-rule="evenodd" transform="translate(-29.618 -21.315) scale(1.355)"><circle cx="110.252" cy="63.594" r="23.617" fill="url(#x)"/><circle cx="110.252" cy="63.594" r="20.42" fill="url(#y)" opacity=".5"/><circle cx="110.252" cy="63.594" r="19.318" fill="url(#z)" opacity=".5"/><circle cx="110.252" cy="63.594" r="6.145" fill="url(#A)" stroke="#34363a" stroke-width=".617" opacity=".5"/></g><path fill="url(#B)" fill-rule="evenodd" d="M46.761 41.057h38.032v11.752H46.761z"/><path fill="#7eb836" fill-rule="evenodd" d="M47.388 41.684h36.986v10.707H47.388z"/><circle cx="62.976" cy="82.398" r="9.933" fill="url(#C)" fill-rule="evenodd" stroke="url(#D)" stroke-width=".418"/><circle cx="62.976" cy="82.398" r="9.46" fill="url(#E)" fill-rule="evenodd"/><path fill="url(#F)" fill-rule="evenodd" stroke="url(#G)" stroke-width=".656" d="M-94.604-24.95a6.063 6.063 0 0 1-6.063 6.063 6.063 6.063 0 0 1-6.062-6.062 6.063 6.063 0 0 1 6.062-6.063 6.063 6.063 0 0 1 6.063 6.063h-6.063z" transform="rotate(-141.3)"/><path fill="#444d16" fill-rule="evenodd" d="M57.687 42.567v1.295h-.323v.324h.323v1.295h-.323v.323h.323v.324h.324v-3.561zm-.323 3.237h-.972v.324h.972zm-.972 0v-1.942h-.323v1.942zm0-1.942h.972v-.325h-.972zm5.828-1.295v.647h.323v-.647zm1.618 0v3.56h.324v-.323h.323v-.323h-.323v-1.295h.323v-.324h-.323v-1.295zm.647 1.295h.972v-.325h-.972Zm.972 0v1.942h.323v-1.942zm0 1.942h-.972v.324h.972zM48.624 42.89v.324h1.295v-.324zm1.295.324v.648h.324v-.648zm-1.295 0h-.323v2.59h.323zm0 2.59v.324h.97v-.324zm.97 0h.325v.324h.324v-1.619h-.972v.323h.648v.649h-.325zm1.619-2.267v.325h1.295v-.325zm1.295.325v1.942h.323v-1.942zm0 1.942h-1.295v.324h1.295zm-1.295 0v-1.942h-.324v1.942zm2.59-2.267v.325h1.295v-.325zm1.295.325v1.942h.324v-1.942zm0 1.942h-1.295v.324h1.295zm-1.295 0v-1.942h-.323v1.942zm4.856-2.267v.972h.323v-.972zm.323.972v.972h.324v-.972zm.324.972v.647h.647v-.647zm.647 0h.325v-.972h-.325zm.325-.972h.323v-.972h-.323Zm1.618-.972v.325h.324v1.942h-.649v.324h1.619v-.324h-.647v-2.267zm4.854 0v.325h1.296v-.325zm1.296.325v.647H66.75v-.647h-.323v1.942h.323v-.972h1.619v-.97zm-1.296 1.942v.324h1.296v-.324zm1.296 0h.323v-.323h-.323Zm1.295-2.267v.325h1.295v-.325zm1.295.325v.324h.323v-.324zm-1.295 0h-.324v.647h.324zm0 .647v.323h.647v-.323zm.647.323v.324h.648v-.324zm.648.324v.648h.323v-.648zm0 .648h-1.295v.324h1.295zm-1.295 0v-.323h-.324v.323zm-8.583 1.78v3.561h.323V49.85h.324v-.323h-.324v-1.942zm.647 1.943h.323v-.324h-.323Zm.323-.324h.323v-.323h-.323Zm.323-.323h.325v-.325h-.325Zm-.646.97v.323h.323v-.323zm.323.323v.325h.323v-.325zm.323.325v.324h.325v-.324Zm.325.324v.323h.324v-.323zm1.942-3.237v.646h.324v-.646zm1.619 0v3.56h.323v-.323h.324v-.324h-.324v-1.295h.324v-.323h-.324v-1.295zm.647 1.295h.972v-.325h-.972zm.972 0v1.942h.323V48.88Zm0 1.942h-.972v.323h.972zm-8.74-2.914v.323h.647v-.323zm.647.323v.649h.323v-.649zm.323.649v.647h-1.295v-.647h-.324v2.265h.324V49.85h1.295v1.295h.323V48.88Zm-1.295 0h.325v-.649h-.325zm12.949-.972v.323h.646v2.59h-.646v.324h1.618v-.323h-.647v-2.59h.647v-.324zm10.358 0v.323h1.295v-.323zm1.295.323v.972h.324v-.972zm0 .972h-.972v.324h.972zm0 .324v1.295h.324v-1.295zm0 1.295h-1.295v.323h1.295zm-1.295 0v-.649h-.323v.649zm0-2.59h-.323v.648h.323zm-17.803.323v.325h.323v1.942h-.648v.323h1.619v-.323h-.647v-2.267zm4.854 0v.325h1.295v-.325zm1.295.325v.647H68.85v.323h1.295v.648h-.323v.324h.323v.323h.324V48.88Zm-.323 1.942h-.972v.323h.972zm-.972 0v-.972h-.323v.972zm0-1.942h-.323v.323h.323zm7.446-.325v2.59h.324V48.88h.647v-.325zm.97.325v2.265h.326V48.88Zm.326 0h.646v-.325h-.646zm.646 0v2.265h.324V48.88Zm.647-.325v3.237h.325v-.97h.324v-.324h-.324v-1.295h.324v-.323h-.324v-.325zm.649.325h.97v-.325h-.97zm.97 0v1.942h.325V48.88Zm0 1.942h-.97v.323h.97zm-6.15-.324v.647H75v-.647Z"/></g></svg>