<svg xmlns="http://www.w3.org/2000/svg" xmlns:xlink="http://www.w3.org/1999/xlink" width="324" height="234"><defs><path id="c" fill-opacity=".1" d="M0 0h324v234H0z"/></defs><defs><filter id="b" width="1" height="1" x="0" y="0" filterUnits="objectBoundingBox"><feColorMatrix in="SourceGraphic" values="0 0 0 0 1 0 0 0 0 1 0 0 0 0 1 0 0 0 1 0"/></filter><filter id="i" width="1.299" height="1.556" x="-.149" y="-.278" color-interpolation-filters="sRGB"><feGaussianBlur stdDeviation="6.973"/></filter><filter id="j" width="1.423" height="1.939" x="-.211" y="-.47" color-interpolation-filters="sRGB"><feGaussianBlur stdDeviation="8.024"/></filter><filter id="k" width="1.3" height="1.621" x="-.15" y="-.31" color-interpolation-filters="sRGB"><feGaussianBlur stdDeviation="8.024"/></filter><linearGradient id="a"><stop offset="0" stop-color="#fff" stop-opacity=".245"/><stop offset="1" stop-color="#5299dc" stop-opacity=".016"/></linearGradient><linearGradient id="d" x1="-.944" x2="0" y1="130.605" y2="0" gradientTransform="scale(1.8)" gradientUnits="userSpaceOnUse"><stop offset="0" stop-color="#5299dc"/><stop offset="1" stop-color="#15426b"/></linearGradient><linearGradient xlink:href="#a" id="h" x1="163.689" x2="308.572" y1="108.519" y2="218.572" gradientUnits="userSpaceOnUse"/><mask id="e"><g filter="url(#b)"><use xlink:href="#c" fill-opacity=".1"/></g></mask><mask id="f"><g filter="url(#b)"><use xlink:href="#c" fill-opacity=".1"/></g></mask><mask id="g"><g filter="url(#b)"><use xlink:href="#c" fill-opacity=".1"/></g></mask></defs><path fill="url(#d)" d="M0 0h324v234H0z"/><use xlink:href="#d" mask="url(#e)"/><use xlink:href="#f" mask="url(#f)"/><use xlink:href="#h" mask="url(#g)"/><path fill="url(#h)" d="M324 134.62c-2.57-1.465-5.142-2.915-8.727-4.983-9.454-5.455-22.726-13.409-36.294-21.852a1256.983 1256.983 0 0 1-20.135-12.781c-6.492-4.215-12.616-8.3-17.934-12.004a412.244 412.244 0 0 1-13.787-10.031c-3.956-3.003-7.356-5.685-10.453-8.106-3.097-2.42-5.889-4.58-8.629-6.537-2.74-1.957-5.428-3.712-8.314-5.326a80.202 80.202 0 0 0-9.16-4.371 83.84 83.84 0 0 0-9.915-3.29 78.188 78.188 0 0 0-10.285-2c-3.449-.427-6.899-.605-10.283-.497a58.049 58.049 0 0 0-9.922 1.176 62.908 62.908 0 0 0-9.549 2.79c-3.136 1.187-6.233 2.622-9.312 4.282-3.08 1.66-6.141 3.546-9.21 5.637-3.067 2.09-6.142 4.387-9.107 6.935-2.964 2.548-5.818 5.349-8.449 8.451a64.753 64.753 0 0 0-3.764 4.885 60.408 60.408 0 0 0-3.34 5.373 58.477 58.477 0 0 0-5.068 12.356 65.93 65.93 0 0 0-1.566 7.02 76.41 76.41 0 0 0-.871 7.442 82.669 82.669 0 0 0-.164 7.696c.064 2.587.25 5.188.556 7.773a79.963 79.963 0 0 0 1.287 7.68 72.241 72.241 0 0 0 2.036 7.412 62.414 62.414 0 0 0 2.79 6.975 52.243 52.243 0 0 0 3.563 6.363c1.318 2 2.767 3.868 4.332 5.637a61.018 61.018 0 0 0 5.035 5.033 85.387 85.387 0 0 0 5.66 4.615 140.033 140.033 0 0 0 6.206 4.375c4.3 2.878 8.91 5.719 13.724 8.764 4.815 3.045 9.834 6.296 14.951 9.994 5.117 3.698 10.333 7.841 15.621 12.322 5.29 4.481 10.652 9.298 16.063 14.338 5.411 5.04 10.87 10.306 16.355 15.682l.155.152H324Z"/><path fill="#f8f8f8" d="M194.503 117c0 17.949-14.558 32.507-32.503 32.507-17.949 0-32.507-14.558-32.507-32.507 0-17.944 14.558-32.503 32.507-32.503 17.945 0 32.503 14.559 32.503 32.503m0 0"/><path fill="#1e9cc7" d="M188.085 117c0 14.406-11.679 26.084-26.085 26.084S135.911 131.406 135.911 117c0-14.406 11.683-26.084 26.089-26.084 14.406 0 26.085 11.678 26.085 26.084m0 0"/><path fill="#1e9cc7" d="M187.998 117c0 14.356-11.641 25.995-25.998 25.995-14.357 0-25.998-11.64-25.998-25.995 0-14.351 11.641-25.995 25.998-25.995 14.352 0 25.998 11.64 25.998 25.995m0 0"/><path fill="#fdd107" d="M180.138 94.176c3.35 2.687 6.435 6.187 8.359 10.088 1.911 3.876 2.85 8.22 2.85 12.841 0 4.049-.758 7.895-2.24 11.412a29.636 29.636 0 0 1-6.32 9.375c-2.653 2.661-6.768 5.086-10.27 6.584-2.867 1.21-4.449 1.61-7.687 1.876l-25.145 42.287C146.733 190.832 154.235 192 162 192c41.422 0 75-33.574 75-74.992a74.858 74.858 0 0 0-3.568-22.823zm0 0"/><path fill="#4cb547" d="M110.74 62.29C96.142 75.973 87 95.42 87 117.007c0 35.738 25.026 65.634 58.493 73.162l27.107-45.75c-4 1.557-8.219 2.32-12.536 2.042-4.317-.283-8.639-1.658-12.635-3.977-3.501-2.024-6.467-4.597-8.766-7.642a29.989 29.989 0 0 1-4.989-10.189c-.972-3.63-1.29-7.43-.815-11.21.379-3.082 1.643-5.937 3.056-8.868h.103l-25.273-42.287Zm0 0"/><path fill="#de2126" d="M162 42.008c-22.056 0-41.916 9.502-55.63 24.659l26.699 45.943c.663-4.243 2.191-8.334 4.585-11.922 2.405-3.602 5.68-6.664 9.68-8.966 3.514-2.037 7.222-3.315 11.008-3.77 3.782-.473 7.679-.165 11.308.813 3.63.97 7.044 2.59 10.089 4.892 2.488 1.86 4.395 4.445 6.216 7.136l49.204-.101C227.702 67.13 197.807 42 161.996 42Zm0 0"/><path fill="#f8f8f8" d="M191.343 117c0 16.215-13.137 29.344-29.343 29.344S132.653 133.207 132.653 117c0-16.203 13.14-29.344 29.347-29.344 16.214 0 29.343 13.141 29.343 29.344m0 0"/><path fill="#3a7de3" d="M184.822 117c0 12.61-10.212 22.824-22.822 22.824S139.174 129.61 139.174 117c0-12.61 10.216-22.824 22.826-22.824 12.61 0 22.822 10.214 22.822 22.824m0 0"/><path fill="#fff" fill-opacity=".992" d="M182.527 247.828c-4.84.227-9.922 1.461-14.863 3.817-6.969-2.356-31.539-4.446-33.734 15.445-4.993-.664-17.93 2.82-18.723 11.512l-7.789 1.824c8.289 16.058 30.008 27.515 55.523 27.515 26.567 0 49.032-12.418 56.489-29.52-4.567-1.16-9.172-2.335-9.887-2.448 4.672-17.2-9.7-28.973-26.996-28.153zm0 0" filter="url(#i)" transform="translate(0 -114)"/><path fill="#fff" fill-rule="evenodd" d="M66.375 292.223a19.28 9.99 0 0 0-18.184 6.705 18.58 17.528 0 0 0-5.302-.744 18.58 17.528 0 0 0-18.58 17.527 18.58 17.528 0 0 0 18.58 17.528A18.58 17.528 0 0 0 51.926 331a23.663 8.413 0 0 0 16.027 2.239 23.663 8.413 0 0 0 23.662-8.414 23.663 8.413 0 0 0-.35-1.383 24.539 10.692 0 0 0 7.792-6.412 18.755 9.465 0 0 0 16.396-9.381 18.755 9.465 0 0 0-18.756-9.465 18.755 9.465 0 0 0-11.459 1.978 19.28 9.99 0 0 0-18.863-7.939z" filter="url(#j)" paint-order="markers stroke fill" transform="matrix(1.025 0 0 .865 -1.72 -73.608)"/><path fill="#fff" fill-rule="evenodd" d="M55.964 179.71a19.28 9.99 0 0 0-18.184 6.705 18.58 17.528 0 0 0-5.302-.744 18.58 17.528 0 0 0-18.58 17.528 18.58 17.528 0 0 0 18.58 17.527 18.58 17.528 0 0 0 9.037-2.238 23.663 8.413 0 0 0 16.027 2.238 23.663 8.413 0 0 0 23.662-8.414 23.663 8.413 0 0 0-.35-1.383 24.539 10.692 0 0 0 7.792-6.412 18.755 9.465 0 0 0 16.396-9.381 18.755 9.465 0 0 0-18.756-9.465 18.755 9.465 0 0 0-11.459 1.979 19.28 9.99 0 0 0-18.863-7.94zm193.278 37.817a27.141 15.114 0 0 0 25.597-10.143 26.154 26.516 0 0 0 7.465 1.125 26.154 26.516 0 0 0 26.155-26.515 26.154 26.516 0 0 0-26.155-26.516 26.154 26.516 0 0 0-12.722 3.386 33.31 12.728 0 0 0-22.561-3.386 33.31 12.728 0 0 0-33.31 12.73 33.31 12.728 0 0 0 .493 2.091 34.543 16.175 0 0 0-10.967 9.7 26.401 14.319 0 0 0-23.082 14.192 26.401 14.319 0 0 0 26.403 14.318 26.401 14.319 0 0 0 16.13-2.993 27.141 15.114 0 0 0 26.554 12.011z" paint-order="markers stroke fill"/><path fill="#fff" fill-rule="evenodd" d="M244.128 331.608a27.141 15.114 0 0 0 25.597-10.143 26.154 26.516 0 0 0 7.464 1.126 26.154 26.516 0 0 0 26.156-26.516 26.154 26.516 0 0 0-26.156-26.516 26.154 26.516 0 0 0-12.721 3.386 33.31 12.728 0 0 0-22.562-3.386 33.31 12.728 0 0 0-33.309 12.73 33.31 12.728 0 0 0 .492 2.091 34.543 16.175 0 0 0-10.967 9.7 26.401 14.319 0 0 0-23.081 14.192 26.401 14.319 0 0 0 26.402 14.319 26.401 14.319 0 0 0 16.131-2.994 27.141 15.114 0 0 0 26.554 12.011z" filter="url(#k)" paint-order="markers stroke fill" transform="matrix(1 0 0 .94 0 -97.743)"/><path fill="#fff" fill-opacity=".992" d="M181.868 133.828c-4.926.227-10.099 1.461-15.128 3.817-7.093-2.356-32.102-4.446-34.337 15.445-5.081-.664-18.25 2.82-19.057 11.512l-7.928 1.824c8.437 16.058 30.544 27.515 56.515 27.515 27.04 0 49.907-12.418 57.497-29.52-4.648-1.16-9.336-2.335-10.064-2.448 4.756-17.2-9.872-28.973-27.478-28.153zm0 0"/><path fill="#8ccbff" fill-rule="evenodd" d="m75.647 23.925-2.135-2.882-3.583.125 2.08-2.92-1.226-3.37 3.42 1.077 2.826-2.208.033 3.586 2.973 2.005-3.4 1.14z" paint-order="fill markers stroke"/><path fill="#cbe8ff" fill-rule="evenodd" d="m39.028 31.264-1.157-1.562-1.942.068 1.127-1.583-.664-1.827 1.854.584 1.531-1.197.018 1.944 1.612 1.087-1.843.617z" paint-order="fill markers stroke"/><path fill="#cbf6ff" fill-rule="evenodd" d="m281.242 38.748-2.862-1.736-3.052 1.373.766-3.258-2.249-2.479 3.336-.277 1.662-2.906 1.295 3.087 3.276.683-2.535 2.185z" paint-order="fill markers stroke"/><path fill="#41afd1" fill-rule="evenodd" d="m72.639 82.016-2.603-1.276-2.527 1.422.409-2.87-2.133-1.963 2.856-.499 1.208-2.634 1.356 2.561 2.88.335-2.018 2.082z" paint-order="fill markers stroke"/></svg>