<svg xmlns="http://www.w3.org/2000/svg" xmlns:xlink="http://www.w3.org/1999/xlink" width="324" height="234" viewBox="0 0 324 234"><defs><linearGradient id="d"><stop offset="0" stop-color="#ccc"/><stop offset="1" stop-color="#a5a5a5"/></linearGradient><linearGradient id="c"><stop offset="0" stop-color="#db4533"/><stop offset="1" stop-color="#c23322"/></linearGradient><linearGradient id="b"><stop offset="0" stop-color="#8fb3fa"/><stop offset="1" stop-color="#4481f6"/></linearGradient><linearGradient id="e"><stop offset="0" stop-color="#89a6dd"/><stop offset="1" stop-color="#507acd"/></linearGradient><linearGradient id="a"><stop offset="0" stop-color="#fada80"/><stop offset="1" stop-color="#f4b500"/></linearGradient><linearGradient xlink:href="#a" id="f" x1="260.44" x2="380.837" y1="193.044" y2="193.044" gradientTransform="matrix(.9021 0 0 .9021 -150.282 -24.008)" gradientUnits="userSpaceOnUse"/><linearGradient xlink:href="#b" id="g" x1="100.392" x2="188.096" y1="64.911" y2="64.911" gradientTransform="matrix(.99999 0 0 .99999 -1.202 -12.159)" gradientUnits="userSpaceOnUse"/><linearGradient xlink:href="#c" id="h" x1="188.096" x2="254.452" y1="70.053" y2="70.053" gradientTransform="matrix(.99999 0 0 .99999 -1.202 -12.159)" gradientUnits="userSpaceOnUse"/><linearGradient xlink:href="#d" id="i" x1="380.863" x2="433.432" y1="155.416" y2="155.416" gradientTransform="matrix(.9021 0 0 .9021 -150.282 -24.008)" gradientUnits="userSpaceOnUse"/><linearGradient xlink:href="#e" id="j" x1="276.548" x2="332.364" y1="128.468" y2="128.468" gradientTransform="matrix(.9021 0 0 .9021 -150.282 -24.008)" gradientUnits="userSpaceOnUse"/></defs><path fill="#fff" d="M0 0h324v234H0z"/><path fill="url(#f)" d="M149.544 96.68H84.743s-3.414 42.461 33.845 77.595c33.939 31.983 74.683 29.262 74.683 29.262v-63.035c-21.41 0-43.727-17.806-43.727-43.822Z" class="st0"/><path fill="url(#g)" d="M185.296 8.821c-7.25.025-37.762 1.719-61.987 27.26-21.696 22.554-23.63 51.005-23.63 51.005l.024.004c-.002.011-.858 5.181-.357 9.592h50.194l-.025-.004c-.26-21.24 16.374-37.469 37.377-37.469V8.85s-.56-.031-1.596-.028Zm-36.154 87.785s-.933-.2 0 0Z"/><path fill="url(#h)" d="M189.843 23.886c-1.066-.022-2.098-.002-2.951.094v35.23s31.004-.645 32.436 32.699h33.893s3.055-54.444-56.661-67.5c0 0-3.518-.456-6.717-.523Z"/><path fill="url(#i)" d="m219.333 91.883.025.01c-.626 16.128-14.393 22.664-14.393 22.664s-4.893 3.343-11.671 2.77v23.176c34.012-.955 45.11-31.745 46.184-40.052l-.022-.009c1.691-5.46 1.191-8.559 1.191-8.559h-21.289Z"/><path fill="#9f9f9f" d="M204.964 114.557s-4.891 3.342-11.671 2.771v23.176Zm14.37-22.673h21.316s.499 3.103-1.198 8.568c-4.46-1.931-20.118-8.568-20.118-8.568Z" class="st6"/><path fill="url(#j)" d="M99.707 87.086s-.859 5.18-.358 9.594h50.194Z" class="st2"/><path fill="#af362b" d="m186.898 59.21 9.664-34.798s-6.251-.813-9.668-.43Z" class="st3"/></svg>