<svg xmlns="http://www.w3.org/2000/svg" xmlns:xlink="http://www.w3.org/1999/xlink" viewBox="0 0 85.725002 61.912502" height="234" width="324"><defs><linearGradient id="g"><stop offset="0" stop-color="#ccc"/><stop offset="1" stop-color="#a5a5a5"/></linearGradient><linearGradient id="f"><stop offset="0" stop-color="#db4533"/><stop offset="1" stop-color="#c23322"/></linearGradient><linearGradient id="e"><stop offset="0" stop-color="#8fb3fa"/><stop offset="1" stop-color="#4481f6"/></linearGradient><linearGradient id="d"><stop offset="0" stop-color="#89a6dd"/><stop offset="1" stop-color="#507acd"/></linearGradient><linearGradient id="c"><stop offset="0" stop-color="#fada80"/><stop offset="1" stop-color="#f4b500"/></linearGradient><linearGradient id="b"><stop offset="0" stop-color="#fff"/><stop offset="1" stop-opacity="0"/></linearGradient><linearGradient xlink:href="#c" id="i" x1="260.43988" y1="193.04439" x2="380.83665" y2="193.04439" gradientUnits="userSpaceOnUse"/><linearGradient xlink:href="#d" id="m" x1="276.5481" y1="128.46821" x2="332.36401" y2="128.46821" gradientUnits="userSpaceOnUse"/><linearGradient xlink:href="#e" id="j" x1="100.3917" y1="64.910993" x2="188.0957" y2="64.910993" gradientUnits="userSpaceOnUse"/><linearGradient xlink:href="#f" id="k" x1="188.0957" y1="70.052524" x2="254.45211" y2="70.052524" gradientUnits="userSpaceOnUse"/><linearGradient xlink:href="#g" id="l" x1="380.86259" y1="155.41609" x2="433.43179" y2="155.41609" gradientUnits="userSpaceOnUse"/><clipPath clipPathUnits="userSpaceOnUse" id="h"><use xlink:href="#a"/></clipPath></defs><path fill="#fff" paint-order="fill markers stroke" d="M-.00000186-2.8e-7h85.725006v61.912502h-85.725006z"/><g clip-path="url(#h)" transform="matrix(.23868 0 0 .23868 15.49482202 -18.41821563)"><g id="a"><path class="st0" d="M332.36498 133.78552H260.5306s-3.78354 47.06937 37.51792 86.01604c37.62375 35.45417 82.78813 32.43792 82.78813 32.43792v-69.87646c-23.73313 0-48.47167-19.73792-48.47167-48.5775z" fill="url(#i)" stroke-width=".264583" transform="translate(-238.72536 60.90645)"/><path d="M186.5 20.980469c-7.24951.02447-37.76232 1.718089-61.98828 27.259765-21.69596 22.555201-23.62891 51.00586-23.62891 51.00586l.0234.0039c-.002.01126-.8581 5.181036-.35742 9.591796H150.74411l-.0254-.004c-.2604-21.240434 16.37451-37.468649 37.37699-37.468649V21.007812s-.56006-.03084-1.5957-.02734zm-36.1543 87.785151s-.93259-.19887 0 0z" transform="translate(-73.46388 74.038341) scale(1.10853)" fill="url(#j)" stroke-width=".238679"/><path d="M191.04688 36.044922c-1.06623-.02238-2.0979-.0017-2.95118.09375v35.230469s31.00543-.644285 32.4375 32.699219h33.89258s3.05547-54.44424-56.66211-67.500001c0 0-3.51812-.456309-6.71679-.523437z" transform="translate(-73.46388 74.038341) scale(1.10853)" fill="url(#k)" stroke-width=".238679"/><path d="M409.72773 128.46821l.0281.0108c-.69374 17.87783-15.9546 25.1238-15.9546 25.1238s-5.42447 3.70511-12.93864 3.07011v25.69106c37.70312-1.05833 50.0053-35.19001 51.19593-44.39751-.006-.003-.0174-.008-.0238-.0108 1.87438-6.05198 1.32071-9.48746 1.32071-9.48746h-23.59958z" fill="url(#l)" stroke-width=".264583" transform="translate(-238.72536 60.90645)"/><path class="st6" d="M393.80123 153.60281s-5.42396 3.70417-12.93812 3.06917v25.69104zm15.92792-25.13542h23.62729s.55563 3.43959-1.32291 9.49854c-4.94771-2.14312-22.30438-9.49854-22.30438-9.49854z" fill="#9f9f9f" stroke-width=".264583" transform="translate(-238.72536 60.90645)"/><path class="st2" d="M277.11901 123.15009s-.9525 5.74146-.39688 10.63625h55.64188z" fill="url(#m)" stroke-width=".264583" transform="translate(-238.72536 60.90645)"/><path class="st3" d="M373.7713 92.246761l10.71563-38.576251s-6.93208-.899584-10.71563-.47625z" fill="#af362b" stroke-width=".264583" transform="translate(-238.72536 60.90645)"/></g></g></svg>