<svg xmlns="http://www.w3.org/2000/svg" xmlns:xlink="http://www.w3.org/1999/xlink" viewBox="0 0 324 234">
  <defs>
    <linearGradient id="a">
      <stop offset="0" stop-color="#717171"/>
      <stop offset="1" stop-color="#323232"/>
    </linearGradient>
    <linearGradient id="b">
      <stop offset="0" stop-color="#353535"/>
      <stop offset="1" stop-color="#1c1c1c"/>
    </linearGradient>
    <linearGradient xlink:href="#a" id="d" x1="54.8" x2="183.3" y1="117" y2="117" gradientTransform="translate(-46)" gradientUnits="userSpaceOnUse"/>
    <radialGradient xlink:href="#a" id="e" cx="109.7" cy="114.1" r="68" fx="109.7" fy="114.1" gradientTransform="translate(-18.1 49.4) scale(.60895)" gradientUnits="userSpaceOnUse"/>
    <radialGradient xlink:href="#b" id="c" cx="-72.9" cy="204.2" r="162" fx="-72.9" fy="204.2" gradientTransform="matrix(1 0 0 .72222 235 -30.5)" gradientUnits="userSpaceOnUse"/>
  </defs>
  <path fill="url(#c)" d="M0 0h324v234H0z"/>
  <path fill="#ff7d00" d="M0 0v234h9.4l-.6-.6L123.3 119 40.6 36 76.7 0H0z"/>
  <path fill="none" stroke="#dfdfdf" stroke-width="2.2" d="M143.6 145.2h150.9v67.4H143.6z"/>
  <path fill="none" stroke="#dfdfdf" stroke-width="8.3" d="M147 153h143"/>
  <path fill="none" stroke="#dfdfdf" stroke-width="2.8" d="M147 160.7h143m-143 5.5h143m-143 5.6h143m-143 4.4h143"/>
  <path fill="none" stroke="#dfdfdf" stroke-width="3.5" d="M206.5 136.7h25.7"/>
  <path fill="url(#d)" d="M76.7 0 40.6 36.1l82.7 82.8L8.8 233.4l.6.6h14l-.6-.6L137.3 119 54.6 36 90.7 0Z"/>
  <path fill="#dfdfdf" d="M226 73.4c-.3 0-1.3 2-2.2 4.6-1.6 4.3-1.7 4.5-4 4.5-1.2 0-2.3.3-2.3.7 0 .4.8.7 1.8.7s1.7.2 1.7.4l-1.7 6.3c-2.2 7.6-2.4 13-.4 15 1.6 1.6 2.5 1.8 3.2.6.3-.4.2-.6-.1-.4-.4.3-1.1.2-1.7-.2-1.6-1-1-7.9 1.2-14.7 2-5.8 2-6 4.8-6.7l2.8-.9h-2.3c-2.7 0-2.7-.3-.8-4.7 1.3-3.2 1.4-5.2 0-5.2zm-51.5 2.9c-3 0-6.4 1.7-9.9 4.9-9 8.2-11 19.6-4.5 25.6a15.5 15.5 0 0 0 16.4 2.4 20 20 0 0 0 5-3.7l2-2.2-3.1 2.1c-6.2 4.1-11.7 4.7-16.7 1.7-3.5-2.2-4.7-4.6-4.7-9.5a20 20 0 0 1 5.9-14c3.5-3.7 6.6-5.3 10.4-5.3 5 0 7.5 5.4 4.3 9.4-.8 1-1.3 2-1.1 2.3.8.8 2.6-.5 3.7-2.9a7 7 0 0 0-2.5-9.3 8.7 8.7 0 0 0-5.2-1.5zM265 87c-.4 0-.7.2-1 .6-1 1-.5 2.5.7 2.5.3 0 .8-.5 1-1 .5-1.2 0-2-.7-2zm41 4c-.4 0-.9.2-1.7.8-1 .6-1.8 1.5-1.8 1.8 0 .4-.4.7-.7.7-.4 0-.7-.7-.7-1.5 0-2.2-1-.8-2 2.7-1 3.4-1.1 8-.2 8 .3 0 .8-.9 1-2 .7-2.3 4.3-7.6 6-8.5.7-.4 1.6-.5 1.9-.2.3.2 0-.1-.6-.9-.5-.6-.8-1-1.2-1zm-93.9.6c-.8 0-1.7 0-2.5.4-1.5.5-1.4 3.6.4 8.3 1.7 4.4 1.1 7.4-1.5 7.4-1.9 0-3-2.4-2.1-4.2.6-1.2.5-1.3-.3-1-1.7.6-1.4 4.2.5 5.5 1.9 1.3 3.3 1.4 5 .1 1.8-1.3 1.7-5-.3-9.7-1.4-3.4-1.5-4.2-.7-5.1.5-.7 1.5-1 2.2-.8.7.2 1.1 0 1-.3-.3-.4-1-.6-1.7-.6zm77.3 1.1c-3.2 0-6.7 4.8-5.5 8.6.5 1.6 3.5 2.8 6 2.3.9-.2 2.7-1 4-1.7 1.2-.8 2.6-2 3-2.7.6-1.2.1-1-3 .7-3.5 2-8.3 2.9-8.3 1.6 0-.3 1.5-1.6 3.2-2.8 3.3-2.4 4-4.5 2-5.6a3 3 0 0 0-1.4-.4zm-58 .5c-1.6 0-2.9 1-3.7 3-1.5 3.5-1.2 5.6.8 7 2.3 1.5 4.7.5 6.7-2.9.8-1.4 2-2.5 2.7-2.5.6 0 1.9-.5 2.8-1.1 1.6-1.2 1.7-1.1 1.2 0l-.9 5c-.5 4.8.3 5 3.2.7 3-4.2 3.8-4.6 3.2-1.6-.3 1.8-.1 2.6.7 3.3 1 .8 1.4.7 3-.9 2.6-2.4 3.7-2.3 3.7.3 0 2.7 1.1 4.9 2.5 4.9.5 0 1-.3 1-.7 0-.3-.4-.8-.8-.9-.5-.2-1-1.8-1.3-3.7-.3-2.8-.6-3.5-1.8-3.7-.8-.1-2 .4-2.7 1.2-2 2.1-2.7 1.8-2.2-1 .4-2 .3-2.3-1.1-2.7-1.2-.3-2 0-2.5.8-3 4.2-3 4.2-2.6.3.3-2 .3-3.7.1-3.7L240 96c-3 1.5-3 1.5-4.2 0-1.5-1.7-3.1-2.6-4.6-2.6zm58.4.4c1.3 0 .8 1-1.2 3-2.1 2-3 2.4-3 1.2 0-1 3.3-4.2 4.2-4.2zm-11.9.1c-5 0-5.7 1.2-1 1.5l3.4.2-5 4c-2.8 2.4-5 4.5-4.7 4.8.2.3 1 .3 1.6-.1.9-.6 1.8-.5 3.6.3 3.1 1.3 5.2 1.4 6.2.2.6-.7.4-.8-1.2-.6-1 .1-3-.2-4.3-.7l-2.3-1 4-3.3c2.1-2 4-3.8 4-4.3 0-.6-1.4-1-4.3-1zm-15 .3c-.5 0-1 1.5-2.2 6.8-.8 3.3 1.6 5 4.6 3.3 1.3-.6 5.6-6.3 5.6-7.4a22 22 0 0 0-3.9 3.2c-2.1 2-4 3.5-4.3 3.3-.2-.3 0-2.2.5-4.3.7-2.8.7-4.1.2-4.7l-.4-.2zm-74.8.4c-.3 0-.7 0-1 .2-1.1.4-1.2.6-.4 1.1.8.5.9 1 .2 2.5-1 2.3-1 4 0 5.1 1 1 1 1 3.3-.2a11 11 0 0 0 2.8-2c.8-1 1.2-.9 3 1 1.2 1.1 2.6 2 3.3 2 1.6 0 4-1.7 5.8-4.3l1.6-2.3-2.6 2c-3.7 2.8-5.8 3.4-6.9 2.1-.7-.8-.7-1.6-.1-3.2 1.3-3.5-.8-3.4-4.6.4-4.7 4.6-6.2 4.4-3.9-.6 1.1-2.3.8-3.8-.5-3.8zm45 .3c.5 0 1 .5 1.2 1.2.2.9-.2 1.2-1.3 1.2-1 0-1.4-.3-1.2-1.2.1-.7.7-1.2 1.2-1.2zm-3 2.2c.4 0 .8.2 1.5.5 2.5.9 2.7 2 .7 4s-4.2 1.8-4.2-.5c0-1 .3-2.3.7-3 .4-.7.7-1 1.3-1zM104.3 59.7a23 23 0 0 1-14-20.4c-.7-11 4.3-20.1 13.6-24.4a26.3 26.3 0 0 1 25 2.3c2.8 2.2 6 6.7 6.9 9.5.5 2 .3 2-4.5 2-4.6 0-5.5-.3-8-2.8a10.2 10.2 0 0 0-7.2-3.2c-11.6-1-18.8 10.6-13.4 21.7a13 13 0 0 0 22 2.4c1-1.3 1.8-2.7 1.8-3.1 0-.4-2.8-.8-6.2-.8H114V34h24l-.5 4.7c-2 15.4-9.8 22.8-23.9 22.8-3.5 0-6.8-.7-9.4-1.8zm97 .1c-4.2-2-7-4.7-8.7-9.1-1.1-2.6-1.4-7-1.4-20.2V13.7h10.6v15.9c0 17 .5 19.5 4.2 21.2 4.2 2 10.8.3 12.1-3 .3-.8.6-8.8.6-17.8V13.7h10.6v17c0 18.5-.7 21.8-5.4 26.1a22.6 22.6 0 0 1-22.5 3zm-56.2-22.7V13.7h12.7c11.6 0 13 .1 16.6 2 5.2 2.7 7.9 7.5 8 13.7 0 5.5-1.5 8.8-5.4 12l-2.7 2.3 5.3 8a87 87 0 0 1 5.4 8.5c0 .2-2.6.4-5.7.4h-5.7l-4.7-7.5-4.7-7.5h-8.5v15h-10.6zm24.8-2.6c1.2-1 1.8-2.7 1.8-5 0-5-3-7-10.3-7h-5.7V37l6.2-.3c4.4-.3 6.6-.9 8-2zm70 2.6V13.7h12c12.8 0 15.5.6 19.3 4.2 4.6 4.4 5 12.7.7 16.6-1.8 1.5-1.8 1.6.4 3.3 7.3 5.7 6.1 16.5-2.3 20.8-3.5 1.8-5.1 2-17 2h-13zm25.4 12.5c1.7-2.4 1.5-4.6-.5-6.7-1.5-1.4-3-1.8-8-1.8h-6.2V52l6.7-.4c5.4-.2 7-.7 8-2zM263 30.9c1.6-2 1.3-5.8-.5-7.2-1-.7-3.9-1.2-6.8-1.2h-5.1v9.8h5.6c4 0 6-.4 6.8-1.4z"/>
  <path fill="url(#e)" d="M26.9 155.7a4 4 0 0 1-1-2.7c0-.4.5-2 1.4-4.6l1.5-4.3c0-.4-.4-.8-1.4-1.7a33 33 0 0 1-2.5-2.6 8.1 8.1 0 0 0-1.5-1.4c-.2-.1-1.9.4-4.3 1.2-2.2.8-4.3 1.5-4.7 1.5-.8 0-2.2-.5-2.9-1.1a73 73 0 0 1-4.2-10.3 4 4 0 0 1 1.4-3c.3-.2 2.3-1.3 4.4-2.2l4-2v-5.6l-.1-2.2a40 40 0 0 0-4-2c-2.4-1.2-4-2.1-4.3-2.5-.8-.7-1.4-2.2-1.2-3.1.1-.4 1-2.8 2.2-5.3l2-4.8 1-.4c1.4-.8 1.9-.7 6.6 1 2.6.9 4.3 1.4 4.5 1.3.1 0 1-.8 1.7-1.6a39 39 0 0 1 3.7-3.7c.1-.2-.4-2-1.1-4l-1.5-4.4c-.3-1 0-2.2.6-3.1.6-.7 1-1 5.2-2.7l5.4-2c1 0 2.3.6 3 1.3a37 37 0 0 1 2.2 4.4l1.9 4H47l3.7.1c1.3.1 1.8 0 2-.2.3-.2 1.3-2 2.3-4 2-4 2.3-4.6 3.5-5 1.4-.7 2-.5 7 1.7l4.7 2 .6.9c.9 1.4.8 2-.8 6.6l-1.5 4.4c0 .4.3.7 1.4 1.7a35.2 35.2 0 0 1 4 4.2l4.1-1.3c2.3-.8 4.4-1.5 4.9-1.5 1-.1 2.3.4 3 1.3.4.4 1.3 2.4 2.4 5.1 1.9 4.7 2 5.1 1.3 6.6-.4 1-1.2 1.6-5.3 3.5l-4 2v6c-.2 1-.2 1.6 0 1.8l4.2 2.3c4.3 2.1 5 2.6 5.2 4 .3 1.2 0 2-2 6.7l-2 4.5-.9.5c-1.5 1-1.8 1-6.7-.8l-4.6-1.5-1.4 1.4c-.6.8-1.8 2-2.6 2.6a8 8 0 0 0-1.5 1.5c0 .2.5 2 1.3 4.2.8 2.1 1.4 4.3 1.4 4.8.1 1.1-.3 2.1-1 2.9-.7.7-9 4-10 4.2-1 0-2.5-.5-3.2-1.2l-2.2-4.4-2-4c-.2-.1-1.3-.2-2.4-.1h-3.7c-1.2-.2-1.7-.1-1.8.1-.2.2-1.2 2-2.2 4.2-2.4 4.6-2.8 5-4.8 5.2-.6 0-1.4-.2-5.4-2a25.4 25.4 0 0 1-5.2-2.4zm16-18.3a19 19 0 0 0 13.1-.6c3.3-1.3 6-3.3 8.2-6.2 1.5-1.8 3.4-6.4 3.7-8.7 1-7-1.6-13.7-7-18.2a15 15 0 0 0-4.6-2.5 15.1 15.1 0 0 0-4.7-1.6c-7.4-1-14.7 2.2-18.9 8.2a19.3 19.3 0 0 0-2 18.4A19.9 19.9 0 0 0 41 136.7l2 .7zm-1.3-9.3a11.6 11.6 0 1 1 17.8-13.7c2 4.8.7 10-3.2 13.3a11.2 11.2 0 0 1-11.6 2c-1.4-.5-2-.9-3-1.6zm7-2.3c1.4 0 4-.7 5.1-1.7.9-.7 1-1 1.7-2.6.7-1.7.3-1.8.2-3.2a6.5 6.5 0 0 0-4-5.6 6 6 0 0 0-5.2-.3 6.7 6.7 0 0 0-4.5 5.4c-.3 2.1.2 3.9 1.6 5.5 1.3 1.6 3 2.4 5 2.5zm0 0"/>
</svg>
