<?xml version="1.0" encoding="UTF-8" standalone="no"?>
<svg
   xmlns:osb="http://www.openswatchbook.org/uri/2009/osb"
   xmlns:dc="http://purl.org/dc/elements/1.1/"
   xmlns:cc="http://creativecommons.org/ns#"
   xmlns:rdf="http://www.w3.org/1999/02/22-rdf-syntax-ns#"
   xmlns:svg="http://www.w3.org/2000/svg"
   xmlns="http://www.w3.org/2000/svg"
   xmlns:xlink="http://www.w3.org/1999/xlink"
   xmlns:sodipodi="http://sodipodi.sourceforge.net/DTD/sodipodi-0.dtd"
   xmlns:inkscape="http://www.inkscape.org/namespaces/inkscape"
   width="324px"
   height="234px"
   version="1.1"
   id="svg2"
   sodipodi:docname="conkys-widgets.svg"
   inkscape:version="0.92.4 (5da689c313, 2019-01-14)">
  <sodipodi:namedview
     pagecolor="#ffffff"
     bordercolor="#666666"
     borderopacity="1"
     objecttolerance="10"
     gridtolerance="10"
     guidetolerance="10"
     inkscape:pageopacity="0"
     inkscape:pageshadow="2"
     inkscape:window-width="1920"
     inkscape:window-height="1040"
     id="namedview57"
     showgrid="false"
     inkscape:zoom="2.8526017"
     inkscape:cx="205.15266"
     inkscape:cy="139.75245"
     inkscape:window-x="0"
     inkscape:window-y="0"
     inkscape:window-maximized="1"
     inkscape:current-layer="svg2" />
  <metadata
     id="metadata8">
    <rdf:RDF>
      <cc:Work
         rdf:about="">
        <dc:format>image/svg+xml</dc:format>
        <dc:type
           rdf:resource="http://purl.org/dc/dcmitype/StillImage" />
        <dc:title></dc:title>
      </cc:Work>
    </rdf:RDF>
  </metadata>
  <defs
     id="defs6">
    <linearGradient
       id="linearGradient2614">
      <stop
         id="stop906"
         offset="0"
         style="stop-color:#ed7200;stop-opacity:1" />
      <stop
         id="stop908"
         offset="1"
         style="stop-color:#ff4dd9;stop-opacity:1" />
    </linearGradient>
    <linearGradient
       id="linearGradient2527">
      <stop
         style="stop-color:#ffb26b;stop-opacity:1"
         offset="0"
         id="stop901" />
      <stop
         style="stop-color:#f48dff;stop-opacity:1"
         offset="1"
         id="stop903" />
    </linearGradient>
    <linearGradient
       id="linearGradient2614-6">
      <stop
         style="stop-color:#ed7200;stop-opacity:1"
         offset="0"
         id="stop2610" />
      <stop
         style="stop-color:#ff4dd9;stop-opacity:1"
         offset="1"
         id="stop2612" />
    </linearGradient>
    <linearGradient
       id="linearGradient2527-3">
      <stop
         id="stop2523"
         offset="0"
         style="stop-color:#ffb26b;stop-opacity:1" />
      <stop
         id="stop2525"
         offset="1"
         style="stop-color:#f48dff;stop-opacity:1" />
    </linearGradient>
    <linearGradient
       id="linearGradient5069">
      <stop
         id="stop5065"
         offset="0"
         style="stop-color:#bdc9ff;stop-opacity:1" />
      <stop
         id="stop5067"
         offset="1"
         style="stop-color:#4465ff;stop-opacity:1" />
    </linearGradient>
    <linearGradient
       osb:paint="solid"
       id="linearGradient4735">
      <stop
         id="stop4733"
         offset="0"
         style="stop-color:#bdc9ff;stop-opacity:1;" />
    </linearGradient>
    <linearGradient
       id="linearGradient1100">
      <stop
         id="stop1096"
         offset="0"
         style="stop-color:#f2f9fe;stop-opacity:1;" />
      <stop
         id="stop1098"
         offset="1"
         style="stop-color:#95a9b8;stop-opacity:1" />
    </linearGradient>
    <linearGradient
       id="linearGradient1092">
      <stop
         id="stop1088"
         offset="0"
         style="stop-color:#5cffd1;stop-opacity:1;" />
      <stop
         id="stop1090"
         offset="1"
         style="stop-color:#009e71;stop-opacity:1" />
    </linearGradient>
    <linearGradient
       id="linearGradient1084">
      <stop
         id="stop1080"
         offset="0"
         style="stop-color:#ffba86;stop-opacity:1;" />
      <stop
         id="stop1082"
         offset="1"
         style="stop-color:#ff5633;stop-opacity:1" />
    </linearGradient>
    <linearGradient
       id="linearGradient1074">
      <stop
         id="stop1070"
         offset="0"
         style="stop-color:#9aaab3;stop-opacity:1" />
      <stop
         style="stop-color:#e0e5e8;stop-opacity:1"
         offset="0.37729135"
         id="stop1078" />
      <stop
         id="stop1072"
         offset="1"
         style="stop-color:#9aaab3;stop-opacity:1" />
    </linearGradient>
    <linearGradient
       gradientUnits="userSpaceOnUse"
       y2="201.82422"
       x2="303.00159"
       y1="201.82422"
       x1="271.0016"
       id="linearGradient1076"
       xlink:href="#linearGradient1074"
       gradientTransform="rotate(-90,248.0016,240.82422)" />
    <linearGradient
       gradientUnits="userSpaceOnUse"
       y2="216.82501"
       x2="90.73497"
       y1="186.82501"
       x1="90.73497"
       id="linearGradient1086"
       xlink:href="#linearGradient1084" />
    <linearGradient
       gradientUnits="userSpaceOnUse"
       y2="216.82501"
       x2="52.734966"
       y1="186.82501"
       x1="52.734966"
       id="linearGradient1094"
       xlink:href="#linearGradient1092" />
    <linearGradient
       gradientTransform="translate(133.72503,-80.809238)"
       gradientUnits="userSpaceOnUse"
       y2="201.82501"
       x2="46.682873"
       y1="201.82501"
       x1="14.682873"
       id="linearGradient1102"
       xlink:href="#linearGradient1100" />
    <radialGradient
       gradientUnits="userSpaceOnUse"
       r="89"
       fy="117"
       fx="162"
       cy="117"
       cx="162"
       id="radialGradient5045"
       xlink:href="#linearGradient5069" />
    <linearGradient
       gradientTransform="translate(389.66949,-180.45763)"
       xlink:href="#linearGradient2614-6"
       id="linearGradient2603"
       gradientUnits="userSpaceOnUse"
       x1="324"
       y1="234"
       x2="0"
       y2="-3.5e-06" />
    <linearGradient
       xlink:href="#linearGradient2614-6"
       id="linearGradient2608"
       gradientUnits="userSpaceOnUse"
       x1="324"
       y1="234"
       x2="0"
       y2="-3.5e-06" />
    <linearGradient
       gradientTransform="matrix(1.2001736,0,0,1.2680163,327.60128,206.19232)"
       gradientUnits="userSpaceOnUse"
       y2="-70.398308"
       x2="-2.9745789"
       y1="-70.398308"
       x1="-272.66949"
       id="linearGradient899"
       xlink:href="#linearGradient2527" />
    <linearGradient
       inkscape:collect="always"
       xlink:href="#linearGradient2527"
       id="linearGradient876"
       x1="-0.26625127"
       y1="116.92612"
       x2="324.6481"
       y2="116.92612"
       gradientUnits="userSpaceOnUse" />
  </defs>
  <ellipse
     style="opacity:1;fill:none;fill-opacity:1;fill-rule:evenodd;stroke:url(#radialGradient5045);stroke-width:50;stroke-linecap:butt;stroke-linejoin:round;stroke-miterlimit:4;stroke-dasharray:5, 5;stroke-dashoffset:0;stroke-opacity:1;paint-order:markers fill stroke"
     id="ellipse5071"
     cx="162"
     cy="117"
     r="64" />
  <circle
     style="fill:none;fill-opacity:1;stroke:#18dbfb;stroke-width:4.60345;stroke-miterlimit:4;stroke-dasharray:none;stroke-opacity:1"
     id="path2420"
     transform="rotate(90.025328)"
     d="m 54.029308,-214.94977 a 22.096506,22.096506 0 0 1 -7.851689,16.89203 22.096506,22.096506 0 0 1 -17.975088,4.88734" />
  <circle
     d="M 109.18764,-214.97417 A 22.096506,22.096506 0 0 1 90.0469,-193.07624"
     transform="rotate(90.025328)"
     id="circle2442"
     style="fill:none;fill-opacity:1;stroke:#99d901;stroke-width:4.60345;stroke-miterlimit:4;stroke-dasharray:none;stroke-opacity:1" />
  <circle
     d="m 219.50434,-215.02299 a 22.096506,22.096506 0 0 1 -12.00449,19.65723"
     transform="rotate(90.025328)"
     id="circle2450"
     style="fill:none;fill-opacity:1;stroke:#b900ff;stroke-width:4.60345;stroke-miterlimit:4;stroke-dasharray:none;stroke-opacity:1" />
  <circle
     d="m 54.004528,-270.94977 a 22.096506,22.096506 0 0 1 -13.823379,20.48929 22.096506,22.096506 0 0 1 -24.174569,-5.14655"
     transform="rotate(90.025328)"
     id="circle2519"
     style="fill:none;fill-opacity:1;stroke:#d10b7d;stroke-width:4.60345;stroke-miterlimit:4;stroke-dasharray:none;stroke-opacity:1" />
  <g
     transform="matrix(1.0491274,0.12930102,-0.12930102,1.0491274,3.5835554,-17.844275)"
     aria-label="CONKYS WIDGETS"
     id="text2580"
     style="font-style:normal;font-weight:normal;font-size:32.8946px;line-height:0;font-family:sans-serif;letter-spacing:-4.78616px;fill:#fcdae5;fill-opacity:1;stroke:none;stroke-width:0.822364" />
  <rect
     y="-1.5258789e-05"
     x="0.35056305"
     height="233.85228"
     width="323.68073"
     id="rect891"
     style="opacity:0.68;fill:url(#linearGradient899);fill-opacity:1.0;stroke-width:1.23362863;stroke:url(#linearGradient876)" />
  <g
     id="g848"
     transform="matrix(5.6523842,-0.18821772,0.18691479,5.8325431,19.688837,-16.110897)">
    <path
       d="m 13,13 2,4 -2,-1 1,2 v 6 c 0,2 2,5 2,5 0,0 8,6 15,6 4,0 5,-2 5,-2 l -1,-3 2,1 C 37,31 31,24 26,20 19.9012,15.121 13,13 13,13 Z"
       style="opacity:0.1"
       id="path17" />
    <path
       d="m 15,28 c 0,0 8,6 15,6 4,0 5,-2 5,-2 l -5.7775,-8.7843 -5.1146,-4.2876 -4,-2.3595 L 15,15.4248 l -1.5034,2.5753 -0.17304,5 z"
       style="fill:#f9f9f9"
       id="path21" />
    <path
       d="m 21.699,18.193 c -1.5648,1.4072 -2.6969,3.8973 -2.6995,6.3069 0,4.1421 2.6863,7.5 6,7.5 2.634,-2.41e-4 5.1633,-2.3767 5.9378,-5.5237 -1.8758,-2.1469 -4.2009,-4.5938 -6.7344,-6.7051 -0.79701,-0.66417 -1.6513,-1.1747 -2.5039,-1.5781 z"
       style="fill:#6b5ca7"
       id="path23" />
    <ellipse
       cx="25"
       cy="25"
       rx="3"
       ry="4"
       style="fill:#86bdcd"
       id="ellipse25" />
    <path
       d="m 12,12 c 0,0 6.9012,2.121 13,7 5,4 11,11 11,11 l -2,-1 1,3 c 0,0 -5,-7 -11,-12 -3.8411,-3.2009 -9,-3 -9,-3 0,0 -1,1 -1,6 0,2 1,5 1,5 0,0 -2,-3 -2,-5 v -6 l -1,-2 2,1 z"
       style="fill:#2d2d2d"
       id="path27" />
    <ellipse
       cx="20"
       cy="22"
       rx="3"
       ry="2"
       style="fill:#f9f9f9"
       id="ellipse29" />
  </g>
</svg>
