<?xml version="1.0" encoding="UTF-8" standalone="no"?>
<svg
   xmlns:dc="http://purl.org/dc/elements/1.1/"
   xmlns:cc="http://creativecommons.org/ns#"
   xmlns:rdf="http://www.w3.org/1999/02/22-rdf-syntax-ns#"
   xmlns:svg="http://www.w3.org/2000/svg"
   xmlns="http://www.w3.org/2000/svg"
   xmlns:xlink="http://www.w3.org/1999/xlink"
   xmlns:sodipodi="http://sodipodi.sourceforge.net/DTD/sodipodi-0.dtd"
   xmlns:inkscape="http://www.inkscape.org/namespaces/inkscape"
   sodipodi:docname="uengine-dc-com.guiapa.guiapa_15.svg"
   inkscape:version="1.0.2 (e86c870879, 2021-01-15)"
   width="324px"
   height="234px"
   viewBox="0 0 324 234"
   version="1.1"
   id="SVGRoot">
  <defs
     id="defs10">
    <inkscape:path-effect
       effect="bspline"
       id="path-effect1184"
       is_visible="true"
       weight="33.333333"
       steps="2"
       helper_size="0"
       apply_no_weight="true"
       apply_with_weight="true"
       only_selected="false" />
    <radialGradient
       gradientUnits="userSpaceOnUse"
       gradientTransform="translate(7978.7,8523.9959)"
       r="80.685997"
       cy="-8503.8613"
       cx="-7918.9229"
       id="radialGradient1158">
      <stop
         id="stop1150"
         stop-color="#fff44f"
         offset=".094"
         style="stop-color:#a09600;stop-opacity:1" />
      <stop
         id="stop1152"
         stop-color="#ffe141"
         offset=".231" />
      <stop
         id="stop1154"
         stop-color="#ffaf1e"
         offset=".509" />
      <stop
         id="stop1156"
         stop-color="#ff980e"
         offset=".626" />
    </radialGradient>
    <radialGradient
       gradientUnits="userSpaceOnUse"
       gradientTransform="translate(7978.7,8523.9959)"
       r="38.471001"
       cy="-8460.9844"
       cx="-7945.6479"
       id="radialGradient1148">
      <stop
         id="stop1146"
         stop-color="#c139e6"
         offset="1"
         style="stop-opacity:0;stop-color:#5ab500" />
    </radialGradient>
    <inkscape:path-effect
       effect="bspline"
       id="path-effect1078"
       is_visible="true"
       weight="33.333333"
       steps="2"
       helper_size="0"
       apply_no_weight="true"
       apply_with_weight="true"
       only_selected="false" />
    <inkscape:path-effect
       effect="bspline"
       id="path-effect1074"
       is_visible="true"
       weight="33.333333"
       steps="2"
       helper_size="0"
       apply_no_weight="true"
       apply_with_weight="true"
       only_selected="false" />
    <inkscape:path-effect
       effect="bspline"
       id="path-effect1075"
       is_visible="true"
       weight="33.333333"
       steps="2"
       helper_size="0"
       apply_no_weight="true"
       apply_with_weight="true"
       only_selected="false" />
    <linearGradient
       id="linearGradient991"
       inkscape:collect="always">
      <stop
         id="stop987"
         offset="0"
         style="stop-color:#71afd3;stop-opacity:1" />
      <stop
         id="stop989"
         offset="1"
         style="stop-color:#2c7dbd;stop-opacity:1" />
    </linearGradient>
    <radialGradient
       inkscape:collect="always"
       xlink:href="#linearGradient991"
       id="radialGradient985"
       cx="-178.41632"
       cy="529.35193"
       fx="-178.41632"
       fy="529.35193"
       r="90.402763"
       gradientTransform="matrix(0.60628339,-0.11601688,0.12271796,0.64130204,-1.0482536,-152.24847)"
       gradientUnits="userSpaceOnUse" />
    <linearGradient
       id="a"
       x1="70.786003"
       y1="12.393"
       x2="6.447"
       y2="74.468002"
       gradientUnits="userSpaceOnUse"
       gradientTransform="translate(3.7,-0.0040855)">
      <stop
         offset=".048"
         stop-color="#fff44f"
         id="stop834" />
      <stop
         offset=".111"
         stop-color="#ffe847"
         id="stop836" />
      <stop
         offset=".225"
         stop-color="#ffc830"
         id="stop838" />
      <stop
         offset=".368"
         stop-color="#ff980e"
         id="stop840" />
      <stop
         offset=".401"
         stop-color="#ff8b16"
         id="stop842" />
      <stop
         offset=".462"
         stop-color="#ff672a"
         id="stop844" />
      <stop
         offset=".534"
         stop-color="#ff3647"
         id="stop846" />
      <stop
         offset=".705"
         stop-color="#e31587"
         id="stop848" />
    </linearGradient>
    <radialGradient
       id="b"
       cx="-7907.187"
       cy="-8515.1211"
       r="80.796997"
       gradientTransform="translate(7978.7,8523.9959)"
       gradientUnits="userSpaceOnUse">
      <stop
         offset=".129"
         stop-color="#ffbd4f"
         id="stop851" />
      <stop
         offset=".186"
         stop-color="#ffac31"
         id="stop853" />
      <stop
         offset=".247"
         stop-color="#ff9d17"
         id="stop855" />
      <stop
         offset=".283"
         stop-color="#ff980e"
         id="stop857" />
      <stop
         offset=".403"
         stop-color="#ff563b"
         id="stop859" />
      <stop
         offset=".467"
         stop-color="#ff3750"
         id="stop861" />
      <stop
         offset=".71"
         stop-color="#f5156c"
         id="stop863" />
      <stop
         offset=".782"
         stop-color="#eb0878"
         id="stop865" />
      <stop
         offset=".86"
         stop-color="#e50080"
         id="stop867" />
    </radialGradient>
    <radialGradient
       id="c"
       cx="-7936.7109"
       cy="-8482.0889"
       r="80.796997"
       gradientTransform="translate(7978.7,8523.9959)"
       gradientUnits="userSpaceOnUse">
      <stop
         offset=".3"
         stop-color="#960e18"
         id="stop870" />
      <stop
         offset=".351"
         stop-color="#b11927"
         stop-opacity=".74"
         id="stop872" />
      <stop
         offset=".435"
         stop-color="#db293d"
         stop-opacity=".343"
         id="stop874" />
      <stop
         offset=".497"
         stop-color="#f5334b"
         stop-opacity=".094"
         id="stop876" />
      <stop
         offset=".53"
         stop-color="#ff3750"
         stop-opacity="0"
         id="stop878" />
    </radialGradient>
    <radialGradient
       id="d"
       cx="-7926.9702"
       cy="-8533.457"
       r="58.534"
       gradientTransform="translate(7978.7,8523.9959)"
       gradientUnits="userSpaceOnUse">
      <stop
         offset=".132"
         stop-color="#fff44f"
         id="stop881" />
      <stop
         offset=".252"
         stop-color="#ffdc3e"
         id="stop883" />
      <stop
         offset=".506"
         stop-color="#ff9d12"
         id="stop885" />
      <stop
         offset=".526"
         stop-color="#ff980e"
         id="stop887" />
    </radialGradient>
    <radialGradient
       id="e"
       cx="-7945.6479"
       cy="-8460.9844"
       r="38.471001"
       gradientTransform="translate(7978.7,8523.9959)"
       gradientUnits="userSpaceOnUse">
      <stop
         offset=".353"
         stop-color="#3a8ee6"
         id="stop890" />
      <stop
         offset=".472"
         stop-color="#5c79f0"
         id="stop892" />
      <stop
         offset=".669"
         stop-color="#9059ff"
         id="stop894" />
      <stop
         offset="1"
         stop-color="#c139e6"
         id="stop896" />
    </radialGradient>
    <radialGradient
       id="f"
       cx="-7935.6201"
       cy="-8491.5459"
       r="20.396999"
       gradientTransform="matrix(0.972,-0.235,0.275,1.138,10095.002,7833.7939)"
       gradientUnits="userSpaceOnUse">
      <stop
         offset=".206"
         stop-color="#9059ff"
         stop-opacity="0"
         id="stop899" />
      <stop
         offset=".278"
         stop-color="#8c4ff3"
         stop-opacity=".064"
         id="stop901" />
      <stop
         offset=".747"
         stop-color="#7716a8"
         stop-opacity=".45"
         id="stop903" />
      <stop
         offset=".975"
         stop-color="#6e008b"
         stop-opacity=".6"
         id="stop905" />
    </radialGradient>
    <radialGradient
       id="g"
       cx="-7937.731"
       cy="-8518.4268"
       r="27.676001"
       gradientTransform="translate(7978.7,8523.9959)"
       gradientUnits="userSpaceOnUse">
      <stop
         offset="0"
         stop-color="#ffe226"
         id="stop908" />
      <stop
         offset=".121"
         stop-color="#ffdb27"
         id="stop910" />
      <stop
         offset=".295"
         stop-color="#ffc82a"
         id="stop912" />
      <stop
         offset=".502"
         stop-color="#ffa930"
         id="stop914" />
      <stop
         offset=".732"
         stop-color="#ff7e37"
         id="stop916" />
      <stop
         offset=".792"
         stop-color="#ff7139"
         id="stop918" />
    </radialGradient>
    <radialGradient
       id="h"
       cx="-7915.9771"
       cy="-8535.9814"
       r="118.081"
       gradientTransform="translate(7978.7,8523.9959)"
       gradientUnits="userSpaceOnUse">
      <stop
         offset=".113"
         stop-color="#fff44f"
         id="stop921" />
      <stop
         offset=".456"
         stop-color="#ff980e"
         id="stop923" />
      <stop
         offset=".622"
         stop-color="#ff5634"
         id="stop925" />
      <stop
         offset=".716"
         stop-color="#ff3647"
         id="stop927" />
      <stop
         offset=".904"
         stop-color="#e31587"
         id="stop929" />
    </radialGradient>
    <radialGradient
       id="i"
       cx="-7927.165"
       cy="-8522.8594"
       r="86.499001"
       gradientTransform="matrix(0.105,0.995,-0.653,0.069,-4680.304,8470.1869)"
       gradientUnits="userSpaceOnUse">
      <stop
         offset="0"
         stop-color="#fff44f"
         id="stop932" />
      <stop
         offset=".06"
         stop-color="#ffe847"
         id="stop934" />
      <stop
         offset=".168"
         stop-color="#ffc830"
         id="stop936" />
      <stop
         offset=".304"
         stop-color="#ff980e"
         id="stop938" />
      <stop
         offset=".356"
         stop-color="#ff8b16"
         id="stop940" />
      <stop
         offset=".455"
         stop-color="#ff672a"
         id="stop942" />
      <stop
         offset=".57"
         stop-color="#ff3647"
         id="stop944" />
      <stop
         offset=".737"
         stop-color="#e31587"
         id="stop946" />
    </radialGradient>
    <radialGradient
       id="j"
       cx="-7938.3828"
       cy="-8508.1758"
       r="73.720001"
       gradientTransform="translate(7978.7,8523.9959)"
       gradientUnits="userSpaceOnUse">
      <stop
         offset=".137"
         stop-color="#fff44f"
         id="stop949" />
      <stop
         offset=".48"
         stop-color="#ff980e"
         id="stop951" />
      <stop
         offset=".592"
         stop-color="#ff5634"
         id="stop953" />
      <stop
         offset=".655"
         stop-color="#ff3647"
         id="stop955" />
      <stop
         offset=".904"
         stop-color="#e31587"
         id="stop957" />
    </radialGradient>
    <radialGradient
       id="k"
       cx="-7918.9229"
       cy="-8503.8613"
       r="80.685997"
       gradientTransform="translate(7978.7,8523.9959)"
       gradientUnits="userSpaceOnUse">
      <stop
         offset=".094"
         stop-color="#fff44f"
         id="stop960" />
      <stop
         offset=".231"
         stop-color="#ffe141"
         id="stop962" />
      <stop
         offset=".509"
         stop-color="#ffaf1e"
         id="stop964" />
      <stop
         offset=".626"
         stop-color="#ff980e"
         id="stop966" />
    </radialGradient>
    <linearGradient
       id="l"
       x1="70.013"
       y1="12.061"
       x2="15.267"
       y2="66.806"
       gradientUnits="userSpaceOnUse"
       gradientTransform="translate(3.7,-0.0040855)">
      <stop
         offset=".167"
         stop-color="#fff44f"
         stop-opacity=".8"
         id="stop969" />
      <stop
         offset=".266"
         stop-color="#fff44f"
         stop-opacity=".634"
         id="stop971" />
      <stop
         offset=".489"
         stop-color="#fff44f"
         stop-opacity=".217"
         id="stop973" />
      <stop
         offset=".6"
         stop-color="#fff44f"
         stop-opacity="0"
         id="stop975" />
    </linearGradient>
    <linearGradient
       id="SVGID_1_"
       gradientUnits="userSpaceOnUse"
       x1="49.575699"
       y1="49.646"
       x2="229.2469"
       y2="229.3172">
      <stop
         offset="0"
         style="stop-color:#FF8100"
         id="stop8" />
      <stop
         offset="1"
         style="stop-color:#FF0000"
         id="stop10" />
    </linearGradient>
  </defs>
  <sodipodi:namedview
     inkscape:pagecheckerboard="true"
     inkscape:window-maximized="1"
     inkscape:window-y="0"
     inkscape:window-x="0"
     inkscape:window-height="980"
     inkscape:window-width="1920"
     showgrid="false"
     inkscape:document-rotation="0"
     inkscape:current-layer="layer1"
     inkscape:document-units="px"
     inkscape:cy="134.56138"
     inkscape:cx="148.11145"
     inkscape:zoom="1.979899"
     inkscape:pageshadow="2"
     inkscape:pageopacity="0.0"
     borderopacity="1.0"
     bordercolor="#666666"
     pagecolor="#ffffff"
     id="base"
     inkscape:snap-global="true"
     inkscape:snap-bbox="true"
     inkscape:bbox-nodes="true"
     inkscape:bbox-paths="true"
     inkscape:snap-bbox-edge-midpoints="true"
     inkscape:snap-bbox-midpoints="true"
     inkscape:object-paths="true"
     inkscape:snap-intersection-paths="true"
     inkscape:snap-smooth-nodes="true"
     inkscape:snap-midpoints="true"
     showguides="false">
    <sodipodi:guide
       id="guide137"
       orientation="163.80001,0"
       position="243.9,198.9"
       inkscape:locked="false" />
    <sodipodi:guide
       id="guide139"
       orientation="0,-101.49202"
       position="243.9,35.099996"
       inkscape:locked="false" />
    <sodipodi:guide
       id="guide141"
       orientation="0,-62.30799"
       position="142.40799,35.099996"
       inkscape:locked="false" />
    <sodipodi:guide
       id="guide143"
       orientation="-163.80001,0"
       position="80.099996,35.099996"
       inkscape:locked="false" />
    <sodipodi:guide
       id="guide145"
       orientation="0,62.30799"
       position="80.099996,198.9"
       inkscape:locked="false" />
    <sodipodi:guide
       id="guide147"
       orientation="0,101.49202"
       position="142.40799,198.9"
       inkscape:locked="false" />
    <sodipodi:guide
       position="-8.1802135e-15,234"
       orientation="234.00001,0"
       id="guide1053"
       inkscape:locked="false" />
    <sodipodi:guide
       position="-8.1802135e-15,-7.9863281e-06"
       orientation="0,324"
       id="guide1055"
       inkscape:locked="false" />
    <sodipodi:guide
       position="324,-7.9863281e-06"
       orientation="-234.00001,0"
       id="guide1057"
       inkscape:locked="false" />
    <sodipodi:guide
       position="324,234"
       orientation="0,-324"
       id="guide1059"
       inkscape:locked="false" />
  </sodipodi:namedview>
  <metadata
     id="metadata13">
    <rdf:RDF>
      <cc:Work
         rdf:about="">
        <dc:format>image/svg+xml</dc:format>
        <dc:type
           rdf:resource="http://purl.org/dc/dcmitype/StillImage" />
        <dc:title />
      </cc:Work>
    </rdf:RDF>
  </metadata>
  <g
     id="layer1"
     inkscape:groupmode="layer"
     inkscape:label="Capa 1">
    <path
       style="fill:#f1a631;fill-opacity:1;fill-rule:evenodd;stroke:none;stroke-width:4.97206;stroke-miterlimit:4;stroke-dasharray:none;stroke-opacity:0.078125;paint-order:markers fill stroke"
       d="M 0,0 V 201.77539 234 H 324 V 41.333984 0 Z"
       id="rect1049" />
    <path
       d="M 92.377105,28.905543 H 231.62341 c 11.12202,0 15.22793,3.721472 15.22793,13.807739 V 164.42503 c 0,1.14479 0,9.03884 -8.73449,13.2114 -5.82426,2.77999 -28.60449,11.33358 -68.34257,25.66074 -3.50997,1.45921 -5.20522,1.83683 -7.77209,1.79411 -2.88514,0 -3.96707,-0.34514 -7.81071,-1.79411 -39.7111,-14.7902 -62.479725,-23.3455 -68.305913,-25.66074 -8.736424,-3.47712 -8.321785,-7.82569 -8.576334,-10.02646 a 36.220389,32.090467 0 0 1 -0.16009,-3.18494 V 42.713282 c 0,-10.086267 4.105916,-13.807739 15.227962,-13.807739 z m 127.456945,124.056017 0.029,-0.29728 v -0.651 l -0.029,-0.29732 -0.0326,-0.27168 -0.12339,-0.54335 -0.0618,-0.24264 -0.0907,-0.24435 -0.0965,-0.24603 -0.12152,-0.2153 -0.15621,-0.24605 -0.15621,-0.21529 -0.18514,-0.24262 -0.18516,-0.21873 -0.2179,-0.18793 -0.21791,-0.21872 -0.24688,-0.18967 -0.24688,-0.18965 -0.2507,-0.13671 -0.24683,-0.16402 -0.24687,-0.13328 -0.27965,-0.13669 -0.27964,-0.13499 -0.30859,-0.13668 -0.31239,-0.10927 -0.30859,-0.13671 -0.34134,-0.10258 -0.27965,-0.0836 -0.27773,-0.0821 -0.31243,-0.0785 -0.2777,-0.0821 -0.30859,-0.0821 -0.30855,-0.0821 -0.31435,-0.0548 -0.34139,-0.0821 -0.30853,-0.0785 -0.34138,-0.0565 -0.34136,-0.0801 -0.34133,-0.0821 -0.34135,-0.0821 -0.3086,-0.0529 -0.27962,-0.0821 -0.27969,-0.0547 -0.2468,-0.0821 -0.24687,-0.0529 -0.37415,-0.10773 -0.34134,-0.11097 -0.30859,-0.10773 -0.24688,-0.135 -0.28345,-0.13669 -0.21408,-0.18796 -0.12733,-0.1623 -0.1524,-0.29903 -0.0326,-0.35199 v -0.0564 l 0.0326,-0.26827 0.12341,-0.24604 0.18516,-0.24434 0.27963,-0.217 0.21796,-0.10763 0.24685,-0.10773 0.27963,-0.0546 0.31244,-0.0564 0.33749,-0.0529 h 0.68269 l 0.27967,0.0272 0.3124,0.0256 0.30857,0.0293 0.30858,0.0529 0.30856,0.0548 0.31242,0.0529 0.30859,0.0821 0.31243,0.0821 0.33942,0.0821 0.25071,0.10774 0.27772,0.0821 0.24686,0.10762 0.27963,0.10774 0.2488,0.11096 0.27966,0.10774 0.24683,0.13669 0.27966,0.10609 0.25073,0.16405 0.24488,0.13667 0.27771,0.135 0.25072,0.16232 0.18516,-0.2153 0.15426,-0.21869 0.18707,-0.21701 0.18518,-0.2153 0.18513,-0.24604 0.15426,-0.21529 0.18709,-0.21871 0.18901,-0.217 0.15233,-0.2153 0.18515,-0.21871 0.189,-0.21699 0.15433,-0.2153 0.18318,-0.24604 0.18899,-0.21531 0.18514,-0.21869 0.15428,-0.21701 0.18707,-0.21871 -0.24682,-0.1606 -0.24686,-0.16233 -0.25073,-0.16404 -0.24687,-0.13669 -0.27962,-0.16061 -0.24689,-0.13669 -0.27961,-0.13498 -0.27964,-0.13672 -0.24687,-0.10927 -0.27964,-0.13326 -0.31239,-0.10926 -0.27776,-0.10774 -0.27963,-0.10762 -0.27771,-0.0821 -0.31244,-0.11097 -0.27768,-0.0529 -0.27968,-0.0821 -0.31046,-0.0803 -0.27775,-0.0529 -0.31046,-0.0564 -0.3086,-0.0548 -0.28154,-0.0529 -0.30859,-0.0548 -0.34136,-0.0272 -0.30858,-0.0548 -0.34326,-0.0256 h -0.30859 l -0.34331,-0.0273 -0.34134,-0.0293 h -1.3307 l -0.61905,0.0564 -0.31242,0.0256 -0.30858,0.0293 -0.27964,0.0529 -0.3086,0.0548 -0.2835,0.0529 -0.27579,0.0548 -0.24682,0.0564 -0.28353,0.0785 -0.30858,0.11107 -0.30855,0.0785 -0.27964,0.11107 -0.27965,0.13669 -0.27962,0.10609 -0.27966,0.13668 -0.24685,0.1367 -0.24687,0.16061 -0.25069,0.16404 -0.21408,0.13669 -0.25072,0.18795 -0.21407,0.21871 -0.21795,0.18795 -0.2179,0.21701 -0.18516,0.21699 -0.18515,0.21872 -0.15619,0.24262 -0.15426,0.24434 -0.12531,0.24607 -0.12341,0.24262 -0.12339,0.24433 -0.0618,0.24265 -0.0965,0.24603 -0.1215,0.48697 -0.0326,0.27339 -0.0289,0.24263 -0.0326,0.27167 v 0.62538 l 0.0326,0.29561 0.0289,0.27338 0.0326,0.26997 0.0618,0.24434 0.0618,0.27168 0.0945,0.21529 0.0907,0.24604 0.0945,0.2153 0.12341,0.18794 0.15427,0.24435 0.15428,0.21872 0.15432,0.18794 0.18706,0.19137 0.189,0.18796 0.21405,0.19136 0.21793,0.18796 0.21795,0.16574 0.24683,0.1367 0.25071,0.1606 0.27578,0.13671 0.2507,0.13497 0.30859,0.1367 0.27964,0.13498 0.30859,0.10774 0.31243,0.10926 0.30854,0.10763 0.34139,0.10773 0.27963,0.0821 0.27962,0.0821 0.27579,0.0821 0.31243,0.0548 0.27966,0.0821 0.30855,0.0786 0.30859,0.0548 0.31243,0.0821 0.30858,0.0529 0.34135,0.0821 0.31243,0.0548 0.3375,0.0821 0.31243,0.0529 0.30855,0.0821 0.27966,0.0546 0.27963,0.0821 0.24685,0.0529 0.21793,0.0547 0.37223,0.13498 0.31052,0.11107 0.27961,0.10774 0.24687,0.10762 0.24874,0.16405 0.21604,0.16063 0.1562,0.18964 0.12341,0.2717 0.0326,0.32464 v 0.0547 l -0.0326,0.27166 -0.0925,0.24265 -0.1234,0.21869 -0.18707,0.18796 -0.24687,0.16575 -0.21792,0.10774 -0.25071,0.0821 -0.27578,0.0529 -0.27969,0.0548 -0.31046,0.0529 -0.34139,0.0293 h -0.68075 l -0.34135,-0.0293 h -0.3086 l -0.31242,-0.0529 -0.34134,-0.0256 -0.30858,-0.0564 -0.30856,-0.0548 -0.31242,-0.0529 -0.27967,-0.0821 -0.30854,-0.0803 -0.30859,-0.0821 -0.28352,-0.10773 -0.27579,-0.0821 -0.27961,-0.10927 -0.27965,-0.10773 -0.27965,-0.10763 -0.24684,-0.1367 -0.27965,-0.10773 -0.24684,-0.1367 -0.27966,-0.16234 -0.25072,-0.13668 -0.27578,-0.16063 -0.25073,-0.16401 -0.27577,-0.16405 -0.25071,-0.1623 -0.18517,0.2187 -0.21789,0.18966 -0.18516,0.21701 -0.2179,0.21528 -0.18518,0.18968 -0.18514,0.2187 -0.21791,0.21701 -0.18514,0.18964 -0.21793,0.21531 -0.18513,0.19307 -0.21792,0.21529 -0.18513,0.217 -0.18519,0.18965 -0.21794,0.21871 -0.18511,0.2153 -0.21794,0.18795 -0.18512,0.21872 0.24683,0.18966 0.21796,0.16404 0.24681,0.16231 0.24688,0.16405 0.25071,0.16061 0.24686,0.16403 0.24688,0.13667 0.24682,0.13672 0.28352,0.13498 0.24687,0.13328 0.27578,0.13669 0.28347,0.10927 0.27579,0.13328 0.27967,0.10773 0.27963,0.10927 0.3086,0.10774 0.27961,0.0821 0.30854,0.0821 0.27966,0.10773 0.31244,0.0821 0.30854,0.0801 0.27966,0.0564 0.30855,0.0785 0.31243,0.0564 0.30859,0.0548 0.62104,0.10774 0.30853,0.0272 0.31242,0.0546 0.33751,0.0256 0.31243,0.0272 0.30859,0.0293 h 0.34134 l 0.30858,0.0256 h 1.30371 l 0.30854,-0.0256 0.34332,-0.0293 0.31051,-0.0272 0.27961,-0.0256 0.30858,-0.0293 0.31239,-0.0529 0.27776,-0.0546 0.27963,-0.0529 0.30858,-0.0547 0.28154,-0.0821 0.3086,-0.0821 0.30853,-0.0821 0.30859,-0.10763 0.31436,-0.10773 0.2777,-0.13667 0.27771,-0.10927 0.2816,-0.1367 0.24879,-0.16061 0.24686,-0.13328 0.24683,-0.16404 0.21795,-0.16061 0.24684,-0.19308 0.18513,-0.16061 0.21793,-0.18965 0.18515,-0.18968 0.1543,-0.2187 0.18709,-0.21701 0.31242,-0.434 0.1234,-0.24263 0.1234,-0.21871 0.12341,-0.24261 0.0945,-0.2734 0.0617,-0.24264 0.0907,-0.27167 0.0655,-0.27168 0.029,-0.2973 0.0326,-0.27169 z m -21.7484,5.42333 h 0.31243 v -4.47502 H 186.2423 v -3.36093 h 10.79035 v -4.20332 H 186.2423 v -3.22939 h 11.99953 v -4.47669 h -17.92215 v 19.74535 z m -22.65295,0 h 0.30859 v -19.74535 h -6.35465 l -0.1562,0.21698 -0.1543,0.24434 -0.18708,0.21529 -0.15619,0.24606 -0.15428,0.21529 -0.15432,0.24605 -0.1851,0.21528 -0.15624,0.24265 -0.15619,0.21871 -0.1543,0.21529 -0.18513,0.24262 -0.15432,0.21872 -0.15619,0.24263 -0.15623,0.21872 -0.18319,0.2392 -0.15431,0.21872 -0.15812,0.21869 -0.15432,0.23922 -0.15426,0.2187 -0.18514,0.24434 -0.1543,0.21699 -0.15814,0.24094 -0.15428,0.21872 -0.18705,0.24262 -0.15237,0.21529 -0.15426,0.21872 -0.15817,0.24262 -0.18514,0.21872 -0.15427,0.24262 -0.15429,0.21529 -0.15432,0.24606 -0.18706,0.21529 -0.15427,0.24262 -0.15816,0.21871 -0.15234,-0.21871 -0.15427,-0.24262 -0.19093,-0.21529 -0.15239,-0.24606 -0.15427,-0.21529 -0.15428,-0.24262 -0.15431,-0.21872 -0.19092,-0.24262 -0.15234,-0.21872 -0.15429,-0.21529 -0.15432,-0.24262 -0.15425,-0.21872 -0.19091,-0.23921 -0.15236,-0.21872 -0.15431,-0.24434 -0.15429,-0.217 -0.15618,-0.24092 -0.18897,-0.21869 -0.15242,-0.21701 -0.15427,-0.24091 -0.15816,-0.21872 -0.18511,-0.24263 -0.1543,-0.21872 -0.15428,-0.24262 -0.15427,-0.21529 -0.15815,-0.21871 -0.18518,-0.24265 -0.15425,-0.21528 -0.15428,-0.24605 -0.15431,-0.21529 -0.15813,-0.24606 -0.18514,-0.21529 -0.15426,-0.24434 -0.15432,-0.21698 h -6.35653 v 19.74535 h 5.89174 v -11.62235 l 0.18517,0.2187 0.15426,0.24604 0.18707,0.21529 0.15427,0.24606 0.18708,0.21698 0.15432,0.24435 0.18708,0.217 0.15426,0.24435 0.18707,0.217 0.15427,0.24434 0.18708,0.217 0.15425,0.24605 0.18325,0.21871 0.15623,0.24262 0.18511,0.21871 0.15625,0.24264 0.18898,0.21869 0.18515,0.24264 0.15428,0.21871 0.18325,0.24606 0.15617,0.217 0.18899,0.24432 0.15431,0.21701 0.18704,0.24263 0.15432,0.21871 0.18319,0.24264 0.15624,0.2187 0.18515,0.24264 0.15617,0.22213 0.18517,0.24262 0.15619,0.21699 0.18515,0.24435 0.15624,0.21699 0.18511,0.24435 h 0.12339 l 0.15625,-0.21529 0.18515,-0.24605 0.1562,-0.21871 0.18515,-0.21701 0.15618,-0.24434 0.18517,-0.21699 0.15425,-0.21871 0.15433,-0.24263 0.189,-0.21869 0.15427,-0.21531 0.18708,-0.22041 0.15425,-0.24265 0.18515,-0.21698 0.15428,-0.21531 0.15623,-0.24604 0.18518,-0.2187 0.15618,-0.217 0.18515,-0.24435 0.15427,-0.21699 0.18707,-0.21873 0.15623,-0.24261 0.15428,-0.21871 0.18708,-0.21531 0.15426,-0.24603 0.18516,-0.21701 0.15427,-0.21872 0.18707,-0.21527 0.15432,-0.24606 0.15427,-0.217 0.189,-0.21871 0.15427,-0.24265 0.18514,-0.21869 0.15625,-0.21529 0.18509,-0.24606 0.15433,-0.21699 v 11.67533 z m -35.9774,-8.13668 0.12341,0.24433 h -5.2399 l 0.12341,-0.24433 0.0945,-0.24605 0.1234,-0.27168 0.1253,-0.24262 0.0925,-0.24606 0.12341,-0.24434 0.12339,-0.27165 0.12341,-0.24608 0.0945,-0.24261 0.12341,-0.24435 0.12341,-0.24603 0.0945,-0.2717 0.1234,-0.24263 0.12341,-0.24604 0.0945,-0.24435 0.12341,-0.24603 0.12341,-0.27169 0.1234,-0.24263 0.0945,-0.24604 0.1234,-0.24606 0.12341,-0.26998 0.0945,-0.24434 0.12341,-0.24602 0.12339,0.24602 0.0945,0.24434 0.11948,0.26998 0.12733,0.24606 0.0945,0.24604 0.12339,0.24263 0.12342,0.27338 0.0907,0.24434 0.12733,0.24435 0.12341,0.24604 0.0907,0.24263 0.12733,0.2734 0.0907,0.24433 0.1234,0.24435 0.12342,0.24261 0.0964,0.24608 0.12151,0.27338 0.1234,0.24261 0.0965,0.24606 0.1215,0.24262 0.12342,0.27338 0.0965,0.24435 z m 9.73735,8.13668 h 0.30854 l -0.12341,-0.24265 -0.12341,-0.24434 -0.1234,-0.24604 -0.0964,-0.27168 -0.1215,-0.23922 -0.12341,-0.24433 -0.12341,-0.24605 -0.25069,-0.48695 -0.12151,-0.27341 -0.1253,-0.24262 -0.0965,-0.24603 -0.11947,-0.24265 -0.1253,-0.24435 -0.12342,-0.24262 -0.12339,-0.27341 -0.1253,-0.24432 -0.25071,-0.48696 -0.0887,-0.24435 -0.12531,-0.24604 -0.1253,-0.27168 -0.12341,-0.24264 -0.12341,-0.24434 -0.24686,-0.48695 -0.12529,-0.24435 -0.0925,-0.27338 -0.12341,-0.24264 -0.1253,-0.24262 -0.12339,-0.24433 -0.12531,-0.24607 -0.12342,-0.24262 -0.12338,-0.27338 -0.12341,-0.24265 -0.0964,-0.24263 -0.11962,-0.24606 -0.1253,-0.24433 -0.12531,-0.24262 -0.12339,-0.2734 -0.12341,-0.24261 -0.25072,-0.48868 -0.0907,-0.24436 -0.12341,-0.24263 -0.1253,-0.24433 -0.12151,-0.27167 -0.2507,-0.48698 -0.12341,-0.24604 -0.12339,-0.24265 -0.0945,-0.24434 -0.1234,-0.27166 -0.12341,-0.24263 -0.1234,-0.24604 -0.12531,-0.24264 -0.12529,-0.24435 -0.12341,-0.24261 -0.12341,-0.27342 -0.0925,-0.2426 -0.12152,-0.24605 -0.12732,-0.24265 -0.12342,-0.24433 -0.12339,-0.24604 -0.12342,-0.26825 -0.1253,-0.24607 -0.1253,-0.24434 -0.0907,-0.24262 -0.12341,-0.24434 -0.12734,-0.24604 -0.11946,-0.27169 -0.12734,-0.24264 -0.1234,-0.24434 -0.12342,-0.24262 -0.12339,-0.24606 -0.0945,-0.24431 -0.1234,-0.27169 -0.12342,-0.24263 -0.12339,-0.24435 -0.1272,-0.24606 h -5.73364 l -0.12341,0.24606 -0.12341,0.24435 -0.12733,0.24263 -0.0907,0.27339 -0.12341,0.24261 -0.1234,0.24606 -0.12735,0.24262 -0.1215,0.24434 -0.1253,0.24264 -0.12341,0.27339 -0.12734,0.24434 -0.0907,0.24434 -0.24687,0.48696 -0.12341,0.24607 -0.1234,0.26825 -0.12734,0.24604 -0.12341,0.24433 -0.12339,0.24265 -0.0965,0.24605 -0.1215,0.24433 -0.1234,0.27169 -0.24684,0.48696 -0.1234,0.24264 -0.1253,0.24604 -0.12531,0.24263 -0.0907,0.2734 -0.12531,0.2426 -0.1234,0.24265 -0.1253,0.24604 -0.1234,0.24433 -0.12341,0.24265 -0.12341,0.27338 -0.1253,0.24262 -0.0925,0.24263 -0.24878,0.48698 -0.12342,0.24606 -0.12543,0.24433 -0.1234,0.27168 -0.12341,0.24262 -0.1234,0.24433 -0.0965,0.24606 -0.1215,0.24263 -0.12341,0.24435 -0.1253,0.27168 -0.12341,0.24262 -0.1234,0.24607 -0.12341,0.24433 -0.1253,0.24262 -0.0926,0.24435 -0.1234,0.27167 -0.12529,0.24435 -0.12341,0.24433 -0.12341,0.24262 -0.12544,0.24434 -0.1234,0.24264 -0.12341,0.27339 -0.0945,0.24433 -0.24682,0.48696 -0.1234,0.24435 -0.12531,0.24605 -0.12341,0.27168 -0.1215,0.24262 -0.12735,0.24435 -0.0925,0.24265 -0.1253,0.24603 -0.12341,0.24433 -0.1234,0.2717 -0.12341,0.24261 -0.1234,0.24434 -0.2507,0.4887 -0.0925,0.2409 -0.12151,0.27338 -0.2507,0.48868 -0.12341,0.24265 h 6.26595 l 0.1234,-0.24265 0.0926,-0.24434 0.1253,-0.24604 0.12341,-0.27168 0.0925,-0.23922 0.1253,-0.24433 0.12341,-0.24605 0.0907,-0.24434 0.12531,-0.24261 0.12529,-0.24435 0.0907,-0.24606 0.12341,-0.27165 0.12733,-0.24265 0.0926,-0.24435 0.12151,-0.24262 h 8.90029 l 0.12341,0.24262 0.0964,0.24435 0.12151,0.24265 0.12339,0.27338 0.0926,0.24433 0.12542,0.24435 0.12341,0.24261 0.0925,0.24434 0.25071,0.4887 0.0887,0.2409 0.12531,0.27338 0.1253,0.24434 0.0945,0.24434 0.12151,0.24265 z m -27.16577,-2.52199 0.21791,-0.16062 v -8.81673 h -10.23294 v 3.9607 h 4.52823 v 2.46731 l -0.24682,0.1367 -0.22181,0.10927 -0.27579,0.10773 -0.25071,0.10763 -0.27962,0.10927 -0.27578,0.0548 -0.30859,0.0821 -0.31244,0.0529 -0.30859,0.0548 -0.31241,0.0256 -0.34136,0.0272 -0.34133,0.0293 h -0.71359 l -0.33939,-0.0293 -0.3086,-0.0272 -0.31244,-0.0546 -0.30854,-0.0529 -0.31242,-0.0821 -0.3086,-0.0803 -0.27963,-0.10938 -0.27967,-0.10774 -0.27577,-0.10762 -0.25073,-0.13672 -0.24681,-0.13667 -0.24687,-0.16233 -0.25071,-0.16234 -0.21599,-0.16401 -0.18708,-0.18796 -0.21604,-0.19139 -0.18703,-0.18794 -0.18512,-0.21871 -0.15433,-0.21528 -0.15811,-0.21701 -0.15429,-0.24435 -0.1215,-0.24602 -0.12733,-0.27168 -0.0907,-0.21532 -0.0925,-0.24261 -0.0618,-0.24606 -0.1253,-0.48696 -0.0327,-0.27339 -0.0289,-0.24432 -0.0309,-0.27 v -0.62535 l 0.0309,-0.27168 0.0289,-0.26826 0.0636,-0.30073 0.0635,-0.24264 0.0618,-0.26997 0.0925,-0.27167 0.12151,-0.24263 0.0945,-0.24605 0.12529,-0.24435 0.1562,-0.21699 0.1543,-0.24435 0.15429,-0.21698 0.15426,-0.18968 0.18708,-0.21529 0.21599,-0.19137 0.18709,-0.18965 0.21602,-0.16235 0.21791,-0.16401 0.21791,-0.16063 0.24686,-0.13668 0.24687,-0.1367 0.25073,-0.13498 0.27962,-0.10773 0.27576,-0.10938 0.27969,-0.0801 0.27963,-0.0821 0.27962,-0.0529 0.30859,-0.0548 0.27963,-0.0272 0.31242,-0.0293 h 0.64994 l 0.34134,0.0293 0.3414,0.0272 0.30854,0.0256 0.30857,0.0546 0.31244,0.0564 0.27961,0.0529 0.27579,0.0802 0.27964,0.0821 0.2507,0.0821 0.24687,0.10773 0.25072,0.10927 0.27578,0.13669 0.24687,0.13327 0.25073,0.1367 0.24687,0.13497 0.24681,0.16405 0.25072,0.13498 0.24687,0.18966 0.24687,0.16232 0.18514,-0.21529 0.21792,-0.18966 0.18515,-0.21872 0.2179,-0.217 0.18515,-0.21528 0.18901,-0.19309 0.21598,-0.21529 0.18707,-0.21698 0.21601,-0.21872 0.18706,-0.18796 0.18515,-0.217 0.21795,-0.217 0.1851,-0.18965 0.18518,-0.21873 0.21795,-0.21699 0.1851,-0.21528 0.21795,-0.18967 0.18514,-0.21873 -0.24685,-0.16402 -0.25071,-0.18795 -0.24686,-0.16231 -0.2469,-0.16405 -0.2468,-0.13668 -0.24688,-0.16061 -0.28158,-0.13669 -0.24875,-0.13671 -0.27581,-0.13499 -0.2507,-0.13669 -0.27966,-0.10598 -0.27579,-0.13671 -0.28348,-0.10774 -0.27577,-0.10926 -0.27967,-0.10774 -0.27964,-0.0821 -0.24687,-0.0821 -0.27962,-0.0548 -0.27964,-0.0785 -0.27967,-0.0564 -0.27578,-0.0548 -0.28347,-0.0529 -0.30859,-0.0548 -0.30858,-0.0529 -0.27964,-0.0293 -0.34133,-0.0529 -0.30859,-0.0293 h -0.31244 l -0.34133,-0.0256 -0.34136,-0.0272 h -1.33265 l -0.30854,0.0272 -0.31243,0.0256 -0.61719,0.0564 -0.31242,0.0545 -0.30855,0.0256 -0.30858,0.0529 -0.27963,0.0821 -0.31243,0.0547 -0.27966,0.0821 -0.27772,0.0529 -0.27769,0.11096 -0.31243,0.0786 -0.24688,0.0821 -0.30854,0.1367 -0.27967,0.10773 -0.27963,0.10927 -0.27962,0.1367 -0.27968,0.13669 -0.27962,0.13498 -0.24491,0.1367 -0.25072,0.13156 -0.24686,0.16404 -0.25071,0.13669 -0.24687,0.16062 -0.21599,0.16403 -0.24879,0.18966 -0.21791,0.16231 -0.21604,0.19139 -0.21599,0.18964 -0.18706,0.18968 -0.21599,0.18966 -0.18707,0.18966 -0.18707,0.21871 -0.18517,0.21529 -0.18514,0.21701 -0.31238,0.434 -0.15239,0.21699 -0.15427,0.2187 -0.15815,0.24264 -0.12342,0.24435 -0.24688,0.48867 -0.1234,0.24434 -0.12734,0.27169 -0.0907,0.24262 -0.0945,0.27168 -0.0906,0.24263 -0.0618,0.27339 -0.0945,0.26996 -0.0618,0.24434 -0.0326,0.27169 -0.0617,0.26825 -0.0308,0.30072 -0.0307,0.27169 v 0.26825 l -0.029,0.30073 v 0.89363 l 0.029,0.2734 0.0307,0.26996 0.0308,0.2734 0.0327,0.24263 0.0617,0.27167 0.029,0.24264 0.0618,0.27338 0.0964,0.24262 0.0598,0.27168 0.0964,0.24263 0.0598,0.24604 0.1234,0.24264 0.0945,0.21871 0.12341,0.24263 0.1234,0.24435 0.1234,0.24262 0.12342,0.24604 0.15624,0.21529 0.15618,0.24607 0.15426,0.21528 0.15432,0.21871 0.18511,0.217 0.15625,0.2153 0.18513,0.18964 0.18709,0.21872 0.18706,0.18796 0.21599,0.19138 0.21599,0.18794 0.21795,0.16575 0.21791,0.18794 0.21599,0.16575 0.21796,0.16062 0.25072,0.16404 0.24491,0.16231 0.24877,0.16403 0.24688,0.13328 0.25071,0.13669 0.2777,0.135 0.24688,0.13668 0.27961,0.13498 0.27964,0.10773 0.27773,0.10763 0.28156,0.10927 0.30859,0.10773 0.27771,0.0821 0.27963,0.10773 0.27961,0.0821 0.31052,0.0548 0.27771,0.0821 0.31243,0.0529 0.27968,0.0547 0.30853,0.0529 0.3086,0.0547 0.31242,0.0272 0.30858,0.0293 0.30855,0.0257 0.34134,0.0272 0.3086,0.0257 h 1.3365 l 0.34135,-0.0257 0.30858,-0.0272 0.34134,-0.0257 0.31244,-0.0293 0.33749,-0.0272 0.31243,-0.0257 0.30855,-0.0547 0.31242,-0.0565 0.27579,-0.0529 0.31243,-0.0548 0.27967,-0.0821 0.30854,-0.0785 0.27968,-0.0821 0.27962,-0.0821 0.27963,-0.0821 0.27579,-0.10773 0.31242,-0.10763 0.27969,-0.11097 0.30853,-0.10773 0.27967,-0.13668 0.27961,-0.10598 0.27773,-0.1367 0.27961,-0.13669 0.27777,-0.13157 0.24874,-0.13671 0.25071,-0.13668 0.24494,-0.16233 0.24879,-0.13668 0.25074,-0.16063 0.21212,-0.13669 z m 9.12211,-65.418014 V 80.203132 H 115.76286 V 63.061798 h 15.38613 V 52.826882 h -26.99993 v 68.346658 h 26.99993 V 110.95229 H 115.76286 V 90.444886 Z m 77.14839,17.940994 c 0,2.68773 -1.52358,3.93505 -4.51475,3.93505 h -2.21785 c -3.10499,0 -4.80985,-1.24732 -4.80985,-3.93505 V 66.504758 c 0,-2.689439 1.70293,-4.483549 4.80788,-4.483549 h 1.99609 c 3.64115,0 4.73848,1.090125 4.73848,4.483549 v 13.657365 l 11.56564,0.01703 V 65.460712 c 0,-8.348555 -4.90244,-12.572371 -14.54912,-12.572371 h -5.77029 c -9.64666,0 -14.39478,5.26268 -14.39478,13.616368 v 42.361241 c 0,8.35198 4.74812,12.34853 14.39478,12.34853 h 5.88023 c 9.6505,0 14.43918,-3.99828 14.43918,-12.34853 V 93.845083 h -11.56564 z m -38.57709,12.78766 H 181.2917 V 52.826882 H 169.72029 Z M 154.28212,83.193303 c 0,2.733863 -0.84278,3.80691 -3.64114,3.80691 h -4.07504 V 62.005828 h 4.07504 c 2.79644,0 3.64114,1.26784 3.64114,4.001705 z m -19.276,-30.366421 v 68.346658 h 11.55982 V 96.37223 h 5.83583 c 9.01023,0 13.46139,-4.196475 13.46139,-12.688548 V 65.520557 c 0,-8.497193 -4.45116,-12.693675 -13.46139,-12.693675 z m 57.85697,129.923588 h -61.7141 l 30.85705,10.1939 z"
       id="path2"
       style="fill:#483b85;fill-opacity:1;fill-rule:evenodd;stroke-width:1.81528"
       inkscape:connector-curvature="0"
       inkscape:export-filename="C:\Users\suitedoalex\sites\epic-games-logo-5.png"
       inkscape:export-xdpi="101.12439"
       inkscape:export-ydpi="101.12439" />
  </g>
</svg>
