<svg xmlns="http://www.w3.org/2000/svg" xmlns:xlink="http://www.w3.org/1999/xlink" xml:space="preserve" width="324" height="234"><defs><linearGradient id="b"><stop offset="0" stop-color="#23163d"/><stop offset="1" stop-color="#3c1e63"/></linearGradient><linearGradient id="a"><stop offset="0" stop-color="#673aab"/><stop offset="1" stop-opacity="0"/></linearGradient><linearGradient xlink:href="#a" id="d" x1="0" x2="172.2" y1="133.7" y2="-10.7" gradientTransform="matrix(1.6 0 0 1.6 0 17.4)" gradientUnits="userSpaceOnUse"/><linearGradient xlink:href="#b" id="c" x1="0" x2="324" y1="117" y2="117" gradientUnits="userSpaceOnUse"/></defs><g fill-rule="evenodd" paint-order="markers fill stroke"><path fill="url(#c)" d="M0 0v234h324V0Z"/><path fill="url(#d)" d="M279 0H0v234h45z"/></g><g class="UnoptimicedTransforms" opacity=".9"><g class="UnoptimicedTransforms"><path fill="#fcfbfc" d="M148.3 140c-.7.2-.1 1.4 0 1.9a16 16 0 0 0 3 3.3c2.6 1.7 4.6 1.7 10.6 1.7v-3c-4.5-1.4-13-4.1-13.6-4zm-9-89.1c-2.1-1.3-2.8-2-5.3-2.2 2 3.7 2.7 7.6 3.7 11.4v.5l1.5-.3c.7.4.7 1.4 1 2.1 2.6.5 3.3-1.2 5.3-2.1h.1l.2-.4c-1.1-4-3.8-6.5-6.5-9z"/><path fill="#646265" d="M114 89.7a8.7 8.7 0 0 0-5.8-2.7c2.8.9 5.2 2 6.6 4.8 1.6 3 2.8 7.2 3.8 10.3 2 6.3 3.6 10 10.1 12.1 1.2.4 3.3 1 4.4.5l.2-.4c0-1.1-2-3.1-2.9-4a5 5 0 0 1-.2-2.7z"/><path fill="#848285" d="m133.2 114.3-1.5-1.6c-.5 0-.5 0-.8.4l-.5 1c1 .2 2 .2 2.8.5z"/><path fill="#c5c4c5" d="M130.9 113.1c-3.3-2-6.3-3-8.4-6.5-.9-1.6-4.5-10.4-5.5-10.7 0 .5 3.5 10.5 4 11.7.4.8.9 1.6 1.5 2.3 2.1 2.3 5 3.2 7.9 4.2z"/><path fill="#646265" d="m143.7 124.3-2.8 5.4c.5 0 1.2.2 1.7 0 0-.2.1-.3.4-.5.8-.5 1.1-1.2 1.5-2.1.2-.8.3-1.6 0-2.3 0-.3-.5-.3-.8-.5z"/><path fill="#fcfbfc" d="M129.7 103.8c-7.6-2.7-5.8-15.1-11.8-19.3a20.1 20.1 0 0 0-11.2-2.4c-6.6 1-14.4 5-16.5 10.7-1.4 4.1-1 9.5 1 13.4 6.6 9 22 2.5 21.2-3.8-.1-.7-.4-1-1-1.2-1.9 1-2.2 4-4.3 4.3-2.6.4-5.6.3-7.7-1.2a8.4 8.4 0 0 1-3.2-8.3c.6-2.6 2.1-5 4.3-6.5 1.7-1.3 3.6-2.2 5.8-2.6h2a9 9 0 0 1 5.7 2.9c2 2 3.6 5 4.8 7.6 2 4.9 2.9 8.2 8 10.6.7.4 1.8 1 2.5 1 .3 0 .4 0 .6-.2l.3-1.2c0-1.3-.3-2.5-.5-3.8z"/><path fill="#0c0c0d" d="M133 76c-.8 4 13.5 4.8 11 1.8 2.3-.2 5 .6 7.3 1.3l.1-.7v-1c-1.4-2.4-5-4.2-7.4-5.5-2-.8-4.4-1-6.5-.6l-.4-.3.9-6.6c3-.4 5-2.8 7.5-4.1h.1l-5.9.1c-10.5 1-8.2 7.8-6.7 15.6z"/><path fill="#848285" d="m139.2 60.2-1.4.4-.2.2c.2 1.2 0 2.4.4 3.6l.4-.8v-.3c.6-.4 1.2-.6 1.8-.8-.2-.7-.3-1.8-1-2.2z"/><use xlink:href="#f-3" transform="matrix(-.7 0 0 .7 254 25)"/><path fill="#c5c4c5" d="M135.8 112.6a10 10 0 0 0 3 2.4c4.5 2.8 6.2.3 8.1 5.2l-4.7-15z"/><path fill="#848285" d="M137 62c-3.6 1.7-4.8 5.2-6.1 8.6h-.1l.5 1.8a22 22 0 0 0 1.4 3.6c3.5-4.7 3.8-8.5 4.2-14z"/><path fill="#9e9c9f" d="m145.6 60.2-1.3-.1c-4-8.6-7.3-9.5-1.3 0-1.3 0-2.5 0-3.8.2 2.7 4.2 3.2 1.5 6.3 0z"/><path fill="#ebeaeb" d="M139.4 50.9c-.2 3.4 2.6 7.2 5 9.2l1.4.2v-.4c-1.1-4-3.8-6.5-6.5-9zm4.6 21c-2-.8-4.4-1-6.5-.6l-.4-.3c-.5.9-1 1.8-1.8 2.6-1.5 1.7-5.4 4.8-6 6.9-.2.5 0 1 0 1.4.9 3.2 2.9 5.6 3.2 9 .5 5.3-3 13-.4 17.7a16 16 0 0 0 3.6 4c.4-.2.6-.4.8-.8 3.1-8.2 10-16.2 11.5-24.5l3.3-8.2c.7-4.6-4.4-5.7-7.3-7.2z"/><path fill="#9e9c9f" d="M145.5 60.2c-2 1-2.7 2.7-5.3 2.3-.6.2-1.2.4-1.7.8v.3l-.5.8-1 6.6.5.3c9.4 0 19.5 11 23.4 15.7l1 .1V63.4c-1.4 0-2.4-.3-3.7-.6a48.5 48.5 0 0 0-11.7-2.4c-.5 0-.5 0-.9-.2z"/><path d="M145.9 60.2c.4 0 .4.3-.4 1 2.6 2 6.1 3.2 9.7 4.7-1.8 1-6.6-1.7-10.2-4-.5.3-.9.8-1.2 1.3l-.1.3c-1.6-.6-3.7 0-5.2 0v-.2c.5-.4 1.1-.6 1.7-.8 2.6.4 3.3-1.3 5.3-2.3zm-6 10.9c1.4 0 2.8.3 4.1.8 2.4 1.3 6 3.1 7.6 5.6a36 36 0 0 1 8.5 8l.1.5a24.5 24.5 0 0 0-8.7-6.8l-7.5-1.4-1.8-.1-.2-.4c1.3-1 7.3 0 9 .2a24.4 24.4 0 0 0-7.6-5l-3.6-.9-2-.1-.3-.2c.8-.2 1.6-.3 2.4-.2z"/><use xlink:href="#g" transform="matrix(-.7 0 0 .7 254 25)"/><use xlink:href="#h" transform="matrix(-.7 0 0 .7 254 25)"/><path fill="#fcfbfc" d="M139.2 124.5c-13.1-3.1-16.7-9-32.1-7.4a22 22 0 0 0-9.7 3 12.5 12.5 0 0 0-5.5 7.1c-1.6 7 4.7 22.6 8.5 28.4l1.4 2c3.5 2.8 10.6 10 19.2-1 2.9-4 4.7-8.6 5.3-13.4.3-1.6.6-3.3.3-5-.2-.9-.5-1.9-1.3-2.4-.7-.5-1.5-.3-2.2-.2.2 1 .2 2.5.7 3.5-.8 7.2-5.1 12-10.2 12.8-9.6 1.1-14.4-7.3-15.8-15l2.2-8.8 12.5-4.3 28 6.7c1-1.6 2.3-4.4 3.2-6.2l1.6-3.3a26 26 0 0 1-6 3.5z"/><path fill="#c5c4c5" d="M101.7 157.4c2.7 2.9 5.2 5 9.3 5.1 1 0 2.1 0 3.1-.3-1.3-4.2-9.5-4.2-12.4-4.8z"/><path fill="#646265" d="M102 157.3c6 3.2 16 2.1 19.9-2a81 81 0 0 1-10.7 2.1c-3.8.6-7.4.7-9.4-.1zM93.6 105c.7 2 2.5 2.6 4.3 3.2 4 1.3 9.7 1.5 12-1a19.8 19.8 0 0 1-13.5-.1c-.8-.3-2-1.7-2.9-2zm40.4 60c-1.7-3.6 2.7-9.7 8.8-18.5-15.8 5-9 18.8-8.8 18.5z"/><path fill="#848285" d="M122 155.1c-3.8 3.2-8.9 3.6-11.7 4 1.6.7 3 1.7 3.8 3.1 3.3-1.2 6.3-4.3 7.9-7.1z"/><path fill="#646265" d="M98.7 126.3c-1.5 1.6-1.6 3.7-1.5 6 .2 4.5 1 5.7.6 4.5.5-.4.9-1 1.2-1.5.3-1 1.3-2 1.8-2.8z"/><path fill="#c5c4c5" d="M105.4 122c-1.4.4-2.6 1-3.9 1.8-.9.7-2.3 1.5-2.8 2.5l2 6.2c1.2-1.8 2.8-3 4.4-4.3 10.2-4.7 15.6-1 24.6 2.7a17 17 0 0 0 8.3 2.1c2 0 3.9-.5 5.2-1.7.3-.3.5-.7.5-1.1-.4-.5-.6-.4-1.1-.5-.5.2-1.2 0-1.7 0-5.1 1.8-22.1-10.6-35.5-7.7z"/><path fill="#9e9c9f" d="M105.1 128.2c-2.1-1.4-5.9-1.4-3.5-3.8v-.6c-1 .7-2.4 1.5-2.9 2.5-.1 2.2.8 4.4 2 6.2 1.2-1.8 2.8-3 4.4-4.3z"/><path fill="#c5c4c5" d="M144.4 144.8a27 27 0 0 0-10 15.1c2.2-4.3 4.2-7.8 8.5-10 1.4-1 2.9-1.5 4.3-2.4-.2-.7-.4-1.6-1-2.1-.5-.6-1-.6-1.8-.6z"/><path fill="#848285" d="M150 138.5c0 1.4.2 2.4 1 3.3 2.8 3.2 3.4 2.5 10.9 2.5v-4.5c-4-.2-10.8-.6-12-1.3z"/><path fill="#fcfbfc" d="M145.6 140.5c0-.2-.1-.3-.3-.4-5 1.3-9.7 3.6-12.3 8-1.8 4.4-6.5 13.7-6.7 20 7.6 15 23.3 23 30 11l.4-.4c.7-1.2 1.4-2.4 1.8-3.8a55 55 0 0 0-.5-15c-.7-2.4-1.5-4.4-3.5-5.9-.4-.3-1-.5-1.4-.3-.2.3-.2.5 0 .9 1.9 4.3 2.8 9.3 2 13.4-3.3 10.1-16.8 4.6-20.4-1.3a14.4 14.4 0 0 1-.7-10.7 17 17 0 0 1 8.7-10c3.2-1.6 5.6-2 3-5.5z"/><path fill="#c5c4c5" d="M144 180.3c-12.2-6.3-7.6-5.6-5.4 1.9 2.3 2 5.3 3.1 8.3 3v-.2a35 35 0 0 0-2.9-4.7z"/><path fill="#848285" d="M143.9 179.8c-5.9-2.1-11-5.8-15-10.6-.5-.5-1-1-1.2-.9 7.6 9.2 11.8 9.7 16.4 12.5z"/><path fill="#646265" d="M156.4 179.1h-.2c-4 1-8.7 1.4-12.3.7.7 2.3 2 3.9 3 5.5 3.2-.4 6.3-1.6 8.3-4l1.2-2.2z"/><path fill="#9e9c9f" d="M130.7 80.3c2.6 4 4.1 8.5 4.3 13.2 0 6.3-3 12.4 1.5 18.3l1 .5c4.4.7 7.3 1 9 7 1.3 11 5.7 13.7 12.6 17.3l2.8.2V87.2c-6.4.7-12.7 0-18.9-1.9-3.2-.6-6.4-1.7-9.2-3.4z"/><path fill="#c5c4c5" d="m161.9 105.4-9.2.8c.3 2.4 3 8 4.6 7.7 2-.7 3.4-.9 4.6-2z"/><path fill="#ebeaeb" d="M152.7 99c-.3 2.3-.6 5 0 7.2 3.2 1.4 6.6.3 9.2 0V102a18 18 0 0 1-9.2-3z"/><path fill="#c5c4c5" d="m144 77.8 1.8 2.3c4.7 3.5 3.3 6.7-2.8 5.4 3.5.7 6.7 2.6 9 5 2 2 3.5 4 6 5.2 1-.7 2.7-2.7 3.9-3v-5.6h-1l-.7-1a23 23 0 0 0-9-7c-2.3-.8-4.7-1.3-7.2-1.3z"/><path fill="#ebeaeb" d="M148.5 111.5c-1.5 2.6-2.6 2.4-3.7 3.2 1.7 1.8 1.8 3.6 1.7 5.8 0 4-1.7 7.9-2.4 11.2.7 1.8 1.4 3.8 2.4 5.4l2.8 1.3a58 58 0 0 0 12.6 1.5v-9.1c-1.7-.2-2.4-2.5-3-3.5a6 6 0 0 0-3.8-2.8c-2.5-.3-4.9.8-5.5 3.4l-.9-.6c.4-5 2.8-11.3-.2-15.8z"/><path fill="#848285" d="M148.7 127.3c-.7 3-.3 5.4 2.3 7.4a7 7 0 0 1-1.4-6.8z"/><path fill="#646265" d="M155 132c3.5-2.8.2-6.7-2.6-4-.4 1.4-.1 2 .7 3h.3c-1.2-3.8 3.4-3.3 1.6 1z"/><path fill="#c5c4c5" d="M159.7 128.9c-1.2 2.7-1.3 3.2-3.2 5.7 1.7-.6 3.6-2.3 5.4-2.9v-1.2a4 4 0 0 1-2.2-1.6z"/><path fill="#0c0c0d" d="M136.5 102.2c.7 1 1.6 1.8 2.6 2.5 1.5 2.2 7.7 2.5 8.8 3.8a9 9 0 0 1-3.3-.3c-2.6-.6-6.2-2-7.8-4.4-.3-.5-.5-.9-.3-1.6z"/><path fill="#646265" d="M138.4 91c.4-.6 1-1.1 1.8-1.4-.3 1.5-.3 2.6.6 4a12 12 0 0 0 4.6 3.8l.5.4h.1c2 1.2 5.6.2 6.2.5-.3.4-.6.4-1 .5-1.5.2-3 .3-4.2 0-3.2-.6-5.6-3.4-7.7-5.6l-.9-2.1z"/><path fill="#c5c4c5" d="M145.2 89.7c.8.1 2 .3 2.5 1.1.4.7.4 1.5.2 2.3-.3 1.5-1.4 3.1-2 4.7l-.5-.4c-6.1-8.2-2.2-3.5-.2-7.7z"/><path fill="#fcfbfc" d="M140.2 89.6c1.5-.5 3.6 0 5 0-.5 1.5-.8 2.7-1.5 4 1 .9 2 1.7 2 3 0 .3-.2.6-.3.8-1.7-.8-3.6-2.2-4.6-3.8-1-1.5-.9-2.5-.6-4z"/><use xlink:href="#i" transform="matrix(-.7 0 0 .7 254 25)"/><path fill="#ebeaeb" d="M135.4 97.7c.7-2 1.4-4.3 3.4-4.4.7.6 2.6 1.1 2.6 2.1 5 2.2.2 5.3-1.3 9.6a7.5 7.5 0 0 1-4.7-7.3z"/><path fill="#848285" d="M151 146.3c-1-1.2-3.9-5.4-4.7-6-.3-.4-.6-.3-1-.2.2.1.3.2.3.4-.3 1.2 0 3.4-.3 3.7l-.8 1c.7 0 1.2-.4 1.8.2.5.5.7 1.4.9 2.1a24 24 0 0 1 3.8-1.2z"/><path fill="#0c0c0d" d="M144.5 114.2a4 4 0 0 0-2.8-1h.1c.5.3 1.2.5 1.7.9 1.6 1.2 2 3.5 3 5.1l.1-.5c0-1.7-.8-3.3-2-4.5z"/></g></g><path fill="#d40000" d="M141.2 89.6h2.4l.5 1.6-1 .8-1.7-.4-.3-1.5.1-.5Z"/><g class="UnoptimicedTransforms" opacity=".9"><g class="UnoptimicedTransforms"><path fill="#fcfbfc" d="M175.5 140c.7.2.1 1.4 0 1.9a16 16 0 0 1-3 3.3c-2.6 1.7-4.6 1.7-10.6 1.7v-3c4.5-1.4 13-4.1 13.6-4zm9-89.1c2.1-1.3 2.8-2 5.3-2.2-2 3.7-2.7 7.6-3.7 11.4v.5l-1.5-.3c-.7.4-.7 1.4-1 2.1-2.6.5-3.3-1.2-5.3-2.1h-.1l-.2-.4c1.1-4 3.8-6.5 6.5-9z"/><path fill="#646265" d="M209.8 89.7a8.7 8.7 0 0 1 5.8-2.7c-2.8.9-5.2 2-6.6 4.8-1.6 3-2.8 7.2-3.8 10.3-2 6.3-3.6 10-10.1 12.1-1.2.4-3.3 1-4.4.5l-.2-.4c0-1.1 2-3.1 2.9-4a5 5 0 0 0 .2-2.7z"/><path fill="#848285" d="m190.6 114.3 1.5-1.6c.5 0 .5 0 .8.4l.5 1c-1 .2-2 .2-2.8.5z"/><path fill="#c5c4c5" d="M193 113.1c3.2-2 6.2-3 8.3-6.5.9-1.6 4.5-10.4 5.5-10.7 0 .5-3.5 10.5-4 11.7-.4.8-.9 1.6-1.5 2.3-2.1 2.3-5 3.2-7.9 4.2z"/><path fill="#646265" d="m180.1 124.3 2.8 5.4c-.5 0-1.2.2-1.7 0 0-.2-.1-.3-.4-.5-.8-.5-1.1-1.2-1.5-2.1-.2-.8-.3-1.6 0-2.3 0-.3.5-.3.8-.5z"/><path fill="#fcfbfc" d="M194.1 103.8c7.6-2.7 5.8-15.1 11.8-19.3 3.4-1.9 7.3-2.7 11.2-2.4 6.6 1 14.4 5 16.5 10.7 1.4 4.1 1 9.5-1 13.4-6.6 9-22 2.5-21.2-3.8.1-.7.4-1 1-1.2 1.9 1 2.2 4 4.3 4.3 2.6.4 5.5.3 7.7-1.2a8.4 8.4 0 0 0 3.2-8.3c-.6-2.6-2.1-5-4.3-6.5a13.5 13.5 0 0 0-5.8-2.6h-2a8.9 8.9 0 0 0-5.7 2.9c-2 2-3.6 5-4.8 7.6-2 4.9-2.9 8.2-8 10.6-.7.4-1.8 1-2.5 1-.3 0-.4 0-.6-.2l-.3-1.2c0-1.3.3-2.5.5-3.8z"/><path fill="#0c0c0d" d="M190.8 76c.8 4-13.5 4.8-11 1.8a20 20 0 0 0-7.3 1.3l-.1-.7v-1c1.4-2.4 5-4.2 7.4-5.5 2-.8 4.4-1 6.5-.6l.4-.3-.9-6.6c-3-.4-5-2.8-7.5-4.1h-.1l5.9.1c10.5 1 8.2 7.8 6.7 15.6z"/><path fill="#848285" d="m184.6 60.2 1.4.4.2.2c-.2 1.2 0 2.4-.4 3.6l-.4-.8v-.3c-.6-.4-1.2-.6-1.8-.8.2-.7.3-1.8 1-2.2z"/><path fill="#c5c4c5" d="M188 112.6a10 10 0 0 1-3 2.4c-4.5 2.8-6.2.3-8.1 5.2l4.7-15z"/><path fill="#848285" d="M186.9 62c3.5 1.7 4.7 5.2 6 8.6h.1l-.5 1.8A22 22 0 0 1 191 76c-3.5-4.7-3.8-8.5-4.2-14z"/><path fill="#9e9c9f" d="m178.2 60.2 1.3-.1c4-8.6 7.3-9.5 1.3 0 1.3 0 2.5 0 3.8.2-2.7 4.2-3.2 1.5-6.3 0z"/><path fill="#ebeaeb" d="M184.4 50.9c.2 3.4-2.6 7.2-5 9.2l-1.4.2v-.4c1.1-4 3.8-6.5 6.5-9zm-4.6 21c2-.8 4.4-1 6.5-.6l.4-.3c.5.9 1 1.8 1.8 2.6 1.5 1.7 5.4 4.8 6 6.9.2.5 0 1 0 1.4-.9 3.2-2.9 5.6-3.2 9-.5 5.3 3 13 .4 17.7a16 16 0 0 1-3.6 4c-.4-.2-.6-.4-.8-.8-3.1-8.2-10-16.2-11.5-24.5l-3.3-8.2c-.7-4.6 4.4-5.7 7.3-7.2z"/><path fill="#9e9c9f" d="M178.3 60.2c2 1 2.7 2.7 5.3 2.3.6.2 1.2.4 1.7.8v.3l.5.8 1 6.6-.5.3c-9.4 0-19.5 11-23.4 15.7l-1 .1V63.4c1.4 0 2.4-.3 3.7-.6 2.2-1.1 9.1-2.2 11.7-2.4.5 0 .5 0 .9-.2z"/><path d="M177.9 60.2c-.4 0-.4.3.4 1-2.6 2-6.1 3.2-9.7 4.7 1.8 1 6.6-1.7 10.2-4 .5.3.9.8 1.2 1.3l.1.3c1.6-.6 3.7 0 5.2 0v-.2c-.5-.4-1.1-.6-1.7-.8-2.6.4-3.3-1.3-5.3-2.3zm6 10.9c-1.4 0-2.8.3-4.1.8-2.4 1.3-6 3.1-7.6 5.6a36 36 0 0 0-8.5 8l-.1.5a25 25 0 0 1 8.7-6.8l7.5-1.4 1.8-.1.2-.4c-1.3-1-7.3 0-9 .2 2.2-2.1 4.8-3.8 7.6-5l3.6-.9 2-.1.3-.2c-.8-.2-1.6-.3-2.4-.2z"/><path fill="#fcfbfc" d="M184.6 124.5c13.1-3.1 16.7-9 32.1-7.4 3.3.4 6.8 1 9.7 3a12 12 0 0 1 5.5 7.1c1.6 7-4.7 22.6-8.5 28.4l-1.4 2c-3.5 2.8-10.6 10-19.2-1-2.9-4-4.7-8.6-5.3-13.4a14 14 0 0 1-.3-5c.2-.9.5-1.9 1.3-2.4.7-.5 1.5-.3 2.2-.2-.2 1-.2 2.5-.7 3.5.8 7.2 5.1 12 10.2 12.8 9.6 1.1 14.4-7.3 15.8-15l-2.2-8.8-12.5-4.3-28 6.7c-1-1.6-2.3-4.4-3.2-6.2l-1.6-3.3a26 26 0 0 0 6 3.5z"/><path fill="#c5c4c5" d="M222.1 157.4c-2.7 2.9-5.2 5-9.3 5.1-1 0-2.1 0-3.1-.3 1.3-4.2 9.5-4.2 12.4-4.8z"/><path fill="#646265" d="M221.9 157.3c-6.1 3.2-16.1 2.1-20-2a81 81 0 0 0 10.7 2.1c3.8.6 7.4.7 9.4-.1zM230 105c-.7 2-2.5 2.6-4.3 3.2-4 1.3-9.7 1.5-12-1 3.8 1.4 8.2 1.6 13.5-.1.8-.3 2-1.7 2.9-2zm-40.1 60c1.7-3.6-2.7-9.7-8.8-18.5 15.8 5 9 18.8 8.8 18.5z"/><path fill="#848285" d="M201.8 155.1c3.8 3.2 8.9 3.6 11.7 4a7.9 7.9 0 0 0-3.8 3.1 16.5 16.5 0 0 1-7.9-7.1z"/><path fill="#646265" d="M225 126.3c1.6 1.6 1.7 3.7 1.6 6-.2 4.5-1 5.7-.6 4.5-.5-.4-.9-1-1.2-1.5-.3-1-1.3-2-1.8-2.8z"/><path fill="#c5c4c5" d="M218.4 122c1.4.4 2.6 1 3.9 1.8.9.7 2.3 1.5 2.8 2.5l-2 6.2c-1.2-1.8-2.8-3-4.4-4.3-10.2-4.7-15.6-1-24.6 2.7a17 17 0 0 1-8.3 2.1c-2 0-3.9-.5-5.2-1.7-.3-.3-.5-.7-.5-1.1.4-.5.6-.4 1.1-.6.5.3 1.2.1 1.7 0v.1c5.1 1.8 22.1-10.6 35.5-7.7z"/><path fill="#9e9c9f" d="M218.7 128.2c2.1-1.4 5.9-1.4 3.6-3.8l-.1-.6c1 .7 2.4 1.5 2.9 2.5.1 2.2-.8 4.4-2 6.2-1.2-1.8-2.8-3-4.4-4.3z"/><path fill="#c5c4c5" d="M179.4 144.8c5 3.7 8.5 9 10 15.1-2.2-4.3-4.2-7.8-8.5-10-1.4-1-2.9-1.5-4.3-2.4.2-.7.4-1.6 1-2.1.5-.6 1-.6 1.8-.6z"/><path fill="#848285" d="M173.9 138.5a5 5 0 0 1-1 3.3c-2.9 3.2-3.5 2.5-11 2.5v-4.5c4-.2 10.8-.6 12-1.3z"/><path fill="#fcfbfc" d="M178.2 140.5c0-.2.1-.3.3-.4 5 1.3 9.7 3.6 12.3 8 1.8 4.4 6.5 13.7 6.7 20-7.6 15-23.3 23-30 11l-.4-.4c-.7-1.2-1.4-2.4-1.8-3.8a55 55 0 0 1 .5-15c.7-2.4 1.5-4.4 3.5-5.9.4-.3 1-.5 1.4-.3.2.3.2.5 0 .9a23.6 23.6 0 0 0-2 13.4c3.3 10.1 16.8 4.6 20.4-1.3 1.6-3.4 1.9-7.2.7-10.7a17 17 0 0 0-8.7-10c-3.2-1.6-5.6-2-3-5.5z"/><path fill="#c5c4c5" d="M179.8 180.3c12.2-6.3 7.6-5.6 5.4 1.9-2.3 2-5.3 3.1-8.3 3v-.2a35 35 0 0 1 2.9-4.7z"/><path fill="#848285" d="M180 179.8c5.8-2.1 11-5.8 14.9-10.6.5-.5 1-1 1.2-.9-7.6 9.2-11.8 9.7-16.4 12.5z"/><path fill="#646265" d="M167.4 179.1h.2c4 1 8.7 1.4 12.3.7-.7 2.3-2 3.9-3 5.5-3.2-.4-6.3-1.6-8.3-4l-1.2-2.2z"/><path fill="#9e9c9f" d="M193.1 80.3a25.9 25.9 0 0 0-4.3 13.2c0 6.3 3 12.4-1.5 18.3l-1 .5c-4.4.7-7.3 1-9 7-1.3 11-5.7 13.7-12.6 17.3l-2.8.2V87.2c6.4.7 12.7 0 18.9-1.9 3.2-.6 6.4-1.7 9.2-3.4z"/><path fill="#c5c4c5" d="m161.9 105.4 9.2.8c-.3 2.4-3 8-4.6 7.7-2-.7-3.4-.9-4.6-2z"/><path fill="#ebeaeb" d="M171.1 99c.3 2.3.6 5 0 7.2-3.2 1.4-6.6.3-9.2 0V102a18 18 0 0 0 9.2-3z"/><path fill="#c5c4c5" d="m179.8 77.8-1.8 2.3c-4.7 3.5-3.3 6.7 2.8 5.4-3.5.7-6.7 2.6-9 5-2 2-3.5 4-6 5.2-1-.7-2.7-2.7-3.9-3v-5.6h1l.7-1a23 23 0 0 1 9-7c2.3-.8 4.7-1.3 7.2-1.3z"/><path fill="#ebeaeb" d="M175.3 111.5c1.5 2.6 2.6 2.4 3.7 3.2-1.7 1.8-1.8 3.6-1.7 5.8 0 4 1.7 7.9 2.4 11.2-.7 1.8-1.4 3.8-2.4 5.4l-2.8 1.3a58 58 0 0 1-12.6 1.5v-9.1c1.7-.2 2.4-2.5 3-3.5a6 6 0 0 1 3.8-2.8c2.5-.3 4.9.8 5.5 3.4l.9-.6c-.4-5-2.8-11.3.2-15.8z"/><path fill="#848285" d="M175.1 127.3c.7 3 .3 5.4-2.3 7.4a7 7 0 0 0 1.4-6.8z"/><path fill="#646265" d="M168.8 132c-3.5-2.8-.2-6.7 2.6-4 .4 1.4.1 2-.7 3h-.3c1.2-3.8-3.4-3.3-1.6 1z"/><path fill="#c5c4c5" d="M164.1 128.9c1.2 2.7 1.3 3.2 3.2 5.7-1.7-.6-3.6-2.3-5.4-2.9v-1.2a4 4 0 0 0 2.2-1.6z"/><path fill="#0c0c0d" d="M187.3 102.2c-.7 1-1.6 1.8-2.6 2.5-1.5 2.2-7.7 2.5-8.8 3.8a9 9 0 0 0 3.3-.3c2.6-.6 6.2-2 7.8-4.4.3-.5.5-.9.3-1.6z"/><path fill="#646265" d="M185.4 91c-.4-.6-1-1.1-1.8-1.4.3 1.5.3 2.6-.6 4a12 12 0 0 1-4.6 3.8l-.5.4h-.1c-2 1.2-5.6.2-6.2.5.3.4.6.4 1 .5 1.5.2 3 .3 4.2 0 3.2-.6 5.6-3.4 7.7-5.6l.9-2.1z"/><path fill="#c5c4c5" d="M178.6 89.7c-.8.1-2 .3-2.5 1.1a3 3 0 0 0-.2 2.3c.3 1.5 1.4 3.1 2 4.7l.5-.4c6.1-8.2 2.2-3.5.2-7.7z"/><path fill="#fcfbfc" d="M183.6 89.6c-1.5-.5-3.6 0-5 0 .5 1.5.8 2.7 1.5 4-1 .9-2 1.7-2 3 0 .3.2.6.3.8 1.7-.8 3.6-2.2 4.6-3.8 1-1.5.9-2.5.6-4z"/><path fill="#ebeaeb" d="M188.4 97.7c-.7-2-1.4-4.3-3.4-4.4-.7.6-2.6 1.1-2.6 2.1-5 2.2-.2 5.3 1.3 9.6 3-1.2 4.8-4.2 4.7-7.3z"/><path fill="#848285" d="M172.8 146.3c1-1.2 3.9-5.4 4.7-6 .3-.4.6-.3 1-.2-.2.1-.3.2-.3.4.3 1.2 0 3.4.3 3.7l.8 1c-.7 0-1.2-.4-1.8.2-.5.5-.7 1.4-.9 2.1a24 24 0 0 0-3.8-1.2z"/><path fill="#0c0c0d" d="M179.3 114.2a4 4 0 0 1 2.8-1h-.1c-.5.3-1.2.5-1.7.9-1.6 1.2-2 3.5-3 5.1l-.1-.5c0-1.7.8-3.3 2-4.5z"/></g></g><path fill="#d40000" d="m182.5 89.6 1.4.3v1.5l-1.6.6-.7-1.2Z"/></svg>