<svg xmlns="http://www.w3.org/2000/svg" xmlns:xlink="http://www.w3.org/1999/xlink" width="324" height="234"><defs><linearGradient id="e"><stop offset="0" stop-color="#0090c1"/><stop offset="1" stop-color="#0090c1" stop-opacity="0"/></linearGradient><linearGradient id="d"><stop offset="0" stop-color="#0078a1"/><stop offset="1" stop-color="#0090c1"/></linearGradient><linearGradient id="c"><stop offset="0" stop-color="#00b4f2"/><stop offset="1" stop-color="#3eceff"/></linearGradient><linearGradient id="b"><stop offset="0" stop-color="#004860"/><stop offset="1" stop-color="#002937"/></linearGradient><linearGradient id="a"><stop offset="0" stop-color="#0099ce"/><stop offset="1" stop-color="#37cbff"/></linearGradient><linearGradient xlink:href="#a" id="i" x1="0" x2="250.403" y1="1.819" y2="175.403" gradientUnits="userSpaceOnUse"/><linearGradient xlink:href="#b" id="h" x1="223.155" x2="324" y1="144.483" y2="234" gradientUnits="userSpaceOnUse"/><linearGradient xlink:href="#c" id="f" x1="0" x2="324" y1="234" y2="0" gradientUnits="userSpaceOnUse"/><linearGradient xlink:href="#d" id="g" x1="0" x2="324" y1="234" y2="0" gradientUnits="userSpaceOnUse"/><linearGradient xlink:href="#e" id="j" x1="0" x2="324" y1="31.043" y2="31.043" gradientTransform="translate(-.257 -.059)" gradientUnits="userSpaceOnUse"/></defs><path fill="url(#f)" d="M0 0v234h324V0Z"/><path fill="url(#g)" d="m324 0-56.72 62.086v110.096H56.208L0 234h324z"/><path fill="url(#h)" d="M56.209 172.182 324 234 267.28 62.086 56.208 172.182"/><path fill="url(#i)" d="M267.28 62.086-.513.268 56.21 172.182 267.28 62.086"/><path fill="url(#j)" d="m-.257.327 267.28 61.7 56.72-62.086z"/><text xml:space="preserve" x="93.795" y="149.105" fill="#ececec" stroke-width="1.012" font-family="URW Bookman L" font-size="40.473" font-weight="700" style="line-height:1.25;-inkscape-font-specification:&quot;URW Bookman L Bold&quot;" transform="scale(1.01 .99)"><tspan x="93.795" y="149.105">IPTV</tspan></text><rect width="118.779" height="91.115" x="86.278" y="87.659" fill="none" stroke="#e6e6e6" stroke-linecap="round" stroke-width="3" paint-order="markers fill stroke" rx="5" ry="5"/><circle cx="228.587" cy="145.183" r="8.7" fill="none" stroke="#e6e6e6" stroke-linecap="round" stroke-width="3" paint-order="markers fill stroke"/><circle cx="228.587" cy="170.074" r="8.7" fill="none" stroke="#e6e6e6" stroke-linecap="round" stroke-width="3" paint-order="markers fill stroke"/><rect width="31.15" height="6.044" x="212.82" y="86.682" fill="none" stroke="#e6e6e6" stroke-linecap="round" stroke-width="3" paint-order="markers fill stroke" rx="3" ry="2.722"/><rect width="31.15" height="6.044" x="212.82" y="98.867" fill="none" stroke="#e6e6e6" stroke-linecap="round" stroke-width="3" paint-order="markers fill stroke" rx="3" ry="2.722"/><rect width="31.15" height="6.044" x="212.82" y="111.052" fill="none" stroke="#e6e6e6" stroke-linecap="round" stroke-width="3" paint-order="markers fill stroke" rx="3" ry="2.722"/><path fill="none" stroke="#e6e6e6" stroke-linecap="round" stroke-width="3" d="M113.14 27.842c-.453.01-.855.162-1.14.465l-.686.726c-.76.807-.397 2.374.813 3.514l45.81 43.16H77.323c-2.216 0-4 1.784-4 4v106.906c0 2.216 1.784 4 4 4h168.205c2.216 0 4-1.784 4-4V79.707c0-2.216-1.784-4-4-4h-74.582l34.36-35.45c1.156-1.193 1.448-2.775.652-3.546l-.719-.695c-.795-.772-2.366-.432-3.523.761l-37.137 38.315-49.021-46.184c-.756-.712-1.66-1.084-2.416-1.066z" paint-order="markers fill stroke"/></svg>