<svg xmlns="http://www.w3.org/2000/svg" xmlns:xlink="http://www.w3.org/1999/xlink" width="324" height="234">
  <defs>
    <linearGradient id="d">
      <stop offset="0" stop-color="#7e7e7e"/>
      <stop offset="1" stop-color="#fff"/>
    </linearGradient>
    <linearGradient id="e" x1="64.678" x2="244.678" y1="129.6864" y2="-.3136" gradientTransform="matrix(1.8 0 0 1.8 -117.5958 -258.103)" gradientUnits="userSpaceOnUse">
      <stop offset="0" stop-color="#9755ff"/>
      <stop offset="1" stop-color="#71c2ff"/>
    </linearGradient>
    <linearGradient xlink:href="#a" id="g" x1="-364.8914" x2="-295.2488" y1="232.3267" y2="191.7036" gradientTransform="translate(78.2408 90.9763) scale(.79634)" gradientUnits="userSpaceOnUse"/>
    <linearGradient id="a">
      <stop offset="0" stop-color="#4188e9"/>
      <stop offset="1" stop-color="#8db7f2"/>
    </linearGradient>
    <linearGradient xlink:href="#b" id="h" x1="-295.6062" x2="-295.2488" y1="111.0825" y2="191.7036" gradientTransform="translate(79.8335 87.3836) scale(.79634)" gradientUnits="userSpaceOnUse"/>
    <linearGradient id="b">
      <stop offset="0" stop-color="#1452a4"/>
      <stop offset="1" stop-color="#1d72e3"/>
    </linearGradient>
    <linearGradient xlink:href="#c" id="i" x1="-225.9637" x2="-295.2488" y1="231.7056" y2="191.7036" gradientTransform="translate(81.4262 90.9763) scale(.79634)" gradientUnits="userSpaceOnUse"/>
    <linearGradient id="c">
      <stop offset="0" stop-color="#469498"/>
      <stop offset="1" stop-color="#88c5c8"/>
    </linearGradient>
    <radialGradient xlink:href="#d" id="f" cx="-146.7418" cy="490.5398" r="45.7993" fx="-146.7418" fy="490.5398" gradientTransform="matrix(1 0 0 1.15174 0 -74.4344)" gradientUnits="userSpaceOnUse"/>
  </defs>
  <path fill="url(#e)" d="M-1.1755-258.6674h324v234h-324z" transform="translate(1.1755 258.6674)"/>
  <path fill="#313131" fill-opacity=".5876" d="m252.6245 169.204-86.5281 50.472-86.9742-49.6995-.446-100.1717 86.528-50.472 86.9743 49.6995z"/>
  <path fill="url(#f)" d="m-100.9425 516.7108-45.5645 26.5779-45.7993-26.171-.2348-52.749 45.5644-26.5778 45.7993 26.171z" transform="translate(439.8724 -823.5468) scale(1.91386)"/>
  <path fill="#313131" d="m237.9171 160.357-78.4835 45.7796-78.8882-45.0789-.4046-90.8586 78.4836-45.7797 78.8882 45.079z"/>
  <path fill="url(#g)" d="m-212.6215 211.784.2846 64.2035 54.89 31.359.5692-63.7088z" transform="translate(353.654 -188.4975) scale(1.2522)"/>
  <path fill="url(#h)" d="m-155.5697 175.8432-55.4592 32.3482 55.7439 31.8536 55.4592-32.3482z" transform="translate(353.654 -188.4975) scale(1.2522)"/>
  <path fill="url(#i)" d="m-98.2332 211.2895-55.4591 32.3482-.5693 63.7088 55.7438-31.8537z" transform="translate(353.654 -188.4975) scale(1.2522)"/>
  <path fill="#fff" d="M151.515 65.361h15.0279v31.676h-15.0278zm0-18.6208h15.0279v11.5824h-15.0278zm-47.0077 69.8192c-2.9577-.0233-5.9196 1.2314-8.1344 3.446-2.7816 2.7826-3.3395 6.405-3.4264 10.24v17.4427c.0869 3.835.6448 7.4575 3.4264 10.2401 2.2148 2.2146 5.1767 3.4693 8.1344 3.446.5743-.005 47.17-.0244 47.17-.0244v-9.7045h-47.2776a1.7462 1.7462 0 0 1-1.24-.5112 1.7465 1.7465 0 0 1-.5112-1.24v-21.8546c0-.485.1947-.9234.5112-1.24a1.7465 1.7465 0 0 1 1.24-.5111h47.2776v-9.7045s-46.5957-.0195-47.17-.0244zm73.0396.7422v.0025c-2.9577-.0233-5.9195 1.2313-8.1344 3.446-2.7815 2.7825-3.3395 6.405-3.4264 10.24v17.4427c.087 3.835.6449 7.4575 3.4264 10.24 2.2149 2.2147 5.1767 3.4694 8.1344 3.446.1637-.0012 7.7223-.0062 13.4415-.01v-9.7216h-13.5491c-.485 0-.9235-.1946-1.24-.5111a1.7465 1.7465 0 0 1-.5111-1.24v-3.1085h49.4616V130.99c-.087-3.835-.6449-7.4575-3.4264-10.2401-2.2149-2.2146-5.1767-3.4693-8.1344-3.446-.5469.005-35.8866-.0012-36.0421-.0025zm-.1076 9.7289 36.2574.0025c.485 0 .9234.1946 1.24.5112.3165.3165.511.7549.511 1.24v9.0392h-39.7595v-9.0417c0-.485.1946-.9235.5111-1.24a1.7465 1.7465 0 0 1 1.24-.5111z"/>
</svg>
