<svg xmlns="http://www.w3.org/2000/svg" xmlns:xlink="http://www.w3.org/1999/xlink" width="324" height="234"><defs><linearGradient id="d" x1="1" x2="47" gradientTransform="rotate(-90 24 24)" gradientUnits="userSpaceOnUse"><stop offset="0" stop-color="#f9f4f8" stop-opacity="0"/><stop offset="1" stop-color="#d6d1e5"/></linearGradient><linearGradient id="b"><stop offset="0" stop-color="#feeff6"/><stop offset="1" stop-color="#fcb8dc"/></linearGradient><linearGradient id="a"><stop offset="0" stop-color="#ff72b4"/><stop offset="1" stop-color="#f07"/></linearGradient><linearGradient id="c" x2="0" y1="547.8" y2="536.8" gradientTransform="matrix(1 0 0 .55 0 244)" gradientUnits="userSpaceOnUse"><stop stop-color="#f8ddf8"/><stop offset="1" stop-color="#fbf2fb"/></linearGradient><linearGradient xlink:href="#a" id="h" x1="46.074" x2="134.199" y1="64.762" y2="64.762" gradientUnits="userSpaceOnUse"/><linearGradient xlink:href="#b" id="g" x1="46.074" x2="134.199" y1="64.762" y2="64.762" gradientUnits="userSpaceOnUse"/><linearGradient xlink:href="#a" id="i" x1="47.164" x2="130.52" y1="63.323" y2="65.337" gradientUnits="userSpaceOnUse"/><radialGradient xlink:href="#c" id="e" cx="90.174" cy="65.347" r="90.317" fx="90.174" fy="65.347" gradientTransform="matrix(1.8 0 0 1.3 .258 32.347)" gradientUnits="userSpaceOnUse"/><radialGradient xlink:href="#d" id="f" cx="-63.368" cy="-97.668" r="60.806" fx="-63.368" fy="-97.668" gradientTransform="matrix(1.18 -.1 .4 1.14 50.806 7.345)" gradientUnits="userSpaceOnUse"/></defs><path fill="url(#e)" d="M0 0h324v234H0z"/><ellipse cx="-63.368" cy="-97.668" fill="url(#f)" fill-rule="evenodd" rx="60.806" ry="61.224" transform="matrix(-1.69 0 -1.01 1.55 -43.834 268.177)"/><ellipse cx="90.136" cy="64.762" fill="url(#g)" fill-rule="evenodd" stroke="url(#h)" stroke-width="2.634" rx="42.746" ry="42.339" transform="matrix(1.69 0 0 1.69 10.067 7.838)"/><text xml:space="preserve" x="66.2" y="79.962" fill="url(#i)" font-family="sans-serif" font-size="40" font-weight="400" letter-spacing="0" style="line-height:1.25" transform="matrix(1.69 0 0 1.69 10.067 7.838)" word-spacing="0"><tspan x="66.2" y="79.962">lm</tspan></text></svg>