<?xml version="1.0" encoding="UTF-8"?>
<svg xmlns="http://www.w3.org/2000/svg" xmlns:xlink="http://www.w3.org/1999/xlink" width="324px" height="234px" viewBox="0 0 324 234" version="1.1">
<defs>
<radialGradient id="radial0" gradientUnits="userSpaceOnUse" cx="90.136406" cy="64.761543" fx="90.136406" fy="64.761543" r="91.591759" gradientTransform="matrix(1.8,0,0,1.304046,0,32.11876)">
<stop offset="0" style="stop-color:rgb(16.078432%,50.196081%,72.549021%);stop-opacity:1;"/>
<stop offset="1" style="stop-color:rgb(20.392157%,28.627452%,36.862746%);stop-opacity:1;"/>
</radialGradient>
<linearGradient id="linear0" gradientUnits="userSpaceOnUse" x1="17.569799" y1="23.110168" x2="30.553665" y2="23.110168" gradientTransform="matrix(5.417158,0,0,4.938067,31.899348,-2.486843)">
<stop offset="0" style="stop-color:rgb(20%,27.058825%,27.058825%);stop-opacity:1;"/>
<stop offset="1" style="stop-color:rgb(32.549021%,38.039216%,38.039216%);stop-opacity:1;"/>
</linearGradient>
</defs>
<g id="surface1">
<rect x="0" y="0" width="324" height="234" style="fill:url(#radial0);stroke:none;"/>
<path style="fill:none;stroke-width:1.021703;stroke-linecap:butt;stroke-linejoin:miter;stroke:rgb(100%,100%,100%);stroke-opacity:1;stroke-miterlimit:4;" d="M -0.94401 -1.082899 L 181.217448 -1.082899 L 181.217448 130.605469 L -0.94401 130.605469 Z M -0.94401 -1.082899 " transform="matrix(1.8,0,0,1.8,0,0)"/>
<path style=" stroke:none;fill-rule:nonzero;fill:rgb(90.196079%,56.078434%,3.137255%);fill-opacity:1;" d="M 161.433594 74.371094 C 158.496094 82.285156 156.976562 90.605469 153.097656 98.253906 L 147.277344 107.28125 C 142.691406 106.824219 138.605469 107.007812 137.695312 111.160156 C 135.96875 112.660156 133.285156 120.882812 132.441406 116.148438 L 126.042969 96.3125 L 118.964844 118.25 L 108.347656 110.023438 C 104.589844 110.3125 99.925781 113.5625 96.734375 111.992188 L 83.574219 101.796875 L 69.417969 112.765625 L 62.339844 101.796875 C 58.503906 105.914062 55.332031 110.617188 51.101562 114.382812 C 45.871094 116.335938 41.699219 118.25 34.8125 118.25 L -0.578125 118.25 C -0.675781 120.070312 -0.753906 121.898438 -0.753906 123.734375 C -0.753906 125.574219 -0.675781 127.398438 -0.578125 129.222656 C 13.402344 129.222656 27.558594 129.222656 41.742188 129.222656 C 46.578125 131.304688 52.585938 132.59375 54.835938 136.949219 L 62.359375 145.679688 L 69.441406 134.710938 L 83.597656 145.679688 L 97.753906 134.710938 C 101.511719 135.003906 106.160156 138.25 109.351562 136.679688 L 118.988281 129.226562 L 126.066406 151.167969 L 133.144531 129.226562 L 140.222656 140.195312 C 144.808594 139.742188 148.890625 139.921875 149.804688 144.074219 C 156.160156 152.136719 157.316406 161.691406 160.65625 170.621094 C 161.605469 176.105469 163.238281 167.742188 164.554688 165.910156 C 167.054688 158.785156 171.179688 152.1875 175.617188 145.679688 C 180.289062 146.164062 184.339844 145.972656 184.464844 141.566406 L 189.773438 129.226562 L 203.929688 137.453125 L 218.085938 129.226562 L 232.242188 153.910156 L 246.402344 134.710938 L 260.558594 145.679688 L 267.636719 129.226562 L 281.792969 140.195312 C 286.816406 136.675781 291.289062 132.113281 296.65625 129.226562 L 324.675781 129.226562 C 324.777344 127.40625 324.855469 125.578125 324.855469 123.742188 C 324.855469 121.902344 324.777344 120.078125 324.675781 118.257812 L 295.949219 118.257812 L 281.792969 107.285156 L 267.636719 118.257812 L 260.558594 101.800781 L 246.402344 112.773438 L 232.242188 93.574219 L 218.085938 118.257812 L 203.929688 110.027344 L 189.773438 118.257812 L 175.617188 96.316406 C 170.898438 96.808594 166.871094 96.605469 167.1875 92.105469 Z M 161.433594 74.371094 "/>
<path style=" stroke:none;fill-rule:nonzero;fill:rgb(0%,0%,0%);fill-opacity:0.098;" d="M 196.585938 121.234375 L 201.605469 132.613281 L 201.605469 100.523438 L 196.585938 111.902344 C 192.34375 111.902344 192.34375 121.230469 196.585938 121.230469 "/>
<path style=" stroke:none;fill-rule:nonzero;fill:rgb(90.196079%,90.196079%,90.196079%);fill-opacity:1;" d="M 125.066406 52.375 L 199.421875 52.375 C 201.085938 52.375 202.4375 53.691406 202.4375 55.316406 L 202.4375 177.824219 C 202.4375 179.449219 201.085938 180.765625 199.421875 180.765625 L 125.066406 180.765625 C 123.402344 180.765625 122.054688 179.449219 122.054688 177.824219 L 122.054688 55.316406 C 122.054688 53.691406 123.402344 52.375 125.066406 52.375 Z M 125.066406 52.375 "/>
<path style=" stroke:none;fill-rule:nonzero;fill:url(#linear0);" d="M 127.078125 57.3125 L 197.414062 57.3125 L 197.414062 165.953125 L 127.078125 165.953125 Z M 127.078125 57.3125 "/>
<path style=" stroke:none;fill-rule:evenodd;fill:rgb(94.901961%,94.901961%,94.901961%);fill-opacity:1;" d="M 167.269531 82.003906 L 157.222656 82.726562 L 157.222656 123.746094 L 167.269531 122.492188 L 167.269531 104.585938 C 171.8125 111.328125 175.242188 117.59375 181.320312 124.109375 L 192.171875 121.042969 C 186.367188 114.425781 182.023438 108.605469 178.066406 102.25 C 182.1875 96.28125 187.34375 90.285156 192.390625 84.921875 L 181.144531 82.210938 C 175.894531 88.023438 171.449219 94.035156 167.269531 100.066406 M 143.179688 90.402344 C 143.035156 90.421875 142.859375 90.507812 142.71875 90.644531 C 141.480469 91.792969 140.316406 92.941406 139.089844 94.085938 C 138.550781 94.597656 139.101562 95.203125 139.335938 95.628906 L 141.828125 99.011719 L 143.691406 101.480469 C 143.953125 101.835938 144.035156 101.875 143.898438 102.125 C 143.730469 102.382812 143.597656 102.597656 143.4375 102.859375 C 141.015625 106.859375 142.710938 107.167969 137.523438 108.46875 L 133.546875 109.113281 C 132.960938 109.308594 132.195312 109.289062 132.15625 110.085938 C 132.15625 111.707031 132.152344 113.316406 132.152344 114.925781 C 132.121094 115.667969 132.964844 115.734375 133.464844 115.859375 L 137.691406 116.582031 L 140.863281 117.148438 C 141.296875 117.207031 141.390625 117.109375 141.492188 117.425781 C 142.789062 122.796875 144.480469 121.5625 141.65625 126.257812 L 139.382812 129.375 C 139.078125 129.914062 138.515625 130.445312 139.089844 130.996094 C 140.285156 132.160156 141.4375 133.335938 142.640625 134.503906 C 143.167969 135.015625 143.859375 134.496094 144.289062 134.265625 L 147.792969 131.875 L 150.410156 130.140625 C 150.769531 129.855469 150.820312 129.785156 151.085938 129.9375 C 156.335938 133.089844 156.523438 130.8125 158.050781 136.121094 L 158.804688 139.917969 C 159 140.484375 159.019531 141.214844 159.824219 141.246094 L 164.921875 141.246094 C 165.6875 141.246094 165.757812 140.386719 165.851562 139.917969 L 166.566406 135.878906 L 167.074219 132.890625 C 167.105469 132.605469 167.09375 132.457031 167.148438 132.363281 C 173.296875 131.117188 171.769531 129.367188 176.773438 132.160156 L 180.019531 134.339844 C 180.617188 134.625 181.1875 135.128906 181.753906 134.589844 C 182.960938 133.472656 184.15625 132.34375 185.367188 131.238281 C 185.902344 130.699219 185.375 130.082031 185.121094 129.667969 L 185.113281 129.667969 L 182.753906 126.476562 L 181.195312 126.996094 C 180.792969 127.25 180.265625 127.15625 179.792969 126.550781 L 176.382812 122.230469 C 173.191406 126.453125 168.03125 129.183594 162.191406 129.183594 C 152.5625 129.183594 144.707031 121.671875 144.707031 112.453125 C 144.707031 105.90625 148.671875 100.234375 154.417969 97.488281 L 154.417969 93.644531 C 154.222656 93.738281 153.996094 93.785156 153.832031 93.847656 C 151.585938 94.738281 151.4375 95.144531 147.757812 93.125 L 144.511719 90.90625 C 144.058594 90.714844 143.65625 90.351562 143.246094 90.445312 M 154.398438 99.046875 C 149.515625 101.6875 146.195312 106.75 146.195312 112.507812 C 146.195312 121 153.433594 127.941406 162.339844 127.941406 C 167.84375 127.941406 172.671875 125.273438 175.585938 121.210938 L 175.429688 120.886719 C 172.015625 124.511719 168.160156 126.867188 162.296875 126.988281 C 154.984375 127.113281 147.589844 120.886719 147.550781 112.679688 C 147.488281 107.386719 150.042969 103.824219 154.386719 101.292969 L 154.386719 99.066406 "/>
<path style=" stroke:none;fill-rule:nonzero;fill:rgb(20%,20%,20%);fill-opacity:1;" d="M 154.710938 170.890625 L 169.78125 170.890625 C 171.167969 170.890625 172.292969 171.988281 172.292969 173.339844 L 172.292969 173.378906 C 172.292969 174.730469 171.167969 175.828125 169.78125 175.828125 L 154.710938 175.828125 C 153.320312 175.828125 152.199219 174.730469 152.199219 173.378906 L 152.199219 173.339844 C 152.199219 171.988281 153.320312 170.890625 154.710938 170.890625 Z M 154.710938 170.890625 "/>
</g>
</svg>
