<?xml version="1.0" encoding="UTF-8"?>
<svg xmlns="http://www.w3.org/2000/svg" xmlns:xlink="http://www.w3.org/1999/xlink" width="324px" height="234px" viewBox="0 0 324 234" version="1.1">
<defs>
<linearGradient id="linear0" gradientUnits="userSpaceOnUse" x1="15.420335" y1="9.569507" x2="18.785957" y2="9.569507" gradientTransform="matrix(4.781242,0,0,4.557412,47.177989,9.079714)">
<stop offset="0" style="stop-color:rgb(59.607846%,60.392159%,60.784316%);stop-opacity:1;"/>
<stop offset="1" style="stop-color:rgb(96.470588%,96.470588%,96.862745%);stop-opacity:1;"/>
</linearGradient>
<linearGradient id="linear1" gradientUnits="userSpaceOnUse" x1="20.062433" y1="9.569507" x2="23.428375" y2="9.569507" gradientTransform="matrix(4.781242,0,0,4.557412,47.177989,9.079714)">
<stop offset="0" style="stop-color:rgb(59.607846%,60.392159%,60.784316%);stop-opacity:1;"/>
<stop offset="1" style="stop-color:rgb(96.470588%,96.470588%,96.862745%);stop-opacity:1;"/>
</linearGradient>
<linearGradient id="linear2" gradientUnits="userSpaceOnUse" x1="24.704786" y1="9.569507" x2="28.07041" y2="9.569507" gradientTransform="matrix(4.781242,0,0,4.557412,47.177989,9.079714)">
<stop offset="0" style="stop-color:rgb(59.607846%,60.392159%,60.784316%);stop-opacity:1;"/>
<stop offset="1" style="stop-color:rgb(96.470588%,96.470588%,96.862745%);stop-opacity:1;"/>
</linearGradient>
<linearGradient id="linear3" gradientUnits="userSpaceOnUse" x1="29.347075" y1="9.569507" x2="32.71257" y2="9.569507" gradientTransform="matrix(4.781242,0,0,4.557412,47.177989,9.079714)">
<stop offset="0" style="stop-color:rgb(59.607846%,60.392159%,60.784316%);stop-opacity:1;"/>
<stop offset="1" style="stop-color:rgb(96.470588%,96.470588%,96.862745%);stop-opacity:1;"/>
</linearGradient>
<linearGradient id="linear4" gradientUnits="userSpaceOnUse" x1="29.346884" y1="37.602379" x2="32.712418" y2="37.602379" gradientTransform="matrix(4.781242,0,0,4.557412,47.177989,9.079714)">
<stop offset="0" style="stop-color:rgb(59.607846%,60.392159%,60.784316%);stop-opacity:1;"/>
<stop offset="1" style="stop-color:rgb(96.470588%,96.470588%,96.862745%);stop-opacity:1;"/>
</linearGradient>
<linearGradient id="linear5" gradientUnits="userSpaceOnUse" x1="24.704786" y1="37.602379" x2="28.070385" y2="37.602379" gradientTransform="matrix(4.781242,0,0,4.557412,47.177989,9.079714)">
<stop offset="0" style="stop-color:rgb(59.607846%,60.392159%,60.784316%);stop-opacity:1;"/>
<stop offset="1" style="stop-color:rgb(96.470588%,96.470588%,96.862745%);stop-opacity:1;"/>
</linearGradient>
<linearGradient id="linear6" gradientUnits="userSpaceOnUse" x1="20.062433" y1="37.602379" x2="23.428242" y2="37.602379" gradientTransform="matrix(4.781242,0,0,4.557412,47.177989,9.079714)">
<stop offset="0" style="stop-color:rgb(59.607846%,60.392159%,60.784316%);stop-opacity:1;"/>
<stop offset="1" style="stop-color:rgb(96.470588%,96.470588%,96.862745%);stop-opacity:1;"/>
</linearGradient>
<linearGradient id="linear7" gradientUnits="userSpaceOnUse" x1="15.420335" y1="37.602383" x2="18.785816" y2="37.602383" gradientTransform="matrix(4.781242,0,0,4.557412,47.177989,9.079714)">
<stop offset="0" style="stop-color:rgb(59.607846%,60.392159%,60.784316%);stop-opacity:1;"/>
<stop offset="1" style="stop-color:rgb(96.470588%,96.470588%,96.862745%);stop-opacity:1;"/>
</linearGradient>
<linearGradient id="linear8" gradientUnits="userSpaceOnUse" x1="36.067333" y1="16.701996" x2="40.420864" y2="16.701996" gradientTransform="matrix(4.781242,0,0,4.557412,47.177989,9.079714)">
<stop offset="0" style="stop-color:rgb(59.607846%,60.392159%,60.784316%);stop-opacity:1;"/>
<stop offset="1" style="stop-color:rgb(96.470588%,96.470588%,96.862745%);stop-opacity:1;"/>
</linearGradient>
<linearGradient id="linear9" gradientUnits="userSpaceOnUse" x1="36.067268" y1="21.29122" x2="40.420864" y2="21.29122" gradientTransform="matrix(4.781242,0,0,4.557412,47.177989,9.079714)">
<stop offset="0" style="stop-color:rgb(59.607846%,60.392159%,60.784316%);stop-opacity:1;"/>
<stop offset="1" style="stop-color:rgb(96.470588%,96.470588%,96.862745%);stop-opacity:1;"/>
</linearGradient>
<linearGradient id="linear10" gradientUnits="userSpaceOnUse" x1="36.067268" y1="25.880695" x2="40.420868" y2="25.880695" gradientTransform="matrix(4.781242,0,0,4.557412,47.177989,9.079714)">
<stop offset="0" style="stop-color:rgb(59.607846%,60.392159%,60.784316%);stop-opacity:1;"/>
<stop offset="1" style="stop-color:rgb(96.470588%,96.470588%,96.862745%);stop-opacity:1;"/>
</linearGradient>
<linearGradient id="linear11" gradientUnits="userSpaceOnUse" x1="36.067268" y1="30.470047" x2="40.420864" y2="30.470047" gradientTransform="matrix(4.781242,0,0,4.557412,47.177989,9.079714)">
<stop offset="0" style="stop-color:rgb(59.607846%,60.392159%,60.784316%);stop-opacity:1;"/>
<stop offset="1" style="stop-color:rgb(96.470588%,96.470588%,96.862745%);stop-opacity:1;"/>
</linearGradient>
<linearGradient id="linear12" gradientUnits="userSpaceOnUse" x1="7.712041" y1="30.469952" x2="12.065828" y2="30.469952" gradientTransform="matrix(4.781242,0,0,4.557412,47.177989,9.079714)">
<stop offset="0" style="stop-color:rgb(59.607846%,60.392159%,60.784316%);stop-opacity:1;"/>
<stop offset="1" style="stop-color:rgb(96.470588%,96.470588%,96.862745%);stop-opacity:1;"/>
</linearGradient>
<linearGradient id="linear13" gradientUnits="userSpaceOnUse" x1="7.712041" y1="25.880632" x2="12.065828" y2="25.880632" gradientTransform="matrix(4.781242,0,0,4.557412,47.177989,9.079714)">
<stop offset="0" style="stop-color:rgb(59.607846%,60.392159%,60.784316%);stop-opacity:1;"/>
<stop offset="1" style="stop-color:rgb(96.470588%,96.470588%,96.862745%);stop-opacity:1;"/>
</linearGradient>
<linearGradient id="linear14" gradientUnits="userSpaceOnUse" x1="7.712041" y1="21.291094" x2="12.065828" y2="21.291094" gradientTransform="matrix(4.781242,0,0,4.557412,47.177989,9.079714)">
<stop offset="0" style="stop-color:rgb(59.607846%,60.392159%,60.784316%);stop-opacity:1;"/>
<stop offset="1" style="stop-color:rgb(96.470588%,96.470588%,96.862745%);stop-opacity:1;"/>
</linearGradient>
<linearGradient id="linear15" gradientUnits="userSpaceOnUse" x1="7.712041" y1="16.701807" x2="12.065828" y2="16.701807" gradientTransform="matrix(4.781242,0,0,4.557412,47.177989,9.079714)">
<stop offset="0" style="stop-color:rgb(59.607846%,60.392159%,60.784316%);stop-opacity:1;"/>
<stop offset="1" style="stop-color:rgb(96.470588%,96.470588%,96.862745%);stop-opacity:1;"/>
</linearGradient>
<linearGradient id="linear16" gradientUnits="userSpaceOnUse" x1="-41.419678" y1="13.052147" x2="-34.516399" y2="13.052147" gradientTransform="matrix(4.781242,0,0,4.557412,314.228092,30.316194)">
<stop offset="0" style="stop-color:rgb(100%,75.686276%,41.176471%);stop-opacity:1;"/>
<stop offset="1" style="stop-color:rgb(100%,66.274512%,17.647059%);stop-opacity:1;"/>
</linearGradient>
</defs>
<g id="surface1">
<rect x="0" y="0" width="324" height="234" style="fill:rgb(13.725491%,44.313726%,53.333336%);fill-opacity:1;stroke:none;"/>
<path style="fill:none;stroke-width:1.021703;stroke-linecap:butt;stroke-linejoin:miter;stroke:rgb(100%,100%,100%);stroke-opacity:1;stroke-miterlimit:4;" d="M -0.94401 -1.082899 L 181.217448 -1.082899 L 181.217448 130.605469 L -0.94401 130.605469 Z M -0.94401 -1.082899 " transform="matrix(1.8,0,0,1.8,0,0)"/>
<path style=" stroke:none;fill-rule:nonzero;fill:rgb(21.568628%,25.490198%,28.627452%);fill-opacity:1;" d="M 166.273438 112.921875 C 166.273438 112.121094 166.015625 111.488281 165.488281 110.988281 C 164.957031 110.503906 164.238281 110.265625 163.308594 110.265625 L 159.542969 110.265625 L 159.542969 115.5625 L 163.308594 115.5625 C 164.238281 115.5625 164.957031 115.320312 165.488281 114.835938 C 166.015625 114.367188 166.273438 113.71875 166.273438 112.921875 Z M 166.273438 112.921875 "/>
<path style=" stroke:none;fill-rule:nonzero;fill:url(#linear0);" d="M 120.90625 62.453125 L 120.90625 62.5 L 137 62.5 L 137 55.304688 L 133.351562 55.304688 C 132.667969 55.304688 132.117188 54.785156 132.117188 54.144531 L 132.117188 42.882812 L 125.78125 42.882812 L 125.78125 54.144531 C 125.78125 54.785156 125.230469 55.304688 124.550781 55.304688 L 120.90625 55.304688 Z M 120.90625 62.453125 "/>
<path style=" stroke:none;fill-rule:nonzero;fill:url(#linear1);" d="M 158.304688 62.5 L 159.195312 62.5 L 159.195312 55.304688 L 155.554688 55.304688 C 154.875 55.304688 154.324219 54.785156 154.324219 54.144531 L 154.324219 42.882812 L 147.984375 42.882812 L 147.984375 54.144531 C 147.984375 54.785156 147.433594 55.304688 146.753906 55.304688 L 143.101562 55.304688 L 143.101562 62.5 Z M 158.304688 62.5 "/>
<path style=" stroke:none;fill-rule:nonzero;fill:url(#linear2);" d="M 165.296875 62.453125 L 165.296875 62.5 L 181.390625 62.5 L 181.390625 55.304688 L 177.742188 55.304688 C 177.0625 55.304688 176.507812 54.785156 176.507812 54.144531 L 176.507812 42.882812 L 170.175781 42.882812 L 170.175781 54.144531 C 170.175781 54.785156 169.621094 55.304688 168.941406 55.304688 L 165.296875 55.304688 Z M 165.296875 62.453125 "/>
<path style=" stroke:none;fill-rule:nonzero;fill:url(#linear3);" d="M 202.695312 62.5 L 203.585938 62.5 L 203.585938 55.304688 L 199.929688 55.304688 C 199.25 55.304688 198.695312 54.785156 198.695312 54.144531 L 198.695312 42.882812 L 192.378906 42.882812 L 192.378906 54.144531 C 192.378906 54.785156 191.828125 55.304688 191.148438 55.304688 L 187.492188 55.304688 L 187.492188 62.5 Z M 202.695312 62.5 "/>
<path style=" stroke:none;fill-rule:nonzero;fill:url(#linear4);" d="M 188.382812 170.640625 L 187.492188 170.640625 L 187.492188 177.835938 L 191.140625 177.835938 C 191.820312 177.835938 192.375 178.355469 192.375 178.996094 L 192.375 190.257812 L 198.710938 190.257812 L 198.710938 178.996094 C 198.710938 178.355469 199.261719 177.835938 199.941406 177.835938 L 203.582031 177.835938 L 203.582031 170.640625 Z M 188.382812 170.640625 "/>
<path style=" stroke:none;fill-rule:nonzero;fill:url(#linear5);" d="M 166.1875 170.640625 L 165.296875 170.640625 L 165.296875 177.835938 L 168.933594 177.835938 C 169.617188 177.835938 170.167969 178.355469 170.167969 178.996094 L 170.167969 190.257812 L 176.503906 190.257812 L 176.503906 178.996094 C 176.503906 178.355469 177.058594 177.835938 177.738281 177.835938 L 181.390625 177.835938 L 181.390625 170.640625 Z M 166.1875 170.640625 "/>
<path style=" stroke:none;fill-rule:nonzero;fill:url(#linear6);" d="M 143.992188 170.640625 L 143.101562 170.640625 L 143.101562 177.835938 L 146.75 177.835938 C 147.429688 177.835938 147.980469 178.355469 147.980469 178.996094 L 147.980469 190.257812 L 154.316406 190.257812 L 154.316406 178.996094 C 154.316406 178.355469 154.867188 177.835938 155.550781 177.835938 L 159.195312 177.835938 L 159.195312 170.640625 Z M 143.992188 170.640625 "/>
<path style=" stroke:none;fill-rule:nonzero;fill:url(#linear7);" d="M 121.796875 170.640625 L 120.90625 170.640625 L 120.90625 177.835938 L 124.5625 177.835938 C 125.242188 177.835938 125.792969 178.355469 125.792969 178.996094 L 125.792969 190.257812 L 132.113281 190.257812 L 132.113281 178.996094 C 132.113281 178.355469 132.664062 177.835938 133.34375 177.835938 L 136.996094 177.835938 L 136.996094 170.640625 Z M 121.796875 170.640625 "/>
<path style=" stroke:none;fill-rule:nonzero;fill:url(#linear8);" d="M 239.550781 82.207031 L 228.492188 82.207031 C 227.8125 82.207031 227.257812 81.6875 227.257812 81.046875 L 227.257812 77.613281 L 219.625 77.613281 L 219.625 92.78125 L 227.257812 92.78125 L 227.257812 89.339844 C 227.257812 88.699219 227.8125 88.179688 228.492188 88.179688 L 240.441406 88.179688 L 240.441406 82.207031 Z M 239.550781 82.207031 "/>
<path style=" stroke:none;fill-rule:nonzero;fill:url(#linear9);" d="M 228.492188 103.132812 C 227.808594 103.132812 227.257812 102.613281 227.257812 101.972656 L 227.257812 98.53125 L 219.625 98.53125 L 219.625 113.695312 L 227.257812 113.695312 L 227.257812 110.265625 C 227.257812 109.625 227.808594 109.105469 228.492188 109.105469 L 240.4375 109.105469 L 240.4375 103.132812 Z M 228.492188 103.132812 "/>
<path style=" stroke:none;fill-rule:nonzero;fill:url(#linear10);" d="M 228.492188 124.042969 C 227.808594 124.042969 227.257812 123.523438 227.257812 122.878906 L 227.257812 119.445312 L 219.625 119.445312 L 219.625 134.613281 L 227.257812 134.613281 L 227.257812 131.175781 C 227.257812 130.53125 227.808594 130.011719 228.492188 130.011719 L 240.441406 130.011719 L 240.441406 124.042969 Z M 228.492188 124.042969 "/>
<path style=" stroke:none;fill-rule:nonzero;fill:url(#linear11);" d="M 228.492188 144.964844 C 227.808594 144.964844 227.257812 144.449219 227.257812 143.804688 L 227.257812 140.363281 L 219.625 140.363281 L 219.625 155.527344 L 227.257812 155.527344 L 227.257812 152.082031 C 227.257812 151.441406 227.808594 150.921875 228.492188 150.921875 L 240.441406 150.921875 L 240.441406 144.96875 L 228.492188 144.96875 Z M 228.492188 144.964844 "/>
<path style=" stroke:none;fill-rule:nonzero;fill:url(#linear12);" d="M 98.125 140.363281 L 97.234375 140.363281 L 97.234375 143.800781 C 97.234375 144.441406 96.679688 144.960938 96 144.960938 L 84.050781 144.960938 L 84.050781 150.933594 L 96 150.933594 C 96.679688 150.933594 97.234375 151.453125 97.234375 152.09375 L 97.234375 155.523438 L 104.867188 155.523438 L 104.867188 140.363281 Z M 98.125 140.363281 "/>
<path style=" stroke:none;fill-rule:nonzero;fill:url(#linear13);" d="M 98.125 119.445312 L 97.234375 119.445312 L 97.234375 122.875 C 97.234375 123.515625 96.679688 124.035156 96 124.035156 L 84.050781 124.035156 L 84.050781 130.007812 L 96 130.007812 C 96.679688 130.007812 97.234375 130.527344 97.234375 131.167969 L 97.234375 134.609375 L 104.867188 134.609375 L 104.867188 119.445312 Z M 98.125 119.445312 "/>
<path style=" stroke:none;fill-rule:nonzero;fill:url(#linear14);" d="M 98.125 98.53125 L 97.234375 98.53125 L 97.234375 101.96875 C 97.234375 102.609375 96.679688 103.128906 96 103.128906 L 84.050781 103.128906 L 84.050781 109.097656 L 96 109.097656 C 96.679688 109.097656 97.234375 109.617188 97.234375 110.261719 L 97.234375 113.695312 L 104.867188 113.695312 L 104.867188 98.53125 Z M 98.125 98.53125 "/>
<path style=" stroke:none;fill-rule:nonzero;fill:url(#linear15);" d="M 98.125 77.613281 L 97.234375 77.613281 L 97.234375 81.058594 C 97.234375 81.699219 96.679688 82.21875 96 82.21875 L 84.050781 82.21875 L 84.050781 88.175781 L 96 88.175781 C 96.679688 88.175781 97.234375 88.695312 97.234375 89.335938 L 97.234375 92.78125 L 104.867188 92.78125 L 104.867188 77.613281 Z M 98.125 77.613281 "/>
<path style=" stroke:none;fill-rule:nonzero;fill:url(#linear16);" d="M 116.191406 75.378906 L 149.195312 75.378906 L 149.195312 104.21875 L 116.191406 104.21875 Z M 116.191406 75.378906 "/>
<path style=" stroke:none;fill-rule:nonzero;fill:rgb(100%,100%,100%);fill-opacity:1;" d="M 132.445312 101.335938 L 192.957031 101.335938 L 192.957031 132.46875 L 132.445312 132.46875 Z M 132.445312 101.335938 "/>
<path style=" stroke:none;fill-rule:nonzero;fill:rgb(40.000001%,25.490198%,28.627452%);fill-opacity:1;" d="M 197.476562 68.546875 L 127.015625 68.546875 C 118.167969 68.546875 110.996094 75.304688 110.996094 83.640625 L 110.996094 149.5 C 110.996094 157.835938 118.167969 164.59375 127.015625 164.59375 L 197.476562 164.59375 C 206.324219 164.59375 213.492188 157.835938 213.492188 149.5 L 213.492188 83.640625 C 213.492188 75.304688 206.324219 68.546875 197.476562 68.546875 Z M 150.777344 113.285156 L 145.136719 113.285156 L 145.007812 112.800781 C 144.816406 112.078125 144.476562 111.476562 144 111.015625 C 143.558594 110.597656 142.917969 110.390625 142.046875 110.390625 C 141.558594 110.390625 141.125 110.46875 140.757812 110.621094 C 140.394531 110.777344 140.085938 110.984375 139.847656 111.238281 C 139.683594 111.40625 139.558594 111.585938 139.453125 111.800781 C 139.347656 112.011719 139.257812 112.308594 139.183594 112.679688 C 139.109375 113.074219 139.050781 113.578125 139.015625 114.1875 C 138.972656 114.820312 138.957031 115.613281 138.957031 116.570312 C 138.957031 117.527344 138.972656 118.324219 139.015625 118.953125 C 139.050781 119.5625 139.109375 120.066406 139.183594 120.464844 C 139.257812 120.832031 139.347656 121.128906 139.453125 121.34375 C 139.558594 121.554688 139.6875 121.734375 139.839844 121.898438 C 140.089844 122.164062 140.386719 122.363281 140.757812 122.519531 C 141.125 122.671875 141.558594 122.75 142.046875 122.75 C 142.921875 122.75 143.566406 122.542969 144.019531 122.121094 C 144.503906 121.660156 144.847656 121.0625 145.039062 120.339844 L 145.164062 119.859375 L 150.003906 119.859375 L 150.777344 119.867188 L 150.640625 120.605469 C 150.207031 122.886719 149.199219 124.640625 147.648438 125.8125 C 146.105469 126.980469 144.21875 127.570312 142.046875 127.570312 C 140.707031 127.570312 139.515625 127.367188 138.503906 126.960938 C 137.5 126.5625 136.582031 125.984375 135.773438 125.242188 C 135.167969 124.671875 134.699219 124.074219 134.378906 123.464844 C 134.058594 122.867188 133.824219 122.199219 133.683594 121.484375 C 133.546875 120.804688 133.460938 120.066406 133.429688 119.230469 C 133.398438 118.4375 133.382812 117.554688 133.382812 116.570312 C 133.382812 115.589844 133.398438 114.703125 133.429688 113.914062 C 133.460938 113.089844 133.546875 112.328125 133.683594 111.65625 C 133.824219 110.945312 134.058594 110.277344 134.382812 109.675781 C 134.699219 109.070312 135.167969 108.472656 135.765625 107.90625 C 136.585938 107.160156 137.503906 106.582031 138.503906 106.183594 C 139.511719 105.777344 140.707031 105.574219 142.046875 105.574219 C 144.21875 105.574219 146.105469 106.164062 147.648438 107.328125 C 149.199219 108.503906 150.207031 110.257812 150.640625 112.539062 L 150.765625 113.210938 Z M 121.347656 101.269531 C 121.339844 101.273438 121.328125 101.273438 121.316406 101.277344 C 120.058594 101.535156 118.664062 100.6875 118.664062 99.265625 L 118.664062 85.175781 C 118.664062 80.402344 122.808594 76.496094 127.875 76.496094 L 139.851562 76.496094 C 141.714844 76.496094 142.71875 78.5625 141.496094 79.890625 L 122.488281 100.613281 C 122.164062 100.964844 121.761719 101.179688 121.347656 101.269531 Z M 160.234375 119.5625 L 160.1875 119.5625 L 160.1875 126.867188 L 154.898438 126.867188 L 154.898438 106.277344 L 163.5 106.277344 C 164.640625 106.277344 165.679688 106.460938 166.609375 106.792969 C 167.535156 107.140625 168.324219 107.636719 168.964844 108.242188 C 169.589844 108.84375 170.085938 109.570312 170.421875 110.367188 C 170.757812 111.183594 170.933594 112.027344 170.933594 112.921875 C 170.933594 113.8125 170.757812 114.671875 170.421875 115.472656 C 170.085938 116.285156 169.589844 116.996094 168.964844 117.597656 C 168.320312 118.21875 167.535156 118.699219 166.609375 119.046875 C 165.679688 119.394531 164.640625 119.5625 163.5 119.5625 Z M 180.339844 121.699219 C 180.855469 122.207031 181.554688 122.453125 182.476562 122.453125 C 183.402344 122.453125 184.105469 122.207031 184.632812 121.695312 C 185.160156 121.183594 185.417969 120.460938 185.417969 119.492188 L 185.417969 106.289062 L 190.683594 106.289062 L 190.683594 119.628906 C 190.683594 120.742188 190.464844 121.769531 190.035156 122.675781 C 189.609375 123.578125 189.015625 124.367188 188.269531 125.011719 C 187.523438 125.652344 186.648438 126.152344 185.664062 126.503906 C 184.683594 126.855469 183.609375 127.035156 182.476562 127.035156 C 181.34375 127.035156 180.273438 126.855469 179.292969 126.503906 C 178.300781 126.152344 177.425781 125.648438 176.6875 125.011719 C 175.941406 124.367188 175.34375 123.582031 174.917969 122.675781 C 174.488281 121.765625 174.269531 120.742188 174.269531 119.628906 L 174.269531 106.289062 L 179.566406 106.289062 L 179.566406 119.492188 C 179.566406 120.464844 179.820312 121.1875 180.339844 121.699219 Z M 180.339844 121.699219 "/>
</g>
</svg>
