<svg xmlns="http://www.w3.org/2000/svg" xmlns:xlink="http://www.w3.org/1999/xlink" width="324" height="234"><defs><linearGradient id="a"><stop offset=".37" stop-color="#0082b0"/><stop offset="1" stop-color="#43cf1b"/></linearGradient><linearGradient id="c"><stop offset="0" stop-color="#343434"/><stop offset="1" stop-color="#464646"/></linearGradient><linearGradient id="b"><stop offset="0" stop-color="#cecece"/><stop offset="1" stop-color="#9b9b9b"/></linearGradient><linearGradient id="f"><stop offset="0" stop-color="#838383"/><stop offset="1" stop-color="#ffe5ca"/></linearGradient><linearGradient id="g"><stop offset="0" stop-color="#737373"/><stop offset="1" stop-color="#4f4f4f"/></linearGradient><linearGradient xlink:href="#a" id="h" x1="0" x2="200" y1="-.31" y2="123.31" gradientTransform="matrix(-1 0 0 1.1684 200 -10.36)" gradientUnits="userSpaceOnUse"/><linearGradient id="e"><stop offset="0" stop-color="#6c0000" stop-opacity=".52"/><stop offset="1" stop-opacity="0"/></linearGradient><linearGradient xlink:href="#b" id="m" x1="24.5" x2="24.52" y1="2" y2="3.44" gradientUnits="userSpaceOnUse"/><linearGradient xlink:href="#c" id="n" x1="24.5" x2="24.52" y1="2" y2="3.44" gradientTransform="matrix(1 0 0 -1 0 32.27)" gradientUnits="userSpaceOnUse"/><linearGradient xlink:href="#d" id="o" x1="31.75" x2="31.75" y1="248.05" y2="275.83" gradientTransform="matrix(.7511 0 0 .6993 -1.75 -157.22)" gradientUnits="userSpaceOnUse"/><linearGradient id="d"><stop offset="0" stop-color="#ff0038"/><stop offset=".5" stop-color="#ff6400" stop-opacity=".99"/><stop offset=".75" stop-color="#cbc019" stop-opacity=".99"/><stop offset=".88" stop-color="#0ce3e5" stop-opacity=".99"/><stop offset=".94" stop-color="#067ef2" stop-opacity=".99"/><stop offset="1" stop-color="#001aff" stop-opacity=".99"/></linearGradient><radialGradient xlink:href="#e" id="i" cx="99.21" cy="96.07" r="101.15" fx="99.21" fy="96.07" gradientTransform="matrix(.666 0 0 .0973 32.8 85.18)" gradientUnits="userSpaceOnUse"/><radialGradient xlink:href="#e" id="j" cx="99.21" cy="61.5" r="100.53" fx="99.21" fy="61.5" gradientTransform="matrix(.666 0 0 .0967 32.8 88.58)" gradientUnits="userSpaceOnUse"/><radialGradient xlink:href="#f" id="k" cx="162" cy="111.31" r="69.98" fx="162" fy="111.31" gradientTransform="matrix(1 0 0 .9469 0 5.91)" gradientUnits="userSpaceOnUse"/><radialGradient xlink:href="#g" id="l" cx="15.97" cy="16.09" r="14.03" fx="15.97" fy="16.09" gradientTransform="matrix(1 0 0 1.0043 0 -.06)" gradientUnits="userSpaceOnUse"/></defs><path fill="url(#h)" d="M200-10.72v144.44H0V-10.72h76.08z" transform="matrix(1.62 0 0 1.62 0 17.37)"/><path fill="url(#i)" fill-rule="evenodd" stroke="url(#j)" stroke-linecap="round" stroke-width=".44" d="M31.91 84.81h133.91v19.44H31.91z" paint-order="markers fill stroke" transform="matrix(1.62 0 0 1.62 0 17.37)"/><path fill="url(#k)" fill-rule="evenodd" d="M111.7 45.04v18.64H92.02v4.14h19.68v4.15H92.02v4.14h19.68v4.14H92.02v4.14h19.68v4.14H92.02v4.15h19.68v4.14H92.02v4.14h19.68v4.14H92.02v4.14h19.68v4.14H92.02v4.15h19.68v4.14H92.02v4.14h19.68v4.14H92.02v4.14h19.68v4.14H92.02v4.15h19.68v4.14H92.02v4.14h19.68v4.14H92.02v4.14h19.68v18.64h4.37v-18.64h4.38v18.64h4.37v-18.64h4.38v18.64h4.37v-18.64h4.37v18.64h4.38v-18.64h4.37v18.64h4.37v-18.64h4.38v18.64h4.37v-18.64h4.38v18.64h4.37v-18.64h4.38v18.64h4.37v-18.64h4.37v18.64h4.38v-18.64h4.37v18.64h4.37v-18.64h4.38v18.64h4.37v-18.64h4.38v18.64h4.37v-18.64h19.68v-4.14H212.3v-4.14h19.68v-4.14H212.3v-4.14h19.68v-4.15H212.3v-4.14h19.68v-4.14H212.3v-4.14h19.68v-4.14H212.3v-4.14h19.68v-4.15H212.3v-4.14h19.68v-4.14H212.3v-4.14h19.68v-4.14H212.3v-4.14h19.68v-4.15H212.3V84.4h19.68v-4.14H212.3v-4.14h19.68v-4.14H212.3v-4.15h19.68v-4.14H212.3V45.04h-4.37v18.64h-4.38V45.04h-4.37v18.64h-4.38V45.04h-4.37v18.64h-4.37V45.04h-4.38v18.64h-4.37V45.04h-4.37v18.64h-4.38V45.04h-4.37v18.64h-4.38V45.04h-4.37v18.64h-4.38V45.04h-4.37v18.64h-4.37V45.04h-4.38v18.64h-4.37V45.04h-4.37v18.64h-4.38V45.04h-4.37v18.64h-4.38V45.04Zm4.37 22.78h4.38v4.15h-4.38zm8.75 0h4.38v4.15h-4.38zm8.75 0h4.37v4.15h-4.37zm8.75 0h4.37v4.15h-4.37zm8.74 0h4.38v4.15h-4.38zm8.75 0h4.38v4.15h-4.38zm8.75 0h4.38v4.15h-4.38zm8.75 0h4.37v4.15h-4.37zm8.75 0h4.37v4.15h-4.37zm8.74 0h4.38v4.15h-4.38zm8.75 0h4.38v4.15h-4.38zm-87.48 8.29h4.38v4.14h-4.38zm8.75 0h4.38v4.14h-4.38zm8.75 0h4.37v4.14h-4.37zm8.75 0h4.37v4.14h-4.37zm8.74 0h4.38v4.14h-4.38zm8.75 0h4.38v4.14h-4.38zm8.75 0h4.38v4.14h-4.38zm8.75 0h4.37v4.14h-4.37zm8.75 0h4.37v4.14h-4.37zm8.74 0h4.38v4.14h-4.38zm8.75 0h4.38v4.14h-4.38zm-87.48 8.28h4.38v4.14h-4.38V84.4Zm8.75 0h4.38v4.14h-4.38V84.4Zm8.75 0h4.37v4.14h-4.37V84.4Zm8.75 0h4.37v4.14h-4.37V84.4Zm8.74 0h4.38v4.14h-4.38V84.4Zm8.75 0h4.38v4.14h-4.38V84.4Zm8.75 0h4.38v4.14h-4.38V84.4Zm8.75 0h4.37v4.14h-4.37V84.4Zm8.75 0h4.37v4.14h-4.37V84.4Zm8.74 0h4.38v4.14h-4.38V84.4Zm8.75 0h4.38v4.14h-4.38V84.4Zm-87.48 8.29h4.38v4.14h-4.38zm8.75 0h4.38v4.14h-4.38zm8.75 0h4.37v4.14h-4.37zm8.75 0h4.37v4.14h-4.37zm8.74 0h4.38v4.14h-4.38zm8.75 0h4.38v4.14h-4.38zm8.75 0h4.38v4.14h-4.38zm8.75 0h4.37v4.14h-4.37zm8.75 0h4.37v4.14h-4.37zm8.74 0h4.38v4.14h-4.38zm8.75 0h4.38v4.14h-4.38zm-87.48 8.28h4.38v4.14h-4.38zm8.75 0h4.38v4.14h-4.38zm8.75 0h4.37v4.14h-4.37zm8.75 0h4.37v4.14h-4.37zm8.74 0h4.38v4.14h-4.38zm8.75 0h4.38v4.14h-4.38zm8.75 0h4.38v4.14h-4.38zm8.75 0h4.37v4.14h-4.37zm8.75 0h4.37v4.14h-4.37zm8.74 0h4.38v4.14h-4.38zm8.75 0h4.38v4.14h-4.38zm-87.48 8.28h4.38v4.14h-4.38zm8.75 0h4.38v4.14h-4.38zm8.75 0h4.37v4.14h-4.37zm8.75 0h4.37v4.14h-4.37zm8.74 0h4.38v4.14h-4.38zm8.75 0h4.38v4.14h-4.38zm8.75 0h4.38v4.14h-4.38zm8.75 0h4.37v4.14h-4.37zm8.75 0h4.37v4.14h-4.37zm8.74 0h4.38v4.14h-4.38zm8.75 0h4.38v4.14h-4.38zm-87.48 8.29h4.38v4.14h-4.38zm8.75 0h4.38v4.14h-4.38zm8.75 0h4.37v4.14h-4.37zm8.75 0h4.37v4.14h-4.37zm8.74 0h4.38v4.14h-4.38zm8.75 0h4.38v4.14h-4.38zm8.75 0h4.38v4.14h-4.38zm8.75 0h4.37v4.14h-4.37zm8.75 0h4.37v4.14h-4.37zm8.74 0h4.38v4.14h-4.38zm8.75 0h4.38v4.14h-4.38zm-87.48 8.28h4.38v4.14h-4.38zm8.75 0h4.38v4.14h-4.38zm8.75 0h4.37v4.14h-4.37zm8.75 0h4.37v4.14h-4.37zm8.74 0h4.38v4.14h-4.38zm8.75 0h4.38v4.14h-4.38zm8.75 0h4.38v4.14h-4.38zm8.75 0h4.37v4.14h-4.37zm8.75 0h4.37v4.14h-4.37zm8.74 0h4.38v4.14h-4.38zm8.75 0h4.38v4.14h-4.38zm-87.48 8.28h4.38v4.14h-4.38zm8.75 0h4.38v4.14h-4.38zm8.75 0h4.37v4.14h-4.37zm8.75 0h4.37v4.14h-4.37zm8.74 0h4.38v4.14h-4.38zm8.75 0h4.38v4.14h-4.38zm8.75 0h4.38v4.14h-4.38zm8.75 0h4.37v4.14h-4.37zm8.75 0h4.37v4.14h-4.37zm8.74 0h4.38v4.14h-4.38zm8.75 0h4.38v4.14h-4.38zm-87.48 8.29h4.38v4.14h-4.38zm8.75 0h4.38v4.14h-4.38zm8.75 0h4.37v4.14h-4.37zm8.75 0h4.37v4.14h-4.37zm8.74 0h4.38v4.14h-4.38zm8.75 0h4.38v4.14h-4.38zm8.75 0h4.38v4.14h-4.38zm8.75 0h4.37v4.14h-4.37zm8.75 0h4.37v4.14h-4.37zm8.74 0h4.38v4.14h-4.38zm8.75 0h4.38v4.14h-4.38zm-87.48 8.28h4.38v4.14h-4.38zm8.75 0h4.38v4.14h-4.38zm8.75 0h4.37v4.14h-4.37zm8.75 0h4.37v4.14h-4.37zm8.74 0h4.38v4.14h-4.38zm8.75 0h4.38v4.14h-4.38zm8.75 0h4.38v4.14h-4.38zm8.75 0h4.37v4.14h-4.37zm8.75 0h4.37v4.14h-4.37zm8.74 0h4.38v4.14h-4.38zm8.75 0h4.38v4.14h-4.38z" clip-rule="evenodd"/><g fill="url(#l)" fill-rule="evenodd" stroke-linejoin="round" stroke-miterlimit="1.41" clip-rule="evenodd" transform="matrix(4.3636 0 0 4.114 92.33 45.1)"><rect width="28.07" height="28.19" x="1.93" y="2.01" rx="1.5" ry="1.51"/><rect width="28.07" height="28.19" x="1.93" y="2.01" rx="1.5" ry="1.51"/></g><path fill="url(#m)" fill-rule="evenodd" d="M3.44 2.01c-.84 0-1.5.68-1.5 1.51v1.46a1.52 1.52 0 0 1 .91-1.4c.18-.07.38-.1.59-.1H28.5a1.5 1.5 0 0 1 1.5 1.5V3.52a1.5 1.5 0 0 0-1.5-1.5z" clip-rule="evenodd" transform="matrix(4.3636 0 0 4.114 92.33 45.1)"/><path fill="url(#n)" fill-rule="evenodd" d="M3.44 30.26a1.5 1.5 0 0 1-1.5-1.51v-1.46a1.52 1.52 0 0 0 .91 1.4c.18.07.38.11.59.11H28.5a1.5 1.5 0 0 0 1.5-1.5v1.45a1.5 1.5 0 0 1-1.5 1.51z" clip-rule="evenodd" transform="matrix(4.3636 0 0 4.114 92.33 45.1)"/><path fill="#ccf4ff" d="M159.59 150.14a15.69 15.69 0 0 1-9.56-5.03c-4.5-5-4.97-12.06-1.16-17l1.1-1.42v-22.35c0-21.73 0-22.4.43-23.68a12.18 12.18 0 0 1 7.83-7.65c2.16-.73 5.53-.75 7.65-.05 2.99.97 5.44 3 6.88 5.7 1.35 2.52 1.3 1.5 1.3 25.78v22.2l.87 1.08a12.54 12.54 0 0 1 2.76 8.14c.01 6.5-5 12.52-11.61 13.97-1.9.41-4.84.56-6.5.31zm6.62-6.74c4.27-2 6.22-6.86 4.35-10.85a9.7 9.7 0 0 0-1.68-2.18l-1.22-1.2-.06-23.36-.06-23.35-.52-1.09a5.33 5.33 0 0 0-6.1-3 5.22 5.22 0 0 0-3.6 2.58l-.61 1.1-.06 23.48-.06 23.48-1.07 1.05c-1.98 1.94-2.97 4.74-2.47 7a9.22 9.22 0 0 0 4.6 6.17c1.79.9 2.7 1.08 4.98 1a7 7 0 0 0 3.58-.83zm-6.08-1.58c-2.92-.84-4.73-3.12-4.74-5.96-.01-1.8.6-2.91 2.42-4.42l1.21-1V86.11h6.2v44.54l.9.6c.5.32 1.26 1.1 1.7 1.74a5.2 5.2 0 0 1 .6 4.89 7.04 7.04 0 0 1-4.06 3.78 9.45 9.45 0 0 1-4.23.16z"/><path fill="url(#o)" d="M21.35 35.93c-1.05-.3-1.7-1.12-1.71-2.13 0-.64.22-1.04.87-1.58l.44-.35V16.06h2.24v15.88l.33.21a3 3 0 0 1 .61.62c.37.51.44 1.12.22 1.75-.2.55-.88 1.17-1.47 1.35-.44.13-1.17.16-1.53.06z" transform="matrix(2.7662 0 0 2.8038 101.06 41.1)"/></svg>