<svg xmlns="http://www.w3.org/2000/svg" width="324" height="234"><defs><filter id="a" width="1.109" height="1.114" x="-.058" y="-.047" style="color-interpolation-filters:sRGB"><feFlood flood-color="#000" flood-opacity=".302" result="flood"/><feGaussianBlur in="SourceGraphic" result="blur" stdDeviation="3"/><feOffset dx="-1" dy="3" in="blur" result="offset"/><feComposite in="flood" in2="offset" operator="in" result="comp1"/><feComposite in="SourceGraphic" in2="comp1" result="comp2"/></filter></defs><path d="M0 0h324v234H0z" style="fill:#ff7db0;fill-opacity:1;stroke:none"/><g style="filter:url(#a)"><path d="m117.574 68.168 106.871-8.438 8.426 120.801L126 188.97Zm0 0" style="stroke:none;fill-rule:nonzero;fill:#f4c53b;fill-opacity:1"/><path d="M91.453 62.715 193.59 40.648l21.988 115.215-102.133 22.063Zm0 0" style="stroke:none;fill-rule:nonzero;fill:#f9e855;fill-opacity:1"/><path d="m223.133 55.172-63.117 69.332-11.532.922 2.051-10.707 66.309-72.778Zm0 0" style="stroke:none;fill-rule:nonzero;fill:#ed9920;fill-opacity:1"/><path d="m148.703 112.836 57.766-62.672 12.449-1.242-70.047 75.648Zm0 0" style="stroke:none;fill-rule:nonzero;fill:#f9c975;fill-opacity:1"/><path d="M223.652 54.605c-1.464 1.606-3.875 1.649-5.39.09l-5.473-5.644c-1.516-1.559-1.547-4.125-.086-5.735l5.313-5.82c1.457-1.605 3.87-1.648 5.386-.086l5.473 5.645c1.512 1.558 1.547 4.125.082 5.73Zm0 0" style="stroke:none;fill-rule:nonzero;fill:#fc3a3a;fill-opacity:1"/><path d="M222.855 52.195a2.62 2.62 0 0 1-3.87.067l-3.934-4.055c-1.082-1.121-1.11-2.957-.063-4.113l3.817-4.188c1.05-1.156 2.785-1.183 3.863-.062l3.937 4.058c1.083 1.118 1.106 2.961.06 4.118Zm0 0" style="stroke:none;fill-rule:nonzero;fill:#ff948f;fill-opacity:1"/><path d="m215.355 40.406 10.938 11.29-13.262 14.546-10.941-11.289Zm0 0" style="stroke:none;fill-rule:nonzero;fill:#727171;fill-opacity:1"/><path d="m215.688 43.227 7.964 8.218-10.933 11.996-7.965-8.218Zm0 0" style="stroke:none;fill-rule:nonzero;fill:#c9caca;fill-opacity:1"/><path d="m212.336 46.727 8.094 8.351-1.325 1.453-8.093-8.347ZM209.113 50.426l8.02 8.273-1.324 1.457-8.024-8.277Zm0 0" style="stroke:none;fill-rule:nonzero;fill:#595757;fill-opacity:1"/><path d="m137.066 138 11.758-25.324s3.926 3.21.617 6.84c-3.3 3.625 2.614-3.508 5.118-.926 2.511 2.586-4.496 9.422-1.188 5.797 3.297-3.63 6.86.043 6.86.043Zm0 0" style="stroke:none;fill-rule:nonzero;fill:#c9a063;fill-opacity:1"/><path d="m140.73 130.11-3.703 7.124s-1.02 1.953.766.786c1.785-1.165 6.512-4.266 6.512-4.266Zm0 0" style="stroke:none;fill-rule:nonzero;fill:#231815;fill-opacity:1"/></g></svg>