<svg xmlns="http://www.w3.org/2000/svg" width="324" height="234"><path fill="#3f4499" d="M0 0h324v234H0z"/><path fill="#4285f4" d="M161.499 68.28c-48.125 0-87.138 41.128-87.138 91.86v.12c0 1.93-.106 4.307 0 5.755h38.068a44.654 48.963 0 0 1 0-5.754c.056-40.479 42.206-65.243 74.91-44.028l27.42-28.875c-15.24-12.396-34.02-19.109-53.268-19.087Z"/><path fill="#f44336" d="m214.69 87.302-27.41 28.895a49.062 51.72 0 0 1 23.378 44.029 48.296 50.912 0 0 1 0 5.752h38.191c.106-1.374 0-3.822 0-5.752a87.14 91.86 0 0 0-34.16-72.923Z"/><path fill="#ff6a67" fill-rule="evenodd" d="m121.632 141.603 21.546-16.846 21.546 16.846h-11.491v25.269h-20.11v-25.269m-11.491 0"/><path fill="#5fffff" fill-rule="evenodd" d="m158.978 149.917 21.546 16.846 21.546-16.846h-11.49v-25.27h-20.11v25.269m-11.492 0"/></svg>