<?xml version="1.0" encoding="UTF-8" standalone="no"?>
<svg
   xmlns:dc="http://purl.org/dc/elements/1.1/"
   xmlns:cc="http://creativecommons.org/ns#"
   xmlns:rdf="http://www.w3.org/1999/02/22-rdf-syntax-ns#"
   xmlns:svg="http://www.w3.org/2000/svg"
   xmlns="http://www.w3.org/2000/svg"
   xmlns:xlink="http://www.w3.org/1999/xlink"
   width="324px"
   height="234px"
   viewBox="0 0 324 234"
   version="1.1"
   id="svg21">
  <metadata
     id="metadata25">
    <rdf:RDF>
      <cc:Work
         rdf:about="">
        <dc:format>image/svg+xml</dc:format>
        <dc:type
           rdf:resource="http://purl.org/dc/dcmitype/StillImage" />
        <dc:title></dc:title>
      </cc:Work>
    </rdf:RDF>
  </metadata>
  <defs
     id="defs12">
    <linearGradient
       id="linear0"
       gradientUnits="userSpaceOnUse"
       x1="10.078593"
       y1="23.624882"
       x2="38.659374"
       y2="23.624882"
       gradientTransform="matrix(3.7353816,0,0,3.840687,71.646804,25.566898)">
      <stop
         offset="0"
         style="stop-color:rgb(49.803922%,66.274512%,20.784314%);stop-opacity:1;"
         id="stop2" />
      <stop
         offset="1"
         style="stop-color:rgb(53.725493%,72.156864%,22.745098%);stop-opacity:1;"
         id="stop4" />
    </linearGradient>
    <linearGradient
       id="linear1"
       gradientUnits="userSpaceOnUse"
       x1="10.612997"
       y1="23.694914"
       x2="37.895481"
       y2="23.694914"
       gradientTransform="matrix(3.7353816,0,0,3.840687,71.646804,25.566898)">
      <stop
         offset="0"
         style="stop-color:rgb(98.823529%,98.823529%,98.823529%);stop-opacity:1;"
         id="stop7" />
      <stop
         offset="1"
         style="stop-color:rgb(78.039217%,78.039217%,78.039217%);stop-opacity:1;"
         id="stop9" />
    </linearGradient>
    <radialGradient
       xlink:href="#linear1"
       id="radialGradient847"
       cx="162"
       cy="117"
       fx="162"
       fy="117"
       r="162"
       gradientTransform="matrix(1,0,0,0.72222222,0,32.5)"
       gradientUnits="userSpaceOnUse" />
  </defs>
  <rect
     x="0"
     y="0"
     width="324"
     height="234"
     style="fill:url(#radialGradient847);fill-opacity:1;stroke:none"
     id="rect14" />
  <path
     style="fill:none;stroke:#ffffff;stroke-width:1.83906;stroke-linecap:butt;stroke-linejoin:miter;stroke-miterlimit:4;stroke-opacity:1"
     d="M -1.699218,-1.9492182 H 326.19141 V 235.08985 H -1.699218 Z m 0,0"
     id="path16" />
  <path
     style="display:inline;fill:#4d4d4d;fill-opacity:1;fill-rule:evenodd;stroke:none;stroke-width:4.00247;stroke-linejoin:miter;stroke-miterlimit:4;stroke-dasharray:none;stroke-opacity:0.19214;enable-background:new"
     d="m 163.18932,55.244484 c -3.71845,-0.312585 -7.53062,0.670181 -10.127,3.206112 -19.02122,15.878661 -36.9999,32.727183 -54.849163,49.641654 -4.400961,3.32817 -8.605837,10.73556 -3.157909,14.6649 6.775982,2.2142 14.217392,1.45182 21.201432,2.87671 4.18208,0.99684 15.35465,7.70108 7.20868,11.49744 -4.41655,1.77812 -18.02193,3.17315 -11.29216,9.38592 6.82095,2.31212 14.04968,3.21586 21.43003,3.21586 9.11097,0 15.28604,6.09545 6.53351,10.57734 -5.99487,2.71608 -1.70257,7.34826 3.41923,7.69074 7.52417,0.36491 9.09554,7.56681 14.84207,10.18989 5.22929,1.45975 11.02538,0.16553 15.75673,-2.02439 8.64138,-2.16788 -1.2237,-7.56211 1.62255,-11.61374 6.16231,-4.14115 14.49718,-3.86145 21.25578,-6.92557 8.16206,-2.51889 0.84748,-9.55321 -1.09978,-12.55329 -4.22171,-6.50433 -3.36677,-10.07981 4.41015,-11.93335 8.37369,-1.99588 17.98578,-2.7662 25.88377,-6.71258 6.39943,-2.57031 6.53287,-9.88741 2.89658,-14.37425 -18.24701,-17.857496 -37.17738,-35.177821 -56.34103,-52.256923 -2.25055,-2.637055 -5.87503,-4.239931 -9.59347,-4.552473 z m -1.74224,12.194871 c 2.3917,0.03614 4.72981,0.809289 6.66417,2.043789 10.20435,10.395517 20.40543,20.794101 30.60972,31.189476 1.08852,2.14488 -0.85091,5.84259 -3.84395,5.94733 -6.33284,-2.12534 -12.09919,-5.3978 -18.13054,-8.10735 -3.06552,-1.153899 -6.0607,-3.22642 -9.3648,-3.438591 -4.39149,2.826503 -6.85184,7.292331 -10.54075,10.732281 -2.3203,3.78861 -5.32044,-0.11322 -6.93652,-2.23747 -2.16754,-2.27143 -4.01264,-6.414805 -6.56618,-7.206544 -1.66751,3.667994 -2.42266,7.599914 -3.70231,11.381264 -1.25387,2.66453 -1.27185,7.55461 -4.79127,8.33012 -4.65321,-1.62507 -8.79201,-4.21302 -12.88204,-6.73189 -2.25348,-1.55828 -7.06902,-3.73413 -3.35386,-6.32509 9.13266,-10.010092 19.17274,-19.344225 29.41188,-28.457928 3.77828,-3.174809 7.7237,-7.336173 13.42645,-7.119397 z m 63.10321,73.518045 c -4.90064,-0.0406 -12.92985,4.18247 -5.39019,6.1314 1.6085,0.40911 3.27602,0.63238 4.94373,0.72643 8.01233,0 9.83281,-6.11566 2.29767,-6.55756 -0.5178,-0.19846 -1.15107,-0.29454 -1.85121,-0.29996 z m -106.72553,16.35024 c -4.01627,0.2977 -8.33323,2.02127 -6.9475,4.99807 3.43121,2.76787 8.66754,0.0897 12.08713,-1.4626 2.59891,-2.70909 -1.12351,-3.83362 -5.13963,-3.53547 z"
     id="path5167-6-8-5-0-3-7-8-4" />
</svg>
