<?xml version="1.0" encoding="UTF-8"?>
<svg xmlns="http://www.w3.org/2000/svg" xmlns:xlink="http://www.w3.org/1999/xlink" width="324px" height="234px" viewBox="0 0 324 234" version="1.1">
<g id="surface1">
<rect x="0" y="0" width="324" height="234" style="fill:rgb(2.352941%,62.352943%,95.686275%);fill-opacity:1;stroke:none;"/>
<path style="fill:none;stroke-width:1.021703;stroke-linecap:butt;stroke-linejoin:miter;stroke:rgb(100%,100%,100%);stroke-opacity:1;stroke-miterlimit:4;" d="M -0.94401 -1.082899 L 181.217448 -1.082899 L 181.217448 130.605469 L -0.94401 130.605469 Z M -0.94401 -1.082899 " transform="matrix(1.8,0,0,1.8,0,0)"/>
<path style=" stroke:none;fill-rule:nonzero;fill:rgb(90.196079%,90.196079%,90.196079%);fill-opacity:1;" d="M 157.832031 160.679688 C 66.917969 168.792969 73.371094 118.128906 93.253906 97.144531 L 93.253906 92.570312 C 78.621094 104.984375 70.691406 120.695312 75.261719 139.253906 C 86.363281 184.554688 178.019531 177.9375 220.597656 155.308594 L 220.597656 142.367188 C 205.027344 151.339844 179.28125 158.753906 157.832031 160.679688 Z M 157.832031 160.679688 "/>
<path style=" stroke:none;fill-rule:nonzero;fill:rgb(90.196079%,90.196079%,90.196079%);fill-opacity:1;" d="M 249.738281 92.257812 C 241.464844 53.171875 163.019531 50.691406 112.453125 80.472656 L 112.453125 83.761719 C 162.960938 58.636719 234.605469 58.792969 241.128906 94.800781 C 243.316406 106.710938 236.382812 119.121094 223.992188 126.265625 L 223.992188 135.609375 C 238.894531 130.320312 254.183594 113.214844 249.738281 92.257812 Z M 249.738281 92.257812 "/>
<path style=" stroke:none;fill-rule:nonzero;fill:rgb(90.196079%,90.196079%,90.196079%);fill-opacity:1;" d="M 220.375 142.492188 L 220.375 149.445312 C 176.84375 172.578125 78.28125 180.082031 74.0625 126.277344 C 73.785156 130.433594 74.152344 134.757812 75.261719 139.253906 C 86.363281 184.554688 178.019531 177.9375 220.597656 155.308594 L 220.597656 142.367188 C 220.523438 142.410156 220.449219 142.449219 220.375 142.492188 Z M 220.375 142.492188 "/>
<path style=" stroke:none;fill-rule:nonzero;fill:rgb(90.196079%,90.196079%,90.196079%);fill-opacity:1;" d="M 223.992188 126.265625 L 223.992188 135.609375 C 225.484375 135.082031 226.980469 134.429688 228.460938 133.671875 L 228.460938 129.695312 C 228.460938 128.386719 229.132812 127.160156 230.257812 126.433594 C 241.515625 119.160156 247.679688 107.386719 245.597656 96.0625 C 243.160156 82.613281 231.636719 74.164062 215.519531 70.167969 C 229.277344 74.554688 238.921875 82.628906 241.128906 94.800781 C 243.316406 106.710938 236.382812 119.121094 223.992188 126.265625 Z M 223.992188 126.265625 "/>
<path style=" stroke:none;fill-rule:nonzero;fill:rgb(90.196079%,90.196079%,90.196079%);fill-opacity:1;" d="M 217.339844 86.566406 L 209.066406 86.566406 C 208.824219 86.566406 208.628906 86.757812 208.628906 86.988281 L 208.628906 125.984375 C 208.628906 130.492188 210.828125 134.425781 217.289062 135.210938 C 217.546875 135.242188 217.777344 135.042969 217.777344 134.789062 L 217.777344 86.988281 C 217.777344 86.757812 217.582031 86.566406 217.339844 86.566406 Z M 217.339844 86.566406 "/>
<path style=" stroke:none;fill-rule:nonzero;fill:rgb(90.196079%,90.196079%,90.196079%);fill-opacity:1;" d="M 108.421875 100.960938 L 100.132812 100.960938 C 99.890625 100.960938 99.695312 101.148438 99.695312 101.382812 L 99.691406 126.710938 C 99.691406 131.238281 101.898438 135.167969 108.375 135.941406 C 108.632812 135.96875 108.859375 135.769531 108.859375 135.519531 L 108.859375 101.382812 C 108.859375 101.148438 108.664062 100.960938 108.421875 100.960938 Z M 108.421875 100.960938 "/>
<path style=" stroke:none;fill-rule:nonzero;fill:rgb(90.196079%,90.196079%,90.196079%);fill-opacity:1;" d="M 99.695312 88.1875 L 99.695312 95.734375 C 99.695312 95.96875 99.890625 96.15625 100.132812 96.15625 L 108.394531 96.15625 C 108.636719 96.15625 108.832031 95.96875 108.832031 95.734375 L 108.832031 88.1875 C 108.832031 87.957031 108.636719 87.765625 108.394531 87.765625 L 100.132812 87.765625 C 99.890625 87.765625 99.695312 87.957031 99.695312 88.1875 Z M 99.695312 88.1875 "/>
<path style=" stroke:none;fill-rule:nonzero;fill:rgb(90.196079%,90.196079%,90.196079%);fill-opacity:1;" d="M 163.640625 135.582031 C 156.238281 135.582031 153.101562 130.605469 153.101562 125.699219 L 153.101562 91.929688 C 153.101562 91.695312 153.296875 91.503906 153.539062 91.503906 L 161.734375 91.503906 C 161.976562 91.503906 162.171875 91.695312 162.171875 91.929688 L 162.171875 100.535156 C 162.171875 100.769531 162.367188 100.957031 162.609375 100.957031 L 168.5625 100.957031 C 168.804688 100.957031 169 101.148438 169 101.382812 L 169 107.625 C 169 107.855469 168.804688 108.046875 168.5625 108.046875 L 162.609375 108.046875 C 162.367188 108.046875 162.171875 108.234375 162.171875 108.46875 L 162.171875 125.15625 C 162.171875 127.15625 163.152344 128.269531 165.308594 128.269531 L 168.5625 128.269531 C 168.804688 128.269531 169 128.460938 169 128.691406 L 169 135.160156 C 169 135.394531 168.804688 135.582031 168.5625 135.582031 L 163.640625 135.582031 "/>
<path style=" stroke:none;fill-rule:nonzero;fill:rgb(90.196079%,90.196079%,90.196079%);fill-opacity:1;" d="M 180.328125 121.015625 C 180.328125 125.503906 183.226562 128.804688 188.363281 128.804688 C 192.210938 128.804688 194.191406 127.816406 196.390625 125.789062 C 196.558594 125.632812 196.824219 125.628906 196.992188 125.785156 L 201.964844 130.363281 C 202.144531 130.53125 202.144531 130.8125 201.96875 130.976562 C 198.472656 134.226562 194.738281 136.191406 188.296875 136.191406 C 179.617188 136.191406 171.304688 131.605469 171.304688 118.25 C 171.304688 106.828125 178.570312 100.371094 188.09375 100.371094 C 197.777344 100.371094 203.34375 107.929688 203.34375 117.851562 L 203.34375 120.59375 C 203.34375 120.824219 203.148438 121.015625 202.90625 121.015625 L 180.328125 121.015625 M 181.199219 111.261719 C 180.667969 112.386719 180.441406 113.289062 180.351562 114.578125 C 180.335938 114.824219 180.535156 115.03125 180.789062 115.03125 L 193.835938 115.03125 C 194.089844 115.03125 194.292969 114.828125 194.273438 114.585938 C 193.523438 105.207031 183.515625 106.480469 181.199219 111.261719 Z M 181.199219 111.261719 "/>
<path style=" stroke:none;fill-rule:nonzero;fill:rgb(90.196079%,90.196079%,90.196079%);fill-opacity:1;" d="M 133.488281 108.046875 C 136.148438 108.046875 137.25 109.316406 137.25 111.382812 L 137.25 135.210938 C 137.25 135.445312 137.445312 135.632812 137.6875 135.632812 L 145.886719 135.632812 C 146.125 135.632812 146.320312 135.445312 146.320312 135.210938 L 146.320312 111.332031 C 146.320312 106.40625 143.609375 100.96875 135.644531 100.96875 L 117.347656 100.960938 C 117.105469 100.960938 116.910156 101.148438 116.910156 101.382812 L 116.910156 135.210938 C 116.910156 135.445312 117.105469 135.632812 117.347656 135.632812 L 125.546875 135.632812 C 125.789062 135.632812 125.984375 135.445312 125.984375 135.210938 L 125.984375 108.46875 C 125.984375 108.234375 126.179688 108.046875 126.417969 108.046875 Z M 133.488281 108.046875 "/>
<path style=" stroke:none;fill-rule:nonzero;fill:rgb(90.196079%,90.196079%,90.196079%);fill-opacity:1;" d="M 213.246094 125.984375 L 213.246094 86.988281 C 213.246094 86.757812 213.441406 86.566406 213.683594 86.566406 L 209.066406 86.566406 C 208.824219 86.566406 208.628906 86.757812 208.628906 86.988281 L 208.628906 125.984375 C 208.628906 130.492188 210.828125 134.425781 217.289062 135.210938 C 217.546875 135.242188 217.777344 135.042969 217.777344 134.789062 L 217.777344 134.046875 C 214.472656 132.390625 213.246094 129.347656 213.246094 125.984375 Z M 213.246094 125.984375 "/>
<path style=" stroke:none;fill-rule:nonzero;fill:rgb(90.196079%,90.196079%,90.196079%);fill-opacity:1;" d="M 104.308594 126.710938 L 104.3125 101.382812 C 104.3125 101.148438 104.507812 100.960938 104.75 100.960938 L 100.132812 100.960938 C 99.890625 100.960938 99.695312 101.148438 99.695312 101.382812 L 99.691406 126.710938 C 99.691406 131.238281 101.898438 135.167969 108.375 135.941406 C 108.632812 135.96875 108.859375 135.769531 108.859375 135.519531 L 108.859375 134.785156 C 105.539062 133.136719 104.308594 130.089844 104.308594 126.710938 Z M 104.308594 126.710938 "/>
<path style=" stroke:none;fill-rule:nonzero;fill:rgb(90.196079%,90.196079%,90.196079%);fill-opacity:1;" d="M 104.3125 95.734375 L 104.3125 88.1875 C 104.3125 87.957031 104.507812 87.765625 104.75 87.765625 L 100.132812 87.765625 C 99.890625 87.765625 99.695312 87.957031 99.695312 88.1875 L 99.695312 95.734375 C 99.695312 95.96875 99.890625 96.15625 100.132812 96.15625 L 104.75 96.15625 C 104.507812 96.15625 104.3125 95.96875 104.3125 95.734375 Z M 104.3125 95.734375 "/>
<path style=" stroke:none;fill-rule:nonzero;fill:rgb(90.196079%,90.196079%,90.196079%);fill-opacity:1;" d="M 157.722656 125.699219 L 157.722656 91.929688 C 157.722656 91.695312 157.917969 91.507812 158.160156 91.507812 L 153.539062 91.507812 C 153.300781 91.507812 153.105469 91.695312 153.105469 91.929688 L 153.105469 125.699219 C 153.105469 130.605469 156.238281 135.582031 163.640625 135.582031 L 168.257812 135.582031 C 160.855469 135.582031 157.722656 130.605469 157.722656 125.699219 Z M 157.722656 125.699219 "/>
<path style=" stroke:none;fill-rule:nonzero;fill:rgb(90.196079%,90.196079%,90.196079%);fill-opacity:1;" d="M 175.921875 118.25 C 175.921875 107.808594 181.996094 101.519531 190.316406 100.515625 C 189.601562 100.425781 188.863281 100.371094 188.09375 100.371094 C 178.570312 100.371094 171.304688 106.828125 171.304688 118.25 C 171.304688 131.605469 179.617188 136.191406 188.296875 136.191406 C 189.148438 136.191406 189.953125 136.152344 190.71875 136.085938 C 182.886719 135.347656 175.921875 130.472656 175.921875 118.25 Z M 175.921875 118.25 "/>
<path style=" stroke:none;fill-rule:nonzero;fill:rgb(90.196079%,90.196079%,90.196079%);fill-opacity:1;" d="M 121.527344 135.210938 L 121.527344 101.382812 C 121.527344 101.152344 121.71875 100.96875 121.953125 100.960938 L 117.347656 100.960938 C 117.105469 100.960938 116.910156 101.148438 116.910156 101.382812 L 116.910156 135.210938 C 116.910156 135.445312 117.105469 135.632812 117.347656 135.632812 L 121.964844 135.632812 C 121.722656 135.632812 121.527344 135.445312 121.527344 135.210938 Z M 121.527344 135.210938 "/>
</g>
</svg>
