<svg xmlns="http://www.w3.org/2000/svg" xmlns:xlink="http://www.w3.org/1999/xlink" width="324" height="234" viewBox="0 0 324 234"><defs><linearGradient xlink:href="#a" id="f" x1="211.14" x2="184.75" y1="213.08" y2="55.5" gradientUnits="userSpaceOnUse"/><linearGradient id="a" x1="64.68" x2="244.68" y1="129.69" y2="-.31" gradientTransform="matrix(1.8 0 0 1.8 -462.4 45.73)" gradientUnits="userSpaceOnUse"><stop offset="0" stop-color="#9755ff"/><stop offset="1" stop-color="#71c2ff"/></linearGradient><linearGradient id="e"><stop offset="0" stop-color="#7e7e7e"/><stop offset="1" stop-color="#fff"/></linearGradient><linearGradient id="b"><stop offset="0" stop-color="#4188e9"/><stop offset="1" stop-color="#8db7f2"/></linearGradient><linearGradient id="c"><stop offset="0" stop-color="#1452a4"/><stop offset="1" stop-color="#1d72e3"/></linearGradient><linearGradient id="d"><stop offset="0" stop-color="#469498"/><stop offset="1" stop-color="#88c5c8"/></linearGradient></defs><path fill="url(#f)" d="M0 0h324v234H0z"/><path fill="none" stroke="#fff" stroke-width="1.84" d="M-1.7-1.95h327.9V235.1H-1.7Zm0 0"/><g transform="translate(2.15 3.27)"><path fill="#e6e6e6" d="M159.85 136.22c-30.34 0-56.04 19.15-64.88 45.62h129.76c-8.85-26.47-34.55-45.62-64.88-45.62z"/><ellipse cx="159.85" cy="105.11" fill="#e6e6e6" rx="61.57" ry="59.5"/><path fill="#333" d="M227.51 180.98a68.38 68.38 0 0 0-22.18-31.68l.12-.11c12.18-11.78 18.89-27.43 18.89-44.08s-6.7-32.3-18.89-44.07a65.21 65.21 0 0 0-45.6-18.26 65.21 65.21 0 0 0-45.6 18.26c-12.18 11.77-18.9 27.42-18.9 44.07s6.71 32.3 18.9 44.08l.11.1a68.38 68.38 0 0 0-22.17 31.69c-.3.86-.14 1.8.41 2.53a2.96 2.96 0 0 0 2.37 1.16h129.76c.93 0 1.81-.43 2.36-1.16.55-.73.7-1.67.42-2.53zm-126.3-75.87c0-31.25 26.3-56.67 58.64-56.67 32.33 0 58.64 25.42 58.64 56.67s-26.3 56.68-58.64 56.68-58.64-25.43-58.64-56.68zm-2.1 73.9a63 63 0 0 1 19.63-25.87 65.37 65.37 0 0 0 41.1 14.3 65.37 65.37 0 0 0 41.12-14.3 63 63 0 0 1 19.62 25.88z"/><ellipse cx="162.5" cy="119.63" fill="#b3b3b3" rx="35.39" ry="34.35"/><ellipse cx="162.5" cy="119.63" fill="#bab1dc" rx="15.17" ry="14.72"/><path fill="#333" d="M162.5 157.2c21.34 0 38.7-16.85 38.7-37.57 0-20.71-17.36-37.57-38.7-37.57-21.35 0-38.71 16.86-38.71 37.57 0 20.72 17.36 37.58 38.7 37.58zm0-68.7c17.68 0 32.07 13.97 32.07 31.13 0 17.17-14.39 31.14-32.07 31.14-17.69 0-32.08-13.97-32.08-31.14 0-17.16 14.4-31.13 32.08-31.13z"/><path d="M162.5 137.58c10.19 0 18.48-8.05 18.48-17.95 0-9.89-8.3-17.94-18.48-17.94-10.2 0-18.49 8.05-18.49 17.94 0 9.9 8.3 17.95 18.49 17.95zm0-29.45c6.53 0 11.84 5.16 11.84 11.5 0 6.35-5.31 11.5-11.84 11.5-6.54 0-11.85-5.15-11.85-11.5 0-6.34 5.31-11.5 11.85-11.5z"/><path fill="#333" d="M136.08 67.42a3 3 0 0 0 1.35-.32c1.8-.9 3.7-1.71 5.6-2.39a2.8 2.8 0 0 0 1.74-3.63A2.95 2.95 0 0 0 141 59.4a55.43 55.43 0 0 0-6.28 2.68c-1.43.72-1.99 2.43-1.25 3.81a2.94 2.94 0 0 0 2.6 1.53zM155.17 62.04c1.55-.14 3.12-.2 4.68-.2 5.91 0 11.7 1 17.18 3a2.92 2.92 0 0 0 3.77-1.65 2.8 2.8 0 0 0-1.71-3.64 56.06 56.06 0 0 0-24.47-3.13 2.85 2.85 0 0 0-2.64 3.08 2.9 2.9 0 0 0 3.2 2.54z"/></g></svg>