<?xml version="1.0" encoding="UTF-8"?>
<svg xmlns="http://www.w3.org/2000/svg" xmlns:xlink="http://www.w3.org/1999/xlink" width="324px" height="234px" viewBox="0 0 324 234" version="1.1">
<defs>
<radialGradient id="radial0" gradientUnits="userSpaceOnUse" cx="90.54319" cy="65.16832" fx="90.54319" fy="65.16832" r="91.591759" gradientTransform="matrix(1.8,0,0,1.304046,0,32.320504)">
<stop offset="0" style="stop-color:rgb(16.078432%,50.196081%,72.549021%);stop-opacity:1;"/>
<stop offset="1" style="stop-color:rgb(20.392157%,28.627452%,36.862746%);stop-opacity:1;"/>
</radialGradient>
</defs>
<g id="surface1">
<rect x="0" y="0" width="324" height="234" style="fill:url(#radial0);stroke:none;"/>
<path style="fill:none;stroke-width:1.021703;stroke-linecap:butt;stroke-linejoin:miter;stroke:rgb(100%,100%,100%);stroke-opacity:1;stroke-miterlimit:4;" d="M -0.538194 -0.677083 L 181.623264 -0.677083 L 181.623264 131.013455 L -0.538194 131.013455 Z M -0.538194 -0.677083 " transform="matrix(1.8,0,0,1.8,0,0)"/>
<path style=" stroke:none;fill-rule:nonzero;fill:rgb(9.019608%,55.29412%,74.117649%);fill-opacity:1;" d="M 107.574219 128.113281 L 135.988281 122.617188 L 128.351562 167.492188 "/>
<path style=" stroke:none;fill-rule:nonzero;fill:rgb(10.196079%,60.392159%,80.784315%);fill-opacity:1;" d="M 100.648438 157.839844 L 107.574219 128.113281 L 159.515625 149.730469 L 152.589844 179.457031 Z M 100.648438 157.839844 "/>
<path style=" stroke:none;fill-rule:nonzero;fill:rgb(10.980392%,65.882355%,88.235295%);fill-opacity:1;" d="M 173.367188 65.957031 L 221.84375 55.148438 L 201.066406 168.648438 L 152.589844 179.457031 Z M 173.367188 65.957031 "/>
<path style=" stroke:none;fill-rule:nonzero;fill:rgb(22.352941%,70.588237%,90.588236%);fill-opacity:1;" d="M 232.230469 55.148438 C 232.230469 59.625 227.582031 63.253906 221.84375 63.253906 C 216.105469 63.253906 211.457031 59.625 211.457031 55.148438 C 211.457031 50.671875 216.105469 47.042969 221.84375 47.042969 C 227.582031 47.042969 232.230469 50.671875 232.230469 55.148438 Z M 232.230469 55.148438 "/>
<path style=" stroke:none;fill-rule:nonzero;fill:rgb(97.647059%,97.647059%,97.647059%);fill-opacity:1;" d="M 225.304688 55.148438 C 225.304688 56.640625 223.757812 57.851562 221.84375 57.851562 C 219.929688 57.851562 218.382812 56.640625 218.382812 55.148438 C 218.382812 53.65625 219.929688 52.445312 221.84375 52.445312 C 223.757812 52.445312 225.304688 53.65625 225.304688 55.148438 Z M 225.304688 55.148438 "/>
<path style=" stroke:none;fill-rule:nonzero;fill:rgb(22.352941%,70.588237%,90.588236%);fill-opacity:1;" d="M 183.753906 65.957031 C 183.753906 70.4375 179.101562 74.066406 173.367188 74.066406 C 167.628906 74.066406 162.976562 70.4375 162.976562 65.957031 C 162.976562 61.480469 167.628906 57.851562 173.367188 57.851562 C 179.101562 57.851562 183.753906 61.480469 183.753906 65.957031 Z M 183.753906 65.957031 "/>
<path style=" stroke:none;fill-rule:nonzero;fill:rgb(97.647059%,97.647059%,97.647059%);fill-opacity:1;" d="M 176.828125 65.957031 C 176.828125 67.449219 175.277344 68.660156 173.367188 68.660156 C 171.453125 68.660156 169.902344 67.449219 169.902344 65.957031 C 169.902344 64.464844 171.453125 63.253906 173.367188 63.253906 C 175.277344 63.253906 176.828125 64.464844 176.828125 65.957031 Z M 176.828125 65.957031 "/>
<path style=" stroke:none;fill-rule:nonzero;fill:rgb(22.352941%,70.588237%,90.588236%);fill-opacity:1;" d="M 162.976562 179.457031 C 162.976562 183.933594 158.328125 187.5625 152.589844 187.5625 C 146.851562 187.5625 142.203125 183.933594 142.203125 179.457031 C 142.203125 174.980469 146.851562 171.351562 152.589844 171.351562 C 158.328125 171.351562 162.976562 174.980469 162.976562 179.457031 Z M 162.976562 179.457031 "/>
<path style=" stroke:none;fill-rule:nonzero;fill:rgb(97.647059%,97.647059%,97.647059%);fill-opacity:1;" d="M 156.050781 179.457031 C 156.050781 180.949219 154.503906 182.160156 152.589844 182.160156 C 150.675781 182.160156 149.125 180.949219 149.125 179.457031 C 149.125 177.964844 150.675781 176.753906 152.589844 176.753906 C 154.503906 176.753906 156.050781 177.964844 156.050781 179.457031 Z M 156.050781 179.457031 "/>
<path style=" stroke:none;fill-rule:nonzero;fill:rgb(22.352941%,70.588237%,90.588236%);fill-opacity:1;" d="M 211.457031 168.648438 C 211.457031 173.125 206.804688 176.753906 201.066406 176.753906 C 195.332031 176.753906 190.679688 173.125 190.679688 168.648438 C 190.679688 164.171875 195.332031 160.539062 201.066406 160.539062 C 206.804688 160.539062 211.457031 164.171875 211.457031 168.648438 Z M 211.457031 168.648438 "/>
<path style=" stroke:none;fill-rule:nonzero;fill:rgb(97.647059%,97.647059%,97.647059%);fill-opacity:1;" d="M 204.53125 168.648438 C 204.53125 170.140625 202.980469 171.351562 201.066406 171.351562 C 199.15625 171.351562 197.605469 170.140625 197.605469 168.648438 C 197.605469 167.15625 199.15625 165.945312 201.066406 165.945312 C 202.980469 165.945312 204.53125 167.15625 204.53125 168.648438 Z M 204.53125 168.648438 "/>
<path style=" stroke:none;fill-rule:nonzero;fill:rgb(22.352941%,70.588237%,90.588236%);fill-opacity:1;" d="M 114.5 128.113281 C 114.5 131.097656 111.398438 133.515625 107.574219 133.515625 C 103.75 133.515625 100.648438 131.097656 100.648438 128.113281 C 100.648438 125.128906 103.75 122.707031 107.574219 122.707031 C 111.398438 122.707031 114.5 125.128906 114.5 128.113281 Z M 114.5 128.113281 "/>
<path style=" stroke:none;fill-rule:nonzero;fill:rgb(22.352941%,70.588237%,90.588236%);fill-opacity:1;" d="M 107.574219 157.839844 C 107.574219 160.824219 104.472656 163.242188 100.648438 163.242188 C 96.824219 163.242188 93.722656 160.824219 93.722656 157.839844 C 93.722656 154.851562 96.824219 152.433594 100.648438 152.433594 C 104.472656 152.433594 107.574219 154.851562 107.574219 157.839844 Z M 107.574219 157.839844 "/>
<path style=" stroke:none;fill-rule:nonzero;fill:rgb(22.352941%,70.588237%,90.588236%);fill-opacity:1;" d="M 142.203125 122.707031 C 142.203125 125.691406 139.101562 128.113281 135.277344 128.113281 C 131.453125 128.113281 128.351562 125.691406 128.351562 122.707031 C 128.351562 119.722656 131.453125 117.304688 135.277344 117.304688 C 139.101562 117.304688 142.203125 119.722656 142.203125 122.707031 Z M 142.203125 122.707031 "/>
</g>
</svg>
