<?xml version="1.0" encoding="UTF-8" standalone="no"?>
<svg
   xmlns:dc="http://purl.org/dc/elements/1.1/"
   xmlns:cc="http://creativecommons.org/ns#"
   xmlns:rdf="http://www.w3.org/1999/02/22-rdf-syntax-ns#"
   xmlns:svg="http://www.w3.org/2000/svg"
   xmlns="http://www.w3.org/2000/svg"
   xmlns:xlink="http://www.w3.org/1999/xlink"
   xmlns:sodipodi="http://sodipodi.sourceforge.net/DTD/sodipodi-0.dtd"
   xmlns:inkscape="http://www.inkscape.org/namespaces/inkscape"
   viewBox="0 0 324 234"
   width="324"
   height="234"
   version="1.1"
   id="svg16"
   sodipodi:docname="jdownloader.svg"
   inkscape:version="0.92.4 (5da689c313, 2019-01-14)">
  <metadata
     id="metadata22">
    <rdf:RDF>
      <cc:Work
         rdf:about="">
        <dc:format>image/svg+xml</dc:format>
        <dc:type
           rdf:resource="http://purl.org/dc/dcmitype/StillImage" />
        <dc:title></dc:title>
      </cc:Work>
    </rdf:RDF>
  </metadata>
  <defs
     id="defs20">
    <linearGradient
       id="linearGradient1350"
       inkscape:collect="always">
      <stop
         id="stop1346"
         offset="0"
         style="stop-color:#ffebb0;stop-opacity:1" />
      <stop
         id="stop1348"
         offset="1"
         style="stop-color:#47a0bd;stop-opacity:1" />
    </linearGradient>
    <linearGradient
       inkscape:collect="always"
       id="linearGradient1278">
      <stop
         style="stop-color:#bdecfd;stop-opacity:1"
         offset="0"
         id="stop1274" />
      <stop
         style="stop-color:#ffffff;stop-opacity:0"
         offset="1"
         id="stop1276" />
    </linearGradient>
    <linearGradient
       inkscape:collect="always"
       id="linearGradient874">
      <stop
         style="stop-color:#ffc107;stop-opacity:1;"
         offset="0"
         id="stop870" />
      <stop
         style="stop-color:#dda600;stop-opacity:1"
         offset="1"
         id="stop872" />
    </linearGradient>
    <linearGradient
       inkscape:collect="always"
       id="linearGradient866">
      <stop
         style="stop-color:#e0a800;stop-opacity:1"
         offset="0"
         id="stop862" />
      <stop
         style="stop-color:#ffe38f;stop-opacity:1"
         offset="1"
         id="stop864" />
    </linearGradient>
    <linearGradient
       inkscape:collect="always"
       id="linearGradient858">
      <stop
         style="stop-color:#e6d47c;stop-opacity:1"
         offset="0"
         id="stop854" />
      <stop
         style="stop-color:#73961b;stop-opacity:1"
         offset="1"
         id="stop856" />
    </linearGradient>
    <linearGradient
       inkscape:collect="always"
       id="linearGradient850">
      <stop
         style="stop-color:#24e4ff;stop-opacity:1"
         offset="0"
         id="stop846" />
      <stop
         style="stop-color:#006794;stop-opacity:1"
         offset="1"
         id="stop848" />
    </linearGradient>
    <linearGradient
       inkscape:collect="always"
       id="linearGradient842">
      <stop
         style="stop-color:#008bbe;stop-opacity:1"
         offset="0"
         id="stop838" />
      <stop
         style="stop-color:#030a0e;stop-opacity:1"
         offset="1"
         id="stop840" />
    </linearGradient>
    <linearGradient
       inkscape:collect="always"
       id="linearGradient4599">
      <stop
         style="stop-color:#00801e;stop-opacity:1"
         offset="0"
         id="stop4595" />
      <stop
         style="stop-color:#00c99c;stop-opacity:0"
         offset="1"
         id="stop4597" />
    </linearGradient>
    <linearGradient
       inkscape:collect="always"
       id="linearGradient4593">
      <stop
         style="stop-color:#00801e;stop-opacity:1"
         offset="0"
         id="stop4589" />
      <stop
         style="stop-color:#00c99c;stop-opacity:0"
         offset="1"
         id="stop4591" />
    </linearGradient>
    <linearGradient
       id="linearGradient4575"
       inkscape:collect="always">
      <stop
         id="stop4571"
         offset="0"
         style="stop-color:#000000;stop-opacity:1;" />
      <stop
         id="stop4573"
         offset="1"
         style="stop-color:#002c00;stop-opacity:0" />
    </linearGradient>
    <linearGradient
       inkscape:collect="always"
       id="linearGradient39">
      <stop
         style="stop-color:#000000;stop-opacity:1;"
         offset="0"
         id="stop35" />
      <stop
         style="stop-color:#000000;stop-opacity:0;"
         offset="1"
         id="stop37" />
    </linearGradient>
    <radialGradient
       inkscape:collect="always"
       xlink:href="#linearGradient4575"
       id="radialGradient4569"
       gradientUnits="userSpaceOnUse"
       gradientTransform="matrix(1,0,0,0.72560976,0,32.103659)"
       cx="162"
       cy="117"
       fx="162"
       fy="117"
       r="164" />
    <radialGradient
       inkscape:collect="always"
       xlink:href="#linearGradient39"
       id="radialGradient4583"
       cx="162"
       cy="117"
       fx="162"
       fy="117"
       r="164"
       gradientTransform="matrix(1,0,0,0.72560976,0,32.103659)"
       gradientUnits="userSpaceOnUse" />
    <radialGradient
       inkscape:collect="always"
       xlink:href="#linearGradient4599"
       id="radialGradient4585"
       gradientUnits="userSpaceOnUse"
       gradientTransform="matrix(1,0,0,0.72560976,0,32.103659)"
       cx="162"
       cy="117"
       fx="162"
       fy="117"
       r="164" />
    <radialGradient
       inkscape:collect="always"
       xlink:href="#linearGradient4593"
       id="radialGradient4587"
       gradientUnits="userSpaceOnUse"
       gradientTransform="matrix(1,0,0,0.72560976,0,32.103659)"
       cx="162"
       cy="117"
       fx="162"
       fy="117"
       r="164" />
    <radialGradient
       inkscape:collect="always"
       xlink:href="#linearGradient842"
       id="radialGradient844"
       cx="150.3038"
       cy="109.67666"
       fx="150.3038"
       fy="109.67666"
       r="162"
       gradientTransform="matrix(1.963252,1.4008942,-1.0436505,1.4626006,-24.35954,-257.907)"
       gradientUnits="userSpaceOnUse" />
    <radialGradient
       inkscape:collect="always"
       xlink:href="#linearGradient850"
       id="radialGradient852"
       cx="139.76647"
       cy="111.8503"
       fx="139.76647"
       fy="111.8503"
       r="19"
       gradientUnits="userSpaceOnUse"
       gradientTransform="matrix(1.3113772,0,0,1.3113772,-38.880578,-40.121052)" />
    <radialGradient
       inkscape:collect="always"
       xlink:href="#linearGradient858"
       id="radialGradient860"
       cx="125.33479"
       cy="111.40553"
       fx="125.33479"
       fy="111.40553"
       r="10.35"
       gradientTransform="matrix(1.1403284,1.279701,-1.499573,1.2718659,148.21754,-198.14982)"
       gradientUnits="userSpaceOnUse" />
    <linearGradient
       inkscape:collect="always"
       xlink:href="#linearGradient866"
       id="linearGradient868"
       x1="145.66647"
       y1="93.850296"
       x2="138.86647"
       y2="132.8503"
       gradientUnits="userSpaceOnUse"
       gradientTransform="matrix(1.3113772,0,0,1.3113772,-38.880578,-40.121052)" />
    <linearGradient
       inkscape:collect="always"
       xlink:href="#linearGradient874"
       id="linearGradient876"
       x1="128.76646"
       y1="127.3503"
       x2="155.36647"
       y2="105.9503"
       gradientUnits="userSpaceOnUse"
       gradientTransform="matrix(1.3113772,0,0,1.3113772,-38.880578,-40.121052)" />
    <radialGradient
       inkscape:collect="always"
       xlink:href="#linearGradient850"
       id="radialGradient887"
       gradientUnits="userSpaceOnUse"
       gradientTransform="matrix(1.3113772,0,0,1.3113772,-38.880578,-40.121052)"
       cx="139.76647"
       cy="111.8503"
       fx="139.76647"
       fy="111.8503"
       r="19" />
    <radialGradient
       inkscape:collect="always"
       xlink:href="#linearGradient858"
       id="radialGradient889"
       gradientUnits="userSpaceOnUse"
       gradientTransform="matrix(1.1403284,1.279701,-1.499573,1.2718659,148.21754,-198.14982)"
       cx="125.33479"
       cy="111.40553"
       fx="125.33479"
       fy="111.40553"
       r="10.35" />
    <linearGradient
       inkscape:collect="always"
       xlink:href="#linearGradient866"
       id="linearGradient891"
       gradientUnits="userSpaceOnUse"
       gradientTransform="matrix(1.3113772,0,0,1.3113772,-38.880578,-40.121052)"
       x1="145.66647"
       y1="93.850296"
       x2="138.86647"
       y2="132.8503" />
    <radialGradient
       inkscape:collect="always"
       xlink:href="#linearGradient1243"
       id="radialGradient1237"
       gradientUnits="userSpaceOnUse"
       gradientTransform="matrix(0.1616094,-0.27643937,0.19954068,0.1166536,87.178424,136.40058)"
       cx="150.3038"
       cy="109.67666"
       fx="150.3038"
       fy="109.67666"
       r="162" />
    <linearGradient
       id="linearGradient1243"
       inkscape:collect="always">
      <stop
         id="stop1239"
         offset="0"
         style="stop-color:#ffffff;stop-opacity:1" />
      <stop
         id="stop1241"
         offset="1"
         style="stop-color:#ffffff;stop-opacity:0.02222222" />
    </linearGradient>
    <radialGradient
       inkscape:collect="always"
       xlink:href="#linearGradient1278"
       id="radialGradient1280"
       cx="181.8179"
       cy="11.030408"
       fx="181.8179"
       fy="11.030408"
       r="22.718563"
       gradientTransform="matrix(1.7791524,0.05072998,-0.07905504,2.7725425,-138.70549,-33.102475)"
       gradientUnits="userSpaceOnUse" />
    <radialGradient
       inkscape:collect="always"
       xlink:href="#linearGradient1278"
       id="radialGradient1296"
       gradientUnits="userSpaceOnUse"
       gradientTransform="matrix(1.8126175,0.5851111,-0.88523964,2.7423868,-154.08724,-103.9484)"
       cx="181.8179"
       cy="11.030408"
       fx="181.8179"
       fy="11.030408"
       r="22.718563" />
    <filter
       inkscape:collect="always"
       style="color-interpolation-filters:sRGB"
       id="filter1322"
       x="-0.1847682"
       width="1.3695364"
       y="-0.18485887"
       height="1.3697177">
      <feGaussianBlur
         inkscape:collect="always"
         stdDeviation="3.8383124"
         id="feGaussianBlur1324" />
    </filter>
    <radialGradient
       inkscape:collect="always"
       xlink:href="#linearGradient1350"
       id="radialGradient1344"
       cx="256.02215"
       cy="98.622362"
       fx="256.02215"
       fy="98.622362"
       r="41.823351"
       gradientTransform="matrix(1,0,0,1.0910301,0,-8.9776012)"
       gradientUnits="userSpaceOnUse" />
  </defs>
  <sodipodi:namedview
     pagecolor="#ffffff"
     bordercolor="#666666"
     borderopacity="1"
     objecttolerance="10"
     gridtolerance="10"
     guidetolerance="10"
     inkscape:pageopacity="0"
     inkscape:pageshadow="2"
     inkscape:window-width="1152"
     inkscape:window-height="752"
     id="namedview18"
     showgrid="false"
     inkscape:snap-bbox="true"
     inkscape:bbox-paths="false"
     inkscape:bbox-nodes="true"
     inkscape:snap-page="true"
     inkscape:snap-bbox-midpoints="true"
     inkscape:zoom="1.0705128"
     inkscape:cx="108.13562"
     inkscape:cy="149.19654"
     inkscape:window-x="0"
     inkscape:window-y="0"
     inkscape:window-maximized="1"
     inkscape:current-layer="svg16"
     inkscape:pagecheckerboard="true" />
  <rect
     style="opacity:1;fill:url(#radialGradient844);fill-opacity:1;fill-rule:nonzero;stroke:none;stroke-width:4;stroke-linejoin:bevel;stroke-miterlimit:4;stroke-dasharray:none;stroke-opacity:0;paint-order:normal"
     id="rect4601"
     width="324"
     height="234"
     x="0"
     y="0" />
  <g
     id="g31"
     transform="matrix(2.9268292,0,0,2.9999999,-251.46283,-221.55089)"
     style="stroke-width:0.33747429">
    <g
       id="g885"
       transform="translate(-5.1004718,4.9820379)">
      <path
         style="fill:#ddfffd;fill-opacity:1;stroke:none;stroke-width:0.44255611;stroke-opacity:1;filter:url(#filter1322)"
         inkscape:connector-curvature="0"
         id="path1288"
         d="m 144.40599,81.640718 a 24.916169,24.916169 0 1 0 0,49.832332 24.916169,24.916169 0 1 0 0,-49.832332 z" />
      <path
         d="m 144.40599,81.640718 a 24.916169,24.916169 0 1 0 0,49.832332 24.916169,24.916169 0 1 0 0,-49.832332 z"
         id="path2"
         inkscape:connector-curvature="0"
         style="fill:url(#radialGradient887);fill-opacity:1;stroke:none;stroke-width:0.44255611;stroke-opacity:1" />
      <path
         d="m 153.84791,126.22754 2.49161,2.22935 c 5.63893,-3.1473 9.96647,-8.26168 11.93354,-14.55629 -0.39341,-2.62276 -1.0491,-5.77006 -1.70479,-9.0485 0.65569,-2.62276 0.91796,-4.983238 1.18023,-7.343716 -0.65568,-1.704791 -1.44251,-3.278444 -2.49161,-4.720958 0,0 0,0 0,0 -1.31138,-1.967068 -2.88503,-3.671858 -4.58982,-5.114373 -0.26228,0 -0.65569,-0.262275 -0.91797,-0.786826 -0.39341,-0.262276 -0.78682,-0.524551 -1.18023,-0.786827 0,0 0,0 0,0 0,0 0,0 0,0 -0.13115,-0.131137 -0.39341,-0.262275 -0.52456,-0.262275 0,0 0,0 0,0 -0.52454,-0.262276 -1.0491,-0.655689 -1.44251,-0.917965 -0.26228,-0.131137 -0.65569,-0.262275 -0.91797,-0.52455 -0.13113,-0.131138 -0.26227,-0.131138 -0.39341,-0.262275 0,0 0,0 0,0 v 0 c -0.78682,-0.393414 -1.57365,-0.786827 -2.49162,-1.049102 0,0 0,0 0,0 -2.88502,-0.917965 -5.50778,-1.442515 -8.39281,-1.442515 -0.13113,0 -0.26228,0 -0.39341,0 -0.26228,0.131138 -0.52456,0.131138 -0.78682,0 0,0 0,0 0,0 -0.91797,0 -1.83594,0.131138 -2.62276,0.262275 0,0 0,0 0,0 -0.91797,0.131137 -1.70479,0.262275 -2.62275,0.524551 2.88502,1.049102 4.58982,1.835928 4.58982,1.835928 4.85209,1.442515 9.0485,7.999403 12.06466,19.277248 -0.26227,0.65569 -0.52455,1.44251 -0.78682,2.22934 -1.83593,4.32755 -8.78623,18.62156 -23.86706,18.62156 h -3.14732 c 0,0 0,0 0,0 3.27845,3.27844 7.47486,5.63892 12.19582,6.68802 1.44251,-0.13113 1.96706,-0.13113 1.0491,0.13114 0,0 0,0 0,0 0.65568,0.13114 1.31137,0.26227 2.0982,0.26227 0.78683,0 1.44252,0.13114 2.22934,0.13114 0.65569,0 1.31138,0 1.83593,-0.13114 2.75389,-1.44251 5.2455,-3.27844 7.60599,-5.24551 z"
         id="path4"
         inkscape:connector-curvature="0"
         style="fill:#00596d;fill-opacity:1;stroke-width:0.44255611" />
      <path
         d="m 126.30899,111.01556 -2.36049,-2.36047 -2.0982,-1.31138 -0.13113,-4.32755 0.52454,-3.278435 2.22935,-3.147306 3.14731,-3.540718 0.26226,-1.835929 -1.57364,-0.917965 3.80299,-0.786826 2.88503,1.311377 -0.91796,1.049103 3.27844,-0.655689 3.01617,0.262276 -3.803,1.967067 -1.18024,1.180239 0.39341,2.229341 1.31138,0.262275 1.31138,-2.229341 1.83593,-1.180239 1.83593,0.917964 0.65568,1.704791 -3.80298,1.835927 1.31137,0.917965 -4.06527,1.311373 -2.0982,2.22934 -3.14732,1.83594 -0.13113,2.22933 -2.0982,-2.88502 -2.62275,0.13113 -0.78684,2.62276 z m 16.52334,-24.391609 -1.0491,1.442515 1.70479,2.491617 -0.39341,1.180241 1.31138,1.311377 3.40958,-3.016169 -0.78682,-0.917964 0.13113,-1.442515 -1.96707,-1.442515 z m -9.31077,35.800599 0.65569,1.83593 1.44252,2.09821 c 5.63892,-1.31138 9.96646,-4.45869 13.24491,-7.9994 l -4.98323,-0.39343 -3.93414,-1.70478 -1.44252,0.78683 -0.52454,-2.36049 -8.13055,-3.54071 -2.49161,0.26228 0.39341,1.70479 -0.91797,4.06526 2.22935,1.96707 1.18023,1.31138 z"
         id="path6"
         inkscape:connector-curvature="0"
         style="fill:url(#radialGradient889);fill-opacity:1;stroke-width:0.44255611" />
      <path
         d="m 148.86468,118.35929 -3.40959,-0.26228 c -2.88502,2.75389 -6.68802,4.98323 -11.40898,5.9012 l 0.13114,0.26227 1.44252,2.09821 c 5.63892,-1.44253 10.0976,-4.58983 13.24491,-7.9994 z"
         id="path8"
         inkscape:connector-curvature="0"
         style="fill:#5a7515;fill-opacity:1;stroke-width:0.44255611" />
      <path
         d="m 162.37186,109.04851 c 2.09821,-5.24551 2.88503,-11.146713 2.7539,-16.392222 -1.83594,-2.622756 -4.06528,-4.983235 -6.68804,-6.688025 1.57366,4.58982 1.31138,12.326947 -2.0982,20.588627 -1.96706,4.72095 -9.57305,20.32634 -26.35867,20.32634 3.01616,2.09821 6.42574,3.54072 10.0976,4.19641 10.09761,-3.14731 17.70358,-10.7533 22.29341,-22.03113 z"
         id="path10"
         inkscape:connector-curvature="0"
         style="fill:url(#linearGradient876);fill-opacity:1;stroke-width:0.44255611" />
      <path
         d="m 173.25629,119.67066 -6.55689,14.42515 -7.9994,-7.08143 -4.72095,-4.19642 7.08143,-1.18024 C 156.47066,89.771257 148.6024,83.21437 143.22576,81.640718 c 0.39341,0 0.78682,0 1.18023,0 2.75389,0 5.37664,0.393412 7.73712,1.311377 h 0.13115 c 9.57305,5.376646 13.11376,28.456895 14.03173,35.538325 0.13114,1.31138 0.26228,2.0982 0.26228,2.0982 z"
         id="path12"
         inkscape:connector-curvature="0"
         style="fill:url(#linearGradient891);fill-opacity:1;stroke-width:0.44255611" />
      <path
         d="m 159.88025,114.42515 c -0.65569,1.18024 -1.31138,2.36048 -2.09822,3.40958 -0.52454,-3.54072 -1.18023,-6.9503 -1.96705,-9.96647 0.26227,-0.39341 0.39341,-0.78682 0.52454,-1.18024 0.39341,-1.0491 0.78683,-2.0982 1.18025,-3.1473 0.78682,3.1473 1.57364,6.68802 2.36048,10.88443 z m 4.98323,-15.605389 c -1.31138,-4.327545 -3.01617,-8.523954 -5.24551,-11.933534 0,0 -0.13114,-0.131138 -0.13114,-0.131138 -0.39342,-0.262275 -0.65568,-0.524551 -1.04911,-0.655689 0.52456,1.573653 0.78684,3.409581 0.91797,5.638924 1.96707,4.065269 3.40958,8.786226 4.45869,13.244906 0.52454,-2.0982 0.78682,-4.1964 1.0491,-6.163469 z"
         id="path14"
         inkscape:connector-curvature="0"
         style="fill:#ba8c02;fill-opacity:1;stroke-width:0.44255611" />
      <path
         sodipodi:type="spiral"
         style="fill:none;fill-rule:evenodd;stroke:url(#radialGradient1344);stroke-width:8.18398285;stroke-linecap:round;stroke-miterlimit:4;stroke-dasharray:none;stroke-opacity:1"
         id="path1326"
         sodipodi:cx="252.21558"
         sodipodi:cy="94.814369"
         sodipodi:expansion="1"
         sodipodi:revolution="3"
         sodipodi:radius="45.801044"
         sodipodi:argument="-17.073364"
         sodipodi:t0="0"
         d="m 252.21558,94.814369 c -0.46836,2.248123 -3.2615,0.477806 -3.73653,-0.778443 -1.28731,-3.404357 2.20646,-6.376232 5.29341,-6.694611 5.52184,-0.569506 9.63357,4.652237 9.6527,9.808383 0.0281,7.566852 -7.119,12.953712 -14.32336,12.610782 -9.60227,-0.45707 -16.29857,-9.59162 -15.56886,-18.838326 0.91827,-11.636041 12.06663,-19.65583 23.35329,-18.526948 13.66967,1.367228 23.02018,14.542911 21.48504,27.868264 -1.80912,15.70347 -17.01998,26.38897 -32.38324,24.44312 -17.73749,-2.24656 -29.76072,-19.49757 -27.4012,-36.898207 2.68104,-19.771712 21.97552,-33.134548 41.41318,-30.359286 21.8061,3.113425 36.50988,24.453755 33.31737,45.928143 -3.5443,23.84064 -26.9322,39.88636 -50.44312,36.27546"
         transform="matrix(0.14928803,0,0.12873365,0.14564686,54.794371,66.229088)" />
    </g>
  </g>
  <ellipse
     style="opacity:1;fill:url(#radialGradient1296);fill-opacity:1;fill-rule:evenodd;stroke:none;stroke-width:4.65615177;stroke-miterlimit:4;stroke-dasharray:none;stroke-opacity:1;paint-order:markers fill stroke"
     id="path1272"
     cx="165.71457"
     cy="32.684921"
     rx="50.562458"
     ry="74.484482"
     transform="rotate(23.831916)" />
  <path
     sodipodi:type="star"
     style="opacity:1;fill:#9ce5ff;fill-opacity:1;fill-rule:evenodd;stroke:none;stroke-width:1.00952756;stroke-miterlimit:4;stroke-dasharray:none;stroke-opacity:1;paint-order:markers fill stroke"
     id="path1282"
     sodipodi:sides="5"
     sodipodi:cx="285.53266"
     sodipodi:cy="201.19111"
     sodipodi:r1="3.3507497"
     sodipodi:r2="1.6753747"
     sodipodi:arg1="1.670465"
     sodipodi:arg2="2.2987835"
     inkscape:flatsided="false"
     inkscape:rounded="0"
     inkscape:randomized="0"
     d="m 285.19924,204.52524 -0.78133,-2.08343 -2.15922,-0.53749 1.74001,-1.3869 -0.15606,-2.21964 1.85672,1.22628 2.06278,-0.83433 -0.5925,2.14478 1.43092,1.704 -2.2229,0.0993 z"
     inkscape:transform-center-x="0.10303128"
     inkscape:transform-center-y="0.22039317" />
  <path
     inkscape:transform-center-y="0.24852601"
     inkscape:transform-center-x="0.17413861"
     d="m 261.68069,70.317189 -1.54791,-4.127531 -4.2777,-1.064828 3.44718,-2.747628 -0.30917,-4.39738 3.67839,2.429403 4.08662,-1.652902 -1.17381,4.249081 2.83483,3.375831 -4.40384,0.196673 z"
     inkscape:randomized="0"
     inkscape:rounded="0"
     inkscape:flatsided="false"
     sodipodi:arg2="2.2987835"
     sodipodi:arg1="1.670465"
     sodipodi:r2="3.3191266"
     sodipodi:r1="6.6382532"
     sodipodi:cy="63.71188"
     sodipodi:cx="262.34122"
     sodipodi:sides="5"
     id="path1284"
     style="opacity:1;fill:#ffbbbb;fill-opacity:1;fill-rule:evenodd;stroke:none;stroke-width:2;stroke-miterlimit:4;stroke-dasharray:none;stroke-opacity:1;paint-order:markers fill stroke"
     sodipodi:type="star"
     transform="matrix(0.18499048,0.63231964,-0.63231964,0.18499048,280.19573,-113.29843)" />
  <path
     inkscape:transform-center-y="0.49693606"
     inkscape:transform-center-x="-0.18573529"
     d="m 56.916102,189.87328 -1.54791,-4.12753 -4.277696,-1.06482 3.447184,-2.74763 -0.309169,-4.39738 3.678388,2.4294 4.086618,-1.6529 -1.173815,4.24908 2.834838,3.37583 -4.403845,0.19667 z"
     inkscape:randomized="0"
     inkscape:rounded="0"
     inkscape:flatsided="false"
     sodipodi:arg2="2.2987835"
     sodipodi:arg1="1.670465"
     sodipodi:r2="3.3191266"
     sodipodi:r1="6.6382532"
     sodipodi:cy="183.26797"
     sodipodi:cx="57.576633"
     sodipodi:sides="5"
     id="path1286"
     style="opacity:1;fill:#ffee9c;fill-opacity:1;fill-rule:evenodd;stroke:none;stroke-width:2;stroke-miterlimit:4;stroke-dasharray:none;stroke-opacity:1;paint-order:markers fill stroke"
     sodipodi:type="star"
     transform="matrix(0.1377053,-1.0575428,1.0575428,0.1377053,-150.03252,220.72824)" />
</svg>
