<svg xmlns="http://www.w3.org/2000/svg" xmlns:xlink="http://www.w3.org/1999/xlink" xml:space="preserve" width="324" height="234"><defs><linearGradient id="a"><stop offset="0" stop-color="#1d1133"/><stop offset="1" stop-color="#b20fd2"/></linearGradient><linearGradient xlink:href="#a" id="b" x1="192.34" x2="284.4" y1="150.06" y2="15.34" gradientUnits="userSpaceOnUse"/><linearGradient id="d" x1="31.08" x2="31.08" y1="13.51" y2="75.67" gradientTransform="scale(1.351 .74)" gradientUnits="userSpaceOnUse"><stop offset="0%" stop-color="#E576E9"/><stop offset="100%" stop-color="#A65DC6"/></linearGradient><filter id="c" width="1.11" height="1.18" x="-.06" y="-.07" filterUnits="objectBoundingBox"><feOffset dy="2" in="SourceAlpha" result="shadowOffsetOuter1"/><feGaussianBlur in="shadowOffsetOuter1" result="shadowBlurOuter1" stdDeviation="2"/><feColorMatrix in="shadowBlurOuter1" result="shadowMatrixOuter1" values="0 0 0 0 0 0 0 0 0 0 0 0 0 0 0 0 0 0 0.2 0"/><feMerge><feMergeNode in="shadowMatrixOuter1"/><feMergeNode in="SourceGraphic"/></feMerge></filter></defs><path fill="url(#b)" fill-rule="evenodd" d="M0 0v234h324V0z" paint-order="markers fill stroke"/><g fill="none" filter="url(#c)" transform="matrix(1.805 0 0 1.792 86.2 56.06)"><path fill="#efefef" d="M0 2v62a2 2 0 0 0 2 2h80a2 2 0 0 0 2-2V2a2 2 0 0 0-2-2H2a2 2 0 0 0-2 2Zm10 62H4v-6h6zm0-56H4V2h6zm10 56h-6v-6h6zm0-56h-6V2h6zm10 56h-6v-6h6zm0-56h-6V2h6zm10 56h-6v-6h6zm0-56h-6V2h6zm10 56h-6v-6h6zm0-56h-6V2h6zm10 56h-6v-6h6zm0-56h-6V2h6zm10 56h-6v-6h6zm0-56h-6V2h6zm10 56h-6v-6h6zm0-56h-6V2h6z"/><path fill="url(#d)" d="M0 10h84v46H0Z"/><circle cx="26" cy="31.99" r="18" fill="#efefef"/><circle cx="26" cy="31.99" r="14" fill="#b7b7b7"/><path fill="#683b94" d="M30 38h-8c-3.3 0-6-2.7-6-6s2.7-6 6-6h8c3.3 0 6 2.7 6 6s-2.7 6-6 6z"/></g></svg>