<?xml version="1.0" encoding="UTF-8"?>
<svg xmlns="http://www.w3.org/2000/svg" xmlns:xlink="http://www.w3.org/1999/xlink" width="324px" height="234px" viewBox="0 0 324 234" version="1.1">
<defs>
<linearGradient id="linear0" gradientUnits="userSpaceOnUse" x1="-1.455352" y1="64.761543" x2="181.728165" y2="64.761543" gradientTransform="matrix(0,-1.8,1.8,0,-0.0000027,86.399993)">
<stop offset="0" style="stop-color:rgb(50.980395%,43.137255%,69.803923%);stop-opacity:1;"/>
<stop offset="1" style="stop-color:rgb(79.607844%,75.686276%,87.058824%);stop-opacity:1;"/>
</linearGradient>
</defs>
<g id="surface1">
<rect x="0" y="0" width="324" height="234" style="fill:url(#linear0);stroke:none;"/>
<path style="fill:none;stroke-width:1.021703;stroke-linecap:butt;stroke-linejoin:miter;stroke:rgb(100%,100%,100%);stroke-opacity:1;stroke-miterlimit:4;" d="M -0.94401 -1.082899 L 181.217448 -1.082899 L 181.217448 130.605469 L -0.94401 130.605469 Z M -0.94401 -1.082899 " transform="matrix(1.8,0,0,1.8,0,0)"/>
<path style="fill-rule:evenodd;fill:rgb(90.196079%,90.196079%,90.196079%);fill-opacity:1;stroke-width:0.426667;stroke-linecap:butt;stroke-linejoin:miter;stroke:rgb(0%,0%,0%);stroke-opacity:0.308176;stroke-miterlimit:4;" d="M 49.21972 25.904423 C 49.21972 39.03331 38.814731 49.676497 25.981257 49.676497 C 13.146378 49.676497 2.742794 39.03331 2.742794 25.904423 C 2.742794 12.775535 13.146378 2.133811 25.981257 2.133811 C 29.189274 2.133811 32.245599 2.799101 35.02663 4.001011 C 37.806256 5.204383 40.310589 6.944373 42.413217 9.095236 C 44.515845 11.246098 46.216768 13.807832 47.392386 16.651767 C 48.569408 19.495701 49.21972 22.623298 49.21972 25.904423 Z M 49.21972 25.904423 " transform="matrix(2.781118,0,0,2.67153,143.094622,67.467429)"/>
<path style=" stroke:none;fill-rule:nonzero;fill:rgb(90.196079%,90.196079%,90.196079%);fill-opacity:1;" d="M 272.238281 136.210938 C 272.238281 167.460938 246.71875 192.796875 215.238281 192.796875 C 183.757812 192.796875 158.238281 167.460938 158.238281 136.210938 C 158.238281 104.957031 183.757812 79.625 215.238281 79.625 C 246.71875 79.625 272.238281 104.957031 272.238281 136.210938 Z M 272.238281 136.210938 "/>
<path style=" stroke:none;fill-rule:evenodd;fill:rgb(49.019608%,23.921569%,44.705883%);fill-opacity:1;" d="M 160.136719 136.6875 C 160.136719 166.441406 184.789062 190.5625 215.203125 190.5625 C 245.613281 190.5625 270.265625 166.441406 270.265625 136.6875 C 270.265625 106.933594 245.613281 82.8125 215.203125 82.8125 C 184.789062 82.8125 160.136719 106.933594 160.136719 136.6875 Z M 160.136719 136.6875 "/>
</g>
</svg>
