<?xml version="1.0" encoding="UTF-8" standalone="no"?>
<!-- Created with Inkscape (http://www.inkscape.org/) -->

<svg
   xmlns:dc="http://purl.org/dc/elements/1.1/"
   xmlns:cc="http://creativecommons.org/ns#"
   xmlns:rdf="http://www.w3.org/1999/02/22-rdf-syntax-ns#"
   xmlns:svg="http://www.w3.org/2000/svg"
   xmlns="http://www.w3.org/2000/svg"
   xmlns:sodipodi="http://sodipodi.sourceforge.net/DTD/sodipodi-0.dtd"
   xmlns:inkscape="http://www.inkscape.org/namespaces/inkscape"
   width="324"
   height="234"
   viewBox="0 0 85.725002 61.912502"
   version="1.1"
   id="svg8"
   inkscape:version="0.92.1 r15371"
   sodipodi:docname="lanshare.svg">
  <defs
     id="defs2">
    <inkscape:path-effect
       end_linecap_type="zerowidth"
       miter_limit="4"
       linejoin_type="extrp_arc"
       start_linecap_type="zerowidth"
       interpolator_beta="0.2"
       interpolator_type="CubicBezierJohan"
       sort_points="true"
       offset_points="0.6584947,-1.0521439"
       is_visible="true"
       id="path-effect1288"
       effect="powerstroke" />
    <inkscape:path-effect
       effect="powerstroke"
       id="path-effect1284"
       is_visible="true"
       offset_points="0.6584947,-1.0521439"
       sort_points="true"
       interpolator_type="CubicBezierJohan"
       interpolator_beta="0.2"
       start_linecap_type="zerowidth"
       linejoin_type="extrp_arc"
       miter_limit="4"
       end_linecap_type="zerowidth" />
    <inkscape:path-effect
       end_linecap_type="zerowidth"
       miter_limit="4"
       linejoin_type="extrp_arc"
       start_linecap_type="zerowidth"
       interpolator_beta="0.2"
       interpolator_type="CubicBezierJohan"
       sort_points="true"
       offset_points="0.6584947,-1.0521439"
       is_visible="true"
       id="path-effect1280"
       effect="powerstroke" />
    <inkscape:path-effect
       effect="powerstroke"
       id="path-effect1276"
       is_visible="true"
       offset_points="0.6584947,-1.0521439"
       sort_points="true"
       interpolator_type="CubicBezierJohan"
       interpolator_beta="0.2"
       start_linecap_type="zerowidth"
       linejoin_type="extrp_arc"
       miter_limit="4"
       end_linecap_type="zerowidth" />
    <inkscape:perspective
       sodipodi:type="inkscape:persp3d"
       inkscape:vp_x="2.9523026 : 22.526881 : 1"
       inkscape:vp_y="0 : 1000 : 0"
       inkscape:vp_z="88.677305 : 22.526881 : 1"
       inkscape:persp3d-origin="45.814804 : 12.208131 : 1"
       id="perspective890" />
  </defs>
  <sodipodi:namedview
     id="base"
     pagecolor="#ffffff"
     bordercolor="#666666"
     borderopacity="1.0"
     inkscape:pageopacity="0.0"
     inkscape:pageshadow="2"
     inkscape:zoom="2.1410256"
     inkscape:cx="162"
     inkscape:cy="117"
     inkscape:document-units="mm"
     inkscape:current-layer="layer1"
     showgrid="false"
     units="px"
     inkscape:snap-bbox="true"
     inkscape:snap-bbox-midpoints="true"
     inkscape:bbox-nodes="true"
     inkscape:snap-text-baseline="true"
     inkscape:snap-page="true"
     inkscape:snap-bbox-edge-midpoints="true"
     showguides="false"
     inkscape:bbox-paths="false"
     inkscape:snap-midpoints="true"
     inkscape:measure-start="105,52.8513"
     inkscape:measure-end="105,37.1487"
     inkscape:snap-object-midpoints="true"
     inkscape:snap-center="true"
     inkscape:window-width="1366"
     inkscape:window-height="692"
     inkscape:window-x="0"
     inkscape:window-y="0"
     inkscape:window-maximized="1">
    <sodipodi:guide
       position="0,0"
       orientation="0,324"
       id="guide823"
       inkscape:locked="false" />
    <sodipodi:guide
       position="85.725002,0"
       orientation="-234,0"
       id="guide825"
       inkscape:locked="false" />
    <sodipodi:guide
       position="85.725002,61.912502"
       orientation="0,-324"
       id="guide827"
       inkscape:locked="false" />
    <sodipodi:guide
       position="0,61.912502"
       orientation="234,0"
       id="guide829"
       inkscape:locked="false" />
  </sodipodi:namedview>
  <metadata
     id="metadata5">
    <rdf:RDF>
      <cc:Work
         rdf:about="">
        <dc:format>image/svg+xml</dc:format>
        <dc:type
           rdf:resource="http://purl.org/dc/dcmitype/StillImage" />
        <dc:title></dc:title>
      </cc:Work>
    </rdf:RDF>
  </metadata>
  <g
     inkscape:label="Capa 1"
     inkscape:groupmode="layer"
     id="layer1"
     transform="translate(0,-235.08748)">
    <rect
       style="opacity:1;fill:#ff9d00;fill-opacity:1;fill-rule:nonzero;stroke:none;stroke-width:1.05833328;stroke-linejoin:bevel;stroke-miterlimit:4;stroke-dasharray:none;stroke-opacity:1;paint-order:normal"
       id="rect10"
       width="85.724998"
       height="61.912502"
       x="0"
       y="235.08748" />
    <g
       transform="matrix(-1,0,0,1,82.400526,0.11787435)"
       id="g980" />
    <g
       id="g1350">
      <g
         transform="translate(10.133384,6.4260426)"
         id="g1266">
        <g
           style="fill:#c0c0c0;fill-opacity:1;stroke-width:0.72871089"
           transform="matrix(1.2962661,0,0,1.4527648,-13.681349,-138.46064)"
           id="g1250">
          <path
             style="fill:#cbcccc;fill-opacity:1;stroke:none;stroke-width:0.19280469px;stroke-linecap:butt;stroke-linejoin:miter;stroke-opacity:1"
             d="m 22.727233,269.84375 h 10.583334 l 2.645833,0.9297 H 20.081399 m 0,0 2.645834,-0.9297"
             id="path1244"
             inkscape:connector-curvature="0"
             sodipodi:nodetypes="cccccc" />
          <rect
             style="opacity:1;fill:#cbcccc;fill-opacity:1;fill-rule:nonzero;stroke:none;stroke-width:0.19310834;stroke-linejoin:bevel;stroke-miterlimit:4;stroke-dasharray:none;stroke-opacity:1;paint-order:normal"
             id="rect1246"
             width="4.0723534"
             height="1.4202558"
             x="25.982723"
             y="268.94052"
             ry="0" />
          <rect
             style="opacity:1;fill:#9a9a9a;fill-opacity:1;fill-rule:nonzero;stroke:#cccccc;stroke-width:0.77121884;stroke-linecap:square;stroke-linejoin:miter;stroke-miterlimit:4;stroke-dasharray:none;stroke-opacity:1;paint-order:stroke fill markers"
             id="rect1248"
             width="16.404167"
             height="8.4666662"
             x="19.816814"
             y="260.47385" />
        </g>
        <rect
           y="239.95566"
           x="12.09355"
           height="11.842596"
           width="21.059023"
           id="rect1252"
           style="opacity:1;fill:#c5f6f6;fill-opacity:1;fill-rule:nonzero;stroke:#cccccc;stroke-width:1.05833316;stroke-linecap:square;stroke-linejoin:miter;stroke-miterlimit:4;stroke-dasharray:none;stroke-opacity:1;paint-order:stroke fill markers" />
      </g>
      <g
         style="stroke-width:1.13614714"
         transform="matrix(0.9557166,0,0,0.81059077,-12.834884,57.478497)"
         id="g1242">
        <g
           id="g1226"
           transform="matrix(1.356329,0,0,1.7922296,28.679088,-227.27085)"
           style="fill:#c0c0c0;fill-opacity:1;stroke-width:0.72871089">
          <path
             sodipodi:nodetypes="cccccc"
             inkscape:connector-curvature="0"
             id="path1220"
             d="m 22.727233,269.84375 h 10.583334 l 2.645833,0.9297 H 20.081399 m 0,0 2.645834,-0.9297"
             style="fill:#9a9a9a;fill-opacity:1;stroke:none;stroke-width:0.19280469px;stroke-linecap:butt;stroke-linejoin:miter;stroke-opacity:1" />
          <rect
             ry="0"
             y="268.94052"
             x="25.982723"
             height="1.4202558"
             width="4.0723534"
             id="rect1222"
             style="opacity:1;fill:#9a9a9a;fill-opacity:1;fill-rule:nonzero;stroke:none;stroke-width:0.19310834;stroke-linejoin:bevel;stroke-miterlimit:4;stroke-dasharray:none;stroke-opacity:1;paint-order:normal" />
          <rect
             y="260.47385"
             x="19.816814"
             height="8.4666662"
             width="16.404167"
             id="rect1224"
             style="opacity:1;fill:#9a9a9a;fill-opacity:1;fill-rule:nonzero;stroke:#999999;stroke-width:0.77121884;stroke-linecap:square;stroke-linejoin:miter;stroke-miterlimit:4;stroke-dasharray:none;stroke-opacity:1;paint-order:stroke fill markers" />
        </g>
        <rect
           style="opacity:1;fill:#ccfefe;fill-opacity:1;fill-rule:nonzero;stroke:#999999;stroke-width:1.20242226;stroke-linecap:square;stroke-linejoin:miter;stroke-miterlimit:4;stroke-dasharray:none;stroke-opacity:1;paint-order:stroke fill markers"
           id="rect1228"
           width="22.0348"
           height="14.609834"
           x="55.648273"
           y="239.56927" />
      </g>
      <g
         transform="translate(2.5135408)"
         id="g1145">
        <g
           id="g974"
           transform="matrix(0.97029913,0,0,0.90604318,0.35021389,27.345737)"
           style="stroke-width:1.06652915">
          <rect
             y="282.18375"
             x="19.24221"
             height="4.5855107"
             width="9.0284901"
             id="rect819"
             style="opacity:1;fill:#0069b1;fill-opacity:1;fill-rule:nonzero;stroke:none;stroke-width:1.12874329;stroke-linejoin:bevel;stroke-miterlimit:4;stroke-dasharray:none;stroke-opacity:1;paint-order:normal" />
          <path
             inkscape:connector-curvature="0"
             id="path855"
             d="M 20.269544,280.09619 16,284.4765 l 4.269544,4.38031 z"
             style="fill:#0069b1;fill-opacity:1;stroke:none;stroke-width:0.28218582px;stroke-linecap:butt;stroke-linejoin:miter;stroke-opacity:1" />
        </g>
        <rect
           style="opacity:1;fill:#28b0d8;fill-opacity:1;fill-rule:nonzero;stroke:none;stroke-width:0.26499999;stroke-linejoin:bevel;stroke-miterlimit:4;stroke-dasharray:none;stroke-opacity:1;paint-order:normal"
           id="rect871"
           width="5.2916665"
           height="4.1546707"
           x="30.427084"
           y="283.01639" />
        <rect
           style="opacity:1;fill:#5be8e8;fill-opacity:1;fill-rule:nonzero;stroke:none;stroke-width:0.26499999;stroke-linejoin:bevel;stroke-miterlimit:4;stroke-dasharray:none;stroke-opacity:1;paint-order:normal"
           id="rect875"
           width="3.96875"
           height="4.1546693"
           x="38.364582"
           y="283.01639" />
        <rect
           y="283.01639"
           x="44.979168"
           height="4.1546707"
           width="5.2916665"
           id="rect995"
           style="opacity:1;fill:#28b0d8;fill-opacity:1;fill-rule:nonzero;stroke:none;stroke-width:0.26499999;stroke-linejoin:bevel;stroke-miterlimit:4;stroke-dasharray:none;stroke-opacity:1;paint-order:normal" />
        <g
           style="stroke-width:1.06652915"
           transform="matrix(0.97029913,0,0,0.90604318,0.35021389,27.345737)"
           id="g1005">
          <rect
             style="opacity:1;fill:#0069b1;fill-opacity:1;fill-rule:nonzero;stroke:none;stroke-width:1.12874329;stroke-linejoin:bevel;stroke-miterlimit:4;stroke-dasharray:none;stroke-opacity:1;paint-order:normal"
             id="rect1001"
             width="9.0284901"
             height="4.5855107"
             x="19.24221"
             y="282.18375" />
          <path
             style="fill:#0069b1;fill-opacity:1;stroke:none;stroke-width:0.28218582px;stroke-linecap:butt;stroke-linejoin:miter;stroke-opacity:1"
             d="M 20.269544,280.09619 16,284.4765 l 4.269544,4.38031 z"
             id="path1003"
             inkscape:connector-curvature="0" />
        </g>
        <g
           id="g1131"
           transform="matrix(-0.97029913,0,0,0.90604318,80.347703,27.345722)"
           style="stroke-width:1.06652915">
          <rect
             y="282.18375"
             x="19.24221"
             height="4.5855107"
             width="9.0284901"
             id="rect1127"
             style="opacity:1;fill:#0069b1;fill-opacity:1;fill-rule:nonzero;stroke:none;stroke-width:1.12874329;stroke-linejoin:bevel;stroke-miterlimit:4;stroke-dasharray:none;stroke-opacity:1;paint-order:normal" />
          <path
             inkscape:connector-curvature="0"
             id="path1129"
             d="M 20.269544,280.09619 16,284.4765 l 4.269544,4.38031 z"
             style="fill:#0069b1;fill-opacity:1;stroke:none;stroke-width:0.28218582px;stroke-linecap:butt;stroke-linejoin:miter;stroke-opacity:1" />
        </g>
      </g>
      <g
         style="stroke-width:0.64193118"
         transform="matrix(1.6561171,0,0,1.4653189,-15.400214,-120.25182)"
         id="g1182">
        <g
           id="g1178"
           transform="matrix(0.93715433,0,0,1.1900176,1.2356606,-51.380627)"
           style="stroke-width:0.60786361">
          <path
             sodipodi:nodetypes="cccccc"
             inkscape:connector-curvature="0"
             id="path1172"
             d="m 22.727233,269.84375 h 10.583334 l 2.645833,0.9297 H 20.081399 m 0,0 2.645834,-0.9297"
             style="fill:#1a1a1a;fill-opacity:1;stroke:none;stroke-width:0.16083063px;stroke-linecap:butt;stroke-linejoin:miter;stroke-opacity:1" />
          <rect
             ry="0"
             y="268.94052"
             x="25.982723"
             height="1.4202558"
             width="4.0723534"
             id="rect1174"
             style="opacity:1;fill:#1a1a1a;fill-opacity:1;fill-rule:nonzero;stroke:none;stroke-width:0.16108386;stroke-linejoin:bevel;stroke-miterlimit:4;stroke-dasharray:none;stroke-opacity:1;paint-order:normal" />
          <rect
             y="260.47385"
             x="19.816814"
             height="8.4666662"
             width="16.404167"
             id="rect1176"
             style="opacity:1;fill:none;fill-opacity:1;fill-rule:nonzero;stroke:#1a1a1a;stroke-width:0.64332253;stroke-linecap:square;stroke-linejoin:miter;stroke-miterlimit:4;stroke-dasharray:none;stroke-opacity:1;paint-order:stroke fill markers" />
        </g>
        <rect
           style="opacity:1;fill:#c0c0c0;fill-opacity:1;fill-rule:nonzero;stroke:none;stroke-width:0.67937714;stroke-linecap:square;stroke-linejoin:miter;stroke-miterlimit:4;stroke-dasharray:none;stroke-opacity:1;paint-order:stroke fill markers"
           id="rect1180"
           width="15.373236"
           height="9.7974424"
           x="19.807074"
           y="258.59528" />
      </g>
      <g
         style="stroke-width:1.09096563"
         transform="matrix(0.99500254,0,0,0.84441044,1.903618,44.364704)"
         id="g1218">
        <g
           style="fill:#c0c0c0;fill-opacity:1;stroke-width:0.69973212"
           transform="matrix(1.356329,0,0,1.7922296,19.614718,-206.78004)"
           id="g1202">
          <path
             style="fill:#6a6a6a;fill-opacity:1;stroke:none;stroke-width:0.18513741px;stroke-linecap:butt;stroke-linejoin:miter;stroke-opacity:1"
             d="m 22.727233,269.84375 h 10.583334 l 2.645833,0.9297 H 20.081399 m 0,0 2.645834,-0.9297"
             id="path1196"
             inkscape:connector-curvature="0"
             sodipodi:nodetypes="cccccc" />
          <rect
             style="opacity:1;fill:#6a6a6a;fill-opacity:1;fill-rule:nonzero;stroke:none;stroke-width:0.18542895;stroke-linejoin:bevel;stroke-miterlimit:4;stroke-dasharray:none;stroke-opacity:1;paint-order:normal"
             id="rect1198"
             width="4.0723534"
             height="1.4202558"
             x="25.982723"
             y="268.94052"
             ry="0" />
          <rect
             style="opacity:1;fill:none;fill-opacity:1;fill-rule:nonzero;stroke:#6a6a6a;stroke-width:0.74054968;stroke-linecap:square;stroke-linejoin:miter;stroke-miterlimit:4;stroke-dasharray:none;stroke-opacity:1;paint-order:stroke fill markers"
             id="rect1200"
             width="16.404167"
             height="8.4666662"
             x="19.816814"
             y="260.47385" />
        </g>
        <rect
           y="260.06009"
           x="46.583904"
           height="14.609834"
           width="22.0348"
           id="rect1204"
           style="opacity:1;fill:#ccfefe;fill-opacity:1;fill-rule:nonzero;stroke:#6a6a6a;stroke-width:1.15460515;stroke-linecap:square;stroke-linejoin:miter;stroke-miterlimit:4;stroke-dasharray:none;stroke-opacity:1;paint-order:stroke fill markers" />
      </g>
      <path
         sodipodi:nodetypes="cc"
         inkscape:original-d="m 30.13256,266.04373 c 14.944411,10.77623 29.084503,4.08678 29.084503,4.08678"
         inkscape:path-effect="#path-effect1276"
         inkscape:connector-curvature="0"
         id="path1274"
         d="m 30.13256,266.04373 c 2.343087,1.68957 5.693639,3.51396 9.754439,4.55146 3.992187,1.01997 7.549662,1.00539 10.340556,0.67921 1.979831,-0.23139 3.589117,-0.62911 4.351,-0.79384 0.672768,-0.14546 2.473871,-0.3238 3.291686,-0.3808 1.04417,-0.0728 1.346822,0.0308 1.346822,0.0308 h 0 c -0.001,0.009 -0.07806,0.33149 -0.994045,0.96048 -0.896812,0.61583 -2.240086,1.23883 -3.199767,1.44633 -0.869266,0.18794 -2.5337,0.42952 -4.692874,0.4447 -2.986094,0.021 -6.652299,-0.39082 -10.625376,-1.78688 -4.076167,-1.43229 -7.196388,-3.43807 -9.572441,-5.15141 z"
         style="fill:#00cccc;fill-rule:nonzero;stroke:none;stroke-width:0.26458332px;stroke-linecap:butt;stroke-linejoin:miter;stroke-opacity:1;fill-opacity:1" />
      <path
         style="fill:#00cccc;fill-opacity:1;fill-rule:nonzero;stroke:none;stroke-width:0.26458332px;stroke-linecap:butt;stroke-linejoin:miter;stroke-opacity:1"
         d="m 59.217063,270.13051 c 0.524568,-0.81169 1.009888,-1.88772 1.116225,-3.0558 0.079,-0.86773 -0.0586,-1.68864 -0.401124,-2.45336 -0.316173,-0.7059 -0.790758,-1.32862 -1.359727,-1.87965 -0.590884,-0.57225 -1.267039,-1.05112 -1.925916,-1.44881 -1.04945,-0.63343 -2.163014,-1.11454 -2.682939,-1.36847 -0.316163,-0.15442 -0.827801,-0.49807 -1.302877,-0.83227 -1.127485,-0.79314 -1.782098,-1.49971 -1.782098,-1.49971 0,0 0.664899,-0.3309 2.402687,-0.0249 0.633307,0.11153 1.234501,0.28469 1.605767,0.46601 0.606915,0.29642 1.695433,0.94671 2.772801,1.88101 0.656773,0.56956 1.316903,1.25179 1.859577,2.03517 0.525491,0.75857 0.915236,1.5749 1.113808,2.44186 0.214148,0.93498 0.187067,1.84423 -0.02517,2.72879 -0.283808,1.18285 -0.870032,2.20394 -1.391016,3.01009 z"
         id="path1278"
         inkscape:connector-curvature="0"
         inkscape:path-effect="#path-effect1280"
         inkscape:original-d="m 59.217063,270.13051 c 5.614284,-8.68728 -8.338456,-12.53807 -8.338456,-12.53807"
         sodipodi:nodetypes="cc" />
      <path
         sodipodi:nodetypes="cc"
         inkscape:original-d="M 50.894145,257.81212 C 45.695368,239.42398 32.771983,252.52268 32.771983,252.52268"
         inkscape:path-effect="#path-effect1284"
         inkscape:connector-curvature="0"
         id="path1282"
         d="m 50.894145,257.81212 c -0.484128,-1.71237 -1.257542,-3.73496 -2.390364,-5.43441 -0.845568,-1.26851 -1.801246,-2.22421 -2.845784,-2.84722 -0.96196,-0.57375 -1.92872,-0.82386 -2.861363,-0.86053 -0.966449,-0.038 -1.885402,0.15353 -2.704453,0.4314 -1.327388,0.45033 -2.485059,1.16935 -3.090573,1.52281 -0.330928,0.19317 -1.041413,0.52046 -1.644878,0.80464 -0.751117,0.35372 -1.492699,0.70998 -1.945625,0.89746 -0.4772,0.19754 -0.639122,0.19641 -0.639122,0.19641 0,0 -0.01517,-0.16744 0.243059,-0.63489 0.258643,-0.4682 0.728379,-1.12108 1.373214,-1.78996 0.545158,-0.56549 1.118472,-1.0376 1.552557,-1.29098 0.696029,-0.40628 2.08054,-1.0664 3.734052,-1.36452 1.01303,-0.18264 2.137068,-0.23122 3.279622,0.003 1.105388,0.22687 2.157085,0.70383 3.126161,1.4802 1.040808,0.83385 1.915672,1.95574 2.661252,3.30735 1.004301,1.82063 1.667266,3.86359 2.152245,5.57897 z"
         style="fill:#00cccc;fill-opacity:1;fill-rule:nonzero;stroke:none;stroke-width:0.26458332px;stroke-linecap:butt;stroke-linejoin:miter;stroke-opacity:1" />
      <path
         style="fill:#00cccc;fill-opacity:1;fill-rule:nonzero;stroke:none;stroke-width:0.26458332px;stroke-linecap:butt;stroke-linejoin:miter;stroke-opacity:1"
         d="m 32.771983,252.52268 c -1.651254,0.33587 -3.587374,0.89862 -5.147046,1.74266 -1.168377,0.63228 -1.990932,1.34851 -2.455288,2.11396 -0.423404,0.69794 -0.509666,1.36944 -0.412482,1.99222 0.10162,0.6512 0.409128,1.28259 0.797071,1.8633 0.631931,0.94594 1.507866,1.78796 1.959898,2.25488 0.25055,0.2588 0.680246,0.81625 1.074537,1.32658 0.486563,0.62976 0.960762,1.246 1.233251,1.65028 0.281883,0.41823 0.310636,0.57717 0.310636,0.57717 0,0 -0.159481,0.0468 -0.657016,-0.0985 -0.497345,-0.14521 -1.21011,-0.44503 -1.964194,-0.88446 -0.636408,-0.37086 -1.191676,-0.77961 -1.509127,-1.10754 -0.508534,-0.52531 -1.392201,-1.6082 -1.958364,-2.91514 -0.346846,-0.80066 -0.584571,-1.70992 -0.520811,-2.63627 0.06226,-0.90449 0.405238,-1.73401 1.056697,-2.46561 0.691681,-0.77677 1.69268,-1.40179 2.924711,-1.92206 1.667269,-0.70407 3.611688,-1.1547 5.267527,-1.4915 z"
         id="path1286"
         inkscape:connector-curvature="0"
         inkscape:path-effect="#path-effect1288"
         inkscape:original-d="m 32.771983,252.52268 c -17.741928,3.60871 -2.639423,13.52105 -2.639423,13.52105"
         sodipodi:nodetypes="cc" />
    </g>
  </g>
</svg>
