<?xml version="1.0" encoding="UTF-8"?>
<svg xmlns="http://www.w3.org/2000/svg" xmlns:xlink="http://www.w3.org/1999/xlink" width="324px" height="234px" viewBox="0 0 324 234" version="1.1">
<g id="surface1">
<rect x="0" y="0" width="324" height="234" style="fill:rgb(90.196079%,90.196079%,90.196079%);fill-opacity:1;stroke:none;"/>
<path style=" stroke:none;fill-rule:nonzero;fill:rgb(9.411765%,63.921571%,1.176471%);fill-opacity:1;" d="M 38.894531 151.046875 L 38.894531 191.363281 L 62.589844 191.363281 L 62.589844 185.238281 L 46.128906 185.238281 L 46.128906 151.050781 L 38.894531 151.050781 "/>
<path style=" stroke:none;fill-rule:nonzero;fill:rgb(9.411765%,63.921571%,1.176471%);fill-opacity:1;" d="M 66.960938 191.363281 L 74.195312 191.363281 L 74.195312 162.34375 L 66.960938 162.34375 L 66.960938 191.363281 M 70.578125 159.847656 C 72.84375 159.847656 74.734375 157.824219 74.734375 155.269531 C 74.734375 152.769531 72.84375 150.691406 70.578125 150.691406 C 68.257812 150.691406 66.421875 152.769531 66.421875 155.269531 C 66.421875 157.824219 68.257812 159.847656 70.578125 159.847656 "/>
<path style=" stroke:none;fill-rule:nonzero;fill:rgb(9.411765%,63.921571%,1.176471%);fill-opacity:1;" d="M 86.785156 165.714844 L 86.675781 165.714844 L 86.675781 148.53125 L 79.441406 148.53125 L 79.441406 191.34375 L 86.515625 191.34375 L 86.675781 187.953125 L 86.785156 187.953125 C 89.050781 190.75 91.316406 191.9375 95.042969 191.9375 C 102.058594 191.9375 106.699219 184.980469 106.699219 176.296875 C 106.699219 167.914062 102.542969 161.730469 95.367188 161.730469 C 91.535156 161.730469 89.265625 162.980469 86.785156 165.714844 M 86.675781 176.179688 C 86.675781 171.183594 88.726562 167.855469 92.613281 167.855469 C 96.929688 167.855469 99.089844 171.246094 99.089844 176.773438 C 99.089844 182.246094 96.984375 185.8125 92.722656 185.8125 C 88.996094 185.8125 86.675781 182.601562 86.675781 177.488281 L 86.675781 176.179688 "/>
<path style=" stroke:none;fill-rule:nonzero;fill:rgb(9.411765%,63.921571%,1.176471%);fill-opacity:1;" d="M 126.113281 161.761719 C 122.660156 162 119.367188 164.320312 117.855469 167.53125 L 117.75 167.53125 L 117.585938 162.359375 L 110.515625 162.359375 L 110.515625 191.375 L 117.75 191.375 L 117.75 180.433594 C 117.75 174.605469 118.71875 172.527344 120.394531 171.21875 C 121.851562 170.085938 123.578125 169.613281 125.953125 169.492188 L 126.113281 161.761719 "/>
<path style=" stroke:none;fill-rule:nonzero;fill:rgb(9.411765%,63.921571%,1.176471%);fill-opacity:1;" d="M 152.726562 175.113281 C 152.726562 167.917969 148.730469 161.734375 141.820312 161.734375 C 133.511719 161.734375 128.167969 168.039062 128.167969 177.609375 C 128.167969 186.945312 133.671875 191.941406 141.820312 191.941406 C 145.65625 191.941406 148.351562 191.285156 150.890625 190.039062 L 150.132812 184.089844 C 147.757812 185.160156 145.332031 185.816406 142.738281 185.816406 C 138.367188 185.816406 135.5625 183.617188 135.289062 179.097656 L 152.402344 179.097656 C 152.617188 178.027344 152.726562 176.363281 152.726562 175.113281 M 141.066406 167.859375 C 144.195312 167.859375 145.65625 170.652344 145.761719 173.625 L 135.5625 173.625 C 136.101562 170.296875 138.207031 167.859375 141.066406 167.859375 "/>
<path style=" stroke:none;fill-rule:nonzero;fill:rgb(0%,0%,0%);fill-opacity:1;" d="M 174.675781 150.433594 C 164.960938 150.433594 156.972656 158.222656 156.972656 171.183594 C 156.972656 184.148438 164.960938 191.9375 174.675781 191.9375 C 184.394531 191.9375 192.382812 184.148438 192.382812 171.183594 C 192.382812 158.222656 184.394531 150.433594 174.675781 150.433594 M 174.675781 154.476562 C 181.910156 154.476562 187.414062 160.421875 187.414062 171.183594 C 187.414062 181.949219 181.910156 187.894531 174.675781 187.894531 C 167.445312 187.894531 161.9375 181.949219 161.9375 171.183594 C 161.9375 160.421875 167.445312 154.476562 174.675781 154.476562 "/>
<path style=" stroke:none;fill-rule:nonzero;fill:rgb(0%,0%,0%);fill-opacity:1;" d="M 199.292969 160.710938 L 199.292969 162.550781 L 195.03125 162.550781 L 195.03125 166.359375 L 199.292969 166.359375 L 199.292969 191.332031 L 203.828125 191.332031 L 203.828125 166.359375 L 210.519531 166.359375 L 210.519531 162.550781 L 203.828125 162.550781 L 203.828125 159.9375 C 203.828125 154.761719 205.824219 151.730469 209.441406 151.730469 C 211.113281 151.730469 212.195312 152.027344 213.21875 152.445312 L 213.652344 148.757812 C 212.679688 148.339844 210.84375 147.925781 209.386719 147.925781 C 202.964844 147.925781 199.292969 152.503906 199.292969 160.710938 "/>
<path style=" stroke:none;fill-rule:nonzero;fill:rgb(0%,0%,0%);fill-opacity:1;" d="M 214.367188 160.710938 L 214.367188 162.550781 L 210.105469 162.550781 L 210.105469 166.359375 L 214.367188 166.359375 L 214.367188 191.332031 L 218.902344 191.332031 L 218.902344 166.359375 L 225.597656 166.359375 L 225.597656 162.550781 L 218.902344 162.550781 L 218.902344 159.9375 C 218.902344 154.761719 220.898438 151.730469 224.515625 151.730469 C 226.191406 151.730469 227.269531 152.027344 228.292969 152.445312 L 228.726562 148.757812 C 227.753906 148.339844 225.917969 147.925781 224.460938 147.925781 C 218.039062 147.925781 214.367188 152.503906 214.367188 160.710938 "/>
<path style=" stroke:none;fill-rule:nonzero;fill:rgb(0%,0%,0%);fill-opacity:1;" d="M 230.851562 191.363281 L 235.386719 191.363281 L 235.386719 162.582031 L 230.851562 162.582031 L 230.851562 191.363281 M 233.121094 158.359375 C 234.683594 158.359375 235.925781 156.992188 235.925781 155.269531 C 235.925781 153.542969 234.683594 152.175781 233.121094 152.175781 C 231.554688 152.175781 230.3125 153.542969 230.3125 155.269531 C 230.3125 156.992188 231.554688 158.359375 233.121094 158.359375 "/>
<path style=" stroke:none;fill-rule:nonzero;fill:rgb(0%,0%,0%);fill-opacity:1;" d="M 244.8125 176.871094 C 244.8125 169.617188 248.753906 165.808594 253.882812 165.808594 C 256.582031 165.808594 258.957031 166.523438 260.898438 167.535156 L 261.332031 163.730469 C 259.710938 162.835938 257.121094 162.003906 254.261719 162.003906 C 246.164062 162.003906 240.0625 167.414062 240.0625 177.523438 C 240.0625 187.039062 245.570312 191.972656 252.855469 191.972656 C 256.09375 191.972656 258.414062 191.554688 261.0625 190.308594 L 260.628906 186.503906 C 258.363281 187.632812 255.933594 188.167969 253.664062 188.167969 C 248.429688 188.167969 244.8125 184.539062 244.8125 176.871094 "/>
<path style=" stroke:none;fill-rule:nonzero;fill:rgb(0%,0%,0%);fill-opacity:1;" d="M 286.898438 178.097656 C 287.007812 177.027344 287.0625 176.136719 287.0625 175.246094 C 287.0625 167.871094 283.554688 161.984375 276.804688 161.984375 C 269.519531 161.984375 264.175781 168.644531 264.175781 177.503906 C 264.175781 187.253906 269.519531 191.953125 276.804688 191.953125 C 280.042969 191.953125 282.472656 191.417969 285.011719 190.289062 L 284.578125 186.480469 C 282.582031 187.550781 279.722656 188.148438 277.453125 188.148438 C 272.21875 188.148438 268.816406 184.640625 268.710938 178.097656 L 286.898438 178.097656 M 276.429688 165.789062 C 280.421875 165.789062 282.582031 169.417969 282.582031 174.171875 L 268.925781 174.171875 C 269.574219 169.121094 272.109375 165.789062 276.429688 165.789062 "/>
<path style=" stroke:none;fill-rule:evenodd;fill:rgb(0%,0%,0%);fill-opacity:1;" d="M 178.371094 39.429688 C 177.511719 39.40625 176.667969 39.992188 176.332031 40.839844 C 175.996094 41.691406 176.191406 42.75 176.804688 43.398438 L 195.21875 63.539062 C 195.8125 64.1875 196.78125 64.402344 197.5625 64.058594 C 198.347656 63.71875 198.902344 62.839844 198.910156 61.929688 L 198.910156 41.75 C 198.910156 40.535156 197.878906 39.429688 196.75 39.429688 L 178.367188 39.554688 Z M 178.371094 39.429688 "/>
<path style=" stroke:none;fill-rule:evenodd;fill:rgb(100%,100%,100%);fill-opacity:1;" d="M 127.730469 39.429688 C 126.597656 39.449219 125.582031 40.578125 125.582031 41.8125 L 125.582031 133.730469 C 125.582031 134.964844 126.597656 136.09375 127.730469 136.113281 L 196.71875 136.113281 C 197.863281 136.113281 198.902344 134.976562 198.902344 133.730469 L 198.902344 74.539062 C 198.90625 73.914062 198.671875 73.292969 198.269531 72.847656 L 168.425781 40.160156 C 168.023438 39.707031 167.453125 39.4375 166.875 39.429688 L 127.730469 39.554688 Z M 127.730469 39.429688 "/>
<path style=" stroke:none;fill-rule:evenodd;fill:rgb(0%,0%,0%);fill-opacity:1;" d="M 127.730469 39.429688 C 126.539062 39.449219 125.582031 40.511719 125.582031 41.8125 L 125.582031 133.730469 C 125.582031 135.03125 126.539062 136.09375 127.730469 136.113281 L 196.71875 136.113281 C 197.296875 136.113281 197.855469 135.863281 198.261719 135.414062 C 198.671875 134.96875 198.902344 134.363281 198.902344 133.730469 L 198.902344 74.539062 C 198.90625 73.90625 198.675781 73.296875 198.269531 72.847656 L 168.425781 40.160156 C 168.019531 39.699219 167.460938 39.4375 166.875 39.429688 L 127.730469 39.554688 Z M 129.917969 44.195312 L 165.960938 44.195312 L 194.53125 75.5 L 194.53125 131.347656 L 129.917969 131.347656 L 129.925781 44.210938 Z M 129.917969 44.195312 "/>
</g>
</svg>
