<svg xmlns="http://www.w3.org/2000/svg" xmlns:xlink="http://www.w3.org/1999/xlink" width="324" height="234"><defs><linearGradient id="a"><stop offset="0" stop-color="#ed7200"/><stop offset="1" stop-color="#ff4dd9"/></linearGradient><linearGradient xlink:href="#a" id="b" x1="-390.66" x2="-72.38" y1="61.47" y2="61.47" gradientTransform="translate(73.5 50.15)" gradientUnits="userSpaceOnUse"/></defs><path fill="url(#b)" d="M-324.76-.38H-.3v234.35h-324.46z" transform="scale(-1 1)"/><path fill="#fa4a8a" d="M238.25 116.8c0 41-33.9 74.25-75.72 74.25-41.83 0-75.73-33.24-75.73-74.26 0-41 33.9-74.25 75.73-74.25 41.82 0 75.72 33.24 75.72 74.25zm0 0"/><path fill="#fff" d="M148.13 44.03c-1.94.34-3.86.77-5.77 1.27a77.83 77.83 0 0 0-14.07 5.36 76.01 76.01 0 0 0-18.39 12.9l-.7.72c1.52 10.16 9.22 22.54 17.33 32.04a40.26 40.26 0 0 0-5.65 20.47c0 1.2.07 2.39.18 3.57-11.86-6-24.31-15.92-29.91-27.68a50 50 0 0 0-.8 2.15 72.28 72.28 0 0 0-3 14.5 73.25 73.25 0 0 0 .73 20.01 71.7 71.7 0 0 0 1.48 6.49c9.72 3.8 24.47 3.46 36.92 1.33a41.39 41.39 0 0 0 18.55 16.65c-11.22 7.07-26.22 12.69-39.4 11.56a71 71 0 0 0 2.72 3.03 75.32 75.32 0 0 0 31.89 19.18c.91.24 1.82.47 2.74.68 8.18-6.35 15.24-19.02 19.58-30.62a42.2 42.2 0 0 0 23.97-7.53c.64 13.09-1.9 28.68-9.5 39.34 1.94-.34 3.87-.77 5.78-1.27a76.88 76.88 0 0 0 20.63-9.05 76.04 76.04 0 0 0 11.82-9.2l.7-.73c-1.52-10.17-9.24-22.56-17.36-32.07a40.27 40.27 0 0 0 5.57-20.34c0-1.25-.08-2.5-.2-3.74 11.9 6 24.42 15.95 30.04 27.76.28-.72.55-1.44.8-2.16a73.46 73.46 0 0 0 3.2-27.16 72.66 72.66 0 0 0-.92-7.35c-.4-2.2-.9-4.37-1.5-6.52-11.81-4.13-26.1-3.2-37.08-1.29a41.37 41.37 0 0 0-18.53-16.56c11.24-7.12 26.3-12.8 39.55-11.66a76.76 76.76 0 0 0-2.71-3.03 76.02 76.02 0 0 0-11.54-9.53 76.95 76.95 0 0 0-13.26-7.1 78.28 78.28 0 0 0-7.1-2.55c-.9-.24-1.8-.47-2.72-.68-8.21 6.37-15.29 19.1-19.62 30.73h-.05a42.23 42.23 0 0 0-23.9 7.45c-.65-13.1 1.89-28.7 9.5-39.38zm0 0"/><path fill="#fa4a8a" d="M149.78 94.52a2.38 2.38 0 0 0-2.4 2.43v39.68c0 1.88 1.95 3.05 3.52 2.11l16.58-9.92 16.59-9.92a2.48 2.48 0 0 0 0-4.21l-16.59-9.93-16.58-9.92c-.34-.2-.73-.31-1.12-.33Zm0 0"/></svg>