<?xml version="1.0" encoding="UTF-8" standalone="no"?>
<svg
   xmlns:dc="http://purl.org/dc/elements/1.1/"
   xmlns:cc="http://creativecommons.org/ns#"
   xmlns:rdf="http://www.w3.org/1999/02/22-rdf-syntax-ns#"
   xmlns:svg="http://www.w3.org/2000/svg"
   xmlns="http://www.w3.org/2000/svg"
   xmlns:xlink="http://www.w3.org/1999/xlink"
   xmlns:sodipodi="http://sodipodi.sourceforge.net/DTD/sodipodi-0.dtd"
   xmlns:inkscape="http://www.inkscape.org/namespaces/inkscape"
   width="324"
   height="234"
   viewBox="0 0 85.7 61.9"
   version="1.1"
   id="svg40"
   sodipodi:docname="wexond.svg"
   inkscape:version="0.92.4 (5da689c313, 2019-01-14)">
  <sodipodi:namedview
     pagecolor="#ffffff"
     bordercolor="#666666"
     borderopacity="1"
     objecttolerance="10"
     gridtolerance="10"
     guidetolerance="10"
     inkscape:pageopacity="0"
     inkscape:pageshadow="2"
     inkscape:window-width="1920"
     inkscape:window-height="1040"
     id="namedview59"
     showgrid="false"
     inkscape:zoom="1.008547"
     inkscape:cx="162"
     inkscape:cy="117"
     inkscape:window-x="0"
     inkscape:window-y="0"
     inkscape:window-maximized="1"
     inkscape:current-layer="svg40" />
  <metadata
     id="metadata44">
    <rdf:RDF>
      <cc:Work
         rdf:about="">
        <dc:format>image/svg+xml</dc:format>
        <dc:type
           rdf:resource="http://purl.org/dc/dcmitype/StillImage" />
        <dc:title></dc:title>
      </cc:Work>
    </rdf:RDF>
  </metadata>
  <defs
     id="defs2">
    <radialGradient
       gradientUnits="userSpaceOnUse"
       gradientTransform="matrix(0.99979807,0,0,0.72207642,-128.10134,-5.0417631)"
       r="42.862499"
       fy="30.956251"
       fx="42.862499"
       cy="30.956251"
       cx="42.862499"
       id="radialGradient3468"
       xlink:href="#linearGradient3764-36-4" />
    <linearGradient
       gradientTransform="rotate(-90,23.999998,24)"
       gradientUnits="userSpaceOnUse"
       x2="47"
       x1="1"
       id="linearGradient3764-36-4">
      <stop
         offset="0"
         id="stop7-75-6"
         style="stop-color:#eb3c00;stop-opacity:1;" />
      <stop
         id="stop9-35-2"
         style="stop-color:#dfd466;stop-opacity:1"
         offset="1" />
    </linearGradient>
  </defs>
  <defs
     id="defs28">
    <linearGradient
       id="d">
      <stop
         offset="0"
         stop-color="#e1f3ff"
         id="stop4" />
      <stop
         offset="1"
         stop-color="#ccdaff"
         id="stop6" />
    </linearGradient>
    <linearGradient
       id="c">
      <stop
         offset="0"
         stop-color="#f1f8ff"
         id="stop9" />
      <stop
         offset="1"
         stop-color="#e0e9ff"
         id="stop11" />
    </linearGradient>
    <linearGradient
       id="b">
      <stop
         offset="0"
         stop-color="#f2faff"
         id="stop14" />
      <stop
         offset="1"
         stop-color="#ccdaff"
         id="stop16" />
    </linearGradient>
    <linearGradient
       id="a">
      <stop
         offset="0"
         stop-color="#05a9ff"
         id="stop19" />
      <stop
         offset="1"
         stop-color="#3663fe"
         id="stop21" />
    </linearGradient>
    <linearGradient
       id="h"
       x1="430"
       x2="565.5"
       y1="114.1"
       y2="114.1"
       gradientTransform="matrix(.37818 0 0 .37818 -145.4 -12.2)"
       gradientUnits="userSpaceOnUse"
       xlink:href="#a" />
    <linearGradient
       id="f"
       x1="1.1"
       x2="82.8"
       y1="37.2"
       y2="37.2"
       gradientTransform="matrix(1.32706 0 0 1.32706 -15.2 -19)"
       gradientUnits="userSpaceOnUse"
       xlink:href="#b" />
    <linearGradient
       id="g"
       x1="1.1"
       x2="82.8"
       y1="37.2"
       y2="37.2"
       gradientTransform="matrix(1.32706 0 0 1.32706 -15.2 -19)"
       gradientUnits="userSpaceOnUse"
       xlink:href="#d" />
    <linearGradient
       id="e"
       x1="-2.4"
       x2="88.1"
       y1="31"
       y2="31"
       gradientTransform="matrix(.94737 0 0 .94737 -.1 0)"
       gradientUnits="userSpaceOnUse"
       xlink:href="#c" />
  </defs>
  <g
     transform="translate(128.2589,13.638983)"
     id="g886">
    <rect
       style="fill:url(#radialGradient3468);fill-opacity:1;stroke:none;stroke-width:1.62385201;stroke-linecap:round;stroke-linejoin:bevel;stroke-opacity:0.44370201"
       id="rect844"
       width="85.707695"
       height="61.900002"
       x="-128.10133"
       y="-13.638985" />
    <g
       id="g1492"
       transform="matrix(-1.0531684,0.28388115,-0.17401565,-1.0638989,-42.826978,39.525732)"
       style="opacity:0.402362;fill:#ffff00;fill-opacity:0.15250101">
      <path
         id="rect965"
         style="mix-blend-mode:normal;fill:#ffff00;fill-opacity:0.15250101;stroke:none;stroke-width:1.83529997;stroke-linecap:round;stroke-linejoin:bevel;stroke-opacity:0.44370201"
         d="m 0,172.42773 260.59375,-70.24218 c 7.86038,-2.11877 13.14252,-10.215793 11.84375,-18.156253 -1.29878,-7.940471 -8.67087,-12.626575 -16.53125,-10.507813 L 0,142.5 Z"
         transform="matrix(-0.24056897,-0.06419124,0.03934844,-0.23814258,69.642089,68.554249)" />
      <path
         id="rect973"
         style="mix-blend-mode:normal;fill:#ffff00;fill-opacity:0.15250101;stroke:none;stroke-width:1.21605003;stroke-linecap:round;stroke-linejoin:bevel;stroke-opacity:0.44370201"
         d="m 0,207.21289 274.00195,-73.85742 c 3.45091,-0.93019 5.77137,-4.48659 5.20117,-7.97266 -0.57019,-3.48608 -3.80885,-5.54347 -7.25976,-4.61328 L 0,194.07227 Z"
         transform="matrix(-0.24056897,-0.06419124,0.03934844,-0.23814258,69.642089,68.554249)" />
      <path
         id="rect957"
         style="mix-blend-mode:normal;fill:#ffff00;fill-opacity:0.15250101;stroke:none;stroke-width:2.10626006;stroke-linecap:round;stroke-linejoin:bevel;stroke-opacity:0.44370201"
         d="M 0,119.86914 247.86133,53.058594 C 258.21406,50.268019 265.17153,39.602746 263.46094,29.144531 261.75035,18.686316 252.03828,12.51216 241.68555,15.302734 L 0,80.449219 Z"
         transform="matrix(-0.24056897,-0.06419124,0.03934844,-0.23814258,69.642089,68.554249)" />
    </g>
    <path
       id="path907"
       style="opacity:0.51730502;fill:#f3ae30;fill-opacity:1;stroke:none;stroke-width:1.6238513;stroke-linecap:round;stroke-linejoin:bevel;stroke-opacity:0.44370201"
       d="m -118.58859,-13.638984 21.171172,61.900002 h 14.640593 l -21.171695,-61.900002 z m 22.570805,0 21.171175,61.900002 h 20.130624 l -21.171176,-61.900002 z m 37.211402,0 16.412737,47.987895 v -47.987895 z m -69.294957,34.612085 v 27.287917 h 9.33295 z" />
  </g>
  <ellipse
     style="fill:#fbc000;stroke-width:1.00842023"
     cx="43.529472"
     cy="32.814796"
     rx="18.857111"
     ry="16.390635"
     id="ellipse1281" />
  <path
     inkscape:connector-curvature="0"
     style="fill:#717275;fill-opacity:1;stroke-width:1.00842023"
     d="m 32.132311,43.02214 c -7.252732,-7.459209 -2.175818,-15.7036 -2.175818,-15.7036 5.387743,-9.814752 19.789606,-11.188817 19.789606,-11.188817 4.973304,-0.588885 10.361047,3.827753 10.361047,3.827753 2.279428,1.275917 3.315537,0.883328 3.833586,0.196295 -0.31083,-0.981474 -0.31083,-1.96295 -0.31083,-1.96295 0,-0.490738 -0.103609,-1.17777 -0.207219,-1.668508 -0.207231,-2.74813 -3.004697,-5.005522 -6.527462,-5.005522 -0.41444,0 -0.93249,0 -1.346939,0.09815 -1.036099,-0.09815 -2.072208,-0.588884 -2.072208,-0.588884 -1.864987,-0.785182 -1.864987,0.588884 -1.864987,0.588884 0,0.294443 -0.10361,0.687033 -0.10361,1.079622 C 48.70999,11.222351 45.394454,10.339024 41.975309,10.339024 30.578153,10.437174 21.253214,19.663037 21.253214,30.95 c 0,11.385112 9.324939,20.610976 20.618485,20.610976 8.18523,0 15.127131,-4.71108 18.546287,-11.581406 -0.725279,0.687033 -1.657778,1.374066 -2.693877,1.96295 -12.122435,10.796226 -25.591798,1.079623 -25.591798,1.079623 z"
     id="path1283" />
  <path
     inkscape:connector-curvature="0"
     style="fill:#b6a6a1;stroke-width:1.00842023"
     d="m 64.458781,21.527836 v 0 c -0.10361,-0.196295 -0.20722,-0.490737 -0.31083,-0.687032 -0.103609,-0.196295 -0.103609,-0.392591 -0.207219,-0.588885 -0.518049,0.687032 -1.657768,1.079622 -3.833586,-0.196295 0,0 -5.387743,-4.318491 -10.361047,-3.827753 0,0 -14.505472,1.374065 -19.789606,11.188815 0,0 -5.076914,8.146245 2.175818,15.703601 0,0 12.640474,10.698079 25.695408,-1.079623 -2.797487,1.570361 -6.423852,2.649984 -10.464667,2.649984 -8.80689,0 -15.852401,-4.711081 -15.852401,-10.599931 0,-5.888851 7.149121,-10.59993 15.852401,-10.59993 3.315536,0 6.423853,0.687032 8.910509,1.864802 3.937195,1.57036 5.491353,0.883328 5.491353,0.883328 0.62166,-0.09815 1.243318,-0.39259 1.761379,-0.785181 0.725268,-0.588884 1.243318,-1.472212 1.243318,-2.453686 0,-0.588886 -0.103611,-1.079623 -0.31083,-1.472214 z"
     id="path1285" />
  <path
     inkscape:connector-curvature="0"
     style="fill:#141414;stroke-width:1.00842023"
     d="m 62.593793,20.840804 c -0.414439,0.294442 -0.518049,0.687032 -1.243318,0.687032 0,0 -0.932489,0.392591 0.207219,1.57036 0,0 0.93249,1.079623 1.761379,0.883328 0,0 1.243317,-0.39259 1.139708,-1.472213 -0.10361,-1.079622 -1.139708,-1.96295 -1.864988,-1.668507 z"
     id="path1287" />
  <g
     id="g1313"
     transform="matrix(1.036105,0,0,0.98147507,18.144896,7.3945952)">
    <path
       inkscape:connector-curvature="0"
       style="fill:#141414"
       d="m 13,33.1 c 0,0.9 0.5,1.6 1.4,1.9 l 11.2,3.4 c 2.6,0.8 4.3,0.7 6.2,-0.8 l 8.9,-8.1 c 0.6,-0.5 0.9,-1.3 0.9,-2.1 v -3.5 l -15.4,2.9 -13.2,3 z"
       id="path1289" />
    <path
       inkscape:connector-curvature="0"
       style="fill:#333134"
       d="m 13.5,30.6 13,3.7 c 1.8,0.5 3.7,0.1 5.1,-1.1 l 9.7,-8.4 c 0.5,-0.4 0.2,-1.2 -0.4,-1.3 L 26.3,21.7 c -0.2,0 -0.3,0 -0.5,0.1 l -12.5,7.5 c -0.5,0.3 -0.4,1.1 0.2,1.3 z"
       id="path1291" />
    <ellipse
       style="fill:#010001"
       transform="matrix(0.988,-0.1544,0.1544,0.988,-3.8156,4.5703)"
       cx="27.5"
       cy="26.9"
       rx="5.3000002"
       ry="3.0999999"
       id="ellipse1293" />
    <ellipse
       style="fill:#595959"
       transform="matrix(0.988,-0.1544,0.1544,0.988,-3.7735,4.5603)"
       cx="27.5"
       cy="26.6"
       rx="5"
       ry="2.8"
       id="ellipse1295" />
    <ellipse
       style="fill:#010001"
       transform="matrix(0.988,-0.1544,0.1544,0.988,-3.7277,4.5393)"
       cx="27.4"
       cy="26.299999"
       rx="4.5"
       ry="2.5"
       id="ellipse1297" />
    <ellipse
       style="fill:#595959"
       transform="matrix(0.988,-0.1544,0.1544,0.988,-3.6756,4.5225)"
       cx="27.299999"
       cy="25.9"
       rx="4"
       ry="2.0999999"
       id="ellipse1299" />
    <ellipse
       style="fill:#010001"
       transform="matrix(0.988,-0.1544,0.1544,0.988,-3.6303,4.5118)"
       cx="27.200001"
       cy="25.6"
       rx="3.4000001"
       ry="1.8"
       id="ellipse1301" />
    <ellipse
       style="fill:#595959"
       transform="matrix(0.988,-0.1544,0.1544,0.988,-3.5848,4.501)"
       cx="27.200001"
       cy="25.299999"
       rx="2.7"
       ry="1.5"
       id="ellipse1303" />
    <path
       inkscape:connector-curvature="0"
       style="fill:#181818"
       d="M 26.3,5.2 C 26.2,4.7 24.9,4.4 23.4,4.6 21.9,4.8 20.7,5.4 20.8,6 l 4.3,19.1 c 0.1,0.4 0.3,0.7 0.7,0.8 0.7,0.2 1.7,0.3 2.6,-0.3 0.3,-0.2 0.5,-0.6 0.4,-1 z"
       id="path1305" />
    <ellipse
       transform="matrix(0.9906,-0.1371,0.1371,0.9906,-0.5431,3.2815)"
       cx="23.6"
       cy="5.5999999"
       rx="2.8"
       ry="1.2"
       id="ellipse1307" />
    <ellipse
       style="fill:#ea5514"
       transform="matrix(0.9927,-0.1205,0.1205,0.9927,-2.7669,4.6084)"
       cx="36.700001"
       cy="25.200001"
       rx="2.4000001"
       ry="1.4"
       id="ellipse1309" />
    <ellipse
       style="fill:#f39800"
       transform="matrix(0.9927,-0.1205,0.1205,0.9927,-2.7357,4.6074)"
       cx="36.700001"
       cy="24.9"
       rx="2"
       ry="1.1"
       id="ellipse1311" />
  </g>
  <ellipse
     style="fill:#141414;stroke-width:1.00842023"
     cx="63.629902"
     cy="19.564884"
     rx="0.82888401"
     ry="0.98147511"
     id="ellipse1315" />
  <ellipse
     style="fill:#141414;stroke-width:1.00842023"
     cx="57.827702"
     cy="18.288967"
     id="ellipse1317"
     rx="1.4505471"
     ry="1.374065" />
  <ellipse
     style="fill:#ffffff;stroke-width:1.00842023"
     cx="57.30965"
     cy="17.896378"
     id="circle1319"
     rx="0.414442"
     ry="0.39259005" />
  <ellipse
     style="fill:#ffffff;stroke-width:1.00842023"
     cx="63.526299"
     cy="19.368589"
     id="circle1321"
     rx="0.31083152"
     ry="0.29444253" />
  <path
     inkscape:connector-curvature="0"
     style="fill:#141414;stroke-width:1.00842023"
     d="m 54.823013,12.203823 c 0,0 -1.036108,-0.196294 -1.761378,-0.490738 0,0 -1.036109,-0.490737 -1.139719,0.785179 0,0 0,1.079623 -0.207219,1.177772 0,0.09815 1.554158,0.196295 3.108316,-1.472213 z"
     id="path1323" />
  <path
     inkscape:connector-curvature="0"
     style="fill:#b6a6a1;stroke-width:1.00842023"
     d="m 31.510651,34.090717 c 0,0 0,0 0,0 h -3.315536 c 0,1.962949 0.828879,5.88885 3.937196,9.02957 0,0 12.640474,10.599932 25.695408,-1.17777 -2.797487,1.570361 -6.423852,2.649984 -10.464667,2.649984 -8.80689,0 -15.852401,-4.711081 -15.852401,-10.501784 z"
     id="path1325" />
  <path
     inkscape:connector-curvature="0"
     d="m 47.052223,23.392638 c 0,0 1.450548,1.374066 2.175816,2.355542 0,0 1.346939,1.57036 2.797487,0.687032 0,0 1.346938,-0.785181 -0.414439,-2.74813 -1.968597,-0.490739 -4.558864,-0.294444 -4.558864,-0.294444 z"
     id="path1327"
     style="stroke-width:1.00842023" />
  <path
     inkscape:connector-curvature="0"
     style="fill:#3f302b;stroke-width:1.00842023"
     d="m 36.069516,20.938951 c 0,0 -4.040815,0.490738 -5.284144,5.10367 0,0 3.315536,-0.196294 5.076924,1.374065 0,0 1.761378,2.159246 3.626366,1.079624 0,0 1.139718,-0.687033 -0.518049,-3.042574 0,0 -0.72528,-0.981475 -2.072219,-1.275917 -0.103609,0 -2.901096,-0.588886 -0.828878,-3.238868 z"
     id="path1329" />
</svg>
