<svg xmlns="http://www.w3.org/2000/svg" xmlns:xlink="http://www.w3.org/1999/xlink" width="324" height="234"><defs><linearGradient id="a"><stop offset="0" stop-color="#177af0"/><stop offset="1" stop-color="#029eeb"/></linearGradient><linearGradient id="n" x1="26.4" x2="486.3" y1="248" y2="248" gradientUnits="userSpaceOnUse"><stop offset="0" stop-color="#fff"/><stop offset="1" stop-color="#fff" stop-opacity="0"/></linearGradient><linearGradient id="o" x1="26.4" x2="486.3" y1="251.7" y2="251.7" gradientUnits="userSpaceOnUse"><stop offset="0" stop-color="#fff"/><stop offset="1" stop-color="#fff" stop-opacity="0"/></linearGradient><linearGradient id="p" x1="26.4" x2="486.3" y1="255.5" y2="255.5" gradientUnits="userSpaceOnUse"><stop offset="0" stop-color="#fff"/><stop offset="1" stop-color="#fff" stop-opacity="0"/></linearGradient><linearGradient id="q" x1="26.4" x2="486.3" y1="259.2" y2="259.2" gradientUnits="userSpaceOnUse"><stop offset="0" stop-color="#fff"/><stop offset="1" stop-color="#fff" stop-opacity="0"/></linearGradient><linearGradient id="r" x1="26.4" x2="486.3" y1="263" y2="263" gradientUnits="userSpaceOnUse"><stop offset="0" stop-color="#fff"/><stop offset="1" stop-color="#fff" stop-opacity="0"/></linearGradient><linearGradient id="s" x1="26.4" x2="486.3" y1="266.7" y2="266.7" gradientUnits="userSpaceOnUse"><stop offset="0" stop-color="#fff"/><stop offset="1" stop-color="#fff" stop-opacity="0"/></linearGradient><linearGradient id="t" x1="26.4" x2="486.3" y1="270.5" y2="270.5" gradientUnits="userSpaceOnUse"><stop offset="0" stop-color="#fff"/><stop offset="1" stop-color="#fff" stop-opacity="0"/></linearGradient><linearGradient id="u" x1="26.4" x2="486.3" y1="274.2" y2="274.2" gradientUnits="userSpaceOnUse"><stop offset="0" stop-color="#fff"/><stop offset="1" stop-color="#fff" stop-opacity="0"/></linearGradient><linearGradient id="v" x1="26.4" x2="486.3" y1="278" y2="278" gradientUnits="userSpaceOnUse"><stop offset="0" stop-color="#fff"/><stop offset="1" stop-color="#fff" stop-opacity="0"/></linearGradient><linearGradient id="w" x1="26.4" x2="486.3" y1="281.7" y2="281.7" gradientUnits="userSpaceOnUse"><stop offset="0" stop-color="#fff"/><stop offset="1" stop-color="#fff" stop-opacity="0"/></linearGradient><linearGradient id="x" x1="26.4" x2="486.3" y1="285.4" y2="285.4" gradientUnits="userSpaceOnUse"><stop offset="0" stop-color="#fff"/><stop offset="1" stop-color="#fff" stop-opacity="0"/></linearGradient><linearGradient id="y" x1="26.4" x2="486.3" y1="289.2" y2="289.2" gradientUnits="userSpaceOnUse"><stop offset="0" stop-color="#fff"/><stop offset="1" stop-color="#fff" stop-opacity="0"/></linearGradient><linearGradient id="z" x1="26.4" x2="486.3" y1="292.9" y2="292.9" gradientUnits="userSpaceOnUse"><stop offset="0" stop-color="#fff"/><stop offset="1" stop-color="#fff" stop-opacity="0"/></linearGradient><linearGradient id="A" x1="26.4" x2="486.3" y1="296.7" y2="296.7" gradientUnits="userSpaceOnUse"><stop offset="0" stop-color="#fff"/><stop offset="1" stop-color="#fff" stop-opacity="0"/></linearGradient><linearGradient id="B" x1="26.4" x2="486.3" y1="300.4" y2="300.4" gradientUnits="userSpaceOnUse"><stop offset="0" stop-color="#fff"/><stop offset="1" stop-color="#fff" stop-opacity="0"/></linearGradient><linearGradient id="C" x1="26.4" x2="486.3" y1="304.2" y2="304.2" gradientUnits="userSpaceOnUse"><stop offset="0" stop-color="#fff"/><stop offset="1" stop-color="#fff" stop-opacity="0"/></linearGradient><linearGradient id="D" x1="26.4" x2="486.3" y1="307.9" y2="307.9" gradientUnits="userSpaceOnUse"><stop offset="0" stop-color="#fff"/><stop offset="1" stop-color="#fff" stop-opacity="0"/></linearGradient><linearGradient id="E" x1="26.4" x2="486.3" y1="311.6" y2="311.6" gradientUnits="userSpaceOnUse"><stop offset="0" stop-color="#fff"/><stop offset="1" stop-color="#fff" stop-opacity="0"/></linearGradient><linearGradient id="F" x1="26.4" x2="486.3" y1="315.4" y2="315.4" gradientUnits="userSpaceOnUse"><stop offset="0" stop-color="#fff"/><stop offset="1" stop-color="#fff" stop-opacity="0"/></linearGradient><linearGradient id="G" x1="26.4" x2="486.3" y1="319.1" y2="319.1" gradientUnits="userSpaceOnUse"><stop offset="0" stop-color="#fff"/><stop offset="1" stop-color="#fff" stop-opacity="0"/></linearGradient><linearGradient id="H" x1="26.4" x2="486.3" y1="322.9" y2="322.9" gradientUnits="userSpaceOnUse"><stop offset="0" stop-color="#fff"/><stop offset="1" stop-color="#fff" stop-opacity="0"/></linearGradient><linearGradient id="I" x1="26.4" x2="486.3" y1="326" y2="326" gradientUnits="userSpaceOnUse"><stop offset="0" stop-color="#fff"/><stop offset="1" stop-color="#fff" stop-opacity="0"/></linearGradient><linearGradient id="J" x1="26.4" x2="486.3" y1="328.4" y2="328.4" gradientUnits="userSpaceOnUse"><stop offset="0" stop-color="#fff"/><stop offset="1" stop-color="#fff" stop-opacity="0"/></linearGradient><linearGradient id="K" x1="26.4" x2="486.3" y1="330.8" y2="330.8" gradientUnits="userSpaceOnUse"><stop offset="0" stop-color="#fff"/><stop offset="1" stop-color="#fff" stop-opacity="0"/></linearGradient><linearGradient id="L" x1="26.4" x2="486.3" y1="333.2" y2="333.2" gradientUnits="userSpaceOnUse"><stop offset="0" stop-color="#fff"/><stop offset="1" stop-color="#fff" stop-opacity="0"/></linearGradient><linearGradient id="M" x1="26.4" x2="486.3" y1="335.6" y2="335.6" gradientUnits="userSpaceOnUse"><stop offset="0" stop-color="#fff"/><stop offset="1" stop-color="#fff" stop-opacity="0"/></linearGradient><linearGradient id="N" x1="26.4" x2="486.3" y1="338" y2="338" gradientUnits="userSpaceOnUse"><stop offset="0" stop-color="#fff"/><stop offset="1" stop-color="#fff" stop-opacity="0"/></linearGradient><linearGradient id="O" x1="26.4" x2="486.3" y1="340.4" y2="340.4" gradientUnits="userSpaceOnUse"><stop offset="0" stop-color="#fff"/><stop offset="1" stop-color="#fff" stop-opacity="0"/></linearGradient><linearGradient id="P" x1="26.4" x2="486.3" y1="342.7" y2="342.7" gradientUnits="userSpaceOnUse"><stop offset="0" stop-color="#fff"/><stop offset="1" stop-color="#fff" stop-opacity="0"/></linearGradient><linearGradient id="Q" x1="26.4" x2="486.3" y1="345.1" y2="345.1" gradientUnits="userSpaceOnUse"><stop offset="0" stop-color="#fff"/><stop offset="1" stop-color="#fff" stop-opacity="0"/></linearGradient><linearGradient id="R" x1="26.4" x2="486.3" y1="347.5" y2="347.5" gradientUnits="userSpaceOnUse"><stop offset="0" stop-color="#fff"/><stop offset="1" stop-color="#fff" stop-opacity="0"/></linearGradient><linearGradient id="S" x1="26.4" x2="486.3" y1="349.8" y2="349.8" gradientUnits="userSpaceOnUse"><stop offset="0" stop-color="#fff"/><stop offset="1" stop-color="#fff" stop-opacity="0"/></linearGradient><linearGradient id="T" x1="26.4" x2="486.3" y1="352.2" y2="352.2" gradientUnits="userSpaceOnUse"><stop offset="0" stop-color="#fff"/><stop offset="1" stop-color="#fff" stop-opacity="0"/></linearGradient><linearGradient id="U" x1="26.4" x2="486.3" y1="354.6" y2="354.6" gradientUnits="userSpaceOnUse"><stop offset="0" stop-color="#fff"/><stop offset="1" stop-color="#fff" stop-opacity="0"/></linearGradient><linearGradient id="V" x1="26.4" x2="486.3" y1="356.9" y2="356.9" gradientUnits="userSpaceOnUse"><stop offset="0" stop-color="#fff"/><stop offset="1" stop-color="#fff" stop-opacity="0"/></linearGradient><linearGradient id="W" x1="26.4" x2="486.3" y1="359.2" y2="359.2" gradientUnits="userSpaceOnUse"><stop offset="0" stop-color="#fff"/><stop offset="1" stop-color="#fff" stop-opacity="0"/></linearGradient><linearGradient id="X" x1="26.4" x2="486.3" y1="361.6" y2="361.6" gradientUnits="userSpaceOnUse"><stop offset="0" stop-color="#fff"/><stop offset="1" stop-color="#fff" stop-opacity="0"/></linearGradient><linearGradient id="Y" x1="26.4" x2="486.3" y1="363.9" y2="363.9" gradientUnits="userSpaceOnUse"><stop offset="0" stop-color="#fff"/><stop offset="1" stop-color="#fff" stop-opacity="0"/></linearGradient><linearGradient id="Z" x1="26.4" x2="486.3" y1="366.2" y2="366.2" gradientUnits="userSpaceOnUse"><stop offset="0" stop-color="#fff"/><stop offset="1" stop-color="#fff" stop-opacity="0"/></linearGradient><linearGradient id="aa" x1="26.4" x2="486.3" y1="368.6" y2="368.6" gradientUnits="userSpaceOnUse"><stop offset="0" stop-color="#fff"/><stop offset="1" stop-color="#fff" stop-opacity="0"/></linearGradient><linearGradient id="ab" x1="26.4" x2="486.3" y1="371.2" y2="371.2" gradientUnits="userSpaceOnUse"><stop offset="0" stop-color="#fff"/><stop offset="1" stop-color="#fff" stop-opacity="0"/></linearGradient><linearGradient id="ac" x1="26.4" x2="486.3" y1="373.1" y2="373.1" gradientUnits="userSpaceOnUse"><stop offset="0" stop-color="#fff"/><stop offset="1" stop-color="#fff" stop-opacity="0"/></linearGradient><linearGradient xlink:href="#a" id="b" x1="0" x2="324" y1="0" y2="234" gradientUnits="userSpaceOnUse"/><radialGradient id="c" cx="106.3" cy="272.5" r="45.7" gradientTransform="matrix(1 0 0 -1 0 512)" gradientUnits="userSpaceOnUse"><stop offset="0" stop-color="#fff"/><stop offset="1" stop-color="#fff" stop-opacity="0"/></radialGradient><radialGradient id="d" cx="138.6" cy="196.4" r="42" gradientTransform="matrix(1 0 0 -1 0 512)" gradientUnits="userSpaceOnUse"><stop offset="0" stop-color="#fff"/><stop offset="1" stop-color="#fff" stop-opacity="0"/></radialGradient><radialGradient id="e" cx="280" cy="256" r="32.5" gradientTransform="matrix(1 0 0 -1 0 512)" gradientUnits="userSpaceOnUse"><stop offset="0" stop-color="#fff"/><stop offset="1" stop-color="#fff" stop-opacity="0"/></radialGradient><radialGradient id="f" cx="145" cy="229" r="24" gradientTransform="matrix(1 0 0 -1 0 512)" gradientUnits="userSpaceOnUse"><stop offset="0" stop-color="#fff"/><stop offset="1" stop-color="#fff" stop-opacity="0"/></radialGradient><radialGradient id="g" cx="447" cy="127.4" r="21" gradientTransform="matrix(1 0 0 -1 0 512)" gradientUnits="userSpaceOnUse"><stop offset="0" stop-color="#fff"/><stop offset="1" stop-color="#fff" stop-opacity="0"/></radialGradient><radialGradient id="h" cx="100.25" cy="143" r="22.75" gradientTransform="matrix(1 0 0 -1 0 512)" gradientUnits="userSpaceOnUse"><stop offset="0" stop-color="#fff"/><stop offset="1" stop-color="#fff" stop-opacity="0"/></radialGradient><radialGradient id="i" cx="205.2" cy="128.2" r="30.6" gradientTransform="matrix(1 0 0 -1 0 512)" gradientUnits="userSpaceOnUse"><stop offset="0" stop-color="#fff"/><stop offset="1" stop-color="#fff" stop-opacity="0"/></radialGradient><radialGradient id="j" cx="368.8" cy="141.8" r="44.8" gradientTransform="matrix(1 0 0 -1 0 512)" gradientUnits="userSpaceOnUse"><stop offset="0" stop-color="#fff"/><stop offset="1" stop-color="#fff" stop-opacity="0"/></radialGradient><radialGradient id="k" cx="414.4" cy="246.4" r="53.6" gradientTransform="matrix(1 0 0 -1 0 512)" gradientUnits="userSpaceOnUse"><stop offset="0" stop-color="#fff"/><stop offset="1" stop-color="#fff" stop-opacity="0"/></radialGradient><radialGradient id="l" cx="78.64" cy="192" r="18" gradientTransform="matrix(1 0 0 -1 0 512)" gradientUnits="userSpaceOnUse"><stop offset="0" stop-color="#fff"/><stop offset="1" stop-color="#fff" stop-opacity="0"/></radialGradient><filter id="m" width="1.15" height="1.17" x="-.07" y="-.08" color-interpolation-filters="sRGB"><feFlood flood-color="#000" flood-opacity=".5" result="flood"/><feGaussianBlur in="SourceGraphic" result="blur" stdDeviation="5"/><feOffset in="blur" result="offset"/><feComposite in="flood" in2="offset" operator="in" result="comp1"/><feComposite in="SourceGraphic" in2="comp1" result="comp2"/></filter></defs><path fill="url(#b)" d="M0 0h324v234H0Z"/><g opacity=".28" transform="matrix(.7795 0 0 1.04496 -43.9 -201.77)"><circle cx="106.3" cy="239.5" r="45.7" fill="url(#c)"/><circle cx="138.6" cy="315.6" r="42" fill="url(#d)"/><circle cx="280" cy="256" r="32.5" fill="url(#e)"/><circle cx="145" cy="283" r="24" fill="url(#f)"/><circle cx="447" cy="384.6" r="21" fill="url(#g)"/><circle cx="100.2" cy="369" r="22.8" fill="url(#h)"/><circle cx="205.2" cy="383.8" r="30.6" fill="url(#i)"/><circle cx="368.8" cy="370.2" r="44.8" fill="url(#j)"/><circle cx="414.4" cy="265.6" r="53.6" fill="url(#k)"/><circle cx="78.6" cy="320" r="18" fill="url(#l)"/></g><g filter="url(#m)"><path fill="#00b3dc" fill-rule="evenodd" d="M222.3 41.8c2.5 0 4.6 2 4.6 4.5l1 126a4 4 0 0 1-4.1 4.1h-123a4 4 0 0 1-4.2-4l1-120.2c0-2.4 2-4.5 4.6-4.5h77c.8 0 2-.4 2.6-1l4-3.9c.6-.6 1.8-1 2.6-1zm0 0"/><path fill="#fff" fill-rule="evenodd" d="M88.4 176.4V61.2c0-2.5 2-4.5 4.6-4.5h138.5c2.5 0 4.6 2 4.6 4.5v115.2a4 4 0 0 1-4.1 4H92.5a4 4 0 0 1-4.1-4zm0 0"/><path fill="#ebf5f5" fill-rule="evenodd" d="M88.4 176.4V64.2c0-2.5 2-4.5 4.6-4.5h138.5c2.5 0 4.6 2 4.6 4.5v112.2a4 4 0 0 1-4.1 4H92.5a4 4 0 0 1-4.1-4zm0 0"/><path fill="#00b3dc" fill-rule="evenodd" d="M83.8 185.4c-2.6 0-4.6-2-4.6-4.5V70.2c0-2.5 2-4.5 4.6-4.5h157c2.5 0 4.5 2 4.5 4.5v110.7c0 2.5-2 4.5-4.6 4.5zm0 0"/><path fill="#2b2b2b" d="m95.4 169.8-4.3 13.3h138.8l-4.3-13.3m-130.2 0"/><path fill="#f8f8f8" d="M138.3 161.2h11.4c2.5 0 4.6 1.5 4.6 3.5v8.9c0 2-2 3.5-4.6 3.5h-11.4c-2.5 0-4.6-1.6-4.6-3.5v-8.9c0-2 2-3.5 4.6-3.5m31.6-.1h11.4c2.6 0 4.6 1.6 4.6 3.5v8.9c0 2-2 3.5-4.6 3.5H170c-2.5 0-4.6-1.6-4.6-3.5v-8.9c0-2 2-3.5 4.6-3.5m31.8.5h11.5c2.5 0 4.5 1.5 4.5 3.5v8.9c0 2-2 3.5-4.5 3.5h-11.5c-2.5 0-4.5-1.6-4.5-3.5v-9c0-1.9 2-3.4 4.5-3.4m0 0"/><path fill="#fff" fill-rule="evenodd" d="M202.6 115.4c0 20.6-17.7 37.3-39.6 37.3a38.5 38.5 0 0 1-39.5-37.3A38.5 38.5 0 0 1 163 78.1c21.9 0 39.6 16.7 39.6 37.3zm-25.8-31.7s-11.9 9.5-16.3 15.1c0 0-7.2 8.4-3.5 15.9 0 0 2.1 5 6.7.1 0 0 5.8-5.3 5.3-17 0 0-1.6-.1-3.9 1.5-.2.1.4 6.7-5.6 12.9 0 0-.3.4-.7.4a1.2 1.2 0 0 1-1.1-.3l-.9-1c-.2-.2-.3-.8.3-1.2 0 0 4.2-2.6 4.4-8.4 0 0 0-.9.8-1.5 0 0 6.3-5.7 18-7.1.2 0 6.7-.4 10.2-.3 0 0 4.9 5 7.4 13 3.8 11 .8 32-20.4 41.2a38.8 38.8 0 0 1-21.4 2.1c0 .1 6.9-1.5 13.8-5.8 10-6.3 20.7-19.4 12.8-35.5a27.4 27.4 0 0 0-8.3-9.4s4.7 7.2 5 14.5c.5 8.1-5.7 19.8-27.8 20a85 85 0 0 1-21.4-2.7 33.4 33.4 0 0 1 4-35.8c.1 0 2.6 12.3 9 21 6 7.8 12.9 10.3 18 10a14 14 0 0 0 12.9-10.3c2.3-7 0-15.2-.5-17 0 0-.4-.7-1.6-.5 0 0 .8 7.8-1 14-1.4 5-5 8.3-8 9.1-2.8.6-6.7-.3-9.3-4.9a18.8 18.8 0 0 1-2.4-10.3c0-.2-.2-12 8.1-24.4 0 0 11-.8 17.4 2.6zm0 0"/><path fill="#f8f8f8" d="M108 161.1h11.5c2.5 0 4.5 1.6 4.5 3.5v9c0 1.9-2 3.5-4.5 3.5H108c-2.5 0-4.5-1.6-4.5-3.6v-8.9c0-2 2-3.5 4.5-3.5m0 0"/><path fill="none" stroke="url(#n)" stroke-linecap="round" stroke-linejoin="round" stroke-miterlimit="10" d="M26.9 378c0-137 188-260 109.1-109-34.9 66.8-81.9-87.3 15-97.3 174.4-18 268 208.7 78 105.3-24.4-13.2 47.9-55.9 41.3 32-7.1 94.9 30.5-169 124.2-96 32.3 25.3 62.1-52.9 91.3-95" transform="matrix(.24 0 0 .28 72.7 31.5)"/><path fill="none" stroke="url(#o)" stroke-linecap="round" stroke-linejoin="round" stroke-miterlimit="10" d="M26.9 379c0-133.6 182.6-255.6 108-107.3-32 63.6-78.8-87.2 16-96.4 170.9-16.6 258.7 212.6 78.9 104.4-21.2-12.8 50.3-55.9 42.8 30-8.1 93.1 28.2-160.6 122-92.4 32.7 23.7 62.7-51.8 91.1-93" transform="matrix(.24 0 0 .28 72.7 31.5)"/><path fill="none" stroke="url(#p)" stroke-linecap="round" stroke-linejoin="round" stroke-miterlimit="10" d="M26.9 380.3c0-130.3 177-251.3 107-105.7-29.1 60.6-75.7-87 17-95.4 167.4-15.2 248.2 217.7 79.8 103.5-18.3-12.4 52.6-55.9 44.2 28-9.1 91.2 26-152.2 119.9-89 33.3 22.4 63.3-50.7 91-90.8" transform="matrix(.24 0 0 .28 72.7 31.5)"/><path fill="none" stroke="url(#q)" stroke-linecap="round" stroke-linejoin="round" stroke-miterlimit="10" d="M26.9 381.4c0-127 171.2-247 106-104.1-26.4 57.5-72.7-86.8 17.9-94.5 164-13.8 235.9 223.9 80.7 102.5-15.5-12.1 54.9-55.9 45.6 25.9-10.2 89.4 24.1-143.8 117.7-85.6 34 21.1 63.9-49.6 90.9-88.7" transform="matrix(.24 0 0 .28 72.7 31.5)"/><path fill="none" stroke="url(#r)" stroke-linecap="round" stroke-linejoin="round" stroke-miterlimit="10" d="M26.9 382.6c0-123.6 165.2-242.8 105-102.5-23.6 54.6-69.5-86.7 18.9-93.5 160.5-12.4 247 196.2 81.6 101.6-9.9-14.6 57.2-55.9 47 23.9-11.2 87.6 22.3-135.5 115.6-82.2 34.7 19.8 64.5-48.5 90.7-86.5" transform="matrix(.24 0 0 .28 72.7 31.5)"/><path fill="none" stroke="url(#s)" stroke-linecap="round" stroke-linejoin="round" stroke-miterlimit="10" d="M26.9 383.7c0-120.3 158.9-238.6 103.8-100.8-20.7 51.7-66.3-86.5 20-92.5 157-11 241.9 193.1 82.6 100.7-6.3-15 59.5-55.9 48.4 21.9-12.2 85.8 20.8-127.4 113.4-78.8 35.6 18.7 65-47.4 90.6-84.4" transform="matrix(.24 0 0 .28 72.7 31.5)"/><path fill="none" stroke="url(#t)" stroke-linecap="round" stroke-linejoin="round" stroke-miterlimit="10" d="M26.9 384.9c0-117 152.4-234.3 102.8-99.2-18 48.9-63.2-86.3 21-91.6 153.6-9.6 236.7 190 83.5 99.7-2.7-15.4 61.8-55.8 49.8 19.9-13.3 84 29.8-136.4 111.3-75.4 39.4 10.1 65.6-46.2 90.5-82.2" transform="matrix(.24 0 0 .28 72.7 31.5)"/><path fill="none" stroke="url(#u)" stroke-linecap="round" stroke-linejoin="round" stroke-miterlimit="10" d="M26.9 386c0-113.6 145.5-230.1 101.7-97.6-15.3 46.3-60-86.1 22-90.6 150.2-8.2 231.4 186.9 84.4 98.8.9-15.7 64.1-55.8 51.2 17.8-14.4 82.3 29.7-131 109.1-72 40.6 7.6 66.2-45.1 90.4-80.1" transform="matrix(.24 0 0 .28 72.7 31.5)"/><path fill="none" stroke="url(#v)" stroke-linecap="round" stroke-linejoin="round" stroke-miterlimit="10" d="M26.9 387.2c0-110.3 161.6-216.5 100.7-95.9-4.3 45.4-56.9-85.9 23-89.7 146.7-6.8 226.2 183.8 85.3 97.9 4.5-16.1 66.4-55.8 52.6 15.8-15.4 80.5 29.6-125.5 107-68.6 41.8 5.1 66.8-44 90.2-77.9" transform="matrix(.24 0 0 .28 72.7 31.5)"/><path fill="none" stroke="url(#w)" stroke-linecap="round" stroke-linejoin="round" stroke-miterlimit="10" d="M26.9 388.3c0-106.9 158.3-211.1 99.6-94.3-.5 42.7-53.7-85.8 24-88.7 143.3-5.4 221 180.7 86.3 96.9 8-16.4 68.6-55.7 54.1 13.8-16.5 78.8 29.5-120.1 104.8-65.2 43 2.5 67.4-42.9 90.1-75.8" transform="matrix(.24 0 0 .28 72.7 31.5)"/><path fill="none" stroke="url(#x)" stroke-linecap="round" stroke-linejoin="round" stroke-miterlimit="10" d="M26.9 389.5c0-103.6 155-205.7 98.6-92.7 3.3 40-50.6-85.6 25-87.7 139.9-4 215.8 177.5 87.2 96 11.7-16.8 70.8-55.6 55.5 11.8-17.6 77.1 29.4-114.6 102.7-61.7 44.1 0 67.9-41.8 90-73.6" transform="matrix(.24 0 0 .28 72.7 31.5)"/><path fill="none" stroke="url(#y)" stroke-linecap="round" stroke-linejoin="round" stroke-miterlimit="10" d="M26.9 390.6c0-100.2 151.7-200.2 97.5-91 7.2 37.3-47.4-89.3 26-86.8 136.4 4.7 210.6 174.4 88.1 95 15.3-17.1 73-55.4 57 9.8-18.8 75.4 29.2-109.2 100.5-58.3 45.3-2.5 68.5-40.6 89.8-71.5" transform="matrix(.24 0 0 .28 72.7 31.5)"/><path fill="none" stroke="url(#z)" stroke-linecap="round" stroke-linejoin="round" stroke-miterlimit="10" d="M26.9 391.8c0-97 148.4-194.8 96.5-89.4 11 34.6-44.2-89.5 27-85.8 133 6.8 205.4 171.3 89.1 94.1 18.9-17.5 75.2-55.5 58.3 7.7-19.8 73.8 29.1-103.8 98.4-54.9 46.5-5 69-39.5 89.7-69.3" transform="matrix(.24 0 0 .28 72.7 31.5)"/><path fill="none" stroke="url(#A)" stroke-linecap="round" stroke-linejoin="round" stroke-miterlimit="10" d="M26.9 393c0-93.7 145-189.5 95.4-87.9 14.8 32-41-89.6 28-84.9 129.3 8.8 200.1 168.2 90 93.2 22.5-17.9 77.4-55.4 59.7 5.7-21 72.1 29-98.3 96.2-51.5 47.7-7.5 69.7-38.4 89.6-67.2" transform="matrix(.24 0 0 .28 72.7 31.5)"/><path fill="none" stroke="url(#B)" stroke-linecap="round" stroke-linejoin="round" stroke-miterlimit="10" d="M26.9 394c0-90.2 141.8-183.9 94.4-86.1 18.6 29.3-37.7-89.7 29-83.9 125.8 10.9 195 165.1 90.9 92.2 26.2-18.2 79.5-55.3 61 3.7-22 70.5 29-92.9 94.2-48.1 49-10 70.3-37.3 89.5-65" transform="matrix(.24 0 0 .28 72.7 31.5)"/><path fill="none" stroke="url(#C)" stroke-linecap="round" stroke-linejoin="round" stroke-miterlimit="10" d="M26.9 395.2c0-86.9 138.5-178.5 93.3-84.5 22.5 26.6-34.5-89.7 30-82.9 122.3 12.9 189.7 162 91.8 91.3 29.8-18.6 81.7-55 62.5 1.6-23.3 68.9 28.8-87.5 91.9-44.7 50.1-12.6 70.9-36.1 89.3-63" transform="matrix(.24 0 0 .28 72.7 31.5)"/><path fill="none" stroke="url(#D)" stroke-linecap="round" stroke-linejoin="round" stroke-miterlimit="10" d="M26.9 396.3c0-83.5 135.2-173.1 92.3-82.9 26.3 23.9-31.2-89.8 31-82 118.7 14.9 184.5 158.9 92.8 90.4 33.4-18.9 83.7-55 64-.4-24.6 67.3 28.6-82 89.7-41.3 51.3-15.1 71.4-35 89.2-60.7" transform="matrix(.24 0 0 .28 72.7 31.5)"/><path fill="none" stroke="url(#E)" stroke-linecap="round" stroke-linejoin="round" stroke-miterlimit="10" d="M26.9 397.5c0-80.2 131.9-167.6 91.2-81.2 30.1 21.3-28.4-84.1 32-81 116.2 6 179.3 155.7 93.7 89.4 37-19.3 85.8-54.9 65.3-2.4-25.7 65.8 28.6-76.6 87.6-38 52.5-17.5 72-33.8 89.1-58.5" transform="matrix(.24 0 0 .28 72.7 31.5)"/><path fill="none" stroke="url(#F)" stroke-linecap="round" stroke-linejoin="round" stroke-miterlimit="10" d="M26.9 398.6c0-76.9 128.6-162.2 90.2-79.6 33.9 18.6-25.3-84 33-80.1 112.8 7.4 174 152.6 94.6 88.5 40.6-19.7 87.8-54.8 66.7-4.4-27 64.2 28.4-71.2 85.5-34.5 53.6-20.1 72.6-32.8 88.9-56.4" transform="matrix(.24 0 0 .28 72.7 31.5)"/><path fill="none" stroke="url(#G)" stroke-linecap="round" stroke-linejoin="round" stroke-miterlimit="10" d="M26.9 399.8c0-73.5 125.3-156.8 89.1-78 37.8 15.9-22.1-83.6 34-79 109.5 8.7 168.8 149.4 95.5 87.5 44.2-20 89.8-54.6 68.1-6.5-28.3 62.7 28.3-65.7 83.3-31 54.8-22.6 73.2-31.7 88.8-54.3" transform="matrix(.24 0 0 .28 72.7 31.5)"/><path fill="none" stroke="url(#H)" stroke-linecap="round" stroke-linejoin="round" stroke-miterlimit="10" d="M26.9 400.9c0-70.2 122-151.3 88.1-76.3 41.6 13.2-18.9-83.4 35-78 106.2 10.2 163.6 146.3 96.5 86.5 47.8-20.4 91.7-54.5 69.5-8.5-29.6 61.1 28.2-60.3 81.2-27.6 56-25.1 73.8-30.5 88.7-52.1" transform="matrix(.24 0 0 .28 72.7 31.5)"/><path fill="none" stroke="url(#I)" stroke-linecap="round" stroke-linejoin="round" stroke-miterlimit="10" d="M26.9 402.1c0-66.8 118.7-145.9 87-74.7 45.4 10.5-15.7-83 36-77.2 102.9 11.8 158.4 143.3 97.4 85.7 51.4-20.7 93.7-54.4 70.9-10.5-30.9 59.6 28.1-54.9 79-24.2 57.2-27.7 74.3-29.4 88.5-50" transform="matrix(.24 0 0 .28 72.7 31.5)"/><path fill="none" stroke="url(#J)" stroke-linecap="round" stroke-linejoin="round" stroke-miterlimit="10" d="M26.9 403.2c0-63.5 115.4-140.5 86-73 49.3 7.9-12.5-82.8 37-76.2 99.7 13.3 153.2 140.2 98.3 84.8 55-21.1 95.5-54.3 72.3-12.5-32.3 58 28-49.4 76.9-20.8 58.4-30.2 74.9-28.3 88.4-47.8" transform="matrix(.24 0 0 .28 72.7 31.5)"/><path fill="none" stroke="url(#K)" stroke-linecap="round" stroke-linejoin="round" stroke-miterlimit="10" d="M26.9 404.4c0-60.1 112.1-135 84.9-71.4 53 5.2-9.3-82.6 38-75.3 96.4 14.9 147.9 137.1 99.3 83.8 58.6-21.4 97.3-54.2 73.7-14.6-33.8 56.6 28-44 74.7-17.4 59.6-32.7 75.5-27.2 88.3-45.7" transform="matrix(.24 0 0 .28 72.7 31.5)"/><path fill="none" stroke="url(#L)" stroke-linecap="round" stroke-linejoin="round" stroke-miterlimit="10" d="M26.9 405.5c0-56.8 108.8-129.6 83.9-69.8 56.9 2.5-6.1-82.2 39-74.3 93.2 16.4 142.7 134 100.2 82.9 62.2-21.8 99-54.1 75.1-16.6-35.3 55.1 27.7-38.5 72.6-14 60.8-35.2 76.1-26.1 88.2-43.5" transform="matrix(.24 0 0 .28 72.7 31.5)"/><path fill="none" stroke="url(#M)" stroke-linecap="round" stroke-linejoin="round" stroke-miterlimit="10" d="M26.9 406.7c0-53.5 105.5-124.2 82.9-68.1 60.7-.2-2.8-81.9 40-73.4 90 18 137.5 130.8 101 82 65.9-22.2 101-54 76.6-18.6-36.9 53.5 27.6-33.1 70.4-10.6 62-37.7 76.7-24.9 88-41.4" transform="matrix(.24 0 0 .28 72.7 31.5)"/><path fill="none" stroke="url(#N)" stroke-linecap="round" stroke-linejoin="round" stroke-miterlimit="10" d="M26.9 407.8c0-50.1 102.2-118.8 81.8-66.5 64.6-2.8.4-81.6 41-72.4 86.7 19.6 132.3 127.7 102 81 69.4-22.5 102.6-53.9 78-20.6-38.6 52 27.4-27.7 68.2-7.2 63.1-40.2 77.2-23.8 87.9-39.2" transform="matrix(.24 0 0 .28 72.7 31.5)"/><path fill="none" stroke="url(#O)" stroke-linecap="round" stroke-linejoin="round" stroke-miterlimit="10" d="M26.9 409c0-46.8 99-113.3 80.8-64.9 68.4-5.5 3.6-81.2 42-71.4 83.6 21.2 127.1 124.6 103 80.1 73-22.9 104.2-53.9 79.3-22.7-40.2 50.4 27.4-22.2 66.1-3.8 64.3-42.8 77.8-22.7 87.8-37.1" transform="matrix(.24 0 0 .28 72.7 31.5)"/><path fill="none" stroke="url(#P)" stroke-linecap="round" stroke-linejoin="round" stroke-miterlimit="10" d="M26.9 410.1c0-43.4 95.6-107.9 79.7-63.2 72.2-8.2 6.8-80.8 43-70.5 80.4 22.9 121.8 121.5 103.9 79.2 76.6-23.2 105.8-53.9 80.7-24.7-41.9 48.7 27.3-16.8 64-.3 65.5-45.3 78.4-21.6 87.6-35" transform="matrix(.24 0 0 .28 72.7 31.5)"/><path fill="none" stroke="url(#Q)" stroke-linecap="round" stroke-linejoin="round" stroke-miterlimit="10" d="M26.9 411.2c0-40.1 92.3-102.5 78.7-61.6 76-10.9 10.1-80.4 44-69.5 77.2 24.7 116.6 118.4 104.8 78.2 80.2-23.6 107.4-53.9 82-26.7-43.6 47 27.3-11.4 61.9 3.1 66.7-47.8 79-20.5 87.5-32.8" transform="matrix(.24 0 0 .28 72.7 31.5)"/><path fill="none" stroke="url(#R)" stroke-linecap="round" stroke-linejoin="round" stroke-miterlimit="10" d="M26.9 412.4c0-36.8 89-97 77.6-60 79.9-13.5 13.3-79.9 45-68.6 74 26.5 111.4 115.3 105.7 77.3 83.8-24 108.9-54 83.5-28.7-45.6 45.3 27-5.9 59.7 6.5 67.9-50.3 79.6-19.3 87.4-30.6" transform="matrix(.24 0 0 .28 72.7 31.5)"/><path fill="none" stroke="url(#S)" stroke-linecap="round" stroke-linejoin="round" stroke-miterlimit="10" d="M26.9 413.5c0-33.4 85.7-91.6 76.6-58.3 83.7-16.2 16.5-79.4 46-67.6C220.3 316 255.6 399.7 256.1 364c87.4-24.3 110.4-54.1 84.9-30.8-47.5 43.4 26.9-.5 57.5 9.9 69.1-52.8 80.2-18.2 87.3-28.5" transform="matrix(.24 0 0 .28 72.7 31.5)"/><path fill="none" stroke="url(#T)" stroke-linecap="round" stroke-linejoin="round" stroke-miterlimit="10" d="M26.9 414.7c0-30 82.4-86.2 75.5-56.7 87.5-18.9 19.7-78.8 47-66.6 67.7 30.3 101 109 107.6 75.4 91-24.7 111.9-54.2 86.3-32.8-49.5 41.4 26.8 4.9 55.3 13.3 70.3-55.3 80.7-17.1 87.1-26.3" transform="matrix(.24 0 0 .28 72.7 31.5)"/><path fill="none" stroke="url(#U)" stroke-linecap="round" stroke-linejoin="round" stroke-miterlimit="10" d="M26.9 415.8c0-26.7 79-80.7 74.5-55.1 91.3-21.6 22.9-78.3 48-65.7 64.4 32.4 95.7 105.9 108.5 74.5 94.6-25 113.4-54.4 87.7-34.8-51.5 39.4 26.7 10.4 53.2 16.7 71.5-57.9 81.3-16 87-24.2" transform="matrix(.24 0 0 .28 72.7 31.5)"/><path fill="none" stroke="url(#V)" stroke-linecap="round" stroke-linejoin="round" stroke-miterlimit="10" d="M26.9 417c0-23.4 75.8-75.3 73.4-53.4 95.2-24.3 26.1-77.6 49-64.7 61.1 34.6 90.5 102.8 109.5 73.5 98.2-25.4 114.9-54.7 89.1-36.8-53.6 37.2 26.6 15.8 51 20.1 72.6-60.4 81.9-14.8 86.9-22" transform="matrix(.24 0 0 .28 72.7 31.5)"/><path fill="none" stroke="url(#W)" stroke-linecap="round" stroke-linejoin="round" stroke-miterlimit="10" d="M26.9 418.1c0-20 72.5-69.9 72.4-51.8 99-26.9 29.3-77 50-63.8 57.8 36.9 85.3 99.7 110.4 72.6 101.8-25.7 116.4-55 90.5-38.9-55.7 34.8 26.5 21.2 48.9 23.5 73.8-62.9 82.5-13.7 86.7-19.9" transform="matrix(.24 0 0 .28 72.7 31.5)"/><path fill="none" stroke="url(#X)" stroke-linecap="round" stroke-linejoin="round" stroke-miterlimit="10" d="M26.9 419.3c0-16.7 69.2-64.4 71.3-50.2 102.8-29.6 32.4-76.3 51-62.8 54.3 39.3 80 96.6 111.3 71.7 105.4-26 117.8-55.3 91.9-40.9-57.8 32.3 26.3 26.7 46.7 26.9 75-65.4 83.1-12.6 86.6-17.7" transform="matrix(.24 0 0 .28 72.7 31.5)"/><path fill="none" stroke="url(#Y)" stroke-linecap="round" stroke-linejoin="round" stroke-miterlimit="10" d="M26.9 420.4c0-13.4 65.9-59 70.3-48.5 106.6-32.3 35.4-75.5 52-61.8 50.6 41.9 71.8 87.5 112.2 70.7C365.1 338 380.8 325 354.7 338c-59.9 29.6 26.2 32 44.6 30.4 76.2-67.9 83.6-11.5 86.5-15.6" transform="matrix(.24 0 0 .28 72.7 31.5)"/><path fill="none" stroke="url(#Z)" stroke-linecap="round" stroke-linejoin="round" stroke-miterlimit="10" d="M26.9 421.6c0-10 62.6-53.6 69.2-46.9 110.5-35 38.4-74.8 53-60.9 46.7 44.6 67.7 85.7 113.2 69.8 109.3-38.3 120.9-56.2 94.7-44.9-62 26.8 26.1 37.6 42.4 33.8 77.4-70.4 84.2-10.4 86.4-13.4" transform="matrix(.24 0 0 .28 72.7 31.5)"/><path fill="none" stroke="url(#aa)" stroke-linecap="round" stroke-linejoin="round" stroke-miterlimit="10" d="M26.9 422.7c0-6.7 59.3-48.1 68.2-45.3 114.3-37.6 41.3-74 54-59.9 42.5 47.4 63.4 84.1 114.1 68.9 114.3-34.3 122.5-56.7 96.1-47-64.1 23.8 26 43 40.3 37.2 78.6-73 84.8-9.2 86.2-11.3" transform="matrix(.24 0 0 .28 72.7 31.5)"/><path fill="none" stroke="url(#ab)" stroke-linecap="round" stroke-linejoin="round" stroke-miterlimit="10" d="M26.9 423.9c0-3.3 56.2-41.3 67-43.6 122.3-25.6 44.2-73.3 55.1-59 37.9 50.2 58.8 82.5 115 67.9 119-30.9 124.2-57.3 97.6-49-66.1 20.7 26.7 49.5 38.1 40.6 86.6-67.6 85.4-8.1 86.1-9.1" transform="matrix(.24 0 0 .28 72.7 31.5)"/><path fill="none" stroke="url(#ac)" stroke-linecap="round" stroke-linejoin="round" stroke-miterlimit="10" d="M26.9 425s52.7-37.3 66-42c122-43 47-72.6 56.1-58 33 53 54 81 115.9 67 123.5-27.9 125.9-57.9 99-51-68 17.4 25.8 53.9 36 44 81-78 86-7 86-7" transform="matrix(.24 0 0 .28 72.7 31.5)"/></g></svg>