<?xml version="1.0" encoding="UTF-8"?>
<svg xmlns="http://www.w3.org/2000/svg" xmlns:xlink="http://www.w3.org/1999/xlink" width="324px" height="234px" viewBox="0 0 324 234" version="1.1">
<defs>
<linearGradient id="linear0" gradientUnits="userSpaceOnUse" x1="-1.455352" y1="64.761543" x2="181.728165" y2="64.761543" gradientTransform="matrix(0,-1.8,1.8,0,-0.0000027,86.399993)">
<stop offset="0" style="stop-color:rgb(81.960785%,81.960785%,81.960785%);stop-opacity:1;"/>
<stop offset="1" style="stop-color:rgb(85.882354%,85.882354%,85.882354%);stop-opacity:1;"/>
</linearGradient>
</defs>
<g id="surface1">
<rect x="0" y="0" width="324" height="234" style="fill:url(#linear0);stroke:none;"/>
<path style="fill:none;stroke-width:1.021703;stroke-linecap:butt;stroke-linejoin:miter;stroke:rgb(100%,100%,100%);stroke-opacity:1;stroke-miterlimit:4;" d="M -0.94401 -1.082899 L 181.217448 -1.082899 L 181.217448 130.605469 L -0.94401 130.605469 Z M -0.94401 -1.082899 " transform="matrix(1.8,0,0,1.8,0,0)"/>
<path style=" stroke:none;fill-rule:nonzero;fill:rgb(100%,58.823532%,1.176471%);fill-opacity:1;" d="M 231.195312 184.65625 C 231.195312 184.65625 234.316406 182.578125 234.316406 171.84375 C 234.316406 161.535156 230.808594 159.054688 230.808594 159.054688 L 147.246094 159.054688 L 123.417969 171.84375 L 147.246094 184.65625 M 231.195312 184.65625 "/>
<path style=" stroke:none;fill-rule:nonzero;fill:rgb(100%,75.686276%,23.921569%);fill-opacity:1;" d="M 145.613281 160.054688 L 123.433594 171.867188 L 145.613281 183.679688 M 145.613281 160.054688 "/>
<path style=" stroke:none;fill-rule:nonzero;fill:rgb(17.647059%,17.647059%,17.647059%);fill-opacity:1;" d="M 134.523438 165.8125 L 123.433594 171.824219 L 134.523438 177.832031 M 134.523438 165.820312 "/>
<path style=" stroke:none;fill-rule:nonzero;fill:rgb(100%,17.647059%,35.686275%);fill-opacity:1;" d="M 217.699219 159.03125 L 217.699219 184.65625 L 231.21875 184.65625 C 231.21875 184.65625 234.339844 182.578125 234.339844 171.84375 C 234.339844 161.507812 230.875 159.03125 230.875 159.03125 M 217.707031 159.03125 "/>
<path style=" stroke:none;fill-rule:nonzero;fill:rgb(78.039217%,18.431373%,18.431373%);fill-opacity:1;" d="M 154.105469 52.628906 C 154.105469 52.628906 157.933594 93.441406 130.863281 147.292969 C 103.789062 201.171875 95.84375 193.9375 93.003906 192.085938 C 90.140625 190.210938 86.484375 184.15625 98.503906 172.015625 C 110.503906 159.902344 115.195312 160.132812 115.195312 160.132812 C 115.195312 160.132812 104.214844 167.8125 99.921875 175.296875 C 95.636719 182.753906 92.171875 187.410156 93.207031 189.511719 C 94.230469 191.613281 106.488281 180.925781 111.578125 171.816406 C 119.660156 157.375 134.929688 130.503906 142.054688 104.851562 C 149.179688 79.226562 154.097656 52.628906 154.097656 52.628906 M 154.121094 52.628906 "/>
<path style=" stroke:none;fill-rule:nonzero;fill:rgb(78.039217%,18.431373%,18.431373%);fill-opacity:1;" d="M 147.695312 39.6875 C 146.636719 39.910156 145.703125 41.089844 144.570312 43.292969 C 142.320312 47.71875 141.171875 60.035156 143.015625 71.921875 C 144.832031 83.832031 152.375 111.1875 161.726562 123.777344 C 171.089844 136.363281 189.820312 147.351562 203.664062 150.605469 C 210.8125 152.308594 215.1875 151.15625 217.699219 149.804688 L 217.699219 148.402344 C 216.597656 148.53125 215.078125 148.402344 213.019531 148.203125 C 205.894531 147.503906 178.320312 137.515625 163.457031 116.972656 C 148.597656 96.453125 147.324219 68.203125 146.300781 53.511719 C 145.28125 38.820312 150.847656 42.851562 151.675781 44.703125 C 152.300781 45.375 152.910156 46.753906 153.234375 47.90625 C 152.929688 45.953125 152.496094 43.25 150.980469 41.5 C 149.855469 40.277344 148.753906 39.496094 147.6875 39.75 M 147.6875 39.75 "/>
<path style=" stroke:none;fill-rule:nonzero;fill:rgb(78.039217%,18.431373%,18.431373%);fill-opacity:1;" d="M 198.464844 134.179688 C 178.320312 134.878906 176.78125 135.808594 158.261719 139.785156 C 139.742188 143.738281 130.710938 152.398438 130.710938 152.398438 C 130.710938 152.398438 157.589844 142.386719 183.042969 139.585938 C 204.464844 137.234375 213.867188 139.113281 217.699219 140.988281 L 217.699219 135.382812 C 214.382812 134.308594 208.710938 133.832031 198.464844 134.179688 M 198.464844 134.179688 "/>
</g>
</svg>
