<?xml version="1.0" encoding="UTF-8" standalone="no"?>
<svg
   xmlns:dc="http://purl.org/dc/elements/1.1/"
   xmlns:cc="http://creativecommons.org/ns#"
   xmlns:rdf="http://www.w3.org/1999/02/22-rdf-syntax-ns#"
   xmlns:svg="http://www.w3.org/2000/svg"
   xmlns="http://www.w3.org/2000/svg"
   xmlns:xlink="http://www.w3.org/1999/xlink"
   xmlns:sodipodi="http://sodipodi.sourceforge.net/DTD/sodipodi-0.dtd"
   xmlns:inkscape="http://www.inkscape.org/namespaces/inkscape"
   viewBox="0 0 324 234"
   version="1.1"
   id="svg76"
   sodipodi:docname="master-pdf-editor-5.svg"
   inkscape:version="1.0.2 (1.0.2+r75+1)">
  <metadata
     id="metadata80">
    <rdf:RDF>
      <cc:Work
         rdf:about="">
        <dc:format>image/svg+xml</dc:format>
        <dc:type
           rdf:resource="http://purl.org/dc/dcmitype/StillImage" />
      </cc:Work>
    </rdf:RDF>
  </metadata>
  <sodipodi:namedview
     pagecolor="#505050"
     bordercolor="#ffffff"
     borderopacity="1"
     objecttolerance="10"
     gridtolerance="10"
     guidetolerance="10"
     inkscape:pageopacity="0"
     inkscape:pageshadow="2"
     inkscape:window-width="759"
     inkscape:window-height="480"
     id="namedview78"
     showgrid="false"
     inkscape:zoom="1.2283714"
     inkscape:cx="215.73882"
     inkscape:cy="87.938683"
     inkscape:window-x="972"
     inkscape:window-y="281"
     inkscape:window-maximized="0"
     inkscape:current-layer="g66" />
  <defs
     id="defs42">
    <linearGradient
       id="f">
      <stop
         offset="0"
         stop-color="#ae2d31"
         id="stop2" />
      <stop
         offset="1"
         stop-color="#861213"
         id="stop4" />
    </linearGradient>
    <linearGradient
       id="a">
      <stop
         offset="0"
         stop-color="#ebebeb"
         id="stop7" />
      <stop
         offset="1"
         stop-color="#f1eded"
         id="stop9" />
    </linearGradient>
    <linearGradient
       id="b">
      <stop
         offset="0"
         stop-color="#ebebeb"
         id="stop12" />
      <stop
         offset="1"
         stop-color="#846363"
         id="stop14" />
    </linearGradient>
    <linearGradient
       id="c">
      <stop
         offset="0"
         stop-color="#fff"
         id="stop17" />
      <stop
         offset="1"
         stop-color="#b19c9c"
         id="stop19" />
    </linearGradient>
    <linearGradient
       id="e">
      <stop
         offset="0"
         stop-color="#fdfefe"
         id="stop22" />
      <stop
         offset="1"
         stop-color="#d8d8d8"
         id="stop24" />
    </linearGradient>
    <linearGradient
       id="d">
      <stop
         offset="0"
         stop-color="#ae2d31"
         id="stop27" />
      <stop
         offset="1"
         stop-color="#e12526"
         id="stop29" />
    </linearGradient>
    <linearGradient
       xlink:href="#a"
       id="l"
       x1="124.9"
       x2="262.8"
       y1="58"
       y2="58"
       gradientTransform="translate(253,99)"
       gradientUnits="userSpaceOnUse" />
    <linearGradient
       xlink:href="#b"
       id="i"
       x1="111.7"
       x2="298"
       y1="129.4"
       y2="129.4"
       gradientTransform="matrix(1.0016128,0,0,1.0023923,252.81935,98.940187)"
       gradientUnits="userSpaceOnUse" />
    <linearGradient
       xlink:href="#c"
       id="j"
       x1="111.7"
       x2="298"
       y1="138.2"
       y2="138.2"
       gradientTransform="translate(253,99)"
       gradientUnits="userSpaceOnUse" />
    <linearGradient
       xlink:href="#a"
       id="k"
       x1="124.6"
       x2="263.2"
       y1="148.3"
       y2="148.3"
       gradientTransform="translate(253,99)"
       gradientUnits="userSpaceOnUse" />
    <linearGradient
       xlink:href="#a"
       id="m"
       x1="124.9"
       x2="262.8"
       y1="48"
       y2="48"
       gradientTransform="translate(253,99)"
       gradientUnits="userSpaceOnUse" />
    <linearGradient
       xlink:href="#d"
       id="n"
       x1="200.1"
       x2="405.1"
       y1="375.2"
       y2="375.2"
       gradientTransform="matrix(.584 0 0 .584 -354 -313)"
       gradientUnits="userSpaceOnUse" />
    <linearGradient
       xlink:href="#e"
       id="o"
       x1="282.7"
       x2="324.1"
       y1="459.8"
       y2="357.1"
       gradientTransform="matrix(.584 0 0 .584 -271 -42)"
       gradientUnits="userSpaceOnUse" />
    <linearGradient
       xlink:href="#e"
       id="p"
       x1="339"
       x2="382.9"
       y1="342.7"
       y2="292.5"
       gradientTransform="matrix(.584 0 0 .584 -272 -42)"
       gradientUnits="userSpaceOnUse" />
    <linearGradient
       xlink:href="#d"
       id="g"
       x1="712.5"
       x2="1036.5"
       y1="-87.2"
       y2="-87.2"
       gradientTransform="translate(67 94)"
       gradientUnits="userSpaceOnUse" />
    <linearGradient
       xlink:href="#f"
       id="h"
       x1="0"
       x2="324"
       y1="117"
       y2="117"
       gradientTransform="matrix(0 -.52533 -.52533 0 123 234)"
       gradientUnits="userSpaceOnUse" />
  </defs>
  <g
     fill="#500"
     id="g48">
    <path
       fill="url(#g)"
       d="M779-110h324v234H779z"
       transform="matrix(1 0 0 -1 -779 124)"
       id="path44" />
    <path
       fill="url(#h)"
       d="M0 0v234h324v-59H59V0H0z"
       id="path46" />
  </g>
  <g
     transform="matrix(0.94434,0,0,0.94434,-204,-80.93739)"
     id="g66">
    <path
       fill="url(#i)"
       d="M 375.01613,124 C 369.00645,124 365,129.01196 365,135.02632 V 333.5 H 551.29999 V 135.02632 C 551.29999,129.01196 546.29192,124 540.28225,124 Z"
       id="path50"
       style="fill:url(#i);stroke-width:1.002" />
    <rect
       width="186.3"
       height="191.5"
       x="365"
       y="142"
       fill="url(#j)"
       ry="0"
       id="rect52"
       style="fill:url(#j)" />
    <rect
       width="137.89999"
       height="160.5"
       x="378"
       y="167"
       fill="url(#k)"
       ry="0"
       id="rect54"
       style="fill:url(#k)" />
    <rect
       width="104.8"
       height="153.7"
       x="394"
       y="171"
       fill="#ffffff"
       ry="0"
       id="rect56" />
    <path
       fill="none"
       stroke="#ebebeb"
       stroke-dasharray="5, 15"
       stroke-width="5"
       d="M 372,167 V 328"
       id="path58" />
    <path
       fill="none"
       stroke="url(#l)"
       stroke-width="5"
       d="M 378,157 H 516"
       id="path60"
       style="stroke:url(#l)" />
    <path
       fill="none"
       stroke="url(#m)"
       stroke-width="5"
       d="M 378,147 H 516"
       id="path62"
       style="stroke:url(#m)" />
    <path
       fill="none"
       stroke="#f1eded"
       stroke-width="4.7"
       d="m 522,167 h 25 m -25,12 h 25 m -25,12 h 25"
       id="path64" />
  </g>
  <g
     transform="translate(131 19) scale(.73775)"
     id="g74">
    <rect
       width="116.8"
       height="116.8"
       x="-236"
       y="-153"
       fill="url(#n)"
       ry="18.4"
       transform="rotate(-90)"
       id="rect68" />
    <path
       fill="url(#o)"
       d="m-125 162 2 2c2 2 3 3 6 11a269 269 0 0 0 15 33c1 3 2 2 7-9a16061 16061 0 0 0 7-19c-5-13-5-14-7-16l-3-2h-13zm0 3-2 1-4 8a1660 1660 0 0 1-19 45l14 1h14l1-2a151 151 0 0 0 7-18l2-6-1-5-5-10-6-13zm57 11-18 6-3 5a683 683 0 0 1-9 23 462 462 0 0 0 48-13l3-1-4-4a473 473 0 0 0-17-16zm18 23-10 2a1598 1598 0 0 1-11 5l4 11 2 3h13l13-1-8-20h-3z"
       id="path70" />
    <path
       fill="url(#p)"
       d="M-88 135v17h4v-5h3c3 0 5 0 6-2 3-3 2-8-2-9l-6-1zm17 0v17h4c5 0 7 0 9-2 3-3 3-9 0-12-2-2-4-3-9-3zm18 0v17h4v-6h8v-3h-8v-4h9v-4h-7zm-31 4h2l4 1v3l-3 1h-3v-3zm17 0h2c3 0 5 1 5 5l-2 4-3 1h-2v-5z"
       id="path72" />
  </g>
</svg>
