<?xml version="1.0" encoding="UTF-8" standalone="no"?>
<svg
   xmlns:dc="http://purl.org/dc/elements/1.1/"
   xmlns:cc="http://creativecommons.org/ns#"
   xmlns:rdf="http://www.w3.org/1999/02/22-rdf-syntax-ns#"
   xmlns:svg="http://www.w3.org/2000/svg"
   xmlns="http://www.w3.org/2000/svg"
   xmlns:xlink="http://www.w3.org/1999/xlink"
   xmlns:sodipodi="http://sodipodi.sourceforge.net/DTD/sodipodi-0.dtd"
   xmlns:inkscape="http://www.inkscape.org/namespaces/inkscape"
   width="324"
   height="234"
   viewBox="0 0 85.72 61.91"
   version="1.1"
   id="svg23"
   sodipodi:docname="megasync.svg"
   inkscape:version="0.92.4 (5da689c313, 2019-01-14)">
  <metadata
     id="metadata27">
    <rdf:RDF>
      <cc:Work
         rdf:about="">
        <dc:format>image/svg+xml</dc:format>
        <dc:type
           rdf:resource="http://purl.org/dc/dcmitype/StillImage" />
        <dc:title></dc:title>
      </cc:Work>
    </rdf:RDF>
  </metadata>
  <sodipodi:namedview
     pagecolor="#ffffff"
     bordercolor="#666666"
     borderopacity="1"
     objecttolerance="10"
     gridtolerance="10"
     guidetolerance="10"
     inkscape:pageopacity="0"
     inkscape:pageshadow="2"
     inkscape:window-width="1280"
     inkscape:window-height="984"
     id="namedview25"
     showgrid="false"
     inkscape:zoom="1.008547"
     inkscape:cx="162"
     inkscape:cy="117"
     inkscape:window-x="0"
     inkscape:window-y="0"
     inkscape:window-maximized="1"
     inkscape:current-layer="svg23" />
  <defs
     id="defs2" />
  <defs
     id="defs13">
    <linearGradient
       id="a">
      <stop
         offset="0"
         stop-color="#c1000e"
         id="stop4" />
      <stop
         offset="1"
         stop-color="#ff2031"
         id="stop6" />
    </linearGradient>
    <linearGradient
       id="b"
       x1="0"
       x2="0"
       y1="297"
       y2="235"
       gradientTransform="translate(0,-235)"
       gradientUnits="userSpaceOnUse"
       xlink:href="#a" />
    <filter
       id="c"
       width="1.252"
       height="1.336"
       x="-.126"
       y="-.168"
       color-interpolation-filters="sRGB">
      <feGaussianBlur
         stdDeviation="1.8335"
         id="feGaussianBlur10" />
    </filter>
  </defs>
  <rect
     y="0"
     style="fill:url(#b)"
     id="rect15"
     ry="0"
     rx="0"
     x="-0.00079999998"
     height="61.91"
     width="85.721497" />
  <path
     style="opacity:0.1;fill:none;stroke:#000000;stroke-width:5.29150009;stroke-linecap:round;stroke-linejoin:round;filter:url(#c)"
     inkscape:connector-curvature="0"
     id="path17"
     data-name="MS"
     class="cls-2"
     d="m 60.3218,43.0035 a 1.0477,1.0475 0 0 1 -1.0477,1.0478 H 54.8877 A 1.0477,1.0475 0 0 1 53.84,43.0035 V 29.3087 a 0.1292,0.1292 0 0 0 -0.22,-0.0924 l -9.3107,9.4278 a 2.05,2.0497 0 0 1 -2.9266,0 L 32.086,29.2127 a 0.1292,0.1292 0 0 0 -0.22,0.0924 v 13.6984 a 1.0477,1.0475 0 0 1 -1.0477,1.0478 H 26.4459 A 1.0477,1.0475 0 0 1 25.3982,43.0035 V 18.91 a 1.0477,1.0475 0 0 1 1.0477,-1.0478 h 3.0104 a 2.057,2.0567 0 0 1 1.4633,0.615 l 11.5912,11.7152 a 0.5134,0.5133 0 0 0 0.7333,0 L 54.818,18.4737 a 2.057,2.0567 0 0 1 1.4633,-0.615 h 2.993 a 1.0477,1.0475 0 0 1 1.0476,1.0478 V 43 Z" />
  <path
     style="fill:#fffffd;fill-rule:evenodd"
     inkscape:connector-curvature="0"
     id="path19"
     data-name="M"
     class="cls-2"
     d="m 60.3218,43.0035 a 1.0477,1.0475 0 0 1 -1.0477,1.0478 H 54.8877 A 1.0477,1.0475 0 0 1 53.84,43.0035 V 29.3087 a 0.1292,0.1292 0 0 0 -0.22,-0.0924 l -9.3107,9.4278 a 2.05,2.0497 0 0 1 -2.9266,0 L 32.086,29.2127 a 0.1292,0.1292 0 0 0 -0.22,0.0924 v 13.6984 a 1.0477,1.0475 0 0 1 -1.0477,1.0478 H 26.4459 A 1.0477,1.0475 0 0 1 25.3982,43.0035 V 18.91 a 1.0477,1.0475 0 0 1 1.0477,-1.0478 h 3.0104 a 2.057,2.0567 0 0 1 1.4633,0.615 l 11.5912,11.7152 a 0.5134,0.5133 0 0 0 0.7333,0 L 54.818,18.4737 a 2.057,2.0567 0 0 1 1.4633,-0.615 h 2.993 a 1.0477,1.0475 0 0 1 1.0476,1.0478 V 43 Z" />
</svg>
