<svg xmlns="http://www.w3.org/2000/svg" xmlns:xlink="http://www.w3.org/1999/xlink" width="324" height="234"><defs><linearGradient id="m"><stop offset="0" stop-color="#f38230"/><stop offset="1" stop-color="#fec335"/></linearGradient><linearGradient id="j"><stop offset="0" stop-color="#696969"/><stop offset="1" stop-color="#949494"/></linearGradient><linearGradient id="l"><stop offset="0" stop-color="#b3b3b3"/><stop offset="1" stop-color="#8e8e8e"/></linearGradient><linearGradient id="i"><stop offset="0" stop-color="#7d7d7d"/><stop offset="1" stop-color="#a0a0a0"/></linearGradient><linearGradient id="g"><stop offset="0" stop-color="#fff"/><stop offset="1" stop-color="#fff" stop-opacity="0"/></linearGradient><linearGradient id="f"><stop offset="0" stop-color="#34b2f4"/><stop offset="1" stop-color="#136ebc"/></linearGradient><linearGradient id="h"><stop offset="0" stop-color="#0e73c8"/><stop offset="1" stop-color="#40a5e4"/></linearGradient><linearGradient id="k"><stop offset="0" stop-color="#90dbec"/><stop offset=".262" stop-color="#55c1ec"/><stop offset=".705" stop-color="#3689e6"/><stop offset="1" stop-color="#2b63a0"/></linearGradient><linearGradient id="a"><stop offset="0" stop-color="#ece5a5"/><stop offset="1" stop-color="#fcfbf2"/></linearGradient><linearGradient id="b"><stop offset="0" stop-color="#dbce48"/><stop offset="1" stop-color="#c5b625"/></linearGradient><linearGradient id="c"><stop offset="0" stop-color="#b1b1b1"/><stop offset=".5" stop-color="#fff"/><stop offset="1" stop-color="#8f8f8f"/></linearGradient><linearGradient id="d"><stop offset="0" stop-color="#565656"/><stop offset=".5" stop-color="#9a9a9a"/><stop offset="1" stop-color="#545454"/></linearGradient><linearGradient id="e"><stop offset="0" stop-color="#181818"/><stop offset=".135" stop-color="#dbdbdb"/><stop offset=".202" stop-color="#a4a4a4"/><stop offset=".27" stop-color="#fff"/><stop offset=".447" stop-color="#8d8d8d"/><stop offset=".571" stop-color="#959595"/><stop offset=".72" stop-color="#cecece"/><stop offset="1" stop-color="#181818"/></linearGradient><linearGradient xlink:href="#a" id="K" x1="9" x2="9" y1="29.057" y2="26.03" gradientTransform="matrix(.64 -.64 .86 .86 51.184 958.478)" gradientUnits="userSpaceOnUse"/><linearGradient xlink:href="#b" id="L" x1="5.518" x2="9.522" y1="37.372" y2="41.392" gradientTransform="matrix(.56 .02 .02 .56 74.392 954.852)" gradientUnits="userSpaceOnUse"/><linearGradient xlink:href="#c" id="J" x1="30.038" x2="30.038" y1="24.99" y2="30" gradientTransform="matrix(.64 -.64 .86 .86 52.517 957.139)" gradientUnits="userSpaceOnUse"/><linearGradient xlink:href="#d" id="I" x1="30.038" x2="30.038" y1="24.99" y2="30" gradientTransform="matrix(.64 -.64 .86 .86 52.7 956.955)" gradientUnits="userSpaceOnUse"/><linearGradient xlink:href="#c" id="H" x1="30.038" x2="30.038" y1="24.99" y2="30" gradientTransform="matrix(.64 -.64 .86 .86 51.879 957.78)" gradientUnits="userSpaceOnUse"/><linearGradient xlink:href="#d" id="G" x1="30.038" x2="30.038" y1="24.99" y2="30" gradientTransform="matrix(.64 -.64 .86 .86 52.062 957.596)" gradientUnits="userSpaceOnUse"/><linearGradient xlink:href="#c" id="F" x1="30.038" x2="30.038" y1="24.99" y2="30" gradientTransform="matrix(.64 -.64 .86 .86 51.244 958.418)" gradientUnits="userSpaceOnUse"/><linearGradient xlink:href="#d" id="E" x1="30.038" x2="30.038" y1="24.99" y2="30" gradientTransform="matrix(.64 -.64 .86 .86 51.427 958.235)" gradientUnits="userSpaceOnUse"/><linearGradient xlink:href="#e" id="D" x1="23.576" x2="23.576" y1="25.357" y2="31.211" gradientTransform="matrix(.66 -.66 .73 .73 53.833 961.61)" gradientUnits="userSpaceOnUse" spreadMethod="pad"/><linearGradient xlink:href="#f" id="v" x1="28.554" x2="28.554" y1="1038.703" y2="1037.333" gradientTransform="translate(0 -2)" gradientUnits="userSpaceOnUse"/><linearGradient xlink:href="#g" id="q" x1="22.668" x2="22.668" y1="1020.621" y2="1069.536" gradientUnits="userSpaceOnUse"/><linearGradient xlink:href="#g" id="u" x1="31.705" x2="31.705" y1="1039.888" y2="1034.458" gradientTransform="translate(0 -1)" gradientUnits="userSpaceOnUse"/><linearGradient xlink:href="#g" id="r" x1="11.904" x2="11.904" y1="1040.672" y2="1033.185" gradientTransform="translate(0 -1)" gradientUnits="userSpaceOnUse"/><linearGradient xlink:href="#g" id="y" x1="10.758" x2="10.758" y1="1030.266" y2="1023.424" gradientTransform="translate(0 -1)" gradientUnits="userSpaceOnUse"/><linearGradient xlink:href="#g" id="C" x1="10.758" x2="10.758" y1="1030.266" y2="1023.424" gradientTransform="translate(0 -11)" gradientUnits="userSpaceOnUse"/><linearGradient xlink:href="#g" id="w" x1="31.705" x2="31.705" y1="1039.888" y2="1034.458" gradientTransform="translate(0 -11)" gradientUnits="userSpaceOnUse"/><linearGradient xlink:href="#g" id="p" x1="31.705" x2="31.705" y1="1039.888" y2="1034.458" gradientTransform="translate(0 -21)" gradientUnits="userSpaceOnUse"/><linearGradient xlink:href="#h" id="t" x1="9.684" x2="9.684" y1="1034.521" y2="1041.218" gradientTransform="translate(0 -1)" gradientUnits="userSpaceOnUse"/><linearGradient xlink:href="#i" id="A" x1="11" x2="11" y1="1024.893" y2="1029.698" gradientTransform="translate(0 -1)" gradientUnits="userSpaceOnUse"/><linearGradient xlink:href="#i" id="N" x1="11" x2="11" y1="1024.893" y2="1029.698" gradientTransform="translate(0 -11)" gradientUnits="userSpaceOnUse"/><linearGradient xlink:href="#j" id="B" x1="22.914" x2="22.914" y1="1016.069" y2="1017.869" gradientTransform="translate(0 -1)" gradientUnits="userSpaceOnUse"/><linearGradient xlink:href="#j" id="x" x1="22.914" x2="22.914" y1="1016.069" y2="1017.869" gradientTransform="translate(0 9)" gradientUnits="userSpaceOnUse"/><radialGradient xlink:href="#k" id="s" cx=".753" cy="8.45" r="20" fx=".753" fy="8.45" gradientTransform="matrix(0 .47 -.32 0 15.707 1031.562)" gradientUnits="userSpaceOnUse"/><radialGradient xlink:href="#l" id="z" cx="13.631" cy="1024.837" r="2" fx="13.631" fy="1024.837" gradientTransform="matrix(0 3.03 -2.75 0 2831.245 982.504)" gradientUnits="userSpaceOnUse"/><radialGradient xlink:href="#l" id="M" cx="13.631" cy="1024.837" r="2" fx="13.631" fy="1024.837" gradientTransform="matrix(0 3.03 -2.75 0 2831.245 972.504)" gradientUnits="userSpaceOnUse"/><radialGradient xlink:href="#m" id="n" cx="162.079" cy="117.142" r="162.079" fx="162.079" fy="117.142" gradientTransform="matrix(1 0 0 .72 0 32.439)" gradientUnits="userSpaceOnUse"/><filter id="o" width="1.595" height="3.48" x="-.298" y="-1.24"><feGaussianBlur stdDeviation=".783"/></filter></defs><path fill="url(#n)" fill-rule="evenodd" d="M0 0v234h324V0Z" paint-order="markers fill stroke"/><ellipse cx="14.395" cy="45.853" filter="url(#o)" opacity=".08" rx="3.157" ry=".758" transform="matrix(3.53 0 0 3.44 70.843 31.892)"/><path fill="#eee" stroke="#b1b1b1" stroke-linecap="round" stroke-linejoin="round" d="M7.346 1006.915h32.308c1.023 0 1.846.843 1.846 1.895v34.158c0 1.05-.823 1.894-1.846 1.894H18.5l-4 5-4-5H7.346c-1.023 0-1.846-.843-1.846-1.895v-34.158c0-1.05.823-1.894 1.846-1.894z" color="#000" enable-background="accumulate" overflow="visible" style="marker:none" transform="matrix(3.53 0 0 3.44 70.397 -3422.09)"/><rect width="18" height="2" x="19" y="1015.362" fill="none" stroke="url(#p)" stroke-width="2" opacity=".6" rx="1" ry="1" transform="matrix(3.53 0 0 3.44 70.397 -3422.09)"/><path fill="none" stroke="url(#q)" stroke-linecap="round" d="M8.244 1007.862h30.512c1.63 0 1.744.077 1.744 1.804v32.63c0 1.254.079 1.566-1.744 1.566H18l-3.474 4.432-3.526-4.432H8.244c-1.598 0-1.744-.155-1.744-1.566v-32.63c0-1.81.279-1.804 1.744-1.804z" color="#000" enable-background="accumulate" opacity=".7" overflow="visible" style="marker:none" transform="matrix(3.53 0 0 3.44 70.397 -3422.09)"/><rect width="5" height="5" x="10.5" y="1033.862" fill="none" stroke="url(#r)" stroke-linecap="round" stroke-linejoin="round" stroke-width="3" color="#000" enable-background="accumulate" opacity=".7" overflow="visible" rx=".385" ry=".385" style="marker:none" transform="matrix(3.53 0 0 3.44 70.397 -3422.09)"/><rect width="5" height="5" x="10.5" y="1033.862" fill="url(#s)" stroke="url(#t)" stroke-linecap="round" stroke-linejoin="round" color="#000" enable-background="accumulate" overflow="visible" rx=".385" ry=".385" style="marker:none" transform="matrix(3.53 0 0 3.44 70.397 -3422.09)"/><rect width="18" height="2" x="19" y="1035.362" fill="none" stroke="url(#u)" stroke-width="2" opacity=".6" rx="1" ry="1" transform="matrix(3.53 0 0 3.44 70.397 -3422.09)"/><rect width="18" height="2" x="19" y="1035.362" fill="url(#v)" rx="1" ry="1" transform="matrix(3.53 0 0 3.44 70.397 -3422.09)"/><rect width="18" height="2" x="19" y="1025.362" fill="none" stroke="url(#w)" stroke-width="2" opacity=".6" rx="1" ry="1" transform="matrix(3.53 0 0 3.44 70.397 -3422.09)"/><rect width="18" height="2" x="19" y="1025.362" fill="url(#x)" rx="1" ry="1" transform="matrix(3.53 0 0 3.44 70.397 -3422.09)"/><rect width="3" height="3" x="11.5" y="1024.862" fill="none" stroke="url(#y)" stroke-linecap="round" stroke-linejoin="round" stroke-width="3" color="#000" enable-background="accumulate" opacity=".6" overflow="visible" rx=".231" ry=".231" style="marker:none" transform="matrix(3.53 0 0 3.44 70.397 -3422.09)"/><rect width="3" height="3" x="11.5" y="1024.862" fill="url(#z)" stroke="url(#A)" stroke-linecap="round" stroke-linejoin="round" color="#000" enable-background="accumulate" overflow="visible" rx=".231" ry=".231" style="marker:none" transform="matrix(3.53 0 0 3.44 70.397 -3422.09)"/><rect width="18" height="2" x="19" y="1015.362" fill="url(#B)" rx="1" ry="1" transform="matrix(3.53 0 0 3.44 70.397 -3422.09)"/><rect width="3" height="3" x="11.5" y="1014.862" fill="none" stroke="url(#C)" stroke-linecap="round" stroke-linejoin="round" stroke-width="3" color="#000" enable-background="accumulate" opacity=".6" overflow="visible" rx=".231" ry=".231" style="marker:none" transform="matrix(3.53 0 0 3.44 70.397 -3422.09)"/><path fill="#0c0c0c" fill-rule="evenodd" d="M202.904 80.604c-.81-.466-1.437-.347-1.853-.087l-55.205 34.255-10.16 6.32-.314.127-12.028 26.412 29.812.875.248-.16 10.226-6.292 55.19-34.546c1.658-1.036-.963-7.894-5.882-15.413-3.688-5.641-7.6-10.096-10.034-11.491z" opacity=".15"/><path fill="url(#D)" stroke="#0c0c0c" stroke-linejoin="round" stroke-width=".377" d="M79.78 972.776c.446-.335 1.697.293 2.847 1.437 1.147 1.141 1.751 2.363 1.424 2.813-.001.002.028.025.027.027l16.01-16.089c.407-.408-.225-1.7-1.411-2.88-1.187-1.18-2.48-1.805-2.887-1.397l-16.01 16.089z" transform="matrix(4.68 0 0 4.56 -233.81 -4322.952)"/><path fill="#ffb6ed" stroke="#e28ccd" stroke-linejoin="round" stroke-width=".377" d="M93.836 958.65c.446-.334 1.697.294 2.847 1.438 1.147 1.141 1.751 2.363 1.424 2.813 0 .002.028.025.027.027l1.954-1.964.04-.04c0-.002-.028-.025-.027-.027.327-.45-.277-1.671-1.424-2.813-1.15-1.144-2.401-1.771-2.847-1.437l-.04.04-1.954 1.964z" opacity=".8" transform="matrix(4.68 0 0 4.56 -233.81 -4322.952)"/><path fill="#0c0c0c" d="M139.56 112.907c2.088-1.528 7.942 1.336 13.324 6.552 5.368 5.203 8.195 10.776 6.665 12.828-.005.009.13.114.126.123l51.602-50.525.187-.183c0-.009-.136-.114-.126-.123 1.53-2.052-1.301-7.62-6.67-12.827-5.381-5.217-11.231-8.076-13.323-6.553l-.188.183-51.597 50.525z" opacity=".6"/><path fill="url(#E)" d="M91.646 960.852c.446-.335 1.697.293 2.847 1.437 1.147 1.141 1.751 2.362 1.424 2.813-.001.002.028.025.027.026l.2-.2c0-.002-.029-.025-.027-.027.327-.45-.278-1.671-1.425-2.813-1.15-1.144-2.4-1.771-2.847-1.437z" transform="matrix(4.68 0 0 4.56 -233.81 -4322.952)"/><path fill="url(#F)" d="M91.463 961.035c.446-.334 1.697.293 2.847 1.437 1.147 1.142 1.752 2.363 1.424 2.813 0 .002.029.025.027.027l.2-.2c.001-.002-.028-.025-.027-.027.327-.45-.277-1.672-1.425-2.813-1.15-1.144-2.4-1.772-2.846-1.437z" transform="matrix(4.68 0 0 4.56 -233.81 -4322.952)"/><path fill="url(#G)" d="M92.28 960.214c.447-.335 1.698.293 2.848 1.437 1.147 1.141 1.751 2.362 1.424 2.813-.001.002.028.025.027.026l.2-.2c0-.002-.029-.025-.027-.027.327-.45-.278-1.671-1.425-2.813-1.15-1.144-2.4-1.771-2.847-1.437z" transform="matrix(4.68 0 0 4.56 -233.81 -4322.952)"/><path fill="url(#H)" d="M92.098 960.397c.446-.334 1.697.293 2.847 1.437 1.147 1.142 1.751 2.363 1.424 2.813 0 .002.029.025.027.027l.2-.2c.001-.002-.028-.025-.027-.027.327-.45-.278-1.672-1.425-2.813-1.15-1.144-2.4-1.772-2.846-1.437z" transform="matrix(4.68 0 0 4.56 -233.81 -4322.952)"/><path fill="url(#I)" d="M92.919 959.572c.446-.334 1.697.294 2.847 1.438 1.147 1.14 1.751 2.362 1.424 2.813-.001.002.028.025.027.026l.2-.2c0-.002-.029-.025-.027-.027.327-.45-.278-1.671-1.425-2.813-1.15-1.144-2.4-1.771-2.847-1.437z" transform="matrix(4.68 0 0 4.56 -233.81 -4322.952)"/><path fill="url(#J)" d="M92.736 959.756c.446-.335 1.697.293 2.847 1.437 1.147 1.142 1.751 2.363 1.424 2.813 0 .002.029.025.027.027l.2-.2c.001-.003-.028-.026-.027-.027.327-.45-.278-1.672-1.425-2.813-1.15-1.144-2.4-1.772-2.846-1.437z" transform="matrix(4.68 0 0 4.56 -233.81 -4322.952)"/><path fill="url(#K)" fill-rule="evenodd" stroke="url(#L)" stroke-width=".377" d="m76.712 980.058 7.284-2.971.062-.062c.327-.45-.286-1.672-1.433-2.813-1.15-1.144-2.4-1.768-2.845-1.434l-3.068 7.28z" transform="matrix(4.68 0 0 4.56 -233.81 -4322.952)"/><path fill="#0c0c0c" fill-rule="evenodd" stroke="#0c0c0c" stroke-width=".377" d="m77.543 978.086-.832 1.964 1.987-.814c-.16-.191-.306-.385-.497-.575a8.059 8.059 0 0 0-.658-.575z" transform="matrix(4.68 0 0 4.56 -233.81 -4322.952)"/><rect width="3" height="3" x="11.5" y="1014.862" fill="url(#M)" stroke="url(#N)" stroke-linecap="round" stroke-linejoin="round" color="#000" enable-background="accumulate" overflow="visible" rx=".231" ry=".231" style="marker:none" transform="matrix(3.53 0 0 3.44 70.397 -3422.09)"/></svg>