<?xml version="1.0" encoding="UTF-8" standalone="no"?>
<svg
   width="324px"
   height="234px"
   viewBox="0 0 324 234"
   version="1.1"
   id="svg847"
   sodipodi:docname="messenger.svg"
   inkscape:version="1.1 (c4e8f9e, 2021-05-24)"
   xmlns:inkscape="http://www.inkscape.org/namespaces/inkscape"
   xmlns:sodipodi="http://sodipodi.sourceforge.net/DTD/sodipodi-0.dtd"
   xmlns:xlink="http://www.w3.org/1999/xlink"
   xmlns="http://www.w3.org/2000/svg"
   xmlns:svg="http://www.w3.org/2000/svg">
  <defs
     id="defs851">
    <filter
       style="color-interpolation-filters:sRGB"
       id="filter1769"
       x="-0.057342707"
       width="1.1146854"
       y="-0.057086646"
       height="1.1141733">
      <feGaussianBlur
         stdDeviation="3.5306992"
         id="feGaussianBlur1771" />
    </filter>
    <radialGradient
       id="c"
       cx="158.429"
       cy="578.08801"
       r="65"
       xlink:href="#a"
       gradientUnits="userSpaceOnUse"
       gradientTransform="matrix(0,-1.98198,1.8439,0,-980.75386,341.41406)"
       fx="158.429"
       fy="578.08801" />
    <linearGradient
       id="a">
      <stop
         offset="0"
         stop-color="#fd5"
         id="stop1478" />
      <stop
         offset=".1"
         stop-color="#fd5"
         id="stop1480" />
      <stop
         offset=".5"
         stop-color="#ff543e"
         id="stop1482" />
      <stop
         offset="1"
         stop-color="#c837ab"
         id="stop1484" />
    </linearGradient>
    <radialGradient
       id="d"
       cx="147.694"
       cy="473.45499"
       r="65"
       xlink:href="#b"
       gradientUnits="userSpaceOnUse"
       gradientTransform="matrix(0.17394,0.86872,-3.5818,0.71718,1698.9961,-571.08294)"
       fx="147.694"
       fy="473.45499" />
    <linearGradient
       id="b">
      <stop
         offset="0"
         stop-color="#3771c8"
         id="stop1471" />
      <stop
         stop-color="#3771c8"
         offset=".128"
         id="stop1473" />
      <stop
         offset="1"
         stop-color="#60f"
         stop-opacity="0"
         id="stop1475" />
    </linearGradient>
    <radialGradient
       id="a-3"
       cx="101.9"
       cy="809"
       r="1.1"
       gradientTransform="matrix(800,0,0,-800,-81739.356,647557.63)"
       gradientUnits="userSpaceOnUse">
      <stop
         offset="0"
         style="stop-color:#09f"
         id="stop2227" />
      <stop
         offset=".6"
         style="stop-color:#a033ff"
         id="stop2229" />
      <stop
         offset=".9"
         style="stop-color:#ff5280"
         id="stop2231" />
      <stop
         offset="1"
         style="stop-color:#ff7061"
         id="stop2233" />
    </radialGradient>
  </defs>
  <sodipodi:namedview
     id="namedview849"
     pagecolor="#ffffff"
     bordercolor="#666666"
     borderopacity="1.0"
     inkscape:pageshadow="2"
     inkscape:pageopacity="0.0"
     inkscape:pagecheckerboard="0"
     showgrid="false"
     inkscape:zoom="0.60551314"
     inkscape:cx="-46.241771"
     inkscape:cy="165.14918"
     inkscape:window-width="1920"
     inkscape:window-height="1040"
     inkscape:window-x="0"
     inkscape:window-y="0"
     inkscape:window-maximized="1"
     inkscape:current-layer="svg847" />
  <g
     id="surface1"
     style="fill-opacity:1;fill:#ffffff">
    <rect
       x="0"
       y="0"
       width="324"
       height="234"
       style="fill:#ffffff;fill-opacity:1;stroke:none"
       id="rect840" />
    <path
       style="fill:#ffffff;stroke-width:1.021703;stroke-linecap:butt;stroke-linejoin:miter;stroke:rgb(100%, 100%, 100%);stroke-opacity:1;stroke-miterlimit:4;fill-opacity:1"
       d="M -0.94401 -1.082899 L 181.217448 -1.082899 L 181.217448 130.605469 L -0.94401 130.605469 Z M -0.94401 -1.082899 "
       transform="matrix(1.8,0,0,1.8,0,0)"
       id="path842" />
  </g>
  <g
     id="g2460"
     transform="matrix(0.20293507,0,0,0.20293507,156.33052,138.28384)">
    <path
       fill="url(#a)"
       d="m 46.64353,-442.37092 c -225.3,0 -400,165.1 -400,388 0,116.6 47.8,217.4 125.6,287 6.5,5.8 10.5,14 10.7,22.8 l 2.2,71.2 a 32,32 0 0 0 44.9,28.3 l 79.4,-35 c 6.7,-3 14.3,-3.5 21.4,-1.6 36.5,10 75.3,15.4 115.8,15.4 225.3,0 400,-165.1 400,-388 0,-222.9 -174.7,-388.1 -400,-388.1 z"
       id="path2236"
       style="fill:url(#a-3)" />
    <path
       fill="#ffffff"
       d="m -193.55647,59.12908 117.5,-186.4 a 60,60 0 0 1 86.8,-16 l 93.5,70.1 a 24,24 0 0 0 28.9,-0.1 l 126.2,-95.8 c 16.8,-12.8 38.8,7.4 27.6,25.3 l -117.6,186.3 a 60,60 0 0 1 -86.8,16 l -93.5,-70.1 a 24,24 0 0 0 -28.9,0.1 l -126.2,95.8 c -16.8,12.8 -38.8,-7.3 -27.5,-25.2 z"
       id="path2238" />
  </g>
  <path
     style="fill:url(#linearGradient1780);fill-opacity:1;stroke-width:0.378881"
     d="m 165.79613,48.511271 c -36.2291,0 -65.69183,29.45254 -65.70515,65.653549 -0.006,12.40542 3.46635,24.48821 10.04056,34.94299 l 1.5629,2.48309 -6.63674,24.22811 24.8586,-6.51796 2.40039,1.42192 c 10.08181,5.98368 21.64068,9.14831 33.42894,9.15422 h 0.025 c 36.201,0 65.6637,-29.45512 65.6785,-65.65909 0.006,-17.544024 -6.81821,-34.041678 -19.2192,-46.451549 -12.40097,-12.409872 -28.88976,-19.247876 -46.43379,-19.25528 z"
     id="path61-8" />
</svg>
