<svg xmlns="http://www.w3.org/2000/svg" xmlns:xlink="http://www.w3.org/1999/xlink" id="SVGRoot" width="324" height="234" version="1.1" viewBox="0 0 324 234"><defs><path id="path284" d="M45.66 83.12a5.4 5.4 0 0 1 2.17-2.32 6.82 6.82 0 0 1 3.46-.8 6.26 6.26 0 0 1 3.2.8 5.37 5.37 0 0 1 2.12 2.2 7 7 0 0 1 .74 3.26 7.37 7.37 0 0 1-.77 3.41 5.4 5.4 0 0 1-2.18 2.29 7.15 7.15 0 0 1-6.59 0 5.51 5.51 0 0 1-2.14-2.22 6.81 6.81 0 0 1-.75-3.22 7.5 7.5 0 0 1 .74-3.38zM48 88.56a3.42 3.42 0 0 0 1.22 1.52 3.24 3.24 0 0 0 1.91.56 3.39 3.39 0 0 0 2-.57 3.3 3.3 0 0 0 1.19-1.53 5.77 5.77 0 0 0 .38-2.13 6.16 6.16 0 0 0-.36-2.16 3.38 3.38 0 0 0-1.14-1.58 3.26 3.26 0 0 0-2-.6 3.34 3.34 0 0 0-1.95.56A3.54 3.54 0 0 0 48 84.16a5.92 5.92 0 0 0 0 4.4z" class="cls-17"/></defs><defs id="defs10"><radialGradient id="radialGradient1158" cx="-7918.92" cy="-8503.86" r="80.69" gradientTransform="translate(7978.7 8524)" gradientUnits="userSpaceOnUse"><stop id="stop1150" offset=".09" stop-color="#a09600" stop-opacity="1"/><stop id="stop1152" offset=".23" stop-color="#ffe141"/><stop id="stop1154" offset=".51" stop-color="#ffaf1e"/><stop id="stop1156" offset=".63" stop-color="#ff980e"/></radialGradient><radialGradient id="radialGradient1148" cx="-7945.65" cy="-8460.98" r="38.47" gradientTransform="translate(7978.7 8524)" gradientUnits="userSpaceOnUse"><stop id="stop1146" offset="1" stop-color="#5ab500" stop-opacity="0"/></radialGradient><radialGradient xlink:href="#linearGradient991" id="radialGradient985" cx="-178.42" cy="529.35" r="90.4" fx="-178.42" fy="529.35" gradientTransform="matrix(.60628 -.11602 .12272 .6413 -1.05 -152.25)" gradientUnits="userSpaceOnUse"/><radialGradient id="b" cx="-7907.19" cy="-8515.12" r="80.8" gradientTransform="translate(7978.7 8524)" gradientUnits="userSpaceOnUse"><stop id="stop851" offset=".13" stop-color="#ffbd4f"/><stop id="stop853" offset=".19" stop-color="#ffac31"/><stop id="stop855" offset=".25" stop-color="#ff9d17"/><stop id="stop857" offset=".28" stop-color="#ff980e"/><stop id="stop859" offset=".4" stop-color="#ff563b"/><stop id="stop861" offset=".47" stop-color="#ff3750"/><stop id="stop863" offset=".71" stop-color="#f5156c"/><stop id="stop865" offset=".78" stop-color="#eb0878"/><stop id="stop867" offset=".86" stop-color="#e50080"/></radialGradient><radialGradient id="c" cx="-7936.71" cy="-8482.09" r="80.8" gradientTransform="translate(7978.7 8524)" gradientUnits="userSpaceOnUse"><stop id="stop870" offset=".3" stop-color="#960e18"/><stop id="stop872" offset=".35" stop-color="#b11927" stop-opacity=".74"/><stop id="stop874" offset=".43" stop-color="#db293d" stop-opacity=".34"/><stop id="stop876" offset=".5" stop-color="#f5334b" stop-opacity=".09"/><stop id="stop878" offset=".53" stop-color="#ff3750" stop-opacity="0"/></radialGradient><radialGradient id="d" cx="-7926.97" cy="-8533.46" r="58.53" gradientTransform="translate(7978.7 8524)" gradientUnits="userSpaceOnUse"><stop id="stop881" offset=".13" stop-color="#fff44f"/><stop id="stop883" offset=".25" stop-color="#ffdc3e"/><stop id="stop885" offset=".51" stop-color="#ff9d12"/><stop id="stop887" offset=".53" stop-color="#ff980e"/></radialGradient><radialGradient id="e" cx="-7945.65" cy="-8460.98" r="38.47" gradientTransform="translate(7978.7 8524)" gradientUnits="userSpaceOnUse"><stop id="stop890" offset=".35" stop-color="#3a8ee6"/><stop id="stop892" offset=".47" stop-color="#5c79f0"/><stop id="stop894" offset=".67" stop-color="#9059ff"/><stop id="stop896" offset="1" stop-color="#c139e6"/></radialGradient><radialGradient id="f" cx="-7935.62" cy="-8491.55" r="20.4" gradientTransform="matrix(.972 -.235 .275 1.138 10095 7833.8)" gradientUnits="userSpaceOnUse"><stop id="stop899" offset=".21" stop-color="#9059ff" stop-opacity="0"/><stop id="stop901" offset=".28" stop-color="#8c4ff3" stop-opacity=".06"/><stop id="stop903" offset=".75" stop-color="#7716a8" stop-opacity=".45"/><stop id="stop905" offset=".97" stop-color="#6e008b" stop-opacity=".6"/></radialGradient><radialGradient id="g" cx="-7937.73" cy="-8518.43" r="27.68" gradientTransform="translate(7978.7 8524)" gradientUnits="userSpaceOnUse"><stop id="stop908" offset="0" stop-color="#ffe226"/><stop id="stop910" offset=".12" stop-color="#ffdb27"/><stop id="stop912" offset=".29" stop-color="#ffc82a"/><stop id="stop914" offset=".5" stop-color="#ffa930"/><stop id="stop916" offset=".73" stop-color="#ff7e37"/><stop id="stop918" offset=".79" stop-color="#ff7139"/></radialGradient><radialGradient id="h" cx="-7915.98" cy="-8535.98" r="118.08" gradientTransform="translate(7978.7 8524)" gradientUnits="userSpaceOnUse"><stop id="stop921" offset=".11" stop-color="#fff44f"/><stop id="stop923" offset=".46" stop-color="#ff980e"/><stop id="stop925" offset=".62" stop-color="#ff5634"/><stop id="stop927" offset=".72" stop-color="#ff3647"/><stop id="stop929" offset=".9" stop-color="#e31587"/></radialGradient><radialGradient id="i" cx="-7927.16" cy="-8522.86" r="86.5" gradientTransform="matrix(.105 .995 -.653 .069 -4680.3 8470.19)" gradientUnits="userSpaceOnUse"><stop id="stop932" offset="0" stop-color="#fff44f"/><stop id="stop934" offset=".06" stop-color="#ffe847"/><stop id="stop936" offset=".17" stop-color="#ffc830"/><stop id="stop938" offset=".3" stop-color="#ff980e"/><stop id="stop940" offset=".36" stop-color="#ff8b16"/><stop id="stop942" offset=".46" stop-color="#ff672a"/><stop id="stop944" offset=".57" stop-color="#ff3647"/><stop id="stop946" offset=".74" stop-color="#e31587"/></radialGradient><radialGradient id="j" cx="-7938.38" cy="-8508.18" r="73.72" gradientTransform="translate(7978.7 8524)" gradientUnits="userSpaceOnUse"><stop id="stop949" offset=".14" stop-color="#fff44f"/><stop id="stop951" offset=".48" stop-color="#ff980e"/><stop id="stop953" offset=".59" stop-color="#ff5634"/><stop id="stop955" offset=".66" stop-color="#ff3647"/><stop id="stop957" offset=".9" stop-color="#e31587"/></radialGradient><radialGradient id="k" cx="-7918.92" cy="-8503.86" r="80.69" gradientTransform="translate(7978.7 8524)" gradientUnits="userSpaceOnUse"><stop id="stop960" offset=".09" stop-color="#fff44f"/><stop id="stop962" offset=".23" stop-color="#ffe141"/><stop id="stop964" offset=".51" stop-color="#ffaf1e"/><stop id="stop966" offset=".63" stop-color="#ff980e"/></radialGradient><linearGradient id="linearGradient991"><stop id="stop987" offset="0" stop-color="#71afd3" stop-opacity="1"/><stop id="stop989" offset="1" stop-color="#2c7dbd" stop-opacity="1"/></linearGradient><linearGradient id="a" x1="70.79" x2="6.45" y1="12.39" y2="74.47" gradientTransform="translate(3.7)" gradientUnits="userSpaceOnUse"><stop id="stop834" offset=".05" stop-color="#fff44f"/><stop id="stop836" offset=".11" stop-color="#ffe847"/><stop id="stop838" offset=".23" stop-color="#ffc830"/><stop id="stop840" offset=".37" stop-color="#ff980e"/><stop id="stop842" offset=".4" stop-color="#ff8b16"/><stop id="stop844" offset=".46" stop-color="#ff672a"/><stop id="stop846" offset=".53" stop-color="#ff3647"/><stop id="stop848" offset=".7" stop-color="#e31587"/></linearGradient><linearGradient id="l" x1="70.01" x2="15.27" y1="12.06" y2="66.81" gradientTransform="translate(3.7)" gradientUnits="userSpaceOnUse"><stop id="stop969" offset=".17" stop-color="#fff44f" stop-opacity=".8"/><stop id="stop971" offset=".27" stop-color="#fff44f" stop-opacity=".63"/><stop id="stop973" offset=".49" stop-color="#fff44f" stop-opacity=".22"/><stop id="stop975" offset=".6" stop-color="#fff44f" stop-opacity="0"/></linearGradient><linearGradient id="SVGID_1_" x1="49.58" x2="229.25" y1="49.65" y2="229.32" gradientUnits="userSpaceOnUse"><stop id="stop8" offset="0" stop-color="#ff8100"/><stop id="stop10" offset="1" stop-color="red"/></linearGradient><linearGradient id="linear-gradient" x1="-113.02" x2="-113.92" y1="492.86" y2="492.28" gradientTransform="matrix(24 0 0 -13.5 2830.63 6811.09)" gradientUnits="userSpaceOnUse"><stop id="stop4" offset="0" stop-color="#35b8f1"/><stop id="stop6" offset=".75" stop-color="#0d64ad"/></linearGradient><linearGradient id="linear-gradient-2" x1="-109.23" x2="-109.23" y1="485.43" y2="484.12" gradientTransform="matrix(9.51 0 0 -9.77 1089.54 4824.7)" gradientUnits="userSpaceOnUse"><stop id="stop9" offset="0" stop-color="#f2f2f2"/><stop id="stop11" offset="1" stop-color="#fff"/></linearGradient><linearGradient xlink:href="#linear-gradient-2" id="linear-gradient-3" x1="-109.23" x2="-109.23" y1="485.43" y2="484.12" gradientTransform="translate(40.64 66.59)"/><linearGradient xlink:href="#linear-gradient-2" id="linearGradient525" x1="-109.23" x2="-109.23" y1="485.43" y2="484.12" gradientTransform="matrix(9.51 0 0 -9.77 1130.18 4891.29)" gradientUnits="userSpaceOnUse"/><style id="style2" type="text/css">.cls-1{fill:none}.cls-2{fill:#0364b8}.cls-3{fill:#0078d4}.cls-5{fill:#28a8ea}.cls-8{fill:#185abd}.cls-10{opacity:.67}.cls-11{opacity:.05}.cls-11,.cls-12,.cls-13,.cls-14,.cls-15,.cls-16{isolation:isolate}.cls-12{opacity:.1}.cls-13{opacity:.2}.cls-14{opacity:.01}.cls-15{opacity:.3}.cls-16{opacity:.15}.cls-17{fill:#fff}.cls-18{fill:#21a366}.cls-20{fill:#107c41}.cls-24{fill:#7719aa}.cls-27{fill:#5059c9}.cls-28{fill:#7b83eb}.cls-32{fill:#f9f7f7}.cls-42{fill:#123b6d}</style></defs><g id="layer1"><path id="rect1049" fill="#612a71" fill-opacity="1" fill-rule="evenodd" stroke="none" stroke-dasharray="none" stroke-miterlimit="4" stroke-opacity=".08" stroke-width="4.97" d="M0 0v234h324V0Z" paint-order="markers fill stroke"/><g id="g848" transform="matrix(.82191 0 0 .7705 20.8 145.99)"><path id="path2" fill="#e6e6e6" d="M136.4 14.4v43.2h-7.5V23.7h-.1l-13.4 33.9h-5L96.7 23.7h-.1v33.9h-6.9V14.4h10.8l12.4 32h.2l13.1-32zm6.2 3.3c0-1.2.4-2.2 1.3-3 .9-.8 1.9-1.2 3.1-1.2 1.3 0 2.4.4 3.2 1.2.8.8 1.3 1.8 1.3 3s-.4 2.2-1.3 3c-.9.8-1.9 1.2-3.2 1.2-1.3 0-2.3-.4-3.1-1.2-.8-.9-1.3-1.9-1.3-3zm8.1 8.9v31h-7.3v-31zm22.1 25.7c1.1 0 2.3-.2 3.6-.8 1.3-.5 2.5-1.2 3.6-2v6.8c-1.2.7-2.5 1.2-4 1.5-1.5.3-3.1.5-4.9.5-4.6 0-8.3-1.4-11.1-4.3-2.9-2.9-4.3-6.6-4.3-11 0-5 1.5-9.1 4.4-12.3 2.9-3.2 7-4.8 12.4-4.8 1.4 0 2.8.2 4.1.5 1.4.3 2.5.8 3.3 1.2v7c-1.1-.8-2.3-1.5-3.4-1.9-1.2-.4-2.4-.7-3.6-.7-2.9 0-5.2.9-7 2.8-1.8 1.9-2.6 4.4-2.6 7.6 0 3.1.9 5.6 2.6 7.3 1.7 1.7 4 2.6 6.9 2.6zm27.9-26.2a8.08 8.08 0 0 1 2.8.4v7.4c-.4-.3-.9-.6-1.7-.8-.8-.2-1.6-.4-2.7-.4-1.8 0-3.3.8-4.5 2.3-1.2 1.5-1.9 3.8-1.9 7v15.6h-7.3v-31h7.3v4.9h.1c.7-1.7 1.7-3 3-4 1.4-.9 3-1.4 4.9-1.4zm3.2 16.5c0-5.1 1.5-9.2 4.3-12.2 2.9-3 6.9-4.5 12-4.5 4.8 0 8.6 1.4 11.3 4.3 2.7 2.9 4.1 6.8 4.1 11.7 0 5-1.5 9-4.3 12-2.9 3-6.8 4.5-11.8 4.5-4.8 0-8.6-1.4-11.4-4.2-2.8-2.9-4.2-6.8-4.2-11.6zm7.6-.3c0 3.2.7 5.7 2.2 7.4 1.5 1.7 3.6 2.6 6.3 2.6 2.6 0 4.7-.8 6.1-2.6 1.4-1.7 2.1-4.2 2.1-7.6 0-3.3-.7-5.8-2.1-7.6-1.4-1.7-3.5-2.6-6-2.6-2.7 0-4.7.9-6.2 2.7-1.7 1.9-2.4 4.4-2.4 7.7zm35-7.5c0 1 .3 1.9 1 2.5.7.6 2.1 1.3 4.4 2.2 2.9 1.2 5 2.5 6.1 3.9a8.1 8.1 0 0 1 1.8 5.3c0 2.9-1.1 5.2-3.4 7-2.2 1.8-5.3 2.6-9.1 2.6-1.3 0-2.7-.2-4.3-.5-1.6-.3-2.9-.7-4-1.2v-7.2c1.3.9 2.8 1.7 4.3 2.2 1.5.5 2.9.8 4.2.8 1.6 0 2.9-.2 3.6-.7.8-.5 1.2-1.2 1.2-2.3 0-1-.4-1.8-1.2-2.6-.8-.7-2.4-1.5-4.6-2.4-2.7-1.1-4.6-2.4-5.7-3.8a8.5 8.5 0 0 1-1.7-5.4c0-2.8 1.1-5.1 3.3-6.9 2.2-1.8 5.1-2.7 8.6-2.7 1.1 0 2.3.1 3.6.4 1.3.3 2.5.6 3.4.9V34c-1-.6-2.1-1.2-3.4-1.7-1.3-.5-2.6-.7-3.8-.7-1.4 0-2.5.3-3.2.8-.7.7-1.1 1.4-1.1 2.4zm16.4 7.8c0-5.1 1.5-9.2 4.3-12.2 2.9-3 6.9-4.5 12-4.5 4.8 0 8.6 1.4 11.3 4.3 2.7 2.9 4.1 6.8 4.1 11.7 0 5-1.5 9-4.3 12-2.9 3-6.8 4.5-11.8 4.5-4.8 0-8.6-1.4-11.4-4.2-2.7-2.9-4.2-6.8-4.2-11.6zm7.6-.3c0 3.2.7 5.7 2.2 7.4 1.5 1.7 3.6 2.6 6.3 2.6 2.6 0 4.7-.8 6.1-2.6 1.4-1.7 2.1-4.2 2.1-7.6 0-3.3-.7-5.8-2.1-7.6-1.4-1.7-3.5-2.6-6-2.6-2.7 0-4.7.9-6.2 2.7-1.6 1.9-2.4 4.4-2.4 7.7zm48.4-9.7H308v25h-7.4v-25h-5.2v-6h5.2v-4.3c0-3.2 1.1-5.9 3.2-8 2.1-2.1 4.8-3.1 8.1-3.1.9 0 1.7.1 2.4.1s1.3.2 1.8.4V18c-.2-.1-.7-.3-1.3-.5-.6-.2-1.3-.3-2.1-.3-1.5 0-2.7.5-3.5 1.4-.8.9-1.2 2.4-1.2 4.2v3.7h10.9v-7l7.3-2.2v9.2h7.4v6h-7.4V47c0 1.9.4 3.2 1 4 .7.8 1.8 1.2 3.3 1.2.4 0 .9-.1 1.5-.3.6-.2 1.1-.4 1.5-.7v6c-.5.3-1.2.5-2.3.7-1.1.2-2.1.3-3.2.3-3.1 0-5.4-.8-6.9-2.4-1.5-1.6-2.3-4.1-2.3-7.4z"/><path id="rect4" fill="#f25022" stroke-width=".9" d="M10 4h30.8v30.48H10z"/><path id="rect6" fill="#7fba00" stroke-width=".9" d="M44.04 4h30.8v30.48h-30.8z"/><path id="rect8" fill="#00a4ef" stroke-width=".9" d="M10 37.69h30.8v30.48H10z"/><path id="rect10" fill="#ffb900" stroke-width=".9" d="M44.04 37.69h30.8v30.48h-30.8z"/></g><g id="Layer_2" transform="matrix(.75708 0 0 .77572 17.96 -12.93)"><g id="OneDrive_32x"><path id="Rectangle-9" d="M105.76 66.59h39.45v39.45h-39.45z" class="cls-1"/><path id="Path-24" d="m120.81 80.38 8.28 5 5-2.07a8.13 8.13 0 0 1 3.19-.66h.54a12.34 12.34 0 0 0-22.25-3.71h.13a9.84 9.84 0 0 1 5.11 1.44z" class="cls-2"/><path id="Path-25" d="M120.81 80.38a10 10 0 0 0-5.15-1.47h-.13a9.85 9.85 0 0 0-8 15.49l7.3-3.07 3.29-1.33 7.23-3 3.77-1.59z" class="cls-3"/><path id="Path-26" fill="#1490df" d="M137.74 82.63h-.54a8.11 8.11 0 0 0-3.18.65l-4.93 2.08 1.43.86 4.69 2.78 2 1.22 7 4.2a8 8 0 0 0-6.51-11.8z"/><path id="Path-27" d="m137.25 90.24-2-1.23-4.69-2.81-1.43-.86-3.77 1.59-7.23 3-3.25 1.36-7.3 3.08a9.84 9.84 0 0 0 8.09 4.23h21.53a8 8 0 0 0 7.05-4.21z" class="cls-5"/></g><g id="Word_32x"><g id="icon"><path id="Path-28" fill="#41a5ee" d="M182.45 69.85h26.29a1.64 1.64 0 0 1 1.65 1.62V102a1.63 1.63 0 0 1-1.65 1.61h-26.29a1.7 1.7 0 0 1-1.17-.47 1.58 1.58 0 0 1-.48-1.14V71.47a1.6 1.6 0 0 1 .48-1.15 1.8 1.8 0 0 1 1.17-.47z"/><path id="Path-29" fill="#103f91" d="M210.39 95.18H180.8V102a1.63 1.63 0 0 0 1.65 1.61h26.29a1.63 1.63 0 0 0 1.65-1.61z"/><path id="Rectangle-10" d="M180.8 86.74h29.59v8.44H180.8Z" class="cls-8"/><path id="Rectangle-11" fill="#2b7cd3" d="M180.8 78.3h29.59v8.44H180.8Z"/></g><g id="dropshadow-2" class="cls-10"><path id="Path-30" d="M191.29 76.75h-8.58a.61.61 0 0 0-.62.6v18.79a.63.63 0 0 0 .62.6h8.58a1.22 1.22 0 0 0 1.22-1.21V78a1.2 1.2 0 0 0-1.22-1.21z" class="cls-11"/><path id="Path-31" d="M189 79.92h-8.2v19.36h8.2a1.61 1.61 0 0 0 1.64-1.56V81.43a1.6 1.6 0 0 0-1.64-1.51Z" class="cls-12"/><path id="Path-32" d="M189 78.81h-8.2v19.35h8.2a1.61 1.61 0 0 0 1.64-1.56V80.36a1.6 1.6 0 0 0-1.64-1.55Z" class="cls-13"/><path id="Path-33" d="M190.8 77.13h-8.58a.6.6 0 0 0-.61.6v18.78a.6.6 0 0 0 .61.6h8.58a1.22 1.22 0 0 0 1.23-1.2V78.33a1.22 1.22 0 0 0-1.23-1.2z" class="cls-12"/><path id="Path-34" d="M190.77 77.63h-8.57a.61.61 0 0 0-.62.6v18.59a.6.6 0 0 0 .62.6h8.57a1.21 1.21 0 0 0 1.24-1.2V78.83a1.22 1.22 0 0 0-1.24-1.2z" class="cls-12"/><path id="Path-35" d="M189.39 76.21h-8.57V92h-.12v2.47a.6.6 0 0 0 .61.6l6.86-1.23c.68 0 2.51-.57 2.51-1.24V77.41a1.21 1.21 0 0 0-1.25-1.2z" class="cls-14"/><path id="Path-36" d="M189 79.34h-8.2v19.35h8.2a1.6 1.6 0 0 0 1.64-1.55V80.89a1.6 1.6 0 0 0-1.64-1.55Z" class="cls-13"/><path id="Path-37" d="M189 77.64h-8.2v19h8.2a1.6 1.6 0 0 0 1.66-1.64V79.19a1.6 1.6 0 0 0-1.66-1.55Z" class="cls-15"/><path id="Path-38" d="M189 77.64h-8.2v18.87h8.2a1.61 1.61 0 0 0 1.66-1.51V79.19a1.6 1.6 0 0 0-1.66-1.55Z" class="cls-15"/><path id="Path-39" d="M189 78h-8.2v19.38h8.2a1.6 1.6 0 0 0 1.64-1.55V79.58A1.6 1.6 0 0 0 189 78Z" class="cls-15"/><path id="Path-40" d="M189 78.39h-8.2v19.36h8.2a1.61 1.61 0 0 0 1.64-1.56V80a1.6 1.6 0 0 0-1.64-1.61Z" class="cls-13"/><path id="Path-41" d="M190.58 78.18H182a.61.61 0 0 0-.62.6v17.64a.61.61 0 0 0 .62.6h8.58a1.21 1.21 0 0 0 1.22-1.21V79.39a1.22 1.22 0 0 0-1.22-1.21z" class="cls-12"/><path id="Path-42" d="M189.62 78.18h-8.57a.59.59 0 0 0-.23 0V96.6a.88.88 0 0 0 .23 0h8.57a1.22 1.22 0 0 0 1.23-1.21v-16a1.22 1.22 0 0 0-1.23-1.21z" class="cls-13"/><path id="Path-43" d="M187.46 77.14h-6.23a.62.62 0 0 0-.62.6v17.63a.61.61 0 0 0 .62.6h8.57a1.22 1.22 0 0 0 1.23-1.2V78.88c0-.72-1.66-1.1-1.85-1.32a3.8 3.8 0 0 0-1.72-.42z" class="cls-15"/><path id="Path-44" d="M190.16 79.05h-8.57a.62.62 0 0 0-.62.6v17.64a.62.62 0 0 0 .62.6h8.57a1.22 1.22 0 0 0 1.23-1.21V80.26a1.22 1.22 0 0 0-1.22-1.21z" class="cls-12"/><path id="Path-45" d="M189.39 76.54h-8.57v15.77h-.12v2.47a.6.6 0 0 0 .61.6l6.86-1.22c.68 0 2.51-.58 2.51-1.25V77.73a1.23 1.23 0 0 0-1.26-1.19z" class="cls-12"/><path id="Path-46" d="M189.39 76.88h-8.57v15.73h-.12v2.47a.6.6 0 0 0 .61.6l6.86-1.22c.68 0 2.51-.58 2.51-1.25V78.05a1.22 1.22 0 0 0-1.28-1.17z" class="cls-16"/></g><path id="Back_Plate-2" d="M172.58 77.09H189a1.63 1.63 0 0 1 1.64 1.61v16.07a1.63 1.63 0 0 1-1.64 1.62h-16.42a1.73 1.73 0 0 1-1.16-.48 1.58 1.58 0 0 1-.48-1.14V78.69a1.63 1.63 0 0 1 1.64-1.6z" class="cls-8"/><path id="Letter" d="M185.85 92.77h-2.21l-2.59-8.32-2.71 8.32h-2.22l-2.47-12.06h2.22l1.72 8.44 2.59-8.2h1.85l2.47 8.2 1.72-8.44h2.1z" class="cls-17"/></g><path id="_" d="M255.63 70.69h12.67v24.25h-12.67zM252.2 76l-3.76 7.52 3.86 7.65-4.3-.26-1.81-4.24-1.72 4-3.92-.22L244 83.6l-3.24-6.86 4-.24 1.52 3.91 1.78-4.1z" class="cls-17"/><g id="Excel_32x"><path id="Path-47" d="M247.36 68.25h25.73a1.55 1.55 0 0 1 1.14.49 1.75 1.75 0 0 1 .47 1.19v31.9a1.75 1.75 0 0 1-.47 1.19 1.55 1.55 0 0 1-1.14.49h-25.73a1.63 1.63 0 0 1-1.6-1.67V69.93a1.64 1.64 0 0 1 1.59-1.68z" class="cls-18"/><path id="Path-48" fill="#185c37" d="M245.76 85.88v16a1.63 1.63 0 0 0 1.56 1.71h25.77a1.64 1.64 0 0 0 1.61-1.68v-16z"/><path id="Rectangle-12" d="M245.76 77.07h28.94v8.82h-28.94z" class="cls-20"/><path id="Path-49" fill="#33c481" d="M273.09 68.25h-12.86V94.7h14.47V69.93a1.75 1.75 0 0 0-.47-1.19 1.55 1.55 0 0 0-1.14-.49z"/><path id="Rectangle-13" d="M260.23 77.07h14.48v8.82h-14.48z" class="cls-18"/><path id="Rectangle-14" d="M260.23 85.88h14.48v8.82h-14.48z" class="cls-20"/><g id="dropshadow-3" class="cls-10"><path id="Path-50" d="M256 75.45h-8.41a.62.62 0 0 0-.6.63v19.61a.62.62 0 0 0 .6.64H256a1.23 1.23 0 0 0 1.2-1.26V76.71a1.23 1.23 0 0 0-1.2-1.26Z" class="cls-11"/><path id="Path-51" d="M253.79 78.76h-8V99h8a1.63 1.63 0 0 0 1.62-1.63v-17a1.63 1.63 0 0 0-1.62-1.61z" class="cls-12"/><path id="Path-52" d="M253.79 77.59h-8v20.22h8a1.63 1.63 0 0 0 1.62-1.62v-17a1.63 1.63 0 0 0-1.62-1.6z" class="cls-13"/><path id="Path-53" d="M255.53 75.85h-8.4a.62.62 0 0 0-.6.62v19.62a.61.61 0 0 0 .6.63h8.4a1.23 1.23 0 0 0 1.21-1.26V77.1a1.21 1.21 0 0 0-1.2-1.25z" class="cls-12"/><path id="Path-54" d="M255.52 76.36h-8.41a.62.62 0 0 0-.6.64v19.41a.63.63 0 0 0 .6.63h8.41a1.22 1.22 0 0 0 1.17-1.29V77.62a1.22 1.22 0 0 0-1.17-1.26z" class="cls-12"/><path id="Path-55" d="M254.16 74.88h-8.4v16.46h-.12v2.58a.61.61 0 0 0 .6.62l6.68-1.28c.67 0 2.45-.6 2.45-1.29V76.14a1.23 1.23 0 0 0-1.21-1.26z" class="cls-14"/><path id="Path-56" d="M253.79 78.15h-8v20.22h8a1.63 1.63 0 0 0 1.62-1.62v-17a1.63 1.63 0 0 0-1.62-1.6z" class="cls-13"/><path id="Path-57" d="M253.8 76.38h-8v19.78h8a1.62 1.62 0 0 0 1.61-1.62V78a1.62 1.62 0 0 0-1.61-1.62z" class="cls-15"/><path id="Path-58" d="M253.79 76.38h-8V96.1h8a1.62 1.62 0 0 0 1.62-1.62V78a1.62 1.62 0 0 0-1.62-1.62z" class="cls-15"/><path id="Path-59" d="M253.79 76.78h-8V97h8a1.61 1.61 0 0 0 1.62-1.62v-17a1.63 1.63 0 0 0-1.62-1.6z" class="cls-15"/><path id="Path-60" d="M253.79 77.16h-8v20.22h8a1.64 1.64 0 0 0 1.62-1.64v-17a1.62 1.62 0 0 0-1.62-1.58z" class="cls-13"/><path id="Path-61" d="M255.32 77h-8.4a.61.61 0 0 0-.61.63V96a.62.62 0 0 0 .61.63h8.4a1.23 1.23 0 0 0 1.2-1.26V78.21a1.22 1.22 0 0 0-1.2-1.21Z" class="cls-12"/><path id="Path-62" d="M254.39 77H246a.34.34 0 0 0-.22 0v19.16a.87.87 0 0 0 .22 0h8.41a1.23 1.23 0 0 0 1.2-1.26V78.21a1.22 1.22 0 0 0-1.2-1.26z" class="cls-13"/><path id="Path-63" d="M252.28 75.86h-6.12a.61.61 0 0 0-.6.63v18.4a.62.62 0 0 0 .6.62h8.41a1.23 1.23 0 0 0 1.2-1.25V77.67c0-.74-1.63-1.15-1.81-1.38a3.56 3.56 0 0 0-1.68-.43z" class="cls-15"/><path id="Path-64" d="M254.92 77.85h-8.41a.63.63 0 0 0-.6.63v18.41a.62.62 0 0 0 .6.64h8.41a1.24 1.24 0 0 0 1.2-1.25V79.11a1.23 1.23 0 0 0-1.19-1.26z" class="cls-12"/><path id="Path-65" d="M254.16 75.23h-8.4V91.7h-.12v2.58a.61.61 0 0 0 .6.63l6.68-1.29c.67 0 2.45-.6 2.45-1.29V76.49a1.23 1.23 0 0 0-1.21-1.26z" class="cls-12"/><path id="Path-66" d="M254.16 75.55h-8.4V92h-.12v2.57a.61.61 0 0 0 .6.63l6.68-1.28c.67 0 2.45-.6 2.45-1.29V76.81a1.23 1.23 0 0 0-1.21-1.26z" class="cls-16"/></g><path id="Back_Plate-3" d="M237.72 75.8h16.08a1.66 1.66 0 0 1 1.61 1.69v16.79a1.66 1.66 0 0 1-1.58 1.72h-16.11a1.64 1.64 0 0 1-1.61-1.68V77.49a1.66 1.66 0 0 1 1.61-1.69z" class="cls-20"/><path id="Path-67" d="m240.49 92.18 3.79-6.18-3.48-6.1h2.8l1.89 3.9a9.3 9.3 0 0 1 .36.86c.12-.29.26-.59.4-.86l2-3.87h2.57L247.29 86l3.65 6.17h-2.74l-2.2-4.25a5.94 5.94 0 0 1-.27-.57 2.77 2.77 0 0 1-.26.55l-2.25 4.29z" class="cls-17"/></g><g id="icon-app-OneNote-32px"><g id="OneNote_32x"><path id="Path-68" fill="#c15ce3" d="M85.54 128.8h26.3a1.63 1.63 0 0 1 1.64 1.63v31.24a1.64 1.64 0 0 1-1.64 1.63h-26.3a1.64 1.64 0 0 1-1.64-1.63v-31.24a1.63 1.63 0 0 1 1.64-1.63z"/><path id="Path-69" fill="#ca64ea" d="M113.48 130.43a1.6 1.6 0 0 0-.48-1.15 1.64 1.64 0 0 0-1.16-.48h-26.3a1.64 1.64 0 0 0-1.16.48 1.6 1.6 0 0 0-.48 1.15v31.24a1.64 1.64 0 0 0 1.64 1.63h19.32v-25.88h8.62z"/><path id="Path-70" d="M104.86 154.68h8.62v7a1.63 1.63 0 0 1-1.64 1.63h-7z" class="cls-24"/><path id="Rectangle-15" fill="#9332bf" d="M104.86 146.05h8.63v8.63h-8.63z"/><path id="Rectangle-16" fill="#ae4bd5" d="M104.86 137.42h8.63v8.63h-8.63z"/><g id="badge"><g id="dropshadow-4" class="cls-10"><path id="Path-71" d="M94.38 135.85h-8.57a.61.61 0 0 0-.62.6v19.2a.62.62 0 0 0 .62.62h8.57a1.23 1.23 0 0 0 1.23-1.22v-18a1.22 1.22 0 0 0-1.23-1.2z" class="cls-11"/><path id="Path-72" d="M92.11 139.08H83.9v19.78h8.21a1.62 1.62 0 0 0 1.65-1.58v-16.62a1.62 1.62 0 0 0-1.65-1.58z" class="cls-12"/><path id="Path-73" d="M92.11 137.94H83.9v19.78h8.21a1.62 1.62 0 0 0 1.65-1.59v-16.61a1.62 1.62 0 0 0-1.65-1.58z" class="cls-13"/><path id="Path-74" d="M93.9 136.22h-8.58a.62.62 0 0 0-.62.62V156a.62.62 0 0 0 .62.62h8.58a1.24 1.24 0 0 0 1.22-1.24v-17.91a1.23 1.23 0 0 0-1.22-1.25z" class="cls-12"/><path id="Path-75" d="M93.87 136.74h-8.58a.61.61 0 0 0-.61.61v19a.61.61 0 0 0 .61.62l8.45.14a1.48 1.48 0 0 0 1.37-1.38V138a1.21 1.21 0 0 0-1.21-1.23z" class="cls-12"/><path id="Path-76" d="M92.49 135.28h-8.58v16.12h-.12v2.52a.62.62 0 0 0 .62.62l6.86-1.25c.68 0 2.51-.59 2.51-1.27v-15.51a1.25 1.25 0 0 0-1.26-1.23z" class="cls-14"/><path id="Path-77" d="M92.11 138.49H83.9v19.78h8.21a1.63 1.63 0 0 0 1.65-1.59v-16.63a1.62 1.62 0 0 0-1.65-1.56z" class="cls-13"/><path id="Path-78" d="M92.11 136.75H83.9v19.37h8.21a1.63 1.63 0 0 0 1.65-1.59v-16.2a1.62 1.62 0 0 0-1.65-1.58z" class="cls-15"/><path id="Path-79" d="M92.11 136.75H83.9V156h8.21a1.63 1.63 0 0 0 1.65-1.59v-16.1a1.62 1.62 0 0 0-1.65-1.56z" class="cls-15"/><path id="Path-80" d="M92.11 137.14H83.9v19.79h8.21a1.63 1.63 0 0 0 1.65-1.59v-16.6a1.63 1.63 0 0 0-1.65-1.6z" class="cls-15"/><path id="Path-81" d="M92.11 137.52H83.9v19.78h8.21a1.62 1.62 0 0 0 1.65-1.59V139.1a1.62 1.62 0 0 0-1.65-1.58z" class="cls-13"/><path id="Path-82" d="M93.67 137.3H85.1a.62.62 0 0 0-.62.62v18a.62.62 0 0 0 .62.62h8.57a1.24 1.24 0 0 0 1.23-1.24v-16.76a1.24 1.24 0 0 0-1.23-1.24z" class="cls-12"/><path id="Path-83" d="M92.72 137.3h-8.57a.69.69 0 0 0-.24 0v18.76a.67.67 0 0 0 .24 0h8.57a1.23 1.23 0 0 0 1.28-1.13v-16.39a1.24 1.24 0 0 0-1.28-1.24z" class="cls-13"/><path id="Path-84" d="M90.56 136.24h-6.23a.62.62 0 0 0-.62.62v18a.61.61 0 0 0 .62.61h8.57a1.23 1.23 0 0 0 1.23-1.22V138c0-.73-1.67-1.13-1.85-1.34a3.57 3.57 0 0 0-1.72-.42z" class="cls-15"/><path id="Path-85" d="M93.26 138.2h-8.57a.6.6 0 0 0-.62.6v18a.62.62 0 0 0 .62.62h8.57a1.23 1.23 0 0 0 1.23-1.23v-16.77a1.22 1.22 0 0 0-1.23-1.22z" class="cls-12"/><path id="Path-86" d="M92.49 135.63h-8.58v16.11h-.12v2.53a.61.61 0 0 0 .62.61l6.86-1.25c.68 0 2.51-.59 2.51-1.27v-15.49a1.24 1.24 0 0 0-1.24-1.24z" class="cls-12"/><path id="Path-87" d="M92.49 135.94h-8.58v16.11h-.12v2.52a.62.62 0 0 0 .62.62l6.86-1.25c.68 0 2.51-.59 2.51-1.27v-15.5a1.24 1.24 0 0 0-1.24-1.23z" class="cls-16"/></g><path id="Back_Plate-4" d="M75.68 136.19h16.43a1.65 1.65 0 0 1 1.65 1.64v16.44a1.65 1.65 0 0 1-1.65 1.64H75.68a1.64 1.64 0 0 1-1.68-1.64v-16.44a1.64 1.64 0 0 1 1.68-1.64z" class="cls-24"/><path id="Path-88" d="M79 139.9h2.6l4.49 8.28.53.85a12.56 12.56 0 0 1-.08-1.62v-7.51h2.24v12.29h-2.42L81.67 144a5.89 5.89 0 0 1-.47-.85 15.05 15.05 0 0 1 .07 1.78v7.2H79Z" class="cls-17"/></g></g></g><g id="Teams_32x"><path id="Path-89" d="M241.16 141.2h-9.43c-1 0-.77.85-.77 1.85v9.17a6 6 0 0 0 12 0v-9.17a1.82 1.82 0 0 0-1.8-1.85h-.05z" class="cls-27"/><ellipse id="Head" cx="236.94" cy="135.37" class="cls-27" rx="4.02" ry="4.11"/><path id="Body" d="M216.65 141.2h15.67a1.83 1.83 0 0 1 1.81 1.85v11.22a9.76 9.76 0 0 1-9.65 9.86 9.75 9.75 0 0 1-9.64-9.85v-11.23a1.82 1.82 0 0 1 1.8-1.85z" class="cls-28"/><ellipse id="Head-2" cx="224.48" cy="133.73" class="cls-28" rx="5.63" ry="5.75"/><ellipse id="Head-3" cx="236.94" cy="135.37" class="cls-1" rx="4.02" ry="4.11"/><g id="dropshadow-5" class="cls-10"><path id="Path-90" d="M216.65 141.2a1.82 1.82 0 0 0-1.81 1.84v11.22a10.34 10.34 0 0 0 .19 2h9.26a1.22 1.22 0 0 0 1.21-1.22V141.2Z" class="cls-1"/><path id="Path-91" d="M219.26 135.85a5.53 5.53 0 0 0 6.24 3.52v-2.3a1.22 1.22 0 0 0-1.21-1.22h-5z" class="cls-1"/><path id="Path-92" d="M216.65 141.2a1.82 1.82 0 0 0-1.81 1.84v11.22a9.81 9.81 0 0 0 1.11 4.59h6.11a1.6 1.6 0 0 0 1.62-1.58V141.2Z" class="cls-12"/><path id="Path-93" d="M216.65 141.2a1.82 1.82 0 0 0-1.81 1.84v11.22a10 10 0 0 0 .61 3.43h6.61a1.6 1.6 0 0 0 1.62-1.58V141.2Z" class="cls-13"/><path id="Path-94" d="M223.65 139.39a1.59 1.59 0 0 0-1.59-1.45h-1.38a5.45 5.45 0 0 0 2.97 1.45z" class="cls-13"/><path id="Path-95" d="M216.65 141.2a1.82 1.82 0 0 0-1.81 1.84v11.22a10.21 10.21 0 0 0 .29 2.39h8.68a1.22 1.22 0 0 0 1.2-1.24V141.2Z" class="cls-12"/><path id="Path-96" d="M219.43 136.22a5.58 5.58 0 0 0 5 3.25 1.91 1.91 0 0 0 .53-.05v-1.95a1.22 1.22 0 0 0-1.2-1.23z" class="cls-12"/><path id="Path-97" d="M219.71 136.74a5.54 5.54 0 0 0 4.77 2.73 1.84 1.84 0 0 0 .52-.05V138a1.22 1.22 0 0 0-1.2-1.23h-4.09z" class="cls-12"/><path id="Path-98" d="M216.65 141.2a1.82 1.82 0 0 0-1.81 1.84v11.22a10.1 10.1 0 0 0 .37 2.73l8.44.11a1.47 1.47 0 0 0 1.35-1.37v-14.57z" class="cls-12"/><path id="Path-99" d="M223.64 139.39v-2.88a1.22 1.22 0 0 0-1.21-1.23h-3.34a5.63 5.63 0 0 0 4.55 4.11z" class="cls-14"/><path id="Path-100" d="M216.65 141.2a1.82 1.82 0 0 0-1.81 1.84v11.16l6.35-.86c.67 0 2.45-.59 2.45-1.27V141.2Z" class="cls-14"/><path id="Path-101" d="M216.65 141.2a1.82 1.82 0 0 0-1.81 1.84v11.22a10 10 0 0 0 .85 4h6.4a1.6 1.6 0 0 0 1.61-1.59V141.2Z" class="cls-13"/><path id="Path-102" d="M223.5 139.37a1.63 1.63 0 0 0-1.44-.86h-.73a5.32 5.32 0 0 0 2.17.86z" class="cls-13"/><path id="Path-103" d="M216.65 141.2a1.82 1.82 0 0 0-1.81 1.84v11.22a9.58 9.58 0 0 0 .17 1.85h7.06a1.61 1.61 0 0 0 1.61-1.59V141.2Z" class="cls-15"/><path id="Path-104" d="M223.68 139.4v-1.07a1.6 1.6 0 0 0-1.61-1.58h-2.35a5.58 5.58 0 0 0 4 2.65z" class="cls-15"/><path id="Path-105" d="M216.65 141.2a1.82 1.82 0 0 0-1.81 1.84v11.22A9.88 9.88 0 0 0 215 156h7.07a1.61 1.61 0 0 0 1.62-1.59V141.2Z" class="cls-15"/><path id="Path-106" d="M223.68 139.4v-1.07a1.6 1.6 0 0 0-1.62-1.58h-2.34a5.58 5.58 0 0 0 3.96 2.65z" class="cls-15"/><path id="Path-107" d="M216.65 141.2a1.82 1.82 0 0 0-1.81 1.84v11.22a10 10 0 0 0 .36 2.66h6.86a1.61 1.61 0 0 0 1.61-1.59V141.2Z" class="cls-15"/><path id="Path-108" d="M223.68 139.4v-.66a1.62 1.62 0 0 0-1.62-1.6H220a5.61 5.61 0 0 0 3.68 2.26z" class="cls-15"/><path id="Path-109" d="M216.65 141.2a1.82 1.82 0 0 0-1.81 1.84v11.22a9.45 9.45 0 0 0 .47 3h6.75a1.6 1.6 0 0 0 1.62-1.59V141.2Z" class="cls-13"/><path id="Path-110" d="M223.68 139.4v-.3a1.6 1.6 0 0 0-1.61-1.58h-1.79a5.6 5.6 0 0 0 3.4 1.88z" class="cls-13"/><path id="Path-111" d="M224.48 139.47h.31v-.91a1.22 1.22 0 0 0-1.2-1.23h-3.48a5.52 5.52 0 0 0 4.37 2.17z" class="cls-12"/><path id="Path-112" d="M224.79 141.2h-8.14a1.82 1.82 0 0 0-1.81 1.84v11.22a9.82 9.82 0 0 0 .27 2.29h8.48a1.21 1.21 0 0 0 1.21-1.21z" class="cls-12"/><path id="Path-113" d="M216.65 141.2a1.82 1.82 0 0 0-1.81 1.84v11.22a9.9 9.9 0 0 0 .18 1.88h7.64a1.22 1.22 0 0 0 1.21-1.22V141.2Z" class="cls-13"/><path id="Path-114" d="M223.87 139.41v-.85a1.23 1.23 0 0 0-1.21-1.24h-2.58a5.56 5.56 0 0 0 3.79 2.09z" class="cls-13"/><path id="Path-115" d="M224 139.43V138c0-.72-1.63-1.13-1.81-1.34a3.46 3.46 0 0 0-1.72-.43h-1.1a5.6 5.6 0 0 0 4.63 3.2z" class="cls-15"/><path id="Path-116" d="M216.65 141.2a1.82 1.82 0 0 0-1.81 1.84v11.22a10 10 0 0 0 .07 1.22h7.93a1.21 1.21 0 0 0 1.2-1.22V141.2Z" class="cls-15"/><path id="Path-117" d="M224.39 139.46a1.21 1.21 0 0 0-1.19-1.22H221a5.49 5.49 0 0 0 3.43 1.27z" class="cls-12"/><path id="Path-118" d="M216.65 141.2a1.82 1.82 0 0 0-1.81 1.84v11.22a9.59 9.59 0 0 0 .52 3.18h7.83a1.21 1.21 0 0 0 1.2-1.22v-15z" class="cls-12"/><path id="Path-119" d="M216.65 141.2a1.82 1.82 0 0 0-1.81 1.84v11.46l6.34-.86c.67 0 2.45-.59 2.45-1.27v-11.14z" class="cls-12"/><path id="Path-120" d="M223.64 139.39v-2.52a1.22 1.22 0 0 0-1.2-1.24h-3.25a5.65 5.65 0 0 0 4.45 3.76z" class="cls-12"/><path id="Path-121" d="M223.64 139.39v-2.22a1.22 1.22 0 0 0-1.2-1.23h-3.15a5.65 5.65 0 0 0 4.35 3.45z" class="cls-16"/><path id="Path-122" d="M216.65 141.2a1.82 1.82 0 0 0-1.81 1.84v11.76l6.32-.85c.67 0 2.46-.6 2.46-1.27V141.2Z" class="cls-16"/></g><path id="Back_Plate-5" fill="#4b53bc" d="M206 136.19h16.08a1.63 1.63 0 0 1 1.61 1.64v16.44a1.63 1.63 0 0 1-1.61 1.64H206a1.62 1.62 0 0 1-1.61-1.64v-16.44a1.63 1.63 0 0 1 1.61-1.64z"/><path id="Path-123" d="M218.82 142.32h-3.6v9.89h-2.37v-9.89h-3.61v-2.43h9.58z" class="cls-17"/></g><g id="icon-app-Yammer-32px"><g id="Yammer_32x"><path id="Path-124" fill="#0c4f8f" d="M306.43 138.58a1 1 0 0 0-1.24-.76l-3.77 1a27.87 27.87 0 0 0-4.7-9.65 27.88 27.88 0 0 0-1.78-2.13 1 1 0 0 0-1.48 0l-10.51 10.53a.39.39 0 0 0-.08.1.51.51 0 0 0 .07.61 11.38 11.38 0 0 1 2.65 4.79 11.58 11.58 0 0 1 0 6 11.83 11.83 0 0 1-2.63 4.77.5.5 0 0 0 0 .71L293.44 165a1 1 0 0 0 .74.3 1 1 0 0 0 .73-.33 27.81 27.81 0 0 0 6.48-11.7l3.75 1a1 1 0 0 0 .79-.11 1 1 0 0 0 .47-.64 33.15 33.15 0 0 0 0-15z"/><path id="Path-125" d="M306.43 138.58a1.06 1.06 0 0 0-.47-.64 1 1 0 0 0-.8-.11l-19.6 5.24a11.58 11.58 0 0 1 0 6l19.59 5.26a1 1 0 0 0 .79-.11 1 1 0 0 0 .47-.64 33.15 33.15 0 0 0 0-15z" class="cls-3"/><path id="Path-126" d="M282.93 138.28a.53.53 0 0 1-.07-.61l.08-.1L293.46 127a1 1 0 0 1 .74-.3 1 1 0 0 1 .74.32 25.62 25.62 0 0 1 1.77 2.13 27.7 27.7 0 0 1 4.7 9.65l-15.82 4.22a11.41 11.41 0 0 0-2.66-4.78z" class="cls-5"/><path id="Path-127" fill="#06509b" d="M285.59 149a11.59 11.59 0 0 1-2.59 4.8.5.5 0 0 0 0 .71l10.5 10.5a1 1 0 0 0 1.48 0 27.69 27.69 0 0 0 6.47-11.7z"/><rect id="Rectangle-17" width="29.59" height="34.52" x="278.56" y="128.8" class="cls-1" rx="1.14" ry="1.14"/><g id="dropshadow-6" class="cls-10"><path id="Path-128" d="M290.27 155v-18a1.21 1.21 0 0 0-1.22-1.22h-4.38l-1.67 1.78-.08.1a.53.53 0 0 0 .07.61 11.38 11.38 0 0 1 2.65 4.79 11.58 11.58 0 0 1 0 6 11.25 11.25 0 0 1-.51 1.48 11.63 11.63 0 0 1-2.11 3.29.5.5 0 0 0 0 .71l1.71 1.71H289a1.39 1.39 0 0 0 1.3-1.18z" class="cls-11"/><path id="Path-129" d="M288.42 157.28v-16.62a1.62 1.62 0 0 0-1.64-1.58h-3.17a11 11 0 0 1 2 4 11.58 11.58 0 0 1 0 6 11.25 11.25 0 0 1-.51 1.48 11.41 11.41 0 0 1-2.1 3.24.5.5 0 0 0 0 .71l4.29 4.29a1.57 1.57 0 0 0 1.13-1.52z" class="cls-12"/><path id="Path-130" d="M288.42 156.13v-16.61a1.61 1.61 0 0 0-1.64-1.58h-4a.52.52 0 0 0 .12.34 11.38 11.38 0 0 1 2.65 4.79 11.58 11.58 0 0 1 0 6 11.25 11.25 0 0 1-.51 1.48 11.41 11.41 0 0 1-2.04 3.25.5.5 0 0 0 0 .71l3.21 3.21h.59a1.6 1.6 0 0 0 1.64-1.59z" class="cls-13"/><path id="Path-131" d="M289.79 155.42v-17.95a1.24 1.24 0 0 0-1.23-1.23h-4.29l-1.34 1.35a.36.36 0 0 0-.07.1.51.51 0 0 0 .06.61 11.13 11.13 0 0 1 2.65 4.78 11.47 11.47 0 0 1-2.57 10.73.51.51 0 0 0 0 .72l2.14 2.15h3.43a1.23 1.23 0 0 0 1.26-1.2.13.13 0 0 0-.04-.06z" class="cls-12"/><path id="Path-132" d="M289.77 155.74V138a1.22 1.22 0 0 0-1.22-1.23h-4.78l-.85.85a.76.76 0 0 0-.08.11.52.52 0 0 0 .07.61 11.29 11.29 0 0 1 2.65 4.78 11.58 11.58 0 0 1 0 6 11.74 11.74 0 0 1-2.63 4.78.49.49 0 0 0 0 .7l2.58 2.57h2.87a1.49 1.49 0 0 0 1.39-1.43z" class="cls-12"/><path id="Path-133" d="M288.42 156.68v-16.63a1.62 1.62 0 0 0-1.64-1.59h-3.67a11.82 11.82 0 0 1 2 3.11 12.67 12.67 0 0 1 .49 1.47 11.58 11.58 0 0 1 0 6 10.77 10.77 0 0 1-.51 1.48 11.46 11.46 0 0 1-2.11 3.3.49.49 0 0 0 0 .7l3.76 3.75a1.61 1.61 0 0 0 1.68-1.59z" class="cls-13"/><path id="Path-134" d="M288.42 154.53v-16.2a1.61 1.61 0 0 0-1.64-1.58h-3l-.86.85a.44.44 0 0 0-.08.11.52.52 0 0 0 .07.61 11.29 11.29 0 0 1 2.65 4.78 11.58 11.58 0 0 1 0 6 10.81 10.81 0 0 1-.52 1.48 11.46 11.46 0 0 1-2.11 3.3.49.49 0 0 0 0 .7l1.6 1.6h2.2a1.62 1.62 0 0 0 1.7-1.54z" class="cls-15"/><path id="Path-135" d="M288.42 154.43v-16.1a1.61 1.61 0 0 0-1.64-1.58h-3l-.86.85a.44.44 0 0 0-.08.11.52.52 0 0 0 .07.61 11.29 11.29 0 0 1 2.65 4.78 11.58 11.58 0 0 1 0 6 10.81 10.81 0 0 1-.52 1.48 11.46 11.46 0 0 1-2.11 3.3.49.49 0 0 0 0 .7l1.51 1.51h2.29a1.63 1.63 0 0 0 1.7-1.56z" class="cls-15"/><path id="Path-136" d="M288.42 155.34v-16.6a1.63 1.63 0 0 0-1.64-1.6h-3.43l-.43.43a.39.39 0 0 0-.08.1.51.51 0 0 0 .07.61 11.38 11.38 0 0 1 2.65 4.79 11.58 11.58 0 0 1 0 6 11.83 11.83 0 0 1-2.63 4.77.5.5 0 0 0 0 .71l2.41 2.42h1.39a1.63 1.63 0 0 0 1.65-1.59z" class="cls-15"/><path id="Path-137" d="M288.42 155.71V139.1a1.61 1.61 0 0 0-1.64-1.58h-3.83l-.08.1a.53.53 0 0 0 .07.61 11.38 11.38 0 0 1 2.65 4.79 11.58 11.58 0 0 1 0 6 11.25 11.25 0 0 1-.51 1.48 11.41 11.41 0 0 1-2.08 3.3.5.5 0 0 0 0 .71l2.79 2.79h1a1.6 1.6 0 0 0 1.64-1.59z" class="cls-13"/><path id="Path-138" d="M289.56 155.33v-16.79a1.24 1.24 0 0 0-1.22-1.24h-5.15l-.27.27a.86.86 0 0 0-.07.1.5.5 0 0 0 .07.61 11.38 11.38 0 0 1 2.65 4.79 11.41 11.41 0 0 1-2.63 10.72.51.51 0 0 0 0 .72l2 2.05h3.32a1.22 1.22 0 0 0 .86-.36 1.24 1.24 0 0 0 .36-.85z" class="cls-12"/><path id="Path-139" d="M288.61 154.93v-16.39a1.24 1.24 0 0 0-1.23-1.24h-4.17l-.27.27-.08.1a.53.53 0 0 0 .07.61 11.38 11.38 0 0 1 2.65 4.79 11.44 11.44 0 0 1-2.58 10.72.52.52 0 0 0 0 .72l1.64 1.64h2.77a1.23 1.23 0 0 0 1.24-1.21z" class="cls-13"/><path id="Path-140" d="M288.79 154.27V138c0-.73-1.66-1.13-1.85-1.34a3.57 3.57 0 0 0-1.72-.43h-1l-1.33 1.33-.08.1a.53.53 0 0 0 .07.61 11.35 11.35 0 0 1 2.65 4.78 11.58 11.58 0 0 1 0 6 11.44 11.44 0 0 1-2.62 4.78.49.49 0 0 0 0 .7l1 1h3.62a1.22 1.22 0 0 0 1.26-1.26z" class="cls-15"/><path id="Path-141" d="M289.15 156.21v-16.79a1.22 1.22 0 0 0-1.23-1.22h-5v.08a11.38 11.38 0 0 1 2.65 4.79 11.58 11.58 0 0 1 0 6 11.83 11.83 0 0 1-2.63 4.77.5.5 0 0 0 0 .71l2.94 2.94h2a1.2 1.2 0 0 0 .86-.36 1.29 1.29 0 0 0 .41-.92z" class="cls-12"/><path id="Path-142" d="M288.42 152.36v-15.49a1.23 1.23 0 0 0-1.23-1.24h-2.28l-1.91 1.94a.39.39 0 0 0-.08.1.51.51 0 0 0 .07.61 11.38 11.38 0 0 1 2.65 4.79 11.58 11.58 0 0 1 0 6 11.83 11.83 0 0 1-2.64 4.73.52.52 0 0 0-.14.35l3-.55c.7.03 2.56-.6 2.56-1.24z" class="cls-12"/><path id="Path-143" d="M288.42 152.67v-15.5a1.23 1.23 0 0 0-1.23-1.23h-2.58l-1.61 1.63a.86.86 0 0 0-.07.1.5.5 0 0 0 .07.61 11.38 11.38 0 0 1 2.65 4.79 11.58 11.58 0 0 1 0 6 11.83 11.83 0 0 1-2.65 4.73.52.52 0 0 0-.14.35.5.5 0 0 0 .12.33l2.94-.54c.64 0 2.5-.59 2.5-1.27z" class="cls-16"/></g><path id="Back_Plate-6" d="M270.34 136.19h16.44a1.65 1.65 0 0 1 1.64 1.64v16.44a1.65 1.65 0 0 1-1.64 1.64h-16.44a1.65 1.65 0 0 1-1.64-1.64v-16.44a1.65 1.65 0 0 1 1.64-1.64z" class="cls-3"/><path id="Path-144" d="M278.45 145.27a3.21 3.21 0 0 1 .27.73 3.34 3.34 0 0 1 .26-.71l2.45-4.63a1.1 1.1 0 0 1 .95-.56 1.07 1.07 0 0 1 .94 1.61l-3.39 5.9a1.14 1.14 0 0 0-.14.54v3a1.09 1.09 0 0 1-1.08 1.08h-.22a1.08 1.08 0 0 1-1.08-1.08v-2.95a1 1 0 0 0-.14-.53l-3.32-6a1.06 1.06 0 0 1 .4-1.46 1.11 1.11 0 0 1 .54-.14h.21a1.08 1.08 0 0 1 1 .58z" class="cls-32"/></g></g><path id="_2" d="M316 80.41a5.94 5.94 0 0 1-.21 1.57 4.68 4.68 0 0 1-1.6 2.52 4.77 4.77 0 0 1-1.39.78 5 5 0 0 1-1.42.28l-1.45.09v4.77l-3.57-.42V75.89l2.5-.18c.85-.06 1.66-.09 2.51-.09a4.52 4.52 0 0 1 3.49 1.26 5 5 0 0 1 1.14 3.53zm1.13-8.75h16.17v22.65h-16.15z" class="cls-17"/><g id="Powerpoint_32x"><path id="Circle" fill="#d35230" d="M322.61 68.2a17.24 17.24 0 0 1 17.26 17.24 17.25 17.25 0 0 1-17.25 17.26 17.25 17.25 0 0 1-17.25-17.26 17.25 17.25 0 0 1 17.24-17.24Z"/><path id="Path-145" fill="#ed6c47" d="M322.61 68.2a17.28 17.28 0 0 0-17.25 17.25h17.25z"/><path id="Path-146" fill="#ff8f6b" d="M322.61 68.2a17.29 17.29 0 0 1 17.26 17.25h-17.26z"/><g id="dropshadow-7" class="cls-10"><path id="Path-147" d="M308.7 95.67h11.94a1.27 1.27 0 0 0 1.36-1.23v-18a1.27 1.27 0 0 0-1.31-1.23h-12a17.1 17.1 0 0 0-3.05 6.79v6.86a17.16 17.16 0 0 0 3.06 6.86z" class="cls-11"/><path id="Path-148" d="M311.11 98.26h7.18c1 0 1.72-2.07 1.72-3V80.07a1.72 1.72 0 0 0-1.72-1.59h-11.44a17.13 17.13 0 0 0 4.29 19.78z" class="cls-12"/><path id="Path-149" d="M310 97.12h8.34a1.71 1.71 0 0 0 1.66-1.58V78.93a1.72 1.72 0 0 0-1.72-1.59H307.4a17.14 17.14 0 0 0 2.6 19.78z" class="cls-13"/><path id="Path-150" d="M309.05 96.06h11.14a1.28 1.28 0 0 0 1.32-1.23v-18a1.29 1.29 0 0 0-1.31-1.26h-11.74a17.11 17.11 0 0 0 .59 20.49z" class="cls-12"/><path id="Path-151" d="M309 96.38h10.88c.73 0 1.31-1.61 1.31-2.3V77.37a1.27 1.27 0 0 0-1.31-1.23h-12A17.16 17.16 0 0 0 309 96.38Z" class="cls-12"/><path id="Path-152" d="m307.46 93.68 9.88-1c.72 0 2.66-.59 2.66-1.27V75.92a1.28 1.28 0 0 0-1.31-1.24h-9.52a17.14 17.14 0 0 0-1.72 19z" class="cls-14"/><path id="Path-153" d="M310.46 97.67h7.83a1.72 1.72 0 0 0 1.71-1.58V79.45a1.72 1.72 0 0 0-1.72-1.59h-11.14a17.12 17.12 0 0 0 3.32 19.79z" class="cls-13"/><path id="Path-154" d="M308.64 95.52h9.65a1.72 1.72 0 0 0 1.71-1.59v-16.2a1.72 1.72 0 0 0-1.72-1.58h-10.13a17.05 17.05 0 0 0 .52 19.37z" class="cls-15"/><path id="Path-155" d="M308.57 95.43h9.72a1.73 1.73 0 0 0 1.72-1.6v-16.1a1.72 1.72 0 0 0-1.72-1.58h-10.14a17.06 17.06 0 0 0 .44 19.28z" class="cls-15"/><path id="Path-156" d="M309.25 96.33h9a1.72 1.72 0 0 0 1.75-1.59v-16.6a1.73 1.73 0 0 0-1.72-1.6h-10.41a17.14 17.14 0 0 0 1.38 19.79z" class="cls-15"/><path id="Path-157" d="M309.58 96.7h8.71a1.71 1.71 0 0 0 1.71-1.58V78.51a1.72 1.72 0 0 0-1.72-1.59h-10.63a17.07 17.07 0 0 0 1.93 19.78z" class="cls-13"/><path id="Path-158" d="M308.72 96h11c.73 0 1.31-1.2 1.31-1.88V78a1.27 1.27 0 0 0-1.31-1.23h-12.19A17 17 0 0 0 308.72 96Z" class="cls-12"/><path id="Path-159" d="M308.67 95.55H319a1.26 1.26 0 0 0 1.31-1.22V77.94a1.27 1.27 0 0 0-1.31-1.23h-11.19a17 17 0 0 0 .86 18.84z" class="cls-13"/><path id="Path-160" d="M308.21 94.89h10.91a1.27 1.27 0 0 0 1.31-1.23V77.37c0-.73-1.77-1.14-2-1.35a4.09 4.09 0 0 0-1.82-.43h-8.19a17.15 17.15 0 0 0-.21 19.3z" class="cls-15"/><path id="Path-161" d="M309.71 96.85h9.8a1.27 1.27 0 0 0 1.3-1.24V78.82a1.26 1.26 0 0 0-1.29-1.22h-12.23a17.07 17.07 0 0 0 2.42 19.25z" class="cls-12"/><path id="Path-162" d="m307.66 94 9.68-1c.72 0 2.66-.59 2.66-1.27V76.27a1.28 1.28 0 0 0-1.31-1.27h-9.78a17.07 17.07 0 0 0-1.25 19z" class="cls-12"/><path id="Path-163" d="m307.84 94.29 9.5-1c.72 0 2.66-.59 2.66-1.27v-14c0-.69-1.23-2.72-2.58-2.72h-8.74a17 17 0 0 0-.86 19z" class="cls-16"/></g><path id="Back_Plate-7" fill="#c43e1c" d="M302.07 75.59h16.43a1.65 1.65 0 0 1 1.65 1.65v16.43a1.64 1.64 0 0 1-1.65 1.64h-16.43a1.63 1.63 0 0 1-1.64-1.64V77.24a1.64 1.64 0 0 1 1.64-1.65z"/><path id="Shape-5" d="M310.33 79.29a5.13 5.13 0 0 1 3.43 1 3.57 3.57 0 0 1 1.18 2.87 3.42 3.42 0 0 1-.59 2 4 4 0 0 1-1.65 1.46 5.63 5.63 0 0 1-2.49.52h-2.36v4.46h-2.41V79.29Zm-2.51 5.77h2.08a2.77 2.77 0 0 0 1.84-.55 1.38 1.38 0 0 0 .62-1.26c0-1.37-.79-2-2.38-2h-2.16z" class="cls-32"/></g><path id="Rectangle-32" fill="#d8d8d8" fill-opacity="0" d="M139.64 125.9h38.59v38.59h-38.59z"/><g id="icon-app-SharePoint-32px"><g id="Sharepoint_32"><circle id="Oval-3" cx="157.7" cy="139.76" r="11.71" fill="#036c70"/><circle id="Oval-4" cx="168.64" cy="150.08" r="10.02" fill="#1a9ba1"/><circle id="Oval-5" cx="158.93" cy="159.48" r="8.01" fill="#37c6d0"/><g id="dropshadow-8" class="cls-10"><path id="Path-164" d="M159.56 137.56h-12.29a.61.61 0 0 0-.62.6v5.44a11.7 11.7 0 0 0 11 7.85c.34 0 .68 0 1-.05v.06A8 8 0 0 0 151 158h8.5c.67 0 1.22-1.35 1.22-2.83v-16.38a1.22 1.22 0 0 0-1.16-1.23z" class="cls-11"/><path id="Path-165" d="M157.29 140.79h-11.22a11.69 11.69 0 0 0 11.65 10.67c.35 0 .69 0 1-.05v.06a8 8 0 0 0-7.8 8.11c0 .34 0 .67.08 1h6.29A1.63 1.63 0 0 0 159 159v-16.62a1.64 1.64 0 0 0-1.67-1.59z" class="cls-12"/><path id="Path-166" d="M157.29 139.65H146v.11a11.7 11.7 0 0 0 11.71 11.7c.34 0 .68 0 1-.05v.06a8 8 0 0 0-7.82 8h6.37a1.62 1.62 0 0 0 1.64-1.59v-16.64a1.62 1.62 0 0 0-1.61-1.59z" class="cls-13"/><path id="Path-167" d="M159.07 137.94h-12.29a.62.62 0 0 0-.62.62v3.13a11.7 11.7 0 0 0 11.54 9.77c.34 0 .68 0 1-.05v.06a8 8 0 0 0-7.72 6.9h8.07a1.22 1.22 0 0 0 1.22-1.23v-17.95a1.23 1.23 0 0 0-1.21-1.25z" class="cls-12"/><path id="Path-168" d="M159 138.45h-12.24a.61.61 0 0 0-.61.61v2.5a11.68 11.68 0 0 0 11.55 9.89c.34 0 .68 0 1-.05v.06a8 8 0 0 0-7.78 7.22H159a1.23 1.23 0 0 0 1.23-1.23v-17.76a1.24 1.24 0 0 0-1.22-1.24z" class="cls-12"/><path id="Path-169" d="M146.33 137a11.69 11.69 0 0 0 11.37 14.47c.34 0 .68 0 1-.05v.06a8 8 0 0 0-6.77 4.06l4.43-.53c.67 0 2.5-.59 2.5-1.27v-15.5a1.26 1.26 0 0 0-1.24-1.24Z" class="cls-14"/><path id="Path-170" d="M157.29 140.2H146a11.7 11.7 0 0 0 11.69 11.26c.34 0 .68 0 1-.05v.06a8 8 0 0 0-7.82 8v.53h6.34a1.62 1.62 0 0 0 1.68-1.56v-16.68a1.62 1.62 0 0 0-1.6-1.56z" class="cls-13"/><path id="Path-171" d="M157.29 138.46h-11.22a11.69 11.69 0 0 0 10.3 12.93 11.9 11.9 0 0 0 1.34.07c.34 0 .68 0 1-.05v.06a8 8 0 0 0-7.65 6.36h6.2a1.61 1.61 0 0 0 1.64-1.58v-16.2a1.62 1.62 0 0 0-1.61-1.59z" class="cls-15"/><path id="Path-172" d="M157.29 138.46h-11.22a11.69 11.69 0 0 0 10.3 12.93 11.9 11.9 0 0 0 1.34.07c.34 0 .68 0 1-.05v.06a8 8 0 0 0-7.63 6.27h6.18a1.63 1.63 0 0 0 1.64-1.6v-16.09a1.62 1.62 0 0 0-1.61-1.59z" class="cls-15"/><path id="Path-173" d="M157.29 138.86h-11.22v.85a11.7 11.7 0 0 0 11.7 11.71h1v.06a8 8 0 0 0-7.77 7.12h6.32A1.63 1.63 0 0 0 159 157v-16.55a1.62 1.62 0 0 0-1.66-1.59z" class="cls-15"/><path id="Path-174" d="M157.29 139.23H146v.53a11.7 11.7 0 0 0 11.7 11.7c.35 0 .69 0 1-.05v.06A8 8 0 0 0 151 159h6.34a1.63 1.63 0 0 0 1.65-1.59v-16.59a1.62 1.62 0 0 0-1.65-1.59z" class="cls-13"/><path id="Path-175" d="M158.85 139h-12.29a.6.6 0 0 0-.55.34v.4a11.7 11.7 0 0 0 11.7 11.7c.35 0 .69 0 1-.05v.06a8 8 0 0 0-7.71 6.81h7.83a4.8 4.8 0 0 0 1.22-3.12v-14.89a1.23 1.23 0 0 0-1.23-1.23z" class="cls-12"/><path id="Path-176" d="M157.89 139h-11.82v.74a11.7 11.7 0 0 0 11.7 11.7c.35 0 .69 0 1-.05v.06a8 8 0 0 0-7.65 6.4H158a1.23 1.23 0 0 0 1.23-1.23v-16.37A1.23 1.23 0 0 0 158 139Z" class="cls-13"/><path id="Path-177" d="M157.45 138.38a3.68 3.68 0 0 0-1.72-.43h-9.59a11.63 11.63 0 0 0 9.6 13.36 10.65 10.65 0 0 0 2 .15c.34 0 .68 0 1-.05v.06a8 8 0 0 0-7.52 5.73h6.86a1.23 1.23 0 0 0 1.22-1.2v-16.32c0-.68-1.66-1.08-1.85-1.3z" class="cls-15"/><path id="Path-178" d="M158.44 139.91H146a11.7 11.7 0 0 0 11.7 11.53 9 9 0 0 0 1-.06v.06a8 8 0 0 0-7.81 7.72h7.51a1.22 1.22 0 0 0 1.22-1.22v-16.8a1.23 1.23 0 0 0-1.22-1.23z" class="cls-12"/><path id="Path-179" d="M146.24 137.35a11.7 11.7 0 0 0 9 13.86 11.47 11.47 0 0 0 2.41.25c.34 0 .68 0 1-.05v.06a8 8 0 0 0-7 4.42l4.63-.54c.67 0 2.5-.6 2.5-1.27v-15.5a1.23 1.23 0 0 0-1.24-1.23z" class="cls-12"/><path id="Path-180" d="M146.19 137.65a11.66 11.66 0 0 0 9.32 13.61 11.44 11.44 0 0 0 2.19.2c.34 0 .68 0 1-.05v.06a8 8 0 0 0-7.12 4.75l4.78-.57c.67 0 2.5-.59 2.5-1.26v-15.5a1.24 1.24 0 0 0-1.24-1.24z" class="cls-16"/></g><path id="Back_Plate-8" fill="#03787c" d="M140.86 137.9h16.43a1.64 1.64 0 0 1 1.64 1.65V156a1.64 1.64 0 0 1-1.64 1.65h-16.43a1.65 1.65 0 0 1-1.65-1.65v-16.45a1.65 1.65 0 0 1 1.65-1.65z"/><path id="Path-181" d="M146.82 147.66a3.28 3.28 0 0 1-1-1 3 3 0 0 1-.34-1.43 2.73 2.73 0 0 1 .64-1.85 3.82 3.82 0 0 1 1.71-1.11 7.3 7.3 0 0 1 2.32-.36 9 9 0 0 1 3.05.43v2.16a4.5 4.5 0 0 0-1.38-.56 6.76 6.76 0 0 0-1.61-.2 3.52 3.52 0 0 0-1.66.35 1.11 1.11 0 0 0-.66 1 1 1 0 0 0 .28.7 2.82 2.82 0 0 0 .74.54l1.42.62.2.08a11.67 11.67 0 0 1 1.78.86 2.87 2.87 0 0 1 1.43 2.66 3 3 0 0 1-.6 1.92 3.3 3.3 0 0 1-1.6 1.07 7.37 7.37 0 0 1-2.28.34 11.86 11.86 0 0 1-2.06-.18 7.46 7.46 0 0 1-1.72-.48v-2.28a5.54 5.54 0 0 0 1.72.81 6.59 6.59 0 0 0 1.87.3 3.26 3.26 0 0 0 1.71-.36 1.15 1.15 0 0 0 .58-1 1.07 1.07 0 0 0-.33-.78 3.16 3.16 0 0 0-.85-.61c-.38-.19-.94-.44-1.67-.75a9 9 0 0 1-1.69-.89z" class="cls-17"/></g></g><g id="v"><g id="Outlook_32x"><circle id="Oval" cx="81.4" cy="86.44" r="1.09" class="cls-42"/><circle id="circle225" cx="51.98" cy="86.27" r="1.31" class="cls-42"/><path id="Shape" d="M66.8 86.27H51.54V87l14.2 7.8.19.1a2 2 0 0 0 1.74 0l.19-.1 14.2-7.8v-.73H66.8" class="cls-42"/><path id="path228" d="M66.8 86.27H51.54v-.73l14.2-7.8.19-.1a2 2 0 0 1 1.74 0l.19.1L82 85.55v.72H66.8" class="cls-42"/><rect id="Rectangle-path" width="26.11" height="32.61" x="53.76" y="68.68" class="cls-5" rx="1.84" ry="1.84"/><path id="path231" fill="#14447d" d="M53.76 87.53h10.42v7.86H53.76Z"/><path id="path233" d="M62.88 87.53h9.15v7.86h-9.15z" class="cls-2"/><path id="path235" fill="#0664b2" d="M53.76 79.96h9.12v7.57h-9.12z"/><path id="path237" d="M72.03 87.53h7.85v7.86h-7.85zm-9.15-7.57h9.15v7.57h-9.15Zm-9.12-7.56h9.12v7.56h-9.12z" class="cls-3"/><path id="path239" fill="#50d9ff" d="M72.03 72.4h7.85v7.56h-7.85z"/><path id="path241" fill="#0358a7" d="M55.6 68.68H78a1.89 1.89 0 0 1 1.3.52 1.75 1.75 0 0 1 .54 1.25v2H53.76v-2a1.81 1.81 0 0 1 1.84-1.77z"/><path id="Envelope" fill="url(#linear-gradient)" d="m82.06 87-14.2 7.79a1.18 1.18 0 0 1-.19.11 2 2 0 0 1-1.74 0 1.18 1.18 0 0 1-.19-.11L51.56 87a.83.83 0 0 1-.43-.73V102a1.92 1.92 0 0 0 2 1.89h27.4a1.92 1.92 0 0 0 2-1.89V86.27a.83.83 0 0 1-.43.73Z"/><path id="path244" fill="#0a2767" d="M66.8 95.1a2 2 0 0 1-.87-.2l-14.3-7.85.64-1.1s14 7.72 14.27 7.83a.7.7 0 0 0 .55 0l14.3-7.86L82 87l-14.33 7.9a2 2 0 0 1-.87.2z" opacity=".5" style="isolation:isolate"/><path id="path246" d="M53.07 103.92h27.46a2.07 2.07 0 0 0 1.16-.36L65.93 94.9a1.18 1.18 0 0 1-.19-.11L51.56 87l-.44-.24V102a1.92 1.92 0 0 0 1.95 1.92z" class="cls-5"/><g id="dropshadow" class="cls-10"><path id="path248" d="M63.13 76.18H52.54a.57.57 0 0 0-.08.28v19.63a.66.66 0 0 0 .66.64h9.11a1.29 1.29 0 0 0 1.31-1.27V77.09a1.23 1.23 0 0 0-.41-.91z" class="cls-11"/><path id="path250" d="M59.83 79.14h-8.72v20.24h8.72a1.69 1.69 0 0 0 1.74-1.63v-17a1.69 1.69 0 0 0-1.74-1.61z" class="cls-12"/><path id="path252" d="M59.83 78h-8.72v20.21h8.72a1.69 1.69 0 0 0 1.74-1.62v-17A1.69 1.69 0 0 0 59.83 78Z" class="cls-13"/><path id="path254" d="M61.71 76.22H52.6a.65.65 0 0 0-.66.63v19.64a.65.65 0 0 0 .66.63h9.11A1.29 1.29 0 0 0 63 95.86V77.48a1.29 1.29 0 0 0-1.29-1.26z" class="cls-12"/><path id="path256" d="M61.69 76.74h-9.11a.65.65 0 0 0-.66.63v19.44a.65.65 0 0 0 .66.63l9 .15A1.56 1.56 0 0 0 63 96.18V78a1.29 1.29 0 0 0-1.31-1.26z" class="cls-12"/><path id="path258" d="M51.11 76.18v15.56H51v2.58a.64.64 0 0 0 .65.63l7.24-1.28c.72 0 2.66-.6 2.66-1.3V76.52a1.28 1.28 0 0 0-.07-.34z" class="cls-14"/><path id="path260" d="M59.83 78.53h-8.72v20.24h8.72a1.69 1.69 0 0 0 1.74-1.63v-17a1.69 1.69 0 0 0-1.74-1.61z" class="cls-13"/><path id="path262" d="M59.83 76.75h-8.72v19.82h8.72a1.7 1.7 0 0 0 1.74-1.63V78.38a1.7 1.7 0 0 0-1.74-1.63z" class="cls-15"/><path id="path264" d="M59.83 76.75h-8.72v19.72h8.72a1.69 1.69 0 0 0 1.74-1.63V78.38a1.7 1.7 0 0 0-1.74-1.63z" class="cls-15"/><path id="path266" d="M59.83 77.16h-8.72V97.4h8.72a1.7 1.7 0 0 0 1.74-1.63v-17a1.69 1.69 0 0 0-1.74-1.61z" class="cls-15"/><path id="path268" d="M59.83 77.54h-8.72v20.24h8.72a1.69 1.69 0 0 0 1.74-1.63v-17a1.69 1.69 0 0 0-1.74-1.61z" class="cls-13"/><path id="path270" d="M61.47 77.32h-9.11a.64.64 0 0 0-.65.63v18.44a.64.64 0 0 0 .65.63h9.11a1.28 1.28 0 0 0 1.31-1.26V78.58a1.29 1.29 0 0 0-1.31-1.26z" class="cls-12"/><path id="path272" d="M60.47 77.32h-9.12a.64.64 0 0 0-.24.05v19.19a.64.64 0 0 0 .24 0h9.12a1.28 1.28 0 0 0 1.3-1.26V78.58a1.28 1.28 0 0 0-1.3-1.26z" class="cls-13"/><path id="path274" d="M58.18 76.23h-6.64a.64.64 0 0 0-.65.63V95.3a.64.64 0 0 0 .65.63h9.12A1.28 1.28 0 0 0 62 94.67V78.05c0-.75-1.77-1.16-2-1.38a4 4 0 0 0-1.82-.44z" class="cls-15"/><path id="path276" d="M61 78.23h-9.08a.64.64 0 0 0-.65.63V97.3a.64.64 0 0 0 .65.63H61a1.29 1.29 0 0 0 1.31-1.26V79.49A1.29 1.29 0 0 0 61 78.23Z" class="cls-12"/><path id="path278" d="M60.22 75.61h-6.5v5.61h-2.61v10.87H51v2.59a.64.64 0 0 0 .65.63L58.87 94c.72 0 2.66-.61 2.66-1.3V76.87a1.29 1.29 0 0 0-1.31-1.26z" class="cls-12"/><path id="path280" d="M60.22 75.92h-6.5v5.3h-2.61v11.19H51V95a.64.64 0 0 0 .65.63l7.24-1.28c.72 0 2.66-.6 2.66-1.3V77.19a1.29 1.29 0 0 0-1.33-1.27z" class="cls-16"/></g><path id="Back_Plate" d="M42.39 76.18h17.44a1.71 1.71 0 0 1 1.74 1.68v16.82a1.62 1.62 0 0 1-.51 1.18 1.77 1.77 0 0 1-1.23.5H42.39a1.75 1.75 0 0 1-1.23-.5 1.63 1.63 0 0 1-.52-1.18V77.86a1.72 1.72 0 0 1 1.75-1.68z" class="cls-3"/><use xlink:href="#path284" class="cls-17"/><use xlink:href="#path284" id="Group" class="cls-17" opacity=".4"/><path id="path287" fill="url(#linearGradient525)" d="M45.66 83.12a5.4 5.4 0 0 1 2.17-2.32 6.82 6.82 0 0 1 3.46-.8 6.26 6.26 0 0 1 3.2.8 5.37 5.37 0 0 1 2.12 2.2 7 7 0 0 1 .74 3.26 7.37 7.37 0 0 1-.77 3.41 5.4 5.4 0 0 1-2.18 2.29 7.15 7.15 0 0 1-6.59 0 5.51 5.51 0 0 1-2.14-2.22 6.81 6.81 0 0 1-.75-3.22 7.5 7.5 0 0 1 .74-3.38zM48 88.56a3.42 3.42 0 0 0 1.22 1.52 3.24 3.24 0 0 0 1.91.56 3.39 3.39 0 0 0 2-.57 3.3 3.3 0 0 0 1.19-1.53 5.77 5.77 0 0 0 .38-2.13 6.16 6.16 0 0 0-.36-2.16 3.38 3.38 0 0 0-1.14-1.58 3.26 3.26 0 0 0-2-.6 3.34 3.34 0 0 0-1.95.56A3.54 3.54 0 0 0 48 84.16a5.92 5.92 0 0 0 0 4.4z"/><path id="path289" fill="url(#linear-gradient-3)" d="M45.66 83.12a5.4 5.4 0 0 1 2.17-2.32 6.82 6.82 0 0 1 3.46-.8 6.26 6.26 0 0 1 3.2.8 5.37 5.37 0 0 1 2.12 2.2 7 7 0 0 1 .74 3.26 7.37 7.37 0 0 1-.77 3.41 5.4 5.4 0 0 1-2.18 2.29 7.15 7.15 0 0 1-6.59 0 5.51 5.51 0 0 1-2.14-2.22 6.81 6.81 0 0 1-.75-3.22 7.5 7.5 0 0 1 .74-3.38zM48 88.56a3.42 3.42 0 0 0 1.22 1.52 3.24 3.24 0 0 0 1.91.56 3.39 3.39 0 0 0 2-.57 3.3 3.3 0 0 0 1.19-1.53 5.77 5.77 0 0 0 .38-2.13 6.16 6.16 0 0 0-.36-2.16 3.38 3.38 0 0 0-1.14-1.58 3.26 3.26 0 0 0-2-.6 3.34 3.34 0 0 0-1.95.56A3.54 3.54 0 0 0 48 84.16a5.92 5.92 0 0 0 0 4.4z"/></g></g></g></g></svg>