<svg xmlns:xlink="http://www.w3.org/1999/xlink" viewBox="0 0 324 234">
  <defs>
    <path id="reuse-5" fill="#e6e6e6" fill-rule="evenodd" d="M-40.25-65.753906A4.0037799 4.0037799 0 00-44.253906-61.75a4.0037799 4.0037799 0 001.376953 3.017578 4.0037799 4.0037799 0 01-.167969-.234375 4.0037799 4.0037799 0 01-.199219-.347656 4.0037799 4.0037799 0 01-.162109-.365235 4.0037799 4.0037799 0 01-.126953-.378906 4.0037799 4.0037799 0 01-.08789-.390625 4.0037799 4.0037799 0 01-.04883-.398437 4.0037799 4.0037799 0 01-.0098-.283203 4.0037799 4.0037799 0 01.02148-.398438 4.0037799 4.0037799 0 01.05859-.396484 4.0037799 4.0037799 0 01.09961-.388672 4.0037799 4.0037799 0 01.136719-.375 4.0037799 4.0037799 0 01.173828-.361328 4.0037799 4.0037799 0 01.208984-.339844 4.0037799 4.0037799 0 01.242188-.318359 4.0037799 4.0037799 0 01.273437-.292969 4.0037799 4.0037799 0 01.300782-.263672A4.0037799 4.0037799 0 01-41.837934-64.5a4.0037799 4.0037799 0 01.345703-.199219 4.0037799 4.0037799 0 01.365235-.162109 4.0037799 4.0037799 0 01.380859-.126953 4.0037799 4.0037799 0 01.390625-.08789 4.0037799 4.0037799 0 01.396485-.04883 4.0037799 4.0037799 0 01.283203-.0098 4.0037799 4.0037799 0 01.40039.02148 4.0037799 4.0037799 0 01.394532.05859 4.0037799 4.0037799 0 01.388671.09961 4.0037799 4.0037799 0 01.376954.136719 4.0037799 4.0037799 0 01.359375.173828 4.0037799 4.0037799 0 01.341797.208984 4.0037799 4.0037799 0 01.318359.242188 4.0037799 4.0037799 0 01.04492.04102 4.0037799 4.0037799 0 00-3.199219-1.601562z" paint-order="markers fill stroke"/>
    <path id="reuse-4" fill="#333" fill-rule="evenodd" d="M-43.982422-58.504579a5.004725 5.004725 0 003.931641 1.908203 5.004725 5.004725 0 005.003906-5.003906A5.004725 5.004725 0 00-37-65.56122a5.004725 5.004725 0 01.283203.396485 5.004725 5.004725 0 01.25.433594 5.004725 5.004725 0 01.205078.457031 5.004725 5.004725 0 01.15625.474609 5.004725 5.004725 0 01.109376.488281 5.004725 5.004725 0 01.06055.496094 5.004725 5.004725 0 01.01367.353516 5.004725 5.004725 0 01-.02539.5 5.004725 5.004725 0 01-.07422.49414 5.004725 5.004725 0 01-.125.486329 5.004725 5.004725 0 01-.171875.46875 5.004725 5.004725 0 01-.216797.451171 5.004725 5.004725 0 01-.261719.425782 5.004725 5.004725 0 01-.302734.398437 5.004725 5.004725 0 01-.339844.365235 5.004725 5.004725 0 01-.376953.332031 5.004725 5.004725 0 01-.40625.291015 5.004725 5.004725 0 01-.433594.248047 5.004725 5.004725 0 01-.457031.205079 5.004725 5.004725 0 01-.474609.15625 5.004725 5.004725 0 01-.488282.109374 5.004725 5.004725 0 01-.496093.06055 5.004725 5.004725 0 01-.355469.01367 5.004725 5.004725 0 01-.5-.02539 5.004725 5.004725 0 01-.494141-.07422 5.004725 5.004725 0 01-.484375-.125 5.004725 5.004725 0 01-.470703-.171875 5.004725 5.004725 0 01-.449219-.216797 5.004725 5.004725 0 01-.427734-.261719 5.004725 5.004725 0 01-.228517-.173828z" paint-order="markers fill stroke"/>
    <path id="reuse-3" d="M12.02987606-91.28993426l.49497474.49497474L-1.61728482-76.6528239l-.49497474-.49497474z"/>
    <path id="reuse-2" d="M15.206297-84.321376v.69999999h-20v-.69999999z"/>
    <path id="reuse-1" d="M12.52485223-77.14779581l-.49497474.49497474L-2.11225814-90.7949567l.49497474-.49497474z"/>
    <path id="reuse-0" d="M4.856297-93.971378h.69999999v20H4.856297z"/>
  </defs>
  <defs>
    <linearGradient id="M">
      <stop offset="0" stop-color="#dfebf4" stop-opacity=".49019608"/>
      <stop offset="1" stop-color="#e0e0e0" stop-opacity="0"/>
    </linearGradient>
    <linearGradient id="K">
      <stop offset="0" stop-color="#5c331a"/>
      <stop offset="1" stop-color="#462713"/>
    </linearGradient>
    <linearGradient id="L">
      <stop offset="0" stop-color="#04081d"/>
      <stop offset="1" stop-color="#4f5237" stop-opacity=".98039216"/>
    </linearGradient>
    <linearGradient id="J">
      <stop offset="0" stop-color="#fff" stop-opacity=".16037735"/>
      <stop offset="1" stop-color="#261106" stop-opacity="0"/>
    </linearGradient>
    <linearGradient id="I">
      <stop offset="0" stop-color="#fff" stop-opacity=".3018868"/>
      <stop offset="1" stop-color="#261106" stop-opacity="0"/>
    </linearGradient>
    <linearGradient id="G" x1="-1.455352" x2="181.728165" y1="64.761543" y2="64.761543" gradientTransform="scale(1.8)" gradientUnits="userSpaceOnUse">
      <stop offset="0" stop-color="#6c3a18"/>
      <stop offset="1" stop-color="#71650f" stop-opacity="0"/>
    </linearGradient>
    <linearGradient id="H">
      <stop offset="0" stop-color="#6c3a18"/>
      <stop offset="1" stop-color="#512b12"/>
    </linearGradient>
    <linearGradient id="F" x1="-1.455352" x2="181.728165" y1="64.761543" y2="64.761543" gradientTransform="scale(1.8)" gradientUnits="userSpaceOnUse">
      <stop offset="0" stop-color="#6c3a18"/>
      <stop offset="1" stop-color="#71340f" stop-opacity="0"/>
    </linearGradient>
    <linearGradient id="E">
      <stop offset="0" stop-color="#0a151d"/>
      <stop offset=".45176265" stop-color="#235072"/>
      <stop offset="1" stop-color="#152d3f"/>
    </linearGradient>
    <linearGradient id="D">
      <stop offset="0" stop-color="#6b3210"/>
      <stop offset="1" stop-color="#261106"/>
    </linearGradient>
    <linearGradient id="C">
      <stop offset="0" stop-color="#535250"/>
      <stop offset="1" stop-color="#c6c2bf"/>
    </linearGradient>
    <linearGradient id="B">
      <stop offset="0" stop-color="#a45c2d"/>
      <stop offset="1" stop-color="#573118"/>
    </linearGradient>
    <linearGradient id="A">
      <stop offset="0" stop-color="#8ab2d8" stop-opacity=".68867922"/>
      <stop offset="1" stop-color="#8ab2d8" stop-opacity="0"/>
    </linearGradient>
    <linearGradient id="x">
      <stop offset="0" stop-color="#defefd"/>
      <stop offset="1" stop-color="#84bad6"/>
    </linearGradient>
    <linearGradient id="y">
      <stop offset="0" stop-color="#ecfafe" stop-opacity=".81132078"/>
      <stop offset="1" stop-color="#cdf2fe" stop-opacity="0"/>
    </linearGradient>
    <linearGradient id="w">
      <stop offset="0" stop-color="#defefd"/>
      <stop offset="1" stop-color="#7f9dc2"/>
    </linearGradient>
    <linearGradient id="v">
      <stop offset="0" stop-color="#91b3d8"/>
      <stop offset="1" stop-color="#7f9dc2"/>
    </linearGradient>
    <linearGradient id="u">
      <stop offset="0" stop-color="#fff"/>
      <stop offset="1" stop-color="#fff" stop-opacity="0"/>
    </linearGradient>
    <linearGradient id="s">
      <stop offset="0"/>
      <stop offset=".50273818" stop-color="#a3a3a3"/>
      <stop offset="1"/>
    </linearGradient>
    <linearGradient id="r">
      <stop offset="0" stop-color="#f5a533"/>
      <stop offset="1" stop-color="#fff" stop-opacity="0"/>
    </linearGradient>
    <linearGradient id="t">
      <stop offset="0" stop-color="#6a3010"/>
      <stop offset=".25619835" stop-color="#ca8a3b"/>
      <stop offset=".75562054" stop-color="#ca8a3b"/>
      <stop offset="1" stop-color="#6a3010"/>
    </linearGradient>
    <linearGradient id="q">
      <stop offset="0" stop-color="#5b2a0c" stop-opacity="0"/>
      <stop offset=".48419753" stop-color="#6c3210"/>
      <stop offset="1" stop-color="#793714"/>
    </linearGradient>
    <linearGradient id="o">
      <stop offset="0" stop-color="#838383"/>
      <stop offset="1"/>
    </linearGradient>
    <linearGradient id="n">
      <stop offset="0" stop-color="#e1e1e1"/>
      <stop offset="1" stop-color="gray"/>
    </linearGradient>
    <linearGradient id="m">
      <stop offset="0" stop-color="#cbcbcb"/>
      <stop offset="1" stop-color="#919191" stop-opacity="0"/>
    </linearGradient>
    <linearGradient id="l">
      <stop offset="0" stop-color="#af0000"/>
      <stop offset="1" stop-color="maroon" stop-opacity=".80000001"/>
    </linearGradient>
    <linearGradient id="p">
      <stop offset="0" stop-color="#fff"/>
      <stop offset="1" stop-color="#ffd5d5" stop-opacity="0"/>
    </linearGradient>
    <linearGradient id="k">
      <stop offset="0" stop-color="#fc7575"/>
      <stop offset="1" stop-color="#fa3535"/>
    </linearGradient>
    <linearGradient id="j">
      <stop offset="0" stop-color="#e24141"/>
      <stop offset="1" stop-color="#e24141" stop-opacity="0"/>
    </linearGradient>
    <linearGradient id="i">
      <stop offset="0" stop-color="#ccc"/>
      <stop offset="1" stop-color="#ccc" stop-opacity="0"/>
    </linearGradient>
    <linearGradient id="h">
      <stop offset="0" stop-color="#696868"/>
      <stop offset="1" stop-color="#1d1d1d"/>
    </linearGradient>
    <linearGradient id="g">
      <stop offset="0" stop-color="#fca"/>
      <stop offset=".30142909" stop-color="#fff0aa" stop-opacity=".69803923"/>
      <stop offset="1" stop-color="#fca"/>
    </linearGradient>
    <linearGradient id="e">
      <stop offset="0" stop-color="#d59541"/>
      <stop offset="1" stop-color="#5a2b0c"/>
    </linearGradient>
    <linearGradient id="f" x1="-1.455352" x2="181.728165" y1="64.761543" y2="64.761543" gradientTransform="scale(1.8)" gradientUnits="userSpaceOnUse">
      <stop offset="0" stop-color="#b25e27"/>
      <stop offset="1" stop-color="#ab4f16" stop-opacity="0"/>
    </linearGradient>
    <linearGradient id="d" x1="-1.455352" x2="181.728165" y1="64.761543" y2="64.761543" gradientTransform="scale(1.8)" gradientUnits="userSpaceOnUse">
      <stop offset="0" stop-color="#d49140"/>
      <stop offset="1" stop-color="#56280b"/>
    </linearGradient>
    <linearGradient id="c">
      <stop offset="0" stop-color="#333435"/>
      <stop offset="1"/>
    </linearGradient>
    <linearGradient id="aa" x1="215.83463" x2="216.31621" y1="-95.902916" y2="-110.89777" gradientUnits="userSpaceOnUse" xlink:href="#d"/>
    <linearGradient id="ac" x1="309.2493" x2="179.85672" y1="-141.47537" y2="-156.90311" gradientTransform="translate(-14.022063 45.572453)" gradientUnits="userSpaceOnUse" xlink:href="#f"/>
    <linearGradient id="ay" x1="-163.35245" x2="-164" y1="-82.03125" y2="17" gradientTransform="translate(255.76133 148.78892)" gradientUnits="userSpaceOnUse" xlink:href="#u"/>
    <linearGradient id="z">
      <stop offset="0" stop-color="#8ab0d5"/>
      <stop offset="1" stop-color="#defefd" stop-opacity="0"/>
    </linearGradient>
    <linearGradient id="aF" x1="-91.875" x2="-72.0625" y1="35.5" y2="39.625" gradientTransform="translate(45.5 -24.814)" gradientUnits="userSpaceOnUse" xlink:href="#n"/>
    <linearGradient id="ab" x1="186.35257" x2="186.35257" y1="-141.53008" y2="-156.53008" gradientTransform="translate(-14.022063 45.572453)" gradientUnits="userSpaceOnUse" xlink:href="#e"/>
    <linearGradient id="ae" x1="86" x2="86" y1="165" y2="20" gradientTransform="translate(-148.78892 -255.76133)" gradientUnits="userSpaceOnUse" xlink:href="#g"/>
    <linearGradient id="af" x1="-23" x2="-54" y1="-32.984894" y2="-83.984894" gradientTransform="translate(257.76133 148.78892)" gradientUnits="userSpaceOnUse" xlink:href="#q"/>
    <linearGradient id="ax" x1="-166.10736" x2="-54.128754" y1="-32.863522" y2="-32.863522" gradientTransform="matrix(.99 0 0 .99 254.66015 148.46029)" gradientUnits="userSpaceOnUse" xlink:href="#s"/>
    <linearGradient id="aA" x1="-145" x2="-130" y1="-56" y2="-51" gradientTransform="translate(253.76133 148.542)" gradientUnits="userSpaceOnUse" xlink:href="#A"/>
    <linearGradient id="aB" x1="-51.389088" x2="-21.610914" y1="-29.767538" y2="18.032644" gradientTransform="translate(255.76133 148.78892)" gradientUnits="userSpaceOnUse" xlink:href="#B"/>
    <linearGradient id="aE" x1="-46.5" x2="-46.5" y1="13.923437" y2="14.685547" gradientTransform="translate(255.76133 148.78892)" gradientUnits="userSpaceOnUse" xlink:href="#C"/>
    <linearGradient id="O" x1="-1.067112" x2="322.93289" y1="117" y2="117" gradientUnits="userSpaceOnUse" xlink:href="#E"/>
    <linearGradient id="S" x1="186.35257" x2="186.35257" y1="-141.53008" y2="-156.53008" gradientTransform="translate(-14.022063 45.572453)" gradientUnits="userSpaceOnUse" xlink:href="#e"/>
    <linearGradient id="R" x1="215.83463" x2="216.31621" y1="-95.902916" y2="-110.89777" gradientUnits="userSpaceOnUse" xlink:href="#d"/>
    <linearGradient id="U" x1="86" x2="86" y1="165" y2="20" gradientTransform="matrix(5.81847 0 0 1.19241 -716.00224 -276.55214)" gradientUnits="userSpaceOnUse" xlink:href="#g"/>
    <linearGradient id="T" x1="309.2493" x2="160.79045" y1="-141.47537" y2="-149.83205" gradientTransform="translate(-14.022063 45.572453)" gradientUnits="userSpaceOnUse" xlink:href="#G"/>
    <linearGradient id="V" x1="70.591476" x2="70.591476" y1="190.73567" y2="232.24692" gradientUnits="userSpaceOnUse" xlink:href="#H"/>
    <linearGradient id="W" x1="190.72676" x2="303.72675" y1="77.439636" y2="77.439636" gradientTransform="translate(4 -8)" gradientUnits="userSpaceOnUse" xlink:href="#K"/>
    <linearGradient id="X" x1="304.90234" x2="304.90234" y1="12.962891" y2="125.91797" gradientUnits="userSpaceOnUse" xlink:href="#L"/>
    <linearGradient id="P" x1="-1.067112" x2="322.93289" y1="117" y2="117" gradientUnits="userSpaceOnUse" xlink:href="#E"/>
    <linearGradient id="aG" x1="146.47812" x2="146.47812" y1="16.257095" y2="217.7429" gradientUnits="userSpaceOnUse" xlink:href="#M"/>
    <radialGradient id="ah" cx="-35.075684" cy="-51.73262" r="9.7557993" fx="-35.075684" fy="-51.73262" gradientTransform="matrix(.93265 -1.11918 .61502 .51252 75.986089 -90.963537)" gradientUnits="userSpaceOnUse" xlink:href="#h"/>
    <radialGradient id="ai" cx="-40.25" cy="-61.75" r="8.3412085" fx="-40.25" fy="-61.75" gradientTransform="translate(45.456295 -22.221378)" gradientUnits="userSpaceOnUse" xlink:href="#n"/>
    <radialGradient id="aj" cx="-33.155483" cy="-64.356781" r="7.807617" fx="-33.155483" fy="-64.356781" gradientTransform="matrix(3.87464 4.30516 -1.2808 1.15272 51.493495 127.70354)" gradientUnits="userSpaceOnUse" xlink:href="#m"/>
    <radialGradient id="ak" cx="-44.45586" cy="-58.18544" r="2.5" fx="-44.45586" fy="-58.18544" gradientTransform="matrix(1.21706 -2.4341 .8 .4 55.653701 -142.93604)" gradientUnits="userSpaceOnUse" xlink:href="#o"/>
    <radialGradient id="al" cx="-40.25" cy="-61.75" r="2.5" fx="-40.25" fy="-61.75" gradientUnits="userSpaceOnUse" xlink:href="#l"/>
    <radialGradient id="am" cx="-74.412903" cy="-64.015953" r="1.7607951" fx="-74.412903" fy="-64.015953" gradientTransform="matrix(1 0 0 .54789 0 -28.942388)" gradientUnits="userSpaceOnUse" xlink:href="#k"/>
    <radialGradient id="an" cx="-74.412903" cy="-64.015953" r="1.7607951" fx="-74.412903" fy="-64.015953" gradientTransform="matrix(1.08421 .022 -.01584 .7806 5.2525372 -12.408568)" gradientUnits="userSpaceOnUse" xlink:href="#p"/>
    <radialGradient id="ao" cx="-35.075684" cy="-51.73262" r="9.7557993" fx="-35.075684" fy="-51.73262" gradientTransform="matrix(.93265 -1.11918 .61502 .51252 75.986089 -90.963537)" gradientUnits="userSpaceOnUse" xlink:href="#h"/>
    <radialGradient id="ap" cx="-40.25" cy="-61.75" r="8.3412085" fx="-40.25" fy="-61.75" gradientTransform="translate(109.23909 109.90395)" gradientUnits="userSpaceOnUse" xlink:href="#n"/>
    <radialGradient id="aq" cx="-33.155483" cy="-64.356781" r="7.807617" fx="-33.155483" fy="-64.356781" gradientTransform="matrix(3.87464 4.30516 -1.2808 1.15272 51.493495 127.70354)" gradientUnits="userSpaceOnUse" xlink:href="#m"/>
    <radialGradient id="ar" cx="-44.45586" cy="-58.18544" r="2.5" fx="-44.45586" fy="-58.18544" gradientTransform="matrix(-2.71186 .2278 -.07487 -.89129 -159.49031 -101.37876)" gradientUnits="userSpaceOnUse" xlink:href="#o"/>
    <radialGradient id="as" cx="-40.25" cy="-61.75" r="2.5" fx="-40.25" fy="-61.75" gradientUnits="userSpaceOnUse" xlink:href="#l"/>
    <radialGradient id="at" cx="-74.412903" cy="-64.015953" r="1.7607951" fx="-74.412903" fy="-64.015953" gradientTransform="matrix(1 0 0 .54789 0 -28.942388)" gradientUnits="userSpaceOnUse" xlink:href="#k"/>
    <radialGradient id="au" cx="-74.412903" cy="-64.015953" r="1.7607951" fx="-74.412903" fy="-64.015953" gradientTransform="matrix(1.08421 .022 -.01584 .7806 5.2525372 -12.408568)" gradientUnits="userSpaceOnUse" xlink:href="#p"/>
    <radialGradient id="Z" cx="-110.02509" cy="20.590096" r="70.97084" fx="-110.02509" fy="20.590096" gradientTransform="matrix(1 0 0 .0716 255.76133 173.51108)" gradientUnits="userSpaceOnUse" xlink:href="#c"/>
    <radialGradient id="ad" cx="-113.6457" cy="-68.144333" r="76.658363" fx="-113.6457" fy="-68.144333" gradientTransform="matrix(.7827 0 0 1.0436 234.71107 158.90376)" gradientUnits="userSpaceOnUse" xlink:href="#t"/>
    <radialGradient id="aw" cx="-106.41433" cy="-33.252251" r="56.796429" fx="-106.41433" fy="-33.252251" gradientTransform="matrix(1.21076 .00234 -.0036 1.88776 274.36583 178.94732)" gradientUnits="userSpaceOnUse" xlink:href="#r"/>
    <radialGradient id="N" cx="160.93289" cy="117" r="162" fx="160.93289" fy="117" gradientTransform="matrix(1 0 0 .72222 0 32.5)" gradientUnits="userSpaceOnUse" xlink:href="#D"/>
    <radialGradient id="az" cx="-110.11816" cy="-32.863525" r="51.854813" fx="-110.11816" fy="-32.863525" gradientTransform="matrix(.98028 -.01087 .00854 .7702 251.87022 141.46345)" gradientUnits="userSpaceOnUse" xlink:href="#x"/>
    <filter id="ag" width="1.084" height="1.084" x="-.042" y="-.042" color-interpolation-filters="sRGB">
      <feGaussianBlur stdDeviation=".34145298"/>
    </filter>
    <filter id="Q" width="1.3811702" height="2.1435106" x="-.19058511" y="-.57175532" color-interpolation-filters="sRGB">
      <feGaussianBlur stdDeviation="5.9557846"/>
    </filter>
    <filter id="aC" width="1.0312625" height="1.0194757" x="-.01563125" y="-.00973783" color-interpolation-filters="sRGB">
      <feGaussianBlur stdDeviation=".20194283"/>
    </filter>
    <filter id="aD" width="1.0593988" height="1.0370038" x="-.02969938" y="-.01850188" color-interpolation-filters="sRGB">
      <feGaussianBlur stdDeviation=".36849719"/>
    </filter>
    <filter id="av" width="1.0317419" height="1.0192941" x="-.01587097" y="-.00964706" color-interpolation-filters="sRGB">
      <feGaussianBlur stdDeviation=".205"/>
    </filter>
    <filter id="Y" width="1.0784415" height="2.0954812" x="-.03922073" y="-.54774059" color-interpolation-filters="sRGB">
      <feGaussianBlur stdDeviation="2.3196066"/>
    </filter>
    <pattern id="a" width="512" height="512" patternTransform="matrix(.32551 0 0 .34024 78.914211 29.470005)" patternUnits="userSpaceOnUse">
      <use xlink:href="#b"/>
    </pattern>
  </defs>
  <path fill="url(#N)" d="M-1.067112 0h324v234h-324z" transform="translate(1.067112)"/>
  <path fill="url(#P)" d="M-1.067112 0h324v234h-324z" transform="matrix(1 0 0 .21453 1.067112 183.79899)"/>
  <g fill-rule="evenodd" paint-order="markers fill stroke">
    <path fill="#e8fefe" fill-opacity=".56603771" d="M-135.68945-26.574219a37.688524 23.056037 45 0010.10351 13.492188 37.688524 23.056037 45 003.69922 3.3730466A42.195487 11.956938 0 00-149.47852 1.5a42.195487 11.956938 0 0042.19532 11.957031A42.195487 11.956938 0 00-65.087891 1.5a42.195487 11.956938 0 00-14.423828-8.9882812A37.688524 23.056037 45 00-92.980469-45.6875a37.688524 23.056037 45 00-13.535151-10.128906A35.752409 12.709581 0 00-72.833984-68.5a35.752409 12.709581 0 00-24.449219-12.041016c-4.839927 6.825019-9.602207 13.645313-14.486327 20.451172-8.11189 11.303644-16.11967 22.477904-23.91992 33.515625z" filter="url(#Q)" transform="matrix(1 0 0 -1 253.76133 83.4580019)"/>
    <g fill="url(#R)" transform="matrix(1.19241 0 0 1.6331 -100.6246954 344.9831269)">
      <path fill="url(#S)" d="M165.83465-111.33066l-23.92383 15.427743h153.3164l-23.92383-15.427743h-79.39257z"/>
      <path fill="url(#T)" d="M165.83465-111.33066l-23.92383 15.427743h153.3164l-23.92383-15.427743h-79.39257z"/>
    </g>
    <path fill="url(#U)" d="M-194.94975-256.15836h8.4281502v182.81673h-8.4281502z" transform="matrix(0 -1 -1 0 -4.7501524 1.7530769)"/>
    <path fill="url(#V)" d="M70.591476 194.94975h182.43143v37.297169H70.591476z" transform="translate(-2 1.7530769)"/>
  </g>
  <path fill="url(#W)" fill-rule="evenodd" d="M194.72676 10.189636h113v118.5h-113z" paint-order="markers fill stroke"/>
  <path fill="url(#X)" fill-rule="evenodd" d="M197.55078 12.962891v53.324218h50.85156V12.962891h-50.85156zm56.5 0v53.324218h50.85156V12.962891h-50.85156zm-56.5 59.628906v53.326173h50.85156V72.591797h-50.85156zm56.5 0v53.326173h50.85156V72.591797h-50.85156z" paint-order="markers fill stroke"/>
  <rect width="141.94168" height="10.163672" x="93.015404" y="172.40358" fill="#383e3e" fill-rule="evenodd" filter="url(#Y)" paint-order="markers fill stroke" ry="1.9470007" transform="translate(-2 1.7530769)"/>
  <rect width="141.94168" height="10.163672" x="91.015404" y="170.40358" fill="url(#Z)" fill-rule="evenodd" paint-order="markers fill stroke" ry="1.9470007" transform="translate(-2 1.7530769)"/>
  <g fill="url(#aa)" fill-rule="evenodd" paint-order="markers fill stroke" transform="translate(-58.56918 155.49963)">
    <path fill="url(#ab)" d="M165.83465-111.33066l-23.92383 15.427743h153.3164l-23.92383-15.427743h-79.39257z"/>
    <path fill="url(#ac)" d="M165.83465-111.33066l-23.92383 15.427743h153.3164l-23.92383-15.427743h-79.39257z"/>
  </g>
  <path fill="url(#ad)" fill-rule="evenodd" d="M85.341637 57.843632h153.31673v114.31274H85.341637z" paint-order="markers fill stroke" transform="translate(-2 1.7530769)"/>
  <path fill="#2f190a" fill-rule="evenodd" d="M234.95836 60.9905149h1.7v112.91894h-1.7zM83.341637 60.9905149h1.7v112.91893h-1.7z" paint-order="markers fill stroke"/>
  <path fill="url(#ae)" fill-rule="evenodd" d="M-59.237438-238.65836h1.4485168v153.31673h-1.4485168z" paint-order="markers fill stroke" transform="matrix(0 -1 -1 0 -2 1.7530769)"/>
  <path fill="url(#af)" fill-rule="evenodd" d="M203.76132 64.804031h31v51h-31z" paint-order="markers fill stroke" transform="translate(-2 1.7530769)"/>
  <g>
    <g fill-rule="evenodd" paint-order="markers fill stroke" transform="translate(211.590745 163.263378)">
      <circle cx="5.6705799" cy="-83.016464" r="9.7557993" fill="#331708" filter="url(#ag)"/>
      <circle cx="5.2062969" cy="-83.971382" r="9.7557993" fill="url(#ah)"/>
      <g fill="#dcdcdc">
        <use xlink:href="#reuse-0"/>
        <use xlink:href="#reuse-1"/>
        <use xlink:href="#reuse-2"/>
        <use xlink:href="#reuse-3"/>
      </g>
      <circle cx="5.2062969" cy="-83.971382" r="8.3412085" fill="url(#ai)"/>
      <path fill="url(#aj)" d="M.65356086-77.594425c.67324204-.755551 1.34900204-1.516209 2.14062504-2.34375a4.7069438 4.7069438 0 01-2.29492204-4.033203 4.7069438 4.7069438 0 014.70703104-4.707031 4.7069438 4.7069438 0 014.705078 4.65039c.08703.0361.2201701.03868.3007811.07422.756567.333576 1.267467.533244 1.701172.507813.216853-.01272.41566-.08381.589844-.275391.174184-.191581.323292-.50502.443359-1.003906.01611-.06696.01412-.198118.0293-.271485a7.8449066 7.8449066 0 00-7.7695341-6.820313 7.8449066 7.8449066 0 00-7.845703 7.845703 7.8449066 7.8449066 0 003.29296896 6.376953z"/>
    </g>
    <g transform="translate(257.04704 141.042)">
      <path fill="url(#ak)" d="M-47-55c.834584-1.667916 2.5-5 2.5-5l2.5 2.5z"/>
      <circle cx="-40.25" cy="-61.75" r="5.004725" fill="#686868" fill-rule="evenodd" paint-order="markers fill stroke"/>
      <use fill-rule="evenodd" paint-order="markers fill stroke" xlink:href="#reuse-4"/>
      <circle cx="-40.25" cy="-61.75" r="4.0037799" fill="#999" fill-rule="evenodd" paint-order="markers fill stroke"/>
      <use fill-rule="evenodd" paint-order="markers fill stroke" xlink:href="#reuse-5"/>
      <circle cx="-40.25" cy="-61.75" r="2.5" fill="url(#al)" fill-rule="evenodd" paint-order="markers fill stroke"/>
      <path fill="url(#am)" d="M-74.704176-64.956058c-.226214.04718-.532952.164032-.759878.339415-.226927.175383-.372418.40817-.515284.686478-.142865.278309-.280933.598046-.126465.7483.154468.150253.598295.128426 1.22903.128439.630736.000013 1.450624.02197 1.862786-.07337.412162-.09535.419474-.307393.281377-.561774-.138098-.25438-.424315-.555275-.690694-.774261-.266379-.218985-.514711-.357759-.711751-.438142-.19704-.08038-.342907-.102262-.569121-.05508z" transform="translate(34.247881 1.1774364)"/>
      <path fill="url(#an)" d="M-74.704176-64.956058c-.226214.04718-.532952.164032-.759878.339415-.226927.175383-.372418.40817-.515284.686478-.142865.278309-.280933.598046-.126465.7483.154468.150253.598295.128426 1.22903.128439.630736.000013 1.450624.02197 1.862786-.07337.412162-.09535.419474-.307393.281377-.561774-.138098-.25438-.424315-.555275-.690694-.774261-.266379-.218985-.514711-.357759-.711751-.438142-.19704-.08038-.342907-.102262-.569121-.05508z" transform="translate(14.636918 -15.737121) scale(.73604)"/>
    </g>
  </g>
  <g>
    <g fill-rule="evenodd" paint-order="markers fill stroke" transform="translate(211.590745 187.263378)">
      <circle cx="5.6705799" cy="-83.016464" r="9.7557993" fill="#331708" filter="url(#ag)"/>
      <circle cx="5.2062969" cy="-83.971382" r="9.7557993" fill="url(#ao)"/>
      <g fill="#dcdcdc">
        <use xlink:href="#reuse-0"/>
        <use xlink:href="#reuse-1"/>
        <use xlink:href="#reuse-2"/>
        <use xlink:href="#reuse-3"/>
      </g>
      <circle cx="68.989098" cy="48.15395" r="8.3412085" fill="url(#ap)" transform="rotate(-121.367)"/>
      <path fill="url(#aq)" d="M.65356086-77.594425c.67324204-.755551 1.34900204-1.516209 2.14062504-2.34375a4.7069438 4.7069438 0 01-2.29492204-4.033203 4.7069438 4.7069438 0 014.70703104-4.707031 4.7069438 4.7069438 0 014.705078 4.65039c.08703.0361.2201701.03868.3007811.07422.756567.333576 1.267467.533244 1.701172.507813.216853-.01272.41566-.08381.589844-.275391.174184-.191581.323292-.50502.443359-1.003906.01611-.06696.01412-.198118.0293-.271485a7.8449066 7.8449066 0 00-7.7695341-6.820313 7.8449066 7.8449066 0 00-7.845703 7.845703 7.8449066 7.8449066 0 003.29296896 6.376953z"/>
    </g>
    <g transform="translate(257.04704 165.042)">
      <path fill="url(#ar)" d="M-30.973008-59.5c-1.858568.155569-5.570549.467959-5.570549.467959l.833335-3.435922z"/>
      <circle cx="-40.25" cy="-61.75" r="5.004725" fill="#686868" fill-rule="evenodd" paint-order="markers fill stroke"/>
      <use fill-rule="evenodd" paint-order="markers fill stroke" xlink:href="#reuse-4"/>
      <circle cx="-40.25" cy="-61.75" r="4.0037799" fill="#999" fill-rule="evenodd" paint-order="markers fill stroke"/>
      <use fill-rule="evenodd" paint-order="markers fill stroke" xlink:href="#reuse-5"/>
      <circle cx="-40.25" cy="-61.75" r="2.5" fill="url(#as)" fill-rule="evenodd" paint-order="markers fill stroke"/>
      <path fill="url(#at)" d="M-74.704176-64.956058c-.226214.04718-.532952.164032-.759878.339415-.226927.175383-.372418.40817-.515284.686478-.142865.278309-.280933.598046-.126465.7483.154468.150253.598295.128426 1.22903.128439.630736.000013 1.450624.02197 1.862786-.07337.412162-.09535.419474-.307393.281377-.561774-.138098-.25438-.424315-.555275-.690694-.774261-.266379-.218985-.514711-.357759-.711751-.438142-.19704-.08038-.342907-.102262-.569121-.05508z" transform="translate(34.247881 1.1774364)"/>
      <path fill="url(#au)" d="M-74.704176-64.956058c-.226214.04718-.532952.164032-.759878.339415-.226927.175383-.372418.40817-.515284.686478-.142865.278309-.280933.598046-.126465.7483.154468.150253.598295.128426 1.22903.128439.630736.000013 1.450624.02197 1.862786-.07337.412162-.09535.419474-.307393.281377-.561774-.138098-.25438-.424315-.555275-.690694-.774261-.266379-.218985-.514711-.357759-.711751-.438142-.19704-.08038-.342907-.102262-.569121-.05508z" transform="translate(14.636918 -15.737121) scale(.73604)"/>
    </g>
  </g>
  <path fill="#4e250c" fill-rule="evenodd" d="M202.01132 116.5581269h30.5v.98387092h-30.5z" paint-order="markers fill stroke"/>
  <path fill="#4e250c" fill-rule="evenodd" d="M202.74520995 66.55710795v51h-.98387092v-51z" paint-order="markers fill stroke"/>
  <path fill="none" stroke="#90491c" stroke-width=".5" d="M203.76132 64.804031h31v51h-31z" filter="url(#av)" paint-order="markers fill stroke" transform="translate(-2 1.7530769)"/>
  <rect width="114.26389" height="105.53504" x="88.51133" y="63.157883" fill="url(#aw)" fill-rule="evenodd" paint-order="markers fill stroke" ry="4.7679906" transform="translate(-2 1.7530769)"/>
  <rect width="110.85882" height="102.3901" x="90.213875" y="64.730347" fill="url(#ax)" fill-rule="evenodd" paint-order="markers fill stroke" ry="4.6259046" transform="translate(-2 1.7530769)"/>
  <rect width="106.4688" height="98.335457" x="92.408882" y="66.757675" fill="#3e3e3e" fill-rule="evenodd" stroke="url(#ay)" paint-order="markers fill stroke" ry="4.4427185" transform="translate(-2 1.7530769)"/>
  <rect width="104.33942" height="96.368744" x="93.473579" y="67.741028" fill-rule="evenodd" paint-order="markers fill stroke" ry="4.3538642" transform="translate(-2 1.7530769)"/>
  <path fill="url(#az)" d="M143.64317 68.92753c-20.29149 0-40.58297 2.060936-45.0918 6.181641-4.59362 4.198199-6.81882 23.351566-6.73242 42.240239-.0864 18.88867 2.1388 38.04203 6.73242 42.24023 9.01766 8.24141 81.16594 8.24141 90.1836 0 4.59362-4.1982 6.8188-23.35156 6.73242-42.24023.0864-18.888673-2.1388-38.04204-6.73242-42.240239-4.50883-4.120705-24.80031-6.181641-45.0918-6.181641z"/>
  <path fill="url(#aA)" d="M94.775 150.26466l42.89063-81.1836c-18.12435.370378-35.05454 2.317984-39.11328 6.027344-4.59362 4.198199-6.81883 23.351563-6.73243 42.240236-.0569 12.44421.98909 24.59423 2.95508 32.91602z"/>
  <path fill="#5287c2" d="M143.64414 71.368827c-19.68669 0-39.37503 2.000098-43.74949 5.998008-8.74894 7.995817-8.74894 71.969885 0 79.965705 8.74893 7.99582 78.74811 7.99582 87.49704 0 8.74893-7.99582 8.74893-71.969888 0-79.965705-4.37447-3.99791-24.06088-5.998008-43.74755-5.998008zm0 1.349648c19.09616 0 38.19139 1.938261 42.43464 5.81625 8.4865 7.755975 8.4865 69.812075 0 77.568055-8.4865 7.75597-76.38473 7.75597-84.87122 0-8.48651-7.75598-8.48651-69.81208 0-77.568055 4.24324-3.877989 23.34042-5.81625 42.43658-5.81625z"/>
  <path fill="#abd1e4" d="M102.90125 80.275787c-.77087.400871-1.43753.869618-2.10501 1.703784-.66748.834165-1.333 2.03003-1.66667 2.910613-.33366.880582-.33366 1.650857.00037 2.151708.33404.500851.9997.833681 1.9997.760593 1-.07309 2.33414-.552544 3.66677-1.474092 1.33262-.921548 2.66716-2.287364 3.33333-3.354781.66617-1.067416.66617-1.942987.10468-2.520313-.56149-.577327-1.68786-.911066-2.68783-.911296-.99997-.00023-1.87447.332912-2.64534.733784z"/>
  <path fill="#9ac7de" d="M99.5029676 90.65360746c-.3639515.40475294-.65184284.82638886-.85980946 1.46254368-.20796684.63615424-.33519666 1.48403428-.33715177 2.0739647-.00194947.58992764.1675395 1.04173658.47367233 1.26201447.3061387.2202757.76982005.2690291 1.34029336.00612198.57047286-.2629083 1.24752224-.83769474 1.8264089-1.67146154.57888078-.8337646 1.06113237-1.92853944 1.21700676-2.70122064.1558746-.77268062-.03678338-1.28625149-.49316142-1.5013366-.45637826-.2150857-1.19049155-.16299905-1.77707993.0568964-.58658838.21989547-1.0262275.60772403-1.39017878 1.01247755z"/>
  <path fill="url(#aB)" fill-rule="evenodd" stroke="#9f5e33" stroke-width=".49398723" d="M203.75833 118.03592h31.006012v49.771118H203.75833z" filter="url(#aC)" paint-order="markers fill stroke" transform="translate(-2 1.7530769)"/>
  <path fill="none" stroke="#64381b" stroke-width="1.47000003" d="M204.37224 119.02139h29.778173v47.800182H204.37224z" filter="url(#aD)" paint-order="markers fill stroke" transform="translate(-2 1.7530769)"/>
  <g fill="#341d0d" fill-rule="evenodd" paint-order="markers fill stroke">
    <path d="M206.54258 125.187338h21.4375v.97443181h-21.4375zM206.54258 127.187338h21.4375v.97443181h-21.4375zM206.54258 129.187338h21.4375v.97443181h-21.4375zM206.54258 131.187338h21.4375v.97443181h-21.4375zM206.54258 133.187338h21.4375v.97443181h-21.4375zM206.54258 135.187338h21.4375v.97443181h-21.4375zM206.54258 137.187338h21.4375v.97443181h-21.4375zM206.54258 139.187338h21.4375v.97443181h-21.4375zM206.54258 141.187338h21.4375v.97443181h-21.4375zM206.54258 143.187338h21.4375v.97443181h-21.4375zM206.54258 145.187338h21.4375v.97443181h-21.4375zM206.54258 147.187338h21.4375v.97443181h-21.4375zM206.54258 149.187336h21.4375v.97443181h-21.4375zM206.54258 151.187336h21.4375v.97443181h-21.4375zM206.54258 153.187336h21.4375v.97443181h-21.4375zM206.54258 155.187336h21.4375v.97443181h-21.4375z"/>
  </g>
  <path fill="url(#aE)" fill-rule="evenodd" d="M209.26132 158.97491h20v5h-20z" paint-order="markers fill stroke" transform="translate(-2 1.7530769)"/>
  <path fill="url(#aF)" fill-rule="evenodd" d="M-46.5 10.685547v4h20v-4zm15.580078.597656c.220216 0 .418393.02766.59375.08203.175357.05438.324924.137768.447266.251954.122342.114185.216001.26019.28125.435546.06525.175357.09766.383035.09766.625 0 .241966-.03241.452784-.09766.63086-.06525.176716-.158908.321955-.28125.4375-.122342.115545-.271909.202672-.447266.259765-.175357.05573-.373534.08203-.59375.08203-.220215 0-.41644-.0263-.591797-.08203-.175357-.05709-.325517-.14422-.449219-.259765-.122341-.115545-.216-.260784-.28125-.4375-.06525-.178076-.09766-.388894-.09766-.63086 0-.241965.03122-.449643.09375-.625.06253-.175356.154408-.321361.275391-.435546.120982-.114186.268002-.197579.443359-.251954.176716-.05437.379051-.08203.607422-.08203zm-6.214844.0078h.591797l.96875 2.552734.207031.05469v.15039h-1.216796v-.15039l.316406-.05469-.261719-.707031h-1.048828l-.251953.707031.351562.05469v.15039h-.832031v-.15039l.203125-.05469zm-5.880859.02344h1.304687v.148438l-.310546.05273v1.652344c0 .123701-.01383.232376-.04102.326172-.02719.09379-.06316.174219-.109375.242187-.04622.06797-.100938.125657-.162109.171875-.06117.04486-.12658.08024-.197266.107422-.06933.02719-.142032.04577-.216797.05664-.07341.01087-.144157.01563-.214844.01563-.04622 0-.09619-.0012-.146484-.0039-.04894-.0027-.09695-.0063-.144531-.01172-.04758-.0054-.09322-.01138-.136719-.01953-.04214-.0068-.07811-.01587-.109375-.02539V13.4082h.181641l.06055.365235c.02583.03126.06375.05459.111328.07226.04758.01767.09916.02734.15625.02734.0938 0 .171251-.03241.232422-.09766.06253-.06525.09375-.163237.09375-.291016v-1.96875l-.351563-.05273zm1.490234 0h1.34375v.148438l-.351562.05469v1.011719h1.117187v-1.011719l-.349609-.05469v-.148438h1.347656v.148438l-.353515.05469v2.326172l.353515.05273v.152344h-1.347656v-.152344l.349609-.05273v-1.089844h-1.117187v1.089844l.351562.05273v.152344h-1.34375v-.152344l.34961-.05273v-2.326172l-.34961-.05469zm6.265625 0h1.41211v.148438l-.421875.05273v2.316406h.55664c.16992 0 .308627-.0042.416016-.01367.107389-.0095.181876-.01919.222656-.02734l.167969-.56836h.181641l-.07617.826172h-2.460938v-.15039l.34961-.05469v-2.328125l-.347657-.05273zm4.339844.173828c-.144091 0-.262861.02706-.359375.08008-.09516.05302-.171423.129877-.228515.230469-.05709.100592-.09798.224877-.121094.373047-.02311.14817-.03516.316909-.03516.505859 0 .19031.01205.360237.03516.509766.02311.149529.064.275595.121094.378906.05709.103311.13336.181954.228515.236328.09651.05438.215284.08203.359375.08203.144092 0 .26422-.02766.359375-.08203.09515-.05437.171423-.133017.228516-.236328.05709-.103311.09798-.229377.121093-.378906.02311-.149529.0332-.319456.0332-.509766 0-.18895-.01009-.357689-.0332-.505859-.02311-.14817-.064-.272455-.121093-.373047-.05709-.100592-.133361-.177454-.228516-.230469-.09516-.05301-.215283-.08008-.359375-.08008zm-6.125.214844l-.449219 1.208984h.888672z" paint-order="markers fill stroke" transform="translate(253.761329 150.542006)" style="opacity:1;fill:url(#linearGradient3612);fill-opacity:1;fill-rule:evenodd;stroke:none;stroke-width:1.5;stroke-miterlimit:4;stroke-dasharray:none;stroke-opacity:1;paint-order:markers fill stroke"/>
  <path fill="url(#aG)" d="M0 127.99414V234h324v-83.88477c-28.5892-17.98976-81.25347-45.65885-109.13672-60.154292-28.77853-14.960865-30.6963-15.711741-33.75976-16.427735-3.06347-.715994-7.27455-1.397161-11.88868-1.886719-4.61413-.489557-9.63477-.787659-14.07031-.957031-4.43554-.169372-8.29091-.210825-11.86523-.1875-3.57433.023325-6.86949.111352-11.11914.298828-4.24966.187476-9.45668.475289-13.88086.972657-4.42419.497367-8.07226 1.206773-10.49219 1.527343-2.41994.32057-3.61689.253322-25.501954 11.179688C61.455435 94.879945 22.375919 115.03028 0 127.99414z"/>
</svg>
