<svg xmlns="http://www.w3.org/2000/svg" xmlns:xlink="http://www.w3.org/1999/xlink" viewBox="0 0 324 234"><defs><path id="ae" fill="#e6e6e6" fill-rule="evenodd" d="M-40.25-65.75a4 4 0 0 0-4 4 4 4 0 0 0 1.37 3.02 4 4 0 0 1-.16-.24 4 4 0 0 1-.2-.34 4 4 0 0 1-.17-.37 4 4 0 0 1-.12-.38 4 4 0 0 1-.1-.39 4 4 0 0 1-.04-.4 4 4 0 0 1-.01-.28 4 4 0 0 1 .02-.4 4 4 0 0 1 .06-.4 4 4 0 0 1 .1-.38 4 4 0 0 1 .14-.38 4 4 0 0 1 .17-.36 4 4 0 0 1 .2-.34 4 4 0 0 1 .25-.32 4 4 0 0 1 .28-.3 4 4 0 0 1 .3-.26 4 4 0 0 1 .32-.23 4 4 0 0 1 .35-.2 4 4 0 0 1 .36-.16 4 4 0 0 1 .38-.13 4 4 0 0 1 .4-.09 4 4 0 0 1 .4-.05 4 4 0 0 1 .27 0 4 4 0 0 1 .4.02 4 4 0 0 1 .4.06 4 4 0 0 1 .39.1 4 4 0 0 1 .37.13 4 4 0 0 1 .36.18 4 4 0 0 1 .35.2 4 4 0 0 1 .31.25 4 4 0 0 1 .05.04 4 4 0 0 0-3.2-1.6z" paint-order="markers fill stroke"/><path id="ad" fill="#333" fill-rule="evenodd" d="M-43.98-58.5a5 5 0 0 0 3.93 1.9 5 5 0 0 0 5-5A5 5 0 0 0-37-65.56a5 5 0 0 1 .28.4 5 5 0 0 1 .25.43 5 5 0 0 1 .2.46 5 5 0 0 1 .16.47 5 5 0 0 1 .11.49 5 5 0 0 1 .06.5 5 5 0 0 1 .02.35 5 5 0 0 1-.03.5 5 5 0 0 1-.07.5 5 5 0 0 1-.13.48 5 5 0 0 1-.17.47 5 5 0 0 1-.22.45 5 5 0 0 1-.26.42 5 5 0 0 1-.3.4 5 5 0 0 1-.34.37 5 5 0 0 1-.38.33 5 5 0 0 1-.4.3 5 5 0 0 1-.44.24 5 5 0 0 1-.45.2 5 5 0 0 1-.48.16 5 5 0 0 1-.49.11 5 5 0 0 1-.5.06 5 5 0 0 1-.35.01 5 5 0 0 1-.5-.02 5 5 0 0 1-.5-.08 5 5 0 0 1-.48-.12 5 5 0 0 1-.47-.17 5 5 0 0 1-.45-.22 5 5 0 0 1-.42-.26 5 5 0 0 1-.23-.17z" paint-order="markers fill stroke"/><path id="Z" d="m12.03-91.29.5.5-14.15 14.14-.5-.5z"/><path id="Y" d="M15.2-84.32v.7h-20v-.7z"/><path id="X" d="m12.52-77.15-.49.5L-2.11-90.8l.5-.5z"/><path id="W" d="M4.86-93.97h.7v20h-.7z"/></defs><defs><linearGradient id="q"><stop offset="0" stop-color="#dfebf4" stop-opacity=".49"/><stop offset="1" stop-color="#e0e0e0" stop-opacity="0"/></linearGradient><linearGradient id="o"><stop offset="0" stop-color="#5c331a"/><stop offset="1" stop-color="#462713"/></linearGradient><linearGradient id="p"><stop offset="0" stop-color="#04081d"/><stop offset="1" stop-color="#4f5237" stop-opacity=".98"/></linearGradient><linearGradient id="m" x1="-1.46" x2="181.73" y1="64.76" y2="64.76" gradientTransform="scale(1.8)" gradientUnits="userSpaceOnUse"><stop offset="0" stop-color="#6c3a18"/><stop offset="1" stop-color="#71650f" stop-opacity="0"/></linearGradient><linearGradient id="n"><stop offset="0" stop-color="#6c3a18"/><stop offset="1" stop-color="#512b12"/></linearGradient><linearGradient id="l"><stop offset="0" stop-color="#0a151d"/><stop offset=".45" stop-color="#235072"/><stop offset="1" stop-color="#152d3f"/></linearGradient><linearGradient id="A"><stop offset="0" stop-color="#6b3210"/><stop offset="1" stop-color="#261106"/></linearGradient><linearGradient id="k"><stop offset="0" stop-color="#535250"/><stop offset="1" stop-color="#c6c2bf"/></linearGradient><linearGradient id="j"><stop offset="0" stop-color="#a45c2d"/><stop offset="1" stop-color="#573118"/></linearGradient><linearGradient id="i"><stop offset="0" stop-color="#8ab2d8" stop-opacity=".69"/><stop offset="1" stop-color="#8ab2d8" stop-opacity="0"/></linearGradient><linearGradient id="B"><stop offset="0" stop-color="#defefd"/><stop offset="1" stop-color="#84bad6"/></linearGradient><linearGradient id="c"><stop offset="0" stop-color="#fff"/><stop offset="1" stop-color="#fff" stop-opacity="0"/></linearGradient><linearGradient id="h"><stop offset="0"/><stop offset=".5" stop-color="#a3a3a3"/><stop offset="1"/></linearGradient><linearGradient id="z"><stop offset="0" stop-color="#f5a533"/><stop offset="1" stop-color="#fff" stop-opacity="0"/></linearGradient><linearGradient id="y"><stop offset="0" stop-color="#6a3010"/><stop offset=".26" stop-color="#ca8a3b"/><stop offset=".76" stop-color="#ca8a3b"/><stop offset="1" stop-color="#6a3010"/></linearGradient><linearGradient id="g"><stop offset="0" stop-color="#5b2a0c" stop-opacity="0"/><stop offset=".48" stop-color="#6c3210"/><stop offset="1" stop-color="#793714"/></linearGradient><linearGradient id="t"><stop offset="0" stop-color="#838383"/><stop offset="1"/></linearGradient><linearGradient id="d"><stop offset="0" stop-color="#e1e1e1"/><stop offset="1" stop-color="gray"/></linearGradient><linearGradient id="s"><stop offset="0" stop-color="#cbcbcb"/><stop offset="1" stop-color="#919191" stop-opacity="0"/></linearGradient><linearGradient id="u"><stop offset="0" stop-color="#af0000"/><stop offset="1" stop-color="maroon" stop-opacity=".8"/></linearGradient><linearGradient id="w"><stop offset="0" stop-color="#fff"/><stop offset="1" stop-color="#ffd5d5" stop-opacity="0"/></linearGradient><linearGradient id="v"><stop offset="0" stop-color="#fc7575"/><stop offset="1" stop-color="#fa3535"/></linearGradient><linearGradient id="r"><stop offset="0" stop-color="#696868"/><stop offset="1" stop-color="#1d1d1d"/></linearGradient><linearGradient id="f"><stop offset="0" stop-color="#fca"/><stop offset=".3" stop-color="#fff0aa" stop-opacity=".7"/><stop offset="1" stop-color="#fca"/></linearGradient><linearGradient id="e"><stop offset="0" stop-color="#d59541"/><stop offset="1" stop-color="#5a2b0c"/></linearGradient><linearGradient id="b" x1="-1.46" x2="181.73" y1="64.76" y2="64.76" gradientTransform="scale(1.8)" gradientUnits="userSpaceOnUse"><stop offset="0" stop-color="#b25e27"/><stop offset="1" stop-color="#ab4f16" stop-opacity="0"/></linearGradient><linearGradient id="a" x1="-1.46" x2="181.73" y1="64.76" y2="64.76" gradientTransform="scale(1.8)" gradientUnits="userSpaceOnUse"><stop offset="0" stop-color="#d49140"/><stop offset="1" stop-color="#56280b"/></linearGradient><linearGradient id="x"><stop offset="0" stop-color="#333435"/><stop offset="1"/></linearGradient><linearGradient xlink:href="#a" id="O" x1="215.83" x2="216.32" y1="-95.9" y2="-110.9" gradientUnits="userSpaceOnUse"/><linearGradient xlink:href="#b" id="Q" x1="309.25" x2="179.86" y1="-141.48" y2="-156.9" gradientTransform="translate(-14.02 45.57)" gradientUnits="userSpaceOnUse"/><linearGradient xlink:href="#c" id="as" x1="-163.35" x2="-164" y1="-82.03" y2="17" gradientTransform="translate(255.76 148.79)" gradientUnits="userSpaceOnUse"/><linearGradient xlink:href="#e" id="P" x1="186.35" x2="186.35" y1="-141.53" y2="-156.53" gradientTransform="translate(-14.02 45.57)" gradientUnits="userSpaceOnUse"/><linearGradient xlink:href="#f" id="S" x1="86" x2="86" y1="165" y2="20" gradientTransform="translate(-148.79 -255.76)" gradientUnits="userSpaceOnUse"/><linearGradient xlink:href="#g" id="T" x1="-23" x2="-54" y1="-32.98" y2="-83.98" gradientTransform="translate(257.76 148.79)" gradientUnits="userSpaceOnUse"/><linearGradient xlink:href="#h" id="ar" x1="-166.11" x2="-54.13" y1="-32.86" y2="-32.86" gradientTransform="matrix(.99 0 0 .99 254.66 148.46)" gradientUnits="userSpaceOnUse"/><linearGradient xlink:href="#i" id="au" x1="-145" x2="-130" y1="-56" y2="-51" gradientTransform="translate(253.76 148.54)" gradientUnits="userSpaceOnUse"/><linearGradient xlink:href="#j" id="av" x1="-51.39" x2="-21.61" y1="-29.77" y2="18.03" gradientTransform="translate(255.76 148.79)" gradientUnits="userSpaceOnUse"/><linearGradient xlink:href="#k" id="ay" x1="-46.5" x2="-46.5" y1="13.92" y2="14.69" gradientTransform="translate(255.76 148.79)" gradientUnits="userSpaceOnUse"/><linearGradient xlink:href="#e" id="G" x1="186.35" x2="186.35" y1="-141.53" y2="-156.53" gradientTransform="translate(-14.02 45.57)" gradientUnits="userSpaceOnUse"/><linearGradient xlink:href="#a" id="F" x1="215.83" x2="216.32" y1="-95.9" y2="-110.9" gradientUnits="userSpaceOnUse"/><linearGradient xlink:href="#f" id="I" x1="86" x2="86" y1="165" y2="20" gradientTransform="matrix(5.81847 0 0 1.19241 -716 -276.55)" gradientUnits="userSpaceOnUse"/><linearGradient xlink:href="#m" id="H" x1="309.25" x2="160.79" y1="-141.48" y2="-149.83" gradientTransform="translate(-14.02 45.57)" gradientUnits="userSpaceOnUse"/><linearGradient xlink:href="#n" id="J" x1="70.59" x2="70.59" y1="190.74" y2="232.25" gradientUnits="userSpaceOnUse"/><linearGradient xlink:href="#o" id="K" x1="190.73" x2="303.73" y1="77.44" y2="77.44" gradientTransform="translate(4 -8)" gradientUnits="userSpaceOnUse"/><linearGradient xlink:href="#p" id="L" x1="304.9" x2="304.9" y1="12.96" y2="125.92" gradientUnits="userSpaceOnUse"/><linearGradient xlink:href="#l" id="D" x1="-1.07" x2="322.93" y1="117" y2="117" gradientUnits="userSpaceOnUse"/><linearGradient xlink:href="#q" id="az" x1="146.48" x2="146.48" y1="16.26" y2="217.74" gradientUnits="userSpaceOnUse"/><radialGradient xlink:href="#r" id="V" cx="-35.08" cy="-51.73" r="9.76" fx="-35.08" fy="-51.73" gradientTransform="matrix(.93265 -1.11918 .61502 .51252 75.99 -90.96)" gradientUnits="userSpaceOnUse"/><radialGradient xlink:href="#d" id="aa" cx="-40.25" cy="-61.75" r="8.34" fx="-40.25" fy="-61.75" gradientTransform="translate(45.46 -22.22)" gradientUnits="userSpaceOnUse"/><radialGradient xlink:href="#s" id="ab" cx="-33.16" cy="-64.36" r="7.81" fx="-33.16" fy="-64.36" gradientTransform="matrix(3.87464 4.30516 -1.2808 1.15272 51.5 127.7)" gradientUnits="userSpaceOnUse"/><radialGradient xlink:href="#t" id="ac" cx="-44.46" cy="-58.19" r="2.5" fx="-44.46" fy="-58.19" gradientTransform="matrix(1.21706 -2.4341 .8 .4 55.65 -142.94)" gradientUnits="userSpaceOnUse"/><radialGradient xlink:href="#u" id="af" cx="-40.25" cy="-61.75" r="2.5" fx="-40.25" fy="-61.75" gradientUnits="userSpaceOnUse"/><radialGradient xlink:href="#v" id="ag" cx="-74.41" cy="-64.02" r="1.76" fx="-74.41" fy="-64.02" gradientTransform="matrix(1 0 0 .54789 0 -28.94)" gradientUnits="userSpaceOnUse"/><radialGradient xlink:href="#w" id="ah" cx="-74.41" cy="-64.02" r="1.76" fx="-74.41" fy="-64.02" gradientTransform="matrix(1.08421 .022 -.01584 .7806 5.25 -12.4)" gradientUnits="userSpaceOnUse"/><radialGradient xlink:href="#r" id="ai" cx="-35.08" cy="-51.73" r="9.76" fx="-35.08" fy="-51.73" gradientTransform="matrix(.93265 -1.11918 .61502 .51252 75.99 -90.96)" gradientUnits="userSpaceOnUse"/><radialGradient xlink:href="#d" id="aj" cx="-40.25" cy="-61.75" r="8.34" fx="-40.25" fy="-61.75" gradientTransform="translate(109.24 109.9)" gradientUnits="userSpaceOnUse"/><radialGradient xlink:href="#s" id="ak" cx="-33.16" cy="-64.36" r="7.81" fx="-33.16" fy="-64.36" gradientTransform="matrix(3.87464 4.30516 -1.2808 1.15272 51.5 127.7)" gradientUnits="userSpaceOnUse"/><radialGradient xlink:href="#t" id="al" cx="-44.46" cy="-58.19" r="2.5" fx="-44.46" fy="-58.19" gradientTransform="matrix(-2.71186 .2278 -.07487 -.89129 -159.49 -101.38)" gradientUnits="userSpaceOnUse"/><radialGradient xlink:href="#u" id="am" cx="-40.25" cy="-61.75" r="2.5" fx="-40.25" fy="-61.75" gradientUnits="userSpaceOnUse"/><radialGradient xlink:href="#v" id="an" cx="-74.41" cy="-64.02" r="1.76" fx="-74.41" fy="-64.02" gradientTransform="matrix(1 0 0 .54789 0 -28.94)" gradientUnits="userSpaceOnUse"/><radialGradient xlink:href="#w" id="ao" cx="-74.41" cy="-64.02" r="1.76" fx="-74.41" fy="-64.02" gradientTransform="matrix(1.08421 .022 -.01584 .7806 5.25 -12.4)" gradientUnits="userSpaceOnUse"/><radialGradient xlink:href="#x" id="N" cx="-110.03" cy="20.59" r="70.97" fx="-110.03" fy="20.59" gradientTransform="matrix(1 0 0 .0716 255.76 173.51)" gradientUnits="userSpaceOnUse"/><radialGradient xlink:href="#y" id="R" cx="-113.65" cy="-68.14" r="76.66" fx="-113.65" fy="-68.14" gradientTransform="matrix(.7827 0 0 1.0436 234.71 158.9)" gradientUnits="userSpaceOnUse"/><radialGradient xlink:href="#z" id="aq" cx="-106.41" cy="-33.25" r="56.8" fx="-106.41" fy="-33.25" gradientTransform="matrix(1.21076 .00234 -.0036 1.88776 274.37 178.95)" gradientUnits="userSpaceOnUse"/><radialGradient xlink:href="#A" id="C" cx="160.93" cy="117" r="162" fx="160.93" fy="117" gradientTransform="matrix(1 0 0 .72222 0 32.5)" gradientUnits="userSpaceOnUse"/><radialGradient xlink:href="#B" id="at" cx="-110.12" cy="-32.86" r="51.85" fx="-110.12" fy="-32.86" gradientTransform="matrix(.98028 -.01087 .00854 .7702 251.87 141.46)" gradientUnits="userSpaceOnUse"/><filter id="U" width="1.08" height="1.08" x="-.04" y="-.04" color-interpolation-filters="sRGB"><feGaussianBlur stdDeviation=".34"/></filter><filter id="E" width="1.38" height="2.14" x="-.19" y="-.57" color-interpolation-filters="sRGB"><feGaussianBlur stdDeviation="5.96"/></filter><filter id="aw" width="1.03" height="1.02" x="-.02" y="-.01" color-interpolation-filters="sRGB"><feGaussianBlur stdDeviation=".2"/></filter><filter id="ax" width="1.06" height="1.04" x="-.03" y="-.02" color-interpolation-filters="sRGB"><feGaussianBlur stdDeviation=".37"/></filter><filter id="ap" width="1.03" height="1.02" x="-.02" y="-.01" color-interpolation-filters="sRGB"><feGaussianBlur stdDeviation=".2"/></filter><filter id="M" width="1.08" height="2.1" x="-.04" y="-.55" color-interpolation-filters="sRGB"><feGaussianBlur stdDeviation="2.32"/></filter></defs><path fill="url(#C)" d="M-1.07 0h324v234h-324z" transform="translate(1.07)"/><path fill="url(#D)" d="M-1.07 0h324v234h-324z" transform="matrix(1 0 0 .21453 1.07 183.8)"/><g fill-rule="evenodd" paint-order="markers fill stroke"><path fill="#e8fefe" fill-opacity=".57" d="M-135.69-26.57a37.69 23.06 45 0 0 10.1 13.49 37.69 23.06 45 0 0 3.7 3.37A42.2 11.96 0 0 0-149.48 1.5a42.2 11.96 0 0 0 42.2 11.96A42.2 11.96 0 0 0-65.08 1.5a42.2 11.96 0 0 0-14.43-8.99 37.69 23.06 45 0 0-13.47-38.2 37.69 23.06 45 0 0-13.54-10.13A35.75 12.71 0 0 0-72.83-68.5a35.75 12.71 0 0 0-24.45-12.04c-4.84 6.82-9.6 13.64-14.49 20.45a5697.8 5697.8 0 0 0-23.92 33.52z" filter="url(#E)" transform="matrix(1 0 0 -1 253.76 83.46)"/><g fill="url(#F)" transform="matrix(1.19241 0 0 1.6331 -100.62 344.98)"><path fill="url(#G)" d="M165.83-111.33 141.91-95.9h153.32l-23.93-15.43h-79.39z"/><path fill="url(#H)" d="M165.83-111.33 141.91-95.9h153.32l-23.93-15.43h-79.39z"/></g><path fill="url(#I)" d="M-194.95-256.16h8.43v182.82h-8.43z" transform="matrix(0 -1 -1 0 -4.75 1.75)"/><path fill="url(#J)" d="M70.6 194.95h182.42v37.3H70.6z" transform="translate(-2 1.75)"/></g><path fill="url(#K)" fill-rule="evenodd" d="M194.73 10.19h113v118.5h-113z" paint-order="markers fill stroke"/><path fill="url(#L)" fill-rule="evenodd" d="M197.55 12.96V66.3h50.85V12.96h-50.85zm56.5 0V66.3h50.85V12.96h-50.85zm-56.5 59.63v53.33h50.85V72.59h-50.85zm56.5 0v53.33h50.85V72.59h-50.85z" paint-order="markers fill stroke"/><rect width="141.94" height="10.16" x="93.02" y="172.4" fill="#383e3e" fill-rule="evenodd" filter="url(#M)" paint-order="markers fill stroke" ry="1.95" transform="translate(-2 1.75)"/><rect width="141.94" height="10.16" x="91.02" y="170.4" fill="url(#N)" fill-rule="evenodd" paint-order="markers fill stroke" ry="1.95" transform="translate(-2 1.75)"/><g fill="url(#O)" fill-rule="evenodd" paint-order="markers fill stroke" transform="translate(-58.57 155.5)"><path fill="url(#P)" d="M165.83-111.33 141.91-95.9h153.32l-23.93-15.43h-79.39z"/><path fill="url(#Q)" d="M165.83-111.33 141.91-95.9h153.32l-23.93-15.43h-79.39z"/></g><path fill="url(#R)" fill-rule="evenodd" d="M85.34 57.84h153.32v114.32H85.34z" paint-order="markers fill stroke" transform="translate(-2 1.75)"/><path fill="#2f190a" fill-rule="evenodd" d="M234.96 61h1.7v112.9h-1.7zM83.34 61h1.7v112.9h-1.7z" paint-order="markers fill stroke"/><path fill="url(#S)" fill-rule="evenodd" d="M-59.24-238.66h1.45v153.32h-1.45z" paint-order="markers fill stroke" transform="matrix(0 -1 -1 0 -2 1.75)"/><path fill="url(#T)" fill-rule="evenodd" d="M203.76 64.8h31v51h-31z" paint-order="markers fill stroke" transform="translate(-2 1.75)"/><g fill-rule="evenodd" paint-order="markers fill stroke" transform="translate(211.6 163.26)"><circle cx="5.67" cy="-83.02" r="9.76" fill="#331708" filter="url(#U)"/><circle cx="5.21" cy="-83.97" r="9.76" fill="url(#V)"/><g fill="#dcdcdc"><use xlink:href="#W"/><use xlink:href="#X"/><use xlink:href="#Y"/><use xlink:href="#Z"/></g><circle cx="5.21" cy="-83.97" r="8.34" fill="url(#aa)"/><path fill="url(#ab)" d="M.65-77.6c.68-.75 1.35-1.51 2.14-2.34a4.7 4.7 0 0 1-2.3-4.03 4.7 4.7 0 0 1 4.72-4.7 4.7 4.7 0 0 1 4.7 4.64c.09.04.22.04.3.08a4.1 4.1 0 0 0 1.7.5.82.82 0 0 0 .6-.27c.17-.2.32-.5.44-1 .01-.07.01-.2.03-.28a7.84 7.84 0 0 0-7.77-6.82 7.84 7.84 0 0 0-7.85 7.85 7.84 7.84 0 0 0 3.3 6.38z"/></g><g transform="translate(257.05 141.04)"><path fill="url(#ac)" d="m-47-55 2.5-5 2.5 2.5z"/><circle cx="-40.25" cy="-61.75" r="5" fill="#686868" fill-rule="evenodd" paint-order="markers fill stroke"/><use xlink:href="#ad" fill-rule="evenodd" paint-order="markers fill stroke"/><circle cx="-40.25" cy="-61.75" r="4" fill="#999" fill-rule="evenodd" paint-order="markers fill stroke"/><use xlink:href="#ae" fill-rule="evenodd" paint-order="markers fill stroke"/><circle cx="-40.25" cy="-61.75" r="2.5" fill="url(#af)" fill-rule="evenodd" paint-order="markers fill stroke"/><path fill="url(#ag)" d="M-74.7-64.96a2 2 0 0 0-.76.34c-.23.18-.38.41-.52.69-.14.28-.28.6-.13.75.16.15.6.13 1.23.13s1.45.02 1.87-.08c.4-.1.42-.3.28-.56a3.03 3.03 0 0 0-.7-.77 2.83 2.83 0 0 0-.7-.44.86.86 0 0 0-.57-.06z" transform="translate(34.25 1.18)"/><path fill="url(#ah)" d="M-74.7-64.96a2 2 0 0 0-.76.34c-.23.18-.38.41-.52.69-.14.28-.28.6-.13.75.16.15.6.13 1.23.13s1.45.02 1.87-.08c.4-.1.42-.3.28-.56a3.03 3.03 0 0 0-.7-.77 2.83 2.83 0 0 0-.7-.44.86.86 0 0 0-.57-.06z" transform="translate(14.64 -15.74) scale(.73604)"/></g><g fill-rule="evenodd" paint-order="markers fill stroke" transform="translate(211.6 187.26)"><circle cx="5.67" cy="-83.02" r="9.76" fill="#331708" filter="url(#U)"/><circle cx="5.21" cy="-83.97" r="9.76" fill="url(#ai)"/><g fill="#dcdcdc"><use xlink:href="#W"/><use xlink:href="#X"/><use xlink:href="#Y"/><use xlink:href="#Z"/></g><circle cx="68.99" cy="48.15" r="8.34" fill="url(#aj)" transform="rotate(-121.37)"/><path fill="url(#ak)" d="M.65-77.6c.68-.75 1.35-1.51 2.14-2.34a4.7 4.7 0 0 1-2.3-4.03 4.7 4.7 0 0 1 4.72-4.7 4.7 4.7 0 0 1 4.7 4.64c.09.04.22.04.3.08a4.1 4.1 0 0 0 1.7.5.82.82 0 0 0 .6-.27c.17-.2.32-.5.44-1 .01-.07.01-.2.03-.28a7.84 7.84 0 0 0-7.77-6.82 7.84 7.84 0 0 0-7.85 7.85 7.84 7.84 0 0 0 3.3 6.38z"/></g><g transform="translate(257.05 165.04)"><path fill="url(#al)" d="m-30.97-59.5-5.57.47.83-3.44z"/><circle cx="-40.25" cy="-61.75" r="5" fill="#686868" fill-rule="evenodd" paint-order="markers fill stroke"/><use xlink:href="#ad" fill-rule="evenodd" paint-order="markers fill stroke"/><circle cx="-40.25" cy="-61.75" r="4" fill="#999" fill-rule="evenodd" paint-order="markers fill stroke"/><use xlink:href="#ae" fill-rule="evenodd" paint-order="markers fill stroke"/><circle cx="-40.25" cy="-61.75" r="2.5" fill="url(#am)" fill-rule="evenodd" paint-order="markers fill stroke"/><path fill="url(#an)" d="M-74.7-64.96a2 2 0 0 0-.76.34c-.23.18-.38.41-.52.69-.14.28-.28.6-.13.75.16.15.6.13 1.23.13s1.45.02 1.87-.08c.4-.1.42-.3.28-.56a3.03 3.03 0 0 0-.7-.77 2.83 2.83 0 0 0-.7-.44.86.86 0 0 0-.57-.06z" transform="translate(34.25 1.18)"/><path fill="url(#ao)" d="M-74.7-64.96a2 2 0 0 0-.76.34c-.23.18-.38.41-.52.69-.14.28-.28.6-.13.75.16.15.6.13 1.23.13s1.45.02 1.87-.08c.4-.1.42-.3.28-.56a3.03 3.03 0 0 0-.7-.77 2.83 2.83 0 0 0-.7-.44.86.86 0 0 0-.57-.06z" transform="translate(14.64 -15.74) scale(.73604)"/></g><path fill="#4e250c" fill-rule="evenodd" d="M202.01 116.56h30.5v.98h-30.5z" paint-order="markers fill stroke"/><path fill="#4e250c" fill-rule="evenodd" d="M202.75 66.56v51h-.99v-51z" paint-order="markers fill stroke"/><path fill="none" stroke="#90491c" stroke-width=".5" d="M203.76 64.8h31v51h-31z" filter="url(#ap)" paint-order="markers fill stroke" transform="translate(-2 1.75)"/><rect width="114.26" height="105.54" x="88.51" y="63.16" fill="url(#aq)" fill-rule="evenodd" paint-order="markers fill stroke" ry="4.77" transform="translate(-2 1.75)"/><rect width="110.86" height="102.39" x="90.21" y="64.73" fill="url(#ar)" fill-rule="evenodd" paint-order="markers fill stroke" ry="4.63" transform="translate(-2 1.75)"/><rect width="106.47" height="98.34" x="92.41" y="66.76" fill="#3e3e3e" fill-rule="evenodd" stroke="url(#as)" paint-order="markers fill stroke" ry="4.44" transform="translate(-2 1.75)"/><rect width="104.34" height="96.37" x="93.47" y="67.74" fill-rule="evenodd" paint-order="markers fill stroke" ry="4.35" transform="translate(-2 1.75)"/><path fill="url(#at)" d="M143.64 68.93c-20.29 0-40.58 2.06-45.09 6.18-4.6 4.2-6.82 23.35-6.73 42.24-.09 18.89 2.14 38.04 6.73 42.24 9.02 8.24 81.17 8.24 90.18 0 4.6-4.2 6.82-23.35 6.74-42.24.08-18.89-2.14-38.04-6.74-42.24-4.5-4.12-24.8-6.18-45.09-6.18z"/><path fill="url(#au)" d="m94.78 150.26 42.89-81.18c-18.13.37-35.06 2.32-39.12 6.03-4.6 4.2-6.82 23.35-6.73 42.24-.06 12.44.99 24.6 2.96 32.91z"/><path fill="#5287c2" d="M143.64 71.37c-19.68 0-39.37 2-43.75 6-8.74 8-8.74 71.97 0 79.96 8.75 8 78.75 8 87.5 0s8.75-71.97 0-79.96c-4.37-4-24.06-6-43.75-6zm0 1.35c19.1 0 38.2 1.94 42.44 5.81 8.49 7.76 8.49 69.82 0 77.57-8.49 7.76-76.39 7.76-84.87 0-8.49-7.75-8.49-69.8 0-77.57 4.24-3.87 23.34-5.81 42.43-5.81z"/><path fill="#abd1e4" d="M102.9 80.28c-.77.4-1.44.87-2.1 1.7-.67.83-1.34 2.03-1.67 2.91-.33.88-.33 1.65 0 2.15s1 .84 2 .76c1-.07 2.33-.55 3.67-1.47a13.02 13.02 0 0 0 3.33-3.36c.67-1.06.67-1.94.1-2.52-.56-.57-1.68-.9-2.68-.9-1 0-1.88.32-2.65.73z"/><path fill="#9ac7de" d="M99.5 90.65c-.36.4-.65.83-.86 1.47-.2.63-.33 1.48-.33 2.07 0 .59.16 1.04.47 1.26.3.22.77.27 1.34 0a4.93 4.93 0 0 0 1.83-1.66 8.16 8.16 0 0 0 1.21-2.7c.16-.78-.03-1.3-.49-1.5-.46-.22-1.19-.17-1.78.05-.58.22-1.02.6-1.39 1.01z"/><path fill="url(#av)" fill-rule="evenodd" stroke="#9f5e33" stroke-width=".49" d="M203.76 118.04h31v49.77h-31z" filter="url(#aw)" paint-order="markers fill stroke" transform="translate(-2 1.75)"/><path fill="none" stroke="#64381b" stroke-width="1.47" d="M204.37 119.02h29.78v47.8h-29.78z" filter="url(#ax)" paint-order="markers fill stroke" transform="translate(-2 1.75)"/><path fill="#341d0d" fill-rule="evenodd" d="M206.54 125.19h21.44v.97h-21.44zm0 2h21.44v.97h-21.44zm0 2h21.44v.97h-21.44zm0 2h21.44v.97h-21.44zm0 2h21.44v.97h-21.44zm0 2h21.44v.97h-21.44zm0 2h21.44v.97h-21.44zm0 2h21.44v.97h-21.44zm0 2h21.44v.97h-21.44zm0 2h21.44v.97h-21.44zm0 2h21.44v.97h-21.44zm0 2h21.44v.97h-21.44zm0 2h21.44v.97h-21.44zm0 2h21.44v.97h-21.44zm0 2h21.44v.97h-21.44zm0 2h21.44v.97h-21.44z" paint-order="markers fill stroke"/><path fill="url(#ay)" fill-rule="evenodd" d="M209.26 158.97h20v5h-20z" paint-order="markers fill stroke" transform="translate(-2 1.75)"/><path fill="url(#linearGradient3612)" fill-rule="evenodd" d="M-46.5 10.69v4h20v-4zm15.58.6a2 2 0 0 1 .6.08c.17.05.32.13.44.25.12.11.22.26.28.43.07.18.1.39.1.63s-.03.45-.1.63a1.13 1.13 0 0 1-.73.7c-.17.05-.37.08-.59.08-.22 0-.42-.03-.6-.08a1.13 1.13 0 0 1-.73-.7c-.06-.18-.09-.39-.09-.63s.03-.45.1-.63c.06-.17.15-.32.27-.43.12-.12.27-.2.44-.25.18-.06.38-.09.61-.09zm-6.21 0h.59l.97 2.55.2.06v.15h-1.21v-.15l.31-.06-.26-.7h-1.05l-.25.7.35.06v.15h-.83v-.15l.2-.06zm-5.89.02h1.3v.15l-.3.06v1.65c0 .12-.02.23-.04.32a.85.85 0 0 1-.11.25.73.73 0 0 1-.36.28 1.45 1.45 0 0 1-.58.07 2.49 2.49 0 0 1-.39-.06v-.62h.18l.06.36.11.08.16.02a.3.3 0 0 0 .23-.1c.06-.06.1-.16.1-.29v-1.96l-.36-.06zm1.5 0h1.34v.15l-.35.06v1h1.11v-1l-.35-.06v-.15h1.35v.15l-.35.06v2.32l.35.06v.15h-1.35v-.15l.35-.06v-1.09h-1.11v1.1l.35.05v.15h-1.35v-.15l.35-.06v-2.32l-.35-.06zm6.26 0h1.41v.15l-.42.06v2.31h.56a4.95 4.95 0 0 0 .64-.04l.16-.57h.19l-.08.83h-2.46v-.15l.35-.06v-2.32l-.35-.06zm4.34.18a.74.74 0 0 0-.36.08.6.6 0 0 0-.23.23c-.05.1-.1.22-.12.37a3.3 3.3 0 0 0 0 1.02c.02.15.07.27.12.38.06.1.14.18.23.23.1.06.22.08.36.08a.6.6 0 0 0 .59-.32c.06-.1.1-.22.12-.37a3.38 3.38 0 0 0 0-1.02 1.1 1.1 0 0 0-.12-.37.6.6 0 0 0-.23-.23.73.73 0 0 0-.36-.08zm-6.12.21-.45 1.21h.88z" paint-order="markers fill stroke" transform="translate(253.76 150.54)"/><path fill="url(#az)" d="M0 128v106h324v-83.88c-28.59-18-81.25-45.66-109.14-60.16-28.78-14.96-30.7-15.71-33.76-16.43-3.06-.71-7.27-1.4-11.89-1.88-4.6-.5-9.63-.8-14.07-.96a261.39 261.39 0 0 0-22.98.11c-4.25.19-9.46.48-13.88.97-4.42.5-8.07 1.21-10.5 1.53-2.41.32-3.61.25-25.5 11.18-20.82 10.4-59.9 30.55-82.28 43.51z"/></svg>