<?xml version="1.0" encoding="UTF-8"?>
<svg xmlns="http://www.w3.org/2000/svg" xmlns:xlink="http://www.w3.org/1999/xlink" width="324px" height="234px" viewBox="0 0 324 234" version="1.1">
<defs>
<linearGradient id="linear0" gradientUnits="userSpaceOnUse" x1="-89.747543" y1="-34.836533" x2="-74.914627" y2="-34.836533" gradientTransform="matrix(-0.00276032,1.799998,-1.799998,-0.00279034,0.132498,-86.39989)">
<stop offset="0" style="stop-color:rgb(81.960785%,81.960785%,81.960785%);stop-opacity:1;"/>
<stop offset="1" style="stop-color:rgb(85.882354%,85.882354%,85.882354%);stop-opacity:1;"/>
</linearGradient>
<radialGradient id="radial0" gradientUnits="userSpaceOnUse" cx="-90.27124" cy="-75.188805" fx="-90.27124" fy="-75.188805" r="23.304266" gradientTransform="matrix(-1.799998,-0.00238759,0.00422449,-2.357177,0.0750812,-41.893689)">
<stop offset="0" style="stop-color:rgb(36.862746%,40.000001%,43.921569%);stop-opacity:1;"/>
<stop offset="1" style="stop-color:rgb(40.392157%,43.921569%,48.235294%);stop-opacity:1;"/>
</radialGradient>
<clipPath id="clip1">
  <path d="M 152 123 L 178 123 L 178 148 L 152 148 Z M 152 123 "/>
</clipPath>
<clipPath id="clip2">
  <path d="M 198.503906 135.570312 C 198.503906 155.390625 182.527344 171.445312 162.839844 171.445312 C 143.15625 171.445312 127.179688 155.390625 127.179688 135.570312 C 127.179688 115.746094 143.15625 99.691406 162.839844 99.691406 C 182.527344 99.691406 198.503906 115.746094 198.503906 135.570312 Z M 198.503906 135.570312 "/>
</clipPath>
<linearGradient id="linear1" gradientUnits="userSpaceOnUse" x1="10.231" y1="23.991501" x2="37.000999" y2="23.991501" gradientTransform="matrix(0.000000000000000095,-1.559906,1.550572,0.000000000000000096,4.337109,166.682776)">
<stop offset="0" style="stop-color:rgb(54.901963%,83.92157%,26.666668%);stop-opacity:1;"/>
<stop offset="1" style="stop-color:rgb(59.215689%,85.490197%,32.941177%);stop-opacity:1;"/>
</linearGradient>
<clipPath id="clip3">
  <path d="M 162 139 L 178 139 L 178 148 L 162 148 Z M 162 139 "/>
</clipPath>
<clipPath id="clip4">
  <path d="M 198.503906 135.570312 C 198.503906 155.390625 182.527344 171.445312 162.839844 171.445312 C 143.15625 171.445312 127.179688 155.390625 127.179688 135.570312 C 127.179688 115.746094 143.15625 99.691406 162.839844 99.691406 C 182.527344 99.691406 198.503906 115.746094 198.503906 135.570312 Z M 198.503906 135.570312 "/>
</clipPath>
<linearGradient id="linear2" gradientUnits="userSpaceOnUse" x1="10.231" y1="23.991501" x2="37.000999" y2="23.991501" gradientTransform="matrix(0.000000000000000095,-1.559906,1.550572,0.000000000000000096,4.337109,166.682776)">
<stop offset="0" style="stop-color:rgb(54.901963%,83.92157%,26.666668%);stop-opacity:1;"/>
<stop offset="1" style="stop-color:rgb(59.215689%,85.490197%,32.941177%);stop-opacity:1;"/>
</linearGradient>
<clipPath id="clip5">
  <path d="M 141 116 L 183 116 L 183 155 L 141 155 Z M 141 116 "/>
</clipPath>
<clipPath id="clip6">
  <path d="M 198.503906 135.570312 C 198.503906 155.390625 182.527344 171.445312 162.839844 171.445312 C 143.15625 171.445312 127.179688 155.390625 127.179688 135.570312 C 127.179688 115.746094 143.15625 99.691406 162.839844 99.691406 C 182.527344 99.691406 198.503906 115.746094 198.503906 135.570312 Z M 198.503906 135.570312 "/>
</clipPath>
<linearGradient id="linear3" gradientUnits="userSpaceOnUse" x1="10.231" y1="23.991501" x2="37.000999" y2="23.991501" gradientTransform="matrix(0.000000000000000095,-1.559906,1.550572,0.000000000000000096,4.337109,166.682776)">
<stop offset="0" style="stop-color:rgb(54.901963%,83.92157%,26.666668%);stop-opacity:1;"/>
<stop offset="1" style="stop-color:rgb(59.215689%,85.490197%,32.941177%);stop-opacity:1;"/>
</linearGradient>
</defs>
<g id="surface1">
<rect x="0" y="0" width="324" height="234" style="fill:rgb(50.588238%,72.941178%,26.274511%);fill-opacity:1;stroke:none;"/>
<path style="fill:none;stroke-width:1.021703;stroke-linecap:butt;stroke-linejoin:miter;stroke:rgb(100%,100%,100%);stroke-opacity:1;stroke-miterlimit:4;" d="M -0.94401 -1.082899 L 181.217448 -1.082899 L 181.217448 130.605469 L -0.94401 130.605469 Z M -0.94401 -1.082899 " transform="matrix(1.8,0,0,1.8,0,0)"/>
<path style=" stroke:none;fill-rule:evenodd;fill:rgb(90.196079%,91.764706%,93.725491%);fill-opacity:1;" d="M 188.121094 81.808594 L 161.421875 81.769531 L 161.476562 44.144531 L 188.175781 44.183594 Z M 188.121094 81.808594 "/>
<path style=" stroke:none;fill-rule:evenodd;fill:url(#linear0);" d="M 161.421875 81.769531 L 134.722656 81.726562 L 134.777344 44.101562 L 161.476562 44.144531 Z M 161.421875 81.769531 "/>
<path style=" stroke:none;fill-rule:evenodd;fill:rgb(30.19608%,30.19608%,30.19608%);fill-opacity:1;" d="M 181.925781 59.820312 L 167.863281 59.800781 L 167.875 53.539062 L 181.9375 53.5625 Z M 181.925781 59.820312 "/>
<path style=" stroke:none;fill-rule:evenodd;fill:rgb(30.19608%,30.19608%,30.19608%);fill-opacity:1;" d="M 154.1875 59.777344 L 140.027344 59.757812 L 140.035156 53.496094 L 154.195312 53.519531 Z M 154.1875 59.777344 "/>
<path style=" stroke:none;fill-rule:evenodd;fill:url(#radial0);" d="M 182.367188 190.515625 L 141.925781 190.460938 C 129.925781 190.445312 120.210938 183.988281 120.226562 176.039062 L 120.371094 94.957031 C 120.386719 87.011719 130.125 80.582031 142.121094 80.597656 L 182.566406 80.648438 C 194.5625 80.664062 204.28125 87.121094 204.265625 95.070312 L 204.121094 176.152344 C 204.105469 184.101562 194.367188 190.53125 182.367188 190.515625 Z M 182.367188 190.515625 "/>
<g clip-path="url(#clip1)" clip-rule="nonzero">
<g clip-path="url(#clip2)" clip-rule="nonzero">
<path style=" stroke:none;fill-rule:evenodd;fill:url(#linear1);" d="M 164.65625 126.378906 C 163.195312 126.378906 161.898438 126.929688 160.859375 127.984375 C 159.820312 129.035156 159.273438 130.359375 159.273438 131.851562 L 159.273438 139.382812 L 162.667969 139.382812 L 162.667969 131.851562 C 162.667969 131.285156 162.851562 130.835938 163.257812 130.417969 C 163.664062 130.003906 164.09375 129.816406 164.644531 129.816406 C 165.214844 129.816406 165.644531 130.003906 166.042969 130.417969 C 166.449219 130.835938 166.628906 131.277344 166.628906 131.851562 L 166.628906 139.382812 L 170.027344 139.382812 L 170.027344 131.851562 C 170.027344 131.285156 170.214844 130.835938 170.617188 130.417969 C 171.023438 130.003906 171.445312 129.816406 172.007812 129.816406 C 172.570312 129.816406 173.007812 130.003906 173.40625 130.417969 C 173.8125 130.835938 173.996094 131.277344 173.996094 131.851562 L 174.019531 140.652344 C 174.019531 142.535156 172.238281 144.113281 169.953125 144.113281 L 159.007812 144.070312 C 157.246094 144.070312 155.742188 142.347656 155.742188 140.128906 L 155.742188 123.558594 L 152.535156 123.558594 L 152.535156 140.765625 C 152.535156 142.59375 153.199219 144.195312 154.492188 145.492188 C 155.59375 146.589844 156.925781 147.300781 158.410156 147.460938 L 170.601562 147.460938 C 172.480469 147.460938 174.125 146.761719 175.445312 145.394531 L 175.453125 145.394531 C 176.585938 144.230469 177.246094 142.835938 177.402344 141.257812 L 177.390625 131.851562 C 177.390625 130.359375 176.851562 129.042969 175.804688 127.984375 C 174.761719 126.929688 173.472656 126.382812 172.015625 126.382812 C 170.578125 126.382812 169.332031 126.917969 168.3125 127.910156 C 167.308594 126.917969 166.058594 126.382812 164.625 126.382812 M 164.660156 126.382812 "/>
</g>
</g>
<g clip-path="url(#clip3)" clip-rule="nonzero">
<g clip-path="url(#clip4)" clip-rule="nonzero">
<path style=" stroke:none;fill-rule:evenodd;fill:url(#linear2);" d="M 162.660156 144.082031 L 162.660156 147.449219 L 170.636719 147.449219 C 172.507812 147.449219 174.144531 146.75 175.476562 145.390625 L 175.488281 145.390625 C 176.621094 144.222656 177.273438 142.824219 177.441406 141.246094 L 177.441406 139.335938 L 174.046875 139.335938 L 174.046875 140.644531 C 174.046875 142.527344 172.273438 144.097656 169.996094 144.097656 L 162.664062 144.082031 M 162.660156 144.082031 "/>
</g>
</g>
<g clip-path="url(#clip5)" clip-rule="nonzero">
<g clip-path="url(#clip6)" clip-rule="nonzero">
<path style=" stroke:none;fill-rule:evenodd;fill:url(#linear3);" d="M 160.804688 154.28125 C 153.089844 154.28125 146.390625 148.394531 146.390625 140.632812 L 146.382812 131.210938 L 146.382812 128.804688 L 141.492188 128.804688 L 141.492188 116.828125 L 162.128906 116.933594 L 168.585938 116.945312 C 176.304688 116.945312 183 122.824219 183 130.585938 L 183 154.265625 L 160.800781 154.265625 M 179.855469 147.925781 C 179.855469 142.769531 179.855469 130.59375 179.855469 130.59375 C 179.855469 124.804688 174.804688 120.113281 168.585938 120.113281 L 162.121094 120.113281 L 162.121094 120.101562 L 144.640625 120.015625 L 144.640625 125.636719 C 144.640625 125.636719 145.351562 125.636719 146.597656 125.636719 C 147.929688 125.636719 149.53125 126.894531 149.53125 128.738281 L 149.5625 140.609375 C 149.5625 146.398438 154.609375 151.097656 160.828125 151.097656 L 176.183594 151.097656 C 178.152344 151.097656 179.878906 149.832031 179.878906 147.914062 M 179.871094 147.914062 "/>
</g>
</g>
</g>
</svg>
