<?xml version="1.0" encoding="UTF-8"?>
<svg xmlns="http://www.w3.org/2000/svg" xmlns:xlink="http://www.w3.org/1999/xlink" width="324px" height="234px" viewBox="0 0 324 234" version="1.1">
<defs>
<linearGradient id="linear0" gradientUnits="userSpaceOnUse" x1="-1.455352" y1="64.761543" x2="181.728165" y2="64.761543" gradientTransform="matrix(1.8,0,0,0.98181,0,439.2)">
<stop offset="0" style="stop-color:rgb(77.64706%,80.392158%,81.960785%);stop-opacity:1;"/>
<stop offset="1" style="stop-color:rgb(87.843138%,89.803922%,90.588236%);stop-opacity:1;"/>
</linearGradient>
<linearGradient id="linear1" gradientUnits="userSpaceOnUse" x1="288.111572" y1="141.784515" x2="287.57547" y2="79.007812" gradientTransform="matrix(-0.00172589,0.980025,-0.976654,-0.00173184,234.334737,-162.490709)">
<stop offset="0" style="stop-color:rgb(0%,0%,0%);stop-opacity:0.046875;"/>
<stop offset="1" style="stop-color:rgb(0%,0%,0%);stop-opacity:0;"/>
</linearGradient>
<linearGradient id="linear2" gradientUnits="userSpaceOnUse" x1="6.479695" y1="24.511812" x2="42.062531" y2="24.511812" gradientTransform="matrix(0.907583,0,0,0.923328,1.879359,1.835999)">
<stop offset="0" style="stop-color:rgb(3.921569%,50.196081%,99.215686%);stop-opacity:1;"/>
<stop offset="1" style="stop-color:rgb(33.725491%,77.254903%,98.039216%);stop-opacity:1;"/>
</linearGradient>
</defs>
<g id="surface1">
<rect x="0" y="0" width="324" height="234" style="fill:url(#linear0);stroke:none;"/>
<path style="fill:none;stroke-width:1.021703;stroke-linecap:butt;stroke-linejoin:miter;stroke:rgb(100%,100%,100%);stroke-opacity:1;stroke-miterlimit:4;" d="M -0.94401 -1.082899 L 181.217448 -1.082899 L 181.217448 130.605469 L -0.94401 130.605469 Z M -0.94401 -1.082899 " transform="matrix(1.8,0,0,1.8,0,0)"/>
<path style="fill-rule:nonzero;fill:rgb(15.686275%,60.784316%,98.823529%);fill-opacity:1;stroke-width:0.332607;stroke-linecap:square;stroke-linejoin:bevel;stroke:rgb(0%,0%,0%);stroke-opacity:0.078125;stroke-miterlimit:4;" d="M 3.244364 28.694761 L 3.244364 20.289536 C 3.244364 6.528861 14.504136 3.662006 20.546581 3.662006 L 27.678575 3.662006 C 33.645311 3.662006 44.980793 6.338038 44.980793 21.310267 L 44.980793 28.167458 C 44.980793 39.607777 37.263975 45.132597 27.678575 45.132597 L 20.546581 45.132597 C 10.961181 45.132597 3.244364 39.71956 3.244364 28.694761 Z M 3.244364 28.694761 " transform="matrix(3.560102,0,0,3.45953,76.40286,32.167117)"/>
<path style=" stroke:none;fill-rule:nonzero;fill:url(#linear1);" d="M 156.078125 49.113281 L 150.714844 49.105469 C 119.933594 49.050781 95.125 67.015625 95.058594 104.316406 L 95.019531 126.671875 C 94.933594 175.488281 131.316406 184.277344 150.476562 184.308594 L 155.839844 184.320312 C 136.679688 184.285156 100.296875 175.496094 100.382812 126.683594 L 100.421875 104.324219 C 100.488281 67.027344 125.296875 49.058594 156.078125 49.113281 Z M 156.078125 49.113281 "/>
<path style="fill-rule:nonzero;fill:rgb(14.509805%,41.568628%,60.000002%);fill-opacity:1;stroke-width:0.30665;stroke-linecap:square;stroke-linejoin:bevel;stroke:rgb(0%,0%,0%);stroke-opacity:0.078125;stroke-miterlimit:4;" d="M 43.554394 20.428419 C 43.57195 10.038189 36.620999 4.924371 27.975925 4.908563 L 24.099411 4.901788 L 24.03248 43.983145 L 27.908993 43.991049 C 33.358934 44.000082 43.518185 41.317276 43.541227 28.349248 Z M 43.554394 20.428419 " transform="matrix(3.560102,0,0,3.45953,76.40286,32.167117)"/>
<path style="fill-rule:nonzero;fill:rgb(92.54902%,92.54902%,92.54902%);fill-opacity:1;stroke-width:0.30665;stroke-linecap:square;stroke-linejoin:bevel;stroke:rgb(0%,0%,0%);stroke-opacity:0.078125;stroke-miterlimit:4;" d="M 4.60822 28.483614 C 4.603831 38.873844 11.561366 43.9775 20.20644 43.982016 L 24.082953 43.983145 L 24.099411 4.901788 L 20.222898 4.900659 C 14.772958 4.897272 4.616998 7.594757 4.611512 20.562785 Z M 4.60822 28.483614 " transform="matrix(3.560102,0,0,3.45953,76.40286,32.167117)"/>
<path style="fill-rule:nonzero;fill:url(#linear2);stroke-width:0.25979;stroke-linecap:square;stroke-linejoin:bevel;stroke:rgb(0%,0%,0%);stroke-opacity:0.078125;stroke-miterlimit:4;" d="M 7.888938 27.884047 L 7.888938 21.203 C 7.888938 10.266272 16.531817 7.988822 21.169808 7.988822 L 26.644985 7.988822 C 31.224822 7.988822 39.925855 10.114969 39.925855 22.014843 L 39.925855 27.465141 C 39.925855 36.558004 34.001911 40.948051 26.644985 40.948051 L 21.169808 40.948051 C 13.812882 40.948051 7.888938 36.646076 7.888938 27.884047 Z M 7.888938 27.884047 " transform="matrix(3.560102,0,0,3.45953,76.40286,32.167117)"/>
<path style=" stroke:none;fill-rule:nonzero;fill:rgb(100%,100%,100%);fill-opacity:0.846;" d="M 188.097656 110.242188 C 187.738281 110.535156 187.207031 110.554688 186.824219 110.285156 L 174.160156 101.410156 L 168.15625 134.464844 C 168.132812 134.589844 168.085938 134.703125 168.015625 134.808594 C 166.8125 139.546875 160.242188 143.082031 152.515625 143.082031 C 143.859375 143.082031 136.816406 138.667969 136.816406 133.253906 C 136.816406 127.828125 143.855469 123.425781 152.515625 123.425781 C 156.074219 123.425781 159.453125 124.15625 162.199219 125.5 L 170.136719 84.050781 C 170.207031 83.671875 170.53125 83.371094 170.949219 83.300781 C 171.347656 83.234375 171.773438 83.402344 171.988281 83.738281 L 188.292969 109.109375 C 188.535156 109.496094 188.453125 109.976562 188.097656 110.269531 "/>
</g>
</svg>
