<svg xmlns="http://www.w3.org/2000/svg" xmlns:xlink="http://www.w3.org/1999/xlink" width="324" height="234"><defs><linearGradient id="a" x1="70.79" x2="6.45" y1="12.39" y2="74.47" gradientTransform="translate(3.7)" gradientUnits="userSpaceOnUse"><stop offset=".05" stop-color="#fff44f"/><stop offset=".11" stop-color="#ffe847"/><stop offset=".23" stop-color="#ffc830"/><stop offset=".37" stop-color="#ff980e"/><stop offset=".4" stop-color="#ff8b16"/><stop offset=".46" stop-color="#ff672a"/><stop offset=".53" stop-color="#ff3647"/><stop offset=".7" stop-color="#e31587"/></linearGradient><linearGradient xlink:href="#a" id="b" x1="0" x2="324.16" y1="117.14" y2="117.14" gradientUnits="userSpaceOnUse"/></defs><path fill="url(#b)" fill-rule="evenodd" d="M0 0v234.28h324.16V0Z" paint-order="markers fill stroke"/><path fill="#4589dd" d="M162.46 53.74a15.71 14.42 0 0 0-8.25 1.9l-46.18 24.5a15.71 14.42 0 0 0-7.83 12.5v49a15.71 14.42 0 0 0 7.83 12.46l46.21 24.5a15.71 14.42 0 0 0 15.68 0l46.21-24.5a15.71 14.42 0 0 0 7.84-12.45V92.64a15.71 14.42 0 0 0-7.84-12.5l-46.2-24.47a15.71 14.42 0 0 0-7.47-1.9z"/><path fill="#2e69b5" d="M101.78 86.33a15.71 14.42 0 0 0-1.58 6.34v48.98a15.71 14.42 0 0 0 7.83 12.45l46.21 24.5a15.71 14.42 0 0 0 7.84 1.91v-63.24Z"/><path fill="#5398ed" d="m222.42 86.45-60.34 30.94v63.15a15.71 14.42 0 0 0 7.84-1.93l46.21-24.5a15.71 14.42 0 0 0 7.84-12.46V92.64a15.71 14.42 0 0 0-1.55-6.19z"/><path d="M101.78 86.33a15.71 14.42 0 0 0-1.58 6.34v3.17a15.71 14.42 0 0 1 1.58-6.34l60.3 30.9v-3.16z" opacity=".1"/><path fill="#fff" d="m222.42 86.45-60.34 30.94v3.17l60.34-30.94a15.71 14.42 0 0 1 1.55 6.19v-3.17a15.71 14.42 0 0 0-1.55-6.19z" opacity=".1"/></svg>