<svg xmlns="http://www.w3.org/2000/svg" xmlns:xlink="http://www.w3.org/1999/xlink" xml:space="preserve" width="324" height="234"><defs><linearGradient id="a"><stop offset="0" stop-color="#f9aa40"/><stop offset="1" stop-color="#f9aa40"/></linearGradient><linearGradient xlink:href="#a" id="b" x1="0" x2="200" y1="-.31" y2="123.31" gradientTransform="matrix(-1.6 0 0 1.9 324 .59)" gradientUnits="userSpaceOnUse"/><linearGradient id="c" x1="132.94" x2="180.51" y1="253.06" y2="304.85" gradientTransform="matrix(1 0 0 .5 18.67 56.75)" gradientUnits="userSpaceOnUse"><stop offset=".11" stop-color="#f0c83b"/><stop offset=".24" stop-color="#f1563c"/><stop offset=".27" stop-color="#e65352"/><stop offset=".32" stop-color="#d34f7a"/><stop offset=".37" stop-color="#c74c92"/><stop offset=".39" stop-color="#c34b9b"/><stop offset=".61" stop-color="#00b3c1"/><stop offset=".81" stop-color="#00b36c"/><stop offset="1" stop-color="#00b3c1"/></linearGradient></defs><path fill="url(#b)" d="M324 0v234H0V0Z"/><g opacity=".75"><ellipse cx="170.39" cy="189.55" fill="#101214" rx="103.03" ry="17.42"/><path fill="url(#c)" d="M213.12 189.55c0 4-19.13 7.23-42.73 7.23-23.6 0-42.74-3.24-42.74-7.23s19.13-7.22 42.74-7.22c23.6 0 42.73 3.23 42.73 7.22z"/><path fill="#434345" d="M170.39 206.34c-54.92 0-98.97-7.55-98.97-16.79 0-9.2 43.82-16.78 98.97-16.78 55.07 0 98.96 7.57 98.96 16.78 0 9.2-43.81 16.79-98.96 16.79zm0-33.41c-54.4 0-98.63 7.45-98.63 16.62 0 9.17 44.24 16.62 98.62 16.62 54.4 0 98.63-7.45 98.63-16.62 0-9.16-44.24-16.62-98.62-16.62z"/><path fill="#434345" d="M170.39 205.13c-50.64 0-91.84-6.99-91.84-15.58s41.2-15.58 91.84-15.58c50.63 0 91.83 7 91.83 15.58 0 8.6-41.2 15.58-91.84 15.58Zm0-31c-50.45 0-91.5 6.92-91.5 15.42s41.05 15.42 91.5 15.42c50.44 0 91.49-6.91 91.49-15.42 0-8.5-41.04-15.41-91.49-15.41Z"/><path fill="#434345" d="M170.39 203.61c-45.7 0-82.87-6.3-82.87-14.06 0-7.75 37.18-14.06 82.87-14.06 45.7 0 82.86 6.31 82.86 14.06 0 7.75-37.17 14.06-82.86 14.06Zm0-27.96c-45.5 0-82.53 6.24-82.53 13.9 0 7.67 37.02 13.9 82.53 13.9 45.5 0 82.53-6.23 82.53-13.9 0-7.66-37.02-13.9-82.53-13.9Z"/><path fill="#434345" d="M170.39 202.47c-41.96 0-76.08-5.8-76.08-12.92s34.13-12.91 76.08-12.91c41.95 0 76.07 5.8 76.07 12.91 0 7.12-34.12 12.91-76.07 12.91Zm0-25.67c-41.76 0-75.74 5.72-75.74 12.75s33.98 12.75 75.74 12.75c41.75 0 75.74-5.72 75.74-12.75s-33.98-12.75-75.74-12.75Z"/><path fill="#434345" d="M170.39 201.12c-37.57 0-68.13-5.19-68.13-11.57s30.56-11.57 68.13-11.57c37.56 0 68.12 5.18 68.12 11.57 0 6.38-30.56 11.57-68.12 11.57Zm0-22.98c-37.38 0-67.8 5.12-67.8 11.4 0 6.3 30.42 11.42 67.8 11.42 37.37 0 67.78-5.12 67.78-11.4 0-6.3-30.4-11.41-67.78-11.41Z"/><path fill="#434345" d="M170.39 199.8c-33.25 0-60.3-4.6-60.3-10.25s27.05-10.24 60.3-10.24c33.24 0 60.28 4.59 60.28 10.24s-27.04 10.24-60.28 10.24zm0-20.33c-33.06 0-59.96 4.52-59.96 10.08 0 5.56 26.9 10.09 59.96 10.09 33.05 0 59.96-4.53 59.96-10.09s-26.9-10.08-59.96-10.08z"/><path fill="#434345" d="M170.39 198.16c-27.9 0-50.6-3.86-50.6-8.6 0-4.76 22.7-8.62 50.6-8.62 27.9 0 50.6 3.86 50.6 8.61s-22.7 8.61-50.6 8.61zm0-17.03c-27.68 0-50.2 3.78-50.2 8.42 0 4.64 22.51 8.43 50.2 8.43 27.68 0 50.2-3.78 50.2-8.43 0-4.64-22.52-8.43-50.2-8.43z"/><path fill="#fff" d="M176.6 189.55c0 .58-2.78 1.05-6.21 1.05s-6.22-.47-6.22-1.05c0-.58 2.78-1.05 6.22-1.05s6.21.47 6.21 1.05Z"/><path fill="#fff" d="M246.4 197.78c-5.82 1.06 13.54-2.94 3.74-1.84-2.62.43-11.4 2.39-10.14 1.63 2.78-.32 9.89-2.94 3.03-1.83-4.19.6-15.27 2.8-15.55 1.98 2.58-.1 12.42-2.7 4.96-1.92-4.86.56-9.67 1.54-14.57 1.79 2.07-.13 9.96-2.08 3.72-1.51-3 .4-15.12 1.8-6.51.37 3.75-.44 5.79-1.72.56-.88-3.23.38-10.21 1.47-2.92.07.16-1.31-10.67 1.39-11.51.6.4-.6-8.6-.13-11.75.7 1.38 1.13-9.86.35-11.62 1.3 3.34.27 11.94-.1 3.9.23-2.46-.08-11.17.7-4.29.68 2.36.17 11.34-.5 10.02.05-4.56.42-9.2.07-13.71.97 2.74.4 11.3-.3 9.92.22-6.31.5-12.67.22-18.97.98 5.8.57 16.23-.03 19.17.3-8.87.56-17.77.46-26.65.97 4.88.73 16.84.22 17.2.6-6.87.29-13.76-.07-20.62.45 5.07.62 16.83.12 17.64.37-5.58.24-15.8-.23-18.56.48 8.67.55 17.36.17 26.04.28-8.5.32-17.03.28-25.54.3 30.9 1.82 61.99.15 92.58-4.44 4.24-.6 13.49-3.11 14.16-4.09-4.36.68-13.51 2.88-14.9 2.59 3.76-.91 11.71-1.96 12.68-3.41-3.92.1-7.64 1.52-11.51 2.01zm-66.28 8c-2.54.1-13.63-.04-5.84 0h5.84zm73.65-6.92c-3.13.95-8.39 1.77-2.33.56.78-.18 1.56-.36 2.33-.56zm-75.69-24.36c3.1-.06 10.32.19 10.62-.42-8.7-.49-17.4-.13-26.1-.15 8.49-.37 16.98-.38 25.48-.43-26.29-1.71-52.7 0-78.82 2.98-8.9 1.43-18.34 2.06-26.5 6.15 4.3-.72 13.15-2.98 14.67-2.69-3.46.88-11.77 2.12-11.94 3.42 3.6-.05 12.79-2.77 12.53-2.17-3.19.2-12.35 3.32-4.36 1.9 2.35-.41 10.62-2.36 9.25-1.58-2.82.35-9.33 3.03-2.69 1.85 4.24-.62 14.37-2.86 15.32-2.07-2.52.16-12.12 2.75-4.76 1.96 4.75-.59 9.46-1.6 14.26-1.87-2.02.1-9.84 2.21-3.45 1.53 2.94-.4 14.82-1.9 6.43-.4-3.88.49-5.3 1.76-.3.87 2.1-.29 9.42-1.34 3.67-.34-3.48 1.73 7.53-.58 9.37-.48 3.63-.45-1.79.8 2.73.32 2.7.05 10.68-.63 9.7-1.27-2.39-.2 6.98-.6 8.93-.65 9.95-1.03-12.73-.18-1.78-.67 3.07.16 12.26-.92 4.42-.72-2.52.15-14.66.36-6.6-.19 3.12.11 14.92-.95 6.45-.93-3.02.17-10.63.16-3.47-.24 5.43-.3 10.89-.22 16.29-.91-5.82-.53-16.23.1-19.22-.2 8.81-.62 17.66-.53 26.47-1.11-4.92-.71-16.9-.12-17.3-.5 6.83-.3 13.7-.02 20.52-.57-5.2-.58-16.42-.06-17.83-.25 2.67-.09 5.34-.13 8.01-.17zm-89.15 5.79c3.01-.97 8.07-1.8 2.24-.57-.75.18-1.5.37-2.24.57zm72.32-7.31c2.93-.13 11.18-.04 4.17-.04-1.39 0-2.78.02-4.17.04z" opacity=".26"/><path fill="#fff" d="M97.04 179.11c-.26-.01-.58 0-.8.03a31.15 31.15 0 0 0-2.46.42c-.39.09-.72.19-.94.3-.06.02-.03.06.15.08a15.22 15.22 0 0 0 2.95-.3 4.18 4.18 0 0 0 1.47-.44c.05-.04-.15-.08-.37-.09zm-1.94.55zm7.25.21c0-.01-.02-.02-.07-.03l-.11-.02-.15-.01a3.07 3.07 0 0 0-.54 0l-.4.04h-.05l-.17.03h-.03l-.13.03h-.01l-.1.04a.14.14 0 0 0-.04.03l.02.03.03.02.01.02.1.02.17.02h.58l.19-.01.19-.02a1.7 1.7 0 0 0 .32-.06l.06-.03c.02 0 .02-.02.01-.02h.01c.06-.02.09-.03.1-.05.02 0 .02-.02.01-.03zm10.38.31a6.6 6.6 0 0 0-.9.02 35.38 35.38 0 0 0-3.49.51c-.44.1-.85.19-1.19.29-.2.05-.07.12.36.12a14.13 14.13 0 0 0 2.52-.19 23.3 23.3 0 0 0 2.25-.4c.28-.08.54-.15.7-.23.1-.05.02-.1-.25-.12zm8.7.53a5.5 5.5 0 0 1-.08-.02 3.86 3.86 0 0 0-.47-.04h-.2l-.2.01h-.07l-.07.01h-.05l-.23.03h-.01l-.3.03a9 9 0 0 0-.42.06l-.1.02-.08.03c-.02.01-.02.02-.01.03l.06.03.1.01.11.01a2.49 2.49 0 0 0 .46 0l.36-.02h.35-.03l.24-.02c.16 0 .2-.01.3-.03l.23-.04.08-.03.02-.02c.03-.02.03-.03 0-.05zm7.81.45-.07-.03a4.12 4.12 0 0 0-1.27.02l-.08.02h-.03a6.6 6.6 0 0 0-.97.1l-.24.1c-.07.03-.03.07.14.1a3.63 3.63 0 0 0 .94-.04l.1.01a4.62 4.62 0 0 0 .98-.06l.17-.04c.04-.01.08-.02.1-.04l.05-.02.06-.02h.01c.09-.03.17-.07.11-.1zm7.23.5-.03-.02a.4.4 0 0 0-.12-.03.34.34 0 0 0-.1-.02h-.11a2.22 2.22 0 0 0-.33 0l-.2.01-.12.02a.74.74 0 0 0-.11.03h-.02a.68.68 0 0 0-.18.05h-.01l-.01.01a.08.08 0 0 0-.04.03l.02.02c.02.02.08.03.16.04l.21.01a2.97 2.97 0 0 0 .6-.02l.26-.05.03-.01c.03 0 .05-.02.08-.03.03 0 .04-.02.02-.04zm52.59 16.49a14.39 14.39 0 0 0-1.12.05c-.4.03-.73.07-1 .13-.25.06-.38.12-.44.2-.03.03.13.06.31.07a19.7 19.7 0 0 0 4.05-.23c.16-.03.27-.07.25-.1-.01-.04-.15-.07-.36-.08l-.57-.01a14.39 14.39 0 0 0-1.12-.03zm1.72 1.41a7.94 7.94 0 0 0-.76.05c-.13.02-.2.05-.28.08h-.04c-.08.04-.14.06-.1.09l.03.02.07.02.2.02h.52l.05-.01h.02l.2-.02.28-.05h.02l.04-.01.17-.02.16-.02.12-.03c.05 0 .08-.02.09-.04.02 0 .02-.01 0-.02h.01l-.04-.03a7.94 7.94 0 0 0-.76-.03zm-1.04 1.42c-.7 0-1.41.03-2.09.07-.34.02-.74.04-1.06.08l-.32.01-.37.02c-.33 0-.66.03-.8.08-.12.05-.06.1.24.11.79.06 1.72.08 2.57.06 1.07-.01 2.24-.08 2.79-.25.18-.05.18-.13-.25-.15V201l-.7-.02zm-9.08 1.67c-.2 0-.38.02-.56.03l-.47.04a3.52 3.52 0 0 0-.88.04c-.15.03-.22.06-.2.1.04.04.18.08.41.1a15.27 15.27 0 0 0 2.49-.08c.2-.03.36-.06.4-.1.05-.03.01-.07-.18-.1v.02a7.3 7.3 0 0 0-1.01-.05zm3.6 1.08a13.32 13.32 0 0 0-1.85.08 12.66 12.66 0 0 0-.7.05h-.04l-.17.02c-.3.03-.5.1-.18.16.53.07 1.24.08 1.9.07a16.5 16.5 0 0 0 1.91-.16c.24-.04.41-.13.05-.17a13.32 13.32 0 0 0-.92-.05zm.62 1.54a13.3 13.3 0 0 0-1.65.12c-.12.02-.21.04-.2.07.02.03.12.05.28.06l.5.02h.35c.36 0 .72-.04.87-.1.05-.01.1-.03.07-.05h.2c.2.01.41 0 .51-.04.1-.02.08-.05-.11-.06a13.3 13.3 0 0 0-.82-.02z"/></g><path d="M230.92 22.21c-39.07 5.21-62.74 17.92-85.45 34.45-16.55 13.58-34.63 22.86-55.89 26.28l-2.06.3.07.3c.03.17.07.42.07.55 0 .48.13.52 1.14.38.38-.04.76-.1 1.13-.17.15-.03.2.05.27.36l.14.68.06.3-1.19.12c-.83.1-1.2.18-1.2.28 0 .5.3 1.76.4 1.76 1.8-.25 3.58-.52 5.37-.83l.2.83c2 8.31 4.1 16.6 6.07 24.92l.09.38c-6.6 1.12-7.37 1.2-7.48 1.26 0 .01 0 1.14.18 1.13.78-.05 1.73-.26 2.42-.17l.2 1.21c-.1.06-2.35.45-2.4.5-.04.03.17 1.4.22 1.46a139.06 139.06 0 0 0 57.19-20.45c14.73-9.19 25.06-18.43 37.93-25.85 8.52-4.92 22.33-11.63 49.79-14.89l1.16-.14-.06-.38c-.21-1.42-.36-2.88-.73-4.24-.43.06-.87.1-1.3.15l-3.78-26.41.17-.18 1.33-.16-.09-.71c-.1-.95-.52-.96-.9-.89l-.2-1.1.57-.29c.16-.08.2-.06.15-.46-.07-.61-.12-.72-.3-.7-.08 0-1.56.18-3.29.42zm1.3 1 .34 1.36-2.84.53-.29-1.39zm-4.29 2.14-2.58.48-.22-1.32 2.55-.47zm-4.07.71-2.84.52-.24-1.25c.1-.08 2.45-.54 2.67-.52.22 0 .44 1.25.41 1.25zm-4.33.76-2.8.6-.36-1.2 2.7-.57zm-4.29 1.01-2.69.6-.46-1.24 2.8-.63zm15.58 25.74c-.55.25-8.57 1.08-21.09 4.67-2.57-8.52-5.56-16.91-7.92-25.5 4.94-1.47 13.46-3.8 24.56-5.59zM210.86 28.8c-.58.23-2.16.7-2.63.7a3.5 3.5 0 0 1-.41-1.23l2.67-.7zm-4.16 1.09-2.77.76-.36-1.22 2.7-.79zm-4.24 1.07c0 .16-2.6.96-2.73.84-.1-.1-.5-1.14-.44-1.17.06-.05 2.52-.78 2.66-.8.18 0 .51 1 .51 1.13zm-4.18 1.39a40 40 0 0 1-2.63.83c-.1.02-.57-1-.51-1.15l2.63-.9zm-4.22 1.35-2.66.81-.43-1.08 2.58-.9zm-3.96 1.46-2.76.99-.44-1.06 2.64-1.1zm13.39 25.11c-5.92 2.08-11.5 4.92-17.05 7.81-.12 0-5.57-8.88-14.3-23.1l2.38-1.23c5.6-2.9 11.36-5.46 17.26-7.66l2.08-.77.2.5c3.07 8.18 6.5 16.22 9.43 24.45zm-17.53-23.53-2.57 1.03-.56-1.16 2.56-1.09zm-3.91 1.65-2.66 1.18-.63-1.22 2.59-1.12zm-4.02 1.78-2.55 1.22-.58-1.15 2.44-1.18zm-3.92 1.84c.07.11-2.37 1.35-2.49 1.29a3.81 3.81 0 0 1-.68-1.08l2.52-1.32zm-3.8 2.02-2.48 1.3-.65-1.09 2.45-1.26zm-3.79 2.1-2.34 1.4-.75-1.02 2.38-1.44zm-3.59 2.22-2.43 1.54-.82-1.13 2.4-1.43zm17.89 22.94c.01.02-17.24 12.62-20.17 11.87-9.36-2.4-14.33-21.09-15.19-20.53a202.4 202.4 0 0 1 19.77-13.7zm-21.53-20.65-2.41 1.5-.72-1.06 2.32-1.44zM155.73 53l-2.36 1.62-.92-1.05 2.45-1.58zm-3.56 2.42-2.24 1.57-.95-.95 2.36-1.63zm85.43.17-2.86.55-.19-1.29 2.79-.43zm-4.37.73-2.8.45-.3-1.29 2.71-.42zm-4.31.74-2.85.41-.32-1.22 2.82-.54zm-4.32.75-2.82.57-.31-1.25 2.63-.54zm-75.98-.06-2.17 1.84-.9-1.07 2.28-1.65zm71.54.95-2.7.63c-.16-.4-.26-.82-.38-1.24.92-.24 2.53-1.58 2.76-.66zM216 59.74l-2.7.68-.42-1.12c-.09-.23 2.53-.9 2.74-.73.25.33.29.77.38 1.17zm-4.28 1.08-2.5.84-.52-1.23 2.55-.76zm-4.14 1.24-2.64.9c-.18-.05-.24-.23-.56-1.12a34.6 34.6 0 0 1 2.6-.87zm-4.08 1.52-2.73.89-.44-1.1 2.6-1.01zm-4.02 1.58-2.58 1.06-.7-1.13 2.63-1.08zm-4.03 1.74-2.47 1.15-.65-1.15 2.54-1.16zm-47.09 10.32c3.93 6.83 12.42 8.35 5.81 12.92-8.72 5.9-16.4 10.17-16.64 9.82-2-4.78-17.23-21.22-13.25-23.44 13.99-8.83 13.56-12.1 24.08.69zm43.31-8.44-2.53 1.25-.78-1.08 2.61-1.25zm-3.89 2.07-2.4 1.38-.78-1.14c.82-.5 1.66-.96 2.5-1.43.3.36.49.8.68 1.19zm-3.59 2.1-2.45 1.53-.75-1.07c0-.11 2.16-1.5 2.3-1.47zm-3.7 2.33-2.31 1.55-.66-1.21 2.19-1.38zm-56.43 16.41c11.64 15.55-2.54 15.98-16.5 19.8-.15.04-.25-.12-.5-.84-.6-1.8-7.78-24.56-7.78-24.65 0-.07.29-.18.63-.27 18.17-4.3 14.63-11.93 24.15 5.97zm-16.62-10.66.24.64-2.81.85-.46-1.25c.9-.3 1.81-.59 2.72-.87.04 0 .18.28.31.63zm-4.06 1.74c.08.23-1.87.74-2.79.77-.1-.1-.4-1.12-.34-1.16.85-.27 1.72-.5 2.6-.69.34.27.4.66.53 1.08zm-4.48.4c.29.83.29.82-1.18 1.13l-1.41.28c-.1 0-.38-1.18-.31-1.25.08-.07 2.23-.55 2.52-.56.2-.02.29.08.38.4zm-4.27 1.06c.07.33.12.62.1.64-.05.05-2.46.46-2.7.46-.15 0-.23-.16-.31-.62a3.4 3.4 0 0 1-.1-.63c.04-.04 2.4-.44 2.62-.46.2 0 .27.1.4.6zm61.58 8.48a22 22 0 0 1-2.32 1.62c-.32-.32-.51-.72-.73-1.09.03-.1 2.11-1.56 2.22-1.56.08 0 .83.92.83 1.03zm-3.57 2.44c-.18.15-2.3 1.46-2.35 1.46-.1-.02-.77-.93-.75-1.04.03-.08 2.15-1.5 2.28-1.53.07 0 .87 1.04.82 1.11zm-3.67 2.24c0 .07-2.03 1.33-2.29 1.43-.23.07-.95-1.09-.83-1.11.12-.05.99-.58 2.36-1.42.07 0 .76 1.04.76 1.1zm-3.83 2.29a24 24 0 0 1-2.4 1.3c-.25-.3-.66-1.08-.57-1.15.14-.13 2.21-1.28 2.3-1.3.07 0 .92.94.67 1.15zm-3.65 2.01c-.83.45-1.68.87-2.54 1.25-.15 0-.8-1.12-.69-1.16.15-.02 1.45-.77 2.43-1.19.06-.02.35.4.8 1.1zm-3.93 1.96c-.87.42-1.74.84-2.63 1.22-.24-.38-.45-.78-.66-1.17a68 68 0 0 1 2.55-1.18c.35.29.53.73.74 1.13zm-29.12 10.15-2.68.6-.4-1.2 2.8-.65zm-4.22.85-2.77.75-.37-1.24 2.61-.58zm-4.43 1.08c-.18.13-2.67.55-2.76.46-.17-.38-.24-.8-.32-1.2.92-.2 1.84-.38 2.76-.55.17-.02.44 1.17.32 1.29z" opacity=".74"/><path fill="#e6e6e6" d="M106.33 63.47v95.54c0 2.2 2.3 3.98 5.13 3.98h15.4c2.83 0 5.12-1.78 5.12-3.98V83.37h5.13c2.84 0 7.47-.08 10.23.4 5.34.92 8.6 3.45 9.79 7.6.61 2.14.5 5.73.5 7.93V159c0 2.2 2.3 3.98 5.14 3.98h15.39c2.83 0 5.13-1.78 5.13-3.98v-11.94h20.52V159c0 2.2 2.3 3.98 5.13 3.98h15.4c2.83 0 5.13-1.78 5.13-3.98v-11.94h15.39c2.83 0 5.13-1.78 5.13-3.98v-11.94l-20.52-3.98-20.53-19.91-5.13 3.98v15.93H183.3v-41.4l-71.83-26.27z"/><path fill="#fff" d="M108.06 63.47v91.56c0 2.2 2.3 3.98 5.13 3.98h15.4c2.83 0 5.13-1.78 5.13-3.98V79.39h5.13c2.83 0 7.46-.08 10.22.4 5.34.92 8.6 3.45 9.79 7.59.61 2.14.5 5.74.5 7.93v59.72c0 2.2 2.3 3.98 5.14 3.98h15.4c2.83 0 5.12-1.78 5.12-3.98v-11.94h20.53v11.94c0 2.2 2.3 3.98 5.13 3.98h15.39c2.83 0 5.13-1.78 5.13-3.98v-11.94h15.39c2.84 0 5.14-1.79 5.13-3.99v-7.96c0-2.2-2.3-3.98-5.13-3.98h-15.4v-15.92c0-2.2-2.3-3.98-5.12-3.98h-15.4c-2.83 0-5.12 1.79-5.12 3.98v15.92h-20.53V95.31c0-2.2.03-5.77-.31-7.95-2.08-13.15-14.21-25.39-30.5-27.54-2.79-.37-7.4-.33-10.23-.33h-30.79c-2.83 0-5.13 1.78-5.13 3.98z"/><path fill="#5a3d17" d="M262.88 59.3c-.1 0-.2.02-.29.06h.01c-.26.1-1.09.94-2.26 2.3-4.52 5.29-12.35 10.35-20.74 13.18-3.66 1.28-8.49 3.98-10.24 12a29.4 29.4 0 0 0 .26 12.73c.2.83.52 1.66.7 1.95.17.25.44.41.61.37.5-.1.76-.63 1.5-2.93 1.13-3.52 3.2-9.41 9.5-10.78 4.08-1.1 7.17-.84 11.96-2.48.81-.3 1.58-.68 2.3-1.16.37-.28.56-.32.48-.1a6397.1 6397.1 0 0 0-4.43 27.96c-.27 1.64-.27 2.28-.03 3.04a6.52 6.52 0 0 0 2.42 3.13c10.11 7.93 35.95 5.74 35.95-3.19 0-4.4-7.25-7.96-15.49-8.94-4.83-.6-12.26-.78-18.55 2.3 1.94-12.68 3.98-25.34 5.98-38.01 1.22-7.76 1.42-9.1 1.42-9.77 0-1.07-.43-1.72-1.06-1.67zm30.57 5.91c-.1.01-.22.09-.37.24-.13.14-.33.35-.44.5-2.56 2.94-6.23 3.28-7.47 4.73-.5.6-.88 1.42-1.07 2.38a8.7 8.7 0 0 0 .23 3.62c.2.53.34.42.68-.56.46-1.28.8-1.86 1.4-2.34 1.3-1.04 3.56-.67 5.04-1.52.1-.07.22-.12.23-.12.01 0-.13.96-.32 2.14-1.08 6.85-1.01 6.3-.76 6.72.21.36.48.6 1 .9 2.87 1.7 8.24 1.21 9.31-.5.22-.37.23-.96 0-1.31-1.02-1.68-5.8-2.54-8.69-1.44-.28.12-.52.2-.53.2l.79-5.08c1.35-8.61 1.28-8.13 1.2-8.36-.06-.14-.13-.2-.23-.2zm-15.6 17.02c-.05 0-.1.03-.18.1h-.01c-2.86 3.24-5.13 2.21-5.99 4.57a5.25 5.25 0 0 0 0 3.25c.07.18.21.09.32-.2.51-1.45.9-1.96 1.68-2.22.14-.05.66-.16 1.16-.24.89-.16 1.5-.34 1.73-.5.12-.08.12-.08.09.04-.02.07-.23 1.36-.46 2.86-.48 3.04-.47 2.96-.07 3.37 1.3 1.34 5.86 1.4 6.77.02a.9.9 0 0 0 0-.96c-.76-1.13-3.92-1.66-5.8-.96l-.48.18.04-.14 1.32-8.42c.06-.39.06-.54 0-.64-.04-.08-.08-.11-.12-.11z"/><g opacity=".7"><path d="M40.99 139.6c-.7.36-1 .57-1.45 1.06-2.31 2.6-2.32 6.75-.1 9.15l.55.6-.33.33c-2.47 2.53-2.52 7.14.05 9.6l.32.28-.21.2c-3.3 3.15-2.54 9.66 2.06 10.92l25.85 6.1c2.9.68 3.66.85 3.9.83.46-.04 26.41-15.8 26.61-16.05.22-.3.25-.76.07-1.1a.89.89 0 0 0-1.23-.36c-.3.15-25.55 15.45-25.67 15.47-9.57-2.17-19.1-4.47-28.66-6.71-1-.23-1.47-.47-2.02-1.07-2.1-2.25-.92-6.62 1.4-7.12l.34-.08c9.35 2.22 18.7 4.41 28.05 6.62.57.14 1 .21 1.13.2.35-.05 26.41-15.88 26.44-15.9a.9.9 0 0 0 .23-.3c.15-.33.13-.7-.03-1.03-.27-.4-.72-.54-1.1-.36-.2.1-19.59 11.87-25.88 15.52-9.74-2.27-19.48-4.52-29.19-6.88-2.94-.93-3.34-5.74-.76-7.68.34-.24.89-.41 1.19-.37.2.02 2.5.56 12.53 2.93.82.2 1.58.36 1.68.36a1 1 0 0 0 .68-.36c.33-.46.23-1.16-.21-1.46a482.39 482.39 0 0 0-14.25-3.42c-1.26-.29-1.66-.5-2.25-1.13-1.7-1.8-1.12-4.79-.14-6.05.42-.54 1.12-1.04 1.48-1.04.08 0 1.07.21 2.19.47 24.2 5.58 27.2 6.27 27.39 6.24.24-.02 10.44-6.2 26.43-15.88.19-.13.35-.48.35-.77 0-.41-.16-.72-.48-.9-4.85-1.2-26.07-6.25-29.39-6.91-.54 0-23 13.5-27.57 16.05z"/><path d="M97.12 140.68c-8.58 5.16-17.15 10.35-25.72 15.53l-.5-.11c-1.99-.41-3.95-1.06-5.96-1.29-.82.26-.95 1.4-.2 1.81a107 107 0 0 0 6.82 1.62c.14 0 .32-.05.51-.16 8.6-5.5 17.7-10.22 26.17-15.92.22-.28.25-.74.08-1.08-.23-.44-.8-.62-1.2-.4zM59 158.86l2.11-1.41c.39.45 1.17 1.45 2.36 2.76.04 0 .04-4.27.04-10.89-1.5-.28-3-.54-4.51-.8-.06 3.43-.17 6.9 0 10.34z"/></g></svg>