<?xml version="1.0" encoding="UTF-8"?>
<svg xmlns="http://www.w3.org/2000/svg" xmlns:xlink="http://www.w3.org/1999/xlink" width="324px" height="234px" viewBox="0 0 324 234" version="1.1">
<defs>
<radialGradient id="radial0" gradientUnits="userSpaceOnUse" cx="99.340256" cy="-40.728157" fx="99.340256" fy="-40.728157" r="37.132973" gradientTransform="matrix(0.998187,1.57434,-0.99815,0.524791,22.428557,-18.455908)">
<stop offset="0" style="stop-color:rgb(100%,100%,100%);stop-opacity:1;"/>
<stop offset="1" style="stop-color:rgb(100%,100%,100%);stop-opacity:0;"/>
</radialGradient>
</defs>
<g id="surface1">
<rect x="0" y="0" width="324" height="234" style="fill:rgb(29.411766%,67.450982%,29.803923%);fill-opacity:1;stroke:none;"/>
<path style="fill:none;stroke-width:1.021703;stroke-linecap:butt;stroke-linejoin:miter;stroke:rgb(100%,100%,100%);stroke-opacity:1;stroke-miterlimit:4;" d="M -0.94401 -1.082899 L 181.217448 -1.082899 L 181.217448 130.605469 L -0.94401 130.605469 Z M -0.94401 -1.082899 " transform="matrix(1.8,0,0,1.8,0,0)"/>
<path style=" stroke:none;fill-rule:nonzero;fill:rgb(80.000001%,80.000001%,80.000001%);fill-opacity:1;" d="M 162.246094 194.523438 L 236.378906 155.546875 L 236.378906 77.597656 L 162.246094 38.621094 L 88.113281 77.597656 L 88.113281 155.546875 Z M 162.246094 194.523438 "/>
<path style=" stroke:none;fill-rule:nonzero;fill:url(#radial0);" d="M 162.238281 38.617188 L 236.371094 155.539062 L 162.242188 194.511719 L 88.113281 77.59375 Z M 162.238281 38.617188 "/>
<path style=" stroke:none;fill-rule:nonzero;fill:rgb(80.000001%,80.000001%,80.000001%);fill-opacity:1;" d="M 88.113281 149.519531 L 113.570312 114.644531 L 88.113281 77.597656 Z M 88.113281 149.519531 "/>
<path style=" stroke:none;fill-rule:nonzero;fill:rgb(80.000001%,80.000001%,80.000001%);fill-opacity:1;" d="M 162.246094 38.621094 L 211.664062 116.570312 L 236.378906 77.597656 Z M 162.246094 38.621094 "/>
<path style=" stroke:none;fill-rule:nonzero;fill:rgb(20%,20%,20%);fill-opacity:1;" d="M 220.863281 124.320312 L 230.742188 130.210938 L 220.863281 136.105469 L 205.703125 127.0625 L 205.703125 108.980469 L 220.863281 99.9375 L 230.050781 105.417969 C 230.96875 109.429688 231.550781 113.574219 231.761719 117.820312 L 226.144531 121.171875 L 226.144531 114.871094 L 220.863281 111.722656 L 215.582031 114.871094 L 215.582031 121.171875 Z M 220.863281 124.320312 "/>
<path style=" stroke:none;fill-rule:nonzero;fill:rgb(40.000001%,62.7451%,37.64706%);fill-opacity:1;" d="M 220.863281 114.511719 L 217.917969 116.265625 L 217.917969 119.777344 L 220.863281 121.53125 L 223.804688 119.777344 L 223.804688 116.265625 Z M 220.863281 114.511719 "/>
<path style=" stroke:none;fill-rule:nonzero;fill:rgb(20%,20%,20%);fill-opacity:1;" d="M 123.679688 108.980469 L 123.679688 132.828125 L 113.570312 126.867188 L 113.570312 114.644531 L 108.519531 111.628906 L 103.472656 114.644531 L 103.472656 126.867188 L 97.730469 130.253906 C 97.378906 127.378906 97.199219 124.449219 97.199219 121.476562 C 97.199219 116.03125 97.804688 110.730469 98.949219 105.644531 L 108.519531 99.9375 Z M 123.679688 108.980469 "/>
<path style=" stroke:none;fill-rule:nonzero;fill:rgb(23.137255%,52.941179%,22.352941%);fill-opacity:1;" d="M 146 99.9375 L 130.839844 108.976562 L 130.839844 127.0625 L 146 136.105469 L 161.160156 127.0625 L 161.160156 108.976562 Z M 146 99.9375 "/>
<path style=" stroke:none;fill-rule:nonzero;fill:rgb(42.745098%,65.490198%,36.470589%);fill-opacity:1;" d="M 145.996094 99.933594 L 161.15625 127.058594 L 146 136.101562 L 130.839844 108.976562 Z M 145.996094 99.933594 "/>
<path style=" stroke:none;fill-rule:nonzero;fill:rgb(33.333334%,63.921571%,26.666668%);fill-opacity:1;" d="M 130.839844 108.976562 L 130.839844 127.0625 L 136.042969 118.292969 Z M 130.839844 108.976562 "/>
<path style=" stroke:none;fill-rule:nonzero;fill:rgb(38.82353%,61.56863%,34.117648%);fill-opacity:1;" d="M 146 99.9375 L 156.105469 118.019531 L 161.160156 108.976562 Z M 146 99.9375 "/>
<path style=" stroke:none;fill-rule:nonzero;fill:rgb(20%,20%,20%);fill-opacity:1;" d="M 188.339844 78.976562 L 188.339844 102.96875 L 183.261719 99.9375 L 168.097656 108.980469 L 168.097656 127.0625 L 183.261719 136.105469 L 198.417969 127.0625 L 198.417969 84.550781 Z M 188.3125 121.035156 L 183.257812 124.050781 L 178.203125 121.035156 L 178.203125 115.007812 L 183.257812 111.992188 L 188.3125 115.007812 Z M 188.3125 121.035156 "/>
</g>
</svg>
