<svg xmlns="http://www.w3.org/2000/svg" xmlns:xlink="http://www.w3.org/1999/xlink" width="324" height="234"><defs><linearGradient id="e"><stop offset="0" stop-color="gray"/><stop offset="1" stop-color="#424242"/></linearGradient><linearGradient id="c"><stop offset="0" stop-color="#121b1a"/><stop offset="1" stop-color="#7da9a1" stop-opacity="0"/></linearGradient><linearGradient id="a"><stop offset="0" stop-color="#4e090c"/><stop offset=".391" stop-color="#ca143c"/><stop offset=".504" stop-color="#ffec08"/><stop offset=".605" stop-color="#3edc06"/><stop offset="1" stop-color="#00fdce" stop-opacity=".992"/></linearGradient><linearGradient id="b"><stop offset="0" stop-color="#c9c9c9" stop-opacity=".992"/><stop offset="1" stop-color="#fdfdfd"/></linearGradient><linearGradient id="d" x1="14.237" x2="32.569" y1="18.432" y2="18.432" gradientTransform="matrix(6.0968 0 0 5.8293 10.964 -26.94)" gradientUnits="userSpaceOnUse"><stop offset="0" stop-color="#fafafa"/><stop offset="1" stop-color="#e1e1e1"/></linearGradient><linearGradient xlink:href="#a" id="m" x1="132.876" x2="201.655" y1="197.741" y2="33.652" gradientUnits="userSpaceOnUse"/><linearGradient xlink:href="#b" id="l" x1="182.723" x2="46.106" y1="183.886" y2="52.551" gradientTransform="translate(45.586 -3.219)" gradientUnits="userSpaceOnUse"/><linearGradient xlink:href="#b" id="j" x1="0" x2="115.398" y1="117" y2="117" gradientUnits="userSpaceOnUse"/><linearGradient xlink:href="#b" id="i" x1="208.602" x2="324" y1="117" y2="117" gradientTransform="matrix(-1 0 0 1 532.602 0)" gradientUnits="userSpaceOnUse"/><linearGradient xlink:href="#c" id="n" x1="208.129" x2="176.359" y1="139.962" y2="114.722" gradientUnits="userSpaceOnUse"/><radialGradient xlink:href="#d" id="f" cx="162" cy="117" r="46.602" fx="162" fy="117" gradientTransform="matrix(1 0 0 2.5106 0 -176.746)" gradientUnits="userSpaceOnUse"/><radialGradient xlink:href="#d" id="g" cx="162" cy="117" r="46.602" fx="162" fy="117" gradientTransform="matrix(1 0 0 2.5106 0 -176.746)" gradientUnits="userSpaceOnUse"/><radialGradient xlink:href="#e" id="h" cx="162" cy="117" r="162" fx="162" fy="117" gradientTransform="matrix(1 .7222 -.513 .7104 60.03 -83.118)" gradientUnits="userSpaceOnUse"/><filter id="k" width="1.264" height="1.274" x="-.132" y="-.137" color-interpolation-filters="sRGB"><feGaussianBlur stdDeviation="7.503"/></filter></defs><path fill="url(#f)" fill-rule="evenodd" d="M208.602 163.602h-93.204V234h93.204v-70.398z" paint-order="markers fill stroke"/><path fill="url(#g)" fill-rule="evenodd" d="M115.398 0v70.398h93.204V0h-93.204z" paint-order="markers fill stroke"/><path fill="url(#h)" fill-rule="evenodd" d="M0 0v70.398h115.398V0H0zm208.602 0v70.398H324V0H208.602zM0 163.602V234h115.398v-70.398H0zm208.602 0V234H324v-70.398H208.602z" paint-order="markers fill stroke"/><path fill="url(#i)" fill-rule="evenodd" d="M208.602 70.398H324v93.204H208.602Z" paint-order="markers fill stroke"/><path fill="url(#j)" fill-rule="evenodd" d="M115.398 70.398H0v93.204h115.398V70.398z" paint-order="markers fill stroke"/><rect width="136.617" height="131.335" x="93.692" y="51.332" fill="#101010" fill-opacity=".992" fill-rule="evenodd" filter="url(#k)" paint-order="markers fill stroke" ry="29.027"/><rect width="136.617" height="131.335" x="93.692" y="51.332" fill="#8e8e8e" fill-opacity=".992" fill-rule="evenodd" paint-order="markers fill stroke" ry="29.027"/><rect width="136.617" height="131.335" x="91.692" y="49.332" fill="url(#l)" fill-rule="evenodd" paint-order="markers fill stroke" ry="29.027"/><path fill="url(#m)" d="M128.836 161.618c.723 1.942 1.756 3.76 1.922 5.412.165 1.652-.537 3.14-5.746 7.439-5.21 4.3-14.91 11.4-19.93 15.531s-5.35 5.288-4.647 5.764c.703.475 2.437.269 5.307-.722 2.87-.992 6.88-2.77 12.002-5.785 5.122-3.015 11.362-7.272 15.162-9.068 3.8-1.797 5.164-1.136 6.445-.516 1.28.62 2.479 1.198 3.863 1.425 1.384.227 2.954.103 2.872-.681-.083-.785-1.819-2.232-2.625-3.472-.805-1.24-.681-2.272.392-2.293 1.073-.02 3.1.972 5.428 2.392s4.961 3.269 7.13 4.178c2.17.909 3.875.878 4.8.531.924-.346 1.069-1.007-.158-2.255-1.227-1.247-3.834-3.089-5.755-4.731-1.922-1.643-3.16-3.089-3.253-4.06-.093-.97.961-1.467 2.591-1.074 1.63.392 3.843 1.674 5.905 2.763 2.06 1.09 3.974 1.988 5.836 2.378 1.862.39 3.674.274 5.002-.12 1.33-.395 2.177-1.068 2.22-2.191.044-1.123-.716-2.703-3.242-4.207s-6.821-2.936-8.545-4.178c-1.723-1.242-.876-2.294 2.772-2.878 3.649-.583 10.111-.7 14.215-1.152 4.104-.452 5.857-1.238 5.855-2.405-.002-1.167-1.759-2.717-1.48-3.75.28-1.033 2.594-1.55 4.938-2.014 2.343-.465 4.72-.878 6.64-2.293 1.921-1.415 3.389-3.833 3.091-5.574-.297-1.74-2.36-2.807-2.895-4.174-.534-1.366.46-3.031 3.51-6.257 3.051-3.227 8.167-8.021 12.125-12.724 3.958-4.703 6.763-9.32 9.978-13.206 3.216-3.887 6.835-7.039 8.42-9.34 1.583-2.3 1.13-3.746-.118-4.782-1.248-1.037-3.293-1.665-3.602-3.212-.31-1.547 1.116-4.01 1.664-7.852.548-3.844.217-9.072-.733-12.511s-2.52-5.092-3.45-10.112c-.93-5.02-1.219-13.407-2.435-18.449-1.217-5.042-3.452-6.813-5.352-6.525-1.9.289-3.511 2.602-4.834 4.689-1.322 2.087-2.354 3.945-3.429 4.978-1.074 1.034-2.189 1.24-3.112 2.256-.923 1.015-1.68 2.908-2.259 3.549-.579.64-.992.062-.896-1.695.095-1.758.731-4.854.009-5.35-.723-.496-2.79 1.53-5 3.657-2.21 2.129-4.565 4.358-6.445 5.433-1.88 1.075-3.284.992-4.916 2.356-1.633 1.364-3.49 4.171-6.047 7.413-2.555 3.243-5.805 6.915-9.435 12.556-3.63 5.64-7.685 13.34-11.43 19.167-3.745 5.828-7.204 9.827-9.491 13.562-2.288 3.736-3.403 7.205-3.816 11.007-.414 3.801-.124 7.931-1.302 10.37-1.177 2.437-3.82 3.18-5.143 6.859-1.322 3.678-1.322 10.12-2.789 13.92-1.466 3.802-4.399 4.876-5.66 6.446-1.26 1.57-.847 3.635-.124 5.577z" transform="translate(-7.822 -13.34)"/><path fill="url(#n)" d="M128.836 161.618c.723 1.942 1.756 3.76 1.922 5.412.165 1.652-.537 3.14-5.746 7.439-5.21 4.3-14.91 11.4-19.93 15.531s-5.35 5.288-4.647 5.764c.703.475 2.437.269 5.307-.722 2.87-.992 6.88-2.77 12.002-5.785 5.122-3.015 11.362-7.272 15.162-9.068 3.8-1.797 5.164-1.136 6.445-.516 1.28.62 2.479 1.198 3.863 1.425 1.384.227 2.954.103 2.872-.681-.083-.785-1.819-2.232-2.625-3.472-.805-1.24-.681-2.272.392-2.293 1.073-.02 3.1.972 5.428 2.392s4.961 3.269 7.13 4.178c2.17.909 3.875.878 4.8.531.924-.346 1.069-1.007-.158-2.255-1.227-1.247-3.834-3.089-5.755-4.731-1.922-1.643-3.16-3.089-3.253-4.06-.093-.97.961-1.467 2.591-1.074 1.63.392 3.843 1.674 5.905 2.763 2.06 1.09 3.974 1.988 5.836 2.378 1.862.39 3.674.274 5.002-.12 1.33-.395 2.177-1.068 2.22-2.191.044-1.123-.716-2.703-3.242-4.207s-6.821-2.936-8.545-4.178c-1.723-1.242-.876-2.294 2.772-2.878 3.649-.583 10.111-.7 14.215-1.152 4.104-.452 5.857-1.238 5.855-2.405-.002-1.167-1.759-2.717-1.48-3.75.28-1.033 2.594-1.55 4.938-2.014 2.343-.465 4.72-.878 6.64-2.293 1.921-1.415 3.389-3.833 3.091-5.574-.297-1.74-2.36-2.807-2.895-4.174-.534-1.366.46-3.031 3.51-6.257 3.051-3.227 8.167-8.021 12.125-12.724 3.958-4.703 6.763-9.32 9.978-13.206 3.216-3.887 6.835-7.039 8.42-9.34 1.583-2.3 1.13-3.746-.118-4.782-1.248-1.037-3.293-1.665-3.602-3.212-.31-1.547 1.116-4.01 1.664-7.852.548-3.844.217-9.072-.733-12.511s-2.52-5.092-3.45-10.112c-.93-5.02-1.219-13.407-2.435-18.449-1.217-5.042-3.452-6.813-5.352-6.525-1.9.289-3.511 2.602-4.834 4.689-1.322 2.087-2.354 3.945-3.429 4.978-1.074 1.034-2.189 1.24-3.112 2.256-.923 1.015-1.68 2.908-2.259 3.549-.579.64-.992.062-.896-1.695.095-1.758.731-4.854.009-5.35-.723-.496-2.79 1.53-5 3.657-2.21 2.129-4.565 4.358-6.445 5.433-1.88 1.075-3.284.992-4.916 2.356-1.633 1.364-3.49 4.171-6.047 7.413-2.555 3.243-5.805 6.915-9.435 12.556-3.63 5.64-7.685 13.34-11.43 19.167-3.745 5.828-7.204 9.827-9.491 13.562-2.288 3.736-3.403 7.205-3.816 11.007-.414 3.801-.124 7.931-1.302 10.37-1.177 2.437-3.82 3.18-5.143 6.859-1.322 3.678-1.322 10.12-2.789 13.92-1.466 3.802-4.399 4.876-5.66 6.446-1.26 1.57-.847 3.635-.124 5.577z" transform="translate(-7.808 -13.203)"/></svg>