<svg xmlns="http://www.w3.org/2000/svg" width="324" height="234"><defs><radialGradient id="a" cx="90.136" cy="64.762" r="91.592" fx="90.136" fy="64.762" gradientTransform="matrix(1.8 0 0 1.30405 0 32.119)" gradientUnits="userSpaceOnUse"><stop offset="0" stop-color="#336bc7"/><stop offset="1" stop-color="#4077ce"/></radialGradient><filter id="b" width="1.037" height="1.061" x="0" y="0" color-interpolation-filters="sRGB"><feFlood flood-color="#3364B5" flood-opacity="1" result="flood"/><feGaussianBlur in="SourceGraphic" result="blur"/><feOffset dx="6.4" dy="6.839" in="blur" result="offset"/><feComposite in="flood" in2="offset" operator="in" result="comp1"/><feComposite in="SourceGraphic" in2="comp1" result="comp2"/></filter></defs><path fill="url(#a)" d="M0 0h324v234H0z"/><path fill="#f8f8f8" d="M167.25 56.965c-5.824 0-10.715 1.207-15.398 3.777-4.301 2.41-9.61 7.121-12.247 10.899-4.425 6.406-4.195 6.218-6.289 5.285-6.597-2.903-14.257-3.39-20.34-1.336-11.234 3.832-19.285 15.742-19.773 29.27-.105 2.183-.34 4.296-.543 4.652-.207.414-1.605 1.039-3.055 1.453-6.91 1.918-12.425 6.816-15.328 13.554-1.351 3.204-1.504 4.239-1.504 10.704 0 6.82.102 7.394 1.809 11.199 3.031 6.793 9.504 12.7 15.586 14.293l-.031-.168c2.199.601 18.12.762 18.61.215.187-.223-.126-1.45-.747-2.77-1.605-3.476-2.77-9.55-2.77-14.535-.027-13.633 7.454-24.316 20.27-28.941 4.121-1.508 5.102-2.137 5.102-3.477 0-1.855 3.054-9.336 5.433-13.332 3.352-5.64 7.778-9.938 13.317-12.922 13.855-7.5 30.191-5.117 40.156 5.86l3.543 3.89 3.883-1.121c2.148-.578 4.578-1.094 5.433-1.125 1.942 0 2.047-1.535.367-7.008-5.175-17.066-19.23-28.262-35.484-28.316zm-1.02 30.84c-6.914-.028-9.859.66-15.507 3.804-5.446 3.008-10.575 10.375-13.317 19.192-.625 1.914-1.113 4.11-1.113 4.843 0 2.356-1.266 3.364-5.434 4.297-8.39 1.887-14.78 7.032-17.16 13.88-1.008 2.769-1.265 4.847-1.265 9.175 0 13.527 5.824 22.645 16.226 25.52v-.032c2.2.606 14.73.746 54.176.66l51.351-.082 2.352-1.367c4.836-2.875 7.945-8.734 8.461-16.015.777-11.168-3.465-18.75-12.707-22.395l-3.16-1.262-.418-4.843c-1.266-17.664-17.496-28.235-33.828-22.016l-3.418 1.29-3.73-4.352c-6.805-7.887-11.723-10.27-21.509-10.297z" filter="url(#b)"/></svg>