<?xml version="1.0" encoding="UTF-8" standalone="no"?>
<svg
   sodipodi:docname="onion share.svg"
   inkscape:version="1.1 (c4e8f9e, 2021-05-24)"
   width="324px"
   height="234px"
   viewBox="0 0 324 234"
   version="1.1"
   id="SVGRoot"
   xmlns:inkscape="http://www.inkscape.org/namespaces/inkscape"
   xmlns:sodipodi="http://sodipodi.sourceforge.net/DTD/sodipodi-0.dtd"
   xmlns:xlink="http://www.w3.org/1999/xlink"
   xmlns="http://www.w3.org/2000/svg"
   xmlns:svg="http://www.w3.org/2000/svg"
   xmlns:rdf="http://www.w3.org/1999/02/22-rdf-syntax-ns#"
   xmlns:cc="http://creativecommons.org/ns#"
   xmlns:dc="http://purl.org/dc/elements/1.1/">
  <defs
     id="defs10">
    <linearGradient
       inkscape:collect="always"
       id="linearGradient5031">
      <stop
         style="stop-color:#ffffff;stop-opacity:1"
         offset="0"
         id="stop5027" />
      <stop
         style="stop-color:#8a0d8b;stop-opacity:1"
         offset="1"
         id="stop5029" />
    </linearGradient>
    <filter
       height="1.216"
       y="-0.108"
       width="1.216"
       x="-0.108"
       id="filter1042"
       style="color-interpolation-filters:sRGB"
       inkscape:collect="always">
      <feGaussianBlur
         id="feGaussianBlur1044"
         stdDeviation="4.5176688"
         inkscape:collect="always" />
    </filter>
    <radialGradient
       inkscape:collect="always"
       xlink:href="#linearGradient5031"
       id="radialGradient5033"
       cx="100"
       cy="61.499999"
       fx="100"
       fy="61.499999"
       r="99.999998"
       gradientTransform="matrix(1,0,0,0.72222222,0,17.083333)"
       gradientUnits="userSpaceOnUse" />
  </defs>
  <sodipodi:namedview
     inkscape:pagecheckerboard="true"
     inkscape:window-maximized="1"
     inkscape:window-y="0"
     inkscape:window-x="0"
     inkscape:window-height="1040"
     inkscape:window-width="1920"
     showgrid="false"
     inkscape:document-rotation="0"
     inkscape:current-layer="g55"
     inkscape:document-units="px"
     inkscape:cy="109.15705"
     inkscape:cx="79.637608"
     inkscape:zoom="3.0827144"
     inkscape:pageshadow="2"
     inkscape:pageopacity="0.0"
     borderopacity="1.0"
     bordercolor="#666666"
     pagecolor="#ffffff"
     id="base">
    <sodipodi:guide
       id="guide137"
       orientation="163.80001,0"
       position="243.9,198.9" />
    <sodipodi:guide
       id="guide139"
       orientation="0,-101.49202"
       position="243.9,35.099996" />
    <sodipodi:guide
       id="guide141"
       orientation="0,-62.30799"
       position="142.40799,35.099996" />
    <sodipodi:guide
       id="guide143"
       orientation="-163.80001,0"
       position="80.099996,35.099996" />
    <sodipodi:guide
       id="guide145"
       orientation="0,62.30799"
       position="80.099996,198.9" />
    <sodipodi:guide
       id="guide147"
       orientation="0,101.49202"
       position="142.40799,198.9" />
  </sodipodi:namedview>
  <metadata
     id="metadata13">
    <rdf:RDF>
      <cc:Work
         rdf:about="">
        <dc:format>image/svg+xml</dc:format>
        <dc:type
           rdf:resource="http://purl.org/dc/dcmitype/StillImage" />
        <dc:title />
      </cc:Work>
    </rdf:RDF>
  </metadata>
  <g
     id="layer1"
     inkscape:groupmode="layer"
     inkscape:label="Capa 1">
    <g
       transform="matrix(1.62,0,0,1.62,-3.24e-6,17.369997)"
       id="g55">
      <path
         d="M 200,-10.722221 V 133.72222 H 76.078134 4e-6 V -10.722221 h 76.07813 z"
         style="fill:url(#radialGradient5033);fill-opacity:1;stroke:none;stroke-width:2.14905;stroke-miterlimit:4;stroke-dasharray:none"
         id="rect3770" />
      <ellipse
         style="fill:#ffffff;fill-opacity:1;stroke-width:0.682116"
         id="path5095"
         cx="99.941971"
         cy="61.128609"
         rx="47.301079"
         ry="46.510338" />
      <ellipse
         r="50.19632"
         cy="61.5"
         cx="100"
         id="path149"
         style="fill:none;stroke:#ffffff;stroke-width:4.32098765;stroke-miterlimit:4;stroke-dasharray:none;stroke-opacity:1;opacity:1;filter:url(#filter1042)" />
      <g
         transform="matrix(0.01822263,0,0,-0.01822263,46.686567,104.76369)"
         fill="#000000"
         stroke="none"
         id="g141"
         style="fill:#4e0d4e;fill-opacity:1">
        <path
           d="M 2692.7193,5148.5018 C 2048.5021,5088.9338 1459.4402,4808.7434 993.92706,4345.4365 674.02466,4025.5341 464.43336,3687.9819 321.02896,3257.7683 -3.2858354,2284.8237 254.84226,1197.1556 980.68966,473.51437 1391.0473,65.363019 1874.2104,-194.97136 2421.3538,-300.87008 c 266.9531,-52.94937 789.828,-50.74315 1043.5437,0 575.8242,121.3423 1074.4306,394.913989 1456.1073,800.85913 300.0464,317.69617 456.6882,566.99945 602.299,957.50095 125.7547,339.7584 158.8481,529.4935 156.6419,957.5009 0,313.2838 -8.8249,410.3576 -50.7431,584.6493 -260.3344,1081.0495 -1078.8434,1881.9086 -2153.2739,2104.7372 -163.2606,33.0933 -615.5364,59.568 -783.2094,44.1244 z m 485.3692,-694.9603 c 461.1007,-57.3619 849.3958,-240.4784 1191.3604,-562.5871 357.4083,-337.5522 589.0617,-822.9213 633.1861,-1325.9402 l 13.2374,-161.0544 h 244.8908 244.8908 l -491.9878,-489.7816 -489.7816,-491.9878 -489.7816,491.9878 -491.9876,489.7816 h 249.303 249.3033 l -15.4436,138.9922 c -30.8872,280.1903 -198.5601,564.7931 -439.0383,747.9097 -227.241,174.2916 -564.7932,247.097 -856.0147,187.529 -207.385,-41.9183 -328.7273,-101.4863 -505.2252,-242.6846 l -134.5796,-108.105 -339.7584,337.5522 -339.7586,339.7585 125.7548,119.136 c 293.4278,273.5718 725.8476,476.5443 1125.1741,529.4937 216.2099,26.4747 304.4588,26.4747 516.2563,0 z M 1843.3233,2889.329 2328.6924,2403.9598 h -249.3032 c -134.5797,0 -247.0971,-6.6186 -247.0971,-15.4436 0,-11.0311 11.0312,-81.6302 22.0623,-158.848 99.28,-611.1239 699.3728,-1025.8939 1297.2594,-897.933 198.5601,41.9183 366.2331,123.5485 514.0501,251.5095 59.5679,55.1555 116.9297,92.6614 125.7545,83.8365 8.8249,-6.6187 161.0543,-161.0543 339.7584,-337.5522 l 326.521,-324.3148 -94.8675,-97.07378 C 4089.2586,625.74378 3617.1269,405.12144 3169.2636,352.17208 2280.1555,246.27334 1391.0473,760.32342 1042.464,1583.2447 963.03986,1766.3613 892.44076,2048.7579 872.58476,2256.1429 l -15.4435,147.8169 h -244.8909 -247.0969 l 485.369,485.3692 c 266.95314,266.953 489.78164,485.3691 496.40044,485.3691 6.6186,0 229.4472,-218.4161 496.4004,-485.3691 z"
           id="path117"
           style="stroke-width:2.20622;fill:#4e0d4e;fill-opacity:1" />
        <path
           id="path119"
           style="stroke-width:1;fill:#4e0d4e;fill-opacity:1"
           d="m 3668.2146,-447.44556 c -18,7.00019 -72.9716,7.00764 -90.9716,-0.99218 -10.0001,-4.00025 -13.0339,-77.03757 -13.0339,-318.0376 0,-342.99976 -2.9918,-324.98426 60.0081,-324.98426 60,0 60.0085,-0.999 60.0085,157.00089 v 144.03302 l 32.022,29.97121 c 39.0001,34.9999 85.996,39.00557 113.9961,8.00558 16,-18.00027 20.0165,-41.97399 24.0164,-177.974 l 4.9619,-156.0084 h 50.0182 50.0179 l 2.9772,169.96846 c 2,187.99986 -5.0005,218.02154 -61.0006,259.0213 -41.0001,30.00001 -133.9893,29.00782 -175.989,-0.99218 -16,-13.00005 -32.9918,-23.02422 -35.9917,-23.02422 -3.0003,0 -5.0284,50.99581 -5.0284,113.99576 0,95.00025 -3.0111,115.01674 -16.0111,120.01662 z m -1788.935,-17.13579 c -10.3127,0.0315 -19.8102,-0.84483 -27.06,-2.84479 -16.9999,-4.99989 -23.9961,-33.03449 -17.9959,-74.03459 4,-39.99978 83.0036,-54.96557 113.0036,-21.96563 17.9999,20.00023 22.0053,58.98919 8.0053,79.98906 -6.7499,10.50011 -45.0156,18.76245 -75.953,18.85595 z m 1388.196,-9.85784 c -20.3749,-1.82821 -39.9795,-5.79154 -57.2295,-12.0414 -80.9998,-29.00003 -125.011,-102.94926 -112.011,-189.949 9.0001,-59.00004 47.9972,-100.00285 139.9972,-148.00279 90,-46.99997 117.9679,-78.01655 108.9678,-120.01662 -12.0001,-60 -129.945,-74.9939 -207.9449,-26.99398 -43.0001,27.00007 -55.0462,19.97042 -55.0462,-31.02942 0,-52.0002 23.9998,-73.9872 95.9999,-88.9872 148.0001,-31 276.0436,33.9955 291.0436,148.99531 14,100.00013 -21.9897,153.98097 -140.9897,211.98069 -88.0001,43.00005 -101.0188,53.00965 -111.0186,86.00993 -4.0002,16.99996 0.9882,29.03289 18.9881,48.03314 31,30.99998 83.0256,32.96945 145.0256,3.96942 35.0002,-15 45.9952,-17.01317 52.9954,-7.01305 14,23.00016 9.0018,74.04543 -8.9981,90.04541 -30.75,27.00007 -98.6547,40.48385 -159.7796,34.99956 z m -2314.38798,-1.12498 c -44.87501,2.12529 -89.34082,-0.85804 -116.84088,-9.85784 -136,-45.00001 -201.02281,-161.06144 -189.0228,-341.06148 9,-151.00001 72.03036,-238.98351 188.03028,-263.98361 103.00006,-21.9998 196.00438,-7.0103 270.00448,44.9899 71.9997,48.99989 108.9674,139.05715 108.9674,263.05709 0,145.00015 -51.9819,248.94904 -141.9819,285.94923 -29.0001,11.49974 -74.28156,18.78176 -119.15658,20.90671 z m -14.22461,-96.26444 c 28.37504,-1.12498 55.85004,-8.62718 76.34989,-22.62721 19.0003,-12.00007 40.0408,-35.01039 47.041,-51.01037 33.9999,-69.00015 29.979,-226.9851 -6.0209,-289.98505 -35.9999,-62.99994 -143.99575,-85.98216 -209.99597,-45.98203 -54.99978,33.99991 -74.99866,94.00365 -69.99843,209.00345 3.99991,110.00025 24.98115,156.98701 80.98125,184.98706 24.00014,11.50008 53.26812,16.73912 81.64316,15.61415 z m 3841.98619,-59.61148 c -25.3751,3.24993 -58.0976,-9.04281 -87.5976,-38.04284 l -38.0429,-38.96898 -2.9772,31.02979 c -2.9999,30.00001 -5.0331,30.9634 -48.0331,30.9634 h -44.9895 l -2.9773,-213.9654 c -3.0003,-235.00018 -3.9843,-231.03548 59.0156,-231.03548 55.0002,0 59.016,9.0086 59.016,156.00836 v 131.99197 l 29.9712,32.02198 c 26.9997,29.00003 35.006,32.00131 69.0063,26.00145 44,-7.00018 51.0103,2.01588 51.0103,59.01562 0,33.00027 -18.027,51.73021 -43.4018,54.98013 z M 2270.822,-631.8371 c -27.9689,-0.0467 -55.5844,-4.37896 -80.5845,-13.62909 -89.0001,-32.99994 -135.0275,-109.95588 -136.0275,-223.95604 0,-162.00007 88.9953,-245.05037 244.9952,-229.05047 86.0001,9.0002 137.0478,43.0092 177.0475,121.00919 26.0001,50.99988 22.9795,190.03098 -6.0205,249.03101 -28.5,58.50005 -115.5038,96.73598 -199.4102,96.5954 z m 1964.8582,-0.52912 c -22.0314,-1.74996 -44.4262,-6.10013 -66.426,-13.09997 -72.0001,-23.00017 -85.0174,-33.99111 -85.0174,-70.99096 0,-18.00028 4.0056,-35.96905 8.0055,-38.96898 4.9999,-3.00027 32.0007,3.95994 61.0007,13.95971 52.0002,20.00023 117.0201,26.04143 137.02,12.0414 16.9999,-10.99975 33.9409,-48.0267 33.9409,-75.02678 0,-23.00016 -3.9836,-23.97101 -71.9834,-29.97121 -136,-9.99978 -192.0001,-50.01243 -192.0001,-138.01216 0,-56.00013 25.0116,-91.99593 77.0118,-113.99613 52.9998,-21.9998 96.9799,-19.0097 150.98,9.9903 56.9997,30 56.0384,29.9699 56.0384,3.9698 0,-17.9999 5.005,-20.0033 43.0048,-17.0034 l 41.9465,3.0433 v 186.9718 187.03816 l -28.9786,29.97088 c -36.0003,37.50018 -98.4494,55.33413 -164.5431,50.08424 z m 842.5638,-0.0661 c -21.9999,0 -51.029,-3.99822 -66.029,-8.99811 -85.9998,-26.00009 -138.0125,-111.01445 -138.0125,-225.01461 0,-93.99993 14.0386,-138.03256 56.0387,-179.03226 48.9999,-48.0003 119.9865,-62.9597 219.9863,-48.9596 41.0001,6.0002 80.987,15.9579 88.9871,22.9581 15,13.0001 22.0053,90.04548 8.0053,90.04548 -4.9999,0 -25.9669,-7.01848 -47.9668,-15.01864 -55.0001,-18.99994 -135.0139,-19.00764 -164.0139,0.99253 -20.9999,15 -51.0104,69.02285 -51.0104,93.02265 0,7.00018 55.9747,11.96755 142.9748,12.96753 l 142.048,3.04363 2.9772,34.99921 c 13.0001,133.00008 -65.9846,221.99402 -193.9848,218.99409 z m -3529.9034,-0.72797 c -20.0155,-2.06262 -40.0818,-8.01066 -59.082,-18.26043 -21.9999,-12.00007 -48.0308,-29.0505 -57.0309,-37.05032 -15.0001,-13.00005 -16.9807,-11.97399 -19.9806,14.02611 -3.0003,30 -28.0346,39.97878 -74.0346,28.97869 l -23.9504,-5.95448 V -866.44499 -1081.469 l 23.9504,-5.9548 c 13,-2.9999 38.031,-4.0507 57.0309,-2.0508 l 34.007,3.0433 1.9847,134.96924 c 2,74.00004 5.0057,145.00048 8.0056,157.00055 6.0002,26.0001 62.985,62.98572 97.9849,62.98572 49.9999,0 61.0214,-35.96769 67.0216,-204.96763 l 4.9619,-149.98788 h 50.0179 50.0178 l 2.9776,169.96846 c 2,146.00012 -0.019,175.04148 -15.0186,204.0415 -29.2501,56.24976 -88.8161,85.44863 -148.8632,79.2611 z m 1279.9564,0 c -20.0154,-2.06262 -40.0821,-8.01066 -59.082,-18.26043 -21.9998,-12.00007 -47.9647,-29.0505 -56.9648,-37.05032 -15,-13.00005 -17.0471,-11.97399 -20.047,14.02611 -2.9999,30 -27.9682,39.97878 -73.9682,28.97869 l -24.0167,-5.95448 V -866.44499 -1081.469 l 24.0167,-5.9548 c 13,-2.9999 37.9649,-4.0507 56.9648,-2.0508 l 34.0071,3.0433 2.0507,134.96924 c 2,74.00004 5.0057,145.00048 8.0056,157.00055 5.9999,26.0001 62.9851,62.98572 97.985,62.98572 49.9999,0 60.9552,-35.96769 66.9551,-204.96763 l 5.0283,-149.98788 h 50.0179 49.9518 l 3.0433,169.96846 c 2.0003,146.00012 -0.019,175.04148 -15.0187,204.0415 -29.2496,56.24976 -88.8821,85.44863 -148.9289,79.2611 z m -931.2864,-9.39477 c -19.4999,0.37499 -39.7532,-1.38852 -49.7533,-5.88842 -9.9998,-2.99993 -13.0336,-56.99398 -13.0336,-218.99375 V -1081.469 l 24.0164,-5.9548 c 13.0001,-2.9999 37.965,-4.0507 56.9649,-2.0508 l 34.007,3.0433 3.0433,213.96578 c 2,165.00004 -1.0565,216.02972 -10.0563,223.02956 -7.0002,3.99991 -25.6881,6.50596 -45.1884,6.88095 z m 3186.7248,-69.80027 c 18.9999,-1.12498 37.4887,-6.57709 49.4887,-16.07722 11.0001,-10.00011 23.9937,-33.01789 26.9937,-50.01785 l 7.0134,-33.0145 h -92.0305 c -49.9999,0 -90.9719,2.02807 -90.9719,5.02834 0,18.99991 30.9746,74.95869 46.9746,83.95849 14,8.00016 33.5321,11.24771 52.532,10.12274 z m -2801.9966,-9.59328 c 21.9998,-2.24995 43.4939,-9.99504 57.494,-22.49509 50.9998,-43.9997 50.0151,-205.97981 -1.9847,-246.97991 -39.0002,-30.99999 -98.0429,-27.00219 -134.0428,8.99776 -27,27.00008 -28.9787,34.99041 -28.9787,105.99052 0,78.99992 14.9743,124.96705 46.9746,143.96697 16,9.50012 38.5374,12.7697 60.5376,10.51975 z m 1995.4906,-179.49565 h 46.9745 v -34.99921 c 0,-57.00008 -61.9579,-98.99673 -118.958,-78.99683 -22.0002,8.0001 -26.0014,14.9594 -26.0014,48.95956 0,47.99994 24.9848,65.03648 97.9849,65.03648 z" />
      </g>
    </g>
  </g>
</svg>
