<svg xmlns="http://www.w3.org/2000/svg" width="324" height="234"><defs><linearGradient id="a" x1="-1.46" x2="181.73" y1="64.76" y2="64.76" gradientTransform="matrix(0 -2 2 0 130.05 101.25)" gradientUnits="userSpaceOnUse"><stop offset="0" stop-color="#0c3258"/><stop offset="1" stop-color="#0e3c6a"/></linearGradient><filter id="b" width="1.04" height="1.04" x="0" y="0" color-interpolation-filters="sRGB"><feFlood flood-color="#0B2D50" flood-opacity="1" result="flood"/><feGaussianBlur in="SourceGraphic" result="blur"/><feOffset dx="6.5" dy="6.2" in="blur" result="offset"/><feComposite in="flood" in2="offset" operator="in" result="comp1"/><feComposite in="SourceGraphic" in2="comp1" result="comp2"/></filter></defs><path fill="url(#a)" d="M0 0h324v234H0Z"/><g filter="url(#b)"><path fill="#f5602b" d="m109.97 135.27-20.74 10.42c-5.69 2.85-5.69 7.46 0 10.32l59.89 30.09c5.68 2.86 14.84 2.86 20.52 0l59.9-30.1c5.67-2.85 5.67-7.46 0-10.31l-20.75-10.42-39.15 19.66c-5.68 2.86-14.84 2.86-20.52 0Zm0 0"/><path fill="#a4cf3b" d="m109.97 97.88-20.74 10.41c-5.68 2.86-5.68 7.47 0 10.32l59.89 30.1c5.68 2.86 14.84 2.86 20.52 0l59.9-30.1c5.67-2.85 5.67-7.46 0-10.32l-20.75-10.42-39.15 19.67c-5.68 2.86-14.84 2.86-20.52 0Zm0 0"/><path fill="#4aaad6" d="m89.23 70.9 59.89-30.09c5.67-2.85 14.86-2.85 20.52 0l59.89 30.1c5.67 2.84 5.67 7.46 0 10.3l-59.89 30.1c-5.66 2.85-14.85 2.85-20.52 0l-59.89-30.1c-5.66-2.84-5.66-7.46 0-10.3Zm0 0"/></g></svg>