<svg xmlns="http://www.w3.org/2000/svg" width="324" height="234" viewBox="0 0 324 234"><path fill="#579c3b" d="M0 0h324v234H0z"/><path fill="none" d="M67.04 112.602c2 0 3.84-.48 5.52-1.44 1.68-.96 3.04-2.32 3.92-3.92.96-1.68 1.44-3.52 1.44-5.6 0-2-.48-3.92-1.44-5.52-.96-1.6-2.32-2.96-4-3.92-1.68-.96-3.52-1.52-5.44-1.52-1.84 0-3.68.48-5.36 1.52-1.68.96-3.04 2.32-4 4-.96 1.68-1.44 3.52-1.44 5.6 0 3.04 1.04 5.6 3.12 7.68 2.16 2.08 4.64 3.12 7.68 3.12zm22.24 18 .8-2.96h-2.72l.88 2.96zm190 1.2c-10.48 3.28-30.64 5.52-48.08 6.88h54.88zm-149.52-31.44a5.778 5.778 0 0 0-2.32-1.76 6.88 6.88 0 0 0-3.12-.72c-1.84 0-3.28.56-4.56 1.68-.72.64-1.28 1.52-1.76 2.72h12.8c-.32-.8-.64-1.44-1.04-1.92zm-35.44 11.36c1.12.64 2.4.96 3.68.96 1.28 0 2.4-.32 3.52-.96 1.12-.64 2-1.6 2.64-2.72.64-1.2.96-2.4.96-3.68a7.44 7.44 0 0 0-3.6-6.4 7.139 7.139 0 0 0-3.6-.96 7.12 7.12 0 0 0-7.2 7.36c0 1.36.32 2.64.96 3.76.56 1.12 1.44 2 2.64 2.64zm117.28-.08c1.04.64 2.32.96 3.6.96 1.28 0 2.48-.32 3.6-.96 1.12-.64 1.92-1.44 2.56-2.64.64-1.12.96-2.4.96-3.68 0-2.08-.72-3.76-2.08-5.28a6.776 6.776 0 0 0-5.04-2.16c-1.92 0-3.6.72-5.04 2.16a7.12 7.12 0 0 0-2.08 5.28c0 1.28.32 2.56.96 3.68.64 1.2 1.52 2.08 2.56 2.64z" class="st1"/><path d="M79.28 121.722h.16c-.08-.08-.16-.08-.16 0h-8.4.16zm175.36 0h.16c-.08-.08-.16-.08-.16 0h-8.4.16z"/><path fill="none" d="M254.08 121.722h-8.56c-.64.08-1.2.4-1.2.8v1.76h10.96v-1.76c0-.48-.56-.8-1.2-.8zm-91.36 0c-.08 0-.16-.08-.32-.08-.24-.08-.56-.08-.8-.16-.32 0-.56.08-.8.16-.08 0-.16.08-.32.08-.56.24-.96.64-.96 1.12v1.92h4.16v-1.92c0-.48-.4-.88-.96-1.12zm22.96-10.08c1.04.64 2.32.96 3.6.96 1.28 0 2.48-.32 3.6-.96 1.12-.64 1.92-1.44 2.56-2.64.64-1.12.96-2.4.96-3.68 0-2.08-.72-3.76-2.08-5.28a6.776 6.776 0 0 0-5.04-2.16c-1.92 0-3.6.72-5.04 2.16a7.12 7.12 0 0 0-2.08 5.28c0 1.28.32 2.56.96 3.68.64 1.2 1.52 2.08 2.56 2.64zm-118.64.96c2 0 3.84-.48 5.52-1.44 1.68-.96 3.04-2.32 3.92-3.92.96-1.68 1.44-3.52 1.44-5.6 0-2-.48-3.92-1.44-5.52-.96-1.6-2.32-2.96-4-3.92-1.68-.96-3.52-1.52-5.44-1.52-1.84 0-3.68.48-5.36 1.52-1.68.96-3.04 2.32-4 4-.96 1.68-1.44 3.52-1.44 5.6 0 3.04 1.04 5.6 3.12 7.68 2.16 2.08 4.64 3.12 7.68 3.12zm62.72-12.24a5.778 5.778 0 0 0-2.32-1.76 6.88 6.88 0 0 0-3.12-.72c-1.84 0-3.28.56-4.56 1.68-.72.64-1.28 1.52-1.76 2.72h12.8c-.32-.8-.64-1.44-1.04-1.92zm-35.44 11.36c1.12.64 2.4.96 3.68.96 1.28 0 2.4-.32 3.52-.96 1.12-.64 2-1.6 2.64-2.72.64-1.2.96-2.4.96-3.68a7.44 7.44 0 0 0-3.6-6.4 7.139 7.139 0 0 0-3.6-.96 7.12 7.12 0 0 0-7.2 7.36c0 1.36.32 2.64.96 3.76.56 1.12 1.44 2 2.64 2.64zm117.28-.08c1.04.64 2.32.96 3.6.96 1.28 0 2.48-.32 3.6-.96 1.12-.64 1.92-1.44 2.56-2.64.64-1.12.96-2.4.96-3.68 0-2.08-.72-3.76-2.08-5.28a6.776 6.776 0 0 0-5.04-2.16c-1.92 0-3.6.72-5.04 2.16a7.12 7.12 0 0 0-2.08 5.28c0 1.28.32 2.56.96 3.68.64 1.2 1.52 2.08 2.56 2.64zm-131.76 11.6v-.8c0-.4-.56-.72-1.2-.8h-8.56c-.64.08-1.2.4-1.2.8v1.76h10.88v-.96zm206.08 19.12v-1.92H38.08v1.92zm-247.84 1.76h247.84v1.92H38.08Zm240.72-14.32c0-.08.08-.16.08-.24.48-1.12 1.6-4.16.88-7.68a27.857 27.857 0 0 1-5.2 3.36c-.56.32-1.12.56-1.68.8-8.16 3.84-20.8 7.28-37.68 10.08-1.28.24-2.56.4-3.84.64 16.56-1.28 35.36-3.36 45.76-6.4.64-.16 1.2-.32 1.68-.56zm-.24 2c-10.48 3.28-30.64 5.52-48.08 6.88h54.88z" class="st1"/><path fill="#fff" d="M67.12 117.082c4.32 0 8-1.52 10.96-4.48 2.96-2.96 4.48-6.64 4.48-10.96 0-4.32-1.52-8-4.48-10.96a15.2 15.2 0 0 0-11.12-4.48 15.264 15.264 0 0 0-13.28 7.76c-1.36 2.4-2.08 5.04-2.08 7.84 0 4.24 1.52 7.84 4.48 10.8 3.04 2.96 6.72 4.48 11.04 4.48zm-9.44-20.96c.96-1.68 2.32-3.04 4-4 1.68-.96 3.52-1.52 5.36-1.52 1.92 0 3.76.48 5.44 1.52 1.68.96 3.04 2.32 4 3.92s1.44 3.52 1.44 5.52c0 2.08-.48 3.92-1.44 5.6-.96 1.68-2.24 2.96-3.92 3.92-1.68.96-3.52 1.44-5.52 1.44-3.04 0-5.52-1.04-7.6-3.12-2.16-2.08-3.12-4.64-3.12-7.68a10.4 10.4 0 0 1 1.36-5.6zm66.72 20.8c1.6 0 3.04-.24 4.4-.72 1.28-.48 2.48-1.2 3.52-2.16 1.04-.96 1.92-2.16 2.72-3.68l.4-.8-.16-.08h-4.8c-.48.64-.88 1.2-1.28 1.52-.64.56-1.36.96-2.24 1.28-.88.32-1.84.48-2.72.48-1.92 0-3.52-.64-4.8-2a7.496 7.496 0 0 1-2-4.32h18.4v-.88c0-2.96-.88-5.52-2.48-7.52-2.24-2.88-5.28-4.32-9.04-4.32-3.68 0-6.64 1.44-8.8 4.24-1.68 2.16-2.56 4.72-2.56 7.52 0 2.96 1.04 5.68 3.04 8 1.92 2.16 4.8 3.44 8.4 3.44zm-4.72-17.36c1.28-1.12 2.8-1.68 4.56-1.68 1.12 0 2.16.24 3.12.72s1.76 1.04 2.32 1.76c.4.48.72 1.12 1.04 1.92h-12.8c.48-1.12 1.12-2.08 1.76-2.72zm24.24 8.4c0-2.64.08-4.4.32-5.36.32-1.36 1.04-2.48 2.24-3.44 1.12-.96 2.32-1.36 3.68-1.36 1.2 0 2.16.32 2.8.8.72.56 1.2 1.36 1.44 2.56.16.48.24 1.68.24 4.48v10.64h4.4v-11.44c0-2.96-.32-5.04-.88-6.48a7.904 7.904 0 0 0-7.52-4.8c-1.68 0-3.2.4-4.64 1.12-.8.4-1.52.96-2.16 1.6v-2.24h-4.4v22.24h4.4zm27.52-16.56h9.52v-4.48h-23.68v4.48h9.52v24.96h4.64zm9.52 22c2.16 2.32 4.96 3.52 8.32 3.52 3.36 0 6.16-1.2 8.32-3.52 2.16-2.32 3.2-5.04 3.2-8.08s-1.04-5.76-3.04-8c-2.24-2.48-5.12-3.68-8.48-3.68-3.44 0-6.32 1.28-8.56 3.76a11.736 11.736 0 0 0 .24 16zm3.28-13.28c1.44-1.44 3.04-2.16 5.04-2.16 1.92 0 3.6.72 5.04 2.16 1.44 1.44 2.08 3.2 2.08 5.28a7.368 7.368 0 0 1-3.52 6.32c-1.12.64-2.32.96-3.6.96-1.28 0-2.48-.32-3.6-.96a7.368 7.368 0 0 1-3.52-6.32c0-2.16.72-3.84 2.08-5.28zm30.96 16.8c3.36 0 6.16-1.2 8.32-3.52 2.16-2.32 3.2-5.04 3.2-8.08s-1.04-5.76-3.04-8c-2.24-2.48-5.12-3.68-8.48-3.68-3.44 0-6.32 1.28-8.48 3.76-2 2.24-3.04 4.96-3.04 8s1.12 5.84 3.2 8.08c2.16 2.24 4.96 3.44 8.32 3.44zm-5.04-16.8c1.44-1.44 3.04-2.16 5.04-2.16 1.92 0 3.6.72 5.04 2.16 1.44 1.44 2.08 3.2 2.08 5.28a7.368 7.368 0 0 1-3.52 6.32c-1.12.64-2.32.96-3.6.96-1.28 0-2.48-.32-3.6-.96a7.368 7.368 0 0 1-3.52-6.32c0-2.16.72-3.84 2.08-5.28zm24.08 7.84c0-2.64.08-4.4.32-5.36.32-1.36 1.04-2.48 2.24-3.44 1.12-.96 2.32-1.36 3.68-1.36 1.2 0 2.16.32 2.8.8.72.56 1.2 1.36 1.44 2.56.16.48.24 1.68.24 4.48v10.64h4.4v-11.44c0-2.96-.32-5.04-.88-6.48a7.904 7.904 0 0 0-7.52-4.8c-1.68 0-3.2.4-4.64 1.12-.8.4-1.52.96-2.16 1.6v-2.24h-4.4v22.24h4.4zm25.68 4.32 11.6-18.16h-17.6v4.08h9.76l-11.6 18.16h18.32v-4.08zM88.8 135.242l2.08-8v-13.04c.72.64 1.6 1.2 2.4 1.6a11.2 11.2 0 0 0 4.88 1.12c3.12 0 5.84-1.12 8.08-3.44 2.24-2.24 3.36-5.04 3.36-8.32 0-3.2-1.12-5.92-3.36-8.16a11.136 11.136 0 0 0-13.04-2.24c-.8.4-1.6.96-2.32 1.68v-2.32h-4.4v33.12zm4-35.2a6.64 6.64 0 0 1 5.12-2.08c1.28 0 2.48.32 3.6.96 1.12.64 2 1.52 2.64 2.72.64 1.2.96 2.4.96 3.68 0 1.28-.32 2.56-.96 3.68a6.657 6.657 0 0 1-2.64 2.72c-1.12.64-2.24.96-3.52.96-1.28 0-2.48-.32-3.68-.96-1.12-.64-2-1.52-2.64-2.64-.64-1.12-.96-2.4-.96-3.76 0-2.16.64-3.84 2.08-5.28zm-2.64 27.2-.88 3.44h-1.04l-.96-3.44z" class="st2"/><path fill="#fff" d="m287.76 138.442-7.52-7.52c.32-.56 3.2-6.08.32-12.32-1.6 1.92-4.08 3.68-7.28 5.28l-2.32-2.32H256.8c-.24-.88-1.44-1.6-2.8-1.6h-8.32c-1.44 0-2.56.72-2.8 1.6h-77.6c-.24-1.2-1.76-2.08-3.52-2.16h-.16c-1.84.08-3.28.96-3.52 2.16H95.92v1.76h63.04v2h5.52v-2h79.44v1.44H256v-1.44h14.4l1.36 1.36c-21.92 10.08-69.52 13.76-70.72 13.92h-162l15.84-15.36h13.44v1.52H80.4v-1.6h.96v-1.28c0-1.04-1.28-1.92-2.88-1.92h-8.24c-1.36 0-2.48.64-2.8 1.52H54l-17.76 17.12v9.2h251.44Zm-124.08-15.36v1.6h-4.16v-1.92c0-.48.4-.88.96-1.12.08 0 .16-.08.32-.08.24-.08.56-.08.8-.16.32 0 .56.08.8.16.08 0 .16.08.32.08.56.24.96.64.96 1.12zm91.6 0v1.12H244.4v-1.76c0-.4.56-.72 1.2-.8h8.56c.64.08 1.2.4 1.2.8v.64zm-186.32.16v-.8c0-.4.56-.72 1.2-.8h8.56c.64.08 1.2.4 1.2.8v1.76H69.04v-.96zm166.32 12.96c16.88-2.8 29.52-6.24 37.68-10.08.56-.24 1.12-.56 1.68-.8 2.08-1.12 3.84-2.24 5.2-3.36.72 3.52-.32 6.56-.88 7.68 0 .08-.08.16-.08.24-.56.16-1.12.32-1.68.56-10.32 3.04-29.2 5.12-45.76 6.4 1.28-.24 2.56-.48 3.84-.64zm43.28-4.4 6.8 6.88h-54.88c17.44-1.36 37.6-3.6 48.08-6.88zm7.36 14.24H38.08v-1.92h247.84zm0-3.68H38.08v-1.92h247.84z" class="st2"/></svg>