<svg xmlns="http://www.w3.org/2000/svg" xmlns:xlink="http://www.w3.org/1999/xlink" width="324" height="234" viewBox="0 0 85.725 61.913"><defs><radialGradient gradientUnits="userSpaceOnUse" gradientTransform="matrix(3.77953 0 0 3.77947 0 .002)" r="52.587" fy="31.401" fx="41.075" cy="31.401" cx="41.075" id="k" xlink:href="#a"/><radialGradient r="52.587" fy="31.401" fx="41.075" cy="31.401" cx="41.075" gradientTransform="matrix(3.77953 0 0 3.77947 0 .002)" gradientUnits="userSpaceOnUse" id="h" xlink:href="#a"/><radialGradient r="52.587" fy="31.401" fx="41.075" cy="31.401" cx="41.075" gradientTransform="matrix(3.77953 0 0 3.77947 0 .002)" gradientUnits="userSpaceOnUse" id="l" xlink:href="#a"/><radialGradient r="52.587" fy="31.401" fx="41.075" cy="31.401" cx="41.075" gradientTransform="matrix(3.77953 0 0 3.77947 0 .002)" gradientUnits="userSpaceOnUse" id="g" xlink:href="#a"/><radialGradient r="52.587" fy="31.401" fx="41.075" cy="31.401" cx="41.075" gradientTransform="matrix(3.77953 0 0 3.77947 0 .002)" gradientUnits="userSpaceOnUse" id="j" xlink:href="#a"/><radialGradient r="52.587" fy="31.401" fx="41.075" cy="31.401" cx="41.075" gradientTransform="matrix(3.77953 0 0 3.77947 0 .002)" gradientUnits="userSpaceOnUse" id="f" xlink:href="#a"/><radialGradient xlink:href="#b" id="i" gradientUnits="userSpaceOnUse" gradientTransform="matrix(3.77953 0 0 3.77947 0 .002)" cx="41.075" cy="31.401" fx="41.075" fy="31.401" r="52.587"/><linearGradient id="c"><stop stop-color="#ffe4dd" offset="0"/><stop stop-color="#fff" offset="1"/></linearGradient><linearGradient id="b" x2="1" gradientTransform="rotate(-90 142.725 -88.79) scale(45.9568)" gradientUnits="userSpaceOnUse"><stop stop-color="#af1173" offset="0"/><stop stop-color="#f23196" offset="1"/></linearGradient><linearGradient gradientUnits="userSpaceOnUse" gradientTransform="rotate(-90 142.725 -88.79) scale(45.9568)" x2="1" id="a"><stop offset="0" stop-color="#a01069"/><stop offset="1" stop-color="#e73c3e"/></linearGradient><linearGradient id="d" x2="1" gradientTransform="rotate(-90 142.725 -88.79) scale(45.9568)" gradientUnits="userSpaceOnUse"><stop stop-color="#a01e10" offset="0"/><stop stop-color="#e74c3c" offset="1"/></linearGradient><linearGradient gradientUnits="userSpaceOnUse" y2="30.956" x2="85.725" y1="30.956" x1="0" id="e" xlink:href="#a"/><linearGradient x2="1" gradientTransform="rotate(-90 209.12 -92.453) scale(45.9568)" gradientUnits="userSpaceOnUse" id="m" xlink:href="#d"/></defs><path fill="url(#e)" d="M0 0h85.725v61.913H0z"/><path transform="scale(.26458)" d="M324 216.955l-43.076 11.543 1.474 5.502H324v-17.045z" fill="url(#f)"/><path transform="scale(.26458)" d="M247.9 190.104l-68.591 18.38L84.08 234h91.451l9.906-2.654v-.002l68.592-18.377-6.129-22.863z" fill="url(#g)"/><path transform="scale(.26458)" d="M0 166.305l16.873 62.965 22.867-6.13-18.379-68.59-.007.003L0 74.86v91.444z" fill="url(#h)"/><path transform="scale(.26458)" d="M205.453 31.703l-68.592 18.379 16.871 62.965-16.87-62.96L68.263 68.47l18.38 68.59.008-.002 18.38 68.593 68.59-18.38 68.597-18.38-18.38-68.591-68.597 18.38 68.59-18.38-18.379-68.596zM35.24 30.074l-22.861 6.13 30.19 112.673.01-.002 18.376 68.584 22.861-6.129-18.38-68.59-.008.002L35.24 30.074zm214.287-10.181l-22.861 6.128 18.38 68.59 4.597-1.23-4.59 1.23 30.19 112.674 22.862-6.129-30.19-112.674-.009.002-18.379-68.591z" fill="url(#i)"/><path transform="scale(.26458)" d="M324 121.484l-12.01-44.812-22.86 6.128 30.19 112.674 4.68-1.254v-72.737z" fill="url(#j)"/><path transform="scale(.26458)" d="M293.61 8.082l-22.868 6.129 18.381 68.59 22.867-6.13-18.38-68.589zM147.46 0l-22.415 6.006.002.008-68.592 18.379 6.129 22.86 68.59-18.378-2.19-8.172 2.19 8.164L238.912 0h-91.451zM49.922 0l.851 3.18L62.64 0H49.922z" fill="url(#k)"/><path transform="scale(.26458)" d="M0 16.781L29.559 8.86 27.184 0H0v16.781z" fill="url(#l)"/><g transform="matrix(1.08 0 0 1.08 -132.791 2.803)"><circle r="27.573" cx="162.765" cy="26.068" fill="#ffe4dd"/><path fill="#ffe4dd" d="M202.331 2.39l-79.376 21.267v26.14l79.376-21.643V2.39z"/><g transform="translate(49.844 -67.622)"><circle r="22.978" cx="112.921" cy="93.689" fill="url(#m)"/><path d="M97.454 84.76l2.86 10.675 3.56-.953-2.861-10.676zm6.86-1.839l2.861 10.676 3.558-.954-2.86-10.675zm6.86-1.838l2.861 10.676 10.675-2.86-2.86-10.677zM101.2 98.737l2.792 10.419 3.558-.954-2.792-10.419zm6.86-1.838l.953 3.558 17.536-4.699-.953-3.558zm1.838 6.86l.953 3.559 17.536-4.7-.953-3.558z" fill="#fff"/></g></g></svg>