<svg xmlns="http://www.w3.org/2000/svg" width="324" height="234"><path fill="#fbcaa1" d="M324 0v234H0V0Z"/><path fill="#505556" d="M216.36 34.34c2.94.05 7.87 3.68 9.62 7.19.53 1.05 1.1 2.77 1.28 3.82.23 1.37.3 10.24.24 31.18-.08 29.16-.09 29.27-.68 30.84a13.87 13.87 0 0 1-8.37 8.4l-1.68.67-19.75.08-19.76.08-16.65 16.65a957.95 957.95 0 0 1-16.86 16.66c-.12 0-.22-7.34-.22-16.32 0-8.97-.1-16.46-.22-16.65-.16-.26-4.51-.36-18.13-.42-17.77-.09-17.93-.1-19.57-.72-4.6-1.73-8.01-5.64-8.85-10.11-.38-2.04-.37-59.08.01-60.81.96-4.33 4.22-8.2 8.33-9.85l1.6-.65 47.27-.08c26-.04 47.26 0 47.26.08"/><path fill="#fff" d="M196.14 41.8H152.4c-41.7.01-43.79.04-44.86.52a6.39 6.39 0 0 0-3.2 3.6c-.2.7-.3 10.57-.3 29.67v28.6l.79 1.5a5.43 5.43 0 0 0 2.14 2.34l1.37.85 20.82.07 20.81.08.07 11.94c.06 8.92.16 11.97.4 12.06.2.06 5.84-5.31 12.57-11.94l12.23-12.06 20.2-.07c22.6-.1 20.95.06 22.95-2.15a6.74 6.74 0 0 0 1.3-2.18c.42-1.52.42-56.8 0-58.47-.66-2.62-3-4.34-5.91-4.35"/><path fill="#f48c4f" d="m211.46 42.06-5.6 9.7a334.98 334.98 0 0 1-7.57 12.6c-4.36 6.4-15.68 21.1-18.2 23.64-1.25 1.25-3.09 1.95-4.36 1.67-1.77-.39-2.88-2.83-2.25-4.93.7-2.36 9.85-22.14 12.54-27.14.7-1.3 3.23-5.26 5.6-8.78l17.48-25.63c7.47-10.98 7.58-11.1 10.6-11.1 1.55 0 2.01.12 3.01.8a5.49 5.49 0 0 1 2.32 4.01c0 1.42-.5 2.48-4.67 9.7-2.2 3.83-4 7.12-4 7.32"/><path fill="#f48c4f" d="M64.01 179.04a18.78 18.78 0 0 0-18.77-18.86c-10.86 0-19.26 8.24-19.26 18.91 0 10.52 8.5 18.87 19.21 18.87 10.62 0 18.82-8.25 18.82-18.92zm-6.82.1c0 7.01-5.13 12.3-12.05 12.3a12.23 12.23 0 0 1-12.34-12.35c0-7.06 5.33-12.4 12.34-12.4 6.77 0 12.05 5.44 12.05 12.45zm40.1 4.4c0-8.25-5.72-14.23-13.62-14.23-3.7 0-6.87 1.39-9 3.86v-3.22h-6.02v36.5h6.57v-11.7a11.7 11.7 0 0 0 8.4 3.2c7.9 0 13.68-6.12 13.68-14.41zm-6.6.15c0 4.64-3.42 8.24-7.76 8.24-4.65 0-8.1-3.55-8.1-8.34 0-4.7 3.45-8.25 8-8.25 4.44 0 7.85 3.6 7.85 8.35zm37.92.34c0-8.5-5.97-14.72-14.12-14.72a14.31 14.31 0 0 0-14.43 14.42c0 8 6.47 14.23 14.82 14.23 5.53 0 11.21-3.11 13.04-8.74h-7.16c-1.68 1.97-3.31 2.71-6.03 2.71-3.9 0-6.76-2.07-7.55-5.38h21.19c.2-.94.24-1.53.24-2.52zm-6.47-3.26h-15.16c1.04-3.5 3.7-5.43 7.6-5.43 4.06 0 6.72 1.92 7.56 5.43zm35.02 16.55v-14.67c0-4.9-.5-7.26-1.98-9.39-1.77-2.56-4.74-3.95-8.54-3.95-3.11 0-5.29.94-7.7 3.26v-2.62h-6.08v27.37h6.57v-12.9c0-3.65.25-5.23 1.09-6.56a5.51 5.51 0 0 1 4.84-2.52c3.26 0 5.23 1.28 5.23 8.6v13.38z" font-family="'TeX Gyre Adventor'" font-size="49.39" font-weight="700" letter-spacing="0" style="line-height:1.25;-inkscape-font-specification:&quot;TeX Gyre Adventor Bold&quot;" word-spacing="0"/><path fill="#505556" d="M186.9 186.45c0-4.35-1.59-7.11-6.23-9.04 2.91-1.53 4.05-3.45 4.05-6.86a9.16 9.16 0 0 0-4.15-7.95c-2.17-1.39-4.44-1.78-9.88-1.78h-7.5v36.5h9.73c9.38 0 13.97-4.2 13.97-10.87zm-6.82-.15c0 3.16-2.03 4.55-6.77 4.55h-3.36v-9.34h3.21c4.7 0 6.92 1.53 6.92 4.8zm-2.13-15.16c0 2.62-1.73 3.75-5.82 3.75h-2.18v-7.45h2.77c3.5 0 5.23 1.18 5.23 3.7zm41.1 12.7c0-8.16-6.38-14.53-14.62-14.53a14.46 14.46 0 0 0-14.48 14.33c0 7.9 6.52 14.32 14.53 14.32 7.95 0 14.57-6.42 14.57-14.13zm-6.62-.2c0 4.59-3.56 8.3-7.9 8.3-4.45 0-7.96-3.71-7.96-8.4 0-4.5 3.6-8.2 7.9-8.2 4.4 0 7.96 3.75 7.96 8.3zm38.03 13.68v-27.37h-6.03v3.66c-2.27-3.01-4.99-4.3-8.94-4.3-8.1 0-13.93 6.08-13.93 14.42 0 8.25 5.78 14.23 13.78 14.23 3.86 0 6.47-1.24 9.1-4.2v3.56zm-6.23-13.49c0 4.55-2.96 8.1-7.95 8.1-4.79 0-8.1-3.26-8.1-8.05 0-4.99 3.31-8.54 8-8.54 4.7 0 8.05 3.5 8.05 8.5zm23.56-8.2v-6.32h-.49c-2.82 0-4.2.8-5.93 3.31v-2.67h-6.02v27.37h6.57V182.1c0-4.24 1.92-6.37 5.87-6.47zm30.23 21.69v-36.5h-6.57v11.56c-1.92-2.13-5.09-3.41-8.54-3.41-7.66 0-13.68 6.42-13.68 14.62 0 8.1 5.97 14.37 13.73 14.37 3.7 0 6.42-1.24 9.03-4.2v3.56zm-6.07-13.83c0 4.74-3.51 8.44-7.96 8.44-4.59 0-8.15-3.8-8.15-8.64 0-4.64 3.51-8.3 8-8.3 4.6 0 8.1 3.7 8.1 8.5z" font-size="2.56" letter-spacing="0" style="line-height:0%" word-spacing="0"/></svg>