<svg xmlns="http://www.w3.org/2000/svg" width="324" height="234"><defs><linearGradient id="a" x1="23.999" x2="23.999" y1="2" y2="46.006" gradientTransform="matrix(3.39104 0 0 3.3148 80.876 35.355)" gradientUnits="userSpaceOnUse"><stop offset="0" stop-color="#00c25c"/><stop offset="1" stop-color="#00833e"/></linearGradient><linearGradient id="c" x1="27.171" x2="24.014" y1="16.721" y2="28.771" gradientTransform="matrix(3.30711 0 0 3.39891 80.876 35.355)" gradientUnits="userSpaceOnUse"><stop offset="0" stop-color="#ffc214"/><stop offset="1" stop-color="#ff9b00"/></linearGradient><filter id="b" width="1.122" height="1.152" x="-.061" y="-.063" color-interpolation-filters="sRGB"><feFlood flood-color="#000" flood-opacity=".18" result="flood"/><feGaussianBlur in="SourceGraphic" result="blur" stdDeviation="3.8"/><feOffset dy="4" in="blur" result="offset"/><feComposite in="flood" in2="offset" operator="in" result="comp1"/><feComposite in="SourceGraphic" in2="comp1" result="comp2"/></filter><filter id="d" width="1.419" height="1.497" x="-.209" y="-.204" color-interpolation-filters="sRGB"><feFlood flood-color="#000" flood-opacity=".18" result="flood"/><feGaussianBlur in="SourceGraphic" result="blur" stdDeviation="3.8"/><feOffset dy="4" in="blur" result="offset"/><feComposite in="flood" in2="offset" operator="in" result="comp1"/><feComposite in="SourceGraphic" in2="comp1" result="comp2"/></filter></defs><path fill="#e34a00" d="M0 0h324v234H0z"/><path fill="url(#a)" fill-rule="evenodd" d="M162.258 41.984c38.617 0 70.379 28.684 74.21 65.446-17.128 14.539-33.468 22.824-49.015 24.855 7.914-12.926 9.43-24.855-1.578-42.601-9.11-14.692-28.324-27.68-60.918-37.914l.297-.196c10.906-6.101 23.539-9.59 37.004-9.59Zm64.605 109.395c-19.308 32.691-60.597 45.242-95.078 30.105-4.316-21.77-3.488-39.746 2.485-53.925 7.492 13.164 17.308 20.41 38.53 19.964 17.571-.367 38.684-10.14 64.044-32.617l.027.348c-.047 12.285-3.273 24.723-10.008 36.125Zm-129.21 0c-19.31-32.695-9.782-73.926 20.867-95.55 21.445 7.23 36.957 16.921 46.53 29.07-15.41-.243-26.734 4.445-36.952 22.632-8.461 15.063-10.36 37.824-3.125 70.531l-.325-.152c-10.855-6.183-20.261-15.133-26.996-26.531Zm0 0" filter="url(#b)"/><path fill="url(#c)" fill-rule="evenodd" d="M170.527 88.395c7.844 9.656 10.11 18.25 6.801 25.78-3.308 7.532-1.73 13.505 4.738 17.919-10.68 2.738-19.539.133-26.582-7.824-3.988-5.258-9.558-6.56-16.714-3.903-2.047-5.601 9.003-17.219 19.738-18.351 7.16-.75 11.164-5.293 12.02-13.621Zm-6.574 29.832c2.809 0 5.086-2.223 5.086-4.973 0-2.746-2.277-4.969-5.086-4.969-2.808 0-5.086 2.223-5.086 4.969 0 2.75 2.278 4.973 5.086 4.973Zm0 0" filter="url(#d)"/></svg>