<?xml version="1.0" encoding="UTF-8" standalone="no"?>
<svg
   xmlns:dc="http://purl.org/dc/elements/1.1/"
   xmlns:cc="http://creativecommons.org/ns#"
   xmlns:rdf="http://www.w3.org/1999/02/22-rdf-syntax-ns#"
   xmlns:svg="http://www.w3.org/2000/svg"
   xmlns="http://www.w3.org/2000/svg"
   xmlns:xlink="http://www.w3.org/1999/xlink"
   xmlns:sodipodi="http://sodipodi.sourceforge.net/DTD/sodipodi-0.dtd"
   xmlns:inkscape="http://www.inkscape.org/namespaces/inkscape"
   width="324px"
   height="234px"
   viewBox="0 0 324 234"
   version="1.1"
   id="svg32"
   sodipodi:docname="peazip.svg"
   inkscape:version="0.92.4 (5da689c313, 2019-01-14)">
  <metadata
     id="metadata36">
    <rdf:RDF>
      <cc:Work
         rdf:about="">
        <dc:format>image/svg+xml</dc:format>
        <dc:type
           rdf:resource="http://purl.org/dc/dcmitype/StillImage" />
        <dc:title></dc:title>
      </cc:Work>
    </rdf:RDF>
  </metadata>
  <sodipodi:namedview
     pagecolor="#000000"
     bordercolor="#666666"
     borderopacity="1"
     objecttolerance="10"
     gridtolerance="10"
     guidetolerance="10"
     inkscape:pageopacity="0"
     inkscape:pageshadow="2"
     inkscape:window-width="1152"
     inkscape:window-height="752"
     id="namedview34"
     showgrid="false"
     inkscape:pagecheckerboard="true"
     inkscape:snap-bbox="true"
     inkscape:bbox-paths="true"
     inkscape:bbox-nodes="true"
     inkscape:snap-bbox-edge-midpoints="true"
     inkscape:snap-bbox-midpoints="true"
     inkscape:object-paths="true"
     inkscape:snap-intersection-paths="true"
     inkscape:snap-smooth-nodes="true"
     inkscape:snap-midpoints="true"
     inkscape:snap-object-midpoints="true"
     inkscape:snap-center="true"
     inkscape:snap-text-baseline="true"
     inkscape:snap-global="true"
     inkscape:zoom="1.020041"
     inkscape:cx="106.91548"
     inkscape:cy="132.74193"
     inkscape:window-x="0"
     inkscape:window-y="0"
     inkscape:window-maximized="1"
     inkscape:current-layer="g1218" />
  <defs
     id="defs7">
    <linearGradient
       id="linearGradient1437"
       inkscape:collect="always">
      <stop
         id="stop1433"
         offset="0"
         style="stop-color:#5e7201;stop-opacity:1" />
      <stop
         id="stop1435"
         offset="1"
         style="stop-color:#8da902;stop-opacity:1" />
    </linearGradient>
    <linearGradient
       inkscape:collect="always"
       id="linearGradient1390">
      <stop
         style="stop-color:#fff170;stop-opacity:1"
         offset="0"
         id="stop1386" />
      <stop
         style="stop-color:#ffe600;stop-opacity:0.96875"
         offset="1"
         id="stop1388" />
    </linearGradient>
    <linearGradient
       inkscape:collect="always"
       id="linearGradient1366">
      <stop
         style="stop-color:#40f200;stop-opacity:1"
         offset="0"
         id="stop1362" />
      <stop
         style="stop-color:#299d00;stop-opacity:1"
         offset="1"
         id="stop1364" />
    </linearGradient>
    <linearGradient
       inkscape:collect="always"
       id="linearGradient1358">
      <stop
         style="stop-color:#5d7001;stop-opacity:1;"
         offset="0"
         id="stop1354" />
      <stop
         style="stop-color:#b1d502;stop-opacity:1"
         offset="1"
         id="stop1356" />
    </linearGradient>
    <linearGradient
       inkscape:collect="always"
       id="linearGradient1350">
      <stop
         style="stop-color:#455d00;stop-opacity:1"
         offset="0"
         id="stop1346" />
      <stop
         style="stop-color:#adec00;stop-opacity:1"
         offset="1"
         id="stop1348" />
    </linearGradient>
    <linearGradient
       inkscape:collect="always"
       id="linearGradient1342">
      <stop
         style="stop-color:#91bf00;stop-opacity:1"
         offset="0"
         id="stop1338" />
      <stop
         style="stop-color:#7ba002;stop-opacity:1"
         offset="1"
         id="stop1340" />
    </linearGradient>
    <linearGradient
       inkscape:collect="always"
       id="linearGradient1334">
      <stop
         style="stop-color:#78e600;stop-opacity:1"
         offset="0"
         id="stop1330" />
      <stop
         style="stop-color:#7fbf00;stop-opacity:1"
         offset="1"
         id="stop1332" />
    </linearGradient>
    <linearGradient
       inkscape:collect="always"
       id="linearGradient1326">
      <stop
         style="stop-color:#c2a600;stop-opacity:1"
         offset="0"
         id="stop1322" />
      <stop
         style="stop-color:#ffe600;stop-opacity:1"
         offset="1"
         id="stop1324" />
    </linearGradient>
    <clipPath
       clipPathUnits="userSpaceOnUse"
       id="clipPath1179">
      <rect
         y="-5.3098874"
         x="43.461319"
         height="66.827141"
         width="92.766678"
         id="rect1181"
         style="opacity:0.48900003;fill:none;fill-opacity:1;fill-rule:evenodd;stroke:#000000;stroke-width:0.61564445;stroke-linecap:round;stroke-linejoin:round;stroke-miterlimit:4;stroke-dasharray:none;stroke-dashoffset:0;stroke-opacity:1;paint-order:markers fill stroke" />
    </clipPath>
    <linearGradient
       inkscape:collect="always"
       xlink:href="#linearGradient1326"
       id="linearGradient1328"
       x1="413.70898"
       y1="11.763672"
       x2="573.0957"
       y2="128.76367"
       gradientUnits="userSpaceOnUse" />
    <linearGradient
       inkscape:collect="always"
       xlink:href="#linearGradient1334"
       id="linearGradient1336"
       x1="575.70703"
       y1="128.7617"
       x2="737.70898"
       y2="245.76367"
       gradientUnits="userSpaceOnUse" />
    <linearGradient
       inkscape:collect="always"
       xlink:href="#linearGradient1342"
       id="linearGradient1344"
       x1="692.68945"
       y1="128.76367"
       x2="737.70898"
       y2="128.76367"
       gradientUnits="userSpaceOnUse" />
    <radialGradient
       inkscape:collect="always"
       xlink:href="#linearGradient1350"
       id="radialGradient1352"
       cx="573.0957"
       cy="128.76367"
       fx="573.0957"
       fy="128.76367"
       r="137.99804"
       gradientTransform="matrix(1.0776148,1.0387258,-1.7538667,1.81953,181.35363,-700.81498)"
       gradientUnits="userSpaceOnUse" />
    <radialGradient
       inkscape:collect="always"
       xlink:href="#linearGradient1358"
       id="radialGradient1360"
       cx="656.74414"
       cy="69.890625"
       fx="656.74414"
       fy="69.890625"
       r="76.29297"
       gradientTransform="matrix(0.95519947,1.0570619,-3.0421598,2.7490059,242.04094,-816.45831)"
       gradientUnits="userSpaceOnUse" />
    <radialGradient
       inkscape:collect="always"
       xlink:href="#linearGradient1366"
       id="radialGradient1368"
       cx="161.99805"
       cy="116.99803"
       fx="161.99805"
       fy="116.99803"
       r="77.762106"
       gradientTransform="translate(0,-2.073717e-5)"
       gradientUnits="userSpaceOnUse" />
    <radialGradient
       inkscape:collect="always"
       xlink:href="#linearGradient1366"
       id="radialGradient1376"
       cx="485.70715"
       cy="217.01314"
       fx="485.70715"
       fy="217.01314"
       r="54.31562"
       gradientTransform="matrix(1,0,0,0.52932342,0,102.143)"
       gradientUnits="userSpaceOnUse" />
    <radialGradient
       inkscape:collect="always"
       xlink:href="#linearGradient1366"
       id="radialGradient1384"
       cx="665.71277"
       cy="40.510986"
       fx="665.71277"
       fy="40.510986"
       r="54.313675"
       gradientTransform="matrix(1,0,0,0.5292832,0,19.069202)"
       gradientUnits="userSpaceOnUse" />
    <radialGradient
       inkscape:collect="always"
       xlink:href="#linearGradient1390"
       id="radialGradient1392"
       cx="485.70814"
       cy="229.86054"
       fx="485.70814"
       fy="229.86054"
       r="28.618905"
       gradientTransform="matrix(1,0,0,0.55568628,0,102.13019)"
       gradientUnits="userSpaceOnUse" />
    <radialGradient
       inkscape:collect="always"
       xlink:href="#linearGradient1390"
       id="radialGradient1394"
       cx="665.70929"
       cy="27.665455"
       fx="665.70929"
       fy="27.665455"
       r="28.619513"
       gradientTransform="matrix(1,0,0,0.5556273,0,12.293772)"
       gradientUnits="userSpaceOnUse" />
    <radialGradient
       inkscape:collect="always"
       xlink:href="#linearGradient1390"
       id="radialGradient1396"
       cx="161.99805"
       cy="116.99963"
       fx="161.99805"
       fy="116.99963"
       r="40.978119"
       gradientTransform="matrix(1,0,0,0.99996074,0,0.00459313)"
       gradientUnits="userSpaceOnUse" />
    <linearGradient
       inkscape:collect="always"
       xlink:href="#linearGradient1326"
       id="linearGradient1425"
       gradientUnits="userSpaceOnUse"
       x1="413.70898"
       y1="11.763672"
       x2="573.0957"
       y2="128.76367" />
    <radialGradient
       inkscape:collect="always"
       xlink:href="#linearGradient1350"
       id="radialGradient1427"
       gradientUnits="userSpaceOnUse"
       gradientTransform="matrix(1.0776148,1.0387258,-1.7538667,1.81953,181.35363,-700.81498)"
       cx="573.0957"
       cy="128.76367"
       fx="573.0957"
       fy="128.76367"
       r="137.99804" />
    <linearGradient
       inkscape:collect="always"
       xlink:href="#linearGradient1334"
       id="linearGradient1429"
       gradientUnits="userSpaceOnUse"
       x1="575.70703"
       y1="128.7617"
       x2="737.70898"
       y2="245.76367" />
    <radialGradient
       inkscape:collect="always"
       xlink:href="#linearGradient1437"
       id="radialGradient1431"
       gradientUnits="userSpaceOnUse"
       gradientTransform="matrix(1.4563434,1.4939566,-2.9360147,2.8620949,-94.500944,-1111.2902)"
       cx="656.74414"
       cy="69.890625"
       fx="656.74414"
       fy="69.890625"
       r="76.29297" />
  </defs>
  <g
     inkscape:groupmode="layer"
     id="layer1"
     inkscape:label="jhalo" />
  <g
     inkscape:groupmode="layer"
     id="layer2"
     inkscape:label="jhalotop">
    <g
       id="g1218"
       transform="translate(-413.707,-11.763331)">
      <g
         id="g1452">
        <rect
           transform="translate(413.707,11.763331)"
           y="0"
           x="0"
           height="234"
           width="324"
           id="rect1410"
           style="opacity:1;fill:#668b00;fill-opacity:1;fill-rule:evenodd;stroke:none;stroke-width:2;stroke-linecap:round;stroke-linejoin:round;stroke-miterlimit:4;stroke-dasharray:none;stroke-dashoffset:0;stroke-opacity:1;paint-order:markers fill stroke" />
        <path
           inkscape:connector-curvature="0"
           style="opacity:1;fill:url(#linearGradient1425);fill-opacity:1;fill-rule:evenodd;stroke:none;stroke-width:1.99602258;stroke-linecap:round;stroke-linejoin:round;stroke-miterlimit:4;stroke-dasharray:none;stroke-dashoffset:0;stroke-opacity:1;paint-order:markers fill stroke"
           d="M 573.0957,11.763672 H 413.70898 V 245.76367 h 2.98438 c 1.19072,-6.08473 2.24556,-11.79017 4.09375,-19.71289 1.33126,-5.70678 2.92295,-12.14491 4.66992,-18.68555 1.74697,-6.54063 3.64755,-13.18411 5.5957,-19.30078 1.94816,-6.11666 3.94437,-11.706 6.11133,-17.14648 2.16696,-5.44049 4.50608,-10.73197 7.14063,-16.24609 2.63454,-5.51413 5.56446,-11.25315 8.68945,-17.00782 3.12499,-5.75466 6.4448,-11.52412 9.85547,-17.09961 3.41067,-5.57548 6.91317,-10.95678 10.68164,-16.30273 3.76847,-5.345949 7.80216,-10.656029 12.27539,-16.087892 4.47323,-5.431863 9.42631,-11.028631 14.60352,-16.548828 5.1772,-5.520197 10.57987,-10.963649 15.95117,-16.089844 5.3713,-5.126194 10.73287,-9.957828 16.57422,-14.808594 5.84134,-4.850765 12.16219,-9.721901 19.45312,-14.929687 6.21327,-4.438032 13.38432,-9.209596 20.70703,-14.033203 z"
           id="path1198" />
        <path
           inkscape:connector-curvature="0"
           style="opacity:1;fill:url(#radialGradient1427);fill-opacity:1;fill-rule:evenodd;stroke:none;stroke-width:1.99602258;stroke-linecap:round;stroke-linejoin:round;stroke-miterlimit:4;stroke-dasharray:none;stroke-dashoffset:0;stroke-opacity:1;paint-order:markers fill stroke"
           d="m 692.68945,128.01758 c -1.88735,-2.98037 -3.6673,-5.89992 -5.95312,-9.12696 -3.47208,-4.90174 -7.55701,-10.39636 -11.92774,-16.07421 -4.37072,-5.67786 -9.02674,-11.538753 -13.64257,-17.175785 -4.61584,-5.637032 -9.18992,-11.05088 -13.82618,-16.253906 -4.63625,-5.203027 -9.33445,-10.196509 -14.19531,-14.996094 -4.86086,-4.799585 -9.8854,-9.405107 -15.50391,-14.179687 -5.61849,-4.774581 -11.83073,-9.717892 -19.06835,-15.19336 -5.40268,-4.087275 -11.78928,-8.684404 -18.1211,-13.253906 h -7.35547 c -7.32271,4.823607 -14.49376,9.595171 -20.70703,14.033203 -7.29093,5.207786 -13.61178,10.078922 -19.45312,14.929687 -5.84135,4.850767 -11.20292,9.6824 -16.57422,14.808594 -5.3713,5.126195 -10.77397,10.569647 -15.95117,16.089844 -5.17721,5.520197 -10.13029,11.116965 -14.60352,16.548828 -4.47323,5.431863 -8.50692,10.741941 -12.27539,16.087892 -3.76847,5.34595 -7.27097,10.72725 -10.68164,16.30273 -3.41067,5.57549 -6.73048,11.34495 -9.85547,17.09961 -3.12499,5.75467 -6.05491,11.49369 -8.68945,17.00782 -2.63455,5.51412 -4.97367,10.8056 -7.14063,16.24609 -2.16696,5.44048 -4.16317,11.02982 -6.11133,17.14648 -1.94815,6.11667 -3.84873,12.76015 -5.5957,19.30078 -1.74697,6.54064 -3.33866,12.97877 -4.66992,18.68555 -1.84819,7.92272 -2.90303,13.62816 -4.09375,19.71289 h 161.20508 c 0.74159,-0.50099 1.49625,-0.98318 2.23633,-1.48633 7.65579,-5.2048 15.22781,-10.53073 22.6289,-16.09961 7.4011,-5.56887 14.6318,-11.3806 21.49219,-17.28125 6.86039,-5.90064 13.34926,-11.89096 19.26953,-17.81836 2.96014,-2.96369 5.78029,-5.91313 8.47852,-8.85546 2.69822,-2.94233 5.27501,-5.87858 7.75,-8.81055 4.94998,-5.86394 9.49215,-11.71692 13.78125,-17.60547 4.2891,-5.88855 8.34696,-11.84088 12.27734,-18.05664 2.34776,-3.7129 4.59804,-7.78787 6.87695,-11.73242 z"
           id="path1208" />
        <path
           inkscape:connector-curvature="0"
           style="opacity:1;fill:url(#linearGradient1429);fill-opacity:1;fill-rule:evenodd;stroke:none;stroke-width:1.99602258;stroke-linecap:round;stroke-linejoin:round;stroke-miterlimit:4;stroke-dasharray:none;stroke-dashoffset:0;stroke-opacity:1;paint-order:markers fill stroke"
           d="m 692.68945,128.01758 c -2.27891,3.94455 -4.52919,8.01952 -6.87695,11.73242 -3.93038,6.21576 -7.98824,12.16809 -12.27734,18.05664 -4.2891,5.88855 -8.83127,11.74153 -13.78125,17.60547 -2.47499,2.93197 -5.05178,5.86822 -7.75,8.81055 -2.69823,2.94233 -5.51838,5.89177 -8.47852,8.85546 -5.92027,5.9274 -12.40914,11.91772 -19.26953,17.81836 -6.86039,5.90065 -14.09109,11.71238 -21.49219,17.28125 -7.40109,5.56888 -14.97311,10.89481 -22.6289,16.09961 -0.74008,0.50315 -1.49474,0.98534 -2.23633,1.48633 h 151.7207 c -0.13535,-3.86637 -0.1795,-7.82174 -0.47266,-11.5332 -0.26009,-3.29286 -0.59352,-6.52768 -1.01757,-9.76172 -0.42406,-3.23404 -0.93915,-6.467 -1.56641,-9.75586 -0.62726,-3.28886 -1.36662,-6.6345 -2.23633,-10.0918 -0.86971,-3.45729 -1.87008,-7.02626 -3.02148,-10.76562 -2.3028,-7.47872 -5.20692,-15.63481 -8.25586,-23.49024 -3.04894,-7.85543 -6.24179,-15.40984 -9.11914,-21.68554 -2.87736,-6.2757 -5.43973,-11.27286 -8.15039,-15.92578 -0.92612,-1.58971 -2.11038,-3.18962 -3.08985,-4.73633 z"
           id="path1201" />
        <path
           inkscape:connector-curvature="0"
           style="opacity:1;fill:url(#radialGradient1431);fill-opacity:1;fill-rule:evenodd;stroke:none;stroke-width:1.99602258;stroke-linecap:round;stroke-linejoin:round;stroke-miterlimit:4;stroke-dasharray:none;stroke-dashoffset:0;stroke-opacity:1;paint-order:markers fill stroke"
           d="M 733.03711,11.763672 H 580.45117 c 6.33182,4.569502 12.71842,9.166631 18.1211,13.253906 7.23762,5.475468 13.44986,10.418779 19.06835,15.19336 5.61851,4.77458 10.64305,9.380102 15.50391,14.179687 4.86086,4.799585 9.55906,9.793067 14.19531,14.996094 4.63626,5.203026 9.21034,10.616874 13.82618,16.253906 4.61583,5.637032 9.27185,11.497925 13.64257,17.175785 4.37073,5.67785 8.45566,11.17247 11.92774,16.07421 2.28582,3.22704 4.06577,6.14659 5.95312,9.12696 1.53621,-2.65901 3.11497,-5.11125 4.63672,-7.9082 3.77923,-6.94615 7.54963,-14.38757 11.07617,-21.966802 1.76328,-3.789616 3.46558,-7.613602 5.07618,-11.427734 1.6106,-3.814132 3.13103,-7.619663 4.52929,-11.369141 1.39826,-3.749478 2.67665,-7.44884 3.84766,-11.085937 1.171,-3.637098 2.23396,-7.211915 3.19726,-10.708985 1.92662,-6.994139 3.45676,-13.679118 4.66993,-19.947265 1.21317,-6.268148 2.10916,-12.11828 2.8457,-17.757813 0.18224,-1.39538 0.30356,-2.709147 0.46875,-4.082031 z"
           id="path1211" />
        <path
           inkscape:connector-curvature="0"
           style="opacity:1;fill:url(#linearGradient1344);fill-opacity:1;fill-rule:evenodd;stroke:none;stroke-width:1.99602258;stroke-linecap:round;stroke-linejoin:round;stroke-miterlimit:4;stroke-dasharray:none;stroke-dashoffset:0;stroke-opacity:1;paint-order:markers fill stroke"
           d="m 733.03711,11.763672 c -0.16519,1.372884 -0.28651,2.686651 -0.46875,4.082031 -0.73654,5.639533 -1.63253,11.489665 -2.8457,17.757813 -1.21317,6.268147 -2.74331,12.953126 -4.66993,19.947265 -0.9633,3.49707 -2.02626,7.071887 -3.19726,10.708985 -1.17101,3.637097 -2.4494,7.336459 -3.84766,11.085937 -1.39826,3.749478 -2.91869,7.555009 -4.52929,11.369141 -1.6106,3.814132 -3.3129,7.638118 -5.07618,11.427734 -3.52654,7.579232 -7.29694,15.020652 -11.07617,21.966802 -1.52175,2.79695 -3.10051,5.24919 -4.63672,7.9082 0.97947,1.54671 2.16373,3.14662 3.08985,4.73633 2.71066,4.65292 5.27303,9.65008 8.15039,15.92578 2.87735,6.2757 6.0702,13.83011 9.11914,21.68554 3.04894,7.85543 5.95306,16.01152 8.25586,23.49024 1.1514,3.73936 2.15177,7.30833 3.02148,10.76562 0.86971,3.4573 1.60907,6.80294 2.23633,10.0918 0.62726,3.28886 1.14235,6.52182 1.56641,9.75586 0.42405,3.23404 0.75748,6.46886 1.01757,9.76172 0.29316,3.71146 0.33731,7.66683 0.47266,11.5332 h 8.08984 V 11.763672 Z"
           id="rect1183" />
        <path
           inkscape:connector-curvature="0"
           transform="translate(413.70898,11.763671)"
           id="path1295"
           d="m 161.61523,76.025391 c -1.38423,0.01453 -2.7803,0.09818 -4.18554,0.255859 -2.81049,0.315367 -5.5218,0.908142 -8.11133,1.748047 -2.58953,0.839905 -5.05689,1.926782 -7.37695,3.230469 -2.32007,1.303686 -4.494,2.824538 -6.4961,4.53125 -2.00209,1.706711 -3.83313,3.599457 -5.46875,5.648437 -1.63562,2.048981 -3.07624,4.253492 -4.29687,6.583985 -1.22063,2.330492 -2.22138,4.786642 -2.97852,7.337892 -0.75714,2.55125 -1.27048,5.19891 -1.51562,7.91015 -0.24514,2.71125 -0.22162,5.48639 0.0937,8.29688 0.31536,2.81049 0.90814,5.52185 1.74804,8.11133 0.83991,2.58948 1.92679,5.05697 3.23047,7.37695 1.30369,2.31998 2.82454,4.49411 4.53125,6.49609 1.70671,2.00199 3.59946,3.8313 5.64844,5.4668 2.04898,1.6355 4.25349,3.07636 6.58398,4.29688 2.3305,1.22051 4.78665,2.22146 7.3379,2.97851 2.55124,0.75705 5.1989,1.27054 7.91015,1.51563 2.71125,0.24508 5.48639,0.22161 8.29688,-0.0937 2.81049,-0.31537 5.52179,-0.9082 8.11132,-1.74805 2.58954,-0.83985 5.05689,-1.92687 7.37696,-3.23047 2.32007,-1.30359 4.49399,-2.82465 6.49609,-4.53125 2.0021,-1.7066 3.83313,-3.59762 5.46875,-5.64648 1.63562,-2.04886 3.07624,-4.25556 4.29688,-6.58594 1.22063,-2.33038 2.22137,-4.78478 2.97851,-7.33594 0.75714,-2.55115 1.27049,-5.19896 1.51563,-7.91015 0.24514,-2.7112 0.22161,-5.48639 -0.0937,-8.29688 -0.29566,-2.63483 -0.83539,-5.18306 -1.59375,-7.625 -0.75836,-2.44194 -1.73526,-4.77724 -2.90625,-6.986328 -1.171,-2.209088 -2.53675,-4.292243 -4.07032,-6.228515 -1.53356,-1.936272 -3.23595,-3.726116 -5.08203,-5.349609 -1.84607,-1.623494 -3.83484,-3.080811 -5.94336,-4.351563 -2.10851,-1.270752 -4.33536,-2.354373 -6.65625,-3.232422 -2.32089,-0.878049 -4.73555,-1.55071 -7.21875,-1.996094 -2.4832,-0.445383 -5.03541,-0.663963 -7.63086,-0.636718 z"
           style="opacity:1;fill:url(#radialGradient1396);fill-opacity:1;fill-rule:evenodd;stroke:none;stroke-width:2.12680531;stroke-linecap:round;stroke-linejoin:round;stroke-miterlimit:4;stroke-dasharray:none;stroke-dashoffset:0;stroke-opacity:1;paint-order:markers fill stroke" />
        <path
           inkscape:connector-curvature="0"
           transform="translate(413.70898,11.763671)"
           id="path1293"
           d="m 161.27148,39.240234 c -2.62686,0.02758 -5.27659,0.189043 -7.94336,0.488282 -2.66676,0.299238 -5.2878,0.729861 -7.85546,1.285156 -2.56766,0.555295 -5.08201,1.23431 -7.53907,2.03125 -2.45705,0.79694 -4.85646,1.712154 -7.1914,2.736328 -2.33495,1.024174 -4.60531,2.157535 -6.80664,3.394531 -2.20134,1.236996 -4.33246,2.578266 -6.38867,4.013672 -2.05622,1.435407 -4.0379,2.966532 -5.9375,4.585938 -1.89961,1.619405 -3.71774,3.326241 -5.44922,5.115234 -1.73148,1.788993 -3.37588,3.659347 -4.92774,5.603516 -1.551855,1.944168 -3.010362,3.961941 -4.371092,6.046875 -1.36073,2.084933 -2.623149,4.237932 -3.78125,6.449218 -1.158101,2.211287 -2.212282,4.48146 -3.15625,6.804688 -0.943968,2.323227 -1.777761,4.698383 -2.496094,7.11914 -0.718333,2.420758 -1.32154,4.88675 -1.802734,7.390628 -0.481194,2.50387 -0.841666,5.04656 -1.074219,7.61914 -0.232553,2.57258 -0.338138,5.17585 -0.310547,7.80273 0.02759,2.62688 0.189043,5.2766 0.488282,7.94336 0.299219,2.66659 0.72989,5.28601 1.285156,7.85352 0.555266,2.56751 1.234347,5.08408 2.03125,7.54101 0.796903,2.45693 1.712199,4.85461 2.736328,7.18946 1.024129,2.33484 2.157585,4.60538 3.394531,6.80664 1.236946,2.20125 2.576366,4.33251 4.011719,6.38867 1.435353,2.05616 2.96659,4.03794 4.58594,5.9375 1.61935,1.89956 3.32825,3.71777 5.11718,5.44922 1.78894,1.73145 3.65745,3.37589 5.60157,4.92773 1.94411,1.55184 3.96395,3.01037 6.04883,4.3711 2.08487,1.36072 4.23603,2.62314 6.44726,3.78125 2.21124,1.1581 4.48151,2.21227 6.80469,3.15625 2.32318,0.94397 4.69842,1.77775 7.11914,2.49609 2.42072,0.71834 4.88678,1.32153 7.39062,1.80273 2.50385,0.48121 5.04658,0.84166 7.61915,1.07422 2.57256,0.23256 5.17586,0.33814 7.80273,0.31055 2.62687,-0.0276 5.2766,-0.18904 7.94336,-0.48828 2.66676,-0.29924 5.28781,-0.72984 7.85547,-1.28516 2.56765,-0.55531 5.08201,-1.23623 7.53906,-2.0332 2.45705,-0.79698 4.85647,-1.71016 7.19141,-2.73438 2.33494,-1.02422 4.60531,-2.15943 6.80664,-3.39648 2.20132,-1.23705 4.33246,-2.57625 6.38867,-4.01172 2.05621,-1.43546 4.0379,-2.96647 5.9375,-4.58594 1.89959,-1.61946 3.71774,-3.32814 5.44922,-5.11718 1.73147,-1.78905 3.37588,-3.65931 4.92773,-5.60352 1.55185,-1.94421 3.01037,-3.96191 4.3711,-6.04688 1.36072,-2.08496 2.62315,-4.23596 3.78125,-6.44726 1.1581,-2.2113 2.21228,-4.48147 3.15625,-6.80469 0.94396,-2.32322 1.77775,-4.70037 2.49609,-7.12109 0.71834,-2.42073 1.32153,-4.88681 1.80273,-7.39063 0.48121,-2.50381 0.84166,-5.0447 1.07422,-7.61718 0.23257,-2.57249 0.33813,-5.17599 0.31055,-7.80274 -0.0276,-2.62674 -0.18906,-5.27677 -0.48828,-7.94336 -0.28052,-2.49992 -0.67764,-4.95792 -1.1836,-7.37109 -0.50596,-2.413171 -1.12031,-4.780726 -1.83984,-7.097658 -0.71953,-2.316932 -1.54362,-4.583707 -2.46484,-6.794922 -0.92122,-2.211215 -1.93974,-4.366874 -3.05078,-6.462891 -1.11104,-2.096016 -2.31453,-4.132178 -3.60352,-6.103515 -1.28899,-1.971338 -2.66408,-3.877666 -4.11914,-5.714844 -1.45506,-1.837178 -2.99036,-3.60529 -4.59961,-5.298828 -1.60925,-1.693538 -3.29139,-3.313098 -5.04297,-4.853516 -1.75157,-1.540417 -3.5711,-3.003043 -5.45312,-4.380859 -1.88203,-1.377816 -3.82753,-2.671219 -5.82813,-3.876953 -2.0006,-1.205734 -4.05676,-2.323485 -6.16406,-3.347656 -2.1073,-1.024172 -4.26467,-1.953982 -6.4668,-2.78711 -2.20212,-0.833128 -4.44929,-1.568568 -6.73437,-2.201172 -2.28508,-0.632603 -4.60869,-1.163338 -6.96485,-1.585937 -2.35615,-0.422599 -4.74479,-0.738293 -7.16015,-0.941407 -2.41536,-0.203113 -4.85763,-0.29343 -7.32032,-0.267578 z m 0.34375,36.785157 c 2.59545,-0.02724 5.14766,0.191335 7.63086,0.636718 2.4832,0.445384 4.89786,1.118045 7.21875,1.996094 2.32089,0.878049 4.54774,1.96167 6.65625,3.232422 2.10852,1.270752 4.09729,2.728069 5.94336,4.351563 1.84608,1.623493 3.54847,3.413337 5.08203,5.349609 1.53357,1.936272 2.89932,4.019427 4.07032,6.228515 1.17099,2.209088 2.14789,4.544388 2.90625,6.986328 0.75836,2.44194 1.29809,4.99017 1.59375,7.625 0.31536,2.81049 0.33889,5.58568 0.0937,8.29688 -0.24514,2.71119 -0.75849,5.359 -1.51563,7.91015 -0.75714,2.55116 -1.75788,5.00556 -2.97851,7.33594 -1.22064,2.33038 -2.66126,4.53708 -4.29688,6.58594 -1.63562,2.04886 -3.46665,3.93988 -5.46875,5.64648 -2.0021,1.7066 -4.17602,3.22766 -6.49609,4.53125 -2.32007,1.3036 -4.78742,2.39062 -7.37696,3.23047 -2.58953,0.83985 -5.30083,1.43268 -8.11132,1.74805 -2.81049,0.31536 -5.58563,0.33883 -8.29688,0.0937 -2.71125,-0.24509 -5.35891,-0.75858 -7.91015,-1.51563 -2.55125,-0.75705 -5.0074,-1.758 -7.3379,-2.97851 -2.33049,-1.22052 -4.535,-2.66138 -6.58398,-4.29688 -2.04898,-1.6355 -3.94173,-3.46481 -5.64844,-5.4668 -1.70671,-2.00198 -3.22756,-4.17611 -4.53125,-6.49609 -1.30368,-2.31998 -2.39056,-4.78747 -3.23047,-7.37695 -0.8399,-2.58948 -1.43268,-5.30084 -1.74804,-8.11133 -0.31537,-2.81049 -0.33889,-5.58563 -0.0937,-8.29688 0.24514,-2.71124 0.75848,-5.3589 1.51562,-7.91015 0.75714,-2.55125 1.75789,-5.0074 2.97852,-7.337892 1.22063,-2.330493 2.66125,-4.535004 4.29687,-6.583985 1.63562,-2.04898 3.46666,-3.941726 5.46875,-5.648437 2.0021,-1.706712 4.17603,-3.227564 6.4961,-4.53125 2.32006,-1.303687 4.78742,-2.390564 7.37695,-3.230469 2.58953,-0.839905 5.30084,-1.43268 8.11133,-1.748047 1.40524,-0.157683 2.80131,-0.241329 4.18554,-0.255859 z"
           style="opacity:1;fill:url(#radialGradient1368);fill-opacity:1;fill-rule:evenodd;stroke:none;stroke-width:2.12680531;stroke-linecap:round;stroke-linejoin:round;stroke-miterlimit:4;stroke-dasharray:none;stroke-dashoffset:0;stroke-opacity:1;paint-order:markers fill stroke" />
        <path
           inkscape:connector-curvature="0"
           id="path1291"
           d="m 637.3164,11.763671 c -0.0222,0.198528 -0.0933,0.382471 -0.11133,0.582031 -0.17091,1.893942 -0.15429,3.833389 0.0664,5.796875 0.22025,1.962825 0.6341,3.857588 1.2207,5.666016 0.58661,1.808428 1.34534,3.530214 2.25586,5.15039 0.91052,1.620177 1.97207,3.139037 3.16406,4.53711 1.192,1.398072 2.51428,2.676244 3.94532,3.818359 1.43103,1.142115 2.97197,2.147696 4.59961,3 1.62764,0.852304 3.34319,1.551439 5.125,2.080078 1.7818,0.52864 3.6299,0.885519 5.52343,1.056641 1.89354,0.171122 3.8321,0.155797 5.79493,-0.06445 1.96282,-0.220249 3.85748,-0.634154 5.66601,-1.220703 1.80853,-0.58655 3.53003,-1.345432 5.15039,-2.25586 1.62036,-0.910427 3.13881,-1.972179 4.53711,-3.164062 1.3983,-1.191883 2.67795,-2.514397 3.82031,-3.945313 1.14236,-1.430916 2.14747,-2.970129 3,-4.597656 0.85254,-1.627527 1.55126,-3.343285 2.08008,-5.125 0.52883,-1.781715 0.88737,-3.629956 1.0586,-5.523437 0.17111,-1.892206 0.15537,-3.829546 -0.0645,-5.791016 z"
           style="opacity:1;fill:url(#radialGradient1394);fill-opacity:1;fill-rule:evenodd;stroke:none;stroke-width:2.12680531;stroke-linecap:round;stroke-linejoin:round;stroke-miterlimit:4;stroke-dasharray:none;stroke-dashoffset:0;stroke-opacity:1;paint-order:markers fill stroke" />
        <path
           inkscape:connector-curvature="0"
           id="path1289"
           d="m 514.0996,245.76367 c 0.0223,-0.19913 0.0932,-0.38382 0.11133,-0.58398 0.17123,-1.89359 0.1558,-3.8321 -0.0644,-5.79493 -0.20648,-1.84014 -0.5836,-3.62074 -1.11328,-5.32617 -0.52968,-1.70543 -1.2114,-3.3361 -2.0293,-4.8789 -0.8179,-1.54281 -1.77261,-2.99735 -2.84375,-4.34961 -1.07114,-1.35227 -2.25942,-2.60251 -3.54883,-3.73633 -1.2894,-1.13383 -2.67965,-2.15159 -4.15234,-3.03906 -1.47269,-0.88748 -3.02745,-1.64459 -4.64844,-2.25782 -1.62099,-0.61322 -3.3067,-1.08152 -5.04101,-1.39258 -1.73432,-0.31105 -3.51742,-0.46432 -5.33008,-0.44531 -0.96675,0.0101 -1.94046,0.0696 -2.92188,0.17969 -1.96317,0.22029 -3.85728,0.63408 -5.66601,1.2207 -1.80873,0.58663 -3.53192,1.34534 -5.15235,2.25586 -1.62042,0.91053 -3.13883,1.97402 -4.53711,3.16602 -1.39827,1.19199 -2.67608,2.51233 -3.81835,3.94336 -1.14227,1.43103 -2.14759,2.97198 -3,4.59961 -0.85242,1.62763 -1.55332,3.3432 -2.08204,5.125 -0.52871,1.78179 -0.88548,3.62991 -1.05664,5.52343 -0.17104,1.89226 -0.15537,3.82955 0.0645,5.79102 z"
           style="opacity:1;fill:url(#radialGradient1392);fill-opacity:1;fill-rule:evenodd;stroke:none;stroke-width:2.12680531;stroke-linecap:round;stroke-linejoin:round;stroke-miterlimit:4;stroke-dasharray:none;stroke-dashoffset:0;stroke-opacity:1;paint-order:markers fill stroke" />
        <path
           inkscape:connector-curvature="0"
           id="path1287"
           d="m 539.875,245.76367 c 0.0709,-1.22628 0.15952,-2.44847 0.14648,-3.69141 -0.0193,-1.83482 -0.13083,-3.68613 -0.33984,-5.54882 -0.3919,-3.49255 -1.10613,-6.87055 -2.11133,-10.10743 -1.00521,-3.23687 -2.30136,-6.33349 -3.85352,-9.26172 -1.55215,-2.92822 -3.36179,-5.6873 -5.39453,-8.2539 -2.03274,-2.5666 -4.28935,-4.93979 -6.73633,-7.0918 -2.44697,-2.15201 -5.08406,-4.08314 -7.8789,-5.76758 -2.79485,-1.68443 -5.74591,-3.12126 -8.82227,-4.28515 -3.07636,-1.1639 -6.27684,-2.05611 -9.56836,-2.64649 -3.29152,-0.59037 -6.67491,-0.87987 -10.11523,-0.84375 -1.83484,0.0193 -3.68614,0.13279 -5.54883,0.3418 -1.86269,0.20901 -3.69284,0.5106 -5.48633,0.89844 -1.79348,0.38784 -3.54938,0.86136 -5.26562,1.41797 -1.71625,0.5566 -3.39248,1.19485 -5.02344,1.91015 -1.63096,0.71531 -3.21821,1.5091 -4.75586,2.37305 -1.53765,0.86394 -3.0266,1.79826 -4.46289,2.80078 -1.4363,1.00252 -2.81958,2.07209 -4.14649,3.20313 -2.65381,2.26206 -5.08001,4.77059 -7.24804,7.48632 -2.16804,2.71574 -4.07735,5.63962 -5.69532,8.72852 -0.80898,1.54445 -1.54567,3.1293 -2.20507,4.75195 -0.65941,1.62265 -1.24235,3.28188 -1.74414,4.97266 -0.5018,1.69078 -0.92167,3.41325 -1.25782,5.16211 -0.33615,1.74885 -0.58753,3.5254 -0.75,5.32226 -0.16246,1.79687 -0.23605,3.61442 -0.21679,5.44922 0.009,0.88608 0.11099,1.7865 0.16406,2.67969 h 25.71094 c -0.21983,-1.96147 -0.2355,-3.89876 -0.0645,-5.79102 0.17116,-1.89352 0.52793,-3.74164 1.05664,-5.52343 0.52872,-1.7818 1.22962,-3.49737 2.08204,-5.125 0.85241,-1.62763 1.85773,-3.16858 3,-4.59961 1.14227,-1.43103 2.42008,-2.75137 3.81835,-3.94336 1.39828,-1.192 2.91669,-2.25549 4.53711,-3.16602 1.62043,-0.91052 3.34362,-1.66923 5.15235,-2.25586 1.80873,-0.58662 3.70284,-1.00041 5.66601,-1.2207 0.98142,-0.11012 1.95513,-0.16955 2.92188,-0.17969 1.81266,-0.019 3.59576,0.13426 5.33008,0.44531 1.73431,0.31106 3.42002,0.77936 5.04101,1.39258 1.62099,0.61323 3.17575,1.37034 4.64844,2.25782 1.47269,0.88747 2.86294,1.90523 4.15234,3.03906 1.28941,1.13382 2.47769,2.38406 3.54883,3.73633 1.07114,1.35226 2.02585,2.8068 2.84375,4.34961 0.8179,1.5428 1.49962,3.17347 2.0293,4.8789 0.52968,1.70543 0.9068,3.48603 1.11328,5.32617 0.22025,1.96283 0.23568,3.90134 0.0644,5.79493 -0.0181,0.20016 -0.0891,0.38485 -0.11133,0.58398 z"
           style="opacity:1;fill:url(#radialGradient1376);fill-opacity:1;fill-rule:evenodd;stroke:none;stroke-width:2.12680531;stroke-linecap:round;stroke-linejoin:round;stroke-miterlimit:4;stroke-dasharray:none;stroke-dashoffset:0;stroke-opacity:1;paint-order:markers fill stroke" />
        <path
           inkscape:connector-curvature="0"
           id="rect1282"
           d="m 611.54687,11.763674 c -0.071,1.227869 -0.15968,2.452694 -0.14648,3.697266 0.0195,1.834981 0.13257,3.685985 0.34179,5.548828 0.12974,1.156185 0.30216,2.296172 0.5,3.427734 -10e-4,-7.85e-4 -0.003,-0.0012 -0.004,-0.002 0.59271,3.357976 1.48687,6.597404 2.65234,9.691406 1.16547,3.094003 2.60231,6.04268 4.27734,8.822266 1.67504,2.779586 3.58953,5.389961 5.71094,7.804687 2.12141,2.414727 4.45048,4.633389 6.95508,6.632813 2.5046,1.999424 5.18516,3.778822 8.00977,5.3125 2.8246,1.533678 5.79163,2.822355 8.87304,3.839844 3.08142,1.017489 6.27574,1.763987 9.55078,2.214843 3.27505,0.450857 6.63163,0.605672 10.03711,0.439454 10e-4,9.7e-4 0.003,9.82e-4 0.004,0.002 1.14789,-0.05775 2.3002,-0.143629 3.45703,-0.273438 1.86269,-0.209013 3.69285,-0.510583 5.48633,-0.898437 1.79348,-0.387855 3.54938,-0.861338 5.26562,-1.417969 1.71625,-0.556632 3.39248,-1.196766 5.02344,-1.912109 1.63096,-0.715344 3.21821,-1.507104 4.75586,-2.371094 1.53765,-0.86399 3.0266,-1.800162 4.46289,-2.802735 1.4363,-1.002572 2.81958,-2.070082 4.14649,-3.201171 2.65381,-2.262179 5.08001,-4.772424 7.24804,-7.488282 2.16804,-2.715857 4.07735,-5.637545 5.69531,-8.726562 0.80899,-1.544509 1.54568,-3.131205 2.20508,-4.753906 0.65941,-1.622702 1.24235,-3.281828 1.74414,-4.972657 0.5018,-1.690828 0.92167,-3.413218 1.25782,-5.162109 0.33615,-1.748891 0.58753,-3.525377 0.75,-5.322266 0.16246,-1.796889 0.23605,-3.614397 0.21679,-5.449219 -0.009,-0.886086 -0.11099,-1.786494 -0.16406,-2.679687 h -25.71094 c 0.21983,1.96147 0.23557,3.89881 0.0645,5.791016 -0.17123,1.893481 -0.52977,3.741722 -1.0586,5.523437 -0.52882,1.781715 -1.22754,3.497473 -2.08008,5.125 -0.85253,1.627527 -1.85764,3.16674 -3,4.597656 -1.14236,1.430916 -2.42201,2.75343 -3.82031,3.945313 -1.3983,1.191883 -2.91675,2.253635 -4.53711,3.164062 -1.62036,0.910428 -3.34186,1.66931 -5.15039,2.25586 -1.80853,0.586549 -3.70319,1.000454 -5.66601,1.220703 -1.96283,0.22025 -3.90139,0.235575 -5.79493,0.06445 -1.89353,-0.171122 -3.74163,-0.528001 -5.52343,-1.056641 -1.78181,-0.528639 -3.49736,-1.227774 -5.125,-2.080078 -1.62764,-0.852304 -3.16858,-1.857885 -4.59961,-3 -1.43104,-1.142115 -2.75332,-2.420287 -3.94532,-3.818359 -1.19199,-1.398073 -2.25354,-2.916933 -3.16406,-4.53711 -0.91052,-1.620176 -1.66925,-3.341962 -2.25586,-5.15039 -0.5866,-1.808428 -1.00045,-3.703191 -1.2207,-5.666016 -0.2207,-1.963486 -0.23732,-3.902933 -0.0664,-5.796875 0.018,-0.19956 0.0892,-0.383503 0.11133,-0.582031 z"
           style="opacity:1;fill:url(#radialGradient1384);fill-opacity:1;fill-rule:evenodd;stroke:none;stroke-width:2.12680531;stroke-linecap:round;stroke-linejoin:round;stroke-miterlimit:4;stroke-dasharray:none;stroke-dashoffset:0;stroke-opacity:1;paint-order:markers fill stroke" />
      </g>
    </g>
  </g>
  <g
     id="surface1">
    <g
       id="g85"
       transform="matrix(2.5399697,0,0,2.5399697,825.23419,659.03447)"
       style="opacity:1"
       clip-path="url(#clipPath1179)">
      <g
         display="none"
         id="Siatka"
         style="display:none">
</g>
      <g
         id="Warstwa_1">
</g>
      <g
         id="Pulpit">
</g>
      <g
         id="Prowadnice">
</g>
      <g
         id="Page_1">
	<g
   id="Warstwa_1_1_">
		<g
   id="g58">
			
			
			
			
			
			
			
			
		<g
   id="g1136"
   transform="translate(388,69.999998)" />
</g>

	</g>

</g>
    </g>
  </g>
</svg>
