<svg xmlns="http://www.w3.org/2000/svg" xmlns:xlink="http://www.w3.org/1999/xlink" width="324" height="234"><defs><linearGradient id="h"><stop offset="0" stop-color="#fff"/><stop offset="1" stop-color="#ffe064"/></linearGradient><linearGradient id="g"><stop offset="0" stop-color="#ffd1fd"/><stop offset="1" stop-color="#a3009c"/></linearGradient><linearGradient id="f"><stop offset="0" stop-color="#fff"/><stop offset="1" stop-color="#7e7e7e"/></linearGradient><linearGradient id="e"><stop offset="0" stop-color="#fff"/><stop offset="1" stop-color="#7e92f8"/></linearGradient><linearGradient id="c"><stop offset="0" stop-color="#3036be"/><stop offset="1" stop-color="#6bc9fd"/></linearGradient><linearGradient id="d"><stop offset="0" stop-color="#9418b6"/><stop offset="1" stop-color="#fff"/></linearGradient><linearGradient id="b"><stop offset="0" stop-color="#3830be"/><stop offset="1" stop-color="#fff"/></linearGradient><linearGradient id="a"><stop offset="0" stop-color="#1828b6"/><stop offset="1" stop-color="#cdacf2"/></linearGradient><linearGradient xlink:href="#a" id="n" x1="765.9" x2="5113.6" y1="548.7" y2="-1398.6" gradientTransform="translate(-57 158) scale(.0745)" gradientUnits="userSpaceOnUse"/><linearGradient xlink:href="#b" id="j" x1="-4121.2" x2="12154.7" y1="-1128" y2="-1128" gradientUnits="userSpaceOnUse"/><linearGradient xlink:href="#c" id="l" x1="-4121.2" x2="197.7" y1="-2262.4" y2="-4134.4" gradientTransform="translate(307 402.5) scale(.0745)" gradientUnits="userSpaceOnUse"/><linearGradient xlink:href="#b" id="i" x1="-4121.2" x2="12154.7" y1="-1128" y2="-1128" gradientUnits="userSpaceOnUse"/><linearGradient xlink:href="#b" id="p" x1="-364" x2="-40" y1="-115.5" y2="-115.5" gradientTransform="translate(302.7 356) scale(1.3988)" gradientUnits="userSpaceOnUse"/><linearGradient xlink:href="#b" id="o" x1="-364" x2="-40" y1="-115.5" y2="-115.5" gradientTransform="translate(364 244.5)" gradientUnits="userSpaceOnUse"/><linearGradient xlink:href="#d" id="k" x1="97.8" x2="324" y1="234" y2="93.1" gradientUnits="userSpaceOnUse"/><radialGradient xlink:href="#e" id="t" cx="22.1" cy="145.2" r="22.1" fx="22.1" fy="145.2" gradientTransform="matrix(1 0 0 1.9337 0 -137.6)" gradientUnits="userSpaceOnUse"/><radialGradient xlink:href="#f" id="s" cx="481.9" cy="-118.5" r="27.9" fx="481.9" fy="-118.5" gradientTransform="matrix(.6157 0 0 .945 -85.4 187.8)" gradientUnits="userSpaceOnUse"/><radialGradient xlink:href="#g" id="q" cx="481.9" cy="-118.5" r="27.9" fx="481.9" fy="-118.5" gradientTransform="matrix(.8606 0 0 1.3208 -320.5 272.8)" gradientUnits="userSpaceOnUse"/><radialGradient xlink:href="#h" id="r" cx="481.9" cy="-118.5" r="27.9" fx="481.9" fy="-118.5" gradientTransform="matrix(.7062 0 0 1.0839 -181.4 222.8)" gradientUnits="userSpaceOnUse"/><filter id="m" width="1.1" height="1.4" x="0" y="-.2" color-interpolation-filters="sRGB"><feGaussianBlur stdDeviation="39.4"/></filter></defs><g fill="url(#i)" transform="translate(387.1 -850.3) scale(.0745)"><path fill="url(#j)" d="M146.4 97.4 0 150c43.8-15.7 83.3-30 126-45.2a4874.1 4874.1 0 0 0 20.4-7.4z" transform="translate(764.6 -2121) scale(13.4227)"/><path fill="url(#k)" fill-rule="evenodd" d="M324 93.1 97.8 234H324V93.1z" paint-order="markers fill stroke" transform="translate(-5196.4 11413.6) scale(13.4227)"/><path fill="url(#l)" fill-rule="evenodd" d="M0 0v234h97.8L324 93.1V0H0z" paint-order="markers fill stroke" transform="translate(-5196.4 11413.6) scale(13.4227)"/><path fill="#ce8bf1" d="M-4455.4 11584.1c-11 .1-20.7 15.7-44.4 62.4-69.3 136.6-188.7 416-178.5 417.7 5.7 1 14.9 2.2 20.4 2.8 5.6.6 33-29.4 61-66.8 59.3-79.5 174-192 161.3-158.4-4.6 12.4-26.8 70-49.2 128-34.3 89-38 107.1-24.2 115.9 26 16.5 28.2 14.2 49.7-54.3a2215.4 2215.4 0 0 1 68.7-175.1c40.7-92.7 45.8-112.1 32.4-123.3-18.4-15.2-27.3-9-137.2 96.7-39 37.4-70.6 63-70.5 57 .2-6 32.4-72.7 71.6-148.1 66.1-127.1 69.8-138.1 50.8-150a23.2 23.2 0 0 0-12-4.5zm-321.4 15.5c-31.4-.4-68.2 3-110.6 9.9-76.5 12.5-77.8 13.3-68.3 38.2 5.6 14.6 16.5 17 51.6 11.4l44.5-7-21.9 55.2c-12 30.4-48 121-80.2 201.2-54.6 136.6-63.6 184.4-33 174.2 7.2-2.4 33.5-56.4 58.6-120 29.2-74 49.6-111.9 56.6-105 14.6 14.7 143.1-32.5 193.9-71.3 43.9-33.5 62-90.8 41-130-20-37.2-63-56-132.2-56.8zm1446.7.7c-64.5.5-169.1 14-180 24.8-2.2 2.2-.7 12.8 3.4 23.4 6 15.6 16 17.9 51.4 12l44-7.5-21.7 54.8c-82.2 207.5-117.7 294-131.5 320.7-12 23.2-12.7 33.8-2.7 43.7 7.2 7.3 17.9 11.6 23.6 9.7 5.8-2 31-55.6 56.2-119.3 28.3-71.7 49.7-111.7 56.2-105.1 12.6 12.6 116.9-21.1 173.4-56 76-47 93.4-109.5 45.8-164.8-22-25.7-37.9-31.7-93.3-35.7-7.2-.5-15.6-.7-24.8-.7zm500.4 25.5c-6.5.1-12 9.7-23 32.6-16.4 34.5-17.1 43.7-4.2 59.2 13.7 16.5 17.6 14 36.8-23.5 19.3-37.6 19.8-43.7 4.2-59.2-5.8-5.9-10-9.2-13.8-9zm459.5 16.7c-9.3.6-17.6 14.4-36.6 51.6-26.1 51.4-36.4 61.2-70.7 67.6-41.6 7.8-46.1 13.5-30.6 38 5.6 8.8 17.6 11.4 30.1 6.6 15.4-6 19.2-3.8 14.4 8-3.5 9-28 65.8-54.2 126.5-39.2 90.5-45.3 113.4-33.8 127.3 19.2 23.1 25.7 21.7 57.5-12.5 15-16.2 59.2-52.3 98.1-80.2 39-27.9 70.8-55.5 70.8-61.4 0-29.6-39.7-19.7-98.3 24.5-35.2 26.6-61 41.2-57.4 32.4a6871 6871 0 0 1 42.6-96.6l36-80.7 78.2-7.7c43-4.3 78.1-9.6 78.1-11.8 0-2.2-3-12-6.8-21.9-5.7-14.6-18.4-16.5-70.1-10.4l-63.3 7.4 25.2-42.7c24-40.7 24.3-43.5 5-57.7-5.6-4.1-10-6.6-14.2-6.3zm-2397.2 1.2c44.8 0 88 27.2 88 55.3 0 35-57 77-148.8 109.5l-46 16.1 7.2-28.5c4-15.8 19.5-56.5 34.6-90.5 25.2-57.1 30.2-61.9 65-61.9zm1448.7 0c44.7 0 88 27.2 88 55.3 0 35-57 77-148.8 109.5l-46 16.1 7.2-28.5c4-15.8 19.5-56.5 34.6-90.5 25.2-57.1 30.2-61.9 65-61.9zm-588.4 3.9c-11 .1-23.5 15.7-41.5 51.2-24.3 48.1-35 58.2-68.5 64.5-21.9 4-39.7 9-39.7 11 0 20.8 16.6 35.7 34.6 31 12-3.2 22-2.7 22 1s-23.5 60.4-52.2 126c-43 98.1-49.8 122.2-38 136.2 12.3 15 18.4 13.5 49.3-11.8 19.4-16 67-52.6 106-81.6 73.6-54.8 82.2-67.3 53.4-78.4-10.3-4-41 11.9-76.1 39.3-32.4 25.2-60.3 44.5-62 42.8-1.7-1.7 14.4-43.4 35.8-92.7l39-89.6 77-9.5c42.4-5.2 78.5-10.8 80.2-12.5 1.7-1.7-.1-11.4-4-21.6-6-15.4-17.7-17.3-69.3-11.3l-62.1 7.4 24-47c13.1-25.8 21.7-47 19-47-2.8 0-12.8-3-22.3-6.6-1.5-.6-3-.9-4.6-.8zm949.2 69.2c-11.2 1-27.7 12.2-62.7 38.7-64.2 48.4-71.6 50.2-51.4 12.4 9-17 6.6-24-12-33.9-21-11.2-25.2-8-40.3 30.7a7307 7307 0 0 1-71.5 167.6c-52.4 119.8-55 140.8-17.7 141.3 6.4.1 24-31.1 39.2-69.4 32.1-81 110.2-171.7 193.6-225.2 51-32.8 55.3-38.6 40-53.9-5.7-5.7-10.5-8.8-17.2-8.3zm-1219.5 6.1c-66 0-180.8 164.4-193.5 277.2-9.4 83 36.9 117.4 108 80.5 92-47.8 183.2-279 132.3-335.2a73.6 73.6 0 0 0-46.8-22.5zm1433.3.2c-7-.2-136.2 304-139.2 327.6a18.8 18.8 0 0 0 14.8 20.1c10.5 2.2 31-19.6 53-56.1 34.4-57.1 183.7-213.9 170-178.6-3.6 9.4-27 68-52.1 130.2-41.6 103.4-44 114.4-26.8 127.3 24.3 18.4 26 15.9 70-104.7a2162 2162 0 0 1 70.2-169.1c29.3-59.8 31.1-69.2 16-84.3-18.6-18.7-18-19.1-135 89-30.4 28.2-52.6 43.6-49.3 34.3 3.3-9.4 15-39.2 26-66.2 16.8-41.6 17.4-50.8 4-59.3a71.4 71.4 0 0 0-21.6-10.2zm-898.6 1.1c-21.1.5-45.2 13.1-72.9 38.2-92.2 83.3-154.6 261.3-109 311.6 23.9 26.5 51.7 28.4 93.7 6.6 91.9-47.8 183.1-279 132.3-335.2-13.1-14.4-27.7-21.5-44.1-21.2zm757.1 15.8c-6.2-.8-9.6 3.6-13.4 13.8-4 11-34.7 81-68 155.6-33.2 74.5-58 142-54.9 150 9 23.3 38 16.5 46.8-11 4.4-14 34.4-84.7 66.7-157 55.4-124 57.6-132.2 37.8-144.5a42 42 0 0 0-15-6.9zm-765 29.7c17.3-.3 25.2 19.3 19.3 56.2-18.5 115.9-129.1 263.2-160 213.2-20.7-33.4 45.3-195.3 100.6-246.9 16.1-15 29.8-22.3 40.2-22.5zm-530.6 1.3c1.7.1 3.4.5 5 1 27.2 10.5 21 62.4-17.2 143.3-50 105.9-107.2 160.5-129.9 123.8-31.5-51 88.4-272 142-268.1z" filter="url(#m)"/></g><path fill="url(#n)" d="M41.7 234 324 76.7V31L.2 150 0 234Z"/><path fill="url(#o)" d="M324 24c-54 17.6-107.3 36.9-161.1 54.8-.9 8-4 16.8 6.2 10.5 51.8-19 103.7-37.7 154.9-58.4V24ZM162.9 78.8c-1-15-11-.7-10.5 3.7l10.5-3.7zm-11.3 4C107.3 98.3 61.8 110.5 17 124.8c-6.4 2.2-26 5.7-10.6 9.8 10.8 7-6.5 3.4-6.4 3.3 1.1 3.2-2.4 13 2.2 11.2l146.7-52.7c-1.4-4.8.6-9.5 2.7-13.8zm169-54.7c8 2.7-5.8.6 0 0zm-4.8 1.6c10.4 1.5-.9 3.5 0 0zm-7.4 1.3c9 1.2 10.3 5.7 0 0zm-5 2c9 .8 9.5 4.4 0 0zm-2.5 2c11.5 2-4.3 2 0 0zm-7.5 2.1c8.9-.2 9.8 4.5 0 0zm-3.5 2c12.4 1-.1 3.5 0 0zm-6 2c13.3 1.7-.9 3.1 0 0zm-6.5 2c14.3 1 .7 5 0 0zm-5.8 2c16.6 3.4-4.1 3.5 0 0zm-6.7 2.1c13.6 2.6 2 6.7 0 0zm-9.5 2.8c5.4-.6 14.4 5.3 3 1.5l-3-1.5zm-5 2.5c15.4 2.4 1 5.9 0 0zm-7.3 2.6c8 0 8.8 6-.2 1.7-1.7 0-.9-2 .2-1.7zm-7 3.1c8.3 1 8.2 4.8-.2 1.6-4-.7-1-1.5.2-1.6zM224.4 61c6.2-.7 15.7 5.3 3 1.5l-3-1.5zM219 64c7.9-1 8.8 6.6 1 2.2-.8 0-3.8-2.3-1-2.2zM209 67c7.3-.5 10.9 6.5 1.6 2.8-.9.1-4.7-2.7-1.6-2.8zm-8.8 3.6c8.2 0 10.1 6.2 1 2.5-1.4-.4-5-2.4-1-2.5zM189.8 74c8-.4 10.3 6.7.9 2.8-1.6.1-4.5-3-1-2.8zM324 76.7c-81.1 46-163.2 90.3-244.4 136.1l-38 21.2h56.2c75.4-47 151-93.8 226.2-140.9V76.7zm-144 1.5c9.2-.6 8.2 6.9 0 2-5.4-.7-1.8-2.3 0-2zM318.4 82c8.3.7 1.7 5.3-1.3.3zm-145.6.9c9 .8-1.3 5.7 0 0zm139 2.8c6.8-.7 12 6.8 2.2 2.5-.5 0-5.7-2-2.3-2.5zm-6 3.6c7.7-.4 9.6 7.5 1.5 2.6-.8-.2-5.2-2.3-1.5-2.6zm-171.3 1c11.3 2.1 5.6 7.9 0 0zm-7 2.1c7 .3 8.8 7.4 1 2.2-1 .5-3-2.3-1-2.2zm171 1.2c7-1 10.3 6.9 1.4 2.6-1.3-.3-6-2.4-1.3-2.6zm-178.2 1.2c12.6 3 4.1 8 0 0zM113 97c9 2.1 6.5 8.4-.6 2-1.6-.7-.9-2.3.6-2Zm177.7.9c7.8-.7 11.6 7.2 1.2 2.5-2.1.7-3.7-2.8-1.2-2.5zm-186.3 1.8c7 .3 10.5 8.7.9 2.8-1.3-.7-4.6-2.6-.9-2.8zm178.7 2.7c7.8-1 10.5 7.6 1.3 2.7-1.1-.4-5.3-2.4-1.3-2.7zm-188 .2c7.7-.6 10.3 9.3 1.7 3-1 1-4-3-1.7-3zm-8.2 2.7c9 1.7 8 8.4.5 3.4-2-1.2-4.8-2.6-.5-3.4zm187.7 1.4c6.9-.6 12.8 8.6 2 3.6-1.1-.2-6-3-2-3.6zM77 108.5c9.4.7 8.4 9.6.5 3.3-2-1.1-5-3.3-.5-3.3zm189.3 3.2c7.5-.4 12.6 7.6 2.3 4-2.6-.4-8.3-3.4-2.3-4zm-200 .2c7.8 1 11 9 1 3.8-1.5-.2-5.3-4.3-1-3.8zm-11.8 3.6c9.2 0 10.8 10.6 1 3.8-1.6-1.4-6.8-3.5-1-3.8zm201.8 1.8c9.4-1.3 11.4 9.2 1.6 3.6-1.5-.3-6.2-3.2-1.6-3.6zm-213 1.8c9 1.4 9 10.5 0 4.2-3.3-1.5-5-3.8 0-4.2zm203.6 3.4c7 .1 13.4 8.4 2.2 4.6-2.9-1-8-2.7-2.2-4.6zm-217.5.7c8.2.4 14.3 10 2.6 5.5-1.6-1.3-8.4-4.3-2.6-5.5ZM16 127.6c8.2.4 13.5 10.3 2.2 5.8-2-1.3-9.1-5.5-2.2-5.8zm220.6 1c7.3-.8 13.5 8.7 2.8 5-2.8-1-9.6-4.1-2.8-5zm-11.6 6.6c7.3-.2 15.2 7.8 3.2 5.1-2-.4-9.9-4.5-3.2-5zm-12.4 6.9c8.3-1.3 15 9.3 3.1 5.5-2.5-1.6-11.5-4-3.1-5.5zm-12 6.9c7 .1 14.5 9 3 6.4-3.4-1.5-12.2-4-3-6.4zm-14.9 8.1c7.2 0 18.4 7.6 5 7-2.7-1.3-13.4-4.7-5-7zm-14.2 8.3c5.2 1.3 17.5 5 6.3 8.3-3-1.1-17.9-6.5-6.3-8.3zm-16.3 8.9c8.5.5 16.2 10.2 3.2 7.9-4-2.2-14.2-5.2-3.2-7.9zm-17 10c6 1.2 17.4 7 5.5 9.7-4.6-2.4-19.6-6.4-5.4-9.6zm-19.3 11c7.2.3 19.3 7.9 5.4 9.5-4.7-1.9-20-7.3-5.4-9.5zm-20 10.7c6.2 3 18.2 8.7 4.4 11.9-8.2-4-18.2-7-4.5-11.9zm-21.6 13c9.1 3 18.6 9.9 4.5 13.5-7.7.8-22-10.4-6.9-12.8l2.4-.8Z"/><path fill="url(#p)" d="m22.5 126.7-1.1-1.6-.3 2.2 1.4-.6z"/><path fill="#fff" d="M55.2 12.7c-.8 0-1.5 1.2-3.3 4.7a239 239 0 0 0-13.3 31l1.5.3c.4 0 2.5-2.2 4.6-5 4.4-6 13-14.3 12-11.8L53 41.4c-2.5 6.7-2.8 8-1.8 8.7 2 1.2 2.1 1 3.7-4 .8-2.7 3.2-8.6 5.1-13.1 3-7 3.4-8.4 2.4-9.2-1.3-1.1-2-.7-10.2 7.2-2.9 2.8-5.2 4.7-5.2 4.3 0-.5 2.4-5.5 5.3-11 5-9.6 5.2-10.4 3.8-11.3l-.9-.3zm-24 1.2c-2.3 0-5 .2-8.2.7-5.7 1-5.8 1-5 2.8.4 1.1 1.2 1.3 3.8.9l3.3-.5-1.6 4-6 15c-4 10.3-4.8 13.8-2.5 13 .6-.1 2.5-4.1 4.4-8.9 2.2-5.5 3.7-8.3 4.2-7.8 1.1 1 10.7-2.4 14.5-5.3 3.2-2.5 4.6-6.8 3-9.7-1.5-2.8-4.7-4.2-9.8-4.2zm107.8 0c-4.8 0-12.6 1-13.4 1.9-.1.1 0 1 .3 1.7.4 1.2 1.2 1.3 3.8.9l3.3-.6-1.6 4.1c-6.2 15.5-8.8 22-9.8 24-1 1.6-1 2.4-.2 3.2.5.5 1.3.8 1.7.7.5-.2 2.4-4.1 4.2-8.9 2.1-5.3 3.7-8.3 4.2-7.8 1 1 8.7-1.6 13-4.2 5.6-3.5 6.9-8.2 3.3-12.3-1.6-1.9-2.8-2.3-7-2.6a24 24 0 0 0-1.8 0zm37.3 2c-.5 0-.9.6-1.7 2.3-1.2 2.6-1.3 3.3-.3 4.5 1 1.2 1.3 1 2.7-1.8 1.5-2.8 1.5-3.3.3-4.4-.4-.4-.7-.7-1-.7zm34.2 1.2c-.6 0-1.3 1-2.7 3.8-2 3.8-2.7 4.6-5.2 5-3.1.6-3.5 1-2.3 2.9.4.6 1.3.8 2.2.5 1.2-.5 1.5-.3 1.1.6l-4 9.4c-3 6.7-3.4 8.4-2.6 9.5 1.5 1.7 2 1.6 4.3-1 1.1-1.2 4.4-3.9 7.3-6 3-2 5.3-4 5.3-4.5 0-2.2-3-1.5-7.3 1.8-2.6 2-4.6 3-4.3 2.4l3.2-7.2 2.7-6 5.8-.6c3.2-.3 5.8-.7 5.8-.8l-.5-1.7c-.4-1-1.4-1.2-5.2-.7l-4.7.5 1.8-3.2c1.8-3 1.8-3.2.4-4.3-.4-.3-.7-.5-1-.4zM32 17c3.3 0 6.5 2 6.5 4.2 0 2.6-4.2 5.7-11 8.1L24 30.6l.5-2.1c.3-1.2 1.5-4.2 2.6-6.7C29 17.5 29.4 17 32 17zm107.9 0c3.3 0 6.5 2 6.5 4.2 0 2.6-4.2 5.7-11 8.1l-3.5 1.2.6-2.1a59 59 0 0 1 2.5-6.7c2-4.3 2.3-4.7 4.9-4.7zm-43.8.3c-.9 0-1.8 1.2-3.1 3.9-1.9 3.5-2.7 4.3-5.1 4.8-1.7.3-3 .6-3 .8 0 1.5 1.2 2.6 2.6 2.3.9-.3 1.6-.2 1.6 0 0 .3-1.7 4.6-3.9 9.4-3.2 7.4-3.7 9.1-2.8 10.2 1 1.1 1.4 1 3.7-.9 1.4-1.2 5-4 7.9-6 5.5-4.1 6-5 4-5.9-.8-.3-3.1.9-5.7 3a25.2 25.2 0 0 1-4.6 3.1c-.2-.1 1-3.2 2.6-6.9l3-6.7 5.7-.7c3.1-.4 5.8-.8 6-1 0 0 0-.8-.4-1.5-.4-1.2-1.3-1.3-5.1-.9l-4.6.6 1.7-3.5c1-2 1.7-3.5 1.5-3.5a8 8 0 0 1-1.7-.5 1 1 0 0 0-.3 0zm70.7 5.2c-.9 0-2 .9-4.7 2.9-4.8 3.6-5.3 3.7-3.8.9.6-1.3.5-1.8-1-2.5-1.5-.9-1.8-.6-3 2.3-.6 1.7-3 7.3-5.3 12.4-3.9 9-4 10.5-1.3 10.6.5 0 1.8-2.3 3-5.2 2.3-6 8.2-12.8 14.4-16.8 3.8-2.4 4-2.8 3-4-.5-.4-.8-.6-1.3-.6zm-90.9.4c-5 0-13.5 12.3-14.4 20.7-.7 6.2 2.7 8.7 8 6 6.9-3.6 13.7-20.8 9.9-25-.8-.9-2.4-1.6-3.5-1.6zm106.8 0c-.5 0-10.2 22.7-10.4 24.5 0 .6.4 1.3 1.1 1.5.8.1 2.3-1.5 4-4.2 2.5-4.3 13.7-16 12.6-13.3l-3.8 9.7c-3.1 7.7-3.3 8.5-2 9.5 1.8 1.3 1.9 1.1 5.2-7.8 1.5-4.2 3.9-9.9 5.2-12.6 2.2-4.5 2.3-5.2 1.2-6.3-1.4-1.4-1.3-1.4-10 6.6-2.3 2.1-4 3.3-3.7 2.6.2-.7 1-3 1.9-5 1.3-3 1.3-3.7.3-4.4-.6-.4-1.4-.7-1.6-.7zm-67 .1c-1.5 0-3.3 1-5.4 2.9-6.9 6.2-11.5 19.5-8.1 23.2 1.8 2 3.8 2.1 7 .5 6.8-3.6 13.6-20.8 9.8-25-1-1-2-1.6-3.2-1.6zm56.5 1.2c-.5 0-.8.3-1 1L166 37a49.6 49.6 0 0 0-4.1 11.2c.7 1.8 2.8 1.2 3.5-.8.3-1 2.6-6.3 5-11.7 4-9.2 4.2-9.8 2.8-10.8l-1.1-.5zm-57 2.2c1.3 0 1.8 1.5 1.4 4.2-1.4 8.7-9.6 19.6-12 16-1.5-2.6 3.5-14.6 7.6-18.5 1.2-1.1 2.2-1.7 3-1.7zm-39.6.1.4.1c2 .8 1.6 4.7-1.3 10.7-3.7 7.9-8 12-9.7 9.2-2.3-3.8 6.6-20.3 10.6-20z"/><path fill="url(#q)" d="M86.5 96.6c-6.3 10.6-13.7 21-16 33.3-1.4 7 2 14.6 8 18.4a32.8 32.8 0 0 0 29.9 2.2 16 16 0 0 0 9.6-13 44 44 0 0 0-7-27.2c-4.7-7.2-10.7-13.7-14-21.8-1.2-3-2.4-6-3.1-9.1a55 55 0 0 1-7.4 17.2z"/><path fill="url(#r)" d="M152.6 78.2c-5.2 8.7-11.2 17.3-13.1 27.4-1.2 5.7 1.5 12 6.5 15a26.9 26.9 0 0 0 24.5 1.8c4.4-1.8 7.5-6 8-10.7.7-7.8-1.8-15.7-5.9-22.2-3.8-6-8.7-11.3-11.4-18-1-2.4-2-4.8-2.6-7.4-.9 5-3.5 9.7-6 14.1z"/><path fill="url(#s)" d="M205.8 61.8c-4.5 7.5-9.8 15-11.5 23.8-1 5 1.4 10.4 5.7 13.1 6.3 4 14.6 4.5 21.4 1.6 3.8-1.6 6.5-5.3 7-9.4.6-6.8-1.6-13.6-5.1-19.4-3.4-5.2-7.7-9.8-10-15.6-.9-2.1-1.7-4.3-2.3-6.5-.7 4.4-3 8.5-5.2 12.4z"/><path fill="url(#t)" d="M0 181.6a38 38 0 0 0 33.3 1.2c6-2.6 10.1-8.5 10.7-15a50.9 50.9 0 0 0-7.5-30.3c-5.4-8.8-12.7-16.4-16.7-26.1-1.5-3.6-3-7.2-3.8-11-1.6 8.3-6 15.7-10.3 22.8-1.8 3.3-4 6.5-5.7 9.8v48.6Z"/></svg>