<?xml version="1.0" encoding="UTF-8" standalone="no"?>
<svg
   xmlns:dc="http://purl.org/dc/elements/1.1/"
   xmlns:cc="http://creativecommons.org/ns#"
   xmlns:rdf="http://www.w3.org/1999/02/22-rdf-syntax-ns#"
   xmlns:svg="http://www.w3.org/2000/svg"
   xmlns="http://www.w3.org/2000/svg"
   xmlns:xlink="http://www.w3.org/1999/xlink"
   xmlns:sodipodi="http://sodipodi.sourceforge.net/DTD/sodipodi-0.dtd"
   xmlns:inkscape="http://www.inkscape.org/namespaces/inkscape"
   sodipodi:docname="photoprint.svg"
   inkscape:version="0.92.4 (5da689c313, 2019-01-14)"
   width="324px"
   height="234px"
   viewBox="0 0 324 234"
   version="1.1"
   id="SVGRoot">
  <defs
     id="defs10">
    <linearGradient
       inkscape:collect="always"
       id="linearGradient942">
      <stop
         style="stop-color:#ffffff;stop-opacity:1;"
         offset="0"
         id="stop938" />
      <stop
         style="stop-color:#ffe064;stop-opacity:1"
         offset="1"
         id="stop940" />
    </linearGradient>
    <linearGradient
       inkscape:collect="always"
       id="linearGradient934">
      <stop
         style="stop-color:#ffd1fd;stop-opacity:1"
         offset="0"
         id="stop930" />
      <stop
         style="stop-color:#a3009c;stop-opacity:1"
         offset="1"
         id="stop932" />
    </linearGradient>
    <linearGradient
       inkscape:collect="always"
       id="linearGradient926">
      <stop
         style="stop-color:#ffffff;stop-opacity:1;"
         offset="0"
         id="stop922" />
      <stop
         style="stop-color:#7e7e7e;stop-opacity:1"
         offset="1"
         id="stop924" />
    </linearGradient>
    <linearGradient
       inkscape:collect="always"
       id="linearGradient918">
      <stop
         style="stop-color:#ffffff;stop-opacity:1;"
         offset="0"
         id="stop914" />
      <stop
         style="stop-color:#7e92f8;stop-opacity:1"
         offset="1"
         id="stop916" />
    </linearGradient>
    <linearGradient
       id="linearGradient2651"
       inkscape:collect="always">
      <stop
         id="stop2647"
         offset="0"
         style="stop-color:#3036be;stop-opacity:1" />
      <stop
         id="stop2649"
         offset="1"
         style="stop-color:#6bc9fd;stop-opacity:1" />
    </linearGradient>
    <linearGradient
       inkscape:collect="always"
       id="linearGradient2643">
      <stop
         style="stop-color:#9418b6;stop-opacity:1;"
         offset="0"
         id="stop2639" />
      <stop
         style="stop-color:#ffffff;stop-opacity:1"
         offset="1"
         id="stop2641" />
    </linearGradient>
    <inkscape:path-effect
       effect="bspline"
       id="path-effect2001"
       is_visible="true"
       weight="33.333333"
       steps="2"
       helper_size="0"
       apply_no_weight="true"
       apply_with_weight="true"
       only_selected="false" />
    <inkscape:path-effect
       only_selected="false"
       apply_with_weight="true"
       apply_no_weight="true"
       helper_size="0"
       steps="2"
       weight="33.333333"
       is_visible="true"
       id="path-effect1997"
       effect="bspline" />
    <inkscape:path-effect
       only_selected="false"
       apply_with_weight="true"
       apply_no_weight="true"
       helper_size="0"
       steps="2"
       weight="33.333333"
       is_visible="true"
       id="path-effect1993"
       effect="bspline" />
    <inkscape:path-effect
       effect="bspline"
       id="path-effect1767"
       is_visible="true"
       weight="33.333333"
       steps="2"
       helper_size="0"
       apply_no_weight="true"
       apply_with_weight="true"
       only_selected="false" />
    <inkscape:path-effect
       only_selected="false"
       apply_with_weight="true"
       apply_no_weight="true"
       helper_size="0"
       steps="2"
       weight="33.333333"
       is_visible="true"
       id="path-effect1744"
       effect="bspline" />
    <inkscape:path-effect
       effect="bspline"
       id="path-effect1740"
       is_visible="true"
       weight="33.333333"
       steps="2"
       helper_size="0"
       apply_no_weight="true"
       apply_with_weight="true"
       only_selected="false" />
    <inkscape:path-effect
       only_selected="false"
       apply_with_weight="true"
       apply_no_weight="true"
       helper_size="0"
       steps="2"
       weight="33.333333"
       is_visible="true"
       id="path-effect1736"
       effect="bspline" />
    <inkscape:path-effect
       effect="bspline"
       id="path-effect1732"
       is_visible="true"
       weight="33.333333"
       steps="2"
       helper_size="0"
       apply_no_weight="true"
       apply_with_weight="true"
       only_selected="false" />
    <linearGradient
       inkscape:collect="always"
       id="linearGradient1578">
      <stop
         style="stop-color:#3830be;stop-opacity:1;"
         offset="0"
         id="stop1574" />
      <stop
         style="stop-color:#ffffff;stop-opacity:1"
         offset="1"
         id="stop1576" />
    </linearGradient>
    <inkscape:path-effect
       effect="bspline"
       id="path-effect948"
       is_visible="true"
       weight="33.333333"
       steps="2"
       helper_size="0"
       apply_no_weight="true"
       apply_with_weight="true"
       only_selected="false" />
    <linearGradient
       inkscape:collect="always"
       id="linearGradient929">
      <stop
         style="stop-color:#3e255b;stop-opacity:1"
         offset="0"
         id="stop925" />
      <stop
         style="stop-color:#ea8080;stop-opacity:0;"
         offset="1"
         id="stop927" />
    </linearGradient>
    <inkscape:path-effect
       effect="bspline"
       id="path-effect3649"
       is_visible="true"
       weight="33.333333"
       steps="2"
       helper_size="0"
       apply_no_weight="true"
       apply_with_weight="true"
       only_selected="false" />
    <inkscape:perspective
       sodipodi:type="inkscape:persp3d"
       inkscape:vp_x="361.91591 : 5.7212814 : 1"
       inkscape:vp_y="-5.5668159e-14 : 1015.7055 : 0"
       inkscape:vp_z="-282.42146 : 5.7212814 : 1"
       inkscape:persp3d-origin="39.747229 : -33.891219 : 1"
       id="perspective3367" />
    <inkscape:perspective
       sodipodi:type="inkscape:persp3d"
       inkscape:vp_x="300.48558 : -15.761119 : 1"
       inkscape:vp_y="-5.5668159e-14 : 1215.4095 : 0"
       inkscape:vp_z="-343.85178 : -15.761119 : 1"
       inkscape:persp3d-origin="-21.683098 : -63.162089 : 1"
       id="perspective3365" />
    <inkscape:perspective
       sodipodi:type="inkscape:persp3d"
       inkscape:vp_x="240.67933 : 29.65742 : 1"
       inkscape:vp_y="-5.5668159e-14 : 793.19125 : 0"
       inkscape:vp_z="-403.65804 : 29.65742 : 1"
       inkscape:persp3d-origin="-81.489353 : -1.2770386 : 1"
       id="perspective3363" />
    <linearGradient
       inkscape:collect="always"
       id="linearGradient3192">
      <stop
         style="stop-color:#800000;stop-opacity:1"
         offset="0"
         id="stop3188" />
      <stop
         style="stop-color:#030000;stop-opacity:0.92941177"
         offset="1"
         id="stop3190" />
    </linearGradient>
    <inkscape:perspective
       sodipodi:type="inkscape:persp3d"
       inkscape:vp_x="347.15969 : 158.36069 : 1"
       inkscape:vp_y="-5.5668159e-14 : -1015.7055 : 0"
       inkscape:vp_z="-297.17768 : 158.36069 : 1"
       inkscape:persp3d-origin="24.991006 : 197.97319 : 1"
       id="perspective2994" />
    <inkscape:perspective
       sodipodi:type="inkscape:persp3d"
       inkscape:vp_x="365.5355 : 136.98712 : 1"
       inkscape:vp_y="-5.7996798e-14 : -947.1596 : 0"
       inkscape:vp_z="-305.75496 : 136.98712 : 1"
       inkscape:persp3d-origin="29.890276 : 173.92634 : 1"
       id="perspective2978" />
    <inkscape:perspective
       sodipodi:type="inkscape:persp3d"
       inkscape:vp_x="285.15968 : 169.84309 : 1"
       inkscape:vp_y="-5.5668159e-14 : -1215.4095 : 0"
       inkscape:vp_z="-359.17768 : 169.84309 : 1"
       inkscape:persp3d-origin="-37.00899 : 217.24406 : 1"
       id="perspective2962" />
    <linearGradient
       inkscape:collect="always"
       id="linearGradient2930">
      <stop
         style="stop-color:#707070;stop-opacity:1"
         offset="0"
         id="stop2926" />
      <stop
         style="stop-color:#e5e5e5;stop-opacity:1"
         offset="1"
         id="stop2928" />
    </linearGradient>
    <linearGradient
       inkscape:collect="always"
       id="linearGradient2922">
      <stop
         style="stop-color:#1828b6;stop-opacity:1"
         offset="0"
         id="stop2918" />
      <stop
         style="stop-color:#cdacf2;stop-opacity:1"
         offset="1"
         id="stop2920" />
    </linearGradient>
    <inkscape:path-effect
       effect="bspline"
       id="path-effect2905"
       is_visible="true"
       weight="33.333333"
       steps="2"
       helper_size="0"
       apply_no_weight="true"
       apply_with_weight="true"
       only_selected="false" />
    <linearGradient
       inkscape:collect="always"
       id="linearGradient2749">
      <stop
         style="stop-color:#384a6f;stop-opacity:1"
         offset="0"
         id="stop2745" />
      <stop
         style="stop-color:#171d2d;stop-opacity:1"
         offset="1"
         id="stop2747" />
    </linearGradient>
    <inkscape:perspective
       sodipodi:type="inkscape:persp3d"
       inkscape:vp_x="222.85169 : 122.42455 : 1"
       inkscape:vp_y="-5.5668159e-14 : -793.19125 : 0"
       inkscape:vp_z="-421.48568 : 122.42455 : 1"
       inkscape:persp3d-origin="-99.31699 : 153.35901 : 1"
       id="perspective977" />
    <clipPath
       clipPathUnits="userSpaceOnUse"
       id="clipPath1079">
      <rect
         style="opacity:1;fill:#171d2d;fill-opacity:1;fill-rule:evenodd;stroke:none;stroke-width:0.61728394;stroke-linecap:round;stroke-linejoin:miter;stroke-miterlimit:4;stroke-dasharray:none;stroke-dashoffset:0;stroke-opacity:1;paint-order:markers fill stroke"
         id="rect1081"
         width="124.71019"
         height="26.250898"
         x="676.5528"
         y="-15.306453"
         ry="13.125449" />
    </clipPath>
    <radialGradient
       inkscape:collect="always"
       xlink:href="#linearGradient2749"
       id="radialGradient2751"
       cx="126.34425"
       cy="64.805122"
       fx="126.34425"
       fy="64.805122"
       r="100"
       gradientTransform="matrix(1,0,0,0.72222221,8.1555488,-43.680555)"
       gradientUnits="userSpaceOnUse" />
    <linearGradient
       inkscape:collect="always"
       xlink:href="#linearGradient2922"
       id="linearGradient2924"
       x1="142.40799"
       y1="198.90001"
       x2="142.40799"
       y2="35.100002"
       gradientUnits="userSpaceOnUse"
       gradientTransform="matrix(13.422727,0,0,14.08595,-4121.2375,-5766.1445)" />
    <linearGradient
       inkscape:collect="always"
       xlink:href="#linearGradient2930"
       id="linearGradient2932"
       x1="142.40799"
       y1="198.90001"
       x2="142.40799"
       y2="35.100002"
       gradientUnits="userSpaceOnUse" />
    <linearGradient
       inkscape:collect="always"
       xlink:href="#linearGradient3192"
       id="linearGradient3194"
       x1="2642.5583"
       y1="402.95346"
       x2="3230.845"
       y2="548.73907"
       gradientUnits="userSpaceOnUse" />
    <linearGradient
       inkscape:collect="always"
       xlink:href="#linearGradient929"
       id="linearGradient931"
       x1="764.63513"
       y1="-550.5824"
       x2="5113.5985"
       y2="-550.5824"
       gradientUnits="userSpaceOnUse"
       gradientTransform="matrix(0.07450051,0,0,0.07450051,-56.965702,158.01866)" />
    <linearGradient
       inkscape:collect="always"
       xlink:href="#linearGradient2922"
       id="linearGradient1559"
       x1="765.88324"
       y1="548.73907"
       x2="5113.5986"
       y2="-1398.5605"
       gradientUnits="userSpaceOnUse"
       gradientTransform="matrix(0.07450051,0,0,0.07450051,-56.965681,158.01864)" />
    <linearGradient
       inkscape:collect="always"
       xlink:href="#linearGradient1578"
       id="linearGradient1580"
       x1="-364.00005"
       y1="-115.52839"
       x2="-39.999997"
       y2="-115.52839"
       gradientUnits="userSpaceOnUse"
       gradientTransform="translate(364.00003,244.52828)" />
    <linearGradient
       inkscape:collect="always"
       xlink:href="#linearGradient1578"
       id="linearGradient1596"
       x1="-4121.2373"
       y1="-1128"
       x2="12154.666"
       y2="-1128"
       gradientUnits="userSpaceOnUse" />
    <linearGradient
       inkscape:collect="always"
       xlink:href="#linearGradient1578"
       id="linearGradient1598"
       gradientUnits="userSpaceOnUse"
       x1="-4121.2373"
       y1="-1128"
       x2="12154.666"
       y2="-1128" />
    <linearGradient
       inkscape:collect="always"
       xlink:href="#linearGradient1578"
       id="linearGradient1608"
       gradientUnits="userSpaceOnUse"
       x1="-4121.2373"
       y1="-1128"
       x2="12154.666"
       y2="-1128" />
    <linearGradient
       inkscape:collect="always"
       xlink:href="#linearGradient2651"
       id="linearGradient1610"
       gradientUnits="userSpaceOnUse"
       x1="-4121.2373"
       y1="-2262.3596"
       x2="197.72153"
       y2="-4134.3975"
       gradientTransform="matrix(0.07450051,0,0,0.07450051,307.03429,402.54695)" />
    <linearGradient
       inkscape:collect="always"
       xlink:href="#linearGradient1578"
       id="linearGradient1612"
       gradientUnits="userSpaceOnUse"
       x1="-4121.2373"
       y1="-1128"
       x2="12154.666"
       y2="-1128" />
    <linearGradient
       inkscape:collect="always"
       xlink:href="#linearGradient1578"
       id="linearGradient1893"
       gradientUnits="userSpaceOnUse"
       gradientTransform="translate(364.00003,244.52828)"
       x1="-364.00005"
       y1="-115.52839"
       x2="-39.999997"
       y2="-115.52839" />
    <linearGradient
       inkscape:collect="always"
       xlink:href="#linearGradient1578"
       id="linearGradient1898"
       gradientUnits="userSpaceOnUse"
       gradientTransform="matrix(1.3987739,0,0,1.3987739,302.66014,355.98918)"
       x1="-364.00005"
       y1="-115.52839"
       x2="-39.999997"
       y2="-115.52839" />
    <linearGradient
       inkscape:collect="always"
       xlink:href="#linearGradient1578"
       id="linearGradient2636"
       gradientUnits="userSpaceOnUse"
       gradientTransform="translate(364.00003,244.52828)"
       x1="-364.00005"
       y1="-115.52839"
       x2="-39.999997"
       y2="-115.52839" />
    <linearGradient
       inkscape:collect="always"
       xlink:href="#linearGradient2643"
       id="linearGradient2645"
       x1="97.845703"
       y1="234"
       x2="324"
       y2="93.097656"
       gradientUnits="userSpaceOnUse" />
    <filter
       inkscape:collect="always"
       style="color-interpolation-filters:sRGB"
       id="filter2731"
       x="-0.034191932"
       width="1.0683839"
       y="-0.18262984"
       height="1.3652597">
      <feGaussianBlur
         inkscape:collect="always"
         stdDeviation="39.407716"
         id="feGaussianBlur2733" />
    </filter>
    <radialGradient
       inkscape:collect="always"
       xlink:href="#linearGradient918"
       id="radialGradient920"
       cx="22.142815"
       cy="145.22332"
       fx="22.142815"
       fy="145.22332"
       r="22.142815"
       gradientTransform="matrix(1,0,0,1.9337339,0,-137.59993)"
       gradientUnits="userSpaceOnUse" />
    <radialGradient
       inkscape:collect="always"
       xlink:href="#linearGradient926"
       id="radialGradient928"
       cx="481.89045"
       cy="-118.54663"
       fx="481.89045"
       fy="-118.54663"
       r="27.899135"
       gradientTransform="matrix(1,0,0,1.5347838,0,63.396816)"
       gradientUnits="userSpaceOnUse" />
    <radialGradient
       inkscape:collect="always"
       xlink:href="#linearGradient934"
       id="radialGradient936"
       cx="481.89045"
       cy="-118.54663"
       fx="481.89045"
       fy="-118.54663"
       r="27.899135"
       gradientTransform="matrix(1,0,0,1.5347838,0,63.396816)"
       gradientUnits="userSpaceOnUse" />
    <radialGradient
       inkscape:collect="always"
       xlink:href="#linearGradient942"
       id="radialGradient944"
       cx="481.89045"
       cy="-118.54663"
       fx="481.89045"
       fy="-118.54663"
       r="27.899135"
       gradientTransform="matrix(1,0,0,1.5347838,0,63.396816)"
       gradientUnits="userSpaceOnUse" />
  </defs>
  <sodipodi:namedview
     inkscape:pagecheckerboard="true"
     inkscape:window-maximized="1"
     inkscape:window-y="0"
     inkscape:window-x="0"
     inkscape:window-height="759"
     inkscape:window-width="1152"
     showgrid="false"
     inkscape:document-rotation="0"
     inkscape:current-layer="g2861"
     inkscape:document-units="px"
     inkscape:cy="30.617029"
     inkscape:cx="203.1599"
     inkscape:zoom="1"
     inkscape:pageshadow="2"
     inkscape:pageopacity="0.0"
     borderopacity="1.0"
     bordercolor="#666666"
     pagecolor="#ffffff"
     id="base"
     inkscape:snap-others="true"
     inkscape:object-nodes="true"
     inkscape:snap-nodes="true"
     inkscape:snap-global="true"
     inkscape:snap-midpoints="true"
     inkscape:snap-intersection-paths="true"
     inkscape:object-paths="true"
     inkscape:snap-smooth-nodes="true"
     inkscape:snap-bbox="true"
     inkscape:bbox-paths="true"
     inkscape:bbox-nodes="true"
     inkscape:snap-bbox-edge-midpoints="true"
     inkscape:snap-bbox-midpoints="true">
    <sodipodi:guide
       id="guide139"
       orientation="0,-101.49202"
       position="243.9,35.099996"
       inkscape:locked="false" />
    <sodipodi:guide
       id="guide141"
       orientation="0,-62.30799"
       position="142.40799,35.099996"
       inkscape:locked="false" />
    <sodipodi:guide
       id="guide143"
       orientation="-163.80001,0"
       position="80.099996,35.099996"
       inkscape:locked="false" />
    <sodipodi:guide
       id="guide145"
       orientation="0,62.30799"
       position="80.099996,198.9"
       inkscape:locked="false" />
    <sodipodi:guide
       id="guide147"
       orientation="0,101.49202"
       position="142.40799,198.9"
       inkscape:locked="false" />
  </sodipodi:namedview>
  <metadata
     id="metadata13">
    <rdf:RDF>
      <cc:Work
         rdf:about="">
        <dc:format>image/svg+xml</dc:format>
        <dc:type
           rdf:resource="http://purl.org/dc/dcmitype/StillImage" />
        <dc:title />
      </cc:Work>
    </rdf:RDF>
  </metadata>
  <g
     id="layer1"
     inkscape:groupmode="layer"
     inkscape:label="Capa 1">
    <g
       style="fill:url(#linearGradient1596);fill-opacity:1"
       transform="matrix(0.07450051,0,0,0.07450051,387.13428,-852.56186)"
       id="g2770">
      <g
         id="g2861"
         transform="translate(0,30.150839)"
         style="fill:url(#linearGradient1612);fill-opacity:1">
        <g
           id="g3361"
           style="fill:url(#linearGradient1598);fill-opacity:1"
           transform="matrix(1,0,0,-1,-3.3360914e-5,25.244155)" />
        <path
           style="fill:url(#linearGradient1608);fill-opacity:1;stroke-width:1"
           d="M 146.39844,97.398438 0,149.99805 c 43.835366,-15.74014 83.289014,-29.92966 125.97656,-45.23828 10.33799,-3.70654 16.32489,-5.871978 20.42188,-7.361332 z"
           id="path1482"
           transform="matrix(13.422727,0,0,13.422727,764.63511,-2121.0414)"
           inkscape:connector-curvature="0" />
        <path
           style="opacity:1;fill:url(#linearGradient2645);fill-opacity:1;fill-rule:evenodd;stroke:none;stroke-width:0.10213813;stroke-linecap:round;stroke-linejoin:miter;stroke-miterlimit:4;stroke-dasharray:none;stroke-dashoffset:0;stroke-opacity:1;paint-order:markers fill stroke"
           d="M 324 93.097656 L 97.845703 234 L 324 234 L 324 93.097656 z "
           id="path2575"
           transform="matrix(13.422727,0,0,13.422727,-5196.3977,11413.554)" />
        <path
           style="opacity:1;fill:url(#linearGradient1610);fill-opacity:1;fill-rule:evenodd;stroke:none;stroke-width:0.10213813;stroke-linecap:round;stroke-linejoin:miter;stroke-miterlimit:4;stroke-dasharray:none;stroke-dashoffset:0;stroke-opacity:1;paint-order:markers fill stroke"
           d="M 0 0 L 0 234 L 97.845703 234 L 324 93.097656 L 324 0 L 0 0 z "
           id="rect1567"
           transform="matrix(13.422727,0,0,13.422727,-5196.3977,11413.554)" />
        <path
           inkscape:connector-curvature="0"
           id="path2653"
           d="m -4455.4469,11584.145 c -10.9833,0.09 -20.6698,15.638 -44.3877,62.403 -69.2609,136.563 -188.6625,415.952 -178.4768,417.633 5.662,0.933 14.8645,2.206 20.4472,2.828 5.5836,0.624 32.9854,-29.43 60.8779,-66.779 59.4141,-79.559 174.0096,-192.054 161.4116,-158.449 -4.6671,12.449 -26.7981,70.088 -49.1838,128.077 -34.3201,88.903 -38.1347,107.061 -24.2719,115.831 26.1168,16.521 28.1969,14.261 49.715,-54.334 11.2278,-35.794 42.1347,-114.571 68.7026,-175.073 40.6938,-92.672 45.8077,-112.097 32.3842,-123.237 -18.4042,-15.273 -27.2551,-9.034 -137.1844,96.666 -38.9053,37.408 -70.6074,63.054 -70.4497,57.01 0.1585,-6.046 32.3842,-72.713 71.599,-148.149 66.0618,-127.083 69.7878,-138.08 50.7976,-149.94 -4.5169,-2.82 -8.3197,-4.517 -11.9808,-4.487 z m -321.3206,15.474 c -31.4187,-0.387 -68.2245,2.932 -110.6586,9.88 -76.4304,12.518 -77.8208,13.286 -68.2608,38.198 5.6223,14.652 16.4395,17.054 51.6155,11.429 l 44.5201,-7.118 -21.9059,55.285 c -12.0449,30.402 -48.134,120.932 -80.2197,201.201 -54.6147,136.627 -63.6629,184.445 -32.9592,174.21 7.0903,-2.363 33.4381,-56.403 58.5566,-120.075 29.1733,-73.949 49.6062,-111.828 56.5456,-104.889 14.6672,14.668 143.1583,-32.586 193.9281,-71.311 43.9097,-33.491 61.9521,-90.824 40.9383,-130.088 -19.8789,-37.146 -62.9791,-55.87 -132.1,-56.722 z m 1446.6707,0.729 c -64.4628,0.443 -169.1448,13.945 -179.9358,24.736 -2.2455,2.245 -0.744,12.773 3.3378,23.409 5.9821,15.589 15.9556,17.91 51.4387,11.915 l 44.0114,-7.449 -21.7073,54.798 c -82.2642,207.536 -117.7754,294.092 -131.5698,320.768 -12.0085,23.221 -12.6533,33.745 -2.6747,43.724 7.2285,7.229 17.8593,11.584 23.6304,9.66 5.7708,-1.924 31.0509,-55.608 56.1691,-119.28 28.2934,-71.719 49.6867,-111.724 56.2355,-105.176 12.6091,12.609 116.8491,-21.06 173.3706,-55.993 75.9829,-46.959 93.3693,-109.474 45.824,-164.748 -22.0787,-25.669 -37.9131,-31.735 -93.3721,-35.723 -7.1765,-0.516 -15.5489,-0.704 -24.7578,-0.641 z m 500.3497,25.465 c -6.4348,0.132 -11.9981,9.673 -22.923,32.584 -16.4772,34.552 -17.1301,43.661 -4.2,59.241 13.6678,16.469 17.5652,13.982 36.8051,-23.52 19.3093,-37.637 19.7242,-43.695 4.1779,-59.241 -5.8299,-5.831 -9.999,-9.142 -13.86,-9.064 z m 459.4995,16.69 c -9.2595,0.618 -17.5815,14.393 -36.5177,51.571 -26.1703,51.38 -36.4514,61.209 -70.7365,67.642 -41.5835,7.801 -46.1281,13.468 -30.5492,38.021 5.5383,8.728 17.5512,11.331 30.085,6.52 15.3638,-5.895 19.1501,-3.772 14.3905,8.092 -3.5554,8.861 -27.9692,65.77 -54.2681,126.463 -39.201,90.468 -45.2832,113.407 -33.7325,127.325 19.1507,23.075 25.6653,21.665 57.4513,-12.533 15.0909,-16.237 59.2637,-52.336 98.1689,-80.22 38.905,-27.884 70.7363,-55.512 70.7364,-61.386 0,-29.612 -39.6364,-19.706 -98.2352,24.537 -35.211,26.584 -61.0874,41.157 -57.4955,32.384 3.592,-8.773 22.7798,-52.281 42.6188,-96.666 l 36.0534,-80.684 78.1417,-7.714 c 42.9759,-4.235 78.1417,-9.512 78.1417,-11.738 0,-2.226 -3.0831,-12.083 -6.8527,-21.906 -5.6109,-14.623 -18.3214,-16.519 -70.0953,-10.434 l -63.2429,7.427 25.1999,-42.707 c 23.991,-40.661 24.255,-43.47 5.04,-57.65 -5.6757,-4.188 -10.0931,-6.624 -14.302,-6.344 z m -2397.1032,1.215 c 44.7098,0 88.0225,27.197 88.0225,55.264 0,35.11 -57.0785,77.089 -148.8995,109.486 l -45.9131,16.181 7.1848,-28.582 c 3.9478,-15.73 19.4792,-56.449 34.5284,-90.476 25.2491,-57.094 30.2694,-61.873 65.0769,-61.873 z m 1448.6824,0 c 44.7093,0 88.0224,27.197 88.0226,55.264 0,35.11 -57.0785,77.089 -148.9002,109.486 l -45.9124,16.181 7.1842,-28.582 c 3.948,-15.73 19.4799,-56.449 34.5282,-90.476 25.2498,-57.094 30.2703,-61.873 65.0776,-61.873 z m -588.4388,3.847 c -11.0434,0.171 -23.454,15.71 -41.4691,51.261 -24.3589,48.071 -35.1078,58.182 -68.5703,64.459 -21.8289,4.096 -39.7011,9.01 -39.7011,10.92 0,20.9 16.6152,35.783 34.6832,31.058 12.0477,-3.151 21.9063,-2.697 21.9063,1.017 0,3.713 -23.4786,60.395 -52.1906,125.955 -42.9956,98.177 -49.7133,122.216 -38.0427,136.278 12.4175,14.962 18.5315,13.504 49.3831,-11.849 19.3621,-15.91 67.0225,-52.603 105.9277,-81.523 73.714,-54.795 82.3078,-67.373 53.4944,-78.429 -10.288,-3.948 -41.0304,11.892 -76.1522,39.258 -32.3928,25.241 -60.291,44.51 -61.9827,42.818 -1.6919,-1.691 14.4514,-43.384 35.8544,-92.664 l 38.9051,-89.615 77.1027,-9.505 c 42.4009,-5.224 78.4727,-10.846 80.1753,-12.511 1.7027,-1.666 -0.1119,-11.392 -4.023,-21.597 -5.9043,-15.386 -17.7251,-17.308 -69.2555,-11.252 l -62.1596,7.317 23.962,-46.974 c 13.1759,-25.826 21.718,-46.951 18.9882,-46.951 -2.7298,0 -12.7175,-2.973 -22.1934,-6.609 -1.5347,-0.589 -3.0644,-0.886 -4.6422,-0.862 z m 949.1946,69.255 c -11.1773,0.943 -27.6604,12.159 -62.7345,38.64 -64.1408,48.427 -71.5913,50.228 -51.3944,12.49 9.1281,-17.057 6.6789,-23.957 -11.9589,-33.932 -20.949,-11.211 -25.1605,-8.009 -40.3418,30.637 -9.3276,23.746 -41.4935,99.195 -71.4659,167.668 -52.4372,119.794 -55.0538,140.734 -17.662,141.296 6.3325,0.1 23.9456,-31.135 39.1482,-69.41 32.1491,-80.94 110.19,-171.743 193.5747,-225.251 51.0774,-32.777 55.369,-38.534 40.0766,-53.826 -5.7347,-5.735 -10.5357,-8.878 -17.242,-8.312 z m -1219.496,6.123 c -66.0315,0 -180.8209,164.375 -193.531,277.133 -9.356,83.012 36.9255,117.46 108.1164,80.484 91.8742,-47.718 183.1177,-278.955 132.2551,-335.158 -11.1806,-12.354 -32.261,-22.459 -46.8405,-22.459 z m 1433.2968,0.177 c -6.9473,-0.207 -136.1945,303.95 -139.2181,327.62 -1.1625,9.099 5.5323,18.141 14.8767,20.094 10.4045,2.174 30.9445,-19.606 52.986,-56.169 34.4001,-57.064 183.6434,-213.839 169.9664,-178.543 -3.6182,9.337 -27.079,67.907 -52.1239,130.155 -41.616,103.435 -43.9175,114.401 -26.7472,127.369 24.2386,18.307 25.8938,15.834 69.9628,-104.734 20.4771,-56.023 52.0732,-132.134 70.228,-169.148 29.317,-59.771 31.1241,-69.189 16.0704,-84.243 -18.7131,-18.713 -18.0363,-19.158 -135.0403,89.017 -30.4607,28.163 -52.6832,43.557 -49.3607,34.219 3.3224,-9.337 15.008,-39.131 25.9514,-66.205 16.8141,-41.597 17.4412,-50.773 4.0673,-59.241 -8.7041,-5.512 -18.4345,-10.096 -21.6188,-10.191 z m -898.5958,1.106 c -21.1003,0.431 -45.196,13.12 -72.8807,38.131 -92.2392,83.333 -154.5669,261.363 -109.0889,311.616 23.9624,26.478 51.7423,28.427 93.7922,6.587 91.8743,-47.718 183.1178,-278.955 132.255,-335.158 -13.0689,-14.441 -27.6662,-21.512 -44.0776,-21.176 z m 757.145,15.782 c -6.234,-0.804 -9.6765,3.554 -13.462,13.816 -4.0702,11.035 -34.6317,81.015 -67.9069,155.532 -33.2753,74.517 -57.9863,142 -54.9313,149.961 8.9867,23.42 38.0161,16.595 46.7302,-10.986 4.4251,-14.006 34.4662,-84.623 66.7575,-156.925 55.3879,-124.014 57.526,-132.184 37.7335,-144.545 -6.439,-4.021 -11.1805,-6.37 -14.921,-6.853 z m -764.9703,29.71 c 17.2502,-0.296 25.1381,19.276 19.2316,56.213 -18.5253,115.851 -129.114,263.188 -160.0192,213.183 -20.6489,-33.412 45.343,-195.359 100.6005,-246.871 16.1258,-15.033 29.837,-22.348 40.1871,-22.525 z m -530.7004,1.282 c 1.7327,0.128 3.387,0.474 4.9739,1.083 27.2323,10.45 21.0299,62.311 -17.1537,143.264 -49.9056,105.804 -107.1948,160.415 -129.8453,123.767 -31.5208,-51.002 88.3269,-272.066 142.0251,-268.114 z"
           style="fill:#ce8bf1;fill-opacity:1;stroke-width:11.31782913;filter:url(#filter2731)" />
      </g>
    </g>
    <path
       inkscape:connector-curvature="0"
       id="path1542"
       d="M 41.667999,233.99997 324.00003,76.706998 V 30.943328 L 0.222769,149.91799 1.8997451e-5,233.99997 Z"
       style="fill:url(#linearGradient1559);fill-opacity:1;stroke:none;stroke-width:1px;stroke-linecap:butt;stroke-linejoin:miter;stroke-opacity:1" />
    <path
       style="fill:url(#linearGradient2636);fill-opacity:1;stroke-width:1"
       d="m 324,24 -2.32812,0.691406 c -0.68755,0.0107 -35.32055,11.785086 -76.9629,26.166016 -37.59967,12.984817 -69.12143,23.747639 -75.33007,25.732422 v 0.0059 l -6.48438,2.244141 c 0.0187,0.210972 0.0273,0.41632 0.0273,0.615234 0,2.06251 -0.84817,7.542148 -1.81836,12.767578 l 77.60351,-28.476562 25.10352,-9.447266 c 0.0152,-0.006 0.0141,-0.006 0.0293,-0.01172 h 0.002 L 288.43555,45.03125 324,30.943359 Z M 162.89453,78.839844 c -0.27831,-3.134483 -2.53172,-7.422941 -3.98437,-7.595703 -0.10337,-0.0125 -0.20258,-0.004 -0.29688,0.02734 -1.02086,0.338573 -4.41634,6.171065 -6.96484,11.460938 z m -11.24609,3.892578 -6.41016,2.21875 c -0.14171,0.16875 -5.35258,1.984855 -9.69726,3.515625 l 0.0176,0.01172 c -3.34248,1.09402 -13.24513,4.209125 -26.86132,8.416015 C 72.666485,107.75309 36.13466,119.00314 0,130.15039 v 2.33008 c 0.51845,-0.1748 1.0318431,-0.37677 1.4707031,-0.34961 0.12896,0.008 0.2596213,0.0254 0.3945313,0.0547 0.94438,0.20489 2.1068481,0.95454 4.4863281,2.55078 2.49375,1.6729 4.4855645,3.26846 4.4277345,3.54687 -0.0579,0.27843 -1.1504676,0.74667 -2.4296876,1.03907 -1.27921,0.2924 -2.7783681,0.43668 -3.3300782,0.32226 C 4.3495212,139.50555 2.06611,137.9857 0,136.48047 v 13.51758 L 146.39844,97.398438 c 0.28765,-0.10457 1.17012,-0.421659 1.43359,-0.517579 h 0.002 l 0.47071,-0.167968 0.0703,-0.02539 0.53516,-0.195312 c -0.55597,-2.319721 -0.67765,-4.819527 0.0195,-7.222657 0.46727,-1.610567 1.50531,-4.018407 2.71875,-6.537109 z M 320.67188,28.074219 c 1.23748,-0.0387 2.25,0.379687 2.25,0.929687 -7e-5,0.55 -0.11251,0.968348 -0.25,0.929688 -0.13761,-0.0387 -1.15,-0.457018 -2.25,-0.929688 -1.90842,-0.82005 -1.89696,-0.862617 0.25,-0.929687 z m -4.86915,1.597656 c 0.54381,0.031 1.29408,0.194822 2.11915,0.482422 1.64999,0.57519 2.99993,1.226056 3,1.447265 -7e-5,0.47445 -1.80138,0.352791 -4.25,-0.287109 -0.96259,-0.25154 -1.75001,-0.850961 -1.75,-1.332031 0,-0.24054 0.33711,-0.341567 0.88085,-0.310547 z m -7.38085,1.320313 3,0.578124 c 1.64999,0.317061 3.42669,0.992837 3.94921,1.503907 1.40489,1.37421 -0.44962,1.082716 -3.94921,-0.621094 z m -5,1.986328 3.42773,0.523437 c 1.8849,0.28778 3.64676,0.744392 3.91601,1.013672 1.18705,1.18696 -0.62292,1.111487 -3.84374,-0.158203 z m -2.5,2.111328 c 1.37493,-0.0302 3.17491,0.380892 4,0.914062 1.23799,0.80007 1.15073,0.959423 -0.5,0.914063 -1.10008,-0.0302 -2.9,-0.441393 -4,-0.914063 -1.83173,-0.7871 -1.7897,-0.863722 0.5,-0.914062 z m -7.5,2.054687 h 2 c 1.1,0 2.8999,0.386685 4,0.859375 l 2,0.859375 h -2 c -1.1001,0 -2.9,-0.386685 -4,-0.859375 z m -3.5,2 c 1.37493,0 3.39994,0.386685 4.5,0.859375 1.82303,0.78338 1.77875,0.859375 -0.5,0.859375 -1.3751,0 -3.4,-0.386705 -4.5,-0.859375 -1.82309,-0.78341 -1.77891,-0.859375 0.5,-0.859375 z m -6,2.00586 c 1.37497,-0.003 3.37009,0.335503 4.43359,0.751953 3.45871,1.35444 0.17159,1.877995 -3.43359,0.546875 -3.01732,-1.11403 -3.15527,-1.293738 -1,-1.298828 z m -6.5,1.949218 c 2.94162,-0.0994 6.49993,1.007145 6.5,2.021485 0,1.23784 -1.98688,1.028552 -5.5,-0.580078 -2.34502,-1.07374 -2.56341,-1.388587 -1,-1.441407 z m -5.84766,2.060547 c 1.98935,0.0989 5.3675,1.069145 5.89453,1.921875 0.31376,0.50769 -0.24334,0.894235 -1.23828,0.859375 -2.53272,-0.0888 -6.71682,-1.863247 -6.02539,-2.554687 0.1973,-0.1973 0.70603,-0.259523 1.36914,-0.226563 z m -6.67774,2.083985 c 0.19045,0.0211 0.40014,0.0742 0.61914,0.158203 0.87615,0.33619 2.67209,0.88158 3.99219,1.21289 1.3201,0.33134 2.15131,1.004774 1.84766,1.496094 -0.65839,1.06531 -1.09992,1.039359 -4.68359,-0.269531 -1.51261,-0.55243 -2.75012,-1.464334 -2.75,-2.027344 0,-0.42226 0.40339,-0.633662 0.9746,-0.570312 z m -9.4746,2.742187 3.91406,0.472656 c 2.15254,0.25989 4.3792,0.939786 4.94922,1.509766 1.56574,1.56575 -2.29128,1.225282 -5.86328,-0.517578 z m -5.10352,2.556641 c 2.26269,-0.1322 7.58875,1.677197 7.00781,2.617187 -0.64397,1.04197 -1.05108,1.000256 -5.34961,-0.552734 -1.8946,-0.68449 -2.98042,-1.530839 -2.41406,-1.88086 0.17209,-0.106349 0.43263,-0.164713 0.75586,-0.183593 z m -7.26758,2.550781 c 1.18175,-0.0982 3.16616,0.339375 5.33789,1.265625 2.04108,0.8705 2.50887,1.426263 1.5,1.783203 -1.81902,0.6436 -7.96688,-1.118133 -7.96679,-2.283203 0,-0.45499 0.41985,-0.706695 1.1289,-0.765625 z m -6.9375,3.128906 c 1.25966,-0.0341 3.15086,0.447238 4.50195,1.179688 l 2.80665,1.521484 -2.5,-0.02344 c -1.37506,-0.0128 -3.62503,-0.522293 -5,-1.132813 -2.44948,-1.08758 -2.45482,-1.117327 -0.30665,-1.498047 0.15076,-0.0267 0.3181,-0.04198 0.49805,-0.04687 z m -11.6914,2.769532 4.37109,0.427734 c 2.40409,0.23501 4.85581,0.912469 5.44922,1.505859 1.62727,1.62727 -3.19511,1.292984 -6.82031,-0.472656 z m -5.53711,3.140624 c 1.03098,-0.0209 2.66752,0.255153 4.66406,0.914063 2.6424,0.87208 3.2444,1.423774 2.24219,2.058594 -1.75413,1.11122 -1.7305,1.114491 -5.86914,-0.792969 -2.79008,-1.28585 -2.75554,-2.144777 -1.03711,-2.179688 z m -9.82813,2.871094 c 2.56411,0 8.76163,2.358528 8.27344,3.148438 -0.67041,1.08476 -3.1548,0.969003 -6.6582,-0.310547 -2.73454,-0.99872 -3.78095,-2.837891 -1.61524,-2.837891 z m -8.73828,3.556641 c 1.27004,0.0205 3.16994,0.488425 4.9375,1.259765 3.59515,1.568881 3.87222,1.893907 2.02148,2.378907 -1.17938,0.30908 -3.86498,-0.19682 -5.96875,-1.125 -3.12827,-1.38019 -3.49672,-1.812817 -2.02148,-2.378907 0.25513,-0.0979 0.6079,-0.141575 1.03125,-0.134765 z m -10.54492,3.443359 c 2.73583,0 8.14838,2.057666 8.14844,3.097656 0,1.160881 -3.72536,1.027565 -7.25,-0.259765 -3.13064,-1.14336 -3.66667,-2.837891 -0.89844,-2.837891 z M 324,76.707031 301.88672,89.230469 c -1.35599,0.85499 -15.87863,9.02873 -32.27344,18.164061 C 192.45713,149.63411 114.33602,193.37173 41.667969,234 h 10.160156 c 0.008,0 0.04854,-0.0234 0.05664,-0.0234 0.004,0 0.04032,0.0233 0.04492,0.0234 h 45.916015 c 10.522077,-6.54735 28.894267,-17.98279 42.576177,-26.50195 54.32265,-33.79863 99.78497,-62.14027 150.93554,-93.94532 14.8145,-9.20991 27.97698,-17.427604 29.25,-18.261714 L 322.92188,93.773438 324,93.097656 v -0.501953 z m -144.07422,1.476563 c 3.18295,0.0821 8.10166,1.84156 7.44727,2.90039 -0.8308,1.34427 -3.47707,1.062992 -7.45117,-0.792968 -3.17269,-1.48167 -3.28766,-1.672323 -1.23243,-2.033204 0.3626,-0.0637 0.78162,-0.08592 1.23633,-0.07422 z m 138.56641,3.904297 c 1.72517,0.075 4.42962,1.078696 4.42969,1.935547 -7e-5,1.17883 -0.73691,1.159564 -3.89454,-0.103516 -1.31734,-0.52694 -2.12611,-1.227421 -1.79687,-1.556641 0.22111,-0.22111 0.68666,-0.30036 1.26172,-0.27539 z m -145.6211,0.916015 c 1.70303,0 4.05074,1.221502 4.05079,2.107422 0,1.50932 -3.74948,0.987058 -4.36133,-0.607422 -0.31659,-0.82499 -0.17721,-1.5 0.31054,-1.5 z m 138.95899,2.791016 c 2.68712,-0.0869 9.19963,2.224434 8.5332,3.302734 -0.69761,1.12877 -0.95583,1.097501 -6.30469,-0.792968 -2.8352,-1.002081 -3.92492,-1.812844 -3.11328,-2.314454 0.19563,-0.12091 0.50092,-0.182892 0.88477,-0.195312 z m -5.89453,3.65039 c 2.69911,0.0387 8.16977,2.455584 7.46875,3.589844 -0.77219,1.24942 -1.19134,1.179953 -5.98242,-0.992187 -2.90745,-1.31811 -3.57596,-1.989161 -2.44727,-2.457031 0.24647,-0.10216 0.57531,-0.146145 0.96094,-0.140626 z m -171.36328,0.904297 c 0.21971,0.008 0.46951,0.04025 0.74023,0.09375 2.34635,0.46443 6.26761,2.497457 5.89453,3.341797 -0.46362,1.0492 -1.52511,0.820679 -5.17578,-1.113281 -2.61651,-1.38615 -3.10076,-1.929545 -2.01953,-2.265625 0.15074,-0.0469 0.34079,-0.06424 0.56055,-0.05664 z m -7.04883,2.173829 c 0.13193,-0.003 0.28162,0.007 0.44531,0.0293 2.29172,0.31684 7.40932,3.054878 6.66406,3.804688 -0.8166,0.8215 -3.04715,0.21177 -6.05859,-1.65625 -1.98989,-1.23432 -2.34896,-1.782127 -1.39063,-2.123047 0.0934,-0.0333 0.20792,-0.05129 0.33985,-0.05469 z m 171.14844,1.132812 c 2.80849,0.0811 7.80149,1.788218 7.57421,2.923828 -0.28245,1.41117 -1.55776,1.352338 -6.21679,-0.289062 -3.33921,-1.17642 -4.02414,-1.753537 -2.86133,-2.404297 0.32425,-0.18145 0.85574,-0.249169 1.50391,-0.230469 z m -178.26563,1.238281 c 0.13916,0.004 0.29181,0.01852 0.45508,0.04492 2.28562,0.37044 6.69342,2.81302 6.27344,3.693359 -0.52821,1.107281 -2.45419,0.620199 -5.6211,-1.425781 -2.47513,-1.59902 -2.76171,-2.040999 -1.48242,-2.287109 0.10982,-0.0212 0.23584,-0.02929 0.375,-0.02539 z m -7.41602,2.154297 c 2.04399,0.22893 7.49515,3.838172 6.73829,4.599612 -0.88944,0.89489 -2.00588,0.58897 -5.5625,-1.52344 -2.99812,-1.780652 -3.48697,-2.759509 -1.53516,-3.074219 0.10316,-0.0166 0.22314,-0.01735 0.35937,-0.002 z m 177.74219,0.810547 c 2.71046,-0.0919 9.24813,2.241235 8.57031,3.337895 -0.74258,1.20156 -3.45297,0.91381 -7.36132,-0.78125 -2.58256,-1.120066 -3.12586,-1.728769 -2.10547,-2.359379 0.19876,-0.12297 0.50927,-0.184136 0.89648,-0.197266 z m -186.30078,1.886719 c 0.29476,-0.0212 0.59603,-0.012 0.89844,0.0293 0.60483,0.0826 1.2131,0.290349 1.77734,0.613279 0.98448,0.56347 2.74066,1.56766 3.90235,2.23047 1.69677,0.96806 1.84131,1.30428 0.73242,1.71094 -1.84626,0.67704 -2.47056,0.49705 -6.48047,-1.86328 -3.03351,-1.7856 -3.22847,-2.0835 -1.6875,-2.562503 0.27467,-0.0854 0.56266,-0.137033 0.85742,-0.158203 z m 178.69922,2.613286 c 2.71628,-0.0236 8.36637,2.09251 8.09375,3.2832 -0.34283,1.49754 -2.67313,1.29666 -6.80273,-0.58789 -3.2276,-1.47286 -3.66206,-1.96451 -2.25,-2.54492 0.24243,-0.0997 0.57095,-0.14704 0.95898,-0.15039 z m -188.013672,0.27734 c 0.24687,-0.018 0.535471,-0.001 0.857421,0.0469 1.9317,0.29004 5.010261,1.69875 6.759771,3.27344 0.97702,0.8794 0.94209,1.05011 -0.31836,1.53516 -1.76626,0.6797 -1.56111,0.74485 -5.638676,-1.83008 -2.53846,-1.60298 -3.109566,-2.32699 -2.259766,-2.86133 0.14863,-0.0934 0.35272,-0.14608 0.59961,-0.16406 z m -8.183594,2.6543 c 0.10441,0.006 0.213275,0.0224 0.328125,0.0469 0.80401,0.17117 1.907253,0.80103 3.939453,2.07422 3.73862,2.34244 3.976386,2.66346 2.316406,3.13867 -1.03511,0.29633 -2.534427,0.13769 -3.404297,-0.36133 -0.85491,-0.49043 -2.577965,-1.47584 -3.828125,-2.18945 -2.02763,-1.15737 -2.109869,-1.40038 -0.761718,-2.24805 0.505549,-0.31788 0.908966,-0.49106 1.410156,-0.46093 z m 187.652346,1.38281 c 2.4046,-0.14909 9.53206,3.20462 8.84375,4.31836 -0.80888,1.30881 -2.16429,1.1639 -6.75781,-0.72071 -3.87223,-1.58863 -4.66891,-2.71009 -2.5,-3.51953 0.11461,-0.0428 0.25375,-0.0682 0.41406,-0.0781 z m -197.507815,1.85156 c 0.14573,0.005 0.293072,0.0175 0.445313,0.041 1.01475,0.1566 2.222338,0.75164 4.267578,1.97851 3.65513,2.19267 3.870184,2.48757 2.302734,3.17774 -2.12725,0.93662 -1.841405,1.02238 -6.484375,-1.95704 -3.61457,-2.31951 -3.722027,-2.49741 -1.841797,-3.05078 0.45605,-0.1342 0.873397,-0.20315 1.310547,-0.18945 z m 189.351565,3.19141 c 0.7151,-0.0255 1.46362,0.10297 2.18945,0.38672 1.26642,0.49512 3.52566,1.3774 5.01953,1.95898 2.18197,0.84946 2.42778,1.23943 1.25,1.98438 -1.96092,1.24017 -2.72063,1.14897 -7.89453,-0.94922 -3.91404,-1.58727 -4.21003,-1.91827 -2.55273,-2.84571 0.59082,-0.33067 1.27318,-0.50968 1.98828,-0.53515 z m -200.066409,0.20703 c 0.0964,0.003 0.216535,0.0232 0.359375,0.0586 2.14274,0.53024 9.094775,4.45339 8.390625,4.82031 -2.35687,1.22812 -4.312728,0.95066 -7.705078,-1.09375 -3.72192,-2.24289 -4.176042,-3.88677 -1.044922,-3.78515 z m -11.753906,3.5664 c 0.19676,-7.4e-4 0.395823,0.0113 0.601563,0.0371 1.371529,0.17236 2.992226,0.94266 5.503906,2.48633 3.43103,2.10871 3.539785,2.29362 1.822265,3.08203 -2.35795,1.08232 -2.824247,0.96011 -6.929687,-1.81054 -4.44447,-2.9993 -4.343815,-2.87273 -2.734375,-3.46289 0.58687,-0.21521 1.146058,-0.3309 1.736328,-0.33204 z m 201.759765,1.85743 c 2.29016,-0.0487 6.16521,1.05537 8.55274,2.65234 1.33332,0.89188 1.33331,1.11301 0,1.98828 -1.86841,1.22647 -1.61702,1.26626 -6.91993,-1.08594 -3.3013,-1.46433 -4.13066,-2.24825 -3.28125,-3.09765 0.29713,-0.29711 0.88506,-0.44079 1.64844,-0.45703 z m -212.896484,1.79101 c 0.22271,-0.0195 0.4144,-0.0176 0.5625,0.008 1.41861,0.24162 8.00703,4.73348 7.875,5.36914 -0.0565,0.27192 -1.024274,0.69841 -2.152344,0.94727 -1.592269,0.35124 -2.99616,-0.14302 -6.27539,-2.20898 -3.95904,-2.49427 -4.107547,-2.71286 -2.373047,-3.47657 0.76337,-0.33611 1.695161,-0.58016 2.363281,-0.63867 z m 203.511724,3.38477 c 0.96521,0.0428 2.38485,0.59424 5.02539,1.7539 4.85765,2.13356 5.20709,2.48555 3.41211,3.4336 -1.1194,0.59116 -2.88073,0.7123 -4,0.27344 -1.10009,-0.43139 -3.31608,-1.29755 -4.92383,-1.92383 -2.60755,-1.01574 -2.75966,-1.30091 -1.41211,-2.64844 0.5053,-0.50533 0.92637,-0.80784 1.50976,-0.87695 0.12154,-0.0144 0.25074,-0.0178 0.38868,-0.0117 z m -217.457036,0.70703 c 0.22908,-0.01 0.470282,0.005 0.726562,0.0449 1.31805,0.20569 3.046868,1.08227 5.710938,2.75781 l 4.068359,2.55664 -2.267578,0.94727 c -2.81871,1.17722 -2.363513,1.29726 -7.257813,-1.91602 -3.47398,-2.28079 -3.910545,-2.84716 -2.828124,-3.67187 0.578969,-0.44112 1.160406,-0.68973 1.847656,-0.71875 z m -13.484375,4.32617 c 0.31539,-0.0111 0.62941,0.0139 0.96289,0.084 1.11155,0.2337 2.436165,0.96072 4.740235,2.45313 l 4.480468,2.90234 -2.40625,1.125 c -2.889189,1.35003 -2.319691,1.48979 -7.238281,-1.78125 -4.45326,-2.96151 -4.760829,-3.90379 -1.511719,-4.64648 0.33878,-0.0774 0.657277,-0.12566 0.972657,-0.13672 z m 220.517581,1.08008 c 1.2041,-0.0203 2.73452,0.46551 5.3789,1.56445 4.72597,1.96402 5.04159,2.28715 3.4043,3.48438 -2.222,1.62477 -1.87231,1.67126 -7.92187,-1.06641 -4.70967,-2.13139 -4.87526,-2.33111 -2.84571,-3.42383 0.65635,-0.35337 1.26192,-0.54643 1.98438,-0.55859 z m -11.60157,6.57422 c 2.59014,0.20678 11.51882,3.6332 10.79688,4.24218 -2.41638,2.03834 -4.73265,2.10603 -9.12109,0.27149 -4.81469,-2.01266 -5.72762,-3.97177 -2.10352,-4.51172 0.11159,-0.0166 0.25506,-0.0156 0.42773,-0.002 z m -12.38867,6.88672 c 1.61803,-0.0766 3.66364,0.53973 6.91992,1.93554 4.4483,1.90676 4.61839,2.11667 2.83204,3.46875 -2.45247,1.85616 -3.01873,1.80199 -8.40039,-0.78906 -5.82613,-2.80485 -5.68014,-2.66696 -3.97071,-3.74805 0.83111,-0.5256 1.64836,-0.82123 2.61914,-0.86718 z m -11.98437,6.90625 c 1.68868,0 10.33589,4.21581 10.33594,5.03906 -5e-5,0.35213 -1.01252,1.09098 -2.25,1.64258 -1.74681,0.77856 -3.47868,0.45985 -7.74219,-1.42578 -5.14738,-2.27654 -5.37038,-2.517 -3.5586,-3.8418 1.06316,-0.77741 2.50968,-1.41406 3.21485,-1.41406 z m -14.85938,8.10156 c 1.56448,-0.0235 3.76161,0.7041 7.22461,2.23242 l 5.28711,2.33203 -2.38086,1.66797 c -2.95952,2.07303 -2.40645,2.1251 -8.80078,-0.85156 -4.53872,-2.11285 -5.17641,-2.72806 -4.12891,-3.99024 0.74707,-0.90016 1.58202,-1.37233 2.79883,-1.39062 z m -14.18945,8.2832 c 1.33376,0.0554 3.0317,0.68072 6.03711,2.05664 l 5.84375,2.67578 -2.49805,1.91993 c -2.99928,2.30423 -2.31201,2.35817 -8.74804,-0.68555 -5.82725,-2.75573 -6.40384,-3.86905 -2.84571,-5.49024 0.74198,-0.33807 1.4107,-0.50977 2.21094,-0.47656 z m -16.32031,8.91016 c 1.1347,0.0551 2.64871,0.74463 5.76562,2.23437 3.26657,1.56128 5.93946,3.13356 5.93946,3.49414 -5e-5,0.36059 -1.14599,1.17814 -2.54688,1.81641 -1.40089,0.63829 -3.08837,1.13888 -3.75,1.11328 -1.41785,-0.0549 -10.70312,-4.78218 -10.70312,-5.44922 0,-0.25179 1.1521,-1.21193 2.56054,-2.13476 0.92154,-0.60381 1.54675,-0.97463 2.26758,-1.0586 0.15018,-0.0175 0.3047,-0.0235 0.4668,-0.0156 z m -16.92578,10.07422 c 1.21756,0.0557 2.70813,0.73449 5.78906,2.20703 3.21256,1.53547 5.84179,3.14729 5.8418,3.58203 0,0.43475 -1.32654,1.4773 -2.94922,2.31641 -1.62269,0.83912 -3.08519,1.51636 -3.25,1.50586 -1.41523,-0.0904 -11.80082,-5.45658 -11.80078,-6.09766 -7e-5,-0.45683 1.42076,-1.56639 3.1582,-2.46484 1.14255,-0.59091 1.90159,-0.95357 2.70117,-1.03516 0.16658,-0.017 0.33584,-0.0216 0.50977,-0.0137 z m -19.41797,10.95312 c 1.90707,0.0319 4.10546,0.77226 7.15234,2.22852 3.24305,1.55004 5.89372,3.07144 5.89063,3.38281 -0.004,0.31138 -1.39096,1.35391 -3.08204,2.31641 -3.97329,2.26142 -4.3165,2.21972 -11.36132,-1.41407 -5.60468,-2.89094 -5.83685,-3.1526 -4,-4.49609 1.87834,-1.37384 3.49331,-2.0495 5.40039,-2.01758 z m -20.039066,10.6836 6.027346,3.24609 c 3.31534,1.78618 6.03592,3.54828 6.04492,3.91602 0.009,0.3676 -1.49917,1.6051 -3.35156,2.75 -1.85244,1.14485 -3.76492,2.02456 -4.25,1.95507 -1.68237,-0.24104 -12.375929,-6.3755 -12.378909,-7.10156 -0.002,-0.40131 1.775662,-1.63818 3.951172,-2.74805 z m -21.49414,12.93945 c 1.40779,0 13.462884,7.2569 13.464844,8.10547 7.39e-4,0.24766 -2.330018,1.76718 -5.179688,3.37695 -2.8497,1.60974 -5.465483,2.92768 -5.814453,2.92774 -1.06542,0 -13.197944,-8.09916 -13.183594,-8.80079 0.0187,-0.91169 8.990531,-5.60937 10.712891,-5.60937 z"
       id="path1537"
       inkscape:connector-curvature="0"
       sodipodi:nodetypes="ccsccccccccccccccccccccccccccsccccccccccccccccscccccccccccccccccccccccsccsccscscscccccccccccccccccccccccccccsccccccccccccccccccccccccsccscccsccsccsccccssccccccccccsccccccccsccsccccccccccccccccccccccccscccccccccccccccccccccccsccccccccccccccccccccccccccccccccccccccsccccsccccccccccccccccccccccccccsccccccccscccccccccccccccccccccccccccsccscsccccsccccccccccccccsccczccccccczcccccccccccccccsccccs" />
    <path
       style="fill:url(#linearGradient1898);fill-opacity:1;stroke-width:1.39877403"
       d="M 22.53125 126.68359 L 21.398438 125.08789 C 21.398438 125.44318 21.118076 126.79641 21.083984 127.28711 C 21.56682 127.07932 22.011916 126.8871 22.53125 126.68359 z "
       id="path1986" />
    <path
       transform="matrix(0.07450051,0,0,0.07450051,387.13428,-850.31561)"
       style="fill:#ffffff;fill-opacity:1;stroke-width:11.31782913"
       d="m -4455.4469,11584.145 c -10.9833,0.09 -20.6698,15.638 -44.3877,62.403 -69.2609,136.563 -188.6625,415.952 -178.4768,417.633 5.662,0.933 14.8645,2.206 20.4472,2.828 5.5836,0.624 32.9854,-29.43 60.8779,-66.779 59.4141,-79.559 174.0096,-192.054 161.4116,-158.449 -4.6671,12.449 -26.7981,70.088 -49.1838,128.077 -34.3201,88.903 -38.1347,107.061 -24.2719,115.831 26.1168,16.521 28.1969,14.261 49.715,-54.334 11.2278,-35.794 42.1347,-114.571 68.7026,-175.073 40.6938,-92.672 45.8077,-112.097 32.3842,-123.237 -18.4042,-15.273 -27.2551,-9.034 -137.1844,96.666 -38.9053,37.408 -70.6074,63.054 -70.4497,57.01 0.1585,-6.046 32.3842,-72.713 71.599,-148.149 66.0618,-127.083 69.7878,-138.08 50.7976,-149.94 -4.5169,-2.82 -8.3197,-4.517 -11.9808,-4.487 z m -321.3206,15.474 c -31.4187,-0.387 -68.2245,2.932 -110.6586,9.88 -76.4304,12.518 -77.8208,13.286 -68.2608,38.198 5.6223,14.652 16.4395,17.054 51.6155,11.429 l 44.5201,-7.118 -21.9059,55.285 c -12.0449,30.402 -48.134,120.932 -80.2197,201.201 -54.6147,136.627 -63.6629,184.445 -32.9592,174.21 7.0903,-2.363 33.4381,-56.403 58.5566,-120.075 29.1733,-73.949 49.6062,-111.828 56.5456,-104.889 14.6672,14.668 143.1583,-32.586 193.9281,-71.311 43.9097,-33.491 61.9521,-90.824 40.9383,-130.088 -19.8789,-37.146 -62.9791,-55.87 -132.1,-56.722 z m 1446.6707,0.729 c -64.4628,0.443 -169.1448,13.945 -179.9358,24.736 -2.2455,2.245 -0.744,12.773 3.3378,23.409 5.9821,15.589 15.9556,17.91 51.4387,11.915 l 44.0114,-7.449 -21.7073,54.798 c -82.2642,207.536 -117.7754,294.092 -131.5698,320.768 -12.0085,23.221 -12.6533,33.745 -2.6747,43.724 7.2285,7.229 17.8593,11.584 23.6304,9.66 5.7708,-1.924 31.0509,-55.608 56.1691,-119.28 28.2934,-71.719 49.6867,-111.724 56.2355,-105.176 12.6091,12.609 116.8491,-21.06 173.3706,-55.993 75.9829,-46.959 93.3693,-109.474 45.824,-164.748 -22.0787,-25.669 -37.9131,-31.735 -93.3721,-35.723 -7.1765,-0.516 -15.5489,-0.704 -24.7578,-0.641 z m 500.3497,25.465 c -6.4348,0.132 -11.9981,9.673 -22.923,32.584 -16.4772,34.552 -17.1301,43.661 -4.2,59.241 13.6678,16.469 17.5652,13.982 36.8051,-23.52 19.3093,-37.637 19.7242,-43.695 4.1779,-59.241 -5.8299,-5.831 -9.999,-9.142 -13.86,-9.064 z m 459.4995,16.69 c -9.2595,0.618 -17.5815,14.393 -36.5177,51.571 -26.1703,51.38 -36.4514,61.209 -70.7365,67.642 -41.5835,7.801 -46.1281,13.468 -30.5492,38.021 5.5383,8.728 17.5512,11.331 30.085,6.52 15.3638,-5.895 19.1501,-3.772 14.3905,8.092 -3.5554,8.861 -27.9692,65.77 -54.2681,126.463 -39.201,90.468 -45.2832,113.407 -33.7325,127.325 19.1507,23.075 25.6653,21.665 57.4513,-12.533 15.0909,-16.237 59.2637,-52.336 98.1689,-80.22 38.905,-27.884 70.7363,-55.512 70.7364,-61.386 0,-29.612 -39.6364,-19.706 -98.2352,24.537 -35.211,26.584 -61.0874,41.157 -57.4955,32.384 3.592,-8.773 22.7798,-52.281 42.6188,-96.666 l 36.0534,-80.684 78.1417,-7.714 c 42.9759,-4.235 78.1417,-9.512 78.1417,-11.738 0,-2.226 -3.0831,-12.083 -6.8527,-21.906 -5.6109,-14.623 -18.3214,-16.519 -70.0953,-10.434 l -63.2429,7.427 25.1999,-42.707 c 23.991,-40.661 24.255,-43.47 5.04,-57.65 -5.6757,-4.188 -10.0931,-6.624 -14.302,-6.344 z m -2397.1032,1.215 c 44.7098,0 88.0225,27.197 88.0225,55.264 0,35.11 -57.0785,77.089 -148.8995,109.486 l -45.9131,16.181 7.1848,-28.582 c 3.9478,-15.73 19.4792,-56.449 34.5284,-90.476 25.2491,-57.094 30.2694,-61.873 65.0769,-61.873 z m 1448.6824,0 c 44.7093,0 88.0224,27.197 88.0226,55.264 0,35.11 -57.0785,77.089 -148.9002,109.486 l -45.9124,16.181 7.1842,-28.582 c 3.948,-15.73 19.4799,-56.449 34.5282,-90.476 25.2498,-57.094 30.2703,-61.873 65.0776,-61.873 z m -588.4388,3.847 c -11.0434,0.171 -23.454,15.71 -41.4691,51.261 -24.3589,48.071 -35.1078,58.182 -68.5703,64.459 -21.8289,4.096 -39.7011,9.01 -39.7011,10.92 0,20.9 16.6152,35.783 34.6832,31.058 12.0477,-3.151 21.9063,-2.697 21.9063,1.017 0,3.713 -23.4786,60.395 -52.1906,125.955 -42.9956,98.177 -49.7133,122.216 -38.0427,136.278 12.4175,14.962 18.5315,13.504 49.3831,-11.849 19.3621,-15.91 67.0225,-52.603 105.9277,-81.523 73.714,-54.795 82.3078,-67.373 53.4944,-78.429 -10.288,-3.948 -41.0304,11.892 -76.1522,39.258 -32.3928,25.241 -60.291,44.51 -61.9827,42.818 -1.6919,-1.691 14.4514,-43.384 35.8544,-92.664 l 38.9051,-89.615 77.1027,-9.505 c 42.4009,-5.224 78.4727,-10.846 80.1753,-12.511 1.7027,-1.666 -0.1119,-11.392 -4.023,-21.597 -5.9043,-15.386 -17.7251,-17.308 -69.2555,-11.252 l -62.1596,7.317 23.962,-46.974 c 13.1759,-25.826 21.718,-46.951 18.9882,-46.951 -2.7298,0 -12.7175,-2.973 -22.1934,-6.609 -1.5347,-0.589 -3.0644,-0.886 -4.6422,-0.862 z m 949.1946,69.255 c -11.1773,0.943 -27.6604,12.159 -62.7345,38.64 -64.1408,48.427 -71.5913,50.228 -51.3944,12.49 9.1281,-17.057 6.6789,-23.957 -11.9589,-33.932 -20.949,-11.211 -25.1605,-8.009 -40.3418,30.637 -9.3276,23.746 -41.4935,99.195 -71.4659,167.668 -52.4372,119.794 -55.0538,140.734 -17.662,141.296 6.3325,0.1 23.9456,-31.135 39.1482,-69.41 32.1491,-80.94 110.19,-171.743 193.5747,-225.251 51.0774,-32.777 55.369,-38.534 40.0766,-53.826 -5.7347,-5.735 -10.5357,-8.878 -17.242,-8.312 z m -1219.496,6.123 c -66.0315,0 -180.8209,164.375 -193.531,277.133 -9.356,83.012 36.9255,117.46 108.1164,80.484 91.8742,-47.718 183.1177,-278.955 132.2551,-335.158 -11.1806,-12.354 -32.261,-22.459 -46.8405,-22.459 z m 1433.2968,0.177 c -6.9473,-0.207 -136.1945,303.95 -139.2181,327.62 -1.1625,9.099 5.5323,18.141 14.8767,20.094 10.4045,2.174 30.9445,-19.606 52.986,-56.169 34.4001,-57.064 183.6434,-213.839 169.9664,-178.543 -3.6182,9.337 -27.079,67.907 -52.1239,130.155 -41.616,103.435 -43.9175,114.401 -26.7472,127.369 24.2386,18.307 25.8938,15.834 69.9628,-104.734 20.4771,-56.023 52.0732,-132.134 70.228,-169.148 29.317,-59.771 31.1241,-69.189 16.0704,-84.243 -18.7131,-18.713 -18.0363,-19.158 -135.0403,89.017 -30.4607,28.163 -52.6832,43.557 -49.3607,34.219 3.3224,-9.337 15.008,-39.131 25.9514,-66.205 16.8141,-41.597 17.4412,-50.773 4.0673,-59.241 -8.7041,-5.512 -18.4345,-10.096 -21.6188,-10.191 z m -898.5958,1.106 c -21.1003,0.431 -45.196,13.12 -72.8807,38.131 -92.2392,83.333 -154.5669,261.363 -109.0889,311.616 23.9624,26.478 51.7423,28.427 93.7922,6.587 91.8743,-47.718 183.1178,-278.955 132.255,-335.158 -13.0689,-14.441 -27.6662,-21.512 -44.0776,-21.176 z m 757.145,15.782 c -6.234,-0.804 -9.6765,3.554 -13.462,13.816 -4.0702,11.035 -34.6317,81.015 -67.9069,155.532 -33.2753,74.517 -57.9863,142 -54.9313,149.961 8.9867,23.42 38.0161,16.595 46.7302,-10.986 4.4251,-14.006 34.4662,-84.623 66.7575,-156.925 55.3879,-124.014 57.526,-132.184 37.7335,-144.545 -6.439,-4.021 -11.1805,-6.37 -14.921,-6.853 z m -764.9703,29.71 c 17.2502,-0.296 25.1381,19.276 19.2316,56.213 -18.5253,115.851 -129.114,263.188 -160.0192,213.183 -20.6489,-33.412 45.343,-195.359 100.6005,-246.871 16.1258,-15.033 29.837,-22.348 40.1871,-22.525 z m -530.7004,1.282 c 1.7327,0.128 3.387,0.474 4.9739,1.083 27.2323,10.45 21.0299,62.311 -17.1537,143.264 -49.9056,105.804 -107.1948,160.415 -129.8453,123.767 -31.5208,-51.002 88.3269,-272.066 142.0251,-268.114 z"
       id="path1272"
       inkscape:connector-curvature="0" />
    <path
       style="opacity:1;fill:url(#radialGradient936);fill-opacity:1;stroke:none;stroke-width:1px;stroke-linecap:butt;stroke-linejoin:miter;stroke-opacity:1"
       d="m 472.91146,-141.30915 c -3.03824,5.1376 -7.45766,11.85511 -10.96409,18.45531 -3.50644,6.60019 -6.09871,13.08089 -7.24801,18.32578 -1.1493,5.244889 -0.85472,9.251081 0.55975,12.993626 1.41447,3.742545 3.94769,7.218355 7.9551,9.9881 4.00742,2.769744 9.48722,4.832035 15.40919,5.539016 5.92198,0.706981 12.28657,0.05873 17.41277,-1.768073 5.1262,-1.826808 9.01596,-4.83253 11.28401,-9.015602 2.26805,-4.183072 2.91642,-9.546829 2.17991,-15.791977 -0.73652,-6.24515 -2.85827,-13.37661 -6.42298,-19.85787 -3.56471,-6.48127 -8.57384,-12.31543 -12.12416,-17.64099 -3.55031,-5.32556 -5.6422,-10.1428 -6.96063,-13.47945 -1.31842,-3.33665 -1.86354,-5.19299 -2.15807,-6.31958 -0.29453,-1.1266 -0.33882,-1.52529 -0.37921,-1.48173 -0.0404,0.0436 -0.0773,0.53077 -0.21002,1.23516 -0.13273,0.70438 -0.36056,1.62306 -0.70698,2.75454 -0.34642,1.13148 -0.80987,2.47033 -1.8712,4.92101 -1.06133,2.45069 -2.71713,6.00514 -5.75538,11.14273 z"
       id="path1730"
       inkscape:connector-curvature="0"
       inkscape:path-effect="#path-effect1732"
       inkscape:original-d="m 474.29187,-142.88791 c -4.41842,6.71651 -8.83783,13.43403 -13.25825,20.15254 -2.59217,6.48193 -5.18445,12.96262 -7.77817,19.44544 0.29568,4.006681 0.59025,8.012873 0.88388,12.020812 2.53538,3.476407 5.0686,6.952216 7.6014,10.429825 5.48135,2.061499 10.96115,4.123789 16.44023,6.187184 6.36433,-0.649117 12.72892,-1.297363 19.09188,-1.944544 3.88942,-3.005689 7.77918,-6.011407 11.66726,-9.015611 0.649,-5.361696 1.29737,-10.725453 1.94455,-16.086676 -2.11989,-7.12953 -4.24164,-14.26099 -6.36396,-21.38998 -5.00722,-5.83411 -10.01635,-11.66827 -15.02602,-17.5009 -2.09083,-4.81809 -4.18272,-9.63533 -6.27557,-14.45149 -0.54401,-1.85697 -1.08913,-3.71331 -1.63519,-5.56847 -0.0358,-0.39861 -0.0874,-0.79649 -0.13258,-1.19324 -0.0358,0.48406 -0.0727,0.97127 -0.11049,1.45841 -0.22784,0.92174 -0.45567,1.84042 -0.68501,2.76213 -0.46363,1.34127 -0.92707,2.68012 -1.39211,4.02167 -1.65777,3.55982 -3.31357,7.11427 -4.97185,10.6729 z"
       transform="matrix(0.86060187,0,0,0.86060187,-320.47471,218.25354)" />
    <path
       style="opacity:1;fill:url(#radialGradient944);fill-opacity:1;stroke:none;stroke-width:1px;stroke-linecap:butt;stroke-linejoin:miter;stroke-opacity:1"
       d="m 472.91146,-141.30915 c -3.03824,5.1376 -7.45766,11.85511 -10.96409,18.45531 -3.50644,6.60019 -6.09871,13.08089 -7.24801,18.32578 -1.1493,5.244889 -0.85472,9.251081 0.55975,12.993626 1.41447,3.742545 3.94769,7.218355 7.9551,9.9881 4.00742,2.769744 9.48722,4.832035 15.40919,5.539016 5.92198,0.706981 12.28657,0.05873 17.41277,-1.768073 5.1262,-1.826808 9.01596,-4.83253 11.28401,-9.015602 2.26805,-4.183072 2.91642,-9.546829 2.17991,-15.791977 -0.73652,-6.24515 -2.85827,-13.37661 -6.42298,-19.85787 -3.56471,-6.48127 -8.57384,-12.31543 -12.12416,-17.64099 -3.55031,-5.32556 -5.6422,-10.1428 -6.96063,-13.47945 -1.31842,-3.33665 -1.86354,-5.19299 -2.15807,-6.31958 -0.29453,-1.1266 -0.33882,-1.52529 -0.37921,-1.48173 -0.0404,0.0436 -0.0773,0.53077 -0.21002,1.23516 -0.13273,0.70438 -0.36056,1.62306 -0.70698,2.75454 -0.34642,1.13148 -0.80987,2.47033 -1.8712,4.92101 -1.06133,2.45069 -2.71713,6.00514 -5.75538,11.14273 z"
       id="path1738"
       inkscape:connector-curvature="0"
       inkscape:path-effect="#path-effect1740"
       inkscape:original-d="m 474.29187,-142.88791 c -4.41842,6.71651 -8.83783,13.43403 -13.25825,20.15254 -2.59217,6.48193 -5.18445,12.96262 -7.77817,19.44544 0.29568,4.006681 0.59025,8.012873 0.88388,12.020812 2.53538,3.476407 5.0686,6.952216 7.6014,10.429825 5.48135,2.061499 10.96115,4.123789 16.44023,6.187184 6.36433,-0.649117 12.72892,-1.297363 19.09188,-1.944544 3.88942,-3.005689 7.77918,-6.011407 11.66726,-9.015611 0.649,-5.361696 1.29737,-10.725453 1.94455,-16.086676 -2.11989,-7.12953 -4.24164,-14.26099 -6.36396,-21.38998 -5.00722,-5.83411 -10.01635,-11.66827 -15.02602,-17.5009 -2.09083,-4.81809 -4.18272,-9.63533 -6.27557,-14.45149 -0.54401,-1.85697 -1.08913,-3.71331 -1.63519,-5.56847 -0.0358,-0.39861 -0.0874,-0.79649 -0.13258,-1.19324 -0.0358,0.48406 -0.0727,0.97127 -0.11049,1.45841 -0.22784,0.92174 -0.45567,1.84042 -0.68501,2.76213 -0.46363,1.34127 -0.92707,2.68012 -1.39211,4.02167 -1.65777,3.55982 -3.31357,7.11427 -4.97185,10.6729 z"
       transform="matrix(0.70619573,0,0,0.70619573,-181.38842,178.03862)" />
    <path
       transform="matrix(0.61569882,0,0,0.61569882,-85.39911,148.75785)"
       inkscape:original-d="m 474.29187,-142.88791 c -4.41842,6.71651 -8.83783,13.43403 -13.25825,20.15254 -2.59217,6.48193 -5.18445,12.96262 -7.77817,19.44544 0.29568,4.006681 0.59025,8.012873 0.88388,12.020812 2.53538,3.476407 5.0686,6.952216 7.6014,10.429825 5.48135,2.061499 10.96115,4.123789 16.44023,6.187184 6.36433,-0.649117 12.72892,-1.297363 19.09188,-1.944544 3.88942,-3.005689 7.77918,-6.011407 11.66726,-9.015611 0.649,-5.361696 1.29737,-10.725453 1.94455,-16.086676 -2.11989,-7.12953 -4.24164,-14.26099 -6.36396,-21.38998 -5.00722,-5.83411 -10.01635,-11.66827 -15.02602,-17.5009 -2.09083,-4.81809 -4.18272,-9.63533 -6.27557,-14.45149 -0.54401,-1.85697 -1.08913,-3.71331 -1.63519,-5.56847 -0.0358,-0.39861 -0.0874,-0.79649 -0.13258,-1.19324 -0.0358,0.48406 -0.0727,0.97127 -0.11049,1.45841 -0.22784,0.92174 -0.45567,1.84042 -0.68501,2.76213 -0.46363,1.34127 -0.92707,2.68012 -1.39211,4.02167 -1.65777,3.55982 -3.31357,7.11427 -4.97185,10.6729 z"
       inkscape:path-effect="#path-effect1744"
       inkscape:connector-curvature="0"
       id="path1742"
       d="m 472.91146,-141.30915 c -3.03824,5.1376 -7.45766,11.85511 -10.96409,18.45531 -3.50644,6.60019 -6.09871,13.08089 -7.24801,18.32578 -1.1493,5.244889 -0.85472,9.251081 0.55975,12.993626 1.41447,3.742545 3.94769,7.218355 7.9551,9.9881 4.00742,2.769744 9.48722,4.832035 15.40919,5.539016 5.92198,0.706981 12.28657,0.05873 17.41277,-1.768073 5.1262,-1.826808 9.01596,-4.83253 11.28401,-9.015602 2.26805,-4.183072 2.91642,-9.546829 2.17991,-15.791977 -0.73652,-6.24515 -2.85827,-13.37661 -6.42298,-19.85787 -3.56471,-6.48127 -8.57384,-12.31543 -12.12416,-17.64099 -3.55031,-5.32556 -5.6422,-10.1428 -6.96063,-13.47945 -1.31842,-3.33665 -1.86354,-5.19299 -2.15807,-6.31958 -0.29453,-1.1266 -0.33882,-1.52529 -0.37921,-1.48173 -0.0404,0.0436 -0.0773,0.53077 -0.21002,1.23516 -0.13273,0.70438 -0.36056,1.62306 -0.70698,2.75454 -0.34642,1.13148 -0.80987,2.47033 -1.8712,4.92101 -1.06133,2.45069 -2.71713,6.00514 -5.75538,11.14273 z"
       style="opacity:1;fill:url(#radialGradient928);fill-opacity:1;stroke:none;stroke-width:1px;stroke-linecap:butt;stroke-linejoin:miter;stroke-opacity:1" />
    <path
       style="opacity:1;fill:url(#radialGradient920);fill-opacity:1;stroke:none;stroke-width:1px;stroke-linecap:butt;stroke-linejoin:miter;stroke-opacity:1"
       d="m 0,181.58008 c 3.7044825,2.06316 8.2354065,3.59861 13.119141,4.18164 5.921977,0.70698 12.285909,0.0592 17.412109,-1.76758 5.1262,-1.82681 9.017104,-4.83255 11.285156,-9.01562 2.268053,-4.18308 2.916202,-9.54587 2.179688,-15.79102 -0.736514,-6.24515 -2.859119,-13.37615 -6.423828,-19.85742 -3.56471,-6.48127 -8.572731,-12.31702 -12.123047,-17.64258 -3.550317,-5.32556 -5.642514,-10.14186 -6.960938,-13.47852 -1.318423,-3.33665 -1.863674,-5.19371 -2.158203,-6.32031 -0.294529,-1.12659 -0.338524,-1.52403 -0.378906,-1.48047 -0.04038,0.0436 -0.07821,0.52999 -0.210938,1.23438 -0.132729,0.70438 -0.36061,1.62243 -0.707031,2.7539 -0.346421,1.13148 -0.809765,2.47119 -1.871094,4.92188 -1.061329,2.45068 -2.71761,6.00498 -5.755859,11.14258 C 5.3228832,123.98385 2.6425345,128.31003 0,132.77148 Z"
       id="path1974"
       inkscape:connector-curvature="0" />
  </g>
</svg>
