<?xml version="1.0" encoding="UTF-8" standalone="no"?>
<svg
   xmlns:dc="http://purl.org/dc/elements/1.1/"
   xmlns:cc="http://creativecommons.org/ns#"
   xmlns:rdf="http://www.w3.org/1999/02/22-rdf-syntax-ns#"
   xmlns:svg="http://www.w3.org/2000/svg"
   xmlns="http://www.w3.org/2000/svg"
   xmlns:xlink="http://www.w3.org/1999/xlink"
   width="324"
   height="234"
   version="1.1"
   id="svg159">
  <metadata
     id="metadata163">
    <rdf:RDF>
      <cc:Work
         rdf:about="">
        <dc:format>image/svg+xml</dc:format>
        <dc:type
           rdf:resource="http://purl.org/dc/dcmitype/StillImage" />
        <dc:title></dc:title>
      </cc:Work>
    </rdf:RDF>
  </metadata>
  <defs
     id="defs105">
    <linearGradient
       id="g">
      <stop
         offset="0"
         stop-color="#e64540"
         id="stop2" />
      <stop
         offset=".362"
         stop-color="#a7197b"
         id="stop4" />
      <stop
         offset="1"
         stop-color="#382ed1"
         id="stop6" />
    </linearGradient>
    <linearGradient
       id="f">
      <stop
         offset="0"
         stop-color="#bb8aca"
         id="stop9" />
      <stop
         offset="1"
         stop-color="#ef9c9d"
         id="stop11" />
    </linearGradient>
    <linearGradient
       id="e">
      <stop
         offset="0"
         stop-color="#e64540"
         id="stop14" />
      <stop
         offset=".507"
         stop-color="#a7197b"
         id="stop16" />
      <stop
         offset="1"
         stop-color="#382ed1"
         id="stop18" />
    </linearGradient>
    <linearGradient
       id="d">
      <stop
         offset="0"
         stop-color="#1d1133"
         id="stop21" />
      <stop
         offset="1"
         stop-color="#24153f"
         id="stop23" />
    </linearGradient>
    <linearGradient
       id="c">
      <stop
         offset="0"
         stop-color="#4e2e89"
         id="stop26" />
      <stop
         offset="1"
         stop-color="#330032"
         stop-opacity="0"
         id="stop28" />
    </linearGradient>
    <linearGradient
       id="b">
      <stop
         offset="0"
         stop-color="#ad17e4"
         id="stop31" />
      <stop
         offset="1"
         stop-color="#9450fb"
         id="stop33" />
    </linearGradient>
    <linearGradient
       id="a">
      <stop
         offset="0"
         stop-color="#71afd3"
         id="stop36" />
      <stop
         offset="1"
         stop-color="#2c7dbd"
         id="stop38" />
    </linearGradient>
    <linearGradient
       xlink:href="#g"
       id="n"
       x1="200"
       y1="133.722"
       x2="2.605"
       y2="-10.111"
       gradientUnits="userSpaceOnUse"
       gradientTransform="matrix(1.6249873,0,0,1.6225675,0,17.39753)" />
    <linearGradient
       gradientTransform="matrix(0.99833,0,0,1.1914,-5.376,-44.8)"
       gradientUnits="userSpaceOnUse"
       y2="173.692"
       x2="168.561"
       y1="173.692"
       x1="0"
       id="o"
       xlink:href="#h" />
    <linearGradient
       id="h">
      <stop
         offset="0"
         stop-color="#ff9a0a"
         id="stop43" />
      <stop
         offset="1"
         stop-color="#e1252e"
         id="stop45" />
    </linearGradient>
    <linearGradient
       xlink:href="#i"
       id="p"
       gradientUnits="userSpaceOnUse"
       x1="-1.873"
       y1="118.983"
       x2="323.127"
       y2="118.983"
       gradientTransform="matrix(0.99833,0,0,1.1914,-4.005,-47.162)" />
    <linearGradient
       id="i"
       y1="22.346"
       x1="29.855"
       y2="28.506"
       x2="54.32"
       gradientUnits="userSpaceOnUse">
      <stop
         stop-color="#ffc169"
         id="stop49" />
      <stop
         offset="1"
         stop-color="#ffa92d"
         id="stop51" />
    </linearGradient>
    <linearGradient
       gradientTransform="matrix(1.78489,0,0,1,-259.676,-0.017)"
       gradientUnits="userSpaceOnUse"
       y2="54.621"
       x2="324"
       y1="54.621"
       x1="231.984"
       id="q"
       xlink:href="#h" />
    <linearGradient
       xlink:href="#i"
       id="r"
       gradientUnits="userSpaceOnUse"
       x1="-1.873"
       y1="118.983"
       x2="323.127"
       y2="118.983"
       gradientTransform="matrix(1.78489,0,0,1,-257.226,-2)" />
    <linearGradient
       id="j">
      <stop
         offset="0"
         stop-color="#ffde91"
         id="stop56" />
      <stop
         offset="1"
         stop-color="#ffc066"
         id="stop58" />
    </linearGradient>
    <linearGradient
       xlink:href="#i"
       id="N"
       gradientUnits="userSpaceOnUse"
       x1="-1.873"
       y1="118.983"
       x2="323.127"
       y2="118.983" />
    <linearGradient
       id="k">
      <stop
         offset="0"
         stop-color="#ffccd1"
         id="stop62" />
      <stop
         offset="1"
         stop-color="#ffd7dd"
         id="stop64" />
    </linearGradient>
    <linearGradient
       id="l">
      <stop
         offset="0"
         stop-color="#ffdfe2"
         id="stop67" />
      <stop
         offset="1"
         stop-color="#ffdfe3"
         id="stop69" />
    </linearGradient>
    <linearGradient
       gradientTransform="matrix(0.52726,0,0,0.71738,23.506,175.107)"
       y2="-244.006"
       x2="214.998"
       y1="-157"
       x1="214.998"
       gradientUnits="userSpaceOnUse"
       id="E"
       xlink:href="#m" />
    <linearGradient
       id="m">
      <stop
         offset="0"
         stop-color="#ff9a0a"
         id="stop73" />
      <stop
         offset="1"
         stop-color="#c61f00"
         id="stop75" />
    </linearGradient>
    <linearGradient
       xlink:href="#i"
       id="F"
       gradientUnits="userSpaceOnUse"
       x1="-1.873"
       y1="118.983"
       x2="323.127"
       y2="118.983"
       gradientTransform="matrix(0.96434,0,0,1.38566,0.949,-2.687)" />
    <linearGradient
       y2="-244.006"
       x2="214.998"
       y1="-157"
       x1="214.998"
       gradientTransform="matrix(0.49913,0,0,1.08145,90.677,264.053)"
       gradientUnits="userSpaceOnUse"
       id="G"
       xlink:href="#m" />
    <linearGradient
       xlink:href="#i"
       id="H"
       gradientUnits="userSpaceOnUse"
       x1="-1.873"
       y1="118.983"
       x2="323.127"
       y2="118.983"
       gradientTransform="matrix(0.9129,0,0,2.08886,13.42,-3.969)" />
    <linearGradient
       xlink:href="#i"
       id="t"
       gradientUnits="userSpaceOnUse"
       x1="-1.873"
       y1="118.983"
       x2="323.127"
       y2="118.983" />
    <linearGradient
       xlink:href="#i"
       id="w"
       gradientUnits="userSpaceOnUse"
       x1="-1.873"
       y1="118.983"
       x2="323.127"
       y2="118.983" />
    <linearGradient
       xlink:href="#i"
       id="y"
       gradientUnits="userSpaceOnUse"
       x1="-1.873"
       y1="118.983"
       x2="323.127"
       y2="118.983" />
    <linearGradient
       xlink:href="#i"
       id="A"
       gradientUnits="userSpaceOnUse"
       x1="-1.873"
       y1="118.983"
       x2="323.127"
       y2="118.983" />
    <linearGradient
       xlink:href="#i"
       id="D"
       gradientUnits="userSpaceOnUse"
       x1="-1.873"
       y1="118.983"
       x2="323.127"
       y2="118.983" />
    <linearGradient
       xlink:href="#i"
       id="J"
       gradientUnits="userSpaceOnUse"
       x1="-1.873"
       y1="118.983"
       x2="323.127"
       y2="118.983" />
    <linearGradient
       xlink:href="#i"
       id="L"
       gradientUnits="userSpaceOnUse"
       x1="-1.873"
       y1="118.983"
       x2="323.127"
       y2="118.983" />
    <radialGradient
       gradientUnits="userSpaceOnUse"
       gradientTransform="matrix(0.61034,0,0,0.367,-9.264,-13.292)"
       r="10.896"
       fy="-20.999"
       fx="-15.896"
       cy="-20.999"
       cx="-15.896"
       id="s"
       xlink:href="#j" />
    <radialGradient
       r="10.896"
       fy="-20.999"
       fx="-15.896"
       cy="-20.999"
       cx="-15.896"
       gradientTransform="matrix(0.61034,0,0,0.367,-64.133,-29.292)"
       gradientUnits="userSpaceOnUse"
       id="v"
       xlink:href="#j" />
    <radialGradient
       r="10.896"
       fy="-20.999"
       fx="-15.896"
       cy="-20.999"
       cx="-15.896"
       gradientTransform="matrix(0.61034,0,0,0.367,-133.634,-29.292)"
       gradientUnits="userSpaceOnUse"
       id="x"
       xlink:href="#j" />
    <radialGradient
       r="10.896"
       fy="-20.999"
       fx="-15.896"
       cy="-20.999"
       cx="-15.896"
       gradientTransform="matrix(0.61034,0,0,0.367,301.66,-29.292)"
       gradientUnits="userSpaceOnUse"
       id="z"
       xlink:href="#k" />
    <radialGradient
       r="10.896"
       fy="-20.999"
       fx="-15.896"
       cy="-20.999"
       cx="-15.896"
       gradientTransform="matrix(0.61034,0,0,0.367,375.472,-13.292)"
       gradientUnits="userSpaceOnUse"
       id="C"
       xlink:href="#l" />
    <radialGradient
       r="10.896"
       fy="-20.999"
       fx="-15.896"
       cy="-20.999"
       cx="-15.896"
       gradientTransform="matrix(0.61034,0,0,0.367,375.472,-86.691)"
       gradientUnits="userSpaceOnUse"
       id="I"
       xlink:href="#l" />
    <radialGradient
       r="10.896"
       fy="-20.999"
       fx="-15.896"
       cy="-20.999"
       cx="-15.896"
       gradientTransform="matrix(0.61034,0,0,0.367,375.472,-86.691)"
       gradientUnits="userSpaceOnUse"
       id="K"
       xlink:href="#l" />
    <radialGradient
       r="10.896"
       fy="-20.999"
       fx="-15.896"
       cy="-20.999"
       cx="-15.896"
       gradientTransform="matrix(0.61034,0,0,0.367,386.431,253.861)"
       gradientUnits="userSpaceOnUse"
       id="M"
       xlink:href="#l" />
    <clipPath
       id="O" />
    <clipPath
       id="P" />
    <clipPath
       id="Q" />
    <filter
       height="1.731"
       y="-.365"
       width="1.439"
       x="-.22"
       id="u"
       color-interpolation-filters="sRGB">
      <feGaussianBlur
         stdDeviation="1.217"
         id="feGaussianBlur99" />
    </filter>
    <filter
       height="1.901"
       y="-.451"
       width="1.542"
       x="-.271"
       id="B"
       color-interpolation-filters="sRGB">
      <feGaussianBlur
         stdDeviation="1.502"
         id="feGaussianBlur102" />
    </filter>
    <linearGradient
       id="SVGID_1_"
       gradientUnits="userSpaceOnUse"
       x1="16.7826"
       y1="3.8575001"
       x2="16.7826"
       y2="34.8647">
      <stop
         offset="0"
         style="stop-color:#FD318E"
         id="stop4-3" />
      <stop
         offset="1"
         style="stop-color:#8056F7"
         id="stop6-6" />
    </linearGradient>
    <linearGradient
       id="SVGID_2_"
       gradientUnits="userSpaceOnUse"
       x1="19.3202"
       y1="21.6264"
       x2="35.8092"
       y2="39.625801">
      <stop
         offset="0"
         style="stop-color:#C841BA"
         id="stop11-7" />
      <stop
         offset="1"
         style="stop-color:#8056F7"
         id="stop13" />
    </linearGradient>
    <linearGradient
       id="SVGID_3_"
       gradientUnits="userSpaceOnUse"
       x1="23.9412"
       y1="9.5263004"
       x2="33.758999"
       y2="30.0431">
      <stop
         offset="0"
         style="stop-color:#C841BA"
         id="stop18-5" />
      <stop
         offset="1"
         style="stop-color:#8056F7"
         id="stop20" />
    </linearGradient>
    <linearGradient
       xlink:href="#SVGID_1_"
       id="linearGradient991"
       gradientUnits="userSpaceOnUse"
       x1="16.7826"
       y1="3.8575001"
       x2="16.7826"
       y2="34.8647" />
    <linearGradient
       xlink:href="#SVGID_2_"
       id="linearGradient993"
       gradientUnits="userSpaceOnUse"
       x1="19.3202"
       y1="21.6264"
       x2="35.8092"
       y2="39.625801" />
    <linearGradient
       xlink:href="#SVGID_3_"
       id="linearGradient995"
       gradientUnits="userSpaceOnUse"
       x1="23.9412"
       y1="9.5263004"
       x2="33.758999"
       y2="30.0431" />
  </defs>
  <g
     transform="matrix(.88274 0 0 1.12724 142.934 161.644)"
     clip-path="url(#O)"
     fill="maroon"
     id="g149">
    <path
       d="M19 12h10v16h4.996L24 36l-10-8h5m0-16"
       id="path147" />
  </g>
  <g
     transform="matrix(.88274 0 0 1.12724 143.545 18.249)"
     clip-path="url(#P)"
     fill="maroon"
     id="g153">
    <path
       d="M19 12h10v16h4.996L24 36l-10-8h5m0-16"
       id="path151" />
  </g>
  <g
     transform="matrix(.88274 0 0 1.12724 142.73 90.988)"
     clip-path="url(#Q)"
     fill="maroon"
     id="g157">
    <path
       d="M19 12h10v16h4.996L24 36l-10-8h5m0-16"
       id="path155" />
  </g>
  <g
     id="g1474">
    <path
       d="M 0,0 V 234.37086 H 324.99747 V 0 h -45.13854 z"
       fill="url(#n)"
       fill-rule="evenodd"
       paint-order="markers fill stroke"
       id="path107"
       style="fill:url(#n);stroke-width:1.00233" />
    <text
       xml:space="preserve"
       style="font-style:normal;font-variant:normal;font-weight:bold;font-stretch:normal;font-size:52.4813px;line-height:1.25;font-family:sans-serif;-inkscape-font-specification:'sans-serif Bold';letter-spacing:0px;word-spacing:0px;fill:#f9f9f9;fill-opacity:1;stroke:none;stroke-width:1.31203"
       x="42.522366"
       y="78.668449"
       id="text1338"
       transform="scale(0.93940423,1.0645045)"><tspan
         id="tspan1336"
         x="42.522366"
         y="78.668449"
         style="stroke-width:1.31203">PhpStorm</tspan></text>
    <g
       id="g39"
       transform="matrix(2.5907298,0,0,2.5995022,94.977926,99.960654)">
      <g
         id="g37">
        <linearGradient
           id="linearGradient1050"
           gradientUnits="userSpaceOnUse"
           x1="16.7826"
           y1="3.8575001"
           x2="16.7826"
           y2="34.8647">
          <stop
             offset="0"
             style="stop-color:#FD318E"
             id="stop1046" />
          <stop
             offset="1"
             style="stop-color:#8056F7"
             id="stop1048" />
        </linearGradient>
        <polygon
           style="fill:url(#linearGradient991)"
           points="3,11.165 7.531,35.08 30.565,34.451 25.782,6.634 10.678,3.109 "
           id="polygon9" />
        <linearGradient
           id="linearGradient1057"
           gradientUnits="userSpaceOnUse"
           x1="19.3202"
           y1="21.6264"
           x2="35.8092"
           y2="39.625801">
          <stop
             offset="0"
             style="stop-color:#C841BA"
             id="stop1053" />
          <stop
             offset="1"
             style="stop-color:#8056F7"
             id="stop1055" />
        </linearGradient>
        <polygon
           style="fill:url(#linearGradient993)"
           points="20.354,15.675 15.068,39.087 28.914,43.996 45.025,35.059 33.193,14.668 "
           id="polygon16" />
        <linearGradient
           id="linearGradient1064"
           gradientUnits="userSpaceOnUse"
           x1="23.9412"
           y1="9.5263004"
           x2="33.758999"
           y2="30.0431">
          <stop
             offset="0"
             style="stop-color:#C841BA"
             id="stop1060" />
          <stop
             offset="1"
             style="stop-color:#8056F7"
             id="stop1062" />
        </linearGradient>
        <polygon
           style="fill:url(#linearGradient995)"
           points="40.751,8.532 46.037,22.252 34.583,33.329 15.577,28.168 20.108,16.084 30.177,6.015 "
           id="polygon23" />
        <g
           id="g35">
          <path
             d="M 37,38 H 11 c -0.552,0 -1,-0.448 -1,-1 V 11 c 0,-0.552 0.448,-1 1,-1 h 26 c 0.552,0 1,0.448 1,1 v 26 c 0,0.552 -0.448,1 -1,1 z"
             id="path25" />
          <rect
             x="14"
             y="31"
             style="fill:#ffffff"
             width="9"
             height="2"
             id="rect27" />
          <g
             id="g33">
            <path
               style="fill:#ffffff"
               d="m 15.07,21.353 v 3.608 h -2.09 v -9.989 h 4.569 c 0.967,0 1.726,0.285 2.278,0.855 0.553,0.569 0.829,1.351 0.829,2.342 0,0.705 -0.195,1.349 -0.585,1.933 -0.558,0.834 -1.426,1.251 -2.605,1.251 z m 0,-1.728 h 1.937 c 0.669,0 1.124,-0.203 1.365,-0.61 0.13,-0.222 0.195,-0.535 0.195,-0.942 0,-0.49 -0.145,-0.841 -0.432,-1.054 C 17.847,16.806 17.377,16.7 16.728,16.7 H 15.07 Z"
               id="path29" />
            <path
               style="fill:#ffffff"
               d="m 21.756,21.882 h 2.007 c 0,0.409 0.12,0.748 0.362,1.018 0.362,0.399 0.947,0.599 1.755,0.599 0.595,0 1.068,-0.083 1.421,-0.25 0.446,-0.214 0.669,-0.562 0.669,-1.044 0,-0.361 -0.167,-0.635 -0.502,-0.82 -0.223,-0.12 -0.659,-0.26 -1.31,-0.417 l -1.072,-0.251 c -1.068,-0.25 -1.797,-0.51 -2.188,-0.778 -0.659,-0.454 -0.989,-1.173 -0.989,-2.156 0,-0.77 0.232,-1.419 0.697,-1.947 0.659,-0.751 1.708,-1.127 3.148,-1.127 1.365,0 2.396,0.384 3.093,1.151 0.538,0.592 0.808,1.281 0.808,2.067 H 27.65 c -0.047,-0.396 -0.163,-0.7 -0.349,-0.911 -0.334,-0.387 -0.9,-0.58 -1.699,-0.58 -0.474,0 -0.864,0.084 -1.171,0.251 -0.381,0.213 -0.57,0.528 -0.57,0.945 0,0.344 0.12,0.604 0.361,0.779 0.14,0.102 0.372,0.19 0.697,0.264 l 2.438,0.599 c 0.827,0.204 1.436,0.468 1.825,0.793 0.529,0.436 0.794,1.066 0.794,1.892 0,1.011 -0.334,1.794 -1.003,2.351 -0.733,0.612 -1.714,0.918 -2.939,0.918 -1.625,0 -2.796,-0.399 -3.511,-1.198 -0.511,-0.569 -0.767,-1.283 -0.767,-2.148 z"
               id="path31" />
          </g>
        </g>
      </g>
    </g>
  </g>
</svg>
