<svg xmlns="http://www.w3.org/2000/svg" xmlns:xlink="http://www.w3.org/1999/xlink" viewBox="0 0 324 234">
  <defs>
    <linearGradient id="f">
      <stop offset="0" stop-color="#251654"/>
      <stop offset="1" stop-color="#6e47f0"/>
    </linearGradient>
    <linearGradient id="b">
      <stop offset="0" stop-color="#5d7730"/>
      <stop offset="1" stop-color="#9ebf63"/>
    </linearGradient>
    <linearGradient id="e">
      <stop offset="0" stop-color="#536b22"/>
      <stop offset="1" stop-color="#536b22" stop-opacity="0"/>
    </linearGradient>
    <linearGradient id="d">
      <stop offset="0" stop-color="#536b22"/>
      <stop offset="1" stop-color="#536b22" stop-opacity="0"/>
    </linearGradient>
    <linearGradient id="c">
      <stop offset="0" stop-color="#607a33"/>
      <stop offset="1" stop-color="#718b44"/>
    </linearGradient>
    <linearGradient id="h">
      <stop offset="0" stop-color="#5d7730"/>
      <stop offset="1" stop-color="#b2cd84"/>
    </linearGradient>
    <linearGradient id="g">
      <stop offset="0" stop-color="#a4c56a"/>
      <stop offset="1" stop-color="#7a9d3c"/>
    </linearGradient>
    <linearGradient xlink:href="#a" id="n" x1="370.7" x2="371.8" y1="1073" y2="889.3" gradientTransform="translate(-866.1 -631)" gradientUnits="userSpaceOnUse"/>
    <linearGradient id="a">
      <stop offset="0" stop-color="#3d258d"/>
      <stop offset="1" stop-color="#6e47f0"/>
    </linearGradient>
    <linearGradient xlink:href="#b" id="r" x1="-210.4" x2="-161.6" y1="312.5" y2="312.5" gradientUnits="userSpaceOnUse"/>
    <linearGradient xlink:href="#c" id="s" x1="-206.2" x2="-183.7" y1="298" y2="298" gradientUnits="userSpaceOnUse"/>
    <linearGradient xlink:href="#d" id="p" x1="-5.6" x2="17.4" y1="266.9" y2="266.9" gradientUnits="userSpaceOnUse"/>
    <linearGradient xlink:href="#e" id="o" x1="27.7" x2="45.9" y1="222.5" y2="222.5" gradientUnits="userSpaceOnUse"/>
    <linearGradient xlink:href="#f" id="j" x1="-.9" x2="323.1" y1="66.6" y2="66.6" gradientUnits="userSpaceOnUse"/>
    <radialGradient xlink:href="#g" id="m" cx="-145.6" cy="200.7" r="114.8" fx="-145.6" fy="200.7" gradientTransform="matrix(.40188 .01183 -.0282 .95826 207.3 -62)" gradientUnits="userSpaceOnUse"/>
    <radialGradient xlink:href="#h" id="q" cx="-179.4" cy="164.2" r="36.6" fx="-179.4" fy="164.2" gradientTransform="matrix(.94002 .08424 -.7953 8.87504 428.5 -1338)" gradientUnits="userSpaceOnUse"/>
    <pattern xlink:href="#i" id="l" patternTransform="matrix(.68156 0 0 .81948 25 19)"/>
    <pattern id="i" width="400" height="230" patternTransform="matrix(.68156 0 0 .81948 26 22.3)" patternUnits="userSpaceOnUse">
      <use xlink:href="#b"/>
    </pattern>
    <clipPath id="k">
      <path d="M26 22.3h272.6v188.5H25.9Zm0 0"/>
    </clipPath>
  </defs>
  <path fill="#fff" d="m323.1 128.1-3.4.7a535.5 535.5 0 0 1-42.6 6.6 259 259 0 0 1-27.6 1.1 170.2 170.2 0 0 1-39.2-5.4 298.4 298.4 0 0 1-24.6-7l-23.2-7.6a349.9 349.9 0 0 0-21.7-6 142.1 142.1 0 0 0-40.3-2.9 256 256 0 0 0-20.5 2.1 3685.9 3685.9 0 0 0-72.3 12.6l-8.6 1.6v106.7h324V128.1z"/>
  <path fill="url(#j)" d="M-.9-3.4V124l8.6-1.6A3685.9 3685.9 0 0 1 80 109.7a256 256 0 0 1 30.5-2.4 148.4 148.4 0 0 1 52 9.2l23.2 7.6a488.7 488.7 0 0 0 24.6 7 216.7 216.7 0 0 0 25.8 4.6 170.2 170.2 0 0 0 27.1.7 259 259 0 0 0 28-2.7c9.4-1.3 19-3 28.5-4.9l3.4-.7V-3.4H-.9z"/>
  <g clip-path="url(#k)" transform="translate(377.4 198.2)">
    <path fill="url(#l)" d="M323.1 121c-1.5.4-2.9.8-4.4 1a207.2 207.2 0 0 1-51.4 3.3 510.8 510.8 0 0 1-41-4.8c-14.5-2.3-29.4-5.2-44.4-8.2-15-3-29.9-6-44.4-8.7a725.6 725.6 0 0 0-41.6-6.1 283.5 283.5 0 0 0-36.2-1.3 187.5 187.5 0 0 0-31.4 4.1 147.2 147.2 0 0 0-27.6 9.3l-1.6.8v120.2h324V121.1z" transform="translate(-377.4 -198.2)"/>
    <path fill="none" d="M-378.3-201.6v113.8l1.6-.8a142.3 142.3 0 0 1 42.7-12 187.5 187.5 0 0 1 33.7-1.5 283.5 283.5 0 0 1 39 4c7 1 14.1 2.2 21.4 3.5 14.5 2.6 29.5 5.7 44.4 8.7 15 3 30 5.9 44.3 8.2a510.8 510.8 0 0 0 41 4.7 230.7 230.7 0 0 0 51.6-3l4.4-1v-124.5h-324z"/>
  </g>
  <g transform="translate(201.6 35.7) scale(.40206)">
    <path fill="#fff" d="M-60.6 205.8c-1.5.1-1.6.8-1.9 3.1-.6 7 5.4 10.7 9.9 6.2 1-1 2-3.1 2-4.5 0-2.8-2.2-4-8.1-4.6l-2-.2zm16.5 2-2.3.1c-1.8.6-1.5 7.2.4 9.4 2.3 2.5 6.9 2.3 8.8-.4a11 11 0 0 0 1.6-5.4c0-3-.2-3.2-4.8-3.6l-3.7-.2z"/>
    <path fill="url(#m)" d="M166.8 22c-1.4 0-2.8 1.7-2.8 3.2 0 .6-.8 1.8-2.1 3.3a25.5 25.5 0 0 0-5.4 10.5c-.6 2.9-.7 9.4-.2 11.8.5 2 0 2.6-1.7 2.7a42 42 0 0 0-11.6 2.9c-8.1 3.5-12.6 9.8-14 19.6-.8 5.7-1.2 19.4-1.2 40.6 0 0 1.7 13 .2 20.2l2-1 1.4-.4c.4-.2.8-.2 1.2-.2l1.1.1a4.2 4.2 0 0 1 2 1.4 4 4 0 0 1 1 2.1l-.1 1.4a13.7 13.7 0 0 1-1.5 4h-4.3v27.2h55.9v-20.8l.1.3.1.4.1.3.1.3.1.4.1.3.1.4.1.3.1.4.1.3.1.4a63 63 0 0 1 .2.7l1 .2c.7 0 1.4.2 2 .4l.3.1v-8.4l4 .3h5c2.4-.2 4.6-.7 6.7-1.5l1.6-.8a20.2 20.2 0 0 0 7.8-6.4c.5-.6 2.2-4.3 3.1-7a76.3 76.3 0 0 0 .5-7.8v-2.5c-.2-6-1-9.2-2.1-8.7l-.6.6c-.5.7-.7.7-1.5.2-.8-.5-1-.4-1.5.3a4 4 0 0 1-1.4 1c-.6.2-.7.5-.5 1.4a53.8 53.8 0 0 1 .4 11.7l-.2 1.6c-1.1 4-3.4 6.9-7 8.6-1.3.7-2.8 1.2-4.6 1.5l-1.6.2c-2.5.2-5.5 0-7-.6l-1-.4v-9.8c0-11.2-.3-10.4 3.3-10.9 3.6-.5 8-3.8 8-3.8l-.1-22.6s1.4-14.5-.2-21.5c-.2-1-.7-1.8-1.3-2.6-3.2-4.4-6-8.3-12-11.3-2.2-1-4.4-2-4.8-2a3 3 0 0 1-1.6-.5c-.7-.5-.6-.8 1.9-6.1 1.4-3.1 2.8-6.2 3-7 .3-.8.5-3.7.6-6.6.2-4.6.1-5.2-.6-6.1-1.5-2-4.7-.5-4.7 2.1 0 1.2 1.6 3 2.7 3 1.2 0 1.4.4 1.3 3.4 0 2.8-1.1 6.1-4.4 12.6-2.1 4.3-1.6 4-7.2 3.4-2.1-.2-2.5-.4-2.3-1 .4-1-.3-1.3-2-.8-1.8.5-2.2-.2-1.2-1.8 1.6-2.4-1.3-1.3-4.3 1.6-1.7 1.7-1.8 1.8-4.5 2h-2.8l-.6-1.8a33 33 0 0 1 .7-13.5c1-3.3 1.8-4.7 3.8-7.2 2-2.5 2.4-2.8 4.5-2.6 1.4 0 1.8-.1 2.4-.9 1.4-2 .2-4.7-2.2-4.7zm33 120.7z" transform="translate(-501.5 -88.8) scale(2.48722)"/>
    <ellipse cx="178.4" cy="354.7" fill="#9fc84d" rx="15.7" ry="13.6" transform="matrix(.8284 .56013 -.61095 .79167 0 0)"/>
    <path fill="#76973c" d="M-41.5 317.5h17.6v42.9h-17.6z"/>
    <path fill="#9fc84d" d="M-35.9 309.4h-20.9v51h15.3l2.2-30.2 3.4-20.8z"/>
    <ellipse cx="-118.2" cy="382.8" fill="#9fc84d" rx="10.2" ry="11.6"/>
    <path fill="#a0c84d" d="M-33.9 297.2a61.3 103.9 0 0 0 0-.4 61.3 103.9 0 0 0-.3-.8 61.3 103.9 0 0 0-.2-1 61.3 103.9 0 0 0-.2-.8 61.3 103.9 0 0 0-.2-.8 61.3 103.9 0 0 0-.3-.9 61.3 103.9 0 0 0-.2-.9 61.3 103.9 0 0 0-.2-.8 61.3 103.9 0 0 0-.3-.9 61.3 103.9 0 0 0-.2-.8 61.3 103.9 0 0 0-.3-.8 61.3 103.9 0 0 0-.2-.9 61.3 103.9 0 0 0-.3-.8 61.3 103.9 0 0 0-.3-.8 61.3 103.9 0 0 0-.2-.9 61.3 103.9 0 0 0-.3-.8 61.3 103.9 0 0 0-.3-.8 61.3 103.9 0 0 0-.3-.8 61.3 103.9 0 0 0-.3-.8 61.3 103.9 0 0 0-.3-.8 61.3 103.9 0 0 0-.3-.8 61.3 103.9 0 0 0-.3-.8 61.3 103.9 0 0 0-.3-.8 61.3 103.9 0 0 0-.3-.8 61.3 103.9 0 0 0-.3-.8 61.3 103.9 0 0 0-.3-.8 61.3 103.9 0 0 0-.4-.7 61.3 103.9 0 0 0-.3-.8 61.3 103.9 0 0 0-.3-.8 61.3 103.9 0 0 0-.3-.7 61.3 103.9 0 0 0-.4-.8 61.3 103.9 0 0 0-.3-.7 61.3 103.9 0 0 0-.4-.7 61.3 103.9 0 0 0-.3-.8 61.3 103.9 0 0 0-.4-.7 61.3 103.9 0 0 0-.3-.7 61.3 103.9 0 0 0-.4-.7 61.3 103.9 0 0 0-.4-.8 61.3 103.9 0 0 0-.4-.7 61.3 103.9 0 0 0-.3-.7 61.3 103.9 0 0 0-.4-.7 61.3 103.9 0 0 0-.4-.6 61.3 103.9 0 0 0-.4-.7 61.3 103.9 0 0 0-.4-.7 61.3 103.9 0 0 0-.4-.7 61.3 103.9 0 0 0-.4-.6 61.3 103.9 0 0 0-.4-.7 61.3 103.9 0 0 0-.4-.6 61.3 103.9 0 0 0-.4-.7 61.3 103.9 0 0 0-.4-.6 61.3 103.9 0 0 0-.4-.7 61.3 103.9 0 0 0-.4-.6 61.3 103.9 0 0 0-.4-.6 61.3 103.9 0 0 0-.5-.6 61.3 103.9 0 0 0-.4-.6 61.3 103.9 0 0 0-.4-.6 61.3 103.9 0 0 0-.5-.6 61.3 103.9 0 0 0-.4-.6 61.3 103.9 0 0 0-.4-.6 61.3 103.9 0 0 0-.5-.6 61.3 103.9 0 0 0-.4-.5 61.3 103.9 0 0 0-.5-.6 61.3 103.9 0 0 0-.4-.5 61.3 103.9 0 0 0-.5-.6 61.3 103.9 0 0 0-.4-.5 61.3 103.9 0 0 0-.5-.6 61.3 103.9 0 0 0-.5-.5 61.3 103.9 0 0 0-.4-.5 61.3 103.9 0 0 0-.5-.5 61.3 103.9 0 0 0-.5-.5 61.3 103.9 0 0 0-.4-.5 61.3 103.9 0 0 0-.5-.5 61.3 103.9 0 0 0-.5-.5 61.3 103.9 0 0 0-.5-.4 61.3 103.9 0 0 0-.5-.5 61.3 103.9 0 0 0-.5-.5 61.3 103.9 0 0 0-.5-.4 61.3 103.9 0 0 0-.4-.5 61.3 103.9 0 0 0-.5-.4 61.3 103.9 0 0 0-.5-.4 61.3 103.9 0 0 0-.5-.4 61.3 103.9 0 0 0-.5-.5 61.3 103.9 0 0 0-.5-.4 61.3 103.9 0 0 0-.6-.4 61.3 103.9 0 0 0-.5-.4 61.3 103.9 0 0 0-.5-.3 61.3 103.9 0 0 0-.5-.4 61.3 103.9 0 0 0-.5-.4 61.3 103.9 0 0 0-.5-.3 61.3 103.9 0 0 0-.5-.4 61.3 103.9 0 0 0-.6-.3 61.3 103.9 0 0 0-.5-.3 61.3 103.9 0 0 0-.5-.4 61.3 103.9 0 0 0-.5-.3 61.3 103.9 0 0 0-.6-.3 61.3 103.9 0 0 0-.5-.3 61.3 103.9 0 0 0-.5-.3 61.3 103.9 0 0 0-.5-.3 61.3 103.9 0 0 0-.6-.3 61.3 103.9 0 0 0-.5-.2 61.3 103.9 0 0 0-.6-.3 61.3 103.9 0 0 0-.5-.2 61.3 103.9 0 0 0-.5-.3 61.3 103.9 0 0 0-.6-.2 61.3 103.9 0 0 0-.5-.2 61.3 103.9 0 0 0-.6-.3 61.3 103.9 0 0 0-.5-.2 61.3 103.9 0 0 0-.5-.2 61.3 103.9 0 0 0-.6-.2 61.3 103.9 0 0 0-.5-.1 61.3 103.9 0 0 0-.6-.2 61.3 103.9 0 0 0-.5-.2 61.3 103.9 0 0 0-.6-.1 61.3 103.9 0 0 0-.5-.2 61.3 103.9 0 0 0-.6-.1 61.3 103.9 0 0 0-.5-.2 61.3 103.9 0 0 0-.6 0 61.3 103.9 0 0 0-.5-.2 61.3 103.9 0 0 0-.6-.1 61.3 103.9 0 0 0-.6-.1 61.3 103.9 0 0 0-.5-.1 61.3 103.9 0 0 0-.6 0 61.3 103.9 0 0 0-.5-.2 61.3 103.9 0 0 0-.6 0 61.3 103.9 0 0 0-.5 0 61.3 103.9 0 0 0-.6-.1 61.3 103.9 0 0 0-.6 0 61.3 103.9 0 0 0-.5 0 61.3 103.9 0 0 0-.6-.1 61.3 103.9 0 0 0-.5 0 61.3 103.9 0 0 0-.6 0 61.3 103.9 0 0 0-.3 0 61.3 103.9 0 0 0-.5 0 61.3 103.9 0 0 0-.6 0 61.3 103.9 0 0 0-.5 0 61.3 103.9 0 0 0-.6 0 61.3 103.9 0 0 0-.5.1 61.3 103.9 0 0 0-.6 0 61.3 103.9 0 0 0-.6.1 61.3 103.9 0 0 0-.5 0 61.3 103.9 0 0 0-.6.2 61.3 103.9 0 0 0-.5 0 61.3 103.9 0 0 0-.6.1 61.3 103.9 0 0 0-.5.1 61.3 103.9 0 0 0-.6.2 61.3 103.9 0 0 0-.5 0 61.3 103.9 0 0 0-.6.2 61.3 103.9 0 0 0-.6.1 61.3 103.9 0 0 0-.5.2 61.3 103.9 0 0 0-.6.1 61.3 103.9 0 0 0-.5.2 61.3 103.9 0 0 0-.6.2 61.3 103.9 0 0 0-.5.2 61.3 103.9 0 0 0-.5.1 61.3 103.9 0 0 0-.6.2 61.3 103.9 0 0 0-.5.2 61.3 103.9 0 0 0-.6.3 61.3 103.9 0 0 0-.5.2 61.3 103.9 0 0 0-.6.2 61.3 103.9 0 0 0-.5.2 61.3 103.9 0 0 0-.5.3 61.3 103.9 0 0 0-.6.2 61.3 103.9 0 0 0-.5.3 61.3 103.9 0 0 0-.5.3 61.3 103.9 0 0 0-.6.3 61.3 103.9 0 0 0-.5.3 61.3 103.9 0 0 0-.5.2 61.3 103.9 0 0 0-.6.4 61.3 103.9 0 0 0-.5.3 61.3 103.9 0 0 0-.5.3 61.3 103.9 0 0 0-.5.3 61.3 103.9 0 0 0-.6.4 61.3 103.9 0 0 0-.5.3 61.3 103.9 0 0 0-.5.3 61.3 103.9 0 0 0-.5.4 61.3 103.9 0 0 0-.5.4 61.3 103.9 0 0 0-.5.4 61.3 103.9 0 0 0-.6.3 61.3 103.9 0 0 0-.5.4 61.3 103.9 0 0 0-.5.4 61.3 103.9 0 0 0-.5.4 61.3 103.9 0 0 0-.5.5 61.3 103.9 0 0 0-.5.4 61.3 103.9 0 0 0-.5.4 61.3 103.9 0 0 0-.5.5 61.3 103.9 0 0 0-.5.4 61.3 103.9 0 0 0-.4.5 61.3 103.9 0 0 0-.5.4 61.3 103.9 0 0 0-.5.5 61.3 103.9 0 0 0-.5.5 61.3 103.9 0 0 0-.5.4 61.3 103.9 0 0 0-.5.5 61.3 103.9 0 0 0-.4.5 61.3 103.9 0 0 0-.5.5 61.3 103.9 0 0 0-.5.6 61.3 103.9 0 0 0-.4.5 61.3 103.9 0 0 0-.5.5 61.3 103.9 0 0 0-.5.5 61.3 103.9 0 0 0-.4.6 61.3 103.9 0 0 0-.5.5 61.3 103.9 0 0 0-.4.6 61.3 103.9 0 0 0-.5.5 61.3 103.9 0 0 0-.4.6 61.3 103.9 0 0 0-.5.6 61.3 103.9 0 0 0-.4.6 61.3 103.9 0 0 0-.4.6 61.3 103.9 0 0 0-.5.6 61.3 103.9 0 0 0-.4.6 61.3 103.9 0 0 0-.4.6 61.3 103.9 0 0 0-.4.6 61.3 103.9 0 0 0-.5.6 61.3 103.9 0 0 0-.4.6 61.3 103.9 0 0 0-.4.7 61.3 103.9 0 0 0-.4.6 61.3 103.9 0 0 0-.4.7 61.3 103.9 0 0 0-.4.6 61.3 103.9 0 0 0-.4.7 61.3 103.9 0 0 0-.4.7 61.3 103.9 0 0 0-.4.6 61.3 103.9 0 0 0-.4.7 61.3 103.9 0 0 0-.4.7 61.3 103.9 0 0 0-.4.7 61.3 103.9 0 0 0-.3.7 61.3 103.9 0 0 0-.4.7 61.3 103.9 0 0 0-.4.7 61.3 103.9 0 0 0-.3.7 61.3 103.9 0 0 0-.4.7 61.3 103.9 0 0 0-.4.8 61.3 103.9 0 0 0-.3.7 61.3 103.9 0 0 0-.4.7 61.3 103.9 0 0 0-.3.8 61.3 103.9 0 0 0-.3.7 61.3 103.9 0 0 0-.4.8 61.3 103.9 0 0 0-.3.7 61.3 103.9 0 0 0-.4.8 61.3 103.9 0 0 0-.3.7 61.3 103.9 0 0 0-.3.8 61.3 103.9 0 0 0-.3.8 61.3 103.9 0 0 0-.3.8 61.3 103.9 0 0 0-.3.8 61.3 103.9 0 0 0-.3.8 61.3 103.9 0 0 0-.3.8 61.3 103.9 0 0 0-.3.8 61.3 103.9 0 0 0-.2.5 64.2 64.2 0 0 1 9.9 3c1.2.6 2 1.2 2.8 1.7l1.7 1.4 1.1.6c.3.1.6 0 .7-.3.4-.5.6-2 .6-5 0-2.9-.2-7.4-.4-10.2-.1-1.4-.3-2.3-.2-3 0-.4 0-.6.2-.8.1-.2.4-.4.7-.5a10 10 0 0 1 2.8-.5l4.7-.3 11.9-1c3.4-.4 6.6-.8 8.6-.8h.8c.4 0 .8.2 1 .5.4.3.6.8.9 1.8.4 1.9.8 5.5 1.4 12.4 1.3 13.8 3.7 40.5 5.4 55 .8 7.3 1.4 11.5 2 14 .3 1.2.5 2 .8 2.5.2.5.5.8.7 1 .2.2.5.2.7.2.3 0 .5 0 .7-.2.4-.3.8-1 1-1.8.5-1.8.4-4.5 1-10 .2-2.8.6-6.2 1.2-9.8a73.2 73.2 0 0 1 4.7-16 40.4 40.4 0 0 1 5.3-8.3 29.1 29.1 0 0 1 10.6-7.7 34.8 34.8 0 0 1 8.6-2.3c3-.6 6.3-.8 9.7-.9 2.4 0 5 .4 7.4.7z"/>
    <path fill="url(#n)" d="M-397.5 260.7c-8.8.2-14.7 6.4-14.7 16.8-.1 8.5 2.7 11.8 13 15 6.9 2.2 15.6.7 18.9-3.3.7-.9 2-1.6 2.7-1.6 1.3 0 1.5 7 1.2 55.3l-.4 55.2 2.5 4.5c3 5.4 8.1 8.5 16.5 10a44.8 44.8 0 0 0 18.3.2c.8-.5 1.6-3.5 1.9-7.3.7-9.3.6-9.2 5.4-6.8 8.3 4.2 25.9 3.3 30-1.6 1.4-1.7 5-2 5-.3 0 2.2 5 7.9 8.7 9.7 4.8 2.4 20.4 4.5 21.4 2.8.5-.6 1.3-3 1.9-5.2.5-2.2 1.9-6.7 3-10.1 1.9-6.1 1.7-9.4-.4-9.4-2 0-4.7-3.3-4.7-6 0-1.6.5-5 1-7.6.6-2.7 2-9.8 3-15.9 1.2-6 2.5-11.3 3-11.8s2.3.2 4.2 1.7c3.9 3 16 8.6 23.8 11.1 3 1 6 2.3 6.8 2.8 2.2 1.8 1 5-2.3 6-2.7.7-17.2-.3-26.2-2l-3.3-.5v14c0 9.6.4 14.4 1.2 14.8 2 1.3 29 1.7 35.8.7l8-1.4.5.1 2.8-1 3-.6.2 17c21.2 0 42.5.1 54.3-.3 11.9-.4 14.4-1.3 18-3.7 3.5-2.3 8.2-6.2 11.2-10.3 3-4 4.2-8.3 4.8-10.6.7-2.3.9-2.5 1-2.5.1 0 .3.3.8 2 .4 1.9 1.3 5.2 2.7 8 1.4 2.8 3.4 5 6.1 6.8 2.7 1.7 6 3 11 3.5s11.8.2 15.3 0c3.4-.2 3.4-.4 3.4-3.2v-11c0-2.8.1-3 .8-2.1.7.9 2 2.8 4.8 5.2a40.3 40.3 0 0 0 27.6 9.5c5.7.2 11.7 0 16.9-1.6 5.1-1.6 9.4-4.4 12.7-7.5a54 54 0 0 0 6.6-7.6l.8.8.5.9c.6.7 1.4 2 2.3 3.7 3 6.3 8.3 12.2 12.7 14 8 3.2 15.6 4.1 21.6 2.7 3.1-.8 5.9-1.1 6.1-.9.3.3-.4 6.6-1.6 14-1.2 7.3-2.2 14.2-2.3 15.3-.1 2.2 2.3 3 13.4 4.6 4.1.6 9.5 1.4 12 1.9 10 1.8 9.2 2.8 11.5-13.5l3.4-23c1-6.6 3-19.5 4.2-28.7 1.4-10.4 2.7-16.7 3.4-16.4.6.2 1.3 6.5 1.7 15.7a118 118 0 0 0 2.4 20.8c5.1 17.1 25.4 21.4 44 9.2 3.9-2.6 6.1-3.5 6.6-2.8.4.6.4 1.5.2 2-.3.5 0 1.4.6 2.2.8 1 4.2 1.2 15.8.8 8-.3 15.3-1 16-1.6 1-.7 1.2-2.5.7-6.8-.9-7.4 0-7.5 7.1-.8a32 32 0 0 0 23.2 9.7c9.7.6 17.6-1.1 29.1-6.4l7.7-3.4c.2 0 .4 1.6.4 3.6 0 4.2.6 4.5 14.3 7 23.6 4.2 40.4-.4 46.7-12.7 6-11.6 4.3-32.2-3.4-41a76.4 76.4 0 0 0-23-14.3c-6-2.2-8.6-4.2-8.6-6.7 0-3.5 3.7-4.1 15-2.3 18.5 3 17.7 3 18.4 0a180 180 0 0 0 2.2-25.3c-1-1-13.4-2.5-26.2-3-14.4-.4-18.6.2-26.3 4.2a32.1 32.1 0 0 0-10.3 11.2c-1.7 3.6-3.2 2.9-7.3-3.6a33.2 33.2 0 0 0-15-13 43 43 0 0 0-22-1.2c-6.5.9-11.8 3.8-19.3 8.9-1.9 1.2-5.4 3.5-6.2 2.6-.5-.5-1-2.2-1.2-3.9l-.3-3h-15.7c-8.6 0-16 .4-16.3.8-1 1-.2 45.5 1 61.8.7 7.8-.8 9.9-7.7 10.7-6.7.7-7.2-.3-8-19.2l-2.7-52.4c0-.3-7.7-.2-17 0-11.7.4-17.5 1-18.6 1.8-1.1 1-2.2 1-4.2.2-1.6-.5-5.4-1.3-8.7-1.7-5.6-.6-6-.5-8.1 2.2L55 309l-3.5-3.7a28.8 28.8 0 0 0-21.6-8.7c-7.6 0-10.8 1-17 5.8A55.3 55.3 0 0 0 1.4 318c-.8 2.2-2 1.8-3.5-1-.3-.7-7-13.2-11.6-16.7a42.4 42.4 0 0 0-18.3-7.5 59 59 0 0 0-19.6 0 32 32 0 0 0-16 6.8 37.3 37.3 0 0 0-10.6 16.6c-2.4 7-3.4 15.2-4 20.7-.4 5.5-.3 8.3-.8 10-.5 1.8-1.5 2.5-2.4 1.8-1-.7-2-3-3.6-17.4-1.6-14.5-4-41.3-5.3-55-1.3-13.8-1.5-14.6-3.4-14.7h-.8c-2 0-5.1.3-8.6.7-4 .4-8.3.9-11.9 1-3.5.3-6.3.3-7.5.8-1.2.5-.9 1.6-.7 4.4.3 2.7.4 7.3.4 10.2 0 3-.1 4.4-.5 5-.4.6-1 .3-1.9-.4-.9-.7-2-1.8-4.5-3-2.4-1.1-6-2.3-10.5-3.2-4.6-.9-10-1.6-19.5-1.7-9.5-.2-23 .2-31 .5a92 92 0 0 0-11.5 1l-1.2.2c-1 .5-1.1 1.6-1 4.2.1 1.2-.4 2.5-1 3-.8.4-7.7.9-15.4.9-14.8 0-19.6 1-27.5 5.3a25 25 0 0 0-11.6 10.8c-2 3.8-2.2 3.9-11.4.6-10.8-4-17-4.8-35.2-4.8-9.7 0-17.8.3-18.1.5-.3.3-.6 7.3-.8 15.5l-.3 15 15.5-.3c17.3-.2 20.2.5 20.7 5.2.2 1.6.1 4-.2 5.3-.6 2.3-.9 2.3-11.6 2.3-18.4 0-27.8 3-33 10.5-1.7 2.5-3.5 4.5-4 4.5-.4 0-1-18.5-1.5-41.2l-.7-41.3H-360c-15.2 0-15.6 0-17.2-2.3a19.6 19.6 0 0 0-10.6-8.3 25.7 25.7 0 0 0-9.7-1.8zm-45.3 10.2c-12.8-.2-36.1 1.4-48.8 3.7-5.5 1-6.7 1.6-6.3 2.9.2.9 1 8.6 1.6 17.1.6 8.6 1.5 18.7 2 22.5.9 6.8 2 17 4 38.8l2 22.2a809 809 0 0 0 3 27.8c0 1.1 8.1.6 24.5-1.6l9-1.2-.2-8.5c-.1-4.6-1-14-1.9-20.7-1.2-9.4-1.3-12.6-.4-13.7.6-.8 4-1.7 7.8-2 8.1-.8 16-3 20.8-5.6 1.9-1 3.9-2 4.4-2 1.3 0 1.3 7.9 0 15-1.9 10.5-4 31.4-3.2 32.2.4.4 7.8 1.5 16.6 2.4 11.8 1.3 16 1.4 16.5.6.7-1 1.6-8.8 4.2-35.7a2387.3 2387.3 0 0 1 5.8-55.4c1-8.7 1-8.7-6.9-9.5-3-.3-7.7-1-10.3-1.6a51 51 0 0 0-8.1-1c-3.9 0-5.6-1.7-8.2-8.3-1-2.7-3.7-6.8-5.9-9a34.4 34.4 0 0 0-13.5-8.6c-1.1-.5-4.2-.8-8.5-.8zm-13 28.2c1.7 0 3.4.3 4.8 1 5 2 7.2 8.2 7.2 20.3 0 8-.3 9.4-2.2 11.3-1.4 1.5-3.8 2.4-7.2 2.7-5.7.6-5.5 1-6.6-10.8l-1.4-13.9c-.5-4-.7-8-.4-8.6.4-1 2-1.7 4.2-2h1.6zm288 6.9a27.2 27.2 0 0 1 5.2.5c2.2.5 3.5 1.5 4.5 3.9 1 2.3 1.6 5.8 1.4 9.2v.7a22 22 0 0 1-1.5 7 6.2 6.2 0 0 1-4.5 4l-2.6.3h-6l.1-25.6h3.3zm-57.4 7.6c14 0 15 .5 15 7.5 0 3-.4 6-.7 7-.3.8-1.1 1.5-1.8 1.5-1.6 0-23-8.9-24-10-.5-.4-.6-2-.2-3.4.6-2.6.7-2.6 11.7-2.6zM-40 321a7 7 0 0 1 4.6 1.7c1.5 1.4 2.6 3.7 2.8 10.7.2 7-.3 18.6-1.3 25.8-1 7.2-2.5 10-4.4 11.6a6.2 6.2 0 0 1-5.9 1.4c-2-.6-3.8-2-5-4.3-1.1-2.4-1.6-5.8-1-12.8.5-7 2-17.8 3.2-23.7 1-6 1.7-7.3 2.6-8.3A5.7 5.7 0 0 1-40 321zm80 7c1.5 0 3 .3 4.4 1 1.7.8 3 2.3 3.6 3.1.6.8.6.8.6 1 0 .3 0 .9-1 7.6L43 367.4c-1.3 6.8-1.5 7.6-3.2 8.1-1.7.6-4.9 1-7.2.6s-3.8-1.8-4.8-4.1c-.9-2.4-1.3-5.8-.9-10.5a134.3 134.3 0 0 1 6.9-29.4c1.4-2.9 3-3.6 4.9-3.8l1.4-.2zm156 .3c2 0 3.8.5 5 1.5a11 11 0 0 1 3.3 4.2c1 1.7 1.9 3.6 2.3 4.7.4 1 .2 1.3-3 2.4a319 319 0 0 1-12.8 4c-3.3 1-3.6.8-3.8.8l-.4-1.5c-.2-1.5-.7-4.5-.4-7a10 10 0 0 1 2.9-6.5 10 10 0 0 1 7-2.6zm-319.3.7c.6 0 1 1 1.3 3a80 80 0 0 1 .9 10.5c0 2.9-.4 3.8-1.5 3.3-1-.4-2.7-2.2-4.7-3.8-2-1.5-4.5-2.7-4.6-4 0-1.3 2.3-2.7 4-4.4 1.9-1.7 3.1-3.7 4-4.4l.6-.2zm356.9 21.5a28 28 0 0 1 6.8 5.1 93 93 0 0 0 17.7 11.1A91.5 91.5 0 0 1 271 374c.4.6.2 2-.3 3-1.3 2.3-9.7 2.3-18.9-.1-8.4-2.2-8.7-2.4-11.5-8.7-1.3-3-2.9-5.5-3.5-5.5-.5 0-2.9 1.2-5.1 2.6-6.1 3.9-16.9 9.1-21 10.2-3 .8-4.5.7-7.6-.7-4-1.9-8.9-8-8-10.3.4-1.2 36-13.8 38.7-13.8zm-401 3.4a29.8 29.8 0 0 1 6.1.6c2.6.6 4.2 2 5.3 4.9a30 30 0 0 1 1.6 11.6v1c-.2 3.3-.8 6.5-1.7 8.7-1.1 3-2.7 4.3-5.3 5l-3 .4c-2 .2-4 .2-5 .1h-2l.1-32.3h4.1zm-133 6.7 1.7.1c.9.2 1.4.5 1.6 1 .8 2.4-1.1 11.1-3.2 13.8-4.1 5.7-13 2.5-13-4.8 0-5.1 4.4-9.3 10.6-9.9l2.4-.2z"/>
    <path fill="url(#o)" d="M45.6 213.8a211.7 211.7 0 0 0-15.6 1.4c-.7 0-1.3.2-2 .3.2 5.6 0 10.8-.3 14.6h1c4.9.5 11 .8 16.9 1.1.1-3 .3-6.5.3-11 0-2.5-.2-4.3-.3-6.4z"/>
    <path fill="url(#p)" d="M-5.6 259.7c0 .5 0 1 .2 1.6l1.5 9.8.5 7.4a55 55 0 0 0 16.6-3.7c1.4-.5 2.8-1.3 4.2-2-.2-1-.4-2.2-.8-3.4a54.7 54.7 0 0 0-5.4-12.3l-1.2-1.7a47 47 0 0 1-11.5 3.8l-4.1.5z"/>
    <ellipse cx="-103.1" cy="133.2" fill="#455918" opacity=".7" rx="8" ry="15.9"/>
    <ellipse cx="-20.8" cy="136.2" fill="#455918" opacity=".7" rx="8" ry="15.9"/>
    <ellipse cx="-20.5" cy="130.7" fill="#fff" opacity=".7" rx="3" ry="6"/>
    <ellipse cx="-99.9" cy="128.8" fill="#fff" opacity=".7" rx="3" ry="6"/>
    <path fill="#a0c84d" d="M-103.8 107.8c-1.6.5-4.4 1.6-6.7 3a18 18 0 0 0-5.3 4.8c-.9 1.4-.7 2.3-.2 2.1.6-.1 1.4-1.3 2.8-2.5s3.4-2.4 5.6-3.2c2.1-.7 4.4-1 5.5-1.6 1.1-.7 1-1.6.7-2.2-.2-.6-.7-.8-2.4-.4z"/>
    <path fill="url(#q)" d="M154.6 53.5a42 42 0 0 0-11.6 2.9c-8.1 3.5-12.6 9.8-14 19.6-.8 5.7-1.2 19.4-1.2 40.6 0 0 1.9 14 0 20.9l1.6-1.3 1-.5c.2-.2.5-.4.8-.4a3.5 3.5 0 0 1 2-.1c.5.1 1.1.4 1.6.7a4 4 0 0 1 1.7 3c0 .7 0 1.3-.2 2a7 7 0 0 1-.9 2.1c-.4.7-1 1.3-1.6 2l-1.5 1.5h3.5l.8-2.2a22.3 22.3 0 0 0 1-6.6c0-2.2-.2-4.6-.4-7.4a223.8 223.8 0 0 1 0-18 934 934 0 0 1 2.2-20.6 75 75 0 0 1 2.9-10.2 110.2 110.2 0 0 1 7.1-16 77 77 0 0 1 7.7-11c.1-.1.1-.3 0-.4l-.4-.4c-.5-.2-1.2-.3-2.1-.2z" transform="translate(-501.5 -88.8) scale(2.48722)"/>
    <path fill="#a0c84d" d="M-22.2 111.1c1.6.5 4.4 1.6 6.8 3a18 18 0 0 1 5.2 4.8c.9 1.3.7 2.3.2 2.1-.5-.1-1.4-1.3-2.8-2.5a18.3 18.3 0 0 0-5.6-3.2c-2-.7-4.4-1-5.5-1.7-1-.6-1-1.5-.7-2.1.2-.6.7-.8 2.4-.4zm-28 21.7a120.2 120.2 0 0 1 7.4 39.6c-.4 5.8-2.4 7.9-6.7 8.5-4.4.6-11.2-.2-14.9-1.3-3.7-1-4.3-2.5-4.2-4.1 0-1.7.8-3.5 3.4-4.6 2.7-1 7.2-1.3 9.7-1.5 2.6-.2 3.1-.3 3.4-5.6.3-5.3.2-15.7.3-22 0-6.4.2-8.7.3-10 .2-1.4.3-1.9 1.3 1z"/>
    <path fill="#597529" d="M-101.2 181c2.3 2.2 7 6.8 13.6 11.2a78.3 78.3 0 0 0 46 14.7c8.2.2 17.8 0 25.7-1.4a74.2 74.2 0 0 0 28-11.6c1.5-1.2 1.7-2 .2-1.9-1.6.2-4.7 1.3-9.5 3a94.7 94.7 0 0 1-21.2 4.5c-9.8 1-23 1-33.3.1a77 77 0 0 1-42.5-16.2c-4.3-3-6.8-4.8-8-5.4-1.2-.6-1.3 0-1.3.4 0 .3 0 .3 2.3 2.6z"/>
    <ellipse cx="-164.3" cy="164.5" fill="#597628" rx="4.7" ry="9.4"/>
    <ellipse cx="-176.3" cy="195.3" fill="#597628" rx="6.1" ry="10.7"/>
    <ellipse cx="-175.3" cy="129.3" fill="#597628" rx="6.7" ry="13.1"/>
    <path fill="url(#r)" d="M-164.2 267.3a34.1 34.1 0 0 0 2.4-7.5c.2-1.2.2-2.3.1-3.3a10 10 0 0 0-4.5-7.4 9 9 0 0 0-8.5-1.2c-1 .3-2.1.7-3.3 1.3l-5.1 2.2c-.2.5-.2 1.2-.3 1.7l-.2 1c-1.7 5.8-6.7 10.1-9.7 15.3-2.6 4.4-5.5 8.7-7.6 13.3l-1.4 3.3a91.4 91.4 0 0 0-4 20.3l-.8 9.3c-.7 8.9.3 17.8.2 26.7 0 7.5 0 15-.6 22.4-.3 4-5.2 10.2-1.6 12.2 2.8 1.6 4.3-6.9 7.5-6.2 2.5.6.6 7 3.2 7 2.5 0 1-5.8 3.4-6.7 2.2-.8 4.7 4.2 6.5 2.7 4.9-4.1-3.8-12.3-4.4-18.7-1.2-13.5-.5-27.3 2.1-40.6 0-.4.2-.8.3-1.1a93 93 0 0 1 6.8-20l-9-5.5 9 5.5 1.6-3.6c1.6-3.2 16.6-19.7 17.9-22.4z"/>
    <path fill="url(#s)" d="m-183.7 293.3-17.2-10.6-1.4 3.3a91.4 91.4 0 0 0-4 20.3l10.5 5 5.3 2a93 93 0 0 1 6.8-20z"/>
  </g>
  <path fill="#fff" d="M178 118.8c-.5 0-.6.3-.7 1.1-.2 2.5 2.1 3.8 3.9 2.2.4-.4.8-1 .8-1.6 0-1-1-1.4-3.2-1.6h-.8zm6.5.7a4 4 0 0 0-.9 0c-.7.3-.6 2.7.2 3.4.9 1 2.7.9 3.4-.1.4-.5.6-1.3.6-2 0-1 0-1.1-1.8-1.3h-1.5z"/>
</svg>
