<svg xmlns="http://www.w3.org/2000/svg" xmlns:xlink="http://www.w3.org/1999/xlink" width="324" height="234"><defs><linearGradient id="i" x1=".01" x2=".01" y1="1" y2=".01" gradientTransform="matrix(327.8916 0 0 236.313 -1.7 -1.94)" gradientUnits="userSpaceOnUse"><stop offset="0" stop-color="#dedcda"/><stop offset=".83" stop-color="#f3f4f4"/></linearGradient><linearGradient xlink:href="#a" id="j" x1="62.06" x2="47.19" y1="203.26" y2="257.15" gradientTransform="translate(59.69 -260.28) scale(1.5987)" gradientUnits="userSpaceOnUse"/><linearGradient id="a"><stop offset="0" stop-color="#8dc5ff"/><stop offset="1" stop-color="#f2c600"/></linearGradient><linearGradient xlink:href="#b" id="k" x1="11.75" x2="14.5" y1="23.25" y2="26" gradientTransform="matrix(1.4802 .1673 -.213 1.631 -40.61 122.34)" gradientUnits="userSpaceOnUse"/><linearGradient id="b"><stop offset="0" stop-color="#a8ae30"/><stop offset="1" stop-color="#8f9429"/></linearGradient><linearGradient xlink:href="#b" id="l" x1="27.81" x2="26.7" y1="22.66" y2="25.16" gradientTransform="matrix(1.7447 .177 -.2365 1.6471 -51.51 132.77)" gradientUnits="userSpaceOnUse"/><linearGradient xlink:href="#c" id="m" x1="29.06" x2="28.46" y1="29" y2="23.78" gradientTransform="matrix(1.7447 .177 -.2365 1.6471 -51.51 132.77)" gradientUnits="userSpaceOnUse"/><linearGradient id="c"><stop offset="0" stop-color="#6c782e"/><stop offset="1" stop-color="#929829"/></linearGradient><linearGradient xlink:href="#b" id="n" x1="11.75" x2="14.5" y1="23.25" y2="26" gradientTransform="matrix(1.4393 .1863 -.1958 1.714 -44.98 131.4)" gradientUnits="userSpaceOnUse"/><linearGradient xlink:href="#c" id="o" x1="10.06" x2="12.66" y1="29.5" y2="24.75" gradientTransform="matrix(1.6104 .2084 -.1958 1.714 -48.31 130.98)" gradientUnits="userSpaceOnUse"/><linearGradient xlink:href="#c" id="p" x1="20.38" x2="19.88" y1="31.63" y2="26.44" gradientTransform="matrix(1.6626 .201 -.2102 1.716 -48.96 131.07)" gradientUnits="userSpaceOnUse"/><linearGradient xlink:href="#d" id="q" x1="16.92" x2="16.37" y1="25.21" y2="16.54" gradientTransform="matrix(1.8656 .242 -.242 2.1233 -47.49 123.03)" gradientUnits="userSpaceOnUse"/><linearGradient id="d"><stop offset="0" stop-color="#ed6520"/><stop offset="1" stop-color="#ff9e50"/></linearGradient><linearGradient xlink:href="#e" id="r" x1="10.26" x2="13.59" y1="24.58" y2="15.52" gradientTransform="matrix(1.8656 .242 -.242 2.1233 -47.49 123.03)" gradientUnits="userSpaceOnUse"/><linearGradient id="e"><stop offset="0" stop-color="#da6224"/><stop offset="1" stop-color="#d57042"/></linearGradient><linearGradient id="h"><stop offset="0" stop-color="#8a300c"/><stop offset="1" stop-color="#ec510c" stop-opacity="0"/></linearGradient><linearGradient xlink:href="#f" id="t" x1="18.37" x2="18.15" y1="23.02" y2="19.23" gradientTransform="matrix(2.5851 0 0 2.9014 -47.95 109.57)" gradientUnits="userSpaceOnUse"/><linearGradient id="f"><stop offset="0" stop-color="#b04730"/><stop offset="1" stop-color="#ff7b2f"/></linearGradient><linearGradient xlink:href="#g" id="u" x1="21" x2="21.25" y1="20" y2="22" gradientTransform="matrix(1.3846 .1674 -.2357 1.9234 -43.44 128.08)" gradientUnits="userSpaceOnUse"/><linearGradient id="g"><stop offset="0" stop-color="#ffffe0"/><stop offset="1" stop-color="#ffe588" stop-opacity="0"/></linearGradient><linearGradient xlink:href="#g" id="v" x1="17" x2="18.89" y1="21" y2="22.07" gradientTransform="matrix(1.4278 .1726 -.2342 1.9117 -44.39 127.75)" gradientUnits="userSpaceOnUse"/><linearGradient xlink:href="#g" id="w" x1="18" x2="19.49" y1="18" y2="20.63" gradientTransform="matrix(1.3846 .1674 -.2224 1.815 -43.8 129.35)" gradientUnits="userSpaceOnUse"/><radialGradient xlink:href="#h" id="s" cx="19" cy="22.47" r="2" fx="19" fy="22.47" gradientTransform="matrix(4.6873 0 0 4.0513 -87.9 83.03)" gradientUnits="userSpaceOnUse"/></defs><path fill="url(#i)" d="M0 0h324v234H0z"/><rect width="164.68" height="164.68" x="79.66" y="34.66" fill="#c0bfbc" stroke="#c0bfbc" stroke-linecap="round" stroke-linejoin="round" stroke-width=".8" ry="12.79"/><rect width="164.68" height="158.12" x="79.66" y="34.66" fill="#f6f5f4" stroke="#c0bfbc" stroke-linecap="round" stroke-linejoin="round" stroke-width=".8" ry="12.28"/><rect width="139.1" height="104.12" x="92.45" y="46.68" fill="url(#j)" stroke="#c0bfbc" stroke-linecap="round" stroke-linejoin="round" stroke-width=".8" ry="8.09"/><g transform="translate(220.77 -423.98) scale(3.0236)"><path fill="url(#k)" fill-rule="evenodd" stroke="#909729" stroke-width=".53" d="M-17.2 167.34c-1.8-10.7-18.54-10.98-14.11 4.05 6.34-5.74 6.3.72 14.1-4.05z"/><path fill="#9ca02c" fill-rule="evenodd" stroke="#909729" stroke-width=".53" d="M-23.71 168.49c5.33-10.74 25.63-6.63 15.84 7.96-5.96-7.68-7.82-.91-15.84-7.96z"/><path fill="url(#l)" fill-rule="evenodd" stroke="url(#m)" stroke-width=".53" d="M-19.04 177.84c5.02-10.35 23.1-6.85 14 7.27-5.16-7.2-6.98-.7-14-7.27z"/><path fill="url(#n)" fill-rule="evenodd" stroke="url(#o)" stroke-width=".53" d="M-21.92 178.89c-1.82-11.27-18.09-11.68-13.68 4.17 6.12-6 6.12.8 13.68-4.17z"/><path fill="#a8ae30" fill-rule="evenodd" stroke="url(#p)" stroke-width=".53" d="M-20.44 173.7c13.3 1.6 2.27 8.98 1.02 12.31-11.22-4.84-7.6-13.1-1.02-12.31z"/><path fill="url(#q)" stroke="url(#r)" stroke-linecap="round" stroke-width=".53" d="M-13.68 185.98c-1.49 1-5.31-6.27-7.99-7.7-2.92.7-6.5 6.6-7.98 5.52-1.68-1.23.38-8.84 1.35-10.5 1.25-2.14-7.18-2.31-6.47-4.13.7-1.79 7.62-3.44 9.8-3.75.79-2.12 2.84-5.47 5.63-5.1 2.8.36 4.36 4.46 4.94 6.57 2.91.5 7.68 2.49 8.03 4.41.36 1.9-9.62 1.57-8.35 3.78.93 1.6 2.15 9.84 1.04 10.9z"/><ellipse cx="1.17" cy="171.95" fill="url(#s)" stroke="url(#t)" stroke-linecap="round" stroke-width=".27" rx="5.17" ry="4.35" transform="matrix(.9933 .1157 -.126 .992 0 0)"/><path fill="none" stroke="url(#u)" stroke-linecap="round" stroke-width=".53" d="m-19.38 173.52 2.16-6.31"/><path fill="none" stroke="url(#v)" stroke-linecap="round" stroke-width=".53" d="m-22.28 173.93-2.28-5.6"/><path fill="none" stroke="url(#w)" stroke-linecap="round" stroke-width=".53" d="m-21.04 172.27.22-8.92"/></g><path fill="#f5c211" stroke="#f5c211" stroke-linecap="round" stroke-linejoin="round" stroke-width="1.6" d="m224.26 166.99-3.47-2.19-3.2 2.57 1.01-3.97-3.43-2.25 4.1-.27 1.07-3.96 1.52 3.81 4.1-.2-3.16 2.62zm-18.79 0L202 164.8l-3.2 2.57 1.02-3.97-3.44-2.25 4.1-.27 1.07-3.96 1.52 3.81 4.1-.2-3.15 2.62zm-17.98 0-3.47-2.19-3.2 2.57 1.01-3.97-3.43-2.25 4.1-.27 1.07-3.96 1.52 3.81 4.1-.2-3.16 2.62z"/><path fill="none" stroke="#deddda" stroke-linecap="round" stroke-width="6.4" d="M97.87 163.32h69.72m-69.72 13.53h69.72"/></svg>