<?xml version="1.0" encoding="UTF-8" standalone="no"?>
<svg
   width="324"
   height="234"
   version="1.1"
   id="svg83"
   xmlns:xlink="http://www.w3.org/1999/xlink"
   xmlns="http://www.w3.org/2000/svg"
   xmlns:svg="http://www.w3.org/2000/svg">
  <defs
     id="defs50">
    <linearGradient
       id="linearGradient85">
      <stop
         style="stop-color:#f1fffd;stop-opacity:1;"
         offset="0"
         id="stop85" />
      <stop
         style="stop-color:#d6fffb;stop-opacity:0.54835922;"
         offset="1"
         id="stop86" />
    </linearGradient>
    <linearGradient
       id="p"
       x1="118.22"
       x2="224.16"
       y1="38.85"
       y2="171.79"
       href="#a">
      <stop
         offset="0"
         stop-color="#3a6173"
         id="stop1" />
      <stop
         offset=".5"
         stop-color="#437084"
         id="stop2" />
      <stop
         offset="1"
         stop-color="#3a6173"
         id="stop3" />
    </linearGradient>
    <linearGradient
       id="w"
       x1="172.65"
       x2="173.96"
       y1="195.52"
       y2="199.82"
       href="#a">
      <stop
         offset="0"
         stop-color="#b4b08a"
         id="stop4" />
      <stop
         offset="1"
         stop-color="#c1be9f"
         stop-opacity="0"
         id="stop5" />
    </linearGradient>
    <linearGradient
       id="c"
       x1="324"
       x2="324"
       y1="0"
       y2="101.9"
       href="#a">
      <stop
         offset="0"
         stop-color="#5cb0e6"
         id="stop6"
         style="stop-color:#3c7596;stop-opacity:1;" />
      <stop
         offset="1"
         stop-color="#208dd3"
         id="stop7"
         style="stop-color:#0f4161;stop-opacity:1;" />
    </linearGradient>
    <linearGradient
       id="n"
       x1="40.63"
       x2="40.63"
       y1="224.47"
       y2="228.32"
       href="#a">
      <stop
         offset="0"
         stop-color="#b4b08a"
         id="stop8" />
      <stop
         offset="1"
         stop-color="#c1be9f"
         stop-opacity=".46"
         id="stop9" />
    </linearGradient>
    <linearGradient
       id="m"
       x1="33.87"
       x2="45.01"
       y1="196.48"
       y2="196.48"
       href="#a">
      <stop
         offset="0"
         stop-color="#4c6e46"
         id="stop10" />
      <stop
         offset="1"
         stop-color="#9eb595"
         id="stop11" />
    </linearGradient>
    <linearGradient
       id="d"
       x1="324"
       x2="323.29"
       y1="234"
       y2="180.31"
       href="#a">
      <stop
         offset="0"
         stop-color="#d6d4bf"
         id="stop12" />
      <stop
         offset="1"
         stop-color="#bfd3d6"
         stop-opacity=".98"
         id="stop13" />
    </linearGradient>
    <linearGradient
       id="k"
       x1="170.23"
       x2="171.37"
       y1="196.37"
       y2="200.12"
       gradientTransform="matrix(-0.074,-0.196,0.52,-0.133,29.21,233.04)"
       href="#a">
      <stop
         offset="0"
         stop-color="#466e64"
         id="stop14" />
      <stop
         offset="1"
         stop-color="#a7c19f"
         stop-opacity=".8"
         id="stop15" />
    </linearGradient>
    <linearGradient
       id="i"
       x1="170.23"
       x2="171.37"
       y1="196.37"
       y2="200.12"
       gradientTransform="matrix(0.16,-0.424,-1.123,-0.288,325.85,322.17)"
       href="#a">
      <stop
         offset="0"
         stop-color="#466e64"
         id="stop16" />
      <stop
         offset="1"
         stop-color="#a7c19f"
         stop-opacity=".8"
         id="stop17" />
    </linearGradient>
    <linearGradient
       id="j"
       x1="170.23"
       x2="171.37"
       y1="196.37"
       y2="200.12"
       gradientTransform="matrix(-0.13,-0.342,0.907,-0.232,-40.6,291.88)"
       href="#a">
      <stop
         offset="0"
         stop-color="#466e64"
         id="stop18" />
      <stop
         offset="1"
         stop-color="#a7c19f"
         stop-opacity=".8"
         id="stop19" />
    </linearGradient>
    <linearGradient
       id="g"
       x1="170.23"
       x2="171.37"
       y1="196.37"
       y2="200.12"
       gradientTransform="matrix(0.099,-0.26,-0.69,-0.177,247.6,258.26)"
       href="#a">
      <stop
         offset="0"
         stop-color="#466e64"
         id="stop20" />
      <stop
         offset="1"
         stop-color="#9fc1b9"
         stop-opacity=".8"
         id="stop21" />
    </linearGradient>
    <linearGradient
       id="l"
       x1="126.5"
       x2="120.38"
       y1="187.33"
       y2="187.33"
       href="#a">
      <stop
         offset="0"
         stop-color="#466e61"
         id="stop22" />
      <stop
         offset="1"
         stop-color="#95b5ae"
         id="stop23" />
    </linearGradient>
    <linearGradient
       id="o"
       x1="122.79"
       x2="122.79"
       y1="202.74"
       y2="204.85"
       href="#a">
      <stop
         offset="0"
         stop-color="#a0b48a"
         id="stop24" />
      <stop
         offset="1"
         stop-color="#c1be9f"
         stop-opacity=".46"
         id="stop25" />
    </linearGradient>
    <linearGradient
       id="q"
       x1="83.24"
       x2="82.25"
       y1="212.77"
       y2="219.07"
       href="#a">
      <stop
         offset="0"
         stop-color="#e6e0e8"
         id="stop26" />
      <stop
         offset="1"
         stop-color="#ced9c4"
         stop-opacity="0"
         id="stop27" />
    </linearGradient>
    <linearGradient
       id="v"
       x1="241.51"
       x2="241.54"
       y1="96.8"
       y2="113.13"
       href="#a">
      <stop
         offset="0"
         stop-color="#fff0f8"
         id="stop28" />
      <stop
         offset="1"
         stop-color="#7ebde5"
         id="stop29" />
    </linearGradient>
    <linearGradient
       id="x"
       x1="80.61"
       x2="168.71"
       y1="129.4"
       y2="44.81"
       href="#a">
      <stop
         offset="0"
         stop-color="#67cefa"
         stop-opacity=".11"
         id="stop30" />
      <stop
         offset=".3"
         stop-color="#ffe"
         stop-opacity=".44"
         id="stop31" />
      <stop
         offset="1"
         stop-color="#67cefa"
         stop-opacity="0"
         id="stop32" />
    </linearGradient>
    <linearGradient
       id="C"
       x1="189.81"
       x2="190.67"
       y1="76.47"
       y2="77.03"
       href="#a">
      <stop
         offset="0"
         stop-color="#a1cfed"
         id="stop33" />
      <stop
         offset="1"
         stop-color="#a1cfed"
         stop-opacity="0"
         id="stop34" />
    </linearGradient>
    <linearGradient
       id="a"
       gradientUnits="userSpaceOnUse" />
    <linearGradient
       xlink:href="#b"
       id="F"
       x1="170.23"
       x2="171.37"
       y1="196.37"
       y2="200.12"
       gradientTransform="matrix(0.236,-0.622,-1.649,-0.422,337.78,386.64)"
       gradientUnits="userSpaceOnUse" />
    <linearGradient
       id="b">
      <stop
         offset="0"
         stop-color="#4c6e46"
         id="stop35" />
      <stop
         offset="1"
         stop-color="#a7c19f"
         stop-opacity=".8"
         id="stop36" />
    </linearGradient>
    <linearGradient
       xlink:href="#b"
       id="E"
       x1="170.23"
       x2="171.37"
       y1="196.37"
       y2="200.12"
       gradientTransform="matrix(-0.292,-0.77,2.042,-0.523,-328.65,441.72)"
       gradientUnits="userSpaceOnUse" />
    <linearGradient
       xlink:href="#b"
       id="G"
       x1="170.23"
       x2="171.37"
       y1="196.37"
       y2="200.12"
       gradientTransform="matrix(-0.18,-0.473,1.254,-0.321,-186.36,325.5)"
       gradientUnits="userSpaceOnUse" />
    <linearGradient
       xlink:href="#b"
       id="H"
       x1="170.23"
       x2="171.37"
       y1="196.37"
       y2="200.12"
       gradientTransform="matrix(0.135,-0.357,-0.945,-0.242,210.8,279.64)"
       gradientUnits="userSpaceOnUse" />
    <radialGradient
       id="e"
       cx="40.05"
       cy="221.71"
       r="5.26"
       fx="40.05"
       fy="221.71"
       gradientTransform="matrix(1 0 0 .535 0 102.17)"
       href="#a">
      <stop
         offset="0"
         stop-color="#878256"
         id="stop37" />
      <stop
         offset="1"
         stop-color="#bebb9a"
         stop-opacity=".89"
         id="stop38" />
    </radialGradient>
    <radialGradient
       id="h"
       cx="40.05"
       cy="221.71"
       r="5.26"
       fx="40.05"
       fy="221.71"
       gradientTransform="matrix(1 0 0 .535 0 102.17)"
       href="#a">
      <stop
         offset="0"
         stop-color="#718756"
         id="stop39" />
      <stop
         offset="1"
         stop-color="#abbe9a"
         stop-opacity=".89"
         id="stop40" />
    </radialGradient>
    <radialGradient
       id="r"
       cx="202.99"
       cy="124.46"
       r=".65"
       fx="202.99"
       fy="124.46"
       gradientTransform="matrix(1.785 0 0 1.8 -290.68 -150.5)"
       href="#a">
      <stop
         offset="0"
         stop-color="#d9d0dc"
         id="stop41" />
      <stop
         offset="1"
         stop-color="#c3b5c8"
         id="stop42" />
    </radialGradient>
    <radialGradient
       id="s"
       cx="203.21"
       cy="124.2"
       r=".65"
       fx="203.21"
       fy="124.2"
       gradientTransform="matrix(1.785 0 0 1.8 -290.68 -150.5)"
       href="#a">
      <stop
         offset="0"
         stop-color="#fff"
         id="stop43" />
      <stop
         offset="1"
         stop-color="#fff"
         stop-opacity="0"
         id="stop44" />
    </radialGradient>
    <radialGradient
       id="t"
       cx="202.82"
       cy="124.8"
       r=".18"
       fx="202.82"
       fy="124.8"
       gradientTransform="matrix(1.785 0 0 1.8 -290.68 -150.5)"
       href="#a">
      <stop
         offset="0"
         stop-color="#5d4963"
         id="stop45" />
      <stop
         offset="1"
         stop-color="#382c3c"
         id="stop46" />
    </radialGradient>
    <radialGradient
       id="y"
       cx="257.25"
       cy="216.63"
       r="32.29"
       fx="257.25"
       fy="216.63"
       gradientTransform="matrix(1 0 0 1.03 0 -6.36)"
       href="#a">
      <stop
         offset="0"
         stop-color="#9bdfff"
         id="stop47" />
      <stop
         offset="1"
         stop-color="#11b3ff"
         stop-opacity=".42"
         id="stop48" />
    </radialGradient>
    <radialGradient
       id="B"
       cx="257.25"
       cy="216.63"
       r="32.29"
       fx="257.25"
       fy="216.63"
       gradientTransform="matrix(1 0 0 1.03 0 -6.36)"
       href="#a">
      <stop
         offset="0"
         stop-color="#ffd6f0"
         id="stop49"
         style="stop-color:#ff8f01;stop-opacity:0.99803895;" />
      <stop
         offset="1"
         stop-color="#ff92d8"
         id="stop50"
         style="stop-color:#ffd673;stop-opacity:1;" />
    </radialGradient>
    <path
       id="f"
       d="M34.88 219.97c-.13-.75.34-1.47 1.27-2a8.02 8.02 0 0 1 3.75-.83c1.41 0 2.85.34 3.8.87a3.05 3.05 0 0 1 1.61 1.99c.17.73.02 1.46-.66 1.96s-1.9.79-3.35.81a11.6 11.6 0 0 1-4.35-.73c-1.21-.52-1.94-1.31-2.07-2.07z" />
    <path
       id="u"
       d="M66.42 211.46c-1.68 1.32 6.08.87 9.27 2.14 3.18 1.27 5.64 3.98 9.56 4.7 3.92.7 9.33-.55 12.54.24 3.21.8 4.21 3.63 4.46 3.42s-.25-3.46-4-5.5-10.75-2.88-15.83-4.34c-5.09-1.45-8.25-3.54-11-4.58z" />
    <path
       id="z"
       d="M289.38 234.7c-2.14 3.3-21.5-8.83-25.15-7.38-3.64 1.44-9.3 23.52-13.07 22.52-3.8-1.02 1.76-23.18-.74-26.21-2.5-3.01-25.25-1.57-25.46-5.47-.2-3.93 22.6-5.49 24.7-8.8 2.1-3.3-6.31-24.5-2.67-25.9 3.67-1.41 12.2 19.78 16.01 20.76 3.78.97 21.35-13.57 23.8-10.54 2.48 3.06-15.04 17.72-14.8 21.65.25 3.9 19.5 16.1 17.38 19.38z" />
    <path
       id="D"
       d="M189.5 76.32c-.4.16-.64.54-.47.9.17.35.74.67 1.15.52s.67-.8.5-1.15-.76-.42-1.17-.27z" />
    <filter
       id="A"
       width="1.4682249"
       height="1.4548717"
       x="-0.23411244"
       y="-0.22743583"
       color-interpolation-filters="sRGB">
      <feGaussianBlur
         stdDeviation="6.3"
         id="feGaussianBlur50" />
    </filter>
    <linearGradient
       xlink:href="#linearGradient85"
       id="linearGradient86"
       x1="268.98593"
       y1="46.791721"
       x2="314.70444"
       y2="108.99903"
       gradientUnits="userSpaceOnUse" />
  </defs>
  <path
     fill="url(#c)"
     d="M0 0v234h324V0Z"
     id="path50" />
  <path
     fill="url(#d)"
     d="M324 203.8c-52-10.38-104.6-22.38-157.97-20.35-37.33.96-72.27 19.1-109.92 16.7-18.85-.6-37.55-3.42-56.11-6.68V234h324v-30.2z"
     id="path51" />
  <use
     fill="url(#e)"
     href="#f"
     transform="translate(-.65 2.12)"
     id="use51" />
  <path
     fill="url(#g)"
     d="m 128.76,180.32 c -1.9323,1.33688 -8.2834,2.96201 -3.47328,-0.50938 2.00525,-2.0207 5.25906,-4.90033 8.04328,-3.62062 -0.67766,2.25676 -2.73015,3.15766 -4.57,4.13 z"
     id="path52"
     style="fill:url(#g)" />
  <path
     fill="#4c8774"
     d="m 123.04,182.28 c 4.23585,0.22483 9.75331,-1.85932 10.37,-6.22 -2.58152,2.69063 -5.92562,5.59835 -10.11,5.96 0.021,-0.0393 -0.56387,0.16758 -0.26,0.26 z"
     id="path53" />
  <use
     fill="url(#h)"
     href="#f"
     transform="matrix(-.55 0 0 .55 145.49 80.44)"
     id="use53" />
  <path
     fill="url(#i)"
     d="m 132.38,195.31 c -2.69513,1.77779 -5.8986,2.24149 -8.99,2.84 4.06783,-4.38295 8.59735,-10.33254 15.26563,-10.05625 2.79626,-0.44124 0.71578,4.36193 -1.50563,4.35625 -1.38036,1.2676 -3.16577,1.93847 -4.77,2.86 z"
     id="path54"
     style="fill:url(#i)" />
  <path
     fill="#4c8774"
     d="m 123.1,198.5 c 5.65954,0.41299 10.98157,-1.84519 14.87,-5.45 3.35536,-1.23729 2.21271,-7.56112 -0.53875,-2.73 -2.63145,5.29426 -9.88158,6.44387 -14.33125,8.18 z"
     id="path55" />
  <path
     fill="url(#j)"
     d="m 115.62,189.44 c 1.84933,1.28594 10.38654,4.05063 5.20184,-0.0344 -2.83305,-2.83604 -7.1866,-7.12501 -11.21184,-5.38564 0.89491,2.95697 3.58212,4.15913 6.01,5.42 z"
     id="path56"
     style="fill:url(#j)" />
  <path
     fill="#4c8774"
     d="m 123.12,192 c -5.41037,0.42478 -10.30693,-2.10622 -13.51,-6.16 0.25547,-4.86522 4.70419,4.91501 8.45908,4.53055 1.42897,0.77578 4.15783,0.74827 5.05092,1.62945 z"
     id="path57" />
  <path
     fill="url(#k)"
     d="m 118.76,174.34 c 1.41784,0.96545 6.3082,2.30611 2.61719,-0.37594 -1.20653,-2.49574 -9.21626,-4.68165 -4.37297,-0.58906 0.56062,0.36457 1.16575,0.65386 1.75578,0.965 z"
     id="path58"
     style="fill:url(#k)" />
  <path
     fill="#4c8774"
     d="m 123.06,175.8 c -2.8304,0.50183 -8.54768,-2.26022 -7.39,-4.56 1.595,2.67472 4.76139,3.75964 7.39,4.56 z"
     id="path59" />
  <path
     fill="url(#l)"
     d="m 122.03,201.73 c -1.64149,-4.30113 3.76475,-8.77613 -0.80717,-12.78881 -0.5417,-4.09391 -0.26144,-8.83754 0.67717,-12.83119 0.62937,-2.18758 2.3562,-5.64698 1.96,-2.27 -1.92448,4.16258 -0.97725,8.66188 -0.69703,13.13295 2.91655,3.95715 3.05844,8.12802 2.36672,12.58158 2.22318,2.9217 -2.0442,4.0681 -3.49969,2.17547 z"
     id="path60"
     style="fill:url(#l)" />
  <path
     fill="url(#m)"
     d="m 42,222.7 c 3.025972,-4.46796 -0.843528,-8.77641 -2.140547,-12.98249 -1.060458,-5.98198 6.047547,-10.18085 4.482344,-16.28376 -1.420122,-4.72119 -1.023023,-9.56359 -0.835645,-14.38715 -0.990779,-3.60004 -4.422609,-6.18835 -4.626621,-10.14223 -1.876698,4.77631 2.914527,8.43687 2.248958,13.01159 -1.160819,3.82996 -0.650641,7.75347 -0.729075,11.66888 -0.41761,6.09382 -6.747172,10.51807 -5.853633,16.79032 2.340348,3.94175 1.31741,8.16618 0.105196,12.20796 0.870368,2.15392 6.152619,2.53782 7.349023,0.11688 z"
     id="path61"
     style="fill:url(#m)" />
  <path
     fill="url(#n)"
     d="m 28.58,225.99 c 3.910245,-2.00092 5.428482,-8.77843 10.318125,-3.91406 4.268033,-1.77298 9.441345,0.50015 11.223906,4.11765 -4.389299,1.88532 -9.269524,1.80002 -13.932031,1.47641 -1.717442,-0.0676 -7.19722,0.83041 -7.61,-1.68 z"
     id="path62"
     style="fill:url(#n)" />
  <path
     fill="url(#o)"
     d="m 129.42,203.54 c -2.26213,-1.40612 -3.01894,-4.62053 -6.05,-2.15 -2.64002,-1.89785 -8.96343,3.31594 -2.95125,3.01125 2.72143,-0.10589 7.00358,0.96912 9.00125,-0.86125 z"
     id="path63"
     style="fill:url(#o)" />
  <path
     fill="url(#p)"
     d="M186.2 53.27c-16.93-3.53-28.05 19.3-11.97 30.5l-2.96 14.2-24.9-5.18c-1.06-.22-2.31 1.04-2.55 2.2l-1.3 6.2c-.24 1.19.3 3.08 1.47 3.04l24.9 5.19-13.94 66.88c-.45 2.14-4.6 1.3-6.59 1.12-4.23-.88-14.48-6.79-23.3-14.36-4.45-3.9-7.84-7.12-7.17-9.58.98-2.63 2.92-1.89 4.73-.62.67.46 1.39-.34 1.4-1 .23-1.68 0-3.34-.53-4.95-2.61-7.66-9.9-10.5-12.37-17.5-.27-.64-.48-1.72-1.39-1.57-1.25.12-2.15 1.18-2.93 2.07-2.27 2.8-3.78 6.06-5.24 9.37-2.27 5.16-3.2 13.11-2.48 16.96.35 1.87 1.28 3.52 2.22 5.13 2.18-1.6 4.25-3.51 7.12-2.81 4.62 2.21 7.35 7.02 10.55 10.84 6.52 6.48 13.64 13.28 22.03 17.32 5.92 4.1 10.73 8.5 14.02 15.21l-.07.34a.8.8 0 0 1 .23-.16c.03.08.09.18.15.24.07-.17.03-.39.1-.54 5.67-4.77 11.84-6.74 18.86-8.15 5.93-.18 20.21-3.68 27.14-7.08 2.7-1.33 5.23-2.8 7.9-4.1 1.86-.88 4-1.81 6.11-1.63 2.89.38 4.04 3.2 5.38 5.42 1.5-1.08 3.03-2.24 4.08-3.82 6-8.62 5.39-28.12 1.58-30.3-.77-.48-1.4.4-1.9.9-5.76 6.16-18.15 6.1-20.82 15.42-.24.6.07 1.65.93 1.5 2.3-.69 4.03-.13 4.05 2.46-.26 2.34-4.02 3.87-10.37 5.92-11.56 3.56-23.17 4.69-27.08 3.87-2.58-.07-5.97-2.2-5.66-3.68l13.93-66.87 24.9 5.18c.98.2 2.3-.94 2.55-2.2l1.3-6.2a2.9 2.9 0 0 0-1.47-3.04l-24.9-5.18L184.91 86c19.17-3.72 18.16-29.22 1.21-32.76m-2.02 8.01c10.44 2.18 6.87 18.16-3.34 16.03-10.25-2.13-7.16-18.21 3.34-16.03"
     id="path64" />
  <path
     fill="url(#q)"
     d="M66.42 211.46c2.08.96 6.08.87 9.27 2.14 3.18 1.27 5.64 3.98 9.56 4.7 3.92.7 9.33-.55 12.54.24 3.21.8 4.21 3.63 4.46 3.42s-.25-3.46-4-5.5-10.75-2.88-15.83-4.34c-5.09-1.45-8.25-3.54-11-4.58-7.17-2.71-8.46 2.33-5 3.92z"
     transform="translate(3.66 -134.02)"
     id="path65" />
  <g
     fill-rule="evenodd"
     paint-order="markers fill stroke"
     id="g67">
    <ellipse
       cx="71.62"
       cy="73.55"
       fill="url(#r)"
       rx="1.15"
       ry="1.16"
       id="ellipse65" />
    <ellipse
       cx="71.62"
       cy="73.55"
       fill="url(#s)"
       rx="1.15"
       ry="1.16"
       id="ellipse66" />
    <ellipse
       cx="71.32"
       cy="74.15"
       fill="url(#t)"
       rx=".32"
       ry=".33"
       id="ellipse67" />
  </g>
  <path
     id="use67"
     style="fill:url(#linearGradient86);fill-opacity:1;stroke-width:0.976554"
     d="m 277.95508,36.871094 c -7.7085,0.575761 -14.91289,4.481468 -20.4892,9.706146 -4.76649,4.659523 -8.62385,11.662426 -6.50387,18.45163 2.25172,5.884712 8.60093,8.385039 13.74682,11.16444 4.15925,2.003868 8.80324,5.111193 9.20523,10.169971 -0.84056,2.852184 1.54883,2.587598 2.10546,0.29099 0.68719,-1.385782 0.44197,-4.734513 2.0279,-2.049944 4.19318,4.650315 6.5549,10.897227 11.6403,14.725357 1.00564,1.095686 5.61806,1.997566 5.32804,0.963396 -3.25021,-0.511712 -5.33529,-3.378937 -6.06607,-6.412347 -1.19995,-3.899253 -2.33966,-8.231793 -6.00933,-10.589342 -2.83895,-1.945172 -6.78494,-4.193892 -4.67278,-8.111703 4.45486,3.766039 8.36821,8.140267 11.42854,13.116875 2.9774,4.135843 5.637,9.45834 10.91639,10.953084 1.56288,0.707644 5.35265,0.002 1.68021,-0.635946 -4.20343,-1.30931 -5.1423,-6.006927 -6.32084,-9.662333 -0.97266,-3.739362 -3.04198,-7.224547 -6.3486,-9.339135 -3.22294,-2.068766 -5.96838,-4.802214 -7.80855,-8.184486 -2.61968,-1.679404 0.54752,-5.543528 2.31997,-2.782353 3.05386,2.095045 5.68814,4.831385 6.90745,8.402366 1.41602,3.816193 4.48899,6.679283 8.06451,8.482319 3.3195,2.093448 8.04598,3.600267 8.87961,7.970189 -0.062,1.611392 0.41184,3.221018 1.03898,0.611898 0.96041,-4.958505 -3.26014,-8.674527 -6.33977,-11.884573 -4.55253,-4.319011 -9.06366,-8.807001 -12.12876,-14.347665 -0.73468,-1.374492 -2.86926,-3.251034 0.0234,-2.880531 3.39454,0.91943 4.65692,5.11132 6.18119,8.009333 2.61994,5.456598 9.31036,6.374759 13.21176,10.49186 1.60701,0.68754 0.78985,6.759633 2.07358,3.104967 0.86589,-4.644067 -3.19345,-8.032092 -6.06051,-11.027027 -3.53913,-3.411456 -7.14741,-6.855961 -9.65607,-11.133218 4.51958,-0.190695 0.59871,-3.788761 -0.92338,-5.382922 -4.79778,-5.058401 -5.31484,-12.417129 -9.02039,-18.100008 -1.7996,-2.86273 -5.10406,-4.332608 -8.43123,-4.091288 z" />
  <g
     fill-rule="evenodd"
     paint-order="markers fill stroke"
     id="g75">
    <path
       fill="url(#x)"
       d="M0 0v76.1L176.88 234h100.3L86.26 0Z"
       id="path72" />
    <use
       fill="url(#y)"
       href="#z"
       transform="matrix(-.166 .04 -.135 -.115 372.6 224.26)"
       id="use72" />
    <g
       transform="matrix(-.403 .11 -.328 -.319 403.77 256.29)"
       id="g74">
      <use
         fill="#fffee7"
         filter="url(#A)"
         href="#z"
         id="use73" />
      <use
         fill="url(#B)"
         href="#z"
         id="use74" />
    </g>
  </g>
  <use
     fill="url(#C)"
     stroke="#47a2dd"
     stroke-width=".12"
     href="#D"
     transform="translate(-1358.96 -582.04) scale(8.102)"
     id="use75" />
  <path
     fill="#fafaf8"
     fill-opacity=".76"
     d="M180.4 37.18c-1.36.1-2.72.4-3.95 1.02-.78.4-1.52.93-2.1 1.6-.2.15-.14.4.11.24l2.73-1.27c1.26-.56 2.61-.83 3.94-1.17.14-.04.73-.17.41-.35-.36-.11-.76-.08-1.13-.07z"
     id="path75" />
  <use
     fill="url(#C)"
     stroke="#47a2dd"
     stroke-width=".1"
     href="#D"
     transform="matrix(8.33 0 0 11.688 -1364.23 -873.19)"
     id="use76" />
  <path
     fill="#fafaf8"
     fill-opacity=".76"
     d="M219.84 19.54a8.52 8.52 0 0 0-4.14 1.51 8.3 8.3 0 0 0-2.09 2.27c-.16.16-.2.57.12.35.8-.47 1.5-1.08 2.3-1.55a16.8 16.8 0 0 1 3.87-1.74c.38-.14.8-.23 1.14-.46.27-.33-.39-.4-.6-.4l-.6.02z"
     id="path76" />
  <use
     fill="url(#C)"
     stroke="#47a2dd"
     stroke-width=".07"
     href="#D"
     transform="matrix(-12.93 0 0 15.226 2601.53 -1153.17)"
     id="use77" />
  <path
     fill="#fafaf8"
     fill-opacity=".76"
     d="M147.38 9.97c-2.2.19-4.4.78-6.32 1.9-1.28.8-2.46 1.8-3.35 3.02-.28.25-.27.76.18.46l3.74-2.1c1.91-.98 3.96-1.7 6.04-2.24.55-.18 1.16-.27 1.65-.61.13-.48-.75-.41-1.07-.46l-.87.03z"
     id="path77" />
  <path
     fill="url(#E)"
     d="m 39.5,216.18 c -7.18831,-7.95998 -15.031931,-17.67786 -26.63,-18.29 -7.2040799,-0.77935 0.27316,7.05633 2.901094,8.50162 6.985073,5.04387 15.242368,8.36978 23.728906,9.78838 z"
     id="path78"
     style="fill:url(#E)" />
  <path
     fill="url(#F)"
     d="m 40.48,204.52 c 5.798936,-6.43128 12.140718,-14.26592 21.5,-14.77 6.183446,-0.30697 -1.406106,7.63121 -3.525466,9.24518 C 53.324278,202.85926 46.757435,204.15281 40.48,204.52 Z"
     id="path79"
     style="fill:url(#F)" />
  <path
     fill="#4c874e"
     d="m 40.07,216.81 c -5.671481,-1.03036 -12.125835,0.79518 -16.91877,-3.35182 -5.639239,-0.78774 -7.194421,-6.24618 -12.30379,-8.13141 -2.7478228,-2.45057 -2.0035024,-10.67301 1.78258,-4.81331 2.765949,3.77706 5.692253,7.32248 9.96623,9.63529 5.241158,3.44092 11.505,4.5345 17.44,6.13875 0.421043,-0.004 0.354593,0.53815 0.03375,0.5225 z m -0.05,-11.79 c 4.582412,-0.8291 9.792116,0.63129 13.666406,-2.71363 4.579079,-0.5891 5.829865,-5.03239 9.930726,-6.55695 2.525192,-2.60494 1.263079,-8.56828 -1.814476,-3.51895 -3.540089,6.1649 -10.549741,9.65445 -17.380801,11.24558 -1.117752,0.5664 -4.336335,0.40512 -4.401855,1.54395 z"
     id="path80" />
  <path
     fill="url(#G)"
     d="m 39.82,186.95 c -4.416533,-4.89516 -9.242537,-10.8588 -16.37,-11.24 -4.895976,0.16056 2.783811,5.94838 4.457437,7.343 3.50813,2.39688 7.736166,3.4576 11.912563,3.897 z"
     id="path81"
     style="fill:url(#G)" />
  <path
     fill="url(#H)"
     d="m 40.4,175.25 c 3.373414,-3.92624 8.429597,-9.72371 13.83,-8.04 -2.919366,4.90513 -8.233163,7.65102 -13.83,8.04 z"
     id="path82"
     style="fill:url(#H)" />
  <path
     fill="#4c874e"
     d="m 40.17,187.33 c -4.997891,-0.10048 -10.089891,-0.80069 -14.130313,-3.89391 -1.458776,-1.8294 -7.310312,-5.86211 -3.832187,-7.22234 4.019965,6.02475 10.805287,9.58726 17.94,10.79625 l 0.180938,0.16563 z m -0.04,-11.79 c 5.328377,0.5056 9.806762,-2.09751 13.527287,-5.31636 2.12516,-3.14172 -0.370164,-4.12427 -1.804162,-1.07255 -2.154831,4.1879 -8.240073,4.93053 -11.723125,6.38891 z"
     id="path83" />
</svg>
