<?xml version="1.0" encoding="UTF-8"?>
<svg xmlns="http://www.w3.org/2000/svg" xmlns:xlink="http://www.w3.org/1999/xlink" width="324px" height="234px" viewBox="0 0 324 234" version="1.1">
<g id="surface1">
<rect x="0" y="0" width="324" height="234" style="fill:rgb(36.862746%,69.411767%,90.980393%);fill-opacity:1;stroke:none;"/>
<path style="fill:none;stroke-width:1.021703;stroke-linecap:butt;stroke-linejoin:miter;stroke:rgb(100%,100%,100%);stroke-opacity:1;stroke-miterlimit:4;" d="M -0.94401 -1.082899 L 181.217448 -1.082899 L 181.217448 130.605469 L -0.94401 130.605469 Z M -0.94401 -1.082899 " transform="matrix(1.8,0,0,1.8,0,0)"/>
<path style=" stroke:none;fill-rule:nonzero;fill:rgb(23.921569%,38.431373%,45.882353%);fill-opacity:1;" d="M 162.253906 40.449219 C 153.136719 40.449219 145.777344 48.019531 145.777344 57.351562 C 145.777344 64.394531 150.796875 70.203125 156.761719 72.742188 L 156.761719 87.261719 L 131.335938 87.261719 C 130.246094 87.261719 129.277344 88.75 129.277344 89.9375 L 129.277344 96.273438 C 129.277344 97.484375 130.199219 99.222656 131.335938 98.949219 L 156.761719 98.949219 L 156.761719 167.261719 C 156.761719 169.457031 152.53125 169.480469 150.539062 169.707031 C 147.601562 169.707031 145.796875 168.929688 143.007812 168.148438 C 136.660156 166.230469 130.605469 163.601562 124.796875 160.398438 C 122.332031 159.003906 119.945312 157.652344 117.761719 155.851562 C 116.839844 155 115.746094 153.835938 115.828125 152.488281 C 115.953125 151.433594 116.46875 150.363281 117.5625 150.175781 C 118.550781 150.019531 119.453125 150.5625 120.332031 150.910156 C 121.082031 151.230469 121.617188 150.292969 121.492188 149.648438 C 121.378906 147.957031 120.824219 146.375 119.96875 144.914062 C 118.167969 141.867188 115.398438 139.632812 112.542969 137.710938 C 109.496094 135.722656 106.238281 133.527344 104.285156 130.300781 C 103.898438 129.726562 103.46875 128.71875 102.609375 129.042969 C 101.40625 129.425781 100.742188 130.640625 100.164062 131.671875 C 98.511719 134.871094 97.699219 138.375 96.945312 141.914062 C 96.347656 144.726562 96.238281 147.699219 96.453125 150.5625 C 96.664062 153.421875 96.859375 156.324219 97.972656 159.023438 C 98.703125 160.785156 99.945312 162.203125 101.191406 163.59375 C 101.988281 162.730469 102.824219 161.785156 103.636719 160.964844 C 104.683594 159.867188 106.019531 159.15625 107.585938 159.386719 C 109.6875 159.660156 111.59375 160.984375 113.246094 162.21875 C 115.585938 164.050781 117.75 165.996094 120.132812 167.847656 C 123.890625 170.796875 128.03125 172.945312 132.296875 175.03125 C 135.839844 176.722656 139.488281 178.390625 143.171875 179.789062 C 143.835938 180.089844 144.546875 180.066406 145.234375 180.316406 C 151.863281 183.109375 157.464844 186.445312 162.054688 192.347656 C 162.054688 192.441406 162.054688 192.597656 162.054688 192.691406 C 162.097656 192.621094 162.179688 192.535156 162.246094 192.488281 C 162.292969 192.558594 162.375 192.644531 162.441406 192.691406 C 162.484375 192.511719 162.394531 192.304688 162.441406 192.144531 C 167.007812 186.3125 172.648438 183.132812 179.238281 180.316406 C 179.925781 180.066406 180.65625 180.089844 181.320312 179.789062 C 184.992188 178.417969 188.660156 176.726562 192.195312 175.03125 C 196.441406 172.949219 200.605469 170.773438 204.359375 167.847656 C 206.722656 165.996094 208.910156 164.050781 211.25 162.21875 C 212.902344 160.984375 214.808594 159.636719 216.910156 159.386719 C 218.453125 159.179688 219.765625 159.890625 220.835938 160.964844 C 221.648438 161.816406 222.492188 162.753906 223.28125 163.59375 C 224.527344 162.226562 225.792969 160.785156 226.5 159.023438 C 227.636719 156.347656 227.828125 153.445312 228.042969 150.5625 C 228.257812 147.707031 228.132812 144.707031 227.527344 141.914062 C 226.796875 138.375 225.941406 134.894531 224.308594 131.671875 C 223.730469 130.640625 223.046875 129.425781 221.863281 129.042969 C 221.007812 128.71875 220.578125 129.703125 220.1875 130.300781 C 218.238281 133.503906 215 135.699219 211.929688 137.710938 C 209.058594 139.632812 206.3125 141.875 204.488281 144.914062 C 203.628906 146.375 203.070312 147.957031 202.945312 149.648438 C 202.835938 150.289062 203.351562 151.246094 204.167969 150.933594 C 204.980469 150.585938 205.886719 150.042969 206.914062 150.199219 C 208.03125 150.382812 208.546875 151.480469 208.632812 152.511719 C 208.761719 153.859375 207.644531 155.054688 206.699219 155.875 C 204.515625 157.660156 202.132812 159.027344 199.6875 160.421875 C 193.871094 163.625 187.824219 166.253906 181.492188 168.148438 C 178.636719 168.953125 176.855469 169.730469 173.960938 169.730469 C 171.429688 170.1875 167.671875 168.792969 167.671875 167.285156 L 167.671875 98.972656 L 193.097656 98.972656 C 194.105469 98.972656 195.15625 97.578125 195.15625 96.296875 L 195.15625 89.960938 C 195.15625 88.726562 194.167969 87.539062 193.097656 87.285156 L 167.671875 87.285156 L 167.671875 72.765625 C 173.726562 70.226562 178.65625 64.417969 178.65625 57.375 C 178.65625 48.019531 171.277344 40.449219 162.179688 40.449219 M 161.835938 48.703125 C 166.257812 48.703125 169.902344 52.269531 169.902344 56.824219 C 169.902344 61.351562 166.277344 65.078125 161.835938 65.078125 C 157.414062 65.078125 153.722656 61.351562 153.722656 56.824219 C 153.722656 52.296875 157.390625 48.703125 161.835938 48.703125 M 161.835938 48.703125 "/>
</g>
</svg>
