<svg xmlns="http://www.w3.org/2000/svg" xmlns:xlink="http://www.w3.org/1999/xlink" width="324" height="234"><defs><linearGradient id="q"><stop offset="0" stop-color="#a1cfed"/><stop offset="1" stop-color="#a1cfed" stop-opacity="0"/></linearGradient><linearGradient id="x"><stop offset="0" stop-color="#ffd6f0"/><stop offset="1" stop-color="#ff92d8"/></linearGradient><linearGradient id="p"><stop offset="0" stop-color="#67cefa" stop-opacity=".1059"/><stop offset=".3025" stop-color="#ffe" stop-opacity=".4353"/><stop offset="1" stop-color="#67cefa" stop-opacity="0"/></linearGradient><linearGradient id="w"><stop offset="0" stop-color="#9bdfff"/><stop offset="1" stop-color="#11b3ff" stop-opacity=".4238"/></linearGradient><linearGradient id="o"><stop offset="0" stop-color="#fff0f8"/><stop offset="1" stop-color="#7ebde5"/></linearGradient><linearGradient id="v"><stop offset="0" stop-color="#5d4963"/><stop offset="1" stop-color="#382c3c"/></linearGradient><linearGradient id="u"><stop offset="0" stop-color="#fff"/><stop offset="1" stop-color="#fff" stop-opacity="0"/></linearGradient><linearGradient id="t"><stop offset="0" stop-color="#d9d0dc"/><stop offset="1" stop-color="#c3b5c8"/></linearGradient><linearGradient id="n"><stop offset="0" stop-color="#e6e0e8"/><stop offset="1" stop-color="#ced9c4" stop-opacity="0"/></linearGradient><linearGradient id="s"><stop offset="0" stop-color="#718756"/><stop offset="1" stop-color="#abbe9a" stop-opacity=".8902"/></linearGradient><linearGradient id="m"><stop offset="0" stop-color="#a0b48a"/><stop offset="1" stop-color="#c1be9f" stop-opacity=".4571"/></linearGradient><linearGradient id="h"><stop offset="0" stop-color="#466e64"/><stop offset="1" stop-color="#a7c19f" stop-opacity=".7952"/></linearGradient><linearGradient id="j"><stop offset="0" stop-color="#466e64"/><stop offset="1" stop-color="#a7c19f" stop-opacity=".7952"/></linearGradient><linearGradient id="i"><stop offset="0" stop-color="#466e64"/><stop offset="1" stop-color="#a7c19f" stop-opacity=".7952"/></linearGradient><linearGradient id="k"><stop offset="0" stop-color="#466e64"/><stop offset="1" stop-color="#9fc1b9" stop-opacity=".7961"/></linearGradient><linearGradient id="l"><stop offset="0" stop-color="#466e61"/><stop offset="1" stop-color="#95b5ae"/></linearGradient><linearGradient id="g"><stop offset="0" stop-color="#d6d4bf"/><stop offset="1" stop-color="#bfd3d6" stop-opacity=".9843"/></linearGradient><linearGradient id="f"><stop offset="0" stop-color="#4c6e46"/><stop offset="1" stop-color="#9eb595"/></linearGradient><linearGradient id="e"><stop offset="0" stop-color="#b4b08a"/><stop offset="1" stop-color="#c1be9f" stop-opacity=".4571"/></linearGradient><linearGradient id="d"><stop offset="0" stop-color="#5cb0e6"/><stop offset="1" stop-color="#208dd3"/></linearGradient><linearGradient id="r"><stop offset="0" stop-color="#878256"/><stop offset="1" stop-color="#bebb9a" stop-opacity=".8902"/></linearGradient><linearGradient id="c"><stop offset="0" stop-color="#4c6e46"/><stop offset="1" stop-color="#a7c19f" stop-opacity=".7952"/></linearGradient><linearGradient id="b"><stop offset="0" stop-color="#b4b08a"/><stop offset="1" stop-color="#c1be9f" stop-opacity="0"/></linearGradient><linearGradient id="a"><stop offset="0" stop-color="#3a6173"/><stop offset=".4999" stop-color="#437084"/><stop offset="1" stop-color="#3a6173"/></linearGradient><linearGradient xlink:href="#a" id="O" x1="92.7009" x2="223.5926" y1="40.2098" y2="148.6727" gradientTransform="rotate(11.77 112.0293 162.997)" gradientUnits="userSpaceOnUse"/><linearGradient xlink:href="#b" id="Y" x1="170.2288" x2="171.3715" y1="196.3711" y2="200.1211" gradientTransform="translate(-22.6084 -29.7243) scale(1.1465)" gradientUnits="userSpaceOnUse"/><linearGradient xlink:href="#c" id="H" x1="170.2288" x2="171.3715" y1="196.3711" y2="200.1211" gradientTransform="matrix(-.2925 -.7704 2.0416 -.523 -328.6481 441.7162)" gradientUnits="userSpaceOnUse"/><linearGradient xlink:href="#c" id="I" x1="170.2288" x2="171.3715" y1="196.3711" y2="200.1211" gradientTransform="matrix(.2362 -.622 -1.6487 -.4224 337.7762 386.6382)" gradientUnits="userSpaceOnUse"/><linearGradient xlink:href="#c" id="J" x1="170.2288" x2="171.3715" y1="196.3711" y2="200.1211" gradientTransform="matrix(-.1797 -.4733 1.2543 -.3213 -186.3624 325.5075)" gradientUnits="userSpaceOnUse"/><linearGradient xlink:href="#c" id="K" x1="170.2288" x2="171.3715" y1="196.3711" y2="200.1211" gradientTransform="matrix(.1354 -.3566 -.945 -.2421 210.8072 279.6435)" gradientUnits="userSpaceOnUse"/><linearGradient xlink:href="#d" id="y" x1="324" x2="324" y1="0" y2="101.9043" gradientUnits="userSpaceOnUse"/><linearGradient xlink:href="#e" id="M" x1="41.3731" x2="41.3729" y1="223.4108" y2="227.2557" gradientTransform="translate(-.74 1.0607)" gradientUnits="userSpaceOnUse"/><linearGradient xlink:href="#f" id="L" x1="33.8669" x2="45.0137" y1="196.4812" y2="196.4812" gradientUnits="userSpaceOnUse"/><linearGradient xlink:href="#g" id="z" x1="324" x2="323.2929" y1="234" y2="180.3122" gradientUnits="userSpaceOnUse"/><linearGradient xlink:href="#h" id="F" x1="170.2288" x2="171.3715" y1="196.3711" y2="200.1211" gradientTransform="matrix(-.0745 -.196 .5197 -.1331 29.2107 233.0439)" gradientUnits="userSpaceOnUse"/><linearGradient xlink:href="#i" id="D" x1="170.2288" x2="171.3715" y1="196.3711" y2="200.1211" gradientTransform="matrix(.1608 -.4236 -1.1227 -.2876 325.8487 322.1651)" gradientUnits="userSpaceOnUse"/><linearGradient xlink:href="#j" id="E" x1="170.2288" x2="171.3715" y1="196.3711" y2="200.1211" gradientTransform="matrix(-.1299 -.342 .9066 -.2323 -40.6076 291.8786)" gradientUnits="userSpaceOnUse"/><linearGradient xlink:href="#k" id="B" x1="170.2288" x2="171.3715" y1="196.3711" y2="200.1211" gradientTransform="matrix(.0988 -.2603 -.6897 -.1767 247.608 258.2638)" gradientUnits="userSpaceOnUse"/><linearGradient xlink:href="#l" id="G" x1="33.8669" x2="45.0137" y1="196.4812" y2="196.4812" gradientTransform="matrix(-.5499 0 0 .5499 145.1302 79.2723)" gradientUnits="userSpaceOnUse"/><linearGradient xlink:href="#m" id="N" x1="41.3731" x2="41.3729" y1="223.4108" y2="227.2557" gradientTransform="matrix(-.5499 0 0 .5499 145.5372 79.8556)" gradientUnits="userSpaceOnUse"/><linearGradient xlink:href="#n" id="P" x1="83.2425" x2="82.246" y1="212.7707" y2="219.0677" gradientUnits="userSpaceOnUse"/><linearGradient xlink:href="#o" id="X" x1="241.5067" x2="241.5362" y1="96.7989" y2="113.1282" gradientUnits="userSpaceOnUse"/><linearGradient xlink:href="#n" id="T" x1="83.2425" x2="82.246" y1="212.7707" y2="219.0677" gradientUnits="userSpaceOnUse"/><linearGradient xlink:href="#n" id="U" x1="83.2425" x2="82.246" y1="212.7707" y2="219.0677" gradientUnits="userSpaceOnUse"/><linearGradient xlink:href="#n" id="V" x1="83.2425" x2="82.246" y1="212.7707" y2="219.0677" gradientUnits="userSpaceOnUse"/><linearGradient xlink:href="#n" id="W" x1="83.2425" x2="82.246" y1="212.7707" y2="219.0677" gradientUnits="userSpaceOnUse"/><linearGradient xlink:href="#p" id="Z" x1="80.6102" x2="168.7084" y1="129.4005" y2="44.8122" gradientUnits="userSpaceOnUse"/><linearGradient xlink:href="#q" id="ad" x1="189.8051" x2="190.6693" y1="76.4712" y2="77.0266" gradientUnits="userSpaceOnUse"/><linearGradient xlink:href="#q" id="ae" x1="189.8051" x2="190.6693" y1="76.4712" y2="77.0266" gradientUnits="userSpaceOnUse"/><linearGradient xlink:href="#q" id="af" x1="189.8051" x2="190.6693" y1="76.4712" y2="77.0266" gradientUnits="userSpaceOnUse"/><radialGradient xlink:href="#r" id="A" cx="40.0549" cy="221.7068" r="5.2581" fx="40.0549" fy="221.7068" gradientTransform="matrix(1 0 0 .5355 0 102.1681)" gradientUnits="userSpaceOnUse"/><radialGradient xlink:href="#s" id="C" cx="40.0549" cy="221.7068" r="5.2581" fx="40.0549" fy="221.7068" gradientTransform="matrix(1 0 0 .5355 0 102.1681)" gradientUnits="userSpaceOnUse"/><radialGradient xlink:href="#t" id="Q" cx="202.9894" cy="124.4647" r=".6463" fx="202.9894" fy="124.4647" gradientTransform="matrix(1.7848 0 0 1.8 -290.6788 -150.4987)" gradientUnits="userSpaceOnUse"/><radialGradient xlink:href="#u" id="R" cx="203.2081" cy="124.2014" r=".6463" fx="203.2081" fy="124.2014" gradientTransform="matrix(1.7848 0 0 1.8 -290.6788 -150.4987)" gradientUnits="userSpaceOnUse"/><radialGradient xlink:href="#v" id="S" cx="202.8215" cy="124.8007" r=".1816" fx="202.8215" fy="124.8007" gradientTransform="matrix(1.7848 0 0 1.8 -290.6788 -150.5038)" gradientUnits="userSpaceOnUse"/><radialGradient xlink:href="#w" id="aa" cx="257.2549" cy="216.6294" r="32.2923" fx="257.2549" fy="216.6294" gradientTransform="matrix(1 0 0 1.0294 0 -6.3588)" gradientUnits="userSpaceOnUse"/><radialGradient xlink:href="#x" id="ac" cx="257.2549" cy="216.6294" r="32.2923" fx="257.2549" fy="216.6294" gradientTransform="matrix(1 0 0 1.0294 0 -6.3588)" gradientUnits="userSpaceOnUse"/><filter id="ab" width="1.468" height="1.4546" x="-.234" y="-.2273" color-interpolation-filters="sRGB"><feGaussianBlur stdDeviation="6.2966"/></filter></defs><path fill="url(#y)" d="M0 0v234h324V0Z"/><path fill="url(#z)" d="M324 203.8086c-52.0081-10.3838-104.5935-22.3884-157.9726-20.363-37.3282.963-72.2693 19.097-109.9151 16.7102-18.8569-.6106-37.5565-3.4222-56.1123-6.687V234h324v-30.1914z"/><path fill="url(#A)" d="M34.8806 219.9734c-.1298-.7558.339-1.4746 1.2703-1.9947.9314-.5201 2.3294-.8435 3.7453-.8383 1.4158.005 2.8545.339 3.8123.8698.9578.5309 1.4372 1.2604 1.604 1.9892.1668.7289.021 1.4578-.6617 1.9636-.6828.506-1.8996.7867-3.3537.8076-1.4541.021-3.14-.2184-4.349-.7343-1.209-.5159-1.9377-1.3072-2.0675-2.063z" transform="translate(-.6517 2.1213)"/><path fill="url(#B)" d="M128.7562 180.3174c-.9882.599-2.1873 1.1224-3.791 1.4194-.578.1067-1.1329.2346-1.727.3271.267-.4586.599-.8998 1.0579-1.2987 1.3298-1.2625 2.5643-2.5619 4.2039-3.7146.8602-.5633 1.9009-1.1342 3.7327-1.1684.4034-.0122 1.3944.0152 1.0948.3125-.3937.8322-.8781 1.6453-1.6407 2.3666-.7071.67-1.8574 1.1678-2.8656 1.7182l-.0653.0378z"/><path fill="#4c8774" d="M123.0406 182.2824c.868-.2401 1.779-.1017 2.6674-.1472.8118-.0115 1.6759-.0792 2.3506-.5806.5951-.4605 1.3352-.631 2.0297-.879.4396-.1208.7746-.4671.8685-.9157.1976-.5418.8404-.6006 1.2824-.851.6047-.2562 1.0032-.8379 1.1266-1.4709.0924-.448.1708-.9284.043-1.3765-.3353-.2755-.6606.3775-.9406.5582-.407.4181-.9051.8165-1.034 1.4157-.2348.4217-.6926.6517-1.048.962-.7924.615-1.608 1.2166-2.5291 1.6266-1.4347.7253-3.0125 1.015-4.5574 1.3871-.0927.006-.531.191-.259.2713z"/><path fill="url(#C)" d="M34.8806 219.9734c-.1298-.7558.339-1.4746 1.2703-1.9947.9314-.5201 2.3294-.8435 3.7453-.8383 1.4158.005 2.8545.339 3.8123.8698.9578.5309 1.4372 1.2604 1.604 1.9892.1668.7289.021 1.4578-.6617 1.9636-.6828.506-1.8996.7867-3.3537.8076-1.4541.021-3.14-.2184-4.349-.7343-1.209-.5159-1.9377-1.3072-2.0675-2.063z" transform="matrix(-.5499 0 0 .5499 145.4886 80.4388)"/><path fill="url(#D)" d="M132.376 195.3096c-1.6085.9746-3.5603 1.8264-6.1706 2.3096-.9408.1738-1.8442.3818-2.8112.5323.4346-.7463.9748-1.4642 1.7218-2.1134 2.1645-2.0546 4.174-4.169 6.8427-6.0449 1.4003-.9166 3.0942-1.8455 6.076-1.901.6566-.02 2.2698.0247 1.782.5085-.6408 1.3543-1.4292 2.6775-2.6705 3.8512-1.1509 1.0904-3.0232 1.9005-4.6643 2.796l-.1063.0616z"/><path fill="#4c8774" d="M123.0956 198.4934c1.413-.3906 2.8956-.1658 4.3416-.2397 1.3213-.0186 2.7278-.1288 3.826-.945.941-.7254 2.103-1.0149 3.2057-1.3939.6911-.1983 1.3233-.6742 1.4684-1.4154.2512-.924 1.2984-1.0699 2.0306-1.4483.9333-.3827 1.6365-1.2098 1.8673-2.1918.203-.804.3584-1.6767.1361-2.4913-.5456-.4483-1.0752.6144-1.531.9084-.6624.6806-1.473 1.329-1.683 2.3042-.382.6865-1.1272 1.0609-1.7057 1.566-1.507 1.1946-3.1118 2.2931-4.9119 2.9985-2.0855.9155-4.3249 1.368-6.5317 1.8813-.1651.023-.9697.2963-.5124.467z"/><path fill="url(#E)" d="M115.6164 189.44c1.2992.7867 2.8754 1.4743 4.9834 1.8642.7598.1402 1.4893.3081 2.2702.4295-.351-.6025-.7874-1.1821-1.3906-1.7062-1.7482-1.6587-3.3712-3.3657-5.5265-4.88-1.1309-.74-2.4989-1.4899-4.9069-1.5345-.5302-.016-1.8329.0202-1.439.4108.5176 1.0934 1.1545 2.1616 2.157 3.1092.9295.8803 2.4416 1.5342 3.767 2.2572l.0858.0497z"/><path fill="#4c8774" d="M123.123 192.009c-1.141-.3154-2.3382-.1338-3.506-.1936-1.067-.015-2.2027-.104-3.0896-.763-.7599-.5858-1.6982-.8196-2.5887-1.1257-.5581-.16-1.0686-.5444-1.1858-1.143-.2028-.746-1.0485-.864-1.6398-1.1695-.7536-.309-1.3214-.977-1.5078-1.77-.164-.6492-.2895-1.354-.11-2.0118.4406-.3621.8682.4962 1.2363.7336.535.5495 1.1895 1.0732 1.3591 1.8607.3085.5544.9103.8567 1.3774 1.2646 1.217.9646 2.5129 1.8518 3.9665 2.4214 1.6843.7392 3.4926 1.1049 5.2747 1.5192.1334.0186.7832.2395.4137.3771z"/><path fill="url(#F)" d="M118.7587 174.3424c.7448.451 1.6484.845 2.857 1.0686.4355.0804.8537.1766 1.3014.2462-.2013-.3453-.4515-.6775-.7974-.9778-1.0023-.9507-1.9328-1.929-3.1686-2.797-.6483-.424-1.4326-.8538-2.813-.8794-.304-.009-1.0508.0115-.825.2353.297.6267.662 1.2389 1.2369 1.782.533.5045 1.3998.8792 2.1597 1.2936l.0492.0285z"/><path fill="#4c8774" d="M123.0622 175.798c-.7897-.204-1.6114-.0523-2.4148-.1259-.5316-.0263-1.0744-.1655-1.491-.5118-.4971-.34-1.1105-.4232-1.6446-.6794-.397-.1616-.3177-.674-.653-.8856-.4053-.2497-.9282-.3225-1.2349-.7197-.3406-.4048-.4199-.966-.42-1.4776-.0813-.3476.2984-.437.4612-.161.373.4345.9327.7693 1.0733 1.3612.2362.383.658.587.987.879.7384.581 1.5562 1.0632 2.4414 1.3831.8917.3424 1.8329.5222 2.7574.7487.064.0193.3197.1234.138.189z"/><path fill="url(#G)" d="M122.0342 201.7336c-.6246-1.1698-.885-2.6032-.2673-3.8344.6415-1.5699 1.9345-3.1273 1.4125-4.9278-.5836-2.2992-2.7055-4.1144-2.5172-6.6248.1665-1.8916.9326-3.729.66-5.6541-.128-1.5335-.5065-3.277.5803-4.5776.8431-.9936 1.5215-2.1495 1.6961-3.4608.2167-1.4632.406.7097.2649 1.1823-.072 1.0714-.2426 2.1989-.987 3.0286-1.0147 1.7963.1484 3.7861.123 5.6666-.1121 1.6862-.3451 3.4533.3952 5.0444.7763 2.1047 2.375 3.8686 2.8033 6.1022.3246 1.7685-1.3474 3.2394-.8568 5.0208.0634 1.1402 1.105 2.2835.6214 3.39-1.099.555-2.4809.71-3.629.1875-.16-.1364-.1934-.3684-.2994-.543z"/><path fill="url(#H)" d="M23.1618 211.0158c2.9255 1.7725 6.4749 3.3218 11.222 4.2007 1.711.316 3.3537.6944 5.1123.9682-.7905-1.3574-1.773-2.663-3.1315-3.8437-3.9367-3.7367-7.5913-7.5823-12.4448-10.994-2.5466-1.6672-5.6271-3.3566-11.0497-3.4578-1.194-.0362-4.1276.045-3.2405.9249 1.1655 2.463 2.5995 4.8694 4.857 7.0042 2.0932 1.9831 5.4983 3.4564 8.4828 5.0853l.1932.112z"/><path fill="#4c874e" d="M40.0714 216.8112c-2.5696-.7105-5.2658-.3015-7.8955-.436-2.403-.0338-4.9606-.2342-6.9577-1.7182-1.7114-1.3193-3.8245-1.8459-5.8299-2.5351-1.2569-.3606-2.4066-1.226-2.6705-2.574-.4566-1.6803-2.361-1.9456-3.6927-2.6338-1.6971-.696-2.9759-2.2002-3.3956-3.986-.3691-1.462-.6519-3.0492-.2478-4.5306.9924-.8155 1.9554 1.1173 2.7842 1.652 1.2048 1.2377 2.6789 2.417 3.0608 4.1904.6946 1.2484 2.05 1.9291 3.102 2.8477 2.7406 2.1725 5.659 4.1701 8.9324 5.453 3.7928 1.6651 7.8652 2.488 11.8786 3.4213.276.0317 1.8004.5625.9317.8493z"/><path fill="url(#I)" d="M53.6695 200.3487c-2.3624 1.431-5.2287 2.6816-9.0622 3.391-1.3817.255-2.7083.5604-4.1284.7813.6383-1.0959 1.4317-2.15 2.5288-3.1031 3.179-3.0168 6.1302-6.1215 10.0497-8.8758 2.0564-1.3459 4.5441-2.7097 8.923-2.791.9643-.0293 3.3333.0365 2.617.7469-.9412 1.9886-2.0992 3.9314-3.9223 5.6548-1.6903 1.601-4.44 2.7904-6.8502 4.1054l-.156.0903z"/><path fill="#4c874e" d="M40.0214 205.019c2.075-.5739 4.2523-.2435 6.376-.352 1.9404-.0275 4.0058-.1893 5.6185-1.3877 1.382-1.0653 3.0885-1.4905 4.7079-2.0471 1.015-.2912 1.9434-.9901 2.1565-2.0786.3688-1.357 1.9066-1.5712 2.982-2.127 1.3705-.562 2.4031-1.7767 2.7421-3.2187.298-1.1807.5264-2.4624.2001-3.6587-.8013-.6585-1.579.9023-2.2483 1.334-.973.9995-2.1633 1.9519-2.4718 3.3839-.5609 1.0082-1.6553 1.558-2.5049 2.2997-2.2132 1.7544-4.5699 3.3675-7.2134 4.4035-3.0627 1.3446-6.3513 2.0091-9.5923 2.7628-.2228.0257-1.4538.4542-.7524.6859z"/><path fill="url(#J)" d="M29.78 183.7769c1.7974 1.089 3.978 2.0408 6.8945 2.5808 1.0511.1941 2.0604.4266 3.1408.5948-.4857-.834-1.0893-1.636-1.9239-2.3614-2.4185-2.2957-4.6638-4.6583-7.6457-6.7543-1.5645-1.0242-3.457-2.0621-6.7885-2.1243-.7336-.0223-2.5359.0276-1.991.5682.7161 1.5132 1.5971 2.9916 2.984 4.303 1.286 1.2184 3.378 2.1236 5.2116 3.1243l.1187.0687z"/><path fill="#4c874e" d="M40.1714 187.3304c-1.5787-.4365-3.2352-.1853-4.8509-.2678-1.4762-.0208-3.0476-.144-4.2746-1.0557-1.0514-.8105-2.3497-1.134-3.5818-1.5574-.7722-.2215-1.4785-.7533-1.6406-1.5815-.2806-1.0323-1.4506-1.1954-2.2687-1.6182-1.0427-.4276-1.8284-1.3517-2.0863-2.4488-.2267-.8983-.4004-1.8735-.1521-2.7836.6096-.501 1.2013.6864 1.7104 1.015.7402.7604 1.646 1.485 1.8806 2.5745.4267.767 1.2594 1.1852 1.9057 1.7495 1.6838 1.3348 3.4767 2.5621 5.488 3.3503 2.3301 1.0229 4.8321 1.5285 7.2979 2.102.1696.0195 1.1061.3457.5724.5217z"/><path fill="url(#K)" d="M47.9658 172.8546c-1.3542.8205-2.9971 1.5376-5.1944 1.9444-.792.1462-1.5524.3214-2.3664.4481.366-.6283.8207-1.2326 1.4495-1.7791 1.8223-1.7296 3.514-3.5097 5.7606-5.0889 1.1787-.7716 2.6047-1.5536 5.1146-1.6004.5527-.0168 1.9106.0208 1.5.4281-.5395 1.1401-1.2033 2.254-2.2483 3.242-.969.918-2.545 1.6-3.9266 2.354l-.0894.0517z"/><path fill="#4c874e" d="M40.132 175.5381c1.1895-.3287 2.4375-.1396 3.6548-.2018 1.1123-.0156 2.2962-.1084 3.2206-.7953.7922-.6107 1.7703-.8544 2.6986-1.1734.5818-.167 1.114-.5676 1.2361-1.1915.2115-.7778 1.0929-.9007 1.7093-1.2192.7856-.3222 1.3776-1.0184 1.5718-1.845.171-.6768.3016-1.4115.1146-2.0972-.4592-.3775-.905.5173-1.2886.7647-.5577.573-1.2401 1.1188-1.4169 1.9397-.3214.5779-.949.8929-1.4358 1.318-1.2686 1.0058-2.6194 1.9305-4.1347 2.5242-1.7557.7706-3.6407 1.1517-5.4984 1.5837-.1278.0147-.8334.2604-.4314.3931z"/><path fill="url(#L)" d="M42.0003 222.6973c1.1358-2.1273 1.6093-4.7338.4862-6.9728-1.1667-2.8548-3.518-5.687-2.5688-8.9613 1.0614-4.181 4.92-7.482 4.5776-12.0474-.3028-3.4397-1.696-6.781-1.2003-10.282.2328-2.7886.9212-5.959-1.055-8.3243-1.5334-1.8069-2.767-3.9088-3.0845-6.2936-.394-2.6609-.7382 1.2907-.4817 2.15.1308 1.9484.4412 3.9988 1.7949 5.5077 1.8451 3.2665-.27 6.885-.2236 10.3048.2038 3.0663.6275 6.2797-.7188 9.1733-1.4118 3.8274-4.319 7.035-5.0979 11.0968-.5903 3.216 2.4504 5.891 1.5582 9.1303-.1155 2.0737-2.0094 4.1527-1.1301 6.1649 1.9984 1.0093 4.5115 1.2912 6.5992.3409.2912-.248.352-.6698.5446-.9873z"/><path fill="url(#M)" d="M28.5763 225.9861c1.0267-.9058 2.5211-1.228 3.3382-2.394.7196-.9225.65-2.3317 1.6502-3.0463 1.1325-.6938 2.6869-.3848 3.5863.5575.6358.6327 1.4985 1.123 2.4264.9648 1.6205-.1369 3.1947-.944 4.839-.6527 1.4372.3652 2.2682 1.7297 3.5028 2.4515.7867.5887 1.7745.96 2.386 1.7497.081.9785-1.3434 1.0065-2.037 1.251-2.2246.4087-4.4277 1.034-6.6992 1.1071-1.8018.0246-3.5735-.6117-5.379-.309-2.2707.352-4.6385.1753-6.7898-.6547-.37-.1714-1.185-.4958-.8239-1.0249z"/><path fill="url(#N)" d="M129.4162 203.542c-.5646-.498-1.3864-.6752-1.8357-1.3164-.3957-.5072-.3574-1.2822-.9075-1.6752-.6227-.3815-1.4775-.2115-1.972.3066-.3497.348-.824.6176-1.3344.5306-.891-.0753-1.7567-.5191-2.6609-.359-.7903.2009-1.2473.9512-1.9262 1.3481-.4326.3238-.9758.528-1.312.9622-.0446.538.7387.5535 1.1201.688 1.2233.2246 2.4348.5685 3.6839.6087.9908.0135 1.965-.3364 2.9579-.17 1.2486.1936 2.5507.0965 3.7337-.36.2035-.0942.6516-.2726.453-.5635z"/><path fill="url(#O)" d="M186.1923 53.2686c-8.9255-1.8594-17.6742 4.0508-19.5775 13.1866-1.4365 6.895 2.2929 13.6052 7.6145 17.3075L171.268 97.977l-24.8914-5.1857c-1.0669-.2223-2.3188 1.0372-2.561 2.1997l-1.2923 6.2028c-.247 1.1854.301 3.0752 1.4696 3.0394l24.8914 5.1857-13.9326 66.8765c-.4478 2.1492-4.5941 1.3093-6.5906 1.1248-2.8758-.599-4.484-1.7282-7.0551-3.0618-5.823-3.1723-11.2143-6.9809-16.2475-11.3013-2.1286-1.868-4.1895-3.6779-5.96-5.8862-.7288-1.0217-1.5621-2.3843-1.207-3.687.3375-1.007 1.0606-1.9496 2.1696-1.91.9994.0485 1.772.7641 2.5616 1.2837.6689.4666 1.384-.3421 1.393-.9986.2341-1.679.0138-3.3408-.5257-4.9455-1.1416-3.3501-3.3972-6.1024-5.8006-8.5663-2.5773-2.5679-5.319-5.3815-6.573-8.9386-.2614-.641-.4765-1.7153-1.384-1.5731-1.2559.1293-2.1537 1.1832-2.93 2.0749-2.2702 2.795-3.7802 6.0595-5.24 9.3704-1.1588 2.6315-1.8722 5.5193-2.2458 8.3663-.3767 2.8423-.7774 5.7234-.238 8.593.3557 1.8736 1.2826 3.5151 2.2189 5.1307.9562-.6826 1.9674-1.4376 2.93-2.075 1.2488-.861 2.7017-1.2845 4.1882-.7394 2.0016.6963 3.5977 2.3815 4.9635 3.9269 1.917 2.2707 3.6389 4.6165 5.594 6.9152 3.0773 3.6536 6.6927 6.6014 10.4432 9.5135 3.1236 2.3784 6.3551 4.7554 9.676 6.8758.5888.4299 1.2896.552 1.9117.9369 5.9199 4.0862 10.7233 8.4945 14.0129 15.209l-.0701.3364c.0564-.06.1542-.1274.2288-.1598.0315.0784.0943.1793.1498.2387.0787-.1671.033-.3881.1115-.5354 5.6599-4.778 11.8305-6.7405 18.8562-8.1537.724-.1045 1.4344.0674 2.1458-.0916 3.8744-.5934 7.8102-1.5011 11.6168-2.4398 4.5815-1.1722 9.1018-2.453 13.3735-4.5517 2.6913-1.3306 5.2295-2.7889 7.8939-4.1052 1.8693-.8714 4.0104-1.802 6.1187-1.618 1.5528.112 2.6927 1.0756 3.5214 2.3456.6218.9993 1.2566 2.0892 1.8578 3.0723 1.4987-1.0843 3.0317-2.2372 4.0832-3.8177 1.6586-2.3877 2.4379-5.19 3.2362-7.9684.7927-2.7517 1.2822-5.7141 1.259-8.5718.007-3.6137-.1209-7.1955-1.062-10.6834-.3557-1.1275-.7772-2.4562-1.8578-3.0724-.7714-.4919-1.3928.3842-1.8971.8896-2.5615 2.7382-6.1795 4.227-9.5956 5.5702-3.2027 1.2959-6.3484 2.9309-8.754 5.534-1.1393 1.255-2.0089 2.6898-2.4762 4.3202-.2377.6048.0719 1.6469.9348 1.5075.8664-.1747 1.8643-.5214 2.8382-.159 1.0563.4077 1.3372 1.5874 1.211 2.6145-.1487 1.3457-1.4862 2.288-2.579 2.8983-2.5017 1.3022-5.1133 2.1547-7.7916 3.0212-6.3475 1.9495-12.8034 3.2899-19.3887 3.8531-2.9596.2054-4.862.6031-7.6956.0128-2.5713-.0688-5.9657-2.2004-5.6582-3.6766l13.9326-66.8766 24.8914 5.1857c.9866.2056 2.2997-.9453 2.561-2.1996l1.2923-6.2028c.2517-1.2084-.4736-2.5725-1.4696-3.0394l-24.8914-5.1857 2.9614-14.2143c6.4452-1.251 12.456-5.932 13.8924-12.827 1.9081-9.1587-3.7717-18.0749-12.6781-19.9304m-2.02 8.0103c4.329.9019 7.1695 5.1366 6.2406 9.5956-.9234 4.4322-5.2323 7.341-9.5803 6.4352-4.329-.9018-7.1827-5.303-6.2593-9.7351.9233-4.4322 5.2472-7.2023 9.599-6.2957m0 0"/><path fill="url(#P)" d="M65.2505 207.4995c-1.084.9996-.9172 2.9996 1.1675 3.9583 2.0848.9588 6.083.8755 9.2698 2.144 3.1867 1.2684 5.6455 3.9815 9.5628 4.6897 3.9173.7082 9.3339-.5418 12.5414.2494 3.2076.7912 4.2078 3.6252 4.4578 3.4164.25-.2088-.25-3.4581-3.9985-5.4992-3.7487-2.0411-10.7504-2.8747-15.8343-4.3331-5.0838-1.4584-8.2501-3.5415-10.9998-4.5833-2.7497-1.0417-5.0829-1.0417-6.1667-.0422Z" transform="translate(3.664 -134.0196)"/><ellipse cx="71.6231" cy="73.5486" fill="url(#Q)" fill-rule="evenodd" paint-order="markers fill stroke" rx="1.1536" ry="1.1635"/><ellipse cx="71.6231" cy="73.5486" fill="url(#R)" fill-rule="evenodd" paint-order="markers fill stroke" rx="1.1536" ry="1.1635"/><ellipse cx="71.3234" cy="74.1482" fill="url(#S)" fill-rule="evenodd" paint-order="markers fill stroke" rx=".3241" ry=".3268"/><path fill="url(#T)" d="M65.2505 207.4995c-1.084.9996-.9172 2.9996 1.1675 3.9583 2.0848.9588 6.083.8755 9.2698 2.144 3.1867 1.2684 5.6455 3.9815 9.5628 4.6897 3.9173.7082 9.3339-.5418 12.5414.2494 3.2076.7912 4.2078 3.6252 4.4578 3.4164.25-.2088-.25-3.4581-3.9985-5.4992-3.7487-2.0411-10.7504-2.8747-15.8343-4.3331-5.0838-1.4584-8.2501-3.5415-10.9998-4.5833-2.7497-1.0417-5.0829-1.0417-6.1667-.0422Z" transform="matrix(.841 .5321 -.5876 .7616 355.8477 -135.4882)"/><path fill="url(#U)" d="M65.2505 207.4995c-1.084.9996-.9172 2.9996 1.1675 3.9583 2.0848.9588 6.083.8755 9.2698 2.144 3.1867 1.2684 5.6455 3.9815 9.5628 4.6897 3.9173.7082 9.3339-.5418 12.5414.2494 3.2076.7912 4.2078 3.6252 4.4578 3.4164.25-.2088-.25-3.4581-3.9985-5.4992-3.7487-2.0411-10.7504-2.8747-15.8343-4.3331-5.0838-1.4584-8.2501-3.5415-10.9998-4.5833-2.7497-1.0417-5.0829-1.0417-6.1667-.0422Z" transform="matrix(.3355 .878 .9696 -.3038 45.808 78.2069)"/><path fill="url(#V)" d="M65.2505 207.4995c-1.084.9996-.9172 2.9996 1.1675 3.9583 2.0848.9588 6.083.8755 9.2698 2.144 3.1867 1.2684 5.6455 3.9815 9.5628 4.6897 3.9173.7082 9.3339-.5418 12.5414.2494 3.2076.7912 4.2078 3.6252 4.4578 3.4164.25-.2088-.25-3.4581-3.9985-5.4992-3.7487-2.0411-10.7504-2.8747-15.8343-4.3331-5.0838-1.4584-8.2501-3.5415-10.9998-4.5833-2.7497-1.0417-5.0829-1.0417-6.1667-.0422Z" transform="matrix(.3743 .9794 1.0816 -.339 25.7516 74.3068)"/><path fill="url(#W)" d="M65.2505 207.4995c-1.084.9996-.9172 2.9996 1.1675 3.9583 2.0848.9588 6.083.8755 9.2698 2.144 3.1867 1.2684 5.6455 3.9815 9.5628 4.6897 3.9173.7082 9.3339-.5418 12.5414.2494 3.2076.7912 4.2078 3.6252 4.4578 3.4164.25-.2088-.25-3.4581-3.9985-5.4992-3.7487-2.0411-10.7504-2.8747-15.8343-4.3331-5.0838-1.4584-8.2501-3.5415-10.9998-4.5833-2.7497-1.0417-5.0829-1.0417-6.1667-.0422Z" transform="matrix(.9382 .5936 -.6555 .8496 357.7055 -153.6894)"/><path fill="url(#X)" d="M233.698 112.4414c-.1159-.123.1198-.182.5598-.886.44-.7043 1.0915-2.0663.385-4.333-.7066-2.2668-2.7709-5.4516-2.2695-8.2508.5014-2.7992 3.5658-5.2153 7.5422-5.8632 3.9764-.6478 8.869.4721 10.3128 2.7399 1.4438 2.2677-.56 5.6858-1.2085 8.4265-.6485 2.7407.0583 4.8024-.4378 5.1437-.4962.3413-2.195-1.0383-3.7528-1.8534-1.5577-.815-2.9742-1.065-4.631-.0754-1.6567.9896-3.5515 3.2176-4.7338 4.2394-1.1824 1.0219-1.6504.8354-1.7663.7123z" transform="matrix(1.9485 -1.3332 1.4723 1.7645 -346.6372 201.8378)"/><path fill="url(#Y)" d="M168.0523 195.1573c-3.5384 1.1824-6.9677 2.7854-9.8825 5.1449-.9241.7467-1.9172 1.4348-2.8032 2.2105 2.4907-.1288 4.953-.548 7.391-1.0687 6.3888-1.2877 12.8409-2.3834 19.0764-4.3143 3.0502-1.0177 6.3318-2.4234 8.0014-5.3435 1.1946-1.533-1.1194-1.189-2.0263-1.14-4.9784.2565-10.0336.7263-14.7117 2.5682-1.7018.5966-3.3359 1.3712-5.0451 1.943z"/><path fill="#c9c6ab" d="M154.3245 202.6864c1.8999-1.1249 2.6091-3.3822 4.1134-4.9073 1.7753-2.1767 4.7983-2.1882 7.1062-3.4732 1.8195-.9906 3.6513-2.312 5.8324-2.1635 1.578.0828 3.2083-.0353 4.605-.8418 2.3632-1.2953 5.0945-1.6323 7.7517-1.4963 2.0887.0982 4.2007.23 6.2314.7536.619.7217-1.8395.693-2.4895.9634-2.5523.4914-5.1262 1.0643-7.7425.8992-2.4206.3015-4.75 1.1011-7.115 1.6773-5.6226 1.4147-10.982 3.9018-15.596 7.4258-.7443.4073-1.9462 1.7409-2.6971 1.1628z"/><path fill="url(#Z)" fill-rule="evenodd" d="M0 0v76.0918L176.8848 234h100.2968L86.2617 0Z" paint-order="markers fill stroke"/><path fill="url(#aa)" fill-rule="evenodd" d="M289.3834 234.7071c-2.1403 3.2997-21.501-8.8367-25.158-7.389-3.6307 1.4371-9.2898 23.5265-13.0622 22.518-3.7996-1.016 1.76-23.1793-.7468-26.21-2.4888-3.009-25.2459-1.5652-25.4524-5.4645-.208-3.9276 22.5887-5.489 24.6964-8.8096 2.0926-3.2968-6.3129-24.494-2.6681-25.8953 3.671-1.4115 12.2006 19.787 16.01 20.7654 3.7821.9714 21.3443-13.573 23.8033-10.5397 2.4769 3.0553-15.0483 17.718-14.8016 21.6433.2449 3.8972 19.5044 16.1054 17.3794 19.3814z" paint-order="markers fill stroke" transform="matrix(-.166 .04 -.1352 -.1153 372.5955 224.2553)"/><path fill="#fffee7" fill-rule="evenodd" d="M289.3834 234.7071c-2.1403 3.2997-21.501-8.8367-25.158-7.389-3.6307 1.4371-9.2898 23.5265-13.0622 22.518-3.7996-1.016 1.76-23.1793-.7468-26.21-2.4888-3.009-25.2459-1.5652-25.4524-5.4645-.208-3.9276 22.5887-5.489 24.6964-8.8096 2.0926-3.2968-6.3129-24.494-2.6681-25.8953 3.671-1.4115 12.2006 19.787 16.01 20.7654 3.7821.9714 21.3443-13.573 23.8033-10.5397 2.4769 3.0553-15.0483 17.718-14.8016 21.6433.2449 3.8972 19.5044 16.1054 17.3794 19.3814z" filter="url(#ab)" paint-order="markers fill stroke" transform="matrix(-.4032 .1108 -.3284 -.319 403.7733 256.2856)"/><path fill="url(#ac)" fill-rule="evenodd" d="M289.3834 234.7071c-2.1403 3.2997-21.501-8.8367-25.158-7.389-3.6307 1.4371-9.2898 23.5265-13.0622 22.518-3.7996-1.016 1.76-23.1793-.7468-26.21-2.4888-3.009-25.2459-1.5652-25.4524-5.4645-.208-3.9276 22.5887-5.489 24.6964-8.8096 2.0926-3.2968-6.3129-24.494-2.6681-25.8953 3.671-1.4115 12.2006 19.787 16.01 20.7654 3.7821.9714 21.3443-13.573 23.8033-10.5397 2.4769 3.0553-15.0483 17.718-14.8016 21.6433.2449 3.8972 19.5044 16.1054 17.3794 19.3814z" paint-order="markers fill stroke" transform="matrix(-.4032 .1108 -.3284 -.319 403.7733 256.2856)"/><path fill="url(#ad)" stroke="#47a2dd" stroke-width=".1234" d="M189.5054 76.322c-.4125.154-.6482.537-.4781.8918.17.3547.7428.6778 1.1553.5226s.663-.789.4944-1.1418c-.1687-.3528-.759-.4266-1.1716-.2726z" transform="translate(-1358.9606 -582.0368) scale(8.1022)"/><path fill="#fafaf8" fill-opacity=".7608" d="M180.4061 37.1807c-1.363.1015-2.7301.4042-3.9583 1.0177-.7803.411-1.518.9318-2.097 1.6018-.1947.1478-.143.4027.1124.2443.9251-.3927 1.783-.9306 2.7306-1.276 1.2595-.5579 2.6059-.8312 3.9324-1.1646.146-.04.738-.1738.4183-.356-.3672-.1074-.7606-.0821-1.1384-.0672z"/><path fill="url(#ae)" stroke="#47a2dd" stroke-width=".1013" d="M189.5054 76.322c-.4125.154-.6482.537-.4781.8918.17.3547.7428.6778 1.1553.5226s.663-.789.4944-1.1418c-.1687-.3528-.759-.4266-1.1716-.2726z" transform="matrix(8.3307 0 0 11.688 -1364.2294 -873.1883)"/><path fill="#fafaf8" fill-opacity=".7608" d="M219.8366 19.5377c-1.4714.1483-2.9284.6421-4.1317 1.513-.8242.6217-1.5546 1.3834-2.0943 2.2658-.1648.1667-.2053.5783.1151.3524.797-.4734 1.51-1.0757 2.3092-1.5468 1.204-.747 2.5112-1.3158 3.8624-1.7374.386-.1405.8-.2356 1.1438-.4685.2682-.329-.3916-.3933-.6073-.394-.1991-.009-.3987-.001-.5972.0155z"/><path fill="url(#af)" stroke="#47a2dd" stroke-width=".0713" d="M189.5054 76.322c-.4125.154-.6482.537-.4781.8918.17.3547.7428.6778 1.1553.5226s.663-.789.4944-1.1418c-.1687-.3528-.759-.4266-1.1716-.2726z" transform="matrix(-12.9307 0 0 15.2263 2601.5311 -1153.1745)"/><path fill="#fafaf8" fill-opacity=".7608" d="M147.3757 9.9656c-2.2032.1895-4.404.7834-6.3174 1.9125-1.2799.7929-2.4548 1.7913-3.3465 3.0101-.2842.2473-.2685.7573.179.4592 1.2772-.6396 2.4506-1.4694 3.7373-2.0934 1.915-.9855 3.9574-1.6956 6.0377-2.2398.555-.1809 1.1664-.2705 1.6498-.6137.1375-.4813-.746-.4122-1.07-.4571-.2901-.0083-.5805.0019-.8699.0222z"/></svg>