<?xml version="1.0" encoding="UTF-8"?>
<svg xmlns="http://www.w3.org/2000/svg" xmlns:xlink="http://www.w3.org/1999/xlink" width="324px" height="234px" viewBox="0 0 324 234" version="1.1">
<defs>
<radialGradient id="radial0" gradientUnits="userSpaceOnUse" cx="90.136406" cy="64.761543" fx="90.136406" fy="64.761543" r="91.591759" gradientTransform="matrix(1.8,0,0,1.304046,0,32.11876)">
<stop offset="0" style="stop-color:rgb(20%,27.058825%,27.058825%);stop-opacity:1;"/>
<stop offset="1" style="stop-color:rgb(32.549021%,38.039216%,38.039216%);stop-opacity:1;"/>
</radialGradient>
</defs>
<g id="surface1">
<rect x="0" y="0" width="324" height="234" style="fill:url(#radial0);stroke:none;"/>
<path style="fill:none;stroke-width:1.021703;stroke-linecap:butt;stroke-linejoin:miter;stroke:rgb(100%,100%,100%);stroke-opacity:1;stroke-miterlimit:4;" d="M -0.94401 -1.082899 L 181.217448 -1.082899 L 181.217448 130.605469 L -0.94401 130.605469 Z M -0.94401 -1.082899 " transform="matrix(1.8,0,0,1.8,0,0)"/>
<path style=" stroke:none;fill-rule:nonzero;fill:rgb(92.54902%,95.686275%,94.509804%);fill-opacity:1;" d="M 157.039062 41.152344 C 120.585938 41.152344 94.546875 70.066406 94.546875 85.144531 C 94.546875 88.53125 97.019531 91.425781 99.753906 91.429688 C 110.167969 91.441406 113.675781 88.875 115.378906 85.144531 C 120.996094 72.832031 125.792969 62.613281 141.414062 60.003906 C 136.207031 122.847656 115.378906 179.414062 115.378906 185.703125 C 115.378906 189.175781 117.710938 191.988281 120.585938 191.988281 C 131 191.984375 141.414062 185.703125 151.832031 141.710938 C 188.285156 141.710938 229.945312 114.503906 229.945312 72.578125 C 229.945312 53.902344 209.113281 41.15625 183.074219 41.15625 Z M 162.246094 60.007812 C 193.492188 60.007812 203.90625 66.292969 203.90625 85.144531 C 203.90625 104 188.285156 113.695312 157.039062 116.570312 C 157.039062 116.570312 162.246094 85.144531 162.246094 60.007812 Z M 162.246094 60.007812 "/>
</g>
</svg>
