<svg xmlns="http://www.w3.org/2000/svg" xmlns:xlink="http://www.w3.org/1999/xlink" viewBox="0 0 324 234"><defs><linearGradient id="j"><stop offset="0" stop-color="#af0002" stop-opacity="0"/><stop offset="1" stop-color="#99ffa0"/></linearGradient><linearGradient id="i"><stop offset="0" stop-color="#270012"/><stop offset="1" stop-color="#60512e"/></linearGradient><linearGradient id="a"><stop offset="0" stop-color="#906937"/><stop offset="1" stop-color="#4f0006"/></linearGradient><linearGradient id="h"><stop offset="0" stop-color="#86a6c5"/><stop offset="1" stop-color="#d5eaf7"/></linearGradient><linearGradient id="g"><stop offset="0" stop-color="#d5eaf7"/><stop offset="1" stop-color="#949cae"/></linearGradient><linearGradient id="d"><stop offset="0" stop-color="#86a6c5"/><stop offset="1" stop-color="#d5eaf7"/></linearGradient><linearGradient id="c"><stop offset="0" stop-color="#e3e3e3"/><stop offset="1" stop-color="#aab1bf"/></linearGradient><linearGradient id="e"><stop offset="0" stop-color="#fff"/><stop offset="1" stop-color="#e6c7ac"/></linearGradient><linearGradient id="l"><stop offset="0" stop-color="#eb8a1b"/><stop offset="1" stop-color="#f3e4d7" stop-opacity="0"/></linearGradient><linearGradient id="f"><stop offset="0" stop-color="#af0002"/><stop offset="1" stop-color="#820400"/></linearGradient><linearGradient id="k"><stop offset="0" stop-color="#1c2833"/><stop offset="1" stop-color="#6b1c21"/></linearGradient><linearGradient id="b"><stop offset="0" stop-color="#941522"/><stop offset="1" stop-color="#000102"/></linearGradient><linearGradient xlink:href="#a" id="m" x1="0" x2="324" y1="234" y2="234" gradientTransform="matrix(-1 0 0 1 324 0)" gradientUnits="userSpaceOnUse"/><linearGradient xlink:href="#b" id="x" x1="-486.477" x2="-486.768" y1="379.833" y2="364.145" gradientTransform="translate(118.937 34.603) scale(.9058)" gradientUnits="userSpaceOnUse"/><linearGradient xlink:href="#b" id="A" x1="-485.378" x2="-485.477" y1="390.579" y2="347.959" gradientTransform="translate(163.263 .338)" gradientUnits="userSpaceOnUse"/><linearGradient xlink:href="#c" id="E" x1="-187.719" x2="-197.422" y1="434.883" y2="570.979" gradientUnits="userSpaceOnUse"/><linearGradient xlink:href="#d" id="J" x1="-333.895" x2="-360.351" y1="555.551" y2="418.86" gradientUnits="userSpaceOnUse"/><linearGradient xlink:href="#e" id="C" x1="-142.801" x2="-159.791" y1="429.966" y2="566.262" gradientTransform="translate(.925 -3.453) scale(1.0048)" gradientUnits="userSpaceOnUse"/><linearGradient xlink:href="#e" id="o" x1="-176.657" x2="-400.954" y1="272.566" y2="519.012" gradientUnits="userSpaceOnUse"/><linearGradient xlink:href="#b" id="s" x1="-486.477" x2="-486.768" y1="379.833" y2="364.145" gradientTransform="translate(225.854 34.459) scale(.9058)" gradientUnits="userSpaceOnUse"/><linearGradient xlink:href="#b" id="v" x1="-485.378" x2="-485.477" y1="390.579" y2="347.959" gradientTransform="translate(270.18 .194)" gradientUnits="userSpaceOnUse"/><linearGradient xlink:href="#f" id="B" x1="-600.506" x2="-559.299" y1="394.178" y2="393.909" gradientTransform="translate(321.836 4.584)" gradientUnits="userSpaceOnUse"/><linearGradient xlink:href="#c" id="D" x1="-142.801" x2="-159.791" y1="429.966" y2="566.262" gradientUnits="userSpaceOnUse"/><linearGradient xlink:href="#c" id="F" x1="-231.719" x2="-236.828" y1="435.369" y2="575.727" gradientUnits="userSpaceOnUse"/><linearGradient xlink:href="#c" id="G" x1="-291.162" x2="-292.756" y1="433.523" y2="582.293" gradientUnits="userSpaceOnUse"/><linearGradient xlink:href="#g" id="H" x1="-310.613" x2="-303.066" y1="439.666" y2="576.875" gradientUnits="userSpaceOnUse"/><linearGradient xlink:href="#h" id="I" x1="-317.783" x2="-337.265" y1="566.754" y2="419.531" gradientUnits="userSpaceOnUse"/><linearGradient xlink:href="#i" id="n" x1="324" x2="0" y1="0" y2="234" gradientTransform="matrix(-1 0 0 .6939 324 0)" gradientUnits="userSpaceOnUse"/><linearGradient xlink:href="#j" id="K" x1="4.48" x2="321.974" y1="105.746" y2="122.352" gradientTransform="matrix(.418 0 0 1.371 189.431 37.97)" gradientUnits="userSpaceOnUse"/><filter id="r" width="1.195" height="1.197" x="-.098" y="-.098" color-interpolation-filters="sRGB"><feGaussianBlur stdDeviation="1.516"/></filter><filter id="u" width="2.3" height="1.484" x="-.65" y="-.242" color-interpolation-filters="sRGB"><feGaussianBlur stdDeviation="2.278"/></filter><filter id="w" width="1.195" height="1.197" x="-.098" y="-.098" color-interpolation-filters="sRGB"><feGaussianBlur stdDeviation="1.516"/></filter><filter id="z" width="2.3" height="1.484" x="-.65" y="-.242" color-interpolation-filters="sRGB"><feGaussianBlur stdDeviation="2.278"/></filter><filter id="p" width="1.043" height="1.06" x="-.022" y="-.03" color-interpolation-filters="sRGB"><feGaussianBlur stdDeviation=".479"/></filter><radialGradient xlink:href="#k" id="y" cx="-481.646" cy="365.113" r="6.541" fx="-481.646" fy="365.113" gradientTransform="matrix(1.0915 .719 -4.5629 6.9267 1871.518 -1819.869)" gradientUnits="userSpaceOnUse"/><radialGradient xlink:href="#l" id="q" cx="-447.645" cy="204.319" r="120.253" fx="-447.645" fy="204.319" gradientTransform="matrix(3.0809 .6082 -.2024 1.0254 1072.767 478.733)" gradientUnits="userSpaceOnUse"/><radialGradient xlink:href="#k" id="t" cx="-481.646" cy="365.113" r="6.541" fx="-481.646" fy="365.113" gradientTransform="matrix(1.0915 .719 -4.5629 6.9267 1978.435 -1820.013)" gradientUnits="userSpaceOnUse"/></defs><path fill="url(#m)" d="M324 0H0v234h324Z"/><path fill="url(#n)" d="M324 0H0v162.371h324Z"/><g transform="translate(297.439 -105.628) scale(.5268)"><path fill="url(#o)" d="M-220.81 263.31c-6.178.083-11.712.747-18.09 2.122-6.38 1.374-13.602 3.457-20.885 6.992-7.284 3.534-14.627 8.52-20.877 14.52-6.25 5.999-11.41 13.01-14.967 18.808-3.558 5.797-5.515 10.379-6.758 13.057-1.242 2.677-1.768 3.45-2.75 1.248-.981-2.204-2.419-7.386-5.816-11.81-3.398-4.426-8.758-8.094-15.012-9.784-6.254-1.69-13.403-1.404-19.246.074-5.843 1.478-10.378 4.146-14.275 7.688-3.898 3.54-7.156 7.954-9.36 11.609-2.204 3.655-3.354 6.55-4.164 9.615-.81 3.065-1.28 6.3-.972 9.422.307 3.122 1.39 6.13 2.955 8.719 1.565 2.588 3.612 4.757 6.879 6.75 3.266 1.992 7.75 3.81 10.964 4.767 3.215.959 5.16 1.058 5.905 1.598.744.54.288 1.519-2.137 2.145-2.425.626-6.819.899-10.885 2.138-4.066 1.24-7.801 3.446-10.5 5.782-2.698 2.335-4.359 4.798-5.295 8.142-.935 3.344-1.147 7.568-.261 11.309.885 3.74 2.868 6.998 5.228 9.652 2.36 2.654 5.098 4.706 7.234 6.145 2.137 1.438 3.672 2.264 3.891 3.101.219.838-.876 1.687-1.96 2.64-.671.59-1.48 1.598-2.233 2.456.382.604.665.871 1.093 1.705.518 1.006 1.062 2.191 1.541 3.148.48.957.895 1.687 1.155 1.782.26.094.365-.448.422-1.211.056-.764.063-1.75.13-2.547.068-.798.196-1.407.38-1.87.183-.461.422-.777.718-.986.296-.208.647-.31 1.043-.261.396.048.839.247 1.317.642.477.395.99.984 1.527 1.815.537.83 1.096 1.903 1.668 3.261 1.143 2.717 2.332 6.579 2.855 7.149.131.142.22.08.284-.127.062-.207.098-.555.123-.985.05-.859.053-2.041.128-3.04.076-1 .225-1.817.42-2.473.196-.657.438-1.151.702-1.504.263-.353.548-.564.847-.635.3-.07.616-.003.942.203.325.206.66.55 1.066 1.262.407.712.886 1.793 1.496 3.478.61 1.686 1.352 3.976 2.053 5.9.7 1.926 1.36 3.49 1.8 3.72.221.115.388-.103.516-.538.129-.434.22-1.084.29-1.835.137-1.503.186-3.407.279-4.784.092-1.376.228-2.224.418-2.77.189-.545.432-.787.742-.95.31-.164.688-.25 1.082-.23a2.38 2.38 0 0 1 1.187.386c.382.248.736.623 1.065 1.123.329.5.633 1.126.922 1.879.578 1.505 1.09 3.513 1.742 5.92.325 1.203.686 2.507 1.021 3.459.336.952.646 1.551.873 1.351.228-.2.374-1.2.495-2.414.12-1.214.215-2.64.347-3.691.132-1.05.3-1.724.5-2.174.2-.45.434-.677.697-.832.264-.155.558-.238.887-.195.33.043.695.213 1.1.562.405.35.85.877 1.312 1.635.462.758.938 1.744 1.405 3.008.933 2.527 1.828 6.164 2.36 7.418.134.313.245.477.339.521.094.045.171-.03.238-.195.134-.332.225-1.026.32-1.85.191-1.647.4-3.812.723-5.322.161-.755.351-1.346.574-1.803.223-.456.48-.778.774-.996a1.73 1.73 0 0 1 .986-.344c.361-.013.752.073 1.164.254.412.182.845.459 1.27.926.424.467.84 1.125 1.218 2.068.756 1.888 1.36 4.92 1.856 6.903.248.991.47 1.72.67 2.158.2.438.38.585.545.41.328-.349.593-1.981.822-3.379.23-1.397.422-2.56.768-3.347.173-.394.385-.692.636-.889a1.29 1.29 0 0 1 .875-.28c.334.014.71.137 1.098.419.389.282.79.722 1.18 1.375.778 1.305 1.504 3.456 2.097 5.207.594 1.75 1.056 3.103 1.365 3.476.155.187.272.129.4-.082.13-.21.271-.572.475-.996.409-.848 1.067-1.942 1.887-3.092a16.6 16.6 0 0 1 1.381-1.718 9.418 9.418 0 0 1 1.797-1.518 8.597 8.597 0 0 1 5.049-1.342 9.92 9.92 0 0 1 2.89.608c.956.35 1.884.838 2.723 1.445.839.607 1.588 1.332 2.24 2.057a26.583 26.583 0 0 1 1.653 2.054c.446.608.785 1.1 1.066 1.432.281.333.506.507.719.482.426-.05.816-.896 1.283-1.857.467-.961 1.01-2.037 1.873-3.123a13.842 13.842 0 0 1 3.453-3.065c1.412-.884 3.056-1.557 4.47-1.818a6.26 6.26 0 0 1 2.005-.07c.646.087 1.289.289 1.982.617.694.328 1.436.782 2.16 1.324a14.392 14.392 0 0 1 2.041 1.854c1.227 1.36 2.091 2.916 2.707 3.627.309.355.555.498.774.474.219-.024.41-.213.61-.527.398-.627.828-1.746 1.546-2.996a15.5 15.5 0 0 1 1.324-1.953 15.381 15.381 0 0 1 1.934-2.016 17.008 17.008 0 0 1 2.6-1.863c.936-.542 1.913-.971 2.835-1.186a6.016 6.016 0 0 1 2.635-.039c.843.176 1.66.527 2.475 1.018.815.49 1.629 1.12 2.388 1.822.76.702 1.465 1.478 2.06 2.26.593.782 1.076 1.57 1.497 2.191.421.621.78 1.073 1.123 1.184.344.11.673-.121.996-.528.323-.406.64-.986.96-1.572.639-1.172 1.29-2.366 2.398-3.578a14.682 14.682 0 0 1 1.949-1.768 12.987 12.987 0 0 1 2.309-1.414 8.368 8.368 0 0 1 2.406-.728 7.516 7.516 0 0 1 2.511.082c.864.171 1.756.49 2.598.902a11.99 11.99 0 0 1 2.297 1.457c1.322 1.082 2.118 2.31 2.805 3.408.343.55.66 1.066.957 1.436.296.37.571.595.836.56.264-.034.518-.328.773-.736.256-.408.515-.931.79-1.426.548-.989 1.163-1.862 2.298-3.06 1.135-1.199 2.79-2.722 4.338-3.66a8.807 8.807 0 0 1 2.266-.996 8.1 8.1 0 0 1 2.265-.276c.773.01 1.572.116 2.371.4.8.285 1.597.751 2.367 1.483.77.732 1.514 1.73 2.172 2.74.658 1.01 1.23 2.033 1.662 2.81.432.779.724 1.313.965 1.62.241.307.433.387.666.258.467-.26 1.102-1.358 1.996-2.754.895-1.396 2.047-3.09 3.309-4.361.63-.636 1.29-1.167 1.965-1.62a15.033 15.033 0 0 1 2.064-1.148 12.543 12.543 0 0 1 2.117-.781 7.379 7.379 0 0 1 2.164-.248c.731.03 1.47.187 2.198.478a7.94 7.94 0 0 1 2.125 1.281c1.363 1.133 2.59 2.831 3.45 4.016.861 1.185 1.355 1.858 1.78 1.957.213.05.41-.044.621-.24.212-.196.44-.495.717-.858.553-.725 1.298-1.703 1.942-2.648.643-.945 1.183-1.857 2.146-2.736.963-.88 2.348-1.726 3.6-2.354.625-.314 1.218-.574 1.832-.75a6.343 6.343 0 0 1 1.96-.248c.712.02 1.5.153 2.307.422.808.27 1.636.674 2.426 1.242.007.005.011.013.018.018-.09-.25-.098-.49-.21-.742-1.162-2.633-3.708-5.443-5.425-7.057-1.717-1.614-2.605-2.03-2.049-2.537.556-.507 2.555-1.104 5.201-2.799 2.646-1.695 5.94-4.487 8.326-7.607 2.387-3.121 3.867-6.572 4.444-9.9.576-3.33.248-6.538-.85-10.054-1.098-3.515-2.966-7.336-5.574-10.62-2.608-3.285-5.956-6.034-8.99-7.645-3.035-1.612-5.755-2.088-7.971-2.147-2.216-.059-3.925.3-4.5.065-.575-.235-.013-1.063 1.328-2.733 1.341-1.67 3.461-4.18 5.342-7.222 1.88-3.043 3.521-6.62 4.666-10.01 1.144-3.39 1.792-6.59 2.217-11.15.424-4.56.626-10.48.162-15.573-.465-5.092-1.594-9.359-4.16-14.486-2.566-5.127-6.57-11.114-11.541-16.408-4.972-5.294-10.914-9.895-16.813-13.229-5.899-3.334-11.755-5.401-18.094-6.685-6.338-1.284-13.16-1.784-19.338-1.701z"/><path fill="#fcf9f0" d="M-268.557 378.146c5.796.012 17.388.036 24.16-.005 6.773-.04 8.726-.145 10.312-.068 1.586.076 2.805.332 3.85.965a5.503 5.503 0 0 1 2.347 2.88c.428 1.239.41 2.705.43 4.972.018 2.266.072 5.334-.195 7.982-.267 2.648-.854 4.877-2.248 7.174-1.394 2.297-3.596 4.662-5.497 6.444-1.902 1.783-3.503 2.983-5.72 4.278-2.216 1.295-5.048 2.684-8.385 3.36-3.336.676-7.178.637-10.254.126-3.075-.512-5.386-1.498-7.709-2.876-2.323-1.378-4.66-3.15-6.58-5.177-1.922-2.027-3.428-4.311-4.412-6.576-.984-2.264-1.446-4.509-1.764-7.121-.318-2.612-.492-5.593-.436-7.606.055-2.014.341-3.06.844-4.056a10.142 10.142 0 0 1 1.98-2.67 9.412 9.412 0 0 1 2.14-1.537 5.188 5.188 0 0 1 1.152-.451c.188-.05.188-.05 5.985-.038z" filter="url(#p)"/><path fill="url(#q)" d="M-220.939 263.234c-6.178.082-11.71.747-18.09 2.12-6.378 1.375-13.6 3.459-20.884 6.993-7.284 3.534-14.627 8.52-20.877 14.52-6.25 5.999-11.41 13.01-14.967 18.808-3.558 5.797-5.515 10.379-6.758 13.057-1.242 2.677-1.768 3.451-2.75 1.248-.981-2.204-2.419-7.386-5.816-11.81-3.398-4.426-8.758-8.093-15.012-9.784-6.254-1.69-13.403-1.403-19.246.074-5.843 1.478-10.378 4.147-14.275 7.688-3.898 3.54-7.156 7.954-9.36 11.61-2.204 3.654-3.354 6.55-4.164 9.614-.81 3.065-1.28 6.3-.973 9.422.308 3.122 1.39 6.13 2.956 8.719 1.565 2.588 3.612 4.757 6.878 6.75 3.267 1.993 7.75 3.81 10.965 4.768 3.215.958 5.16 1.057 5.905 1.597.743.54.287 1.519-2.137 2.145-2.425.626-6.82.899-10.885 2.138-4.066 1.24-7.801 3.446-10.5 5.782-2.698 2.335-4.36 4.798-5.295 8.142-.936 3.344-1.147 7.568-.262 11.309.886 3.74 2.869 6.998 5.229 9.652 2.36 2.654 5.098 4.706 7.234 6.145 2.137 1.438 3.672 2.264 3.891 3.101.219.838-.876 1.688-1.961 2.64-.67.59-1.478 1.598-2.232 2.456.382.604.664.872 1.093 1.705.518 1.006 1.062 2.191 1.541 3.148.48.958.895 1.687 1.155 1.782.26.094.365-.448.422-1.211.056-.764.063-1.749.13-2.547.068-.798.196-1.407.38-1.87.183-.461.422-.777.718-.986.296-.208.647-.31 1.043-.261.396.048.839.247 1.316.642.478.395.99.984 1.528 1.815.537.83 1.096 1.903 1.668 3.261 1.143 2.717 2.331 6.58 2.855 7.149.131.142.22.08.283-.127.063-.206.099-.555.123-.984.05-.86.054-2.042.13-3.041.075-1 .224-1.817.42-2.473.195-.657.437-1.151.7-1.504.264-.353.548-.564.848-.635.3-.07.616-.003.942.203.325.206.66.55 1.066 1.262.407.712.886 1.793 1.496 3.479.61 1.685 1.352 3.975 2.053 5.9.7 1.925 1.359 3.488 1.8 3.719.221.115.388-.103.516-.537.129-.434.22-1.085.29-1.836.137-1.503.186-3.407.279-4.784.092-1.376.228-2.224.417-2.77.19-.545.433-.787.743-.95.31-.164.687-.249 1.082-.23a2.38 2.38 0 0 1 1.187.386c.382.248.736.623 1.065 1.123.328.5.633 1.127.922 1.879.577 1.505 1.09 3.513 1.742 5.92.325 1.203.686 2.507 1.021 3.459.336.952.646 1.552.873 1.351.228-.2.374-1.2.494-2.414.12-1.213.216-2.64.348-3.691.132-1.05.3-1.724.5-2.174.2-.45.434-.677.697-.832.264-.155.558-.238.887-.195.33.043.694.213 1.1.562.405.35.85.877 1.312 1.635.462.758.938 1.744 1.404 3.008.934 2.527 1.829 6.164 2.362 7.418.133.313.243.477.338.521.094.045.171-.03.238-.195.134-.332.225-1.026.32-1.85.191-1.647.4-3.812.723-5.322.161-.755.351-1.346.574-1.803.223-.456.48-.778.774-.996a1.73 1.73 0 0 1 .986-.343c.361-.014.752.072 1.164.253.412.182.845.46 1.27.926.424.467.84 1.125 1.218 2.069.756 1.887 1.36 4.92 1.856 6.902.248.991.469 1.72.67 2.158.2.438.38.585.545.41.327-.349.593-1.98.822-3.379.229-1.397.421-2.56.767-3.347.173-.394.386-.692.637-.889a1.29 1.29 0 0 1 .875-.28c.333.014.71.137 1.098.419.388.282.79.722 1.18 1.375.778 1.306 1.504 3.456 2.097 5.207.594 1.75 1.056 3.103 1.365 3.476.155.187.271.129.4-.082.13-.21.271-.572.475-.996.409-.848 1.067-1.942 1.887-3.092a16.72 16.72 0 0 1 1.38-1.718 9.418 9.418 0 0 1 1.798-1.518 8.597 8.597 0 0 1 5.049-1.342 9.92 9.92 0 0 1 2.89.608c.956.35 1.884.838 2.723 1.445.839.607 1.588 1.333 2.24 2.057a26.583 26.583 0 0 1 1.652 2.054c.447.608.786 1.1 1.067 1.432.281.333.505.507.719.482.426-.049.816-.896 1.283-1.857.467-.961 1.01-2.037 1.873-3.123a13.842 13.842 0 0 1 3.453-3.064c1.412-.884 3.056-1.558 4.47-1.819a6.26 6.26 0 0 1 2.005-.07c.646.087 1.289.289 1.982.617.693.328 1.436.782 2.16 1.324a14.392 14.392 0 0 1 2.041 1.854c1.226 1.36 2.091 2.917 2.707 3.627.308.355.555.498.774.474.219-.023.41-.213.61-.527.398-.627.828-1.746 1.546-2.996a15.5 15.5 0 0 1 1.324-1.953 15.381 15.381 0 0 1 1.934-2.016 17.008 17.008 0 0 1 2.6-1.863c.936-.542 1.913-.97 2.835-1.186a6.016 6.016 0 0 1 2.635-.039c.843.176 1.66.527 2.475 1.018.815.49 1.629 1.12 2.388 1.822.76.702 1.465 1.478 2.059 2.26.594.782 1.077 1.57 1.498 2.191.42.621.78 1.074 1.123 1.184.344.11.673-.121.996-.527.323-.407.64-.987.96-1.573.639-1.172 1.29-2.366 2.398-3.578a14.682 14.682 0 0 1 1.949-1.767 12.987 12.987 0 0 1 2.308-1.415 8.368 8.368 0 0 1 2.407-.728 7.516 7.516 0 0 1 2.511.082c.863.171 1.756.49 2.598.902a11.99 11.99 0 0 1 2.297 1.457c1.322 1.082 2.118 2.31 2.805 3.409.343.548.66 1.065.957 1.435.296.37.57.595.836.56.264-.034.517-.327.773-.736.256-.408.515-.931.789-1.425.55-.99 1.163-1.862 2.299-3.061 1.135-1.199 2.79-2.722 4.338-3.66a8.807 8.807 0 0 1 2.265-.996 8.1 8.1 0 0 1 2.266-.276c.773.011 1.572.116 2.371.4.799.285 1.597.751 2.367 1.483.77.732 1.514 1.73 2.172 2.74.658 1.01 1.23 2.033 1.662 2.81.432.779.724 1.313.965 1.62.241.307.433.388.666.258.467-.26 1.102-1.358 1.996-2.754.894-1.396 2.047-3.09 3.309-4.361.63-.636 1.29-1.167 1.965-1.62a15.033 15.033 0 0 1 2.064-1.148 12.543 12.543 0 0 1 2.117-.781 7.379 7.379 0 0 1 2.164-.248c.73.03 1.47.187 2.198.478a7.94 7.94 0 0 1 2.125 1.282c1.363 1.132 2.59 2.83 3.45 4.015.861 1.185 1.355 1.858 1.78 1.957.213.05.41-.044.621-.24.212-.196.44-.495.717-.857.553-.725 1.298-1.704 1.941-2.649.644-.945 1.184-1.857 2.147-2.736.963-.88 2.348-1.726 3.6-2.354.625-.314 1.217-.574 1.832-.75a6.343 6.343 0 0 1 1.96-.248c.712.02 1.5.153 2.307.422a9.11 9.11 0 0 1 2.426 1.242c.007.005.011.013.017.018-.088-.25-.097-.49-.209-.742-1.162-2.632-3.708-5.443-5.425-7.057-1.717-1.614-2.605-2.03-2.05-2.537.557-.507 2.556-1.104 5.202-2.799 2.646-1.695 5.94-4.487 8.326-7.607 2.387-3.121 3.867-6.572 4.444-9.9.576-3.33.248-6.538-.85-10.053-1.098-3.516-2.966-7.337-5.574-10.622-2.608-3.284-5.956-6.032-8.99-7.644-3.035-1.612-5.755-2.088-7.971-2.147-2.216-.058-3.925.3-4.5.065-.575-.235-.013-1.063 1.328-2.732 1.341-1.67 3.461-4.18 5.342-7.223 1.88-3.043 3.521-6.62 4.666-10.01 1.144-3.389 1.792-6.59 2.217-11.15.424-4.56.626-10.48.162-15.573-.465-5.092-1.595-9.359-4.16-14.486-2.566-5.127-6.57-11.114-11.542-16.408-4.972-5.294-10.913-9.895-16.812-13.229-5.899-3.334-11.755-5.401-18.094-6.685-6.338-1.284-13.16-1.784-19.338-1.701z" opacity=".444"/><ellipse cx="-199.827" cy="364.121" fill="#fcf9f0" filter="url(#r)" rx="18.607" ry="18.51"/><ellipse cx="-200.182" cy="363.79" fill="url(#s)" rx="14.552" ry="14.957"/><path fill="url(#t)" d="M-206.13 355.264c-.306 1.991-1.848 5.379-2.344 8.175-.496 2.797.053 5 .656 6.868.602 1.867 1.257 3.397 1.246 4.332-.01.934-.686 1.274-2.044.164s-3.4-3.67-4.57-6.11c-1.17-2.442-1.467-4.765-1.21-6.88a11.49 11.49 0 0 1 2.279-5.611c1.21-1.587 2.82-2.853 4.091-3.188 1.27-.336 2.202.259 1.896 2.25z" filter="url(#u)"/><ellipse cx="-200.107" cy="363.751" fill="none" stroke="url(#v)" stroke-width="1.169" rx="14.606" ry="15.013"/><ellipse cx="-194.699" cy="357.202" fill="#fff" rx="5.221" ry="5.494"/><ellipse cx="-306.743" cy="364.265" fill="#fcf9f0" filter="url(#w)" rx="18.607" ry="18.51"/><ellipse cx="-307.099" cy="363.934" fill="url(#x)" rx="14.552" ry="14.957"/><path fill="url(#y)" d="M-313.047 355.408c-.306 1.991-1.847 5.38-2.343 8.176-.496 2.796.053 5 .655 6.867s1.257 3.398 1.247 4.332c-.01.934-.686 1.274-2.044.165-1.359-1.11-3.4-3.67-4.57-6.111-1.17-2.442-1.467-4.765-1.21-6.88a11.49 11.49 0 0 1 2.278-5.611c1.21-1.587 2.82-2.853 4.091-3.188 1.271-.335 2.202.26 1.896 2.25z" filter="url(#z)"/><ellipse cx="-307.024" cy="363.895" fill="none" stroke="url(#A)" stroke-width="1.169" rx="14.606" ry="15.013"/><ellipse cx="-301.616" cy="357.346" fill="#fff" rx="5.221" ry="5.494"/><path fill="#1c2833" d="M-236.045 379.104c-1.446 0-3.677.061-8.46.09-6.38.038-17.3.017-22.759.006-5.46-.011-5.459-.012-5.636.035a4.83 4.83 0 0 0-1.084.426 8.858 8.858 0 0 0-2.016 1.447 9.555 9.555 0 0 0-1.865 2.514c-.119.235-.185.522-.278.777-.277.762-.478 1.622-.517 3.043-.052 1.896.112 4.703.412 7.164.3 2.46.733 4.574 1.66 6.707.927 2.133 2.345 4.284 4.154 6.193 1.81 1.91 4.012 3.58 6.2 4.877 2.188 1.298 4.362 2.225 7.26 2.707 2.896.482 6.515.52 9.658-.117 3.142-.636 5.81-1.946 7.898-3.166 1.4-.817 2.473-1.77 3.611-2.7.56-.456 1.186-.774 1.776-1.327 1.79-1.679 3.864-3.907 5.178-6.07 1.313-2.164 1.866-4.264 2.117-6.758.25-2.495.2-5.383.183-7.518-.017-2.135-.002-3.516-.404-4.682a5.183 5.183 0 0 0-2.21-2.712c-.986-.597-2.134-.839-3.628-.91a26.204 26.204 0 0 0-1.25-.026z"/><path fill="url(#B)" d="M-237.807 409.108c1.07-1.31 2.193-2.65 3.041-3.838a35.857 35.857 0 0 0 2.723-4.438c.283-.553.484-.991.633-1.627.148-.635.244-1.466.316-2.806.145-2.68.194-7.39.127-9.947-.066-2.558-.25-2.963-.453-3.248a2.132 2.132 0 0 0-.644-.586c-.216-.136-.424-.24-7.352-.36-6.928-.119-20.577-.253-27.828-.148-3.626.052-5.653.165-6.904.344-1.252.178-1.728.422-2.256.742-.618.374-1.143.776-1.739 1.203-.277.761-.478 1.622-.517 3.043-.052 1.896.112 4.703.412 7.164.3 2.46.733 4.574 1.66 6.707.927 2.133 2.345 4.284 4.154 6.193 1.81 1.91 4.012 3.58 6.2 4.877 2.188 1.298 4.362 2.225 7.26 2.707 2.896.482 6.515.52 9.658-.117 3.142-.636 5.81-1.946 7.898-3.166 1.4-.818 2.473-1.77 3.611-2.7z"/><path fill="#4b0101" d="M-234.795 379.13c-1.494-.072-3.332.026-9.71.064-6.38.038-17.3.017-22.759.006-5.46-.011-5.459-.012-5.636.035a4.83 4.83 0 0 0-1.084.426 8.858 8.858 0 0 0-2.016 1.447 9.555 9.555 0 0 0-1.865 2.514c-.119.235-.185.522-.278.777.596-.426 1.12-.83 1.739-1.203.528-.32 1.004-.564 2.256-.742 1.251-.179 3.278-.292 6.904-.344 7.251-.104 20.9.03 27.828.148 6.928.12 7.136.225 7.352.36.215.135.44.3.644.586.204.285.387.69.453 3.248.067 2.557.018 7.268-.127 9.947-.072 1.34-.168 2.171-.316 2.807-.149.635-.35 1.074-.633 1.627a35.857 35.857 0 0 1-2.723 4.437c-.848 1.188-1.97 2.528-3.04 3.838.56-.457 1.184-.775 1.775-1.328 1.79-1.679 3.864-3.907 5.178-6.07 1.313-2.164 1.866-4.264 2.117-6.758.25-2.494.2-5.383.183-7.518-.017-2.135-.002-3.516-.404-4.681a5.183 5.183 0 0 0-2.21-2.713c-.986-.597-2.134-.839-3.628-.91z"/><path fill="url(#C)" d="M-348.422 544.691c.936.856 2.51 2.09 6.354 4.832.947.677 1.055.787 2.316 1.678 1.308.924 3.45 2.399 5.162 3.59 2.829 1.968 5.47 3.813 8.531 5.934 2.748 1.903 4.927 3.434 7.659 5.324 2.627 1.817 4.99 3.488 7.365 5.12 1.847 1.271 4.24 2.974 5.726 3.983.938.637.928.553 1.698 1.067 3.363 2.244 6.092 4.038 7.414 4.668 1.261.601 2.057.773 2.937.777 1.315.006 10.426-1.139 17.573-2.002 3.793-.458 1.713-.14 9.328-1.064 2.38-.29 6.155-.74 9.091-1.094l20.215-2.438c6.51-.783 11.827-1.427 18.373-2.214 7.563-.91 14.436-1.74 21.225-2.557 4.78-.576 11.218-1.35 14.943-1.8 1.61-.195 1.509-.197 2.889-.364 16.551-2.006 18.881-2.341 19.35-2.92.507-.627.697-1.75 3.668-24.445 2.97-22.696 8.724-66.964 11.568-89.543 2.844-22.58 2.779-23.472 2.027-24.813-.751-1.341-2.191-3.133-3.78-4.275-1.587-1.142-3.323-1.632-4.753-1.672-1.43-.04-2.555.37-3.812 1.002-1.258.63-2.65 1.481-3.618 2.365-.967.884-1.51 1.8-2.156 2.75-.646.95-1.396 1.932-1.951 2.66-.539.707-.896 1.154-1.307 1.09-.012-.002-.024.017-.037.014-.427-.1-.922-.776-1.787-1.967-.865-1.19-2.099-2.897-3.469-4.035-1.37-1.138-2.875-1.706-4.343-1.768-1.469-.061-2.898.383-4.301 1.033-1.404.65-2.781 1.504-4.049 2.782-1.268 1.278-2.428 2.98-3.326 4.383-.899 1.402-1.537 2.507-2.006 2.767-.008.005-.015-.013-.023-.01-.456.226-.763-.341-1.616-1.877-.868-1.563-2.303-4.107-3.851-5.578-1.549-1.471-3.21-1.869-4.762-1.89-1.553-.022-2.998.334-4.553 1.277-1.554.943-3.218 2.473-4.36 3.677-1.14 1.205-1.758 2.08-2.31 3.075-.551.994-1.036 2.104-1.568 2.174-.185.024-.388-.203-.588-.393-.373-.356-.765-.895-1.215-1.613-.69-1.103-1.49-2.339-2.818-3.426-1.328-1.087-3.183-2.025-4.918-2.37-1.735-.344-3.348-.094-4.941.65-1.594.743-3.167 1.979-4.28 3.196-1.113 1.218-1.767 2.419-2.41 3.596-.643 1.178-1.274 2.331-1.965 2.11-.051-.017-.115-.145-.168-.176-.65-.388-1.36-1.76-2.465-3.215-1.193-1.571-2.83-3.115-4.468-4.102-1.64-.986-3.28-1.416-5.135-.984-1.854.431-3.921 1.724-5.461 3.064a15.332 15.332 0 0 0-3.273 3.989c-.722 1.256-1.154 2.38-1.555 3.01-.335.526-.68.581-1.135.21-.089-.072-.154-.04-.256-.158-.619-.713-1.486-2.278-2.719-3.644-1.232-1.367-2.829-2.534-4.222-3.194-1.394-.66-2.585-.81-4.006-.549-1.421.263-3.073.938-4.492 1.827a13.905 13.905 0 0 0-3.469 3.08c-.866 1.09-1.413 2.172-1.883 3.138-.47.966-.86 1.816-1.289 1.866-.051.006-.12-.1-.174-.116-.39-.12-.83-.731-1.62-1.806-.898-1.221-2.225-2.913-3.91-4.133-1.687-1.22-3.73-1.967-5.642-2.063a8.675 8.675 0 0 0-5.074 1.35c-1.382.885-2.37 2.097-3.193 3.252-.824 1.155-1.484 2.253-1.895 3.105-.41.853-.57 1.46-.88 1.084-.158-.19-.46-1.149-.694-1.767-.227-.603-.383-.858-.678-1.727-.596-1.759-1.325-3.918-2.107-5.23-.782-1.312-1.62-1.776-2.29-1.803-.669-.027-1.171.383-1.519 1.174-.347.79-.539 1.959-.77 3.363-.23 1.405-.496 3.046-.825 3.397-.013.014-.032-.043-.045-.033-.321.238-.697-.636-1.176-2.55-.499-1.992-1.106-5.038-1.865-6.935-.76-1.897-1.672-2.643-2.5-3.008-.828-.365-1.572-.347-2.162.09-.591.438-1.03 1.296-1.354 2.813-.324 1.517-.535 3.692-.726 5.347-.192 1.656-.365 2.791-.9 1.532-.055-.13-.18-.589-.243-.764-.545-1.538-1.289-4.412-2.13-6.692-.939-2.54-1.915-3.962-2.73-4.664-.814-.701-1.466-.68-1.995-.369-.53.311-.938.909-1.204 3.02-.265 2.11-.39 5.734-.847 6.136-.096.084-.245-.405-.366-.57-.456-.622-1.02-2.351-1.537-4.263-.654-2.419-1.17-4.438-1.752-5.95-.58-1.512-1.226-2.52-1.994-3.017-.768-.498-1.658-.485-2.281-.157-.623.329-.98.972-1.166 3.739-.186 2.766-.202 7.655-1.09 7.191-.236-.123-.628-1.253-.96-1.986-.92-2.025-2.01-5.192-2.91-7.68-1.227-3.388-1.923-4.35-2.577-4.764-.654-.413-1.267-.275-1.797.434-.53.709-.975 1.988-1.127 3.996-.147 1.94-.033 4.493-.498 4.156-.016-.012-.021.038-.04.018-.525-.573-1.72-4.454-2.868-7.184-1.149-2.73-2.251-4.308-3.211-5.101-.96-.794-1.777-.802-2.371-.383-.595.419-.968 1.265-1.104 2.87-.135 1.603-.032 3.966-.554 3.777-.516-.188-1.64-2.857-2.67-4.872a196.479 196.479 0 0 0-1.553-2.005c-.885-1.13-1.384-1.65-1.815-1.807-.43-.156-.791.053-1.105.39-.314.338-.58.805-.777 1.733-.197.928-.326 2.316-.434 3.531-.054.608-.104 1.17.297 4.291.4 3.121 1.25 8.8 2.996 19.635 3.49 21.67 10.56 63.968 14.152 85.256 3.314 19.633 3.43 19.917 3.717 21.111z"/><path fill="url(#D)" d="m-164.514 431.69-15.162 137.136c16.472-1.996 18.79-2.33 19.256-2.906.505-.624.694-1.742 3.65-24.328 2.957-22.587 8.682-66.641 11.512-89.112 2.83-22.47 2.766-23.356 2.018-24.69-.748-1.336-2.18-3.12-3.76-4.257-1.58-1.136-3.309-1.624-4.732-1.664-1.424-.04-2.542.37-3.793.998-1.252.628-2.637 1.474-3.6 2.354-.963.88-1.503 1.791-2.146 2.736-.644.945-1.39 1.923-1.942 2.648-.536.704-.891 1.148-1.3 1.084z"/><path fill="#c40a0c" d="m-187.742 434.873-9.68 136.106c4.757-.573 11.164-1.344 14.871-1.792 1.601-.193 1.502-.194 2.875-.36l15.162-137.138c-.012-.002-.024.017-.037.014-.425-.1-.919-.772-1.78-1.957-.86-1.185-2.087-2.883-3.45-4.015-1.364-1.133-2.861-1.699-4.323-1.76-1.46-.062-2.884.382-4.28 1.029-1.398.647-2.768 1.496-4.03 2.768-1.262 1.271-2.414 2.965-3.309 4.36-.894 1.397-1.529 2.496-1.996 2.755-.008.005-.015-.014-.023-.01z"/><path fill="url(#E)" d="m-211.236 435.336-7.309 138.187c7.526-.905 14.367-1.731 21.123-2.544l9.68-136.106c-.453.225-.759-.339-1.608-1.867-.864-1.556-2.293-4.087-3.834-5.55-1.54-1.465-3.192-1.862-4.738-1.884-1.545-.021-2.984.333-4.531 1.272-1.547.938-3.203 2.461-4.338 3.66-1.135 1.198-1.75 2.071-2.299 3.06-.549.99-1.033 2.094-1.562 2.163-.185.024-.386-.202-.584-.391z"/><path fill="#c40a0c" d="m-233.842 437.293-2.986 138.434c6.479-.78 11.769-1.42 18.283-2.204l7.309-138.187c-.372-.354-.762-.89-1.21-1.606-.686-1.097-1.482-2.326-2.804-3.408-1.322-1.082-3.168-2.016-4.895-2.36-1.726-.342-3.332-.093-4.917.647-1.586.74-3.15 1.97-4.258 3.182s-1.759 2.406-2.399 3.578c-.64 1.172-1.268 2.32-1.955 2.1-.051-.017-.116-.145-.168-.176z"/><path fill="url(#F)" d="m-257.22 439.256.275 138.896c6.496-.783 12.988-1.567 20.117-2.425l2.986-138.434c-.646-.386-1.354-1.752-2.453-3.2-1.187-1.563-2.816-3.1-4.447-4.081-1.631-.982-3.264-1.408-5.11-.979-1.845.43-3.903 1.715-5.435 3.049a15.259 15.259 0 0 0-3.258 3.969c-.718 1.25-1.148 2.369-1.547 2.996-.333.524-.676.578-1.129.209z"/><path fill="#c40a0c" d="m-279.621 441.496 4.344 138.805c3.775-.456 1.705-.14 9.283-1.059 2.37-.287 6.126-.737 9.049-1.09l-.276-138.896c-.089-.073-.152-.04-.254-.156-.616-.71-1.48-2.267-2.707-3.627-1.226-1.36-2.814-2.522-4.2-3.178-1.388-.656-2.573-.808-3.987-.547-1.415.261-3.059.934-4.47 1.818a13.842 13.842 0 0 0-3.454 3.065c-.862 1.086-1.406 2.162-1.873 3.123-.467.961-.857 1.808-1.283 1.857-.051.006-.12-.099-.172-.115z"/><path fill="url(#G)" d="m-302.42 440.521 6.733 140.999c1.255.598 2.045.77 2.921.773 1.31.006 10.377-1.133 17.489-1.992l-4.344-138.805c-.389-.12-.827-.73-1.613-1.799-.894-1.215-2.215-2.897-3.893-4.111s-3.711-1.958-5.613-2.053a8.627 8.627 0 0 0-5.05 1.342c-1.375.881-2.357 2.087-3.177 3.236-.82 1.15-1.478 2.244-1.887 3.092-.408.849-.565 1.452-.875 1.078-.156-.189-.459-1.144-.69-1.76z"/><path fill="#c40a0c" d="m-310.613 439.666 7.547 137.209c3.346 2.233 6.063 4.018 7.379 4.645l-6.733-140.999c-.226-.6-.38-.852-.674-1.716-.593-1.751-1.32-3.902-2.097-5.207-.779-1.306-1.611-1.766-2.278-1.793-.666-.027-1.165.381-1.511 1.168-.346.786-.539 1.95-.768 3.347-.23 1.398-.494 3.03-.822 3.38-.013.013-.03-.044-.043-.034z"/><path fill="url(#H)" d="m-321.488 436.209 11.033 135.64c1.838 1.265 4.22 2.959 5.7 3.963.932.634.923.552 1.689 1.063l-7.547-137.209c-.32.237-.695-.631-1.172-2.535-.497-1.983-1.1-5.015-1.856-6.902-.755-1.888-1.664-2.631-2.488-2.995-.824-.363-1.562-.345-2.15.09-.588.436-1.025 1.29-1.348 2.799-.323 1.51-.532 3.675-.723 5.322-.19 1.648-.363 2.777-.896 1.524-.055-.129-.18-.585-.242-.76z"/><path fill="#c40a0c" d="m-330.715 433.086 12.932 133.668c2.614 1.808 4.965 3.47 7.328 5.096l-11.033-135.641c-.542-1.53-1.281-4.39-2.12-6.658-.933-2.528-1.906-3.944-2.716-4.643-.81-.698-1.46-.676-1.987-.367-.527.31-.933.905-1.197 3.006-.264 2.1-.386 5.705-.842 6.105-.095.084-.245-.402-.365-.566z"/><path fill="url(#I)" d="m-341.443 428.664 16.039 132.791c2.734 1.895 4.902 3.418 7.62 5.299l-12.93-133.668c-.455-.62-1.015-2.341-1.53-4.244-.651-2.407-1.164-4.415-1.742-5.92-.578-1.505-1.222-2.506-1.987-3.002-.764-.496-1.649-.483-2.27-.156-.62.327-.974.967-1.16 3.72-.185 2.753-.2 7.618-1.083 7.157-.235-.123-.626-1.247-.957-1.977z"/><path fill="#c40a0c" d="m-350.309 424.824 16.414 130.727c2.815 1.958 5.445 3.793 8.49 5.904l-16.038-132.79c-.915-2.016-2-5.168-2.897-7.644-1.22-3.37-1.912-4.328-2.562-4.74-.651-.411-1.262-.274-1.79.432-.526.705-.969 1.978-1.12 3.976-.147 1.93-.034 4.47-.497 4.135zm-16.414-15.98c-.08-.065-.273-.283-.326-.323-.21-.158-.21-.159-.49-.12-.28.037-.839.114-1.307.847-.468.733-.843 2.122-.822 5.385.021 3.263.438 8.401 3.88 29.865 3.444 21.464 9.913 59.251 13.212 78.662 3.299 19.411 3.426 20.444 3.818 21.262.335.7 1.842 1.905 7.42 5.887-5.704-37.93-11.437-76.047-14.812-97.457-1.825-11.572-3.017-18.654-3.932-23.413-.916-4.758-1.555-7.195-2.275-9.474-1.44-4.559-3.204-8.49-4.131-10.578-.196-.44-.106-.25-.235-.543z"/><path fill="url(#J)" d="M-366.723 408.844c.13.293.04.102.235.543.927 2.088 2.69 6.02 4.13 10.578.72 2.28 1.36 4.716 2.276 9.474.915 4.76 2.107 11.841 3.932 23.413 3.375 21.41 9.108 59.527 14.812 97.457.943.672 1.05.781 2.305 1.668 1.3.919 3.435 2.389 5.138 3.574l-16.414-130.727c-.016-.012-.02.037-.039.018-.523-.57-1.712-4.432-2.855-7.149-1.143-2.716-2.24-4.286-3.195-5.076-.955-.79-1.768-.798-2.36-.38-.592.416-.963 1.259-1.098 2.855-.134 1.596-.033 3.946-.552 3.758-.52-.189-1.66-2.917-2.696-4.93-1.035-2.013-1.967-3.31-2.642-4.117-.506-.605-.739-.766-.977-.96z"/></g><path fill="url(#K)" d="M324 85.58 189.605 37.97l-.174 144.654L324 205.711Z"/></svg>