<svg xmlns:xlink="http://www.w3.org/1999/xlink" viewBox="0 0 85.7 61.9">
  <defs>
    <linearGradient xlink:href="#a" id="l" x1="0" x2="324" y1="234" y2="234" gradientTransform="matrix(-.26458 0 0 .26458 127.5 62.8)" gradientUnits="userSpaceOnUse"/>
    <linearGradient id="a">
      <stop offset="0" stop-color="#906937"/>
      <stop offset="1" stop-color="#4f0006"/>
    </linearGradient>
    <linearGradient xlink:href="#b" id="m" x1="324" x2="0" y1="0" y2="234" gradientTransform="matrix(-.26458 0 0 .1836 127.5 62.8)" gradientUnits="userSpaceOnUse"/>
    <linearGradient id="b">
      <stop offset="0" stop-color="#270012"/>
      <stop offset="1" stop-color="#60512e"/>
    </linearGradient>
    <linearGradient xlink:href="#c" id="n" x1="-176.7" x2="-401" y1="272.6" y2="519" gradientUnits="userSpaceOnUse"/>
    <linearGradient id="c">
      <stop offset="0" stop-color="#fff"/>
      <stop offset="1" stop-color="#e6c7ac"/>
    </linearGradient>
    <linearGradient id="j">
      <stop offset="0" stop-color="#eb8a1b"/>
      <stop offset="1" stop-color="#f3e4d7" stop-opacity="0"/>
    </linearGradient>
    <linearGradient xlink:href="#d" id="r" x1="-486.5" x2="-486.8" y1="379.8" y2="364.1" gradientTransform="translate(225.9 34.5) scale(.90576)" gradientUnits="userSpaceOnUse"/>
    <linearGradient id="d">
      <stop offset="0" stop-color="#941522"/>
      <stop offset="1" stop-color="#000102"/>
    </linearGradient>
    <linearGradient id="k">
      <stop offset="0" stop-color="#1c2833"/>
      <stop offset="1" stop-color="#6b1c21"/>
    </linearGradient>
    <linearGradient xlink:href="#d" id="u" x1="-485.4" x2="-485.5" y1="390.6" y2="348" gradientTransform="translate(270.2 .2)" gradientUnits="userSpaceOnUse"/>
    <linearGradient xlink:href="#d" id="w" x1="-486.5" x2="-486.8" y1="379.8" y2="364.1" gradientTransform="translate(119 34.6) scale(.90576)" gradientUnits="userSpaceOnUse"/>
    <linearGradient xlink:href="#d" id="z" x1="-485.4" x2="-485.5" y1="390.6" y2="348" gradientTransform="translate(163.3 .3)" gradientUnits="userSpaceOnUse"/>
    <linearGradient xlink:href="#e" id="A" x1="-600.5" x2="-559.3" y1="394.2" y2="393.9" gradientTransform="translate(321.8 4.6)" gradientUnits="userSpaceOnUse"/>
    <linearGradient id="e">
      <stop offset="0" stop-color="#af0002"/>
      <stop offset="1" stop-color="#820400"/>
    </linearGradient>
    <linearGradient xlink:href="#c" id="B" x1="-142.8" x2="-159.8" y1="430" y2="566.3" gradientTransform="translate(1 -3.5) scale(1.00485)" gradientUnits="userSpaceOnUse"/>
    <linearGradient xlink:href="#f" id="C" x1="-142.8" x2="-159.8" y1="430" y2="566.3" gradientUnits="userSpaceOnUse"/>
    <linearGradient id="f">
      <stop offset="0" stop-color="#e3e3e3"/>
      <stop offset="1" stop-color="#aab1bf"/>
    </linearGradient>
    <linearGradient xlink:href="#f" id="D" x1="-187.7" x2="-197.4" y1="434.9" y2="571" gradientUnits="userSpaceOnUse"/>
    <linearGradient xlink:href="#f" id="E" x1="-231.7" x2="-236.8" y1="435.4" y2="575.7" gradientUnits="userSpaceOnUse"/>
    <linearGradient xlink:href="#f" id="F" x1="-291.2" x2="-292.8" y1="433.5" y2="582.3" gradientUnits="userSpaceOnUse"/>
    <linearGradient xlink:href="#g" id="G" x1="-310.6" x2="-303.1" y1="439.7" y2="576.9" gradientUnits="userSpaceOnUse"/>
    <linearGradient id="g">
      <stop offset="0" stop-color="#d5eaf7"/>
      <stop offset="1" stop-color="#949cae"/>
    </linearGradient>
    <linearGradient xlink:href="#h" id="H" x1="-317.8" x2="-337.3" y1="566.8" y2="419.5" gradientUnits="userSpaceOnUse"/>
    <linearGradient id="h">
      <stop offset="0" stop-color="#86a6c5"/>
      <stop offset="1" stop-color="#d5eaf7"/>
    </linearGradient>
    <linearGradient xlink:href="#h" id="I" x1="-333.9" x2="-360.4" y1="555.6" y2="418.9" gradientUnits="userSpaceOnUse"/>
    <linearGradient xlink:href="#i" id="J" x1="4.5" x2="322" y1="105.7" y2="122.4" gradientTransform="matrix(.11058 0 0 .36274 92 72.8)" gradientUnits="userSpaceOnUse"/>
    <linearGradient id="i">
      <stop offset="0" stop-color="#af0002" stop-opacity="0"/>
      <stop offset="1" stop-color="#99ffa0"/>
    </linearGradient>
    <filter id="o" width="1" height="1.1" x="0" y="0" color-interpolation-filters="sRGB">
      <feGaussianBlur stdDeviation=".5"/>
    </filter>
    <filter id="q" width="1.2" height="1.2" x="-.1" y="-.1" color-interpolation-filters="sRGB">
      <feGaussianBlur stdDeviation="1.5"/>
    </filter>
    <filter id="t" width="2.3" height="1.5" x="-.7" y="-.2" color-interpolation-filters="sRGB">
      <feGaussianBlur stdDeviation="2.3"/>
    </filter>
    <filter id="v" width="1.2" height="1.2" x="-.1" y="-.1" color-interpolation-filters="sRGB">
      <feGaussianBlur stdDeviation="1.5"/>
    </filter>
    <filter id="y" width="2.3" height="1.5" x="-.7" y="-.2" color-interpolation-filters="sRGB">
      <feGaussianBlur stdDeviation="2.3"/>
    </filter>
    <radialGradient xlink:href="#j" id="p" cx="-447.6" cy="204.3" r="120.3" fx="-447.6" fy="204.3" gradientTransform="matrix(3.08089 .60822 -.20243 1.0254 1072.8 478.7)" gradientUnits="userSpaceOnUse"/>
    <radialGradient xlink:href="#k" id="s" cx="-481.6" cy="365.1" r="6.5" fx="-481.6" fy="365.1" gradientTransform="matrix(1.09147 .71899 -4.56286 6.92674 1978.4 -1820)" gradientUnits="userSpaceOnUse"/>
    <radialGradient xlink:href="#k" id="x" cx="-481.6" cy="365.1" r="6.5" fx="-481.6" fy="365.1" gradientTransform="matrix(1.09147 .71899 -4.56286 6.92674 1871.5 -1819.9)" gradientUnits="userSpaceOnUse"/>
  </defs>
  <path fill="url(#l)" d="M127.5 62.8H41.8v61.9h85.7z" transform="translate(-41.8 -62.8)"/>
  <path fill="url(#m)" d="M127.5 62.8H41.8v43h85.7z" transform="translate(-41.8 -62.8)"/>
  <g transform="translate(78.7 -28) scale(.13939)">
    <path fill="url(#n)" d="M-220.8 263.3a91.9 91.9 0 0 0-39 9.1 83 83 0 0 0-35.8 33.4c-3.6 5.7-5.5 10.3-6.8 13-1.2 2.7-1.8 3.5-2.7 1.3-1-2.2-2.5-7.4-5.9-11.9-3.4-4.4-8.7-8-15-9.7a39.5 39.5 0 0 0-19.2 0 32.5 32.5 0 0 0-14.3 7.7c-3.9 3.6-7.1 8-9.3 11.6a35 35 0 0 0-4.2 9.6 27 27 0 0 0-1 9.5 21 21 0 0 0 3 8.7c1.5 2.6 3.6 4.7 6.9 6.7 3.2 2 7.7 3.8 11 4.8 3.1 1 5 1 5.8 1.6.8.5.3 1.5-2.1 2.1-2.4.7-6.8 1-10.9 2.2-4 1.2-7.8 3.4-10.5 5.8a15.9 15.9 0 0 0-5.3 8.1c-1 3.4-1.1 7.6-.3 11.3 1 3.8 3 7 5.3 9.7 2.3 2.6 5 4.7 7.2 6.1 2.1 1.5 3.7 2.3 3.9 3.1.2.9-.9 1.7-2 2.7-.6.5-1.4 1.6-2.2 2.4l1.1 1.7 1.5 3.2c.5 1 1 1.7 1.2 1.7.3.1.4-.4.4-1.2l.1-2.5.4-1.9c.2-.4.4-.8.7-1 .3-.2.7-.3 1-.2.5 0 1 .2 1.4.6.5.4 1 1 1.5 1.8.6.9 1.1 2 1.7 3.3 1.1 2.7 2.3 6.6 2.9 7.1 0 .2.2.1.2 0l.2-1v-3.1l.5-2.5c.2-.6.4-1.1.7-1.5.3-.3.6-.6.9-.6.3 0 .6 0 .9.2.3.2.7.5 1 1.2.5.8 1 1.8 1.6 3.5l2 6c.7 1.8 1.4 3.4 1.8 3.6.2.2.4 0 .5-.5.2-.4.2-1 .3-1.8.2-1.5.2-3.4.3-4.8 0-1.4.2-2.2.4-2.8.2-.5.4-.8.8-1l1-.2c.4 0 .8.2 1.2.4.4.3.8.6 1 1.1.4.5.7 1.2 1 2 .6 1.4 1.1 3.4 1.8 5.8.3 1.2.6 2.5 1 3.5.3 1 .6 1.6.9 1.4.2-.2.3-1.2.4-2.5l.4-3.7a8 8 0 0 1 .5-2.1c.2-.5.4-.7.7-.9l.9-.2c.3 0 .7.3 1 .6.5.4 1 .9 1.4 1.6.4.8 1 1.8 1.4 3 1 2.6 1.8 6.2 2.4 7.5 0 .3.2.4.3.5 0 0 .2 0 .2-.2.2-.3.3-1 .4-1.9.1-1.6.4-3.8.7-5.3a8 8 0 0 1 .5-1.8c.3-.4.5-.8.8-1 .3-.2.6-.3 1-.3s.8 0 1.2.2c.4.2.8.5 1.2 1 .5.4.9 1 1.3 2 .7 2 1.3 5 1.8 7l.7 2c.2.5.4.7.5.5.4-.3.6-2 .9-3.4.2-1.4.4-2.5.7-3.3l.7-1 .8-.2c.4 0 .7.1 1.1.4.4.3.8.7 1.2 1.4.8 1.3 1.5 3.5 2.1 5.2a18 18 0 0 0 1.4 3.5c.1.2.2.1.4-.1l.4-1a22.3 22.3 0 0 1 3.3-4.8c.5-.6 1.1-1 1.8-1.5a8.6 8.6 0 0 1 5-1.4 11.3 11.3 0 0 1 7.9 4.1l1.7 2.1 1 1.4c.3.4.5.5.8.5.4 0 .8-.9 1.2-1.8.5-1 1-2 2-3.2a13.8 13.8 0 0 1 7.8-4.9 6.3 6.3 0 0 1 4 .6 12.9 12.9 0 0 1 4.2 3.2c1.2 1.3 2.1 2.9 2.7 3.6.3.4.6.5.8.5.2 0 .4-.2.6-.6l1.6-3a15.5 15.5 0 0 1 8.6-7 6 6 0 0 1 2.7 0 8 8 0 0 1 2.5 1 15 15 0 0 1 4.4 4l1.5 2.3c.4.6.8 1 1.1 1.2.4 0 .7-.2 1-.6l1-1.5a14.7 14.7 0 0 1 6.7-6.8 7.5 7.5 0 0 1 5-.6 12 12 0 0 1 4.9 2.4 13 13 0 0 1 2.7 3.3c.3.6.6 1.1 1 1.5.2.3.5.6.7.5.3 0 .6-.3.8-.7l.8-1.4a23.2 23.2 0 0 1 6.6-6.7 8.1 8.1 0 0 1 6.9-.9c.8.3 1.6.7 2.4 1.5.8.7 1.5 1.7 2.2 2.7l1.7 2.8 1 1.6c.2.3.3.4.6.3.4-.3 1-1.4 2-2.8.9-1.4 2-3 3.3-4.3a12.7 12.7 0 0 1 4-2.8l2.1-.8c.7-.2 1.5-.3 2.2-.2.7 0 1.5.2 2.2.4a8 8 0 0 1 2.1 1.3c1.4 1.2 2.6 2.9 3.5 4 .8 1.2 1.3 1.9 1.7 2 .3 0 .5 0 .7-.2l.7-.9 2-2.6c.6-1 1.1-1.9 2-2.8a16.8 16.8 0 0 1 5.5-3c.6-.3 1.3-.4 2-.3a9 9 0 0 1 4.7 1.7c0-.3 0-.5-.2-.8a25 25 0 0 0-5.4-7c-1.7-1.7-2.6-2-2-2.6.5-.5 2.5-1 5.1-2.8 2.7-1.7 6-4.5 8.4-7.6a20.8 20.8 0 0 0 3.6-20 34 34 0 0 0-5.6-10.6 30 30 0 0 0-9-7.6c-3-1.6-5.8-2.1-8-2.2-2.2 0-4 .3-4.5.1-.6-.2 0-1 1.3-2.7 1.4-1.7 3.5-4.2 5.4-7.2a50.1 50.1 0 0 0 6.9-21.2 90 90 0 0 0 .1-15.6 38 38 0 0 0-4.1-14.5 71.8 71.8 0 0 0-28.4-29.6 60.1 60.1 0 0 0-18-6.7 93.5 93.5 0 0 0-19.4-1.7z"/>
    <path fill="#fcf9f0" d="M-268.6 378.1h34.5a8 8 0 0 1 3.9 1c1 .6 1.9 1.6 2.3 2.8.4 1.3.4 2.7.4 5s.1 5.3-.2 8c-.2 2.6-.8 4.8-2.2 7.1a33.4 33.4 0 0 1-19.6 14.1c-3.3.7-7.2.7-10.3.2-3-.6-5.3-1.5-7.7-3a31 31 0 0 1-6.5-5.1 21.5 21.5 0 0 1-6.2-13.7 57 57 0 0 1-.5-7.6 8.8 8.8 0 0 1 2.9-6.7c.7-.8 1.5-1.3 2.1-1.6l1.2-.4h6z" filter="url(#o)"/>
    <path fill="url(#p)" d="M-221 263.2a91.9 91.9 0 0 0-39 9.1 83 83 0 0 0-35.8 33.4c-3.5 5.8-5.5 10.4-6.7 13-1.3 2.7-1.8 3.5-2.8 1.3-1-2.2-2.4-7.4-5.8-11.8a28 28 0 0 0-15-9.8 39.5 39.5 0 0 0-19.2 0 32.5 32.5 0 0 0-14.3 7.7c-4 3.6-7.2 8-9.4 11.7a35 35 0 0 0-4.1 9.6 27 27 0 0 0-1 9.4 21 21 0 0 0 3 8.7c1.5 2.6 3.6 4.8 6.8 6.8 3.3 2 7.8 3.8 11 4.7 3.2 1 5.1 1 5.9 1.6.7.6.3 1.5-2.1 2.2-2.5.6-6.9.9-11 2.1-4 1.3-7.7 3.5-10.4 5.8a15.9 15.9 0 0 0-5.3 8.1c-1 3.4-1.2 7.6-.3 11.3.9 3.8 2.9 7 5.2 9.7 2.4 2.7 5.1 4.7 7.3 6.1 2.1 1.5 3.6 2.3 3.9 3.1.2.9-1 1.7-2 2.7-.7.6-1.5 1.6-2.2 2.4l1 1.7 1.6 3.2c.5 1 .9 1.7 1.2 1.8.2 0 .3-.5.4-1.2l.1-2.6c0-.8.2-1.4.4-1.9l.7-1c.3-.1.7-.3 1-.2.5 0 .9.2 1.4.6.5.4 1 1 1.5 1.9l1.7 3.2c1.1 2.7 2.3 6.6 2.8 7.2.2.1.2 0 .3-.2l.1-1c0-.8 0-2 .2-3 0-1 .2-1.8.4-2.5.2-.6.4-1.1.7-1.5.2-.3.5-.5.8-.6.3 0 .6 0 1 .2.3.2.6.6 1 1.3.4.7 1 1.8 1.5 3.4l2 6c.8 1.9 1.4 3.4 1.9 3.7.2 0 .4-.1.5-.6l.3-1.8.3-4.8c0-1.4.2-2.2.4-2.8.2-.5.4-.7.7-1 .3 0 .7-.2 1.1-.1l1.2.3c.4.3.7.7 1 1.2.4.5.7 1 1 1.8.6 1.5 1 3.6 1.7 6l1 3.4c.4 1 .7 1.6 1 1.4l.4-2.4.4-3.7a8 8 0 0 1 .5-2.2c.2-.5.4-.7.7-.8.2-.2.5-.3.8-.2.4 0 .7.2 1.1.5.5.4.9 1 1.4 1.7l1.4 3c.9 2.5 1.8 6.1 2.3 7.4l.4.5.2-.2.3-1.8.7-5.4a8 8 0 0 1 .6-1.8l.8-1c.3-.2.6-.3 1-.3.3 0 .7 0 1.1.3.5.1.9.4 1.3.9s.9 1.1 1.2 2c.8 2 1.4 5 1.9 7 .2 1 .5 1.7.7 2.1.2.4.3.6.5.4.3-.3.6-2 .8-3.4.3-1.4.4-2.5.8-3.3l.6-.9.9-.3c.3 0 .7.2 1.1.4.4.3.8.8 1.2 1.4.8 1.3 1.5 3.5 2 5.2a18 18 0 0 0 1.4 3.5c.2.2.3.1.4 0l.5-1a22.3 22.3 0 0 1 3.3-4.9c.5-.5 1-1 1.8-1.5a8.6 8.6 0 0 1 5-1.3 11.3 11.3 0 0 1 7.9 4.1l1.6 2 1.1 1.5c.3.3.5.5.7.4.4 0 .8-.9 1.3-1.8.5-1 1-2 1.9-3.1a13.8 13.8 0 0 1 7.9-5 6.3 6.3 0 0 1 4 .6 12.9 12.9 0 0 1 4.2 3.2c1.2 1.4 2 3 2.7 3.6.3.4.6.5.8.5.2 0 .4-.2.6-.5l1.5-3a15.5 15.5 0 0 1 8.7-7 6 6 0 0 1 2.7 0 8 8 0 0 1 2.4 1 15 15 0 0 1 4.5 4l1.5 2.2c.4.6.8 1 1.1 1.2.3.1.7-.1 1-.5l1-1.6a14.7 14.7 0 0 1 6.7-6.8 7.5 7.5 0 0 1 5-.6l2.4.9c.9.4 1.7.9 2.3 1.4a13 13 0 0 1 2.8 3.5l1 1.4c.3.4.6.6.8.5.3 0 .5-.3.8-.7l.8-1.4a23.2 23.2 0 0 1 6.6-6.7 8.1 8.1 0 0 1 6.9-.9c.8.3 1.6.7 2.4 1.5.8.7 1.5 1.7 2.2 2.7l1.6 2.8 1 1.6c.2.4.4.4.7.3.4-.3 1-1.4 2-2.7a22 22 0 0 1 3.3-4.4 12.7 12.7 0 0 1 4-2.8l2.1-.8 2.2-.2c.7 0 1.4.2 2.2.5a8 8 0 0 1 2 1.3c1.5 1 2.7 2.8 3.5 4a7.5 7.5 0 0 0 1.8 2l.6-.3.8-.9 1.9-2.6c.6-1 1.2-1.9 2.1-2.8a16.8 16.8 0 0 1 5.5-3 6 6 0 0 1 2-.3 9 9 0 0 1 4.7 1.7l-.2-.8a25 25 0 0 0-5.4-7c-1.8-1.6-2.6-2-2-2.6.5-.5 2.5-1 5.1-2.8 2.7-1.7 6-4.4 8.3-7.6a20.8 20.8 0 0 0 3.6-20 30.2 30.2 0 0 0-14.6-18.3c-3-1.5-5.7-2-8-2-2.1 0-3.8.3-4.4 0-.6-.2 0-1 1.3-2.7 1.4-1.7 3.5-4.2 5.4-7.2a50.1 50.1 0 0 0 6.8-21.2c.5-4.5.7-10.5.2-15.6a38 38 0 0 0-4.2-14.4 71.8 71.8 0 0 0-28.3-29.7 60.1 60.1 0 0 0-18.1-6.7 93.5 93.5 0 0 0-19.3-1.7z" opacity=".4"/>
    <ellipse cx="-199.8" cy="364.1" fill="#fcf9f0" filter="url(#q)" rx="18.6" ry="18.5"/>
    <ellipse cx="-200.2" cy="363.8" fill="url(#r)" rx="14.6" ry="15"/>
    <path fill="url(#s)" d="M-206.1 355.3c-.3 2-1.9 5.3-2.4 8.1s0 5 .7 7c.6 1.8 1.2 3.3 1.2 4.2 0 1-.7 1.3-2 .2a20.5 20.5 0 0 1-4.6-6.1 12.3 12.3 0 0 1-1.2-6.9c.3-2.1 1-4 2.3-5.6a8.9 8.9 0 0 1 4-3.2c1.3-.3 2.3.3 2 2.3z" filter="url(#t)"/>
    <ellipse cx="-200.1" cy="363.8" fill="none" stroke="url(#u)" stroke-width="1.2" rx="14.6" ry="15"/>
    <ellipse cx="-194.7" cy="357.2" fill="#fff" rx="5.2" ry="5.5"/>
    <ellipse cx="-306.7" cy="364.3" fill="#f4ddc7" filter="url(#v)" rx="18.6" ry="18.5"/>
    <ellipse cx="-307.1" cy="363.9" fill="url(#w)" rx="14.6" ry="15"/>
    <path fill="url(#x)" d="M-313 355.4c-.4 2-1.9 5.4-2.4 8.2-.5 2.8 0 5 .7 6.9.6 1.8 1.2 3.3 1.2 4.3s-.7 1.3-2 .1a20.5 20.5 0 0 1-4.6-6 12.3 12.3 0 0 1-1.2-7c.2-2 1-4 2.3-5.6a8.9 8.9 0 0 1 4-3.1c1.3-.4 2.3.2 2 2.2z" filter="url(#y)"/>
    <ellipse cx="-307" cy="363.9" fill="none" stroke="url(#z)" stroke-width="1.2" rx="14.6" ry="15"/>
    <ellipse cx="-301.6" cy="357.3" fill="#fff" rx="5.2" ry="5.5"/>
    <path fill="#1c2833" d="M-236 379.1h-8.5l-22.8.1h-5.6l-1 .5a8.9 8.9 0 0 0-4 4l-.2.7a9 9 0 0 0-.6 3c0 2 .2 4.7.5 7.2s.7 4.6 1.6 6.7a24.3 24.3 0 0 0 10.4 11.1 20 20 0 0 0 7.2 2.7c3 .5 6.5.5 9.7-.1a26 26 0 0 0 7.9-3.2c1.4-.8 2.5-1.8 3.6-2.7l1.8-1.3a36 36 0 0 0 5.1-6c1.4-2.3 2-4.4 2.2-6.8.2-2.5.2-5.4.1-7.6 0-2.1 0-3.5-.4-4.6a5.2 5.2 0 0 0-2.2-2.8c-1-.6-2.1-.8-3.6-.9h-1.2z"/>
    <path fill="url(#A)" d="M-237.8 409.1c1-1.3 2.2-2.6 3-3.8a35.9 35.9 0 0 0 3.4-6l.3-2.9a111.5 111.5 0 0 0-.3-13.2l-.7-.6c-.2-.1-.4-.2-7.3-.3-7-.2-20.6-.3-27.8-.2a61 61 0 0 0-7 .4 5 5 0 0 0-2.2.7l-1.7 1.2a9 9 0 0 0-.6 3c0 2 .2 4.7.5 7.2s.7 4.6 1.6 6.7a24.3 24.3 0 0 0 10.4 11.1 20 20 0 0 0 7.2 2.7c3 .5 6.5.5 9.7-.1a26 26 0 0 0 7.9-3.2c1.4-.8 2.5-1.8 3.6-2.7z"/>
    <path fill="#4b0101" d="M-234.8 379.1h-9.7l-22.8.1h-5.6l-1 .5a8.9 8.9 0 0 0-4 4l-.2.7 1.7-1.2a5 5 0 0 1 2.3-.7 61 61 0 0 1 6.9-.4 1146.2 1146.2 0 0 1 35.1.5l.7.6c.2.3.4.7.4 3.3a157.6 157.6 0 0 1-.4 12.7l-.6 1.6a41 41 0 0 1-2.8 4.5c-.8 1.2-2 2.5-3 3.8l1.8-1.3a36 36 0 0 0 5.1-6c1.4-2.3 2-4.4 2.2-6.8.2-2.5.2-5.4.1-7.6 0-2.1 0-3.5-.4-4.6a5.2 5.2 0 0 0-2.2-2.8c-1-.6-2.1-.8-3.6-.9z"/>
    <path fill="url(#B)" d="m-348.4 544.7 6.3 4.8 2.3 1.7 5.2 3.6 8.5 6 7.7 5.2 7.4 5.2 5.7 4 1.7 1c3.4 2.3 6 4 7.4 4.7 1.3.6 2 .8 3 .8 1.3 0 10.4-1.2 17.5-2l9.3-1.1 9.1-1.1 20.2-2.4 18.4-2.2 21.2-2.6 15-1.8 2.9-.4c16.5-2 18.9-2.3 19.3-2.9.5-.6.7-1.7 3.7-24.4l11.6-89.6c2.8-22.6 2.7-23.4 2-24.8-.8-1.3-2.2-3.1-3.8-4.3a8.7 8.7 0 0 0-4.7-1.6c-1.5 0-2.6.3-3.9 1a17 17 0 0 0-3.6 2.3c-1 1-1.5 1.8-2.1 2.8-.7 1-1.4 2-2 2.6-.5.7-.9 1.2-1.3 1.1-.5 0-1-.7-1.8-2-.9-1.1-2.1-2.8-3.5-4a7.3 7.3 0 0 0-4.3-1.7c-1.5 0-3 .4-4.3 1-1.4.7-2.8 1.5-4 2.8-1.3 1.3-2.5 3-3.4 4.4-.9 1.4-1.5 2.5-2 2.7-.5.3-.8-.3-1.6-1.8-1-1.6-2.3-4.2-3.9-5.6a6.7 6.7 0 0 0-4.8-2 8 8 0 0 0-4.5 1.4 23.3 23.3 0 0 0-6.7 6.7c-.5 1-1 2.1-1.5 2.2-.2 0-.4-.2-.6-.4l-1.3-1.6a13 13 0 0 0-2.8-3.4c-1.3-1.1-3.2-2-4.9-2.4a8 8 0 0 0-5 .6 15 15 0 0 0-6.6 6.8c-.7 1.2-1.3 2.4-2 2.1l-.2-.1c-.6-.4-1.3-1.8-2.4-3.3a16.9 16.9 0 0 0-4.5-4 6.6 6.6 0 0 0-5.1-1 15.3 15.3 0 0 0-8.7 7l-1.6 3c-.3.5-.7.6-1.1.2l-.3-.1c-.6-.7-1.5-2.3-2.7-3.7a14.2 14.2 0 0 0-4.2-3.2 6.1 6.1 0 0 0-4-.5 13.6 13.6 0 0 0-8 4.9c-.9 1-1.4 2.2-1.9 3.1-.5 1-.9 1.8-1.3 1.9l-.2-.1c-.3-.1-.8-.7-1.6-1.8-.9-1.2-2.2-3-3.9-4.2a10 10 0 0 0-5.6-2c-2-.1-3.7.4-5.1 1.3-1.4 1-2.4 2.1-3.2 3.3l-1.9 3c-.4 1-.6 1.5-.9 1.2l-.7-1.8-.6-1.7a39 39 0 0 0-2.1-5.3c-.8-1.3-1.7-1.7-2.3-1.8-.7 0-1.2.4-1.6 1.2-.3.8-.5 2-.7 3.4-.3 1.4-.5 3-.9 3.4-.3.2-.7-.7-1.2-2.6-.5-2-1-5-1.8-7-.8-1.8-1.7-2.6-2.5-3-.9-.3-1.6-.3-2.2.1-.6.5-1 1.3-1.4 2.9-.3 1.5-.5 3.6-.7 5.3-.2 1.7-.3 2.8-.9 1.5l-.2-.7c-.6-1.6-1.3-4.4-2.2-6.7a11 11 0 0 0-2.7-4.7c-.8-.7-1.4-.7-2-.4-.5.4-1 1-1.2 3-.2 2.2-.4 5.8-.8 6.2l-.4-.6c-.4-.6-1-2.3-1.5-4.2-.7-2.4-1.2-4.5-1.8-6-.6-1.5-1.2-2.5-2-3-.7-.5-1.6-.5-2.3-.2-.6.4-1 1-1.1 3.8-.2 2.7-.2 7.6-1.1 7.2-.2-.1-.6-1.3-1-2-.9-2-2-5.2-2.9-7.7-1.2-3.4-2-4.3-2.6-4.8-.6-.4-1.2-.2-1.8.5-.5.7-1 2-1 4-.2 2-.1 4.5-.6 4.1-.5-.5-1.7-4.4-2.9-7.1a13.4 13.4 0 0 0-3.2-5.1c-1-.8-1.8-.8-2.4-.4-.6.4-1 1.2-1 2.9-.2 1.6-.1 4-.6 3.7-.5-.2-1.7-2.8-2.7-4.8l-1.6-2c-.8-1.2-1.3-1.7-1.8-1.9a1 1 0 0 0-1 .4 3 3 0 0 0-.9 1.8l-.4 3.5.3 4.3 3 19.6c3.5 21.7 10.6 64 14.2 85.3 3.3 19.6 3.4 19.9 3.7 21z"/>
    <path fill="url(#C)" d="m-164.5 431.7-15.2 137.1c16.5-2 18.8-2.3 19.3-2.9.5-.6.7-1.7 3.6-24.3 3-22.6 8.7-66.6 11.5-89.1 2.9-22.5 2.8-23.4 2-24.7-.7-1.3-2.1-3.1-3.7-4.3a8.7 8.7 0 0 0-4.7-1.6 7 7 0 0 0-3.8 1 13 13 0 0 0-3.6 2.3c-1 .9-1.5 1.8-2.2 2.8l-2 2.6c-.4.7-.8 1.2-1.2 1z"/>
    <path fill="#c40a0c" d="m-187.7 434.9-9.7 136 14.8-1.7 3-.4 15-137.1c-.4-.1-.9-.8-1.7-2-.9-1.1-2.1-2.8-3.5-4a7.2 7.2 0 0 0-4.3-1.7c-1.5 0-2.9.4-4.3 1s-2.8 1.5-4 2.8c-1.3 1.2-2.4 3-3.3 4.3-1 1.4-1.6 2.5-2 2.8z"/>
    <path fill="url(#D)" d="m-211.2 435.3-7.3 138.2 21-2.5 9.8-136.1c-.5.2-.8-.4-1.6-1.9a25 25 0 0 0-3.9-5.5 6.7 6.7 0 0 0-4.7-2 9 9 0 0 0-4.6 1.3 23.2 23.2 0 0 0-6.6 6.8c-.5 1-1 2-1.6 2.1l-.5-.4z"/>
    <path fill="#c40a0c" d="m-233.8 437.3-3 138.4 18.3-2.2 7.3-138.2c-.4-.3-.8-.9-1.2-1.6a13 13 0 0 0-2.9-3.4c-1.3-1-3.1-2-4.8-2.3a7.8 7.8 0 0 0-5 .6 14.6 14.6 0 0 0-6.6 6.8c-.7 1.1-1.3 2.3-2 2l-.1-.1z"/>
    <path fill="url(#E)" d="m-257.2 439.3.3 138.9 20-2.5 3-138.4c-.6-.4-1.3-1.8-2.4-3.2a16.8 16.8 0 0 0-4.4-4 6.6 6.6 0 0 0-5.2-1 15.3 15.3 0 0 0-8.7 7c-.7 1.2-1 2.3-1.5 3-.3.5-.7.5-1.1.2z"/>
    <path fill="#c40a0c" d="m-279.6 441.5 4.3 138.8 9.3-1 9-1.1-.2-139-.3-.1c-.6-.7-1.5-2.3-2.7-3.6a14.2 14.2 0 0 0-4.2-3.2 6 6 0 0 0-4-.6 13.5 13.5 0 0 0-7.9 5 16 16 0 0 0-1.9 3c-.4 1-.8 1.9-1.2 2l-.2-.2z"/>
    <path fill="url(#F)" d="m-302.4 440.5 6.7 141c1.3.6 2 .8 3 .8 1.2 0 10.3-1.1 17.4-2l-4.3-138.8c-.4-.1-.8-.7-1.6-1.8-1-1.2-2.2-2.9-4-4.1a9.5 9.5 0 0 0-5.5-2c-2-.2-3.7.4-5 1.3-1.5.9-2.4 2-3.3 3.2l-1.9 3.1c-.4.9-.5 1.5-.8 1-.2-.1-.5-1-.7-1.7z"/>
    <path fill="#c40a0c" d="m-310.6 439.7 7.5 137.2c3.4 2.2 6.1 4 7.4 4.6l-6.7-141-.7-1.7c-.6-1.7-1.3-3.9-2-5.2-.9-1.3-1.7-1.8-2.4-1.8-.6 0-1.1.4-1.5 1.2-.3.8-.5 2-.7 3.3-.3 1.4-.5 3-.9 3.4z"/>
    <path fill="url(#G)" d="m-321.5 436.2 11 135.6 5.7 4 1.7 1-7.5-137.1c-.3.2-.7-.7-1.2-2.6-.5-2-1-5-1.8-6.9-.8-1.9-1.7-2.6-2.5-3-.9-.3-1.6-.3-2.2.1-.6.5-1 1.3-1.3 2.8-.3 1.5-.6 3.7-.7 5.3-.2 1.7-.4 2.8-1 1.6l-.2-.8z"/>
    <path fill="#c40a0c" d="m-330.7 433 13 133.8 7.2 5-11-135.6-2.1-6.6c-1-2.6-2-4-2.7-4.7-.8-.7-1.5-.7-2-.4-.5.4-1 1-1.2 3-.3 2.1-.4 5.8-.8 6.2l-.4-.6z"/>
    <path fill="url(#H)" d="m-341.4 428.7 16 132.8 7.6 5.3-13-133.7c-.4-.6-1-2.4-1.4-4.3-.7-2.4-1.2-4.4-1.8-5.9-.6-1.5-1.2-2.5-2-3a2 2 0 0 0-2.2-.1c-.7.3-1 1-1.2 3.7-.2 2.7-.2 7.6-1 7.1-.3 0-.7-1.2-1-2z"/>
    <path fill="#c40a0c" d="m-350.3 424.8 16.4 130.8 8.5 5.9-16-132.8c-1-2-2-5.2-3-7.7-1.2-3.3-1.9-4.3-2.5-4.7-.7-.4-1.3-.3-1.8.4s-1 2-1.1 4c-.2 2 0 4.5-.5 4.1zm-16.4-16-.3-.3-.5-.1c-.3 0-.9.1-1.3.8-.5.8-.9 2.2-.9 5.4 0 3.3.5 8.4 4 29.9 3.4 21.5 9.8 59.2 13.1 78.7 3.3 19.4 3.5 20.4 3.8 21.2.4.7 1.9 2 7.5 6a13627 13627 0 0 0-18.8-121c-.9-4.7-1.5-7.2-2.3-9.4-1.4-4.6-3.2-8.5-4-10.6l-.3-.6z"/>
    <path fill="url(#I)" d="m-366.7 408.8.2.6a78.5 78.5 0 0 1 6.4 20c1 4.8 2.1 11.9 4 23.5l14.8 97.4 2.3 1.7 5.1 3.6-16.4-130.8c-.6-.5-1.8-4.4-2.9-7.1a13.4 13.4 0 0 0-3.2-5c-1-.9-1.8-.9-2.4-.5-.5.5-1 1.3-1 2.9-.2 1.6 0 4-.6 3.7-.5-.1-1.7-2.9-2.7-4.9-1-2-2-3.3-2.6-4.1l-1-1z"/>
  </g>
  <path fill="url(#J)" d="M127.5 85.4 92 72.8v38.3l35.5 6.1z" transform="translate(-41.8 -62.8)"/>
</svg>
