<?xml version="1.0" encoding="UTF-8" standalone="no"?>
<svg
   xmlns:dc="http://purl.org/dc/elements/1.1/"
   xmlns:cc="http://creativecommons.org/ns#"
   xmlns:rdf="http://www.w3.org/1999/02/22-rdf-syntax-ns#"
   xmlns:svg="http://www.w3.org/2000/svg"
   xmlns="http://www.w3.org/2000/svg"
   xmlns:xlink="http://www.w3.org/1999/xlink"
   xmlns:sodipodi="http://sodipodi.sourceforge.net/DTD/sodipodi-0.dtd"
   xmlns:inkscape="http://www.inkscape.org/namespaces/inkscape"
   viewBox="0 0 324 234"
   version="1.1"
   id="svg112"
   sodipodi:docname="popcorn-time.svg"
   inkscape:version="1.0.2 (1.0.2+r75+1)">
  <metadata
     id="metadata116">
    <rdf:RDF>
      <cc:Work
         rdf:about="">
        <dc:format>image/svg+xml</dc:format>
        <dc:type
           rdf:resource="http://purl.org/dc/dcmitype/StillImage" />
        <dc:title></dc:title>
      </cc:Work>
    </rdf:RDF>
  </metadata>
  <sodipodi:namedview
     pagecolor="#252525"
     bordercolor="#666666"
     borderopacity="1"
     objecttolerance="10"
     gridtolerance="10"
     guidetolerance="10"
     inkscape:pageopacity="0.79607843"
     inkscape:pageshadow="2"
     inkscape:window-width="1920"
     inkscape:window-height="972"
     id="namedview114"
     showgrid="false"
     inkscape:pagecheckerboard="true"
     inkscape:snap-bbox="true"
     inkscape:snap-intersection-paths="true"
     inkscape:object-nodes="false"
     inkscape:snap-midpoints="true"
     inkscape:snap-others="false"
     inkscape:bbox-nodes="true"
     inkscape:zoom="0.60738659"
     inkscape:cx="-49.146191"
     inkscape:cy="97.737896"
     inkscape:window-x="0"
     inkscape:window-y="0"
     inkscape:window-maximized="1"
     inkscape:current-layer="svg112"
     inkscape:bbox-paths="true"
     inkscape:snap-global="true" />
  <defs
     id="defs66">
    <linearGradient
       inkscape:collect="always"
       id="linearGradient3854">
      <stop
         style="stop-color:#af0002;stop-opacity:0"
         offset="0"
         id="stop3850" />
      <stop
         style="stop-color:#99ffa0;stop-opacity:1"
         offset="1"
         id="stop3852" />
    </linearGradient>
    <linearGradient
       inkscape:collect="always"
       id="linearGradient3818">
      <stop
         style="stop-color:#86a6c5;stop-opacity:0"
         offset="0"
         id="stop3814" />
      <stop
         style="stop-color:#d5eaf7;stop-opacity:1"
         offset="1"
         id="stop3816" />
    </linearGradient>
    <linearGradient
       id="linearGradient3782">
      <stop
         offset="0"
         stop-color="#eff5f8"
         id="stop3778"
         style="stop-color:#270012;stop-opacity:0" />
      <stop
         offset="1"
         stop-color="#ff8ad4"
         id="stop3780"
         style="stop-color:#faff7c;stop-opacity:0.45850837" />
    </linearGradient>
    <inkscape:path-effect
       effect="bspline"
       id="path-effect3606"
       is_visible="true"
       lpeversion="1"
       weight="33.333333"
       steps="2"
       helper_size="0"
       apply_no_weight="true"
       apply_with_weight="true"
       only_selected="false" />
    <linearGradient
       id="linearGradient3532">
      <stop
         offset="0"
         stop-color="#eff5f8"
         id="stop3528"
         style="stop-color:#270012;stop-opacity:1" />
      <stop
         offset="1"
         stop-color="#ff8ad4"
         id="stop3530"
         style="stop-color:#60512e;stop-opacity:1" />
    </linearGradient>
    <linearGradient
       id="linearGradient3526">
      <stop
         offset="0"
         stop-color="#eff5f8"
         id="stop3522"
         style="stop-color:#906937;stop-opacity:1" />
      <stop
         offset="1"
         stop-color="#ff8ad4"
         id="stop3524"
         style="stop-color:#4f0006;stop-opacity:1" />
    </linearGradient>
    <inkscape:path-effect
       effect="bspline"
       id="path-effect3462"
       is_visible="true"
       lpeversion="1"
       weight="33.333333"
       steps="2"
       helper_size="0"
       apply_no_weight="true"
       apply_with_weight="true"
       only_selected="false" />
    <inkscape:path-effect
       effect="bspline"
       id="path-effect3460"
       is_visible="true"
       lpeversion="1"
       weight="33.333333"
       steps="2"
       helper_size="0"
       apply_no_weight="true"
       apply_with_weight="true"
       only_selected="false" />
    <inkscape:path-effect
       effect="bspline"
       id="path-effect3458"
       is_visible="true"
       lpeversion="1"
       weight="33.333333"
       steps="2"
       helper_size="0"
       apply_no_weight="true"
       apply_with_weight="true"
       only_selected="false" />
    <linearGradient
       id="linearGradient3103">
      <stop
         offset="0"
         stop-color="#eff5f8"
         id="stop3099"
         style="stop-color:#270012;stop-opacity:0.22995916" />
      <stop
         offset="1"
         stop-color="#ff8ad4"
         id="stop3101"
         style="stop-color:#faff7c;stop-opacity:0.45850837" />
    </linearGradient>
    <linearGradient
       id="linearGradient3049">
      <stop
         offset="0"
         stop-color="#eff5f8"
         id="stop3045"
         style="stop-color:#270012;stop-opacity:1" />
      <stop
         offset="1"
         stop-color="#ff8ad4"
         id="stop3047"
         style="stop-color:#070001;stop-opacity:1" />
    </linearGradient>
    <inkscape:path-effect
       effect="bspline"
       id="path-effect2974"
       is_visible="true"
       lpeversion="1"
       weight="33.333333"
       steps="2"
       helper_size="0"
       apply_no_weight="true"
       apply_with_weight="true"
       only_selected="false" />
    <linearGradient
       inkscape:collect="always"
       id="linearGradient2802">
      <stop
         style="stop-color:#86a6c5;stop-opacity:1;"
         offset="0"
         id="stop2798" />
      <stop
         style="stop-color:#d5eaf7;stop-opacity:1"
         offset="1"
         id="stop2800" />
    </linearGradient>
    <linearGradient
       inkscape:collect="always"
       id="linearGradient2796">
      <stop
         style="stop-color:#d5eaf7;stop-opacity:1"
         offset="0"
         id="stop2792" />
      <stop
         style="stop-color:#949cae;stop-opacity:1"
         offset="1"
         id="stop2794" />
    </linearGradient>
    <linearGradient
       inkscape:collect="always"
       id="linearGradient2754">
      <stop
         style="stop-color:#86a6c5;stop-opacity:1;"
         offset="0"
         id="stop2750" />
      <stop
         style="stop-color:#d5eaf7;stop-opacity:1"
         offset="1"
         id="stop2752" />
    </linearGradient>
    <linearGradient
       inkscape:collect="always"
       id="linearGradient2720">
      <stop
         style="stop-color:#e3e3e3;stop-opacity:1"
         offset="0"
         id="stop2716" />
      <stop
         style="stop-color:#aab1bf;stop-opacity:1"
         offset="1"
         id="stop2718" />
    </linearGradient>
    <linearGradient
       inkscape:collect="always"
       id="linearGradient2696">
      <stop
         style="stop-color:#ffffff;stop-opacity:1"
         offset="0"
         id="stop2692" />
      <stop
         style="stop-color:#e6c7ac;stop-opacity:1"
         offset="1"
         id="stop2694" />
    </linearGradient>
    <linearGradient
       inkscape:collect="always"
       id="linearGradient2668">
      <stop
         style="stop-color:#eb8a1b;stop-opacity:1"
         offset="0"
         id="stop2664" />
      <stop
         style="stop-color:#f3e4d7;stop-opacity:0;"
         offset="1"
         id="stop2666" />
    </linearGradient>
    <linearGradient
       inkscape:collect="always"
       id="linearGradient2305">
      <stop
         style="stop-color:#af0002;stop-opacity:1;"
         offset="0"
         id="stop2301" />
      <stop
         style="stop-color:#820400;stop-opacity:1"
         offset="1"
         id="stop2303" />
    </linearGradient>
    <inkscape:path-effect
       effect="bspline"
       id="path-effect2275"
       is_visible="true"
       lpeversion="1"
       weight="33.333333"
       steps="2"
       helper_size="0"
       apply_no_weight="true"
       apply_with_weight="true"
       only_selected="false" />
    <inkscape:path-effect
       effect="bspline"
       id="path-effect2252"
       is_visible="true"
       lpeversion="1"
       weight="33.333333"
       steps="2"
       helper_size="0"
       apply_no_weight="true"
       apply_with_weight="true"
       only_selected="false" />
    <inkscape:path-effect
       effect="bspline"
       id="path-effect2248"
       is_visible="true"
       lpeversion="1"
       weight="33.333333"
       steps="2"
       helper_size="0"
       apply_no_weight="true"
       apply_with_weight="true"
       only_selected="false" />
    <inkscape:path-effect
       effect="bspline"
       id="path-effect2021"
       is_visible="true"
       lpeversion="1"
       weight="33.333333"
       steps="2"
       helper_size="0"
       apply_no_weight="true"
       apply_with_weight="true"
       only_selected="false" />
    <linearGradient
       inkscape:collect="always"
       id="linearGradient1712">
      <stop
         style="stop-color:#1c2833;stop-opacity:1;"
         offset="0"
         id="stop1708" />
      <stop
         style="stop-color:#6b1c21;stop-opacity:1"
         offset="1"
         id="stop1710" />
    </linearGradient>
    <inkscape:path-effect
       effect="bspline"
       id="path-effect1698"
       is_visible="true"
       lpeversion="1"
       weight="33.333333"
       steps="2"
       helper_size="0"
       apply_no_weight="true"
       apply_with_weight="true"
       only_selected="false" />
    <linearGradient
       inkscape:collect="always"
       id="linearGradient1288">
      <stop
         style="stop-color:#090c0f;stop-opacity:1"
         offset="0"
         id="stop1284" />
      <stop
         style="stop-color:#6d1714;stop-opacity:1"
         offset="1"
         id="stop1286" />
    </linearGradient>
    <linearGradient
       inkscape:collect="always"
       id="linearGradient1251">
      <stop
         style="stop-color:#151d25;stop-opacity:0.03530093"
         offset="0"
         id="stop1247" />
      <stop
         style="stop-color:#8da5be;stop-opacity:0.98823529"
         offset="1"
         id="stop1249" />
    </linearGradient>
    <linearGradient
       inkscape:collect="always"
       id="linearGradient1213">
      <stop
         style="stop-color:#941522;stop-opacity:1"
         offset="0"
         id="stop1209" />
      <stop
         style="stop-color:#000102;stop-opacity:1"
         offset="1"
         id="stop1211" />
    </linearGradient>
    <inkscape:path-effect
       effect="bspline"
       id="path-effect1080"
       is_visible="true"
       lpeversion="1"
       weight="33.333333"
       steps="2"
       helper_size="0"
       apply_no_weight="true"
       apply_with_weight="true"
       only_selected="false" />
    <inkscape:path-effect
       effect="bspline"
       id="path-effect1044"
       is_visible="true"
       lpeversion="1"
       weight="33.333333"
       steps="2"
       helper_size="0"
       apply_no_weight="true"
       apply_with_weight="true"
       only_selected="false" />
    <inkscape:path-effect
       effect="bspline"
       id="path-effect1020"
       is_visible="true"
       lpeversion="1"
       weight="33.333333"
       steps="2"
       helper_size="0"
       apply_no_weight="true"
       apply_with_weight="true"
       only_selected="false" />
    <inkscape:path-effect
       effect="bspline"
       id="path-effect997"
       is_visible="true"
       lpeversion="1"
       weight="33.333333"
       steps="2"
       helper_size="0"
       apply_no_weight="true"
       apply_with_weight="true"
       only_selected="false" />
    <inkscape:path-effect
       effect="bspline"
       id="path-effect993"
       is_visible="true"
       lpeversion="1"
       weight="33.333333"
       steps="2"
       helper_size="0"
       apply_no_weight="true"
       apply_with_weight="true"
       only_selected="false" />
    <linearGradient
       id="linearGradient975">
      <stop
         offset="0"
         stop-color="#eff5f8"
         id="stop971"
         style="stop-color:#270012;stop-opacity:1" />
      <stop
         offset="1"
         stop-color="#ff8ad4"
         id="stop973"
         style="stop-color:#4f0006;stop-opacity:1" />
    </linearGradient>
    <radialGradient
       xlink:href="#a"
       id="m"
       cx="256"
       cy="256"
       r="256"
       fx="256"
       fy="256"
       gradientTransform="matrix(1,0,0,0.68728,0,80.057)"
       gradientUnits="userSpaceOnUse" />
    <radialGradient
       xlink:href="#b"
       id="n"
       cx="379.803"
       cy="263.979"
       r="118.509"
       fx="379.803"
       fy="263.979"
       gradientTransform="matrix(0.8415,2.94543,-2.80608,0.80169,1267.344,-1561.529)"
       gradientUnits="userSpaceOnUse" />
    <radialGradient
       xlink:href="#c"
       id="o"
       cx="152.705"
       cy="175.729"
       r="30.957"
       fx="152.705"
       fy="175.729"
       gradientUnits="userSpaceOnUse" />
    <radialGradient
       xlink:href="#c"
       id="p"
       cx="313.924"
       cy="253.095"
       r="37.824"
       fx="313.924"
       fy="253.095"
       gradientUnits="userSpaceOnUse" />
    <radialGradient
       xlink:href="#c"
       id="q"
       cx="198.198"
       cy="253.095"
       r="37.824"
       fx="198.198"
       fy="253.095"
       gradientUnits="userSpaceOnUse" />
    <radialGradient
       xlink:href="#c"
       id="r"
       cx="256.165"
       cy="152.464"
       r="22.492"
       fx="256.165"
       fy="152.464"
       gradientTransform="translate(486.62,-453.297)"
       gradientUnits="userSpaceOnUse" />
    <radialGradient
       xlink:href="#d"
       id="s"
       cx="372.918"
       cy="133.722"
       r="12.626"
       fx="372.918"
       fy="133.722"
       gradientUnits="userSpaceOnUse" />
    <radialGradient
       xlink:href="#e"
       id="t"
       cx="372.918"
       cy="189.84"
       r="12.626"
       fx="372.918"
       fy="189.84"
       gradientUnits="userSpaceOnUse" />
    <radialGradient
       xlink:href="#f"
       id="u"
       cx="400.977"
       cy="161.781"
       r="12.626"
       fx="400.977"
       fy="161.781"
       gradientUnits="userSpaceOnUse" />
    <radialGradient
       xlink:href="#g"
       id="v"
       cx="344.86"
       cy="161.781"
       r="12.627"
       fx="344.86"
       fy="161.781"
       gradientTransform="matrix(1,0,0,0.99996,0,0.006)"
       gradientUnits="userSpaceOnUse" />
    <radialGradient
       xlink:href="#h"
       id="w"
       cx="313.923"
       cy="253.095"
       r="45.324"
       fx="313.923"
       fy="253.095"
       gradientUnits="userSpaceOnUse" />
    <radialGradient
       xlink:href="#h"
       id="x"
       cx="198.198"
       cy="253.095"
       r="45.324"
       fx="198.198"
       fy="253.095"
       gradientUnits="userSpaceOnUse" />
    <linearGradient
       id="i">
      <stop
         offset="0"
         stop-color="#eff5f8"
         id="stop14" />
      <stop
         offset="1"
         stop-color="#ff8ad4"
         id="stop16" />
    </linearGradient>
    <linearGradient
       id="j">
      <stop
         offset="0"
         stop-color="#f7fafb"
         id="stop19" />
      <stop
         offset="1"
         stop-color="#b2cdde"
         id="stop21" />
    </linearGradient>
    <linearGradient
       id="h">
      <stop
         offset="0"
         stop-color="#ffedf8"
         id="stop24" />
      <stop
         offset="1"
         stop-color="#ff8ad4"
         id="stop26" />
    </linearGradient>
    <linearGradient
       id="c">
      <stop
         offset="0"
         stop-color="#e6eff4"
         id="stop29" />
      <stop
         offset="1"
         stop-color="#b2cdde"
         id="stop31" />
    </linearGradient>
    <linearGradient
       id="b">
      <stop
         offset="0"
         stop-color="#5682a3"
         id="stop34" />
      <stop
         offset="1"
         stop-color="#1e3647"
         id="stop36" />
    </linearGradient>
    <linearGradient
       id="a">
      <stop
         offset="0"
         stop-color="#72a0c1"
         id="stop39" />
      <stop
         offset="1"
         stop-color="#3c6889"
         id="stop41" />
    </linearGradient>
    <linearGradient
       id="e">
      <stop
         offset="0"
         stop-color="#0bff58"
         id="stop44" />
      <stop
         offset="1"
         stop-color="#00c03d"
         id="stop46" />
    </linearGradient>
    <linearGradient
       id="f">
      <stop
         offset="0"
         stop-color="#ff4cbd"
         id="stop49" />
      <stop
         offset="1"
         stop-color="#d40086"
         id="stop51" />
    </linearGradient>
    <linearGradient
       id="d">
      <stop
         offset="0"
         stop-color="#ffe95d"
         id="stop54" />
      <stop
         offset="1"
         stop-color="#e3c500"
         id="stop56" />
    </linearGradient>
    <linearGradient
       id="g">
      <stop
         offset="0"
         stop-color="#4394ff"
         id="stop59" />
      <stop
         offset="1"
         stop-color="#0055c4"
         id="stop61" />
    </linearGradient>
    <linearGradient
       xlink:href="#i"
       id="k"
       x1="324"
       x2="324"
       y1="0"
       y2="234"
       gradientTransform="matrix(1,0,0,-1,-407.05042,-114.42657)"
       gradientUnits="userSpaceOnUse" />
    <linearGradient
       xlink:href="#j"
       id="l"
       x1="49.774"
       x2="49.774"
       y1="0"
       y2="234"
       gradientTransform="matrix(1,0,0,0.38666,-407.05042,-204.90357)"
       gradientUnits="userSpaceOnUse" />
    <linearGradient
       inkscape:collect="always"
       xlink:href="#linearGradient3526"
       id="linearGradient145"
       gradientUnits="userSpaceOnUse"
       gradientTransform="matrix(-1,0,0,1,324,5e-6)"
       x1="2e-06"
       y1="234"
       x2="324"
       y2="234" />
    <filter
       inkscape:collect="always"
       style="color-interpolation-filters:sRGB"
       id="filter1205"
       x="-0.097746152"
       width="1.1954923"
       y="-0.098258731"
       height="1.1965175">
      <feGaussianBlur
         inkscape:collect="always"
         stdDeviation="1.5156553"
         id="feGaussianBlur1207" />
    </filter>
    <radialGradient
       inkscape:collect="always"
       xlink:href="#linearGradient1251"
       id="radialGradient1255"
       cx="-467.1998"
       cy="363.05063"
       fx="-467.1998"
       fy="363.05063"
       r="14.771667"
       gradientTransform="matrix(1.7692812,0.03655673,-0.07388295,3.5759328,388.43485,-918.02076)"
       gradientUnits="userSpaceOnUse" />
    <linearGradient
       inkscape:collect="always"
       xlink:href="#linearGradient1288"
       id="linearGradient1282"
       x1="-481.84213"
       y1="354.82483"
       x2="-477.79449"
       y2="379.32458"
       gradientUnits="userSpaceOnUse" />
    <filter
       inkscape:collect="always"
       style="color-interpolation-filters:sRGB"
       id="filter1582"
       x="-0.062720121"
       width="1.1254402"
       y="-0.038416582"
       height="1.0768332">
      <feGaussianBlur
         inkscape:collect="always"
         stdDeviation="0.48608485"
         id="feGaussianBlur1584" />
    </filter>
    <linearGradient
       inkscape:collect="always"
       xlink:href="#linearGradient1213"
       id="linearGradient1613"
       gradientUnits="userSpaceOnUse"
       x1="-486.47736"
       y1="379.83319"
       x2="-486.76816"
       y2="364.14536"
       gradientTransform="matrix(0.90576147,0,0,0.90576147,225.85378,34.45876)" />
    <linearGradient
       inkscape:collect="always"
       xlink:href="#linearGradient1213"
       id="linearGradient1902"
       x1="-485.37775"
       y1="390.57889"
       x2="-485.47745"
       y2="347.95935"
       gradientUnits="userSpaceOnUse"
       gradientTransform="translate(270.18,0.19407)" />
    <radialGradient
       inkscape:collect="always"
       xlink:href="#linearGradient1712"
       id="radialGradient1912"
       cx="-481.64572"
       cy="365.11331"
       fx="-481.64572"
       fy="365.11331"
       r="6.5406093"
       gradientTransform="matrix(1.0914692,0.7189855,-4.5628642,6.9267399,1978.4345,-1820.0131)"
       gradientUnits="userSpaceOnUse" />
    <filter
       inkscape:collect="always"
       style="color-interpolation-filters:sRGB"
       id="filter1942"
       x="-0.65002483"
       width="2.3000497"
       y="-0.24217215"
       height="1.4843443">
      <feGaussianBlur
         inkscape:collect="always"
         stdDeviation="2.2777742"
         id="feGaussianBlur1944" />
    </filter>
    <filter
       inkscape:collect="always"
       style="color-interpolation-filters:sRGB"
       id="filter1205-6"
       x="-0.097746149"
       width="1.1954923"
       y="-0.098258734"
       height="1.1965175">
      <feGaussianBlur
         inkscape:collect="always"
         stdDeviation="1.5156553"
         id="feGaussianBlur1207-0" />
    </filter>
    <radialGradient
       inkscape:collect="always"
       xlink:href="#linearGradient1712"
       id="radialGradient1912-6"
       cx="-481.64572"
       cy="365.11331"
       fx="-481.64572"
       fy="365.11331"
       r="6.5406094"
       gradientTransform="matrix(1.0914692,0.7189855,-4.5628642,6.9267399,1871.518,-1819.8688)"
       gradientUnits="userSpaceOnUse" />
    <filter
       inkscape:collect="always"
       style="color-interpolation-filters:sRGB"
       id="filter1942-7"
       x="-0.65002483"
       width="2.3000498"
       y="-0.24217215"
       height="1.4843442">
      <feGaussianBlur
         inkscape:collect="always"
         stdDeviation="2.2777742"
         id="feGaussianBlur1944-9" />
    </filter>
    <linearGradient
       inkscape:collect="always"
       xlink:href="#linearGradient1213"
       id="linearGradient2023"
       gradientUnits="userSpaceOnUse"
       gradientTransform="matrix(0.90576147,0,0,0.90576147,118.93723,34.60304)"
       x1="-486.47736"
       y1="379.83319"
       x2="-486.76816"
       y2="364.14536" />
    <linearGradient
       inkscape:collect="always"
       xlink:href="#linearGradient1213"
       id="linearGradient2025"
       gradientUnits="userSpaceOnUse"
       x1="-485.37775"
       y1="390.57889"
       x2="-485.47745"
       y2="347.95935"
       gradientTransform="translate(163.26344,0.33834)" />
    <linearGradient
       inkscape:collect="always"
       xlink:href="#linearGradient2305"
       id="linearGradient2307"
       x1="-600.50572"
       y1="394.17753"
       x2="-559.29889"
       y2="393.90869"
       gradientUnits="userSpaceOnUse"
       gradientTransform="translate(321.83601,4.58437)" />
    <filter
       inkscape:collect="always"
       style="color-interpolation-filters:sRGB"
       id="filter2493"
       x="-0.021614179"
       width="1.0432284"
       y="-0.029811143"
       height="1.0596223">
      <feGaussianBlur
         inkscape:collect="always"
         stdDeviation="0.47935668"
         id="feGaussianBlur2495" />
    </filter>
    <radialGradient
       inkscape:collect="always"
       xlink:href="#linearGradient2668"
       id="radialGradient2670"
       cx="-447.64502"
       cy="204.3186"
       fx="-447.64502"
       fy="204.3186"
       r="120.25291"
       gradientTransform="matrix(3.0808894,0.60822316,-0.20243316,1.0254036,1072.7667,478.73312)"
       gradientUnits="userSpaceOnUse" />
    <linearGradient
       inkscape:collect="always"
       xlink:href="#linearGradient2696"
       id="linearGradient2698"
       x1="-176.65744"
       y1="272.56628"
       x2="-400.95419"
       y2="519.0116"
       gradientUnits="userSpaceOnUse" />
    <linearGradient
       inkscape:collect="always"
       xlink:href="#linearGradient2720"
       id="linearGradient2722"
       x1="-291.16235"
       y1="433.52267"
       x2="-292.75574"
       y2="582.29297"
       gradientUnits="userSpaceOnUse" />
    <linearGradient
       inkscape:collect="always"
       xlink:href="#linearGradient2720"
       id="linearGradient2730"
       x1="-231.71875"
       y1="435.36914"
       x2="-236.82812"
       y2="575.72656"
       gradientUnits="userSpaceOnUse" />
    <linearGradient
       inkscape:collect="always"
       xlink:href="#linearGradient2720"
       id="linearGradient2738"
       x1="-187.71875"
       y1="434.88281"
       x2="-197.42188"
       y2="570.97852"
       gradientUnits="userSpaceOnUse" />
    <linearGradient
       inkscape:collect="always"
       xlink:href="#linearGradient2720"
       id="linearGradient2748"
       gradientUnits="userSpaceOnUse"
       x1="-142.80089"
       y1="429.96561"
       x2="-159.79108"
       y2="566.26154" />
    <linearGradient
       inkscape:collect="always"
       xlink:href="#linearGradient2754"
       id="linearGradient2758"
       x1="-333.89453"
       y1="555.55078"
       x2="-360.3515"
       y2="418.86029"
       gradientUnits="userSpaceOnUse" />
    <linearGradient
       inkscape:collect="always"
       xlink:href="#linearGradient2802"
       id="linearGradient2774"
       x1="-317.7832"
       y1="566.75391"
       x2="-337.26541"
       y2="419.53098"
       gradientUnits="userSpaceOnUse" />
    <linearGradient
       inkscape:collect="always"
       xlink:href="#linearGradient2796"
       id="linearGradient2782"
       x1="-310.61328"
       y1="439.66602"
       x2="-303.06641"
       y2="576.875"
       gradientUnits="userSpaceOnUse" />
    <linearGradient
       inkscape:collect="always"
       xlink:href="#linearGradient2696"
       id="linearGradient2927"
       gradientUnits="userSpaceOnUse"
       x1="-142.80089"
       y1="429.96561"
       x2="-159.79108"
       y2="566.26154"
       gradientTransform="matrix(1.0048489,0,0,1.0048489,0.92468014,-3.4526688)" />
    <linearGradient
       inkscape:collect="always"
       xlink:href="#linearGradient2696"
       id="linearGradient3015"
       gradientUnits="userSpaceOnUse"
       x1="-176.65744"
       y1="272.56628"
       x2="-400.95419"
       y2="519.0116" />
    <radialGradient
       inkscape:collect="always"
       xlink:href="#linearGradient2668"
       id="radialGradient3017"
       gradientUnits="userSpaceOnUse"
       gradientTransform="matrix(3.0808894,0.60822316,-0.20243316,1.0254036,1072.7667,478.73312)"
       cx="-447.64502"
       cy="204.3186"
       fx="-447.64502"
       fy="204.3186"
       r="120.25291" />
    <linearGradient
       inkscape:collect="always"
       xlink:href="#linearGradient1213"
       id="linearGradient3019"
       gradientUnits="userSpaceOnUse"
       gradientTransform="matrix(0.90576147,0,0,0.90576147,225.85378,34.45876)"
       x1="-486.47736"
       y1="379.83319"
       x2="-486.76816"
       y2="364.14536" />
    <radialGradient
       inkscape:collect="always"
       xlink:href="#linearGradient1712"
       id="radialGradient3021"
       gradientUnits="userSpaceOnUse"
       gradientTransform="matrix(1.0914692,0.7189855,-4.5628642,6.9267399,1978.4345,-1820.0131)"
       cx="-481.64572"
       cy="365.11331"
       fx="-481.64572"
       fy="365.11331"
       r="6.5406093" />
    <linearGradient
       inkscape:collect="always"
       xlink:href="#linearGradient1213"
       id="linearGradient3023"
       gradientUnits="userSpaceOnUse"
       gradientTransform="translate(270.18,0.19407)"
       x1="-485.37775"
       y1="390.57889"
       x2="-485.47745"
       y2="347.95935" />
    <linearGradient
       inkscape:collect="always"
       xlink:href="#linearGradient2305"
       id="linearGradient3025"
       gradientUnits="userSpaceOnUse"
       gradientTransform="translate(321.83601,4.58437)"
       x1="-600.50572"
       y1="394.17753"
       x2="-559.29889"
       y2="393.90869" />
    <linearGradient
       inkscape:collect="always"
       xlink:href="#linearGradient2720"
       id="linearGradient3027"
       gradientUnits="userSpaceOnUse"
       x1="-142.80089"
       y1="429.96561"
       x2="-159.79108"
       y2="566.26154" />
    <linearGradient
       inkscape:collect="always"
       xlink:href="#linearGradient2720"
       id="linearGradient3029"
       gradientUnits="userSpaceOnUse"
       x1="-231.71875"
       y1="435.36914"
       x2="-236.82812"
       y2="575.72656" />
    <linearGradient
       inkscape:collect="always"
       xlink:href="#linearGradient2720"
       id="linearGradient3031"
       gradientUnits="userSpaceOnUse"
       x1="-291.16235"
       y1="433.52267"
       x2="-292.75574"
       y2="582.29297" />
    <linearGradient
       inkscape:collect="always"
       xlink:href="#linearGradient2796"
       id="linearGradient3033"
       gradientUnits="userSpaceOnUse"
       x1="-310.61328"
       y1="439.66602"
       x2="-303.06641"
       y2="576.875" />
    <linearGradient
       inkscape:collect="always"
       xlink:href="#linearGradient2802"
       id="linearGradient3035"
       gradientUnits="userSpaceOnUse"
       x1="-317.7832"
       y1="566.75391"
       x2="-337.26541"
       y2="419.53098" />
    <linearGradient
       inkscape:collect="always"
       xlink:href="#linearGradient3532"
       id="linearGradient3043"
       gradientUnits="userSpaceOnUse"
       gradientTransform="matrix(-1,0,0,0.69389365,324,5e-6)"
       x1="324"
       y1="0"
       x2="0"
       y2="234" />
    <linearGradient
       inkscape:collect="always"
       xlink:href="#linearGradient3103"
       id="linearGradient145-5"
       gradientUnits="userSpaceOnUse"
       gradientTransform="matrix(-1,0,0,1,323.99988,-2.54175e-4)"
       x1="324"
       y1="0"
       x2="-0.000119"
       y2="234.00027" />
    <linearGradient
       inkscape:collect="always"
       xlink:href="#linearGradient3782"
       id="linearGradient3776"
       x1="4.4803009"
       y1="105.7462"
       x2="321.97354"
       y2="122.35179"
       gradientUnits="userSpaceOnUse"
       gradientTransform="matrix(0.39610999,0,0,0.64060287,196.46306,106.57897)" />
    <linearGradient
       inkscape:collect="always"
       xlink:href="#linearGradient3818"
       id="linearGradient3811"
       gradientUnits="userSpaceOnUse"
       gradientTransform="matrix(0.39610999,0,0,0.64060287,196.46306,83.992215)"
       x1="4.4803009"
       y1="105.7462"
       x2="321.97354"
       y2="122.35179" />
    <linearGradient
       inkscape:collect="always"
       xlink:href="#linearGradient3854"
       id="linearGradient3847"
       gradientUnits="userSpaceOnUse"
       gradientTransform="matrix(0.41795018,0,0,1.3709769,189.43108,37.970044)"
       x1="4.4803009"
       y1="105.7462"
       x2="321.97354"
       y2="122.35179" />
  </defs>
  <path
     fill="url(#k)"
     d="M 324,5e-6 H -2e-6 V 234 H 324 Z"
     id="path68-7"
     style="fill:url(#linearGradient145)" />
  <path
     fill="url(#k)"
     d="M 324,5e-6 H -2e-6 V 162.37112 H 324 Z"
     id="path3039"
     style="fill:url(#linearGradient3043);stroke-width:0.833003;fill-opacity:1" />
  <g
     id="g3013"
     transform="matrix(0.52682807,0,0,0.52682807,297.43854,-105.62848)">
    <path
       id="path1047"
       style="fill:url(#linearGradient3015);fill-opacity:1;stroke:none;stroke-width:1px;stroke-linecap:butt;stroke-linejoin:miter;stroke-opacity:1"
       d="m -220.81055,263.31055 c -6.17794,0.0823 -11.71106,0.74689 -18.08984,2.12109 -6.37878,1.37421 -13.60126,3.45778 -20.88477,6.99219 -7.2835,3.53441 -14.62656,8.52021 -20.87695,14.51953 -6.25039,5.99932 -11.40912,13.01125 -14.9668,18.80859 -3.55767,5.79735 -5.51518,10.37892 -6.75781,13.05664 -1.24262,2.67773 -1.76848,3.45134 -2.75,1.24805 -0.98152,-2.20329 -2.41882,-7.38537 -5.8164,-11.81055 -3.39759,-4.42517 -8.75748,-8.09265 -15.01172,-9.7832 -6.25425,-1.69055 -13.40321,-1.40349 -19.2461,0.0742 -5.84289,1.47771 -10.37813,4.1464 -14.27539,7.6875 -3.89726,3.54109 -7.1552,7.9546 -9.35937,11.60937 -2.20417,3.65478 -3.35427,6.55018 -4.16407,9.61524 -0.8098,3.06505 -1.27974,6.30005 -0.97265,9.42187 0.30708,3.12183 1.38994,6.13028 2.95508,8.71875 1.56513,2.58848 3.61278,4.75741 6.8789,6.75 3.26613,1.99259 7.75011,3.80928 10.96485,4.76758 3.21474,0.95831 5.16044,1.05777 5.90429,1.59766 0.74386,0.53988 0.28788,1.51859 -2.13672,2.14453 -2.42459,0.62594 -6.81894,0.89917 -10.88476,2.13867 -4.06582,1.2395 -7.80154,3.4461 -10.5,5.78125 -2.69846,2.33516 -4.3592,4.79841 -5.29492,8.14258 -0.93573,3.34417 -1.14747,7.56767 -0.26172,11.30859 0.88574,3.74093 2.86814,6.99819 5.22851,9.65235 2.36038,2.65415 5.09792,4.70612 7.23438,6.14453 2.13645,1.43841 3.67172,2.26408 3.89062,3.10156 0.21891,0.83748 -0.87634,1.68735 -1.96093,2.64063 -0.67036,0.58919 -1.47836,1.59732 -2.23243,2.45507 0.38242,0.60415 0.66484,0.87166 1.09375,1.70508 0.51793,1.00639 1.06163,2.19134 1.54102,3.14844 0.47939,0.9571 0.89466,1.68692 1.1543,1.78125 0.25964,0.0943 0.36537,-0.44743 0.42187,-1.21094 0.0565,-0.7635 0.0635,-1.74878 0.13086,-2.54687 0.0674,-0.7981 0.19535,-1.40714 0.37891,-1.86914 0.18355,-0.46201 0.42284,-0.77782 0.71875,-0.98633 0.29591,-0.20851 0.64674,-0.31026 1.04297,-0.26172 0.39622,0.0485 0.83889,0.24779 1.3164,0.64258 0.47751,0.39478 0.99042,0.98367 1.52735,1.81445 0.53692,0.83078 1.09649,1.90344 1.66797,3.26172 1.14295,2.71655 2.33167,6.57864 2.85546,7.14844 0.13095,0.14245 0.22028,0.0795 0.28321,-0.12696 0.0629,-0.2064 0.0983,-0.55466 0.12304,-0.98437 0.0495,-0.85943 0.0532,-2.04159 0.12891,-3.04102 0.0758,-0.99942 0.22437,-1.81614 0.41992,-2.47265 0.19556,-0.65651 0.43771,-1.1512 0.70117,-1.50391 0.26347,-0.35271 0.54797,-0.56399 0.84766,-0.63477 0.29969,-0.0708 0.61599,-0.003 0.94141,0.20313 0.32541,0.20571 0.65956,0.54945 1.0664,1.26172 0.40685,0.71227 0.8858,1.79281 1.4961,3.47851 0.6103,1.68571 1.35229,3.97511 2.05273,5.9004 0.70044,1.92528 1.35926,3.48825 1.80078,3.71874 0.22076,0.11525 0.38701,-0.10302 0.51563,-0.5371 0.12861,-0.43409 0.22023,-1.08483 0.28906,-1.83594 0.13766,-1.50222 0.1866,-3.40676 0.2793,-4.7832 0.0927,-1.37645 0.22861,-2.22407 0.41796,-2.76954 0.18936,-0.54546 0.43202,-0.78773 0.74219,-0.95117 0.31018,-0.16344 0.68772,-0.24871 1.08203,-0.23047 0.39432,0.0182 0.80537,0.13892 1.1875,0.38672 0.38214,0.24781 0.73573,0.62264 1.06446,1.12305 0.32872,0.50041 0.6329,1.12649 0.92187,1.87891 0.57794,1.50482 1.09128,3.51334 1.74219,5.91992 0.32545,1.20328 0.68588,2.50696 1.02148,3.45898 0.33561,0.95202 0.64532,1.55164 0.87305,1.35156 0.22773,-0.20007 0.37372,-1.2002 0.49414,-2.41406 0.12043,-1.21386 0.21571,-2.641 0.34766,-3.6914 0.13194,-1.05041 0.29964,-1.72362 0.5,-2.17383 0.20036,-0.45021 0.43362,-0.67735 0.69726,-0.83203 0.26364,-0.15469 0.55761,-0.23825 0.88672,-0.19532 0.32911,0.0429 0.69438,0.21335 1.09961,0.5625 0.40523,0.34915 0.85112,0.87702 1.3125,1.63477 0.46138,0.75775 0.93749,1.74411 1.4043,3.00781 0.93361,2.52741 1.82806,6.16459 2.36133,7.41797 0.13331,0.31334 0.24372,0.47686 0.33789,0.52148 0.0942,0.0446 0.17142,-0.0295 0.23828,-0.19531 0.13372,-0.33162 0.22478,-1.02599 0.32031,-1.84961 0.19106,-1.64724 0.39997,-3.81266 0.72266,-5.32226 0.16134,-0.7548 0.35136,-1.34617 0.57422,-1.80274 0.22285,-0.45657 0.4795,-0.77828 0.77343,-0.99609 0.29393,-0.21781 0.62525,-0.33044 0.98633,-0.34375 0.36108,-0.0133 0.75207,0.0722 1.16406,0.25391 0.412,0.18169 0.84472,0.45866 1.26953,0.92578 0.42482,0.46711 0.84092,1.1246 1.21876,2.06836 0.75566,1.88751 1.35888,4.91946 1.85546,6.90234 0.2483,0.99144 0.46933,1.7205 0.66993,2.1582 0.20059,0.43771 0.38097,0.58467 0.54492,0.41016 0.32789,-0.34902 0.59313,-1.98119 0.82226,-3.37891 0.22914,-1.39772 0.42161,-2.56107 0.76758,-3.34765 0.17299,-0.3933 0.38524,-0.69161 0.63672,-0.88868 0.25148,-0.19706 0.54172,-0.29272 0.875,-0.27929 0.33328,0.0134 0.70898,0.13604 1.09766,0.41797 0.38868,0.28192 0.79055,0.7221 1.17968,1.375 0.77827,1.30578 1.50412,3.45621 2.09766,5.20703 0.59354,1.75081 1.05545,3.10284 1.36523,3.47656 0.1549,0.18686 0.27111,0.12831 0.4004,-0.082 0.12928,-0.21034 0.2704,-0.57189 0.4746,-0.9961 0.40841,-0.8484 1.06701,-1.94219 1.88672,-3.09179 0.40986,-0.57481 0.86126,-1.16327 1.38086,-1.71875 0.51961,-0.55549 1.10889,-1.07708 1.79688,-1.51758 0.68798,-0.4405 1.47375,-0.8001 2.32617,-1.03711 0.85242,-0.23701 1.77156,-0.35216 2.72266,-0.30469 0.9511,0.0475 1.93486,0.25777 2.89062,0.60742 0.95576,0.34966 1.88384,0.83847 2.72266,1.44532 0.83881,0.60685 1.58826,1.33244 2.24023,2.05664 0.65197,0.7242 1.20566,1.44712 1.65234,2.05469 0.44669,0.60756 0.78532,1.09901 1.06641,1.43164 0.2811,0.33263 0.50548,0.50716 0.71875,0.48242 0.42654,-0.0495 0.816,-0.89615 1.2832,-1.85742 0.46721,-0.96128 1.01091,-2.03735 1.87305,-3.12305 0.86215,-1.0857 2.04114,-2.18052 3.45313,-3.06445 1.41198,-0.88394 3.05622,-1.55731 4.4707,-1.81836 0.70724,-0.13053 1.35775,-0.15741 2.00391,-0.0703 0.64615,0.0871 1.28905,0.28908 1.98242,0.61719 0.69337,0.32812 1.4362,0.78197 2.16015,1.32422 0.72395,0.54226 1.42793,1.17357 2.04102,1.85352 1.22617,1.35988 2.09077,2.91678 2.70703,3.62695 0.30813,0.35508 0.55425,0.49843 0.77344,0.47461 0.21918,-0.0238 0.40996,-0.2137 0.60937,-0.52734 0.39883,-0.6273 0.82848,-1.74554 1.54688,-2.9961 0.3592,-0.62528 0.79101,-1.28449 1.32422,-1.95312 0.5332,-0.66864 1.16744,-1.34844 1.93359,-2.01563 0.76615,-0.66719 1.66324,-1.32124 2.59961,-1.86328 0.93637,-0.54204 1.91327,-0.97083 2.83594,-1.18555 0.92266,-0.21472 1.79197,-0.21482 2.63476,-0.0391 0.84279,0.17576 1.65911,0.52677 2.47461,1.01758 0.81551,0.49081 1.62909,1.12019 2.38867,1.82226 0.75958,0.70207 1.46488,1.47789 2.0586,2.25977 0.59371,0.78188 1.07716,1.57045 1.49804,2.19141 0.42089,0.62095 0.77939,1.07325 1.12305,1.18359 0.34367,0.11034 0.6729,-0.12111 0.9961,-0.52734 0.32319,-0.40624 0.63909,-0.98639 0.95898,-1.57227 0.63979,-1.17176 1.29093,-2.36634 2.39844,-3.57812 0.55375,-0.6059 1.22148,-1.21638 1.94922,-1.76758 0.72773,-0.5512 1.51573,-1.04414 2.30859,-1.41406 0.79286,-0.36993 1.59066,-0.61623 2.40625,-0.72852 0.81559,-0.11229 1.64857,-0.0894 2.51172,0.082 0.86315,0.17143 1.75521,0.49032 2.59765,0.90234 0.84245,0.41203 1.63606,0.91599 2.29688,1.45704 1.32163,1.08208 2.11772,2.31055 2.80469,3.4082 0.34348,0.54882 0.66098,1.06512 0.95703,1.43555 0.29605,0.37042 0.57134,0.59494 0.83594,0.56054 0.26459,-0.0344 0.51786,-0.32806 0.77343,-0.73633 0.25557,-0.40826 0.51454,-0.93127 0.78907,-1.42578 0.54904,-0.98901 1.16336,-1.86201 2.29882,-3.06054 1.13547,-1.19853 2.79074,-2.72167 4.3379,-3.66016 0.77357,-0.46924 1.51962,-0.79308 2.26562,-0.99609 0.746,-0.20302 1.49292,-0.28615 2.26562,-0.27539 0.77271,0.0107 1.57216,0.11568 2.3711,0.40039 0.79894,0.28471 1.59668,0.75047 2.36719,1.48242 0.7705,0.73195 1.51377,1.73009 2.17187,2.74023 0.65811,1.01015 1.23007,2.03261 1.66211,2.81055 0.43204,0.77794 0.7239,1.31183 0.96484,1.61914 0.24095,0.30731 0.43255,0.38744 0.66602,0.25781 0.46694,-0.25924 1.10194,-1.35781 1.99609,-2.7539 0.89416,-1.3961 2.04687,-3.08957 3.3086,-4.36133 0.63086,-0.63588 1.28974,-1.16694 1.96484,-1.61914 0.6751,-0.45221 1.36603,-0.82506 2.06445,-1.14844 0.69843,-0.32338 1.40441,-0.59711 2.11719,-0.78125 0.71279,-0.18414 1.43353,-0.2788 2.16406,-0.24805 0.73054,0.0308 1.46939,0.18766 2.19727,0.47852 0.72788,0.29086 1.44332,0.71486 2.125,1.28125 1.36336,1.13277 2.59074,2.83064 3.45117,4.01562 0.86044,1.18499 1.35387,1.8577 1.7793,1.95703 0.21271,0.0497 0.40916,-0.0441 0.62109,-0.24023 0.21193,-0.19615 0.4405,-0.49492 0.7168,-0.85742 0.55261,-0.72501 1.29798,-1.70358 1.94141,-2.64844 0.64342,-0.94486 1.18379,-1.85673 2.14648,-2.73633 0.96269,-0.8796 2.34786,-1.72545 3.59961,-2.35351 0.62587,-0.31403 1.21796,-0.57424 1.83203,-0.75 0.61407,-0.17576 1.24923,-0.26801 1.96094,-0.24805 0.71171,0.02 1.49931,0.15274 2.30664,0.42188 0.80732,0.26913 1.63565,0.67388 2.42578,1.24218 0.007,0.005 0.0111,0.0129 0.0176,0.0176 -0.0888,-0.24948 -0.0975,-0.48981 -0.20899,-0.74219 -1.16267,-2.63208 -3.70862,-5.44293 -5.42578,-7.05664 -1.71716,-1.6137 -2.60456,-2.02988 -2.04883,-2.53711 0.55574,-0.50723 2.5549,-1.10396 5.20118,-2.79882 2.64628,-1.69487 5.93907,-4.48667 8.32617,-7.60743 2.38709,-3.12076 3.86702,-6.57145 4.44336,-9.90039 0.57634,-3.32894 0.24866,-6.53724 -0.84961,-10.05273 -1.09827,-3.5155 -2.96632,-7.33655 -5.57422,-10.62109 -2.6079,-3.28455 -5.95604,-6.03287 -8.99024,-7.64454 -3.03419,-1.61167 -5.75495,-2.08755 -7.9707,-2.14648 -2.21575,-0.0589 -3.92531,0.29946 -4.5,0.0645 -0.57469,-0.235 -0.013,-1.06273 1.32813,-2.73242 1.34117,-1.66968 3.46107,-4.17959 5.34179,-7.22266 1.88073,-3.04306 3.52163,-6.62063 4.66602,-10.00976 1.14438,-3.38914 1.79221,-6.59001 2.2168,-11.15039 0.42458,-4.56039 0.62648,-10.47984 0.16211,-15.57227 -0.46438,-5.09242 -1.59422,-9.35913 -4.16016,-14.48633 -2.56594,-5.12719 -6.569,-11.11393 -11.54102,-16.4082 -4.97202,-5.29427 -10.91357,-9.89445 -16.8125,-13.22851 -5.89892,-3.33407 -11.7551,-5.40168 -18.09375,-6.68555 -6.33864,-1.28387 -13.15994,-1.78352 -19.33789,-1.70117 z" />
    <path
       style="opacity:1;fill:#fcf9f0;fill-opacity:1;stroke:none;stroke-width:1.06172px;stroke-linecap:butt;stroke-linejoin:miter;stroke-opacity:1;filter:url(#filter2493)"
       d="m -268.55744,378.14611 c 5.7965,0.0118 17.38844,0.0355 24.16082,-0.005 6.77237,-0.0404 8.72515,-0.14465 10.31117,-0.0686 1.58602,0.0761 2.80497,0.3323 3.85097,0.96558 1.046,0.63328 1.91925,1.64273 2.34679,2.8806 0.42754,1.23787 0.41034,2.70415 0.42881,4.97093 0.0185,2.26679 0.0726,5.3339 -0.19405,7.98212 -0.26662,2.64821 -0.85373,4.87775 -2.24809,7.17459 -1.39436,2.29683 -3.59602,4.66152 -5.49729,6.44385 -1.90127,1.78234 -3.50225,2.98239 -5.71886,4.27738 -2.21662,1.29499 -5.04897,2.68493 -8.38563,3.36072 -3.33666,0.6758 -7.17802,0.63719 -10.25383,0.12532 -3.0758,-0.51188 -5.3861,-1.49754 -7.70933,-2.87579 -2.32323,-1.37825 -4.65916,-3.14936 -6.58043,-5.17679 -1.92127,-2.02743 -3.42739,-4.31139 -4.41154,-6.57571 -0.98415,-2.26432 -1.44573,-4.50888 -1.76375,-7.12135 -0.31803,-2.61246 -0.49229,-5.59257 -0.43664,-7.60608 0.0557,-2.01351 0.34147,-3.05992 0.84419,-4.05624 0.50272,-0.99632 1.22224,-1.94193 1.97982,-2.6687 0.75759,-0.72678 1.55281,-1.23434 2.13943,-1.53765 0.58662,-0.30332 0.96413,-0.40236 1.15253,-0.45178 0.1884,-0.0494 0.1884,-0.0494 5.98491,-0.0376 z"
       id="path2246-9"
       inkscape:path-effect="#path-effect2275"
       inkscape:original-d="m -274.35395,378.13428 c 11.59301,0.0247 23.18495,0.0484 34.77583,0.071 1.95393,-0.1032 3.90671,-0.20755 5.85847,-0.31291 1.22005,0.25725 2.439,0.51345 3.6569,0.76858 0.87435,1.01056 1.7476,2.02001 2.61981,3.02842 -0.0161,1.46741 -0.0333,2.93369 -0.0516,4.39894 0.0552,3.06829 0.10927,6.1354 0.16232,9.2015 -0.58608,2.23068 -1.17319,4.46022 -1.76137,6.68874 -2.20069,2.36584 -4.40236,4.73053 -6.60512,7.0942 -1.59998,1.20117 -3.20096,2.40121 -4.80302,3.60023 -2.83143,1.39106 -5.66379,2.78099 -8.49728,4.1699 -3.84046,-0.0376 -7.68182,-0.0761 -11.52432,-0.11581 -2.30932,-0.98463 -4.61962,-1.97028 -6.93101,-2.95701 -2.33497,-1.77013 -4.67091,-3.54123 -7.00795,-5.31344 -1.50512,-2.28299 -3.01124,-4.56694 -4.51845,-6.85201 -0.46053,-2.24358 -0.92211,-4.48814 -1.38476,-6.7338 -0.17321,-2.97916 -0.34748,-5.95927 -0.52281,-8.9405 0.2869,-1.04539 0.57271,-2.0918 0.85748,-3.13928 0.7206,-0.9446 1.44012,-1.89021 2.15858,-2.8369 0.79632,-0.50652 1.59154,-1.01408 2.38571,-1.52271 0.3786,-0.098 0.75612,-0.19702 1.13259,-0.29713 z" />
    <path
       id="path1047-5"
       style="opacity:0.444295;fill:url(#radialGradient3017);fill-opacity:1;stroke:none;stroke-width:1px;stroke-linecap:butt;stroke-linejoin:miter;stroke-opacity:1"
       d="m -220.93868,263.23367 c -6.17794,0.0823 -11.71106,0.74689 -18.08984,2.12109 -6.37878,1.37421 -13.60126,3.45778 -20.88477,6.99219 -7.2835,3.53441 -14.62656,8.52021 -20.87695,14.51953 -6.25039,5.99932 -11.40912,13.01125 -14.9668,18.80859 -3.55767,5.79735 -5.51518,10.37892 -6.75781,13.05664 -1.24262,2.67773 -1.76848,3.45134 -2.75,1.24805 -0.98152,-2.20329 -2.41882,-7.38537 -5.8164,-11.81055 -3.39759,-4.42517 -8.75748,-8.09265 -15.01172,-9.7832 -6.25425,-1.69055 -13.40321,-1.40349 -19.2461,0.0742 -5.84289,1.47771 -10.37813,4.1464 -14.27539,7.6875 -3.89726,3.54109 -7.1552,7.9546 -9.35937,11.60937 -2.20417,3.65478 -3.35427,6.55018 -4.16407,9.61524 -0.8098,3.06505 -1.27974,6.30005 -0.97265,9.42187 0.30708,3.12183 1.38994,6.13028 2.95508,8.71875 1.56513,2.58848 3.61278,4.75741 6.8789,6.75 3.26613,1.99259 7.75011,3.80928 10.96485,4.76758 3.21474,0.95831 5.16044,1.05777 5.90429,1.59766 0.74386,0.53988 0.28788,1.51859 -2.13672,2.14453 -2.42459,0.62594 -6.81894,0.89917 -10.88476,2.13867 -4.06582,1.2395 -7.80154,3.4461 -10.5,5.78125 -2.69846,2.33516 -4.3592,4.79841 -5.29492,8.14258 -0.93573,3.34417 -1.14747,7.56767 -0.26172,11.30859 0.88574,3.74093 2.86814,6.99819 5.22851,9.65235 2.36038,2.65415 5.09792,4.70612 7.23438,6.14453 2.13645,1.43841 3.67172,2.26408 3.89062,3.10156 0.21891,0.83748 -0.87634,1.68735 -1.96093,2.64063 -0.67036,0.58919 -1.47836,1.59732 -2.23243,2.45507 0.38242,0.60415 0.66484,0.87166 1.09375,1.70508 0.51793,1.00639 1.06163,2.19134 1.54102,3.14844 0.47939,0.9571 0.89466,1.68692 1.1543,1.78125 0.25964,0.0943 0.36537,-0.44743 0.42187,-1.21094 0.0565,-0.7635 0.0635,-1.74878 0.13086,-2.54687 0.0674,-0.7981 0.19535,-1.40714 0.37891,-1.86914 0.18355,-0.46201 0.42284,-0.77782 0.71875,-0.98633 0.29591,-0.20851 0.64674,-0.31026 1.04297,-0.26172 0.39622,0.0485 0.83889,0.24779 1.3164,0.64258 0.47751,0.39478 0.99042,0.98367 1.52735,1.81445 0.53692,0.83078 1.09649,1.90344 1.66797,3.26172 1.14295,2.71655 2.33167,6.57864 2.85546,7.14844 0.13095,0.14245 0.22028,0.0795 0.28321,-0.12696 0.0629,-0.2064 0.0983,-0.55466 0.12304,-0.98437 0.0495,-0.85943 0.0532,-2.04159 0.12891,-3.04102 0.0758,-0.99942 0.22437,-1.81614 0.41992,-2.47265 0.19556,-0.65651 0.43771,-1.1512 0.70117,-1.50391 0.26347,-0.35271 0.54797,-0.56399 0.84766,-0.63477 0.29969,-0.0708 0.61599,-0.003 0.94141,0.20313 0.32541,0.20571 0.65956,0.54945 1.0664,1.26172 0.40685,0.71227 0.8858,1.79281 1.4961,3.47851 0.6103,1.68571 1.35229,3.97511 2.05273,5.9004 0.70044,1.92528 1.35926,3.48825 1.80078,3.71874 0.22076,0.11525 0.38701,-0.10302 0.51563,-0.5371 0.12861,-0.43409 0.22023,-1.08483 0.28906,-1.83594 0.13766,-1.50222 0.1866,-3.40676 0.2793,-4.7832 0.0927,-1.37645 0.22861,-2.22407 0.41796,-2.76954 0.18936,-0.54546 0.43202,-0.78773 0.74219,-0.95117 0.31018,-0.16344 0.68772,-0.24871 1.08203,-0.23047 0.39432,0.0182 0.80537,0.13892 1.1875,0.38672 0.38214,0.24781 0.73573,0.62264 1.06446,1.12305 0.32872,0.50041 0.6329,1.12649 0.92187,1.87891 0.57794,1.50482 1.09128,3.51334 1.74219,5.91992 0.32545,1.20328 0.68588,2.50696 1.02148,3.45898 0.33561,0.95202 0.64532,1.55164 0.87305,1.35156 0.22773,-0.20007 0.37372,-1.2002 0.49414,-2.41406 0.12043,-1.21386 0.21571,-2.641 0.34766,-3.6914 0.13194,-1.05041 0.29964,-1.72362 0.5,-2.17383 0.20036,-0.45021 0.43362,-0.67735 0.69726,-0.83203 0.26364,-0.15469 0.55761,-0.23825 0.88672,-0.19532 0.32911,0.0429 0.69438,0.21335 1.09961,0.5625 0.40523,0.34915 0.85112,0.87702 1.3125,1.63477 0.46138,0.75775 0.93749,1.74411 1.4043,3.00781 0.93361,2.52741 1.82806,6.16459 2.36133,7.41797 0.13331,0.31334 0.24372,0.47686 0.33789,0.52148 0.0942,0.0446 0.17142,-0.0295 0.23828,-0.19531 0.13372,-0.33162 0.22478,-1.02599 0.32031,-1.84961 0.19106,-1.64724 0.39997,-3.81266 0.72266,-5.32226 0.16134,-0.7548 0.35136,-1.34617 0.57422,-1.80274 0.22285,-0.45657 0.4795,-0.77828 0.77343,-0.99609 0.29393,-0.21781 0.62525,-0.33044 0.98633,-0.34375 0.36108,-0.0133 0.75207,0.0722 1.16406,0.25391 0.412,0.18169 0.84472,0.45866 1.26953,0.92578 0.42482,0.46711 0.84092,1.1246 1.21876,2.06836 0.75566,1.88751 1.35888,4.91946 1.85546,6.90234 0.2483,0.99144 0.46933,1.7205 0.66993,2.1582 0.20059,0.43771 0.38097,0.58467 0.54492,0.41016 0.32789,-0.34902 0.59313,-1.98119 0.82226,-3.37891 0.22914,-1.39772 0.42161,-2.56107 0.76758,-3.34765 0.17299,-0.3933 0.38524,-0.69161 0.63672,-0.88868 0.25148,-0.19706 0.54172,-0.29272 0.875,-0.27929 0.33328,0.0134 0.70898,0.13604 1.09766,0.41797 0.38868,0.28192 0.79055,0.7221 1.17968,1.375 0.77827,1.30578 1.50412,3.45621 2.09766,5.20703 0.59354,1.75081 1.05545,3.10284 1.36523,3.47656 0.1549,0.18686 0.27111,0.12831 0.4004,-0.082 0.12928,-0.21034 0.2704,-0.57189 0.4746,-0.9961 0.40841,-0.8484 1.06701,-1.94219 1.88672,-3.09179 0.40986,-0.57481 0.86126,-1.16327 1.38086,-1.71875 0.51961,-0.55549 1.10889,-1.07708 1.79688,-1.51758 0.68798,-0.4405 1.47375,-0.8001 2.32617,-1.03711 0.85242,-0.23701 1.77156,-0.35216 2.72266,-0.30469 0.9511,0.0475 1.93486,0.25777 2.89062,0.60742 0.95576,0.34966 1.88384,0.83847 2.72266,1.44532 0.83881,0.60685 1.58826,1.33244 2.24023,2.05664 0.65197,0.7242 1.20566,1.44712 1.65234,2.05469 0.44669,0.60756 0.78532,1.09901 1.06641,1.43164 0.2811,0.33263 0.50548,0.50716 0.71875,0.48242 0.42654,-0.0495 0.816,-0.89615 1.2832,-1.85742 0.46721,-0.96128 1.01091,-2.03735 1.87305,-3.12305 0.86215,-1.0857 2.04114,-2.18052 3.45313,-3.06445 1.41198,-0.88394 3.05622,-1.55731 4.4707,-1.81836 0.70724,-0.13053 1.35775,-0.15741 2.00391,-0.0703 0.64615,0.0871 1.28905,0.28908 1.98242,0.61719 0.69337,0.32812 1.4362,0.78197 2.16015,1.32422 0.72395,0.54226 1.42793,1.17357 2.04102,1.85352 1.22617,1.35988 2.09077,2.91678 2.70703,3.62695 0.30813,0.35508 0.55425,0.49843 0.77344,0.47461 0.21918,-0.0238 0.40996,-0.2137 0.60937,-0.52734 0.39883,-0.6273 0.82848,-1.74554 1.54688,-2.9961 0.3592,-0.62528 0.79101,-1.28449 1.32422,-1.95312 0.5332,-0.66864 1.16744,-1.34844 1.93359,-2.01563 0.76615,-0.66719 1.66324,-1.32124 2.59961,-1.86328 0.93637,-0.54204 1.91327,-0.97083 2.83594,-1.18555 0.92266,-0.21472 1.79197,-0.21482 2.63476,-0.0391 0.84279,0.17576 1.65911,0.52677 2.47461,1.01758 0.81551,0.49081 1.62909,1.12019 2.38867,1.82226 0.75958,0.70207 1.46488,1.47789 2.0586,2.25977 0.59371,0.78188 1.07716,1.57045 1.49804,2.19141 0.42089,0.62095 0.77939,1.07325 1.12305,1.18359 0.34367,0.11034 0.6729,-0.12111 0.9961,-0.52734 0.32319,-0.40624 0.63909,-0.98639 0.95898,-1.57227 0.63979,-1.17176 1.29093,-2.36634 2.39844,-3.57812 0.55375,-0.6059 1.22148,-1.21638 1.94922,-1.76758 0.72773,-0.5512 1.51573,-1.04414 2.30859,-1.41406 0.79286,-0.36993 1.59066,-0.61623 2.40625,-0.72852 0.81559,-0.11229 1.64857,-0.0894 2.51172,0.082 0.86315,0.17143 1.75521,0.49032 2.59765,0.90234 0.84245,0.41203 1.63606,0.91599 2.29688,1.45704 1.32163,1.08208 2.11772,2.31055 2.80469,3.4082 0.34348,0.54882 0.66098,1.06512 0.95703,1.43555 0.29605,0.37042 0.57134,0.59494 0.83594,0.56054 0.26459,-0.0344 0.51786,-0.32806 0.77343,-0.73633 0.25557,-0.40826 0.51454,-0.93127 0.78907,-1.42578 0.54904,-0.98901 1.16336,-1.86201 2.29882,-3.06054 1.13547,-1.19853 2.79074,-2.72167 4.3379,-3.66016 0.77357,-0.46924 1.51962,-0.79308 2.26562,-0.99609 0.746,-0.20302 1.49292,-0.28615 2.26562,-0.27539 0.77271,0.0107 1.57216,0.11568 2.3711,0.40039 0.79894,0.28471 1.59668,0.75047 2.36719,1.48242 0.7705,0.73195 1.51377,1.73009 2.17187,2.74023 0.65811,1.01015 1.23007,2.03261 1.66211,2.81055 0.43204,0.77794 0.7239,1.31183 0.96484,1.61914 0.24095,0.30731 0.43255,0.38744 0.66602,0.25781 0.46694,-0.25924 1.10194,-1.35781 1.99609,-2.7539 0.89416,-1.3961 2.04687,-3.08957 3.3086,-4.36133 0.63086,-0.63588 1.28974,-1.16694 1.96484,-1.61914 0.6751,-0.45221 1.36603,-0.82506 2.06445,-1.14844 0.69843,-0.32338 1.40441,-0.59711 2.11719,-0.78125 0.71279,-0.18414 1.43353,-0.2788 2.16406,-0.24805 0.73054,0.0308 1.46939,0.18766 2.19727,0.47852 0.72788,0.29086 1.44332,0.71486 2.125,1.28125 1.36336,1.13277 2.59074,2.83064 3.45117,4.01562 0.86044,1.18499 1.35387,1.8577 1.7793,1.95703 0.21271,0.0497 0.40916,-0.0441 0.62109,-0.24023 0.21193,-0.19615 0.4405,-0.49492 0.7168,-0.85742 0.55261,-0.72501 1.29798,-1.70358 1.94141,-2.64844 0.64342,-0.94486 1.18379,-1.85673 2.14648,-2.73633 0.96269,-0.8796 2.34786,-1.72545 3.59961,-2.35351 0.62587,-0.31403 1.21796,-0.57424 1.83203,-0.75 0.61407,-0.17576 1.24923,-0.26801 1.96094,-0.24805 0.71171,0.02 1.49931,0.15274 2.30664,0.42188 0.80732,0.26913 1.63565,0.67388 2.42578,1.24218 0.007,0.005 0.0111,0.0129 0.0176,0.0176 -0.0888,-0.24948 -0.0975,-0.48981 -0.20899,-0.74219 -1.16267,-2.63208 -3.70862,-5.44293 -5.42578,-7.05664 -1.71716,-1.6137 -2.60456,-2.02988 -2.04883,-2.53711 0.55574,-0.50723 2.5549,-1.10396 5.20118,-2.79882 2.64628,-1.69487 5.93907,-4.48667 8.32617,-7.60743 2.38709,-3.12076 3.86702,-6.57145 4.44336,-9.90039 0.57634,-3.32894 0.24866,-6.53724 -0.84961,-10.05273 -1.09827,-3.5155 -2.96632,-7.33655 -5.57422,-10.62109 -2.6079,-3.28455 -5.95604,-6.03287 -8.99024,-7.64454 -3.03419,-1.61167 -5.75495,-2.08755 -7.9707,-2.14648 -2.21575,-0.0589 -3.92531,0.29946 -4.5,0.0645 -0.57469,-0.235 -0.013,-1.06273 1.32813,-2.73242 1.34117,-1.66968 3.46107,-4.17959 5.34179,-7.22266 1.88073,-3.04306 3.52163,-6.62063 4.66602,-10.00976 1.14438,-3.38914 1.79221,-6.59001 2.2168,-11.15039 0.42458,-4.56039 0.62648,-10.47984 0.16211,-15.57227 -0.46438,-5.09242 -1.59422,-9.35913 -4.16016,-14.48633 -2.56594,-5.12719 -6.569,-11.11393 -11.54102,-16.4082 -4.97202,-5.29427 -10.91357,-9.89445 -16.8125,-13.22851 -5.89892,-3.33407 -11.7551,-5.40168 -18.09375,-6.68555 -6.33864,-1.28387 -13.15994,-1.78352 -19.33789,-1.70117 z" />
    <ellipse
       style="fill:#fcf9f0;fill-opacity:1;stroke:none;stroke-width:1.18;filter:url(#filter1205)"
       id="ellipse1123"
       cx="-199.82683"
       cy="364.12061"
       rx="18.607243"
       ry="18.510176" />
    <ellipse
       style="fill:url(#linearGradient3019);fill-opacity:1;stroke:none;stroke-width:0.938025"
       id="path1121-7"
       cx="-200.18217"
       cy="363.78967"
       rx="14.551605"
       ry="14.956858" />
    <path
       style="fill:url(#radialGradient3021);fill-opacity:1;stroke:#6b1c21;stroke-width:1px;stroke-linecap:butt;stroke-linejoin:miter;stroke-opacity:0;filter:url(#filter1942)"
       d="m -206.13019,355.26396 c -0.30599,1.99104 -1.84748,5.37894 -2.34344,8.17527 -0.49597,2.79633 0.0531,5.00027 0.65518,6.86747 0.60212,1.86721 1.25707,3.39754 1.24674,4.33197 -0.0103,0.93443 -0.6858,1.27432 -2.04413,0.16479 -1.35833,-1.10953 -3.39991,-3.66968 -4.56972,-6.11116 -1.16981,-2.44149 -1.46708,-4.76417 -1.21033,-6.87984 0.25675,-2.11568 1.06783,-4.02359 2.2785,-5.61073 1.21067,-1.58715 2.82051,-2.85284 4.09142,-3.18805 1.27091,-0.3352 2.20177,0.25925 1.89578,2.25028 z"
       id="path1696"
       inkscape:path-effect="#path-effect1698"
       inkscape:original-d="m -204.89449,353.86665 c -1.54048,3.3889 -3.08197,6.7768 -4.62446,10.1637 0.55006,2.20503 1.09909,4.40897 1.64713,6.61195 0.65597,1.5314 1.31092,3.06173 1.96488,4.5911 -0.6745,0.3409 -1.34997,0.68079 -2.02645,1.01968 -2.04066,-2.55925 -4.08224,-5.11939 -6.12485,-7.68059 -0.29628,-2.32179 -0.59354,-4.64447 -0.89181,-6.96821 0.81212,-1.90698 1.6232,-3.81489 2.43329,-5.72384 1.61091,-1.26475 3.22075,-2.53045 4.82963,-3.79718 0.9319,0.59548 1.86276,1.18993 2.79264,1.78339 z" />
    <ellipse
       style="fill:none;fill-opacity:1;stroke:url(#linearGradient3023);stroke-width:1.169;stroke-miterlimit:4;stroke-dasharray:none;stroke-opacity:1"
       id="path1121"
       cx="-200.10704"
       cy="363.75058"
       rx="14.605905"
       ry="15.01267" />
    <ellipse
       style="opacity:1;fill:#ffffff;fill-opacity:1;stroke:none;stroke-width:1.169;stroke-miterlimit:4;stroke-dasharray:none;stroke-opacity:1"
       id="path1946"
       cx="-194.69933"
       cy="357.202"
       rx="5.22084"
       ry="5.4941616" />
    <ellipse
       style="fill:#fcf9f0;fill-opacity:1;stroke:none;stroke-width:1.18;filter:url(#filter1205-6)"
       id="ellipse1123-2"
       cx="-306.74341"
       cy="364.26489"
       rx="18.607243"
       ry="18.510176" />
    <ellipse
       style="fill:url(#linearGradient2023);fill-opacity:1;stroke:none;stroke-width:0.938025"
       id="path1121-7-0"
       cx="-307.09875"
       cy="363.93396"
       rx="14.551605"
       ry="14.956858" />
    <path
       style="fill:url(#radialGradient1912-6);fill-opacity:1;stroke:#6b1c21;stroke-width:1px;stroke-linecap:butt;stroke-linejoin:miter;stroke-opacity:0;filter:url(#filter1942-7)"
       d="m -313.04675,355.40824 c -0.30599,1.99104 -1.84748,5.37894 -2.34344,8.17527 -0.49597,2.79633 0.0531,5.00027 0.65518,6.86747 0.60212,1.86721 1.25707,3.39754 1.24674,4.33197 -0.0103,0.93443 -0.6858,1.27432 -2.04413,0.16479 -1.35833,-1.10953 -3.39991,-3.66968 -4.56972,-6.11116 -1.16981,-2.44149 -1.46708,-4.76417 -1.21033,-6.87984 0.25675,-2.11568 1.06783,-4.02359 2.2785,-5.61073 1.21067,-1.58715 2.82051,-2.85284 4.09142,-3.18805 1.27091,-0.3352 2.20177,0.25925 1.89578,2.25028 z"
       id="path1696-2"
       inkscape:path-effect="#path-effect2021"
       inkscape:original-d="m -311.81105,354.01093 c -1.54048,3.3889 -3.08197,6.7768 -4.62446,10.1637 0.55006,2.20503 1.09909,4.40897 1.64713,6.61195 0.65597,1.5314 1.31092,3.06173 1.96488,4.5911 -0.6745,0.3409 -1.34997,0.68079 -2.02645,1.01968 -2.04066,-2.55925 -4.08224,-5.11939 -6.12485,-7.68059 -0.29628,-2.32179 -0.59354,-4.64447 -0.89181,-6.96821 0.81212,-1.90698 1.6232,-3.81489 2.43329,-5.72384 1.61091,-1.26475 3.22075,-2.53045 4.82963,-3.79718 0.9319,0.59548 1.86276,1.18993 2.79264,1.78339 z" />
    <ellipse
       style="fill:none;fill-opacity:1;stroke:url(#linearGradient2025);stroke-width:1.169;stroke-miterlimit:4;stroke-dasharray:none;stroke-opacity:1"
       id="path1121-3"
       cx="-307.02362"
       cy="363.89487"
       rx="14.605905"
       ry="15.01267" />
    <ellipse
       style="fill:#ffffff;fill-opacity:1;stroke:none;stroke-width:1.169;stroke-miterlimit:4;stroke-dasharray:none;stroke-opacity:1"
       id="path1946-7"
       cx="-301.61591"
       cy="357.34628"
       rx="5.22084"
       ry="5.4941616" />
    <path
       id="path2246-97"
       style="fill:#1c2833;fill-opacity:1;stroke:none;stroke-width:1px;stroke-linecap:butt;stroke-linejoin:miter;stroke-opacity:1"
       d="m -236.04485,379.1039 c -1.44627,-8.5e-4 -3.67694,0.0613 -8.46094,0.0898 -6.37866,0.038 -17.29828,0.0169 -22.75781,0.006 -5.45953,-0.0111 -5.45927,-0.0114 -5.63672,0.0352 -0.17744,0.0465 -0.53147,0.1401 -1.08398,0.42578 -0.55252,0.28569 -1.30208,0.76275 -2.01563,1.44727 -0.71354,0.68452 -1.39174,1.57527 -1.86523,2.51367 -0.11864,0.23512 -0.18455,0.52271 -0.27735,0.77734 -0.27754,0.76163 -0.4783,1.62169 -0.51757,3.04297 -0.0524,1.89646 0.11256,4.70347 0.4121,7.16406 0.29953,2.46059 0.73322,4.57434 1.66016,6.70703 0.92694,2.13268 2.34472,4.28379 4.1543,6.19336 1.80958,1.90956 4.01105,3.57883 6.19922,4.87696 2.18817,1.29812 4.36277,2.22491 7.25976,2.70703 2.897,0.48212 6.51552,0.51932 9.6582,-0.11719 3.14269,-0.63651 5.81069,-1.94631 7.89844,-3.16602 1.39952,-0.81763 2.47308,-1.76981 3.61133,-2.69921 0.55976,-0.45705 1.18507,-0.77473 1.77539,-1.32813 1.79074,-1.67872 3.86444,-3.907 5.17774,-6.07031 1.3133,-2.16331 1.86606,-4.26355 2.11718,-6.75781 0.25112,-2.49427 0.201,-5.38257 0.1836,-7.51758 -0.0174,-2.13501 -0.002,-3.51574 -0.4043,-4.68164 -0.40268,-1.16591 -1.22574,-2.11643 -2.21094,-2.71289 -0.98519,-0.59647 -2.13313,-0.83848 -3.62695,-0.91016 -0.37346,-0.0179 -0.76791,-0.0251 -1.25,-0.0254 z" />
    <path
       id="path2246"
       style="opacity:1;fill:url(#linearGradient3025);fill-opacity:1;stroke:none;stroke-width:1px;stroke-linecap:butt;stroke-linejoin:miter;stroke-opacity:1"
       d="m -237.80657,409.10781 c 1.07036,-1.31002 2.19231,-2.64973 3.04102,-3.83789 1.26219,-1.76703 2.15667,-3.33134 2.72265,-4.4375 0.28299,-0.55308 0.48427,-0.99167 0.63282,-1.62696 0.14854,-0.63529 0.24423,-1.46695 0.3164,-2.80664 0.14435,-2.67938 0.19345,-7.38976 0.12696,-9.94726 -0.0665,-2.55751 -0.24934,-2.96266 -0.45313,-3.24805 -0.20379,-0.28539 -0.42877,-0.45071 -0.64453,-0.58594 -0.21576,-0.13523 -0.4234,-0.24029 -7.35156,-0.35937 -6.92816,-0.11909 -20.57672,-0.25289 -27.82813,-0.14844 -3.6257,0.0522 -5.65276,0.16519 -6.9043,0.34375 -1.25153,0.17856 -1.72777,0.42266 -2.25585,0.74219 -0.61815,0.37402 -1.14282,0.77678 -1.73829,1.20312 -0.27754,0.76163 -0.47829,1.62169 -0.51757,3.04297 -0.0524,1.89646 0.11257,4.70347 0.41211,7.16406 0.29953,2.46059 0.73321,4.57435 1.66015,6.70704 0.92694,2.13268 2.34472,4.28379 4.1543,6.19336 1.80958,1.90956 4.01105,3.57882 6.19922,4.87695 2.18817,1.29812 4.36277,2.22491 7.25976,2.70703 2.897,0.48212 6.51552,0.51932 9.65821,-0.11719 3.14268,-0.63651 5.81068,-1.9463 7.89843,-3.16601 1.39952,-0.81763 2.47308,-1.76982 3.61133,-2.69922 z" />
    <path
       id="path2278"
       style="opacity:1;fill:#4b0101;fill-opacity:1;stroke:none;stroke-width:1px;stroke-linecap:butt;stroke-linejoin:miter;stroke-opacity:1"
       d="m -234.79485,379.12929 c -1.49382,-0.0717 -3.33227,0.0265 -9.71094,0.0645 -6.37866,0.038 -17.29828,0.017 -22.75781,0.006 -5.45953,-0.0111 -5.45927,-0.0114 -5.63672,0.0352 -0.17744,0.0465 -0.53147,0.1401 -1.08398,0.42578 -0.55252,0.28569 -1.30208,0.76275 -2.01563,1.44727 -0.71354,0.68452 -1.39174,1.57527 -1.86523,2.51367 -0.11864,0.23512 -0.18455,0.52271 -0.27735,0.77734 0.59547,-0.42634 1.12014,-0.8291 1.73829,-1.20312 0.52808,-0.31953 1.00432,-0.56363 2.25585,-0.74219 1.25154,-0.17856 3.2786,-0.29152 6.9043,-0.34375 7.25141,-0.10445 20.89997,0.0294 27.82813,0.14844 6.92816,0.11908 7.1358,0.22414 7.35156,0.35937 0.21576,0.13523 0.44074,0.30055 0.64453,0.58594 0.20379,0.28539 0.38664,0.69054 0.45313,3.24805 0.0665,2.5575 0.0174,7.26788 -0.12696,9.94726 -0.0722,1.33969 -0.16786,2.17135 -0.3164,2.80664 -0.14855,0.63529 -0.34983,1.07388 -0.63282,1.62696 -0.56598,1.10616 -1.46046,2.67047 -2.72265,4.4375 -0.84871,1.18816 -1.97066,2.52787 -3.04102,3.83789 0.55976,-0.45705 1.18507,-0.77473 1.77539,-1.32813 1.79074,-1.67872 3.86444,-3.907 5.17774,-6.07031 1.3133,-2.16331 1.86606,-4.26355 2.11718,-6.75781 0.25112,-2.49427 0.201,-5.38257 0.1836,-7.51758 -0.0174,-2.13501 -0.002,-3.51574 -0.4043,-4.68164 -0.40268,-1.16591 -1.22574,-2.11643 -2.21094,-2.71289 -0.98519,-0.59647 -2.13313,-0.83848 -3.62695,-0.91016 z" />
    <path
       id="path991-7"
       style="fill:url(#linearGradient2927);fill-opacity:1;stroke:none;stroke-width:1.00484px;stroke-linecap:butt;stroke-linejoin:miter;stroke-opacity:1"
       d="m -348.42188,544.69141 c 0.93591,0.85583 2.51072,2.08929 6.35352,4.83203 0.94716,0.67608 1.05578,0.78692 2.31641,1.67773 1.30748,0.92385 3.45007,2.39886 5.16211,3.58985 2.82851,1.9677 5.47055,3.81263 8.53125,5.93359 2.74727,1.90375 4.92615,3.43446 7.6582,5.32422 2.62707,1.81717 4.99046,3.48773 7.36523,5.12109 1.8469,1.27028 4.24026,2.97268 5.72657,3.98242 0.93712,0.63666 0.92747,0.55273 1.69726,1.06641 3.36284,2.24409 6.09256,4.03814 7.41406,4.66797 1.26159,0.60126 2.05724,0.77352 2.9375,0.77734 1.3151,0.006 10.42613,-1.13859 17.57227,-2.00195 3.79333,-0.45828 1.71397,-0.141 9.32812,-1.06445 2.38113,-0.28878 6.1554,-0.73951 9.0918,-1.09375 6.52818,-0.78747 13.05129,-1.57529 20.21485,-2.4375 6.51041,-0.78359 11.82702,-1.42723 18.37304,-2.21485 7.56276,-0.90994 14.43532,-1.73915 21.22461,-2.55664 4.7798,-0.5755 11.2177,-1.35086 14.94336,-1.80078 1.60897,-0.19426 1.50855,-0.19599 2.88867,-0.36328 16.55121,-2.00617 18.88119,-2.34088 19.34961,-2.91992 0.50753,-0.62726 0.69711,-1.74926 3.66797,-24.44532 2.97088,-22.6961 8.72438,-66.96365 11.56836,-89.54296 2.84397,-22.5794 2.77872,-23.47137 2.02734,-24.8125 -0.75137,-1.34123 -2.19139,-3.13328 -3.77929,-4.27539 -1.58792,-1.1421 -3.32359,-1.63184 -4.75391,-1.67188 -1.43032,-0.0399 -2.55468,0.37081 -3.8125,1.00195 -1.2578,0.63104 -2.64981,1.48145 -3.61719,2.36524 -0.96735,0.88389 -1.50974,1.80052 -2.15625,2.75 -0.64657,0.94947 -1.39587,1.93162 -1.95117,2.66015 -0.53879,0.70689 -0.89549,1.15392 -1.30664,1.08985 -0.0125,-0.002 -0.0245,0.0166 -0.0371,0.0137 -0.42749,-0.0994 -0.9225,-0.77609 -1.78711,-1.9668 -0.86461,-1.19071 -2.09878,-2.89688 -3.46875,-4.03515 -1.36998,-1.13827 -2.87559,-1.70575 -4.34375,-1.76758 -1.46813,-0.0615 -2.89716,0.38325 -4.30078,1.0332 -1.40362,0.64986 -2.781,1.50333 -4.04883,2.78125 -1.26787,1.27792 -2.42766,2.97989 -3.32617,4.38281 -0.89847,1.4028 -1.53663,2.50713 -2.00586,2.76758 -0.008,0.005 -0.0152,-0.0134 -0.0234,-0.01 -0.45523,0.22639 -0.76235,-0.34128 -1.61523,-1.87696 -0.86826,-1.56339 -2.30307,-4.10717 -3.85156,-5.57812 -1.54848,-1.47105 -3.20881,-1.86902 -4.76172,-1.89063 -1.55289,-0.0215 -2.99808,0.3343 -4.55274,1.27735 -1.55467,0.94301 -3.21839,2.47337 -4.35937,3.67773 -1.14097,1.20436 -1.75884,2.08044 -2.31055,3.07422 -0.55169,0.99386 -1.03658,2.10471 -1.56836,2.17383 -0.18529,0.024 -0.38833,-0.2023 -0.58789,-0.39258 -0.37317,-0.35563 -0.76507,-0.89461 -1.21484,-1.61328 -0.69027,-1.10293 -1.4903,-2.33842 -2.81836,-3.42578 -1.32805,-1.08732 -3.18331,-2.02464 -4.91797,-2.36914 -1.73467,-0.3445 -3.34799,-0.0946 -4.94141,0.64844 -1.59342,0.74337 -3.16642,1.97961 -4.27929,3.19726 -1.11287,1.21761 -1.76727,2.41822 -2.41016,3.5957 -0.64291,1.17737 -1.27415,2.33117 -1.96484,2.10938 -0.0512,-0.0164 -0.1157,-0.1445 -0.16797,-0.17578 -0.64935,-0.38787 -1.36058,-1.76057 -2.46484,-3.21485 -1.19319,-1.57128 -2.82981,-3.11515 -4.46876,-4.10156 -1.63892,-0.9864 -3.28051,-1.4159 -5.13476,-0.98437 -1.85432,0.43154 -3.92117,1.72358 -5.46094,3.06445 -1.53974,1.34086 -2.55158,2.73166 -3.27344,3.98828 -0.72186,1.25661 -1.15387,2.37938 -1.55468,3.00977 -0.33488,0.52677 -0.67948,0.58196 -1.13477,0.21093 -0.0891,-0.0726 -0.1541,-0.0408 -0.25586,-0.1582 -0.61925,-0.71358 -1.48664,-2.27805 -2.71875,-3.64453 -1.23212,-1.36649 -2.82921,-2.53393 -4.22265,-3.19336 -1.39345,-0.65942 -2.58451,-0.81111 -4.00586,-0.54883 -1.4213,0.26236 -3.07338,0.93794 -4.49219,1.82617 -1.41881,0.88822 -2.60242,1.9891 -3.46875,3.08008 -0.86632,1.09098 -1.41329,2.17277 -1.88281,3.13867 -0.4694,0.96589 -0.86048,1.81554 -1.28907,1.86524 -0.0511,0.006 -0.1207,-0.0991 -0.17382,-0.11524 -0.39041,-0.12112 -0.83084,-0.73175 -1.6211,-1.80664 -0.89765,-1.22096 -2.22439,-2.91317 -3.91015,-4.13281 -1.68576,-1.21953 -3.72919,-1.96711 -5.64063,-2.0625 -1.91143,-0.0951 -3.69159,0.46431 -5.07422,1.34961 -1.38264,0.8853 -2.36963,2.09675 -3.19336,3.25195 -0.8237,1.15512 -1.48414,2.25295 -1.89453,3.10547 -0.41038,0.85249 -0.56963,1.45958 -0.88086,1.08399 -0.15758,-0.19006 -0.46009,-1.14921 -0.69336,-1.76758 -0.22753,-0.60325 -0.38325,-0.85786 -0.67773,-1.72656 -0.59646,-1.75929 -1.3254,-3.91841 -2.10742,-5.23047 -0.782,-1.31216 -1.61932,-1.77577 -2.28907,-1.80274 -0.66986,-0.0269 -1.17191,0.38339 -1.51953,1.17383 -0.34762,0.79043 -0.53929,1.95874 -0.76953,3.36328 -0.23023,1.40443 -0.49672,3.04574 -0.82617,3.39649 -0.0131,0.0139 -0.0316,-0.043 -0.0449,-0.0332 -0.32122,0.23854 -0.69663,-0.63563 -1.17578,-2.54882 -0.49895,-1.99246 -1.10594,-5.03891 -1.86524,-6.93555 -0.75941,-1.89665 -1.67205,-2.64274 -2.5,-3.00781 -0.82795,-0.36517 -1.57138,-0.34736 -2.16211,0.0898 -0.59072,0.43771 -1.02928,1.29563 -1.35351,2.8125 -0.32424,1.51697 -0.53463,3.69239 -0.72657,5.34766 -0.19199,1.65527 -0.36449,2.79068 -0.90039,1.53125 -0.0546,-0.129 -0.18006,-0.58824 -0.24218,-0.76368 -0.54467,-1.53791 -1.28882,-4.41188 -2.13086,-6.6914 -0.93812,-2.53962 -1.9142,-3.96245 -2.72852,-4.66407 -0.81442,-0.7017 -1.46626,-0.67996 -1.99609,-0.36914 -0.52981,0.31091 -0.93794,0.90848 -1.20313,3.01954 -0.26511,2.11093 -0.38998,5.73459 -0.84765,6.13671 -0.0953,0.0837 -0.24457,-0.40573 -0.36524,-0.57031 -0.45619,-0.62213 -1.01995,-2.35136 -1.53711,-4.26367 -0.6541,-2.41825 -1.17125,-4.43713 -1.75195,-5.94922 -0.58079,-1.51209 -1.22612,-2.51956 -1.99414,-3.01758 -0.7679,-0.49803 -1.65782,-0.48477 -2.28125,-0.15625 -0.62332,0.32842 -0.97975,0.97192 -1.16602,3.73828 -0.18628,2.7662 -0.20251,7.6548 -1.08984,7.19141 -0.23576,-0.12305 -0.62839,-1.25334 -0.96094,-1.98633 -0.91866,-2.02525 -2.00956,-5.19224 -2.91015,-7.67968 -1.22648,-3.3877 -1.92225,-4.35028 -2.57618,-4.76368 -0.65399,-0.41341 -1.2674,-0.27523 -1.79687,0.4336 -0.52955,0.70882 -0.97466,1.98748 -1.12695,3.99609 -0.14696,1.93924 -0.033,4.49323 -0.49805,4.15625 -0.0165,-0.012 -0.021,0.0372 -0.0391,0.0176 -0.52632,-0.5726 -1.7208,-4.45394 -2.86914,-7.1836 -1.14856,-2.72975 -2.25129,-4.30815 -3.21094,-5.10156 -0.95964,-0.79342 -1.77642,-0.80181 -2.3711,-0.38281 -0.59469,0.419 -0.96805,1.26518 -1.10351,2.86914 -0.13547,1.60389 -0.0327,3.96696 -0.55469,3.77734 -0.51507,-0.18713 -1.63989,-2.85684 -2.66992,-4.87109 -0.55592,-0.72887 -1.06679,-1.3852 -1.55273,-2.00586 -0.88464,-1.12987 -1.38397,-1.65036 -1.81446,-1.80664 -0.43048,-0.15628 -0.79144,0.0528 -1.10547,0.39063 -0.31403,0.33783 -0.58046,0.80456 -0.77734,1.73242 -0.19688,0.92786 -0.32524,2.31644 -0.43359,3.53125 -0.0542,0.6074 -0.10369,1.17011 0.29687,4.29101 0.40056,3.12091 1.2508,8.79973 2.99609,19.63477 3.4906,21.67008 10.5599,63.96767 14.15235,85.25586 3.31322,19.63356 3.42932,19.91745 3.71679,21.11133 z" />
    <g
       id="g2970">
      <path
         id="path991"
         style="fill:url(#linearGradient3027);fill-opacity:1;stroke:none;stroke-width:1px;stroke-linecap:butt;stroke-linejoin:miter;stroke-opacity:1"
         d="m -164.51367,431.68945 -15.16211,137.13672 c 16.47134,-1.99647 18.78967,-2.33003 19.25586,-2.90625 0.50506,-0.62426 0.69385,-1.74157 3.65039,-24.32812 2.95654,-22.58655 8.68146,-66.64094 11.51172,-89.11133 2.83025,-22.47039 2.76534,-23.35667 2.01758,-24.69141 -0.74776,-1.33474 -2.17952,-3.11926 -3.75977,-4.25586 -1.58025,-1.1366 -3.309,-1.62414 -4.73242,-1.66406 -1.42342,-0.0399 -2.54122,0.36999 -3.79297,0.99805 -1.25175,0.62806 -2.63692,1.47391 -3.59961,2.35351 -0.96269,0.8796 -1.50306,1.79147 -2.14648,2.73633 -0.64343,0.94486 -1.3888,1.92343 -1.94141,2.64844 -0.5362,0.70348 -0.89161,1.14774 -1.30078,1.08398 z" />
      <path
         id="path1082"
         style="fill:#c40a0c;fill-opacity:1;stroke:none;stroke-width:1px;stroke-linecap:butt;stroke-linejoin:miter;stroke-opacity:1"
         d="m -187.74219,434.87305 -9.67969,136.10547 c 4.75673,-0.57275 11.16343,-1.3433 14.8711,-1.79102 1.60122,-0.19336 1.50155,-0.19485 2.875,-0.36133 l 15.16211,-137.13672 c -0.0125,-0.002 -0.0245,0.0166 -0.0371,0.0137 -0.42543,-0.0993 -0.91886,-0.77204 -1.7793,-1.95703 -0.86043,-1.18498 -2.08781,-2.88285 -3.45117,-4.01562 -1.36336,-1.13277 -2.8612,-1.69826 -4.32227,-1.75977 -1.46106,-0.0615 -2.88439,0.38253 -4.28125,1.0293 -1.39685,0.64677 -2.76757,1.49582 -4.02929,2.76758 -1.26173,1.27176 -2.41444,2.96523 -3.3086,4.36133 -0.89415,1.39609 -1.52915,2.49466 -1.99609,2.7539 -0.008,0.005 -0.0152,-0.0138 -0.0234,-0.01 z" />
      <path
         id="path1085"
         style="fill:url(#linearGradient2738);fill-opacity:1;stroke:none;stroke-width:1px;stroke-linecap:butt;stroke-linejoin:miter;stroke-opacity:1"
         d="m -211.23633,435.33594 -7.30859,138.1875 c 7.52626,-0.90555 14.36651,-1.73139 21.12304,-2.54492 l 9.67969,-136.10547 c -0.45303,0.22529 -0.75869,-0.33896 -1.60742,-1.86719 -0.86408,-1.55588 -2.29297,-4.08688 -3.83398,-5.55078 -1.54102,-1.46391 -3.19288,-1.86131 -4.73829,-1.88281 -1.5454,-0.0215 -2.98409,0.33299 -4.53124,1.27148 -1.54716,0.93849 -3.20243,2.46163 -4.3379,3.66016 -1.13546,1.19853 -1.74978,2.07153 -2.29882,3.06054 -0.54905,0.98902 -1.03331,2.09332 -1.5625,2.16211 -0.18441,0.024 -0.38537,-0.20131 -0.58399,-0.39062 z" />
      <path
         id="path1088"
         style="fill:#c40a0c;fill-opacity:1;stroke:none;stroke-width:1px;stroke-linecap:butt;stroke-linejoin:miter;stroke-opacity:1"
         d="m -233.8418,437.29297 -2.98632,138.43359 c 6.47898,-0.77982 11.76877,-1.41932 18.2832,-2.20312 l 7.30859,-138.1875 c -0.37136,-0.35397 -0.76141,-0.89032 -1.20898,-1.60547 -0.68697,-1.09765 -1.48306,-2.32612 -2.80469,-3.4082 -1.32163,-1.08209 -3.16823,-2.01653 -4.89453,-2.35938 -1.7263,-0.34285 -3.33225,-0.0934 -4.91797,0.64649 -1.58572,0.73984 -3.15031,1.96985 -4.25781,3.18164 -1.10751,1.21178 -1.75865,2.40636 -2.39844,3.57812 -0.63979,1.17176 -1.26775,2.3203 -1.95508,2.09961 -0.0512,-0.0164 -0.11594,-0.14471 -0.16797,-0.17578 z" />
      <path
         id="path1091"
         style="fill:url(#linearGradient3029);fill-opacity:1;stroke:none;stroke-width:1px;stroke-linecap:butt;stroke-linejoin:miter;stroke-opacity:1"
         d="m -257.2207,439.25586 0.27539,138.89648 c 6.49671,-0.7837 12.98821,-1.56772 20.11719,-2.42578 l 2.98632,-138.43359 c -0.64622,-0.38599 -1.35416,-1.75198 -2.45312,-3.19922 -1.18743,-1.56375 -2.81625,-3.10041 -4.44727,-4.08203 -1.63101,-0.98162 -3.26404,-1.40796 -5.10937,-0.97852 -1.84533,0.42945 -3.90324,1.71445 -5.43555,3.04883 -1.53231,1.33438 -2.53942,2.71819 -3.25781,3.96875 -0.7184,1.25056 -1.14805,2.36879 -1.54688,2.9961 -0.33331,0.52424 -0.67581,0.57825 -1.1289,0.20898 z" />
      <path
         id="path1094"
         style="fill:#c40a0c;fill-opacity:1;stroke:none;stroke-width:1px;stroke-linecap:butt;stroke-linejoin:miter;stroke-opacity:1"
         d="m -279.62109,441.49609 4.34375,138.80469 c 3.77506,-0.45608 1.70578,-0.13962 9.2832,-1.05859 2.36968,-0.2874 6.12662,-0.73734 9.04883,-1.08985 l -0.27539,-138.89648 c -0.0891,-0.0726 -0.15268,-0.0396 -0.25391,-0.15625 -0.61626,-0.71017 -1.48086,-2.26707 -2.70703,-3.62695 -1.22618,-1.35989 -2.81444,-2.52151 -4.20117,-3.17774 -1.38674,-0.65623 -2.57185,-0.80793 -3.98633,-0.54687 -1.41448,0.26105 -3.05872,0.93442 -4.4707,1.81836 -1.41199,0.88393 -2.59098,1.97875 -3.45313,3.06445 -0.86214,1.0857 -1.40584,2.16177 -1.87305,3.12305 -0.4672,0.96127 -0.85666,1.80794 -1.2832,1.85742 -0.0511,0.006 -0.11902,-0.0989 -0.17187,-0.11524 z" />
      <path
         id="path1097"
         style="fill:url(#linearGradient3031);fill-opacity:1;stroke:none;stroke-width:1px;stroke-linecap:butt;stroke-linejoin:miter;stroke-opacity:1"
         d="m -302.41992,440.52148 6.73242,140.99805 c 1.25553,0.59838 2.0459,0.76965 2.92188,0.77344 1.30878,0.006 10.37667,-1.13301 17.48828,-1.99219 l -4.34375,-138.80469 c -0.38854,-0.12047 -0.82688,-0.72921 -1.61329,-1.79882 -0.89336,-1.21513 -2.21494,-2.89763 -3.89257,-4.11133 -1.67764,-1.2137 -3.71108,-1.95779 -5.61328,-2.05274 -1.9022,-0.095 -3.67286,0.46079 -5.04883,1.3418 -1.37598,0.88101 -2.35802,2.08672 -3.17774,3.23633 -0.81971,1.1496 -1.47831,2.24345 -1.88672,3.09179 -0.4084,0.84842 -0.56521,1.45185 -0.875,1.07813 -0.15681,-0.18918 -0.45928,-1.14437 -0.6914,-1.75977 z" />
      <path
         id="path1100"
         style="fill:#c40a0c;fill-opacity:1;stroke:none;stroke-width:1px;stroke-linecap:butt;stroke-linejoin:miter;stroke-opacity:1"
         d="m -310.61328,439.66602 7.54687,137.20898 c 3.34666,2.23327 6.06379,4.01776 7.37891,4.64453 l -6.73242,-140.99805 c -0.22643,-0.60028 -0.38075,-0.85227 -0.67383,-1.71679 -0.59354,-1.75082 -1.31939,-3.90125 -2.09766,-5.20703 -0.77826,-1.30579 -1.61078,-1.76612 -2.27734,-1.79297 -0.66656,-0.0269 -1.16575,0.38138 -1.51172,1.16797 -0.34597,0.78658 -0.53844,1.94993 -0.76758,3.34765 -0.22913,1.39772 -0.49437,3.02989 -0.82226,3.37891 -0.0131,0.0139 -0.0297,-0.043 -0.043,-0.0332 z" />
      <path
         id="path1103"
         style="fill:url(#linearGradient3033);fill-opacity:1;stroke:none;stroke-width:1px;stroke-linecap:butt;stroke-linejoin:miter;stroke-opacity:1"
         d="m -321.48828,436.20898 11.0332,135.64063 c 1.83799,1.26416 4.22006,2.958 5.69922,3.96289 0.9326,0.63358 0.9234,0.5513 1.68945,1.0625 l -7.54687,-137.20898 c -0.31968,0.23736 -0.69505,-0.63121 -1.17188,-2.53516 -0.49658,-1.98288 -1.0998,-5.01483 -1.85546,-6.90234 -0.75568,-1.88752 -1.6643,-2.63083 -2.48829,-2.99414 -0.82398,-0.36341 -1.56252,-0.34578 -2.15039,0.0898 -0.58786,0.43562 -1.02497,1.28922 -1.34765,2.79883 -0.32269,1.5096 -0.5316,3.67502 -0.72266,5.32226 -0.19105,1.64724 -0.36322,2.77682 -0.89648,1.52344 -0.0546,-0.12839 -0.18033,-0.5851 -0.24219,-0.75977 z" />
      <path
         id="path1106"
         style="fill:#c40a0c;fill-opacity:1;stroke:none;stroke-width:1px;stroke-linecap:butt;stroke-linejoin:miter;stroke-opacity:1"
         d="m -330.71484,433.08594 12.93164,133.66797 c 2.61442,1.8084 4.96479,3.47021 7.32812,5.0957 l -11.0332,-135.64063 c -0.54203,-1.53043 -1.28117,-4.38968 -2.11914,-6.6582 -0.93361,-2.5274 -1.90634,-3.94427 -2.7168,-4.64258 -0.81046,-0.6983 -1.45904,-0.67656 -1.98633,-0.36718 -0.52728,0.30937 -0.93338,0.90503 -1.19726,3.00586 -0.26389,2.10081 -0.38634,5.70532 -0.8418,6.10546 -0.0953,0.0837 -0.24512,-0.40259 -0.36523,-0.5664 z" />
      <path
         id="path1109"
         style="fill:url(#linearGradient3035);fill-opacity:1;stroke:none;stroke-width:1px;stroke-linecap:butt;stroke-linejoin:miter;stroke-opacity:1"
         d="m -341.44336,428.66406 16.03906,132.79102 c 2.73397,1.89453 4.90225,3.4182 7.6211,5.29883 l -12.93164,-133.66797 c -0.45399,-0.61916 -1.01457,-2.34107 -1.5293,-4.24414 -0.65091,-2.40658 -1.16425,-4.4151 -1.74219,-5.91992 -0.57794,-1.50483 -1.22205,-2.50635 -1.98633,-3.00196 -0.76427,-0.49561 -1.64918,-0.48313 -2.26953,-0.15625 -0.62035,0.32688 -0.97476,0.96776 -1.16015,3.72071 -0.1854,2.75288 -0.20095,7.61733 -1.08399,7.15624 -0.23466,-0.1225 -0.62613,-1.24709 -0.95703,-1.97656 z" />
      <path
         id="path1112"
         style="fill:#c40a0c;fill-opacity:1;stroke:none;stroke-width:1px;stroke-linecap:butt;stroke-linejoin:miter;stroke-opacity:1"
         d="m -350.30859,424.82422 16.41406,130.72656 c 2.81487,1.95821 5.44428,3.79357 8.49023,5.9043 l -16.03906,-132.79102 c -0.91426,-2.01546 -2.00026,-5.16712 -2.89648,-7.64258 -1.22061,-3.37141 -1.91168,-4.32881 -2.5625,-4.74023 -0.65083,-0.41142 -1.26214,-0.27377 -1.78907,0.43164 -0.52692,0.70541 -0.96957,1.97771 -1.12109,3.97656 -0.14629,1.92989 -0.0335,4.4701 -0.49609,4.13477 z" />
      <path
         id="path1115"
         style="fill:#c40a0c;fill-opacity:1;stroke:none;stroke-width:1px;stroke-linecap:butt;stroke-linejoin:miter;stroke-opacity:1"
         d="m -366.72266,408.84375 c -0.0796,-0.0648 -0.27353,-0.28252 -0.32617,-0.32227 -0.20975,-0.15839 -0.21065,-0.1592 -0.49023,-0.12109 -0.27958,0.0381 -0.83851,0.11482 -1.30664,0.84766 -0.46813,0.73283 -0.84331,2.12147 -0.82227,5.38476 0.021,3.26329 0.4376,8.40162 3.88086,29.86524 3.44326,21.46361 9.91223,59.25099 13.21094,78.66211 3.2987,19.41111 3.42653,20.44363 3.81836,21.26172 0.33518,0.69981 1.84198,1.90554 7.41992,5.88671 -5.70458,-37.92999 -11.43671,-76.04619 -14.8125,-97.45703 -1.82442,-11.57131 -3.01616,-18.65324 -3.93164,-23.41211 -0.91548,-4.75886 -1.55515,-7.19529 -2.27539,-9.47461 -1.44049,-4.55863 -3.20381,-8.49006 -4.13086,-10.57812 -0.19552,-0.44038 -0.10546,-0.24935 -0.23438,-0.54297 z" />
      <path
         id="path1118"
         style="fill:url(#linearGradient2758);fill-opacity:1;stroke:none;stroke-width:1px;stroke-linecap:butt;stroke-linejoin:miter;stroke-opacity:1"
         d="m -366.72266,408.84375 c 0.12892,0.29362 0.0389,0.10259 0.23438,0.54297 0.92705,2.08806 2.69037,6.01949 4.13086,10.57812 0.72024,2.27932 1.35991,4.71575 2.27539,9.47461 0.91548,4.75887 2.10722,11.8408 3.93164,23.41211 3.37579,21.41084 9.10792,59.52704 14.8125,97.45703 0.94265,0.6728 1.05011,0.78146 2.30469,1.66797 1.3011,0.91939 3.43488,2.38895 5.13867,3.57422 l -16.41406,-130.72656 c -0.0165,-0.012 -0.021,0.0372 -0.0391,0.0176 -0.52379,-0.5698 -1.71263,-4.43189 -2.85546,-7.14844 -1.14296,-2.71655 -2.2403,-4.28661 -3.19532,-5.07617 -0.95502,-0.78957 -1.76755,-0.79788 -2.35937,-0.38086 -0.59183,0.41701 -0.96285,1.25928 -1.09766,2.85547 -0.13481,1.59618 -0.0335,3.94648 -0.55273,3.75781 -0.51928,-0.18867 -1.65947,-2.91691 -2.69532,-4.92969 -1.03585,-2.01278 -1.96755,-3.31021 -2.64257,-4.11719 -0.50564,-0.60447 -0.73887,-0.76539 -0.97657,-0.95898 z" />
    </g>
  </g>
  <path
     style="fill:url(#linearGradient3847);fill-opacity:1;stroke:none;stroke-width:0.628496px;stroke-linecap:butt;stroke-linejoin:miter;stroke-opacity:1"
     d="M 324,85.580633 189.60455,37.970032 189.43109,182.62436 324,205.71149 Z"
     id="path3768-71" />
</svg>
