<svg xmlns="http://www.w3.org/2000/svg" xmlns:xlink="http://www.w3.org/1999/xlink" width="324" height="234"><defs><linearGradient id="a"><stop offset="0" stop-color="#d4bae6"/><stop offset=".17" stop-color="#d7a7dd"/><stop offset=".38" stop-color="#bdb5e5"/><stop offset=".65" stop-color="#819aee"/><stop offset="1" stop-color="#71bbc3"/></linearGradient><linearGradient xlink:href="#a" id="b" x1="48.18" x2="302.11" y1="-19.93" y2="234" gradientUnits="userSpaceOnUse"/><linearGradient id="e" x1="21.37" x2="22.49" y1="-17.48" y2="20.61" gradientUnits="userSpaceOnUse"><stop offset=".99" stop-color="#6D4AFF"/></linearGradient><linearGradient id="f" x1="21.59" x2="12.28" y1="-12.2" y2="27.87" gradientUnits="userSpaceOnUse"><stop offset=".48" stop-color="#24ECC6" stop-opacity="0"/><stop offset=".99" stop-color="#24ECC6"/></linearGradient><linearGradient id="g" x1="24.67" x2="4.03" y1="32.27" y2="-3.03" gradientUnits="userSpaceOnUse"><stop offset=".07" stop-color="#ABFFEF"/><stop offset=".45" stop-color="#CAC9FF"/><stop offset="1" stop-color="#6D4AFF"/></linearGradient><clipPath id="d"><path fill="#fff" d="M.5 0h160v34H.5z"/></clipPath><filter id="c" width="1.21" height="1.29" x="-.11" y="-.15" color-interpolation-filters="sRGB"><feGaussianBlur stdDeviation="14.28"/></filter></defs><path fill="#cbbce4" d="M0 0h324v234H0z" opacity=".9"/><path fill="url(#b)" d="M0 0h324v234H0z" filter="url(#c)"/><g clip-path="url(#d)" transform="matrix(3.12 0 0 3.12 97.46 41.92)"><path fill="url(#e)" fill-rule="evenodd" d="M16.5 29 29.57 8.4 3.72 5.84Z" clip-rule="evenodd"/><path fill="url(#f)" fill-rule="evenodd" d="M16.5 29 29.57 8.4 3.72 5.84Z" clip-rule="evenodd"/><path fill="url(#g)" d="m18.43 25.13-1.17 1.76c-.48.72-1.55.67-1.96-.08l1.2 2.2a3.44 3.44 0 0 0 5.88.22L35.65 9.05a3.44 3.44 0 0 0-2.48-5.3L7.12.74a3.44 3.44 0 0 0-3.4 5.09l.1.18L25.98 8.6a1.91 1.91 0 0 1 1.38 2.94z"/></g><path fill="#6d4aff" d="M241.13 189.35V158.4h4.96l14.61 19.2c.53.66.99 1.37 1.37 2.13h.09a25.6 25.6 0 0 1-.14-2.81V158.4h5.85v30.95h-4.96l-14.65-19.2a13.7 13.7 0 0 1-1.36-2.13h-.05c.08.94.1 1.88.1 2.81v18.52zm-12.31-30.85h-14.3v30.96h5.67v-7.7a2.82 2.82 0 0 1 2.83-2.83h5.8a10.2 10.2 0 0 0 9.43-14.11 10.22 10.22 0 0 0-9.43-6.33zm4.46 10.16a4.82 4.82 0 0 1-4.84 4.82h-8.28v-9.65h8.28a4.84 4.84 0 0 1 4.83 4.86zm-38.65 20.69-11.4-30.95h6.44l7.5 22.15c.3.8.51 1.61.64 2.45h.06c.1-.85.31-1.67.64-2.45l7.53-22.15h6.49l-11.47 30.95z"/><path fill="#1b1340" d="M160.24 189.3v-11.87c0-5.5 3.5-9.45 9.76-9.45 6.25 0 9.71 3.97 9.71 9.45v11.84h-5.59V177.9c0-3.06-1.37-4.97-4.12-4.97-2.76 0-4.13 1.91-4.13 4.97v11.4zm-25.19-10.43c0-6.16 4.65-10.86 11.13-10.86 6.47 0 11.13 4.7 11.13 10.86 0 6.16-4.65 10.91-11.13 10.91s-11.13-4.75-11.13-10.91zm16.72 0c0-3.5-2.35-6-5.6-6-3.24 0-5.58 2.5-5.58 6s2.35 5.99 5.59 5.99c3.23 0 5.6-2.44 5.6-6zm-18.41-5.95h-6.07v7.77c0 2.7.97 3.94 3.76 3.94.27 0 .94 0 1.78-.04v4.57c-1.07.31-2.17.47-3.28.49-4.7 0-7.9-2.84-7.9-8.2v-8.53h-3.76v-4.46h.93a2.83 2.83 0 0 0 2.83-2.83v-4.24h5.64v7.05h6.07zm-38.59 5.95c0-6.16 4.66-10.86 11.14-10.86s11.13 4.7 11.13 10.86c0 6.16-4.66 10.91-11.13 10.91-6.47 0-11.14-4.75-11.14-10.91zm16.73 0c0-3.5-2.35-6-5.6-6-3.23 0-5.58 2.5-5.58 6s2.35 5.99 5.59 5.99c3.24 0 5.59-2.44 5.59-6zM81.51 189.3V177c0-5 2.93-9 8.79-9 .94-.01 1.88.1 2.8.31v5.06c-.68-.05-1.28-.05-1.52-.05-3.1 0-4.46 1.43-4.46 4.3v11.68zm-11.08-30.99h-14.3v30.97h5.66v-7.7a2.83 2.83 0 0 1 2.83-2.83h5.8a10.2 10.2 0 0 0 9.44-14.11 10.2 10.2 0 0 0-9.43-6.33zm4.45 10.17a4.83 4.83 0 0 1-4.83 4.83h-8.28v-9.66h8.28a4.83 4.83 0 0 1 4.83 4.86z"/></svg>