<svg xmlns="http://www.w3.org/2000/svg" xmlns:xlink="http://www.w3.org/1999/xlink" width="324" height="234"><defs><linearGradient id="a"><stop offset="0" stop-color="#c18ed0"/><stop offset=".17" stop-color="#cb7cd3"/><stop offset=".26" stop-color="#a457f4"/><stop offset=".38" stop-color="#964ae5"/><stop offset=".65" stop-color="#3574da"/><stop offset="1" stop-color="#006a96"/></linearGradient><linearGradient xlink:href="#a" id="b" x1="48.18" x2="302.11" y1="-19.93" y2="234" gradientUnits="userSpaceOnUse"/><linearGradient id="e" x1="21.37" x2="22.49" y1="-17.48" y2="20.61" gradientUnits="userSpaceOnUse"><stop offset=".99" stop-color="#6D4AFF"/></linearGradient><linearGradient id="f" x1="21.59" x2="12.28" y1="-12.2" y2="27.87" gradientUnits="userSpaceOnUse"><stop offset=".48" stop-color="#24ECC6" stop-opacity="0"/><stop offset=".99" stop-color="#24ECC6"/></linearGradient><linearGradient id="g" x1="24.67" x2="4.03" y1="32.27" y2="-3.03" gradientUnits="userSpaceOnUse"><stop offset=".07" stop-color="#ABFFEF"/><stop offset=".45" stop-color="#CAC9FF"/><stop offset="1" stop-color="#6D4AFF"/></linearGradient><clipPath id="d"><path fill="#fff" d="M.5 0h160v34H.5z"/></clipPath><filter id="c" width="1.44" height="1.62" x="-.22" y="-.31" color-interpolation-filters="sRGB"><feGaussianBlur stdDeviation="30.03"/></filter></defs><path fill="#9049d5" d="M0 0h324v234H0z" opacity=".9"/><path fill="url(#b)" d="M0 0h324v234H0z" filter="url(#c)"/><g clip-path="url(#d)" transform="matrix(3 0 0 3 97.46 41.92)"><path fill="url(#e)" fill-rule="evenodd" d="M16.5 29a3.44 3.44 0 0 0 5.9.23L35.63 9.05a3.44 3.44 0 0 0-2.48-5.3L7.12.74a3.44 3.44 0 0 0-3.4 5.09Z" clip-rule="evenodd"/><path fill="url(#f)" fill-rule="evenodd" d="M16.5 29a3.44 3.44 0 0 0 5.9.23L35.63 9.05a3.44 3.44 0 0 0-2.48-5.3L7.12.74a3.44 3.44 0 0 0-3.4 5.09Z" clip-rule="evenodd"/><path fill="url(#g)" d="m18.43 25.13-1.17 1.76c-.48.72-1.55.67-1.96-.08l1.2 2.2a3.44 3.44 0 0 0 5.88.22L35.65 9.05a3.44 3.44 0 0 0-2.48-5.3L7.12.74a3.44 3.44 0 0 0-3.4 5.09l.1.18L25.98 8.6a1.91 1.91 0 0 1 1.38 2.94z"/></g><path fill="#fff" d="M67.42 191.67q.68-.16 1.11-.4.47-.28.94-.8v-21q-.68-.72-2.2-1.29l.15-1.56h10.16q9.4 0 9.4 7.45 0 3.88-2.56 5.96t-7.35 2.08q-.8 0-2.3-.12v8.48q.75.84 2.7 1.28l-.25 1.56h-9.95zm9.69-12.08q2.12 0 3.2-1.36 1.08-1.4 1.08-4.08 0-2.44-1.15-3.76-1.12-1.32-3.13-1.32-1.44 0-2.34.16v10.36zm11.78 12.08q.68-.16 1.04-.36.4-.2.87-.64v-11.52q0-1.44-.5-1.96-.51-.56-1.77-.64l.1-1.56 1.2-.24q3.81-.72 4.96-1.12l.65.36.29 2.64q.83-1.36 2.02-2.16t2.63-.8q1.4 0 2.41 1.08 1.05 1.04 1.05 2.6 0 1.44-.76 2.28-.72.8-1.7.8-1.11 0-1.76-1 .5-.68.5-1.32t-.5-1.04q-.47-.4-1.08-.4-.76 0-1.51.72-.72.68-1.16 1.8v11.48q.83.72 2.17 1.08l-.15 1.56h-9.11zm24.02 1.92q-4.28 0-6.48-2.52-2.16-2.52-2.16-7.4 0-4.92 2.16-7.48 2.2-2.56 6.48-2.56 4.29 0 6.45 2.56 2.2 2.56 2.2 7.44 0 4.88-2.2 7.44-2.16 2.52-6.45 2.52zm0-2.24q1.77 0 2.56-1.8.8-1.84.8-5.92t-.8-5.92q-.8-1.84-2.56-1.84t-2.56 1.84q-.79 1.84-.79 5.92t.8 5.92q.79 1.8 2.55 1.8zm16.82 2.12q-1.94 0-3.17-1.16-1.22-1.16-1.22-3.52v-12h-2.56v-1.84q1.77-.76 3.14-2 1.4-1.28 2.23-3h2.34v4.24h4.61v2.6h-4.65v11.68q0 1.12.47 1.64.47.48 1.26.48.62 0 1.3-.28.72-.28 1.3-.72l.72 1.4q-1.12 1.12-2.7 1.8-1.55.68-3.07.68zm14.92.12q-4.29 0-6.49-2.52-2.16-2.52-2.16-7.4 0-4.92 2.16-7.48 2.2-2.56 6.49-2.56 4.28 0 6.45 2.56 2.2 2.56 2.2 7.44 0 4.88-2.2 7.44-2.17 2.52-6.45 2.52zm0-2.24q1.76 0 2.55-1.8.8-1.84.8-5.92t-.8-5.92q-.79-1.84-2.55-1.84-1.77 0-2.56 1.84-.8 1.84-.8 5.92t.8 5.92q.8 1.8 2.56 1.8zm10.88.32q.68-.16 1.04-.36.4-.2.87-.64v-11.52q0-1.44-.5-1.96-.51-.56-1.77-.64l.1-1.56 1.2-.24q3.81-.72 4.96-1.12l.65.36.29 2.32q.97-1.28 2.3-1.96 1.37-.72 3-.72 2.44 0 3.89 1.64 1.47 1.64 1.47 4.52v10.88q.9.76 2.3 1.08l-.14 1.56h-9.11l.1-1.56q1.09-.24 1.77-1.08v-10.52q0-1.96-.57-2.88-.54-.96-1.66-.96-.94 0-1.84.6-.86.6-1.37 1.6v12.16q.83.72 2.17 1.08l-.15 1.56h-9.11zM186 169.99q-.4-1.4-2.34-1.77l.18-1.6h9.87l-.22 1.6q-1.51.08-2.23.89l4.9 16.8 5.26-16.48q-.94-.93-2.85-1.2l.18-1.6h7.96l-.18 1.6q-.93.03-1.58.4-.62.36-.8.92l-7.81 23.76h-3.64zm21.86 21.68q.69-.16 1.12-.4.47-.28.94-.8v-21q-.69-.73-2.2-1.29l.14-1.56h10.16q9.4 0 9.4 7.45 0 3.88-2.55 5.96-2.56 2.08-7.35 2.08-.8 0-2.3-.12v8.48q.75.84 2.7 1.28l-.26 1.56h-9.94zm9.7-12.08q2.12 0 3.2-1.36 1.08-1.4 1.08-4.08 0-2.44-1.15-3.76-1.12-1.32-3.14-1.32-1.44 0-2.34.16v10.36zm11.67 12.08q.68-.16 1.11-.4.43-.24.94-.8v-21q-.76-.73-2.2-1.29l.15-1.56h7.1l9.93 19.37v-16.53q-.54-.52-1.08-.76t-1.4-.44l.18-1.64h7.85l-.22 1.56q-1.4.48-2.2 1.28v23.85h-5.47l-9.5-18.4v15.56q.82.84 2.7 1.28l-.26 1.56h-7.78z" aria-label="Proton VPN" font-family="Caladea" font-size="37.96" font-weight="700" opacity=".9" style="line-height:1.25;-inkscape-font-specification:&quot;Caladea Bold&quot;"/></svg>
