<svg xmlns="http://www.w3.org/2000/svg" xmlns:xlink="http://www.w3.org/1999/xlink" width="324" height="234"><defs><path id="K" d="M19 12h10v16h4.996L24 36l-10-8h5m0-16"/></defs><defs><linearGradient id="a"><stop offset="0" stop-color="#e64540"/><stop offset=".3622" stop-color="#a7197b"/><stop offset="1" stop-color="#382ed1"/></linearGradient><linearGradient xlink:href="#a" id="h" x1="200" x2="2.6054" y1="133.7222" y2="-10.1107" gradientTransform="matrix(1.62 0 0 1.62 0 17.37)" gradientUnits="userSpaceOnUse"/><linearGradient xlink:href="#b" id="i" x1="0" x2="168.5606" y1="173.6924" y2="173.6924" gradientTransform="matrix(.99833 0 0 1.1914 -5.376 -44.7994)" gradientUnits="userSpaceOnUse"/><linearGradient id="b"><stop offset="0" stop-color="#ff9a0a"/><stop offset="1" stop-color="#e1252e"/></linearGradient><linearGradient xlink:href="#c" id="j" x1="-1.8729" x2="323.1271" y1="118.9831" y2="118.9831" gradientTransform="matrix(.99833 0 0 1.1914 -4.0054 -47.162)" gradientUnits="userSpaceOnUse"/><linearGradient id="c" x1="29.855" x2="54.32" y1="22.346" y2="28.506" gradientUnits="userSpaceOnUse"><stop stop-color="#ffc169"/><stop offset="1" stop-color="#ffa92d"/></linearGradient><linearGradient xlink:href="#b" id="k" x1="231.9844" x2="324" y1="54.6211" y2="54.6211" gradientTransform="matrix(1.78489 0 0 1 -259.6764 -.017)" gradientUnits="userSpaceOnUse"/><linearGradient xlink:href="#c" id="l" x1="-1.8729" x2="323.1271" y1="118.9831" y2="118.9831" gradientTransform="matrix(1.78489 0 0 1 -257.226 -2)" gradientUnits="userSpaceOnUse"/><linearGradient id="e"><stop offset="0" stop-color="#ffde91"/><stop offset="1" stop-color="#ffc066"/></linearGradient><linearGradient xlink:href="#c" id="H" x1="-1.8729" x2="323.1271" y1="118.9831" y2="118.9831" gradientUnits="userSpaceOnUse"/><linearGradient id="f"><stop offset="0" stop-color="#ffccd1"/><stop offset="1" stop-color="#ffd7dd"/></linearGradient><linearGradient id="g"><stop offset="0" stop-color="#ffdfe2"/><stop offset="1" stop-color="#ffdfe3"/></linearGradient><linearGradient xlink:href="#d" id="y" x1="214.9985" x2="214.9985" y1="-157.0001" y2="-244.0063" gradientTransform="matrix(.52726 0 0 .71738 23.506 175.107)" gradientUnits="userSpaceOnUse"/><linearGradient id="d"><stop offset="0" stop-color="#ff9a0a"/><stop offset="1" stop-color="#c61f00"/></linearGradient><linearGradient xlink:href="#c" id="z" x1="-1.8729" x2="323.1271" y1="118.9831" y2="118.9831" gradientTransform="matrix(.96434 0 0 1.38566 .9486 -2.6868)" gradientUnits="userSpaceOnUse"/><linearGradient xlink:href="#d" id="A" x1="214.9985" x2="214.9985" y1="-157.0001" y2="-244.0063" gradientTransform="matrix(.49913 0 0 1.08145 90.6767 264.0532)" gradientUnits="userSpaceOnUse"/><linearGradient xlink:href="#c" id="B" x1="-1.8729" x2="323.1271" y1="118.9831" y2="118.9831" gradientTransform="matrix(.9129 0 0 2.08886 13.4202 -3.9688)" gradientUnits="userSpaceOnUse"/><linearGradient xlink:href="#c" id="n" x1="-1.8729" x2="323.1271" y1="118.9831" y2="118.9831" gradientUnits="userSpaceOnUse"/><linearGradient xlink:href="#c" id="q" x1="-1.8729" x2="323.1271" y1="118.9831" y2="118.9831" gradientUnits="userSpaceOnUse"/><linearGradient xlink:href="#c" id="s" x1="-1.8729" x2="323.1271" y1="118.9831" y2="118.9831" gradientUnits="userSpaceOnUse"/><linearGradient xlink:href="#c" id="u" x1="-1.8729" x2="323.1271" y1="118.9831" y2="118.9831" gradientUnits="userSpaceOnUse"/><linearGradient xlink:href="#c" id="x" x1="-1.8729" x2="323.1271" y1="118.9831" y2="118.9831" gradientUnits="userSpaceOnUse"/><linearGradient xlink:href="#c" id="D" x1="-1.8729" x2="323.1271" y1="118.9831" y2="118.9831" gradientUnits="userSpaceOnUse"/><linearGradient xlink:href="#c" id="F" x1="-1.8729" x2="323.1271" y1="118.9831" y2="118.9831" gradientUnits="userSpaceOnUse"/><linearGradient xlink:href="#d" id="I" x1="14" x2="33.996" y1="24" y2="24" gradientUnits="userSpaceOnUse"/><linearGradient xlink:href="#d" id="N" x1="14" x2="33.996" y1="24" y2="24" gradientUnits="userSpaceOnUse"/><linearGradient xlink:href="#d" id="L" x1="14" x2="33.996" y1="24" y2="24" gradientUnits="userSpaceOnUse"/><radialGradient xlink:href="#e" id="m" cx="-15.8962" cy="-20.9989" r="10.8962" fx="-15.8962" fy="-20.9989" gradientTransform="matrix(.61034 0 0 .367 -9.2642 -13.2923)" gradientUnits="userSpaceOnUse"/><radialGradient xlink:href="#e" id="p" cx="-15.8962" cy="-20.9989" r="10.8962" fx="-15.8962" fy="-20.9989" gradientTransform="matrix(.61034 0 0 .367 -64.1332 -29.2923)" gradientUnits="userSpaceOnUse"/><radialGradient xlink:href="#e" id="r" cx="-15.8962" cy="-20.9989" r="10.8962" fx="-15.8962" fy="-20.9989" gradientTransform="matrix(.61034 0 0 .367 -133.634 -29.2923)" gradientUnits="userSpaceOnUse"/><radialGradient xlink:href="#f" id="t" cx="-15.8962" cy="-20.9989" r="10.8962" fx="-15.8962" fy="-20.9989" gradientTransform="matrix(.61034 0 0 .367 301.66 -29.2923)" gradientUnits="userSpaceOnUse"/><radialGradient xlink:href="#g" id="w" cx="-15.8962" cy="-20.9989" r="10.8962" fx="-15.8962" fy="-20.9989" gradientTransform="matrix(.61034 0 0 .367 375.472 -13.2923)" gradientUnits="userSpaceOnUse"/><radialGradient xlink:href="#g" id="C" cx="-15.8962" cy="-20.9989" r="10.8962" fx="-15.8962" fy="-20.9989" gradientTransform="matrix(.61034 0 0 .367 375.472 -86.691)" gradientUnits="userSpaceOnUse"/><radialGradient xlink:href="#g" id="E" cx="-15.8962" cy="-20.9989" r="10.8962" fx="-15.8962" fy="-20.9989" gradientTransform="matrix(.61034 0 0 .367 375.472 -86.691)" gradientUnits="userSpaceOnUse"/><radialGradient xlink:href="#g" id="G" cx="-15.8962" cy="-20.9989" r="10.8962" fx="-15.8962" fy="-20.9989" gradientTransform="matrix(.61034 0 0 .367 386.431 253.861)" gradientUnits="userSpaceOnUse"/><clipPath id="J"/><clipPath id="M"/><clipPath id="O"/><filter id="o" width="1.4393" height="1.7306" x="-.2197" y="-.3653" color-interpolation-filters="sRGB"><feGaussianBlur stdDeviation="1.2174"/></filter><filter id="v" width="1.5419" height="1.9012" x="-.2709" y="-.4506" color-interpolation-filters="sRGB"><feGaussianBlur stdDeviation="1.5016"/></filter></defs><path fill="url(#h)" fill-rule="evenodd" d="M0 0v234h324V0h-45z" paint-order="markers fill stroke"/><g fill-rule="evenodd" stroke-linecap="round" clip-rule="evenodd" paint-order="markers fill stroke"><path fill="url(#i)" stroke="url(#j)" stroke-width="1.0906" d="M-5.376 80.4177v4.933h91.8624v-4.933zm0 9.8685v4.9331h71.8801l1.9967 2.3828 1.9966 2.3828v99.9279h83.7879l1.9558 2.334 1.985 2.3688v29.3706h4.1337v-52.5446l.544-14.6713h-4.3658s-.2071 9.7794-.312 14.6713v8.7726l-1.9966 2.3828-1.9967 2.3828H74.6312V99.922l1.9557-2.334 1.985-2.3688h7.9145v-4.933h-15.989Z" opacity=".44" transform="translate(5.4688 -.0798)"/><path fill="url(#k)" stroke="url(#l)" stroke-width="1.336" d="M248.0962-.017v84.5352l-3.5698 2-3.5698 2h-86.567v4.1406h86.6612l3.4965 1.959 3.5489 1.9883v8.4785h-93.7066v4.1406h164.2375v-4.1406h-63.1404V-.0169Zm-93.7066 113.3848v4.1406h164.2375v-4.1406z" opacity=".29" transform="translate(5.4688 -.0798)"/><path fill="url(#m)" stroke="url(#n)" stroke-width=".5284" d="M-25.6167-24.9978h13.3008V-17h-13.3008z" filter="url(#o)" opacity=".16" transform="matrix(.54676 0 0 .51772 94.8449 126.2304)"/><path fill="url(#p)" stroke="url(#q)" stroke-width=".5284" d="M-80.4857-40.9978h13.3008V-33h-13.3008z" filter="url(#o)" opacity=".16" transform="matrix(.54676 0 0 .51772 94.8449 126.2304)"/><path fill="url(#r)" stroke="url(#s)" stroke-width=".5284" d="M-149.9864-40.9978h13.3008V-33h-13.3008z" filter="url(#o)" opacity=".16" transform="matrix(.54676 0 0 .51772 94.8449 126.2304)"/><path fill="url(#t)" stroke="url(#u)" stroke-width=".5284" d="M285.3075-40.9978h13.3008V-33h-13.3008z" filter="url(#v)" opacity=".44" transform="matrix(.54676 0 0 .51772 94.8449 126.2304)"/><path fill="url(#w)" stroke="url(#x)" stroke-width=".5284" d="M359.1194-24.9978h13.3008V-17h-13.3008z" filter="url(#v)" opacity=".44" transform="matrix(.54676 0 0 .51772 94.8449 126.2304)"/><path fill="url(#y)" stroke="url(#z)" stroke-width="1.156" d="M132.6484.061h4.2171v62.4168h-4.2171z" opacity=".44" transform="translate(5.4688 -.0798)"/><path fill="url(#A)" stroke="url(#B)" stroke-width="1.3809" d="M193.9973.1735h3.9921v94.0926h-3.9921z" opacity=".44" transform="translate(5.4688 -.0798)"/><path fill="url(#C)" stroke="url(#D)" stroke-width=".5284" d="M359.1194-98.3965h13.3008v7.9978h-13.3008z" filter="url(#v)" opacity=".44" transform="matrix(0 .54676 -.51772 0 237.779 -145.2176)"/><path fill="url(#E)" stroke="url(#F)" stroke-width=".5284" d="M359.1194-98.3965h13.3008v7.9978h-13.3008z" filter="url(#v)" opacity=".44" transform="matrix(0 .54676 -.51772 0 91.238 -180.3176)"/><path fill="url(#G)" stroke="url(#H)" stroke-width=".5284" d="M370.0785 242.1555h13.3008v7.9978h-13.3008z" filter="url(#v)" opacity=".44" transform="matrix(0 .54676 -.51772 0 293.4804 19.6905)"/></g><path fill="#f0e893" stroke="#3c0000" stroke-width="1.1418" d="M249.6668 55.5758 102.818 60.695l-25.026 46.4916 146.8488-5.1192c8.2079-15.229-3.5882 9.5493 25.0259-46.4916z"/><g style="line-height:1.25;-inkscape-font-specification:&quot;sans-serif Bold&quot;" word-spacing="0"><path d="M150.0674 73.8857q2.5763 0 3.7525 1.1202 1.1949 1.1015 1.1949 3.0431 0 1.1575-.4855 2.1843-.4854 1.0082-1.6242 1.6243-1.1202.616-3.0618.616h-1.2135v4.7421h-2.819v-13.33Zm-.1494 2.315h-1.2882v3.958h.9335q1.1948 0 1.8856-.4668.7094-.4854.7094-1.5495 0-1.9417-2.2403-1.9417zm15.4939 7.3185q0 1.7736-1.2882 2.8377-1.2695 1.0455-3.6219 1.0455-2.1096 0-3.7712-.8028v-2.6324q.9521.4108 1.9603.7655 1.0268.336 2.035.336 1.0455 0 1.4748-.392.4481-.4108.4481-1.0268 0-.5041-.3547-.8588-.336-.3548-.9148-.6535-.5788-.3174-1.3255-.672-.4668-.2241-1.0082-.5228-.5414-.3174-1.0455-.7655-.4854-.4667-.8028-1.1201-.3173-.6535-.3173-1.5683 0-1.7922 1.2135-2.7817 1.2135-1.0082 3.3045-1.0082 1.0455 0 1.979.2427.952.2427 1.9789.6908l-.9148 2.203q-.9148-.3734-1.643-.5788-.728-.2053-1.4935-.2053-.8028 0-1.2322.3734t-.4294.9708q0 .7094.6348 1.1202.6348.4107 1.8856 1.0081 1.0268.4854 1.7363 1.0082.728.5227 1.1201 1.2321.3921.7095.3921 1.755zm6.3995-6.6837q2.1097 0 3.3419 1.2135 1.2322 1.1949 1.2322 3.4165v1.3442h-6.5717q.0373 1.1762.6908 1.8483.672.6721 1.8483.6721.9894 0 1.7922-.1867.8028-.2054 1.6616-.616v2.147q-.7468.3733-1.5869.5413-.8215.1867-1.9976.1867-1.531 0-2.7071-.56-1.1762-.5788-1.8483-1.7363-.672-1.1575-.672-2.9125 0-1.7922.5974-2.9684.616-1.1949 1.6989-1.7923 1.0828-.5974 2.5203-.5974zm.0187 1.979q-.8027 0-1.3442.5227-.5227.5228-.616 1.6243h3.9019q-.0187-.9335-.4854-1.531-.4668-.616-1.4563-.616z" aria-label="PSe" font-family="sans-serif" font-size="18.6695" font-weight="700" letter-spacing="0" style="-inkscape-font-specification:&quot;sans-serif Bold&quot;" transform="scale(.9508 1.05174)"/></g><path fill="#f0e893" stroke="#120000" stroke-width="1.3321" d="m246.5418 128.2682-146.8245 5.74-24.8208 45.2812 146.8245-5.7401c8.1407-14.8325-3.5461 9.2924 24.8208-45.2811z"/><path stroke="#120000" stroke-width="1.3321" d="M159.8022 155.8441h-4.7468v-.9567l1.5455-.3496v-10.5054l-1.5455-.368v-.9566h4.7468v.9567l-1.5455.368v10.5053l1.5455.3496zm7.0804-10.0454q1.7662 0 2.6677.8647.9016.8463.9016 2.7597v6.421h-1.6007v-6.3106q0-2.3734-2.2078-2.3734-1.6374 0-2.263.92-.6255.9199-.6255 2.6493v5.1147h-1.619v-9.8614h1.3062l.2392 1.343h.092q.4784-.7727 1.3247-1.1407.8463-.3863 1.7846-.3863zm9.9017 8.9047q.368 0 .7543-.0552.3864-.0736.6256-.1472v1.2327q-.2576.1288-.736.2024-.4783.092-.9199.092-.7727 0-1.435-.2576-.644-.276-1.0487-.9383-.4048-.6623-.4048-1.8582v-5.7403h-1.3983v-.7727l1.4167-.644.644-2.0973h.9566v2.263h2.8518v1.251h-2.8518v5.7035q0 .9015.4232 1.343.4416.4232 1.1223.4232z" aria-label="Int" font-family="sans-serif" font-size="18.3982" font-weight="400" letter-spacing="0" style="line-height:1.25" transform="scale(.96482 1.03646)" word-spacing="0"/><g fill="url(#I)" clip-path="url(#J)" transform="matrix(.88274 0 0 1.12724 142.9341 161.6436)"><use xlink:href="#K"/></g><g fill="url(#L)" clip-path="url(#M)" transform="matrix(.88274 0 0 1.12724 143.5451 18.2487)"><use xlink:href="#K"/></g><g fill="url(#N)" clip-path="url(#O)" transform="matrix(.88274 0 0 1.12724 142.7304 90.988)"><use xlink:href="#K"/></g></svg>