<svg xmlns="http://www.w3.org/2000/svg" xmlns:xlink="http://www.w3.org/1999/xlink" width="324" height="234"><defs><linearGradient id="f"><stop offset="0" stop-color="#fffeff" stop-opacity=".72"/><stop offset="1" stop-color="#ececec" stop-opacity=".23"/></linearGradient><linearGradient id="d"><stop offset="0" stop-color="#363536" stop-opacity=".21"/><stop offset=".08" stop-color="#7e7e80" stop-opacity=".15"/><stop offset=".18" stop-color="#b3b5b8" stop-opacity=".25"/><stop offset=".41" stop-color="#f2f1f0" stop-opacity=".1"/><stop offset="1" stop-color="#f7fbfc" stop-opacity=".03"/></linearGradient><linearGradient id="a" x1="-1.5" x2="181.7" y1="64.8" y2="64.8" gradientTransform="scale(1.8)" gradientUnits="userSpaceOnUse"><stop offset="0" stop-color="#e72662"/><stop offset=".5" stop-color="#ec3c50"/><stop offset="1" stop-color="#ff7b66"/></linearGradient><linearGradient id="b" x1="176.6" x2="176.6" y1="75.4" y2="122.9" gradientTransform="matrix(0 -.3 .25 0 141.4 194.7)" gradientUnits="userSpaceOnUse"><stop offset="0" stop-color="#d7d3cd"/><stop offset="1" stop-color="#f4f3f1"/></linearGradient><linearGradient id="c" x1="176.5" x2="176.5" y1="87.9" y2="112" gradientTransform="matrix(0 -.17 .25 0 141.5 185)" gradientUnits="userSpaceOnUse"><stop offset="0" stop-color="#e70b22"/><stop offset="1" stop-color="#f85858"/></linearGradient><linearGradient id="e" x1="192" x2="192" y1="148" y2="100" gradientTransform="matrix(0 -.77 .8 0 67.8 254.8)" gradientUnits="userSpaceOnUse"><stop offset="0" stop-color="#e5e2dd"/><stop offset="1" stop-color="#f2f1ee"/></linearGradient><linearGradient xlink:href="#a" id="g" x1="0" x2="180" y1="0" y2="0" gradientTransform="scale(1.8)" gradientUnits="userSpaceOnUse"/><linearGradient xlink:href="#b" id="o" x1="176.6" x2="176.6" y1="75.4" y2="122.9" gradientTransform="matrix(0 -.3 .25 0 187.1 194.7)" gradientUnits="userSpaceOnUse"/><linearGradient xlink:href="#c" id="p" x1="176.5" x2="176.5" y1="87.9" y2="112" gradientTransform="matrix(0 -.17 .25 0 187.2 185)" gradientUnits="userSpaceOnUse"/><linearGradient xlink:href="#d" id="i" x1="166.13" x2="166.13" y1="122.2" y2="142.8" gradientUnits="userSpaceOnUse"/><linearGradient xlink:href="#d" id="l" x1="166.13" x2="166.13" y1="122.2" y2="142.8" gradientTransform="translate(-6.9 -71.94)" gradientUnits="userSpaceOnUse"/><linearGradient xlink:href="#d" id="s" x1="166.13" x2="166.13" y1="122.2" y2="142.8" gradientTransform="translate(45.8 -20.8)" gradientUnits="userSpaceOnUse"/><linearGradient xlink:href="#d" id="v" x1="166.13" x2="166.13" y1="122.2" y2="142.8" gradientTransform="translate(-6.9 -71.94)" gradientUnits="userSpaceOnUse"/><linearGradient xlink:href="#e" id="q" x1="192" x2="192" y1="148" y2="100" gradientTransform="matrix(0 -.77 .8 0 113.6 234)" gradientUnits="userSpaceOnUse"/><filter id="h" width="1.16" height="1.11" x="-.08" y="-.05" color-interpolation-filters="sRGB"><feFlood flood-color="#121213" flood-opacity=".36" result="flood"/><feGaussianBlur in="SourceGraphic" result="blur" stdDeviation="1.2"/><feOffset dx=".15" dy=".2" in="blur" result="offset"/><feComposite in="flood" in2="offset" operator="in" result="comp1"/><feComposite in="SourceGraphic" in2="comp1" result="comp2"/></filter><filter id="k" width="1.01" height="1.02" x="-.01" y="-.01" color-interpolation-filters="sRGB"><feGaussianBlur stdDeviation=".01"/></filter><filter id="n" width="1.01" height="1.02" x="-.01" y="-.01" color-interpolation-filters="sRGB"><feGaussianBlur stdDeviation=".01"/></filter><filter id="x" width="1.01" height="1.02" x="-.01" y="-.01" color-interpolation-filters="sRGB"><feGaussianBlur stdDeviation=".01"/></filter><filter id="r" width="1.16" height="1.11" x="-.08" y="-.05" color-interpolation-filters="sRGB"><feFlood flood-color="#121213" flood-opacity=".36" result="flood"/><feGaussianBlur in="SourceGraphic" result="blur" stdDeviation="1.2"/><feOffset dx=".15" dy=".2" in="blur" result="offset"/><feComposite in="flood" in2="offset" operator="in" result="comp1"/><feComposite in="SourceGraphic" in2="comp1" result="comp2"/></filter><filter id="u" width="1.01" height="1.02" x="-.01" y="-.01" color-interpolation-filters="sRGB"><feGaussianBlur stdDeviation=".01"/></filter><radialGradient xlink:href="#f" id="j" cx="158.27" cy="122.17" r="17.87" fx="158.27" fy="122.17" gradientTransform="matrix(1.62 0 0 .6 -97.56 53.88)" gradientUnits="userSpaceOnUse"/><radialGradient xlink:href="#f" id="m" cx="158.27" cy="122.17" r="17.87" fx="158.27" fy="122.17" gradientTransform="matrix(1.62 0 0 .6 -104.46 -18.06)" gradientUnits="userSpaceOnUse"/><radialGradient xlink:href="#f" id="w" cx="158.27" cy="122.17" r="17.87" fx="158.27" fy="122.17" gradientTransform="matrix(1.62 0 0 .6 -104.46 -18.06)" gradientUnits="userSpaceOnUse"/><radialGradient xlink:href="#f" id="t" cx="158.27" cy="122.17" r="17.87" fx="158.27" fy="122.17" gradientTransform="matrix(1.62 0 0 .6 -51.76 33.08)" gradientUnits="userSpaceOnUse"/></defs><path fill="url(#g)" d="M0 0h324v234H0Z"/><path fill="#313a40" d="M88.1 60.6v113.8h39.3V60.6Zm0 0"/><path fill="#a6ff56" d="M93 160.1h29.5v9.5H93Zm0 0"/><path fill="#beff40" d="M93 157.8h29.5v-9.5H93Zm0 0"/><path fill="#cbff44" d="M93 136.4h29.5v9.5H93Zm0 0"/><path fill="#e7ff4e" d="M93 134h29.5v-9.4H93Zm0 0"/><path fill="#adad3f" d="M93 122.2h29.5v-9.5H93Zm0 0"/><path fill="#ac9b3f" d="M93 100.9h29.5v9.5H93Zm0 0"/><path fill="#ad8f3f" d="M93 98.5h29.5V89H93Zm0 0"/><path fill="#ae7e40" d="M93 86.7h29.5v-9.5H93Zm0 0"/><path fill="#ae6840" d="M93 65.3h29.5v9.5H93Zm0 0"/><path fill="url(#b)" d="M160.4 161.7V71.4c0-11 0-13.4 6-13.4s6 2.4 6 13.4v90.3c0 11 0 13.5-6 13.5s-6-2.5-6-13.5zm0 0"/><path fill="url(#c)" d="M163.4 169.6c0 2 .4 3.1 3 3.1 3 0 3-1.3 3-4V144h-6zm0 0"/><path fill="url(#e)" stroke="url(#meshgradient54)" stroke-width=".6" d="M147.2 120v-6c0-18.4 0-24.5 19-24.5s19 6.1 19 24.5v6.1c0 18.4 0 24.5-19 24.5s-19-6.1-19-24.5zm0 0" filter="url(#h)"/><path fill="url(#i)" stroke="url(#j)" stroke-linecap="round" stroke-linejoin="round" stroke-width=".4" d="M160.4 122.2c-1.8 0-11.84 0-11.84 3.26 0 15.7 6.54 17.34 11.3 17.34h12.54c4.75 0 11.3-1.65 11.3-17.34 0-3.26-9.5-3.26-11.3-3.26h-6.27z" filter="url(#k)"/><path fill="url(#l)" stroke="url(#m)" stroke-linecap="round" stroke-linejoin="round" stroke-width=".4" d="M153.5 50.26c-1.8 0-11.84 0-11.84 3.25 0 15.7 6.54 17.35 11.3 17.35h12.54c4.75 0 11.3-1.65 11.3-17.35 0-3.25-9.5-3.25-11.3-3.25h-6.27z" filter="url(#n)" transform="matrix(1 0 0 -1 6.9 162.16)"/><path fill="url(#o)" d="M206.1 161.7V71.4c0-11 0-13.4 6-13.4s6 2.4 6 13.4v90.3c0 11 0 13.5-6 13.5s-6-2.5-6-13.5zm0 0"/><path fill="url(#p)" d="M209.1 169.6c0 2 .4 3.1 3 3.1 3 0 3-1.3 3-4V99.2h-6z"/><path fill="url(#q)" stroke="url(#meshgradient54)" stroke-width=".6" d="M193 99.2v-6c0-18.4 0-24.5 19-24.5s19 6.1 19 24.5v6.1c0 18.4 0 24.5-19 24.5s-19-6.1-19-24.5zm0 0" filter="url(#r)"/><path fill="url(#s)" stroke="url(#t)" stroke-linecap="round" stroke-linejoin="round" stroke-width=".4" d="M206.2 101.4c-1.8 0-11.84 0-11.84 3.26 0 15.7 6.54 17.34 11.3 17.34h12.54c4.75 0 11.3-1.65 11.3-17.34 0-3.26-9.5-3.26-11.3-3.26h-6.27z" filter="url(#u)"/><path fill="url(#v)" stroke="url(#w)" stroke-linecap="round" stroke-linejoin="round" stroke-width=".4" d="M153.5 50.26c-1.8 0-11.84 0-11.84 3.25 0 15.7 6.54 17.35 11.3 17.35h12.54c4.75 0 11.3-1.65 11.3-17.35 0-3.25-9.5-3.25-11.3-3.25h-6.27z" filter="url(#x)" transform="matrix(1 0 0 -1 52.7 141.36)"/></svg>