<?xml version="1.0" encoding="UTF-8"?>
<svg xmlns="http://www.w3.org/2000/svg" xmlns:xlink="http://www.w3.org/1999/xlink" width="324px" height="234px" viewBox="0 0 324 234" version="1.1">
<defs>
<radialGradient id="radial0" gradientUnits="userSpaceOnUse" cx="90.136406" cy="64.761543" fx="90.136406" fy="64.761543" r="91.591759" gradientTransform="matrix(1.8,0,0,1.304046,0,32.11876)">
<stop offset="0" style="stop-color:rgb(7.058824%,33.725491%,66.666669%);stop-opacity:1;"/>
<stop offset="1" style="stop-color:rgb(7.843138%,37.254903%,73.333335%);stop-opacity:1;"/>
</radialGradient>
<clipPath id="clip1">
  <path d="M 75 77 L 157 77 L 157 194 L 75 194 Z M 75 77 "/>
</clipPath>
<clipPath id="clip2">
  <path d="M 295.707031 116.574219 C 295.707031 194.53125 235.917969 257.675781 162.246094 257.675781 C 88.574219 257.675781 28.785156 194.53125 28.785156 116.574219 C 28.785156 38.617188 88.574219 -24.527344 162.246094 -24.527344 C 235.917969 -24.527344 295.707031 38.617188 295.707031 116.574219 Z M 295.707031 116.574219 "/>
</clipPath>
<clipPath id="clip3">
  <path d="M 168 39 L 250 39 L 250 158 L 168 158 Z M 168 39 "/>
</clipPath>
<clipPath id="clip4">
  <path d="M 295.707031 116.574219 C 295.707031 194.53125 235.917969 257.675781 162.246094 257.675781 C 88.574219 257.675781 28.785156 194.53125 28.785156 116.574219 C 28.785156 38.617188 88.574219 -24.527344 162.246094 -24.527344 C 235.917969 -24.527344 295.707031 38.617188 295.707031 116.574219 Z M 295.707031 116.574219 "/>
</clipPath>
</defs>
<g id="surface1">
<rect x="0" y="0" width="324" height="234" style="fill:url(#radial0);stroke:none;"/>
<path style="fill:none;stroke-width:1.021703;stroke-linecap:butt;stroke-linejoin:miter;stroke:rgb(100%,100%,100%);stroke-opacity:1;stroke-miterlimit:4;" d="M -0.94401 -1.082899 L 181.217448 -1.082899 L 181.217448 130.605469 L -0.94401 130.605469 Z M -0.94401 -1.082899 " transform="matrix(1.8,0,0,1.8,0,0)"/>
<g clip-path="url(#clip1)" clip-rule="nonzero">
<g clip-path="url(#clip2)" clip-rule="nonzero">
<path style=" stroke:none;fill-rule:nonzero;fill:rgb(100%,100%,100%);fill-opacity:1;" d="M 111.699219 77.367188 C 91.523438 77.367188 75.203125 95.167969 75.203125 117.195312 C 75.203125 139.21875 91.527344 156.996094 111.699219 156.996094 C 122.398438 156.996094 132.351562 155.246094 139.035156 147.242188 L 139.035156 184.050781 C 139.035156 189.558594 142.683594 193.253906 147.738281 193.253906 C 152.792969 193.253906 156.441406 189.558594 156.441406 184.050781 L 156.441406 85.894531 C 156.441406 80.382812 152.863281 77.335938 147.808594 77.335938 C 142.753906 77.335938 139.355469 80.378906 139.035156 85.894531 L 138.785156 90.253906 L 139.035156 104.296875 L 150.640625 104.296875 C 144.363281 113.765625 139.917969 119.683594 133.230469 128.835938 C 126.339844 119.585938 122.695312 113.574219 115.824219 104.296875 L 127.429688 104.296875 L 127.429688 79.757812 C 123.757812 78.441406 115.765625 77.335938 111.699219 77.335938 M 111.699219 77.359375 "/>
</g>
</g>
<g clip-path="url(#clip3)" clip-rule="nonzero">
<g clip-path="url(#clip4)" clip-rule="nonzero">
<path style=" stroke:none;fill-rule:nonzero;fill:rgb(100%,100%,100%);fill-opacity:1;" d="M 176.480469 39.886719 C 171.425781 39.886719 168.046875 43.582031 168.046875 49.089844 L 168.046875 147.246094 C 168.046875 152.78125 171.425781 157.003906 176.480469 157.003906 C 181.535156 157.003906 185.003906 152.761719 185.457031 147.246094 L 185.707031 144.082031 L 185.457031 128.84375 L 173.851562 128.84375 C 180.402344 120.003906 184.683594 113.167969 191.257812 104.304688 C 198.128906 113.605469 201.78125 119.59375 208.667969 128.84375 L 197.0625 128.84375 L 197.0625 153.382812 C 200.734375 154.726562 208.726562 157.003906 212.792969 157.003906 C 232.96875 157.003906 249.285156 139.199219 249.285156 117.199219 C 249.285156 95.175781 232.964844 77.371094 212.792969 77.371094 C 202.09375 77.371094 192.140625 84.058594 185.457031 92.066406 L 185.457031 49.121094 C 185.457031 43.589844 181.558594 39.917969 176.480469 39.917969 M 176.480469 39.894531 "/>
</g>
</g>
</g>
</svg>
