<?xml version="1.0" encoding="UTF-8"?>
<svg xmlns="http://www.w3.org/2000/svg" xmlns:xlink="http://www.w3.org/1999/xlink" width="324px" height="234px" viewBox="0 0 324 234" version="1.1">
<defs>
<linearGradient id="linear0" gradientUnits="userSpaceOnUse" x1="-1.455352" y1="64.761543" x2="181.728165" y2="64.761543" gradientTransform="matrix(1.8,0,0,1.8,0,0)">
<stop offset="0" style="stop-color:rgb(14.901961%,54.901963%,67.843139%);stop-opacity:1;"/>
<stop offset="1" style="stop-color:rgb(14.901961%,34.509805%,57.647061%);stop-opacity:0.815686;"/>
</linearGradient>
</defs>
<g id="surface1">
<rect x="0" y="0" width="324" height="234" style="fill:url(#linear0);stroke:none;"/>
<path style="fill:none;stroke-width:1.021703;stroke-linecap:butt;stroke-linejoin:miter;stroke:rgb(100%,100%,100%);stroke-opacity:1;stroke-miterlimit:4;" d="M -0.94401 -1.082899 L 181.217448 -1.082899 L 181.217448 130.605469 L -0.94401 130.605469 Z M -0.94401 -1.082899 " transform="matrix(1.8,0,0,1.8,0,0)"/>
<path style=" stroke:none;fill-rule:nonzero;fill:rgb(100%,100%,100%);fill-opacity:1;" d="M 177.960938 45.675781 C 168.011719 50.6875 163.664062 59.753906 159.160156 68.292969 C 156.300781 64.570312 155.566406 59.347656 154.457031 54.722656 C 145.664062 65.867188 141.789062 84.390625 138.25 95.535156 C 133.238281 111.375 126.855469 121.089844 117.738281 126.753906 C 112.320312 130.121094 107.457031 131.84375 96.960938 134.132812 C 96.300781 134.320312 95.890625 134.382812 95.195312 134.558594 C 102.460938 165.164062 126.632812 187.421875 168.753906 187.421875 L 185.539062 187.421875 C 187.773438 180.164062 187.8125 171.886719 186.472656 166.410156 C 185.359375 162.167969 182.464844 154.542969 182.660156 154.246094 C 182.851562 153.945312 187.566406 154.402344 191.585938 154.402344 C 196.332031 154.402344 199.816406 154.570312 202.332031 153.835938 C 204.457031 153.214844 207 152.207031 208.507812 152.277344 C 215.214844 152.605469 223.699219 149.675781 225.941406 143.933594 C 226.636719 142.148438 227.84375 139.851562 228.613281 138.828125 C 229.878906 137.152344 229.921875 136.671875 229.113281 134.035156 C 227.96875 130.304688 225.632812 127.214844 220.6875 122.867188 C 216.941406 119.578125 215.738281 119.242188 215.550781 115.710938 C 215.414062 113.125 216.136719 111.3125 214.675781 109.992188 C 213.027344 108.488281 208.15625 109.453125 207.886719 109.425781 C 206.152344 107.480469 204.5 105.449219 207.695312 102.644531 C 210.109375 100.519531 210.550781 99.726562 210.550781 97.398438 C 210.550781 95.109375 210.121094 94.296875 208.023438 92.527344 C 206.640625 91.359375 205.152344 90.414062 204.710938 90.414062 C 204.273438 90.414062 202.046875 88.695312 199.777344 86.617188 C 195.371094 82.582031 191.964844 81.859375 188.53125 81.859375 C 185.753906 81.859375 182.660156 81.203125 182.660156 77.339844 C 186.351562 64.46875 200.613281 57.691406 206.15625 54.722656 C 192.121094 52.808594 182.5625 55.640625 173.253906 63.773438 C 172.816406 59.046875 177.4375 48.730469 177.960938 45.675781 Z M 177.960938 45.675781 "/>
<path style="fill-rule:nonzero;fill:rgb(100%,100%,100%);fill-opacity:1;stroke-width:4.488177;stroke-linecap:butt;stroke-linejoin:miter;stroke:rgb(100%,100%,100%);stroke-opacity:1;stroke-miterlimit:4;" d="M 50.620284 77.089918 L 94.632516 77.089918 L 94.632516 104.353557 L 50.620284 104.353557 Z M 50.620284 77.089918 " transform="matrix(1.689694,0,0,1.677486,13.096136,8.647584)"/>
</g>
</svg>
