<?xml version="1.0" encoding="UTF-8"?>
<svg xmlns="http://www.w3.org/2000/svg" xmlns:xlink="http://www.w3.org/1999/xlink" width="324px" height="234px" viewBox="0 0 324 234" version="1.1">
<defs>
<linearGradient id="linear0" gradientUnits="userSpaceOnUse" x1="8.256768" y1="25.861578" x2="39.760132" y2="25.861578" gradientTransform="matrix(0.000000000000000313,-5.424164,5.117609,0.000000000000000332,-328.897365,240.080114)">
<stop offset="0" style="stop-color:rgb(30.980393%,58.431375%,86.666667%);stop-opacity:1;"/>
<stop offset="1" style="stop-color:rgb(37.64706%,62.352943%,87.843138%);stop-opacity:1;"/>
</linearGradient>
<linearGradient id="linear1" gradientUnits="userSpaceOnUse" x1="8.256768" y1="25.861578" x2="39.760132" y2="25.861578" gradientTransform="matrix(0.000000000000000061,-1,1,0.000000000000000061,-70.808503,47.482337)">
<stop offset="0" style="stop-color:rgb(30.980393%,58.431375%,86.666667%);stop-opacity:1;"/>
<stop offset="1" style="stop-color:rgb(37.64706%,62.352943%,87.843138%);stop-opacity:1;"/>
</linearGradient>
<linearGradient id="linear2" gradientUnits="userSpaceOnUse" x1="8.256768" y1="25.861578" x2="39.760132" y2="25.861578" gradientTransform="matrix(0.000000000000000357,-4.761277,5.830106,0.000000000000000292,-379.348277,208.604654)">
<stop offset="0" style="stop-color:rgb(30.980393%,58.431375%,86.666667%);stop-opacity:1;"/>
<stop offset="1" style="stop-color:rgb(37.64706%,62.352943%,87.843138%);stop-opacity:1;"/>
</linearGradient>
<linearGradient id="linear3" gradientUnits="userSpaceOnUse" x1="8.256768" y1="25.861578" x2="39.760132" y2="25.861578" gradientTransform="matrix(0.000000000000000061,-1,1,0.000000000000000061,-70.808503,47.482337)">
<stop offset="0" style="stop-color:rgb(30.980393%,58.431375%,86.666667%);stop-opacity:1;"/>
<stop offset="1" style="stop-color:rgb(37.64706%,62.352943%,87.843138%);stop-opacity:1;"/>
</linearGradient>
<linearGradient id="linear4" gradientUnits="userSpaceOnUse" x1="8.256768" y1="25.861578" x2="39.760132" y2="25.861578" gradientTransform="matrix(0.000000000000000391,-4.35154,6.379063,0.000000000000000266,-418.219075,189.149395)">
<stop offset="0" style="stop-color:rgb(30.980393%,58.431375%,86.666667%);stop-opacity:1;"/>
<stop offset="1" style="stop-color:rgb(37.64706%,62.352943%,87.843138%);stop-opacity:1;"/>
</linearGradient>
<linearGradient id="linear5" gradientUnits="userSpaceOnUse" x1="8.256768" y1="25.861578" x2="39.760132" y2="25.861578" gradientTransform="matrix(0.000000000000000061,-1,1,0.000000000000000061,-70.808503,47.482337)">
<stop offset="0" style="stop-color:rgb(30.980393%,58.431375%,86.666667%);stop-opacity:1;"/>
<stop offset="1" style="stop-color:rgb(37.64706%,62.352943%,87.843138%);stop-opacity:1;"/>
</linearGradient>
</defs>
<g id="surface1">
<rect x="0" y="0" width="324" height="234" style="fill:rgb(90.196079%,90.196079%,90.196079%);fill-opacity:1;stroke:none;"/>
<path style=" stroke:none;fill-rule:nonzero;fill:url(#linear0);" d="M 176.871094 55.46875 L 135.605469 177.953125 L 121.027344 177.953125 L 79.761719 55.46875 L 94.980469 55.46875 L 121.027344 134.03125 C 122.753906 139.0625 124.214844 143.78125 125.402344 148.1875 C 126.589844 152.59375 127.558594 156.796875 128.308594 160.796875 C 129.066406 156.796875 130.042969 152.570312 131.230469 148.109375 C 132.417969 143.640625 133.875 138.835938 135.605469 133.6875 L 161.496094 55.46875 Z M 176.871094 55.46875 "/>
<path style="fill:none;stroke-width:0.79064;stroke-linecap:butt;stroke-linejoin:miter;stroke:url(#linear1);stroke-miterlimit:4;" d="M 28.02056 13.44735 L 19.957102 36.028593 L 17.108481 36.028593 L 9.045022 13.44735 L 12.018823 13.44735 L 17.108481 27.931148 C 17.445858 28.85871 17.73133 29.72866 17.963372 30.540997 C 18.195414 31.353334 18.384712 32.128223 18.531265 32.865664 C 18.679344 32.128223 18.870168 31.349013 19.10221 30.526594 C 19.334252 29.702734 19.618961 28.816941 19.957102 27.867774 L 25.016227 13.44735 Z M 9.045022 2.220102 " transform="matrix(5.117609,0,0,5.424164,33.472836,-17.471884)"/>
<path style=" stroke:none;fill-rule:nonzero;fill:url(#linear2);" d="M 220.058594 55.195312 C 228.191406 55.195312 234.339844 56.804688 238.496094 60.023438 C 242.652344 63.242188 244.730469 68.453125 244.730469 75.648438 L 244.730469 111.898438 L 233.667969 111.898438 L 233.667969 76.273438 C 233.667969 67.347656 228.578125 62.882812 218.402344 62.882812 C 210.859375 62.882812 205.644531 64.613281 202.761719 68.070312 C 199.875 71.53125 198.433594 76.515625 198.433594 83.023438 L 198.433594 111.898438 L 187.246094 111.898438 L 187.246094 56.226562 L 196.277344 56.226562 L 197.933594 63.804688 L 198.558594 63.804688 C 200.765625 60.898438 203.816406 58.738281 207.714844 57.320312 C 211.621094 55.90625 215.734375 55.195312 220.058594 55.195312 Z M 220.058594 55.195312 "/>
<path style="fill:none;stroke-width:0.545369;stroke-linecap:butt;stroke-linejoin:miter;stroke:url(#linear3);stroke-miterlimit:4;" d="M 32.003834 15.262125 C 33.398802 15.262125 34.453403 15.600138 35.166297 16.276165 C 35.879192 16.952191 36.235639 18.046633 36.235639 19.557848 L 36.235639 27.171352 L 34.338161 27.171352 L 34.338161 19.689115 C 34.338161 17.814454 33.465133 16.876713 31.719748 16.876713 C 30.425952 16.876713 29.531484 17.240159 29.037014 17.966231 C 28.541874 18.693124 28.294639 19.739981 28.294639 21.106802 L 28.294639 27.171352 L 26.37572 27.171352 L 26.37572 15.478716 L 27.924792 15.478716 L 28.208877 17.070332 L 28.316079 17.070332 C 28.694637 16.459939 29.217918 16.006246 29.886591 15.708434 C 30.556605 15.411441 31.262129 15.262125 32.003834 15.262125 Z M 24.521123 3.851713 " transform="matrix(5.830106,0,0,4.761277,33.472836,-17.471884)"/>
<path style=" stroke:none;fill-rule:nonzero;fill:url(#linear4);" d="M 220.5625 177.757812 C 213.539062 177.757812 207.285156 176.777344 201.796875 174.820312 C 196.316406 172.863281 192.019531 169.828125 188.90625 165.710938 C 185.789062 161.597656 184.234375 156.335938 184.234375 149.929688 C 184.234375 143.253906 185.863281 137.828125 189.125 133.648438 C 192.382812 129.460938 196.804688 126.394531 202.390625 124.445312 C 207.984375 122.488281 214.335938 121.507812 221.453125 121.507812 C 225.503906 121.507812 229.410156 121.796875 233.171875 122.367188 C 236.929688 122.941406 239.992188 123.628906 242.359375 124.429688 L 238.359375 131.820312 C 235.984375 131.21875 233.210938 130.644531 230.046875 130.101562 C 226.890625 129.5625 223.925781 129.289062 221.15625 129.289062 C 205.539062 129.289062 197.734375 136.140625 197.734375 149.835938 C 197.734375 156.378906 199.632812 161.390625 203.4375 164.867188 C 207.238281 168.335938 212.898438 170.070312 220.421875 170.070312 C 224.765625 170.070312 228.59375 169.769531 231.90625 169.164062 C 235.21875 168.550781 238.257812 167.804688 241.03125 166.929688 L 241.03125 174.820312 C 238.363281 175.769531 235.421875 176.492188 232.203125 176.992188 C 228.992188 177.5 225.113281 177.757812 220.5625 177.757812 Z M 220.5625 177.757812 "/>
<path style="fill:none;stroke-width:0.581201;stroke-linecap:butt;stroke-linejoin:miter;stroke:url(#linear5);stroke-miterlimit:4;" d="M 29.328706 44.864509 C 28.227692 44.864509 27.247312 44.639194 26.386953 44.189461 C 25.527819 43.739728 24.854229 43.042237 24.366182 42.096092 C 23.877523 41.150845 23.633806 39.941683 23.633806 38.469503 C 23.633806 36.935383 23.889158 35.688519 24.400474 34.728011 C 24.911178 33.765708 25.604364 33.061036 26.480031 32.613099 C 27.356923 32.163366 28.352612 31.93805 29.468323 31.93805 C 30.103335 31.93805 30.715689 32.004478 31.305387 32.135538 C 31.894472 32.267495 32.374559 32.425485 32.745646 32.609508 L 32.118594 34.307901 C 31.746282 34.16966 31.311511 34.037702 30.815503 33.912926 C 30.32072 33.789047 29.855943 33.72621 29.421784 33.72621 C 26.973589 33.72621 25.750104 35.300725 25.750104 38.447959 C 25.750104 39.951557 26.047709 41.103269 26.644142 41.902196 C 27.239963 42.699327 28.127266 43.097893 29.306661 43.097893 C 29.987599 43.097893 30.587707 43.028772 31.106984 42.889633 C 31.626261 42.748699 32.102673 42.577244 32.537445 42.376166 L 32.537445 44.189461 C 32.119207 44.407595 31.658103 44.573664 31.153523 44.688566 C 30.650167 44.805263 30.042099 44.864509 29.328706 44.864509 Z M 22.355209 19.778202 " transform="matrix(6.379063,0,0,4.35154,33.472836,-17.471884)"/>
</g>
</svg>
