<svg xmlns="http://www.w3.org/2000/svg" xmlns:xlink="http://www.w3.org/1999/xlink" xml:space="preserve" width="324" height="234" viewBox="0 0 324 234"><defs><radialGradient xlink:href="#a" id="b" cx="103.8" cy="161.1" r="162" fx="103.8" fy="161.1" gradientTransform="matrix(1.23 -.38 .33 1.07 -76.4 15.7)" gradientUnits="userSpaceOnUse"/><linearGradient id="a"><stop offset="0" stop-color="#223749"/><stop offset="1" stop-color="#0e1f22"/></linearGradient></defs><path fill="url(#b)" d="M0 0h324v234H0z"/><path stroke="#fff" stroke-width="3.4" d="m125.7 73.1 11 13.5h-22l-5 20.3H96.2l5-20.3H87.8l-10 40.5h27l-3.4 13.5H125L107.2 161H127l16.4-20.3h37.2L197 161h19.8l-17.7-20.3h23.7l-3.4-13.5h27l-10.1-40.5h-13.5l5 20.3h-13.5l-5-20.3h-22l11-13.5h-14.4l-11.8 13.5H152l-12-13.6zm1.7 27H141v13.5h-13.5zm55.7 0h13.5v13.5h-13.5z" style="mix-blend-mode:lighten"/></svg>