<svg xmlns="http://www.w3.org/2000/svg" xmlns:xlink="http://www.w3.org/1999/xlink" width="324" height="234"><defs><linearGradient id="h"><stop offset="0" stop-color="#cdd5c8"/><stop offset="1"/></linearGradient><linearGradient id="c"><stop offset="0" stop-color="#8a12fb"/><stop offset=".1241" stop-color="#4d027c"/><stop offset=".2897" stop-color="#0913e3"/><stop offset=".508" stop-color="#22e616"/><stop offset=".6989" stop-color="#ecf20a"/><stop offset=".8575" stop-color="#e47f07"/><stop offset="1" stop-color="#fe0303"/></linearGradient><linearGradient id="g"><stop offset="0" stop-color="#fff"/><stop offset="1" stop-color="#fff" stop-opacity="0"/></linearGradient><linearGradient id="b"><stop offset="0" stop-color="#fff"/><stop offset="1" stop-color="#fff" stop-opacity="0"/></linearGradient><linearGradient id="a"><stop offset="0" stop-color="#fff"/><stop offset="1" stop-color="#fff" stop-opacity="0"/></linearGradient><linearGradient id="f"><stop offset="0" stop-color="#3d3d3d"/><stop offset="1" stop-color="#3d3d3d" stop-opacity=".7"/></linearGradient><linearGradient id="e"><stop offset="0" stop-color="#3d3d3d" stop-opacity=".1057"/><stop offset="1" stop-color="#3d3d3d"/></linearGradient><linearGradient id="d"><stop offset="0" stop-color="#e6e6e6"/><stop offset="1" stop-color="#e6e6e6" stop-opacity="0"/></linearGradient><linearGradient id="j" x1="113.4915" x2="114.7119" y1="123.4915" y2=".6441" gradientTransform="matrix(1.8 0 0 1.8 -116.4203 .5644)" gradientUnits="userSpaceOnUse"><stop offset="0" stop-color="#6f3fff"/><stop offset="1" stop-color="#2ab1ff"/></linearGradient><linearGradient xlink:href="#a" id="w" x1="147.4285" x2="176.8867" y1="72.3194" y2="68.3984" gradientUnits="userSpaceOnUse"/><linearGradient xlink:href="#b" id="x" x1="147.4285" x2="176.8867" y1="72.3194" y2="68.3984" gradientUnits="userSpaceOnUse"/><linearGradient xlink:href="#c" id="z" x1="170.7597" x2="172.4368" y1="73.6978" y2="70.0975" gradientUnits="userSpaceOnUse"/><filter id="i" width="1" height="1" x="0" y="0" filterUnits="objectBoundingBox"><feColorMatrix in="SourceGraphic" values="0 0 0 0 1 0 0 0 0 1 0 0 0 0 1 0 0 0 1 0"/></filter><filter id="s" width="1.0868" height="1.0853" x="-.0434" y="-.0427" color-interpolation-filters="sRGB"><feGaussianBlur stdDeviation=".2096"/></filter><filter id="k" width="1.0229" height="1.0184" x="-.0115" y="-.0092" color-interpolation-filters="sRGB"><feGaussianBlur stdDeviation=".0966"/></filter><filter id="p" width="1.0346" height="1.0346" x="-.0173" y="-.0173" color-interpolation-filters="sRGB"><feGaussianBlur stdDeviation=".4833"/></filter><filter id="r" width="1.0778" height="1.0778" x="-.0389" y="-.0389" color-interpolation-filters="sRGB"><feGaussianBlur stdDeviation=".2175"/></filter><filter id="A" width="1.2494" height="1.3097" x="-.1247" y="-.1549" color-interpolation-filters="sRGB"><feGaussianBlur stdDeviation=".6194"/></filter><filter id="v" width="1.3782" height="1.3908" x="-.1891" y="-.2024" color-interpolation-filters="sRGB"><feGaussianBlur stdDeviation=".8308"/></filter><filter id="y" width="1.1041" height="1.3917" x="-.052" y="-.1959" color-interpolation-filters="sRGB"><feGaussianBlur stdDeviation=".3486"/></filter><radialGradient xlink:href="#d" id="m" cx="162.457" cy="68.3984" r="14.9297" fx="162.457" fy="68.3984" gradientTransform="matrix(1 0 0 1.0173 0 -1.1811)" gradientUnits="userSpaceOnUse"/><radialGradient xlink:href="#e" id="n" cx="162.2441" cy="129.9941" r="43.627" fx="162.2441" fy="129.9941" gradientUnits="userSpaceOnUse"/><radialGradient xlink:href="#f" id="q" cx="195.8047" cy="69.5879" r="7.7177" fx="195.8047" fy="69.5879" gradientTransform="matrix(1 0 0 1.0003 3.2593 -.0176)" gradientUnits="userSpaceOnUse"/><radialGradient xlink:href="#f" id="t" cx="195.8047" cy="69.5879" r="7.7177" fx="195.8047" fy="69.5879" gradientTransform="matrix(1 0 0 1.0003 -69.9546 -.0176)" gradientUnits="userSpaceOnUse"/><radialGradient xlink:href="#g" id="u" cx="159.0391" cy="70.0424" r="8.6137" fx="159.0391" fy="70.0424" gradientTransform="matrix(1 0 0 .9539 0 3.2291)" gradientUnits="userSpaceOnUse"/><radialGradient xlink:href="#h" id="l" cx="162.457" cy="68.3984" r="14.9297" fx="162.457" fy="68.3984" gradientTransform="matrix(1 0 0 1.0173 0 -1.181)" gradientUnits="userSpaceOnUse"/><mask id="o"><g filter="url(#i)"><path fill-opacity=".2" d="M0 0h324v234H0z"/></g></mask></defs><path fill="url(#j)" d="M0 0h324v234H0z"/><path fill="#e3e3e3" stroke="#cfcfcf" stroke-width="2" d="M209.2305 49.4531h-93.9688c-3.707 0-6.711 3.004-6.711 6.711v120.8125c0 3.707 3.004 6.7109 6.711 6.7109h93.9688c3.703 0 6.711-3.004 6.711-6.711V56.1642c0-3.707-3.008-6.711-6.711-6.711Zm0 0" filter="url(#k)"/><rect width="28.8594" height="29.375" x="148.0273" y="53.7109" fill="url(#l)" stroke="url(#m)" stroke-linecap="round" stroke-linejoin="round" rx="1" ry="1"/><path fill="url(#n)" d="M162.246 86.3672c24.0938 0 43.625 19.5312 43.625 43.6289 0 24.0937-19.5312 43.625-43.625 43.625-24.0937 0-43.6288-19.5313-43.6288-43.625 0-24.0977 19.5351-43.629 43.6289-43.629Zm0 0"/><use xlink:href="#image6" mask="url(#o)"/><path fill="#fcbf05" d="M162.246 96.4336c-18.535 0-33.5585 15.0273-33.5585 33.5625 0 18.5312 15.0234 33.5586 33.5586 33.5586 18.5351 0 33.5586-15.0274 33.5586-33.5586 0-18.5352-15.0234-33.5625-33.5586-33.5625Zm0 0" filter="url(#p)"/><path fill="#3d3d3d" d="M162.246 113.2148c-9.2694 0-16.7812 7.5118-16.7812 16.7813 0 9.2656 7.5118 16.7773 16.7813 16.7773 9.2656 0 16.7773-7.5117 16.7773-16.7773 0-9.2695-7.5117-16.7813-16.7773-16.7813Zm0 0"/><path fill="url(#q)" d="M199.064 76.3008c-3.707 0-6.711-3.0078-6.711-6.7149 0-3.707 3.004-6.7109 6.711-6.7109 3.707 0 6.711 3.004 6.711 6.711 0 3.707-3.004 6.7148-6.711 6.7148zm0 0" filter="url(#r)" style="mix-blend-mode:normal"/><rect width="28.8594" height="29.375" x="148.0273" y="53.7109" fill="url(#meshgradient51)" stroke="#202c25" stroke-linecap="round" stroke-linejoin="round" stroke-opacity=".3147" stroke-width="1.5" filter="url(#s)" opacity=".9" rx="1" ry="1"/><path fill="url(#t)" d="M125.85 76.3008c-3.707 0-6.7109-3.0078-6.7109-6.7149 0-3.707 3.004-6.7109 6.711-6.7109 3.707 0 6.7109 3.004 6.7109 6.711 0 3.707-3.004 6.7148-6.711 6.7148zm0 0" filter="url(#r)"/><path fill="none" stroke="url(#u)" stroke-linecap="square" d="m159.0391 62.3258 2.5073 5.0803 5.6065.8147-4.0569 3.9545.9577 5.5838-5.0146-2.6363-5.0146 2.6363.9577-5.5838-4.0569-3.9545 5.6065-.8147z" filter="url(#v)" opacity=".9" transform="translate(3.4179 -.4545)"/><path fill="url(#w)" stroke="url(#x)" stroke-linecap="round" stroke-linejoin="round" stroke-width=".2" d="m148.525 71.733 12.85-3.3346 3.5893-1.4468 1.5496 4.7691-10.1422-1.9772z" filter="url(#y)" opacity=".9"/><path fill="url(#z)" d="m164.9643 66.9516 11.5944 4.8812.328 4.7182-10.3728-4.8303z" filter="url(#A)" opacity=".3954"/></svg>