<svg xmlns="http://www.w3.org/2000/svg" xmlns:xlink="http://www.w3.org/1999/xlink" width="324" height="234"><defs><filter id="d" width="1.023" height="1.018" x="-.011" y="-.009" color-interpolation-filters="sRGB"><feGaussianBlur stdDeviation=".097"/></filter><filter id="f" width="1.035" height="1.035" x="-.017" y="-.017" color-interpolation-filters="sRGB"><feGaussianBlur stdDeviation=".483"/></filter><filter id="h" width="1.078" height="1.078" x="-.039" y="-.039" color-interpolation-filters="sRGB"><feGaussianBlur stdDeviation=".217"/></filter><filter id="j" width="1.23" height="4.814" x="-.115" y="-1.907" color-interpolation-filters="sRGB"><feGaussianBlur stdDeviation=".795"/></filter><radialGradient xlink:href="#a" id="e" cx="162.244" cy="129.994" r="43.627" fx="162.244" fy="129.994" gradientUnits="userSpaceOnUse"/><radialGradient xlink:href="#b" id="g" cx="195.805" cy="69.588" r="7.718" fx="195.805" fy="69.588" gradientTransform="matrix(1 0 0 1.0003 3.26 -.018)" gradientUnits="userSpaceOnUse"/><radialGradient xlink:href="#b" id="i" cx="195.805" cy="69.588" r="7.718" fx="195.805" fy="69.588" gradientTransform="matrix(1 0 0 1.0003 -69.955 -.018)" gradientUnits="userSpaceOnUse"/><linearGradient id="b"><stop offset="0" stop-color="#3d3d3d"/><stop offset="1" stop-color="#3d3d3d" stop-opacity=".7"/></linearGradient><linearGradient id="a"><stop offset="0" stop-color="#3d3d3d" stop-opacity=".106"/><stop offset="1" stop-color="#3d3d3d"/></linearGradient><linearGradient id="c" x1="113.492" x2="114.712" y1="123.492" y2=".644" gradientTransform="scale(1.8)" gradientUnits="userSpaceOnUse"><stop offset="0" stop-color="#1f93b9"/><stop offset="1" stop-color="#1a5c9b"/></linearGradient></defs><path fill="url(#c)" d="M0 0h324v234H0Z"/><path fill="#e3e3e3" stroke="#cfcfcf" stroke-width="2" d="M209.23 49.453h-93.968a6.71 6.71 0 0 0-6.711 6.711v120.813a6.71 6.71 0 0 0 6.71 6.71h93.97a6.713 6.713 0 0 0 6.71-6.71V56.163a6.713 6.713 0 0 0-6.71-6.71Zm0 0" filter="url(#d)"/><path fill="url(#e)" d="M162.246 86.367c24.094 0 43.625 19.531 43.625 43.63 0 24.093-19.531 43.624-43.625 43.624s-43.629-19.531-43.629-43.625c0-24.098 19.535-43.629 43.63-43.629Zm0 0"/><path fill="#fcbf05" d="M162.246 96.434c-18.535 0-33.559 15.027-33.559 33.562 0 18.531 15.024 33.559 33.56 33.559 18.534 0 33.558-15.028 33.558-33.559 0-18.535-15.024-33.562-33.559-33.562Zm0 0" filter="url(#f)"/><path fill="#3d3d3d" d="M162.246 113.215c-9.27 0-16.781 7.512-16.781 16.781 0 9.266 7.512 16.777 16.781 16.777 9.266 0 16.777-7.511 16.777-16.777 0-9.27-7.511-16.781-16.777-16.781Zm0 0"/><path fill="url(#g)" d="M199.064 76.3a6.713 6.713 0 0 1 0-13.425 6.713 6.713 0 0 1 0 13.426zm0 0" filter="url(#h)" style="mix-blend-mode:normal"/><path fill="url(#i)" d="M125.85 76.3a6.713 6.713 0 0 1 0-13.425 6.713 6.713 0 0 1 0 13.426zm0 0" filter="url(#h)"/><path fill="#ccc" d="M170.523 56.516H153.97a1.19 1.19 0 0 0-1.184 1.195v21.492a1.19 1.19 0 0 0 1.184 1.192h16.554a1.19 1.19 0 0 0 1.184-1.192V57.711a1.19 1.19 0 0 0-1.184-1.195zm0 0"/><path fill="#3f3f3f" d="M162.246 63.082c4.246 0 7.688 3.477 7.688 7.762s-3.442 7.761-7.688 7.761c-4.246 0-7.687-3.476-7.687-7.761s3.441-7.762 7.687-7.762zm0 0"/><path fill="#fec006" d="M162.246 64.875c-3.266 0-5.914 2.672-5.914 5.969s2.648 5.969 5.914 5.969c3.266 0 5.91-2.672 5.91-5.97 0-3.296-2.644-5.968-5.91-5.968zm0 0"/><path fill="#3f3f3f" d="M162.246 67.86c-1.633 0-2.957 1.335-2.957 2.984 0 1.648 1.324 2.984 2.957 2.984 1.633 0 2.957-1.336 2.957-2.984 0-1.649-1.324-2.985-2.957-2.985zm-5.914-6.567c-.652 0-1.18-.535-1.18-1.195s.528-1.192 1.18-1.192c.656 0 1.184.532 1.184 1.192 0 .66-.528 1.195-1.184 1.195zm11.824 0c-.652 0-1.18-.535-1.18-1.195s.528-1.192 1.18-1.192c.656 0 1.184.532 1.184 1.192 0 .66-.528 1.195-1.184 1.195zm0 0"/><path fill-opacity=".25" d="M153.97 79.895v1h16.553v-1z" filter="url(#j)"/></svg>