<svg xmlns="http://www.w3.org/2000/svg" xmlns:xlink="http://www.w3.org/1999/xlink" width="324" height="234"><defs/><defs><linearGradient id="e"><stop offset="0" stop-color="#9b9a73"/><stop offset="1" stop-color="#9b9a73" stop-opacity="0"/></linearGradient><linearGradient id="d"><stop offset="0" stop-color="#9b9a73"/><stop offset="1" stop-color="#9b9a73" stop-opacity="0"/></linearGradient><linearGradient id="c"><stop offset="0" stop-color="#0f1214"/><stop offset="1" stop-color="#4a5964"/></linearGradient><linearGradient id="b"><stop offset="0" stop-color="#0f1214"/><stop offset="1" stop-color="#232a2f"/></linearGradient><linearGradient id="a"><stop offset="0" stop-color="#7dc680"/><stop offset="1" stop-color="#4dae51"/></linearGradient><linearGradient id="f" x1="0" x2="324" y1="117" y2="117" gradientUnits="userSpaceOnUse" xlink:href="#b"/><linearGradient id="g" x1=".57788086" x2="0" y1="57.078281" y2="234" gradientUnits="userSpaceOnUse" xlink:href="#c"/><linearGradient id="i" x1="118.69602" x2="135.97002" y1="125.18401" y2="125.18401" gradientUnits="userSpaceOnUse" xlink:href="#d"/><linearGradient id="h" x1="118.69602" x2="135.97002" y1="125.18401" y2="125.18401" gradientUnits="userSpaceOnUse" xlink:href="#e"/><radialGradient id="l" cx="190.78107" cy="150.91838" r="7.9643941" fx="190.78107" fy="150.91838" gradientTransform="matrix(1 0 0 1.12138 0 -18.318772)" gradientUnits="userSpaceOnUse" xlink:href="#a"/><radialGradient id="k" cx="131.07887" cy="150.91838" r="7.9643941" fx="131.07887" fy="150.91838" gradientTransform="matrix(1 0 0 1.12138 0 -18.318772)" gradientUnits="userSpaceOnUse" xlink:href="#a"/><radialGradient id="j" cx="162" cy="103" r="30.034979" fx="162" fy="103" gradientTransform="matrix(1 0 0 1.46161 0 -47.545814)" gradientUnits="userSpaceOnUse" xlink:href="#a"/><filter id="m" width="1.1101095" height="2.0931128" x="-.05505475" y="-.5465564" color-interpolation-filters="sRGB"><feGaussianBlur stdDeviation="1.168466"/></filter></defs><path fill="url(#g)" fill-rule="evenodd" d="M324 0v234H0V0z" paint-order="markers fill stroke"/><g transform="matrix(1.68472 0 0 1.68472 -34.36593 -77.130108)"><ellipse cx="162" cy="151.23358" fill="#79765b" rx="9.0194693" ry="8.3724957"/><ellipse cx="162" cy="151.23358" fill="#a3a37d" rx="7.2124023" ry="6.6950507"/><ellipse cx="162" cy="138.67216" fill="#219038" rx="18.463636" ry="14.706292"/><path fill="#4dae51" d="M162 145.97461V58.236328c-1.22359 1.286059-2.47915 2.590825-3.5918 3.810547-6.81677 7.47279-11.40325 12.999896-15.34961 18.796875-3.94635 5.796979-7.26727 11.879749-9.125 15.943359-1.85772 4.063611-2.25186 6.106451-2.39062 9.333981-.13877 3.22754-.0222 7.63835.77734 11.80664.7996 4.1683 2.28451 8.10088 4.53907 11.83594 2.25455 3.73506 5.27983 7.27732 8.32226 9.92969 3.04244 2.65237 6.13801 4.43718 8.54102 5.35156 2.403.91439 4.13182.96841 7.49804.99024.20022.001.56712-.0607.7793-.0605zM162 145.97461V58.236328c1.22359 1.286059 2.47915 2.590825 3.5918 3.810547 6.81677 7.47279 11.40325 12.999896 15.34961 18.796875 3.94635 5.796979 7.26727 11.879749 9.125 15.943359 1.85772 4.063611 2.25186 6.106451 2.39062 9.333981.13877 3.22754.0222 7.63835-.77734 11.80664-.7996 4.1683-2.28451 8.10088-4.53907 11.83594-2.25455 3.73506-5.27983 7.27732-8.32226 9.92969-3.04244 2.65237-6.13801 4.43718-8.54102 5.35156-2.403.91439-4.13182.96841-7.49804.99024-.20022.001-.56712-.0607-.7793-.0605z"/><path fill="#79765b" d="M157.40052 111.52392c-3.18688-.30401-9.56259-.91221-14.03914-.94082-4.47655-.0286-7.08161.5289-9.67799 2.08589-2.59637 1.55699-5.19676 4.11611-6.99231 7.08975-1.79555 2.97364-2.78582 6.36041-2.40871 10.52337.37711 4.16296 2.12043 9.10087 3.12303 12.21144 1.0026 3.11058 1.27412 4.43953.49427 4.89542-.77986.45588-2.60783.0633-4.38997-1.57265-1.78214-1.63589-3.51504-4.51215-4.72701-8.18521-1.21198-3.67306-1.90026-8.13972-1.83761-11.90676.0627-3.76704.89078-6.88594 2.83774-10.19097 1.94697-3.30504 5.01879-6.82043 8.33409-8.65683 3.3153-1.83639 6.87173-1.99266 11.98689-1.42824 5.11515.56442 11.78795 1.84903 15.46153 3.03328 3.67358 1.18425 4.34854 2.26634 4.68538 2.80637.33684.54002.33669.53997-2.85019.23596z"/><path fill="url(#h)" d="M134.20308 109.81363c-1.84103.75501-5.45434 1.90363-7.76967 4.19111-2.31532 2.28748-3.33194 5.71323-3.82827 8.81614-.49634 3.10291-.47251 5.88224.24064 8.92785.71315 3.0456 2.11507 6.35708 2.95673 8.46382.84167 2.10673 1.13511 3.04688.70358 3.24549-.43154.19861-1.58287-.32459-2.56381-1.14149-.98095-.81689-1.79106-1.92798-2.63985-4.08458-.84879-2.15659-1.73571-5.35858-2.2078-8.20839-.47209-2.84981-.53-5.38986-.14615-7.72811.38386-2.33825 1.20917-4.49546 2.39919-6.57443 1.19002-2.07897 2.74451-4.07912 4.99657-5.70958 2.25205-1.63045 5.20083-2.89065 6.95703-3.10803 1.75621-.21737 2.31946.6067 2.5659 1.19978.24644.59308.17694.95542-1.66409 1.71042z" transform="rotate(6.043 127.69664 132.008)"/><path fill="#79765b" d="M165.93634468 111.52392359c3.18688-.30400999 9.56259001-.91220995 14.03914001-.94081993 4.47655-.02859998 7.08161.52890004 9.67799 2.08589005 2.59636998 1.55699001 5.19675997 4.11611003 6.99230995 7.08975004 1.79554999 2.97364 2.78581997 6.36041001 2.40870995 10.52337-.37711002 4.16296-2.12043005 9.10087-3.12303006 12.21144-1.00260002 3.11057999-1.27412002 4.43952999-.49427003 4.89542.77986.45588 2.60783.0633 4.38997001-1.57264999 1.78214001-1.63588999 3.51504003-4.51214998 4.72701004-8.18520997 1.21198002-3.67306 1.90026005-8.13972 1.83761007-11.90676-.06269999-3.76704-.89077997-6.88594-2.83773995-10.19097-1.94696999-3.30504002-5.01878997-6.82043004-8.33408996-8.65683005-3.31529999-1.83639002-6.87172999-1.99266004-11.98689-1.42824006-5.11515.56441997-11.78795 1.84902994-15.46153 3.03327992-3.67358002 1.18424998-4.34854002 2.26633998-4.68538002 2.80636997-.33684.54002-.33669.53997 2.85019.23596002z"/><path fill="url(#i)" d="M134.20308 109.81363c-1.84103.75501-5.45434 1.90363-7.76967 4.19111-2.31532 2.28748-3.33194 5.71323-3.82827 8.81614-.49634 3.10291-.47251 5.88224.24064 8.92785.71315 3.0456 2.11507 6.35708 2.95673 8.46382.84167 2.10673 1.13511 3.04688.70358 3.24549-.43154.19861-1.58287-.32459-2.56381-1.14149-.98095-.81689-1.79106-1.92798-2.63985-4.08458-.84879-2.15659-1.73571-5.35858-2.2078-8.20839-.47209-2.84981-.53-5.38986-.14615-7.72811.38386-2.33825 1.20917-4.49546 2.39919-6.57443 1.19002-2.07897 2.74451-4.07912 4.99657-5.70958 2.25205-1.63045 5.20083-2.89065 6.95703-3.10803 1.75621-.21737 2.31946.6067 2.5659 1.19978.24644.59308.17694.95542-1.66409 1.71042z" transform="scale(-1 1) rotate(6.042782 -33.97182264 -2930.92934098)"/><path fill="#219038" d="M162 57.125112c-1.27865 1.343932-2.59071 2.707412-3.75342 3.982022-7.12353 7.809065-11.9164 13.584895-16.04035 19.642733-4.12393 6.057853-7.59429 12.414353-9.53562 16.660823-1.94132 4.24647-2.3532 6.38123-2.4982 9.75401-.14502 3.37277-.0233 7.98207.81232 12.33793.83558 4.35588 2.38731 8.46542 4.74332 12.36856 2.35601 3.90314 5.51743 7.6048 8.69677 10.37652 3.17935 2.77173 6.41421 4.63686 8.92536 5.59239 2.51113.95554 4.31776 1.01198 7.83546 1.03478.20923.00095.59264-.0634.81436-.0633.22173-.0002.60514.0643.81437.0633 3.5177-.0228 5.32432-.0792 7.83546-1.03478 2.51114-.95553 5.74601-2.82066 8.92536-5.59239 3.17934-2.77172 6.34076-6.47338 8.69677-10.37652 2.35601-3.90314 3.90774-8.01268 4.74332-12.36856.83551-4.35586.95733-8.96516.81232-12.33793-.145-3.37278-.55689-5.50754-2.4982-9.75401-1.94133-4.24647-5.41169-10.60297-9.53563-16.660823-4.12394-6.057838-8.91681-11.833668-16.04034-19.642733-1.16272-1.27461-2.47477-2.63809-3.75343-3.982022z"/><g fill="#219038" transform="translate(100.11289 -14)"><circle cx="89.887108" cy="123.53815" r="7"/><circle cx="33.887108" cy="123.53815" r="7"/></g><path fill="url(#j)" d="M162.00001 59.100581c-1.22359 1.286059-2.47915 2.590825-3.5918 3.810547-6.81677 7.47279-11.40324 12.9999-15.3496 18.796878-3.94635 5.796984-7.26727 11.879754-9.125 15.943364-1.85772 4.06361-2.41288 16.97233-1.61329 21.14062.7996 4.1683 2.28451 8.10088 4.53907 11.83594 2.25455 3.73506 5.27983 7.27732 8.32226 9.92969 3.04244 2.65237 6.13801 4.43718 8.54102 5.35156 2.403.91439 4.13182.9684 7.49804.99023.20022.001.56712-.0606.7793-.0605.21218-.0002.57908.0615.7793.0605 3.36622-.0218 5.09505-.0758 7.49805-.99023 2.40301-.91438 5.49857-2.69919 8.54101-5.35156 3.04243-2.65237 6.06772-6.19463 8.32227-9.92969 2.25456-3.73506 3.73946-7.66764 4.53906-11.83594.79954-4.16829.24444-17.07701-1.61328-21.14062-1.85773-4.06361-5.17865-10.14638-9.125-15.943364-3.94636-5.796978-8.53284-11.324088-15.34961-18.796878-1.11265-1.219722-2.36821-2.524488-3.5918-3.810547z"/><path fill="#25913b" d="M126.20391 141.01061c-.85214.0995-1.88118.53414-2.62454 1.12863-.74337.5945-1.20039 1.3483-1.31331 2.1765-.11292.82821.11779 1.72989.0254 2.645-.0924.91511-.5075 1.84431-.71899 2.80095-.21149.95664-.21959 1.94014.0301 3.06982.2497 1.12969.7567 2.40528 1.55599 3.64313.79929 1.23785 1.89035 2.43806 3.26216 3.29911 1.37182.86105 3.02405 1.38357 4.29227 1.52602 1.26822.14245 2.15288-.0946 2.93163-.63804.77875-.54342 1.45232-1.39345 1.76592-2.31092.3136-.91747.26706-1.90326-.18915-2.76016s-1.32309-1.58474-2.23397-2.01267c-.91089-.42793-1.86574-.55516-2.50167-.88284-.63593-.32767-.95248-.8568-1.09135-1.48405-.13887-.62724-.0993-1.35233.23418-1.83807.33348-.48575.96025-.73099 1.60066-.75863.6404-.0276 1.29375.16177 1.96125.53577.66751.374 1.34923.93201 2.17914 1.21989.82991.28787 1.80803.30647 2.67326-.0415.86523-.348 1.61852-1.06254 2.03572-2.00107.4172-.93852.49839-2.10193.14112-3.14239-.35726-1.04046-1.15394-1.95805-2.23514-2.70411-1.08121-.74606-2.44716-1.31998-3.73533-1.64666-1.28816-.32668-2.49831-.40566-3.45969-.27339-.96137.13227-1.67329.47607-2.36613.53072-.69284.0546-1.36736-.18048-2.2195-.081z"/><path fill="url(#k)" d="M123.95497 144.47608c-.0975.72041-.0401 1.67389-.20595 2.78048-.16585 1.1066-.55891 2.38043-.62447 3.55519-.0656 1.17476.19377 2.25673.63648 3.34927.4427 1.09253 1.06835 2.19557 1.94832 3.11767.87996.92209 2.01371 1.66362 3.11423 2.11041 1.10052.44679 2.14595.59629 3.00378.32419.85783-.27211 1.51824-.96723 1.83002-1.62935.31178-.66213.27484-1.29227-.18675-1.89873-.4616-.60647-1.3489-1.18895-2.21347-1.59319-.86456-.40423-1.70636-.62978-2.24994-.98612-.54359-.35634-.78835-.84433-.85667-1.66103-.0683-.81669.0405-1.96173.23194-2.75459.19146-.79285.46563-1.23287 1.02857-1.52192.56294-.28906 1.41362-.42674 2.27527-.29632.86164.13043 1.74346.53267 2.54025.92585.79679.39319 1.51333.7794 2.22061.84974.70727.0703 1.40584-.17436 1.89263-.65564.48678-.48129.76253-1.19988.69273-2.00666-.0698-.80678-.48592-1.70237-1.40297-2.4892-.91705-.78682-2.3356-1.4642-3.60846-1.77668-1.27286-.31247-2.39972-.25942-3.27292-.13128-.87321.12814-1.49237.33152-2.20874.36007-.71637.0285-1.53043-.11814-2.21043-.0919-.68.0263-1.22531.22584-1.62465.56926-.39934.34342-.65194.83006-.74941 1.55047z"/><path fill="#25913b" d="M195.65603 141.01061c.85214.0995 1.88118.53414 2.62454 1.12863.74337.5945 1.20039 1.3483 1.31331 2.1765.11292.82821-.11779 1.72989-.0254 2.645.0924.91511.5075 1.84431.71899 2.80095.21149.95664.21959 1.94014-.0301 3.06982-.2497 1.12969-.7567 2.40528-1.55599 3.64313-.79929 1.23785-1.89035 2.43806-3.26216 3.29911-1.37182.86105-3.02405 1.38357-4.29227 1.52602-1.26822.14245-2.15288-.0946-2.93163-.63804-.77875-.54342-1.45232-1.39345-1.76592-2.31092-.3136-.91747-.26706-1.90326.18915-2.76016s1.32309-1.58474 2.23397-2.01267c.91089-.42793 1.86574-.55516 2.50167-.88284.63593-.32767.95248-.8568 1.09135-1.48405.13887-.62724.0993-1.35233-.23418-1.83807-.33348-.48575-.96025-.73099-1.60066-.75863-.6404-.0276-1.29375.16177-1.96125.53577-.66751.374-1.34923.93201-2.17914 1.21989-.82991.28787-1.80803.30647-2.67326-.0415-.86523-.348-1.61852-1.06254-2.03572-2.00107-.4172-.93852-.49839-2.10193-.14112-3.14239.35726-1.04046 1.15394-1.95805 2.23514-2.70411 1.08121-.74606 2.44716-1.31998 3.73533-1.64666 1.28816-.32668 2.49831-.40566 3.45969-.27339.96137.13227 1.67329.47607 2.36613.53072.69284.0546 1.36736-.18048 2.2195-.081z"/><path fill="url(#l)" d="M197.90497 144.47608c.0975.72041.0401 1.67389.20595 2.78048.16585 1.1066.55891 2.38043.62447 3.55519.0656 1.17476-.19377 2.25673-.63648 3.34927-.4427 1.09253-1.06835 2.19557-1.94832 3.11767-.87996.92209-2.01371 1.66362-3.11423 2.11041-1.10052.44679-2.14595.59629-3.00378.32419-.85783-.27211-1.51824-.96723-1.83002-1.62935-.31178-.66213-.27484-1.29227.18675-1.89873.4616-.60647 1.3489-1.18895 2.21347-1.59319.86456-.40423 1.70636-.62978 2.24994-.98612.54359-.35634.78835-.84433.85667-1.66103.0683-.81669-.0405-1.96173-.23194-2.75459-.19146-.79285-.46563-1.23287-1.02857-1.52192-.56294-.28906-1.41362-.42674-2.27527-.29632-.86164.13043-1.74346.53267-2.54025.92585-.79679.39319-1.51333.7794-2.22061.84974-.70727.0703-1.40584-.17436-1.89263-.65564-.48678-.48129-.76253-1.19988-.69273-2.00666.0698-.80678.48592-1.70237 1.40297-2.4892.91705-.78682 2.3356-1.4642 3.60846-1.77668 1.27286-.31247 2.39972-.25942 3.27292-.13128.87321.12814 1.49237.33152 2.20874.36007.71637.0285 1.53043-.11814 2.21043-.0919.68.0263 1.22531.22584 1.62465.56926.39934.34342.65194.83006.74941 1.55047z"/><ellipse cx="162" cy="175.08786" fill="#303941" filter="url(#m)" rx="25.468449" ry="2.5654428"/><g><circle cx="162" cy="105" r="13.431347" fill="#1a772d"/><circle cx="162" cy="105" r="12.210316" fill="#cbf9f6"/><circle cx="162" cy="105" r="10" fill="#99dbb4"/><circle cx="162" cy="105" r="4.792202" fill="#7cc98c"/><circle cx="159.41612" cy="101.85799" r="2.9189627" fill="#d2ecda"/></g><g fill="#19762c"><path d="M169.514575 131.77539a13.921332 12.15932 0 00.006-.004 13.921332 12.15932 0 00.26953-.15429 13.921332 12.15932 0 00.26563-.16211 13.921332 12.15932 0 00.26172-.16602 13.921332 12.15932 0 00.25781-.17187 13.921332 12.15932 0 00.25391-.17578 13.921332 12.15932 0 00.24804-.18164 13.921332 12.15932 0 00.24219-.1875 13.921332 12.15932 0 00.23828-.19141 13.921332 12.15932 0 00.23242-.19727 13.921332 12.15932 0 00.14258-.125v-4.1914h-2.41797zM165.151295 133.38281a13.921332 12.15932 0 00.22461-.0469 13.921332 12.15932 0 00.31445-.0723 13.921332 12.15932 0 00.31055-.0781 13.921332 12.15932 0 00.3086-.084 13.921332 12.15932 0 00.30664-.0918 13.921332 12.15932 0 00.30468-.0957 13.921332 12.15932 0 00.30078-.10351 13.921332 12.15932 0 00.29883-.10938 13.921332 12.15932 0 00.0508-.0195v-6.81445h-2.41992zM160.789965 133.65234a13.921332 12.15932 0 00.24024.0176 13.921332 12.15932 0 00.32226.0156 13.921332 12.15932 0 00.32422.01 13.921332 12.15932 0 00.32227.004 13.921332 12.15932 0 00.17383-.002 13.921332 12.15932 0 00.32422-.006 13.921332 12.15932 0 00.32226-.0137 13.921332 12.15932 0 00.32422-.0195 13.921332 12.15932 0 00.0664-.006v-7.78515h-2.41993zM156.428645 132.68164a13.921332 12.15932 0 00.20898.0781 13.921332 12.15932 0 00.30078.10742 13.921332 12.15932 0 00.30274.0996 13.921332 12.15932 0 00.30468.0937 13.921332 12.15932 0 00.3086.0859 13.921332 12.15932 0 00.31054.082 13.921332 12.15932 0 00.3125.0742 13.921332 12.15932 0 00.31446.0684 13.921332 12.15932 0 00.0566.0117v-7.51562h-2.41992zM152.067315 130.05859a13.921332 12.15932 0 00.0352.0312 13.921332 12.15932 0 00.23047.19922 13.921332 12.15932 0 00.23633.19336 13.921332 12.15932 0 00.24024.18946 13.921332 12.15932 0 00.24609.18554 13.921332 12.15932 0 00.25.17774 13.921332 12.15932 0 00.25586.17578 13.921332 12.15932 0 00.25976.16797 13.921332 12.15932 0 00.26368.16406 13.921332 12.15932 0 00.26757.1582 13.921332 12.15932 0 00.13282.0742v-5.9082h-2.41797z"/></g></g><g fill="#e7e7e8" stroke-width="1.2789" aria-label="Robo 3T" font-family="Noto Mono" font-size="51.1557" font-weight="400" letter-spacing="0" style="line-height:1.25;-inkscape-font-specification:'Noto Mono'" word-spacing="0"><path fill="#667b8b" d="M10.28906327 33.80489831v54.30216593H18.838574V66.43165507h6.76777924L38.1654639 88.10706424h10.0197924L33.6003004 64.04665311c6.4661889-2.71746218 9.99734394-7.62691781 9.99734394-14.43062953 0-5.1558342-1.66796133-9.21746025-5.01129833-11.88570418-3.343337-2.66824394-8.22600705-3.92542109-14.56812027-3.92542109zm1.83785034 1.8378548h11.89131213c6.09773155 0 10.54673653 1.22843059 13.42332191 3.52417599 2.87658538 2.2957454 4.3182462 5.67695 4.3182462 10.44909448 0 6.55749118-3.1032594 10.78429861-9.76445513 13.20445442l-1.05220455.38160663 13.98169187 23.06712482h-5.69873906l-12.5619178-21.67540917h-9.66344423V86.26920945H12.1269136zm4.87381134 3.86929274v21.25172423h6.80425475c4.20898199 0 7.43820046-.7969305 9.62135589-2.5757981 2.19137714-1.7855622 3.24640176-4.63214686 3.24640176-8.2492715 0-3.54686006-1.04642507-6.32102523-3.22676043-8.01077993-2.17457025-1.68528684-5.45566183-2.4158747-9.82057343-2.4158747zm1.83784904 1.83785479h4.7868295c4.15159661 0 7.04234265.75032688 8.6954164 2.03145232 1.64731006 1.27667194 2.51406698 3.35797461 2.51406698 6.55734752 0 3.27264-.883265 5.4516465-2.56737813 6.82389609-1.69233485 1.37892982-4.4899225 2.16333309-8.46252903 2.16333309h-4.96640572zM97.41719642 33.80489007v57.6748342h6.39740258l1.17566248-4.41927004c2.85421593 3.3355635 6.71019849 5.13475913 11.43114938 5.13475913 5.01421608 0 9.1240332-1.94833008 12.03160626-5.74082167l.00287322-.00287321c2.91102235-3.82230124 4.3126348-9.07283675 4.3126348-15.6624218 0-6.5426941-1.40435925-11.74952794-4.31824764-15.52492388l.00560278.00287322c-2.8845758-3.79550847-6.99741556-5.74363742-12.03441196-5.74363742-4.51688335 0-8.16481178 1.599119-10.84471955 4.54832069.09895368-2.1866349.20763464-4.44396536.20763464-5.85586538V33.80489007zM99.2550469 35.642742h4.69142856v12.57313629c0 1.90750163-.09533342 4.6018775-.28619995 8.06129112l-.05331258.96803072h1.75647947l.27217002-.4152664c2.40587734-3.68751852 5.87597647-5.46865596 10.785797-5.46867033 4.57996058 0 8.00273204 1.63838154 10.57254953 5.0197298v.00287322l.00287322.00287322c2.58834976 3.35360732 3.93664675 8.12267745 3.93664675 14.40257254 0 6.32872546-1.3482381 11.14610878-3.93945245 14.548489-2.59466797 3.38435077-6.01765492 5.02251682-10.57254953 5.02251682-4.7168077 0-8.21332035-1.73391609-10.81104973-5.32555527l-.27497571-.38160664h-1.60496313l-1.32998596 4.98885705h-3.14538943zm15.98228294 19.29882574c-3.89373378 0-6.91789346 1.23848686-8.71505772 3.75988055-1.80658123 2.5346105-2.57579666 6.54334058-2.57579666 12.08772023 0 5.52354882.79907249 9.561557 2.64594344 12.15786989l.00287322.00574644.00560278.00287322c1.86109052 2.55235263 4.87698107 3.82161167 8.70664062 3.82161167 3.49103772 0 6.3143177-1.4477578 8.09215381-4.2060197 1.77783468-2.75824753 2.58701946-6.70843576 2.58701946-11.85483143 0-5.05334646-.81519412-8.9389591-2.60946792-11.64999963-1.79427237-2.7110549-4.63109526-4.12465012-8.13985213-4.12465012zm0 1.8378548c3.04608378 0 5.12469568 1.061554 6.60784292 3.30252147 1.48314868 2.24095311 2.30362665 5.78358954 2.30362665 10.63427347 0 4.94901987-.81674135 8.56930505-2.29240242 10.8587581-1.4756625 2.28943869-3.53296373 3.36703963-6.54892037 3.36703963-3.44102215 0-5.7313616-1.02818157-7.21952547-3.06681693-1.45267962-2.04555983-2.3036252-5.75222835-2.3036252-11.08602976 0-5.36440119.83440733-9.05859994 2.23347842-11.02148288 1.40848807-1.97608538 3.6971984-2.9882631 7.21952547-2.9882631zM158.83506323 61.0163101c-5.70459038 0-10.39385684 1.93241245-13.81894986 5.76046013v.00287322c-3.40426218 3.83294652-5.07583084 9.05360054-5.07583084 15.50246967 0 6.38363268 1.72503496 11.61774773 5.21893153 15.53895955h.00287322l.00287322.00287322c3.50670682 3.88243772 8.06992515 5.8642839 13.45699604 5.8642839 5.65986871 0 10.33328937-1.9452701 13.77965858-5.79413425 3.45325058-3.85655001 5.1515962-9.11406744 5.1515962-15.6119106 0-6.31377034-1.72799725-11.50274712-5.22174585-15.39866024-3.48462613-3.88574193-8.0633742-5.8670853-13.49627295-5.8670853zm0 1.83784043c4.99744797 0 8.9611116 1.7250953 12.1270115 5.25541998 3.15677743 3.5201535 4.7531525 8.1899539 4.7531525 14.17248514 0 6.18122874-1.57861857 10.92191146-4.68020145 14.38573548-3.10847861 3.47150989-7.16430076 5.18527033-12.41319853 5.18527033-4.94759762 0-8.90167907-1.7273795-12.09333738-5.26102275-3.15389703-3.54216235-4.75316256-8.2563971-4.75316256-14.30998306 0-6.13451019 1.55797593-10.84233765 4.61286325-14.2819117 3.0817433-3.44342416 7.14783721-5.14599342 12.44687267-5.14599342zm-.14308633 3.58030434c-3.9021911 0-7.03171605 1.37888672-9.05456307 4.1021959-2.02284703 2.72330919-2.9517876 6.65574093-2.9517876 11.74540488 0 5.13715827.93712925 9.10195683 2.97142605 11.84922866 2.0342968 2.74727183 5.18111853 4.13867143 9.10787566 4.13867143 3.91547974 0 7.05204407-1.3913565 9.07983304-4.13867143 2.02778896-2.7473293 2.9630075-6.71242954 2.9630075-11.84922866 0-5.09077014-.94028977-9.02506947-2.98264596-11.74820626-2.04235618-2.7231368-5.19705053-4.09939452-9.13314562-4.09939452zm0 1.8378548c3.52781062 0 5.97326512 1.11144745 7.66286179 3.3642526 1.68959667 2.25279077 2.615075 5.78439403 2.615075 10.64549338 0 4.91077732-.92080935 8.48128397-2.6010537 10.7577357-1.68024433 2.2764661-4.10333082 3.39512535-7.60393205 3.39511099-3.51321466 0-5.94628559-1.12140317-7.63198905-3.39791237-1.68568909-2.2765092-2.60945786-5.84451616-2.60945786-10.75493432 0-4.86220554.91660009-8.3956764 2.5898194-10.64830914 1.6732337-2.25261838 4.08873488-3.36143685 7.57867647-3.36143685z" color="#000" enable-background="accumulate" font-size="medium" overflow="visible" style="line-height:1.25;-inkscape-font-specification:'Noto Mono';font-variant-ligatures:normal;font-variant-position:normal;font-variant-caps:normal;font-variant-numeric:normal;font-variant-alternates:normal;font-variant-east-asian:normal;font-feature-settings:normal;font-variation-settings:normal;text-indent:0;text-align:start;text-decoration-line:none;text-decoration-style:solid;text-decoration-color:#000;text-transform:none;text-orientation:mixed;white-space:normal;shape-padding:0;shape-margin:0;inline-size:0;isolation:auto;mix-blend-mode:normal;solid-color:#000;solid-opacity:1"/><g color="#000" font-size="medium"><path d="M17.91860314 83.96994266v21.67403093H11.2082644V53.18131276h12.81064793c12.4398458 0 18.65976746 4.96397458 18.65976746 14.89194 0 6.86583042-3.45684033 11.5546946-10.3705235 14.0665925l14.24601494 23.50412833h-7.8586331L26.13607862 83.96994266zm0-5.66970961h5.88500501c4.09079437 0 7.10506536-.78944572 9.04281046-2.3683522 1.9377451-1.57890522 2.90661701-4.09078936 2.90661701-7.53567871 0-3.37311713-.95691092-5.8012743-2.87073403-7.2844878-1.9138206-1.48319847-4.99986006-2.22480523-9.25811463-2.22480523h-5.70558382z" enable-background="accumulate" overflow="visible" style="line-height:1.25;-inkscape-font-specification:'Noto Mono';font-variant-ligatures:normal;font-variant-position:normal;font-variant-caps:normal;font-variant-numeric:normal;font-variant-alternates:normal;font-variant-east-asian:normal;font-feature-settings:normal;font-variation-settings:normal;text-indent:0;text-align:start;text-decoration-line:none;text-decoration-style:solid;text-decoration-color:#000;text-transform:none;text-orientation:mixed;white-space:normal;shape-padding:0;shape-margin:0;inline-size:0;isolation:auto;mix-blend-mode:normal;solid-color:#000;solid-opacity:1"/><path fill="#667b8b" d="M76.4516763 61.0163094c-5.704607 0-10.39386316 1.93241268-13.81895194 5.76045964h-.00288035v.00288036c-3.4042638 3.83294607-5.07583386 9.05360052-5.07583386 15.50246922 0 6.38363362 1.7278372 11.6177481 5.22174022 15.53896083l.00288035.00288036c3.50670808 3.88243812 8.06993484 5.86428398 13.45699251 5.86428398 5.65987883 0 10.3361095-1.94527034 13.7824741-5.79413476 3.45325366-3.85654997 5.14878203-9.11406673 5.14878203-15.61191026 0-6.3137712-1.72797621-11.50274798-5.22173396-15.39866116-3.48463577-3.88574176-8.06058244-5.86708544-13.4934691-5.86708544zm0 1.83784055c4.99744432 0 8.9611085 1.7250946 12.12700523 5.25542035 3.15678228 3.52015309 4.75316 8.1899543 4.75316 14.1724857 0 6.18122844-1.5814174 10.92191148-4.68301329 14.3857348-3.10847619 3.47151012-7.1642955 5.18527114-12.413205 5.18527114-4.9475841 0-8.9016667-1.7273801-12.09333512-5.26102327-3.15389566-3.54216277-4.75035352-8.25639662-4.75035352-14.30998267 0-6.13451155 1.55797754-10.84233849 4.61286532-14.28191296 3.0817352-3.44342413 7.14782488-5.1459931 12.44687638-5.1459931zm-.1459051 3.5803037c-3.90219486 0-7.02892375 1.37888697-9.0517646 4.10219682-2.02284212 2.7233086-2.95459 6.65574095-2.95459 11.74540553 0 5.13715791.93713164 9.1019567 2.97142505 11.84922862 2.03429466 2.74727192 5.18112218 4.13867091 9.10788147 4.13867091 3.9154658 0 7.05484195-1.39135641 9.08262826-4.13867091 2.0277863-2.74732952 2.96020167-6.71243013 2.96020167-11.84922862 0-5.09077039-.94029252-9.02506996-2.98264967-11.74820699-2.04235465-2.72313703-5.19703678-4.09939536-9.13313218-4.09939536zm0 1.83785557c3.52781107 0 5.9732554 1.11144708 7.66285273 3.36425188 1.6895986 2.25279103 2.61507856 5.7843954 2.61507856 10.6454949 0 4.91077689-.92080502 8.48128362-2.60104872 10.7577349-1.68024369 2.2764663-4.10333519 3.39511177-7.60393065 3.39511177-3.51322394 0-5.9462915-1.1214031-7.63198908-3.39791198-1.68569884-2.27651014-2.60946688-5.84451722-2.60946813-10.75493469 0-4.86220655.91659845-8.3956769 2.5898266-10.64831013 1.67322814-2.2526182 4.08873303-3.36143665 7.57867869-3.36143665z" enable-background="accumulate" overflow="visible" style="line-height:1.25;-inkscape-font-specification:'Noto Mono';font-variant-ligatures:normal;font-variant-position:normal;font-variant-caps:normal;font-variant-numeric:normal;font-variant-alternates:normal;font-variant-east-asian:normal;font-feature-settings:normal;font-variation-settings:normal;text-indent:0;text-align:start;text-decoration-line:none;text-decoration-style:solid;text-decoration-color:#000;text-transform:none;text-orientation:mixed;white-space:normal;shape-padding:0;shape-margin:0;inline-size:0;isolation:auto;mix-blend-mode:normal;solid-color:#000;solid-opacity:1"/><path d="M104.86595534 99.93839101h-.43062588l-1.32770679 4.98789531h-4.77260115V49.0905209h6.53093382v13.49243968c0 1.9377426-.09567794 4.6410252-.28708392 8.1098353h.28708392c2.55973564-3.92333919 6.41129883-5.88501504 11.55468959-5.88501504 4.80848038 0 8.57631285 1.79421065 11.30352245 5.38263195 2.75111657 3.5645018 4.12667485 8.55239587 4.12667485 14.96369845 0 6.45915533-1.37555828 11.49488962-4.12667485 15.1072304-2.75112909 3.5884213-6.51896156 5.38263195-11.30352245 5.38263195-4.95200982 0-8.80357302-1.90185585-11.55468959-5.70558258zm0-14.78427977c0 5.43047092.82532245 9.3059561 2.4759924 11.62646808 1.67460194 2.2965787 4.33002804 3.44487558 7.96629082 3.44487558 6.50698929 0 9.7604902-5.04770029 9.7604902-15.14311714 0-9.90402966-3.2774204-14.85603823-9.83226118-14.85603823-3.70802124 0-6.36345986 1.12436235-7.9662783 3.3731021-1.60283097 2.24873973-2.40423394 6.1003192-2.40423394 11.55470961zM158.6204287 91.2778753c-5.16733528 0-9.42559235-1.85401562-12.7747712-5.56204937-3.32525937-3.73195324-4.98788905-8.7078813-4.98788905-14.92781172 0-6.29169012 1.61477818-11.25566595 4.8443596-14.89192622 3.25350092-3.63627404 7.63136794-5.45440418 13.13360107-5.45440418 5.21516173 0 9.48539107 1.85401688 12.81065044 5.56204938 3.32525936 3.70803376 4.98788904 8.63612284 4.98788904 14.78428102 0 6.33954288-1.6387102 11.3394042-4.91611806 14.99958395-3.2774204 3.660181-7.6433402 5.49027715-13.09772184 5.49027715zm.14351692-5.41851743c7.4160675 0 11.12410126-5.02378205 11.12410126-15.07134366 0-9.95186988-3.73195324-14.9278117-11.19585972-14.9278117-7.39214803 0-11.08822204 4.97594182-11.08822204 14.9278117 0 10.0475616 3.7199935 15.07134366 11.1599805 15.07134366z" enable-background="accumulate" overflow="visible" style="line-height:1.25;-inkscape-font-specification:'Noto Mono';font-variant-ligatures:normal;font-variant-position:normal;font-variant-caps:normal;font-variant-numeric:normal;font-variant-alternates:normal;font-variant-east-asian:normal;font-feature-settings:normal;font-variation-settings:normal;text-indent:0;text-align:start;text-decoration-line:none;text-decoration-style:solid;text-decoration-color:#000;text-transform:none;text-orientation:mixed;white-space:normal;shape-padding:0;shape-margin:0;inline-size:0;isolation:auto;mix-blend-mode:normal;solid-color:#000;solid-opacity:1"/><path fill="#667b8b" d="M61.04972904 115.6457012c-6.14124658 0-11.59199647 1.87076678-16.22079267 5.58369714l-.6874285.55275302 4.36594486 5.93163173.74075266-.53872693c3.84487576-2.8025873 7.7514162-4.16672433 11.80152365-4.16672433 2.56602232 0 4.48742077.65796118 5.92321608 1.9248173l.00250466.00250466h.00250466c1.42881984 1.23970562 2.12405034 2.84827226 2.12405034 5.08425577 0 2.7747618-.92289141 4.86277511-2.83954353 6.51807115-1.89677765 1.63812662-4.61760038 2.50284734-8.29979859 2.50284734h-5.69030791v7.25602736h5.69030791c4.45360789 0 7.69598812.77412724 9.73921314 2.15771796 2.04319997 1.38359823 3.01351708 3.32141471 3.01351708 6.18135868 0 3.26929278-.95198301 5.52930849-2.83675083 7.06800768-1.8847553 1.53867415-4.8358062 2.38498563-8.94514882 2.38498563-4.61289162 0-9.0381092-1.10803574-13.3194968-3.34180263l-1.34402463-.69866188v8.15950016l.47981737.26093529c3.65733947 1.99263092 8.43752974 2.94617935 14.3268077 2.94617935 6.37994051 0 11.38792944-1.41858832 14.90763795-4.37716572h.00250466v-.00250466c3.50123665-2.96844576 5.27785333-7.11863935 5.27785333-12.18312085 0-3.78401256-1.17180434-6.91866743-3.5213741-9.18364738-1.78599663-1.72166948-4.39378413-2.77411935-7.4019162-3.50735803 2.43573-.8169619 4.59870274-1.93166003 6.13646268-3.67570864 2.11072556-2.3938947 3.17064682-5.41136664 3.17064682-8.89465867 0-4.16107633-1.5163326-7.6395832-4.48099632-10.17131676-2.95664882-2.54529628-7.0433368-3.77389374-12.11858833-3.77389374zm0 1.83785557c4.78091661 0 8.37490076 1.13915612 10.92047255 3.33058176h.00250466c2.58335456 2.20475043 3.83843878 5.04479489 3.83843878 8.77677317 0 3.11939024-.8978824 5.62395326-2.71047848 7.6797191-1.80352923 2.04545918-4.3809728 3.37719096-7.86487722 3.97312428l-.7631944.13188278v1.79575728l.79967475.10381808c4.19357427.54599545 7.22918244 1.81741004 9.19766846 3.7149942 1.9684735 1.89759668 2.95740021 4.44532247 2.95740021 7.86208953 0 4.64814469-1.52543703 8.15348898-4.62689266 10.78299186-3.08292116 2.59000443-7.6175923 3.94506209-13.72356078 3.94506209-5.4546822 0-9.72905674-.91018027-12.9687695-2.5561665v-4.1302565c4.12150272 1.92601953 8.39280906 3.03316612 12.82566585 3.03316612 4.35933256 0 7.75720196-.88211557 10.10678425-2.80027049 2.34956976-1.91814239 3.51295845-4.84620053 3.51295845-8.4905784 0-3.31214748-1.30753176-5.99969582-3.82160748-7.70214206-2.51407571-1.70245875-6.10799724-2.47479516-10.76896578-2.47479516h-3.85246487v-3.58031872h3.85246487c3.97310173 0 7.18706661-.95081835 9.50070705-2.94897706 2.29375346-1.98097674 3.47649063-4.70387583 3.47649063-7.90978949 0-2.64132487-.93193322-4.88185434-2.75256927-6.4647357l-.00250465-.00250467c-1.81740504-1.60216723-4.24851395-2.38220546-7.13534542-2.38220546-4.1779953 0-8.21125892 1.46481178-12.07088712 4.0825553l-2.2250632-3.02193274c4.14860313-3.0889699 8.8436225-4.74754204 14.29595032-4.74754204zM87.29591708 139.38345276v7.72459883h15.00022263v46.57759319h8.54670654V147.10805159h14.9637423v-7.72459883zm1.83785557 1.83786058h34.83496032v4.04887767h-14.96374229v46.5775982h-4.87381314V145.270191H89.13377265z" enable-background="accumulate" overflow="visible" style="line-height:1.25;-inkscape-font-specification:'Noto Mono';font-variant-ligatures:normal;font-variant-position:normal;font-variant-caps:normal;font-variant-numeric:normal;font-variant-alternates:normal;font-variant-east-asian:normal;font-feature-settings:normal;font-variation-settings:normal;text-indent:0;text-align:start;text-decoration-line:none;text-decoration-style:solid;text-decoration-color:#000;text-transform:none;text-orientation:mixed;white-space:normal;shape-padding:0;shape-margin:0;inline-size:0;isolation:auto;mix-blend-mode:normal;solid-color:#000;solid-opacity:1"/><path fill="#7aff7c" d="M109.92427538 181.27322247h-6.71034124v-46.57768586H88.21436272v-5.88501379h36.67361738v5.88501379h-14.96370472z" enable-background="accumulate" overflow="visible" style="line-height:1.25;-inkscape-font-specification:'Noto Mono';font-variant-ligatures:normal;font-variant-position:normal;font-variant-caps:normal;font-variant-numeric:normal;font-variant-alternates:normal;font-variant-east-asian:normal;font-feature-settings:normal;font-variation-settings:normal;text-indent:0;text-align:start;text-decoration-line:none;text-decoration-style:solid;text-decoration-color:#000;text-transform:none;text-orientation:mixed;white-space:normal;shape-padding:0;shape-margin:0;inline-size:0;isolation:auto;mix-blend-mode:normal;solid-color:#000;solid-opacity:1"/></g><path fill="#7aff7c" d="M65.39204118 153.64238048v.21530042c8.63611157 1.1243661 12.95417987 5.28692019 12.95417987 12.48768728 0 4.85633188-1.65068246 8.68397558-4.95202234 11.48293112-3.30133988 2.77504858-8.07394103 4.1625666-14.31776589 4.1625666-5.78932958 0-10.41838877-.94494492-13.88717758-2.83484728v-6.10032047c4.40178651 2.29659624 8.98300673 3.44489436 13.7436231 3.44489436 8.46866264 0 12.70300022-3.45684158 12.70300022-10.37052475 0-6.17207892-4.55728821-9.25811838-13.67186463-9.25811838h-4.77260116v-5.41850241h4.77260116c3.8276437 0 6.79407321-.90907822 8.89926348-2.7272096 2.1052153-1.8181314 3.15782296-4.22236532 3.15782296-7.21271432 0-2.44012568-.81338775-4.36590728-2.44012568-5.77735731-1.62675045-1.435357-3.80373674-2.15304176-6.5309213-2.15304176-4.25825707 0-8.37297218 1.44732926-12.34415785 4.34197527l-3.30133988-4.48551723c4.4735575-3.58841128 9.68873175-5.38262318 15.64549773-5.38262318 4.92809033 0 8.76769378 1.18418987 11.51881035 3.55253205 2.77504858 2.3683547 4.1625666 5.52616514 4.1625666 9.47343132 0 3.30133988-.98083667 6.0644162-2.9424975 8.28922893-1.96167335 2.22482526-4.7606414 3.64823504-8.39689166 4.27022934z" color="#000" enable-background="accumulate" font-size="medium" overflow="visible" style="line-height:1.25;-inkscape-font-specification:'Noto Mono';font-variant-ligatures:normal;font-variant-position:normal;font-variant-caps:normal;font-variant-numeric:normal;font-variant-alternates:normal;font-variant-east-asian:normal;font-feature-settings:normal;font-variation-settings:normal;text-indent:0;text-align:start;text-decoration-line:none;text-decoration-style:solid;text-decoration-color:#000;text-transform:none;text-orientation:mixed;white-space:normal;shape-padding:0;shape-margin:0;inline-size:0;isolation:auto;mix-blend-mode:normal;solid-color:#000;solid-opacity:1"/><path d="M76.23534807 91.27786624c-5.1673199 0-9.42557471-1.85401666-12.77476303-5.56204996-3.32526732-3.73195285-4.98790026-8.70788042-4.98790026-14.92781142 0-6.29168966 1.61478809-11.25566463 4.84436284-14.89192491 3.25349718-3.63627465 7.63136556-5.4544048 13.13360514-5.4544048 5.21516618 0 9.48538221 1.85401666 12.8106481 5.56204996 3.32526733 3.7080333 4.98790027 8.63612177 4.98790027 14.78427975 0 6.33954313-1.63871052 11.3394046-4.91613156 14.99958444-3.27742104 3.66017984-7.6433282 5.49027694-13.0977215 5.49027694zm.14353167-5.41851828c7.41606086 0 11.1240913-5.02378104 11.1240913-15.0713431 0-9.9518695-3.73195286-14.92781142-11.19586-14.92781142-7.39213844 0-11.08820766 4.97594193-11.08820766 14.92781142 0 10.04756206 3.71999164 15.0713431 11.15997636 15.0713431z" color="#000" enable-background="accumulate" font-size="medium" overflow="visible" style="line-height:1.25;-inkscape-font-specification:'Noto Mono';font-variant-ligatures:normal;font-variant-position:normal;font-variant-caps:normal;font-variant-numeric:normal;font-variant-alternates:normal;font-variant-east-asian:normal;font-feature-settings:normal;font-variation-settings:normal;text-indent:0;text-align:start;text-decoration-line:none;text-decoration-style:solid;text-decoration-color:#000;text-transform:none;text-orientation:mixed;white-space:normal;shape-padding:0;shape-margin:0;inline-size:0;isolation:auto;mix-blend-mode:normal;solid-color:#000;solid-opacity:1"/></g></svg>