<?xml version="1.0" encoding="UTF-8"?>
<svg xmlns="http://www.w3.org/2000/svg" xmlns:xlink="http://www.w3.org/1999/xlink" width="324px" height="234px" viewBox="0 0 324 234" version="1.1">
<g id="surface1">
<rect x="0" y="0" width="324" height="234" style="fill:rgb(90.196079%,90.196079%,90.196079%);fill-opacity:1;stroke:none;"/>
<path style="fill:none;stroke-width:1.026127;stroke-linecap:butt;stroke-linejoin:miter;stroke:rgb(100%,100%,100%);stroke-opacity:1;stroke-miterlimit:4;" d="M -0.94184 -1.080729 L 181.215278 -1.080729 L 181.215278 131.753472 L -0.94184 131.753472 Z M -0.94184 -1.080729 " transform="matrix(1.8,0,0,1.8,0,0)"/>
<path style=" stroke:none;fill-rule:nonzero;fill:rgb(0%,0%,0%);fill-opacity:1;" d="M 137.144531 44.628906 C 136.4375 44.652344 135.679688 44.921875 134.816406 45.621094 C 132.699219 44.78125 130.648438 44.492188 128.816406 46.199219 C 125.984375 45.820312 125.0625 46.601562 124.367188 47.511719 C 123.746094 47.5 119.714844 46.855469 117.867188 49.691406 C 113.222656 49.125 111.753906 52.503906 113.417969 55.65625 C 112.46875 57.167969 111.484375 58.660156 113.703125 61.542969 C 112.917969 63.144531 113.40625 64.886719 115.253906 66.992188 C 114.765625 69.25 115.726562 70.84375 117.445312 72.082031 C 117.121094 75.171875 120.195312 76.964844 121.113281 77.605469 C 121.464844 79.402344 122.199219 81.101562 125.707031 82.039062 C 126.289062 84.722656 128.394531 85.183594 130.4375 85.746094 C 123.6875 89.785156 117.898438 95.101562 117.9375 108.136719 L 116.949219 109.953125 C 109.210938 114.796875 102.246094 130.371094 113.136719 143.03125 C 113.847656 146.992188 115.039062 149.835938 116.101562 152.988281 C 117.691406 165.679688 128.058594 171.621094 130.792969 172.324219 C 134.800781 175.464844 139.066406 178.445312 144.84375 180.535156 C 150.285156 186.316406 156.183594 188.519531 162.113281 188.515625 C 162.203125 188.515625 162.289062 188.515625 162.375 188.515625 C 168.308594 188.519531 174.203125 186.316406 179.648438 180.535156 C 185.425781 178.445312 189.691406 175.464844 193.699219 172.324219 C 196.433594 171.621094 206.800781 165.679688 208.390625 152.988281 C 209.453125 149.835938 210.644531 146.992188 211.355469 143.03125 C 222.246094 130.371094 215.28125 114.796875 207.539062 109.953125 L 206.550781 108.136719 C 206.589844 95.101562 200.800781 89.785156 194.050781 85.746094 C 196.09375 85.183594 198.203125 84.722656 198.78125 82.039062 C 202.292969 81.101562 203.027344 79.402344 203.378906 77.605469 C 204.296875 76.964844 207.367188 75.171875 207.046875 72.082031 C 208.765625 70.84375 209.726562 69.25 209.238281 66.992188 C 211.085938 64.886719 211.574219 63.144531 210.789062 61.542969 C 213.007812 58.660156 212.023438 57.167969 211.074219 55.65625 C 212.738281 52.503906 211.269531 49.125 206.625 49.691406 C 204.777344 46.855469 200.746094 47.5 200.125 47.511719 C 199.429688 46.601562 198.507812 45.820312 195.675781 46.199219 C 193.84375 44.492188 191.792969 44.78125 189.675781 45.621094 C 187.164062 43.582031 185.503906 45.214844 183.605469 45.835938 C 180.5625 44.8125 179.867188 46.214844 178.375 46.785156 C 175.058594 46.0625 174.050781 47.632812 172.460938 49.289062 L 170.609375 49.253906 C 165.609375 52.285156 163.125 58.464844 162.242188 61.640625 C 161.359375 58.464844 158.882812 52.285156 153.882812 49.253906 L 152.03125 49.289062 C 150.441406 47.632812 149.433594 46.0625 146.117188 46.785156 C 144.625 46.214844 143.929688 44.8125 140.886719 45.835938 C 139.640625 45.429688 138.496094 44.585938 137.144531 44.628906 Z M 137.144531 44.628906 "/>
<path style=" stroke:none;fill-rule:nonzero;fill:rgb(45.882353%,66.274512%,15.686275%);fill-opacity:1;" d="M 127.1875 57.976562 C 140.460938 65.019531 148.171875 70.71875 152.398438 75.570312 C 150.234375 84.5 138.945312 84.90625 134.816406 84.65625 C 135.660156 84.25 136.367188 83.765625 136.617188 83.019531 C 135.582031 82.261719 131.90625 82.941406 129.34375 81.457031 C 130.328125 81.246094 130.789062 81.042969 131.25 80.292969 C 128.828125 79.5 126.214844 78.8125 124.683594 77.496094 C 125.511719 77.507812 126.285156 77.6875 127.367188 76.914062 C 125.195312 75.710938 122.878906 74.757812 121.082031 72.914062 C 122.203125 72.886719 123.410156 72.90625 123.765625 72.480469 C 121.777344 71.214844 120.101562 69.804688 118.714844 68.261719 C 120.285156 68.457031 120.949219 68.289062 121.328125 68.007812 C 119.824219 66.425781 117.925781 65.089844 117.019531 63.140625 C 118.183594 63.550781 119.253906 63.710938 120.019531 63.101562 C 119.511719 61.917969 117.324219 61.21875 116.066406 58.449219 C 117.292969 58.574219 118.59375 58.726562 118.855469 58.449219 C 118.285156 56.058594 117.308594 54.714844 116.347656 53.324219 C 118.976562 53.285156 122.957031 53.335938 122.773438 53.105469 L 121.152344 51.398438 C 123.714844 50.6875 126.34375 51.511719 128.246094 52.125 C 129.105469 51.429688 128.234375 50.550781 127.1875 49.652344 C 129.371094 49.953125 131.339844 50.46875 133.121094 51.179688 C 134.074219 50.296875 132.503906 49.410156 131.742188 48.527344 C 135.113281 49.183594 136.539062 50.109375 137.957031 51.035156 C 138.988281 50.019531 138.015625 49.15625 137.324219 48.273438 C 139.863281 49.242188 141.171875 50.492188 142.546875 51.726562 C 143.015625 51.078125 143.734375 50.601562 142.867188 49.035156 C 144.667969 50.105469 146.027344 51.367188 147.03125 52.78125 C 148.148438 52.046875 147.699219 51.046875 147.703125 50.125 C 149.578125 51.695312 150.765625 53.367188 152.222656 54.996094 C 152.515625 54.777344 152.773438 54.03125 153 52.851562 C 157.472656 57.316406 163.789062 68.566406 154.625 73.023438 C 146.828125 66.402344 137.511719 61.589844 127.1875 57.976562 Z M 127.1875 57.976562 "/>
<path style=" stroke:none;fill-rule:nonzero;fill:rgb(45.882353%,66.274512%,15.686275%);fill-opacity:1;" d="M 197.601562 57.976562 C 184.332031 65.019531 176.617188 70.71875 172.390625 75.570312 C 174.554688 84.5 185.847656 84.90625 189.976562 84.65625 C 189.128906 84.25 188.425781 83.765625 188.175781 83.019531 C 189.210938 82.261719 192.882812 82.941406 195.449219 81.457031 C 194.464844 81.246094 194.003906 81.042969 193.542969 80.292969 C 195.964844 79.5 198.574219 78.8125 200.109375 77.496094 C 199.28125 77.507812 198.507812 77.6875 197.425781 76.914062 C 199.597656 75.710938 201.910156 74.757812 203.710938 72.914062 C 202.589844 72.886719 201.378906 72.90625 201.027344 72.480469 C 203.011719 71.214844 204.691406 69.804688 206.078125 68.261719 C 204.507812 68.457031 203.84375 68.289062 203.464844 68.007812 C 204.964844 66.425781 206.867188 65.089844 207.769531 63.140625 C 206.605469 63.550781 205.539062 63.710938 204.769531 63.101562 C 205.28125 61.917969 207.464844 61.21875 208.726562 58.449219 C 207.496094 58.574219 206.195312 58.726562 205.933594 58.449219 C 206.507812 56.058594 207.484375 54.714844 208.441406 53.324219 C 205.816406 53.285156 201.835938 53.335938 202.015625 53.105469 L 203.640625 51.398438 C 201.074219 50.6875 198.449219 51.511719 196.542969 52.125 C 195.6875 51.429688 196.558594 50.550781 197.601562 49.652344 C 195.421875 49.953125 193.453125 50.46875 191.671875 51.179688 C 190.71875 50.296875 192.289062 49.410156 193.046875 48.527344 C 189.679688 49.183594 188.25 50.109375 186.832031 51.035156 C 185.804688 50.019531 186.773438 49.15625 187.46875 48.273438 C 184.929688 49.242188 183.621094 50.492188 182.242188 51.726562 C 181.777344 51.078125 181.054688 50.601562 181.925781 49.035156 C 180.121094 50.105469 178.761719 51.367188 177.757812 52.78125 C 176.640625 52.046875 177.09375 51.046875 177.085938 50.125 C 175.214844 51.695312 174.023438 53.367188 172.566406 54.996094 C 172.273438 54.777344 172.015625 54.03125 171.789062 52.851562 C 167.320312 57.316406 161 68.566406 170.167969 73.023438 C 177.960938 66.402344 187.277344 61.589844 197.601562 57.976562 Z M 197.601562 57.976562 "/>
<path style=" stroke:none;fill-rule:nonzero;fill:rgb(73.725492%,6.666667%,25.882354%);fill-opacity:1;" d="M 178.464844 148.90625 C 178.464844 157.238281 171.351562 163.996094 162.570312 163.996094 C 153.792969 163.996094 146.675781 157.238281 146.675781 148.90625 C 146.675781 140.574219 153.792969 133.820312 162.570312 133.820312 C 171.351562 133.820312 178.464844 140.574219 178.464844 148.90625 Z M 178.464844 148.90625 "/>
<path style=" stroke:none;fill-rule:nonzero;fill:rgb(73.725492%,6.666667%,25.882354%);fill-opacity:1;" d="M 153.371094 105.804688 C 159.957031 110.246094 161.144531 120.316406 156.023438 128.292969 C 150.902344 136.273438 141.410156 139.136719 134.824219 134.695312 C 128.238281 130.253906 127.050781 120.1875 132.171875 112.207031 C 137.292969 104.230469 146.785156 101.363281 153.371094 105.804688 Z M 153.371094 105.804688 "/>
<path style=" stroke:none;fill-rule:nonzero;fill:rgb(73.725492%,6.666667%,25.882354%);fill-opacity:1;" d="M 171.152344 105 C 164.5625 109.441406 163.375 119.511719 168.5 127.488281 C 173.621094 135.46875 183.113281 138.335938 189.699219 133.890625 C 196.285156 129.449219 197.472656 119.382812 192.351562 111.402344 C 187.226562 103.425781 177.738281 100.558594 171.152344 105 Z M 171.152344 105 "/>
<path style=" stroke:none;fill-rule:nonzero;fill:rgb(73.725492%,6.666667%,25.882354%);fill-opacity:1;" d="M 120.453125 113.066406 C 127.566406 111.105469 122.855469 143.351562 117.070312 140.707031 C 110.703125 135.4375 108.65625 120.003906 120.453125 113.066406 Z M 120.453125 113.066406 "/>
<path style=" stroke:none;fill-rule:nonzero;fill:rgb(73.725492%,6.666667%,25.882354%);fill-opacity:1;" d="M 202.632812 112.664062 C 195.519531 110.703125 200.230469 142.949219 206.015625 140.304688 C 212.382812 135.035156 214.429688 119.601562 202.632812 112.664062 Z M 202.632812 112.664062 "/>
<path style=" stroke:none;fill-rule:nonzero;fill:rgb(73.725492%,6.666667%,25.882354%);fill-opacity:1;" d="M 178.472656 88.65625 C 190.742188 86.523438 200.953125 94.027344 200.542969 107.726562 C 200.140625 112.976562 173.949219 89.4375 178.472656 88.65625 Z M 178.472656 88.65625 "/>
<path style=" stroke:none;fill-rule:nonzero;fill:rgb(73.725492%,6.666667%,25.882354%);fill-opacity:1;" d="M 144.566406 88.253906 C 132.292969 86.121094 122.082031 93.625 122.492188 107.324219 C 122.898438 112.574219 149.085938 89.035156 144.566406 88.253906 Z M 144.566406 88.253906 "/>
<path style=" stroke:none;fill-rule:nonzero;fill:rgb(73.725492%,6.666667%,25.882354%);fill-opacity:1;" d="M 162.191406 85.058594 C 154.867188 84.859375 147.839844 90.652344 147.820312 94.011719 C 147.800781 98.09375 153.613281 102.273438 162.242188 102.378906 C 171.054688 102.445312 176.679688 99.035156 176.707031 94.820312 C 176.738281 90.050781 168.691406 84.984375 162.191406 85.058594 Z M 162.191406 85.058594 "/>
<path style=" stroke:none;fill-rule:nonzero;fill:rgb(73.725492%,6.666667%,25.882354%);fill-opacity:1;" d="M 162.640625 168.761719 C 169.027344 168.472656 177.59375 170.878906 177.609375 174.066406 C 177.71875 177.164062 169.839844 184.160156 162.214844 184.027344 C 154.320312 184.375 146.578125 177.367188 146.679688 174.9375 C 146.5625 171.378906 156.292969 168.597656 162.640625 168.761719 Z M 162.640625 168.761719 "/>
<path style=" stroke:none;fill-rule:nonzero;fill:rgb(73.725492%,6.666667%,25.882354%);fill-opacity:1;" d="M 139.054688 149.859375 C 143.597656 155.5 145.671875 165.40625 141.878906 168.324219 C 138.289062 170.554688 129.570312 169.636719 123.375 160.472656 C 119.195312 152.785156 119.734375 144.960938 122.667969 142.664062 C 127.054688 139.914062 133.835938 143.628906 139.054688 149.859375 Z M 139.054688 149.859375 "/>
<path style=" stroke:none;fill-rule:nonzero;fill:rgb(73.725492%,6.666667%,25.882354%);fill-opacity:1;" d="M 185.316406 148.074219 C 180.398438 154.003906 177.660156 164.820312 181.246094 168.304688 C 184.679688 171.011719 193.890625 170.632812 200.691406 160.917969 C 205.632812 154.390625 203.976562 143.488281 201.15625 140.597656 C 196.964844 137.257812 190.945312 141.53125 185.316406 148.074219 Z M 185.316406 148.074219 "/>
</g>
</svg>
