<?xml version="1.0" encoding="UTF-8" standalone="no"?>
<svg
   xmlns:dc="http://purl.org/dc/elements/1.1/"
   xmlns:cc="http://creativecommons.org/ns#"
   xmlns:rdf="http://www.w3.org/1999/02/22-rdf-syntax-ns#"
   xmlns:svg="http://www.w3.org/2000/svg"
   xmlns="http://www.w3.org/2000/svg"
   xmlns:sodipodi="http://sodipodi.sourceforge.net/DTD/sodipodi-0.dtd"
   xmlns:inkscape="http://www.inkscape.org/namespaces/inkscape"
   width="324px"
   height="234px"
   viewBox="0 0 324 234"
   version="1.1"
   id="svg16"
   sodipodi:docname="mailspring.svg"
   inkscape:version="1.0.1 (3bc2e813f5, 2020-09-07)">
  <metadata
     id="metadata20">
    <rdf:RDF>
      <cc:Work
         rdf:about="">
        <dc:format>image/svg+xml</dc:format>
        <dc:type
           rdf:resource="http://purl.org/dc/dcmitype/StillImage" />
      </cc:Work>
    </rdf:RDF>
  </metadata>
  <sodipodi:namedview
     pagecolor="#ffffff"
     bordercolor="#666666"
     borderopacity="1"
     objecttolerance="10"
     gridtolerance="10"
     guidetolerance="10"
     inkscape:pageopacity="0"
     inkscape:pageshadow="2"
     inkscape:window-width="1920"
     inkscape:window-height="1040"
     id="namedview18"
     showgrid="false"
     inkscape:zoom="2.6380522"
     inkscape:cx="201.7273"
     inkscape:cy="137.13731"
     inkscape:window-x="0"
     inkscape:window-y="0"
     inkscape:window-maximized="1"
     inkscape:current-layer="svg16" />
  <defs
     id="defs7">
    <linearGradient
       id="linear0"
       gradientUnits="userSpaceOnUse"
       x1="-1.455352"
       y1="64.761543"
       x2="181.728165"
       y2="64.761543"
       gradientTransform="matrix(1.8,0,0,2.057148,0,-139.32)">
      <stop
         offset="0"
         style="stop-color:rgb(9.803922%,48.627451%,94.509804%);stop-opacity:1;"
         id="stop2" />
      <stop
         offset="1"
         style="stop-color:rgb(1.960784%,62.7451%,92.156863%);stop-opacity:1;"
         id="stop4" />
    </linearGradient>
  </defs>
  <rect
     x="0"
     y="0"
     width="324"
     height="234"
     style="fill:url(#linear0);stroke:none"
     id="rect9" />
  <path
     style="fill:none;stroke:#ffffff;stroke-width:1.83906;stroke-linecap:butt;stroke-linejoin:miter;stroke-miterlimit:4;stroke-opacity:1"
     d="M -1.699218,-1.9492182 H 326.19141 V 235.08985 H -1.699218 Z m 0,0"
     id="path11" />
  <g
     id="g895"
     transform="matrix(1.1432428,0,0,1.1052407,-311.22472,39.393184)">
    <path
       d="m 409.54493,6.4968178 c -9.57617,0.5384479 -18.70611,2.8017687 -26.97337,6.4947432 l 4.38703,7.13938 c 6.93299,-2.998034 14.55637,-4.876297 22.58634,-5.382738 z m 8.77405,0 v 8.2513852 c 8.02996,0.506445 15.65338,2.384688 22.58634,5.382738 l 4.38702,-7.13938 C 437.02509,9.2985865 427.89514,7.0352657 418.31898,6.4968178 Z M 374.86856,16.93192 c -8.07131,4.813887 -14.94639,11.11028 -20.20432,18.43669 l 7.58305,4.117635 c 4.45789,-6.092881 10.23387,-11.348638 16.99973,-15.431061 z m 78.12679,0 -4.37846,7.123264 c 6.76358,4.081985 12.54299,9.339752 16.99973,15.431061 l 7.58304,-4.117635 C 467.94174,28.0422 461.06665,21.745807 452.99535,16.93192 Z M 350.25151,42.499936 c -4.08265,7.791181 -6.44198,16.456617 -6.49486,25.688882 h 8.77406 c 0.0512,-7.707682 1.9578,-14.986848 5.30385,-21.571251 z m 127.36088,0 -7.58304,4.117631 c 3.34606,6.584395 5.25251,13.863623 5.30385,21.571251 h 8.77405 c -0.0529,-9.232265 -2.4122,-17.897701 -6.49486,-25.688882 z m -133.1874,33.940267 c 1.30356,8.464705 4.57009,16.510466 9.4938,23.698557 l 7.59161,-4.125688 c -4.14666,-5.96758 -6.97387,-12.591384 -8.2171,-19.572869 z m 130.17989,0 c -1.20181,7.136413 -3.96814,13.788986 -8.01147,19.701796 l 7.57448,4.117631 c 4.81514,-7.115454 8.08237,-15.152799 9.331,-23.819427 z m -107.73922,26.188477 -7.65159,4.15793 c 0.68942,0.7701 1.34523,1.5619 2.07356,2.30458 v 0.93473 9.88716 c -10e-4,6.33713 3.8414,11.72523 9.17677,14.95563 l 4.2842,-6.97822 c -2.72791,-1.80369 -4.6876,-4.62307 -4.68692,-7.97741 v -9.88716 -4.22239 c -1.12108,-1.01744 -2.16889,-2.09046 -3.19602,-3.17485 z m 94.43248,0.16924 c -4.53963,4.81896 -10.0406,8.88259 -16.17717,12.07893 l 4.36133,7.09909 c 7.46392,-3.91519 14.06937,-9.00026 19.46743,-15.02816 z m -24.12865,15.61639 c -5.9006,2.13208 -12.24724,3.43522 -18.85051,3.8517 v 8.25139 c 8.15798,-0.45872 16.00657,-2.1399 23.26324,-4.92344 z m -36.30437,2.36905 -5.49235,2.98951 a 8.7749318,8.2522107 0 0 0 -0.009,0 l -9.11679,4.93956 a 8.7749318,8.2522107 0 0 0 -0.009,0.008 c -0.77971,0.42098 -1.5975,0.69224 -2.42486,0.89443 l -5.05536,8.23528 c 3.97956,0.56891 8.12697,0.0359 11.85011,-1.97421 a 17.549864,16.504421 0 0 0 0.0171,-0.008 l 9.11679,-4.93955 a 17.549864,16.504421 0 0 0 0.0259,-0.0161 l 2.99894,-1.62771 c 2.26487,0.32956 4.51456,0.76476 6.77762,1.07171 v -8.1708 c -2.9153,-0.3105 -5.80315,-0.84371 -8.67981,-1.4021 z"
       style="opacity:0.2;stroke-width:4.25435"
       id="path854" />
    <path
       style="fill:#b1ddf4;stroke-width:4.25435"
       d="m 409.54493,2.3698663 c -9.57617,0.5384478 -18.70611,2.8017687 -26.97337,6.4947431 l 4.38703,7.1393806 c 6.93299,-2.998034 14.55637,-4.876297 22.58634,-5.382738 z m 8.77405,0 v 8.2513857 c 8.02996,0.506445 15.65338,2.384687 22.58634,5.382738 l 4.38702,-7.1393806 C 437.02509,5.171635 427.89514,2.9083141 418.31898,2.3698663 Z M 374.86856,12.804969 c -8.07131,4.813887 -14.94639,11.11028 -20.20432,18.436689 l 7.58305,4.117636 c 4.45789,-6.092881 10.23387,-11.348638 16.99973,-15.431061 z m 78.12679,0 -4.37846,7.123264 c 6.76358,4.081985 12.54299,9.339752 16.99973,15.431061 l 7.58304,-4.117636 C 467.94174,23.915249 461.06665,17.618856 452.99535,12.804969 Z M 350.25151,38.372984 c -4.08265,7.791181 -6.44198,16.456617 -6.49486,25.688882 h 8.77406 c 0.0512,-7.707681 1.9578,-14.986847 5.30385,-21.57125 z m 127.36088,0 -7.58304,4.117632 c 3.34606,6.584395 5.25251,13.863623 5.30385,21.57125 h 8.77405 c -0.0529,-9.232265 -2.4122,-17.897701 -6.49486,-25.688882 z m -133.1874,33.940268 c 1.30356,8.464705 4.57009,16.510466 9.4938,23.698561 l 7.59161,-4.125693 c -4.14666,-5.967579 -6.97387,-12.591383 -8.2171,-19.572868 z m 130.17989,0 c -1.20181,7.136413 -3.96814,13.788985 -8.01147,19.701796 l 7.57448,4.117636 c 4.81514,-7.115459 8.08237,-15.152804 9.331,-23.819432 z m -107.73922,26.188479 -7.65159,4.157929 c 0.68942,0.7701 1.34523,1.5619 2.07356,2.30458 v 0.93473 9.88716 c -10e-4,6.33713 3.8414,11.72522 9.17677,14.95563 l 4.2842,-6.97822 c -2.72791,-1.80369 -4.6876,-4.62307 -4.68692,-7.97741 v -9.88716 -4.22239 c -1.12108,-1.01744 -2.16889,-2.090456 -3.19602,-3.174849 z m 94.43248,0.169236 c -4.53963,4.818963 -10.0406,8.882593 -16.17717,12.078933 l 4.36133,7.09909 c 7.46392,-3.91519 14.06937,-9.00026 19.46743,-15.02816 z m -24.12865,15.616393 c -5.9006,2.13208 -12.24724,3.43522 -18.85051,3.8517 v 8.25139 c 8.15798,-0.45872 16.00657,-2.1399 23.26324,-4.92344 z m -36.30437,2.36905 -5.49235,2.98951 a 8.7749318,8.2522107 0 0 0 -0.009,0 l -9.11679,4.93955 a 8.7749318,8.2522107 0 0 0 -0.009,0.008 c -0.77971,0.42098 -1.5975,0.69224 -2.42486,0.89443 l -5.05536,8.23527 c 3.97956,0.56892 8.12697,0.0359 11.85011,-1.97421 a 17.549864,16.504421 0 0 0 0.0171,-0.008 l 9.11679,-4.93955 a 17.549864,16.504421 0 0 0 0.0259,-0.0161 l 2.99894,-1.62771 c 2.26513,0.3295 4.51481,0.76472 6.77788,1.07167 v -8.17081 c -2.9153,-0.3105 -5.80315,-0.8437 -8.67981,-1.40209 z"
       id="path856" />
    <path
       style="opacity:0.2;stroke-width:4.25435"
       d="m 413.93195,22.805838 a 52.644326,45.699981 0 0 0 -52.64432,45.696883 52.644326,45.699981 0 0 0 17.54811,33.996669 v 7.52617 9.88716 a 2.0249842,1.9043563 0 0 0 3.03321,1.65189 l 9.11679,-4.93955 7.9772,-4.3352 a 52.644326,45.699981 0 0 0 14.96901,1.9178 52.644326,45.699981 0 0 0 52.64433,-45.704939 52.644326,45.699981 0 0 0 -52.64433,-45.696883 z"
       id="path858" />
    <ellipse
       style="fill:#ffffff;stroke-width:4.25435"
       cx="413.93195"
       cy="64.379547"
       rx="52.644325"
       ry="45.700298"
       id="ellipse860" />
    <path
       style="fill:#ffffff;stroke-width:4.25435"
       d="m 380.90797,94.099996 a 2.0249842,1.9043563 0 0 0 -2.07223,1.904164 v 9.89273 9.89274 a 2.0249842,1.9043563 0 0 0 3.03716,1.65127 l 9.11152,-4.94637 9.11152,-4.94636 a 2.0249842,1.9043563 0 0 0 0,-3.2951 l -9.11152,-4.95381 -9.11152,-4.946371 a 2.0249842,1.9043563 0 0 0 -0.96493,-0.252905 z"
       id="path862" />
  </g>
</svg>
