<svg xmlns="http://www.w3.org/2000/svg" width="324" height="234"><defs><linearGradient id="b" x1="8.39" x2="11.13" y1="1.11" y2="18.35" gradientTransform="matrix(5 0 0 5 82.69 36.12)" gradientUnits="userSpaceOnUse"><stop offset=".01" stop-color="#00b7f0"/><stop offset=".34" stop-color="#009de5"/><stop offset=".76" stop-color="#0082d9"/><stop offset="1" stop-color="#0078d4"/></linearGradient><linearGradient id="d" x1="14.38" x2="29.55" y1="26.64" y2="17.89" gradientTransform="matrix(5 0 0 5 82.69 36.12)" gradientUnits="userSpaceOnUse"><stop offset="0" stop-color="#0078d4"/><stop offset=".37" stop-color="#007ad5"/><stop offset=".57" stop-color="#0082d9"/><stop offset=".73" stop-color="#0090df"/><stop offset=".88" stop-color="#00a3e7"/><stop offset="1" stop-color="#00bcf2"/></linearGradient><linearGradient id="e" x1="10.45" x2="24.29" y1="6.69" y2="30.66" gradientUnits="userSpaceOnUse"><stop offset="0" stop-color="#00b7f0"/><stop offset="1" stop-color="#007cc1"/></linearGradient><radialGradient id="a" cx="90.14" cy="64.76" r="91.59" fx="90.14" fy="64.76" gradientTransform="matrix(1.8 0 0 1.3 0 32.12)" gradientUnits="userSpaceOnUse"><stop offset="0" stop-color="#e4fffa"/><stop offset="1" stop-color="#5fc7ff"/></radialGradient><filter id="c" width="1.07" height="1.09" x="-.03" y="-.03" color-interpolation-filters="sRGB"><feFlood flood-color="#0B2D50" flood-opacity=".4" result="flood"/><feGaussianBlur in="SourceGraphic" result="blur" stdDeviation=".4"/><feOffset dy=".5" in="blur" result="offset"/><feComposite in="flood" in2="offset" operator="in" result="comp1"/><feComposite in="SourceGraphic" in2="comp1" result="comp2"/></filter></defs><path fill="url(#a)" d="M0 0h324v234H0z"/><path fill="url(#b)" d="M175.28 84.77a43.8 43.65 0 0 1-43.8 43.65 43.8 43.65 0 0 1-43.8-43.65 43.8 43.65 0 0 1 43.8-43.65 43.8 43.65 0 0 1 43.8 43.65" filter="url(#c)"/><path fill="url(#d)" d="M236.31 147.45a43.81 43.66 0 0 1-43.8 43.67 43.81 43.66 0 0 1-43.82-43.67 43.81 43.66 0 0 1 43.81-43.66 43.81 43.66 0 0 1 43.81 43.66" filter="url(#c)"/><path fill="url(#e)" d="M29.74 16.07a13.87 13.83 0 0 1-13.88 13.82A13.87 13.83 0 0 1 2 16.07 13.87 13.83 0 0 1 15.86 2.24a13.87 13.83 0 0 1 13.88 13.83" filter="url(#c)" transform="matrix(5 0 0 5 82.69 36.12)"/><path fill="#fff" fill-rule="evenodd" d="M142.5 114.05a21.79 21.79 0 0 1-6.83-7.21 19.93 19.93 0 0 1-2.34-9.97 17.91 17.91 0 0 1 4.22-12.06 25.4 25.4 0 0 1 11-7.35 42.48 42.48 0 0 1 14.4-2.42 55.92 55.92 0 0 1 9.58.73 34.59 34.59 0 0 1 6.64 1.72 12.88 12.88 0 0 1 5.2 3.32 6.72 6.72 0 0 1 1.6 4.46 6.47 6.47 0 0 1-1.68 4.66 5.62 5.62 0 0 1-4.25 1.77 7.65 7.65 0 0 1-3.15-.71 57.17 57.17 0 0 0-7.52-2.75 27.27 27.27 0 0 0-7.24-.9 16.53 16.53 0 0 0-9.07 2.32 7.54 7.54 0 0 0-3.62 6.77 6.81 6.81 0 0 0 1.88 4.77 17.13 17.13 0 0 0 5.07 3.62q3.18 1.58 9.5 4.19a9.85 9.85 0 0 1 1.36.55A67.48 67.48 0 0 1 179 115.6a23.71 23.71 0 0 1 7.24 7.43 19.6 19.6 0 0 1 2.61 10.32 20.76 20.76 0 0 1-3.62 12.44 21.52 21.52 0 0 1-10.12 7.52 42.69 42.69 0 0 1-15.22 2.48 47.95 47.95 0 0 1-20.75-3.93 11.29 11.29 0 0 1-4.27-3.32 7.47 7.47 0 0 1-1.39-4.52 5.9 5.9 0 0 1 1.83-4.6 6.72 6.72 0 0 1 4.7-1.66 12.03 12.03 0 0 1 5.5 1.42q3.16 1.58 4.99 2.37a25.04 25.04 0 0 0 4.3 1.36 24.6 24.6 0 0 0 5.52.57 14.75 14.75 0 0 0 9.29-2.48 8.18 8.18 0 0 0 3.13-6.78 7.2 7.2 0 0 0-1.96-4.95 20.84 20.84 0 0 0-5.77-4.2q-3.82-2.01-10.73-4.9a66.45 66.45 0 0 1-11.79-6.12"/></svg>