<svg xmlns="http://www.w3.org/2000/svg" xml:space="preserve" width="324" height="234" viewBox="0 0 324 234"><path fill="#e6e6e6" d="M324 0v234H0V0h123.25z"/><g transform="matrix(1.08 0 0 1.08 100.81 39.09)"><linearGradient id="a" x1="61.65" x2="110.95" y1="8.52" y2="62.97" gradientTransform="matrix(1 0 0 -1 0 85.28)" gradientUnits="userSpaceOnUse"><stop offset="0" stop-color="#8abe42"/><stop offset=".3" stop-color="#88bb41"/><stop offset=".5" stop-color="#82b33f"/><stop offset=".67" stop-color="#78a43b"/><stop offset=".82" stop-color="#6a8f36"/><stop offset=".95" stop-color="#58742f"/><stop offset="1" stop-color="#51692c"/></linearGradient><path fill="url(#a)" d="M110.9 25.2c-29.9 0-54.2 24.3-54.2 54.2 29.9 0 54.2-24.3 54.2-54.2z"/><path fill="url(#b)" d="M74 4.7C48.6 20.6 40.8 54 56.6 79.4 82 63.5 89.9 30.2 74 4.7Z"/><path fill="url(#c)" d="M39.2 4.7C64.6 20.6 72.4 54 56.6 79.4A54.2 54.2 0 0 1 39.2 4.7Z"/><path fill="url(#d)" d="M2.4 25.2c0 29.9 24.3 54.2 54.2 54.2 0-30-24.3-54.2-54.2-54.2z"/><linearGradient id="b" x1="91.36" x2="48.69" y1="92.18" y2="11.98" gradientTransform="matrix(1 0 0 -1 0 85.28)" gradientUnits="userSpaceOnUse"><stop offset="0" stop-color="#fcd911"/><stop offset=".25" stop-color="#fbd514"/><stop offset=".5" stop-color="#f9c91c"/><stop offset=".74" stop-color="#f4b529"/><stop offset=".99" stop-color="#ee993b"/><stop offset="1" stop-color="#ee983c"/></linearGradient><linearGradient id="c" x1="56.32" x2="34.99" y1="19.64" y2="79.24" gradientTransform="matrix(1 0 0 -1 0 85.28)" gradientUnits="userSpaceOnUse"><stop offset="0" stop-color="#fcc838"/><stop offset=".28" stop-color="#f8b138"/><stop offset=".87" stop-color="#ee7737"/><stop offset="1" stop-color="#ec6937"/></linearGradient><linearGradient id="d" x1="46.2" x2="4.26" y1="11.88" y2="64.86" gradientTransform="matrix(1 0 0 -1 0 85.28)" gradientUnits="userSpaceOnUse"><stop offset="0" stop-color="#ea5857"/><stop offset=".16" stop-color="#e35453"/><stop offset=".39" stop-color="#d14947"/><stop offset=".66" stop-color="#b33634"/><stop offset=".95" stop-color="#8a1c1a"/><stop offset="1" stop-color="#831816"/></linearGradient></g><path d="M42.76 149.97h20.63c.1.33.1.76.21 1.2 0 .42.11.86.11 1.18 0 .43 0 .86-.1 1.3 0 .43-.11.86-.22 1.18H48.38v11.56H60.9c.11.43.11.86.22 1.19 0 .43.1.86.1 1.19 0 .43 0 .86-.1 1.18 0 .44-.1.87-.22 1.2H48.38v18.03c-.44.1-.87.1-1.3.21-.43 0-.97.11-1.4.11s-.98 0-1.4-.1c-.55 0-.98-.11-1.3-.22v-39.2Zm25.27 11.23c.43-.1.76-.1 1.19-.21.32 0 .76-.1 1.19-.1.43 0 .75 0 1.19.1.43 0 .75.1 1.08.22.1.54.21 1.3.32 2.16.1.86.22 1.62.22 2.26a12.16 12.16 0 0 1 3.02-3.24 8.61 8.61 0 0 1 4.86-1.4h.86c.33 0 .54 0 .76.1.1.33.1.66.22 1.09 0 .32.1.75.1 1.19 0 .43 0 .86-.1 1.4-.11.43-.11.97-.22 1.4-.32-.1-.65-.1-.86-.1h-.76c-.97 0-1.94.1-2.8.43a6.6 6.6 0 0 0-2.38 1.4 6.56 6.56 0 0 0-1.73 2.81c-.43 1.19-.65 2.8-.65 4.64v13.94c-.43.1-.86.1-1.3.21-.54 0-.97.11-1.3.11-.42 0-.86 0-1.29-.1-.54 0-.97-.12-1.4-.22V161.2zm22.57 15.45c.11 3.02.87 5.3 2.38 6.7 1.51 1.4 3.78 2.16 6.7 2.16a19.44 19.44 0 0 0 7.45-1.4c.32.53.54 1.18.75 2.04.22.76.33 1.52.33 2.38-1.19.54-2.49.86-4 1.19-1.4.21-3.02.43-4.75.43-2.6 0-4.75-.32-6.59-1.08a12.39 12.39 0 0 1-4.53-3.02 11.52 11.52 0 0 1-2.6-4.65 19.47 19.47 0 0 1-.86-5.83c0-2.05.22-4 .76-5.83.54-1.84 1.3-3.35 2.48-4.75a11.88 11.88 0 0 1 4.1-3.14 14.2 14.2 0 0 1 5.94-1.18c1.95 0 3.68.32 5.08.97a9.31 9.31 0 0 1 3.67 2.7c.97 1.19 1.73 2.48 2.27 4.1s.76 3.35.76 5.19c0 .54 0 1.08-.11 1.62 0 .54-.11 1.08-.11 1.4zm13.94-4.1a8.5 8.5 0 0 0-.44-2.92 8.82 8.82 0 0 0-1.18-2.48 5.1 5.1 0 0 0-2.06-1.62 6.43 6.43 0 0 0-2.91-.65c-2.27 0-3.89.65-5.08 2.05a9.8 9.8 0 0 0-2.16 5.62zm15.55 4.1c.1 3.02.86 5.3 2.37 6.7 1.52 1.4 3.78 2.16 6.7 2.16a19.44 19.44 0 0 0 7.45-1.4c.33.53.54 1.18.76 2.04.21.76.32 1.52.32 2.38-1.19.54-2.48.86-4 1.19-1.4.21-3.02.43-4.75.43-2.59 0-4.75-.32-6.58-1.08a12.39 12.39 0 0 1-4.54-3.02 11.52 11.52 0 0 1-2.6-4.65 19.47 19.47 0 0 1-.86-5.83c0-2.05.22-4 .76-5.83.54-1.84 1.3-3.35 2.48-4.75a11.88 11.88 0 0 1 4.1-3.14 14.2 14.2 0 0 1 5.95-1.18c1.94 0 3.67.32 5.07.97a9.31 9.31 0 0 1 3.68 2.7c.97 1.19 1.72 2.48 2.26 4.1s.76 3.35.76 5.19c0 .54 0 1.08-.1 1.62 0 .54-.12 1.08-.12 1.4zm13.93-4.1c0-.98-.1-2.06-.43-2.92a8.82 8.82 0 0 0-1.19-2.48 5.1 5.1 0 0 0-2.05-1.62 6.43 6.43 0 0 0-2.92-.65c-2.27 0-3.89.65-5.07 2.05a9.8 9.8 0 0 0-2.16 5.62zm27.11 17.49a18 18 0 0 1-7.45-1.51 13.98 13.98 0 0 1-5.19-4.21 17.93 17.93 0 0 1-3.02-6.48 32.29 32.29 0 0 1-.97-8.21c0-2.92.32-5.72.97-8.2a19.93 19.93 0 0 1 3.02-6.49 13.18 13.18 0 0 1 5.19-4.21 17.28 17.28 0 0 1 7.45-1.51 18 18 0 0 1 7.45 1.51 15.12 15.12 0 0 1 5.18 4.21c1.4 1.84 2.38 4 3.03 6.48.65 2.49.97 5.19.97 8.21 0 2.92-.32 5.72-.97 8.2a17.94 17.94 0 0 1-3.03 6.49 13.98 13.98 0 0 1-5.18 4.21 18 18 0 0 1-7.45 1.51zm0-4.86c1.83 0 3.45-.32 4.75-1.08a9.26 9.26 0 0 0 3.35-3.13c.86-1.4 1.51-3.02 1.94-4.86.43-1.94.65-4.1.65-6.48s-.22-4.54-.65-6.48a14.3 14.3 0 0 0-1.94-4.86 8.2 8.2 0 0 0-3.35-3.02 9.37 9.37 0 0 0-4.75-1.08 9.3 9.3 0 0 0-4.75 1.08 9.96 9.96 0 0 0-3.35 3.02 14.3 14.3 0 0 0-1.95 4.86c-.43 1.94-.64 4.1-.64 6.48s.21 4.54.64 6.48a14.3 14.3 0 0 0 1.95 4.86 8.48 8.48 0 0 0 3.35 3.13 9.37 9.37 0 0 0 4.75 1.08zm42.44-25.92c0-3.45 1.08-6.15 3.13-7.88 2.06-1.73 4.86-2.7 8.54-2.7a22.16 22.16 0 0 1 7.99 1.4 5.9 5.9 0 0 1-.43 2.38c-.22.75-.54 1.4-.87 2.05a24.03 24.03 0 0 0-3.02-.97c-.87-.22-1.95-.33-3.24-.33-.97 0-1.84.11-2.6.22-.75.22-1.5.43-2.05.97a4.54 4.54 0 0 0-1.4 1.95 8.58 8.58 0 0 0-.54 3.13v1.83h16.96v28.08c-.44.11-.87.11-1.3.22-.54 0-.97.1-1.3.1-.43 0-.86 0-1.3-.1-.53 0-.96-.1-1.29-.22v-23.86H209.3v23.86c-.44.11-.87.11-1.3.22-.54 0-.97.1-1.3.1-.43 0-.86 0-1.4-.1-.54 0-.97-.1-1.4-.22v-23.86h-11.88v23.86c-.44.11-.87.11-1.3.22-.54 0-.97.1-1.3.1-.32 0-.86 0-1.4-.1-.54 0-.97-.1-1.4-.22v-23.86h-4.65a11.13 11.13 0 0 1 0-4.32h4.65v-1.73c0-3.46.86-6.16 2.59-7.89 1.73-1.72 4.21-2.7 7.45-2.7.97 0 1.84.11 2.6.22s1.5.32 2.15.43a11.12 11.12 0 0 1-1.4 4.32c-.33-.1-.76-.21-1.19-.32-.43-.11-1.08-.11-1.73-.11-.75 0-1.51.1-2.16.22-.65.21-1.19.43-1.62.97a4.1 4.1 0 0 0-.97 1.94c-.22.76-.32 1.84-.32 3.13v1.52h11.88v-1.95Zm48.71 25.17c.32.54.54 1.18.76 1.94.21.76.32 1.51.43 2.38-2.16.86-4.65 1.3-7.45 1.3-4.65 0-8.21-1.3-10.59-4-2.37-2.7-3.56-6.27-3.56-10.7 0-2.05.32-4 .86-5.83s1.4-3.35 2.6-4.64a12.55 12.55 0 0 1 4.31-3.13 14.56 14.56 0 0 1 5.94-1.2c1.52 0 2.92.12 4.1.33 1.2.22 2.28.43 3.36.87 0 .64-.11 1.3-.22 2.16-.22.86-.43 1.5-.65 2.16a18.4 18.4 0 0 0-6.15-.98c-2.81 0-4.97.98-6.27 2.81-1.4 1.84-2.05 4.32-2.05 7.45 0 3.46.76 6.05 2.38 7.67a8.8 8.8 0 0 0 6.48 2.49c1.08 0 2.16-.11 3.02-.22.86-.22 1.73-.43 2.7-.86zm9.62-7.78c.1 3.02.86 5.3 2.37 6.7 1.51 1.4 3.78 2.16 6.7 2.16a19.44 19.44 0 0 0 7.45-1.4c.32.53.54 1.18.75 2.04.22.76.33 1.52.33 2.38-1.2.54-2.49.86-4 1.19-1.4.21-3.02.43-4.75.43-2.6 0-4.75-.32-6.59-1.08a12.39 12.39 0 0 1-4.54-3.02 11.52 11.52 0 0 1-2.59-4.65 19.47 19.47 0 0 1-.86-5.83c0-2.05.21-4 .75-5.83.54-1.84 1.3-3.35 2.49-4.75a11.88 11.88 0 0 1 4.1-3.14 14.2 14.2 0 0 1 5.94-1.18c1.95 0 3.67.32 5.08.97a9.31 9.31 0 0 1 3.67 2.7c.97 1.19 1.73 2.48 2.27 4.1s.75 3.35.75 5.19c0 .54 0 1.08-.1 1.62 0 .54-.11 1.08-.11 1.4zm13.92-4.1c0-.98-.1-2.06-.43-2.92a8.82 8.82 0 0 0-1.19-2.48 5.1 5.1 0 0 0-2.05-1.62 6.43 6.43 0 0 0-2.91-.65c-2.27 0-3.9.65-5.08 2.05a9.8 9.8 0 0 0-2.16 5.62zM73.1 153.54c.12 0 .22.1.44.1.1 0 .32.11.43.11.22 0 .33.11.54.11h.76c.43 0 .75 0 1.08-.1.32-.11.54-.22.75-.44.22-.21.33-.43.44-.65.1-.21.1-.54.1-.75 0-.33 0-.54-.1-.65-.11-.22-.22-.32-.33-.54-.21-.22-.43-.32-.65-.43a4.7 4.7 0 0 0-1.08-.43c-.32-.11-.64-.22-.86-.44-.22-.21-.54-.32-.76-.54-.21-.21-.43-.43-.54-.64-.1-.33-.21-.65-.21-.98 0-.75.21-1.3.75-1.83.54-.54 1.3-.65 2.27-.65h.65c.22 0 .43 0 .54.1.22 0 .32.12.54.12.1 0 .22.1.32.1 0 .11 0 .33-.1.44 0 .1-.11.32-.11.43-.22-.11-.54-.11-.87-.22-.32-.1-.64-.1-.97-.1-.75 0-1.3.1-1.62.43-.32.32-.54.64-.54 1.18 0 .22 0 .44.11.65.1.22.22.33.43.43l.65.33c.22.1.54.21.76.32.43.11.75.33 1.08.43.32.22.64.33.86.54.22.22.43.44.54.76.1.32.22.65.22 1.08s-.11.86-.22 1.3c-.22.32-.43.64-.76.97-.32.21-.64.43-1.08.54-.43.1-.97.21-1.5.21-.55 0-.98 0-1.3-.1-.33-.11-.65-.22-.98-.22 0-.1 0-.32.11-.43.11-.22.22-.43.22-.54zm10.27 1.29c-.54 0-.97-.1-1.4-.32a2.35 2.35 0 0 1-.98-.76 4 4 0 0 1-.54-1.18c-.1-.44-.21-.98-.21-1.4 0-.55.1-.98.21-1.41s.33-.87.54-1.19a3.1 3.1 0 0 1 2.37-1.08c.53 0 .98.1 1.41.32.43.22.76.44.97.76a4 4 0 0 1 .54 1.19c.11.43.22.97.22 1.4a4.95 4.95 0 0 1-.76 2.6c-.21.32-.54.53-.97.75-.43.22-.86.32-1.4.32zm0-.86c.75 0 1.3-.22 1.62-.76.32-.54.54-1.18.54-2.05a3.6 3.6 0 0 0-.54-2.05c-.33-.54-.87-.76-1.62-.76s-1.3.22-1.62.76a3.84 3.84 0 0 0-.54 2.05c0 .87.21 1.62.54 2.05.32.54.97.76 1.62.76zm9.39-5.51h-2.91v6.16h-.87v-6.16H87.8v-.86h1.18v-.65c0-.86.22-1.51.54-1.94.33-.44.98-.65 1.84-.65h.54c.22 0 .32 0 .43.1 0 .22 0 .33-.1.44-.11.1 0 .21-.11.32-.11 0-.22 0-.33-.1h-.43c-.22 0-.43 0-.65.1-.21 0-.32.11-.43.33-.1.21-.22.32-.32.54-.11.21-.11.54-.11.86v.54h2.91v-1.3l.87-.86h.1v2.16h1.84v.86h-1.94v4.54c0 .22 0 .43.1.54.11.1.11.22.22.32.11.11.22.11.33.11h.32c.32 0 .54 0 .86-.1.11.21.11.53.11.75-.32.1-.75.1-1.19.1-.54 0-.97-.1-1.3-.42-.32-.33-.42-.76-.42-1.4v-4.33zm4.76-3.56h1.18l2.7 6.48 2.7-6.48h1.2l.42 9.72h-.86l-.43-8.32-2.7 6.27h-.87l-2.7-6.27-.43 8.32h-.86zm14.36 5.18c0-.65-.1-1.08-.43-1.3-.33-.32-.65-.43-1.3-.43-.32 0-.65 0-.97.11-.32 0-.54.11-.76.22 0-.11-.1-.22-.1-.33v-.43c.21-.1.54-.1.86-.21.32 0 .65-.11 1.08-.11.86 0 1.51.21 1.94.54.44.43.65.97.65 1.83v4.54c-.32.1-.75.1-1.19.22-.43.1-.86.1-1.3.1a3.2 3.2 0 0 1-1.94-.54 1.95 1.95 0 0 1-.75-1.62c0-.32.1-.64.21-.97a1.94 1.94 0 0 1 1.4-1.19c.33-.1.76-.1 1.2-.1h.86c.22 0 .43 0 .54.1zm0 1.19c-.1 0-.32 0-.54-.1s-.43 0-.65 0c-.65 0-1.19.1-1.62.42-.32.22-.54.65-.54 1.08 0 .33.11.54.22.76.1.22.21.32.43.43.22.11.43.11.65.22h1.4c.22 0 .43-.11.76-.11v-2.7zm3.24-6.59h.86v9.94h-.86zm1.4 6.37 2.49-3.34h.97l-2.48 3.24 2.91 3.67h-1.08zm5.73.22c0 .97.21 1.62.65 2.05.43.43 1.08.65 1.94.65.32 0 .65 0 .97-.1.33-.12.54-.12.87-.22 0 .1.1.21.1.32 0 .1 0 .32.11.43a2.16 2.16 0 0 1-.97.22c-.32.1-.76.1-1.19.1-.65 0-1.08-.1-1.51-.21-.43-.1-.76-.43-1.08-.76-.32-.32-.43-.64-.65-1.18-.1-.44-.21-.98-.21-1.4 0-.55.1-.98.21-1.41s.33-.87.54-1.19c.22-.32.54-.65.97-.76a3.1 3.1 0 0 1 1.4-.32c.44 0 .87.1 1.2.22.32.1.64.32.86.64.22.33.43.65.54.98.1.43.22.75.22 1.3v.64zm4-.76c0-.32 0-.54-.11-.86a5.71 5.71 0 0 0-.33-.76c-.1-.21-.32-.32-.65-.54-.21-.1-.54-.21-.86-.21a2.3 2.3 0 0 0-1.51.54 3.6 3.6 0 0 0-.65 1.62h4.1zm2.91-2.81h.86v1.2c.22-.33.44-.65.76-.87a2.3 2.3 0 0 1 1.3-.32h.32v.86h-.32a2.4 2.4 0 0 0-1.52.54 3.2 3.2 0 0 0-.54 1.94v3.57h-.86z" class="st1"/></svg>