<svg xmlns="http://www.w3.org/2000/svg" xmlns:xlink="http://www.w3.org/1999/xlink" width="324" height="234"><defs/><defs><linearGradient id="m" x1="195.451" x2="302.816" y1="165.911" y2="165.911" gradientTransform="translate(49.735 39.336) scale(.83504)" gradientUnits="userSpaceOnUse" xlink:href="#a"/><linearGradient id="n" x1="195.451" x2="302.816" y1="165.911" y2="165.911" gradientTransform="translate(49.735 39.336) scale(.83504)" gradientUnits="userSpaceOnUse" xlink:href="#a"/><linearGradient id="o" x1="195.451" x2="302.816" y1="165.911" y2="165.911" gradientTransform="translate(49.735 39.336) scale(.83504)" gradientUnits="userSpaceOnUse" xlink:href="#a"/><linearGradient id="p" x1="195.451" x2="302.816" y1="165.911" y2="165.911" gradientTransform="translate(49.735 39.336) scale(.83504)" gradientUnits="userSpaceOnUse" xlink:href="#a"/></defs><defs><linearGradient id="a"><stop offset="0" stop-color="#cda8fc"/><stop offset="1" stop-color="#d9ebff"/></linearGradient><linearGradient id="c"><stop offset="0" stop-color="#9647f8"/><stop offset="1" stop-color="#459dff"/></linearGradient><linearGradient id="b"><stop offset="0" stop-color="#4197e4"/><stop offset="1" stop-color="#330032" stop-opacity="0"/></linearGradient><linearGradient id="f" x1="0" x2="172.222" y1="133.722" y2="-10.722" gradientTransform="matrix(0 .83871 -1.38462 0 185.154 -10.722)" gradientUnits="userSpaceOnUse" xlink:href="#b"/><linearGradient id="j" x1="114.777" x2="164.002" y1="134.091" y2="134.091" gradientTransform="translate(-50.013 -7.625) scale(1.0886)" gradientUnits="userSpaceOnUse" xlink:href="#c"/><linearGradient id="k" x1="161.743" x2="297.765" y1="102.435" y2="102.435" gradientTransform="translate(-50.647 25.66)" gradientUnits="userSpaceOnUse" xlink:href="#d"/><linearGradient id="g" x1="60.884" x2="217.895" y1="134.091" y2="134.091" gradientTransform="translate(-50.013 -7.625) scale(1.0886)" gradientUnits="userSpaceOnUse" xlink:href="#a"/><linearGradient id="l" x1="195.451" x2="302.816" y1="165.911" y2="165.911" gradientTransform="translate(49.735 39.336) scale(.83504)" gradientUnits="userSpaceOnUse" xlink:href="#a"/><radialGradient id="d" cx="-7915.977" cy="-8535.981" r="118.081" gradientTransform="translate(7978.7 8523.996)" gradientUnits="userSpaceOnUse"><stop offset=".113" stop-color="#fff44f"/><stop offset=".456" stop-color="#ff980e"/><stop offset=".622" stop-color="#ff5634"/><stop offset=".716" stop-color="#ff3647"/><stop offset=".904" stop-color="#e31587"/></radialGradient><radialGradient id="e" cx="-7927.165" cy="-8522.859" r="86.499" gradientTransform="matrix(.105 .995 -.653 .069 -4680.304 8470.187)" gradientUnits="userSpaceOnUse"><stop offset="0" stop-color="#fff44f"/><stop offset=".06" stop-color="#ffe847"/><stop offset=".168" stop-color="#ffc830"/><stop offset=".304" stop-color="#ff980e"/><stop offset=".356" stop-color="#ff8b16"/><stop offset=".455" stop-color="#ff672a"/><stop offset=".57" stop-color="#ff3647"/><stop offset=".737" stop-color="#e31587"/></radialGradient><radialGradient id="i" cx="139.39" cy="134.091" r="37.935" fx="139.39" fy="134.091" gradientTransform="translate(-50.013 -7.625) scale(1.0886)" gradientUnits="userSpaceOnUse" xlink:href="#e"/><filter id="h" width="1.482" height="1.482" x="-.241" y="-.241" color-interpolation-filters="sRGB"><feGaussianBlur stdDeviation="7.616"/></filter></defs><g fill-rule="evenodd" paint-order="markers fill stroke"><path fill="#212a54" d="M324 0v234H0V0z"/><path fill="url(#f)" d="M200 133.722V-10.722H0v23.297z" transform="matrix(-1.62 0 0 1.62 324 17.37)"/></g><g transform="translate(-7.354 -13.795)"><circle cx="101.727" cy="138.347" r="85.461" fill="url(#g)"/><circle cx="110.683" cy="125.391" r="37.935" fill="#fff" filter="url(#h)" transform="translate(-18.763 1.846) scale(1.0886)"/><circle cx="101.727" cy="138.347" r="41.296" fill="url(#i)"/><circle cx="101.727" cy="138.347" r="26.794" fill="url(#j)"/><path fill="url(#k)" d="M192.12 43.588v-2.604c0-5.08-3.642-9.179-7.48-9.165-3.825.015-7.215 4.142-7.23 9.222l-1.455 123.232c-9.695-5.109-22.205-5.465-36.522-.456-21.085 7.386-32.783 27.622-26.758 43.333 6.024 15.697 27.738 21.773 48.514 13.562 17.022-6.731 28.103-20.962 28.257-34.51.133-.71 1.54-106.81 1.54-106.81 39.128 10.589 45.46 33.913 45.46 33.913 6.865 16.977-1.386 37.925-1.386 37.925s-.687 2.605 1.331 3.43c2.55 1.038 3.712-1.438 3.712-1.438 12.245-26.882 4.736-48.186 4.736-48.186-6.837-23.88-30.933-37.1-30.933-37.1-18.45-11.683-21.785-20.535-21.785-24.348z"/><g fill="#3b78bc" stroke-width="1.173" aria-label="REC" color="#000" font-family="FreeSans" font-size="medium" font-weight="400" letter-spacing="0" style="line-height:1.25;-inkscape-font-specification:FreeSans" word-spacing="0"><path d="M233.3095 211.94231c1.00081.43786 1.82961.9539 2.48639 1.54813.68805.59423 1.17282 1.26665 1.4543 2.01726.31275.75061.51604 1.4543.60987 2.11109.0938.65678.14074 1.43866.14074 2.34565 0 .28147-.0156.68805-.0469 1.21973v1.17283c0 1.28229.14074 2.36129.42221 3.237.28148.87571.8288 1.59504 1.64196 2.15799v1.079h-5.30117c-.62551-1.43866-.93826-3.29954-.93826-5.58264V220.199c0-2.09545-.45349-3.62794-1.36048-4.59747-.90698-1.00081-2.33001-1.50122-4.26908-1.50122h-11.25912v14.73068h-4.36291v-34.19957h15.76277c3.34646 0 5.91104.79752 7.69373 2.39256 1.81397 1.56377 2.72095 3.81559 2.72095 6.75547 0 1.93907-.42222 3.54975-1.26665 4.83204-.84443 1.28229-2.22055 2.39256-4.12834 3.33082zm.84443-7.55299c0-2.25182-.59423-3.79995-1.78269-4.64439-1.18846-.84443-2.83041-1.26665-4.92586-1.26665h-10.55543v11.77517h10.55543c2.31437 0 4.00324-.46913 5.0666-1.40739 1.09463-.93826 1.64195-2.42384 1.64195-4.45674z" enable-background="accumulate" overflow="visible" style="line-height:1.25;-inkscape-font-specification:FreeSans;font-variant-ligatures:normal;font-variant-position:normal;font-variant-caps:normal;font-variant-numeric:normal;font-variant-alternates:normal;font-variant-east-asian:normal;font-feature-settings:normal;font-variation-settings:normal;text-indent:0;text-align:start;text-decoration-line:none;text-decoration-style:solid;text-decoration-color:#000;text-transform:none;text-orientation:mixed;white-space:normal;shape-padding:0;shape-margin:0;inline-size:0;isolation:auto;mix-blend-mode:normal;solid-color:#000;solid-opacity:1"/><path d="M211.94141 194.04492v35.37305h5.53515V214.6875h10.67188c1.83817 0 3.06861.46189 3.83594 1.30859l.00195.00196.0039.0039c.76298.8156 1.20118 2.18644 1.20118 4.19727v3.04883c0 2.33666.31754 4.2737.98828 5.8164l.15234.35352h6.27344v-1.97266l-.25391-.17578c-.72218-.49997-1.17563-1.10155-1.41797-1.85547-.25595-.79631-.39257-1.81727-.39257-3.05664v-1.17383c.02989-.51587.04687-.92406.04687-1.21875 0-.92721-.04731-1.73549-.14648-2.42968-.1015-.71049-.32073-1.45568-.64453-2.23633-.31851-.84714-.86763-1.60151-1.61524-2.24805-.47884-.43229-1.14171-.76079-1.77148-1.10742 1.51064-.86614 2.74808-1.84128 3.51757-3.00977.91912-1.3957 1.36329-3.13008 1.36329-5.15429 0-3.05941-.97165-5.51487-2.92188-7.19727-1.91833-1.71354-4.64348-2.53711-8.08008-2.53711h-16.34765zm1.17187 1.17383h15.17578c3.25328 0 5.65595.76875 7.30274 2.24219l.0039.0039.00586.00391c1.6763 1.44509 2.51563 3.49129 2.51563 6.31055 0 1.85393-.40018 3.34089-1.16992 4.50976-.76899 1.16773-2.05289 2.22027-3.89649 3.12696l-1.13281.55664 1.15625.50781c.95471.41769 1.7281.90244 2.32812 1.44531l.00586.00391.00391.0039c.62554.54025 1.04488 1.12816 1.28906 1.7793l.00391.00977.0039.00976c.29741.71377.48497 1.37132.57032 1.96875.08848.61936.13476 1.37691.13476 2.26367 0 .25976-.01401.65993-.04492 1.18555l-.00195.01563v1.1914c0 1.3252.14418 2.46091.45117 3.41602.2856.88854.85959 1.6245 1.61328 2.22265v.24805h-4.27734c-.49842-1.29664-.78907-2.93493-.78907-4.99609v-3.04883c0-2.17929-.46932-3.87262-1.51953-4.9961-.00023-.00025.00024-.00169 0-.00195-1.04682-1.14999-2.6615-1.6875-4.69726-1.6875h-11.84571v14.73047h-3.18945v-33.02539zm3.18945 2.67383v12.94726h11.14258c2.39241 0 4.23147-.47597 5.45313-1.55273 1.25073-1.07464 1.84179-2.76261 1.84179-4.89844 0-2.355-.64018-4.13408-2.02929-5.12109-1.32113-.9387-3.0914-1.375-5.26563-1.375h-11.14258zm1.17383 1.17187h9.96875c2.01667 0 3.53015.40804 4.58594 1.15821.9878.70186 1.53711 2.01737 1.53711 4.16601 0 1.92763-.50178 3.20967-1.4375 4.01172l-.00391.00391-.0039.00195c-.90508.7986-2.44262 1.25977-4.67774 1.25977h-9.96875v-10.60157zM250.15053 213.25588v11.72825h20.17259v3.84686h-24.5355v-34.19957h23.69107v3.84686h-19.32816v10.93073h18.62446v3.84687z" enable-background="accumulate" overflow="visible" style="line-height:1.25;-inkscape-font-specification:FreeSans;font-variant-ligatures:normal;font-variant-position:normal;font-variant-caps:normal;font-variant-numeric:normal;font-variant-alternates:normal;font-variant-east-asian:normal;font-feature-settings:normal;font-variation-settings:normal;text-indent:0;text-align:start;text-decoration-line:none;text-decoration-style:solid;text-decoration-color:#000;text-transform:none;text-orientation:mixed;white-space:normal;shape-padding:0;shape-margin:0;inline-size:0;isolation:auto;mix-blend-mode:normal;solid-color:#000;solid-opacity:1"/><path d="M245.20117 194.04492v35.37305h25.70899v-5.01953h-20.17383V213.8418h18.625v-5.01953h-18.625v-9.75782h19.32812v-5.01953h-24.86328zm1.17383 1.17383h22.51758v2.67383h-19.32813v12.10351h18.625v2.67383h-18.625V225.57031h20.17188v2.67383H246.375v-33.02539z" enable-background="accumulate" overflow="visible" style="line-height:1.25;-inkscape-font-specification:FreeSans;font-variant-ligatures:normal;font-variant-position:normal;font-variant-caps:normal;font-variant-numeric:normal;font-variant-alternates:normal;font-variant-east-asian:normal;font-feature-settings:normal;font-variation-settings:normal;text-indent:0;text-align:start;text-decoration-line:none;text-decoration-style:solid;text-decoration-color:#000;text-transform:none;text-orientation:mixed;white-space:normal;shape-padding:0;shape-margin:0;inline-size:0;isolation:auto;mix-blend-mode:normal;solid-color:#000;solid-opacity:1"/><g><path d="M273.59824 212.12997c0-1.56377.1251-3.1119.3753-4.64439.28148-1.53249.79752-3.12754 1.54813-4.78513.75061-1.65759 1.67323-3.09626 2.76787-4.31599 1.12591-1.25101 2.62713-2.2831 4.50365-3.09626 1.90779-.81316 4.05015-1.21974 6.42708-1.21974 7.44353 0 11.83771 3.72177 13.18255 11.1653h-4.45674c-.5004-2.43948-1.48557-4.26909-2.95552-5.48883-1.46994-1.21973-3.56539-1.8296-6.28634-1.8296-3.31518 0-5.94231 1.26665-7.88138 3.79995-1.90779 2.5333-2.86169 5.98922-2.86169 10.36777 0 4.28472 1.00081 7.69373 3.00243 10.22704 2.00162 2.50203 4.70694 3.75304 8.11595 3.75304 2.81478 0 4.97278-.78188 6.47399-2.34565 1.50121-1.59505 2.51766-4.05016 3.04935-7.36534h4.50364c-1.03209 9.03857-5.72339 13.55785-14.0739 13.55785-2.34565 0-4.45673-.39094-6.33325-1.17282-1.84525-.81316-3.33083-1.82961-4.45674-3.04935-1.09463-1.21973-2.01725-2.64276-2.76786-4.26908-.71933-1.65759-1.21974-3.237-1.50122-4.73821-.2502-1.50122-.3753-3.01807-.3753-4.55056z" enable-background="accumulate" overflow="visible" style="line-height:1.25;-inkscape-font-specification:FreeSans;font-variant-ligatures:normal;font-variant-position:normal;font-variant-caps:normal;font-variant-numeric:normal;font-variant-alternates:normal;font-variant-east-asian:normal;font-feature-settings:normal;font-variation-settings:normal;text-indent:0;text-align:start;text-decoration-line:none;text-decoration-style:solid;text-decoration-color:#000;text-transform:none;text-orientation:mixed;white-space:normal;shape-padding:0;shape-margin:0;inline-size:0;isolation:auto;mix-blend-mode:normal;solid-color:#000;solid-opacity:1"/><path d="M289.2207 193.48242c-2.44381 0-4.66958.41802-6.6582 1.26563v.00195h-.00195c-1.93794.83977-3.51501 1.91771-4.70703 3.24219-1.13834 1.26843-2.09274 2.76085-2.86524 4.46679-.76726 1.69437-1.30037 3.33328-1.5918 4.91993v.00586l-.00195.00585c-.25531 1.56381-.38281 3.14519-.38281 4.74024 0 1.5644.12729 3.11334.38281 4.64648l.00195.00586v.00586c.29096 1.55173.80707 3.172 1.54102 4.86328l.00195.00586.00196.00586c.77268 1.67416 1.72856 3.14944 2.86523 4.41602l.00195.00195.00391.00391c1.19017 1.28935 2.7464 2.34845 4.65039 3.1875l.00586.00195.00586.00391c1.95661.81525 4.14778 1.21679 6.55859 1.21679 4.28106 0 7.71663-1.17246 10.1875-3.55273 2.47087-2.38027 3.9426-5.91754 4.46875-10.52539l.07422-.65235h-5.66015l-.08008.49415c-.51981 3.24109-1.50894 5.57797-2.89258 7.05078-1.37439 1.43166-3.34461 2.16601-6.05078 2.16601-3.26398 0-5.75643-1.15638-7.65625-3.52929l-.00195-.00391c-1.90019-2.40678-2.87501-5.6679-2.875-9.85938 0-4.29336.93403-7.61203 2.74414-10.01562 1.84067-2.40284 4.2498-3.56641 7.41406-3.56641 2.63331 0 4.57707.58719 5.91015 1.69336 1.34725 1.11793 2.27431 2.80866 2.75586 5.15625l.09571.46875h5.63867l-.125-.6914c-.68925-3.81492-2.18023-6.75036-4.50195-8.7168-2.32173-1.96644-5.4383-2.92969-9.25782-2.92969zm0 1.17188c3.62402 0 6.42559.89702 8.49805 2.65234 1.92059 1.62669 3.17922 4.11004 3.88477 7.33984h-3.2461c-.55117-2.28168-1.51054-4.12406-2.99219-5.35351-1.60679-1.3333-3.85156-1.96484-6.66015-1.96485-3.46457.00001-6.31053 1.36985-8.34766 4.03126l-.00195.00195-.00195.00195c-2.00548 2.66301-2.97852 6.25698-2.97852 10.7207 0 4.37605 1.02757 7.93034 3.12891 10.58985v.00195h.00195c2.10308 2.62886 5.02172 3.97461 8.57422 3.97461 2.92339 0 5.26845-.83147 6.89648-2.52734l.00196-.00196.00195-.00195c1.52701-1.62246 2.503-4.06663 3.06836-7.17969h3.31445c-.57172 4.05248-1.86257 7.14054-3.95703 9.15821-2.22043 2.13901-5.30359 3.22656-9.37305 3.22656-2.28048 0-4.31098-.3804-6.10742-1.12891-1.78025-.78596-3.19075-1.7574-4.25-2.90429-.0006-.00065-.00135-.00131-.00195-.00196-1.04836-1.16967-1.93561-2.53688-2.66211-4.10937-.70263-1.62017-1.18719-3.15581-1.45899-4.60352-.00024-.00129-.00171-.00261-.00195-.0039-.24358-1.46549-.36523-2.94482-.36523-4.44141 0-1.52851.12141-3.04169.36523-4.53906.00024-.00131.00171-.0026.00195-.00391.2717-1.47716.77061-3.02515 1.50391-4.64453.72832-1.60837 1.61778-2.99538 2.66797-4.16602l.00195-.00195c1.05962-1.17668 2.48669-2.16311 4.30078-2.94922 1.82601-.77762 3.88495-1.17187 6.19336-1.17187z" enable-background="accumulate" overflow="visible" style="line-height:1.25;-inkscape-font-specification:FreeSans;font-variant-ligatures:normal;font-variant-position:normal;font-variant-caps:normal;font-variant-numeric:normal;font-variant-alternates:normal;font-variant-east-asian:normal;font-feature-settings:normal;font-variation-settings:normal;text-indent:0;text-align:start;text-decoration-line:none;text-decoration-style:solid;text-decoration-color:#000;text-transform:none;text-orientation:mixed;white-space:normal;shape-padding:0;shape-margin:0;inline-size:0;isolation:auto;mix-blend-mode:normal;solid-color:#000;solid-opacity:1"/></g></g><g fill="url(#l)" stroke-width=".777" aria-label="SONG" color="#000" font-family="FreeSans" font-size="medium" font-weight="600" letter-spacing="0" style="line-height:1.25" word-spacing="0"><g fill="url(#m)"><path fill="url(#l)" d="M230.8082 173.31203h-4.34938c-.16569-2.36109-1.75011-3.54163-4.75325-3.54163-1.20126 0-2.15398.25889-2.85816.77667-.70419.49707-1.05628 1.17019-1.05628 2.01936 0 .82845.30031 1.44979.90094 1.86402.60063.39351 1.72939.75596 3.3863 1.08734l3.54164.68348c2.09185.41423 3.61413 1.11841 4.56685 2.11255.95272.97343 1.42908 2.35074 1.42908 4.13191 0 2.29896-.8181 4.10085-2.45429 5.40566-1.63619 1.2841-3.91444 1.92615-6.83474 1.92615-2.89959 0-5.15712-.64205-6.77261-1.92615-1.59477-1.2841-2.46465-3.13776-2.60962-5.56099h4.53578c.0829 1.22197.55921 2.15398 1.42908 2.79603.86987.64205 2.09184.96307 3.66591.96307 1.40837 0 2.51642-.26925 3.32416-.80774.82845-.53849 1.24268-1.2841 1.24268-2.23682 0-.9113-.32102-1.61549-.96307-2.11256-.64205-.49707-1.73975-.89059-3.2931-1.18054l-3.16884-.62134c-2.29896-.43494-3.93515-1.11842-4.90858-2.05043-.97343-.93201-1.46015-2.27824-1.46015-4.03871 0-2.21611.74561-3.92479 2.23682-5.12605 1.51193-1.22197 3.62448-1.83295 6.33767-1.83295.78703 0 1.54299.0518 2.26789.15533.74561.10356 1.53264.32103 2.36109.65241.82845.31067 1.54299.72489 2.14362 1.24268.60063.49707 1.09771 1.20126 1.49122 2.11255.41423.89059.62134 1.92616.62134 3.1067z" enable-background="accumulate" overflow="visible" style="line-height:1.25;-inkscape-font-specification:'FreeSans Semi-Bold';font-variant-ligatures:normal;font-variant-position:normal;font-variant-caps:normal;font-variant-numeric:normal;font-variant-alternates:normal;font-variant-east-asian:normal;font-feature-settings:normal;font-variation-settings:normal;text-indent:0;text-align:start;text-decoration-line:none;text-decoration-style:solid;text-decoration-color:#000;text-transform:none;text-orientation:mixed;white-space:normal;shape-padding:0;shape-margin:0;inline-size:0;isolation:auto;mix-blend-mode:normal;solid-color:#000;solid-opacity:1"/><path d="M221.92383 165.6543c-2.77151 0-4.98175.62459-6.58203 1.91797-1.58211 1.27447-2.38086 3.12644-2.38086 5.42968 0 1.83208.51643 3.30185 1.57812 4.31836 1.06166 1.01649 2.76567 1.70983 5.10352 2.15235l3.16992.62109h.00195c1.52348.28438 2.57591.67885 3.12696 1.10547.55117.42672.8125.98658.8125 1.80664 0 .84011-.32574 1.42872-1.06641 1.91016l-.00195.00195h-.00196c-.72103.48069-1.74857.74219-3.10742.74219-1.52124 0-2.65576-.31117-3.43555-.88672-.77986-.57562-1.19648-1.37477-1.27343-2.50977l-.02344-.36133h-5.31055l.02344.41211c.1498 2.50392 1.07063 4.48449 2.75391 5.83985h.00195v.00195c1.70412 1.35455 4.05674 2.00977 7.01367 2.00977 2.97724 0 5.35167-.65637 7.07617-2.00977l.00196-.00195c1.72315-1.37416 2.59961-3.31786 2.59961-5.70899 0-1.84932-.5028-3.34241-1.53711-4.40039-1.03235-1.07723-2.63257-1.80106-4.77149-2.22461l-3.54101-.68359h-.00196c-1.63232-.32663-2.73574-.69876-3.24218-1.0293-.49833-.34522-.73047-.80832-.73047-1.54101 0-.74178.27354-1.26421.89258-1.70118l.00195-.0039.0039-.00195c.61924-.45533 1.48152-.70118 2.62696-.70118 1.45066 0 2.51108.28859 3.20898.8086.69791.52 1.07914 1.27425 1.15625 2.37304l.02539.36133h5.10157v-.38867c0-1.22373-.21599-2.31673-.65625-3.26562-.41076-.94977-.93821-1.70623-1.59375-2.25-.63696-.54867-1.39256-.98435-2.25586-1.3086-.84994-.33949-1.66562-.56732-2.44532-.67578h-.00195c-.74381-.10616-1.51692-.1582-2.32031-.1582zm0 .77734c.76999 0 1.50747.04962 2.21289.15039.7091.09849 1.46739.30727 2.27148.62891l.00391.00195h.00391c.79091.29659 1.46256.68863 2.02539 1.17383l.0039.00195.00196.00391c.5429.44929 1.00762 1.09794 1.38281 1.9668l.00195.00585.00195.00391c.33549.72129.46245 1.60566.50782 2.55469h-3.58789c-.15601-1.08014-.58293-1.98991-1.375-2.58008-.88651-.66054-2.12136-.96094-3.67383-.96094-1.25419 0-2.29357.27017-3.08203.84766-.0008.00056-.00116.00139-.00196.00195-.78781.55716-1.21875 1.3784-1.21875 2.33399 0 .92234.36809 1.70064 1.06836 2.18359l.00391.00195.00391.00391c.69579.45586 1.84638.80717 3.52343 1.14258h.00196l3.54101.68359c2.04478.40491 3.48824 1.08895 4.36133 2l.00195.00195.00196.00196c.86986.88878 1.3164 2.14747 1.3164 3.85937 0 2.20571-.75699 3.86434-2.30468 5.09961-1.54789 1.2148-3.73235 1.84375-6.59571 1.84375-2.84103 0-5.0006-.6272-6.52734-1.83984l-.00195-.00195c-1.4036-1.13114-2.15136-2.76023-2.36719-4.86719h3.75976c.16211 1.12834.62901 2.08307 1.49024 2.71875.95995.70853 2.26959 1.03906 3.89648 1.03906 1.45788 0 2.64461-.27675 3.53906-.87305.91309-.59557 1.41602-1.49519 1.41602-2.55859 0-1.00254-.38036-1.8525-1.11328-2.41992-.73306-.56753-1.87772-.96033-3.46094-1.25586l-3.16601-.6211h-.00196c-2.259-.42738-3.82605-1.10198-4.71094-1.94921-.88517-.84751-1.34179-2.06896-1.34179-3.75782 0-2.12896.69147-3.69617 2.09179-4.82422h.00196c1.42357-1.15055 3.43889-1.74609 6.09375-1.74609z" enable-background="accumulate" overflow="visible" style="line-height:1.25;-inkscape-font-specification:'FreeSans Semi-Bold';font-variant-ligatures:normal;font-variant-position:normal;font-variant-caps:normal;font-variant-numeric:normal;font-variant-alternates:normal;font-variant-east-asian:normal;font-feature-settings:normal;font-variation-settings:normal;text-indent:0;text-align:start;text-decoration-line:none;text-decoration-style:solid;text-decoration-color:#000;text-transform:none;text-orientation:mixed;white-space:normal;shape-padding:0;shape-margin:0;inline-size:0;isolation:auto;mix-blend-mode:normal;solid-color:#000;solid-opacity:1"/></g><g fill="url(#n)"><path fill="url(#l)" d="M237.10364 186.45338c-1.98829-2.21611-2.98244-5.06392-2.98244-8.54343 0-3.47951.99415-6.32731 2.98244-8.54342 2.009-2.21611 4.63934-3.32417 7.89101-3.32417 3.27239 0 5.91309 1.10806 7.92209 3.32417 2.009 2.1954 3.0135 5.09499 3.0135 8.69876 0 3.35523-.99414 6.15126-2.98243 8.38809-1.96758 2.21611-4.60828 3.32416-7.92209 3.32416-3.2931 0-5.93379-1.10805-7.92208-3.32416zm7.92208-16.43445c-1.88473 0-3.39666.7249-4.53578 2.17469-1.13913 1.42909-1.70869 3.33453-1.70869 5.71633 0 2.38181.56956 4.29761 1.70869 5.7474 1.13912 1.42908 2.65105 2.14362 4.53578 2.14362 1.86402 0 3.36559-.71454 4.50472-2.14362 1.15983-1.42909 1.73975-3.30346 1.73975-5.62313 0-2.44394-.56956-4.39081-1.70869-5.8406-1.11841-1.44979-2.63033-2.17469-4.53578-2.17469z" enable-background="accumulate" overflow="visible" style="line-height:1.25;-inkscape-font-specification:'FreeSans Semi-Bold';font-variant-ligatures:normal;font-variant-position:normal;font-variant-caps:normal;font-variant-numeric:normal;font-variant-alternates:normal;font-variant-east-asian:normal;font-feature-settings:normal;font-variation-settings:normal;text-indent:0;text-align:start;text-decoration-line:none;text-decoration-style:solid;text-decoration-color:#000;text-transform:none;text-orientation:mixed;white-space:normal;shape-padding:0;shape-margin:0;inline-size:0;isolation:auto;mix-blend-mode:normal;solid-color:#000;solid-opacity:1"/><path d="M244.99414 165.6543c-3.33993 0-6.09868 1.15778-8.17773 3.45117h-.00196v.00195c-2.05579 2.29134-3.08203 5.24923-3.08203 8.80274 0 3.5535 1.02625 6.51139 3.08203 8.80273 2.05949 2.29546 4.83069 3.45313 8.21094 3.45313 3.40042 0 6.17342-1.158 8.21289-3.45508 2.05237-2.30892 3.08008-5.21451 3.08008-8.64649 0-3.67489-1.03402-6.68571-3.11328-8.95898l-.00196-.00195c-2.07928-2.29249-4.84991-3.44922-8.20898-3.44922zm0 .77734c3.18469 0 5.69626 1.05697 7.63477 3.19531v.00196h.00195c1.93753 2.11729 2.91016 4.90396 2.91016 8.43554 0 3.2785-.95861 5.96613-2.88282 8.13086-1.89568 2.13513-4.4056 3.19336-7.63281 3.19336-3.20595 0-5.71572-1.05856-7.63281-3.19531-1.9208-2.14089-2.88281-4.8777-2.88281-8.2832 0-3.40444.96126-6.14263 2.88085-8.28321l.00196-.00195c1.93868-2.13742 4.43919-3.19336 7.60156-3.19336zm.03125 3.19922c-1.98435 0-3.63837.79062-4.8418 2.32226-1.20361 1.51112-1.79101 3.51439-1.79101 5.95704 0 2.44374.58803 4.45526 1.79101 5.98632l.00196.00196v.00195c1.20421 1.51075 2.85692 2.28906 4.83984 2.28906 1.96231 0 3.6033-.77876 4.80664-2.28711 1.22465-1.50894 1.82617-3.48277 1.82617-5.86718 0-2.50248-.58619-4.54532-1.78906-6.07813-1.18358-1.53428-2.83977-2.32617-4.84375-2.32617zm0 .77734c1.80691 0 3.17528.65813 4.22852 2.02344h.00195v.00195c1.07361 1.36641 1.625 3.21799 1.625 5.60157 0 2.25491-.55732 4.02772-1.65234 5.37695v.00195l-.00196.00196c-1.07474 1.34831-2.43643 1.99609-4.20117 1.99609-1.78654 0-3.1584-.64868-4.23242-1.99609-1.07424-1.3683-1.62305-3.18712-1.62305-5.50586 0-2.31987.54949-4.12779 1.62305-5.47461h.00195v-.00196c1.07481-1.36794 2.44535-2.02539 4.23047-2.02539z" enable-background="accumulate" overflow="visible" style="line-height:1.25;-inkscape-font-specification:'FreeSans Semi-Bold';font-variant-ligatures:normal;font-variant-position:normal;font-variant-caps:normal;font-variant-numeric:normal;font-variant-alternates:normal;font-variant-east-asian:normal;font-feature-settings:normal;font-variation-settings:normal;text-indent:0;text-align:start;text-decoration-line:none;text-decoration-style:solid;text-decoration-color:#000;text-transform:none;text-orientation:mixed;white-space:normal;shape-padding:0;shape-margin:0;inline-size:0;isolation:auto;mix-blend-mode:normal;solid-color:#000;solid-opacity:1"/></g><g fill="url(#o)"><path fill="url(#l)" d="M273.39766 189.063l-9.10263-15.65776V189.063h-4.66005v-22.64784h4.78432l8.97836 15.40923v-15.40923h4.66005V189.063z" enable-background="accumulate" overflow="visible" style="line-height:1.25;-inkscape-font-specification:'FreeSans Semi-Bold';font-variant-ligatures:normal;font-variant-position:normal;font-variant-caps:normal;font-variant-numeric:normal;font-variant-alternates:normal;font-variant-east-asian:normal;font-feature-settings:normal;font-variation-settings:normal;text-indent:0;text-align:start;text-decoration-line:none;text-decoration-style:solid;text-decoration-color:#000;text-transform:none;text-orientation:mixed;white-space:normal;shape-padding:0;shape-margin:0;inline-size:0;isolation:auto;mix-blend-mode:normal;solid-color:#000;solid-opacity:1"/><path d="M259.24609 166.02734v23.42383h5.4375V174.8457l8.49024 14.60547h5.27148v-23.42383h-5.43554v14.36133l-8.36719-14.36133h-5.39649zm.77735.77539h4.17187l9.5918 16.46094v-16.46094h3.88281v21.8711h-4.04883l-9.71484-16.70899v16.70899h-3.88281v-21.8711z" enable-background="accumulate" overflow="visible" style="line-height:1.25;-inkscape-font-specification:'FreeSans Semi-Bold';font-variant-ligatures:normal;font-variant-position:normal;font-variant-caps:normal;font-variant-numeric:normal;font-variant-alternates:normal;font-variant-east-asian:normal;font-feature-settings:normal;font-variation-settings:normal;text-indent:0;text-align:start;text-decoration-line:none;text-decoration-style:solid;text-decoration-color:#000;text-transform:none;text-orientation:mixed;white-space:normal;shape-padding:0;shape-margin:0;inline-size:0;isolation:auto;mix-blend-mode:normal;solid-color:#000;solid-opacity:1"/></g><g fill="url(#p)"><path fill="url(#l)" d="M298.21728 173.59164c-.82845-2.42323-2.63034-3.63484-5.40566-3.63484-1.96758 0-3.52093.69383-4.66005 2.08149-1.11841 1.38766-1.67762 3.30346-1.67762 5.74739 0 2.31967.60063 4.22512 1.80189 5.71633 1.22197 1.49121 2.77532 2.23682 4.66005 2.23682.28995 0 .62133-.0311.99414-.0932.39351-.0828.85952-.22782 1.39802-.43493.53849-.22783 1.03556-.51779 1.49121-.86988.45565-.35209.85952-.83881 1.21161-1.46015.35209-.64205.56956-1.36695.65241-2.17469h-5.15712v-3.88337h9.07156V189.063h-2.79603l-.5592-2.98243c-.86988 1.26339-1.84331 2.18505-2.9203 2.76496-1.07699.57992-2.3818.86988-3.91444.86988-3.06528 0-5.60242-1.11841-7.61142-3.35524-1.98829-2.23682-2.98243-5.07427-2.98243-8.51235 0-3.52093 1.01486-6.37909 3.04457-8.5745 2.02971-2.1954 4.6704-3.2931 7.92208-3.2931 2.7339 0 4.98108.68347 6.74154 2.05042 1.76047 1.36695 2.78568 3.22062 3.07563 5.561z" enable-background="accumulate" overflow="visible" style="line-height:1.25;-inkscape-font-specification:'FreeSans Semi-Bold';font-variant-ligatures:normal;font-variant-position:normal;font-variant-caps:normal;font-variant-numeric:normal;font-variant-alternates:normal;font-variant-east-asian:normal;font-feature-settings:normal;font-variation-settings:normal;text-indent:0;text-align:start;text-decoration-line:none;text-decoration-style:solid;text-decoration-color:#000;text-transform:none;text-orientation:mixed;white-space:normal;shape-padding:0;shape-margin:0;inline-size:0;isolation:auto;mix-blend-mode:normal;solid-color:#000;solid-opacity:1"/><path d="M292.78125 165.5918c-3.33911 0-6.10907 1.14663-8.20898 3.41797-2.1 2.27142-3.14649 5.24231-3.14649 8.83789 0 3.51297 1.02613 6.46079 3.08008 8.77148h.00195c2.07464 2.30991 4.74061 3.48438 7.90039 3.48438 1.58164 0 2.95294-.29963 4.09766-.91602.92318-.4971 1.74367-1.2857 2.50586-2.23438l.4668 2.49805h3.50781v-13.01758h-9.84961v4.66016h5.03125c-.10321.57181-.22193 1.13171-.47852 1.59961-.33137.58344-.70223 1.02674-1.10742 1.33984-.42728.33018-.89437.60168-1.40039.81641-.51522.19778-.95617.33528-1.31641.41211-.00148.00025-.00242-.00025-.0039 0-.35484.05894-.66467.08789-.92578.08789-1.78228 0-3.19948-.67828-4.35938-2.09375-1.13843-1.41427-1.71289-3.21918-1.71289-5.4707 0-2.38269.54112-4.19933 1.58789-5.5 1.06952-1.30287 2.48508-1.93946 4.36133-1.93946 2.66225 0 4.25161 1.07352 5.03711 3.3711l.08984.26367h5.09766l-.05469-.4375c-.30061-2.42643-1.38552-4.39187-3.22265-5.81836-1.83741-1.42669-4.17987-2.13281-6.97852-2.13281zm0 .77734c2.66915 0 4.81844.66155 6.50195 1.96875 1.56174 1.21264 2.44152 2.84307 2.79297 4.86523h-3.62695c-.92275-2.35886-2.86124-3.63476-5.63672-3.63476-2.05891 0-3.75221.75021-4.96094 2.22266l-.00195.00195v.00195c-1.18834 1.47442-1.76367 3.48704-1.76367 5.99024 0 2.38673.62372 4.39308 1.88672 5.96093h.00195v.00196c1.28403 1.56695 2.97374 2.3789 4.96094 2.3789.3177 0 .66967-.03283 1.05859-.09765l.00781-.00196.00782-.00195c.42242-.08893.90513-.23891 1.45703-.45117l.00586-.00391.00586-.00195c.56842-.24049 1.09596-.54734 1.57812-.91992.50484-.3901.94049-.91968 1.3125-1.57617l.00195-.00196v-.00195c.37895-.69101.61174-1.46935.69922-2.32227l.04297-.42773h-5.19922v-3.10742h8.29492v11.46289H300.125l-.67188-3.58203-.53124.76758c-.84316 1.22457-1.77147 2.09975-2.78321 2.64453-1.00925.54344-2.24683.82226-3.73047.82226-2.97078 0-5.3789-1.06281-7.32226-3.22656-1.92187-2.16275-2.88282-4.88943-2.88282-8.25195 0-3.44628.98198-6.19116 2.94141-8.31055 1.9595-2.11947 4.47247-3.16797 7.63672-3.16797z" enable-background="accumulate" overflow="visible" style="line-height:1.25;-inkscape-font-specification:'FreeSans Semi-Bold';font-variant-ligatures:normal;font-variant-position:normal;font-variant-caps:normal;font-variant-numeric:normal;font-variant-alternates:normal;font-variant-east-asian:normal;font-feature-settings:normal;font-variation-settings:normal;text-indent:0;text-align:start;text-decoration-line:none;text-decoration-style:solid;text-decoration-color:#000;text-transform:none;text-orientation:mixed;white-space:normal;shape-padding:0;shape-margin:0;inline-size:0;isolation:auto;mix-blend-mode:normal;solid-color:#000;solid-opacity:1"/></g></g></g></svg>