<svg xmlns="http://www.w3.org/2000/svg" xmlns:xlink="http://www.w3.org/1999/xlink" xml:space="preserve" width="324" height="234" viewBox="0 0 324 234"><defs><radialGradient id="b" cx="90.14" cy="64.76" r="91.59" fx="90.14" fy="64.76" gradientTransform="matrix(1.8 0 0 1.304 0 32.12)" gradientUnits="userSpaceOnUse" spreadMethod="pad"><stop offset="0" stop-color="#82adce"/><stop offset=".3" stop-color="#e3e9ee"/><stop offset="1" stop-color="#f6f6f7"/></radialGradient><radialGradient xlink:href="#a" id="c" cx="162" cy="117" r="82.62" fx="162" fy="117" gradientTransform="matrix(1.573 -.925 .494 .84 -150.53 168.72)" gradientUnits="userSpaceOnUse"/><linearGradient id="a"><stop offset="0" stop-color="#51a1e4"/><stop offset="1" stop-color="#0354c1"/></linearGradient></defs><path fill="url(#b)" d="M0 0h324v234H0z"/><path fill="url(#c)" d="M146.62 47.67c-1.66 5.47.68 10.06 2.2 15.2a91.14 91.14 0 0 1 3.29 15.2c.38 3.27.43 10.23-2.44 12.5-1.5 1.19-3.46.26-5.05-.21a43.39 43.39 0 0 0-9.2-1.45c-13.9-.95-26.97 3.19-40.8-.5-4.32-1.16-8.29-3.31-12-5.76-.8-.53-3.07-2.12-3.22-.12-.42 5.74 4.27 13.25 7.4 17.66 1.12 1.57 1.52 3.51 2.77 5.01 9.76 11.65 23.06 18.75 36.25 25.62a76.66 76.66 0 0 0 10 4.42c2.39.82 5.35 1.16 7.03 3.27 2.33 2.94-1.28 9.46-2.57 12.36a71.17 71.17 0 0 1-6.28 11.6c-1.39 1.99-3.67 4.22-3.71 6.8-.05 3.27 2.47 7.23 3.95 10 1.27 2.4 2.17 4.7 4.8 6.03 4.7 2.38 6.78.1 10.9-1.57 2.05-.82 3.9-.33 6.05-1.5 1.63-.9 3.52-.52 4.34-2.57.89-2.23.14-5.22.36-7.59a235.5 235.5 0 0 1 2.7-19.6c.69-3.83 1.31-8.05 4.44-10.7 2.11-1.8 4.66-1.48 7.2-2.05 5.75-1.3 11.55-1.72 17.2-3.6 22.9-7.67 44.51-20.83 52.4-44.85-3.22-.8-7.02 1.9-10 3.03-5.93 2.23-12.46 4.1-18.8 4.54-10.83.74-19.36-4.09-29.6-6.41-4.22-.96-8.52-.76-12.8-.76-.3-2.15-2.3-7.22 0-8.83 1.12-.78 3.6.78 4.8 1.06 3.01.7 6.73 1.15 9.6-.23-1.8-2.75-4.63-4.57-6.08-7.6-1.78-3.75-1.4-7.88-4.4-11.18-5.64-6.2-13.74-6.67-20.73-10.23-3.57-1.82-6.31-5.63-10-6.99"/></svg>