<?xml version="1.0" encoding="UTF-8" standalone="no"?>
<svg
   xmlns:dc="http://purl.org/dc/elements/1.1/"
   xmlns:cc="http://creativecommons.org/ns#"
   xmlns:rdf="http://www.w3.org/1999/02/22-rdf-syntax-ns#"
   xmlns:svg="http://www.w3.org/2000/svg"
   xmlns="http://www.w3.org/2000/svg"
   xmlns:xlink="http://www.w3.org/1999/xlink"
   xmlns:sodipodi="http://sodipodi.sourceforge.net/DTD/sodipodi-0.dtd"
   xmlns:inkscape="http://www.inkscape.org/namespaces/inkscape"
   width="324px"
   height="234px"
   viewBox="0 0 324 234"
   version="1.1"
   id="svg76"
   sodipodi:docname="soundwire.svg"
   inkscape:version="0.92.4 (5da689c313, 2019-01-14)">
  <metadata
     id="metadata80">
    <rdf:RDF>
      <cc:Work
         rdf:about="">
        <dc:format>image/svg+xml</dc:format>
        <dc:type
           rdf:resource="http://purl.org/dc/dcmitype/StillImage" />
        <dc:title />
      </cc:Work>
    </rdf:RDF>
  </metadata>
  <sodipodi:namedview
     pagecolor="#ffffff"
     bordercolor="#666666"
     borderopacity="1"
     objecttolerance="10"
     gridtolerance="10"
     guidetolerance="10"
     inkscape:pageopacity="0"
     inkscape:pageshadow="2"
     inkscape:window-width="1152"
     inkscape:window-height="752"
     id="namedview78"
     showgrid="false"
     inkscape:pagecheckerboard="true"
     inkscape:snap-global="true"
     inkscape:zoom="2.0170941"
     inkscape:cx="132.27827"
     inkscape:cy="65.292333"
     inkscape:window-x="0"
     inkscape:window-y="0"
     inkscape:window-maximized="1"
     inkscape:current-layer="surface1" />
  <defs
     id="defs49">
    <radialGradient
       gradientTransform="matrix(26.816502,0,0,25.885282,161.70625,139.49281)"
       r="1"
       fy="0"
       fx="0"
       cy="0"
       cx="0"
       gradientUnits="userSpaceOnUse"
       id="radialGradient1029">
      <stop
         id="stop1015"
         style="stop-color:#c7c7c7;stop-opacity:1"
         offset="0" />
      <stop
         id="stop1017"
         style="stop-color:#828282;stop-opacity:1"
         offset="0.2955" />
      <stop
         id="stop1019"
         style="stop-color:#585858;stop-opacity:1"
         offset="0.4765" />
      <stop
         id="stop1021"
         style="stop-color:rgb(22.745098%,22.745098%,22.745098%);stop-opacity:1;"
         offset="0.6424" />
      <stop
         id="stop1023"
         style="stop-color:rgb(10.196079%,10.196079%,10.196079%);stop-opacity:1;"
         offset="0.7902" />
      <stop
         id="stop1025"
         style="stop-color:rgb(2.745098%,2.745098%,2.745098%);stop-opacity:1;"
         offset="0.9144" />
      <stop
         id="stop1027"
         style="stop-color:rgb(0%,0%,0%);stop-opacity:1;"
         offset="1" />
    </radialGradient>
    <linearGradient
       inkscape:collect="always"
       id="linearGradient995">
      <stop
         style="stop-color:#7f5a25;stop-opacity:1;"
         offset="0"
         id="stop991" />
      <stop
         style="stop-color:#7f5a25;stop-opacity:0;"
         offset="1"
         id="stop993" />
    </linearGradient>
    <linearGradient
       inkscape:collect="always"
       id="linearGradient966">
      <stop
         style="stop-color:#a77833;stop-opacity:1"
         offset="0"
         id="stop962" />
      <stop
         style="stop-color:#d8aa69;stop-opacity:1"
         offset="1"
         id="stop964" />
    </linearGradient>
    <linearGradient
       inkscape:collect="always"
       id="linearGradient892">
      <stop
         style="stop-color:#000000;stop-opacity:1;"
         offset="0"
         id="stop888" />
      <stop
         id="stop896"
         offset="0.28195721"
         style="stop-color:#979797;stop-opacity:1" />
      <stop
         style="stop-color:#000000;stop-opacity:0.96370965"
         offset="1"
         id="stop890" />
    </linearGradient>
    <linearGradient
       inkscape:collect="always"
       id="linearGradient872">
      <stop
         style="stop-color:#ffc169;stop-opacity:1;"
         offset="0"
         id="stop868" />
      <stop
         id="stop876"
         offset="0.38959667"
         style="stop-color:#ffcf8c;stop-opacity:1" />
      <stop
         style="stop-color:#ffa21f;stop-opacity:1"
         offset="1"
         id="stop870" />
    </linearGradient>
    <radialGradient
       gradientTransform="matrix(26.816502,0,0,25.885282,161.837111,108.856091)"
       r="1"
       fy="0"
       fx="0"
       cy="0"
       cx="0"
       gradientUnits="userSpaceOnUse"
       id="radialGradient1657">
      <stop
         id="stop1643"
         style="stop-color:#353535;stop-opacity:1"
         offset="0" />
      <stop
         id="stop1645"
         style="stop-color:rgb(62.352943%,62.352943%,62.352943%);stop-opacity:1;"
         offset="0.2955" />
      <stop
         id="stop1647"
         style="stop-color:rgb(40.000001%,40.000001%,40.000001%);stop-opacity:1;"
         offset="0.4765" />
      <stop
         id="stop1655"
         style="stop-color:rgb(0%,0%,0%);stop-opacity:1;"
         offset="1" />
    </radialGradient>
    <linearGradient
       gradientTransform="matrix(1.8,0,0,1.8,0,0)"
       y2="64.761543"
       x2="181.728165"
       y1="64.761543"
       x1="-1.455352"
       gradientUnits="userSpaceOnUse"
       id="linearGradient933">
      <stop
         id="stop929"
         style="stop-color:#a47a3c;stop-opacity:1"
         offset="0" />
      <stop
         id="stop931"
         style="stop-color:#c08939;stop-opacity:1"
         offset="1" />
    </linearGradient>
    <linearGradient
       id="linear0"
       gradientUnits="userSpaceOnUse"
       x1="-1.455352"
       y1="64.761543"
       x2="181.728165"
       y2="64.761543"
       gradientTransform="matrix(1.8,0,0,1.8,0,0)">
      <stop
         offset="0"
         style="stop-color:#ffc169;stop-opacity:1"
         id="stop2" />
      <stop
         id="stop874"
         style="stop-color:#fdf6ea;stop-opacity:1"
         offset="0.29476881" />
      <stop
         offset="1"
         style="stop-color:#e69622;stop-opacity:1"
         id="stop4" />
    </linearGradient>
    <linearGradient
       id="linear1"
       gradientUnits="userSpaceOnUse"
       x1="5.667808"
       y1="23.48999"
       x2="42.453518"
       y2="23.48999"
       gradientTransform="matrix(0,3.483257,-3.56988,0,245.85708,63.19005)">
      <stop
         offset="0"
         style="stop-color:rgb(100%,47.843137%,12.54902%);stop-opacity:1;"
         id="stop7" />
      <stop
         offset="0.1421"
         style="stop-color:rgb(100%,49.411765%,12.54902%);stop-opacity:1;"
         id="stop9" />
      <stop
         offset="0.2741"
         style="stop-color:rgb(100%,53.725493%,13.333334%);stop-opacity:1;"
         id="stop11" />
      <stop
         offset="0.4022"
         style="stop-color:rgb(100%,61.176473%,14.117648%);stop-opacity:1;"
         id="stop13" />
      <stop
         offset="0.527"
         style="stop-color:rgb(100%,71.372551%,15.294118%);stop-opacity:1;"
         id="stop15" />
      <stop
         offset="0.6241"
         style="stop-color:rgb(100%,81.568629%,16.470589%);stop-opacity:1;"
         id="stop17" />
      <stop
         offset="0.7136"
         style="stop-color:rgb(100%,84.313726%,28.627452%);stop-opacity:1;"
         id="stop19" />
      <stop
         offset="0.8194"
         style="stop-color:rgb(100%,86.666667%,40.000001%);stop-opacity:1;"
         id="stop21" />
      <stop
         offset="0.9104"
         style="stop-color:rgb(100%,88.627452%,47.450981%);stop-opacity:1;"
         id="stop23" />
      <stop
         offset="0.9756"
         style="stop-color:rgb(100%,89.019608%,49.803922%);stop-opacity:1;"
         id="stop25" />
      <stop
         offset="1"
         style="stop-color:rgb(100%,89.019608%,49.803922%);stop-opacity:1;"
         id="stop27" />
    </linearGradient>
    <radialGradient
       id="radial0"
       gradientUnits="userSpaceOnUse"
       cx="0"
       cy="0"
       fx="0"
       fy="0"
       r="1"
       gradientTransform="matrix(26.816502,0,0,25.885282,161.70625,140.8821)">
      <stop
         offset="0"
         style="stop-color:#d9d9d9;stop-opacity:1"
         id="stop30" />
      <stop
         offset="0.2955"
         style="stop-color:rgb(62.352943%,62.352943%,62.352943%);stop-opacity:1;"
         id="stop36" />
      <stop
         offset="0.4765"
         style="stop-color:rgb(40.000001%,40.000001%,40.000001%);stop-opacity:1;"
         id="stop38" />
      <stop
         offset="0.6424"
         style="stop-color:rgb(22.745098%,22.745098%,22.745098%);stop-opacity:1;"
         id="stop40" />
      <stop
         offset="0.7902"
         style="stop-color:rgb(10.196079%,10.196079%,10.196079%);stop-opacity:1;"
         id="stop42" />
      <stop
         offset="0.9144"
         style="stop-color:rgb(2.745098%,2.745098%,2.745098%);stop-opacity:1;"
         id="stop44" />
      <stop
         offset="1"
         style="stop-color:rgb(0%,0%,0%);stop-opacity:1;"
         id="stop46" />
    </radialGradient>
    <linearGradient
       inkscape:collect="always"
       xlink:href="#linearGradient872"
       id="linearGradient874"
       x1="72.900391"
       y1="117"
       x2="251.09961"
       y2="117"
       gradientUnits="userSpaceOnUse" />
    <linearGradient
       inkscape:collect="always"
       xlink:href="#linearGradient892"
       id="linearGradient894"
       x1="-62.88595"
       y1="73.050718"
       x2="-20.097844"
       y2="73.050718"
       gradientUnits="userSpaceOnUse"
       gradientTransform="matrix(3.786738,0,0,3.627534,319.11894,-116.60468)" />
    <filter
       inkscape:collect="always"
       style="color-interpolation-filters:sRGB"
       id="filter934"
       x="-0.027679044"
       width="1.0553581"
       y="-0.027530903"
       height="1.0550618">
      <feGaussianBlur
         inkscape:collect="always"
         stdDeviation="0.43959128"
         id="feGaussianBlur936" />
    </filter>
    <linearGradient
       inkscape:collect="always"
       xlink:href="#linearGradient966"
       id="linearGradient968"
       x1="324"
       y1="234"
       x2="0"
       y2="0"
       gradientUnits="userSpaceOnUse" />
    <linearGradient
       inkscape:collect="always"
       xlink:href="#linearGradient892"
       id="linearGradient901"
       gradientUnits="userSpaceOnUse"
       gradientTransform="matrix(1.408587,0,0,1.3493664,220.44494,-62.245323)"
       x1="-62.88595"
       y1="73.050718"
       x2="-20.097844"
       y2="73.050718" />
    <linearGradient
       inkscape:collect="always"
       xlink:href="#linear1"
       id="linearGradient903"
       gradientUnits="userSpaceOnUse"
       gradientTransform="matrix(0,1.1779076,-1.2072003,0,190.35733,7.9854648)"
       x1="5.667808"
       y1="23.48999"
       x2="42.453518"
       y2="23.48999" />
    <radialGradient
       inkscape:collect="always"
       xlink:href="#radialGradient1029"
       id="radialGradient905"
       gradientUnits="userSpaceOnUse"
       gradientTransform="matrix(9.068341,0,0,8.7534371,161.90066,33.788205)"
       cx="0"
       cy="0"
       fx="0"
       fy="0"
       r="1" />
    <radialGradient
       inkscape:collect="always"
       xlink:href="#linearGradient995"
       id="radialGradient997"
       cx="-41.520265"
       cy="73.023258"
       fx="-41.520265"
       fy="73.023258"
       r="19.210858"
       gradientTransform="matrix(1.3804152,0,0,1.3294381,219.31521,-61.183287)"
       gradientUnits="userSpaceOnUse" />
    <linearGradient
       inkscape:collect="always"
       xlink:href="#linear1"
       id="linearGradient1033"
       gradientUnits="userSpaceOnUse"
       gradientTransform="matrix(0,3.483257,-3.56988,0,245.85708,64.579345)"
       x1="5.667808"
       y1="23.48999"
       x2="42.453518"
       y2="23.48999" />
  </defs>
  <g
     id="surface1">
    <path
       style="fill:url(#linearGradient968);stroke:none;fill-opacity:1"
       d="M 0 0 L 0 234 L 72.900391 234 L 72.900391 0 L 0 0 z M 251.09961 0 L 251.09961 234 L 324 234 L 324 0 L 251.09961 0 z "
       id="path918" />
    <path
       style="fill:url(#linearGradient874);stroke:none;fill-opacity:1"
       d="M 72.900391 0 L 72.900391 234 L 251.09961 234 L 251.09961 0 L 72.900391 0 z "
       id="path916" />
    <path
       inkscape:connector-curvature="0"
       id="path877"
       d="m 155.75555,7.3720818 h 12.21573 c 19.99969,0 24.1641,15.6231132 24.1641,24.0071702 v 9.895226 c 0,8.279436 -3.88834,24.00717 -25.64911,24.00717 h -9.96497 c -10.09138,0 -17.01658,-4.205113 -20.90057,-10.018734 -2.59513,-3.885431 -3.75612,-8.760389 -3.75612,-13.988436 v -9.895226 c 0,-13.299693 7.86679,-24.0071702 23.89094,-24.0071702 z m 0,0"
       style="fill:url(#linearGradient901);fill-opacity:1;fill-rule:nonzero;stroke:#000000;stroke-width:0.4724133;stroke-linecap:square;stroke-linejoin:bevel;stroke-miterlimit:4;stroke-dasharray:none;stroke-opacity:0.078125" />
    <path
       style="fill:url(#linearGradient894);fill-opacity:1;fill-rule:nonzero;stroke:#000000;stroke-width:1.26999998;stroke-linecap:square;stroke-linejoin:bevel;stroke-miterlimit:4;stroke-dasharray:none;stroke-opacity:0.078125"
       d="m 145.21289,70.549461 h 32.83984 c 53.76563,0 64.96094,41.999989 64.96094,64.539049 v 26.60156 c 0,22.25781 -10.45312,64.53905 -68.95313,64.53905 h -26.78906 c -27.1289,0 -45.74609,-11.30469 -56.187499,-26.93359 C 84.10742,188.85022 80.986327,175.74475 80.986327,161.69007 v -26.60156 c 0,-35.753895 21.148443,-64.539049 64.226563,-64.539049 z m 0,0"
       id="path55"
       inkscape:connector-curvature="0" />
    <path
       style="fill:#d1a361;fill-opacity:1;fill-rule:nonzero;stroke:none;stroke-width:1.13244689;stroke-linecap:square;stroke-linejoin:bevel;stroke-miterlimit:4;stroke-opacity:0.078125"
       d="m 147.04297,78.883444 h 29.2539 c 47.89454,0 57.8711,37.503896 57.8711,57.628896 v 23.7539 c 0,19.87109 -9.3125,57.6289 -61.42578,57.6289 H 148.875 c -24.16797,0 -40.75,-10.09766 -50.050782,-24.05469 -6.214844,-9.32421 -8.992189,-21.02734 -8.992189,-33.57421 v -23.7539 c 0,-31.92578 18.835941,-57.628896 57.210941,-57.628896 z m 0,0"
       id="path57"
       inkscape:connector-curvature="0" />
    <path
       id="path1137"
       transform="matrix(3.7110032,0,0,3.5549833,316.08184,-111.20718)"
       d="m -45.470111,53.862625 h 7.725358 c 12.647966,0 15.282572,10.338677 15.282572,15.886522 v 6.548223 c 0,5.477852 -2.459241,15.886522 -16.221292,15.886522 h -6.302836 c -6.382266,0 -10.761241,-2.783614 -13.217387,-6.631139 -1.641213,-2.570401 -2.374653,-5.796594 -2.374653,-9.255383 v -6.548223 c 0,-8.800959 4.974186,-15.886522 15.108238,-15.886522 z m 0,0"
       style="fill:#7f5a25;fill-opacity:1;fill-rule:nonzero;stroke:#000000;stroke-width:0.30554801;stroke-linecap:square;stroke-linejoin:bevel;stroke-miterlimit:4;stroke-opacity:0.078125;filter:url(#filter934)"
       inkscape:connector-curvature="0" />
    <path
       style="fill:url(#linearGradient1033);fill-rule:nonzero;stroke:none;stroke-width:1.02596366;stroke-linecap:square;stroke-linejoin:bevel;stroke-miterlimit:4;stroke-opacity:0.078125"
       d="m 226.7754,135.21546 v 25.76563 c 0,42.18359 -34.95313,50.96875 -53.70704,50.96875 h -22.13672 c -18.51953,0 -53.707039,-8.20313 -53.707039,-54.09766 v -21.01953 c 0,-21.28516 9.410159,-35.89062 22.414069,-44.082028 8.6914,-5.476565 19.60156,-7.921877 31.29297,-7.921877 h 22.13672 c 29.75391,0 53.70704,16.589835 53.70704,50.386715 z m 0,0"
       id="path59"
       inkscape:connector-curvature="0" />
    <path
       style="fill:url(#radial0);fill-rule:nonzero;stroke:none"
       d="m 141.79883,148.38929 c 0,10.76953 9.04687,19.5 20.20312,19.5 11.15625,0 20.19922,-8.73047 20.19922,-19.5 0,-10.76953 -9.04297,-19.5 -20.19922,-19.5 -11.15625,0 -20.20312,8.73047 -20.20312,19.5"
       id="path61"
       inkscape:connector-curvature="0" />
    <path
       style="fill:#000000;fill-opacity:1;fill-rule:nonzero;stroke:none"
       d="m 162.00195,129.79749 c -10.62109,0 -19.26172,8.33984 -19.26172,18.58984 0,10.25391 8.64063,18.59375 19.26172,18.59375 10.61719,0 19.25782,-8.33984 19.25782,-18.59375 0,-10.25 -8.64063,-18.58984 -19.25782,-18.58984 m 0,39 c -11.66015,0 -21.14453,-9.15625 -21.14453,-20.41016 0,-11.25 9.48438,-20.40624 21.14453,-20.40624 11.65625,0 21.14063,9.15624 21.14063,20.40624 0,11.25391 -9.48438,20.41016 -21.14063,20.41016"
       id="path63"
       inkscape:connector-curvature="0" />
    <path
       style="fill:#000000;fill-opacity:1;fill-rule:nonzero;stroke:none"
       d="m 162.00195,119.69202 c -16.39453,0 -29.73047,12.8711 -29.73047,28.69532 0,15.82422 13.33594,28.69531 29.73047,28.69531 16.39063,0 29.72657,-12.87109 29.72657,-28.69531 0,-15.82031 -13.33594,-28.69532 -29.72657,-28.69532 m 0,58.84376 c -17.22265,0 -31.23437,-13.52344 -31.23437,-30.14844 0,-16.6211 14.01172,-30.14453 31.23437,-30.14453 17.21875,0 31.23047,13.52343 31.23047,30.14453 0,16.625 -14.01172,30.14844 -31.23047,30.14844"
       id="path65"
       inkscape:connector-curvature="0" />
    <g
       id="g942"
       transform="translate(0,32.10312)">
      <path
         inkscape:connector-curvature="0"
         id="path67"
         d="m 149.46094,112.92188 c 3.21093,-3.42188 7.64843,-5.54297 12.53906,-5.54297 4.89063,0 9.32813,2.12109 12.53906,5.54297"
         style="fill:none;stroke:#ffffff;stroke-width:2.16000009;stroke-linecap:round;stroke-linejoin:miter;stroke-miterlimit:4;stroke-opacity:1" />
      <path
         inkscape:connector-curvature="0"
         id="path69"
         d="m 153.04296,116.73828 c 2.29297,-2.44531 5.46094,-3.95703 8.95704,-3.95703 3.49218,0 6.66015,1.51172 8.95703,3.95703"
         style="fill:none;stroke:#ffffff;stroke-width:2.16000009;stroke-linecap:round;stroke-linejoin:miter;stroke-miterlimit:4;stroke-opacity:1" />
      <path
         inkscape:connector-curvature="0"
         id="path71"
         d="m 156.625,120.55078 c 1.375,-1.46484 3.27344,-2.37109 5.375,-2.37109 2.09766,0 4,0.90625 5.375,2.37109"
         style="fill:none;stroke:#ffffff;stroke-width:2.16000009;stroke-linecap:round;stroke-linejoin:miter;stroke-miterlimit:4;stroke-opacity:1" />
      <path
         inkscape:connector-curvature="0"
         id="path73"
         d="m 159.5918,123.70313 2.41015,2.57031 2.40625,-2.56641 c 0,0 -0.0234,-0.0117 -0.0351,-0.0273 -1.32031,-1.40625 -3.58594,-1.25 -4.78125,0.0234"
         style="fill:#ffffff;fill-opacity:1;fill-rule:evenodd;stroke:none" />
    </g>
    <path
       inkscape:connector-curvature="0"
       id="path879"
       d="m 156.94209,12.822575 h 9.89257 c 16.19615,0 19.56985,12.68242 19.56985,19.48795 v 8.03268 c 0,6.71966 -3.14913,19.48795 -20.77191,19.48795 h -8.07098 c -8.17271,0 -13.78014,-3.41466 -16.92531,-8.1344 -2.10163,-3.1531 -3.04083,-7.11067 -3.04083,-11.35355 v -8.03268 c 0,-10.79611 6.36962,-19.48795 19.34661,-19.48795 z m 0,0"
       style="fill:#d1a361;fill-opacity:1;fill-rule:nonzero;stroke:none;stroke-width:0.38295132;stroke-linecap:square;stroke-linejoin:bevel;stroke-miterlimit:4;stroke-opacity:0.078125" />
    <path
       inkscape:connector-curvature="0"
       style="fill:url(#radialGradient997);fill-opacity:1;fill-rule:nonzero;stroke:none;stroke-width:0.4128215;stroke-linecap:square;stroke-linejoin:bevel;stroke-miterlimit:4;stroke-opacity:0.078125"
       d="m 156.54758,10.558993 h 10.6642 c 17.45944,0 21.09629,13.671651 21.09629,21.008005 v 8.659233 c 0,7.243797 -3.39477,21.008005 -22.39211,21.008005 h -8.70053 c -8.81018,0 -14.85499,-3.680993 -18.24549,-8.76888 -2.26555,-3.399044 -3.278,-7.665294 -3.278,-12.239125 v -8.659233 c 0,-11.638204 6.86644,-21.008005 20.85564,-21.008005 z m 0,0"
       id="path881" />
    <path
       inkscape:connector-curvature="0"
       id="path883"
       d="m 183.90462,31.871965 v 8.71298 c 0,14.26491 -11.81985,17.23573 -18.16172,17.23573 h -7.48581 c -6.26261,0 -18.16172,-2.774 -18.16172,-18.29381 v -7.10803 c 0,-7.19784 3.18217,-12.13687 7.57961,-14.9069 2.9391,-1.85197 6.62851,-2.67888 10.58211,-2.67888 h 7.48581 c 10.06167,0 18.16172,5.61007 18.16172,17.03891 z m 0,0"
       style="fill:url(#linearGradient903);fill-rule:nonzero;stroke:none;stroke-width:0.34694266;stroke-linecap:square;stroke-linejoin:bevel;stroke-miterlimit:4;stroke-opacity:0.078125" />
    <path
       inkscape:connector-curvature="0"
       id="path885"
       d="m 155.16872,36.326865 c 0,3.64185 3.05931,6.59417 6.83193,6.59417 3.77264,0 6.83063,-2.95232 6.83063,-6.59417 0,-3.64185 -3.05799,-6.59417 -6.83063,-6.59417 -3.77262,0 -6.83193,2.95232 -6.83193,6.59417"
       style="fill:url(#radialGradient905);fill-rule:nonzero;stroke:none;stroke-width:0.33816272" />
    <path
       inkscape:connector-curvature="0"
       id="path887"
       d="m 162.00065,30.039815 c -3.59165,0 -6.51358,2.82022 -6.51358,6.28639 0,3.46749 2.92194,6.28771 6.51358,6.28771 3.59035,0 6.51229,-2.82022 6.51229,-6.28771 0,-3.46617 -2.92194,-6.28639 -6.51229,-6.28639 m 0,13.18834 c -3.94302,0 -7.15029,-3.0963 -7.15029,-6.90195 0,-3.80433 3.20727,-6.90063 7.15029,-6.90063 3.94171,0 7.14898,3.0963 7.14898,6.90063 0,3.80565 -3.20727,6.90195 -7.14898,6.90195"
       style="fill:#000000;fill-opacity:1;fill-rule:nonzero;stroke:none;stroke-width:0.33816272" />
  </g>
</svg>
