<?xml version="1.0" encoding="UTF-8" standalone="no"?>
<svg
   xmlns:dc="http://purl.org/dc/elements/1.1/"
   xmlns:cc="http://creativecommons.org/ns#"
   xmlns:rdf="http://www.w3.org/1999/02/22-rdf-syntax-ns#"
   xmlns:svg="http://www.w3.org/2000/svg"
   xmlns="http://www.w3.org/2000/svg"
   xmlns:xlink="http://www.w3.org/1999/xlink"
   xmlns:sodipodi="http://sodipodi.sourceforge.net/DTD/sodipodi-0.dtd"
   xmlns:inkscape="http://www.inkscape.org/namespaces/inkscape"
   width="324px"
   height="234px"
   viewBox="0 0 324 234"
   version="1.1"
   id="svg76"
   sodipodi:docname="soundwire.svg"
   inkscape:version="0.92.4 (5da689c313, 2019-01-14)">
  <metadata
     id="metadata80">
    <rdf:RDF>
      <cc:Work
         rdf:about="">
        <dc:format>image/svg+xml</dc:format>
        <dc:type
           rdf:resource="http://purl.org/dc/dcmitype/StillImage" />
        <dc:title />
      </cc:Work>
    </rdf:RDF>
  </metadata>
  <sodipodi:namedview
     pagecolor="#ffffff"
     bordercolor="#666666"
     borderopacity="1"
     objecttolerance="10"
     gridtolerance="10"
     guidetolerance="10"
     inkscape:pageopacity="0"
     inkscape:pageshadow="2"
     inkscape:window-width="1152"
     inkscape:window-height="752"
     id="namedview78"
     showgrid="false"
     inkscape:pagecheckerboard="true"
     inkscape:snap-global="true"
     inkscape:zoom="1.008547"
     inkscape:cx="205.20526"
     inkscape:cy="81.215942"
     inkscape:window-x="0"
     inkscape:window-y="0"
     inkscape:window-maximized="1"
     inkscape:current-layer="surface1" />
  <defs
     id="defs49">
    <linearGradient
       inkscape:collect="always"
       id="linearGradient966">
      <stop
         style="stop-color:#a77833;stop-opacity:1"
         offset="0"
         id="stop962" />
      <stop
         style="stop-color:#d8aa69;stop-opacity:1"
         offset="1"
         id="stop964" />
    </linearGradient>
    <linearGradient
       inkscape:collect="always"
       id="linearGradient892">
      <stop
         style="stop-color:#000000;stop-opacity:1;"
         offset="0"
         id="stop888" />
      <stop
         id="stop896"
         offset="0.28195721"
         style="stop-color:#979797;stop-opacity:1" />
      <stop
         style="stop-color:#000000;stop-opacity:0.96370965"
         offset="1"
         id="stop890" />
    </linearGradient>
    <linearGradient
       inkscape:collect="always"
       id="linearGradient872">
      <stop
         style="stop-color:#ffc169;stop-opacity:1;"
         offset="0"
         id="stop868" />
      <stop
         id="stop876"
         offset="0.38959667"
         style="stop-color:#ffcf8c;stop-opacity:1" />
      <stop
         style="stop-color:#ffa21f;stop-opacity:1"
         offset="1"
         id="stop870" />
    </linearGradient>
    <radialGradient
       gradientTransform="matrix(26.816502,0,0,25.885282,161.837111,108.856091)"
       r="1"
       fy="0"
       fx="0"
       cy="0"
       cx="0"
       gradientUnits="userSpaceOnUse"
       id="radialGradient1657">
      <stop
         id="stop1643"
         style="stop-color:#353535;stop-opacity:1"
         offset="0" />
      <stop
         id="stop1645"
         style="stop-color:rgb(62.352943%,62.352943%,62.352943%);stop-opacity:1;"
         offset="0.2955" />
      <stop
         id="stop1647"
         style="stop-color:rgb(40.000001%,40.000001%,40.000001%);stop-opacity:1;"
         offset="0.4765" />
      <stop
         id="stop1655"
         style="stop-color:rgb(0%,0%,0%);stop-opacity:1;"
         offset="1" />
    </radialGradient>
    <linearGradient
       gradientTransform="matrix(1.8,0,0,1.8,0,0)"
       y2="64.761543"
       x2="181.728165"
       y1="64.761543"
       x1="-1.455352"
       gradientUnits="userSpaceOnUse"
       id="linearGradient933">
      <stop
         id="stop929"
         style="stop-color:#a47a3c;stop-opacity:1"
         offset="0" />
      <stop
         id="stop931"
         style="stop-color:#c08939;stop-opacity:1"
         offset="1" />
    </linearGradient>
    <linearGradient
       id="linear0"
       gradientUnits="userSpaceOnUse"
       x1="-1.455352"
       y1="64.761543"
       x2="181.728165"
       y2="64.761543"
       gradientTransform="matrix(1.8,0,0,1.8,0,0)">
      <stop
         offset="0"
         style="stop-color:#ffc169;stop-opacity:1"
         id="stop2" />
      <stop
         id="stop874"
         style="stop-color:#fdf6ea;stop-opacity:1"
         offset="0.29476881" />
      <stop
         offset="1"
         style="stop-color:#e69622;stop-opacity:1"
         id="stop4" />
    </linearGradient>
    <linearGradient
       id="linear1"
       gradientUnits="userSpaceOnUse"
       x1="5.667808"
       y1="23.48999"
       x2="42.453518"
       y2="23.48999"
       gradientTransform="matrix(0,3.483257,-3.56988,0,245.85708,33.19005)">
      <stop
         offset="0"
         style="stop-color:rgb(100%,47.843137%,12.54902%);stop-opacity:1;"
         id="stop7" />
      <stop
         offset="0.1421"
         style="stop-color:rgb(100%,49.411765%,12.54902%);stop-opacity:1;"
         id="stop9" />
      <stop
         offset="0.2741"
         style="stop-color:rgb(100%,53.725493%,13.333334%);stop-opacity:1;"
         id="stop11" />
      <stop
         offset="0.4022"
         style="stop-color:rgb(100%,61.176473%,14.117648%);stop-opacity:1;"
         id="stop13" />
      <stop
         offset="0.527"
         style="stop-color:rgb(100%,71.372551%,15.294118%);stop-opacity:1;"
         id="stop15" />
      <stop
         offset="0.6241"
         style="stop-color:rgb(100%,81.568629%,16.470589%);stop-opacity:1;"
         id="stop17" />
      <stop
         offset="0.7136"
         style="stop-color:rgb(100%,84.313726%,28.627452%);stop-opacity:1;"
         id="stop19" />
      <stop
         offset="0.8194"
         style="stop-color:rgb(100%,86.666667%,40.000001%);stop-opacity:1;"
         id="stop21" />
      <stop
         offset="0.9104"
         style="stop-color:rgb(100%,88.627452%,47.450981%);stop-opacity:1;"
         id="stop23" />
      <stop
         offset="0.9756"
         style="stop-color:rgb(100%,89.019608%,49.803922%);stop-opacity:1;"
         id="stop25" />
      <stop
         offset="1"
         style="stop-color:rgb(100%,89.019608%,49.803922%);stop-opacity:1;"
         id="stop27" />
    </linearGradient>
    <radialGradient
       id="radial0"
       gradientUnits="userSpaceOnUse"
       cx="0"
       cy="0"
       fx="0"
       fy="0"
       r="1"
       gradientTransform="matrix(26.816502,0,0,25.885282,161.70625,109.49281)">
      <stop
         offset="0"
         style="stop-color:#d9d9d9;stop-opacity:1"
         id="stop30" />
      <stop
         offset="0.2955"
         style="stop-color:rgb(62.352943%,62.352943%,62.352943%);stop-opacity:1;"
         id="stop36" />
      <stop
         offset="0.4765"
         style="stop-color:rgb(40.000001%,40.000001%,40.000001%);stop-opacity:1;"
         id="stop38" />
      <stop
         offset="0.6424"
         style="stop-color:rgb(22.745098%,22.745098%,22.745098%);stop-opacity:1;"
         id="stop40" />
      <stop
         offset="0.7902"
         style="stop-color:rgb(10.196079%,10.196079%,10.196079%);stop-opacity:1;"
         id="stop42" />
      <stop
         offset="0.9144"
         style="stop-color:rgb(2.745098%,2.745098%,2.745098%);stop-opacity:1;"
         id="stop44" />
      <stop
         offset="1"
         style="stop-color:rgb(0%,0%,0%);stop-opacity:1;"
         id="stop46" />
    </radialGradient>
    <linearGradient
       inkscape:collect="always"
       xlink:href="#linearGradient872"
       id="linearGradient874"
       x1="72.900391"
       y1="117"
       x2="251.09961"
       y2="117"
       gradientUnits="userSpaceOnUse" />
    <linearGradient
       inkscape:collect="always"
       xlink:href="#linearGradient892"
       id="linearGradient894"
       x1="-62.88595"
       y1="73.050718"
       x2="-20.097844"
       y2="73.050718"
       gradientUnits="userSpaceOnUse"
       gradientTransform="matrix(3.786738,0,0,3.627534,319.11894,-147.99397)" />
    <filter
       inkscape:collect="always"
       style="color-interpolation-filters:sRGB"
       id="filter934"
       x="-0.027679044"
       width="1.0553581"
       y="-0.027530903"
       height="1.0550618">
      <feGaussianBlur
         inkscape:collect="always"
         stdDeviation="0.43959128"
         id="feGaussianBlur936" />
    </filter>
    <linearGradient
       inkscape:collect="always"
       xlink:href="#linearGradient966"
       id="linearGradient968"
       x1="324"
       y1="234"
       x2="0"
       y2="0"
       gradientUnits="userSpaceOnUse" />
  </defs>
  <g
     id="surface1">
    <path
       style="fill:url(#linearGradient968);stroke:none;fill-opacity:1"
       d="M 0 0 L 0 234 L 72.900391 234 L 72.900391 0 L 0 0 z M 251.09961 0 L 251.09961 234 L 324 234 L 324 0 L 251.09961 0 z "
       id="path918" />
    <path
       style="fill:url(#linearGradient874);stroke:none;fill-opacity:1"
       d="M 72.900391 0 L 72.900391 234 L 251.09961 234 L 251.09961 0 L 72.900391 0 z "
       id="path916" />
    <path
       style="fill:url(#linearGradient894);fill-opacity:1;fill-rule:nonzero;stroke:#000000;stroke-width:1.27;stroke-linecap:square;stroke-linejoin:bevel;stroke-miterlimit:4;stroke-opacity:0.078125;stroke-dasharray:none"
       d="m 145.21289,39.160166 h 32.83984 c 53.76563,0 64.96094,41.999995 64.96094,64.539054 v 26.60156 c 0,22.25781 -10.45312,64.53905 -68.95313,64.53905 h -26.78906 c -27.1289,0 -45.74609,-11.30469 -56.187499,-26.93359 C 84.10742,157.46093 80.986327,144.35546 80.986327,130.30078 v -26.60156 c 0,-35.7539 21.148443,-64.539054 64.226563,-64.539054 z m 0,0"
       id="path55"
       inkscape:connector-curvature="0" />
    <path
       style="fill:#d1a361;fill-opacity:1;fill-rule:nonzero;stroke:none;stroke-width:1.13244689;stroke-linecap:square;stroke-linejoin:bevel;stroke-miterlimit:4;stroke-opacity:0.078125"
       d="m 147.04297,47.494149 h 29.2539 c 47.89454,0 57.8711,37.503902 57.8711,57.628901 v 23.7539 c 0,19.87109 -9.3125,57.6289 -61.42578,57.6289 H 148.875 c -24.16797,0 -40.75,-10.09766 -50.050782,-24.05469 -6.214844,-9.32421 -8.992189,-21.02734 -8.992189,-33.57421 v -23.7539 c 0,-31.925781 18.835941,-57.628901 57.210941,-57.628901 z m 0,0"
       id="path57"
       inkscape:connector-curvature="0" />
    <path
       id="path1137"
       transform="matrix(3.7110032,0,0,3.5549833,316.08184,-142.59647)"
       d="m -45.470111,53.862625 h 7.725358 c 12.647966,0 15.282572,10.338677 15.282572,15.886522 v 6.548223 c 0,5.477852 -2.459241,15.886522 -16.221292,15.886522 h -6.302836 c -6.382266,0 -10.761241,-2.783614 -13.217387,-6.631139 -1.641213,-2.570401 -2.374653,-5.796594 -2.374653,-9.255383 v -6.548223 c 0,-8.800959 4.974186,-15.886522 15.108238,-15.886522 z m 0,0"
       style="fill:#7f5a25;fill-opacity:1;fill-rule:nonzero;stroke:#000000;stroke-width:0.30554801;stroke-linecap:square;stroke-linejoin:bevel;stroke-miterlimit:4;stroke-opacity:0.078125;filter:url(#filter934)"
       inkscape:connector-curvature="0" />
    <path
       style="fill:url(#linear1);fill-rule:nonzero;stroke:none;stroke-width:1.02596366;stroke-linecap:square;stroke-linejoin:bevel;stroke-miterlimit:4;stroke-opacity:0.078125"
       d="m 226.7754,103.82617 v 25.76563 c 0,42.18359 -34.95313,50.96875 -53.70704,50.96875 h -22.13672 c -18.51953,0 -53.707039,-8.20313 -53.707039,-54.09766 v -21.01953 c 0,-21.285156 9.410159,-35.890628 22.414069,-44.082033 8.6914,-5.476565 19.60156,-7.921877 31.29297,-7.921877 h 22.13672 c 29.75391,0 53.70704,16.589844 53.70704,50.38672 z m 0,0"
       id="path59"
       inkscape:connector-curvature="0" />
    <path
       style="fill:url(#radial0);fill-rule:nonzero;stroke:none"
       d="m 141.79883,117 c 0,10.76953 9.04687,19.5 20.20312,19.5 11.15625,0 20.19922,-8.73047 20.19922,-19.5 0,-10.76953 -9.04297,-19.5 -20.19922,-19.5 -11.15625,0 -20.20312,8.73047 -20.20312,19.5"
       id="path61"
       inkscape:connector-curvature="0" />
    <path
       style="fill:#000000;fill-opacity:1;fill-rule:nonzero;stroke:none"
       d="m 162.00195,98.408203 c -10.62109,0 -19.26172,8.339837 -19.26172,18.589837 0,10.25391 8.64063,18.59375 19.26172,18.59375 10.61719,0 19.25782,-8.33984 19.25782,-18.59375 0,-10.25 -8.64063,-18.589837 -19.25782,-18.589837 m 0,38.999997 c -11.66015,0 -21.14453,-9.15625 -21.14453,-20.41016 0,-11.25 9.48438,-20.406244 21.14453,-20.406244 11.65625,0 21.14063,9.156244 21.14063,20.406244 0,11.25391 -9.48438,20.41016 -21.14063,20.41016"
       id="path63"
       inkscape:connector-curvature="0" />
    <path
       style="fill:#000000;fill-opacity:1;fill-rule:nonzero;stroke:none"
       d="m 162.00195,88.302734 c -16.39453,0 -29.73047,12.871096 -29.73047,28.695316 0,15.82422 13.33594,28.69531 29.73047,28.69531 16.39063,0 29.72657,-12.87109 29.72657,-28.69531 0,-15.82031 -13.33594,-28.695316 -29.72657,-28.695316 m 0,58.843756 c -17.22265,0 -31.23437,-13.52344 -31.23437,-30.14844 0,-16.6211 14.01172,-30.144535 31.23437,-30.144535 17.21875,0 31.23047,13.523435 31.23047,30.144535 0,16.625 -14.01172,30.14844 -31.23047,30.14844"
       id="path65"
       inkscape:connector-curvature="0" />
    <g
       id="g942"
       transform="translate(0,0.71382502)">
      <path
         inkscape:connector-curvature="0"
         id="path67"
         d="m 149.46094,112.92188 c 3.21093,-3.42188 7.64843,-5.54297 12.53906,-5.54297 4.89063,0 9.32813,2.12109 12.53906,5.54297"
         style="fill:none;stroke:#ffffff;stroke-width:2.16000009;stroke-linecap:round;stroke-linejoin:miter;stroke-miterlimit:4;stroke-opacity:1" />
      <path
         inkscape:connector-curvature="0"
         id="path69"
         d="m 153.04296,116.73828 c 2.29297,-2.44531 5.46094,-3.95703 8.95704,-3.95703 3.49218,0 6.66015,1.51172 8.95703,3.95703"
         style="fill:none;stroke:#ffffff;stroke-width:2.16000009;stroke-linecap:round;stroke-linejoin:miter;stroke-miterlimit:4;stroke-opacity:1" />
      <path
         inkscape:connector-curvature="0"
         id="path71"
         d="m 156.625,120.55078 c 1.375,-1.46484 3.27344,-2.37109 5.375,-2.37109 2.09766,0 4,0.90625 5.375,2.37109"
         style="fill:none;stroke:#ffffff;stroke-width:2.16000009;stroke-linecap:round;stroke-linejoin:miter;stroke-miterlimit:4;stroke-opacity:1" />
      <path
         inkscape:connector-curvature="0"
         id="path73"
         d="m 159.5918,123.70313 2.41015,2.57031 2.40625,-2.56641 c 0,0 -0.0234,-0.0117 -0.0351,-0.0273 -1.32031,-1.40625 -3.58594,-1.25 -4.78125,0.0234"
         style="fill:#ffffff;fill-opacity:1;fill-rule:evenodd;stroke:none" />
    </g>
  </g>
</svg>
