<?xml version="1.0" encoding="UTF-8" standalone="no"?>
<svg
   xmlns:dc="http://purl.org/dc/elements/1.1/"
   xmlns:cc="http://creativecommons.org/ns#"
   xmlns:rdf="http://www.w3.org/1999/02/22-rdf-syntax-ns#"
   xmlns:svg="http://www.w3.org/2000/svg"
   xmlns="http://www.w3.org/2000/svg"
   xmlns:sodipodi="http://sodipodi.sourceforge.net/DTD/sodipodi-0.dtd"
   xmlns:inkscape="http://www.inkscape.org/namespaces/inkscape"
   width="324px"
   height="234px"
   viewBox="0 0 324 234"
   version="1.1"
   id="svg23"
   sodipodi:docname="anbox-appmgr.svg"
   inkscape:version="1.0.2 (e86c870879, 2021-01-15)">
  <sodipodi:namedview
     pagecolor="#ffffff"
     bordercolor="#666666"
     borderopacity="1"
     objecttolerance="10"
     gridtolerance="10"
     guidetolerance="10"
     inkscape:pageopacity="0"
     inkscape:pageshadow="2"
     inkscape:window-width="1920"
     inkscape:window-height="980"
     id="namedview58"
     showgrid="false"
     inkscape:zoom="1.7350427"
     inkscape:cx="138.99385"
     inkscape:cy="142.09847"
     inkscape:window-x="0"
     inkscape:window-y="0"
     inkscape:window-maximized="1"
     inkscape:current-layer="svg23" />
  <metadata
     id="metadata29">
    <rdf:RDF>
      <cc:Work
         rdf:about="">
        <dc:format>image/svg+xml</dc:format>
        <dc:type
           rdf:resource="http://purl.org/dc/dcmitype/StillImage" />
        <dc:title />
      </cc:Work>
    </rdf:RDF>
  </metadata>
  <defs
     id="defs27">
    <filter
       id="deepin-calculator-a"
       width="131%"
       height="131%"
       x="-15.5%"
       y="-15.5%"
       filterUnits="objectBoundingBox">
      <feOffset
         dy="1"
         in="SourceAlpha"
         result="shadowOffsetOuter1"
         id="feOffset2" />
      <feGaussianBlur
         in="shadowOffsetOuter1"
         result="shadowBlurOuter1"
         stdDeviation="1"
         id="feGaussianBlur4" />
      <feComposite
         in="shadowBlurOuter1"
         in2="SourceAlpha"
         operator="out"
         result="shadowBlurOuter1"
         id="feComposite6" />
      <feColorMatrix
         in="shadowBlurOuter1"
         result="shadowMatrixOuter1"
         values="0 0 0 0 0   0 0 0 0 0   0 0 0 0 0  0 0 0 0.2 0"
         id="feColorMatrix8" />
      <feMerge
         id="feMerge14">
        <feMergeNode
           in="shadowMatrixOuter1"
           id="feMergeNode10" />
        <feMergeNode
           in="SourceGraphic"
           id="feMergeNode12" />
      </feMerge>
    </filter>
    <radialGradient
       id="deepin-calculator-b"
       cx="21"
       cy="3.89256"
       r="38.899558"
       fx="21"
       fy="3.89256"
       gradientUnits="userSpaceOnUse"
       gradientTransform="translate(3,3)">
      <stop
         offset="0%"
         stop-color="#35DCFF"
         id="stop17" />
      <stop
         offset="100%"
         stop-color="#0068FF"
         id="stop19" />
    </radialGradient>
    <linearGradient
       id="deepin-calculator-c"
       x1="21"
       x2="21"
       y1="0"
       y2="42"
       gradientUnits="userSpaceOnUse"
       gradientTransform="translate(-15,3)">
      <stop
         offset="0%"
         stop-color="#FFF"
         id="stop22" />
      <stop
         offset="100%"
         stop-color="#FFF"
         stop-opacity=".8"
         id="stop24" />
    </linearGradient>
    <linearGradient
       id="SVGID_1_"
       gradientUnits="userSpaceOnUse"
       x1="49.575699"
       y1="49.646"
       x2="229.2469"
       y2="229.3172">
      <stop
         offset="0"
         style="stop-color:#FF8100"
         id="stop8" />
      <stop
         offset="1"
         style="stop-color:#FF0000"
         id="stop10" />
    </linearGradient>
    <radialGradient
       id="radial0"
       gradientUnits="userSpaceOnUse"
       cx="90.136406"
       cy="64.761543"
       fx="90.136406"
       fy="64.761543"
       r="91.591759"
       gradientTransform="matrix(1.8,0,0,1.304046,0,32.11876)">
      <stop
         offset="0"
         style="stop-color:rgb(81.960785%,10.588235%,34.509805%);stop-opacity:1;"
         id="stop2" />
      <stop
         offset="1"
         style="stop-color:rgb(50.588238%,6.666667%,22.352941%);stop-opacity:1;"
         id="stop4" />
    </radialGradient>
    <linearGradient
       id="linear0"
       gradientUnits="userSpaceOnUse"
       x1="23.037573"
       y1="6.130066"
       x2="10.984463"
       y2="25.928267"
       gradientTransform="matrix(4.884556,0,0,3.80908,68.216148,18.632979)">
      <stop
         offset="0"
         style="stop-color:rgb(100%,100%,100%);stop-opacity:1;"
         id="stop7" />
      <stop
         offset="1"
         style="stop-color:rgb(100%,72.941178%,48.235294%);stop-opacity:1;"
         id="stop9" />
    </linearGradient>
    <linearGradient
       id="linear1"
       gradientUnits="userSpaceOnUse"
       x1="16.338762"
       y1="13.758957"
       x2="16.338762"
       y2="18.058632"
       gradientTransform="matrix(4.27367,0,0,4.353558,68.216148,18.632979)">
      <stop
         offset="0"
         style="stop-color:rgb(0%,0%,0%);stop-opacity:1;"
         id="stop12" />
      <stop
         offset="1"
         style="stop-color:rgb(72.549021%,33.333334%,2.352941%);stop-opacity:1;"
         id="stop14" />
    </linearGradient>
    <linearGradient
       id="linear2"
       gradientUnits="userSpaceOnUse"
       x1="28.162867"
       y1="13.615636"
       x2="28.162867"
       y2="17.771988"
       gradientTransform="matrix(4.27367,0,0,4.353558,68.216148,18.632979)">
      <stop
         offset="0"
         style="stop-color:rgb(0%,0%,0%);stop-opacity:1;"
         id="stop17-6" />
      <stop
         offset="1"
         style="stop-color:rgb(72.549021%,33.333334%,2.352941%);stop-opacity:1;"
         id="stop19-2" />
    </linearGradient>
    <linearGradient
       id="SVGID_1_-6"
       gradientUnits="userSpaceOnUse"
       x1="49.575699"
       y1="49.646"
       x2="229.2469"
       y2="229.3172">
      <stop
         offset="0"
         style="stop-color:#FF8100"
         id="stop8-1" />
      <stop
         offset="1"
         style="stop-color:#FF0000"
         id="stop10-8" />
    </linearGradient>
  </defs>
  <rect
     x="0"
     y="0"
     width="324"
     height="234"
     style="fill:#e6e6e6;fill-opacity:1;stroke:none"
     id="rect2" />
  <path
     style="fill:none;stroke:#ffffff;stroke-width:1.83906;stroke-linecap:butt;stroke-linejoin:miter;stroke-miterlimit:4;stroke-opacity:1"
     d="M -1.699218,-1.9492182 H 326.19141 V 235.08985 H -1.699218 Z m 0,0"
     id="path4" />
  <g
     id="g874"
     transform="matrix(1.6063918,0,0,1.5382938,1.3395063,-47.925637)">
    <path
       style="fill:#ffc344;fill-opacity:1;stroke:none;stroke-width:0.309114px;stroke-linecap:butt;stroke-linejoin:miter;stroke-opacity:1"
       d="m 94.205599,42.389243 c 0,0 11.145081,-0.157476 22.599701,6.928753 11.45465,7.086223 18.11074,13.857508 20.27783,18.266716 2.16708,4.409209 9.28755,12.125332 9.13277,26.297795 -0.15488,14.172433 -3.40543,23.620763 -8.97797,31.494323 -5.57254,7.87359 -15.63405,13.85751 -27.70786,14.17247 -12.073829,0.31494 -19.813453,-7.55863 -22.444927,-11.96786 -2.631469,-4.4092 -3.715019,-13.85751 -0.464377,-20.62877 3.250645,-6.77132 8.358796,-6.77132 10.061513,-6.14141 1.702724,0.6299 2.167092,1.5747 3.095852,3.30689 0.928749,1.73219 1.547929,1.41726 2.941089,0.47243 1.39311,-0.94484 1.85748,-2.04715 1.54792,-3.46439 -0.30958,-1.417253 -2.16711,-3.149433 -3.71505,-3.621853 -1.547909,-0.47241 -3.715016,-1.88966 -6.810869,-1.41721 -3.095848,0.47238 -9.132757,2.04711 -14.240906,8.975843 -5.108153,6.92875 -4.488988,17.63684 -1.393134,22.67593 3.095849,5.0391 8.977962,14.48739 21.980539,17.79431 13.00259,3.30693 34.05435,-6.45633 41.32959,-21.57361 7.27524,-15.1173 7.43004,-22.20352 7.12048,-34.643764 C 148.22821,76.875544 137.23793,58.293884 125.00933,51.522601 112.78073,44.751315 103.64797,40.814522 94.205599,42.389243 Z"
       id="path1002"
       inkscape:connector-curvature="0" />
    <path
       style="fill:#f06767;fill-opacity:1;stroke:none;stroke-width:0.309114px;stroke-linecap:butt;stroke-linejoin:miter;stroke-opacity:1"
       d="m 100.67541,105.29647 c 0,0 -3.06474,-2.8951 -5.801108,2.22698 -2.736373,5.12205 -4.049827,9.68737 -1.313459,15.25486 2.736367,5.56745 8.428007,8.90792 17.184447,8.79659 8.75636,-0.11148 15.21419,-2.22699 19.0451,-8.5739 3.83094,-6.34692 6.7862,-11.02357 7.11457,-13.36191 0.32839,-2.33835 2.07965,0.33404 1.53239,2.33834 -0.54728,2.00426 -0.43783,5.9015 1.09454,5.12204 1.53237,-0.77942 2.73637,-2.00427 2.95526,-1.44753 0.21893,0.55673 -1.75127,4.00859 -2.68162,5.73449 -0.93039,1.7259 -3.83094,5.90153 -5.5275,7.51607 -1.69652,1.61458 -4.04981,3.89724 -6.84092,5.56747 -2.79109,1.67024 -7.11454,3.61887 -9.52255,4.06427 -2.40801,0.44539 -7.22403,1.39184 -9.96042,1.2805 -2.73635,-0.11137 -6.23892,-0.61243 -10.124558,-2.56104 -3.885645,-1.94859 -8.099657,-4.95505 -9.741479,-7.96148 -1.641825,-3.00643 -4.159283,-5.73449 -3.61201,-13.30623 0.547277,-7.57175 3.010008,-11.46899 4.870741,-13.25056 1.860731,-1.7816 4.597103,-2.56105 6.403105,-2.17131 1.806004,0.38971 2.955282,1.44755 3.393102,2.22697 0.43781,0.77944 1.149279,2.22699 1.532369,2.50538 z"
       id="path1012"
       inkscape:connector-curvature="0" />
    <path
       style="fill:#3f62eb;fill-opacity:1;stroke:none;stroke-width:0.309114px;stroke-linecap:butt;stroke-linejoin:miter;stroke-opacity:1"
       d="m 128.47695,145.38219 c 0,0 13.13457,-7.6831 19.26404,-19.82016 6.12948,-12.13707 8.7564,-19.93152 7.99021,-31.84592 -0.76619,-11.914358 -2.62692,-6.012854 -0.54728,-11.134928 2.07964,-5.122074 -1.31345,-15.254857 0.10943,-15.922949 1.42292,-0.668097 4.48765,4.453971 5.3633,8.573903 0.87562,4.119922 4.70654,16.813721 1.64181,32.959394 -3.06472,16.14564 -10.28872,22.60391 -15.10475,26.94655 -4.81603,4.34261 -15.7615,11.91437 -17.40332,11.80302 -1.64183,-0.11148 -1.86073,-0.11148 -1.31348,-1.55891 z"
       id="path1014"
       inkscape:connector-curvature="0" />
    <path
       style="fill:#fce102;fill-opacity:1;stroke:none;stroke-width:0.309114px;stroke-linecap:butt;stroke-linejoin:miter;stroke-opacity:1"
       d="m 104.83471,121.99883 c 0,0 7.00512,1.5589 12.36838,-1.78156 5.3633,-3.3405 9.5226,-8.79661 10.17931,-10.91225 0.65672,-2.11564 0.76619,1.89294 1.53236,-0.11125 0.76618,-2.00432 3.83093,-6.01288 2.29855,-15.366239 -1.53237,-9.35333 -1.64182,-9.798747 -4.48762,-14.809463 -2.84586,-5.010719 -9.63207,-11.91437 -13.79134,-14.141359 -4.15927,-2.226986 -9.96037,-5.567464 -17.950594,-5.344766 -7.990202,0.222699 -5.363286,-0.334048 -13.025124,1.002146 -7.661836,1.336187 -14.557491,5.010717 -16.856041,7.015006 -2.298552,2.004286 -8.428023,7.460405 -10.61712,10.46684 -2.189098,3.00643 -8.209113,9.798741 -11.383303,19.263442 -3.174189,9.464683 -4.487646,10.466823 -4.706555,16.702393 -0.21891,6.23557 0.547274,7.90578 -0.766185,8.46256 -1.31346,0.55673 -1.094547,-4.67668 -0.985094,-8.35123 0.109463,-3.6745 0.109463,-13.25056 4.925468,-23.940084 4.816015,-10.689538 13.353489,-19.597489 18.169503,-22.826622 4.816009,-3.229128 10.398208,-7.571752 19.045135,-9.687392 8.646933,-2.115635 17.293863,-1.781586 22.65716,-0.779443 5.3633,1.002145 13.68187,4.453974 18.1695,7.905802 4.48766,3.45183 9.41314,7.683099 13.13459,14.586765 3.72146,6.903648 4.70654,15.700251 4.59709,19.374771 -0.10943,3.674543 -1.97019,12.137103 -4.81601,16.257013 -2.84583,4.11993 -6.67674,9.0193 -10.61711,10.80089 -3.94039,1.78157 -8.75642,2.33833 -12.69675,0.55674 -3.94039,-1.78161 -3.72147,-2.44969 -4.3782,-4.34263 z"
       id="path1016"
       inkscape:connector-curvature="0" />
    <path
       style="fill:#5ed938;fill-opacity:1;stroke:none;stroke-width:0.309114px;stroke-linecap:butt;stroke-linejoin:miter;stroke-opacity:1"
       d="m 104.83471,121.99883 c 0,0 5.54674,1.56707 10.22918,-0.55878 4.68248,-2.12587 6.4239,-4.17301 7.54615,-5.3934 1.12223,-1.22042 3.25064,-3.50376 3.83112,-4.56669 0.58046,-1.06292 1.19962,-1.69282 1.19962,-2.08649 0,-0.39369 -1.08353,-1.33853 -0.0386,-3.62186 1.04482,-2.28333 1.97361,-7.519273 1.50922,-9.881333 -0.46438,-2.362073 -1.54792,-15.471616 -10.83547,-24.211303 -9.28753,-8.739678 -18.497709,-9.763242 -18.497709,-9.763242 0,0 14.705309,4.645415 21.593569,18.739134 6.88828,14.093741 4.64376,23.148344 0.23218,28.659854 -4.41158,5.51151 -10.68068,6.14141 -12.38342,4.72415 -1.70268,-1.41725 -5.2113,6.47164 -4.38574,7.95996 z"
       id="path1018"
       inkscape:connector-curvature="0" />
    <path
       style="fill:#8fdbe9;fill-opacity:1;stroke:none;stroke-width:0.309114px;stroke-linecap:butt;stroke-linejoin:miter;stroke-opacity:1"
       d="m 86.930353,71.44277 c 0,0 -9.906718,-0.07875 -17.414156,4.881616 -7.507436,4.960371 -11.14506,8.975903 -13.23476,12.125332 -2.089697,3.149446 -4.488981,7.479909 -4.179395,7.401179 0.309585,-0.0788 9.055364,-12.2828 15.866229,-15.432236 6.81087,-3.149436 13.621741,-7.558644 22.986687,-4.330482 9.364952,3.228184 13.776542,7.716118 15.788842,6.613829 2.0123,-1.1023 2.3993,-2.440824 1.23835,-3.936804 -1.16094,-1.495979 -9.364961,-8.818417 -21.051797,-7.322434 z"
       id="path1020"
       inkscape:connector-curvature="0" />
    <path
       style="fill:#fd7aff;fill-opacity:1;stroke:none;stroke-width:0.309114px;stroke-linecap:butt;stroke-linejoin:miter;stroke-opacity:1"
       d="m 72.107699,134.35862 c 0.65673,0.33404 5.58219,8.90795 9.522571,10.35548 3.940372,1.44755 6.567286,1.55888 7.005104,2.227 0.437821,0.66809 0.328367,4.00858 3.830921,5.45614 3.502555,1.44753 19.920785,6.01284 24.627325,6.45824 4.70658,0.4454 0.76621,3.22911 3.61202,4.23125 2.84584,1.00217 14.99532,1.5589 17.95061,0.33405 2.95527,-1.22483 2.95527,1.1135 -2.1891,3.1178 -5.14437,2.00427 -18.71677,6.79231 -27.58261,5.67882 -8.86586,-1.1135 -19.373526,-3.00644 -25.284086,-7.23772 -5.910565,-4.23126 -8.42802,-6.1242 -6.238924,-6.45824 2.189096,-0.33407 7.990199,5.9015 10.507662,6.56959 2.517463,0.66809 4.597103,0.66809 3.064735,-0.8908 -1.532366,-1.55888 -11.492755,-8.46253 -12.477849,-8.1285 -0.985092,0.33405 -3.064737,0.55674 -4.816012,-1.78159 -1.751278,-2.33832 -10.945484,-15.25485 -10.39821,-22.1585 0.547273,-6.90365 2.298552,-5.12208 4.378195,-2.56103 2.079641,2.56103 4.487648,4.78801 4.487648,4.78801 z"
       id="path1022"
       inkscape:connector-curvature="0" />
  </g>
  <g
     style="fill:#41c656;fill-opacity:1"
     id="g84"
     transform="matrix(6.5683545,0,0,6.0823875,60.190505,23.019206)">
    <path
       style="fill:#41c656;fill-opacity:1"
       d="M 9.0841,12.539"
       id="path72" />
    <path
       style="fill:#41c656;fill-opacity:1"
       d="M 17.461,10.779"
       id="path74" />
    <path
       style="fill:#41c656;fill-opacity:1"
       d="M 9.044,13 C 8.4687,13 8,13.53 8,14.183 v 4.6305 c 0,0.653 0.4687,1.186 1.044,1.186 0.5753,0 0.956,-0.533 0.956,-1.186 V 14.183 C 10,13.529 9.62,12.999 9.044,12.999"
       id="path76" />
    <path
       style="fill:#41c656;fill-opacity:1"
       d="m 11,13 -2.45e-4,8.5 c -7e-6,0.23573 0.26439,0.5 0.50012,0.5 h 1.5 v 1.8751 c 0,0.622 0.396,1.125 1,1.125 0.60019,0 1.0199,-0.50359 1,-1.1249 v -1.875 h 1 v 1.8751 c 0,0.622 0.396,1.125 1,1.125 0.60019,0 1,-0.51173 1,-1.1249 v -1.875 h 1.5 c 0.236,0 0.5,-0.264 0.5,-0.5 v -8.5 z"
       id="path78" />
    <path
       style="fill:#41c656;fill-opacity:1"
       d="M 22.044,13 C 21.469,13 21,13.53 21,14.183 v 4.6305 c 0,0.653 0.469,1.186 1.044,1.186 0.575,0 0.956,-0.533 0.956,-1.186 V 14.183 c 0,-0.654 -0.38,-1.184 -0.956,-1.184"
       id="path80" />
    <path
       style="fill:#41c656;fill-opacity:1"
       d="M 12.865,5.9023 12,6.4023 13.197,8.4766 C 11.009,9.5337 11,12 11,12 h 9 C 20,12 19.99,9.5335 17.803,8.4766 L 19,6.4023 l -0.86523,-0.5 -1.2949,2.2422 C 16.44287,8.0557 16.00487,8 15.50187,8 c -0.504,0 -0.944,0.0555 -1.342,0.1445 l -1.295,-2.2422 z M 13.502,10 C 13.779,10 14,10.223 14,10.498 14,10.773 13.776,11 13.502,11 13.225,11 13,10.776 13,10.498 13,10.223 13.225,10 13.502,10 Z m 4,0 C 17.779,10 18,10.223 18,10.498 18,10.773 17.776,11 17.502,11 17.225,11 17,10.776 17,10.498 17,10.223 17.225,10 17.502,10 Z"
       id="path82" />
  </g>
</svg>
