<?xml version="1.0" encoding="UTF-8" standalone="no"?>
<svg
   xmlns:dc="http://purl.org/dc/elements/1.1/"
   xmlns:cc="http://creativecommons.org/ns#"
   xmlns:rdf="http://www.w3.org/1999/02/22-rdf-syntax-ns#"
   xmlns:svg="http://www.w3.org/2000/svg"
   xmlns="http://www.w3.org/2000/svg"
   xmlns:xlink="http://www.w3.org/1999/xlink"
   width="324"
   height="234"
   viewBox="0 0 85.725 61.912502"
   version="1.1"
   id="svg8">
  <defs
     id="defs2">
    <linearGradient
       id="linearGradient1813">
      <stop
         id="stop1809"
         offset="0"
         style="stop-color:#32e271;stop-opacity:1" />
      <stop
         id="stop1811"
         offset="1"
         style="stop-color:#1abc54;stop-opacity:1" />
    </linearGradient>
    <linearGradient
       id="linearGradient981">
      <stop
         id="stop977"
         offset="0"
         style="stop-color:#c7bfc0;stop-opacity:1" />
      <stop
         id="stop979"
         offset="1"
         style="stop-color:#5b4f51;stop-opacity:0;" />
    </linearGradient>
    <linearGradient
       id="linearGradient939">
      <stop
         id="stop935"
         offset="0"
         style="stop-color:#00a35d;stop-opacity:0" />
      <stop
         id="stop937"
         offset="1"
         style="stop-color:#1ed760;stop-opacity:1" />
    </linearGradient>
    <linearGradient
       id="linearGradient901">
      <stop
         id="stop897"
         offset="0"
         style="stop-color:#33809b;stop-opacity:1" />
      <stop
         id="stop899"
         offset="1"
         style="stop-color:#545d95;stop-opacity:1" />
    </linearGradient>
    <linearGradient
       y2="64.960381"
       x2="18.216976"
       y1="112.32073"
       x1="36.582226"
       gradientUnits="userSpaceOnUse"
       id="linearGradient905"
       xlink:href="#linearGradient901" />
    <radialGradient
       gradientUnits="userSpaceOnUse"
       gradientTransform="matrix(7.9206499,-5.0598274,4.5582106,7.1354284,-419.02799,49.58593)"
       r="42.862495"
       fy="25.776077"
       fx="41.666344"
       cy="25.776077"
       cx="41.666344"
       id="radialGradient941"
       xlink:href="#linearGradient939" />
    <linearGradient
       gradientUnits="userSpaceOnUse"
       y2="61.912502"
       x2="53.265308"
       y1="-6.4440917e-07"
       x1="32.090271"
       id="linearGradient983"
       xlink:href="#linearGradient981" />
    <linearGradient
       gradientTransform="scale(3.7795275)"
       gradientUnits="userSpaceOnUse"
       y2="0"
       x2="9.5146646"
       y1="45.584625"
       x1="25.180798"
       id="linearGradient1667"
       xlink:href="#linearGradient939" />
    <radialGradient
       gradientUnits="userSpaceOnUse"
       gradientTransform="matrix(1,0,0,0.99997616,0,7.1613608e-4)"
       r="20.550584"
       fy="30.034724"
       fx="62.012481"
       cy="30.034724"
       cx="62.012481"
       id="radialGradient1815"
       xlink:href="#linearGradient1813" />
  </defs>
  <metadata
     id="metadata5">
    <rdf:RDF>
      <cc:Work
         rdf:about="">
        <dc:format>image/svg+xml</dc:format>
        <dc:type
           rdf:resource="http://purl.org/dc/dcmitype/StillImage" />
        <dc:title></dc:title>
      </cc:Work>
    </rdf:RDF>
  </metadata>
  <g
     id="layer1">
    <rect
       y="-6.4440917e-07"
       x="1.4552471e-06"
       height="61.912502"
       width="85.724998"
       id="rect844"
       style="fill:#000000;fill-opacity:1;stroke:none;stroke-width:1.62418;stroke-linecap:round;stroke-linejoin:bevel;stroke-opacity:0.443702" />
    <g
       style="opacity:0.402362;fill:#ffffff;fill-opacity:0.152501"
       transform="matrix(-1.0533811,0.28393847,-0.17405079,-1.0641138,85.291581,53.175454)"
       id="g1492">
      <path
         transform="matrix(-0.24056897,-0.06419124,0.03934844,-0.23814258,69.642089,68.554249)"
         d="M 0 172.42773 L 260.59375 102.18555 C 268.45413 100.06678 273.73627 91.969757 272.4375 84.029297 C 271.13872 76.088826 263.76663 71.402722 255.90625 73.521484 L 0 142.5 L 0 172.42773 z "
         style="mix-blend-mode:normal;fill:#ffffff;fill-opacity:0.152501;stroke:none;stroke-width:1.8353;stroke-linecap:round;stroke-linejoin:bevel;stroke-opacity:0.443702"
         id="rect965" />
      <path
         transform="matrix(-0.24056897,-0.06419124,0.03934844,-0.23814258,69.642089,68.554249)"
         d="M 0 207.21289 L 274.00195 133.35547 C 277.45286 132.42528 279.77332 128.86888 279.20312 125.38281 C 278.63293 121.89673 275.39427 119.83934 271.94336 120.76953 L 0 194.07227 L 0 207.21289 z "
         style="mix-blend-mode:normal;fill:#ffffff;fill-opacity:0.152501;stroke:none;stroke-width:1.21605;stroke-linecap:round;stroke-linejoin:bevel;stroke-opacity:0.443702"
         id="rect973" />
      <path
         transform="matrix(-0.24056897,-0.06419124,0.03934844,-0.23814258,69.642089,68.554249)"
         d="M 0 119.86914 L 247.86133 53.058594 C 258.21406 50.268019 265.17153 39.602746 263.46094 29.144531 C 261.75035 18.686316 252.03828 12.51216 241.68555 15.302734 L 0 80.449219 L 0 119.86914 z "
         style="mix-blend-mode:normal;fill:#ffffff;fill-opacity:0.152501;stroke:none;stroke-width:2.10626;stroke-linecap:round;stroke-linejoin:bevel;stroke-opacity:0.443702"
         id="rect957" />
    </g>
    <rect
       y="-1.4210855e-14"
       x="1.1315274e-05"
       height="61.912502"
       width="85.724991"
       id="rect933"
       style="fill:url(#radialGradient941);fill-opacity:1;stroke:none;stroke-width:1.32292;stroke-linecap:round;stroke-linejoin:bevel;stroke-opacity:0.443702" />
    <path
       transform="scale(0.26458334)"
       d="M 35.960938 0 L 115.99414 234 L 171.33984 234 L 91.304688 0 L 35.960938 0 z M 121.28516 0 L 201.31836 234 L 277.41797 234 L 197.38477 0 L 121.28516 0 z M 261.95508 0 L 324 181.4082 L 324 0 L 261.95508 0 z M 0 130.84375 L 0 234 L 35.28125 234 L 0 130.84375 z "
       style="opacity:0.517305;fill:url(#linearGradient1667);fill-opacity:1;stroke:none;stroke-width:6.13863;stroke-linecap:round;stroke-linejoin:bevel;stroke-opacity:0.443702"
       id="path907" />
    <g
       transform="translate(-19.050006)"
       id="g1680">
      <rect
         ry="20.549658"
         rx="20.549658"
         y="29.760117"
         x="-27.05201"
         height="93.364532"
         width="71.322762"
         id="rect1752"
         style="opacity:1;fill:none;fill-opacity:1;stroke:#00a35d;stroke-width:1.32292;stroke-linecap:round;stroke-linejoin:bevel;stroke-opacity:0" />
    </g>
    <path
       style="fill:#ffffff;fill-opacity:1;stroke-width:0.0931815"
       fill="#1ed760"
       d="m 29.094615,52.057544 c -1.347406,-0.32129 -1.586882,-0.54679 -1.586882,-1.020618 0,-0.447644 0.42118,-0.7489 1.048292,-0.7489 0.607544,0 1.209497,0.22876 1.841268,0.6997 0.01864,0.01426 0.04287,0.01994 0.06616,0.01621 0.02423,-0.0035 0.04473,-0.0165 0.05871,-0.03597 l 0.657861,-0.927343 c 0.02703,-0.0382 0.01957,-0.09085 -0.01677,-0.120018 -0.751975,-0.603161 -1.598063,-0.896403 -2.587652,-0.896403 -1.454564,0 -2.471174,0.873018 -2.471174,2.122117 0,1.339485 0.876838,1.813779 2.39197,2.17989 1.288701,0.296969 1.506746,0.545764 1.506746,0.990426 0,0.492931 -0.439817,0.799498 -1.147997,0.799498 -0.786453,0 -1.428474,-0.265567 -2.145972,-0.886157 -0.01771,-0.01584 -0.04193,-0.02236 -0.06429,-0.02143 -0.02423,0.0019 -0.04566,0.01304 -0.06057,0.03075 l -0.737998,0.877771 c -0.03075,0.03727 -0.02703,0.09132 0.0084,0.122999 0.834907,0.745453 1.861768,1.138679 2.970628,1.138679 1.567315,0 2.580198,-0.856339 2.580198,-2.182312 0.0027,-1.118832 -0.66718,-1.738489 -2.308107,-2.137679 z m 5.857393,-1.328769 c -0.679293,0 -1.236519,0.267617 -1.696836,0.81599 V 50.92753 c 0,-0.04873 -0.03913,-0.08843 -0.08759,-0.08843 h -1.206701 c -0.04845,0 -0.08759,0.0397 -0.08759,0.08843 v 6.858257 c 0,0.04845 0.03913,0.08852 0.08759,0.08852 h 1.206701 c 0.04845,0 0.08759,-0.04007 0.08759,-0.08852 V 55.62118 c 0.460317,0.515293 1.017543,0.767815 1.696836,0.767815 1.26261,0 2.541061,-0.971883 2.541061,-2.82983 0.0018,-1.85832 -1.276587,-2.830483 -2.540129,-2.830483 z m 1.137747,2.83039 c 0,0.945699 -0.582385,1.606357 -1.417292,1.606357 -0.824657,0 -1.447109,-0.690476 -1.447109,-1.606357 0,-0.915975 0.622452,-1.606264 1.447109,-1.606264 0.82093,-9.3e-5 1.417292,0.675286 1.417292,1.60617 z m 4.678646,-2.83039 c -1.626018,0 -2.89981,1.251987 -2.89981,2.85061 0,1.581477 1.265406,2.819861 2.880242,2.819861 1.631609,0 2.909127,-1.247702 2.909127,-2.840081 0,-1.586976 -1.269131,-2.830204 -2.889559,-2.830204 z m 0,4.446064 c -0.864725,0 -1.516996,-0.695133 -1.516996,-1.616141 0,-0.925199 0.629908,-1.596572 1.497428,-1.596572 0.870316,0 1.526314,0.694855 1.526314,1.616793 0,0.925014 -0.633635,1.59592 -1.506746,1.59592 z m 6.361506,-4.335737 H 45.80207 v -1.357283 c 0,-0.04864 -0.03914,-0.08834 -0.08759,-0.08834 h -1.206703 c -0.04845,0 -0.08852,0.0397 -0.08852,0.08834 v 1.357283 h -0.57959 c -0.04845,0 -0.08759,0.0397 -0.08759,0.08843 v 1.036832 c 0,0.04864 0.03914,0.08843 0.08759,0.08843 h 0.57959 v 2.683162 c 0,1.083702 0.539522,1.633474 1.604584,1.633474 0.432364,0 0.791115,-0.08945 1.129361,-0.281409 0.02796,-0.01491 0.04472,-0.04473 0.04472,-0.07641 v -0.987725 c 0,-0.02982 -0.01585,-0.05871 -0.04193,-0.07454 -0.0261,-0.01678 -0.05871,-0.01771 -0.08573,-0.0037 -0.232025,0.116476 -0.45659,0.170521 -0.708182,0.170521 -0.386704,0 -0.56002,-0.176112 -0.56002,-0.569339 V 52.05329 h 1.327837 c 0.04845,0 0.08759,-0.0397 0.08759,-0.08843 v -1.036737 c 0.0018,-0.04873 -0.03727,-0.08843 -0.08666,-0.08843 z m 4.625535,0.0053 v -0.166673 c 0,-0.490415 0.188224,-0.709112 0.609405,-0.709112 0.251592,0 0.453794,0.04994 0.680226,0.125422 0.02796,0.0088 0.05684,0.0044 0.0792,-0.0123 0.02328,-0.01668 0.03634,-0.04342 0.03634,-0.07175 v -1.016611 c 0,-0.03886 -0.02423,-0.07324 -0.06243,-0.0847 -0.238543,-0.0711 -0.544181,-0.144058 -1.002635,-0.144058 -1.113519,0 -1.703358,0.627484 -1.703358,1.813965 v 0.255317 h -0.579592 c -0.04845,0 -0.08852,0.0397 -0.08852,0.08834 v 1.042142 c 0,0.04864 0.04007,0.08843 0.08852,0.08843 h 0.579591 v 4.137727 c 0,0.04939 0.04007,0.08852 0.08852,0.08852 h 1.205768 c 0.04939,0 0.08852,-0.03914 0.08852,-0.08852 v -4.137448 h 1.126564 l 1.725722,4.137447 c -0.19568,0.434226 -0.388567,0.520885 -0.651337,0.520885 -0.212454,0 -0.437023,-0.06336 -0.665318,-0.189158 -0.02141,-0.01118 -0.04752,-0.01304 -0.06988,-0.0066 -0.02328,0.0084 -0.04286,0.02516 -0.05218,0.04752 l -0.409067,0.897339 c -0.01958,0.04286 -0.0028,0.09225 0.0382,0.114613 0.426771,0.23109 0.811611,0.329862 1.287768,0.329862 0.890814,0 1.383746,-0.415589 1.817039,-1.531905 l 2.092857,-5.407978 c 0.0112,-0.02721 0.0075,-0.05796 -0.0093,-0.08209 -0.01585,-0.02395 -0.04287,-0.03839 -0.07175,-0.03839 h -1.25609 c -0.0382,0 -0.07175,0.02395 -0.08386,0.05926 l -1.286838,3.674522 -1.408905,-3.676945 c -0.01303,-0.03419 -0.04566,-0.05684 -0.082,-0.05684 h -2.061175 z m -2.681767,-0.0053 h -1.206703 c -0.04845,0 -0.08852,0.0397 -0.08852,0.08843 v 5.262988 c 0,0.04939 0.04007,0.08852 0.08852,0.08852 h 1.206703 c 0.04845,0 0.08852,-0.03914 0.08852,-0.08852 v -5.262616 c 0,-0.04873 -0.03913,-0.08843 -0.08852,-0.08843 z M 48.47731,48.442565 c -0.47802,0 -0.865657,0.38689 -0.865657,0.864818 0,0.478208 0.387637,0.865563 0.865657,0.865563 0.478025,0 0.864728,-0.387355 0.864728,-0.865563 0,-0.477835 -0.387636,-0.864818 -0.864728,-0.864818 z m 10.568657,4.088807 c -0.477091,0 -0.848886,-0.383442 -0.848886,-0.84907 0,-0.465629 0.376454,-0.85345 0.853545,-0.85345 0.477088,0 0.848883,0.383348 0.848883,0.848604 0,0.465629 -0.376455,0.853916 -0.853542,0.853916 z m 0.0046,-1.618098 c -0.43516,0 -0.764091,0.345704 -0.764091,0.769028 0,0.423137 0.327068,0.764182 0.759432,0.764182 0.435156,0 0.764087,-0.345424 0.764087,-0.769028 0,-0.423138 -0.327068,-0.764182 -0.759428,-0.764182 z m 0.188224,0.851493 0.24041,0.336199 h -0.203135 l -0.216184,-0.308431 h -0.185431 v 0.308431 h -0.16959 v -0.891188 h 0.396955 c 0.207795,0 0.34384,0.105947 0.34384,0.284297 0.0011,0.146109 -0.08387,0.235376 -0.205932,0.270692 z m -0.143497,-0.402078 h -0.220843 v 0.281874 h 0.220843 c 0.109951,0 0.176112,-0.05395 0.176112,-0.141077 0,-0.09169 -0.06616,-0.140797 -0.176112,-0.140797 z"
       id="path2-3" />
    <g
       transform="translate(-19.149981,-4.7625003)"
       id="g1777">
      <rect
         style="opacity:1;fill:#ffffff;fill-opacity:1;stroke:none;stroke-width:1.32292;stroke-linecap:round;stroke-linejoin:bevel;stroke-opacity:1"
         id="rect1771"
         width="31.669924"
         height="22.415535"
         x="45.842972"
         y="18.666515" />
      <path
         style="stroke-width:0.245398;fill-opacity:1;fill:url(#radialGradient1815)"
         fill="#1ed760"
         d="m 62.012358,9.48463 c -11.349465,0 -20.550461,9.200747 -20.550461,20.55021 0,11.349963 9.200996,20.549979 20.550461,20.549979 11.350694,0 20.550708,-9.200016 20.550708,-20.549979 0,-11.348729 -9.200014,-20.549236 -20.550953,-20.549236 z m 9.424311,29.639308 c -0.3681,0.603685 -1.158284,0.795093 -1.761966,0.424539 -4.825039,-2.947246 -10.89916,-3.614726 -18.052545,-1.980372 -0.689326,0.157061 -1.376443,-0.274844 -1.533501,-0.964417 -0.157791,-0.689572 0.272393,-1.376687 0.96344,-1.533749 7.828231,-1.788466 14.543089,-1.018405 19.960032,2.292029 0.60368,0.370553 0.795093,1.158291 0.42454,1.76197 z m 2.515341,-5.595595 c -0.463804,0.753868 -1.450309,0.991908 -2.203684,0.528105 -5.523936,-3.395347 -13.944317,-4.378665 -20.478071,-2.395342 -0.847362,0.255951 -1.742334,-0.221597 -1.999513,-1.067488 -0.255214,-0.847367 0.222577,-1.740618 1.068469,-1.998283 7.463324,-2.264549 16.741623,-1.167613 23.085191,2.730556 0.753375,0.463802 0.991412,1.450304 0.527608,2.202704 z m 0.215951,-5.826759 c -6.623324,-3.933991 -17.550949,-4.295711 -23.87464,-2.376442 -1.015462,0.307974 -2.089329,-0.265272 -2.397059,-1.280739 -0.307731,-1.015956 0.265031,-2.089083 1.281229,-2.39779 7.259152,-2.203686 19.326658,-1.77792 26.952192,2.748958 0.915338,0.542083 1.214726,1.721715 0.672393,2.633868 -0.539878,0.913376 -1.722703,1.214477 -2.633134,0.672145 z"
         id="path1766" />
      <path
         style="opacity:0.2;fill:#ffffff;stroke-width:0.733916"
         d="m 62.011592,9.48463 c -11.384517,0 -20.549668,9.165154 -20.549668,20.549671 0,0.08327 0.0083,0.164489 0.01304,0.24654 C 41.732962,19.124019 50.790678,10.21854 62.011731,10.21854 h 0.0015 c 11.221054,0 20.278767,8.905479 20.536769,20.062301 0.0048,-0.08208 0.01304,-0.163297 0.01304,-0.24654 C 82.562869,18.649786 73.397716,9.484633 62.013199,9.484633 Z"
         id="path6" />
      <path
         style="opacity:0.2;stroke-width:0.733916"
         d="m 41.500093,29.505134 c -0.0086,0.245125 -0.03728,0.485852 -0.03728,0.733915 0,11.384518 9.16515,20.549663 20.549667,20.549663 11.384518,0 20.549671,-9.165145 20.549671,-20.549663 0,-0.247843 -0.02866,-0.488259 -0.03728,-0.733915 -0.387508,11.039574 -9.376519,19.815765 -20.512972,19.815765 -11.136748,0 -20.125468,-8.776191 -20.512976,-19.815765 z"
         id="path2" />
    </g>
  </g>
</svg>
