<svg xmlns="http://www.w3.org/2000/svg" xmlns:xlink="http://www.w3.org/1999/xlink" width="324" height="234" viewBox="0 0 324 234"><defs><linearGradient id="g"><stop offset="0" stop-color="#e64540"/><stop offset="0" stop-color="#19a78d"/><stop offset="1" stop-color="#382ed1"/></linearGradient><linearGradient id="f"><stop offset="0" stop-color="#bb8aca"/><stop offset="1" stop-color="#ef9c9d"/></linearGradient><linearGradient id="e"><stop offset="0" stop-color="#e64540"/><stop offset=".51" stop-color="#a7197b"/><stop offset="1" stop-color="#382ed1"/></linearGradient><linearGradient id="d"><stop offset="0" stop-color="#1d1133"/><stop offset="1" stop-color="#24153f"/></linearGradient><linearGradient id="c"><stop offset="0" stop-color="#4e2e89"/><stop offset="1" stop-color="#330032" stop-opacity="0"/></linearGradient><linearGradient id="b"><stop offset="0" stop-color="#ad17e4"/><stop offset="1" stop-color="#9450fb"/></linearGradient><linearGradient id="a"><stop offset="0" stop-color="#71afd3"/><stop offset="1" stop-color="#2c7dbd"/></linearGradient><linearGradient xlink:href="#g" id="i" x1="200" x2="2.61" y1="133.72" y2="-10.11" gradientTransform="rotate(-180 100 61.5)" gradientUnits="userSpaceOnUse"/><linearGradient xlink:href="#h" id="j" x1="22.94" x2="39.61" y1="29.46" y2="12.17" gradientTransform="translate(-48 -48)" gradientUnits="userSpaceOnUse"/><linearGradient id="h"><stop offset="0" stop-color="#ce275c"/><stop offset="1" stop-color="#4142b4"/></linearGradient></defs><path fill="url(#i)" fill-rule="evenodd" d="M200 133.72V-10.73H0v144.45h27.78Z" paint-order="markers fill stroke" transform="matrix(1.62 0 0 1.62 0 17.37)"/><g transform="matrix(3.86919 0 0 3.86104 67.15 22.94)"><circle cx="-24" cy="-24" r="21" fill="url(#j)" transform="scale(-1)"/><path d="M39.2 21.5c-.3 0-.5-.1-.8-.2-11.4-7-27-2.9-27.2-2.8a1.5 1.5 0 1 1-.7-2.9c.7-.2 17-4.5 29.6 3.2.7.4.9 1.4.5 2.1-.4.4-.9.6-1.4.6zM36.5 28.5c-.2 0-.5-.1-.7-.2-11.1-7.7-23-2.9-23.1-2.8-.6.3-1.4 0-1.6-.7-.3-.6 0-1.4.7-1.6.5-.2 13.3-5.3 25.5 3.1.6.4.7 1.2.3 1.7-.4.3-.8.5-1.1.5zM33.7 34.4c-.2 0-.4-.1-.6-.2-8.9-6-19.5-2.3-19.6-2.2-.5.2-1.1-.1-1.3-.6-.2-.5.1-1.1.6-1.3.5-.2 11.7-4.1 21.4 2.5.5.3.6.9.3 1.4-.2.2-.5.4-.8.4z"/></g></svg>