<svg xmlns="http://www.w3.org/2000/svg" xmlns:xlink="http://www.w3.org/1999/xlink" width="324" height="234"><defs><path id="i" fill="#fff" d="m116.2696 65.8548 7.7343 8.125-2.7304 2.5586-7.7344-8.125zm0 0"/><path id="j" fill="none" stroke="#28e6c7" stroke-linecap="round" stroke-width="2.0471" d="m154.3125 110.2845 58.1016 41.6484"/></defs><defs><filter id="l" width="1.1123" height="1.1289" x="-.0561" y="-.0644" color-interpolation-filters="sRGB"><feGaussianBlur stdDeviation="3.6844"/></filter><filter id="m" width="5.7112" height="2.583" x="-2.3556" y="-.7915" color-interpolation-filters="sRGB"><feGaussianBlur stdDeviation="3.6844"/></filter><filter id="n" width="2.6663" height="2.6781" x="-.8332" y="-.839" color-interpolation-filters="sRGB"><feGaussianBlur stdDeviation="3.6844"/></filter><filter id="o" width="2.6982" height="2.6487" x="-.8491" y="-.8244" color-interpolation-filters="sRGB"><feGaussianBlur stdDeviation="3.6844"/></filter><filter id="p" width="2.6245" height="2.7267" x="-.8122" y="-.8634" color-interpolation-filters="sRGB"><feGaussianBlur stdDeviation="3.6844"/></filter><filter id="q" width="2.5693" height="5.7259" x="-.7846" y="-2.363" color-interpolation-filters="sRGB"><feGaussianBlur stdDeviation="3.6844"/></filter><filter id="r" width="2.5693" height="5.7259" x="-.7846" y="-2.363" color-interpolation-filters="sRGB"><feGaussianBlur stdDeviation="3.6844"/></filter><filter id="s" width="2.69" height="2.6554" x="-.845" y="-.8277" color-interpolation-filters="sRGB"><feGaussianBlur stdDeviation="3.6844"/></filter><filter id="t" width="1.3044" height="1.4246" x="-.1522" y="-.2123" color-interpolation-filters="sRGB"><feGaussianBlur stdDeviation="3.6844"/></filter><linearGradient id="c"><stop offset="0" stop-color="#28e5c7" stop-opacity="0"/><stop offset=".4276" stop-color="#28e6c7"/><stop offset="1" stop-opacity="0"/></linearGradient><linearGradient id="b"><stop offset="0" stop-color="#405f79"/><stop offset="1" stop-color="#446682" stop-opacity="0"/></linearGradient><linearGradient id="d"><stop offset="0" stop-color="#6f94b4"/><stop offset="1" stop-color="#446683"/></linearGradient><linearGradient id="a" x1="21.7829" x2="107.2171" y1="60.2293" y2="60.2293" gradientTransform="matrix(1.96 0 0 1.94 35.8394 -9.8746)" gradientUnits="userSpaceOnUse"><stop offset="0" stop-color="#2be8c9"/><stop offset="1" stop-color="#fff"/></linearGradient><linearGradient xlink:href="#a" id="g" x1="21.7829" x2="107.2171" y1="60.2293" y2="60.2293" gradientTransform="matrix(1.96 0 0 1.94 35.8394 -9.8746)" gradientUnits="userSpaceOnUse"/><linearGradient xlink:href="#a" id="k" x1="21.7829" x2="107.2171" y1="60.2293" y2="60.2293" gradientTransform="matrix(1.96 0 0 1.94 35.8394 -9.8746)" gradientUnits="userSpaceOnUse"/><linearGradient xlink:href="#b" id="f" x1="121.2735" x2="161.4505" y1="76.5384" y2="178.1772" gradientUnits="userSpaceOnUse"/><linearGradient xlink:href="#c" id="h" x1="227.8031" x2="169.8544" y1="188.833" y2="61.1206" gradientUnits="userSpaceOnUse"/><radialGradient xlink:href="#d" id="e" cx="162" cy="117" r="134.4004" fx="162" fy="117" gradientTransform="matrix(1 0 0 .87 0 15.1476)" gradientUnits="userSpaceOnUse"/></defs><rect width="324" height="234" fill="#3a576f" fill-opacity=".9961" fill-rule="evenodd" paint-order="markers fill stroke" rx="2.2218" ry="1.4386"/><path fill="url(#e)" fill-rule="evenodd" d="M96.1934 0a134.4 134.4 0 0 0-6.8106 3.9063 134.4 134.4 0 0 0-10.9277 7.8144 134.4 134.4 0 0 0-10.0918 8.8672 134.4 134.4 0 0 0-9.1582 9.83 134.4 134.4 0 0 0-8.1309 10.6934 134.4 134.4 0 0 0-7.0215 11.4532A134.4 134.4 0 0 0 38.209 64.662a134.4 134.4 0 0 0-4.6055 12.6192 134.4 134.4 0 0 0-3.3242 13.0175 134.4 134.4 0 0 0-1.8262 12.088H0V234h324V102.3867h-28.5566a134.4 134.4 0 0 0-.998-8.2305 134.4 134.4 0 0 0-2.9435-13.1074 134.4 134.4 0 0 0-4.2363-12.75 134.4 134.4 0 0 0-5.4883-12.2617 134.4 134.4 0 0 0-6.6835-11.6543 134.4 134.4 0 0 0-7.8145-10.9277 134.4 134.4 0 0 0-8.8672-10.0918 134.4 134.4 0 0 0-9.83-9.1582 134.4 134.4 0 0 0-10.6934-8.1309A134.4 134.4 0 0 0 227.9805 0Z" paint-order="markers fill stroke"/><path fill="url(#f)" d="M164 40.972c-43.504 0-78.7734 34.9883-78.7734 78.1485 0 22.664 9.9218 44.2148 27.1874 59.0586l103.1758-.004c17.2618-14.8437 27.1836-36.3906 27.1836-59.0547 0-43.1601-35.2695-78.1484-78.7734-78.1484z"/><path fill="none" stroke="url(#g)" stroke-width="9.5236" d="M110.414 176.179c-17.2655-14.8438-27.1874-36.3945-27.1874-59.0586 0-43.1601 35.2695-78.1484 78.7734-78.1484 43.5039 0 78.7734 34.9883 78.7734 78.1484 0 22.664-9.9219 44.211-27.1836 59.0547"/><path fill="#fff" d="M163.875 48.6595v11.1719h-3.7539v-11.172Zm47.2188 20.4101-7.957 7.9102-2.6563-2.629 7.957-7.91zm0 0"/><path fill="#5199de" d="m209.0782 166.6321-7.6641-8.1914 2.7539-2.5351 7.6602 8.1914zm-98.0274-3.957 8.375-7.4726 2.5117 2.7695-8.375 7.4726zm0 0"/><path fill="#fff" d="m93.2383 115.0267 11.2617.0195-.004 3.7226-11.2656-.0156zm126.3203 0 11.2656.0195-.004 3.7226-11.2656-.0156zm0 0"/><path fill="url(#h)" d="m169.8544 61.1206.248 60.4824 41.8907 30.7383c1.9839-2.5625 3.968-5.1248 5.9511-9.1738 1.983-4.049 4.0175-9.7303 5.1895-14.3262 1.172-4.5959 1.5852-8.3958 1.42-13.0644-.1654-4.6686-.8973-10.1121-2.6388-15.3223-1.7414-5.2102-4.4674-10.0012-7.3593-14.1738-2.892-4.1726-5.9448-7.7194-9.459-10.7383-3.5143-3.019-7.4796-5.4993-11.4453-7.5235-3.9657-2.0241-7.933-3.5939-11.8985-4.668-3.9655-1.074-7.9315-1.6519-11.8984-2.2304z"/><use xlink:href="#i"/><use xlink:href="#j" stroke-linecap="round" stroke-width="2.0471"/><path fill="none" stroke="url(#k)" stroke-width="9.5236" d="M110.414 176.179c-17.2655-14.8438-27.1874-36.3945-27.1874-59.0586 0-43.1601 35.2695-78.1484 78.7734-78.1484 43.5039 0 78.7734 34.9883 78.7734 78.1484 0 22.664-9.9219 44.211-27.1836 59.0547" filter="url(#l)"/><path d="M171.3868 116.8978c0 5.1445-4.2032 9.3125-9.3868 9.3125-5.1836 0-9.3867-4.168-9.3867-9.3125 0-5.1407 4.2031-9.3125 9.3867-9.3125 5.1836 0 9.3868 4.1718 9.3868 9.3125zm0 0"/><path fill="#fff" d="M163.875 48.6595v11.1719h-3.7539v-11.172Zm0 0" filter="url(#m)"/><path fill="#fff" d="m211.0938 69.0696-7.957 7.9102-2.6563-2.629 7.957-7.91zm0 0" filter="url(#n)"/><path fill="#5199de" d="m209.0782 166.6321-7.6641-8.1914 2.7539-2.5351 7.6602 8.1914zm0 0" filter="url(#o)"/><path fill="#5199de" d="m111.0508 162.6751 8.375-7.4726 2.5117 2.7695-8.375 7.4726zm0 0" filter="url(#p)"/><path fill="#fff" d="m93.2383 115.0267 11.2617.0195-.004 3.7226-11.2656-.0156zm0 0" filter="url(#q)"/><path fill="#fff" d="m219.5586 115.0267 11.2656.0195-.004 3.7226-11.2656-.0156zm0 0" filter="url(#r)"/><use xlink:href="#i" filter="url(#s)"/><use xlink:href="#j" stroke-linecap="round" stroke-width="2.0471" filter="url(#t)"/></svg>