<svg xmlns="http://www.w3.org/2000/svg" xmlns:xlink="http://www.w3.org/1999/xlink" width="324" height="234" viewBox="0 0 85.725 61.913"><defs/><defs><filter id="e" width="1.464" height="1.477" x="-.232" y="-.239" color-interpolation-filters="sRGB"><feGaussianBlur stdDeviation="4.156"/></filter><filter id="f" width="1.175" height="1.199" x="-.088" y="-.1" color-interpolation-filters="sRGB"><feGaussianBlur stdDeviation="1.731"/></filter><filter id="l" width="3.218" height="3.218" x="-1.109" y="-1.109" color-interpolation-filters="sRGB"><feGaussianBlur stdDeviation="1.467"/></filter><filter id="n" width="1.661" height="1.661" x="-.331" y="-.331" color-interpolation-filters="sRGB"><feGaussianBlur stdDeviation=".51"/></filter><filter id="m" width="2.322" height="2.322" x="-.661" y="-.661" color-interpolation-filters="sRGB"><feGaussianBlur stdDeviation=".51"/></filter><filter id="j" width="2.322" height="2.322" x="-.661" y="-.661" color-interpolation-filters="sRGB"><feGaussianBlur stdDeviation=".51"/></filter><filter id="i" width="1.661" height="1.661" x="-.331" y="-.331" color-interpolation-filters="sRGB"><feGaussianBlur stdDeviation=".51"/></filter><filter id="k" width="2.322" height="2.322" x="-.661" y="-.661" color-interpolation-filters="sRGB"><feGaussianBlur stdDeviation=".51"/></filter><linearGradient id="c"><stop offset="0" stop-color="#111c2a"/><stop offset="1" stop-color="#0a1119"/></linearGradient><linearGradient id="b"><stop offset="0" stop-color="#091017"/><stop offset="1" stop-color="#04070a"/></linearGradient><linearGradient id="a"><stop offset="0" stop-color="#09123b"/><stop offset="1" stop-color="#03020a"/></linearGradient><linearGradient id="g" x1="21.38" x2="21.093" y1="43.133" y2="53.7" gradientUnits="userSpaceOnUse" xlink:href="#b"/><linearGradient id="h" x1="43.33" x2="85.725" y1="47.88" y2="47.88" gradientUnits="userSpaceOnUse" xlink:href="#c"/><radialGradient id="d" cx="176.836" cy="64.769" r="162" fx="176.836" fy="64.769" gradientTransform="matrix(-.30495 .12017 -.08266 -.20975 123.387 -3.536)" gradientUnits="userSpaceOnUse" xlink:href="#a"/></defs><path fill="url(#d)" d="M0 0v41.312c.905-.174 1.82-.378 2.716-.523a65.986 65.986 0 015.49-.664 54.15 54.15 0 015.348-.14c1.766.041 3.52.167 5.277.372 1.758.205 3.52.49 5.3.845 1.78.355 3.58.783 5.414 1.275 1.834.492 3.708 1.052 5.601 1.647 1.893.596 3.806 1.228 5.717 1.866.826.275 1.644.545 2.467.82.938-.351 1.878-.708 2.81-1.027a84.183 84.183 0 013.91-1.242 66.8 66.8 0 013.675-.952c1.18-.27 2.314-.494 3.4-.677a54.82 54.82 0 013.11-.437c.989-.11 1.926-.184 2.811-.231a36.786 36.786 0 012.549-.051c.829.013 1.654.058 2.524.137.87.08 1.784.193 2.792.345 1.007.151 2.107.34 3.348.57 2.482.459 5.529 1.08 8.858 1.782.823.174 1.755.379 2.608.56V0z"/><g stroke="#000" stroke-width=".265"><path fill="#2d3060" d="M17.205 3.679c-.006.053-.018.16 1.12 2.736 1.14 2.576 3.428 7.621 7.667 11.033 4.24 3.412 10.43 5.191 14.735 8.913 4.306 3.722 6.727 9.385 9.004 12.778 2.277 3.393 4.408 4.516 6.33 5.171 1.922.656 3.634.844 5.505-.25 1.872-1.094 3.904-3.47 3.337-6.831-.567-3.36-3.733-7.705-11.455-13.539-7.723-5.833-20.003-13.155-26.433-16.85-6.43-3.697-7.011-3.766-7.67-3.698-.66.069-1.397.276-1.766.38-.369.103-.369.103-.374.157z" filter="url(#e)" transform="matrix(1.07295 0 0 .6408 -3.402 25.006)"/><path fill="#736f89" d="M18.424 5.715c-.006.054-.017.16 1.121 2.737 1.139 2.576 3.427 7.62 7.667 11.032s10.43 5.192 14.735 8.913c4.306 3.722 6.727 9.386 9.004 12.779 2.276 3.393 4.408 4.515 6.33 5.17 1.921.656 3.633.845 5.505-.25 1.871-1.094 3.903-3.47 2.668-5.609-1.236-2.139-5.738-4.04-13.46-9.873-7.724-5.833-18.666-15.599-24.428-20.517-5.762-4.917-6.342-4.987-7.002-4.918-.659.068-1.396.275-1.765.379-.37.103-.37.103-.375.157z" filter="url(#f)" opacity=".434" transform="matrix(1.07295 0 0 .6906 -14.767 22.434)"/></g><circle cx="15.481" cy="22.15" r="4.287" fill="#fffefa"/><path d="M14.69 20.847c-.036-.018-.046.027-.068.186a3.795 3.795 0 00-.03.424v.197l-.161-.155c-.323-.314-.35-.143-.049.311.138.208.164.287.15.463l-.016.212-.086-.275c-.102-.326-.217-.455-.26-.292-.033.125-.071.13-.262.031-.132-.068-.147-.068-.176.008-.018.045.004.139.048.208.176.278.206.36.143.381-.08.026-.079.204 0 .214.033.004.105.01.158.012.054.003.097.038.097.078 0 .069-.026.07-.23.013-.119-.034-.164.117-.067.223.101.113.1.184-.007.244-.064.037-.156.008-.384-.12-.165-.091-.323-.166-.352-.166-.088 0-.06.188.044.291a.44.44 0 01.097.122c0 .013-.044.024-.097.024-.12 0-.13.138-.012.179.124.044.303.217.303.291 0 .036-.04.065-.087.065a.37.37 0 00-.182.07c-.184.135-.005.204.597.231.138.006.153.02.128.12-.025.1-.012.113.122.113.107 0 .151.023.151.078 0 .061.03.07.133.045.074-.019.15-.059.171-.09.027-.04.06-.03.11.038.106.138.036.172-.368.18-.307.005-.4-.014-.605-.123-.29-.154-.364-.16-.364-.03 0 .053-.011.097-.025.097-.014 0-.178-.077-.363-.17a3.906 3.906 0 00-.364-.17c-.014 0-.025.054-.025.121 0 .083-.027.121-.085.121-.047 0-.17.024-.274.053-.189.053-.189.053-.092.15a.617.617 0 00.3.124c.195.026.203.033.174.166-.034.152.045.184.219.09.074-.039.107-.017.194.13.078.132.117.162.16.12a.276.276 0 01.168-.055c.096 0 .106.014.065.09-.043.082-.025.094.179.117.157.018.243.006.278-.039.027-.036.178-.098.335-.138.157-.04.337-.122.401-.182s.116-.082.116-.05c0 .03-.056.106-.124.165-.182.161-.708.474-.796.473-.042 0-.183-.054-.313-.12-.24-.122-.35-.12-.303.004.032.081-.06.087-.246.017-.108-.042-.146-.037-.19.024-.034.047-.13.076-.25.076-.257 0-.328.084-.232.276a.495.495 0 00.267.222c.118.047.195.108.195.157 0 .058.027.071.1.048.103-.033.257.056.214.125-.013.021-.144.027-.29.012-.22-.023-.27-.014-.297.055-.018.045-.007.108.023.138.03.03.055.106.055.169v.114l-.218-.129c-.218-.127-.238-.124-.221.04.007.076-.022.082-.262.054-.18-.021-.27-.015-.27.02 0 .072.196.205.302.205.053 0 .086.036.086.093 0 .066.066.118.224.178.123.047.254.116.29.152.049.048.092.053.158.019.076-.041.137.004.392.289l.303.337-.131.05c-.327.125-.553.147-.732.072-.247-.103-.358-.094-.358.027 0 .091-.02.097-.213.068-.128-.019-.225-.012-.244.018-.047.078.464.636.585.638.057.001.13.034.164.075.033.04.116.073.185.073.19 0 .06.1-.17.13a.765.765 0 01-.366-.049c-.154-.064-.186-.064-.235-.005-.032.038-.132.07-.222.07s-.164.01-.164.024c0 .013.09.113.199.223.126.126.23.19.284.176.052-.013.146.04.244.14.229.234.312.245.523.071.175-.144.402-.2.402-.1 0 .027-.056.049-.124.049-.114 0-.121.012-.093.162.03.157.022.166-.204.262-.34.145-.593.207-.847.207-.19 0-.23.018-.277.12-.053.116-.134.153-.398.182-.207.023-.134.128.162.233.204.073.089.18-.214.201-.252.018-.279.004-.18-.099.05-.05.038-.06-.06-.046-.084.011-.117-.005-.107-.05.015-.072-.02-.066-.355.061-.107.04-.283.075-.392.076-.28.003-.69-.129-.75-.242-.048-.09-.038-.093.247-.063.223.023.307.015.338-.034.033-.054.064-.055.175-.005.116.053.144.05.195-.02.04-.055.117-.077.245-.069.349.021.417.005.392-.091-.014-.054.012-.113.067-.147.05-.03.09-.085.09-.12 0-.035.088-.113.195-.173.107-.06.195-.126.195-.148 0-.022-.105-.067-.231-.1-.127-.035-.256-.093-.287-.132-.044-.054-.097-.059-.243-.022-.48.12-.455.123-.421-.048.03-.154.03-.154-.135-.117-.466.104-.57.114-.755.073-.312-.068-.806-.297-.755-.349.028-.027.124-.021.25.016.153.047.212.048.238.006.025-.04.085-.043.203-.012.092.025.276.052.408.06.223.013.247.004.309-.123.054-.112.09-.133.184-.109.107.027.117.015.117-.143 0-.156.01-.168.094-.122.151.08.294.062.294-.04 0-.06.067-.116.2-.168.237-.093.21-.18-.056-.18-.14 0-.192-.02-.192-.073 0-.066-.017-.066-.15.004-.166.086-.287.064-.287-.05 0-.104-.09-.09-.316.049a.828.828 0 01-.347.12c-.23 0-.767-.18-.868-.291-.108-.12-.063-.18.085-.112.137.064.612.151.644.119.013-.013.024-.064.024-.113 0-.108.089-.113.274-.016.177.092.26.092.26 0 0-.05.05-.073.152-.073.115 0 .144-.017.122-.075-.017-.045.004-.086.055-.104a.613.613 0 00.157-.091.45.45 0 01.194-.078c.2-.027.18-.17-.027-.208a.966.966 0 01-.263-.086c-.08-.05-.309-.017-.539.08-.052.022-.093-.007-.132-.092-.038-.083-.095-.123-.175-.123-.065 0-.127-.026-.137-.058-.013-.04-.086-.025-.238.049-.263.127-.725.153-.628.035.092-.11.023-.162-.266-.198-.146-.019-.266-.054-.266-.08 0-.025.024-.03.053-.012.03.018.106.004.17-.03.099-.053.13-.05.206.019.129.116.244.1.28-.041.039-.156.069-.153.238.024.158.165.242.183.308.066.032-.057.12-.083.306-.09.248-.007.48-.084.48-.16-.001-.058-.305-.225-.51-.28-.138-.038-.2-.083-.21-.154-.018-.12-.17-.17-.333-.107-.27.102-.237-.035.044-.18.181-.093.15-.181-.078-.212-.212-.029-.237-.11-.045-.147a1.46 1.46 0 00.315-.117c.15-.077.172-.106.132-.181a.181.181 0 00-.143-.09c-.128 0-.12-.056.026-.194.157-.148.155-.243-.005-.243-.102 0-.12-.017-.092-.085.084-.205.084-.255-.004-.255-.048 0-.135.045-.193.1-.086.08-.128.089-.234.048-.122-.046-.14-.034-.279.192-.159.258-.515.596-.6.568-.028-.01-.067-.18-.087-.377-.032-.313-.026-.369.047-.423.07-.052.095-.05.144.017.051.071.085.073.305.016.289-.073.31-.174.062-.283-.206-.091-.201-.15.01-.116a.917.917 0 00.302-.006l.133-.034-.158-.1-.158-.1.108-.115c.144-.154.089-.193-.142-.1-.17.068-.197.068-.265 0-.067-.067-.088-.052-.206.15-.072.123-.162.223-.2.223-.115 0-.026-.239.207-.551.116-.156.211-.304.211-.328 0-.077-.15-.047-.282.057-.12.095-.129.095-.162.012a.885.885 0 01-.038-.244c-.002-.1-.036-.174-.094-.205-.08-.044-.094-.025-.122.175a3.42 3.42 0 00-.03.368v.145l-.167-.127c-.313-.239-.356-.15-.094.193.18.236.29.516.235.604-.05.081-.104.012-.169-.22-.072-.26-.136-.315-.223-.196-.053.073-.086.077-.218.031a1.085 1.085 0 00-.197-.054c-.08 0-.04.163.08.32.128.168.154.263.073.263-.027 0-.049.046-.049.103 0 .086.023.099.148.08.153-.022.235.036.159.112-.026.026-.107.026-.2 0-.129-.038-.156-.032-.156.032 0 .043.037.12.082.169.075.083.076.097.005.167-.071.071-.104.065-.382-.074-.436-.218-.59-.2-.391.047.089.11.089.113-.011.194-.101.082-.1.083.074.156.097.04.198.113.226.162.041.075.025.097-.105.139-.247.08-.194.189.114.236.147.022.329.039.405.037.112-.002.128.01.083.065-.075.09.013.143.17.103.096-.024.12-.01.12.066 0 .096.075.092.352-.02.064-.027.084-.012.084.06 0 .183-.486.212-.912.056-.425-.157-.519-.171-.482-.075.047.121-.148.1-.379-.043-.232-.143-.365-.153-.397-.029-.018.07-.082.097-.264.115-.132.012-.255.037-.273.055-.07.07.138.191.371.213.23.022.244.031.217.14-.032.129.06.154.231.063.084-.045.104-.032.154.1.053.14.07.149.236.12.144-.024.181-.014.194.053.012.058.074.085.211.094.107.007.216-.005.243-.026.044-.034.6-.192.678-.192.094 0-.068.119-.365.268-.391.198-.406.199-.684.073-.265-.12-.316-.121-.346-.006-.022.084-.043.087-.233.036-.163-.043-.212-.042-.228.005-.012.037-.106.06-.232.06-.23 0-.288.047-.242.194.037.117.407.373.617.428.266.068.211.141-.102.137-.318-.004-.414.043-.284.138.1.073.114.222.021.222a.346.346 0 01-.157-.072c-.129-.097-.313-.095-.313.003 0 .063-.046.075-.243.06-.299-.02-.32.056-.049.178.107.048.194.117.194.153 0 .035.06.076.134.091.074.015.217.069.319.12.101.051.216.08.256.066.044-.017.17.066.326.213.14.133.288.254.327.27.117.046-.026.117-.362.18-.239.043-.339.04-.526-.017-.22-.067-.235-.065-.283.025-.04.075-.082.09-.193.065a.57.57 0 00-.245.002c-.096.03-.081.056.18.32.176.178.324.286.39.286.06 0 .122.022.139.048.016.027.083.049.149.049.149 0 .155.076.009.115a.784.784 0 01-.542-.043c-.125-.066-.15-.066-.222 0a.42.42 0 01-.242.074h-.16l.203.197c.137.132.231.188.29.169.053-.017.122.013.179.077a.86.86 0 00.259.175c.159.067.174.064.378-.08.21-.148.355-.19.355-.104 0 .025-.05.053-.11.062-.105.016-.109.033-.05.236.016.06-.06.101-.334.182a4.63 4.63 0 01-.635.136.937.937 0 00-.435.147.583.583 0 01-.344.115c-.247 0-.22.097.054.193.135.047.2.097.19.146-.02.104.18.195.43.195.125 0 .214.023.214.054s.043.043.1.028c.055-.014.161.01.236.053.129.073.146.072.277-.015.077-.05.176-.087.22-.08.045.007.096-.01.114-.04.024-.038.053-.037.103.004.054.045.087.042.153-.013.087-.074.254-.067.254.01 0 .048-.349.155-.79.242-.153.03-.278.07-.278.09 0 .078.123.152.252.152.075 0 .136.022.136.049 0 .027-.115.049-.255.05a27.44 27.44 0 00-1.927.174l-.217.033.112.09c.061.05.146.09.188.09.06 0 .052.025-.034.116-.06.064-.091.127-.07.139.118.064.514.142.602.12.073-.02.096-.009.078.038-.033.085.1.134.203.076.057-.031.107-.02.168.034.072.065.115.07.23.026.122-.046.145-.04.17.035.019.062.075.089.183.089.32 0 .812.122.812.201 0 .037-.661.208-1.025.266a.694.694 0 01-.35-.046c-.223-.093-.277-.093-.277.002 0 .08-.098.076-.726-.03a4.153 4.153 0 00-.31-.046c-.08 0 .064.134.21.194.1.042.14.09.133.16-.008.071.024.11.11.13.067.017.122.063.122.102 0 .079.154.128.423.137.243.008.524.146.524.258 0 .102.015.104.243.04l.17-.046-.132.116c-.082.072-.266.146-.486.194-.311.068-.4.069-.732.01-.333-.059-.382-.058-.419.007-.032.058-.096.068-.293.044-.232-.027-.249-.023-.221.063.027.086.01.091-.21.065-.145-.017-.251-.008-.27.023-.048.078.165.204.345.204.18 0 .193.027.08.153-.075.082-.069.1.098.271.167.172.195.182.444.174.232-.008.266.002.266.082 0 .094-.24.194-.47.194-.165 0-.255.05-.227.126.017.043.098.069.223.069.194 0 .196 0 .109.097-.049.054-.08.106-.069.116.056.053.411.176.51.176.061 0 .126.021.142.048.017.027.082.036.144.02.062-.015.126-.008.141.018.043.07-.266.107-.88.107-.51 0-.683.048-.449.123.142.045.07.12-.115.12-.087 0-.2.033-.253.073-.081.062-.084.078-.02.12.09.062.27.064.473.006.148-.043.218.001.11.069-.028.016-.05.064-.05.106 0 .061.037.07.184.047.17-.027.189-.019.238.112.042.11.076.136.154.115a.353.353 0 00.157-.094c.089-.106.147-.079.113.054-.024.097-.012.121.06.12.05 0 .145-.043.212-.096.159-.124.194-.12.194.018 0 .101-.029.12-.237.147-.13.017-.35.007-.49-.023-.185-.04-.268-.04-.308-.001-.029.03-.114.054-.19.054-.088 0-.135.025-.135.072 0 .053-.054.073-.194.073-.216 0-.253.056-.086.132.106.048.105.052-.06.122a.763.763 0 00-.243.16c-.07.084-.06.086.188.053.23-.03.258-.025.23.045-.02.055 0 .088.067.106.054.014.098.053.098.088 0 .049.036.051.171.01.124-.038.186-.038.225.001.035.035.093.038.168.01.09-.034.125-.024.163.047.036.068.03.098-.024.119-.132.05-.073.127.098.127.191 0 .206.026.09.154-.075.083-.074.09.013.09.05 0 .168-.022.26-.048.197-.057.222-.042.15.09-.046.088-.037.105.07.131a.598.598 0 00.243 0c.07-.017.122-.009.122.02 0 .073.178.06.342-.025.136-.07.143-.069.143.025 0 .124.069.124.269 0l.157-.097.077.117c.073.111.087.115.28.058.112-.033.257-.108.322-.166.083-.074.154-.097.236-.076.09.023.142 0 .218-.097.06-.075.15-.127.219-.127a.357.357 0 00.215-.097c.053-.054.13-.097.17-.097.048 0 .072-.049.072-.147v-.147l.15.077c.14.072.148.09.12.28-.05.338-.132.612-.2.669-.037.03-.575.094-1.197.144-.622.049-1.296.123-1.496.165-.2.042-.546.09-.767.108-.221.017-.414.05-.428.073-.014.022-.176.041-.36.041s-.347.022-.364.049c-.035.056 1.44.054 2.818-.004.48-.02 1.33-.05 1.886-.065.556-.016 2.185-.073 3.62-.127a536.62 536.62 0 013.433-.12c.782-.021 1.917-.061 4.81-.17.695-.026 1.985-.07 2.866-.098l.253-.01c.167.034.313.082.313.12 0 .028-.515.161-.798.206a.54.54 0 01-.273-.035c-.174-.073-.216-.072-.216.001 0 .063-.076.06-.565-.024a3.145 3.145 0 00-.241-.034c-.063 0 .049.104.163.15.078.033.109.07.103.125-.006.055.02.085.086.102.052.013.095.048.095.078 0 .062.12.1.33.107.188.006.408.114.408.201 0 .08.011.082.189.032l.132-.036-.103.09c-.063.056-.207.114-.378.151-.242.053-.311.054-.57.008-.26-.046-.298-.045-.326.005-.025.045-.075.053-.228.035-.181-.022-.195-.018-.173.05.02.066.008.07-.163.05-.114-.014-.196-.007-.211.017-.037.06.129.16.269.16s.15.02.062.118c-.058.064-.053.078.077.211.13.134.152.142.345.136.18-.007.207.001.207.064 0 .073-.187.15-.366.151-.128 0-.198.04-.176.098.013.034.076.054.174.054.15 0 .152 0 .084.076-.037.041-.061.082-.053.09.044.041.32.136.397.136.048 0 .098.017.11.038.014.021.064.028.112.016.049-.012.099-.006.11.014.034.054-.206.083-.685.083-.397 0-.532.037-.35.095.111.035.054.095-.09.095a.38.38 0 00-.196.056c-.064.049-.066.061-.017.094.072.048.211.05.37.004.114-.033.169.002.084.054-.02.013-.038.05-.038.083 0 .047.03.055.144.037.133-.022.147-.015.185.086.032.086.059.106.12.09a.276.276 0 00.122-.073c.07-.083.114-.062.088.042-.019.075-.01.094.047.094a.352.352 0 00.165-.075c.124-.097.151-.095.151.014 0 .079-.022.093-.184.114a1.342 1.342 0 01-.382-.018c-.145-.031-.21-.03-.24 0-.023.022-.09.041-.147.041-.07 0-.106.02-.106.057 0 .041-.042.056-.152.056-.168 0-.196.044-.066.103.083.038.081.04-.047.095a.594.594 0 00-.19.124c-.054.066-.046.068.147.042.18-.023.201-.02.18.035-.016.043 0 .069.052.083.041.01.076.042.076.068 0 .039.028.04.133.008.096-.03.145-.03.175 0 .027.028.073.03.131.009.07-.027.097-.02.127.037.028.053.024.075-.019.092-.103.04-.057.1.077.1.149 0 .16.02.07.12-.059.064-.058.068.01.068.04 0 .13-.016.202-.037.154-.044.173-.033.117.071-.036.068-.029.082.054.102a.467.467 0 00.19 0c.055-.013.095-.007.095.015 0 .057.139.047.267-.019.105-.055.111-.054.111.019 0 .096.053.097.209 0l.123-.075.06.091c.057.087.067.09.218.045a.783.783 0 00.25-.13c.065-.057.12-.074.185-.058.07.018.11 0 .17-.076.045-.058.116-.098.17-.098.05 0 .125-.035.167-.076.042-.042.101-.076.132-.076.038 0 .057-.038.057-.115v-.114l.116.06c.11.057.116.07.094.219-.039.262-.103.476-.157.52-.027.023-.447.073-.931.112a14.26 14.26 0 00-1.165.129c-.156.033-.425.07-.598.084-.172.014-.322.039-.333.056-.01.018-.137.033-.28.033-.144 0-.271.017-.284.038-.027.043 1.121.042 2.195-.003.375-.015 1.035-.039 1.469-.051a465.25 465.25 0 002.82-.099 412.63 412.63 0 012.674-.093c.609-.017 1.492-.048 3.746-.133.036 0 .11-.003.15-.005.008.004.01.008.023.012.065.02.032.056-.053.056a.225.225 0 00-.116.033c-.038.029-.04.036-.01.056.042.028.125.029.218.002.068-.02.1 0 .05.032-.012.008-.022.03-.022.05 0 .027.017.032.085.02.078-.012.087-.008.11.052.019.051.034.063.07.054a.163.163 0 00.073-.044c.04-.049.067-.036.052.025-.011.045-.006.056.027.055.023 0 .067-.02.098-.044.073-.057.09-.056.09.008 0 .047-.014.055-.11.068a.789.789 0 01-.225-.01c-.086-.019-.124-.019-.142 0-.014.013-.053.023-.087.023-.041 0-.063.013-.063.035 0 .024-.025.033-.09.033-.1 0-.116.026-.04.06.05.023.05.024-.027.056a.353.353 0 00-.112.074c-.032.039-.028.04.087.025.106-.014.119-.012.106.02-.01.026 0 .041.03.05.025.006.046.024.046.04 0 .023.017.024.079.005.057-.018.085-.017.103 0 .016.016.043.018.077.005.042-.016.058-.011.076.022.017.031.014.044-.01.054-.062.023-.035.059.044.059.088 0 .095.012.041.071-.034.039-.034.041.006.041a.57.57 0 00.12-.022c.09-.026.103-.02.07.042-.022.04-.018.048.031.06a.278.278 0 00.113 0c.032-.007.056-.004.056.01 0 .033.082.027.157-.012.063-.032.066-.032.066.011 0 .057.032.057.124 0l.073-.044.035.054c.034.051.04.052.13.026a.464.464 0 00.147-.076c.039-.034.071-.045.11-.035.041.01.065 0 .1-.045.027-.034.069-.058.1-.058.03 0 .075-.02.1-.045.024-.025.06-.045.078-.045.022 0 .033-.023.033-.068v-.068l.07.036c.064.033.067.042.054.13-.022.155-.06.281-.092.308-.016.013-.264.043-.551.065a8.438 8.438 0 00-.69.077c-.092.02-.25.042-.353.05a.636.636 0 00-.197.033c-.007.01-.081.02-.166.02s-.16.009-.168.021c-.016.026.664.025 1.299-.001.222-.009.612-.023.869-.03.256-.008 1.007-.034 1.668-.059.661-.024 1.373-.05 1.583-.055.36-.01.883-.028 2.216-.078.32-.012.915-.032 1.322-.045.87-.028 1.532-.059 1.546-.073.011-.01-.318-.03-.879-.052l-.384-.015-.015-.078c-.008-.042-.01-.082-.004-.087a.448.448 0 01.138.047c.156.069.377.08.41.02.016-.028.04-.033.097-.022.237.044.25.044.28.004.015-.022.04-.032.054-.023a.459.459 0 00.136.022c.094.005.11 0 .11-.036 0-.027.015-.043.04-.043.062 0 .183-.046.183-.069 0-.011-.044-.02-.099-.02-.115 0-.17-.017-.17-.053.001-.04.174-.216.214-.216.02 0 .029-.01.02-.025-.009-.013-.003-.032.012-.042.017-.01-.001-.022-.048-.033l-.075-.016.073-.032c.086-.037.099-.083.017-.063-.038.01-.06.004-.068-.02-.007-.018-.03-.03-.051-.026l-.16.032a.37.37 0 01-.247-.014c-.158-.052-.18-.113-.04-.115.053 0 .116-.003.14-.006a.206.206 0 01.087.013c.035.015.04.01.028-.028-.017-.054.001-.063.172-.084.074-.01.125-.027.122-.041-.003-.014.018-.028.045-.033.062-.009.062-.015.007-.07-.036-.036-.063-.041-.167-.03-.098.01-.125.006-.125-.018s-.028-.03-.112-.024c-.113.008-.41-.066-.436-.108-.008-.012.077-.015.217-.008.217.013.238.01.356-.046a.655.655 0 01.167-.059.17.17 0 00.076-.022c.028-.017.029-.029.005-.067-.025-.04-.021-.048.034-.072l.062-.027-.078-.006a6.522 6.522 0 01-.269-.032c-.22-.03-.303-.063-.168-.065.074-.001.109-.019.196-.1.129-.117.137-.157.03-.137-.046.009-.083.005-.092-.01-.01-.014-.051-.018-.112-.009a.396.396 0 01-.182-.016l-.086-.03.133-.011c.133-.011.133-.011.188-.118.03-.059.051-.11.046-.115a.685.685 0 00-.146.016.448.448 0 01-.178.003c-.04-.017-.04-.018.005-.026.026-.005.053-.026.059-.047a.947.947 0 01.028-.08c.016-.038.009-.04-.095-.026-.134.019-.34-.006-.294-.035a.214.214 0 01.092-.02c.034 0 .079-.02.1-.045.02-.025.046-.045.056-.045.01 0 .035-.015.056-.034.022-.02.065-.055.096-.079.054-.042.054-.044.012-.077a.25.25 0 00-.129-.034c-.06 0-.085-.01-.085-.032 0-.054-.04-.061-.125-.022-.069.033-.096.035-.201.011a.4.4 0 01-.132-.045c-.006-.01.087-.023.207-.03.173-.01.222-.02.24-.051.012-.021.05-.073.086-.114.036-.042.061-.079.057-.083a.365.365 0 00-.23-.047c-.066.013-.081.009-.081-.02 0-.03-.02-.034-.13-.023a.387.387 0 01-.24-.034c-.059-.026-.102-.053-.095-.06a.631.631 0 01.176.01l.164.023.176-.127c.161-.116.171-.128.124-.145a.276.276 0 00-.107-.012c-.031.003-.068-.008-.082-.026-.022-.028-.033-.027-.083.006-.074.048-.17.048-.272 0-.077-.037-.114-.093-.043-.066.105.04.15.042.178.005.023-.032.037-.035.075-.014.033.017.055.018.075.001a2.7 2.7 0 01.124-.091c.053-.037.09-.077.083-.09-.008-.011-.06-.02-.118-.02-.124 0-.296-.061-.296-.105 0-.018.025-.03.065-.03.078 0 .136-.02.136-.047a.473.473 0 00-.128-.1c-.16-.102-.152-.092-.12-.13.021-.026.014-.036-.036-.055-.04-.015-.048-.024-.023-.025a.248.248 0 00.097-.039c.053-.034.055-.04.02-.065-.031-.024-.032-.034-.007-.076.025-.04.024-.05-.008-.069-.024-.013-.033-.038-.025-.069.011-.042.008-.044-.034-.022-.07.038-.135.03-.16-.018-.033-.061-.03-.069.024-.069.039 0 .043-.005.02-.032a.088.088 0 01-.013-.075c.012-.037.004-.04-.079-.028-.067.009-.1.027-.122.068-.028.051-.031.052-.032.01 0-.025.031-.09.07-.143l.072-.096-.067.014c-.058.013-.069.007-.097-.059l-.031-.073-.009.079c-.013.132-.02.14-.088.095-.06-.039-.061-.038-.043.005.038.094.028.112-.06.112-.09 0-.098.011-.057.086.03.054.04.283.012.283a.528.528 0 01-.098-.033c-.111-.047-.12-.043-.12.04 0 .053.013.079.05.095.067.03.078.078.017.078-.08 0-.037.053.058.072.049.01.117.033.151.053a.17.17 0 00.12.021c.04-.01.054-.006.047.015-.007.018-.043.027-.098.025-.21-.008-.378-.032-.421-.058-.04-.024-.062-.022-.142.017-.075.037-.09.053-.069.074a.113.113 0 00.07.027c.024 0 .048.02.054.046.008.028.025.041.044.034.018-.007.056.003.085.022.035.023.058.027.067.01.022-.034.057-.028.044.008-.017.044.045.06.123.034a.251.251 0 01.107-.015c.031.007.023.018-.037.05-.067.035-.088.037-.154.013-.053-.02-.081-.02-.091-.004-.008.013-.075.026-.148.03-.156.008-.176.045-.064.118.16.105.16.105.08.092-.068-.011-.072-.007-.072.056 0 .065-.001.066-.053.032-.048-.031-.055-.03-.082.001-.02.024-.05.031-.087.023-.054-.012-.052-.008.025.062a.555.555 0 00.168.1c.08.025.224.13.205.15-.005.004-.099.026-.21.048-.11.022-.206.044-.212.049-.006.005.044.057.112.118l.123.11h-.151c-.084 0-.151.007-.151.016 0 .01.045.046.1.08a.63.63 0 01.114.085c.007.01-.043.02-.112.02-.096 0-.125-.007-.125-.033 0-.019-.002-.034-.005-.034-.312-.023-.504-.067-.476-.112.022-.036.17-.051.253-.026.095.03.106.023.072-.04-.023-.042-.019-.046.055-.046.088 0 .098-.015.04-.058-.037-.027-.037-.029.005-.045.09-.033.235-.152.235-.192 0-.048-.032-.05-.172-.015-.088.022-.107.02-.128-.009-.02-.028-.062-.032-.227-.023-.175.01-.216.005-.318-.039-.175-.075-.15-.098.086-.08.193.016.204.015.215-.03.008-.03.03-.046.065-.046.062 0 .102-.063.095-.153a.239.239 0 01.034-.126c.022-.034.037-.064.033-.067a1.966 1.966 0 00-.231.046c-.277.065-.265.065-.34-.003l-.063-.057.083.006c.1.007.119-.009.086-.07-.022-.04-.019-.046.021-.046.026 0 .052-.018.058-.04a.55.55 0 01.035-.08c.03-.057.019-.062-.083-.034-.084.023-.466.011-.587-.018-.08-.02-.016-.083.068-.066.078.016.263-.031.263-.067 0-.014-.015-.039-.033-.054-.062-.051-.038-.073.065-.057.085.012.1.009.112-.028.008-.024.064-.074.125-.112.142-.089.147-.142.019-.207a.339.339 0 00-.191-.04c-.095.008-.099.006-.086-.045.011-.046.007-.052-.033-.042-.03.008-.045.002-.045-.02 0-.044-.039-.039-.13.018-.139.086-.413.053-.52-.06l-.052-.056h.15c.082 0 .149-.01.149-.022 0-.013.022-.012.056.004.042.019.068.019.106 0a.57.57 0 01.174-.032c.118-.006.122-.008.117-.065-.004-.036.006-.064.027-.072.02-.007.035-.028.035-.046s.045-.065.1-.103c.056-.038.101-.078.101-.088 0-.025-.125-.069-.194-.069-.037 0-.052-.012-.052-.045 0-.024-.002-.044-.006-.044l-.151.044c-.182.056-.182.056-.158-.007.032-.085.002-.107-.1-.071-.155.055-.266.042-.476-.056-.141-.067-.185-.097-.167-.115.019-.018.049-.016.115.01.082.034.092.034.11.001.015-.027.03-.03.063-.013.023.012.1.029.172.038.14.016.195-.006.195-.079 0-.028.02-.043.062-.048.053-.006.061-.016.061-.08 0-.056.007-.07.033-.06a.754.754 0 00.096.026c.051.01.061.005.061-.035 0-.032.028-.061.09-.093.108-.055.098-.09-.024-.09-.063 0-.088-.009-.088-.033 0-.041-.017-.041-.09 0-.081.047-.112.041-.112-.022 0-.072-.013-.07-.142.01a.36.36 0 01-.364.032c-.1-.041-.233-.136-.233-.167 0-.033.06-.024.09.014.02.023.05.03.091.021.034-.008.068-.003.076.01.008.013.04.024.07.024.043 0 .054-.012.054-.055 0-.076.026-.084.102-.034.086.057.144.056.144 0 0-.038.01-.042.07-.03.063.012.068.009.055-.032-.011-.036-.002-.049.045-.06.039-.01.054-.026.046-.047-.01-.024.011-.037.077-.047.113-.018.112-.076-.001-.103a.74.74 0 01-.127-.044c-.037-.018-.074-.015-.155.012-.1.034-.108.034-.135-.002a.15.15 0 01-.03-.069c0-.02-.017-.024-.048-.014-.03.01-.055.002-.073-.022-.024-.033-.033-.031-.102.019-.133.099-.311.104-.28.008.017-.056-.022-.084-.118-.084-.04 0-.078-.01-.086-.023-.007-.012.002-.022.022-.022.02 0 .042-.015.049-.034.01-.028.021-.026.07.011.065.052.15.061.133.015a.073.073 0 01.005-.057c.012-.02.045-.004.112.052.052.044.1.08.105.08.005 0 .02-.026.031-.058.019-.049.032-.056.086-.044.065.015.25-.043.25-.078 0-.047-.145-.138-.298-.187-.023-.007-.039-.026-.037-.042.01-.078-.001-.089-.08-.074-.097.018-.104-.02-.017-.092.052-.043.057-.055.029-.074a.17.17 0 00-.079-.023c-.064-.001-.11-.035-.09-.067.01-.016.042-.022.08-.014.04.008.071.002.082-.015a.33.33 0 01.08-.068c.052-.033.059-.046.037-.072a.102.102 0 00-.068-.032c-.059 0-.053-.05.014-.112.074-.07.07-.104-.013-.12-.066-.014-.068-.016-.034-.064.04-.058.047-.13.011-.13a.292.292 0 00-.095.055c-.051.038-.082.049-.105.034-.054-.034-.061-.028-.145.123-.08.142-.221.292-.256.27-.023-.014-.048-.323-.032-.387.015-.058.097-.07.097-.014 0 .027.014.033.051.022.028-.008.083-.02.123-.028.114-.02.095-.065-.076-.182-.035-.024-.025-.026.07-.016.062.006.128.002.146-.01.028-.02.022-.033-.04-.082l-.073-.057.056-.045c.105-.082.063-.112-.07-.049-.057.028-.084.03-.103.01-.043-.042-.062-.029-.108.075-.064.145-.097.155-.082.026a.357.357 0 01.078-.189.608.608 0 00.118-.193c0-.007-.024-.012-.054-.012-.033 0-.071.023-.099.06l-.044.062-.016-.127c-.01-.076-.031-.141-.055-.163-.037-.033-.04-.028-.054.07a1.74 1.74 0 00-.013.195v.09l-.074-.07c-.15-.145-.162-.066-.023.143.063.095.075.132.07.213l-.008.098-.04-.127c-.047-.15-.1-.21-.12-.135-.015.058-.033.06-.12.015-.062-.032-.068-.031-.082.003-.008.021.002.064.022.096.081.128.095.166.066.176-.036.012-.036.094 0 .098l.073.006c.025 0 .045.017.045.036 0 .032-.012.032-.106.006-.055-.016-.076.054-.031.103.047.052.046.084-.003.112-.03.017-.072.004-.177-.055a.848.848 0 00-.163-.077c-.04 0-.027.087.021.135.025.024.045.05.045.055 0 .007-.02.012-.045.012-.055 0-.06.063-.006.082.057.02.14.1.14.134 0 .017-.018.03-.04.03a.172.172 0 00-.084.032c-.085.063-.002.095.275.107.064.003.07.01.06.055-.012.046-.006.052.055.052.05 0 .07.011.07.036 0 .028.014.033.062.021.033-.008.069-.027.078-.042.013-.018.027-.013.05.018.05.064.017.079-.17.082-.14.003-.183-.005-.278-.055-.133-.071-.167-.074-.167-.015 0 .025-.005.045-.012.045a1.74 1.74 0 01-.167-.078 1.83 1.83 0 00-.168-.079c-.006 0-.012.025-.012.056 0 .038-.012.056-.038.056a.675.675 0 00-.127.024c-.087.025-.087.025-.042.07.024.024.086.05.138.057.09.012.094.015.08.076-.015.07.02.085.1.042.035-.018.05-.008.09.06.036.06.054.074.074.055a.128.128 0 01.078-.026c.044 0 .049.007.03.042-.02.038-.012.043.082.054.073.008.112.003.128-.018a.425.425 0 01.155-.064.525.525 0 00.185-.083c.029-.028.053-.039.053-.024 0 .014-.026.05-.057.077-.084.074-.326.218-.367.218a.554.554 0 01-.145-.056c-.11-.056-.16-.055-.139.002.015.038-.027.04-.113.008-.05-.02-.067-.017-.088.01-.016.022-.06.036-.115.036-.119 0-.151.039-.107.127.021.043.066.08.123.103.054.021.09.05.09.072 0 .027.012.032.045.022.048-.015.12.026.1.057-.007.01-.067.013-.134.006-.102-.01-.125-.007-.137.025-.008.021-.003.05.01.064.015.014.026.049.026.078v.052l-.1-.059c-.101-.059-.11-.057-.103.018.004.035-.01.038-.12.025-.083-.01-.125-.006-.125.01 0 .033.09.094.14.094.024 0 .04.017.04.043 0 .03.03.054.103.082a.518.518 0 01.134.07c.022.022.042.025.072.008.035-.018.063.002.18.134l.14.155-.06.023c-.151.057-.255.068-.338.034-.113-.048-.164-.044-.164.012 0 .042-.01.045-.099.032-.059-.01-.103-.006-.112.008-.022.036.214.292.27.293.026 0 .06.017.075.035.015.019.054.034.086.034.087 0 .028.045-.078.06a.354.354 0 01-.17-.023c-.008-.003-.01-.002-.016-.005.025-.056.043-.102.038-.107a1.125 1.125 0 00-.246.025c-.13.023-.262.026-.302.008-.069-.03-.068-.033.009-.047.045-.008.09-.043.1-.078a1.6 1.6 0 01.047-.135c.027-.065.014-.068-.162-.044-.107.015-.24.012-.343.001-.006-.009-.02-.01-.037-.005-.092-.013-.152-.033-.116-.056l.009-.003c.017.002.03 0 .034-.012a.415.415 0 01.112-.018.256.256 0 00.17-.076c.035-.042.078-.076.094-.076s.06-.026.095-.058c.037-.033.11-.092.162-.133.092-.072.092-.075.02-.13a.425.425 0 00-.217-.057c-.1 0-.144-.017-.144-.055 0-.091-.069-.104-.21-.036a.651.651 0 01-.065.027c.004-.005.01-.01.01-.014 0-.025-.114-.087-.206-.118l.046-.004c.293-.018.376-.035.406-.087.02-.036.087-.123.147-.193s.102-.133.094-.14a.615.615 0 00-.388-.078c-.11.02-.137.014-.137-.035 0-.051-.034-.057-.22-.038a1.03 1.03 0 01-.158.006c-.012-.013.002-.037.047-.08a.262.262 0 00.036-.041l.084.011.297-.214c.273-.196.29-.216.211-.245a.47.47 0 00-.182-.02c-.053.005-.115-.014-.138-.044-.037-.047-.056-.046-.141.01-.124.08-.289.081-.459 0-.01-.005-.015-.01-.024-.015.054-.062.03-.078-.065-.041-.06-.048-.07-.088.016-.055.177.068.255.07.301.006.039-.052.063-.057.127-.023.056.03.093.03.126.003a4.74 4.74 0 01.21-.154c.09-.063.152-.131.14-.151-.013-.02-.103-.037-.2-.037-.208 0-.5-.102-.5-.175 0-.032.042-.052.11-.052.132 0 .23-.033.23-.078 0-.018-.097-.095-.217-.171-.271-.173-.255-.156-.202-.22.036-.043.025-.06-.061-.092-.068-.025-.082-.04-.038-.041a.425.425 0 00.165-.067c.088-.058.09-.068.033-.11-.054-.04-.056-.058-.013-.128.043-.07.04-.086-.013-.117-.04-.023-.055-.064-.042-.115.019-.071.013-.075-.057-.038-.118.063-.228.05-.272-.032-.055-.102-.05-.115.041-.115.066 0 .072-.01.035-.055a.149.149 0 01-.023-.126c.02-.063.006-.068-.133-.049-.113.016-.169.047-.207.116-.047.086-.052.088-.053.017-.001-.043.052-.151.118-.24l.12-.164-.11.024c-.1.022-.118.011-.166-.1l-.053-.124-.013.133c-.024.224-.036.237-.15.162-.101-.066-.103-.066-.073.008.064.158.048.19-.1.19-.154 0-.167.018-.097.144.05.091.067.48.02.48a.893.893 0 01-.166-.057c-.187-.079-.202-.074-.202.067 0 .09.022.133.082.16.114.052.133.133.031.133-.135 0-.063.09.098.121.081.016.196.057.255.09a.29.29 0 00.202.037c.07-.018.092-.01.08.024-.01.03-.074.047-.165.043-.357-.014-.64-.054-.712-.098-.067-.041-.104-.037-.24.03-.126.06-.152.087-.116.123a.19.19 0 00.117.046c.04 0 .08.034.092.078.013.047.042.07.075.057.03-.011.093.005.142.038.06.039.098.045.115.018.036-.058.096-.049.073.012-.029.074.077.103.209.057a.426.426 0 01.18-.025c.053.011.039.03-.062.084-.112.06-.149.062-.26.022-.09-.032-.137-.034-.154-.007-.014.022-.127.045-.251.052-.263.013-.297.076-.108.2.272.176.271.175.137.154-.116-.018-.123-.013-.123.094 0 .11-.002.112-.089.055-.08-.052-.094-.052-.14.002-.032.04-.082.053-.146.038-.09-.02-.088-.012.043.105a.94.94 0 00.284.171c.133.042.378.219.346.25a3.261 3.261 0 01-.355.083 3.457 3.457 0 00-.36.082c-.01.008.076.098.19.2l.208.185h-.255c-.141 0-.256.013-.256.03 0 .015.077.076.17.135.094.06.18.123.192.142.012.019-.072.034-.19.034-.16 0-.21-.013-.21-.057 0-.03-.004-.057-.009-.057-.527-.037-.85-.114-.804-.19.038-.06.288-.085.428-.043.16.05.179.04.122-.066-.039-.073-.032-.079.092-.079.149 0 .166-.024.067-.097-.062-.046-.061-.05.01-.076.151-.056.397-.257.397-.325 0-.08-.054-.086-.292-.026-.147.037-.18.035-.216-.014-.035-.048-.104-.055-.383-.04-.296.017-.366.009-.538-.065-.295-.127-.254-.166.145-.134.327.025.345.023.364-.052.014-.052.051-.079.11-.079.105 0 .171-.106.16-.259a.402.402 0 01.06-.212c.036-.057.06-.108.054-.114a3.33 3.33 0 00-.39.079c-.47.11-.448.11-.576-.006l-.106-.095.14.009c.17.011.2-.014.145-.117-.036-.069-.03-.08.037-.08.043 0 .087-.03.098-.066a.923.923 0 01.058-.136c.052-.097.033-.105-.14-.057-.142.04-.788.02-.992-.03-.136-.034-.027-.14.114-.111.133.026.446-.053.446-.114 0-.024-.026-.065-.057-.091-.105-.087-.064-.123.11-.097.144.021.17.015.19-.047.013-.04.108-.126.211-.19.24-.149.249-.24.032-.35a.573.573 0 00-.323-.066c-.16.012-.167.009-.145-.077.02-.078.012-.088-.055-.07-.05.013-.077.001-.077-.034 0-.075-.065-.066-.22.03-.234.144-.697.09-.879-.103l-.088-.093h.253c.14 0 .253-.017.253-.037 0-.023.037-.02.094.006.072.032.117.032.18 0a.962.962 0 01.293-.054c.2-.01.208-.014.198-.11-.006-.061.012-.108.048-.121.031-.013.057-.048.057-.079 0-.03.077-.109.17-.173.094-.065.17-.132.17-.15 0-.04-.21-.115-.327-.115-.063 0-.088-.021-.088-.076 0-.041-.005-.075-.01-.075s-.12.034-.255.075c-.308.094-.308.095-.268-.012.055-.144.003-.181-.17-.12-.261.093-.448.07-.803-.096-.239-.111-.313-.163-.282-.194.03-.03.082-.026.194.02.14.055.156.055.186 0 .026-.046.052-.051.106-.023.04.02.17.05.291.064.237.029.329-.009.329-.133 0-.046.034-.072.104-.08.09-.01.104-.029.104-.136 0-.095.013-.118.057-.101.031.012.104.031.16.043.088.017.105.008.105-.059 0-.054.047-.103.153-.157.18-.092.165-.151-.042-.151-.107 0-.149-.016-.149-.057 0-.07-.03-.07-.151 0-.139.08-.19.069-.19-.038 0-.12-.022-.118-.24.02a.61.61 0 01-.616.052c-.17-.07-.392-.23-.392-.281 0-.057.099-.043.152.022.033.04.083.05.153.035.057-.012.115-.004.128.018.014.022.067.04.118.04.072 0 .092-.02.092-.093 0-.128.043-.142.173-.057.145.096.243.095.243 0 0-.064.018-.072.118-.052.106.021.116.016.094-.053-.02-.06-.004-.082.075-.102.066-.016.092-.043.078-.08-.016-.04.019-.061.13-.079.19-.03.189-.127-.003-.173a1.244 1.244 0 01-.214-.074c-.063-.031-.125-.027-.261.02-.168.057-.182.057-.23-.005a.255.255 0 01-.05-.116c-.001-.033-.028-.041-.08-.024-.051.016-.094.004-.123-.037-.041-.055-.057-.053-.172.032-.227.167-.527.177-.475.015.03-.095-.036-.143-.2-.143-.066 0-.13-.018-.143-.039-.013-.02.003-.037.036-.037.033 0 .07-.026.082-.057.019-.047.037-.045.118.019.11.087.255.103.225.025a.124.124 0 01.01-.097c.02-.032.075-.006.188.089.089.073.169.134.178.134.009 0 .033-.044.053-.097.031-.083.053-.094.145-.074.11.024.421-.074.421-.132 0-.08-.243-.234-.503-.317-.037-.012-.065-.044-.062-.07.018-.132-.002-.15-.134-.126-.165.03-.177-.033-.029-.156.088-.072.095-.091.047-.124a.287.287 0 00-.132-.039c-.108-.001-.185-.06-.152-.113.017-.028.071-.037.136-.024.066.013.12.003.137-.026a.56.56 0 01.137-.115c.086-.055.098-.078.061-.122a.17.17 0 00-.115-.054c-.1 0-.09-.084.023-.19.125-.117.12-.174-.021-.202-.112-.023-.114-.026-.057-.108.068-.097.078-.219.018-.219a.494.494 0 00-.161.093c-.086.065-.138.082-.178.057-.09-.058-.102-.048-.245.207-.134.24-.373.494-.431.459-.04-.025-.083-.547-.055-.656.026-.098.165-.117.165-.023 0 .046.022.055.085.036.047-.013.14-.035.208-.047.192-.035.16-.11-.128-.306-.06-.04-.042-.045.119-.028.104.01.214.003.246-.018.047-.032.036-.055-.068-.137l-.123-.098.095-.075c.177-.14.106-.19-.118-.083-.098.046-.142.051-.174.02-.073-.073-.106-.052-.183.124-.108.245-.164.262-.14.043a.603.603 0 01.132-.318c.11-.137.2-.284.2-.326 0-.012-.04-.022-.091-.022-.056 0-.12.04-.166.104l-.076.103-.026-.215c-.016-.128-.054-.238-.094-.274-.062-.056-.068-.049-.09.117a2.96 2.96 0 00-.025.33v.153l-.124-.12c-.252-.245-.273-.112-.038.242.108.161.127.223.117.36l-.012.166-.068-.215c-.08-.254-.169-.354-.202-.227-.026.098-.056.101-.205.024-.103-.053-.114-.053-.137.006-.013.035.004.108.038.162.137.217.16.28.111.297-.061.02-.06.159 0 .166.027.003.082.008.124.01.041.002.075.03.075.06 0 .054-.02.055-.18.01-.092-.026-.127.091-.051.174.079.088.077.144-.006.19-.05.03-.121.007-.299-.092a1.44 1.44 0 00-.274-.13c-.069 0-.046.146.034.227a.34.34 0 01.076.094c0 .01-.034.02-.076.02-.093 0-.1.106-.01.138.097.034.237.169.237.227 0 .028-.03.05-.068.05a.29.29 0 00-.142.055c-.143.105-.003.16.465.18.108.005.12.016.1.094-.02.078-.009.088.095.088.083 0 .118.018.118.06 0 .048.023.056.103.035.058-.014.118-.045.134-.07.02-.031.046-.023.086.03.082.107.027.134-.288.14-.24.004-.311-.01-.47-.095-.226-.12-.284-.125-.284-.025 0 .042-.009.076-.02.076-.01 0-.138-.06-.283-.133a3.035 3.035 0 00-.283-.132c-.01 0-.02.043-.02.095 0 .065-.02.095-.066.095a1.13 1.13 0 00-.213.04c-.147.041-.147.042-.072.117a.48.48 0 00.234.097c.152.02.158.026.135.13-.026.118.035.143.17.07.059-.031.084-.014.152.1.06.104.092.127.124.094a.215.215 0 01.132-.043c.075 0 .082.01.05.07-.034.064-.02.074.14.092.122.014.188.005.216-.03.021-.029.139-.077.261-.108a.884.884 0 00.312-.142c.05-.046.09-.064.09-.04 0 .025-.043.083-.096.13-.142.125-.552.369-.62.369a.93.93 0 01-.244-.095c-.187-.094-.272-.093-.235.004.024.063-.047.068-.192.012-.084-.032-.114-.028-.148.02-.027.036-.101.059-.195.059-.2 0-.256.065-.18.215a.385.385 0 00.207.173c.092.036.152.084.152.122 0 .045.02.055.077.037.081-.025.2.044.168.097-.01.017-.112.022-.226.01-.172-.018-.21-.011-.232.043-.013.035-.005.084.019.107.023.024.042.083.042.131v.09l-.17-.1c-.169-.1-.185-.097-.172.03.006.06-.017.064-.204.042-.14-.016-.21-.011-.21.016 0 .056.152.159.235.159.041 0 .068.029.068.073 0 .051.05.092.174.139.096.037.197.09.226.118.037.038.071.042.122.015.06-.032.108.003.307.225l.235.263-.102.039c-.255.097-.43.114-.57.056-.192-.08-.28-.074-.28.02 0 .072-.015.077-.165.054-.1-.015-.175-.01-.19.014-.037.06.362.495.456.497.044 0 .101.026.127.057.026.032.091.057.145.057.148 0 .047.078-.132.102a.597.597 0 01-.287-.038c-.12-.05-.144-.05-.183-.004-.024.03-.102.054-.172.054-.07 0-.128.009-.128.02 0 .01.07.088.155.173.099.098.18.148.221.137.041-.01.114.03.19.109.178.182.243.191.408.056.136-.112.313-.156.313-.078 0 .02-.044.037-.097.037-.088 0-.094.01-.072.127.023.122.017.129-.16.204-.263.112-.46.16-.659.16-.148 0-.18.015-.216.095-.04.09-.104.118-.31.141-.16.018-.103.1.127.182.159.056.069.14-.166.157-.197.013-.218.002-.14-.078.038-.039.028-.046-.048-.036-.065.009-.09-.004-.083-.04.012-.055-.015-.05-.276.049-.083.032-.22.058-.306.06a1.194 1.194 0 01-.466-.107c.067-.018.115-.037.111-.056-.005-.03.038-.06.096-.07.068 0 .115-.008.13-.033.026-.041.05-.042.137-.003.09.041.112.04.152-.015.031-.043.091-.06.19-.054.272.016.325.004.306-.071-.011-.042.01-.088.052-.115.039-.024.07-.066.07-.093 0-.027.069-.088.152-.135.083-.046.151-.098.151-.115s-.08-.052-.18-.079a.573.573 0 01-.223-.102c-.034-.042-.076-.046-.19-.017-.373.094-.353.096-.327-.037.024-.12.024-.12-.105-.091a3.655 3.655 0 01-.303.057.196.196 0 00-.034-.08c-.047-.076-.043-.1.033-.138.157.01.178 0 .225-.096.042-.086.07-.103.143-.084.084.02.091.011.091-.112 0-.121.007-.13.073-.095.118.063.23.048.23-.031 0-.047.051-.09.155-.13.185-.074.164-.14-.044-.14-.108 0-.15-.016-.15-.058 0-.051-.012-.051-.116.003-.13.067-.224.05-.224-.038 0-.082-.07-.071-.246.037a.645.645 0 01-.27.093c-.055 0-.134-.015-.218-.036.099-.12.067-.158-.102-.126-.1.018-.18.01-.199-.022-.013-.021-.065-.027-.132-.026-.006-.006-.02-.012-.024-.017-.085-.093-.05-.14.066-.086.106.05.476.118.501.093.01-.01.02-.05.02-.089 0-.084.067-.087.212-.012.138.072.203.072.203 0 0-.038.039-.057.118-.057.09 0 .112-.013.095-.058-.014-.035.004-.067.043-.081a.475.475 0 00.122-.071.353.353 0 01.152-.06c.155-.022.14-.133-.022-.163a.75.75 0 01-.205-.067c-.062-.04-.24-.013-.42.062-.04.017-.072-.005-.102-.07-.03-.066-.074-.097-.136-.097-.051 0-.1-.02-.107-.045-.01-.031-.067-.02-.186.038-.204.099-.564.12-.488.028.071-.087.017-.127-.208-.155l-.034-.007c.022-.054.017-.072-.044-.072.015-.005.03-.008.044-.016.077-.041.102-.039.16.015.101.09.191.077.219-.032.03-.121.054-.12.186.019.123.128.188.142.239.05.025-.044.093-.063.238-.068.193-.006.374-.067.374-.126 0-.045-.237-.175-.398-.219-.107-.029-.154-.064-.162-.119-.014-.094-.133-.132-.26-.083-.21.08-.184-.027.034-.14.142-.073.117-.142-.06-.166-.165-.022-.185-.086-.035-.114.058-.01.168-.052.245-.091.117-.06.134-.083.103-.141a.141.141 0 00-.112-.07c-.1 0-.093-.044.02-.151.123-.115.122-.19-.004-.19-.079 0-.093-.012-.07-.065.065-.16.065-.2-.003-.2-.038 0-.106.035-.15.078-.068.063-.1.07-.184.038-.095-.036-.108-.027-.217.15-.123.2-.401.464-.467.442-.01-.003-.023-.037-.035-.086.033-.043.053-.074.089-.116.077-.09.131-.17.121-.179a.637.637 0 00-.252-.093c0-.076.01-.123.046-.15.055-.04.074-.037.112.014.04.056.067.057.238.013.225-.058.241-.136.048-.22-.16-.072-.157-.118.008-.091a.71.71 0 00.234-.005l.105-.026-.123-.078-.124-.078.085-.09c.112-.12.068-.15-.112-.078-.132.053-.153.053-.205 0-.053-.052-.068-.04-.16.117-.057.096-.127.174-.157.174-.09 0-.02-.186.161-.43a1.35 1.35 0 00.165-.255c0-.06-.117-.036-.22.044-.094.074-.1.075-.126.01a.69.69 0 01-.03-.19c-.001-.079-.028-.136-.073-.16-.035-.019-.053-.015-.067.012a.771.771 0 00-.216-.026c-.268 0-.643-.131-.643-.225 0-.04.055-.067.142-.067.17 0 .296-.043.296-.1 0-.023-.126-.122-.28-.22-.348-.22-.328-.199-.26-.28.047-.057.032-.08-.078-.12-.087-.031-.105-.05-.049-.053a.544.544 0 00.212-.086c.113-.074.117-.087.043-.141-.07-.05-.071-.075-.017-.164.055-.09.053-.11-.016-.15-.052-.03-.071-.082-.054-.149.024-.09.015-.096-.074-.048-.152.081-.292.065-.349-.04-.07-.132-.064-.149.053-.149.085 0 .092-.013.044-.07a.191.191 0 01-.03-.162c.026-.081.009-.088-.17-.063-.145.02-.216.06-.265.15-.061.11-.068.112-.07.021 0-.055.068-.194.153-.31l.155-.21-.144.032c-.127.028-.15.015-.211-.127l-.068-.16-.018.17c-.03.288-.045.305-.193.209-.129-.085-.131-.085-.093.01.083.203.062.243-.129.243-.197 0-.212.023-.123.185.065.117.085.616.025.616-.021 0-.117-.032-.213-.072-.24-.101-.26-.095-.26.085 0 .116.029.172.107.207.146.066.17.17.04.17-.175 0-.082.115.125.155.104.02.252.073.327.115a.372.372 0 00.26.047c.089-.022.117-.013.101.032-.013.039-.093.06-.211.055-.458-.019-.82-.069-.914-.126-.086-.053-.133-.047-.308.038-.161.078-.194.113-.148.159.032.032.1.058.15.058.052 0 .104.044.118.1.016.061.053.09.095.074.038-.015.12.007.184.048.076.05.125.058.146.024.047-.075.124-.063.094.015-.036.096.099.132.268.073a.545.545 0 01.232-.031c.068.014.05.038-.08.107-.144.076-.19.08-.334.029-.114-.042-.176-.044-.198-.01-.017.029-.162.058-.322.066-.338.018-.38.098-.138.256.35.228.348.227.176.2-.149-.024-.158-.016-.158.12 0 .143-.003.144-.115.07-.103-.067-.12-.067-.178.003-.042.05-.107.068-.189.05-.116-.026-.112-.017.056.134.1.09.263.188.364.22.17.053.484.28.444.322-.01.01-.215.057-.455.104-.24.048-.448.096-.461.106-.014.01.096.126.243.257l.267.237-.328.001c-.18 0-.328.017-.328.037 0 .02.098.098.218.174.12.076.231.158.246.182.015.025-.093.045-.243.045-.207 0-.27-.017-.27-.073 0-.04-.005-.074-.012-.074-.677-.048-1.092-.146-1.032-.242.049-.079.37-.112.55-.057.205.063.229.05.157-.085-.05-.093-.042-.1.117-.1.191 0 .213-.033.087-.126-.08-.059-.08-.064.012-.098.194-.072.51-.33.51-.417 0-.103-.07-.11-.375-.033-.189.048-.231.045-.278-.018-.044-.062-.133-.07-.491-.05-.38.021-.47.01-.691-.085-.38-.163-.325-.212.187-.172.42.033.442.03.467-.067.017-.066.066-.1.14-.1.136 0 .22-.138.206-.333a.516.516 0 01.076-.273c.048-.072.08-.138.07-.145a4.217 4.217 0 00-.502.1c-.601.14-.573.141-.737-.007l-.137-.123.18.012c.217.015.258-.018.187-.15-.047-.088-.04-.102.046-.102.055 0 .112-.038.127-.085.014-.047.047-.125.074-.175.067-.123.041-.134-.18-.073-.182.05-1.011.025-1.273-.04-.174-.042-.035-.178.146-.142.171.034.572-.068.572-.145 0-.031-.033-.084-.073-.117-.134-.112-.081-.158.141-.125.185.028.22.02.245-.061.016-.051.138-.16.27-.243.308-.191.319-.308.041-.45a.735.735 0 00-.415-.085c-.204.017-.213.012-.185-.099.025-.099.015-.112-.07-.09-.066.017-.1.003-.1-.042 0-.097-.083-.085-.283.039-.3.185-.894.115-1.127-.133l-.113-.12h.324c.18 0 .325-.021.325-.048 0-.029.047-.026.121.008.092.042.15.042.231 0 .06-.03.23-.061.376-.069.257-.012.267-.018.254-.14-.008-.08.015-.14.061-.157.04-.016.074-.06.074-.1 0-.04.098-.14.218-.223.12-.082.219-.17.219-.192 0-.053-.27-.148-.42-.148-.082 0-.114-.028-.114-.097 0-.054-.006-.097-.013-.097-.006 0-.154.044-.327.097-.396.12-.396.12-.343-.016.07-.185.003-.233-.218-.154-.336.12-.576.09-1.032-.123-.306-.144-.403-.21-.363-.249.04-.04.106-.034.25.024.18.071.2.071.24 0 .032-.057.065-.064.134-.028.051.026.22.063.375.082.303.037.422-.011.422-.17 0-.06.043-.093.134-.104.115-.013.133-.037.133-.174 0-.122.017-.152.073-.13.04.015.133.04.207.055.112.023.133.01.133-.075 0-.07.061-.133.196-.202.233-.119.212-.194-.053-.194-.138 0-.191-.02-.191-.073 0-.089-.038-.089-.194 0-.178.102-.243.089-.243-.048 0-.155-.03-.153-.308.024a.784.784 0 01-.792.068c-.219-.09-.504-.295-.504-.362 0-.073.128-.054.196.029.042.05.106.065.196.046.074-.017.148-.006.165.022.018.028.085.05.15.05.094 0 .119-.024.119-.117 0-.165.055-.183.222-.074.186.123.313.122.313 0 0-.082.022-.092.15-.066.136.027.15.02.121-.069-.025-.078-.005-.105.096-.13.085-.022.118-.056.1-.103-.02-.052.025-.079.168-.102.244-.039.242-.163-.004-.223a1.6 1.6 0 01-.275-.094c-.08-.04-.16-.034-.335.025-.215.074-.234.073-.294-.006a.328.328 0 01-.066-.148c-.001-.043-.035-.053-.102-.032-.066.02-.12.005-.159-.047-.052-.071-.073-.067-.22.042-.292.214-.677.226-.61.018.038-.122-.046-.183-.256-.184-.085 0-.168-.022-.185-.049-.016-.026.005-.048.047-.048.043 0 .09-.033.106-.073.023-.06.047-.057.15.025.142.111.328.131.29.031a.159.159 0 01.011-.124c.026-.042.097-.008.243.114.114.095.216.172.228.172.011 0 .042-.056.068-.125.04-.106.069-.12.187-.095.14.031.54-.094.54-.17 0-.101-.313-.298-.646-.406-.048-.015-.083-.056-.079-.09.022-.17-.003-.193-.173-.162-.212.04-.227-.043-.037-.2.113-.092.122-.117.06-.159a.369.369 0 00-.17-.05c-.138-.002-.236-.076-.193-.145.022-.036.09-.048.174-.032.085.017.153.005.176-.032.021-.033.1-.1.175-.148.11-.07.126-.1.08-.156a.22.22 0 00-.15-.07c-.127 0-.114-.108.03-.243.161-.151.154-.224-.027-.26-.143-.03-.146-.034-.073-.139.087-.124.1-.281.024-.281-.028 0-.122.053-.207.119-.11.084-.177.106-.228.074-.116-.074-.132-.061-.315.266-.173.309-.48.634-.554.588-.05-.031-.106-.702-.07-.842.033-.125.212-.15.212-.03 0 .059.027.071.109.048.06-.018.18-.046.267-.061.246-.045.206-.142-.164-.394-.077-.052-.054-.057.152-.035.134.014.276.003.316-.024.06-.04.047-.07-.086-.175l-.16-.126.123-.096c.228-.18.136-.244-.152-.107-.126.06-.182.066-.223.024-.093-.093-.135-.064-.235.162-.139.313-.21.335-.179.054a.775.775 0 01.17-.408c.14-.176.256-.364.256-.418 0-.016-.053-.028-.117-.028-.072 0-.155.051-.214.132l-.096.133-.035-.276c-.02-.164-.069-.306-.12-.352a.237.237 0 00-.047-.037zm-.32 1.875c.015-.005.06.05.121.172.056.11.084.2.061.2-.022 0-.078-.08-.124-.177-.059-.123-.074-.19-.058-.195zm-.142.711c.059 0 .26.157.285.222.034.09.003.088-.17-.014-.12-.07-.196-.208-.115-.208zm.886.682c.128.001.13.005.039.073-.12.091-.173.09-.173 0v-.001c0-.048.047-.073.134-.072zm.258.533c.025 0 .045.022.045.049 0 .026-.034.048-.075.048-.042 0-.063-.022-.046-.048.016-.027.05-.049.076-.049zm.215.097c.04 0 .073.022.073.049 0 .026-.033.048-.073.048-.04 0-.073-.022-.073-.048 0-.027.033-.049.073-.049zm-8.512.256c.063.02.198.328.144.326-.02-.001-.073-.08-.117-.173-.046-.1-.058-.163-.027-.153zm-.186.642c.04-.008.148.04.232.113.047.04.086.094.086.119 0 .056-.308-.133-.332-.204-.005-.017 0-.026.014-.028zm8.212.26c.008-.004.013.035.013.105 0 .094-.01.132-.022.085a.399.399 0 010-.17c.003-.011.006-.018.009-.02zm-6.872.105c.029 0 .039.022.022.049-.016.026-.04.048-.052.048-.011 0-.02-.022-.02-.048a.05.05 0 01.05-.049zm-.44.2a.29.29 0 01.083.007c.074.018.07.03-.034.074-.157.069-.194.07-.194.01 0-.05.066-.087.146-.091zm5.971.548c.026-.003.042.01.058.036.05.081.008.125-.15.153-.3.054-.434.036-.488-.066-.076-.143-.036-.159.163-.064.164.078.18.078.304-.003a.315.315 0 01.113-.056zm-5.947 1.041c.009-.008.015.022.015.082.001.08-.009.119-.022.086a.278.278 0 01-.001-.146.06.06 0 01.008-.022zm-1.98.749a.263.263 0 01.045.018c.049.023.237.037.418.03.18-.006.327 0 .327.014 0 .065-.242.116-.51.107-.242-.008-.293-.026-.308-.102-.01-.056-.005-.076.029-.067zm15.978 1.515a.025.025 0 01.019.004c.027.017.049.074.049.127 0 .054-.022.084-.049.068-.027-.017-.049-.074-.049-.128 0-.04.013-.067.03-.07zm.263.482h.219c.264 0 .276.06.064.3-.172.197-.21.182-.253-.101zm-8.807 1.09c.019 0 .039.003.06.009l.123.032-.122.079c-.067.044-.297.127-.51.186l-.455.126c-.103.028.021.15.191.187.28.061.134.11-.501.166-.354.032-.699.064-.765.072-.268.032-.37.025-.483-.033-.202-.103-.176-.172.055-.146.184.02.215.008.258-.091a.217.217 0 01.185-.13c.075-.009.148-.047.162-.085.015-.038.053-.07.083-.07.031 0 .078-.049.104-.109.065-.148.267-.178.267-.04 0 .118.015.122.153.04.082-.048.107-.048.125 0 .012.034.097.061.189.061.13 0 .179-.026.222-.122.052-.114.061-.116.144-.041.07.062.103.067.158.022.053-.045.077-.045.105 0 .025.04.058.03.113-.039.043-.053.084-.076.14-.074zm16.078.175c.012-.004.047.039.095.134.043.085.065.155.047.155-.017 0-.06-.062-.096-.138-.046-.096-.058-.147-.046-.151zm-6.613.156c.025-.001.054.023.11.07.062.05.099.116.082.143-.038.061-.365.067-.365.007 0-.024.038-.089.085-.144.042-.05.063-.075.088-.076zm-.295.02c.043 0 .065.022.049.05-.017.026-.039.048-.049.048-.01 0-.032-.022-.048-.049-.017-.027.005-.048.048-.048zm6.798.377c.046 0 .202.122.221.173.028.07.003.069-.131-.01-.094-.056-.153-.163-.09-.163zm-5.406.058l-.002.006a2.67 2.67 0 00-.023.287v.113l-.13-.1a.816.816 0 00-.13-.084c.053-.04.098-.074.17-.126a.893.893 0 00.115-.096zm-13.722.214c.13.001.34.067.384.137.036.059-.441.034-.501-.026-.018-.018-.007-.057.024-.088.016-.016.05-.023.093-.023zm13.083.05c.024-.005.053.005.094.027.07.038.119.039.161.003l.035-.026a.92.92 0 00.095.15c-.036-.032-.068-.023-.158.036-.16.104-.37.105-.59 0-.167-.08-.247-.2-.094-.141.228.087.328.09.388.008.025-.034.045-.053.07-.057zm-2.168.053c.01-.005.027-.003.051.007.042.016.077.05.077.077 0 .063-.11.024-.135-.049-.006-.018-.003-.03.007-.035zm8.903.156c.1.001.1.004.03.057-.093.071-.135.07-.135 0v-.001c0-.037.037-.056.105-.056zm-6.144.335c.013.051.017.096.003.12-.029.046-.059.028-.093-.055l.047-.034c.018-.013.026-.02.043-.031zm6.344.08c.02 0 .036.017.036.038 0 .02-.027.038-.06.038-.032 0-.048-.017-.035-.038.013-.02.04-.038.06-.038zm-19.103.013a.832.832 0 01.134.028c.12.033.208.034.27 0 .098-.052.153-.025.153.075 0 .055-.101.086-.347.109-.044.004-.131-.035-.194-.086-.113-.091-.115-.135-.016-.126zm19.272.063c.03 0 .056.017.056.038 0 .02-.025.038-.056.038-.032 0-.057-.017-.057-.038 0-.02.025-.038.057-.038zm-7.551.074c.069.004.16.014.259.027l.238.033c0 .008-.004.014-.004.022 0 .068.018.077.115.063.1-.015.156.014.14.058-.041.001-.07-.001-.146.007-.041.004-.074.005-.108.007l-.021.001a.792.792 0 01-.39-.083c-.128-.057-.222-.116-.207-.13.008-.008.054-.01.124-.005zm-10.479.033c.024 0 .044.033.044.073 0 .047.048.074.133.074.074 0 .243.03.377.065.222.058.234.067.14.119-.137.073-.742.245-.88.25-.073.001-.1-.019-.081-.066a.19.19 0 01.096-.096c.038-.015.069-.08.069-.146 0-.15.046-.273.102-.273zm11.4.092c.031.01.082.108.106.18-.02.003-.035.003-.05.004-.012-.02-.024-.04-.035-.064-.036-.078-.045-.128-.021-.12zm6.25.704c.007-.004.011.026.011.08 0 .074-.007.104-.017.067a.313.313 0 010-.132c.002-.01.005-.014.007-.015zm-5.351.08c.022 0 .03.018.016.039-.013.02-.03.038-.04.038-.009 0-.016-.017-.016-.038a.04.04 0 01.04-.038zm-.343.156a.228.228 0 01.064.007c.058.013.054.022-.026.057-.123.053-.152.054-.152.007 0-.04.052-.067.114-.07zm4.65.428c.02-.003.033.007.045.028.04.063.006.096-.116.118-.234.042-.338.028-.38-.051-.06-.111-.028-.123.127-.05.127.061.14.062.236-.001a.246.246 0 01.088-.044zm-16.963.242c.157-.001.214.066.097.113-.104.042-.418.034-.446-.011-.032-.052.135-.102.35-.102zm11.8.196c.033 0 .02.021-.02.053-.038-.008-.077-.015-.094-.025.038-.009.101-.028.114-.028zm.563.052c.007-.002.016.001.027.007l-.035.004c.002-.004.003-.01.008-.01zm-3.213.049c.017-.001.036.001.054.008.038.016.027.028-.03.03-.051.002-.08-.009-.064-.025.008-.008.023-.013.04-.013zm-.603.069c.476-.003.588.039.256.095-.186.031-.193.039-.12.12.074.081.046.089-.557.147-.349.033-.645.078-.658.1-.014.022.014.062.061.089.08.045.077.056-.033.136-.244.178-.293.179-.974.007-.399-.099-.884-.321-.913-.417-.025-.083.199-.078.496.012.156.048.446.073.84.073.565 0 .61-.007.715-.113.186-.185.4-.246.887-.25zm3.792.226c.002.011.004.02.005.04l-.002.025c-.006-.001-.015-.001-.019-.003l-.005-.003a.24.24 0 01.005-.053c.007-.001.004-.002.012-.004l.004-.002zm-4.532.621c.081 0 .136.07.09.115-.058.058-.16.031-.16-.042 0-.04.031-.073.07-.073zm-9.097.147c.05.006.088.04.088.096 0 .105-.017.111-.184.066-.087-.023-.099-.043-.055-.096a.173.173 0 01.151-.066zm10.011.05a.36.36 0 01.182.046c.054.035.026.048-.11.048-.1 0-.182-.021-.182-.048 0-.03.05-.046.11-.046zm-9.569.06a.256.256 0 01.138.065c.097.088.101.088.165 0 .078-.106.314-.073.314.044 0 .078-.219.095-.547.04-.189-.03-.237-.096-.107-.146a.086.086 0 01.037-.004zm8.652.57c.228 0 .563.15.564.253 0 .045-.276.125-.452.13a.671.671 0 01-.273-.066c-.294-.152-.21-.318.161-.318zm-16 .027a.12.12 0 01.073.023c.114.095.08.144-.1.144-.094 0-.17-.021-.17-.047 0-.067.11-.123.196-.12zm.433.005c.102-.005.21.051.17.116-.033.054-.362.063-.362.009 0-.02.044-.065.098-.098a.194.194 0 01.094-.027zm14.958.169c.02-.003.042.01.075.037.105.087.099.15-.016.15-.052 0-.108.022-.125.049-.016.027-.094.049-.172.049-.113 0-.143-.022-.143-.103 0-.086.02-.097.126-.07.091.022.144.007.19-.054.026-.036.044-.055.065-.058zm16.054.094c.02.013.038.057.038.1 0 .04-.017.064-.038.051-.021-.013-.038-.057-.038-.098 0-.042.017-.066.038-.053zm-16.943.006c.038-.012.152.04.42.171.285.14.369.203.35.264-.013.045 0 .095.027.112.05.032.071.123.027.123-.012 0-.16-.052-.33-.115-.47-.177-.812-.365-.812-.444 0-.09.046-.09.167.002.13.098.185.089.149-.026-.016-.05-.021-.08.002-.087zm17.134.366h.169c.206 0 .216.046.05.234-.134.153-.163.141-.196-.079zm-6.9.854a.153.153 0 01.087.002l.095.025-.095.062c-.052.034-.23.099-.397.145l-.355.097c-.08.023.016.118.149.147.217.047.104.085-.39.129-.276.024-.545.05-.597.056-.208.024-.287.02-.375-.026-.157-.08-.137-.134.043-.114.143.015.167.007.2-.07a.17.17 0 01.144-.101c.059-.007.116-.037.127-.067.012-.03.04-.054.065-.054.024 0 .06-.038.08-.085.051-.115.208-.139.208-.031 0 .091.012.094.12.03.063-.037.083-.037.096 0 .01.027.076.048.148.048.102 0 .14-.02.173-.095.04-.089.047-.09.112-.032.054.049.08.052.123.017.042-.035.06-.035.082 0 .02.032.045.023.088-.03a.149.149 0 01.069-.053zm10.217.215c.007-.003.028.023.056.079.026.05.039.092.028.092-.01 0-.036-.037-.057-.081-.027-.057-.034-.088-.027-.09zm-2.805.038c.02 0 .041.017.085.054.048.04.077.09.064.112-.03.047-.284.052-.284.005 0-.018.03-.068.066-.112.033-.039.05-.058.069-.06zm-.23.016c.034 0 .05.017.038.038-.013.02-.03.037-.038.037s-.025-.017-.038-.037c-.012-.021.004-.038.038-.038zm-31.477.104c.026 0 .035.022.018.049-.016.026-.052.048-.079.048-.027 0-.035-.022-.018-.048.016-.027.052-.049.079-.049zm34.447.17c.027 0 .12.071.131.101.016.042.002.041-.078-.006-.055-.033-.09-.096-.053-.096zm-12.574.231c.101.001.265.052.299.107.028.045-.343.026-.39-.021-.014-.014-.006-.044.018-.068.013-.013.04-.018.073-.018zm8.501.08c.008-.003.022-.002.04.006.033.012.06.04.06.06 0 .05-.086.018-.105-.039-.004-.014-.002-.022.005-.026zm4.48.002c.06 0 .06.003.019.034-.056.042-.08.041-.08 0 0-.023.022-.034.062-.034zm.12.246c.011 0 .02.01.02.023 0 .012-.015.022-.034.022-.019 0-.029-.01-.021-.022.008-.013.023-.023.035-.023zm-24.707.007c.022-.007.064.012.147.05.116.053.124.074.095.28-.029.214-.111.58-.132.59-.006.004-.273.033-.594.066-.727.076-1.14.089-1.051.033a.219.219 0 01.15-.02c.052.013.13-.032.202-.117.087-.104.158-.138.284-.137.145 0 .182-.025.278-.194.061-.107.112-.166.112-.133.001.1.142.069.32-.073.101-.08.167-.176.167-.243 0-.063 0-.095.022-.102zm24.806.038c.019 0 .034.01.034.022 0 .012-.015.023-.034.023-.018 0-.033-.01-.033-.023 0-.012.015-.022.033-.022zm-12.487.162c.026.003.06.01.104.022.094.026.163.026.21 0 .077-.04.12-.02.12.058 0 .043-.08.067-.27.085-.035.003-.103-.027-.152-.067-.087-.07-.09-.105-.012-.098zm-4.874.036c.042 0 .054.04.054.112-.073.004-.156.01-.258.018.033-.023.081-.053.087-.064a.15.15 0 01.117-.066zm-18.153.048c.025 0 .046.022.046.049 0 .026-.034.048-.076.048-.041 0-.062-.022-.046-.048.017-.027.051-.049.076-.049zm32.125.024a.767.767 0 01-.029.039c-.026-.017-.042-.031-.036-.036.004-.004.037-.003.065-.003zm-8.13.025c.018 0 .033.025.033.057 0 .036.037.057.104.057.057 0 .19.023.294.05.173.045.182.053.108.093a3.263 3.263 0 01-.685.194c-.057.002-.077-.014-.063-.05a.149.149 0 01.075-.076c.03-.011.054-.062.054-.113 0-.117.035-.212.08-.212zm-12.106.14c.038-.017.116.039.244.164.127.123.305.243.399.268.141.038.105.044-.217.04l-.386-.005-.04-.192c-.035-.167-.037-.257 0-.275zm23.404.103a.209.209 0 01.003.044c0 .043-.004.06-.01.039a.183.183 0 010-.078c.003-.011.005-.012.007-.005zm-20.093.005c.037.002.1.04.19.116.17.143.23.151.294.038.043-.078.058-.079.21-.006.17.081.64.072.75-.015.035-.028.066-.015.086.039.03.076.039.076.11.005.05-.05.076-.064.123-.043l-.008.01c-.047.05-.07.099-.053.108.09.05.399.111.468.093.056-.015.074-.006.06.03-.002.005.002.009.001.013l-.672.064c-.684.064-2.064.057-2.672-.013-.259-.03-.268-.037-.283-.19-.017-.173-.002-.183.145-.105.072.039.114.039.153 0 .085-.085.214-.06.241.045.018.066.067.097.152.097.07 0 .174.027.23.06.083.049.107.05.125.001.014-.039.066-.05.145-.03.145.037.218-.051.177-.213-.018-.071-.008-.106.028-.104zm-10.619.059c.015-.015.12.052.234.15.114.097.295.199.403.226.108.028.26.07.338.095.094.03.164.028.206-.007.037-.03.209-.046.416-.036.353.017.354.017.37-.114.013-.118.026-.126.134-.085.083.031.15.027.218-.015.084-.052.11-.045.184.052.065.087.114.106.21.082.09-.023.132-.01.155.05.025.067.045.071.103.023a.223.223 0 01.177-.033c.095.025.474-.026.686-.093.057-.018.084 0 .084.055 0 .06.023.071.086.043.136-.06.414-.05.436.016.015.042-.037.061-.165.061-.21 0-.943.132-.985.177-.015.017-.736.016-1.603 0-1.166-.022-1.584-.045-1.612-.089-.049-.08-.109-.524-.075-.558zm30.091.325c.012-.002.02.004.027.016.023.038.003.058-.07.07-.137.025-.199.017-.224-.03-.035-.066-.017-.073.075-.03.076.037.083.037.14 0a.144.144 0 01.052-.026zm-10.956.693c.122 0 .166.05.076.088-.082.032-.326.026-.348-.009-.025-.04.105-.079.272-.08zm6.513.291c-.014.014.009.038.08.07.049.022.089.054.089.07 0 .017.028.035.061.042.01.002.028.011.042.016 0 .031-.098.043-.456.078-.271.026-.502.061-.513.078-.01.017.011.048.048.07.062.035.06.043-.026.105-.19.139-.228.14-.758.006-.31-.077-.689-.25-.711-.326-.02-.064.155-.06.386.01.121.037.348.057.655.057.44 0 .474-.006.556-.088.123-.124.273-.174.547-.188zm3.485.498c.027.018.05.028.064.025.024-.007.067.018.112.064.106.108.144.113.241.033.08-.067.185-.092.185-.046 0 .012-.026.022-.057.022-.052 0-.056.006-.043.075.013.068.005.077-.083.115.053-.075.027-.1-.093-.078-.078.014-.14.008-.154-.017-.016-.025-.088-.031-.19-.016a.68.68 0 01-.181 0 .35.35 0 00-.089-.035.393.393 0 01-.114-.049l.155-.013c.154-.013.202-.02.247-.08zm4.677.043c.012.007.023.033.023.058s-.01.039-.023.031c-.012-.008-.022-.034-.022-.058 0-.025.01-.039.022-.031zm-8.594.113c.063 0 .105.054.07.09-.045.045-.124.023-.125-.033 0-.031.025-.057.055-.057zm8.707.107h.1c.122 0 .128.027.03.138-.08.09-.097.084-.116-.047zm-15.792.007c.038.005.067.031.067.075 0 .082-.012.087-.142.052-.068-.018-.077-.034-.043-.075a.135.135 0 01.118-.052zm7.73.054a.31.31 0 00.082.054c-.055-.005-.1-.016-.1-.033 0-.009.009-.015.018-.02zm-7.415.034c.032-.012.093.01.136.048.075.069.079.069.129 0 .06-.082.244-.057.244.035 0 .06-.17.074-.426.032-.147-.025-.184-.076-.083-.115zm11.394.41a.091.091 0 01.052.001l.056.015-.056.036c-.014.01-.07.026-.108.04a.322.322 0 01.06-.031l.104-.045-.116-.01c.003-.001.005-.005.008-.006zm-4.626.032c.177 0 .438.117.44.197 0 .035-.216.097-.353.102a.522.522 0 01-.213-.052c-.229-.119-.163-.247.126-.247zm-12.464.02c.023.001.044.007.058.02.09.073.063.11-.078.11-.072 0-.132-.015-.132-.036 0-.052.085-.096.152-.094zm.338.004c.08-.003.164.04.133.09-.026.043-.28.05-.282.008 0-.016.034-.05.076-.076a.152.152 0 01.073-.022zm21.138.093c.012 0 .025.01.05.032.03.024.046.054.039.067-.018.028-.169.03-.169.003 0-.011.018-.04.04-.066.019-.023.029-.035.04-.036zm-.136.01c.02 0 .03.01.022.023-.007.012-.017.022-.022.022-.004 0-.014-.01-.022-.022-.008-.013.002-.023.022-.023zm-9.351.03c.016-.003.033.007.058.028.082.068.077.117-.012.117-.04 0-.084.017-.097.038-.013.02-.073.038-.135.038-.088 0-.11-.017-.11-.08 0-.067.015-.076.098-.055.07.018.112.006.147-.042.02-.028.035-.042.05-.045zm-.693.077c.03-.009.119.031.328.134.222.108.287.157.273.205-.01.035-.001.074.02.088.04.024.056.095.022.095-.01 0-.125-.04-.257-.09-.365-.137-.633-.283-.633-.345 0-.07.036-.07.13.001.102.077.144.07.116-.02-.012-.039-.016-.062.001-.068zm4.442.239l.078.002c.006.004.016.009.019.014.013.021-.115.018-.187.003-.005-.01.027-.017.09-.019zm4.95 0c.005-.002.012 0 .023.004.02.007.036.023.036.035 0 .03-.05.011-.062-.022-.003-.009-.001-.014.003-.016zm-3.695.474c.007.006.001.012-.012.02 0-.007.006-.014.012-.02zm-.206.09c-.093.027-.186.05-.22.051a.055.055 0 01-.031-.006c.045-.015.115-.027.239-.043.005 0 .007-.002.012-.003zm-16.443.438c.02 0 .027.018.015.038-.013.021-.04.038-.061.038-.021 0-.028-.017-.015-.038.013-.02.04-.038.061-.038zm20.385.272c.018.007.012.012-.014.013-.024 0-.037-.004-.03-.012.008-.007.028-.008.044-.001zm-.303.027c.22-.001.271.018.118.044-.085.014-.09.018-.055.055.034.038.021.041-.257.068-.16.015-.297.036-.303.046-.006.01.007.029.028.041.037.021.035.026-.016.063-.112.082-.134.082-.448.003-.184-.046-.408-.148-.42-.192-.012-.039.09-.036.228.005.072.022.206.034.387.034.26 0 .28-.004.33-.052.085-.086.184-.114.408-.115zm-12.084.275c.016-.005.05.01.114.039.09.04.096.057.074.217-.023.167-.087.453-.103.46-.005.003-.212.026-.462.052-.567.059-.888.068-.82.025a.17.17 0 01.118-.015c.04.01.101-.025.157-.091.068-.081.123-.108.221-.107.114 0 .143-.02.217-.15.048-.084.087-.13.087-.105.001.079.11.054.249-.056.079-.064.13-.138.13-.19 0-.049 0-.074.018-.08zm11.743.116c.037 0 .063.031.042.052-.027.027-.074.015-.074-.019 0-.018.014-.033.032-.033zm.421.09c.028 0 .062.007.084.022.025.016.012.021-.05.021-.046 0-.084-.009-.084-.021 0-.015.022-.022.05-.022zm-20.504.015c.02 0 .035.017.035.038 0 .02-.026.038-.059.038-.032 0-.048-.017-.035-.038.012-.021.039-.038.059-.038zm9.26.147c.03-.013.09.03.19.127.098.097.237.19.31.21.11.029.082.034-.168.03l-.302-.003-.03-.15c-.028-.13-.03-.2 0-.214zm2.579.084c.028.002.077.032.147.09.133.112.18.118.229.03.034-.06.046-.061.164-.005.016.008.043.011.064.017a.406.406 0 01-.132.024c-.076 0-.118.023-.104.057.007.02.045.032.102.032.09 0 .09 0 .05.045-.022.025-.036.049-.031.054.01.009.048.024.084.037-.52.011-1.117-.002-1.44-.039-.202-.024-.21-.029-.22-.148-.014-.134-.002-.143.113-.081.055.03.088.03.118 0 .066-.067.167-.048.188.034.014.052.052.076.119.076.054 0 .135.021.179.047.064.038.083.038.097 0 .01-.03.052-.038.112-.023.114.028.17-.04.139-.166-.014-.056-.007-.083.022-.081zm8.243.044c.105 0 .259.07.26.117 0 .021-.127.058-.208.06a.309.309 0 01-.126-.03c-.136-.07-.097-.147.074-.147zm-16.514.001c.011-.011.093.041.182.117.088.076.23.156.313.178.085.021.204.054.264.073.074.023.128.021.16-.006.029-.024.163-.035.325-.027.274.013.275.013.287-.09.01-.09.02-.098.105-.066.064.025.117.021.17-.011.065-.04.085-.035.143.04.05.068.088.083.163.064.07-.018.103-.007.121.04.02.051.035.055.08.017a.173.173 0 01.138-.025c.075.02.37-.02.534-.073.045-.014.066 0 .066.043 0 .046.018.055.067.033.106-.047.322-.039.34.013.011.032-.03.047-.13.047-.163 0-.733.103-.766.138-.012.013-.574.013-1.249 0-.908-.017-1.234-.035-1.255-.069-.039-.062-.085-.409-.058-.436zm9.417.054c0 .004.004.009 0 .014-.008.014-.058.02-.102.02.032-.008.064-.017.08-.03.008-.005.015-.003.022-.004zm6.816.038c.01-.001.02.004.035.017.048.04.045.07-.008.07-.024 0-.05.01-.057.022-.008.012-.043.022-.08.022-.052 0-.066-.01-.066-.047 0-.04.01-.045.059-.033.042.01.066.004.087-.024.012-.017.02-.026.03-.027zm-.395.046c.026.006.08.03.179.079.131.064.17.093.162.121-.006.021-.001.044.012.052.023.015.033.057.012.057-.005 0-.074-.024-.151-.053-.217-.082-.375-.168-.375-.205 0-.041.021-.04.077.001.06.046.085.041.068-.012-.01-.03-.01-.045.016-.04zm-6.495.734c.012 0 .016.01.009.023-.008.012-.024.022-.036.022-.013 0-.017-.01-.01-.022.008-.012.025-.023.037-.023zm4.732.34c.01-.003.03.005.068.023.053.024.056.034.044.128a1.457 1.457 0 01-.061.273c-.003.001-.126.015-.274.03-.335.035-.526.04-.485.015a.1.1 0 01.07-.01c.023.007.06-.014.092-.053.04-.048.073-.064.131-.063.067 0 .085-.011.13-.089.027-.05.05-.077.05-.062 0 .046.066.032.148-.034.046-.037.077-.08.077-.111 0-.03 0-.044.01-.047zm3.43.108c.03 0 .034.02.023.111-.021.177-.04.197-.2.212l-.465.044c-.315.03-.95.027-1.231-.005-.12-.014-.124-.017-.13-.088-.008-.08-.001-.084.067-.048.033.018.052.018.07 0 .039-.04.099-.028.111.02.008.03.031.045.07.045.033 0 .08.013.106.028.038.022.05.022.058 0 .006-.018.03-.023.066-.014.067.017.1-.023.082-.097-.016-.066.018-.065.1.005.079.066.107.07.136.017.02-.036.027-.036.096-.003.08.038.296.034.347-.007.016-.013.03-.006.04.019.013.035.017.035.05.002.032-.032.042-.032.085-.003.046.03.066.024.25-.072.109-.058.207-.118.216-.135a.069.069 0 01.054-.03zm-8.365.023c.012 0 .021.01.021.022 0 .013-.015.022-.035.022-.019 0-.028-.01-.02-.022.007-.012.023-.022.034-.022zm5.479.087c.017-.008.054.017.113.075.058.057.14.112.184.124.065.017.048.02-.1.018l-.178-.002-.019-.089c-.016-.077-.017-.118 0-.126zm-3.368.076c.007-.006.055.025.108.07a.57.57 0 00.186.104c.05.013.12.033.156.044.043.014.075.012.094-.004.018-.014.097-.02.192-.016.163.008.163.007.17-.053.006-.054.013-.058.063-.04.038.015.069.013.1-.006.039-.024.05-.02.084.024.03.04.053.05.097.038.042-.01.062-.004.072.023.012.03.02.033.048.01a.102.102 0 01.08-.014.97.97 0 00.317-.043c.027-.009.039 0 .039.025 0 .028.01.033.04.02.062-.028.19-.024.2.007.007.02-.017.028-.076.028-.097 0-.434.06-.454.082-.007.007-.339.007-.738 0-.537-.01-.73-.021-.743-.041-.023-.037-.05-.242-.035-.258z"/><path fill="url(#g)" d="M85.725 53.207c-1.177.08-2.346.191-3.528.245-1.58.072-3.166.117-4.761.119a74.92 74.92 0 01-9.719-.584A83.957 83.957 0 0162.7 52.2a97.804 97.804 0 01-5.173-1.117c-1.755-.427-3.542-.91-5.368-1.447a195.428 195.428 0 01-5.584-1.748c-1.89-.618-3.8-1.261-5.712-1.899a353.266 353.266 0 00-5.717-1.866 137.845 137.845 0 00-5.601-1.647 85.277 85.277 0 00-5.414-1.275 66.198 66.198 0 00-5.3-.845 56.829 56.829 0 00-5.277-.372 54.136 54.136 0 00-5.348.14 65.987 65.987 0 00-5.49.664c-.897.145-1.81.349-2.716.523v20.6h85.725z"/><path fill="url(#h)" d="M85.725 45.588c-.853-.182-1.786-.387-2.609-.56-3.329-.703-6.375-1.324-8.857-1.783-1.242-.23-2.341-.419-3.349-.57a48.178 48.178 0 00-2.791-.345c-.87-.08-1.695-.124-2.525-.137-.829-.014-1.662.004-2.548.05-.885.048-1.823.123-2.81.232a54.82 54.82 0 00-3.112.437c-1.086.183-2.22.407-3.4.677a66.8 66.8 0 00-3.674.952c-1.27.367-2.582.786-3.91 1.242-.933.32-1.872.676-2.81 1.027 1.084.362 2.172.728 3.245 1.08 1.89.617 3.757 1.21 5.584 1.747 1.826.538 3.613 1.02 5.368 1.447 1.754.428 3.477.8 5.173 1.117 1.696.317 3.366.58 5.017.785a74.923 74.923 0 009.719.585c1.595-.003 3.181-.047 4.76-.119 1.183-.054 2.352-.166 3.529-.245z"/><circle cx="64.1" cy="4.229" r=".926" fill="#d5ff85"/><circle cx="67.516" cy="15.583" r="1.852" fill="#b1fdff"/><circle cx="67.941" cy="23.338" r="1.852" fill="#fffcf4" filter="url(#i)"/><circle cx="59.657" cy="33.388" r=".926" fill="#ffc52b"/><circle cx="59.657" cy="33.388" r=".926" fill="#fffcf4" filter="url(#j)"/><circle cx="77.688" cy="38.242" r=".926" fill="#fffcf4" filter="url(#k)"/><circle cx="63.724" cy="37.489" r=".926" fill="#545a6c"/><circle cx="78.372" cy="21.78" r=".926" fill="#6c6a54"/><circle cx="14.718" cy="23.646" r="1.587" fill="#fffefa" filter="url(#l)" transform="matrix(2.70023 0 0 2.70023 -24.26 -41.7)"/><circle cx="64.1" cy="4.229" r=".926" fill="#fffcf4" filter="url(#m)"/><circle cx="67.516" cy="15.583" r="1.852" fill="#fffcf4" filter="url(#n)"/><text x="4.306" y="51.587" stroke-width=".175" font-family="sans-serif" font-size="7.019" font-weight="400" letter-spacing="-.212" style="line-height:.95" word-spacing="0"><tspan x="4.306" y="51.587" fill="#fff">stellarium</tspan></text><text x="8.927" y="57.122" fill="#8f9091" stroke-width=".106" font-family="sans-serif" font-size="4.236" font-weight="400" letter-spacing="-.128" style="line-height:.95" word-spacing="0"><tspan x="8.927" y="57.122">stellarium.org</tspan></text></svg>