<svg xmlns="http://www.w3.org/2000/svg" xmlns:xlink="http://www.w3.org/1999/xlink" width="324" height="234" viewBox="0 0 85.7 61.9"><defs><filter id="e" width="1.4" height="1.5" x="-.2" y="-.2" color-interpolation-filters="sRGB"><feGaussianBlur stdDeviation="4.2"/></filter><filter id="f" width="1.2" height="1.2" x="-.1" y="-.1" color-interpolation-filters="sRGB"><feGaussianBlur stdDeviation="1.7"/></filter><filter id="l" width="3.2" height="3.2" x="-1.1" y="-1.1" color-interpolation-filters="sRGB"><feGaussianBlur stdDeviation="1.5"/></filter><filter id="n" width="1.7" height="1.7" x="-.3" y="-.3" color-interpolation-filters="sRGB"><feGaussianBlur stdDeviation=".5"/></filter><filter id="m" width="2.3" height="2.3" x="-.7" y="-.7" color-interpolation-filters="sRGB"><feGaussianBlur stdDeviation=".5"/></filter><filter id="j" width="2.3" height="2.3" x="-.7" y="-.7" color-interpolation-filters="sRGB"><feGaussianBlur stdDeviation=".5"/></filter><filter id="i" width="1.7" height="1.7" x="-.3" y="-.3" color-interpolation-filters="sRGB"><feGaussianBlur stdDeviation=".5"/></filter><filter id="k" width="2.3" height="2.3" x="-.7" y="-.7" color-interpolation-filters="sRGB"><feGaussianBlur stdDeviation=".5"/></filter><linearGradient id="b"><stop offset="0" stop-color="#111c2a"/><stop offset="1" stop-color="#0a1119"/></linearGradient><linearGradient id="a"><stop offset="0" stop-color="#091017"/><stop offset="1" stop-color="#04070a"/></linearGradient><linearGradient id="c"><stop offset="0" stop-color="#09123b"/><stop offset="1" stop-color="#03020a"/></linearGradient><linearGradient xlink:href="#a" id="h" x1="21.4" x2="21.1" y1="43.1" y2="53.7" gradientUnits="userSpaceOnUse"/><linearGradient xlink:href="#b" id="g" x1="43.3" x2="85.7" y1="47.9" y2="47.9" gradientUnits="userSpaceOnUse"/><radialGradient xlink:href="#c" id="d" cx="176.8" cy="64.8" r="162" fx="176.8" fy="64.8" gradientTransform="matrix(-.305 .1202 -.0827 -.2097 123.4 -3.5)" gradientUnits="userSpaceOnUse"/></defs><path fill="url(#d)" d="M0 0v62h85.7V0Z"/><g stroke="#000" stroke-width=".3"><path fill="#2d3060" d="M17.2 3.7C19.6 10.2 23.4 16.9 30 20c5.3 2.8 11.2 5.4 14.6 10.7 3.4 4.5 5 11 10.7 13.3 4.3 2.6 10.1-1.1 9.7-6-.8-5.7-5.8-9.5-9.8-13A274.3 274.3 0 0 0 22.5 4.3c-1.6-1-3.4-1.6-5.3-.6Z" filter="url(#e)" transform="matrix(1.073 0 0 .6408 -3.4 25)"/><path fill="#736f89" d="M18.4 5.7c2.4 6.4 6 12.9 12.3 16C36 24.8 42 27 45.5 32.4c3.4 4.4 5 10.3 10 13.2 2.5 1.5 6 2.1 8.3-.1 2.5-1.6 2.6-5.4-.2-6.8-5.8-3.9-11.7-7.7-17-12.3-8.2-6.6-15.8-13.8-24-20.3-1.2-1.1-2.8-.9-4.2-.3Z" filter="url(#f)" opacity=".4" transform="matrix(1.073 0 0 .6906 -14.8 22.4)"/></g><circle cx="15.5" cy="22.1" r="4.3" fill="#fffefa"/><path d="M14.7 20.9c-.2 0 0 .6-.1.6v.2l-.4-.4c-.1.1 0 .3.1.4.1.2.3.4.2.6v.2c0-.2 0-.4-.2-.6-.2-.2-.1.2-.3 0-.1 0-.4 0-.3.2 0 .1.3.3.2.4-.1.1 0 .3.1.3.2 0 .2.2 0 0-.2 0-.2.2 0 .3 0 .3-.3.3-.4.2L13 23l.2.5c-.1 0-.3 0-.2.1.2.1.4.2.3.4 0 0-.4.2-.2.3h.7s0 .3.1.2c.1 0 .2 0 .2.2.2 0 .4-.3.4 0 0 .2-.3 0-.4.1a1 1 0 0 1-.6-.1c-.1-.1-.4-.2-.3 0H13l-.6-.3c0 .1 0 .3-.2.3H12c.1.2.3.3.5.3.1 0 0 .4.2.3.1-.2.2 0 .3.2.1 0 .3-.2.4 0-.2.2.2.1.3.1l.8-.3s.2-.2.1 0-.4.3-.6.4c-.1.1-.3.2-.4.1-.2 0-.3-.2-.5-.1 0 .2-.2 0-.4 0 0 .2-.2.2-.4.2s-.2.2 0 .3c0 .2.3.2.3.3 0 .2.4 0 .4.2h-.6c0 .1.1.3 0 .4 0 .1 0 0 0 0L12 27l-.1.2c-.1 0-.4-.1-.4 0 0 .2.3.1.4.2 0 .2.2.2.4.3 0 0 .2.2.3.1.2 0 .3.2.4.3l.2.3c-.3.2-.6.3-.9.1-.1 0-.3 0-.3.2-.1 0-.4-.2-.4 0s.3.4.5.6l.4.2h-.2c-.2.2-.4 0-.5 0-.1.2-.4 0-.4.1 0 .2.2.3.4.4l.4.3c.1.1.3 0 .4 0 .1-.2.4-.3.4-.1-.1 0-.3 0-.2.1 0 .3-.2.3-.4.4l-.8.1c-.2 0-.2.3-.4.3 0 0-.4 0-.2.2 0 0 .4 0 .2.2h-.4s.1-.1 0 0c-.2 0-.1-.2-.2-.2l-.7.2c-.3 0-.5 0-.7-.2-.2-.2.1-.1.2-.1h.4l.4-.1h.5c0-.1 0-.3.2-.3 0-.2.2-.2.3-.3.2-.2-.2-.2-.3-.3-.2-.2-.4 0-.6 0 0 0-.3 0-.2-.1 0-.3-.2-.1-.3-.1H9c-.2 0-.5-.1-.6-.3 0-.1.3 0 .4 0H9.8s.1-.2.3-.2c.1 0 0-.4.2-.2l.3-.1c0-.2.3-.1.3-.3l-.4-.1c-.1-.1-.3.2-.4 0 0-.2-.3 0-.4 0h-.5c-.2 0-.5 0-.7-.2 0 0 0-.2.2 0h.5c.1 0 0-.2.2-.2.1 0 .4.3.4 0 .1 0 .4.1.3-.1l.5-.2c.1-.3-.3-.2-.4-.3h-.6s-.1-.2-.3-.2c-.1-.1-.3 0-.4.1h-.5c.1-.2-.2-.2-.3-.2-.1 0-.4-.1-.1-.1h.3c.2.1.2-.1.3-.2.2 0 .3.3.4.3.1-.2.3-.2.5-.2.1 0 .4 0 .4-.2l-.7-.2c0-.1-.1-.4-.3-.3-.1.1-.4 0-.2 0 .2-.1.4-.3.2-.3-.1 0-.4-.1-.2-.2.2 0 .4 0 .5-.2 0-.2-.2-.2-.2-.2 0-.2.3-.3.1-.4-.3 0 0-.3 0-.4-.3 0-.4.3-.6.2-.2 0-.2.2-.3.3-.2.2-.3.4-.5.4l-.1-.4.1-.4c.1.2.4 0 .5 0 .3 0 0-.2-.2-.3h.6l-.3-.3.2-.2c-.2 0-.4.2-.5 0-.2 0-.2.2-.3.3-.1.2-.2 0-.2 0l.5-.8c-.1-.1-.3.2-.4.1-.1 0 0-.5-.3-.5v.7l-.4-.2.1.4c.1.1.3.3.2.5l-.2-.3c0-.1-.1-.3-.2-.1-.1.1-.3-.1-.4 0l.2.5c-.1 0-.1.3 0 .2.2 0 .4.1.2.2-.1 0-.4-.2-.3 0v.3l-.8-.2c-.1 0 .3.2.1.4-.2 0 .1.1.2.2.2 0 .1.2 0 .2-.2 0-.2.2 0 .2l.6.1s-.1.2 0 .2H7c.1.2.3 0 .4 0 0 .2-.3.2-.4.2l-.9-.2c-.2 0 0 .2-.2.1l-.6-.2s-.1.2-.3.2l-.3.1.4.2c.2 0 .2 0 .2.2.1.1.4-.2.4 0 0 .3.3.1.4.2 0 .2.3.2.4.1l.7-.2-.3.2c-.1.1-.3.3-.5.2l-.5-.1s0 .2-.2.1h-.4c-.2 0-.5 0-.4.3l.5.3s.4.1.2.2H5c0 .2.2.3 0 .4-.1-.1-.4-.3-.5 0h-.4l.4.3.4.2c.2.1.4 0 .5.2l.5.4c-.3.2-.7.2-1 .1l-.3.1h-.4c0 .2.2.3.3.4.1.2.3.2.5.3 0 0 .3 0 .1.1H4v.2l.4.2c.2 0 .3.2.5.3l.4-.1c0-.1.4-.2.3 0-.2 0-.2 0-.2.2L5 32c-.2 0-.5 0-.8.2l-.6.2c-.1.1.2.2.3.2 0 .1 0 .3.3.3h.4c0 .1.3 0 .4.2l.5-.2h.3c.2-.1.3 0 .1 0-.3.2-.6.2-1 .3 0 .2.3.2.4.2l-.4.1c-.6 0-1.2 0-1.8.2H3l.3.2c-.1.1-.2.3 0 .3h.5l.1.2h.4l.3.1.7.1s.3 0 .3.2l-1 .2H3.5l-.6-.1c0 .2.3.2.4.3 0 .2.2.2.2.3.3.2.5 0 .7.2.2 0 .2.2.3.3l.3-.1-.3.2c-.3.1-.6.2-1 .1H3c-.1.1-.4 0-.4 0 0 .3-.3.1-.4.2-.3 0 0 .2.2.2 0 0 .3 0 .1.1-.1.2.1.3.2.4.2.2.4 0 .6.1 0 .2-.2.2-.3.3l-.4.1.4.1s-.2.2 0 .2l.5.2h.3c-.2.2-.5.1-.7.1h-.7c0 .2.3.2 0 .3 0 0-.3 0-.3.2h.6c.1 0-.2.2 0 .2s.4 0 .4.2c.1.2.4-.3.4 0 0 .1 0 .2.2 0 0 0 .3-.2.2 0 0 .2-.3.2-.5.2H3c-.1 0-.3 0-.4.2h-.3c.1.1.2.2 0 .2 0 0-.2.1-.2.3.1 0 .3-.2.4 0 0 .1.2 0 .2.2h.5s.3 0 .2.1c-.2 0 0 .2 0 .2.2 0 .3 0 .2.1-.2.1 0 .1.1.2L19 44l24.6 3c0-.2.2-.2.2-.3 0 0-.1 0 0-.1.1 0 0-.1 0 0 0-.2-.2-.1-.2-.1l-.4-.1h.3c0-.2.3 0 .4-.2l-.2-.1-.6-.1s-.1 0 0 0l.5-.1.2-.1.1-.2h-.5l.3-.3h-.5c.1 0 .2 0 .3-.2V45h-.3s.2-.2 0-.2H43l.3-.2s.1-.2-.1-.1c-.1 0 0-.2-.2-.1h-.3.4c0-.2.3-.4 0-.4h-.6c0-.1 0 0 .1 0h.2l.3-.3H43l-.4-.1h.4l.2-.2-.4-.1c0-.1.4 0 0-.2l-.1-.2c-.2 0 .2 0 0-.2.1 0 0-.1 0-.2 0 .1-.3 0-.1 0 0-.2 0-.2-.2-.2 0 0-.1.2 0 0v-.2c0 .1-.1 0-.1 0s0 .2-.1 0c-.1 0 0 .3-.1.2-.2 0 0 .2 0 .3 0 .2-.4-.1-.3.1 0 .1.2.2 0 .2l.4.1h-.5c-.1 0-.3.1 0 .1l.2.1c0 .2.4 0 .2.1h-.4s-.2 0 0 .2c0 0 .1.1 0 0-.1 0 0 .2-.2.1h-.1c0 .2.3.2.4.4h-.4l.2.3h-.3l.2.2h-.2c-.2 0-.3 0-.5-.2h.4c-.2-.1.2 0 0-.2 0 0 .3 0 .3-.2H41l-.6-.1.4-.1c.2 0 .2-.2.2-.4l-.4.1s-.2-.1-.1 0c0 0 .1-.1 0-.2.2 0 .3-.2.2-.2a2 2 0 0 1-.7 0h.3c.1 0 0-.1 0-.2l.4-.2c0-.2-.2-.2-.3-.2l-.1-.1h-.6c-.1 0-.1-.1 0-.1H40.3c0-.2.2-.3.3-.4 0-.1-.3 0-.2-.2l-.4.1c.1-.3-.2 0-.3-.1-.1 0-.4 0-.4-.2h.3s.3.1.4 0c0 0 .1-.1 0-.2h.3c0-.1.2-.2 0-.2 0 0 0-.1-.2 0 0 0 0-.2-.1 0-.2 0-.6 0-.7-.2h.3c0 .1 0 0 .1 0h.3l.1-.2s.3 0 .2-.1c-.2-.1-.3-.1-.4 0l-.2-.2c-.1 0-.4.3-.4 0 0 0-.3 0-.1-.1 0 0 .2.1.2 0h.5c0-.2-.3-.2-.3-.4h-.1c.1-.1 0-.2 0-.2-.3-.1 0 0 .1-.1.2-.1-.2-.1 0-.3.1 0 0 0 0-.1s0-.3-.2-.1l-.2.1c0 .1-.3.5-.3.1V39h.2c.2 0 .2 0 0-.1-.1-.1.1 0 .2-.1.1 0 0-.1 0-.1s.1-.2 0-.2l-.3.1c0 .1-.1.2 0 0v-.3s0 .2 0 0l-.2-.2v.3c0 .1-.1 0-.1 0-.2-.1 0 .2 0 .2v.2-.2h-.3c0 .1.2.2 0 .3l.2.1c-.1 0-.2 0-.1.2 0 .2-.3-.1-.4 0 0 0 .2.1 0 .1 0 .1.3.2 0 .3 0 .1.3 0 .4 0v.2h.3c.1.2-.3.1-.4.1 0 0-.2-.2-.2 0H38l-.2-.2c0 .2-.3.1-.2.2 0 .1.3 0 .2.2l.3.1s.1 0 0 0h.7-.2c-.1.2-.3.2-.5.1 0 0 0 .1 0 0l-.4.1c0 .2.2.3.2.3.2 0 .1.1 0 0-.1 0-.2.1-.1.2 0 .1 0 0-.1 0l-.1.1h-.2l.2.2.2.1.3.2v.1h-.5l-.2.1c0 .2.2.3.4.4h-.2c-.1 0 0-.2 0-.1H37l.2-.2c0-.2-.3 0-.4 0l-.3-.1.5-.2.3-.3c0-.2-.4 0-.5-.2h-.3s-.2-.1 0-.1l.4-.1.2-.3c-.2-.2-.4 0-.5-.1 0-.2-.2 0-.3 0-.2 0 0-.2 0-.2h.2l.4-.4-.4-.1h-.6s0-.1 0 0c-.2-.2.2 0 .3 0 0-.2.2 0 .3-.2l.3-.2h-.5c0-.1-.4-.2-.1-.3.1 0 .3 0 .1-.2 0 0-.4-.1-.3-.3 0 0-.4 0 0-.2.2 0 0 0 0-.2.2-.1 0-.1 0-.3 0 0-.3.2-.3 0s.2 0 0-.2c0-.1 0-.2-.1-.1l-.2.1c0-.1 0-.3.2-.4h-.3V37l-.1.3s-.2-.1-.2 0c.1.2 0 .2-.2.2v.5c.1.3-.3-.2-.3.1 0 .2.3.2.1.3-.2 0 0 .2.2.1l.4.2h-.8c-.2-.1-.4 0-.4 0 0 .1.2.1.2.3h.4c0 .2.3 0 .4 0l-.2.2h-.5c-.1 0-.4 0-.2.2l.3.2c-.1 0-.3 0-.2.1h-.3s-.3 0-.1.1l.4.3.3.2-.7.1c0 .2.2.3.4.4h-.5v.2l.3.1s-.3.1-.4 0h-.3l-.5-.2c0-.2.3-.1.5 0 .1 0 0-.1 0-.2.2 0 .4 0 .2-.1 0-.2.3-.2.4-.4 0-.2-.2 0-.3 0-.2 0-.3-.2-.5-.1h-.7c0-.1-.2-.2 0-.2h.6c0-.2.3-.1.3-.3v-.4l-.7.1-.3-.1h.3c0-.1-.1-.3 0-.2l.2-.3h-1.2c0-.2.3 0 .4-.1.2 0 .3-.2.1-.3l.4-.1c0-.2.3-.2.4-.3 0-.3-.5-.3-.7-.3v-.1c-.1 0-.1-.2-.2 0h-1v-.2h.8c.1-.1.5 0 .4-.3l.3-.3c.3-.2 0-.3-.2-.3-.1 0 0-.2-.1 0h-.5s0-.3-.1-.2H31l-.6-.2c0-.2.4.1.4 0h.5c.2 0 .2 0 .3-.2 0 0 .2 0 .1-.2 0-.1.2 0 .2 0 .2 0 .1-.2.3-.2.1 0 .2-.2 0-.2H32c-.1 0-.4.1-.3-.2-.3.1-.6.4-.9.2l-.4-.3c.2 0 .3.1.4 0 .1.2.3.2.3 0 .1-.2.3.2.4 0 0-.2.3 0 .2-.2l.2-.1s.4-.1.2-.2a.7.7 0 0 0-.7 0c-.2 0-.1-.4-.3-.2 0 0-.1-.2-.2 0h-.5s0-.2-.2-.2c0 0-.3 0 0 0 0-.3.2.1.3 0 0-.3.2 0 .3 0h.1l.3-.1c.1 0 .4-.1.2-.3l-.5-.2-.1-.2c-.2.1-.2 0 0-.1.2-.2-.1-.2-.2-.2-.1-.2.3 0 .3-.3.2 0 0-.1 0-.2s.3-.3 0-.3.1-.3 0-.3c-.2 0-.3.2-.5 0l-.3.5c0 .2-.4.5-.3 0v-.4c0-.1.2 0 .2 0h.3c.1-.2-.2-.3-.2-.4.1 0 .4.1.4 0l-.2-.2.2-.2c-.2 0-.3.2-.5 0l-.2.4c-.1-.3.2-.5.3-.8h-.3c0 .2 0 .1 0 0s0-.3-.2-.4v.7l-.4-.3.2.5c.1.1 0 .3 0 .4l-.1-.5c-.1 0-.1.3-.3.1 0 0-.2 0-.1.1 0 .1.2.3 0 .4l.2.1c.2 0 0 .2 0 .1-.2 0-.2.2 0 .3-.1.2-.4 0-.5 0-.1-.2-.3-.2-.2 0 0 .1.2.2 0 .2-.1.1.2.2.2.3.1.2-.3.1-.2.3h.6c0 .1 0 .3.1.2.1 0 .2.2.3 0 .1 0 .3.2 0 .2h-.6c-.1-.2-.3-.2-.3 0l-.2-.1-.4-.2c0 .1 0 .2-.2.2 0 0-.3 0-.1.2.1 0 .4 0 .3.3.1 0 .3-.2.4 0 0 .3.2 0 .3.1-.1.2.2.2.3.1l.7-.3c0 .2-.3.3-.4.3-.2.1-.4.4-.6.1h-.2l-.4.1c-.2 0-.5 0-.3.3l.4.3s.3.1 0 .1c0 0-.4 0-.3.2 0 0 .1.2 0 .1l-.3-.1s0 .2-.1.1c-.1 0-.4 0-.2.2.1 0 .2 0 .2.2l.5.2c.2-.1.2.1.4.2l.2.3c-.3 0-.5.1-.8 0l-.2.1c-.1 0-.4 0-.3.1l.4.4.4.2h-.7l-.3.1.4.3c.1 0 .2.3.4.2.2 0 .3-.2.5-.1 0 0-.3 0-.2.1 0 .2-.2.2-.3.3l-.6.1c-.2 0-.2.3-.4.2-.1 0-.2.1 0 .2 0 0 .3.1 0 .2 0 0-.4 0-.2-.1l-.2-.1-.5.1h-.5l.3-.2c.1-.1.3 0 .4 0 .1-.2.4 0 .4-.2s.2-.3.4-.4c.1-.1-.2-.1-.2-.1-.2-.2-.4 0-.6 0-.2 0 0-.4-.2-.3l-.3.1c0-.1 0-.3.1-.2.2 0 .2-.3.3-.2.1 0 0-.3.2-.2.2.1.2-.2.4-.2l-.1-.1c-.1 0-.1-.2-.3 0 0 0-.2 0-.2-.2-.3 0-.5.3-.7.2.1-.2-.1-.2-.2-.1-.1 0-.3 0-.3-.2h.4c.1.2.2.1.2 0 .1-.1.4.2.4 0 .1 0 .3 0 .2-.2.1-.1.4 0 .5-.2-.2-.2-.5-.2-.7-.1l-.3-.1c-.1 0-.2-.1-.4 0h-.4v-.2h-.3s.2-.2.2 0c.1 0 .2 0 .3-.2.1 0 .2.4.4.1h.5c.1-.2-.2-.3-.3-.3l-.3-.2c0-.2-.3 0-.3 0 0-.2.4-.3.2-.3-.1 0-.3-.1-.1-.2 0 0 .4 0 .3-.2-.2 0-.2-.1 0-.2 0 0 0-.3-.1-.2-.1 0 .1-.4-.1-.3-.1.1-.2.2-.4.1l-.3.4s-.2.3-.3.2l.2-.3-.2-.2s0-.2.2 0c0 0 .4 0 .3-.2 0 0-.3-.2-.1-.2h.4l-.3-.2.1-.2c-.1 0-.3.2-.4 0 0 .1-.1.4-.3.3 0-.2.3-.4.4-.6-.1-.2-.3.2-.4 0l-.1-.3a2 2 0 0 1-.7-.1c-.1 0-.3-.2 0-.2 0 0 .4 0 .2-.2l-.5-.3v-.3c-.3 0 0 0 0 0 .3-.1.1-.2 0-.3.1-.1.2-.2 0-.3 0 0 .1-.2 0-.1-.2 0-.4 0-.4-.2 0 0 .2 0 .1-.1 0-.1 0-.3-.1-.2l-.4.2.2-.4s.1-.2 0-.2c0 0-.1.1-.2 0l-.1-.2-.1.4s-.3-.2-.2 0c.1.2-.1.2-.3.2-.2 0 .1.3 0 .4 0 .1.1.3 0 .4l-.4-.1.1.4c.2 0 0 0 0 .1 0 .2.2.1.4.2l.4.1c0 .3-.6-.1-.6 0h-.5c-.2-.1-.3 0-.5.1 0 .2.3 0 .3.3l.4.1s.1-.1.1 0c0 .2.4 0 .5 0l-.2.2c-.1 0-.3-.1-.4 0h-.6c0 .3.3.3.4.4 0 0 0 .1 0 0-.2 0-.2.2-.2.3-.2 0-.3-.1-.4 0h-.1c.1.2.3.4.5.4l.4.3-.5.1-.5.1.5.5c.1 0 0 0 0 0h-.6c0 .2.2.2.4.3.1 0 0 .2 0 .1h-.5c0-.2-.3-.1-.4-.1-.2 0-.4 0-.6-.2l.4-.1h.3c-.1-.2.2-.2.3-.2 0 0-.3-.2 0-.2l.4-.4c0-.2-.3 0-.4 0-.2 0-.3-.2-.5-.1l-.9-.1s-.4-.2-.1-.2h.7s0-.2.2-.2c.3 0 .2-.3.2-.5 0 0 .2-.3 0-.2l-.8.2-.4-.2h.1c.2 0 .3 0 .2-.2l.2-.2s.2-.2 0-.2h-1.4c-.1-.2.2-.2.3-.2l.4-.1c0-.1-.2-.3 0-.3l.4-.1.5-.4c0-.3-.5-.3-.8-.3-.1 0 0-.3-.1-.2-.1 0-.1-.2-.2 0a1 1 0 0 1-.6.1c-.3 0-.6 0-.8-.3h.1l.5-.1c.1 0 .3.1.4 0h.6l.1-.4c0-.2.2-.3.4-.4 0 0 .1-.1 0-.2-.2 0-.5 0-.4-.2h-.2l-.5.2c0-.1 0-.4-.1-.3h-.7a3 3 0 0 1-.8-.3c-.2-.2.2 0 .3 0 .1 0 .2-.2.3 0h.7c.1 0 0-.3.2-.3s0-.3.2-.3h.3l.4-.3-.3-.1c-.1 0 0-.2-.2-.1-.1 0-.4.2-.3 0-.1-.2-.4.1-.5.1-.4.2-.8 0-1-.3-.2 0 0-.2 0 0h.4c.2.1.3 0 .3-.1.1-.2.3.1.5 0 0 0 0-.2.2 0l.1-.2c.1 0 .2-.1.2-.3.1 0 .4 0 .3-.2-.2 0-.5-.2-.8 0-.1 0-.3 0-.3-.2 0-.1-.3 0-.3-.2-.2 0-.3.3-.5.3s-.4 0-.3-.2c0-.2-.3 0-.4-.2l.2-.2c0 .1.3.3.4.1-.1-.1 0-.1.1 0l.3.2.2-.2h.4c.2 0 .3-.2.1-.3l-.6-.3c0-.1 0-.3-.2-.2-.1 0-.2-.1 0-.2 0 0 .2-.2 0-.2-.1 0-.5-.1-.2-.2l.3-.1.2-.2c0-.2-.4 0-.2-.3.1 0 .3-.3 0-.3-.2 0 .1-.3 0-.4l-.3.1c-.1.1-.3-.1-.3.1l-.6.8c-.2 0-.5-.4-.2-.4v-.4c0-.2.3-.2.3 0l.4-.1c.2 0 0-.3-.2-.3 0 0-.2-.2 0-.1h.5l-.3-.3.1-.2c.2 0 0-.2 0 0h-.5l-.2.4c-.2 0 0-.3 0-.3 0-.3.3-.5.3-.7-.1-.1-.3 0-.3.1 0 0-.1.1-.1 0 0-.2 0-.4-.2-.5zm-.3 1.8c0 .1.2.3.1.4a.6.6 0 0 1-.1-.4zm-.2.7.3.3s-.4-.2-.3-.3Zm1 .7c.2 0-.2.3-.2 0h.1zm.2.6c.1 0-.2 0 0 0zm.2 0c.3.2-.3.1 0 0zM7 25l.1.3s-.2-.2-.1-.3Zm-.2.6.3.3-.3-.3Zm8.2.3v.1-.1zm-6.9.1c.1 0 0 .2 0 0Zm-.4.2s.2 0 0 0c0 .2-.3.1 0 0zm6 .6c.2 0-.1.2-.3.2-.1 0-.3 0-.4-.2.1-.1.4.2.5 0h.2zm-6 1s0 .3 0 0zm-2 .8h.8l-.4.1-.4-.1zm16 1.5c.2 0 0 .3 0 0zm.3.4h.4l-.2.4c-.2.1-.2-.1-.2-.2v-.2Zm-8.8 1.1h.2c-.3.3-.7.3-1 .4h-.2c0 .3.4.2.4.3l-1 .1-.7.1c-.1 0-.4-.1-.2-.2l.4-.1c0-.1.3-.1.3-.3.2 0 .2-.3.4-.2 0 .1 0 .2.2.1 0 0 .2.2.3 0 .2.1.2-.3.4 0 0 0 .2-.2.2 0l.3-.2Zm16 .2.2.3s-.2-.2-.1-.3Zm-6.6.2c.2 0 .3.2 0 .2 0 0-.2 0-.1-.1l.1-.1Zm-.3 0c.2 0 0 .2 0 0zm6.8.4c.1 0 .3.1.2.2l-.2-.2Zm-5.4 0v.4l-.3-.2.3-.2zm-13.7.2c.1 0 .4 0 .4.2a1 1 0 0 1-.5 0l.1-.2zm13 0c.2.1.3.2.4.1 0 0 .1.2 0 .1-.1 0-.3.2-.5.1-.1 0-.3 0-.3-.2.1 0 .3.2.4 0zm-2 .1v.1Zm8.8.2c.3 0-.2.2 0 0zm-6.1.3c0 .2-.1.2 0 0zm6.3.1c.1 0-.1.1 0 0zm-19 0s.2.1.4 0c.2 0 0 .3-.1.2-.2 0-.4 0-.4-.2zm19.2 0c.2.2-.2.2 0 0zm-7.6.2h.5c0 .2.3 0 .3.2l-.7-.1s-.3-.2 0-.1zm-10.4 0s0 .2.2.1c.2 0 .3 0 .5.2l-.5.2H12s.2-.1.2-.3v-.2zm11.4 0v.2-.1zm6.2.8c0 .1 0 .2 0 0zm-5.3 0c0 .1-.2.2 0 0zm-.4.2c.2 0 0 .1 0 .1-.1 0 0 0 0 0zm4.7.5-.3.1-.1-.1h.4zm-17 .2c.1 0 .2.1 0 .1h-.3l.3-.1zm11.8.2s-.2 0 0 0zm.6 0zm-3.2 0c.2.1-.2.2 0 0zm-.6.2h.4s-.4 0-.3.1c.1.2-.3.2-.3.2l-1 .1c0 .1.3.1.1.2l-.4.2a4 4 0 0 1-1.4-.5c-.1 0-.1-.2 0-.1l.8.1h1l.4-.2.7-.1zm3.7.2zm-4.5.6c.2 0 0 .3 0 .1v-.1zm-9 .2s0 .2-.1.1c-.3 0-.1-.1 0-.1zm10 0s.2.1 0 .1c0 0-.4 0 0-.1Zm-9.6 0s.2.3.3.1c.1-.1.4 0 .2.1H11c-.1 0 0-.1 0-.1zm8.6.6.6.2c0 .2-.3.2-.5.2-.1 0-.5 0-.4-.3h.3zm-16 0c.2 0 .2.3 0 .2-.1 0-.3 0 0-.1Zm.4 0c.2 0 .3.2 0 .2 0 0-.3 0 0-.1zm15 .2c.1 0 .2.2 0 .2 0 0-.3.2-.4 0 0-.2.3 0 .4-.2zm16 .1c.1 0 0 .3 0 .1 0 0 0-.1 0 0zm-16.9 0 .6.3c.2 0 .1.2.3.4l-.4-.1-.8-.4c0-.2.2 0 .3 0v-.2zm17.1.4h.4l-.3.3V38Zm-6.9.9h.2c-.2.2-.6.2-.8.3 0 .1.4.1.1.2l-1 .1-.4-.1c.1 0 .3 0 .4-.2l.3-.2c.1-.2.3 0 .3 0h.2c.2.1.3 0 .3-.1h.3c0 .1.1 0 .1 0zm10.3.2s0 .2 0 0Zm-2.8 0c.1 0 .2.2 0 .2s-.2 0-.1-.1c0 0 0-.1 0 0zm-.3 0c.2 0 0 .1 0 0zm-31.4.1c0 .1-.2.2 0 0zm34.4.2s.2.2 0 .1v-.1zm-12.6.2.3.1H26h.1zm8.5.1c.2 0 .1.2 0 0zm4.5 0c.2 0-.1.1 0 0zm.1.3zm.1 0c.1 0-.1 0 0 0zm-12.5.2h.4c.1 0 0 .2 0 .1-.2 0-.5 0-.4-.1zm-23 0c.2.1-.2.2 0 0zm32.1 0c0 .2 0 0 0 0zm-8 .1c0 .2.1.1.3.1 0 0 .3.1.1.2a4 4 0 0 1-.6.2c-.2 0 .1-.2 0-.3l.1-.2zm11.2.2s0 .2 0 0zm-.6.4c0 .1-.2.2-.3 0 0 0 .2.2.3 0zm-11 .7c.2 0 .2.1 0 .1-.1 0-.4 0 0 0zm6.5.3.3.2-.6.1-.3.1c.2.1-.2.2-.3.2l-.7-.1c-.2 0-.4-.1-.5-.3 0-.1.3 0 .4 0h1l.5-.2h.2zm3.5.5c.2 0 .3.3.4.1h.2c-.1 0 0 .2-.2.2.1-.2-.2 0-.2-.1H37v-.1h.3zm4.7 0c0 .2 0 .1 0 0zm-8.6.2c.2 0 0 .2 0 0zm8.7 0s.3 0 .2.2c0 0-.2.1-.2 0v-.1zm-15.8 0c.2.2 0 .3-.1.2l.1-.1zm7.8.1s0 .1 0 0zm-7.5 0c.2 0 .2.3.3 0 .1 0 .4.2.1.2h-.4v-.1zm11.4.5c.2 0 .1 0 0 0 0 .1 0 0 .1 0 0 0-.1 0 0 0zm-4.6 0c.2 0 .4 0 .4.2-.2.1-.5.2-.6 0-.1-.2.1-.2.2-.2Zm9 .1c.1 0 .1.2 0 .1-.1 0 0 0 0 0zm-.1 0s-.1.1 0 0zm-9.4 0c.2 0 .2.3 0 .2 0 .1-.3.1-.2 0l.2-.1zm-.7.1.6.3.1.3h-.2l-.7-.4c0-.3.3.2.2-.1zm4.5.3s.1 0 0 0c0 0-.2 0 0 0zm5 0s0 .1 0 0zM38 44zm-.2 0-.2.1h.2zm4 .7s-.1 0 0 0zm-.3 0s.3 0 0 .1v.1l-.5.1c.1.1-.2.2-.3.1-.2 0-.4 0-.6-.2h1l.4-.1zm-.4.5c.2 0 0 0 0 0zm.4 0c.3 0 0 .1 0 0zm-.4.4c.1 0 .4 0 .2.1-.1.1-.5 0-.2-.1zm-.3 0c.2 0 0 .2 0 .2-.2 0-.1-.2 0-.1zm-.4 0 .4.3c0 .1 0 .3-.3 0l-.2-.2s.2.2.1 0z"/><path fill="url(#g)" d="M85.7 45.6C80 44.4 74 43 68.1 42.3c-8.5-.6-16.9 1.5-24.8 4.5l21.1 13.4 21.3-7Z"/><path fill="url(#h)" d="M85.7 53.2a96.2 96.2 0 0 1-42-6.3c-13.9-5-29-9.2-43.7-5.6V62h85.7v-8.7z"/><circle cx="64.1" cy="4.2" r=".9" fill="#d5ff85"/><circle cx="67.5" cy="15.6" r="1.9" fill="#b1fdff"/><circle cx="67.9" cy="23.3" r="1.9" fill="#fffcf4" filter="url(#i)"/><circle cx="59.7" cy="33.4" r=".9" fill="#ffc52b"/><circle cx="59.7" cy="33.4" r=".9" fill="#fffcf4" filter="url(#j)"/><circle cx="77.7" cy="38.2" r=".9" fill="#fffcf4" filter="url(#k)"/><circle cx="63.7" cy="37.5" r=".9" fill="#545a6c"/><circle cx="78.4" cy="21.8" r=".9" fill="#6c6a54"/><circle cx="14.7" cy="23.6" r="1.6" fill="#fffefa" filter="url(#l)" transform="translate(-24.3 -41.7) scale(2.7002)"/><circle cx="64.1" cy="4.2" r=".9" fill="#fffcf4" filter="url(#m)"/><circle cx="67.5" cy="15.6" r="1.9" fill="#fffcf4" filter="url(#n)"/><text x="4.3" y="51.6" stroke-width=".2" font-family="sans-serif" font-size="7" font-weight="400" letter-spacing="-.2" style="line-height:.95" word-spacing="0"><tspan x="4.3" y="51.6" fill="#fff">stellarium</tspan></text><text x="8.9" y="57.1" fill="#8f9091" stroke-width=".1" font-family="sans-serif" font-size="4.2" font-weight="400" letter-spacing="-.1" style="line-height:.95" word-spacing="0"><tspan x="8.9" y="57.1">stellarium.org</tspan></text></svg>