<svg xmlns="http://www.w3.org/2000/svg" xmlns:xlink="http://www.w3.org/1999/xlink" width="324" height="234" viewBox="0 0 324 234"><defs><linearGradient id="d"><stop offset="0" stop-color="#242e4e"/><stop offset="1" stop-color="#242e4e" stop-opacity=".11"/></linearGradient><linearGradient id="c"><stop offset="0" stop-color="#2d3860"/><stop offset="1" stop-color="#41528c"/></linearGradient><linearGradient id="b"><stop offset="0" stop-color="#9164b0"/><stop offset="1" stop-color="#71488d"/></linearGradient><linearGradient id="a"><stop offset="0" stop-color="#242e4e"/><stop offset="1" stop-color="#3a4469"/></linearGradient><linearGradient xlink:href="#a" id="e" x1="0" x2="324" y1="0" y2="234" gradientUnits="userSpaceOnUse"/><linearGradient xlink:href="#b" id="i" x1="85.63" x2="238.37" y1="78.82" y2="78.82" gradientUnits="userSpaceOnUse"/><linearGradient xlink:href="#c" id="h" x1="85.63" x2="238.37" y1="155.18" y2="155.18" gradientUnits="userSpaceOnUse"/><linearGradient xlink:href="#d" id="f" x1="0" x2="324" y1="0" y2="234" gradientUnits="userSpaceOnUse"/><filter id="g" width="1.47" height="1.47" x="-.23" y="-.23" color-interpolation-filters="sRGB"><feGaussianBlur stdDeviation="14.82"/></filter></defs><path fill="url(#e)" d="M0 0h324v234H0z"/><path fill="url(#f)" fill-rule="evenodd" d="M0 0v4.71l50 50L104.71 0H0zm195.29 0L250 54.71 304.71 0H195.3zM150 13.29 79.29 84 150 154.71 220.71 84 150 13.29zm174 26L279.29 84 324 128.71V39.3zm-274 74-50 50v41.42L29.29 234H70.7l50-50L50 113.29zm200 0L179.29 184l50 50h41.42l50-50L250 113.29z" paint-order="markers fill stroke"/><path fill="#141b2e" fill-rule="evenodd" d="M162 40.63 85.63 117 162 193.37 238.37 117Z" filter="url(#g)" paint-order="markers fill stroke"/><path fill="url(#h)" fill-rule="evenodd" d="M238.37 117H85.63L162 193.37Z" paint-order="markers fill stroke"/><path fill="url(#i)" fill-rule="evenodd" d="M162 40.63 85.63 117h152.74Z" paint-order="markers fill stroke"/><path fill="#ebeef6" fill-rule="evenodd" d="m192.58 117-45.16 29.04V87.96Z" paint-order="markers fill stroke"/></svg>