<svg xmlns="http://www.w3.org/2000/svg" xmlns:xlink="http://www.w3.org/1999/xlink" width="324" height="234"><defs><linearGradient id="a"><stop offset="0" stop-color="#080a18"/><stop offset="1" stop-color="#1c2456"/></linearGradient><linearGradient id="e" x1="9.26" x2="58" y1="8.25" y2="35.12" gradientTransform="translate(-332.45 -131.74)" gradientUnits="userSpaceOnUse"><stop offset="0" stop-color="#0067ea"/><stop offset=".47" stop-color="#00d6ea"/><stop offset="1" stop-color="#008bdf"/></linearGradient><radialGradient xlink:href="#a" id="c" cx="162" cy="117" r="162" fx="162" fy="117" gradientTransform="matrix(1 0 0 .722 0 32.5)" gradientUnits="userSpaceOnUse"/><clipPath id="d"><use xlink:href="#b" overflow="visible"/></clipPath><filter id="f" width="1.12" height="1.14" x="-.06" y="-.06" filterUnits="objectBoundingBox"><feOffset dy="1" in="SourceAlpha" result="shadowOffsetOuter1"/><feGaussianBlur in="shadowOffsetOuter1" result="shadowBlurOuter1" stdDeviation="1.5"/><feColorMatrix in="shadowBlurOuter1" result="shadowMatrixOuter1" values="0 0 0 0 0 0 0 0 0 0 0 0 0 0 0 0 0 0 0.2 0"/><feMerge><feMergeNode in="shadowMatrixOuter1"/><feMergeNode in="SourceGraphic"/></feMerge></filter><path id="b" d="M0 0h450v450H0z"/></defs><path fill="url(#c)" d="M0 0h324.03v234H0Z"/><path fill="#184dcd" d="M324 201.63v1.39l-1.13-.84z"/><g fill="#f9f9f9"><path d="m450.73 184.95-2.88-1.38c.21-.2.4-.43.54-.69l.07-.14v.02l7.9-16.41-.57-.27-7.26 15.1c-.1-.32-.3-.62-.55-.88a4.37 4.37 0 0 0-1.25-.9c-.93-.46-2-.64-3-.6a4.9 4.9 0 0 0-3.1 1.3l-2.14-1.04-.23.47 2 .96c-.33.45-.52.97-.44 1.54.15.92 1 1.66 1.9 2.12a6 6 0 0 0 2.98.64 5.3 5.3 0 0 0 2.7-.87l3.1 1.5zm-9.3-4.66c.8-.26 1.63-.4 2.47-.43.85-.04 1.71.01 2.55.24.82.21 1.66.7 1.88 1.49.07.76-.55 1.3-1.23 1.62l-5.87-2.83zm3.1 3.47c-.84.04-1.7 0-2.56-.2a3.5 3.5 0 0 1-1.19-.55c-.34-.26-.6-.61-.67-1-.07-.38.06-.77.32-1.06.08-.1.17-.17.27-.25l5.72 2.75c-.6.18-1.24.27-1.88.3zm-69.26 102.2 2.46 1.73c-.23.15-.44.33-.61.55-.04.03-.06.08-.09.12v-.02l-9.84 13.98.48.34 9.06-12.87c.04.31.17.62.36.9.27.4.63.74 1.02 1.03.8.57 1.76.9 2.7 1.01a4.61 4.61 0 0 0 3.07-.71l1.82 1.28.28-.4-1.7-1.2c.37-.36.63-.81.64-1.35 0-.88-.67-1.7-1.43-2.26a5.58 5.58 0 0 0-2.66-1.05 4.9 4.9 0 0 0-2.64.38l-2.64-1.86zm7.9 5.75c-.77.15-1.57.1-2.36.02a7.72 7.72 0 0 1-2.32-.61c-.73-.33-1.43-.91-1.51-1.67.05-.72.7-1.13 1.38-1.31l5 3.52-.2.05zm-2.35-3.69c.8.1 1.6.26 2.35.59.37.17.73.4 1.01.68.28.3.47.66.47 1.03s-.17.7-.46.94c-.08.07-.18.13-.28.19l-4.88-3.44c.6-.06 1.2-.06 1.8.01zM96.84 398.56c2.5-4.13 4.52-7.33 12.5-13.6-11.82 14.88-13.56 26.02-8.25 38.58 1.88 4.42 8.02 8.03 13.75 5.56 1.25-.54 5.77-1.79 6.88-8.9-2.97 4.65-10.16 1.67-8.99-3.71 1.18-5.39 8.96-5.1 9.72.37l.12-.15a13.3 13.3 0 0 1-1.58 11 15.72 15.72 0 0 1-7.44 6.04c-10.43 3.77-15.98-4.04-17.5-6.67-6-10.34-3.3-21.78.8-28.52zm-5.78 39.6c3.91-1.58 1.54-7.45-2.37-5.87-3.9 1.58-1.54 7.44 2.37 5.86zm-5.58-13.82c3.91-1.58 1.54-7.45-2.37-5.87s-1.54 7.45 2.37 5.87zm333.19-181.69c.7 3.01-3.82 4.06-4.52 1.05-.7-3.01 3.82-4.06 4.52-1.05zm-1.3 4.68c-4.65 1.07-9.04.31-11.48-1.69 1.59 3.38 6.63 5.1 11.98 3.87 5.34-1.23 9.13-4.98 9.08-8.72-1.32 2.87-4.93 5.47-9.58 6.54zm-85.12-94.37-.52-.23-5.96 13.9c-.1-.28-.29-.55-.52-.77a3.91 3.91 0 0 0-1.16-.77c-.86-.37-1.8-.5-2.74-.41a4.4 4.4 0 0 0-2.41.96c-.63.52-1.14 1.26-.98 2.1.17.82.97 1.45 1.8 1.83.84.4 1.8.54 2.7.46a4.7 4.7 0 0 0 2.46-.92c.33-.26.6-.57.8-.94l.05-.13v.02zm84.82 77.8.23.3 8.15-6.16c-.04.2-.02.42.05.63.08.3.23.58.42.84.38.51.9.9 1.47 1.16a3 3 0 0 0 1.73.24c.55-.1 1.1-.36 1.28-.9.18-.54-.08-1.18-.44-1.68a3.65 3.65 0 0 0-1.44-1.18 3.17 3.17 0 0 0-1.74-.28c-.28.04-.55.13-.78.28l-.08.07v-.02zM446.36 98.6l.76-.21-5.53-20.28c.36.21.8.35 1.24.39.64.06 1.3-.01 1.93-.18 1.25-.34 2.4-1 3.33-1.9a6.13 6.13 0 0 0 1.8-3.14c.23-1.11.15-2.36-.74-3.12-.9-.76-2.32-.76-3.55-.46a7.4 7.4 0 0 0-3.34 1.85 6.61 6.61 0 0 0-1.88 3.11 4.03 4.03 0 0 0-.06 1.72c.01.07.04.13.06.2l-.02-.03zm-5-23.74a9.63 9.63 0 0 1 1.9-2.47c.77-.73 1.61-1.42 2.6-1.92a4.3 4.3 0 0 1 1.57-.46 2.1 2.1 0 0 1 1.46.4c.38.3.57.78.56 1.27.01.48-.16.98-.4 1.44-.5.91-1.23 1.7-1.98 2.44-.77.73-1.63 1.4-2.61 1.86-.96.47-2.16.7-3.01.13-.74-.7-.54-1.81-.1-2.7zM305.8 130c-3.96-4.44-6.54-.91-9.85-1.87l-.34-.44-.43.34 11.02 14.12.02.02a2 2 0 0 0-.87.08 3.8 3.8 0 0 0-1.18.62 5.33 5.33 0 0 0-1.61 2.1c-.35.8-.47 1.68-.31 2.47.15.77.53 1.54 1.3 1.8.77.23 1.68-.14 2.38-.66a5.16 5.16 0 0 0 1.63-2.07c.34-.8.5-1.67.37-2.48-.08-.52-.31-1-.67-1.39l-4.8-6.16c1.96.51 3.48-3.1 10.04 3a188.1 188.1 0 0 0-6.7-9.48zm-.59.9c-2.51-.96-4.55.75-6.96.18l-.5-.65c1.95.53 3.46-2.16 7.46.46zm-4.67 3.12-.46-.59c1.85.6 3.4-2.54 7.7.7-2.69-1.4-4.72.44-7.24-.1zm-12.5 40.01c3.22-8.02-3.03-9.1-3.92-14.02l.35-.73-.72-.34-11.26 23.44v.04a2.8 2.8 0 0 0-.68-1.08 5.47 5.47 0 0 0-1.56-1.13 7.74 7.74 0 0 0-3.78-.75 6.16 6.16 0 0 0-3.4 1.2c-.9.69-1.66 1.68-1.5 2.84.2 1.16 1.26 2.1 2.4 2.67 1.14.6 2.47.85 3.73.8a6.53 6.53 0 0 0 3.46-1.13c.47-.34.89-.77 1.17-1.26.1-.16.15-.33.2-.5l4.92-10.22c.6 2.87 6.3 2.53 2.58 15 1.27-1.95 7.49-13.5 8.01-14.83zm-1.54-.2c-.39-3.87-3.92-5.43-4.73-8.93l.51-1.07c.58 2.89 5.04 3.11 4.22 10zm-7.09-4.04.48-.99c.42 2.8 5.5 2.8 4.05 10.47.08-4.4-3.61-5.85-4.53-9.48zm125.85-59.31c2.23-5.57-2.1-6.32-2.72-9.73l.24-.5-.5-.24-7.81 16.26v.03a2.2 2.2 0 0 0-.47-.75c-.3-.32-.68-.58-1.09-.78a5.37 5.37 0 0 0-2.61-.52c-.88.05-1.73.33-2.37.83-.63.48-1.15 1.17-1.03 1.98.13.8.87 1.45 1.65 1.85.8.4 1.72.59 2.6.55a4.6 4.6 0 0 0 2.4-.78c.33-.24.61-.54.8-.88.07-.1.12-.23.15-.35l3.42-7.09c.41 2 4.36 1.76 1.78 10.41.88-1.36 5.2-9.38 5.56-10.29zm-1.07-.14c-.27-2.69-2.72-3.77-3.28-6.2l.35-.74c.4 2 3.5 2.16 2.93 6.94zm-4.92-2.8.33-.7c.3 1.95 3.82 1.95 2.81 7.27.06-3.05-2.5-4.05-3.14-6.58zM162.92 374.79l.56-.95-.6-.32-10.94 18.36a2.44 2.44 0 0 0-.46-.9 4.53 4.53 0 0 0-1.2-1.04c-.92-.56-2-.85-3.04-.89a5.06 5.06 0 0 0-2.88.73c-.8.5-1.49 1.26-1.43 2.23.07.96.88 1.8 1.76 2.36.9.57 1.97.88 3.01.92a5.38 5.38 0 0 0 2.91-.66c.42-.25.8-.57 1.06-.95l.13-.23 6.77-11.36c-.6 3.45 4.21 5.05 1.73 11.23l5.98-10.06c.72-3.52-3.02-4.7-3.36-8.47zm-2.7 4.53.87-1.47c-.15 2.41 3.6 2.87 2.41 8.33-.37-2.76-2.97-4.08-3.28-6.86zM393.15 253.1l.29-.85-.54-.16-5.66 16.5a2 2 0 0 0-.52-.64 3.72 3.72 0 0 0-1.13-.62 5.21 5.21 0 0 0-2.58-.2c-.84.14-1.62.51-2.18 1.06-.55.54-.98 1.26-.77 2.02.22.76 1 1.3 1.8 1.6a4.98 4.98 0 0 0 4.78-.8c.34-.3.6-.7.75-1.13l3.5-10.22c.11 2.86 4.22 3.34 3.27 8.69l3.1-9.04c-.02-2.93-3.2-3.25-4.11-6.2zm-1.4 4.08.45-1.32c.29 1.95 3.36 1.68 3.33 6.25-.77-2.15-3.06-2.77-3.78-4.93zM185.8 139.05l5.71 11.3 1.66 3.28 15.82-8.02-1.67-3.28-5.4-10.64-.07-.06c.26.1.56.13.86.1.46-.03.91-.17 1.34-.36a5.53 5.53 0 0 0 2.11-1.77c.53-.73.85-1.6.87-2.43.03-.82-.19-1.69-.91-2.11-.73-.42-1.73-.25-2.56.12-.85.38-1.6 1-2.13 1.73-.53.7-.86 1.55-.93 2.43-.02.42.03.84.18 1.21.06.18.16.34.28.48l5.85 11.56-14.8 7.5-5.26-10.38-.07-.06c.26.09.56.13.86.1.46-.03.91-.17 1.34-.36a5.54 5.54 0 0 0 2.1-1.77c.54-.73.86-1.6.88-2.43.03-.81-.19-1.68-.91-2.11-.73-.42-1.73-.25-2.56.12-.85.38-1.6 1-2.13 1.73-.53.7-.86 1.55-.93 2.43-.02.42.03.84.18 1.21.06.18.16.34.28.48zm-6.12 205.35.13-.83-.12.02.33-2.27h.03l.57-3.83-19.64 2.01-.23-.02-2.44 16.55.04.1a2.31 2.31 0 0 0-.71-.64 4.31 4.31 0 0 0-1.43-.52 6 6 0 0 0-3 .24 4.9 4.9 0 0 0-2.32 1.62c-.54.72-.9 1.64-.52 2.47.38.84 1.4 1.32 2.36 1.51 1 .2 2.06.12 3-.2a5.1 5.1 0 0 0 2.37-1.58c.28-.36.5-.77.61-1.2.06-.2.07-.4.05-.6l1.6-10.84 18.57-1.9-1.48 10.05.03.1a2.3 2.3 0 0 0-.71-.64 4.33 4.33 0 0 0-1.42-.52c-1-.17-2.04-.09-3 .24a4.8 4.8 0 0 0-2.33 1.63c-.54.71-.9 1.62-.52 2.46.39.84 1.4 1.32 2.37 1.51 1 .2 2.05.12 3-.2.92-.3 1.74-.84 2.36-1.58.29-.36.51-.77.62-1.2.05-.2.06-.4.04-.6l1.67-11.32zm-19.19 1.09.33-2.2 9.28-.95 9.28-.95-.33 2.26zM368.2 148.52l.01-7.1h.02v-1.89l-9.33 2.36-.11.01v8.15l.02.05c-.1-.1-.24-.2-.39-.26a2.1 2.1 0 0 0-.72-.15c-.5-.02-1 .11-1.43.33-.43.22-.8.56-1 .95-.22.38-.32.85-.08 1.23.24.37.76.53 1.25.56.5.02 1-.1 1.43-.31.43-.22.8-.54 1.03-.93.1-.2.19-.41.2-.63a.8.8 0 0 0-.01-.3v-6.86l8.82-2.23v6.48l.02.04c-.1-.1-.24-.2-.39-.25-.22-.1-.47-.14-.72-.15-.5-.02-1 .1-1.43.33-.43.22-.8.55-1 .94-.21.39-.32.85-.08 1.23s.76.54 1.25.56c.5.03 1-.09 1.43-.3.43-.23.8-.55 1.03-.94.17-.28.23-.6.19-.92z" clip-path="url(#d)" opacity=".85" transform="matrix(.72 0 0 .609 -.07 -40.09)"/><g clip-path="url(#d)" opacity=".85" transform="matrix(.72 0 0 .609 -.07 -40.09)"><path d="M164.16 141.64h.47V158h-.47zm5.34-.6h.47v16.36h-.47z"/><path d="m162.3 147.6 9.36-2.41.16.6-9.37 2.41zm0 5.64 9.36-2.4.15.6-9.36 2.4z"/></g><g clip-path="url(#d)" opacity=".85" transform="matrix(.72 0 0 .609 -.07 -40.09)"><path d="M303.1 321.96h.47v16.36h-.47zm5.34-.61h.47v16.36h-.47z"/><path d="m301.24 327.92 9.36-2.43.16.6-9.36 2.43zm0 5.64 9.36-2.42.16.6-9.36 2.42z"/></g><path d="m259.48 153.42-.02-6.15h-.67l.04 12.22 5.02-2.52-.02 6.11h.68l.02-12.2zm.02 5.04-.02-4.35 4.37-2.2v4.37zm180.24 51.53-.03-5.43h-.6l.05 10.8 4.43-2.23v5.4h.59l.02-10.79zm.01 4.46-.01-3.85 3.86-1.94v3.86zM426.13 65.9c2.02.48 3.59 2.97 3.3 4.23-.35 1.45-1.33 2.16-1.65 3.08-.97 2.72 2.14 4.43 2.29 4.5-1.06.2-2.22.23-2.71 1.43-.45 1.08-.25 2.05-.08 3.14-1-.47-2.24-1.24-2.3-2.85-.08-1.8.93-1.98 1.94-2.71-1.12-.13-2.05-1.62-2.34-2.75-.3-1.2.15-2.18.75-3.2.86-1.47 1.44-2.97.8-4.75zM136.01 348.12c3.57-5.46-.9-7.2-.82-10.97l.37-.48-.48-.36-11.82 15.67v.04a2.2 2.2 0 0 0-.35-.9c-.25-.42-.6-.77-.99-1.08a5.84 5.84 0 0 0-2.68-1.1 4.62 4.62 0 0 0-2.7.37c-.77.38-1.48 1-1.52 1.89-.04.88.62 1.73 1.36 2.33.77.6 1.71 1 2.66 1.14.94.14 1.9.05 2.72-.32.4-.18.77-.44 1.05-.76.1-.1.17-.22.23-.34l5.16-6.83c.02 2.21 4.28 2.8-.32 11.48 1.23-1.26 7.55-8.89 8.13-9.78zm-1.11-.38c.3-2.93-2.1-4.6-2.18-7.32l.54-.72c0 2.23 3.27 3.06 1.64 8.04zm-4.64-4.05.5-.66c-.11 2.14 3.65 2.89 1.44 8.35.71-3.24-1.8-4.86-1.94-7.69zM92.37 134.33l10.9-4.93.02.02 2.9-1.31-10.12-12.68-.08-.17-12.52 5.66-.06.07c.1-.24.14-.5.13-.78a3.57 3.57 0 0 0-.27-1.2 5 5 0 0 0-1.5-1.98c-.64-.5-1.4-.83-2.16-.88-.73-.06-1.52.1-1.93.73-.4.64-.3 1.55 0 2.31.3.78.84 1.47 1.47 1.98.64.5 1.39.86 2.15.94.37.03.75 0 1.1-.11.16-.05.3-.14.44-.24L93.39 117l9.56 12-9.95 4.5-.06.06c.1-.23.14-.5.13-.77a3.56 3.56 0 0 0-.28-1.22 5 5 0 0 0-1.5-1.97c-.64-.5-1.4-.83-2.15-.88-.73-.05-1.53.1-1.94.74-.4.64-.28 1.54.01 2.3a4.69 4.69 0 0 0 3.61 2.92c.38.04.76.01 1.1-.1.17-.06.31-.14.45-.24zM360.6 277.72l-11.23-8.98-3.26-2.61-12.55 15.72 3.26 2.6 10.58 8.46.11.02c-.32.03-.65.14-.94.3-.46.25-.86.6-1.2 1a6.39 6.39 0 0 0-1.36 2.82 5 5 0 0 0 .24 2.93c.36.85 1 1.65 1.94 1.75.95.09 1.9-.56 2.58-1.33a6.1 6.1 0 0 0 1.39-2.79c.2-1 .17-2.04-.18-2.94a3.3 3.3 0 0 0-.76-1.18 1.71 1.71 0 0 0-.51-.35l-11.5-9.2 11.76-14.7 10.32 8.25.11.02c-.32.03-.64.14-.94.3-.45.25-.86.6-1.2 1.01a6.2 6.2 0 0 0-1.36 2.81 5 5 0 0 0 .24 2.93c.36.85 1 1.65 1.94 1.75.95.09 1.9-.56 2.58-1.33a6.1 6.1 0 0 0 1.39-2.78c.2-1 .17-2.05-.18-2.95a3.29 3.29 0 0 0-.76-1.18 1.7 1.7 0 0 0-.51-.35zm-48.48 25.78.23.37.04-.04.6.99v.01l1.02 1.67 6.98-7.19.1-.06-4.45-7.23-.04-.03c.15.04.31.05.48.02.25-.04.5-.14.72-.27a3.1 3.1 0 0 0 1.1-1.07c.26-.43.4-.92.37-1.39-.03-.45-.19-.92-.6-1.13-.43-.2-.98-.05-1.42.19-.45.24-.84.62-1.1 1.05-.26.42-.4.9-.4 1.4 0 .23.05.46.15.66.04.1.1.18.18.25l2.91 4.74-6.6 6.8-2.7-4.4-.05-.03c.15.04.32.05.48.02.25-.04.5-.14.73-.26a3.1 3.1 0 0 0 1.09-1.08c.26-.43.4-.92.37-1.39-.03-.45-.18-.92-.6-1.13-.43-.2-.97-.05-1.41.2a3 3 0 0 0-1.1 1.04c-.27.42-.41.9-.41 1.4 0 .23.05.46.15.66.05.1.1.18.18.25l3.04 4.94zm7.11-6.67.6.96-6.6 6.8-.62-1z" clip-path="url(#d)" opacity=".85" transform="matrix(.72 0 0 .609 -.07 -40.09)"/><g clip-path="url(#d)" transform="matrix(.72 0 0 .609 -.07 -40.09)"><path d="m-97.53 230.3-.76-8.65c95.56-112.04 171.48-85.94 251.87-58.3 89.64 30.82 182.34 62.7 311.89-93.53l.77.64c-58.18 70.16-114.37 108.49-171.78 117.19-50.88 7.7-96.8-6.08-141.2-21.35-80.06-27.53-155.67-47.52-250.8 64Z"/></g><g clip-path="url(#d)" transform="matrix(.72 0 0 .609 -.07 -40.09)"><path d="m-74.11 302.06-.84-6.55c81.2-122.84 159.74-106.19 242.9-88.55 92.73 19.66 188.62 40 298.16-130.84l.84.54c-49.19 76.72-100.29 121.61-156.22 137.24-49.56 13.85-97.06 6.78-143-2.96-82.8-17.56-161.02-31.15-241.84 91.13Z"/></g><g clip-path="url(#d)" transform="matrix(.72 0 0 .609 -.07 -40.09)"><path d="m-40.49 370.47-2.9-6.45c65.62-131.82 145.61-124.86 230.3-117.5 94.44 8.23 192.1 16.72 280-166.2l.9.44c-39.48 82.14-84.73 132.93-138.34 155.26-47.5 19.79-95.87 17.58-142.65 13.5-84.33-7.33-162-10.27-227.3 120.95z"/></g><g clip-path="url(#d)" transform="matrix(.72 0 0 .609 -.07 -40.09)"><path d="m-2.13 433.53-1.94-7.33C45 287.36 125.23 284.52 210.18 281.5c94.74-3.35 192.7-6.81 257.66-199.08l.95.32C439.61 169.09 400.88 225 350.4 253.7c-44.74 25.43-93.26 28.14-140.2 29.8-84.59 3-163.5 11.82-212.34 150.02z"/></g><g clip-path="url(#d)" transform="matrix(.72 0 0 .609 -.07 -40.09)"><path d="m48.38 478.34-5.97-.21C74.18 334.34 153.48 321.75 237.43 308.4c93.62-14.88 190.44-30.25 231.47-229l.98.2c-18.43 89.25-50.04 149.48-96.66 184.11-41.3 30.7-89.26 40.31-135.63 47.68-83.6 13.28-157.57 23.82-189.2 166.94z"/></g><g clip-path="url(#d)" transform="matrix(.72 0 0 .609 -.07 -40.09)"><path d="M430.12 152.72h.49v17.32h-.49zm5.65-.65h.49v17.32h-.49z"/><path d="m428.16 159.04 9.92-2.56.16.64-9.91 2.56zm0 5.99 9.91-2.56.17.64-9.92 2.56z"/></g><g clip-path="url(#d)" transform="matrix(.72 0 0 .609 -.07 -40.09)"><path d="m301.27 245.23 14.86-8.89.25.42-14.86 8.9zm3.45 4.5 14.88-8.86.25.42-14.88 8.86z"/><path d="m309.28 238.39.46-.47 7.28 7.2-.46.47zm-5.14 3.01.46-.47 7.27 7.21-.46.47z"/></g><g clip-path="url(#d)" transform="matrix(.72 0 0 .609 -.07 -40.09)"><path d="m94.2 185.98-.04-9.91h-1.08l.07 19.72 8.1-4.07-.03 9.86h1.09l.04-19.7zm.03 8.14-.02-7.02 7.05-3.54-.01 7.04z"/></g><g clip-path="url(#d)" transform="matrix(.72 0 0 .609 -.07 -40.09)"><path d="M66.96 306.71c-5.42-6.2-20.54-30.72 4.55-41.5 10.05-4.32 20.81-.56 26.16 5.51 5.5 6.22 14.5 32.37-13.5 45.2-11.85 5.44-32.42 4.47-42.74-2.81-35.04-24.73-9.4-57.82-6.36-62.52 11.25-17.43 59.32-52.45 35.09-116.14-2.2-5.8-5.95-11.95-11.94-15-10.62-5.41-19.38 2.97-24.09 11.03-5.8 9.94-5.52 29.62-3.06 40.17 8.49 36.4 27.9 71.19 28.85 73.6 1.64 4.14 19.29 40.69 20.63 43.21 21.4 40.19 24.16 55.44 24.38 69.52.25 16.46-21.97 32.23-36.15 18.9 4.12-.26 13.68-6.64 11.09-16.33-3.36-12.55-15.98-13.1-24.53-7.42-8.14 5.39-8.32 17.3-.96 25.5 8.37 9.32 30.3 12.08 44.03 2.97 30.24-20.1-8.61-86.49-14.78-98.1-6.91-13.03-44.82-85.83-46.78-117.73-1-16.06 9.14-33.31 19.3-27.4 11 6.38 11.53 21.88 11.1 27.43-1.39 17.84-11.84 33.51-23.61 47.3-11.43 13.38-24.73 29.76-30.8 45.99-6.63 17.73-.57 43.89 15.49 56.22 5.47 4.2 18.87 12.6 37.02 11.83 27.15-1.15 62.27-18.98 53.34-54.63-7.85-31.35-49.55-32.82-66.84-14.23-3.93 4.23-7.04 9.65-8.26 15.33-3.24 15.1 6.94 32.8 23.37 34.1z"/></g><g clip-path="url(#d)" transform="matrix(.72 0 0 .609 -.07 -40.09)"><path d="M170.55 314.87c-.1-.04-.22-.05-.32-.08h.04l-35.84-9.27-.32 1.23 32.99 8.52c-.6.33-1.13.83-1.55 1.43-2.76 4.6-1.79 10.9 1.67 14.13.26.23.54.44.83.64l-1.2 4.66 1 .26 1.13-4.37c8.8 3.64 10.18-19 1.57-17.15zm-2.42 14.91c-1.99-3.69-4.2-12.05-.14-14.27 6.74.2 1.64 9.81.4 14.63-.1-.12-.18-.24-.26-.36zm1.71 1.73a3.75 3.75 0 0 1-.61-.44c3.05-23.37 10.68 2.94.61.44z"/></g><g clip-path="url(#d)" transform="matrix(.72 0 0 .609 -.07 -40.09)"><path d="m393.22 157.05 1.26 2.56-15.64 7.7.3.6 15.64-7.7.79 1.6a5.76 5.76 0 0 0 .78 1.6l3.4 6.92.5-.25-2.58-5.26.37.3c.9.63 1.96 1 2.97 1.01 1 .02 2.04-.26 2.55-1.14.5-.9.26-2.1-.2-3.1a6.5 6.5 0 0 0-2.13-2.56 5.69 5.69 0 0 0-2.96-1.08 3.48 3.48 0 0 0-1.48.24l-.16.07.02-.02-1.66.82-1.26-2.56zm5.04 2.06c.85.25 1.66.7 2.42 1.22a9.52 9.52 0 0 1 2.06 1.9c.3.38.53.8.66 1.27.12.45.1.93-.1 1.3-.2.38-.57.62-.99.7-.41.08-.86.02-1.3-.11a9.2 9.2 0 0 1-2.4-1.29 8.97 8.97 0 0 1-2.03-1.92c-.55-.73-.94-1.72-.6-2.54.47-.75 1.45-.76 2.28-.53zm-2.73.74a1.8 1.8 0 0 0-.1.4l-.15-.28z"/></g><g clip-path="url(#d)" transform="matrix(.72 0 0 .609 -.07 -40.09)"><path d="m122.84 183.11-.03 1.27 34.06.84c-.5.45-.91 1.06-1.18 1.74a8.9 8.9 0 0 0-.62 3.07 12.6 12.6 0 0 0 1.41 6.07 9.94 9.94 0 0 0 4.03 4.24c1.63.88 3.6 1.33 5.2.3 1.6-1.04 2.25-3.24 2.36-5.3.1-2.09-.4-4.23-1.33-6.05a10.54 10.54 0 0 0-3.96-4.36 6.54 6.54 0 0 0-2.64-.88c-.1-.02-.21 0-.32 0l.04-.02z"/></g><g clip-path="url(#d)" transform="matrix(.72 0 0 .609 -.07 -40.09)"><path d="m464 96.73-.28-.6-15.16 7.13c.11-.33.15-.7.11-1.08a4.96 4.96 0 0 0-.44-1.58 6.92 6.92 0 0 0-2.05-2.54 5.05 5.05 0 0 0-2.76-1.1c-.92-.06-1.9.17-2.35 1-.46.85-.23 2.02.2 3.01a6.9 6.9 0 0 0 2 2.55c.84.65 1.8 1.1 2.76 1.17.48.05.95 0 1.37-.16l.14-.07-.01.01z"/></g><g clip-path="url(#d)" transform="matrix(.72 0 0 .609 -.07 -40.09)"><path d="m371.17 135.37-.7.21 5.65 19.02a2.7 2.7 0 0 0-1.18-.34 5.2 5.2 0 0 0-1.8.2 7.29 7.29 0 0 0-3.11 1.88 5.77 5.77 0 0 0-1.63 3c-.2 1.05-.09 2.23.77 2.93.86.7 2.2.66 3.36.35a7.05 7.05 0 0 0 3.11-1.82 6.14 6.14 0 0 0 1.7-2.98c.12-.54.14-1.1.02-1.62l-.06-.18.02.02z"/></g><g clip-path="url(#d)" transform="matrix(.72 0 0 .609 -.07 -40.09)"><path d="m373.89 231.32-.73-.14-3.75 19.15a2.7 2.7 0 0 0-.88-.84 5.32 5.32 0 0 0-1.7-.65 7.42 7.42 0 0 0-3.63.2c-1.14.35-2.15 1-2.82 1.86-.66.83-1.1 1.9-.67 2.9.45 1 1.65 1.6 2.81 1.86 1.2.26 2.47.2 3.6-.16a6.1 6.1 0 0 0 2.89-1.8c.35-.42.63-.9.76-1.41l.04-.18v.02z"/></g><g clip-path="url(#d)" transform="matrix(.72 0 0 .609 -.07 -40.09)"><path d="m422.28 149.2-.73-.1-2.77 19.31a2.63 2.63 0 0 0-.92-.79 5.29 5.29 0 0 0-1.74-.56 7.42 7.42 0 0 0-3.6.38 5.74 5.74 0 0 0-2.72 2c-.62.87-1.01 1.97-.53 2.95.5.97 1.73 1.5 2.91 1.7 1.2.2 2.48.06 3.6-.34a6.1 6.1 0 0 0 2.78-1.95c.33-.44.58-.93.69-1.45l.02-.18v.02z"/></g><g clip-path="url(#d)" transform="matrix(.72 0 0 .609 -.07 -40.09)"><path d="m330.34 228.33-.8.43L343.18 254c-.49-.2-1.03-.3-1.56-.25a5.4 5.4 0 0 0-2.15.64 7.82 7.82 0 0 0-3.14 3.19 7.87 7.87 0 0 0-.94 4.46c.14 1.5.68 3.1 1.98 3.92 1.3.79 2.93.5 4.23-.16a7.6 7.6 0 0 0 3.18-3.12 8.27 8.27 0 0 0 1.03-4.45 6.29 6.29 0 0 0-.55-2.25l-.13-.24.02.02zm14.27 29.86a11.2 11.2 0 0 1-1.3 3.62 11.51 11.51 0 0 1-2.3 3.04 4.2 4.2 0 0 1-1.63.94c-.6.16-1.27.12-1.81-.2a2.5 2.5 0 0 1-1.11-1.54 4.46 4.46 0 0 1-.06-1.97c.25-1.3.8-2.48 1.4-3.6a10.72 10.72 0 0 1 2.33-2.98c.92-.81 2.22-1.36 3.4-.8 1.1.76 1.28 2.25 1.08 3.5z"/></g><g clip-path="url(#d)" transform="matrix(.72 0 0 .609 -.07 -40.09)"><path d="m401.44 145.94.64.11 3.77-20.44c.18.34.45.64.77.86.45.3.97.5 1.5.61 1.08.21 2.2.04 3.23-.37a5.68 5.68 0 0 0 2.55-2.1c.6-.9 1.03-2.06.67-3.1-.38-1.04-1.43-1.62-2.47-1.84a5.5 5.5 0 0 0-3.2.32 6 6 0 0 0-2.61 2.05c-.32.45-.58.97-.71 1.52-.02.06-.02.13-.03.19l-.01-.02zm5.5-23.34a8.3 8.3 0 0 1 2.38-1.45 8.34 8.34 0 0 1 2.67-.68c.46-.02.93.03 1.35.22.42.18.77.5.93.94.16.43.13.93-.07 1.36-.18.45-.5.82-.86 1.14a9.1 9.1 0 0 1-2.42 1.4c-.86.35-1.76.6-2.67.62-.9.04-1.87-.24-2.29-1.09-.28-.93.3-1.85.98-2.46z"/></g><g clip-path="url(#d)" transform="matrix(.72 0 0 .609 -.07 -40.09)"><path d="m133.88 121.06.5-2.04-1-.18-9.45 39.58a3.5 3.5 0 0 0-.97-1.28 5.12 5.12 0 0 0-2.08-1.04 7.55 7.55 0 0 0-4.66.44 8.85 8.85 0 0 0-3.89 3.18c-.96 1.4-1.7 3.2-1.3 4.87.43 1.65 1.88 2.6 3.33 3 1.5.42 3.13.26 4.64-.35a9.23 9.23 0 0 0 3.95-3.1 7.8 7.8 0 0 0 1.3-2.85l5.87-24.5c.31 6.49 7.75 6.14 6.28 18.67l5.18-21.67c-.16-6.68-5.93-6.31-7.7-12.73zm-2.33 9.77.75-3.17c.6 4.36 6.14 2.7 6.29 13.1-1.48-4.63-5.66-5.24-7.04-9.93z"/></g><g clip-path="url(#d)" transform="matrix(.72 0 0 .609 -.07 -40.09)"><path d="m341.74 151.21-.05-1.02-.49.05.93 19.88a1.9 1.9 0 0 0-.63-.47 2.52 2.52 0 0 0-1.12-.2 3.7 3.7 0 0 0-2.13.83 4.42 4.42 0 0 0-1.4 2.02c-.26.8-.36 1.74.06 2.47.42.72 1.23.97 1.97.96.75 0 1.5-.3 2.13-.8a4.52 4.52 0 0 0 1.44-1.99 3.79 3.79 0 0 0 .22-1.52l-.57-12.3c1.03 3 4.48 1.83 5.49 7.92l-.5-10.89c-.99-3.11-3.65-2.16-5.35-4.94zm.23 4.91-.08-1.59c.88 1.96 3.25.43 4.73 5.3-1.32-1.97-3.37-1.7-4.65-3.7z"/></g><g clip-path="url(#d)" transform="matrix(.72 0 0 .609 -.07 -40.09)"><path d="m437.06 114.69-.16-1.01-.48.1 3.07 19.67c-.2-.19-.43-.33-.68-.4a2.51 2.51 0 0 0-1.13-.09c-.76.1-1.46.5-2.03 1.06-.57.56-1 1.33-1.17 2.16-.18.82-.18 1.77.32 2.45.5.67 1.33.83 2.06.74a3.55 3.55 0 0 0 2.03-1.02 4.51 4.51 0 0 0 1.22-2.14 3.79 3.79 0 0 0 .06-1.53l-1.9-12.17c1.35 2.87 4.65 1.34 6.31 7.28l-1.67-10.77c-1.32-2.99-3.86-1.75-5.85-4.33zm.75 4.86-.24-1.58c1.08 1.86 3.27.08 5.27 4.77-1.52-1.83-3.53-1.33-5.03-3.2z"/></g><g clip-path="url(#d)" transform="matrix(.72 0 0 .609 -.07 -40.09)"><path d="m392.9 228.64.11 1.02.48-.08-2.16-19.78c.19.2.41.34.66.43.36.14.75.17 1.13.14a3.7 3.7 0 0 0 2.07-.97 4.33 4.33 0 0 0 1.27-2.1c.21-.82.25-1.77-.2-2.47-.48-.69-1.3-.89-2.03-.83a3.5 3.5 0 0 0-2.08.93 4.53 4.53 0 0 0-1.31 2.07c-.12.41-.19.85-.16 1.29l.03.24 1.33 12.25c-1.21-2.94-4.58-1.55-5.97-7.56l1.19 10.83c1.17 3.05 3.77 1.93 5.64 4.6zm-.53-4.88.17 1.58c-1-1.9-3.27-.23-5.05-5 1.44 1.9 3.46 1.49 4.88 3.42z"/></g><g clip-path="url(#d)" transform="matrix(.72 0 0 .609 -.07 -40.09)"><path d="m428.52 208.2-5.96-13.25.03-.02-1.58-3.52-15.43 12.24-.2.1 6.84 15.22.08.07a2.28 2.28 0 0 0-.94-.16c-.5.01-1 .14-1.48.33a6.08 6.08 0 0 0-2.4 1.82 4.8 4.8 0 0 0-1.08 2.6c-.06.9.13 1.86.9 2.36.77.5 1.87.35 2.8 0 .94-.37 1.79-1 2.4-1.78a5.1 5.1 0 0 0 1.15-2.6c.05-.46.01-.92-.13-1.34-.06-.2-.16-.38-.29-.54l-5.76-12.82 14.6-11.57 5.43 12.1.08.06a2.3 2.3 0 0 0-.94-.15c-.5.01-1 .14-1.47.33a6.06 6.06 0 0 0-2.4 1.81 4.82 4.82 0 0 0-1.08 2.62c-.06.89.12 1.85.9 2.35.77.5 1.87.35 2.8 0a5.91 5.91 0 0 0 2.4-1.78 5.12 5.12 0 0 0 1.14-2.6 3.1 3.1 0 0 0-.13-1.34 1.7 1.7 0 0 0-.28-.54z"/></g><g clip-path="url(#d)" transform="matrix(.72 0 0 .609 -.07 -40.09)"><path d="M115.24 220.64c5.38-.49 11.29 4.35 11.6 7.67.36 3.85-1.47 6.42-1.5 8.94-.12 7.5 8.94 9.14 9.36 9.19-2.45 1.35-5.27 2.38-5.5 5.75-.2 3.04 1.1 5.24 2.43 7.78-2.85-.32-6.55-1.19-8.04-5.08-1.68-4.38.67-5.67 2.55-8.3-2.88.61-6.39-2.28-8.03-4.83-1.72-2.68-1.42-5.47-.8-8.45.9-4.35 1.08-8.53-1.98-12.38z"/></g><g clip-path="url(#d)" transform="matrix(.72 0 0 .609 -.07 -40.09)"><path d="M235.34 156.11c.15-1.18-.04-2.48-1.03-3.2-1-.7-2.47-.59-3.72-.17a7.8 7.8 0 0 0-3.33 2.2z"/></g><g clip-path="url(#d)" transform="matrix(.72 0 0 .609 -.07 -40.09)"><path d="M371.24 182.44h-.01l-.62.26-35.97 14.4-.01.01 6.82 17.04a2.5 2.5 0 0 0-1.11-.22c-.56.01-1.12.14-1.65.35-1.07.41-2 1.14-2.7 1.99a5.35 5.35 0 0 0-1.25 2.9c-.09.99.1 2.06.96 2.63.85.57 2.08.43 3.12.04a6.55 6.55 0 0 0 2.71-1.94 5.7 5.7 0 0 0 1.32-2.89c.06-.5.03-1.02-.12-1.5l-.07-.15.02.01-4.77-11.88 17.36-6.96 4.17 10.41a2.5 2.5 0 0 0-1.11-.21c-.56 0-1.12.14-1.65.34-1.07.42-2 1.14-2.7 1.99a5.35 5.35 0 0 0-1.25 2.9c-.09.99.1 2.06.96 2.63.85.57 2.08.43 3.12.04a6.57 6.57 0 0 0 2.72-1.94 5.7 5.7 0 0 0 1.31-2.88c.06-.52.03-1.03-.12-1.5l-.07-.16.02.01-4.76-11.88 17.35-6.96 4.17 10.41a2.5 2.5 0 0 0-1.11-.21c-.56 0-1.12.14-1.65.34-1.07.42-2 1.14-2.7 2a5.35 5.35 0 0 0-1.25 2.89c-.09.99.11 2.06.96 2.64.86.56 2.08.42 3.12.04a6.55 6.55 0 0 0 2.72-1.95 5.7 5.7 0 0 0 1.32-2.88 3.6 3.6 0 0 0-.13-1.5l-.06-.16.01.01zm-33.66 20.22-.89-2.22 17.36-6.95.9 2.22zm18-7.2-.9-2.22 17.36-6.96.9 2.22z"/></g><g clip-path="url(#d)" transform="matrix(.72 0 0 .609 -.07 -40.09)"><path d="M308.69 184.62h-.01l-.46-.05-26.68-2.62h-.01l-1.24 12.64c-.16-.2-.37-.37-.62-.49a3.31 3.31 0 0 0-1.12-.31 4.67 4.67 0 0 0-2.3.36c-.7.3-1.3.79-1.68 1.38-.37.58-.6 1.3-.26 1.93.35.62 1.15.92 1.9 1.02.78.1 1.6-.03 2.3-.33.7-.3 1.32-.76 1.72-1.35.2-.3.35-.62.4-.96l.01-.12.01.01.86-8.81 12.88 1.26-.76 7.72c-.15-.2-.37-.37-.61-.49a3.24 3.24 0 0 0-1.13-.31 4.64 4.64 0 0 0-2.29.36c-.7.3-1.31.78-1.69 1.38-.37.58-.59 1.3-.25 1.92.35.62 1.14.93 1.9 1.02.78.1 1.59-.03 2.3-.32.7-.3 1.32-.76 1.72-1.36.2-.3.34-.62.4-.96l.01-.12v.02l.87-8.82 12.87 1.27-.75 7.72c-.16-.2-.37-.37-.62-.5a3.3 3.3 0 0 0-1.12-.3 4.69 4.69 0 0 0-2.3.35c-.7.3-1.3.79-1.68 1.39-.37.58-.6 1.3-.26 1.92.35.62 1.15.93 1.9 1.02.78.1 1.6-.03 2.3-.33.7-.3 1.32-.75 1.72-1.35.2-.3.35-.62.4-.96l.02-.12v.02zm-27.12 1.69.17-1.65 12.87 1.26-.16 1.65zm13.35 1.3.16-1.64 12.88 1.26-.16 1.65z"/></g></g><g transform="matrix(2.126 0 0 2.135 807.16 335.28)"><circle cx="-303.45" cy="-102.74" r="29" fill="url(#e)" filter="url(#f)"/><g fill="#f2f2f2"><path d="M-307.97-102.24a7.73 7.32 0 1 0 0 14.64 7.73 7.32 0 1 0 0-14.64z"/><path d="M-303.68-116.89v21.97h3.44l-.09-16.79 9.1-.06.03-5.07z"/></g></g></svg>