<?xml version="1.0" encoding="UTF-8"?>
<svg xmlns="http://www.w3.org/2000/svg" xmlns:xlink="http://www.w3.org/1999/xlink" width="324px" height="234px" viewBox="0 0 324 234" version="1.1">
<defs>
<clipPath id="clip1">
  <path d="M 102.171875 41 L 222.320312 41 L 222.320312 192.167969 L 102.171875 192.167969 Z M 102.171875 41 "/>
</clipPath>
<clipPath id="clip2">
  <path d="M 300.417969 116.617188 C 300.417969 190.464844 238.515625 250.28125 162.246094 250.28125 C 85.972656 250.28125 24.074219 190.464844 24.074219 116.617188 C 24.074219 42.769531 85.972656 -17.046875 162.246094 -17.046875 C 238.515625 -17.046875 300.417969 42.769531 300.417969 116.617188 Z M 300.417969 116.617188 "/>
</clipPath>
<clipPath id="clip3">
  <path d="M 154.5 41.023438 L 154.5 58.027344 C 129.066406 61.023438 108.4375 78.6875 102.171875 101.816406 L 118.246094 101.816406 C 124.84375 85.109375 142.335938 72.078125 161.40625 72.210938 C 161.875 72.1875 162.339844 72.1875 162.785156 72.1875 C 169.730469 72.234375 176.539062 73.867188 182.707031 76.796875 C 193.832031 81.5625 202.09375 90.964844 206.105469 101.816406 L 222.320312 101.816406 C 216.054688 78.6875 195.425781 61.019531 169.988281 58.027344 L 169.988281 41.023438 M 102.171875 131.324219 C 108.4375 154.457031 129.066406 172.121094 154.5 175.117188 L 154.5 192.121094 L 169.988281 192.121094 L 169.988281 175.117188 C 195.425781 172.09375 216.054688 154.457031 222.320312 131.324219 L 206.339844 131.324219 C 200.074219 148.875 180.6875 161.5625 161.121094 160.90625 C 142.042969 161 124.777344 148.035156 118.292969 131.324219 M 102.171875 131.324219 "/>
</clipPath>
<clipPath id="clip4">
  <path d="M 128 84 L 197 84 L 197 149 L 128 149 Z M 128 84 "/>
</clipPath>
<clipPath id="clip5">
  <path d="M 300.417969 116.617188 C 300.417969 190.464844 238.515625 250.28125 162.246094 250.28125 C 85.972656 250.28125 24.074219 190.464844 24.074219 116.617188 C 24.074219 42.769531 85.972656 -17.046875 162.246094 -17.046875 C 238.515625 -17.046875 300.417969 42.769531 300.417969 116.617188 Z M 300.417969 116.617188 "/>
</clipPath>
<clipPath id="clip6">
  <path d="M 162.246094 83.722656 C 143.375 83.722656 128.097656 98.207031 128.097656 116.210938 C 128.097656 116.210938 127.863281 119.25 128.851562 122.703125 L 181.296875 122.703125 C 179.867188 126.46875 177.332031 129.851562 173.882812 132.097656 C 165.953125 138.066406 153.9375 135.886719 147.179688 129.214844 L 130.941406 129.214844 C 136.222656 140.683594 148.234375 148.695312 162.246094 148.695312 C 181.113281 148.695312 196.390625 134.167969 196.390625 116.210938 C 196.390625 116.210938 196.390625 112.875 195.714844 109.71875 L 143.242188 109.71875 C 146.199219 102.613281 153.265625 96.871094 161.445312 96.800781 C 161.84375 96.777344 162.269531 96.777344 162.667969 96.777344 C 168.15625 96.894531 173.484375 99.363281 177.191406 103.222656 L 193.550781 103.222656 C 188.269531 91.753906 176.230469 83.722656 162.246094 83.722656 M 162.246094 83.722656 "/>
</clipPath>
</defs>
<g id="surface1">
<rect x="0" y="0" width="324" height="234" style="fill:rgb(85.09804%,85.09804%,85.09804%);fill-opacity:1;stroke:none;"/>
<path style="fill:none;stroke-width:1.021703;stroke-linecap:butt;stroke-linejoin:miter;stroke:rgb(100%,100%,100%);stroke-opacity:1;stroke-miterlimit:4;" d="M -0.94401 -1.082899 L 181.217448 -1.082899 L 181.217448 130.605469 L -0.94401 130.605469 Z M -0.94401 -1.082899 " transform="matrix(1.8,0,0,1.8,0,0)"/>
<g clip-path="url(#clip1)" clip-rule="nonzero">
<g clip-path="url(#clip2)" clip-rule="nonzero">
<g clip-path="url(#clip3)" clip-rule="nonzero">
<path style=" stroke:none;fill-rule:nonzero;fill:rgb(0%,46.666667%,50.196081%);fill-opacity:1;" d="M 154.5 41.023438 L 154.5 58.027344 C 129.066406 61.023438 108.4375 78.6875 102.171875 101.816406 L 118.246094 101.816406 C 124.84375 85.109375 142.335938 72.078125 161.40625 72.210938 C 161.875 72.1875 162.339844 72.1875 162.785156 72.1875 C 169.730469 72.234375 176.539062 73.867188 182.707031 76.796875 C 193.832031 81.5625 202.09375 90.964844 206.105469 101.816406 L 222.320312 101.816406 C 216.054688 78.6875 195.425781 61.019531 169.988281 58.027344 L 169.988281 41.023438 M 102.171875 131.324219 C 108.4375 154.457031 129.066406 172.121094 154.5 175.117188 L 154.5 192.121094 L 169.988281 192.121094 L 169.988281 175.117188 C 195.425781 172.09375 216.054688 154.457031 222.320312 131.324219 L 206.339844 131.324219 C 200.074219 148.875 180.6875 161.5625 161.121094 160.90625 C 142.042969 161 124.777344 148.035156 118.292969 131.324219 M 102.171875 131.324219 "/>
</g>
</g>
</g>
<g clip-path="url(#clip4)" clip-rule="nonzero">
<g clip-path="url(#clip5)" clip-rule="nonzero">
<g clip-path="url(#clip6)" clip-rule="nonzero">
<path style=" stroke:none;fill-rule:nonzero;fill:rgb(0%,46.666667%,50.196081%);fill-opacity:1;" d="M 162.246094 84.449219 C 143.375 84.449219 128.097656 98.933594 128.097656 116.9375 C 128.097656 116.9375 127.863281 119.976562 128.851562 123.429688 L 181.296875 123.429688 C 179.867188 127.195312 177.332031 130.578125 173.882812 132.824219 C 165.953125 138.792969 153.9375 136.613281 147.179688 129.941406 L 130.941406 129.941406 C 136.222656 141.410156 148.234375 149.421875 162.246094 149.421875 C 181.113281 149.421875 196.390625 134.894531 196.390625 116.9375 C 196.390625 116.9375 196.390625 113.601562 195.714844 110.445312 L 143.242188 110.445312 C 146.199219 103.339844 153.265625 97.597656 161.445312 97.527344 C 161.84375 97.503906 162.269531 97.503906 162.667969 97.503906 C 168.15625 97.621094 173.484375 100.089844 177.191406 103.949219 L 193.550781 103.949219 C 188.269531 92.480469 176.230469 84.449219 162.246094 84.449219 M 162.246094 84.449219 "/>
</g>
</g>
</g>
</g>
</svg>
