<svg xmlns="http://www.w3.org/2000/svg" xmlns:xlink="http://www.w3.org/1999/xlink" width="324" height="234"><defs><radialGradient id="d" cx="106.3" cy="272.5" r="45.7" gradientTransform="matrix(1 0 0 -1 0 512)" gradientUnits="userSpaceOnUse"><stop offset="0" stop-color="#fff"/><stop offset="1" stop-color="#fff" stop-opacity="0"/></radialGradient><radialGradient id="e" cx="138.6" cy="196.4" r="42" gradientTransform="matrix(1 0 0 -1 0 512)" gradientUnits="userSpaceOnUse"><stop offset="0" stop-color="#fff"/><stop offset="1" stop-color="#fff" stop-opacity="0"/></radialGradient><radialGradient id="f" cx="280" cy="256" r="32.5" gradientTransform="matrix(1 0 0 -1 0 512)" gradientUnits="userSpaceOnUse"><stop offset="0" stop-color="#fff"/><stop offset="1" stop-color="#fff" stop-opacity="0"/></radialGradient><radialGradient id="g" cx="145" cy="229" r="24" gradientTransform="matrix(1 0 0 -1 0 512)" gradientUnits="userSpaceOnUse"><stop offset="0" stop-color="#fff"/><stop offset="1" stop-color="#fff" stop-opacity="0"/></radialGradient><radialGradient id="h" cx="447" cy="127.4" r="21" gradientTransform="matrix(1 0 0 -1 0 512)" gradientUnits="userSpaceOnUse"><stop offset="0" stop-color="#fff"/><stop offset="1" stop-color="#fff" stop-opacity="0"/></radialGradient><radialGradient id="i" cx="100.25" cy="143" r="22.75" gradientTransform="matrix(1 0 0 -1 0 512)" gradientUnits="userSpaceOnUse"><stop offset="0" stop-color="#fff"/><stop offset="1" stop-color="#fff" stop-opacity="0"/></radialGradient><radialGradient id="j" cx="205.2" cy="128.2" r="30.6" gradientTransform="matrix(1 0 0 -1 0 512)" gradientUnits="userSpaceOnUse"><stop offset="0" stop-color="#fff"/><stop offset="1" stop-color="#fff" stop-opacity="0"/></radialGradient><radialGradient id="k" cx="368.8" cy="141.8" r="44.8" gradientTransform="matrix(1 0 0 -1 0 512)" gradientUnits="userSpaceOnUse"><stop offset="0" stop-color="#fff"/><stop offset="1" stop-color="#fff" stop-opacity="0"/></radialGradient><radialGradient id="l" cx="414.4" cy="246.4" r="53.6" gradientTransform="matrix(1 0 0 -1 0 512)" gradientUnits="userSpaceOnUse"><stop offset="0" stop-color="#fff"/><stop offset="1" stop-color="#fff" stop-opacity="0"/></radialGradient><radialGradient id="m" cx="78.64" cy="192" r="18" gradientTransform="matrix(1 0 0 -1 0 512)" gradientUnits="userSpaceOnUse"><stop offset="0" stop-color="#fff"/><stop offset="1" stop-color="#fff" stop-opacity="0"/></radialGradient><linearGradient id="a"><stop offset="0" stop-color="#d65779"/><stop offset="1" stop-color="#029eeb"/></linearGradient><linearGradient xlink:href="#a" id="c" x1="0" x2="324" y1="0" y2="234" gradientUnits="userSpaceOnUse"/><linearGradient xlink:href="#b" id="n" x1="288.11" x2="287.58" y1="141.78" y2="79.01" gradientTransform="matrix(1.22 0 0 1.196 -187.29 26.36)" gradientUnits="userSpaceOnUse"/><linearGradient id="b"><stop offset="0" stop-opacity=".05"/><stop offset="1" stop-opacity="0"/></linearGradient><filter id="o" width="1.02" height="1.02" x="-.02" y="-.02" color-interpolation-filters="sRGB"><feFlood flood-color="#4D4D4D" flood-opacity=".2" result="flood"/><feGaussianBlur in="SourceGraphic" result="blur"/><feOffset dx="-.28" dy="-.36" in="blur" result="offset"/><feComposite in="flood" in2="offset" operator="in" result="comp1"/><feComposite in="SourceGraphic" in2="comp1" result="comp2"/></filter></defs><path fill="url(#c)" d="M0 0h324v234H0Z"/><g opacity=".28" transform="matrix(.78 0 0 1.045 -43.9 -201.77)"><circle cx="106.3" cy="239.5" r="45.7" fill="url(#d)"/><circle cx="138.6" cy="315.6" r="42" fill="url(#e)"/><circle cx="280" cy="256" r="32.5" fill="url(#f)"/><circle cx="145" cy="283" r="24" fill="url(#g)"/><circle cx="447" cy="384.6" r="21" fill="url(#h)"/><circle cx="100.2" cy="369" r="22.8" fill="url(#i)"/><circle cx="205.2" cy="383.8" r="30.6" fill="url(#j)"/><circle cx="368.8" cy="370.2" r="44.8" fill="url(#k)"/><circle cx="414.4" cy="265.6" r="53.6" fill="url(#l)"/><circle cx="78.6" cy="320" r="18" fill="url(#m)"/></g><path fill="url(#n)" d="M76.16 121.7v6.57c0 37.68 22.4 68.01 68.81 68.01h27.82c60.73 0 71.58-44.56 71.58-68.01v-6.57c0 23.46-10.85 68.01-71.58 68.01h-27.82c-46.4 0-68.81-30.33-68.81-68z" transform="translate(.54)"/><path fill="#cfb698" stroke="#000" stroke-linecap="square" stroke-linejoin="bevel" stroke-opacity=".08" stroke-width="1.33" d="M145.1 34.97h34.1c55.82 0 67.44 44.26 67.44 68.01v28.04c0 23.45-10.85 68-71.58 68h-27.82c-46.4 0-68.81-30.33-68.81-68v-28.04c0-37.67 21.95-68 66.67-68z"/><g color="#000"><path fill="#f9f9f9" d="M7.35 30.96h9.76v6.2H7.35z" enable-background="accumulate" overflow="visible" style="marker:none" transform="matrix(3.956 0 0 3.935 66.66 17.64)"/><path fill="#5d5d5d" d="M8.1 32.5v3.12h1.5V32.5zm2.25 0v3.12h.75V32.5zm1.5 0v3.12h1.5V32.5zm2.26 0v3.12h.75V32.5zm1.5 0v3.12h.75V32.5z" enable-background="accumulate" overflow="visible" style="marker:none" transform="matrix(3.956 0 0 3.935 66.66 17.64)"/></g><path fill="#666" d="M186.36 142.52v3.05h37.25v-3.05zm0 6.11v3.06h31.04v-3.06zm0 6.11v3.06h37.25v-3.06zm0 6.11v3.06h24.83v-3.06z" color="#000" enable-background="accumulate" overflow="visible" style="marker:none" transform="translate(.54)"/><path fill="#c0905f" fill-opacity=".8" d="M150.61 35.34h19.3v33.9h-19.3z" color="#000" enable-background="accumulate" opacity=".6" overflow="visible" style="marker:none" transform="translate(.54)"/><path fill="#666" d="M94.16 58.83v8.12h8.38v-8.12zm10.77 0v1.16h-1.2v1.16h1.2v1.16h-1.2v1.16h2.4v-1.16h1.2v1.16h1.2v-2.32h1.2v-1.16h-2.4v1.16h-1.2v-2.32zm3.6 4.64v1.16h1.2v-1.16zm1.2 0h1.2v1.16h1.19v-1.16h1.2v-1.16h-1.2v-1.16h-1.2v1.16h-1.2zm2.39-2.32h1.2v-1.16h-1.2zm1.2-1.16h1.2v-1.16h-1.2zm0 3.48v1.16h-1.2v1.16h1.2v2.32h1.2v-4.64zm1.2 4.64v1.16h1.2v-1.16zm-2.4-2.32h-1.2v1.16h1.2zm-1.2 0v-1.16h-1.2v1.16zm-1.2 0h-1.2v3.48h1.2zm0 3.48v1.16h1.2v-1.16zm1.2 0h1.2v-1.16h-1.2zm0 1.16v2.32h-1.2v1.16h-1.2v1.16h2.4v-1.16h2.4v-1.16h1.2v1.16h2.39v-1.16h1.2v1.16h1.2V71.6h1.19v-1.16h-2.4v1.16h-1.2v-1.16zm5.99 0h1.2v-2.32h-1.2zm2.4 3.48v2.32h-2.4v-1.16h-1.2v1.16h-1.2v-2.32h-1.2v1.16h-2.39v1.16h1.2v1.16h1.2v1.16h-1.2v1.16h1.2v2.32h-1.2v2.32h1.2v1.16h-1.2v1.16h-1.2v1.16h2.4v-1.16h2.4v1.16h8.37v-5.8h-3.59v-1.16h3.6v-1.16h-2.4V77.4h-1.2v1.16h-1.2V77.4h1.2v-3.48zm1.19 0h1.2v2.32h1.2v1.16h1.2v-2.32h-1.2v-1.16h1.2v-3.48h-1.2v-2.32h-1.2v3.48h1.2v1.16h-2.4zm-9.58 12.76v-1.16h1.2v-1.16h-1.2V83.2h-2.4v1.16h1.2v1.16h-1.2v2.32h1.2v-1.16zm-2.4-3.48v-2.32h2.4v1.16h1.2v-2.32h-4.8v1.16h-1.19v1.16h-2.4v5.8h2.4v-1.16h1.2v-1.16h-2.4v-1.16h2.4V83.2zm-2.39-2.32v-1.16h-1.2v-1.16h-1.2v2.32zm-2.4-2.32V77.4h1.2v-1.16h-1.2v-1.16h-2.39v1.16h1.2v1.16h-1.2v1.16zm-2.39-3.48v-1.16h1.2v-1.16h-2.4v1.16h-1.2v1.16zm-2.4-1.16v-1.16h1.2V71.6h2.4v1.16h2.4v1.16h-1.2v1.16h1.2v1.16h1.2v-1.16h1.19v-1.16h-1.2v-1.16h1.2v1.16h1.2V71.6h1.2v-1.16h-2.4v1.16h-1.2v-2.32h1.2v-1.16h-5.99v1.16h2.4v1.16h-3.6v-2.32h-5.98v10.44h1.2v-8.12h2.39v-1.16h1.2v1.16h-1.2v1.16h-1.2v4.64h1.2v-2.32zm7.2 2.32v1.16h-1.2v1.16h1.2v1.16h1.19v-3.48zm5.98 2.32V77.4h-1.2v1.16zm-4.8-15.08h-1.19v3.48h1.2zm8.4-4.64v8.12h8.37v-8.12zm-20.36 1.16h5.98v5.8h-5.98zm21.55 0h5.98v5.8h-5.98zm-20.36 1.16v3.48h3.6v-3.48zm21.56 0v3.48h3.59v-3.48zm-14.37 3.48v2.32h1.2v-2.32zm15.56 3.48v1.16h1.2v-1.16zm-20.35 8.12v1.16h1.2v-1.16zm9.58 0v2.32h1.2v-2.32zM96.55 77.4v1.16h1.2V77.4zm17.96 1.16h3.6v3.48h-3.6zm-20.35 1.16v8.12h8.38v-8.12zm21.55 0v1.16h1.2v-1.16zm-20.35 1.16h5.98v5.8h-5.98zm1.2 1.16v3.48h3.58v-3.48zm20.35 1.16h1.2v1.16h1.2V83.2h1.19v2.32h1.2v-1.16h1.2v2.32h-2.4v-1.16h-2.4v-1.16h-1.2v1.16h-2.39v-1.16h2.4z"/><path fill="#4d4d4d" d="M30.8 19.21c.01.56-.17.83-.33 1.31l-.3.15c-.23.47.03.3-.14.68-.37.34-1.13 1.06-1.38 1.12-.17 0 .12-.21.16-.3-.5.36-.4.53-1.16.75l-.02-.06c-1.89.9-4.5-.88-4.47-3.33-.02.16-.06.12-.1.18a3.1 3.1 0 0 1 1.7-3.04 2.81 2.81 0 0 1 3.17.42 2.81 2.81 0 0 0-2.31-1.13c-1 .02-1.94.66-2.25 1.37-.51.33-.57 1.27-.8 1.44-.3 2.25.57 3.22 2.03 4.37.23.16.07.18.1.3a3.98 3.98 0 0 1-1.3-1.01c.2.29.4.57.68.8-.46-.16-1.07-1.14-1.25-1.18.79 1.44 3.2 2.53 4.47 2-.59.01-1.33 0-1.99-.24-.27-.15-.65-.45-.58-.5 1.72.65 3.5.5 5-.73.38-.3.8-.82.92-.82-.18.28.03.13-.11.38.38-.63-.17-.26.39-1.08l.2.29c-.07-.52.63-1.15.56-1.97.16-.25.18.27.01.85.24-.64.06-.74.13-1.27.06.18.15.37.2.55-.16-.61.15-1.04.23-1.4-.08-.03-.24.28-.28-.45 0-.32.09-.17.12-.25-.06-.03-.22-.27-.32-.74.07-.1.2.28.29.3-.06-.37-.17-.65-.17-.94-.29-.6-.1.08-.33-.25-.3-.95.25-.22.28-.65.46.66.71 1.7.83 2.13a8.88 8.88 0 0 0-.41-1.52c.13.06-.22-1.08.18-.33a6.74 6.74 0 0 0-3.12-3.8c.16.15.36.33.29.36-.64-.39-.53-.42-.62-.58-.53-.22-.56.02-.9 0-.99-.53-1.18-.48-2.08-.81l.04.2c-.65-.23-.76.08-1.46 0-.05-.04.22-.13.44-.16-.63.08-.6-.13-1.22.02l.48-.27c-.51.03-1.23.3-1 .06-.84.38-2.33.91-3.17 1.71l-.02-.18c-.39.47-1.67 1.4-1.78 2.01l-.1.03c-.2.34-.33.73-.48 1.08-.26.46-.38.18-.35.25-.51 1.06-.76 1.95-.98 2.68.15.24 0 1.44.06 2.4-.26 4.74 3.26 9.34 7.1 10.4.57.21 1.4.2 2.12.22-.84-.24-.95-.13-1.77-.42-.6-.28-.72-.6-1.14-.98l.17.3c-.83-.3-.48-.36-1.15-.58l.18-.24c-.27-.02-.7-.45-.83-.7l-.29.02c-.35-.44-.53-.76-.52-1l-.1.16c-.1-.18-1.28-1.65-.67-1.3-.11-.11-.27-.18-.43-.48l.13-.15c-.3-.39-.55-.88-.53-1.05.16.22.27.26.38.3-.75-1.89-.79-.1-1.35-1.92l.12-.01c-.1-.14-.15-.3-.22-.44l.05-.53c-.54-.63-.15-2.69-.07-3.82.05-.45.44-.94.74-1.7l-.18-.04c.35-.62 1.99-2.5 2.75-2.4.37-.47-.07 0-.14-.12.8-.85 1.06-.6 1.6-.75.6-.36-.5.13-.22-.14 1.02-.27.72-.6 2.05-.74.14.08-.33.13-.44.23.84-.42 2.68-.32 3.87.24 1.39.66 2.94 2.6 3 4.44l.07.02c-.03.73.11 1.58-.14 2.35l.17-.37" filter="url(#o)" transform="matrix(3.941 -.341 .343 3.92 58.63 34.14)"/></svg>