<svg viewBox="0 0 324 234" xml:space="preserve" xmlns:xlink="http://www.w3.org/1999/xlink" xmlns="http://www.w3.org/2000/svg"><defs><linearGradient xlink:href="#c" id="k" gradientUnits="userSpaceOnUse" x1="205.445" y1="377.178" x2="421.629" y2="377.178"/><linearGradient id="e"><stop style="stop-color:#583503;stop-opacity:1" offset="0"/><stop style="stop-color:#844f04;stop-opacity:1" offset="1"/></linearGradient><linearGradient id="a"><stop style="stop-color:#ffd416;stop-opacity:1" offset="0"/><stop style="stop-color:#fff;stop-opacity:1" offset="1"/></linearGradient><linearGradient id="b"><stop style="stop-color:#dd8000;stop-opacity:1" offset="0"/><stop style="stop-color:#ffe263;stop-opacity:1" offset="1"/></linearGradient><linearGradient id="c"><stop style="stop-color:#ffd416;stop-opacity:1" offset="0"/><stop style="stop-color:#ffeb94;stop-opacity:1" offset="1"/></linearGradient><linearGradient xlink:href="#a" id="h" x1="205.445" y1="377.178" x2="421.629" y2="377.178" gradientUnits="userSpaceOnUse"/><linearGradient xlink:href="#b" id="l" gradientUnits="userSpaceOnUse" x1="136.423" y1="323.005" x2="460.423" y2="287.915" gradientTransform="translate(-45.804)"/><linearGradient xlink:href="#b" id="f" x1="0" y1="117" x2="324" y2="117" gradientUnits="userSpaceOnUse"/><linearGradient id="d"><stop style="stop-color:#fff6cf;stop-opacity:1" offset="0"/><stop style="stop-color:#fff;stop-opacity:1" offset="1"/></linearGradient><linearGradient xlink:href="#c" id="j" gradientUnits="userSpaceOnUse" x1="205.445" y1="377.178" x2="421.629" y2="377.178"/><linearGradient xlink:href="#c" id="i" gradientUnits="userSpaceOnUse" x1="205.445" y1="377.178" x2="421.629" y2="377.178"/><linearGradient xlink:href="#d" id="o" x1="186.792" y1="113.53" x2="307.582" y2="113.53" gradientUnits="userSpaceOnUse" gradientTransform="translate(2 2)"/><linearGradient xlink:href="#b" id="p" x1="188.792" y1="115.53" x2="309.582" y2="115.53" gradientUnits="userSpaceOnUse"/><linearGradient xlink:href="#d" id="g" x1="16.51" y1="87.567" x2="169.01" y2="87.567" gradientUnits="userSpaceOnUse"/><linearGradient xlink:href="#d" id="n" x1="20.786" y1="186.069" x2="175.201" y2="186.069" gradientUnits="userSpaceOnUse"/><linearGradient xlink:href="#e" id="m" x1="122.296" y1="419.775" x2="628.009" y2="419.775" gradientUnits="userSpaceOnUse"/><linearGradient xlink:href="#e" id="q" x1="31.599" y1="186.087" x2="164.396" y2="186.087" gradientUnits="userSpaceOnUse"/></defs><path style="fill:url(#f);fill-opacity:1" d="M0 0v234h324V0H0z"/><path style="fill:#ffd600;fill-opacity:1;stroke-width:.065611" d="M33.244 553.58c-2.99.004-3.772.01-8.383.014l-15.654.011h15.475c5.704 0 4.936-.02 8.562-.025zM48.918 553.463c-.256.043-1.343.064-3.211.082.208-.005 2.635-.003 2.652-.008.04-.012.403-.051.559-.074zM94.48 548.627c-.456.05-1.4.143-1.882.195-.374.041-.536.056-.903.096.908-.1 1.983-.204 2.785-.291zM146.025 543.203c-4.299.43-7.363.748-15.045 1.582-3.242.352-3.776.4-6.109.65 1.13-.122 1.81-.186 3.108-.328 8.94-.975 12.588-1.355 18.046-1.904zM206.941 536.58c-.054.011-7.741.856-12.388 1.373.888-.099.65-.069 1.578-.172l10.81-1.2z"/><path style="fill:url(#g);fill-opacity:1;fill-rule:evenodd;stroke:none;stroke-width:.729144;stroke-linecap:round;stroke-linejoin:round;stroke-dasharray:none;stroke-opacity:1;paint-order:stroke markers fill" d="M16.51 16.001h152.5v143.132H16.51z"/><g style="fill:url(#h);fill-opacity:1"><g style="fill:url(#i)" transform="matrix(.6113 0 0 .6113 -66.906 -143.003)"><g style="fill:url(#j)"><g style="fill:url(#k)" transform="translate(-120.724 -242.183)"><path style="fill:#3b0212;fill-opacity:1;stroke-width:.065611" d="m102.565 334.864.035.213c.06.353.346 3.391.594 6.283.29 3.39.537 6.012.953 10.137.178 1.768.398 4.068.49 5.111.091 1.043.18 1.96.197 2.035.017.076.078.83.135 1.678.088 1.322.25 2.802.314 2.867.056.056 1.889.296 2.602.342.451.029.938.057 1.082.062.485.017 2.427-.128 2.484-.185v-.012c-.074-.091-.108-.342-.199-1.078-.152-1.235-.227-2.233-.299-3.969-.067-1.642-.353-5.287-1.322-16.912l-.547-6.572h-3.207zm83.283 22.682c.007.873.038 1.768.166 3.353.14 1.732.378 4.204.77 8.115.727 7.264 1.068 10.935 1.341 14.436.11 1.407.229 2.824.264 3.148.069.64.083 1.235.04 1.782a6.024 6.024 0 0 1-.29 1.488l-.176.512-1.738.025c-1.764.025-2.858.095-6.102.393-.992.09-2.38.195-3.084.232-.704.037-1.753.11-2.33.164-.577.054-2.043.142-3.258.195-1.214.054-2.248.111-2.297.127-.159.054-1.766.166-3.336.233-1.404.06-2.726.143-5.378.334-.524.037-1.955.168-3.182.29-1.227.123-2.747.255-3.379.294-.631.038-1.991.13-3.02.2-1.028.072-2.592.158-3.476.192-1.038.04-2.746.178-4.822.39-3.98.409-6.872.686-9.23.88a131.6 131.6 0 0 1-6.026.37 51.17 51.17 0 0 0-2.92.196c-.65.071-4.31.41-8.135.756-3.825.345-11.634 1.1-17.353 1.676-16.94 1.707-24.197 2.438-33.594 3.379-9.654.966-9.748.976-14.041 1.504-3.737.459-4.312.522-6.889.76-3.014.278-4.531.438-11.547 1.216l-7.388.819c-.654.071-2.176.277-3.381.457-1.206.179-3.062.414-4.125.523-1.847.189-3.123.368-6.328.885-1.385.223-3.023.436-6.104.793-1.848.214-2.94.388-3.932.629-.647.157-.995.245-1.195.33-.2.085-.251.167-.308.31-.09.225-.09.37.023 1.522.134 1.376.212 1.91.367 2.521.115.45.394 1.175.535 1.393.04.062.066.091.088.113.112-.021.347-.08.68-.176.755-.219 1.792-.447 3.004-.685.022-.004.032-.01.055-.014.113-.022.325-.055.445-.078.789-.15 1.554-.297 2.55-.46 1.534-.253 3.468-.582 4.297-.731 2.669-.481 4.367-.709 9.448-1.27 1.76-.194 1.71-.208 2.691-.322 2.044-.236 3.775-.432 5.233-.653.595-.09 1.922-.255 2.95-.367 1.467-.159 2.013-.258 3.014-.386 1.06-.134 2.261-.263 3.27-.44 2.12-.372 4.106-.616 7.955-.978l.049-.006c.992-.094 3.783-.374 6.201-.623 6.2-.64 15.898-1.61 24.695-2.5 6.045-.612 9.723-.998 17.608-1.788l2.963-.296c.787-.079 1.562-.16 2.33-.237a15128.185 15128.185 0 0 0 12.42-1.244l.92-.092c4.95-.497 8.877-.87 11.933-1.129.291-.024.363-.02.639-.043.141-.011.358-.035.5-.047 1.573-.13 2.004-.123 2.715-.17.892-.056 2.225-.171 2.845-.19 2.146-.068 4.17-.18 6.577-.366.045-.004.077-.004.123-.008 2.388-.187 5.242-.463 8.933-.848.358-.037.899-.084 1.346-.129 1.492-.148 3.217-.316 4.494-.427l.672-.061c1.597-.141 3.586-.32 4.74-.43l.639-.058c.077-.008.189-.006.263-.014 2.592-.24 4.238-.346 8.801-.55.259-.012.203-.018.483-.03 2.502-.11 4.096-.189 5.67-.299.45-.032 1.12-.1 1.587-.139 1.129-.094 2.106-.173 4.012-.355 4.648-.443 5.898-.522 7.53-.55.657-.018 1.154-.05 2.164-.061 1.746-.02 2.633-.028 3.11-.051.197-.01.182-.038.272-.053.316-.09.537-.259.694-.623.232-.54.297-1.224.293-3.154-.004-2.081-.344-7.173-.778-11.647-.48-4.953-1.763-17.661-1.838-18.191-.11-.783-.294-1.261-.58-1.502-.097-.082-.153-.122-.28-.14-.141-.012-.34-.004-.72.017-.456.024-1.627.159-2.601.299-1.236.178-1.641.21-1.72.168-.02 0-.188.025-.19.023-.043-.043-.233-1.76-.336-2.832zm-19.069 52.187c-.013.015-.193.927-.398 2.027-1.674 8.964-2.995 15.737-3.809 19.52a438.81 438.81 0 0 0-1.084 5.281c-.355 1.786-.851 4.15-1.103 5.25-.252 1.1-.715 3.21-1.027 4.69-1.696 8.023-2.305 10.741-2.954 13.19-.463 1.75-.949 3.713-1.437 5.812-.489 2.098-.979 4.33-1.455 6.619-.368 1.765-.91 4.087-1.54 6.648a455.994 455.994 0 0 1-2.073 8.092 389.515 389.515 0 0 1-2.112 7.646c-.653 2.266-1.228 4.142-1.642 5.315a52.417 52.417 0 0 0-.88 2.713c-.217.752-.336 1.272-.288 1.32.049.05.887.155 1.697.213 1.089.078 2.643.08 3.727.004 1.082-.076 2.386-.238 2.507-.307-.012-.037.394-1.524.914-3.347 2.622-9.19 4.843-17.912 7.186-28.21a940.262 940.262 0 0 1 1.412-6.113c2.77-11.714 8.045-36.487 9.715-45.615.739-4.038 1.394-8.324 1.318-8.627-.063-.252-.454-.641-.82-.828-.266-.118-.662-.23-1.688-.435-.125-.024-.219-.05-.359-.078a157.69 157.69 0 0 1-2.553-.534c-.677-.15-1.24-.26-1.254-.246zm-109.033 3.072-.338.024a4.37 4.37 0 0 0-1.195.271c-.42.154-.854.37-1.289.64l-.242.153.822 1.738a646.228 646.228 0 0 1 4.488 9.704 897.467 897.467 0 0 1 4.846 10.9 1392.583 1392.583 0 0 1 10.795 25.445 621.226 621.226 0 0 1 6.684 16.897c.996 2.634 1.889 5.06 2.613 7.103.724 2.044 1.28 3.706 1.6 4.809.15.52.227.79.251.941.025.151-.004.182-.064.227-.392.292-.808.55-1.77 1.037-.962.487-2.469 1.202-5.045 2.412a1618.37 1618.37 0 0 0-12.63 6.016c-2.001.965-3.25 1.53-6.004 2.722-1.532.663-3.785 1.762-3.9 1.9-.065.079.042.451.556 1.954.35 1.02.767 2.268.928 2.773.16.506.305.96.322 1.01.018.055.238.05.473.037.204-.015.413-.052.62-.086.157-.027.303-.049.475-.088a9.03 9.03 0 0 0 .944-.275l.015-.006c.813-.287 1.813-.73 3.213-1.41.751-.365 1.829-.86 2.395-1.098 2.253-.948 6.535-2.913 7-3.213.23-.148 9.504-4.546 14.888-7.06 2.912-1.36 3.48-1.657 3.752-1.963.322-.362.254-1.106-.236-2.55a24.636 24.636 0 0 1-.457-1.49c-.177-.71-.452-1.48-.953-2.677a65.805 65.805 0 0 1-.985-2.592c-2.614-7.33-5.6-14.851-11.318-28.508-5.354-12.789-7.564-17.901-11.728-27.13-3.352-7.429-4.56-10.007-6.543-13.975-1.427-2.855-1.803-3.493-2.45-4.15l-.435-.442zm149.196 118.518-.067.012c-.215.036-2.671.292-19.437 2.035-16.405 1.705-23.614 2.472-33.987 3.61-6.601.723-7.774.844-17.256 1.8-3.933.396-7.845.797-8.693.889-.848.092-5.438.593-10.201 1.115-11.82 1.295-15.298 1.658-21.357 2.23-2.608.246-6.292.638-15.747 1.674-13.098 1.435-16.546 1.799-22.144 2.33-4.059.386-8.453.85-18.961 2.004-10.527 1.157-16.665 1.796-21.684 2.26-2.308.213-3.186.306-9.58 1.016-2.905.322-5.51.606-5.79.63-.281.025-.524.067-.54.092a1.678 1.678 0 0 0-.072.319l-.045.267h7.826l15.654-.012c4.611-.003 5.393-.01 8.383-.013 5.278-.008 11.484-.014 12.463-.035 1.868-.018 2.955-.04 3.211-.082.33-.05.617-.095 1.18-.157l5.053-.554c1.948-.215 5.49-.582 7.873-.819 7.126-.708 17.035-1.756 26.209-2.756.862-.094 1.614-.166 2.462-.26.368-.04.529-.054.903-.095.482-.053 1.427-.146 1.883-.195 3.46-.375 6.116-.66 12.01-1.256 6.957-.703 11.691-1.21 18.38-1.936 2.333-.25 2.867-.298 6.11-.65 7.68-.834 10.746-1.153 15.045-1.582.454-.046 1.02-.11 1.503-.158 9.962-.996 20.557-2.15 47.024-5.092 4.647-.517 12.334-1.362 12.389-1.373z" transform="translate(289.608 175.13)"/></g></g><path style="fill:url(#l);fill-opacity:1;stroke-width:.065611" d="m232.747 267.804.156.7c.086.383.306 1.556.486 2.607.18 1.05.414 2.28.52 2.73.105.451.34 1.687.521 2.748.182 1.061.418 2.301.524 2.756.273 1.174.424 2.013.76 4.244.161 1.078.484 3.01.718 4.291.466 2.553.696 4.008.854 5.414.056.505.174 1.465.263 2.133.09.668.208 1.613.262 2.1.11.984.134 2.922.037 2.982-.034.021-1.105.142-2.379.268l-5.99.591a38849.387 38849.387 0 0 0-43.828 4.393l-12.729 1.28c-2.85.286-6.141.611-7.314.722-2.316.219-4.728.486-5.47.61l-.47.077-.021.493c-.038.879.123 2.696.617 7.02a1938.9 1938.9 0 0 1 1.832 16.468c.336 3.109.784 7.3.95 8.89.037.361.085.783.105.936l.037.277h.35c.991 0 2.785-.274 4.29-.658 1.936-.316 4.434-1.02 6.555-1.267 3.081-.357 4.719-.57 6.104-.793 3.205-.517 4.481-.696 6.328-.885 1.064-.109 2.92-.344 4.125-.524a117.36 117.36 0 0 1 3.38-.457c.654-.071 3.98-.44 7.39-.818 7.015-.778 8.533-.938 11.546-1.217 2.577-.238 3.152-.3 6.889-.76 4.293-.527 4.387-.537 14.04-1.503 9.398-.941 16.655-1.672 33.595-3.38 5.72-.576 13.528-1.33 17.353-1.675 3.825-.345 7.486-.685 8.135-.756.649-.07 1.963-.16 2.92-.195 1.841-.07 3.666-.178 6.025-.371 2.36-.194 5.252-.472 9.23-.88 2.077-.212 3.785-.35 4.823-.39.884-.034 2.448-.12 3.477-.191 1.028-.072 2.388-.163 3.02-.201.63-.04 2.151-.17 3.378-.293 1.227-.123 2.658-.254 3.182-.291 2.652-.19 3.974-.274 5.379-.334 1.57-.067 3.176-.179 3.336-.233.048-.016 1.082-.073 2.296-.127a90.328 90.328 0 0 0 3.258-.195 70.802 70.802 0 0 1 2.33-.164 99.042 99.042 0 0 0 3.084-.233c3.244-.297 4.338-.367 6.102-.392l1.738-.026.176-.511c.152-.445.249-.942.29-1.489a9.756 9.756 0 0 0-.04-1.78c-.035-.326-.154-1.742-.264-3.15-.273-3.5-.614-7.17-1.342-14.435-.391-3.911-.63-6.384-.77-8.115-.127-1.586-.158-2.48-.165-3.354-.023-.235-.066-.479-.074-.623a4.22 4.22 0 0 0-.065-.605l-.125-.107c-.107-.09-.163-.144-.181-.18-.002-.005.009-.005.008-.01-.182-.048-.44-.056-.93-.047-1.362.025-2.435.11-4.211.34-3.898.502-15.465 1.774-25.916 2.85-4.533.466-6.566.672-17.518 1.775-4.707.474-6.61.668-11.285 1.15-1.732.179-4.345.428-5.806.555-4.44.386-6.912.63-8.047.795-.13.018-.196.019-.246-.043v.011c-.058.058-2 .203-2.485.186a61.555 61.555 0 0 1-1.082-.062c-.713-.046-2.546-.287-2.601-.342-.065-.065-.227-1.545-.315-2.867-.056-.848-.118-1.603-.135-1.678a64.378 64.378 0 0 1-.197-2.035 505.06 505.06 0 0 0-.49-5.112 605.184 605.184 0 0 1-.953-10.136c-.248-2.892-.535-5.93-.594-6.284l-.035-.212h6.519v-.006h-22.611zm62.564 65.105c-.276.023-.347.019-.639.043-3.056.26-6.983.632-11.933 1.13l-.92.091c6.056-.61 9.674-.946 13.492-1.263zm4.4.81c-.882-.009-.893-.007-1.213.19-.866.535-1.212 1.466-1.898 5.11-.578 3.07-.968 5.63-1.807 11.883-.65 4.854-.725 5.365-1.338 9.119-.27 1.66-.568 3.534-.662 4.166-.344 2.335-.916 5.88-1.779 11.023-.487 2.905-.957 5.725-1.047 6.266-.955 5.795-3.43 19.367-4.922 26.998-1.82 9.309-3.262 15.865-4.945 22.473-.972 3.815-1.734 6.267-2.586 8.312-.804 1.931-1.204 2.612-1.71 2.908-.283.166-.44.19-2.81.43-1.38.14-3.734.386-5.232.549-5.228.568-10.603 1.143-11.678 1.25a55.38 55.38 0 0 0-3.937.558c-1.188.212-3.028.435-5.904.717-3.469.34-4.168.39-6.168.436-1.687.038-2.39.101-8.758.783-3.232.346-6.815.671-9.022.82-1.1.074-3.153.252-4.56.395l-4.166.424c-.884.09-2.39.223-3.346.296-.956.074-2.67.234-3.807.358-3.874.42-4.613.478-7.02.53-1.868.04-2.427.08-4.56.325-1.908.22-2.79.285-4.46.328-1.63.043-2.323.093-5.118.364-1.082.105-2.648.235-3.478.29-.83.056-2.527.203-3.772.327-3.34.333-3.977.368-6.857.365-2.634-.002-3.277.037-3.387.205-.089.137-.251.712-.322 1.147-.085.518-.08 4.041.006 5.146.038.486.14 1.563.23 2.393.09.83.223 2.098.295 2.82.218 2.16.505 4.876.848 8.037.178 1.642.398 3.827.492 4.856.094 1.028.286 2.933.428 4.232.452 4.149.522 5.073.426 5.692l-.05.312h.147l.045-.268c.024-.15.057-.292.072-.318.016-.025.259-.067.54-.092.28-.024 2.886-.308 5.79-.63 6.395-.71 7.272-.803 9.58-1.016 5.019-.464 11.157-1.103 21.684-2.26 10.508-1.154 14.902-1.618 18.961-2.004 5.598-.531 9.046-.895 22.145-2.33 9.454-1.036 13.138-1.428 15.746-1.674 6.059-.572 9.538-.936 21.357-2.23 4.764-.522 9.353-1.024 10.201-1.115.848-.092 4.76-.493 8.694-.89 9.482-.955 10.654-1.076 17.256-1.8 10.373-1.137 17.58-1.904 33.986-3.61 16.766-1.742 19.222-1.998 19.437-2.034l.067-.012V430.05l-.444.043c-1.754.168-2.961.37-5.45.916-2.61.572-3.508.732-5.522.984-.415.052-1.36.184-2.1.293-.74.11-2.718.377-4.396.592-1.678.216-3.716.495-4.528.621-1.635.255-1.24.213-11.351 1.223-3.988.398-7.691.782-8.233.854-1.558.205-3.825.433-6.134.617-2.36.187-3.664.31-4.975.468-.48.058-.888.091-.906.073l.006-.022c-.121.069-1.425.231-2.508.307a30.07 30.07 0 0 1-3.727-.004c-.81-.058-1.648-.164-1.697-.213-.048-.048.071-.568.29-1.32.217-.752.533-1.736.878-2.713.414-1.174.99-3.05 1.643-5.315a389.476 389.476 0 0 0 2.111-7.646c.725-2.728 1.444-5.53 2.074-8.092.63-2.561 1.172-4.883 1.54-6.648.475-2.289.966-4.52 1.454-6.62.489-2.098.974-4.062 1.438-5.812.648-2.448 1.257-5.166 2.953-13.19.313-1.479.775-3.588 1.027-4.689.252-1.1.749-3.464 1.104-5.25a438.77 438.77 0 0 1 1.084-5.281c.814-3.783 2.135-10.556 3.808-19.52.206-1.1.386-2.012.399-2.027.013-.015.577.095 1.254.246.605.135 1.69.36 2.552.533-1.525-.302-3.83-.796-3.916-.85-.044-.027-.037-.206.022-.533.112-.627.119-1.622.012-1.83-.195-.378-.391-.443-2.77-.894a788.407 788.407 0 0 0-16.764-2.983c-1.317-.22-3.443-.603-4.724-.851-2.763-.536-4.101-.75-5.797-.926a28.746 28.746 0 0 1-2.371-.363c-2.135-.444-2.521-.502-3.45-.51zm-79.76 7.92c-.108.009-.232.03-.384.063-.743.162-1.361.437-3.342 1.493a115.84 115.84 0 0 1-3.771 1.902c-2.42 1.154-3.752 1.824-5.016 2.52-1.245.684-3.085 1.648-6.139 3.218-5.531 2.844-8.14 4.318-9.64 5.45-.676.508-1.562 1.361-1.891 1.82l-.203.283.443 1.178c1.11 2.938 2.475 5.967 5.09 11.281 4.12 8.374 7.134 15.177 10.94 24.701 4.895 12.253 6.955 17.96 12.687 35.135 1.638 4.908 3.033 8.998 3.1 9.088.158.213.507.241 1.216.097.64-.13 5.578-2.415 7.11-3.078 2.754-1.192 4.003-1.757 6.004-2.722 3.602-1.738 9.237-4.422 12.63-6.016 2.577-1.21 4.083-1.925 5.046-2.412.962-.487 1.377-.745 1.769-1.037.06-.045.089-.076.065-.227-.025-.15-.102-.42-.252-.941-.32-1.103-.876-2.765-1.6-4.809a369.267 369.267 0 0 0-2.613-7.103 621.226 621.226 0 0 0-6.684-16.897 1392.534 1392.534 0 0 0-10.795-25.445 897.424 897.424 0 0 0-4.846-10.9 646.287 646.287 0 0 0-4.488-9.704l-.822-1.738.242-.152c.435-.271.87-.487 1.29-.64a4.37 4.37 0 0 1 1.194-.272l.338-.024h-.334c-.707 0-1.461.245-2.408.781-.26.148-.484.268-.498.268-.014 0-.109-.185-.209-.41-.776-1.752-1.968-3.88-2.451-4.381-.19-.196-.327-.307-.494-.352a.843.843 0 0 0-.283-.017z"/><path d="m131.94 247.69-1.994.922c-2.917 1.35-5.04 3.41-6.427 6.231l-1.223 2.491V498.46l.923 1.995c1.35 2.917 3.409 5.042 6.23 6.428l2.492 1.222 14.827.137 14.827.137-2.997 2.103c-7.299 5.126-11.79 11.095-14.223 18.902-.828 2.657-1.016 4.22-.996 8.314.02 4.485.178 5.495 1.423 9.14 3.371 9.874 10.402 17.799 21.842 24.62 18.85 11.241 51.248 18.677 87.833 20.16 33.82 1.372 74.173-3.184 100.396-11.334 23.497-7.303 36.55-17.521 40.12-31.406 2.844-11.066-.31-25.006-8.337-36.846l-2.752-4.06 3.569-.165c5.314-.248 8.909-2.44 11.036-6.73.85-1.715.864-3.433.991-122.303.096-89.944 0-121.006-.376-122.306-1.06-3.665-4.227-6.895-7.863-8.021-1.083-.336-39.425-.517-130.427-.617zm4.604 12.494H386v234.111h-19.605l-3.24-1.491c-6.448-2.97-15.7-5.304-26.328-6.644-7.612-.96-30.322-1.314-42.748-.666-31.02 1.616-65.542 4.899-83.492 7.94-4.764.806-7.303.861-39.567.861h-34.476V377.24zm279.487 21.263-2.18 1.073c-3.103 1.527-5.638 4.235-6.752 7.212l-.937 2.504.112 131.39.112 131.39 1.034 1.972c1.817 3.468 4.744 5.926 8.392 7.046.603.185 46.472.302 101.93.262l100.835-.074 1.973-1.033c2.69-1.41 4.677-3.369 6.068-5.981l1.166-2.193.113-131.39.112-131.39-.937-2.503c-1.117-2.986-3.87-5.925-6.858-7.318l-2.075-.967H517.085z" style="fill:url(#m);stroke-width:.717175;fill-opacity:1"/></g></g><path style="fill:url(#n);fill-opacity:1;fill-rule:evenodd;stroke:none;stroke-width:5;stroke-linecap:round;stroke-linejoin:round;stroke-dasharray:none;stroke-opacity:1;paint-order:stroke markers fill" d="M98.76 157.133c20.75-1.548 40.222-2.381 53.124 2.416 12.903 4.798 19.236 15.226 20.569 24.392 1.333 9.167-2.334 17.072-16.084 22.858-13.75 5.786-37.582 9.452-59.666 9.453-22.083 0-42.416-3.667-55.25-9.453-12.833-5.785-18.166-13.69-18.167-21.31 0-7.618 5.333-14.95 19.015-19.747 13.681-4.797 35.71-7.06 56.46-8.609z"/><path style="fill:url(#o);fill-opacity:1;fill-rule:evenodd;stroke:none;stroke-width:.679697;stroke-linecap:round;stroke-linejoin:round;stroke-dasharray:none;stroke-opacity:1;paint-order:stroke markers fill" d="M188.792 37.016h120.79v157.028h-120.79z"/><path style="fill:url(#p);fill-opacity:1;fill-rule:evenodd;stroke:none;stroke-width:.688265;stroke-linecap:round;stroke-linejoin:round;stroke-dasharray:none;stroke-opacity:1;paint-order:stroke markers fill" d="m195.168 37.016 1.802 2.012c.991 1.108 1.692 2.014 1.557 2.014s-.961-.38-1.836-.843l-1.592-.843 1.678 1.722c.922.948 1.677 1.81 1.677 1.917 0 .107-1.931.194-4.293.194s-4.29.09-4.282.201c.008.111 1.368 1.265 3.02 2.564 4.109 3.228 4.31 3.402 4.142 3.57-.08.081-.502-.036-.935-.26-.434-.225-1.441-.65-2.24-.945l-1.45-.538 2.08 1.941c1.144 1.068 2.08 2.105 2.08 2.303 0 .198-.77 1.763-1.708 3.479a229.943 229.943 0 0 0-2.044 3.79c-.193.386.484-.128 1.588-1.207 1.058-1.033 1.837-1.638 1.733-1.343-.461 1.306-6.907 13.825-7.118 13.825-.133 0-.235-7.738-.235-17.716v19.15l1.218-1.321c.67-.727 2.208-2.56 3.42-4.073 1.213-1.514 2.24-2.652 2.28-2.529.042.123-.342 1.42-.852 2.884-.51 1.463-.893 2.694-.85 2.736.042.043.892-1.26 1.89-2.896.996-1.636 1.853-2.935 1.902-2.887.048.05-.551 2.958-1.333 6.464-1.502 6.743-1.49 6.892.342 4.012.85-1.337 1.636-1.931 1.26-.954-.175.459-2.733 8.886-2.998 9.88-.079.296.602-.61 1.512-2.013s1.765-2.665 1.898-2.806c.145-.152.183 1.74.094 4.697-.165 5.508-.13 5.537 1.335 1.13.638-1.918 1.217-2.996 1.235-2.3.004.12.243 2.331.531 4.915.29 2.584.528 4.929.531 5.212.013 1.144.264.13.562-2.268.337-2.713.767-3.768.812-1.99.015.582.124 1.361.242 1.73.182.567.223.484.265-.536.183-4.403.433-3.664.905 2.683.268 3.617.522 6.611.563 6.653.041.042.176-.683.298-1.61l.222-1.687.183 1.879c.1 1.033.197 2.936.215 4.228.018 1.291.132 2.348.252 2.348s.692-1.642 1.274-3.648c.581-2.007 1.172-3.667 1.31-3.69.14-.024.462.663.718 1.525.672 2.264.82 2.19.612-.305-.101-1.211-.12-2.203-.043-2.203s.415.755.751 1.678c.337.922.713 1.793.838 1.933.126.141.235-.695.246-1.88.035-3.978.382-3.17 1.327 3.09.913 6.048 1.28 7.019 1.321 3.5.03-2.567.34-6.173.531-6.173.091 0 .393.634.67 1.409.63 1.756.826 1.306.458-1.058-.154-.99-.227-1.856-.16-1.922.067-.067.438.569.824 1.413.386.844.747 1.49.802 1.434.056-.056-.318-1.815-.832-3.91a176.212 176.212 0 0 1-1.613-7.364c-.373-1.957-.992-4.778-1.374-6.27-.686-2.685-.704-2.72-1.802-3.256l-1.11-.542-.748-3.085c-1.014-4.182-2.19-12.888-2.186-16.173.006-3.628 1.35-10.603 2.044-10.603.318 0 .277.302-.29 2.121-.635 2.042-.341 1.885.967-.518.954-1.752 1.623-2.46 1.324-1.402-.073.259-.215.998-.316 1.644-.253 1.624.238 1.24.965-.756l.576-1.577 1.382-.108c.76-.059 1.432-.07 1.493-.025.061.045-.197.8-.575 1.675-.774 1.793-.463 1.894.716.232.435-.612.835-.977.89-.812.055.165-.366 1.696-.935 3.403-.57 1.706-1.011 3.102-.98 3.102.184 0 2.591-2.483 3.444-3.554.557-.7 1.114-1.21 1.238-1.133.123.076.351-.098.506-.387.435-.813.315-1.05-.149-.295-.226.37-.343.45-.26.18.085-.27.154-.616.154-.767 0-.152.18-.205.402-.12.257.099.403-.005.403-.285 0-.241.069-.37.154-.285.084.085.034.588-.112 1.119-.39 1.41-.111 1.18.69-.572.705-1.538 1.175-1.582.645-.06-.41 1.177.076.73 1.043-.96.59-1.03 1.005-1.47 1.391-1.47.478 0 .529.115.38.872-.095.48-.654 1.84-1.241 3.02-.885 1.778-.95 2.008-.383 1.342.376-.443 1.3-1.803 2.054-3.022.753-1.22 1.42-2.168 1.48-2.108.208.209-.477 2.271-1.654 4.983-1.456 3.355-1.04 3.118.905-.517.895-1.673 1.524-2.585 1.634-2.37.18.349-.092 4.484-.428 6.524l-.178 1.074.636-.795c.35-.436 1.325-2.126 2.168-3.757.844-1.63 1.538-2.844 1.542-2.697.004.148-.232 1.055-.525 2.014-.827 2.708-.611 2.805.393.176 1.064-2.782 1.35-3.184 1.085-1.519-.252 1.583.139 1.16.928-1.005.336-.923.675-1.678.753-1.678.077 0 .069 1.057-.02 2.348l-.163 2.349.982-2.476c.839-2.112 1.1-2.517 1.774-2.752 1.444-.503 1.529-.302.809 1.9-.24.734-.386 1.385-.326 1.446.061.06.546-.7 1.08-1.688l.97-1.8 2.073-.077 2.073-.08-.166.952a52.463 52.463 0 0 0-.295 1.958l-.129 1.006.367-1.096c.513-1.53 1.24-2.878 1.442-2.676.094.094.236.74.316 1.435.131 1.136.22 1.272.884 1.348.406.047.738.206.738.354 0 .47-.545 1.306-.851 1.306-.515 0-4.786 2.173-4.786 2.435 0 .138 1.181.25 2.63.25 1.537 0 2.753.121 2.923.291.19.19.35.198.456.026.09-.146.634-.203 1.207-.126.573.077 1.254.02 1.514-.125.37-.208.142-.305-1.06-.455-1.68-.21-2.022-.578-1.533-1.65.409-.898 2.66-1.882 3.339-1.46.403.25.47.22.403-.18-.061-.362.092-.48.616-.475l.696.008-.63-1.425c-.902-2.042-.854-2.26.482-2.161l1.112.082 1.354 3.417c.744 1.88 1.387 3.385 1.427 3.344.04-.04-.165-.841-.457-1.78-.292-.938-.488-1.749-.435-1.8.052-.053.416.65.809 1.561.393.911.763 1.605.823 1.543.059-.061-.064-1.018-.275-2.125-.537-2.823-.376-3.067.776-1.175 1.414 2.324 1.625 2.454 2.347 1.44.326-.458.635-.79.687-.738.052.052-.203 1.175-.566 2.496-.363 1.321-.656 2.463-.65 2.538.005.075.429-.757.942-1.85.513-1.094.985-1.936 1.05-1.87.065.064-.235 1.328-.667 2.807-1.237 4.235-2.165 8.786-1.717 8.414.686-.569 4.063-5.458 5.451-7.89 1.406-2.464 1.59-2.442 1.103.13-.37 1.95-.127 2.003.407.088.24-.864.612-2.054.824-2.645.378-1.054.382-1.032.265 1.208l-.12 2.282.803-2.55c1.239-3.934 1.177-3.864 1.644-1.88l.41 1.745.06-1.61.06-1.61.675 2.091c.67 2.071 1.164 2.745.651.886-.551-1.996.187-.858 1.191 1.835.574 1.54 1.078 2.764 1.12 2.722.042-.042-.115-.789-.35-1.659-.456-1.69-.821-8.157-.46-8.157.207 0 2.085 4.633 2.771 6.837.183.587.409 2.34.503 3.893.169 2.8.174 2.815.527 1.752.196-.59.416-2.326.49-3.857.144-2.96.444-3.151.755-.479.223 1.925.445 1.667 1.152-1.326.27-1.146.568-1.958.662-1.806.094.152.256 1.471.36 2.932.207 2.93.459 2.673.79-.808.1-1.047.25-2.023.334-2.168.167-.286 1.05 4.235 1.127 5.767l.047.94.231-.94c.171-.695.127-6.926-.062-8.562-.077-.675.14-.537.59.375l.529 1.073-.148-1.342a45.848 45.848 0 0 0-.298-2.215l-.151-.871h4.167l-.153 2.75-.153 2.752.903-2.416c.832-2.226.904-2.332.906-1.343.001.59-.101 1.619-.23 2.283-.299 1.546-.144 1.714.279.302.355-1.186.896-1.262.608-.084-.097.397-.686 2.05-1.309 3.674-.623 1.624-1.223 3.375-1.332 3.891-.181.86-.07.768 1.31-1.072.829-1.108 1.78-2.583 2.111-3.278.332-.695.682-1.27.78-1.275.183-.012-.346 2.415-.725 3.321-.159.38-.126.46.125.304.187-.115.75-1.068 1.253-2.117 1.017-2.123 1.099-1.896.512 1.434-.22 1.255-.397 2.342-.39 2.416.005.074.312-.41.68-1.074.366-.665.61-.966.541-.671-.068.295-.313 1.3-.544 2.235-.537 2.166-.523 2.303.1.986l.509-1.074.059 2.282.059 2.281.197-2.013c.241-2.464.8-4.46 1.112-3.968.12.19.221.707.223 1.15.011 2.204 1.852 8.718 3.225 11.409.295.578.536 1.117.536 1.196 0 .4-.796.008-2.727-1.345-2.323-1.628-2.426-1.64-4.396-.498-1.072.623-1.142.628-6.864.463-3.179-.092-6.073-.093-6.432-.001-.387.099-.978.688-1.454 1.45-.442.706-1.585 2.247-2.541 3.424-1.727 2.126-1.466 2.182.773.167.505-.455.96-.787 1.01-.737.17.171-.666 2.233-1.524 3.753-.472.837-.807 1.522-.744 1.522.062 0 .51-.552.993-1.225.484-.673.928-1.175.988-1.116.15.151-.496 1.922-1.337 3.662-.387.8-.67 1.49-.628 1.531.042.042.494-.456 1.005-1.109.511-.652 1.013-1.19 1.116-1.196.254-.014-.378 2.044-1.515 4.939-.518 1.32-.912 2.43-.875 2.466.037.038.54-.65 1.117-1.527 1.054-1.602 1.437-1.997 1.092-1.125-.103.259-.411 1.195-.686 2.081l-.499 1.61.675-.805a37.901 37.901 0 0 0 1.61-2.146c.68-.977.894-1.161.788-.673-.82 3.777-1.325 6.63-1.141 6.444.073-.074.747-1.161 1.5-2.416l1.369-2.283.021 1.88.022 1.879.332-1.074c.32-1.04.337-.976.53 1.965.316 4.785.5 4.746 1.505-.318.92-4.643 1.386-5.857 1.24-3.233-.097 1.762.142 1.456.649-.83.333-1.505.37-1.558.559-.805.11.443.418 2.038.683 3.545.302 1.72.569 2.62.715 2.415.14-.194.169.04.075.582a12.249 12.249 0 0 0-.156 1.723c0 1.045-.196.833-1.091-1.192-.774-1.747-.833-1.725-1.22.443l-.19 1.074-.308-.916-.31-.914-.721 1.526c-.408.86-.724 1.99-.724 2.592 0 1.748-.425 1.222-1.087-1.349-.343-1.328-.691-2.413-.775-2.408-.216.01-1.895 2.834-1.895 3.187 0 .162-.121.294-.269.294-.159 0-.272-1.013-.278-2.483-.008-2.288-.039-2.43-.393-1.812-.342.599-.385.614-.393.133-.006-.296.103-.93.24-1.408.138-.48.165-.872.06-.872-.103 0-.935.878-1.848 1.95-1.956 2.298-3.562 3.896-3.558 3.54 0-.14.35-1.372.777-2.738.426-1.365.733-2.483.68-2.483-.231 0-3.035 1.757-6.423 4.024-2.021 1.353-3.728 2.406-3.793 2.341-.065-.064.683-1.433 1.663-3.04 3.045-4.998 5.576-9.611 5.545-10.11-.034-.536-1.496-4.822-2.236-6.557l-.481-1.127-1.558.627c-1.375.554-5.577 1.922-11.144 3.627-.99.304-2.02.551-2.29.551-.268 0-2.157 1.33-4.195 2.954-3.293 2.624-3.822 2.952-4.756 2.952-.578 0-1.051-.063-1.051-.14 0-.077.49-1.113 1.087-2.301l1.087-2.16-3.838.186c-2.111.103-4.322.269-4.912.368l-1.074.182 1.161.74c1.176.751 2.455 2.863 2.46 4.064.001.296-.35-.209-.782-1.12-.432-.913-1.065-1.827-1.409-2.033l-2.051-1.228c-1.228-.733-2.735-1.132-2.735-.724 0 .07.303.93.673 1.91 1.195 3.175.967 3.164-2.521-.12l-2.252-2.12-2.477-.181c-1.362-.1-3.595-.41-4.963-.69l-2.487-.51-.51.59c-1.012 1.175.091 4.523 3.177 9.646.51.847.866 1.64.79 1.763-.41.665 7.611 10.543 8.535 10.509.26-.01 2.152-3.735 1.975-3.889-.04-.035-.858-.456-1.818-.938-1.678-.843-1.72-.887-1.074-1.155 1.482-.614 4.601-2.7 5.114-3.421l.546-.766-.585-1.36c-.322-.749-.515-1.43-.43-1.516.183-.183.82 1.28 1.47 3.374.707 2.284.674 11.726-.047 13.44-.279.665-.5 1.591-.49 2.058.021 1.047 1.418 3.652 2.647 4.938.502.526.846 1.023.764 1.105-.232.232 1.681 1.804 2.424 1.99.857.216.85.836-.02 2.12-.378.556-.62 1.183-.54 1.393.383 1 6.475 2.777 12.173 3.553 4.863.663 5.941.688 7.184.168 1.077-.45 1.416-1.075.968-1.792-.259-.414-.236-.501.137-.501.64 0 1.425.783 1.248 1.245-.083.214-.618.627-1.19.92-1.009.514-1.041.573-1.04 1.934.002.772.08 2.048.176 2.837l.172 1.435 2.001.912c1.97.898 2.01.904 2.63.417.43-.338.542-.581.353-.77-.189-.189-.188-.595.003-1.287.186-.673.19-1.175.012-1.508-.18-.336-.173-.674.023-1.04.16-.299.232-.64.159-.757-.276-.447-.383-1.65-.159-1.79.129-.079.042-.479-.192-.887-.522-.91-.313-2.745.456-4.01l.518-.853 4.44.058c2.44.031 4.438.164 4.438.294 0 .132-1.91.181-4.318.112-4.299-.124-4.319-.121-4.73.507-.375.571-.37.786.064 2.302.358 1.25.478 2.624.476 5.431 0 2.067-.085 4.13-.187 4.583-.16.719-.092.866.54 1.154 1.133.516 1.162.438 1.41-3.723l.169-2.82.857 1.235c.472.679.936 1.585 1.032 2.014.337 1.508.413 1.655.824 1.62.285-.025.604.546 1.03 1.842.868 2.639.907 2.71 1.65 3.05.808.367.74.539 1.315-3.37.287-1.954.42-4.394.383-6.979-.054-3.692-.023-3.974.433-3.974.314 0 .576.29.727.806.336 1.146 0 6.472-.59 9.36-.664 3.246-.772 4.78-.346 4.928.203.07.335-.118.335-.475 0-.325.378-2.178.84-4.116.636-2.664.881-4.44 1.007-7.279l.167-3.755.805-.388c.443-.213 1.791-.441 2.996-.505l2.192-.117.426.825c.44.852.579 2.2.224 2.184-.11-.005-.684-.305-1.274-.67-.7-.43-1.474-.66-2.222-.662-.998 0-1.183.092-1.42.715-.505 1.328-.097 2.01 2.069 3.444 1.114.739 2.117 1.583 2.229 1.878.21.553-.51 6.68-1.01 8.59-.428 1.637-.5 3.425-.142 3.546.44.15.78-1.102 1.54-5.693 1.482-8.946 1.685-11.391 1.099-13.22-.245-.763.215-.795.943-.066.346.345.538.895.538 1.543 0 2.006-1.64 12.517-2.534 16.239-.232.966-.274 1.602-.112 1.703.423.261 1.536-.13 1.802-.632.514-.973 1.41-6.226 1.567-9.19.164-3.096.436-4.124 1.422-5.37.293-.369.608-1.058.7-1.532.143-.728.037-.993-.682-1.713-.9-.9-.92-1.586-.044-1.586.849 0 1.343.675 2.001 2.737.152.474 3.05 1.993 3.308 1.734.287-.287-.447-1.84-1.118-2.369-.374-.293-.617-.634-.542-.756.15-.242 2.365.27 3.276.758.619.33 1.69 2.321 1.695 3.148.001.286.197 1.124.435 1.862.461 1.432.618 5.924.27 7.717-.283 1.455.306 1.323 2.1-.47 1.498-1.499 2.568-3.21 2.552-4.083-.005-.264-.301-1.079-.66-1.81-.358-.732-.596-1.389-.527-1.458.263-.262 4.658 2.979 6.609 4.873 1.808 1.756 2.011 1.888 1.805 1.168-.348-1.212-2.148-2.948-7.087-6.838l-.802-.633.805.475c1.265.745 3.688 2.655 5.25 4.136 1.02.969 1.488 1.258 1.64 1.017.344-.541.297-.617-1.32-2.098-3.818-3.495-11.146-8.293-14.371-9.41-.646-.223-1.054-.55-1.121-.898-.25-1.292-.67-9.533-.522-10.27.089-.445.023-1.477-.146-2.295-.273-1.312-.527-1.705-2.174-3.355-1.695-1.698-2.304-2.745-1.597-2.745.148 0 .269.145.269.321 0 .177.324.659.72 1.073.835.871 2.187 1.004 3.717.364.512-.214.93-.313.93-.221 0 .524 1.589-1.478 3.021-3.809.91-1.481 2.41-3.855 3.331-5.275 2.04-3.142 2.372-4.315 2.142-7.565-.116-1.632-.084-2.356.095-2.177.148.148.32 1.28.382 2.514.142 2.803-.357 4.549-2.043 7.137a617.006 617.006 0 0 0-3.424 5.357c-1.214 1.919-2.543 3.799-2.952 4.178-.86.794-1.262 2.557-1.533 6.693l-.166 2.55.967-1.424a40.99 40.99 0 0 1 2.252-2.925c1.114-1.304 1.193-1.473.612-1.289-.606.192-.568.101.388-.966.581-.65 1.124-1.208 1.207-1.242.083-.035.435.328.781.805l.63.867-.18-1.045-.18-1.044 1.415 1.238c.778.68 1.45 1.201 1.495 1.157.043-.044-.282-1.147-.724-2.453-.441-1.306-.746-2.43-.677-2.499.068-.068.43.076.804.321.793.52.846.4.236-.53-.685-1.047-.147-1.296 1.357-.631.702.31 1.35.493 1.438.406.088-.088-.187-.521-.61-.963l-.77-.802 1.326-.03a57.884 57.884 0 0 1 1.996-.013c.501.012.4-.078-.401-.352-.591-.203-1.34-.379-1.663-.39-.324-.012-.65-.121-.726-.245-.14-.225 2.216-1.406 3.73-1.871l.805-.247-1.074-.279c-.59-.153-1.435-.366-1.878-.473l-.805-.195.851-.36c.468-.199 1.796-.631 2.952-.961 1.156-.33 2.162-.648 2.236-.706.073-.058-.32-.5-.873-.98-.554-.48-1.005-.94-1.005-1.02 0-.18 1.552-.736 2.052-.736.304 0 .363 8.758.363 53.55V37.017h-57.206zm64.237 7.783c1.427 0 1.61.06 1.484.47l-.714 2.35c-.313 1.033-.666 1.98-.784 2.103-.117.124-.528-.722-.914-1.88-1.014-3.043-1.014-3.043.928-3.043zm-8.984.538c.408 0 1.79 2.522 1.527 2.785-.44.44-.852.04-1.35-1.309-.428-1.163-.466-1.476-.177-1.476zm-3.57.333c.21.017.449.66.453 1.433.004.794-.24.971-.99.72-.233-.077-.25-.305-.059-.826.145-.396.327-.898.405-1.116.054-.152.12-.216.19-.21zm2.103.253c.175.036.41.34.754.924.667 1.13.579 1.3-.677 1.305-.712.003-.888-.089-.768-.4.086-.22.224-.735.306-1.14.099-.492.211-.725.385-.689zm-.613 2.814c1.261.402 1.267.407.711.635-.967.398-1.437.304-1.29-.259.088-.335.293-.468.58-.376zm-1.222 1.769c.126.053.189.287.189.707 0 .803-.042.834-1.14.83-.628-.001-1.303-.106-1.5-.23-.335-.214-.112-.34 2.305-1.3.056-.023.104-.025.146-.007zm-37.214 2.493c-.073-.08-.166.014-.324.23-.194.265-.426 1.284-.518 2.267-.091.982-.228 2.268-.304 2.859-.1.795-.063.97.144.672.154-.221.285-.705.29-1.074.007-.37.255-1.211.554-1.871.405-.892.5-1.476.366-2.268-.081-.48-.135-.734-.208-.815zm41.544 1.003c-.994-.047-2.18.006-3.387.167-2.63.35-9.642.966-14.14 1.243-2.444.15-3.099.114-3.285-.18-.17-.268-.233-.276-.236-.03-.003.197-.356.335-.86.335-.508 0-1.106.237-1.475.584-.541.508-.621.523-.621.12 0-.426-.514-.457-6.644-.403-7.716.069-7.852.103-7.852 1.987 0 .661.108 1.202.238 1.202.518 0 .53 1.208.02 2.031-.687 1.113-.683 2.304.011 2.737.647.404.686 1.072.112 1.891-.615.878-.27 2.694.652 3.446.672.548.69.623.353 1.552-.328.91-.296 1.1.464 2.724.703 1.503.978 1.817 1.967 2.25 1.238.543 4.305 1.155 8.8 1.756 4.072.545 12.97.351 17.85-.389 7.617-1.155 15.515-4.013 16.435-5.947.442-.928.066-2.343-2.217-8.338-2.133-5.604-3.238-7.931-3.941-8.308-.445-.238-1.249-.383-2.244-.43zm1.601 2.664c.75-.09 1.32 1.097.647 1.77-.427.426-.63.406-1.15-.113-.516-.517-.445-1.144.174-1.534a.796.796 0 0 1 .33-.123zm.202.502c-.133-.053-.3.02-.44.247-.197.317.057.805.417.805.14 0 .253-.24.253-.536 0-.283-.097-.463-.23-.516zm-22.58 1.324a6.787 6.787 0 0 1 2.858.65c.764.355 1.528.907 1.7 1.227.658 1.23 1.853 1.38 5.636.7l.94-.168-.933.43c-.513.237-1.783.494-2.822.573-1.881.142-1.894.139-2.826-.804-2.197-2.224-4.856-2.696-7.518-1.335-2.092 1.07-3.42 2.776-3.79 4.87-.29 1.646-.278 1.708.668 3.603 2.304 4.613 4.466 6.223 8.362 6.223 2.465 0 3.617-.498 4.63-2 .751-1.116.767-2.274.05-3.95-1.583-3.707-5.981-5.282-7.763-2.78-.827 1.162-.717 2.316.268 2.826.894.462 1.875.176 1.875-.548 0-.216.121-.393.269-.393.469 0 .29.972-.273 1.48-.72.652-2.281.282-3.02-.714-.488-.658-.5-.797-.144-1.863.49-1.47 1.43-2.164 3.153-2.33 2.825-.271 5.472 1.665 6.336 4.636.556 1.915.354 3.071-.761 4.341-1.803 2.053-4.863 2.52-8.226 1.254-.95-.357-3.607-.957-5.905-1.333s-4.227-.733-4.287-.793c-.06-.06.495-.748 1.234-1.529 2.104-2.224 2.815-3.525 2.907-5.312.15-2.916 1.62-4.966 4.54-6.325a6.675 6.675 0 0 1 2.842-.636zm24.415 3.33c.909-.09 1.509.962.757 1.714-.41.41-.765.396-1.355-.051-.668-.507-.581-1.199.193-1.552.14-.063.275-.099.405-.111zm-.062.477c-.463-.09-.654.48-.285.848.282.282.754.042.754-.382 0-.207-.21-.416-.469-.466zm-42.092 2.365c-.156 0-.21.12-.118.267.091.148.22.269.285.269.065 0 .118-.121.118-.269 0-.148-.128-.267-.285-.267zm10.557 2.907-.633 1.029c-.348.565-1.096 1.533-1.66 2.148-.886.964-.96 1.137-.543 1.26.782.228 3.616.702 4.777.798.59.049 1.175.108 1.299.133.123.025-.22-.56-.764-1.3a29.321 29.321 0 0 1-1.731-2.706zm33.347.85c.628 0 1.104 1.222.678 1.737-.188.225-.493.41-.678.41-.185 0-.49-.185-.677-.41-.427-.515.05-1.737.677-1.737zm0 .403c-.147 0-.308.271-.355.604-.059.415.053.603.355.603.303 0 .413-.188.354-.603-.047-.333-.206-.604-.354-.604zm8.67 8.126.112 2.514c.062 1.382.208 2.724.324 2.983.12.267.102.469-.044.469-.141 0-.476-.486-.744-1.08-.575-1.275-2.488-3.122-3.496-3.375-1.037-.26-3.503.061-5.393.703-3.02 1.026-4.628 3.068-5.068 6.436-.106.812-.315 1.628-.464 1.813-.278.343-1.333.46-1.616.177-.23-.231.545-2.668 1.441-4.53.975-2.025 1.79-2.953 3.06-3.483 1.636-.684 5.775-1.759 7.78-2.022 1.034-.135 2.382-.328 2.994-.426zm-51.201 1.671c-.114 0-.084.543.068 1.207.339 1.478.578 1.392.323-.115-.101-.6-.277-1.092-.391-1.092zm51.846.571c.03-.013.088.031.172.108.405.374 1.398 3.309 1.167 3.45-.102.061-.4-.511-.665-1.271-.587-1.695-.764-2.247-.674-2.287zm-16.562.547c-.065-.065-1.282.101-2.703.369-2.842.535-2.841.534-4.377 3.546l-.58 1.141.743-.01c.409-.006 1.185-.34 1.726-.74 2.246-1.661 5.301-4.195 5.191-4.306zm47.86.27c.279.035.508.334.745.901.3.72.358 1.574.237 3.557-.135 2.206-.268 2.765-.85 3.616-.89 1.301-1.312 1.304-.616.004.62-1.155.7-2.553.175-2.99-.56-.465-1.337.586-1.507 2.041-.173 1.477-.808 1.911-.827.565-.007-.492-.173-1.258-.37-1.7l-.357-.806-.301.754c-.536 1.343-.642 2.78-.284 3.849.191.569.324 1.328.297 1.686-.051.685-.75 1.63-1.204 1.63-.148 0-.068-.22.176-.49s.434-.845.422-1.276l-.021-.784-.47 1.006c-.682 1.462-.745 1.456-1.08-.105-.167-.78-.425-1.492-.572-1.582-.163-.101-.193-.782-.078-1.756.162-1.363.217-1.483.39-.84.111.412.29 1.558.395 2.546.219 2.036.382 1.804.904-1.283.358-2.12 1.347-4.733 2.26-5.972.418-.569.765-.738 1.512-.738.533 0 1.115.145 1.292.323.49.49.418-.334-.094-1.065-.401-.572-.442-.578-1.14-.141l-.726.454.652-.725c.434-.484.762-.713 1.04-.678zm-76.764.741c.637-.014 1.75.116 2.473.29 1.224.293 1.435.476 3.025 2.64 3.368 4.581 4.798 6.777 4.655 7.148-.509 1.326-4.803 2.37-7.286 1.77-.443-.106-1.064-.333-1.38-.502-.625-.336-2.916-2.96-2.739-3.138.06-.06.649.319 1.308.842.66.523 1.563 1.124 2.006 1.335l.805.383-.665-.476c-.982-.702-1.617-1.376-1.617-1.715 0-.165.475.129 1.055.653 1.692 1.529 3.99 1.912 6.68 1.113.766-.227 1.39-.474 1.39-.547 0-.177-.764-1.383-1.556-2.453l-.638-.862-.76.56c-.906.67-1.926.517-2.95-.443-.37-.346-.973-.682-1.342-.749-.61-.11-.597-.124.134-.161 1.07-.054 1.551-.39 1.433-1.002-.074-.384-.377-.52-1.293-.584-1.388-.097-1.822-.326-.618-.326.684 0 .84-.121.946-.738.07-.406.209-.928.31-1.16.246-.57-.858-1.054-2.407-1.054-1.613 0-1.902.6-1.549 3.212.141 1.038.167 1.889.058 1.889-.275 0-.587-2.735-.449-3.922.114-.977.113-.978-.363-.39-.398.491-.455.953-.348 2.786l.13 2.196-.417-1.343c-.868-2.799-1.218-3.5-2.006-4.026-.443-.295-.772-.643-.729-.774.072-.219 1.82-.386 4.704-.452zm6.885.172c-.238.002-.395.023-.395.073 0 .19 3.87 3.774 3.97 3.677.042-.042-.186-.786-.505-1.654-.318-.868-.654-1.657-.747-1.753-.158-.164-1.608-.346-2.323-.343zm31.369.412c1.017.144 1.846 1.083 1.99 2.573.184 1.922-.289 3.19-1.328 3.551-1.192.416-1.678.362-2.228-.247-.27-.297-.826-.536-1.25-.536-.42 0-.763-.122-.763-.27 0-.147.482-.268 1.072-.268.78 0 1.161.146 1.406.538.688 1.102 2.358.206 2.785-1.497.24-.959-.799-3.014-1.63-3.223-.86-.216-1.755.491-1.755 1.386 0 .335-.189.8-.42 1.032-.466.466-1.727.578-1.727.153 0-.147.172-.268.382-.268.21 0 .46-.359.557-.798.096-.439.538-1.103.98-1.476.64-.537 1.318-.737 1.929-.65zm37.636.82c-.614-.007-1.287.429-1.766 1.24-.507.86-.54 1.106-.271 2.004.342 1.142.59 1.13 1.079-.052.379-.913 1.19-1.285 1.764-.809.312.26.39.241.39-.09 0-.227.066-.585.146-.794.08-.21-.077-.656-.35-.994-.274-.337-.623-.501-.992-.505zm-48.034.972-.014.677c-.008.373-.108.776-.227.894-.118.119-.14-.022-.046-.313.169-.522.166-.522-.254-.007-.233.287-.424.39-.424.23s.217-.558.482-.886zm10.01.326c.554 0 .946 1.008.671 1.724-.167.436-.681.563-.999.246-.098-.099-.18-.582-.18-1.074 0-.7.112-.896.508-.896zm-33.255.135c-.318 0-.404.381-.408 1.798-.005 1.542.072 1.837.537 2.063.772.375 1.304.355 1.89-.073.451-.33.47-.462.162-1.136-.306-.672-.377-.706-.606-.297-.436.779-.683.528-.933-.945-.164-.968-.366-1.41-.642-1.41zm63.8.564c.173-.008.313.79.517 2.39.126.98.248 1.347.312.939.23-1.449.51-1.005.398.628-.067.976.007 1.965.172 2.273.294.549.114 3.81-.21 3.808-.09 0-.448-1.178-.794-2.617-.962-4.002-.881-3.793-1.16-3.04-.13.353-.36 2.222-.512 4.155-.328 4.2-.37 4.484-.589 3.919-.086-.221-.233-1.007-.328-1.745-.095-.738-.422-2.187-.726-3.22-.5-1.702-.522-2.08-.232-3.985.508-3.344.67-3.452 1.074-.723.199 1.342.446 2.494.55 2.558.103.064.469-1.238.811-2.893.337-1.625.543-2.438.717-2.447zm-41.59.955c.087.007-.029.355-.388 1.232-.075.185-.013.337.139.337.152 0 .357-.372.457-.826.1-.453.241-.763.316-.688.28.28-.508 2.05-.912 2.05-.324 0-.377-.19-.242-.864.095-.476.308-.988.475-1.14.073-.067.125-.103.155-.101zm19.288.03c.34.339-1.052 2.34-2.777 3.99-3.763 3.602-5.492 4.42-7.647 3.622-1.368-.507-4.768-2.584-4.768-2.913 0-.154.2-.178.47-.06 3.578 1.577 6.86 1.952 8.456.966.984-.608 2.785-2.442 4.09-4.166.433-.571.83-.905.885-.742.105.315-.649 1.516-1.798 2.866-.382.45-.091.204.647-.546.738-.749 1.557-1.767 1.82-2.262.263-.495.543-.835.623-.756zm-34.063.196c.158 0 .485.301.727.67.242.37.618.673.836.673.63 0 .46.489-.207.591-.573.088-.563.115.202.544 1.026.577.55.581-.605.006-1.008-.502-1.13-.874-.285-.874.563 0 .555-.033-.184-.805-.425-.443-.643-.805-.484-.805zm7.653.28c.457-.029-2.983 4.857-3.555 5.047-.216.072-.031-.285.412-.793.443-.508 1.289-1.67 1.88-2.582.59-.913 1.158-1.666 1.263-1.673zm3.836.476-.94.849c-.822.743-2.445 1.821-1.744 1.16.147-.14.811-.648 1.476-1.13zm-8.673 2.216c.25-.01.53.1.621.249.19.308.18.308-.538 0-.437-.189-.453-.234-.083-.25zm13.103.67c0-.11.542.317 1.207.95.664.633 1.208 1.188 1.208 1.232 0 .199-.25.015-1.297-.951-.615-.568-1.118-1.122-1.118-1.232zm-12.732.813c.163.016.198.06.085.133-.348.22-2.607.359-2.364.145.062-.054.703-.162 1.424-.24.4-.043.692-.055.855-.038zm10.472.578c.063-.064.598.33 1.188.875.59.544 1.556 1.208 2.146 1.474.59.266 1.072.58 1.072.7 0 .274-1.737.607-2.2.421-.193-.077.035-.15.507-.16 1.015-.026 1.392-.447.618-.693-.3-.095-1.088-.587-1.75-1.093-.663-.506-1.249-.92-1.302-.92-.052 0 .004.513.125 1.14.122.628.227 1.224.233 1.325.006.1.284.234.616.298l.603.117-.594.036c-.337.02-.713-.185-.867-.473-.29-.54-.59-2.853-.395-3.047zm28.402 3.05c.139.064-.042.446-.553.958-1.094 1.097-4.45 4-6.849 5.923-2.582 2.071-4.524 3.156-6.3 3.523-1.806.374-5.916.7-5.687.452.098-.106 1.22-.42 2.495-.699 1.936-.423 2.9-.849 5.861-2.592 1.95-1.147 4.983-3.175 6.74-4.506a1131.43 1131.43 0 0 1 3.698-2.792c.312-.23.51-.306.595-.267zm18.645 1.972c.025.01.038.034.038.072 0 .32-2.858 2.081-3.801 2.343-.345.096.142-.249 1.083-.767.941-.519 1.939-1.149 2.216-1.4.207-.187.387-.279.463-.248zm-19.874.95c.254 0 1.177 2.451.992 2.636-.054.054-.273-.245-.487-.665-.58-1.139-.792-1.97-.505-1.97zm2.413 2.584c.035.019.052.063.052.133 0 .223-.876 1.244-1.946 2.27-5.362 5.132-8.44 7.357-10.885 7.868-1.724.36-6.67.395-6.885.049-.085-.137.542-.318 1.393-.405 2.926-.297 4.84-.69 6.128-1.26 2.147-.95 8.594-5.57 11.323-8.115.45-.42.715-.596.82-.54zm6.248.954c.041-.046.08-.036.121.006.072.071-.24 1.87-.691 3.996-.452 2.128-.998 4.714-1.214 5.747-.443 2.124-.896 6.289-.732 6.742.165.458 1.34.908 2.372.908.989 0 1.233.358.457.668-.258.104-1.707.254-3.22.335-2.015.108-2.752.063-2.752-.168 0-.174.3-.909.668-1.633 1.646-3.249 2.757-6.851 4.307-13.964.402-1.845.56-2.496.684-2.636zm-62.78 1.151c-.53.53 4.203 11.531 6.614 15.376 1.124 1.793 1.465 1.39.543-.643-.863-1.902-.789-2.23.507-2.238.332-.002.605-.125.605-.273 0-.148-.334-.27-.74-.273-1.608-.008-1.989-.287-2.785-2.043-.922-2.033-.971-2.518-.237-2.326.294.077.986.054 1.538-.05l1.006-.188-2.044-.789c-2.04-.788-2.045-.79-2.747-2.409-.387-.891-.702-1.686-.702-1.765 0-.079.534-.1 1.186-.048.652.052 1.147.055 1.1.008-.412-.411-3.744-2.44-3.844-2.34zm10.062.206c-.047.024-.111.095-.183.205-.143.222-.26.523-.26.671 0 .148.117.087.26-.134.143-.222.26-.523.26-.671 0-.074-.03-.096-.077-.071zm5.697 3.426c.134 0 .18.241.103.537-.077.295-.186.537-.243.537-.057 0-.103-.242-.103-.537 0-.296.109-.537.243-.537zm.431 1.033c.015.008.03.044.047.108.068.259.068.682 0 .94-.067.258-.122.046-.122-.47 0-.388.031-.604.075-.578zm-1.464 1.383c.14 0 .253.121.253.269 0 .147-.19.269-.42.269-.23 0-.343-.122-.252-.27.091-.147.28-.268.42-.268zm42.622.141c.373.381-4.776 4.129-8.979 6.534-2.388 1.368-3.582 1.723-4.937 1.471-1.326-.246-4.316-1.253-4.472-1.505-.102-.164.367-.174 1.283-.027 3.26.522 4.249.337 7.816-1.463 3.803-1.919 5.669-2.953 7.678-4.259.79-.512 1.514-.85 1.61-.751zm-76.934 3.022c-.199-.004-.153.084-.044.215.184.222 1.917 1.596 3.85 3.054 1.932 1.458 4.554 3.537 5.824 4.619a102.156 102.156 0 0 0 4.563 3.632c4.712 3.48 7.616 5.725 12.28 9.492 2.207 1.783 5.658 4.226 8.033 5.686 1.14.701 1.958 1.274 1.819 1.275-.14 0 .156.303.656.672.5.369 1.054.672 1.231.672.178 0 .715-.635 1.194-1.41 1.654-2.675 2.525-3.93 2.643-3.812.065.065-.083.34-.328.611-.245.271-.445.56-.445.643 0 .082-.483.975-1.072 1.983-.89 1.523-1.003 1.87-.67 2.056.22.123.402.43.406.68.008.591.736-.303 1.927-2.363 2.262-3.91 3.183-5.134 4.177-5.549.545-.228 1.506-.769 2.137-1.203 1.465-1.008 1.488-.57.086 1.6-1.054 1.63-1.055 1.638-.334 1.365.398-.15.995-.529 1.328-.84.496-.464.603-.49.603-.137 0 .83-1.437 2.122-3.526 3.173-1.16.583-2.11 1.103-2.11 1.154 0 .257 4.663-1.06 6.608-1.864 1.221-.506 2.408-.92 2.638-.92.323 0 .418-.308.418-1.376 0-.927.182-1.674.558-2.283.307-.497.446-.903.309-.903-.753 0-1.884.656-2.439 1.415l-.632.866.175-1.207c.125-.854.487-1.574 1.237-2.464.583-.691 1.06-1.32 1.06-1.398 0-.372-3.693 1.283-4.183 1.874l-.56.675-3.064-1.214c-3.186-1.263-7.283-2.802-16.62-6.247-6.326-2.333-10.976-4.15-13.287-5.192-.886-.398-1.882-.81-2.214-.914-.332-.104-.604-.302-.604-.44 0-.339.134-.324 2.287.25 1.03.274 3.021.766 4.424 1.092 1.402.327 4 .937 5.77 1.357 2.811.665 4.173.967 6.778 1.501.42.086.604-.003.604-.29 0-.552-.566-.74-4.82-1.59-4.315-.864-7.504-1.718-15.26-4.084-10.004-3.053-12.814-3.9-13.411-3.912zm39.09 1.402c.257 0 1.917 1.042 1.917 1.202 0 .248-.392.13-.94-.285-.295-.224-.74-.355-.986-.29-.3.077-.402-.009-.307-.256.079-.205.221-.372.316-.371zm-8.55 2.495a.54.54 0 0 0-.357.167c-.17.17-.176.58-.015 1.14.19.665.443.916 1.049 1.05.439.096 1.994.724 3.456 1.395 1.462.67 2.818 1.157 3.014 1.082.196-.075.615-.554.93-1.063.315-.51.512-.987.44-1.06-.073-.072-.694.01-1.381.183-1.53.385-2.825.232-4.645-.551-1.09-.47-1.423-.76-1.554-1.354-.134-.612-.554-1.01-.936-.99zm3.688 3.906.187.759c.463 1.884 1.677 2.622 7.666 4.66 3.281 1.117 4.363 1.265 5.493.75.595-.27.775-.228 1.356.317.653.614.694.618 1.612.18.93-.443.959-.437 2.212.35.7.439 1.331.798 1.405.799.074 0 .618-.416 1.209-.925.59-.51.913-.929.718-.935-.196-.006-2.37-.254-4.832-.553-5.602-.68-10.086-1.934-14.106-3.943zm34.78 1.14c1.992-.029 2.869.274 2.867.99 0 .377-.26.46-1.437.46-1.8 0-2.803.518-3.08 1.591-.284 1.092-1.022 1.234-1.219.235a18.257 18.257 0 0 1-.224-1.814c-.09-1.268.232-1.42 3.093-1.462zm-5.723 1.34c-.145-.087-.267.025-.267.396 0 .532.534 1.55.718 1.367.076-.076.056-.51-.043-.963-.094-.426-.262-.712-.408-.8zm.538 2.928c-.298 0-.37 1.151-.09 1.432.303.303.358.208.358-.626 0-.443-.12-.806-.268-.806zm0 2.147c-.298 0-.37 1.15-.09 1.432.303.303.358.207.358-.627 0-.443-.12-.805-.268-.805zm-44.424.495-.999.76c-1.517 1.154-1.51 1.465.08 3.766l4.787 6.936c1.858 2.695 4.539 6.331 5.956 8.08 1.418 1.75 2.988 3.737 3.49 4.414.501.677 1.793 2.384 2.868 3.794 1.664 2.18 2.025 2.847 2.416 4.47.285 1.184.49 1.666.542 1.267.045-.354-.097-1.29-.317-2.08s-.486-1.737-.592-2.106l-.192-.672.675.617.675.617.813-.684c.447-.377.994-.683 1.216-.683.46 0 .981 1.284 1.022 2.521l.028.834.23-.94c.284-1.16.016-2.069-1.53-5.209-.647-1.315-1.124-2.443-1.059-2.508.185-.186 1.498 2.013 2.604 4.362.767 1.629 1.015 1.973 1.027 1.425.018-.851-1.766-4.803-3.053-6.762-.496-.756-1.534-2.521-2.307-3.924-.772-1.402-1.57-2.788-1.773-3.08-.202-.29-.368-.694-.368-.896 0-.572 1.398.727 3.223 2.996a74.596 74.596 0 0 0 3.362 3.845c2.017 2.12 2.05 1.98.496-2.194-.983-2.644-1.404-3.124-2.667-3.04-.717.049-1.133-.233-2.853-1.94-1.837-1.822-5.856-4.447-5.856-3.825 0 .124.457 1.007 1.015 1.964 2.084 3.574 3.287 5.901 3.05 5.901-.135 0-.461-.332-.726-.738-.265-.406-1.155-1.534-1.977-2.505-.823-.972-2.22-2.712-3.106-3.868-3.348-4.367-6.18-7.21-8.895-8.927-.735-.465-1.176-.953-1.227-1.358zm44.424 1.92c-.147 0-.269.363-.269.806 0 .443.122.805.27.805.147 0 .267-.362.267-.805 0-.443-.12-.805-.268-.805zm-45.564.112c.064-.064.537.579 1.051 1.43.515.85 1.562 2.543 2.327 3.76.766 1.219 1.299 2.215 1.186 2.215-.113 0-.808-.971-1.546-2.158-2.468-3.97-3.135-5.13-3.018-5.247zm-3.632 1.476c-.593.013-1.376.276-2.628.695-2.723.912-3.74 1.585-3.74 2.478 0 .335.072.346.414.062.242-.201.502-.242.624-.1.533.62 3.518 4.729 4.662 6.418 1.748 2.579 2.763 3.88 3.775 4.843.473.45 1.518 1.658 2.324 2.685.805 1.026 3.503 3.79 5.994 6.143 3.927 3.708 4.657 4.53 5.491 6.174.882 1.738.973 2.135 1.085 4.725.14 3.234-.4 5.767-1.839 8.616-.45.89-.936 1.94-1.08 2.335l-.264.716.698-.805c.383-.443 1.12-1.69 1.637-2.77 1.259-2.635 1.648-4.884 1.423-8.236-.34-5.085-.927-5.954-9.248-13.715-2.533-2.362-4.31-4.339-6.52-7.248-4.95-6.52-7.297-9.84-7.297-10.324 0-.251.332-.581.738-.734 1.522-.573 2.575-.86 2.7-.734.136.136 0 .196-1.672.739-.58.188-1.099.48-1.154.648-.055.168.36.846.92 1.508 1.03 1.218 1.5 1.8 2.222 2.759.388.515.38.513-.26-.01l-.657-.536.426.671c.234.37.592.674.796.678.209.004.333.218.285.496-.047.27.023.424.156.342.132-.081.653.191 1.159.607.505.415 1.54 1.07 2.3 1.454 1.458.737 2.55 1.855 9.463 9.688 3.164 3.584 3.887 4.568 4.489 6.102.394 1.006.939 2.03 1.21 2.274.459.416.58.408 1.822-.109 1.669-.693 1.842-.515 1.837 1.899-.002 1.002.077 1.905.177 2.005.341.341.644-.557.512-1.523-.413-3.038-.65-3.665-2.042-5.424a82.583 82.583 0 0 1-2.231-2.952c-.455-.647-2.569-3.215-4.697-5.708-8.682-10.167-8.503-9.94-8.033-10.23.164-.101.07-.553-.248-1.174-.557-1.092-1.36-1.925-1.36-1.41 0 .647-.454.222-1.695-1.585-1.225-1.785-1.686-2.454-2.674-2.432zm79.972.027c-.324.325-1.249 4.647-1.249 5.834 0 2.26.677 2.158 1.043-.158.249-1.574.405-5.875.206-5.676zm-31.002.823c-.14-.029-.335.087-.557.355-.24.289-.233.41.033.516.622.25.75.19.75-.355 0-.313-.085-.487-.226-.516zm-6.621 1.583c-.737.046-1.04.454-1.593 1.268l-.666.981 1.088.487c.598.268 1.443.868 1.878 1.334.735.787.84.821 1.519.493.4-.194.97-.322 1.266-.285.543.068 1.408.733 1.19.915-.064.055-.9.625-1.858 1.268-2.275 1.526-3.663 2.823-6.123 5.721l-2.02 2.378.322 3.626c.176 1.994.449 4.224.606 4.957l.286 1.333.577-.518c.318-.285.798-.596 1.066-.691.346-.122.437-.333.315-.718-.24-.757.414-2.105 1.068-2.199.448-.064.53-.246.463-1.03-.06-.703.069-1.088.497-1.476.32-.288.627-.494.686-.457.441.28.663-.033.512-.72-.193-.88.466-2.166 1.11-2.166.521 0 .759-.73.385-1.182-.48-.578.172-1.77.969-1.77.668 0 1.216-.83.668-1.014-.42-.14-.406-1.573.019-1.938.184-.158.577-.456.872-.663.43-.3.47-.443.202-.716-.412-.417-.443-1.745-.047-1.99.19-.117.26.12.202.695-.054.528.044.921.247.991.212.073.336-.139.336-.577 0-.381.13-.693.289-.693 1.018 0-2.164 8.245-4.523 11.722-1.453 2.14-3.285 5.483-6.228 11.361-3.333 6.657-5.327 9.588-8.988 13.213-3.338 3.305-5.404 4.842-10.57 7.862-3.842 2.245-5.82 3.868-7.644 6.27-1.052 1.384-3.405 5.373-3.405 5.771 0 .093.232.17.516.17.365 0 .713-.427 1.18-1.448 1.06-2.316 3.365-5.724 4.573-6.763.91-.784 1.267-.934 1.966-.823.983.156 2.79-.822 5.54-3.001 1.988-1.576 5.387-3.773 6.357-4.111.384-.134.921-.634 1.194-1.11.272-.475 1.173-1.71 2.003-2.743.829-1.033 2.19-2.784 3.027-3.891 2.324-3.078 3.22-3.842 4.702-4.014 1.214-.142 1.312-.221 2.799-2.294 2.035-2.836 3.722-6.038 3.722-7.064 0-.478-.264-1.131-.626-1.553l-.627-.728-2.355 4.538c-1.295 2.496-2.46 4.649-2.586 4.784-.137.146-.302.063-.403-.203-.197-.51 4.32-10.109 6.272-13.33 1.466-2.418 3.386-6.463 4.206-8.858.329-.96.708-1.726.842-1.703.134.022.396.506.584 1.074.604 1.825.667 1.9.877 1.032.107-.443.211-1.289.231-1.88.062-1.857.24-1.934 2.553-1.09 1.12.408 2.051.881 2.069 1.05.044.426.004.585-.698 2.793-.34 1.07-.528 1.945-.418 1.945.178 0 1.573-2.88 1.983-4.094.167-.495.846-.636 1.098-.228.082.133-.339 1.655-.934 3.382l-1.082 3.14.66 1.115c.363.613 1.32 2.058 2.126 3.211l1.468 2.097.817-2.138c1.681-4.402 1.693-3.918-.182-7.133-.907-1.554-1.648-2.959-1.648-3.12 0-.333.24-.271 3.355.852 1.181.426 2.28.953 2.442 1.17.657.882-1.682 10.877-3.699 15.808-.848 2.074-.866 2.144-.483 1.906 1.25-.772 4.427-10.744 4.973-15.607.173-1.545.234-1.658.931-1.76.708-.105.755-.045.916 1.169.25 1.883 1.904 4.896 3.453 6.288 1.525 1.371 2.801 1.803 5.424 1.835 2.47.03 4.082-.756 5.66-2.762 1.393-1.772 1.838-3.254 1.657-5.51-.24-2.992-1.591-4.57-4.955-5.79-2.396-.869-4.574-.691-7.73.63-1.328.557-2.629 1.128-2.89 1.268-.651.351-2.733-.177-9.042-2.296-2.872-.964-5.385-1.754-5.584-1.754-.2 0-1.213-.194-2.253-.43-2.002-.456-2.139-.82-.362-.962 1.07-.084 1.071-.086.409-.462-.366-.208-2.527-.897-4.802-1.532-2.291-.64-3.463-.96-4.2-.915zm-47.902 1.084c-.079.002-.316.113-.526.246-.327.207-.321.332.036.878.23.35.673.636.986.636.312 0 .568-.046.568-.103 0-.216-.928-1.661-1.064-1.657zm1.852 2.412c-.102 0-.324.167-.494.372-.48.578.165 1.776.957 1.776.345 0 .627-.057.627-.125 0-.31-.923-2.023-1.09-2.023zm40.777.35a4.486 4.486 0 0 0-1.59.425c-.653.304-2.026.745-3.05.98-1.025.235-2.274.599-2.775.808-.843.352-.896.445-.723 1.257.426 1.995.862 2.615 2.33 3.301 1.517.71 2.034.703 4.279-.068.764-.263 1.951-1.067 3.063-2.074 1.573-1.426 1.792-1.736 1.643-2.329-.39-1.555-1.652-2.402-3.177-2.301zm44.237 1.432c-.094.05-.187.225-.328.55-.29.667-.261.814.248 1.258.573.5.576.498.661-.353.047-.471-.064-1.038-.247-1.259-.144-.172-.24-.246-.334-.196zm-59.205.972c.01-.016.156.053.446.194.332.16.605.348.605.416 0 .206-.14.147-.687-.291-.25-.2-.375-.303-.364-.319zm-21.965.077c-.045-.006-.07.011-.07.053a.6.6 0 0 0 .252.46c.138.086 1.287 1.534 2.552 3.218 2.21 2.944 5.217 6.15 10.58 11.28 1.382 1.322 2.818 2.804 3.192 3.294.373.49.731.837.796.773.064-.065-.296-1.004-.799-2.088-.7-1.51-1.51-2.6-3.456-4.655-1.399-1.477-3.19-3.469-3.98-4.428-3.3-4.012-4.178-4.876-5.78-5.685-.887-.447-2.004-1.188-2.484-1.644-.36-.343-.67-.561-.804-.578zm-2.182.056a.372.372 0 0 0-.205.095c-.357.297-.183.911.507 1.783.303.382.908.443 1.112.113.075-.122-.178-.665-.563-1.206-.406-.57-.642-.801-.851-.785zm12.549.066c.147 0 .985.875 1.861 1.945 1.713 2.09 5.632 5.459 7.91 6.795 1.274.748 1.409.919 1.479 1.88.095 1.307.492 3.581.736 4.21.398 1.023-.587.4-1.598-1.01-.579-.81-1.243-1.684-1.476-1.946-3.823-4.295-9.512-11.874-8.912-11.874zm65.832.823c1.984.105 4.028.87 4.918 2.07.324.437.565 1.281.633 2.215.16 2.214-.685 3.691-2.81 4.913-.204.118-.265.004-.176-.336a1.536 1.536 0 0 0-.127-.985c-.226-.402-.29-.348-.45.375-.101.464-.116.953-.033 1.088.43.695-3.05.752-4.542.074-1.064-.484-2.817-2.201-2.817-2.76 0-.16.224-.013.496.324l.496.613.173-.689c.239-.954 1.85-2.294 3.021-2.513 1.139-.214 3.504.254 4.379.867.334.234.839.803 1.12 1.266.358.586.514.696.514.363.001-.792-.754-2.346-1.403-2.888l-.609-.508.604-.009c.332-.005.605-.13.605-.28 0-.387-1.666-1.362-2.149-1.259-.416.09-.436.26-.125 1.06.164.422-.019.471-1.766.471-1.92 0-1.943-.008-1.473-.527.553-.611.376-1.359-.318-1.34-.773.02-2.27.874-2.805 1.598-.273.37-.603 1.216-.733 1.88-.162.828-.255.997-.295.536-.196-2.217.748-4.18 2.426-5.049.887-.46 2.056-.633 3.246-.57zm-28.975 1.324c-.625 0-.971 1.013-.529 1.547.337.405.514.213.867-.942.148-.483.08-.605-.338-.605zm-47.852.302a.733.733 0 0 0-.296.051c-.214.086-.151.15.161.163.283.011.443-.052.354-.141-.045-.045-.126-.07-.22-.073zm.777.503c-.357 0-.248.778.205 1.47.245.372.585.583.806.498.21-.08.381-.198.381-.262 0-.251-1.187-1.706-1.392-1.706zm1.638 2.18a.733.733 0 0 0-.295.053c-.214.085-.15.15.162.162.283.012.442-.051.353-.14-.045-.045-.126-.07-.22-.075zm44.416.246c-.3-.105-.918.135-1.041.525-.286.9.154 1.242.712.552.272-.335.495-.717.495-.848 0-.12-.065-.193-.166-.229zm-15.808.115c-.09.01-.099.079-.05.208.07.186.41 1.395.755 2.687.346 1.292.722 2.349.838 2.349.116 0 .521-.695.9-1.544.38-.848.756-1.935.837-2.415.146-.866.139-.873-.944-.873-.6 0-1.411-.122-1.803-.271-.273-.104-.443-.152-.533-.141zm-28.136.341c-.178.106-.16.465.188.996.408.622 1.51.974 1.51.481 0-.112-.315-.544-.702-.96-.441-.477-.817-.623-.996-.517zm80.604 1.027c.072.018.123.1.172.226.37.965-.498 2.943-1.918 4.366-1.816 1.82-4.207 2.58-6.43 2.045-.869-.21-1.123-.613-.388-.617 1.657-.01 2.308-.553 1.431-1.194-.358-.262-.226-.32.757-.336 1.652-.026 3.74-1.139 4.687-2.496 1.07-1.536 1.473-2.048 1.689-1.994zm-15.797.386c-.099 0-.469 1.178-.822 2.617-.354 1.44-1.407 4.951-2.34 7.804-.934 2.852-1.692 5.388-1.685 5.636.008.248.43-.364.942-1.36.512-.997 1.093-1.812 1.29-1.812.199 0 .938.44 1.643.978.706.539 1.23.87 1.166.738-1.878-3.887-2.14-5.07-1.625-7.342.219-.966.744-2.7 1.168-3.855.701-1.91.817-3.404.263-3.404zm9.534.638c-.064.034-.189.302-.437.838-.273.59-.505 1.226-.516 1.41-.035.588.716.36.884-.269.09-.332.155-.966.146-1.409-.008-.402-.013-.603-.077-.57zm-72.226.167c-.283 0-.145 1.238.175 1.557.353.353 1.293.442 1.28.12-.011-.246-1.251-1.677-1.455-1.677zm40.122.269c-.392 0-1.152 1.276-.953 1.598.258.418.357.355.805-.512.48-.927.502-1.086.148-1.086zm37.723.536c-.084 0-.58.475-1.104 1.054-.546.605-1.57 1.31-2.403 1.655-.799.331-1.52.78-1.603.996-.267.696 1.671.167 2.952-.806 1.007-.765 2.596-2.899 2.158-2.899zm-76.137 1.376a.732.732 0 0 0-.295.052c-.215.086-.152.15.16.163.284.011.444-.052.354-.142-.044-.044-.125-.07-.219-.073zm.551.664c-.168.099-.154.408.16.857.387.552 1.465.842 1.455.391-.003-.11-.31-.49-.684-.845-.413-.392-.763-.503-.93-.403zm36.128.645c-.48 0-1.052.97-.807 1.366.096.154.197.241.227.195l.517-.823c.39-.626.401-.738.063-.738zm-33.794 1.578c-.178.088-.161.42.176.936.31.471.596.62.996.514.546-.142.541-.168-.177-.918-.444-.463-.817-.62-.995-.532zm32.183 1.374c-.348 0-.956.757-.956 1.19 0 .383.518.09.916-.518.377-.576.383-.672.04-.672zm33.483 0-.18 2.968c-.158 2.598-1.403 9.912-1.941 11.4-.105.292-.122.469-.036.395.085-.075.761-2.012 1.501-4.306.74-2.294 1.541-5.313 1.781-6.71.24-1.396.504-2.81.585-3.142.132-.539.047-.605-.78-.605zm-65.756.165c-.15.008-.227.131-.359.378-.151.283-.796.82-1.434 1.194-1.067.625-1.417.679-4.358.674-2.248-.004-3.914-.167-5.613-.555-3.582-.817-4.862-.911-5.621-.414-.353.232-1.557 1.542-2.674 2.912a215.071 215.071 0 0 1-3.138 3.767c-.608.7-1.03 1.274-.938 1.274.092 0 .8-.324 1.572-.72 1.856-.954 4.225-2.556 4.894-3.309.859-.966 2.445-1.859 3.823-2.152 1.154-.245 1.688-.156 5.57.941 2.363.667 4.391 1.214 4.507 1.214.115 0 .628.175 1.141.39l.933.39-.535 1.355c-.294.745-.473 1.355-.398 1.355.075 0 .665-.488 1.312-1.084l1.176-1.085 1.252.315c1.362.343 1.368.34 2.28-1.184l.613-1.023-1.245.876-1.244.876-1.063-1.195c-1.189-1.336-1.33-1.725-.548-1.521.43.112.657-.138 1.212-1.351.375-.82.65-1.502.61-1.517a33.442 33.442 0 0 1-.94-.482c-.417-.219-.638-.326-.787-.319zm2.635.452c-.133-.029-.244.019-.36.136-.234.233-.194.437.165.833.436.482 1.23.506 1.23.038 0-.11-.244-.42-.543-.69-.205-.186-.36-.289-.492-.317zm37.737 1.352c-.064-.039-.186.06-.415.268-.268.242-.701 1.137-.964 1.988-.597 1.934-1.505 3.576-4.043 7.306-2.357 3.464-3.103 4.877-4.444 8.424-.55 1.454-1.236 2.96-1.524 3.345l-.522.7-1.548-.591c-1.946-.745-2.268-.74-3.335.047l-.867.639 1.284.188c.706.103 1.81.42 2.455.701.932.409 1.13.609.973.984-.108.26-.315.835-.461 1.278a14.833 14.833 0 0 1-.627 1.543c-.329.674-.315.738.156.738.33 0 .84-.508 1.413-1.41 1.273-2 3.528-6.665 4.459-9.22.75-2.061 1.705-3.82 5.063-9.33 1.619-2.657 3.019-5.92 3.019-7.036 0-.346-.007-.523-.072-.562zm-35.852.594c-.056-.009-.1 0-.13.03-.283.282-.22.554.238 1.012.471.471.82.536 1.031.192.16-.258-.749-1.17-1.14-1.234zm26.003.39c-.441 0-1.155 1.307-.973 1.781.21.548.302.46.824-.787.232-.556.298-.994.149-.994zm11.382.832c-.224-.042-.768.821-1.567 2.533-.619 1.323-1.395 2.83-1.725 3.346-.33.516-1.124 2.026-1.763 3.355-.638 1.329-1.481 2.885-1.87 3.459-1.005 1.48-2.812 7.892-2.411 8.553.195.322.826.233 1.231-.173.206-.205.528-1.237.717-2.292.382-2.136.754-2.219 1.33-.294.177.59.559 1.2.849 1.355.441.236.711.11 1.65-.765l1.123-1.047-.841-2.52c-1.51-4.517-1.52-4.403.972-9.153 1.198-2.284 2.245-4.642 2.348-5.288.11-.691.091-1.043-.043-1.069zm-35.561.7c-.047-.004-.085.015-.112.059-.276.447.091 1.315.605 1.43.666.149.673.08.098-.866-.234-.384-.452-.608-.591-.622zm.455 2.084c-.3-.024-.445.292-.445.963 0 .708-.087.79-.852.79-.544 0-1.373.358-2.29.988-1.232.85-1.49 1.18-1.82 2.349-.675 2.388-.707 3.03-.058 1.161.345-.995.914-2.113 1.263-2.485 1.004-1.07 3.757-1.548 3.757-.654 0 .138.112.252.25.252.136 0 .4-.675.584-1.5.28-1.249.274-1.536-.035-1.727a.83.83 0 0 0-.354-.137zm21.744.141c-.408 0-.983 1.107-.983 1.893 0 .777.196.645.8-.539.64-1.256.654-1.354.183-1.354zm-20.433.921c-.341 0-.487 1.219-.108 1.68.326.395.375.347.452-.442.048-.486-.037-1.007-.187-1.157-.055-.056-.108-.08-.157-.08zm18.676.937c-.973.123-4.05 2.524-8.048 6.318-1.791 1.7-4.063 4.543-4.063 5.086 0 .174.393.446.873.603 1.224.402 1.196.402 2.17-.006.484-.202 1.23-.692 1.66-1.09.429-.398.982-.67 1.23-.605.79.207 1.147-.2.778-.888-.27-.506-.237-.72.199-1.304.287-.384.812-.767 1.168-.851.502-.12.63-.306.567-.828-.098-.83.866-2.119 1.584-2.119.652 0 .907-.596.544-1.274-.365-.683.536-2.216 1.303-2.216.577 0 .663-.197.32-.736-.05-.078-.146-.108-.285-.09zm.218 1.16c-.112.01-.266.07-.463.175-.643.344-.926 1.009-.714 1.678.242.76.53.603 1.062-.578.406-.9.45-1.306.115-1.275zm-18.503 1.01c-.147 0-.267.362-.267.805 0 .443.12.805.267.805.148 0 .27-.362.27-.805 0-.443-.122-.805-.27-.805zm.121 2.246c-.06-.088-.203.024-.466.286-.228.228-.349.652-.27.952.211.81.538.654.688-.33.08-.533.107-.82.048-.908zm16.617.17c-.8 0-1.437.825-1.43 1.853l.005.964.54-.67c.297-.37.72-1.004.94-1.41.366-.672.36-.738-.055-.738zm-17.9 1.43c-.1-.1-1.125.739-2.28 1.862-1.153 1.122-2.39 2.102-2.75 2.176-.358.074-1.92.393-3.47.707-3.549.72-4.918 1.075-4.76 1.234.07.069.655.003 1.302-.146 2.025-.467 3.48-.357 4.216.32.464.426.693.503.778.263.323-.905 1.964-1.573 2.293-.934.058.11.021 1.287-.08 2.616-.102 1.328-.112 2.838-.022 3.355.102.586.22-.327.313-2.426.124-2.75.263-3.597.763-4.629.344-.711 1.325-1.907 2.245-2.74.897-.812 1.55-1.559 1.451-1.658zm-6.698.282c-.06-.06-.298.376-.53.968-.527 1.339-.32 1.435.233.109.223-.533.357-1.017.297-1.077zm48.844.167c-.68 0-3.742 7.536-3.499 8.614.252 1.117.669 2.39.782 2.39.06 0 .04-.694-.048-1.543-.19-1.85.452-4.007 2.068-6.945 1.125-2.046 1.255-2.516.697-2.516zm-41.852.403c-.097-.03-.329.093-.606.4-.268.295-.363.538-.21.538.152 0 .43-.183.617-.408.26-.313.296-.499.199-.53zm15.603.715c-.653-.105-1.581.654-1.581 1.293 0 .891.415.834 1.266-.176.81-.961.831-1.034.315-1.117zm-17.476.858c-.348.09-.749.503-.749.875 0 .552.747.447 1.067-.15.193-.361.192-.575-.003-.696a.399.399 0 0 0-.315-.03zm-1.325 1.85c-.165.023-.351.169-.434.418-.059.175.084.318.318.318a.426.426 0 0 0 .425-.425c0-.237-.144-.335-.31-.311zm16.284.467c-.598 0-1.48.746-1.48 1.25 0 .566.37.43 1.207-.443.659-.687.699-.807.273-.807zm-16.93 1.074c-.234 0-.387.266-.387.671 0 .75.65.926.912.245.204-.531-.018-.916-.526-.916zm13.712 1.924c-.597-.122-1.215.442-1.215 1.112 0 .509.067.49.825-.234.651-.622.734-.807.39-.878zm-14.022.483c-.047.027-.076.094-.074.21.012.633.37 1.412.56 1.221.124-.123.154-.493.068-.822-.108-.414-.412-.692-.554-.61zm-31.834 1.523c-.748-.033-.879.077-1.181.982-.187.56-.357 1.828-.377 2.818-.05 2.56 1.259 9.754 2.221 12.2l.29.74h18.394l.98-1.086c.54-.597 1.187-1.517 1.438-2.045l.458-.958-.87-.728c-1.067-.89-1.12-1.739-.17-2.73.774-.808.7-1.13-.397-1.698l-.738-.38-.741 1.903c-.408 1.047-1.021 2.982-1.363 4.3-.343 1.317-.774 2.535-.96 2.707-.186.171-.275.19-.199.043.076-.148.528-1.651 1.005-3.342.953-3.373 1.98-5.919 2.39-5.919.144 0 .621.303 1.06.672.912.768 1.072.793 1.743.284.453-.344.406-.424-.676-1.168-.652-.449-2.163-1.066-3.44-1.404-1.252-.33-2.638-.811-3.08-1.068-.444-.257-1.168-.554-1.611-.659l-.807-.192.762-.4c1.058-.557.73-.725-.666-.342-1.506.413-5.123.412-6.672-.003-.664-.178-2.274-.81-3.578-1.406-1.305-.596-2.751-1.101-3.215-1.121zm43.29.01c-.464-.097-1.601.707-1.601 1.237 0 .496.253.389 1.839-.777.052-.038.013-.199-.086-.359a.224.224 0 0 0-.152-.1zm-43.878.363c.147 0 .449.118.67.261.222.143.282.26.135.26-.148 0-.45-.117-.67-.26-.222-.143-.283-.26-.135-.26zm1.517.529c.964 0 1.078.615.799 4.343l-.268 3.576.125-3.536c.122-3.433.108-3.547-.48-3.959-.45-.315-.495-.424-.176-.424zm49.031.28c-.265.007 2.088 2.37 2.389 2.399.032.003-.193-.42-.5-.941-.564-.956-1.24-1.478-1.889-1.459zm-17.8.257c-.25 0-.403.253-.403.663 0 .479.111.62.402.508.222-.085.404-.383.404-.662 0-.28-.182-.509-.404-.509zm7.801.68c-.504.137-1.225.63-1.225.936 0 .385.31.32 1.166-.244.491-.324.655-.571.459-.693-.086-.053-.231-.046-.4 0zm-8.892 1.2c-.343 0-3.047 2.77-2.914 2.985.23.373.319.313 1.729-1.165 1.227-1.287 1.574-1.82 1.185-1.82zm-18.07.201 1.393.961c.766.53 1.812 1.311 2.322 1.739 1 .837.977.677.715 5.33-.018.32-.136.682-.264.805-.129.125-.148-.974-.041-2.492.219-3.121.29-2.99-2.663-4.968-1.54-1.03-1.644-1.06-3.087-.86-.821.114-2.53.184-3.795.155l-2.301-.053-1.042 1.066c-.573.587-1.13 1.068-1.238 1.068-.108 0 .38-.59 1.082-1.312l1.279-1.312 1.794.185c.988.102 2.707.074 3.82-.063zm24.203.392c-.118-.013-.299.008-.545.07-.815.204-1.411.618-1.411.98 0 .357.406.285 1.319-.235.768-.437.99-.777.637-.815zm-8.92.618c-.533.089-1.51.704-2.43 1.58-.664.632-1.752 1.459-2.417 1.836-1.762 1-2.265 1.627-1.88 2.347.285.533 2.534 2.152 2.99 2.152.11 0 1.113-.846 2.228-1.88 1.114-1.033 2.122-1.879 2.238-1.879.501 0 2.209-1.983 2.209-2.565 0-1.299-1.025-1.112-1.703.311l-.45.944-1.07-.603c-.59-.33-1.072-.702-1.072-.825s.418-.422.929-.665c.51-.244.868-.539.795-.656-.06-.098-.189-.127-.367-.097zm4.668 1a2.76 2.76 0 0 0-.488.085c-.386.096-.634.285-.553.416.206.333 1.12.3 1.335-.047.202-.326.098-.48-.294-.454zm-34.919.49c-.05.009-.083.156-.087.468-.005.341-.387 1.73-.85 3.087-.462 1.357-.932 3.312-1.043 4.346-.111 1.033-.289 2.09-.395 2.348-.176.427.029.47 2.251.47 1.78 0 2.443-.09 2.439-.335-.003-.185-.299-1.457-.659-2.827-.36-1.37-.79-3.481-.955-4.692-.23-1.673-.549-2.89-.7-2.864zm33.79.583a.51.51 0 0 0-.351.234c-.126.203-1.11 1.278-2.186 2.386-1.076 1.108-2.501 2.665-3.167 3.461l-1.21 1.448-1.128-.575c-.62-.317-1.189-.576-1.265-.576-.076 0-.33.37-.563.822-.234.451-.855 1.297-1.38 1.879l-.956 1.058h6.458l1.544-2.823c1.04-1.899 2.195-3.52 3.529-4.956 1.969-2.12 1.977-2.137 1.267-2.315-.239-.06-.435-.075-.592-.043zm-31.932 1.648c.028-.028.066.01.109.117.077.194.067.425-.022.515-.089.089-.153-.07-.14-.353.005-.156.025-.251.053-.28zm24.119.322c.158.098.124.335-.09.607-.31.398-.299.407.118.08.638-.5 1.816-.183 1.816.49 0 .567-.956 1.363-1.604 1.335-.225-.01-.681-.15-1.013-.31-.332-.16-.605-.438-.605-.617 0-.51 1.089-1.763 1.378-1.585zm-22.24.483c.028-.028.066.01.109.117.078.194.068.426-.021.515-.09.089-.153-.07-.142-.352.006-.157.026-.252.054-.28zm19.042 1.398c-.038.006-.058.03-.058.077 0 .753 3.145 3.046 3.992 2.911.203-.032.807-.6 1.342-1.262l.973-1.204-.871.715c-.479.394-1.114.794-1.413.888-.592.188-2.049-.568-3.285-1.704-.305-.28-.568-.437-.68-.42zm20.774 3.284c-1.066.007-1.351.427-2.29 1.995l-.602 1.007h1.455c1.327 0 1.485-.066 1.792-.74.467-1.024.48-.987-.4-1.176-.723-.155-.734-.17-.119-.196.37-.015.838.078 1.042.207.31.197.3.337-.067.862-.242.344-.439.704-.439.8 0 .098 2.96.198 6.578.223 3.617.025 6.576-.01 6.576-.08 0-.069-.759-.378-1.686-.687-1.519-.505-2.565-.747-7.038-1.629-.739-.145-2.28-.363-3.424-.484-.582-.061-1.023-.104-1.378-.102zm4.667 1.963c.122 0 .244.018.336.055.185.074.033.136-.336.136s-.519-.062-.334-.136a.93.93 0 0 1 .334-.055zm-1.341.256c.614.014.626.034.134.245a3.516 3.516 0 0 1-1.074.246c-.443.012-.467-.031-.134-.246.221-.143.705-.253 1.074-.245z"/><path style="fill:url(#q);stroke-width:.223872;fill-opacity:1" d="M44.185 195.939c-.69-.483-.622-1.149.247-2.453.82-1.228 2.771-4.694 3.343-5.935.702-1.524 1.734-4.214 1.734-4.52a.9.9 0 0 1 .192-.523c.248-.275.703-3.14.703-4.43 0-1.115.188-1.268 1.558-1.268 1.016 0 1.46.439 1.257 1.244-.188.75.685 4.414 2.228 9.352.494 1.578.726 2.018 1.151 2.18.684.26.878.776.533 1.42-.229.427-.198.63.194 1.272.256.42.466.935.466 1.144.001.64-.478 1.478-.91 1.59-.526.139-.947-.343-1.66-1.9-.317-.692-.733-1.32-.924-1.393-.397-.152-3.9.541-5.572 1.103-1.343.451-1.94.964-2.456 2.109-.213.471-.634.97-.935 1.107-.672.306-.556.316-1.149-.1zm7.563-5.894c1.808-.279 1.898-.537.982-2.824-.638-1.593-.854-1.841-1.29-1.479-.356.295-2.38 4.13-2.38 4.508 0 .198.238.23.84.113.462-.09 1.294-.233 1.848-.318zm9.701 5.94c-2.925-.809-3.272-3.682-1.018-8.429 1.406-2.96 4.732-7.48 7.366-10.009 1.646-1.58 2.166-1.83 2.733-1.317.786.711 1.239 5.65.643 7.006-.549 1.247-1.094 1.267-1.852.067-.365-.578-.73-.896-1.032-.896-.294 0-1.316.85-2.758 2.295-2.613 2.617-3.715 4.475-3.887 6.555-.093 1.116-.048 1.257.61 1.914.698.7.735.708 2.433.602 2.004-.125 3.32-.664 6.188-2.533 1.03-.672 2.026-1.221 2.212-1.221.758 0 1.047.28 1.047 1.016 0 .878-.436 1.243-3.072 2.561-2.145 1.074-5.1 2.127-6.875 2.45-1.534.279-1.51.28-2.738-.06zm39.884-.007c-.403-.295-.409-.432-.121-3.078.467-4.307.52-5.99.246-7.806-.442-2.916-.708-3.745-1.283-4.008-.29-.131-.641-.492-.782-.801-.452-.992.303-1.455 5.282-3.244 1.488-.535 4.346-1.126 5.444-1.126 1.459 0 2.83.532 3.766 1.463 1.782 1.77 1.806 3.966.082 7.63-2.011 4.276-6.19 8.46-10.72 10.736-1.26.633-1.353.644-1.914.234zm3.932-3.017c3.294-2.12 6.928-7.337 6.928-9.946 0-1.17-.696-2.344-1.688-2.846-1.348-.683-6.123-.212-6.584.65-.137.255-.09 1.326.134 3.054.313 2.415.312 2.975-.014 6.027-.197 1.851-.358 3.44-.357 3.533.003.335.606.155 1.58-.472zm16.218 3.012c-3.758-.929-5.289-3.749-4.238-7.805.687-2.651 2.757-6.016 5.114-8.314 1.184-1.154 4.204-3.21 5.426-3.695.59-.234.815-.221 1.387.074 1.858.961 2.88 4.44 1.464 4.984-.203.078-.718-.047-1.144-.276-.988-.532-1.676-.47-2.93.265-1.334.782-5.026 4.479-5.403 5.412-.453 1.116-.118 1.29 1.592.83 2.444-.658 3.826-.88 5.532-.89 1.424-.008 1.693.054 1.958.453.543.815-.023 1.229-1.98 1.448-2.022.227-5.91 1.179-7.269 1.78-.822.364-.964.524-.964 1.088 0 .847 1.19 1.93 2.516 2.291 1.205.329 4.755.124 6.439-.372 2.576-.758 3.36-.86 3.736-.483.19.191.271.47.18.618-.416.672-4.522 2.086-7.498 2.582-2.237.372-2.449.373-3.918.01zm15.895.063c-1.698-.39-2.318-.813-2.57-1.747-.437-1.624.085-1.941 1.8-1.091 1.557.771 3.788.814 5.528.107 2.722-1.106 4.533-2.937 4.533-4.585 0-.956-1.186-2.118-2.55-2.5-1.491-.417-5.004.048-6.752.894-1.32.64-2.087.519-2.724-.43-.864-1.286-.636-4.572.46-6.66.439-.833 2.079-2.394 3.008-2.861 1.002-.504 4-1.24 5.068-1.244 1.614-.006 3.538 1.523 3.844 3.057.17.85-.586 1.533-1.918 1.735-.94.142-1.041.106-1.592-.568l-.587-.72-1.319.264c-1.875.377-3.217 1.115-4.06 2.234-.766 1.02-.968 2.054-.4 2.054.18 0 .81-.177 1.399-.392.822-.301 1.772-.392 4.093-.392 2.805 0 3.103.041 4.142.575.615.316 1.356.92 1.644 1.343.456.666.512.966.425 2.243-.18 2.635-2.046 5.264-5.1 7.188-1.43.901-2.134 1.185-3.752 1.51-1.344.27-1.393.269-2.62-.014zm13.511-.23c-.421-.42-.456-.637-.33-2.065.547-6.208.409-10.69-.428-13.901-.39-1.497-.284-1.816.712-2.145.995-.328 2.034.061 2.365.886.129.32.296 2.285.373 4.368.107 2.902.211 3.812.444 3.889.17.056.944-.573 1.749-1.423 2.028-2.14 3.955-5.142 5.562-8.66.447-.98.85-1.05 1.919-.33 1.102.744 1.38 1.414.944 2.273-.634 1.246-3.13 4.683-4.861 6.695l-1.702 1.978.393.677c.216.372 1.17 1.497 2.122 2.5 2.49 2.626 3.233 4.396 1.844 4.396-.365 0-1.167-.663-2.677-2.215-2.37-2.435-3.704-3.316-4.658-3.077-.761.191-1.134.928-1.723 3.41-.73 3.07-1.153 3.64-2.048 2.745zm-112.683-.022c-.052-.154-.134-3.1-.184-6.548-.089-6.221-.249-7.651-.937-8.367-.25-.26-.53-.234-1.81.168-.832.261-1.79.475-2.13.475-.788 0-1.546-.928-1.546-1.89 0-1.34.111-1.397 4.701-2.445 2.145-.49 7.4-1.262 8.586-1.262 1.088 0 1.936 1.018 1.936 2.323 0 1.227-.29 1.483-1.683 1.483-1.4 0-3.7.406-4.082.72-.2.165-.28 1.162-.283 3.505-.003 1.801-.107 4.182-.232 5.29-.126 1.108-.313 2.82-.417 3.805-.25 2.374-.52 3.023-1.252 3.023-.315 0-.615-.126-.667-.28zm37.95-.048c-.213-.256-.214-.902-.005-2.966.659-6.51.464-9.585-.837-13.208-.432-1.205-.288-1.546.787-1.868 1.083-.324 2.096.113 2.47 1.065.327.836.727 7.503.466 7.779-.327.346-.23 1.246.152 1.392.193.074.924-.024 1.623-.219a34.518 34.518 0 0 1 2.725-.607c2.352-.412 2.463-.49 2.459-1.725-.006-1.616-.563-4.926-1.092-6.49-.663-1.96-.625-2.26.335-2.662 1.847-.772 2.727.028 3.02 2.745.44 4.061.48 5.343.242 7.52a863.508 863.508 0 0 0-.512 4.824c-.342 3.32-1.052 4.341-2.214 3.18-.415-.416-.438-.638-.304-2.99.104-1.813.072-2.586-.112-2.7-.269-.165-3.44.54-5.18 1.153-1.544.543-1.726.823-1.993 3.06-.13 1.095-.393 2.228-.582 2.518-.391.596-1.044.686-1.448.2zm17.015.001c-.184-.222-.23-.814-.142-1.847.071-.836.19-3.09.266-5.008.148-3.758-.161-6.542-1.035-9.315-.508-1.612-.43-1.967.507-2.293 1.026-.358 2.294.045 2.597.825.373.962.71 3.656.71 5.68 0 2.567-1.103 11.152-1.514 11.78-.376.577-.992.655-1.389.178z"/></svg>