<svg xmlns="http://www.w3.org/2000/svg" xmlns:xlink="http://www.w3.org/1999/xlink" xml:space="preserve" viewBox="0 0 324 234"><defs><linearGradient id="d"><stop offset="0" stop-color="#583503"/><stop offset="1" stop-color="#844f04"/></linearGradient><linearGradient id="a"><stop offset="0" stop-color="#dd8000"/><stop offset="1" stop-color="#ffe263"/></linearGradient><linearGradient id="b"><stop offset="0" stop-color="#ffd416"/><stop offset="1" stop-color="#ffeb94"/></linearGradient><linearGradient xlink:href="#a" id="h" x1="136.42" x2="460.42" y1="323" y2="287.92" gradientTransform="translate(-45.8)" gradientUnits="userSpaceOnUse"/><linearGradient xlink:href="#a" id="e" x1="0" x2="324" y1="117" y2="117" gradientUnits="userSpaceOnUse"/><linearGradient id="c"><stop offset="0" stop-color="#fff6cf"/><stop offset="1" stop-color="#fff"/></linearGradient><linearGradient xlink:href="#b" id="g" x1="205.44" x2="421.63" y1="377.18" y2="377.18" gradientUnits="userSpaceOnUse"/><linearGradient xlink:href="#c" id="k" x1="186.79" x2="307.58" y1="113.53" y2="113.53" gradientTransform="translate(2 2)" gradientUnits="userSpaceOnUse"/><linearGradient xlink:href="#a" id="l" x1="188.79" x2="309.58" y1="115.53" y2="115.53" gradientUnits="userSpaceOnUse"/><linearGradient xlink:href="#c" id="f" x1="16.51" x2="169.01" y1="87.57" y2="87.57" gradientUnits="userSpaceOnUse"/><linearGradient xlink:href="#c" id="j" x1="20.79" x2="175.2" y1="186.07" y2="186.07" gradientUnits="userSpaceOnUse"/><linearGradient xlink:href="#d" id="i" x1="122.3" x2="628.01" y1="419.77" y2="419.77" gradientUnits="userSpaceOnUse"/><linearGradient xlink:href="#d" id="m" x1="31.6" x2="164.4" y1="186.09" y2="186.09" gradientUnits="userSpaceOnUse"/></defs><path fill="url(#e)" d="M0 0v234h324V0H0z"/><path fill="url(#f)" fill-rule="evenodd" d="M16.51 16h152.5v143.13H16.51z" paint-order="stroke markers fill"/><g fill="url(#g)" transform="matrix(.611 0 0 .611 -66.9 -143)"><path fill="#3b0212" d="m271.45 267.81-3.78 2.8c5.04 10.78-4.75 35.9 12.67 25.74-.08-.1-.11-.35-.2-1.09a44.61 44.61 0 0 1-.3-3.96 635.7 635.7 0 0 0-1.32-16.92l-.55-6.57h-3.2zm83.28 22.68c0 .88.04 1.77.17 3.36-72.67 9.8-141.12 6.37-185.66 43.05-.65.16.22 4.58.02 4.67a.48.48 0 0 0-.31.3c-.1.23-.1.38.02 1.53.14 1.38.21 1.91.37 2.52.11.45.4 1.18.53 1.4.04.06.07.09.1.1a37.65 37.65 0 0 1 3.68-.86h.05l.45-.09c.79-.15 1.55-.3 2.55-.46l4.3-.73c2.66-.48 4.36-.7 9.44-1.27 1.76-.19 1.71-.2 2.7-.32 2.04-.23 3.77-.43 5.23-.65.59-.1 1.92-.26 2.95-.37 1.46-.16 2-.26 3-.38 1.07-.14 2.27-.27 3.28-.44 2.12-.38 4.1-.62 7.95-.98h.05l6.2-.63c6.2-.64 15.9-1.61 24.7-2.5 6.04-.61 9.72-1 17.6-1.79l2.97-.3 2.33-.23 12.42-1.25.92-.09c4.95-.5 8.88-.87 11.93-1.13l.64-.04.5-.05c1.58-.13 2-.12 2.72-.17.89-.05 2.22-.17 2.84-.19 2.15-.07 4.17-.18 6.58-.36l.12-.01c2.39-.19 5.24-.46 8.94-.85l1.34-.13 4.5-.43.67-.06 4.74-.43.64-.05.26-.02c2.6-.24 4.24-.34 8.8-.55l.48-.03c2.5-.1 4.1-.19 5.67-.3l1.59-.14c1.13-.09 2.1-.17 4.01-.35 4.65-.44 5.9-.52 7.53-.55.66-.02 1.16-.05 2.17-.06 1.74-.02 2.63-.03 3.1-.05.2-.01.19-.04.28-.06a1 1 0 0 0 .7-.62c.22-.54.29-1.22.29-3.15 0-2.08-.35-7.18-.78-11.65-.48-4.95-1.77-17.66-1.84-18.2-.11-.77-.3-1.25-.58-1.5-.1-.07-.15-.11-.28-.13-.14-.01-.34 0-.72.01-.46.03-1.63.16-2.6.3a6.96 6.96 0 0 1-1.72.17c-.02 0-.19.03-.2.02-.03-.04-.22-1.76-.33-2.83zm-19.07 52.19-.4 2.03c-21.44 36.02-32.75 96.75-26.39 97.08 1.09-.07 12.8-5 12.92-5.08-.01-.03.4-1.52.92-3.34a519.14 519.14 0 0 0 7.18-28.21l1.41-6.12c2.77-11.71 8.05-36.48 9.72-45.61.74-4.04 1.4-8.33 1.32-8.63-.07-.25-.46-.64-.82-.83a8.61 8.61 0 0 0-1.7-.43l-.35-.08-2.55-.53c-.68-.15-1.24-.26-1.26-.25zm-109.03 3.07-.34.03c-.4.03-.8.12-1.2.27-.41.15-.85.37-1.28.64l-.24.15c12.36 33.94 8.67 59.63 2.68 91.85-.06.08.04.45.56 1.96a176.92 176.92 0 0 1 1.25 3.78c.02.05.24.05.47.04.2-.02.41-.06.62-.1l.48-.08c.32-.07.63-.17.94-.27l.02-.01a32.4 32.4 0 0 0 3.2-1.41 60.1 60.1 0 0 1 2.4-1.1c2.26-.95 6.54-2.91 7-3.21.23-.15 9.5-4.55 14.9-7.06 2.9-1.36 3.47-1.66 3.74-1.96.33-.37.26-1.11-.23-2.55-.17-.5-.32-1-.46-1.5-.18-.7-.45-1.47-.95-2.67-.35-.86-.68-1.72-.99-2.6-2.61-7.32-5.6-14.84-11.32-28.5a901 901 0 0 0-11.72-27.13c-3.36-7.43-4.56-10-6.55-13.98-1.42-2.85-1.8-3.49-2.45-4.15l-.43-.44zm149.2 118.52-.07.01c-50.9-14.56-15.33-26.05-85.35-11.28-101.98 6.38-116.8 31.18-120.15 33.55h23.5l8.38-.02c5.28-.01 11.48-.02 12.46-.04 1.87-.02 2.96-.04 3.21-.08.33-.05.62-.1 1.18-.16l5.06-.55 7.87-.82c7.12-.7 17.03-1.75 26.2-2.75l2.47-.26.9-.1 1.89-.2a2061 2061 0 0 1 12-1.25c6.96-.7 11.7-1.21 18.38-1.94l6.11-.65c7.68-.83 10.75-1.15 15.05-1.58l1.5-.16c9.96-1 20.56-2.15 47.03-5.09l12.39-1.37z"/><path fill="url(#h)" d="M232.75 267.8c1.62 8.3 3.21 16.6 4.47 24.96-.21 2.36 1.88 6.52-.1 7.84-25.54 2.6-51.1 5.07-76.63 7.72-2.1.22-.12 3.74-.5 5.15 1.1 9.68 2.15 19.37 3.2 29.06 4.77-.25 9.33-2 14.11-2.27 13.32-2 26.71-3.44 40.11-4.77 16.11-1.93 32.29-3.32 48.43-5.02 10.34-1 20.68-2.13 31.04-2.85 8.2-.38 16.32-1.62 24.52-1.92 5.54-.46 11.09-.93 16.64-1.24 6.28-.2 12.52-1.1 18.8-1.14 1.08-2.88.02-5.97 0-8.93-.68-8.38-1.76-16.74-2.25-25.13-2.14-.91-4.9.15-7.24.22-22.07 2.53-44.18 4.68-66.28 6.84-2.22.13-5.14.61-6.97-.48-.9-9.34-1.68-18.7-2.65-28.03h6.52-45.22zm62.56 65.1c-4.5.36-9 .83-13.5 1.27 4.5-.45 9-.89 13.5-1.26zm4.4.82c-3.25.18-2.63 4.7-3.42 7-1.32 8.12-2.24 16.3-3.64 24.4-3.2 19.93-6.6 39.86-11.02 59.56-1.47 5.72-2.47 11.7-5.27 16.95-1.86 1.52-4.72.79-7 1.34-7.06.73-14.12 1.53-21.15 2.5-5.42.7-10.9.6-16.31 1.36-7.22.74-14.46 1.27-21.68 2-4.49.43-8.98.93-13.5 1-4.96.6-9.97.64-14.94 1.19-4.41.43-8.83.8-13.27.73-2.14 1.08-.77 4.78-1.02 6.92.92 9.5 2.15 20.33 2.77 27.88 14.22-3.06 32.47-3.94 45.6-5.44 15.12-1.53 30.23-3.12 45.33-4.79 18.58-1.79 37.12-4 55.7-5.8 19.64-2.18 39.3-4.17 58.94-6.25v-34.22c-4.67.43-9.18 1.88-13.85 2.28a437.94 437.94 0 0 1-22.84 2.68c-6.6.78-13.3 1.3-19.86 2-1.42-.22-6.98 1.12-4.95-2.13 4.1-12.16 6.96-24.7 9.7-37.21 2.43-9.32 4.32-18.76 6.34-28.16 1.9-8.92 3.59-17.88 5.3-26.83 1.22.22 5.46 1.14 2.23.46-2.05 0-2.67-.93-2.31-2.9-6.03-2.75-13.81-1.87-20.07-3.96a318.4 318.4 0 0 0-15.48-2.56h-.33zm-79.76 7.92c-3.69 1.07-6.93 3.33-10.44 4.89-5.92 3.3-12.2 5.99-17.85 9.76-.97.85-2.77 1.86-1.65 3.28 3.42 8.68 8.1 16.8 11.65 25.43 6.72 15.5 12.41 31.43 17.67 47.48.9 2.45 1.54 5.09 2.65 7.42 2.8-.13 5.23-2.07 7.85-2.97 8.09-3.56 16-7.54 24-11.29 3.25-.6 1.58-2.2.5-5.56-9.02-24.9-19.55-49.25-30.77-73.24.84-.9 4.87-1.39 1.62-.9-2.72 2.22-2.71-2.53-4.45-3.93-.2-.22-.47-.43-.78-.37z"/><path fill="url(#i)" d="M131.94 247.69a15.75 15.75 0 0 0-9.5 9.35c-.34 6.15-.05 12.44-.14 18.65v222.77a15.74 15.74 0 0 0 9.35 9.5c6.4.4 12.94.17 19.4.32l10.54.1c-7.79 4.92-14.68 11.91-17.22 21a31.1 31.1 0 0 0 3.66 24.51c8.8 14.5 25.06 22.02 40.59 27.13 29.43 9.16 60.6 11.63 91.29 10.58 26.38-1.22 52.96-4.25 78.2-12.36 13.28-4.6 27.6-11.13 34.51-24.12 6.78-13.5 2.58-29.83-5.23-41.97-1.14-1.74-2.32-3.45-3.49-5.18 5.31.04 11.54-.82 14.2-6.11 1.85-5 .72-10.65 1.16-15.92.28-71.3.36-142.61.17-213.92-.23-5.4.3-10.9-.53-16.23-1.7-4.66-6.48-8.28-11.58-7.5-68.77-.6-137.54-.4-206.32-.55l-49.06-.05zm4.6 12.5H386v234.1c-6.62-.08-13.31.18-19.88-.12-16.79-8.28-35.92-9-54.28-9-23.35-.05-46.63 2.15-69.86 4.3-12.11 1.1-24.14 2.93-36.18 4.52-23.08.57-46.17.2-69.26.3V260.2zm279.5 21.26c-4.93 1.86-9.11 6.1-9.88 11.4l.23 262.17c2.16 5.07 6.94 9.9 12.88 9.1 66.44.36 132.87.1 199.3.1 4.19-1.8 7.8-5.18 9.21-9.51l.23-262.48c-1.34-5-5.14-9.4-10.18-10.78h-201.8z"/></g><path fill="url(#j)" fill-rule="evenodd" d="M98.76 157.13c20.75-1.54 40.22-2.38 53.12 2.42 12.9 4.8 19.24 15.22 20.57 24.4 1.34 9.16-2.33 17.06-16.08 22.85-13.75 5.78-37.58 9.45-59.67 9.45-22.08 0-42.41-3.66-55.25-9.45-12.83-5.8-18.15-13.7-18.15-21.31 0-7.62 5.33-14.95 19.01-19.75 13.68-4.8 35.71-7.06 56.46-8.6z" paint-order="stroke markers fill"/><path fill="url(#k)" fill-rule="evenodd" d="M188.8 37.02h120.78v157.02H188.8z" paint-order="stroke markers fill"/><path fill="url(#l)" fill-rule="evenodd" d="M195.17 37.02c1.12 1.33 2.45 2.53 3.36 4.02-1.2-.42-2.3-1.11-3.43-1.68 1.13 1.2 2.37 2.3 3.35 3.64-2.83.41-5.74-.04-8.57.39 2.22 2.18 4.9 3.83 7.16 5.96-.87.34-2.46-1-3.64-1.2-.7-.3-1.28-.51-.4.17 1.22 1.2 2.62 2.27 3.58 3.7-.98 2.59-2.77 4.9-3.74 7.4 1.07-.5 2.54-2.73 3.24-2.52a229 229 0 0 1-6.94 13.53c-.4-.9-.16-3.23-.28-4.68-.05-4.3-.07-8.6-.07-12.9V72c2.4-2.46 4.4-5.27 6.72-7.79.27.83-.9 3.08-1.22 4.46-.53 1.3-.05.9.44 0 1.04-1.57 1.91-3.26 3.07-4.75-.65 3.97-1.8 7.85-2.4 11.82.28 1.03 1.29-1.41 1.72-1.81.43-.87 1.5-1.34.78.02-.95 3.14-1.96 6.27-2.82 9.43 1.32-1.46 2.2-3.46 3.45-4.84.27 2.86-.12 5.73 0 8.6.59.67 1-2.17 1.38-2.81.2-.85 1.37-3.83 1.33-1.38.34 3.22.73 6.45 1.02 9.67.63-1.78.37-3.84 1.13-5.6.34.48.16 3.16.66 2.66.15-.99-.06-2.72.38-3.28.63 3.98.65 8.03 1.13 12.03.29-1.08.35-2.2.52-3.3.33 2.67.32 5.37.52 8.05.39.81.8-1.63 1.08-2.16.58-1.47.8-3.74 1.76-4.67.62.76.67 2.67 1.27 2.9.19-.95-.53-3.8.07-3.7.56.98.8 2.65 1.5 3.26.38-1.23-.16-3.45.47-4.11.98 3.56 1.03 7.33 2.07 10.88.5-1.22.14-3.1.36-4.57.17-1.05-.01-2.92.53-3.49.36.69 1.34 3.58 1.18 1.37-.01-.9-.55-2.42-.2-2.98.51.56 1.25 3 1.48 2.44-1.3-5.81-2.47-11.66-3.85-17.45-.23-1.36-.7-2.84-2.18-3.23-.73-.12-.8-.77-.92-1.38a97.33 97.33 0 0 1-2.67-17.53c0-3.58.54-7.18 1.59-10.6 1.03-1.82.38 1.24.05 1.8-.48 1.03-.03 1.34.44.24.62-.83 1.24-2.81 2.02-2.83-.25.74-.85 4.17.2 2.15.36-.82.64-1.68.96-2.52.96-.06 1.92-.21 2.87-.14 0 .97-1.28 2.4-.8 3.04.54-.44 2.23-3.2 1.66-1.04-.5 1.9-1.22 3.72-1.74 5.6 1.71-1.33 2.93-3.18 4.52-4.64.93.09 1.19-2.12.37-.5-.27.14 0-1.49.74-.93.8-2.01-.6 3.03.45.8.14-.6 1.57-3.09 1.12-1.15-.65 2.12 1.04-.76 1.37-1.36.54-1.31 2.06-.69 1.2.57-.42 1.43-1.44 2.9-1.77 4.18 1.52-1.64 2.4-3.76 3.84-5.45-.11 1.74-1.04 3.36-1.65 4.98-.32.6-1.47 3.52-.27 1.57.96-1.46 1.54-3.2 2.74-4.48.3 1.48-.04 3.16-.13 4.72-.09.97-.25 1.94-.41 2.9 1.85-2.15 2.77-4.92 4.34-7.25-.12 1.26-1.1 3.14-.91 4 .76-1.24 1.11-3.43 1.96-4.18-.22.91-.22 2.65.44.88.38-.69.73-2.53 1.2-2.52.03 1.5-.15 3-.23 4.5.7-1.6 1.16-3.33 2.12-4.8.8-.97 2.57-.74 1.67.75-.24.6-1 3.12-.04 1.47.55-.9 1.03-1.85 1.53-2.78l4.15-.16c-.23 1.3-.43 2.6-.59 3.92.46-1.3.8-2.72 1.71-3.78.56 1.15.24 3.05 2.04 3.14-.2 1.73-2.32 1.55-3.44 2.43-.85.41-3.34 1.59-1.04 1.52 1.54.17 3.23-.2 4.65.48.56-.66 3.23.24 2.82-.67-1.56.18-3.84-1.07-1.9-2.47a3.62 3.62 0 0 1 3.17-.74c-.53-1.3 1.96-.11 1.05-1.25-.28-.96-1.47-2.23-.67-3.03.6.15 1.8-.33 2.02.44.87 2.13 1.64 4.32 2.64 6.4-.1-1.1-.98-2.78-.8-3.5.55.76 1.04 2.79 1.55 2.82.03-1.39-.87-3.11-.4-4.3 1.08.68 1.77 4.31 3.23 2.64 1.43-1.9-.02 1.92-.13 2.7-.2.7-.64 2.34.03.83.44-.73 1.17-2.9 1.55-2.7-.82 3.62-2.17 7.16-2.47 10.88 1.2-.78 2.18-2.78 3.2-4.08 1.25-1.75 2.23-3.68 3.45-5.44.73.38-.53 2.69-.05 3.26.62-1.22.99-4.04 1.62-4.4-.03 1.3-.12 2.6-.19 3.92.65-1.9 1.1-3.88 1.92-5.71.58.4.52 1.67.8 2.44.2 1.15.15-.12.19-.6l.07-2.04c.5 1.36.76 2.85 1.52 4.06-.09-.72-.75-3.14.17-1.27.73 1.55 1.18 3.22 1.95 4.75-.55-2.3-.86-4.67-.92-7.05-.05-.78-.23-4.03.62-1.83 1.17 2.87 2.59 5.75 2.7 8.9.18.97-.05 2.6.38 3.21.87-2.15.44-4.57 1.01-6.78.65.47.14 3.47.98 2.8.54-1.3.54-2.91 1.28-4.05.42 1.61.2 3.35.66 4.94.63-1.52.3-3.46.86-4.99a27.36 27.36 0 0 1 1.14 6.7c.6-2.24.24-4.62.3-6.92.2-.63-.55-3.2.16-2.74.23.17.92 2.19.78 1.22a49.4 49.4 0 0 0-.55-4.03h4.16l-.3 5.5c.59-1.45 1-3 1.74-4.36.37 1.16-.54 3.53-.15 3.95.04-.68 1.18-2.66.87-.85-.79 2.7-2.13 5.25-2.7 8.02 1.06-.73 1.91-2.38 2.76-3.54.47-.67 1.84-3.8 1.4-1.49.03.78-.89 2.29-.5 2.58.95-.95 1.22-2.65 2.11-3.45-.03 1.74-.54 3.45-.73 5.18.47-.6 1.61-2.9 1-.87-.1.85-.85 2.72-.58 3.05.27-.24.87-2.28.87-1.38l.11 4.16c.23-1.98.25-4.05 1.04-5.91.93.57.39 3.29 1.06 4.55a44.04 44.04 0 0 0 3.2 9.14c-1.4.1-2.76-1.63-4.12-2.27-1.54-1.15-2.88.81-4.4.92-3.96.18-7.94-.28-11.9-.03-1.57.95-2.19 2.88-3.45 4.18-.36.62-1.83 1.92-1.46 2.25.93-.48 1.91-1.98 2.71-1.98-.41 1.84-1.57 3.4-2.28 5.13.6-.38 1.76-2.82 1.95-1.95-.34 1.6-1.64 3.48-1.83 4.73.62-.4 1.73-2.63 2.04-1.88-.55 2.43-1.7 4.67-2.42 7.05.82-.74 1.65-2.82 2.3-2.92-.47 1.3-.86 2.63-1.27 3.96 1.11-1.22 1.92-2.82 3.09-3.87-.35 2.23-1.05 4.45-1.16 6.69 1-1.54 1.92-3.13 2.87-4.7l.04 3.76c.2-.65.7-2.6.74-.8.2 1.72.1 3.5.54 5.18.8-1.03.79-2.87 1.17-4.24.36-1.25.47-3.28 1.16-4.06.04.7-.16 3.52.4 1.5.2-.74.62-3.6.92-1.35.46 1.8.49 3.75 1.22 5.46.5.21.04 2.08-.13 2.9-.86-.7-.9-2.8-1.85-2.93-.32.55-.34 2.48-.6 2.44-.2-.45-.38-1.4-.6-1.55-.77 1.54-1.5 3.16-1.48 4.92-.99-.63-.98-2.96-1.6-4.24-.86-.7-1.62 2.37-2.35 3.07-.53-1.44-.07-3.1-.39-4.6-1.22 1.87-.28-1.12-.37-1.84-1.9 1.7-3.28 3.99-5.33 5.54.1-1.31.78-2.8 1.12-4.17.92-2.34-2.05.48-2.96.82-2.35 1.45-4.55 3.16-7 4.45 1.42-2.95 3.34-5.62 4.88-8.5.81-1.53 1.78-3 2.33-4.65a54.35 54.35 0 0 0-2.71-7.69c-4.5 1.82-9.17 3.15-13.8 4.56-1.78.14-3.06 1.48-4.45 2.46-1.67 1.2-3.14 2.74-5.02 3.6-1.01.32-2.36.07-1.25-1.12.55-1.14 1.13-2.26 1.7-3.39-3.28.2-6.59.18-9.83.74 1.82.98 3.39 2.68 3.62 4.8-.91-.65-1.18-2.75-2.53-3.36-1.38-.75-2.73-1.93-4.38-1.86 0 1.42 1.48 3.03 1.1 4.39-1.65-.93-2.89-2.46-4.31-3.7-.49-.39-.83-1.08-1.55-.95a56.3 56.3 0 0 1-9.33-1.33c-1.09.89-1 2.41-.55 3.63.86 2.93 2.7 5.42 3.99 8.16.28 1.57 1.61 2.75 2.47 4.06 1.83 2.27 3.6 4.65 5.83 6.55 1.03-.42 2.1-2.8 2.06-3.88-.94-.65-2.49-.93-3.07-1.82 2-1 4.05-2.1 5.57-3.76.63-.47.28-1.04 0-1.6-.48-.71-.85-2.86-.02-1.05 1.59 3.28 1.4 7 1.4 10.54-.06 2.2-.07 4.47-.9 6.55-.48 1.8.8 3.44 1.7 4.88 1.23 1.12 1.59 2.78 3.07 3.6 2.17.4 1.44 2.17.47 3.45-.05 1.74 2.69 1.81 4 2.43a61.55 61.55 0 0 0 13.4 2.22c1.54.17 3.76-1 2.75-2.64 1.62-.18 1.89 1.86.28 2.15-1.91.82-.74 3.39-.84 4.97.12.57-.1 1.39.69 1.48 1.16.47 2.25 1.2 3.5 1.4 1.59-.5.64-2.32 1.05-3.6-.33-1.2.28-2.33-.18-3.6.15-1.36-.92-2.95 0-4.4.42-.5.51-1.8 1.38-1.61 2.8.1 5.62-.09 8.39.34-2.81.42-5.69-.17-8.5.15-1.67.94-.18 2.9-.18 4.3a55 55 0 0 1-.05 9.23c1.8 1.84 1.99-1.29 1.94-2.58l.21-3.55c.97 1.35 1.94 2.75 2.19 4.43 1.3.68 1.57 2.45 2.07 3.82.06 1.43 2.35 2.46 2.11.37.78-3.99.76-8.05.71-12.09-.27-1.88 1.65-.74 1.28.53.15 3.8-.5 7.57-1.19 11.3-.4.61.15 3.26.5 1.5.66-3.63 1.78-7.2 1.82-10.93l.17-4.02c1.82-1.02 3.98-.85 6-1.01.42.83 1.4 2.52.49 2.95-1.33-.73-3.36-2.06-4.67-.77-.97 1.61.74 2.92 1.98 3.65 1.54.83 2.82 2.16 2.16 4.03-.2 2.78-.76 5.52-1.27 8.25-.3.79.26 2.7.75.97.98-4.13 1.53-8.36 2.13-12.56.25-2 .44-4.06-.11-6.02 1.63-.25 1.74 2.42 1.4 3.62-.62 5.27-1.54 10.5-2.6 15.7.56 1.69 2.65-.53 2.4-1.79.75-3.24.98-6.56 1.26-9.87-.03-1.87 1.7-3.03 1.96-4.78.25-1.07-2.8-2.95-.46-3.02 1.71.9 1.34 3.63 3.6 4 .93.78 2.07.4 1.11-.84-.42-.83-2.37-2.32-.26-1.8a3.99 3.99 0 0 1 3.6 2.83c.35 1.64.9 3.27 1.04 4.96a30.8 30.8 0 0 1-.11 6.44c1.6.08 2.95-2.28 3.99-3.54 1.42-1.55.09-3.34-.48-4.92 1.3.06 2.96 1.85 4.26 2.7 1.5 1.07 2.68 2.52 4.15 3.6-.17-1.79-2.11-2.96-3.32-4.18a134.24 134.24 0 0 0-4.57-3.7c2.68 1.47 4.89 3.62 7.2 5.57 1.66.04-.6-1.96-1.2-2.37a62.78 62.78 0 0 0-12.99-8.67c-2.32-.22-2.43-2.47-2.4-4.31-.2-2.86-.3-5.74-.25-8.6-.01-1.75-1.04-3.22-2.32-4.32-.53-.6-2.61-2.43-1.4-2.65.42 1.68 2.39 2.5 3.95 1.87 1.57-.16 2.5-.99 3.3-2.4 1.93-2.95 3.8-5.93 5.65-8.93 1.34-2.1 1.15-4.65.97-7-.16-1.06.35-1.13.38-.07.46 2.76.16 5.72-1.44 8.1-2.43 3.56-4.46 7.47-7.25 10.8-1.14 2.6-.99 5.52-1.24 8.3-.11.83.55-.61.8-.85.7-1.62 2.65-2.9 3.31-4.47-1.71.66 1.1-2.47 1.58-1.94.35.16 1.3 2.1 1.04.97 0-.4-.44-1.6-.13-1.47.91.77 1.75 1.64 2.76 2.27-.33-1.69-1.15-3.25-1.4-4.95.7.17 2.05 1.2 1.04-.21-1.17-2.36 2.83.55 2.68-.58-.01-.45-1.81-1.46-.87-1.42 1.03-.09 2.4.18 3.22-.1-.61-.73-3.4-.3-2.77-1.24 1.3-.8 2.75-1.37 4.22-1.8-1.25-.33-2.5-.65-3.75-.95 1.93-.89 4.04-1.3 6.03-2.02-.47-.97-3.13-2.2-.69-2.55 1.9-.59.68 2.89 1.1 4.02.18 16.45.1 32.9.13 49.34V37.02H195.17zm64.24 7.78c1.37-.4 1.74.48 1.16 1.51-.39 1.14-.6 2.44-1.24 3.41a11.43 11.43 0 0 1-1.5-4.54c.28-.55 1.09-.31 1.57-.38zm-8.99.54c.67.42 2.38 3.09.87 2.8-.44-.73-1.3-2.07-.87-2.8zm-3.57.33c1.2.7-.01 3.46-.7 1.67.24-.52.3-1.29.7-1.67zm2.1.25c1.6.91 1.2 3.11-.72 2.03.28-.61.16-1.66.72-2.03zm-.6 2.82c1.03.13 1.4.7.07.84-.9.4-.87-1.04-.08-.84zm-1.23 1.77c1.11 1.77-1.67 1.9-2.57 1.14.71-.55 1.7-.87 2.57-1.14zM209.9 53c-1.13 1.12-.74 3.24-1.07 4.8-.3.91.05 1.97.34.45.07-1.82 1.64-3.4.74-5.25zm41.55 1c-3.19-.07-6.33.62-9.51.8-3.6.25-7.21.72-10.83.66-.78-.73-1.23.3-2.36.24-.64.18-1.23 1.35-1.48.3-2.69-.37-5.43-.1-8.14-.15-1.9.13-3.93-.18-5.73.54-1.53 1.53 1 3.1-.2 4.67-.99 1.22-.26 2.54.53 3.52-.63 1.36-1.18 3.15.09 4.4 1.52 1.05-.5 3.08.98 4.43.54 1.97 2.56 2.63 4.35 2.94a58.37 58.37 0 0 0 14.41 1.36c6.57-.03 13.17-.85 19.4-2.96 2.32-.84 4.8-1.59 6.64-3.3 1.04-1.54-.22-3.44-.6-5-1.4-3.73-2.67-7.52-4.51-11.05-.51-1.27-1.87-1.33-3.04-1.4zm1.6 2.67c2.08.2.08 3.42-.78 1.25-.25-.56.24-1.16.78-1.25zm.2.5c-1.64.56 1.06 1.97 0 0zm-22.58 1.32c2.48-.33 4.02 1.51 5.63 2.82 1.83.42 3.7-.13 5.5-.4a10.37 10.37 0 0 1-5.52 1c-1.37-.89-2.44-2.38-4.17-2.72-3.87-.98-8.1 2.26-8.32 6.23-.17 1.7 1.04 3.14 1.76 4.59 1.3 2.34 3.57 4.31 6.35 4.4 2.03.18 4.54.04 5.68-1.95 1.33-1.96.06-4.5-1.34-6.06-1.43-1.57-4.2-2.72-6.01-1.1-1.86 1.18-.45 4.55 1.61 3.17.04-1.24 1.15-.79.5.18-1.02 1.8-4.33.1-3.62-1.77.3-1.79 2.08-2.84 3.8-2.72 3.67-.04 6.61 3.81 6 7.33-.9 2.86-4.28 4.09-7.03 3.51-2.1-.48-4.14-1.27-6.3-1.6-2-.4-4.05-.63-6.04-1.1 1.37-2.03 3.72-3.59 4.07-6.2 0-2.39 1.03-4.84 3.12-6.13a7.69 7.69 0 0 1 4.33-1.48zm24.42 3.33c2.56.24-.27 3.5-1.04 1.04-.1-.58.53-.98 1.04-1.04zm-.07.48c-1.46.37.95 1.67.34.17l-.15-.1zm-42.09 2.36c-.55.57.9.56 0 0zm10.56 2.91c-.83 1.51-1.99 2.79-3.05 4.12 1.25.94 3.53.82 5.21 1.13 3.26.96-2.82-3.86-1.42-3.89l-.74-1.36zm33.35.85c1.81.36.2 3.37-.8 1.52-.15-.57.14-1.43.8-1.52zm0 .4c-1.44 1.53 1.4 1.63 0 0zm8.67 8.13c.1 1.98.11 4 .47 5.93-1.15-1.1-1.8-3.1-3.43-3.96-1.77-1.15-4.04-.27-5.92.13a7.08 7.08 0 0 0-5.28 5.64c.04 1.27-.67 4.07-2.27 2.72a16.3 16.3 0 0 1 2.9-6.65c1.52-1.65 3.92-1.85 5.95-2.5 2.48-.68 5.05-.87 7.58-1.31zm-51.2 1.67c-.35.61.73 3.48.43 1.36-.1-.45-.1-1.01-.43-1.36zm51.84.57c.78.83 1.42 2.68 1.23 3.5-.58-1.08-1-2.31-1.23-3.5zm-16.56.55c-1.74.16-3.55.37-5.17 1.06-1.25 1-1.72 2.63-2.49 4 2.01.17 3.4-1.6 4.91-2.64.93-.8 1.95-1.5 2.75-2.42zm47.86.27c1.57 1.16.92 3.52.93 5.21.12 1.22-.85 3.77-1.74 3.6.58-.95 1.67-3.94-.18-3.67-1.1.7-.42 3.04-1.54 3.24-.14-1.1-.3-2.2-.84-3.2a6.67 6.67 0 0 0-.4 5.3c.68.8-.79 3.15-1.07 2.33.65-.19.78-3.05.3-1.72-.28.75-1.07 2.44-1.24.64-.48-1.53-1.2-3.35-.43-4.78.54 1.28.25 3.1.85 4.15.6-2.07.73-4.28 1.64-6.27.57-1.3 1.28-3.38 3.1-2.97.77.3 1.67.72.97-.5-.11-1.61-2.18.31-1.84-.18.44-.43.81-1.13 1.49-1.18zm-76.76.74c1.88-.02 4 .38 4.96 2.2 1.77 2.52 3.78 4.9 5.17 7.65-.55 1.6-2.8 1.79-4.3 2.09-1.95.26-4.27.02-5.53-1.69-.54-.46-2.46-2.83-.72-1.56a14.4 14.4 0 0 0 3.28 2.08c-.82-.65-1.96-1.2-2.26-2.23 1.15.59 2.03 1.74 3.38 1.98 1.9.5 3.99.12 5.73-.72-.57-1.2-1.42-2.25-2.2-3.32-.85.76-2.1 1.4-3.13.57a6.87 6.87 0 0 0-2.2-1.34c1.34.55 2.8-1.46.87-1.58-.76.05-2.55-.4-.7-.36 1.34-.5 1.43-3.22-.57-2.9-2.13-.72-3 1.44-2.36 3.17.25.78.09 2.84-.25.96-.44-.98.2-3.47-.35-3.58-.97 1.16-.42 2.78-.44 4.17.07.77.1 1.31-.17.25-.63-1.82-.93-4-2.74-5.06-.04-1.05 2.5-.52 3.5-.75l1.03-.03zm6.88.17c-.74.41 1.45 1.68 1.92 2.36.63.56 2.25 2.24 1.37.36-.48-1.92-1.05-2.99-3.29-2.72Zm31.37.41c2.06.43 2.28 3.02 1.86 4.7-.3 1.56-2.69 2.34-3.68.97-.62-.27-2.78-.6-.9-.86 1.5-.07 2.97 2.17 4.05-.1.91-1.39-.03-3.74-1.6-4.12-1.86-.01-1.33 4-3.58 2.6 1.25-.7 1.3-2.97 3.14-3.16.23-.05.47-.06.71-.03zm37.64.82c-1.8.19-2.87 2.62-1.68 4.05.78-.6 1.5-2.65 2.85-1.56.3-1.02.2-2.4-1.17-2.49zm-48.04.98c.17.62-.54 2.5-.2.86-1.08 1.44-.66-.07.03-.65l.17-.21zm10.01.32c1.57.2.34 3.36-.45 1.58 0-.46-.31-1.56.45-1.58zm-33.25.14c-.62 1.03-.95 3.94.9 4.11 1.33.32 1.96-1.5.82-1.98-1.24 2.2-.8-2.04-1.72-2.13Zm63.8.56c.6.85.3 2.98.83 3.33.47-2.1.46 1.07.38 1.7.24 1.4.71 4.19-.14 4.8-.69-1.91-.91-3.97-1.6-5.87-.74 1.58-.56 3.57-.8 5.32-.21.82.01 3.2-.54 3.18-.39-2.03-.72-4.07-1.34-6.04-.35-1.78.18-3.6.51-5.33.73-.03.55 2.52.93 3.45.65 1.7 1-2.63 1.38-3.58.12-.31.11-.72.39-.96zm-41.6.96c-.13.49-.69 2.34.12 1.06.01-.79.73-1.45.35-.24.02.94-1.5 1.9-1.1.42.13-.43.21-1 .64-1.24zm19.3.03c-.19 1.54-1.62 2.7-2.62 3.83-1.79 1.6-3.55 3.63-6.04 4.04-2.16.08-3.94-1.41-5.7-2.46-.72-.24-1.2-1.3-.03-.63 2.42.94 5.23 1.92 7.8.99 2.06-1.2 3.43-3.24 5-4.98.82.03-.92 2-1.3 2.52-.88 1.1 1.1-.94 1.4-1.37.61-.53.85-1.51 1.48-1.94zm-34.07.2c.64.52 1.3 1.27 1.95 1.6-.44.43-1.58.37-.39.87 1.85 1.27-3.3-1.02-.58-.89.22-.46-1.12-1.03-.98-1.59zm7.65.27c-.45 1.45-1.64 2.72-2.54 3.99-.4.76-1.67 1.53-.6.27 1.18-1.32 1.96-2.96 3.14-4.26zm3.84.48c-.88.78-1.84 1.74-2.84 2.18.86-.82 1.9-1.46 2.84-2.18zm-8.67 2.21c2.08.69-.88.32 0 0zm13.1.67c.63.35 2.58 2.05 2.16 2.15-.76-.66-1.6-1.31-2.16-2.15Zm-12.73.82c.2.57-3.83.4-1.37.1.45-.06.9-.13 1.37-.1zm10.47.57a50.82 50.82 0 0 0 4.4 3.05c-.45.76-3.52.36-1.34.24 1.8-.5-1.38-1.22-1.72-1.95-.78-.8-1.38-.84-.93.4-.47 1.13 1.18 1.83 1.25 1.76-1.59.32-1.62-1.73-1.71-2.81 0-.23-.05-.47.05-.69zm28.4 3.05c-.58 1.52-2.36 2.43-3.49 3.61-2.99 2.43-5.8 5.35-9.53 6.63a24.4 24.4 0 0 1-6.36.66c1.77-.8 3.96-.82 5.7-1.86 4.8-2.5 9.16-5.76 13.47-9zm18.65 1.98c-.61 1-3.2 2.34-3.7 2.26 1.25-.72 2.5-1.5 3.7-2.26zm-19.88.95c.68.5 1.5 3.91.4 1.76-.15-.49-.77-1.33-.4-1.76zm2.42 2.58c-.63 1.6-2.38 2.7-3.58 3.99-2.66 2.34-5.3 4.99-8.74 6.17-2.3.48-4.72.5-7.06.27-.26-.73 2.64-.5 3.56-.82a13.5 13.5 0 0 0 6.51-2.62 80.7 80.7 0 0 0 9.03-6.9l.17-.09zm6.24.95c.19 1.38-.49 3.26-.74 4.82-.79 3.85-1.8 7.72-1.77 11.68.4 1.31 3.45.33 3.07 1.45-1.67.52-3.48.42-5.22.51-2.2.14.3-2.41.41-3.41 2.06-4.74 2.92-9.86 4.15-14.83l.1-.21Zm-62.78 1.16c.07 1.62.93 3.12 1.46 4.64 1.64 3.86 3.27 7.77 5.54 11.3 1.37 1.5.1-1.55-.22-2.12-.95-1.46 1.19-1.08 1.44-1.7a3.58 3.58 0 0 1-3.78-2.91c-.54-.85-.67-2.16.74-1.6.3-.06 2.4-.14 1.5-.41-1.26-.58-2.75-.8-3.78-1.8-.64-1.22-2.4-3.87.3-3.04 1.46.03-1.26-1.17-1.72-1.59-.49-.26-.95-.6-1.48-.77zm10.07.2c-.98 1.07-.06 1.43 0 0zm5.7 3.43c.5.75-.63 1.56-.18.16l.08-.12zm.42 1.03c.32.73-.2 1.73-.06.32l.01-.19zm-1.46 1.38c.93.7-1.38.54 0 0zm42.62.14c-.8 1.35-2.4 2.15-3.64 3.13-2.62 1.75-5.22 3.64-8.2 4.75-2.1.62-4.22-.5-6.19-1.16-.7-.84 2.47.18 3.25.01 3.05.04 5.62-1.93 8.29-3.15 2.05-1.02 3.96-2.29 5.95-3.43.16-.15.35-.14.54-.14zm-76.93 3.03c.4.99 2.26 1.94 3.27 2.86 5.21 3.94 10.18 8.2 15.47 12.06 5.43 4.09 10.5 8.66 16.37 12.15 1.23.44 2.02 2.58 3.43 2 1.33-1.53 2.08-3.56 3.5-4.98-.75 1.27-1.5 2.66-2.26 3.98-1.02.94.5 3.2 1.11 1.21 1.59-2.3 2.62-5.08 4.78-6.93 1.27-.4 2.45-1.74 3.63-1.8-.06 1.16-2.1 2.8-1.6 3.45.8-.06 2.73-2.32 1.9-.36-1.32 1.8-3.56 2.47-5.37 3.62 2.2-.24 4.32-1.06 6.41-1.78 1.29-.8 3.86-.53 3.26-2.71-.4-.98 2.04-3.5-.1-2.6-.85-.08-1.97 2.19-2.07 1.74a5.98 5.98 0 0 1 1.78-3.88c.65-.56.86-1.33-.22-.75-1.39.6-2.99 1.1-3.87 2.4-10.67-4.34-21.63-7.93-32.26-12.34-.88-.72-3.42-.83-3.38-1.89 2.74.53 5.42 1.37 8.16 1.94 3.74.86 7.45 1.82 11.22 2.51.97-1.1-1.94-1.3-2.75-1.55-10.26-1.89-20.02-5.64-30.07-8.3zm39.09 1.4c.9.08 2.81 2 .98.92-.37-.58-2.1.13-.98-.92zm-8.55 2.5c-1.54 1.36.91 2.73 2.26 2.93 1.63.62 3.16 1.58 4.89 1.9 1.03-.66 2.13-2.93-.02-1.94a7.09 7.09 0 0 1-5.93-1.34c-.38-.53-.33-1.53-1.2-1.56zm3.69 3.9c.2 1.33.9 2.59 2.16 3.16a48.07 48.07 0 0 0 8.57 3.12c1.68.66 3.4-1.03 4.68.69 1.68-1.35 3.16.29 4.66.77.64-.48 2.97-2.1.82-1.88-6.25-.62-12.61-1.6-18.24-4.53l-2.65-1.33zm34.78 1.14c.86-.24 3.83.32 2.4 1.4-1.57.02-3.86 0-4.18 2-.77 1.75-1.94-1.51-1.32-1.94-.32-1.83 2.02-1.32 3.1-1.46zm-5.73 1.34c-.97.4 1 3 .41.8-.07-.3-.16-.6-.4-.8zm.54 2.93c-.87.5.43 2.57.27.8-.04-.25.02-.67-.27-.8zm0 2.14c-.87.5.43 2.57.27.81-.03-.25.02-.67-.27-.8zm-44.42.5c-.77.72-2.17 1.19-2.1 2.41.73 1.79 2.06 3.26 3.1 4.89a206 206 0 0 0 11.14 15.14c1.92 2.58 4 5.04 5.73 7.75.67.9.65 2.85 1.27 3.3-.03-1.68-.7-3.25-1.1-4.86l1.35 1.23c.7-.46 1.51-1.7 2.37-1.14.65.9.68 2.06.7 3.13a4.7 4.7 0 0 0-.2-3.78c-.65-1.66-1.64-3.17-2.15-4.88 1.1 1.05 1.66 2.6 2.4 3.93.23.74 1.6 3.23 1.06 1.09-1.36-4.13-4.06-7.6-6.04-11.43-.46-.68-2.2-3.52-.37-2.03 2.52 2.45 4.36 5.57 7.12 7.75.16-1.35-.88-3-1.3-4.43-.28-1.86-1.92-2.14-3.38-2.46-1.78-1.51-3.4-3.24-5.42-4.45-.69-.56-3.09-1.89-1.79-.04 1.22 2.26 2.67 4.41 3.64 6.8-1-.55-1.86-2.36-2.89-3.33-3.79-4.59-7.17-9.75-12.33-12.95-.58-.39-.79-.98-.81-1.64zm44.42 1.92c-.8.54.23 2.57.27.8-.03-.24.01-.67-.27-.8zm-45.56.11c1.37 1.64 2.3 3.64 3.52 5.42.38.52 1.62 2.82.5 1.35a67.91 67.91 0 0 1-4.03-6.67zm-3.63 1.48c-1.92.34-3.82 1-5.52 1.94-.94.42-1.21 2.1.07 1.12 2.68 3.17 4.8 6.8 7.37 10.06a102 102 0 0 1 4.43 5.02c3 3.35 6.54 6.18 9.5 9.56a9.56 9.56 0 0 1 2.14 6.18c.28 3.45-.66 6.88-2.33 9.88-.13.34-1.32 2.7-.46 1.58 2.5-3.07 3.76-7.1 3.4-11.05-.07-2.51-.58-5.13-2.31-7.05-3.93-4.67-9.02-8.25-12.68-13.18-2.72-3.64-5.6-7.18-8-11.05-.12-1.37 2.41-1.71 3.37-1.7-1.13.55-4.01.92-2.14 2.56.77.98 2.31 2.63 2.53 3.3-.56-.46-1.4-1.24-.6-.17.48.56 1.23.85 1.24 1.52 1.63.77 3.16 1.96 4.74 2.91 3.41 3.2 6.37 6.86 9.5 10.34 1.4 1.6 2.79 3.3 3.49 5.34.34 1.73 1.92 2.21 3.27 1.2 2.2-.43.82 2.9 1.45 4.13 1.2-.71.13-3.14-.04-4.43-1.13-2.66-3.25-4.78-4.98-7.08-3.73-4.61-7.78-8.97-11.42-13.65-.1-1.09-.25-2.8-1.62-3.4-.53 1.06-1.62-1.62-2.16-2.07-.57-.75-1.15-1.86-2.24-1.81zm79.97.02a20.57 20.57 0 0 0-1.24 6.24c-.21 1.2.77 1.64.88.2.4-2.1.5-4.28.4-6.42zm-31 .83c-2.14.78 1.18 1.76 0 0zm-6.63 1.58c-1.19.11-1.6 1.43-2.25 2.25a8.51 8.51 0 0 1 3.41 2.28c.85.32 3.64-.93 3.34.8a28.92 28.92 0 0 0-7.13 6.08c-.9 1.04-1.79 2.1-2.68 3.15.32 3.31.45 6.66 1.21 9.92.97-.96 2.49-1.28 2.02-2.93.28-1.22 2.03-1.21 1.46-2.7-.1-1.66 2.38-.87 1.67-2.53-.28-1.78 2.67-1.74 1.37-3.52.02-1.5 3.07-1.24 1.5-2.84-.54-1.7 2.52-1.92 1.09-3.49-.33-1.15.84-1.74.44-.18.43 1.58.5-.47.97-.62.28 1.53-.64 3.07-1.08 4.53a43.22 43.22 0 0 1-4.7 9.02c-3.68 6.04-6.14 12.8-10.34 18.53a44.01 44.01 0 0 1-13.12 11.37c-3.75 2.11-7.54 4.57-9.77 8.38-.86 1.42-1.81 2.8-2.43 4.34 1.8.4 1.9-2.6 2.98-3.66 1.23-1.85 2.37-3.97 4.35-5.12a6.85 6.85 0 0 0 4.34-1.53c2.88-2.12 5.7-4.38 8.93-5.95 1.1-1.13 1.82-2.6 2.89-3.77 1.97-2.3 3.5-4.98 5.79-6.99 1.47-.92 3.57-.68 4.31-2.64 1.56-2.25 3.2-4.55 3.97-7.21.15-.9-.7-2.1-1.28-2.41-1.62 3.08-3.16 6.21-4.9 9.23-1-.53.66-2.53.88-3.55 1.86-4.23 4-8.33 6.3-12.33 1.39-2.55 2.4-5.26 3.5-7.94.91-.9 1.28 4.1 1.78 1.44.17-1.26-.13-3.94 1.93-2.85 1.5.44 3.77 1.13 2.47 3.08-.17.8-1 2.53-.62 2.86 1.18-1.24 1.05-3.92 2.7-4.4.54 1.16-.57 2.75-.84 4.05l-.92 2.67c1.28 2.24 2.79 4.32 4.26 6.43.68-1.95 1.62-3.81 2.04-5.83-.02-1.93-1.59-3.38-2.33-5.07-.65-.84-1.1-2.29.47-1.4 1.55.68 3.59.9 4.69 2.2-.04 3.25-1.03 6.41-1.82 9.55a69.02 69.02 0 0 1-2.67 7.8c.99-.12 1.58-2.5 2.1-3.64a61.1 61.1 0 0 0 3.28-13.08c1.22-1.71 1.86.64 1.94 1.77 1.09 2.98 3.1 6.23 6.48 6.8 2.51.43 5.44.19 7.18-1.9a7.56 7.56 0 0 0 2.23-6.48 5.8 5.8 0 0 0-3.76-5.04 9.45 9.45 0 0 0-8.04-.19c-1.55.45-2.94 1.55-4.55 1.7-4.07-.74-7.9-2.38-11.84-3.56-1.84-.74-3.89-.7-5.7-1.48-.38-.82 3.22-.21 1.29-1.05a66.58 66.58 0 0 0-8.14-2.32c.29-.04-.86-.03-.65-.03zm-47.9 1.08c-2.36.4 1.74 3.02.77 1.04-.24-.36-.44-.75-.77-1.04zm1.85 2.42c-2.06.61 1.09 3.36.95 1.57-.27-.54-.51-1.13-.94-1.57zm40.78.35c-2.01.58-3.98 1.31-6.03 1.76-1.72.1-2.79 1.37-1.77 2.97.5 1.6 2.3 2.42 3.86 2.56 2.83-.2 5.14-2.1 6.94-4.14.72-1.56-1.17-3.27-2.72-3.16h-.28zm44.24 1.43c-1.46.82.87 3.38.59 1.09-.04-.36-.1-1.06-.6-1.1zm-59.2.97c.8.1 1.43 1.2.36.32l-.28-.23zm-21.97.08c.7 1.42 2.2 2.83 3.16 4.28 3.9 5.05 8.8 9.18 13.16 13.8.49.82 1.4 1.4.67.03-1.36-3.8-4.69-6.29-7.17-9.32-2.23-2.48-4.07-5.54-7.23-6.95-.96-.49-1.7-1.3-2.6-1.84zm-2.18.05c-1.64.97 2.24 3.47 1.1 1.19-.3-.41-.56-1.06-1.1-1.19zm12.55.07c1.63 1.41 2.82 3.3 4.51 4.66a40.97 40.97 0 0 0 6.27 4.75c.9 1.48.48 3.47 1.1 5.11.54 1.94-1.67-.72-1.94-1.3-2.6-3.26-5.37-6.38-7.8-9.78-.71-1.1-1.82-2.22-2.14-3.44zm65.83.82c2.01.17 4.66.8 5.33 3 .67 2.13 0 4.7-2.03 5.85-1.26 1.55-.36-2-1.26-.84.07 1.2-.16 2.16-1.64 1.88a5.88 5.88 0 0 1-4.8-1.82c-.84-.52-1.34-2.23-.26-.78.52.63.49-1.61 1.37-1.73 1.28-1.4 3.3-1.43 4.98-.9 1.47-.09 2.4 2 3.1 2.23a4.9 4.9 0 0 0-2-3.4c1.48.28 1.22-.95-.06-1.3-1.44-.92-1 .62-1.18 1.2-.91-.07-4.3.75-2.8-.91-.08-1.88-2.76-.12-3.4.73-.61.59-1.02 4.05-1.04 1.6-.04-2.43 1.9-4.7 4.37-4.78a9.7 9.7 0 0 1 1.32-.03zm-28.98 1.33c-1.6.22 0 2.99.28.8.12-.3.3-.9-.28-.8zm-47.85.3c-1.23.14.85.33 0 0zm.78.5c-1.2 1.06 2.16 3.01 1 1.06-.3-.38-.58-.8-1-1.06zm1.64 2.18c-.83.01-.08.42.24.14l-.02-.06zm44.41.25c-1.58-.42-1.2 2.64-.13.82.11-.22.53-.65.13-.82zm-15.8.11c.17 1.33.72 2.83 1.09 4.2.5 2.38 1.54-1.01 1.88-1.84.82-1.35.22-2.39-1.37-2-.56-.02-1.07-.26-1.6-.36zm-28.14.34c-.8 1.38 2.9 2.48 1.14.68-.3-.3-.67-.8-1.14-.68zm80.6 1.03c.8 1.68-.8 3.57-1.92 4.76-1.74 1.7-4.45 2.6-6.78 1.7-.7-.72 3.38-.38 1.44-1.9 2.33.02 4.73-1.04 5.94-3.1.42-.47.7-1.22 1.32-1.46zm-15.8.39c-.87 2.19-1.24 4.56-2.02 6.8-.88 3.11-2.12 6.16-2.8 9.3 1.07-.77 1.35-4.07 3.08-2.79.48.21 2.6 2.24 1.6.59-1.03-2.1-2-4.48-1.24-6.83.42-2.21 1.64-4.23 1.73-6.5-.02-.2-.06-.57-.34-.57zm9.54.64c-.43.5-1.67 3.4-.16 2.19.23-.67.33-1.53.16-2.2zm-72.23.16c-1.14 1 1.68 2.8 1.25 1.31-.37-.47-.73-.98-1.25-1.3zm40.13.27c-1.26.19-1.03 3.02-.15 1.09.04-.26.75-1.06.15-1.09zm37.72.54a14.66 14.66 0 0 1-4.78 3.38c-.58 1.5 2.93-.3 3.44-1.26.45-.62 1.4-1.38 1.34-2.12zm-76.14 1.37c-.83 0-.08.42.24.14l-.02-.06Zm.55.67c-.78 1.11 2.59 2.2 1.2.67-.31-.29-.72-.81-1.2-.67zm36.13.64c-1.3.2-.74 2.47-.1.8.07-.18.66-.82.1-.8zm-33.8 1.58c-.8 1.39 2.71 2.03 1 .53-.27-.24-.6-.62-1-.53zm32.19 1.37c-.9.05-1.34 2.25-.2.89.08-.19.82-.91.2-.89zm33.48 0c-.2 4.73-.93 9.43-2.01 14.03-.51 1.89.59-1.12.7-1.57a69.74 69.74 0 0 0 3.07-12.17c-.28-.52-1.24-.2-1.76-.29zm-65.75.17c-1.03 1.3-2.64 2.35-4.38 2.23a31.1 31.1 0 0 1-9.17-.92c-1.59-.32-3.66-.83-4.71.8-1.86 2.22-5 5.2-5.7 7.06a23.82 23.82 0 0 0 7.05-4.67c1.7-1.33 3.99-2 6.06-1.21 2.67.75 5.37 1.43 8.03 2.22.55.26 1.5.36.87 1.12-.34.8-1.27 2.93.16 1.4l1.65-1.5c.84.14 1.7.6 2.56.42.72-.61 1.06-1.54 1.58-2.32l-2.49 1.75c-.7-.88-1.67-1.62-2.1-2.67 1.35.28 3.2-3.07 1.37-3.4-.25-.11-.5-.28-.78-.31zm2.63.45c-1.83.59 1.97 2.28.7.52-.2-.2-.41-.43-.7-.52zm37.74 1.35c-1.51 1.1-1.44 3.33-2.45 4.83-2.25 4.13-5.5 7.71-7.05 12.21-.7 1.7-1.23 3.55-2.41 5-1.28-.41-2.5-1.22-3.88-1.1-.3.16-2.35 1.16-1.48 1.25 1.47.2 3 .48 4.24 1.33.3 1.33-1.35 2.78-1.12 4.02 1.81-.4 2.28-2.82 3.25-4.2 1.5-2.76 2.55-5.73 3.82-8.6 2.23-4.61 5.71-8.65 7.09-13.66.05-.35.13-.74-.01-1.08zm-35.85.6c-1.28.92 2.15 2.15.77.54a1.87 1.87 0 0 0-.77-.54zm26 .39c-1.34.16-1 3.42-.24 1.21.1-.36.47-.87.24-1.21zm11.38.83c-1.2 1.1-1.59 2.88-2.42 4.28-1.44 2.49-2.66 5.1-4.03 7.62-1.6 2.53-2.33 5.52-2.9 8.44-.44 2.08 2.15.58 1.8-.79.05-1.02.79-3.64 1.39-1.4.13 1.83 1.98 2.2 2.9.66.44-.42 1.1-.78.6-1.44-.6-2.1-1.7-4.13-1.63-6.35.5-2.53 2.15-4.63 3.14-6.97.48-1.28 1.52-2.67 1.15-4.05zm-35.56.7c-1.14 1.03 2 2.4.6.62-.17-.23-.32-.51-.6-.62zm.46 2.08c-.72.58-.2 2.2-1.76 1.82-1.6.6-3.42 1.64-3.71 3.5-.2.55-.77 3.01-.11 1.26.53-1.66 1.36-3.56 3.32-3.81.91-.54 1.74.32 2.18.48.23-.89 1.35-2.8.07-3.25zm21.74.14c-1.15.15-1.28 3.73-.3 1.57.07-.4 1.15-1.53.3-1.57zm-20.43.92c-1.08.68.58 3.1.35.88-.04-.28 0-.78-.35-.88zm18.67.94c-2.15.85-3.8 2.59-5.57 4.04-2.37 2.12-4.77 4.32-6.44 7.06.25 1.6 3.02 1.38 4.02.28.62-1.14 2.23-.68 2.74-1.5-1.41-2.18 2.34-2.2 1.9-4.12.18-1.57 3.06-1.17 1.93-3-.2-1.35 1.37-1.76 1.88-2.33-.04-.17-.2-.5-.46-.43zm.22 1.16c-1.67-.27-1.39 3.57-.3 1.67.1-.42.9-1.42.3-1.67zm-18.5 1.01c-.8.54.23 2.57.27.8-.04-.24.01-.67-.27-.8zm.12 2.25c-1.4.06-.35 3.01-.05.9.03-.3.12-.6.05-.9zm16.62.17c-1.4-.05-1.6 2.09-1.37 2.74.6-.83 1.57-1.74 1.6-2.72l-.23-.02Zm-17.9 1.43c-1.88 1.06-3.1 3.06-5.03 4.04-2.74.62-5.57.96-8.22 1.87 1.42.18 3.26-.8 4.82-.16.97.9 1.5.83 2.24-.2 2.32-1.29 1.35 2.05 1.39 3.3-.11.7-.02 4.1.24 1.79.25-2.56-.17-5.54 1.76-7.57.8-1.13 2.14-1.86 2.8-3.07zm-6.7.28c-.67.61-1.1 3.03-.3 1.08.12-.35.32-.7.3-1.08zm48.84.17c-1.17 1.2-1.64 2.95-2.32 4.47-.46 1.54-1.5 3.14-1.02 4.78.13.77.85 2.62.63.8-.54-3.37 1.46-6.35 2.88-9.23.1-.24.34-.87-.17-.82zm-41.85.4c-.82.1-1.2 1.57-.2.53.05-.12.37-.38.2-.53zm15.6.71c-1.48-.55-2.2 2.97-.61 1.46.15-.34 1.59-1.36.61-1.46zm-17.47.86c-1.34.28-.48 2.1.31.73.23-.29.21-.87-.31-.73zm-1.33 1.85c-1.5 1.08 1.13.62 0 0zm16.29.47c-1.26-.3-2.1 2.57-.57 1.1.11-.22 1.38-1.1.57-1.1zm-16.93 1.07c-1.21.55.53 2.26.6.55.03-.32-.3-.58-.6-.55zm13.7 1.93c-1.26-.45-1.66 2.56-.38.88.12-.2.95-.73.39-.88zm-14.01.48c-.45.77.88 2.25.55.61-.08-.23-.24-.66-.55-.6zm-31.84 1.52c-1.9.3-1.41 3.13-1.54 4.64.36 3.9 1.01 7.83 2.28 11.55.03.82.85.5 1.4.55h17.2a13.47 13.47 0 0 0 2.88-4.08c-.85-.72-2.27-1.64-1.46-2.92 1.24-.85 1-2.11-.41-2.47-.58-.38-.54.88-.84 1.23-1 2.34-1.44 4.86-2.34 7.22-.92 1.23.37-1.6.36-2.07.7-2.27 1.22-4.67 2.47-6.72.87-.03 2.96 2.32 3.12.27-2.3-1.99-5.56-1.98-8.14-3.46-.45-.34-2.35-.32-1-.79 1.99-1.24-1.66-.03-2.42-.15-2.4.17-4.88-.02-7.07-1.12-1.48-.6-2.9-1.39-4.49-1.68zm43.3.01c-1.1-.34-2.41 2.35-.73 1.15.28-.32 1.51-.67.72-1.15zm-43.89.37c1.52.33.74 1.04 0 0zm1.52.53c1.72.53.62 3.07.8 4.44l-.27 3.47c.03-2.32.31-4.65.09-6.96.1-.37-1.3-.85-.62-.95zm49.03.28c.41.71 2.12 2.5 2.27 2.12-.5-.9-1.1-2.08-2.27-2.12zm-17.8.25c-1.36.9.85 1.78.29.15.16-.09-.4-.15-.29-.15zm7.8.68c-.92-.03-1.8 1.8-.35.88.33-.11 1.48-1.06.35-.88zm-8.89 1.2c-.9.78-3.02 2.15-2.64 3.17.91-.83 2.59-2.08 2.64-3.17zm-18.07.2c1.46 1.03 3 2 4.29 3.24.62 1.65.15 3.55.05 5.27-.61.66-.13-2.12-.18-2.71.5-1.8-.6-3.32-2.18-4.07-1.4-1.42-3.27-1.4-5.08-1.1-1.54.1-3.08.02-4.62 0-.75.71-1.4 1.55-2.28 2.12.62-.99 1.57-1.75 2.36-2.62 2.55.38 5.1.26 7.64-.13zm24.2.4c-1.12-.45-2.94 1.9-.95.99.2-.18 1.5-.67.95-1zm-8.92.61c-2.03.7-3.23 2.7-5.16 3.6-1.7.52-2.23 2.52-.38 3.26 1.2 1.5 2.61.84 3.62-.44 1.17-1.3 2.73-2.11 3.94-3.32 1.2-.55 1.13-3.42-.37-1.86-.57.29-.5 2.05-1.3 1.37-.84-.43-2.59-1.33-.77-1.85.27-.1 1.35-.77.42-.76zm4.67 1c-1.35-.16-1.1 1.14.02.66.38-.1.58-.78-.02-.66zm-34.92.5c-.49 2.91-1.89 5.66-2.07 8.66-.23 1.03-.77 2.44.9 2.05 1.3-.1 4.49.63 3.2-1.71-.78-2.7-1.2-5.46-1.7-8.21-.11-.24-.1-.62-.33-.8zm33.8.58c-1.62 1.56-3.15 3.27-4.7 4.93-.77.84-1.49 1.72-2.22 2.6-.8-.4-1.56-.85-2.4-1.16a23.08 23.08 0 0 1-2.9 3.76h6.46c1.62-3 3.25-6.07 5.73-8.48.54-.6 1.93-1.85.02-1.65zm-31.94 1.64c.47.58-.32.95 0 0zm24.12.33c.3.54-.81 1.29.29.53 2.06-.73 1.72 2.11-.05 1.98-2.11-.14-1.93-1.8-.24-2.51zm-22.24.48c.57.49-.4 1.18 0 0zm19.04 1.4c.42 1.4 2.22 2.3 3.52 2.93 1.12.11 1.67-1.26 2.38-1.98.78-.87-.36.18-.7.43-1.3 1.48-3.15.28-4.28-.75-.29-.23-.54-.55-.92-.63zm20.78 3.28c-1.58 0-2.04 1.76-2.8 2.85.05.36 1.3.05 1.8.15 1.71.28 2.11-2.42.49-2.09 1.18-.34 2.18.61 1 1.54.47.86 2.96.27 4.2.5 2.94.02 5.9.11 8.83-.05-3.01-1.4-6.38-1.8-9.61-2.46-1.3-.2-2.6-.39-3.91-.44zm4.66 1.96c1.51.16-1.4.23 0 0zm-1.34.26c1.64.15-2.81.86-.6.07l.3-.05z" paint-order="stroke markers fill"/><path fill="url(#m)" d="M44.19 195.94c-.7-.48-.63-1.15.24-2.45.82-1.23 2.77-4.7 3.35-5.94.7-1.52 1.73-4.21 1.73-4.52a.9.9 0 0 1 .2-.52c.24-.28.7-3.14.7-4.43 0-1.12.18-1.27 1.55-1.27 1.02 0 1.46.44 1.26 1.24-.19.75.68 4.42 2.23 9.36.5 1.57.72 2.01 1.15 2.18.68.26.88.77.53 1.42-.23.42-.2.63.2 1.27.25.42.46.93.46 1.14 0 .64-.48 1.48-.9 1.6-.53.13-.96-.35-1.67-1.9-.32-.7-.73-1.33-.92-1.4-.4-.15-3.9.54-5.57 1.1-1.35.45-1.94.97-2.46 2.11a2.5 2.5 0 0 1-.94 1.1c-.67.31-.55.32-1.14-.1zm7.56-5.9c1.8-.27 1.9-.53.98-2.82-.64-1.6-.85-1.84-1.29-1.48-.36.3-2.38 4.13-2.38 4.51 0 .2.24.23.84.11.46-.09 1.3-.23 1.85-.32zm9.7 5.94c-2.93-.8-3.27-3.68-1.02-8.42a41.58 41.58 0 0 1 7.37-10.01c1.64-1.58 2.16-1.83 2.73-1.32.79.71 1.24 5.65.64 7-.55 1.25-1.1 1.27-1.85.07-.36-.58-.73-.9-1.03-.9-.3 0-1.32.86-2.76 2.3-2.61 2.62-3.71 4.48-3.89 6.56-.09 1.11-.04 1.25.61 1.91.7.7.74.7 2.44.6 2-.12 3.32-.66 6.19-2.53a10.66 10.66 0 0 1 2.2-1.22c.77 0 1.05.28 1.05 1.01 0 .88-.43 1.25-3.07 2.57a30.44 30.44 0 0 1-6.87 2.45c-1.54.27-1.51.28-2.74-.06zm39.88 0c-.4-.3-.4-.43-.12-3.08.47-4.3.52-5.99.25-7.8-.44-2.92-.71-3.75-1.28-4.01a1.9 1.9 0 0 1-.79-.8c-.45-1 .3-1.46 5.29-3.25a23.14 23.14 0 0 1 5.44-1.13c1.46 0 2.83.54 3.76 1.47 1.79 1.77 1.81 3.96.09 7.63-2.01 4.27-6.2 8.46-10.72 10.73-1.26.64-1.36.65-1.92.24zm3.94-3.02c3.29-2.12 6.92-7.34 6.92-9.95 0-1.17-.7-2.34-1.68-2.84-1.35-.68-6.13-.21-6.59.65-.14.25-.09 1.32.13 3.05.32 2.42.32 2.98 0 6.03l-.37 3.53c0 .34.61.16 1.58-.47zm16.21 3.01c-3.75-.93-5.29-3.75-4.24-7.8.7-2.65 2.76-6.02 5.12-8.32a25.08 25.08 0 0 1 5.43-3.7c.59-.23.81-.21 1.38.08 1.86.96 2.88 4.44 1.47 4.99-.2.08-.72-.05-1.15-.28-.99-.53-1.67-.47-2.93.27-1.33.78-5.02 4.47-5.4 5.4-.45 1.12-.12 1.3 1.6.84 2.43-.66 3.82-.88 5.52-.9 1.43 0 1.7.06 1.96.46.54.82-.02 1.23-1.98 1.45a35.82 35.82 0 0 0-7.27 1.78c-.82.36-.96.52-.96 1.09 0 .84 1.19 1.93 2.51 2.29 1.2.33 4.76.12 6.44-.37 2.58-.76 3.36-.86 3.74-.49.19.2.27.47.18.62-.42.67-4.52 2.09-7.5 2.58-2.24.37-2.45.38-3.92.01zm15.9.07c-1.7-.4-2.32-.82-2.57-1.75-.44-1.63.08-1.94 1.8-1.1a7.1 7.1 0 0 0 5.53.11c2.72-1.1 4.53-2.93 4.53-4.58 0-.96-1.19-2.12-2.55-2.5-1.5-.42-5 .05-6.75.9-1.32.63-2.09.51-2.73-.44-.86-1.28-.63-4.57.46-6.66a9.64 9.64 0 0 1 3.01-2.86c1-.5 4-1.24 5.07-1.24 1.61 0 3.54 1.52 3.84 3.06.17.85-.58 1.53-1.91 1.73-.94.14-1.05.1-1.6-.57l-.58-.72-1.32.27c-1.88.37-3.22 1.11-4.06 2.23-.77 1.02-.97 2.05-.4 2.05.18 0 .8-.17 1.4-.39.82-.3 1.77-.39 4.09-.39 2.8 0 3.1.04 4.14.58.62.31 1.36.92 1.65 1.34.45.66.5.96.42 2.24-.18 2.64-2.05 5.27-5.1 7.19a9.13 9.13 0 0 1-3.75 1.51c-1.35.27-1.4.27-2.62-.01zm13.5-.23c-.41-.42-.45-.64-.32-2.07.55-6.2.4-10.69-.43-13.9-.39-1.5-.28-1.82.71-2.15 1-.32 2.04.07 2.37.9.13.31.3 2.28.37 4.36.1 2.9.21 3.81.44 3.89.17.05.95-.58 1.75-1.43a32.2 32.2 0 0 0 5.57-8.66c.44-.98.85-1.05 1.91-.33 1.1.75 1.38 1.42.95 2.28a51.54 51.54 0 0 1-4.86 6.7l-1.7 1.97.39.68c.21.37 1.17 1.5 2.12 2.5 2.5 2.62 3.23 4.4 1.85 4.4-.37 0-1.17-.67-2.68-2.22-2.37-2.44-3.7-3.32-4.66-3.08-.76.2-1.13.93-1.72 3.41-.73 3.07-1.16 3.64-2.05 2.75zm-112.67-.03c-.06-.15-.14-3.1-.19-6.54-.09-6.23-.25-7.66-.93-8.37-.25-.26-.53-.24-1.81.17-.84.26-1.8.47-2.13.47-.8 0-1.55-.93-1.55-1.89 0-1.34.11-1.4 4.7-2.44a72.2 72.2 0 0 1 8.59-1.26c1.08 0 1.93 1.01 1.93 2.32 0 1.23-.29 1.48-1.68 1.48-1.4 0-3.7.4-4.08.72-.2.17-.28 1.16-.29 3.5 0 1.8-.1 4.19-.23 5.3l-.41 3.8c-.26 2.38-.53 3.02-1.26 3.02-.31 0-.61-.12-.66-.28zm37.95-.04c-.22-.26-.22-.9 0-2.97.65-6.51.46-9.59-.85-13.2-.43-1.21-.28-1.55.8-1.88 1.07-.32 2.09.12 2.46 1.07.33.83.73 7.5.47 7.78-.33.34-.23 1.24.15 1.39.2.07.92-.02 1.62-.22a34.52 34.52 0 0 1 2.73-.6c2.35-.42 2.46-.5 2.46-1.73a27.9 27.9 0 0 0-1.1-6.5c-.66-1.95-.62-2.25.34-2.65 1.85-.78 2.73.02 3.02 2.74.44 4.06.48 5.34.24 7.52a863.5 863.5 0 0 0-.51 4.83c-.34 3.32-1.05 4.34-2.21 3.18-.42-.42-.44-.64-.3-3 .1-1.8.06-2.58-.12-2.7-.27-.16-3.44.55-5.18 1.16-1.55.54-1.73.82-2 3.06a8.9 8.9 0 0 1-.58 2.52c-.39.6-1.04.68-1.44.2zm17.01 0c-.18-.23-.23-.82-.14-1.85.07-.84.19-3.09.27-5 .14-3.77-.17-6.55-1.04-9.32-.5-1.62-.43-1.97.5-2.3 1.03-.35 2.3.05 2.6.83.38.96.71 3.65.71 5.68 0 2.57-1.1 11.15-1.51 11.78-.38.58-1 .65-1.39.18z"/></svg>