<svg xmlns="http://www.w3.org/2000/svg" xmlns:xlink="http://www.w3.org/1999/xlink" xml:space="preserve" width="324" height="234"><defs><linearGradient id="d"><stop offset="0" stop-color="#583503"/><stop offset="1" stop-color="#844f04"/></linearGradient><linearGradient id="a"><stop offset="0" stop-color="#dd8000"/><stop offset="1" stop-color="#ffe263"/></linearGradient><linearGradient id="b"><stop offset="0" stop-color="#ffd416"/><stop offset="1" stop-color="#ffeb94"/></linearGradient><linearGradient xlink:href="#a" id="h" x1="136.4" x2="460.4" y1="323" y2="287.9" gradientTransform="translate(-45.8)" gradientUnits="userSpaceOnUse"/><linearGradient xlink:href="#a" id="e" x1="0" x2="324" y1="117" y2="117" gradientUnits="userSpaceOnUse"/><linearGradient id="c"><stop offset="0" stop-color="#fff6cf"/><stop offset="1" stop-color="#fff"/></linearGradient><linearGradient xlink:href="#b" id="g" x1="205.4" x2="421.6" y1="377.2" y2="377.2" gradientUnits="userSpaceOnUse"/><linearGradient xlink:href="#c" id="k" x1="186.8" x2="307.6" y1="113.5" y2="113.5" gradientTransform="translate(2 2)" gradientUnits="userSpaceOnUse"/><linearGradient xlink:href="#a" id="l" x1="188.8" x2="309.6" y1="115.5" y2="115.5" gradientUnits="userSpaceOnUse"/><linearGradient xlink:href="#c" id="f" x1="16.5" x2="169" y1="87.6" y2="87.6" gradientUnits="userSpaceOnUse"/><linearGradient xlink:href="#c" id="j" x1="20.8" x2="175.2" y1="186.1" y2="186.1" gradientUnits="userSpaceOnUse"/><linearGradient xlink:href="#d" id="i" x1="122.3" x2="628" y1="419.8" y2="419.8" gradientUnits="userSpaceOnUse"/><linearGradient xlink:href="#d" id="m" x1="31.6" x2="164.4" y1="186.1" y2="186.1" gradientUnits="userSpaceOnUse"/></defs><path fill="url(#e)" d="M0 0v234h324V0Z"/><path fill="url(#f)" fill-rule="evenodd" d="M16.5 16H169v143.1H16.5Z" paint-order="stroke markers fill"/><g fill="url(#g)" transform="matrix(.611 0 0 .611 -66.9 -143)"><path fill="#3b0212" d="m271.4 267.8-3.7 2.8c5 10.8-4.8 36 12.6 25.7l-.2-1a44.6 44.6 0 0 1-.3-4 635.7 635.7 0 0 0-1.3-17l-.5-6.5h-3.2zm83.3 22.7c0 .9 0 1.8.2 3.4-72.7 9.8-141.1 6.3-185.7 43-.6.2.3 4.6 0 4.7a.5.5 0 0 0-.2.3v1.5l.3 2.5c.2.5.4 1.2.6 1.4v.1a37.6 37.6 0 0 1 3.8-.8l.5-.1 2.5-.5 4.3-.7c2.7-.5 4.4-.7 9.4-1.3l2.7-.3a149.3 149.3 0 0 0 8.2-1l3-.4 3.3-.4a90 90 0 0 1 8-1l6.2-.7 24.7-2.5 17.6-1.7 3-.3 2.3-.3 12.4-1.2 1-.1 11.9-1.1h.6l.5-.1 2.7-.2 2.9-.2c2.1 0 4.1-.2 6.6-.4l9-.8 1.4-.2 4.5-.4h.6l4.8-.5h.9c2.6-.3 4.2-.4 8.8-.6h.4l5.7-.3 1.6-.2 4-.3c4.7-.5 6-.5 7.5-.6h5.3l.3-.1a1 1 0 0 0 .7-.7c.2-.5.3-1.2.3-3.1 0-2-.4-7.2-.8-11.7l-1.8-18.2c-.1-.7-.3-1.2-.6-1.4l-.3-.2h-.7l-2.6.3a7 7 0 0 1-1.7.2h-.2l-.4-2.8zm-19 52.2-.4 2c-21.5 36-32.8 96.8-26.4 97 1 0 12.8-5 12.9-5l1-3.3a519.1 519.1 0 0 0 7-28.2l1.5-6.2c2.8-11.7 8-36.4 9.7-45.6a67 67 0 0 0 1.3-8.6c0-.3-.4-.6-.8-.8a8.6 8.6 0 0 0-1.7-.5h-.3l-2.6-.6-1.2-.2zm-109 3h-.4l-1.2.3a7 7 0 0 0-1.3.7l-.2.1c12.3 34 8.6 59.7 2.7 91.9l.5 2a177 177 0 0 1 1.3 3.7h1.1l.4-.1c.4 0 .7-.2 1-.3a32.4 32.4 0 0 0 3.2-1.4 60.1 60.1 0 0 1 2.4-1.1l7-3.2a1043.5 1043.5 0 0 1 18.6-9c.4-.4.3-1.1-.2-2.6l-.5-1.5a58 58 0 0 1-2-5.3c-2.5-7.3-5.5-14.8-11.2-28.5a901 901 0 0 0-11.7-27c-3.4-7.5-4.6-10-6.6-14a15.1 15.1 0 0 0-2.4-4.2l-.5-.5zm149.1 118.6c-51-14.6-15.4-26-85.4-11.3-102 6.4-116.8 31.2-120.1 33.5h47.5l1.2-.2 5-.6 8-.8 26-2.9 2.5-.2.9-.1 1.9-.2a2061 2061 0 0 1 12-1.3l18.4-2 6-.6 15.1-1.5 1.5-.2 47-5.1 12.4-1.4z"/><path fill="url(#h)" d="M232.8 267.8c1.6 8.3 3.2 16.6 4.4 25-.2 2.3 1.9 6.5 0 7.8-25.6 2.6-51.2 5-76.7 7.7-2.1.2-.1 3.8-.5 5.2l3.2 29c4.8-.2 9.3-2 14.1-2.2 13.3-2 26.7-3.5 40.1-4.8 16.1-2 32.3-3.3 48.4-5 10.4-1 20.7-2.2 31-2.9 8.3-.4 16.4-1.6 24.6-1.9 5.5-.5 11-1 16.6-1.2 6.3-.2 12.6-1.1 18.8-1.2 1.1-2.9 0-6 0-9-.6-8.3-1.7-16.7-2.2-25-2.1-1-5 .1-7.2.2-22.1 2.5-44.2 4.7-66.3 6.8-2.2.1-5.2.6-7-.5l-2.6-28h6.5-45.2zm62.5 65.1-13.5 1.3c4.5-.5 9-1 13.5-1.3zm4.4.8c-3.2.2-2.6 4.7-3.4 7-1.3 8.1-2.3 16.3-3.7 24.4a992 992 0 0 1-11 59.6c-1.4 5.7-2.4 11.7-5.2 17-1.9 1.4-4.8.7-7 1.3-7.1.7-14.2 1.5-21.2 2.5-5.4.7-10.9.6-16.3 1.3-7.2.8-14.5 1.3-21.7 2-4.5.5-9 1-13.5 1-5 .6-10 .7-15 1.2-4.3.4-8.7.8-13.2.7-2.1 1.1-.8 4.8-1 7l2.8 27.8c14.2-3 32.4-3.9 45.6-5.4l45.3-4.8c18.6-1.8 37.1-4 55.7-5.8 19.6-2.2 39.3-4.2 59-6.2V430c-4.7.5-9.2 2-14 2.3a438 438 0 0 1-22.8 2.7c-6.6.8-13.3 1.3-19.8 2-1.4-.2-7 1.1-5-2.1 4.1-12.2 7-24.7 9.7-37.2 2.5-9.4 4.3-18.8 6.4-28.2 1.9-9 3.6-17.9 5.3-26.8 1.2.2 5.4 1.1 2.2.4-2 0-2.7-.9-2.3-2.9-6-2.7-13.8-1.8-20-4a318.4 318.4 0 0 0-15.6-2.5zm-79.8 8c-3.6 1-6.9 3.3-10.4 4.8-6 3.3-12.2 6-17.8 9.8-1 .8-2.8 1.8-1.7 3.3 3.4 8.6 8.1 16.8 11.7 25.4a548.7 548.7 0 0 1 17.6 47.5c1 2.4 1.6 5 2.7 7.4 2.8-.1 5.2-2 7.8-3 8.1-3.5 16-7.5 24-11.3 3.3-.6 1.6-2.2.5-5.5a884 884 0 0 0-30.7-73.3c.8-.9 4.8-1.4 1.6-.9-2.7 2.3-2.7-2.5-4.5-3.9-.2-.2-.4-.4-.7-.4z"/><path fill="url(#i)" d="M132 247.7a15.8 15.8 0 0 0-9.6 9.3c-.3 6.2 0 12.5-.1 18.7v222.8a15.7 15.7 0 0 0 9.3 9.5c6.5.4 13 .1 19.5.3h10.5a38 38 0 0 0-17.2 21A31.1 31.1 0 0 0 148 554c8.8 14.5 25 22 40.6 27.1a275.6 275.6 0 0 0 91.3 10.6c26.4-1.2 53-4.2 78.2-12.4 13.3-4.6 27.6-11 34.5-24 6.8-13.6 2.6-30-5.2-42l-3.5-5.2c5.3 0 11.5-.8 14.2-6.1 1.8-5 .7-10.7 1.2-16 .2-71.3.3-142.6.1-213.9-.2-5.4.3-10.9-.5-16.2-1.7-4.7-6.5-8.3-11.6-7.5-68.7-.6-137.5-.4-206.3-.6zm4.5 12.5H386v234c-6.6 0-13.3.3-19.9 0-16.8-8.3-35.9-9-54.3-9-23.3 0-46.6 2.1-69.8 4.3-12.1 1-24.2 2.9-36.2 4.5-23 .6-46.2.2-69.3.3V260.2ZM416 281.5a15 15 0 0 0-9.8 11.3l.2 262.2c2.2 5 7 10 12.9 9.1 66.4.4 132.8.1 199.3.1 4.2-1.8 7.8-5.2 9.2-9.5l.2-262.5c-1.3-5-5.1-9.4-10.2-10.7H416z"/></g><path fill="url(#j)" fill-rule="evenodd" d="M98.8 157.1c20.7-1.5 40.2-2.3 53 2.5a31 31 0 0 1 20.6 24.4c1.4 9.1-2.3 17-16 22.8a173.4 173.4 0 0 1-59.7 9.4c-22 0-42.4-3.6-55.3-9.4-12.8-5.8-18.1-13.7-18.1-21.3 0-7.6 5.3-15 19-19.8 13.7-4.8 35.7-7 56.5-8.6z" paint-order="stroke markers fill"/><path fill="url(#k)" fill-rule="evenodd" d="M188.8 37h120.8v157H188.8Z" paint-order="stroke markers fill"/><path fill="url(#l)" fill-rule="evenodd" d="M195.2 37c1 1.4 2.4 2.6 3.3 4-1.2-.4-2.3-1-3.4-1.6 1.1 1.2 2.4 2.3 3.4 3.6-2.9.4-5.8 0-8.6.4 2.2 2.2 4.9 3.8 7.1 6-.8.3-2.4-1-3.6-1.2-.7-.3-1.3-.6-.4.1 1.2 1.2 2.6 2.3 3.6 3.7-1 2.6-2.8 5-3.8 7.4 1.1-.5 2.6-2.7 3.3-2.5a229 229 0 0 1-7 13.5c-.4-.9-.1-3.2-.2-4.6l-.1-13V72c2.4-2.5 4.4-5.3 6.7-7.8.3.8-.9 3-1.2 4.5-.5 1.3 0 .9.4 0 1-1.6 2-3.3 3.1-4.8-.6 4-1.8 7.9-2.4 11.8.3 1 1.3-1.4 1.7-1.8.5-.8 1.5-1.3.8 0-1 3.2-2 6.3-2.8 9.5 1.3-1.5 2.2-3.5 3.4-4.9.3 2.9 0 5.8 0 8.6.6.7 1-2.1 1.4-2.8.2-.8 1.4-3.8 1.3-1.4.4 3.3.8 6.5 1 9.7.7-1.8.4-3.8 1.2-5.6.3.5.2 3.2.7 2.7.1-1-.1-2.7.3-3.3.7 4 .7 8 1.2 12 .3-1 .3-2.2.5-3.3.3 2.7.3 5.4.5 8 .4.9.8-1.5 1-2 .7-1.6.9-3.8 1.8-4.8.7.8.7 2.7 1.3 3 .2-1-.5-3.9 0-3.8.6 1 .9 2.7 1.6 3.3.4-1.2-.2-3.4.4-4.1 1 3.6 1 7.3 2.1 10.9.5-1.2.2-3.1.4-4.6.1-1 0-3 .5-3.5.4.7 1.4 3.6 1.2 1.4 0-1-.6-2.4-.2-3 .5.6 1.2 3 1.5 2.4L214.3 81c-.2-1.4-.7-2.8-2.2-3.2-.7-.2-.8-.8-.9-1.4a97.3 97.3 0 0 1-2.6-17.5c0-3.6.5-7.2 1.5-10.6 1-1.9.4 1.2 0 1.8-.4 1 0 1.3.5.2.7-.8 1.3-2.8 2-2.8-.2.7-.8 4.1.3 2.1l1-2.5c.9 0 1.8-.2 2.8-.1 0 1-1.3 2.4-.8 3 .5-.4 2.2-3.2 1.6-1l-1.7 5.6c1.7-1.4 3-3.2 4.5-4.7 1 .1 1.2-2.1.4-.5-.3.2 0-1.5.7-1 .8-2-.6 3.1.5.9.1-.6 1.6-3.1 1.1-1.2-.6 2.2 1-.7 1.4-1.3.5-1.3 2-.7 1.2.6-.5 1.4-1.5 2.9-1.8 4.1 1.5-1.6 2.4-3.7 3.8-5.4 0 1.7-1 3.3-1.6 5-.3.6-1.5 3.5-.3 1.5 1-1.4 1.6-3.2 2.8-4.4.3 1.4 0 3.1-.2 4.7 0 1-.2 2-.4 2.9 1.9-2.2 2.8-5 4.4-7.3-.2 1.3-1.1 3.2-1 4 .8-1.2 1.2-3.4 2-4.2-.2 1-.2 2.7.5 1 .3-.8.7-2.6 1.2-2.6l-.3 4.5c.7-1.6 1.2-3.3 2.1-4.8.8-1 2.6-.7 1.7.8-.2.6-1 3 0 1.4l1.5-2.8 4.2-.1-.6 3.9c.4-1.3.8-2.7 1.7-3.8.5 1.2.2 3 2 3.2-.2 1.7-2.3 1.5-3.4 2.4-.9.4-3.4 1.6-1 1.5 1.5.2 3.2-.2 4.6.5.5-.7 3.2.2 2.8-.7-1.6.2-3.8-1-1.9-2.5a3.6 3.6 0 0 1 3.2-.7c-.6-1.3 2-.1 1-1.2-.3-1-1.4-2.3-.6-3 .6 0 1.8-.4 2 .4.8 2.1 1.6 4.3 2.6 6.4 0-1.1-1-2.8-.8-3.5.6.7 1 2.8 1.6 2.8 0-1.4-1-3.1-.4-4.3 1 .7 1.7 4.3 3.2 2.6 1.4-1.9 0 2-.1 2.7-.2.7-.7 2.4 0 .9.4-.8 1.2-3 1.5-2.7-.8 3.6-2.1 7.1-2.4 10.8 1.2-.7 2.2-2.7 3.2-4l3.4-5.5c.8.4-.5 2.7 0 3.3.6-1.2 1-4 1.6-4.4l-.2 3.9c.7-1.9 1.1-3.9 2-5.7.5.4.4 1.7.7 2.4.2 1.2.2 0 .2-.6v-2c.6 1.3.8 2.8 1.6 4 0-.7-.7-3 .2-1.2.7 1.5 1.1 3.2 2 4.7a34 34 0 0 1-1-7c0-.8-.2-4 .6-1.9 1.2 3 2.6 5.8 2.7 9 .2 1 0 2.5.4 3.2.9-2.2.4-4.6 1-6.8.7.4.2 3.4 1 2.8.5-1.3.5-3 1.3-4 .4 1.5.2 3.3.6 4.9.7-1.6.3-3.5.9-5a27.4 27.4 0 0 1 1.1 6.7c.6-2.3.3-4.6.3-7 .2-.6-.5-3.1.2-2.7.2.2 1 2.2.8 1.2a49.4 49.4 0 0 0-.6-4h4.2l-.3 5.5c.6-1.4 1-3 1.7-4.4.4 1.2-.5 3.6-.1 4 0-.7 1.2-2.7.8-.9-.7 2.7-2 5.3-2.7 8 1.1-.7 2-2.3 2.8-3.5.5-.6 1.8-3.8 1.4-1.5 0 .8-.9 2.3-.5 2.6 1-1 1.2-2.6 2.1-3.4 0 1.7-.5 3.4-.7 5.1.5-.6 1.6-2.9 1-.8-.1.8-.9 2.7-.6 3 .3-.2.9-2.3.9-1.4v4.2c.3-2 .3-4 1.1-5.9 1 .6.4 3.3 1 4.5a44 44 0 0 0 3.3 9.2c-1.4 0-2.8-1.6-4.1-2.3-1.6-1.1-3 .8-4.4 1-4 .1-8-.3-12 0-1.5.9-2.1 2.8-3.4 4-.3.7-1.8 2-1.4 2.3.9-.4 1.9-2 2.7-2-.4 1.9-1.6 3.5-2.3 5.2.6-.4 1.7-2.8 2-2-.4 1.6-1.7 3.5-1.9 4.8.6-.4 1.7-2.7 2-2-.5 2.5-1.7 4.8-2.4 7.1.8-.7 1.7-2.8 2.3-2.9l-1.2 4c1-1.2 1.9-2.8 3-3.9-.3 2.2-1 4.5-1.1 6.7l2.9-4.7V89c.2-.7.7-2.6.7-.8.2 1.7.1 3.5.6 5.1.8-1 .8-2.8 1.1-4.2.4-1.2.5-3.3 1.2-4 0 .6-.2 3.5.4 1.4.2-.7.6-3.6 1-1.3.4 1.8.4 3.7 1.1 5.5.5.2 0 2 0 2.9-1-.7-1-2.8-2-3-.3.6-.3 2.5-.5 2.5-.2-.5-.4-1.4-.6-1.6-.8 1.6-1.5 3.2-1.5 5-1-.7-1-3-1.6-4.3-.9-.7-1.6 2.4-2.4 3-.5-1.4 0-3-.4-4.5-1.2 1.8-.2-1.2-.3-1.9-2 1.7-3.3 4-5.4 5.6.1-1.3.8-2.8 1.2-4.2.9-2.3-2 .5-3 .8-2.4 1.5-4.6 3.2-7 4.5 1.4-3 3.3-5.7 4.9-8.5.8-1.6 1.8-3 2.3-4.7a54.4 54.4 0 0 0-2.7-7.7c-4.5 1.8-9.2 3.2-13.8 4.6-1.8.1-3 1.5-4.5 2.4-1.6 1.2-3 2.8-5 3.6-1 .4-2.3.1-1.2-1l1.7-3.5c-3.3.2-6.6.2-9.9.8 1.9 1 3.4 2.7 3.7 4.8-1-.7-1.2-2.8-2.6-3.4-1.3-.7-2.7-2-4.3-1.8 0 1.4 1.4 3 1 4.3-1.6-.9-2.8-2.4-4.3-3.7-.4-.3-.8-1-1.5-1a56.3 56.3 0 0 1-9.3-1.2c-1.1.9-1 2.4-.6 3.6.9 3 2.7 5.4 4 8.2.3 1.5 1.6 2.7 2.5 4 1.8 2.3 3.6 4.7 5.8 6.6 1-.5 2.1-2.8 2-4-.9-.6-2.4-.8-3-1.7 2-1 4-2.1 5.6-3.8.6-.5.2-1 0-1.6-.5-.7-.9-2.9 0-1 1.5 3.2 1.3 7 1.3 10.5 0 2.2 0 4.5-.9 6.5-.4 1.8.8 3.5 1.7 5 1.3 1 1.6 2.7 3.1 3.5 2.2.4 1.5 2.2.5 3.5 0 1.7 2.7 1.8 4 2.4a61.5 61.5 0 0 0 13.4 2.2c1.5.2 3.7-1 2.7-2.6 1.7-.2 2 1.8.3 2.1-1.9.9-.7 3.4-.8 5 .1.6-.1 1.4.7 1.5 1.1.5 2.2 1.2 3.5 1.4 1.6-.5.6-2.3 1-3.6-.3-1.2.3-2.3-.2-3.6.2-1.4-.9-3 0-4.4.5-.5.5-1.8 1.4-1.6 2.8 0 5.6-.1 8.4.3-2.8.4-5.7-.2-8.5.2-1.7.9-.2 2.9-.2 4.3a55 55 0 0 1 0 9.2c1.8 1.8 2-1.3 2-2.6l.1-3.5c1 1.3 2 2.7 2.2 4.4 1.3.7 1.6 2.4 2 3.8.1 1.4 2.4 2.5 2.2.4.8-4 .8-8 .7-12.1-.3-1.9 1.7-.8 1.3.5.1 3.8-.5 7.6-1.2 11.3-.4.6.1 3.3.5 1.5.7-3.6 1.8-7.2 1.8-11l.2-4c1.8-1 4-.8 6-1 .4.9 1.4 2.6.5 3-1.4-.7-3.4-2-4.7-.8-1 1.6.7 3 2 3.7 1.5.8 2.8 2.1 2.1 4-.2 2.8-.7 5.5-1.2 8.3-.3.8.2 2.7.7 1 1-4.2 1.6-8.4 2.2-12.6.2-2 .4-4-.2-6 1.7-.3 1.8 2.4 1.4 3.6-.6 5.3-1.5 10.5-2.6 15.7.6 1.7 2.7-.5 2.4-1.8.8-3.2 1-6.6 1.3-9.9 0-1.8 1.7-3 2-4.8.2-1-2.8-3-.5-3 1.7 1 1.3 3.7 3.6 4 1 .8 2 .4 1.1-.8-.4-.8-2.4-2.3-.2-1.8a4 4 0 0 1 3.6 2.8c.3 1.7.9 3.3 1 5a30.8 30.8 0 0 1-.1 6.4c1.6 0 3-2.3 4-3.5 1.4-1.6 0-3.4-.5-5 1.3.1 3 1.9 4.3 2.8 1.5 1 2.6 2.5 4.1 3.6-.2-1.8-2.1-3-3.3-4.2a134.2 134.2 0 0 0-4.6-3.7c2.7 1.4 5 3.6 7.2 5.5 1.7 0-.6-2-1.2-2.3a62.8 62.8 0 0 0-13-8.7c-2.3-.2-2.4-2.5-2.4-4.3-.2-2.9-.3-5.8-.2-8.6 0-1.8-1-3.2-2.3-4.3-.6-.6-2.7-2.5-1.4-2.7.4 1.7 2.3 2.5 4 1.9 1.5-.2 2.4-1 3.2-2.4l5.7-9c1.3-2 1.1-4.6 1-7-.2-1 .3-1 .3 0 .5 2.7.2 5.7-1.4 8-2.5 3.6-4.5 7.6-7.3 10.9-1.1 2.6-1 5.5-1.2 8.3-.1.8.5-.6.8-.9.7-1.6 2.6-2.9 3.3-4.4-1.7.6 1-2.5 1.6-2 .3.2 1.3 2.1 1 1 0-.4-.4-1.6-.1-1.5.9.8 1.7 1.7 2.7 2.3-.3-1.7-1.1-3.2-1.4-5 .7.2 2 1.3 1-.2-1-2.3 3 .6 2.8-.5 0-.5-1.9-1.5-1-1.5 1.1 0 2.5.2 3.3 0-.6-.8-3.4-.4-2.8-1.3 1.3-.8 2.8-1.4 4.3-1.8l-3.8-1c2-.8 4-1.3 6-2-.4-1-3-2.2-.7-2.5 2-.6.7 2.9 1.1 4 .2 16.4.1 32.9.2 49.3V37Zm64.2 7.8c1.4-.4 1.8.5 1.2 1.5-.4 1.2-.6 2.5-1.3 3.4a11.4 11.4 0 0 1-1.5-4.5c.3-.6 1.1-.3 1.6-.4zm-9 .5c.7.5 2.4 3.1.9 2.8-.4-.7-1.3-2-.9-2.8zm-3.5.4c1.2.7 0 3.4-.8 1.6.3-.5.4-1.3.8-1.6zm2 .2c1.7 1 1.2 3.1-.7 2 .3-.6.2-1.6.8-2zm-.5 2.8c1 .2 1.4.7 0 .9-.9.4-.9-1 0-.9zm-1.3 1.8c1.1 1.8-1.6 2-2.6 1.2.8-.6 1.8-1 2.6-1.2ZM210 53c-1.1 1.1-.7 3.2-1 4.8-.4 1 0 2 .3.5 0-1.9 1.6-3.4.7-5.3zm41.6 1c-3.2 0-6.4.6-9.6.8-3.6.2-7.2.7-10.8.7-.8-.8-1.2.3-2.3.2-.7.2-1.3 1.3-1.5.3-2.7-.4-5.5-.1-8.2-.1-1.9 0-3.9-.2-5.7.5-1.5 1.5 1 3-.2 4.7-1 1.2-.3 2.5.5 3.5-.6 1.3-1.1 3.1.1 4.4 1.5 1-.5 3 1 4.4.5 2 2.6 2.6 4.4 3a58.4 58.4 0 0 0 14.4 1.3c6.5 0 13.1-.8 19.4-3 2.3-.8 4.8-1.5 6.6-3.2 1-1.6-.2-3.5-.6-5-1.4-3.8-2.7-7.6-4.5-11.1-.5-1.3-1.9-1.3-3-1.4zm1.6 2.7c2 .2 0 3.4-.8 1.2-.3-.5.2-1.1.8-1.2zm.2.5c-1.7.5 1 2 0 0zm-22.6 1.3c2.4-.3 4 1.5 5.6 2.8 1.8.4 3.7-.1 5.5-.4a10.4 10.4 0 0 1-5.5 1c-1.4-.9-2.5-2.4-4.2-2.7-3.9-1-8 2.3-8.3 6.2-.2 1.7 1 3.2 1.7 4.6 1.3 2.4 3.6 4.3 6.4 4.4 2 .2 4.5 0 5.7-2 1.3-1.9 0-4.4-1.4-6-1.4-1.6-4.2-2.7-6-1.1-1.8 1.2-.4 4.5 1.6 3.2 0-1.3 1.2-.8.5.2-1 1.8-4.3 0-3.6-1.8.3-1.8 2.1-2.9 3.8-2.7 3.7 0 6.6 3.8 6 7.3-.9 2.8-4.3 4-7 3.5-2.1-.5-4.1-1.3-6.3-1.6-2-.4-4-.6-6-1.1 1.3-2 3.7-3.6 4-6.2a7 7 0 0 1 3.1-6.1 7.7 7.7 0 0 1 4.4-1.5Zm24.4 3.3c2.5.3-.3 3.5-1 1-.2-.5.5-1 1-1zm0 .5c-1.5.4.9 1.7.3.2l-.2-.1zM213 64.7c-.5.5 1 .5 0 0zm10.6 2.9c-.8 1.5-2 2.8-3 4 1.2 1 3.5 1 5.1 1.2 3.3 1-2.8-3.8-1.4-3.9zm33.3.8c1.9.4.2 3.4-.8 1.5-.1-.5.2-1.4.8-1.5zm0 .4c-1.4 1.6 1.4 1.6 0 0zm8.7 8.2c.1 2 .1 4 .5 5.9-1.2-1.1-1.8-3.1-3.4-4-1.8-1.1-4-.3-6 .1a7 7 0 0 0-5.3 5.7c0 1.3-.6 4-2.2 2.7a16.3 16.3 0 0 1 2.9-6.6c1.5-1.7 3.9-1.9 6-2.5 2.4-.7 5-1 7.5-1.3Zm-51.2 1.6c-.3.6.7 3.5.4 1.4 0-.5 0-1-.4-1.4zm51.8.6c.8.8 1.5 2.7 1.3 3.5-.6-1-1-2.3-1.2-3.5zm-16.5.5c-1.7.2-3.6.4-5.2 1.1-1.2 1-1.7 2.6-2.5 4 2 .2 3.4-1.6 5-2.6.9-.8 1.9-1.5 2.7-2.5zm47.9.3c1.5 1.2.9 3.5.9 5.2.1 1.2-.9 3.8-1.8 3.6.6-1 1.7-4-.1-3.6-1.1.7-.5 3-1.6 3.2a9 9 0 0 0-.8-3.2 6.7 6.7 0 0 0-.4 5.3c.7.8-.8 3.1-1 2.3.6-.2.7-3 .2-1.7-.3.7-1 2.4-1.2.6-.5-1.5-1.2-3.3-.5-4.7.6 1.2.3 3 .9 4.1.6-2 .7-4.3 1.6-6.3.6-1.3 1.3-3.3 3.1-3 .8.4 1.7.8 1-.4-.1-1.6-2.2.3-1.8-.2.4-.4.8-1.1 1.5-1.2zm-76.8.8c1.9 0 4 .3 5 2.2 1.7 2.5 3.7 4.9 5.1 7.6-.5 1.6-2.8 1.8-4.3 2-2 .4-4.2.1-5.5-1.6-.5-.5-2.5-2.8-.7-1.6a14.4 14.4 0 0 0 3.3 2.1c-.9-.6-2-1.2-2.3-2.2 1.1.6 2 1.7 3.4 2 1.9.5 4 0 5.7-.7-.6-1.2-1.4-2.3-2.2-3.4-.8.8-2.1 1.4-3.1.6a6.9 6.9 0 0 0-2.2-1.3c1.3.5 2.8-1.5.8-1.6-.7 0-2.5-.4-.7-.4 1.4-.5 1.5-3.2-.5-2.9-2.2-.7-3 1.5-2.4 3.2.3.8.1 2.8-.2 1-.5-1 .2-3.5-.4-3.6-1 1.1-.4 2.7-.4 4.1 0 .8 0 1.3-.2.3-.6-1.8-1-4-2.7-5 0-1.1 2.5-.6 3.5-.8zm6.9.1c-.8.4 1.4 1.7 1.9 2.4.6.5 2.2 2.2 1.4.3-.5-1.9-1-3-3.3-2.7zm31.3.4c2.1.5 2.3 3 1.9 4.7-.3 1.6-2.7 2.4-3.7 1-.6-.3-2.8-.6-.9-.9 1.5 0 3 2.2 4 0 1-1.5 0-3.8-1.5-4.2-1.9 0-1.4 4-3.6 2.6 1.2-.7 1.3-3 3.1-3.1h.7zm37.7.9c-1.8.1-2.9 2.6-1.7 4 .8-.6 1.5-2.6 2.9-1.6.3-1 .2-2.4-1.2-2.4zm-48 1c.1.6-.6 2.4-.3.8-1 1.4-.6 0 0-.7zm10 .3c1.5.2.3 3.3-.5 1.5 0-.4-.3-1.5.5-1.5zm-33.3 0c-.6 1.1-1 4 .9 4.2 1.3.3 2-1.5.8-2-1.2 2.2-.8-2-1.7-2.1zm63.8.7c.6.8.3 3 .8 3.3.5-2.1.5 1 .4 1.7.3 1.4.7 4.2-.1 4.8-.7-2-1-4-1.6-5.9-.8 1.6-.6 3.6-.8 5.3-.2.8 0 3.2-.6 3.2-.4-2-.7-4-1.3-6-.4-1.8.2-3.6.5-5.4.7 0 .5 2.6 1 3.5.6 1.7 1-2.6 1.3-3.6.1-.3.1-.7.4-1zm-41.6 1c-.1.4-.7 2.2.1 1 0-.8.7-1.5.4-.3 0 1-1.5 2-1.1.5.1-.5.2-1 .6-1.3zm19.3 0c-.2 1.5-1.6 2.6-2.6 3.8-1.8 1.6-3.6 3.6-6 4-2.2 0-4-1.4-5.8-2.5-.7-.2-1.2-1.3 0-.6 2.4 1 5.2 2 7.8 1 2-1.2 3.4-3.2 5-5 .8 0-1 2-1.3 2.5-.9 1.1 1.1-.9 1.4-1.3.6-.6.9-1.5 1.5-2zm-34 .1c.6.6 1.2 1.3 1.9 1.6-.5.5-1.6.4-.4 1 1.8 1.2-3.3-1.1-.6-1 .2-.4-1.1-1-1-1.6zm7.6.3c-.5 1.5-1.7 2.7-2.6 4-.4.8-1.6 1.5-.6.3 1.2-1.4 2-3 3.2-4.3zm3.8.5c-.9.8-1.8 1.7-2.8 2.2.8-.9 1.9-1.5 2.8-2.2zm-8.6 2.2c2 .7-1 .3 0 0zm13 .7c.7.3 2.6 2 2.2 2.1-.7-.6-1.6-1.3-2.1-2.1zm-12.7.8c.2.6-3.8.4-1.3 0h1.3zm10.5.6a50.8 50.8 0 0 0 4.4 3c-.5.8-3.5.4-1.3.2 1.8-.5-1.4-1.2-1.8-1.9-.7-.8-1.3-.8-.9.4-.5 1.1 1.2 1.8 1.3 1.8-1.6.3-1.7-1.8-1.8-2.9v-.6zm28.4 3c-.6 1.5-2.4 2.4-3.5 3.6-3 2.4-5.8 5.4-9.5 6.6a24.4 24.4 0 0 1-6.4.7c1.8-.8 4-.8 5.7-1.9 4.8-2.5 9.2-5.7 13.5-9zm18.6 2c-.6 1-3.2 2.3-3.7 2.2l3.7-2.2zm-19.8 1c.6.4 1.5 3.8.4 1.7-.2-.5-.8-1.3-.4-1.8zm2.4 2.5c-.7 1.6-2.4 2.7-3.6 4-2.7 2.3-5.3 5-8.7 6.2-2.3.5-4.8.5-7.1.3-.3-.8 2.6-.6 3.6-.9a13.5 13.5 0 0 0 6.5-2.6 80.7 80.7 0 0 0 9-6.9h.2zm6.2 1c.2 1.3-.5 3.2-.7 4.8-.8 3.8-1.8 7.7-1.8 11.7.4 1.3 3.5.3 3 1.4-1.6.5-3.4.4-5.1.5-2.2.2.3-2.4.4-3.4 2-4.7 2.9-9.8 4.1-14.8l.1-.2zm-62.8 1.1c.1 1.7 1 3.2 1.5 4.7a84 84 0 0 0 5.5 11.3c1.4 1.5.1-1.6-.2-2.2-1-1.4 1.2-1 1.5-1.7a3.6 3.6 0 0 1-3.8-2.9c-.6-.8-.7-2.1.7-1.6.3 0 2.4-.1 1.5-.4-1.2-.5-2.7-.8-3.8-1.8-.6-1.2-2.4-3.8.3-3 1.5 0-1.2-1.2-1.7-1.6l-1.5-.8zm10.1.2c-1 1.1 0 1.5 0 0zm5.7 3.5c.5.7-.6 1.5-.2.1l.1-.1zm.4 1c.3.7-.2 1.7 0 .3v-.2zm-1.4 1.4c.9.7-1.4.5 0 0zm42.6.1c-.8 1.4-2.4 2.2-3.7 3.1-2.6 1.8-5.2 3.7-8.2 4.8-2 .6-4.2-.5-6.1-1.2-.7-.8 2.4.2 3.2 0 3 0 5.6-1.9 8.3-3.1 2-1 4-2.3 6-3.4.1-.2.3-.2.5-.2zm-77 3c.5 1 2.3 2 3.3 2.9 5.2 4 10.2 8.2 15.5 12 5.4 4.2 10.5 8.7 16.4 12.2 1.2.4 2 2.6 3.4 2 1.3-1.5 2-3.6 3.5-5l-2.3 4c-1 1 .5 3.2 1.2 1.2 1.5-2.3 2.6-5 4.7-7 1.3-.3 2.5-1.6 3.7-1.7-.1 1.1-2.1 2.8-1.6 3.4.8 0 2.7-2.3 1.9-.3-1.4 1.8-3.6 2.4-5.4 3.6 2.2-.2 4.3-1 6.4-1.8 1.3-.8 3.9-.5 3.3-2.7-.4-1 2-3.5-.1-2.6-.9 0-2 2.2-2.1 1.7a6 6 0 0 1 1.8-3.8c.6-.6.8-1.4-.3-.8-1.3.6-3 1.1-3.8 2.4-10.7-4.3-21.6-8-32.3-12.3-.9-.7-3.4-.9-3.4-2 2.8.6 5.5 1.5 8.2 2 3.7.9 7.5 1.8 11.2 2.5 1-1-2-1.3-2.7-1.5-10.3-1.9-20-5.7-30.1-8.3zm39.2 1.4c.8.1 2.8 2 1 1-.4-.6-2.2 0-1-1zm-8.6 2.5c-1.5 1.4 1 2.8 2.3 3 1.6.6 3.1 1.6 4.8 1.9 1-.7 2.2-3 0-2a7 7 0 0 1-5.9-1.3c-.4-.5-.3-1.5-1.2-1.6zm3.7 4a4 4 0 0 0 2.2 3.1 48 48 0 0 0 8.5 3.1c1.7.7 3.4-1 4.7.7 1.7-1.3 3.2.3 4.7.8.6-.5 3-2.1.8-1.9a49.7 49.7 0 0 1-18.3-4.5zm34.8 1c.8-.2 3.8.4 2.4 1.5-1.6 0-3.9 0-4.2 2-.8 1.7-2-1.5-1.3-2-.4-1.8 2-1.3 3-1.4zm-5.8 1.4c-1 .4 1 3 .4.8 0-.3-.1-.6-.3-.8zm.6 3c-.9.5.4 2.5.3.8 0-.3 0-.7-.3-.8zm0 2c-.9.6.4 2.7.3.9 0-.2 0-.7-.3-.8zm-44.4.6c-.8.7-2.2 1.2-2.1 2.4.7 1.8 2 3.3 3 4.9a206 206 0 0 0 11.2 15.1c2 2.6 4 5 5.7 7.8.7.9.7 2.8 1.3 3.3 0-1.7-.7-3.3-1.1-4.9l1.4 1.3c.6-.5 1.5-1.7 2.3-1.2.7 1 .7 2 .7 3.1a4.7 4.7 0 0 0-.2-3.7c-.6-1.7-1.6-3.2-2.1-5 1 1.1 1.6 2.7 2.4 4 .2.8 1.6 3.2 1 1.1-1.3-4.1-4-7.6-6-11.4-.5-.7-2.2-3.6-.4-2 2.5 2.4 4.4 5.5 7.1 7.7.2-1.4-.8-3-1.3-4.4-.2-1.9-1.9-2.2-3.3-2.5-1.8-1.5-3.4-3.2-5.5-4.5-.6-.5-3-1.8-1.7 0 1.2 2.3 2.6 4.4 3.6 6.8-1-.5-1.9-2.3-2.9-3.3-3.8-4.6-7.2-9.8-12.3-13-.6-.4-.8-1-.8-1.6zm44.4 2c-.8.5.2 2.5.3.7 0-.2 0-.7-.3-.8zm-45.6 0c1.4 1.7 2.3 3.7 3.5 5.4.4.6 1.7 2.9.5 1.4a68 68 0 0 1-4-6.7Zm-3.6 1.5c-2 .3-3.8 1-5.5 2-1 .4-1.2 2 0 1 2.7 3.2 4.8 6.9 7.4 10.1a102 102 0 0 1 4.4 5c3 3.4 6.6 6.2 9.5 9.6a9.6 9.6 0 0 1 2.2 6.2c.3 3.4-.7 6.9-2.3 9.9-.2.3-1.4 2.7-.5 1.5 2.5-3 3.7-7 3.4-11 0-2.5-.6-5.1-2.3-7-4-4.7-9-8.3-12.7-13.2-2.7-3.7-5.6-7.2-8-11-.1-1.5 2.4-1.8 3.4-1.8-1.2.6-4 1-2.2 2.6.8 1 2.3 2.6 2.6 3.3-.6-.5-1.4-1.3-.6-.2.4.6 1.2.9 1.2 1.5 1.6.8 3.2 2 4.7 3 3.4 3.1 6.4 6.8 9.5 10.3 1.4 1.6 2.8 3.3 3.5 5.3.4 1.7 2 2.2 3.3 1.2 2.2-.4.8 3 1.4 4.1 1.3-.7.2-3.1 0-4.4-1.1-2.6-3.2-4.8-5-7-3.7-4.7-7.7-9-11.4-13.7 0-1.1-.2-2.8-1.6-3.4-.5 1-1.6-1.6-2.2-2-.5-.8-1.1-2-2.2-1.9zm80 0a20.6 20.6 0 0 0-1.3 6.3c-.2 1.2.8 1.6.9.2.4-2.1.5-4.3.4-6.5zm-31 .9c-2.2.7 1.1 1.7 0 0zm-6.7 1.5c-1.2.1-1.6 1.5-2.2 2.3a8.5 8.5 0 0 1 3.4 2.3c.8.3 3.6-1 3.3.8a29 29 0 0 0-7.1 6l-2.7 3.2c.3 3.3.5 6.7 1.2 10 1-1 2.5-1.4 2-3 .3-1.2 2-1.2 1.5-2.7 0-1.7 2.4-.9 1.7-2.5-.3-1.8 2.6-1.8 1.3-3.6 0-1.5 3.1-1.2 1.6-2.8-.6-1.7 2.5-2 1-3.5-.3-1.1.9-1.7.5-.2.4 1.6.5-.4 1-.6.2 1.5-.7 3-1.1 4.5a43.2 43.2 0 0 1-4.7 9c-3.7 6-6.2 12.9-10.4 18.6a44 44 0 0 1-13 11.4 24.6 24.6 0 0 0-9.9 8.3c-.8 1.5-1.8 2.8-2.4 4.4 1.8.4 2-2.6 3-3.7 1.2-1.8 2.4-4 4.3-5.1a6.8 6.8 0 0 0 4.4-1.5c2.9-2.2 5.7-4.4 9-6 1-1.1 1.7-2.6 2.8-3.8 2-2.3 3.5-5 5.8-7 1.5-.9 3.6-.6 4.3-2.6 1.6-2.2 3.2-4.5 4-7.2.1-.9-.7-2.1-1.3-2.4-1.6 3-3.2 6.2-5 9.2-1-.5.8-2.5 1-3.5 1.8-4.3 4-8.4 6.3-12.4 1.4-2.5 2.4-5.2 3.5-7.9.9-.9 1.2 4.1 1.7 1.4.2-1.2 0-3.9 2-2.8 1.5.4 3.7 1.1 2.5 3-.2.9-1 2.6-.7 3 1.2-1.3 1-4 2.7-4.5.6 1.2-.5 2.8-.8 4l-1 2.7c1.4 2.3 2.9 4.4 4.3 6.5.7-2 1.6-3.8 2-5.9 0-1.9-1.5-3.3-2.3-5-.6-.9-1-2.3.5-1.4 1.6.7 3.6.9 4.7 2.2 0 3.2-1 6.4-1.8 9.5a69 69 0 0 1-2.7 7.8c1 0 1.6-2.5 2.1-3.6a61.1 61.1 0 0 0 3.3-13c1.2-1.8 1.8.5 2 1.7 1 3 3 6.2 6.4 6.8 2.5.4 5.4.2 7.2-2a7.6 7.6 0 0 0 2.2-6.4 5.8 5.8 0 0 0-3.7-5 9.5 9.5 0 0 0-8-.2c-1.6.4-3 1.5-4.6 1.7-4.1-.8-8-2.4-11.9-3.6-1.8-.7-3.9-.7-5.7-1.5-.3-.8 3.2-.2 1.3-1a66.6 66.6 0 0 0-8.1-2.3h-.7zm-47.9 1.1c-2.3.4 1.8 3 .8 1-.2-.3-.4-.7-.8-1zm1.9 2.4c-2 .6 1 3.4 1 1.6l-1-1.6Zm40.8.4c-2 .6-4 1.3-6 1.7-1.8.1-2.9 1.4-1.8 3 .5 1.6 2.3 2.4 3.8 2.6 2.8-.2 5.2-2.1 7-4.2.7-1.5-1.2-3.2-2.8-3.1h-.2zm44.2 1.4c-1.5.8.9 3.4.6 1.1 0-.4-.1-1-.6-1.1zm-59.2 1c.8 0 1.4 1.2.4.3l-.3-.2zm-22 0c.7 1.5 2.2 2.9 3.2 4.3 3.9 5 8.8 9.2 13.2 13.8.4.9 1.4 1.4.6 0-1.3-3.7-4.7-6.2-7.1-9.2-2.3-2.5-4.1-5.6-7.3-7-1-.5-1.7-1.3-2.6-1.8Zm-2.1.1c-1.7 1 2.2 3.5 1 1.2-.2-.4-.5-1-1-1.2zm12.5 0c1.6 1.5 2.8 3.4 4.5 4.7a41 41 0 0 0 6.3 4.8c.9 1.5.5 3.5 1 5.1.6 2-1.6-.7-1.9-1.3-2.6-3.3-5.3-6.4-7.8-9.8-.7-1-1.8-2.2-2.1-3.4Zm65.8.9c2 .2 4.7.8 5.4 3 .6 2.1 0 4.7-2 5.8-1.3 1.6-.4-2-1.3-.8 0 1.2-.2 2.2-1.7 1.9a5.9 5.9 0 0 1-4.8-1.8c-.8-.6-1.3-2.3-.2-.8.5.6.5-1.6 1.3-1.7 1.3-1.4 3.3-1.5 5-1 1.5 0 2.4 2 3.1 2.3a4.9 4.9 0 0 0-2-3.4c1.5.3 1.2-1 0-1.3-1.5-1-1 .6-1.2 1.2-1 0-4.3.7-2.8-1-.1-1.8-2.8 0-3.4.8-.6.6-1 4-1 1.6a4.6 4.6 0 0 1 4.3-4.8 9.7 9.7 0 0 1 1.3 0zm-29 1.3c-1.5.3 0 3 .3.8.1-.3.3-.9-.2-.8zm-47.8.3c-1.2.2.8.4 0 0zm.8.5c-1.2 1 2.1 3 1 1l-1-1zm1.6 2.2c-.8 0 0 .4.3.1zm44.4.3c-1.6-.5-1.2 2.6-.1.8.1-.2.5-.7.1-.8zm-15.8 0c.2 1.4.7 2.9 1.1 4.3.5 2.4 1.6-1 1.9-1.9.8-1.3.2-2.4-1.4-2l-1.6-.3zm-28.1.4c-.8 1.4 2.9 2.5 1.1.7-.3-.3-.6-.8-1.1-.7zm80.6 1c.8 1.7-.8 3.6-2 4.8-1.7 1.7-4.4 2.6-6.7 1.7-.7-.7 3.4-.4 1.4-1.9 2.4 0 4.8-1 6-3.1.4-.5.7-1.2 1.3-1.5zm-15.8.4c-.9 2.2-1.2 4.6-2 6.8-1 3.1-2.1 6.2-2.8 9.3 1-.7 1.3-4 3-2.8.5.3 2.7 2.3 1.7.6-1-2-2-4.4-1.3-6.8.4-2.2 1.7-4.2 1.7-6.5 0-.2 0-.6-.3-.6zm9.5.7c-.4.5-1.6 3.4-.1 2.2.2-.7.3-1.6.1-2.2zm-72.2.1c-1.1 1 1.7 2.8 1.3 1.3-.4-.4-.8-1-1.3-1.3zm40.1.3c-1.2.2-1 3-.1 1 0-.2.7-1 .1-1zm37.7.5a14.7 14.7 0 0 1-4.7 3.4c-.6 1.5 2.9-.3 3.4-1.2.5-.7 1.4-1.4 1.3-2.2zm-76 1.4c-1 0-.2.4.2.1zm.5.7c-.8 1 2.6 2.2 1.2.6-.3-.2-.8-.8-1.2-.6zm36 .6c-1.2.2-.6 2.5 0 .8 0-.2.7-.8 0-.8zm-33.7 1.6c-.8 1.4 2.7 2 1 .5-.3-.2-.6-.6-1-.5zm32.2 1.4c-1 0-1.4 2.2-.2.9 0-.2.8-1 .2-1zm33.5 0a82.9 82.9 0 0 1-1.4 12.4 69.7 69.7 0 0 0 3.1-12.1c-.3-.6-1.2-.2-1.7-.3zm-65.8.1c-1 1.3-2.6 2.4-4.4 2.3a31.1 31.1 0 0 1-9.1-1c-1.6-.3-3.7-.8-4.7.8-2 2.3-5 5.3-5.7 7.1a23.8 23.8 0 0 0 7-4.7c1.7-1.3 4-2 6-1.2l8 2.2c.6.3 1.6.4 1 1.2-.4.8-1.3 2.9.1 1.4l1.7-1.5c.8.1 1.7.6 2.5.4.8-.6 1-1.6 1.6-2.3l-2.5 1.7c-.7-.9-1.6-1.6-2-2.7 1.3.3 3.1-3 1.3-3.4-.3 0-.5-.2-.8-.3zm2.6.5c-1.8.6 2 2.3.7.5l-.7-.5zm37.8 1.3c-1.5 1.1-1.5 3.4-2.5 4.9-2.2 4.1-5.5 7.7-7 12.2-.7 1.7-1.2 3.5-2.4 5-1.3-.4-2.5-1.2-4-1.1-.2.1-2.3 1.1-1.4 1.2 1.5.2 3 .5 4.3 1.4.3 1.3-1.4 2.7-1.2 4 1.8-.4 2.3-2.8 3.3-4.2 1.5-2.8 2.5-5.7 3.8-8.6 2.2-4.6 5.7-8.7 7-13.7.1-.3.2-.7 0-1zm-35.9.6c-1.2 1 2.2 2.2.8.6a1.9 1.9 0 0 0-.8-.6Zm26 .4c-1.3.2-1 3.4-.2 1.2 0-.3.5-.8.2-1.2zm11.4.9c-1.2 1-1.6 2.8-2.4 4.2l-4 7.7a24.3 24.3 0 0 0-3 8.4c-.4 2 2.2.6 1.9-.8 0-1 .8-3.6 1.4-1.4 0 1.8 2 2.2 2.8.7.5-.5 1.2-.8.7-1.5-.7-2-1.7-4.1-1.7-6.3.5-2.6 2.2-4.7 3.2-7 .4-1.3 1.5-2.7 1.1-4zm-35.5.7c-1.2 1 2 2.4.5.6a1 1 0 0 0-.5-.6zm.4 2c-.7.6-.2 2.2-1.7 1.9-1.6.6-3.5 1.6-3.8 3.5-.2.5-.7 3 0 1.2.5-1.6 1.3-3.5 3.2-3.8 1-.5 1.8.3 2.2.5.3-.9 1.4-2.8.1-3.3zm21.8.2c-1.2.1-1.3 3.7-.4 1.5.1-.4 1.2-1.5.4-1.5zm-20.5.9c-1 .7.6 3.1.4.9 0-.3 0-.8-.4-.9zm18.7 1c-2.2.8-3.8 2.5-5.6 4a32.7 32.7 0 0 0-6.4 7c.2 1.6 3 1.4 4 .3.6-1.1 2.2-.7 2.7-1.5-1.4-2.2 2.4-2.2 2-4.1.1-1.6 3-1.2 1.9-3-.2-1.4 1.3-1.8 1.9-2.3 0-.2-.2-.5-.5-.5zm.2 1.1c-1.7-.3-1.4 3.6-.3 1.7.1-.5 1-1.5.3-1.7zm-18.5 1c-.8.5.2 2.6.3.8 0-.2 0-.7-.3-.8zm.1 2.3c-1.4 0-.3 3 0 .9v-1zm16.6.1c-1.4 0-1.6 2.1-1.3 2.8.6-.9 1.5-1.8 1.6-2.8zm-17.9 1.5c-1.8 1-3 3-5 4-2.7.6-5.6 1-8.2 1.9 1.4.1 3.3-.8 4.8-.2 1 1 1.5.8 2.3-.2 2.3-1.3 1.3 2 1.3 3.3 0 .7 0 4.1.3 1.8.2-2.6-.2-5.5 1.7-7.6.8-1.1 2.2-1.8 2.8-3zm-6.7.2c-.6.6-1 3-.3 1.1.2-.3.4-.7.3-1zm48.9.2c-1.2 1.2-1.7 3-2.3 4.5-.5 1.5-1.5 3.1-1 4.8 0 .7.8 2.6.6.8-.6-3.4 1.4-6.4 2.9-9.3 0-.2.3-.8-.2-.8zm-41.9.4c-.8.1-1.2 1.6-.2.5 0 0 .4-.3.2-.5zm15.6.7c-1.4-.5-2.2 3-.6 1.5.2-.4 1.6-1.4.6-1.5zm-17.4.9c-1.4.3-.5 2 .3.7.2-.3.2-.9-.3-.7zm-1.4 1.8c-1.5 1.1 1.2.6 0 0zm16.3.5c-1.2-.3-2 2.6-.5 1.1 0-.2 1.3-1.1.5-1.1zm-16.9 1c-1.2.6.5 2.3.6.6 0-.3-.3-.6-.6-.5zm13.7 2c-1.3-.5-1.7 2.6-.4.9.1-.2 1-.8.4-.9zm-14 .5c-.5.7.9 2.2.5.6 0-.2-.2-.7-.5-.6zm-31.9 1.5c-1.9.3-1.4 3.1-1.5 4.6a50 50 0 0 0 2.3 11.6c0 .8.8.5 1.4.5h17.2a13.5 13.5 0 0 0 2.9-4c-.9-.8-2.3-1.7-1.5-3 1.2-.8 1-2-.4-2.4-.6-.4-.5.8-.8 1.2-1 2.3-1.5 4.9-2.4 7.2-.9 1.2.4-1.6.4-2 .7-2.3 1.2-4.7 2.4-6.8 1 0 3 2.3 3.2.3-2.3-2-5.6-2-8.2-3.5-.4-.3-2.3-.3-1-.8 2-1.2-1.6 0-2.4-.1-2.4.2-4.9 0-7-1.1-1.5-.6-3-1.4-4.6-1.7zm43.3 0c-1-.3-2.4 2.4-.7 1.2.3-.4 1.5-.7.7-1.2zm-43.8.4c1.5.3.7 1 0 0zm1.5.5c1.7.5.6 3 .8 4.5l-.3 3.4c0-2.3.3-4.6.1-7 .1-.3-1.3-.8-.6-.9zm49 .3c.4.7 2.1 2.5 2.3 2.1-.5-.9-1.1-2-2.3-2.1zm-17.8.2c-1.4 1 .9 1.8.3.2.2-.1-.4-.2-.3-.2zm7.8.7c-1 0-1.8 1.8-.3.9.3-.1 1.4-1 .3-.9zm-8.9 1.2c-.9.8-3 2.2-2.6 3.2.9-.8 2.6-2 2.6-3.2zm-18 .2c1.4 1 3 2 4.2 3.3.7 1.6.2 3.5 0 5.2-.5.7 0-2 0-2.7.4-1.8-.7-3.3-2.3-4-1.4-1.5-3.2-1.4-5-1.1h-4.7c-.7.7-1.4 1.5-2.3 2 .7-1 1.6-1.7 2.4-2.5 2.6.3 5.1.2 7.6-.2zm24.1.4c-1-.4-2.9 2-.9 1 .2-.2 1.5-.7 1-1zm-8.9.6c-2 .7-3.2 2.7-5.1 3.6-1.7.6-2.3 2.6-.4 3.3 1.2 1.5 2.6.8 3.6-.4 1.2-1.3 2.7-2.2 4-3.4 1.1-.5 1-3.4-.4-1.8-.6.3-.5 2-1.3 1.3-.9-.4-2.6-1.3-.8-1.8.3-.1 1.4-.8.4-.8zm4.7 1c-1.4-.1-1.1 1.2 0 .7.4-.1.6-.8 0-.7zm-35 .5c-.4 3-1.8 5.7-2 8.7-.2 1-.8 2.4 1 2 1.2 0 4.4.7 3.1-1.7-.8-2.7-1.2-5.4-1.7-8.2-.1-.2 0-.6-.3-.8zm33.9.6-4.7 5-2.2 2.5-2.4-1.1a23 23 0 0 1-3 3.7h6.5c1.6-3 3.3-6 5.7-8.4.6-.6 2-1.9 0-1.7zm-32 1.7c.5.5-.3.9 0 0zm24.2.3c.3.5-.9 1.3.2.5 2.1-.7 1.8 2.1 0 2-2.1-.1-2-1.8-.2-2.5zm-22.3.5c.6.5-.4 1.1 0 0zm19 1.4c.5 1.4 2.3 2.3 3.6 2.9 1.1.1 1.6-1.3 2.4-2 .7-.9-.4.2-.7.4-1.3 1.5-3.2.3-4.3-.7-.3-.2-.6-.6-1-.6zm20.8 3.2c-1.5 0-2 1.8-2.8 2.9 0 .4 1.3 0 1.8.1 1.7.3 2.1-2.4.5-2 1.2-.4 2.2.6 1 1.5.5.9 3 .3 4.2.5h8.9c-3-1.5-6.4-1.9-9.7-2.5l-3.9-.5zm4.7 2c1.5.2-1.4.2 0 0zm-1.3.3c1.6.1-2.9.8-.6 0h.3z" paint-order="stroke markers fill"/><path fill="url(#m)" d="M44.2 196c-.7-.5-.6-1.2.2-2.5a33.7 33.7 0 0 0 5-10.5.9.9 0 0 1 .3-.5c.2-.3.7-3.1.7-4.4 0-1.1.2-1.3 1.6-1.3 1 0 1.4.4 1.2 1.2-.2.8.7 4.5 2.2 9.4.6 1.6.8 2 1.2 2.2.7.2.9.8.5 1.4-.2.4-.2.6.2 1.3.3.4.5 1 .5 1.1 0 .7-.5 1.5-1 1.6-.4.1-.9-.3-1.6-1.9-.3-.7-.7-1.3-.9-1.4-.4-.1-3.9.6-5.6 1.1-1.3.5-2 1-2.4 2.1a2.5 2.5 0 0 1-1 1.1c-.6.3-.5.4-1.1 0Zm7.5-6c1.9-.2 2-.5 1-2.8-.6-1.6-.8-1.8-1.3-1.5a32 32 0 0 0-2.3 4.5c0 .3.2.3.8.2l1.8-.4zm9.7 6c-2.9-.8-3.2-3.7-1-8.4a41.6 41.6 0 0 1 7.4-10c1.6-1.6 2.2-1.9 2.7-1.4.8.7 1.3 5.7.7 7-.6 1.3-1.1 1.3-1.9.1-.3-.6-.7-.9-1-.9-.3 0-1.3.9-2.8 2.3-2.6 2.6-3.7 4.5-3.9 6.6 0 1 0 1.2.7 1.9s.7.7 2.4.6c2-.1 3.3-.7 6.2-2.6A10.7 10.7 0 0 1 73 190c.8 0 1 .3 1 1 0 1-.4 1.3-3 2.6a30.4 30.4 0 0 1-7 2.4c-1.4.3-1.4.3-2.6 0zm40 0c-.5-.3-.5-.4-.2-3.1.5-4.3.5-6 .3-7.8-.5-3-.7-3.8-1.3-4a1.9 1.9 0 0 1-.8-.8c-.5-1 .3-1.5 5.3-3.3a23.1 23.1 0 0 1 5.4-1c1.5 0 2.9.4 3.8 1.4 1.8 1.7 1.8 4 0 7.6-2 4.3-6.1 8.5-10.6 10.7-1.3.7-1.4.7-2 .3zm3.9-3c3.3-2.2 6.9-7.4 6.9-10 0-1.2-.7-2.3-1.7-2.8-1.3-.7-6.1-.2-6.6.6-.1.3 0 1.3.1 3 .4 2.5.4 3 0 6.1l-.3 3.5c0 .4.6.2 1.6-.4zm16.2 3c-3.8-1-5.3-3.8-4.3-7.8.7-2.7 2.8-6 5.2-8.4a25 25 0 0 1 5.4-3.7c.6-.2.8-.2 1.4.1 1.8 1 2.9 4.5 1.4 5-.2.1-.7 0-1.1-.3-1-.5-1.7-.4-3 .3a25 25 0 0 0-5.3 5.4c-.5 1.1-.2 1.3 1.6.8a27 27 0 0 1 5.5-.9c1.4 0 1.7.1 2 .5.5.8 0 1.2-2 1.5a35.8 35.8 0 0 0-7.3 1.7c-.8.4-1 .6-1 1.1 0 .9 1.2 2 2.5 2.3 1.2.3 4.8.1 6.5-.4 2.6-.7 3.3-.8 3.7-.4.2.2.3.4.2.6-.4.6-4.5 2-7.5 2.6-2.2.3-2.4.3-4 0zm15.9 0c-1.7-.4-2.3-.8-2.6-1.7-.4-1.6 0-2 1.8-1.1a7.1 7.1 0 0 0 5.5.1c2.8-1.1 4.6-3 4.6-4.6 0-1-1.2-2.1-2.6-2.5-1.5-.4-5 0-6.7 1-1.3.6-2.1.4-2.8-.5-.8-1.3-.6-4.6.5-6.7a9.6 9.6 0 0 1 3-2.8c1-.5 4-1.3 5-1.3 1.7 0 3.6 1.5 4 3 0 1-.7 1.6-2 1.8-1 .2-1 .1-1.6-.6l-.6-.7-1.3.3a6.3 6.3 0 0 0-4 2.2c-.8 1-1 2-.4 2l1.4-.3a12 12 0 0 1 4-.4c2.8 0 3.1 0 4.2.6.6.3 1.3.9 1.6 1.3.5.7.5 1 .5 2.3-.2 2.6-2.1 5.2-5.1 7.1a9.1 9.1 0 0 1-3.8 1.6c-1.3.2-1.4.2-2.6 0zm13.5-.2c-.4-.4-.5-.6-.3-2a43 43 0 0 0-.5-14c-.4-1.5-.2-1.8.7-2.1 1-.3 2 0 2.4.9l.4 4.4c0 2.9.2 3.8.4 3.8s1-.5 1.8-1.4a32.2 32.2 0 0 0 5.5-8.7c.5-1 .9-1 2-.3 1 .8 1.3 1.4.9 2.3a51.5 51.5 0 0 1-4.9 6.7l-1.7 2 .4.6c.2.4 1.2 1.5 2.2 2.5 2.5 2.7 3.2 4.4 1.8 4.4-.4 0-1.2-.6-2.7-2.2-2.4-2.4-3.7-3.3-4.6-3-.8.1-1.2.9-1.8 3.4-.7 3-1.1 3.6-2 2.7zm-112.7 0-.2-6.6c0-6.2-.2-7.6-1-8.3-.2-.3-.4-.3-1.7.1l-2.1.5c-.8 0-1.6-1-1.6-1.9 0-1.3.1-1.4 4.7-2.4a72.2 72.2 0 0 1 8.6-1.3c1 0 2 1 2 2.3 0 1.3-.4 1.5-1.8 1.5s-3.7.4-4 .7c-.2.2-.3 1.2-.3 3.5a39 39 0 0 1-.3 5.3l-.4 3.8c-.2 2.4-.5 3-1.2 3-.3 0-.6 0-.7-.2zm38 0c-.3-.3-.3-1 0-3a27 27 0 0 0-.9-13.2c-.4-1.2-.3-1.6.8-2 1-.2 2.1.2 2.5 1.2.3.8.7 7.5.4 7.7-.3.4-.2 1.3.2 1.4.2.1 1 0 1.6-.2a34.5 34.5 0 0 1 2.7-.6c2.4-.4 2.5-.5 2.5-1.7a27.9 27.9 0 0 0-1.1-6.5c-.7-2-.6-2.3.3-2.7 1.9-.7 2.8 0 3 2.8.5 4 .5 5.3.3 7.5a863.5 863.5 0 0 0-.5 4.8c-.3 3.3-1 4.4-2.2 3.2-.4-.4-.5-.6-.3-3l-.1-2.7c-.3-.2-3.5.6-5.2 1.2-1.6.5-1.7.8-2 3a8.9 8.9 0 0 1-.6 2.5c-.4.6-1 .7-1.4.2zm17 0c-.2-.3-.3-.9-.2-2l.3-5c.1-3.7-.2-6.5-1-9.2-.5-1.6-.5-2 .5-2.3 1-.4 2.3 0 2.6.8.3 1 .7 3.6.7 5.7a71 71 0 0 1-1.5 11.8c-.4.5-1 .6-1.4.1z"/></svg>