<svg xmlns="http://www.w3.org/2000/svg" xmlns:xlink="http://www.w3.org/1999/xlink" width="324" height="234"><defs><linearGradient id="a" x1="198.1" x2="942.23" y1="1683.07" y2="394.26" gradientTransform="matrix(1 0 0 -1 0 2075.33)" gradientUnits="userSpaceOnUse"><stop offset="0" stop-color="#5a62c3"/><stop offset=".5" stop-color="#4d55bd"/><stop offset="1" stop-color="#3940ab"/></linearGradient><linearGradient xlink:href="#a" id="b" x1="198.1" x2="942.23" y1="1683.07" y2="394.26" gradientTransform="matrix(.072 0 0 -.072 81.76 191.78)" gradientUnits="userSpaceOnUse"/></defs><path fill="#f7f7f7" d="M0 0h324v234H0z"/><path fill="#5059c9" d="M193.7 98.34h41.45a7.1 7.1 0 0 1 7.09 7.1v37.75a26.06 26.06 0 0 1-26.06 26.06h-.13A26.06 26.06 0 0 1 190 143.19v-41.14a3.7 3.7 0 0 1 3.7-3.71z"/><circle cx="221.71" cy="74.08" r="16.79" fill="#5059c9"/><circle cx="169.46" cy="66.62" r="24.26" fill="#7b83eb"/><path fill="#7b83eb" d="M201.8 98.34h-68.4a7.02 7.02 0 0 0-6.84 7.18v43.06a42.1 42.1 0 0 0 41.05 43.06 42.1 42.1 0 0 0 41.05-43.06v-43.06a7.02 7.02 0 0 0-6.84-7.18z"/><path d="M171.33 98.34v60.35a6.87 6.87 0 0 1-6.83 6.83h-34.67a45.45 45.45 0 0 1-3.28-16.94V105.5a7 7 0 0 1 6.83-7.17z" opacity=".1"/><path d="M167.6 98.34v64.08a6.87 6.87 0 0 1-6.83 6.83h-29.19a48.4 48.4 0 0 1-1.75-3.73 45.45 45.45 0 0 1-3.28-16.94V105.5a7 7 0 0 1 6.83-7.17z" opacity=".2"/><path d="M167.6 98.34v56.61a6.88 6.88 0 0 1-6.83 6.83h-32.25a45.45 45.45 0 0 1-1.97-13.2V105.5a7 7 0 0 1 6.83-7.17z" opacity=".2"/><path d="M163.87 98.34v56.61a6.88 6.88 0 0 1-6.83 6.83h-28.52a45.45 45.45 0 0 1-1.97-13.2V105.5a7 7 0 0 1 6.83-7.17z" opacity=".2"/><path d="M171.33 79.05V90.8c-.63.04-1.23.08-1.87.08-.63 0-1.23-.04-1.86-.08a19.6 19.6 0 0 1-3.73-.6 24.26 24.26 0 0 1-18-17.98h18.63a6.86 6.86 0 0 1 6.83 6.83z" opacity=".1"/><path d="M167.6 82.78v8.02a19.6 19.6 0 0 1-3.73-.6 24.26 24.26 0 0 1-16.8-14.25h13.7a6.86 6.86 0 0 1 6.83 6.83z" opacity=".2"/><path d="M167.6 82.78v8.02a19.6 19.6 0 0 1-3.73-.6 24.26 24.26 0 0 1-16.8-14.25h13.7a6.86 6.86 0 0 1 6.83 6.83z" opacity=".2"/><path d="M163.87 82.78v7.42a24.26 24.26 0 0 1-16.8-14.25h9.97a6.86 6.86 0 0 1 6.83 6.83z" opacity=".2"/><path fill="url(#b)" d="M88.6 75.95h68.43a6.84 6.84 0 0 1 6.84 6.84v68.42a6.84 6.84 0 0 1-6.84 6.84H88.6a6.84 6.84 0 0 1-6.84-6.84V82.8a6.84 6.84 0 0 1 6.84-6.84z"/><path fill="#fff" d="M140.82 101.99h-13.68v37.25h-8.71v-37.25H104.8v-7.23h36z"/></svg>