<svg xmlns="http://www.w3.org/2000/svg" width="324" height="234" viewBox="0 0 324 234"><defs><linearGradient id="a" x1=".52" x2=".52" y1=".99" y2=".54" gradientTransform="matrix(151.24 0 0 68.17 87.83 125.57)" gradientUnits="userSpaceOnUse"><stop offset="0" stop-opacity=".05"/><stop offset="1" stop-opacity="0"/></linearGradient></defs><path fill="#225277" d="M0 0h324v234H0Z"/><path fill="url(#a)" d="M87.83 125.57v6c0 34.45 20.15 62.18 61.87 62.18h25c54.61 0 64.37-40.74 64.37-62.18v-6c0 21.44-9.76 62.17-64.36 62.17H149.7c-41.72 0-61.87-27.73-61.87-62.17Zm0 0"/><path fill="#0d88e6" d="M147.78 41.1h30.65c50.19 0 60.64 40.47 60.64 62.18v25.63c0 21.43-9.76 62.16-64.36 62.16H149.7c-41.72 0-61.87-27.72-61.87-62.16v-25.63c0-34.44 19.74-62.17 59.95-62.17z"/><path fill="#fefefe" d="M163.45 66.65a49.49 49.49 0 0 0-49.6 49.44 49.49 49.49 0 0 0 49.6 49.45 49.49 49.49 0 0 0 49.6-49.45 49.49 49.49 0 0 0-49.6-49.44zM152 100.88v7.6h22.9v-7.6l13.62 7.6 13.08 7.61-13.08 7.6-13.63 7.62v-7.61H152v7.6l-13.63-7.6-13.08-7.6 13.08-7.62z"/></svg>