<svg xmlns="http://www.w3.org/2000/svg" xmlns:xlink="http://www.w3.org/1999/xlink" width="324" height="234"><defs><linearGradient id="a" x1="198.1" x2="942.23" y1="1683.07" y2="394.26" gradientTransform="matrix(1 0 0 -1 0 2075.33)" gradientUnits="userSpaceOnUse"><stop offset="0" stop-color="#5a62c3"/><stop offset=".5" stop-color="#4d55bd"/><stop offset="1" stop-color="#3940ab"/></linearGradient><linearGradient xlink:href="#a" id="b" x1="198.1" x2="942.23" y1="1683.07" y2="394.26" gradientTransform="matrix(.072 0 0 -.072 63.38 191.78)" gradientUnits="userSpaceOnUse"/></defs><path fill="#f7f7f7" d="M0 0h324v234H0z"/><path d="M171.8 65.3v7.43A24.3 24.3 0 0 1 155 58.48h9.95a6.86 6.86 0 0 1 6.83 6.83" opacity=".2"/><path fill="url(#b)" d="M70.22 75.95h68.43a6.84 6.84 0 0 1 6.84 6.84v68.42a6.84 6.84 0 0 1-6.84 6.84H70.22a6.84 6.84 0 0 1-6.84-6.84V82.8a6.84 6.84 0 0 1 6.84-6.84z" style="fill:url(#b)" transform="translate(26.3 -17.47)"/><path fill="#fff" d="M148.73 84.52h-13.68v37.25h-8.7V84.52H112.7v-7.23h36z"/><path fill="#444" d="M169.17 129.95c0 .28-.3.28-.3.28h-.28c-.3 0-.3-.28-.59-.56 0 0-.3-.27-.3-.55s0-.28.3-.28l.6.28c.28.28.57.55.57.83m-5.26-2.76c0-1.4-.59-2.21-1.46-2.21 0 0 0 .27-.3.27v.55h.88c0 .56.3.83.3 1.39zm10.23-1.4c.6 0 .88.57 1.17 1.4h.58c-.29-.28-.29-.56-.29-.83 0-.28 0-.56-.29-.83-.3-.28-.58-.55-.88-.55 0 0-.29.27-.58.27 0 .28.3.28.3.55m-8.78 4.43c-.3 0-.3 0-.3-.28s0-.55.3-.83a1.28 1.21 0 0 0 .88-.28c.3 0 .3.28.3.28 0 .28-.3.55-.89 1.1zm-3.22-.28c-1.17-.55-1.46-1.38-1.46-2.76 0-.83 0-1.4.6-1.94a1.6 1.6 0 0 1 1.45-.83c.58 0 .88.28 1.46.83.3.83.6 1.66.6 2.49v.55h.28v-.27c.3 0 .3-.56.3-1.66 0-.83 0-1.66-.59-2.5-.59-.82-1.17-1.37-2.34-1.37a2.2 2.08 0 0 0-2.05 1.38 6 6 0 0 0-.7 3.32c0 1.1.4 2.2 1.58 3.3.3-.26.58-.26.87-.54m36.54 38.96c.3 0 .3-.11.3-.36 0-.6-.3-1.32-1.18-2.13-.87-.83-2.33-1.35-4.09-1.57-.29-.03-.58-.03-.58-.03-.3-.05-.3-.05-.59-.05a16.28 15.4 0 0 1-1.17-.14 23.25 21.98 0 0 0 1.17-6.82c0-2.77-.58-4.7-1.75-6.36s-2.34-2.5-3.8-2.76c-.3.27-.3.27-.3.55a7.2 7.2 0 0 1 3.8 3.3 12.6 12.6 0 0 1 1.18 5.54c0 1.55-.3 3.84-1.47 6.77a6.5 6.5 0 0 0-3.2 3.07c0 .25 0 .39.28.39 0 0 .3-.25.6-.72.57-.47.86-.94 1.45-1.41a4.5 4.5 0 0 1 2.34-.72c1.46 0 2.92.2 3.8.58 1.17.36 1.75.75 2.04 1.2l.88 1.15c0 .36.3.53.3.53zm-26.89-40.07c-.3-.27-.3-.82-.3-1.38 0-1.1 0-1.66.6-2.48q.87-.84 1.75-.83c.88 0 1.46.55 2.04 1.1.3.83.6 1.38.6 2.2q0 2.08-1.76 2.5s.3.28.58.28c.58 0 .88.27 1.46.55.3-1.66.6-2.76.6-4.15 0-1.65-.3-2.76-.89-3.6a4 4 0 0 0-2.92-1.1 5 5 0 0 0-2.64.84c-.58.82-.87 1.38-.87 2.2 0 1.39.3 2.5.87 3.6.3 0 .6.27.88.27m3.51 4.43c-3.8 2.48-6.72 3.59-9.06 3.59-2.05 0-4.1-.83-5.85-2.21.3.55.58 1.1.88 1.38l1.75 1.66a6 6 0 0 0 4.1 1.66c2.04 0 4.38-1.1 7.3-3.04l2.63-1.66c.6-.55 1.17-1.1 1.17-1.94 0-.27 0-.55-.29-.55-.3-.55-1.75-1.38-4.68-2.21-2.63-1.1-4.67-1.66-5.84-1.66q-1.32 0-4.39 1.66c-1.75 1.1-2.92 2.2-2.92 3.32 0 0 .3.27.58.83 1.76 1.38 3.51 2.2 5.26 2.2 2.34 0 5.27-1.1 9.07-3.86v.55c.3 0 .3.28.3.28m6.71 55.8a6.1 6.1 0 0 0 5.56 3.13q.87 0 1.75-.25a4 4 0 0 0 1.46-.52l.88-.6c.58-.2.58-.34.88-.48l4.97-4.06a20 20 0 0 1 3.8-2.32c1.17-.66 2.33-1.1 2.92-1.36a5 5 0 0 0 2.05-1c.3-.4.58-.93.58-1.6 0-.8-.58-1.4-1.17-1.84a6 6 0 0 0-1.75-.94 7 7 0 0 1-2.05-1.4 7.87 7.44 0 0 1-1.46-3l-.3-1.6c-.29-.74-.29-1.3-.58-1.6 0-.1 0-.11-.3-.11-.28 0-.87.24-1.16.7q-.87.73-1.75 1.56c-.3.55-1.17 1.05-1.76 1.52-.88.47-1.75.72-2.34.72-2.34 0-3.5-.6-4.38-1.8a10 10 0 0 1-1.17-3.07c-.59-.46-.88-.71-1.46-.71-1.46 0-2.05 1.43-2.05 4.33v8.6c0 .25-.3.8-.3 1.66-.28.85-.28 1.83-.28 2.93l-.59 3.06zm-42.38-1.46q4.07.57 9.38 2.4 5.3 1.84 6.5 1.86a6.5 6.5 0 0 0 5.13-2.51c.3-.54.3-1.17.3-1.9q0-3.9-5-9.91l-2-2.52q-.59-.8-1.54-2.4a24.78 23.42 0 0 0-1.6-2.5q-.6-.95-1.79-1.9a6 5.67 0 0 0-2.6-1.27q-1.86.34-2.49 1.14-.6.79-.7 1.7-.12.88-.56 1.17-.44.24-1.46.44l-.79.03h-.78q-2.32 0-3.16.44a4.3 4.06 0 0 0-1.1 2.68q0 .66.34 2.24.35 1.55.35 2.43a6 6 0 0 1-1.08 3.4q-1.1 1.76-1.1 2.7.43 1.6 5.74 2.26zm9.73-25.12c0-1.91.53-4.01 1.6-6.5a18 18 0 0 1 3.13-5.25c-.05-.27-.2-.27-.43-.27l-.3-.28c-.84.83-1.87 2.76-3.1 5.53-1.22 2.48-1.87 4.78-1.87 6.46q.02 1.87.91 3.26.97 1.39 4.65 3.93l3.1 1.9c3.3 2.7 5.05 4.59 5.05 5.7 0 .58-.29 1.16-1.17 1.8-.58.66-1.37.99-2.04.99q-.1-.01-.1.19 0 .04.91 1.66c1.23 1.57 3.86 2.35 7.37 2.35 6.43 0 11.4-2.5 15.2-7.47 0-1.38 0-2.23-.3-2.6v-1.02q0-2.7.88-4.03c.6-.88 1.17-1.3 2.05-1.3a3 3 0 0 1 1.75.6c.3-2.12.3-3.97.3-5.63 0-2.51 0-4.6-.59-6.52a15.4 14.57 0 0 0-1.46-4.15l-1.75-2.48c-.59-.83-.88-1.66-1.47-2.5-.29-1.1-.58-1.92-.58-3.31-.88-1.38-1.46-2.76-2.34-4.14a53 53 0 0 0-1.75-3.87l-2.63 1.93c-2.93 1.94-5.27 2.77-7.3 2.77-1.77 0-3.23-.28-4.1-1.38l-1.76-1.4c0 .84-.3 1.95-.88 3.05l-1.84 3.32c-.82 1.93-1.26 3.04-1.34 3.87-.12.55-.2 1.1-.27 1.1l-2.2 4.15c-2.36 4.15-3.56 7.98-3.56 11.16q0 .97.18 1.96a4 4 0 0 1-1.96-3.6zm20.93 26.14q-5.7 0-8.77 1.45v-.1a6.7 6.7 0 0 1-5.38 2.53q-2.15 0-6.72-1.58-4.6-1.5-8.16-2.26a18.16 17.17 0 0 0-1.6-.28 59.93 56.65 0 0 1-2.25-.38 16.92 16 0 0 1-2.08-.57 5.18 4.9 0 0 1-1.75-.85q-.6-.5-.6-1.18 0-.65.3-1.41.27-.46.6-.9.3-.44.5-.84.23-.37.4-.78.2-.36.3-.8.1-.42.1-.83c0-.28-.1-1.1-.35-2.57a23 23 0 0 1-.35-2.73q0-1.84.94-2.88.95-1.04 1.9-1.05h3.36q.38 0 1.3-.47.3-.65.5-1.13l.25-.7.17-.46a4.24 4.01 0 0 1 .47-.64 1.77 1.67 0 0 1-.35-1.08c0-.3 0-.58.06-.74q0-1.5 1.55-4.26l1.02-1.74c.85-1.5 1.5-2.6 1.96-3.7q.74-1.66 1.6-4.98a13.5 13.5 0 0 1 3.34-5.8l2.2-2.5a20 20 0 0 0 3.06-4.13c.56-1.1.85-2.5.85-3.6q0-.82-.47-4.97a86.76 82.01 0 0 1-.44-8.01c0-1.94.18-3.32.56-4.7a10 10 0 0 1 2.04-3.87 8 8 0 0 1 3.8-2.76q2.64-.84 6.14-.83c.88 0 1.76 0 2.64.27q1.3 0 3.5.83c1.17.55 2.34 1.1 3.22 1.94 1.17.83 2.05 2.2 2.92 3.59a25 25 0 0 1 1.46 5.53c.3 1.38.3 2.76.6 4.7 0 1.65.3 2.76.3 3.59.27.83.27 1.93.57 3.3.3 1.1.58 2.22 1.17 3.05.58 1.1 1.16 2.2 2.04 3.32.88 1.38 2.05 2.76 3.22 4.42a28 28 0 0 1 5.84 8.84 22 22 0 0 1 2.34 10.2 19.86 18.78 0 0 1-.87 5.55c.58 0 .87.22 1.17.6q.44.59.87 2.52l.3 2.05c.3.6.58 1.19 1.46 1.68.58.5 1.17.92 2.04 1.25.6.27 1.47.66 2.05 1.16q.87.82.88 1.74 0 1.4-.88 2.12a4.59 4.33 0 0 1-2.05 1.2q-.87.42-3.5 1.6a32 32 0 0 0-4.39 2.98l-2.92 2.36a16.25 15.36 0 0 1-3.22 2.32c-.88.5-2.05.74-3.22.74l-2.04-.22c-2.34-.58-3.8-1.68-4.68-3.37-4.68-.54-8.48-.8-10.82-.8z" style="fill:#454db8;fill-opacity:1;stroke-width:2.78665" transform="translate(26.3 -17.47)"/></svg>