<svg xmlns="http://www.w3.org/2000/svg" width="324" height="234" viewBox="0 0 324 234"><defs><linearGradient id="a" x1="135" x2="160" y1="120" y2="160" gradientTransform="matrix(1.22832 0 0 1.18148 19.08 -33.36)" gradientUnits="userSpaceOnUse"><stop offset="0" stop-color="#eff7fc"/><stop offset="1" stop-color="#fff"/></linearGradient></defs><path fill="#35aee1" d="M0 0h324v234H0z"/><path fill="none" stroke="#fff" stroke-width="1.84" d="M-1.7-1.95h327.9V235.1H-1.7Zm0 0"/><path fill="#c7d9e8" d="M139.46 173.4c-4.78 0-3.96-1.74-5.61-6.11l-14.05-44.45 86.97-52.27 10.15 2.55-8.44 22.23zm0 0"/><path fill="#a6c2cf" d="M139.46 173.4c3.68 0 5.32-1.62 7.37-3.54 3.17-2.99 44.22-41.36 44.22-41.36l-25.15-5.85-23.33 14.17-3.1 35.4zm0 0"/><path fill="#595c81" d="M-1082.98-282.76c93.01 91.17 137.7 23.13 208.33 1.95 33.53-10.05 73.3-12.15 115.67-1.95v52.51c-122.08-97.25-191.35 61.62-324 0zM.01 90.38c93.02 91.17 137.7 23.14 208.34 1.95 33.52-10.05 73.29-12.15 115.66-1.95v52.51c-122.07-97.25-191.34 61.62-324 0z" paint-order="markers fill stroke"/><path fill="url(#a)" d="m141.97 137.25 59.4 42.21c6.78 3.6 11.67 1.74 13.36-6.05l24.18-109.6c2.47-9.54-3.78-13.87-10.27-11.04L86.66 105.45c-9.7 3.73-9.64 8.93-1.77 11.25l36.43 10.94 84.36-51.19c3.98-2.32 7.63-1.07 4.63 1.49zm0 0"/></svg>