<?xml version="1.0" encoding="UTF-8"?>
<svg xmlns="http://www.w3.org/2000/svg" xmlns:xlink="http://www.w3.org/1999/xlink" width="324px" height="234px" viewBox="0 0 324 234" version="1.1">
<defs>
<clipPath id="clip1">
  <path d="M 0 0 L 324 0 L 324 233.28125 L 0 233.28125 Z M 0 0 "/>
</clipPath>
<linearGradient id="linear0" gradientUnits="userSpaceOnUse" x1="0" y1="0.5" x2="1" y2="0.5" gradientTransform="matrix(327.891605,0,0,236.313074,-1.701,-1.94342)">
<stop offset="0" style="stop-color:rgb(6.666667%,33.333334%,64.313728%);stop-opacity:1;"/>
<stop offset="0.995652" style="stop-color:rgb(12.54902%,75.294119%,97.254902%);stop-opacity:1;"/>
<stop offset="1" style="stop-color:rgb(0%,0%,0%);stop-opacity:1;"/>
</linearGradient>
</defs>
<g id="surface1">
<g clip-path="url(#clip1)" clip-rule="nonzero">
<rect x="0" y="0" width="324" height="234" style="fill:url(#linear0);stroke:none;"/>
<path style="fill:none;stroke-width:1.022;stroke-linecap:butt;stroke-linejoin:miter;stroke:rgb(100%,100%,100%);stroke-opacity:1;stroke-miterlimit:2;" d="M -0.94401 -1.084054 L 181.217448 -1.084054 L 181.217448 130.606798 L -0.94401 130.606798 Z M -0.94401 -1.084054 " transform="matrix(1.8,0,0,1.794479,0,0)"/>
</g>
<path style=" stroke:none;fill-rule:nonzero;fill:rgb(100%,54.11765%,27.843139%);fill-opacity:1;" d="M 139.914062 44.464844 L 119.214844 64.84375 L 88.164062 64.84375 L 88.164062 95.414062 L 67.460938 115.792969 L 88.164062 136.175781 L 88.164062 166.746094 L 119.214844 166.746094 L 139.914062 187.125 L 160.617188 166.746094 L 191.667969 166.746094 L 191.667969 136.175781 L 212.371094 115.792969 L 191.667969 95.414062 L 191.667969 64.84375 L 160.617188 64.84375 Z M 139.914062 44.464844 "/>
<path style="fill-rule:nonzero;fill:rgb(100%,80.392158%,18.039216%);fill-opacity:1;stroke-width:1.859;stroke-linecap:butt;stroke-linejoin:miter;stroke:rgb(100%,80.392158%,18.039216%);stroke-opacity:1;stroke-miterlimit:10;" d="M 98.207465 62.933934 C 98.207465 74.767107 88.483073 84.360337 76.486545 84.360337 C 64.490017 84.360337 54.765625 74.767107 54.765625 62.933934 C 54.765625 51.100761 64.490017 41.509709 76.486545 41.509709 C 88.483073 41.509709 98.207465 51.100761 98.207465 62.933934 Z M 98.207465 62.933934 " transform="matrix(1.8,0,0,1.794479,0,0)"/>
<path style=" stroke:none;fill-rule:nonzero;fill:rgb(100%,100%,100%);fill-opacity:1;" d="M 229.117188 128.265625 C 225.03125 107.65625 206.792969 92.109375 184.917969 92.109375 C 167.550781 92.109375 152.496094 101.933594 144.957031 116.28125 C 126.898438 118.230469 112.804688 133.476562 112.804688 152.015625 C 112.804688 171.875 128.941406 187.960938 148.863281 187.960938 L 226.984375 187.960938 C 243.570312 187.960938 257.027344 174.542969 257.027344 158.007812 C 257.027344 142.191406 244.679688 129.371094 229.117188 128.265625 Z M 229.117188 128.265625 "/>
</g>
</svg>
