<svg xmlns="http://www.w3.org/2000/svg" xmlns:xlink="http://www.w3.org/1999/xlink" width="324" height="234" viewBox="0 0 324 234"><defs><linearGradient id="f"><stop offset="0" stop-color="#f7f7f7"/><stop offset="1" stop-color="#d8d8d8"/></linearGradient><linearGradient id="e"><stop offset="0" stop-color="#f7f7f7"/><stop offset="1" stop-color="#cacaca"/></linearGradient><linearGradient id="d"><stop offset="0" stop-color="#1558a0"/><stop offset="1" stop-color="#0b2e54"/></linearGradient><linearGradient id="c"><stop offset="0" stop-color="#1a70ce"/><stop offset="1" stop-color="#0f4076"/></linearGradient><linearGradient id="b"><stop offset="0" stop-color="#ffde08"/><stop offset="1" stop-color="#ff741b"/></linearGradient><linearGradient xlink:href="#a" id="g" x1="0" x2="128.06" y1="-146.67" y2="-146.68" gradientTransform="matrix(0 1.83 -1.83 0 -268 0)" gradientUnits="userSpaceOnUse"/><linearGradient id="a"><stop offset="0" stop-color="#ff79a5"/><stop offset="1" stop-color="#ff741b"/></linearGradient><linearGradient xlink:href="#b" id="h" x1="65.72" x2="97.96" y1="161.26" y2="161.26" gradientTransform="rotate(90 977.6 561.71) scale(8.39)" gradientUnits="userSpaceOnUse"/><radialGradient xlink:href="#c" id="l" cx="110.77" cy="167.5" r="21.76" fx="110.77" fy="167.5" gradientTransform="matrix(3.23 0 0 3.91 -204.52 -553.69)" gradientUnits="userSpaceOnUse"/><radialGradient xlink:href="#d" id="k" cx="92.23" cy="168.22" r="12.51" fx="92.23" fy="168.22" gradientTransform="matrix(3.23 0 0 5.93 -204.52 -894.17)" gradientUnits="userSpaceOnUse"/><radialGradient xlink:href="#e" id="i" cx="101.85" cy="171.07" r="20.13" fx="101.85" fy="171.07" gradientTransform="matrix(3.23 0 0 2.6 -204.52 -330.93)" gradientUnits="userSpaceOnUse"/><radialGradient xlink:href="#f" id="j" cx="93.57" cy="164.09" r="17.08" fx="93.57" fy="164.09" gradientTransform="matrix(4.67 -2.97 1.43 2.25 -557.37 23.35)" gradientUnits="userSpaceOnUse"/></defs><path fill="url(#g)" d="M0 0v234h324V0Z"/><path fill="url(#h)" d="M56.73 234H317.1a135.2 135.2 0 0 0-260.37 0Z"/><path fill="#fff" fill-opacity=".77" d="M0 48.7c2.77 0 6.33 0 11.11.02 16.89.06 49.14.12 63.49-1.79 14.35-1.9 10.8-5.78 16.97-8.19 6.17-2.44 21.98-3.4 28.3-5.33 6.25-1.9 2.97-4.76-6.95-6.01-11-1.1-22.07-1.04-33.05.15-6.67 1-3.4 2.68-7.68 3.69-4.26 1.04-16.11 1.46-18.67-.21-2.57-1.64 4.16-5.36-6.32-7.3-9.17-1.72-31.58-2.1-47.2-1.68Z"/><path fill="url(#i)" d="M189.42 79.93 134 60.55l-59.43 3.98-15.18 18.86c2.71 17.44 1.03 36.3 10.43 51.55l98.28 30.03 21.26-37.14Zm0 0"/><path fill="#e0e0e0" d="m182.37 63.79-.9-2.9-10.54-.11Z"/><path fill="#d7d7d7" d="m72.93 67.18 38.56 54.4 68.5-26.2Z"/><path fill="url(#j)" d="m184.93 90.6-8.23-26.95-100.61-1-.58.68-.94 1.2 38.11 53.68Zm0 0"/><path fill="url(#k)" d="M133.77 29.35s-12.63.07-18.15 1.84a97.54 97.54 0 0 0-25.61 10.53 91.1 91.1 0 0 0-26.03 27.72 88.24 88.24 0 0 0-10.8 33.81c-.8 11.98.59 24.23 5.11 35.46a59.56 59.56 0 0 0 17.64 25.33c10.5 7 20.99 14.2 32.49 13.7-10.92-1.69-21.06-11.64-28.49-22.3-8.07-11.3-8.75-19.86-8.95-20.15l.1.03a135.77 135.77 0 0 1-5.3-26.35c-.12-2-.35-4.2.36-3.65 2.71 4.3 7.69 6.2 12.4 8.65-4.45-7.04-4.84-15.63-4.13-24 .74-8.39 2.65-16.5 7.85-22.54 13.66-15.56 33.59-28.2 51.51-38.08Z"/><path fill="url(#l)" d="M121.2 16.18c-14.46.38-23.73 15.14-29.45 26.51-2.03 3.62-4.78 7.92-6.55 11.3-3.43 5.43-2.04 11.9-1.3 17.77-.1 1.62 1.49 5 .71 5.36-1.55 4.72-3.03 10.82.72 14.92 1.16-5.32 7.62-7.9 12.24-10.14 5.16-2.26 9.4-5.68 14.53-8.04 6.78-3.88 13.37 1.84 22.1 1.84 8.32 0 17.11-4.81 25.38-8.5 1.94 1.98 5.36 5.17 6.85 7.53 4.3 6.88 9.1 14.86 10.07 22.68 1.23 10.23-2.3 21.57-8.4 29.32a35.53 35.53 0 0 0 17.06-8.5c-5.17 39.93-29.72 62.44-42.64 68.03 17.22 1.16 29.82-8.53 29.85-8.53 0 0-2.4 4.85-8.53 8.53 11.24-3.14 17.64-4.2 24.74-9.37 0 0 5.75-3.13 11.76-9.98.8-.9 2.2-2.16 3-3.2l1.49-1.93.29-.33a80.33 80.33 0 0 0 18.38-52.06c.1-21.1-8.5-39.4-22.94-54.59a82.42 82.42 0 0 0-32.94-21.25c-13.86-3.94-30.9-5.65-43.12-3.32-1.13.38-.45-4.53.97-5.53-3.42.33-6.49 6.04-9.27 7.75 2.26-3.77 4.62-8.46 7.37-12.01-10.18 1.9-12.47 12.18-18.74 18.09 2.07-10.98 7.79-15.28 16.38-22.35Zm0 0"/><path fill="#172839" d="M93.1 75.7c18.93-.54 7.02-12.27 32.33-34.01-20.6 10.63-40.23 10.6-32.34 34Zm0 0"/><path fill="#303131" d="M95.06 82.93s1.1-1.07.53-2.97c-6.85 2.23-10.78-4.3-10.78-4.3.03 0-4.5 12.25.42 17.04.54-5 9.56-9.53 9.59-9.53"/><path fill="#d7d7d7" d="M103.3 68.55c-1.36 2.47-4.55 3.48-6.3 2.53-1.8-.92-1.8-4.05-.4-6.55 1.35-2.47 7.27-1.34 7.3-1.34a7.8 7.8 0 0 1-.6 5.36Zm0 0"/><path fill="#051527" d="M79.9 155.44c7.41 10.6 17.57 20.61 28.47 22.28-4.26-2.44-17.99-11.47-21.32-29.78 3.57 6.97 20.78 19.18 25.6 21.3-2.38-2.24-7.8-15.97-8.42-23.8l-33.3-10.16c.21.3.9 8.82 8.97 20.16Zm0 0"/><path fill="#fff" fill-opacity=".77" d="M324 70.65c-34.23.38-70.07 1.44-90.68 4.18-34.66 4.62-26.15 13.97-41 19.8-14.9 5.84-53.1 8.17-68.26 12.81-15.13 4.62-7.24 11.56 16.68 14.53 23.94 2.98 63.87 2.09 79.9-.38 16.01-2.45 8.1-6.4 18.46-8.88 10.36-2.47 38.92-3.51 45.11.48 6.17 3.96-10.03 12.92 15.22 17.66 6.1 1.15 14.63 2.05 24.57 2.73Z"/></svg>