<?xml version="1.0" encoding="UTF-8" standalone="no"?>
<svg
   xmlns:dc="http://purl.org/dc/elements/1.1/"
   xmlns:cc="http://creativecommons.org/ns#"
   xmlns:rdf="http://www.w3.org/1999/02/22-rdf-syntax-ns#"
   xmlns:svg="http://www.w3.org/2000/svg"
   xmlns="http://www.w3.org/2000/svg"
   xmlns:xlink="http://www.w3.org/1999/xlink"
   xmlns:sodipodi="http://sodipodi.sourceforge.net/DTD/sodipodi-0.dtd"
   xmlns:inkscape="http://www.inkscape.org/namespaces/inkscape"
   width="324"
   height="234"
   viewBox="0 0 55.5625 78.5813"
   version="1.1"
   id="svg68"
   sodipodi:docname="thunderbird-latest.svg"
   inkscape:version="1.0.2 (1.0.2+r75+1)">
  <metadata
     id="metadata72">
    <rdf:RDF>
      <cc:Work
         rdf:about="">
        <dc:format>image/svg+xml</dc:format>
        <dc:type
           rdf:resource="http://purl.org/dc/dcmitype/StillImage" />
      </cc:Work>
    </rdf:RDF>
  </metadata>
  <sodipodi:namedview
     pagecolor="#505050"
     bordercolor="#ffffff"
     borderopacity="1"
     objecttolerance="10"
     gridtolerance="10"
     guidetolerance="10"
     inkscape:pageopacity="0"
     inkscape:pageshadow="2"
     inkscape:window-width="1920"
     inkscape:window-height="980"
     id="namedview70"
     showgrid="false"
     inkscape:zoom="3.474359"
     inkscape:cx="162.43173"
     inkscape:cy="105.48708"
     inkscape:window-x="0"
     inkscape:window-y="0"
     inkscape:window-maximized="1"
     inkscape:current-layer="svg68" />
  <defs
     id="defs38">
    <linearGradient
       id="f">
      <stop
         offset="0"
         stop-color="#f7f7f7"
         id="stop2" />
      <stop
         offset="1"
         stop-color="#d8d8d8"
         id="stop4" />
    </linearGradient>
    <linearGradient
       id="e">
      <stop
         offset="0"
         stop-color="#f7f7f7"
         id="stop7" />
      <stop
         offset="1"
         stop-color="#cacaca"
         id="stop9" />
    </linearGradient>
    <linearGradient
       id="d">
      <stop
         offset="0"
         stop-color="#1558a0"
         id="stop12" />
      <stop
         offset="1"
         stop-color="#0b2e54"
         id="stop14" />
    </linearGradient>
    <linearGradient
       id="c">
      <stop
         offset="0"
         stop-color="#1a70ce"
         id="stop17" />
      <stop
         offset="1"
         stop-color="#0f4076"
         id="stop19" />
    </linearGradient>
    <linearGradient
       id="b">
      <stop
         offset="0"
         stop-color="#ffde08"
         id="stop22" />
      <stop
         offset="1"
         stop-color="#ff741b"
         id="stop24" />
    </linearGradient>
    <linearGradient
       xlink:href="#a"
       id="g"
       x1="0"
       x2="117"
       y1="0"
       y2="0"
       gradientTransform="matrix(0,0.61360023,-0.6135957,0,-116.62136,0)"
       gradientUnits="userSpaceOnUse" />
    <linearGradient
       id="a">
      <stop
         offset="0"
         stop-color="#ff79a5"
         id="stop28" />
      <stop
         offset="1"
         stop-color="#ff741b"
         id="stop30" />
    </linearGradient>
    <linearGradient
       xlink:href="#b"
       id="h"
       x1="65.7202"
       x2="97.9587"
       y1="161.2615"
       y2="161.2615"
       gradientTransform="rotate(90 314.9818 175.3189) scale(2.8163)"
       gradientUnits="userSpaceOnUse" />
    <radialGradient
       xlink:href="#c"
       id="l"
       cx="110.7678"
       cy="167.505"
       r="21.7587"
       fx="110.7678"
       fy="167.505"
       gradientTransform="matrix(1 0 0 1.21064 0 -35.2836)"
       gradientUnits="userSpaceOnUse" />
    <radialGradient
       xlink:href="#d"
       id="k"
       cx="92.2308"
       cy="168.217"
       r="12.5104"
       fx="92.2308"
       fy="168.217"
       gradientTransform="matrix(1 0 0 1.83641 0 -140.6988)"
       gradientUnits="userSpaceOnUse" />
    <radialGradient
       xlink:href="#e"
       id="i"
       cx="101.8461"
       cy="171.0711"
       r="20.1281"
       fx="101.8461"
       fy="171.0711"
       gradientTransform="matrix(1 0 0 .80308 0 33.6869)"
       gradientUnits="userSpaceOnUse" />
    <radialGradient
       xlink:href="#f"
       id="j"
       cx="93.5746"
       cy="164.0879"
       r="17.0827"
       fx="93.5746"
       fy="164.0879"
       gradientTransform="matrix(1.44575 -.91972 .44364 .69737 -109.2499 143.3806)"
       gradientUnits="userSpaceOnUse" />
  </defs>
  <path
     fill="url(#g)"
     d="M -26.621188,0 V 78.5813 H 82.183689 V 0 Z"
     id="path40"
     style="fill:url(#g);stroke-width:0.335818" />
  <path
     fill="url(#h)"
     d="M-7.5747 78.5813h87.43a45.3966 45.3966 0 0 0-43.7147-33.1561 45.3966 45.3966 0 0 0-43.7153 33.156Z"
     id="path42" />
  <path
     fill="#fff"
     fill-opacity=".7662"
     d="M-31.1232 16.4949c2.0647-.1645 2.5708-.1484 8.2365-.1312 5.6657.0172 16.4906.0356 21.312-.605 4.8215-.6407 3.6393-1.9403 5.7061-2.7528 2.0668-.8124 7.3823-1.138 9.4904-1.7821 2.108-.6442 1.0085-1.6069-2.319-2.0232-3.3277-.4163-8.883-.2863-11.1112.0537-2.228.34-1.1288.8901-2.5674 1.236-1.4386.3457-5.415.487-6.2756-.0656-.8606-.5528 1.3944-1.7996-2.1193-2.4582-3.5137-.6587-12.7957-.7291-17.9044-.4847-5.1088.2445-6.0442.8038-7.3085 2.5008-1.2644 1.697-2.8577 4.5317-1.8427 5.7767 1.015 1.2449 4.6384.9 6.7031.7356z"
     id="path44" />
  <path
     fill="url(#i)"
     d="m121.9741 160.908-17.166-6.0014-18.3952 1.2213-4.6949 5.8414c.8357 5.3993.3162 11.2446 3.2257 15.9618l30.4282 9.3045 6.5747-11.4978zm0 0"
     transform="translate(-95.3075 -147.6686) scale(1.08456)"
     id="path46" />
  <path
     fill="#e0e0e0"
     d="m34.617 21.421-.2974-.973-3.536-.0356z"
     id="path48" />
  <path
     fill="#d7d7d7"
     d="m-2.133 22.5645 12.9538 18.2612 23.0087-8.8009z"
     id="path50" />
  <path
     fill="url(#j)"
     d="m120.5784 164.198-2.5475-8.339-31.1497-.3122-.177.2164-.2913.3647 11.7943 16.6269zm0 0"
     transform="translate(-95.3075 -147.6686) scale(1.08456)"
     id="path52" />
  <path
     fill="url(#k)"
     d="M104.7412 145.2427c-.003 0-3.9157.0184-5.6236.5654-2.8466.6546-5.4006 1.8614-7.931 3.2598-3.2848 2.2025-5.9753 5.251-8.0531 8.587-1.8287 3.2177-2.9371 6.7963-3.3477 10.4614-.2453 3.7176.181 7.506 1.586 10.9836 1.0874 3.0578 3.004 5.7522 5.457 7.8445 3.2558 2.167 6.5038 4.3905 10.0574 4.2397-3.3791-.5195-6.5195-3.6127-8.8126-6.9-2.5041-3.513-2.7153-6.1523-2.7744-6.2428l.0328.0105c-.8369-2.6393-1.334-5.3692-1.6397-8.1606-.0393-.6244-.1167-1.3.1089-1.1334.8435 1.3314 2.3782 1.9244 3.8422 2.6813-1.3879-2.1763-1.5125-4.8431-1.2842-7.4313.2295-2.5947.8159-5.112 2.4294-6.9774 4.2279-4.8247 10.3959-8.7273 15.9526-11.7877z"
     transform="translate(-95.3075 -147.6686) scale(1.08456)"
     id="path54" />
  <path
     fill="url(#l)"
     d="M100.8478 141.163c-4.4732.1181-7.3512 4.6844-9.113 8.2079-.6349 1.1203-1.4823 2.4504-2.0372 3.5077-1.0612 1.6673-.6257 3.6704-.4066 5.4938-.0236.4998.4735 1.5492.2322 1.6555-.4854 1.4613-.9471 3.3476.2125 4.6227.3686-1.6515 2.3651-2.4478 3.791-3.1417 1.611-.698 2.9148-1.7539 4.51-2.4872 2.1014-1.2016 4.1321.5693 6.8317.5693 2.5817 0 5.3089-1.4875 7.8629-2.6327.5942.6139 1.6581 1.6095 2.1225 2.3363h-.007c1.3327 2.1237 2.8203 4.5912 3.1233 7.014.3791 3.168-.711 6.6784-2.5908 9.0776l-.0157.003h.0143c.038.005 3.0277-.5076 5.2748-2.634-1.603 12.3636-9.1996 19.3357-13.2032 21.062 5.3298.3581 9.235-2.6327 9.2429-2.6327.007 0-.7399 1.5006-2.6407 2.6327 3.4828-.972 5.4558-1.296 7.6543-2.895-.001 0 1.7853-.9682 3.648-3.088.248-.2808.6743-.673.9301-.993.1575-.2008.3044-.4054.4605-.6061.0275-.0315.0577-.063.084-.0971 3.9222-4.7828 5.8322-10.7291 5.6905-16.118.0275-6.5326-2.6314-12.2035-7.0994-16.8905-3.231-3.391-6.9-5.4649-10.2044-6.5878-4.2816-1.2252-9.5642-1.7473-13.3421-1.035-.3582.1194-.147-1.3983.2951-1.7105-1.06.0984-2.0083 1.8771-2.8662 2.3966.7044-1.1636 1.4285-2.6144 2.276-3.7137-3.151.5864-3.8607 3.7714-5.7969 5.6027.6376-3.4015 2.411-4.7303 5.0661-6.9184zm0 0"
     transform="translate(-95.3075 -147.6686) scale(1.08456)"
     id="path56" />
  <path
     fill="#172839"
     d="M4.6353 25.4172c6.3652-.1821 2.3688-4.1145 10.8652-11.4215-6.9215 3.5738-13.51 3.5681-10.8567 11.4215zm0 0"
     id="path58" />
  <path
     fill="#303131"
     d="M5.2997 27.8457s.367-.3542.1764-1.0001c-2.2906.754-3.6208-1.4313-3.6123-1.4313.007 0-1.5137 4.1088.138 5.7136.1779-1.6802 3.2125-3.194 3.221-3.194"
     id="path60" />
  <path
     fill="#d7d7d7"
     d="M8.0697 23.0185c-.4567.8337-1.5251 1.1694-2.117.855-.6032-.313-.6004-1.3615-.1323-2.1952.451-.8337 2.4442-.461 2.4542-.461.01 0 .2532.9703-.2049 1.8012zm0 0"
     id="path62" />
  <path
     fill="#051527"
     d="M.2135 52.1982c2.4869 3.5654 5.8929 6.9201 9.5578 7.4835-1.4327-.8252-6.038-3.8527-7.1605-9.9931 1.1922 2.3275 6.9783 6.4292 8.5931 7.1377-.8024-.747-2.612-5.3536-2.8226-7.9828L-2.7955 45.426c.064.0982.293 2.9621 3.009 6.7721zm0 0"
     id="path64" />
  <path
     fill="#fff"
     fill-opacity=".7662"
     d="M123.0668 23.3538c-4.9846.397-6.2063.3582-19.8843.3166-13.678-.0416-39.8113-.086-51.4512 1.4607-11.6398 1.5467-8.7859 4.6841-13.7755 6.6456-4.9896 1.9614-17.8222 2.7472-22.9114 4.3024-5.0891 1.5552-2.4347 3.8793 5.5987 4.8843 8.0333 1.005 21.445.6912 26.824-.1297 5.379-.8208 2.7252-2.1489 6.1982-2.9837s13.0728-1.176 15.1505.1583c2.0778 1.3344-3.3663 4.3444 5.1164 5.9345 8.4826 1.59 30.891 1.7602 43.2245 1.17 12.3334-.5901 14.5916-1.9404 17.644-6.0373 3.0524-4.097 6.8989-10.9404 4.4485-13.9459-2.4504-3.0054-11.1978-2.1728-16.1824-1.7758z"
     id="path66" />
</svg>
