<?xml version="1.0" encoding="UTF-8" standalone="no"?>
<svg
   xmlns:dc="http://purl.org/dc/elements/1.1/"
   xmlns:cc="http://creativecommons.org/ns#"
   xmlns:rdf="http://www.w3.org/1999/02/22-rdf-syntax-ns#"
   xmlns:svg="http://www.w3.org/2000/svg"
   xmlns="http://www.w3.org/2000/svg"
   xmlns:xlink="http://www.w3.org/1999/xlink"
   xmlns:sodipodi="http://sodipodi.sourceforge.net/DTD/sodipodi-0.dtd"
   xmlns:inkscape="http://www.inkscape.org/namespaces/inkscape"
   width="324px"
   height="234px"
   viewBox="0 0 324 234"
   version="1.1"
   id="svg38"
   sodipodi:docname="tor-browser.svg"
   inkscape:version="0.92.4 (5da689c313, 2019-01-14)">
  <metadata
     id="metadata42">
    <rdf:RDF>
      <cc:Work
         rdf:about="">
        <dc:format>image/svg+xml</dc:format>
        <dc:type
           rdf:resource="http://purl.org/dc/dcmitype/StillImage" />
        <dc:title></dc:title>
      </cc:Work>
    </rdf:RDF>
  </metadata>
  <sodipodi:namedview
     pagecolor="#ffffff"
     bordercolor="#666666"
     borderopacity="1"
     objecttolerance="10"
     gridtolerance="10"
     guidetolerance="10"
     inkscape:pageopacity="0"
     inkscape:pageshadow="2"
     inkscape:window-width="1152"
     inkscape:window-height="764"
     id="namedview40"
     showgrid="false"
     inkscape:pagecheckerboard="true"
     inkscape:zoom="0.5042735"
     inkscape:cx="393.9257"
     inkscape:cy="-97.47213"
     inkscape:window-x="0"
     inkscape:window-y="0"
     inkscape:window-maximized="1"
     inkscape:current-layer="surface1" />
  <defs
     id="defs15">
    <clipPath
       id="clip1">
      <path
         d="M 0 0 L 324 0 L 324 233.28125 L 0 233.28125 Z M 0 0 "
         id="path2" />
    </clipPath>
    <linearGradient
       id="linear0"
       gradientUnits="userSpaceOnUse"
       x1="0.0051876898"
       y1="0.99843574"
       x2="1.0000024"
       y2="-8.0069112e-06"
       gradientTransform="matrix(327.89161,0,0,236.31307,-1.701,-1.94342)">
      <stop
         offset="0"
         style="stop-color:rgb(25.490198%,20%,40.000001%);stop-opacity:1;"
         id="stop5" />
      <stop
         offset="0.982609"
         style="stop-color:rgb(12.156863%,58.039218%,51.764709%);stop-opacity:1;"
         id="stop7" />
    </linearGradient>
    <linearGradient
       id="linear1"
       gradientUnits="userSpaceOnUse"
       x1="1.035385"
       y1="0.779345"
       x2="0.220946"
       y2="-0.0560163"
       gradientTransform="matrix(59.4,0,0,132.100533,162.244803,66.105002)">
      <stop
         offset="0"
         style="stop-color:rgb(22.352941%,14.509805%,32.549021%);stop-opacity:1;"
         id="stop10" />
      <stop
         offset="1"
         style="stop-color:rgb(54.509807%,42.352942%,69.411767%);stop-opacity:1;"
         id="stop12" />
    </linearGradient>
    <linearGradient
       inkscape:collect="always"
       xlink:href="#linear0-3"
       id="linearGradient881"
       gradientUnits="userSpaceOnUse"
       gradientTransform="matrix(327.89161,0,0,237.04115,-2.02522,-1.9491338)"
       x1="0.0061764922"
       y1="0.99843466"
       x2="1.0607058"
       y2="-0.24443643" />
    <linearGradient
       id="linear0-3"
       gradientUnits="userSpaceOnUse"
       x1="0"
       y1="0.5"
       x2="1.197124"
       y2="0.50957102"
       gradientTransform="matrix(327.89161,0,0,237.04115,-1.701,-1.9494024)">
      <stop
         offset="0"
         style="stop-color:rgb(25.490198%,20%,40.000001%);stop-opacity:1;"
         id="stop5-6" />
      <stop
         offset="0.982609"
         style="stop-color:rgb(12.156863%,58.039218%,51.764709%);stop-opacity:1;"
         id="stop7-7" />
    </linearGradient>
    <linearGradient
       inkscape:collect="always"
       xlink:href="#linear0-3"
       id="linearGradient883"
       gradientUnits="userSpaceOnUse"
       gradientTransform="matrix(327.89161,0,0,237.04115,-2.02522,-1.9491338)"
       x1="-0.13910136"
       y1="0.98940223"
       x2="1.3234481"
       y2="-0.62669218" />
  </defs>
  <g
     id="surface1">
    <g
       clip-path="url(#clip1)"
       id="g21"
       transform="matrix(1,0,0,1.003081,0,5.234375e-6)"
       style="clip-rule:nonzero">
      <rect
         x="0"
         y="0"
         width="324"
         height="234"
         style="fill:url(#linear0);stroke:none"
         id="rect17" />
      <path
         style="fill:none;stroke:#ffffff;stroke-width:1.02199996;stroke-linecap:butt;stroke-linejoin:miter;stroke-miterlimit:2;stroke-opacity:1"
         d="M -0.94401,-1.084054 H 181.21745 V 130.6068 H -0.94401 Z m 0,0"
         transform="scale(1.8,1.794479)"
         id="path19"
         inkscape:connector-curvature="0" />
      <rect
         style="opacity:0.70499998;fill:#dcdbc3;fill-opacity:1;fill-rule:evenodd;stroke:none;stroke-width:1.99692607;stroke-miterlimit:4;stroke-dasharray:none;stroke-opacity:1;paint-order:markers fill stroke"
         id="rect935"
         width="65.440681"
         height="108.73278"
         x="331.16949"
         y="10.873274" />
    </g>
    <path
       id="path877"
       d="m 323.67578,124.70338 c -1.89798,-0.0875 -3.79203,-0.27816 -5.69141,-0.28124 -4.07707,-0.007 -8.15346,0.18221 -12.21484,0.56445 -4.06138,0.38223 -8.10757,0.95735 -12.12305,1.72851 -4.01547,0.77116 -8.00203,1.7383 -11.9414,2.89844 -3.93938,1.16014 -7.83294,2.51333 -11.66602,4.0625 -3.83307,1.54918 -7.6042,3.29416 -11.30078,5.23242 -3.69658,1.93827 -7.31778,4.07103 -10.84766,6.39843 -3.52987,2.32743 -6.96975,4.84783 -10.30273,7.56446 -3.33298,2.71662 -6.56013,5.62849 -9.66602,8.73438 -3.10707,3.10709 -6.01865,6.33588 -8.73632,9.66992 -2.71768,3.33405 -5.24003,6.77387 -7.56836,10.30469 -2.32833,3.53079 -4.46329,7.15223 -6.40235,10.8496 -1.93905,3.69738 -3.68257,7.47094 -5.23242,11.3047 -1.54984,3.83375 -2.9057,7.72801 -4.06641,11.66796 -1.1607,3.93995 -2.12681,7.92547 -2.89843,11.9414 -0.46954,2.44373 -0.72725,4.9141 -1.05274,7.37696 h 131.71094 z"
       style="clip-rule:nonzero;fill:url(#linearGradient881);stroke:none;stroke-width:1.00153935"
       inkscape:connector-curvature="0" />
    <path
       id="path879"
       d="M 122.36914,2.6023437e-4 C 120.48279,1.4681182 118.56152,2.8706262 116.70117,4.3869742 c -4.16626,3.39589 -8.26589,6.9136148 -12.29492,10.5527428 -4.02903,3.639118 -7.98679,7.398886 -11.86914,11.281241 -3.88235,3.882351 -7.64409,7.840121 -11.2832,11.869141 -3.63911,4.02903 -7.1549,8.12866 -10.55078,12.29493 -3.39589,4.16626 -6.67156,8.3993 -9.82422,12.69336 -3.15267,4.29405 -6.18233,8.65009 -9.0918,13.0625 -2.90947,4.4124 -5.69895,8.88101 -8.36523,13.40233 -2.66629,4.52133 -5.20971,9.09599 -7.63282,13.716811 -2.42311,4.6208 -4.72434,9.28719 -6.90429,13.99804 -2.17995,4.71085 -4.23898,9.46441 -6.17579,14.25586 -1.9368,4.79145 -3.75163,9.62176 -5.44531,14.48438 -1.69367,4.8626 -3.26623,9.75924 -4.71679,14.68359 -1.45057,4.92433 -2.77887,9.87689 -3.98633,14.85352 -1.20746,4.97663 -2.29344,9.97661 -3.25782,14.99609 -0.96437,5.01948 -1.80799,10.05844 -2.52929,15.11133 -0.7213,5.05289 -1.32059,10.12039 -1.79883,15.19726 C 0.53942,225.46 0.23393,230.08867 0,234.72096 h 95.80664 c 0.11198,-1.52108 0.17726,-3.04557 0.32031,-4.56445 0.0354,-0.37586 0.0955,-0.74932 0.13282,-1.125 0.31537,-3.17607 0.67359,-6.34932 1.125,-9.51172 0.50488,-3.53706 1.09641,-7.06443 1.77148,-10.57812 0.67507,-3.51371 1.43403,-7.01431 2.2793,-10.49805 0.84526,-3.48374 1.77554,-6.95128 2.79101,-10.39844 1.01547,-3.44717 2.11705,-6.87334 3.30274,-10.27734 1.18569,-3.40401 2.45657,-6.78445 3.8125,-10.13867 1.35592,-3.35422 2.79609,-6.68263 4.32226,-9.98047 1.52617,-3.29784 3.13756,-6.56593 4.83399,-9.80078 1.69642,-3.23486 3.47706,-6.4363 5.34375,-9.60157 1.86669,-3.16526 3.81849,-6.29374 5.85546,-9.38281 2.03698,-3.08907 4.15992,-6.13827 6.36719,-9.14453 2.20727,-3.00627 4.49938,-5.96985 6.87695,-8.88673 1.27966,-1.5699 2.64757,-3.09026 3.97657,-4.63281 1.14019,-1.32408 2.23521,-2.67359 3.41211,-3.97655 2.54791,-2.820871 5.18214,-5.592301 7.90039,-8.310561 2.71764,-2.71763 5.48826,-5.34911 8.30859,-7.89648 2.82033,-2.54737 5.68906,-5.00959 8.60547,-7.38672 2.91641,-2.37712 5.88084,-4.67007 8.88672,-6.87695 3.00588,-2.20688 6.05384,-4.32859 9.14258,-6.36523 1.90174,-1.25397 3.84604,-2.4144 5.77734,-3.60352 1.20544,-0.7422 2.38917,-1.53274 3.60547,-2.25 3.16499,-1.86641 6.36692,-3.64754 9.60156,-5.34374 3.23464,-1.69621 6.50115,-3.308 9.79883,-4.83399 3.29768,-1.526 6.62636,-2.96646 9.98047,-4.32227 3.3541,-1.3558 6.73474,-2.62688 10.13867,-3.8125 3.40393,-1.18562 6.8302,-2.28534 10.27734,-3.30078 3.44715,-1.01544 6.91469,-1.94574 10.39844,-2.79101 3.48375,-0.84528 6.9843,-1.60614 10.49805,-2.28126 3.51375,-0.67511 7.04098,-1.26456 10.57812,-1.76952 3.53714,-0.50497 7.0828,-0.92494 10.63672,-1.25977 3.55393,-0.33483 7.11559,-0.58531 10.67969,-0.75 3.5641,-0.16469 7.13155,-0.243713 10.69922,-0.238286 1.9447,0.003 3.88779,0.09499 5.83203,0.148446 V 2.6023437e-4 Z"
       style="clip-rule:nonzero;fill:url(#linearGradient883);stroke:none;stroke-width:1.00153935"
       inkscape:connector-curvature="0" />
  </g>
  <g
     inkscape:groupmode="layer"
     id="layer1"
     inkscape:label="jhalo">
    <path
       style="stroke:none;fill-rule:nonzero;fill:rgb(99%, 98%, 87%);fill-opacity:1"
       d="M 148.539062 66.105469 C 145.566406 73.832031 145.039062 80.578125 137.433594 85.253906 C 117.9375 94.660156 102.875 115.878906 102.84375 138.988281 C 102.84375 171.695312 129.4375 198.207031 162.246094 198.207031 L 162.246094 184.539062 C 137.007812 184.539062 116.554688 164.148438 116.554688 138.988281 C 116.554688 113.832031 137.007812 93.4375 162.246094 93.4375 L 162.246094 70.660156 C 156.691406 70.238281 152.558594 68.453125 148.539062 66.105469 Z M 148.539062 66.105469 "
       id="path23" />
    <path
       style="stroke:none;fill-rule:nonzero;fill:url(#linear1)"
       d="M 175.953125 66.105469 C 172.375 68.023438 166.941406 71.007812 162.246094 70.660156 L 162.246094 198.207031 C 195.050781 198.207031 221.644531 171.695312 221.644531 138.988281 C 221.617188 115.691406 207.886719 94.578125 186.566406 85.039062 C 180.714844 81.101562 176.808594 74.105469 175.953125 66.105469 "
       id="path25" />
    <path
       style="stroke:none;fill-rule:nonzero;fill:rgb(47%, 68%, 32%);fill-opacity:1"
       d="M 145.925781 34.21875 C 145.839844 34.46875 145.765625 34.71875 145.703125 34.933594 C 140.957031 50.597656 145.945312 60.984375 160.667969 66.105469 C 164.976562 54.105469 160.449219 43.742188 147.035156 34.933594 C 146.714844 34.71875 146.320312 34.46875 145.917969 34.21875 "
       id="path27" />
    <path
       style="stroke:none;fill-rule:nonzero;fill:rgb(47%, 68%, 32%);fill-opacity:1"
       d="M 166.996094 66.105469 C 165.859375 56.90625 170.386719 50.796875 180.535156 47.886719 C 179.429688 58.011719 174.925781 64.074219 166.996094 66.105469 Z M 166.996094 66.105469 "
       id="path29" />
    <path
       style="stroke:none;fill-rule:nonzero;fill:rgb(91%, 91%, 80%);fill-opacity:1"
       d="M 162.246094 93.4375 C 137.011719 93.4375 116.554688 113.832031 116.554688 138.988281 C 116.554688 164.144531 137.011719 184.539062 162.246094 184.539062 L 162.246094 170.875 C 144.582031 170.875 130.261719 156.601562 130.261719 138.988281 C 130.261719 121.378906 144.582031 107.101562 162.246094 107.101562 Z M 162.246094 93.4375 "
       id="path31" />
    <path
       style="stroke:none;fill-rule:nonzero;fill:rgb(81%, 81%, 72%);fill-opacity:1"
       d="M 162.246094 107.101562 C 144.582031 107.101562 130.261719 121.378906 130.261719 138.988281 C 130.261719 156.601562 144.582031 170.875 162.246094 170.875 L 162.246094 157.210938 C 152.152344 157.210938 143.96875 149.054688 143.96875 138.988281 C 143.96875 128.925781 152.152344 120.769531 162.246094 120.769531 Z M 162.246094 107.101562 "
       id="path33" />
    <path
       style="stroke:none;fill-rule:nonzero;fill:rgb(74%, 74%, 66%);fill-opacity:1"
       d="M 162.246094 120.769531 C 152.152344 120.769531 143.96875 128.925781 143.96875 138.988281 C 143.96875 149.054688 152.152344 157.210938 162.246094 157.210938 Z M 162.246094 120.769531 "
       id="path35" />
  </g>
</svg>
