<?xml version="1.0" encoding="UTF-8"?>
<svg xmlns="http://www.w3.org/2000/svg" xmlns:xlink="http://www.w3.org/1999/xlink" width="324px" height="234px" viewBox="0 0 324 234" version="1.1">
<defs>
<linearGradient id="linear0" gradientUnits="userSpaceOnUse" x1="0" y1="0.5" x2="1.197124" y2="0.509571" gradientTransform="matrix(327.891605,0,0,236.313074,-1.701,-1.94342)">
<stop offset="0" style="stop-color:rgb(25.490198%,20%,40.000001%);stop-opacity:1;"/>
<stop offset="0.982609" style="stop-color:rgb(12.156863%,58.039218%,51.764709%);stop-opacity:1;"/>
</linearGradient>
</defs>
<g id="surface1">
<rect x="0" y="0" width="324" height="234" style="fill:url(#linear0);stroke:none;"/>
<path style="fill:none;stroke-width:1.022;stroke-linecap:butt;stroke-linejoin:miter;stroke:rgb(100%,100%,100%);stroke-opacity:1;stroke-miterlimit:2;" d="M -0.94401 -1.084054 L 181.217448 -1.084054 L 181.217448 130.606798 L -0.94401 130.606798 Z M -0.94401 -1.084054 " transform="matrix(1.8,0,0,1.794479,0,0)"/>
<path style=" stroke:none;fill-rule:nonzero;fill:rgb(72.941178%,83.92157%,19.607843%);fill-opacity:1;" d="M 149.40625 66.582031 C 146.359375 74.238281 145.816406 80.925781 138.023438 85.558594 C 118.035156 94.886719 102.589844 115.921875 102.5625 138.832031 C 102.5625 171.253906 129.824219 197.535156 163.457031 197.535156 L 163.457031 183.988281 C 137.585938 183.988281 116.617188 163.769531 116.617188 138.832031 C 116.617188 113.890625 137.585938 93.675781 163.457031 93.675781 L 163.457031 71.097656 C 157.761719 70.675781 153.527344 68.90625 149.40625 66.582031 "/>
<path style=" stroke:none;fill-rule:nonzero;fill:rgb(34.117648%,51.764709%,9.411765%);fill-opacity:1;" d="M 177.511719 66.582031 C 173.84375 68.480469 168.273438 71.441406 163.457031 71.097656 L 163.457031 197.535156 C 197.089844 197.535156 224.351562 171.25 224.351562 138.832031 C 224.320312 115.734375 210.246094 94.804688 188.386719 85.347656 C 182.390625 81.449219 178.386719 74.511719 177.511719 66.582031 "/>
<path style=" stroke:none;fill-rule:nonzero;fill:rgb(47.058824%,68.627453%,32.156864%);fill-opacity:1;" d="M 146.726562 34.972656 C 146.640625 35.21875 146.5625 35.46875 146.5 35.679688 C 141.632812 51.207031 146.746094 61.503906 161.839844 66.582031 C 166.257812 54.683594 161.617188 44.414062 147.863281 35.679688 C 147.535156 35.46875 147.132812 35.21875 146.722656 34.972656 "/>
<path style=" stroke:none;fill-rule:nonzero;fill:rgb(47.058824%,68.627453%,32.156864%);fill-opacity:1;" d="M 168.328125 66.582031 C 167.164062 57.460938 171.804688 51.402344 182.207031 48.519531 C 181.074219 58.558594 176.457031 64.566406 168.328125 66.582031 "/>
<path style=" stroke:none;fill-rule:nonzero;fill:rgb(91.764706%,91.764706%,80.784315%);fill-opacity:1;" d="M 163.457031 93.675781 C 137.585938 93.675781 116.617188 113.890625 116.617188 138.832031 C 116.617188 163.769531 137.585938 183.988281 163.457031 183.988281 L 163.457031 170.441406 C 145.347656 170.441406 130.667969 156.289062 130.667969 138.832031 C 130.667969 121.375 145.347656 107.222656 163.457031 107.222656 Z M 163.457031 93.675781 "/>
<path style=" stroke:none;fill-rule:nonzero;fill:rgb(81.960785%,81.960785%,72.156864%);fill-opacity:1;" d="M 163.457031 107.222656 C 145.347656 107.222656 130.667969 121.375 130.667969 138.832031 C 130.667969 156.289062 145.347656 170.441406 163.457031 170.441406 L 163.457031 156.894531 C 153.109375 156.894531 144.722656 148.804688 144.722656 138.832031 C 144.722656 128.855469 153.109375 120.769531 163.457031 120.769531 Z M 163.457031 107.222656 "/>
<path style=" stroke:none;fill-rule:nonzero;fill:rgb(74.901962%,74.901962%,66.274512%);fill-opacity:1;" d="M 163.457031 120.769531 C 153.109375 120.769531 144.722656 128.855469 144.722656 138.832031 C 144.722656 148.804688 153.109375 156.894531 163.457031 156.894531 Z M 163.457031 120.769531 "/>
</g>
</svg>
