<?xml version="1.0" encoding="UTF-8"?>
<svg xmlns="http://www.w3.org/2000/svg" xmlns:xlink="http://www.w3.org/1999/xlink" width="324px" height="234px" viewBox="0 0 324 234" version="1.1">
<defs>
<clipPath id="clip1">
  <path d="M 0 0 L 324 0 L 324 233.28125 L 0 233.28125 Z M 0 0 "/>
</clipPath>
<linearGradient id="linear0" gradientUnits="userSpaceOnUse" x1="0" y1="0.5" x2="1.197124" y2="0.509571" gradientTransform="matrix(327.891605,0,0,236.313074,-1.701,-1.94342)">
<stop offset="0" style="stop-color:rgb(25.490198%,20%,40.000001%);stop-opacity:1;"/>
<stop offset="0.982609" style="stop-color:rgb(12.156863%,58.039218%,51.764709%);stop-opacity:1;"/>
</linearGradient>
<linearGradient id="linear1" gradientUnits="userSpaceOnUse" x1="1.035385" y1="0.779345" x2="0.220946" y2="-0.0560163" gradientTransform="matrix(59.4,0,0,132.100533,162.244803,66.105002)">
<stop offset="0" style="stop-color:rgb(22.352941%,14.509805%,32.549021%);stop-opacity:1;"/>
<stop offset="1" style="stop-color:rgb(54.509807%,42.352942%,69.411767%);stop-opacity:1;"/>
</linearGradient>
</defs>
<g id="surface1">
<g clip-path="url(#clip1)" clip-rule="nonzero">
<rect x="0" y="0" width="324" height="234" style="fill:url(#linear0);stroke:none;"/>
<path style="fill:none;stroke-width:1.022;stroke-linecap:butt;stroke-linejoin:miter;stroke:rgb(100%,100%,100%);stroke-opacity:1;stroke-miterlimit:2;" d="M -0.94401 -1.084054 L 181.217448 -1.084054 L 181.217448 130.606798 L -0.94401 130.606798 Z M -0.94401 -1.084054 " transform="matrix(1.8,0,0,1.794479,0,0)"/>
</g>
<path style=" stroke:none;fill-rule:nonzero;fill:rgb(99.215686%,98.823529%,87.450981%);fill-opacity:1;" d="M 148.539062 66.105469 C 145.566406 73.832031 145.039062 80.578125 137.433594 85.253906 C 117.9375 94.660156 102.875 115.878906 102.84375 138.988281 C 102.84375 171.695312 129.4375 198.207031 162.246094 198.207031 L 162.246094 184.539062 C 137.007812 184.539062 116.554688 164.148438 116.554688 138.988281 C 116.554688 113.832031 137.007812 93.4375 162.246094 93.4375 L 162.246094 70.660156 C 156.691406 70.238281 152.558594 68.453125 148.539062 66.105469 Z M 148.539062 66.105469 "/>
<path style=" stroke:none;fill-rule:nonzero;fill:url(#linear1);" d="M 175.953125 66.105469 C 172.375 68.023438 166.941406 71.007812 162.246094 70.660156 L 162.246094 198.207031 C 195.050781 198.207031 221.644531 171.695312 221.644531 138.988281 C 221.617188 115.691406 207.886719 94.578125 186.566406 85.039062 C 180.714844 81.101562 176.808594 74.105469 175.953125 66.105469 "/>
<path style=" stroke:none;fill-rule:nonzero;fill:rgb(47.058824%,68.627453%,32.156864%);fill-opacity:1;" d="M 145.925781 34.21875 C 145.839844 34.46875 145.765625 34.71875 145.703125 34.933594 C 140.957031 50.597656 145.945312 60.984375 160.667969 66.105469 C 164.976562 54.105469 160.449219 43.742188 147.035156 34.933594 C 146.714844 34.71875 146.320312 34.46875 145.917969 34.21875 "/>
<path style=" stroke:none;fill-rule:nonzero;fill:rgb(47.058824%,68.627453%,32.156864%);fill-opacity:1;" d="M 166.996094 66.105469 C 165.859375 56.90625 170.386719 50.796875 180.535156 47.886719 C 179.429688 58.011719 174.925781 64.074219 166.996094 66.105469 Z M 166.996094 66.105469 "/>
<path style=" stroke:none;fill-rule:nonzero;fill:rgb(91.764706%,91.764706%,80.784315%);fill-opacity:1;" d="M 162.246094 93.4375 C 137.011719 93.4375 116.554688 113.832031 116.554688 138.988281 C 116.554688 164.144531 137.011719 184.539062 162.246094 184.539062 L 162.246094 170.875 C 144.582031 170.875 130.261719 156.601562 130.261719 138.988281 C 130.261719 121.378906 144.582031 107.101562 162.246094 107.101562 Z M 162.246094 93.4375 "/>
<path style=" stroke:none;fill-rule:nonzero;fill:rgb(81.960785%,81.960785%,72.156864%);fill-opacity:1;" d="M 162.246094 107.101562 C 144.582031 107.101562 130.261719 121.378906 130.261719 138.988281 C 130.261719 156.601562 144.582031 170.875 162.246094 170.875 L 162.246094 157.210938 C 152.152344 157.210938 143.96875 149.054688 143.96875 138.988281 C 143.96875 128.925781 152.152344 120.769531 162.246094 120.769531 Z M 162.246094 107.101562 "/>
<path style=" stroke:none;fill-rule:nonzero;fill:rgb(74.901962%,74.901962%,66.274512%);fill-opacity:1;" d="M 162.246094 120.769531 C 152.152344 120.769531 143.96875 128.925781 143.96875 138.988281 C 143.96875 149.054688 152.152344 157.210938 162.246094 157.210938 Z M 162.246094 120.769531 "/>
</g>
</svg>
