<?xml version="1.0" encoding="UTF-8"?>
<svg xmlns="http://www.w3.org/2000/svg" xmlns:xlink="http://www.w3.org/1999/xlink" width="324px" height="234px" viewBox="0 0 324 234" version="1.1">
<g id="surface1">
<rect x="0" y="0" width="324" height="234" style="fill:rgb(15.686275%,70.19608%,65.098041%);fill-opacity:1;stroke:none;"/>
<path style="fill:none;stroke-width:1.021703;stroke-linecap:butt;stroke-linejoin:miter;stroke:rgb(100%,100%,100%);stroke-opacity:1;stroke-miterlimit:4;" d="M -0.94401 -1.082899 L 181.217448 -1.082899 L 181.217448 130.605469 L -0.94401 130.605469 Z M -0.94401 -1.082899 " transform="matrix(1.8,0,0,1.8,0,0)"/>
<path style=" stroke:none;fill-rule:nonzero;fill:rgb(100%,100%,100%);fill-opacity:1;" d="M 94.542969 101.316406 C 94.550781 100.074219 95.570312 99.070312 96.828125 99.074219 L 161.226562 99.351562 C 172.84375 99.398438 182.253906 108.777344 182.203125 120.25 L 182.117188 138.789062 C 182.109375 140.042969 181.082031 141.046875 179.820312 141.042969 C 179.785156 141.042969 179.734375 141.042969 179.6875 141.050781 L 115.351562 140.765625 C 103.78125 140.71875 94.40625 131.34375 94.457031 119.863281 L 94.542969 101.320312 Z M 209.320312 99.542969 L 227.773438 99.625 C 229.023438 99.628906 230.039062 100.648438 230.03125 101.886719 L 229.949219 120.441406 C 229.894531 131.914062 220.441406 141.203125 208.863281 141.15625 L 190.460938 141.074219 C 189.152344 141.066406 188.132812 140.070312 188.140625 138.8125 L 188.222656 120.265625 C 188.277344 108.789062 197.742188 99.496094 209.320312 99.542969 Z M 179.792969 147.023438 L 142.621094 146.867188 C 141.367188 146.859375 140.34375 147.871094 140.335938 149.109375 L 140.164062 186.210938 C 140.160156 187.476562 141.183594 188.46875 142.492188 188.472656 L 160.890625 188.554688 C 172.464844 188.605469 181.929688 179.3125 181.980469 167.835938 L 182.066406 149.289062 C 182.074219 148.050781 181.054688 147.03125 179.792969 147.023438 Z M 185.492188 68.402344 C 185.433594 81.496094 174.671875 92.066406 161.460938 92.011719 C 148.25 91.953125 137.585938 81.292969 137.648438 68.195312 C 137.707031 55.101562 148.46875 44.527344 161.679688 44.585938 C 174.890625 44.644531 185.550781 55.304688 185.492188 68.402344 Z M 185.492188 68.402344 "/>
</g>
</svg>
