<?xml version="1.0" encoding="UTF-8" standalone="no"?>
<svg
   xmlns:dc="http://purl.org/dc/elements/1.1/"
   xmlns:cc="http://creativecommons.org/ns#"
   xmlns:rdf="http://www.w3.org/1999/02/22-rdf-syntax-ns#"
   xmlns:svg="http://www.w3.org/2000/svg"
   xmlns="http://www.w3.org/2000/svg"
   xmlns:sodipodi="http://sodipodi.sourceforge.net/DTD/sodipodi-0.dtd"
   xmlns:inkscape="http://www.inkscape.org/namespaces/inkscape"
   width="324px"
   height="234px"
   viewBox="0 0 324 234"
   version="1.1"
   id="svg71"
   sodipodi:docname="popcorn-time.svg"
   inkscape:version="1.0.2 (1.0.2+r75+1)">
  <metadata
     id="metadata75">
    <rdf:RDF>
      <cc:Work
         rdf:about="">
        <dc:format>image/svg+xml</dc:format>
        <dc:type
           rdf:resource="http://purl.org/dc/dcmitype/StillImage" />
      </cc:Work>
    </rdf:RDF>
  </metadata>
  <sodipodi:namedview
     pagecolor="#ffffff"
     bordercolor="#666666"
     borderopacity="1"
     objecttolerance="10"
     gridtolerance="10"
     guidetolerance="10"
     inkscape:pageopacity="0"
     inkscape:pageshadow="2"
     inkscape:window-width="1920"
     inkscape:window-height="977"
     id="namedview73"
     showgrid="false"
     inkscape:zoom="1.7307692"
     inkscape:cx="319.13785"
     inkscape:cy="110.03894"
     inkscape:window-x="0"
     inkscape:window-y="0"
     inkscape:window-maximized="1"
     inkscape:current-layer="svg71" />
  <defs
     id="defs22">
    <radialGradient
       id="radial0"
       gradientUnits="userSpaceOnUse"
       cx="90.136406"
       cy="64.761543"
       fx="90.136406"
       fy="64.761543"
       r="91.591759"
       gradientTransform="matrix(1.8,0,0,1.304046,0,32.11876)">
      <stop
         offset="0"
         style="stop-color:rgb(81.960785%,10.588235%,34.509805%);stop-opacity:1;"
         id="stop2" />
      <stop
         offset="1"
         style="stop-color:rgb(50.588238%,6.666667%,22.352941%);stop-opacity:1;"
         id="stop4" />
    </radialGradient>
    <linearGradient
       id="linear0"
       gradientUnits="userSpaceOnUse"
       x1="23.037573"
       y1="6.130066"
       x2="10.984463"
       y2="25.928267"
       gradientTransform="matrix(4.884556,0,0,3.80908,68.216148,18.632979)">
      <stop
         offset="0"
         style="stop-color:rgb(100%,100%,100%);stop-opacity:1;"
         id="stop7" />
      <stop
         offset="1"
         style="stop-color:rgb(100%,72.941178%,48.235294%);stop-opacity:1;"
         id="stop9" />
    </linearGradient>
    <linearGradient
       id="linear1"
       gradientUnits="userSpaceOnUse"
       x1="16.338762"
       y1="13.758957"
       x2="16.338762"
       y2="18.058632"
       gradientTransform="matrix(4.27367,0,0,4.353558,68.216148,18.632979)">
      <stop
         offset="0"
         style="stop-color:rgb(0%,0%,0%);stop-opacity:1;"
         id="stop12" />
      <stop
         offset="1"
         style="stop-color:rgb(72.549021%,33.333334%,2.352941%);stop-opacity:1;"
         id="stop14" />
    </linearGradient>
    <linearGradient
       id="linear2"
       gradientUnits="userSpaceOnUse"
       x1="28.162867"
       y1="13.615636"
       x2="28.162867"
       y2="17.771988"
       gradientTransform="matrix(4.27367,0,0,4.353558,68.216148,18.632979)">
      <stop
         offset="0"
         style="stop-color:rgb(0%,0%,0%);stop-opacity:1;"
         id="stop17" />
      <stop
         offset="1"
         style="stop-color:rgb(72.549021%,33.333334%,2.352941%);stop-opacity:1;"
         id="stop19" />
    </linearGradient>
    <linearGradient
       id="SVGID_1_"
       gradientUnits="userSpaceOnUse"
       x1="49.575699"
       y1="49.646"
       x2="229.2469"
       y2="229.3172">
      <stop
         offset="0"
         style="stop-color:#FF8100"
         id="stop8" />
      <stop
         offset="1"
         style="stop-color:#FF0000"
         id="stop10" />
    </linearGradient>
  </defs>
  <g
     id="surface1">
    <rect
       x="0"
       y="0"
       width="324"
       height="234"
       style="fill:url(#radial0);stroke:none;"
       id="rect24" />
    <path
       style="fill:none;stroke-width:1.021703;stroke-linecap:butt;stroke-linejoin:miter;stroke:rgb(100%,100%,100%);stroke-opacity:1;stroke-miterlimit:4;"
       d="M -0.94401 -1.082899 L 181.217448 -1.082899 L 181.217448 130.605469 L -0.94401 130.605469 Z M -0.94401 -1.082899 "
       transform="matrix(1.8,0,0,1.8,0,0)"
       id="path26" />
    <path
       style=" stroke:none;fill-rule:evenodd;fill:url(#linear0);"
       d="M 118.15625 87.855469 C 117.519531 87.855469 104.773438 87.230469 106.367188 73.503906 C 107.429688 64.351562 112.984375 59.0625 123.035156 57.628906 C 131.464844 58.019531 137.0625 61.648438 139.824219 68.511719 C 144.558594 56.058594 151.535156 48.269531 160.75 45.152344 C 174.578125 40.472656 185.605469 41.40625 194.207031 45.152344 C 202.8125 48.894531 218.742188 59.816406 209.503906 83.214844 C 208.054688 85.890625 206.695312 87.4375 205.417969 87.855469 C 203.507812 88.480469 218.28125 83.214844 220.121094 99.75 C 219.90625 107.625 216.933594 111.773438 211.199219 112.1875 C 214.171875 114.476562 215.128906 116.140625 214.066406 117.179688 C 212.472656 118.742188 199.40625 131.53125 191.125 132.15625 C 185.601562 132.570312 164.144531 131.53125 126.757812 129.035156 C 117.414062 117.597656 112.101562 111.359375 110.828125 110.316406 C 108.917969 108.757812 102.976562 104.714844 104.671875 95.691406 C 106.367188 86.671875 118.792969 87.855469 118.15625 87.855469 Z M 118.15625 87.855469 "
       id="path28" />
    <path
       style=" stroke:none;fill-rule:evenodd;fill:rgb(79.607844%,10.980392%,5.490196%);fill-opacity:1;"
       d="M 150.597656 124.707031 L 151.824219 190.222656 L 143.554688 191.160156 L 140.507812 125.136719 C 140.5 124.996094 140.492188 124.851562 140.492188 124.707031 C 140.492188 121.605469 142.992188 119.089844 145.699219 119.089844 C 148.40625 119.089844 150.597656 121.605469 150.597656 124.707031 Z M 150.597656 124.707031 "
       id="path30" />
    <path
       style=" stroke:none;fill-rule:evenodd;fill:rgb(100%,100%,100%);fill-opacity:1;"
       d="M 122.730469 177.742188 L 118.75 174.625 C 111.601562 135.597656 108.03125 115.632812 108.03125 114.722656 C 108.03125 111.621094 109.246094 109.109375 110.5625 109.109375 C 111.878906 109.109375 112.945312 111.621094 112.945312 114.722656 Z M 122.730469 177.742188 "
       id="path32" />
    <path
       style=" stroke:none;fill-rule:evenodd;fill:rgb(100%,100%,100%);fill-opacity:1;"
       d="M 143.554688 191.160156 L 139.574219 189.285156 C 136.511719 147.042969 134.980469 125.722656 134.980469 125.332031 C 134.980469 122.230469 136.195312 119.714844 137.511719 119.714844 C 138.828125 119.714844 140.492188 121.917969 140.492188 125.019531 Z M 143.554688 191.160156 "
       id="path34" />
    <path
       style=" stroke:none;fill-rule:evenodd;fill:rgb(79.607844%,10.980392%,5.490196%);fill-opacity:1;"
       d="M 125.792969 179.925781 L 122.730469 177.742188 C 115.992188 139.683594 112.625 120.652344 112.625 120.652344 C 112.625 120.652344 112.316406 117.960938 112.316406 116.59375 C 112.316406 113.492188 113.535156 110.980469 114.851562 110.980469 C 116.167969 110.980469 117.234375 113.492188 117.234375 116.59375 Z M 125.792969 179.925781 "
       id="path36" />
    <path
       style=" stroke:none;fill-rule:evenodd;fill:rgb(79.607844%,10.980392%,5.490196%);fill-opacity:1;"
       d="M 171.425781 124.082031 L 171.730469 187.726562 L 161.316406 188.976562 L 161.316406 124.082031 C 161.316406 120.980469 163.816406 118.46875 166.523438 118.46875 C 169.230469 118.46875 171.425781 120.980469 171.425781 124.082031 Z M 171.425781 124.082031 "
       id="path38" />
    <path
       style=" stroke:none;fill-rule:evenodd;fill:rgb(100%,100%,100%);fill-opacity:1;"
       d="M 161.316406 124.867188 L 161.316406 188.976562 L 151.824219 190.222656 L 150.296875 124.867188 C 150.292969 121.605469 152.867188 119.089844 155.65625 119.089844 C 158.445312 119.089844 161.316406 121.765625 161.316406 124.867188 Z M 161.316406 124.867188 "
       id="path40" />
    <path
       style=" stroke:none;fill-rule:evenodd;fill:rgb(100%,100%,100%);fill-opacity:1;"
       d="M 209.429688 181.488281 L 200.699219 182.734375 L 206.210938 120.339844 C 206.210938 117.238281 209.273438 114.410156 212.335938 114.410156 C 215.398438 114.410156 218.15625 116.300781 218.15625 119.402344 C 218.15625 119.660156 215.246094 140.355469 209.429688 181.488281 Z M 209.429688 181.488281 "
       id="path42" />
    <path
       style=" stroke:none;fill-rule:evenodd;fill:rgb(79.607844%,10.980392%,5.490196%);fill-opacity:1;"
       d="M 205.15625 185.773438 L 196.425781 187.089844 L 201.9375 121.273438 C 201.9375 118.003906 205 115.019531 208.0625 115.019531 C 211.125 115.019531 213.882812 117.015625 213.882812 120.285156 C 213.882812 120.558594 210.972656 142.386719 205.15625 185.773438 Z M 205.15625 185.773438 "
       id="path44" />
    <path
       style=" stroke:none;fill-rule:evenodd;fill:rgb(100%,100%,100%);fill-opacity:1;"
       d="M 128.855469 182.109375 L 125.792969 179.925781 C 119.667969 139.773438 116.605469 119.289062 116.605469 118.46875 C 116.605469 115.367188 117.820312 112.851562 119.136719 112.851562 C 120.453125 112.851562 121.519531 115.367188 121.519531 118.46875 Z M 128.855469 182.109375 "
       id="path46" />
    <path
       style=" stroke:none;fill-rule:evenodd;fill:rgb(79.607844%,10.980392%,5.490196%);fill-opacity:1;"
       d="M 131.609375 183.984375 L 128.855469 182.109375 C 123.953125 141.1875 121.503906 120.390625 121.503906 119.714844 C 121.503906 116.613281 122.722656 114.097656 124.039062 114.097656 C 125.355469 114.097656 126.421875 116.613281 126.421875 119.714844 Z M 131.609375 183.984375 "
       id="path48" />
    <path
       style=" stroke:none;fill-rule:evenodd;fill:rgb(100%,100%,100%);fill-opacity:1;"
       d="M 131.167969 122.210938 L 135.898438 187.101562 L 131.609375 183.984375 C 128.039062 143.277344 126.25 122.6875 126.25 122.210938 C 126.25 119.109375 127.46875 116.59375 128.785156 116.59375 C 130.101562 116.59375 131.167969 119.109375 131.167969 122.210938 Z M 131.167969 122.210938 "
       id="path50" />
    <path
       style=" stroke:none;fill-rule:evenodd;fill:rgb(79.607844%,10.980392%,5.490196%);fill-opacity:1;"
       d="M 139.574219 189.285156 L 135.898438 187.101562 L 130.285156 125.609375 C 130.152344 124.945312 130.078125 124.21875 130.078125 123.457031 C 130.078125 120.355469 131.296875 117.84375 132.613281 117.84375 C 133.929688 117.84375 134.996094 120.355469 134.996094 123.457031 Z M 139.574219 189.285156 "
       id="path52" />
    <path
       style=" stroke:none;fill-rule:evenodd;fill:rgb(100%,100%,100%);fill-opacity:1;"
       d="M 180.613281 186.480469 L 171.730469 187.726562 L 171.425781 123.457031 C 171.425781 120.355469 174.613281 117.84375 177.402344 117.84375 C 180.191406 117.84375 181.835938 120.355469 181.835938 123.457031 C 181.835938 123.601562 181.429688 144.609375 180.613281 186.480469 Z M 180.613281 186.480469 "
       id="path54" />
    <path
       style=" stroke:none;fill-rule:evenodd;fill:rgb(100%,100%,100%);fill-opacity:1;"
       d="M 196.84375 184.296875 L 187.042969 185.542969 L 191.332031 121.585938 C 191.332031 118.484375 194.667969 115.972656 197.457031 115.972656 C 200.246094 115.972656 202.355469 118.796875 202.355469 121.898438 C 202.355469 122.191406 200.519531 142.992188 196.84375 184.296875 Z M 196.84375 184.296875 "
       id="path56" />
    <path
       style=" stroke:none;fill-rule:evenodd;fill:rgb(79.607844%,10.980392%,5.490196%);fill-opacity:1;"
       d="M 189.1875 185.230469 L 180.304688 186.480469 L 181.53125 122.210938 C 181.53125 119.109375 184.253906 116.59375 187.042969 116.59375 C 189.832031 116.59375 191.332031 119.109375 191.332031 122.210938 C 191.332031 122.46875 190.617188 143.472656 189.1875 185.230469 Z M 189.1875 185.230469 "
       id="path58" />
    <path
       style=" stroke:none;fill-rule:evenodd;fill:rgb(65.490198%,8.235294%,1.176471%);fill-opacity:1;"
       d="M 150.910156 104.917969 C 150.90625 105.035156 150.90625 105.152344 150.90625 105.273438 C 150.90625 111.183594 156.117188 115.972656 162.542969 115.972656 C 168.96875 115.972656 174.179688 111.183594 174.179688 105.273438 C 174.179688 105.15625 174.179688 105.039062 174.175781 104.925781 C 174.179688 104.863281 174.179688 104.800781 174.179688 104.738281 L 174.179688 100.996094 C 174.179688 99.617188 173.085938 98.5 171.730469 98.5 L 153.355469 98.5 C 152.003906 98.5 150.90625 99.617188 150.90625 100.996094 L 150.90625 104.738281 C 150.90625 104.800781 150.90625 104.859375 150.910156 104.917969 Z M 150.910156 104.917969 "
       id="path60" />
    <path
       style=" stroke:none;fill-rule:evenodd;fill:url(#linear1);"
       d="M 147.230469 87.894531 C 147.230469 93.0625 143.117188 97.253906 138.042969 97.253906 C 132.96875 97.253906 128.855469 93.0625 128.855469 87.894531 C 128.855469 82.722656 132.96875 78.535156 138.042969 78.535156 C 143.117188 78.535156 147.230469 82.722656 147.230469 87.894531 Z M 147.230469 87.894531 "
       id="path62" />
    <path
       style=" stroke:none;fill-rule:evenodd;fill:rgb(100%,100%,100%);fill-opacity:1;"
       d="M 145.378906 84.773438 C 145.378906 87.175781 143.464844 89.125 141.105469 89.125 C 138.746094 89.125 136.832031 87.175781 136.832031 84.773438 C 136.832031 82.367188 138.746094 80.417969 141.105469 80.417969 C 143.464844 80.417969 145.378906 82.367188 145.378906 84.773438 Z M 145.378906 84.773438 "
       id="path64" />
    <path
       style=" stroke:none;fill-rule:evenodd;fill:url(#linear2);"
       d="M 197.457031 86.957031 C 197.457031 91.953125 193.480469 96.003906 188.574219 96.003906 C 183.667969 96.003906 179.695312 91.953125 179.695312 86.957031 C 179.695312 81.960938 183.667969 77.910156 188.574219 77.910156 C 193.480469 77.910156 197.457031 81.960938 197.457031 86.957031 Z M 197.457031 86.957031 "
       id="path66" />
    <path
       style=" stroke:none;fill-rule:evenodd;fill:rgb(100%,100%,100%);fill-opacity:1;"
       d="M 195.582031 84.171875 C 195.582031 86.578125 193.667969 88.527344 191.308594 88.527344 C 188.949219 88.527344 187.035156 86.578125 187.035156 84.171875 C 187.035156 81.769531 188.949219 79.820312 191.308594 79.820312 C 193.667969 79.820312 195.582031 81.769531 195.582031 84.171875 Z M 195.582031 84.171875 "
       id="path68" />
  </g>
  <g
     id="g17"
     transform="matrix(0.28532004,0,0,0.28534576,4.8619951,5.7810836)">
    <polygon
       fill="url(#SVGID_1_)"
       points="101.868,50.182 103.771,32.397 117.271,44.132 121.823,26.835 133.408,40.464 140.496,24.042 149.931,39.24 159.364,24.042 166.452,40.463 178.038,26.835 182.593,44.132 196.093,32.397 197.994,50.182 213.098,40.603 212.324,58.473 228.688,51.251 225.266,68.806 242.52,64.092 236.534,80.947 254.296,78.839 245.874,94.619 263.752,95.184 253.066,109.526 270.653,112.763 257.938,125.338 274.842,131.18 260.385,141.713 276.236,150 260.385,158.285 274.844,168.819 257.938,174.662 270.657,187.238 253.066,190.476 263.75,204.818 245.874,205.384 254.294,221.162 236.532,219.058 242.518,235.913 225.266,231.195 228.686,248.752 212.322,241.53 213.095,259.399 197.99,249.82 196.087,267.603 182.591,255.867 178.038,273.164 166.455,259.538 159.364,275.958 149.931,260.76 140.498,275.958 133.41,259.538 121.823,273.164 117.269,255.867 103.769,267.603 101.866,249.818 86.763,259.397 87.538,241.528 71.172,248.748 74.592,231.193 57.34,235.908 63.324,219.054 45.564,221.16 53.985,205.38 36.11,204.816 46.797,190.476 29.207,187.236 41.924,174.662 25.018,168.821 39.477,158.288 23.625,150 39.477,141.711 25.018,131.182 41.924,125.338 29.208,112.761 46.797,109.525 36.112,95.182 53.987,94.618 45.568,78.837 63.329,80.942 57.344,64.087 74.597,68.803 71.176,51.249 87.538,58.472 86.765,40.601 "
       id="polygon13"
       style="fill:url(#SVGID_1_)" />
    <path
       d="m 80.346628,191.64991 c -4.235196,0 -7.085047,3.55544 -7.085047,8.12673 0,4.57128 2.849851,8.12673 7.085047,8.12673 4.235196,0 7.085048,-3.55545 7.085048,-8.12673 -0.03958,-4.57129 -2.889433,-8.12673 -7.085048,-8.12673 m -0.94995,-5.03688 c 3.403989,0 6.253841,1.86238 7.599604,3.89406 v -3.38614 h 5.224727 v 25.3537 H 88.18372 a 1.1910004,1.2736107 0 0 1 -1.187438,-1.2698 v -2.11634 c -1.345763,2.03169 -4.156034,3.89406 -7.599604,3.89406 -6.491328,0 -11.438987,-5.92574 -11.438987,-13.16361 0,-7.23786 4.908077,-13.20593 11.438987,-13.20593 m 18.761522,0.50792 h 5.22473 v 3.42847 c 1.42492,-2.53961 4.11645,-3.93639 7.20379,-3.93639 5.5018,0 9.06411,4.14802 9.06411,10.58168 v 15.27994 h -3.99771 a 1.1910004,1.2736107 0 0 1 -1.18743,-1.2698 V 198.1259 c 0,-4.02104 -1.89991,-6.43366 -4.94766,-6.43366 -3.44358,0 -6.1351,2.87821 -6.1351,8.29603 v 12.48638 h -3.99771 a 1.1910004,1.2736107 0 0 1 -1.18744,-1.2698 z m 37.95844,4.52896 c -4.2352,0 -7.08505,3.55544 -7.08505,8.12673 0,4.57128 2.84985,8.12673 7.08505,8.12673 4.2352,0 7.08505,-3.55545 7.08505,-8.12673 0,-4.57129 -2.84985,-8.12673 -7.08505,-8.12673 m -0.94995,-5.03688 c 3.40399,0 6.25384,1.86238 7.5996,3.89406 v -16.08415 h 5.22473 v 38.05171 h -3.99771 a 1.1910004,1.2736107 0 0 1 -1.18744,-1.2698 v -2.11634 c -1.34576,2.03169 -4.15603,3.89406 -7.5996,3.89406 -6.49133,0 -11.43899,-5.92574 -11.43899,-13.16361 0,-7.23786 4.90808,-13.20593 11.39941,-13.20593 m 18.76152,0.50792 h 5.22473 v 4.52896 a 6.7133792,7.1790331 0 0 1 6.25384,-4.78292 8.7328156,9.3385418 0 0 1 2.01864,0.21164 v 5.7141 a 8.4082492,8.9914628 0 0 0 -2.61236,-0.46559 c -2.96859,0 -5.6997,2.70891 -5.6997,7.74578 v 12.3594 h -3.99771 a 1.1910004,1.2736107 0 0 1 -1.18744,-1.2698 z m 27.54857,20.65544 c 4.15603,0 7.12462,-3.51312 7.12462,-7.99975 0,-4.52896 -2.92901,-7.99975 -7.12462,-7.99975 -4.2352,0 -7.16421,3.51312 -7.16421,7.99975 0.0396,4.52896 2.92901,7.99975 7.16421,7.99975 m 0,5.20618 a 12.329961,13.185193 0 1 1 12.42851,-13.16361 12.249611,13.09927 0 0 1 -12.42851,13.16361 m 16.66371,-25.86162 h 5.22473 v 25.3537 h -3.99771 a 1.1910004,1.2736107 0 0 1 -1.18744,-1.2698 z m 2.61236,-5.5448 a 3.5563771,3.8030548 0 0 1 -3.52273,-3.76707 3.5148168,3.7586118 0 0 1 3.52273,-3.68243 3.4831518,3.7247504 0 0 1 0,7.4495 m 19.27608,10.07376 c -4.23519,0 -7.08505,3.55544 -7.08505,8.12673 0,4.57128 2.84986,8.12673 7.08505,8.12673 4.2352,0 7.08505,-3.55545 7.08505,-8.12673 -0.0792,-4.57129 -2.84985,-8.12673 -7.08505,-8.12673 m -0.94995,-5.03688 c 3.40399,0 6.25384,1.86238 7.59961,3.89406 v -16.08415 h 5.22472 v 38.05171 h -3.99771 a 1.1910004,1.2736107 0 0 1 -1.18743,-1.2698 v -2.11634 c -1.34577,2.03169 -4.15604,3.89406 -7.59961,3.89406 -6.49133,0 -11.43898,-5.92574 -11.43898,-13.16361 0,-7.23786 4.90807,-13.20593 11.3994,-13.20593"
       id="path2"
       style="fill:#e6e6e6;stroke-width:0.40931" />
    <path
       d="m 190.10549,97.008233 13.65554,-25.269045 a 2.8379771,3.034825 0 0 0 -4.90808,-3.047523 l -13.81386,25.565332 a 85.526417,91.458706 0 0 0 -70.13801,0 L 101.08721,68.691665 a 2.8379771,3.034825 0 0 0 -4.908075,3.047523 L 109.83468,97.008233 C 86.283819,110.63743 70.292985,135.99113 67.957691,165.91612 H 231.82415 c -2.33529,-29.92499 -18.36571,-55.27869 -41.71866,-68.907887 z m -77.89594,43.935127 a 6.8079784,7.2801939 0 1 1 6.80798,-7.28019 6.8079784,7.2801939 0 0 1 -6.80798,7.28019 z m 75.4419,0 a 6.8079784,7.2801939 0 1 1 6.80798,-7.28019 6.8079784,7.2801939 0 0 1 -6.80798,7.28019 z"
       fill="#3ddc84"
       id="path4"
       style="fill:#90dc61;fill-opacity:1;stroke-width:0.40931" />
  </g>
</svg>
