<svg xmlns="http://www.w3.org/2000/svg" xmlns:xlink="http://www.w3.org/1999/xlink" xml:space="preserve" width="324" height="234" viewBox="0 0 324 234"><defs><path id="reuse-0" d="M19 12h10v16h4.996L24 36l-10-8h5m0-16"/></defs><defs><linearGradient id="n"><stop offset="0" stop-color="#e64540"/><stop offset=".1744" stop-color="#c62f5d"/><stop offset="1" stop-color="#382ed1"/></linearGradient><linearGradient id="c"><stop offset="0" stop-color="#fea300"/><stop offset="1" stop-color="#fb0"/></linearGradient><linearGradient id="b"><stop offset="0" stop-color="#c44500"/><stop offset="1" stop-color="#ea6000"/></linearGradient><linearGradient id="a"><stop offset="0" stop-color="#a93100"/><stop offset=".45" stop-color="#f66900"/><stop offset="1" stop-color="#fdca00"/></linearGradient><linearGradient id="p" x1="49.58" x2="229.25" y1="49.65" y2="229.32" gradientUnits="userSpaceOnUse"><stop offset="0" stop-color="#ff8100"/><stop offset="1" stop-color="red"/></linearGradient><linearGradient id="d"><stop offset="0" stop-color="#e64540"/><stop offset=".362" stop-color="#a7197b"/><stop offset="1" stop-color="#382ed1"/></linearGradient><linearGradient id="e"><stop offset="0" stop-color="#ff9a0a"/><stop offset="1" stop-color="#e1252e"/></linearGradient><linearGradient id="f" x1="29.855" x2="54.32" y1="22.346" y2="28.506" gradientUnits="userSpaceOnUse"><stop stop-color="#ffc169"/><stop offset="1" stop-color="#ffa92d"/></linearGradient><linearGradient id="h"><stop offset="0" stop-color="#ffde91"/><stop offset="1" stop-color="#ffc066"/></linearGradient><linearGradient id="i"><stop offset="0" stop-color="#ffccd1"/><stop offset="1" stop-color="#ffd7dd"/></linearGradient><linearGradient id="j"><stop offset="0" stop-color="#ffdfe2"/><stop offset="1" stop-color="#ffdfe3"/></linearGradient><linearGradient id="g"><stop offset="0" stop-color="#ff9a0a"/><stop offset="1" stop-color="#c61f00"/></linearGradient><linearGradient id="k" x1="16.7826" x2="16.7826" y1="3.8575" y2="34.8647" gradientUnits="userSpaceOnUse"><stop offset="0" stop-color="#fd318e"/><stop offset="1" stop-color="#8056f7"/></linearGradient><linearGradient id="l" x1="19.3202" x2="35.8092" y1="21.6264" y2="39.6258" gradientUnits="userSpaceOnUse"><stop offset="0" stop-color="#c841ba"/><stop offset="1" stop-color="#8056f7"/></linearGradient><linearGradient id="m" x1="23.9412" x2="33.759" y1="9.5263" y2="30.0431" gradientUnits="userSpaceOnUse"><stop offset="0" stop-color="#c841ba"/><stop offset="1" stop-color="#8056f7"/></linearGradient><linearGradient xlink:href="#n" id="o" x1="320.6336" x2="2.813" y1="231.4705" y2="1.8196" gradientUnits="userSpaceOnUse"/><clipPath id="q"/><clipPath id="r"/><clipPath id="s"/></defs><path fill="url(#o)" fill-rule="evenodd" d="M0 0v234h324V0Z" paint-order="markers fill stroke"/><path fill="url(#p)" d="m228.69 51.25-3.42 17.56 17.25-4.72-5.99 16.86 17.77-2.11-8.43 15.78 17.88.56-10.68 14.35 17.58 3.23-12.71 12.58 16.9 5.84-14.46 10.53 15.86 8.29-15.86 8.28 14.46 10.54-16.9 5.84 12.72 12.58-17.59 3.24 10.68 14.34-17.88.56 8.42 15.78-17.76-2.1 5.99 16.85-17.25-4.72 3.42 17.56-16.37-7.22.77 17.87-15.1-9.58-1.9 17.78-13.5-11.73-4.55 17.29-11.58-13.62-7.1 16.42-9.43-15.2-9.43 15.2-7.09-16.42-11.59 13.62-4.55-17.29-13.5 11.73-1.9-17.78-15.11 9.58.78-17.87-16.37 7.22 3.42-17.56-17.25 4.72 5.98-16.86-17.76 2.11 8.42-15.78-17.87-.56 10.69-14.34-17.59-3.24 12.71-12.58-16.9-5.84 14.46-10.53L23.63 150l15.85-8.29-14.46-10.53 16.9-5.84-12.71-12.58 17.59-3.23-10.69-14.35 17.88-.56-8.42-15.78 17.76 2.1-5.99-16.85L74.6 68.8l-3.42-17.55 16.36 7.22-.77-17.87 15.1 9.58 1.9-17.78 13.5 11.73 4.55-17.29 11.59 13.62 7.09-16.42 9.43 15.2 9.43-15.2 7.09 16.42 11.59-13.62 4.55 17.29 13.5-11.73 1.9 17.78 15.11-9.58-.78 17.87z" transform="matrix(.285 0 0 .285 6 5.3)"/><path fill="#e6e6e6" d="M28.92 59.99c-1.21 0-2.03 1.01-2.03 2.32 0 1.3.82 2.31 2.03 2.31 1.2 0 2.02-1.01 2.02-2.31-.01-1.3-.83-2.32-2.02-2.32m-.27-1.44c.97 0 1.78.53 2.16 1.11v-.97h1.5v7.24h-1.16a.34.36 0 0 1-.34-.36v-.6a2.64 2.64 0 0 1-2.16 1.1c-1.86 0-3.27-1.69-3.27-3.75 0-2.07 1.4-3.77 3.27-3.77m5.35.14h1.49v.98a2.28 2.28 0 0 1 2.05-1.12c1.57 0 2.59 1.18 2.59 3.02v4.36h-1.14a.34.36 0 0 1-.34-.36v-3.74c0-1.14-.54-1.83-1.41-1.83-.98 0-1.75.82-1.75 2.37v3.56h-1.14a.34.36 0 0 1-.34-.36zM44.83 60c-1.21 0-2.02 1.01-2.02 2.32 0 1.3.81 2.31 2.02 2.31 1.2 0 2.02-1.01 2.02-2.31S46.04 60 44.83 60m-.27-1.44c.97 0 1.78.53 2.17 1.11v-4.59h1.49v10.86h-1.14a.34.36 0 0 1-.34-.36v-.6a2.64 2.64 0 0 1-2.17 1.1c-1.85 0-3.27-1.69-3.27-3.75 0-2.07 1.4-3.77 3.26-3.77m5.35.14h1.5V60a1.92 2.05 0 0 1 1.78-1.37 2.5 2.66 0 0 1 .57.06v1.63a2.4 2.57 0 0 0-.74-.13c-.85 0-1.63.77-1.63 2.21v3.53h-1.14a.34.36 0 0 1-.34-.37zm7.86 5.9c1.19 0 2.03-1 2.03-2.28 0-1.3-.83-2.29-2.03-2.29-1.2 0-2.04 1-2.04 2.29s.83 2.28 2.04 2.28m0 1.48a3.52 3.76 0 1 1 3.55-3.75 3.5 3.74 0 0 1-3.55 3.75m4.76-7.38h1.49v7.24h-1.14a.34.36 0 0 1-.34-.36zm.74-1.58a1.01 1.09 0 0 1-1-1.07 1 1.07 0 0 1 1-1.05 1 1.06 0 0 1 0 2.12m5.5 2.88c-1.2 0-2.02 1.01-2.02 2.32 0 1.3.81 2.31 2.02 2.31 1.2 0 2.02-1.01 2.02-2.31-.02-1.3-.81-2.32-2.02-2.32m-.27-1.44c.97 0 1.78.53 2.17 1.11v-4.59h1.49v10.86h-1.14a.34.36 0 0 1-.34-.36v-.6a2.64 2.64 0 0 1-2.17 1.1c-1.85 0-3.26-1.69-3.26-3.75 0-2.07 1.4-3.77 3.25-3.77"/><path fill="#90dc61" d="m60.23 32.98 3.9-7.21a.81.87 0 0 0-1.4-.87l-3.94 7.3a24.4 26.1 0 0 0-20.01 0l-3.95-7.3a.81.87 0 0 0-1.4.87l3.9 7.21c-6.72 3.89-11.28 11.12-11.95 19.66h46.76c-.67-8.54-5.24-15.77-11.9-19.66zM38.01 45.52a1.94 2.08 0 1 1 1.94-2.08 1.94 2.08 0 0 1-1.94 2.08zm21.52 0a1.94 2.08 0 1 1 1.94-2.08 1.94 2.08 0 0 1-1.94 2.08z"/><g transform="matrix(.9777 0 0 .9938 3.6048 .7267)"><ellipse cx="162" cy="117" fill="#3f45bb" stroke="#3f45bb" stroke-linecap="round" stroke-linejoin="round" stroke-width="1.3902" rx="73.7908" ry="73.574"/><path fill="#f5f5fa" d="M170.7238 71.7275c6.1316.0217 10.734 2.4148 16.0544 4.5221 6.7433 2.628 12.9385 3.7736 20.1244 4.5221v23.515c-11.6769.5389-18.3959-.5083-28.943-5.4266.0283 1.4321.0568 2.8643.0861 4.3398.113 6.5046.1835 13.009.253 19.5143.0454 2.2536.0911 4.5072.138 6.8291.018 2.1743.0349 4.3486.053 6.5889.0286 1.9987.0568 3.9974.0862 6.0567-.6986 6.2477-1.4753 9.5998-6.4107 14.4253-7.4795 4.9118-18.6694 7.1958-24.9289 5.4802-8.228-3.5332-11.4112-7.4928-12.691-14.3956-.6206-8.8945.5897-14.8166 6.3312-21.706 1.2214-1.414 1.904-2.3597 3.5409-3.5502.6612-.5797 2.283-2.0779 3.3536-2.697 2.8252-1.3163 5.7386-.7545 8.2676-.192 2.1079.5194 2.1584.947 3.952.9489l3.4977.0637c-14.0421-12.1439-28.1878-23.719-43.4146-34.368.9754-4.6279 1.4648-6.8648 4.7485-10.4008 6.2815-3.306 9.953-3.469 16.9588-2.261 11.3941 10.1814 18.0674 24.705 25.3251 37.9856.0454-1.1413.0908-2.2825.1374-3.4583.209-5.1409.4314-10.2811.654-15.4215l.2155-5.4442.2297-5.1757c.0664-1.5819.1325-3.1638.201-4.7937.289-3.7017.3842-4.0765 2.1803-5.5011z"/><path fill="#484ec0" d="M140.115 137.46c5.408.2003 9.1197 2.1388 14.277 5.9251 3.3906 3.0307 3.9984 5.2454 3.5794 10.0223-.2156 1.9096-.669 3.2124-1.7193 3.8032-1.9514.7596-4.8135 1.0613-8.9484.0724-4.6367-1.781-7.2678-7.6456-7.641-14.9618-.03-1.8172-.142-3.0174.4523-4.8613z"/></g><g fill="maroon" clip-path="url(#q)" transform="matrix(.8827 0 0 1.1272 -263.466 91.7236)"><use xlink:href="#reuse-0"/></g><g fill="maroon" clip-path="url(#r)" transform="matrix(.8827 0 0 1.1272 -262.855 -51.6714)"><use xlink:href="#reuse-0"/></g><g fill="maroon" clip-path="url(#s)" transform="matrix(.8827 0 0 1.1272 -263.67 21.0676)"><use xlink:href="#reuse-0"/></g></svg>