<svg xmlns="http://www.w3.org/2000/svg" xmlns:xlink="http://www.w3.org/1999/xlink" width="324" height="234" viewBox="0 0 324 234"><defs><linearGradient id="c"><stop offset="0" stop-color="#fea300"/><stop offset="1" stop-color="#fb0"/></linearGradient><linearGradient id="b"><stop offset="0" stop-color="#c44500"/><stop offset="1" stop-color="#ea6000"/></linearGradient><linearGradient id="a"><stop offset="0" stop-color="#a93100"/><stop offset=".45" stop-color="#f66900"/><stop offset="1" stop-color="#fdca00"/></linearGradient><linearGradient id="d" x1="49.58" x2="229.25" y1="49.65" y2="229.32" gradientUnits="userSpaceOnUse"><stop offset="0" stop-color="#ff8100"/><stop offset="1" stop-color="red"/></linearGradient><linearGradient xlink:href="#a" id="e" x1="101.82" x2="207.82" y1="94.54" y2="94.54" gradientUnits="userSpaceOnUse"/><linearGradient xlink:href="#b" id="i" x1="112.52" x2="139.9" y1="171.16" y2="171.16" gradientUnits="userSpaceOnUse"/><linearGradient xlink:href="#c" id="h" x1="146.75" x2="178.81" y1="167.98" y2="167.98" gradientUnits="userSpaceOnUse"/><filter id="f" width="1.33" height="1.29" x="-.17" y="-.14" color-interpolation-filters="sRGB"><feGaussianBlur in="SourceGraphic" result="result6" stdDeviation="3"/><feColorMatrix in="SourceGraphic" result="result7" values="1 0 0 0 0 0 1 0 0 0 0 0 1 0 0 0 0 0 1 0"/><feComposite in="result6" in2="result7" operator="in"/></filter><filter id="g" width="1.03" height="1.19" x="-.01" y="-.1" color-interpolation-filters="sRGB"><feFlood flood-color="#0B2D50" flood-opacity=".7" result="flood"/><feGaussianBlur in="SourceGraphic" result="blur" stdDeviation="1.5"/><feOffset in="blur" result="offset"/><feComposite in="flood" in2="offset" operator="in" result="comp1"/><feComposite in="SourceGraphic" in2="comp1" result="comp2"/></filter></defs><path fill="#f1a800" fill-rule="evenodd" d="M0 0v234h324V0Z" paint-order="markers fill stroke"/><path fill="url(#d)" d="m228.69 51.25-3.42 17.56 17.25-4.72-5.99 16.86 17.77-2.11-8.43 15.78 17.88.56-10.68 14.35 17.58 3.23-12.71 12.58 16.9 5.84-14.46 10.53 15.86 8.29-15.86 8.28 14.46 10.54-16.9 5.84 12.72 12.58-17.59 3.24 10.68 14.34-17.88.56 8.42 15.78-17.76-2.1 5.99 16.85-17.25-4.72 3.42 17.56-16.37-7.22.77 17.87-15.1-9.58-1.9 17.78-13.5-11.73-4.55 17.29-11.58-13.62-7.1 16.42-9.43-15.2-9.43 15.2-7.09-16.42-11.59 13.62-4.55-17.29-13.5 11.73-1.9-17.78-15.11 9.58.78-17.87-16.37 7.22 3.42-17.56-17.25 4.72 5.98-16.86-17.76 2.11 8.42-15.78-17.87-.56 10.69-14.34-17.59-3.24 12.71-12.58-16.9-5.84 14.46-10.53L23.63 150l15.85-8.29-14.46-10.53 16.9-5.84-12.71-12.58 17.59-3.23-10.69-14.35 17.88-.56-8.42-15.78 17.76 2.1-5.99-16.85L74.6 68.8l-3.42-17.55 16.36 7.22-.77-17.87 15.1 9.58 1.9-17.78 13.5 11.73 4.55-17.29 11.59 13.62 7.09-16.42 9.43 15.2 9.43-15.2 7.09 16.42 11.59-13.62 4.55 17.29 13.5-11.73 1.9 17.78 15.11-9.58-.78 17.87z" transform="matrix(.285 0 0 .285 6 5.3)"/><path fill="#e6e6e6" d="M28.92 59.99c-1.21 0-2.03 1.01-2.03 2.32 0 1.3.82 2.31 2.03 2.31 1.2 0 2.02-1.01 2.02-2.31-.01-1.3-.83-2.32-2.02-2.32m-.27-1.44c.97 0 1.78.53 2.16 1.11v-.97h1.5v7.24h-1.16a.34.36 0 0 1-.34-.36v-.6a2.64 2.64 0 0 1-2.16 1.1c-1.86 0-3.27-1.69-3.27-3.75 0-2.07 1.4-3.77 3.27-3.77m5.35.14h1.49v.98a2.28 2.28 0 0 1 2.05-1.12c1.57 0 2.59 1.18 2.59 3.02v4.36h-1.14a.34.36 0 0 1-.34-.36v-3.74c0-1.14-.54-1.83-1.41-1.83-.98 0-1.75.82-1.75 2.37v3.56h-1.14a.34.36 0 0 1-.34-.36zM44.83 60c-1.21 0-2.02 1.01-2.02 2.32 0 1.3.81 2.31 2.02 2.31 1.2 0 2.02-1.01 2.02-2.31S46.04 60 44.83 60m-.27-1.44c.97 0 1.78.53 2.17 1.11v-4.59h1.49v10.86h-1.14a.34.36 0 0 1-.34-.36v-.6a2.64 2.64 0 0 1-2.17 1.1c-1.85 0-3.27-1.69-3.27-3.75 0-2.07 1.4-3.77 3.26-3.77m5.35.14h1.5V60a1.92 2.05 0 0 1 1.78-1.37 2.5 2.66 0 0 1 .57.06v1.63a2.4 2.57 0 0 0-.74-.13c-.85 0-1.63.77-1.63 2.21v3.53h-1.14a.34.36 0 0 1-.34-.37zm7.86 5.9c1.19 0 2.03-1 2.03-2.28 0-1.3-.83-2.29-2.03-2.29-1.2 0-2.04 1-2.04 2.29s.83 2.28 2.04 2.28m0 1.48a3.52 3.76 0 1 1 3.55-3.75 3.5 3.74 0 0 1-3.55 3.75m4.76-7.38h1.49v7.24h-1.14a.34.36 0 0 1-.34-.36zm.74-1.58a1.01 1.09 0 0 1-1-1.07 1 1.07 0 0 1 1-1.05 1 1.06 0 0 1 0 2.12m5.5 2.88c-1.2 0-2.02 1.01-2.02 2.32 0 1.3.81 2.31 2.02 2.31 1.2 0 2.02-1.01 2.02-2.31-.02-1.3-.81-2.32-2.02-2.32m-.27-1.44c.97 0 1.78.53 2.17 1.11v-4.59h1.49v10.86h-1.14a.34.36 0 0 1-.34-.36v-.6a2.64 2.64 0 0 1-2.17 1.1c-1.85 0-3.26-1.69-3.26-3.75 0-2.07 1.4-3.77 3.25-3.77"/><path fill="#90dc61" d="m60.23 32.98 3.9-7.21a.81.87 0 0 0-1.4-.87l-3.94 7.3a24.4 26.1 0 0 0-20.01 0l-3.95-7.3a.81.87 0 0 0-1.4.87l3.9 7.21c-6.72 3.89-11.28 11.12-11.95 19.66h46.76c-.67-8.54-5.24-15.77-11.9-19.66zM38.01 45.52a1.94 2.08 0 1 1 1.94-2.08 1.94 2.08 0 0 1-1.94 2.08zm21.52 0a1.94 2.08 0 1 1 1.94-2.08 1.94 2.08 0 0 1-1.94 2.08z"/><circle cx="154.82" cy="94.54" r="53" fill="url(#e)" stroke="#ea9e1f" stroke-linecap="round" stroke-linejoin="round" stroke-opacity=".85"/><path fill="#474b47" d="M142.3 69.67a7.21 7.21 0 0 0-5.78 7.18v35.36c0 5.62 5.82 9.12 10.47 6.32l29.32-17.69a7.46 7.46 0 0 0 0-12.62L147 70.53a6.73 6.73 0 0 0-4.7-.86z" filter="url(#f)" paint-order="stroke fill markers"/><g filter="url(#g)"><path fill="#fdd300" d="m183.44 152.26-6.33 31.5h9.37l6.32-31.5h-9.36"/><path fill="url(#h)" d="m153.08 152.26-6.33 31.5h10.12c.38-2.35.91-4.7 1.4-7.05.18-.8.12-2.09 1.42-2.57 1.04-.39 2.59-.28 3.76-.28 3.7 0 8.47.56 10.88-1.52 1.81-1.56 2-3.56 2.39-5.38.66-3.15 1.32-6.3 1.92-9.45.3-1.6.5-3.8-2.13-4.8-1.96-.75-5.02-.45-7.24-.45h-16.2m15.7 3.9-2.79 13.8h-6.33l2.79-13.8h6.32"/><path fill="url(#i)" d="M119.73 158.81c-1.8.44-3.06 1.45-3.3 2.6l-3.78 17.85c-.28 1.33-.3 3.92 1.9 3.96l17.28.29a4.06 4.06 0 0 0 3.98-2.9l3.9-17.7c.3-1.3.56-3.9-1.7-3.91l-18.28-.19m10.84 3.2-3.8 18.3h-5.06l3.8-18.3h5.06"/><path fill="#181818" d="m39.48 152.26-6.33 31.5h10.12c.38-2.35.92-4.7 1.41-7.05.17-.8.1-2.09 1.42-2.57 1.04-.39 2.58-.28 3.75-.28 3.7 0 8.47.56 10.88-1.52 1.82-1.56 2.02-3.56 2.4-5.38l1.91-9.45c.33-1.6.5-3.8-2.13-4.8-1.96-.75-5.02-.45-7.24-.45h-16.2m61.24 0-1.26 6.3h-4.56l-.76 3.45h4.56c-.81 5.06-2.08 10.1-3.07 15.15-.36 1.84-1.33 4.52 1.33 5.94 1.17.63 2.78.65 4.27.66 2.36.02 4.72 0 7.08 0l.76-3.45h-4.55l3.54-18.3c1.2 0 2.9.14 3.95-.28 1.4-.55 1.22-2.29 1.36-3.17h-4.55l1.26-6.3h-9.36m-45.54 3.9-2.79 13.8h-6.32l2.78-13.8h6.33m17.96 2.4-.5 3.45h9.61c-.15.93 0 2.62-1.38 3.26-1.08.5-2.91.34-4.19.34-4.27 0-8.37-.2-9.88 2.7-.9 1.73-2.4 10.84-2.44 11.1-.12 1.3.06 2.92 1.93 3.79 1.15.54 2.67.56 4.07.56h13.4c.92 0 2.1.03 2.85-.34.75-.38.85-1.07.96-1.61l3.57-17.4c.32-1.58 1.26-3.93-.91-5.2-1.33-.79-3.49-.65-5.2-.65H73.13m126.76 0-.51 3.45H209c-.15.94 0 2.62-1.39 3.26-1.08.5-2.9.34-4.18.34-4.27 0-9.18-.5-9.88 2.7l-2.44 11.1a3.24 3.24 0 0 0 1.92 3.79c1.15.54 2.67.55 4.07.56 2.36.02 4.73 0 7.09 0 2.1 0 4.21.02 6.32 0 .92 0 2.1.03 2.85-.34.75-.38.85-1.07.96-1.61l3.56-17.4c.32-1.58 1.27-3.93-.9-5.2-1.33-.79-3.5-.65-5.2-.65h-11.9m23.03 0c-1.34 5.94-2.47 11.9-3.71 17.85-.42 1.98-1.73 5.18 1.18 6.71 1.18.63 2.8.63 4.3.64 2.53.02 5.06 0 7.6 0l-1.07 2.34c-2.97.75-6.15.51-9.31.51l-.25 2.72c16.35 0 16.45-.17 18.47-1.36 1.78-3.69 2.14-7.61 2.9-11.4 1.2-6 2.39-12.01 3.68-18h-9.37l-4.3 21.74h-5.06l4.3-21.75h-9.36m46.81 21.75H255.3l.76-3.45h14.42c1.03-3.98 1.65-8 2.48-12 .34-1.62 1.27-3.84-.36-5.31-1.54-1.39-5.29-.99-7.68-.99h-7.6c-1.57 0-3.3-.05-4.69.48a4.62 4.62 0 0 0-2.88 3.12c-1.49 4.73-2.01 9.63-3 14.4-.4 1.87-1.38 4.4.52 6.1 1.22 1.07 3.27 1.1 5.25 1.1 3.62.02 7.25 0 10.88 0 1.45 0 3.92.26 5.12-.34 1.25-.63 1.09-2.23 1.2-3.1m3.8 3.44h6.07l2.82-.34.99-1.76.8-3.9 3.24-15.75h9.1l.76-3.45h-11.13c-1.8 0-3.9-.12-5.43.55-3.24 1.4-3.1 4.68-3.53 6.8-1.2 5.95-2.23 11.93-3.7 17.85m-9.35-21.75-2.28 11.25h-5.06l2.28-11.25h5.06m-183.44 7.05c-.21 2.66-.94 5.32-1.5 7.95-.18.85-.05 2.36-1.24 2.96-1.1.55-3.26.34-4.6.34l2.28-11.25h5.06m126.76 0c-.22 2.66-.95 5.32-1.5 7.95-.18.85-.06 2.36-1.25 2.96-1.1.55-3.26.34-4.6.34l2.29-11.25z"/></g></svg>