<svg xmlns="http://www.w3.org/2000/svg" xml:space="preserve" width="324" height="234" viewBox="0 0 324 234"><defs><linearGradient id="a" x1="49.5757" x2="229.2469" y1="49.646" y2="229.3172" gradientUnits="userSpaceOnUse"><stop offset="0" stop-color="#ff8100"/><stop offset="1" stop-color="red"/></linearGradient></defs><path fill="#fd653b" d="M0 0h324v234H0z"/><path fill="#fd653b" d="M64.7627 44.9022h194.4746v144.1956H64.7627V44.9022z"/><path fill="#fcfcfa" d="M153.3502 82.7279c1.5265.3988 3.0532.7971 4.5801 1.195l2.4573.6452c4.631 1.2064 9.2817 2.3715 13.9314 3.539l2.9042.731c5.488 1.3783 10.9848 2.7341 16.4974 4.0594 5.1958 1.2534 10.388 2.514 15.5645 3.8087l1.9222.4692c4.4097 1.1142 4.4097 1.1142 5.3737 2.515l-5.1882.6282 1.6908 31.8999c2.2828-.2074 2.8748.354 5.2268.1404v-30.1556l3.4588-.6282-.4155 2.2651c-.6252 4.1208-.675 8.2386-.7194 12.3808l-.076 2.4013c-.007.76-.0146 1.52-.022 2.3031l-.0382 2.0843c.4996 2.2259 1.6035 2.8491 3.8651 4.3233.2162 1.7277.2162 1.7277 0 3.1412h3.4588v1.2565c-12.032 2.867-24.1085 5.5902-36.2632 8.1671-10.779 2.2854-21.5287 4.6264-32.2538 7.0432l-2.4328.547c-1.8568.4202-3.7115.8457-5.5648 1.2742l-3.0408.6967-2.775.6417c-5.9164 1.1719-10.686-.552-15.8362-2.6234-3.2966-1.9997-3.5084-3.9235-3.8962-6.9352l-.1334-2.097-.2449-2.0749c-.4241-3.853-.5305-7.6865-.4577-11.55l-14.6998-1.8848-1.7294 15.706c-4.3234-.6282-4.3234-.6282-6.9175-1.8847-1.1088-5.0455.3742-10.675 1.074-15.7208l.3366-2.483c.2339-1.7204.4712-3.4405.711-5.1604.306-2.1984.602-4.3974.8951-6.5967.2832-2.112.576-4.2233.8676-6.3347l.3169-2.3838.3144-2.2185.2676-1.945c.4163-1.8117.9944-3.2642 2.1343-4.9034 2.3982-.9547 2.3982-.9547 5.5125-1.767 1.1704-.3113 2.3401-.6239 3.5094-.9374l1.9148-.505c2.1933-.604 4.342-1.2644 6.4957-1.9393l2.294-.7072a401.3459 401.3459 0 0 0 4.4374-1.3991c7.7062-2.3319 13.1221-1.0605 20.6923.9726z"/><path fill="#fb653b" d="M154.307 87.5292c6.798.72 6.798.72 9.5955 1.4094l1.9046.4598 2.0051.494c6.8964 1.66 13.8294 3.183 20.8136 4.6267 4.747.9874 9.4172 2.0839 14.0838 3.264v7.0495c-5.9005-.432-11.676-1.1147-17.5027-1.9226l-2.5322-.3454a998.1213 998.1213 0 0 1-11.081-1.5772v29.48l21.6083-2.5635.8643-7.6904h-15.558v-8.9722c2.8993.0908 5.7983.1847 8.6974.2804l2.4697.0764c4.4005.1478 8.6872.393 13.0342.925.1263 2.8837.2026 5.767.2701 8.6517l.1097 2.4633.0422 2.4033c.0227.725.0354 1.4633-.0177 2.179-.6644 3.019-1.7976 5.1845-4.726 7.374-2.8751 1.1133-5.8152 1.632-8.9674 2.1604l-2.6246.4907c-2.757.5106-5.5213.9927-8.2876 1.4745-1.8598.3398-3.719.6815-5.5776 1.0251-6.1887 1.136-12.3714 2.2534-18.6237 3.1806Z"/><path fill="#f9faf5" d="m230.2062 101.5232 2.5305.6191c6.1594 1.5237 6.1594 1.5237 7.1392 2.2452.0766 1.836.0995 3.6566.0844 5.4925-.0008.55-.0026 1.1002-.0034 1.667a1612.3165 1612.3165 0 0 1-.0268 5.2924c-.0043 1.193-.0086 2.3861-.0118 3.5792-.0096 2.931-.0245 5.8621-.0422 8.7932l-12.1006 2.546-.8643-1.273h-3.4574v-3.1826h-4.3216a2104.6055 2104.6055 0 0 1-.0475-8.4227 852.2184 852.2184 0 0 0-.0177-2.8593 834.155 834.155 0 0 1-.0192-4.1337c-.0043-.8267-.009-1.6533-.0137-2.505.1027-2.563-1.5003-4.9065-1.016-7.4436l.2498-.0965-2.1852 29.3822c-1.9572.1802-.2078.181-1.9321.6103-.286.0712-3.3272 1.1662-3.6617 1.197v-33.099c7.5459-1.8524 12.4578-.2211 19.7176 1.5913z"/><path fill="#fafbf8" d="M98.1255 91.3744v44.22l-5.186-1.2818-.8643-18.5852c-1.067 3.7376-1.067 3.7376-2.12 7.4773-.136.4653-.272.9305-.4123 1.4098l-.4114 1.4441c-.5137 1.2045-.5137 1.2045-2.2423 2.4862l-3.4574-11.5356-.8643 12.8173-3.4573-.6408V96.5013h3.4573l.476 1.5747.6585 2.1504.638 2.0953c1.0161 3.2103 2.2258 6.3833 3.4135 9.5605l.3693-1.3407a3612.2394 3612.2394 0 0 1 1.6835-6.0694l.5807-2.109a359.7247 359.7247 0 0 1 1.6882-5.8618l.4363-1.4767c.4077-1.2244.4077-1.2244 1.2923-3.0094 2.593-.6408 2.593-.6408 4.3217-.6408Z"/><path fill="#e97550" d="M223.4536 102.91c6.8066.721 6.8066.721 10.318 1.6423l2.0223.5232 1.489.398v4.486l-9.5077-1.2816v5.127h9.5077c.0698 2.0964.1213 4.1916.162 6.2884l.0659 1.8037.0253 1.7336.0411 1.5967c-.3678 1.7429-1.01 2.2629-2.8873 3.3175-3.5418.924-6.6166 1.4505-10.372 1.2817l.8643-5.127c2.3776-.5875 3.768-.7106 6.2124-.6808l3.2953.04v-5.127h-11.2363V102.91Z"/><path fill="#f27046" d="m212.2187 100.5033 6.08.6409-.0297 31.4026h-6.0503z"/><path fill="#f76643" d="m121.4624 97.783.8644 14.0992h-11.2363l.8643-12.8174c5.186-1.2817 5.186-1.2817 9.5076-1.2817z"/><path fill="#fc6436" d="M179.3727 111.8822h13.8293v1.2817h7.779v1.9226c-3.1335.1291-5.0694-.0911-7.779-1.2817v2.5635l2.593.6409c-.8542 1.2717-.8542 1.2717-2.593 2.5634-2.481.1895-4.6134.2432-7.0768.1602l-1.9633-.035c-1.5969-.0302-3.1932-.0761-4.7892-.1252v-7.6904Z"/><path fill="#fb6339" d="M92.0752 114.4457h.8643v19.867l-.8643-1.9227c-1.6567-.534-1.6567-.534-3.4574-.6409l-1.7286.641c1.0634-6.1522 2.8996-11.9946 5.186-17.9444Z"/><path fill="#fb6435" d="M119.7338 98.424c.9527 2.8256.9305 5.437.8643 8.3312h-1.7287l-.8643 1.9227h3.4573v2.5634l-9.5076-.6408v-.641h4.3216l-3.4573-1.2816v-1.2818h4.3217v-6.4087h-3.4573v-1.9226c2.593-.6409 2.593-.6409 6.0503-.6409z"/><path fill="#fafaf4" d="m227.7752 108.6779 10.372 1.2817v3.8452h-10.372v-5.127Z"/><path fill="#f6f1e4" d="M224.3179 82.4022h2.593c1.0862 1.8624 1.7287 3.0736 1.7287 5.127h1.7286l.3782-1.8425c.4862-2.0028.4862-2.0028 1.3505-3.2845h2.593a255.8156 255.8156 0 0 1-.7563 2.7237l-.4254 1.532c-.5396 1.4918-1.2803 2.7236-2.2756 4.0756h-3.4574c-.5842-.905-1.1585-1.8137-1.7286-2.7237l-.9724-1.532c-.7563-1.5121-.7563-1.5121-.7563-4.0756Z"/><path fill="#f8f1e7" d="M212.2173 82.4022h10.372v1.2817h-4.3217v7.0496h-2.593V83.684h-3.4573v-1.2817Z"/><path fill="#f06b41" d="m169.1087 138.7587 3.356.0175 2.5863.0225v.6409l-5.186 1.2817-1.9549.5357-2.0426.5458-1.9245.5282c-2.0913.3524-3.3033.1747-5.3143-.328l2.593-.6408v-1.9226c2.5957-.9623 5.005-.7004 7.887-.681Z"/><path fill="#ef6e4b" d="m147.0142 77.2352 2.1068.04v1.2818h-1.7286l.8643 1.2817h3.4573v1.9226c-4.7772-.466-9.248-1.496-13.8293-2.5634v-.641l2.9712-.2803c2.8709-.336 3.4806-.993 6.1583-1.0414Z"/><path fill="#fbf7eb" d="M92.9395 115.7274h.8643V132.39h1.7287l.8643 2.5635-3.4573-.6409v-18.5852Z"/><path fill="#f06e47" d="M117.1408 124.0587c4.9699-.08 4.9699-.08 6.9146.6409v1.9226h-6.9146v-2.5635Z"/><path fill="#ef6d44" d="M193.202 92.0152h8.6433l1.7286 2.5635c-3.6256-.384-6.9233-1.0093-10.372-1.9226v-.6409Z"/><path fill="#f8f6f1" d="M230.3682 86.8883h1.7287l-.8643 3.8452h-3.4574V88.17h2.593v-1.2817Z"/><path fill="#f06e46" d="M136.156 77.2753v1.9226l1.7287.6408-5.186 1.2818-1.7286-1.2818 2.593-1.2817-2.593-1.2817c2.153-.7982 2.948-.4978 5.186 0z"/><path fill="#ef6f4f" d="M186.2873 129.8265v1.2818l-9.5076-.6409v-.6409c3.4729-.539 6.0659-.6755 9.5076 0z"/><path fill="#f9f9f9" d="m211.4661 97.3556 11.4502 2.4196-.2366 1.0573-11.4502-2.4195z"/><path fill="url(#a)" d="m101.868 50.182 1.903-17.785 13.5 11.735 4.552-17.297 11.585 13.629 7.088-16.422 9.435 15.198 9.433-15.198 7.088 16.421 11.586-13.628 4.555 17.297 13.5-11.735 1.901 17.785 15.104-9.579-.774 17.87 16.364-7.222-3.422 17.555 17.254-4.714-5.986 16.855 17.762-2.108-8.422 15.78 17.878.565-10.686 14.342 17.587 3.237-12.715 12.575 16.904 5.842-14.457 10.533L276.236 150l-15.851 8.285 14.459 10.534-16.906 5.843 12.719 12.576-17.591 3.238 10.684 14.342-17.876.566 8.42 15.778-17.762-2.104 5.986 16.855-17.252-4.718 3.42 17.557-16.364-7.222.773 17.869-15.105-9.579-1.903 17.783-13.496-11.736-4.553 17.297-11.583-13.626-7.091 16.42-9.433-15.198-9.433 15.198-7.088-16.42-11.587 13.626-4.554-17.297-13.5 11.736-1.903-17.785-15.103 9.579.775-17.869-16.366 7.22 3.42-17.555-17.252 4.715 5.984-16.854-17.76 2.106 8.421-15.78-17.875-.564 10.687-14.34-17.59-3.24 12.717-12.574-16.906-5.841 14.459-10.533L23.625 150l15.852-8.289-14.459-10.529 16.906-5.844-12.716-12.577 17.589-3.236-10.685-14.343 17.875-.564-8.419-15.781 17.761 2.105-5.985-16.855 17.253 4.716-3.421-17.554 16.362 7.223-.773-17.871z" transform="matrix(.2853 0 0 .2853 4.862 5.781)"/><path fill="#e6e6e6" d="M27.7865 60.4676c-1.2084 0-2.0215 1.0145-2.0215 2.3189 0 1.3044.8131 2.319 2.0215 2.319 1.2084 0 2.0215-1.0146 2.0215-2.319-.0113-1.3044-.8244-2.319-2.0215-2.319m-.271-1.4372c.9712 0 1.7843.5314 2.1683 1.1112v-.9662h1.4907v7.2345h-1.152a.3398.3634 0 0 1-.3387-.3623v-.6039c-.384.5797-1.1858 1.1112-2.1683 1.1112-1.8521 0-3.2638-1.691-3.2638-3.7562 0-2.0653 1.4004-3.7683 3.2638-3.7683m5.353.145h1.4907v.9783c.4066-.7247 1.1745-1.1233 2.0554-1.1233 1.5698 0 2.5862 1.1836 2.5862 3.0195v4.36H37.86a.3398.3634 0 0 1-.3387-.3623v-3.732c0-1.1474-.5421-1.8358-1.4117-1.8358-.9825 0-1.7505.8212-1.7505 2.3672v3.563h-1.1406a.3398.3634 0 0 1-.3388-.3624zm10.8303 1.2923c-1.2084 0-2.0215 1.0145-2.0215 2.3189 0 1.3044.8131 2.319 2.0215 2.319 1.2084 0 2.0215-1.0146 2.0215-2.319s-.8131-2.319-2.0215-2.319m-.271-1.4372c.9712 0 1.7843.5314 2.1683 1.1112v-4.5896h1.4907V66.41h-1.1406a.3398.3634 0 0 1-.3388-.3624v-.6039c-.384.5797-1.1858 1.1112-2.1683 1.1112-1.8522 0-3.2638-1.691-3.2638-3.7562 0-2.0653 1.4004-3.7683 3.2525-3.7683m5.353.145h1.4907v1.2923a1.9155 2.0485 0 0 1 1.7844-1.3648 2.4916 2.6647 0 0 1 .576.0604v1.6305a2.399 2.5657 0 0 0-.7454-.1329c-.847 0-1.6263.773-1.6263 2.2102v3.5267h-1.1406a.3398.3634 0 0 1-.3388-.3623zm7.8602 5.8939c1.1858 0 2.0328-1.0025 2.0328-2.2827 0-1.2923-.8358-2.2827-2.0328-2.2827-1.2084 0-2.0441 1.0025-2.0441 2.2827.0113 1.2923.8357 2.2827 2.044 2.2827m0 1.4856a3.518 3.7623 0 1 1 3.5462-3.7562 3.495 3.7378 0 0 1-3.5461 3.7562m4.7544-7.3795h1.4908v7.2345h-1.1407a.3398.3634 0 0 1-.3388-.3623zm.7454-1.5822a1.0147 1.0852 0 0 1-1.0051-1.075 1.0028 1.0725 0 0 1 1.0051-1.0507.9938 1.0628 0 0 1 0 2.1257m5.4999 2.8745c-1.2084 0-2.0215 1.0145-2.0215 2.3189 0 1.3044.813 2.319 2.0215 2.319 1.2083 0 2.0215-1.0146 2.0215-2.319-.0226-1.3044-.8132-2.319-2.0215-2.319m-.271-1.4372c.9711 0 1.7843.5314 2.1682 1.1112v-4.5896h1.4908V66.41H69.888a.3398.3634 0 0 1-.3388-.3624v-.6039c-.384.5797-1.1858 1.1112-2.1683 1.1112-1.8521 0-3.2638-1.691-3.2638-3.7562 0-2.0653 1.4004-3.7683 3.2525-3.7683"/><path fill="#90dc61" d="m59.1029 33.462 3.8962-7.2104a.8097.866 0 0 0-1.4004-.8696l-3.9413 7.295a24.4024 26.0974 0 0 0-20.0118 0l-3.9414-7.295a.8097.866 0 0 0-1.4004.8696L36.2 33.462c-6.7195 3.889-11.282 11.1236-11.9483 19.6625H71.006c-.6663-8.539-5.2401-15.7735-11.9032-19.6625zM36.8776 45.9987a1.9425 2.0774 0 1 1 1.9425-2.0774 1.9425 2.0774 0 0 1-1.9425 2.0774zm21.5251 0a1.9425 2.0774 0 1 1 1.9425-2.0774 1.9425 2.0774 0 0 1-1.9425 2.0774z"/></svg>