<svg xmlns="http://www.w3.org/2000/svg" xmlns:xlink="http://www.w3.org/1999/xlink" xml:space="preserve" width="324" height="234" viewBox="0 0 324 234"><defs><linearGradient id="a"><stop offset="0" stop-color="#6ee2a7"/><stop offset=".04" stop-color="#79dca9"/><stop offset="1" stop-color="#2db65d"/></linearGradient><linearGradient id="c" x1="49.58" x2="229.25" y1="49.65" y2="229.32" gradientUnits="userSpaceOnUse"><stop offset="0" stop-color="#ff8100"/><stop offset="1" stop-color="red"/></linearGradient><linearGradient xlink:href="#a" id="b" x1="0" x2="0" y1="0" y2="234" gradientUnits="userSpaceOnUse"/></defs><path fill="url(#b)" d="M0 0h324v234H0Z"/><path fill="url(#c)" d="m101.87 50.18 1.9-17.78 13.5 11.73 4.55-17.3 11.59 13.63 7.09-16.42 9.43 15.2 9.43-15.2 7.1 16.42 11.58-13.62 4.55 17.3 13.5-11.74 1.9 17.78 15.1-9.58-.77 17.87 16.37-7.22-3.42 17.56 17.25-4.72-5.99 16.86 17.77-2.11-8.43 15.78 17.88.56-10.68 14.35 17.58 3.23-12.71 12.58 16.9 5.84-14.45 10.53 15.85 8.29-15.86 8.29 14.46 10.53-16.9 5.84 12.72 12.58-17.6 3.24 10.69 14.34-17.88.56 8.42 15.78-17.76-2.1 5.99 16.85-17.25-4.72 3.42 17.56-16.37-7.22.77 17.87-15.1-9.58-1.9 17.78-13.5-11.73-4.55 17.3-11.59-13.63-7.09 16.42-9.43-15.2-9.43 15.2-7.09-16.42-11.59 13.62-4.55-17.3-13.5 11.74-1.9-17.78-15.1 9.58.77-17.87-16.37 7.22 3.42-17.56-17.25 4.72 5.98-16.86-17.76 2.11 8.42-15.78-17.87-.56 10.69-14.34-17.6-3.24 12.72-12.58-16.9-5.84 14.46-10.53L23.63 150l15.85-8.29-14.46-10.53 16.9-5.84-12.71-12.58 17.59-3.23-10.7-14.35 17.9-.56-8.42-15.78 17.76 2.1-5.99-16.85L74.6 68.8l-3.42-17.55 16.36 7.22-.78-17.87z" transform="translate(4.86 5.78) scale(.2853)"/><path fill="#e6e6e6" d="M27.79 60.47c-1.21 0-2.02 1.01-2.02 2.32 0 1.3.8 2.32 2.02 2.32 1.2 0 2.02-1.02 2.02-2.32-.01-1.3-.83-2.32-2.02-2.32m-.27-1.44c.97 0 1.78.53 2.16 1.11v-.96h1.5v7.23h-1.16a.34.36 0 0 1-.34-.36v-.6a2.64 2.64 0 0 1-2.16 1.1c-1.86 0-3.27-1.69-3.27-3.75 0-2.07 1.4-3.77 3.27-3.77m5.35.15h1.49v.97a2.28 2.28 0 0 1 2.05-1.12c1.57 0 2.6 1.18 2.6 3.02v4.36h-1.15a.34.36 0 0 1-.34-.36v-3.73c0-1.15-.54-1.84-1.41-1.84-.98 0-1.75.82-1.75 2.37v3.56h-1.14a.34.36 0 0 1-.34-.36zm10.83 1.29c-1.21 0-2.02 1.01-2.02 2.32 0 1.3.81 2.32 2.02 2.32 1.2 0 2.02-1.02 2.02-2.32s-.81-2.32-2.02-2.32m-.27-1.44c.97 0 1.78.53 2.17 1.11v-4.59h1.49v10.86h-1.14a.34.36 0 0 1-.34-.36v-.6a2.64 2.64 0 0 1-2.17 1.1c-1.85 0-3.26-1.69-3.26-3.75 0-2.07 1.4-3.77 3.25-3.77m5.35.15h1.5v1.29a1.92 2.05 0 0 1 1.78-1.37 2.5 2.66 0 0 1 .57.06v1.63a2.4 2.57 0 0 0-.74-.13c-.85 0-1.63.77-1.63 2.21v3.53h-1.14a.34.36 0 0 1-.34-.36zm7.86 5.89c1.19 0 2.03-1 2.03-2.28 0-1.3-.83-2.29-2.03-2.29-1.2 0-2.04 1-2.04 2.29s.83 2.28 2.04 2.28m0 1.48a3.52 3.76 0 1 1 3.55-3.75 3.5 3.74 0 0 1-3.55 3.75m4.76-7.37h1.49v7.23h-1.14a.34.36 0 0 1-.34-.36zm.74-1.59a1.01 1.09 0 0 1-1-1.07 1 1.07 0 0 1 1-1.05 1 1.06 0 0 1 0 2.12m5.5 2.88c-1.2 0-2.02 1.01-2.02 2.32 0 1.3.81 2.32 2.02 2.32 1.2 0 2.02-1.02 2.02-2.32-.02-1.3-.81-2.32-2.02-2.32m-.27-1.44c.97 0 1.78.53 2.17 1.11v-4.59h1.49v10.86h-1.14a.34.36 0 0 1-.34-.36v-.6a2.64 2.64 0 0 1-2.17 1.1c-1.85 0-3.26-1.69-3.26-3.75 0-2.07 1.4-3.77 3.25-3.77"/><path fill="#90dc61" d="m59.1 33.46 3.9-7.2a.81.87 0 0 0-1.4-.88l-3.94 7.3a24.4 26.1 0 0 0-20.01 0l-3.95-7.3a.81.87 0 0 0-1.4.87l3.9 7.21c-6.72 3.9-11.28 11.13-11.95 19.66h46.76c-.67-8.53-5.24-15.77-11.9-19.66zM36.88 46a1.94 2.08 0 1 1 1.94-2.08A1.94 2.08 0 0 1 36.88 46zm21.52 0a1.94 2.08 0 1 1 1.95-2.08A1.94 2.08 0 0 1 58.4 46z"/><path fill="#fff" d="m150.26 52.63-38.17 77.9 12.57 25.67 12.98-26.18h50.86l.07.1 12.47-25.66-25.13-51.54.01-.03v-.26h-.15Zm12.83 26.12 12.64 25.48h-25.28Zm52.82 39.02 3.8 7.61h-15.15l3.53 7.1h-18.87l12.12 24.25 9.43-18.85 1.66 3.37 7.64-15.16.63 1.23 4.76-9.54Zm-81.45 43.46-.06.1v20.06h3.35v-4.57c1.2 0 2.34.04 3.5 0 .44-.02.71.16.98.46 1.15 1.31 2.31 2.59 3.5 3.86.16.16.38.25.61.26h4.2l-.06-.16-6.7-7.5a.84.84 0 0 0-.52-.23h-5.53v-12.28Zm-18.3 4.28v20.33h3.32v-4.5h6.98a6.04 6.04 0 0 0 6.14-5.49c.13-1.34.03-2.7.06-4.03.02-1.1-.2-2.13-.73-3.1a5.82 5.82 0 0 0-5.07-3.21Zm36.48 0-.27.03v20.28h3.3v-4.53h.69l7.33-.06.27-.05a5.92 5.92 0 0 0 4.8-5.23c.14-1.78.12-3.58-.05-5.35-.27-2.76-2.93-5.05-5.7-5.07-3.46-.02-6.92-.02-10.37-.02Zm52.51 0a6 6 0 0 0-6.24 5.7c-.03 1.3-.02 2.61-.02 3.91a6.1 6.1 0 0 0 6.22 6.2h9.47v-3.33h-9.21c-.33-.02-.63 0-.91-.05-1.43-.26-2.4-1.7-2.18-2.83h6.3a5.93 5.93 0 0 0 5.79-4.89c.21-1.5.1-3.07.14-4.62 0-.02-.02-.04-.05-.08Zm-34.04.25c-.35 0-.43.11-.43.43v15.54h.5c3.02 0 6.06.04 9.08 0 .7-.02 1.4-.25 2.11-.4l.01.02a6 6 0 0 0 3.86-5.72v-9.83h-3.32v9.8a2.68 2.68 0 0 1-2.8 2.82H174v-12.65c-1 0-1.94.02-2.9 0Zm-30.35.01 3.32 6.65 3.33-6.65Zm53.55.16a6 6 0 0 0-5.16 2.74h-.01a5.63 5.63 0 0 0-.97 3.16v9.65l.02.32h3.28v-.46c0-3.04.05-6.08 0-9.11-.05-1.73 1.24-3.07 2.95-2.96.97.04 1.93 0 2.9 0h.6v-3.34Zm-74.8 2.9h6.9c1.62 0 2.8.95 2.9 2.56.09 1.37.08 2.77-.02 4.16-.1 1.44-1.3 2.44-2.75 2.47h-7.02Zm86.73.02 4.83-.01.1.03c.1.7-.1 1.4-.57 1.92-.53.63-1.2.99-2.04.99l-6.12.03-.15-.02c-.26-1.22.66-2.6 2.01-2.85.76-.15 1.55-.08 1.94-.09Zm-50.56-.01h6.92c1.64-.1 3 1.26 2.91 2.9 0 1.09-.05 2.18.01 3.26a2.79 2.79 0 0 1-2.97 2.96h-6.87Z"/></svg>