<?xml version="1.0" encoding="UTF-8"?>
<svg xmlns="http://www.w3.org/2000/svg" xmlns:xlink="http://www.w3.org/1999/xlink" width="324px" height="234px" viewBox="0 0 324 234" version="1.1">
<g id="surface1">
<rect x="0" y="0" width="324" height="234" style="fill:rgb(50.196081%,85.490197%,24.313726%);fill-opacity:1;stroke:none;"/>
<path style="fill:none;stroke-width:1.021703;stroke-linecap:butt;stroke-linejoin:miter;stroke:rgb(100%,100%,100%);stroke-opacity:1;stroke-miterlimit:4;" d="M -0.94401 -1.082899 L 181.217448 -1.082899 L 181.217448 130.605469 L -0.94401 130.605469 Z M -0.94401 -1.082899 " transform="matrix(1.8,0,0,1.8,0,0)"/>
<path style=" stroke:none;fill-rule:nonzero;fill:rgb(19.607843%,45.490196%,17.647059%);fill-opacity:1;" d="M 231.5625 86.203125 L 231.5625 44.265625 L 132.59375 44.265625 C 121.078125 44.265625 111.746094 54.949219 111.746094 68.125 L 111.746094 139.695312 L 101.320312 139.695312 L 101.320312 84.03125 L 85.609375 84.03125 L 85.609375 155.601562 C 85.609375 159.992188 88.71875 163.554688 92.558594 163.554688 L 113.40625 163.554688 C 113.40625 176.730469 121.078125 187.410156 132.59375 187.410156 L 210.707031 187.410156 C 222.21875 187.410156 231.554688 176.730469 231.554688 163.554688 L 231.554688 97.945312 L 184.558594 97.945312 L 184.558594 115.839844 L 203.757812 115.839844 L 169.003906 171.503906 L 134.257812 115.839844 L 153.285156 115.839844 L 153.285156 62.34375 L 184.558594 62.34375 L 184.558594 86.203125 Z M 231.5625 86.203125 "/>
</g>
</svg>
