<svg xmlns="http://www.w3.org/2000/svg" xmlns:xlink="http://www.w3.org/1999/xlink" width="324" height="234" viewBox="0 0 324 234"><defs><radialGradient xlink:href="#a" id="d" cx="160.13" cy="144.32" r="28.36" fx="160.13" fy="144.32" gradientTransform="matrix(1.06 0 0 2.75 -9.17 -242.5)" gradientUnits="userSpaceOnUse"/><radialGradient xlink:href="#b" id="f" cx="160.15" cy="143.31" r="39.75" fx="160.15" fy="143.31" gradientTransform="matrix(1 0 0 .36 0 92.2)" gradientUnits="userSpaceOnUse"/><radialGradient xlink:href="#c" id="e" cx="160.13" cy="123.77" r="17.45" fx="160.13" fy="123.77" gradientTransform="matrix(1 0 0 1.34 0 -42.44)" gradientUnits="userSpaceOnUse"/><linearGradient id="c"><stop offset="0" stop-color="#fff"/><stop offset="1" stop-color="#e4dcda"/></linearGradient><linearGradient id="b"><stop offset="0" stop-color="#eac408"/><stop offset="1" stop-color="#ea9608"/></linearGradient><linearGradient id="a"><stop offset="0" stop-color="#7e8c81" stop-opacity="0"/><stop offset=".59" stop-color="#86877f" stop-opacity="0"/><stop offset="1" stop-color="#3b402b"/></linearGradient></defs><path fill="#340a21" d="M0 0h324v234H0Z"/><path fill="#e6e6e6" d="M160.95 47.08c14.71.04 29.1 4.16 40.75 13.4 8.2 9.61-7.41 19.9-14.45 10.53-21.16-13.04-50.48-7.9-66.4 11.6a54.17 54.17 0 0 0-13.2 35.55h15.5l-24.2 33-24.22-33h16.14c-.44-30.95 21.42-60.39 50.76-68.4a69.09 69.09 0 0 1 19.32-2.68Zm61.73 38.35 24.2 32.87h-16.13c.4 31.31-22.02 61.08-51.88 68.67-20.15 5.73-42.4 2.65-58.96-10.46-8.45-9.77 7.38-19.96 14.48-10.5 20.5 12.66 48.69 7.55 64.88-10.55a54.1 54.1 0 0 0 14.7-37.16h-15.5l24.2-32.87Zm0 0"/><path fill="#4f4f4f" stroke="url(#d)" stroke-linecap="round" stroke-linejoin="round" stroke-width="2" d="M160.13 76.9c-8.46 0-15.27 6.96-15.27 15.62 0 19.53-13.09 21.48-13.09 35.16 0 15.1 12.7 27.34 28.36 27.34 15.67 0 28.37-12.24 28.37-27.34 0-13.68-13.1-15.63-13.1-35.16 0-8.66-6.8-15.63-15.27-15.63Zm0 0" paint-order="stroke fill markers"/><path fill="url(#e)" d="M160.13 100.33c-5.2 0-8.72 4.18-8.72 9.38 0 11.72-8.73 12.89-8.73 21.1 0 9.05 7.82 16.4 17.45 16.4 9.64 0 17.46-7.35 17.46-16.4 0-8.21-8.73-9.38-8.73-21.1 0-5.2-3.52-9.38-8.73-9.38Zm0 0"/><path fill="url(#f)" stroke="#e69120" stroke-linecap="round" stroke-linejoin="round" d="M143.83 156.92c-2.26-.36-4.3-1.51-6.5-2.1-3.87-1.08-7.88-1.56-11.72-2.77-1.11-.34-2.25-.57-3.34-.98-1.34-.48-1.73-2.16-1.04-3.33.46-1.08 1.2-2.01 1.68-3.08.48-1.37.17-2.85.06-4.25-.22-1.5-.28-3.03-.14-4.54.18-.83.55-1.8 1.46-2.03 1.71-.48 3.6.18 5.27-.55 1.65-.7 1.96-3.1 3.9-3.38a7.3 7.3 0 0 1 2.63-.13c1.38.47 2.3 1.68 3.2 2.76 2.2 2.85 4.3 5.8 6.28 8.8 2.05 3.16 6 5.8 5.81 9.95-.16 3.38-3.56 5.9-6.82 5.68a7 7 0 0 1-.73-.05zm39.47-.94c1.91-1.32 3.3-3.24 5.12-4.67 2.67-2.14 5.58-3.96 8.12-6.26.8-.7 1.68-1.32 2.4-2.1a1.8 1.8 0 0 0-.02-2.4c-.88-1.03-2.27-1.5-3.05-2.65a16.94 16.94 0 0 1-2.17-3.8c-.53-1.16-.96-2.4-1.8-3.39-1.17-1.36-3.03-.94-4.42-.24-1.05.4-2.1 1.05-3.28.85-.78-.21-1.65-.11-2.34-.6-.92-.58-1.94-1.26-3.09-1.05-1.54.07-2.62 1.38-2.9 2.78-.58 2.23-.72 4.54-1.09 6.8-.3 3.2-.46 6.44-1.4 9.54-.63 2.77.3 6.13 3.08 7.37a6.94 6.94 0 0 0 6.84-.18z" paint-order="stroke fill markers"/><path fill="#fff" d="M160.13 92.52c0 3.23-2.93 5.86-6.54 5.86-3.62 0-6.55-2.63-6.55-5.86 0-3.24 2.93-5.86 6.55-5.86 3.61 0 6.54 2.62 6.54 5.86Zm0 0"/><path fill="#323232" d="M155.77 92.52c0 1.07-.98 1.95-2.18 1.95-1.2 0-2.18-.88-2.18-1.95 0-1.08.97-1.96 2.18-1.96 1.2 0 2.18.88 2.18 1.96Zm0 0"/><path fill="#fff" d="M173.22 92.52c0 3.23-2.93 5.86-6.54 5.86-3.62 0-6.55-2.63-6.55-5.86 0-3.24 2.93-5.86 6.55-5.86 3.61 0 6.54 2.62 6.54 5.86Zm0 0"/><path fill="#f77d00" d="M168.86 98.38c0 5.39-3.9 9.76-8.73 9.76-4.82 0-8.72-4.37-8.72-9.77Zm0 0"/><path fill="#323232" d="M168.86 92.52c0 1.07-.98 1.95-2.18 1.95-1.2 0-2.18-.88-2.18-1.95 0-1.08.97-1.96 2.18-1.96 1.2 0 2.18.88 2.18 1.96Zm0 0"/><path fill="#eab108" d="M168.86 99.35c0 .98-3.9 6.84-8.73 6.84-4.82 0-8.72-5.86-8.72-6.84 0-2.7 3.9-4.88 8.72-4.88s8.73 2.19 8.73 4.88Zm0 0"/><path fill="#4f4f4f" d="M181.95 137.44c-3.61 0-4.23-2.62-4.36-5.86-.15-3.53.25-5.57 6.54-5.86 7.07-2.4 4.72 11.53-2.18 11.72Zm0 0"/></svg>