<svg xmlns="http://www.w3.org/2000/svg" width="324" height="234" viewBox="0 0 324 234"><defs><filter id="a" width="1.12" height="1.11" x="-.06" y="-.06" color-interpolation-filters="sRGB"><feFlood flood-color="#0B2D50" flood-opacity=".4" result="flood"/><feGaussianBlur in="SourceGraphic" result="blur" stdDeviation="1"/><feOffset in="blur" result="offset"/><feComposite in="offset" in2="flood" operator="in" result="comp1"/><feComposite in="SourceGraphic" in2="comp1" result="comp2"/></filter></defs><path fill="#e6e6e6" d="M0 0h324v234H0z"/><g filter="url(#a)" transform="matrix(3.2 0 0 3.2 86.82 41.58)"><path fill="#599ccd" d="M32.45 24.71V6.51l10.86-4.64v23.6c0 2.84-10.86 3.17-10.86-.76z"/><path fill="#7ec183" d="M23.32 45.27c-3.4 0-6.34-.48-8.8-1.44-2.48-.95-3.18-2.75-4.72-4.4-.83-.87 6.89.52 12.02-.6 4.94-1.04 7.31-4.44 8.14-5.25 1.66-1.64 2.49-4.42 2.49-8.35V8.4c4.47 1.74 10.12 7.7 10.85 14.18v3.39c0 2.84-.4 5.45-1.18 7.83-.8 2.37-2 4.41-3.64 6.1a16.28 16.28 0 0 1-6.22 3.95 25.6 25.6 0 0 1-8.95 1.4z"/><path fill="#4675ab" d="M29.53 34.6c-1.03 1.96-5.75 7.82-14.8 8.74l-1.3.03a15.9 15.9 0 0 1-5.03-3.52c-1.6-1.7-2.8-3.72-3.56-6.08a24.93 24.93 0 0 1-1.16-7.79v-6.61l10.86-4.82v10.68c0 1.97.22 3.64.67 5.02a9.15 9.15 0 0 0 1.82 3.37 6.47 6.47 0 0 0 2.81 1.86c1.1.38 2.31.56 3.62.56 2.67 0 4.84-.82 6.5-2.46l-.43 1.03z"/></g></svg>