<?xml version="1.0" encoding="UTF-8" standalone="no"?>
<svg
   xmlns:dc="http://purl.org/dc/elements/1.1/"
   xmlns:cc="http://creativecommons.org/ns#"
   xmlns:rdf="http://www.w3.org/1999/02/22-rdf-syntax-ns#"
   xmlns:svg="http://www.w3.org/2000/svg"
   xmlns="http://www.w3.org/2000/svg"
   xmlns:xlink="http://www.w3.org/1999/xlink"
   width="324"
   height="234"
   viewBox="0 0 324 234"
   version="1.1"
   id="svg100">
  <metadata
     id="metadata104">
    <rdf:RDF>
      <cc:Work
         rdf:about="">
        <dc:format>image/svg+xml</dc:format>
        <dc:type
           rdf:resource="http://purl.org/dc/dcmitype/StillImage" />
        <dc:title></dc:title>
      </cc:Work>
    </rdf:RDF>
  </metadata>
  <defs
     id="defs14">
    <radialGradient
       id="a"
       cx="500"
       cy="500"
       r="500"
       gradientUnits="userSpaceOnUse">
      <stop
         offset="0"
         stop-color="#ff7700"
         id="stop4" />
      <stop
         offset="1"
         stop-color="#404"
         id="stop6" />
    </radialGradient>
    <radialGradient
       id="b"
       cx="500"
       cy="500"
       r="600"
       gradientUnits="userSpaceOnUse">
      <stop
         offset="0"
         stop-color="#dd33bb"
         stop-opacity="1"
         id="stop9" />
      <stop
         offset="1"
         stop-color="#dd33bb"
         stop-opacity="0"
         id="stop11" />
    </radialGradient>
    <clipPath
       clipPathUnits="userSpaceOnUse"
       id="clipPath153">
      <rect
         style="fill:#dbdbdb;fill-opacity:0.732839;stroke-width:79.8484"
         id="rect155"
         width="808.40479"
         height="808.40479"
         x="95.797615"
         y="95.797615" />
    </clipPath>
    <linearGradient
       id="linearGradient972">
      <stop
         id="stop968"
         offset="0"
         style="stop-color:#ebf7fc;stop-opacity:1" />
      <stop
         id="stop970"
         offset="1"
         style="stop-color:#4eccff;stop-opacity:1" />
    </linearGradient>
    <linearGradient
       id="linearGradient833">
      <stop
         style="stop-color:#ffffff;stop-opacity:0;"
         offset="0"
         id="stop831" />
      <stop
         style="stop-color:#ffffff;stop-opacity:0.39669421"
         offset="1"
         id="stop829" />
    </linearGradient>
    <linearGradient
       id="linearGradient821">
      <stop
         style="stop-color:#74daff;stop-opacity:1"
         offset="0"
         id="stop819" />
      <stop
         style="stop-color:#0086b9;stop-opacity:1"
         offset="1"
         id="stop817" />
    </linearGradient>
    <radialGradient
       gradientTransform="matrix(2.5676983,0,0,2.5676983,-12.209916,-291.84862)"
       gradientUnits="userSpaceOnUse"
       r="29.104166"
       fy="147.51042"
       fx="72.382439"
       cy="147.51042"
       cx="72.382439"
       id="radialGradient823"
       xlink:href="#linearGradient821" />
    <linearGradient
       gradientTransform="matrix(1.2507718,0,0,1.1895453,-50.968384,75.345366)"
       gradientUnits="userSpaceOnUse"
       y2="133.19487"
       x2="72.739418"
       y1="167.49188"
       x1="63.709988"
       id="linearGradient837"
       xlink:href="#linearGradient833" />
    <radialGradient
       gradientUnits="userSpaceOnUse"
       gradientTransform="matrix(-0.48958464,0.82684543,-0.67837873,-0.40167722,595.59701,-81.494359)"
       r="149.3335"
       fy="358.79398"
       fx="379.06229"
       cy="358.79398"
       cx="379.06229"
       id="radialGradient954"
       xlink:href="#linearGradient972" />
    <linearGradient
       y2="133.19487"
       x2="72.739418"
       y1="167.49188"
       x1="63.709988"
       gradientTransform="matrix(2.8886605,0,0,2.7472577,-34.896026,-319.59988)"
       gradientUnits="userSpaceOnUse"
       id="linearGradient1038"
       xlink:href="#linearGradient833" />
  </defs>
  <rect
     fill="#ffaa00"
     width="323.97974"
     height="234"
     id="rect198"
     x="0"
     y="0"
     style="stroke-width:0.243367" />
  <path
     fill="#ffb100"
     d="M 98.408847,206.4465 C 76.276981,200.07 53.173175,197.028 30.514842,200.772 20.14749,202.43925 9.9218797,205.6275 0,210.5415 V 234 h 170.85882 c -23.46829,-9.711 -46.73408,-19.91925 -70.3846,-26.9685 -0.688459,-0.20475 -1.376916,-0.38025 -2.065373,-0.585 z"
     id="path200"
     style="stroke-width:0.243367" />
  <path
     fill="#ffb800"
     d="M 323.97974,0 H 0 v 210.5415 c 9.9218797,-4.914 20.14749,-8.1315 30.514842,-9.79875 22.658333,-3.71475 45.762139,-0.702 67.894005,5.6745 0.688457,0.20475 1.376914,0.4095 2.065373,0.585 23.65052,7.02 46.91631,17.2575 70.3846,26.9685 h 153.12092 z"
     id="path202"
     style="stroke-width:0.243367" />
  <path
     fill="#ffbf00"
     d="m 96.869943,169.9425 c 0.64796,0.234 1.295919,0.49725 1.92363,0.73125 39.728017,15.35625 78.706827,39.04875 120.176237,51.6555 35.27329,10.7055 70.76932,8.541 105.00993,-2.9835 V 0 H 0 v 168.15825 c 10.590088,-5.148 21.564902,-8.10225 32.62071,-9.03825 21.726892,-1.9305 43.453784,2.9835 64.249233,10.8225 z"
     id="path204"
     style="stroke-width:0.243367" />
  <path
     fill="#ffc500"
     d="m 0,0 v 125.5995 c 11.258296,-5.382 22.982313,-7.98525 34.70633,-8.10225 20.815699,-0.234 41.145428,6.63975 60.604461,15.94125 0.607462,0.2925 1.194675,0.585 1.802137,0.8775 37.176672,18.135 74.049622,42.73425 113.878882,56.18925 37.80438,12.78225 76.19598,10.062 112.96769,-3.6855 V 0 Z"
     id="path206"
     style="stroke-width:0.243367" />
  <path
     fill="#ffcc00"
     d="m 36.812198,75.8745 c 19.884257,1.755 38.857321,10.296 56.959689,21.08925 0.566965,0.32175 1.113681,0.67275 1.680645,0.9945 34.625338,20.943 69.392408,46.36125 107.581528,60.75225 40.25448,15.1515 81.68339,11.934 120.94568,-4.329 V 0 H 0 v 82.836 c 11.946753,-5.733 24.419973,-8.04375 36.812198,-6.9615 z"
     id="path208"
     style="stroke-width:0.243367" />
  <path
     fill="#ffd624"
     d="M 323.97974,0 H 0 v 39.86775 c 12.614961,-6.11325 25.857633,-8.04375 38.918067,-5.616 18.952815,3.53925 36.548965,13.95225 53.314916,26.208 0.526467,0.38025 1.032686,0.7605 1.559153,1.14075 32.073994,23.72175 64.735204,49.98825 101.304414,65.286 42.62359,17.8425 87.23155,14.3325 128.90344,-4.8555 V 0 Z"
     id="path210"
     style="stroke-width:0.243367" />
  <path
     fill="#ffe038"
     d="m 92.111491,25.24275 c 29.522659,26.52975 60.077989,53.5275 95.007059,69.81975 42.23886,19.7145 87.33279,17.784 129.16668,-1.55025 2.59183,-1.19925 5.14317,-2.457 7.71476,-3.77325 V 0 H 58.336603 c 11.339291,6.23025 22.010374,14.8005 32.337228,23.985 0.485969,0.4095 0.95169,0.84825 1.43766,1.25775 z"
     id="path212"
     style="stroke-width:0.243367" />
  <path
     fill="#ffeb49"
     d="M 323.97974,0 H 100.8387 c 23.91375,25.0965 49.30566,48.11625 78.3221,63.2385 38.83707,20.241 80.99493,21.84975 120.47997,6.17175 8.26148,-3.276 16.42172,-7.371 24.35922,-12.19725 V 0 Z"
     id="path214"
     style="stroke-width:0.243367" />
  <path
     fill="#fff558"
     d="m 282.97606,45.279 c 9.5574,-3.1005 18.95281,-7.40025 28.06474,-12.8115 4.39398,-2.60325 8.70696,-5.499 12.93894,-8.62875 V 0 H 130.28035 c 12.73646,12.19725 26.26261,22.8735 40.9227,31.4145 35.41503,20.67975 74.65708,25.94475 111.77301,13.8645 z"
     id="path216"
     style="stroke-width:0.243367" />
  <path
     fill="#ffff66"
     d="M 266.3316,21.177 C 281.5789,17.4915 296.48196,10.32525 310.23085,0 H 163.83251 c 31.93225,20.7675 67.95475,29.5425 102.49909,21.177 z"
     id="path218"
     style="stroke-width:0.243367" />
  <circle
     r="74.730721"
     cy="117"
     cx="162"
     id="path815"
     style="fill:url(#radialGradient823);fill-opacity:1;stroke:none;stroke-width:0.67937" />
  <path
     style="fill:url(#radialGradient954);fill-opacity:1;stroke-width:0.21636"
     d="m 192.00195,92.485809 h -13.84707 c -1.27566,0 -2.30791,0.977949 -2.30791,2.254475 v 13.856156 c 0,1.27652 1.03225,2.30943 2.30791,2.30943 h 2.30792 v 1.69821 c 0,1.61253 -0.85873,3.1303 -2.24257,3.96026 l -11.60449,6.96788 V 87.812209 h 6.92353 c 0.8384,0 1.61145,-0.455655 2.01929,-1.190847 0.40568,-0.733029 0.38317,-1.630492 -0.0632,-2.343183 L 163.95624,65.803167 c -0.84294,-1.348574 -3.06973,-1.348574 -3.91245,0 l -11.53915,18.475012 c -0.44635,0.712691 -0.46885,1.610154 -0.0632,2.343183 0.40784,0.735192 1.18089,1.190847 2.01929,1.190847 h 6.92353 v 49.883831 l -9.16611,-5.09702 c -1.46497,-0.81178 -2.37326,-2.35898 -2.37326,-4.03469 v -4.78113 c 4.06801,-1.78692 6.92354,-5.84541 6.92354,-10.56812 0,-6.36662 -5.17686,-11.49804 -11.53915,-11.49804 -6.36229,0 -11.53915,5.13142 -11.53915,11.49804 0,4.72271 2.85553,8.78099 6.92353,10.56812 v 4.78113 c 0,5.03146 2.72939,9.67283 7.12194,12.11056 l 13.64866,7.58862 v 5.18962 c -4.06801,1.78692 -6.92353,5.84541 -6.92353,10.56812 0,6.36663 5.17685,11.54694 11.53914,11.54694 6.3623,0 11.53915,-5.18031 11.53915,-11.54694 0,-4.72271 -2.85552,-8.78098 -6.92353,-10.56812 v -19.14811 l 16.35317,-9.82038 c 4.14936,-2.48749 6.72534,-7.0408 6.72534,-11.88056 v -1.69821 h 2.30792 c 1.27566,0 2.30791,-1.03291 2.30791,-2.30943 V 94.740284 c -2.1e-4,-1.276526 -1.03247,-2.254475 -2.30791,-2.254475 z"
     id="path881" />
  <ellipse
     ry="37.122726"
     rx="45.311565"
     cy="81.235954"
     cx="162.18199"
     id="path827"
     style="fill:url(#linearGradient1038);fill-opacity:1;stroke:none;stroke-width:0.745351" />
</svg>
