<?xml version="1.0" encoding="UTF-8"?>
<svg xmlns="http://www.w3.org/2000/svg" xmlns:xlink="http://www.w3.org/1999/xlink" width="324px" height="234px" viewBox="0 0 324 234" version="1.1">
<defs>
<radialGradient id="radial0" gradientUnits="userSpaceOnUse" cx="90.136406" cy="64.761543" fx="90.136406" fy="64.761543" r="91.591759" gradientTransform="matrix(1.8,0,0,1.304046,0,32.11876)">
<stop offset="0" style="stop-color:rgb(100%,100%,100%);stop-opacity:1;"/>
<stop offset="1" style="stop-color:rgb(89.019608%,89.019608%,89.019608%);stop-opacity:1;"/>
</radialGradient>
</defs>
<g id="surface1">
<rect x="0" y="0" width="324" height="234" style="fill:url(#radial0);stroke:none;"/>
<path style="fill:none;stroke-width:1.021703;stroke-linecap:butt;stroke-linejoin:miter;stroke:rgb(100%,100%,100%);stroke-opacity:1;stroke-miterlimit:4;" d="M -0.94401 -1.082899 L 181.217448 -1.082899 L 181.217448 130.605469 L -0.94401 130.605469 Z M -0.94401 -1.082899 " transform="matrix(1.8,0,0,1.8,0,0)"/>
<path style=" stroke:none;fill-rule:nonzero;fill:rgb(12.54902%,67.450982%,85.09804%);fill-opacity:1;" d="M 97.226562 85.109375 L 84.476562 63.042969 L 109.964844 63.035156 Z M 97.226562 85.109375 "/>
<path style=" stroke:none;fill-rule:nonzero;fill:rgb(15.294118%,65.490198%,83.137256%);fill-opacity:1;" d="M 97.222656 85.109375 L 109.964844 63.039062 L 122.707031 85.109375 Z M 97.222656 85.109375 "/>
<path style=" stroke:none;fill-rule:nonzero;fill:rgb(14.509805%,61.960787%,82.352942%);fill-opacity:1;" d="M 109.96875 107.183594 L 97.222656 85.117188 L 122.707031 85.109375 Z M 109.96875 107.183594 "/>
<path style=" stroke:none;fill-rule:nonzero;fill:rgb(16.470589%,55.686277%,80.784315%);fill-opacity:1;" d="M 109.964844 107.179688 L 122.707031 85.109375 L 135.449219 107.179688 Z M 109.964844 107.179688 "/>
<path style=" stroke:none;fill-rule:nonzero;fill:rgb(18.82353%,53.333336%,78.431374%);fill-opacity:1;" d="M 122.710938 129.257812 L 109.964844 107.1875 L 135.449219 107.183594 Z M 122.710938 129.257812 "/>
<path style=" stroke:none;fill-rule:nonzero;fill:rgb(20.784314%,47.843137%,74.509805%);fill-opacity:1;" d="M 122.707031 129.253906 L 135.449219 107.183594 L 148.191406 129.253906 Z M 122.707031 129.253906 "/>
<path style=" stroke:none;fill-rule:nonzero;fill:rgb(22.745098%,42.745098%,70.19608%);fill-opacity:1;" d="M 135.453125 151.328125 L 122.707031 129.261719 L 148.191406 129.257812 Z M 135.453125 151.328125 "/>
<path style=" stroke:none;fill-rule:nonzero;fill:rgb(13.333334%,41.176471%,49.019608%);fill-opacity:1;" d="M 135.449219 151.328125 L 148.191406 129.257812 L 160.933594 151.328125 Z M 135.449219 151.328125 "/>
<path style=" stroke:none;fill-rule:nonzero;fill:rgb(22.745098%,60.392159%,69.411767%);fill-opacity:1;" d="M 160.9375 151.328125 L 148.191406 129.261719 L 173.675781 129.257812 Z M 160.9375 151.328125 "/>
<path style=" stroke:none;fill-rule:nonzero;fill:rgb(22.745098%,65.098041%,68.235296%);fill-opacity:1;" d="M 148.191406 129.253906 L 160.933594 107.183594 L 173.675781 129.253906 Z M 148.191406 129.253906 "/>
<path style=" stroke:none;fill-rule:nonzero;fill:rgb(23.137255%,67.450982%,67.450982%);fill-opacity:1;" d="M 173.683594 129.253906 L 160.933594 107.1875 L 186.417969 107.179688 Z M 173.683594 129.253906 "/>
<path style=" stroke:none;fill-rule:nonzero;fill:rgb(23.921569%,66.666669%,62.7451%);fill-opacity:1;" d="M 160.933594 107.179688 L 173.675781 85.109375 L 186.417969 107.179688 Z M 160.933594 107.179688 "/>
<path style=" stroke:none;fill-rule:nonzero;fill:rgb(24.705882%,66.666669%,55.29412%);fill-opacity:1;" d="M 186.425781 107.183594 L 173.675781 85.117188 L 199.160156 85.109375 Z M 186.425781 107.183594 "/>
<path style=" stroke:none;fill-rule:nonzero;fill:rgb(25.098041%,67.058825%,52.549022%);fill-opacity:1;" d="M 173.675781 85.109375 L 186.417969 63.039062 L 199.160156 85.109375 Z M 173.675781 85.109375 "/>
<path style=" stroke:none;fill-rule:nonzero;fill:rgb(18.431373%,41.960785%,32.941177%);fill-opacity:1;" d="M 173.734375 129.230469 L 160.984375 107.164062 L 186.46875 107.15625 Z M 173.734375 129.230469 "/>
<path style=" stroke:none;fill-rule:nonzero;fill:rgb(26.666668%,70.588237%,58.823532%);fill-opacity:1;" d="M 160.984375 107.15625 L 173.726562 85.085938 L 186.46875 107.15625 Z M 160.984375 107.15625 "/>
<path style=" stroke:none;fill-rule:nonzero;fill:rgb(32.156864%,72.156864%,60.784316%);fill-opacity:1;" d="M 186.476562 107.15625 L 173.726562 85.089844 L 199.210938 85.085938 Z M 186.476562 107.15625 "/>
<path style=" stroke:none;fill-rule:nonzero;fill:rgb(36.078432%,72.941178%,61.56863%);fill-opacity:1;" d="M 173.726562 85.082031 L 186.46875 63.011719 L 199.210938 85.082031 Z M 173.726562 85.082031 "/>
<path style=" stroke:none;fill-rule:nonzero;fill:rgb(43.529412%,75.294119%,65.098041%);fill-opacity:1;" d="M 199.21875 85.085938 L 186.46875 63.019531 L 211.957031 63.011719 Z M 199.21875 85.085938 "/>
<path style=" stroke:none;fill-rule:nonzero;fill:rgb(53.333336%,78.823531%,69.803923%);fill-opacity:1;" d="M 199.121094 85.109375 L 211.863281 63.039062 L 224.605469 85.109375 Z M 199.121094 85.109375 "/>
<path style=" stroke:none;fill-rule:nonzero;fill:rgb(60.000002%,81.568629%,73.333335%);fill-opacity:1;" d="M 224.601562 85.085938 L 211.863281 63.011719 L 237.347656 63.015625 Z M 224.601562 85.085938 "/>
<path style=" stroke:none;fill-rule:nonzero;fill:rgb(21.568628%,62.7451%,51.764709%);fill-opacity:1;" d="M 173.667969 129.15625 L 186.53125 107.15625 L 199.152344 129.300781 Z M 173.667969 129.15625 "/>
<path style=" stroke:none;fill-rule:nonzero;fill:rgb(20.784314%,53.725493%,42.352942%);fill-opacity:1;" d="M 186.378906 151.300781 L 199.121094 129.230469 L 211.863281 151.300781 Z M 186.378906 151.300781 "/>
<path style=" stroke:none;fill-rule:nonzero;fill:rgb(21.568628%,60.784316%,49.803922%);fill-opacity:1;" d="M 211.867188 151.300781 L 199.121094 129.234375 L 224.605469 129.226562 Z M 211.867188 151.300781 "/>
<path style=" stroke:none;fill-rule:nonzero;fill:rgb(23.137255%,67.843139%,56.862748%);fill-opacity:1;" d="M 211.863281 151.296875 L 224.605469 129.226562 L 237.347656 151.296875 Z M 211.863281 151.296875 "/>
<path style=" stroke:none;fill-rule:nonzero;fill:rgb(21.176471%,56.078434%,45.490196%);fill-opacity:1;" d="M 186.382812 151.300781 L 173.636719 129.234375 L 199.121094 129.226562 Z M 186.382812 151.300781 "/>
<path style=" stroke:none;fill-rule:nonzero;fill:rgb(16.862746%,16.862746%,16.470589%);fill-opacity:1;" d="M 105.058594 181.605469 L 112.3125 160.613281 L 108.234375 160.613281 L 105.183594 170.207031 C 104.339844 172.761719 103.59375 175.3125 103.03125 177.804688 L 102.972656 177.804688 C 102.410156 175.25 101.726562 172.792969 100.914062 170.144531 L 98.050781 160.613281 L 93.875 160.613281 L 100.667969 181.605469 Z M 105.058594 181.605469 "/>
<path style=" stroke:none;fill-rule:nonzero;fill:rgb(16.862746%,16.862746%,16.470589%);fill-opacity:1;" d="M 127.078125 175.097656 C 127.136719 174.753906 127.199219 174.191406 127.199219 173.476562 C 127.199219 170.144531 125.582031 166.09375 120.660156 166.09375 C 115.800781 166.09375 113.25 170.050781 113.25 174.253906 C 113.25 178.894531 116.144531 181.917969 121.066406 181.917969 C 123.246094 181.917969 125.050781 181.511719 126.359375 180.980469 L 125.800781 178.335938 C 124.648438 178.769531 123.371094 179.019531 121.59375 179.019531 C 119.164062 179.019531 117.015625 177.835938 116.921875 175.097656 Z M 116.921875 172.417969 C 117.078125 170.859375 118.074219 168.710938 120.441406 168.710938 C 122.996094 168.710938 123.621094 171.015625 123.589844 172.417969 Z M 116.921875 172.417969 "/>
<path style=" stroke:none;fill-rule:nonzero;fill:rgb(16.862746%,16.862746%,16.470589%);fill-opacity:1;" d="M 130.65625 181.605469 L 134.488281 181.605469 L 134.488281 173.757812 C 134.488281 173.320312 134.550781 172.914062 134.613281 172.574219 C 134.957031 170.859375 136.203125 169.675781 138.039062 169.675781 C 138.507812 169.675781 138.847656 169.738281 139.160156 169.800781 L 139.160156 166.1875 C 138.847656 166.125 138.628906 166.09375 138.257812 166.09375 C 136.636719 166.09375 134.863281 167.183594 134.113281 169.335938 L 133.988281 169.335938 L 133.867188 166.4375 L 130.53125 166.4375 C 130.625 167.808594 130.65625 169.273438 130.65625 171.328125 Z M 130.65625 181.605469 "/>
<path style=" stroke:none;fill-rule:nonzero;fill:rgb(16.862746%,16.862746%,16.470589%);fill-opacity:1;" d="M 154.140625 181.605469 C 153.984375 180.671875 153.921875 179.332031 153.921875 177.960938 L 153.921875 172.480469 C 153.921875 169.179688 152.519531 166.09375 147.664062 166.09375 C 145.265625 166.09375 143.300781 166.75 142.179688 167.433594 L 142.929688 169.925781 C 143.957031 169.273438 145.511719 168.804688 147.007812 168.804688 C 149.6875 168.804688 150.089844 170.457031 150.089844 171.453125 L 150.089844 171.703125 C 144.484375 171.671875 141.089844 173.601562 141.089844 177.433594 C 141.089844 179.738281 142.804688 181.949219 145.855469 181.949219 C 147.816406 181.949219 149.40625 181.105469 150.339844 179.921875 L 150.433594 179.921875 L 150.683594 181.605469 Z M 150.183594 176.28125 C 150.183594 176.527344 150.152344 176.839844 150.058594 177.121094 C 149.71875 178.210938 148.597656 179.207031 147.070312 179.207031 C 145.855469 179.207031 144.890625 178.523438 144.890625 177.027344 C 144.890625 174.722656 147.476562 174.128906 150.183594 174.191406 Z M 150.183594 176.28125 "/>
<path style=" stroke:none;fill-rule:nonzero;fill:rgb(16.862746%,16.862746%,16.470589%);fill-opacity:1;" d="M 173.011719 178.769531 C 171.921875 179.300781 170.242188 179.644531 168.589844 179.644531 C 163.484375 179.644531 160.523438 176.339844 160.523438 171.203125 C 160.523438 165.691406 163.792969 162.546875 168.714844 162.546875 C 170.460938 162.546875 171.921875 162.917969 172.949219 163.417969 L 173.605469 161.207031 C 172.890625 160.832031 171.238281 160.273438 168.621094 160.273438 C 162.113281 160.273438 157.660156 164.726562 157.660156 171.296875 C 157.660156 178.179688 162.113281 181.917969 168.03125 181.917969 C 170.585938 181.917969 172.578125 181.417969 173.574219 180.917969 Z M 173.011719 178.769531 "/>
<path style=" stroke:none;fill-rule:nonzero;fill:rgb(16.862746%,16.862746%,16.470589%);fill-opacity:1;" d="M 176.78125 181.605469 L 179.492188 181.605469 L 179.492188 173.570312 C 179.492188 173.101562 179.554688 172.667969 179.617188 172.292969 C 179.988281 170.238281 181.359375 168.773438 183.289062 168.773438 C 183.664062 168.773438 183.945312 168.804688 184.226562 168.867188 L 184.226562 166.28125 C 183.976562 166.21875 183.757812 166.1875 183.445312 166.1875 C 181.609375 166.1875 179.957031 167.464844 179.273438 169.488281 L 179.148438 169.488281 L 179.054688 166.53125 L 176.65625 166.53125 C 176.75 167.933594 176.78125 169.457031 176.78125 171.234375 Z M 176.78125 181.605469 "/>
<path style=" stroke:none;fill-rule:nonzero;fill:rgb(16.862746%,16.862746%,16.470589%);fill-opacity:1;" d="M 185.75 166.53125 L 191.324219 180.421875 C 191.449219 180.765625 191.511719 180.980469 191.511719 181.136719 C 191.511719 181.292969 191.417969 181.511719 191.292969 181.792969 C 190.671875 183.191406 189.738281 184.253906 188.988281 184.84375 C 188.179688 185.527344 187.277344 185.964844 186.59375 186.183594 L 187.277344 188.488281 C 187.960938 188.363281 189.300781 187.894531 190.640625 186.710938 C 192.507812 185.09375 193.847656 182.445312 195.8125 177.277344 L 199.921875 166.53125 L 197.023438 166.53125 L 194.035156 175.375 C 193.660156 176.464844 193.351562 177.617188 193.070312 178.523438 L 193.007812 178.523438 C 192.757812 177.617188 192.386719 176.433594 192.042969 175.4375 L 188.742188 166.53125 Z M 185.75 166.53125 "/>
<path style=" stroke:none;fill-rule:nonzero;fill:rgb(16.862746%,16.862746%,16.470589%);fill-opacity:1;" d="M 202.414062 187.773438 L 205.121094 187.773438 L 205.121094 179.582031 L 205.183594 179.582031 C 206.089844 181.074219 207.832031 181.949219 209.824219 181.949219 C 213.375 181.949219 216.675781 179.269531 216.675781 173.851562 C 216.675781 169.273438 213.9375 166.1875 210.292969 166.1875 C 207.832031 166.1875 206.058594 167.277344 204.9375 169.117188 L 204.875 169.117188 L 204.75 166.53125 L 202.289062 166.53125 C 202.351562 167.964844 202.414062 169.519531 202.414062 171.453125 Z M 205.121094 172.882812 C 205.121094 172.511719 205.214844 172.105469 205.308594 171.761719 C 205.839844 169.707031 207.582031 168.367188 209.453125 168.367188 C 212.347656 168.367188 213.9375 170.953125 213.9375 173.976562 C 213.9375 177.433594 212.253906 179.796875 209.359375 179.796875 C 207.394531 179.796875 205.746094 178.492188 205.246094 176.589844 C 205.183594 176.25 205.121094 175.875 205.121094 175.46875 Z M 205.121094 172.882812 "/>
<path style=" stroke:none;fill-rule:nonzero;fill:rgb(16.862746%,16.862746%,16.470589%);fill-opacity:1;" d="M 220.757812 162.917969 L 220.757812 166.53125 L 218.421875 166.53125 L 218.421875 168.617188 L 220.757812 168.617188 L 220.757812 176.839844 C 220.757812 178.613281 221.039062 179.953125 221.816406 180.765625 C 222.46875 181.511719 223.496094 181.917969 224.773438 181.917969 C 225.832031 181.917969 226.675781 181.761719 227.203125 181.542969 L 227.078125 179.488281 C 226.738281 179.582031 226.207031 179.675781 225.492188 179.675781 C 223.964844 179.675781 223.433594 178.613281 223.433594 176.746094 L 223.433594 168.617188 L 227.359375 168.617188 L 227.359375 166.53125 L 223.433594 166.53125 L 223.433594 162.203125 Z M 220.757812 162.917969 "/>
</g>
</svg>
