<svg xmlns="http://www.w3.org/2000/svg" xmlns:xlink="http://www.w3.org/1999/xlink" xml:space="preserve" id="svg886" width="324" height="234" version="1.1" viewBox="0 0 324 234"><defs id="defs873"><linearGradient id="linearGradient879"><stop id="stop875" offset="0" stop-color="#784e9a" stop-opacity="1"/><stop id="stop877" offset="1" stop-color="#895bad" stop-opacity="1"/></linearGradient><linearGradient xlink:href="#linearGradient879" id="linearGradient881" x1="0" x2="324" y1="117" y2="117" gradientUnits="userSpaceOnUse"/><style id="style197">.cls-1{fill:#fff}.cls-3{fill:none;stroke:#fff;stroke-linecap:round;stroke-linejoin:round;stroke-width:16.86px}</style></defs><path id="rect875" fill="url(#linearGradient881)" fill-opacity="1" stroke="none" d="M0 0h324v234H0z"/><path id="path203" stroke-width=".25" d="M225.5 51.05c-4.3-3.76-21.67-15.7-60.36-15.87 0 0-45.61-2.6-67.85 16.72-12.38 11.74-16.73 28.9-17.2 50.19-.45 21.28-1.05 61.17 39.53 71.98h.04l-.03 16.5s-.26 6.69 4.38 8.05c5.62 1.65 8.92-3.43 14.28-8.9 2.94-3 7-7.42 10.07-10.8 27.75 2.22 49.09-2.84 51.51-3.59 5.6-1.72 37.31-5.57 42.47-45.45 5.32-41.1-2.58-67.11-16.85-78.83z" class="cls-1"/><path id="path205" fill="#784e9a" fill-opacity="1" stroke-width=".25" d="M216.47 59.35c-3.63-3.13-19.32-12.46-52.04-12.6 0 0-38.75-2.41-57.56 13.73-10.47 9.8-14 24.36-14.38 42.14-.39 17.77-2.39 51.73 31.92 60.76l-.15 27.42c0 1.55.26 2.61 1.2 2.83.67.16 1.67-.17 2.53-.98 5.49-5.22 23.05-25.3 23.05-25.3 23.57 1.46 42.32-2.95 44.33-3.58 4.76-1.45 30.47-3.54 34.82-36.85 4.5-34.34-1.65-57.77-13.72-67.57z"/><path id="path207" d="M181.07 101.16q-.64-12.2-13.08-12.81" class="cls-3"/><path id="path209" d="M192.3 104.72q.25-11.36-7.11-18.98c-4.93-5.1-11.76-7.91-20.52-8.52" class="cls-3"/><path id="path211" d="M203.78 108.98q-.15-19.71-12.43-31.05-12.27-11.34-30.53-11.46" class="cls-3" display="inline"/><path id="path213" stroke-width=".25" d="M168.43 128.92s3.07.25 4.73-1.68l3.23-3.85c1.55-1.91 5.31-3.13 9-1.19a95.16 90.17 0 0 1 8.01 4.86c2.45 1.7 7.45 5.65 7.46 5.65 2.38 1.91 2.93 4.7 1.31 7.66l-.01.06a33.69 31.92 0 0 1-6.72 7.84l-.06.05q-3.47 2.74-6.82 3.12a4.51 4.28 0 0 1-1 .06 9.08 8.6 0 0 1-2.9-.42l-.07-.1c-3.44-.92-9.19-3.23-18.76-8.23a111.7 105.84 0 0 1-15.76-9.86 82.6 78.28 0 0 1-7.08-5.96l-.24-.22-.24-.23-.24-.23-.24-.22a82.6 78.28 0 0 1-6.28-6.72 111.8 105.95 0 0 1-10.41-14.93c-5.28-9.07-7.71-14.5-8.68-17.77l-.1-.07a9.08 8.6 0 0 1-.45-2.75 4.38 4.15 0 0 1 .06-.94q.42-3.17 3.3-6.47l.05-.06a33.61 31.85 0 0 1 8.27-6.36l.07-.02c3.11-1.54 6.06-1.01 8.07 1.23.02.02 4.18 4.75 5.97 7.07a95.16 90.17 0 0 1 5.13 7.6c2.05 3.5.76 7.06-1.25 8.53l-4.06 3.06c-2.05 1.57-1.78 4.48-1.78 4.48s6.01 21.58 28.49 27.01z" class="cls-1" display="inline"/></svg>
