<?xml version="1.0" encoding="UTF-8"?>
<svg xmlns="http://www.w3.org/2000/svg" xmlns:xlink="http://www.w3.org/1999/xlink" width="324px" height="234px" viewBox="0 0 324 234" version="1.1">
<defs>
<linearGradient id="linear0" gradientUnits="userSpaceOnUse" x1="56" y1="288" x2="56" y2="83.578125" spreadMethod="reflect" gradientTransform="matrix(0,0.316908,-0.352711,0,266.198177,25.301206)">
<stop offset="0" style="stop-color:rgb(100%,100%,100%);stop-opacity:0.971963;"/>
<stop offset="0.645723" style="stop-color:rgb(100%,100%,100%);stop-opacity:0.915888;"/>
<stop offset="1" style="stop-color:rgb(100%,100%,100%);stop-opacity:0;"/>
</linearGradient>
</defs>
<g id="surface1">
<rect x="0" y="0" width="324" height="234" style="fill:rgb(28.235295%,6.27451%,21.960784%);fill-opacity:1;stroke:none;"/>
<path style="fill:none;stroke-width:1.021703;stroke-linecap:butt;stroke-linejoin:miter;stroke:rgb(100%,100%,100%);stroke-opacity:1;stroke-miterlimit:4;" d="M -0.94401 -1.082899 L 181.217448 -1.082899 L 181.217448 130.605469 L -0.94401 130.605469 Z M -0.94401 -1.082899 " transform="matrix(1.8,0,0,1.8,0,0)"/>
<path style=" stroke:none;fill-rule:nonzero;fill:url(#linear0);" d="M 239.390625 45.335938 C 238.574219 44.507812 237.683594 43.75 236.71875 43.046875 L 230.925781 43.046875 L 230.925781 55.722656 L 239.390625 55.722656 Z M 239.390625 177.417969 L 230.925781 177.417969 L 230.925781 190.09375 L 236.71875 190.09375 C 237.683594 189.394531 238.574219 188.632812 239.390625 187.804688 Z M 225.285156 43.046875 L 216.820312 43.046875 L 216.820312 55.722656 L 225.285156 55.722656 Z M 225.285156 177.417969 L 216.820312 177.417969 L 216.820312 190.09375 L 225.285156 190.09375 Z M 211.175781 43.046875 L 202.710938 43.046875 L 202.710938 55.722656 L 211.175781 55.722656 Z M 211.175781 177.417969 L 202.710938 177.417969 L 202.710938 190.09375 L 211.175781 190.09375 Z M 197.066406 43.046875 L 188.601562 43.046875 L 188.601562 55.722656 L 197.066406 55.722656 Z M 197.066406 177.417969 L 188.601562 177.417969 L 188.601562 190.09375 L 197.066406 190.09375 Z M 182.957031 43.046875 L 174.492188 43.046875 L 174.492188 55.722656 L 182.957031 55.722656 Z M 182.957031 177.417969 L 174.492188 177.417969 L 174.492188 190.09375 L 182.957031 190.09375 Z M 168.851562 43.046875 L 160.386719 43.046875 L 160.386719 55.722656 L 168.851562 55.722656 Z M 168.851562 177.417969 L 160.386719 177.417969 L 160.386719 190.09375 L 168.851562 190.09375 Z M 154.742188 43.046875 L 146.277344 43.046875 L 146.277344 55.722656 L 154.742188 55.722656 Z M 154.742188 177.417969 L 146.277344 177.417969 L 146.277344 190.09375 L 154.742188 190.09375 Z M 140.632812 43.046875 L 132.167969 43.046875 L 132.167969 55.722656 L 140.632812 55.722656 Z M 140.632812 177.417969 L 132.167969 177.417969 L 132.167969 190.09375 L 140.632812 190.09375 Z M 126.523438 43.046875 L 118.058594 43.046875 L 118.058594 55.722656 L 126.523438 55.722656 Z M 126.523438 177.417969 L 118.058594 177.417969 L 118.058594 190.09375 L 126.523438 190.09375 Z M 112.417969 43.046875 L 103.953125 43.046875 L 103.953125 55.722656 L 112.417969 55.722656 Z M 112.417969 177.417969 L 103.953125 177.417969 L 103.953125 190.09375 L 112.417969 190.09375 Z M 98.308594 43.046875 L 92.515625 43.046875 C 91.550781 43.75 90.664062 44.507812 89.84375 45.335938 L 89.84375 55.722656 L 98.308594 55.722656 Z M 98.308594 177.417969 L 89.84375 177.417969 L 89.84375 187.804688 C 90.664062 188.632812 91.550781 189.394531 92.515625 190.09375 L 98.308594 190.09375 Z M 98.308594 177.417969 "/>
<path style=" stroke:none;fill-rule:nonzero;fill:rgb(36.862746%,16.078432%,38.431373%);fill-opacity:0.917647;" d="M 220.28125 116.515625 C 220.28125 147.046875 195.171875 171.792969 164.195312 171.792969 C 133.21875 171.792969 108.105469 147.046875 108.105469 116.515625 C 108.105469 85.988281 133.21875 61.238281 164.195312 61.238281 C 195.171875 61.238281 220.28125 85.988281 220.28125 116.515625 Z M 220.28125 116.515625 "/>
<path style=" stroke:none;fill-rule:nonzero;fill:rgb(92.54902%,92.54902%,92.54902%);fill-opacity:1;" d="M 137.640625 76.691406 C 133.695312 117.644531 153.878906 111.929688 174.71875 131.253906 C 172.574219 133.542969 171.160156 136.382812 170.839844 139.695312 C 170.046875 147.9375 176.367188 155.210938 184.972656 155.96875 C 193.589844 156.726562 201.195312 150.683594 201.992188 142.4375 C 202.121094 141.097656 201.851562 139.800781 201.734375 138.550781 L 202.351562 138.71875 L 201.589844 137.59375 C 200.738281 134.226562 198.632812 131.332031 195.765625 129.207031 M 187.125 133.625 C 191.414062 134.003906 194.59375 137.660156 194.199219 141.75 C 193.804688 145.851562 189.980469 148.890625 185.6875 148.511719 C 181.414062 148.136719 178.238281 144.480469 178.632812 140.375 C 179.027344 136.289062 182.847656 133.25 187.125 133.625 M 187.125 133.625 "/>
<path style=" stroke:none;fill-rule:nonzero;fill:rgb(92.54902%,92.54902%,92.54902%);fill-opacity:1;" d="M 193.46875 77.230469 C 196.675781 118.242188 176.59375 112.179688 155.40625 131.171875 C 157.511719 133.515625 158.875 136.363281 159.136719 139.675781 C 159.78125 147.914062 153.3125 155.101562 144.695312 155.71875 C 136.082031 156.332031 128.582031 150.148438 127.9375 141.90625 C 127.835938 140.582031 128.007812 139.28125 128.265625 138.007812 L 127.648438 138.183594 L 128.410156 137.070312 C 129.324219 133.699219 131.496094 130.855469 134.398438 128.777344 M 142.941406 133.328125 C 138.660156 133.632812 135.398438 137.253906 135.71875 141.347656 C 136.039062 145.441406 139.824219 148.558594 144.105469 148.25 C 148.386719 147.945312 151.648438 144.324219 151.328125 140.230469 C 151.007812 136.136719 147.222656 133.019531 142.941406 133.328125 M 142.941406 133.328125 "/>
</g>
</svg>
