<svg xmlns="http://www.w3.org/2000/svg" xmlns:xlink="http://www.w3.org/1999/xlink" width="324" height="234" viewBox="0 0 85.72 61.91"><defs><linearGradient xlink:href="#a" id="u" x1="14.18" x2="35.24" y1="9.45" y2="40.64" gradientTransform="matrix(.9 0 0 .9 115.12 122.43)" gradientUnits="userSpaceOnUse"/><linearGradient id="g"><stop offset="0" stop-color="#85c1eb"/><stop offset="1" stop-color="#4aa4e3"/></linearGradient><linearGradient xlink:href="#b" id="r" x1="33" x2="37.34" y1="20.15" y2="28.26" gradientUnits="userSpaceOnUse"/><linearGradient id="b"><stop offset="0" stop-color="#fbd78e"/><stop offset="1" stop-color="#fab331"/></linearGradient><linearGradient id="h"><stop offset="0" stop-color="#fec160"/><stop offset="1" stop-color="#fef1d1"/></linearGradient><linearGradient xlink:href="#c" id="t" x1="151.03" x2="129.06" y1="151.55" y2="82.75" gradientUnits="userSpaceOnUse"/><linearGradient id="c"><stop offset="0" stop-color="#3093d8"/><stop offset=".23" stop-color="#247cb7"/><stop offset="1" stop-color="#3898d8"/></linearGradient><linearGradient xlink:href="#d" id="o" x1="14.18" x2="35.24" y1="9.45" y2="40.64" gradientTransform="matrix(.9 0 0 .9 115.12 122.43)" gradientUnits="userSpaceOnUse"/><linearGradient xlink:href="#e" id="m" x1="14.18" x2="35.24" y1="9.45" y2="40.64" gradientTransform="matrix(.9 0 0 .9 115.12 122.43)" gradientUnits="userSpaceOnUse"/><linearGradient id="i"><stop offset="0" stop-color="#4e4e4e" stop-opacity=".82"/><stop offset=".46" stop-color="#4e4e4e" stop-opacity=".82"/><stop offset=".46" stop-color="#727272" stop-opacity=".82"/><stop offset=".79" stop-color="#727272" stop-opacity=".82"/><stop offset=".79" stop-color="#9e9e9e" stop-opacity=".4"/><stop offset="1" stop-color="#9e9e9e" stop-opacity=".4"/></linearGradient><linearGradient xlink:href="#f" id="j" x1="0" x2="324" y1="117" y2="117" gradientTransform="scale(.2646)" gradientUnits="userSpaceOnUse"/><linearGradient id="f"><stop offset="0" stop-color="#f7e7bd"/><stop offset=".5" stop-color="#a4d4f1"/><stop offset="1" stop-color="#f6f0d2"/></linearGradient><radialGradient id="a" cx="27.16" cy="6.87" r="20.4" fx="27.16" fy="6.87" gradientTransform="matrix(0 2.94 -3.89 0 39.5 -67.7)" gradientUnits="userSpaceOnUse"><stop offset="0" stop-color="#f0f0f0"/><stop offset="1" stop-color="#fff"/></radialGradient><radialGradient xlink:href="#g" id="q" cx="26.36" cy="24.53" r="7.26" fx="26.36" fy="24.53" gradientTransform="matrix(1 0 0 2.02 0 -23.97)" gradientUnits="userSpaceOnUse"/><radialGradient xlink:href="#h" id="s" cx="123.11" cy="111.83" r="14.85" fx="123.11" fy="111.83" gradientTransform="matrix(-1.07 1.1 -1.27 -1.24 402.5 111.02)" gradientUnits="userSpaceOnUse"/><radialGradient id="d" cx="27.16" cy="6.87" r="20.4" fx="27.16" fy="6.87" gradientTransform="matrix(0 2.94 -3.89 0 39.5 -67.7)" gradientUnits="userSpaceOnUse"><stop offset="0" stop-color="#fff"/><stop offset="1" stop-color="#eaeaea"/></radialGradient><radialGradient id="e" cx="27.16" cy="6.87" r="20.4" fx="27.16" fy="6.87" gradientTransform="matrix(0 2.94 -3.89 0 39.5 -67.7)" gradientUnits="userSpaceOnUse"><stop offset="0" stop-color="#fff"/><stop offset="1" stop-color="#fff"/></radialGradient><radialGradient xlink:href="#i" id="k" cx="23.68" cy="43.5" r="17" fx="23.85" fy="57.23" gradientTransform="matrix(3.74 0 0 .37 73.42 152.03)" gradientUnits="userSpaceOnUse"/><filter id="v" width="1" height="1" x="0" y="0" color-interpolation-filters="sRGB"><feGaussianBlur stdDeviation=".01"/></filter><filter id="p" width="1.01" height="1.01" x="0" y="0" color-interpolation-filters="sRGB"><feGaussianBlur stdDeviation=".05"/></filter><filter id="n" width="1.03" height="1.03" x="-.02" y="-.02" color-interpolation-filters="sRGB"><feGaussianBlur stdDeviation=".05"/></filter><filter id="l" width="1.19" height="2.99" x="-.1" y="-1" color-interpolation-filters="sRGB"><feGaussianBlur stdDeviation="5.15"/></filter></defs><rect width="85.72" height="61.91" fill="url(#j)" paint-order="markers fill stroke" rx=".01" ry=".02"/><path fill="url(#k)" d="M225.6 167.92a63.6 6.21 0 0 1-127.2 0 63.6 6.21 0 1 1 127.2 0z" filter="url(#l)" opacity=".6" transform="matrix(.2275 0 0 .2778 5.53 -.35)"/><path fill="url(#m)" stroke="#a69f94" d="M136.94 125.25a19 19 0 0 0-19 19 19.01 19.01 0 0 0 38 0c0-10.48-8.52-19-19-19z" color="#000" filter="url(#n)" paint-order="stroke fill markers" transform="translate(-75.33 -93.28) scale(.8625)"/><path fill="url(#o)" d="M136.94 125.25a19 19 0 0 0-19 19 19.01 19.01 0 0 0 38 0c0-10.48-8.52-19-19-19z" color="#000" filter="url(#p)" paint-order="stroke fill markers" transform="translate(-69.82 -87.5) scale(.8229)"/><g stroke-width=".08" image-rendering="optimizeQuality"><path fill="url(#q)" d="M18.69 38.47h5.18L33 8.85h-5.22z" class="cls-5" transform="matrix(.83 0 0 .83 23.1 11.48)"/><path fill="url(#r)" d="m34.71 30.69 5.25-.04L33 8.84h-5.22z" class="cls-6" transform="matrix(.83 0 0 .83 23.1 11.48)"/><path fill="url(#s)" d="M123.8 91.1h16l-13.7 42.4h-16z" paint-order="markers fill stroke" transform="matrix(.27 0 0 .27 -.4 1.2)"/><path fill="url(#t)" d="M123.8 91.1h16l21 65.8h-16z" paint-order="markers fill stroke" transform="matrix(.27 0 0 .27 -.4 1.2)"/></g><path fill="url(#u)" d="M136.94 125.25a19 19 0 0 0-19 19c0 6.2 2.97 10.93 7.57 14.4-.6-1.85-1.89-2.37-1.36-4.36 3.2-11.95 11-19.76 21.5-19.76 4.12 0 6.06 1.33 9.35 3.82a19.02 19.02 0 0 0-18.06-13.1z" filter="url(#v)" opacity=".5" paint-order="stroke fill markers" transform="translate(-75.33 -93.33) scale(.8625)"/></svg>