<svg xmlns="http://www.w3.org/2000/svg" xmlns:xlink="http://www.w3.org/1999/xlink" viewBox="0 0 324 234"><defs><linearGradient id="d"><stop offset=".002" stop-color="#f7e7bd"/><stop offset=".5" stop-color="#a4d4f1"/><stop offset="1" stop-color="#f6f0d2"/></linearGradient><linearGradient id="h"><stop offset="0" stop-color="#4e4e4e" stop-opacity=".82"/><stop offset=".455" stop-color="#4e4e4e" stop-opacity=".82"/><stop offset=".455" stop-color="#727272" stop-opacity=".82"/><stop offset=".788" stop-color="#727272" stop-opacity=".82"/><stop offset=".788" stop-color="#9e9e9e" stop-opacity=".396"/><stop offset="1" stop-color="#9e9e9e" stop-opacity=".396"/></linearGradient><linearGradient id="g"><stop offset="0" stop-color="#85c1eb"/><stop offset="1" stop-color="#4aa4e3"/></linearGradient><linearGradient xlink:href="#a" id="r" x1="33" x2="37.34" y1="20.15" y2="28.26" gradientUnits="userSpaceOnUse"/><linearGradient id="a"><stop offset="0" stop-color="#fbd78e"/><stop offset="1" stop-color="#fab331"/></linearGradient><linearGradient id="i"><stop offset="0" stop-color="#fec160"/><stop offset="1" stop-color="#fef1d1"/></linearGradient><linearGradient id="e"><stop offset="0" stop-color="#3093d8"/><stop offset=".23" stop-color="#247cb7"/><stop offset="1" stop-color="#3898d8"/></linearGradient><linearGradient xlink:href="#b" id="m" x1="14.18" x2="35.24" y1="9.45" y2="40.64" gradientTransform="matrix(.9 0 0 .9 115.12 122.43)" gradientUnits="userSpaceOnUse"/><linearGradient xlink:href="#c" id="u" x1="14.18" x2="35.24" y1="9.45" y2="40.64" gradientTransform="matrix(.9 0 0 .9 115.12 122.43)" gradientUnits="userSpaceOnUse"/><linearGradient xlink:href="#d" id="j" x1="0" x2="324" y1="117" y2="117" gradientUnits="userSpaceOnUse"/><linearGradient xlink:href="#e" id="t" x1="151.028" x2="129.061" y1="151.55" y2="82.755" gradientUnits="userSpaceOnUse"/><linearGradient xlink:href="#f" id="o" x1="14.18" x2="35.24" y1="9.45" y2="40.64" gradientTransform="matrix(.9 0 0 .9 115.12 122.43)" gradientUnits="userSpaceOnUse"/><radialGradient id="b" cx="27.16" cy="6.87" r="20.4" fx="27.16" fy="6.87" gradientTransform="matrix(0 2.94 -3.89 0 39.5 -67.7)" gradientUnits="userSpaceOnUse"><stop offset="0" stop-color="#fff"/><stop offset="1" stop-color="#fff"/></radialGradient><radialGradient id="f" cx="27.16" cy="6.87" r="20.4" fx="27.16" fy="6.87" gradientTransform="matrix(0 2.94 -3.89 0 39.5 -67.7)" gradientUnits="userSpaceOnUse"><stop offset="0" stop-color="#fff"/><stop offset="1" stop-color="#eaeaea"/></radialGradient><radialGradient id="c" cx="27.16" cy="6.87" r="20.4" fx="27.16" fy="6.87" gradientTransform="matrix(0 2.94 -3.89 0 39.5 -67.7)" gradientUnits="userSpaceOnUse"><stop offset="0" stop-color="#f0f0f0"/><stop offset="1" stop-color="#fff"/></radialGradient><radialGradient xlink:href="#g" id="q" cx="26.36" cy="24.53" r="7.26" fx="26.36" fy="24.53" gradientTransform="matrix(1 0 0 2.02 0 -23.97)" gradientUnits="userSpaceOnUse"/><radialGradient xlink:href="#h" id="k" cx="23.68" cy="43.5" r="17" fx="23.846" fy="57.226" gradientTransform="matrix(3.74 0 0 .37 73.42 152.028)" gradientUnits="userSpaceOnUse"/><radialGradient xlink:href="#i" id="s" cx="123.106" cy="111.834" r="14.85" fx="123.106" fy="111.834" gradientTransform="matrix(-1.07 1.1 -1.27 -1.24 402.494 111.024)" gradientUnits="userSpaceOnUse"/><filter id="n" width="1.033" height="1.033" x="-.016" y="-.017" color-interpolation-filters="sRGB"><feGaussianBlur stdDeviation=".05"/></filter><filter id="p" width="1.006" height="1.006" x="-.003" y="-.003" color-interpolation-filters="sRGB"><feGaussianBlur stdDeviation=".05"/></filter><filter id="l" width="1.194" height="2.99" x="-.097" y="-.995" color-interpolation-filters="sRGB"><feGaussianBlur stdDeviation="5.153"/></filter><filter id="v" width="1.001" height="1.001" x="0" y="-.001" color-interpolation-filters="sRGB"><feGaussianBlur stdDeviation=".007"/></filter></defs><rect width="324" height="234" fill="url(#j)" paint-order="markers fill stroke" rx=".05" ry=".09"/><path fill="url(#k)" d="M225.592 167.921a63.592 6.214 0 0 1-127.184 0 63.592 6.214 0 1 1 127.184 0z" filter="url(#l)" opacity=".6" transform="matrix(.86 0 0 1.05 20.902 -1.334)"/><path fill="url(#m)" stroke="#a69f94" d="M136.94 125.25a19 19 0 0 0-19 19 19.01 19.01 0 0 0 38 0c0-10.48-8.52-19-19-19z" color="#000" filter="url(#n)" paint-order="stroke fill markers" transform="matrix(3.26 0 0 3.26 -284.695 -352.551)"/><path fill="url(#o)" d="M136.94 125.25a19 19 0 0 0-19 19 19.01 19.01 0 0 0 38 0c0-10.48-8.52-19-19-19z" color="#000" filter="url(#p)" paint-order="stroke fill markers" transform="matrix(3.11 0 0 3.11 -263.883 -330.674)"/><g stroke-width=".08" image-rendering="optimizeQuality"><path fill="url(#q)" d="M18.688 38.474h5.18L33 8.85h-5.22z" class="cls-5" transform="matrix(3.15 0 0 3.15 87.34 43.392)"/><path fill="url(#r)" d="m34.71 30.69 5.25-.04L33 8.84h-5.22z" class="cls-6" transform="matrix(3.15 0 0 3.15 87.34 43.392)"/><path fill="url(#s)" d="M123.8 91.1h16l-13.7 42.4h-16z" paint-order="markers fill stroke" transform="matrix(1.02 0 0 1.02 -1.49 4.548)"/><path fill="url(#t)" d="M123.8 91.1h16l21 65.8h-16z" paint-order="markers fill stroke" transform="matrix(1.02 0 0 1.02 -1.49 4.548)"/></g><path fill="url(#u)" d="M136.94 125.25c-10.493 0-19 8.507-19 19 0 6.2 2.97 10.928 7.57 14.408-.6-1.86-1.888-2.38-1.355-4.37 3.203-11.951 10.995-19.758 21.488-19.758 4.125-.008 6.066 1.334 9.357 3.82a19.02 19.02 0 0 0-18.06-13.1z" filter="url(#v)" opacity=".5" paint-order="stroke fill markers" transform="matrix(3.26 0 0 3.26 -284.695 -352.751)"/></svg>