<svg xmlns="http://www.w3.org/2000/svg" width="324" height="234"><defs><filter id="a" width="1.04" height="1.05" x="0" y="0" color-interpolation-filters="sRGB"><feFlood flood-color="#E1334E" flood-opacity="1" result="flood"/><feGaussianBlur in="SourceGraphic" result="blur"/><feOffset dx="5.2" dy="6.6" in="blur" result="offset"/><feComposite in="flood" in2="offset" operator="in" result="comp1"/><feComposite in="SourceGraphic" in2="comp1" result="comp2"/></filter></defs><path fill="#fa3857" d="M0 0h324v234H0z"/><path fill="#f8f8f8" fill-rule="evenodd" d="m88.15 68.94 59.53 110.82s3.22 5.93 11.33 5.93c8.1 0 11.33-5.93 11.33-5.93s41.38-66.78 58.26-102.4c1.7-3.57 3.52-7.19 4.3-11.11.51-2.66.76-5.52.16-8.16-.74-3.23-2.15-6.53-4.46-8.78a17.3 17.3 0 0 0-9.99-4.6c-3.88-.42-8.02.56-11.5 2.47a15.45 15.45 0 0 0-5.97 6.06c-1.36 2.52-1.7 5.56-1.86 8.45a24.3 24.3 0 0 0 1.22 7.88c.55 1.62 1.3 3.16 1.87 4.78.46 1.33 1.11 2.64 1.26 4.06.24 2.28.18 4.71-.61 6.84-3.89 10.37-10.57 20.34-19.41 26.43-3.66 2.52-8.34 3.14-12.71 3.34-4.98.22-10.72-.2-14.76-2.5-4.05-2.32-5.94-6.34-8.48-9.88-11.62-16.26-30.62-51.87-30.62-51.87s-8.27-15.38-23.13-6.06c-14.85 9.34-5.78 24.24-5.78 24.24zm0 0" filter="url(#a)"/></svg>