<svg xmlns="http://www.w3.org/2000/svg" xmlns:xlink="http://www.w3.org/1999/xlink" xml:space="preserve" id="svg886" width="324" height="234" version="1.1" viewBox="0 0 324 234"><defs id="defs873"><linearGradient id="linearGradient879"><stop id="stop875" offset="0" stop-color="#784e9a" stop-opacity="1"/><stop id="stop877" offset="1" stop-color="#895bad" stop-opacity="1"/></linearGradient><linearGradient id="linear0" x1="135" x2="160" y1="120" y2="160" gradientTransform="matrix(1.23 0 0 1.18 19.084 -33.362)" gradientUnits="userSpaceOnUse"><stop id="stop868" offset="0" stop-color="#eff7fc" stop-opacity="1"/><stop id="stop870" offset="1" stop-color="#fff" stop-opacity="1"/></linearGradient><linearGradient xlink:href="#linearGradient879" id="linearGradient881" x1="0" x2="324" y1="117" y2="117" gradientUnits="userSpaceOnUse"/><style id="style197">.cls-1{fill:#fff}.cls-3{fill:none;stroke:#fff;stroke-linecap:round;stroke-linejoin:round;stroke-width:16.86px}</style></defs><path id="rect875" fill="url(#linearGradient881)" fill-opacity="1" stroke="none" d="M0 0h324v234H0z"/><path id="path877" fill="none" stroke="#fff" stroke-linecap="butt" stroke-linejoin="miter" stroke-miterlimit="4" stroke-opacity="1" stroke-width="1.839" d="M-1.7-1.95h327.891v237.04H-1.699Zm0 0"/><path id="path203" stroke-width=".253" d="M225.492 51.048c-4.297-3.758-21.664-15.704-60.347-15.866 0 0-45.618-2.607-67.856 16.722-12.379 11.732-16.733 28.9-17.193 50.183-.46 21.283-1.053 61.17 39.522 71.985h.039l-.026 16.503s-.26 6.681 4.383 8.044c5.616 1.652 8.912-3.426 14.273-8.9 2.943-3.005 7.007-7.419 10.07-10.793 27.75 2.213 49.092-2.845 51.516-3.593 5.603-1.721 37.308-5.57 42.464-45.454 5.323-41.108-2.574-67.111-16.845-78.831z" class="cls-1"/><path id="path205" fill="#784e9a" fill-opacity="1" stroke-width=".253" d="M216.469 59.352c-3.633-3.128-19.316-12.465-52.038-12.6 0 0-38.748-2.413-57.558 13.732-10.469 9.794-13.996 24.36-14.382 42.134-.387 17.774-2.39 51.73 31.92 60.762 0 0-.135 25.208-.15 27.424 0 1.549.259 2.609 1.193 2.828.672.155 1.68-.175 2.536-.984 5.486-5.22 23.05-25.3 23.05-25.3 23.566 1.459 42.316-2.95 44.333-3.575 4.754-1.448 30.47-3.54 34.822-36.852 4.497-34.336-1.654-57.774-13.726-67.569z"/><path id="path207" d="M181.068 101.157q-.638-12.195-13.074-12.81" class="cls-3"/><path id="path209" d="M192.292 104.723q.26-11.361-7.103-18.985c-4.93-5.1-11.756-7.908-20.514-8.515" class="cls-3"/><path id="path211" d="M203.784 108.982q-.159-19.715-12.434-31.054-12.275-11.339-30.532-11.459" class="cls-3"/><path id="path213" stroke-width=".253" d="M168.427 128.923s3.076.246 4.731-1.687l3.229-3.849c1.557-1.908 5.315-3.125 8.995-1.182a95.156 90.168 0 0 1 8.021 4.854c2.442 1.701 7.443 5.656 7.459 5.656 2.382 1.906 2.932 4.704 1.31 7.655 0 .017-.013.047-.013.061a33.688 31.922 0 0 1-6.719 7.84c-.03.015-.03.03-.06.044q-3.472 2.75-6.822 3.126a4.513 4.276 0 0 1-.997.059 9.083 8.607 0 0 1-2.901-.423l-.073-.101c-3.44-.92-9.187-3.221-18.755-8.223a111.693 105.837 0 0 1-15.758-9.864 82.606 78.276 0 0 1-7.087-5.956l-.239-.226-.238-.226-.24-.226c-.08-.074-.158-.15-.238-.227a82.606 78.276 0 0 1-6.285-6.715 111.807 105.945 0 0 1-10.41-14.93c-5.278-9.069-7.707-14.508-8.678-17.774l-.106-.069a9.083 8.607 0 0 1-.444-2.75 4.378 4.149 0 0 1 .06-.943q.418-3.17 3.303-6.47c.016-.027.031-.027.047-.057a33.615 31.853 0 0 1 8.273-6.364c.016 0 .047-.015.065-.015 3.114-1.537 6.068-1.015 8.076 1.23.016.015 4.181 4.753 5.97 7.067a95.156 90.168 0 0 1 5.122 7.609c2.05 3.484.766 7.052-1.248 8.523l-4.062 3.06c-2.05 1.568-1.78 4.482-1.78 4.482s6.016 21.574 28.492 27.01z" class="cls-1"/></svg>