<svg xmlns="http://www.w3.org/2000/svg" xml:space="preserve" width="324" height="234"><defs><linearGradient id="a" x1="521.15" x2="547.153" y1="328.122" y2="114.908" gradientUnits="userSpaceOnUse"><stop offset="0" stop-color="#edea22"/><stop offset=".748" stop-color="#fff"/><stop offset="1" stop-color="#fff"/></linearGradient></defs><path d="M0 0h324v234H0z" style="fill:#fd5;fill-opacity:1;stroke:none"/><path d="M-1.7-1.95h327.891v237.04H-1.699Zm0 0" style="fill:none;stroke:#fff;stroke-width:1.83906;stroke-linecap:butt;stroke-linejoin:miter;stroke-miterlimit:4;stroke-opacity:1"/><text x="214.216" y="106.578" fill="#ef00eb" stroke="#0105ff" stroke-width="7.25" font-family="TrasksHand" font-size="5.8" transform="matrix(.19936 0 0 .2386 39.188 51.3)"><tspan x="214.216" y="106.578" fill="#fafafa" fill-opacity=".4" stroke="none">John Loreth 2022</tspan></text><g stroke-linecap="round"><path fill="#f0352b" d="M118.031 63.84c-5.495 0-10.246 3.146-13.685 7.268-.43.515-.821 1.072-1.214 1.627a5.669 5.669 0 0 0-2.898-.134c-2.773.59-4.722 2.897-5.71 5.49-.183.04-.364.074-.547.132-1.436-.212-2.858.032-4.166.603-.743-.482-1.507-.799-2.206-.944-1.03-.215-2.185-.141-3.309.244a6.873 8.226 0 0 0-3.735-.018c-.893-.715-1.826-1.139-2.78-1.323-1.24-2.768-3.636-4.63-6.498-4.63-.932 0-1.797.234-2.586.612-.46-.167-.945-.3-1.48-.337a3.38 4.046 0 0 0-.005 0 6.222 7.447 0 0 0-.411-.012H66.8c-.707.008-1.38.206-1.992.445a7.146 8.552 0 0 0-1.886-.45c-2.612-.196-5.482 1.312-7.161 3.98a3.38 4.046 0 0 0 0 .001 6.222 7.447 0 0 0-.283.489l-.001.001c-2.05 3.866-2.727 8.01-3.141 11.035a3.38 4.046 0 0 0 0 .003 6.22 7.444 0 0 0-.052.468c-.158 1.903-.428 6.54 2.416 10.224l.001.001.001.002.032.04a3.38 4.046 0 0 0 .003.005c1.983 2.525 4.65 3.406 6.93 3.28a9.504 11.375 0 0 0 2.215-.439c.226-.078.448-.172.665-.281.477-.239.91-.513 1.32-.799.297.195.6.376.913.52.053.025.106.034.16.057-3.092 4.089-5.4 9.066-6.455 14.688v.003a7.227 8.65 0 0 0-.102.653 3.38 4.046 0 0 0 0 .005l-4.362 36.093a3.38 4.046 0 0 0 0 .004 7.22 8.642 0 0 0-.042.425v.001c-.344 4.372.815 8.65 3.285 11.685 2.366 2.909 5.512 4.272 8.528 4.354 6.275.172 12.408-5.534 13.433-14.23l.383-3.153c4.405.823 9.009-.631 13.57-2.83a3.38 4.046 0 0 0 .025-.012l.026-.012-.022.01a21.49 21.49 0 0 0 4.941-3.313c.219.382.43.769.684 1.124 2.252 3.145 5.368 4.704 8.348 5.032 2.71.297 5.427-.491 7.803-2.16 1.949 1.525 4.147 2.286 6.223 2.422 3.125.207 6.428-.959 9.044-3.315.57 5.723 2.608 10.773 5.72 14.426 4.215 4.948 9.84 7.215 15.325 7.259 7.61.139 13.115-6.961 13.71-14.563a12.944 15.492 0 0 0-.197-4.473c1.507.342 3.072.46 4.674.357v.015l.336-.011h-.146c7.742.133 15.544-3.803 21.143-10.907.102.165.195.337.3.5l.001.002c.076.117.154.231.235.344a3.38 4.046 0 0 0 0 .002c5.656 7.87 13.515 11.263 20.834 9.953a3.38 4.046 0 0 0 .03-.006l.034-.007c1.575-.299 3.017-.942 4.327-1.789a10.923 10.923 0 0 0 6.63 2.18c2.572-.02 5.073-.902 7.283-2.482 1.801 1.281 3.788 1.953 5.705 2.102 2.655.206 5.315-.596 7.636-2.255 1.86 1.383 3.931 2.1 5.92 2.255 6.117.476 12.774-4.455 13.946-13.166l.019-.15a3.38 4.046 0 0 0 .002-.017l5.945-50.457-.057.25a3.38 4.046 0 0 0 .091-.53c.526-4.522-.896-8.75-3.42-11.556-2.32-2.58-5.273-3.79-8.124-3.917-2.51-.112-4.978.744-7.152 2.34a11.391 11.391 0 0 0-6.404-2.34c-6.106-.272-12.386 5.029-13.772 13.755a7.252 8.68 0 0 0-.052.37l-1.038 8.535c-3.457-3.1-7.882-5.233-13.07-5.405a3.38 4.046 0 0 0-.009 0c-8.43-.266-16.652 3.907-22.408 11.293-.14-.23-.27-.462-.415-.688-3.1-4.802-7.948-8.728-14.019-9.748a12.743 12.743 0 0 0-4.252-.89c.012-.136.033-.295.044-.43v-.008a3.38 4.046 0 0 0 .002-.037c.37-4.48-.461-9.075-3.013-12.48-2.552-3.406-6.094-4.69-9.236-4.56-6.036.25-12.075 5.47-13.01 13.824a3.38 4.046 0 0 0-.006.014l-.913 7.887c-3.352-2.549-7.482-4.114-12.159-4.127a3.38 4.046 0 0 0-.002 0h-.116c-1.313.023-2.572.2-3.803.447.32-1.685.502-3.437.493-5.249-.03-5.798-1.9-11.273-5.335-15.042-3.396-3.726-7.9-5.455-12.475-5.455Zm-29.48 21.382 6.192 3.141a2.672 3.198 0 0 1-.147.443c-.04.1-.086.213-.192.413-.106.2.3.406-1.265 1.396-.197.125-.801.361-.801.361l-1.36.05-1.539-.834-.878-1.282s-.252-.723-.302-.989a3.263 3.905 0 0 1-.075-.645 3.07 3.673 0 0 1 .02-.725c.068-.672.142-.776.19-.928.074-.233.114-.31.158-.401zm85.444 34.374c.26.046.516.107.778.139-.027.19-.032.356-.08.564.112-.48.038-.097-.25.188-.127.127-.286.24-.443.339-.018-.348-.011-.77-.005-1.23zm41.384.18-.162 1.268c-.355-.091-.71-.182-1.072-.247.18-.262.43-.555.737-.778.14-.101.323-.17.497-.244zm-128.832.066c-.177.443-.483.84-1.019 1.042a5.96 5.96 0 0 1 1.02-1.043z"/><path fill="url(#a)" d="M395.49 69.508c-22.107 0-41.85 10.67-56.648 25.49a96.106 96.106 0 0 0-13.133 16.453c-4.492-4.12-10.848-6.495-16.52-5.484-8.682 1.547-14.805 8.45-17.3 16.228l-.065.21c-.803 2.641-1.363 4.728-2.04 7.081-4.127-1.282-9.167-1.33-13.743.791-8.38-2.208-16.898-.086-24.135 5.102-3.307-4.482-7.764-6.54-11.947-7.268-4.202-.731-8.59-.24-12.855 2.084-.315.172-.602.44-.91.637-1.062-.624-2.057-1.32-3.29-1.773h-.002c-6.577-2.42-13.807-.595-18.716 3.935-.666-1.28-1.41-2.444-2.23-3.351a14.69 14.69 0 0 0-1.128-1.118c-5.209-4.607-13.303-5.905-18.805-4.408-.29.08-.521.204-.802.291-.123-10.522-9.692-20.049-20.227-20.049-4.454 0-8.69 1.767-12.162 4.528-2.642-1.793-5.67-3.199-9.207-3.403a14.283 14.283 0 0 0-.955-.021c-5.551.052-7.928 1.698-10.62 3.512-.024.016-.045.042-.07.058-3.346-2.451-7.102-3.444-9.986-3.625-8.612-.54-15.669 2.461-21.316 9.961-.229.304-.445.617-.649.938-8.156 12.852-11.378 27.91-13.345 39.91-.049.297-.088.596-.118.896-.74 7.455-1.604 19.618 7.707 29.69l.079.084c6.072 6.462 14.321 8.76 21.627 8.426a30.608 30.608 0 0 0 7.156-1.186c.518-.15 1.027-.33 1.525-.54 5.78-2.418 10.047-5.755 13.705-9.232 2.422 3.574 5.741 6.18 10.174 7.9 5.9 2.29 10.569 2.265 16.121 1.618 2.377-.277 4.9-.77 7.457-1.586 2.65 1.109 5.372 1.92 8.004 2.264.348.045.697.078 1.047.097 2.056.116 3.843-.009 5.494-.22-29.093 17.185-51.678 45.242-59.29 79.162-.11.484-.2.973-.272 1.465l-21.881 151.273c-.046.319-.084.639-.114.96-1.274 13.559 3.265 26.85 11.747 35.56 8.48 8.71 19.828 12.871 31.02 13.127 22.38.511 46.24-16.969 50.204-45.067l4.76-32.79c.207.103.403.244.611.343 21.667 10.332 46.606 5.484 75.073-5.977l.08-.033c11.61-4.735 22.328-11.006 30.757-20.412a106.892 106.892 0 0 0 7.319-6.285c1.038 8.405 4.316 16.24 9.414 22.19 8.085 9.436 19.314 14.205 30.549 15.236 13.22 1.213 27.567-3.75 38.336-13.662 8.466 9.634 20.287 14.106 31.404 14.718 22.657 1.248 48.097-13.177 51.846-40.242l.013-.098s2.95-22.113 5.832-44.173a6222.207 6222.207 0 0 0 3.903-30.32c.518-4.139.938-7.578 1.224-10.083.069-.601.107-1.015.16-1.515 1.985-5.517 7.405-8.02 10.846-8.069.585-.008.752.057 1.02.108-.005.355.024.54-.145 1.84l-.015.129-13.397 108.826v.008c-3.86 30.91 6.07 57.677 23.711 74.978 17.608 17.27 41.482 25.438 65.197 25.578 29.13.48 49.538-22.608 51.7-45.666 1.082-11.547-1.854-24.142-10.668-33.845-8.539-9.399-22.228-14.32-36.471-13.573-.005-.002-.022-.012-.027-.013-.157-1.27.574-9.614 2.464-23.313l.803-5.666c3.265 4.627 6.796 9.058 10.692 13.104 18.701 19.426 44.835 32.739 73.062 30.714 41.272.836 84.204-20.904 108.762-58.992 3.27 7.858 7.468 15.255 12.646 21.944.203.262.413.52.63.771 24.952 29.013 58.307 40.613 89.138 36.002l.17-.027c9.915-1.573 18.491-5.83 25.369-11.7.01.012.018.026.03.038 8.905 9.683 21.19 13.16 32.109 13.09 10.918-.07 21.357-3.278 30.494-9.407a50.183 50.183 0 0 0 6.373-5.101c8.24 8.26 18.982 12.266 29.494 12.949 13.09.85 27.197-4.152 37.57-13.875 8.348 8.91 19.522 13.166 30.43 13.875 22.242 1.445 47.713-13.612 52.113-40.955.02-.124.04-.247.057-.371l29.98-212.58.01-.036c1.794-12.886-3.517-25.881-11.904-33.673-8.387-7.793-18.978-11.495-29.838-11.899-12.357-.459-25.56 4.769-35.738 14.455-.782-.89-1.575-1.767-2.424-2.556-8.387-7.793-18.978-11.495-29.838-11.899-21.718-.806-46.392 15.437-51.798 43.875-.053.275-.099.55-.14.826l-10.17 69.9c-15.047-22.271-41.832-41.28-77.84-42.275h-.024c-45.107-1.19-89.391 21.807-114.127 60.668-3.349-7.873-7.743-15.576-13.328-22.802-13.398-17.335-34.377-31.523-60.938-34.745-12.722-4.47-25.762-4.24-36.775-.402 1.002-7.984 2.152-16.43 2.83-23.307v-.006c1.54-15.222-1.954-29.545-10.856-39.47-8.903-9.927-21.709-13.883-33.119-13.488-22.82.789-45.735 16.95-49.111 43.605l.03-.225-8.919 64.364c-15.686-19.759-40.877-33.903-73.486-33.977-.103 0-.206 0-.309.002-19.251.266-36.478 5.524-51.117 13.486 10.768-13.87 17.428-31.227 17.313-50.466-.12-20.01-7.827-38.324-21.268-50.647-13.441-12.322-31.711-18.406-51.115-18.406Zm268.64 333.437c-.337-.007-.676.05-1.012.04l2.252-.065c-.417.037-.823-.004-1.24.025zM262.693 149.791c.022-.011-.006.09-.12.291l-.052.094c.08-.25.15-.374.172-.385zm61.44 39.148c3.45 5.505 7.575 10.523 12.347 14.829-1.244 2.677-2.289 5.703-2.574 9.496l.16-1.42-1.271 8.47c-6.682-10.252-15.552-19.295-26.545-26.566.528-.004 1.055.021 1.588 0 4.857-.194 9.222.487 16.295-4.809zm337.808 75.422c8.023 4.131 17.673 6.1 28.022 5.957 5.732 1.902 6.62 3.416 7.402 5.366.889 2.214 1.406 8.287-1.318 18.056-1.702 6.103-9.89 13.515-19.25 15.362-11.091.68-13.051-1.005-14.483-2.909-1.466-1.95-4.127-10.283-2.863-26.394.06-.35 1.782-11.17 2.49-15.438zm225.309 4.577a15.14 15.14 0 0 1 3.336.218c4.056 1.08 11.867 7.015 10.494 17.014v.008l-4.478 29.242c-8.81-5.37-19.544-8.045-31.592-8.289-1.848-1.941-3.208-3.463-3.93-4.752-1.27-2.268-2.423-4.992-1.285-13.543 1.745-5.785 6.404-11.496 12.732-15.328 4.936-2.988 10.537-4.404 14.723-4.57zm-647.39.087c3.335-.242 6.215.281 8.384 1.276 2.638 1.209 4.765 2.961 6.735 7.351 2.853 13.445-6.012 30.112-24.223 31.446-.828.06-1.65.173-2.463.34-3.907.799-8.483 1.052-15.182 3.173-.653.207-1.32.53-1.976.776l3.5-24.11c2.532-9.592 12.263-17.678 21.748-19.744a24.797 24.797 0 0 1 3.476-.508zm530.494 1.188c-.034.106-.047.212-.08.318-.047.169-.113.326-.159.494z" style="fill:url(#a)" transform="matrix(.19936 0 0 .2386 39.188 51.3)"/><path d="M88.1 97.934c-9.297.306-18.512 8.73-20.561 19.653l-4.362 36.094c-.66 8.41 9.779 9.204 10.888-.212l4.139-34.122c1.729-8.618 12.536-12.289 15.515-3.191 1.3 6.015-2.195 12.96-8.247 13.49-1.017.25-1.815.325-2.636.636-.993.376-1.502.755-3.103 2.322-4.381 9.911 2.461 13.022 12.744 8.067 2.088-1.019 3.901-2.396 4.99-3.997 9.25-8.367 10.777-28.099.117-35.747a15.375 15.375 0 0 0-9.484-2.993zm27.56-1.032c-.987.906-2.397-.033-3.248.474-.438.262-.76 1.928-.76 1.928-.722 1.003-1.979 1.959-2.058 3.226l-4.185 33.353c-1.433 8.437 9.564 10.02 11.057.84l3.879-33.376c.14-1.26-.57-2.956-1.108-3.838-.843-1.385-2.137-2.38-3.576-2.607zm23.593.89c-10.008.165-16.554 9.968-17.553 16.301l-2.78 21.29c-1.297 10.326 10.121 9.671 10.993 2.133 0 0 2.35-21.089 2.241-20.956 1.626-7.13 10.79-7.614 9.948.157l-2.672 25.974c-1.291 12.368 6.248 18.774 13.95 18.817 7.811.178 9.032-13.764.89-13-.485.05-.97.004-1.383-.275-3.191-2.156-2.716-4.076-1.97-10.54l2.577-21.772c1.34-7.676-3.572-18.1-14.24-18.13z"/><path d="m159.503 86.566-4.178 36.098c-1.138 10.208 7.665 21.074 16.172 20.181 10.465.366 22.132-9.655 22.023-26.722-.116-6.98-4.503-16.803-13.423-17.756-9.38-4.564-14.485 13.782-2.783 12.809 4.799 1.613 5.676 5.73 4.344 11.448-.835 3.585-3.765 6.368-7.07 7.017-6.206.539-8.38-3.22-7.769-12.066 0 0 2.713-19.15 3.591-29.82.926-10.94-10.097-8.843-10.907-1.19zm58.96 11.173c-9.677-.306-19.311 7.349-22.03 19.426-1.83 6.907-.734 13.771 2.4 18.617 4.264 5.932 9.357 7.918 14.283 7.037 7.132-1.355 8.011-14.736-3.11-13.6-1.673-2.164-3.97-3.89-3.193-10 1.228-5.65 6.714-9.222 10.77-8.204 2.77.789 5.61 4.367 5.055 9.196l-2.025 15.821c-1.299 10.094 9.835 8.177 10.758 1.75l2.344-19.16c.939-6.663-3.314-20.489-15.251-20.883zm21.463-10.534-5.899 48.523c-1.146 8.864 9.85 9.466 10.974 1.107l5.977-50.721c.776-6.674-9.495-8.712-11.052 1.09zM128.61 84.388c.042 8.387-6.24 15.273-12.405 15.273-6.165 0-10.688-4.795-10.688-12.175 0-7.379 6.348-14.993 12.513-14.993 6.166 0 10.543 4.516 10.58 11.895zm124.87 2.817-5.898 48.523c-1.146 8.864 9.85 9.466 10.974 1.107l5.977-50.721c.776-6.674-9.495-8.712-11.052 1.09z"/></g><g fill="#100" transform="matrix(.19936 0 0 .2386 39.188 51.3)"><path stroke="#000" stroke-linecap="round" d="M108.061 123.942c-6.12 9.643-9.497 23.492-11.315 34.58-.628 6.32-.592 13.651 3.99 18.607 3.642 3.876 9.465 4.755 14.422 3.314 6.115-2.56 11.484-8.458 16.848-14.234 5.527-6.603 8.579-17.557 10.123-25.773 6.05 3.744 11.011-3.108 3.964-5.35-2.47-1.008-2.225-2.94-2.01-4.732 1.16-4.12-.624-10.374-5.278-10.642-2.921.027-10.682 6.031-3.61 14.09.738 1.7 1.215 2.955.533 5.541-2.46 6.758-4.632 15.05-8.813 21.027-1.67 1.944-3.355 3.91-5.18 5.681-7.26 7.373-16.223 5.85-15.917-3.11.265-5.942 1.63-10.517 3.57-16.524 1.839-7.206 6.344-15.357 10.512-21.013 3.822-7.467-7.334-7.445-11.839-1.462zm187.322 51.728c1.661-.851 2.925 1.852 4.058 2.574 2.382 1.941 13.038 1.72 16.382-.855 7.377-5.484 5.216-9.737 1.27-6.352-4.752 5.408-14.85 5.244-13.94-.506 2.095-12.423 5.444-27.56 10.663-34.017 1.609-1.99 2.866-3.61 3.478-6.223.38-2.27.711-4.543.041-6.693-1.78-5.549-9.314-5.04-11.878 2.95-6.235 20.515-8.146 30.536-8.87 39.23-.705 9.843-19.456 12.233-16.89 3.038l8.266-22.007c1.366-3.131-4.423-6.011-7.073-2.794-.63.765-1.558 1.473-2.274 2.668 0 0-.949-.348-3.475-1.646-6.479-3.33-18.075.412-24.192 13.395-1.255 3.723-1.791 7.128-1.616 11.042-.272 1.195-.87 2.113-1.918 3.091-4.748 4.574-14.635 2.751-12.777-6.062 2.435-7.043 3.504-12.805 6.235-19.017 1.963-5.999-7.812-7.685-9.326-1.638-2.654 9.788-3.432 14.683-7.02 20.853l-3.053 4.249c-4.969 6.945-8.551.567-6.693-5.63l6.372-17.832c.763-2.073-1.095-4.293-3.169-5.056a4 4 0 0 0-5.134 2.373l-5.277 19.54c-1.753 7.274-3.095 7.598-9.024 10.513-5.46 2.619-7.107-.23-4.394-4.935 2.278-4.241 2.202-10.954-.842-15.778-.665-1.147-1.333-1.993-2.27-3.116-1.653-1.714-.521-4.928.618-6.43.547-1.564 1.82-3.085-.274-5.4-3.594-3.18-8.024-.954-10.108 1.733v0c-1.462 1.834-2.05 4.564.803 8.197l-13.995 20.946c-1.458 1.45-4.409 4.068-12.042 3.855-3.845-.48-3.52-3.821-2.829-5.495l6.91-21.453c1.722-6.209-8.204-5.983-9.61-1.29l-5.674 22.165c-.51 1.437-.7 3.583.117 6.073.596 2.11 2.488 4.17 4.734 5.041 4.283 1.662 14.258 1.35 18.928-3.054 2.473 2.611 5.561 4.011 9.346 4.506 4.469.25 7.013-1.14 10.404-2.243 4.765 2.444 7.695 2.372 12.724.172.903-.403 1.672-.867 2.432-1.35 2.282-1.612 2.942-2.985 4.4-.008 2.197 3.9 10.862 1.675 13.097-.22 1.402-.944 2.323-1.695 3.156-2.963 1.959-4.378 3.165-1.506 3.435-.033 1.515 8.372 14.148 7.429 17.909 4.693 4.563-2.574 3.512-2.988 7.579.503 2.818 2.308 9.436 3.176 16.08-5.075 1.098-2.038 1.766-.592 3.368 1.928 3.012 6.276 15.665 5.48 22.832-.158zm-30.59-3.55c-5.6 5.474-9.58-1.363-7.223-7.86 1.224-3.375 3.438-6.366 4.53-7.725 2.528-3.056 5.44-5.367 8.561-6.26 1.832-.259 8.925-1.24 4.28 6.88-2.667 5.05-5.973 10.045-10.147 14.965zm-81.278-14.225c.453-.741 1.017-.824 2.095 1.059 2.684 4.695.04 10.503-2.88 14.095-2.706 2.625-8.708-2.247-5.324-6.706z"/><circle cx="160.993" cy="-124.609" r="6" transform="scale(1 -1)"/></g></svg>