<?xml version="1.0" encoding="UTF-8" standalone="no"?>
<svg
   xmlns:dc="http://purl.org/dc/elements/1.1/"
   xmlns:cc="http://creativecommons.org/ns#"
   xmlns:rdf="http://www.w3.org/1999/02/22-rdf-syntax-ns#"
   xmlns:svg="http://www.w3.org/2000/svg"
   xmlns="http://www.w3.org/2000/svg"
   xmlns:xlink="http://www.w3.org/1999/xlink"
   xmlns:sodipodi="http://sodipodi.sourceforge.net/DTD/sodipodi-0.dtd"
   xmlns:inkscape="http://www.inkscape.org/namespaces/inkscape"
   width="324px"
   height="234px"
   viewBox="0 0 324 234"
   version="1.1"
   id="svg74"
   sodipodi:docname="awf.svg"
   inkscape:version="1.0.2 (1.0.2+r75+1)">
  <metadata
     id="metadata78">
    <rdf:RDF>
      <cc:Work
         rdf:about="">
        <dc:format>image/svg+xml</dc:format>
        <dc:type
           rdf:resource="http://purl.org/dc/dcmitype/StillImage" />
      </cc:Work>
    </rdf:RDF>
  </metadata>
  <sodipodi:namedview
     pagecolor="#ffffff"
     bordercolor="#666666"
     borderopacity="1"
     objecttolerance="10"
     gridtolerance="10"
     guidetolerance="10"
     inkscape:pageopacity="0"
     inkscape:pageshadow="2"
     inkscape:window-width="1920"
     inkscape:window-height="980"
     id="namedview76"
     showgrid="false"
     inkscape:zoom="1.7371795"
     inkscape:cx="44.33038"
     inkscape:cy="135.85035"
     inkscape:window-x="0"
     inkscape:window-y="0"
     inkscape:window-maximized="1"
     inkscape:current-layer="svg74" />
  <defs
     id="defs37">
    <linearGradient
       id="outerBackgroundGradient-43-3">
      <stop
         style="stop-color:#2c333d;stop-opacity:1"
         offset="0"
         id="stop947" />
      <stop
         style="stop-color:#485362;stop-opacity:1"
         offset="1"
         id="stop949" />
    </linearGradient>
    <radialGradient
       id="radial0"
       gradientUnits="userSpaceOnUse"
       cx="90.136406"
       cy="64.761543"
       fx="90.136406"
       fy="64.761543"
       r="91.591759"
       gradientTransform="matrix(1.8,0,0,1.304046,0,32.11876)">
      <stop
         offset="0"
         style="stop-color:rgb(20%,27.058825%,27.058825%);stop-opacity:1;"
         id="stop2" />
      <stop
         offset="1"
         style="stop-color:rgb(32.549021%,38.039216%,38.039216%);stop-opacity:1;"
         id="stop4" />
    </radialGradient>
    <clipPath
       id="clip1">
      <path
         d="M 107 69 L 170 69 L 170 93 L 107 93 Z M 107 69 "
         id="path7" />
    </clipPath>
    <clipPath
       id="clip2">
      <path
         d="M 320 116.570312 C 320 191.007812 249.324219 251.296875 162.246094 251.296875 C 75.164062 251.296875 4.492188 191.007812 4.492188 116.570312 C 4.492188 42.136719 75.164062 -18.15625 162.246094 -18.15625 C 249.324219 -18.15625 320 42.136719 320 116.570312 Z M 320 116.570312 "
         id="path10" />
    </clipPath>
    <clipPath
       id="clip3">
      <path
         d="M 114 140 L 183 140 L 183 152 L 114 152 Z M 114 140 "
         id="path13" />
    </clipPath>
    <clipPath
       id="clip4">
      <path
         d="M 320 116.570312 C 320 191.007812 249.324219 251.296875 162.246094 251.296875 C 75.164062 251.296875 4.492188 191.007812 4.492188 116.570312 C 4.492188 42.136719 75.164062 -18.15625 162.246094 -18.15625 C 249.324219 -18.15625 320 42.136719 320 116.570312 Z M 320 116.570312 "
         id="path16" />
    </clipPath>
    <clipPath
       id="clip5">
      <path
         d="M 107 91 L 142 91 L 142 140 L 107 140 Z M 107 91 "
         id="path19" />
    </clipPath>
    <clipPath
       id="clip6">
      <path
         d="M 320 116.570312 C 320 191.007812 249.324219 251.296875 162.246094 251.296875 C 75.164062 251.296875 4.492188 191.007812 4.492188 116.570312 C 4.492188 42.136719 75.164062 -18.15625 162.246094 -18.15625 C 249.324219 -18.15625 320 42.136719 320 116.570312 Z M 320 116.570312 "
         id="path22" />
    </clipPath>
    <clipPath
       id="clip7">
      <path
         d="M 86 46 L 190 46 L 190 187 L 86 187 Z M 86 46 "
         id="path25" />
    </clipPath>
    <clipPath
       id="clip8">
      <path
         d="M 320 116.570312 C 320 191.007812 249.324219 251.296875 162.246094 251.296875 C 75.164062 251.296875 4.492188 191.007812 4.492188 116.570312 C 4.492188 42.136719 75.164062 -18.15625 162.246094 -18.15625 C 249.324219 -18.15625 320 42.136719 320 116.570312 Z M 320 116.570312 "
         id="path28" />
    </clipPath>
    <clipPath
       id="clip9">
      <path
         d="M 189 46 L 238 46 L 238 187 L 189 187 Z M 189 46 "
         id="path31" />
    </clipPath>
    <clipPath
       id="clip10">
      <path
         d="M 320 116.570312 C 320 191.007812 249.324219 251.296875 162.246094 251.296875 C 75.164062 251.296875 4.492188 191.007812 4.492188 116.570312 C 4.492188 42.136719 75.164062 -18.15625 162.246094 -18.15625 C 249.324219 -18.15625 320 42.136719 320 116.570312 Z M 320 116.570312 "
         id="path34" />
    </clipPath>
    <linearGradient
       inkscape:collect="always"
       xlink:href="#outerBackgroundGradient-43-3-3"
       id="linearGradient928"
       x1="0"
       y1="117"
       x2="324"
       y2="117"
       gradientUnits="userSpaceOnUse"
       gradientTransform="matrix(0.99998421,0,0,0.9999634,0,0.00856888)" />
    <linearGradient
       id="outerBackgroundGradient-43-3-3">
      <stop
         style="stop-color:#2c333d;stop-opacity:1"
         offset="0"
         id="stop3864-8-6-744" />
      <stop
         style="stop-color:#485362;stop-opacity:1"
         offset="1"
         id="stop3866-9-1-541" />
    </linearGradient>
    <clipPath
       clipPathUnits="userSpaceOnUse"
       id="clipPath4492">
      <path
         id="path4494"
         d="m 15.562635,9.6015624 c -3.857522,0 -6.9609379,3.1034156 -6.9609379,6.9609376 v 16.875 c 0,3.857522 3.1034159,6.960937 6.9609379,6.960937 h 16.875 c 3.857522,0 6.960937,-3.103415 6.960937,-6.960937 v -16.875 c 0,-3.857522 -3.103415,-6.9609376 -6.960937,-6.9609376 z"
         style="color:#bebebe;display:inline;overflow:visible;visibility:visible;opacity:0.5;fill:#b35151;fill-opacity:1;fill-rule:nonzero;stroke:none;stroke-width:2;marker:none;enable-background:accumulate"
         inkscape:connector-curvature="0" />
    </clipPath>
    <clipPath
       clipPathUnits="userSpaceOnUse"
       id="clipPath10483">
      <path
         inkscape:connector-curvature="0"
         id="path10485"
         d="m 84,46.500023 c -27.43126,0 -49.5,22.06873 -49.5,49.5 V 216.00002 c 0,27.43127 22.06874,49.5 49.5,49.5 h 120 c 27.43127,0 49.5,-22.06873 49.5,-49.5 V 96.000023 c 0,-27.43127 -22.06873,-49.5 -49.5,-49.5 z"
         style="color:#bebebe;display:inline;overflow:visible;visibility:visible;opacity:0.5;fill:#bf4f4f;fill-opacity:1;fill-rule:nonzero;stroke:none;stroke-width:2;marker:none;enable-background:accumulate" />
    </clipPath>
  </defs>
  <rect
     x="0"
     y="0.0085688643"
     width="323.99487"
     height="233.99144"
     style="fill:url(#linearGradient928);fill-opacity:1;stroke:none;stroke-width:0.999977"
     id="rect39" />
  <path
     style="fill:none;stroke:#ffffff;stroke-width:1.83906;stroke-linecap:butt;stroke-linejoin:miter;stroke-miterlimit:4;stroke-opacity:1"
     d="M -1.699218,-1.9492182 H 326.19141 V 235.08985 H -1.699218 Z m 0,0"
     id="path41" />
  <g
     style="display:inline;enable-background:new"
     id="g3503"
     transform="matrix(10.511323,0,0,7.5880541,-89.912442,-72.840222)"
     clip-path="url(#clipPath4492)">
    <path
       style="display:inline;opacity:0.0708661;fill:#eeeeec;fill-rule:evenodd;stroke:none"
       id="path13905"
       d="M 5.71875,7 23.59375,24.96875 10.5625,7 Z"
       inkscape:connector-curvature="0" />
    <path
       style="display:inline;opacity:0.0708661;fill:#eeeeec;fill-rule:evenodd;stroke:none"
       id="path13907"
       d="M 45.15625,7.46875 25.0625,24.8125 46,11.78125 v -2.625 C 46,8.4558663 45.668987,7.8640444 45.15625,7.46875 Z"
       inkscape:connector-curvature="0" />
    <path
       style="display:inline;opacity:0.0708661;fill:#eeeeec;fill-rule:evenodd;stroke:none"
       id="path13909"
       d="M 24.90625,25.375 46,35.6875 v -8.71875 z"
       inkscape:connector-curvature="0" />
    <path
       style="display:inline;opacity:0.0708661;fill:#eeeeec;fill-rule:evenodd;stroke:none"
       id="path13911"
       d="M 24.5625,25.6875 30.03125,43 h 9.75 z"
       inkscape:connector-curvature="0" />
    <path
       style="display:inline;opacity:0.0708661;fill:#eeeeec;fill-rule:evenodd;stroke:none"
       id="path13913"
       d="M 23.875,25.8125 C 23.463627,25.665381 9.9514594,37.061203 3.21875,42.78125 3.5037244,42.918789 3.8174992,43 4.15625,43 h 5.90625 z"
       inkscape:connector-curvature="0" />
    <path
       style="display:inline;overflow:visible;visibility:visible;opacity:0.0207874;fill:#000000;fill-opacity:1;fill-rule:evenodd;stroke:none;stroke-width:1px;marker:none;enable-background:accumulate"
       id="path13915"
       d="M 2,22.65625 V 31.625 l 21,-5.90625 z"
       inkscape:connector-curvature="0" />
    <path
       style="display:inline;opacity:0.0708661;fill:#eeeeec;fill-rule:evenodd;stroke:none"
       id="path13917"
       d="M 2.03125,8.78125 C 2.009942,8.9036079 2,9.0276113 2,9.15625 v 7.90625 l 22.03125,8.15625 z"
       inkscape:connector-curvature="0" />
    <path
       style="display:inline;opacity:0.0708661;fill:#eeeeec;fill-rule:evenodd;stroke:none"
       id="path13919"
       d="M 21.9375,7 24.65625,24.5625 35.8125,7 Z"
       inkscape:connector-curvature="0" />
    <path
       style="display:inline;opacity:0.0708661;fill:#eeeeec;fill-rule:evenodd;stroke:none"
       id="path13921"
       d="M 24.28125,25.90625 20.78125,43 h 5.90625 z"
       inkscape:connector-curvature="0" />
    <path
       style="display:inline;opacity:0.0207874;fill:#000000;fill-opacity:1;fill-rule:evenodd;stroke:none"
       id="path13923"
       d="M 10.65625,7 23.96875,24.78125 18.625,7 Z"
       inkscape:connector-curvature="0" />
    <path
       style="display:inline;opacity:0.0207874;fill:#ffffff;fill-opacity:1;fill-rule:evenodd;stroke:none"
       id="path13925"
       d="m 41.1875,7 -11,12.75 L 44.34375,7.0625 C 44.181596,7.0239823 44.018018,7 43.84375,7 Z"
       inkscape:connector-curvature="0" />
    <path
       style="display:inline;overflow:visible;visibility:visible;opacity:0.0207874;fill:#000000;fill-opacity:1;fill-rule:evenodd;stroke:none;stroke-width:1px;marker:none;enable-background:accumulate"
       id="path13927"
       d="M 46,15.71875 24.96875,25.1875 46,22.6875 Z"
       inkscape:connector-curvature="0" />
    <path
       style="display:inline;opacity:0.0207874;fill:#ffffff;fill-opacity:1;fill-rule:evenodd;stroke:none"
       id="path13929"
       d="M 24.96875,25.8125 46,40.90625 c 6.06e-4,-0.02116 0,-0.04119 0,-0.0625 v -3.25 z"
       inkscape:connector-curvature="0" />
    <path
       style="display:inline;overflow:visible;visibility:visible;opacity:0.0207874;fill:#000000;fill-opacity:1;fill-rule:evenodd;stroke:none;stroke-width:1px;marker:none;enable-background:accumulate"
       id="path13931"
       d="M 24.0625,25.90625 C 23.927882,25.761819 16.769429,37.21187 13.53125,43 h 6.53125 z"
       inkscape:connector-curvature="0" />
    <path
       style="display:inline;opacity:0.0207874;fill:#ffffff;fill-opacity:1;fill-rule:evenodd;stroke:none"
       id="path13933"
       d="M 23.25,25.875 2,33.0625 v 7.59375 z"
       inkscape:connector-curvature="0" />
    <path
       style="display:inline;opacity:0.0207874;fill:#ffffff;fill-opacity:1;fill-rule:evenodd;stroke:none"
       id="path13935"
       d="m 2,17.53125 v 3.1875 l 21.65625,4.8125 z"
       inkscape:connector-curvature="0" />
    <path
       style="display:inline;opacity:0.0708661;fill:#ffffff;fill-opacity:1;fill-rule:evenodd;stroke:none"
       id="path13937"
       d="m 15.34375,7 8.375,17.40625 L 16.78125,7 Z"
       inkscape:connector-curvature="0" />
    <path
       style="display:inline;opacity:0.11084;fill:#ffffff;fill-opacity:1;fill-rule:evenodd;stroke:none"
       id="path13939"
       d="M 46,18.1875 25.59375,25.15625 46,20.21875 Z"
       inkscape:connector-curvature="0" />
    <path
       style="display:inline;opacity:0.128244;fill:#ffffff;fill-opacity:1;fill-rule:evenodd;stroke:none"
       id="path13941"
       d="M 23.71875,25.46875 2,27 v 2.6875 z"
       inkscape:connector-curvature="0" />
    <path
       style="display:inline;opacity:0.0696183;fill:#ffffff;fill-opacity:1;fill-rule:evenodd;stroke:none"
       id="path13943"
       d="M 19.21875,30.5625 5.625,43 h 2.46875 z"
       inkscape:connector-curvature="0" />
    <path
       style="display:inline;opacity:0.0925191;fill:#ffffff;fill-opacity:1;fill-rule:evenodd;stroke:none"
       id="path13945"
       d="M 29.84375,29.8125 44,43 c 1.125099,-0.0806 2,-1.009919 2,-2.15625 v -0.125 z"
       inkscape:connector-curvature="0" />
    <path
       style="display:inline;opacity:0.0708661;fill:#ffffff;fill-opacity:1;fill-rule:evenodd;stroke:none"
       id="path13947"
       d="M 27.21875,26.4375 46,35 v -3.46875 z"
       inkscape:connector-curvature="0" />
    <path
       style="display:inline;opacity:0.0668702;fill:#ffffff;fill-opacity:1;fill-rule:evenodd;stroke:none"
       id="path13949"
       d="M 2.03125,8.71875 C 2.0024997,8.859964 2,9.0062984 2,9.15625 v 1.625 L 18.6875,21.6875 Z"
       inkscape:connector-curvature="0" />
    <path
       style="display:inline;opacity:0.0732825;fill:#ffffff;fill-opacity:1;fill-rule:evenodd;stroke:none"
       id="path13951"
       d="M 33.4375,7 25.15625,23.625 35.90625,7 Z"
       inkscape:connector-curvature="0" />
    <path
       style="display:inline;opacity:0.100763;fill:#eeeeec;fill-rule:evenodd;stroke:none"
       id="path9905"
       d="M 24.28125,25.90625 25,43 h 1.6875 z"
       inkscape:connector-curvature="0" />
  </g>
  <path
     sodipodi:nodetypes="csscscccsscccccsssscccsscsscsscsscscccccccs"
     inkscape:connector-curvature="0"
     id="path3852"
     d="m 169.9344,57.234561 c -6.34455,-0.01529 -11.60252,1.122082 -16.70382,3.782083 -4.72675,2.464709 -10.46971,7.363584 -13.32749,11.253984 -4.83217,6.578437 -4.64488,6.391736 -6.93023,5.442505 -7.20585,-2.992838 -15.49887,-3.508159 -22.12374,-1.383686 -12.262706,3.93228 -21.065739,16.175878 -21.590471,30.072133 -0.08545,2.23753 -0.296826,4.30909 -0.533277,4.70458 -0.235578,0.39541 -1.785348,1.05997 -3.376044,1.47591 -7.53801,1.97061 -13.479436,6.98343 -16.615193,13.92912 -1.487334,3.29477 -1.688164,4.43394 -1.688164,11.06951 0,6.97633 0.08534,7.49507 1.954654,11.43848 3.249724,6.85839 12.261521,14.57483 20.791007,14.57483 h 16.526258 c -0.047,-0.51639 -0.39164,-1.47885 -0.88869,-2.49064 -1.75826,-3.57864 -3.01886,-9.83737 -3.02093,-14.94382 0,-14.02991 8.09103,-24.95544 22.03482,-29.70317 4.50385,-1.53344 5.59778,-2.24534 5.59778,-3.59757 0,-1.90598 3.34395,-9.62949 5.95292,-13.74462 3.6593,-5.772233 8.45349,-10.19822 14.48236,-13.283415 15.09133,-7.722531 32.83668,-5.205088 43.71421,6.08821 l 3.90961,3.966586 4.1758,-1.106952 c 2.32541,-0.629254 5.02359,-1.178974 5.95292,-1.199212 2.12986,-0.04644 2.25,-1.672253 0.44434,-7.287431 C 203.02195,68.717497 187.66678,57.279717 169.9344,57.234561 Z m -1.1549,31.548083 c -7.51797,-0.04192 -10.66698,0.734006 -16.88166,3.966552 -5.9379,3.08862 -11.4812,10.591284 -14.48238,19.648374 -0.66079,1.99369 -1.24413,4.22608 -1.24413,4.98127 0,2.40686 -1.41107,3.45933 -5.95289,4.42782 -9.12753,1.94633 -16.03863,7.28924 -18.65848,14.29809 -1.06891,2.8593 -1.42786,4.9636 -1.42168,9.40909 0.0294,13.90466 7.75385,26.93579 19.45825,26.93579 2.84305,0 14.33779,0.086 57.30818,0 h 53.57673 c 8.52947,0 13.56689,-11.70467 14.12724,-17.98797 0.8513,-11.47196 -3.86985,-19.25273 -13.86076,-22.96917 l -3.46526,-1.29146 -0.44406,-4.98128 c -1.42756,-18.15843 -19.10752,-29.075539 -36.87289,-22.69248 l -3.64283,1.38368 -4.17581,-4.52002 C 184.69681,91.267683 179.45621,88.842173 168.7795,88.782644 Z"
     style="display:inline;fill:#ffffff;fill-opacity:1;stroke:none;stroke-width:1.19508;enable-background:new" />
  <path
     clip-path="none"
     inkscape:connector-curvature="0"
     style="color:#000000;font-style:normal;font-variant:normal;font-weight:normal;font-stretch:normal;font-size:medium;line-height:normal;font-family:Sans;-inkscape-font-specification:Sans;text-indent:0;text-align:start;text-decoration:none;text-decoration-line:none;letter-spacing:normal;word-spacing:normal;text-transform:none;writing-mode:lr-tb;direction:ltr;baseline-shift:baseline;text-anchor:start;display:inline;overflow:visible;visibility:visible;opacity:0;fill:#000000;fill-opacity:1;stroke:none;stroke-width:0.0493419px;marker:none;enable-background:accumulate"
     d="m -200.29338,205.36757 c 0.0725,0.0675 0.14765,0.13257 0.22269,0.19908 h 76.62847 c 0.075,-0.0665 0.15022,-0.13157 0.22269,-0.19908 z"
     id="path4269" />
  <g
     id="g1126"
     transform="matrix(1.7550034,0,0,1.4636908,620.23608,95.477342)">
    <rect
       style="fill:#6067e8;fill-opacity:1;stroke-opacity:0.078125"
       id="rect1077"
       width="46.272324"
       height="16.667814"
       x="-353.41019"
       y="77.971474" />
    <rect
       style="fill:#50bc7c;fill-opacity:1;stroke-opacity:0.078125"
       id="rect1077-6"
       width="46.272324"
       height="16.667814"
       x="-307.13788"
       y="77.971474" />
    <rect
       style="fill:#ef4056;fill-opacity:1;stroke-opacity:0.078125"
       id="rect1077-7"
       width="46.272324"
       height="16.667814"
       x="-260.86554"
       y="77.971474" />
    <rect
       style="fill:#fcb642;fill-opacity:1;stroke-opacity:0.078125"
       id="rect1077-5"
       width="46.272324"
       height="16.667814"
       x="-214.59322"
       y="77.971474" />
  </g>
</svg>
