<svg xmlns="http://www.w3.org/2000/svg" xmlns:xlink="http://www.w3.org/1999/xlink" viewBox="0 0 85.725 61.913" height="234" width="324"><defs><linearGradient xlink:href="#a" id="d" x1="0" y1="117" x2="324" y2="117" gradientUnits="userSpaceOnUse" gradientTransform="matrix(.26458 0 0 .26458 61.08 117.21)"/><linearGradient gradientUnits="userSpaceOnUse" y2="102.649" x2="288.673" y1="-67.772" x1="0" id="e" xlink:href="#b" gradientTransform="matrix(.26458 0 0 .42287 61.08 117.21)"/><linearGradient xlink:href="#c" id="f" x1="447.581" y1="-18.321" x2="447.581" y2="216.173" gradientUnits="userSpaceOnUse" gradientTransform="matrix(.2019 0 0 .19833 46.519 128.73)"/><linearGradient id="c"><stop offset="0" stop-color="#565656"/><stop offset="1" stop-color="#262626"/></linearGradient><radialGradient r="118.081" gradientUnits="userSpaceOnUse" cy="-11.981" cx="59.023" id="a"><stop stop-color="#3fe1b0" offset=".126"/><stop stop-color="#0df" offset=".429"/><stop stop-color="#b833e1" offset=".904"/></radialGradient><radialGradient gradientUnits="userSpaceOnUse" gradientTransform="translate(7978.7 8523.996)" r="58.534" cy="-8533.457" cx="-7926.97" id="b"><stop stop-color="#fff44f" offset=".132"/><stop stop-color="#ff980e" offset=".526"/></radialGradient></defs><path fill="url(#d)" paint-order="markers fill stroke" d="M61.081 117.21h85.725v61.913H61.081z" transform="translate(-61.081 -117.21)"/><path d="M61.081 117.21h85.725v29.044c-31.217-30.792-42.62 38.086-85.725 0z" fill="url(#e)" paint-order="markers fill stroke" transform="translate(-61.081 -117.21)"/><path fill="#fff" d="M23.071 11.47h39.582v38.973H23.071z"/><path d="M90.53 171.39c-1.814-.174-3.24-.563-4.472-1.218-2.675-1.422-4.462-3.85-5.065-6.883-.286-1.438-.275-.891-.297-14.33-.015-8.645-.002-12.852.04-13.554.136-2.231.467-3.599 1.222-5.055 1.46-2.81 4.038-4.644 7.298-5.186 1.314-.22 1.292-.219 13.979-.242 14.504-.026 14.533-.025 16.481.47 3.613.917 6.347 3.767 7.14 7.44.332 1.544.312.633.333 14.996.02 14.342.027 14.024-.297 15.583-.628 3.03-2.482 5.475-5.195 6.851-1.155.586-2.295.9-3.917 1.082-.626.07-2.71.082-13.894.074-7.237-.005-13.248-.017-13.357-.027zm15.79-4.74c2.196-.318 3.79-.791 5.644-1.676a18.709 18.709 0 008.645-8.46c1.88-3.726 2.442-7.958 1.61-12.122-.567-2.837-1.845-5.558-3.714-7.912-.613-.772-2.065-2.235-2.82-2.84-2.736-2.194-5.769-3.495-9.366-4.017-1.011-.147-3.742-.147-4.754 0-3.597.522-6.63 1.823-9.366 4.018-.754.604-2.207 2.067-2.82 2.84-1.893 2.384-3.176 5.144-3.74 8.052a19.244 19.244 0 000 7.212c1.114 5.738 4.96 10.687 10.282 13.229 2.134 1.02 4.01 1.522 6.635 1.78.527.051 3.197-.023 3.763-.104zm-5.36-7.954c-1.39-.688-2.526-1.533-3.666-2.73-1.5-1.574-2.722-3.566-3.695-6.026-1.027-2.595-1.519-4.53-1.582-6.228-.036-.966.029-1.528.243-2.099.642-1.709 2.457-1.875 4.855-.444l.523.312.067 1.065c.27 4.263 1.384 8.933 3.01 12.607.329.744 1.03 2.154 1.476 2.972.257.47.26.623.02.838a.534.534 0 01-.299.127c-.086 0-.515-.177-.952-.394zm4.762.255c-.232-.232-.188-.428.295-1.308 2.379-4.332 3.996-10.184 4.243-15.349l.037-.785.34-.22a8.551 8.551 0 011.841-.878c1.83-.587 3.037.057 3.382 1.808.116.586.086 2.134-.055 2.92-.437 2.418-1.742 5.905-2.976 7.952-1.426 2.366-3.194 4.147-5.293 5.332-.595.336-1.356.667-1.533.667a.482.482 0 01-.28-.139zm-2.021-4.049c-.233-.183-1.087-2.276-1.702-4.172-.799-2.458-1.135-4.222-1.133-5.93 0-1.436.21-2.286.762-3.111.5-.747 1.234-1.278 2.007-1.451.99-.222 2.315.626 2.931 1.875.908 1.842.668 4.797-.73 8.975-.35 1.047-1.042 2.83-1.352 3.48-.21.441-.494.562-.783.334z" fill="url(#f)" transform="translate(-61.081 -117.21)"/></svg>