<svg xmlns="http://www.w3.org/2000/svg" xmlns:xlink="http://www.w3.org/1999/xlink" width="324" height="234" viewBox="0 0 85.7 61.9">
  <defs/>
  <defs>
    <linearGradient id="d">
      <stop offset="0" stop-color="#e1f3ff"/>
      <stop offset="1" stop-color="#ccdaff"/>
    </linearGradient>
    <linearGradient id="c">
      <stop offset="0" stop-color="#f1f8ff"/>
      <stop offset="1" stop-color="#e0e9ff"/>
    </linearGradient>
    <linearGradient id="b">
      <stop offset="0" stop-color="#f2faff"/>
      <stop offset="1" stop-color="#ccdaff"/>
    </linearGradient>
    <linearGradient id="a">
      <stop offset="0" stop-color="#05a9ff"/>
      <stop offset="1" stop-color="#3663fe"/>
    </linearGradient>
    <linearGradient id="h" x1="430" x2="565.5" y1="114.1" y2="114.1" gradientTransform="matrix(.37818 0 0 .37818 -145.4 -12.2)" gradientUnits="userSpaceOnUse" xlink:href="#a"/>
    <linearGradient id="f" x1="1.1" x2="82.8" y1="37.2" y2="37.2" gradientTransform="matrix(1.32706 0 0 1.32706 -15.2 -19)" gradientUnits="userSpaceOnUse" xlink:href="#b"/>
    <linearGradient id="g" x1="1.1" x2="82.8" y1="37.2" y2="37.2" gradientTransform="matrix(1.32706 0 0 1.32706 -15.2 -19)" gradientUnits="userSpaceOnUse" xlink:href="#d"/>
    <linearGradient id="e" x1="-2.4" x2="88.1" y1="31" y2="31" gradientTransform="matrix(.94737 0 0 .94737 -.1 0)" gradientUnits="userSpaceOnUse" xlink:href="#c"/>
  </defs>
  <path fill="url(#e)" d="M-2.4 0h85.7v58.7H-2.4z" transform="matrix(1 0 0 1.05556 2.4 0)"/>
  <path fill="url(#f)" d="M83.3 35.9V11.5a39.5 39.5 0 00-4.8-4.3H77c-.5.1-6.3 5.7-17.8 17.2l-17 17 7.7 7.5c4.2 4.2 8 8 8.5 8.3.9.7 2 .8 3.1.2.5-.2 8-7.6 16.8-16.4z" transform="matrix(1 0 0 1.05556 2.4 0)"/>
  <path fill="url(#g)" d="M-2.4 6.5v25.6l5 5 9-8.8 8.9-9-8.2-8.2C4.2 3.1 4 3 2.9 3c-1.2 0-1.9.3-5.3 3.6zM40 5.1c-1 0-1.6.5-18.2 17l-17 17.2 8.1 8c5.5 5.5 8.4 8.2 8.9 8.3l1.5-.1c.6-.2 5.7-5.1 17.7-17l17-16.9a331 331 0 00-16.2-16c-.5-.3-1.3-.5-1.8-.5z" transform="matrix(1 0 0 1.05556 2.4 0)"/>
  <circle cx="42.9" cy="31" r="25.6" fill="url(#h)"/>
  <path fill="#fff" d="M29.4 21.1c-.6 0-.9.2-3.6 3-2.4 2.4-2.5 2.6-2.4 3.2 0 .2 1 1.1 3 3.2l2.9 3 3.2-3.3 3.2-3.2-3-3c-2.9-2.8-3-2.9-3.3-2.9zm13.3.8c-.4 0-.6.2-6.5 6.1L30 34.2l3 2.9 3.1 3 .6-.1c.2 0 2-1.8 6.3-6.1l6.1-6c.1-.1-5.5-5.7-5.8-5.9l-.6-.1zm13.5.7H56l-6.4 6.2-6.1 6.1 2.7 2.7 3 3c.4.2.8.3 1.2 0 .2 0 2.9-2.7 6-5.8l5.8-5.7c.2-.3.2-.7 0-1l-2.7-2.7a24.6 24.6 0 00-3-2.7h-.3z"/>
</svg>
