<?xml version="1.0" encoding="UTF-8" standalone="no"?>
<svg
   width="324px"
   height="234px"
   viewBox="0 0 324 234"
   version="1.1"
   id="svg847"
   sodipodi:docname="whatsapp.svg"
   inkscape:version="1.1 (c4e8f9e, 2021-05-24)"
   xmlns:inkscape="http://www.inkscape.org/namespaces/inkscape"
   xmlns:sodipodi="http://sodipodi.sourceforge.net/DTD/sodipodi-0.dtd"
   xmlns:xlink="http://www.w3.org/1999/xlink"
   xmlns="http://www.w3.org/2000/svg"
   xmlns:svg="http://www.w3.org/2000/svg">
  <defs
     id="defs851">
    <linearGradient
       inkscape:collect="always"
       id="linearGradient1834">
      <stop
         style="stop-color:#006500;stop-opacity:1"
         offset="0"
         id="stop1830" />
      <stop
         style="stop-color:#23e93a;stop-opacity:1"
         offset="1"
         id="stop1832" />
    </linearGradient>
    <radialGradient
       inkscape:collect="always"
       xlink:href="#linearGradient1834"
       id="radialGradient1331"
       cx="162"
       cy="117"
       fx="162"
       fy="117"
       r="162"
       gradientTransform="matrix(1,0,0,0.72222222,0,32.5)"
       gradientUnits="userSpaceOnUse" />
    <filter
       style="color-interpolation-filters:sRGB"
       id="filter1769"
       x="-0.057342707"
       width="1.1146854"
       y="-0.057086646"
       height="1.1141733">
      <feGaussianBlur
         stdDeviation="3.5306992"
         id="feGaussianBlur1771" />
    </filter>
    <linearGradient
       inkscape:collect="always"
       xlink:href="#linearGradient297"
       id="linearGradient299"
       x1="85.915016"
       y1="32.567062"
       x2="86.535339"
       y2="137.09183"
       gradientUnits="userSpaceOnUse"
       gradientTransform="matrix(1.0739967,0,0,1.0739967,72.16033,21.417962)" />
    <linearGradient
       inkscape:collect="always"
       id="linearGradient297">
      <stop
         style="stop-color:#57d163;stop-opacity:1"
         offset="0"
         id="stop293" />
      <stop
         style="stop-color:#23b33a;stop-opacity:1"
         offset="1"
         id="stop295" />
    </linearGradient>
  </defs>
  <sodipodi:namedview
     id="namedview849"
     pagecolor="#ffffff"
     bordercolor="#666666"
     borderopacity="1.0"
     inkscape:pageshadow="2"
     inkscape:pageopacity="0.0"
     inkscape:pagecheckerboard="0"
     showgrid="false"
     inkscape:zoom="2.1010417"
     inkscape:cx="168.48785"
     inkscape:cy="59.970251"
     inkscape:window-width="1920"
     inkscape:window-height="1040"
     inkscape:window-x="0"
     inkscape:window-y="0"
     inkscape:window-maximized="1"
     inkscape:current-layer="svg847" />
  <g
     id="surface1">
    <rect
       x="0"
       y="0"
       width="324"
       height="234"
       style="fill:url(#radialGradient1331);fill-opacity:1.0;stroke:none"
       id="rect840" />
    <path
       style="fill:none;stroke-width:1.021703;stroke-linecap:butt;stroke-linejoin:miter;stroke:rgb(100%,100%,100%);stroke-opacity:1;stroke-miterlimit:4;"
       d="M -0.94401 -1.082899 L 181.217448 -1.082899 L 181.217448 130.605469 L -0.94401 130.605469 Z M -0.94401 -1.082899 "
       transform="matrix(1.8,0,0,1.8,0,0)"
       id="path842" />
  </g>
  <path
     style="fill:#b3b3b3;fill-opacity:1;fill-rule:nonzero;stroke:none;stroke-width:0.352777;filter:url(#filter1769)"
     d="m 54.532411,138.4499 2.23518,1.32429 c 9.3872,5.57141 20.14968,8.51766 31.12575,8.52317 h 0.0234 c 33.706819,0 61.139419,-27.42573 61.153199,-61.135293 0.006,-16.335262 -6.34862,-31.696254 -17.89521,-43.251105 -11.54655,-11.554848 -26.89927,-17.921385 -43.234539,-17.928275 -33.73299,0 -61.1656,27.422959 -61.178,61.12977 -0.005,11.55072 3.22736,22.801023 9.34861,32.535483 l 1.45521,2.31235 -6.17912,22.55848 z m -40.8106,23.54378 10.43864,-38.11378 c -6.43819,-11.15384 -9.82541,-23.80836 -9.82128,-36.771573 0.0165,-40.555667 33.02056,-73.550032 73.5776,-73.550032 19.681139,0.0096 38.153739,7.668782 52.047119,21.571809 13.88925,13.903024 21.53736,32.38252 21.53047,52.037483 -0.0179,40.552903 -33.02744,73.552783 -73.577589,73.552783 -0.003,0 0.003,0 0,0 h -0.0317 c -12.31278,-0.005 -24.41195,-3.0937 -35.15927,-8.95449 z m 0,0"
     id="path400-6"
     transform="matrix(1.0739967,0,0,1.0739967,72.16033,21.417962)" />
  <path
     style="fill:#ffffff;fill-opacity:1;fill-rule:nonzero;stroke:none;stroke-width:0.378881"
     d="M 86.085618,194.58674 97.296682,153.65266 C 90.382094,141.67348 86.74423,128.08258 86.748671,114.16013 c 0.01774,-43.556662 35.463979,-78.9925 79.022099,-78.9925 21.13748,0.01033 40.97697,8.236246 55.89842,23.168052 14.91702,14.931807 23.13105,34.778723 23.12364,55.888088 -0.0191,43.55369 -35.47135,78.99545 -79.02206,78.99545 -0.004,0 0.004,0 0,0 h -0.0341 c -13.22388,-0.006 -26.21836,-3.32262 -37.76094,-9.6171 z"
     id="path400-6-0"
     sodipodi:nodetypes="ccccccssscc" />
  <path
     style="fill:url(#linearGradient1780);fill-opacity:1;stroke-width:0.378881"
     d="m 165.79613,48.511271 c -36.2291,0 -65.69183,29.45254 -65.70515,65.653549 -0.006,12.40542 3.46635,24.48821 10.04056,34.94299 l 1.5629,2.48309 -6.63674,24.22811 24.8586,-6.51796 2.40039,1.42192 c 10.08181,5.98368 21.64068,9.14831 33.42894,9.15422 h 0.025 c 36.201,0 65.6637,-29.45512 65.6785,-65.65909 0.006,-17.544024 -6.81821,-34.041678 -19.2192,-46.451549 -12.40097,-12.409872 -28.88976,-19.247876 -46.43379,-19.25528 z"
     id="path61-8" />
  <path
     id="path15"
     style="fill:url(#linearGradient299);fill-opacity:1;stroke-width:0.55303;stroke-linecap:round;stroke-linejoin:round;stop-color:#000000"
     d="m 165.79603,48.511542 c -36.22913,0 -65.69184,29.451989 -65.70516,65.652998 -0.006,12.40542 3.46635,24.48821 10.04055,34.94299 l 1.56289,2.48364 -6.63672,24.22756 24.85859,-6.51796 2.4004,1.42247 c 10.08181,5.98367 21.64068,9.14776 33.42894,9.15368 h 0.025 c 36.20102,0 65.66372,-29.45513 65.67852,-65.6591 0.006,-17.544024 -6.8182,-34.041687 -19.2192,-46.451549 -12.40097,-12.409872 -28.88978,-19.247325 -46.4338,-19.254729 z" />
  <path
     style="fill:#ffffff;fill-opacity:1;fill-rule:evenodd;stroke:none;stroke-width:0.378881"
     d="m 146.02153,81.135221 c -1.48,-3.287107 -3.03697,-3.353702 -4.44297,-3.411418 -1.15146,-0.04886 -2.46865,-0.04588 -3.78438,-0.04588 -1.3172,0 -3.45583,0.494318 -5.2644,2.47013 -1.81004,1.975805 -6.91164,6.751803 -6.91164,16.466572 0,9.714785 7.07593,19.101005 8.06161,20.419695 0.98717,1.3172 13.65901,21.88931 33.72939,29.80291 16.67822,6.57717 20.07188,5.26885 23.69346,4.94028 3.6201,-0.32856 11.68169,-4.77599 13.32598,-9.38621 1.64579,-4.61023 1.64579,-8.56038 1.15294,-9.38622 -0.49433,-0.82436 -1.81004,-1.31721 -3.78587,-2.30438 -1.97433,-0.98716 -11.6817,-5.76462 -13.49175,-6.42323 -1.81005,-0.6586 -3.12578,-0.98716 -4.44298,0.98865 -1.31575,1.97581 -5.09716,6.42175 -6.25008,7.73896 -1.15145,1.3187 -2.30288,1.48297 -4.2787,0.4958 -1.97433,-0.99012 -8.33393,-3.07249 -15.87752,-9.79913 -5.86973,-5.23332 -9.83171,-11.69651 -10.98464,-13.67232 -1.15144,-1.97581 -0.12289,-3.04438 0.86728,-4.02858 0.88653,-0.88505 1.97433,-2.30585 2.96299,-3.45878 0.98421,-1.15293 1.31425,-1.97582 1.97137,-3.291542 0.65861,-1.318689 0.33004,-2.471613 -0.16428,-3.458782 -0.49284,-0.987171 -4.33051,-10.752269 -6.08581,-14.656522"
     id="path418-6" />
</svg>
