<svg xmlns="http://www.w3.org/2000/svg" width="324" height="234"><defs><linearGradient id="a" x1="-1.4554" x2="181.7282" y1="64.7615" y2="64.7615" gradientTransform="scale(1.8)" gradientUnits="userSpaceOnUse"><stop offset="0" stop-color="#5299dc"/><stop offset="1" stop-color="#287bc8"/></linearGradient></defs><rect width="324" height="234" fill="url(#a)" ry="0"/><path fill="#fdd107" d="M181.1836 95.4297c3.1758 2.4883 6.1016 5.7305 7.9258 9.3437 8.3118 17.416-4.412 37.479-22.4414 38.9844l-23.8438 39.168c6.6836 2.0312 13.7969 3.1133 21.1602 3.1133 39.2773 0 71.1172-31.0977 71.1172-69.461 0-7.375-1.2032-14.4765-3.3828-21.1406z"/><path fill="#4cb547" d="M115.379 65.8945c-13.8438 12.6758-22.5118 30.6875-22.5118 50.6836 0 33.1016 23.7305 60.793 55.4648 67.7656l25.7032-42.375c-23.1857 8.6015-45.4311-15.2524-34.7852-36.9062h.0977l-23.9649-39.168Z"/><path fill="#cc3526" d="M163.9844 47.1094c-20.914 0-39.7461 8.8008-52.75 22.8398l25.3164 42.5547c4.4448-24.6632 36.577-30.4577 50.1484-10.9453l46.6563-.0937c-7.0703-31.086-35.418-54.3633-69.375-54.3633Z"/><path d="M165.504 72.8672v1.5664s-.0196 2.7734-.0196 5.1875c-3.582-2.6758-9.0273-6.7578-9.0273-6.7578h-24.8828l.0195 83.2305 14.3398 7.6328 14.9258-1.2696s.0742-4.3984.1054-7.371l11.6016 6.4296 24.4492-1.6758v-78.414L183.75 72.8789h-18.3086m.0391-.0117"/><path fill="red" d="m169.5742 138.1602-.8242.0586-14.289-63.1172-19.0196-.0117.0195 79.2187s3.7656-.3672 11.8008-.9688l-.8242-60.2148.8242-.0547 13.5938 59.3281s4.6015-.3672 20.4453-1.4336V75.1055h-12.1719l.4024 63.082m0-.0156"/></svg>