<?xml version="1.0" encoding="UTF-8"?>
<svg xmlns="http://www.w3.org/2000/svg" xmlns:xlink="http://www.w3.org/1999/xlink" width="324px" height="234px" viewBox="0 0 324 234" version="1.1">
<defs>
<linearGradient id="linear0" gradientUnits="userSpaceOnUse" x1="-1.455352" y1="64.761543" x2="181.728165" y2="64.761543" gradientTransform="matrix(1.8,0,0,1.8,0,0)">
<stop offset="0" style="stop-color:rgb(12.156863%,57.647061%,72.549021%);stop-opacity:1;"/>
<stop offset="1" style="stop-color:rgb(10.196079%,36.078432%,60.784316%);stop-opacity:1;"/>
</linearGradient>
</defs>
<g id="surface1">
<rect x="0" y="0" width="324" height="234" style="fill:url(#linear0);stroke:none;"/>
<path style="fill:none;stroke-width:1.021703;stroke-linecap:butt;stroke-linejoin:miter;stroke:rgb(100%,100%,100%);stroke-opacity:1;stroke-miterlimit:4;" d="M -0.94401 -1.082899 L 181.217448 -1.082899 L 181.217448 130.605469 L -0.94401 130.605469 Z M -0.94401 -1.082899 " transform="matrix(1.8,0,0,1.8,0,0)"/>
<path style=" stroke:none;fill-rule:nonzero;fill:rgb(97.647059%,97.647059%,97.647059%);fill-opacity:1;" d="M 84.058594 188.117188 L 84.148438 123.667969 L 154.449219 123.789062 L 154.359375 188.238281 M 84.058594 188.117188 "/>
<path style=" stroke:none;fill-rule:nonzero;fill:rgb(97.647059%,97.647059%,97.647059%);fill-opacity:1;" d="M 240.28125 188.386719 L 169.980469 188.265625 L 170.070312 123.816406 L 240.371094 123.9375 M 240.28125 188.386719 "/>
<path style=" stroke:none;fill-rule:nonzero;fill:rgb(97.647059%,97.647059%,97.647059%);fill-opacity:1;" d="M 170.089844 109.351562 L 170.179688 44.902344 L 240.480469 45.023438 L 240.390625 109.472656 M 170.089844 109.351562 "/>
<path style=" stroke:none;fill-rule:nonzero;fill:rgb(97.647059%,97.647059%,97.647059%);fill-opacity:1;" d="M 154.3125 109.324219 L 84.011719 109.203125 L 84.101562 44.753906 L 154.402344 44.875 M 154.3125 109.324219 "/>
</g>
</svg>
