<?xml version="1.0" encoding="UTF-8"?>
<svg xmlns="http://www.w3.org/2000/svg" xmlns:xlink="http://www.w3.org/1999/xlink" width="324px" height="234px" viewBox="0 0 324 234" version="1.1">
<g id="surface1">
<rect x="0" y="0" width="324" height="234" style="fill:rgb(18.431373%,49.411765%,78.431374%);fill-opacity:1;stroke:none;"/>
<path style="fill:none;stroke-width:1.022;stroke-linecap:butt;stroke-linejoin:miter;stroke:rgb(100%,100%,100%);stroke-opacity:1;stroke-miterlimit:2;" d="M -0.94401 -1.084054 L 181.217448 -1.084054 L 181.217448 130.606798 L -0.94401 130.606798 Z M -0.94401 -1.084054 " transform="matrix(1.8,0,0,1.794479,0,0)"/>
<path style=" stroke:none;fill-rule:nonzero;fill:rgb(100%,100%,100%);fill-opacity:1;" d="M 90.800781 116.214844 C 90.800781 143.484375 107.515625 167.027344 131.675781 177.984375 L 97.222656 87.875 C 93.101562 96.511719 90.800781 106.105469 90.800781 116.214844 Z M 90.800781 116.214844 "/>
<path style=" stroke:none;fill-rule:nonzero;fill:rgb(100%,100%,100%);fill-opacity:1;" d="M 141.46875 181.605469 C 148.042969 183.515625 155.019531 184.546875 162.246094 184.546875 C 170.636719 184.546875 178.6875 183.15625 186.167969 180.613281 L 163.476562 121.277344 Z M 141.46875 181.605469 "/>
<path style=" stroke:none;fill-rule:nonzero;fill:rgb(100%,100%,100%);fill-opacity:1;" d="M 128.472656 79.132812 L 128.472656 83.226562 C 128.472656 83.601562 128.164062 83.90625 127.789062 83.90625 L 119.515625 83.90625 C 118.59375 83.90625 118.203125 84.441406 118.527344 85.355469 L 144.472656 158.457031 L 160.261719 112.867188 L 149.765625 85.417969 C 149.386719 84.421875 148.933594 83.90625 147.316406 83.90625 L 140.058594 83.90625 C 139.683594 83.90625 139.375 83.597656 139.375 83.226562 L 139.375 79.132812 C 139.375 78.757812 139.683594 78.4375 140.058594 78.453125 C 153.566406 79.027344 167.164062 79.023438 180.835938 78.453125 C 181.210938 78.4375 181.515625 78.757812 181.515625 79.132812 L 181.515625 83.226562 C 181.515625 83.601562 181.210938 83.90625 180.835938 83.90625 L 173.617188 83.90625 C 172.183594 83.90625 171.722656 84.539062 172.117188 85.652344 L 197.660156 157.613281 L 207.035156 130.3125 C 218.375 97.300781 197.335938 93.808594 197.859375 77.398438 C 198.117188 69.28125 204.339844 65.738281 210.570312 65.898438 C 197.851562 54.714844 180.878906 47.882812 162.246094 47.882812 C 137.117188 47.882812 115.019531 60.296875 102.28125 79.0625 C 110.398438 78.984375 119.109375 78.894531 127.789062 78.453125 C 128.164062 78.433594 128.472656 78.757812 128.472656 79.132812 Z M 128.472656 79.132812 "/>
<path style=" stroke:none;fill-rule:nonzero;fill:rgb(100%,100%,100%);fill-opacity:1;" d="M 162.246094 36.746094 C 116.363281 36.746094 79.160156 72.332031 79.160156 116.214844 C 79.160156 160.09375 116.363281 195.679688 162.246094 195.679688 C 208.125 195.679688 245.332031 160.09375 245.332031 116.214844 C 245.332031 72.332031 208.125 36.746094 162.246094 36.746094 Z M 162.246094 41.472656 C 205.394531 41.472656 240.390625 74.941406 240.390625 116.214844 C 240.390625 157.484375 205.394531 190.957031 162.246094 190.957031 C 119.09375 190.957031 84.097656 157.484375 84.097656 116.214844 C 84.097656 74.941406 119.09375 41.472656 162.246094 41.472656 Z M 162.246094 41.472656 "/>
<path style=" stroke:none;fill-rule:nonzero;fill:rgb(100%,100%,100%);fill-opacity:1;" d="M 225.082031 83.675781 C 225.472656 93.84375 222.269531 106.464844 218.820312 115.808594 L 196.535156 176.167969 C 218.671875 164.558594 233.6875 142.0625 233.6875 116.214844 C 233.6875 104.433594 230.570312 93.351562 225.082031 83.675781 Z M 225.082031 83.675781 "/>
</g>
</svg>
