<?xml version="1.0" encoding="UTF-8"?>
<svg xmlns="http://www.w3.org/2000/svg" xmlns:xlink="http://www.w3.org/1999/xlink" width="324px" height="234px" viewBox="0 0 324 234" version="1.1">
<defs>
<linearGradient id="linear0" gradientUnits="userSpaceOnUse" x1="-1.455352" y1="64.761543" x2="181.728165" y2="64.761543" gradientTransform="matrix(0.140209,0,0,0.138791,-106.311628,4.599872)">
<stop offset="0" style="stop-color:rgb(96.862745%,83.529413%,25.098041%);stop-opacity:1;"/>
<stop offset="1" style="stop-color:rgb(96.078432%,65.490198%,1.960784%);stop-opacity:1;"/>
</linearGradient>
</defs>
<g id="surface1">
<rect x="0" y="0" width="324" height="234" style="fill:url(#linear0);stroke:none;"/>
<path style="fill:none;stroke-width:1.021703;stroke-linecap:butt;stroke-linejoin:miter;stroke:rgb(100%,100%,100%);stroke-opacity:1;stroke-miterlimit:4;" d="M -0.94401 -1.082899 L 181.217448 -1.082899 L 181.217448 130.605469 L -0.94401 130.605469 Z M -0.94401 -1.082899 " transform="matrix(1.8,0,0,1.8,0,0)"/>
<path style=" stroke:none;fill-rule:nonzero;fill:rgb(99.607843%,99.607843%,99.607843%);fill-opacity:1;" d="M 140.300781 176.628906 C 143.523438 174 146.316406 171.382812 148.636719 168.488281 C 151.730469 164.628906 154.945312 160.773438 155.535156 155.953125 C 155.765625 154.054688 155.164062 152.3125 154.417969 150.566406 C 154.089844 149.796875 153.390625 149.753906 152.582031 149.691406 C 144.15625 149.070312 135.722656 148.542969 127.320312 147.757812 C 120.730469 147.140625 113.996094 146.707031 107.945312 144.246094 C 96.679688 139.671875 89.664062 132.148438 87.453125 122.085938 C 85.269531 112.167969 85.554688 102.203125 89.738281 92.542969 C 92.316406 86.589844 96.519531 81.601562 102.273438 77.292969 C 108.761719 72.4375 115.863281 68.449219 123.757812 65.40625 C 133.125 61.792969 143.054688 59.582031 153.230469 58.140625 C 162.148438 56.878906 171.125 55.921875 180.207031 56.210938 C 193.183594 56.617188 205.570312 58.902344 216.703125 64.625 C 227.457031 70.15625 233.652344 78.433594 236.507812 88.324219 C 239.769531 99.625 238.847656 110.910156 233.171875 121.542969 C 224.949219 136.941406 210.664062 146.574219 190.199219 149.59375 C 188.867188 149.792969 187.984375 150.191406 187.160156 151.054688 C 181.054688 157.429688 174.335938 163.316406 166.402344 168.210938 C 161.417969 171.28125 155.988281 173.730469 150.316406 175.824219 C 147.257812 176.953125 144.082031 177.332031 140.300781 176.628906 Z M 140.300781 176.628906 "/>
</g>
</svg>
