<svg xmlns="http://www.w3.org/2000/svg" xmlns:xlink="http://www.w3.org/1999/xlink" width="324" height="234"><defs><linearGradient id="b"><stop offset="0" stop-color="#f7fcfc"/><stop offset="1" stop-color="#d6e3eb"/></linearGradient><linearGradient id="a"><stop offset="0" stop-color="#e34b48"/><stop offset="1" stop-color="#ad2924"/></linearGradient><linearGradient xlink:href="#a" id="e" x1="-58.479" x2="-58.479" y1="314.174" y2="516.804" gradientTransform="translate(235.855 -165.347)" gradientUnits="userSpaceOnUse"/><linearGradient xlink:href="#b" id="g" x1="-80.921" x2="-80.57" y1="402.103" y2="507.228" gradientTransform="translate(255.69 -204.742)" gradientUnits="userSpaceOnUse"/><filter id="c" width="1" height="1" x="0" y="0" color-interpolation-filters="sRGB"><feTurbulence baseFrequency="1" numOctaves="3" result="result0" type="fractalNoise"/><feColorMatrix result="result4" type="saturate" values="0"/><feComposite in="SourceGraphic" in2="result4" k1="1.25" k2=".5" k3=".5" operator="arithmetic" result="result2"/><feBlend in="result2" in2="SourceGraphic" result="result5"/><feComposite in="result5" in2="SourceGraphic" operator="in" result="result3"/></filter><filter id="f" width="1.09" height="1.103" x="-.045" y="-.051" color-interpolation-filters="sRGB"><feGaussianBlur stdDeviation="2.276"/></filter><filter id="d" width="1.127" height="1.147" x="-.063" y="-.073" color-interpolation-filters="sRGB"><feGaussianBlur stdDeviation="5.602"/></filter></defs><g fill="#323232" filter="url(#c)" style="mix-blend-mode:saturation" transform="matrix(1.62 0 0 1.62 0 17.37)"><path d="M200-10.722v144.444H0V-10.722h76.078z"/><g fill="#fff" fill-rule="evenodd" transform="translate(30 21.667)"><rect width="69.777" height="42.748" x="70.223" y="-10.722" fill-opacity=".7" ry="7.127"/><rect width="69.777" height="42.748" y="47.641" fill-opacity=".3" ry="7.127"/></g></g><path fill="none" stroke="#000" stroke-width="3" d="M177.377 148.827c-28.932-.09-57.869 2.592-81.055 7.94-9.074 2.092-11.298 2.94-16.145 6.162-4.373 2.907-11.767 10.674-13.34 14.011a133.068 133.068 0 0 1-1.61 3.325c-.693 1.312-2.03 6.268-3.37 12.476-1.102 5.108-1.55 7.578-2.613 14.442-.11.712-.362 2.926-.56 4.92a333.246 333.246 0 0 1-.52 4.918c-.087.711-.303 3.274-.479 5.695-.176 2.42-.425 4.908-.553 5.53-.455 2.215-.623 34.751-.222 43.14.407 8.53.89 14.583 1.28 16.05.115.428.344 2.525.509 4.66.745 9.678 4.9 29.508 7.095 33.856 4.667 9.246 13.242 15.967 23.727 18.598 4.98 1.25 13.157 2.856 17.863 3.512 2.278.317 4.724.67 5.436.785.712.114 5.605.655 10.873 1.203 5.268.548 10.861 1.135 12.428 1.305 1.566.17 6.924.448 11.908.619 4.983.17 9.11.351 9.17.4.31.252 39.022-.192 43.9-.504 8.621-.55 9.51-.612 13.98-.965 7.265-.572 10.323-.857 11.651-1.084.712-.121 2.342-.356 3.623-.521 1.282-.166 2.68-.397 3.107-.514.428-.117 2.64-.454 4.918-.748 8.5-1.096 20.428-3.719 24.336-5.35 4.11-1.714 7.976-4.57 12.268-9.066 6.886-7.213 8.608-10.616 11.453-22.627 4.133-17.446 6.032-36.67 6.037-61.096.005-25.237-1.994-44.591-6.49-62.789-2.022-8.184-3.07-10.967-5.422-14.384-3.736-5.43-11.383-11.426-17.48-13.707-3.853-1.442-11.817-3.31-20.916-4.907-19.787-3.47-42.286-5.215-64.787-5.285z" filter="url(#d)" transform="matrix(.67 0 0 .67 45.815 -49.804)"/><path fill="url(#e)" d="M177.376 148.827c-28.93-.09-57.868 2.592-81.054 7.94-9.074 2.092-11.298 2.94-16.145 6.162-4.373 2.907-11.767 10.674-13.34 14.011a133.068 133.068 0 0 1-1.61 3.325c-.693 1.312-2.03 6.268-3.37 12.476-1.102 5.108-1.55 7.578-2.613 14.442-.11.712-.362 2.926-.56 4.92a333.246 333.246 0 0 1-.52 4.918c-.087.711-.303 3.274-.479 5.695-.176 2.42-.425 4.908-.553 5.53-.455 2.215-.623 34.751-.222 43.14.407 8.53.89 14.583 1.28 16.05.115.428.344 2.525.509 4.66.745 9.678 4.9 29.508 7.095 33.856 4.667 9.246 13.242 15.967 23.727 18.598 4.98 1.25 13.157 2.856 17.863 3.512 2.278.317 4.724.67 5.436.785.712.114 5.605.655 10.873 1.203 5.268.548 10.861 1.135 12.428 1.305 1.566.17 6.924.448 11.908.619 4.983.17 9.11.351 9.17.4.31.252 39.022-.192 43.9-.504 8.621-.55 9.51-.612 13.98-.965 7.265-.572 10.323-.857 11.651-1.084.712-.121 2.342-.356 3.623-.521 1.282-.166 2.68-.397 3.107-.514.428-.117 2.64-.454 4.918-.748 8.5-1.096 20.428-3.719 24.336-5.35 4.11-1.714 7.976-4.57 12.268-9.066 6.886-7.213 8.608-10.616 11.453-22.627 4.133-17.446 6.032-36.67 6.037-61.096.005-25.237-1.994-44.591-6.49-62.789-2.022-8.184-3.07-10.967-5.422-14.384-3.736-5.43-11.383-11.426-17.48-13.707-3.853-1.442-11.817-3.31-20.916-4.907-19.787-3.47-42.286-5.215-64.788-5.285z" transform="matrix(.67 0 0 .67 45.815 -49.804)"/><path fill="#8d1815" d="M174.77 197.36c-16.022 0-32.044.104-32.579.31-.73.28-.818 2.953-.818 24.851v24.54h-13.479c-11.66 0-13.518.106-13.783.796-.326.85.858 2.012 16.668 16.326 4.853 4.394 16.703 15.166 26.334 23.938 9.631 8.771 17.813 15.877 18.18 15.79.367-.085 4.953-4.117 10.193-8.958 40.747-37.648 49.602-46.023 49.602-46.916 0-.933-.613-.977-13.461-.977h-13.463v-24.539c0-21.898-.088-24.571-.819-24.851-.535-.206-16.555-.31-32.576-.31zm-32.362 1.54 32.23.133 32.233.133.068 13.203.13 24.724.06 11.52 13.074.021 13.074.02-2.36 2.18a134147.43 134147.43 0 0 0-26.126 24.185 598898.685 598898.685 0 0 1-26.719 24.736l-2.951 2.73-29.47-26.806-29.47-26.806 13.114-.139 13.113-.139v-24.847z" filter="url(#f)" transform="matrix(.67 0 0 .67 45.815 -49.804)"/><path fill="url(#g)" fill-rule="evenodd" d="M174.77 197.36c-16.022 0-32.044.104-32.579.31-.73.28-.818 2.953-.818 24.851v24.54h-13.479c-11.66 0-13.518.106-13.783.796-.326.85.858 2.012 16.668 16.326 4.853 4.394 16.703 15.166 26.334 23.938 9.631 8.771 17.813 15.877 18.18 15.79.367-.085 4.953-4.117 10.193-8.958 40.747-37.648 49.602-46.023 49.602-46.916 0-.933-.613-.977-13.461-.977h-13.463v-24.539c0-21.898-.088-24.571-.819-24.851-.535-.206-16.555-.31-32.576-.31z" transform="matrix(.67 0 0 .67 45.815 -49.804)"/></svg>