<svg xmlns="http://www.w3.org/2000/svg" width="324" height="234"><defs><filter id="a" color-interpolation-filters="sRGB"><feTurbulence baseFrequency="1" numOctaves="3" result="result0" type="fractalNoise"/><feColorMatrix result="result4" type="saturate" values="0"/><feComposite in="SourceGraphic" in2="result4" k1="1.25" k2=".5" k3=".5" operator="arithmetic" result="result2"/><feBlend in="result2" in2="SourceGraphic" result="result5"/><feComposite in="result5" in2="SourceGraphic" operator="in" result="result3"/></filter></defs><path fill="#999" d="M200-10.72v144.44H0V-10.72h76.08z" filter="url(#a)" style="mix-blend-mode:saturation" transform="matrix(1.62 0 0 1.62 0 17.37)"/><g transform="matrix(.15176 0 0 .15193 86.12 41.03)"><ellipse cx="500.01" cy="500" fill="#333" rx="499.99" ry="500"/><path fill="#3d3d3d" fill-rule="evenodd" d="M89.29 215.1a500 500 0 0 0-1.94 2.58 500 500 0 0 0-26.12 42.6 500 500 0 0 0-21.75 45.01 500 500 0 0 0-17.15 46.95A500 500 0 0 0 10 400.66a500 500 0 0 0-7.49 49.42A500 500 0 0 0 0 500a500 500 0 0 0 1.26 35.37A500 500 0 0 0 7.3 585a500 500 0 0 0 10.94 48.76 500 500 0 0 0 15.74 47.44 500 500 0 0 0 20.42 45.6 500 500 0 0 0 24.88 43.33A500 500 0 0 0 93.9 790.6l331.38-179.19V413.04Z"/><path fill="#e23229" d="M325.12 665.58a230.95 236.9 0 0 0 172.2 79.48 230.95 236.9 0 0 0 230.93-236.9 230.95 236.9 0 0 0-230.94-236.91 230.95 236.9 0 0 0-174.2 81.6l102.17 60.2v198.37z"/><path fill="#c7322a" d="m325.12 665.58 100.16-54.16V413.04l-102.17-60.2a230.95 236.9 0 0 0-56.74 155.31 230.95 236.9 0 0 0 58.75 157.43z"/><path fill="#fff" fill-rule="evenodd" d="M425.28 611.41V413.04l189.28 97.83z"/></g></svg>