<svg xmlns="http://www.w3.org/2000/svg" xmlns:xlink="http://www.w3.org/1999/xlink" width="324" height="234"><defs><linearGradient id="c"><stop offset="0" stop-color="#1d1133"/><stop offset="1" stop-color="#24153f"/></linearGradient><linearGradient id="b"><stop offset="0" stop-color="#4e2e89"/><stop offset="1" stop-color="#330032" stop-opacity="0"/></linearGradient><linearGradient id="a"><stop offset="0" stop-color="#ad17e4"/><stop offset="1" stop-color="#9450fb"/></linearGradient><linearGradient xlink:href="#a" id="f" x1="-12.471" x2="89.487" y1="62.41" y2=".269" gradientUnits="userSpaceOnUse"/><linearGradient xlink:href="#b" id="e" x1="0" x2="172.222" y1="133.722" y2="-10.722" gradientUnits="userSpaceOnUse"/><linearGradient xlink:href="#c" id="d" x1="0" x2="324" y1="117" y2="117" gradientUnits="userSpaceOnUse"/></defs><g fill-rule="evenodd" paint-order="markers fill stroke"><path fill="url(#d)" d="M0 0v234h324V0H0z"/><path fill="url(#e)" d="M172.222-10.722H0v144.444h27.778Z" transform="matrix(1.62 0 0 1.62 0 17.37)"/><path fill="url(#f)" d="M147.248-10.722H0V73.87c1.557-1.233 3.107-2.49 4.667-3.715 7.462-5.862 14.953-11.634 22.502-17.221a638.638 638.638 0 0 1 11.37-8.23 510.36 510.36 0 0 1 11.48-7.887 420.719 420.719 0 0 1 11.608-7.472 354.808 354.808 0 0 1 11.76-6.99 345.897 345.897 0 0 1 11.927-6.463 391.44 391.44 0 0 1 12.08-5.979c4.049-1.92 8.12-3.77 12.209-5.565A552.888 552.888 0 0 1 121.92-.873c8.243-3.381 16.544-6.579 24.874-9.684.151-.056.303-.11.454-.165z" transform="matrix(1.62 0 0 1.62 0 17.37)"/></g><path fill="#de00f9" d="M231.615 39.1H92.385A12.285 13.474 0 0 0 80.1 52.574V142.4a12.285 13.474 0 0 0 12.285 13.474h61.425v8.982h-45.045a4.095 4.491 0 0 0-4.095 4.491v8.983a4.095 4.491 0 0 0 4.095 4.491h106.47a4.095 4.491 0 0 0 4.095-4.491v-8.983a4.095 4.491 0 0 0-4.095-4.49H170.19v-8.983h61.425A12.285 13.474 0 0 0 243.9 142.4V52.574A12.285 13.474 0 0 0 231.615 39.1Zm-4.095 98.808H96.48V57.065h131.04Z"/></svg>