<svg xmlns="http://www.w3.org/2000/svg" xmlns:xlink="http://www.w3.org/1999/xlink" width="324" height="234"><defs><linearGradient id="b"><stop offset="0" stop-color="#fff"/><stop offset="1" stop-color="#fce94f"/></linearGradient><linearGradient id="a" x1="3.78" x2="19.57" y1="23.64" y2="22.5" gradientUnits="userSpaceOnUse"><stop stop-color="#2980b9"/><stop offset="1" stop-color="#34495e"/></linearGradient><linearGradient xlink:href="#a" id="d" x1="2.92" x2="24.51" y1="25.07" y2="25.07" gradientTransform="translate(65.14 -9.7) scale(5.131)" gradientUnits="userSpaceOnUse"/><radialGradient xlink:href="#b" id="c" cx="100" cy="61.5" r="100" fx="100" fy="61.5" gradientTransform="matrix(1.62 0 0 1.17 0 45.05)" gradientUnits="userSpaceOnUse"/></defs><path fill="url(#c)" d="M324 0v234H0V0h123.25z"/><g style="line-height:1.25;-inkscape-font-specification:&quot;sans-serif Bold&quot;" word-spacing="0"><path fill="#d84b11" d="M233.43 83.93V70.19h-13.66v-5.44h13.66V51h5.52v13.73h13.74v5.45h-13.74v13.74z" aria-label="+" font-family="Noto Serif Kannada" font-size="76.73" font-weight="700" letter-spacing="0" style="-inkscape-font-specification:&quot;Noto Serif Kannada Bold&quot;" transform="scale(.889 1.125)"/></g><g style="line-height:1.25;-inkscape-font-specification:&quot;sans-serif Bold&quot;" word-spacing="0"><path fill="#d84b11" d="M244.79 120.7v-13.74h-13.66v-5.45h13.66V87.78h5.53v13.73h13.73v5.45h-13.73v13.74z" aria-label="+" font-family="Noto Serif Kannada" font-size="76.73" font-weight="700" letter-spacing="0" style="-inkscape-font-specification:&quot;Noto Serif Kannada Bold&quot;" transform="scale(.889 1.125)"/></g><g style="line-height:1.25;-inkscape-font-specification:&quot;URW Chancery L Bold&quot;" word-spacing="0"><path fill="url(#d)" d="M182.43 139.48a70.91 70.91 0 0 0 2.39 3.86c2.94 5.14 3.67 7.35 3.67 11.57 0 9.73-5.7 14.5-17.81 14.5-6.98 0-14.33-.36-26.26-1.46-15.43-1.47-19.1-1.65-24.61-1.65h-6.61l-5.88.91 14.88-15.42 26.44-27 47.38-47.93v-5.32c-6.43 5.5-11.57 7.53-18.36 7.53-2.58 0-7.72-.37-14.7-1.1-17.8-1.66-17.8-1.66-22.58-2.2-9.18-.93-9.18-.93-10.65-.93-4.04 0-5.15.92-8.08 6.98l-12.12 26.45 3.12 4.59c12.85-22.6 13.77-23.88 19.46-23.88 1.29 0 3.13.19 4.96.37 7.35.92 12.3 1.29 18.73 1.29 8.63 0 12.3-.37 21.3-1.84l-62.25 62.25c-14.14 13.78-23.32 22.77-27.73 26.63v6.8c6.06-4.41 10.29-5.88 17.08-5.88 4.78 0 11.2.37 18.18 1.1 22.4 2.39 40.22 3.86 44.62 3.86 5.15 0 9.55-1.66 13.04-4.96 2.2-2.2 3.86-4.04 9-10.65l4.22-5.33c5.51-6.6 6.61-9.36 6.61-15.6 0-5.15-.91-9.37-3.67-15.8z" aria-label="Z" font-family="URW Chancery L" font-size="183.64" font-weight="700" letter-spacing="0" paint-order="markers fill stroke" style="-inkscape-font-specification:&quot;URW Chancery L Bold&quot;" transform="matrix(.933 -.127 .112 1.056 0 0)"/></g><path fill="#bc0000" d="m192.28 106.99-9.12 1.14-60.24 5.94-2.38 13.56 22.36-4.95 50.02-12.18zm-26.56 6.46-23.63 5.75-17.1 3.78.99-5.61z" color="#000" font-family="sans-serif" font-weight="400" overflow="visible" style="line-height:normal;font-variant-ligatures:normal;font-variant-position:normal;font-variant-caps:normal;font-variant-numeric:normal;font-variant-alternates:normal;font-feature-settings:normal;text-indent:0;text-align:start;text-decoration-line:none;text-decoration-style:solid;text-decoration-color:#000;text-transform:none;text-orientation:mixed;white-space:normal;shape-padding:0;isolation:auto;mix-blend-mode:normal;solid-color:#000;solid-opacity:1"/></svg>