<?xml version="1.0" encoding="UTF-8" standalone="no"?>
<svg
   xmlns:dc="http://purl.org/dc/elements/1.1/"
   xmlns:cc="http://creativecommons.org/ns#"
   xmlns:rdf="http://www.w3.org/1999/02/22-rdf-syntax-ns#"
   xmlns:svg="http://www.w3.org/2000/svg"
   xmlns="http://www.w3.org/2000/svg"
   xmlns:xlink="http://www.w3.org/1999/xlink"
   xmlns:sodipodi="http://sodipodi.sourceforge.net/DTD/sodipodi-0.dtd"
   xmlns:inkscape="http://www.inkscape.org/namespaces/inkscape"
   width="324px"
   height="234px"
   viewBox="0 0 324 234"
   version="1.1"
   id="svg24"
   sodipodi:docname="zoom.svg"
   inkscape:version="0.92.4 (5da689c313, 2019-01-14)">
  <metadata
     id="metadata28">
    <rdf:RDF>
      <cc:Work
         rdf:about="">
        <dc:format>image/svg+xml</dc:format>
        <dc:type
           rdf:resource="http://purl.org/dc/dcmitype/StillImage" />
      </cc:Work>
    </rdf:RDF>
  </metadata>
  <sodipodi:namedview
     pagecolor="#ffffff"
     bordercolor="#666666"
     borderopacity="1"
     objecttolerance="10"
     gridtolerance="10"
     guidetolerance="10"
     inkscape:pageopacity="0"
     inkscape:pageshadow="2"
     inkscape:window-width="1280"
     inkscape:window-height="984"
     id="namedview26"
     showgrid="false"
     inkscape:zoom="1.008547"
     inkscape:cx="-1.2261505"
     inkscape:cy="-16.830532"
     inkscape:window-x="0"
     inkscape:window-y="0"
     inkscape:window-maximized="1"
     inkscape:current-layer="svg24" />
  <defs
     id="defs7">
    <linearGradient
       inkscape:collect="always"
       id="linearGradient1093">
      <stop
         style="stop-color:#ebebeb;stop-opacity:1"
         offset="0"
         id="stop1089" />
      <stop
         style="stop-color:#fdfdfd;stop-opacity:1"
         offset="1"
         id="stop1091" />
    </linearGradient>
    <linearGradient
       id="linear0"
       gradientUnits="userSpaceOnUse"
       x1="-1.455352"
       y1="64.761543"
       x2="181.728165"
       y2="64.761543"
       gradientTransform="matrix(1.8,0,0,1.8,-108.00001,1.494914)">
      <stop
         offset="0"
         style="stop-color:rgb(100%,55.686277%,0%);stop-opacity:1;"
         id="stop2" />
      <stop
         offset="1"
         style="stop-color:rgb(94.117647%,53.333336%,1.960784%);stop-opacity:1;"
         id="stop4" />
    </linearGradient>
    <clipPath
       id="a">
      <path
         inkscape:connector-curvature="0"
         d="M -200,-175 H 800 V 387 H -200 Z"
         id="path2" />
    </clipPath>
    <clipPath
       id="b">
      <path
         style="clip-rule:evenodd"
         inkscape:connector-curvature="0"
         d="m 370,89 a 24,24 0 1 1 -34,0 24,24 0 0 1 34,0 z M 353,66 a 40,40 0 1 1 -0.05,0 z m 101,23 a 24,24 0 1 1 -34,0 24,24 0 0 1 34,0 z M 465.3,77.7 A 40,40 0 1 1 437,66 40,40 0 0 1 465.28,77.72 Z m -212.3,68.1 4,0.2 h 60 l -0.2,-4 c -0.54,-6.6 -5.2,-11.4 -11.8,-11.8 l -4,-0.2 h -36 l 48,-48 -0.2,-4 A 12.1,12.1 0 0 0 301,66.2 L 297,66 h -60 l 0.2,4 A 12.41,12.41 0 0 0 249,81.8 l 4,0.2 h 36 l -48,48 0.2,4 A 12.23,12.23 0 0 0 253,145.8 Z M 526.84,90 a 17.29,17.29 0 0 1 2,8 l 0.2,4 v 28 l 0.2,4 A 12.29,12.29 0 0 0 541,145.8 l 4,0.2 v -44 l 0.2,-4 a 17.44,17.44 0 0 1 2,-8.05 16,16 0 0 1 27.69,0.05 17.54,17.54 0 0 1 1.94,8 l 0.2,4 v 28 l 0.2,4 A 12.24,12.24 0 0 0 589,145.8 l 4,0.2 V 98 A 32,32 0 0 0 537,76.83 32,32 0 0 0 495.08,71.48 C 492,68 485,66 481,66 v 80 l 4,-0.2 c 6.68,-0.44 11.54,-5.16 11.8,-11.8 l 0.2,-4 v -28 l 0.2,-4 a 17.45,17.45 0 0 1 2,-8 16,16 0 0 1 27.68,0 z"
         id="path5" />
    </clipPath>
    <clipPath
       id="c">
      <circle
         cx="107"
         cy="106"
         r="102"
         id="circle8" />
    </clipPath>
    <clipPath
       id="d">
      <circle
         cx="107"
         cy="106"
         r="100"
         id="circle11" />
    </clipPath>
    <clipPath
       id="e">
      <circle
         cx="107"
         cy="106"
         r="92"
         id="circle14" />
    </clipPath>
    <clipPath
       id="f">
      <path
         style="clip-rule:evenodd"
         inkscape:connector-curvature="0"
         d="m 135,94.06 26,-19 c 2.27,-1.85 4,-1.42 4,2 V 135 c 0,3.84 -2.16,3.4 -4,2 L 135,118 Z M 47,77.2 v 43.2 A 17.69,17.69 0 0 0 64.77,138 h 63 A 3.22,3.22 0 0 0 131,134.8 V 91.6 A 17.69,17.69 0 0 0 113.23,74 h -63 A 3.22,3.22 0 0 0 47,77.2 Z"
         id="path17" />
    </clipPath>
    <linearGradient
       inkscape:collect="always"
       xlink:href="#linearGradient1093"
       id="linearGradient1095"
       x1="-183.77713"
       y1="231.98276"
       x2="-147.23401"
       y2="4.821702"
       gradientUnits="userSpaceOnUse" />
  </defs>
  <rect
     id="rect9"
     style="fill:url(#linearGradient1095);fill-opacity:1;stroke:none"
     height="234"
     width="324"
     y="0"
     x="-324"
     transform="scale(-1,1)" />
  <path
     inkscape:connector-curvature="0"
     id="path11"
     d="M -1.699218,-1.9492182 H 326.19141 V 235.08985 H -1.699218 Z m 0,0"
     style="fill:none;stroke:#ffffff;stroke-width:1.83906543;stroke-linecap:butt;stroke-linejoin:miter;stroke-miterlimit:4;stroke-opacity:1" />
  <g
     id="g1085"
     transform="translate(17.26974)">
    <g
       transform="matrix(0.46388278,0,0,0.46388278,-47.781094,111.70127)"
       clip-path="url(#b)"
       id="g22">
      <path
         style="fill:#4a8cff"
         inkscape:connector-curvature="0"
         d="m 232,61 h 366 v 90 H 232 Z"
         id="path20" />
    </g>
    <g
       transform="matrix(2.4420153,0,0,2.4420153,399.87255,33.762122)"
       id="g1048">
      <g
         id="g26"
         clip-path="url(#c)"
         transform="matrix(0.189959,0,0,0.189959,-124.80583,-2.7799885)">
        <path
           id="path24"
           d="M 0,-1 H 214 V 213 H 0 Z"
           inkscape:connector-curvature="0"
           style="fill:#e5e5e4" />
      </g>
      <g
         id="g30"
         clip-path="url(#d)"
         transform="matrix(0.189959,0,0,0.189959,-124.80583,-2.7799885)">
        <path
           id="path28"
           d="M 2,1 H 212 V 211 H 2 Z"
           inkscape:connector-curvature="0"
           style="fill:#ffffff" />
      </g>
      <g
         id="g34"
         clip-path="url(#e)"
         transform="matrix(0.189959,0,0,0.189959,-124.80583,-2.7799885)">
        <path
           id="path32"
           d="M 10,9 H 204 V 203 H 10 Z"
           inkscape:connector-curvature="0"
           style="fill:#4a8cff" />
      </g>
      <g
         id="g38"
         clip-path="url(#f)"
         transform="matrix(0.189959,0,0,0.189959,-124.80583,-2.7799885)">
        <path
           id="path36"
           d="m 42,69 h 128 v 74 H 42 Z"
           inkscape:connector-curvature="0"
           style="fill:#ffffff" />
      </g>
    </g>
  </g>
</svg>
