<?xml version="1.0"?>
<svg xmlns="http://www.w3.org/2000/svg" id="Layer_1" height="512px" viewBox="0 0 128 128" width="512px" data-name="Layer 1"><g><path d="m91.839 34.017-38.61 6.041a1.749 1.749 0 0 0 -1.479 1.729v37.008a15.4 15.4 0 0 0 -11.35-4.842c-8.186 0-14.846 6.094-14.846 13.583s6.665 13.584 14.846 13.584 14.85-6.094 14.85-13.584v-27.469l35.109-5.494v18.305a15.4 15.4 0 0 0 -11.346-4.842c-8.186 0-14.846 6.094-14.846 13.584s6.661 13.58 14.847 13.58 14.845-6.091 14.845-13.58v-45.875a1.749 1.749 0 0 0 -2.021-1.729zm-51.439 63.603c-6.256 0-11.346-4.523-11.346-10.084s5.094-10.083 11.346-10.083 11.35 4.524 11.35 10.083-5.09 10.084-11.35 10.084zm38.614-5.92c-6.256 0-11.346-4.523-11.346-10.083s5.09-10.084 11.346-10.084 11.345 4.527 11.345 10.087-5.089 10.08-11.345 10.08zm-23.764-35.175v-13.242l35.109-5.493v13.241z" data-original="#000000" class="active-path" data-old_color="#000000" fill="#FFFFFF"/><path d="m33.685 58.1v-21.775l18.643-4.506a1.751 1.751 0 0 0 1.339-1.7v-13.419a1.751 1.751 0 0 0 -2.167-1.7l-19.977 4.831a1.751 1.751 0 0 0 -1.339 1.7v28.729a12.734 12.734 0 0 0 -8.718-3.37c-6.736.001-12.216 5.029-12.216 11.21s5.48 11.208 12.217 11.208 12.218-5.029 12.218-11.208zm0-35.189 16.481-3.983v9.812l-16.481 3.984zm-12.218 42.9c-4.807 0-8.717-3.458-8.717-7.708s3.91-7.709 8.717-7.709 8.718 3.458 8.718 7.709-3.912 7.705-8.718 7.705z" data-original="#000000" class="active-path" data-old_color="#000000" fill="#FFFFFF"/><path d="m117 67.953a1.75 1.75 0 0 0 -1.75 1.75v24.297a12.733 12.733 0 0 0 -8.717-3.37c-6.737 0-12.218 5.028-12.218 11.208s5.48 11.208 12.218 11.208 12.217-5.028 12.217-11.208v-32.138a1.75 1.75 0 0 0 -1.75-1.747zm-10.467 41.594c-4.807 0-8.718-3.458-8.718-7.708s3.911-7.708 8.718-7.708 8.717 3.458 8.717 7.708-3.91 7.708-8.717 7.708z" data-original="#000000" class="active-path" data-old_color="#000000" fill="#FFFFFF"/></g> </svg>
