<?xml version="1.0"?>
<svg xmlns="http://www.w3.org/2000/svg" xmlns:xlink="http://www.w3.org/1999/xlink" version="1.1" id="Capa_1" x="0px" y="0px" viewBox="0 0 464 464" style="enable-background:new 0 0 464 464;" xml:space="preserve" width="512px" height="512px" class=""><g><path d="M409.682,252.897c-7.91-3.558-15.42-6.94-22.051-10.227c-13.599-8.584-18.814-24.91-21.822-38.41  c-0.188-0.847-0.509-1.63-0.929-2.338C349.263,148.931,294.776,112,232,112c-62.519,0-117.139,36.895-132.828,89.722  c-0.019,0.064-0.029,0.128-0.047,0.192c-0.059,0.099-0.113,0.201-0.168,0.303c-0.068,0.127-0.134,0.254-0.196,0.385  c-0.05,0.107-0.095,0.216-0.141,0.326c-0.057,0.136-0.111,0.273-0.161,0.413c-0.04,0.114-0.075,0.229-0.11,0.346  c-0.042,0.141-0.083,0.282-0.118,0.427c-0.012,0.049-0.029,0.096-0.04,0.146c-3.162,14.194-8.745,31.532-23.969,39.688  c-0.462,0.247-0.887,0.536-1.279,0.855c-5.552,2.609-11.602,5.286-17.929,8.084C20.905,267.97,0,277.928,0,292  c0,18.509,24.157,33.502,71.799,44.563C114.683,346.518,171.577,352,232,352c60.424,0,117.317-5.482,160.201-15.437  C439.844,325.502,464,310.509,464,292C464,278.043,443.359,268.049,409.682,252.897z M388.583,320.977  C346.851,330.665,291.241,336,232,336c-59.242,0-114.851-5.335-156.583-15.023c-45.79-10.629-58.803-22.747-59.396-28.563  c0.514-0.883,2.998-4.093,14.066-10.109c8.869-4.821,20.322-9.886,31.398-14.783c6.655-2.943,13.49-5.968,19.679-8.907  C122.78,267.248,176.254,272,232,272c25.589,0,50.704-0.986,74.647-2.931c4.404-0.357,7.684-4.217,7.326-8.621  c-0.357-4.403-4.217-7.69-8.621-7.326C281.838,255.032,257.158,256,232,256c-49.066,0-96.225-3.73-134.706-10.577  c7.643-9.098,11.931-20.088,14.731-30.418C147.99,220.241,189.282,223,232,223c12.167,0,24.38-0.227,36.3-0.673  c4.415-0.166,7.86-3.879,7.694-8.294c-0.165-4.416-3.907-7.86-8.294-7.694C255.979,206.777,243.968,207,232,207  c-40.981,0-80.55-2.583-115.173-7.479C133.041,157.079,179.269,128,232,128c27.834,0,54.012,7.88,75.703,22.788  c18.375,12.629,32.158,29.723,39.475,48.738c-15.308,2.163-31.667,3.887-48.758,5.129c-4.406,0.32-7.719,4.152-7.398,8.559  c0.306,4.209,3.815,7.421,7.97,7.421c0.195,0,0.392-0.007,0.589-0.021c18.404-1.337,35.993-3.227,52.393-5.614  c2.8,10.332,7.088,21.324,14.732,30.424c-9.665,1.719-19.926,3.255-30.685,4.583c-4.386,0.542-7.501,4.535-6.96,8.92  c0.5,4.052,3.948,7.021,7.93,7.021c0.326,0,0.657-0.02,0.989-0.061c16.294-2.011,31.508-4.491,45.301-7.368  c0.296,0.107,0.594,0.199,0.896,0.269c6.016,2.887,12.557,5.831,18.941,8.702c10.96,4.931,22.293,10.03,31.033,14.853  c10.885,6.007,13.324,9.193,13.828,10.067C447.393,298.224,434.384,310.344,388.583,320.977z" data-original="#000000" class="active-path" data-old_color="#000000" fill="#FFFFFF"/></g> </svg>
