<?xml version="1.0"?>
<svg xmlns="http://www.w3.org/2000/svg" xmlns:xlink="http://www.w3.org/1999/xlink" version="1.1" id="Capa_1" x="0px" y="0px" viewBox="0 0 416 416" style="enable-background:new 0 0 416 416;" xml:space="preserve" width="512px" height="512px" class=""><g><g>
	<g>
		<path d="M377.6,263.2h-4V48h4c13.2,0,24-10.8,24-24s-10.8-24-24-24H38.4c-13.2,0-24,10.8-24,24s10.8,24,24,24h4v215.2h-4    c-13.2,0-24,10.8-24,24s10.8,24,24,24H194l-80.4,94c-2.4,2.8-2,6.8,0.8,9.2c1.2,1.2,2.8,1.6,4.4,1.6c2,0,3.6-0.8,4.8-2.4l42.8-50    H250l42.8,50c1.2,1.6,3.2,2.4,4.8,2.4c1.6,0,3.2-0.4,4.4-1.6c2.8-2.4,3.2-6.4,0.8-9.2l-80.8-94h155.6c13.2,0,24-10.8,24-24    S390.8,263.2,377.6,263.2z M38.4,35.2c-6-0.4-11.2-5.2-11.2-11.2S32,12.8,38.4,12.8h339.2c6,0,11.2,4.8,11.2,11.2    c0,6-4.8,11.2-11.2,11.2h-10.8H49.2H38.4z M360.4,48v215.2H55.6V48H360.4z M238.8,350.8h-61.6l30.8-36L238.8,350.8z M377.6,298.4    H38.4c-6,0-11.2-4.8-11.2-11.2c0-6,4.8-11.2,11.2-11.2h10.8h318H378c6,0,11.2,4.8,11.2,11.2C388.8,293.2,383.6,298.4,377.6,298.4z    " data-original="#000000" class="active-path" data-old_color="#000000" fill="#FFFFFF"/>
	</g>
</g></g> </svg>
