<?xml version="1.0" encoding="UTF-8" standalone="no"?><svg xmlns="http://www.w3.org/2000/svg" xml:space="preserve" width="512" height="512" viewBox="0 0 321.145 321.145"><g fill="#cdcfd7" stroke="#cdcfd7" stroke-width="2.004"><path stroke-width="1.831" d="M307.15 197.501c-.731-16.814-3.656-35.456-8.042-53.002-4.386-16.814-9.87-32.532-16.449-44.594-25.587-44.96-53.367-38.015-86.63-29.242-10.6 2.558-21.932 5.482-33.629 6.579h-3.655c-11.697-1.097-23.029-4.02-33.629-6.58-33.263-8.407-61.043-15.717-86.63 29.608-6.58 12.063-12.428 27.78-16.45 44.595-4.386 17.545-7.31 36.187-8.04 53.002-.732 18.642 1.096 32.166 5.117 41.67 4.02 8.773 9.869 14.256 17.545 16.449 6.945 1.827 14.987 1.096 23.394-2.559 14.256-5.848 30.704-18.276 46.788-33.263 11.331-10.966 32.532-16.449 53.732-16.449 21.201 0 42.402 5.483 53.733 16.449 16.083 14.987 32.532 27.415 46.788 33.263 8.407 3.29 16.449 4.386 23.394 2.559 7.31-2.193 13.524-7.31 17.545-16.815 4.021-9.138 5.849-22.662 5.118-41.67zm-17.546 36.553c-2.193 5.117-5.117 8.042-8.773 9.138-4.02 1.097-9.138.366-14.986-1.827-12.794-5.118-27.78-16.45-42.402-30.34-13.89-13.89-38.38-20.834-62.87-20.834-24.491 0-48.982 6.945-63.237 20.104-14.987 13.89-29.974 25.587-42.402 30.339-5.848 2.193-10.965 3.29-14.986 1.827-3.656-1.096-6.58-4.02-8.773-9.138-2.924-6.945-4.386-18.276-3.655-35.09.73-15.719 3.29-33.63 7.676-50.444 4.02-15.718 9.138-30.339 15.352-41.305 20.104-36.187 43.498-30.339 71.278-23.028 11.332 2.924 23.029 5.848 35.822 6.945h5.483c13.16-1.097 24.856-4.02 36.187-6.945 27.78-6.945 51.175-13.159 71.279 23.028 6.214 10.966 11.331 25.222 15.352 41.305 4.02 16.815 6.945 34.36 7.676 50.443.731 16.815-.731 28.146-4.02 35.822z" class="active-path" data-old_color="#000000" data-original="#000000"/><path stroke-width="1.831" d="M126.944 126.223c-3.656-3.29-8.042-5.849-13.16-6.214-.365-4.752-2.558-9.504-5.848-12.794l-.365-.365c-4.021-4.02-9.139-6.214-14.987-6.214-5.849 0-11.331 2.559-14.987 6.214-3.29 3.29-5.848 8.042-6.214 13.159-5.117.365-9.503 2.559-13.159 5.848l-.365.366c-4.021 4.02-6.214 9.138-6.214 14.987 0 5.848 2.558 11.331 6.214 14.986 3.655 3.656 8.041 5.849 13.524 6.214.366 5.118 2.559 9.87 6.214 13.16 4.021 4.02 9.138 6.213 14.987 6.213 5.848 0 11.331-2.558 14.987-6.214 3.29-3.655 5.848-8.041 6.214-13.159 5.117-.365 9.869-2.558 13.159-6.214 4.02-4.02 6.214-9.138 6.214-14.986 0-5.849-2.559-11.332-6.214-14.987zm-9.139 20.47c-1.462 1.462-3.29 2.193-5.482 2.193h-5.118c-3.655 0-6.945 2.924-6.945 6.945v4.752c0 2.193-.731 4.02-2.193 5.483-1.462 1.462-3.29 2.193-5.483 2.193-2.193 0-4.02-.731-5.483-2.193-1.462-1.462-2.193-3.29-2.193-5.483v-5.118c0-3.655-2.924-6.945-6.945-6.945h-5.118c-2.193 0-4.02-.73-5.483-2.193-1.096-1.097-2.193-2.924-2.193-5.117 0-2.194.731-4.021 2.193-5.483l.366-.366c1.462-1.096 3.29-1.827 5.117-1.827h5.118c3.655 0 6.945-2.925 6.945-6.946v-5.117c0-2.193.73-4.02 2.193-5.483 1.462-1.462 3.29-2.193 5.483-2.193 2.193 0 4.02.731 5.483 2.193l.365.366c1.097 1.462 1.828 3.29 1.828 5.117v5.117c0 3.656 2.924 6.946 6.945 6.946h5.118c2.193 0 4.02.73 5.482 2.193 1.463 1.462 2.194 3.29 2.194 5.483 0 2.193-.731 4.02-2.194 5.483z" class="active-path" data-old_color="#000000" data-original="#000000"/><circle cx="230.173" cy="110.981" r="14" class="active-path" data-old_color="#000000" data-original="#000000" transform="translate(13.837 13.84) scale(.91382)"/><circle cx="230.173" cy="167.781" r="14" class="active-path" data-old_color="#000000" data-original="#000000" transform="translate(13.837 13.84) scale(.91382)"/><circle cx="201.773" cy="139.381" r="14" class="active-path" data-old_color="#000000" data-original="#000000" transform="translate(13.837 13.84) scale(.91382)"/><circle cx="258.573" cy="139.381" r="14" class="active-path" data-old_color="#000000" data-original="#000000" transform="translate(13.837 13.84) scale(.91382)"/></g></svg>