<?xml version="1.0" encoding="UTF-8" standalone="no"?>
<!DOCTYPE svg PUBLIC "-//W3C//DTD SVG 20010904//EN" "http://www.w3.org/TR/2001/REC-SVG-20010904/DTD/svg10.dtd">
<svg version="1.0" xmlns="http://www.w3.org/2000/svg" width="1024.000000pt" height="576.000000pt" viewBox="0 0 1024.000000 576.000000" preserveAspectRatio="xMidYMid meet">

<g transform="translate(0.000000,576.000000) scale(0.100000,-0.100000)" fill="#ffffff" stroke="none">
<path d="M5010 5713 c-14 -2 -71 -13 -128 -24 -122 -23 -110 -22 -114 -5 -2 10 -52 -8 -183 -64 -342 -146 -476 -216 -627 -332 -68 -51 -78 -56 -78 -37 0 17 -15 8 -82 -52 -253 -227 -396 -383 -413 -452 -4 -15 -13 -27 -20 -27 -19 0 -35 -29 -103 -184 -62 -140 -100 -196 -134 -196 -10 0 -25 -15 -37 -37 -91 -180 -265 -681 -250 -721 5 -13 9 -227 9 -475 0 -557 12 -683 91 -987 92 -350 282 -736 513 -1044 244 -325 533 -586 873 -790 169 -101 469 -219 642 -252 77 -15 402 -38 443 -32 25 4 -67 26 -217 53 -223 40 -319 88 -456 229 -82 85 -107 102 -74 52 10 -15 13 -26 6 -26 -22 0 -124 51 -170 84 -25 19 -67 42 -91 52 -25 9 -47 19 -49 20 -2 2 6 15 18 30 21 27 20 44 -4 44 -23 0 -128 86 -164 134 -32 42 -38 46 -77 46 -40 0 -45 3 -89 62 -43 57 -84 132 -100 183 -5 16 -8 17 -16 5 -11 -18 -24 -3 -127 140 -110 153 -144 220 -111 220 7 0 -9 22 -35 50 -50 53 -54 65 -32 89 13 14 9 24 -31 86 -45 70 -85 148 -98 195 l-7 25 28 -26 c37 -34 74 -53 74 -39 0 14 -66 144 -97 191 -26 40 -75 69 -116 69 -38 0 -81 50 -115 132 -42 101 -48 128 -29 128 12 0 9 13 -15 60 -28 56 -29 65 -23 133 6 63 4 77 -14 107 -63 108 -70 339 -23 785 34 316 29 299 151 538 45 87 81 162 81 168 0 5 -9 9 -20 9 -11 0 -20 5 -20 11 0 33 189 259 331 394 162 155 301 247 390 261 48 7 65 17 81 48 11 20 10 20 -15 3 -15 -9 -34 -17 -44 -17 -27 1 99 113 167 149 42 23 86 35 165 47 60 9 119 23 132 31 31 21 25 25 -18 13 -18 -6 -44 -10 -56 -10 -43 0 -23 18 45 39 37 12 114 49 171 81 77 44 126 64 190 79 99 23 151 28 168 18 6 -4 45 -2 85 4 112 17 409 6 541 -20 289 -58 481 -157 686 -356 284 -274 462 -605 496 -922 4 -35 11 -63 16 -63 12 0 11 -430 -1 -510 -6 -36 -13 -74 -16 -85 -3 -11 3 -7 12 10 43 76 21 -76 -33 -226 -35 -97 -38 -102 -79 -122 -51 -24 -68 -57 -69 -133 -1 -62 -6 -69 -155 -199 -121 -105 -227 -185 -246 -185 -19 0 -18 19 4 44 9 11 -17 -8 -58 -44 -81 -68 -162 -111 -219 -116 -20 -1 -49 -8 -66 -14 -122 -47 -309 -55 -452 -20 -403 100 -726 468 -760 868 -5 59 -8 70 -19 61 -12 -9 -14 2 -14 63 0 402 283 748 679 830 207 43 440 1 603 -109 69 -47 75 -48 38 -9 -93 100 -270 200 -407 230 -142 32 -317 16 -458 -40 -137 -55 -293 -183 -343 -280 -12 -23 -32 -48 -45 -57 -38 -24 -84 -105 -128 -223 -23 -60 -51 -125 -62 -144 -21 -33 -22 -48 -22 -230 0 -151 4 -210 17 -262 29 -111 75 -219 130 -303 62 -95 235 -272 371 -379 53 -42 97 -81 97 -86 0 -12 162 -63 264 -84 176 -37 426 -37 583 -1 258 59 466 175 683 380 117 110 152 137 131 97 -5 -10 -6 -24 -2 -31 12 -19 21 11 21 70 0 47 25 113 62 162 13 17 15 16 40 -18 l25 -36 7 43 c4 24 33 99 66 168 64 135 90 219 90 287 0 30 5 45 15 49 8 4 15 18 15 34 0 58 12 66 30 20 l17 -43 5 59 c3 33 22 105 41 162 l36 102 -24 0 c-31 0 -41 20 -50 101 -6 52 -4 69 8 81 13 13 11 22 -19 84 -18 38 -36 87 -40 109 -7 37 -6 39 10 26 10 -8 24 -28 33 -45 25 -47 26 -18 3 82 -11 51 -20 103 -20 116 0 14 -10 41 -21 61 -17 29 -24 33 -36 24 -22 -19 -41 7 -55 72 -16 77 -9 91 42 83 35 -6 41 -4 48 17 8 21 11 19 43 -37 47 -80 85 -168 131 -299 46 -130 41 -96 -8 63 -24 77 -37 140 -40 198 -4 78 5 108 20 68 4 -9 9 -15 12 -12 7 8 -37 121 -84 213 -137 272 -382 544 -652 722 -106 70 -109 71 -72 29 18 -21 31 -40 28 -43 -15 -15 -149 87 -166 126 -15 37 -71 56 -137 47 -134 -19 -122 -21 -228 30 -55 26 -187 75 -293 110 l-194 62 7 -25 c5 -23 4 -25 -20 -19 -64 16 -117 17 -200 2 -100 -18 -185 -21 -185 -7 0 5 12 13 28 19 23 8 16 10 -55 21 -45 6 -105 9 -135 6 l-53 -7 60 36 c33 19 56 35 50 34 -5 0 -21 -3 -35 -5z"/>
<path d="M5285 5670 c28 -12 45 -12 45 0 0 6 -15 10 -32 9 -28 0 -30 -2 -13 -9z"/>
<path d="M2960 4491 c0 -10 -7 -37 -15 -60 l-14 -41 25 17 c25 16 32 28 48 81 6 19 4 22 -18 22 -19 0 -26 -5 -26 -19z"/>
<path d="M2820 4039 c-20 -45 -27 -109 -12 -109 9 0 44 142 37 149 -3 2 -14 -16 -25 -40z"/>
<path d="M7401 3914 c0 -11 3 -14 6 -6 3 7 2 16 -1 19 -3 4 -6 -2 -5 -13z"/>
<path d="M6243 3437 c-20 -25 -22 -47 -7 -82 20 -48 34 -36 34 30 0 55 -10 75 -27 52z"/>
<path d="M7282 3100 c0 -14 2 -19 5 -12 2 6 2 18 0 25 -3 6 -5 1 -5 -13z"/>
<path d="M7271 3044 c0 -11 3 -14 6 -6 3 7 2 16 -1 19 -3 4 -6 -2 -5 -13z"/>
<path d="M6072 3003 c-24 -35 -52 -89 -52 -102 0 -5 15 -18 33 -29 l34 -19 13 21 c25 39 72 138 67 142 -2 2 -14 -18 -26 -44 -22 -47 -62 -82 -95 -82 -22 0 -21 4 19 77 37 65 41 83 7 36z"/>
<path d="M5543 2709 c-21 -7 70 -43 132 -53 35 -5 44 -2 78 28 l37 33 -115 -1 c-63 0 -123 -4 -132 -7z"/>
<path d="M4655 2593 c14 -29 27 -53 30 -53 8 0 -16 56 -36 80 -16 20 -15 15 6 -27z"/>
<path d="M4518 2550 c-4 -29 2 -44 45 -104 67 -95 118 -158 124 -152 3 2 -29 62 -71 133 -42 70 -80 135 -84 143 -7 11 -10 6 -14 -20z"/>
<path d="M4666 2454 c9 -17 42 -61 73 -97 163 -191 418 -347 693 -423 116 -32 324 -43 403 -21 l50 13 -143 7 c-158 7 -321 36 -397 71 -28 12 -77 44 -109 71 -33 27 -61 44 -63 38 -8 -24 -180 87 -281 180 l-67 62 39 -50 c22 -27 58 -70 80 -94 38 -41 39 -43 11 -27 -16 9 -92 81 -168 159 -77 78 -131 128 -121 111z"/>
</g>
</svg>