<svg xmlns="http://www.w3.org/2000/svg" xml:space="preserve" width="87.04" height="108.44" viewBox="0 0 87.04 108.44"><g fill="#FFF"><path d="M51.99 57.3c-1.8.02.34.92 2.68 1.28.65-.5 1.24-1.01 1.76-1.51a13.4 13.4 0 0 1-4.44.23m9.64-2.4a11.41 11.41 0 0 0 2.13-4.77c-.24 1.19-.9 2.22-1.5 3.3-3.36 2.12-.32-1.25 0-2.53-3.61 4.54-.5 2.72-.63 4m3.57-9.27c.2-3.24-.65-2.21-.93-.98.33.18.6 2.28.92.98M45.17 1.4c.96.17 2.07.3 1.92.53 1.05-.23 1.28-.44-1.92-.53m1.92.53-.68.14.63-.05.05-.09"/><path d="M77 46.86c.1 2.9-.86 4.31-1.72 6.8l-1.55.78c-1.27 2.47.12 1.57-.8 3.53-1.97 1.77-6.01 5.52-7.3 5.87-.95-.02.64-1.12.84-1.54-2.65 1.82-2.13 2.73-6.2 3.84l-.11-.26c-10.02 4.71-23.93-4.63-23.75-17.37-.1.8-.3.6-.53.93-.51-6.56 3.03-13.14 9.01-15.83 5.85-2.9 12.7-1.7 16.9 2.2-2.3-3.02-6.89-6.21-12.32-5.91-5.31.08-10.29 3.46-11.95 7.13-2.72 1.71-3.04 6.6-4.22 7.5-1.6 11.74 3 16.81 10.78 22.78 1.23.82.35.95.51 1.58a21.12 21.12 0 0 1-6.9-5.28 18.54 18.54 0 0 0 3.6 4.14c-2.45-.83-5.7-5.91-6.65-6.12 4.2 7.53 17.05 13.2 23.78 10.38-3.12.12-7.07.07-10.57-1.22-1.47-.76-3.47-2.33-3.11-2.62 9.18 3.43 18.67 2.6 26.61-3.77 2.02-1.57 4.23-4.25 4.87-4.29-.96 1.45.16.7-.58 1.97 2.02-3.25-.87-1.32 2.09-5.6l1.09 1.5c-.4-2.7 3.35-5.97 2.97-10.24.86-1.3.96 1.4.04 4.4 1.27-3.32.34-3.86.66-6.6.35.92.82 1.9 1.05 2.88-.82-3.22.85-5.42 1.27-7.29-.41-.18-1.28 1.42-1.48-2.38.03-1.65.46-.86.63-1.27-.33-.18-1.18-1.45-1.7-3.88.38-.57 1 1.48 1.52 1.57-.33-1.93-.9-3.4-.92-4.88-1.49-3.12-.52.41-1.73-1.34-1.59-4.95 1.31-1.15 1.5-3.4 2.41 3.49 3.78 8.88 4.41 11.12a45.55 45.55 0 0 0-2.2-7.92c.73.3-1.18-5.61.95-1.7-2.27-8.34-9.72-16.15-16.57-19.81.84.77 1.9 1.73 1.52 1.88-3.4-2.03-2.8-2.19-3.3-3.04-2.77-1.13-2.95.09-4.79 0-5.23-2.77-6.24-2.48-11.05-4.22l.22 1.03c-3.47-1.16-4.04.43-7.78 0-.23-.18 1.2-.64 2.37-.82-3.35.45-3.2-.66-6.47.13.8-.57 1.66-.95 2.52-1.43-2.73.17-6.52 1.6-5.35.3-4.45 1.99-12.37 4.78-16.8 8.94l-.15-.93c-2.03 2.44-8.87 7.3-9.42 10.46l-.54.12c-1.06 1.8-1.75 3.83-2.59 5.67-1.38 2.36-2.03.91-1.83 1.28C3.06 32.14 1.7 36.78.54 40.58c.83 1.25.02 7.5.33 12.5-1.37 24.7 17.34 48.69 37.79 54.23 3 1.07 7.45 1.03 11.24 1.14-4.47-1.28-5.05-.68-9.4-2.2-3.15-1.48-3.84-3.17-6.07-5.1l.89 1.56c-4.37-1.55-2.54-1.92-6.1-3.04l.95-1.23c-1.42-.1-3.75-2.38-4.39-3.65l-1.55.07c-1.86-2.3-2.85-3.95-2.78-5.23l-.5.89c-.56-.98-6.84-8.61-3.58-6.83-.6-.56-1.41-.9-2.29-2.49l.67-.75c-1.57-2.02-2.89-4.6-2.79-5.47.84 1.13 1.42 1.34 2 1.54-3.96-9.82-4.19-.54-7.18-10l.63-.05c-.48-.73-.78-1.52-1.17-2.3l.28-2.75c-2.85-3.3-.8-14.01-.39-19.89.28-2.39 2.38-4.93 3.97-8.92l-.97-.16c1.85-3.24 10.59-13 14.63-12.49 1.96-2.46-.39 0-.77-.63 4.3-4.45 5.65-3.14 8.56-3.95 3.13-1.85-2.69.73-1.2-.7 5.4-1.39 3.83-3.15 10.9-3.85.74.42-1.73.65-2.35 1.2 4.5-2.2 14.27-1.7 20.61 1.23 7.36 3.44 15.63 13.6 15.96 23.17l.37.1c-.2 3.8.58 8.2-.76 12.24l.91-1.91"/><path d="m32.37 59.76-.25 1.26c1.18 1.6 2.12 3.35 3.63 4.6-1.09-2.12-1.9-3-3.38-5.86m2.79-.11c-.62-.69-1-1.52-1.4-2.35.4 1.46 1.2 2.71 1.96 3.98l-.56-1.63m49.41-10.73-.27.66a31.96 31.96 0 0 1-3.13 10 31.4 31.4 0 0 0 3.4-10.66M45.53.54C46.74.09 48.5.29 49.8 0c-1.68.14-3.35.23-5 .44l.73.1M2.87 23.22c.28 2.6-1.95 3.6.5 1.89 1.3-2.95-.52-.82-.5-1.9M0 35.22c.56-1.73.67-2.77.88-3.77-1.56 1.99-.72 2.41-.88 3.77"/></g></svg>