<svg xmlns="http://www.w3.org/2000/svg" xmlns:xlink="http://www.w3.org/1999/xlink" viewBox="0 0 67.733 67.733" height="256" width="256"><defs><linearGradient id="s"><stop style="stop-color:#a1745c;stop-opacity:1" offset="0"/><stop style="stop-color:#5a4133;stop-opacity:1" offset="1"/></linearGradient><linearGradient gradientUnits="userSpaceOnUse" gradientTransform="scale(1.81091 .5522)" id="l" x1="123.142" x2="123.142" y1="31.704" y2="246.284"><stop offset="0%" stop-color="#F8F8F8" style="stop-color:#e0eaff;stop-opacity:1"/><stop offset="100%" stop-color="#FFE4C5" style="stop-color:#c8daff;stop-opacity:1"/></linearGradient><linearGradient id="k"><stop style="stop-color:#1f4a7f;stop-opacity:1" offset="0"/><stop style="stop-color:#1a95d2;stop-opacity:1" offset="1"/></linearGradient><linearGradient id="f"><stop style="stop-color:#07a0e4;stop-opacity:1" offset="0"/><stop offset=".055" style="stop-color:#fff;stop-opacity:.23529412"/><stop offset=".955" style="stop-color:#fff;stop-opacity:.15686275"/><stop style="stop-color:#000;stop-opacity:.05490196" offset="1"/></linearGradient><linearGradient id="h"><stop style="stop-color:#214478;stop-opacity:1" offset="0"/><stop style="stop-color:#168fcd;stop-opacity:1" offset="1"/></linearGradient><linearGradient id="d"><stop style="stop-color:#07a0e4;stop-opacity:1" offset="0"/><stop style="stop-color:#214478;stop-opacity:1" offset="1"/></linearGradient><linearGradient id="i"><stop offset="0" style="stop-color:#b4b4b4;stop-opacity:1"/><stop style="stop-color:#dcdcdc;stop-opacity:1" offset=".833"/><stop style="stop-color:#f5f5f5;stop-opacity:1" offset=".9"/><stop style="stop-color:#dcdcdc;stop-opacity:1" offset=".958"/><stop offset="1" style="stop-color:#b4b4b4;stop-opacity:1"/></linearGradient><linearGradient id="j"><stop offset="0" style="stop-color:#1f4a7f;stop-opacity:1"/><stop offset="1" style="stop-color:#1f93ce;stop-opacity:1"/></linearGradient><linearGradient id="e"><stop offset="0" style="stop-color:#fbcf68;stop-opacity:1"/><stop offset="1" style="stop-color:#f9a03c;stop-opacity:1"/></linearGradient><linearGradient id="c"><stop offset="0" style="stop-color:#fff;stop-opacity:1"/><stop style="stop-color:#fff;stop-opacity:.23529412" offset=".055"/><stop style="stop-color:#fff;stop-opacity:.15686275" offset=".955"/><stop offset="1" style="stop-color:#fff;stop-opacity:.39215687"/></linearGradient><linearGradient id="a"><stop offset="0" style="stop-color:#181818;stop-opacity:1"/><stop offset="1" style="stop-color:#181818;stop-opacity:0"/></linearGradient><linearGradient id="b"><stop offset="0" style="stop-color:#181818;stop-opacity:0"/><stop offset=".5" style="stop-color:#181818;stop-opacity:1"/><stop offset="1" style="stop-color:#181818;stop-opacity:0"/></linearGradient><linearGradient gradientTransform="translate(90.55 11.682) scale(.34068)" gradientUnits="userSpaceOnUse" y2="26.091" x2="32.173" y1="15.58" x1="32.173" id="L" xlink:href="#j"/><linearGradient gradientTransform="translate(70.21 11.682) scale(.34068)" gradientUnits="userSpaceOnUse" y2="26.243" x2="31.467" y1="15.423" x1="31.467" id="K" xlink:href="#k"/><linearGradient id="v"><stop offset="0" style="stop-color:#2269a5;stop-opacity:1"/><stop offset="1" style="stop-color:#4894d7;stop-opacity:0"/></linearGradient><linearGradient id="u"><stop offset="0" style="stop-color:#873926;stop-opacity:.02604167"/><stop offset="1" style="stop-color:#351710;stop-opacity:.40104166"/></linearGradient><linearGradient id="t"><stop offset="0" style="stop-color:#632a1c;stop-opacity:1"/><stop offset="1" style="stop-color:#431c13;stop-opacity:.98958331"/></linearGradient><linearGradient id="m"><stop style="stop-color:#549ddb;stop-opacity:1" offset="0"/><stop style="stop-color:#2d83ce;stop-opacity:1" offset="1"/></linearGradient><linearGradient id="n"><stop offset="0" style="stop-color:#7b5946;stop-opacity:1"/><stop offset="1" style="stop-color:#5a4133;stop-opacity:1"/></linearGradient><linearGradient id="o"><stop style="stop-color:#b5a993;stop-opacity:1" offset="0"/><stop style="stop-color:#9e8f72;stop-opacity:1" offset="1"/></linearGradient><linearGradient y2="-362.652" x2="593.064" y1="-425.037" x1="488.581" gradientUnits="userSpaceOnUse" id="w" xlink:href="#n" gradientTransform="matrix(.41046 -.1553 .1553 .41046 167.092 1508.181)"/><linearGradient gradientUnits="userSpaceOnUse" y2="-316.982" x2="947.105" y1="-437.765" x1="941.294" id="x" xlink:href="#n" gradientTransform="matrix(.41046 -.1553 .1553 .41046 167.092 1508.181)"/><linearGradient y2="1263.456" x2="935.956" y1="1218.378" x1="792.375" gradientUnits="userSpaceOnUse" id="y" xlink:href="#o" gradientTransform="translate(-447.2 60.112)"/><linearGradient id="p"><stop offset="0" style="stop-color:#fff;stop-opacity:1"/><stop offset="1" style="stop-color:#f4f3f1;stop-opacity:1"/></linearGradient><linearGradient id="q"><stop offset="0" style="stop-color:#765b45;stop-opacity:1"/><stop offset="1" style="stop-color:#614a38;stop-opacity:1"/></linearGradient><linearGradient gradientUnits="userSpaceOnUse" y2="112.877" x2="368.346" y1="-63.802" x1="371.643" id="D" xlink:href="#r" gradientTransform="matrix(.41046 -.1553 .1553 .41046 247.13 1347.187)"/><linearGradient id="r"><stop offset="0" style="stop-color:#86614c;stop-opacity:1"/><stop offset="1" style="stop-color:#654939;stop-opacity:1"/></linearGradient><linearGradient y2="112.877" x2="507.371" y1="-63.802" x1="504.075" gradientUnits="userSpaceOnUse" id="E" xlink:href="#r" gradientTransform="matrix(.41046 -.1553 .1553 .41046 247.13 1347.187)"/><linearGradient y2="1384.872" x2="467.608" y1="1384.872" x1="444.731" gradientUnits="userSpaceOnUse" id="N" xlink:href="#s" gradientTransform="matrix(-1.84126 .94352 -.94352 -1.84126 2197.713 2209.345)"/><linearGradient xlink:href="#s" id="O" gradientUnits="userSpaceOnUse" gradientTransform="scale(2.06893 -2.06893) rotate(-27.132 -2682.01 1410.778)" x1="444.731" y1="1384.872" x2="467.608" y2="1384.872"/><radialGradient xlink:href="#d" id="g" gradientUnits="userSpaceOnUse" gradientTransform="matrix(0 2.14288 -1.9914 0 2279.82 -148.647)" cx="48.714" cy="971.862" fx="48.714" fy="971.862" r="40"/><radialGradient xlink:href="#d" id="G" gradientUnits="userSpaceOnUse" gradientTransform="matrix(0 1.83734 -1.70746 0 1693.893 -83.505)" cx="48.714" cy="971.862" fx="48.714" fy="971.862" r="40"/><radialGradient xlink:href="#d" id="H" gradientUnits="userSpaceOnUse" gradientTransform="matrix(0 1.83734 -1.70746 0 1693.893 -83.505)" cx="48.714" cy="971.862" fx="48.714" fy="971.862" r="40"/><radialGradient xlink:href="#d" id="I" gradientUnits="userSpaceOnUse" gradientTransform="matrix(0 1.83734 -1.70746 0 1693.893 -83.505)" cx="48.714" cy="971.862" fx="48.714" fy="971.862" r="40"/><radialGradient r="93.371" fy="1241.332" fx="882.779" cy="1241.332" cx="882.779" gradientTransform="matrix(.93136 -.3641 .2452 .62721 -690.976 844.986)" gradientUnits="userSpaceOnUse" id="z" xlink:href="#p"/><radialGradient gradientUnits="userSpaceOnUse" gradientTransform="matrix(1 0 0 .33467 0 -371.848)" r="37.5" fy="-558.89" fx="744.239" cy="-558.89" cx="744.239" id="A" xlink:href="#q"/><radialGradient r="37.5" fy="-558.89" fx="744.239" cy="-558.89" cx="744.239" gradientTransform="matrix(1 0 0 .33467 0 -371.848)" gradientUnits="userSpaceOnUse" id="B" xlink:href="#q"/><radialGradient r="37.5" fy="-558.89" fx="744.239" cy="-558.89" cx="744.239" gradientTransform="matrix(1 0 0 .33467 0 -371.848)" gradientUnits="userSpaceOnUse" id="C" xlink:href="#q"/><radialGradient gradientUnits="userSpaceOnUse" gradientTransform="matrix(.95503 .03673 -.02322 .60365 -1014.83 -540.592)" r="8.263" fy="1227.617" fx="878.556" cy="1227.617" cx="878.556" id="F" xlink:href="#t"/><radialGradient xlink:href="#i" id="M" gradientUnits="userSpaceOnUse" gradientTransform="matrix(.00605 .66726 -.62026 .00562 96.629 -14.444)" cx="48.089" cy="9.071" fx="48.089" fy="9.071" r="19"/><radialGradient xlink:href="#l" id="J" gradientUnits="userSpaceOnUse" gradientTransform="matrix(.87414 -.00493 .00585 .3763 -13.764 -338.11)" cx="45.504" cy="986.856" fx="45.504" fy="986.856" r="40"/></defs><g transform="rotate(20.986 863.105 -24.186) scale(.24345)"><rect ry="6.371" rx="6.728" transform="rotate(-19.758)" y="1407.027" x="-52.829" height="33.734" width="45.881" style="opacity:1;fill:#b6aa94;fill-opacity:1;fill-rule:evenodd;stroke:none;stroke-width:1.02550864;stroke-opacity:1;paint-order:markers fill stroke"/><path style="opacity:1;fill:#fff;fill-opacity:1;stroke-width:.43885314" d="m356.579 1267.847-2.377-.62-7.02-1.596c-22.542-5.124-35.345-5.884-36.295-2.154-.39 1.53 1.41 6.27 4.183 11.015 2.798 4.787 10.87 16.26 16.622 23.62l4.617 5.91 1.191 1.324c.146-.468.233-.753.39-1.249.677-2.148 1.449-4.522 2.252-6.759a95.875 95.875 0 0 1 2.55-6.401 96.17 96.17 0 0 1 3.033-6.23 125.137 125.137 0 0 1 3.713-6.508 118.83 118.83 0 0 1 4.164-6.371c1.007-1.434 1.993-2.7 2.977-3.981z"/><path style="opacity:1;fill:url(#w);fill-opacity:1;stroke-width:.43885314" d="M307.401 1249.019c-.295.112-.58.228-.852.35-3.634 1.643-5.228 4.435-4.92 8.478.53 6.985 7.739 20.618 19.172 36.262 3.619 4.953 12.54 16.301 13.29 16.907.622.502.882-.088 1.54-3.488l.679-3.506-4.618-5.91c-5.751-7.36-13.824-18.832-16.622-23.62-2.772-4.744-4.572-9.485-4.183-11.015.95-3.73 13.753-2.97 36.296 2.154l7.019 1.597 2.516-3.057c1.384-1.681 3.383-3.975 4.442-5.096 1.06-1.122 1.836-2.28 1.726-2.571-.355-.937-15.152-4.777-26.536-6.887-6.522-1.209-16.88-2.185-21.03-1.983-3.217.157-5.85.613-7.919 1.385z"/><path d="m467.925 1224.78 1.372-2.037 4.204-5.843c13.506-18.763 22.6-27.807 25.78-25.64 1.305.889 3.094 5.634 4.156 11.025 1.072 5.44 2.615 19.383 3.176 28.707l.45 7.486-.016 1.781c-.418-.254-.672-.41-1.118-.678-1.93-1.162-4.08-2.43-6.162-3.575a95.893 95.893 0 0 0-6.148-3.111 96.156 96.156 0 0 0-6.398-2.661 125.128 125.128 0 0 0-7.09-2.421 118.834 118.834 0 0 0-7.339-2.02c-1.704-.407-3.28-.703-4.867-1.013z" style="opacity:1;fill:#fff;fill-opacity:1;stroke-width:.43885314"/><path d="M492.324 1178.115c.295-.11.585-.213.871-.301 3.81-1.174 6.854-.137 9.3 3.097 4.225 5.588 7.846 20.577 9.632 39.872.566 6.107 1.39 20.519 1.23 21.47-.134.788-.72.518-3.464-1.595l-2.83-2.18-.45-7.485c-.561-9.324-2.104-23.267-3.176-28.707-1.062-5.392-2.85-10.137-4.156-11.026-3.18-2.167-12.274 6.877-25.78 25.64l-4.204 5.843-3.91-.626c-2.15-.344-5.166-.74-6.703-.88-1.536-.139-2.884-.492-2.995-.784-.354-.937 8.195-13.61 15.332-22.727 4.088-5.224 11.206-12.812 14.45-15.407 2.516-2.012 4.791-3.413 6.853-4.204z" style="opacity:1;fill:url(#x);fill-opacity:1;stroke-width:.43885314"/><path d="M405.465 1227.308a124.56 124.56 0 0 0-4.106 1.796c-4.828 2.201-11.861 5.613-18.745 9.982a104.257 104.257 0 0 0-20.177 16.64c-6.558 6.943-12.94 15.5-17.262 22.764-4.322 7.266-6.585 13.24-8.386 18.628-1.8 5.387-3.14 10.189-3.97 14.122-.832 3.932-1.157 6.999-1.188 10.244-.031 3.246.231 6.665.776 9.79.545 3.124 1.372 5.94 2.485 8.461 1.113 2.521 2.515 4.753 4.014 6.694a30.36 30.36 0 0 0 5.176 5.269c2.075 1.669 4.622 3.348 7.245 4.558s5.321 1.952 8.005 2.472c2.684.52 5.353.82 8.096.98 2.744.16 5.561.181 8.233.078a83.902 83.902 0 0 0 7.827-.675c2.63-.345 5.362-.81 7.687-1.245 2.324-.435 4.238-.841 7.594-1.658 3.356-.816 8.151-2.042 11.06-2.778 2.909-.736 3.926-.98 4.623-1.126.698-.147 69.473-26.168 70.093-26.52.62-.352 1.544-.842 4.211-2.216 2.667-1.373 7.073-3.63 10.13-5.239 3.055-1.61 4.759-2.572 6.79-3.784a146.99 146.99 0 0 0 6.585-4.155 83.964 83.964 0 0 0 6.313-4.675 86.19 86.19 0 0 0 6.12-5.508c1.95-1.936 3.752-3.927 5.42-6.094 1.666-2.166 3.198-4.508 4.363-7.151 1.165-2.643 1.963-5.588 2.413-8.212a30.36 30.36 0 0 0 .393-7.376c-.161-2.447-.588-5.048-1.422-7.675-.835-2.627-2.08-5.285-3.739-7.987-1.66-2.703-3.727-5.439-5.899-7.851s-4.444-4.496-7.67-6.894c-3.227-2.397-7.409-5.11-12.325-7.956-4.915-2.846-10.567-5.827-18.616-8.412-8.048-2.584-18.496-4.773-28.007-5.636a104.27 104.27 0 0 0-26.14.883c-8.051 1.282-15.58 3.38-20.656 4.925-1.67.509-3.056.955-4.268 1.373-.145.048-2.935 1.103-3.076 1.164z" style="opacity:1;fill:url(#y);fill-opacity:1;stroke:none;stroke-width:.43885317px;stroke-linecap:butt;stroke-linejoin:miter;stroke-opacity:1"/><path d="M390.277 1254.944c-.34.13-.681.265-1.024.405-8.224 3.369-17.12 9.756-24.775 17.977-6.863 7.37-10.342 12.778-14.866 23.117-7.432 16.984-8.793 29.724-4.446 41.617 5.299 14.498 14.366 18.703 33.693 15.63a72.194 72.194 0 0 0 4.574-.907v.01l.036-.013c9.106-2.075 22.115-6.366 32.366-10.703 1.48-.427 2.924-.84 3.968-1.114 2.356-.62 2.735-.564 3.592-.26.857.306 2.194.86 3.736 2.039 1.54 1.177 3.273 2.965 4.724 7.291 1.451 4.327 2.614 11.184 3.305 18.47.691 7.287.91 15.002 1.79 21.193.88 6.19 2.42 10.855 3.803 14.063 1.382 3.207 2.607 4.956 4.097 6.342 1.49 1.386 3.245 2.409 5.49 3.04 2.244.632 4.978.872 8.618.657 3.64-.214 8.184-.885 11.579-1.475 2.258-.393 9.741-3.224 11.695-4.425 2.935-1.804 6.786-4.31 9.656-6.559 2.87-2.248 4.76-4.238 6.025-6.197 1.265-1.96 1.903-3.888 2.102-5.913.2-2.025-.04-4.146-1.128-7.465-1.087-3.32-3.02-7.836-6.459-13.058-3.438-5.223-8.38-11.15-12.685-17.07-4.306-5.92-7.973-11.83-9.749-16.032-1.776-4.204-1.661-6.69-1.285-8.593a13.4 13.4 0 0 1 1.45-4c.442-.797.69-1.09 2.866-2.184.97-.488 2.335-1.14 3.736-1.804 12.5-4.187 27.858-10.977 35.38-15.753 16.522-10.49 20.534-19.645 14.91-34.02-4.614-11.791-14.067-20.44-30.88-28.25-10.236-4.755-16.423-6.507-26.445-7.488-11.18-1.095-22.076.01-30.47 2.924-2.798.973-5.319 2.148-7.479 3.51-6.713 4.2-8.433 13.111-7.016 22.867 1.017 7.002 3.885 13.874 6.59 22.376l-4.516 1.708c-3.21-7.864-6.21-15.327-9.872-21.133-5.508-8.735-12.09-13.925-19.781-12.728-2.206.357-4.523 1.005-6.904 1.914z" style="opacity:1;fill:url(#z);fill-opacity:1;stroke:none;stroke-width:.50583482"/><rect transform="rotate(-20.724)" ry="1.864" rx="2.879" y="1366.521" x="-55.19" height="12.516" width="3.366" style="opacity:1;fill:#431d12;fill-opacity:1;fill-rule:evenodd;stroke:none;stroke-width:.36290118;stroke-opacity:1;paint-order:markers fill stroke"/><g style="opacity:1;fill:url(#A);fill-opacity:1" transform="matrix(.41046 -.1553 .1553 .41046 192.278 1582.172)"><ellipse style="opacity:1;fill:url(#B);fill-opacity:1;fill-rule:evenodd;stroke:none;stroke-width:8.90782166;stroke-miterlimit:4;stroke-dasharray:none;stroke-opacity:1;paint-order:markers fill stroke" cx="719.239" cy="-558.89" rx="12.5" ry="12.55"/><ellipse ry="12.55" rx="12.5" cy="-558.89" cx="769.239" style="opacity:1;fill:url(#C);fill-opacity:1;fill-rule:evenodd;stroke:none;stroke-width:8.90782166;stroke-miterlimit:4;stroke-dasharray:none;stroke-opacity:1;paint-order:markers fill stroke"/></g><path style="opacity:1;fill:url(#D);fill-opacity:1;stroke-width:.43885314" d="M389.766 1263.285c2.404-.983 4.74-1.677 6.947-2.044 10.496-1.742 18.888 4.819 23.09 18.05 1.672 5.266 2.399 9.606 1.823 10.882-.202.449-2.084 2.092-4.181 3.65-5.775 4.29-9.64 8.643-11.75 13.238-1.091 2.376-1.86 4.922-2.032 6.733-.243 2.558-.112 3.335 1.074 6.39 1.074 2.762 1.767 3.916 3.37 5.615 2.321 2.458 5.648 4.94 9.013 6.723 1.286.681 2.404 1.414 2.485 1.627.08.214-1.609 1.189-3.755 2.168-10.86 4.951-27.207 10.297-35.755 11.692-16.917 2.76-24.82-.807-29.367-13.256-3.73-10.213-2.465-21.189 4.135-35.855 4.017-8.928 7.09-13.604 13.134-19.99 6.743-7.122 14.559-12.674 21.77-15.623z"/><path d="M444.124 1242.72c-2.453.853-4.664 1.88-6.56 3.066-9.02 5.642-10.969 16.114-5.36 28.813 2.232 5.054 4.56 8.788 5.837 9.364.449.202 2.947.188 5.55-.033 7.17-.606 12.946.098 17.57 2.145 2.39 1.059 4.652 2.459 5.98 3.702 1.875 1.757 2.292 2.426 3.424 5.5 1.024 2.782 1.269 4.106 1.191 6.44-.112 3.38-.963 7.44-2.305 11.005-.513 1.362-.867 2.652-.786 2.865.081.214 1.993-.174 4.25-.86 11.417-3.477 27.21-10.292 34.54-14.904 14.507-9.13 18.07-17.034 13.237-29.376-3.964-10.124-12.178-17.513-26.832-24.138-8.921-4.033-14.32-5.504-23.077-6.29-9.77-.875-19.303.137-26.66 2.7z" style="opacity:1;fill:url(#E);fill-opacity:1;stroke-width:.43885314"/></g><path style="opacity:1;fill:url(#F);fill-opacity:1;fill-rule:evenodd;stroke:none;stroke-width:1.33715332;stroke-miterlimit:4;stroke-dasharray:none;stroke-opacity:1;paint-order:markers fill stroke" d="M-204.12 230.64c-4.538.141-8.163 1.959-8.098 4.06.787 3.881 3.414 6.608 8.428 6.597 6.243-.214 7.927-4.679 8.003-7.106-.065-2.101-3.796-3.691-8.333-3.55z" transform="matrix(.25456 .00905 -.00905 .25456 88.089 -36.8)"/><path style="fill:url(#G);fill-opacity:1;stroke:none;stroke-width:.85741955;stroke-opacity:1" d="M22.8 33.913H0c0 2.27.057 4.483.16 6.626 1.973-.333 3.95-.7 5.936-1.145a94.916 94.916 0 0 0 6.603-1.729 85.662 85.662 0 0 0 6.665-2.307 82.98 82.98 0 0 0 3.358-1.408c.026-.012.052-.026.079-.037z"/><path style="fill:#214478;fill-opacity:1;stroke:none;stroke-width:.85741955;stroke-opacity:1" d="M47.156 33.913H22.8c-.027.011-.053.025-.08.037a82.98 82.98 0 0 1-3.357 1.408 85.663 85.663 0 0 1-6.665 2.307 94.917 94.917 0 0 1-6.603 1.729 112.67 112.67 0 0 1-5.937 1.145c.23 4.845.73 9.237 1.397 13.09.664-.098 1.326-.17 1.992-.279 2.178-.357 4.363-.772 6.556-1.265a94.917 94.917 0 0 0 6.603-1.728 85.661 85.661 0 0 0 6.664-2.308 82.977 82.977 0 0 0 10.136-4.803 86.832 86.832 0 0 0 3.421-2.017 96.31 96.31 0 0 0 3.446-2.243 113.944 113.944 0 0 0 3.468-2.462c1.098-.81 2.21-1.743 3.314-2.611z"/><path style="fill:url(#H);fill-opacity:1;stroke:none;stroke-width:.85741955;stroke-opacity:1" d="M65.672 33.913H47.156c-1.105.868-2.216 1.802-3.314 2.611a113.96 113.96 0 0 1-3.468 2.462 96.33 96.33 0 0 1-3.446 2.243A84.28 84.28 0 0 1 26.73 46.64c-1.122.5-2.241.968-3.358 1.408a85.66 85.66 0 0 1-6.664 2.308 94.916 94.916 0 0 1-6.603 1.728c-2.193.493-4.378.908-6.556 1.265-.666.11-1.328.181-1.992.28 1.037 5.995 2.527 10.49 4.266 12.655.578-.087 1.154-.149 1.734-.244 2.178-.357 4.363-.772 6.555-1.265a94.918 94.918 0 0 0 6.604-1.728 85.662 85.662 0 0 0 6.664-2.308 82.976 82.976 0 0 0 10.136-4.803 86.833 86.833 0 0 0 3.421-2.017 96.318 96.318 0 0 0 3.445-2.243 113.943 113.943 0 0 0 3.469-2.461c2.319-1.71 4.652-3.555 6.998-5.516a203.51 203.51 0 0 0 7.07-6.212c1.246-1.144 2.501-2.369 3.754-3.575z"/><path style="fill:#214478;fill-opacity:1;stroke:none;stroke-width:.85741955;stroke-opacity:1" d="M67.733 33.913h-2.061c-1.253 1.206-2.508 2.43-3.754 3.575a203.51 203.51 0 0 1-7.07 6.212 146.125 146.125 0 0 1-6.998 5.516c-1.16.855-2.316 1.676-3.469 2.46a96.318 96.318 0 0 1-3.445 2.244 84.275 84.275 0 0 1-10.199 5.412c-1.122.5-2.241.969-3.358 1.408a85.662 85.662 0 0 1-6.664 2.308 94.918 94.918 0 0 1-6.604 1.728c-2.192.493-4.377.908-6.555 1.265-.58.095-1.156.157-1.734.244.729.908 1.497 1.448 2.301 1.448H43.04c.635-.371 1.267-.727 1.904-1.122a96.31 96.31 0 0 0 3.445-2.243 113.943 113.943 0 0 0 3.469-2.461c2.319-1.71 4.652-3.555 6.997-5.516a203.511 203.511 0 0 0 7.07-6.212c.292-.267.587-.565.878-.835.574-4.64.928-9.834.93-15.431z"/><path style="fill:url(#I);fill-opacity:1;stroke:none;stroke-width:.85741955;stroke-opacity:1" d="M66.803 49.344c-.291.27-.586.568-.877.835a203.511 203.511 0 0 1-7.07 6.212 146.128 146.128 0 0 1-6.998 5.516c-1.16.855-2.316 1.676-3.469 2.461a96.31 96.31 0 0 1-3.445 2.243c-.637.395-1.27.75-1.904 1.122h16.57c3.154 0 5.846-7.496 7.193-18.39z"/><path style="fill:url(#J);fill-opacity:1;stroke:none;stroke-width:.68944049;stroke-opacity:1" d="M0 33.913h67.733c-1.468-6.154-4.122-10.3-7.198-10.3H7.197c-3.075 0-5.729 4.146-7.197 10.3Z"/><g transform="matrix(1.4848 0 0 1.43328 -101.956 3.301)"><circle style="opacity:.3;fill:#fff;fill-opacity:1;stroke:none;stroke-width:.45424199" cx="81.07" cy="18.806" r="2.393"/><circle style="opacity:.3;fill:#fff;fill-opacity:1;stroke:none;stroke-width:.45424199" cx="101.41" cy="18.806" r="2.393"/><circle style="fill:url(#K);fill-opacity:1;stroke:none;stroke-width:.340682" cx="81.07" cy="18.806" r="1.795"/><circle style="fill:url(#L);fill-opacity:1;stroke:none;stroke-width:.340682" cx="101.41" cy="18.806" r="1.795"/><path d="M81.07 17.61c-.66 0-1.196.535-1.196 1.196 0 6.277 5.089 11.366 11.366 11.366 6.277 0 11.366-5.09 11.366-11.366a1.196 1.196 0 0 0-2.393 0 8.973 8.973 0 0 1-17.946 0c0-.661-.536-1.197-1.197-1.197z" style="fill:url(#M);fill-opacity:1;stroke:none;stroke-width:.59822202"/></g><path style="fill:url(#N);fill-opacity:1;stroke:none;stroke-width:2.06893444px;stroke-linecap:butt;stroke-linejoin:miter;stroke-opacity:1" d="M48.738 77.656a77.901 77.901 0 0 0-4.521.117c-2.897.165-5.504.507-7.508 1.045-4.008 1.077-5.584 2.944-6.94 5.18-1.049 1.732-1.716 3.554-2.304 5.25.588.651 1.255 1.353 2.305 2.018 1.355.858 2.931 1.573 6.939 1.986 2.004.207 4.611.337 7.508.4v.002c2.896.063 6.08.057 9.238-.006 6.315-.125 12.511-.482 16.727-1.355 3.922-.812 5.98-2.04 7.082-3.045-1.103-2.618-3.16-5.813-7.082-7.93-4.216-2.275-10.412-3.207-16.727-3.533a95.26 95.26 0 0 0-4.717-.129z" transform="scale(.26458)"/><path style="fill:url(#O);fill-opacity:1;stroke:none;stroke-width:2.06893444px;stroke-linecap:butt;stroke-linejoin:miter;stroke-opacity:1" d="M207.262 77.656a95.26 95.26 0 0 0-4.717.13c-6.315.325-12.511 1.257-16.727 3.532-3.922 2.117-5.98 5.312-7.082 7.93 1.103 1.005 3.16 2.233 7.082 3.045 4.216.873 10.412 1.23 16.727 1.355 3.157.063 6.342.07 9.238.006v-.002c2.897-.063 5.504-.193 7.508-.4 4.008-.413 5.584-1.128 6.94-1.986 1.049-.665 1.716-1.367 2.304-2.018-.588-1.696-1.255-3.518-2.305-5.25-1.355-2.236-2.931-4.103-6.939-5.18-2.004-.538-4.611-.88-7.508-1.045a77.901 77.901 0 0 0-4.521-.117z" transform="scale(.26458)"/><path style="fill:#fff;fill-opacity:1;stroke:none;stroke-width:.26458332px;stroke-linecap:butt;stroke-linejoin:miter;stroke-opacity:1" d="M28.91 10.705c-.39 0-1.17 0-2.033.24-.863.239-1.809.717-2.422 1.29-.612.574-.89 1.242-1.03 1.933-.14.69-.14 1.403.245 2.05.385.645 1.153 1.224 1.966 1.525.813.3 1.67.323 2.661.072.991-.25 2.116-.774 2.807-1.303.69-.529.946-1.064.963-1.87.017-.808-.206-1.888-.574-2.59-.367-.701-.88-1.024-1.27-1.186-.389-.161-.656-.161-.79-.161h-.523z" transform="scale(1.19246) rotate(1.819 55.126 -177.246)"/><circle style="opacity:1;fill:#333;fill-opacity:1;fill-rule:evenodd;stroke:none;stroke-width:1.28442848;stroke-miterlimit:4;stroke-dasharray:none;stroke-opacity:1;paint-order:markers fill stroke" cx="26.472" cy="15.085" r="2.981" transform="rotate(1.819)"/><path style="opacity:1;fill:#fff;fill-opacity:1;fill-rule:evenodd;stroke:none;stroke-width:.57042962;stroke-miterlimit:4;stroke-dasharray:none;stroke-opacity:1;paint-order:markers fill stroke" d="M27.013 13.72A1.324 1.324 0 0 0 25.648 15a1.324 1.324 0 0 0 .003.136c.084.013.192.069.269.068.355-.003.619-.168.798-.193.09-.013.157.01.206.054a.295.295 0 0 1 .089.178c.021.142-.03.31.043.578.038.135.154.332.239.505a1.324 1.324 0 0 0 1-1.241 1.324 1.324 0 0 0-1.282-1.365z"/><path transform="matrix(-1.19186 .03785 .03785 1.19186 75.181 -2.193)" d="M28.91 10.705c-.39 0-1.17 0-2.033.24-.863.239-1.809.717-2.422 1.29-.612.574-.89 1.242-1.03 1.933-.14.69-.14 1.403.245 2.05.385.645 1.153 1.224 1.966 1.525.813.3 1.67.323 2.661.072.991-.25 2.116-.774 2.807-1.303.69-.529.946-1.064.963-1.87.017-.808-.206-1.888-.574-2.59-.367-.701-.88-1.024-1.27-1.186-.389-.161-.656-.161-.79-.161h-.523z" style="fill:#fff;fill-opacity:1;stroke:none;stroke-width:.26458332px;stroke-linecap:butt;stroke-linejoin:miter;stroke-opacity:1"/><circle transform="rotate(1.819)" r="2.981" cy="14.56" cx="43.01" style="opacity:1;fill:#333;fill-opacity:1;fill-rule:evenodd;stroke:none;stroke-width:1.28442848;stroke-miterlimit:4;stroke-dasharray:none;stroke-opacity:1;paint-order:markers fill stroke"/><path d="M43.559 13.72A1.324 1.324 0 0 0 42.194 15a1.324 1.324 0 0 0 .003.136c.084.013.192.069.269.068.355-.003.619-.168.798-.193.09-.013.157.01.206.054a.295.295 0 0 1 .089.178c.021.142-.03.31.043.578.037.135.154.332.239.505a1.324 1.324 0 0 0 1-1.241 1.324 1.324 0 0 0-1.282-1.365z" style="opacity:1;fill:#fff;fill-opacity:1;fill-rule:evenodd;stroke:none;stroke-width:.57042962;stroke-miterlimit:4;stroke-dasharray:none;stroke-opacity:1;paint-order:markers fill stroke"/></svg>