<svg xmlns="http://www.w3.org/2000/svg" xmlns:xlink="http://www.w3.org/1999/xlink" xml:space="preserve" id="svg215" x="0" y="0" shape-rendering="geometricPrecision" version="1.1" viewBox="0 0 256 256"><defs id="defs131"><linearGradient xlink:href="#n" id="w-2" x1="488.58099" x2="593.06403" y1="-425.03699" y2="-362.65201" gradientTransform="matrix(.41046 -.1553 .1553 .41046 167.092 1508.181)" gradientUnits="userSpaceOnUse"/><linearGradient id="n"><stop id="stop100" offset="0" stop-color="#7b5946" stop-opacity="1"/><stop id="stop102" offset="1" stop-color="#5a4133" stop-opacity="1"/></linearGradient><linearGradient xlink:href="#n" id="x-9" x1="941.29401" x2="947.10498" y1="-437.76501" y2="-316.98199" gradientTransform="matrix(.41046 -.1553 .1553 .41046 167.092 1508.181)" gradientUnits="userSpaceOnUse"/><linearGradient xlink:href="#o" id="y-5" x1="792.375" x2="935.95599" y1="1218.3781" y2="1263.4561" gradientTransform="rotate(20.98591 3318.57024 -1229.89954) scale(.92013)" gradientUnits="userSpaceOnUse"/><linearGradient id="o"><stop id="stop105-1" offset="0" stop-color="#b5a993" stop-opacity="1"/><stop id="stop107-5" offset="1" stop-color="#9e8f72" stop-opacity="1"/></linearGradient><linearGradient id="p"><stop id="stop113" offset="0" stop-color="#fff" stop-opacity="1"/><stop id="stop115" offset="1" stop-color="#f4f3f1" stop-opacity="1"/></linearGradient><linearGradient id="q"><stop id="stop118" offset="0" stop-color="#765b45" stop-opacity="1"/><stop id="stop120-2" offset="1" stop-color="#614a38" stop-opacity="1"/></linearGradient><linearGradient xlink:href="#r" id="D-7" x1="371.64301" x2="368.34601" y1="-63.802" y2="112.877" gradientTransform="matrix(.4038 .00184 -.00184 .4038 -47.99086 64.43388)" gradientUnits="userSpaceOnUse"/><linearGradient id="r"><stop id="stop124" offset="0" stop-color="#86614c" stop-opacity="1"/><stop id="stop126" offset="1" stop-color="#654939" stop-opacity="1"/></linearGradient><linearGradient xlink:href="#r" id="E-0" x1="504.07501" x2="507.371" y1="-63.802" y2="112.877" gradientTransform="matrix(.4038 .00184 -.00184 .4038 -47.99086 64.43388)" gradientUnits="userSpaceOnUse"/><linearGradient id="t"><stop id="stop90" offset="0" stop-color="#632a1c" stop-opacity="1"/><stop id="stop92" offset="1" stop-color="#431c13" stop-opacity=".98958"/></linearGradient><radialGradient xlink:href="#p" id="z-7-1" cx="882.77899" cy="1241.332" r="93.371" fx="882.77899" fy="1241.332" gradientTransform="matrix(.92011 -.00588 .00396 .61964 -688.42135 -676.1443)" gradientUnits="userSpaceOnUse"/><radialGradient xlink:href="#q" id="A-6-4" cx="744.23901" cy="-558.89001" r="37.5" fx="744.23901" fy="-558.89001" gradientTransform="matrix(1 0 0 .33467 0 -371.848)" gradientUnits="userSpaceOnUse"/><radialGradient xlink:href="#q" id="B-5-7" cx="744.23901" cy="-558.89001" r="37.5" fx="744.23901" fy="-558.89001" gradientTransform="matrix(1 0 0 .33467 0 -371.848)" gradientUnits="userSpaceOnUse"/><radialGradient xlink:href="#q" id="C-4-9" cx="744.23901" cy="-558.89001" r="37.5" fx="744.23901" fy="-558.89001" gradientTransform="matrix(1 0 0 .33467 0 -371.848)" gradientUnits="userSpaceOnUse"/><radialGradient xlink:href="#t" id="F-5-8" cx="878.55603" cy="1227.6169" r="8.263" fx="878.55603" fy="1227.6169" gradientTransform="matrix(.24278 .018 -.01137 .15346 -165.35377 -183.59731)" gradientUnits="userSpaceOnUse"/></defs><style id="style2" type="text/css">.st14{fill:#214478}.st16{opacity:.3;fill:#fff;enable-background:new}</style><g id="g3471" display="inline" transform="matrix(3.77955 0 0 3.77955 .05676 .04057)"><path id="path1185" fill="#fff" fill-opacity="1" stroke-width=".43885" d="m356.579 1267.847-2.377-.62-7.02-1.596c-22.542-5.124-35.345-5.884-36.295-2.154-.39 1.53 1.41 6.27 4.183 11.015 2.798 4.787 10.87 16.26 16.622 23.62l4.617 5.91 1.191 1.324c.146-.468.233-.753.39-1.249.677-2.148 1.449-4.522 2.252-6.759a95.875 95.875 0 0 1 2.55-6.401 96.17 96.17 0 0 1 3.033-6.23 125.137 125.137 0 0 1 3.713-6.508 118.83 118.83 0 0 1 4.164-6.371c1.007-1.434 1.993-2.7 2.977-3.981z" display="inline" opacity="1" transform="rotate(20.986 863.10504 -24.18596) scale(.24345)"/><path id="path1182" fill="url(#w-2)" fill-opacity="1" stroke-width=".43885" d="M307.401 1249.019c-.295.112-.58.228-.852.35-3.634 1.643-5.228 4.435-4.92 8.478.53 6.985 7.739 20.618 19.172 36.262 3.619 4.953 12.54 16.301 13.29 16.907.622.502.882-.088 1.54-3.488l.679-3.506-4.618-5.91c-5.751-7.36-13.824-18.832-16.622-23.62-2.772-4.744-4.572-9.485-4.183-11.015.95-3.73 13.753-2.97 36.296 2.154l7.019 1.597 2.516-3.057c1.384-1.681 3.383-3.975 4.442-5.096 1.06-1.122 1.836-2.28 1.726-2.571-.355-.937-15.152-4.777-26.536-6.887-6.522-1.209-16.88-2.185-21.03-1.983-3.217.157-5.85.613-7.919 1.385z" display="inline" opacity="1" transform="rotate(20.986 863.10504 -24.18596) scale(.24345)"/><path id="path1179" fill="#fff" fill-opacity="1" stroke-width=".43885" d="m467.925 1224.78 1.372-2.037 4.204-5.843c13.506-18.763 22.6-27.807 25.78-25.64 1.305.889 3.094 5.634 4.156 11.025 1.072 5.44 2.615 19.383 3.176 28.707l.45 7.486-.016 1.781c-.418-.254-.672-.41-1.118-.678-1.93-1.162-4.08-2.43-6.162-3.575a95.893 95.893 0 0 0-6.148-3.111 96.156 96.156 0 0 0-6.398-2.661 125.128 125.128 0 0 0-7.09-2.421 118.834 118.834 0 0 0-7.339-2.02c-1.704-.407-3.28-.703-4.867-1.013z" display="inline" opacity="1" transform="rotate(20.986 863.10504 -24.18596) scale(.24345)"/><path id="path1176" fill="url(#x-9)" fill-opacity="1" stroke-width=".43885" d="M492.324 1178.115c.295-.11.585-.213.871-.301 3.81-1.174 6.854-.137 9.3 3.097 4.225 5.588 7.846 20.577 9.632 39.872.566 6.107 1.39 20.519 1.23 21.47-.134.788-.72.518-3.464-1.595l-2.83-2.18-.45-7.485c-.561-9.324-2.104-23.267-3.176-28.707-1.062-5.392-2.85-10.137-4.156-11.026-3.18-2.167-12.274 6.877-25.78 25.64l-4.204 5.843-3.91-.626c-2.15-.344-5.166-.74-6.703-.88-1.536-.139-2.884-.492-2.995-.784-.354-.937 8.195-13.61 15.332-22.727 4.088-5.224 11.206-12.812 14.45-15.407 2.516-2.012 4.791-3.413 6.853-4.204z" display="inline" opacity="1" transform="rotate(20.986 863.10504 -24.18596) scale(.24345)"/><path id="path1173" fill="url(#y-5)" fill-opacity="1" stroke="none" stroke-linecap="butt" stroke-linejoin="miter" stroke-opacity="1" stroke-width=".4038" d="M127.53906 13.62305a114.61146 114.61146 0 0 0-4.11914.18945c-4.87302.29987-12.04077.91357-19.39453 2.39844a95.93005 95.93005 45 0 0-22.8164 7.64648c-7.92192 3.80361-16.22528 9.05292-22.33204 13.86914-6.10742 4.81795-10.01903 9.20297-13.3418 13.23828-3.32157 4.0348-6.05533 7.71891-8.06445 10.82422-2.0105 3.1038-3.3005 5.6326-4.39648 8.41016-1.0963 2.77841-1.99896 5.80174-2.56055 8.66601-.56126 2.86342-.77776 5.55534-.65234 8.0879.05365 1.08329.19679 2.12232.36328 3.14453h197.06445c.10436-.74135.23379-1.46797.2793-2.24024.14834-2.532-.0452-5.22577-.58008-8.09375-.53536-2.86916-1.40935-5.90156-2.48047-8.68945-1.07112-2.7879-2.33518-5.32603-4.3164-8.44922-1.98241-3.12267-4.68134-6.8315-7.9668-10.89648-3.2846-4.06466-7.15769-8.48814-13.2207-13.36133-6.06249-4.872-14.31665-10.19666-22.20313-14.07227a95.94201 95.94201 0 0 0-22.74805-7.85547c-7.33905-1.55173-14.49923-2.23075-19.36914-2.57617-1.60242-.11304-2.94017-.18627-4.11914-.22656-.14038-.0065-2.88415-.01961-3.02539-.01367z" display="inline" opacity="1" transform="scale(.26458)"/><path id="path1170" fill="url(#z-7-1)" fill-opacity="1" stroke="none" stroke-width=".46543" d="M105.38281 32.35938c-.33493-.00036-.67091.0045-1.01172.01171-8.17541.1842-17.92349 2.73926-27.20898 7.2793-8.32465 4.06994-13.09505 7.56956-20.38867 14.96094C44.7918 66.7531 39.42295 77.2487 39.23828 88.89843c-.0064.4061-.0045.80545 0 1.19923h178.92969c.00021-.12597.005-.24781.004-.375-.0783-11.65009-5.35039-22.1953-17.22071-34.44532-7.22677-7.45812-11.96341-11.00306-20.25-15.14843-9.24385-4.62492-18.9691-7.26659-27.14062-7.5293-2.72439-.08614-5.27756.09249-7.58203.55078-7.15117 1.39603-11.5649 8.48569-13.5625 17.33399-1.43371 6.35053-1.23504 13.1991-1.7129 21.39453l-4.44335-.02148c-.16624-7.81375-.2829-15.21353-1.51563-21.4082-1.85341-9.3193-5.79706-15.94701-12.79883-17.45313-2.01281-.42026-4.21744-.62716-6.5625-.63086z" display="inline" opacity="1" transform="scale(.26458)"/><path id="path1167" fill="#431d12" fill-rule="evenodd" stroke-width=".33392" d="M128.66406 82.77148c-.8579-.0039-1.55229.75878-1.55664 1.70899l-.0254 5.61719h3.09766l.0254-5.60352c.004-.9502-.68311-1.71873-1.54102-1.72266z" display="inline" opacity="1" paint-order="markers fill stroke" transform="scale(.26458)"/><g id="g165" fill="url(#A-6-4)" fill-opacity="1" fill-rule="evenodd" stroke-width="8.90782" display="inline" opacity="1" paint-order="markers fill stroke" transform="matrix(.10684 .00049 -.00049 .10684 -45.6536 65.678)"><path id="path1164" fill="url(#B-5-7)" d="M731.73901-558.89001a12.5 12.55 0 0 1-12.5 12.55 12.5 12.55 0 0 1-12.5-12.55 12.5 12.55 0 0 1 12.5-12.55 12.5 12.55 0 0 1 12.5 12.55z" opacity="1"/><path id="path1161" fill="url(#C-4-9)" d="M781.73901-558.89001a12.5 12.55 0 0 1-12.5 12.55 12.5 12.55 0 0 1-12.5-12.55 12.5 12.55 0 0 1 12.5-12.55 12.5 12.55 0 0 1 12.5 12.55z" opacity="1"/></g><path id="path1158" fill="url(#D-7)" fill-opacity="1" stroke-width=".4038" d="M102.19531 39.35742c-7.16635.15755-15.7105 2.35197-23.8496 6.24805-7.2968 3.49448-11.47802 6.49943-17.8711 12.8457-10.503 10.42458-15.20607 19.43634-15.36719 29.43946-.01223.7607-.0027 1.49612.03125 2.20703H96.4707c.15783-.89754.4561-1.6332 1.01953-2.76758.74456-1.49914 2.2446-3.43355 3.96485-5.11524 3.32691-3.25222 8.08204-5.71754 14.45703-7.5 2.31494-.64743 4.47342-1.4406 4.79492-1.75976.91533-.9064 1.72061-4.87424 2.01953-9.94922.75016-12.75141-4.29754-21.15298-13.88867-23.11523-2.01641-.41189-4.25217-.58536-6.64062-.5332z" display="inline" opacity="1" transform="scale(.26458)"/><path id="path1155" fill="url(#E-0)" fill-opacity="1" stroke-width=".4038" d="M153.91016 39.58984c-1.73171.02983-3.37001.19076-4.88477.48633-9.60829 1.87462-14.73351 10.2283-14.09961 22.98633.25203 5.0774 1.02244 9.0531 1.92969 9.96875.31917.3215 2.46829 1.1309 4.77734 1.79883 6.35942 1.84215 11.09077 4.35047 14.38867 7.63281 1.70427 1.69737 3.18475 3.64686 3.91602 5.15234.49201 1.01439.7764 1.7086.93945 2.48243h51.41602c.0156-.47161.0249-.95053.0215-1.44336-.0692-10.00377-4.69163-19.0576-15.09765-29.57813-6.33499-6.40452-10.48786-9.44682-17.75196-13.00781-8.10502-3.97127-16.62799-6.24427-23.79296-6.4668v.002c-.59712-.01889-1.18449-.0236-1.76172-.01367z" display="inline" opacity="1" transform="scale(.26458)"/><path id="path1152" fill="url(#F-5-8)" fill-opacity="1" fill-rule="evenodd" stroke="none" stroke-dasharray="none" stroke-miterlimit="4" stroke-opacity="1" stroke-width=".3406" d="M34.04092 20.06443c-1.15647-.0052-2.0957.42481-2.09817.96023.16522.99507.80927 1.71303 2.08573 1.7556 1.59115.002 2.06024-1.11934 2.10155-1.73647.0025-.53542-.9329-.97394-2.08912-.9791z" display="inline" paint-order="markers fill stroke"/><path id="path1149" fill="#fff" fill-opacity="1" stroke="none" stroke-linecap="butt" stroke-linejoin="miter" stroke-opacity="1" stroke-width=".3155" d="M27.37558 11.66004c-.46482-.01476-1.39448-.0443-2.43213.20909-1.03763.25219-2.18322.78609-2.93552 1.44582-.75114.66097-1.10776 1.4466-1.30078 2.26488-.19297.81708-.21996 1.66688.21441 2.45258.43445.78333 1.32789 1.50248 2.28547 1.892.95763.38834 1.97818.44819 3.16882.18654 1.1906-.26045 2.55127-.8424 3.39487-1.44674.8424-.60438 1.16777-1.23233 1.21854-2.19233.05085-.96238-.17406-2.25803-.5861-3.10864-.41087-.84938-1.01007-1.25377-1.46876-1.46162-.45754-.20661-.77577-.21672-.93548-.22179z" display="inline"/><path id="path1146" fill="#333" fill-rule="evenodd" stroke-width="1.28443" d="M29.453 15.085a2.981 2.981 0 0 1-2.981 2.981 2.981 2.981 0 0 1-2.981-2.981 2.981 2.981 0 0 1 2.981-2.981 2.981 2.981 0 0 1 2.981 2.981z" display="inline" paint-order="markers fill stroke" transform="rotate(1.819)"/><path id="path1143" fill="#fff" fill-opacity="1" fill-rule="evenodd" stroke="none" stroke-dasharray="none" stroke-miterlimit="4" stroke-opacity="1" stroke-width=".57043" d="M27.013 13.72A1.324 1.324 0 0 0 25.648 15a1.324 1.324 0 0 0 .003.136c.084.013.192.069.269.068.355-.003.619-.168.798-.193.09-.013.157.01.206.054a.295.295 0 0 1 .089.178c.021.142-.03.31.043.578.038.135.154.332.239.505a1.324 1.324 0 0 0 1-1.241 1.324 1.324 0 0 0-1.282-1.365z" display="inline" paint-order="markers fill stroke"/><path id="path1140" fill="#fff" fill-opacity="1" stroke="none" stroke-linecap="butt" stroke-linejoin="miter" stroke-opacity="1" stroke-width=".3155" d="M41.12951 11.6601c.46483-.01476 1.39448-.04429 2.43214.2091 1.03762.2522 2.18321.7861 2.9355 1.44583.75115.66096 1.10777 1.4466 1.30079 2.26488.19298.81708.21996 1.66688-.21441 2.45258-.43446.78333-1.3279 1.50248-2.28548 1.892-.95763.38833-1.97818.44818-3.16881.18654-1.1906-.26046-2.55128-.84241-3.39487-1.44675-.84241-.60438-1.16778-1.23233-1.21854-2.19233-.05085-.96238.17406-2.25803.5861-3.10864.41087-.84939 1.01007-1.25378 1.46876-1.46162.45754-.20661.77577-.21672.93548-.22179z" display="inline"/><path id="path1137" fill="#333" fill-rule="evenodd" stroke-width="1.28443" d="M45.991 14.56a2.981 2.981 0 0 1-2.981 2.981 2.981 2.981 0 0 1-2.981-2.981 2.981 2.981 0 0 1 2.981-2.981 2.981 2.981 0 0 1 2.981 2.981z" display="inline" paint-order="markers fill stroke" transform="rotate(1.819)"/><path id="path1134" fill="#fff" fill-opacity="1" fill-rule="evenodd" stroke="none" stroke-dasharray="none" stroke-miterlimit="4" stroke-opacity="1" stroke-width=".57043" d="M43.559 13.72A1.324 1.324 0 0 0 42.194 15a1.324 1.324 0 0 0 .003.136c.084.013.192.069.269.068.355-.003.619-.168.798-.193.09-.013.157.01.206.054a.295.295 0 0 1 .089.178c.021.142-.03.31.043.578.037.135.154.332.239.505a1.324 1.324 0 0 0 1-1.241 1.324 1.324 0 0 0-1.282-1.365z" display="inline" paint-order="markers fill stroke"/></g><g id="layer2"><g id="layer3"><radialGradient id="path175-7_00000116207196027276173710000005601222450124863401_" cx="-723.1009" cy="-174.0931" r="40" gradientTransform="matrix(0 6.9443 6.4534 0 1253.8058 5044.1113)" gradientUnits="userSpaceOnUse"><stop id="stop71" offset="0" stop-color="#07a0e4"/><stop id="stop73" offset="1" stop-color="#214478"/></radialGradient><path id="path1131" fill="url(#path175-7_00000116207196027276173710000005601222450124863401_)" d="M0 128.2c0 8.6.2 16.9.6 25 .9 18.3 2.8 34.9 5.3 49.5 3.9 22.7 9.6 39.6 16.1 47.8 2.8 3.4 5.7 5.5 8.7 5.5h194.6c11.9 0 22.1-28.3 27.2-69.5 2.2-17.5 3.5-37.2 3.5-58.3H0z"/></g><g id="layer4"><path id="path1128" d="M178.2 128.2h-92c-.1 0-.2.1-.3.1-4.2 1.9-8.4 3.6-12.7 5.3-8.3 3.3-16.7 6.2-25.2 8.7-8.2 2.5-16.6 4.7-25 6.5-7.4 1.6-14.9 3.1-22.4 4.3.9 18.3 2.8 34.9 5.3 49.5 2.5-.4 5-.6 7.5-1.1 8.2-1.3 16.5-2.9 24.8-4.8 8.4-1.9 16.7-4.1 25-6.5 8.5-2.6 16.9-5.5 25.2-8.7 13.2-5.2 26-11.2 38.3-18.2 4.4-2.4 8.7-5 12.9-7.6 4.4-2.7 8.7-5.6 13-8.5 4.4-3 8.8-6.1 13.1-9.3 4.1-2.9 8.4-6.4 12.5-9.7z" class="st14"/><path id="path1125" d="M256 128.2h-7.8c-4.7 4.6-9.5 9.2-14.2 13.5-8.7 8-17.6 15.9-26.7 23.5-8.6 7.2-17.4 14.2-26.4 20.8-4.4 3.2-8.8 6.3-13.1 9.3-4.3 2.9-8.6 5.7-13 8.5-12.4 7.7-25.2 14.5-38.5 20.5-4.2 1.9-8.5 3.7-12.7 5.3-8.3 3.3-16.7 6.2-25.2 8.7-8.2 2.5-16.6 4.7-25 6.5-8.3 1.9-16.5 3.4-24.8 4.8-2.2.4-4.4.6-6.6.9 2.8 3.4 5.7 5.5 8.7 5.5h132c2.4-1.4 4.8-2.7 7.2-4.2 4.4-2.7 8.7-5.6 13-8.5 4.4-3 8.8-6.1 13.1-9.3 8.8-6.5 17.6-13.4 26.4-20.8 9.1-7.6 18-15.4 26.7-23.5 1.1-1 2.2-2.1 3.3-3.2 2.3-17.5 3.6-37.2 3.6-58.3z" class="st14"/></g><g id="layer8"><radialGradient id="path185_00000023962422007011095310000016959798943199565696_" cx="-535.9272" cy="-610.1058" r="40" gradientTransform="matrix(3.3039 -.01863 -.02211 -1.4222 1877.2715 -752.9057)" gradientUnits="userSpaceOnUse"><stop id="stop81" offset="0" stop-color="#e0eaff"/><stop id="stop83" offset="1" stop-color="#c8daff"/></radialGradient><path id="path1122" fill="url(#path185_00000023962422007011095310000016959798943199565696_)" d="M0 128.2h256c-5.5-23.3-15.6-38.9-27.2-38.9H27.2C15.6 89.2 5.5 104.9 0 128.2z"/><g id="g197"><path id="path1119" fill="#fff" d="M83 114.4a13.4 13 0 0 1-13.4 13 13.4 13 0 0 1-13.4-13 13.4 13 0 0 1 13.4-13 13.4 13 0 0 1 13.4 13z" class="st16" opacity=".3"/><path id="path1116" fill="#fff" d="M197.2 114.4a13.4 13 0 0 1-13.4 13 13.4 13 0 0 1-13.4-13 13.4 13 0 0 1 13.4-13 13.4 13 0 0 1 13.4 13z" class="st16" opacity=".3"/><linearGradient id="circle191_00000075134042566356764200000012950513682166057388_" x1="-364.4655" x2="-364.4655" y1="430.8748" y2="420.0548" gradientTransform="matrix(1.9119 0 0 -1.8455 766.4109 899.4082)" gradientUnits="userSpaceOnUse"><stop id="stop89" offset="0" stop-color="#1f4a7f"/><stop id="stop91" offset="1" stop-color="#1a95d2"/></linearGradient><path id="path1113" fill="url(#circle191_00000075134042566356764200000012950513682166057388_)" d="M79.7 114.4a10.1 9.7 0 0 1-10.1 9.7 10.1 9.7 0 0 1-10.1-9.7 10.1 9.7 0 0 1 10.1-9.7 10.1 9.7 0 0 1 10.1 9.7z"/><linearGradient id="circle193_00000011033745788168726760000018017906308923677629_" x1="-364.4655" x2="-364.4655" y1="430.7178" y2="420.2068" gradientTransform="matrix(1.9119 0 0 -1.8455 880.5563 899.4082)" gradientUnits="userSpaceOnUse"><stop id="stop95" offset="0" stop-color="#1f4a7f"/><stop id="stop97" offset="1" stop-color="#1f93ce"/></linearGradient><path id="path1110" fill="url(#circle193_00000011033745788168726760000018017906308923677629_)" d="M193.9 114.4a10.1 9.7 0 0 1-10.1 9.7 10.1 9.7 0 0 1-10.1-9.7 10.1 9.7 0 0 1 10.1-9.7 10.1 9.7 0 0 1 10.1 9.7z"/><radialGradient id="path195_00000068651879384207295180000014565178368806865539_" cx="-667.2057" cy="897.5374" r="19" gradientTransform="matrix(.03395 3.6146 3.4808 -.03044 -2974.5315 2547.3691)" gradientUnits="userSpaceOnUse"><stop id="stop101" offset="0" stop-color="#b4b4b4"/><stop id="stop103" offset=".833" stop-color="#dcdcdc"/><stop id="stop105" offset=".9" stop-color="#f5f5f5"/><stop id="stop107" offset=".958" stop-color="#dcdcdc"/><stop id="stop109" offset="1" stop-color="#b4b4b4"/></radialGradient><path id="path1107" fill="url(#path195_00000068651879384207295180000014565178368806865539_)" d="M69.6 107.9c-3.7 0-6.7 2.9-6.7 6.5 0 34 28.6 61.6 63.8 61.6s63.8-27.6 63.8-61.6c0-3.6-3-6.5-6.7-6.5s-6.7 2.9-6.7 6.5c0 26.8-22.5 48.6-50.4 48.6s-50.4-21.8-50.4-48.6c0-3.6-3-6.5-6.7-6.5z"/></g><linearGradient id="path199_00000017510277176810255660000011424123209101616262_" x1="-653.1345" x2="-630.2574" y1="-357.1205" y2="-357.1205" gradientTransform="matrix(-1.8412 .9435 .9435 1.8412 -794.5892 1350.5936)" gradientUnits="userSpaceOnUse"><stop id="stop114" offset="0" stop-color="#a1745c"/><stop id="stop116" offset="1" stop-color="#5a4133"/></linearGradient><path id="path1104" fill="url(#path199_00000017510277176810255660000011424123209101616262_)" d="M48.7 77.7c-1.5 0-3 0-4.5.1-2.9.2-5.5.5-7.5 1-4 1.1-5.6 2.9-6.9 5.2-1 1.7-1.7 3.6-2.3 5.2.6.7 1.3 1.4 2.3 2 1.4.9 2.9 1.6 6.9 2 2 .2 4.6.3 7.5.4 2.9.1 6.1.1 9.2 0 6.3-.1 12.5-.5 16.7-1.4 3.9-.8 6-2 7.1-3-1.1-2.6-3.2-5.8-7.1-7.9-4.1-2.3-10.3-3.2-16.6-3.5-1.6-.1-3.2-.1-4.8-.1z"/><linearGradient id="path201_00000139282559852014608190000008786869013244854935_" x1="61.7866" x2="84.6636" y1="-723.4628" y2="-723.4628" gradientTransform="matrix(1.8412 .9435 -.9435 1.8412 -611.4048 1350.5844)" gradientUnits="userSpaceOnUse"><stop id="stop120" offset="0" stop-color="#a1745c"/><stop id="stop122" offset="1" stop-color="#5a4133"/></linearGradient><path id="path1101" fill="url(#path201_00000139282559852014608190000008786869013244854935_)" d="M207.3 77.7c-1.6 0-3.1 0-4.7.1-6.3.3-12.5 1.3-16.7 3.5-3.9 2.1-6 5.3-7.1 7.9 1.1 1 3.2 2.2 7.1 3 4.2.9 10.4 1.2 16.7 1.4 3.2.1 6.3.1 9.2 0 2.9-.1 5.5-.2 7.5-.4 4-.4 5.6-1.1 6.9-2 1-.7 1.7-1.4 2.3-2-.6-1.7-1.3-3.5-2.3-5.2-1.4-2.2-2.9-4.1-6.9-5.2-2-.5-4.6-.9-7.5-1-1.5-.1-3-.1-4.5-.1z"/></g></g></svg>