<svg xmlns="http://www.w3.org/2000/svg" width="80" height="80" viewBox="0 0 80 80"><path fill="#fff" d="M21.6 68.57h1.63v-3.2h3.14v-1.33h-3.14V62.2h3.48v-1.35H21.6Zm7.78-7.72h-1.61v7.72h1.6Zm2.93 7.83c.85 0 1.4-.38 1.69-.91h.04v.8h1.52v-3.9c0-1.38-1.16-1.96-2.45-1.96-1.39 0-2.3.66-2.52 1.71l1.48.12c.11-.38.46-.66 1.03-.66.55 0 .86.27.86.75v.02c0 .37-.4.42-1.4.52-1.14.1-2.17.49-2.17 1.78 0 1.15.81 1.73 1.92 1.73Zm.46-1.11c-.5 0-.85-.23-.85-.67 0-.45.37-.68.94-.76.35-.04.92-.13 1.11-.26v.62c0 .6-.5 1.07-1.2 1.07Zm7.12-4.79H38.8v-1.39h-1.6v1.39h-.8v1.2h.8V67c-.01 1.13.76 1.7 1.92 1.65.42-.02.71-.1.88-.15l-.26-1.2c-.08.02-.25.05-.4.05-.32 0-.54-.12-.54-.56v-2.8h1.09Zm1.04 7.96h1.6v-3.1h.06a1.7 1.7 0 0 0 1.64 1.02c1.32 0 2.35-1.04 2.35-2.98 0-1.99-1.08-2.97-2.35-2.97a1.7 1.7 0 0 0-1.64 1.04h-.07v-.97h-1.59Zm1.57-5.06c0-1.04.44-1.7 1.22-1.7.8 0 1.22.7 1.22 1.7s-.43 1.7-1.22 1.7c-.77 0-1.22-.67-1.22-1.7Zm6.8 3c.85 0 1.4-.38 1.68-.91h.05v.8h1.52v-3.9c0-1.38-1.16-1.96-2.45-1.96-1.39 0-2.3.66-2.53 1.71l1.49.12c.11-.38.45-.66 1.03-.66.54 0 .85.27.85.75v.02c0 .37-.4.42-1.4.52-1.14.1-2.17.49-2.17 1.78 0 1.15.82 1.73 1.92 1.73Zm.45-1.11c-.49 0-.84-.23-.84-.67 0-.45.37-.68.93-.76.35-.04.93-.13 1.12-.26v.62c0 .6-.5 1.07-1.2 1.07Zm4.05 1h1.6v-1.84l.44-.5 1.58 2.34h1.87l-2.25-3.28 2.14-2.51h-1.84l-1.85 2.2h-.09v-4.13h-1.6Z" style="line-height:1.25"/><path fill="#fff" d="M58.83 21.82v21.74L40 54.42V32.7ZM40 32.69V10.95L21.17 21.82Z" style="mix-blend-mode:normal"/><path fill="#fff" d="M22.02 18.68a6.28 6.28 0 0 0-3.14 5.44v17.14a6.3 6.3 0 0 0 3.14 5.44l14.84 8.57a6.28 6.28 0 0 0 6.28 0l14.84-8.57a6.28 6.28 0 0 0 3.14-5.44V24.12c0-2.25-1.2-4.32-3.14-5.44L43.14 10.1a6.28 6.28 0 0 0-6.28 0Zm18.82-4.59 14.84 8.57c.52.3.84.86.84 1.46v17.14c0 .6-.32 1.15-.84 1.45l-14.84 8.57c-.52.3-1.16.3-1.68 0l-14.84-8.57c-.52-.3-.84-.85-.84-1.45V24.12c0-.6.32-1.16.84-1.46l14.84-8.57c.52-.3 1.16-.3 1.68 0Z" style="mix-blend-mode:normal"/></svg>