<?xml version="1.0" encoding="UTF-8" standalone="no"?><svg xmlns="http://www.w3.org/2000/svg" version="1.1" id="svg3690" width="1200" height="1200" viewBox="0 0 1200 1200"><metadata id="metadata3696"/><defs id="defs3694"><filter style="color-interpolation-filters:sRGB" id="filter1838" x="-0.10882614" width="1.2176523" y="-0.83430832" height="2.6686166"><feGaussianBlur stdDeviation="1.1684748" id="feGaussianBlur1840"/></filter><filter style="color-interpolation-filters:sRGB" id="filter1842" x="-0.045987106" width="1.0919742" y="-0.16846211" height="1.3369242"><feGaussianBlur stdDeviation="13.981126" id="feGaussianBlur1844"/></filter><filter style="color-interpolation-filters:sRGB" id="filter1846" x="-0.32615321" width="1.6523064" y="-0.67797059" height="2.3559412"><feGaussianBlur stdDeviation="2.7179904" id="feGaussianBlur1848"/></filter><filter style="color-interpolation-filters:sRGB" id="filter1850" x="-0.049140861" width="1.0982817" y="-0.17825774" height="1.3565155"><feGaussianBlur stdDeviation="1.2301188" id="feGaussianBlur1852"/></filter></defs><path style="display:inline;opacity:.6;fill:#545454;fill-opacity:1;stroke:none;stroke-width:30.78190613;stroke-linecap:round;stroke-linejoin:round;stroke-miterlimit:4;stroke-dasharray:30.78190326,92.34570976000000542;stroke-dashoffset:0;stroke-opacity:1;paint-order:normal" d="M598.86 111.049a486.135 489.439 0 0 0-486.135 489.437 486.135 489.439 0 0 0 486.134 489.44 486.135 489.439 0 0 0 486.135-489.44A486.135 489.439 0 0 0 598.86 111.05zm.046 25.844c252.67-.001 457.485 207.29 457.485 462.966 0 255.678-204.814 462.916-457.485 462.916-252.67.002-457.534-207.238-457.533-462.916.001-255.676 204.865-462.967 457.533-462.966zm-.093 35.263a417.686 417.686 0 0 0-42.19 2.555v.781c-24.921 37.292-46.204 80.488-60.031 124.5-20.21 64.316-35.352 132.703-32.192 199.826 2.417 51.31 23.736 113.92 54.961 143.707 36.866 31.875 78.03 27.846 109.205 7.774 21.079-13.57 30.915-29.948 46.399-55.254 34.983-67.617 31.27-146.917 26.357-216.428 5.4-.731 14.738-.37 19.42 5.356 10.149 42.33 18.555 87.19 17.125 131.304-1.746 53.53-7.513 106.142-47.547 153.838-52.3 65.524-133.139 64.752-188.754 42.996-81.876-37.71-131.213-98.16-166.605-169.619-31.76-64.127-46.932-116.313-69.264-203.447-57.222 74.74-89.382 165.266-89.498 259.81.143 63.55 14.278 126.285 41.377 183.614 131.586 38.541 214.526 37.683 295.71 35.42 65.568-6.044 131.653-22.36 199.564-73.446 69.545-60.273 85.948-136.976 70.699-223.472-10.011-47.341-29.049-91.625-53.192-134.2 42.502 40.74 143.783 137.756 123.125 298.944-14.12 99.604-82.613 196.763-169.859 256.094-87.146 51.315-122.693 63.412-160.723 77.45 25.068 4.741 50.505 7.237 76.008 7.335 233.445 0 422.664-191.514 422.664-427.739-.195-104.038-37.205-201.581-105.283-279.546l-21.287.683c-112.007-.98-197.019 10.204-302.36 89.176-7.334 5.504-8.302 16.785-9.755 25.914-5.163 32.486-11.745 67.8-53.908 101.82-3.126 3.934-1.154 11.365.46 14.428 3.105 5.461 6.887 8.006 12.342 11.195 5.067 1.649 8.942-.077 12.436-2.847 6.595-4.516 11.15-9.19 16.12-15.54 28.71-37.033 49.725-89.007 52.331-144.331 14.044-11.067 29.052-20.313 47.691-20.606-.148 37.409-2.025 82.466-18.607 135.55-13.945 44.642-35.909 76.276-63.19 94.679-16.487 11.118-33.734 16.097-49.748-1.932-12.794-17.321-19.576-34.517-21.525-62.346-1.05-15.03-.068-30.34 3.057-45.072 10.463-49.312 35.75-95.361 74-136.418 37.313-40.05 115.232-116.924 115.232-116.924l49.94-43.285a418.403 418.403 0 0 0-160.58-32.283H598.79l.023-.014z" id="circle15653"/><path id="path15585" d="M344.19 425.316c-2.546.002-4.605 2.33-4.602 5.612l.035 36.829-53.696.048c-29.348-2.08-52.66 22.12-52.29 56.978-.397 18.735 11.69 56.9 52.4 56.884l61.836-.055c13.088-.012 22.326-8.62 22.315-19.427l-.126-131.233c-.004-3.74-1.532-5.658-5.6-5.654zm468.576.059c-2.799.003-5.048 2.38-5.045 5.33l.018 19.052c.003 2.95 2.257 5.323 5.056 5.32l21.376-.018c2.799-.003 5.051-2.38 5.049-5.33l-.019-19.052c-.003-2.95-2.26-5.324-5.059-5.321zm-.156 40.307c-2.8.003-5.048 2.38-5.046 5.33l.102 105.282c.003 2.95 2.256 5.324 5.055 5.321l21.766-.02c2.8-.002 5.052-2.379 5.05-5.33l-.102-105.282c-.003-2.95-2.26-5.323-5.059-5.321zm-403.223.852c-20.708.019-33.257 14.851-33.234 39.184l.038 39.435c.007 6.987.617 12.85 1.832 17.586 1.348 4.735 3.37 8.58 6.061 11.538 2.691 2.84 6.12 4.911 10.288 6.21 4.168 1.3 9.212 1.943 15.126 1.937l96.922-.087c3.024-.003 6.456-2.532 6.451-6.77l-.011-11.98c-.004-3.92-3.553-7.525-7.677-7.522l-81.597.074c-15.396.974-17.053-8.269-15.944-16.907l75.27-.068c23.912-.021 33.097-7.753 33.069-36.947-.026-26.41-11.124-35.768-33.076-35.749zm145.31-.13c-20.708.019-33.254 14.85-33.23 39.183l.038 39.435c.007 6.987.617 12.85 1.831 17.586 1.35 4.736 3.367 8.58 6.058 11.539 2.691 2.84 6.124 4.91 10.292 6.21 4.168 1.299 9.208 1.942 15.122 1.937l96.926-.087c3.023-.003 6.455-2.532 6.45-6.77l-.01-11.98c-.005-3.92-3.557-7.526-7.681-7.522l-81.597.073c-15.396.974-17.053-8.268-15.944-16.907l75.372-.067c23.91-.022 32.994-9.027 32.967-36.947-.025-26.41-11.12-35.769-33.072-35.749zm135.669-.02c-9.25.009-23.751 8.204-23.734 25.838l.118 123.411c.005 4.904.337 8.854 7.56 8.847l17.305-.015c4.393-.004 6.191-1.636 6.185-8.563l-.033-33.542 42.951-.039c56.71 1.611 61.23-41.076 61.213-58.044-.037-39.085-26.07-57.969-56.476-57.942zm161.211.914c-4.639.004-5.125 1.494-5.121 5.744l.095 98.99c.006 6.374 1.352 9.131 7.57 9.126l17.688-.016c5.828-.005 5.998-3.19 5.994-8.073l-.078-80.612 35.724-.032c9.59-.01 18.97 5.533 18.988 23.368l.054 56.166c.006 6.382 1.934 9.127 8.96 9.12l14.546-.013c6.46-.006 7.29-3.103 7.285-8.71l-.067-69.987c-.007-6.869-.617-12.553-1.831-17.052-1.214-4.617-3.164-8.226-5.855-10.829-2.557-2.721-5.99-4.613-10.291-5.675-4.168-1.062-20.76-1.58-26.808-1.575zm-535.312 24.99c12.107.045 23.383.476 23.383.476l.06 63.333-33.737.03c-4.57.004-8.332-.286-11.29-.875-30.962-.239-32.01-23.656-30.37-33.09.038-23.17 22.294-29.543 31.519-29.358 5.608-.429 13.17-.543 20.435-.517zm381.423-.12 41.143-.037c21.263-.019 31.434 16.168 31.876 31.084.021 21.871-11.963 32.546-39.893 32.571l-33.072.03zm-219.79.442c11.605.238 13.095 17.127 4.31 20.41-1.478.357-3.293.537-5.443.54l-69.148.061-.008-8.286c-.676-7.75 4.488-13.08 12.287-12.643l56.849-.05c.395-.029.778-.039 1.152-.03zm145.313-.13c11.606.237 13.092 17.126 4.308 20.41-1.479.357-3.293.537-5.444.539l-69.148.062-.008-8.287c-.676-7.75 4.488-13.08 12.287-12.642l56.848-.051c.396-.028.783-.038 1.157-.03z" style="font-style:normal;font-variant:normal;font-weight:700;font-stretch:normal;font-size:14.72839928px;line-height:8.1823597px;font-family:Unispace;-inkscape-font-specification:'Unispace, Bold';font-variant-ligatures:normal;font-variant-caps:normal;font-variant-numeric:normal;font-feature-settings:normal;text-align:center;letter-spacing:0;word-spacing:0;writing-mode:lr-tb;text-anchor:middle;fill:#000;fill-opacity:1;stroke:none;stroke-width:1.27638113px;stroke-linecap:butt;stroke-linejoin:miter;stroke-opacity:1;filter:url(#filter1842)"/><g style="fill:#000f21;fill-opacity:1;stroke-width:4.12840796" transform="matrix(1.13816 -.00102 .00115 1.19968 319.302 734.576)" id="g15597"><g style="fill:#000f21;fill-opacity:1;stroke-width:4.12840796" id="g15595" transform="translate(0 -87)"><g aria-label="deepin" transform="matrix(4.81508 0 0 4.02453 -380.524 -557.019)" style="font-style:normal;font-variant:normal;font-weight:700;font-stretch:normal;font-size:14.72839928px;line-height:8.1823597px;font-family:Unispace;-inkscape-font-specification:'Unispace, Bold';font-variant-ligatures:normal;font-variant-caps:normal;font-variant-numeric:normal;font-feature-settings:normal;text-align:center;letter-spacing:0;word-spacing:0;writing-mode:lr-tb;text-anchor:middle;opacity:1;fill:#000f21;fill-opacity:1;stroke:none;stroke-width:.24813397px;stroke-linecap:butt;stroke-linejoin:miter;stroke-opacity:1" id="g15593"><path id="path15591" d="M94.542 131.548c-1.513 0-2.43 1.228-2.43 3.246v3.27c0 .579.044 1.065.132 1.458.098.392.246.712.442.957.197.236.447.407.751.515.304.109.673.163 1.105.163h7.08c.22 0 .472-.21.472-.561v-.994c0-.325-.26-.624-.56-.624h-5.961c-1.125.08-1.245-.687-1.164-1.403h5.499c1.746 0 2.418-.64 2.418-3.06 0-2.19-.81-2.967-2.414-2.967zm9.413.002c-.34 0-.375.123-.375.476v8.207c0 .529.098.758.553.758h1.292c.425 0 .438-.264.438-.67v-6.683h2.61c.7 0 1.385.46 1.385 1.939v4.657c0 .529.14.757.654.757h1.062c.472 0 .533-.257.533-.722v-5.803c0-.57-.044-1.041-.132-1.414-.089-.383-.23-.683-.427-.899a1.456 1.456 0 0 0-.751-.47c-.305-.089-1.517-.133-1.959-.133zm-8.647 2.167h4.153c.924-.073 1.06 1.41.397 1.69-.108.03-.24.045-.397.045h-5.052v-.687c-.049-.643.329-1.085.899-1.048z" style="font-style:normal;font-variant:normal;font-weight:700;font-stretch:normal;font-size:14.72839928px;font-family:Unispace;-inkscape-font-specification:'Unispace, Bold';font-variant-ligatures:normal;font-variant-caps:normal;font-variant-numeric:normal;font-feature-settings:normal;text-align:center;writing-mode:lr-tb;text-anchor:middle;opacity:1;fill:#000d1d;fill-opacity:1;stroke-width:.24813396px;filter:url(#filter1846)"/></g></g></g><g aria-label="deepin" transform="matrix(12.14538 -.01084 .01028 10.63601 -784.848 -1559.073)" style="font-style:normal;font-variant:normal;font-weight:700;font-stretch:normal;font-size:14.72839928px;line-height:8.1823597px;font-family:Unispace;-inkscape-font-specification:'Unispace, Bold';font-variant-ligatures:normal;font-variant-caps:normal;font-variant-numeric:normal;font-feature-settings:normal;text-align:center;letter-spacing:0;word-spacing:0;writing-mode:lr-tb;text-anchor:middle;opacity:1;fill:#000f21;fill-opacity:1;stroke:none;stroke-width:.11196487px;stroke-linecap:butt;stroke-linejoin:miter;stroke-opacity:1" id="g15601"><path style="font-style:normal;font-variant:normal;font-weight:700;font-stretch:normal;font-size:14.72839928px;font-family:Unispace;-inkscape-font-specification:'Unispace, Bold';font-variant-ligatures:normal;font-variant-caps:normal;font-variant-numeric:normal;font-feature-settings:normal;text-align:center;writing-mode:lr-tb;text-anchor:middle;fill:#000d1d;fill-opacity:1;stroke-width:.11196487px;filter:url(#filter1850)" d="M124.91 205.31c-.16 0-.29.2-.29.449v1c0 .248.13.449.29.449h6.322c.161 0 .291-.2.291-.449v-1c0-.249-.13-.449-.29-.449zm16.895.05c-.204 0-.37.197-.37.441v12.079c0 .244.166.44.37.44h1.59c.204 0 .369-.196.369-.44V205.8c0-.244-.165-.442-.37-.442zm-27.006 3.247c-.221 0-.472.21-.472.561v.993c0 .325.259.625.56.625h5.123c1.125-.08 1.246.686 1.164 1.402h-5.499c-1.746 0-2.417.64-2.417 3.061 0 2.19.81 2.967 2.413 2.967h5.37c1.513 0 2.43-1.229 2.43-3.246v-3.27c0-.58-.044-1.065-.132-1.458-.098-.393-.245-.712-.442-.957a1.694 1.694 0 0 0-.75-.516c-.305-.108-.673-.162-1.106-.162zm22.145.062c-2.19 0-3.967 2.125-3.967 4.746 0 2.622 1.776 4.747 3.967 4.747 2.192 0 3.968-2.125 3.968-4.747 0-2.621-1.777-4.746-3.968-4.746zm-40.328.036c-.675 0-1.215.244-1.622.73-.406.487-.61 1.133-.61 1.94v.623c0 .807.204 1.454.61 1.94.407.487.947.796 1.622.796h2.977c.323.025.462.206.52.357.057.15.11.53.002.74-.101.194-.24.295-.516.3-.506.01-1.341.03-1.897.006-.555-.024-1.071.035-1.547 0-.273-.024-.853.018-1.157 0-.28-.017-.631.238-.6.73v.784c.012.476.261.67.608.674.359.004 1.077 0 1.402-.001.555.047 1.165-.036 1.83 0 .665.035 1.314-.007 1.949-.007.674 0 1.215-.244 1.622-.73.406-.487.61-1.133.61-1.94v-.712c0-.807-.204-1.454-.61-1.94-.407-.487-.948-.406-1.622-.406h-2.923c-.268 0-.473-.183-.567-.421-.093-.24-.096-.648 0-.882.097-.233.274-.41.567-.41h4.517c.409.017.638-.123.638-.496v-1.02c.014-.446-.396-.657-.634-.655zm-10.495.002c-1.512 0-2.43 1.229-2.43 3.246v3.27c0 .58.044 1.065.133 1.458.098.393.245.712.441.958.197.235.447.407.752.515.304.108.672.162 1.104.162h7.08c.221 0 .472-.21.472-.56v-.994c0-.325-.259-.624-.56-.624h-5.96c-1.125.08-1.246-.687-1.164-1.403h5.498c1.747 0 2.418-.64 2.418-3.061 0-2.19-.81-2.967-2.413-2.967zm38.204.002c-.339 0-.375.124-.375.476v8.208c0 .528.1.757.553.757h1.292c.426 0 .438-.264.438-.669v-6.684h2.61c.7 0 1.386.46 1.386 1.94v4.656c0 .53.14.757.653.757h1.063c.471 0 .533-.257.533-.722v-5.803c0-.57-.044-1.04-.133-1.414-.088-.383-.23-.682-.427-.898a1.456 1.456 0 0 0-.751-.472c-.304-.088-1.516-.132-1.958-.132zm-19.692.028c-.675 0-1.735.678-1.735 2.14v10.233c0 .407.023.734.551.734h1.264c.321 0 .453-.135.453-.71v-2.781h3.137c4.143.138 4.475-3.401 4.475-4.808 0-3.24-1.9-4.808-4.12-4.808zm32.31.293h.002c.477.001.95.114 1.392.331l-.433.444s-.676.788-1 1.199c-.331.42-.55.893-.641 1.399a1.973 1.973 0 0 0-.026.462c.016.285.075.461.186.639.139.185.289.134.432.02.236-.189.427-.513.547-.97a5.28 5.28 0 0 0 .162-1.39c-.162.002-.292.097-.414.21a2.985 2.985 0 0 1-.453 1.48.655.655 0 0 1-.14.16c-.03.028-.064.046-.108.029a.272.272 0 0 1-.107-.115c-.014-.031-.031-.108-.004-.148.365-.349.423-.71.467-1.044.013-.093.021-.209.085-.265.913-.81 1.65-.925 2.622-.915l.184-.007c.59.8.912 1.8.913 2.866 0 2.422-1.64 4.386-3.665 4.386a3.083 3.083 0 0 1-.659-.075c.33-.144.638-.268 1.394-.794.756-.609 1.35-1.605 1.473-2.626.179-1.653-.7-2.647-1.068-3.065.21.436.375.89.461 1.376.133.887-.01 1.673-.613 2.291-.589.524-1.162.691-1.73.753-.704.023-1.423.032-2.564-.363a5.113 5.113 0 0 1-.36-1.883 4.92 4.92 0 0 1 .777-2.663c.194.893.325 1.428.6 2.085.307.733.735 1.353 1.445 1.74.482.223 1.183.23 1.637-.441.347-.49.397-1.029.412-1.578.013-.452-.06-.912-.148-1.346-.04-.058-.122-.062-.169-.055.043.713.075 1.526-.228 2.22-.134.259-.22.427-.403.566-.27.206-.627.247-.947-.08-.27-.305-.455-.947-.476-1.473-.028-.688.104-1.39.279-2.05.12-.45.304-.893.52-1.276v-.008a3.07 3.07 0 0 1 .366-.026zm-31.777 1.845h3.005c1.554 0 2.296 1.343 2.327 2.58 0 1.813-.876 2.697-2.916 2.697h-2.416zm-18.279.002h4.153c.924-.073 1.06 1.41.398 1.69-.108.03-.241.044-.398.044h-5.051v-.686c-.049-.643.329-1.084.898-1.048zm29.236 3.436h5.051V215c.05.643-.329 1.084-.898 1.047h-4.153c-.924.074-1.06-1.41-.398-1.69.108-.03.24-.044.398-.044z" id="path15599"/></g><g style="fill:#000f21;fill-opacity:1;stroke-width:1.77481878" id="g15609" transform="matrix(2.52237 -.00226 .00281 2.929 -652.198 1689.768)"><g aria-label="deepin" transform="matrix(4.81508 0 0 4.02453 -380.524 -557.019)" style="font-style:normal;font-variant:normal;font-weight:700;font-stretch:normal;font-size:14.72839928px;line-height:8.1823597px;font-family:Unispace;-inkscape-font-specification:'Unispace, Bold';font-variant-ligatures:normal;font-variant-caps:normal;font-variant-numeric:normal;font-feature-settings:normal;text-align:center;letter-spacing:0;word-spacing:0;writing-mode:lr-tb;text-anchor:middle;opacity:1;fill:#000f21;fill-opacity:1;stroke:none;stroke-width:.10667377px;stroke-linecap:butt;stroke-linejoin:miter;stroke-opacity:1" id="g15607"><path id="path15605" d="M187.038 30.003c-.053 0-.095.05-.095.12v.787h-1.114c-.608-.045-1.092.471-1.085 1.216-.009.4.241 1.216 1.085 1.216h1.283c.27 0 .463-.183.463-.414v-2.804c0-.08-.032-.12-.116-.12zm6.253 0c-.052 0-.095.05-.095.12v.787h-1.114c-.608-.045-1.092.471-1.085 1.216-.009.4.241 1.216 1.085 1.216h1.283c.271 0 .463-.183.463-.414v-2.804c0-.08-.032-.12-.116-.12zm-9.524.002c-.058 0-.105.05-.105.113v.407c0 .063.047.114.105.114h.443c.058 0 .105-.05.105-.114v-.407c0-.063-.047-.113-.105-.113zm-.004.86c-.058 0-.105.051-.105.114v2.25c0 .063.047.113.105.113h.451c.058 0 .105-.05.105-.113v-2.25c0-.063-.047-.113-.105-.113zm-9.654.045c-.097 0-.107.032-.107.123v2.114c0 .137.028.195.157.195h.367c.12 0 .124-.068.124-.172v-1.722h.413c.18 0 .355.098.387.398v1.301c0 .137.028.195.157.195h.366c.122 0 .125-.068.125-.172v-1.722h.412c.2 0 .394.119.394.5v1.2c0 .136.04.194.185.194h.302c.134 0 .151-.066.151-.185V31.66c0-.146-.012-.268-.037-.364a.49.49 0 0 0-.122-.231.42.42 0 0 0-.213-.122c-.086-.023-.43-.034-.556-.034h-1.057a.164.164 0 0 0-.068.01 6.679 6.679 0 0 0-.323-.01zm4.01 0c-.135 0-.152.066-.152.186v1.495c0 .147.013.268.038.364a.49.49 0 0 0 .12.232.42.42 0 0 0 .214.121c.087.023.43.034.556.034h1.386c.096 0 .106-.031.106-.122v-2.115c0-.136-.027-.195-.156-.195h-.367c-.12 0-.124.068-.124.172v1.722h-.741c-.2 0-.393-.118-.393-.5v-1.199c0-.136-.04-.195-.186-.195zm2.8 0c-.096 0-.106.032-.106.123v2.114c0 .137.027.195.156.195h.367c.12 0 .124-.068.124-.172v-1.722h.741c.2 0 .393.119.393.5v1.2c0 .136.04.194.186.194h.302c.134 0 .15-.066.15-.185V31.66c0-.146-.012-.268-.037-.364a.49.49 0 0 0-.12-.231.42.42 0 0 0-.214-.122c-.087-.023-.43-.034-.556-.034zm-9.431 0c-.271 0-.49.261-.49.585v1.264c0 .324.219.585.49.585h1.6c.271 0 .49-.26.49-.585v-1.264c0-.324-.219-.585-.49-.585zm-2.816.008a.836.836 0 0 0-.278.04.426.426 0 0 0-.19.13.622.622 0 0 0-.11.241 1.71 1.71 0 0 0-.034.368v.86c0 .146.011.269.033.368.025.099.062.179.112.24.049.06.112.103.189.13.076.028.17.042.278.042h1.783c.055 0 .119-.053.119-.142v-.25c0-.082-.065-.157-.141-.157h-1.501c-.279.02-.313-.166-.294-.344v-.634c-.019-.177.015-.363.294-.344h1.5c.077 0 .142-.075.142-.157v-.25c0-.089-.063-.141-.12-.141zm19.716.011a.124.124 0 0 0-.12.128v.228c0 .074.066.142.142.142h1.29c.283-.018.314.302.293.465h-1.384c-.44 0-.61.219-.61.772 0 .5.205.678.608.678h1.353c.38 0 .612-.28.612-.742v-.747c0-.132-.011-.46-.034-.55a.544.544 0 0 0-.11-.219.43.43 0 0 0-.19-.118.915.915 0 0 0-.278-.037zm-1.93.505c.25 0 .485.01.485.01v1.353h-.7c-.095 0-.173-.006-.234-.019-.642-.005-.663-.506-.629-.707.001-.495.463-.63.654-.627.116-.009.273-.011.424-.01zm6.253 0c.251 0 .485.01.485.01v1.353h-.7c-.095 0-.172-.006-.234-.019-.642-.005-.663-.506-.629-.707.001-.495.463-.63.654-.627.117-.009.273-.011.424-.01zm-20.918.014h.99c.132 0 .238.125.238.28v.798c0 .155-.106.28-.238.28h-.99c-.132 0-.238-.125-.238-.28v-.797c0-.156.106-.28.238-.28zm16.928.93h1.272v.23c.013.146-.083.247-.226.239h-1.046c-.233.016-.267-.395-.1-.459a.42.42 0 0 1 .1-.01z" style="font-style:normal;font-variant:normal;font-weight:700;font-stretch:normal;font-size:14.72839928px;font-family:Unispace;-inkscape-font-specification:'Unispace, Bold';font-variant-ligatures:normal;font-variant-caps:normal;font-variant-numeric:normal;font-feature-settings:normal;text-align:center;writing-mode:lr-tb;text-anchor:middle;fill:#000f21;fill-opacity:1;stroke-width:.10667377px;filter:url(#filter1838)"/></g></g><path style="font-style:normal;font-variant:normal;font-weight:700;font-stretch:normal;font-size:14.72839928px;line-height:8.1823597px;font-family:Unispace;-inkscape-font-specification:'Unispace, Bold';font-variant-ligatures:normal;font-variant-caps:normal;font-variant-numeric:normal;font-feature-settings:normal;text-align:center;letter-spacing:0;word-spacing:0;writing-mode:lr-tb;text-anchor:middle;fill:#fff;fill-opacity:1;stroke:none;stroke-width:1.27638113px;stroke-linecap:butt;stroke-linejoin:miter;stroke-opacity:1" d="M344.186 420.424c-2.547.002-4.606 2.329-4.603 5.612l.036 36.829-53.697.048c-29.347-2.08-52.66 22.12-52.29 56.978-.397 18.735 11.69 56.9 52.4 56.884l61.836-.055c13.088-.012 22.326-8.62 22.316-19.427l-.126-131.233c-.004-3.74-1.533-5.658-5.6-5.654zm468.575.059c-2.799.003-5.048 2.38-5.045 5.33l.018 19.052c.003 2.95 2.257 5.323 5.056 5.32l21.376-.019c2.799-.003 5.052-2.38 5.049-5.33l-.018-19.051c-.003-2.95-2.26-5.324-5.06-5.321zm-.156 40.306c-2.799.003-5.048 2.38-5.045 5.33l.1 105.283c.004 2.95 2.258 5.324 5.057 5.321l21.766-.02c2.799-.002 5.052-2.38 5.049-5.33l-.101-105.282c-.003-2.95-2.26-5.324-5.06-5.321zm-403.223.853c-20.708.019-33.257 14.851-33.234 39.184l.038 39.435c.007 6.987.618 12.85 1.832 17.586 1.349 4.735 3.37 8.58 6.061 11.538 2.691 2.84 6.12 4.911 10.289 6.21 4.168 1.3 9.21 1.942 15.125 1.937l96.922-.087c3.024-.003 6.456-2.532 6.452-6.77l-.012-11.98c-.004-3.92-3.553-7.525-7.677-7.522l-81.596.074c-15.397.974-17.054-8.27-15.945-16.907l75.27-.068c23.912-.021 33.097-7.753 33.07-36.947-.026-26.41-11.124-35.768-33.076-35.749zm145.31-.13c-20.708.018-33.253 14.85-33.23 39.183l.038 39.435c.007 6.987.617 12.85 1.832 17.586 1.348 4.736 3.366 8.58 6.057 11.539 2.692 2.84 6.124 4.91 10.292 6.21 4.168 1.299 9.208 1.942 15.122 1.937l96.926-.087c3.024-.003 6.455-2.533 6.451-6.77l-.011-11.98c-.004-3.92-3.557-7.526-7.68-7.522l-81.597.073c-15.397.974-17.054-8.269-15.945-16.907l75.372-.068c23.911-.021 32.994-9.026 32.967-36.946-.025-26.41-11.12-35.769-33.072-35.75zm135.669-.02c-9.25.009-23.75 8.204-23.734 25.837l.119 123.412c.005 4.904.336 8.854 7.56 8.847l17.304-.015c4.393-.004 6.192-1.636 6.185-8.563l-.032-33.543 42.95-.038c56.71 1.611 61.23-41.076 61.213-58.044-.037-39.085-26.07-57.97-56.475-57.942zm161.212.914c-4.64.004-5.126 1.493-5.122 5.743l.095 98.991c.006 6.374 1.352 9.131 7.57 9.126l17.688-.016c5.828-.005 5.999-3.19 5.994-8.073l-.077-80.613 35.723-.032c9.591-.009 18.971 5.534 18.988 23.368l.054 56.167c.006 6.382 1.935 9.126 8.96 9.12l14.546-.013c6.46-.006 7.29-3.104 7.285-8.71l-.067-69.988c-.007-6.868-.616-12.552-1.83-17.05-1.215-4.618-3.165-8.227-5.856-10.83-2.556-2.721-5.989-4.613-10.291-5.675-4.168-1.062-20.76-1.58-26.808-1.575zm-535.313 24.99c12.107.045 23.383.476 23.383.476l.06 63.333-33.737.03c-4.57.004-8.332-.286-11.29-.876-30.962-.238-32.01-23.655-30.37-33.09.038-23.17 22.294-29.543 31.519-29.358 5.608-.428 13.17-.543 20.435-.516zm381.423-.12 41.143-.037c21.263-.019 31.435 16.168 31.876 31.083.021 21.872-11.963 32.547-39.892 32.572l-33.073.03zm-219.79.442c11.605.238 13.096 17.126 4.31 20.41-1.478.357-3.292.537-5.443.54l-69.148.061-.008-8.286c-.676-7.75 4.488-13.08 12.287-12.643l56.849-.05c.395-.029.778-.039 1.153-.03zm145.313-.13c11.606.237 13.093 17.126 4.308 20.409-1.478.358-3.293.538-5.444.54l-69.148.062-.008-8.287c-.676-7.75 4.488-13.08 12.287-12.642l56.849-.051c.395-.029.782-.038 1.156-.03z" id="path3749"/><g id="g1149" transform="matrix(1.13816 -.00102 .00115 1.19968 319.297 729.684)" style="fill:#fff;fill-opacity:1;stroke-width:4.12840796"><g transform="translate(0 -87)" id="g1147" style="fill:#fff;fill-opacity:1;stroke-width:4.12840796"><g id="g1145" style="font-style:normal;font-variant:normal;font-weight:700;font-stretch:normal;font-size:14.72839928px;line-height:8.1823597px;font-family:Unispace;-inkscape-font-specification:'Unispace, Bold';font-variant-ligatures:normal;font-variant-caps:normal;font-variant-numeric:normal;font-feature-settings:normal;text-align:center;letter-spacing:0;word-spacing:0;writing-mode:lr-tb;text-anchor:middle;opacity:1;fill:#fff;fill-opacity:1;stroke:none;stroke-width:.24813397px;stroke-linecap:butt;stroke-linejoin:miter;stroke-opacity:1" transform="matrix(4.81508 0 0 4.02453 -380.524 -557.019)" aria-label="deepin"><path style="font-style:normal;font-variant:normal;font-weight:700;font-stretch:normal;font-size:14.72839928px;font-family:Unispace;-inkscape-font-specification:'Unispace, Bold';font-variant-ligatures:normal;font-variant-caps:normal;font-variant-numeric:normal;font-feature-settings:normal;text-align:center;writing-mode:lr-tb;text-anchor:middle;opacity:1;fill:#fff;fill-opacity:1;stroke-width:.24813396px" d="M94.542 131.548c-1.513 0-2.43 1.228-2.43 3.246v3.27c0 .579.044 1.065.132 1.458.098.392.246.712.442.957.197.236.447.407.751.515.304.109.673.163 1.105.163h7.08c.22 0 .472-.21.472-.561v-.994c0-.325-.26-.624-.56-.624h-5.961c-1.125.08-1.245-.687-1.164-1.403h5.499c1.746 0 2.418-.64 2.418-3.06 0-2.19-.81-2.967-2.414-2.967zm9.413.002c-.34 0-.375.123-.375.476v8.207c0 .529.098.758.553.758h1.292c.425 0 .438-.264.438-.67v-6.683h2.61c.7 0 1.385.46 1.385 1.939v4.657c0 .529.14.757.654.757h1.062c.472 0 .533-.257.533-.722v-5.803c0-.57-.044-1.041-.132-1.414-.089-.383-.23-.683-.427-.899a1.456 1.456 0 0 0-.751-.47c-.305-.089-1.517-.133-1.959-.133zm-8.647 2.167h4.153c.924-.073 1.06 1.41.397 1.69-.108.03-.24.045-.397.045h-5.052v-.687c-.049-.643.329-1.085.899-1.048z" id="path1143"/></g></g></g><path style="font-style:normal;font-variant:normal;font-weight:700;font-stretch:normal;font-size:14.72839928px;line-height:8.1823597px;font-family:Unispace;-inkscape-font-specification:'Unispace, Bold';font-variant-ligatures:normal;font-variant-caps:normal;font-variant-numeric:normal;font-feature-settings:normal;text-align:center;letter-spacing:0;word-spacing:0;writing-mode:lr-tb;text-anchor:middle;fill:#fff;fill-opacity:1;stroke:none;stroke-width:1.27638137px;stroke-linecap:butt;stroke-linejoin:miter;stroke-opacity:1" d="M734.34 618.365c-1.955.002-3.525 2.142-3.522 4.8l.01 10.704c.003 2.658 1.577 4.8 3.531 4.798l76.786-.069c1.954-.002 3.53-2.147 3.527-4.804l-.01-10.704c-.004-2.658-1.582-4.795-3.537-4.794zm205.194.34c-2.484.002-4.482 2.114-4.48 4.732l.125 129.239c.003 2.617 2.004 4.72 4.488 4.718l19.31-.017c2.483-.002 4.481-2.109 4.479-4.726l-.125-129.24c-.003-2.617-2.005-4.725-4.488-4.723zM611.563 653.75c-2.683.002-5.726 2.249-5.722 6.008l.01 10.63c.003 3.479 3.154 6.678 6.812 6.675l62.222-.056c13.66-.864 15.134 7.332 14.15 14.996l-66.785.06c-21.214.019-29.359 6.878-29.334 32.779.023 23.43 9.865 31.733 29.34 31.716l65.23-.059c18.371-.016 29.503-13.172 29.482-34.76l-.034-34.987c-.006-6.198-.55-11.397-1.627-15.6-1.196-4.2-2.987-7.614-5.375-10.238-2.387-2.52-5.43-4.355-9.128-5.508-3.698-1.152-8.17-1.729-13.418-1.724zm268.972.42c-26.61.023-48.164 22.783-48.137 50.832.026 28.05 21.624 50.765 48.235 50.74 26.61-.023 48.159-22.777 48.132-50.826-.027-28.05-21.62-50.77-48.23-50.746zM390.729 655c-8.192.007-14.752 2.616-19.686 7.826-4.934 5.21-7.398 12.13-7.39 20.764l.006 6.665c.008 8.634 2.486 15.554 7.43 20.756 4.944 5.201 11.51 8.502 19.701 8.495l36.156-.033c3.927.267 5.621 2.2 6.321 3.811.7 1.612 1.348 5.675.032 7.915-1.228 2.082-2.921 3.172-6.269 3.23-6.143.101-16.286.326-23.032.074-6.747-.248-13.009.392-18.791.016-3.313-.25-10.365.205-14.056.013-3.403-.177-7.66 2.558-7.277 7.815l.008 8.396c.151 5.092 3.18 7.17 7.387 7.204 4.36.039 13.092-.006 17.033-.026 6.746.502 14.155-.394 22.227-.02 8.071.373 15.957-.09 23.667-.096 8.192-.007 14.756-2.622 19.69-7.832 4.934-5.21 7.4-12.13 7.39-20.764l-.006-7.618c-.008-8.634-2.487-15.554-7.43-20.755-4.945-5.202-11.511-4.331-19.703-4.324l-35.5.032c-3.245.003-5.748-1.946-6.887-4.499-1.138-2.552-1.178-6.93-.009-9.428 1.17-2.5 3.325-4.402 6.878-4.405l54.866-.05c4.965.19 7.746-1.318 7.738-5.311l-.01-10.9c.166-4.785-4.817-7.035-7.705-7.013zm-127.46.136c-18.373.016-29.505 13.172-29.484 34.76l.034 34.987c.006 6.198.55 11.398 1.627 15.6 1.196 4.2 2.987 7.614 5.375 10.238 2.387 2.52 5.43 4.356 9.129 5.508 3.698 1.152 8.17 1.729 13.417 1.724l85.99-.077c2.682-.002 5.73-2.249 5.727-6.008l-.01-10.63c-.004-3.479-3.154-6.678-6.813-6.675l-72.393.065c-13.659.864-15.128-7.332-14.145-14.996l66.78-.06c21.214-.019 29.36-6.878 29.334-32.779-.022-23.43-9.864-31.733-29.34-31.716zm463.997-.395c-4.116.004-4.547 1.326-4.544 5.096l.085 87.82c.005 5.655 1.206 8.104 6.723 8.1l15.687-.015c5.171-.005 5.322-2.83 5.318-7.162l-.068-71.52 31.692-.029c8.51-.008 16.836 4.91 16.851 20.732l.048 49.831c.005 5.663 1.714 8.093 7.948 8.087l12.901-.011c5.731-.005 6.471-2.75 6.466-7.725l-.06-62.091c-.005-6.094-.543-11.137-1.621-15.129-1.078-4.096-2.81-7.3-5.198-9.609-2.268-2.414-5.311-4.094-9.128-5.036-3.698-.943-18.419-1.397-23.785-1.393zm-239.162.505c-8.207.007-21.071 7.281-21.056 22.926l.105 109.493c.004 4.35.294 7.85 6.703 7.845l15.355-.014c3.898-.004 5.495-1.45 5.489-7.596l-.029-29.763 38.106-.034c50.312 1.43 54.317-36.44 54.303-51.494-.033-34.676-23.13-51.43-50.105-51.406zm392.42 2.793h.015a42.547 42.547 0 0 1 16.915 3.526l-5.255 4.753s-8.198 8.441-12.123 12.838c-4.025 4.508-6.683 9.562-7.78 14.973a18.646 18.646 0 0 0-.317 4.945c.209 3.053.925 4.938 2.274 6.837 1.688 1.977 3.504 1.429 5.24.208 2.87-2.022 5.18-5.494 6.644-10.393 1.741-5.825 1.934-10.768 1.946-14.872-1.963.034-3.543 1.05-5.02 2.265-.27 6.07-2.477 11.773-5.497 15.839-.523.697-1.002 1.21-1.696 1.706-.368.304-.776.494-1.31.314-.574-.35-.973-.629-1.3-1.228-.17-.335-.38-1.15-.05-1.582 4.436-3.737 5.126-7.611 5.666-11.175.152-1.002.253-2.24 1.025-2.844 11.086-8.674 20.038-9.909 31.834-9.812l2.242-.077c7.178 8.547 11.086 19.244 11.118 30.658.025 25.914-19.883 46.942-44.469 46.964a42.266 42.266 0 0 1-8.006-.797c4.004-1.544 7.746-2.874 16.919-8.512 9.182-6.517 16.386-17.182 17.862-28.11 2.159-17.686-8.518-28.32-12.999-32.784 2.547 4.668 4.557 9.524 5.617 14.717 1.615 9.487-.105 17.904-7.423 24.522-7.147 5.611-14.105 7.407-21.01 8.077-8.55.255-17.284.357-31.147-3.858a49.05 49.05 0 0 1-4.377-20.14c.002-10.371 3.38-20.305 9.399-28.51 2.36 9.557 3.964 15.28 7.316 22.312 3.735 7.836 8.937 14.463 17.564 18.592 5.86 2.382 14.373 2.459 19.874-4.734 4.212-5.236 4.814-11.009 4.992-16.881.146-4.84-.744-9.76-1.817-14.403-.494-.628-1.478-.667-2.046-.586.524 7.625.924 16.324-2.753 23.745-1.628 2.778-2.663 4.576-4.881 6.066-3.281 2.205-7.616 2.651-11.502-.842-3.292-3.265-5.544-10.131-5.804-15.76-.34-7.363 1.248-14.867 3.37-21.925 1.451-4.83 3.688-9.57 6.309-13.664v-.085a42.25 42.25 0 0 1 4.443-.285zm-385.925 20.087 36.499-.033c18.864-.017 27.891 14.344 28.283 27.577.019 19.404-10.614 28.872-35.393 28.894l-29.34.026zm-222.004.22 50.433-.044c11.226-.796 12.894 15.072 4.849 18.079-1.312.317-2.923.473-4.831.475l-61.345.055-.007-7.348c-.6-6.876 3.982-11.604 10.901-11.217zm355.112 36.448 61.35-.055.007 7.348c.6 6.875-3.982 11.604-10.9 11.216l-50.439.046c-11.226.795-12.894-15.073-4.849-18.08 1.312-.316 2.923-.473 4.831-.475z" id="path1090"/><g transform="matrix(2.52237 -.00226 .00281 2.929 -652.203 1684.876)" id="g1284" style="fill:#fff;fill-opacity:1;stroke-width:1.77481878"><g id="g1282" style="font-style:normal;font-variant:normal;font-weight:700;font-stretch:normal;font-size:14.72839928px;line-height:8.1823597px;font-family:Unispace;-inkscape-font-specification:'Unispace, Bold';font-variant-ligatures:normal;font-variant-caps:normal;font-variant-numeric:normal;font-feature-settings:normal;text-align:center;letter-spacing:0;word-spacing:0;writing-mode:lr-tb;text-anchor:middle;opacity:1;fill:#fff;fill-opacity:1;stroke:none;stroke-width:.10667377px;stroke-linecap:butt;stroke-linejoin:miter;stroke-opacity:1" transform="matrix(4.81508 0 0 4.02453 -380.524 -557.019)" aria-label="deepin"><path style="font-style:normal;font-variant:normal;font-weight:700;font-stretch:normal;font-size:14.72839928px;font-family:Unispace;-inkscape-font-specification:'Unispace, Bold';font-variant-ligatures:normal;font-variant-caps:normal;font-variant-numeric:normal;font-feature-settings:normal;text-align:center;writing-mode:lr-tb;text-anchor:middle;fill:#fff;fill-opacity:1;stroke-width:.10667377px" d="M187.038 30.003c-.053 0-.095.05-.095.12v.787h-1.114c-.608-.045-1.092.471-1.085 1.216-.009.4.241 1.216 1.085 1.216h1.283c.27 0 .463-.183.463-.414v-2.804c0-.08-.032-.12-.116-.12zm6.253 0c-.052 0-.095.05-.095.12v.787h-1.114c-.608-.045-1.092.471-1.085 1.216-.009.4.241 1.216 1.085 1.216h1.283c.271 0 .463-.183.463-.414v-2.804c0-.08-.032-.12-.116-.12zm-9.524.002c-.058 0-.105.05-.105.113v.407c0 .063.047.114.105.114h.443c.058 0 .105-.05.105-.114v-.407c0-.063-.047-.113-.105-.113zm-.004.86c-.058 0-.105.051-.105.114v2.25c0 .063.047.113.105.113h.451c.058 0 .105-.05.105-.113v-2.25c0-.063-.047-.113-.105-.113zm-9.654.045c-.097 0-.107.032-.107.123v2.114c0 .137.028.195.157.195h.367c.12 0 .124-.068.124-.172v-1.722h.413c.18 0 .355.098.387.398v1.301c0 .137.028.195.157.195h.366c.122 0 .125-.068.125-.172v-1.722h.412c.2 0 .394.119.394.5v1.2c0 .136.04.194.185.194h.302c.134 0 .151-.066.151-.185V31.66c0-.146-.012-.268-.037-.364a.49.49 0 0 0-.122-.231.42.42 0 0 0-.213-.122c-.086-.023-.43-.034-.556-.034h-1.057a.164.164 0 0 0-.068.01 6.679 6.679 0 0 0-.323-.01zm4.01 0c-.135 0-.152.066-.152.186v1.495c0 .147.013.268.038.364a.49.49 0 0 0 .12.232.42.42 0 0 0 .214.121c.087.023.43.034.556.034h1.386c.096 0 .106-.031.106-.122v-2.115c0-.136-.027-.195-.156-.195h-.367c-.12 0-.124.068-.124.172v1.722h-.741c-.2 0-.393-.118-.393-.5v-1.199c0-.136-.04-.195-.186-.195zm2.8 0c-.096 0-.106.032-.106.123v2.114c0 .137.027.195.156.195h.367c.12 0 .124-.068.124-.172v-1.722h.741c.2 0 .393.119.393.5v1.2c0 .136.04.194.186.194h.302c.134 0 .15-.066.15-.185V31.66c0-.146-.012-.268-.037-.364a.49.49 0 0 0-.12-.231.42.42 0 0 0-.214-.122c-.087-.023-.43-.034-.556-.034zm-9.431 0c-.271 0-.49.261-.49.585v1.264c0 .324.219.585.49.585h1.6c.271 0 .49-.26.49-.585v-1.264c0-.324-.219-.585-.49-.585zm-2.816.008a.836.836 0 0 0-.278.04.426.426 0 0 0-.19.13.622.622 0 0 0-.11.241 1.71 1.71 0 0 0-.034.368v.86c0 .146.011.269.033.368.025.099.062.179.112.24.049.06.112.103.189.13.076.028.17.042.278.042h1.783c.055 0 .119-.053.119-.142v-.25c0-.082-.065-.157-.141-.157h-1.501c-.279.02-.313-.166-.294-.344v-.634c-.019-.177.015-.363.294-.344h1.5c.077 0 .142-.075.142-.157v-.25c0-.089-.063-.141-.12-.141zm19.716 0a.124.124 0 0 0-.12.13v.226c0 .075.066.143.142.143h1.29c.283-.018.314.291.293.455h-1.384c-.44 0-.61.24-.61.792 0 .5.205.679.608.679h1.353c.38 0 .612-.281.612-.743v-.747c0-.132-.011-.47-.034-.56a.544.544 0 0 0-.11-.22.43.43 0 0 0-.19-.117.915.915 0 0 0-.278-.037zm-1.93.516c.25 0 .485.01.485.01v1.353h-.7c-.095 0-.173-.006-.234-.019-.642-.005-.663-.506-.629-.707.001-.495.463-.63.654-.627.116-.009.273-.011.424-.01zm6.253 0c.251 0 .485.01.485.01v1.353h-.7c-.095 0-.172-.006-.234-.019-.642-.005-.663-.506-.629-.707.001-.495.463-.63.654-.627.117-.009.273-.011.424-.01zm-20.918.014h.99c.132 0 .238.125.238.28v.798c0 .155-.106.28-.238.28h-.99c-.132 0-.238-.125-.238-.28v-.797c0-.156.106-.28.238-.28zm16.928.91h1.272v.25c.013.146-.083.247-.226.239h-1.046c-.233.016-.267-.416-.1-.48a.42.42 0 0 1 .1-.01z" id="path1294"/></g></g></svg>