<svg xmlns="http://www.w3.org/2000/svg" xml:space="preserve" width="512" height="512" viewBox="0 0 458.87 458.87"><path fill="#cdcfd7" d="M451.99 36a11.5 11.5 0 0 0-15.16 5.92L395.55 136H63.31L22.03 41.91A11.5 11.5 0 0 0 .97 51.16l45.39 103.42v249.98a19.3 19.3 0 0 0 19.28 19.27h328.62a19.3 19.3 0 0 0 19.28-19.27V152.24L457.9 51.16A11.5 11.5 0 0 0 451.99 36zM195 159h66v149.54h-66V159zm195.54 241.83H69.36V159H172v161.04a11.5 11.5 0 0 0 11.5 11.5h89a11.5 11.5 0 0 0 11.5-11.5V159h106.54v241.83z"/></svg>