<?xml version="1.0" encoding="UTF-8" standalone="no"?><svg xmlns="http://www.w3.org/2000/svg" xml:space="preserve" width="512" height="512" viewBox="0 0 58 58"><path fill="#cdcfd7" stroke="#cdcfd7" stroke-width=".905" d="M48.604 46.375c4.108-4.629 6.61-10.714 6.61-17.375 0-6.93-2.708-13.236-7.116-17.929-.003-.006-.009-.008-.011-.012-4.592-4.88-11.024-8.005-18.179-8.25l-.511-.014c-.132-.004-.264-.009-.397-.009s-.265.005-.397.01l-.509.013c-7.155.245-13.588 3.37-18.179 8.25-.003.004-.009.006-.011.012l-.001.001C5.494 15.764 2.786 22.07 2.786 29c0 6.661 2.502 12.746 6.61 17.375.005.008.005.018.011.026.017.022.04.033.057.054 4.616 5.16 11.238 8.483 18.628 8.736l.001.001.51.014c.132.003.264.008.397.008s.265-.005.397-.01l.509-.013c7.4-.255 14.029-3.585 18.644-8.755.012-.016.031-.02.042-.036.007-.008.007-.017.012-.025zM4.616 29.904h10.85c.102 3.832.85 7.555 2.183 11.043a33.33 33.33 0 0 0-7.331 3.734 24.294 24.294 0 0 1-5.702-14.777Zm6.195-17.154a33.25 33.25 0 0 0 7.141 3.51 33.38 33.38 0 0 0-2.486 11.836H4.616a24.3 24.3 0 0 1 6.195-15.346Zm42.573 15.346h-10.85a33.38 33.38 0 0 0-2.486-11.837 33.25 33.25 0 0 0 7.14-3.509 24.3 24.3 0 0 1 6.196 15.346zM28.096 16.312a31.6 31.6 0 0 1-7.657-1.16 31.627 31.627 0 0 1 7.657-9.976zm0 1.807v9.977H17.274a31.57 31.57 0 0 1 2.41-11.276 33.399 33.399 0 0 0 8.412 1.3zm1.808 0a33.372 33.372 0 0 0 8.413-1.3 31.57 31.57 0 0 1 2.41 11.277H29.904zm0-1.807V5.176a31.627 31.627 0 0 1 7.657 9.976 31.6 31.6 0 0 1-7.657 1.16zm9.409-1.71a33.382 33.382 0 0 0-7.13-9.794 24.336 24.336 0 0 1 13.724 6.615 31.44 31.44 0 0 1-6.594 3.18zm-20.626 0a31.412 31.412 0 0 1-6.593-3.179 24.333 24.333 0 0 1 13.724-6.615 33.369 33.369 0 0 0-7.131 9.794Zm-1.413 15.302h10.822v9.074a33.34 33.34 0 0 0-8.733 1.393 31.57 31.57 0 0 1-2.089-10.467zm10.822 10.881v12.039a31.61 31.61 0 0 1-8.03-10.772 31.517 31.517 0 0 1 8.03-1.267zm1.808 12.039V40.785c2.747.077 5.439.503 8.03 1.266a31.605 31.605 0 0 1-8.03 10.773zm0-13.846v-9.074h10.822a31.557 31.557 0 0 1-2.09 10.467 33.29 33.29 0 0 0-8.732-1.393zm12.63-9.074h10.85a24.288 24.288 0 0 1-5.702 14.777 33.33 33.33 0 0 0-7.331-3.734 33.383 33.383 0 0 0 2.183-11.043zM11.546 46.036a31.503 31.503 0 0 1 6.795-3.418 33.355 33.355 0 0 0 7.476 10.574 24.354 24.354 0 0 1-14.271-7.156zm20.637 7.156a33.335 33.335 0 0 0 7.476-10.574 31.523 31.523 0 0 1 6.795 3.418 24.354 24.354 0 0 1-14.271 7.156z" class="active-path" data-old_color="#000000" data-original="#000000"/></svg>