<?xml version="1.0" encoding="UTF-8" standalone="no"?>
<svg
   xmlns:dc="http://purl.org/dc/elements/1.1/"
   xmlns:cc="http://creativecommons.org/ns#"
   xmlns:rdf="http://www.w3.org/1999/02/22-rdf-syntax-ns#"
   xmlns:svg="http://www.w3.org/2000/svg"
   xmlns="http://www.w3.org/2000/svg"
   xmlns:sodipodi="http://sodipodi.sourceforge.net/DTD/sodipodi-0.dtd"
   xmlns:inkscape="http://www.inkscape.org/namespaces/inkscape"
   id="Layer_1"
   height="512px"
   viewBox="0 0 128 128"
   width="512px"
   data-name="Layer 1"
   version="1.1"
   sodipodi:docname="music.svg"
   inkscape:version="0.92.4 (5da689c313, 2019-01-14)">
  <metadata
     id="metadata15">
    <rdf:RDF>
      <cc:Work
         rdf:about="">
        <dc:format>image/svg+xml</dc:format>
        <dc:type
           rdf:resource="http://purl.org/dc/dcmitype/StillImage" />
        <dc:title />
      </cc:Work>
    </rdf:RDF>
  </metadata>
  <defs
     id="defs13">
    <inkscape:path-effect
       effect="bspline"
       id="path-effect827"
       is_visible="true"
       weight="33.333333"
       steps="2"
       helper_size="0"
       apply_no_weight="true"
       apply_with_weight="true"
       only_selected="false" />
  </defs>
  <sodipodi:namedview
     pagecolor="#ffffff"
     bordercolor="#666666"
     borderopacity="1"
     objecttolerance="10"
     gridtolerance="10"
     guidetolerance="10"
     inkscape:pageopacity="0"
     inkscape:pageshadow="2"
     inkscape:window-width="1152"
     inkscape:window-height="764"
     id="namedview11"
     showgrid="false"
     inkscape:pagecheckerboard="true"
     inkscape:zoom="0.70710678"
     inkscape:cx="71.68249"
     inkscape:cy="258.88083"
     inkscape:window-x="0"
     inkscape:window-y="0"
     inkscape:window-maximized="1"
     inkscape:current-layer="g8" />
  <g
     id="g8"
     transform="matrix(1.0520548,0,0,1.0520548,-3.3315072,-3.3293326)">
    <path
       d="m 91.839,34.017 -38.61,6.041 A 1.749,1.749 0 0 0 51.75,41.787 V 78.795 A 15.4,15.4 0 0 0 40.4,73.953 c -8.186,0 -14.846,6.094 -14.846,13.583 0,7.489 6.665,13.584 14.846,13.584 8.181,0 14.85,-6.094 14.85,-13.584 V 60.067 L 90.359,54.573 V 72.878 A 15.4,15.4 0 0 0 79.013,68.036 c -8.186,0 -14.846,6.094 -14.846,13.584 0,7.49 6.661,13.58 14.847,13.58 8.186,0 14.845,-6.091 14.845,-13.58 V 35.745 A 1.749,1.749 0 0 0 91.838,34.016 Z M 40.4,97.62 c -6.256,0 -11.346,-4.523 -11.346,-10.084 0,-5.561 5.094,-10.083 11.346,-10.083 6.252,0 11.35,4.524 11.35,10.083 0,5.559 -5.09,10.084 -11.35,10.084 z M 79.014,91.7 c -6.256,0 -11.346,-4.523 -11.346,-10.083 0,-5.56 5.09,-10.084 11.346,-10.084 6.256,0 11.345,4.527 11.345,10.087 0,5.56 -5.089,10.08 -11.345,10.08 z M 55.25,56.525 V 43.283 L 90.359,37.79 v 13.241 z"
       data-original="#000000"
       class="active-path"
       data-old_color="#000000"
       id="path2"
       inkscape:connector-curvature="0"
       style="fill:#cdcfd7;fill-opacity:1;stroke-width:2.37630207;stroke-miterlimit:4;stroke-dasharray:none;stroke:#cdcfd7;stroke-opacity:1" />
    <path
       d="M 33.685,58.1 V 36.325 l 18.643,-4.506 a 1.751,1.751 0 0 0 1.339,-1.7 V 16.7 A 1.751,1.751 0 0 0 51.5,15 l -19.977,4.831 a 1.751,1.751 0 0 0 -1.339,1.7 V 50.26 A 12.734,12.734 0 0 0 21.466,46.89 C 14.73,46.891 9.25,51.919 9.25,58.1 c 0,6.181 5.48,11.208 12.217,11.208 6.737,0 12.218,-5.029 12.218,-11.208 z m 0,-35.189 16.481,-3.983 v 9.812 l -16.481,3.984 z m -12.218,42.9 c -4.807,0 -8.717,-3.458 -8.717,-7.708 0,-4.25 3.91,-7.709 8.717,-7.709 4.807,0 8.718,3.458 8.718,7.709 0,4.251 -3.912,7.705 -8.718,7.705 z"
       data-original="#000000"
       class="active-path"
       data-old_color="#000000"
       id="path4"
       inkscape:connector-curvature="0"
       style="fill:#cdcfd7;fill-opacity:1;stroke-width:2.37630207;stroke-miterlimit:4;stroke-dasharray:none;stroke:#cdcfd7;stroke-opacity:1" />
    <path
       d="m 117,67.953 a 1.75,1.75 0 0 0 -1.75,1.75 V 94 a 12.733,12.733 0 0 0 -8.717,-3.37 c -6.737,0 -12.218,5.028 -12.218,11.208 0,6.18 5.48,11.208 12.218,11.208 6.738,0 12.217,-5.028 12.217,-11.208 V 69.7 A 1.75,1.75 0 0 0 117,67.953 Z m -10.467,41.594 c -4.807,0 -8.718,-3.458 -8.718,-7.708 0,-4.25 3.911,-7.708 8.718,-7.708 4.807,0 8.717,3.458 8.717,7.708 0,4.25 -3.91,7.708 -8.717,7.708 z"
       data-original="#000000"
       class="active-path"
       data-old_color="#000000"
       id="path6"
       inkscape:connector-curvature="0"
       style="fill:#cdcfd7;fill-opacity:1;stroke-width:2.37630207;stroke-miterlimit:4;stroke-dasharray:none;stroke:#cdcfd7;stroke-opacity:1" />
  </g>
</svg>
