<?xml version="1.0" encoding="UTF-8" standalone="no"?>
<svg
   xmlns:dc="http://purl.org/dc/elements/1.1/"
   xmlns:cc="http://creativecommons.org/ns#"
   xmlns:rdf="http://www.w3.org/1999/02/22-rdf-syntax-ns#"
   xmlns:svg="http://www.w3.org/2000/svg"
   xmlns="http://www.w3.org/2000/svg"
   xmlns:sodipodi="http://sodipodi.sourceforge.net/DTD/sodipodi-0.dtd"
   xmlns:inkscape="http://www.inkscape.org/namespaces/inkscape"
   version="1.1"
   id="Capa_1"
   x="0px"
   y="0px"
   viewBox="0 0 464 464"
   style="enable-background:new 0 0 464 464;"
   xml:space="preserve"
   width="512px"
   height="512px"
   class=""
   sodipodi:docname="pamela.svg"
   inkscape:version="0.92.4 (5da689c313, 2019-01-14)"><metadata
   id="metadata11"><rdf:RDF><cc:Work
       rdf:about=""><dc:format>image/svg+xml</dc:format><dc:type
         rdf:resource="http://purl.org/dc/dcmitype/StillImage" /><dc:title></dc:title></cc:Work></rdf:RDF></metadata><defs
   id="defs9" /><sodipodi:namedview
   pagecolor="#ffffff"
   bordercolor="#666666"
   borderopacity="1"
   objecttolerance="10"
   gridtolerance="10"
   guidetolerance="10"
   inkscape:pageopacity="0"
   inkscape:pageshadow="2"
   inkscape:window-width="1152"
   inkscape:window-height="763"
   id="namedview7"
   showgrid="false"
   inkscape:pagecheckerboard="true"
   inkscape:zoom="0.4609375"
   inkscape:cx="267.77207"
   inkscape:cy="281.48719"
   inkscape:window-x="0"
   inkscape:window-y="0"
   inkscape:window-maximized="1"
   inkscape:current-layer="Capa_1" /><g
   id="g4"
   transform="matrix(0.91934,0,0,0.91934,18.71312,18.71312)"
   style="fill:#cdcfd7;fill-opacity:1;stroke:#cdcfd7;stroke-width:9.85556507;stroke-miterlimit:4;stroke-dasharray:none;stroke-opacity:1"><path
     d="m 409.682,252.897 c -7.91,-3.558 -15.42,-6.94 -22.051,-10.227 -13.599,-8.584 -18.814,-24.91 -21.822,-38.41 -0.188,-0.847 -0.509,-1.63 -0.929,-2.338 C 349.263,148.931 294.776,112 232,112 c -62.519,0 -117.139,36.895 -132.828,89.722 -0.019,0.064 -0.029,0.128 -0.047,0.192 -0.059,0.099 -0.113,0.201 -0.168,0.303 -0.068,0.127 -0.134,0.254 -0.196,0.385 -0.05,0.107 -0.095,0.216 -0.141,0.326 -0.057,0.136 -0.111,0.273 -0.161,0.413 -0.04,0.114 -0.075,0.229 -0.11,0.346 -0.042,0.141 -0.083,0.282 -0.118,0.427 -0.012,0.049 -0.029,0.096 -0.04,0.146 -3.162,14.194 -8.745,31.532 -23.969,39.688 -0.462,0.247 -0.887,0.536 -1.279,0.855 -5.552,2.609 -11.602,5.286 -17.929,8.084 C 20.905,267.97 0,277.928 0,292 0,310.509 24.157,325.502 71.799,336.563 114.683,346.518 171.577,352 232,352 292.424,352 349.317,346.518 392.201,336.563 439.844,325.502 464,310.509 464,292 c 0,-13.957 -20.641,-23.951 -54.318,-39.103 z m -21.099,68.08 C 346.851,330.665 291.241,336 232,336 172.758,336 117.149,330.665 75.417,320.977 29.627,310.348 16.614,298.23 16.021,292.414 c 0.514,-0.883 2.998,-4.093 14.066,-10.109 8.869,-4.821 20.322,-9.886 31.398,-14.783 6.655,-2.943 13.49,-5.968 19.679,-8.907 C 122.78,267.248 176.254,272 232,272 c 25.589,0 50.704,-0.986 74.647,-2.931 4.404,-0.357 7.684,-4.217 7.326,-8.621 -0.357,-4.403 -4.217,-7.69 -8.621,-7.326 C 281.838,255.032 257.158,256 232,256 c -49.066,0 -96.225,-3.73 -134.706,-10.577 7.643,-9.098 11.931,-20.088 14.731,-30.418 C 147.99,220.241 189.282,223 232,223 c 12.167,0 24.38,-0.227 36.3,-0.673 4.415,-0.166 7.86,-3.879 7.694,-8.294 -0.165,-4.416 -3.907,-7.86 -8.294,-7.694 C 255.979,206.777 243.968,207 232,207 191.019,207 151.45,204.417 116.827,199.521 133.041,157.079 179.269,128 232,128 c 27.834,0 54.012,7.88 75.703,22.788 18.375,12.629 32.158,29.723 39.475,48.738 -15.308,2.163 -31.667,3.887 -48.758,5.129 -4.406,0.32 -7.719,4.152 -7.398,8.559 0.306,4.209 3.815,7.421 7.97,7.421 0.195,0 0.392,-0.007 0.589,-0.021 18.404,-1.337 35.993,-3.227 52.393,-5.614 2.8,10.332 7.088,21.324 14.732,30.424 -9.665,1.719 -19.926,3.255 -30.685,4.583 -4.386,0.542 -7.501,4.535 -6.96,8.92 0.5,4.052 3.948,7.021 7.93,7.021 0.326,0 0.657,-0.02 0.989,-0.061 16.294,-2.011 31.508,-4.491 45.301,-7.368 0.296,0.107 0.594,0.199 0.896,0.269 6.016,2.887 12.557,5.831 18.941,8.702 10.96,4.931 22.293,10.03 31.033,14.853 10.885,6.007 13.324,9.193 13.828,10.067 -0.586,5.814 -13.595,17.934 -59.396,28.567 z"
     data-original="#000000"
     class="active-path"
     data-old_color="#000000"
     id="path2"
     inkscape:connector-curvature="0"
     style="fill:#cdcfd7;fill-opacity:1;stroke:#cdcfd7;stroke-width:9.85556507;stroke-miterlimit:4;stroke-dasharray:none;stroke-opacity:1" /></g> </svg>