<?xml version="1.0" encoding="UTF-8" standalone="no"?>
<svg xmlns="http://www.w3.org/2000/svg" xmlns:xlink="http://www.w3.org/1999/xlink" viewBox="0 0 300 300">
  <defs>
    <linearGradient id="l">
      <stop offset="0" stop-color="#632a1c"/>
      <stop offset="1" stop-color="#431c13" stop-opacity=".99"/>
    </linearGradient>
    <linearGradient xlink:href="#a" id="N" x1="1464.594" x2="1490.174" y1="1085.524" y2="1099.842" gradientTransform="translate(-1148.637 -995.241) scale(.95573)" gradientUnits="userSpaceOnUse"/>
    <linearGradient id="a">
      <stop offset="0" stop-color="#bd373e"/>
      <stop offset="1" stop-color="#9a2d32"/>
    </linearGradient>
    <linearGradient xlink:href="#b" id="M" x1="1468.132" x2="1479.833" y1="1074.829" y2="1109.528" gradientTransform="translate(-1148.637 -995.241) scale(.95573)" gradientUnits="userSpaceOnUse"/>
    <linearGradient id="b">
      <stop offset="0" stop-color="#f28a8a"/>
      <stop offset="1" stop-color="#ee6e6e"/>
    </linearGradient>
    <linearGradient xlink:href="#b" id="L" x1="1445.779" x2="1459.892" y1="1136.47" y2="1159.093" gradientTransform="translate(-1148.637 -995.241) scale(.95573)" gradientUnits="userSpaceOnUse"/>
    <linearGradient xlink:href="#a" id="K" x1="1441.33" x2="1465.783" y1="1143.542" y2="1164.048" gradientTransform="translate(-1148.637 -995.241) scale(.95573)" gradientUnits="userSpaceOnUse"/>
    <linearGradient id="h">
      <stop offset="0" stop-color="#c2dcf2"/>
      <stop offset="1" stop-color="#deecf8"/>
    </linearGradient>
    <linearGradient xlink:href="#c" id="J" x1="928.61" x2="934.849" y1="1371.003" y2="1408.166" gradientTransform="translate(-719.876 -1041.774) scale(.95573)" gradientUnits="userSpaceOnUse"/>
    <linearGradient id="c">
      <stop offset="0" stop-color="#2c84d0"/>
      <stop offset="1" stop-color="#2662a6"/>
    </linearGradient>
    <linearGradient id="m">
      <stop offset="0" stop-color="#549ddb"/>
      <stop offset="1" stop-color="#2d83ce"/>
    </linearGradient>
    <linearGradient xlink:href="#d" id="C" x1="1014.521" x2="1043.338" y1="1401.751" y2="1430.258" gradientUnits="userSpaceOnUse"/>
    <linearGradient id="d">
      <stop offset="0" stop-color="#7b5946"/>
      <stop offset="1" stop-color="#5a4133"/>
    </linearGradient>
    <linearGradient xlink:href="#e" id="D" x1="1014.521" x2="1043.338" y1="1401.751" y2="1430.258" gradientUnits="userSpaceOnUse"/>
    <linearGradient id="e">
      <stop offset="0" stop-color="#b5a993"/>
      <stop offset="1" stop-color="#9e8f72"/>
    </linearGradient>
    <linearGradient xlink:href="#d" id="E" x1="1029.066" x2="1073.512" y1="1369.032" y2="1395.311" gradientUnits="userSpaceOnUse"/>
    <linearGradient xlink:href="#e" id="F" x1="1029.066" x2="1073.512" y1="1369.339" y2="1395.311" gradientUnits="userSpaceOnUse"/>
    <linearGradient xlink:href="#d" id="G" x1="1049.596" x2="1085.885" y1="1310.956" y2="1367.483" gradientUnits="userSpaceOnUse"/>
    <linearGradient xlink:href="#e" id="H" x1="1001.363" x2="1009.692" y1="1424.581" y2="1445.432" gradientUnits="userSpaceOnUse"/>
    <linearGradient xlink:href="#d" id="r" x1="488.581" x2="593.064" y1="-425.037" y2="-362.652" gradientUnits="userSpaceOnUse"/>
    <linearGradient xlink:href="#d" id="s" x1="941.294" x2="947.105" y1="-437.765" y2="-316.982" gradientUnits="userSpaceOnUse"/>
    <linearGradient xlink:href="#e" id="t" x1="792.375" x2="935.956" y1="1218.378" y2="1263.456" gradientUnits="userSpaceOnUse"/>
    <linearGradient id="i">
      <stop offset="0" stop-color="#fff"/>
      <stop offset="1" stop-color="#f4f3f1"/>
    </linearGradient>
    <linearGradient id="j">
      <stop offset="0" stop-color="#765b45"/>
      <stop offset="1" stop-color="#614a38"/>
    </linearGradient>
    <linearGradient xlink:href="#f" id="y" x1="371.643" x2="368.346" y1="-63.802" y2="112.877" gradientUnits="userSpaceOnUse"/>
    <linearGradient id="f">
      <stop offset="0" stop-color="#86614c"/>
      <stop offset="1" stop-color="#654939"/>
    </linearGradient>
    <linearGradient xlink:href="#f" id="z" x1="504.075" x2="507.371" y1="-63.802" y2="112.877" gradientUnits="userSpaceOnUse"/>
    <linearGradient id="k">
      <stop offset="0" stop-color="#f08881"/>
      <stop offset="1" stop-color="#eb6258"/>
    </linearGradient>
    <linearGradient xlink:href="#g" id="B" x1="882.73" x2="885.542" y1="1242.055" y2="1249.293" gradientUnits="userSpaceOnUse"/>
    <linearGradient id="g">
      <stop offset="0" stop-color="#9e3135"/>
      <stop offset="1" stop-color="#491719"/>
    </linearGradient>
    <linearGradient xlink:href="#d" id="q" x1="636.826" x2="647.251" y1="1316.917" y2="1316.917" gradientUnits="userSpaceOnUse"/>
    <linearGradient xlink:href="#d" id="p" x1="444.731" x2="467.608" y1="1384.872" y2="1384.872" gradientUnits="userSpaceOnUse"/>
    <linearGradient xlink:href="#e" id="o" x1="601.839" x2="642.747" y1="1347.649" y2="1347.649" gradientUnits="userSpaceOnUse"/>
    <linearGradient xlink:href="#e" id="n" x1="458.531" x2="527.724" y1="1399.018" y2="1399.018" gradientUnits="userSpaceOnUse"/>
    <radialGradient xlink:href="#h" id="T" cx="913.145" cy="1336.553" r="34.297" fx="913.145" fy="1336.553" gradientTransform="matrix(1.59282 -.30908 .27512 1.4178 -909.04 -276.174)" gradientUnits="userSpaceOnUse"/>
    <radialGradient xlink:href="#h" id="U" cx="913.145" cy="1336.553" r="34.297" fx="913.145" fy="1336.553" gradientTransform="matrix(1.59282 -.30908 .27512 1.4178 -909.04 -276.174)" gradientUnits="userSpaceOnUse"/>
    <radialGradient xlink:href="#h" id="R" cx="913.145" cy="1336.553" r="34.297" fx="913.145" fy="1336.553" gradientTransform="matrix(1.59282 -.30908 .27512 1.4178 -909.04 -276.174)" gradientUnits="userSpaceOnUse"/>
    <radialGradient xlink:href="#h" id="S" cx="913.145" cy="1336.553" r="34.297" fx="913.145" fy="1336.553" gradientTransform="matrix(1.59282 -.30908 .27512 1.4178 -909.04 -276.174)" gradientUnits="userSpaceOnUse"/>
    <radialGradient xlink:href="#i" id="u" cx="882.779" cy="1241.332" r="93.371" fx="882.779" fy="1241.332" gradientTransform="matrix(.93136 -.3641 .2452 .62721 -243.775 784.874)" gradientUnits="userSpaceOnUse"/>
    <radialGradient xlink:href="#j" id="v" cx="744.239" cy="-558.89" r="37.5" fx="744.239" fy="-558.89" gradientTransform="matrix(1 0 0 .33467 0 -371.848)" gradientUnits="userSpaceOnUse"/>
    <radialGradient xlink:href="#j" id="w" cx="744.239" cy="-558.89" r="37.5" fx="744.239" fy="-558.89" gradientTransform="matrix(1 0 0 .33467 0 -371.848)" gradientUnits="userSpaceOnUse"/>
    <radialGradient xlink:href="#j" id="x" cx="744.239" cy="-558.89" r="37.5" fx="744.239" fy="-558.89" gradientTransform="matrix(1 0 0 .33467 0 -371.848)" gradientUnits="userSpaceOnUse"/>
    <radialGradient xlink:href="#k" id="A" cx="884.307" cy="1244.712" r="7.367" fx="884.307" fy="1244.712" gradientTransform="matrix(.76992 -.2929 .06807 .17892 118.739 1282.498)" gradientUnits="userSpaceOnUse"/>
    <radialGradient xlink:href="#l" id="O" cx="878.556" cy="1227.617" r="8.263" fx="878.556" fy="1227.617" gradientTransform="matrix(.95759 -.28814 .18213 .60527 -187.19 739.64)" gradientUnits="userSpaceOnUse"/>
    <radialGradient xlink:href="#c" id="P" cx="957.934" cy="1320.723" r="64.224" fx="957.934" fy="1320.723" gradientTransform="matrix(-.26655 .23257 -.09014 -.1033 565.544 101.072)" gradientUnits="userSpaceOnUse"/>
    <radialGradient xlink:href="#m" id="I" cx="909.847" cy="1327.109" r="64.224" fx="909.847" fy="1327.109" gradientTransform="matrix(.9149 -.27635 .40179 1.33018 -1218.483 -1289.19)" gradientUnits="userSpaceOnUse"/>
    <radialGradient xlink:href="#c" id="Q" cx="864.947" cy="1311.625" r="64.224" fx="864.947" fy="1311.625" gradientTransform="matrix(1.1332 .7289 -.64598 1.00428 -30.64 -1728.799)" gradientUnits="userSpaceOnUse"/>
  </defs>
  <circle cx="156.64" cy="150.049" r="143.36" fill="#fef9cf" fill-rule="evenodd" paint-order="markers fill stroke"/>
  <path fill="#1d4c82" d="M92.595 225.572c.233-.732.342-1.382.276-2.98-.072-1.761-.3-4.59-.503-6.59-.204-2-.386-3.196-.725-4.258a6.525 6.525 0 0 0-.683-1.516c-.212-.34-.553-.675-.88-1.012-.265.517-.385 1.184-.4 2.302-.031 2.26.347 6.323.795 8.971.448 2.648.965 3.88 1.508 4.601.176.234.4.344.612.482zm100.143-54.262c0 .644.035 1.164.43 2.212.457 1.213 1.293 3.083 2.359 5.124a75.819 75.819 0 0 0 3.386 5.83c.902 1.385 1.64 2.213 2.56 3.068.202-.543.404-1.079.335-1.93-.18-2.22-1.44-5.803-2.92-8.363a18.063 18.063 0 0 0-4.319-5.047c-.562-.458-.979-.752-1.418-.896-.117-.038-.29.02-.413 0z"/>
  <path fill="url(#n)" d="M519.595 1409.218c-3.406.844-6.906 1.094-10.365.938-3.46-.156-6.875-.718-10.053-1.406-3.177-.688-6.114-1.5-9.692-2.547-3.577-1.047-7.793-2.327-11.7-3.955-3.906-1.628-7.5-3.601-10.358-5.28-2.858-1.68-4.979-3.065-6.612-4.8-1.634-1.734-2.778-3.818-2.071-4.245.707-.427 3.266.803 5.106 1.712 1.839.91 2.959 1.499 4.34 2.24 1.382.742 3.097 1.675 5.542 2.662 2.445.986 5.658 2.047 8.678 2.736 3.02.69 5.966 1.02 8.912.961a40.879 40.879 0 0 0 8.168-1.025c2.215-.523 3.642-1.129 7.177-2.655 3.534-1.527 9.187-3.98 12.74-5.058 3.552-1.08 5.01-.788 6.364 2.106 1.353 2.894 2.604 8.397 1.573 11.866-1.03 3.47-4.343 4.906-7.75 5.75z" transform="translate(-392.12 -1124.546) scale(.95573)"/>
  <path fill="url(#o)" d="M605.652 1361.774c4.612-2.46 13.834-7.381 19.52-11.874 5.685-4.493 7.836-8.56 10.208-13.641 2.371-5.082 4.965-11.182 6.246-13.156 1.281-1.974 1.252.177.943 2.254-.31 2.078-.899 4.08-1.78 7.235-.88 3.155-2.065 7.51-3.877 11.916-1.812 4.405-4.257 8.883-6.688 12.905-2.43 4.022-4.846 7.586-7.366 10.621-2.519 3.035-5.14 5.539-8.795 4.817-3.655-.722-8.338-4.669-10.68-6.643-2.342-1.974-2.342-1.974 2.27-4.434z" transform="translate(-392.12 -1124.546) scale(.95573)"/>
  <path fill="url(#p)" d="M450.317 1380.019c1.289.965 2.997 2.335 4.817 3.388a21.747 21.747 0 0 0 5.65 2.261c1.9.472 3.771.678 4.957 1.01 1.185.33 1.686.788 1.826 1.31.14.522-.08 1.112-.722 1.842s-1.7 1.597-2.776 2.26c-1.076.664-2.165 1.12-4.126.7-1.961-.42-4.787-1.715-7.431-3.247-2.645-1.533-5.105-3.3-6.416-5.208-1.312-1.908-1.473-3.927-1.314-5.314.159-1.386.652-2.149 1.122-2.222.471-.074.928.531 1.592 1.113.663.582 1.532 1.142 2.82 2.107z" transform="rotate(2.765 23566.4696656 -7370.5324162) scale(.95573)"/>
  <path fill="url(#q)" d="M645.031 1320.926c.511-1.719 1.49-4.635 1.938-7.229.448-2.593.364-4.865-.26-6.395-.625-1.53-1.792-2.323-2.813-2.74-1.02-.416-1.895-.458-2.312.386-.417.844-.376 2.572-.376 4.906 0 2.334-.041 5.27-.364 7.614-.323 2.344-.927 4.093-1.687 5.698-.761 1.605-1.677 3.062-2.084 4.094-.406 1.031-.302 1.635.25 2.012.554.377 1.511.52 2.766-.442 1.255-.962 2.808-3.06 3.599-4.362.791-1.302.833-1.823 1.343-3.542z" transform="matrix(.9331 .20673 -.20673 .9331 -103.681 -1227.463)"/>
  <path fill="#1d4c82" d="M115.593 192.982c1.394.29 2.794.576 4.35.732 1.972.197 4.104.26 6.409.111a42.799 42.799 0 0 0 7.442-1.16c2.66-.652 5.52-1.6 8.229-2.63a101.282 101.282 0 0 0 7.328-3.125c2.06-.981 3.63-1.832 4.95-2.72a19.877 19.877 0 0 0 3.461-2.942c1.067-1.127 2.129-2.456 3.187-3.888.093-.127.186-.27.28-.398-.555.14-.904.159-1.522.334-5.156 1.466-12.647 4.225-20.165 6.76-7.518 2.534-15.066 4.844-20.246 7.054-1.528.651-2.53 1.251-3.703 1.872z"/>
  <g transform="matrix(.95514 .03363 -.03363 .95514 -674.94 -1067.803)">
    <rect width="45.881" height="33.734" x="388.463" y="1494.727" fill="#b6aa94" fill-rule="evenodd" paint-order="markers fill stroke" rx="6.728" ry="6.371" transform="rotate(-19.758)"/>
    <path fill="#fff" d="m803.779 1207.735-2.377-.62-7.02-1.596c-22.542-5.125-35.345-5.884-36.295-2.154-.39 1.53 1.41 6.27 4.183 11.015 2.798 4.787 10.87 16.26 16.622 23.62l4.618 5.909 1.19 1.324c.146-.467.233-.752.39-1.248.677-2.148 1.449-4.522 2.252-6.759a95.87 95.87 0 0 1 2.55-6.402 96.137 96.137 0 0 1 3.033-6.23 125.121 125.121 0 0 1 3.713-6.507 118.836 118.836 0 0 1 4.164-6.371c1.007-1.434 1.993-2.7 2.977-3.981z"/>
    <path fill="url(#r)" d="M508.003-439.197v.002c-.718 0-1.42.016-2.1.058-9.067.57-14.717 5.235-17.322 14.1-4.499 15.316-.13 50.181 11.622 92.742 3.72 13.473 13.582 44.853 14.693 46.75.92 1.571 1.95.524 6.094-6.193l4.273-6.926-5.076-16.316c-6.322-20.325-14.277-51.284-16.379-63.743-2.083-12.347-2.097-23.902-.033-26.85 5.031-7.182 31.705 4.76 75.617 33.858l13.672 9.063 7.828-4.487c4.305-2.467 10.414-5.742 13.576-7.279 3.163-1.536 5.75-3.376 5.75-4.088 0-2.282-28.438-22.398-51-36.074-12.925-7.835-34.213-18.269-43.22-21.184-6.984-2.26-12.964-3.41-17.994-3.433z" transform="matrix(.41046 -.1553 .1553 .41046 614.292 1448.069)"/>
    <path fill="#fff" d="m915.126 1164.668 1.371-2.038 4.205-5.843c13.505-18.762 22.599-27.807 25.78-25.64 1.304.89 3.093 5.635 4.156 11.026 1.071 5.44 2.614 19.383 3.175 28.707l.45 7.486-.015 1.78c-.42-.253-.673-.409-1.119-.678-1.929-1.161-4.08-2.43-6.162-3.575a95.87 95.87 0 0 0-6.148-3.11 96.137 96.137 0 0 0-6.397-2.662 125.121 125.121 0 0 0-7.091-2.42 118.836 118.836 0 0 0-7.339-2.02c-1.704-.408-3.28-.704-4.866-1.013z"/>
    <path fill="url(#s)" d="M959.289-441.199v.002c.718 0 1.42.017 2.1.059 9.067.57 14.717 5.235 17.322 14.1 4.499 15.315.13 50.18-11.622 92.742-3.72 13.472-13.582 44.852-14.693 46.75-.92 1.57-1.95.524-6.094-6.194l-4.273-6.926 5.076-16.316c6.322-20.325 14.277-51.284 16.379-63.742 2.083-12.348 2.097-23.903.033-26.85-5.031-7.182-31.705 4.76-75.617 33.858l-13.672 9.062-7.828-4.486c-4.305-2.467-10.414-5.743-13.576-7.28-3.163-1.536-5.75-3.376-5.75-4.087 0-2.283 28.438-22.399 51-36.074 12.925-7.836 34.213-18.27 43.22-21.184 6.984-2.26 12.964-3.41 17.994-3.434z" transform="matrix(.41046 -.1553 .1553 .41046 614.292 1448.069)"/>
    <path fill="url(#t)" d="M852.665 1167.196a124.56 124.56 0 0 0-4.106 1.796c-4.828 2.201-11.861 5.612-18.745 9.982a104.257 104.257 0 0 0-20.177 16.64c-6.558 6.943-12.94 15.5-17.262 22.764-4.322 7.265-6.585 13.24-8.386 18.628-1.8 5.387-3.14 10.189-3.97 14.121-.832 3.933-1.156 7-1.188 10.245-.03 3.246.231 6.665.776 9.79.545 3.123 1.372 5.94 2.485 8.461 1.113 2.521 2.515 4.753 4.014 6.694a30.36 30.36 0 0 0 5.176 5.269c2.075 1.669 4.623 3.348 7.246 4.558s5.32 1.951 8.004 2.472c2.684.52 5.353.82 8.097.98 2.743.16 5.56.18 8.232.078a83.902 83.902 0 0 0 7.827-.675c2.63-.345 5.363-.81 7.687-1.245 2.324-.435 4.238-.841 7.594-1.658 3.356-.816 8.152-2.042 11.06-2.778 2.91-.736 3.926-.98 4.624-1.127.697-.146 69.472-26.168 70.092-26.52.62-.35 1.544-.841 4.211-2.215 2.668-1.374 7.074-3.63 10.13-5.24 3.055-1.608 4.76-2.57 6.79-3.783a146.99 146.99 0 0 0 6.585-4.155 83.964 83.964 0 0 0 6.313-4.675 86.19 86.19 0 0 0 6.12-5.508c1.95-1.936 3.752-3.928 5.42-6.094 1.667-2.166 3.198-4.508 4.363-7.151 1.165-2.644 1.963-5.589 2.414-8.213a30.36 30.36 0 0 0 .392-7.375c-.161-2.448-.587-5.049-1.422-7.675-.835-2.627-2.079-5.285-3.739-7.988-1.66-2.702-3.727-5.438-5.899-7.85s-4.444-4.496-7.67-6.894c-3.227-2.397-7.409-5.11-12.324-7.956-4.916-2.847-10.568-5.827-18.616-8.412-8.049-2.585-18.496-4.774-28.007-5.636a104.27 104.27 0 0 0-26.14.883c-8.052 1.281-15.581 3.38-20.657 4.925-1.67.509-3.056.955-4.268 1.373-.145.048-2.935 1.103-3.075 1.163z"/>
    <path fill="url(#u)" d="M837.477 1194.832c-.34.13-.681.265-1.024.404-8.224 3.37-17.12 9.757-24.775 17.978-6.863 7.369-10.341 12.778-14.866 23.117-7.432 16.984-8.793 29.724-4.446 41.617 5.3 14.497 14.366 18.703 33.693 15.63a72.194 72.194 0 0 0 4.575-.908v.01l.035-.013c9.107-2.075 22.115-6.365 32.366-10.703 1.48-.427 2.925-.839 3.968-1.113 2.356-.62 2.735-.565 3.592-.26.857.305 2.195.86 3.736 2.038 1.54 1.178 3.273 2.966 4.724 7.292s2.614 11.183 3.305 18.47c.691 7.287.911 15.002 1.791 21.192.88 6.191 2.42 10.856 3.802 14.063 1.382 3.208 2.607 4.956 4.097 6.343 1.49 1.386 3.245 2.408 5.49 3.04 2.244.632 4.978.872 8.618.657 3.64-.215 8.185-.885 11.579-1.476 2.259-.393 9.741-3.224 11.695-4.425 2.936-1.804 6.786-4.31 9.656-6.558 2.87-2.248 4.76-4.238 6.025-6.197 1.265-1.96 1.903-3.888 2.103-5.913.199-2.025-.041-4.147-1.129-7.466-1.087-3.319-3.02-7.835-6.458-13.057-3.439-5.223-8.38-11.151-12.686-17.07-4.305-5.92-7.973-11.83-9.749-16.033-1.776-4.203-1.66-6.69-1.285-8.593a13.4 13.4 0 0 1 1.451-4c.44-.796.688-1.088 2.865-2.184.97-.487 2.335-1.14 3.736-1.803 12.501-4.187 27.859-10.977 35.38-15.754 16.522-10.49 20.534-19.644 14.91-34.019-4.614-11.791-14.067-20.44-30.88-28.25-10.236-4.755-16.422-6.508-26.445-7.489-11.18-1.094-22.076.01-30.47 2.925-2.798.973-5.319 2.148-7.478 3.51-6.714 4.2-8.433 13.111-7.016 22.867 1.017 7.001 3.884 13.874 6.588 22.375l-4.515 1.709c-3.21-7.865-6.21-15.327-9.872-21.134-5.508-8.734-12.09-13.925-19.78-12.727-2.207.357-4.524 1.005-6.905 1.913z"/>
    <rect width="3.366" height="12.516" x="384.427" y="1465.956" fill="#431d12" fill-rule="evenodd" paint-order="markers fill stroke" rx="2.879" ry="1.864" transform="rotate(-20.724)"/>
    <g fill="url(#v)" fill-rule="evenodd" paint-order="markers fill stroke" transform="matrix(.41046 -.1553 .1553 .41046 639.479 1522.06)">
      <ellipse cx="719.239" cy="-558.89" fill="url(#w)" rx="12.5" ry="12.55"/>
      <ellipse cx="769.239" cy="-558.89" fill="url(#x)" rx="12.5" ry="12.55"/>
    </g>
    <path fill="url(#y)" d="M371.643-63.802c5.915-.157 11.455.247 16.453 1.246 23.775 4.75 36.37 25.5 34.656 57.086-.682 12.57-2.632 22.406-4.888 24.662-.794.794-6.129 2.778-11.856 4.408-15.767 4.487-27.512 10.649-35.715 18.738-4.241 4.184-7.933 8.99-9.76 12.711-2.58 5.256-2.929 7.018-2.863 14.485.06 6.752.606 9.771 2.655 14.685 2.963 7.11 8.053 15.08 13.787 21.594 2.191 2.49 3.984 4.952 3.984 5.473 0 .52-4.387 1.236-9.75 1.591-27.137 1.797-66.29.008-85.63-3.912-38.281-7.758-52.246-21.731-51.899-51.931.285-24.773 11.832-47.145 37.723-73.08 15.76-15.788 26.08-23.278 44.11-32.012 20.115-9.744 41.248-15.273 58.993-15.744z" transform="matrix(.41046 -.1553 .1553 .41046 694.33 1287.075)"/>
    <path fill="url(#z)" d="M504.075-63.802c-5.915-.157-11.455.247-16.453 1.246-23.775 4.75-36.37 25.5-34.657 57.086.682 12.57 2.633 22.406 4.889 24.662.794.794 6.128 2.778 11.855 4.408 15.768 4.487 27.512 10.649 35.715 18.738 4.242 4.184 7.933 8.99 9.76 12.711 2.58 5.256 2.93 7.018 2.863 14.485-.06 6.752-.606 9.771-2.654 14.685-2.964 7.11-8.053 15.08-13.787 21.594-2.192 2.49-3.985 4.952-3.985 5.473 0 .52 4.388 1.236 9.75 1.591 27.137 1.797 66.29.008 85.631-3.912 38.28-7.758 52.246-21.731 51.899-51.931-.285-24.773-11.832-47.145-37.723-73.08-15.76-15.788-26.08-23.278-44.111-32.012-20.114-9.744-41.248-15.273-58.992-15.744z" transform="matrix(.41046 -.1553 .1553 .41046 694.33 1287.075)"/>
    <path fill="url(#A)" d="M877.518 1250.404c.204-.497.438-.99.782-1.474.398-.558.903-1.107 1.44-1.609a14.468 14.468 0 0 1 1.642-1.319c.498-.341 1.566-.807 2.629-1.201 1.063-.395 2.121-.72 2.602-.778.64-.078 1.368-.117 2.103-.098.735.02 1.477.097 2.145.252.515.12.954.32 1.391.523-.575 1.688-1.365 3.305-2.386 4.488a9.256 9.256 0 0 1-1.99 1.724c-.309.288-2.688 1.188-3.11 1.177a9.085 9.085 0 0 1-2.633.02c-1.501-.205-3.106-.868-4.615-1.71z"/>
    <path fill="url(#B)" d="M893.212 1237.106c.058-.013.07.028.091.11.045.162.133.487.07 1.656-.063 1.168-.276 3.18-.846 5.13-.071.241-.194.46-.275.7-.437-.204-.876-.404-1.391-.524a10.92 10.92 0 0 0-2.145-.252c-.735-.02-1.463.017-2.104.097-.48.06-1.538.383-2.602.777-1.063.395-2.13.86-2.629 1.202-.532.365-1.103.818-1.64 1.32a10.953 10.953 0 0 0-1.44 1.608c-.346.484-.58.977-.783 1.474-.268-.15-.555-.253-.814-.416-1.717-1.085-3.21-2.45-4.03-3.285-.82-.834-.969-1.137-1.043-1.288-.074-.151-.075-.151.413-.23.487-.078 1.462-.234 3.282-.784 1.82-.549 4.486-1.492 6.436-2.011.368-.097 1.605-.566 1.944-.735 1.806-.902 4.429-1.961 6.156-2.754 1.728-.792 2.562-1.32 2.98-1.584.208-.132.312-.198.37-.21z"/>
    <path fill="#431c13" stroke="#431c13" stroke-linecap="round" stroke-width="4.3885" d="M834.831 1242.473c.277-.855.553-1.71 3.32-6.877 2.765-5.168 8.026-14.661 13.284-24.148"/>
    <path fill="none" stroke="#431c13" stroke-linecap="round" stroke-width="4.3885" d="m821.579 1224.093 34.046 5.564m63.492-19.073c-.773-.458-1.546-.915-7.04-2.958-5.493-2.043-15.721-5.676-25.942-9.307m30.749-10.284-21.836 26.707"/>
  </g>
  <path fill="url(#C)" d="M1043.338 1430.259c-.38-1.437-.664-2.904-1.162-4.303a49.358 49.358 0 0 0-3.615-7.863 45.729 45.729 0 0 0-4.659-6.729 31.663 31.663 0 0 0-2.597-2.762 24.122 24.122 0 0 0-2.862-2.308 22.93 22.93 0 0 0-3.273-1.864 26.932 26.932 0 0 0-3.828-1.431c-1.993-.584-4.43-.903-6.82-1.248-2.452 4.506-5.085 9.522-6.87 12.48-.641 1.064-.98 1.535-1.488 2.324 1.614.74 3.268 1.455 4.719 2.403 1.02.666 1.96 1.385 2.832 2.166.872.78 1.679 1.623 2.44 2.537 1.52 1.828 2.854 3.943 4.146 6.422 1.291 2.479 2.54 5.321 3.77 8.347.38.936.75 1.955 1.126 2.92.05-.023.096-.032.147-.055 5.485-2.542 11.494-6.017 16.974-10.172.36-.273.664-.586 1.02-.865z" transform="translate(-755.744 -1114.868) scale(.95573)"/>
  <path fill="url(#D)" d="M1057.947 1416.368c-1.887-3.626-3.794-7.498-5.646-10.66-1.708-2.917-3.396-5.564-5.156-7.871a38.62 38.62 0 0 0-2.707-3.2 26.573 26.573 0 0 0-2.887-2.638 22.034 22.034 0 0 0-6.537-3.526 26.003 26.003 0 0 0-3.711-.957 33.416 33.416 0 0 0-4.043-.476c-1.567-.093-3.35.067-5.053.13-.868 1.767-1.626 3.476-2.615 5.37-1.663 3.184-3.261 5.885-5.07 9.21 2.39.346 4.828.665 6.82 1.249 1.385.406 2.653.883 3.828 1.431a22.93 22.93 0 0 1 3.273 1.864 24.122 24.122 0 0 1 2.862 2.308c.901.844 1.76 1.765 2.597 2.762a45.729 45.729 0 0 1 4.659 6.729 49.354 49.354 0 0 1 3.615 7.863c.498 1.399.782 2.866 1.162 4.303 5.053-3.96 9.663-8.398 13.264-12.319.498-.542.88-1.046 1.345-1.572z" transform="translate(-755.744 -1114.868) scale(.95573)"/>
  <path fill="url(#E)" d="M1073.512 1395.311c-1.404-2.388-2.967-5.329-4.254-7.312-1.771-2.73-3.407-4.992-5.065-6.957a40.814 40.814 0 0 0-5.187-5.172 43.252 43.252 0 0 0-5.967-4.158c-2.083-1.203-4.22-2.192-6.281-2.88a23.058 23.058 0 0 0-6.17-1.187c-2.12-.114-4.37.042-6.953.438-1.375.21-3.03.62-4.568.949-.105.407-.18.924-.288 1.32-1.76 6.525-4 11.588-6.572 16.819 1.703-.064 3.486-.224 5.053-.131 1.406.083 2.752.24 4.043.476 1.29.237 2.526.554 3.71.957a22.029 22.029 0 0 1 6.537 3.525c1 .782 1.96 1.664 2.888 2.64a38.62 38.62 0 0 1 2.707 3.199c1.76 2.307 3.448 4.954 5.156 7.87 1.852 3.163 3.759 7.035 5.646 10.66 3.139-3.542 5.738-6.84 8.895-11.218a219.14 219.14 0 0 0 6.67-9.838z" transform="translate(-755.744 -1114.868) scale(.95573)"/>
  <path fill="url(#F)" d="M1085.885 1367.483c-1.623-1.921-3.331-4.008-4.877-5.775-1.896-2.167-3.728-4.2-5.615-6.051-1.888-1.852-3.83-3.523-5.946-4.97-2.115-1.449-4.448-2.703-6.87-3.745a46.112 46.112 0 0 0-7.41-2.465c-2.476-.593-4.962-.973-7.528-1.08a36.513 36.513 0 0 0-8.004.56c-1.865.335-3.865.978-5.838 1.56-1.402 7.805-2.89 16.346-4.73 23.515 1.538-.328 3.193-.739 4.568-.95 2.583-.395 4.833-.551 6.953-.437 2.12.115 4.108.5 6.17 1.188 2.062.687 4.198 1.676 6.281 2.879a43.252 43.252 0 0 1 5.967 4.158 40.814 40.814 0 0 1 5.187 5.172c1.658 1.965 3.294 4.228 5.065 6.957 1.287 1.983 2.85 4.924 4.254 7.312 1.682-2.628 3.364-5.322 4.797-8.043 3.326-6.316 5.515-12.507 7.576-19.785z" transform="translate(-755.744 -1114.868) scale(.95573)"/>
  <path fill="url(#G)" d="M1061.422 1308.202c-3.704.089-8.073 1.003-11.826 2.754-3.754 1.75-6.903 4.354-9.266 9.094-2.363 4.739-3.989 11.657-5.697 20.865-.265 1.43-.564 3.085-.836 4.601 1.973-.581 3.973-1.224 5.838-1.558 2.791-.5 5.437-.668 8.004-.56 2.566.106 5.053.486 7.527 1.08a46.112 46.112 0 0 1 7.41 2.464c2.423 1.042 4.756 2.296 6.871 3.744 2.115 1.448 4.058 3.12 5.946 4.971 1.887 1.852 3.719 3.884 5.615 6.05 1.546 1.768 3.254 3.855 4.877 5.776.026-.09.056-.165.082-.256 2.083-7.396 4.042-15.936 4.771-22.916.73-6.98.228-12.396-.668-16.396s-2.187-6.583-4.04-8.791c-1.855-2.208-4.318-4.077-6.837-5.58-2.518-1.503-5.186-2.713-8.06-3.692-2.875-.979-6.007-1.74-9.711-1.65z" transform="translate(-755.744 -1114.868) scale(.95573)"/>
  <path fill="url(#H)" d="M1025.197 1441.35c-.376-.965-.747-1.984-1.127-2.92-1.229-3.026-2.477-5.868-3.77-8.347-1.29-2.48-2.625-4.594-4.146-6.422a23.874 23.874 0 0 0-2.44-2.537c-.871-.78-1.81-1.5-2.831-2.166-1.45-.948-3.105-1.664-4.719-2.403-1.948 3.026-3.297 4.886-4.8 8.026-1.897 3.958-4.396 10.624-3.104 14.834 1.291 4.21 6.372 5.958 11.432 6.017 5.013.06 10.078-1.58 15.505-4.082z" transform="translate(-755.744 -1114.868) scale(.95573)"/>
  <path fill="url(#I)" d="M192.219 171.256c-.183-.01-.38.01-.62.062-1.299.29-3.39 1.136-4.853 1.79-1.463.652-2.339 1.129-4.957 1.497-2.618.369-7.001.63-10.572.844-3.143.189-5.91.482-9.988 1.516-.094.128-.186.272-.28.398-1.058 1.432-2.12 2.762-3.187 3.889a19.876 19.876 0 0 1-3.461 2.941c-1.321.889-2.89 1.74-4.95 2.721-2.06.98-4.618 2.092-7.328 3.123-2.709 1.03-5.569 1.98-8.228 2.631a42.817 42.817 0 0 1-7.443 1.162 38.934 38.934 0 0 1-6.409-.113c-1.557-.156-2.956-.441-4.351-.73-2.804 1.482-5.089 2.883-7.053 3.972-2.786 1.545-5.521 2.503-7.45 3.559-1.927 1.055-3.052 2.21-4.67 3.53-1.616 1.322-3.724 2.811-4.997 3.784-.644.492-1.07.86-1.342 1.389.326.336.668.672.88 1.011.306.487.513.985.683 1.516.338 1.062.52 2.258.724 4.258.095.933.147 1.973.235 3.074.1 1.26.23 2.576.27 3.516.065 1.597-.044 2.248-.276 2.98.441.287.982.462 1.996.498 1.501.054 3.937-.044 6.193-.117 2.256-.074 4.328-.121 5.885-.404 1.557-.283 2.592-.8 3.389-.95.248-.046.446.056.658.112.468.122.899.453 1.35 1.549.654 1.591 1.408 4.558 1.785 7.757.376 3.2.375 6.638-.047 10.073-.423 3.434-1.268 6.872-2.366 9.828-1.097 2.956-2.45 5.433-3.435 7.77-.985 2.336-1.606 4.534-2.197 7.011-.592 2.478-1.153 5.237-1.407 7.658-.253 2.421-.198 4.507.393 6.309.223.679.608 1.28.998 1.883.644.996 1.452 1.927 2.662 2.734 1.944 1.296 4.8 2.403 10.383 3.623 5.583 1.22 14.087 2.627 23.633 3.162 9.546.535 20.134.198 30.168-.656 10.034-.854 19.508-2.226 25.584-3.469 6.075-1.243 8.74-2.356 10.414-3.492 1.673-1.136 2.35-2.29 2.967-4.22.617-1.932 1.174-4.642 1.234-7.688.06-3.047-.378-6.43-1.055-9.856-.677-3.424-1.593-6.887-3.193-10.877-.747-1.86-1.734-3.712-2.662-5.658-1.061-2.225-2.073-4.535-3.045-6.469-1.822-3.624-3.181-6.357-4.299-8.82-1.117-2.462-1.991-4.65-2.848-7.678-.856-3.026-1.694-6.889-2.47-9.597-.777-2.709-1.494-4.26-2.35-6.121-.856-1.862-1.85-4.033-2.408-5.866-.558-1.832-.677-3.324-.367-4.19.309-.868 1.044-1.106 2.18-1.644 1.134-.537 2.665-1.373 3.652-2.14.986-.768 1.423-1.463 2.369-2.46.946-.995 2.4-2.288 3.576-3.374.725-.67 1.23-1.377 1.555-2.25-.92-.856-1.66-1.685-2.56-3.07a75.818 75.818 0 0 1-3.386-5.829c-1.065-2.04-1.901-3.911-2.359-5.125-.395-1.047-.432-1.566-.43-2.21-.17-.024-.337-.05-.52-.055l.003-.002z"/>
  <path fill="url(#J)" d="M205.928 248.155c-.337 2.27-.67 4.545-1.163 6.58-.654 2.703-1.464 5.168-2.484 7.321a24.523 24.523 0 0 1-1.682 3.002c-.611.926-1.271 1.781-1.973 2.57a22.564 22.564 0 0 1-4.704 3.997c-1.72 1.103-3.58 1.995-5.544 2.725-1.965.73-4.035 1.3-6.175 1.757-2.14.457-4.358.803-6.64 1.06a98.528 98.528 0 0 1-7.024.52c-4.794.195-9.792.11-14.889-.087-5.096-.197-10.35-.508-15.288-.754-4.939-.247-9.563-.43-13.406-.373-1.922.027-3.648.115-5.208.274-1.56.158-2.957.386-4.215.696-1.259.31-2.38.701-3.396 1.184a13.502 13.502 0 0 0-2.753 1.73 15.851 15.851 0 0 0-2.28 2.309c-.472.582-.888 1.239-1.313 1.883.644.997 1.452 1.93 2.663 2.737 1.944 1.296 4.802 2.403 10.385 3.623 5.583 1.22 14.085 2.627 23.632 3.162 9.546.535 20.133.198 30.167-.657 10.034-.854 19.509-2.225 25.584-3.468 6.076-1.243 8.74-2.357 10.415-3.492 1.673-1.136 2.35-2.29 2.967-4.221.618-1.932 1.175-4.64 1.234-7.687.06-3.047-.377-6.431-1.054-9.856s-1.594-6.888-3.194-10.877c-.747-1.861-1.734-3.712-2.662-5.658z"/>
  <path fill="url(#K)" d="M253.333 101.651c-.524 1.024-1.07 2.14-1.575 3.086-1.305 2.44-2.532 4.56-3.609 6.037-.538.739-1.04 1.318-1.52 1.768-.48.45-.939.768-1.395.99-.914.446-1.816.5-2.843.408-1.028-.092-2.183-.327-3.454-.72-1.27-.395-2.657-.948-4.15-1.673-1.962-.954-4.235-2.415-6.443-3.77.253 1.195.58 2.376.939 3.53.69 2.226 1.45 4.364 2.619 5.983 1.169 1.62 2.746 2.718 4.928 3.732 2.182 1.014 4.97 1.943 7.039 2.28 2.07.339 3.421.086 4.73-.942 1.309-1.027 2.577-2.83 3.66-5.083 1.084-2.252 1.987-4.958 2.226-7.196.239-2.238-.183-4.012-.577-5.898a56.331 56.331 0 0 0-.575-2.532z"/>
  <path fill="url(#L)" d="M235.633 90.203c-1.013.07-1.52.238-1.775.323-.254.085-.253.084-.717.394-.464.31-1.394.93-2.197 2.042-.803 1.113-1.477 2.717-2.055 4.717-.577 2-1.056 4.39-.985 6.743.033 1.13.206 2.25.44 3.356 2.208 1.354 4.481 2.815 6.444 3.769 1.492.725 2.879 1.278 4.15 1.672 1.27.394 2.425.63 3.453.72 1.027.092 1.93.039 2.843-.406.456-.223.916-.542 1.396-.991.48-.45.981-1.03 1.52-1.768 1.076-1.478 2.303-3.597 3.608-6.037.505-.946 1.051-2.062 1.575-3.086-.279-1.082-.625-2.159-1.185-3.184-1-1.83-2.634-3.49-4.816-4.842-2.182-1.352-4.914-2.394-7.04-2.929-2.125-.535-3.645-.563-4.659-.493z"/>
  <path fill="url(#M)" d="M287.566 14.258c-.128-.242-.237-.58-.36-.788-1.028-1.731-1.845-2.126-5.578-3.337-3.733-1.212-10.374-3.238-13.993-4.027-3.618-.789-4.209-.338-4.552.03-.344.368-.439.655-1.611 4.342-1.173 3.687-3.424 10.774-6.967 21.53-3.543 10.755-8.377 25.174-11.106 33.374-2.73 8.2-3.345 10.164-3.43 12.234-.012.293.059.591.068.887 1.086.653 2.211 1.43 3.268 1.986a41.394 41.394 0 0 0 4.058 1.88c1.293.51 2.513.897 3.618 1.146 1.105.249 2.095.36 3.01.246.917-.113 1.76-.45 2.565-1.092.404-.321.797-.718 1.257-1.348.46-.63.983-1.493 1.646-2.744 1.326-2.5 3.206-6.554 6.23-13.406 4.84-10.973 13.507-31.305 21.877-50.913z"/>
  <path fill="url(#N)" d="M287.566 14.258c-8.37 19.609-17.036 39.94-21.877 50.913-3.024 6.853-4.904 10.905-6.23 13.407-.663 1.25-1.187 2.114-1.646 2.744-.46.63-.853 1.026-1.256 1.347-.806.642-1.65.979-2.565 1.092-.916.114-1.906 0-3.011-.246-1.105-.249-2.325-.636-3.618-1.146a41.392 41.392 0 0 1-4.058-1.88c-1.057-.557-2.181-1.333-3.268-1.986a17.202 17.202 0 0 0 1.002 5.294c.704 1.943 1.66 3.66 3.041 4.94 1.38 1.282 3.181 2.127 5.279 2.902 2.098.774 4.492 1.477 6.111 1.674 1.62.197 2.466-.112 4.286-3.386 1.82-3.274 4.656-9.596 7.88-16.705 3.223-7.11 6.856-15.052 10.882-23.611 4.026-8.56 8.448-17.74 10.537-22.572 2.09-4.832 1.88-5.249 1.148-7.007-.643-1.548-1.697-4.001-2.637-5.774z"/>
  <path fill="url(#O)" fill-rule="evenodd" d="M877.143 1227.409c-4.443 1.68-7.413 4.711-6.634 6.768 2.097 3.574 5.624 5.38 10.581 3.665 6.106-2.332 6.256-7.323 5.506-9.751-.778-2.057-5.01-2.363-9.453-.682z" paint-order="markers fill stroke" transform="matrix(.95514 .03363 -.03363 .95514 -674.94 -1067.803)"/>
  <path fill="url(#P)" d="M197.384 181.845c-1.692 1.352-3.409 2.716-4.88 3.955-1.909 1.607-3.515 3.06-4.516 4.205-.5.573-.85 1.068-1.086 1.518a3.54 3.54 0 0 0-.406 1.24c-.093.775.119 1.487.336 2.38.378 1.562.775 3.77 1.171 5.958-.053-.686-.013-1.267.137-1.69.31-.866 1.045-1.104 2.18-1.642 1.135-.538 2.666-1.373 3.652-2.14.987-.768 1.423-1.464 2.37-2.46.946-.995 2.4-2.289 3.576-3.375.724-.67 1.229-1.376 1.554-2.25-.919-.855-1.659-1.685-2.56-3.07-.464-.713-1.001-1.733-1.528-2.629z"/>
  <path fill="url(#Q)" d="M110.717 224.715c-.037-.15-.03-.26-.082-.428a9.012 9.012 0 0 0-.729-1.754 5.75 5.75 0 0 0-1.42-1.71c-.622-.498-1.411-.89-2.441-1.202-1.03-.312-2.3-.544-3.883-.723a42.748 42.748 0 0 0-5.531-.263c-1.282.024-2.668.268-4.03.445.1 1.26.231 2.576.27 3.516.066 1.597-.043 2.248-.275 2.98.441.287.982.462 1.996.498 1.501.054 3.937-.044 6.193-.117 2.256-.074 4.328-.121 5.885-.404 1.557-.283 2.592-.8 3.389-.95.248-.046.446.056.658.112z"/>
  <g fill="url(#R)" stroke-width="4.128" style="line-height:8.1823597px;-inkscape-font-specification:'Unispace, Bold';font-variant-ligatures:normal;font-variant-caps:normal;font-variant-numeric:normal;font-feature-settings:normal;text-align:center" text-anchor="middle" transform="matrix(.09508 -.02158 .02276 .10022 251.52788 213.34586)" word-spacing="0">
    <path fill="#e0edf9" stroke-width=".248" d="M-164.958 127.75c-1.363 0-2.19 1.108-2.19 2.926v2.947c0 .522.04.96.119 1.314.088.354.221.642.399.863.177.213.402.368.676.465.275.097.607.146.996.146h6.382c.199 0 .425-.189.425-.505v-.896c0-.293-.234-.563-.505-.563h-5.373c-1.013.072-1.122-.618-1.048-1.264h4.956c1.574 0 2.18-.577 2.18-2.759 0-1.974-.73-2.674-2.176-2.674zm8.484.002c-.305 0-.337.112-.337.43v7.397c0 .476.088.683.498.683h1.164c.384 0 .396-.238.396-.603v-6.025h2.352c.631 0 1.248.415 1.248 1.748v4.197c0 .477.127.683.59.683h.958c.425 0 .48-.232.48-.65v-5.231c0-.514-.04-.939-.12-1.275-.08-.345-.207-.615-.384-.81a1.312 1.312 0 0 0-.677-.424c-.275-.08-1.367-.12-1.766-.12zm-7.794 1.954h3.744c.833-.066.955 1.27.358 1.523-.098.027-.217.04-.358.04h-4.553v-.62c-.045-.578.296-.976.81-.943z" aria-label="deepin" font-family="Unispace" font-size="14.728" font-weight="700" letter-spacing="0" style="-inkscape-font-specification:'Unispace, Bold';font-variant-ligatures:normal;font-variant-caps:normal;font-variant-numeric:normal;font-feature-settings:normal;text-align:center" transform="matrix(4.81508 0 0 4.02453 -380.524 -557.019)"/>
  </g>
  <path fill="#e0edf9" fill-opacity=".786" d="M131.407 222.496c-.192.044-.307.254-.251.501l.63 2.773-4.044.918c-2.245.343-3.59 2.562-2.968 5.182.29 1.417 1.85 4.086 4.915 3.392l4.656-1.057c.986-.224 1.535-1.03 1.35-1.843l-2.244-9.882c-.064-.282-.211-.4-.518-.33zm35.291-7.973a.4.4 0 0 0-.289.487l.326 1.434a.4.4 0 0 0 .471.315l1.61-.365a.4.4 0 0 0 .29-.488l-.326-1.434a.4.4 0 0 0-.472-.315zm.675 3.038a.4.4 0 0 0-.29.487l1.8 7.928a.4.4 0 0 0 .472.314l1.64-.372a.4.4 0 0 0 .289-.487l-1.8-7.928a.4.4 0 0 0-.472-.314zm-30.354 6.93c-1.56.353-2.252 1.684-1.836 3.516l.674 2.97c.12.526.266.957.438 1.293.182.333.4.589.653.766.25.168.544.265.88.292.336.028.727-.01 1.173-.111l7.298-1.657a.513.513 0 0 0 .37-.62l-.205-.902a.605.605 0 0 0-.706-.436l-6.144 1.395c-1.143.336-1.425-.332-1.489-1.002l5.668-1.286c1.8-.41 2.36-1.148 1.862-3.346-.452-1.989-1.447-2.505-3.1-2.13zm10.942-2.484c-1.56.354-2.252 1.684-1.836 3.516l.674 2.97c.12.526.266.957.438 1.293.182.334.4.589.652.766.251.168.545.265.881.292.336.028.727-.01 1.172-.111l7.299-1.657a.513.513 0 0 0 .37-.62l-.205-.902a.605.605 0 0 0-.706-.436l-6.144 1.395c-1.143.336-1.425-.332-1.49-1.002l5.676-1.288c1.8-.409 2.332-1.242 1.854-3.344-.451-1.988-1.446-2.504-3.1-2.13zm10.217-2.312c-.696.158-1.649 1.022-1.347 2.35l2.11 9.293c.083.369.176.66.72.537l1.303-.295c.33-.075.438-.229.32-.75l-.574-2.526 3.234-.734c4.299-.845 3.912-4.136 3.622-5.414-.668-2.943-2.95-3.922-5.24-3.403zm12.157-2.676c-.35.08-.36.2-.288.52l1.693 7.454c.109.48.257.664.725.558l1.332-.302c.44-.1.398-.343.314-.71l-1.378-6.07 2.69-.61c.722-.165 1.523.093 1.828 1.436l.96 4.229c.11.48.301.654.83.534l1.095-.248c.487-.11.497-.358.4-.78l-1.196-5.27c-.117-.517-.26-.935-.428-1.253-.17-.327-.378-.566-.625-.716-.24-.162-.53-.246-.872-.252-.332-.013-1.59.234-2.046.337zm-39.891 10.996c.913-.202 1.77-.362 1.77-.362l1.082 4.769-2.54.577c-.344.078-.633.12-.866.126-2.335.51-2.813-1.237-2.85-1.975-.392-1.746 1.176-2.605 1.874-2.748.415-.128.982-.265 1.53-.387zm28.725-6.503 3.098-.703c1.6-.363 2.642.683 2.93 1.798.374 1.647-.347 2.655-2.45 3.133l-2.49.565zm-16.546 3.776c.878-.18 1.278 1.067.672 1.464a1.801 1.801 0 0 1-.4.133l-5.208 1.182-.141-.624c-.183-.572.115-1.062.71-1.162l4.28-.971a.452.452 0 0 1 .086-.021zm10.942-2.484c.878-.18 1.277 1.067.672 1.464a1.798 1.798 0 0 1-.401.133l-5.207 1.182-.142-.624c-.183-.572.116-1.062.71-1.161l4.281-.972a.558.558 0 0 1 .087-.022zm10.596 7.957c-.147.034-.229.222-.183.422l.183.806c.046.2.2.334.347.3l5.782-1.312c.147-.033.23-.221.184-.422l-.183-.806c-.046-.2-.2-.334-.348-.3zm15.46-3.468a.355.355 0 0 0-.257.433l2.21 9.731a.355.355 0 0 0 .418.279l1.454-.33a.355.355 0 0 0 .257-.432l-2.21-9.732a.355.355 0 0 0-.418-.279zm-24.104 8.223a.454.454 0 0 0-.329.55l.182.8c.06.263.351.45.627.387l4.685-1.063c1.014-.298 1.264.294 1.32.888l-5.028 1.142c-1.597.363-2.094 1.018-1.651 2.968.4 1.764 1.283 2.222 2.75 1.89l4.911-1.116c1.384-.314 1.998-1.494 1.629-3.12l-.598-2.634c-.106-.467-.236-.85-.388-1.147a1.942 1.942 0 0 0-.58-.68 1.608 1.608 0 0 0-.78-.26 3.538 3.538 0 0 0-1.04.1zm20.264-4.547c-2.003.454-3.24 2.535-2.76 4.648.48 2.111 2.493 3.455 4.497 3 2.004-.455 3.24-2.536 2.76-4.648-.48-2.112-2.493-3.455-4.497-3zm-36.875 8.402c-.617.14-1.066.448-1.35.924-.282.476-.35 1.04-.202 1.69l.114.502c.147.65.452 1.129.913 1.436.46.308 1.011.445 1.628.305l2.722-.618c.3-.048.461.07.542.179.08.11.198.405.137.596-.058.177-.166.288-.417.35-.461.112-1.222.301-1.734.397-.512.097-.973.251-1.415.321-.254.039-.777.192-1.058.24a.544.544 0 0 0-.415.713l.143.632c.098.381.362.486.68.417.328-.072.985-.223 1.282-.292.516-.076 1.06-.27 1.673-.38.615-.109 1.2-.278 1.781-.41.617-.14 1.067-.449 1.35-.925.283-.476.35-1.04.203-1.69l-.13-.573c-.148-.65-.452-1.13-.913-1.437-.461-.308-.94-.13-1.558.01l-2.673.607a.573.573 0 0 1-.595-.222c-.13-.173-.207-.501-.161-.71a.555.555 0 0 1 .443-.448l4.131-.938c.377-.072.56-.231.492-.532l-.186-.82c-.069-.364-.483-.449-.7-.398zm-9.597 2.18c-1.384.314-1.998 1.494-1.629 3.12l.598 2.634c.106.467.236.85.389 1.147.161.296.354.523.579.68.222.149.483.236.78.26.3.023.646-.01 1.04-.1l6.476-1.469a.455.455 0 0 0 .329-.55l-.182-.8a.537.537 0 0 0-.627-.387l-5.45 1.237c-1.015.298-1.265-.294-1.321-.888l5.028-1.142c1.597-.362 2.094-1.018 1.651-2.968-.4-1.764-1.283-2.222-2.75-1.89zm34.939-7.93c-.31.07-.32.178-.256.461l1.502 6.613c.097.426.229.59.644.496l1.181-.269c.39-.087.353-.303.279-.63l-1.223-5.385 2.387-.542c.64-.145 1.351.083 1.622 1.275l.852 3.752c.097.426.267.58.736.474l.971-.22c.432-.099.441-.318.356-.693l-1.062-4.675c-.104-.459-.23-.83-.38-1.112-.15-.29-.336-.502-.555-.635a1.398 1.398 0 0 0-.773-.224c-.294-.01-1.41.209-1.815.3zm-18.004 4.11c-.618.14-1.463.907-1.195 2.085l1.872 8.245c.074.328.156.586.638.477l1.156-.263c.294-.066.39-.203.284-.665l-.508-2.242 2.869-.65c3.813-.75 3.47-3.67 3.213-4.804-.593-2.61-2.618-3.48-4.649-3.018zm29.602-6.47h.001c.437-.1.89-.107 1.334-.024l-.315.448s-.474.775-.694 1.173c-.227.408-.34.834-.331 1.26 0 .128.024.256.06.378a.934.934 0 0 0 .288.476c.16.12.288.048.398-.073.182-.201.296-.502.323-.896a3.9 3.9 0 0 0-.106-1.153c-.148.036-.25.139-.34.256.083.461.013.929-.144 1.286a.574.574 0 0 1-.099.157c-.023.03-.05.051-.094.046a.242.242 0 0 1-.118-.07c-.02-.023-.048-.08-.032-.119.27-.357.257-.66.237-.938-.01-.077-.02-.173.028-.231.688-.843 1.34-1.088 2.23-1.281l.168-.044a3.668 3.668 0 0 1 1.36 2.12c.443 1.95-.699 3.873-2.55 4.293a3.26 3.26 0 0 1-.616.077c.275-.184.534-.348 1.129-.93.58-.646.941-1.572.867-2.42-.139-1.369-1.124-1.988-1.538-2.248.272.308.506.64.674 1.013.283.687.297 1.35-.142 1.973-.442.544-.936.798-1.444.966-.64.165-1.296.321-2.412.24a3.717 3.717 0 0 1-.45-3.75c.34.68.559 1.083.93 1.556.416.526.92.937 1.64 1.101.482.08 1.125-.06 1.417-.695.228-.466.175-.911.088-1.356-.071-.367-.222-.723-.382-1.054-.047-.04-.122-.025-.164-.014.17.565.348 1.214.197 1.835-.075.237-.122.39-.264.54-.21.222-.529.33-.88.132-.304-.19-.59-.668-.706-1.088-.151-.549-.16-1.14-.12-1.708.027-.389.115-.784.243-1.137v-.01c.108-.038.218-.07.33-.097zm-28.723 8.083 2.748-.624c1.42-.323 2.345.605 2.6 1.595.332 1.461-.308 2.355-2.174 2.779l-2.21.502zm-16.716 3.796 3.797-.862c.832-.25 1.228.916.673 1.28a1.653 1.653 0 0 1-.356.117l-4.619 1.049-.126-.553c-.162-.508.103-.942.63-1.03zm27.365-3.3 4.62-1.05.125.554c.163.507-.102.942-.63 1.03l-3.798.862c-.832.251-1.227-.915-.673-1.279.094-.046.212-.085.356-.118z" font-family="Unispace" font-size="14.728" font-weight="700" letter-spacing="0" style="line-height:8.1823597px;-inkscape-font-specification:'Unispace, Bold';font-variant-ligatures:normal;font-variant-caps:normal;font-variant-numeric:normal;font-feature-settings:normal;text-align:center" text-anchor="middle" word-spacing="0"/>
  <g fill="url(#T)" stroke-width="1.775" style="line-height:8.1823597px;-inkscape-font-specification:'Unispace, Bold';font-variant-ligatures:normal;font-variant-caps:normal;font-variant-numeric:normal;font-feature-settings:normal;text-align:center" text-anchor="middle" transform="matrix(.21072 -.04783 .05556 .24468 190.375 320.229)" word-spacing="0">
    <path fill="#e0edf9" fill-opacity=".786" stroke-width=".107" d="M67.879 30.005c-.048 0-.086.044-.086.108v.709h-1.004c-.548-.04-.985.425-.978 1.096-.008.36.217 1.096.978 1.096h1.156c.244 0 .417-.165.417-.373v-2.527c0-.072-.028-.11-.104-.11zm5.636 0c-.048 0-.086.044-.086.108v.709h-1.004c-.548-.04-.984.425-.978 1.096-.008.36.217 1.096.978 1.096h1.156c.245 0 .417-.165.417-.373v-2.527c0-.072-.028-.11-.104-.11zm-8.585 0c-.052 0-.095.047-.095.103v.367c0 .057.042.103.095.103h.4c.052 0 .094-.046.094-.103v-.367c0-.056-.042-.102-.095-.102zm-.004.777c-.052 0-.094.046-.094.103v2.027c0 .057.042.102.094.102h.407c.052 0 .094-.045.094-.102v-2.027c0-.057-.042-.103-.094-.103zm-8.701.04c-.087 0-.096.029-.096.11v1.907c0 .122.025.175.141.175h.33c.11 0 .113-.06.113-.155v-1.552h.371c.163 0 .32.088.35.359v1.173c0 .122.025.175.141.175h.331c.109 0 .112-.06.112-.155v-1.552h.371c.18 0 .355.107.355.45v1.082c0 .123.036.175.167.175h.272c.12 0 .136-.06.136-.167v-1.348c0-.132-.011-.242-.034-.328a.441.441 0 0 0-.109-.209.38.38 0 0 0-.192-.11 3.701 3.701 0 0 0-.501-.03h-.953a.149.149 0 0 0-.061.01c-.11-.007-.23-.01-.291-.01zm3.614 0c-.121 0-.137.06-.137.167v1.348c0 .132.012.242.034.329a.441.441 0 0 0 .11.208.379.379 0 0 0 .192.11c.078.02.388.03.5.03h1.25c.087 0 .096-.028.096-.11v-1.906c0-.123-.025-.176-.141-.176h-.33c-.11 0-.113.061-.113.155v1.552h-.668c-.179 0-.354-.106-.354-.45v-1.081c0-.123-.036-.176-.168-.176zm2.524 0c-.087 0-.096.029-.096.11v1.907c0 .122.025.175.141.175h.331c.109 0 .112-.06.112-.155v-1.552h.668c.179 0 .354.107.354.45v1.082c0 .123.036.175.168.175h.271c.121 0 .137-.06.137-.167v-1.348c0-.132-.012-.242-.034-.328a.441.441 0 0 0-.11-.209.38.38 0 0 0-.192-.11 3.702 3.702 0 0 0-.5-.03zm-8.5 0c-.245 0-.442.235-.442.527v1.14c0 .292.197.527.441.527h1.443c.244 0 .44-.235.44-.527v-1.14c0-.292-.196-.527-.44-.527zm-2.539.007a.753.753 0 0 0-.25.037.384.384 0 0 0-.171.117.56.56 0 0 0-.1.217c-.02.09-.03.2-.03.33v.777c0 .131.01.242.03.33a.56.56 0 0 0 .1.218.384.384 0 0 0 .17.117c.07.025.153.037.251.037h1.607c.05 0 .107-.048.107-.127v-.226c0-.074-.058-.141-.127-.141h-1.353c-.25.017-.281-.15-.265-.31v-.572c-.016-.16.014-.327.265-.31h1.353c.069 0 .127-.068.127-.141v-.226c0-.08-.057-.127-.107-.127zm17.771 0a.112.112 0 0 0-.107.117v.204c0 .067.059.129.127.129h1.163c.255-.017.283.262.264.41h-1.248c-.396 0-.549.216-.549.714 0 .451.184.611.548.611h1.22c.342 0 .55-.253.55-.668v-.674c0-.12-.01-.424-.03-.505a.49.49 0 0 0-.1-.197.388.388 0 0 0-.17-.107.825.825 0 0 0-.25-.033zm-1.74.465c.227.001.438.01.438.01v1.219h-.63c-.086 0-.157-.006-.212-.017-.579-.005-.598-.456-.567-.638.001-.446.417-.568.59-.564a5.08 5.08 0 0 1 .382-.01zm5.637 0c.226.001.437.01.437.01v1.219h-.63c-.086 0-.156-.006-.212-.017-.578-.005-.597-.456-.567-.638.001-.446.418-.568.59-.564a5.08 5.08 0 0 1 .382-.01zm-18.855.013h.893c.119 0 .215.113.215.253v.718c0 .14-.096.253-.215.253h-.893c-.119 0-.215-.113-.215-.253v-.718c0-.14.096-.253.215-.253zm15.259.82h1.146v.225c.011.132-.074.223-.204.216h-.942c-.21.015-.241-.375-.09-.432a.38.38 0 0 1 .09-.01z" aria-label="deepin" font-family="Unispace" font-size="14.728" font-weight="700" letter-spacing="0" style="-inkscape-font-specification:'Unispace, Bold';font-variant-ligatures:normal;font-variant-caps:normal;font-variant-numeric:normal;font-feature-settings:normal;text-align:center" transform="matrix(4.81508 0 0 4.02453 -380.524 -557.019)"/>
  </g>
</svg>
