<?xml version="1.0" encoding="UTF-8" standalone="no"?>
<svg
   xmlns:dc="http://purl.org/dc/elements/1.1/"
   xmlns:cc="http://creativecommons.org/ns#"
   xmlns:rdf="http://www.w3.org/1999/02/22-rdf-syntax-ns#"
   xmlns:svg="http://www.w3.org/2000/svg"
   xmlns="http://www.w3.org/2000/svg"
   xmlns:sodipodi="http://sodipodi.sourceforge.net/DTD/sodipodi-0.dtd"
   xmlns:inkscape="http://www.inkscape.org/namespaces/inkscape"
   version="1.1"
   id="Capa_1"
   x="0px"
   y="0px"
   viewBox="0 0 49.94 49.94"
   style="enable-background:new 0 0 49.94 49.94;"
   xml:space="preserve"
   width="512px"
   height="512px"
   sodipodi:docname="star.svg"
   inkscape:version="0.92.4 (5da689c313, 2019-01-14)"><metadata
   id="metadata11"><rdf:RDF><cc:Work
       rdf:about=""><dc:format>image/svg+xml</dc:format><dc:type
         rdf:resource="http://purl.org/dc/dcmitype/StillImage" /><dc:title></dc:title></cc:Work></rdf:RDF></metadata><defs
   id="defs9" /><sodipodi:namedview
   pagecolor="#ffffff"
   bordercolor="#666666"
   borderopacity="1"
   objecttolerance="10"
   gridtolerance="10"
   guidetolerance="10"
   inkscape:pageopacity="0"
   inkscape:pageshadow="2"
   inkscape:window-width="1152"
   inkscape:window-height="763"
   id="namedview7"
   showgrid="false"
   inkscape:pagecheckerboard="true"
   inkscape:zoom="1.84375"
   inkscape:cx="419.30759"
   inkscape:cy="135.11782"
   inkscape:window-x="0"
   inkscape:window-y="0"
   inkscape:window-maximized="1"
   inkscape:current-layer="g4" /><g
   id="g4"><path
     d="m 47.108883,22.895112 c 0.9111,-0.887928 1.232719,-2.191087 0.839731,-3.402487 -0.393913,-1.211401 -1.419943,-2.076158 -2.680467,-2.259676 L 34.060604,15.604464 c -0.477332,-0.06951 -0.889782,-0.36889 -1.102959,-0.801731 L 27.947062,4.6471717 C 27.384459,3.5062119 26.242573,2.797167 24.97,2.797167 c -1.271646,0 -2.413532,0.7090449 -2.976134,1.8500047 L 16.982355,14.802733 C 16.769178,15.235574 16.3558,15.534949 15.87847,15.604464 L 4.6709263,17.233876 c -1.2595972,0.182591 -2.285627,1.047348 -2.6795407,2.258749 -0.392987,1.2114 -0.071368,2.514559 0.8397315,3.402487 l 8.1090639,7.904229 c 0.345718,0.337376 0.504209,0.823048 0.422646,1.297599 L 9.4488687,43.259066 c -0.2150301,1.254036 0.290106,2.496951 1.3198433,3.245849 1.028811,0.749828 2.368118,0.847148 3.496101,0.253033 l 10.023021,-5.270104 c 0.427281,-0.224298 0.937051,-0.224298 1.364333,0 l 10.023946,5.270104 c 0.489381,0.257665 1.019543,0.384645 1.546924,0.384645 0.684946,0 1.367112,-0.214103 1.949177,-0.637678 1.029738,-0.748898 1.534874,-1.991813 1.319844,-3.245849 L 38.577174,32.097867 c -0.08157,-0.475478 0.07693,-0.960223 0.422646,-1.297598 z m -10.357616,9.516032 1.913957,11.161199 c 0.09639,0.561676 -0.121418,1.098325 -0.582992,1.433847 -0.462502,0.334595 -1.038079,0.375377 -1.543215,0.112149 L 26.515069,39.847309 C 26.032177,39.594278 25.500162,39.466371 24.97,39.466371 c -0.530161,0 -1.06125,0.127907 -1.545069,0.381865 L 13.402837,45.118339 C 12.895847,45.381567 12.32027,45.340785 11.858694,45.00619 11.39712,44.670668 11.180236,44.134945 11.275703,43.572343 L 13.18966,32.411144 c 0.184444,-1.077007 -0.172395,-2.176258 -0.954662,-2.938133 L 4.1250082,21.567854 C 3.7162647,21.169306 3.5772363,20.607633 3.7542657,20.065422 3.9303684,19.522283 4.3724787,19.149687 4.9369341,19.067197 L 16.14355,17.438712 c 1.081641,-0.156639 2.01684,-0.835098 2.499731,-1.815711 L 23.654792,5.4674392 c 0.252105,-0.5116245 0.744265,-0.8165601 1.314281,-0.8165601 0.570944,0 1.062178,0.3049356 1.315209,0.8165601 l 5.01151,10.1555618 c 0.482892,0.980613 1.417162,1.659072 2.498805,1.815711 l 11.207542,1.628485 c 0.564456,0.08249 1.006566,0.455086 1.182668,0.998225 0.176103,0.542211 0.038,1.103884 -0.370743,1.502432 l -8.109063,7.904229 c -0.782265,0.762803 -1.139106,1.861127 -0.953734,2.939061 z"
     data-original="#000000"
     class="active-path"
     data-old_color="#000000"
     id="path2"
     style="fill:#cdcfd7;fill-opacity:1;stroke:#cdcfd7;stroke-width:0.60167485;stroke-miterlimit:4;stroke-dasharray:none;stroke-opacity:1"
     inkscape:connector-curvature="0" /></g> </svg>