<?xml version="1.0" encoding="UTF-8" standalone="no"?>
<svg
   xmlns:dc="http://purl.org/dc/elements/1.1/"
   xmlns:cc="http://creativecommons.org/ns#"
   xmlns:rdf="http://www.w3.org/1999/02/22-rdf-syntax-ns#"
   xmlns:svg="http://www.w3.org/2000/svg"
   xmlns="http://www.w3.org/2000/svg"
   xmlns:xlink="http://www.w3.org/1999/xlink"
   xmlns:sodipodi="http://sodipodi.sourceforge.net/DTD/sodipodi-0.dtd"
   xmlns:inkscape="http://www.inkscape.org/namespaces/inkscape"
   sodipodi:docname="apmplanner2.svg"
   inkscape:version="0.92.4 (5da689c313, 2019-01-14)"
   width="324px"
   height="234px"
   viewBox="0 0 324 234"
   version="1.1"
   id="SVGRoot">
  <defs
     id="defs10">
    <linearGradient
       inkscape:collect="always"
       id="linearGradient1530">
      <stop
         style="stop-color:#e5f2d2;stop-opacity:1"
         offset="0"
         id="stop1526" />
      <stop
         style="stop-color:#93c848;stop-opacity:0.98431373"
         offset="1"
         id="stop1528" />
    </linearGradient>
    <linearGradient
       inkscape:collect="always"
       id="linearGradient1473">
      <stop
         style="stop-color:#737373;stop-opacity:1;"
         offset="0"
         id="stop1469" />
      <stop
         style="stop-color:#d4d4d4;stop-opacity:1"
         offset="1"
         id="stop1471" />
    </linearGradient>
    <linearGradient
       id="linearGradient1467"
       inkscape:collect="always">
      <stop
         id="stop1463"
         offset="0"
         style="stop-color:#7c7e80;stop-opacity:1" />
      <stop
         id="stop1465"
         offset="1"
         style="stop-color:#3f3f40;stop-opacity:1" />
    </linearGradient>
    <linearGradient
       id="linearGradient1461"
       inkscape:collect="always">
      <stop
         id="stop1457"
         offset="0"
         style="stop-color:#7c7e80;stop-opacity:1" />
      <stop
         id="stop1459"
         offset="1"
         style="stop-color:#3f3f40;stop-opacity:1" />
    </linearGradient>
    <linearGradient
       id="linearGradient1455"
       inkscape:collect="always">
      <stop
         id="stop1451"
         offset="0"
         style="stop-color:#7c7e80;stop-opacity:1" />
      <stop
         id="stop1453"
         offset="1"
         style="stop-color:#3f3f40;stop-opacity:1" />
    </linearGradient>
    <linearGradient
       inkscape:collect="always"
       id="linearGradient1062">
      <stop
         style="stop-color:#000000;stop-opacity:1;"
         offset="0"
         id="stop1058" />
      <stop
         style="stop-color:#6c6c6c;stop-opacity:1"
         offset="1"
         id="stop1060" />
    </linearGradient>
    <linearGradient
       id="linearGradient1053"
       inkscape:collect="always">
      <stop
         id="stop1049"
         offset="0"
         style="stop-color:#a1a2a3;stop-opacity:1" />
      <stop
         id="stop1051"
         offset="1"
         style="stop-color:#efefef;stop-opacity:1" />
    </linearGradient>
    <linearGradient
       inkscape:collect="always"
       id="linearGradient1045">
      <stop
         style="stop-color:#5f8d2b;stop-opacity:1;"
         offset="0"
         id="stop1041" />
      <stop
         style="stop-color:#82c13b;stop-opacity:1"
         offset="1"
         id="stop1043" />
    </linearGradient>
    <linearGradient
       inkscape:collect="always"
       id="linearGradient996">
      <stop
         style="stop-color:#6e6f71;stop-opacity:1;"
         offset="0"
         id="stop992" />
      <stop
         style="stop-color:#3f3f40;stop-opacity:1"
         offset="1"
         id="stop994" />
    </linearGradient>
    <linearGradient
       id="linearGradient948"
       inkscape:collect="always">
      <stop
         id="stop944"
         offset="0"
         style="stop-color:#93c848;stop-opacity:0.98431373" />
      <stop
         id="stop946"
         offset="1"
         style="stop-color:#e5f2d2;stop-opacity:1" />
    </linearGradient>
    <linearGradient
       id="linearGradient975"
       inkscape:collect="always">
      <stop
         id="stop971"
         offset="0"
         style="stop-color:#b836d1;stop-opacity:1" />
      <stop
         id="stop973"
         offset="1"
         style="stop-color:#5d186a;stop-opacity:1" />
    </linearGradient>
    <linearGradient
       inkscape:collect="always"
       id="linearGradient856">
      <stop
         style="stop-color:#701d80;stop-opacity:1"
         offset="0"
         id="stop852" />
      <stop
         style="stop-color:#5d186a;stop-opacity:1"
         offset="1"
         id="stop854" />
    </linearGradient>
    <radialGradient
       inkscape:collect="always"
       xlink:href="#linearGradient856"
       id="radialGradient860"
       cx="100"
       cy="61.5"
       fx="100"
       fy="61.5"
       r="100"
       gradientTransform="matrix(1.62,0,0,1.17,-3.24e-6,45.044996)"
       gradientUnits="userSpaceOnUse" />
    <radialGradient
       inkscape:collect="always"
       xlink:href="#linearGradient975"
       id="radialGradient968"
       gradientUnits="userSpaceOnUse"
       gradientTransform="matrix(1.5290863,-0.88893425,0.58803163,1.0114934,-27.072574,143.68658)"
       cx="100"
       cy="61.500004"
       fx="100"
       fy="61.500004"
       r="100" />
    <linearGradient
       inkscape:collect="always"
       xlink:href="#linearGradient948"
       id="linearGradient941"
       x1="-260.92136"
       y1="316.30292"
       x2="-159.85844"
       y2="316.30292"
       gradientUnits="userSpaceOnUse"
       gradientTransform="translate(265.05887,-206.74184)" />
    <radialGradient
       inkscape:collect="always"
       xlink:href="#linearGradient996"
       id="radialGradient998"
       cx="100"
       cy="61.500002"
       fx="100"
       fy="61.500002"
       r="100"
       gradientTransform="matrix(1,0,0,0.72222221,0,17.083334)"
       gradientUnits="userSpaceOnUse" />
    <linearGradient
       inkscape:collect="always"
       xlink:href="#linearGradient1053"
       id="linearGradient1038"
       x1="100.15709"
       y1="111.30622"
       x2="262.19238"
       y2="111.30622"
       gradientUnits="userSpaceOnUse"
       gradientTransform="translate(72.858776,7.9438112)" />
    <linearGradient
       inkscape:collect="always"
       xlink:href="#linearGradient1045"
       id="linearGradient1047"
       x1="88.431641"
       y1="154.64355"
       x2="285.37501"
       y2="154.64355"
       gradientUnits="userSpaceOnUse"
       gradientTransform="translate(72.858776,7.9438112)" />
    <radialGradient
       inkscape:collect="always"
       xlink:href="#linearGradient1062"
       id="radialGradient1064"
       cx="161.25425"
       cy="111.8419"
       fx="161.25425"
       fy="111.8419"
       r="157.70117"
       gradientTransform="matrix(1,0,0,0.49243897,72.858776,64.710401)"
       gradientUnits="userSpaceOnUse" />
    <linearGradient
       inkscape:collect="always"
       xlink:href="#linearGradient975"
       id="linearGradient1079"
       gradientUnits="userSpaceOnUse"
       gradientTransform="rotate(90,-92.220595,358.26572)"
       x1="-260.92136"
       y1="316.30292"
       x2="-159.85844"
       y2="316.30292" />
    <radialGradient
       inkscape:collect="always"
       xlink:href="#linearGradient1467"
       id="radialGradient1101"
       gradientUnits="userSpaceOnUse"
       gradientTransform="matrix(1,0,0,0.72222222,2.4690087,14.61444)"
       cx="100"
       cy="61.500004"
       fx="100"
       fy="61.500004"
       r="100" />
    <radialGradient
       inkscape:collect="always"
       xlink:href="#linearGradient1455"
       id="radialGradient998-7"
       cx="100"
       cy="61.500004"
       fx="100"
       fy="61.500004"
       r="100"
       gradientTransform="matrix(1,0,0,0.72222222,2.4690087,14.61444)"
       gradientUnits="userSpaceOnUse" />
    <radialGradient
       inkscape:collect="always"
       xlink:href="#linearGradient996"
       id="radialGradient1106"
       gradientUnits="userSpaceOnUse"
       gradientTransform="matrix(1.62,0,0,1.17,-17.257815,35.837969)"
       cx="100"
       cy="61.500004"
       fx="100"
       fy="61.500004"
       r="100" />
    <radialGradient
       inkscape:collect="always"
       xlink:href="#linearGradient1461"
       id="radialGradient1177"
       gradientUnits="userSpaceOnUse"
       gradientTransform="matrix(1,0,0,0.72222222,2.4690087,14.614441)"
       cx="100"
       cy="61.500004"
       fx="100"
       fy="61.500004"
       r="100" />
    <linearGradient
       inkscape:collect="always"
       xlink:href="#linearGradient1473"
       id="linearGradient1475"
       x1="4.409574"
       y1="121.85624"
       x2="105.20043"
       y2="121.85624"
       gradientUnits="userSpaceOnUse"
       gradientTransform="translate(72.858776,7.9438112)" />
    <linearGradient
       inkscape:collect="always"
       xlink:href="#linearGradient1530"
       id="linearGradient1499"
       x1="0"
       y1="17.549805"
       x2="324"
       y2="17.549805"
       gradientUnits="userSpaceOnUse"
       gradientTransform="matrix(1,0,0,0.83373696,0,5.8361599)" />
    <linearGradient
       inkscape:collect="always"
       xlink:href="#linearGradient948"
       id="linearGradient1501"
       x1="0"
       y1="216.4502"
       x2="324"
       y2="216.4502"
       gradientUnits="userSpaceOnUse"
       gradientTransform="matrix(1,0,0,0.83373684,0,33.06942)" />
    <linearGradient
       inkscape:collect="always"
       xlink:href="#linearGradient948"
       id="linearGradient1553"
       gradientUnits="userSpaceOnUse"
       gradientTransform="translate(337.91765,-198.79803)"
       x1="-260.92136"
       y1="316.30292"
       x2="-159.85844"
       y2="316.30292" />
  </defs>
  <sodipodi:namedview
     inkscape:pagecheckerboard="true"
     inkscape:window-maximized="1"
     inkscape:window-y="0"
     inkscape:window-x="0"
     inkscape:window-height="750"
     inkscape:window-width="1152"
     showgrid="false"
     inkscape:document-rotation="0"
     inkscape:current-layer="layer1"
     inkscape:document-units="px"
     inkscape:cy="65.51584"
     inkscape:cx="192.91383"
     inkscape:zoom="0.9899495"
     inkscape:pageshadow="2"
     inkscape:pageopacity="0.0"
     borderopacity="1.0"
     bordercolor="#666666"
     pagecolor="#ffffff"
     id="base"
     inkscape:snap-global="true"
     showguides="true"
     inkscape:object-paths="true">
    <sodipodi:guide
       id="guide137"
       orientation="163.80001,0"
       position="243.9,198.9"
       inkscape:locked="false" />
    <sodipodi:guide
       id="guide139"
       orientation="0,-101.49202"
       position="243.9,35.099996"
       inkscape:locked="false" />
    <sodipodi:guide
       id="guide141"
       orientation="0,-62.30799"
       position="142.40799,35.099996"
       inkscape:locked="false" />
    <sodipodi:guide
       id="guide143"
       orientation="-163.80001,0"
       position="80.099996,35.099996"
       inkscape:locked="false" />
    <sodipodi:guide
       id="guide145"
       orientation="0,62.30799"
       position="80.099996,198.9"
       inkscape:locked="false" />
    <sodipodi:guide
       id="guide147"
       orientation="0,101.49202"
       position="142.40799,198.9"
       inkscape:locked="false" />
  </sodipodi:namedview>
  <metadata
     id="metadata13">
    <rdf:RDF>
      <cc:Work
         rdf:about="">
        <dc:format>image/svg+xml</dc:format>
        <dc:type
           rdf:resource="http://purl.org/dc/dcmitype/StillImage" />
        <dc:title />
      </cc:Work>
    </rdf:RDF>
  </metadata>
  <g
     id="layer1"
     inkscape:groupmode="layer"
     inkscape:label="Capa 1">
    <g
       transform="matrix(1.62,0,0,1.62,-3.24e-6,17.369997)"
       id="g55"
       style="stroke:none">
      <g
         id="g907"
         style="stroke:none" />
      <rect
         style="opacity:1;fill:url(#radialGradient998);fill-opacity:1;fill-rule:evenodd;stroke:none;stroke-width:1.36029387;paint-order:markers fill stroke"
         id="rect990"
         width="200"
         height="144.44444"
         x="2e-06"
         y="-10.722219"
         rx="0"
         ry="0" />
      <path
         inkscape:connector-curvature="0"
         style="opacity:1;fill:url(#radialGradient998-7);fill-opacity:1;fill-rule:evenodd;stroke:none;stroke-width:1.36029387;paint-order:markers fill stroke"
         d="m 106.35838,-7.507762 -62.386671,13.173948 43.93446,5.27826 5.27826,43.934464 z"
         id="path1099" />
      <path
         inkscape:connector-curvature="0"
         style="opacity:1;fill:url(#radialGradient1101);fill-opacity:1;fill-rule:evenodd;stroke:none;stroke-width:1.36029387;paint-order:markers fill stroke"
         d="m 160.43222,47.762059 -60.808511,9.318333 64.712351,4.324605 4.3246,64.711133 9.31833,-60.807294 -2.02908,-8.709487 -1.2864,-5.523007 -5.5218,-1.285204 z"
         id="path1104" />
      <path
         inkscape:connector-curvature="0"
         style="opacity:1;fill:url(#radialGradient1177);fill-opacity:1;fill-rule:evenodd;stroke:none;stroke-width:1.36029387;paint-order:markers fill stroke"
         d="m 62.986949,131.25333 12.5217,-59.299043 -62.38667,13.173944 43.93446,5.27826 4.90693,40.846839 z"
         id="path1109" />
    </g>
    <g
       id="g898"
       transform="translate(-72.404655,-3.3050155)">
      <path
         inkscape:connector-curvature="0"
         id="path1000"
         d="m 90.917719,42.127511 19.894531,25.32617 -34.126953,-7.375 54.630863,33.47852 14.27148,18.166009 -69.17578,79.08203 56.39648,-41.4082 -19.11328,48.04687 41.63086,-64.58203 1.41602,-1.03906 20.73438,-33.322269 z m 146.292971,55.39258 -5.25391,19.443349 c -2.89059,10.69313 -5.38329,19.98454 -5.53906,20.64844 -0.38589,1.64484 11.98755,1.75482 12.51367,0.11133 0.19278,-0.6022 0.96491,-3.31239 1.7168,-6.02344 l 1.36718,-4.92969 7.81641,-0.37304 c 6.78034,-0.32418 8.37681,-0.71897 12.04102,-2.98438 9.95386,-6.15401 11.78431,-19.42953 3.25781,-23.626949 -2.73031,-1.34406 -5.78687,-1.72744 -15.65625,-1.9668 z m -25.94727,0.1289 -6.73437,0.0332 -6.73438,0.0312 -12.26367,19.343739 c -6.74469,10.6381 -12.57764,19.88509 -12.96289,20.55078 -0.56962,0.98422 0.51818,1.21094 5.82812,1.21094 h 6.53125 l 2.33205,-3.97851 2.33007,-3.97852 6.29296,0.25586 6.29102,0.25586 0.26953,3.72266 0.26953,3.72265 h 6.08203 c 4.31917,0 6.08008,-0.32049 6.08008,-1.10742 0,-2.04911 -2.61864,-32.57614 -3.11719,-36.33789 z m 72.34766,0 -5.05469,18.615239 c -2.7797,10.23749 -5.2839,19.50003 -5.56445,20.58398 -0.49228,1.90196 -0.29969,1.9707 5.50976,1.9707 h 6.01953 l 2.95703,-11.38672 c 1.62595,-6.26296 3.24112,-11.38671 3.58985,-11.38672 0.34874,0 1.57817,5.02547 2.73242,11.16797 2.86442,15.24338 3.07336,15.23907 14.35156,-0.18359 4.771,-6.52419 8.93473,-11.86133 9.25391,-11.86133 0.49475,0 -4.19412,18.62199 -5.63281,22.3711 -0.40079,1.04447 0.61583,1.27929 5.55468,1.27929 4.9965,0 6.12636,-0.26618 6.50977,-1.5332 0.25513,-0.84308 2.65685,-9.61406 5.33789,-19.49024 2.68103,-9.87617 5.04908,-18.448549 5.26172,-19.050769 0.28939,-0.81946 -1.45614,-1.09571 -6.9375,-1.09571 h -7.32422 l -8.50977,11.388669 c -4.68026,6.26296 -8.76488,11.38672 -9.07812,11.38672 -0.31323,0 -1.51945,-5.12376 -2.67969,-11.38672 l -2.10937,-11.388669 h -7.09375 z m -36.09571,8.759769 h 3.69141 c 2.60889,0 4.16686,0.52664 5.31641,1.79687 1.49807,1.65535 1.52477,2.08473 0.35351,5.45313 -0.77098,2.2172 -2.13302,4.09067 -3.46094,4.75976 -3.01427,1.51934 -9.96875,1.51012 -9.38476,-0.0117 0.24083,-0.62759 1.12322,-3.58272 1.96094,-6.56836 z m -46.43554,4.39648 c 0.36133,-0.009 0.65625,2.9395 0.65625,6.55273 v 6.57032 h -4.45313 c -2.44898,0 -4.32074,-0.2969 -4.16015,-0.65821 1.18634,-2.66927 7.43104,-12.45184 7.95703,-12.46484 z m 103.02539,37.55859 -4.04883,0.26368 -4.04687,0.26367 -1.75782,6.78906 c -0.96646,3.73368 -1.97603,6.78816 -2.24414,6.78516 -0.26811,-0.002 -1.43849,-3.17582 -2.59961,-7.05078 l -2.11133,-7.04493 -3.96484,0.26172 -3.96484,0.25977 -3.32227,12.26367 c -1.82725,6.74471 -3.33012,12.5586 -3.33984,12.91992 -0.01,0.36133 1.72276,0.65821 3.84961,0.6582 h 3.86718 l 1.54883,-6.57031 c 0.85183,-3.61323 1.84213,-6.57031 2.20117,-6.57031 0.58242,0 3.01952,5.83234 4.66797,11.16992 0.5081,1.64521 1.23238,1.9707 4.38672,1.9707 3.71038,0 3.79574,-0.0673 4.74219,-3.72265 0.53013,-2.0475 2.12832,-7.98146 3.55078,-13.18555 z m -136.32226,0.0899 -0.96485,3.72265 c -0.53013,2.0475 -2.12144,7.95971 -3.53711,13.13868 l -2.57422,9.41796 h 4.18555 4.18555 l 0.78125,-3.72265 c 0.72518,-3.45487 1.00246,-3.73991 3.84765,-3.95117 8.9293,-0.66299 13.08579,-3.06178 14.91602,-8.60742 2.39646,-7.26134 -1.16767,-9.99805 -13.01758,-9.99805 z m 28.04687,0 -2.73047,10.29297 c -1.50198,5.66074 -3.10335,11.57292 -3.55664,13.13867 l -0.82422,2.84765 h 10.01367 c 7.41935,0 10.01454,-0.28432 10.02344,-1.0957 0.007,-0.6022 0.25051,-1.98244 0.54101,-3.0664 0.50807,-1.89585 0.31034,-1.97071 -5.16601,-1.97071 h -5.69336 l 2.84375,-10.07226 2.8418,-10.07422 h -4.14649 z m 39.82617,0 -4.47852,0.0332 -4.47656,0.0352 -6.36719,10.25781 c -3.50114,5.64226 -7.18501,11.53972 -8.1875,13.10547 l -1.82226,2.8457 4.24609,-0.004 c 3.81571,-0.005 4.4006,-0.2778 5.76758,-2.67969 1.3738,-2.41458 1.88385,-2.64608 5.25586,-2.40235 3.34353,0.24167 3.76356,0.52095 4.01172,2.67774 0.25739,2.23693 0.56266,2.41016 4.28906,2.41015 h 4.01367 l -0.57812,-7.66406 c -0.31745,-4.21543 -0.82309,-10.12959 -1.125,-13.14062 z m 29.42578,0 -1.12305,5.03711 c -2.26118,10.1337 -2.57385,10.27709 -5.24023,2.4082 l -2.375,-7.00781 -4.0918,-0.26563 c -3.07026,-0.20035 -4.09179,0.0419 -4.09179,0.97266 0,0.6821 -1.51835,6.61673 -3.375,13.1875 l -3.375,11.94726 h 4.07617 4.07617 l 1.63477,-6.57031 c 0.89975,-3.61323 1.91143,-6.57031 2.24804,-6.57031 0.33658,0 1.68999,2.95708 3.00781,6.57031 l 2.39649,6.57031 h 3.64258 3.64062 l 3.55469,-13.14062 3.55664,-13.13867 h -4.08008 z m 45.40625,0 -0.88672,2.84765 c -0.4874,1.56573 -1.9184,6.78781 -3.18164,11.60547 -1.26323,4.81765 -2.49982,9.44987 -2.74609,10.29297 -0.40796,1.39665 0.44486,1.53321 9.58398,1.5332 9.66116,0 10.04789,-0.0724 10.55664,-1.9707 1.06186,-3.96231 0.81308,-4.16211 -5.23437,-4.16211 -4.91739,0 -5.70761,-0.20746 -5.25586,-1.38476 0.29243,-0.76205 0.53125,-1.92773 0.53125,-2.58985 0,-0.88558 1.66388,-1.27162 6.29101,-1.46093 6.03473,-0.24689 6.31632,-0.35507 6.93164,-2.66602 l 0.64063,-2.4082 h -5.67774 c -5.38751,1e-5 -5.66399,-0.10269 -5.39843,-1.97266 0.25455,-1.79225 0.8179,-1.99416 6.22851,-2.23047 5.44194,-0.23767 6.02194,-0.44714 6.78907,-2.46484 0.4613,-1.2133 0.83789,-2.37836 0.83789,-2.58789 0,-0.20952 -4.50097,-0.38086 -10.00391,-0.38086 z m 25.85547,0.4375 -2.90039,10.51172 c -1.5955,5.78117 -3.13866,11.59507 -3.42969,12.91992 -0.51652,2.35133 -0.43593,2.41016 3.43945,2.41015 3.84159,0 4.00013,-0.10676 4.88282,-3.28515 0.50173,-1.80663 0.91477,-3.80571 0.91797,-4.44141 0.003,-0.69154 0.78123,-1.04246 1.9375,-0.875 1.48588,0.21522 2.15292,1.1901 2.88476,4.22071 0.94656,3.91988 0.974,3.94348 5.07422,4.20898 4.58197,0.29669 4.78543,-0.05 2.80859,-4.78125 -1.75258,-4.19452 -1.65877,-5.33107 0.49805,-6.01562 2.42355,-0.76921 5.18846,-5.46783 5.19336,-8.82422 0.006,-4.88008 -2.40869,-6.04883 -12.49414,-6.04883 z m -159.63672,4.81055 c 0.19859,-0.0108 0.40761,-0.005 0.62695,0.0176 0.58489,0.0592 1.24492,0.23398 1.99414,0.52149 2.11361,0.81107 1.75182,5.24559 -0.56054,6.86523 -1.07071,0.74996 -2.84418,1.36328 -3.94141,1.36328 -2.26935,0 -2.55223,-1.6445 -1.0332,-6.00195 0.62671,-1.79783 1.52396,-2.68975 2.91406,-2.76562 z m 168.68164,0.008 c 1.3277,0 2.86304,0.54153 3.41211,1.20312 1.05324,1.26907 0.42778,4.05012 -1.15625,5.13477 -0.51691,0.35396 -2.1808,0.65025 -3.69531,0.65625 l -2.75195,0.0137 0.88867,-3.50391 c 0.76783,-3.02499 1.21856,-3.5039 3.30273,-3.5039 z m -116.33789,3.5039 c 0.39305,0 0.71484,1.77346 0.71484,3.94141 0,3.79574 -0.0965,3.94141 -2.62695,3.94141 -1.4453,0 -2.6289,-0.24137 -2.6289,-0.53711 0,-1.10918 3.85533,-7.34571 4.54101,-7.34571 z m 133.14649,6.13086 -1.39649,4.09766 c -0.76793,2.25376 -1.39648,4.81761 -1.39648,5.69531 0,1.47889 1.05154,1.59571 14.3457,1.5957 10.45001,0 14.57129,-0.29811 15.17578,-1.0957 0.88023,-1.16142 2.88867,-7.62644 2.88867,-9.29883 0,-0.70127 -4.35373,-0.99414 -14.80859,-0.99414 z m 6.01953,1.75196 c 2.71737,0 3.45117,0.32949 3.45117,1.54882 0,0.85194 -1.08336,2.25341 -2.4082,3.11329 -2.05442,1.33339 -2.12034,1.48317 -0.43946,1.01953 1.43679,-0.39629 1.97071,-0.17081 1.9707,0.83007 0,1.06357 -0.98611,1.37305 -4.3789,1.37305 -2.40882,0 -4.37891,-0.3218 -4.37891,-0.71484 0,-0.39306 1.65842,-1.6478 3.68555,-2.78711 2.02716,-1.13932 3.19572,-2.23423 2.59766,-2.4336 -0.59805,-0.19934 -1.62942,0.088 -2.29297,0.63868 -0.82826,0.6874 -1.3857,0.71451 -1.77539,0.084 -1.0293,-1.66543 0.46525,-2.67187 3.96875,-2.67187 z m 16.13086,0 c 4.32982,0 4.87604,0.99001 3.10937,5.63671 -0.74326,1.95495 -1.3699,2.24805 -4.81836,2.24805 -4.32982,0 -4.87606,-0.99001 -3.10937,-5.63672 0.74325,-1.95495 1.3699,-2.24804 4.81836,-2.24804 z m 0.93164,1.85742 c -0.28634,-0.0202 -0.66269,0.008 -1.14649,0.0664 -1.33527,0.1615 -2.48722,1.04314 -2.92578,2.23829 -0.64296,1.75213 -0.44686,1.9707 1.77344,1.9707 1.98246,0 2.58631,-0.46243 2.92578,-2.23828 0.28189,-1.4744 0.23205,-1.97651 -0.62695,-2.03711 z m -10.54493,3.39844 c 0.72265,0 1.3125,0.59182 1.3125,1.31445 0,0.72265 -0.58985,1.31445 -1.3125,1.31445 -0.72265,0 -1.31445,-0.5918 -1.31445,-1.31445 0,-0.72263 0.5918,-1.31445 1.31445,-1.31445 z"
         style="fill:url(#radialGradient1064);fill-opacity:1;stroke-width:0.87593585" />
      <path
         inkscape:connector-curvature="0"
         id="path967"
         d="m 304.68886,149.40279 -4.04883,0.26368 -4.04687,0.26367 -1.75782,6.78906 c -0.96646,3.73368 -1.97603,6.78816 -2.24414,6.78516 -0.26811,-0.002 -1.43849,-3.17582 -2.59961,-7.05078 l -2.11133,-7.04493 -3.96484,0.26172 -3.96484,0.25977 -3.32227,12.26367 c -1.82725,6.74471 -3.33012,12.5586 -3.33984,12.91992 -0.01,0.36133 1.72276,0.65821 3.84961,0.6582 h 3.86718 l 1.54883,-6.57031 c 0.85183,-3.61323 1.84213,-6.57031 2.20117,-6.57031 0.58242,0 3.01952,5.83234 4.66797,11.16992 0.5081,1.64521 1.23238,1.9707 4.38672,1.9707 3.71038,0 3.79574,-0.0673 4.74219,-3.72265 0.53013,-2.0475 2.12832,-7.98146 3.55078,-13.18555 z m -136.32227,0.0898 -0.96485,3.72265 c -0.53013,2.0475 -2.12144,7.95971 -3.53711,13.13868 l -2.57421,9.41796 h 4.18554 4.18555 l 0.78125,-3.72265 c 0.72518,-3.45487 1.00246,-3.73991 3.84766,-3.95117 8.9293,-0.66299 13.08579,-3.06178 14.91602,-8.60742 2.39646,-7.26134 -1.16767,-9.99805 -13.01758,-9.99805 z m 28.04688,0 -2.73047,10.29297 c -1.50198,5.66074 -3.10335,11.57292 -3.55664,13.13867 l -0.82422,2.84765 h 10.01367 c 7.41935,0 10.01454,-0.28432 10.02344,-1.0957 0.007,-0.6022 0.25051,-1.98244 0.54101,-3.0664 0.50807,-1.89585 0.31034,-1.97071 -5.16601,-1.97071 h -5.69336 l 2.84375,-10.07226 2.8418,-10.07422 h -4.14649 z m 39.82617,0 -4.47852,0.0332 -4.47656,0.0352 -6.36719,10.25781 c -3.50114,5.64226 -7.18501,11.53972 -8.1875,13.10547 l -1.82226,2.8457 4.24609,-0.004 c 3.81571,-0.005 4.4006,-0.2778 5.76758,-2.67969 1.3738,-2.41458 1.88385,-2.64608 5.25586,-2.40235 3.34353,0.24167 3.76356,0.52095 4.01172,2.67774 0.25739,2.23693 0.56266,2.41016 4.28906,2.41015 h 4.01367 l -0.57812,-7.66406 c -0.31745,-4.21543 -0.82309,-10.12959 -1.125,-13.14062 z m 29.42578,0 -1.12305,5.03711 c -2.26118,10.1337 -2.57385,10.27709 -5.24023,2.4082 l -2.375,-7.00781 -4.0918,-0.26563 c -3.07026,-0.20035 -4.09179,0.0419 -4.09179,0.97266 0,0.6821 -1.51835,6.61673 -3.375,13.1875 l -3.375,11.94726 h 4.07617 4.07617 l 1.63477,-6.57031 c 0.89975,-3.61323 1.91143,-6.57031 2.24804,-6.57031 0.33658,0 1.68999,2.95708 3.00781,6.57031 l 2.39649,6.57031 h 3.64258 3.64062 l 3.55469,-13.14062 3.55664,-13.13867 h -4.08008 z m 45.40625,0 -0.88672,2.84765 c -0.4874,1.56573 -1.9184,6.78781 -3.18164,11.60547 -1.26323,4.81765 -2.49982,9.44987 -2.74609,10.29297 -0.40796,1.39665 0.44486,1.53321 9.58398,1.5332 9.66116,0 10.04789,-0.0724 10.55664,-1.9707 1.06186,-3.96231 0.81308,-4.16211 -5.23437,-4.16211 -4.91739,0 -5.70761,-0.20746 -5.25586,-1.38476 0.29243,-0.76205 0.53125,-1.92773 0.53125,-2.58985 0,-0.88558 1.66388,-1.27162 6.29101,-1.46093 6.03473,-0.24689 6.31632,-0.35507 6.93164,-2.66602 l 0.64063,-2.4082 h -5.67774 c -5.38751,1e-5 -5.66399,-0.10269 -5.39843,-1.97266 0.25455,-1.79225 0.8179,-1.99416 6.22851,-2.23047 5.44194,-0.23767 6.02194,-0.44714 6.78907,-2.46484 0.4613,-1.2133 0.83789,-2.37836 0.83789,-2.58789 0,-0.20952 -4.50097,-0.38086 -10.00391,-0.38086 z m 25.85547,0.4375 -2.90039,10.51172 c -1.5955,5.78117 -3.13866,11.59507 -3.42969,12.91992 -0.51652,2.35133 -0.43593,2.41016 3.43945,2.41015 3.84159,0 4.00013,-0.10676 4.88282,-3.28515 0.50173,-1.80663 0.91477,-3.80571 0.91797,-4.44141 0.003,-0.69154 0.78123,-1.04246 1.9375,-0.875 1.48588,0.21522 2.15292,1.1901 2.88476,4.22071 0.94656,3.91988 0.974,3.94348 5.07422,4.20898 4.58197,0.29669 4.78543,-0.05 2.80859,-4.78125 -1.75258,-4.19452 -1.65877,-5.33107 0.49805,-6.01562 2.42355,-0.76921 5.18846,-5.46783 5.19336,-8.82422 0.006,-4.88008 -2.40869,-6.04883 -12.49414,-6.04883 z m -159.63672,4.81055 c 0.19859,-0.0108 0.40761,-0.005 0.62695,0.0176 0.58489,0.0592 1.24492,0.23398 1.99414,0.52149 2.11361,0.81107 1.75182,5.24559 -0.56054,6.86523 -1.07071,0.74996 -2.84418,1.36328 -3.94141,1.36328 -2.26935,0 -2.55224,-1.6445 -1.0332,-6.00195 0.62671,-1.79783 1.52396,-2.68975 2.91406,-2.76562 z m 168.68164,0.008 c 1.3277,0 2.86304,0.54153 3.41211,1.20312 1.05324,1.26907 0.42778,4.05012 -1.15625,5.13477 -0.51691,0.35396 -2.1808,0.65025 -3.69531,0.65625 l -2.75195,0.0137 0.88867,-3.50391 c 0.76783,-3.02499 1.21856,-3.5039 3.30273,-3.5039 z m -116.33789,3.5039 c 0.39305,0 0.71484,1.77346 0.71484,3.94141 0,3.79574 -0.0965,3.94141 -2.62695,3.94141 -1.4453,0 -2.6289,-0.24137 -2.6289,-0.53711 0,-1.10918 3.85533,-7.34571 4.54101,-7.34571 z"
         style="fill:url(#linearGradient1047);fill-opacity:1;stroke-width:0.87593585" />
      <path
         inkscape:connector-curvature="0"
         id="path955"
         d="m 237.79433,98.559045 -5.25391,19.443355 c -2.89059,10.69313 -5.38329,19.98454 -5.53906,20.64844 -0.38589,1.64484 11.98755,1.75482 12.51367,0.11133 0.19278,-0.6022 0.96491,-3.31239 1.7168,-6.02344 l 1.36718,-4.92969 7.81641,-0.37304 c 6.78034,-0.32418 8.37681,-0.71897 12.04102,-2.98438 9.95386,-6.15401 11.78431,-19.42953 3.25781,-23.62695 -2.73031,-1.34406 -5.78687,-1.727436 -15.65625,-1.966797 z m -25.94727,0.128907 -6.73437,0.0332 -6.73438,0.03125 -12.26367,19.343748 c -6.7447,10.6381 -12.57764,19.88509 -12.96289,20.55078 -0.56963,0.98422 0.51818,1.21094 5.82812,1.21094 h 6.53125 l 2.33204,-3.97851 2.33007,-3.97852 6.29297,0.25586 6.29102,0.25586 0.26953,3.72266 0.26953,3.72265 h 6.08203 c 4.31917,0 6.08008,-0.32049 6.08008,-1.10742 0,-2.04911 -2.61864,-32.57614 -3.11719,-36.33789 z m 72.34766,0 -5.05469,18.615238 c -2.7797,10.23749 -5.2839,19.50003 -5.56445,20.58398 -0.49228,1.90196 -0.29969,1.9707 5.50976,1.9707 h 6.01953 l 2.95703,-11.38672 c 1.62595,-6.26296 3.24112,-11.38671 3.58985,-11.38672 0.34874,0 1.57817,5.02547 2.73242,11.16797 2.86442,15.24338 3.07336,15.23907 14.35156,-0.18359 4.771,-6.52419 8.93473,-11.86133 9.25391,-11.86133 0.49475,0 -4.19412,18.62199 -5.63281,22.3711 -0.40079,1.04447 0.61583,1.27929 5.55468,1.27929 4.9965,0 6.12636,-0.26618 6.50977,-1.5332 0.25513,-0.84308 2.65685,-9.61406 5.33789,-19.49024 2.68103,-9.87617 5.04908,-18.44855 5.26172,-19.050775 0.28939,-0.81946 -1.45614,-1.095703 -6.9375,-1.095703 h -7.32422 l -8.50977,11.388668 c -4.68026,6.26296 -8.76488,11.38672 -9.07812,11.38672 -0.31323,0 -1.51945,-5.12376 -2.67969,-11.38672 l -2.10937,-11.388668 h -7.09375 z m -36.09571,8.759768 h 3.69141 c 2.60889,0 4.16686,0.52664 5.31641,1.79687 1.49807,1.65535 1.52477,2.08473 0.35351,5.45313 -0.77098,2.2172 -2.13302,4.09067 -3.46094,4.75976 -3.01427,1.51934 -9.96875,1.51012 -9.38476,-0.0117 0.24083,-0.62759 1.12322,-3.58272 1.96094,-6.56836 z m -46.43554,4.39648 c 0.36133,-0.009 0.65625,2.9395 0.65625,6.55273 v 6.57032 h -4.45313 c -2.44898,0 -4.32074,-0.2969 -4.16015,-0.65821 1.18634,-2.66927 7.43104,-12.45184 7.95703,-12.46484 z"
         style="fill:url(#linearGradient1038);fill-opacity:1;stroke-width:0.87593585" />
      <path
         inkscape:connector-curvature="0"
         id="path933"
         d="M 91.501354,43.166467 146.17128,112.76217 76.995495,191.8442 155.90956,133.90084 178.05995,99.539514 Z"
         style="fill:url(#linearGradient1553);fill-opacity:1;stroke:none;stroke-width:1px;stroke-linecap:butt;stroke-linejoin:miter;stroke-opacity:1" />
      <path
         inkscape:connector-curvature="0"
         id="path907"
         d="m 77.26835,61.117575 53.6305,11.59038 47.16036,26.830666 -63.77955,98.943899 36.67911,-92.20869 z"
         style="fill:url(#linearGradient1475);fill-opacity:1;stroke:none;stroke-width:1px;stroke-linecap:butt;stroke-linejoin:miter;stroke-opacity:1" />
      <rect
         ry="1.7601155"
         y="165.99086"
         x="361.84286"
         height="8.1435165"
         width="27.983204"
         id="rect1055"
         style="opacity:1;fill:#ffffff;fill-opacity:1;fill-rule:evenodd;stroke:none;stroke-width:1.93231487;stroke-miterlimit:4;stroke-dasharray:none;stroke-opacity:0.34375;paint-order:markers fill stroke" />
      <path
         inkscape:connector-curvature="0"
         id="path971"
         d="m 362.78026,164.38371 -1.39648,4.09766 c -0.76793,2.25376 -1.39649,4.81761 -1.39649,5.69531 0,1.47889 1.05154,1.5957 14.3457,1.5957 10.45001,0 14.5713,-0.29811 15.17579,-1.0957 0.88023,-1.16142 2.88867,-7.62644 2.88867,-9.29883 0,-0.70127 -4.35373,-0.99414 -14.80859,-0.99414 z m 6.01953,1.75195 c 2.71737,0 3.45117,0.3295 3.45117,1.54883 0,0.85194 -1.08335,2.2534 -2.4082,3.11328 -2.05442,1.33339 -2.12033,1.48317 -0.43945,1.01953 1.43679,-0.39629 1.9707,-0.1708 1.9707,0.83008 0,1.06357 -0.98612,1.37305 -4.37891,1.37305 -2.40882,0 -4.3789,-0.3218 -4.3789,-0.71484 0,-0.39306 1.65841,-1.6478 3.68554,-2.78711 2.02716,-1.13932 3.19572,-2.23424 2.59766,-2.4336 -0.59805,-0.19934 -1.62942,0.088 -2.29297,0.63868 -0.82826,0.6874 -1.3857,0.71453 -1.77539,0.084 -1.0293,-1.66543 0.46525,-2.67188 3.96875,-2.67188 z m 16.13086,0 c 4.32982,0 4.87605,0.99001 3.10938,5.63672 -0.74326,1.95495 -1.3699,2.24805 -4.81836,2.24805 -4.32982,0 -4.87606,-0.99001 -3.10937,-5.63672 0.74325,-1.95495 1.36989,-2.24805 4.81835,-2.24805 z m 0.93165,1.85743 c -0.28634,-0.0202 -0.66269,0.008 -1.14649,0.0664 -1.33527,0.1615 -2.48722,1.04313 -2.92578,2.23828 -0.64296,1.75213 -0.44686,1.97071 1.77344,1.97071 1.98246,0 2.58631,-0.46243 2.92578,-2.23828 0.28189,-1.4744 0.23205,-1.97651 -0.62695,-2.03711 z m -10.54493,3.39843 c 0.72265,0 1.3125,0.59183 1.3125,1.31446 0,0.72265 -0.58985,1.31445 -1.3125,1.31445 -0.72265,0 -1.31445,-0.5918 -1.31445,-1.31445 0,-0.72263 0.5918,-1.31446 1.31445,-1.31446 z"
         style="fill:#82c13b;fill-opacity:1;stroke-width:0.87593585" />
    </g>
    <path
       style="fill:url(#linearGradient1501);fill-opacity:1;stroke:none;stroke-width:0.61070579px;stroke-linecap:butt;stroke-linejoin:miter;stroke-opacity:1"
       d="M 35.832031,198.9 0,228.16384 H 0.3515625 C 0.15709679,228.16384 0,228.29482 0,228.45695 v 5.24994 C 0,233.86902 0.15709679,234 0.3515625,234 H 323.64844 C 323.8429,234 324,233.86902 324,233.70689 v -5.24994 c 0,-0.16213 -0.1571,-0.29311 -0.35156,-0.29311 H 324 L 251.83203,198.9 216,228.16384 143.83203,198.9 108,228.16384 Z"
       id="path1479"
       inkscape:connector-curvature="0" />
    <path
       style="fill:url(#linearGradient1499);fill-opacity:1;stroke:none;stroke-width:0.61070585px;stroke-linecap:butt;stroke-linejoin:miter;stroke-opacity:1"
       d="M 0.3515625,0 C 0.15709679,0 0,0.1309774 0,0.29311065 V 5.5430481 C 0,5.7051813 0.15709679,5.8361587 0.3515625,5.8361587 H 0 L 72.167969,35.1 108,5.8361587 180.16797,35.1 216,5.8361587 288.16797,35.1 324,5.8361587 h -0.35156 C 323.8429,5.8361587 324,5.7051813 324,5.5430481 V 0.29311065 C 324,0.1309774 323.8429,0 323.64844,0 Z"
       id="path1485"
       inkscape:connector-curvature="0" />
  </g>
</svg>
