<?xml version="1.0" encoding="UTF-8"?>
<svg xmlns="http://www.w3.org/2000/svg" xmlns:xlink="http://www.w3.org/1999/xlink" width="324px" height="234px" viewBox="0 0 324 234" version="1.1">
<g id="surface1">
<rect x="0" y="0" width="324" height="234" style="fill:rgb(92.54902%,92.54902%,92.54902%);fill-opacity:1;stroke:none;"/>
<path style="fill:none;stroke-width:1.021703;stroke-linecap:butt;stroke-linejoin:miter;stroke:rgb(100%,100%,100%);stroke-opacity:1;stroke-miterlimit:4;" d="M -0.94401 -1.082899 L 181.217448 -1.082899 L 181.217448 130.605469 L -0.94401 130.605469 Z M -0.94401 -1.082899 " transform="matrix(1.8,0,0,1.8,0,0)"/>
<path style=" stroke:none;fill-rule:evenodd;fill:rgb(21.176471%,27.058825%,28.235295%);fill-opacity:1;" d="M 98.167969 165.5625 L 98.167969 153.550781 C 98.167969 151.972656 99.152344 150.703125 100.785156 150.703125 L 101.234375 150.703125 C 102.867188 150.703125 103.847656 151.972656 103.847656 153.550781 L 103.847656 178.84375 C 103.847656 185.011719 100.804688 189.917969 95.507812 193.042969 C 93.078125 194.484375 90.308594 195.242188 87.488281 195.234375 L 86.363281 195.234375 C 80.207031 195.234375 75.316406 192.1875 72.191406 186.878906 C 70.75 184.449219 69.996094 181.671875 70.003906 178.84375 L 70.003906 177.714844 C 70.003906 171.546875 73.046875 166.640625 78.339844 163.507812 C 80.769531 162.066406 83.539062 161.308594 86.363281 161.316406 L 87.488281 161.316406 C 91.652344 161.316406 95.1875 162.9375 98.167969 165.5625 Z M 75.679688 178.277344 C 75.679688 182.734375 77.835938 186.082031 81.730469 188.21875 C 83.308594 189.082031 85.015625 189.546875 86.8125 189.546875 C 91.179688 189.546875 94.414062 187.484375 96.648438 183.777344 C 97.683594 182.054688 98.167969 180.167969 98.167969 178.164062 C 98.167969 174.300781 96.34375 171.285156 93.238281 169.046875 C 91.355469 167.691406 89.238281 167.011719 86.925781 167.011719 C 82.167969 167.011719 78.746094 169.417969 76.691406 173.695312 C 75.996094 175.144531 75.679688 176.679688 75.679688 178.277344 Z M 123.542969 161.316406 L 124.328125 161.316406 C 130.90625 161.316406 135.910156 164.515625 139.078125 170.269531 C 140.347656 172.570312 141.027344 175.082031 141.027344 177.714844 L 141.027344 178.84375 C 141.027344 185.011719 137.992188 189.925781 132.683594 193.042969 C 130.226562 194.488281 127.515625 195.234375 124.667969 195.234375 L 123.542969 195.234375 C 117.386719 195.234375 112.496094 192.1875 109.371094 186.878906 C 107.929688 184.449219 107.171875 181.671875 107.183594 178.84375 L 107.183594 177.714844 C 107.183594 171.546875 110.238281 166.65625 115.519531 163.511719 C 117.972656 162.050781 120.6875 161.316406 123.542969 161.316406 Z M 112.859375 178.277344 C 112.859375 182.601562 114.976562 185.785156 118.621094 188.019531 C 120.332031 189.070312 122.21875 189.546875 124.21875 189.546875 C 128.484375 189.546875 131.632812 187.378906 133.828125 183.773438 C 134.875 182.054688 135.347656 180.164062 135.347656 178.164062 C 135.347656 174.140625 133.414062 171.070312 130.109375 168.84375 C 128.300781 167.621094 126.285156 167.011719 124.105469 167.011719 C 119.347656 167.011719 115.925781 169.417969 113.871094 173.695312 C 113.175781 175.144531 112.859375 176.679688 112.859375 178.277344 Z M 164.628906 167.464844 C 163.769531 167.0625 162.164062 166.929688 161.238281 166.894531 C 156.496094 166.714844 153.0625 169.390625 151.050781 173.585938 C 150.355469 175.03125 150.039062 176.5625 150.039062 178.164062 C 150.039062 183.035156 152.589844 186.449219 156.933594 188.527344 C 158.515625 189.285156 160.566406 189.429688 162.296875 189.429688 C 163.820312 189.429688 165.976562 188.496094 167.328125 187.851562 L 167.5625 187.738281 L 168.613281 187.738281 L 168.726562 187.761719 C 170.019531 188.03125 170.992188 188.851562 170.992188 190.246094 L 170.992188 190.808594 C 170.992188 194.273438 164.675781 195.066406 162.265625 195.234375 C 153.757812 195.824219 147.398438 191.140625 144.972656 183.011719 C 144.550781 181.601562 144.363281 180.199219 144.363281 178.726562 L 144.363281 177.601562 C 144.363281 171.429688 147.417969 166.542969 152.695312 163.402344 C 155.152344 161.941406 157.867188 161.207031 160.71875 161.207031 L 161.84375 161.207031 C 164.871094 161.207031 167.660156 162.066406 170.15625 163.777344 L 170.363281 163.917969 L 170.492188 164.132812 C 170.761719 164.582031 170.992188 165.101562 170.992188 165.632812 L 170.992188 166.195312 C 170.992188 167.648438 169.910156 168.429688 168.601562 168.683594 L 168.492188 168.699219 L 168.15625 168.699219 C 167.308594 168.699219 165.382812 167.820312 164.628906 167.464844 Z M 183.042969 171.316406 C 185.246094 169.105469 187.460938 166.894531 189.699219 164.71875 C 190.320312 164.113281 192.683594 161.542969 193.613281 161.542969 L 194.628906 161.542969 L 194.746094 161.566406 C 196.042969 161.835938 197.011719 162.660156 197.011719 164.054688 L 197.011719 164.617188 C 197.011719 165.566406 195.898438 166.671875 195.285156 167.324219 C 193.980469 168.710938 192.609375 170.050781 191.273438 171.40625 L 184.414062 178.382812 C 187.367188 181.351562 190.316406 184.320312 193.246094 187.308594 C 194.058594 188.132812 194.867188 188.964844 195.664062 189.800781 C 195.949219 190.097656 196.363281 190.46875 196.601562 190.882812 C 196.855469 191.265625 197.011719 191.703125 197.011719 192.167969 L 197.011719 192.753906 L 196.976562 192.890625 C 196.660156 194.1875 195.835938 195.234375 194.402344 195.234375 L 193.949219 195.234375 C 193.011719 195.234375 191.949219 194.171875 191.304688 193.5625 C 189.980469 192.308594 188.699219 190.992188 187.402344 189.714844 L 183.042969 185.425781 L 183.042969 192.277344 C 183.042969 193.855469 182.054688 195.125 180.425781 195.125 L 179.980469 195.125 C 178.347656 195.125 177.363281 193.855469 177.363281 192.277344 L 177.363281 153.660156 C 177.363281 152.082031 178.351562 150.820312 179.980469 150.820312 L 180.425781 150.820312 C 182.054688 150.820312 183.042969 152.082031 183.042969 153.660156 Z M 253.800781 161.542969 L 254.363281 161.542969 C 256.066406 161.542969 257.203125 162.691406 257.203125 164.390625 C 257.203125 166.746094 254.957031 167.347656 253.011719 167.347656 C 250.464844 167.347656 248.027344 168.894531 246.269531 170.628906 C 244.078125 172.796875 243.121094 175.566406 243.121094 178.617188 L 243.121094 192.390625 C 243.121094 193.96875 242.136719 195.234375 240.503906 195.234375 L 240.058594 195.234375 C 238.425781 195.234375 237.441406 193.96875 237.441406 192.390625 L 237.441406 177.824219 C 237.441406 172.234375 240.160156 167.667969 244.6875 164.464844 C 247.390625 162.554688 250.488281 161.542969 253.800781 161.542969 Z M 213.449219 188.839844 C 215.515625 189.5625 217.871094 189.457031 219.992188 189.089844 C 221.074219 188.625 223.847656 187.414062 224.867188 187.589844 L 225.027344 187.617188 L 225.171875 187.691406 C 225.796875 187.992188 226.390625 188.421875 226.707031 189.054688 C 227.453125 190.542969 227.09375 192.042969 225.636719 192.886719 L 225.148438 193.167969 C 219.765625 196.28125 214.035156 195.851562 208.667969 192.941406 C 206.101562 191.550781 204.136719 189.488281 202.6875 186.96875 L 202.351562 186.382812 C 198.894531 180.382812 199.359375 174.070312 203.257812 168.367188 C 204.605469 166.394531 206.363281 164.871094 208.421875 163.679688 L 209.199219 163.226562 C 214.269531 160.292969 219.707031 160.496094 224.914062 163.070312 C 227.714844 164.453125 229.984375 166.519531 231.546875 169.234375 L 231.828125 169.722656 C 232.964844 171.695312 231.496094 173.414062 229.976562 174.585938 C 228.210938 175.949219 226.433594 177.589844 224.742188 179.050781 C 220.976562 182.308594 217.214844 185.578125 213.449219 188.839844 Z M 208.574219 185.40625 C 212.785156 181.785156 217 178.164062 221.203125 174.527344 C 222.640625 173.289062 224.214844 172 225.636719 170.695312 C 224.496094 169.25 222.585938 168.210938 220.964844 167.589844 C 217.6875 166.339844 214.460938 166.761719 211.457031 168.496094 C 207.527344 170.773438 205.851562 174.394531 205.996094 178.902344 C 206.054688 180.675781 206.53125 182.386719 207.472656 183.898438 C 207.804688 184.429688 208.175781 184.929688 208.574219 185.40625 Z M 177.933594 71.398438 L 194.6875 71.398438 L 194.6875 88.5625 L 203.160156 88.5625 C 207.070312 88.5625 211.09375 87.863281 214.800781 86.605469 C 216.621094 85.988281 218.664062 85.125 220.457031 84.042969 C 218.09375 80.949219 216.886719 77.042969 216.53125 73.191406 C 216.046875 67.953125 217.101562 61.132812 220.640625 57.035156 L 222.402344 54.992188 L 224.5 56.683594 C 229.78125 60.9375 234.226562 66.882812 235.007812 73.660156 C 241.371094 71.78125 248.839844 72.226562 254.449219 75.46875 L 256.75 76.800781 L 255.539062 79.167969 C 250.796875 88.441406 240.878906 91.316406 231.1875 90.808594 C 216.683594 127.011719 185.105469 144.152344 146.816406 144.152344 C 127.035156 144.152344 108.886719 136.742188 98.550781 119.152344 L 98.378906 118.867188 L 96.875 115.796875 C 93.382812 108.054688 92.222656 99.574219 93.007812 91.101562 L 93.246094 88.5625 L 107.570312 88.5625 L 107.570312 71.398438 L 124.324219 71.398438 L 124.324219 54.609375 L 157.832031 54.609375 L 157.832031 37.820312 L 177.933594 37.820312 L 177.933594 71.398438 "/>
<path style=" stroke:none;fill-rule:evenodd;fill:rgb(13.333334%,62.7451%,78.431374%);fill-opacity:1;" d="M 232.210938 77.75 C 233.335938 69 226.804688 62.128906 222.75 58.863281 C 218.082031 64.273438 217.355469 78.453125 224.683594 84.421875 C 220.59375 88.0625 211.980469 91.359375 203.160156 91.359375 L 95.789062 91.359375 C 94.933594 100.585938 96.550781 109.082031 100.242188 116.355469 L 101.460938 118.59375 C 102.234375 119.910156 103.082031 121.179688 103.992188 122.402344 C 108.40625 122.683594 112.476562 122.78125 116.203125 122.699219 C 123.519531 122.539062 129.492188 121.671875 134.015625 120.101562 C 134.679688 119.894531 135.390625 120.253906 135.617188 120.914062 C 135.847656 121.570312 135.511719 122.292969 134.859375 122.542969 C 134.257812 122.753906 133.632812 122.949219 132.984375 123.132812 L 132.980469 123.132812 C 129.417969 124.15625 125.597656 124.839844 120.667969 125.144531 C 120.960938 125.148438 120.363281 125.1875 120.363281 125.1875 C 120.195312 125.199219 119.984375 125.222656 119.8125 125.234375 C 117.875 125.34375 115.78125 125.363281 113.640625 125.363281 C 111.296875 125.363281 108.992188 125.320312 106.414062 125.1875 L 106.347656 125.234375 C 115.292969 135.308594 129.28125 141.351562 146.816406 141.351562 C 183.925781 141.351562 215.398438 124.867188 229.339844 87.859375 C 239.226562 88.875 248.730469 86.347656 253.050781 77.890625 C 246.167969 73.910156 237.3125 75.179688 232.210938 77.75 "/>
<path style=" stroke:none;fill-rule:evenodd;fill:rgb(21.568628%,69.411767%,85.09804%);fill-opacity:1;" d="M 232.210938 77.75 C 233.335938 69 226.804688 62.128906 222.75 58.863281 C 218.082031 64.273438 217.355469 78.453125 224.683594 84.421875 C 220.59375 88.0625 211.980469 91.359375 203.160156 91.359375 L 102.148438 91.359375 C 101.710938 105.488281 106.941406 116.214844 116.199219 122.699219 L 116.203125 122.699219 C 123.519531 122.539062 129.492188 121.671875 134.015625 120.101562 C 134.679688 119.894531 135.390625 120.253906 135.617188 120.914062 C 135.847656 121.570312 135.511719 122.292969 134.859375 122.542969 C 134.257812 122.753906 133.632812 122.949219 132.984375 123.132812 L 132.980469 123.132812 C 129.417969 124.15625 125.269531 124.929688 120.339844 125.234375 C 120.339844 125.234375 120.21875 125.117188 120.21875 125.117188 C 132.847656 131.609375 151.160156 131.585938 172.152344 123.507812 C 195.695312 114.441406 217.601562 97.175781 232.882812 77.429688 C 232.65625 77.53125 232.429688 77.640625 232.210938 77.75 "/>
<path style=" stroke:none;fill-rule:evenodd;fill:rgb(10.588235%,50.588238%,64.705884%);fill-opacity:1;" d="M 95.992188 102.570312 C 96.660156 107.511719 98.101562 112.140625 100.242188 116.355469 L 101.460938 118.59375 C 102.234375 119.910156 103.082031 121.179688 103.992188 122.402344 C 108.410156 122.683594 112.480469 122.78125 116.203125 122.699219 C 123.519531 122.539062 129.492188 121.671875 134.015625 120.101562 C 134.679688 119.894531 135.390625 120.253906 135.617188 120.914062 C 135.847656 121.570312 135.511719 122.292969 134.859375 122.542969 C 134.257812 122.753906 133.632812 122.949219 132.984375 123.132812 L 132.980469 123.132812 C 129.417969 124.15625 125.289062 124.882812 120.363281 125.191406 C 120.191406 125.199219 119.898438 125.203125 119.726562 125.210938 C 117.789062 125.320312 115.714844 125.386719 113.574219 125.386719 C 111.234375 125.386719 108.839844 125.34375 106.261719 125.210938 C 115.207031 135.289062 129.28125 141.351562 146.816406 141.351562 C 178.585938 141.351562 206.222656 129.269531 222.265625 102.570312 L 95.992188 102.570312 "/>
<path style=" stroke:none;fill-rule:evenodd;fill:rgb(11.372549%,56.862748%,70.588237%);fill-opacity:1;" d="M 103.113281 102.570312 C 105.011719 111.25 109.578125 118.0625 116.203125 122.699219 C 123.519531 122.539062 129.492188 121.671875 134.015625 120.101562 C 134.679688 119.894531 135.390625 120.253906 135.617188 120.914062 C 135.847656 121.570312 135.511719 122.292969 134.859375 122.542969 C 134.257812 122.753906 133.632812 122.949219 132.984375 123.132812 L 132.980469 123.132812 C 129.417969 124.15625 125.203125 124.882812 120.273438 125.191406 C 132.902344 131.679688 151.160156 131.585938 172.152344 123.507812 C 184.855469 118.617188 197.078125 111.335938 208.042969 102.570312 L 103.113281 102.570312 "/>
<path style=" stroke:none;fill-rule:evenodd;fill:rgb(13.725491%,63.921571%,76.078433%);fill-opacity:1;" d="M 110.363281 74.195312 L 124.882812 74.195312 L 124.882812 88.746094 L 110.363281 88.746094 Z M 111.574219 75.410156 L 112.71875 75.410156 L 112.71875 87.535156 L 111.574219 87.535156 Z M 113.726562 75.410156 L 114.917969 75.410156 L 114.917969 87.535156 L 113.726562 87.535156 Z M 115.925781 75.410156 L 117.117188 75.410156 L 117.117188 87.535156 L 115.925781 87.535156 Z M 118.125 75.410156 L 119.316406 75.410156 L 119.316406 87.535156 L 118.125 87.535156 Z M 120.328125 75.410156 L 121.519531 75.410156 L 121.519531 87.535156 L 120.328125 87.535156 Z M 122.527344 75.410156 L 123.671875 75.410156 L 123.671875 87.535156 L 122.527344 87.535156 Z M 127.117188 57.410156 L 141.636719 57.410156 L 141.636719 71.957031 L 127.117188 71.957031 Z M 128.328125 58.621094 L 129.472656 58.621094 L 129.472656 70.746094 L 128.328125 70.746094 Z M 130.480469 58.621094 L 131.671875 58.621094 L 131.671875 70.746094 L 130.480469 70.746094 Z M 132.679688 58.621094 L 133.871094 58.621094 L 133.871094 70.746094 L 132.679688 70.746094 Z M 134.878906 58.621094 L 136.070312 58.621094 L 136.070312 70.746094 L 134.878906 70.746094 Z M 137.082031 58.621094 L 138.273438 58.621094 L 138.273438 70.746094 L 137.082031 70.746094 Z M 139.28125 58.621094 L 140.425781 58.621094 L 140.425781 70.746094 L 139.28125 70.746094 Z M 139.28125 58.621094 "/>
<path style=" stroke:none;fill-rule:evenodd;fill:rgb(20.392157%,73.333335%,87.058824%);fill-opacity:1;" d="M 127.117188 74.195312 L 141.636719 74.195312 L 141.636719 88.746094 L 127.117188 88.746094 Z M 128.328125 75.410156 L 129.472656 75.410156 L 129.472656 87.535156 L 128.328125 87.535156 Z M 130.480469 75.410156 L 131.671875 75.410156 L 131.671875 87.535156 L 130.480469 87.535156 Z M 132.679688 75.410156 L 133.871094 75.410156 L 133.871094 87.535156 L 132.679688 87.535156 Z M 134.878906 75.410156 L 136.070312 75.410156 L 136.070312 87.535156 L 134.878906 87.535156 Z M 137.082031 75.410156 L 138.273438 75.410156 L 138.273438 87.535156 L 137.082031 87.535156 Z M 139.28125 75.410156 L 140.425781 75.410156 L 140.425781 87.535156 L 139.28125 87.535156 Z M 139.28125 75.410156 "/>
<path style=" stroke:none;fill-rule:evenodd;fill:rgb(13.725491%,63.921571%,76.078433%);fill-opacity:1;" d="M 143.871094 74.195312 L 158.390625 74.195312 L 158.390625 88.746094 L 143.871094 88.746094 Z M 145.078125 75.410156 L 146.226562 75.410156 L 146.226562 87.535156 L 145.078125 87.535156 Z M 147.234375 75.410156 L 148.425781 75.410156 L 148.425781 87.535156 L 147.234375 87.535156 Z M 149.433594 75.410156 L 150.625 75.410156 L 150.625 87.535156 L 149.433594 87.535156 Z M 151.632812 75.410156 L 152.824219 75.410156 L 152.824219 87.535156 L 151.632812 87.535156 Z M 153.832031 75.410156 L 155.027344 75.410156 L 155.027344 87.535156 L 153.832031 87.535156 Z M 156.035156 75.410156 L 157.179688 75.410156 L 157.179688 87.535156 L 156.035156 87.535156 Z M 156.035156 75.410156 "/>
<path style=" stroke:none;fill-rule:evenodd;fill:rgb(20.392157%,73.333335%,87.058824%);fill-opacity:1;" d="M 143.871094 57.410156 L 158.390625 57.410156 L 158.390625 71.957031 L 143.871094 71.957031 Z M 145.078125 58.621094 L 146.226562 58.621094 L 146.226562 70.746094 L 145.078125 70.746094 Z M 147.234375 58.621094 L 148.425781 58.621094 L 148.425781 70.746094 L 147.234375 70.746094 Z M 149.433594 58.621094 L 150.625 58.621094 L 150.625 70.746094 L 149.433594 70.746094 Z M 151.632812 58.621094 L 152.824219 58.621094 L 152.824219 70.746094 L 151.632812 70.746094 Z M 153.832031 58.621094 L 155.027344 58.621094 L 155.027344 70.746094 L 153.832031 70.746094 Z M 156.035156 58.621094 L 157.179688 58.621094 L 157.179688 70.746094 L 156.035156 70.746094 Z M 160.625 74.195312 L 175.144531 74.195312 L 175.144531 88.746094 L 160.625 88.746094 Z M 161.832031 75.410156 L 162.980469 75.410156 L 162.980469 87.535156 L 161.832031 87.535156 Z M 163.988281 75.410156 L 165.179688 75.410156 L 165.179688 87.535156 L 163.988281 87.535156 Z M 166.1875 75.410156 L 167.378906 75.410156 L 167.378906 87.535156 L 166.1875 87.535156 Z M 168.386719 75.410156 L 169.578125 75.410156 L 169.578125 87.535156 L 168.386719 87.535156 Z M 170.585938 75.410156 L 171.78125 75.410156 L 171.78125 87.535156 L 170.585938 87.535156 Z M 172.789062 75.410156 L 173.933594 75.410156 L 173.933594 87.535156 L 172.789062 87.535156 Z M 172.789062 75.410156 "/>
<path style=" stroke:none;fill-rule:evenodd;fill:rgb(13.725491%,63.921571%,76.078433%);fill-opacity:1;" d="M 160.625 57.410156 L 175.144531 57.410156 L 175.144531 71.957031 L 160.625 71.957031 Z M 161.832031 58.621094 L 162.980469 58.621094 L 162.980469 70.746094 L 161.832031 70.746094 Z M 163.988281 58.621094 L 165.179688 58.621094 L 165.179688 70.746094 L 163.988281 70.746094 Z M 166.1875 58.621094 L 167.378906 58.621094 L 167.378906 70.746094 L 166.1875 70.746094 Z M 168.386719 58.621094 L 169.578125 58.621094 L 169.578125 70.746094 L 168.386719 70.746094 Z M 170.585938 58.621094 L 171.78125 58.621094 L 171.78125 70.746094 L 170.585938 70.746094 Z M 172.789062 58.621094 L 173.933594 58.621094 L 173.933594 70.746094 L 172.789062 70.746094 Z M 172.789062 58.621094 "/>
<path style=" stroke:none;fill-rule:evenodd;fill:rgb(20.392157%,73.333335%,87.058824%);fill-opacity:1;" d="M 160.625 40.617188 L 175.144531 40.617188 L 175.144531 55.171875 L 160.625 55.171875 Z M 161.832031 41.832031 L 162.980469 41.832031 L 162.980469 53.957031 L 161.832031 53.957031 Z M 163.988281 41.832031 L 165.179688 41.832031 L 165.179688 53.957031 L 163.988281 53.957031 Z M 166.1875 41.832031 L 167.378906 41.832031 L 167.378906 53.957031 L 166.1875 53.957031 Z M 168.386719 41.832031 L 169.578125 41.832031 L 169.578125 53.957031 L 168.386719 53.957031 Z M 170.585938 41.832031 L 171.78125 41.832031 L 171.78125 53.957031 L 170.585938 53.957031 Z M 172.789062 41.832031 L 173.933594 41.832031 L 173.933594 53.957031 L 172.789062 53.957031 Z M 172.789062 41.832031 "/>
<path style=" stroke:none;fill-rule:evenodd;fill:rgb(13.725491%,63.921571%,76.078433%);fill-opacity:1;" d="M 177.375 74.195312 L 191.894531 74.195312 L 191.894531 88.746094 L 177.375 88.746094 Z M 178.585938 75.410156 L 179.730469 75.410156 L 179.730469 87.535156 L 178.585938 87.535156 Z M 180.738281 75.410156 L 181.929688 75.410156 L 181.929688 87.535156 L 180.738281 87.535156 Z M 182.941406 75.410156 L 184.132812 75.410156 L 184.132812 87.535156 L 182.941406 87.535156 Z M 185.140625 75.410156 L 186.332031 75.410156 L 186.332031 87.535156 L 185.140625 87.535156 Z M 187.339844 75.410156 L 188.53125 75.410156 L 188.53125 87.535156 L 187.339844 87.535156 Z M 189.539062 75.410156 L 190.6875 75.410156 L 190.6875 87.535156 L 189.539062 87.535156 Z M 189.539062 75.410156 "/>
<path style=" stroke:none;fill-rule:evenodd;fill:rgb(82.745099%,92.54902%,92.54902%);fill-opacity:1;" d="M 140.726562 112.339844 C 142.171875 112.320312 143.515625 113.082031 144.242188 114.332031 C 144.96875 115.582031 144.96875 117.128906 144.242188 118.378906 C 143.511719 119.628906 142.171875 120.386719 140.726562 120.367188 C 138.535156 120.335938 136.773438 118.550781 136.773438 116.351562 C 136.773438 114.15625 138.535156 112.367188 140.726562 112.339844 "/>
<path style=" stroke:none;fill-rule:evenodd;fill:rgb(21.176471%,27.058825%,28.235295%);fill-opacity:1;" d="M 140.726562 113.476562 C 141.09375 113.476562 141.441406 113.546875 141.765625 113.671875 C 141.308594 113.9375 141.085938 114.480469 141.222656 114.992188 C 141.359375 115.503906 141.820312 115.859375 142.351562 115.859375 C 142.792969 115.859375 143.179688 115.613281 143.378906 115.25 C 143.863281 116.417969 143.527344 117.769531 142.550781 118.574219 C 141.574219 119.378906 140.1875 119.445312 139.136719 118.742188 C 138.085938 118.039062 137.617188 116.730469 137.984375 115.519531 C 138.347656 114.308594 139.464844 113.476562 140.726562 113.476562 M 69.875 104.019531 L 256.214844 104.019531 C 252.15625 102.988281 243.375 101.597656 244.824219 96.265625 C 237.445312 104.820312 219.65625 102.269531 215.164062 98.050781 C 210.164062 105.320312 181.054688 102.554688 179.027344 96.894531 C 172.757812 104.265625 153.332031 104.265625 147.0625 96.894531 C 145.03125 102.554688 115.925781 105.320312 110.925781 98.050781 C 106.433594 102.269531 88.644531 104.820312 81.265625 96.269531 C 82.714844 101.597656 73.933594 102.988281 69.875 104.019531 "/>
<path style=" stroke:none;fill-rule:evenodd;fill:rgb(74.117649%,85.09804%,84.313726%);fill-opacity:1;" d="M 151.375 141.265625 C 141.453125 136.546875 136.011719 130.136719 132.980469 123.136719 C 129.296875 124.1875 124.867188 124.863281 119.71875 125.152344 C 117.78125 125.261719 115.742188 125.316406 113.601562 125.316406 C 111.132812 125.316406 108.535156 125.242188 105.804688 125.097656 C 114.902344 134.210938 126.09375 141.226562 146.816406 141.351562 C 148.347656 141.351562 149.863281 141.324219 151.375 141.265625 "/>
<path style=" stroke:none;fill-rule:evenodd;fill:rgb(82.745099%,92.54902%,92.54902%);fill-opacity:1;" d="M 136.664062 129.59375 C 135.292969 127.726562 133.960938 125.382812 132.984375 123.132812 C 129.296875 124.1875 124.867188 124.863281 119.71875 125.152344 C 123.253906 127.074219 128.3125 128.859375 136.667969 129.59375 "/>
</g>
</svg>
