<?xml version="1.0" encoding="UTF-8" standalone="no"?>
<svg
   xmlns:dc="http://purl.org/dc/elements/1.1/"
   xmlns:cc="http://creativecommons.org/ns#"
   xmlns:rdf="http://www.w3.org/1999/02/22-rdf-syntax-ns#"
   xmlns:svg="http://www.w3.org/2000/svg"
   xmlns="http://www.w3.org/2000/svg"
   xmlns:xlink="http://www.w3.org/1999/xlink"
   xmlns:sodipodi="http://sodipodi.sourceforge.net/DTD/sodipodi-0.dtd"
   xmlns:inkscape="http://www.inkscape.org/namespaces/inkscape"
   width="324px"
   height="234px"
   viewBox="0 0 324 234"
   version="1.1"
   id="svg18"
   sodipodi:docname="debreate.svg"
   inkscape:version="0.92.4 (5da689c313, 2019-01-14)">
  <metadata
     id="metadata22">
    <rdf:RDF>
      <cc:Work
         rdf:about="">
        <dc:format>image/svg+xml</dc:format>
        <dc:type
           rdf:resource="http://purl.org/dc/dcmitype/StillImage" />
        <dc:title />
      </cc:Work>
    </rdf:RDF>
  </metadata>
  <sodipodi:namedview
     pagecolor="#ffffff"
     bordercolor="#666666"
     borderopacity="1"
     objecttolerance="10"
     gridtolerance="10"
     guidetolerance="10"
     inkscape:pageopacity="0"
     inkscape:pageshadow="2"
     inkscape:window-width="1152"
     inkscape:window-height="752"
     id="namedview20"
     showgrid="false"
     inkscape:pagecheckerboard="true"
     inkscape:zoom="1.008547"
     inkscape:cx="174.38167"
     inkscape:cy="114.32325"
     inkscape:window-x="0"
     inkscape:window-y="0"
     inkscape:window-maximized="1"
     inkscape:current-layer="layer1"
     inkscape:snap-bbox="true"
     inkscape:bbox-paths="true"
     inkscape:snap-bbox-edge-midpoints="true"
     inkscape:bbox-nodes="true"
     inkscape:snap-bbox-midpoints="true"
     inkscape:snap-intersection-paths="true"
     inkscape:object-paths="true"
     inkscape:snap-midpoints="true"
     inkscape:snap-smooth-nodes="true" />
  <defs
     id="defs7">
    <linearGradient
       inkscape:collect="always"
       id="linearGradient908">
      <stop
         style="stop-color:#ff5786;stop-opacity:1"
         offset="0"
         id="stop904" />
      <stop
         style="stop-color:#ff1f5e;stop-opacity:1"
         offset="1"
         id="stop906" />
    </linearGradient>
    <linearGradient
       inkscape:collect="always"
       id="linearGradient900">
      <stop
         style="stop-color:#ff5786;stop-opacity:1"
         offset="0"
         id="stop896" />
      <stop
         style="stop-color:#ff1f5e;stop-opacity:0.92682928"
         offset="1"
         id="stop898" />
    </linearGradient>
    <linearGradient
       gradientTransform="matrix(4.063174,0,0,3.913405,-102.64159,-25.765805)"
       y2="66.378464"
       x2="105.00204"
       y1="47.595863"
       x1="25.261431"
       gradientUnits="userSpaceOnUse"
       id="linearGradient846">
      <stop
         id="stop842"
         style="stop-color:#4058e2;stop-opacity:1"
         offset="0" />
      <stop
         id="stop844"
         style="stop-color:#b9013b;stop-opacity:1"
         offset="1" />
    </linearGradient>
    <linearGradient
       id="linearGradient907"
       gradientUnits="userSpaceOnUse"
       x1="25.261431"
       y1="47.595863"
       x2="105.00204"
       y2="66.378464"
       gradientTransform="matrix(4.063174,0,0,3.913405,-102.64159,-25.765805)">
      <stop
         offset="0"
         style="stop-color:#1f46ff;stop-opacity:0"
         id="stop903" />
      <stop
         offset="1"
         style="stop-color:#df8aff;stop-opacity:1"
         id="stop905" />
    </linearGradient>
    <linearGradient
       gradientTransform="matrix(4.063174,0,0,3.913405,-102.64159,-25.765805)"
       y2="66.378464"
       x2="105.00204"
       y1="47.595863"
       x1="25.261431"
       gradientUnits="userSpaceOnUse"
       id="linearGradient896">
      <stop
         id="stop892"
         style="stop-color:#661fff;stop-opacity:0"
         offset="0" />
      <stop
         id="stop894"
         style="stop-color:#df8aff;stop-opacity:1"
         offset="1" />
    </linearGradient>
    <linearGradient
       id="linear0"
       gradientUnits="userSpaceOnUse"
       x1="25.261431"
       y1="6.5839863"
       x2="105.00204"
       y2="66.378464"
       gradientTransform="matrix(4.063174,0,0,3.913405,-102.64159,-25.765805)">
      <stop
         offset="0"
         style="stop-color:#1831da;stop-opacity:1"
         id="stop2" />
      <stop
         offset="1"
         style="stop-color:#b7cffa;stop-opacity:1"
         id="stop4" />
    </linearGradient>
    <linearGradient
       id="linear0-3"
       gradientUnits="userSpaceOnUse"
       x1="25.261431"
       y1="47.595863"
       x2="105.00204"
       y2="66.378464"
       gradientTransform="matrix(4.063174,0,0,3.913405,-102.64159,-25.765805)">
      <stop
         offset="0"
         style="stop-color:#661fff;stop-opacity:1"
         id="stop2-6" />
      <stop
         offset="1"
         style="stop-color:#bb0035;stop-opacity:1"
         id="stop4-7" />
    </linearGradient>
    <linearGradient
       inkscape:collect="always"
       xlink:href="#linearGradient896"
       id="linearGradient885"
       gradientUnits="userSpaceOnUse"
       gradientTransform="matrix(4.063174,0,0,3.913405,-102.64159,-65.765805)"
       x1="66.602646"
       y1="30.819595"
       x2="66.602646"
       y2="62.365814" />
    <linearGradient
       inkscape:collect="always"
       xlink:href="#linearGradient907"
       id="linearGradient901"
       gradientUnits="userSpaceOnUse"
       gradientTransform="matrix(4.063174,0,0,3.913405,-102.64159,-99.269715)"
       x1="66.602646"
       y1="30.819595"
       x2="66.602646"
       y2="62.365814" />
    <linearGradient
       inkscape:collect="always"
       xlink:href="#linear0-3"
       id="linearGradient843"
       x1="96.282417"
       y1="117"
       x2="227.71758"
       y2="117"
       gradientUnits="userSpaceOnUse" />
    <linearGradient
       inkscape:collect="always"
       xlink:href="#linearGradient846"
       id="linearGradient886"
       x1="91.025391"
       y1="50.335938"
       x2="168.18945"
       y2="183.66406"
       gradientUnits="userSpaceOnUse" />
    <linearGradient
       inkscape:collect="always"
       xlink:href="#linear0-3"
       id="linearGradient894"
       x1="91.025391"
       y1="50.335938"
       x2="232.97507"
       y2="183.66406"
       gradientUnits="userSpaceOnUse" />
    <radialGradient
       inkscape:collect="always"
       xlink:href="#linearGradient900"
       id="radialGradient902"
       cx="119.81621"
       cy="102.28138"
       fx="119.81621"
       fy="102.28138"
       r="16.86133"
       gradientTransform="matrix(1.5613461,7.4049062,-3.8686037,0.8157064,328.42776,-911.85187)"
       gradientUnits="userSpaceOnUse" />
    <radialGradient
       inkscape:collect="always"
       xlink:href="#linearGradient908"
       id="radialGradient910"
       cx="181.87442"
       cy="91.094727"
       fx="181.87442"
       fy="91.094727"
       r="29.764704"
       gradientTransform="matrix(0.56545699,3.8787341,-2.0521252,0.29916682,265.97004,-669.41784)"
       gradientUnits="userSpaceOnUse" />
  </defs>
  <g
     id="surface1">
    <rect
       x="0"
       y="0"
       width="324"
       height="234"
       style="fill:url(#linear0);stroke:none"
       id="rect9" />
  </g>
  <g
     inkscape:groupmode="layer"
     id="layer1"
     inkscape:label="jhalo">
    <path
       id="path883"
       d="M 324,86.87109 A 405.53391,155.66949 0 0 0 319.92188,86.11523 405.53391,155.66949 0 0 0 281.84375,80.77929 405.53391,155.66949 0 0 0 242.56641,76.92968 405.53391,155.66949 0 0 0 202.48633,74.60351 405.53391,155.66949 0 0 0 162,73.82617 405.53391,155.66949 0 0 0 133.31445,74.21679 405.53391,155.66949 0 0 0 93.072263,76.09179 405.53391,155.66949 0 0 0 53.519528,79.5 405.53391,155.66949 0 0 0 15.050778,84.40625 405.53391,155.66949 0 0 0 -3e-6,86.99218 v 73.50391 H 324 Z"
       style="fill:url(#linearGradient901);stroke:none"
       inkscape:connector-curvature="0" />
    <path
       inkscape:connector-curvature="0"
       style="fill:url(#linear0-3);stroke:none"
       d="m 324,160.375 a 405.53391,155.66949 0 0 0 -4.07812,-0.75586 405.53391,155.66949 0 0 0 -38.07813,-5.33594 405.53391,155.66949 0 0 0 -39.27734,-3.84961 405.53391,155.66949 0 0 0 -40.08008,-2.32617 A 405.53391,155.66949 0 0 0 162,147.33008 a 405.53391,155.66949 0 0 0 -28.68555,0.39062 405.53391,155.66949 0 0 0 -40.242187,1.875 405.53391,155.66949 0 0 0 -39.552735,3.40821 405.53391,155.66949 0 0 0 -38.46875,4.90625 A 405.53391,155.66949 0 0 0 -3e-6,160.49609 V 234 H 324 Z"
       id="path840" />
    <path
       style="fill:url(#radialGradient910);fill-opacity:1;fill-rule:evenodd;stroke:none;stroke-width:5.4000001;stroke-miterlimit:4;stroke-dasharray:none;stroke-opacity:1"
       d="M 168.18945 178.72656 L 198.70508 178.72656 C 199.51341 178.05869 200.29921 177.37291 201.07422 176.67969 C 201.29512 176.48233 201.51418 176.28336 201.73242 176.08398 C 202.4545 175.42331 203.16682 174.75737 203.85938 174.07422 C 204.11659 173.82109 204.36398 173.56088 204.61719 173.30469 C 205.03657 172.87923 205.45309 172.45152 205.86133 172.01758 C 206.22244 171.63491 206.57915 171.2486 206.93164 170.85938 C 207.13479 170.63429 207.33295 170.40502 207.5332 170.17773 C 209.97239 167.41918 212.20061 164.50061 214.2168 161.41992 C 216.23298 158.33923 218.03675 155.09697 219.62891 151.69336 C 221.22107 148.28975 222.60048 144.72341 223.76758 140.99609 C 224.93468 137.26878 225.88985 133.37994 226.63086 129.32812 C 226.99707 127.33105 227.26996 125.32208 227.45117 123.30859 C 227.63239 121.29511 227.72241 119.27661 227.71875 117.25781 C 227.71509 115.23901 227.6181 113.22003 227.42969 111.20703 C 227.24127 109.19403 226.96095 107.1875 226.58789 105.19141 C 226.09912 102.57129 225.52393 100.0182 224.86328 97.533203 C 224.20263 95.048202 223.4556 92.631165 222.62305 90.28125 C 221.7905 87.931335 220.8736 85.648453 219.86914 83.433594 C 218.86468 81.218735 217.77405 79.072021 216.59766 76.992188 C 215.42126 74.912354 214.15888 72.899917 212.81055 70.955078 C 211.46221 69.010239 210.02811 67.132141 208.50781 65.322266 C 206.98752 63.51239 205.37977 61.770645 203.6875 60.095703 C 201.99523 58.420761 200.21777 56.813477 198.35352 55.273438 L 168.18945 55.273438 L 168.18945 55.460938 C 176.66492 55.460938 183.5293 61.851796 183.5293 69.732422 L 183.5293 164.26758 C 183.5293 172.14822 176.66492 178.53906 168.18945 178.53906 L 168.18945 178.72656 z "
       id="path871" />
    <path
       style="fill:url(#linearGradient894);fill-opacity:1;fill-rule:evenodd;stroke:none;stroke-width:5.4000001;stroke-miterlimit:4;stroke-dasharray:none;stroke-opacity:1"
       d="M 168.18945 50.335938 L 168.18945 55.273438 L 198.35352 55.273438 C 200.21777 56.813477 201.99523 58.420761 203.6875 60.095703 C 205.37977 61.770645 206.98752 63.51239 208.50781 65.322266 C 210.02811 67.132141 211.46221 69.010239 212.81055 70.955078 C 214.15888 72.899917 215.42126 74.912354 216.59766 76.992188 C 217.77405 79.072021 218.86468 81.218735 219.86914 83.433594 C 220.8736 85.648453 221.7905 87.931335 222.62305 90.28125 C 223.4556 92.631165 224.20263 95.048202 224.86328 97.533203 C 225.52393 100.0182 226.09912 102.57129 226.58789 105.19141 C 226.96095 107.1875 227.24127 109.19403 227.42969 111.20703 C 227.6181 113.22003 227.71509 115.23901 227.71875 117.25781 C 227.72241 119.27661 227.63239 121.29511 227.45117 123.30859 C 227.26996 125.32208 226.99707 127.33105 226.63086 129.32812 C 225.88985 133.37994 224.93468 137.26878 223.76758 140.99609 C 222.60048 144.72341 221.22107 148.28975 219.62891 151.69336 C 218.03675 155.09697 216.23298 158.33923 214.2168 161.41992 C 212.20061 164.50061 209.97239 167.41918 207.5332 170.17773 C 207.33295 170.40502 207.13479 170.63429 206.93164 170.85938 C 206.57915 171.2486 206.22244 171.63491 205.86133 172.01758 C 205.45309 172.45152 205.03657 172.87923 204.61719 173.30469 C 204.36398 173.56088 204.11659 173.82109 203.85938 174.07422 C 203.16682 174.75737 202.4545 175.42331 201.73242 176.08398 C 201.51418 176.28336 201.29512 176.48233 201.07422 176.67969 C 200.29921 177.37291 199.51341 178.05869 198.70508 178.72656 L 168.18945 178.72656 L 168.18945 183.66406 L 201.64062 183.66406 C 202.51362 182.94275 203.36221 182.20181 204.19922 181.45312 C 204.43779 181.23997 204.67446 181.02588 204.91016 180.81055 C 205.69 180.09704 206.45909 179.37841 207.20703 178.64062 C 207.48483 178.36724 207.75192 178.08527 208.02539 177.80859 C 208.47832 177.34909 208.92824 176.88858 209.36914 176.41992 C 209.75914 176.00664 210.14471 175.58833 210.52539 175.16797 C 210.7448 174.92488 210.95951 174.67712 211.17578 174.43164 C 221.71306 162.51469 228.59963 147.81831 231.80078 130.31445 C 233.38281 121.68711 233.36547 112.86922 231.75391 104.24609 C 227.53095 81.608281 217.36891 63.641874 201.26172 50.335938 L 168.18945 50.335938 z "
       id="path868" />
    <path
       style="fill:url(#linearGradient886);fill-opacity:1;fill-rule:evenodd;stroke:none;stroke-width:5.4000001;stroke-miterlimit:4;stroke-dasharray:none;stroke-opacity:1"
       d="M 112.41992 50.335938 L 91.025391 50.335938 L 91.025391 55.460938 L 107.5625 55.460938 L 107.5625 151.72266 L 107.5625 178.53906 L 91.025391 178.53906 L 91.025391 183.66406 L 112.41992 183.66406 L 112.41992 50.335938 z "
       id="path866" />
    <path
       style="fill:url(#radialGradient902);fill-opacity:1;fill-rule:evenodd;stroke:none;stroke-width:5.4000001;stroke-miterlimit:4;stroke-dasharray:none;stroke-opacity:1"
       d="M 112.41992 50.335938 L 112.41992 183.66406 L 146.14258 183.66406 L 146.14258 150.43359 L 146.14258 50.335938 L 112.41992 50.335938 z "
       id="path835" />
  </g>
</svg>
