<?xml version="1.0" encoding="UTF-8" standalone="no"?>
<svg
   xmlns:dc="http://purl.org/dc/elements/1.1/"
   xmlns:cc="http://creativecommons.org/ns#"
   xmlns:rdf="http://www.w3.org/1999/02/22-rdf-syntax-ns#"
   xmlns:svg="http://www.w3.org/2000/svg"
   xmlns="http://www.w3.org/2000/svg"
   xmlns:xlink="http://www.w3.org/1999/xlink"
   xmlns:sodipodi="http://sodipodi.sourceforge.net/DTD/sodipodi-0.dtd"
   xmlns:inkscape="http://www.inkscape.org/namespaces/inkscape"
   id="svg8"
   version="1.1"
   viewBox="0 0 85.724998 61.912502"
   height="234"
   width="324"
   sodipodi:docname="topbar.svg"
   inkscape:version="0.92.4 (5da689c313, 2019-01-14)">
  <sodipodi:namedview
     pagecolor="#ffffff"
     bordercolor="#666666"
     borderopacity="1"
     objecttolerance="10"
     gridtolerance="10"
     guidetolerance="10"
     inkscape:pageopacity="0"
     inkscape:pageshadow="2"
     inkscape:window-width="1152"
     inkscape:window-height="744"
     id="namedview34"
     showgrid="false"
     inkscape:zoom="1.008547"
     inkscape:cx="140.94805"
     inkscape:cy="123.4664"
     inkscape:window-x="0"
     inkscape:window-y="0"
     inkscape:window-maximized="1"
     inkscape:current-layer="layer1" />
  <defs
     id="defs2">
    <linearGradient
       id="linearGradient957">
      <stop
         id="stop949"
         offset="0"
         style="stop-color:#0079f2;stop-opacity:1" />
      <stop
         id="stop955"
         offset="1"
         style="stop-color:#004e9d;stop-opacity:1" />
    </linearGradient>
    <linearGradient
       id="linearGradient909">
      <stop
         style="stop-color:#0079f2;stop-opacity:1"
         offset="0"
         id="stop905" />
      <stop
         id="stop911"
         offset="0.43339902"
         style="stop-color:#0051a1;stop-opacity:1" />
      <stop
         style="stop-color:#00458a;stop-opacity:1"
         offset="0.63717282"
         id="stop927" />
      <stop
         style="stop-color:#002c58;stop-opacity:1"
         offset="1"
         id="stop907" />
    </linearGradient>
    <radialGradient
       inkscape:collect="always"
       xlink:href="#linearGradient909"
       id="radialGradient913"
       gradientUnits="userSpaceOnUse"
       gradientTransform="matrix(3.7795274,-1.4142555e-7,1.4444877e-7,3.8603214,-3.8429689e-5,-910.01428)"
       cx="42.862499"
       cy="266.04373"
       fx="42.862499"
       fy="266.04373"
       r="42.862499" />
    <radialGradient
       inkscape:collect="always"
       xlink:href="#linearGradient957"
       id="radialGradient937"
       cx="42.862499"
       cy="266.04373"
       fx="42.862499"
       fy="266.04373"
       r="42.862499"
       gradientTransform="matrix(0.99999997,-0.72222233,0.42285434,0.58549052,-112.49774,141.23391)"
       gradientUnits="userSpaceOnUse" />
  </defs>
  <metadata
     id="metadata5">
    <rdf:RDF>
      <cc:Work
         rdf:about="">
        <dc:format>image/svg+xml</dc:format>
        <dc:type
           rdf:resource="http://purl.org/dc/dcmitype/StillImage" />
        <dc:title />
      </cc:Work>
    </rdf:RDF>
  </metadata>
  <g
     transform="translate(0,-235.08748)"
     id="layer1">
    <rect
       style="opacity:1;fill:url(#radialGradient937);fill-opacity:1;fill-rule:evenodd;stroke:none;stroke-width:0.79374999;stroke-linecap:round;stroke-linejoin:round;stroke-miterlimit:4;stroke-dasharray:none;stroke-dashoffset:0;stroke-opacity:1;paint-order:markers fill stroke"
       id="rect874"
       width="85.724998"
       height="61.912498"
       x="0"
       y="235.08748" />
    <path
       style="opacity:1;fill:url(#radialGradient913);fill-opacity:1;fill-rule:evenodd;stroke:none;stroke-width:3;stroke-linecap:round;stroke-linejoin:round;stroke-miterlimit:4;stroke-dasharray:none;stroke-dashoffset:0;stroke-opacity:1;paint-order:markers fill stroke"
       d="M 0 0 L 0 24.6875 C 9.2402719 25.123922 18.482089 25.559279 27.582031 26.052734 C 37.334082 26.581528 46.935543 27.171758 56.234375 27.884766 C 65.533192 28.597736 74.528848 29.433182 83.072266 30.453125 C 91.615675 31.473068 99.70556 32.677278 107.19141 34.126953 C 110.93431 34.851829 114.52735 35.638834 117.94922 36.494141 C 121.37108 37.349448 124.62251 38.274269 127.68555 39.275391 C 130.74859 40.276512 133.62262 41.353345 136.28906 42.515625 C 138.95551 43.677905 141.41442 44.924888 143.64648 46.263672 C 145.74269 47.520956 147.63164 48.862936 149.3125 50.289062 A 70.000002 68.944175 0 0 0 92 118.05664 A 70.000002 68.944175 0 0 0 100.98633 151.67969 C 97.455638 155.19488 93.824223 158.75158 90.083984 162.35156 C 82.007955 170.12477 73.479907 178.08197 64.648438 186.16211 C 47.565778 201.79151 29.312879 217.89611 11.0625 234 L 324 234 L 324 209.3125 C 314.75973 208.87608 305.51791 208.44072 296.41797 207.94727 C 286.66592 207.41847 277.06446 206.82824 267.76562 206.11523 C 258.46681 205.40226 249.47115 204.56681 240.92773 203.54688 C 232.38432 202.52693 224.29444 201.32272 216.80859 199.87305 C 213.06569 199.14817 209.47265 198.36117 206.05078 197.50586 C 202.62892 196.65055 199.37749 195.72573 196.31445 194.72461 C 193.25141 193.72349 190.37738 192.64661 187.71094 191.48438 C 185.04449 190.32209 182.58559 189.07511 180.35352 187.73633 C 179.08493 186.97544 177.89817 186.1813 176.7793 185.35938 A 70.000002 68.944175 0 0 0 232 118.05664 A 70.000002 68.944175 0 0 0 222.23438 83.091797 C 226.0043 79.328044 229.9037 75.510301 233.91602 71.648438 C 241.99206 63.875272 250.52009 55.918028 259.35156 47.837891 C 276.43423 32.208486 294.68712 16.103887 312.9375 0 L 0 0 z "
       transform="matrix(0.26458333,0,0,0.26458333,0,235.08748)"
       id="rect844" />
    <g
       id="g864"
       transform="matrix(1.0937501,0,0,1.0772528,-4.0183626,-20.273254)"
       style="fill:#d3e7ff;fill-opacity:1">
      <g
         id="g836"
         transform="translate(-38.024407,0.71815883)"
         style="fill:#d3e7ff;fill-opacity:1">
        <path
           style="fill:#d3e7ff;fill-opacity:1;fill-rule:evenodd;stroke:none;stroke-width:0.23286378"
           d="m 95.067701,258.95143 c -2.53097,-5.39165 -7.903829,-9.12502 -14.139434,-9.15415 -6.235602,-0.03 -11.642097,3.65147 -14.222161,9.01945 l 3.028254,0.0146 0.08637,-0.13743 c 2.29824,-3.66603 6.29288,-6.10702 10.841173,-6.17437 v -0.005 l 0.499102,0.002 v 0.005 c 4.551018,0.10649 8.527481,2.5857 10.793899,6.2772 l 0.08546,0.13744 3.027344,0.0146 m -4.761024,-0.0228 c -2.109142,-2.97801 -5.527405,-4.92115 -9.397502,-4.94027 h -0.0046 c -3.868282,-0.0164 -7.301092,1.894 -9.43569,4.85103 l 18.83773,0.0892"
           id="path25"
           inkscape:connector-curvature="0" />
        <path
           style="fill:#d3e7ff;fill-opacity:1;fill-rule:nonzero;stroke:none;stroke-width:0.23286378"
           d="m 87.838435,270.36089 c -0.262734,0.0127 -0.464555,-0.0364 -0.60456,-0.14562 -0.183639,-0.1429 -0.486375,-0.0937 -0.98366,0.15836 -0.557284,0.28214 -0.616378,0.34949 -0.708199,0.79364 -0.111821,0.54335 -0.208188,0.61525 -0.907294,0.67896 -0.700018,0.0628 -0.805473,0.01 -1.03275,-0.51514 -0.184552,-0.42867 -0.156372,-0.40774 -0.826387,-0.59978 -0.615468,-0.17565 -0.749109,-0.162 -1.163666,0.12196 -0.394552,0.2694 -0.540917,0.24938 -1.046388,-0.14471 -0.505465,-0.395 -0.562742,-0.5479 -0.372734,-0.99478 0.166367,-0.39318 0.158186,-0.52151 -0.05818,-0.94745 -0.286372,-0.56155 -0.426373,-0.68078 -0.908206,-0.77453 -0.538197,-0.10557 -0.634561,-0.22025 -0.696378,-0.82731 -0.05455,-0.5388 0.143637,-0.88829 0.550918,-0.97111 0.336375,-0.0692 0.438198,-0.18476 0.6282,-0.71264 0.209095,-0.58158 0.199094,-0.74358 -0.07455,-1.15041 -0.299098,-0.44688 -0.287279,-0.52697 0.160004,-1.03392 0.48183,-0.54608 0.563653,-0.55882 1.374579,-0.21024 0.128186,0.0555 0.33001,-0.0146 0.997297,-0.34676 0.321829,-0.16109 0.39819,-0.26758 0.494559,-0.68806 0.127273,-0.56064 0.278188,-0.66531 1.027295,-0.709 0.508193,-0.03 0.798203,0.15746 0.909114,0.58704 0.07455,0.28578 0.225459,0.38954 0.808204,0.55792 0.617286,0.17838 0.706379,0.17019 1.145479,-0.1074 0.488196,-0.30672 0.62638,-0.28305 1.216393,0.21388 0.494557,0.41593 0.548196,0.54972 0.347282,0.86827 -0.270915,0.42958 -0.268187,0.59614 0.01728,1.11309 0.293645,0.53061 0.403646,0.60525 0.976386,0.66258 0.390009,0.0391 0.540923,0.27487 0.586378,0.9156 0.03909,0.54517 -0.113641,0.75814 -0.646377,0.90377 -0.344556,0.0947 -0.374558,0.13379 -0.589108,0.77179 -0.197279,0.58522 -0.181822,0.68351 0.171826,1.11492 0.265459,0.32491 0.23546,0.45689 -0.218189,0.97202 -0.350009,0.39591 -0.403646,0.43778 -0.574561,0.44597 m -2.00823,-3.3311 c 0.319101,-1.16133 -0.627288,-2.21345 -1.899137,-2.11151 -1.310939,0.10466 -2.056413,1.45712 -1.400035,2.53927 0.793658,1.30878 2.896436,1.03665 3.299172,-0.42776"
           id="path27"
           inkscape:connector-curvature="0" />
        <path
           style="fill:#d3e7ff;fill-opacity:1;fill-rule:nonzero;stroke:none;stroke-width:0.23286378"
           d="m 80.482801,277.14413 c -0.178183,-0.0318 -0.304548,-0.0956 -0.379097,-0.18931 -0.09819,-0.12378 -0.3091,-0.13743 -0.683652,-0.0446 -0.42001,0.10558 -0.471831,0.14108 -0.609105,0.42504 -0.16728,0.34767 -0.244552,0.38135 -0.721836,0.31763 -0.479105,-0.0646 -0.540018,-0.11649 -0.601835,-0.5033 -0.04909,-0.3149 -0.03364,-0.2967 -0.448193,-0.52788 -0.380918,-0.21206 -0.472739,-0.22298 -0.7982,-0.0956 -0.3091,0.12105 -0.403646,0.0846 -0.673653,-0.25666 -0.269097,-0.3413 -0.281827,-0.45325 -0.07818,-0.72447 0.178186,-0.23754 0.195458,-0.32492 0.123642,-0.64347 -0.09455,-0.42048 -0.16728,-0.52241 -0.473649,-0.65893 -0.340918,-0.1529 -0.385466,-0.24392 -0.322736,-0.66076 0.05636,-0.36952 0.248187,-0.5743 0.534559,-0.56793 0.236371,0.005 0.324551,-0.0573 0.541829,-0.38225 0.239096,-0.3586 0.260006,-0.46872 0.147278,-0.78272 -0.12364,-0.34585 -0.100912,-0.39773 0.283644,-0.66986 0.416374,-0.29306 0.472736,-0.28942 0.953656,0.0683 0.07728,0.0573 0.223641,0.041 0.725474,-0.081 0.242734,-0.0592 0.312735,-0.11832 0.448191,-0.3859 0.181821,-0.35768 0.300011,-0.4041 0.807294,-0.31946 0.345464,0.0573 0.506373,0.22663 0.506373,0.53243 0.0011,0.20296 0.08364,0.2958 0.44365,0.49694 0.381828,0.21388 0.442741,0.22207 0.783654,0.10284 0.3791,-0.13197 0.466375,-0.0947 0.775475,0.32856 0.259096,0.35404 0.270917,0.45234 0.08273,0.63527 -0.25455,0.24756 -0.280913,0.35951 -0.179094,0.74905 0.104551,0.40137 0.165458,0.46872 0.538197,0.59432 0.25364,0.0856 0.313643,0.26666 0.234551,0.70353 -0.06819,0.37134 -0.20637,0.49056 -0.58638,0.50786 -0.24728,0.0109 -0.27364,0.0328 -0.526376,0.42776 -0.231822,0.36314 -0.238186,0.4314 -0.07636,0.77453 0.12182,0.25847 0.07909,0.34221 -0.312737,0.61889 -0.300914,0.21206 -0.344551,0.23208 -0.459103,0.21115 m -0.770016,-2.54019 c 0.412739,-0.73084 -0.03909,-1.58091 -0.905476,-1.7065 -0.892747,-0.12924 -1.622766,0.6644 -1.370034,1.4908 0.304552,0.99842 1.755497,1.13585 2.27551,0.2157"
           id="path29"
           inkscape:connector-curvature="0" />
        <path
           style="fill:#d3e7ff;fill-opacity:1;fill-rule:nonzero;stroke:none;stroke-width:0.23286378"
           d="m 72.940801,265.57812 h 4.026463 v 3.99277 h -4.026463 z m 0,0"
           id="path31"
           inkscape:connector-curvature="0" />
        <path
           style="fill:#d3e7ff;fill-opacity:1;fill-rule:nonzero;stroke:none;stroke-width:0.23286378"
           d="m 76.865442,263.40108 c 0,0.90832 -0.867293,1.64462 -1.937319,1.64462 -1.070025,0 -1.936411,-0.7363 -1.936411,-1.64462 0,-0.90741 0.866386,-1.64371 1.936411,-1.64371 1.070026,0 1.937319,0.7363 1.937319,1.64371 z m 0,0"
           id="path33"
           inkscape:connector-curvature="0" />
      </g>
    </g>
    <g
       style="fill:#d3e7ff;fill-opacity:1"
       transform="matrix(1.0937501,0,0,1.0772528,-4.0183626,-20.273254)"
       id="g971">
      <g
         style="fill:#d3e7ff;fill-opacity:1"
         transform="translate(-38.024407,0.71815883)"
         id="g969">
        <path
           inkscape:connector-curvature="0"
           id="path959"
           d="m 95.067701,258.95143 c -2.53097,-5.39165 -7.903829,-9.12502 -14.139434,-9.15415 -6.235602,-0.03 -11.642097,3.65147 -14.222161,9.01945 l 3.028254,0.0146 0.08637,-0.13743 c 2.29824,-3.66603 6.29288,-6.10702 10.841173,-6.17437 v -0.005 l 0.499102,0.002 v 0.005 c 4.551018,0.10649 8.527481,2.5857 10.793899,6.2772 l 0.08546,0.13744 3.027344,0.0146 m -4.761024,-0.0228 c -2.109142,-2.97801 -5.527405,-4.92115 -9.397502,-4.94027 h -0.0046 c -3.868282,-0.0164 -7.301092,1.894 -9.43569,4.85103 l 18.83773,0.0892"
           style="fill:#d3e7ff;fill-opacity:1;fill-rule:evenodd;stroke:none;stroke-width:0.23286378" />
        <path
           inkscape:connector-curvature="0"
           id="path961"
           d="m 87.838435,270.36089 c -0.262734,0.0127 -0.464555,-0.0364 -0.60456,-0.14562 -0.183639,-0.1429 -0.486375,-0.0937 -0.98366,0.15836 -0.557284,0.28214 -0.616378,0.34949 -0.708199,0.79364 -0.111821,0.54335 -0.208188,0.61525 -0.907294,0.67896 -0.700018,0.0628 -0.805473,0.01 -1.03275,-0.51514 -0.184552,-0.42867 -0.156372,-0.40774 -0.826387,-0.59978 -0.615468,-0.17565 -0.749109,-0.162 -1.163666,0.12196 -0.394552,0.2694 -0.540917,0.24938 -1.046388,-0.14471 -0.505465,-0.395 -0.562742,-0.5479 -0.372734,-0.99478 0.166367,-0.39318 0.158186,-0.52151 -0.05818,-0.94745 -0.286372,-0.56155 -0.426373,-0.68078 -0.908206,-0.77453 -0.538197,-0.10557 -0.634561,-0.22025 -0.696378,-0.82731 -0.05455,-0.5388 0.143637,-0.88829 0.550918,-0.97111 0.336375,-0.0692 0.438198,-0.18476 0.6282,-0.71264 0.209095,-0.58158 0.199094,-0.74358 -0.07455,-1.15041 -0.299098,-0.44688 -0.287279,-0.52697 0.160004,-1.03392 0.48183,-0.54608 0.563653,-0.55882 1.374579,-0.21024 0.128186,0.0555 0.33001,-0.0146 0.997297,-0.34676 0.321829,-0.16109 0.39819,-0.26758 0.494559,-0.68806 0.127273,-0.56064 0.278188,-0.66531 1.027295,-0.709 0.508193,-0.03 0.798203,0.15746 0.909114,0.58704 0.07455,0.28578 0.225459,0.38954 0.808204,0.55792 0.617286,0.17838 0.706379,0.17019 1.145479,-0.1074 0.488196,-0.30672 0.62638,-0.28305 1.216393,0.21388 0.494557,0.41593 0.548196,0.54972 0.347282,0.86827 -0.270915,0.42958 -0.268187,0.59614 0.01728,1.11309 0.293645,0.53061 0.403646,0.60525 0.976386,0.66258 0.390009,0.0391 0.540923,0.27487 0.586378,0.9156 0.03909,0.54517 -0.113641,0.75814 -0.646377,0.90377 -0.344556,0.0947 -0.374558,0.13379 -0.589108,0.77179 -0.197279,0.58522 -0.181822,0.68351 0.171826,1.11492 0.265459,0.32491 0.23546,0.45689 -0.218189,0.97202 -0.350009,0.39591 -0.403646,0.43778 -0.574561,0.44597 m -2.00823,-3.3311 c 0.319101,-1.16133 -0.627288,-2.21345 -1.899137,-2.11151 -1.310939,0.10466 -2.056413,1.45712 -1.400035,2.53927 0.793658,1.30878 2.896436,1.03665 3.299172,-0.42776"
           style="fill:#d3e7ff;fill-opacity:1;fill-rule:nonzero;stroke:none;stroke-width:0.23286378" />
        <path
           inkscape:connector-curvature="0"
           id="path963"
           d="m 80.482801,277.14413 c -0.178183,-0.0318 -0.304548,-0.0956 -0.379097,-0.18931 -0.09819,-0.12378 -0.3091,-0.13743 -0.683652,-0.0446 -0.42001,0.10558 -0.471831,0.14108 -0.609105,0.42504 -0.16728,0.34767 -0.244552,0.38135 -0.721836,0.31763 -0.479105,-0.0646 -0.540018,-0.11649 -0.601835,-0.5033 -0.04909,-0.3149 -0.03364,-0.2967 -0.448193,-0.52788 -0.380918,-0.21206 -0.472739,-0.22298 -0.7982,-0.0956 -0.3091,0.12105 -0.403646,0.0846 -0.673653,-0.25666 -0.269097,-0.3413 -0.281827,-0.45325 -0.07818,-0.72447 0.178186,-0.23754 0.195458,-0.32492 0.123642,-0.64347 -0.09455,-0.42048 -0.16728,-0.52241 -0.473649,-0.65893 -0.340918,-0.1529 -0.385466,-0.24392 -0.322736,-0.66076 0.05636,-0.36952 0.248187,-0.5743 0.534559,-0.56793 0.236371,0.005 0.324551,-0.0573 0.541829,-0.38225 0.239096,-0.3586 0.260006,-0.46872 0.147278,-0.78272 -0.12364,-0.34585 -0.100912,-0.39773 0.283644,-0.66986 0.416374,-0.29306 0.472736,-0.28942 0.953656,0.0683 0.07728,0.0573 0.223641,0.041 0.725474,-0.081 0.242734,-0.0592 0.312735,-0.11832 0.448191,-0.3859 0.181821,-0.35768 0.300011,-0.4041 0.807294,-0.31946 0.345464,0.0573 0.506373,0.22663 0.506373,0.53243 0.0011,0.20296 0.08364,0.2958 0.44365,0.49694 0.381828,0.21388 0.442741,0.22207 0.783654,0.10284 0.3791,-0.13197 0.466375,-0.0947 0.775475,0.32856 0.259096,0.35404 0.270917,0.45234 0.08273,0.63527 -0.25455,0.24756 -0.280913,0.35951 -0.179094,0.74905 0.104551,0.40137 0.165458,0.46872 0.538197,0.59432 0.25364,0.0856 0.313643,0.26666 0.234551,0.70353 -0.06819,0.37134 -0.20637,0.49056 -0.58638,0.50786 -0.24728,0.0109 -0.27364,0.0328 -0.526376,0.42776 -0.231822,0.36314 -0.238186,0.4314 -0.07636,0.77453 0.12182,0.25847 0.07909,0.34221 -0.312737,0.61889 -0.300914,0.21206 -0.344551,0.23208 -0.459103,0.21115 m -0.770016,-2.54019 c 0.412739,-0.73084 -0.03909,-1.58091 -0.905476,-1.7065 -0.892747,-0.12924 -1.622766,0.6644 -1.370034,1.4908 0.304552,0.99842 1.755497,1.13585 2.27551,0.2157"
           style="fill:#d3e7ff;fill-opacity:1;fill-rule:nonzero;stroke:none;stroke-width:0.23286378" />
        <path
           inkscape:connector-curvature="0"
           id="path965"
           d="m 72.940801,265.57812 h 4.026463 v 3.99277 h -4.026463 z m 0,0"
           style="fill:#d3e7ff;fill-opacity:1;fill-rule:nonzero;stroke:none;stroke-width:0.23286378" />
        <path
           inkscape:connector-curvature="0"
           id="path967"
           d="m 76.865442,263.40108 c 0,0.90832 -0.867293,1.64462 -1.937319,1.64462 -1.070025,0 -1.936411,-0.7363 -1.936411,-1.64462 0,-0.90741 0.866386,-1.64371 1.936411,-1.64371 1.070026,0 1.937319,0.7363 1.937319,1.64371 z m 0,0"
           style="fill:#d3e7ff;fill-opacity:1;fill-rule:nonzero;stroke:none;stroke-width:0.23286378" />
      </g>
    </g>
  </g>
</svg>
