<?xml version="1.0" encoding="UTF-8" standalone="no"?>
<svg
   xmlns:dc="http://purl.org/dc/elements/1.1/"
   xmlns:cc="http://creativecommons.org/ns#"
   xmlns:rdf="http://www.w3.org/1999/02/22-rdf-syntax-ns#"
   xmlns:svg="http://www.w3.org/2000/svg"
   xmlns="http://www.w3.org/2000/svg"
   xmlns:sodipodi="http://sodipodi.sourceforge.net/DTD/sodipodi-0.dtd"
   xmlns:inkscape="http://www.inkscape.org/namespaces/inkscape"
   width="324px"
   height="234px"
   viewBox="0 0 324 234"
   version="1.1"
   id="svg16"
   sodipodi:docname="discord.svg"
   inkscape:version="0.92.4 (5da689c313, 2019-01-14)">
  <metadata
     id="metadata20">
    <rdf:RDF>
      <cc:Work
         rdf:about="">
        <dc:format>image/svg+xml</dc:format>
        <dc:type
           rdf:resource="http://purl.org/dc/dcmitype/StillImage" />
        <dc:title></dc:title>
      </cc:Work>
    </rdf:RDF>
  </metadata>
  <sodipodi:namedview
     pagecolor="#ffffff"
     bordercolor="#666666"
     borderopacity="1"
     objecttolerance="10"
     gridtolerance="10"
     guidetolerance="10"
     inkscape:pageopacity="0"
     inkscape:pageshadow="2"
     inkscape:window-width="1152"
     inkscape:window-height="752"
     id="namedview18"
     showgrid="false"
     inkscape:pagecheckerboard="true"
     inkscape:zoom="1.4263009"
     inkscape:cx="134.53615"
     inkscape:cy="123.70212"
     inkscape:window-x="0"
     inkscape:window-y="0"
     inkscape:window-maximized="1"
     inkscape:current-layer="surface1" />
  <defs
     id="defs7">
    <inkscape:path-effect
       only_selected="false"
       apply_with_weight="true"
       apply_no_weight="true"
       helper_size="0"
       steps="2"
       weight="33.333333"
       is_visible="true"
       id="path-effect1482"
       effect="bspline" />
    <inkscape:path-effect
       effect="bspline"
       id="path-effect874"
       is_visible="true"
       weight="33.333333"
       steps="2"
       helper_size="0"
       apply_no_weight="true"
       apply_with_weight="true"
       only_selected="false" />
    <inkscape:path-effect
       effect="bspline"
       id="path-effect840"
       is_visible="true"
       weight="33.333333"
       steps="2"
       helper_size="0"
       apply_no_weight="true"
       apply_with_weight="true"
       only_selected="false" />
    <linearGradient
       id="linear0"
       gradientUnits="userSpaceOnUse"
       x1="-82.661476"
       y1="246.20631"
       x2="47.338524"
       y2="66.206314"
       gradientTransform="matrix(0,-1.8,1.8,0,-119.17137,85.20934)">
      <stop
         offset="0"
         style="stop-color:#dc4445;stop-opacity:1"
         id="stop2" />
      <stop
         offset="1"
         style="stop-color:#627ad6;stop-opacity:1"
         id="stop4" />
    </linearGradient>
    <filter
       inkscape:collect="always"
       style="color-interpolation-filters:sRGB"
       id="filter1596"
       x="-0.029926167"
       width="1.0598523"
       y="-0.038302088"
       height="1.0766042">
      <feGaussianBlur
         inkscape:collect="always"
         stdDeviation="3.2681008"
         id="feGaussianBlur1598" />
    </filter>
  </defs>
  <g
     id="surface1">
    <path
       style="fill:#2f3136;stroke:none;fill-opacity:1"
       d="M 122.33594 15.863281 C 118.85839 15.933966 115.26363 16.112798 111.61914 16.429688 C 107.97465 16.746577 104.28006 17.203193 100.60352 17.828125 C 96.926976 18.453057 93.269009 19.247377 89.695312 20.242188 C 86.121616 21.236998 82.632836 22.430894 79.296875 23.857422 C 75.960914 25.283949 72.777787 26.9432 69.814453 28.863281 C 68.332786 29.823322 66.906186 30.848336 65.542969 31.943359 C 64.179751 33.038383 62.880251 34.20367 61.652344 35.441406 C 60.424437 36.679143 59.267141 37.988774 58.191406 39.376953 C 57.115672 40.765132 56.121545 42.230993 55.214844 43.777344 C 54.308143 45.323695 53.490708 46.954302 52.753906 48.660156 C 52.017104 50.36601 51.359391 52.146609 50.775391 53.996094 C 49.607389 57.695063 48.729693 61.665495 48.070312 65.84375 C 47.410932 70.022005 46.971132 74.408894 46.683594 78.939453 C 46.396055 83.470012 46.259507 88.144509 46.207031 92.900391 C 46.10208 102.41215 46.331076 112.24728 46.345703 121.89844 C 46.353017 126.72402 46.306632 131.50387 46.138672 136.17383 C 45.970711 140.84378 45.681185 145.40366 45.201172 149.79102 C 44.721158 154.17837 44.051421 158.39896 43.283203 162.4375 C 42.514985 166.47604 41.647305 170.33336 40.771484 173.99609 C 39.019842 181.32157 37.235161 187.86898 36.136719 193.5293 C 35.587498 196.35946 35.208768 198.96646 35.09375 201.33984 C 35.036241 202.52654 35.044002 203.65522 35.128906 204.72266 C 35.213811 205.7901 35.37706 206.79738 35.626953 207.74219 C 35.876846 208.687 36.214886 209.56986 36.652344 210.38867 C 37.089801 211.20748 37.625841 211.96096 38.273438 212.65039 C 38.921034 213.33983 39.680236 213.9648 40.560547 214.52148 C 41.440858 215.07817 42.442524 215.56772 43.578125 215.98828 C 44.713726 216.40884 45.982813 216.75951 47.375 217.04883 C 48.767187 217.33815 50.28324 217.56511 51.912109 217.73633 C 55.169848 218.07877 58.879793 218.19954 62.964844 218.14844 C 67.049895 218.09733 71.508581 217.87468 76.261719 217.53516 C 81.014857 217.19564 86.062219 216.7396 91.324219 216.2168 C 101.84822 215.1712 113.23184 213.86276 124.83594 212.71484 C 130.63799 212.14089 136.49489 211.60785 142.32812 211.16602 C 148.16136 210.72418 153.97059 210.3745 159.67578 210.16992 C 165.38098 209.96534 170.98253 209.90517 176.45898 209.92969 C 181.93544 209.95421 187.2866 210.06317 192.49219 210.19531 C 202.90336 210.4596 212.72977 210.8173 221.80469 210.7832 C 226.34214 210.76616 230.69183 210.65081 234.83203 210.37695 C 238.97223 210.10309 242.90466 209.67168 246.60547 209.01953 C 250.30628 208.36738 253.7768 207.49567 256.99609 206.34375 C 258.60574 205.76779 260.15144 205.12016 261.63281 204.39648 C 263.11418 203.6728 264.53108 202.87291 265.87891 201.98633 C 267.22673 201.09974 268.50677 200.12815 269.7207 199.07617 C 270.93463 198.0242 272.08144 196.89074 273.16602 195.68359 C 274.25059 194.47644 275.27265 193.19391 276.23242 191.8418 C 277.19219 190.48968 278.09018 189.06889 278.92969 187.58203 C 280.6087 184.6083 282.05212 181.37528 283.27734 177.92383 C 284.50257 174.47237 285.50863 170.80256 286.31641 166.95508 C 287.12419 163.1076 287.73347 159.08172 288.16016 154.91992 C 288.58684 150.75812 288.83213 146.46082 288.91406 142.06641 C 288.996 137.67199 288.91396 133.1801 288.6875 128.63477 C 288.46104 124.08943 288.09031 119.48955 287.5918 114.875 C 287.09328 110.26045 286.46769 105.63094 285.71875 101.03516 C 284.96981 96.439368 284.0979 91.877063 283.10547 87.394531 C 282.11304 82.912 281.00048 78.509154 279.77148 74.234375 C 278.54249 69.959596 277.19691 65.812375 275.73828 61.839844 C 274.27966 57.867312 272.70672 54.069929 271.02539 50.494141 C 269.34406 46.918352 267.55335 43.565018 265.65625 40.480469 C 263.75915 37.395919 261.75633 34.580846 259.65039 32.082031 C 257.54445 29.583216 255.3352 27.400617 253.02734 25.582031 C 251.87342 24.672738 250.69478 23.854033 249.49414 23.119141 C 248.29351 22.384249 247.07158 21.733613 245.83008 21.158203 C 243.34708 20.007384 240.7872 19.160992 238.17578 18.558594 C 235.56437 17.956196 232.90207 17.59715 230.20898 17.423828 C 227.5159 17.250506 224.79247 17.262029 222.06445 17.398438 C 219.33644 17.534846 216.60293 17.796252 213.88672 18.123047 C 211.17051 18.449842 208.47211 18.842399 205.81445 19.240234 C 200.49913 20.035905 195.34756 20.854988 190.54688 21.21875 C 188.14653 21.400631 185.83317 21.468909 183.57422 21.447266 C 181.31527 21.425622 179.11142 21.31234 176.92578 21.134766 C 172.5545 20.779618 168.262 20.160102 163.77539 19.466797 C 159.28878 18.773491 154.6076 18.008133 149.46094 17.357422 C 144.31428 16.706711 138.70104 16.170724 132.34961 15.943359 C 129.17389 15.829677 125.81349 15.792596 122.33594 15.863281 z "
       id="path843" />
    <path
       style="fill:url(#linear0);stroke:none"
       d="M 0 0 L 0 234 L 324 234 L 324 0 L 0 0 z M 122.33594 15.863281 C 125.81349 15.792596 129.17389 15.829677 132.34961 15.943359 C 138.70104 16.170724 144.31428 16.706711 149.46094 17.357422 C 154.6076 18.008133 159.28878 18.773491 163.77539 19.466797 C 168.262 20.160102 172.5545 20.779618 176.92578 21.134766 C 179.11142 21.31234 181.31527 21.425622 183.57422 21.447266 C 185.83317 21.468909 188.14653 21.400631 190.54688 21.21875 C 195.34756 20.854988 200.49913 20.035905 205.81445 19.240234 C 208.47211 18.842399 211.17051 18.449842 213.88672 18.123047 C 216.60293 17.796252 219.33644 17.534846 222.06445 17.398438 C 224.79247 17.262029 227.5159 17.250506 230.20898 17.423828 C 232.90207 17.59715 235.56437 17.956196 238.17578 18.558594 C 240.7872 19.160992 243.34708 20.007384 245.83008 21.158203 C 247.07158 21.733613 248.29351 22.384249 249.49414 23.119141 C 250.69478 23.854033 251.87342 24.672738 253.02734 25.582031 C 255.3352 27.400617 257.54445 29.583216 259.65039 32.082031 C 261.75633 34.580846 263.75915 37.395919 265.65625 40.480469 C 267.55335 43.565018 269.34406 46.918352 271.02539 50.494141 C 272.70672 54.069929 274.27966 57.867312 275.73828 61.839844 C 277.19691 65.812375 278.54249 69.959596 279.77148 74.234375 C 281.00048 78.509154 282.11304 82.912 283.10547 87.394531 C 284.0979 91.877063 284.96981 96.439368 285.71875 101.03516 C 286.46769 105.63094 287.09328 110.26045 287.5918 114.875 C 288.09031 119.48955 288.46104 124.08943 288.6875 128.63477 C 288.91396 133.1801 288.996 137.67199 288.91406 142.06641 C 288.83213 146.46082 288.58684 150.75812 288.16016 154.91992 C 287.73347 159.08172 287.12419 163.1076 286.31641 166.95508 C 285.50863 170.80256 284.50257 174.47237 283.27734 177.92383 C 282.05212 181.37528 280.6087 184.6083 278.92969 187.58203 C 278.09018 189.06889 277.19219 190.48968 276.23242 191.8418 C 275.27265 193.19391 274.25059 194.47644 273.16602 195.68359 C 272.08144 196.89074 270.93463 198.0242 269.7207 199.07617 C 268.50677 200.12815 267.22673 201.09974 265.87891 201.98633 C 264.53108 202.87291 263.11418 203.6728 261.63281 204.39648 C 260.15144 205.12016 258.60574 205.76779 256.99609 206.34375 C 253.7768 207.49567 250.30628 208.36738 246.60547 209.01953 C 242.90466 209.67168 238.97223 210.10309 234.83203 210.37695 C 230.69183 210.65081 226.34214 210.76616 221.80469 210.7832 C 212.72977 210.8173 202.90336 210.4596 192.49219 210.19531 C 187.2866 210.06317 181.93544 209.95421 176.45898 209.92969 C 170.98253 209.90517 165.38098 209.96534 159.67578 210.16992 C 153.97059 210.3745 148.16136 210.72418 142.32812 211.16602 C 136.49489 211.60785 130.63799 212.14089 124.83594 212.71484 C 113.23184 213.86276 101.84822 215.1712 91.324219 216.2168 C 86.062219 216.7396 81.014857 217.19564 76.261719 217.53516 C 71.508581 217.87468 67.049895 218.09733 62.964844 218.14844 C 58.879793 218.19954 55.169848 218.07877 51.912109 217.73633 C 50.28324 217.56511 48.767187 217.33815 47.375 217.04883 C 45.982813 216.75951 44.713726 216.40884 43.578125 215.98828 C 42.442524 215.56772 41.440858 215.07817 40.560547 214.52148 C 39.680236 213.9648 38.921034 213.33983 38.273438 212.65039 C 37.625841 211.96096 37.089801 211.20748 36.652344 210.38867 C 36.214886 209.56986 35.876846 208.687 35.626953 207.74219 C 35.37706 206.79738 35.213811 205.7901 35.128906 204.72266 C 35.044002 203.65522 35.036241 202.52654 35.09375 201.33984 C 35.208768 198.96646 35.587498 196.35946 36.136719 193.5293 C 37.235161 187.86898 39.019842 181.32157 40.771484 173.99609 C 41.647305 170.33336 42.514985 166.47604 43.283203 162.4375 C 44.051421 158.39896 44.721158 154.17837 45.201172 149.79102 C 45.681185 145.40366 45.970711 140.84378 46.138672 136.17383 C 46.306632 131.50387 46.353017 126.72402 46.345703 121.89844 C 46.331076 112.24728 46.10208 102.41215 46.207031 92.900391 C 46.259507 88.144509 46.396055 83.470012 46.683594 78.939453 C 46.971132 74.408894 47.410932 70.022005 48.070312 65.84375 C 48.729693 61.665495 49.607389 57.695063 50.775391 53.996094 C 51.359391 52.146609 52.017104 50.36601 52.753906 48.660156 C 53.490708 46.954302 54.308143 45.323695 55.214844 43.777344 C 56.121545 42.230993 57.115672 40.765132 58.191406 39.376953 C 59.267141 37.988774 60.424437 36.679143 61.652344 35.441406 C 62.880251 34.20367 64.179751 33.038383 65.542969 31.943359 C 66.906186 30.848336 68.332786 29.823322 69.814453 28.863281 C 72.777787 26.9432 75.960914 25.283949 79.296875 23.857422 C 82.632836 22.430894 86.121616 21.236998 89.695312 20.242188 C 93.269009 19.247377 96.926976 18.453057 100.60352 17.828125 C 104.28006 17.203193 107.97465 16.746577 111.61914 16.429688 C 115.26363 16.112798 118.85839 15.933966 122.33594 15.863281 z "
       id="rect9" />
    <path
       inkscape:original-d="m 147.23401,12.447865 c -25.70652,9.113487 -51.414049,18.227973 -77.122575,27.34346 -16.3591,24.772866 -32.71767,49.544414 -49.078004,74.318125 24.073716,33.88777 48.144185,67.77338 72.214778,101.66158 29.681671,2.10235 59.362011,4.20568 89.041521,6.31003 24.53924,-19.1642 49.07901,-38.32859 73.61701,-57.49138 18.22915,0.23269 36.45894,0.46641 54.68692,0.70111 C 306.3882,133.50766 302.18129,101.72209 297.9736,69.939242 278.34392,64.329477 258.24479,59.187822 238.37888,53.813612 227.16167,38.387569 215.94422,22.96358 204.72539,7.5400646 185.56282,9.1749791 166.39881,10.810932 147.23401,12.447865 Z"
       inkscape:path-effect="#path-effect1482"
       inkscape:connector-curvature="0"
       id="path1480"
       d="M 143.96329,16.186881 C 121.52769,21.561924 95.820164,30.676411 74.786132,47.620223 53.752099,64.564035 37.39353,89.335584 41.249769,118.66681 c 3.856239,29.33122 27.926707,63.21683 54.803371,81.21224 26.87666,17.9954 56.557,20.09873 83.66647,11.56834 27.10947,-8.53039 51.64924,-27.69478 73.03275,-37.15939 21.38352,-9.46461 39.61331,-9.2309 46.62402,-25.00555 7.01071,-15.77464 2.80379,-47.56021 -9.15193,-66.117663 C 278.26873,64.607337 258.24447,59.189007 242.7025,48.788699 227.16054,38.388392 215.94309,22.964402 200.75299,16.070144 185.5629,9.175887 166.39889,10.811839 143.96329,16.186881 Z"
       style="fill:#212326;stroke:none;stroke-width:1px;stroke-linecap:butt;stroke-linejoin:miter;stroke-opacity:1;fill-opacity:1;filter:url(#filter1596)" />
    <path
       style="fill:#36393f;stroke:none;stroke-width:1px;stroke-linecap:butt;stroke-linejoin:miter;stroke-opacity:1;fill-opacity:1"
       d="M 143.96329,16.186881 C 121.52769,21.561924 95.820164,30.676411 74.786132,47.620223 53.752099,64.564035 37.39353,89.335584 41.249769,118.66681 c 3.856239,29.33122 27.926707,63.21683 54.803371,81.21224 26.87666,17.9954 56.557,20.09873 83.66647,11.56834 27.10947,-8.53039 51.64924,-27.69478 73.03275,-37.15939 21.38352,-9.46461 39.61331,-9.2309 46.62402,-25.00555 7.01071,-15.77464 2.80379,-47.56021 -9.15193,-66.117663 C 278.26873,64.607337 258.24447,59.189007 242.7025,48.788699 227.16054,38.388392 215.94309,22.964402 200.75299,16.070144 185.5629,9.175887 166.39889,10.811839 143.96329,16.186881 Z"
       id="path872"
       inkscape:connector-curvature="0"
       inkscape:path-effect="#path-effect874"
       inkscape:original-d="m 147.23401,12.447865 c -25.70652,9.113487 -51.414049,18.227973 -77.122575,27.34346 -16.3591,24.772866 -32.71767,49.544414 -49.078004,74.318125 24.073716,33.88777 48.144185,67.77338 72.214778,101.66158 29.681671,2.10235 59.362011,4.20568 89.041521,6.31003 24.53924,-19.1642 49.07901,-38.32859 73.61701,-57.49138 18.22915,0.23269 36.45894,0.46641 54.68692,0.70111 C 306.3882,133.50766 302.18129,101.72209 297.9736,69.939242 278.34392,64.329477 258.24479,59.187822 238.37888,53.813612 227.16167,38.387569 215.94422,22.96358 204.72539,7.5400646 185.56282,9.1749791 166.39881,10.810932 147.23401,12.447865 Z" />
    <path
       style=" stroke:none;fill-rule:nonzero;fill:rgb(97.647059%,97.647059%,97.647059%);fill-opacity:1;"
       d="M 138.234375 51.050781 C 138.234375 51.050781 117.542969 50.574219 95.789062 67.429688 C 95.789062 67.429688 74.046875 108.148438 74.046875 158.382812 C 74.046875 158.382812 86.726562 180.996094 120.105469 182.089844 C 120.105469 182.089844 125.710938 175.082031 130.234375 169.152344 C 111.054688 163.226562 103.804688 150.75 103.804688 150.75 C 103.804688 150.75 105.308594 151.84375 108.023438 153.398438 C 108.171875 153.554688 108.320312 153.707031 108.625 153.863281 C 109.082031 154.175781 109.535156 154.332031 109.992188 154.648438 C 113.769531 156.832031 117.542969 158.550781 121.015625 159.953125 C 127.210938 162.445312 134.585938 164.949219 143.207031 166.664062 C 154.539062 168.851562 167.824219 169.617188 182.320312 166.804688 C 189.417969 165.558594 196.671875 163.371094 204.222656 160.09375 C 209.507812 158.066406 215.394531 155.101562 221.589844 150.890625 C 221.589844 150.890625 214.046875 163.679688 194.25 169.453125 C 198.78125 175.382812 204.207031 182.089844 204.207031 182.089844 C 237.621094 180.976562 250.445312 158.382812 250.445312 158.382812 C 250.445312 108.148438 228.699219 67.429688 228.699219 67.429688 C 206.949219 50.582031 186.257812 51.050781 186.257812 51.050781 L 184.152344 53.546875 C 209.824219 61.664062 221.753906 73.359375 221.753906 73.359375 C 206.046875 64.464844 190.644531 60.105469 176.296875 58.390625 C 165.421875 57.140625 154.992188 57.445312 145.777344 58.691406 C 144.871094 58.691406 144.117188 58.851562 143.214844 59.011719 C 137.929688 59.484375 125.101562 61.507812 108.953125 68.839844 C 103.363281 71.488281 100.042969 73.359375 100.042969 73.359375 C 100.042969 73.359375 112.574219 61.039062 139.761719 52.921875 L 138.242188 51.050781 M 134.023438 109.242188 C 142.632812 109.242188 149.578125 117.039062 149.429688 126.558594 C 149.429688 136.074219 142.644531 143.875 134.023438 143.875 C 125.5625 143.875 118.613281 136.074219 118.613281 126.558594 C 118.613281 117.039062 125.398438 109.242188 134.023438 109.242188 M 189.148438 109.242188 C 197.757812 109.242188 204.554688 117.039062 204.554688 126.558594 C 204.554688 136.074219 197.769531 143.875 189.148438 143.875 C 180.6875 143.875 173.738281 136.074219 173.738281 126.558594 C 173.738281 117.039062 180.523438 109.242188 189.148438 109.242188 "
       id="path13" />
  </g>
</svg>
