<?xml version="1.0" encoding="UTF-8"?>
<svg xmlns="http://www.w3.org/2000/svg" xmlns:xlink="http://www.w3.org/1999/xlink" width="324px" height="234px" viewBox="0 0 324 234" version="1.1">
<defs>
<linearGradient id="linear0" gradientUnits="userSpaceOnUse" x1="-1.455352" y1="64.761543" x2="181.728165" y2="64.761543" gradientTransform="matrix(1.8,0,0,1.8,0,0)">
<stop offset="0" style="stop-color:rgb(23.529412%,35.294119%,60.000002%);stop-opacity:1;"/>
<stop offset="1" style="stop-color:rgb(39.215687%,49.803922%,72.156864%);stop-opacity:1;"/>
</linearGradient>
</defs>
<g id="surface1">
<rect x="0" y="0" width="324" height="234" style="fill:url(#linear0);stroke:none;"/>
<path style="fill:none;stroke-width:1.021703;stroke-linecap:butt;stroke-linejoin:miter;stroke:rgb(100%,100%,100%);stroke-opacity:1;stroke-miterlimit:4;" d="M -0.94401 -1.082899 L 181.217448 -1.082899 L 181.217448 130.605469 L -0.94401 130.605469 Z M -0.94401 -1.082899 " transform="matrix(1.8,0,0,1.8,0,0)"/>
<path style=" stroke:none;fill-rule:nonzero;fill:rgb(100%,100%,100%);fill-opacity:1;" d="M 176.289062 185.144531 L 176.289062 122.585938 L 204.066406 122.585938 L 208.226562 98.203125 L 176.289062 98.203125 L 176.289062 82.640625 C 176.289062 75.582031 178.882812 70.769531 192.273438 70.769531 L 209.347656 70.765625 L 209.347656 48.960938 C 206.394531 48.664062 196.257812 48 184.464844 48 C 159.84375 48 142.988281 59.359375 142.988281 80.226562 L 142.988281 98.203125 L 115.140625 98.203125 L 115.140625 122.585938 L 142.988281 122.585938 L 142.988281 185.144531 Z M 176.289062 185.144531 "/>
</g>
</svg>
