<?xml version="1.0" encoding="UTF-8" standalone="no"?>
<svg
   xmlns:dc="http://purl.org/dc/elements/1.1/"
   xmlns:cc="http://creativecommons.org/ns#"
   xmlns:rdf="http://www.w3.org/1999/02/22-rdf-syntax-ns#"
   xmlns:svg="http://www.w3.org/2000/svg"
   xmlns="http://www.w3.org/2000/svg"
   xmlns:xlink="http://www.w3.org/1999/xlink"
   xmlns:sodipodi="http://sodipodi.sourceforge.net/DTD/sodipodi-0.dtd"
   xmlns:inkscape="http://www.inkscape.org/namespaces/inkscape"
   id="svg30"
   version="1.1"
   viewBox="0 0 324 234"
   height="234px"
   width="324px"
   sodipodi:docname="gamehub.svg"
   inkscape:version="0.92.4 (5da689c313, 2019-01-14)">
  <sodipodi:namedview
     pagecolor="#000000"
     bordercolor="#666666"
     borderopacity="1"
     objecttolerance="10"
     gridtolerance="10"
     guidetolerance="10"
     inkscape:pageopacity="1"
     inkscape:pageshadow="2"
     inkscape:window-width="1152"
     inkscape:window-height="744"
     id="namedview18"
     showgrid="false"
     inkscape:pagecheckerboard="false"
     inkscape:zoom="2.017094"
     inkscape:cx="193.31431"
     inkscape:cy="93.652862"
     inkscape:window-x="0"
     inkscape:window-y="0"
     inkscape:window-maximized="1"
     inkscape:current-layer="surface1" />
  <metadata
     id="metadata34">
    <rdf:RDF>
      <cc:Work
         rdf:about="">
        <dc:format>image/svg+xml</dc:format>
        <dc:type
           rdf:resource="http://purl.org/dc/dcmitype/StillImage" />
        <dc:title></dc:title>
      </cc:Work>
    </rdf:RDF>
  </metadata>
  <defs
     id="defs17">
    <linearGradient
       inkscape:collect="always"
       id="linearGradient2485">
      <stop
         style="stop-color:#ac5900;stop-opacity:1;"
         offset="0"
         id="stop2481" />
      <stop
         style="stop-color:#683600;stop-opacity:1"
         offset="1"
         id="stop2483" />
    </linearGradient>
    <linearGradient
       id="linearGradient1867"
       inkscape:collect="always">
      <stop
         id="stop1863"
         offset="0"
         style="stop-color:#ffb96d;stop-opacity:1" />
      <stop
         id="stop1865"
         offset="1"
         style="stop-color:#dd7300;stop-opacity:1" />
    </linearGradient>
    <linearGradient
       inkscape:collect="always"
       id="linearGradient1830">
      <stop
         style="stop-color:#ff08c6;stop-opacity:1;"
         offset="0"
         id="stop1826" />
      <stop
         style="stop-color:#c30096;stop-opacity:1"
         offset="1"
         id="stop1828" />
    </linearGradient>
    <linearGradient
       inkscape:collect="always"
       id="linearGradient1822">
      <stop
         style="stop-color:#68ffe3;stop-opacity:1"
         offset="0"
         id="stop1818" />
      <stop
         style="stop-color:#00d3ac;stop-opacity:1"
         offset="1"
         id="stop1820" />
    </linearGradient>
    <linearGradient
       inkscape:collect="always"
       id="linearGradient1814">
      <stop
         style="stop-color:#65ff08;stop-opacity:1;"
         offset="0"
         id="stop1810" />
      <stop
         style="stop-color:#46b900;stop-opacity:1"
         offset="1"
         id="stop1812" />
    </linearGradient>
    <linearGradient
       inkscape:collect="always"
       id="linearGradient1806">
      <stop
         style="stop-color:#f5ff08;stop-opacity:1"
         offset="0"
         id="stop1802" />
      <stop
         style="stop-color:#b1b900;stop-opacity:1"
         offset="1"
         id="stop1804" />
    </linearGradient>
    <linearGradient
       inkscape:collect="always"
       id="linearGradient1034">
      <stop
         style="stop-color:#8e4bff;stop-opacity:1"
         offset="0"
         id="stop1030" />
      <stop
         style="stop-color:#39088b;stop-opacity:1"
         offset="1"
         id="stop1032" />
    </linearGradient>
    <radialGradient
       inkscape:collect="always"
       xlink:href="#linearGradient1034"
       id="radialGradient1036"
       cx="159.50351"
       cy="115.86223"
       fx="159.50351"
       fy="115.86223"
       r="148.9868"
       gradientTransform="matrix(1,0,0,0.71764707,0,32.714041)"
       gradientUnits="userSpaceOnUse" />
    <radialGradient
       inkscape:collect="always"
       xlink:href="#linearGradient1867"
       id="radialGradient1063"
       cx="162"
       cy="117"
       fx="162"
       fy="117"
       r="88.632828"
       gradientTransform="matrix(1,0,0,0.69513008,-4.9999999e-7,35.669777)"
       gradientUnits="userSpaceOnUse" />
    <radialGradient
       inkscape:collect="always"
       xlink:href="#linearGradient1806"
       id="radialGradient1808"
       cx="278.63315"
       cy="196.79688"
       fx="278.63315"
       fy="196.79688"
       r="24.472913"
       gradientTransform="matrix(0.59827787,0,0,0.59732186,99.141376,74.255447)"
       gradientUnits="userSpaceOnUse" />
    <radialGradient
       inkscape:collect="always"
       xlink:href="#linearGradient1814"
       id="radialGradient1816"
       cx="72.214844"
       cy="201.74805"
       fx="72.214844"
       fy="201.74805"
       r="23.837891"
       gradientTransform="matrix(0.6911765,0,0,0.6911765,-3.2890331,51.43727)"
       gradientUnits="userSpaceOnUse" />
    <radialGradient
       inkscape:collect="always"
       xlink:href="#linearGradient1822"
       id="radialGradient1824"
       cx="46.095263"
       cy="47.203126"
       fx="46.095263"
       fy="47.203126"
       r="20.26281"
       gradientTransform="matrix(0.78374348,0,0,0.79502374,9.4425652,2.4260307)"
       gradientUnits="userSpaceOnUse" />
    <radialGradient
       inkscape:collect="always"
       xlink:href="#linearGradient1830"
       id="radialGradient1832"
       cx="255.65125"
       cy="43.622849"
       fx="255.65125"
       fy="43.622849"
       r="10"
       gradientUnits="userSpaceOnUse"
       gradientTransform="translate(16.12563,2.1033431)" />
    <linearGradient
       inkscape:collect="always"
       xlink:href="#linearGradient2485"
       id="linearGradient2487"
       x1="72.623573"
       y1="185.1105"
       x2="73.081261"
       y2="143.75079"
       gradientUnits="userSpaceOnUse" />
  </defs>
  <g
     id="surface1">
    <rect
       id="rect19"
       style="fill:#2e007d;fill-opacity:1;stroke:none"
       height="234"
       width="324"
       y="0"
       x="0" />
    <path
       style="fill:#22005e;stroke:none;stroke-width:1px;stroke-linecap:butt;stroke-linejoin:miter;stroke-opacity:1;fill-opacity:1"
       d="m 133.91284,27.171267 42.76798,65.904749 h 72.91589 V 24.366809 h 45.57243 V 133.03953 H 65.203635 v 41.36575 H 300.07694 v 36.45795 H 25.240117 V 161.78522 L 12.620058,134.44176 H 45.572433 V 90.271558 h 88.340407 z"
       id="path1849"
       inkscape:connector-curvature="0" />
    <path
       style="fill:url(#radialGradient1036);stroke:none;stroke-width:1px;stroke-linecap:butt;stroke-linejoin:miter;stroke-opacity:1;fill-opacity:1"
       d="m 25.240117,163.88857 v 46.97466 H 300.07694 V 174.40528 H 65.203635 V 133.03953 H 295.16914 V 24.366809 H 249.59671 V 93.076016 H 176.68082 V 27.171267 H 133.91284 V 90.271558 H 45.572433 V 134.44176 H 12.620058 V 60.123641 H 111.47718 V 20.160123 H 20.332316 V 8.9422936 H 308.49031 V 222.78217 H 10.516715 v -60.99695 h 14.723402 z"
       id="path1028"
       inkscape:connector-curvature="0" />
    <path
       style="fill:url(#linearGradient2487);fill-opacity:1;fill-rule:nonzero;stroke:none;stroke-width:5.86566734;stroke-linecap:butt;stroke-linejoin:miter;stroke-miterlimit:4;stroke-opacity:1"
       d="m 73.75676,153.28185 c -0.2459,2.47959 -0.389542,4.81056 -0.389542,6.92953 0,12.21484 4.136424,19.9446 12.917677,24.47196 1.031247,0.53515 2.163103,0.81372 3.315447,0.81372 1.828125,0.004 3.597325,-0.69549 4.964505,-1.96503 l 22.970063,-21.14137 c 4.11719,-3.80469 7.70979,-7.7346 17.75667,-7.7346 h 53.42366 c 10.04296,0 13.63167,3.92991 17.75667,7.7346 l 22.9614,21.14137 c 2.27736,2.10157 5.54949,2.55756 8.27996,1.15131 8.78127,-4.52344 12.91552,-12.2558 12.91552,-24.47846 h 0.004 c 0,-2.12133 -0.14743,-4.4576 -0.39387,-6.94035 -0.13014,1.40192 -0.12951,2.93785 -0.39387,4.2049 -0.52466,2.51459 -1.31511,4.76895 -2.38054,6.78238 -1.06543,2.01343 -2.40513,3.78456 -4.02744,5.33673 -1.62232,1.55219 -3.5288,2.88361 -5.72412,4.01446 -0.68262,0.35157 -1.39873,0.58777 -2.12517,0.70984 -0.72645,0.12207 -1.46144,0.13089 -2.18361,0.0302 -0.72217,-0.10061 -1.43157,-0.31119 -2.10137,-0.6276 -0.6698,-0.3164 -1.30046,-0.73845 -1.8698,-1.26384 l -22.96141,-21.14137 c -1.03124,-0.95117 -2.0298,-1.90993 -3.10336,-2.81337 -1.07355,-0.90344 -2.22143,-1.75109 -3.55565,-2.48008 -1.33423,-0.72901 -2.85474,-1.33808 -4.66803,-1.76593 -1.81329,-0.42786 -3.91889,-0.67522 -6.42963,-0.67522 h -53.42366 c -2.51172,0 -4.61987,0.24736 -6.43395,0.67522 -1.81409,0.42785 -3.33355,1.03692 -4.66802,1.76593 -1.33447,0.72899 -2.4828,1.57664 -3.55567,2.48008 -1.07288,0.90344 -2.06973,1.8622 -3.09903,2.81337 L 94.564537,172.4516 c -0.68361,0.63477 -1.46732,1.12778 -2.30912,1.46078 -0.84181,0.33301 -1.741333,0.5062 -2.655394,0.50425 -1.152344,0 -2.284201,-0.27857 -3.315447,-0.81372 -2.195314,-1.13183 -4.101434,-2.46221 -5.724115,-4.01446 -1.622682,-1.55224 -2.961524,-3.32621 -4.027443,-5.33891 -1.065918,-2.01268 -1.85768,-4.26486 -2.382705,-6.77804 -0.26374,-1.26247 -0.263615,-2.79339 -0.393872,-4.18975 z"
       id="path2479"
       inkscape:connector-curvature="0" />
    <path
       sodipodi:type="star"
       style="opacity:1;fill:url(#radialGradient1824);fill-opacity:1;fill-rule:evenodd;stroke:none;stroke-width:0.63565987;stroke-linecap:round;stroke-linejoin:round;stroke-miterlimit:4;stroke-dasharray:none;stroke-dashoffset:0;stroke-opacity:1;paint-order:markers fill stroke"
       id="path1018"
       sodipodi:sides="5"
       sodipodi:cx="46.498547"
       sodipodi:cy="40.113514"
       sodipodi:r1="16.82106"
       sodipodi:r2="5.8493719"
       sodipodi:arg1="0.66646527"
       sodipodi:arg2="1.2947838"
       inkscape:flatsided="true"
       inkscape:rounded="0.15"
       inkscape:randomized="0"
       d="M 59.720098,50.512487 C 57.886389,52.843917 43.478188,56.924925 40.69422,55.901416 37.910251,54.877907 29.576602,42.435994 29.689724,39.472001 29.802845,36.508008 39.060568,24.737474 41.91445,23.929135 c 2.853882,-0.808339 16.909117,4.358983 18.559792,6.823396 1.650674,2.464412 1.079565,17.428526 -0.754144,19.759956 z"
       inkscape:transform-center-x="1.3746672"
       inkscape:transform-center-y="-0.1925335" />
    <circle
       style="opacity:1;fill:url(#radialGradient1832);fill-opacity:1;fill-rule:evenodd;stroke:none;stroke-width:1.97792351;stroke-linecap:round;stroke-linejoin:round;stroke-miterlimit:4;stroke-dasharray:none;stroke-dashoffset:0;stroke-opacity:1;paint-order:markers fill stroke"
       id="path1020"
       cx="271.77689"
       cy="45.726192"
       r="10" />
    <path
       sodipodi:type="star"
       style="opacity:1;fill:url(#radialGradient1808);fill-opacity:1;fill-rule:evenodd;stroke:none;stroke-width:1.79483366;stroke-linecap:round;stroke-linejoin:round;stroke-miterlimit:4;stroke-dasharray:none;stroke-dashoffset:0;stroke-opacity:1;paint-order:markers fill stroke"
       id="path1022"
       sodipodi:sides="3"
       sodipodi:cx="264.42532"
       sodipodi:cy="193.18282"
       sodipodi:r1="16.546137"
       sodipodi:r2="13.386106"
       sodipodi:arg1="0.2536741"
       sodipodi:arg2="1.3008717"
       inkscape:flatsided="false"
       inkscape:rounded="0.15"
       inkscape:randomized="0"
       d="m 280.44193,197.33527 c -0.57273,2.20911 -10.24758,8.1404 -12.44708,8.74895 -2.19951,0.60856 -13.54719,0.49371 -15.17396,-1.10684 -1.62678,-1.60055 -1.92601,-12.94487 -1.35327,-15.15397 0.57273,-2.20911 6.34602,-11.97906 8.54553,-12.58761 2.19951,-0.60856 12.17358,4.80446 13.80036,6.40501 1.62678,1.60056 7.20115,11.48535 6.62842,13.69446 z"
       inkscape:transform-center-x="-0.24830656"
       inkscape:transform-center-y="0.88053104" />
    <path
       style="opacity:1;fill:url(#radialGradient1816);fill-opacity:1;fill-rule:evenodd;stroke:none;stroke-width:2.07352948;stroke-linecap:round;stroke-linejoin:round;stroke-miterlimit:4;stroke-dasharray:none;stroke-dashoffset:0;stroke-opacity:1;paint-order:markers fill stroke"
       d="m 46.62417,174.40459 c -2.953114,0 -5.330969,2.37785 -5.330969,5.33097 v 5.8156 h -5.814252 c -2.953114,0 -5.330969,2.37651 -5.330969,5.32962 0,2.95311 2.377855,5.33097 5.330969,5.33097 h 5.814252 v 5.8156 c 0,2.95311 2.377855,5.32962 5.330969,5.32962 2.953114,0 5.330968,-2.37651 5.330968,-5.32962 v -5.8156 h 5.814253 c 2.953115,0 5.330968,-2.37786 5.330968,-5.33097 0,-2.95311 -2.377853,-5.32962 -5.330968,-5.32962 h -5.814253 v -5.8156 c 0,-2.95312 -2.377854,-5.33097 -5.330968,-5.33097 z"
       id="rect1024"
       inkscape:connector-curvature="0" />
    <rect
       style="opacity:1;fill:#a45908;fill-opacity:1;fill-rule:evenodd;stroke:none;stroke-width:5;stroke-linecap:round;stroke-linejoin:round;stroke-miterlimit:4;stroke-dasharray:none;stroke-dashoffset:0;stroke-opacity:1;paint-order:markers fill stroke"
       id="rect2489"
       width="124.79836"
       height="59.244164"
       x="99.908798"
       y="70.640358"
       ry="0" />
    <path
       id="path27"
       d="m 132.45312,105.44726 c -0.004,6.375 -4.96093,11.54297 -11.07422,11.55078 -6.11719,-0.008 -11.07422,-5.17578 -11.08203,-11.55078 0.008,-6.378913 4.96484,-11.546883 11.08203,-11.550793 6.11329,0.008 11.07032,5.17579 11.07422,11.550793 z m 118.17581,47.8711 c 0,12.22265 -4.13281,19.95703 -12.91407,24.48047 -2.73047,1.40625 -6.0039,0.94922 -8.28125,-1.15235 l -22.96094,-21.14062 c -4.125,-3.80469 -7.71485,-7.73438 -17.75782,-7.73438 h -53.42188 c -10.04688,0 -13.64063,3.92969 -17.75782,7.73438 l -22.968754,21.14062 c -1.367186,1.26953 -3.136718,1.96875 -4.964844,1.96485 -1.152344,0 -2.285156,-0.27735 -3.316406,-0.8125 -8.781253,-4.52735 -12.917972,-12.25782 -12.917972,-24.47266 0,-15.87891 6.98047,-42.0586 19.800785,-75.914073 6.070314,-16.03907 16.929691,-22.02344 27.292971,-22.02344 4.84376,0 9.58594,1.30859 13.68751,3.51172 17.90235,9.61719 38.1836,9.41797 55.71876,0 4.08594,-2.20313 8.82422,-3.51172 13.67188,-3.51172 10.36328,0 21.22656,5.98437 27.29688,22.02344 12.8164,33.847663 19.79687,60.027353 19.79687,75.906263 z m -110.78518,-47.8711 c 0,-10.632823 -8.26562,-19.257823 -18.46485,-19.253913 -10.19922,-0.004 -18.46875,8.61719 -18.46485,19.253913 -0.004,10.63281 8.26563,19.25781 18.46485,19.25391 10.19923,0 18.46485,-8.6211 18.46485,-19.25391 z m 29.54298,-19.253913 c 0,-4.25391 -3.3086,-7.70313 -7.38672,-7.69922 -4.07813,0 -7.38672,3.44531 -7.38672,7.69922 0,4.2539 3.30859,7.70312 7.38672,7.70312 4.07812,0 7.38281,-3.44922 7.38281,-7.70312 z m 25.85156,19.253913 c 0,-3.19532 -2.48047,-5.777353 -5.53906,-5.777353 -3.05859,0 -5.53906,2.585943 -5.53906,5.777353 0,3.19531 2.48047,5.77734 5.53906,5.77734 3.05859,0 5.53906,-2.58594 5.53906,-5.77734 z m 12.92579,13.47656 c 0,-3.19531 -2.48438,-5.77344 -5.53907,-5.77344 -3.0625,-0.004 -5.54297,2.58594 -5.53906,5.77344 0,3.19531 2.48047,5.77735 5.53906,5.77735 3.0586,0 5.53907,-2.58594 5.53907,-5.77735 z m 0,-27.191413 c 0,-3.19922 -2.48438,-5.77734 -5.53907,-5.77734 -3.0625,0 -5.54297,2.58594 -5.53906,5.77734 0.0781,3.12891 2.53516,5.6211 5.53906,5.6211 3,0 5.45704,-2.49219 5.53907,-5.6211 z m 12.80859,13.714853 c 0,-3.19532 -2.48437,-5.777353 -5.53906,-5.777353 -3.0625,0 -5.54297,2.585943 -5.54297,5.777353 0,3.19531 2.48438,5.77734 5.54297,5.77734 3.05859,0 5.53906,-2.58594 5.53906,-5.77734 z m 0,0"
       style="fill:url(#radialGradient1063);fill-opacity:1.0;fill-rule:nonzero;stroke:none;stroke-width:5.86566591;stroke-linecap:butt;stroke-linejoin:miter;stroke-miterlimit:4;stroke-opacity:0.26666703"
       inkscape:connector-curvature="0" />
  </g>
</svg>
