<?xml version="1.0" encoding="UTF-8" standalone="no"?>
<svg
   xmlns:dc="http://purl.org/dc/elements/1.1/"
   xmlns:cc="http://creativecommons.org/ns#"
   xmlns:rdf="http://www.w3.org/1999/02/22-rdf-syntax-ns#"
   xmlns:svg="http://www.w3.org/2000/svg"
   xmlns="http://www.w3.org/2000/svg"
   xmlns:xlink="http://www.w3.org/1999/xlink"
   xmlns:sodipodi="http://sodipodi.sourceforge.net/DTD/sodipodi-0.dtd"
   xmlns:inkscape="http://www.inkscape.org/namespaces/inkscape"
   width="324px"
   height="234px"
   viewBox="0 0 324 234"
   version="1.1"
   id="svg36"
   sodipodi:docname="musique.svg"
   inkscape:version="0.92.4 (5da689c313, 2019-01-14)">
  <metadata
     id="metadata40">
    <rdf:RDF>
      <cc:Work
         rdf:about="">
        <dc:format>image/svg+xml</dc:format>
        <dc:type
           rdf:resource="http://purl.org/dc/dcmitype/StillImage" />
        <dc:title />
      </cc:Work>
    </rdf:RDF>
  </metadata>
  <sodipodi:namedview
     pagecolor="#ffffff"
     bordercolor="#666666"
     borderopacity="1"
     objecttolerance="10"
     gridtolerance="10"
     guidetolerance="10"
     inkscape:pageopacity="0"
     inkscape:pageshadow="2"
     inkscape:window-width="1152"
     inkscape:window-height="752"
     id="namedview38"
     showgrid="false"
     inkscape:pagecheckerboard="true"
     inkscape:zoom="1.008547"
     inkscape:cx="118.94009"
     inkscape:cy="3.2070615"
     inkscape:window-x="0"
     inkscape:window-y="0"
     inkscape:window-maximized="1"
     inkscape:current-layer="svg36" />
  <defs
     id="defs17">
    <linearGradient
       gradientTransform="matrix(0.907583,0,0,0.923328,1.879359,1.835999)"
       y2="24.511812"
       x2="42.062531"
       y1="24.511812"
       x1="6.479695"
       gradientUnits="userSpaceOnUse"
       id="linearGradient887">
      <stop
         id="stop882"
         style="stop-color:#1285fe;stop-opacity:1"
         offset="0" />
      <stop
         id="stop885"
         style="stop-color:#cdeefe;stop-opacity:1"
         offset="1" />
    </linearGradient>
    <linearGradient
       gradientTransform="matrix(0.907583,0,0,0.923328,1.879359,1.835999)"
       y2="24.511812"
       x2="42.062531"
       y1="24.511812"
       x1="6.479695"
       gradientUnits="userSpaceOnUse"
       id="linearGradient878">
      <stop
         id="stop874"
         style="stop-color:#78b9fe;stop-opacity:1"
         offset="0" />
      <stop
         id="stop876"
         style="stop-color:#07a2ec;stop-opacity:1"
         offset="1" />
    </linearGradient>
    <inkscape:path-effect
       effect="bspline"
       id="path-effect864"
       is_visible="true"
       weight="33.333333"
       steps="2"
       helper_size="0"
       apply_no_weight="true"
       apply_with_weight="true"
       only_selected="false" />
    <inkscape:path-effect
       only_selected="false"
       apply_with_weight="true"
       apply_no_weight="true"
       helper_size="0"
       steps="2"
       weight="33.333333"
       is_visible="true"
       id="path-effect947"
       effect="bspline" />
    <inkscape:path-effect
       effect="bspline"
       id="path-effect943"
       is_visible="true"
       weight="33.333333"
       steps="2"
       helper_size="0"
       apply_no_weight="true"
       apply_with_weight="true"
       only_selected="false" />
    <linearGradient
       gradientTransform="matrix(0.907583,0,0,0.923328,1.879359,1.835999)"
       y2="24.511812"
       x2="42.062531"
       y1="24.511812"
       x1="6.479695"
       gradientUnits="userSpaceOnUse"
       id="linearGradient938">
      <stop
         id="stop934"
         style="stop-color:#56c5fa;stop-opacity:1"
         offset="0" />
      <stop
         id="stop936"
         style="stop-color:#0a80fd;stop-opacity:1"
         offset="1" />
    </linearGradient>
    <inkscape:path-effect
       only_selected="false"
       apply_with_weight="true"
       apply_no_weight="true"
       helper_size="0"
       steps="2"
       weight="33.333333"
       is_visible="true"
       id="path-effect904"
       effect="bspline" />
    <inkscape:path-effect
       effect="bspline"
       id="path-effect900"
       is_visible="true"
       weight="33.333333"
       steps="2"
       helper_size="0"
       apply_no_weight="true"
       apply_with_weight="true"
       only_selected="false" />
    <inkscape:path-effect
       only_selected="false"
       apply_with_weight="true"
       apply_no_weight="true"
       helper_size="0"
       steps="2"
       weight="33.333333"
       is_visible="true"
       id="path-effect896"
       effect="bspline" />
    <inkscape:path-effect
       effect="bspline"
       id="path-effect892"
       is_visible="true"
       weight="33.333333"
       steps="2"
       helper_size="0"
       apply_no_weight="true"
       apply_with_weight="true"
       only_selected="false" />
    <linearGradient
       id="linearGradient888"
       gradientUnits="userSpaceOnUse"
       x1="-1.455352"
       y1="64.761543"
       x2="181.728165"
       y2="64.761543"
       gradientTransform="matrix(1.8,0,0,0.98181,0,439.2)">
      <stop
         offset="0"
         style="stop-color:#93a7b4;stop-opacity:1"
         id="stop884" />
      <stop
         offset="1"
         style="stop-color:#d6dde2;stop-opacity:0"
         id="stop886" />
    </linearGradient>
    <linearGradient
       gradientTransform="matrix(1.8,0,0,0.98181,0,439.2)"
       y2="64.761543"
       x2="181.728165"
       y1="64.761543"
       x1="-1.455352"
       gradientUnits="userSpaceOnUse"
       id="linearGradient874">
      <stop
         id="stop870"
         style="stop-color:#a9b9c3;stop-opacity:1"
         offset="0" />
      <stop
         id="stop872"
         style="stop-color:#e9edf0;stop-opacity:1"
         offset="1" />
    </linearGradient>
    <linearGradient
       id="linear0"
       gradientUnits="userSpaceOnUse"
       x1="-1.455352"
       y1="64.761543"
       x2="181.728165"
       y2="64.761543"
       gradientTransform="matrix(1.8,0,0,0.98181,0,439.2)">
      <stop
         offset="0"
         style="stop-color:rgb(77.64706%,80.392158%,81.960785%);stop-opacity:1;"
         id="stop2" />
      <stop
         offset="1"
         style="stop-color:rgb(87.843138%,89.803922%,90.588236%);stop-opacity:1;"
         id="stop4" />
    </linearGradient>
    <linearGradient
       id="linear1"
       gradientUnits="userSpaceOnUse"
       x1="288.111572"
       y1="141.784515"
       x2="287.57547"
       y2="79.007812"
       gradientTransform="matrix(-0.00172589,0.980025,-0.976654,-0.00173184,234.334737,-162.490709)">
      <stop
         offset="0"
         style="stop-color:rgb(0%,0%,0%);stop-opacity:0.046875;"
         id="stop7" />
      <stop
         offset="1"
         style="stop-color:rgb(0%,0%,0%);stop-opacity:0;"
         id="stop9" />
    </linearGradient>
    <linearGradient
       id="linear2"
       gradientUnits="userSpaceOnUse"
       x1="6.479695"
       y1="24.511812"
       x2="42.062531"
       y2="24.511812"
       gradientTransform="matrix(0.907583,0,0,0.923328,1.879359,1.835999)">
      <stop
         offset="0"
         style="stop-color:rgb(3.921569%,50.196081%,99.215686%);stop-opacity:1;"
         id="stop12" />
      <stop
         offset="1"
         style="stop-color:rgb(33.725491%,77.254903%,98.039216%);stop-opacity:1;"
         id="stop14" />
    </linearGradient>
    <linearGradient
       inkscape:collect="always"
       xlink:href="#linearGradient874"
       id="linearGradient868"
       x1="0"
       y1="0"
       x2="162"
       y2="234"
       gradientUnits="userSpaceOnUse" />
    <linearGradient
       inkscape:collect="always"
       xlink:href="#linear2"
       id="linearGradient924"
       gradientUnits="userSpaceOnUse"
       x1="162"
       y1="117"
       x2="324"
       y2="117" />
    <linearGradient
       inkscape:collect="always"
       xlink:href="#linearGradient938"
       id="linearGradient932"
       x1="0"
       y1="117"
       x2="162"
       y2="117"
       gradientUnits="userSpaceOnUse" />
    <linearGradient
       inkscape:collect="always"
       xlink:href="#linearGradient938"
       id="linearGradient949"
       gradientUnits="userSpaceOnUse"
       x1="0"
       y1="117"
       x2="162"
       y2="117" />
    <linearGradient
       inkscape:collect="always"
       xlink:href="#linear2"
       id="linearGradient954"
       gradientUnits="userSpaceOnUse"
       x1="162"
       y1="117"
       x2="324"
       y2="117" />
    <linearGradient
       inkscape:collect="always"
       xlink:href="#linearGradient938"
       id="linearGradient971"
       x1="162"
       y1="128.39207"
       x2="324"
       y2="128.39207"
       gradientUnits="userSpaceOnUse" />
    <linearGradient
       inkscape:collect="always"
       xlink:href="#linear2"
       id="linearGradient973"
       x1="0"
       y1="128.39207"
       x2="162"
       y2="128.39207"
       gradientUnits="userSpaceOnUse" />
    <radialGradient
       inkscape:collect="always"
       xlink:href="#linearGradient887"
       id="radialGradient880"
       cx="162"
       cy="117"
       fx="162"
       fy="117"
       r="162"
       gradientTransform="matrix(1,0,0,0.72222223,-3.2813507e-7,32.500001)"
       gradientUnits="userSpaceOnUse" />
  </defs>
  <g
     id="surface1">
    <path
       style="fill:#d6dde2;fill-opacity:1;stroke:none"
       d="M 324,0 V 234 H 162 V 0 Z"
       id="path858"
       inkscape:connector-curvature="0" />
    <path
       style="fill:url(#linearGradient868);stroke:none;fill-opacity:1"
       d="M 0 0 L 0 234 L 162 234 L 162 0 L 0 0 z "
       id="rect19" />
    <path
       style="fill:url(#linearGradient973);fill-opacity:1;stroke:none;stroke-width:1px;stroke-linecap:butt;stroke-linejoin:miter;stroke-opacity:1"
       d="M 162,117 H 25.283898 0 c 6.73656,10.90561 13.473056,21.81116 18.660156,22.7207 5.18709,0.90953 8.824213,-8.17949 14.664063,-13.19336 5.83984,-5.01388 13.886384,-5.95451 22.115234,-2.80273 8.22886,3.15179 16.642333,10.39705 26.224609,10.07617 9.582278,-0.32088 20.334348,-8.20986 28.775388,-10.42969 8.44104,-2.21983 14.57614,1.22641 22.78516,1.10938 C 141.43363,124.36345 151.64225,120.70864 162,117 Z"
       id="path952"
       inkscape:connector-curvature="0"
       sodipodi:nodetypes="cccccssscc" />
    <path
       style="fill:url(#linearGradient949);fill-opacity:1;stroke:none;stroke-width:1px;stroke-linecap:butt;stroke-linejoin:miter;stroke-opacity:1"
       d="M 19.615234 94.222656 C 19.302244 94.204817 18.984346 94.222447 18.660156 94.279297 C 13.473056 95.188831 6.73656 106.09439 0 117 L 162 117 C 151.64225 113.29136 141.43363 109.63656 133.22461 109.51953 C 125.01559 109.40251 118.88049 112.84874 110.43945 110.62891 C 101.99841 108.40908 91.24634 100.5201 81.664062 100.19922 C 72.081786 99.878342 63.668313 107.12361 55.439453 110.27539 C 47.210603 113.42718 39.164059 112.48654 33.324219 107.47266 C 27.849359 102.77215 24.310124 94.490238 19.615234 94.222656 z "
       id="path898" />
    <path
       style="fill:url(#linearGradient971);fill-opacity:1.0;stroke:none;stroke-width:1px;stroke-linecap:butt;stroke-linejoin:miter;stroke-opacity:0.078125"
       d="M 324 117 L 162 117 C 172.35775 120.70864 182.56637 124.36345 190.77539 124.48047 C 198.98441 124.5975 205.11951 121.15126 213.56055 123.37109 C 222.00159 125.59092 232.75366 133.4799 242.33594 133.80078 C 251.91821 134.12166 260.33169 126.8764 268.56055 123.72461 C 276.7894 120.57283 284.83594 121.51346 290.67578 126.52734 C 296.51563 131.54121 300.15275 140.63023 305.33984 139.7207 C 310.52694 138.81116 317.26344 127.90561 324 117 z "
       id="path957" />
    <path
       style="fill:url(#linearGradient954);fill-opacity:1;stroke:none;stroke-width:1px;stroke-linecap:butt;stroke-linejoin:miter;stroke-opacity:0.078125"
       d="M 304.38477 94.222656 C 299.68988 94.490238 296.15064 102.77215 290.67578 107.47266 C 284.83594 112.48654 276.7894 113.42718 268.56055 110.27539 C 260.33169 107.12361 251.91821 99.878339 242.33594 100.19922 C 232.75366 100.5201 222.00159 108.40908 213.56055 110.62891 C 205.11951 112.84874 198.98441 109.40251 190.77539 109.51953 C 182.56637 109.63656 172.35775 113.29136 162 117 L 324 117 C 317.26344 106.09439 310.52694 95.188831 305.33984 94.279297 C 305.01565 94.222447 304.69776 94.204817 304.38477 94.222656 z "
       id="path914" />
    <path
       style="fill:none;stroke:url(#radialGradient880);stroke-width:2;stroke-linecap:butt;stroke-linejoin:miter;stroke-opacity:1;stroke-miterlimit:4;stroke-dasharray:none"
       d="m 0,117 c 108.001,0 216.001,0 324,0"
       id="path862"
       inkscape:connector-curvature="0"
       inkscape:path-effect="#path-effect864"
       inkscape:original-d="m 0,117 c 108.001,-0.001 216.001,-0.001 324,0" />
  </g>
  <g
     inkscape:groupmode="layer"
     id="layer1"
     inkscape:label="jhalo">
    <path
       style="fill-rule:nonzero;fill:rgb(15%, 60%, 98%);fill-opacity:1;stroke-width:0.332607;stroke-linecap:square;stroke-linejoin:bevel;stroke:rgb(0%, 0%, 0%);stroke-opacity:0.078125;stroke-miterlimit:4"
       d="M 3.244364 28.694761 L 3.244364 20.289536 C 3.244364 6.528861 14.504136 3.662006 20.546581 3.662006 L 27.678575 3.662006 C 33.645311 3.662006 44.980793 6.338038 44.980793 21.310267 L 44.980793 28.167458 C 44.980793 39.607777 37.263975 45.132597 27.678575 45.132597 L 20.546581 45.132597 C 10.961181 45.132597 3.244364 39.71956 3.244364 28.694761 Z M 3.244364 28.694761 "
       transform="matrix(3.560102,0,0,3.45953,76.40286,32.167117)"
       id="path23" />
    <path
       style="stroke:none;fill-rule:nonzero;fill:url(#linear1)"
       d="M 156.078125 49.113281 L 150.714844 49.105469 C 119.933594 49.050781 95.125 67.015625 95.058594 104.316406 L 95.019531 126.671875 C 94.933594 175.488281 131.316406 184.277344 150.476562 184.308594 L 155.839844 184.320312 C 136.679688 184.285156 100.296875 175.496094 100.382812 126.683594 L 100.421875 104.324219 C 100.488281 67.027344 125.296875 49.058594 156.078125 49.113281 Z M 156.078125 49.113281 "
       id="path25" />
    <path
       style="fill-rule:nonzero;fill:rgb(14%, 41%, 60%);fill-opacity:1;stroke-width:0.30665;stroke-linecap:square;stroke-linejoin:bevel;stroke:rgb(0%, 0%, 0%);stroke-opacity:0.078125;stroke-miterlimit:4"
       d="M 43.554394 20.428419 C 43.57195 10.038189 36.620999 4.924371 27.975925 4.908563 L 24.099411 4.901788 L 24.03248 43.983145 L 27.908993 43.991049 C 33.358934 44.000082 43.518185 41.317276 43.541227 28.349248 Z M 43.554394 20.428419 "
       transform="matrix(3.560102,0,0,3.45953,76.40286,32.167117)"
       id="path27" />
    <path
       style="fill-rule:nonzero;fill:rgb(92%, 92%, 92%);fill-opacity:1;stroke-width:0.30665;stroke-linecap:square;stroke-linejoin:bevel;stroke:rgb(0%, 0%, 0%);stroke-opacity:0.078125;stroke-miterlimit:4"
       d="M 4.60822 28.483614 C 4.603831 38.873844 11.561366 43.9775 20.20644 43.982016 L 24.082953 43.983145 L 24.099411 4.901788 L 20.222898 4.900659 C 14.772958 4.897272 4.616998 7.594757 4.611512 20.562785 Z M 4.60822 28.483614 "
       transform="matrix(3.560102,0,0,3.45953,76.40286,32.167117)"
       id="path29" />
    <path
       style="fill-rule:nonzero;fill:url(#linear2);stroke-width:0.25979;stroke-linecap:square;stroke-linejoin:bevel;stroke:rgb(0%, 0%, 0%);stroke-opacity:0.078125;stroke-miterlimit:4"
       d="M 7.888938 27.884047 L 7.888938 21.203 C 7.888938 10.266272 16.531817 7.988822 21.169808 7.988822 L 26.644985 7.988822 C 31.224822 7.988822 39.925855 10.114969 39.925855 22.014843 L 39.925855 27.465141 C 39.925855 36.558004 34.001911 40.948051 26.644985 40.948051 L 21.169808 40.948051 C 13.812882 40.948051 7.888938 36.646076 7.888938 27.884047 Z M 7.888938 27.884047 "
       transform="matrix(3.560102,0,0,3.45953,76.40286,32.167117)"
       id="path31" />
    <path
       style="stroke:none;fill-rule:nonzero;fill:rgb(100%, 100%, 100%);fill-opacity:0.846"
       d="M 188.097656 110.242188 C 187.738281 110.535156 187.207031 110.554688 186.824219 110.285156 L 174.160156 101.410156 L 168.15625 134.464844 C 168.132812 134.589844 168.085938 134.703125 168.015625 134.808594 C 166.8125 139.546875 160.242188 143.082031 152.515625 143.082031 C 143.859375 143.082031 136.816406 138.667969 136.816406 133.253906 C 136.816406 127.828125 143.855469 123.425781 152.515625 123.425781 C 156.074219 123.425781 159.453125 124.15625 162.199219 125.5 L 170.136719 84.050781 C 170.207031 83.671875 170.53125 83.371094 170.949219 83.300781 C 171.347656 83.234375 171.773438 83.402344 171.988281 83.738281 L 188.292969 109.109375 C 188.535156 109.496094 188.453125 109.976562 188.097656 110.269531 "
       id="path33" />
  </g>
</svg>
