<?xml version="1.0" encoding="UTF-8" standalone="no"?>
<svg
   xmlns:dc="http://purl.org/dc/elements/1.1/"
   xmlns:cc="http://creativecommons.org/ns#"
   xmlns:rdf="http://www.w3.org/1999/02/22-rdf-syntax-ns#"
   xmlns:svg="http://www.w3.org/2000/svg"
   xmlns="http://www.w3.org/2000/svg"
   xmlns:xlink="http://www.w3.org/1999/xlink"
   xmlns:sodipodi="http://sodipodi.sourceforge.net/DTD/sodipodi-0.dtd"
   xmlns:inkscape="http://www.inkscape.org/namespaces/inkscape"
   sodipodi:docname="opsu.svg"
   inkscape:version="0.92.4 (5da689c313, 2019-01-14)"
   width="324px"
   height="234px"
   viewBox="0 0 324 234"
   version="1.1"
   id="SVGRoot">
  <defs
     id="defs10">
    <linearGradient
       inkscape:collect="always"
       id="linearGradient1276">
      <stop
         style="stop-color:#71afd3;stop-opacity:1"
         offset="0"
         id="stop1272" />
      <stop
         id="stop1278"
         offset="0.81448179"
         style="stop-color:#2c7dbd;stop-opacity:1" />
      <stop
         style="stop-color:#215f8f;stop-opacity:1"
         offset="1"
         id="stop1274" />
    </linearGradient>
    <linearGradient
       inkscape:collect="always"
       id="linearGradient1092">
      <stop
         style="stop-color:#b4d5e8;stop-opacity:1"
         offset="0"
         id="stop1088" />
      <stop
         style="stop-color:#2c7dbd;stop-opacity:1"
         offset="1"
         id="stop1090" />
    </linearGradient>
    <inkscape:path-effect
       effect="bspline"
       id="path-effect1075"
       is_visible="true"
       weight="33.333333"
       steps="2"
       helper_size="0"
       apply_no_weight="true"
       apply_with_weight="true"
       only_selected="false" />
    <linearGradient
       id="linearGradient1001"
       inkscape:collect="always">
      <stop
         id="stop997"
         offset="0"
         style="stop-color:#ffffff;stop-opacity:1" />
      <stop
         id="stop999"
         offset="1"
         style="stop-color:#f2f6fb;stop-opacity:1" />
    </linearGradient>
    <linearGradient
       id="linearGradient991"
       inkscape:collect="always">
      <stop
         id="stop987"
         offset="0"
         style="stop-color:#71afd3;stop-opacity:1" />
      <stop
         id="stop989"
         offset="1"
         style="stop-color:#2c7dbd;stop-opacity:1" />
    </linearGradient>
    <linearGradient
       inkscape:collect="always"
       id="linearGradient891">
      <stop
         style="stop-color:#ffffff;stop-opacity:1"
         offset="0"
         id="stop887" />
      <stop
         style="stop-color:#5b9dd1;stop-opacity:1"
         offset="1"
         id="stop889" />
    </linearGradient>
    <linearGradient
       inkscape:collect="always"
       id="linearGradient883">
      <stop
         style="stop-color:#dee5e8;stop-opacity:1"
         offset="0"
         id="stop879" />
      <stop
         style="stop-color:#caedfc;stop-opacity:1"
         offset="1"
         id="stop881" />
    </linearGradient>
    <linearGradient
       inkscape:collect="always"
       xlink:href="#linearGradient883"
       id="linearGradient885"
       x1="0"
       y1="0"
       x2="324"
       y2="234"
       gradientUnits="userSpaceOnUse" />
    <radialGradient
       inkscape:collect="always"
       xlink:href="#linearGradient891"
       id="radialGradient895"
       cx="100"
       cy="61.500004"
       fx="100"
       fy="61.500004"
       r="100"
       gradientTransform="matrix(1,0,0,0.72222221,0,17.083334)"
       gradientUnits="userSpaceOnUse" />
    <radialGradient
       inkscape:collect="always"
       xlink:href="#linearGradient991"
       id="radialGradient985"
       cx="-178.41632"
       cy="529.35193"
       fx="-178.41632"
       fy="529.35193"
       r="90.402763"
       gradientTransform="matrix(0.60628339,-0.11601688,0.12271796,0.64130204,-1.0482536,-152.24847)"
       gradientUnits="userSpaceOnUse" />
    <radialGradient
       inkscape:collect="always"
       xlink:href="#linearGradient1001"
       id="radialGradient995"
       gradientUnits="userSpaceOnUse"
       gradientTransform="matrix(0.64872324,-0.12413807,0.13130822,0.68619318,1.9764314,-177.46063)"
       cx="-178.41632"
       cy="529.35193"
       fx="-178.41632"
       fy="529.35193"
       r="90.402763" />
    <filter
       inkscape:collect="always"
       style="color-interpolation-filters:sRGB"
       id="filter1065"
       x="-0.066060677"
       width="1.1321214"
       y="-0.063586539"
       height="1.1271731">
      <feGaussianBlur
         inkscape:collect="always"
         stdDeviation="3.2870947"
         id="feGaussianBlur1067" />
    </filter>
    <radialGradient
       inkscape:collect="always"
       xlink:href="#linearGradient1092"
       id="radialGradient1071"
       gradientUnits="userSpaceOnUse"
       gradientTransform="matrix(0.60628339,-0.11601688,0.12271796,0.64130204,-25.167599,-70.793989)"
       cx="-178.41632"
       cy="529.35193"
       fx="-178.41632"
       fy="529.35193"
       r="90.402763" />
    <radialGradient
       inkscape:collect="always"
       xlink:href="#linearGradient1276"
       id="radialGradient1110"
       gradientUnits="userSpaceOnUse"
       gradientTransform="matrix(0.60628339,-0.11601688,0.12271796,0.64130204,-1.0482536,-152.24847)"
       cx="-178.41632"
       cy="529.35193"
       fx="-178.41632"
       fy="529.35193"
       r="90.402763" />
    <filter
       inkscape:collect="always"
       style="color-interpolation-filters:sRGB"
       id="filter1707"
       x="-0.54085531"
       width="2.0817106"
       y="-1.3678842"
       height="3.7357685">
      <feGaussianBlur
         inkscape:collect="always"
         stdDeviation="15.333036"
         id="feGaussianBlur1709" />
    </filter>
  </defs>
  <sodipodi:namedview
     inkscape:pagecheckerboard="true"
     inkscape:window-maximized="1"
     inkscape:window-y="0"
     inkscape:window-x="0"
     inkscape:window-height="752"
     inkscape:window-width="1152"
     showgrid="false"
     inkscape:document-rotation="0"
     inkscape:current-layer="g55"
     inkscape:document-units="px"
     inkscape:cy="236.72854"
     inkscape:cx="40.868602"
     inkscape:zoom="0.7"
     inkscape:pageshadow="2"
     inkscape:pageopacity="0.0"
     borderopacity="1.0"
     bordercolor="#666666"
     pagecolor="#ffffff"
     id="base"
     inkscape:snap-global="true">
    <sodipodi:guide
       id="guide137"
       orientation="163.80001,0"
       position="243.9,198.9"
       inkscape:locked="false" />
    <sodipodi:guide
       id="guide139"
       orientation="0,-101.49202"
       position="243.9,35.099996"
       inkscape:locked="false" />
    <sodipodi:guide
       id="guide141"
       orientation="0,-62.30799"
       position="142.40799,35.099996"
       inkscape:locked="false" />
    <sodipodi:guide
       id="guide143"
       orientation="-163.80001,0"
       position="80.099996,35.099996"
       inkscape:locked="false" />
    <sodipodi:guide
       id="guide145"
       orientation="0,62.30799"
       position="80.099996,198.9"
       inkscape:locked="false" />
    <sodipodi:guide
       id="guide147"
       orientation="0,101.49202"
       position="142.40799,198.9"
       inkscape:locked="false" />
  </sodipodi:namedview>
  <metadata
     id="metadata13">
    <rdf:RDF>
      <cc:Work
         rdf:about="">
        <dc:format>image/svg+xml</dc:format>
        <dc:type
           rdf:resource="http://purl.org/dc/dcmitype/StillImage" />
        <dc:title />
      </cc:Work>
    </rdf:RDF>
  </metadata>
  <g
     id="layer1"
     inkscape:groupmode="layer"
     inkscape:label="Capa 1">
    <g
       transform="matrix(1.62,0,0,1.62,-3.24e-6,17.369997)"
       id="g55">
      <rect
         style="opacity:1;fill:url(#radialGradient895);fill-opacity:1;fill-rule:evenodd;stroke:none;stroke-width:1.23456788;stroke-miterlimit:4;stroke-dasharray:none;stroke-opacity:1;paint-order:markers fill stroke"
         id="rect877"
         width="200"
         height="144.44444"
         x="2e-06"
         y="-10.722219" />
      <path
         style="opacity:1;fill:url(#linearGradient885);fill-opacity:1;fill-rule:evenodd;stroke:none;stroke-width:4.42080832;stroke-miterlimit:4;stroke-dasharray:none;stroke-opacity:1;paint-order:markers fill stroke"
         d="M 0 0 L 0 234 L 16.814453 234 C 16.633089 227.22595 19.132201 220.39514 24.324219 215.20312 L 193.36133 46.166016 C 198.3781 41.149241 204.92549 38.642578 211.47266 38.642578 C 218.01982 38.642578 224.56721 41.149241 229.58398 46.166016 C 239.61753 56.199565 239.61753 72.355123 229.58398 82.388672 L 77.972656 234 L 156.98242 234 C 152.55134 228.44613 152.9036 220.37765 158.05078 215.23047 L 324 49.283203 L 324 0 L 291 0 L 258.11523 32.884766 C 254.67181 36.328189 249.12702 36.328189 245.68359 32.884766 C 242.24017 29.441342 242.24017 23.896548 245.68359 20.453125 L 266.13672 0 L 162.76172 0 L 45.511719 117.25195 C 38.082154 124.68152 26.119018 124.68152 18.689453 117.25195 C 11.259888 109.82239 11.259888 97.859251 18.689453 90.429688 L 109.12109 0 L 0 0 z M 63.898438 4.078125 C 66.532684 4.078125 69.167049 5.0869713 71.185547 7.1054688 C 75.222542 11.142464 75.222542 17.642693 71.185547 21.679688 L 42.71875 50.146484 C 38.681755 54.183479 32.183479 54.183479 28.146484 50.146484 C 24.10949 46.10949 24.10949 39.60926 28.146484 35.572266 L 56.611328 7.1054688 C 58.629826 5.0869713 61.264189 4.078125 63.898438 4.078125 z M 310.92383 22.830078 C 312.52522 22.830078 314.12645 23.442853 315.35352 24.669922 C 317.80765 27.12406 317.80765 31.075159 315.35352 33.529297 L 228.93359 119.94922 C 226.47946 122.40336 222.52836 122.40336 220.07422 119.94922 C 217.62008 117.49508 217.62008 113.54398 220.07422 111.08984 L 306.49414 24.669922 C 307.72121 23.442853 309.32244 22.830078 310.92383 22.830078 z M 133.19922 52.695312 C 136.809 52.695313 140.41759 54.079703 143.18359 56.845703 C 148.71559 62.377704 148.71559 71.284405 143.18359 76.816406 L 49.986328 170.01367 C 44.454327 175.54567 35.545673 175.54567 30.013672 170.01367 C 24.481671 164.48167 24.481671 155.57497 30.013672 150.04297 L 123.21289 56.845703 C 125.97889 54.079703 129.58944 52.695312 133.19922 52.695312 z M 324 89.224609 L 179.22461 234 L 205.35938 234 L 276.14453 163.21484 C 279.85931 159.50006 284.70865 157.64258 289.55664 157.64258 C 294.40463 157.64258 299.25201 159.50006 302.9668 163.21484 C 310.39636 170.64441 310.39636 182.60754 302.9668 190.03711 L 259.00391 234 L 324 234 L 324 89.224609 z "
         transform="matrix(0.61728395,0,0,0.61728395,2e-6,-10.72222)"
         id="rect831" />
    </g>
    <g
       id="g1108"
       transform="translate(233.69815,-237.20902)">
      <path
         id="path1003"
         d="m -56.128745,145.89154 c -3.45211,0 -5.60241,4.83505 -8.87281,19.95156 -3.02409,13.97804 -4.24007,17.24091 -7.45507,19.99284 -1.48492,1.27103 -8.058082,5.05577 -14.606967,8.41098 -16.301248,8.35164 -19.333728,11.48984 -15.301008,15.83895 2.621418,2.82708 5.381408,4.72274 15.206828,10.44276 11.611897,6.76007 14.424067,8.89806 16.116307,12.25397 0.84189,1.66955 2.10832,7.39072 3.3631,15.19136 2.18099,13.55868 3.29414,17.75319 5.43231,20.47144 1.14629,1.45725 1.75809,1.69813 3.57338,1.40355 2.85911,-0.46398 7.21058,-3.45662 14.01485,-9.63779 9.30371,-8.45176 14.577274,-12.41615 17.665624,-13.28083 3.013966,-0.84386 4.052764,-0.74328 24.0473924,2.3414 9.572543,1.47681 14.5232346,1.10262 15.9937566,-1.21005 1.552879,-2.44219 -0.06474,-8.19371 -6.2579196,-22.25038 -4.886756,-11.09154 -6.00412701,-14.70649 -5.473585,-17.70691 0.237045,-1.34066 3.220971,-8.08537 6.630737,-14.98754 8.2259136,-16.65121 9.2088866,-20.8805 5.2736316,-22.67351 -2.377775,-1.08341 -11.9666596,-0.96326 -22.6373936,0.2838 -10.7916764,1.26119 -15.2220714,0.9557 -18.5338204,-1.27841 -1.322843,-0.89238 -6.567003,-5.71347 -11.652813,-10.71368 -9.43866,-9.27979 -14.02394,-12.84351 -16.52653,-12.84351 z"
         style="fill:#6194d3;fill-opacity:1;stroke-width:0.66049385;filter:url(#filter1065)"
         inkscape:connector-curvature="0"
         transform="matrix(1.62,0,0,1.62,-3.24e-6,17.369997)" />
      <path
         inkscape:connector-curvature="0"
         style="fill:url(#radialGradient995);fill-opacity:1;stroke-width:0.66049385"
         d="m -56.128744,145.89154 c -3.45211,0 -5.60241,4.83505 -8.87281,19.95156 -3.02409,13.97804 -4.24007,17.24091 -7.45507,19.99284 -1.48492,1.27103 -8.058073,5.05577 -14.606958,8.41098 -16.301248,8.35164 -19.333728,11.48984 -15.301008,15.83895 2.621418,2.82708 5.381408,4.72274 15.206828,10.44276 11.611888,6.76007 14.424058,8.89806 16.116298,12.25397 0.84189,1.66955 2.10832,7.39072 3.3631,15.19136 2.18099,13.55868 3.29414,17.75319 5.43231,20.47144 1.14629,1.45725 1.75809,1.69813 3.57338,1.40355 2.85911,-0.46398 7.21058,-3.45662 14.01485,-9.63779 9.30371,-8.45176 14.577274,-12.41615 17.665624,-13.28083 3.013966,-0.84386 4.052764,-0.74328 24.0473924,2.3414 9.572543,1.47681 14.5232346,1.10262 15.9937566,-1.21005 1.55288,-2.44219 -0.06474,-8.19371 -6.2579196,-22.25038 -4.886756,-11.09154 -6.00412701,-14.70649 -5.473585,-17.70691 0.237045,-1.34066 3.220971,-8.08537 6.630737,-14.98754 8.2259146,-16.65121 9.2088876,-20.8805 5.2736316,-22.67351 -2.377775,-1.08341 -11.9666596,-0.96326 -22.6373936,0.2838 -10.7916764,1.26119 -15.2220714,0.9557 -18.5338204,-1.27841 -1.322843,-0.89238 -6.567003,-5.71347 -11.652813,-10.71368 -9.43866,-9.27979 -14.02394,-12.84351 -16.52653,-12.84351 z"
         id="path993"
         transform="matrix(1.62,0,0,1.62,-3.24e-6,17.369997)" />
      <path
         inkscape:connector-curvature="0"
         id="path940"
         d="m -55.352161,149.94983 c -3.226272,0 -5.235895,4.51873 -8.292346,18.64631 -2.826247,13.06359 -3.962679,16.113 -6.967352,18.6849 -1.387777,1.18788 -7.530918,4.72501 -13.651373,7.86072 -15.23481,7.80528 -18.068908,10.73817 -14.3,14.80276 2.44992,2.64213 5.02935,4.41378 14.21199,9.7596 10.852235,6.31782 13.480427,8.31593 15.061964,11.45231 0.786814,1.56032 1.970395,6.9072 3.143086,14.19753 2.038309,12.67166 3.07863,16.59176 5.07692,19.13218 1.071302,1.36192 1.643074,1.58704 3.339605,1.31173 2.672068,-0.43362 6.738864,-3.23048 13.097994,-9.00728 8.695055,-7.89884 13.623623,-11.60387 16.509932,-12.41199 2.81679,-0.78865 3.787629,-0.69465 22.4741974,2.18822 8.946303,1.3802 13.573116,1.03049 14.9474364,-1.13088 1.4512902,-2.28242 -0.0605,-7.65768 -5.8485224,-20.79476 -4.567062,-10.36592 -5.611334,-13.74438 -5.1155,-16.54851 0.221537,-1.25295 3.010253,-7.55642 6.19695,-14.00704 7.6877706,-15.56188 8.6064376,-19.51449 4.9286274,-21.1902 -2.2222204,-1.01253 -11.1837934,-0.90024 -21.1564428,0.26524 -10.085679,1.17867 -14.226234,0.89317 -17.321327,-1.19478 -1.236302,-0.834 -6.137389,-5.33969 -10.890481,-10.01279 -8.821179,-8.67269 -13.106488,-12.00327 -15.445358,-12.00327 z"
         style="fill:url(#radialGradient1110);fill-opacity:1;stroke-width:0.61728394"
         transform="matrix(1.62,0,0,1.62,-3.24e-6,17.369997)" />
      <g
         transform="matrix(1.62,0,0,1.62,39.07312,-114.58613)"
         id="g1086">
        <path
           style="opacity:0.51700003;fill:url(#radialGradient1071);fill-opacity:1;stroke-width:0.61728394"
           d="m -27.474846,253.89048 c -2.543963,3.04692 -5.111525,6.24244 -7.63045,9.13267 -2.553062,2.9294 -5.092081,5.76997 -7.614772,8.50935 -2.522698,2.73939 -5.029475,5.37676 -7.517124,7.8969 -2.487648,2.52013 -4.955895,4.92391 -7.402586,7.21451 -2.446685,2.29059 -4.871556,4.46856 -7.269963,6.53814 -2.398407,2.06957 -4.770426,4.03003 -7.113234,5.8871 -2.342809,1.85708 -4.656112,3.61071 -6.936007,5.2638 -2.279889,1.65308 -4.527419,3.20577 -6.737074,4.66338 -2.209654,1.45762 -4.381932,2.82005 -6.514031,4.09072 -0.310395,0.18498 -0.604006,0.33488 -0.912666,0.51601 0.775833,2.07018 1.802185,6.64557 2.857352,13.20529 2.038308,12.67166 3.078629,16.59176 5.076919,19.13218 1.071297,1.36192 1.643074,1.58705 3.339599,1.31173 2.672062,-0.43361 6.738864,-3.23048 13.097994,-9.00727 8.695062,-7.89884 13.62363,-11.60388 16.509938,-12.41199 2.81679,-0.78866 3.78763,-0.69465 22.474198,2.18822 8.946302,1.3802 13.573117,1.03049 14.947432,-1.13088 1.451293,-2.28242 -0.0605,-7.65768 -5.848519,-20.79476 -4.567068,-10.36592 -5.611339,-13.74438 -5.1155,-16.54851 0.221537,-1.25296 3.010253,-7.55642 6.196951,-14.00704 7.687769,-15.56188 8.606435,-19.5145 4.928624,-21.19021 -1.565957,-0.71351 -6.562414,-0.83788 -12.817081,-0.45934 z"
           id="path1069"
           inkscape:connector-curvature="0" />
      </g>
      <path
         style="opacity:1;fill:#ffffff;fill-opacity:1;fill-rule:evenodd;stroke:none;stroke-width:2.69999266;stroke-miterlimit:4;stroke-dasharray:none;stroke-opacity:1;paint-order:markers fill stroke"
         d="m -31.541036,336.04999 v 8.07887 l 1.576755,11.88893 h 2.57871 l 1.613665,-11.88893 v -8.07887 z m -75.850264,6.81062 c -3.18023,0 -5.68315,0.9862 -7.50409,2.96102 -1.82093,1.94917 -2.729,4.63094 -2.729,8.04198 0,3.41105 0.90807,6.10407 2.729,8.07889 1.82094,1.94916 4.33513,2.92411 7.54099,2.92411 3.15458,0 5.65486,-0.97495 7.501445,-2.92411 1.84658,-1.94918 2.77118,-4.59186 2.77118,-7.92597 0,-3.51362 -0.9107,-6.24573 -2.73163,-8.1949 -1.795285,-1.97482 -4.320735,-2.96102 -7.577895,-2.96102 z m 23.181945,0 c -2.56469,0 -4.48678,1.13987 -5.76912,3.42246 v -3.07704 h -5.3868 v 29.16202 h 5.3868 v -10.85008 c 1.28234,2.25694 3.20443,3.38556 5.76912,3.38556 2.487764,-2e-5 4.552232,-1.0392 6.193639,-3.11661 1.667057,-2.10305 2.499613,-4.73183 2.499613,-7.88641 0,-3.15457 -0.793487,-5.78334 -2.383593,-7.88639 -1.590108,-2.10305 -3.693659,-3.15351 -6.309659,-3.15351 z m 18.36734,0 c -2.641632,0 -4.731278,0.62854 -6.270098,1.88524 -1.513171,1.23106 -2.270208,2.91006 -2.270208,5.03877 0,0.43599 0.03906,0.84664 0.116018,1.23134 0.07693,0.3847 0.191524,0.7311 0.34541,1.03887 0.153872,0.28211 0.29627,0.5391 0.424506,0.76992 0.153887,0.23082 0.357884,0.44872 0.614357,0.65389 0.256459,0.17953 0.46047,0.33319 0.614342,0.46143 0.179536,0.12823 0.425249,0.25673 0.733008,0.38497 0.307772,0.10261 0.511771,0.17809 0.614357,0.22938 0.128236,0.0513 0.33488,0.12945 0.616988,0.23203 0.282123,0.0769 0.43578,0.11602 0.46143,0.11602 l 6.423026,1.99863 c 0.666816,0.20517 1.127814,0.43698 1.384273,0.69345 0.282121,0.25647 0.42452,0.58897 0.42452,0.99932 0,0.64117 -0.360301,1.14124 -1.078419,1.50029 -0.692467,0.35905 -1.664774,0.54053 -2.921473,0.54053 -1.53882,0 -2.591912,-0.23182 -3.156143,-0.69348 -0.538593,-0.46162 -0.896262,-1.12925 -1.075784,-2.00125 h -5.270792 c 0.153886,4.61645 3.422483,6.92665 9.808575,6.92665 1.718343,0 3.207254,-0.23181 4.463951,-0.69346 1.256699,-0.43599 2.19257,-1.02547 2.808101,-1.76923 0.641168,-0.74377 1.102151,-1.48954 1.384274,-2.23329 0.282108,-0.76942 0.424506,-1.55163 0.424506,-2.34668 0,-2.69293 -1.360418,-4.43618 -4.078988,-5.23125 l -6.807992,-1.9617 c -0.743766,-0.23082 -1.243818,-0.44873 -1.50029,-0.6539 -0.256473,-0.23083 -0.384966,-0.55206 -0.384966,-0.9624 0,-0.58989 0.282163,-1.05088 0.846394,-1.38429 0.564231,-0.35905 1.318636,-0.53787 2.267562,-0.53787 2.564696,0 3.860869,0.93587 3.886519,2.80809 h 5.194327 c -0.0513,-2.20564 -0.872584,-3.92372 -2.46269,-5.15478 -1.590121,-1.2567 -3.783082,-1.88524 -6.578601,-1.88524 z m 11.19548,0.34542 v 14.46499 c 0,2.28257 0.600735,4.05365 1.806146,5.31034 1.231049,1.2567 2.949135,1.88525 5.154774,1.88525 2.667281,0 4.745669,-1.11736 6.233189,-3.34864 v 2.4627 h 5.386796 v -20.77464 h -5.386796 v 13.00425 c 0,1.23107 -0.396737,2.21727 -1.191804,2.96103 -0.795054,0.74377 -1.848145,1.11532 -3.156143,1.11532 -2.308224,0 -3.461999,-1.24317 -3.461999,-3.73095 v -13.34965 z m -52.707865,4.00251 c 1.48753,0 2.66648,0.61467 3.53846,1.8457 0.89766,1.20541 1.34737,2.83408 1.34737,4.88583 0,1.94916 -0.46098,3.53876 -1.38427,4.76981 -0.89765,1.20541 -2.06532,1.80879 -3.50156,1.80879 -1.46186,0 -2.64082,-0.61728 -3.53846,-1.84834 -0.89765,-1.23106 -1.34736,-2.83191 -1.34736,-4.80672 0,-1.97481 0.44971,-3.57831 1.34736,-4.80937 0.89764,-1.23103 2.0766,-1.8457 3.53846,-1.8457 z m 21.913705,0.15292 c 1.3593,0 2.44882,0.61467 3.269529,1.84571 0.846339,1.20541 1.270886,2.79501 1.270886,4.76981 0,1.87223 -0.424547,3.41148 -1.270886,4.61689 -0.846359,1.2054 -1.935879,1.80878 -3.269529,1.80878 -1.35928,0 -2.46272,-0.58947 -3.30907,-1.76923 -0.82071,-1.2054 -1.22871,-2.78372 -1.22871,-4.73291 0,-1.94916 0.408,-3.52484 1.22871,-4.73025 0.84635,-1.2054 1.94979,-1.8088 3.30907,-1.8088 z m 53.899659,11.00301 v 5.6162 h 5.76913 v -5.6162 z"
         id="rect1280"
         inkscape:connector-curvature="0" />
      <path
         id="path1285"
         d="m -41.95206,340.75785 v 5.98437 l 1.16797,8.80664 h 1.91016 l 1.19531,-8.80664 v -5.98437 z m -56.18554,5.04492 c -2.35573,0 -4.20975,0.73053 -5.5586,2.19336 -1.34884,1.44383 -2.02148,3.43033 -2.02148,5.95703 0,2.52671 0.67264,4.52155 2.02148,5.98438 1.34885,1.44383 3.21122,2.16601 5.58594,2.16601 2.33673,0 4.1888,-0.72218 5.55664,-2.16601 1.36784,-1.44384 2.05274,-3.40139 2.05274,-5.8711 0,-2.60269 -0.6746,-4.62648 -2.02344,-6.07031 -1.32985,-1.46283 -3.20056,-2.19336 -5.61328,-2.19336 z m 17.17187,0 c -1.89978,0 -3.32355,0.84435 -4.27344,2.53516 v -2.2793 h -3.99023 v 21.60156 h 3.99023 v -8.03711 c 0.94989,1.67181 2.37366,2.50782 4.27344,2.50782 1.84279,-10e-6 3.37203,-0.76978 4.58789,-2.3086 1.23486,-1.55782 1.85157,-3.50507 1.85157,-5.8418 0,-2.33672 -0.58777,-4.28397 -1.76563,-5.84179 -1.17786,-1.55782 -2.73605,-2.33594 -4.67383,-2.33594 z m 13.60547,0 c -1.95677,0 -3.50466,0.46559 -4.64453,1.39648 -1.12087,0.9119 -1.68164,2.15561 -1.68164,3.73243 0,0.32296 0.02894,0.62714 0.08594,0.91211 0.05699,0.28496 0.14187,0.54155 0.25586,0.76953 0.11398,0.20897 0.21946,0.39933 0.31445,0.57031 0.11399,0.17098 0.2651,0.33239 0.45508,0.48437 0.18997,0.13299 0.34109,0.24681 0.45507,0.3418 0.13299,0.095 0.315,0.19017 0.54297,0.28516 0.22798,0.076 0.37909,0.13192 0.45508,0.16992 0.09499,0.038 0.24806,0.0959 0.45703,0.17187 0.20898,0.057 0.3228,0.0859 0.3418,0.0859 l 4.75781,1.48047 c 0.49394,0.15198 0.83542,0.32369 1.02539,0.51367 0.20898,0.18998 0.31446,0.43627 0.31446,0.74024 0,0.47494 -0.26689,0.84536 -0.79883,1.11133 -0.51294,0.26596 -1.23317,0.40039 -2.16406,0.40039 -1.13987,0 -1.91994,-0.17172 -2.33789,-0.51368 -0.39896,-0.34196 -0.6639,-0.83649 -0.79688,-1.48242 h -3.9043 c 0.11399,3.4196 2.53518,5.13086 7.26563,5.13086 1.27285,0 2.37575,-0.17171 3.30664,-0.51367 0.93089,-0.32296 1.62413,-0.75961 2.08008,-1.31055 0.47494,-0.55093 0.81641,-1.10336 1.02539,-1.65429 0.20897,-0.56994 0.31445,-1.14935 0.31445,-1.73829 0,-1.99476 -1.00772,-3.28606 -3.02148,-3.875 l -5.04297,-1.45312 c -0.55094,-0.17098 -0.92135,-0.33239 -1.11133,-0.48438 -0.18998,-0.17098 -0.28516,-0.40892 -0.28516,-0.71289 0,-0.43695 0.20901,-0.77842 0.62696,-1.02539 0.41795,-0.26597 0.97677,-0.39843 1.67968,-0.39843 1.89978,0 2.85991,0.69324 2.87891,2.08007 h 3.84766 c -0.038,-1.63381 -0.64636,-2.90646 -1.82422,-3.81836 -1.17787,-0.93089 -2.80229,-1.39648 -4.87305,-1.39648 z m 8.29297,0.25586 v 10.71484 c 0,1.69081 0.44499,3.00271 1.33789,3.9336 0.91189,0.93089 2.18455,1.39648 3.81836,1.39648 1.97577,0 3.51532,-0.82766 4.61719,-2.48047 v 1.82422 h 3.99023 v -15.38867 h -3.99023 v 9.63281 c 0,0.9119 -0.29388,1.64243 -0.88282,2.19336 -0.58893,0.55094 -1.369,0.82617 -2.33789,0.82617 -1.7098,0 -2.56445,-0.92088 -2.56445,-2.76367 v -9.88867 z m -39.04297,2.96484 c 1.10187,0 1.97517,0.4553 2.62109,1.36719 0.66493,0.8929 0.99805,2.09932 0.99805,3.61914 0,1.44383 -0.34147,2.62131 -1.02539,3.5332 -0.66492,0.8929 -1.52987,1.33985 -2.59375,1.33985 -1.08287,0 -1.95617,-0.45725 -2.62109,-1.36914 -0.66493,-0.9119 -0.99805,-2.09772 -0.99805,-3.56055 0,-1.46283 0.33312,-2.65061 0.99805,-3.5625 0.66492,-0.91189 1.53822,-1.36719 2.62109,-1.36719 z m 16.23242,0.11328 c 1.00689,0 1.81395,0.4553 2.42188,1.36719 0.62692,0.8929 0.9414,2.07038 0.9414,3.5332 0,1.38684 -0.31448,2.52703 -0.9414,3.41993 -0.62693,0.89289 -1.43399,1.33984 -2.42188,1.33984 -1.00688,0 -1.82424,-0.43665 -2.45117,-1.31055 -0.60793,-0.89289 -0.91016,-2.06202 -0.91016,-3.50586 0,-1.44383 0.30223,-2.61101 0.91016,-3.5039 0.62693,-0.8929 1.44429,-1.33985 2.45117,-1.33985 z m 39.92578,8.15039 v 4.16016 h 4.27344 v -4.16016 z"
         style="opacity:1;fill:#ffffff;fill-opacity:1;fill-rule:evenodd;stroke:none;stroke-width:2;stroke-miterlimit:4;stroke-dasharray:none;stroke-opacity:1;paint-order:markers fill stroke;filter:url(#filter1707)"
         inkscape:connector-curvature="0"
         transform="matrix(1.3499964,0,0,1.3499964,25.094094,-123.97188)" />
    </g>
  </g>
</svg>
