<?xml version="1.0" encoding="UTF-8"?>
<svg xmlns="http://www.w3.org/2000/svg" xmlns:xlink="http://www.w3.org/1999/xlink" width="324px" height="234px" viewBox="0 0 324 234" version="1.1">
<g id="surface1">
<rect x="0" y="0" width="324" height="234" style="fill:rgb(62.7451%,17.254902%,50.196081%);fill-opacity:1;stroke:none;"/>
<path style="fill:none;stroke-width:1.021703;stroke-linecap:butt;stroke-linejoin:miter;stroke:rgb(100%,100%,100%);stroke-opacity:1;stroke-miterlimit:4;" d="M -0.94401 -1.082899 L 181.217448 -1.082899 L 181.217448 130.605469 L -0.94401 130.605469 Z M -0.94401 -1.082899 " transform="matrix(1.8,0,0,1.8,0,0)"/>
<path style=" stroke:none;fill-rule:nonzero;fill:rgb(92.54902%,92.54902%,92.54902%);fill-opacity:1;" d="M 173.820312 44.117188 L 87.019531 60.140625 L 87.019531 173.003906 L 173.820312 189.027344 Z M 179.605469 60.835938 L 179.605469 77.382812 L 202.933594 77.382812 L 202.933594 88.703125 L 179.605469 88.703125 L 179.605469 99.851562 L 202.75 99.851562 L 202.75 110.996094 L 179.605469 110.996094 L 179.605469 122.144531 L 202.75 122.144531 L 202.75 133.292969 L 179.605469 133.292969 L 179.605469 144.4375 L 202.75 144.4375 L 202.75 155.585938 L 179.605469 155.585938 L 179.605469 172.304688 L 215.226562 172.304688 C 217.894531 172.304688 220.109375 170.105469 220.109375 167.429688 L 220.109375 94.277344 L 232.589844 94.277344 C 235.253906 94.277344 237.46875 92.078125 237.46875 89.398438 L 237.46875 65.710938 C 237.46875 63.035156 235.253906 60.835938 232.589844 60.835938 Z M 104.378906 88.355469 L 116.859375 88.355469 L 137.292969 122.492188 C 138.21875 124.015625 139.03125 125.691406 139.824219 127.195312 L 140.003906 127.195312 C 139.824219 125.890625 139.640625 123.1875 139.640625 119.359375 L 139.640625 88.355469 L 150.671875 88.355469 L 150.671875 144.4375 L 138.917969 144.4375 L 117.761719 109.253906 C 116.519531 107.1875 115.703125 105.597656 115.230469 104.554688 L 115.050781 104.554688 C 115.230469 106.535156 115.410156 109.539062 115.410156 113.609375 L 115.410156 144.4375 L 104.378906 144.4375 Z M 225.898438 99.851562 L 225.898438 133.292969 L 232.589844 133.292969 C 235.253906 133.292969 237.46875 131.09375 237.46875 128.414062 L 237.46875 104.726562 C 237.46875 102.050781 235.253906 99.851562 232.589844 99.851562 Z M 225.898438 138.863281 L 225.898438 172.304688 L 232.589844 172.304688 C 235.253906 172.304688 237.46875 170.105469 237.46875 167.429688 L 237.46875 143.742188 C 237.46875 141.0625 235.253906 138.863281 232.589844 138.863281 Z M 225.898438 138.863281 "/>
</g>
</svg>
