<?xml version="1.0" encoding="UTF-8"?>
<svg xmlns="http://www.w3.org/2000/svg" xmlns:xlink="http://www.w3.org/1999/xlink" width="324px" height="234px" viewBox="0 0 324 234" version="1.1">
<defs>
<linearGradient id="linear0" gradientUnits="userSpaceOnUse" x1="-1.455352" y1="64.761543" x2="181.728165" y2="64.761543" gradientTransform="matrix(1.8,0,0,2.057148,0,-139.320003)">
<stop offset="0" style="stop-color:rgb(9.803922%,48.627451%,94.509804%);stop-opacity:1;"/>
<stop offset="1" style="stop-color:rgb(1.960784%,62.7451%,92.156863%);stop-opacity:1;"/>
</linearGradient>
<clipPath id="clip1">
  <path d="M 162 161 L 246 161 L 246 192 L 162 192 Z M 162 161 "/>
</clipPath>
<clipPath id="clip2">
  <path d="M 321.511719 116.933594 C 321.25 211.667969 249.722656 288.222656 161.851562 288.007812 C 73.980469 287.792969 2.875 210.890625 3.136719 116.160156 C 3.398438 21.429688 74.925781 -55.125 162.800781 -54.914062 C 250.671875 -54.699219 321.777344 22.203125 321.511719 116.933594 Z M 321.511719 116.933594 "/>
</clipPath>
<clipPath id="clip3">
  <path d="M 79 41 L 163 41 L 163 162 L 79 162 Z M 79 41 "/>
</clipPath>
<clipPath id="clip4">
  <path d="M 321.511719 116.933594 C 321.25 211.667969 249.722656 288.222656 161.851562 288.007812 C 73.980469 287.792969 2.875 210.890625 3.136719 116.160156 C 3.398438 21.429688 74.925781 -55.125 162.800781 -54.914062 C 250.671875 -54.699219 321.777344 22.203125 321.511719 116.933594 Z M 321.511719 116.933594 "/>
</clipPath>
</defs>
<g id="surface1">
<rect x="0" y="0" width="324" height="234" style="fill:url(#linear0);stroke:none;"/>
<path style="fill:none;stroke-width:1.021703;stroke-linecap:butt;stroke-linejoin:miter;stroke:rgb(100%,100%,100%);stroke-opacity:1;stroke-miterlimit:4;" d="M -0.94401 -1.082899 L 181.217448 -1.082899 L 181.217448 130.605469 L -0.94401 130.605469 Z M -0.94401 -1.082899 " transform="matrix(1.8,0,0,1.8,0,0)"/>
<g clip-path="url(#clip1)" clip-rule="nonzero">
<g clip-path="url(#clip2)" clip-rule="nonzero">
<path style=" stroke:none;fill-rule:nonzero;fill:rgb(94.901961%,94.901961%,94.901961%);fill-opacity:1;" d="M 245.175781 191.296875 L 245.257812 161.476562 L 162.203125 161.277344 L 162.121094 191.09375 M 245.175781 191.296875 "/>
</g>
</g>
<g clip-path="url(#clip3)" clip-rule="nonzero">
<g clip-path="url(#clip4)" clip-rule="nonzero">
<path style=" stroke:none;fill-rule:nonzero;fill:rgb(94.901961%,94.901961%,94.901961%);fill-opacity:1;" d="M 98.152344 161.121094 L 79.234375 139.410156 L 122.058594 101.539062 L 79.445312 63.492188 L 98.480469 41.84375 L 162.394531 101.636719 M 98.152344 161.121094 "/>
</g>
</g>
</g>
</svg>
