<?xml version="1.0" encoding="UTF-8"?>
<svg xmlns="http://www.w3.org/2000/svg" xmlns:xlink="http://www.w3.org/1999/xlink" width="324px" height="234px" viewBox="0 0 324 234" version="1.1">
<defs>
<linearGradient id="linear0" gradientUnits="userSpaceOnUse" x1="-1.455352" y1="64.761543" x2="181.728165" y2="64.761543" gradientTransform="matrix(1.8,0,0,2.057148,0,-139.320003)">
<stop offset="0" style="stop-color:rgb(9.803922%,48.627451%,94.509804%);stop-opacity:1;"/>
<stop offset="1" style="stop-color:rgb(1.960784%,62.7451%,92.156863%);stop-opacity:1;"/>
</linearGradient>
<linearGradient id="linear1" gradientUnits="userSpaceOnUse" x1="64.079453" y1="-64.761543" x2="116.193359" y2="-64.761543" gradientTransform="matrix(1.8,0,0,-2.057148,0,139.320003)">
<stop offset="0" style="stop-color:rgb(9.803922%,48.627451%,94.509804%);stop-opacity:1;"/>
<stop offset="1" style="stop-color:rgb(1.960784%,62.7451%,92.156863%);stop-opacity:1;"/>
</linearGradient>
</defs>
<g id="surface1">
<rect x="0" y="0" width="324" height="234" style="fill:url(#linear0);stroke:none;"/>
<path style="fill:none;stroke-width:1.021703;stroke-linecap:butt;stroke-linejoin:miter;stroke:rgb(100%,100%,100%);stroke-opacity:1;stroke-miterlimit:4;" d="M -0.94401 -1.082899 L 181.217448 -1.082899 L 181.217448 130.605469 L -0.94401 130.605469 Z M -0.94401 -1.082899 " transform="matrix(1.8,0,0,1.8,0,0)"/>
<path style=" stroke:none;fill-rule:nonzero;fill:rgb(20%,20%,20%);fill-opacity:1;" d="M 237.28125 116.570312 C 237.28125 74.964844 203.6875 41.238281 162.246094 41.238281 C 120.804688 41.238281 87.210938 74.964844 87.210938 116.570312 C 87.210938 158.175781 120.804688 191.902344 162.246094 191.902344 C 203.6875 191.902344 237.28125 158.175781 237.28125 116.570312 Z M 237.28125 116.570312 "/>
<path style=" stroke:none;fill-rule:nonzero;fill:url(#linear1);" d="M 209.148438 116.570312 C 209.148438 91.238281 188.148438 70.703125 162.246094 70.703125 C 136.34375 70.703125 115.34375 91.238281 115.34375 116.570312 C 115.34375 141.902344 136.34375 162.4375 162.246094 162.4375 C 188.148438 162.4375 209.148438 141.902344 209.148438 116.570312 Z M 209.148438 116.570312 "/>
</g>
</svg>
