<?xml version="1.0" encoding="UTF-8"?>
<svg xmlns="http://www.w3.org/2000/svg" xmlns:xlink="http://www.w3.org/1999/xlink" width="324px" height="234px" viewBox="0 0 324 234" version="1.1">
<defs>
<linearGradient id="linear0" gradientUnits="userSpaceOnUse" x1="-1.455352" y1="64.761543" x2="181.728165" y2="64.761543" gradientTransform="matrix(1.8,0,0,1.8,0,0)">
<stop offset="0" style="stop-color:rgb(37.254903%,55.29412%,82.745099%);stop-opacity:1;"/>
<stop offset="1" style="stop-color:rgb(68.627453%,77.64706%,91.37255%);stop-opacity:1;"/>
</linearGradient>
<linearGradient id="linear1" gradientUnits="userSpaceOnUse" x1="5.459902" y1="9.032729" x2="235.829865" y2="106.253067" >
<stop offset="0" style="stop-color:rgb(100%,100%,100%);stop-opacity:1;"/>
<stop offset="1" style="stop-color:rgb(100%,100%,100%);stop-opacity:0;"/>
</linearGradient>
<linearGradient id="linear2" gradientUnits="userSpaceOnUse" x1="23.738585" y1="1051.099487" x2="23.233509" y2="1005.011292" gradientTransform="matrix(3.566839,0,0,3.566839,78.775535,-3552.252717)">
<stop offset="0" style="stop-color:rgb(37.254903%,55.29412%,82.745099%);stop-opacity:1;"/>
<stop offset="1" style="stop-color:rgb(68.627453%,77.64706%,91.37255%);stop-opacity:1;"/>
</linearGradient>
<clipPath id="clip1">
  <path d="M 137 83 L 247 83 L 247 198 L 137 198 Z M 137 83 "/>
</clipPath>
<clipPath id="clip2">
  <path d="M 246.417969 115.75 C 246.417969 161.058594 209.6875 197.785156 164.378906 197.785156 C 119.070312 197.785156 82.34375 161.058594 82.34375 115.75 C 82.34375 70.441406 119.070312 33.710938 164.378906 33.710938 C 209.6875 33.710938 246.417969 70.441406 246.417969 115.75 Z M 246.417969 115.75 "/>
</clipPath>
<linearGradient id="linear3" gradientUnits="userSpaceOnUse" x1="23.738585" y1="1051.099487" x2="23.233509" y2="1005.011292" gradientTransform="matrix(0.958333,0,0,0.958333,0.999999,42.848442)">
<stop offset="0" style="stop-color:rgb(92.54902%,92.54902%,92.54902%);stop-opacity:1;"/>
<stop offset="1" style="stop-color:rgb(100%,100%,100%);stop-opacity:1;"/>
</linearGradient>
</defs>
<g id="surface1">
<rect x="0" y="0" width="324" height="234" style="fill:url(#linear0);stroke:none;"/>
<path style="fill:none;stroke-width:1.021703;stroke-linecap:butt;stroke-linejoin:miter;stroke:url(#linear1);stroke-miterlimit:4;" d="M -0.94401 -1.082899 L 181.217448 -1.082899 L 181.217448 130.605469 L -0.94401 130.605469 Z M -0.94401 -1.082899 " transform="matrix(1.8,0,0,1.8,0,0)"/>
<path style=" stroke:none;fill-rule:nonzero;fill:url(#linear2);" d="M 246.417969 115.75 C 246.417969 161.058594 209.6875 197.785156 164.378906 197.785156 C 119.070312 197.785156 82.34375 161.058594 82.34375 115.75 C 82.34375 70.441406 119.070312 33.710938 164.378906 33.710938 C 209.6875 33.710938 246.417969 70.441406 246.417969 115.75 Z M 246.417969 115.75 "/>
<g clip-path="url(#clip1)" clip-rule="nonzero">
<g clip-path="url(#clip2)" clip-rule="nonzero">
<path style=" stroke:none;fill-rule:nonzero;fill:rgb(0%,0%,0%);fill-opacity:0.0784314;" d="M 137.566406 83.328125 L 137.566406 88.351562 L 146.34375 97.128906 L 146.34375 138.535156 L 137.566406 138.535156 L 137.566406 143.566406 L 389.78125 395.78125 L 413.429688 395.78125 L 413.429688 390.75 L 403.910156 381.226562 L 403.910156 368.171875 L 405.726562 368.171875 L 433.335938 395.78125 L 446.710938 395.78125 L 446.710938 390.75 L 423.769531 367.8125 C 434.773438 365.90625 438.363281 357.695312 438.363281 351.695312 C 438.363281 347.277344 436.386719 342.707031 433.523438 339.839844 L 181.308594 87.625 C 180.773438 87.09375 180.210938 86.613281 179.621094 86.210938 C 175.878906 83.644531 171.917969 83.328125 165.070312 83.328125 Z M 137.566406 83.328125 "/>
</g>
</g>
<path style="fill:none;stroke-width:1.916667;stroke-linecap:butt;stroke-linejoin:miter;stroke:url(#linear3);stroke-miterlimit:4;" d="M 46.042019 1028.362334 C 46.042019 1040.535008 36.173556 1050.403471 23.999786 1050.403471 C 11.827111 1050.403471 1.958648 1040.535008 1.958648 1028.362334 C 1.958648 1016.188564 11.827111 1006.320101 23.999786 1006.320101 C 36.173556 1006.320101 46.042019 1016.188564 46.042019 1028.362334 Z M 46.042019 1028.362334 " transform="matrix(3.566839,0,0,3.566839,78.775536,-3552.252759)"/>
<path style=" stroke:none;fill-rule:nonzero;fill:rgb(100%,100%,100%);fill-opacity:1;" d="M 137.570312 83.324219 L 137.570312 88.351562 L 146.34375 88.351562 L 146.34375 138.539062 L 137.570312 138.539062 L 137.570312 143.566406 L 161.214844 143.566406 L 161.214844 138.539062 L 151.691406 138.539062 L 151.691406 115.960938 L 159.398438 115.960938 C 164.960938 115.960938 166.671875 118.742188 170.847656 125.269531 C 172.34375 127.625 177.800781 136.398438 181.121094 143.566406 L 194.496094 143.566406 L 194.496094 138.539062 L 185.078125 138.539062 C 180.90625 131.582031 173.628906 119.492188 169.777344 115.855469 C 182.191406 114.570312 186.148438 105.796875 186.148438 99.480469 C 186.148438 94.238281 183.367188 88.78125 179.621094 86.214844 C 175.875 83.644531 171.917969 83.324219 165.070312 83.324219 Z M 164.855469 88.351562 C 172.558594 88.351562 174.269531 89.101562 175.875 90.171875 C 178.660156 92.097656 180.371094 95.628906 180.371094 99.160156 C 180.371094 111.144531 167.316406 110.929688 161.644531 110.929688 L 151.691406 110.929688 L 151.691406 88.351562 Z M 164.855469 88.351562 "/>
</g>
</svg>
