<?xml version="1.0" encoding="UTF-8" standalone="no"?>
<svg
   xmlns:dc="http://purl.org/dc/elements/1.1/"
   xmlns:cc="http://creativecommons.org/ns#"
   xmlns:rdf="http://www.w3.org/1999/02/22-rdf-syntax-ns#"
   xmlns:svg="http://www.w3.org/2000/svg"
   xmlns="http://www.w3.org/2000/svg"
   xmlns:xlink="http://www.w3.org/1999/xlink"
   xmlns:sodipodi="http://sodipodi.sourceforge.net/DTD/sodipodi-0.dtd"
   xmlns:inkscape="http://www.inkscape.org/namespaces/inkscape"
   sodipodi:docname="teamspeak.svg"
   inkscape:version="0.92.4 (5da689c313, 2019-01-14)"
   width="324px"
   height="234px"
   viewBox="0 0 324 234"
   version="1.1"
   id="SVGRoot">
  <defs
     id="defs10">
    <linearGradient
       inkscape:collect="always"
       id="linearGradient2749">
      <stop
         style="stop-color:#384a6f;stop-opacity:1"
         offset="0"
         id="stop2745" />
      <stop
         style="stop-color:#171d2d;stop-opacity:1"
         offset="1"
         id="stop2747" />
    </linearGradient>
    <inkscape:perspective
       sodipodi:type="inkscape:persp3d"
       inkscape:vp_x="-41.53551 : 123.38724 : 1"
       inkscape:vp_y="5.7996798e-14 : 947.1596 : 0"
       inkscape:vp_z="629.75495 : 123.38724 : 1"
       inkscape:persp3d-origin="294.10972 : 86.448016 : 1"
       id="perspective977" />
    <clipPath
       clipPathUnits="userSpaceOnUse"
       id="clipPath1079">
      <rect
         style="opacity:1;fill:#171d2d;fill-opacity:1;fill-rule:evenodd;stroke:none;stroke-width:0.61728394;stroke-linecap:round;stroke-linejoin:miter;stroke-miterlimit:4;stroke-dasharray:none;stroke-dashoffset:0;stroke-opacity:1;paint-order:markers fill stroke"
         id="rect1081"
         width="124.71019"
         height="26.250898"
         x="676.5528"
         y="-15.306453"
         ry="13.125449" />
    </clipPath>
    <radialGradient
       inkscape:collect="always"
       xlink:href="#linearGradient2749"
       id="radialGradient2751"
       cx="126.34425"
       cy="64.805122"
       fx="126.34425"
       fy="64.805122"
       r="100"
       gradientTransform="matrix(1,0,0,0.72222221,8.1555488,-43.680555)"
       gradientUnits="userSpaceOnUse" />
  </defs>
  <sodipodi:namedview
     inkscape:pagecheckerboard="true"
     inkscape:window-maximized="1"
     inkscape:window-y="0"
     inkscape:window-x="0"
     inkscape:window-height="759"
     inkscape:window-width="1152"
     showgrid="false"
     inkscape:document-rotation="0"
     inkscape:current-layer="g2861"
     inkscape:document-units="px"
     inkscape:cy="118.3362"
     inkscape:cx="83.511868"
     inkscape:zoom="1.28"
     inkscape:pageshadow="2"
     inkscape:pageopacity="0.0"
     borderopacity="1.0"
     bordercolor="#666666"
     pagecolor="#ffffff"
     id="base">
    <sodipodi:guide
       id="guide137"
       orientation="163.80001,0"
       position="243.9,198.9"
       inkscape:locked="false" />
    <sodipodi:guide
       id="guide139"
       orientation="0,-101.49202"
       position="243.9,35.099996"
       inkscape:locked="false" />
    <sodipodi:guide
       id="guide141"
       orientation="0,-62.30799"
       position="142.40799,35.099996"
       inkscape:locked="false" />
    <sodipodi:guide
       id="guide143"
       orientation="-163.80001,0"
       position="80.099996,35.099996"
       inkscape:locked="false" />
    <sodipodi:guide
       id="guide145"
       orientation="0,62.30799"
       position="80.099996,198.9"
       inkscape:locked="false" />
    <sodipodi:guide
       id="guide147"
       orientation="0,101.49202"
       position="142.40799,198.9"
       inkscape:locked="false" />
  </sodipodi:namedview>
  <metadata
     id="metadata13">
    <rdf:RDF>
      <cc:Work
         rdf:about="">
        <dc:format>image/svg+xml</dc:format>
        <dc:type
           rdf:resource="http://purl.org/dc/dcmitype/StillImage" />
        <dc:title></dc:title>
      </cc:Work>
    </rdf:RDF>
  </metadata>
  <g
     id="layer1"
     inkscape:groupmode="layer"
     inkscape:label="Capa 1">
    <g
       transform="matrix(1.62,0,0,1.62,-13.211988,115.8075)"
       id="g55">
      <rect
         style="opacity:1;fill:url(#radialGradient2751);fill-opacity:1;fill-rule:evenodd;stroke:none;stroke-width:4.14225149;stroke-linecap:round;stroke-linejoin:miter;stroke-miterlimit:4;stroke-dasharray:none;stroke-dashoffset:0;stroke-opacity:1;paint-order:markers fill stroke"
         id="rect1085"
         width="200"
         height="144.44444"
         x="8.1555481"
         y="-71.486107"
         ry="0" />
      <path
         inkscape:connector-curvature="0"
         style="fill:#2f4068;fill-opacity:1;stroke-width:0.61728394"
         d="m 8.1555531,-71.486108 v 14.75815 c 0.10347,0.924882 0.19201,1.971418 0.30623,2.475164 0.55012,2.426384 1.4719,0.260636 1.48293,-3.484278 l 0.008,-3.208189 3.5216499,1.853057 c 3.40891,1.793192 3.55194,1.814713 4.47531,0.698061 1.14955,-1.390176 3.69124,-3.044775 7.43514,-4.841821 1.52778,-0.733329 3.98394,-2.511798 5.45789,-3.952064 1.66187,-1.623901 3.24893,-2.618635 4.17752,-2.618635 0.97322,0 1.84325,-0.584929 2.48481,-1.671006 0.002,-0.0032 0.004,-0.0052 0.006,-0.0084 z m 40.0752299,0 c -0.25236,0.32836 -0.51254,0.742872 -0.72218,1.216482 -0.45083,1.018508 -1.16307,1.851852 -1.58299,1.851852 -0.41991,0 -0.93715,0.694444 -1.15018,1.543211 -0.37204,1.482338 -0.89673,1.806204 -2.5692,1.589024 -1.23067,-0.15982 -0.89379,0.956957 0.58473,1.938657 1.32491,0.879708 1.26765,0.95173 -2.49807,3.158758 l -3.85441,2.259356 -2.49927,-1.27556 c -3.32428,-1.695915 -3.64712,-1.165559 -0.54133,0.889757 l 2.48119,1.642072 v 4.312548 c 0,2.371716 -0.11861,4.312548 -0.26403,4.312548 -0.14542,0 -1.95098,-1.004884 -4.01235,-2.232831 -3.55897,-2.120066 -3.74831,-2.353504 -3.74831,-4.62963 0,-1.318338 -0.27777,-2.396798 -0.61728,-2.396798 -0.33951,0 -0.64275,0.347225 -0.67395,0.771605 -0.0312,0.42439 -0.10064,1.558223 -0.15432,2.519772 -0.0798,1.429766 -0.73347,2.123972 -3.59158,3.809799 -1.92217,1.133758 -3.65828,1.89727 -3.85803,1.697531 -0.19974,-0.19975 -0.3641,-1.305361 -0.3641,-2.457079 0,-1.238838 -0.25209,-1.937698 -0.61728,-1.711998 -0.3395,0.20982 -0.61729,1.346828 -0.61729,2.527006 0,1.929576 -0.11956,2.081179 -1.19237,1.50704 -0.65616,-0.351159 -1.97561,-0.920506 -2.9321,-1.265914 l -1.73972,-0.628134 1.54321,1.234568 c 0.84877,0.679019 2.02931,1.396812 2.62345,1.595051 1.74145,0.581071 1.30064,1.153518 -2.71267,3.527682 -2.9617099,1.752054 -3.7099099,2.064841 -4.7947999,1.657745 v 1.33343 c 0.35595,0.40712 0.5923,0.797907 0.60281,1.071807 0.0296,0.772838 0.16278,0.711932 0.55218,-0.249566 0.41845,-1.033246 7.0314199,-5.21195 8.2477399,-5.21195 0.1835,0 0.45447,0.625001 0.60161,1.388889 l 0.26765,1.388889 0.0844,-1.388889 c 0.0462,-0.763888 0.21326,-1.388889 0.37133,-1.388889 0.15806,0 2.1025,0.997741 4.32099,2.217159 l 4.03284,2.217158 4.03405,-2.217158 c 2.21848,-1.219418 4.14603,-2.217159 4.28361,-2.217159 0.13757,0 0.35873,1.041667 0.4919,2.314815 l 0.24233,2.314815 0.10369,-2.314815 c 0.057,-1.273148 0.27907,-2.314815 0.4931,-2.314815 0.21401,0 2.23859,0.998442 4.49942,2.21957 l 4.11121,2.220775 4.03887,-2.220775 c 2.22156,-1.221128 4.20496,-2.21957 4.40779,-2.21957 0.20282,0 0.48944,0.625001 0.63658,1.388889 l 0.26765,1.388889 0.0844,-1.388889 c 0.0462,-0.763888 0.21326,-1.388889 0.37133,-1.388889 0.15806,0 2.10251,0.997741 4.32099,2.217159 l 4.03284,2.217158 4.03405,-2.217158 c 2.21848,-1.219418 4.14448,-2.217159 4.27999,-2.217159 0.13552,0 0.36252,0.763893 0.50396,1.697531 l 0.2568,1.697531 0.0928,-1.697531 c 0.0509,-0.933638 0.26189,-1.697531 0.46899,-1.697531 1.24278,0 7.85363,4.150864 8.22965,5.167342 0.44228,1.195588 0.45917,1.193768 0.79089,-0.07475 0.2763,-1.056578 3.45757,-3.193759 7.42308,-4.986497 0.25462,-0.11511 0.46741,0.716547 0.47261,1.848235 0.005,1.131678 0.27853,2.474692 0.60764,2.983941 0.43199,0.66845 0.60201,0.09588 0.60885,-2.058015 0.005,-1.640948 0.24014,-2.890958 0.52324,-2.777778 2.92847,1.170618 7.50752,4.09659 7.50868,4.798418 10e-4,0.74387 0.1276,0.735525 0.772807,-0.05667 0.68429,-0.840208 7.40994,-4.844232 8.13682,-4.844232 0.15631,0 0.38765,1.319441 0.51481,2.932099 l 0.23148,2.932099 0.11092,-2.932099 c 0.0612,-1.612658 0.25902,-2.932099 0.44005,-2.932099 0.18105,0 1.69961,0.694442 3.37457,1.54321 4.2713,2.164416 4.61134,1.892165 0.7282,-0.58232 l -3.28414,-2.092979 2.66686,-1.519097 c 5.21307,-2.970784 4.75762,-2.927737 8.97111,-0.849971 2.43171,1.199108 3.79282,2.224021 3.60484,2.713879 -0.37073,0.966116 1.87745,1.074784 2.46793,0.119358 0.22684,-0.36703 1.28464,-1.227244 2.35098,-1.912134 1.87047,-1.201348 1.024,-1.282464 -1.70837,-0.163966 -1.09267,0.44729 -1.14878,0.265802 -0.77161,-2.486014 0.22372,-1.632186 0.40716,-3.692734 0.4075,-4.578993 5e-4,-1.296128 0.63389,-1.97302 3.23592,-3.462578 1.77918,-1.018516 3.44499,-1.944855 3.7025,-2.058015 0.25751,-0.11318 0.46779,1.881416 0.46779,4.433112 0,4.097334 -0.14427,4.686261 -1.23457,5.032311 -0.67901,0.21552 -1.23457,0.626739 -1.23457,0.913869 0,0.28715 0.79753,0.220833 1.77228,-0.147087 1.52343,-0.575038 2.18123,-0.430588 4.67906,1.033227 1.5982,0.93661 3.04141,1.56653 3.20819,1.39974 0.16679,-0.16679 -1.10395,-1.093878 -2.82479,-2.060427 l -3.12982,-1.756602 v -4.475309 c -3.5e-4,-2.461415 0.15826,-4.475309 0.35205,-4.475309 0.19374,0 1.99613,0.902778 4.00511,2.006173 l 3.65186,2.006173 0.0506,3.08642 c 0.0844,5.13346 1.10498,6.216339 1.16344,1.234568 l 0.0506,-4.320988 3.7037,-2.035108 c 4.1306,-2.268915 4.14161,-2.262549 4.48495,2.652392 0.20457,2.928078 0.22118,2.888481 0.32673,-0.771605 0.0612,-2.121918 0.27039,-3.858025 0.46418,-3.858025 0.19374,0 1.99611,0.902778 4.00511,2.006173 l 3.65185,2.006173 0.0506,3.08642 c 0.0823,5.012289 1.10409,6.271774 1.155,1.423852 l 0.0434,-4.130497 3.85802,-2.177373 3.85803,-2.177373 0.18446,3.702498 c 0.22894,4.600852 1.35875,4.283036 1.35875,-0.382185 0,-1.847238 0.16667,-3.357688 0.37013,-3.357688 0.20345,0 2.00901,1.010774 4.01234,2.2473 l 3.64222,2.248505 v 4.232976 c 0,2.328276 -0.11809,4.234182 -0.26283,4.234182 -0.14476,0 -2.12641,-1.081398 -4.40418,-2.402826 l -4.14134,-2.402825 -4.19199,2.711467 c -2.30513,1.491189 -4.48408,2.711468 -4.84303,2.711468 -0.35896,0 -2.47791,-1.117429 -4.70799,-2.482397 l -4.05454,-2.481192 -3.981,2.225597 c -2.18947,1.224429 -3.981,2.365696 -3.981,2.535446 0,0.16976 1.76063,-0.676323 3.91227,-1.879581 l 3.91228,-2.187018 4.18114,2.442612 c 2.29958,1.343788 4.43503,2.443817 4.74537,2.443817 0.31034,0 2.52337,-0.987247 4.91777,-2.193045 l 4.35354,-2.19184 3.50116,1.959153 c 4.4943,2.515537 4.35122,2.305306 2.56679,3.759162 -1.24131,1.011348 -1.29802,1.166732 -0.299,0.813802 3.14818,-1.112158 3.75805,-1.017339 7.97888,1.243008 l 4.38971,2.352189 4.13291,-2.511333 c 4.20164,-2.552574 5.81376,-2.768618 7.88122,-1.056134 0.50926,0.42183 2.12459,1.370306 3.59038,2.107446 l 1.40105,0.704091 v -0.986207 l -2.42936,-1.363571 c -2.08803,-1.172788 -3.7927,-2.315392 -3.7881,-2.539063 0.006,-0.285962 4.43095,-2.944566 6.21745,-3.817033 v -1.649305 c -0.63883,0.532501 -1.8293,1.386271 -3.60243,2.429349 l -3.85802,2.269002 v -4.817709 -4.818913 l 2.31481,-1.048901 c 1.27315,-0.576758 3.00066,-1.568582 3.83994,-2.205103 0.46592,-0.353358 0.92078,-0.596901 1.3057,-0.74508 v -3.098476 c -0.36457,-0.09924 -1.74972,-0.825121 -3.43605,-1.833768 -2.99912,-1.793837 -3.2984,-2.181631 -3.64584,-4.716435 -0.0431,-0.314482 -0.0261,-0.429093 -0.0615,-0.718557 h -49.26215 c 0.10584,0.03705 0.17963,0.105634 0.17963,0.224247 0,0.13343 -0.43158,0.407861 -0.95847,0.61005 -0.54934,0.210798 -0.79738,0.107585 -0.58112,-0.242332 0.18125,-0.293275 0.56603,-0.510888 0.90543,-0.591965 h -5.20231 c -0.86656,0.248259 -1.69586,0.601483 -1.7566,0.905429 -0.0675,0.33797 -2.16594,2.477214 -4.66339,4.753811 -3.62492,3.304354 -4.90091,4.114007 -6.32595,4.014757 -2.22094,-0.15468 -2.31567,-0.894373 -0.18206,-1.429881 1.68297,-0.42239 5.73362,-3.941213 4.5368,-3.941213 -1.24225,0 -0.22309,-1.499238 1.31052,-1.927808 1.49276,-0.417147 1.49195,-0.418502 -0.16396,-0.479842 -2.15761,-0.07996 -2.6359,-1.003265 -1.08989,-1.895253 h -2.46552 c -0.0135,0.292777 -0.0301,0.571464 -0.0301,0.90784 0,0.50926 -0.41666,0.925926 -0.92592,0.925926 -0.90954,0 -1.02477,-0.569793 -0.60161,-1.833766 H 74.069903 c -4e-5,0.114382 0.0144,0.191665 0.0133,0.307436 -0.0511,4.966151 0.2492,5.568327 3.64704,7.325424 1.08679,0.562 1.97603,1.13225 1.97603,1.267121 0,0.134869 -1.5698,1.227626 -3.4891,2.428143 -3.46572,2.167829 -3.5006,2.175491 -5.09259,1.054929 -0.88163,-0.620545 -2.22849,-1.322919 -2.99238,-1.560088 -2.39715,-0.74428 -1.51283,0.650073 1.38889,2.189429 l 2.77778,1.473283 v 4.739342 4.740548 l -3.51322,-2.115886 c -1.93219,-1.163497 -3.73774,-2.114679 -4.01234,-2.114679 -0.2746,0 -0.49914,-1.233873 -0.49914,-2.741609 0,-1.507738 -0.27777,-2.912769 -0.61728,-3.122589 -0.37645,-0.23266 -0.61728,0.697504 -0.61728,2.384741 0,2.697026 -0.0878,2.821874 -3.52527,4.97203 -4.14772,2.594406 -4.46431,2.348414 -4.03646,-3.151524 0.21613,-2.778318 0.57304,-3.923174 1.3069,-4.200424 1.5574,-0.58837 5.01192,-3.035925 5.01664,-3.554206 0.008,-0.889747 -1.42544,-0.449705 -4.30773,1.323785 l -2.90436,1.787954 -3.02735,-1.857881 c -1.66524,-1.021529 -3.25518,-2.06627 -3.5325,-2.322048 -0.27731,-0.25578 1.0752,-1.356761 3.00564,-2.446229 l 3.5096,-1.980854 3.63016,1.93504 3.63016,1.935041 v -2.196663 c 0,-1.458778 -0.28651,-2.196663 -0.85359,-2.196663 -0.826,0 -1.62186,-1.608406 -1.92057,-3.878521 -0.0281,-0.213471 -0.1087,-0.247929 -0.15556,-0.424382 h -0.97415 c -0.38193,0.700604 -1.46132,0.687553 -2.13035,0 z m 17.65528,0 c 0.46888,1.049059 0.85162,3.099679 0.85359,4.804446 l 0.004,3.280527 2.41609,-1.357542 c 2.20516,-1.239389 2.43326,-1.609815 2.62343,-4.267941 0.0693,-0.969035 -0.0301,-1.631297 -0.0579,-2.45949 z m 86.455927,1.894048 c 0.18488,0 0.28422,0.185863 0.5136,0.557002 0.21274,0.34422 -0.24928,0.612909 -1.04408,0.607639 -1.14669,-0.008 -1.24405,-0.126229 -0.49913,-0.607639 0.57431,-0.371139 0.84473,-0.557002 1.02961,-0.557002 z m -77.285877,0.225453 c 0.0374,0.01387 0.079,0.07113 0.12176,0.177228 0.17124,0.42439 0.17124,1.11883 0,1.543211 -0.17124,0.42439 -0.31105,0.07719 -0.31105,-0.771606 0,-0.424385 0.034,-0.723379 0.0904,-0.863233 0.0282,-0.06993 0.0615,-0.09947 0.0989,-0.0856 z m 70.528307,0.487076 c 0.31782,-0.012 0.63858,-0.009 0.94884,0.0084 1.24099,0.0698 2.30998,0.369319 2.30998,0.846354 0,0.462971 -0.38667,0.841532 -0.85961,0.841532 -0.47293,0 -1.03136,0.445761 -1.2406,0.991031 -0.27083,0.705768 -0.82365,0.879937 -1.91816,0.605227 -1.50761,-0.378388 -2.13645,0.429652 -0.9199,1.18152 0.87738,0.54225 0.76465,1.54321 -0.17361,1.54321 -0.43483,0 -1.10462,-0.833634 -1.48896,-1.851852 -0.58721,-1.555687 -0.53579,-1.94645 0.32673,-2.449845 0.56453,-0.32949 0.74943,-0.612616 0.40992,-0.628136 -0.33951,-0.0155 -0.24582,-0.262964 0.20857,-0.550974 0.51844,-0.328613 1.44333,-0.500495 2.3968,-0.536507 z m -99.210317,7.819734 3.65669,2.026669 3.65548,2.025463 0.22907,3.708527 c 0.12601,2.039717 0.12586,4.036217 -10e-4,4.436728 -0.15183,0.478158 -1.48331,0.0543 -3.87611,-1.234568 l -3.64342,-1.96277 -0.0109,-4.499421 z m -1.7771,0.07354 c 0.21157,-0.0133 0.41889,1.295342 0.46055,2.907986 h 0.001 c 0.13327,5.159362 -0.24857,5.882914 -4.2607,8.08859 l -3.68321,2.025463 0.007,-4.517506 0.008,-4.5163 3.54094,-1.98206 c 1.94755,-1.090126 3.71396,-1.992913 3.92554,-2.006173 z m 18.98269,9.86087 c 0.12668,-0.005 1.86279,0.888799 3.85802,1.985677 v -0.0012 c 1.99523,1.096977 3.62775,2.176543 3.62775,2.398003 0,0.22146 -1.66218,1.392097 -3.69285,2.601755 l -3.69165,2.199074 -4.0666,-2.376302 -4.0666,-2.376302 3.90143,-2.209925 c 2.14525,-1.215848 4.00382,-2.215545 4.1305,-2.220775 z m -36.40046,0.0048 c 0.13713,-0.008 2.03305,0.984418 4.21368,2.203896 l 3.96412,2.217159 -4.0461,2.364245 -4.04731,2.365452 -3.71696,-2.206308 c -2.04398,-1.213208 -3.71576,-2.375136 -3.71576,-2.582465 0,-0.33484 6.72318,-4.325771 7.34833,-4.361979 z m 97.446467,5.630304 c -0.0463,-0.0025 -0.11941,0.01686 -0.22545,0.05907 -0.42415,0.168872 -1.36919,0.712785 -3.18046,1.768664 -1.78241,1.039058 -3.24074,2.010634 -3.24074,2.158082 0,0.45093 6.05901,-2.77385 6.47424,-3.445698 0.2058,-0.332985 0.31129,-0.532634 0.17241,-0.540124 z"
         id="path1933" />
      <path
         id="path2743"
         d="m 8.1555481,72.958251 v -14.75815 c 0.10347,-0.92488 0.19201,-1.97142 0.30623,-2.47517 0.55012,-2.42638 1.4719,-0.26063 1.48293,3.48428 l 0.008,3.20819 3.5216499,-1.85306 c 3.40891,-1.79319 3.55194,-1.81471 4.47531,-0.69806 1.14955,1.39018 3.69124,3.04478 7.43514,4.84182 1.52778,0.73333 3.98394,2.5118 5.45789,3.95207 1.66188,1.6239 3.24894,2.61863 4.17753,2.61863 0.97322,0 1.84325,0.58493 2.48481,1.67101 0.002,0.003 0.004,0.005 0.006,0.008 z m 40.0752299,0 c -0.25235,-0.32836 -0.51253,-0.74287 -0.72217,-1.21648 -0.45083,-1.01851 -1.16308,-1.85186 -1.58299,-1.85186 -0.41991,0 -0.93715,-0.69444 -1.15018,-1.54321 -0.37204,-1.48233 -0.89673,-1.8062 -2.5692,-1.58902 -1.23067,0.15982 -0.89379,-0.95696 0.58473,-1.93866 1.32491,-0.87971 1.26765,-0.95173 -2.49807,-3.15876 l -3.85441,-2.25935 -2.49928,1.27556 c -3.32428,1.69591 -3.64712,1.16556 -0.54132,-0.88976 l 2.48119,-1.64207 v -4.31255 c 0,-2.37172 -0.11862,-4.31255 -0.26404,-4.31255 -0.14542,0 -1.95097,1.00489 -4.01235,2.23283 -3.55897,2.12007 -3.74831,2.35351 -3.74831,4.62963 0,1.31834 -0.27777,2.3968 -0.61728,2.3968 -0.33951,0 -0.64275,-0.34722 -0.67395,-0.7716 -0.0312,-0.42439 -0.10064,-1.55823 -0.15432,-2.51978 -0.0798,-1.42976 -0.73347,-2.12397 -3.59158,-3.80979 -1.92217,-1.13376 -3.65828,-1.89727 -3.85803,-1.69754 -0.19974,0.19975 -0.3641,1.30537 -0.3641,2.45708 0,1.23884 -0.25209,1.9377 -0.61728,1.712 -0.3395,-0.20982 -0.61729,-1.34683 -0.61729,-2.527 0,-1.92958 -0.11956,-2.08118 -1.19237,-1.50704 -0.65616,0.35115 -1.97561,0.9205 -2.9321,1.26591 l -1.73972,0.62813 1.54321,-1.23456 c 0.84877,-0.67902 2.02931,-1.39682 2.62345,-1.59506 1.74145,-0.58107 1.30064,-1.15351 -2.71267,-3.52768 -2.9617099,-1.75205 -3.7099099,-2.06484 -4.7947999,-1.65774 v -1.33343 c 0.35595,-0.40712 0.5923,-0.79791 0.60281,-1.07181 0.0296,-0.77284 0.16278,-0.71193 0.55218,0.24957 0.41845,1.03324 7.0314199,5.21195 8.2477399,5.21195 0.1835,0 0.45447,-0.625 0.60161,-1.38889 l 0.26765,-1.38889 0.0844,1.38889 c 0.0462,0.76389 0.21326,1.38889 0.37133,1.38889 0.15806,0 2.1025,-0.99774 4.32099,-2.21716 l 4.03284,-2.21716 4.03405,2.21716 c 2.21849,1.21942 4.14604,2.21716 4.28362,2.21716 0.13757,0 0.35873,-1.04167 0.4919,-2.31482 l 0.24233,-2.31481 0.10368,2.31481 c 0.057,1.27315 0.27908,2.31482 0.49311,2.31482 0.21401,0 2.23859,-0.99845 4.49942,-2.21957 l 4.11121,-2.22078 4.03887,2.22078 c 2.22156,1.22112 4.20496,2.21957 4.40779,2.21957 0.20282,0 0.48943,-0.625 0.63657,-1.38889 l 0.26765,-1.38889 0.0844,1.38889 c 0.0462,0.76389 0.21327,1.38889 0.37134,1.38889 0.15806,0 2.10251,-0.99774 4.32099,-2.21716 l 4.03284,-2.21716 4.03404,2.21716 c 2.21848,1.21942 4.14448,2.21716 4.28,2.21716 0.13552,0 0.36251,-0.7639 0.50396,-1.69753 l 0.25679,-1.69754 0.0928,1.69754 c 0.0509,0.93363 0.2619,1.69753 0.469,1.69753 1.24278,0 7.85363,-4.15087 8.22965,-5.16735 0.44227,-1.19558 0.45917,-1.19376 0.79089,0.0748 0.2763,1.05658 3.45756,3.19376 7.42308,4.9865 0.25462,0.11511 0.46741,-0.71655 0.47261,-1.84823 0.005,-1.13168 0.27853,-2.4747 0.60764,-2.98394 0.43199,-0.66845 0.60201,-0.0959 0.60884,2.05801 0.005,1.64095 0.24015,2.89096 0.52325,2.77778 2.92847,-1.17062 7.50752,-4.09659 7.50868,-4.79842 10e-4,-0.74387 0.1276,-0.73552 0.772812,0.0567 0.68429,0.84021 7.40994,4.84423 8.13682,4.84423 0.15631,0 0.38765,-1.31944 0.51481,-2.9321 l 0.23148,-2.9321 0.11092,2.9321 c 0.0612,1.61266 0.25902,2.9321 0.44005,2.9321 0.18105,0 1.69961,-0.69444 3.37457,-1.54321 4.2713,-2.16441 4.61134,-1.89216 0.7282,0.58232 l -3.28414,2.09298 2.66686,1.5191 c 5.21307,2.97078 4.75762,2.92774 8.97111,0.84997 2.43171,-1.19911 3.79282,-2.22402 3.60484,-2.71388 -0.37073,-0.96612 1.87745,-1.07478 2.46793,-0.11936 0.22684,0.36703 1.28464,1.22725 2.35098,1.91214 1.87047,1.20134 1.024,1.28246 -1.70837,0.16396 -1.09267,-0.44729 -1.14878,-0.2658 -0.77161,2.48602 0.22372,1.63218 0.40716,3.69273 0.4075,4.57899 5e-4,1.29613 0.63389,1.97302 3.23592,3.46258 1.77918,1.01851 3.44499,1.94485 3.7025,2.05801 0.25751,0.11318 0.46779,-1.88141 0.46779,-4.43311 0,-4.09733 -0.14427,-4.68626 -1.23457,-5.03231 -0.67901,-0.21552 -1.23457,-0.62674 -1.23457,-0.91387 0,-0.28715 0.79753,-0.22083 1.77228,0.14709 1.52343,0.57504 2.18123,0.43059 4.67906,-1.03323 1.5982,-0.93661 3.04141,-1.56653 3.20819,-1.39974 0.16679,0.16679 -1.10395,1.09388 -2.82479,2.06043 l -3.12982,1.7566 v 4.47531 c -3.5e-4,2.46141 0.15826,4.47531 0.35205,4.47531 0.19374,0 1.99613,-0.90278 4.00511,-2.00617 l 3.65186,-2.00618 0.0506,-3.08642 c 0.0844,-5.13346 1.10498,-6.21634 1.16344,-1.23457 l 0.0506,4.32099 3.7037,2.03511 c 4.1306,2.26892 4.14161,2.26255 4.48495,-2.65239 0.20457,-2.92808 0.22118,-2.88848 0.32673,0.7716 0.0612,2.12192 0.27039,3.85803 0.46418,3.85803 0.19374,0 1.99611,-0.90278 4.00511,-2.00617 l 3.65185,-2.00618 0.0506,-3.08642 c 0.0823,-5.01229 1.10409,-6.27177 1.155,-1.42385 l 0.0434,4.1305 3.85802,2.17737 3.85803,2.17737 0.18446,-3.70249 c 0.22894,-4.60086 1.35875,-4.28304 1.35875,0.38218 0,1.84724 0.16667,3.35769 0.37013,3.35769 0.20345,0 2.00901,-1.01078 4.01234,-2.2473 l 3.64222,-2.24851 v -4.23297 c 0,-2.32828 -0.11809,-4.23419 -0.26283,-4.23419 -0.14476,0 -2.12641,1.0814 -4.40418,2.40283 l -4.14134,2.40283 -4.19199,-2.71147 c -2.30513,-1.49119 -4.48408,-2.71147 -4.84303,-2.71147 -0.35896,0 -2.47791,1.11743 -4.70799,2.4824 l -4.05454,2.48119 -3.981,-2.2256 c -2.18947,-1.22443 -3.981,-2.36569 -3.981,-2.53544 0,-0.16976 1.76063,0.67632 3.91227,1.87958 l 3.91228,2.18702 4.18114,-2.44262 c 2.29958,-1.34378 4.43503,-2.44381 4.74537,-2.44381 0.31034,0 2.52337,0.98724 4.91777,2.19304 l 4.35354,2.19184 3.50116,-1.95915 c 4.4943,-2.51554 4.35122,-2.30531 2.56679,-3.75916 -1.24131,-1.01135 -1.29802,-1.16674 -0.299,-0.81381 3.14818,1.11216 3.75805,1.01734 7.97888,-1.243 l 4.38971,-2.35219 4.13291,2.51133 c 4.20164,2.55257 5.81376,2.76862 7.88122,1.05613 0.50926,-0.42183 2.12459,-1.3703 3.59038,-2.10744 l 1.40105,-0.70409 v 0.9862 l -2.42936,1.36358 c -2.08803,1.17278 -3.7927,2.31539 -3.7881,2.53906 0.006,0.28596 4.43095,2.94456 6.21745,3.81703 v 1.64931 c -0.63883,-0.5325 -1.8293,-1.38627 -3.60243,-2.42935 l -3.85802,-2.269 v 4.8177 4.81892 l 2.31481,1.0489 c 1.27315,0.57676 3.00066,1.56858 3.83994,2.2051 0.46592,0.35336 0.92078,0.5969 1.3057,0.74508 v 3.09848 c -0.36457,0.0992 -1.74972,0.82512 -3.43605,1.83377 -2.99912,1.79383 -3.2984,2.18163 -3.64584,4.71643 -0.0431,0.31448 -0.0261,0.4291 -0.0615,0.71856 H 151.75 c 0.10584,-0.037 0.17963,-0.10563 0.17963,-0.22425 0,-0.13343 -0.43158,-0.40786 -0.95847,-0.61005 -0.54934,-0.2108 -0.79738,-0.10758 -0.58112,0.24233 0.18125,0.29328 0.56603,0.51089 0.90543,0.59197 h -5.20231 c -0.86656,-0.24826 -1.69586,-0.60148 -1.7566,-0.90543 -0.0675,-0.33797 -2.16594,-2.47721 -4.66339,-4.75381 -3.62492,-3.30436 -4.90091,-4.11401 -6.32595,-4.01476 -2.22094,0.15468 -2.31567,0.89437 -0.18206,1.42988 1.68297,0.42239 5.73362,3.94122 4.5368,3.94122 -1.24225,0 -0.22309,1.49923 1.31052,1.9278 1.49276,0.41715 1.49195,0.41851 -0.16396,0.47985 -2.15761,0.08 -2.6359,1.00326 -1.08989,1.89525 h -2.46552 c -0.0135,-0.29278 -0.0301,-0.57146 -0.0301,-0.90784 0,-0.50926 -0.41666,-0.92593 -0.92592,-0.92593 -0.90954,0 -1.02477,0.5698 -0.60161,1.83377 H 74.069898 c -3e-5,-0.11438 0.0144,-0.19167 0.0133,-0.30744 -0.0511,-4.96615 0.24921,-5.56832 3.64705,-7.32542 1.08679,-0.562 1.97603,-1.13225 1.97603,-1.26712 0,-0.13487 -1.5698,-1.22763 -3.4891,-2.42815 -3.46572,-2.16782 -3.5006,-2.17549 -5.09259,-1.05492 -0.88163,0.62054 -2.2285,1.32291 -2.99239,1.56008 -2.39715,0.74428 -1.51283,-0.65007 1.38889,-2.18943 l 2.77778,-1.47328 v -4.73934 -4.74055 l -3.51321,2.11589 c -1.93219,1.16349 -3.73775,2.11468 -4.01235,2.11468 -0.2746,0 -0.49913,1.23387 -0.49913,2.74161 0,1.50773 -0.27777,2.91276 -0.61728,3.12258 -0.37645,0.23266 -0.61729,-0.6975 -0.61729,-2.38474 0,-2.69702 -0.0878,-2.82187 -3.52527,-4.97203 -4.14772,-2.5944 -4.46431,-2.34841 -4.03646,3.15153 0.21613,2.77832 0.57305,3.92317 1.30691,4.20042 1.5574,0.58837 5.01192,3.03593 5.01664,3.55421 0.008,0.88974 -1.42544,0.4497 -4.30773,-1.32379 l -2.90437,-1.78795 -3.02734,1.85788 c -1.66524,1.02153 -3.25518,2.06627 -3.5325,2.32205 -0.27731,0.25578 1.0752,1.35676 3.00564,2.44623 l 3.50959,1.98085 3.63016,-1.93504 3.63016,-1.93504 v 2.19666 c 0,1.45878 -0.2865,2.19667 -0.85358,2.19667 -0.826,0 -1.62187,1.6084 -1.92058,3.87852 -0.0281,0.21347 -0.10869,0.24793 -0.15555,0.42438 h -0.97415 c -0.38193,-0.7006 -1.46133,-0.68755 -2.13036,0 z m 17.65529,0 c 0.46888,-1.04906 0.85161,-3.09968 0.85359,-4.80445 l 0.004,-3.28052 2.41609,1.35754 c 2.20516,1.23939 2.43326,1.60981 2.62343,4.26794 0.0693,0.96903 -0.0301,1.6313 -0.0579,2.45949 z M 152.342,71.064201 c 0.18488,0 0.28422,-0.18586 0.5136,-0.557 0.21274,-0.34422 -0.24928,-0.61291 -1.04408,-0.60764 -1.14669,0.008 -1.24405,0.12623 -0.49913,0.60764 0.57431,0.37114 0.84473,0.557 1.02961,0.557 z m -77.285882,-0.22545 c 0.0374,-0.0139 0.079,-0.0711 0.12176,-0.17723 0.17124,-0.42439 0.17124,-1.11883 0,-1.54321 -0.17124,-0.42439 -0.31105,-0.0772 -0.31105,0.7716 0,0.42439 0.034,0.72338 0.0904,0.86324 0.0282,0.0699 0.0615,0.0995 0.0989,0.0856 z m 70.528312,-0.48708 c 0.31782,0.012 0.63858,0.009 0.94884,-0.008 1.24099,-0.0698 2.30998,-0.36932 2.30998,-0.84635 0,-0.46297 -0.38667,-0.84153 -0.85961,-0.84153 -0.47293,0 -1.03136,-0.44577 -1.2406,-0.99104 -0.27083,-0.70576 -0.82365,-0.87993 -1.91816,-0.60522 -1.50761,0.37839 -2.13645,-0.42965 -0.9199,-1.18152 0.87738,-0.54225 0.76465,-1.54321 -0.17361,-1.54321 -0.43483,0 -1.10462,0.83363 -1.48896,1.85185 -0.58721,1.55569 -0.53579,1.94645 0.32673,2.44985 0.56453,0.32949 0.74943,0.61261 0.40992,0.62813 -0.33951,0.0155 -0.24582,0.26296 0.20857,0.55097 0.51844,0.32862 1.44333,0.5005 2.3968,0.53651 z m -99.210322,-7.81973 3.65668,-2.02667 3.65548,-2.02546 0.22907,-3.70853 c 0.12601,-2.03972 0.12587,-4.03622 -10e-4,-4.43673 -0.15183,-0.47816 -1.48331,-0.0543 -3.87611,1.23457 l -3.64342,1.96277 -0.0108,4.49942 z m -1.7771,-0.0735 c 0.21157,0.0133 0.41889,-1.29534 0.46055,-2.90799 h 10e-4 c 0.13327,-5.15936 -0.24858,-5.88291 -4.26071,-8.08859 l -3.6832,-2.02546 0.007,4.5175 0.008,4.5163 3.54094,1.98206 c 1.94755,1.09013 3.71396,1.99292 3.92554,2.00618 z m 18.98268,-9.86087 c 0.12669,0.005 1.8628,-0.8888 3.85803,-1.98568 v 10e-4 c 1.99523,-1.09698 3.62775,-2.17654 3.62775,-2.398 0,-0.22146 -1.66218,-1.3921 -3.69285,-2.60176 l -3.69165,-2.19907 -4.0666,2.3763 -4.0666,2.3763 3.90143,2.20993 c 2.14525,1.21584 4.00382,2.21554 4.13049,2.22077 z m -36.40046,-0.005 c 0.13713,0.008 2.03305,-0.98442 4.21368,-2.2039 l 3.96413,-2.21716 -4.04611,-2.36424 -4.04731,-2.36546 -3.71696,2.20631 c -2.04398,1.21321 -3.71576,2.37514 -3.71576,2.58247 0,0.33484 6.72318,4.32577 7.34833,4.36198 z m 97.446482,-5.63031 c -0.0463,0.002 -0.11941,-0.0169 -0.22545,-0.0591 -0.42415,-0.16887 -1.36919,-0.71278 -3.18046,-1.76866 -1.78241,-1.03906 -3.24074,-2.01064 -3.24074,-2.15808 0,-0.45093 6.05901,2.77385 6.47424,3.44569 0.2058,0.33299 0.31129,0.53264 0.17241,0.54013 z"
         style="fill:#2f4068;fill-opacity:1;stroke-width:0.61728394"
         inkscape:connector-curvature="0" />
    </g>
    <g
       style="fill:#1372cc;fill-opacity:1"
       transform="matrix(0.07450051,0,0,0.07450051,-56.965706,155.77241)"
       id="g2770">
      <g
         id="g2861"
         transform="translate(0,30.150839)">
        <g
           style="fill:#d7e0f5;fill-opacity:1"
           transform="matrix(1.2933451,0,0,1.2933451,-319.55698,-1772.4157)"
           id="g930">
          <path
             style="fill:#d7e0f5;fill-opacity:1;stroke-width:0.19753087"
             d="m 1760.0133,1341.9292 c -0.8031,10e-4 -1.6124,0.013 -2.4296,0.035 -7.8062,0.2097 -14.3729,1.4111 -20.7753,3.8026 -9.9229,3.7067 -18.4667,9.9632 -24.3895,17.8603 -5.6605,7.5471 -9.2624,16.6441 -10.4797,26.4696 -0.1586,1.2783 -0.2537,4.1584 -0.2438,7.5063 0.011,4.5459 0.084,5.8828 0.4426,8.1971 1.8383,11.8618 6.5531,21.5976 14.4012,29.7381 8.3087,8.6174 17.1704,14.5567 43.9093,29.4259 10.6142,5.9025 15.3512,9.0943 19.6265,13.2258 2.5,2.4162 4.1019,4.5441 5.2821,7.018 1.5525,3.2543 1.8457,4.6858 1.8457,8.9879 0,4.4047 -0.3043,5.8245 -1.9698,9.1845 -3.629,7.3195 -11.0839,11.2967 -20.4395,10.9038 -7.2679,-0.3052 -12.7784,-2.6531 -17.6975,-7.54 -4.3611,-4.3331 -8.1444,-10.6458 -11.5136,-19.2118 -0.6506,-1.6549 -1.4197,-3.3191 -1.7086,-3.6976 -0.2926,-0.3836 -1.0556,-0.9542 -1.7229,-1.2877 -2.232,-1.1154 -1.929,-1.1854 -16.2598,3.7544 -6.9457,2.3939 -13.0278,4.5968 -13.5167,4.8949 -1.779,1.0845 -2.8259,3.5333 -2.3858,5.5832 0.437,2.0392 3.8833,10.0515 6.3599,14.7859 11.9759,22.8974 29.066,34.6152 53.1129,36.4197 v 0 c 2.7241,0.2044 11.6889,0.1069 14.442,-0.1568 23.5019,-2.2515 41.1556,-14.6642 49.0259,-34.4727 4.5439,-11.4361 5.5575,-26.4069 2.5871,-38.2089 -2.5013,-9.9384 -6.813,-17.7198 -13.5222,-24.4068 -7.4735,-7.4486 -15.8507,-12.96 -40.4383,-26.6023 -8.6506,-4.7998 -12.9617,-7.3203 -16.9352,-9.9019 -6.8136,-4.4263 -11.1401,-8.4041 -13.208,-12.1419 -1.5729,-2.8426 -2.3259,-7.0532 -1.9074,-10.6553 0.6302,-5.4197 3.1901,-9.5926 7.6549,-12.4808 5.8179,-3.7637 14.9321,-4.2731 22.4488,-1.255 6.6345,2.6638 12.2074,9.0639 17.1308,19.6747 1.5649,3.3726 2.0105,3.9908 3.3976,4.7152 0.8549,0.4467 1.2759,0.5329 2.5086,0.5329 h 1.4809 l 12.1487,-5.2988 c 6.6815,-2.914 12.4704,-5.4617 12.8642,-5.6616 1.8081,-0.917 3.1093,-3.3494 2.871,-5.3663 -0.208,-1.7527 -3.4568,-8.5451 -6.5586,-13.7104 -12.3951,-20.6401 -30.5475,-30.6861 -55.4389,-30.6556 z m 172.3827,1.1875 c -10.863,0.1349 -21.4839,4.4075 -32.6234,13.104 -2.6649,2.0808 -3.1778,2.3336 -4.9198,2.4306 -1.8259,0.1012 -3.1068,-0.4207 -4.3068,-1.7554 -1.0654,-1.185 -1.5062,-2.6242 -1.5062,-4.9359 0,-0.9164 -0.094,-1.997 -0.2055,-2.4016 -0.3056,-1.0991 -1.3377,-2.3083 -2.5587,-2.9972 l -1.0864,-0.6124 h -14.6179 -14.6173 l -1.074,0.5919 c -1.1,0.6067 -2.0809,1.7487 -2.5155,2.9273 -0.3333,0.9046 -0.3666,257.9428 -0.033,258.9204 0.5728,1.6813 2.1451,3.152 3.787,3.5434 h 7e-4 c 0.9888,0.2355 28.1561,0.2215 29.0055,-0.014 1.1642,-0.3232 2.5685,-1.3912 3.2191,-2.4474 l 0.5976,-0.9717 0.099,-36.4596 0.099,-36.4607 0.5531,-1.1261 c 0.8642,-1.7596 2.4512,-2.8643 4.4056,-3.0659 1.7827,-0.1839 2.6376,0.1961 5.7426,2.5524 11.9932,9.1021 21.9734,13.0082 33.2098,12.9942 6.9858,-0.01 12.3247,-1.3346 17.6895,-4.3945 9.2451,-5.2737 15.1698,-14.4846 18.7062,-29.0834 1.7105,-7.0592 2.5537,-14.0053 3.1901,-26.272 0.3667,-7.0615 0.3667,-77.0856 0,-84.1471 -0.75,-14.449 -1.9049,-22.5503 -4.3919,-30.816 -2.6124,-8.6812 -5.75,-14.3913 -10.6179,-19.3239 -6.0982,-6.1791 -13.6976,-9.3944 -23.0544,-9.7512 -0.7265,-0.028 -1.4518,-0.037 -2.1759,-0.028 z m -17.1994,32.628 c 6.5457,0.1218 12.3426,2.9914 15.7006,7.8981 2.2815,3.3337 3.9272,8.7625 4.5914,15.1452 0.3315,3.19 0.4889,82.1837 0.1759,88.4935 -0.424,8.5506 -1.2666,12.4529 -3.7426,17.3358 -0.9549,1.8837 -1.4395,2.5429 -3.1321,4.2606 -2.3333,2.3683 -5.1098,3.9133 -8.7419,4.866 -2.147,0.5633 -6.7013,0.7124 -9.5087,0.311 -5.5895,-0.7992 -11.5185,-3.1886 -17.4543,-7.0336 -2.1543,-1.3957 -3.0543,-2.3166 -3.5722,-3.6591 -0.3636,-0.9423 -0.3735,-2.5424 -0.3735,-58.4503 v -57.4822 l 0.4136,-0.8885 c 0.6673,-1.4355 1.3593,-2.0879 3.9012,-3.6724 6.5457,-4.0804 12.7723,-6.3889 18.8957,-7.0059 0.9611,-0.097 1.9117,-0.1356 2.8469,-0.1182 z"
             id="path919"
             inkscape:connector-curvature="0" />
          <path
             style="fill:#d7e0f5;fill-opacity:1;stroke-width:0.19753087"
             d="m 1088.1337,1291.553 c -2.1729,-0.01 -5.0457,0 -8.8932,0.018 -13.7217,0.055 -14.0198,0.064 -14.8926,0.4678 -1.0741,0.497 -2.0315,1.4197 -2.6229,2.5245 l -0.4364,0.8163 -0.1,23.1252 -0.099,23.1253 -0.5957,1.1658 c -0.6611,1.2926 -1.9944,2.454 -3.2475,2.8296 -0.5099,0.1521 -3.7994,0.2231 -10.4142,0.2231 -10.7871,0 -10.9772,0.02 -12.4747,1.302 -0.4617,0.3948 -1.079,1.1743 -1.3735,1.7326 l -0.5351,1.0151 -0.058,11.8345 c -0.039,8.0937 0.012,12.1672 0.1617,12.887 0.2907,1.4015 1.2525,2.7835 2.4475,3.5192 l 0.9716,0.5992 10.3864,0.099 10.3865,0.099 1.0321,0.4666 c 1.145,0.5176 2.4759,1.835 2.9827,2.9526 0.3061,0.6745 0.3395,5.1844 0.4475,60.4818 0.082,42.3202 0.1821,60.5029 0.342,62.3216 1.0784,12.2523 2.6562,18.0726 6.5055,23.9993 6.7568,10.402 17.9544,16.1118 34.45,17.5673 v 0.01 c 1.1235,0.098 5.3309,0.1477 9.3513,0.1097 7.7568,-0.074 10.3327,-0.2836 17.0438,-1.3817 4.029,-0.6593 5.2543,-1.3066 6.2488,-3.3022 l 0.5098,-1.0223 v -12.3554 c 0,-11.5315 -0.029,-12.41 -0.3654,-13.1474 -0.5346,-1.1731 -1.3426,-2.0338 -2.4228,-2.5812 -1.3852,-0.7018 -2.3784,-0.777 -4.7334,-0.3581 -2.8605,0.5041 -10.0993,0.5069 -12.8197,0 -11.1408,-2.0752 -16.1185,-9.1249 -16.9932,-24.0705 -0.1426,-2.445 -0.192,-20.0392 -0.1519,-54.4765 l 0.059,-50.8632 0.5512,-1.1225 c 0.6241,-1.2715 1.5815,-2.1998 2.8957,-2.8079 0.8778,-0.406 1.2062,-0.4188 13.8371,-0.5148 12.7938,-0.098 12.9475,-0.1033 13.729,-0.5257 0.9308,-0.5035 1.8833,-1.4715 2.3963,-2.4365 0.3463,-0.6498 0.3716,-1.4406 0.4247,-13.1366 0.049,-10.9811 0.02,-12.5417 -0.2568,-13.2692 -0.5,-1.3137 -1.3278,-2.2904 -2.4815,-2.9285 l -1.0704,-0.5919 -13.0376,-0.099 -13.0365,-0.099 -0.8345,-0.4461 c -1.1321,-0.605 -2.1914,-1.7032 -2.6969,-2.7958 -0.4179,-0.9037 -0.4204,-0.9784 -0.5186,-24.1163 l -0.099,-23.2108 -0.5568,-0.9465 c -0.3061,-0.5206 -0.9222,-1.2117 -1.3697,-1.5359 -1.2451,-0.9021 -1.4519,-1.1197 -7.9691,-1.1466 z m 978.066,50.3617 c -0.7506,0 -1.5006,0.015 -2.2488,0.036 -5.9876,0.1687 -11.8919,0.9199 -17.1814,2.2376 -8.2618,2.0581 -16.1932,5.9142 -22.3093,10.8459 -2.0901,1.6854 -5.9426,5.5269 -7.5278,7.5063 -7.4586,9.3143 -10.479,20.0169 -11.345,40.1982 -0.2661,6.184 -0.2655,75.7783 0,81.2837 0.7864,16.3125 2.9568,26.5112 7.6284,35.852 2.8012,5.6005 5.7098,9.6386 9.6759,13.4343 8.6716,8.2989 21.1957,13.293 36.6191,14.6026 v 0 c 3.424,0.2908 15.4722,0.1132 18.5679,-0.2736 12.4345,-1.5537 21.9876,-5.1294 30.3117,-11.345 2.516,-1.8786 7.3148,-6.6681 9.129,-9.111 3.0228,-4.0697 5.8278,-9.0478 7.2327,-12.8388 2.2346,-6.0301 3.3457,-14.7412 3.629,-28.4445 0.1235,-5.9737 0.121,-6.0343 -0.3265,-7.0698 -0.2716,-0.6287 -0.7988,-1.3498 -1.3241,-1.8121 -1.6339,-1.438 -1.0568,-1.3901 -16.6518,-1.3901 -15.4994,0 -14.992,-0.041 -16.5778,1.3166 -0.4513,0.3865 -1.055,1.1598 -1.3395,1.718 -0.5013,0.9835 -0.5216,1.1678 -0.6741,5.9534 -0.1827,5.7345 -0.5031,8.4649 -1.3716,11.697 -1.4778,5.5005 -3.0037,8.5031 -5.8605,11.5319 -1.7716,1.8779 -3.3506,3.0297 -5.6833,4.1474 -2.2605,1.0826 -4.134,1.6485 -6.8142,2.0604 -3.6766,0.5647 -9.2957,0.2577 -12.7945,-0.7005 -2.2765,-0.6237 -5.2599,-2.1481 -6.8722,-3.512 -4.4895,-3.7977 -7.1284,-10.0636 -8.5839,-20.3848 -0.7439,-5.2733 -1.2698,-18.3021 -1.1476,-28.3902 0.062,-5.1051 0.094,-5.55 0.4871,-6.3995 0.6024,-1.3064 1.6913,-2.424 2.887,-2.9647 l 1.0358,-0.4678 38.913,-0.099 38.9142,-0.1001 0.8888,-0.5244 c 1.092,-0.6443 1.6044,-1.1874 2.2038,-2.339 l 0.4629,-0.8897 v -20.0485 c 0,-20.2617 -0.089,-23.5935 -0.8006,-30.8147 -1.6914,-17.1669 -6.0062,-27.5667 -15.6611,-37.7496 -7.4556,-7.863 -18.0272,-13.3018 -30.0543,-15.4623 -4.9204,-0.8839 -10.184,-1.3112 -15.434,-1.2912 z m -847.1333,0.014 c -0.7988,0 -1.605,0.013 -2.4198,0.034 -5.0611,0.129 -8.7136,0.4818 -12.8389,1.2418 -12.9759,2.3907 -23.2771,7.6394 -31.4098,16.0036 -9.8939,10.1752 -13.4976,21.1539 -14.4161,43.9248 -0.2593,6.3907 -0.258,74.7916 0,80.494 0.8685,19.1974 3.8852,31.0194 10.5951,41.5245 8.4463,13.2237 23.3777,21.0659 43.3277,22.7599 v 0 c 3.4247,0.2908 15.4729,0.1144 18.5679,-0.2724 15.4395,-1.929 26.9007,-7.1168 35.6556,-16.1363 3.3142,-3.4139 6.1753,-7.3529 8.7327,-12.0237 2.9914,-5.4643 4.6173,-12.0035 5.3772,-21.6291 0.3074,-3.8957 0.5944,-10.4384 0.6389,-14.5194 0.038,-3.5994 0.031,-3.6685 -0.4834,-4.6682 -0.2876,-0.5582 -0.8919,-1.3314 -1.3432,-1.718 -1.5858,-1.3568 -1.0784,-1.3166 -16.5777,-1.3166 -15.5951,0 -15.0192,-0.048 -16.6531,1.3901 -1.576,1.3872 -1.755,2.1017 -1.9328,7.6955 -0.1864,5.8586 -0.4098,7.8091 -1.2765,11.1763 -1.4963,5.8089 -3.0901,8.9744 -6.0982,12.1045 -3.2074,3.3376 -7.145,5.2716 -12.3666,6.0716 -4.055,0.6214 -10.3753,0.1255 -13.9969,-1.0972 -7.8223,-2.6404 -12.0778,-9.3884 -14.0408,-22.2607 -0.9333,-6.1191 -1.074,-9.0927 -1.0839,-22.7985 l -0.01,-12.9534 0.5969,-0.9657 c 0.3284,-0.5312 0.9765,-1.2567 1.4407,-1.6107 1.7482,-1.3335 -1.121,-1.2454 41.2179,-1.2454 h 38.3451 l 1.0266,-0.5124 c 0.5642,-0.2811 1.3345,-0.8714 1.7117,-1.3118 1.4031,-1.6388 1.3364,-0.3858 1.2321,-23.4158 -0.092,-20.344 -0.1636,-22.8597 -0.8401,-29.5753 -1.7414,-17.2847 -6.0303,-27.5678 -15.7383,-37.7363 -3.9864,-4.1755 -8.313,-7.3287 -13.7914,-10.0514 -8.9691,-4.457 -19.1722,-6.6226 -31.1525,-6.602 z m -0.3556,32.6208 c 0.5976,-0.012 1.1963,-0.01 1.7914,0.01 1.5876,0.045 3.1543,0.1925 4.6308,0.4485 10.3994,1.8036 15.8507,8.4166 17.7784,21.5652 0.5179,3.5311 0.8321,10.5225 0.7574,16.8342 h 7e-4 l -0.06,5.0371 -24.3457,0.051 -24.3463,0.049 v -8.05 c 0,-4.4276 0.094,-9.0721 0.2074,-10.3214 1.1494,-12.6833 5.0339,-20.053 12.3543,-23.4351 2.8901,-1.3356 7.0469,-2.1044 11.2315,-2.1858 z m 848.476,0 c 0.4679,0.01 0.9345,0.02 1.4,0.043 3.7197,0.1851 7.308,0.9117 9.9666,2.14 7.3204,3.3821 11.205,10.7518 12.3543,23.4351 0.1136,1.2493 0.2062,5.8931 0.2062,10.3202 v 0 8.05 h -24.2635 c -13.3451,0 -24.3229,-0.061 -24.3945,-0.1326 -0.1963,-0.1956 -0.1555,-9.6119 0.062,-14.4857 0.216,-4.8311 0.5845,-7.9879 1.3117,-11.2425 2.0691,-9.262 6.6438,-14.8093 14,-16.9753 2.7864,-0.8205 6.0827,-1.1955 9.3556,-1.1526 z"
             id="path917"
             inkscape:connector-curvature="0" />
          <path
             style="fill:#d7e0f5;fill-opacity:1;stroke-width:0.19753087"
             d="m 1379.3022,1343.1239 c -3.1445,0.1013 -6.3494,0.3549 -9.5704,0.7644 -14.7901,1.8804 -26.7216,7.3255 -35.6599,16.2737 -6.2703,6.2771 -10.8284,13.9474 -13.9142,23.4158 -1.7728,5.439 -3.5333,14.3293 -3.1876,16.0987 0.3358,1.7213 1.3278,3.0108 2.9852,3.8798 l 0.8882,0.4666 h 15.6044 c 15.5895,0 15.6061,0 16.3981,-0.4256 1.9654,-1.0529 2.5747,-2.135 3.179,-5.6484 1.7574,-10.213 4.6741,-15.9745 9.7562,-19.2721 5.4383,-3.5287 15.1123,-3.9582 21.2346,-0.9427 5.0926,2.508 7.9987,7.5641 9.2679,16.1265 0.4506,3.0402 0.7531,9.3942 0.674,14.1312 -0.078,4.6642 -0.2265,5.2657 -1.6506,6.69 -0.8882,0.8884 -1.1679,1.0209 -11.9457,5.7039 -21.6444,9.4046 -29.1759,13.1032 -38.5561,18.9308 -7.5408,4.6852 -12.255,8.2959 -16.9618,12.9944 -4.6784,4.6694 -7.5932,8.6795 -10.2746,14.1312 -3.3865,6.8865 -5.0371,13.8847 -5.5531,23.54 -0.7315,13.6897 1.7049,27.2341 6.5814,36.5897 6.2797,12.0459 15.7667,18.6647 29.0112,20.2414 v 0 c 0.3802,0.045 2.8685,0.056 5.5302,0.024 5.1531,-0.062 6.9031,-0.2645 10.5686,-1.2213 6.7679,-1.7671 13.708,-5.8628 20.9926,-12.3891 5.4277,-4.8578 5.4265,-4.8575 7.5728,-4.8575 1.9827,0 4.0432,1.4165 4.8901,3.3553 0.213,0.4889 0.5259,1.8277 0.6938,2.9743 0.7957,5.4159 1.4309,7.2113 2.9649,8.3816 1.4419,1.1 0.9919,1.0753 17.108,1.0753 14.5802,0 14.9333,0 15.8025,-0.3966 1.1475,-0.5189 2.0864,-1.4279 2.6833,-2.5957 0.6204,-1.2213 0.6191,-2.6425 -0.01,-6.0981 -0.9234,-5.0754 -1.5068,-10.0731 -1.887,-16.1796 -0.4747,-7.6279 -0.5932,-21.3808 -0.5932,-71.3095 0,-32.2708 -0.081,-54.3389 -0.2013,-56.6913 -0.6629,-12.9965 -2.566,-20.704 -6.7746,-27.4463 -5.1908,-8.3153 -12.4982,-13.9727 -22.2038,-17.1887 -7.1271,-2.3615 -16.0154,-3.431 -25.4487,-3.1274 z m 11.8673,102.7513 c 0.395,-0.018 0.7734,0.032 1.1994,0.1266 1.8734,0.4183 3.2802,1.5439 4.0691,3.2552 l 0.4555,0.9874 0.053,22.3006 c 0.047,19.5239 0.015,22.4469 -0.2506,23.4833 -0.7876,3.0732 -6.9531,10.2138 -11.5234,13.344 -3.5321,2.4194 -7.6556,4.0713 -11.6877,4.6839 -2.0086,0.3046 -5.0265,0.3424 -6.5852,0.081 -8.4383,-1.4163 -14.4815,-8.5686 -15.7432,-18.633 -0.3327,-2.6537 -0.1475,-7.3091 0.4019,-10.0924 1.4642,-7.4218 5.1284,-13.7513 11.8425,-20.4572 5.497,-5.4896 12.4735,-10.6869 22.0828,-16.4508 3.1722,-1.9031 4.5006,-2.5727 5.6858,-2.6283 z"
             id="path913"
             inkscape:connector-curvature="0" />
          <path
             style="fill:#d7e0f5;fill-opacity:1;stroke-width:0.19753087"
             d="m 2230.0689,1343.0914 c -4.218,-2e-4 -8.5482,0.2651 -12.7315,0.7969 -25.0827,3.1889 -41.9969,16.6786 -49.5173,39.4917 -1.5408,4.6734 -3.2636,12.7783 -3.2747,15.408 -0.01,2.0964 1.0185,3.7212 3.0154,4.7683 l 0.8883,0.4666 h 15.6043 15.6062 l 0.8025,-0.4304 c 0.9623,-0.5152 2.1432,-1.7757 2.5296,-2.7007 0.1543,-0.3685 0.4272,-1.6368 0.6074,-2.8187 1.5444,-10.1105 4.9222,-16.5415 10.3722,-19.7471 3.4525,-2.0309 8.6062,-2.9676 13.5716,-2.4679 4.8414,0.4869 8.0364,1.8232 10.6303,4.4463 0.8716,0.8813 1.8808,2.1048 2.2426,2.72 2.9685,5.0469 4.1697,12.0452 4.1796,24.2645 0,4.0903 -0.2407,5.5173 -1.1377,6.7009 -1.0963,1.4459 -0.9956,1.3912 -8.6382,4.7008 -24.8081,10.7425 -32.9155,14.6891 -42.6667,20.767 -7.2389,4.5121 -11.9284,8.1089 -16.5123,12.664 -4.7062,4.6773 -7.6445,8.6286 -10.1957,13.7141 -2.9636,5.9077 -4.6414,11.7934 -5.5204,19.3721 -0.479,4.1181 -0.4784,14.341 0,18.6668 1.6685,15.0961 6.5432,26.4539 14.508,33.8095 5.4692,5.0505 12.726,8.2632 20.584,9.1134 v 0 c 1.5765,0.1706 8.4518,0.1228 10.2308,-0.071 10.276,-1.1192 18.7624,-5.6597 29.6686,-15.8721 2.2247,-2.0833 2.9802,-2.4788 4.7426,-2.4788 1.5382,0 2.7216,0.4754 3.8197,1.5336 1.1661,1.1233 1.508,1.9962 2.0179,5.1541 0.8636,5.3414 1.2691,6.5656 2.5488,7.6895 1.6117,1.415 0.3333,1.3124 17.0963,1.3744 13.7333,0.051 15.1901,0.024 15.9802,-0.2761 1.9766,-0.7508 3.3747,-2.7651 3.3747,-4.8731 0,-0.6281 -0.2228,-2.3615 -0.4988,-3.852 -0.6395,-3.4518 -1.3864,-9.369 -1.6629,-13.1788 -0.6185,-8.5171 -0.6599,-12.164 -0.8087,-71.7038 -0.084,-33.4617 -0.2018,-61.195 -0.2617,-61.6295 -0.061,-0.4346 -0.2068,-1.9454 -0.3247,-3.3577 -0.6389,-7.6665 -2.2154,-13.9007 -4.792,-18.9429 -6.437,-12.598 -17.8407,-20.1138 -34.0197,-22.4224 -3.7346,-0.5312 -7.8401,-0.7968 -12.0586,-0.7969 z m 8.8975,102.838 c 2.142,0 3.9963,1.1877 4.9808,3.1926 l 0.5507,1.1224 v 22.7166 c 0,18.426 -0.05,22.8569 -0.2636,23.4603 -0.6667,1.8829 -4.0852,6.3471 -7.1716,9.3642 -4.6099,4.5068 -10.1803,7.391 -15.9722,8.2707 -2.0093,0.3047 -5.0278,0.3424 -6.5865,0.081 -7.0203,-1.1783 -12.6302,-6.5127 -14.8432,-14.1156 -0.895,-3.0743 -1.1407,-5.3049 -1.0216,-9.2833 0.1192,-3.9783 0.4877,-6.1384 1.6327,-9.58 3.6655,-11.0159 14.0667,-21.3979 32.6439,-32.5846 3.9105,-2.3551 4.5716,-2.644 6.0506,-2.644 z"
             id="path911"
             inkscape:connector-curvature="0" />
          <path
             style="fill:#d7e0f5;fill-opacity:1;stroke-width:0.19753087"
             d="m 1558.9707,1343.089 c -13.9401,-0.011 -25.7963,5.2145 -38.8241,17.1103 -1.2864,1.1749 -2.6586,2.2425 -3.1765,2.4716 -2.0543,0.9087 -4.5827,0.2744 -6.1914,-1.5529 -1.2234,-1.39 -1.3889,-2.2195 -1.3889,-6.9758 v -4.081 l -0.6086,-1.2202 c -0.6031,-1.2071 -1.2117,-1.8084 -2.5512,-2.5234 -0.6574,-0.3509 -1.4142,-0.3688 -15.3093,-0.3688 h -14.6167 l -0.8129,0.434 c -1.279,0.6842 -1.9797,1.3692 -2.529,2.4727 l -0.5105,1.0224 v 95.122 95.1208 l 0.4679,0.9886 c 0.5654,1.1933 1.4938,2.1096 2.6889,2.6536 v 0 c 0.8728,0.3979 1.1438,0.4039 15.5222,0.3569 l 14.6327,-0.048 0.9648,-0.5968 c 1.1259,-0.6965 2.1617,-1.9686 2.4519,-3.0129 0.1395,-0.5006 0.2049,-23.5345 0.2049,-72.057 0,-63.7568 0.033,-71.4322 0.3062,-72.3512 0.4284,-1.4426 2.7815,-4.3297 6.7926,-8.337 6.4469,-6.4401 12.279,-9.9803 18.8777,-11.4571 2.7414,-0.6134 7.0087,-0.6232 9.2476,-0.021 5.3469,1.4396 7.8827,5.1864 9.166,13.5428 0.3118,2.0265 0.3439,7.7886 0.4426,76.3648 l 0.1062,74.173 0.463,0.8885 c 0.5993,1.1516 1.1117,1.6947 2.2037,2.3389 l 0.8901,0.5257 14.5179,0.055 c 13.1815,0.051 14.5994,0.025 15.3889,-0.2748 1.0839,-0.4121 2.2839,-1.4795 2.8475,-2.5331 l 0.4309,-0.8029 0.099,-72.0004 0.099,-72.0004 0.5173,-1.0863 c 1.029,-2.1593 7.145,-8.7734 10.8407,-11.7247 4.9988,-3.9916 10.1969,-6.5858 15.1624,-7.5666 2.2975,-0.4592 6.5469,-0.4565 8.4222,0 4.7167,1.148 7.5333,4.437 8.8173,10.2985 0.9068,4.1432 0.8487,-0.5486 0.9679,79.1112 l 0.1123,74.5684 0.4124,0.891 c 0.5382,1.1632 1.5123,2.119 2.7438,2.6922 l 0.9907,0.4617 14.3216,-0.014 c 10.4445,-0.01 14.4914,-0.076 14.95,-0.2448 1.1791,-0.4346 2.3198,-1.4149 2.926,-2.5149 l 0.5932,-1.0743 v -79.1112 c 0,-74.9151 -0.02,-79.2943 -0.358,-82.5677 -0.9142,-8.8468 -2.671,-15.6107 -5.3828,-20.7164 -4.4043,-8.2914 -10.6407,-12.7029 -20.3333,-14.3808 -2.7099,-0.467 -10.5272,-0.4682 -13.5907,0 -5.7574,0.8798 -10.1531,2.2678 -15.447,4.8756 -6.6691,3.2853 -12.4067,7.49 -19.8833,14.5712 -2.7271,2.5828 -3.4932,3.0093 -5.4,3.0093 -2.4253,0 -4.1543,-1.2734 -5.1253,-3.776 -2.1735,-5.605 -5.7099,-10.5074 -9.8062,-13.5947 -4.766,-3.5916 -11.3327,-5.5275 -18.7475,-5.5375 z"
             id="path909"
             inkscape:connector-curvature="0" />
          <path
             style="fill:#d7e0f5;fill-opacity:1;stroke-width:0.19753087"
             d="m 2338.4713,1278.1005 c -14.379,0 -14.4771,0 -15.371,0.4184 -1.171,0.5505 -2.0086,1.4065 -2.5808,2.6355 l -0.4618,0.9911 v 128.9882 128.987 l 0.4673,0.9886 c 0.5655,1.1933 1.4938,2.1096 2.6889,2.6536 0.8735,0.3977 1.1438,0.4039 15.5222,0.3569 l 14.6327,-0.048 0.9649,-0.5968 c 1.1259,-0.6964 2.1623,-1.9685 2.4524,-3.0129 0.1358,-0.4901 0.205,-9.6773 0.205,-27.5186 6e-4,-21.7541 0.05,-26.9483 0.2636,-27.6596 0.308,-1.022 14.5123,-23.6112 15.4154,-24.5141 0.9543,-0.9541 2.392,-1.5348 3.8111,-1.5348 0.9901,0 1.4481,0.1181 2.4556,0.6402 2.2975,1.1907 1.1796,-2.0537 14.295,41.446 6.4673,21.4486 11.9142,39.3539 12.105,39.7883 0.1901,0.4346 0.708,1.1539 1.15,1.5987 1.5172,1.5266 0.7024,1.4688 18.837,1.4588 15.7765,0 16.1315,-0.013 17.0018,-0.4063 1.9784,-0.8944 3.1587,-2.724 3.1587,-4.9093 0,-1.1545 -1.8605,-6.9399 -20.5334,-63.8129 -11.2938,-34.3991 -20.587,-62.8951 -20.6512,-63.3235 -0.064,-0.4296 0,-1.2215 0.1482,-1.7662 0.1876,-0.6963 5.2833,-9.0314 17.2672,-28.2468 9.35,-14.9926 17.2037,-27.6593 17.4519,-28.1479 1.0031,-1.9762 0.4049,-4.792 -1.3457,-6.3332 -1.6241,-1.4296 -1.0302,-1.3872 -18.6247,-1.3262 l -15.6864,0.054 -0.9876,0.5244 c -0.5433,0.2887 -1.2204,0.7773 -1.5056,1.0863 -0.2852,0.3088 -8.0185,13.8951 -17.184,30.1914 -9.8925,17.5885 -16.9685,29.962 -17.4117,30.447 -1.1062,1.21 -2.4463,1.7207 -4.2148,1.6071 -1.0605,-0.068 -1.6432,-0.2212 -2.3031,-0.6075 -1.0302,-0.6039 -2.0376,-1.692 -2.492,-2.691 -0.2932,-0.6452 -0.3296,-6.031 -0.4191,-62.7303 l -0.099,-62.025 -0.4278,-0.7909 c -0.5679,-1.0501 -1.5463,-1.9615 -2.6345,-2.4535 -0.8673,-0.3922 -1.234,-0.4063 -15.3593,-0.4063 z"
             id="path903"
             inkscape:connector-curvature="0" />
        </g>
        <path
           id="path2764"
           d="m 4157.7812,-256.39158 c -1.6487,-6.2e-4 -3.299,0.16039 -4.4284,0.48345 -2.9305,0.83832 -5.776,2.53052 -7.7558,4.61155 -2.384,2.50595 -3.0087,3.72873 -4.966,9.72223 -5.4499,16.68868 -11.9169,33.15627 -20.257,51.58419 -1.5734,3.47654 -3.594,8.01007 -4.491,10.07426 -6.3332,14.57374 -13.8856,29.42972 -22.1897,43.64873 -42.8656,73.398162 -108.5709,134.8613442 -195.4921,182.871602 -20.9762,11.58602 -44.7216,23.07945 -68.2473,33.034344 -68.3735,28.932344 -146.663,50.588264 -227.7524,62.997924 -22.6247,3.46242 -47.4064,6.32974 -64.9884,7.51953 -7.7295,0.52307 -25.0462,2.49273 -38.3211,4.35957 -41.8479,5.88508 -66.1395,13.15444 -69.729,20.86468 -2.1581,4.6357 2.4346,9.20116 13.7298,13.65017 31.3423,12.34534 106.2327,21.19288 191.8017,22.65867 17.8898,0.30647 48.7112,0.0386 68.2472,-0.59317 108.2281,-3.49979 204.5418,-19.04343 272.6913,-44.00801 16.1616,-5.92032 27.0148,-10.63432 44.049,-19.13339 13.4903,-6.731 20.6538,-10.59928 30.5784,-16.51114 52.7441,-31.41849 93.5517,-72.268058 120.4223,-120.545206 2.8338,-5.0915398 7.7423,-14.8405398 10.1429,-20.1473338 8.0714,-17.8426502 14.2158,-36.9315642 16.6269,-51.6505142 0.2051,-1.251944 0.687,-3.792034 1.0694,-5.644774 2.7589,-13.36547 4.8909,-29.392774 5.9377,-44.631322 0.7066,-10.28802 0.8018,-13.62091 0.8018,-28.24677 3e-4,-12.61733 -0.051,-15.3568 -0.3473,-18.46908 -3.624,-38.14873 -17.231,-75.93569 -33.0343,-91.73901 -3.525,-3.52497 -6.231,-5.27947 -9.6788,-6.27411 -1.1236,-0.32403 -2.7712,-0.48631 -4.4198,-0.48707 z"
           style="fill:#1372cc;fill-opacity:1;stroke-width:0.19753087"
           inkscape:connector-curvature="0" />
        <path
           id="path2766"
           d="m 3946.1167,-487.9068 c -11.1626,0.16474 -17.9799,0.9872 -33.0018,3.981 -28.9506,5.76968 -58.0143,14.61927 -96.1975,29.29206 -12.5151,4.80923 -60.3039,23.96809 -70.8152,28.39023 -39.6909,16.69827 -70.6475,33.99027 -95.5054,53.34683 -11.3668,8.85116 -21.7061,18.39022 -26.6457,24.58526 -8.1393,10.2081 -12.8003,20.42012 -14.4724,31.70452 -0.4926,3.32093 -0.4923,10.90405 0,14.22164 3.3118,22.31672 19.4899,41.74258 46.0551,55.29995 13.0516,6.66078 27.3627,11.3152 45.532,14.80879 6.525,1.25464 31.5581,5.40011 37.0358,6.13305 2.9333,0.39249 13.3342,1.81689 23.112,3.16479 49.9726,6.88883 73.2867,9.44691 98.0734,10.76027 v 0 c 4.0755,0.21594 19.5063,0.0925 23.2096,-0.18567 15.9258,-1.19615 29.2577,-3.77629 42.3069,-8.18745 19.3653,-6.54633 36.151,-16.39895 51.718,-30.35662 5.2807,-4.7347 13.2363,-13.13108 18.8838,-19.93031 26.9061,-32.39348 42.2336,-69.02601 45.4994,-108.74082 0.971,-11.80727 0.8856,-26.52277 -0.205,-35.25993 -1.9694,-15.77804 -7.6514,-29.57954 -16.9946,-41.28328 -2.725,-3.41337 -8.1105,-8.80067 -11.5294,-11.53187 -12.0221,-9.60405 -26.5816,-15.88162 -43.3437,-18.68972 -7.781,-1.30352 -13.1511,-1.66389 -22.7166,-1.52272 z"
           style="fill:#1372cc;fill-opacity:1;stroke-width:0.19753087"
           inkscape:connector-curvature="0" />
        <path
           id="path2768"
           d="m 3559.7065,-1413.7526 c -84.8214,0.01 -172.5866,14.0287 -263.9745,42.1647 -25.4326,7.83 -52.1041,17.815 -76.1477,28.506 -63.6282,28.2918 -122.1005,65.6824 -176.9881,113.1777 -23.9817,20.7518 -48.8312,45.1559 -71.4555,70.174 -8.4113,9.3014 -11.8904,13.9734 -14.7556,19.8146 -2.2407,4.5677 -3.3041,8.4755 -3.494,12.8388 -0.2647,6.0844 1.3764,11.1067 5.8437,17.8771 3.0098,4.5617 4.082,7.038 4.5778,10.5819 0.408,2.9167 -0.2304,6.0725 -1.9194,9.4907 -1.0072,2.0384 -2.7322,4.628 -7.8125,11.7297 -64.0761,89.57013 -105.4608,185.42961 -125.0084,289.55571 -0.5583,2.9738 -1.235,6.17351 -1.5034,7.11082 -2.7016,9.43249 -7.6074,14.91536 -18.4064,20.57292 -1.7071,0.89432 -4.6311,2.45667 -6.4984,3.47222 -19.255,10.47182 -35.4344,24.20848 -47.432,40.26934 -16.7493,22.42176 -26.5424,50.21046 -28.9605,82.17954 -0.656,8.67105 -0.7657,14.48886 -0.5847,30.91363 0.096,8.74568 0.1572,19.1008 0.1362,23.01191 -0.2304,43.27443 -0.2636,87.72661 -0.07,91.85234 1.5513,33.04251 10.3374,61.63255 26.2864,85.53119 23.2723,34.87207 60.5228,56.56689 106.4634,62.00568 7.2327,0.85626 11.7314,1.12674 20.644,1.2418 14.4476,0.18653 20.619,-0.41828 27.5729,-2.70181 7.9508,-2.61095 14.1685,-7.25993 18.1098,-13.54047 2.811,-4.47942 4.7785,-10.74605 5.3626,-17.08019 0.2612,-2.83279 0.9241,-31.69062 1.3997,-60.9375 0.929,-57.11521 0.983,-110.53568 0.164,-161.97554 -0.3127,-19.55718 -0.3174,-64.55191 -0.01,-75.25921 0.8806,-30.62083 2.3648,-51.96797 5.1926,-74.66725 5.9335,-47.62684 19.2083,-98.01302 38.1909,-144.96528 23.0793,-57.08525 55.1878,-110.70705 94.817,-158.34305 107.6439,-129.393 265.5785,-211.0723 433.2971,-224.089 95.5913,-7.4188 190.3287,8.039 277.8272,45.3319 18.1739,7.7459 36.1286,16.4885 53.6302,26.1141 64.0097,35.2045 119.2492,76.864 164.816,124.2973 100.9586,105.09396 155.4492,239.04868 163.0751,400.8887 0.8102,17.19495 1.2978,43.40845 1.5963,85.76388 0.2144,30.41621 0.062,72.52531 -0.4943,136.16295 -0.5173,59.21387 -0.5708,72.00875 -0.3183,75.55459 0.866,12.16191 3.7704,20.71199 9.2604,27.25935 3.6908,4.40168 8.9635,7.82124 15.238,9.88137 5.086,1.66988 15.0721,3.30093 24.1103,3.9388 3.7373,0.26374 16.9096,0.0855 20.6416,-0.27971 23.085,-2.25871 43.6726,-9.12313 63.6055,-21.20828 21.7967,-13.21509 40.4334,-32.48319 52.6296,-54.4114 8.5463,-15.36618 13.6772,-30.68866 16.4858,-49.2296 4.3848,-28.94623 5.4246,-57.33903 3.9689,-108.34539 -0.7801,-27.33681 -0.9065,-32.70419 -1.0802,-45.82731 -0.1029,-7.7679 -0.2828,-15.67809 -0.3991,-17.57933 -1.4136,-23.10917 -6.4719,-42.75823 -15.7154,-61.03757 -12.5279,-24.77398 -32.1256,-44.6928 -59.1182,-60.08511 -1.1573,-0.65995 -4.816,-2.62001 -8.1296,-4.35595 -6.4025,-3.35421 -8.2577,-4.47263 -10.7301,-6.46702 -3.5046,-2.82698 -5.983,-6.63984 -7.229,-11.12316 -0.2179,-0.78397 -0.8031,-3.64728 -1.2997,-6.36333 -19.3481,-105.84919 -60.4594,-202.15739 -124.4165,-291.45698 -4.8552,-6.7791 -5.6071,-7.7477 -8.1295,-10.4698 -3.4707,-3.7456 -4.7812,-5.8669 -4.9781,-8.0608 -0.1327,-1.4768 0.1715,-2.5214 1.1405,-3.9243 0.4369,-0.6326 1.4873,-2.1723 2.3342,-3.4217 11.2853,-16.6492 11.9232,-31.4078 2.0085,-46.4615 -4.0511,-6.1508 -9.195,-11.8624 -19.1708,-21.2855 -2.009,-1.8978 -6.63,-6.3053 -10.2695,-9.7933 -37.1747,-35.6284 -72.1268,-64.8316 -109.8284,-91.767 -122.7454,-87.6938 -255.7684,-135.1285 -397.925,-141.8958 -11.9992,-0.5712 -24.0565,-0.8567 -36.1738,-0.8561 z m -415.8757,779.92325 c -7.0859,-0.003 -9.5376,0.18824 -15.2501,1.18394 -36.1984,6.30948 -63.7424,35.70518 -74.7986,79.82735 -1.6085,6.41878 -3.5089,16.127 -4.8467,24.75405 -9.4259,60.782 -2.0634,119.49635 21.9088,174.71546 7.5475,17.3854 18.6015,37.85809 27.5173,50.96329 24.8547,36.53309 59.7928,59.61211 105.5183,69.70123 14.1263,3.11694 25.0919,4.41346 59.4569,7.03125 11.9585,0.91098 56.3197,3.93788 76.741,5.23607 2.39,0.15196 8.745,0.37619 14.1227,0.49793 5.3777,0.12176 10.4446,0.24306 11.2594,0.27006 7.6182,0.25239 20.4205,-0.009 28.0503,-0.57147 20.7566,-1.5315 37.673,-6.0312 55.9992,-14.8968 31.1386,-15.06382 49.3958,-37.9518 54.5151,-68.34369 4.1923,-24.88859 -2.6071,-48.51487 -21.0371,-73.0975 -1.3439,-1.79259 -4.1042,-5.74829 -6.133,-8.79027 -22.3102,-33.45339 -51.1348,-66.1884 -87.5916,-99.47433 -7.1899,-6.56445 -11.8694,-10.64838 -27.2594,-23.78955 -24.2645,-20.71903 -47.431,-37.90348 -83.654,-62.05271 -18.546,-12.36423 -38.0284,-24.49532 -56.8734,-35.41426 -10.2715,-5.95138 -26.7302,-15.02218 -27.2581,-15.02218 -0.1219,0 -1.0863,-0.43306 -2.1436,-0.9633 -8.1964,-4.11051 -19.6345,-8.03798 -28.7869,-9.88378 -7.2076,-1.45359 -11.5894,-1.87779 -19.4565,-1.88079 z"
           style="fill:#1372cc;fill-opacity:1;stroke-width:0.19753087"
           inkscape:connector-curvature="0" />
      </g>
    </g>
  </g>
</svg>
