<?xml version="1.0" encoding="UTF-8" standalone="no"?>
<svg
   xmlns:dc="http://purl.org/dc/elements/1.1/"
   xmlns:cc="http://creativecommons.org/ns#"
   xmlns:rdf="http://www.w3.org/1999/02/22-rdf-syntax-ns#"
   xmlns:svg="http://www.w3.org/2000/svg"
   xmlns="http://www.w3.org/2000/svg"
   xmlns:xlink="http://www.w3.org/1999/xlink"
   xmlns:sodipodi="http://sodipodi.sourceforge.net/DTD/sodipodi-0.dtd"
   xmlns:inkscape="http://www.inkscape.org/namespaces/inkscape"
   width="324px"
   height="234px"
   viewBox="0 0 324 234"
   version="1.1"
   id="svg28"
   sodipodi:docname="tor-messenger.svg"
   inkscape:version="0.92.4 (5da689c313, 2019-01-14)">
  <metadata
     id="metadata32">
    <rdf:RDF>
      <cc:Work
         rdf:about="">
        <dc:format>image/svg+xml</dc:format>
        <dc:type
           rdf:resource="http://purl.org/dc/dcmitype/StillImage" />
        <dc:title />
      </cc:Work>
    </rdf:RDF>
  </metadata>
  <sodipodi:namedview
     pagecolor="#ffffff"
     bordercolor="#666666"
     borderopacity="1"
     objecttolerance="10"
     gridtolerance="10"
     guidetolerance="10"
     inkscape:pageopacity="0"
     inkscape:pageshadow="2"
     inkscape:window-width="1152"
     inkscape:window-height="764"
     id="namedview30"
     showgrid="false"
     inkscape:pagecheckerboard="true"
     inkscape:zoom="2.017094"
     inkscape:cx="166.84972"
     inkscape:cy="51.608411"
     inkscape:window-x="0"
     inkscape:window-y="0"
     inkscape:window-maximized="1"
     inkscape:current-layer="layer1" />
  <defs
     id="defs7">
    <linearGradient
       id="linearGradient842"
       inkscape:collect="always">
      <stop
         id="stop838"
         offset="0"
         style="stop-color:#7dba21;stop-opacity:1" />
      <stop
         id="stop840"
         offset="1"
         style="stop-color:#466812;stop-opacity:1" />
    </linearGradient>
    <linearGradient
       inkscape:collect="always"
       id="linearGradient835">
      <stop
         style="stop-color:#e4efb1;stop-opacity:1"
         offset="0"
         id="stop831" />
      <stop
         style="stop-color:#b8d430;stop-opacity:1"
         offset="1"
         id="stop833" />
    </linearGradient>
    <linearGradient
       inkscape:collect="always"
       id="linearGradient827">
      <stop
         style="stop-color:#72aa1e;stop-opacity:1"
         offset="0"
         id="stop823" />
      <stop
         style="stop-color:#578217;stop-opacity:1"
         offset="1"
         id="stop825" />
    </linearGradient>
    <linearGradient
       id="linear0"
       gradientUnits="userSpaceOnUse"
       x1="0"
       y1="0.5"
       x2="1.197124"
       y2="0.509571"
       gradientTransform="matrix(327.891605,0,0,236.313074,-1.701,-1.94342)">
      <stop
         offset="0"
         style="stop-color:rgb(25.490198%,20%,40.000001%);stop-opacity:1;"
         id="stop2" />
      <stop
         offset="0.982609"
         style="stop-color:rgb(12.156863%,58.039218%,51.764709%);stop-opacity:1;"
         id="stop4" />
    </linearGradient>
    <linearGradient
       inkscape:collect="always"
       xlink:href="#linearGradient842"
       id="linearGradient829"
       x1="163.45703"
       y1="71.097656"
       x2="163.45703"
       y2="197.53516"
       gradientUnits="userSpaceOnUse" />
    <radialGradient
       inkscape:collect="always"
       xlink:href="#linearGradient835"
       id="radialGradient837"
       cx="157.54877"
       cy="135.80789"
       fx="157.54877"
       fy="135.80789"
       r="30.447266"
       gradientTransform="matrix(2.1743856,-0.03454075,0.03415687,2.1502194,-189.66178,-146.4535)"
       gradientUnits="userSpaceOnUse" />
    <linearGradient
       inkscape:collect="always"
       xlink:href="#linearGradient835"
       id="linearGradient869"
       x1="167.65433"
       y1="57.453663"
       x2="182.78688"
       y2="57.453663"
       gradientUnits="userSpaceOnUse" />
    <linearGradient
       inkscape:collect="always"
       xlink:href="#linearGradient835"
       id="linearGradient877"
       x1="144.7198"
       y1="50.777344"
       x2="163.45506"
       y2="50.777344"
       gradientUnits="userSpaceOnUse" />
    <linearGradient
       inkscape:collect="always"
       xlink:href="#linearGradient827"
       id="linearGradient901"
       x1="144.22089"
       y1="50.877205"
       x2="163.95123"
       y2="50.877205"
       gradientUnits="userSpaceOnUse" />
    <linearGradient
       inkscape:collect="always"
       xlink:href="#linearGradient827"
       id="linearGradient909"
       x1="167.65433"
       y1="57.453663"
       x2="182.78688"
       y2="57.453663"
       gradientUnits="userSpaceOnUse" />
    <linearGradient
       inkscape:collect="always"
       xlink:href="#linearGradient835"
       id="linearGradient917"
       x1="102.5625"
       y1="132.05859"
       x2="163.45703"
       y2="132.05859"
       gradientUnits="userSpaceOnUse" />
    <linearGradient
       inkscape:collect="always"
       xlink:href="#linearGradient827"
       id="linearGradient925"
       x1="163.45703"
       y1="132.05859"
       x2="224.35156"
       y2="132.05859"
       gradientUnits="userSpaceOnUse" />
  </defs>
  <g
     id="surface1">
    <rect
       x="0"
       y="0"
       width="324"
       height="234"
       style="fill:url(#linear0);stroke:none;"
       id="rect9" />
    <path
       style="stroke:url(#linearGradient917);fill-rule:nonzero;fill:url(#radialGradient837);fill-opacity:1"
       d="M 149.40625 66.582031 C 146.359375 74.238281 145.816406 80.925781 138.023438 85.558594 C 118.035156 94.886719 102.589844 115.921875 102.5625 138.832031 C 102.5625 171.253906 129.824219 197.535156 163.457031 197.535156 L 163.457031 183.988281 C 137.585938 183.988281 116.617188 163.769531 116.617188 138.832031 C 116.617188 113.890625 137.585938 93.675781 163.457031 93.675781 L 163.457031 71.097656 C 157.761719 70.675781 153.527344 68.90625 149.40625 66.582031 "
       id="path13" />
    <path
       style="stroke:url(#linearGradient877);fill-rule:nonzero;fill:url(#linearGradient901);fill-opacity:1.0"
       d="M 146.726562 34.972656 C 146.640625 35.21875 146.5625 35.46875 146.5 35.679688 C 141.632812 51.207031 146.746094 61.503906 161.839844 66.582031 C 166.257812 54.683594 161.617188 44.414062 147.863281 35.679688 C 147.535156 35.46875 147.132812 35.21875 146.722656 34.972656 "
       id="path17" />
    <path
       style="stroke:url(#linearGradient869);fill-rule:nonzero;fill:url(#linearGradient909);fill-opacity:1.0;stroke-opacity:1"
       d="M 168.328125 66.582031 C 167.164062 57.460938 171.804688 51.402344 182.207031 48.519531 C 181.074219 58.558594 176.457031 64.566406 168.328125 66.582031 "
       id="path19" />
    <path
       style=" stroke:none;fill-rule:nonzero;fill:rgb(91.764706%,91.764706%,80.784315%);fill-opacity:1;"
       d="M 163.457031 93.675781 C 137.585938 93.675781 116.617188 113.890625 116.617188 138.832031 C 116.617188 163.769531 137.585938 183.988281 163.457031 183.988281 L 163.457031 170.441406 C 145.347656 170.441406 130.667969 156.289062 130.667969 138.832031 C 130.667969 121.375 145.347656 107.222656 163.457031 107.222656 Z M 163.457031 93.675781 "
       id="path21" />
    <path
       style=" stroke:none;fill-rule:nonzero;fill:rgb(81.960785%,81.960785%,72.156864%);fill-opacity:1;"
       d="M 163.457031 107.222656 C 145.347656 107.222656 130.667969 121.375 130.667969 138.832031 C 130.667969 156.289062 145.347656 170.441406 163.457031 170.441406 L 163.457031 156.894531 C 153.109375 156.894531 144.722656 148.804688 144.722656 138.832031 C 144.722656 128.855469 153.109375 120.769531 163.457031 120.769531 Z M 163.457031 107.222656 "
       id="path23" />
    <path
       style=" stroke:none;fill-rule:nonzero;fill:rgb(74.901962%,74.901962%,66.274512%);fill-opacity:1;"
       d="M 163.457031 120.769531 C 153.109375 120.769531 144.722656 128.855469 144.722656 138.832031 C 144.722656 148.804688 153.109375 156.894531 163.457031 156.894531 Z M 163.457031 120.769531 "
       id="path25" />
  </g>
  <g
     inkscape:groupmode="layer"
     id="layer1"
     inkscape:label="jhalo">
    <path
       style="stroke:url(#linearGradient925);fill-rule:nonzero;fill:url(#linearGradient829);fill-opacity:1"
       d="M 177.511719 66.582031 C 173.84375 68.480469 168.273438 71.441406 163.457031 71.097656 L 163.457031 197.535156 C 197.089844 197.535156 224.351562 171.25 224.351562 138.832031 C 224.320312 115.734375 210.246094 94.804688 188.386719 85.347656 C 182.390625 81.449219 178.386719 74.511719 177.511719 66.582031 "
       id="path15" />
  </g>
</svg>
