<?xml version="1.0" encoding="UTF-8"?>
<svg xmlns="http://www.w3.org/2000/svg" xmlns:xlink="http://www.w3.org/1999/xlink" width="324px" height="234px" viewBox="0 0 324 234" version="1.1">
<g id="surface1">
<rect x="0" y="0" width="324" height="234" style="fill:rgb(21.568628%,73.725492%,28.627452%);fill-opacity:1;stroke:none;"/>
<path style="fill:none;stroke-width:1.021703;stroke-linecap:butt;stroke-linejoin:miter;stroke:rgb(100%,100%,100%);stroke-opacity:1;stroke-miterlimit:4;" d="M -0.94401 -1.082899 L 181.217448 -1.082899 L 181.217448 130.605469 L -0.94401 130.605469 Z M -0.94401 -1.082899 " transform="matrix(1.8,0,0,1.8,0,0)"/>
<path style=" stroke:none;fill-rule:evenodd;fill:rgb(100%,100%,100%);fill-opacity:1;" d="M 163.761719 194.589844 C 149.402344 194.589844 135.910156 190.96875 124.171875 184.617188 L 78.828125 198.828125 L 93.609375 155.832031 C 86.15625 143.753906 81.859375 129.589844 81.859375 114.453125 C 81.859375 70.191406 118.527344 34.316406 163.765625 34.316406 C 208.992188 34.316406 245.664062 70.191406 245.664062 114.453125 C 245.664062 158.710938 208.996094 194.589844 163.761719 194.589844 Z M 163.761719 47.078125 C 125.789062 47.078125 94.902344 77.300781 94.902344 114.453125 C 94.902344 129.195312 99.777344 142.847656 108.019531 153.953125 L 99.417969 178.976562 L 125.878906 170.683594 C 136.75 177.722656 149.777344 181.828125 163.761719 181.828125 C 201.726562 181.828125 232.621094 151.605469 232.621094 114.453125 C 232.621094 77.304688 201.726562 47.078125 163.761719 47.078125 Z M 205.117188 132.910156 C 204.613281 132.089844 203.273438 131.597656 201.273438 130.617188 C 199.261719 129.636719 189.390625 124.878906 187.550781 124.226562 C 185.710938 123.574219 184.371094 123.242188 183.03125 125.210938 C 181.695312 127.175781 177.847656 131.597656 176.675781 132.910156 C 175.503906 134.222656 174.332031 134.386719 172.324219 133.402344 C 170.320312 132.421875 163.851562 130.347656 156.179688 123.652344 C 150.214844 118.449219 146.183594 112.019531 145.011719 110.050781 C 143.84375 108.085938 144.890625 107.027344 145.894531 106.046875 C 146.796875 105.167969 147.902344 103.753906 148.90625 102.609375 C 149.910156 101.460938 150.246094 100.640625 150.910156 99.328125 C 151.582031 98.019531 151.246094 96.875 150.746094 95.886719 C 150.242188 94.90625 146.226562 85.242188 144.554688 81.308594 C 142.882812 77.378906 141.210938 78.03125 140.039062 78.03125 C 138.867188 78.03125 137.527344 77.867188 136.191406 77.867188 C 134.851562 77.867188 132.675781 78.359375 130.835938 80.324219 C 128.996094 82.289062 123.8125 87.042969 123.8125 96.707031 C 123.8125 106.375 131 115.710938 132.007812 117.019531 C 133.011719 118.328125 145.890625 138.808594 166.300781 146.675781 C 186.714844 154.539062 186.714844 151.914062 190.394531 151.589844 C 194.070312 151.261719 202.269531 146.835938 203.945312 142.25 C 205.617188 137.660156 205.617188 133.726562 205.117188 132.910156 Z M 205.117188 132.910156 "/>
</g>
</svg>
