<?xml version="1.0" encoding="UTF-8" standalone="no"?>
<svg
   xmlns:dc="http://purl.org/dc/elements/1.1/"
   xmlns:cc="http://creativecommons.org/ns#"
   xmlns:rdf="http://www.w3.org/1999/02/22-rdf-syntax-ns#"
   xmlns:svg="http://www.w3.org/2000/svg"
   xmlns="http://www.w3.org/2000/svg"
   xmlns:sodipodi="http://sodipodi.sourceforge.net/DTD/sodipodi-0.dtd"
   xmlns:inkscape="http://www.inkscape.org/namespaces/inkscape"
   version="1.1"
   id="Capa_1"
   x="0px"
   y="0px"
   viewBox="0 0 473 473"
   style="enable-background:new 0 0 473 473;"
   xml:space="preserve"
   width="512px"
   height="512px"
   sodipodi:docname="chat.svg"
   inkscape:version="0.92.4 (5da689c313, 2019-01-14)"><metadata
   id="metadata21"><rdf:RDF><cc:Work
       rdf:about=""><dc:format>image/svg+xml</dc:format><dc:type
         rdf:resource="http://purl.org/dc/dcmitype/StillImage" /><dc:title></dc:title></cc:Work></rdf:RDF></metadata><defs
   id="defs19" /><sodipodi:namedview
   pagecolor="#ffffff"
   bordercolor="#666666"
   borderopacity="1"
   objecttolerance="10"
   gridtolerance="10"
   guidetolerance="10"
   inkscape:pageopacity="0"
   inkscape:pageshadow="2"
   inkscape:window-width="1152"
   inkscape:window-height="763"
   id="namedview17"
   showgrid="false"
   inkscape:pagecheckerboard="true"
   inkscape:zoom="0.16296602"
   inkscape:cx="93.285074"
   inkscape:cy="227.17677"
   inkscape:window-x="0"
   inkscape:window-y="0"
   inkscape:window-maximized="1"
   inkscape:current-layer="Capa_1" /><g
   id="g14"
   transform="matrix(0.93886719,0,0,0.93886719,14.458028,14.45791)"
   style="fill:#cdcfd7;fill-opacity:1;stroke:none;stroke-opacity:1"><g
     id="g12"
     style="fill:#cdcfd7;fill-opacity:1;stroke:none;stroke-opacity:1">
	<g
   id="g10"
   style="fill:#cdcfd7;fill-opacity:1;stroke:none;stroke-opacity:1">
		<path
   d="M 403.581,69.3 C 358.881,24.6 299.581,0 236.381,0 c -63.2,0 -122.5,24.6 -167.2,69.3 -86.4,86.4 -92.4,224.7 -14.9,318 -7.6,15.3 -19.8,33.1 -37.9,42 -8.7,4.3 -13.6,13.6 -12.1,23.2 1.5,9.6 8.9,17.1 18.5,18.6 4.5,0.7 10.9,1.4 18.7,1.4 20.9,0 51.7,-4.9 83.2,-27.6 35.1,18.9 73.5,28.1 111.6,28.1 61.2,0 121.8,-23.7 167.4,-69.3 44.7,-44.7 69.3,-104 69.3,-167.2 0,-63.2 -24.7,-122.5 -69.4,-167.2 z m -19.1,315.3 c -67.5,67.5 -172,80.9 -254.2,32.6 -5.4,-3.2 -12.1,-2.2 -16.4,2.1 -0.4,0.2 -0.8,0.5 -1.1,0.8 -27.1,21 -53.7,25.4 -71.3,25.4 h -0.1 c 20.3,-14.8 33.1,-36.8 40.6,-53.9 1.2,-2.9 1.4,-5.9 0.7,-8.7 -0.3,-2.7 -1.4,-5.4 -3.3,-7.6 -73.2,-82.7 -69.4,-208.7 8.8,-286.9 81.7,-81.7 214.6,-81.7 296.2,0 81.8,81.7 81.8,214.5 0.1,296.2 z"
   data-original="#000000"
   class="active-path"
   data-old_color="#000000"
   id="path2"
   inkscape:connector-curvature="0"
   style="fill:#cdcfd7;fill-opacity:1;stroke:none;stroke-opacity:1" />
		<circle
   cx="236.381"
   cy="236.5"
   r="16.6"
   data-original="#000000"
   class="active-path"
   data-old_color="#000000"
   id="circle4"
   style="fill:#cdcfd7;fill-opacity:1;stroke:none;stroke-opacity:1" />
		<circle
   cx="321.98099"
   cy="236.5"
   r="16.6"
   data-original="#000000"
   class="active-path"
   data-old_color="#000000"
   id="circle6"
   style="fill:#cdcfd7;fill-opacity:1;stroke:none;stroke-opacity:1" />
		<circle
   cx="150.78101"
   cy="236.5"
   r="16.6"
   data-original="#000000"
   class="active-path"
   data-old_color="#000000"
   id="circle8"
   style="fill:#cdcfd7;fill-opacity:1;stroke:none;stroke-opacity:1" />
	</g>
</g></g> </svg>