<?xml version="1.0" encoding="UTF-8" standalone="no"?>
<svg
   xmlns:dc="http://purl.org/dc/elements/1.1/"
   xmlns:cc="http://creativecommons.org/ns#"
   xmlns:rdf="http://www.w3.org/1999/02/22-rdf-syntax-ns#"
   xmlns:svg="http://www.w3.org/2000/svg"
   xmlns="http://www.w3.org/2000/svg"
   xmlns:sodipodi="http://sodipodi.sourceforge.net/DTD/sodipodi-0.dtd"
   xmlns:inkscape="http://www.inkscape.org/namespaces/inkscape"
   version="1.1"
   id="Capa_1"
   x="0px"
   y="0px"
   viewBox="0 0 389.981 389.981"
   style="enable-background:new 0 0 389.981 389.981;"
   xml:space="preserve"
   width="512px"
   height="512px"
   class=""
   sodipodi:docname="computer.svg"
   inkscape:version="0.92.4 (5da689c313, 2019-01-14)"><metadata
   id="metadata17"><rdf:RDF><cc:Work
       rdf:about=""><dc:format>image/svg+xml</dc:format><dc:type
         rdf:resource="http://purl.org/dc/dcmitype/StillImage" /><dc:title></dc:title></cc:Work></rdf:RDF></metadata><defs
   id="defs15" /><sodipodi:namedview
   pagecolor="#ffffff"
   bordercolor="#666666"
   borderopacity="1"
   objecttolerance="10"
   gridtolerance="10"
   guidetolerance="10"
   inkscape:pageopacity="0"
   inkscape:pageshadow="2"
   inkscape:window-width="1152"
   inkscape:window-height="763"
   id="namedview13"
   showgrid="false"
   inkscape:pagecheckerboard="true"
   inkscape:zoom="0.65186406"
   inkscape:cx="267.70731"
   inkscape:cy="309.46261"
   inkscape:window-x="0"
   inkscape:window-y="0"
   inkscape:window-maximized="1"
   inkscape:current-layer="Capa_1" /><g
   id="g10"
   style="fill:#cdcfd7;fill-opacity:1;stroke:#cdcfd7;stroke-width:3.80840826;stroke-miterlimit:4;stroke-dasharray:none;stroke-opacity:1"
   transform="matrix(0.92978723,0,0,0.92978723,13.691288,13.690823)"><g
     id="g8"
     style="fill:#cdcfd7;fill-opacity:1;stroke:#cdcfd7;stroke-width:3.80840826;stroke-miterlimit:4;stroke-dasharray:none;stroke-opacity:1">
	<path
   d="m 145.407,248.988 -2.775,26.209 c -0.224,2.115 0.46,4.225 1.883,5.806 1.422,1.581 3.449,2.483 5.576,2.483 h 79.301 c 2.126,0 4.153,-0.903 5.576,-2.483 1.422,-1.581 2.106,-3.691 1.883,-5.806 l -2.775,-26.209 h 98.777 c 15.374,0 27.881,-12.507 27.881,-27.881 V 27.881 C 360.733,12.507 348.225,0 332.852,0 H 40.63 C 25.256,0 12.749,12.507 12.749,27.881 v 193.226 c 0,15.374 12.507,27.881 27.881,27.881 z m 75.648,19.499 h -62.629 l 2.064,-19.499 h 58.5 z M 40.63,15 h 292.222 c 7.103,0 12.881,5.778 12.881,12.881 V 197.99 H 27.749 V 27.881 C 27.749,20.778 33.527,15 40.63,15 Z M 27.749,221.107 v -8.117 h 317.983 v 8.117 c 0,7.103 -5.778,12.881 -12.881,12.881 H 40.63 c -7.103,0 -12.881,-5.778 -12.881,-12.881 z"
   data-original="#000000"
   class="active-path"
   data-old_color="#000000"
   id="path2"
   style="fill:#cdcfd7;fill-opacity:1;stroke:#cdcfd7;stroke-width:3.80840826;stroke-miterlimit:4;stroke-dasharray:none;stroke-opacity:1"
   inkscape:connector-curvature="0" />
	<path
   d="m 332.645,333.876 c 1.36,-2.24 1.453,-5.027 0.244,-7.352 l -14.813,-28.499 c -1.291,-2.483 -3.856,-4.041 -6.655,-4.041 H 62.061 c -2.798,0 -5.364,1.558 -6.655,4.041 l -14.813,28.499 c -1.208,2.325 -1.116,5.112 0.244,7.352 1.36,2.24 3.791,3.607 6.411,3.607 h 278.986 c 2.62,10e-4 5.051,-1.367 6.411,-3.607 z M 59.599,322.484 66.615,308.985 h 240.251 l 7.017,13.499 z"
   data-original="#000000"
   class="active-path"
   data-old_color="#000000"
   id="path4"
   style="fill:#cdcfd7;fill-opacity:1;stroke:#cdcfd7;stroke-width:3.80840826;stroke-miterlimit:4;stroke-dasharray:none;stroke-opacity:1"
   inkscape:connector-curvature="0" />
	<path
   d="m 345.733,350.982 h -12 c -17.368,0 -31.499,14.13 -31.499,31.499 0,4.142 3.358,7.5 7.5,7.5 h 59.997 c 4.142,0 7.5,-3.358 7.5,-7.5 0.001,-17.368 -14.129,-31.499 -31.498,-31.499 z m -26.693,23.999 c 2.735,-5.337 8.295,-8.999 14.693,-8.999 h 12 c 6.398,0 11.958,3.662 14.694,8.999 z"
   data-original="#000000"
   class="active-path"
   data-old_color="#000000"
   id="path6"
   style="fill:#cdcfd7;fill-opacity:1;stroke:#cdcfd7;stroke-width:3.80840826;stroke-miterlimit:4;stroke-dasharray:none;stroke-opacity:1"
   inkscape:connector-curvature="0" />
</g></g> </svg>