<?xml version="1.0" encoding="UTF-8" standalone="no"?>
<svg
   xmlns:dc="http://purl.org/dc/elements/1.1/"
   xmlns:cc="http://creativecommons.org/ns#"
   xmlns:rdf="http://www.w3.org/1999/02/22-rdf-syntax-ns#"
   xmlns:svg="http://www.w3.org/2000/svg"
   xmlns="http://www.w3.org/2000/svg"
   xmlns:sodipodi="http://sodipodi.sourceforge.net/DTD/sodipodi-0.dtd"
   xmlns:inkscape="http://www.inkscape.org/namespaces/inkscape"
   version="1.1"
   id="Capa_1"
   x="0px"
   y="0px"
   viewBox="0 0 58 58"
   style="enable-background:new 0 0 58 58;"
   xml:space="preserve"
   width="512px"
   height="512px"
   sodipodi:docname="internet.svg"
   inkscape:version="0.92.4 (5da689c313, 2019-01-14)"><metadata
   id="metadata11"><rdf:RDF><cc:Work
       rdf:about=""><dc:format>image/svg+xml</dc:format><dc:type
         rdf:resource="http://purl.org/dc/dcmitype/StillImage" /><dc:title></dc:title></cc:Work></rdf:RDF></metadata><defs
   id="defs9" /><sodipodi:namedview
   pagecolor="#ffffff"
   bordercolor="#666666"
   borderopacity="1"
   objecttolerance="10"
   gridtolerance="10"
   guidetolerance="10"
   inkscape:pageopacity="0"
   inkscape:pageshadow="2"
   inkscape:window-width="1152"
   inkscape:window-height="763"
   id="namedview7"
   showgrid="false"
   inkscape:pagecheckerboard="true"
   inkscape:zoom="0.4609375"
   inkscape:cx="604.57912"
   inkscape:cy="199.87627"
   inkscape:window-x="0"
   inkscape:window-y="0"
   inkscape:window-maximized="1"
   inkscape:current-layer="g4" /><g
   id="g4"><path
     d="m 48.604463,46.375394 c 4.107464,-4.629032 6.609546,-10.714298 6.609546,-17.375367 0,-6.930442 -2.708178,-13.236267 -7.115748,-17.928575 0,0 0,-9.03e-4 0,-9.03e-4 -0.0036,-0.0054 -0.0091,-0.0072 -0.01175,-0.01175 C 43.495443,6.1784715 37.063068,3.0544847 29.908452,2.8095194 l -9.05e-4,-9.04e-4 -0.510721,-0.013559 C 29.264852,2.7905364 29.132879,2.7860164 29,2.7860164 c -0.132877,0 -0.264851,0.00452 -0.396826,0.00904 l -0.508913,0.013559 -9.04e-4,9.04e-4 C 20.938741,3.0544847 14.506365,6.1784715 9.9152977,11.058797 c -0.00361,0.0045 -0.00904,0.0063 -0.011751,0.01175 0,0 0,9.03e-4 -9.04e-4,0.0018 -4.4084731,4.691403 -7.1166513,10.997228 -7.1166513,17.92767 0,6.661069 2.5020819,12.746335 6.6095458,17.375368 0.00542,0.0081 0.00542,0.01717 0.011751,0.02531 0.016271,0.02259 0.039773,0.03345 0.056947,0.05423 4.6154748,5.159639 11.2376738,8.483395 18.6282168,8.736496 l 9.04e-4,9.03e-4 0.508914,0.01356 c 0.132878,0.0036 0.264852,0.0081 0.397729,0.0081 0.132879,0 0.264853,-0.0045 0.396827,-0.0091 l 0.508914,-0.01356 9.03e-4,-9.04e-4 c 7.398677,-0.254004 14.02811,-3.584088 18.643585,-8.754575 0.01175,-0.01536 0.03073,-0.01989 0.04158,-0.03616 0.0072,-0.0072 0.0072,-0.01627 0.01266,-0.02441 z M 4.6164523,29.903957 H 15.466341 c 0.102144,3.831766 0.850599,7.555059 2.182994,11.043329 -2.570781,0.930146 -5.02857,2.177572 -7.331787,3.734141 C 6.9305164,40.652605 4.8225485,35.517371 4.6164523,29.903957 Z M 10.811094,12.750053 c 2.248982,1.462561 4.643496,2.634055 7.141057,3.509062 -1.529451,3.712445 -2.37553,7.715053 -2.48581,11.83698 H 4.6164523 C 4.8324918,22.214213 7.1357088,16.858421 10.811094,12.750053 Z M 53.383548,28.096095 H 42.533661 c -0.11028,-4.121927 -0.95636,-8.124535 -2.485812,-11.83698 2.497563,-0.875007 4.892077,-2.046501 7.141057,-3.509062 3.675385,4.108368 5.978602,9.46416 6.194642,15.346042 z M 28.09607,16.311542 c -2.613266,-0.07412 -5.178624,-0.463716 -7.657203,-1.159744 1.832269,-3.758546 4.41932,-7.1510008 7.657203,-9.9757865 z m 0,1.807863 v 9.97669 H 17.274203 c 0.111184,-3.930293 0.935569,-7.742172 2.409881,-11.276543 2.717218,0.787324 5.538388,1.223018 8.411986,1.299853 z m 1.807862,0 c 2.873598,-0.07684 5.694767,-0.511626 8.412888,-1.299853 1.474313,3.534371 2.298699,7.34625 2.409882,11.276543 h -10.82277 z m 0,-1.807863 V 5.1760116 c 3.237882,2.8247856 5.824933,6.2172404 7.657202,9.9757864 -2.47858,0.696028 -5.043936,1.085622 -7.657202,1.159744 z m 9.409021,-1.709333 C 37.576501,10.963885 35.16662,7.6491676 32.182742,4.8081116 c 5.293423,0.6924113 10.056236,3.086021 13.72439,6.6149704 -2.082658,1.321547 -4.291866,2.384571 -6.594179,3.179127 z m -20.625905,0 C 16.384735,13.807653 14.175527,12.744629 12.093773,11.423082 15.761022,7.8941326 20.52474,5.5005228 25.818162,4.8081115 22.833381,7.6491675 20.4235,10.963885 18.687048,14.602209 Z M 17.274203,29.903957 H 28.09607 v 9.073663 c -2.989301,0.07954 -5.918039,0.545974 -8.732881,1.392959 -1.271831,-3.30387 -1.986842,-6.833721 -2.088986,-10.466622 z M 28.09607,40.785483 v 12.038558 c -3.465674,-3.023651 -6.182891,-6.697228 -8.030526,-10.77215 2.59157,-0.763822 5.283478,-1.18867 8.030526,-1.266408 z m 1.807862,12.038558 V 40.785483 c 2.747047,0.07684 5.438955,0.502586 8.030526,1.265504 -1.847635,4.075826 -4.564854,7.749403 -8.030526,10.773054 z m 0,-13.846421 v -9.073663 h 10.821865 c -0.102144,3.632901 -0.817153,7.162752 -2.089889,10.467525 -2.813938,-0.847888 -5.742675,-1.314316 -8.731976,-1.393862 z m 12.629729,-9.073663 h 10.849887 c -0.206096,5.613414 -2.31316,10.748648 -5.701095,14.77747 -2.303217,-1.556569 -4.761006,-2.803995 -7.331787,-3.734141 1.333299,-3.48827 2.08085,-7.211563 2.182995,-11.043329 z m -30.98767,16.131559 c 2.138701,-1.42098 4.415705,-2.56355 6.794851,-3.417764 1.758147,3.94114 4.281923,7.53246 7.476416,10.574188 -5.560081,-0.727664 -10.536223,-3.330986 -14.271267,-7.156424 z m 20.636751,7.156424 c 3.194494,-3.040825 5.718271,-6.632144 7.476417,-10.574188 2.379147,0.854214 4.655246,1.996784 6.794852,3.417764 -3.735044,3.825438 -8.711187,6.42876 -14.271269,7.156424 z"
     data-original="#000000"
     class="active-path"
     data-old_color="#000000"
     id="path2"
     style="fill:#cdcfd7;fill-opacity:1;stroke:#cdcfd7;stroke-width:0.90479535;stroke-miterlimit:4;stroke-dasharray:none;stroke-opacity:1"
     inkscape:connector-curvature="0" /></g> </svg>